<svg xmlns="http://www.w3.org/2000/svg" xmlns:xlink="http://www.w3.org/1999/xlink" width="400" zoomAndPan="magnify" viewBox="0 0 300 299.999988" height="400" preserveAspectRatio="xMidYMid meet" version="1.0"><defs><clipPath id="4ee5f47619"><path d="M 33.300781 30 L 266.550781 30 L 266.550781 269 L 33.300781 269 Z M 33.300781 30 " clip-rule="nonzero"/></clipPath></defs><g clip-path="url(#4ee5f47619)"><path fill="currentColor" d="M 73.144531 263.960938 C 78.289062 263.699219 83.484375 263.09375 88.507812 262.503906 C 95.535156 261.535156 102.597656 261.011719 109.691406 260.941406 C 116.800781 261.1875 123.863281 261.886719 130.878906 263.039062 L 132.785156 263.308594 C 152.925781 266.402344 173.1875 268.074219 193.566406 268.320312 C 213 268.554688 232.101562 266.160156 250.875 261.128906 C 254.691406 260.304688 258.136719 258.683594 261.210938 256.273438 C 262.613281 255.234375 263.746094 253.957031 264.617188 252.445312 C 265.488281 250.929688 266.023438 249.308594 266.222656 247.574219 C 266.425781 242.78125 262.542969 238.691406 258.800781 234.730469 C 255.804688 231.570312 252.707031 228.304688 251.875 224.867188 C 251.558594 223.128906 251.496094 221.378906 251.695312 219.625 C 251.832031 217.375 252.003906 215.121094 252.175781 212.863281 C 252.8125 206.335938 253.035156 199.796875 252.84375 193.242188 C 252.765625 191.777344 252.648438 190.3125 252.484375 188.972656 C 252.230469 173.738281 251.078125 158.570312 249.019531 143.472656 L 248.15625 136.328125 C 247.8125 133.53125 247.46875 130.742188 247.132812 127.960938 C 247.039062 127.1875 246.945312 126.410156 246.851562 125.628906 C 247.6875 125.164062 248.441406 124.589844 249.105469 123.898438 C 259.367188 113.929688 256.75 99.851562 254.441406 87.4375 C 254.207031 86.164062 253.972656 84.90625 253.753906 83.667969 C 253.636719 82.992188 253.539062 82.273438 253.421875 81.535156 C 252.820312 77.480469 252.066406 72.445312 248.53125 69.660156 C 245.214844 67.066406 239.875 67.550781 235.296875 68.433594 C 232.21875 63.242188 226.019531 59.761719 221.398438 57.542969 C 220.183594 56.960938 219.042969 56.476562 217.957031 56.027344 C 215.078125 55.03125 212.511719 53.503906 210.265625 51.441406 C 208.140625 49.683594 205.714844 48.601562 202.988281 48.195312 C 194.96875 46.484375 187.476562 43.460938 180.515625 39.128906 C 179.519531 38.503906 178.523438 37.851562 177.519531 37.195312 C 172.109375 33.65625 166.519531 30 160.003906 30 L 159.761719 30 C 157.1875 30.117188 154.664062 30.535156 152.1875 31.25 C 151.492188 31.425781 150.785156 31.558594 150.082031 31.699219 C 148.40625 31.960938 146.785156 32.421875 145.222656 33.082031 C 144.464844 33.449219 143.730469 33.855469 143.015625 34.296875 C 142.492188 34.605469 141.976562 34.914062 141.4375 35.191406 C 138.546875 36.519531 135.535156 37.445312 132.402344 37.976562 C 129.726562 38.476562 127.113281 39.203125 124.566406 40.160156 C 120.929688 41.640625 117.386719 43.445312 113.960938 45.191406 C 109.128906 47.835938 104.101562 50.046875 98.882812 51.820312 C 96.699219 52.488281 94.414062 53.015625 92.203125 53.53125 C 89.316406 54.148438 86.46875 54.921875 83.664062 55.847656 C 81.117188 56.902344 78.785156 58.308594 76.664062 60.070312 C 74.542969 61.828125 72.726562 63.863281 71.222656 66.171875 C 67.925781 66.847656 64.699219 67.761719 61.535156 68.90625 C 55.453125 71.144531 54.449219 74.101562 53.613281 80.328125 C 53.378906 82.074219 53.101562 83.875 52.816406 85.707031 C 51.371094 95.101562 49.722656 105.742188 53.304688 114.726562 C 54.050781 116.84375 55.265625 118.648438 56.949219 120.136719 C 57.4375 120.515625 57.960938 120.832031 58.527344 121.078125 C 58.394531 121.964844 58.269531 122.84375 58.136719 123.730469 C 57.171875 130.078125 56.175781 136.640625 55.308594 143.113281 C 54.851562 146.5 54.386719 150.15625 53.96875 154.011719 C 53.128906 161.722656 52.453125 170.242188 52.382812 179.011719 C 52.339844 183.402344 52.445312 187.855469 52.742188 192.308594 C 52.878906 194.390625 53.054688 196.464844 53.285156 198.542969 C 53.378906 199.410156 53.484375 200.273438 53.585938 201.160156 C 54.453125 205.917969 54.476562 210.679688 53.65625 215.445312 C 52.167969 221.617188 47.996094 226.640625 43.574219 231.960938 C 41.640625 234.292969 39.636719 236.703125 37.902344 239.199219 C 36.695312 240.914062 35.636719 242.71875 34.730469 244.609375 C 33.746094 246.332031 33.351562 248.179688 33.546875 250.152344 C 33.839844 251.234375 34.320312 252.230469 34.988281 253.132812 C 35.65625 254.039062 36.460938 254.789062 37.410156 255.390625 C 45.964844 261.835938 57.980469 264.714844 73.144531 263.960938 Z M 35.679688 249.757812 C 35.589844 248.242188 35.925781 246.832031 36.691406 245.519531 C 37.546875 243.738281 38.542969 242.042969 39.683594 240.433594 C 41.363281 238.011719 43.335938 235.636719 45.242188 233.34375 C 49.625 228.066406 54.15625 222.605469 55.757812 215.949219 C 56.652344 210.933594 56.644531 205.921875 55.738281 200.910156 C 55.632812 200.046875 55.519531 199.179688 55.433594 198.3125 C 55.253906 196.644531 55.121094 194.972656 55 193.300781 C 55.867188 193.289062 57.21875 193.273438 58.9375 193.253906 C 64.105469 194.769531 69.378906 193.921875 74.890625 193.507812 C 83.921875 192.828125 92.972656 194.078125 102.023438 194.402344 C 113.394531 194.8125 124.765625 193.753906 136.121094 193.058594 C 143.59375 192.242188 151.074219 192.15625 158.566406 192.796875 C 169.664062 194.296875 180.273438 192.027344 191.269531 192.464844 C 203.582031 192.960938 215.871094 193.871094 228.128906 195.195312 C 234.390625 195.871094 240.652344 196.421875 246.492188 194.175781 C 247.898438 194.226562 249.304688 194.289062 250.714844 194.339844 C 250.832031 200.46875 250.605469 206.585938 250.027344 212.691406 C 249.855469 214.960938 249.679688 217.238281 249.542969 219.488281 C 249.328125 221.460938 249.410156 223.421875 249.78125 225.371094 C 250.742188 229.367188 254.042969 232.847656 257.230469 236.214844 C 260.832031 240.011719 264.230469 243.601562 264.066406 247.46875 C 263.867188 248.90625 263.398438 250.25 262.652344 251.496094 C 261.90625 252.742188 260.949219 253.792969 259.773438 254.648438 C 256.945312 256.824219 253.78125 258.285156 250.292969 259.035156 C 211.316406 270.011719 169.175781 266.265625 133.09375 261.15625 L 131.191406 260.882812 C 124.082031 259.71875 116.925781 259.011719 109.726562 258.765625 C 109.378906 258.765625 109.03125 258.765625 108.6875 258.765625 C 101.847656 258.898438 95.039062 259.425781 88.261719 260.351562 C 83.269531 260.933594 78.113281 261.539062 73.039062 261.792969 C 58.410156 262.535156 46.851562 259.789062 38.714844 253.648438 C 37.222656 252.730469 36.210938 251.429688 35.679688 249.757812 Z M 55.761719 80.617188 C 56.523438 74.945312 57.242188 72.796875 62.289062 70.9375 C 68.105469 68.859375 74.089844 67.523438 80.238281 66.925781 C 92.539062 65.9375 104.816406 66.195312 117.066406 67.691406 C 124.644531 68.394531 132.476562 69.269531 140.039062 70.121094 C 171.34375 73.636719 203.710938 77.265625 234.640625 70.773438 C 238.96875 69.863281 244.308594 69.113281 247.191406 71.371094 C 250.078125 73.628906 250.703125 77.992188 251.277344 81.855469 C 251.390625 82.617188 251.496094 83.351562 251.621094 84.046875 C 251.839844 85.289062 252.074219 86.558594 252.316406 87.835938 C 254.523438 99.722656 257.027344 113.191406 247.597656 122.351562 C 246.957031 123.058594 246.191406 123.589844 245.304688 123.941406 C 244.109375 124.3125 241.085938 123.027344 239.078125 122.183594 C 238.152344 121.769531 237.203125 121.40625 236.238281 121.089844 C 232.03125 119.871094 227.820312 118.652344 223.589844 117.519531 C 215.074219 115.132812 206.433594 113.367188 197.667969 112.214844 C 182.695312 110.414062 167.667969 109.511719 152.589844 109.507812 C 150.25 109.507812 147.917969 109.53125 145.585938 109.578125 C 138.011719 109.71875 130.4375 110.390625 123.113281 111.042969 C 117.605469 111.53125 111.914062 112.039062 106.285156 112.308594 C 93.328125 112.941406 79.496094 114.125 65.96875 118.554688 C 64.070312 119.414062 62.089844 119.683594 60.03125 119.375 C 59.398438 119.1875 58.824219 118.882812 58.3125 118.460938 C 56.921875 117.207031 55.925781 115.695312 55.316406 113.925781 C 51.949219 105.484375 53.550781 95.15625 54.957031 86.039062 C 55.246094 84.191406 55.53125 82.371094 55.761719 80.617188 Z M 92.703125 55.636719 C 94.949219 55.117188 97.269531 54.578125 99.527344 53.886719 C 104.867188 52.082031 110.007812 49.824219 114.957031 47.121094 C 118.335938 45.390625 121.832031 43.609375 125.386719 42.164062 C 127.816406 41.261719 130.308594 40.570312 132.859375 40.09375 C 136.179688 39.523438 139.367188 38.53125 142.425781 37.117188 C 143.003906 36.820312 143.5625 36.488281 144.117188 36.15625 C 144.769531 35.753906 145.441406 35.382812 146.132812 35.046875 C 147.539062 34.460938 148.992188 34.054688 150.496094 33.824219 C 151.234375 33.679688 151.976562 33.535156 152.710938 33.351562 C 155.027344 32.679688 157.386719 32.285156 159.792969 32.164062 C 165.753906 32.070312 171.128906 35.601562 176.335938 39.003906 C 177.351562 39.667969 178.359375 40.328125 179.363281 40.953125 C 186.53125 45.421875 194.246094 48.539062 202.503906 50.308594 C 204.828125 50.636719 206.910156 51.527344 208.75 52.984375 C 211.183594 55.242188 213.964844 56.917969 217.097656 58.011719 C 218.15625 58.457031 219.261719 58.925781 220.445312 59.492188 C 226.648438 62.472656 230.765625 65.550781 232.996094 68.875 C 202.757812 74.972656 170.996094 71.421875 140.273438 67.96875 C 132.699219 67.117188 124.867188 66.238281 117.257812 65.53125 C 104.863281 64.023438 92.441406 63.769531 79.992188 64.769531 C 78.046875 64.988281 76.203125 65.253906 74.394531 65.5625 C 77.046875 62.121094 80.375 59.566406 84.378906 57.890625 C 87.113281 56.988281 89.886719 56.238281 92.703125 55.636719 Z M 229.882812 191.375 C 208.636719 190.523438 186.878906 189.640625 165.042969 189.640625 C 156.023438 189.640625 146.988281 189.792969 137.976562 190.152344 C 133.453125 190.332031 98.886719 190.675781 76.015625 190.90625 C 62.621094 191.039062 57.144531 191.097656 54.839844 191.195312 C 54.179688 175.4375 55.019531 159.757812 57.351562 144.160156 C 72.953125 140.96875 88.675781 138.582031 104.519531 136.992188 C 120.363281 135.40625 136.25 134.625 152.175781 134.652344 C 168.097656 134.679688 183.980469 135.515625 199.820312 137.160156 C 215.660156 138.800781 231.375 141.246094 246.964844 144.488281 C 248.96875 159.289062 250.089844 174.152344 250.328125 189.085938 C 250.453125 190.113281 250.546875 191.136719 250.617188 192.164062 C 243.695312 191.921875 236.78125 191.65625 229.882812 191.375 Z M 60.628906 121.667969 C 62.773438 121.730469 64.839844 121.355469 66.824219 120.542969 C 79.921875 116.253906 93.578125 115.085938 106.386719 114.464844 C 112.054688 114.191406 117.773438 113.683594 123.300781 113.191406 C 130.585938 112.542969 138.121094 111.875 145.625 111.734375 C 162.945312 111.410156 180.203125 112.285156 197.402344 114.359375 C 206.066406 115.492188 214.605469 117.238281 223.019531 119.59375 C 227.242188 120.726562 231.433594 121.941406 235.628906 123.152344 C 236.277344 123.34375 237.226562 123.742188 238.226562 124.167969 C 240.277344 125.191406 242.441406 125.847656 244.71875 126.132812 C 244.800781 126.828125 244.886719 127.519531 244.96875 128.210938 C 245.304688 130.992188 245.644531 133.785156 245.992188 136.585938 L 246.683594 142.242188 C 246.136719 142.125 245.585938 142.023438 245.039062 141.917969 C 243.746094 140.855469 242.269531 140.230469 240.605469 140.039062 C 228.21875 137.875 215.71875 136.363281 203.183594 135.363281 C 183.09375 133.148438 162.941406 132.230469 142.734375 132.597656 C 122.523438 132.964844 102.421875 134.621094 82.425781 137.5625 C 81.324219 137.613281 80.234375 137.6875 79.136719 137.734375 C 72.941406 138.011719 66.367188 138.476562 60.976562 141.265625 C 59.871094 141.480469 58.765625 141.683594 57.664062 141.914062 C 58.480469 135.941406 59.394531 129.910156 60.277344 124.0625 C 60.398438 123.273438 60.507812 122.464844 60.628906 121.667969 Z M 60.628906 121.667969 " fill-opacity="1" fill-rule="nonzero"/></g><path fill="currentColor" d="M 79.769531 241.394531 C 83.183594 241.105469 87.992188 241.503906 91.007812 239.859375 C 91.1875 239.761719 91.390625 239.621094 91.394531 239.414062 C 91.402344 239.207031 91.179688 239.027344 90.960938 238.917969 C 90.714844 238.785156 90.460938 238.65625 90.210938 238.53125 C 87.488281 237.148438 84.671875 235.976562 81.773438 235.015625 C 77.171875 233.5 72.179688 232.417969 68.632812 229.101562 C 67.21875 227.785156 65.851562 226.039062 63.921875 225.984375 C 64.398438 228.09375 65.152344 230.101562 66.179688 232.007812 C 67.210938 233.910156 68.476562 235.640625 69.980469 237.199219 C 70.5625 237.921875 71.222656 238.566406 71.960938 239.125 C 72.703125 239.6875 73.5 240.152344 74.351562 240.515625 C 75.207031 240.882812 76.089844 241.140625 77.007812 241.289062 C 77.921875 241.4375 78.84375 241.472656 79.769531 241.394531 Z M 79.769531 241.394531 " fill-opacity="1" fill-rule="nonzero"/><path fill="currentColor" d="M 197.871094 257.882812 C 203.03125 256.824219 208.003906 255.199219 212.792969 253.007812 L 239.644531 241.925781 C 241.90625 240.988281 244.621094 239.234375 244.046875 236.855469 C 243.375 234.109375 239.460938 234.292969 236.753906 235.070312 C 219.5625 240.035156 202.054688 243.34375 184.234375 244.992188 C 175.105469 245.839844 165.949219 246.242188 156.765625 246.203125 C 151.621094 246.179688 141.382812 242.855469 137.125 246.355469 C 157.722656 247.128906 177.082031 261.308594 197.871094 257.882812 Z M 197.871094 257.882812 " fill-opacity="1" fill-rule="nonzero"/><path fill="currentColor" d="M 82.535156 62.425781 L 82.601562 62.425781 C 84.222656 62.273438 85.746094 61.804688 87.175781 61.027344 C 88.601562 60.246094 89.820312 59.21875 90.828125 57.941406 C 90.960938 57.742188 90.960938 57.546875 90.835938 57.34375 C 90.707031 57.144531 90.523438 57.0625 90.289062 57.101562 C 88.722656 57.378906 87.242188 57.898438 85.84375 58.65625 C 84.445312 59.414062 83.203125 60.375 82.117188 61.539062 C 81.96875 61.710938 81.941406 61.90625 82.035156 62.117188 C 82.132812 62.324219 82.296875 62.429688 82.527344 62.429688 Z M 82.535156 62.425781 " fill-opacity="1" fill-rule="nonzero"/><path fill="currentColor" d="M 99.382812 63.019531 C 99.257812 63.199219 99.25 63.386719 99.351562 63.578125 C 99.453125 63.769531 99.613281 63.863281 99.832031 63.863281 C 99.875 63.863281 99.917969 63.855469 99.957031 63.847656 C 101.550781 63.503906 103.007812 62.859375 104.335938 61.914062 C 105.664062 60.972656 106.75 59.804688 107.597656 58.414062 C 107.710938 58.203125 107.691406 58.003906 107.539062 57.820312 C 107.386719 57.636719 107.195312 57.578125 106.964844 57.648438 C 105.445312 58.109375 104.035156 58.800781 102.738281 59.71875 C 101.441406 60.636719 100.320312 61.738281 99.382812 63.019531 Z M 99.382812 63.019531 " fill-opacity="1" fill-rule="nonzero"/><path fill="currentColor" d="M 121.824219 52.074219 C 121.894531 52.074219 121.964844 52.058594 122.027344 52.03125 C 123.550781 51.453125 124.898438 50.597656 126.066406 49.464844 C 127.238281 48.332031 128.140625 47.015625 128.769531 45.515625 C 128.84375 45.289062 128.792969 45.097656 128.617188 44.9375 C 128.441406 44.777344 128.246094 44.75 128.03125 44.851562 C 126.59375 45.535156 125.304688 46.429688 124.15625 47.53125 C 123.011719 48.636719 122.070312 49.894531 121.332031 51.304688 C 121.296875 51.386719 121.277344 51.476562 121.285156 51.566406 C 121.292969 51.660156 121.320312 51.746094 121.371094 51.824219 C 121.417969 51.902344 121.484375 51.960938 121.566406 52.007812 C 121.644531 52.050781 121.734375 52.074219 121.824219 52.074219 Z M 121.824219 52.074219 " fill-opacity="1" fill-rule="nonzero"/><path fill="currentColor" d="M 112.578125 59.34375 C 112.460938 59.523438 112.449219 59.707031 112.550781 59.898438 C 112.65625 60.089844 112.8125 60.183594 113.03125 60.183594 C 113.074219 60.183594 113.117188 60.179688 113.160156 60.167969 C 114.417969 59.894531 115.570312 59.382812 116.621094 58.636719 C 117.667969 57.890625 118.53125 56.96875 119.199219 55.871094 C 119.308594 55.660156 119.289062 55.460938 119.136719 55.277344 C 118.984375 55.09375 118.796875 55.035156 118.566406 55.101562 C 117.367188 55.464844 116.253906 56.011719 115.230469 56.738281 C 114.207031 57.460938 113.324219 58.332031 112.578125 59.34375 Z M 112.578125 59.34375 " fill-opacity="1" fill-rule="nonzero"/><path fill="currentColor" d="M 94.804688 60.296875 C 94.84375 60.300781 94.878906 60.300781 94.917969 60.296875 C 98.621094 59.457031 103.632812 54.636719 103.84375 54.433594 C 104.039062 54.246094 104.074219 54.03125 103.949219 53.792969 C 103.824219 53.554688 103.628906 53.460938 103.363281 53.511719 C 101.523438 53.875 99.824219 54.574219 98.257812 55.605469 C 96.695312 56.640625 95.386719 57.9375 94.335938 59.488281 C 94.222656 59.667969 94.222656 59.851562 94.324219 60.035156 C 94.429688 60.21875 94.585938 60.3125 94.796875 60.308594 Z M 94.804688 60.296875 " fill-opacity="1" fill-rule="nonzero"/><path fill="currentColor" d="M 108.710938 55.601562 C 108.75 55.601562 108.792969 55.597656 108.832031 55.589844 C 112.535156 54.746094 117.542969 49.929688 117.757812 49.722656 C 117.945312 49.535156 117.980469 49.324219 117.859375 49.085938 C 117.730469 48.851562 117.535156 48.757812 117.273438 48.804688 C 115.433594 49.164062 113.730469 49.863281 112.167969 50.898438 C 110.605469 51.933594 109.296875 53.226562 108.246094 54.777344 C 108.136719 54.960938 108.132812 55.140625 108.234375 55.324219 C 108.339844 55.511719 108.496094 55.601562 108.707031 55.601562 Z M 108.710938 55.601562 " fill-opacity="1" fill-rule="nonzero"/><path fill="currentColor" d="M 126.152344 53.371094 C 126.015625 53.542969 125.886719 53.722656 125.769531 53.910156 C 125.609375 54.175781 125.425781 54.421875 125.207031 54.648438 C 125.089844 54.699219 125.003906 54.78125 124.945312 54.894531 C 124.886719 55.007812 124.867188 55.128906 124.894531 55.253906 C 124.921875 55.378906 124.984375 55.480469 125.082031 55.5625 C 125.183594 55.644531 125.296875 55.683594 125.425781 55.683594 C 125.5 55.683594 125.570312 55.667969 125.640625 55.636719 C 127.03125 55.035156 128.3125 54.25 129.476562 53.28125 C 130.058594 52.792969 130.585938 52.253906 131.058594 51.660156 C 131.203125 51.472656 131.328125 51.277344 131.441406 51.070312 C 131.5625 50.808594 131.734375 50.582031 131.953125 50.390625 C 132.082031 50.316406 132.164062 50.207031 132.199219 50.058594 C 132.238281 49.914062 132.21875 49.777344 132.140625 49.648438 C 132.066406 49.523438 131.953125 49.4375 131.808594 49.402344 C 131.664062 49.367188 131.527344 49.386719 131.398438 49.460938 C 130.160156 50.199219 128.90625 51.007812 127.777344 51.796875 C 127.171875 52.253906 126.628906 52.78125 126.152344 53.371094 Z M 126.152344 53.371094 " fill-opacity="1" fill-rule="nonzero"/><path fill="currentColor" d="M 132.121094 46.421875 C 132.203125 46.425781 132.28125 46.40625 132.359375 46.367188 C 133.367188 45.882812 134.285156 45.257812 135.105469 44.496094 C 135.53125 44.101562 135.914062 43.667969 136.253906 43.199219 C 136.355469 43.046875 136.449219 42.890625 136.53125 42.722656 C 136.605469 42.542969 136.710938 42.382812 136.847656 42.246094 C 136.964844 42.160156 137.039062 42.046875 137.066406 41.902344 C 137.097656 41.757812 137.070312 41.625 136.988281 41.503906 C 136.910156 41.382812 136.796875 41.304688 136.65625 41.273438 C 136.511719 41.242188 136.378906 41.261719 136.253906 41.339844 C 135.351562 41.933594 134.484375 42.550781 133.671875 43.179688 C 133.230469 43.550781 132.839844 43.96875 132.5 44.433594 C 132.421875 44.535156 132.324219 44.695312 132.21875 44.867188 C 132.117188 45.042969 132.007812 45.21875 131.886719 45.382812 C 131.773438 45.441406 131.6875 45.523438 131.632812 45.636719 C 131.578125 45.75 131.566406 45.871094 131.59375 45.992188 C 131.621094 46.117188 131.6875 46.214844 131.785156 46.292969 C 131.882812 46.375 131.996094 46.414062 132.121094 46.414062 Z M 132.121094 46.421875 " fill-opacity="1" fill-rule="nonzero"/><path fill="currentColor" d="M 118.648438 62.285156 C 118.546875 62.425781 118.457031 62.570312 118.375 62.71875 C 118.269531 62.902344 118.160156 63.074219 118.035156 63.242188 C 117.921875 63.296875 117.835938 63.382812 117.78125 63.496094 C 117.726562 63.609375 117.714844 63.726562 117.742188 63.851562 C 117.769531 63.972656 117.832031 64.074219 117.933594 64.152344 C 118.03125 64.230469 118.144531 64.269531 118.273438 64.269531 C 118.355469 64.269531 118.433594 64.253906 118.507812 64.214844 C 119.523438 63.730469 120.441406 63.105469 121.265625 62.34375 C 121.683594 61.949219 122.0625 61.523438 122.402344 61.058594 C 122.503906 60.90625 122.597656 60.746094 122.679688 60.582031 C 122.757812 60.402344 122.863281 60.242188 122.996094 60.097656 C 123.121094 60.015625 123.199219 59.902344 123.230469 59.753906 C 123.257812 59.609375 123.234375 59.472656 123.152344 59.347656 C 123.066406 59.222656 122.953125 59.148438 122.808594 59.117188 C 122.660156 59.085938 122.523438 59.113281 122.402344 59.195312 C 121.519531 59.777344 120.628906 60.414062 119.824219 61.035156 C 119.382812 61.402344 118.988281 61.820312 118.648438 62.285156 Z M 118.648438 62.285156 " fill-opacity="1" fill-rule="nonzero"/><path fill="currentColor" d="M 136.328125 51.972656 C 136.226562 52.113281 136.128906 52.257812 136.042969 52.40625 C 135.941406 52.589844 135.832031 52.761719 135.710938 52.929688 C 135.597656 52.984375 135.515625 53.070312 135.460938 53.183594 C 135.40625 53.296875 135.394531 53.414062 135.421875 53.535156 C 135.453125 53.65625 135.515625 53.757812 135.613281 53.835938 C 135.710938 53.914062 135.824219 53.953125 135.949219 53.953125 C 136.03125 53.953125 136.109375 53.9375 136.183594 53.902344 C 137.195312 53.414062 138.113281 52.792969 138.9375 52.027344 C 139.359375 51.632812 139.738281 51.199219 140.078125 50.730469 C 140.179688 50.582031 140.273438 50.425781 140.351562 50.261719 C 140.429688 50.078125 140.535156 49.917969 140.671875 49.777344 C 140.796875 49.691406 140.875 49.578125 140.902344 49.433594 C 140.933594 49.285156 140.910156 49.152344 140.828125 49.027344 C 140.746094 48.902344 140.628906 48.824219 140.484375 48.792969 C 140.335938 48.761719 140.203125 48.789062 140.078125 48.871094 C 139.210938 49.445312 138.3125 50.082031 137.496094 50.707031 C 137.054688 51.082031 136.664062 51.503906 136.328125 51.972656 Z M 136.328125 51.972656 " fill-opacity="1" fill-rule="nonzero"/><path fill="currentColor" d="M 132.105469 56.121094 C 131.226562 56.292969 130.4375 56.652344 129.738281 57.207031 C 129.035156 57.761719 128.503906 58.445312 128.136719 59.257812 C 128.046875 59.472656 128.082031 59.660156 128.238281 59.832031 C 128.347656 59.941406 128.480469 60 128.636719 60 C 128.695312 60 128.75 59.992188 128.804688 59.972656 C 129.640625 59.695312 130.398438 59.28125 131.078125 58.730469 C 131.433594 58.457031 131.753906 58.148438 132.035156 57.800781 C 132.117188 57.691406 132.1875 57.574219 132.25 57.453125 C 132.304688 57.347656 132.363281 57.25 132.429688 57.152344 C 132.558594 57.105469 132.652344 57.019531 132.71875 56.898438 C 132.78125 56.78125 132.796875 56.652344 132.765625 56.519531 C 132.726562 56.375 132.644531 56.265625 132.515625 56.1875 C 132.386719 56.109375 132.25 56.085938 132.105469 56.121094 Z M 132.105469 56.121094 " fill-opacity="1" fill-rule="nonzero"/><path fill="currentColor" d="M 113.046875 151.789062 C 112.601562 154.578125 112.535156 157.378906 112.84375 160.183594 L 113.597656 171.488281 C 113.613281 171.691406 113.667969 171.890625 113.757812 172.074219 C 113.84375 172.261719 113.964844 172.425781 114.117188 172.566406 C 114.269531 172.703125 114.441406 172.8125 114.632812 172.886719 C 114.824219 172.964844 115.023438 173.003906 115.230469 173.003906 C 115.265625 173.003906 115.300781 173.003906 115.339844 173.003906 C 115.554688 172.988281 115.757812 172.933594 115.953125 172.835938 C 116.144531 172.742188 116.3125 172.609375 116.453125 172.449219 C 116.59375 172.285156 116.703125 172.105469 116.769531 171.898438 C 116.839844 171.695312 116.867188 171.484375 116.855469 171.269531 L 116.285156 162.769531 C 120.027344 165.429688 123.414062 168.484375 126.4375 171.9375 C 126.582031 172.101562 126.75 172.230469 126.945312 172.324219 C 127.140625 172.421875 127.347656 172.476562 127.5625 172.488281 C 127.78125 172.503906 127.992188 172.476562 128.199219 172.40625 C 128.402344 172.335938 128.585938 172.226562 128.75 172.085938 C 128.914062 171.941406 129.042969 171.773438 129.136719 171.578125 C 129.234375 171.382812 129.289062 171.175781 129.300781 170.960938 C 129.316406 170.742188 129.289062 170.53125 129.21875 170.328125 C 129.148438 170.121094 129.039062 169.9375 128.898438 169.773438 C 126.023438 166.492188 122.835938 163.550781 119.339844 160.941406 C 122.765625 160.683594 125.886719 159.570312 128.703125 157.601562 C 129.976562 156.699219 130.914062 155.527344 131.519531 154.089844 C 132.011719 152.726562 132.101562 151.339844 131.78125 149.925781 C 131.703125 149.5625 131.605469 149.207031 131.488281 148.855469 C 131.371094 148.503906 131.230469 148.160156 131.070312 147.828125 C 130.910156 147.492188 130.726562 147.171875 130.527344 146.859375 C 130.328125 146.546875 130.109375 146.246094 129.875 145.960938 C 129.636719 145.675781 129.386719 145.40625 129.117188 145.152344 C 128.847656 144.894531 128.566406 144.65625 128.265625 144.4375 C 127.96875 144.214844 127.660156 144.015625 127.335938 143.832031 C 127.015625 143.648438 126.683594 143.484375 126.339844 143.34375 C 125.996094 143.199219 125.648438 143.078125 125.292969 142.980469 C 124.933594 142.878906 124.574219 142.800781 124.207031 142.742188 C 123.839844 142.6875 123.472656 142.652344 123.101562 142.640625 C 122.730469 142.628906 122.359375 142.640625 121.992188 142.675781 C 121.621094 142.707031 121.257812 142.765625 120.894531 142.839844 C 120.53125 142.917969 120.175781 143.019531 119.824219 143.140625 C 119.476562 143.261719 119.132812 143.402344 118.800781 143.566406 C 118.46875 143.726562 118.144531 143.910156 117.835938 144.113281 C 116.550781 145.015625 115.496094 146.136719 114.664062 147.46875 C 113.832031 148.800781 113.292969 150.238281 113.046875 151.789062 Z M 119.621094 146.863281 C 120.609375 146.238281 121.6875 145.925781 122.855469 145.933594 C 123.628906 145.929688 124.371094 146.074219 125.089844 146.367188 C 125.976562 146.75 126.730469 147.316406 127.34375 148.0625 C 127.960938 148.808594 128.375 149.652344 128.585938 150.597656 C 128.769531 151.382812 128.734375 152.15625 128.472656 152.917969 C 128.085938 153.777344 127.503906 154.472656 126.730469 155.003906 C 125.121094 156.011719 123.402344 156.765625 121.574219 157.265625 C 119.742188 157.765625 117.878906 157.992188 115.984375 157.945312 C 115.847656 156.097656 115.933594 154.257812 116.25 152.433594 C 116.421875 151.320312 116.800781 150.277344 117.386719 149.3125 C 117.96875 148.351562 118.714844 147.53125 119.621094 146.863281 Z M 119.621094 146.863281 " fill-opacity="1" fill-rule="nonzero"/><path fill="currentColor" d="M 138.632812 171.941406 C 138.636719 172.15625 138.675781 172.363281 138.761719 172.5625 C 138.84375 172.761719 138.964844 172.9375 139.117188 173.089844 C 139.269531 173.242188 139.445312 173.359375 139.644531 173.441406 C 139.84375 173.523438 140.050781 173.566406 140.269531 173.566406 L 140.28125 173.566406 C 140.496094 173.5625 140.707031 173.519531 140.90625 173.4375 C 141.105469 173.351562 141.28125 173.230469 141.433594 173.078125 C 141.585938 172.921875 141.703125 172.746094 141.785156 172.542969 C 141.863281 172.34375 141.90625 172.136719 141.902344 171.917969 C 141.832031 162.507812 141.378906 152.980469 140.554688 143.601562 C 140.535156 143.382812 140.476562 143.179688 140.375 142.988281 C 140.273438 142.796875 140.140625 142.628906 139.976562 142.492188 C 139.808594 142.351562 139.621094 142.25 139.417969 142.183594 C 139.210938 142.121094 138.996094 142.097656 138.78125 142.113281 C 138.566406 142.132812 138.363281 142.195312 138.167969 142.292969 C 137.976562 142.394531 137.8125 142.527344 137.671875 142.691406 C 137.53125 142.859375 137.429688 143.046875 137.367188 143.253906 C 137.300781 143.460938 137.277344 143.671875 137.296875 143.886719 C 138.121094 153.179688 138.570312 162.617188 138.632812 171.941406 Z M 138.632812 171.941406 " fill-opacity="1" fill-rule="nonzero"/><path fill="currentColor" d="M 147.074219 163.511719 C 147.253906 164.503906 147.539062 165.46875 147.9375 166.398438 C 148.335938 167.328125 148.828125 168.199219 149.425781 169.015625 C 150.019531 169.835938 150.699219 170.574219 151.460938 171.238281 C 152.222656 171.902344 153.050781 172.472656 153.941406 172.949219 C 155.039062 173.484375 156.203125 173.75 157.425781 173.746094 C 159 173.742188 160.460938 173.335938 161.8125 172.53125 C 162.945312 171.828125 163.898438 170.933594 164.675781 169.851562 C 165.449219 168.765625 165.984375 167.574219 166.28125 166.277344 C 166.332031 166.066406 166.339844 165.851562 166.304688 165.640625 C 166.269531 165.425781 166.195312 165.226562 166.082031 165.042969 C 165.96875 164.855469 165.824219 164.699219 165.652344 164.574219 C 165.476562 164.445312 165.28125 164.359375 165.070312 164.308594 C 164.863281 164.257812 164.648438 164.25 164.433594 164.28125 C 164.222656 164.316406 164.023438 164.390625 163.835938 164.5 C 163.652344 164.613281 163.496094 164.757812 163.367188 164.933594 C 163.242188 165.109375 163.152344 165.300781 163.101562 165.511719 C 162.902344 166.382812 162.546875 167.179688 162.035156 167.910156 C 161.523438 168.640625 160.890625 169.242188 160.136719 169.722656 C 159.417969 170.160156 158.640625 170.40625 157.800781 170.457031 C 156.960938 170.511719 156.15625 170.363281 155.386719 170.019531 C 154.03125 169.265625 152.902344 168.253906 152.003906 166.988281 C 151.105469 165.722656 150.523438 164.324219 150.261719 162.792969 C 149.996094 161.574219 149.859375 160.34375 149.84375 159.097656 C 149.828125 157.855469 149.941406 156.621094 150.175781 155.398438 C 150.414062 154.175781 150.773438 152.988281 151.253906 151.839844 C 151.730469 150.691406 152.324219 149.601562 153.023438 148.570312 C 153.410156 148.089844 153.855469 147.675781 154.367188 147.332031 C 154.875 146.988281 155.425781 146.726562 156.015625 146.546875 C 156.605469 146.371094 157.207031 146.285156 157.824219 146.292969 C 158.441406 146.296875 159.042969 146.394531 159.628906 146.585938 C 160.085938 146.742188 160.503906 146.972656 160.882812 147.273438 C 161.261719 147.570312 161.582031 147.925781 161.839844 148.335938 C 162.097656 148.742188 162.285156 149.183594 162.394531 149.652344 C 162.503906 150.125 162.535156 150.597656 162.484375 151.078125 C 162.480469 151.296875 162.515625 151.507812 162.59375 151.707031 C 162.675781 151.910156 162.789062 152.089844 162.9375 152.246094 C 163.089844 152.402344 163.265625 152.523438 163.460938 152.613281 C 163.660156 152.699219 163.867188 152.746094 164.085938 152.75 L 164.117188 152.75 C 164.332031 152.75 164.539062 152.707031 164.734375 152.628906 C 164.933594 152.546875 165.109375 152.429688 165.261719 152.28125 C 165.414062 152.132812 165.535156 151.957031 165.617188 151.761719 C 165.703125 151.566406 165.746094 151.359375 165.753906 151.148438 C 165.808594 150.324219 165.734375 149.511719 165.523438 148.714844 C 165.316406 147.914062 164.984375 147.171875 164.53125 146.480469 C 164.078125 145.792969 163.527344 145.191406 162.875 144.683594 C 162.226562 144.175781 161.511719 143.785156 160.734375 143.511719 C 159.824219 143.199219 158.894531 143.035156 157.933594 143.015625 C 156.976562 142.996094 156.035156 143.121094 155.117188 143.394531 C 154.195312 143.664062 153.339844 144.070312 152.542969 144.605469 C 151.75 145.144531 151.054688 145.789062 150.460938 146.539062 C 149.605469 147.757812 148.886719 149.054688 148.300781 150.421875 C 147.714844 151.792969 147.277344 153.207031 146.984375 154.667969 C 146.691406 156.128906 146.554688 157.605469 146.570312 159.09375 C 146.585938 160.585938 146.753906 162.054688 147.074219 163.511719 Z M 147.074219 163.511719 " fill-opacity="1" fill-rule="nonzero"/><path fill="currentColor" d="M 170.6875 156.140625 C 170.507812 156.167969 170.332031 156.199219 170.152344 156.234375 C 169.949219 156.269531 169.757812 156.335938 169.578125 156.445312 C 169.398438 156.550781 169.246094 156.683594 169.117188 156.851562 C 168.992188 157.015625 168.898438 157.195312 168.84375 157.398438 C 168.785156 157.597656 168.765625 157.800781 168.785156 158.007812 C 168.804688 158.214844 168.863281 158.410156 168.960938 158.59375 C 169.054688 158.78125 169.179688 158.941406 169.335938 159.078125 C 169.492188 159.214844 169.671875 159.320312 169.867188 159.386719 C 170.0625 159.457031 170.265625 159.488281 170.472656 159.480469 C 170.566406 159.480469 170.664062 159.472656 170.757812 159.453125 C 170.90625 163.03125 171.320312 166.582031 171.992188 170.101562 C 172.089844 170.8125 172.339844 171.464844 172.738281 172.0625 C 173.261719 172.65625 173.894531 173.101562 174.628906 173.398438 C 175.359375 173.695312 176.121094 173.8125 176.914062 173.75 L 177.105469 173.75 C 180.894531 173.730469 184.554688 173.039062 188.089844 171.675781 C 188.28125 171.582031 188.453125 171.453125 188.59375 171.289062 C 188.738281 171.125 188.84375 170.941406 188.914062 170.738281 C 188.984375 170.535156 189.015625 170.324219 189 170.105469 C 188.988281 169.890625 188.933594 169.683594 188.839844 169.492188 C 188.742188 169.296875 188.613281 169.125 188.453125 168.984375 C 188.289062 168.839844 188.105469 168.734375 187.902344 168.664062 C 187.695312 168.59375 187.484375 168.5625 187.269531 168.578125 C 187.054688 168.589844 186.847656 168.644531 186.652344 168.738281 C 183.5625 169.890625 180.371094 170.46875 177.074219 170.480469 C 175.648438 170.503906 175.394531 170.15625 175.382812 170.140625 C 175.292969 169.933594 175.230469 169.714844 175.199219 169.492188 C 174.539062 166.03125 174.140625 162.542969 174.007812 159.023438 C 175.621094 158.890625 177.253906 158.867188 178.9375 158.839844 C 179.785156 158.828125 180.636719 158.8125 181.496094 158.789062 C 181.714844 158.78125 181.921875 158.734375 182.117188 158.644531 C 182.316406 158.558594 182.488281 158.433594 182.640625 158.277344 C 182.789062 158.117188 182.902344 157.9375 182.976562 157.734375 C 183.054688 157.53125 183.089844 157.320312 183.082031 157.105469 C 183.078125 156.886719 183.027344 156.679688 182.941406 156.484375 C 182.851562 156.285156 182.726562 156.113281 182.570312 155.960938 C 182.410156 155.8125 182.230469 155.703125 182.027344 155.625 C 181.824219 155.546875 181.613281 155.511719 181.398438 155.519531 C 180.550781 155.546875 179.71875 155.558594 178.886719 155.570312 C 177.273438 155.59375 175.628906 155.621094 173.960938 155.75 C 173.984375 153.175781 174.148438 150.609375 174.453125 148.050781 C 174.488281 147.753906 174.574219 147.058594 174.777344 146.882812 C 175.125 146.710938 175.496094 146.605469 175.882812 146.574219 C 179.089844 146.109375 182.277344 146.21875 185.449219 146.894531 C 185.65625 146.933594 185.863281 146.929688 186.070312 146.886719 C 186.28125 146.84375 186.472656 146.761719 186.648438 146.644531 C 186.824219 146.523438 186.972656 146.378906 187.089844 146.203125 C 187.210938 146.027344 187.289062 145.835938 187.335938 145.628906 C 187.378906 145.421875 187.382812 145.214844 187.347656 145.003906 C 187.3125 144.796875 187.238281 144.601562 187.125 144.421875 C 187.015625 144.242188 186.875 144.089844 186.703125 143.964844 C 186.53125 143.839844 186.34375 143.75 186.136719 143.699219 C 182.582031 142.941406 179.007812 142.820312 175.410156 143.339844 C 174.386719 143.421875 173.464844 143.777344 172.648438 144.402344 C 171.738281 145.296875 171.253906 146.382812 171.207031 147.660156 C 170.867188 150.476562 170.695312 153.304688 170.6875 156.140625 Z M 170.6875 156.140625 " fill-opacity="1" fill-rule="nonzero"/><path fill="currentColor" d="M 113.195312 108.339844 C 105.328125 108.144531 97.496094 108.570312 89.695312 109.621094 C 88.929688 109.738281 88.164062 109.871094 87.394531 110 C 85.730469 110.285156 84.003906 110.578125 82.304688 110.746094 C 81.484375 110.824219 79.8125 110.746094 77.871094 110.667969 C 71.136719 110.371094 65.457031 110.28125 64.203125 112.25 C 63.988281 112.492188 63.867188 112.773438 63.835938 113.09375 C 63.808594 113.417969 63.875 113.714844 64.042969 113.992188 C 64.429688 114.539062 65.339844 114.773438 66.667969 114.773438 C 69.792969 114.582031 72.875 114.089844 75.90625 113.308594 C 76.554688 113.15625 77.039062 113.050781 77.234375 113.023438 C 81.957031 112.347656 86.800781 112.074219 91.488281 111.8125 C 92.832031 111.738281 94.167969 111.664062 95.507812 111.582031 C 98.15625 111.363281 100.785156 111.011719 103.398438 110.527344 C 106.632812 109.90625 109.898438 109.539062 113.191406 109.421875 C 113.34375 109.421875 113.46875 109.371094 113.574219 109.265625 C 113.679688 109.160156 113.734375 109.03125 113.734375 108.882812 C 113.734375 108.734375 113.679688 108.605469 113.574219 108.5 C 113.46875 108.394531 113.34375 108.339844 113.191406 108.339844 Z M 113.195312 108.339844 " fill-opacity="1" fill-rule="nonzero"/><path fill="currentColor" d="M 246.777344 89.335938 C 246.25 89.554688 246.054688 90.136719 246.25 90.898438 L 246.46875 91.765625 C 247.167969 94.195312 247.667969 96.664062 247.96875 99.175781 C 248.1875 102.300781 248.175781 105.429688 247.933594 108.554688 C 248.023438 109.753906 247.886719 110.925781 247.527344 112.074219 C 247.164062 113.222656 246.605469 114.265625 245.847656 115.199219 C 243.902344 116.988281 240.753906 116.753906 237.964844 116.398438 C 236.113281 116.160156 234.210938 115.785156 232.375 115.414062 C 228.859375 114.5625 225.292969 114.148438 221.675781 114.175781 C 221.550781 114.183594 221.441406 114.230469 221.347656 114.3125 C 221.253906 114.398438 221.195312 114.503906 221.175781 114.625 C 221.152344 114.75 221.175781 114.867188 221.234375 114.980469 C 221.296875 115.089844 221.386719 115.167969 221.503906 115.214844 C 228.683594 117.832031 236.046875 119.734375 243.59375 120.933594 C 244.140625 121.054688 244.695312 121.121094 245.257812 121.136719 C 245.65625 121.140625 246.042969 121.082031 246.421875 120.960938 C 246.808594 120.785156 247.164062 120.554688 247.484375 120.277344 C 247.804688 120 248.078125 119.679688 248.304688 119.324219 C 248.535156 118.964844 248.710938 118.582031 248.828125 118.175781 C 248.949219 117.769531 249.007812 117.351562 249.007812 116.929688 C 249.046875 116.328125 249.058594 115.730469 249.035156 115.128906 C 248.980469 114.277344 249.03125 113.429688 249.183594 112.585938 C 249.324219 112.050781 249.503906 111.527344 249.722656 111.019531 C 249.921875 110.546875 250.09375 110.066406 250.238281 109.578125 C 250.511719 108.4375 250.617188 107.285156 250.558594 106.113281 C 250.558594 103.515625 250.300781 100.886719 250.050781 98.34375 L 249.972656 97.550781 C 249.789062 96.085938 249.472656 94.652344 249.015625 93.25 C 248.757812 92.371094 248.492188 91.464844 248.296875 90.527344 C 248.214844 90.035156 247.96875 89.648438 247.550781 89.375 C 247.300781 89.242188 247.042969 89.230469 246.777344 89.335938 Z M 246.777344 89.335938 " fill-opacity="1" fill-rule="nonzero"/><path fill="currentColor" d="M 245.851562 82.503906 C 245.535156 82.601562 245.3125 82.800781 245.175781 83.097656 C 244.921875 84.6875 245.046875 86.25 245.539062 87.78125 C 245.644531 88.101562 245.855469 88.328125 246.164062 88.460938 C 246.253906 88.492188 246.347656 88.507812 246.441406 88.507812 C 246.859375 88.496094 247.160156 88.304688 247.34375 87.929688 C 247.46875 87.644531 247.515625 87.351562 247.488281 87.042969 C 247.433594 85.832031 247.296875 84.628906 247.078125 83.4375 C 247.042969 83.082031 246.878906 82.800781 246.589844 82.59375 C 246.359375 82.453125 246.109375 82.421875 245.851562 82.503906 Z M 245.851562 82.503906 " fill-opacity="1" fill-rule="nonzero"/><path fill="currentColor" d="M 244.75 77.285156 C 244.515625 77.402344 244.144531 77.714844 244.261719 78.539062 C 244.304688 78.863281 244.359375 79.1875 244.410156 79.503906 C 244.492188 80 244.574219 80.5 244.628906 81.019531 C 244.636719 81.382812 244.746094 81.710938 244.960938 82.007812 C 245.15625 82.273438 245.417969 82.410156 245.75 82.417969 C 245.867188 82.417969 245.980469 82.394531 246.089844 82.351562 C 246.335938 82.246094 246.527344 82.082031 246.675781 81.859375 C 246.820312 81.636719 246.886719 81.390625 246.878906 81.121094 C 246.882812 80.019531 246.65625 78.960938 246.199219 77.957031 C 246.097656 77.738281 245.953125 77.550781 245.765625 77.394531 C 245.449219 77.15625 245.109375 77.117188 244.75 77.285156 Z M 244.75 77.285156 " fill-opacity="1" fill-rule="nonzero"/><path fill="currentColor" d="M 242.601562 73.46875 L 243.089844 73.222656 L 242.628906 73.507812 C 243.128906 74.34375 243.523438 75.222656 243.808594 76.148438 C 243.859375 76.417969 243.992188 76.644531 244.207031 76.820312 C 244.417969 76.996094 244.660156 77.082031 244.9375 77.085938 C 245.164062 77.089844 245.359375 77.011719 245.523438 76.851562 C 246.136719 76.242188 245.613281 74.730469 245.5 74.441406 C 245.246094 73.742188 244.933594 73.074219 244.558594 72.4375 C 244.398438 72.128906 244.171875 71.878906 243.882812 71.6875 C 243.695312 71.5625 243.492188 71.5 243.265625 71.503906 C 243.042969 71.511719 242.839844 71.582031 242.664062 71.714844 C 242.484375 71.851562 242.363281 72.027344 242.296875 72.242188 C 242.234375 72.457031 242.238281 72.671875 242.3125 72.882812 C 242.378906 73.09375 242.476562 73.289062 242.601562 73.46875 Z M 242.601562 73.46875 " fill-opacity="1" fill-rule="nonzero"/></svg>