<svg xmlns="http://www.w3.org/2000/svg" xmlns:xlink="http://www.w3.org/1999/xlink" width="400" zoomAndPan="magnify" viewBox="0 0 300 299.999988" height="400" preserveAspectRatio="xMidYMid meet" version="1.0"><defs><clipPath id="698d148e39"><path d="M 32 65.503906 L 181 65.503906 L 181 224.503906 L 32 224.503906 Z M 32 65.503906 " clip-rule="nonzero"/></clipPath></defs><path fill="#a9a0f0" d="M 197.460938 169.171875 C 199.652344 159.179688 201.382812 150.882812 201.007812 148.890625 C 200.910156 148.375 201.066406 150.296875 203.121094 150.75 C 203.34375 150.796875 203.558594 150.820312 203.757812 150.820312 C 204.761719 150.820312 205.285156 150.316406 205.152344 150.425781 L 205.148438 150.425781 C 204.226562 151.191406 202.058594 154.445312 198.875 159.355469 C 194.972656 165.367188 189.816406 173.386719 185.539062 176.941406 C 183.617188 178.539062 181.476562 179.597656 179.136719 179.597656 C 172.339844 179.597656 168.855469 170.566406 166.894531 166.226562 C 166.101562 164.464844 166.882812 162.394531 168.644531 161.601562 C 170.402344 160.804688 172.472656 161.585938 173.269531 163.347656 C 176.417969 170.324219 178.046875 172.605469 179.136719 172.605469 C 179.273438 172.605469 179.882812 172.550781 181.070312 171.5625 C 184.316406 168.867188 188.789062 162.046875 193.007812 155.546875 C 195.746094 151.332031 198.695312 146.695312 200.6875 145.042969 L 200.683594 145.046875 C 200.71875 145.019531 200.75 144.992188 200.785156 144.964844 L 200.78125 144.964844 C 201.277344 144.570312 202.328125 143.828125 203.757812 143.828125 C 204.035156 143.828125 204.324219 143.855469 204.617188 143.921875 L 204.621094 143.921875 C 207.25 144.496094 207.777344 147.050781 207.878906 147.59375 C 208.601562 151.421875 206.214844 161.894531 204.289062 170.667969 C 203.875 172.554688 202.011719 173.75 200.125 173.335938 C 198.242188 172.921875 197.046875 171.054688 197.460938 169.171875 Z M 197.460938 169.171875 " fill-opacity="1" fill-rule="nonzero"/><path fill="#a9a0f0" d="M 164.617188 95.703125 L 157.636719 101.953125 L 157.636719 176.652344 C 157.636719 176.824219 157.652344 176.996094 157.675781 177.160156 C 159.132812 175.363281 160.371094 172.628906 161.390625 168.960938 C 162.515625 164.609375 163.355469 159.128906 163.910156 152.511719 C 164.195312 149.234375 164.433594 145.769531 164.628906 142.113281 L 164.628906 95.996094 C 164.628906 95.898438 164.625 95.800781 164.617188 95.703125 Z M 164.617188 95.703125 " fill-opacity="1" fill-rule="nonzero"/><path fill="#a9a0f0" d="M 266.335938 99.878906 L 259.355469 106.132812 L 259.355469 180.832031 C 259.355469 181.003906 259.367188 181.171875 259.390625 181.335938 C 260.847656 179.539062 262.085938 176.804688 263.105469 173.136719 C 264.234375 168.785156 265.074219 163.304688 265.625 156.6875 C 265.914062 153.414062 266.152344 149.945312 266.347656 146.289062 L 266.347656 100.171875 C 266.347656 100.074219 266.34375 99.976562 266.335938 99.878906 Z M 266.335938 99.878906 " fill-opacity="1" fill-rule="nonzero"/><path fill="#a9a0f0" d="M 106.101562 175.605469 C 105.402344 175.609375 104.792969 175.875 104.269531 176.402344 L 102.292969 178.53125 C 102.21875 178.613281 102.148438 178.695312 102.085938 178.785156 C 101.976562 178.914062 101.855469 179.15625 101.726562 179.515625 C 101.664062 179.722656 101.632812 179.9375 101.625 180.160156 C 101.601562 180.328125 101.640625 180.597656 101.734375 180.96875 C 101.832031 181.285156 101.984375 181.570312 102.195312 181.824219 C 102.265625 181.910156 102.339844 181.988281 102.421875 182.0625 L 104.390625 183.898438 C 104.546875 184.042969 104.714844 184.164062 104.898438 184.261719 C 105.332031 184.519531 105.871094 184.609375 106.511719 184.53125 C 107.066406 184.433594 107.535156 184.179688 107.925781 183.769531 L 109.902344 181.640625 L 110.117188 181.378906 C 110.503906 180.804688 110.644531 180.1875 110.539062 179.53125 C 110.46875 179.101562 110.292969 178.710938 110.007812 178.355469 L 109.773438 178.109375 L 107.804688 176.277344 C 107.300781 175.828125 106.734375 175.605469 106.101562 175.605469 Z M 106.101562 175.605469 " fill-opacity="1" fill-rule="nonzero"/><g clip-path="url(#698d148e39)"><path fill="#a9a0f0" d="M 174.808594 65.503906 L 174.484375 65.511719 C 172.632812 65.628906 170.550781 66.28125 168.242188 67.46875 C 167.628906 67.566406 164.054688 69.71875 157.515625 73.925781 C 139.019531 86.941406 125.144531 97.457031 115.890625 105.46875 C 115.511719 106.78125 115.570312 107.792969 116.070312 108.5 C 130.203125 127.484375 137.859375 138.964844 139.035156 142.945312 C 141.339844 148.636719 142.351562 151.859375 142.066406 152.613281 C 142.332031 156.136719 141.5625 158.929688 139.757812 160.992188 C 134.425781 166.90625 127.378906 169.53125 118.613281 168.863281 C 116.4375 168.378906 114.808594 167.253906 113.722656 165.484375 C 113.109375 164.757812 112.339844 162.855469 111.421875 159.777344 C 112.53125 158.621094 112.816406 157.257812 112.273438 155.6875 C 111.574219 154.195312 110.328125 153.503906 108.535156 153.621094 C 107.554688 153.839844 106.851562 154.226562 106.425781 154.785156 C 101.59375 161.441406 98.136719 165.695312 96.054688 167.546875 C 94.011719 169.390625 92.460938 170.207031 91.410156 169.992188 C 89.539062 169.4375 88.59375 167.964844 88.574219 165.570312 L 88.929688 161.5 L 91.03125 156.585938 C 91.125 155.972656 91.066406 155.378906 90.855469 154.8125 C 89.664062 152.589844 87.949219 152.011719 85.714844 153.074219 C 85.117188 153.0625 84.175781 154.667969 82.890625 157.886719 C 81.054688 161.675781 76.125 173.09375 68.101562 192.144531 L 63.910156 200.914062 C 61.003906 206.683594 57.972656 211.074219 54.816406 214.082031 C 48.964844 218.425781 44.15625 218.152344 40.398438 213.257812 C 39.640625 212.441406 39.253906 210.507812 39.234375 207.453125 C 39.183594 207.070312 39.398438 205.550781 39.882812 202.898438 L 41.894531 194.253906 L 32.800781 202.546875 C 30.953125 215.839844 35.886719 223.042969 47.601562 224.160156 C 53.773438 224.390625 59.589844 220.574219 65.046875 212.714844 C 69.597656 206.246094 75.871094 192.980469 83.867188 172.917969 C 90.578125 179.9375 98.074219 177.800781 106.355469 166.5 C 109.496094 173.664062 115.355469 176.828125 123.925781 175.992188 C 132.101562 175.421875 139.296875 171.789062 145.511719 165.097656 C 149.589844 159.5625 150.238281 152.957031 147.449219 145.28125 C 144.277344 136.128906 136.457031 123.523438 123.988281 107.464844 C 152.726562 85.207031 169.21875 73.65625 173.472656 72.8125 C 174.242188 72.046875 172.621094 76.90625 168.601562 87.390625 C 169.570312 90.769531 171.464844 91.675781 174.289062 90.109375 C 177.992188 83.144531 180.105469 77.265625 180.632812 72.472656 C 180.617188 67.941406 178.675781 65.621094 174.808594 65.503906 Z M 174.808594 65.503906 " fill-opacity="1" fill-rule="nonzero"/></g><path fill="#a9a0f0" d="M 251.378906 97.527344 L 244.390625 103.613281 L 244.390625 161.609375 C 239.148438 168.898438 235.316406 173.324219 232.894531 174.882812 C 230.589844 176.503906 228.847656 176.078125 227.675781 173.601562 C 226.878906 172.515625 227.183594 168.847656 228.589844 162.597656 L 228.355469 161.839844 L 228.363281 110.449219 L 221.375 116.09375 L 221.375 161.609375 C 215.328125 170.148438 210.949219 174.847656 208.238281 175.699219 C 206.03125 176.019531 204.734375 174.894531 204.347656 172.332031 C 204.097656 170.269531 204.53125 166.859375 205.648438 162.09375 L 197.402344 168.519531 L 197.347656 169.164062 C 196.863281 176.199219 199.46875 180.671875 205.171875 182.578125 C 207.367188 183.132812 209.71875 182.808594 212.222656 181.601562 C 215.019531 180.035156 217.804688 177.539062 220.582031 174.113281 C 221.402344 178.34375 223.9375 181.167969 228.1875 182.578125 C 231.78125 183.449219 235.449219 182.179688 239.191406 178.769531 C 241.855469 176.261719 244.449219 173.292969 246.96875 169.867188 L 250.589844 164.976562 C 250.898438 164.46875 251.101562 163.84375 251.199219 163.097656 L 251.382812 161.808594 Z M 251.378906 97.527344 " fill-opacity="1" fill-rule="nonzero"/><path fill="#a9a0f0" d="M 269.914062 107.53125 C 269.941406 125.625 269.96875 143.753906 269.097656 155.636719 C 268.21875 167.554688 266.4375 173.210938 264.660156 178.839844 C 264.5625 179.148438 264.238281 179.316406 263.929688 179.21875 C 263.625 179.125 263.453125 178.796875 263.550781 178.492188 C 265.3125 172.90625 267.070312 167.347656 267.9375 155.554688 C 268.804688 143.722656 268.777344 125.648438 268.753906 107.53125 C 268.75 107.210938 269.011719 106.949219 269.332031 106.949219 C 269.652344 106.949219 269.914062 107.210938 269.914062 107.53125 Z M 269.914062 107.53125 " fill-opacity="1" fill-rule="nonzero"/><path fill="#a9a0f0" d="M 196.226562 169.113281 L 196.222656 169.082031 C 196.460938 173.703125 196.707031 178.03125 199.003906 180.824219 C 200.824219 183.035156 204 184.34375 207.105469 184.34375 C 207.886719 184.34375 208.660156 184.257812 209.398438 184.089844 C 213.078125 183.242188 216.0625 180.21875 219.203125 177.011719 C 219.335938 176.878906 219.523438 176.816406 219.707031 176.84375 C 219.890625 176.871094 220.050781 176.988281 220.136719 177.152344 C 221.863281 180.523438 223.457031 183.5625 226.714844 184.492188 C 227.457031 184.703125 228.300781 184.808594 229.214844 184.808594 C 232.351562 184.808594 236.203125 183.566406 239.394531 181.351562 C 243.519531 178.492188 246.535156 174.011719 249.621094 169.414062 C 249.800781 169.144531 250.160156 169.074219 250.425781 169.253906 C 250.695312 169.433594 250.765625 169.792969 250.585938 170.058594 C 247.527344 174.617188 244.398438 179.296875 240.058594 182.308594 C 236.699219 184.636719 232.617188 185.972656 229.214844 185.972656 C 228.214844 185.972656 227.261719 185.855469 226.398438 185.609375 C 222.566406 184.519531 220.769531 180.9375 219.101562 177.683594 L 220.035156 177.824219 C 216.960938 180.960938 213.734375 184.285156 209.660156 185.222656 C 208.828125 185.414062 207.96875 185.503906 207.105469 185.503906 C 203.71875 185.503906 200.183594 184.089844 198.105469 181.5625 C 195.515625 178.414062 195.292969 173.632812 195.0625 169.140625 C 195.0625 169.132812 195.0625 169.121094 195.0625 169.113281 C 195.0625 168.789062 195.324219 168.53125 195.644531 168.53125 C 195.964844 168.53125 196.226562 168.789062 196.226562 169.113281 Z M 196.226562 169.113281 " fill-opacity="1" fill-rule="nonzero"/><path fill="#a9a0f0" d="M 243.464844 111.878906 L 243.011719 160.582031 C 243.011719 160.699219 242.972656 160.8125 242.910156 160.90625 C 241.464844 163.011719 240.003906 165.148438 238.253906 167.152344 C 236.503906 169.15625 234.480469 171.015625 232.484375 172.855469 C 232.25 173.070312 231.882812 173.054688 231.664062 172.820312 C 231.445312 172.582031 231.460938 172.214844 231.699219 171.996094 C 233.703125 170.152344 235.679688 168.335938 237.375 166.390625 C 239.074219 164.445312 240.5 162.363281 241.949219 160.25 L 241.847656 160.574219 L 242.304688 111.867188 C 242.304688 111.546875 242.570312 111.289062 242.890625 111.292969 C 243.210938 111.292969 243.46875 111.558594 243.464844 111.878906 Z M 243.464844 111.878906 " fill-opacity="0.882" fill-rule="nonzero"/><path fill="#a9a0f0" d="M 219.84375 121.210938 L 219.214844 157.917969 C 219.210938 158.03125 219.175781 158.140625 219.113281 158.238281 L 219.085938 158.273438 C 217.652344 160.367188 216.195312 162.492188 214.457031 164.484375 C 212.707031 166.488281 210.683594 168.347656 208.6875 170.183594 C 208.453125 170.402344 208.085938 170.386719 207.867188 170.148438 C 207.648438 169.914062 207.664062 169.546875 207.902344 169.328125 C 209.90625 167.484375 211.878906 165.664062 213.578125 163.71875 C 215.265625 161.785156 216.6875 159.71875 218.125 157.617188 L 218.152344 157.578125 L 218.050781 157.898438 L 218.679688 121.191406 C 218.6875 120.871094 218.953125 120.617188 219.273438 120.621094 C 219.59375 120.625 219.847656 120.890625 219.84375 121.210938 Z M 219.84375 121.210938 " fill-opacity="0.882" fill-rule="nonzero"/><path fill="#a9a0f0" d="M 196.675781 147.480469 C 196.675781 147.582031 196.648438 147.6875 196.59375 147.777344 L 196.550781 147.847656 C 191.183594 156.847656 185.691406 166.0625 182.078125 168.683594 C 181.257812 169.277344 180.476562 169.582031 179.71875 169.582031 C 177.058594 169.582031 175.699219 165.8125 174.566406 162.898438 C 174.449219 162.601562 174.597656 162.261719 174.898438 162.148438 C 175.195312 162.03125 175.535156 162.179688 175.648438 162.476562 C 176.972656 165.878906 178.066406 168.421875 179.71875 168.421875 C 180.152344 168.421875 180.699219 168.246094 181.394531 167.742188 C 184.757812 165.304688 190.09375 156.402344 195.554688 147.25 L 195.59375 147.179688 L 195.511719 147.480469 C 195.511719 147.15625 195.773438 146.898438 196.09375 146.898438 C 196.414062 146.898438 196.675781 147.15625 196.675781 147.480469 Z M 196.675781 147.480469 " fill-opacity="0.882" fill-rule="nonzero"/><path fill="#a9a0f0" d="M 167.210938 105.402344 C 167.363281 119.234375 167.515625 133.089844 167.085938 142.441406 C 166.65625 151.8125 165.644531 156.671875 164.636719 161.511719 C 164.570312 161.824219 164.261719 162.027344 163.949219 161.960938 C 163.632812 161.894531 163.433594 161.585938 163.496094 161.273438 C 164.5 156.464844 165.5 151.671875 165.925781 142.386719 C 166.351562 133.078125 166.199219 119.261719 166.046875 105.417969 C 166.042969 105.09375 166.300781 104.832031 166.625 104.828125 C 166.945312 104.824219 167.207031 105.082031 167.210938 105.402344 Z M 167.210938 105.402344 " fill-opacity="0.882" fill-rule="nonzero"/><path fill="#a9a0f0" d="M 131.9375 110.484375 L 131.855469 110.183594 C 141.703125 126.515625 151.703125 143.070312 152.457031 154.089844 C 153.226562 165.335938 144.449219 170.796875 136.109375 176.039062 C 135.839844 176.207031 135.480469 176.125 135.308594 175.855469 C 135.136719 175.582031 135.21875 175.222656 135.492188 175.054688 C 143.96875 169.722656 152.011719 164.613281 151.296875 154.171875 C 150.566406 143.503906 140.789062 127.257812 130.859375 110.785156 C 130.804688 110.695312 130.773438 110.589844 130.773438 110.484375 C 130.773438 110.164062 131.035156 109.902344 131.355469 109.902344 C 131.675781 109.902344 131.9375 110.164062 131.9375 110.484375 Z M 131.9375 110.484375 " fill-opacity="0.882" fill-rule="nonzero"/><path fill="#a9a0f0" d="M 149.648438 77.28125 C 142.039062 82.722656 134.417969 88.171875 127.289062 92.753906 C 126.574219 93.214844 125.863281 93.664062 125.164062 94.109375 C 124.492188 94.535156 123.820312 94.960938 123.171875 95.378906 C 117.707031 98.894531 113.664062 101.898438 113.238281 105.433594 C 112.761719 109.394531 116.734375 114.300781 120.535156 118.929688 C 121.015625 119.511719 121.484375 120.085938 121.941406 120.648438 C 125.917969 125.582031 128.386719 129.492188 130.839844 133.375 C 131.011719 133.648438 130.929688 134.007812 130.660156 134.175781 C 130.386719 134.347656 130.027344 134.269531 129.855469 133.996094 C 127.40625 130.117188 124.964844 126.257812 121.035156 121.378906 C 120.585938 120.820312 120.117188 120.25 119.636719 119.667969 C 116 115.238281 111.53125 109.871094 112.082031 105.292969 C 112.589844 101.097656 117.253906 97.800781 122.542969 94.402344 C 123.191406 93.984375 123.871094 93.550781 124.542969 93.125 C 125.242188 92.683594 125.945312 92.234375 126.660156 91.777344 C 133.757812 87.210938 141.359375 81.78125 148.972656 76.335938 C 149.234375 76.148438 149.597656 76.210938 149.785156 76.472656 C 149.972656 76.734375 149.910156 77.097656 149.648438 77.28125 Z M 149.648438 77.28125 " fill-opacity="0.882" fill-rule="nonzero"/><path fill="#a9a0f0" d="M 78.019531 164.542969 L 77.9375 164.71875 C 69.886719 182.492188 61.792969 200.34375 56.121094 207.964844 C 53.34375 211.691406 51.027344 213.144531 48.871094 213.144531 C 46.648438 213.144531 44.84375 211.578125 43.257812 210.230469 C 43.011719 210.023438 42.980469 209.65625 43.191406 209.410156 C 43.398438 209.164062 43.765625 209.136719 44.007812 209.34375 C 45.691406 210.769531 47.160156 211.980469 48.871094 211.980469 C 50.449219 211.980469 52.464844 210.925781 55.1875 207.269531 C 60.761719 199.777344 68.792969 182.085938 76.878906 164.242188 L 76.960938 164.0625 C 77.089844 163.769531 77.4375 163.640625 77.730469 163.773438 C 78.019531 163.90625 78.152344 164.25 78.019531 164.542969 Z M 78.019531 164.542969 " fill-opacity="0.882" fill-rule="nonzero"/><path fill="#a9a0f0" d="M 92.351562 164.832031 C 93.75 163.960938 95.101562 163.117188 96.734375 161.382812 C 98.390625 159.621094 100.335938 156.945312 102.3125 154.222656 C 102.5 153.960938 102.863281 153.902344 103.125 154.09375 C 103.382812 154.28125 103.441406 154.644531 103.253906 154.90625 C 101.292969 157.605469 99.300781 160.351562 97.582031 162.179688 C 95.839844 164.03125 94.378906 164.9375 92.964844 165.820312 C 92.691406 165.988281 92.332031 165.90625 92.164062 165.632812 C 91.992188 165.359375 92.078125 165 92.351562 164.832031 Z M 92.351562 164.832031 " fill-opacity="0.882" fill-rule="nonzero"/><path fill="#a9a0f0" d="M 139.726562 102.929688 L 182.679688 72.589844 C 183.585938 71.949219 184.835938 72.164062 185.472656 73.070312 C 186.113281 73.972656 185.898438 75.226562 184.992188 75.863281 L 142.039062 106.203125 C 141.136719 106.84375 139.882812 106.628906 139.246094 105.722656 C 138.605469 104.820312 138.820312 103.570312 139.726562 102.929688 Z M 139.726562 102.929688 " fill-opacity="1" fill-rule="nonzero"/><path fill="#a9a0f0" d="M 78.207031 104.53125 L 121.160156 74.1875 C 122.066406 73.550781 123.316406 73.765625 123.953125 74.667969 C 124.59375 75.574219 124.378906 76.824219 123.472656 77.464844 L 80.519531 107.804688 C 79.617188 108.441406 78.363281 108.226562 77.726562 107.324219 C 77.085938 106.417969 77.300781 105.167969 78.207031 104.53125 Z M 78.207031 104.53125 " fill-opacity="1" fill-rule="nonzero"/><path fill="#a9a0f0" d="M 232.066406 91.480469 C 232.226562 93.992188 232.570312 97.746094 231.113281 99.746094 C 230.160156 101.058594 228.691406 101.46875 227.46875 101.46875 C 226.363281 101.46875 225.246094 101.148438 224.359375 100.628906 C 222.40625 99.484375 221.742188 97.460938 221.289062 96.203125 L 224.59375 96.183594 C 224.046875 97.769531 223.246094 100.351562 221.070312 101.539062 C 220.210938 102.007812 219.21875 102.21875 218.277344 102.21875 C 216.835938 102.21875 215.109375 101.707031 214.066406 100.289062 C 212.550781 98.234375 213.113281 94.832031 213.382812 92.707031 C 213.507812 91.746094 214.386719 91.070312 215.347656 91.191406 C 216.304688 91.316406 216.984375 92.191406 216.859375 93.152344 C 216.496094 96.003906 216.417969 97.570312 216.886719 98.207031 C 217.054688 98.4375 217.527344 98.714844 218.277344 98.714844 C 218.71875 98.714844 219.117188 98.609375 219.390625 98.460938 C 220.136719 98.054688 220.585938 97.042969 221.28125 95.035156 C 221.527344 94.332031 222.183594 93.859375 222.929688 93.855469 C 223.671875 93.851562 224.335938 94.316406 224.585938 95.015625 C 225.121094 96.492188 225.445312 97.203125 226.128906 97.601562 C 226.492188 97.816406 227 97.960938 227.46875 97.960938 C 227.988281 97.960938 228.199219 97.796875 228.28125 97.683594 C 228.792969 96.976562 228.773438 94.960938 228.570312 91.699219 C 228.507812 90.734375 229.242188 89.902344 230.207031 89.839844 C 231.175781 89.78125 232.007812 90.511719 232.066406 91.480469 Z M 232.066406 91.480469 " fill-opacity="1" fill-rule="nonzero"/><path fill="#a9a0f0" d="M 223.6875 70.5625 L 223.824219 86.496094 C 223.832031 87.464844 223.054688 88.257812 222.085938 88.265625 C 221.117188 88.273438 220.328125 87.496094 220.316406 86.527344 L 220.183594 70.59375 C 220.175781 69.625 220.953125 68.832031 221.921875 68.824219 C 222.890625 68.816406 223.679688 69.59375 223.6875 70.5625 Z M 223.6875 70.5625 " fill-opacity="1" fill-rule="nonzero"/><path fill="#a9a0f0" d="M 175.753906 130.253906 L 175.828125 130.207031 C 186.496094 123.367188 196.316406 117.003906 198.328125 113.722656 C 198.617188 113.25 198.59375 113.046875 198.59375 113.0625 C 198.597656 113.074219 198.605469 113.097656 198.613281 113.109375 C 198.613281 113.109375 198.585938 113.074219 198.5 113.019531 C 198.261719 112.875 197.800781 112.734375 197.195312 112.734375 C 196.359375 112.734375 195.757812 112.992188 195.542969 113.191406 C 194.773438 113.914062 195.59375 116.59375 197.933594 121.867188 C 198.324219 122.753906 197.925781 123.789062 197.039062 124.179688 C 196.15625 124.574219 195.121094 124.171875 194.726562 123.289062 C 193.144531 119.714844 190.046875 113.539062 193.148438 110.632812 C 194.25 109.601562 195.863281 109.230469 197.195312 109.230469 C 198.230469 109.230469 199.382812 109.449219 200.332031 110.03125 C 200.738281 110.28125 201.128906 110.613281 201.445312 111.042969 L 201.445312 111.046875 C 201.789062 111.515625 202.019531 112.078125 202.082031 112.703125 C 202.183594 113.691406 201.863281 114.664062 201.316406 115.554688 C 198.757812 119.730469 187.835938 126.671875 177.722656 133.15625 L 177.648438 133.203125 C 176.832031 133.726562 175.746094 133.492188 175.226562 132.675781 C 174.703125 131.859375 174.941406 130.777344 175.753906 130.253906 Z M 175.753906 130.253906 " fill-opacity="1" fill-rule="nonzero"/><path fill="#a9a0f0" d="M 41.5625 130.253906 C 52.253906 123.398438 62.117188 117.011719 64.136719 113.722656 C 64.425781 113.25 64.402344 113.046875 64.402344 113.0625 C 64.40625 113.074219 64.414062 113.101562 64.421875 113.109375 C 64.421875 113.109375 64.394531 113.074219 64.304688 113.019531 C 64.070312 112.875 63.609375 112.734375 63.003906 112.734375 C 62.167969 112.734375 61.566406 112.992188 61.351562 113.191406 C 60.582031 113.914062 61.402344 116.59375 63.742188 121.867188 C 64.132812 122.753906 63.734375 123.789062 62.847656 124.179688 C 61.964844 124.574219 60.929688 124.171875 60.535156 123.289062 C 58.953125 119.714844 55.855469 113.539062 58.957031 110.632812 C 60.058594 109.601562 61.671875 109.230469 63.003906 109.230469 C 64.039062 109.230469 65.191406 109.449219 66.136719 110.03125 C 66.542969 110.28125 66.9375 110.613281 67.253906 111.046875 C 67.597656 111.515625 67.824219 112.078125 67.890625 112.703125 C 67.992188 113.691406 67.671875 114.664062 67.125 115.554688 C 64.558594 119.738281 53.59375 126.707031 43.453125 133.203125 C 42.640625 133.726562 41.554688 133.492188 41.03125 132.675781 C 40.511719 131.859375 40.746094 130.777344 41.5625 130.253906 Z M 41.5625 130.253906 " fill-opacity="1" fill-rule="nonzero"/></svg>