<svg xmlns="http://www.w3.org/2000/svg" xmlns:xlink="http://www.w3.org/1999/xlink" width="400" zoomAndPan="magnify" viewBox="0 0 300 299.999988" height="400" preserveAspectRatio="xMidYMid meet" version="1.0"><path fill="currentColor" d="M 116.402344 184.515625 C 103.417969 189.570312 90.433594 194.574219 77.453125 199.628906 C 68.878906 202.949219 59.511719 205.625 52.773438 212.164062 C 49.652344 215.238281 46.925781 218.707031 44.449219 222.226562 C 41.027344 226.984375 37.660156 231.839844 34.683594 236.941406 C 32.851562 240.015625 31.117188 243.238281 30.671875 246.855469 C 30.175781 250.96875 32.15625 255.128906 34.832031 258.203125 C 38.304688 262.214844 43.40625 264.296875 48.660156 263.058594 C 52.226562 262.265625 55.351562 260.234375 58.273438 258.101562 C 62.089844 255.328125 65.707031 252.355469 69.226562 249.332031 C 79.582031 240.5625 89.640625 231.34375 99.503906 222.078125 C 111.992188 210.429688 124.429688 198.539062 136.769531 186.644531 C 149.703125 174.105469 162.636719 161.519531 175.519531 148.933594 C 187.066406 137.636719 198.664062 126.335938 210.257812 115.136719 C 219.226562 106.464844 228.296875 97.890625 237.515625 89.367188 C 243.808594 83.472656 250.050781 77.476562 255.800781 70.984375 C 260.65625 65.53125 265.957031 59.4375 268.484375 52.398438 C 269.277344 50.121094 269.824219 47.34375 268.980469 45.015625 C 267.445312 40.753906 262.339844 37.929688 258.179688 36.988281 C 252.230469 35.699219 246.1875 38.226562 240.933594 40.605469 C 236.871094 42.488281 233.203125 44.867188 229.734375 47.792969 C 225.175781 51.558594 221.160156 55.867188 217.492188 60.527344 C 216.699219 61.566406 218.089844 62.957031 218.929688 61.964844 C 225.324219 53.886719 232.855469 46.550781 242.371094 42.191406 C 247.773438 39.714844 253.964844 37.386719 259.863281 39.566406 C 263.085938 40.753906 267.199219 43.382812 267.445312 47.148438 C 267.59375 49.773438 266.554688 52.398438 265.363281 54.679688 C 263.730469 57.949219 261.546875 60.921875 259.320312 63.796875 C 254.066406 70.488281 248.019531 76.582031 241.972656 82.480469 C 233.003906 91.152344 223.6875 99.578125 214.667969 108.199219 C 203.816406 118.605469 193.0625 129.109375 182.359375 139.617188 C 170.019531 151.660156 157.632812 163.75 145.242188 175.792969 C 132.953125 187.734375 120.613281 199.628906 108.175781 211.371094 C 97.667969 221.332031 87.066406 231.195312 76.210938 240.757812 C 72.097656 244.375 67.9375 247.992188 63.722656 251.414062 C 60.105469 254.335938 56.292969 257.609375 52.078125 259.6875 C 49.75 260.878906 47.074219 261.621094 44.449219 261.273438 C 41.773438 260.976562 39.394531 259.539062 37.460938 257.707031 C 34.585938 254.933594 32.304688 250.671875 32.902344 246.605469 C 33.398438 243.136719 35.378906 239.867188 37.164062 236.894531 C 40.136719 231.988281 43.40625 227.132812 46.828125 222.472656 C 51.039062 216.625 55.597656 211.324219 62.039062 208.003906 C 67.738281 205.128906 73.933594 203.097656 79.878906 200.769531 C 86.125 198.339844 92.417969 195.910156 98.710938 193.484375 C 104.855469 191.105469 110.949219 188.726562 117.09375 186.347656 C 118.136719 186 117.589844 184.019531 116.402344 184.515625 Z M 116.402344 184.515625 " fill-opacity="1" fill-rule="nonzero"/><path fill="currentColor" d="M 226.960938 52.894531 C 233.898438 48.683594 241.875 46.402344 250.003906 46.355469 C 251.785156 46.355469 253.472656 46.453125 255.207031 46.601562 C 255.058594 45.957031 254.90625 45.363281 254.710938 44.71875 C 246.582031 48.238281 238.40625 51.804688 230.277344 55.324219 C 224.433594 57.851562 218.632812 60.429688 212.984375 63.253906 C 210.308594 64.589844 207.683594 65.976562 205.203125 67.664062 C 202.378906 69.546875 199.703125 71.628906 197.175781 73.855469 C 191.230469 79.160156 186.226562 85.355469 182.0625 92.09375 C 181.367188 93.234375 183.152344 94.175781 183.796875 93.132812 C 189.445312 83.964844 196.828125 75.742188 205.75 69.695312 C 207.980469 68.160156 210.457031 66.871094 212.835938 65.582031 C 218.039062 62.90625 223.339844 60.527344 228.695312 58.199219 C 237.664062 54.234375 246.683594 50.367188 255.699219 46.453125 C 256.097656 46.304688 256.296875 45.710938 256.195312 45.3125 C 256.097656 44.816406 255.652344 44.621094 255.253906 44.570312 C 247.175781 43.679688 238.902344 44.96875 231.46875 48.1875 C 229.585938 48.980469 227.800781 49.972656 226.015625 51.011719 C 224.828125 51.804688 225.867188 53.589844 226.960938 52.894531 Z M 226.960938 52.894531 " fill-opacity="1" fill-rule="nonzero"/><path fill="currentColor" d="M 195.988281 78.121094 C 204.757812 74.105469 214.273438 71.925781 223.886719 71.675781 C 226.167969 71.628906 228.496094 71.675781 230.773438 71.824219 C 230.675781 71.179688 230.625 70.488281 230.527344 69.84375 C 223.144531 72.074219 216.105469 75.195312 209.121094 78.417969 C 203.222656 81.09375 197.472656 83.867188 191.824219 86.941406 C 181.417969 92.539062 171.554688 99.082031 162.734375 107.109375 C 156.886719 112.460938 151.535156 118.308594 146.628906 124.550781 C 146.332031 125 146.183594 125.59375 146.628906 125.988281 C 146.925781 126.386719 147.71875 126.433594 148.066406 125.988281 C 155.796875 116.128906 164.71875 107.160156 174.828125 99.773438 C 184.9375 92.441406 196.035156 86.644531 207.335938 81.390625 C 215.066406 77.820312 222.894531 74.253906 231.070312 71.777344 C 232.210938 71.480469 231.914062 69.894531 230.824219 69.792969 C 221.0625 69.101562 211.101562 70.386719 201.785156 73.609375 C 199.503906 74.402344 197.175781 75.34375 194.996094 76.335938 C 194.5 76.535156 194.402344 77.226562 194.597656 77.722656 C 194.898438 78.269531 195.492188 78.316406 195.988281 78.121094 Z M 195.988281 78.121094 " fill-opacity="1" fill-rule="nonzero"/><path fill="currentColor" d="M 161.296875 111.074219 C 170.664062 108.25 180.425781 107.207031 190.140625 108.148438 C 192.320312 108.347656 194.449219 108.644531 196.582031 109.042969 C 196.582031 108.398438 196.582031 107.753906 196.582031 107.109375 C 187.613281 108.644531 179.089844 112.164062 170.613281 115.335938 C 166.15625 116.96875 161.792969 118.65625 157.382812 120.289062 C 153.171875 121.875 148.8125 123.414062 144.796875 125.246094 C 138.949219 127.921875 133.796875 131.789062 128.9375 136 C 124.578125 139.863281 120.367188 144.027344 116.253906 148.191406 C 110.503906 154.085938 104.90625 160.132812 99.453125 166.277344 C 98.660156 167.167969 97.917969 168.0625 97.125 168.953125 C 96.28125 169.894531 97.71875 171.382812 98.5625 170.390625 C 104.113281 164 109.859375 157.753906 115.707031 151.660156 C 119.96875 147.199219 124.378906 142.839844 128.9375 138.625 C 133.199219 134.761719 137.710938 131.191406 142.765625 128.417969 C 146.679688 126.285156 150.84375 124.800781 154.957031 123.214844 C 159.316406 121.578125 163.726562 119.894531 168.039062 118.257812 C 176.511719 115.039062 184.984375 111.46875 193.855469 109.488281 C 194.945312 109.289062 195.988281 109.042969 197.078125 108.84375 C 198.019531 108.695312 198.019531 107.058594 197.078125 106.910156 C 187.710938 105.175781 178.148438 105.175781 168.832031 106.960938 C 166.054688 107.503906 163.332031 108.148438 160.65625 108.992188 C 159.515625 109.535156 160.058594 111.46875 161.296875 111.074219 Z M 161.296875 111.074219 " fill-opacity="1" fill-rule="nonzero"/><path fill="currentColor" d="M 112.386719 155.226562 C 124.527344 148.585938 137.710938 143.976562 151.339844 141.648438 C 154.757812 141.054688 158.226562 140.609375 161.695312 140.359375 C 161.546875 139.714844 161.398438 139.121094 161.199219 138.476562 C 152.578125 144.324219 143.308594 149.082031 133.5 152.648438 C 125.371094 155.671875 116.847656 157.605469 109.117188 161.71875 C 101.632812 165.683594 94.84375 171.035156 88.402344 176.535156 C 81.117188 182.78125 74.179688 189.320312 67.441406 196.207031 C 62.78125 200.917969 58.175781 205.722656 53.765625 210.679688 C 53.464844 210.976562 53.167969 211.324219 52.871094 211.621094 C 52.03125 212.5625 53.417969 214 54.308594 213.058594 C 58.371094 208.597656 62.484375 204.238281 66.699219 199.875 C 73.289062 193.1875 79.980469 186.644531 87.066406 180.5 C 93.804688 174.601562 100.792969 168.902344 108.523438 164.492188 C 110.800781 163.207031 113.179688 162.015625 115.609375 161.023438 C 120.5625 158.992188 125.765625 157.554688 130.820312 155.820312 C 140.683594 152.5 150.148438 147.992188 158.96875 142.441406 C 160.058594 141.746094 161.148438 141.054688 162.238281 140.3125 C 162.984375 139.816406 162.835938 138.328125 161.746094 138.425781 C 147.523438 139.617188 133.648438 143.183594 120.613281 149.03125 C 117.441406 150.421875 114.417969 151.957031 111.445312 153.640625 C 110.257812 154.136719 111.296875 155.820312 112.386719 155.226562 Z M 112.386719 155.226562 " fill-opacity="1" fill-rule="nonzero"/><path fill="currentColor" d="M 97.96875 188.824219 C 95.984375 189.320312 94.050781 189.867188 92.070312 190.410156 C 90.730469 190.855469 89.445312 191.203125 88.105469 191.699219 C 86.769531 192.246094 85.429688 192.738281 84.089844 193.285156 C 82.953125 193.683594 81.910156 194.078125 80.773438 194.472656 C 79.78125 194.871094 78.789062 195.21875 77.796875 195.664062 C 77.152344 195.960938 76.558594 196.308594 75.914062 196.605469 C 75.269531 196.804688 74.578125 197.050781 73.933594 197.25 C 72.296875 197.945312 70.613281 198.6875 68.976562 199.429688 C 71.15625 198.585938 73.339844 197.792969 75.617188 197 C 77.152344 196.359375 78.789062 195.714844 80.324219 195.070312 C 82.457031 194.226562 84.539062 193.335938 86.71875 192.589844 C 88.105469 192.046875 89.492188 191.5 90.878906 191.003906 C 92.269531 190.707031 93.65625 190.3125 95.09375 190.0625 C 97.324219 189.371094 99.601562 188.675781 101.832031 188.082031 C 100.59375 188.28125 99.402344 188.527344 98.214844 188.777344 " fill-opacity="1" fill-rule="nonzero"/><path fill="currentColor" d="M 146.582031 144.125 C 144.449219 144.273438 142.367188 144.523438 140.238281 144.820312 C 138.800781 145.019531 137.363281 145.367188 135.925781 145.664062 C 134.488281 146.109375 133.050781 146.554688 131.613281 147.101562 C 130.425781 147.496094 129.285156 147.941406 128.144531 148.4375 C 127.15625 148.933594 126.113281 149.378906 125.125 149.925781 C 124.480469 150.320312 123.882812 150.71875 123.289062 151.164062 C 122.644531 151.460938 121.953125 151.757812 121.308594 152.054688 C 119.671875 152.996094 118.035156 154.039062 116.453125 155.027344 C 118.632812 153.839844 120.761719 152.648438 123.042969 151.609375 C 124.578125 150.71875 126.164062 149.875 127.800781 149.132812 C 129.929688 148.042969 132.160156 147.199219 134.488281 146.503906 C 135.976562 146.007812 137.460938 145.613281 139.046875 145.214844 C 140.535156 145.066406 142.023438 144.917969 143.605469 144.820312 C 146.085938 144.425781 148.464844 144.175781 150.941406 143.878906 L 147.078125 143.976562 " fill-opacity="1" fill-rule="nonzero"/><path fill="currentColor" d="M 183.101562 109.140625 L 178.792969 109.785156 L 175.867188 110.28125 L 172.84375 110.925781 C 172.003906 111.023438 171.210938 111.171875 170.316406 111.371094 C 169.574219 111.519531 168.832031 111.667969 168.085938 111.867188 C 167.59375 112.015625 167.144531 112.164062 166.699219 112.363281 C 166.203125 112.460938 165.757812 112.511719 165.261719 112.660156 C 164.023438 113.054688 162.785156 113.5 161.644531 114.097656 C 163.183594 113.453125 164.867188 113.007812 166.453125 112.660156 C 167.640625 112.363281 168.78125 112.0625 169.972656 111.816406 C 171.554688 111.421875 173.191406 111.171875 174.777344 110.875 L 177.949219 110.179688 L 181.070312 109.882812 L 186.027344 108.992188 L 183.398438 109.238281 " fill-opacity="1" fill-rule="nonzero"/><path fill="currentColor" d="M 217.195312 72.371094 C 215.5625 72.667969 213.925781 73.015625 212.339844 73.460938 C 211.199219 73.707031 210.160156 74.054688 209.070312 74.402344 C 208.523438 74.601562 207.929688 74.847656 207.433594 75.046875 C 206.890625 75.246094 206.34375 75.492188 205.800781 75.742188 C 204.90625 76.039062 203.964844 76.433594 203.125 76.78125 C 202.332031 77.175781 201.539062 77.476562 200.695312 77.871094 C 200.199219 78.121094 199.753906 78.464844 199.257812 78.714844 C 198.710938 78.910156 198.167969 79.160156 197.671875 79.359375 C 196.335938 80.050781 195.09375 80.796875 193.808594 81.589844 C 195.542969 80.695312 197.226562 79.855469 199.011719 79.0625 C 200.25 78.417969 201.539062 77.820312 202.726562 77.277344 C 204.460938 76.484375 206.144531 75.789062 207.929688 75.144531 C 209.070312 74.648438 210.210938 74.304688 211.347656 73.855469 C 212.539062 73.609375 213.628906 73.363281 214.816406 73.214844 C 216.699219 72.71875 218.535156 72.371094 220.417969 71.972656 C 219.425781 72.074219 218.4375 72.121094 217.445312 72.273438 " fill-opacity="1" fill-rule="nonzero"/><path fill="currentColor" d="M 244.550781 47.644531 C 243.164062 47.890625 241.824219 48.238281 240.4375 48.585938 C 239.546875 48.832031 238.605469 49.128906 237.710938 49.425781 C 237.21875 49.574219 236.820312 49.824219 236.324219 50.019531 C 235.828125 50.21875 235.433594 50.417969 234.9375 50.617188 C 234.195312 50.863281 233.449219 51.210938 232.707031 51.507812 C 232.0625 51.804688 231.371094 52.152344 230.726562 52.449219 C 230.277344 52.699219 229.933594 52.996094 229.488281 53.242188 C 229.039062 53.390625 228.644531 53.640625 228.148438 53.835938 C 227.058594 54.480469 226.015625 55.125 224.925781 55.820312 C 226.316406 55.027344 227.75 54.28125 229.1875 53.589844 C 230.179688 53.042969 231.269531 52.449219 232.359375 52.003906 C 233.75 51.308594 235.183594 50.664062 236.671875 50.070312 C 237.613281 49.625 238.605469 49.277344 239.546875 48.929688 C 240.488281 48.734375 241.480469 48.484375 242.46875 48.335938 C 244.007812 47.890625 245.640625 47.542969 247.175781 47.246094 C 246.335938 47.34375 245.441406 47.394531 244.648438 47.492188 " fill-opacity="1" fill-rule="nonzero"/><path fill="currentColor" d="M 261.796875 52.101562 C 261.398438 53.984375 260.558594 55.671875 259.566406 57.304688 C 258.574219 58.890625 257.285156 60.378906 256 61.816406 C 254.214844 63.796875 252.480469 65.78125 250.644531 67.761719 C 248.863281 69.894531 247.078125 71.972656 245.292969 74.054688 C 243.757812 75.640625 242.121094 77.277344 240.585938 78.863281 C 239.148438 80.347656 237.761719 81.785156 236.324219 83.273438 L 233.75 86.394531 L 230.625 88.972656 C 228.148438 91.449219 225.671875 93.828125 223.144531 96.257812 C 226.613281 93.382812 230.03125 90.410156 233.402344 87.433594 C 235.679688 85.15625 238.011719 82.777344 240.289062 80.398438 C 243.261719 77.175781 246.234375 73.90625 249.160156 70.585938 C 250.992188 68.40625 252.777344 66.125 254.609375 63.898438 C 256.59375 61.964844 258.574219 60.03125 260.210938 57.753906 C 261.398438 55.769531 262.242188 53.589844 262.441406 51.261719 C 262.640625 49.03125 262.191406 46.601562 260.855469 44.71875 C 262.09375 46.800781 262.242188 49.230469 261.746094 51.457031 " fill-opacity="1" fill-rule="nonzero"/><path fill="currentColor" d="M 141.425781 174.207031 C 134.984375 179.804688 128.542969 185.554688 122.25 191.402344 C 118.035156 195.464844 113.773438 199.480469 109.414062 203.445312 L 96.53125 216.328125 C 92.863281 219.648438 89.144531 222.96875 85.480469 226.339844 C 82.207031 229.460938 78.9375 232.582031 75.765625 235.753906 C 73.832031 237.984375 71.851562 240.164062 69.722656 242.195312 C 67.242188 243.832031 64.816406 245.417969 62.238281 246.804688 C 55.945312 251.015625 49.054688 254.4375 41.871094 256.964844 C 51.386719 254.335938 60.503906 250.074219 68.878906 244.375 C 71.753906 242.148438 74.476562 239.71875 77.105469 237.140625 C 79.679688 234.566406 82.257812 232.039062 84.835938 229.609375 C 91.671875 222.769531 98.710938 216.128906 105.796875 209.441406 C 110.257812 204.929688 114.667969 200.46875 118.976562 195.863281 C 123.636719 191.945312 128.34375 188.03125 133.101562 184.214844 C 140.1875 177.328125 147.421875 170.488281 154.757812 163.800781 C 150.644531 166.972656 146.53125 170.09375 142.417969 173.363281 " fill-opacity="1" fill-rule="nonzero"/><path fill="currentColor" d="M 69.671875 196.804688 C 75.417969 193.683594 81.464844 191.304688 87.808594 189.570312 C 93.953125 187.933594 100.246094 187.042969 106.589844 186.742188 C 110.304688 186.546875 114.074219 186.546875 117.789062 186.644531 C 119.078125 186.695312 119.078125 184.664062 117.789062 184.613281 C 104.65625 184.167969 91.375 185.554688 79.035156 190.3125 C 75.46875 191.648438 72 193.234375 68.628906 195.070312 C 67.441406 195.664062 68.480469 197.347656 69.671875 196.804688 Z M 69.671875 196.804688 " fill-opacity="1" fill-rule="nonzero"/></svg>