<svg xmlns="http://www.w3.org/2000/svg" xmlns:xlink="http://www.w3.org/1999/xlink" width="400" zoomAndPan="magnify" viewBox="0 0 300 299.999988" height="400" preserveAspectRatio="xMidYMid meet" version="1.0"><defs><clipPath id="fe9a6a880d"><path d="M 33 64.898438 L 270 64.898438 L 270 235.148438 L 33 235.148438 Z M 33 64.898438 " clip-rule="nonzero"/></clipPath></defs><path fill="currentColor" d="M 58.5625 197.035156 C 57.503906 195.980469 53.277344 192.808594 52.21875 192.808594 C 53.277344 194.921875 55.390625 195.980469 58.5625 197.035156 Z M 58.5625 197.035156 " fill-opacity="1" fill-rule="evenodd"/><path fill="currentColor" d="M 52.21875 152.636719 L 62.789062 142.066406 C 58.5625 142.066406 53.277344 149.46875 52.21875 152.636719 Z M 52.21875 152.636719 " fill-opacity="1" fill-rule="evenodd"/><path fill="currentColor" d="M 158.984375 100.839844 C 161.097656 99.785156 158.984375 100.839844 160.042969 98.726562 C 157.929688 98.726562 157.929688 98.726562 156.871094 101.898438 Z M 158.984375 100.839844 " fill-opacity="1" fill-rule="evenodd"/><path fill="currentColor" d="M 206.554688 78.640625 C 206.554688 78.640625 207.613281 78.640625 207.613281 77.585938 Z M 206.554688 78.640625 " fill-opacity="1" fill-rule="evenodd"/><path fill="currentColor" d="M 133.613281 94.5 C 135.730469 94.5 136.785156 93.441406 137.84375 92.382812 C 139.957031 92.382812 142.070312 92.382812 143.128906 90.269531 Z M 133.613281 94.5 " fill-opacity="1" fill-rule="evenodd"/><path fill="currentColor" d="M 92.386719 193.863281 C 88.160156 189.636719 87.101562 193.863281 82.875 191.75 C 83.933594 193.863281 83.933594 193.863281 87.101562 193.863281 C 88.160156 193.863281 91.332031 193.863281 92.386719 193.863281 Z M 92.386719 193.863281 " fill-opacity="1" fill-rule="evenodd"/><path fill="currentColor" d="M 128.328125 200.207031 C 127.273438 199.148438 129.386719 200.207031 127.273438 199.148438 C 127.273438 198.09375 126.214844 198.09375 125.160156 197.035156 C 126.214844 199.148438 126.214844 199.148438 128.328125 200.207031 Z M 128.328125 200.207031 " fill-opacity="1" fill-rule="evenodd"/><path fill="currentColor" d="M 152.644531 120.925781 C 157.929688 120.925781 161.097656 123.039062 163.214844 126.210938 C 162.15625 128.324219 161.097656 128.324219 160.042969 129.382812 C 155.8125 130.441406 150.527344 126.210938 152.644531 120.925781 Z M 151.585938 120.925781 C 148.414062 126.210938 155.8125 130.441406 161.097656 131.496094 C 162.15625 129.382812 163.214844 129.382812 165.328125 127.269531 C 162.15625 123.039062 156.871094 118.8125 151.585938 120.925781 Z M 151.585938 120.925781 " fill-opacity="1" fill-rule="evenodd"/><path fill="currentColor" d="M 244.609375 112.46875 C 249.894531 106.125 257.292969 96.613281 255.179688 87.097656 C 254.125 84.984375 254.125 84.984375 250.953125 83.925781 L 252.007812 86.042969 C 256.238281 97.667969 249.894531 104.011719 244.609375 112.46875 Z M 244.609375 112.46875 " fill-opacity="1" fill-rule="evenodd"/><path fill="currentColor" d="M 99.789062 181.179688 C 101.902344 184.351562 104.015625 183.292969 107.1875 184.351562 C 105.074219 182.238281 105.074219 183.292969 104.015625 182.238281 C 100.84375 180.121094 105.074219 181.179688 101.902344 180.121094 C 99.789062 180.121094 100.84375 180.121094 99.789062 181.179688 Z M 99.789062 181.179688 " fill-opacity="1" fill-rule="evenodd"/><path fill="currentColor" d="M 119.871094 161.09375 C 119.871094 162.152344 119.871094 162.152344 120.929688 163.210938 L 123.042969 164.265625 C 125.160156 161.09375 123.042969 158.980469 119.871094 161.09375 Z M 119.871094 161.09375 " fill-opacity="1" fill-rule="evenodd"/><path fill="currentColor" d="M 41.648438 195.980469 L 40.589844 192.808594 C 43.761719 186.464844 43.761719 181.179688 44.820312 174.835938 C 46.933594 171.664062 46.933594 168.496094 46.933594 166.378906 C 49.046875 163.210938 50.105469 160.039062 51.164062 156.867188 C 46.933594 162.152344 44.820312 168.496094 42.707031 175.894531 C 42.707031 178.007812 40.589844 182.238281 40.589844 185.40625 C 40.589844 187.523438 39.535156 189.636719 39.535156 190.695312 C 39.535156 193.863281 39.535156 194.921875 41.648438 195.980469 Z M 41.648438 195.980469 " fill-opacity="1" fill-rule="evenodd"/><path fill="currentColor" d="M 136.785156 173.78125 C 136.785156 171.664062 136.785156 171.664062 135.730469 171.664062 C 133.613281 170.609375 133.613281 171.664062 132.558594 171.664062 C 132.558594 173.78125 134.671875 174.835938 136.785156 173.78125 Z M 136.785156 173.78125 " fill-opacity="1" fill-rule="evenodd"/><g clip-path="url(#fe9a6a880d)"><path fill="currentColor" d="M 116.703125 123.039062 C 127.273438 125.152344 137.84375 134.667969 145.242188 142.066406 C 147.355469 144.183594 150.527344 148.410156 153.699219 150.523438 C 152.644531 150.523438 153.699219 150.523438 152.644531 150.523438 C 152.644531 150.523438 151.585938 150.523438 151.585938 150.523438 C 150.527344 149.46875 147.355469 145.238281 144.1875 143.125 C 151.585938 157.921875 156.871094 156.867188 157.929688 158.980469 C 158.984375 160.039062 162.15625 165.324219 163.214844 167.4375 C 168.5 181.179688 163.214844 193.863281 163.214844 207.605469 C 163.214844 218.179688 164.269531 222.40625 156.871094 227.691406 C 152.644531 231.921875 156.871094 230.863281 139.957031 228.75 C 128.328125 227.691406 125.160156 228.75 112.472656 221.347656 C 96.617188 211.835938 92.386719 210.777344 71.246094 207.605469 C 63.847656 206.550781 50.105469 205.492188 43.761719 203.378906 C 41.648438 201.265625 42.707031 201.265625 41.648438 200.207031 C 39.535156 201.265625 38.476562 200.207031 37.421875 199.148438 C 37.421875 198.09375 37.421875 198.09375 36.363281 197.035156 C 35.304688 189.636719 40.589844 173.78125 42.707031 167.4375 C 45.875 154.753906 46.933594 148.410156 58.5625 136.78125 C 60.675781 135.726562 63.847656 132.554688 65.960938 130.441406 C 68.074219 129.382812 72.304688 127.269531 75.476562 126.210938 L 76.53125 127.269531 C 81.816406 121.984375 95.558594 121.984375 105.074219 123.039062 C 119.871094 124.097656 123.042969 130.441406 133.613281 134.667969 Z M 130.445312 112.46875 C 117.757812 123.039062 113.53125 110.355469 95.558594 107.183594 C 97.675781 105.070312 100.84375 105.070312 104.015625 104.011719 C 108.246094 102.957031 108.246094 100.839844 114.585938 101.898438 C 120.929688 101.898438 131.5 106.125 130.445312 112.46875 Z M 125.160156 95.554688 L 118.816406 95.554688 C 120.929688 94.5 121.988281 93.441406 125.160156 92.382812 C 128.328125 91.328125 131.5 90.269531 134.671875 90.269531 C 142.070312 88.15625 138.902344 89.214844 145.242188 91.328125 C 144.1875 93.441406 143.128906 91.328125 141.015625 95.554688 C 147.355469 94.5 145.242188 91.328125 152.644531 93.441406 C 151.585938 94.5 147.355469 96.613281 146.300781 96.613281 C 147.355469 97.667969 151.585938 95.554688 153.699219 94.5 C 155.8125 94.5 154.757812 96.613281 154.757812 96.613281 L 153.699219 96.613281 C 151.585938 97.667969 150.527344 97.667969 149.472656 98.726562 C 155.8125 97.667969 152.644531 97.667969 156.871094 96.613281 C 157.929688 96.613281 165.328125 101.898438 166.386719 102.957031 C 167.441406 105.070312 165.328125 100.839844 166.386719 104.011719 L 167.441406 108.242188 C 168.5 107.183594 167.441406 108.242188 168.5 107.183594 C 168.5 107.183594 168.5 106.125 168.5 106.125 L 169.554688 105.070312 C 171.671875 108.242188 173.785156 109.296875 174.839844 111.410156 C 181.183594 115.640625 182.242188 118.8125 186.46875 123.039062 C 188.582031 124.097656 189.640625 126.210938 189.640625 129.382812 C 184.355469 128.324219 179.070312 116.699219 163.214844 108.242188 C 151.585938 102.957031 139.957031 96.613281 125.160156 95.554688 Z M 152.644531 83.925781 C 155.8125 82.871094 165.328125 80.757812 168.5 79.699219 C 182.242188 75.472656 191.753906 82.871094 198.097656 93.441406 C 204.441406 101.898438 211.839844 105.070312 201.269531 112.46875 C 192.8125 116.699219 188.582031 106.125 183.296875 100.839844 C 181.183594 98.726562 178.011719 98.726562 174.839844 97.667969 C 172.726562 94.5 166.386719 90.269531 161.097656 88.15625 C 158.984375 87.097656 154.757812 84.984375 152.644531 83.925781 Z M 209.726562 79.699219 C 216.066406 79.699219 217.125 79.699219 220.296875 84.984375 C 223.46875 87.097656 225.582031 89.214844 225.582031 93.441406 C 222.410156 92.382812 220.296875 88.15625 217.125 86.042969 Z M 207.613281 77.585938 C 207.613281 78.640625 206.554688 78.640625 206.554688 78.640625 Z M 201.269531 77.585938 C 198.097656 77.585938 195.984375 75.472656 194.925781 74.414062 C 197.039062 73.355469 199.15625 76.527344 201.269531 77.585938 Z M 211.839844 77.585938 L 201.269531 74.414062 C 202.324219 73.355469 204.441406 74.414062 205.496094 73.355469 C 206.554688 72.300781 204.441406 72.300781 208.667969 71.242188 C 218.183594 70.183594 229.808594 70.183594 239.324219 75.472656 C 261.523438 83.925781 255.179688 91.328125 262.578125 98.726562 C 261.523438 100.839844 262.578125 105.070312 262.578125 108.242188 C 262.578125 111.410156 258.351562 133.609375 252.007812 136.78125 C 252.007812 131.496094 256.238281 118.8125 255.179688 113.527344 C 254.125 115.640625 252.007812 128.324219 252.007812 130.441406 C 249.894531 137.839844 249.894531 139.953125 245.667969 144.183594 C 246.722656 136.78125 250.953125 126.210938 249.894531 118.8125 C 253.066406 116.699219 256.238281 112.46875 257.292969 108.242188 C 256.238281 109.296875 254.125 110.355469 253.066406 112.46875 C 252.007812 114.582031 250.953125 116.699219 249.894531 116.699219 C 245.667969 120.925781 243.550781 123.039062 240.382812 126.210938 C 230.867188 136.78125 231.925781 137.839844 218.183594 148.410156 C 217.125 149.46875 215.011719 150.523438 213.953125 151.582031 C 204.441406 160.039062 204.441406 161.09375 194.925781 167.4375 C 191.753906 168.496094 185.414062 171.664062 184.355469 174.835938 C 197.039062 172.722656 209.726562 156.867188 219.238281 150.523438 C 223.46875 147.351562 230.867188 143.125 235.09375 136.78125 C 238.265625 131.496094 244.609375 123.039062 248.835938 119.867188 C 248.835938 127.269531 246.722656 143.125 242.496094 147.351562 L 238.265625 151.582031 C 238.265625 150.523438 240.382812 146.296875 239.324219 144.183594 C 237.210938 146.296875 237.210938 151.582031 236.152344 155.808594 L 231.925781 157.921875 L 236.152344 149.46875 C 234.039062 150.523438 232.980469 156.867188 230.867188 160.039062 C 229.808594 163.210938 226.640625 164.265625 224.523438 167.4375 C 224.523438 166.378906 222.410156 169.550781 224.523438 165.324219 C 224.523438 166.378906 222.410156 168.496094 221.355469 168.496094 L 221.355469 165.324219 C 219.238281 173.78125 219.238281 170.609375 215.011719 175.894531 C 205.496094 184.351562 207.613281 183.292969 197.039062 190.695312 C 193.871094 193.863281 185.414062 204.4375 180.128906 206.550781 C 181.183594 200.207031 183.296875 194.921875 183.296875 188.578125 C 183.296875 186.464844 183.296875 187.523438 182.242188 186.464844 L 180.128906 201.265625 C 180.128906 206.550781 179.070312 208.664062 173.785156 211.835938 C 174.839844 201.265625 178.011719 192.808594 178.011719 184.351562 C 178.011719 182.238281 178.011719 182.238281 176.957031 181.179688 L 172.726562 210.777344 C 172.726562 213.949219 171.671875 213.949219 170.613281 215.007812 C 170.613281 215.007812 169.554688 216.0625 169.554688 216.0625 C 168.5 217.121094 169.554688 216.0625 168.5 217.121094 C 168.5 209.722656 175.898438 186.464844 173.785156 180.121094 C 171.671875 182.238281 170.613281 197.035156 170.613281 200.207031 C 169.554688 205.492188 169.554688 211.835938 167.441406 217.121094 C 167.441406 217.121094 167.441406 217.121094 166.386719 218.179688 C 165.328125 218.179688 166.386719 218.179688 165.328125 218.179688 C 167.441406 207.605469 169.554688 197.035156 169.554688 185.40625 C 168.5 175.894531 167.441406 169.550781 162.15625 161.09375 C 163.214844 160.039062 163.214844 160.039062 164.269531 160.039062 C 169.554688 157.921875 178.011719 153.695312 182.242188 149.46875 C 174.839844 152.636719 168.5 156.867188 161.097656 158.980469 C 158.984375 157.921875 158.984375 155.808594 156.871094 153.695312 C 155.8125 150.523438 146.300781 139.953125 143.128906 135.726562 C 132.558594 126.210938 126.214844 121.984375 110.359375 119.867188 C 101.902344 118.8125 95.558594 117.753906 89.21875 117.753906 C 69.132812 119.867188 60.675781 129.382812 50.105469 143.125 C 51.164062 135.726562 56.449219 126.210938 60.675781 121.984375 C 61.734375 119.867188 64.90625 118.8125 65.960938 117.753906 C 69.132812 115.640625 75.476562 113.527344 79.703125 111.410156 C 82.875 110.355469 91.332031 107.183594 95.558594 108.242188 C 107.1875 109.296875 115.644531 121.984375 127.273438 116.699219 C 141.015625 109.296875 124.101562 100.839844 111.417969 99.785156 C 113.53125 98.726562 115.644531 98.726562 117.757812 97.667969 C 133.613281 97.667969 153.699219 105.070312 165.328125 112.46875 C 169.554688 116.699219 171.671875 119.867188 176.957031 124.097656 C 182.242188 127.269531 185.414062 131.496094 187.527344 132.554688 C 197.039062 137.839844 197.039062 127.269531 191.753906 119.867188 C 190.699219 118.8125 189.640625 117.753906 188.582031 116.699219 C 187.527344 114.582031 185.414062 111.410156 182.242188 110.355469 C 181.183594 108.242188 178.011719 107.183594 174.839844 105.070312 L 160.042969 94.5 C 152.644531 91.328125 143.128906 88.15625 143.128906 88.15625 C 142.070312 88.15625 142.070312 88.15625 142.070312 87.097656 C 149.472656 86.042969 147.355469 82.871094 156.871094 87.097656 L 183.296875 102.957031 C 188.582031 108.242188 193.871094 117.753906 201.269531 113.527344 C 204.441406 111.410156 205.496094 111.410156 206.554688 109.296875 C 210.78125 102.957031 204.441406 98.726562 203.382812 96.613281 C 201.269531 93.441406 200.210938 92.382812 198.097656 90.269531 C 192.8125 83.925781 192.8125 80.757812 178.011719 78.640625 C 187.527344 72.300781 198.097656 78.640625 204.441406 82.871094 C 208.667969 84.984375 212.898438 87.097656 216.066406 90.269531 C 217.125 93.441406 221.355469 97.667969 226.640625 97.667969 C 230.867188 92.382812 224.523438 84.984375 222.410156 82.871094 C 219.238281 79.699219 211.839844 75.472656 207.613281 73.355469 Z M 35.304688 172.722656 C 34.25 178.007812 34.25 179.066406 33.191406 184.351562 C 34.25 188.578125 30.019531 203.378906 41.648438 201.265625 C 38.476562 204.4375 44.820312 206.550781 46.933594 207.605469 L 45.875 208.664062 C 44.820312 207.605469 45.875 207.605469 43.761719 208.664062 C 49.046875 211.835938 60.675781 215.007812 67.019531 215.007812 C 71.246094 216.0625 76.53125 217.121094 80.761719 217.121094 L 98.730469 222.40625 C 106.128906 224.519531 102.960938 221.347656 116.703125 227.691406 C 124.101562 230.863281 143.128906 234.035156 152.644531 235.089844 C 153.699219 235.089844 154.757812 234.035156 156.871094 235.089844 C 157.929688 234.035156 157.929688 234.035156 160.042969 232.976562 C 160.042969 232.976562 160.042969 232.976562 162.15625 231.921875 C 165.328125 231.921875 164.269531 230.863281 166.386719 228.75 C 172.726562 223.464844 168.5 227.691406 172.726562 222.40625 L 179.070312 217.121094 C 183.296875 213.949219 187.527344 209.722656 191.753906 205.492188 C 202.324219 198.09375 210.78125 187.523438 215.011719 184.351562 L 246.722656 158.980469 C 250.953125 153.695312 255.179688 148.410156 260.464844 143.125 C 265.75 135.726562 263.636719 133.609375 266.808594 126.210938 C 269.980469 117.753906 269.980469 113.527344 267.867188 106.125 C 266.808594 104.011719 267.867188 92.382812 256.238281 81.8125 C 250.953125 76.527344 252.007812 73.355469 241.4375 70.183594 C 236.152344 68.070312 225.582031 64.898438 219.238281 64.898438 C 212.898438 64.898438 208.667969 64.898438 199.15625 65.957031 L 174.839844 71.242188 C 173.785156 72.300781 172.726562 72.300781 170.613281 73.355469 L 144.1875 82.871094 C 143.128906 82.871094 142.070312 82.871094 139.957031 83.925781 L 121.988281 90.269531 C 119.871094 91.328125 119.871094 91.328125 117.757812 92.382812 C 114.585938 93.441406 111.417969 93.441406 108.246094 94.5 C 105.074219 95.554688 104.015625 96.613281 100.84375 98.726562 C 95.558594 100.839844 90.273438 104.011719 84.988281 106.125 C 78.644531 108.242188 68.074219 112.46875 64.90625 116.699219 C 61.734375 119.867188 62.789062 117.753906 60.675781 118.8125 L 46.933594 131.496094 C 40.589844 142.066406 40.589844 150.523438 37.421875 161.09375 C 35.304688 165.324219 35.304688 169.550781 35.304688 172.722656 Z M 35.304688 172.722656 " fill-opacity="1" fill-rule="evenodd"/></g><path fill="currentColor" d="M 87.101562 197.035156 C 86.046875 195.980469 86.046875 195.980469 82.875 194.921875 C 77.589844 193.863281 73.359375 193.863281 70.191406 191.75 C 67.019531 188.578125 65.960938 187.523438 63.847656 186.464844 C 59.617188 183.292969 62.789062 181.179688 58.5625 180.121094 C 57.503906 183.292969 58.5625 185.40625 60.675781 188.578125 C 68.074219 195.980469 68.074219 199.148438 87.101562 197.035156 Z M 87.101562 197.035156 " fill-opacity="1" fill-rule="evenodd"/><path fill="currentColor" d="M 127.273438 213.949219 C 129.386719 217.121094 137.84375 219.234375 141.015625 217.121094 C 147.355469 215.007812 151.585938 217.121094 152.644531 210.777344 C 150.527344 210.777344 149.472656 211.835938 147.355469 211.835938 C 144.1875 212.890625 144.1875 212.890625 141.015625 212.890625 C 136.785156 213.949219 131.5 212.890625 127.273438 213.949219 Z M 127.273438 213.949219 " fill-opacity="1" fill-rule="evenodd"/><path fill="currentColor" d="M 72.304688 139.953125 C 76.53125 138.894531 78.644531 136.78125 82.875 135.726562 C 87.101562 134.667969 92.386719 132.554688 96.617188 133.609375 C 96.617188 133.609375 97.675781 132.554688 95.558594 131.496094 C 88.160156 128.324219 78.644531 133.609375 73.359375 137.839844 C 72.304688 139.953125 73.359375 138.894531 72.304688 139.953125 Z M 72.304688 139.953125 " fill-opacity="1" fill-rule="evenodd"/><path fill="currentColor" d="M 169.554688 170.609375 C 172.726562 171.664062 176.957031 168.496094 179.070312 166.378906 C 181.183594 166.378906 185.414062 163.210938 187.527344 161.09375 C 184.355469 162.152344 181.183594 164.265625 178.011719 165.324219 C 171.671875 167.4375 169.554688 168.496094 169.554688 170.609375 Z M 169.554688 170.609375 " fill-opacity="1" fill-rule="evenodd"/><path fill="currentColor" d="M 94.503906 147.351562 L 93.445312 150.523438 C 94.503906 149.46875 98.730469 146.296875 97.675781 144.183594 C 96.617188 141.011719 91.332031 142.066406 94.503906 147.351562 Z M 94.503906 147.351562 " fill-opacity="1" fill-rule="evenodd"/><path fill="currentColor" d="M 69.132812 166.378906 C 72.304688 167.4375 73.359375 166.378906 75.476562 165.324219 C 72.304688 161.09375 68.074219 162.152344 69.132812 166.378906 Z M 69.132812 166.378906 " fill-opacity="1" fill-rule="evenodd"/></svg>