<svg xmlns="http://www.w3.org/2000/svg" xmlns:xlink="http://www.w3.org/1999/xlink" width="400" zoomAndPan="magnify" viewBox="0 0 300 299.999988" height="400" preserveAspectRatio="xMidYMid meet" version="1.0"><path fill="currentColor" d="M 76.902344 59.535156 C 83.433594 59.191406 90.0625 59.636719 96.59375 60.625 C 99.90625 61.121094 103.125 61.761719 106.339844 62.457031 C 109.554688 63.199219 112.820312 64.039062 115.988281 64.929688 C 122.417969 66.808594 128.703125 69.035156 134.933594 71.609375 C 136.519531 72.25 138.003906 72.945312 139.585938 73.585938 L 144.285156 75.566406 C 147.402344 76.902344 150.519531 78.1875 153.636719 79.574219 C 166.105469 85.066406 178.324219 90.953125 190.148438 97.632812 C 201.921875 104.308594 213.253906 111.878906 223.59375 120.539062 C 229.234375 125.289062 234.578125 130.332031 239.472656 135.777344 C 244.371094 141.269531 248.925781 147.007812 252.980469 153.140625 C 256.988281 159.277344 260.402344 165.757812 262.925781 172.585938 C 265.398438 179.414062 266.785156 186.636719 266.683594 193.761719 C 266.535156 200.933594 264.855469 208.109375 261.539062 214.390625 C 259.859375 217.558594 257.730469 220.378906 255.257812 222.902344 C 252.734375 225.375 249.863281 227.550781 246.746094 229.382812 C 243.679688 231.210938 240.363281 232.746094 236.902344 234.03125 L 235.617188 234.476562 C 235.21875 234.625 234.773438 234.773438 234.28125 234.875 L 231.707031 235.714844 L 230.371094 236.109375 L 229.035156 236.457031 L 226.414062 237.148438 C 219.339844 238.878906 211.964844 239.722656 204.695312 239.820312 C 198.558594 239.871094 192.472656 239.425781 186.488281 238.484375 C 180.453125 237.59375 174.5625 236.308594 168.726562 234.527344 C 157.148438 231.015625 146.015625 226.066406 135.628906 219.980469 C 130.433594 216.964844 125.335938 213.699219 120.390625 210.234375 C 115.492188 206.722656 110.691406 203.109375 105.992188 199.300781 C 96.640625 191.730469 87.738281 183.566406 79.078125 175.207031 C 70.421875 166.847656 62.109375 158.089844 54.835938 148.441406 C 51.175781 143.640625 47.859375 138.597656 44.84375 133.351562 C 41.921875 128.058594 39.203125 122.617188 36.925781 116.976562 C 35.9375 114.304688 34.949219 111.484375 34.15625 108.515625 C 33.414062 105.597656 32.871094 102.578125 32.671875 99.5625 C 32.425781 96.542969 32.671875 93.476562 33.265625 90.554688 C 33.511719 89.074219 34.007812 87.636719 34.503906 86.203125 C 35.097656 84.816406 35.640625 83.382812 36.382812 82.097656 C 37.816406 79.425781 39.597656 77 41.625 74.675781 C 43.703125 72.449219 46.03125 70.46875 48.453125 68.640625 C 50.925781 66.808594 53.550781 65.273438 56.320312 63.988281 C 59.042969 62.652344 61.960938 61.515625 64.878906 60.625 C 67.550781 59.882812 69.234375 59.386719 69.726562 58.992188 C 70.222656 58.644531 69.480469 58.546875 67.304688 58.894531 C 62.457031 59.882812 57.558594 61.566406 52.855469 63.988281 C 51.667969 64.53125 50.53125 65.273438 49.34375 65.96875 C 48.703125 66.414062 48.15625 66.808594 47.5625 67.203125 L 46.722656 67.75 L 45.929688 68.34375 C 43.703125 69.925781 41.675781 71.804688 39.746094 73.835938 C 39.300781 74.328125 38.804688 74.921875 38.3125 75.417969 C 37.867188 75.960938 37.46875 76.554688 36.976562 77.097656 C 36.777344 77.394531 36.53125 77.644531 36.332031 77.941406 L 34.847656 80.167969 L 34.601562 80.660156 C 34.253906 81.304688 33.910156 81.949219 33.5625 82.589844 C 33.265625 83.234375 32.96875 83.925781 32.671875 84.621094 L 32.226562 85.609375 C 32.128906 85.957031 31.980469 86.300781 31.878906 86.699219 C 31.683594 87.390625 31.433594 88.132812 31.238281 88.824219 C 30.445312 91.695312 30.050781 94.710938 30 97.679688 C 30 100.648438 30.296875 103.667969 30.890625 106.585938 C 31.484375 109.503906 32.324219 112.425781 33.265625 115.246094 C 34.253906 118.0625 35.34375 120.882812 36.628906 123.554688 C 37.222656 124.941406 37.867188 126.277344 38.507812 127.613281 L 39.449219 129.640625 L 40.4375 131.667969 C 41.082031 133.054688 41.875 134.339844 42.617188 135.675781 C 43.308594 137.011719 44.148438 138.300781 44.941406 139.585938 C 51.421875 149.875 59.339844 159.425781 67.75 168.28125 C 72.003906 172.734375 76.359375 176.988281 80.808594 181.195312 C 85.261719 185.398438 89.765625 189.503906 94.367188 193.511719 C 103.566406 201.578125 113.167969 209.097656 123.109375 215.726562 C 133.105469 222.308594 143.445312 228.09375 154.082031 232.449219 C 156.703125 233.585938 159.375 234.527344 162.097656 235.46875 C 163.480469 235.914062 164.769531 236.308594 166.105469 236.800781 C 166.746094 237.050781 167.441406 237.199219 168.132812 237.394531 C 168.777344 237.59375 169.519531 237.792969 170.160156 237.941406 C 175.503906 239.425781 180.898438 240.613281 186.191406 241.402344 C 193.5625 242.542969 201.132812 242.988281 208.652344 242.640625 C 216.121094 242.292969 223.640625 241.15625 230.914062 239.078125 C 232.746094 238.535156 234.527344 237.890625 236.308594 237.347656 C 238.089844 236.753906 239.871094 236.011719 241.550781 235.269531 C 245.066406 233.734375 248.378906 231.90625 251.546875 229.726562 C 254.710938 227.550781 257.582031 224.976562 259.957031 221.960938 C 262.382812 218.992188 264.308594 215.628906 265.84375 212.113281 C 268.863281 205.089844 270 197.320312 269.652344 189.703125 C 269.457031 185.894531 268.910156 182.085938 267.972656 178.472656 C 267.082031 174.761719 265.84375 171.148438 264.410156 167.6875 C 261.539062 160.710938 257.679688 154.082031 253.375 147.898438 C 249.074219 141.714844 244.273438 135.875 239.078125 130.382812 C 238.433594 129.691406 237.742188 129 237.097656 128.355469 L 235.121094 126.375 C 233.734375 125.089844 232.449219 123.753906 231.015625 122.515625 L 228.9375 120.636719 L 226.808594 118.804688 C 225.375 117.519531 223.9375 116.382812 222.503906 115.195312 C 216.617188 110.496094 210.582031 106.140625 204.25 102.085938 C 191.632812 93.96875 178.324219 87.042969 164.769531 80.808594 C 157.988281 77.691406 151.113281 74.773438 144.234375 71.953125 L 141.664062 70.867188 L 139.089844 69.777344 C 137.359375 69.085938 135.628906 68.34375 133.894531 67.699219 C 130.382812 66.3125 126.921875 65.125 123.308594 63.988281 C 119.746094 62.851562 116.183594 61.863281 112.523438 61.019531 C 108.910156 60.128906 105.25 59.386719 101.589844 58.792969 C 94.265625 57.558594 86.746094 57.011719 79.375 57.410156 C 76.804688 57.558594 74.625 57.855469 72.992188 58.199219 C 71.359375 58.496094 70.371094 58.894531 70.074219 59.191406 C 69.726562 59.488281 70.074219 59.585938 71.113281 59.585938 C 72.152344 59.734375 74.03125 59.683594 76.902344 59.535156 Z M 76.902344 59.535156 " fill-opacity="1" fill-rule="nonzero"/><path fill="currentColor" d="M 224.335938 118.90625 C 222.011719 119.746094 219.980469 121.132812 218.152344 122.617188 C 216.320312 124.101562 214.589844 125.734375 213.003906 127.367188 C 209.789062 130.828125 206.921875 134.636719 204.546875 138.644531 C 199.695312 146.757812 196.578125 155.8125 194.503906 164.917969 C 192.277344 174.859375 191.335938 185.003906 190.792969 195.046875 L 190.644531 198.804688 L 190.59375 200.6875 L 190.542969 201.578125 C 190.542969 201.824219 190.496094 202.070312 190.496094 202.367188 C 190.445312 202.863281 190.347656 203.308594 190.199219 203.753906 C 190.050781 204.101562 189.902344 204.296875 189.851562 204.347656 C 189.800781 204.398438 189.753906 204.398438 189.703125 204.398438 C 189.652344 204.398438 189.605469 204.398438 189.457031 204.398438 C 189.207031 204.347656 188.761719 204.199219 188.269531 203.902344 C 186.339844 202.765625 184.558594 201.328125 183.125 199.5 C 181.640625 197.71875 180.453125 195.691406 179.363281 193.511719 C 178.523438 191.730469 177.828125 189.800781 177.234375 187.921875 C 176.640625 185.992188 176.195312 184.0625 175.800781 182.085938 C 175.453125 180.105469 175.207031 178.125 175.058594 176.148438 C 174.910156 174.167969 174.859375 172.140625 174.910156 170.160156 C 175.058594 162.144531 176.742188 154.179688 179.3125 146.609375 C 180.601562 142.800781 182.132812 139.042969 183.816406 135.429688 C 185.496094 131.769531 187.328125 128.109375 189.503906 124.742188 C 191.683594 121.378906 194.253906 118.164062 197.46875 115.640625 C 200.585938 113.117188 204.296875 111.1875 208.257812 110.394531 C 208.703125 110.296875 209.046875 110.199219 209.296875 110.097656 C 209.542969 110 209.742188 109.851562 209.789062 109.753906 C 209.9375 109.503906 209.691406 109.308594 208.949219 109.308594 C 205.535156 109.355469 201.972656 110.445312 198.65625 112.324219 C 195.292969 114.207031 192.277344 116.875 189.753906 120.042969 C 187.179688 123.210938 185.050781 126.671875 183.171875 130.332031 C 181.292969 133.996094 179.609375 137.753906 178.125 141.566406 C 175.15625 149.332031 173.03125 157.59375 172.386719 165.757812 C 171.742188 173.921875 172.585938 181.886719 174.710938 188.863281 C 174.859375 189.457031 175.058594 190.097656 175.257812 190.691406 C 175.453125 191.285156 175.652344 191.929688 175.898438 192.523438 C 176.34375 193.761719 176.839844 194.898438 177.484375 196.085938 C 178.671875 198.359375 180.054688 200.585938 181.835938 202.515625 C 182.679688 203.457031 183.667969 204.398438 184.707031 205.1875 C 184.953125 205.386719 185.25 205.585938 185.496094 205.734375 C 185.746094 205.929688 186.042969 206.078125 186.289062 206.277344 C 186.832031 206.625 187.425781 206.96875 188.167969 207.21875 C 188.515625 207.367188 188.910156 207.464844 189.40625 207.464844 C 189.851562 207.515625 190.296875 207.414062 190.742188 207.265625 C 191.632812 206.96875 192.324219 206.277344 192.671875 205.535156 C 193.066406 204.84375 193.214844 204.101562 193.363281 203.457031 C 193.511719 202.8125 193.5625 202.070312 193.5625 201.429688 C 193.957031 191.433594 194.75 181.441406 196.480469 171.695312 C 198.261719 161.898438 201.132812 152.351562 205.632812 143.492188 C 206.773438 141.269531 208.007812 139.140625 209.34375 137.0625 C 210.679688 134.984375 212.113281 132.957031 213.648438 131.027344 C 215.230469 129.097656 216.816406 127.265625 218.597656 125.484375 C 220.378906 123.753906 222.207031 122.121094 224.335938 120.933594 C 225.820312 120.140625 226.808594 119.398438 226.957031 118.953125 C 227.007812 118.707031 226.90625 118.558594 226.460938 118.507812 C 226.015625 118.460938 225.324219 118.507812 224.335938 118.90625 Z M 224.335938 118.90625 " fill-opacity="1" fill-rule="nonzero"/><path fill="currentColor" d="M 253.128906 152.546875 C 250.308594 152.992188 247.539062 154.082031 245.015625 155.566406 C 242.492188 157.050781 240.265625 158.980469 238.285156 161.105469 C 234.328125 165.363281 231.609375 170.703125 229.726562 176.046875 C 228.34375 180.007812 227.402344 184.011719 226.710938 188.019531 C 225.96875 192.027344 225.421875 196.035156 224.929688 199.992188 L 228.390625 199.101562 C 226.117188 196.234375 224.382812 192.871094 223.394531 189.308594 C 222.109375 184.804688 222.011719 179.957031 222.851562 175.304688 C 223.59375 170.65625 225.226562 166.105469 227.351562 161.800781 C 228.390625 159.671875 229.578125 157.542969 230.964844 155.566406 C 232.351562 153.585938 233.882812 151.757812 235.8125 150.320312 C 239.671875 147.5 244.667969 146.164062 249.371094 146.859375 C 250.40625 147.054688 250.902344 146.265625 250.011719 145.96875 C 248.082031 145.226562 245.855469 144.828125 243.53125 144.976562 C 242.34375 145.078125 241.15625 145.226562 239.96875 145.523438 C 238.78125 145.820312 237.59375 146.265625 236.457031 146.859375 C 235.269531 147.402344 234.230469 148.144531 233.140625 148.9375 C 232.101562 149.726562 231.113281 150.667969 230.320312 151.65625 C 228.589844 153.636719 227.253906 155.8125 226.066406 158.039062 C 223.640625 162.441406 221.761719 167.242188 220.773438 172.089844 C 220.277344 174.515625 219.933594 176.890625 219.832031 179.3125 C 219.734375 181.6875 219.832031 183.964844 220.128906 186.191406 C 220.773438 191.535156 222.898438 196.628906 226.214844 200.835938 L 227.796875 202.863281 L 228.144531 200.390625 C 228.789062 195.789062 229.480469 191.136719 230.46875 186.585938 C 231.410156 182.085938 232.746094 177.632812 234.625 173.425781 C 236.503906 169.222656 238.980469 165.363281 242.097656 161.996094 C 245.214844 158.683594 249.023438 155.960938 253.328125 154.378906 C 255.058594 153.835938 255.554688 152.203125 253.128906 152.546875 Z M 253.128906 152.546875 " fill-opacity="1" fill-rule="nonzero"/><path fill="currentColor" d="M 105.894531 61.761719 C 101.789062 63.246094 97.78125 65.472656 94.265625 68.242188 C 90.65625 71.015625 87.589844 74.429688 85.015625 78.136719 C 82.394531 81.847656 80.316406 85.90625 78.632812 90.0625 C 76.902344 94.21875 75.664062 98.621094 74.773438 102.976562 C 73.882812 107.773438 73.390625 112.671875 73.242188 117.46875 C 73.09375 122.269531 73.289062 127.117188 73.539062 131.867188 C 73.6875 134.242188 73.882812 136.617188 74.082031 138.992188 L 74.378906 142.457031 C 74.378906 142.902344 74.378906 143.34375 74.28125 143.839844 C 74.230469 144.234375 74.082031 144.632812 73.984375 144.78125 C 73.933594 144.828125 73.933594 144.878906 73.933594 144.878906 L 73.984375 144.929688 C 74.03125 144.976562 73.984375 144.976562 74.03125 144.976562 C 74.03125 144.929688 74.03125 144.929688 74.03125 144.878906 L 74.03125 144.828125 C 74.03125 144.828125 74.03125 144.828125 73.984375 144.828125 C 73.933594 144.828125 73.882812 144.78125 73.734375 144.679688 C 73.539062 144.484375 73.242188 144.136719 72.945312 143.640625 L 72.054688 142.160156 C 71.757812 141.664062 71.460938 141.21875 71.210938 140.675781 L 70.421875 139.140625 C 69.875 138.152344 69.382812 137.0625 68.835938 136.023438 C 65.523438 129.097656 63.445312 121.625 62.605469 114.058594 C 61.863281 106.488281 62.457031 98.820312 64.679688 91.546875 C 66.957031 84.273438 70.964844 77.542969 76.210938 72.054688 C 81.453125 66.5625 88.183594 62.308594 95.652344 60.179688 C 97.335938 59.734375 97.632812 58.746094 96.195312 58.941406 C 95.40625 59.042969 94.613281 59.191406 93.773438 59.289062 C 92.980469 59.488281 92.140625 59.683594 91.347656 59.882812 C 90.554688 60.082031 89.714844 60.378906 88.925781 60.675781 C 88.527344 60.824219 88.132812 60.972656 87.6875 61.121094 C 87.292969 61.269531 86.894531 61.464844 86.449219 61.664062 C 85.660156 62.058594 84.816406 62.40625 84.027344 62.851562 C 83.234375 63.296875 82.441406 63.742188 81.652344 64.234375 C 80.117188 65.226562 78.582031 66.3125 77.097656 67.601562 C 74.179688 70.074219 71.507812 72.945312 69.183594 76.210938 C 66.859375 79.425781 64.878906 82.988281 63.34375 86.746094 C 60.277344 94.265625 59.089844 102.480469 59.488281 110.199219 C 59.832031 117.964844 61.566406 125.289062 63.988281 131.769531 C 65.671875 136.269531 67.75 140.625 70.222656 144.730469 C 70.519531 145.226562 70.816406 145.820312 71.261719 146.363281 C 71.507812 146.609375 71.757812 146.90625 72.054688 147.15625 C 72.398438 147.402344 72.796875 147.601562 73.289062 147.699219 C 73.488281 147.75 73.734375 147.796875 73.984375 147.75 L 74.328125 147.75 C 74.429688 147.75 74.578125 147.699219 74.675781 147.648438 C 74.921875 147.601562 75.121094 147.5 75.320312 147.402344 C 75.515625 147.253906 75.714844 147.15625 75.863281 147.007812 C 76.507812 146.363281 76.800781 145.621094 77 144.976562 C 77.199219 144.335938 77.246094 143.59375 77.296875 142.949219 C 77.296875 142.605469 77.296875 142.308594 77.296875 141.910156 L 77.246094 141.019531 L 77 137.457031 C 76.308594 128.007812 75.960938 118.558594 77.050781 109.207031 C 77.59375 104.558594 78.582031 99.90625 80.019531 95.503906 C 80.414062 94.367188 80.761719 93.328125 81.253906 92.1875 C 81.699219 91.101562 82.097656 90.011719 82.640625 88.925781 C 83.582031 86.796875 84.667969 84.71875 85.808594 82.691406 C 88.183594 78.683594 91 74.921875 94.414062 71.707031 C 97.78125 68.441406 101.640625 65.820312 105.792969 63.640625 C 108.863281 62.40625 109.40625 60.527344 105.894531 61.761719 Z M 105.894531 61.761719 " fill-opacity="1" fill-rule="nonzero"/><path fill="currentColor" d="M 139.488281 72.351562 C 136.914062 72.84375 134.441406 73.835938 132.164062 75.121094 C 129.886719 76.40625 127.761719 77.941406 125.78125 79.671875 C 121.875 83.136719 118.609375 87.144531 115.589844 91.25 C 114.105469 93.277344 112.671875 95.355469 111.238281 97.582031 C 109.851562 99.808594 108.613281 102.132812 107.574219 104.605469 C 105.546875 109.605469 104.804688 114.949219 104.605469 120.140625 C 104.457031 124.347656 104.65625 128.503906 104.953125 132.558594 C 105.25 136.617188 105.597656 140.675781 105.894531 144.730469 C 106.535156 152.84375 107.277344 160.957031 107.921875 169.074219 L 109.503906 167.09375 C 109.109375 167.144531 108.761719 167.144531 108.269531 166.996094 C 107.871094 166.847656 107.425781 166.648438 106.933594 166.300781 C 106.042969 165.660156 105.199219 164.667969 104.457031 163.628906 C 103.714844 162.492188 102.925781 161.355469 102.234375 160.167969 L 101.195312 158.386719 C 100.847656 157.792969 100.5 157.199219 100.203125 156.605469 C 95.898438 148.789062 93.03125 140.328125 91.695312 131.667969 C 91.050781 127.316406 90.804688 122.960938 91.050781 118.558594 C 91.25 114.207031 91.890625 109.851562 93.128906 105.644531 C 95.503906 97.234375 99.859375 89.320312 105.84375 82.738281 C 111.832031 76.210938 119.5 71.0625 128.058594 68.492188 C 129.988281 67.945312 130.332031 66.90625 128.703125 67.203125 C 127.8125 67.351562 126.871094 67.5 125.980469 67.699219 C 125.089844 67.945312 124.148438 68.195312 123.210938 68.492188 L 122.515625 68.6875 C 122.269531 68.738281 122.070312 68.835938 121.824219 68.9375 C 121.378906 69.132812 120.933594 69.28125 120.4375 69.480469 C 119.992188 69.679688 119.546875 69.828125 119.003906 70.023438 C 118.558594 70.222656 118.113281 70.46875 117.617188 70.667969 C 117.171875 70.914062 116.726562 71.113281 116.234375 71.359375 L 115.542969 71.707031 L 114.898438 72.101562 C 114.007812 72.648438 113.066406 73.191406 112.226562 73.785156 C 111.386719 74.378906 110.496094 75.070312 109.652344 75.664062 C 108.8125 76.308594 107.972656 77.050781 107.128906 77.742188 C 100.550781 83.53125 95.109375 91.347656 91.890625 100.054688 C 88.578125 108.761719 87.636719 118.3125 88.429688 127.167969 C 88.777344 131.621094 89.667969 135.925781 90.703125 140.03125 C 91.84375 144.136719 93.179688 148.046875 94.761719 151.707031 C 96.394531 155.367188 98.226562 158.878906 100.351562 162.292969 L 101.984375 164.816406 C 102.53125 165.660156 103.222656 166.5 103.914062 167.292969 C 104.65625 168.035156 105.496094 168.824219 106.488281 169.320312 C 106.980469 169.566406 107.527344 169.765625 108.167969 169.914062 C 108.761719 170.011719 109.40625 170.011719 110 169.960938 L 110.941406 169.816406 L 110.839844 168.777344 C 110.199219 159.820312 109.503906 150.867188 108.8125 141.910156 C 108.515625 137.457031 108.121094 132.957031 107.921875 128.453125 C 107.722656 124 107.722656 119.546875 108.269531 115.195312 C 108.863281 110.839844 110.050781 106.585938 112.128906 102.679688 C 114.15625 98.769531 116.726562 95.109375 119.300781 91.496094 C 120.636719 89.667969 121.921875 87.933594 123.40625 86.203125 C 124.84375 84.472656 126.277344 82.839844 127.910156 81.355469 C 129.542969 79.820312 131.222656 78.433594 133.054688 77.246094 C 134.886719 76.011719 136.863281 75.070312 138.941406 74.328125 C 139.386719 74.179688 139.785156 74.03125 140.179688 73.882812 C 140.527344 73.734375 140.871094 73.636719 141.121094 73.488281 C 141.664062 73.242188 142.011719 72.945312 142.109375 72.695312 C 142.207031 72.449219 142.058594 72.300781 141.664062 72.203125 C 141.464844 72.152344 141.167969 72.152344 140.773438 72.152344 C 140.527344 72.203125 140.03125 72.25 139.488281 72.351562 Z M 139.488281 72.351562 " fill-opacity="1" fill-rule="nonzero"/><path fill="currentColor" d="M 173.722656 88.429688 C 171.25 89.519531 168.824219 90.65625 166.550781 92.140625 L 165.707031 92.683594 C 165.410156 92.882812 165.164062 93.078125 164.917969 93.277344 L 163.234375 94.515625 L 161.652344 95.851562 C 161.402344 96.046875 161.105469 96.296875 160.859375 96.492188 L 160.117188 97.1875 C 156.0625 100.945312 152.746094 105.449219 150.125 110.296875 C 149.53125 111.582031 148.835938 112.769531 148.34375 114.058594 C 148.09375 114.699219 147.796875 115.34375 147.550781 115.988281 L 146.859375 117.914062 C 146.609375 118.558594 146.414062 119.25 146.214844 119.894531 C 146.015625 120.539062 145.820312 121.230469 145.621094 121.875 C 145.472656 122.515625 145.273438 123.210938 145.125 123.902344 C 144.976562 124.546875 144.828125 125.289062 144.679688 125.929688 C 143.542969 131.371094 143.195312 136.816406 143.148438 142.257812 C 143.148438 148.195312 143.542969 153.984375 143.988281 159.820312 C 144.484375 165.660156 145.125 171.445312 145.917969 177.1875 C 146.3125 180.054688 146.710938 182.976562 147.253906 185.84375 L 147.601562 187.972656 C 147.648438 188.269531 147.648438 188.515625 147.648438 188.714844 C 147.648438 188.910156 147.601562 188.960938 147.601562 189.011719 C 147.550781 189.058594 147.550781 189.058594 147.550781 189.109375 C 147.5 189.109375 147.453125 189.160156 147.304688 189.207031 C 147.007812 189.257812 146.511719 189.257812 145.96875 189.109375 C 145.71875 189.058594 145.472656 188.960938 145.226562 188.863281 C 145.125 188.8125 144.976562 188.761719 144.878906 188.714844 C 144.78125 188.664062 144.679688 188.613281 144.53125 188.515625 L 143.742188 187.972656 L 142.949219 187.378906 C 141.910156 186.585938 140.921875 185.644531 140.03125 184.65625 C 138.199219 182.679688 136.617188 180.351562 135.332031 177.929688 C 134.785156 176.9375 134.292969 175.851562 133.746094 174.761719 C 133.5 174.265625 133.300781 173.671875 133.054688 173.128906 L 132.460938 171.496094 L 131.816406 169.863281 C 131.621094 169.320312 131.371094 168.777344 131.222656 168.183594 C 130.878906 167.042969 130.53125 165.957031 130.183594 164.816406 C 129.988281 164.273438 129.886719 163.679688 129.738281 163.136719 L 128.949219 159.769531 L 128.355469 156.308594 C 128.257812 155.765625 128.15625 155.121094 128.109375 154.578125 C 127.960938 153.390625 127.859375 152.25 127.710938 151.113281 C 127.613281 150.570312 127.613281 149.925781 127.613281 149.382812 L 127.515625 147.648438 L 127.414062 145.917969 L 127.414062 142.457031 C 127.414062 141.910156 127.414062 141.269531 127.464844 140.722656 L 127.710938 137.210938 C 127.761719 136.667969 127.8125 136.023438 127.910156 135.480469 L 128.109375 133.746094 L 128.355469 132.015625 C 128.453125 131.472656 128.554688 130.878906 128.652344 130.285156 C 128.898438 129.148438 129.046875 128.007812 129.34375 126.871094 L 130.183594 123.507812 L 130.382812 122.664062 L 130.628906 121.875 L 131.175781 120.191406 L 131.71875 118.507812 C 131.867188 117.964844 132.113281 117.421875 132.3125 116.875 C 132.757812 115.789062 133.152344 114.699219 133.648438 113.613281 L 135.183594 110.445312 C 135.628906 109.355469 136.320312 108.367188 136.863281 107.378906 C 137.457031 106.386719 138.003906 105.347656 138.695312 104.410156 L 140.675781 101.492188 C 141.367188 100.550781 142.109375 99.609375 142.800781 98.71875 C 144.285156 96.890625 145.867188 95.15625 147.601562 93.523438 C 149.332031 91.890625 151.164062 90.40625 153.140625 89.121094 C 157.050781 86.5 161.503906 84.621094 166.105469 83.925781 C 168.183594 83.730469 168.777344 82.789062 166.996094 82.789062 C 163.085938 82.691406 158.929688 83.679688 154.972656 85.558594 C 152.992188 86.449219 151.0625 87.636719 149.234375 88.972656 C 147.402344 90.308594 145.621094 91.792969 143.988281 93.375 C 137.359375 99.90625 132.3125 108.417969 128.949219 117.570312 C 128.554688 118.757812 128.207031 119.894531 127.761719 121.03125 C 127.5625 121.578125 127.414062 122.21875 127.265625 122.8125 L 126.375 126.375 L 126.03125 128.15625 L 125.683594 129.9375 C 125.585938 130.53125 125.4375 131.125 125.386719 131.71875 C 125.238281 132.957031 125.089844 134.09375 124.941406 135.332031 C 124.84375 135.925781 124.84375 136.566406 124.792969 137.113281 L 124.695312 138.894531 C 124.644531 139.488281 124.644531 140.128906 124.59375 140.675781 C 124.59375 141.269531 124.59375 141.910156 124.59375 142.457031 C 124.59375 143.640625 124.59375 144.828125 124.59375 146.015625 C 124.742188 148.390625 124.792969 150.71875 125.140625 152.992188 C 125.335938 155.269531 125.832031 157.542969 126.179688 159.722656 C 126.375 160.859375 126.671875 161.898438 126.921875 162.988281 C 127.070312 163.53125 127.167969 164.074219 127.316406 164.621094 C 127.464844 165.113281 127.613281 165.707031 127.761719 166.203125 C 128.058594 167.292969 128.40625 168.28125 128.703125 169.320312 C 129.046875 170.308594 129.445312 171.296875 129.839844 172.289062 C 130.828125 175.007812 132.066406 177.730469 133.550781 180.304688 C 135.035156 182.875 136.765625 185.300781 138.894531 187.425781 C 139.933594 188.515625 141.121094 189.457031 142.40625 190.296875 L 142.851562 190.59375 C 143 190.691406 143.148438 190.792969 143.34375 190.890625 C 143.691406 191.089844 144.085938 191.285156 144.484375 191.386719 C 145.226562 191.683594 146.066406 191.878906 146.957031 191.878906 C 147.402344 191.878906 147.847656 191.832031 148.390625 191.632812 C 148.886719 191.484375 149.332031 191.1875 149.726562 190.792969 C 150.074219 190.394531 150.320312 189.902344 150.46875 189.355469 C 150.570312 188.863281 150.617188 188.417969 150.570312 187.921875 C 150.519531 187.082031 150.371094 186.386719 150.273438 185.695312 L 149.925781 183.566406 C 148.195312 172.140625 147.105469 160.613281 146.5625 149.035156 C 146.3125 143.246094 146.363281 137.457031 147.054688 131.816406 C 147.699219 126.128906 149.183594 120.585938 151.410156 115.292969 C 151.65625 114.652344 151.953125 113.957031 152.25 113.316406 C 152.546875 112.671875 152.84375 112.027344 153.140625 111.386719 L 154.132812 109.503906 C 154.429688 108.863281 154.824219 108.269531 155.269531 107.675781 C 156.800781 105.25 158.433594 102.925781 160.316406 100.847656 C 164.074219 96.59375 168.628906 92.980469 173.671875 90.308594 C 174.117188 90.0625 174.464844 89.816406 174.910156 89.617188 C 175.257812 89.417969 175.554688 89.222656 175.800781 89.023438 C 176.296875 88.628906 176.59375 88.28125 176.640625 88.035156 C 176.691406 87.6875 175.851562 87.589844 173.722656 88.429688 Z M 173.722656 88.429688 " fill-opacity="1" fill-rule="nonzero"/></svg>