<svg xmlns="http://www.w3.org/2000/svg" xmlns:xlink="http://www.w3.org/1999/xlink" width="400" zoomAndPan="magnify" viewBox="0 0 300 299.999988" height="400" preserveAspectRatio="xMidYMid meet" version="1.0"><defs><clipPath id="ef6b3e450f"><path d="M 159 53.800781 L 270 53.800781 L 270 246 L 159 246 Z M 159 53.800781 " clip-rule="nonzero"/></clipPath></defs><path fill="currentColor" d="M 123.492188 238.304688 C 123.382812 238.417969 123.273438 238.535156 123.167969 238.652344 C 123.296875 238.515625 123.398438 238.40625 123.492188 238.304688 Z M 123.492188 238.304688 " fill-opacity="1" fill-rule="nonzero"/><path fill="currentColor" d="M 123.828125 237.925781 C 123.832031 237.921875 123.832031 237.917969 123.832031 237.914062 C 123.753906 238.011719 123.671875 238.109375 123.582031 238.203125 C 123.691406 238.082031 123.773438 237.992188 123.828125 237.925781 Z M 123.828125 237.925781 " fill-opacity="1" fill-rule="nonzero"/><path fill="currentColor" d="M 143.605469 132.929688 C 143.363281 129.660156 143.082031 127.382812 142.726562 125.136719 C 142.640625 124.574219 142.554688 124.015625 142.46875 123.4375 C 142.367188 122.867188 142.265625 122.28125 142.15625 121.664062 C 141.929688 120.4375 141.742188 119.085938 141.421875 117.515625 C 141.40625 118.355469 141.0625 116.835938 140.761719 115.507812 C 140.464844 114.179688 140.160156 113.011719 140.332031 114.597656 C 140.460938 116.722656 140.625 117.820312 140.785156 118.839844 C 140.925781 119.863281 141.046875 120.8125 141.113281 122.605469 L 141.203125 122.488281 C 141.582031 126.652344 141.863281 130.824219 141.929688 135.011719 L 141.972656 136.582031 L 141.976562 138.152344 L 141.980469 141.292969 C 141.929688 143.386719 141.917969 145.484375 141.808594 147.582031 C 141.648438 151.777344 141.335938 155.972656 140.921875 160.171875 C 140.519531 164.367188 139.964844 168.5625 139.324219 172.753906 C 137.953125 183.996094 135.121094 196.011719 131.6875 207.253906 C 130.785156 210.285156 129.773438 213.351562 128.695312 216.390625 C 127.625 219.429688 126.457031 222.4375 125.203125 225.328125 C 124.578125 226.773438 123.933594 228.191406 123.253906 229.558594 C 122.59375 230.921875 121.859375 232.316406 121.207031 233.316406 C 119.765625 235.421875 117.757812 236.988281 115.625 237.917969 C 115.363281 238.015625 115.109375 238.105469 114.863281 238.199219 C 114.617188 238.285156 114.382812 238.375 114.136719 238.410156 C 113.894531 238.457031 113.65625 238.5 113.421875 238.542969 C 113.191406 238.589844 112.964844 238.625 112.730469 238.621094 C 112.503906 238.632812 112.277344 238.640625 112.050781 238.648438 C 111.828125 238.65625 111.605469 238.667969 111.382812 238.636719 C 111.160156 238.621094 110.933594 238.605469 110.707031 238.585938 C 110.484375 238.570312 110.253906 238.566406 110.027344 238.511719 C 107.9375 238.421875 105.722656 237.777344 103.75 236.519531 C 103.507812 236.355469 103.28125 236.167969 103.039062 235.996094 L 102.683594 235.730469 L 102.503906 235.601562 L 102.304688 235.429688 C 101.777344 234.972656 101.246094 234.515625 100.710938 234.050781 C 99.640625 233.125 98.59375 232.132812 97.527344 231.152344 C 93.308594 227.152344 89.179688 222.78125 85.398438 218.582031 C 85.535156 218.746094 85.667969 218.902344 85.753906 219.007812 C 81.757812 214.515625 79.136719 210.839844 75.519531 206.222656 C 75.46875 206.296875 74.898438 205.589844 74.601562 205.261719 C 74.535156 204.988281 73.136719 203.179688 71.136719 200.527344 C 70.152344 199.191406 68.96875 197.679688 67.777344 196.007812 C 67.171875 195.179688 66.550781 194.320312 65.914062 193.449219 C 65.285156 192.574219 64.667969 191.671875 64.035156 190.773438 C 61.503906 187.183594 59.09375 183.46875 57.257812 180.539062 C 55.449219 177.59375 54.199219 175.441406 53.996094 174.960938 C 53.695312 174.429688 53.378906 173.882812 53.058594 173.320312 C 50.1875 167.824219 47.605469 162.058594 45.453125 156.394531 C 43.285156 150.730469 41.496094 145.199219 39.941406 140.175781 C 39.148438 138.03125 38.253906 135.605469 37.644531 133.769531 C 37.519531 132.839844 37.351562 132.3125 37.15625 131.734375 C 36.953125 131.164062 36.757812 130.539062 36.578125 129.429688 C 36.523438 127.988281 36.394531 126.71875 36.304688 125.65625 C 36.238281 124.59375 36.148438 123.746094 36.058594 123.167969 C 35.882812 122.011719 35.710938 121.929688 35.769531 123.398438 C 35.339844 121.097656 35.214844 118.761719 35.007812 116.503906 C 34.957031 115.371094 34.949219 114.253906 34.917969 113.164062 C 34.90625 112.617188 34.890625 112.078125 34.878906 111.546875 C 34.894531 111.015625 34.914062 110.492188 34.929688 109.976562 C 34.933594 109.019531 34.9375 108.066406 34.945312 107.109375 C 34.976562 106.152344 35.066406 105.203125 35.125 104.238281 C 35.175781 103.417969 35.253906 102.785156 35.355469 102.257812 C 35.476562 101.730469 35.628906 101.308594 35.785156 100.914062 C 36.039062 98.820312 36.234375 98.101562 36.417969 97.355469 C 36.515625 96.988281 36.613281 96.609375 36.757812 96.058594 C 36.914062 95.511719 37.109375 94.792969 37.375 93.726562 C 37.644531 93.25 38.210938 90.566406 38.984375 87.917969 C 39.726562 85.257812 40.785156 82.691406 41.085938 82.15625 L 40.820312 82.816406 C 41.347656 81.675781 41.9375 80.691406 42.503906 79.757812 C 42.792969 79.300781 43.105469 78.871094 43.398438 78.441406 C 43.546875 78.226562 43.691406 78.011719 43.84375 77.804688 L 44.320312 77.199219 C 45.558594 75.574219 46.902344 74.078125 48.542969 72.375 C 49.101562 71.765625 49.738281 71.238281 50.335938 70.664062 L 51.289062 69.867188 L 51.769531 69.464844 L 52.269531 69.09375 C 53.582031 68.066406 55.015625 67.183594 56.488281 66.363281 C 57.960938 65.539062 59.523438 64.867188 61.109375 64.257812 C 62.707031 63.660156 64.355469 63.195312 66.019531 62.800781 C 67.6875 62.421875 69.378906 62.148438 71.070312 61.945312 C 72.769531 61.773438 74.464844 61.652344 76.148438 61.636719 C 76.984375 61.625 77.847656 61.628906 78.648438 61.652344 C 79.445312 61.675781 80.214844 61.742188 80.964844 61.832031 C 82.460938 62.023438 83.832031 62.386719 85 62.929688 C 85.109375 62.820312 84.585938 62.582031 83.988281 62.394531 C 83.394531 62.203125 82.746094 62.03125 82.71875 61.832031 C 83.53125 62.027344 84.3125 62.273438 85.015625 62.613281 C 85.734375 62.941406 86.390625 63.339844 86.984375 63.832031 C 87.578125 64.316406 88.128906 64.875 88.640625 65.511719 C 89.152344 66.15625 89.632812 66.875 90.101562 67.640625 C 91.035156 69.175781 91.917969 70.917969 92.9375 72.679688 C 93.941406 74.441406 95.085938 76.222656 96.417969 77.890625 C 97.308594 79.144531 98.507812 80.632812 98.960938 81.1875 C 100.894531 83.164062 100.242188 82.203125 101.738281 83.523438 L 101.777344 83.898438 C 102.980469 84.707031 103.769531 85.375 104.546875 86.027344 C 105.320312 86.679688 106.078125 87.316406 107.203125 87.980469 C 107.378906 87.960938 108.183594 88.476562 108.957031 88.960938 C 108.84375 89.238281 111.359375 90.429688 111.109375 90.578125 L 111.144531 90.570312 C 111.609375 90.859375 111.949219 91.042969 112.496094 91.433594 C 112.957031 91.660156 115.355469 92.835938 117.753906 94.015625 C 120.132812 95.1875 122.464844 96.398438 122.921875 96.628906 L 123.296875 96.925781 C 124.488281 97.679688 125.085938 97.851562 124.441406 97.347656 L 125.867188 98.332031 L 125.691406 98.234375 L 127.089844 99.226562 C 127.328125 99.433594 127.539062 99.75 127.074219 99.566406 C 127.492188 99.808594 127.929688 100.078125 128.351562 100.367188 C 128.769531 100.660156 129.171875 100.96875 129.535156 101.28125 C 127.558594 99.5 124.921875 97.386719 122.644531 95.613281 C 123.695312 96.160156 125.390625 97.449219 126.441406 98.152344 C 127.589844 99.160156 129.984375 101.113281 131.65625 102.757812 C 132.054688 103.082031 132.542969 103.078125 133.292969 103.984375 C 133.425781 104.253906 133.660156 104.480469 133.925781 104.746094 C 134.1875 105.007812 134.515625 105.289062 134.765625 105.699219 C 134.367188 105.332031 133.957031 104.96875 133.582031 104.574219 C 133.1875 104.195312 132.792969 103.808594 132.394531 103.417969 C 132.375 103.582031 132.84375 104.078125 133.382812 104.621094 C 133.898438 105.175781 134.496094 105.773438 134.738281 106.125 C 135.097656 106.359375 136.359375 108.019531 137.101562 109.050781 C 136.855469 108.882812 136.953125 109.125 137.148438 109.492188 C 137.207031 109.601562 137.273438 109.722656 137.339844 109.847656 C 136.742188 109.101562 136.316406 108.695312 136.675781 109.136719 C 136.636719 109.027344 136.9375 109.335938 137.351562 109.867188 C 137.394531 109.945312 137.4375 110.023438 137.480469 110.101562 C 137.59375 110.316406 137.667969 110.535156 137.726562 110.710938 C 138.097656 111.453125 138.351562 111.902344 138.3125 111.558594 C 138.382812 111.585938 138.382812 111.464844 138.328125 111.269531 C 138.449219 111.464844 138.570312 111.667969 138.683594 111.875 C 139.550781 113.414062 139.992188 115.09375 139.933594 114.671875 C 139.898438 114.40625 139.929688 114.378906 139.984375 114.429688 C 140.027344 114.539062 140.066406 114.59375 140.09375 114.558594 C 140.179688 114.667969 140.25 114.742188 140.1875 114.367188 L 140.042969 114.03125 C 139.96875 113.679688 139.9375 113.417969 139.910156 113.238281 C 139.871094 112.996094 139.894531 112.882812 139.960938 112.863281 C 140.082031 112.820312 140.421875 113.132812 140.679688 113.492188 C 140.957031 113.84375 141.246094 114.21875 141.398438 114.207031 C 141.476562 114.203125 141.519531 114.097656 141.511719 113.84375 C 141.507812 113.714844 141.492188 113.550781 141.460938 113.339844 C 141.433594 113.128906 141.382812 112.875 141.285156 112.578125 C 141.484375 114.671875 140.933594 111.949219 139.886719 110.054688 C 139.886719 109.9375 139.8125 109.644531 139.65625 109.199219 C 139.585938 108.972656 139.453125 108.730469 139.316406 108.445312 C 139.167969 108.160156 139.023438 107.832031 138.808594 107.496094 C 137.992188 106.386719 138.246094 106.902344 138.027344 106.738281 C 137.636719 106.089844 136.753906 104.921875 136.996094 104.964844 C 136.558594 104.628906 136.304688 104.28125 136.023438 103.914062 C 135.738281 103.554688 135.445312 103.15625 134.960938 102.722656 C 134.058594 102.003906 134.957031 102.835938 134.296875 102.351562 C 133.066406 101.15625 131.222656 99.597656 130.140625 98.753906 C 129.824219 98.296875 128.660156 97.121094 129.769531 97.617188 C 131.859375 99.230469 128.738281 97.324219 130.945312 98.945312 C 130.585938 98.445312 131.089844 98.785156 131.738281 99.285156 C 132.382812 99.785156 133.175781 100.4375 133.449219 100.507812 C 132.902344 99.796875 131.507812 98.679688 130.292969 97.820312 L 130.5 98.039062 C 129.429688 97.28125 127.25 95.832031 126.171875 94.902344 C 126.519531 94.980469 126.058594 94.554688 126.878906 95.066406 C 126.382812 94.722656 125.886719 94.382812 125.386719 94.050781 C 125.171875 93.960938 124.949219 93.867188 125.371094 94.175781 C 124.605469 93.789062 123.917969 93.289062 123.40625 92.878906 C 123.359375 92.765625 121.25 91.617188 119.179688 90.546875 C 117.109375 89.472656 115.085938 88.441406 115.234375 88.480469 C 114.707031 88.164062 114.394531 87.925781 114.089844 87.703125 C 114.191406 87.757812 114.296875 87.816406 114.40625 87.878906 C 115.394531 88.421875 116.707031 89.140625 117.976562 89.835938 C 120.523438 91.214844 122.890625 92.53125 122.148438 92.101562 C 121.722656 91.734375 118.492188 89.976562 115.304688 88.253906 C 112.109375 86.535156 109.015625 84.71875 108.753906 84.382812 C 107.949219 83.867188 106.984375 83.234375 107.09375 83.472656 C 105.804688 82.492188 107.640625 83.535156 106.769531 82.773438 C 106.738281 82.773438 106.808594 82.882812 106.511719 82.667969 L 105.722656 81.882812 C 104.65625 81.230469 103.449219 80.269531 102.328125 79.214844 C 101.195312 78.164062 100.140625 77.023438 99.203125 76.105469 C 99.808594 76.589844 100.542969 77.085938 101.804688 78.148438 L 101.960938 78.40625 C 102.144531 78.550781 103.195312 79.417969 103.25 79.292969 C 102.140625 78.195312 101.195312 77.261719 100.027344 76.105469 C 99.855469 75.855469 99.660156 75.554688 99.542969 75.34375 C 99.535156 75.359375 99.539062 75.390625 99.519531 75.398438 C 99.25 74.925781 99.296875 74.960938 99.460938 75.082031 C 99.484375 75.09375 99.511719 75.113281 99.554688 75.148438 C 99.398438 74.652344 98.433594 73.488281 97.398438 72.042969 C 96.359375 70.597656 95.257812 68.875 94.59375 67.542969 C 94.09375 66.816406 94.5 67.503906 93.863281 66.609375 C 93.132812 65.261719 92.449219 64.121094 91.609375 63.027344 C 90.765625 61.9375 89.746094 60.886719 88.285156 59.921875 C 87.773438 59.691406 87.464844 59.636719 87.449219 59.683594 C 87.421875 59.75 87.683594 59.921875 88.179688 60.359375 C 87.476562 59.875 86.710938 59.5 85.933594 59.148438 C 87.089844 59.410156 86.054688 58.789062 84.949219 58.328125 C 83.855469 57.882812 82.738281 57.570312 84.070312 57.617188 C 83.347656 57.339844 81.796875 56.996094 80.375 56.984375 C 80.222656 57.085938 79.976562 57.234375 78.234375 57.179688 C 75.847656 57.003906 76.417969 57.074219 74.429688 56.972656 C 73.953125 56.847656 74.679688 56.746094 74.589844 56.636719 C 73.054688 56.8125 72.378906 56.769531 71.71875 56.734375 C 71.390625 56.710938 71.0625 56.6875 70.636719 56.683594 C 70.210938 56.6875 69.683594 56.730469 68.957031 56.832031 C 68.046875 56.984375 66.691406 57.210938 65.570312 57.507812 C 64.445312 57.765625 63.5625 58.105469 63.550781 58.230469 C 62.945312 58.378906 62.492188 58.492188 62.15625 58.574219 C 61.816406 58.652344 61.589844 58.6875 61.445312 58.691406 C 61.152344 58.699219 61.179688 58.582031 61.269531 58.445312 C 60.609375 58.621094 59.96875 58.867188 59.320312 59.074219 C 62.4375 57.9375 65.75 57.132812 69.109375 56.730469 C 69.949219 56.625 70.789062 56.53125 71.632812 56.476562 C 72.476562 56.398438 73.320312 56.375 74.164062 56.339844 C 75.007812 56.3125 75.847656 56.308594 76.6875 56.3125 C 77.535156 56.335938 78.347656 56.332031 79.230469 56.398438 C 78.269531 56.285156 77.382812 56.253906 76.441406 56.183594 C 75.507812 56.15625 74.566406 56.105469 73.613281 56.121094 C 71.707031 56.105469 69.761719 56.21875 67.808594 56.445312 C 63.90625 56.886719 59.960938 57.875 56.335938 59.46875 C 54.519531 60.246094 52.8125 61.226562 51.203125 62.261719 C 50.425781 62.816406 49.636719 63.335938 48.925781 63.941406 C 48.5625 64.238281 48.199219 64.523438 47.855469 64.824219 C 47.523438 65.136719 47.1875 65.445312 46.859375 65.753906 C 44.25 68.238281 42.339844 71.007812 41.082031 73.617188 C 40.894531 73.671875 40.59375 73.902344 40.214844 74.269531 C 39.835938 74.632812 39.371094 75.132812 38.910156 75.75 C 38.433594 76.363281 37.902344 77.066406 37.421875 77.847656 C 37.175781 78.234375 36.925781 78.636719 36.671875 79.039062 C 36.433594 79.449219 36.207031 79.871094 35.976562 80.289062 C 35.753906 80.710938 35.519531 81.128906 35.3125 81.546875 C 35.117188 81.96875 34.921875 82.382812 34.734375 82.785156 C 34.550781 83.1875 34.367188 83.574219 34.210938 83.945312 C 34.066406 84.320312 33.925781 84.675781 33.796875 85.003906 C 33.273438 86.320312 33.011719 87.234375 33.054688 87.324219 C 32.289062 90.210938 31.730469 93.148438 31.257812 96.109375 C 31.082031 97.277344 30.894531 98.453125 30.765625 99.636719 C 30.691406 100.226562 30.617188 100.820312 30.546875 101.414062 C 30.496094 102.015625 30.449219 102.617188 30.402344 103.222656 C 30.316406 104.433594 30.1875 105.648438 30.132812 106.867188 C 30.109375 108.085938 30.085938 109.3125 30.0625 110.542969 L 30.042969 111.464844 L 30.070312 112.390625 C 30.09375 113.003906 30.117188 113.621094 30.136719 114.238281 C 30.179688 115.476562 30.199219 116.71875 30.335938 117.953125 C 30.445312 119.191406 30.550781 120.4375 30.65625 121.683594 C 30.824219 122.921875 30.992188 124.167969 31.160156 125.414062 C 31.914062 130.390625 32.902344 135.398438 34.289062 140.347656 C 34.453125 140.96875 34.617188 141.59375 34.78125 142.214844 C 34.96875 142.832031 35.15625 143.449219 35.34375 144.066406 C 35.722656 145.300781 36.082031 146.546875 36.484375 147.777344 C 37.328125 150.226562 38.136719 152.710938 39.097656 155.140625 C 41.140625 160.566406 45.453125 170.457031 50.757812 179.84375 C 55.941406 189.296875 61.957031 198.285156 65.304688 203.164062 L 66.769531 205.285156 C 67.269531 205.980469 67.773438 206.679688 68.28125 207.382812 C 67.175781 205.8125 66.09375 204.234375 65.03125 202.640625 C 69.460938 208.347656 73.691406 213.332031 77.882812 218.070312 C 77.285156 217.121094 77.246094 216.898438 75.75 214.714844 C 76.398438 215.570312 77.042969 216.425781 77.714844 217.265625 C 79.886719 219.273438 84.34375 224.355469 86.648438 226.554688 C 86.019531 226.207031 87.699219 228.066406 89.210938 229.6875 C 89.039062 229.445312 88.871094 229.203125 88.707031 228.953125 C 91.589844 232.007812 94.851562 235.183594 98.238281 238.09375 C 98.660156 238.457031 99.085938 238.816406 99.503906 239.179688 C 100 239.542969 100.488281 239.90625 100.976562 240.269531 C 101.484375 240.605469 102.019531 240.890625 102.535156 241.191406 C 102.789062 241.351562 103.066406 241.464844 103.339844 241.585938 C 103.609375 241.703125 103.882812 241.824219 104.152344 241.941406 C 106.335938 242.824219 108.597656 243.210938 110.691406 243.226562 C 111.273438 243.207031 111.789062 243.253906 112.21875 243.226562 C 112.652344 243.203125 113.007812 243.199219 113.277344 243.207031 C 115.945312 242.769531 118.503906 241.71875 120.6875 240.148438 C 120.605469 240.300781 120.90625 240.140625 121.359375 239.839844 C 121.816406 239.542969 122.433594 239.121094 122.894531 238.667969 C 123.378906 238.242188 123.78125 237.882812 123.886719 237.789062 C 123.9375 237.746094 123.929688 237.78125 123.835938 237.914062 C 123.875 237.875 123.914062 237.832031 123.949219 237.789062 L 124.648438 236.867188 C 125.140625 236.273438 125.492188 235.585938 125.902344 234.941406 C 126.121094 234.605469 126.265625 234.308594 126.425781 234 L 126.90625 233.085938 C 127.234375 232.476562 127.519531 231.859375 127.824219 231.25 C 129.011719 228.800781 130.085938 226.351562 130.898438 223.898438 C 134.410156 215.382812 137.191406 206.324219 139.402344 197.066406 C 141.589844 187.804688 143.214844 178.339844 144.132812 168.941406 L 143.960938 169.386719 C 144.292969 166.097656 144.410156 162.988281 144.546875 159.710938 C 144.621094 158.074219 144.652344 156.390625 144.75 154.621094 C 144.800781 152.847656 144.914062 150.984375 145.015625 148.984375 C 144.90625 146.121094 144.792969 142.660156 144.550781 139.640625 C 144.332031 136.617188 143.96875 134.042969 143.609375 132.929688 Z M 139.847656 112.246094 C 139.988281 112.707031 139.894531 112.628906 139.6875 112.285156 C 139.679688 112.269531 139.667969 112.253906 139.660156 112.238281 C 139.691406 112.113281 139.757812 112.101562 139.847656 112.246094 Z M 137.972656 109.820312 C 137.886719 109.714844 137.804688 109.617188 137.730469 109.53125 C 137.910156 109.992188 138.625 111.265625 138.910156 112.019531 C 139.011719 111.992188 138.90625 111.703125 138.960938 111.710938 C 139.085938 111.914062 139.230469 112.195312 139.359375 112.496094 C 139.371094 112.53125 139.386719 112.566406 139.398438 112.601562 C 139.441406 112.714844 139.480469 112.820312 139.523438 112.933594 L 139.574219 113.15625 C 139.660156 113.332031 139.726562 113.539062 139.773438 113.734375 C 139.789062 113.792969 139.804688 113.84375 139.820312 113.898438 C 139.855469 114.085938 139.875 114.253906 139.871094 114.398438 C 139.789062 114.226562 139.726562 113.824219 139.667969 113.542969 C 139.800781 114.160156 139.222656 112.574219 138.300781 111.179688 C 138.296875 111.167969 138.292969 111.160156 138.289062 111.144531 C 138.1875 110.882812 138.027344 110.523438 137.878906 110.191406 C 137.628906 109.679688 137.386719 109.234375 137.503906 109.269531 C 137.4375 109.195312 137.382812 109.136719 137.347656 109.09375 C 137.269531 108.933594 137.195312 108.769531 137.101562 108.617188 C 137.335938 108.851562 137.648438 109.324219 137.972656 109.820312 Z M 137.972656 109.820312 " fill-opacity="1" fill-rule="nonzero"/><path fill="currentColor" d="M 123.582031 238.203125 C 123.554688 238.234375 123.519531 238.269531 123.492188 238.304688 C 123.523438 238.273438 123.550781 238.238281 123.582031 238.203125 Z M 123.582031 238.203125 " fill-opacity="1" fill-rule="nonzero"/><path fill="currentColor" d="M 137.503906 109.269531 C 137.519531 109.285156 137.53125 109.304688 137.550781 109.324219 C 137.601562 109.382812 137.664062 109.457031 137.730469 109.53125 C 137.714844 109.488281 137.695312 109.445312 137.6875 109.417969 C 137.589844 109.320312 137.535156 109.277344 137.503906 109.269531 Z M 137.503906 109.269531 " fill-opacity="1" fill-rule="nonzero"/><path fill="currentColor" d="M 200.257812 57.03125 C 200.25 57.035156 200.25 57.039062 200.246094 57.042969 C 200.34375 56.960938 200.445312 56.882812 200.546875 56.804688 C 200.417969 56.902344 200.324219 56.976562 200.257812 57.03125 Z M 200.257812 57.03125 " fill-opacity="1" fill-rule="nonzero"/><path fill="currentColor" d="M 200.664062 56.71875 C 200.789062 56.628906 200.917969 56.539062 201.039062 56.445312 C 200.894531 56.550781 200.773438 56.640625 200.664062 56.71875 Z M 200.664062 56.71875 " fill-opacity="1" fill-rule="nonzero"/><path fill="currentColor" d="M 200.546875 56.804688 C 200.582031 56.78125 200.625 56.75 200.664062 56.71875 C 200.625 56.746094 200.585938 56.777344 200.546875 56.804688 Z M 200.546875 56.804688 " fill-opacity="1" fill-rule="nonzero"/><path fill="currentColor" d="M 162.308594 180.722656 C 162.292969 180.699219 162.285156 180.679688 162.269531 180.660156 C 162.234375 180.589844 162.183594 180.507812 162.136719 180.425781 C 162.144531 180.472656 162.152344 180.511719 162.152344 180.542969 C 162.230469 180.65625 162.277344 180.707031 162.308594 180.722656 Z M 162.308594 180.722656 " fill-opacity="1" fill-rule="nonzero"/><g clip-path="url(#ef6b3e450f)"><path fill="currentColor" d="M 269.429688 167.953125 C 269.363281 167.3125 269.296875 166.671875 269.230469 166.027344 C 269.09375 164.746094 268.976562 163.453125 268.820312 162.167969 C 268.457031 159.601562 268.136719 157.011719 267.65625 154.441406 C 266.683594 148.726562 264.335938 138.191406 260.917969 127.96875 C 257.632812 117.699219 253.441406 107.730469 251.085938 102.300781 C 250.742188 101.515625 250.398438 100.730469 250.054688 99.941406 C 249.695312 99.164062 249.332031 98.382812 248.96875 97.59375 C 249.753906 99.34375 250.515625 101.101562 251.257812 102.871094 C 247.996094 96.421875 244.792969 90.722656 241.582031 85.273438 C 241.984375 86.320312 241.984375 86.546875 243.035156 88.972656 C 242.5625 88.007812 242.089844 87.046875 241.589844 86.09375 C 239.839844 83.707031 236.4375 77.871094 234.589844 75.273438 C 235.140625 75.734375 233.847656 73.589844 232.671875 71.710938 C 232.796875 71.976562 232.914062 72.25 233.027344 72.523438 C 230.777344 68.976562 228.183594 65.238281 225.414062 61.738281 C 225.066406 61.300781 224.71875 60.863281 224.375 60.429688 C 223.960938 59.976562 223.546875 59.527344 223.136719 59.078125 C 222.707031 58.652344 222.234375 58.273438 221.785156 57.875 C 221.566406 57.671875 221.3125 57.507812 221.070312 57.335938 C 220.828125 57.167969 220.582031 57 220.339844 56.832031 C 218.363281 55.550781 216.21875 54.742188 214.164062 54.328125 C 213.589844 54.234375 213.09375 54.09375 212.664062 54.035156 C 212.234375 53.976562 211.886719 53.910156 211.621094 53.855469 C 208.917969 53.777344 206.207031 54.320312 203.765625 55.449219 C 203.875 55.3125 203.550781 55.414062 203.046875 55.621094 C 202.792969 55.722656 202.5 55.851562 202.195312 55.992188 C 201.882812 56.117188 201.601562 56.324219 201.316406 56.480469 C 200.761719 56.808594 200.296875 57.082031 200.175781 57.15625 C 200.117188 57.1875 200.132812 57.152344 200.246094 57.042969 C 200.203125 57.078125 200.15625 57.105469 200.117188 57.144531 L 199.253906 57.914062 C 198.65625 58.402344 198.179688 59.015625 197.652344 59.566406 C 197.378906 59.855469 197.179688 60.121094 196.964844 60.390625 L 196.316406 61.199219 C 195.875 61.730469 195.480469 62.285156 195.0625 62.824219 C 193.433594 65 191.910156 67.203125 190.644531 69.457031 C 185.574219 77.144531 181.117188 85.503906 177.183594 94.171875 C 173.269531 102.847656 169.867188 111.832031 167.179688 120.878906 L 167.429688 120.476562 C 166.480469 123.640625 165.769531 126.671875 165.011719 129.863281 C 164.625 131.457031 164.277344 133.105469 163.84375 134.824219 C 163.453125 136.554688 162.988281 138.359375 162.507812 140.300781 C 162.070312 143.132812 161.519531 146.550781 161.183594 149.5625 C 160.820312 152.570312 160.683594 155.171875 160.824219 156.332031 C 160.441406 159.585938 160.28125 161.875 160.203125 164.148438 C 160.179688 164.714844 160.15625 165.28125 160.132812 165.863281 C 160.121094 166.445312 160.113281 167.039062 160.101562 167.664062 C 160.085938 168.914062 160.015625 170.273438 160.03125 171.875 C 160.207031 171.058594 160.253906 172.613281 160.296875 173.976562 C 160.332031 175.332031 160.410156 176.539062 160.546875 174.949219 C 160.824219 172.839844 160.871094 171.730469 160.90625 170.699219 C 160.964844 169.667969 161.027344 168.714844 161.304688 166.9375 L 161.195312 167.039062 C 161.617188 162.878906 162.136719 158.730469 162.867188 154.605469 L 163.125 153.058594 L 164.015625 148.429688 C 164.464844 146.382812 164.878906 144.328125 165.386719 142.289062 C 166.339844 138.203125 167.449219 134.140625 168.65625 130.101562 C 169.847656 126.058594 171.195312 122.046875 172.621094 118.054688 C 176.113281 107.277344 181.183594 96.023438 186.695312 85.644531 C 188.160156 82.835938 189.738281 80.023438 191.375 77.242188 C 193.007812 74.460938 194.726562 71.734375 196.507812 69.136719 C 197.398438 67.835938 198.300781 66.566406 199.226562 65.355469 C 200.132812 64.144531 201.121094 62.910156 201.953125 62.050781 C 203.769531 60.261719 206.035156 59.109375 208.308594 58.597656 C 208.585938 58.554688 208.851562 58.511719 209.105469 58.46875 C 209.367188 58.429688 209.617188 58.386719 209.863281 58.398438 C 210.109375 58.398438 210.351562 58.402344 210.589844 58.402344 C 210.824219 58.402344 211.054688 58.410156 211.28125 58.457031 C 211.507812 58.492188 211.730469 58.527344 211.953125 58.558594 C 212.175781 58.59375 212.394531 58.625 212.609375 58.695312 C 212.828125 58.757812 213.042969 58.816406 213.261719 58.878906 C 213.480469 58.9375 213.703125 58.980469 213.917969 59.078125 C 215.953125 59.566406 218 60.621094 219.699219 62.230469 C 219.90625 62.433594 220.09375 62.664062 220.296875 62.878906 L 220.597656 63.203125 L 220.75 63.367188 L 220.910156 63.570312 C 221.339844 64.121094 221.773438 64.671875 222.210938 65.230469 C 223.085938 66.339844 223.925781 67.515625 224.785156 68.683594 C 228.164062 73.414062 231.382812 78.492188 234.296875 83.332031 C 234.195312 83.148438 234.09375 82.96875 234.027344 82.847656 C 237.09375 88.019531 238.964844 92.128906 241.640625 97.347656 C 241.703125 97.285156 242.125 98.089844 242.355469 98.46875 C 242.367188 98.75 243.394531 100.792969 244.855469 103.773438 C 245.5625 105.273438 246.441406 106.984375 247.289062 108.851562 C 247.726562 109.78125 248.175781 110.742188 248.628906 111.71875 C 249.082031 112.699219 249.515625 113.703125 249.964844 114.703125 C 251.765625 118.710938 253.421875 122.816406 254.667969 126.042969 C 255.882812 129.277344 256.695312 131.628906 256.804688 132.140625 C 257 132.71875 257.203125 133.316406 257.410156 133.929688 C 259.183594 139.875 260.621094 146.023438 261.652344 151.996094 C 262.703125 157.96875 263.402344 163.742188 263.972656 168.96875 C 264.339844 171.222656 264.757812 173.777344 265.003906 175.695312 C 264.953125 176.628906 265.015625 177.183594 265.09375 177.785156 C 265.1875 178.386719 265.257812 179.035156 265.222656 180.15625 C 265.003906 181.582031 264.886719 182.851562 264.773438 183.914062 C 264.632812 184.96875 264.5625 185.820312 264.539062 186.40625 C 264.492188 187.574219 264.644531 187.6875 264.871094 186.230469 C 264.851562 188.574219 264.53125 190.886719 264.300781 193.148438 C 264.132812 194.269531 263.929688 195.363281 263.75 196.441406 C 263.660156 196.980469 263.574219 197.511719 263.484375 198.035156 C 263.367188 198.554688 263.25 199.066406 263.132812 199.566406 C 262.945312 200.507812 262.761719 201.441406 262.574219 202.378906 C 262.359375 203.3125 262.085938 204.226562 261.847656 205.164062 C 261.640625 205.957031 261.445312 206.5625 261.246094 207.0625 C 261.023438 207.558594 260.796875 207.941406 260.566406 208.300781 C 259.917969 210.308594 259.585938 210.976562 259.265625 211.671875 C 259.101562 212.015625 258.929688 212.367188 258.683594 212.882812 C 258.429688 213.390625 258.097656 214.058594 257.632812 215.050781 C 257.28125 215.472656 256.214844 217.996094 254.949219 220.445312 C 253.710938 222.917969 252.1875 225.238281 251.785156 225.703125 L 252.171875 225.109375 C 251.4375 226.128906 250.671875 226.980469 249.941406 227.789062 C 249.566406 228.183594 249.179688 228.546875 248.808594 228.910156 C 248.621094 229.09375 248.433594 229.273438 248.25 229.449219 L 247.667969 229.953125 C 246.140625 231.3125 244.535156 232.523438 242.601562 233.886719 C 241.9375 234.378906 241.214844 234.773438 240.519531 235.226562 C 240.15625 235.425781 239.792969 235.625 239.429688 235.824219 L 238.882812 236.125 L 238.320312 236.398438 C 236.835938 237.15625 235.257812 237.746094 233.660156 238.277344 C 232.054688 238.800781 230.390625 239.164062 228.71875 239.460938 C 227.039062 239.742188 225.332031 239.882812 223.625 239.957031 C 221.914062 240.011719 220.199219 239.957031 218.5 239.832031 C 216.800781 239.679688 215.113281 239.476562 213.457031 239.171875 C 212.632812 239.023438 211.789062 238.855469 211.007812 238.679688 C 210.230469 238.503906 209.484375 238.292969 208.765625 238.0625 C 207.332031 237.585938 206.058594 236.972656 205.011719 236.21875 C 204.886719 236.304688 205.355469 236.636719 205.90625 236.9375 C 206.453125 237.238281 207.054688 237.527344 207.042969 237.730469 C 206.285156 237.382812 205.566406 236.992188 204.9375 236.523438 C 204.296875 236.066406 203.726562 235.550781 203.238281 234.953125 C 202.742188 234.363281 202.3125 233.710938 201.929688 232.988281 C 201.550781 232.261719 201.214844 231.464844 200.902344 230.621094 C 200.277344 228.9375 199.742188 227.058594 199.078125 225.136719 C 198.425781 223.214844 197.644531 221.246094 196.65625 219.355469 C 196.019531 217.957031 195.128906 216.265625 194.789062 215.632812 C 193.269531 213.324219 193.722656 214.390625 192.507812 212.8125 L 192.539062 212.4375 C 191.515625 211.410156 190.867188 210.605469 190.226562 209.816406 C 189.589844 209.027344 188.96875 208.261719 187.992188 207.394531 C 187.816406 207.382812 187.125 206.722656 186.457031 206.097656 C 186.621094 205.847656 184.378906 204.199219 184.652344 204.101562 L 184.617188 204.097656 C 184.214844 203.726562 183.917969 203.480469 183.453125 202.996094 C 183.042969 202.683594 180.914062 201.074219 178.785156 199.457031 C 176.671875 197.855469 174.613281 196.222656 174.207031 195.910156 L 173.898438 195.546875 C 172.875 194.578125 172.316406 194.292969 172.855469 194.914062 L 171.644531 193.675781 L 171.796875 193.804688 L 170.613281 192.5625 C 170.417969 192.316406 170.273438 191.964844 170.691406 192.234375 C 170.328125 191.914062 169.953125 191.566406 169.589844 191.207031 C 169.238281 190.835938 168.902344 190.457031 168.601562 190.082031 C 170.207031 192.207031 172.390625 194.785156 174.289062 196.960938 C 173.359375 196.222656 171.945312 194.632812 171.046875 193.742188 C 170.113281 192.535156 168.132812 190.160156 166.804688 188.226562 C 166.472656 187.832031 165.992188 187.746094 165.429688 186.714844 C 165.351562 186.421875 165.167969 186.152344 164.957031 185.84375 C 164.75 185.535156 164.476562 185.199219 164.3125 184.746094 C 164.632812 185.1875 164.96875 185.621094 165.261719 186.074219 C 165.574219 186.527344 165.886719 186.976562 166.207031 187.4375 C 166.253906 187.28125 165.886719 186.707031 165.464844 186.070312 C 165.066406 185.425781 164.59375 184.730469 164.417969 184.335938 C 164.113281 184.035156 163.191406 182.164062 162.65625 181.011719 C 162.867188 181.222656 162.816406 180.96875 162.695312 180.570312 C 162.660156 180.453125 162.617188 180.320312 162.574219 180.183594 C 163.019531 181.03125 163.359375 181.511719 163.09375 181.007812 C 163.109375 181.121094 162.875 180.761719 162.566406 180.164062 C 162.542969 180.078125 162.515625 179.992188 162.488281 179.90625 C 162.417969 179.675781 162.386719 179.445312 162.363281 179.261719 C 162.136719 178.464844 161.972656 177.976562 161.945312 178.320312 C 161.882812 178.277344 161.859375 178.398438 161.878906 178.601562 C 161.792969 178.382812 161.714844 178.160156 161.644531 177.9375 C 161.085938 176.261719 160.972656 174.527344 160.949219 174.953125 C 160.933594 175.222656 160.898438 175.242188 160.851562 175.183594 C 160.832031 175.066406 160.804688 175.007812 160.773438 175.035156 C 160.710938 174.910156 160.652344 174.824219 160.640625 175.203125 L 160.722656 175.558594 C 160.726562 175.921875 160.707031 176.183594 160.703125 176.367188 C 160.691406 176.609375 160.648438 176.714844 160.578125 176.726562 C 160.449219 176.742188 160.179688 176.371094 159.992188 175.96875 C 159.789062 175.574219 159.578125 175.148438 159.421875 175.128906 C 159.347656 175.121094 159.285156 175.214844 159.242188 175.464844 C 159.222656 175.59375 159.207031 175.757812 159.199219 175.972656 C 159.183594 176.183594 159.183594 176.441406 159.226562 176.75 C 159.429688 174.65625 159.449219 177.4375 160.117188 179.496094 C 160.09375 179.613281 160.109375 179.910156 160.179688 180.378906 C 160.203125 180.613281 160.289062 180.875 160.367188 181.183594 C 160.460938 181.488281 160.539062 181.84375 160.6875 182.210938 C 161.273438 183.457031 161.125 182.902344 161.308594 183.105469 C 161.566406 183.816406 162.214844 185.128906 161.984375 185.042969 C 162.351562 185.453125 162.53125 185.84375 162.738281 186.257812 C 162.949219 186.667969 163.160156 187.113281 163.554688 187.632812 C 164.300781 188.507812 163.582031 187.519531 164.136719 188.121094 C 165.113281 189.53125 166.628906 191.410156 167.53125 192.445312 C 167.753906 192.957031 168.667969 194.332031 167.675781 193.632812 C 165.933594 191.648438 168.632812 194.117188 166.773438 192.105469 C 167.03125 192.664062 166.601562 192.234375 166.0625 191.621094 C 165.523438 191.003906 164.871094 190.210938 164.617188 190.09375 C 165.015625 190.898438 166.175781 192.257812 167.203125 193.335938 L 167.039062 193.078125 C 167.949219 194.027344 169.808594 195.863281 170.691406 196.984375 C 170.363281 196.839844 170.738281 197.34375 170.03125 196.6875 C 170.453125 197.117188 170.871094 197.546875 171.300781 197.96875 C 171.496094 198.097656 171.695312 198.234375 171.339844 197.851562 C 172.019531 198.371094 172.597656 198.996094 173.023438 199.496094 C 173.046875 199.617188 174.898438 201.144531 176.726562 202.59375 C 178.554688 204.042969 180.34375 205.4375 180.207031 205.371094 C 180.664062 205.78125 180.925781 206.078125 181.183594 206.355469 C 181.09375 206.277344 181 206.199219 180.902344 206.117188 C 180.039062 205.398438 178.886719 204.441406 177.773438 203.515625 C 175.535156 201.679688 173.460938 199.9375 174.105469 200.5 C 174.457031 200.941406 177.292969 203.28125 180.09375 205.582031 C 182.902344 207.878906 185.59375 210.25 185.785156 210.632812 C 186.476562 211.292969 187.304688 212.09375 187.242188 211.839844 C 188.320312 213.046875 186.71875 211.675781 187.425781 212.589844 C 187.460938 212.59375 187.410156 212.476562 187.660156 212.738281 L 188.285156 213.664062 C 189.207031 214.507812 190.207031 215.675781 191.109375 216.929688 C 192.019531 218.175781 192.835938 219.496094 193.582031 220.574219 C 193.082031 219.988281 192.457031 219.359375 191.417969 218.074219 L 191.3125 217.792969 C 191.160156 217.613281 190.296875 216.5625 190.214844 216.675781 C 191.09375 217.960938 191.847656 219.0625 192.773438 220.417969 C 192.894531 220.699219 193.027344 221.027344 193.101562 221.257812 C 193.113281 221.242188 193.117188 221.214844 193.136719 221.210938 C 193.3125 221.726562 193.273438 221.679688 193.132812 221.53125 C 193.113281 221.515625 193.089844 221.492188 193.054688 221.445312 C 193.113281 221.964844 193.835938 223.292969 194.582031 224.90625 C 195.320312 226.523438 196.078125 228.425781 196.472656 229.859375 C 196.824219 230.667969 196.558594 229.914062 197.011719 230.917969 C 197.472656 232.378906 197.925781 233.628906 198.542969 234.863281 C 199.164062 236.089844 199.964844 237.316406 201.214844 238.542969 C 201.675781 238.867188 201.964844 238.976562 201.992188 238.933594 C 202.03125 238.875 201.804688 238.65625 201.398438 238.132812 C 202 238.742188 202.683594 239.257812 203.375 239.746094 C 202.289062 239.269531 203.191406 240.078125 204.1875 240.742188 C 205.175781 241.386719 206.210938 241.90625 204.917969 241.605469 C 205.570312 242.015625 207.027344 242.648438 208.421875 242.929688 C 208.589844 242.859375 208.859375 242.761719 210.5625 243.148438 C 212.871094 243.773438 212.324219 243.597656 214.257812 244.074219 C 214.703125 244.289062 213.96875 244.25 214.035156 244.375 C 215.574219 244.496094 216.230469 244.667969 216.871094 244.824219 C 217.191406 244.910156 217.507812 245 217.925781 245.082031 C 218.34375 245.160156 218.867188 245.214844 219.601562 245.257812 C 220.523438 245.28125 221.898438 245.3125 223.054688 245.238281 C 224.207031 245.199219 225.140625 245.035156 225.175781 244.910156 C 225.796875 244.878906 226.261719 244.859375 226.609375 244.839844 C 226.957031 244.828125 227.183594 244.839844 227.328125 244.863281 C 227.617188 244.910156 227.566406 245.015625 227.457031 245.136719 C 228.136719 245.089844 228.8125 244.96875 229.488281 244.886719 C 226.214844 245.414062 222.808594 245.574219 219.433594 245.328125 C 218.589844 245.269531 217.746094 245.199219 216.90625 245.09375 C 216.0625 245.007812 215.230469 244.871094 214.394531 244.75 C 213.5625 244.613281 212.734375 244.457031 211.910156 244.292969 C 211.085938 244.109375 210.289062 243.957031 209.433594 243.726562 C 210.351562 244.019531 211.21875 244.21875 212.128906 244.464844 C 213.039062 244.671875 213.957031 244.902344 214.894531 245.070312 C 216.765625 245.445312 218.695312 245.703125 220.65625 245.855469 C 224.570312 246.164062 228.632812 245.945312 232.492188 245.070312 C 234.425781 244.652344 236.289062 244.019531 238.0625 243.308594 C 238.933594 242.914062 239.808594 242.550781 240.621094 242.09375 C 241.03125 241.871094 241.441406 241.660156 241.839844 241.425781 C 242.226562 241.183594 242.613281 240.945312 242.992188 240.707031 C 246.03125 238.765625 248.433594 236.410156 250.160156 234.089844 C 250.359375 234.070312 250.695312 233.902344 251.136719 233.613281 C 251.578125 233.328125 252.132812 232.925781 252.703125 232.40625 C 253.285156 231.894531 253.941406 231.308594 254.5625 230.632812 C 254.875 230.296875 255.199219 229.953125 255.527344 229.605469 C 255.839844 229.25 256.140625 228.878906 256.445312 228.507812 C 256.746094 228.140625 257.054688 227.773438 257.339844 227.402344 C 257.613281 227.027344 257.882812 226.65625 258.140625 226.300781 C 258.398438 225.9375 258.652344 225.59375 258.875 225.257812 C 259.089844 224.917969 259.296875 224.597656 259.484375 224.296875 C 260.25 223.105469 260.679688 222.257812 260.65625 222.164062 C 261.957031 219.476562 263.066406 216.699219 264.09375 213.882812 C 264.492188 212.765625 264.902344 211.648438 265.25 210.511719 C 265.4375 209.945312 265.621094 209.378906 265.804688 208.808594 C 265.96875 208.226562 266.128906 207.644531 266.292969 207.058594 C 266.605469 205.886719 266.964844 204.722656 267.25 203.535156 C 267.507812 202.339844 267.761719 201.144531 268.023438 199.941406 L 268.21875 199.039062 L 268.363281 198.125 C 268.457031 197.519531 268.554688 196.90625 268.652344 196.296875 C 268.84375 195.074219 269.0625 193.851562 269.164062 192.613281 C 269.296875 191.375 269.425781 190.136719 269.558594 188.890625 C 269.632812 187.640625 269.703125 186.386719 269.777344 185.132812 C 269.988281 180.105469 269.96875 175 269.554688 169.875 C 269.511719 169.234375 269.46875 168.59375 269.425781 167.949219 Z M 160.574219 177.351562 C 160.519531 176.871094 160.597656 176.964844 160.738281 177.34375 C 160.742188 177.359375 160.75 177.378906 160.753906 177.390625 C 160.699219 177.511719 160.632812 177.511719 160.574219 177.351562 Z M 161.949219 180.089844 C 162.015625 180.210938 162.078125 180.324219 162.136719 180.425781 C 162.046875 179.933594 161.585938 178.546875 161.449219 177.75 C 161.34375 177.761719 161.394531 178.0625 161.339844 178.046875 C 161.253906 177.824219 161.167969 177.515625 161.097656 177.199219 C 161.09375 177.160156 161.085938 177.125 161.082031 177.089844 C 161.0625 176.96875 161.039062 176.855469 161.019531 176.738281 L 161.015625 176.511719 C 160.964844 176.320312 160.9375 176.105469 160.929688 175.90625 C 160.921875 175.84375 160.917969 175.789062 160.914062 175.734375 C 160.914062 175.542969 160.929688 175.375 160.960938 175.234375 C 161.007812 175.417969 160.996094 175.824219 160.996094 176.113281 C 160.984375 175.480469 161.25 177.152344 161.890625 178.695312 C 161.890625 178.707031 161.890625 178.714844 161.890625 178.730469 C 161.941406 179.007812 162.03125 179.390625 162.113281 179.746094 C 162.265625 180.296875 162.414062 180.777344 162.308594 180.722656 C 162.355469 180.804688 162.398438 180.875 162.425781 180.925781 C 162.46875 181.097656 162.515625 181.269531 162.578125 181.4375 C 162.394531 181.164062 162.171875 180.636719 161.949219 180.089844 Z M 161.949219 180.089844 " fill-opacity="1" fill-rule="nonzero"/></g><path fill="currentColor" d="M 53.625 128.199219 C 53.609375 128.195312 53.59375 128.191406 53.574219 128.1875 C 53.59375 128.195312 53.609375 128.195312 53.625 128.199219 Z M 53.625 128.199219 " fill-opacity="1" fill-rule="nonzero"/><path fill="currentColor" d="M 53.058594 128.28125 C 53.09375 128.28125 53.117188 128.28125 53.140625 128.28125 C 53.121094 128.277344 53.101562 128.273438 53.078125 128.269531 C 53.070312 128.269531 53.070312 128.277344 53.058594 128.28125 Z M 53.058594 128.28125 " fill-opacity="1" fill-rule="nonzero"/><path fill="currentColor" d="M 53.777344 128.21875 C 53.753906 128.226562 53.695312 128.21875 53.625 128.199219 C 53.734375 128.230469 53.808594 128.242188 53.777344 128.21875 Z M 53.777344 128.21875 " fill-opacity="1" fill-rule="nonzero"/><path fill="currentColor" d="M 54.457031 147.335938 C 54.921875 147.433594 54.902344 147.816406 55.367188 147.886719 C 55.652344 148.34375 56.015625 148.765625 56.425781 149.160156 C 56.832031 149.558594 57.289062 149.921875 57.820312 150.210938 L 57.894531 150.125 C 58.277344 150.320312 58.941406 150.234375 59.054688 150.71875 C 59.570312 150.734375 60.023438 150.953125 60.578125 150.664062 C 60.875 150.890625 61.203125 150.804688 61.546875 150.972656 C 61.722656 150.703125 62.042969 150.996094 62.113281 150.707031 C 62.292969 150.253906 62.007812 150.480469 62.152344 150.109375 L 62.078125 150.179688 C 61.96875 149.683594 61.832031 149.226562 61.660156 148.800781 C 61.511719 148.355469 61.332031 147.9375 61.125 147.539062 C 60.554688 147.21875 60.398438 146.535156 59.980469 146.066406 C 59.527344 145.566406 59 145.03125 58.472656 144.660156 C 58.332031 144.578125 58.507812 144.363281 58.574219 144.191406 C 58.207031 143.78125 57.953125 143.148438 57.550781 142.667969 C 57.554688 142.679688 57.554688 142.691406 57.554688 142.699219 C 57.367188 142.433594 57.546875 142.078125 57.363281 141.820312 C 57.285156 141.859375 57.257812 141.816406 57.207031 141.816406 C 57.539062 141.613281 55.679688 140.457031 55.839844 140.25 C 55.8125 140.226562 55.78125 140.203125 55.761719 140.175781 C 55.683594 139.46875 56.144531 138.550781 55.898438 138.039062 C 55.675781 137.988281 55.472656 137.910156 55.230469 137.882812 C 55.363281 137.730469 55.039062 137.824219 55.039062 137.691406 C 55.703125 137.128906 55.320312 137.074219 55.101562 137.316406 C 54.910156 137.109375 54.90625 136.839844 54.804688 136.628906 C 54.714844 136.546875 54.625 136.464844 54.523438 136.386719 C 54.429688 136.320312 54.53125 136.234375 54.699219 136.132812 C 54.519531 135.945312 54.730469 135.949219 54.734375 135.695312 C 54.988281 135.558594 54.128906 135.238281 54.191406 135.148438 L 54.242188 135.171875 C 54.210938 134.886719 54.6875 134.554688 54.636719 134.289062 C 54.640625 133.5 54.222656 132.753906 54.164062 132.042969 C 53.871094 132.101562 54.261719 132.179688 53.882812 132.277344 C 53.835938 131.855469 54.097656 131.367188 54.066406 130.949219 C 54.128906 130.859375 54.257812 130.738281 54.34375 130.6875 C 54.425781 130.535156 54.1875 130.640625 54.207031 130.535156 L 54.46875 130.46875 C 54.222656 130.375 54.71875 130.210938 54.582031 130.101562 C 54.476562 130.113281 54.449219 130.070312 54.449219 130.023438 C 54.730469 129.964844 54.40625 129.882812 54.660156 129.839844 L 54.640625 129.84375 C 54.640625 129.816406 54.617188 129.800781 54.660156 129.757812 C 54.554688 129.722656 53.691406 129.363281 53.5625 129.328125 L 53.605469 129.292969 C 53.582031 129.222656 53.367188 129.226562 53.324219 129.277344 L 53.324219 129.183594 L 53.347656 129.1875 L 53.34375 129.09375 C 53.367188 129.070312 53.492188 129.03125 53.621094 129.035156 C 53.515625 129 53.453125 128.949219 53.492188 128.886719 C 53.339844 129.0625 53.132812 129.289062 52.875 129.492188 C 52.769531 129.445312 52.898438 129.304688 52.855469 129.242188 C 53.023438 129.128906 53.152344 128.933594 53.261719 128.78125 C 53.242188 128.753906 52.925781 128.785156 53.050781 128.699219 C 53.265625 128.628906 53.03125 128.625 53.179688 128.546875 C 53.308594 128.589844 53.265625 128.65625 53.261719 128.722656 C 53.515625 128.671875 53.414062 128.542969 53.476562 128.480469 C 53.394531 128.46875 53.457031 128.335938 53.375 128.269531 C 53.539062 128.265625 53.550781 128.230469 53.574219 128.1875 C 53.5625 128.1875 53.550781 128.179688 53.539062 128.179688 C 53.554688 128.179688 53.5625 128.183594 53.574219 128.1875 C 53.589844 128.164062 53.605469 128.140625 53.648438 128.121094 C 53.667969 128.0625 53.5625 128.046875 53.480469 128.082031 C 53.421875 128.085938 53.386719 128.101562 53.355469 128.117188 C 53.105469 128.03125 52.839844 127.925781 52.839844 127.953125 C 52.816406 127.976562 52.765625 127.980469 52.71875 127.984375 C 52.707031 127.984375 52.691406 127.984375 52.675781 127.984375 C 52.613281 127.988281 52.546875 127.988281 52.527344 128.015625 L 52.59375 128.027344 C 52.5625 128.269531 51.09375 128.039062 51.058594 128.320312 C 51.359375 128.15625 51.390625 128.3125 51.449219 128.429688 C 51.339844 128.457031 51.191406 128.539062 51.121094 128.640625 C 51.160156 128.714844 51.246094 128.667969 51.328125 128.667969 C 51.265625 128.722656 51.214844 128.8125 51.046875 128.832031 C 51.257812 128.859375 50.933594 128.945312 51.015625 129.007812 C 51.117188 129.058594 51.101562 128.992188 51.203125 129.019531 C 51.199219 129.117188 51.191406 129.257812 51.164062 129.339844 C 51.011719 129.394531 50.75 129.535156 50.496094 129.507812 C 50.503906 129.355469 50.898438 129.496094 50.824219 129.355469 C 50.476562 129.480469 50.703125 129.234375 50.429688 129.253906 C 50.273438 129.328125 50.289062 129.429688 50.347656 129.503906 L 50.390625 129.480469 C 50.449219 129.542969 50.550781 129.675781 50.375 129.789062 C 50.246094 129.792969 50.15625 129.84375 50.117188 129.792969 L 50.109375 129.898438 C 50.152344 129.90625 50.195312 129.910156 50.21875 129.878906 C 50.324219 129.90625 50.28125 129.964844 50.210938 130.015625 C 50.082031 130.050781 50.867188 130.445312 50.78125 130.441406 C 50.789062 130.476562 50.75 130.507812 50.71875 130.535156 C 50.589844 130.375 50.183594 130.027344 50.230469 130.097656 C 50.097656 130.1875 51.039062 130.789062 50.800781 130.878906 C 50.820312 130.929688 50.863281 130.988281 50.996094 130.949219 C 50.949219 131.054688 50.734375 130.972656 50.621094 131.0625 C 50.640625 131.0625 50.6875 131.042969 50.6875 131.066406 L 50.53125 131.160156 C 50.765625 131.257812 50.539062 131.519531 50.84375 131.609375 C 50.691406 131.597656 50.425781 131.601562 50.273438 131.535156 L 50.339844 131.503906 C 50.296875 131.5 50.234375 131.429688 50.101562 131.460938 C 50.03125 131.566406 50.070312 131.640625 50.222656 131.707031 C 50.1875 131.734375 50.15625 131.761719 50.121094 131.78125 C 50.140625 131.777344 50.15625 131.773438 50.175781 131.769531 C 50.097656 131.820312 50.085938 131.820312 50.027344 131.820312 C 50.019531 131.820312 50.007812 131.820312 49.996094 131.820312 C 49.617188 131.957031 50.320312 132.121094 50.152344 132.328125 C 50.21875 132.367188 50.21875 132.320312 50.308594 132.363281 C 50.191406 132.566406 50.097656 132.707031 50.050781 132.90625 C 50.230469 132.921875 50.300781 132.910156 50.460938 132.804688 L 50.4375 132.949219 C 49.960938 132.929688 50.066406 133.296875 49.585938 133.269531 C 49.496094 133.332031 49.492188 133.417969 49.582031 133.476562 C 49.695312 133.457031 49.882812 133.425781 49.902344 133.519531 C 49.785156 133.6875 49.832031 133.644531 49.710938 133.785156 C 49.570312 133.847656 49.503906 133.824219 49.386719 133.855469 C 49.613281 133.980469 49.105469 134.082031 49.175781 134.234375 C 49.246094 134.324219 49.3125 134.515625 49.570312 134.457031 C 49.59375 134.59375 49.40625 134.640625 49.195312 134.683594 L 49.195312 134.800781 C 49.085938 134.449219 49.074219 134.054688 49.09375 133.660156 C 48.414062 134.660156 47.902344 135.863281 49.925781 135.953125 C 48.964844 136.296875 48.742188 137.214844 48.984375 137.160156 C 49.210938 137.269531 49.40625 137.386719 49.578125 137.511719 C 50.65625 138.3125 50.703125 139.507812 50.773438 140.796875 C 50.808594 141.148438 50.941406 141.777344 51.078125 142.410156 C 51.226562 143.042969 51.367188 143.683594 51.378906 144.070312 C 51.382812 144.179688 51.398438 144.289062 51.417969 144.394531 C 51.421875 144.265625 51.429688 144.136719 51.4375 144.003906 C 51.863281 144.285156 52.277344 144.519531 52.597656 144.78125 C 52.699219 144.65625 52.820312 144.585938 52.933594 144.359375 L 52.929688 144.570312 C 53.382812 144.539062 53.539062 144.902344 53.777344 144.988281 C 53.566406 145.050781 53.585938 145.207031 53.621094 145.335938 L 53.726562 145.222656 C 53.875 145.695312 54.304688 146.113281 54.488281 146.511719 C 54.515625 146.566406 54.464844 146.644531 54.414062 146.707031 C 54.527344 146.804688 54.644531 146.898438 54.769531 146.988281 C 54.496094 147.109375 54.722656 147.421875 54.457031 147.339844 Z M 52.835938 127.972656 C 52.878906 127.976562 52.859375 128.007812 52.855469 128.023438 C 52.859375 127.984375 53.105469 128.054688 53.347656 128.121094 C 53.265625 128.179688 53.273438 128.269531 53.140625 128.28125 C 53.15625 128.285156 53.171875 128.285156 53.1875 128.289062 L 53.136719 128.328125 C 53.089844 128.316406 53.046875 128.289062 53.023438 128.257812 C 53.042969 128.261719 53.0625 128.265625 53.078125 128.269531 C 53.171875 128.226562 53.125 128.144531 53.105469 128.09375 C 53.007812 128.109375 52.992188 128.128906 52.949219 128.132812 C 52.902344 128.125 52.871094 128.105469 52.839844 128.085938 C 52.835938 128.082031 52.828125 128.074219 52.820312 128.070312 L 52.839844 128.054688 C 52.8125 128.039062 52.796875 128.027344 52.78125 128.011719 C 52.785156 128 52.800781 127.984375 52.839844 127.972656 Z M 52.480469 128.15625 C 52.417969 128.171875 52.351562 128.183594 52.3125 128.179688 C 52.3125 128.148438 52.382812 128.148438 52.480469 128.15625 Z M 52.480469 128.15625 " fill-opacity="1" fill-rule="nonzero"/><path fill="currentColor" d="M 52.898438 115.714844 C 52.945312 115.722656 52.980469 115.730469 53.007812 115.734375 C 52.988281 115.730469 52.964844 115.726562 52.9375 115.71875 C 52.921875 115.71875 52.914062 115.71875 52.898438 115.714844 Z M 52.898438 115.714844 " fill-opacity="1" fill-rule="nonzero"/><path fill="currentColor" d="M 47.796875 117.082031 C 48.144531 117.144531 47.929688 117.164062 48.285156 117.222656 C 48.320312 117.34375 48.539062 117.484375 49.027344 117.632812 L 49.136719 117.636719 C 49.328125 117.691406 49.910156 117.761719 49.714844 117.796875 C 50.105469 117.855469 50.3125 117.917969 50.925781 117.964844 C 51.007812 118.007812 51.316406 118.039062 51.476562 118.085938 C 51.78125 118.089844 51.84375 118.140625 52.078125 118.132812 C 52.507812 118.128906 52.144531 118.109375 52.488281 118.105469 L 52.386719 118.101562 C 52.851562 118.03125 53.117188 117.953125 53.265625 117.867188 C 53.011719 117.789062 53.226562 117.734375 53.152344 117.664062 C 53.046875 117.585938 52.855469 117.492188 52.605469 117.414062 C 52.519531 117.390625 52.777344 117.398438 52.921875 117.398438 C 52.785156 117.332031 52.898438 117.269531 52.734375 117.191406 C 52.734375 117.191406 52.730469 117.195312 52.726562 117.195312 C 52.675781 117.15625 52.992188 117.160156 52.941406 117.121094 C 52.855469 117.113281 52.851562 117.109375 52.804688 117.101562 C 53.210938 117.136719 51.984375 116.832031 52.21875 116.839844 C 52.199219 116.835938 52.183594 116.828125 52.171875 116.824219 C 52.359375 116.769531 53.152344 116.78125 53.089844 116.71875 C 52.898438 116.683594 52.734375 116.65625 52.523438 116.617188 C 52.695312 116.628906 52.359375 116.589844 52.410156 116.582031 C 53.222656 116.640625 52.882812 116.582031 52.597656 116.566406 C 52.492188 116.53125 52.566406 116.511719 52.539062 116.484375 C 52.480469 116.46875 52.421875 116.449219 52.351562 116.429688 C 52.285156 116.414062 52.40625 116.421875 52.597656 116.441406 C 52.488281 116.402344 52.6875 116.433594 52.769531 116.417969 C 53.054688 116.449219 52.328125 116.304688 52.417969 116.304688 L 52.457031 116.316406 C 52.511719 116.292969 53.058594 116.34375 53.085938 116.320312 C 53.300781 116.273438 53.101562 116.164062 53.210938 116.113281 C 52.914062 116.070312 53.273438 116.136719 52.882812 116.082031 C 52.941406 116.046875 53.3125 116.0625 53.367188 116.03125 C 53.445312 116.039062 53.597656 116.054688 53.691406 116.0625 C 53.800781 116.066406 53.550781 116.035156 53.589844 116.03125 L 53.855469 116.070312 C 53.640625 116.023438 54.152344 116.097656 54.046875 116.070312 C 53.9375 116.050781 53.925781 116.046875 53.933594 116.042969 C 54.214844 116.085938 53.914062 116.027344 54.171875 116.070312 L 54.152344 116.066406 C 54.15625 116.066406 54.140625 116.058594 54.1875 116.066406 C 54.089844 116.042969 53.324219 115.878906 53.207031 115.855469 L 53.253906 115.859375 C 53.246094 115.851562 53.035156 115.816406 52.984375 115.808594 L 53.003906 115.804688 L 53.023438 115.808594 L 53.039062 115.804688 C 53.0625 115.808594 53.195312 115.828125 53.316406 115.851562 C 53.222656 115.828125 53.167969 115.816406 53.21875 115.820312 C 53.042969 115.800781 52.796875 115.773438 52.507812 115.742188 C 52.414062 115.722656 52.566406 115.734375 52.535156 115.726562 C 52.722656 115.75 52.882812 115.761719 53.011719 115.773438 C 52.996094 115.765625 52.683594 115.710938 52.824219 115.730469 C 53.039062 115.765625 52.816406 115.722656 52.972656 115.746094 C 53.085938 115.773438 53.035156 115.765625 53.023438 115.769531 C 53.277344 115.8125 53.199219 115.789062 53.269531 115.796875 C 53.191406 115.78125 53.273438 115.785156 53.207031 115.769531 C 53.390625 115.804688 53.386719 115.800781 53.429688 115.808594 C 53.519531 115.824219 53.582031 115.835938 53.605469 115.84375 C 53.574219 115.835938 53.515625 115.824219 53.441406 115.808594 C 53.453125 115.8125 53.46875 115.8125 53.496094 115.820312 C 53.523438 115.820312 53.425781 115.804688 53.339844 115.789062 C 53.292969 115.78125 53.261719 115.773438 53.234375 115.769531 C 53.199219 115.761719 53.164062 115.753906 53.125 115.746094 C 53.066406 115.734375 53.011719 115.722656 52.957031 115.710938 C 53.03125 115.726562 53.117188 115.746094 53.203125 115.761719 C 53.125 115.75 53.109375 115.753906 53.011719 115.734375 C 53.015625 115.734375 53.027344 115.738281 53.03125 115.738281 L 52.964844 115.730469 C 52.914062 115.71875 52.871094 115.707031 52.859375 115.703125 C 52.886719 115.710938 52.914062 115.714844 52.9375 115.71875 C 53.007812 115.730469 52.980469 115.722656 52.972656 115.71875 C 52.894531 115.703125 52.867188 115.699219 52.835938 115.691406 C 52.820312 115.691406 52.808594 115.6875 52.796875 115.6875 C 52.792969 115.683594 52.785156 115.683594 52.777344 115.683594 C 52.765625 115.679688 52.753906 115.675781 52.738281 115.675781 C 52.746094 115.675781 52.753906 115.675781 52.75 115.675781 C 52.742188 115.671875 52.730469 115.671875 52.722656 115.667969 C 52.71875 115.667969 52.714844 115.667969 52.710938 115.667969 C 52.710938 115.667969 52.710938 115.667969 52.707031 115.664062 C 52.6875 115.660156 52.664062 115.65625 52.671875 115.660156 C 52.65625 115.660156 52.640625 115.65625 52.597656 115.648438 C 52.589844 115.648438 52.585938 115.644531 52.578125 115.644531 C 52.554688 115.640625 52.53125 115.636719 52.492188 115.628906 C 52.492188 115.628906 52.488281 115.625 52.484375 115.625 L 52.597656 115.644531 C 52.578125 115.640625 52.535156 115.632812 52.480469 115.625 C 52.457031 115.617188 52.382812 115.605469 52.273438 115.582031 C 52.136719 115.558594 51.949219 115.523438 51.761719 115.488281 C 51.382812 115.414062 50.992188 115.332031 50.949219 115.335938 C 51.269531 115.386719 51.273438 115.398438 51.308594 115.417969 C 51.199219 115.398438 51.042969 115.375 50.957031 115.371094 C 50.980469 115.382812 51.074219 115.394531 51.152344 115.410156 C 51.082031 115.402344 51.019531 115.398438 50.851562 115.371094 C 51.050781 115.410156 50.722656 115.355469 50.789062 115.375 C 50.882812 115.398438 50.875 115.390625 50.972656 115.414062 C 50.949219 115.417969 50.917969 115.425781 50.878906 115.429688 C 50.722656 115.40625 50.441406 115.367188 50.199219 115.320312 C 50.234375 115.308594 50.59375 115.394531 50.546875 115.367188 C 50.1875 115.3125 50.449219 115.335938 50.179688 115.285156 C 50.015625 115.265625 50.011719 115.273438 50.054688 115.292969 L 50.101562 115.296875 C 50.148438 115.3125 50.222656 115.34375 50.027344 115.320312 C 49.902344 115.296875 49.808594 115.285156 49.777344 115.273438 L 49.75 115.28125 C 49.789062 115.289062 49.832031 115.296875 49.859375 115.300781 C 49.957031 115.320312 49.902344 115.316406 49.828125 115.308594 C 49.691406 115.289062 50.378906 115.457031 50.292969 115.441406 C 50.296875 115.449219 50.25 115.441406 50.21875 115.441406 C 50.125 115.40625 49.796875 115.304688 49.828125 115.320312 C 49.679688 115.304688 50.480469 115.515625 50.226562 115.480469 C 50.238281 115.488281 50.261719 115.5 50.398438 115.519531 C 50.332031 115.519531 50.140625 115.476562 50.011719 115.464844 C 50.035156 115.46875 50.082031 115.472656 50.074219 115.476562 L 49.902344 115.457031 C 50.113281 115.503906 49.835938 115.484375 50.109375 115.542969 C 49.964844 115.515625 49.707031 115.472656 49.578125 115.441406 L 49.648438 115.449219 C 49.605469 115.441406 49.5625 115.425781 49.425781 115.40625 C 49.335938 115.402344 49.355469 115.414062 49.488281 115.445312 L 49.378906 115.4375 C 49.394531 115.4375 49.410156 115.441406 49.429688 115.445312 C 49.34375 115.433594 49.332031 115.433594 49.28125 115.421875 L 49.25 115.417969 C 48.851562 115.367188 49.492188 115.496094 49.285156 115.484375 C 49.339844 115.496094 49.351562 115.496094 49.429688 115.511719 C 49.269531 115.507812 49.144531 115.503906 49.050781 115.511719 C 49.21875 115.542969 49.289062 115.554688 49.46875 115.570312 L 49.410156 115.578125 C 48.957031 115.5 48.972656 115.546875 48.519531 115.464844 C 48.414062 115.457031 48.390625 115.460938 48.464844 115.480469 C 48.578125 115.5 48.761719 115.527344 48.761719 115.535156 C 48.605469 115.53125 48.660156 115.535156 48.511719 115.527344 C 48.363281 115.507812 48.304688 115.5 48.1875 115.480469 C 48.375 115.527344 47.859375 115.457031 47.882812 115.476562 C 47.925781 115.496094 47.941406 115.523438 48.203125 115.558594 C 48.191406 115.570312 48 115.546875 47.785156 115.515625 L 47.753906 115.527344 C 47.738281 115.480469 47.839844 115.449219 47.953125 115.417969 C 47.046875 115.386719 46.242188 115.414062 48.128906 115.726562 C 47.121094 115.605469 46.640625 115.644531 46.890625 115.679688 C 47.070312 115.71875 47.21875 115.757812 47.34375 115.792969 C 48.109375 116.011719 47.753906 116.097656 47.347656 116.199219 C 47.144531 116.253906 46.902344 116.445312 46.601562 116.5 C 46.566406 116.507812 46.53125 116.515625 46.5 116.523438 C 46.5625 116.515625 46.625 116.507812 46.6875 116.5 C 46.953125 116.574219 47.210938 116.640625 47.382812 116.699219 C 47.527344 116.703125 47.667969 116.714844 47.871094 116.714844 L 47.769531 116.726562 C 48.191406 116.785156 48.167969 116.824219 48.34375 116.863281 C 48.125 116.839844 48.078125 116.851562 48.042969 116.863281 L 48.191406 116.867188 C 48.09375 116.914062 48.269531 116.992188 48.238281 117.039062 C 48.238281 117.046875 48.152344 117.042969 48.078125 117.042969 L 48.246094 117.101562 C 47.949219 117.074219 47.980469 117.121094 47.800781 117.082031 Z M 47.796875 117.082031 " fill-opacity="1" fill-rule="nonzero"/><path fill="currentColor" d="M 52.835938 115.691406 C 52.84375 115.695312 52.847656 115.695312 52.855469 115.695312 C 52.886719 115.699219 52.921875 115.707031 52.957031 115.710938 C 52.9375 115.707031 52.914062 115.703125 52.894531 115.699219 C 52.804688 115.683594 52.746094 115.671875 52.742188 115.671875 C 52.742188 115.671875 52.746094 115.675781 52.75 115.675781 C 52.757812 115.675781 52.769531 115.679688 52.777344 115.683594 C 52.800781 115.6875 52.820312 115.691406 52.835938 115.691406 Z M 52.835938 115.691406 " fill-opacity="1" fill-rule="nonzero"/><path fill="currentColor" d="M 52.695312 115.664062 C 52.699219 115.664062 52.703125 115.664062 52.707031 115.664062 C 52.710938 115.667969 52.714844 115.667969 52.71875 115.667969 Z M 52.695312 115.664062 " fill-opacity="1" fill-rule="nonzero"/><path fill="currentColor" d="M 249.75 186.699219 C 249.722656 186.714844 249.652344 186.6875 249.5625 186.640625 C 249.699219 186.710938 249.785156 186.75 249.75 186.699219 Z M 249.75 186.699219 " fill-opacity="1" fill-rule="nonzero"/><path fill="currentColor" d="M 237.746094 219.730469 C 238.277344 219.75 238.011719 219.5 238.453125 219.5 L 238.371094 219.441406 C 238.957031 219.070312 239.515625 218.660156 240.042969 218.222656 C 240.570312 217.78125 241.089844 217.320312 241.511719 216.78125 C 241.808594 215.878906 242.535156 215.179688 243 214.347656 C 243.433594 213.414062 243.789062 212.347656 243.992188 211.476562 C 244.015625 211.253906 244.316406 211.246094 244.53125 211.15625 C 244.769531 210.378906 245.285156 209.492188 245.519531 208.609375 C 245.511719 208.625 245.5 208.636719 245.492188 208.644531 C 245.648438 208.191406 246.09375 207.996094 246.207031 207.53125 C 246.125 207.5 246.148438 207.429688 246.117188 207.378906 C 246.320312 207.417969 246.375 206.691406 246.40625 205.960938 C 246.421875 205.59375 246.433594 205.226562 246.457031 204.949219 C 246.472656 204.664062 246.492188 204.464844 246.558594 204.445312 C 246.554688 204.394531 246.554688 204.339844 246.558594 204.289062 C 246.789062 203.851562 247.167969 203.449219 247.511719 203.046875 C 247.859375 202.640625 248.175781 202.238281 248.230469 201.8125 C 248.089844 201.582031 247.976562 201.339844 247.800781 201.140625 C 248.003906 201.035156 247.683594 200.925781 247.773438 200.765625 C 248.667969 200.503906 248.402344 200.164062 248.066406 200.332031 C 248.039062 199.941406 248.214844 199.59375 248.238281 199.257812 C 248.207031 199.09375 248.171875 198.929688 248.128906 198.765625 C 248.085938 198.621094 248.214844 198.570312 248.417969 198.539062 C 248.363281 198.183594 248.542969 198.320312 248.6875 197.980469 C 248.980469 197.9375 248.398438 197.03125 248.492188 196.945312 L 248.527344 197.007812 C 248.625 196.609375 249.203125 196.410156 249.273438 196.007812 C 249.636719 194.90625 249.492188 193.644531 249.648438 192.601562 C 249.355469 192.578125 249.707031 192.835938 249.308594 192.832031 C 249.386719 192.21875 249.757812 191.597656 249.816406 190.964844 C 249.902344 190.851562 250.046875 190.710938 250.140625 190.65625 C 250.246094 190.449219 249.996094 190.535156 250.027344 190.386719 L 250.296875 190.363281 C 250.070312 190.148438 250.585938 190.03125 250.46875 189.828125 C 250.359375 189.820312 250.34375 189.746094 250.351562 189.671875 C 250.636719 189.65625 250.324219 189.445312 250.585938 189.441406 L 250.5625 189.441406 C 250.566406 189.398438 250.546875 189.367188 250.59375 189.308594 C 250.496094 189.226562 249.65625 188.476562 249.53125 188.40625 L 249.574219 188.363281 C 249.558594 188.246094 249.34375 188.214844 249.296875 188.285156 L 249.304688 188.140625 L 249.324219 188.15625 L 249.328125 188.011719 C 249.351562 187.984375 249.484375 187.941406 249.609375 187.972656 C 249.503906 187.898438 249.4375 187.8125 249.480469 187.722656 C 249.335938 187.972656 249.101562 188.269531 248.832031 188.523438 C 248.726562 188.4375 248.867188 188.253906 248.828125 188.152344 C 249.011719 188.015625 249.140625 187.738281 249.246094 187.523438 C 249.226562 187.480469 248.90625 187.484375 249.035156 187.367188 C 249.25 187.292969 249.015625 187.253906 249.164062 187.152344 C 249.289062 187.234375 249.25 187.335938 249.25 187.433594 C 249.503906 187.390625 249.398438 187.175781 249.460938 187.089844 C 249.378906 187.066406 249.4375 186.859375 249.347656 186.742188 C 249.511719 186.753906 249.523438 186.695312 249.542969 186.628906 C 249.539062 186.625 249.53125 186.621094 249.527344 186.617188 C 249.53125 186.621094 249.539062 186.625 249.542969 186.628906 C 249.554688 186.59375 249.570312 186.554688 249.609375 186.523438 C 249.628906 186.429688 249.519531 186.390625 249.4375 186.441406 C 249.378906 186.445312 249.34375 186.464844 249.316406 186.492188 C 249.285156 186.46875 249.25 186.449219 249.21875 186.429688 C 248.992188 186.28125 248.761719 186.085938 248.769531 186.148438 C 248.746094 186.1875 248.699219 186.191406 248.648438 186.191406 C 248.636719 186.1875 248.621094 186.191406 248.609375 186.191406 C 248.542969 186.191406 248.476562 186.1875 248.460938 186.238281 L 248.53125 186.261719 C 248.53125 186.46875 248.179688 186.445312 247.8125 186.4375 C 247.421875 186.425781 247.019531 186.433594 247.011719 186.644531 C 247.296875 186.414062 247.351562 186.652344 247.410156 186.816406 C 247.304688 186.851562 247.15625 186.953125 247.089844 187.085938 C 247.128906 187.191406 247.214844 187.132812 247.300781 187.144531 C 247.238281 187.214844 247.191406 187.332031 247.019531 187.339844 C 247.230469 187.398438 246.90625 187.488281 246.984375 187.578125 C 247.089844 187.652344 247.070312 187.5625 247.175781 187.613281 C 247.167969 187.746094 247.160156 187.933594 247.132812 188.039062 C 246.976562 188.097656 246.710938 188.242188 246.453125 188.175781 C 246.46875 187.980469 246.863281 188.214844 246.789062 188.015625 C 246.4375 188.136719 246.671875 187.847656 246.390625 187.839844 C 246.234375 187.921875 246.25 188.046875 246.304688 188.152344 L 246.351562 188.125 C 246.410156 188.214844 246.496094 188.402344 246.3125 188.519531 C 246.183594 188.507812 246.089844 188.558594 246.054688 188.492188 L 246.039062 188.625 C 246.078125 188.636719 246.121094 188.652344 246.148438 188.613281 C 246.25 188.667969 246.199219 188.734375 246.128906 188.785156 C 245.996094 188.804688 246.746094 189.449219 246.65625 189.433594 C 246.660156 189.480469 246.617188 189.511719 246.585938 189.542969 C 246.476562 189.3125 246.097656 188.792969 246.140625 188.890625 C 246.066406 188.9375 246.257812 189.191406 246.425781 189.449219 C 246.589844 189.710938 246.738281 189.972656 246.613281 190.007812 C 246.625 190.078125 246.65625 190.160156 246.792969 190.140625 C 246.730469 190.261719 246.53125 190.113281 246.402344 190.203125 C 246.425781 190.203125 246.472656 190.191406 246.46875 190.21875 L 246.296875 190.304688 C 246.511719 190.484375 246.25 190.761719 246.527344 190.953125 C 246.382812 190.898438 246.121094 190.835938 245.984375 190.714844 L 246.054688 190.691406 C 246.011719 190.671875 245.960938 190.574219 245.824219 190.578125 C 245.734375 190.695312 245.765625 190.792969 245.898438 190.917969 C 245.863281 190.9375 245.824219 190.964844 245.789062 190.984375 C 245.804688 190.984375 245.820312 190.984375 245.839844 190.980469 C 245.753906 191.023438 245.742188 191.019531 245.6875 191.003906 C 245.679688 191 245.667969 191 245.65625 190.996094 C 245.253906 191.066406 245.902344 191.453125 245.691406 191.664062 C 245.746094 191.726562 245.761719 191.671875 245.835938 191.75 C 245.671875 191.964844 245.546875 192.109375 245.453125 192.332031 C 245.625 192.410156 245.691406 192.417969 245.875 192.335938 L 245.816406 192.507812 C 245.363281 192.335938 245.359375 192.808594 244.910156 192.617188 C 244.800781 192.664062 244.773438 192.761719 244.839844 192.859375 C 244.957031 192.875 245.140625 192.898438 245.132812 193.015625 C 244.96875 193.175781 245.027344 193.136719 244.871094 193.265625 C 244.71875 193.289062 244.664062 193.234375 244.542969 193.234375 C 244.71875 193.453125 244.203125 193.394531 244.21875 193.589844 C 244.253906 193.714844 244.257812 193.960938 244.519531 193.988281 C 244.496094 194.152344 244.304688 194.136719 244.09375 194.101562 L 244.054688 194.230469 C 244.0625 193.796875 244.183594 193.351562 244.320312 192.910156 C 243.835938 193.375 243.390625 193.863281 243.277344 194.347656 C 243.144531 194.832031 243.371094 195.316406 244.273438 195.816406 C 243.765625 195.792969 243.367188 196 243.125 196.210938 C 242.875 196.421875 242.777344 196.640625 242.898438 196.671875 C 243.050781 196.890625 243.164062 197.109375 243.253906 197.328125 C 243.394531 197.671875 243.460938 198.015625 243.476562 198.355469 C 243.492188 198.695312 243.414062 199.027344 243.324219 199.359375 C 243.226562 199.6875 243.089844 200.011719 242.9375 200.335938 C 242.859375 200.496094 242.777344 200.65625 242.695312 200.816406 C 242.597656 200.972656 242.496094 201.128906 242.398438 201.285156 C 242.1875 201.636719 241.871094 202.304688 241.550781 202.960938 C 241.199219 203.613281 240.800781 204.242188 240.527344 204.558594 C 240.449219 204.652344 240.378906 204.746094 240.308594 204.84375 C 240.414062 204.746094 240.515625 204.648438 240.617188 204.554688 C 240.6875 205.101562 240.800781 205.632812 240.765625 206.089844 C 240.929688 206.078125 241.066406 206.121094 241.328125 206.035156 L 241.144531 206.199219 C 241.445312 206.550781 241.226562 206.972656 241.292969 207.25 C 241.109375 207.113281 240.996094 207.253906 240.902344 207.382812 L 241.058594 207.386719 C 240.71875 207.875 240.613281 208.585938 240.335938 209.035156 C 240.300781 209.101562 240.199219 209.109375 240.113281 209.105469 L 240.015625 209.625 C 239.773438 209.449219 239.582031 209.863281 239.539062 209.5625 C 239.660156 210.058594 239.285156 210.289062 239.421875 210.785156 C 239.269531 211.070312 239.128906 211.367188 238.996094 211.675781 C 238.839844 211.96875 238.691406 212.273438 238.554688 212.589844 C 238.28125 213.214844 238.046875 213.886719 237.867188 214.59375 L 237.976562 214.632812 C 237.886719 215.152344 238.054688 215.8125 237.542969 216.164062 C 237.59375 216.734375 237.378906 217.339844 237.753906 217.863281 C 237.507812 218.304688 237.621094 218.660156 237.4375 219.148438 C 237.75 219.25 237.414062 219.761719 237.75 219.730469 Z M 248.769531 186.179688 C 248.8125 186.195312 248.796875 186.25 248.796875 186.28125 C 248.796875 186.222656 249.058594 186.359375 249.304688 186.5 C 249.230469 186.582031 249.246094 186.726562 249.113281 186.734375 C 249.132812 186.742188 249.144531 186.746094 249.15625 186.75 L 249.109375 186.808594 C 249.058594 186.785156 249.015625 186.738281 248.988281 186.683594 C 249.007812 186.691406 249.027344 186.699219 249.046875 186.707031 C 249.136719 186.648438 249.082031 186.511719 249.058594 186.429688 C 248.960938 186.445312 248.945312 186.476562 248.902344 186.480469 C 248.859375 186.464844 248.820312 186.433594 248.789062 186.394531 C 248.78125 186.382812 248.777344 186.371094 248.769531 186.363281 L 248.785156 186.332031 C 248.753906 186.308594 248.738281 186.277344 248.71875 186.25 C 248.71875 186.226562 248.734375 186.203125 248.769531 186.179688 Z M 248.4375 186.484375 C 248.371094 186.503906 248.308594 186.515625 248.265625 186.507812 C 248.265625 186.457031 248.335938 186.457031 248.4375 186.484375 Z M 248.4375 186.484375 " fill-opacity="1" fill-rule="nonzero"/><path fill="currentColor" d="M 249.5625 186.640625 C 249.558594 186.636719 249.550781 186.632812 249.542969 186.628906 C 249.550781 186.632812 249.558594 186.636719 249.5625 186.640625 Z M 249.5625 186.640625 " fill-opacity="1" fill-rule="nonzero"/><path fill="currentColor" d="M 249.027344 186.722656 C 249.0625 186.734375 249.089844 186.734375 249.113281 186.734375 C 249.09375 186.726562 249.074219 186.71875 249.046875 186.707031 C 249.039062 186.710938 249.039062 186.71875 249.027344 186.722656 Z M 249.027344 186.722656 " fill-opacity="1" fill-rule="nonzero"/></svg>