<svg xmlns="http://www.w3.org/2000/svg" xmlns:xlink="http://www.w3.org/1999/xlink" width="400" zoomAndPan="magnify" viewBox="0 0 300 299.999988" height="400" preserveAspectRatio="xMidYMid meet" version="1.0"><defs><clipPath id="705c471f7b"><path d="M 218.589844 206.667969 L 269.988281 206.667969 L 269.988281 260.101562 L 218.589844 260.101562 Z M 218.589844 206.667969 " clip-rule="nonzero"/></clipPath><clipPath id="7777bee1c8"><path d="M 52 39.601562 L 62 39.601562 L 62 49 L 52 49 Z M 52 39.601562 " clip-rule="nonzero"/></clipPath></defs><path fill="currentColor" d="M 220.140625 233.910156 C 222.191406 234.476562 223.652344 236.058594 224.828125 237.328125 C 225.414062 237.964844 225.964844 238.5625 226.398438 238.8125 C 226.625 238.941406 226.664062 238.9375 226.859375 238.765625 C 231.867188 234.328125 232.398438 227.023438 232.394531 224.089844 C 232.394531 224.070312 232.394531 224.050781 232.398438 224.03125 C 232.386719 220.199219 231.398438 216.382812 229.6875 213.554688 C 228.992188 212.40625 228.09375 211.371094 227.019531 210.476562 C 226.371094 209.9375 225.824219 209.589844 225.53125 209.40625 C 225 209.0625 224.476562 208.722656 223.972656 208.378906 C 223.957031 208.367188 223.941406 208.355469 223.925781 208.34375 C 221.769531 206.886719 219.707031 205.332031 217.441406 203.457031 C 216.324219 202.53125 215.175781 201.539062 213.820312 200.34375 C 213.542969 200.097656 213.261719 199.847656 212.976562 199.59375 C 212.117188 198.828125 211.242188 198.039062 210.347656 197.230469 C 208.339844 195.421875 206.265625 193.550781 203.90625 191.515625 C 203.472656 191.140625 203.027344 190.761719 202.574219 190.375 C 202.109375 189.980469 201.640625 189.582031 201.15625 189.179688 C 197.5 186.121094 193.761719 183.210938 189.726562 180.277344 C 189.425781 180.054688 189.117188 179.832031 188.808594 179.613281 C 184.640625 176.609375 180.058594 173.515625 175.179688 170.410156 C 171.203125 167.875 166.910156 165.261719 162.425781 162.632812 C 161.785156 162.257812 161.140625 161.882812 160.492188 161.507812 C 160.480469 161.5 160.46875 161.492188 160.460938 161.488281 C 157.878906 159.988281 155.171875 158.453125 152.417969 156.917969 C 150.066406 155.609375 147.710938 154.316406 145.414062 153.074219 L 145.25 152.984375 C 141.046875 150.710938 136.617188 148.375 132.105469 146.046875 C 119.90625 139.757812 106.410156 133.171875 91.984375 126.46875 C 91.960938 126.460938 91.941406 126.449219 91.917969 126.441406 C 91.164062 126.089844 90.414062 125.738281 89.664062 125.394531 C 89.652344 125.390625 89.640625 125.382812 89.628906 125.378906 C 84.445312 122.984375 79.054688 120.53125 73.609375 118.09375 C 73.601562 118.089844 73.59375 118.085938 73.585938 118.082031 L 73.304688 117.957031 C 73.15625 117.890625 73.007812 117.824219 72.859375 117.757812 C 72.25 117.488281 71.644531 117.21875 71.050781 116.953125 C 71.035156 116.949219 71.023438 116.941406 71.011719 116.9375 C 55.425781 110 42.960938 104.773438 37.15625 102.371094 L 42.605469 110.246094 C 94.246094 158.777344 133.765625 193.859375 160.0625 214.511719 C 188.113281 236.546875 196.070312 238.113281 198.320312 237.085938 C 198.425781 237.035156 198.589844 236.953125 198.800781 236.84375 C 200.699219 235.863281 206.472656 232.886719 214.011719 233.042969 C 216.128906 233.085938 218.0625 233.355469 220.089844 233.894531 C 220.109375 233.902344 220.125 233.90625 220.140625 233.910156 Z M 228.96875 239.769531 C 228.753906 239.980469 228.535156 240.191406 228.304688 240.394531 C 226.320312 242.15625 224.535156 240.21875 223.230469 238.804688 C 222.183594 237.675781 220.996094 236.390625 219.535156 236 C 219.519531 235.996094 219.503906 235.992188 219.488281 235.988281 C 217.648438 235.503906 215.890625 235.257812 213.96875 235.21875 C 206.980469 235.070312 201.578125 237.859375 199.800781 238.777344 C 199.550781 238.90625 199.367188 239 199.226562 239.066406 C 196.121094 240.484375 188.546875 239.65625 158.714844 216.226562 C 132.355469 195.519531 92.761719 160.371094 41.03125 111.753906 C 40.976562 111.699219 40.925781 111.644531 40.882812 111.578125 L 33.273438 100.585938 C 33 100.191406 33.015625 99.664062 33.320312 99.285156 C 33.621094 98.910156 34.132812 98.777344 34.578125 98.960938 C 36.238281 99.632812 51.378906 105.816406 71.933594 114.964844 C 71.945312 114.96875 71.957031 114.976562 71.96875 114.980469 C 72.554688 115.238281 73.148438 115.503906 73.742188 115.769531 C 73.890625 115.835938 74.042969 115.902344 74.195312 115.972656 L 74.453125 116.085938 C 74.460938 116.089844 74.46875 116.09375 74.476562 116.097656 C 79.953125 118.550781 85.371094 121.011719 90.578125 123.417969 C 90.589844 123.425781 90.601562 123.429688 90.613281 123.4375 C 91.339844 123.773438 92.074219 124.109375 92.804688 124.453125 C 92.824219 124.457031 92.839844 124.464844 92.855469 124.472656 C 107.324219 131.195312 120.863281 137.804688 133.105469 144.113281 C 137.628906 146.449219 142.066406 148.792969 146.300781 151.078125 L 146.464844 151.167969 C 148.753906 152.40625 151.117188 153.703125 153.476562 155.015625 C 156.25 156.5625 158.976562 158.113281 161.582031 159.621094 C 161.589844 159.628906 161.601562 159.632812 161.609375 159.640625 C 162.253906 160.011719 162.890625 160.382812 163.527344 160.753906 C 168.035156 163.398438 172.347656 166.027344 176.347656 168.574219 C 181.261719 171.699219 185.882812 174.820312 190.078125 177.84375 C 190.390625 178.070312 190.707031 178.296875 191.011719 178.523438 C 195.082031 181.480469 198.855469 184.421875 202.550781 187.507812 C 203.039062 187.917969 203.515625 188.316406 203.984375 188.714844 C 204.441406 189.105469 204.890625 189.492188 205.328125 189.867188 C 207.703125 191.917969 209.789062 193.796875 211.800781 195.613281 C 212.699219 196.421875 213.566406 197.207031 214.425781 197.96875 C 214.703125 198.21875 214.984375 198.464844 215.261719 198.710938 C 216.597656 199.894531 217.734375 200.871094 218.832031 201.78125 C 221.050781 203.621094 223.066406 205.140625 225.175781 206.5625 C 225.183594 206.570312 225.195312 206.574219 225.203125 206.582031 C 225.6875 206.910156 226.1875 207.242188 226.695312 207.5625 C 227.035156 207.78125 227.65625 208.175781 228.40625 208.800781 C 229.671875 209.851562 230.730469 211.070312 231.550781 212.425781 C 233.496094 215.648438 234.570312 219.789062 234.574219 224.085938 C 234.574219 224.109375 234.574219 224.125 234.570312 224.148438 C 234.566406 227.277344 233.984375 234.753906 228.96875 239.769531 " fill-opacity="1" fill-rule="nonzero"/><path fill="currentColor" d="M 153.714844 156.738281 C 153.304688 157.148438 152.632812 157.164062 152.207031 156.761719 C 124.929688 131.335938 56.664062 84.347656 55.976562 83.878906 C 55.917969 83.835938 55.859375 83.789062 55.808594 83.738281 L 34.132812 61.3125 C 39.847656 74.507812 52.660156 92.613281 72.3125 115.246094 C 72.703125 115.699219 72.65625 116.382812 72.203125 116.78125 C 71.75 117.175781 71.0625 117.125 70.667969 116.671875 C 48.261719 90.867188 34.644531 70.816406 30.191406 57.074219 C 30.035156 56.59375 30.234375 56.070312 30.667969 55.808594 C 31.101562 55.546875 31.660156 55.621094 32.011719 55.984375 L 57.300781 82.144531 C 60.164062 84.117188 126.753906 130.058594 153.6875 155.171875 C 154.128906 155.582031 154.152344 156.269531 153.742188 156.710938 C 153.734375 156.71875 153.726562 156.726562 153.714844 156.738281 " fill-opacity="1" fill-rule="nonzero"/><path fill="currentColor" d="M 218.59375 203.125 C 218.480469 203.238281 218.34375 203.328125 218.183594 203.382812 C 217.613281 203.582031 216.996094 203.28125 216.796875 202.714844 C 216.386719 201.546875 215.957031 200.347656 215.519531 199.15625 C 214.066406 195.195312 212.289062 190.636719 210.238281 185.609375 C 210.210938 185.539062 210.179688 185.464844 210.148438 185.386719 C 208.480469 181.308594 206.644531 176.941406 204.699219 172.429688 L 204.175781 171.222656 C 203.152344 168.863281 202.015625 166.277344 200.703125 163.308594 C 200.695312 163.300781 200.691406 163.285156 200.683594 163.273438 C 199.664062 160.984375 198.730469 158.898438 197.824219 156.894531 C 196.214844 153.339844 194.488281 149.574219 192.691406 145.710938 C 175.796875 109.414062 157.632812 74.875 144.09375 53.308594 C 143.808594 52.886719 143.855469 52.308594 144.226562 51.933594 C 144.652344 51.507812 145.34375 51.507812 145.765625 51.933594 C 145.824219 51.992188 145.878906 52.0625 145.925781 52.136719 C 159.511719 73.769531 177.730469 108.410156 194.664062 144.792969 C 196.464844 148.664062 198.195312 152.433594 199.804688 156 C 200.707031 157.992188 201.640625 160.074219 202.65625 162.355469 C 202.664062 162.367188 202.667969 162.378906 202.675781 162.394531 C 204 165.378906 205.144531 167.984375 206.171875 170.359375 L 206.695312 171.566406 C 208.648438 176.09375 210.492188 180.46875 212.171875 184.578125 C 212.203125 184.660156 212.226562 184.722656 212.253906 184.785156 C 214.3125 189.839844 216.101562 194.421875 217.5625 198.40625 C 218.003906 199.609375 218.4375 200.816406 218.851562 201.996094 C 218.992188 202.40625 218.878906 202.839844 218.59375 203.125 " fill-opacity="1" fill-rule="nonzero"/><path fill="currentColor" d="M 234.253906 224.859375 C 233.828125 225.28125 233.140625 225.28125 232.714844 224.859375 C 232.347656 224.492188 232.296875 223.933594 232.558594 223.511719 C 234.6875 219.789062 236.136719 214.574219 236.863281 208.003906 C 237.699219 200.5 237.574219 191.253906 236.492188 180.519531 C 233.921875 155.027344 193.867188 106.371094 160.34375 72.449219 C 155.59375 67.640625 149.269531 59.851562 146.082031 55.84375 L 146.0625 92.320312 C 146.0625 92.921875 145.574219 93.410156 144.972656 93.410156 C 144.371094 93.410156 143.886719 92.921875 143.886719 92.320312 L 143.910156 52.703125 C 143.910156 52.265625 144.175781 51.867188 144.582031 51.699219 C 144.988281 51.53125 145.457031 51.625 145.765625 51.933594 C 145.804688 51.976562 145.84375 52.019531 145.878906 52.066406 C 146.878906 53.351562 155.746094 64.699219 161.894531 70.921875 C 172.585938 81.742188 193.195312 103.472656 211.09375 127.449219 C 228.152344 150.296875 237.425781 168.082031 238.65625 180.300781 C 239.753906 191.1875 239.878906 200.589844 239.027344 208.246094 C 238.265625 215.132812 236.714844 220.644531 234.429688 224.628906 C 234.382812 224.710938 234.320312 224.789062 234.253906 224.859375 " fill-opacity="1" fill-rule="nonzero"/><g clip-path="url(#705c471f7b)"><path fill="currentColor" d="M 269.671875 243.867188 L 253.464844 260.074219 C 253.101562 260.4375 252.535156 260.496094 252.101562 260.21875 C 251.890625 260.078125 230.582031 246.1875 219.082031 235.753906 C 219.070312 235.742188 219.054688 235.730469 219.042969 235.71875 C 218.621094 235.292969 218.617188 234.605469 219.042969 234.179688 C 219.460938 233.761719 220.128906 233.753906 220.554688 234.152344 C 230.722656 243.375 248.703125 255.371094 252.554688 257.910156 L 267.164062 243.296875 C 263.90625 241.238281 254.566406 235.09375 247.882812 228.414062 C 240.929688 221.460938 238.363281 212.289062 237.65625 209.171875 C 237.332031 209.082031 237.050781 208.84375 236.925781 208.5 C 236.71875 207.9375 237.003906 207.3125 237.566406 207.101562 C 237.941406 206.964844 238.144531 206.890625 238.144531 206.890625 C 238.445312 206.785156 238.78125 206.816406 239.058594 206.976562 C 239.335938 207.140625 239.527344 207.417969 239.582031 207.734375 C 239.601562 207.847656 241.601562 219.050781 249.421875 226.875 C 257.414062 234.867188 269.34375 242.09375 269.464844 242.167969 C 269.75 242.339844 269.941406 242.636719 269.980469 242.96875 C 270.023438 243.300781 269.90625 243.632812 269.671875 243.867188 " fill-opacity="1" fill-rule="nonzero"/></g><path fill="currentColor" d="M 249.753906 257.613281 C 249.390625 257.972656 248.816406 258.039062 248.375 257.742188 C 247.878906 257.40625 247.746094 256.730469 248.082031 256.234375 C 251.605469 251 254.242188 243.492188 255.699219 234.519531 C 255.796875 233.929688 256.355469 233.527344 256.949219 233.621094 C 257.542969 233.71875 257.945312 234.277344 257.847656 234.871094 C 256.316406 244.28125 253.640625 251.875 249.886719 257.449219 C 249.847656 257.507812 249.800781 257.5625 249.753906 257.613281 " fill-opacity="1" fill-rule="nonzero"/><path fill="currentColor" d="M 233.058594 235.640625 C 231.117188 237.582031 229.117188 239.5 227.105469 241.300781 C 226.65625 241.699219 225.96875 241.664062 225.566406 241.214844 C 225.167969 240.765625 225.199219 240.074219 225.652344 239.679688 C 232.339844 233.6875 238.96875 226.375 243.351562 221.300781 C 243.742188 220.84375 244.433594 220.796875 244.886719 221.1875 C 245.34375 221.582031 245.390625 222.269531 245 222.722656 C 241.886719 226.328125 237.652344 231.046875 233.058594 235.640625 " fill-opacity="1" fill-rule="nonzero"/><path fill="currentColor" d="M 214.46875 199.550781 C 214.292969 199.726562 214.054688 199.84375 213.785156 199.867188 C 213.1875 199.914062 212.664062 199.464844 212.617188 198.867188 C 212.496094 197.335938 211.832031 195.894531 210.742188 194.804688 L 209.597656 193.660156 C 208.683594 192.746094 207.53125 192.132812 206.265625 191.886719 C 205.738281 191.785156 205.203125 191.75 204.679688 191.777344 C 204.078125 191.8125 203.5625 191.351562 203.53125 190.753906 C 203.496094 190.152344 203.953125 189.640625 204.554688 189.605469 C 205.261719 189.566406 205.976562 189.613281 206.679688 189.75 C 208.375 190.078125 209.914062 190.898438 211.136719 192.121094 L 212.28125 193.265625 C 213.738281 194.71875 214.625 196.648438 214.785156 198.695312 C 214.8125 199.027344 214.6875 199.335938 214.46875 199.550781 " fill-opacity="1" fill-rule="nonzero"/><path fill="currentColor" d="M 202.621094 189.113281 C 202.398438 189.335938 202.078125 189.460938 201.738281 189.425781 C 201.140625 189.363281 200.707031 188.828125 200.769531 188.230469 C 200.976562 186.277344 200.300781 184.363281 198.914062 182.976562 L 197.769531 181.832031 C 197.5 181.5625 197.207031 181.316406 196.898438 181.101562 C 196.609375 180.898438 196.304688 180.71875 195.996094 180.574219 C 194.652344 179.929688 193.117188 179.769531 191.664062 180.121094 C 191.359375 180.195312 191.058594 180.292969 190.773438 180.40625 C 190.21875 180.632812 189.582031 180.363281 189.359375 179.804688 C 189.132812 179.246094 189.402344 178.613281 189.960938 178.386719 C 190.335938 178.238281 190.734375 178.109375 191.144531 178.007812 C 193.089844 177.535156 195.144531 177.75 196.929688 178.609375 C 197.347656 178.804688 197.757812 179.042969 198.148438 179.316406 C 198.558594 179.605469 198.949219 179.933594 199.308594 180.292969 L 200.453125 181.4375 C 202.304688 183.289062 203.210938 185.847656 202.933594 188.457031 C 202.90625 188.714844 202.792969 188.941406 202.621094 189.113281 " fill-opacity="1" fill-rule="nonzero"/><path fill="currentColor" d="M 190.210938 179.496094 C 189.90625 179.804688 189.429688 179.910156 189.007812 179.726562 C 188.457031 179.484375 188.207031 178.84375 188.445312 178.292969 C 188.5625 178.023438 188.664062 177.738281 188.742188 177.449219 C 189.363281 175.207031 188.730469 172.789062 187.085938 171.148438 L 185.941406 170.003906 C 184.296875 168.359375 181.882812 167.722656 179.640625 168.339844 C 178.566406 168.640625 177.582031 169.210938 176.792969 170.003906 C 176.367188 170.425781 175.679688 170.425781 175.253906 170.003906 C 174.828125 169.578125 174.828125 168.886719 175.253906 168.464844 C 176.308594 167.410156 177.625 166.640625 179.058594 166.246094 C 182.058594 165.417969 185.28125 166.269531 187.480469 168.464844 L 188.613281 169.597656 C 190.820312 171.804688 191.671875 175.03125 190.839844 178.027344 C 190.734375 178.414062 190.601562 178.796875 190.441406 179.164062 C 190.386719 179.292969 190.304688 179.402344 190.210938 179.496094 " fill-opacity="1" fill-rule="nonzero"/><path fill="currentColor" d="M 176.792969 170.003906 L 176.535156 170.261719 C 176.109375 170.6875 175.421875 170.6875 174.996094 170.261719 C 174.570312 169.835938 174.570312 169.148438 174.996094 168.722656 L 175.253906 168.464844 C 176.160156 167.558594 176.769531 166.417969 177.023438 165.164062 C 177.023438 165.152344 177.023438 165.140625 177.027344 165.128906 C 177.332031 163.578125 177.0625 161.976562 176.265625 160.621094 C 175.988281 160.148438 175.648438 159.710938 175.253906 159.316406 L 174.109375 158.171875 C 172.628906 156.691406 170.507812 156.019531 168.4375 156.371094 C 167.140625 156.59375 165.953125 157.199219 165.007812 158.128906 L 164.222656 157.371094 L 164.988281 158.148438 L 161.804688 161.332031 C 161.378906 161.757812 160.691406 161.757812 160.265625 161.332031 C 159.839844 160.90625 159.839844 160.21875 160.265625 159.792969 L 163.449219 156.609375 C 163.453125 156.605469 163.480469 156.578125 163.484375 156.574219 C 164.746094 155.335938 166.332031 154.523438 168.070312 154.226562 C 170.835938 153.753906 173.671875 154.65625 175.648438 156.632812 L 176.792969 157.777344 C 177.316406 158.300781 177.773438 158.886719 178.144531 159.519531 C 179.203125 161.328125 179.566406 163.453125 179.167969 165.515625 C 179.167969 165.527344 179.164062 165.539062 179.164062 165.550781 C 178.832031 167.242188 178.011719 168.78125 176.792969 170.003906 " fill-opacity="1" fill-rule="nonzero"/><path fill="currentColor" d="M 163.34375 156.730469 C 163.339844 156.738281 163.332031 156.746094 163.324219 156.757812 C 163.332031 156.746094 163.339844 156.738281 163.34375 156.730469 Z M 164.964844 158.175781 L 161.804688 161.332031 C 161.382812 161.757812 160.691406 161.757812 160.265625 161.332031 C 159.84375 160.910156 159.84375 160.21875 160.265625 159.792969 L 163.398438 156.660156 C 163.417969 156.644531 163.433594 156.625 163.449219 156.609375 L 164.246094 157.351562 L 163.46875 156.589844 C 164.949219 155.078125 165.601562 152.9375 165.203125 150.855469 C 164.964844 149.574219 164.347656 148.410156 163.425781 147.488281 L 162.28125 146.34375 C 161.171875 145.230469 159.695312 144.566406 158.132812 144.464844 C 156.269531 144.339844 154.453125 145.027344 153.132812 146.34375 L 147.410156 152.066406 C 146.984375 152.492188 146.296875 152.492188 145.871094 152.066406 C 145.445312 151.640625 145.445312 150.953125 145.871094 150.527344 L 151.59375 144.804688 C 153.355469 143.042969 155.789062 142.128906 158.273438 142.292969 C 160.363281 142.425781 162.335938 143.320312 163.820312 144.804688 L 164.964844 145.949219 C 166.199219 147.183594 167.019531 148.738281 167.34375 150.453125 C 167.871094 153.230469 167.003906 156.09375 165.023438 158.113281 C 165 158.136719 164.980469 158.160156 164.964844 158.175781 " fill-opacity="1" fill-rule="nonzero"/><path fill="currentColor" d="M 153.132812 146.34375 L 148.175781 151.300781 C 147.75 151.726562 147.0625 151.726562 146.636719 151.300781 C 146.210938 150.878906 146.210938 150.1875 146.636719 149.761719 L 151.59375 144.804688 C 154.117188 142.28125 154.117188 138.179688 151.597656 135.660156 L 150.449219 134.511719 C 149.835938 133.898438 149.117188 133.421875 148.316406 133.09375 C 145.898438 132.113281 143.148438 132.671875 141.304688 134.511719 L 135.582031 140.238281 C 135.550781 140.265625 135.523438 140.292969 135.492188 140.324219 C 135.085938 140.765625 134.398438 140.792969 133.957031 140.386719 C 133.515625 139.976562 133.488281 139.289062 133.894531 138.847656 C 133.941406 138.796875 133.992188 138.75 134.042969 138.699219 L 139.765625 132.972656 C 142.226562 130.511719 145.90625 129.769531 149.136719 131.078125 C 150.207031 131.515625 151.167969 132.152344 151.988281 132.972656 L 153.136719 134.121094 C 156.503906 137.488281 156.503906 142.972656 153.132812 146.34375 " fill-opacity="1" fill-rule="nonzero"/><path fill="currentColor" d="M 141.304688 134.511719 L 135.582031 140.238281 C 135.53125 140.285156 135.484375 140.335938 135.429688 140.382812 C 134.992188 140.789062 134.300781 140.765625 133.894531 140.324219 C 133.484375 139.882812 133.511719 139.195312 133.953125 138.785156 C 133.984375 138.757812 134.011719 138.730469 134.042969 138.699219 L 139.765625 132.972656 C 140.589844 132.152344 141.175781 131.125 141.460938 130 C 142.019531 127.796875 141.371094 125.433594 139.765625 123.828125 L 138.621094 122.683594 C 138.574219 122.636719 138.527344 122.59375 138.480469 122.550781 C 138.265625 122.34375 138.050781 122.164062 137.820312 122.003906 C 136.226562 120.855469 134.226562 120.5 132.328125 121.023438 C 131.253906 121.316406 130.265625 121.890625 129.476562 122.683594 L 123.75 128.40625 C 123.4375 128.71875 123.15625 129.066406 122.914062 129.433594 C 122.808594 129.59375 122.707031 129.765625 122.605469 129.957031 C 122.320312 130.484375 121.660156 130.683594 121.132812 130.398438 C 120.601562 130.113281 120.40625 129.453125 120.6875 128.925781 C 120.820312 128.679688 120.953125 128.457031 121.097656 128.238281 C 121.421875 127.746094 121.796875 127.285156 122.210938 126.867188 L 127.9375 121.144531 C 128.992188 120.085938 130.3125 119.316406 131.753906 118.921875 C 134.289062 118.226562 136.960938 118.703125 139.085938 120.230469 C 139.394531 120.453125 139.691406 120.695312 139.96875 120.957031 C 140.039062 121.027344 140.101562 121.085938 140.160156 121.144531 L 141.304688 122.289062 C 143.449219 124.433594 144.316406 127.59375 143.570312 130.539062 C 143.1875 132.039062 142.40625 133.414062 141.304688 134.511719 " fill-opacity="1" fill-rule="nonzero"/><path fill="currentColor" d="M 129.476562 122.683594 L 123.75 128.40625 C 123.328125 128.828125 122.867188 129.207031 122.371094 129.53125 C 122.109375 129.703125 121.84375 129.855469 121.578125 129.988281 C 121.039062 130.261719 120.386719 130.046875 120.113281 129.511719 C 119.84375 128.976562 120.058594 128.320312 120.59375 128.046875 C 120.789062 127.949219 120.984375 127.835938 121.179688 127.710938 C 121.546875 127.46875 121.894531 127.183594 122.210938 126.867188 L 127.9375 121.144531 C 128.726562 120.355469 129.300781 119.367188 129.597656 118.292969 C 130.125 116.378906 129.761719 114.363281 128.59375 112.765625 C 128.589844 112.761719 128.582031 112.753906 128.578125 112.746094 C 128.417969 112.523438 128.234375 112.308594 128.042969 112.105469 C 127.996094 112.058594 127.96875 112.027344 127.9375 112 L 126.792969 110.855469 C 125.183594 109.246094 122.8125 108.597656 120.605469 109.164062 C 119.660156 109.40625 118.804688 109.847656 118.058594 110.476562 C 118.046875 110.484375 118.042969 110.492188 118.03125 110.496094 C 117.898438 110.613281 117.769531 110.726562 117.644531 110.855469 L 111.921875 116.578125 C 111.796875 116.703125 111.679688 116.832031 111.566406 116.964844 C 111.558594 116.972656 111.550781 116.984375 111.542969 116.992188 C 111.265625 117.316406 111.027344 117.667969 110.828125 118.03125 C 110.433594 118.75 110.179688 119.519531 110.082031 120.328125 C 110.003906 120.921875 109.460938 121.347656 108.863281 121.269531 C 108.269531 121.195312 107.847656 120.652344 107.921875 120.054688 C 108.058594 118.976562 108.394531 117.941406 108.921875 116.984375 C 109.191406 116.484375 109.523438 116.007812 109.898438 115.5625 C 109.90625 115.554688 109.914062 115.546875 109.921875 115.539062 C 110.070312 115.367188 110.21875 115.203125 110.382812 115.039062 L 116.105469 109.316406 C 116.269531 109.152344 116.433594 109 116.609375 108.851562 C 116.617188 108.84375 116.625 108.839844 116.632812 108.832031 C 117.636719 107.980469 118.789062 107.382812 120.0625 107.054688 C 123.015625 106.300781 126.179688 107.164062 128.332031 109.316406 L 129.476562 110.460938 C 129.527344 110.511719 129.574219 110.558594 129.625 110.613281 C 129.867188 110.867188 130.105469 111.148438 130.320312 111.441406 C 130.328125 111.449219 130.332031 111.453125 130.335938 111.460938 C 131.90625 113.601562 132.402344 116.304688 131.695312 118.871094 C 131.300781 120.308594 130.53125 121.625 129.476562 122.683594 " fill-opacity="1" fill-rule="nonzero"/><path fill="currentColor" d="M 117.695312 110.875 L 111.9375 116.628906 C 111.796875 116.769531 111.640625 116.914062 111.464844 117.070312 C 111.453125 117.078125 111.445312 117.085938 111.4375 117.09375 C 110.894531 117.554688 110.300781 117.949219 109.660156 118.269531 C 108.53125 118.828125 107.320312 119.128906 106.058594 119.167969 C 105.460938 119.183594 104.957031 118.710938 104.9375 118.113281 C 104.921875 117.511719 105.394531 117.011719 105.996094 116.992188 C 106.941406 116.964844 107.847656 116.738281 108.691406 116.320312 C 109.164062 116.085938 109.605469 115.792969 110.007812 115.453125 C 110.011719 115.449219 110.015625 115.445312 110.015625 115.445312 C 110.164062 115.316406 110.289062 115.199219 110.398438 115.089844 L 116.15625 109.335938 C 116.265625 109.222656 116.378906 109.101562 116.511719 108.949219 C 116.515625 108.945312 116.515625 108.941406 116.519531 108.9375 C 118.105469 107.070312 118.507812 104.503906 117.5625 102.238281 C 117.238281 101.445312 116.765625 100.738281 116.15625 100.128906 L 115.003906 98.976562 C 113.625 97.597656 111.714844 96.914062 109.769531 97.101562 C 108.273438 97.246094 106.863281 97.910156 105.796875 98.976562 L 100.042969 104.734375 C 99.273438 105.5 98.707031 106.453125 98.402344 107.492188 C 97.992188 108.890625 98.0625 110.40625 98.601562 111.765625 C 98.773438 112.160156 98.699219 112.640625 98.375 112.964844 C 97.949219 113.390625 97.261719 113.390625 96.835938 112.964844 C 96.730469 112.859375 96.648438 112.738281 96.59375 112.601562 C 95.863281 110.789062 95.761719 108.753906 96.3125 106.878906 C 96.722656 105.492188 97.480469 104.21875 98.503906 103.195312 L 104.257812 97.4375 C 105.679688 96.015625 107.5625 95.128906 109.5625 94.933594 C 112.15625 94.683594 114.703125 95.597656 116.542969 97.4375 L 117.695312 98.589844 C 118.507812 99.402344 119.140625 100.351562 119.574219 101.40625 C 120.835938 104.4375 120.292969 107.875 118.160156 110.371094 C 118.152344 110.378906 118.144531 110.390625 118.136719 110.398438 C 117.976562 110.582031 117.835938 110.730469 117.695312 110.875 " fill-opacity="1" fill-rule="nonzero"/><path fill="currentColor" d="M 89.300781 93.28125 C 87.128906 95.453125 87.128906 98.988281 89.300781 101.164062 L 90.308594 102.171875 C 92.484375 104.347656 96.019531 104.347656 98.191406 102.171875 L 103.238281 97.125 C 105.414062 94.953125 105.414062 91.414062 103.238281 89.242188 L 102.230469 88.234375 C 100.058594 86.058594 96.519531 86.058594 94.347656 88.234375 Z M 104.777344 98.664062 L 99.730469 103.710938 C 96.710938 106.734375 91.792969 106.734375 88.769531 103.710938 L 87.761719 102.703125 C 84.738281 99.679688 84.738281 94.761719 87.761719 91.742188 L 92.808594 86.695312 C 95.832031 83.671875 100.746094 83.671875 103.769531 86.695312 L 104.777344 87.703125 C 107.800781 90.726562 107.800781 95.644531 104.777344 98.664062 " fill-opacity="1" fill-rule="nonzero"/><path fill="currentColor" d="M 78.230469 82.371094 C 75.972656 84.628906 75.972656 88.300781 78.230469 90.554688 L 79.269531 91.597656 C 81.527344 93.855469 85.199219 93.855469 87.457031 91.597656 L 92.664062 86.386719 C 94.921875 84.132812 94.921875 80.460938 92.664062 78.203125 L 91.621094 77.164062 C 89.367188 74.90625 85.695312 74.90625 83.4375 77.164062 Z M 94.203125 87.925781 L 88.996094 93.136719 C 85.890625 96.242188 80.835938 96.242188 77.730469 93.136719 L 76.691406 92.09375 C 73.585938 88.988281 73.585938 83.9375 76.691406 80.832031 L 81.898438 75.625 C 85.003906 72.519531 90.054688 72.519531 93.160156 75.625 L 94.203125 76.664062 C 97.308594 79.769531 97.308594 84.824219 94.203125 87.925781 " fill-opacity="1" fill-rule="nonzero"/><path fill="currentColor" d="M 67.691406 71.648438 C 65.53125 73.808594 65.53125 77.324219 67.691406 79.484375 L 68.695312 80.488281 C 70.855469 82.652344 74.371094 82.652344 76.535156 80.488281 L 81.558594 75.46875 C 83.71875 73.304688 83.71875 69.789062 81.558594 67.628906 L 80.550781 66.625 C 78.390625 64.464844 74.875 64.464844 72.714844 66.625 Z M 83.097656 77.007812 L 78.074219 82.027344 C 75.0625 85.039062 70.167969 85.039062 67.15625 82.027344 L 66.152344 81.023438 C 63.144531 78.015625 63.144531 73.117188 66.152344 70.109375 L 71.175781 65.085938 C 74.183594 62.074219 79.082031 62.074219 82.089844 65.085938 L 83.097656 66.089844 C 86.105469 69.097656 86.105469 73.996094 83.097656 77.007812 " fill-opacity="1" fill-rule="nonzero"/><path fill="currentColor" d="M 47.980469 53.710938 C 47.742188 53.949219 47.398438 54.070312 47.042969 54.015625 C 46.050781 53.859375 45.152344 53.402344 44.4375 52.6875 L 43.886719 52.136719 C 42.039062 50.289062 42.039062 47.285156 43.886719 45.441406 L 46.648438 42.675781 C 48.496094 40.828125 51.5 40.828125 53.347656 42.675781 L 53.898438 43.226562 C 54.304688 43.632812 54.625 44.097656 54.859375 44.609375 C 55.105469 45.15625 54.863281 45.800781 54.316406 46.050781 C 53.769531 46.296875 53.125 46.054688 52.875 45.507812 C 52.75 45.234375 52.578125 44.984375 52.359375 44.765625 L 51.808594 44.214844 C 50.808594 43.214844 49.1875 43.214844 48.1875 44.214844 L 45.425781 46.976562 C 44.425781 47.976562 44.425781 49.597656 45.425781 50.597656 L 45.976562 51.148438 C 46.363281 51.535156 46.847656 51.78125 47.378906 51.863281 C 47.972656 51.957031 48.378906 52.515625 48.285156 53.109375 C 48.25 53.347656 48.136719 53.550781 47.980469 53.710938 " fill-opacity="1" fill-rule="nonzero"/><path fill="currentColor" d="M 45.230469 56.574219 C 44.917969 56.886719 44.429688 56.988281 44.003906 56.792969 C 43.589844 56.601562 43.214844 56.339844 42.894531 56.019531 L 42.472656 55.597656 C 40.96875 54.09375 40.96875 51.644531 42.472656 50.136719 L 43.125 49.488281 C 43.550781 49.0625 44.242188 49.0625 44.664062 49.488281 C 45.089844 49.910156 45.089844 50.601562 44.664062 51.023438 L 44.011719 51.675781 C 43.355469 52.335938 43.355469 53.402344 44.011719 54.058594 L 44.433594 54.480469 C 44.574219 54.621094 44.738281 54.734375 44.917969 54.816406 C 45.464844 55.070312 45.703125 55.714844 45.449219 56.261719 C 45.394531 56.382812 45.320312 56.484375 45.230469 56.574219 " fill-opacity="1" fill-rule="nonzero"/><g clip-path="url(#7777bee1c8)"><path fill="currentColor" d="M 60.375 46.988281 L 59.128906 48.234375 C 58.707031 48.65625 58.015625 48.65625 57.589844 48.234375 C 57.167969 47.808594 57.167969 47.117188 57.589844 46.695312 L 58.835938 45.449219 C 59.492188 44.792969 59.492188 43.726562 58.835938 43.074219 L 58.417969 42.652344 C 57.761719 41.996094 56.695312 41.996094 56.039062 42.652344 L 53.960938 44.734375 C 53.589844 45.15625 52.949219 45.226562 52.492188 44.882812 C 52.011719 44.523438 51.914062 43.839844 52.273438 43.359375 C 52.3125 43.308594 52.359375 43.253906 52.40625 43.210938 L 54.5 41.113281 C 56.003906 39.609375 58.453125 39.609375 59.957031 41.113281 L 60.375 41.535156 C 61.878906 43.035156 61.878906 45.484375 60.375 46.988281 " fill-opacity="1" fill-rule="nonzero"/></g><path fill="currentColor" d="M 75.074219 65.101562 C 74.824219 65.351562 74.460938 65.476562 74.089844 65.402344 C 73.5 65.285156 73.117188 64.710938 73.238281 64.121094 C 73.242188 64.082031 73.25 64.039062 73.257812 64 C 73.480469 62.53125 73.003906 61.089844 71.957031 60.046875 L 71.09375 59.179688 C 69.292969 57.382812 66.367188 57.382812 64.566406 59.179688 L 60.246094 63.5 C 58.980469 64.769531 58.558594 66.671875 59.179688 68.355469 C 59.410156 68.988281 59.769531 69.550781 60.246094 70.027344 L 61.113281 70.890625 C 62.183594 71.964844 63.714844 72.441406 65.203125 72.167969 C 65.796875 72.058594 66.363281 72.449219 66.472656 73.039062 C 66.582031 73.632812 66.191406 74.199219 65.597656 74.308594 C 63.402344 74.710938 61.152344 74.007812 59.574219 72.429688 L 58.707031 71.566406 C 58.007812 70.863281 57.476562 70.035156 57.136719 69.105469 C 56.226562 66.632812 56.84375 63.828125 58.707031 61.960938 L 63.027344 57.640625 C 65.675781 54.992188 69.984375 54.992188 72.632812 57.640625 L 73.496094 58.507812 C 75.015625 60.023438 75.730469 62.199219 75.410156 64.320312 C 75.398438 64.398438 75.386719 64.472656 75.371094 64.546875 C 75.328125 64.765625 75.21875 64.957031 75.074219 65.101562 " fill-opacity="1" fill-rule="nonzero"/><path fill="currentColor" d="M 66.40625 57.949219 C 66.097656 58.253906 65.621094 58.359375 65.199219 58.175781 C 64.648438 57.9375 64.398438 57.292969 64.636719 56.742188 C 65.28125 55.269531 64.960938 53.585938 63.824219 52.445312 L 63.070312 51.695312 C 61.554688 50.179688 59.09375 50.179688 57.578125 51.695312 L 53.8125 55.460938 C 52.5625 56.707031 52.3125 58.632812 53.195312 60.152344 C 53.199219 60.164062 53.203125 60.171875 53.210938 60.175781 C 53.375 60.460938 53.578125 60.71875 53.8125 60.953125 L 54.5625 61.707031 C 55.480469 62.621094 56.789062 63.019531 58.0625 62.769531 C 58.167969 62.75 58.265625 62.726562 58.378906 62.695312 C 58.957031 62.53125 59.558594 62.867188 59.722656 63.445312 C 59.886719 64.023438 59.546875 64.625 58.96875 64.789062 C 58.789062 64.839844 58.621094 64.878906 58.464844 64.910156 C 56.496094 65.296875 54.457031 64.675781 53.023438 63.246094 L 52.273438 62.492188 C 51.917969 62.136719 51.609375 61.742188 51.355469 61.316406 C 51.347656 61.304688 51.339844 61.292969 51.335938 61.285156 C 49.929688 58.90625 50.316406 55.878906 52.273438 53.921875 L 56.039062 50.15625 C 58.402344 47.792969 62.246094 47.792969 64.609375 50.15625 L 65.363281 50.90625 C 67.136719 52.683594 67.636719 55.316406 66.632812 57.613281 C 66.574219 57.742188 66.5 57.855469 66.40625 57.949219 " fill-opacity="1" fill-rule="nonzero"/><path fill="currentColor" d="M 59.824219 50.402344 C 59.632812 50.59375 59.375 50.714844 59.085938 50.722656 C 58.484375 50.738281 57.984375 50.265625 57.964844 49.664062 C 57.953125 49.171875 57.820312 48.691406 57.578125 48.265625 C 57.445312 48.03125 57.28125 47.816406 57.085938 47.621094 L 56.46875 47 C 55.296875 45.828125 53.386719 45.828125 52.21875 47 L 49.117188 50.101562 C 47.945312 51.273438 47.945312 53.179688 49.117188 54.351562 L 49.738281 54.96875 C 50.285156 55.515625 51.007812 55.828125 51.78125 55.847656 C 52.382812 55.863281 52.855469 56.367188 52.839844 56.964844 C 52.824219 57.566406 52.324219 58.042969 51.722656 58.023438 C 50.390625 57.988281 49.140625 57.449219 48.199219 56.507812 L 47.578125 55.890625 C 45.558594 53.867188 45.558594 50.582031 47.578125 48.5625 L 50.679688 45.460938 C 52.699219 43.441406 55.984375 43.441406 58.007812 45.460938 L 58.625 46.082031 C 58.960938 46.417969 59.246094 46.792969 59.472656 47.199219 C 59.886719 47.925781 60.117188 48.757812 60.140625 49.601562 C 60.152344 49.914062 60.027344 50.199219 59.824219 50.402344 " fill-opacity="1" fill-rule="nonzero"/><path fill="currentColor" d="M 207.242188 191.589844 C 206.816406 192.015625 206.128906 192.015625 205.703125 191.589844 C 205.484375 191.371094 205.378906 191.085938 205.382812 190.800781 C 205.386719 190.710938 205.398438 190.621094 205.421875 190.527344 C 205.675781 189.609375 206.105469 188.757812 206.691406 188.003906 C 206.699219 187.992188 206.707031 187.984375 206.71875 187.972656 C 206.855469 187.796875 206.996094 187.632812 207.140625 187.484375 C 207.191406 187.425781 207.242188 187.375 207.296875 187.320312 L 210.394531 184.222656 C 210.820312 183.796875 211.507812 183.796875 211.933594 184.222656 C 212.359375 184.648438 212.359375 185.335938 211.933594 185.761719 L 208.835938 188.859375 C 208.8125 188.882812 208.789062 188.902344 208.769531 188.925781 C 208.757812 188.941406 208.742188 188.957031 208.730469 188.96875 C 208.621094 189.082031 208.515625 189.207031 208.410156 189.339844 C 208.40625 189.347656 208.398438 189.355469 208.394531 189.359375 C 207.996094 189.875 207.707031 190.453125 207.53125 191.074219 C 207.484375 191.265625 207.390625 191.445312 207.242188 191.589844 " fill-opacity="1" fill-rule="nonzero"/><path fill="currentColor" d="M 198.292969 180.980469 C 197.867188 181.402344 197.175781 181.402344 196.75 180.980469 C 196.421875 180.648438 196.347656 180.164062 196.527344 179.765625 C 196.894531 178.84375 197.4375 178.015625 198.148438 177.308594 L 202.851562 172.601562 C 203.554688 171.898438 204.375 171.355469 205.292969 170.992188 C 205.851562 170.765625 206.484375 171.039062 206.707031 171.59375 C 206.929688 172.152344 206.660156 172.785156 206.101562 173.011719 C 205.460938 173.265625 204.886719 173.648438 204.390625 174.140625 L 199.6875 178.847656 C 199.179688 179.351562 198.792969 179.945312 198.535156 180.605469 C 198.480469 180.742188 198.398438 180.871094 198.292969 180.980469 " fill-opacity="1" fill-rule="nonzero"/><path fill="currentColor" d="M 212.015625 185.964844 L 209.410156 188.570312 C 209.160156 188.824219 208.890625 189.054688 208.613281 189.261719 C 208.476562 189.367188 208.316406 189.476562 208.160156 189.574219 C 208.148438 189.578125 208.140625 189.585938 208.132812 189.589844 C 206.640625 190.53125 204.855469 190.898438 203.109375 190.621094 C 202.515625 190.527344 202.109375 189.96875 202.203125 189.375 C 202.296875 188.78125 202.855469 188.375 203.449219 188.46875 C 204.664062 188.664062 205.902344 188.414062 206.941406 187.769531 C 206.957031 187.757812 206.972656 187.746094 206.988281 187.738281 C 207.09375 187.671875 207.199219 187.601562 207.304688 187.523438 C 207.511719 187.367188 207.699219 187.207031 207.871094 187.035156 L 210.476562 184.429688 C 210.902344 184.003906 211.589844 184.003906 212.015625 184.429688 C 212.441406 184.851562 212.441406 185.542969 212.015625 185.964844 " fill-opacity="1" fill-rule="nonzero"/><path fill="currentColor" d="M 202.449219 163.601562 C 202.070312 163.980469 201.480469 164.023438 201.058594 163.726562 C 199.046875 162.429688 196.363281 162.71875 194.667969 164.414062 L 189.960938 169.121094 C 189.480469 169.601562 189.105469 170.160156 188.851562 170.78125 C 188.621094 171.335938 187.984375 171.601562 187.429688 171.375 C 186.875 171.144531 186.609375 170.507812 186.835938 169.953125 C 187.203125 169.066406 187.738281 168.269531 188.421875 167.582031 L 193.128906 162.878906 C 195.554688 160.449219 199.402344 160.046875 202.273438 161.921875 C 202.335938 161.964844 202.394531 162.011719 202.449219 162.0625 C 202.875 162.488281 202.875 163.179688 202.449219 163.601562 " fill-opacity="1" fill-rule="nonzero"/><path fill="currentColor" d="M 204.390625 174.140625 L 199.6875 178.847656 C 198.875 179.660156 197.875 180.273438 196.796875 180.625 C 196.226562 180.8125 195.613281 180.5 195.425781 179.925781 C 195.238281 179.355469 195.554688 178.742188 196.125 178.554688 C 196.878906 178.308594 197.578125 177.878906 198.148438 177.308594 L 202.851562 172.601562 C 203.449219 172.007812 203.890625 171.273438 204.132812 170.476562 C 204.308594 169.898438 204.914062 169.574219 205.488281 169.75 C 206.0625 169.921875 206.390625 170.53125 206.214844 171.105469 C 205.871094 172.246094 205.238281 173.292969 204.390625 174.140625 " fill-opacity="1" fill-rule="nonzero"/><path fill="currentColor" d="M 192.179688 179.832031 C 191.835938 180.171875 191.296875 180.257812 190.863281 180.003906 C 190.3125 179.683594 189.808594 179.292969 189.363281 178.847656 L 189.023438 178.507812 C 188.597656 178.082031 188.597656 177.394531 189.023438 176.96875 C 189.449219 176.542969 190.136719 176.542969 190.5625 176.96875 L 190.902344 177.308594 C 191.214844 177.621094 191.570312 177.894531 191.957031 178.121094 C 192.476562 178.425781 192.652344 179.089844 192.351562 179.609375 C 192.300781 179.695312 192.242188 179.769531 192.179688 179.832031 " fill-opacity="1" fill-rule="nonzero"/><path fill="currentColor" d="M 194.667969 164.417969 L 189.960938 169.121094 C 189.273438 169.808594 188.476562 170.339844 187.589844 170.707031 C 187.035156 170.933594 186.398438 170.671875 186.167969 170.113281 C 185.941406 169.558594 186.207031 168.921875 186.761719 168.695312 C 187.382812 168.4375 187.941406 168.066406 188.421875 167.582031 L 193.128906 162.878906 C 195.125 160.878906 195.125 157.628906 193.128906 155.632812 L 192.1875 154.691406 C 190.1875 152.695312 186.9375 152.695312 184.941406 154.691406 L 180.234375 159.398438 C 179.585938 160.046875 179.121094 160.859375 178.898438 161.742188 C 178.746094 162.324219 178.15625 162.675781 177.574219 162.527344 C 176.992188 162.378906 176.640625 161.789062 176.789062 161.207031 C 177.109375 159.941406 177.769531 158.785156 178.699219 157.859375 L 183.402344 153.152344 C 186.246094 150.308594 190.878906 150.308594 193.726562 153.152344 L 194.667969 154.09375 C 197.511719 156.941406 197.511719 161.570312 194.667969 164.417969 " fill-opacity="1" fill-rule="nonzero"/><path fill="currentColor" d="M 180.121094 168.0625 C 180.113281 168.066406 180.105469 168.074219 180.097656 168.082031 C 179.664062 168.496094 178.976562 168.476562 178.5625 168.042969 C 177.921875 167.367188 177.421875 166.59375 177.085938 165.742188 C 176.863281 165.183594 177.136719 164.550781 177.695312 164.328125 C 178.253906 164.105469 178.886719 164.378906 179.105469 164.9375 C 179.34375 165.53125 179.691406 166.070312 180.136719 166.542969 C 180.546875 166.972656 180.535156 167.644531 180.121094 168.0625 " fill-opacity="1" fill-rule="nonzero"/><path fill="currentColor" d="M 184.941406 154.691406 L 180.234375 159.398438 C 179.472656 160.160156 178.578125 160.730469 177.574219 161.09375 C 177.007812 161.300781 176.382812 161.007812 176.179688 160.441406 C 175.976562 159.878906 176.265625 159.253906 176.832031 159.046875 C 177.535156 158.792969 178.160156 158.394531 178.699219 157.859375 L 183.402344 153.152344 C 184.164062 152.390625 184.660156 151.429688 184.835938 150.367188 C 185.101562 148.742188 184.566406 147.074219 183.402344 145.90625 L 182.460938 144.96875 C 180.464844 142.96875 177.214844 142.96875 175.21875 144.96875 L 170.511719 149.671875 C 169.121094 151.0625 168.648438 153.085938 169.285156 154.949219 C 169.476562 155.519531 169.171875 156.136719 168.605469 156.328125 C 168.035156 156.523438 167.417969 156.21875 167.222656 155.648438 C 166.320312 152.996094 166.992188 150.113281 168.972656 148.132812 L 173.679688 143.429688 C 176.523438 140.582031 181.152344 140.582031 184 143.429688 L 184.941406 144.371094 C 186.601562 146.027344 187.363281 148.402344 186.984375 150.722656 C 186.730469 152.234375 186.023438 153.609375 184.941406 154.691406 " fill-opacity="1" fill-rule="nonzero"/><path fill="currentColor" d="M 175.21875 144.96875 L 170.511719 149.671875 C 169.398438 150.785156 167.988281 151.496094 166.433594 151.730469 C 165.839844 151.820312 165.285156 151.410156 165.199219 150.816406 C 165.109375 150.21875 165.519531 149.667969 166.113281 149.578125 C 167.203125 149.414062 168.191406 148.917969 168.972656 148.132812 L 173.679688 143.429688 C 174.269531 142.835938 174.695312 142.132812 174.945312 141.339844 L 174.957031 141.304688 C 175.507812 139.488281 175.019531 137.523438 173.679688 136.183594 L 172.734375 135.242188 C 171.03125 133.539062 168.332031 133.253906 166.316406 134.566406 C 166.019531 134.765625 165.742188 134.992188 165.492188 135.242188 L 160.785156 139.945312 C 159.859375 140.871094 159.328125 142.101562 159.285156 143.414062 C 159.269531 144.011719 158.765625 144.484375 158.164062 144.464844 C 157.566406 144.449219 157.09375 143.945312 157.113281 143.34375 C 157.167969 141.480469 157.925781 139.726562 159.246094 138.40625 L 163.953125 133.703125 C 164.304688 133.351562 164.699219 133.027344 165.125 132.75 C 168 130.871094 171.847656 131.273438 174.273438 133.703125 L 175.21875 134.644531 C 177.128906 136.554688 177.824219 139.351562 177.035156 141.9375 C 177.035156 141.949219 177.03125 141.957031 177.027344 141.960938 C 177.027344 141.972656 177.019531 141.992188 177.015625 142 C 176.675781 143.105469 176.050781 144.132812 175.21875 144.96875 " fill-opacity="1" fill-rule="nonzero"/><path fill="currentColor" d="M 165.492188 135.242188 L 160.785156 139.945312 C 159.105469 141.628906 156.703125 142.386719 154.359375 141.976562 C 153.769531 141.871094 153.371094 141.308594 153.476562 140.714844 C 153.582031 140.125 154.144531 139.726562 154.738281 139.832031 C 156.382812 140.121094 158.066406 139.589844 159.246094 138.40625 L 163.953125 133.703125 C 164.507812 133.144531 164.921875 132.488281 165.171875 131.75 C 165.179688 131.738281 165.183594 131.722656 165.1875 131.710938 C 165.808594 129.855469 165.339844 127.84375 163.953125 126.457031 L 163.011719 125.515625 C 161.621094 124.128906 159.527344 123.65625 157.675781 124.3125 C 156.953125 124.566406 156.3125 124.96875 155.765625 125.515625 L 151.0625 130.222656 C 150.453125 130.828125 150.007812 131.578125 149.769531 132.394531 C 149.601562 132.96875 148.996094 133.300781 148.417969 133.128906 C 147.84375 132.960938 147.511719 132.355469 147.679688 131.78125 C 148.023438 130.617188 148.660156 129.546875 149.523438 128.683594 L 154.226562 123.976562 C 155.007812 123.199219 155.921875 122.621094 156.949219 122.257812 C 159.585938 121.324219 162.570312 122 164.550781 123.976562 L 165.492188 124.917969 C 167.480469 126.90625 168.144531 129.792969 167.234375 132.453125 C 167.226562 132.46875 167.222656 132.484375 167.21875 132.496094 C 166.855469 133.535156 166.273438 134.457031 165.492188 135.242188 " fill-opacity="1" fill-rule="nonzero"/><path fill="currentColor" d="M 155.765625 125.515625 L 151.0625 130.222656 C 148.632812 132.648438 144.789062 133.054688 141.921875 131.179688 C 141.417969 130.851562 141.273438 130.179688 141.601562 129.675781 C 141.929688 129.171875 142.605469 129.03125 143.109375 129.359375 C 145.121094 130.671875 147.820312 130.386719 149.523438 128.683594 L 154.226562 123.976562 C 156.226562 121.980469 156.226562 118.730469 154.226562 116.734375 L 153.285156 115.792969 C 151.289062 113.796875 148.039062 113.796875 146.042969 115.792969 L 141.335938 120.496094 C 140.855469 120.980469 140.480469 121.539062 140.222656 122.160156 C 139.996094 122.71875 139.359375 122.984375 138.804688 122.753906 C 138.246094 122.527344 137.984375 121.890625 138.210938 121.335938 C 138.578125 120.445312 139.109375 119.644531 139.796875 118.957031 L 144.503906 114.253906 C 147.347656 111.40625 151.980469 111.40625 154.824219 114.253906 L 155.765625 115.195312 C 158.613281 118.039062 158.613281 122.671875 155.765625 125.515625 " fill-opacity="1" fill-rule="nonzero"/><path fill="currentColor" d="M 146.042969 115.792969 L 141.335938 120.496094 C 140.621094 121.214844 139.78125 121.761719 138.847656 122.128906 C 138.289062 122.347656 137.660156 122.074219 137.4375 121.515625 C 137.21875 120.953125 137.496094 120.324219 138.054688 120.105469 C 138.707031 119.847656 139.292969 119.460938 139.796875 118.957031 L 144.503906 114.253906 C 146.5 112.257812 146.5 109.007812 144.503906 107.007812 L 143.5625 106.066406 C 141.5625 104.070312 138.3125 104.070312 136.316406 106.066406 L 131.609375 110.773438 C 131.109375 111.273438 130.726562 111.855469 130.46875 112.503906 C 130.25 113.0625 129.617188 113.335938 129.058594 113.117188 C 128.5 112.898438 128.226562 112.265625 128.445312 111.707031 C 128.8125 110.777344 129.359375 109.945312 130.070312 109.234375 L 134.777344 104.527344 C 137.621094 101.683594 142.253906 101.683594 145.101562 104.527344 L 146.042969 105.46875 C 148.886719 108.316406 148.886719 112.945312 146.042969 115.792969 " fill-opacity="1" fill-rule="nonzero"/><path fill="currentColor" d="M 132.808594 120.742188 C 132.402344 121.148438 131.742188 121.167969 131.3125 120.78125 C 131.210938 120.6875 131.109375 120.59375 131.015625 120.496094 L 130.070312 119.554688 C 129.996094 119.480469 129.917969 119.398438 129.84375 119.320312 C 129.4375 118.878906 129.46875 118.1875 129.910156 117.78125 C 130.355469 117.375 131.042969 117.40625 131.449219 117.847656 C 131.5 117.90625 131.554688 117.960938 131.609375 118.015625 L 132.554688 118.957031 C 132.621094 119.03125 132.695312 119.097656 132.769531 119.164062 C 133.214844 119.566406 133.25 120.253906 132.847656 120.703125 C 132.835938 120.714844 132.824219 120.726562 132.808594 120.742188 " fill-opacity="1" fill-rule="nonzero"/><path fill="currentColor" d="M 136.316406 106.066406 L 131.609375 110.773438 C 130.925781 111.457031 130.128906 111.988281 129.242188 112.355469 C 128.6875 112.585938 128.050781 112.324219 127.820312 111.769531 C 127.589844 111.214844 127.851562 110.578125 128.410156 110.347656 C 129.03125 110.085938 129.589844 109.714844 130.070312 109.234375 L 134.777344 104.527344 C 136.773438 102.53125 136.773438 99.28125 134.777344 97.28125 L 133.835938 96.34375 C 131.839844 94.34375 128.589844 94.34375 126.589844 96.34375 L 121.886719 101.046875 C 120.164062 102.769531 119.894531 105.484375 121.242188 107.507812 C 121.574219 108.003906 121.4375 108.679688 120.9375 109.015625 C 120.4375 109.347656 119.761719 109.210938 119.429688 108.710938 C 117.511719 105.832031 117.894531 101.960938 120.347656 99.507812 L 125.050781 94.804688 C 127.898438 91.957031 132.527344 91.957031 135.375 94.804688 L 136.316406 95.742188 C 139.160156 98.589844 139.160156 103.21875 136.316406 106.066406 " fill-opacity="1" fill-rule="nonzero"/><path fill="currentColor" d="M 126.589844 96.34375 L 121.886719 101.046875 C 121.046875 101.886719 120.011719 102.511719 118.890625 102.859375 C 118.316406 103.035156 117.707031 102.714844 117.53125 102.140625 C 117.351562 101.566406 117.675781 100.957031 118.25 100.777344 C 119.03125 100.539062 119.757812 100.097656 120.347656 99.507812 L 125.050781 94.804688 C 127.050781 92.804688 127.050781 89.554688 125.050781 87.558594 L 124.113281 86.617188 C 122.113281 84.621094 118.863281 84.621094 116.867188 86.617188 L 112.160156 91.324219 C 110.984375 92.5 110.449219 94.1875 110.738281 95.832031 C 110.839844 96.421875 110.445312 96.984375 109.851562 97.089844 C 109.257812 97.191406 108.695312 96.796875 108.59375 96.203125 C 108.183594 93.863281 108.945312 91.460938 110.621094 89.785156 L 115.328125 85.078125 C 118.175781 82.234375 122.804688 82.234375 125.652344 85.078125 L 126.589844 86.019531 C 129.4375 88.867188 129.4375 93.496094 126.589844 96.34375 " fill-opacity="1" fill-rule="nonzero"/><path fill="currentColor" d="M 116.867188 86.617188 L 112.160156 91.324219 C 110.472656 93.011719 108.0625 93.765625 105.707031 93.347656 C 105.117188 93.242188 104.722656 92.675781 104.828125 92.082031 C 104.933594 91.492188 105.5 91.097656 106.089844 91.203125 C 107.746094 91.5 109.4375 90.96875 110.621094 89.785156 L 115.328125 85.078125 C 117.324219 83.082031 117.324219 79.832031 115.328125 77.832031 L 114.386719 76.890625 C 112.390625 74.894531 109.140625 74.894531 107.140625 76.890625 L 102.4375 81.597656 C 101.378906 82.65625 100.835938 84.121094 100.949219 85.621094 C 100.996094 86.21875 100.546875 86.742188 99.949219 86.789062 C 99.347656 86.835938 98.828125 86.386719 98.78125 85.785156 C 98.617188 83.652344 99.390625 81.566406 100.898438 80.058594 L 105.601562 75.351562 C 108.449219 72.507812 113.078125 72.507812 115.925781 75.351562 L 116.867188 76.292969 C 119.710938 79.140625 119.714844 83.773438 116.867188 86.617188 " fill-opacity="1" fill-rule="nonzero"/><path fill="currentColor" d="M 107.140625 76.890625 L 102.4375 81.597656 C 100.519531 83.515625 97.71875 84.210938 95.128906 83.414062 C 94.554688 83.238281 94.230469 82.628906 94.410156 82.054688 C 94.585938 81.480469 95.195312 81.15625 95.769531 81.332031 C 97.585938 81.890625 99.550781 81.402344 100.898438 80.058594 L 105.601562 75.351562 C 107.601562 73.355469 107.601562 70.105469 105.601562 68.109375 L 104.660156 67.167969 C 102.664062 65.171875 99.414062 65.171875 97.417969 67.167969 L 92.710938 71.871094 C 91.859375 72.722656 91.351562 73.804688 91.234375 75 C 91.175781 75.597656 90.644531 76.035156 90.046875 75.980469 C 89.449219 75.921875 89.011719 75.390625 89.070312 74.792969 C 89.230469 73.113281 89.976562 71.527344 91.171875 70.332031 L 95.878906 65.628906 C 98.722656 62.78125 103.355469 62.78125 106.199219 65.628906 L 107.140625 66.570312 C 109.988281 69.414062 109.988281 74.046875 107.140625 76.890625 " fill-opacity="1" fill-rule="nonzero"/><path fill="currentColor" d="M 97.417969 67.167969 L 92.710938 71.871094 C 90.289062 74.296875 86.574219 74.71875 83.675781 72.902344 C 83.167969 72.582031 83.015625 71.910156 83.332031 71.402344 C 83.652344 70.890625 84.324219 70.738281 84.832031 71.058594 C 86.867188 72.332031 89.472656 72.035156 91.171875 70.332031 L 95.878906 65.628906 C 97.875 63.632812 97.875 60.382812 95.878906 58.382812 L 94.9375 57.441406 C 93.199219 55.707031 90.46875 55.445312 88.4375 56.824219 C 88.171875 57.007812 87.917969 57.214844 87.691406 57.441406 L 82.988281 62.148438 C 82.148438 62.988281 81.640625 64.050781 81.515625 65.222656 C 81.453125 65.820312 80.914062 66.253906 80.316406 66.191406 C 79.71875 66.125 79.285156 65.589844 79.351562 64.992188 C 79.527344 63.34375 80.273438 61.785156 81.449219 60.609375 L 86.152344 55.902344 C 86.476562 55.582031 86.832031 55.285156 87.214844 55.027344 C 90.105469 53.058594 94 53.429688 96.476562 55.902344 L 97.417969 56.84375 C 100.261719 59.691406 100.261719 64.320312 97.417969 67.167969 " fill-opacity="1" fill-rule="nonzero"/><path fill="currentColor" d="M 75.222656 65.050781 C 74.800781 65.476562 74.109375 65.476562 73.683594 65.050781 L 73.5625 64.929688 C 73.140625 64.503906 73.140625 63.816406 73.5625 63.390625 C 73.988281 62.964844 74.679688 62.964844 75.101562 63.390625 L 75.222656 63.511719 C 75.648438 63.9375 75.648438 64.625 75.222656 65.050781 " fill-opacity="1" fill-rule="nonzero"/><path fill="currentColor" d="M 88.597656 56.695312 C 88.433594 56.855469 88.21875 56.96875 87.976562 57.003906 C 87.378906 57.085938 86.828125 56.667969 86.75 56.070312 C 86.625 55.148438 86.207031 54.308594 85.542969 53.644531 L 84.730469 52.832031 C 83.066406 51.167969 80.359375 51.167969 78.695312 52.832031 L 74.636719 56.890625 C 74.136719 57.394531 73.765625 58.015625 73.5625 58.695312 C 73.394531 59.269531 72.789062 59.601562 72.210938 59.429688 C 71.636719 59.261719 71.308594 58.65625 71.476562 58.078125 C 71.78125 57.054688 72.339844 56.109375 73.097656 55.351562 L 77.15625 51.292969 C 79.667969 48.78125 83.757812 48.78125 86.269531 51.292969 L 87.082031 52.105469 C 88.082031 53.109375 88.714844 54.378906 88.90625 55.777344 C 88.953125 56.128906 88.828125 56.460938 88.597656 56.695312 " fill-opacity="1" fill-rule="nonzero"/><path fill="currentColor" d="M 73.289062 59.15625 L 73.167969 59.28125 C 73.078125 59.367188 72.988281 59.453125 72.894531 59.535156 C 72.441406 59.933594 71.757812 59.890625 71.359375 59.441406 C 70.960938 58.992188 71 58.300781 71.449219 57.90625 C 71.511719 57.851562 71.570312 57.796875 71.628906 57.742188 L 71.75 57.617188 C 72.175781 57.191406 72.863281 57.191406 73.289062 57.617188 C 73.714844 58.042969 73.714844 58.730469 73.289062 59.15625 " fill-opacity="1" fill-rule="nonzero"/><path fill="currentColor" d="M 78.101562 53.425781 C 77.835938 53.691406 77.4375 53.8125 77.050781 53.707031 C 76.46875 53.550781 76.125 52.957031 76.28125 52.375 C 76.628906 51.074219 76.257812 49.679688 75.308594 48.726562 L 74.570312 47.992188 C 73.136719 46.558594 70.84375 46.511719 69.351562 47.886719 C 69.320312 47.917969 69.277344 47.953125 69.242188 47.992188 L 65.558594 51.671875 C 65.429688 51.800781 65.316406 51.933594 65.210938 52.078125 C 64.851562 52.558594 64.167969 52.65625 63.6875 52.296875 C 63.207031 51.9375 63.105469 51.253906 63.46875 50.773438 C 63.632812 50.550781 63.820312 50.335938 64.019531 50.132812 L 67.703125 46.453125 C 67.757812 46.398438 67.8125 46.347656 67.867188 46.292969 C 70.226562 44.117188 73.84375 44.1875 76.109375 46.453125 L 76.847656 47.191406 C 78.34375 48.6875 78.933594 50.890625 78.382812 52.941406 C 78.332031 53.128906 78.234375 53.296875 78.101562 53.425781 " fill-opacity="1" fill-rule="nonzero"/><path fill="currentColor" d="M 69.382812 47.855469 C 69.195312 48.046875 68.9375 48.164062 68.648438 48.175781 C 68.050781 48.195312 67.546875 47.726562 67.523438 47.125 C 67.503906 46.488281 67.242188 45.886719 66.792969 45.433594 L 66.242188 44.886719 C 65.257812 43.902344 63.660156 43.902344 62.675781 44.886719 L 59.941406 47.621094 C 59.757812 47.804688 59.605469 48.011719 59.492188 48.234375 C 59.214844 48.765625 58.558594 48.972656 58.023438 48.695312 C 57.492188 48.417969 57.28125 47.761719 57.558594 47.230469 C 57.78125 46.808594 58.0625 46.421875 58.402344 46.082031 L 61.136719 43.347656 C 62.96875 41.515625 65.949219 41.515625 67.78125 43.347656 L 68.328125 43.894531 C 69.171875 44.738281 69.660156 45.859375 69.699219 47.050781 C 69.710938 47.363281 69.589844 47.652344 69.382812 47.855469 " fill-opacity="1" fill-rule="nonzero"/><path fill="currentColor" d="M 208.734375 189.15625 C 208.578125 189.3125 208.375 189.421875 208.136719 189.460938 C 207.542969 189.554688 206.988281 189.148438 206.890625 188.554688 C 206.878906 188.472656 206.867188 188.386719 206.859375 188.296875 C 206.816406 187.699219 207.265625 187.175781 207.863281 187.132812 C 208.464844 187.085938 208.984375 187.539062 209.03125 188.136719 C 209.03125 188.164062 209.039062 188.1875 209.039062 188.214844 C 209.097656 188.570312 208.972656 188.917969 208.734375 189.15625 " fill-opacity="1" fill-rule="nonzero"/><path fill="currentColor" d="M 199.585938 157.21875 L 196.480469 160.324219 C 196.054688 160.746094 195.367188 160.746094 194.9375 160.324219 C 194.515625 159.898438 194.515625 159.210938 194.9375 158.785156 L 198.046875 155.679688 C 198.46875 155.253906 199.160156 155.253906 199.585938 155.679688 C 200.007812 156.101562 200.007812 156.792969 199.585938 157.21875 " fill-opacity="1" fill-rule="nonzero"/><path fill="currentColor" d="M 194.445312 146.019531 C 194.25 146.21875 193.976562 146.339844 193.679688 146.339844 C 192.371094 146.34375 191.136719 146.855469 190.210938 147.78125 L 186.675781 151.316406 C 186.253906 151.738281 185.5625 151.738281 185.136719 151.316406 C 184.714844 150.890625 184.714844 150.199219 185.136719 149.777344 L 188.671875 146.242188 C 190.007812 144.90625 191.785156 144.167969 193.671875 144.164062 C 194.273438 144.164062 194.765625 144.648438 194.765625 145.25 C 194.765625 145.550781 194.644531 145.824219 194.445312 146.019531 " fill-opacity="1" fill-rule="nonzero"/><path fill="currentColor" d="M 190.214844 147.78125 L 186.679688 151.316406 C 186.253906 151.738281 185.566406 151.738281 185.140625 151.316406 C 184.714844 150.890625 184.714844 150.199219 185.140625 149.777344 L 188.675781 146.242188 C 190.589844 144.324219 190.589844 141.203125 188.675781 139.289062 L 187.765625 138.375 C 185.847656 136.460938 182.726562 136.460938 180.808594 138.375 L 176.753906 142.433594 C 176.328125 142.859375 175.640625 142.859375 175.214844 142.433594 C 174.789062 142.007812 174.789062 141.320312 175.214844 140.894531 L 179.269531 136.839844 C 182.035156 134.070312 186.539062 134.070312 189.304688 136.839844 L 190.214844 137.75 C 192.980469 140.515625 192.980469 145.015625 190.214844 147.78125 " fill-opacity="1" fill-rule="nonzero"/><path fill="currentColor" d="M 181.671875 137.515625 L 177.121094 142.0625 C 176.980469 142.207031 176.835938 142.339844 176.695312 142.457031 C 176.234375 142.84375 175.546875 142.78125 175.160156 142.320312 C 174.777344 141.859375 174.839844 141.175781 175.296875 140.789062 C 175.390625 140.710938 175.484375 140.621094 175.582031 140.523438 L 180.132812 135.976562 C 182.050781 134.058594 182.050781 130.9375 180.132812 129.019531 L 179.222656 128.109375 C 177.304688 126.191406 174.1875 126.191406 172.269531 128.109375 L 167.71875 132.660156 C 167.296875 133.082031 166.960938 133.570312 166.714844 134.109375 C 166.464844 134.652344 165.820312 134.894531 165.273438 134.648438 C 164.726562 134.398438 164.484375 133.753906 164.734375 133.207031 C 165.085938 132.429688 165.574219 131.726562 166.179688 131.121094 L 170.730469 126.570312 C 173.496094 123.804688 177.996094 123.804688 180.761719 126.570312 L 181.671875 127.480469 C 184.4375 130.246094 184.4375 134.746094 181.671875 137.515625 " fill-opacity="1" fill-rule="nonzero"/><path fill="currentColor" d="M 173.273438 127.105469 L 168.726562 131.652344 C 168.125 132.253906 167.425781 132.738281 166.65625 133.089844 C 166.109375 133.339844 165.464844 133.101562 165.214844 132.554688 C 164.960938 132.007812 165.203125 131.363281 165.75 131.113281 C 166.285156 130.867188 166.769531 130.53125 167.1875 130.113281 L 171.738281 125.566406 C 173.363281 123.9375 173.652344 121.441406 172.4375 119.496094 C 172.238281 119.171875 172.003906 118.878906 171.738281 118.609375 L 170.824219 117.699219 C 170.632812 117.507812 170.421875 117.328125 170.199219 117.171875 C 168.238281 115.769531 165.578125 115.992188 163.871094 117.699219 L 159.320312 122.25 C 158.890625 122.679688 158.546875 123.175781 158.304688 123.726562 C 158.0625 124.273438 157.417969 124.523438 156.871094 124.28125 C 156.320312 124.035156 156.070312 123.394531 156.316406 122.84375 C 156.667969 122.050781 157.160156 121.332031 157.78125 120.710938 L 162.332031 116.160156 C 164.792969 113.699219 168.632812 113.378906 171.464844 115.398438 C 171.78125 115.625 172.085938 115.882812 172.363281 116.160156 L 173.273438 117.070312 C 173.660156 117.457031 174 117.886719 174.285156 118.347656 C 176.035156 121.15625 175.621094 124.757812 173.273438 127.105469 " fill-opacity="1" fill-rule="nonzero"/><path fill="currentColor" d="M 164.015625 117.554688 L 159.464844 122.105469 C 158.667969 122.902344 157.722656 123.484375 156.652344 123.832031 C 156.082031 124.019531 155.46875 123.707031 155.28125 123.132812 C 155.097656 122.5625 155.410156 121.949219 155.980469 121.761719 C 156.71875 121.523438 157.375 121.121094 157.925781 120.566406 L 162.476562 116.015625 C 164.050781 114.445312 164.371094 112.003906 163.257812 110.082031 C 163.042969 109.707031 162.78125 109.367188 162.476562 109.0625 L 161.566406 108.152344 C 161.234375 107.820312 160.859375 107.539062 160.457031 107.320312 C 158.550781 106.269531 156.148438 106.613281 154.613281 108.152344 L 150.0625 112.703125 C 149.710938 113.050781 149.421875 113.449219 149.191406 113.878906 C 148.910156 114.410156 148.253906 114.617188 147.722656 114.335938 C 147.191406 114.054688 146.988281 113.394531 147.265625 112.863281 C 147.597656 112.238281 148.019531 111.667969 148.523438 111.164062 L 153.074219 106.613281 C 155.289062 104.394531 158.757812 103.902344 161.5 105.410156 C 162.082031 105.726562 162.621094 106.132812 163.105469 106.613281 L 164.015625 107.523438 C 164.453125 107.960938 164.832031 108.457031 165.140625 108.988281 C 166.746094 111.765625 166.285156 115.289062 164.015625 117.554688 " fill-opacity="1" fill-rule="nonzero"/><path fill="currentColor" d="M 154.035156 108.726562 L 149.484375 113.277344 C 148.613281 114.148438 147.53125 114.78125 146.355469 115.097656 C 145.773438 115.253906 145.175781 114.914062 145.019531 114.332031 C 144.859375 113.753906 145.203125 113.15625 145.785156 112.996094 C 146.59375 112.777344 147.34375 112.34375 147.945312 111.738281 L 152.496094 107.1875 C 154.414062 105.273438 154.414062 102.152344 152.496094 100.234375 L 151.585938 99.324219 C 149.667969 97.40625 146.550781 97.40625 144.632812 99.324219 L 140.082031 103.875 C 139.957031 104 139.84375 104.125 139.746094 104.25 C 139.371094 104.714844 138.683594 104.792969 138.214844 104.417969 C 137.746094 104.039062 137.671875 103.355469 138.046875 102.886719 C 138.195312 102.703125 138.363281 102.515625 138.542969 102.335938 L 143.09375 97.785156 C 145.859375 95.019531 150.359375 95.019531 153.125 97.785156 L 154.035156 98.695312 C 156.800781 101.460938 156.800781 105.960938 154.035156 108.726562 " fill-opacity="1" fill-rule="nonzero"/><path fill="currentColor" d="M 144.203125 99.753906 L 139.652344 104.304688 C 139.625 104.328125 139.601562 104.355469 139.578125 104.375 C 138.554688 105.375 137.273438 106.03125 135.867188 106.273438 C 135.667969 106.316406 135.453125 106.304688 135.257812 106.230469 C 134.707031 106.03125 134.414062 105.425781 134.597656 104.867188 C 134.738281 104.453125 135.097656 104.179688 135.5 104.128906 C 136.476562 103.957031 137.367188 103.5 138.074219 102.800781 C 138.089844 102.785156 138.101562 102.773438 138.117188 102.761719 L 142.664062 98.214844 C 144.578125 96.300781 144.578125 93.179688 142.660156 91.261719 L 141.753906 90.351562 C 139.835938 88.433594 136.714844 88.433594 134.796875 90.351562 L 130.617188 94.535156 C 130.191406 94.957031 129.5 94.957031 129.078125 94.535156 C 128.652344 94.109375 128.652344 93.417969 129.078125 92.996094 L 133.257812 88.8125 C 136.023438 86.046875 140.523438 86.046875 143.292969 88.8125 L 144.203125 89.722656 C 146.964844 92.488281 146.96875 96.988281 144.203125 99.753906 " fill-opacity="1" fill-rule="nonzero"/><path fill="currentColor" d="M 133.789062 91.359375 L 130.617188 94.535156 C 130.191406 94.957031 129.5 94.957031 129.078125 94.535156 C 128.652344 94.109375 128.652344 93.417969 129.078125 92.996094 L 132.25 89.820312 C 134.167969 87.902344 134.167969 84.78125 132.25 82.863281 L 131.339844 81.953125 C 129.425781 80.035156 126.304688 80.035156 124.386719 81.953125 L 121.539062 84.804688 C 121.113281 85.226562 120.425781 85.226562 120 84.804688 C 119.574219 84.378906 119.574219 83.6875 120 83.265625 L 122.847656 80.414062 C 125.613281 77.648438 130.113281 77.648438 132.878906 80.414062 L 133.789062 81.324219 C 136.554688 84.089844 136.554688 88.59375 133.789062 91.359375 " fill-opacity="1" fill-rule="nonzero"/><path fill="currentColor" d="M 122.949219 83.390625 L 121.539062 84.804688 C 121.113281 85.226562 120.425781 85.226562 120 84.804688 C 119.574219 84.378906 119.574219 83.6875 120 83.265625 L 121.410156 81.851562 C 123.328125 79.9375 123.328125 76.816406 121.410156 74.898438 L 120.5 73.988281 C 118.582031 72.070312 115.460938 72.070312 113.542969 73.988281 L 112.398438 75.132812 C 111.972656 75.558594 111.285156 75.558594 110.859375 75.132812 C 110.433594 74.707031 110.433594 74.019531 110.859375 73.59375 L 112.003906 72.449219 C 114.769531 69.683594 119.269531 69.683594 122.039062 72.449219 L 122.949219 73.359375 C 125.714844 76.125 125.714844 80.625 122.949219 83.390625 " fill-opacity="1" fill-rule="nonzero"/><path fill="currentColor" d="M 112.679688 74.851562 L 112.398438 75.132812 C 111.972656 75.558594 111.285156 75.558594 110.859375 75.132812 C 110.433594 74.707031 110.433594 74.019531 110.859375 73.59375 L 111.140625 73.3125 C 113.058594 71.394531 113.058594 68.273438 111.140625 66.355469 L 110.230469 65.445312 C 109.625 64.839844 108.871094 64.402344 108.046875 64.179688 C 108.019531 64.175781 107.992188 64.167969 107.964844 64.160156 C 106.292969 63.730469 104.5 64.222656 103.277344 65.445312 L 103.214844 65.507812 C 102.789062 65.933594 102.101562 65.933594 101.675781 65.507812 C 101.25 65.082031 101.25 64.394531 101.675781 63.96875 L 101.738281 63.90625 C 103.515625 62.128906 106.132812 61.421875 108.5625 62.066406 C 108.566406 62.066406 108.574219 62.070312 108.582031 62.070312 C 109.785156 62.390625 110.886719 63.023438 111.769531 63.90625 L 112.679688 64.816406 C 115.445312 67.582031 115.445312 72.085938 112.679688 74.851562 " fill-opacity="1" fill-rule="nonzero"/><path fill="currentColor" d="M 102.769531 65.421875 C 102.457031 65.734375 101.972656 65.839844 101.546875 65.644531 C 101 65.394531 100.757812 64.75 101.007812 64.203125 C 101.703125 62.6875 101.570312 60.878906 100.664062 59.484375 C 100.480469 59.195312 100.261719 58.925781 100.011719 58.679688 L 99.101562 57.769531 C 98.132812 56.800781 96.792969 56.277344 95.425781 56.332031 C 95.042969 56.347656 94.664062 56.40625 94.292969 56.511719 C 93.714844 56.671875 93.113281 56.335938 92.949219 55.757812 C 92.789062 55.179688 93.125 54.578125 93.703125 54.414062 C 94.238281 54.265625 94.789062 54.179688 95.339844 54.160156 C 97.308594 54.078125 99.242188 54.832031 100.640625 56.230469 L 101.550781 57.140625 C 101.910156 57.496094 102.226562 57.886719 102.492188 58.300781 C 103.796875 60.3125 103.988281 62.921875 102.988281 65.105469 C 102.933594 65.226562 102.855469 65.335938 102.769531 65.421875 " fill-opacity="1" fill-rule="nonzero"/><path fill="currentColor" d="M 91.609375 73.371094 C 91.363281 73.613281 91.007812 73.738281 90.640625 73.671875 C 90.339844 73.613281 90.027344 73.535156 89.710938 73.425781 C 89.140625 73.234375 88.835938 72.617188 89.027344 72.046875 C 89.21875 71.476562 89.835938 71.171875 90.40625 71.363281 C 90.625 71.4375 90.835938 71.492188 91.035156 71.53125 C 91.628906 71.640625 92.019531 72.207031 91.910156 72.796875 C 91.867188 73.023438 91.757812 73.21875 91.609375 73.371094 " fill-opacity="1" fill-rule="nonzero"/><path fill="currentColor" d="M 58.21875 70.265625 L 54.59375 73.886719 C 52.308594 76.175781 48.582031 76.175781 46.296875 73.886719 L 45.570312 73.164062 C 43.285156 70.875 43.285156 67.152344 45.570312 64.863281 L 49.195312 61.238281 C 49.976562 60.457031 50.957031 59.914062 52.03125 59.667969 C 52.394531 59.585938 52.777344 59.695312 53.042969 59.960938 C 53.464844 60.386719 53.464844 61.074219 53.042969 61.5 C 52.878906 61.664062 52.679688 61.765625 52.46875 61.800781 C 51.816406 61.960938 51.214844 62.296875 50.734375 62.777344 L 47.109375 66.402344 C 45.671875 67.839844 45.671875 70.183594 47.109375 71.625 L 47.835938 72.347656 C 49.273438 73.789062 51.617188 73.789062 53.054688 72.347656 L 56.679688 68.726562 C 56.878906 68.523438 57.058594 68.304688 57.203125 68.066406 C 57.519531 67.554688 58.191406 67.398438 58.703125 67.714844 C 59.210938 68.03125 59.371094 68.703125 59.050781 69.214844 C 58.816406 69.59375 58.535156 69.945312 58.21875 70.265625 " fill-opacity="1" fill-rule="nonzero"/><path fill="currentColor" d="M 59.203125 64.9375 C 59.109375 65.03125 58.996094 65.109375 58.867188 65.164062 C 58.316406 65.402344 57.675781 65.152344 57.4375 64.601562 C 57.402344 64.523438 57.363281 64.445312 57.316406 64.359375 C 57.027344 63.832031 57.222656 63.171875 57.75 62.882812 C 58.277344 62.59375 58.9375 62.789062 59.226562 63.316406 C 59.304688 63.460938 59.371094 63.59375 59.433594 63.730469 C 59.613281 64.152344 59.511719 64.628906 59.203125 64.9375 " fill-opacity="1" fill-rule="nonzero"/><path fill="currentColor" d="M 47.511719 65.996094 C 47.289062 66.222656 46.96875 66.347656 46.625 66.3125 C 45.453125 66.183594 44.347656 65.652344 43.511719 64.816406 L 42.886719 64.191406 C 40.855469 62.160156 40.855469 58.851562 42.886719 56.820312 L 46.011719 53.695312 C 46.292969 53.414062 46.601562 53.167969 46.929688 52.964844 C 47.441406 52.648438 48.113281 52.804688 48.429688 53.316406 C 48.746094 53.828125 48.585938 54.5 48.074219 54.816406 C 47.890625 54.929688 47.714844 55.070312 47.550781 55.234375 L 44.425781 58.359375 C 43.242188 59.542969 43.242188 61.46875 44.425781 62.652344 L 45.050781 63.277344 C 45.542969 63.773438 46.171875 64.074219 46.859375 64.148438 C 47.457031 64.210938 47.890625 64.75 47.824219 65.347656 C 47.796875 65.601562 47.683594 65.828125 47.511719 65.996094 " fill-opacity="1" fill-rule="nonzero"/><path fill="currentColor" d="M 122.777344 129.605469 C 122.359375 130.023438 121.679688 130.03125 121.253906 129.617188 C 121.1875 129.554688 121.117188 129.492188 121.050781 129.433594 C 120.601562 129.035156 120.5625 128.34375 120.960938 127.894531 C 121.363281 127.445312 122.046875 127.40625 122.496094 127.804688 C 122.585938 127.886719 122.675781 127.96875 122.761719 128.050781 C 123.195312 128.46875 123.207031 129.15625 122.789062 129.589844 C 122.785156 129.59375 122.78125 129.597656 122.777344 129.605469 " fill-opacity="1" fill-rule="nonzero"/><path fill="currentColor" d="M 110.644531 118.277344 C 110.351562 118.570312 109.902344 118.683594 109.492188 118.527344 C 109.308594 118.460938 109.113281 118.398438 108.914062 118.351562 C 108.328125 118.207031 107.972656 117.621094 108.113281 117.035156 C 108.257812 116.453125 108.847656 116.09375 109.429688 116.238281 C 109.710938 116.304688 109.988281 116.390625 110.257812 116.492188 C 110.820312 116.703125 111.101562 117.328125 110.890625 117.890625 C 110.835938 118.042969 110.75 118.171875 110.644531 118.277344 " fill-opacity="1" fill-rule="nonzero"/><path fill="currentColor" d="M 98.128906 107.953125 C 97.941406 108.144531 97.679688 108.261719 97.394531 108.269531 C 96.117188 108.34375 94.914062 108.890625 94.003906 109.800781 C 93.578125 110.226562 92.890625 110.226562 92.464844 109.800781 C 92.039062 109.375 92.039062 108.6875 92.464844 108.261719 C 93.761719 106.964844 95.476562 106.195312 97.296875 106.097656 C 97.328125 106.097656 97.355469 106.09375 97.382812 106.097656 C 97.984375 106.109375 98.460938 106.609375 98.445312 107.210938 C 98.4375 107.5 98.320312 107.761719 98.128906 107.953125 " fill-opacity="1" fill-rule="nonzero"/><path fill="currentColor" d="M 87.351562 98.117188 C 87.203125 98.265625 87.007812 98.375 86.785156 98.417969 C 85.753906 98.613281 84.8125 99.113281 84.0625 99.863281 L 82.789062 101.136719 C 82.363281 101.5625 81.675781 101.5625 81.25 101.136719 C 80.824219 100.710938 80.824219 100.023438 81.25 99.597656 L 82.523438 98.324219 C 83.582031 97.265625 84.914062 96.558594 86.378906 96.277344 C 86.964844 96.164062 87.539062 96.550781 87.648438 97.140625 C 87.722656 97.511719 87.597656 97.871094 87.351562 98.117188 " fill-opacity="1" fill-rule="nonzero"/><path fill="currentColor" d="M 94.003906 109.800781 C 93.578125 110.226562 92.890625 110.226562 92.464844 109.800781 C 92.039062 109.375 92.039062 108.6875 92.464844 108.261719 C 93.394531 107.332031 93.9375 106.101562 93.996094 104.792969 C 94.023438 104.191406 94.53125 103.726562 95.132812 103.753906 C 95.734375 103.78125 96.199219 104.289062 96.167969 104.890625 C 96.085938 106.742188 95.316406 108.484375 94.003906 109.800781 " fill-opacity="1" fill-rule="nonzero"/><path fill="currentColor" d="M 84.0625 99.863281 L 82.632812 101.292969 C 82.210938 101.714844 81.519531 101.714844 81.09375 101.292969 C 80.671875 100.867188 80.671875 100.175781 81.09375 99.753906 L 82.523438 98.324219 C 83.605469 97.246094 84.160156 95.75 84.050781 94.230469 C 84.007812 93.628906 84.460938 93.109375 85.058594 93.066406 C 85.660156 93.023438 86.179688 93.472656 86.222656 94.074219 C 86.375 96.226562 85.589844 98.335938 84.0625 99.863281 " fill-opacity="1" fill-rule="nonzero"/><path fill="currentColor" d="M 76.289062 88.242188 L 72.234375 92.292969 C 71.808594 92.71875 71.121094 92.71875 70.695312 92.292969 C 70.269531 91.871094 70.269531 91.179688 70.695312 90.753906 L 74.75 86.703125 C 75.171875 86.277344 75.863281 86.277344 76.289062 86.703125 C 76.710938 87.128906 76.710938 87.816406 76.289062 88.242188 " fill-opacity="1" fill-rule="nonzero"/><path fill="currentColor" d="M 78.085938 82.515625 C 77.949219 82.652344 77.773438 82.757812 77.570312 82.804688 C 76.984375 82.945312 76.398438 82.585938 76.257812 82 C 76.238281 81.910156 76.210938 81.808594 76.171875 81.691406 C 75.984375 81.121094 76.296875 80.507812 76.867188 80.320312 C 77.4375 80.132812 78.054688 80.445312 78.238281 81.019531 C 78.296875 81.191406 78.339844 81.34375 78.375 81.492188 C 78.46875 81.875 78.34375 82.257812 78.085938 82.515625 " fill-opacity="1" fill-rule="nonzero"/><path fill="currentColor" d="M 66.191406 78.726562 L 64.210938 80.710938 C 61.730469 83.1875 57.699219 83.1875 55.222656 80.710938 L 54.421875 79.910156 C 51.945312 77.433594 51.945312 73.402344 54.425781 70.925781 L 57.386719 67.960938 C 57.8125 67.535156 58.503906 67.535156 58.925781 67.960938 C 59.351562 68.386719 59.351562 69.074219 58.925781 69.5 L 55.964844 72.464844 C 54.335938 74.09375 54.332031 76.746094 55.960938 78.371094 L 56.761719 79.171875 C 58.390625 80.800781 61.039062 80.800781 62.671875 79.171875 L 64.652344 77.1875 C 65.078125 76.761719 65.769531 76.761719 66.191406 77.1875 C 66.617188 77.613281 66.617188 78.300781 66.191406 78.726562 " fill-opacity="1" fill-rule="nonzero"/><path fill="currentColor" d="M 76.324219 86.027344 L 73.179688 89.171875 C 71.070312 91.28125 67.785156 91.734375 65.191406 90.28125 C 65.183594 90.277344 65.179688 90.273438 65.171875 90.269531 C 64.785156 90.054688 64.417969 89.796875 64.082031 89.503906 C 64.078125 89.5 64.074219 89.496094 64.066406 89.492188 C 63.957031 89.394531 63.84375 89.292969 63.726562 89.171875 L 62.878906 88.324219 C 60.511719 85.960938 60.265625 82.175781 62.304688 79.527344 C 62.308594 79.523438 62.3125 79.519531 62.316406 79.515625 C 62.484375 79.296875 62.671875 79.078125 62.878906 78.875 L 64.632812 77.121094 C 65.054688 76.699219 65.746094 76.699219 66.167969 77.121094 C 66.59375 77.546875 66.59375 78.238281 66.167969 78.660156 L 64.417969 80.414062 C 64.277344 80.554688 64.148438 80.703125 64.035156 80.847656 C 64.03125 80.855469 64.023438 80.867188 64.019531 80.871094 C 62.65625 82.65625 62.828125 85.195312 64.417969 86.785156 L 65.265625 87.636719 C 65.347656 87.714844 65.421875 87.785156 65.496094 87.847656 C 65.507812 87.859375 65.515625 87.863281 65.527344 87.875 C 65.75 88.066406 65.988281 88.234375 66.242188 88.375 C 66.25 88.378906 66.261719 88.386719 66.269531 88.390625 C 68.015625 89.359375 70.222656 89.050781 71.640625 87.632812 L 74.785156 84.488281 C 75.210938 84.0625 75.898438 84.0625 76.324219 84.488281 C 76.75 84.914062 76.75 85.601562 76.324219 86.027344 " fill-opacity="1" fill-rule="nonzero"/></svg>