<svg xmlns="http://www.w3.org/2000/svg" xmlns:xlink="http://www.w3.org/1999/xlink" width="400" zoomAndPan="magnify" viewBox="0 0 300 299.999988" height="400" preserveAspectRatio="xMidYMid meet" version="1.0"><defs><clipPath id="5a410ea6f8"><path d="M 31 56.699219 L 268 56.699219 L 268 243 L 31 243 Z M 31 56.699219 " clip-rule="nonzero"/></clipPath></defs><g clip-path="url(#5a410ea6f8)"><path fill="currentColor" d="M 147.921875 242.648438 C 143.621094 242.4375 139.785156 242.410156 135.75 240.878906 C 120.628906 235.144531 119.148438 242.957031 106.253906 242.746094 C 102.652344 242.6875 99.320312 243.277344 95.730469 242.582031 C 84.789062 240.460938 75.929688 234.546875 66.679688 228.425781 C 61.097656 224.546875 51.464844 225.128906 38.617188 217.339844 C 34.523438 214.859375 30.019531 210.441406 32.84375 205.359375 C 36.789062 198.246094 34 202.027344 39.207031 194.734375 C 44.105469 187.878906 50.214844 184.257812 53.527344 180.578125 C 55.117188 178.8125 65.5625 168.359375 66.347656 165.265625 C 67.488281 160.761719 71.671875 158.054688 73.671875 154.058594 C 74.238281 152.929688 80.035156 142.5625 79.203125 141.386719 C 78.429688 140.300781 91.144531 118.121094 95.378906 113.8125 C 101.808594 107.265625 101.339844 102.640625 104.847656 98.09375 C 108.84375 92.914062 112.667969 86.046875 118.847656 83.074219 C 122.328125 81.40625 123.015625 78.871094 126.835938 81.679688 C 131.097656 84.808594 129.457031 95.28125 138.210938 106.226562 C 139.207031 107.46875 153.140625 125.523438 153.652344 124.316406 C 155.890625 119.066406 164.738281 111.347656 166.886719 107.617188 C 171.730469 99.210938 171.097656 96.621094 174.144531 90.867188 C 177.222656 85.054688 176.929688 82.460938 182.507812 74.632812 C 184.707031 71.542969 187.550781 68.996094 189.898438 66.019531 C 192.5625 62.636719 196.472656 56.820312 201.476562 56.945312 C 205.75 57.050781 204.257812 56.6875 207.046875 58.996094 C 215.5625 66.050781 218.875 95.675781 227.359375 109.863281 C 236.949219 125.933594 246.871094 139.394531 248.109375 158.664062 C 248.128906 158.960938 253.546875 167.441406 253.746094 176.394531 C 253.785156 178.140625 259.492188 183.84375 261.140625 186.652344 C 264.945312 193.132812 265.519531 194.234375 267.710938 201.054688 C 270.019531 208.246094 248.496094 217.652344 240.242188 214.640625 C 237.46875 213.628906 234.851562 214.277344 230.464844 212.066406 C 220.699219 207.148438 216.863281 204.171875 205.953125 202.183594 C 201.632812 201.394531 202.566406 205.460938 204.886719 207.289062 C 206.398438 208.480469 214.207031 218.460938 213.734375 220.847656 C 212.414062 227.550781 194.015625 236.046875 187.074219 237.21875 C 182.324219 238.023438 177.308594 237.726562 172.6875 239.292969 C 167.800781 240.496094 153.707031 242.429688 147.921875 242.648438 Z M 84.914062 235.125 C 85.742188 237.289062 100.535156 241.6875 109.605469 238.957031 C 112 238.238281 114.539062 238.265625 116.925781 237.453125 C 134.878906 231.355469 131.328125 242.636719 160.628906 238.351562 C 166.71875 237.242188 184.25 234.746094 188.109375 233.484375 C 191.496094 232.378906 209.328125 225.101562 209.621094 220.5625 C 209.722656 218.953125 206.847656 213.652344 205.398438 212.714844 C 204.523438 212.148438 200.148438 208.75 200.257812 208.027344 C 201.15625 202.144531 197.152344 193.890625 193.300781 190.101562 C 180.101562 177.121094 184.390625 177.601562 176.285156 163.730469 C 173.59375 159.121094 171.976562 153.699219 168.515625 149.570312 C 166.65625 147.355469 165.3125 144.738281 163.410156 142.542969 C 159.609375 138.152344 156.429688 133.28125 152.328125 129.15625 C 141.144531 117.917969 130.320312 103.546875 126.796875 88.371094 C 124.984375 80.558594 120.515625 84.902344 116.394531 88.300781 C 106.792969 96.214844 105.242188 106.871094 101.429688 111.121094 C 84.589844 129.902344 83.273438 145.652344 74.003906 158.1875 C 71.066406 162.160156 69.273438 167.191406 66.382812 170.5625 C 60.257812 177.691406 59.507812 178.496094 52.761719 184.503906 C 47.742188 188.976562 30.570312 204.539062 36.347656 211.492188 C 41.203125 217.332031 45.316406 217.421875 48.617188 219.238281 C 56.5625 223.601562 62.367188 220.925781 74.445312 229.605469 C 79.667969 233.355469 77.699219 231.222656 81.152344 232.601562 C 82.636719 233.195312 89.667969 233.03125 91.472656 232.417969 C 100.890625 229.222656 95.777344 222.132812 104.210938 221.957031 C 109.167969 221.855469 109.535156 220.140625 109.480469 215.644531 C 109.460938 213.96875 104.46875 208.714844 102.929688 205.511719 C 98.035156 195.324219 103.144531 195.746094 102.761719 182.164062 C 102.058594 157.398438 111.199219 149.863281 111.0625 140.453125 C 111.015625 137.074219 112.109375 130.945312 114.113281 128.28125 C 119.082031 121.671875 116.507812 100.550781 117.203125 93.863281 C 117.472656 91.25 121.882812 86.734375 123.03125 89.414062 C 126.132812 96.648438 122.953125 104.023438 122.789062 100.953125 C 122.789062 100.949219 123.015625 89.210938 121.140625 90.964844 C 115.949219 95.8125 120.144531 107.386719 118.679688 116.121094 C 118.011719 120.125 117.914062 124.359375 116.179688 128.101562 C 111.945312 137.230469 114.257812 138.25 110.53125 149.421875 C 107.929688 157.230469 104.996094 165.046875 105.109375 173.40625 C 105.144531 175.96875 104.476562 178.667969 104.976562 181.8125 C 106.574219 191.914062 101.820312 197.410156 103.429688 201.1875 C 108.675781 213.472656 111.195312 208.894531 111.976562 218.253906 C 112.210938 221.054688 107.28125 223.730469 105.105469 223.855469 C 97.8125 224.277344 102.589844 229.296875 92.132812 233.441406 C 89.773438 234.375 87.773438 234.734375 84.914062 235.125 Z M 242.441406 211.523438 C 250.390625 211.457031 253.324219 210.59375 260.097656 206.894531 C 261.070312 206.359375 264.234375 204.4375 264.386719 203.253906 C 265.222656 196.675781 254.726562 183.253906 250.234375 178.898438 C 248.214844 176.9375 250.410156 166.6875 245.480469 162.601562 C 244.695312 161.953125 244.539062 153.359375 242.855469 147.378906 C 238.074219 130.398438 227.992188 120.007812 220.710938 102.140625 C 216.257812 91.214844 212.425781 72.960938 206.925781 62.851562 C 205.175781 59.632812 199.425781 59.769531 197.089844 62.15625 C 189.960938 69.457031 183.660156 76.476562 179.523438 85.851562 C 172.71875 101.292969 174.015625 106.25 162.039062 118.777344 C 150.769531 131.492188 156.636719 125.496094 166.199219 140.335938 C 172.925781 150.769531 181.941406 166.597656 186.894531 177.4375 C 189.136719 182.347656 197.273438 189.015625 199.125 192.179688 C 204.957031 202.132812 201.714844 193.082031 224.640625 205.921875 C 230.597656 209.257812 235.667969 211.523438 242.441406 211.523438 Z M 137.210938 219.496094 C 132.15625 219.496094 129.613281 218.644531 124.640625 218 C 124.003906 217.917969 120.90625 218.40625 120.667969 217.703125 C 120 215.746094 128.699219 217.003906 129.539062 217.234375 C 133.140625 218.222656 144.300781 218.867188 148 216.734375 C 149.078125 216.113281 150.464844 216.449219 151.625 215.96875 C 155.644531 214.304688 162.28125 212.722656 166.492188 213.042969 C 168.929688 213.230469 179.210938 209.402344 185.019531 209.300781 C 186.417969 209.277344 190.785156 208.488281 191 209.648438 C 191.238281 210.945312 188.042969 210.675781 187.371094 210.691406 C 181.386719 210.816406 176.910156 212.492188 171.25 214.109375 C 166.722656 215.398438 169.007812 215.03125 163.949219 215.523438 C 153.855469 216.507812 153.625 218.222656 142.679688 219.25 C 140.859375 219.421875 139.039062 219.574219 137.210938 219.496094 Z M 98.453125 166.515625 C 98.179688 163.035156 100.355469 158.953125 101.839844 155.828125 C 102.195312 155.078125 103.988281 154.894531 102.621094 157.570312 C 98.792969 165.054688 100.238281 167.898438 99.449219 169.253906 C 99.019531 169.992188 98.460938 168.730469 98.457031 168.382812 C 98.449219 167.761719 98.453125 167.136719 98.453125 166.515625 Z M 169.6875 170.765625 C 169.5625 172.476562 167.796875 172.0625 167.25 169.992188 C 166.960938 168.914062 165.917969 167.328125 165.886719 166.414062 C 165.832031 164.75 167.757812 164.988281 168.882812 168.082031 Z M 183 197.382812 C 183.964844 194.015625 186.375 202.269531 186.402344 202.382812 C 186.792969 203.964844 184.683594 204.21875 184.328125 202.832031 Z M 200.171875 223.59375 C 200.195312 225.167969 198.308594 224.753906 198.121094 223.542969 C 197.878906 221.984375 195.527344 218.707031 196.527344 218.039062 C 198.164062 216.945312 200.023438 222.710938 200.171875 223.59375 Z M 158.890625 232.382812 C 159.234375 235.191406 156.476562 235.566406 156.570312 232.511719 C 156.59375 231.710938 155.742188 228.863281 156.953125 228.574219 C 158.597656 228.183594 158.945312 231.4375 158.890625 232.382812 Z M 171.855469 167.347656 C 170.613281 167.332031 169.3125 163.425781 169.414062 162.8125 C 169.753906 160.730469 172.277344 162.632812 173.074219 165.96875 C 173.253906 166.714844 172.601562 167.371094 171.855469 167.347656 Z M 167.367188 177.210938 C 168.320312 177.242188 169.847656 181.234375 170.238281 181.964844 C 171.1875 183.722656 168.960938 185.9375 166.808594 178.9375 C 166.648438 178.414062 166.488281 177.1875 167.367188 177.210938 Z M 165.371094 228.503906 C 165.324219 226.890625 167.582031 226.121094 168.203125 231.253906 C 168.308594 232.132812 166.304688 235.757812 165.371094 228.503906 Z M 49.453125 193.34375 C 49.378906 192.417969 51.535156 189.496094 53.714844 190.5625 C 55.128906 191.25 51.519531 193.988281 50.792969 194.292969 C 50.0625 194.597656 49.445312 194.167969 49.453125 193.34375 Z M 192.210938 227.097656 C 192.167969 228.84375 190.015625 228.558594 189.820312 227.085938 C 189.691406 226.105469 188.507812 225.234375 189.394531 224.316406 C 190.652344 223.011719 192.070312 225.0625 192.210938 227.097656 Z M 153.605469 176.757812 C 153.605469 179.75 151.8125 178.8125 151.53125 178.21875 C 150.945312 176.984375 151.378906 172.441406 153.097656 174.464844 C 153.648438 175.113281 153.585938 175.957031 153.632812 176.757812 C 153.621094 176.757812 153.613281 176.757812 153.605469 176.757812 Z M 175.796875 172.75 C 177.148438 173.042969 179.484375 176.042969 177.71875 176.949219 C 176.417969 177.621094 174.785156 174.484375 174.988281 173.421875 C 175.050781 173.105469 175.417969 172.777344 175.796875 172.75 Z M 146.566406 137.996094 C 146.4375 134.917969 151.894531 139.9375 149.5625 141.207031 C 148.417969 141.828125 146.804688 138.871094 146.566406 137.996094 Z M 69.8125 171.667969 C 70.988281 165.871094 73.191406 168.238281 72.738281 169.351562 C 72.289062 170.453125 71.929688 172.191406 70.542969 172.441406 C 70.074219 172.527344 69.769531 172.269531 69.8125 171.667969 Z M 167.820312 157.144531 C 167.800781 158.199219 166.445312 158.695312 165.90625 157.828125 C 165.613281 157.351562 163.273438 154.210938 165.152344 154.132812 C 166.234375 154.089844 167.867188 156.105469 167.820312 157.144531 Z M 174.464844 205.394531 C 174.433594 203.1875 176.910156 203.523438 177.304688 206.363281 C 177.5625 208.246094 174.261719 208.316406 174.464844 205.394531 Z M 181.78125 226.492188 C 183.261719 226.492188 184.25 229.507812 182.65625 230.144531 C 180.753906 230.90625 179.53125 226.621094 181.78125 226.492188 Z M 154.363281 232.316406 C 154.363281 234.503906 152.175781 234.375 152.054688 233.078125 C 151.679688 228.992188 153.71875 229.789062 154.148438 230.761719 C 154.367188 231.257812 154.382812 231.785156 154.363281 232.316406 Z M 134.691406 114.359375 C 133.210938 114.398438 132.007812 111.507812 133.695312 110.90625 C 135.367188 110.3125 137.070312 114.304688 134.691406 114.359375 Z M 178.652344 195.355469 C 180.023438 195.347656 181.199219 198.09375 179.90625 198.878906 C 177.871094 200.113281 176.695312 195.484375 178.652344 195.355469 Z M 166.222656 172.75 C 166.273438 175.019531 163.675781 174.425781 163.320312 171.828125 C 163.089844 170.136719 165.9375 170.1875 166.222656 172.75 Z M 166.777344 208.992188 C 166.789062 210.683594 164.421875 210.945312 164.09375 207.957031 C 163.886719 206.039062 166.761719 206.144531 166.777344 208.992188 Z M 90.394531 215.445312 C 90.007812 218.742188 88.144531 217.203125 88.015625 216.496094 C 87.457031 213.378906 90.558594 212.5 90.394531 215.445312 Z M 182.585938 205.53125 C 182.421875 207.605469 180.480469 207.148438 180.457031 205.960938 C 180.449219 205.5625 179.40625 202.089844 181.144531 203.007812 C 181.871094 203.390625 182.671875 204.746094 182.585938 205.53125 Z M 153.929688 152.671875 C 153.921875 154.421875 151.683594 154.027344 151.070312 151.257812 C 150.667969 149.449219 153.945312 149.816406 153.929688 152.671875 Z M 203.679688 216.722656 C 203.746094 215.410156 206.183594 215.988281 206.875 217.890625 C 207.242188 218.894531 205.957031 219.816406 205.195312 219.089844 C 204.433594 218.367188 203.621094 217.925781 203.679688 216.722656 Z M 87.40625 140.277344 C 87.226562 144.535156 82.761719 143 86.050781 139.339844 C 86.859375 138.4375 87.308594 139.679688 87.40625 140.277344 Z M 156.789062 174.367188 C 157.105469 170.285156 160.8125 175.941406 158.332031 176.628906 C 156.964844 177.007812 156.875 175.242188 156.789062 174.367188 Z M 126.839844 100.371094 C 126.878906 97.703125 129.160156 99.1875 129.539062 101.128906 C 129.917969 103.074219 127.144531 102.878906 126.839844 100.371094 Z M 110.246094 233.5 C 110.074219 236.375 107.03125 235.195312 108.222656 232.214844 C 108.523438 231.449219 110.054688 230.925781 110.246094 233.5 Z M 191.699219 202.980469 C 191.648438 204.894531 189.097656 204.371094 189.152344 201.808594 C 189.191406 200 191.722656 200.292969 191.699219 202.980469 Z M 145.804688 233.046875 C 146.554688 230.207031 149.4375 232.066406 148.050781 234.28125 C 147.34375 235.402344 145.804688 234.78125 145.804688 233.046875 Z M 153.328125 161.113281 C 153.382812 159.105469 155.859375 159.902344 156.21875 161.476562 C 156.667969 163.449219 153.269531 163.410156 153.328125 161.113281 Z M 177.484375 185.066406 C 181.34375 186.566406 176.945312 190.242188 176.140625 186.503906 C 175.992188 185.808594 176.589844 185.160156 177.484375 185.066406 Z M 93.089844 199.683594 C 93.058594 197.347656 95.34375 197.800781 95.652344 200.269531 C 95.859375 201.941406 93 201.820312 93.089844 199.683594 Z M 115.511719 135.96875 C 115.730469 133.179688 118.3125 133.714844 117.714844 136.789062 C 117.503906 137.871094 115.710938 138.226562 115.511719 135.96875 Z M 174.382812 179.363281 C 176.859375 180.183594 175.582031 183.453125 173.902344 182.183594 C 172.929688 181.445312 172.652344 179.375 174.382812 179.363281 Z M 146.480469 128.339844 C 147.488281 128.332031 148.523438 129.984375 148.261719 130.902344 C 147.472656 133.652344 143.789062 128.464844 146.480469 128.339844 Z M 190.074219 197.1875 C 189.957031 198.941406 187.878906 198.257812 187.402344 196.089844 C 186.964844 194.085938 190.160156 194.996094 190.074219 197.1875 Z M 77.273438 224.613281 C 79.648438 224.738281 77.742188 229.019531 76.246094 227.519531 C 75.296875 226.570312 76.019531 224.785156 77.273438 224.613281 Z M 81.488281 230.460938 C 79.503906 230.332031 80.8125 228.074219 82.253906 227.609375 C 82.914062 227.394531 83.699219 228.160156 83.574219 228.863281 C 83.449219 229.570312 82.222656 230.507812 81.488281 230.460938 Z M 96.84375 215.882812 C 96.613281 216.640625 96.496094 218.117188 95.253906 217.964844 C 93.617188 217.761719 94.417969 215.316406 95.484375 214.796875 C 96.179688 214.460938 96.863281 214.894531 96.84375 215.882812 Z M 57.746094 216.980469 C 57.746094 216.980469 57.839844 218.179688 56.65625 218.363281 C 54.46875 218.710938 55.53125 213.75 57.261719 215.324219 C 57.703125 215.726562 57.746094 216.253906 57.746094 216.980469 Z M 65.992188 221.496094 C 66.042969 218.863281 69.71875 218.824219 68.027344 222.210938 C 67.492188 223.285156 65.976562 222.808594 65.992188 221.496094 Z M 169.398438 207.460938 C 169.378906 205.972656 171.460938 205.910156 171.949219 207.738281 C 172.457031 209.617188 169.453125 210.082031 169.398438 207.460938 Z M 165.136719 160.628906 C 165.09375 162.46875 163.03125 162.078125 162.546875 159.703125 C 162.203125 158.003906 164.941406 158.277344 165.136719 160.628906 Z M 105.070312 216.367188 C 105.257812 213.054688 108.25 214.921875 106.988281 217.457031 C 106.316406 218.800781 105.121094 217.617188 105.070312 216.367188 Z M 141.773438 149.902344 C 141.496094 152.59375 137.433594 148.996094 139.828125 147.9375 C 140.890625 147.46875 141.707031 149.035156 141.773438 149.902344 Z M 175.769531 229.585938 C 175.726562 227.695312 178.273438 228.707031 178.289062 230.519531 C 178.300781 232.226562 175.84375 232.105469 175.769531 229.585938 Z M 161.804688 178.941406 C 162.113281 176.355469 164.308594 178.371094 164.070312 180.3125 C 163.949219 181.273438 162.140625 181.9375 161.804688 178.941406 Z M 110.445312 201.945312 C 110.628906 199.359375 113.339844 200.480469 112.453125 203.273438 C 112.1875 204.113281 110.445312 204.066406 110.445312 201.945312 Z M 161.578125 232.660156 C 161.5 229.882812 165.707031 232.285156 163.476562 234.175781 C 162.480469 235.019531 161.597656 233.527344 161.578125 232.660156 Z M 162.46875 225.945312 C 162.601562 229.359375 158.484375 226.097656 160.597656 224.59375 C 161.5625 223.910156 162.421875 225.128906 162.46875 225.945312 Z M 44.285156 209.289062 C 47.617188 209.195312 43.65625 214.082031 43.003906 211.574219 C 42.734375 210.535156 43.371094 209.636719 44.285156 209.289062 Z M 157.574219 179.621094 C 158.917969 179.609375 159.496094 182.332031 158.042969 182.703125 C 156.542969 183.085938 155.804688 179.621094 157.574219 179.621094 Z M 163.097656 166.007812 C 163.023438 167.503906 161.210938 167.355469 160.65625 164.671875 C 160.347656 163.175781 162.492188 163.09375 163.097656 166.007812 Z M 154.394531 145.164062 C 154.109375 147.8125 150.222656 144.492188 152.277344 143.308594 C 153.375 142.679688 154.292969 144.292969 154.394531 145.164062 Z M 138.617188 232.339844 C 139.132812 228.621094 142.167969 231.941406 140.230469 233.636719 C 139.140625 234.585938 138.660156 233.269531 138.617188 232.339844 Z M 137.167969 174.410156 C 137.109375 176.179688 134.6875 176.269531 134.558594 174.597656 C 134.417969 172.6875 137.136719 172.527344 137.167969 174.410156 Z M 194.703125 205.351562 C 194.824219 203.332031 196.75 203.808594 197.15625 205.558594 C 197.425781 206.71875 195.261719 208.050781 194.703125 205.351562 Z M 111.503906 163.445312 C 111.625 160.351562 115.488281 162.273438 113.289062 164.34375 C 112.425781 165.152344 111.574219 164.398438 111.503906 163.445312 Z M 192.976562 218.917969 C 194.160156 218.882812 195.394531 220.972656 194.164062 221.710938 C 192.625 222.632812 191.023438 218.945312 192.976562 218.917969 Z M 141.75 131.109375 C 142.320312 128.648438 145.507812 132.277344 143.65625 133.203125 C 142.441406 133.8125 141.742188 132.070312 141.75 131.109375 Z M 77.320312 211.9375 C 77.546875 210.121094 79.5625 209.527344 79.753906 210.738281 C 80.003906 212.339844 77.429688 214.277344 77.320312 211.9375 Z M 92.042969 193.101562 C 92.015625 195.394531 88.476562 194.21875 90.070312 191.917969 C 90.894531 190.722656 92.054688 192.054688 92.042969 193.101562 Z M 152.53125 210.570312 C 152.582031 208.34375 155.59375 209.582031 155.117188 211 C 154.539062 212.722656 152.886719 212.019531 152.53125 210.570312 Z M 195.445312 223.023438 C 196.605469 223.242188 197.734375 225.398438 196.183594 225.90625 C 194.675781 226.402344 193.683594 223.171875 195.445312 223.023438 Z M 141.878906 205.175781 C 141.890625 207.09375 139.253906 205.832031 139.507812 204.109375 C 139.769531 202.328125 141.851562 203.277344 141.878906 205.175781 Z M 160.257812 203.234375 C 160.359375 200.820312 164.292969 203.429688 162.207031 204.746094 C 161.105469 205.4375 160.226562 204.242188 160.257812 203.234375 Z M 174.429688 198.695312 C 173.722656 201.609375 170.714844 197.5625 172.863281 196.828125 C 173.941406 196.457031 174.371094 197.855469 174.429688 198.695312 Z M 114.28125 149.703125 C 114.257812 153.003906 110.339844 150.859375 112.632812 148.804688 C 113.492188 148.035156 114.1875 148.839844 114.28125 149.703125 Z M 157.03125 194.828125 C 157.320312 192.238281 159.90625 193.132812 158.863281 195.75 C 158.46875 196.738281 157.03125 196.496094 157.03125 194.828125 Z M 62.886719 218.660156 C 62.421875 221.777344 59.136719 218.890625 61.121094 217.445312 C 62.144531 216.699219 62.886719 217.640625 62.886719 218.660156 Z M 126.078125 109.683594 C 125.636719 112.988281 122.777344 110.472656 124.332031 108.667969 C 125.195312 107.664062 125.945312 108.757812 126.078125 109.683594 Z M 203.292969 219.988281 C 205.777344 219.972656 204.527344 223.925781 202.972656 222.40625 C 202.324219 221.773438 201.851562 219.996094 203.292969 219.988281 Z M 90.40625 205.730469 C 90.527344 208.011719 87.632812 207.472656 88.191406 205.363281 C 88.53125 204.066406 90.265625 204.210938 90.40625 205.535156 C 90.417969 205.667969 90.40625 205.800781 90.40625 205.730469 Z M 111.101562 158.347656 C 110.695312 161.332031 108.347656 160.207031 109.21875 157.667969 C 109.6875 156.304688 111.101562 157.042969 111.101562 158.347656 Z M 109.636719 106.179688 C 108.679688 109.9375 105.726562 107.128906 108.164062 105.355469 C 108.792969 104.898438 109.546875 105.496094 109.636719 106.179688 Z M 132.542969 158.152344 C 129.699219 157.433594 132.664062 153.007812 133.65625 156.957031 C 133.804688 157.53125 133.148438 158.203125 132.542969 158.152344 Z M 74.167969 165.214844 C 71.855469 165.300781 73.820312 161.390625 75.328125 162.722656 C 76.324219 163.597656 75.046875 164.945312 74.167969 165.214844 Z M 155.785156 222.835938 C 157.96875 223.621094 156.738281 226.515625 155.265625 225.335938 C 154.394531 224.636719 154.308594 222.875 155.785156 222.835938 Z M 108.6875 183.292969 C 108.539062 186.402344 105.273438 184.214844 106.960938 182.257812 C 107.773438 181.316406 108.488281 182.296875 108.6875 183.292969 Z M 151.117188 136.160156 C 151.117188 133.996094 154.792969 136.199219 153.332031 137.609375 C 152.332031 138.574219 151.117188 137.132812 151.117188 136.160156 Z M 90.734375 144.652344 C 90.648438 147.957031 87.152344 146.433594 89.039062 144.054688 C 89.578125 143.371094 90.738281 143.707031 90.734375 144.652344 Z M 131.980469 108.164062 C 131.917969 109.984375 129.859375 109.492188 129.597656 107.382812 C 129.394531 105.726562 131.960938 106.4375 131.980469 108.164062 Z M 186.492188 224.386719 C 186.445312 225.992188 184.570312 225.292969 183.992188 224.007812 C 183.234375 222.316406 186.570312 222.347656 186.492188 224.386719 Z M 162.117188 148.609375 C 162.050781 150.328125 160.066406 149.582031 159.644531 148.359375 C 159.054688 146.648438 162.074219 146.613281 162.117188 148.609375 Z M 178.746094 181.570312 C 178.757812 179.851562 180.726562 180.199219 181.070312 181.863281 C 181.402344 183.492188 178.726562 183.703125 178.746094 181.570312 Z M 164.53125 185.324219 C 164.53125 185.640625 164.53125 184.730469 165.101562 184.492188 C 166.4375 183.933594 167.511719 186.839844 165.878906 187.277344 C 164.832031 187.558594 164.523438 186.21875 164.53125 185.324219 Z M 141.273438 162.644531 C 141.09375 159.335938 144.96875 160.574219 142.75 163.339844 C 142.164062 164.070312 141.355469 163.289062 141.273438 162.644531 Z M 131.917969 211.699219 C 131.640625 214.644531 128.398438 212.394531 130.027344 210.742188 C 130.917969 209.839844 131.792969 210.792969 131.917969 211.699219 Z M 181.980469 187.324219 C 182.007812 186.132812 183.785156 185.9375 184.304688 187.832031 C 184.695312 189.246094 181.90625 189.679688 181.980469 187.324219 Z M 98.25 192.410156 C 98.25 194.511719 95.585938 193.851562 96.113281 191.90625 C 96.480469 190.550781 98.078125 190.886719 98.25 192.410156 Z M 73.324219 223.472656 C 72.859375 226.386719 69.859375 224.277344 71.449219 222.570312 C 72.191406 221.777344 73.3125 222.375 73.324219 223.472656 Z M 59.128906 194.144531 C 61.28125 194.023438 60.214844 197.488281 58.515625 196.679688 C 57.277344 196.089844 58.347656 194.535156 59.128906 194.144531 Z M 99.257812 235.261719 C 99.304688 237.261719 96.195312 236.570312 97.164062 234.457031 C 97.769531 233.128906 99.25 234.179688 99.257812 235.261719 Z M 120.035156 229.917969 C 121.59375 229.953125 121.570312 232.34375 120.027344 232.371094 C 118.402344 232.398438 118.386719 229.878906 120.035156 229.917969 Z M 70.890625 204.980469 C 71.632812 201.472656 74.878906 203.710938 72.117188 205.832031 C 71.386719 206.394531 70.921875 205.6875 70.890625 204.980469 Z M 74.441406 209.460938 C 72.523438 209.347656 73.992188 205.960938 75.496094 206.945312 C 76.609375 207.671875 75.359375 209.242188 74.441406 209.460938 Z M 132.957031 231.992188 C 133.136719 229.726562 135.949219 230.972656 135.082031 232.796875 C 134.464844 234.101562 133.128906 233.3125 132.957031 231.992188 Z M 170.386719 225.886719 C 171.597656 225.867188 172.175781 227.796875 171.101562 228.359375 C 169.488281 229.203125 168.570312 225.917969 170.386719 225.886719 Z M 139.738281 177.382812 C 139.691406 178.976562 137.273438 178.878906 137.289062 177.289062 C 137.304688 175.738281 139.785156 175.765625 139.738281 177.382812 Z M 151.769531 167.472656 C 151.804688 169.082031 149.285156 169 149.347656 167.496094 C 149.414062 165.816406 151.730469 165.742188 151.769531 167.472656 Z M 142.007812 214.675781 C 139.664062 214.519531 141.148438 210.871094 142.511719 212.460938 C 143.101562 213.144531 143.457031 214.773438 142.007812 214.675781 Z M 85.613281 146.679688 C 85.734375 148.605469 83.203125 149.066406 83.378906 147.339844 C 83.515625 145.953125 85.605469 144.898438 85.613281 146.679688 Z M 148.144531 210.722656 C 150.578125 210.835938 148.164062 215.351562 147.035156 212.183594 C 146.789062 211.496094 147.414062 210.6875 148.144531 210.722656 Z M 143.226562 124.394531 C 143.210938 125.875 141.730469 125.785156 140.953125 124.347656 C 140.144531 122.847656 143.246094 122.152344 143.226562 124.394531 Z M 100.375 185.640625 C 100.355469 187.953125 97.261719 186.503906 98.464844 184.777344 C 99.308594 183.566406 100.238281 184.621094 100.375 185.640625 Z M 128.765625 231.332031 C 128.289062 234.808594 124.777344 230.15625 127.535156 229.929688 C 128.429688 229.851562 128.691406 230.613281 128.765625 231.332031 Z M 139.324219 180.742188 C 138.753906 183.371094 137.425781 181.949219 137.320312 181.664062 C 136.820312 180.304688 138.523438 178.082031 139.324219 180.742188 Z M 112.859375 232.824219 C 113.644531 229.328125 116.644531 234.019531 113.929688 234.195312 C 113.335938 234.234375 112.835938 233.652344 112.859375 232.824219 Z M 81.550781 207.074219 C 81.6875 209.050781 78.460938 208.984375 79.222656 207.136719 C 79.644531 206.109375 81.363281 205.636719 81.550781 207.074219 Z M 61.46875 184.871094 C 61.445312 186.027344 59.265625 186.890625 59.046875 185.359375 C 58.820312 183.777344 61.519531 183.238281 61.46875 184.871094 Z M 67.695312 197.542969 C 66.921875 200.347656 63.652344 198.632812 66.273438 196.71875 C 66.902344 196.261719 67.683594 196.746094 67.695312 197.542969 Z M 89.574219 199.925781 C 89.613281 202.5 86.15625 201.300781 87.992188 199.078125 C 88.753906 198.160156 89.390625 199.285156 89.574219 199.925781 Z M 47.855469 196.71875 C 46.847656 200.027344 43.710938 196.613281 46.78125 195.75 C 47.289062 195.605469 47.875 196.082031 47.855469 196.71875 Z M 128.601562 204.332031 C 129.003906 200.769531 132.125 205.296875 129.765625 205.804688 C 128.871094 205.996094 128.714844 204.890625 128.601562 204.332031 Z M 103.273438 235.921875 C 100.796875 235.859375 102.890625 232.160156 104.003906 233.863281 C 104.515625 234.644531 104.5 235.953125 103.273438 235.921875 Z M 92.535156 159.191406 C 92.550781 162.179688 89.367188 160.425781 90.949219 158.457031 C 91.582031 157.667969 92.417969 158.535156 92.535156 159.191406 Z M 194.507812 196.285156 C 194.492188 197.902344 192.210938 197.421875 192.15625 195.796875 C 192.101562 194.171875 194.304688 195.179688 194.507812 196.285156 Z M 111.425781 175.074219 C 109.925781 175.070312 110.011719 172.730469 111.34375 172.6875 C 112.753906 172.640625 113.042969 175.078125 111.425781 175.074219 Z M 108.660156 171.582031 C 108.519531 173.847656 105.789062 172.296875 106.90625 170.433594 C 107.449219 169.527344 108.453125 169.777344 108.660156 171.582031 Z M 173.125 231.859375 C 173.101562 233.382812 170.746094 233.359375 170.753906 231.835938 C 170.761719 230.332031 173.148438 230.375 173.125 231.859375 Z M 68.355469 191.4375 C 67.410156 194.4375 64.109375 191.875 67.039062 190.621094 C 67.597656 190.382812 68.292969 190.777344 68.355469 191.4375 Z M 177.308594 191.300781 C 176.78125 193.550781 173.855469 191.089844 175.539062 189.980469 C 176.367188 189.4375 177.246094 190.523438 177.308594 191.300781 Z M 201.058594 216.339844 C 201.050781 218.199219 197.699219 216.628906 199.003906 215.171875 C 199.808594 214.269531 201.0625 215.347656 201.058594 216.339844 Z M 124.09375 212.84375 C 124.097656 211.117188 126.34375 211.25 126.25 212.953125 C 126.179688 214.226562 124.070312 214.253906 124.09375 212.84375 Z M 160.199219 153.230469 C 161.863281 153.367188 161.644531 156.28125 160.132812 155.683594 C 159.089844 155.273438 158.703125 153.109375 160.199219 153.230469 Z M 129.328125 117.96875 C 129.25 117.96875 129.296875 117.960938 129.339844 117.96875 C 131.375 118.253906 130.480469 121.542969 128.980469 120.285156 C 128.273438 119.695312 128.054688 118.015625 129.328125 117.96875 Z M 145.742188 144.195312 C 146.238281 141.164062 149.703125 145.273438 146.957031 145.535156 C 146.164062 145.613281 145.824219 144.875 145.742188 144.195312 Z M 187.117188 227.300781 C 188.796875 227.25 188.441406 230.675781 186.683594 229.582031 C 185.824219 229.046875 185.929688 227.277344 187.117188 227.300781 Z M 95.730469 158.757812 C 95.585938 155.917969 99.34375 157.589844 97.167969 159.488281 C 96.484375 160.085938 95.808594 159.539062 95.730469 158.757812 Z M 99.21875 117.445312 C 99.160156 116.160156 101.355469 115.164062 101.457031 116.761719 C 101.542969 118.09375 99.210938 119.105469 99.21875 117.445312 Z M 139.398438 118.910156 C 139.417969 120.527344 137.191406 119.835938 137.21875 118.433594 C 137.25 116.886719 139.367188 117.363281 139.398438 118.910156 Z M 99.292969 207.433594 C 99.296875 209.253906 96.34375 208.503906 97.417969 206.578125 C 98.070312 205.414062 99.28125 206.492188 99.292969 207.433594 Z M 115.800781 208.703125 C 116.105469 206.363281 118.757812 208.144531 117.765625 209.46875 C 117.101562 210.359375 115.8125 209.886719 115.800781 208.703125 Z M 161.503906 209.992188 C 161.511719 211.464844 159.230469 211.5 159.222656 210.003906 C 159.210938 208.507812 161.496094 208.519531 161.503906 209.992188 Z M 84.773438 213.210938 C 84.757812 214.320312 83.445312 214.867188 82.824219 213.867188 C 81.828125 212.257812 84.832031 211.078125 84.773438 213.210938 Z M 149.320312 198.125 C 149.382812 200.347656 146.539062 199.089844 147.347656 197.476562 C 147.917969 196.335938 149.050781 196.964844 149.320312 198.125 Z M 93.148438 129.617188 C 93.128906 131.027344 91.289062 131.867188 91.183594 130.460938 C 91.0625 128.832031 92.925781 127.644531 93.148438 129.617188 Z M 49.660156 214.9375 C 49.683594 213.523438 51.875 213.285156 51.835938 214.964844 C 51.804688 216.335938 49.636719 216.429688 49.660156 214.9375 Z M 104.113281 227.566406 C 104.117188 229.390625 101.503906 228.710938 102.15625 227.003906 C 102.726562 225.519531 103.957031 226.511719 104.113281 227.566406 Z M 99.996094 212.675781 C 100.90625 209.824219 103.492188 213.433594 101.304688 213.882812 C 100.546875 214.039062 99.976562 213.5625 99.996094 212.675781 Z M 66.839844 201.65625 C 68.71875 201.496094 67.839844 204.8125 66.226562 203.890625 C 65.199219 203.300781 66.125 201.992188 66.839844 201.65625 Z M 124.550781 226.832031 C 124.539062 228.203125 122.34375 228.164062 122.304688 226.816406 C 122.257812 225.367188 124.570312 225.359375 124.550781 226.832031 Z M 157.140625 141.683594 C 157.074219 143.320312 155.234375 142.625 154.976562 141.335938 C 154.699219 139.9375 157.144531 140.042969 157.140625 141.683594 Z M 107.757812 199.636719 C 107.640625 202.03125 104.691406 200.105469 105.910156 198.820312 C 106.621094 198.074219 107.804688 198.6875 107.757812 199.636719 Z M 156.039062 206.308594 C 154.675781 206.371094 154.554688 204.226562 155.910156 204.0625 C 157.320312 203.890625 157.511719 206.246094 156.039062 206.308594 Z M 162.125 191.4375 C 160.171875 191.382812 161.441406 187.839844 162.839844 189.519531 C 163.5 190.3125 163.152344 191.464844 162.125 191.4375 Z M 92.765625 151.734375 C 92.808594 150.273438 94.980469 150.484375 94.925781 151.8125 C 94.863281 153.214844 92.722656 153.140625 92.765625 151.734375 Z M 76.664062 216.898438 C 75.085938 216.953125 75.71875 214.125 77.277344 214.71875 C 78.421875 215.148438 77.683594 216.863281 76.664062 216.898438 Z M 108.792969 165.449219 C 108.335938 167.691406 106.097656 166.585938 107.003906 164.894531 C 107.570312 163.832031 108.601562 164.5625 108.792969 165.449219 Z M 93.875 138.347656 C 93.996094 140.488281 90.796875 139.757812 92.28125 137.757812 C 92.835938 137.011719 93.863281 137.574219 93.875 138.347656 Z M 137.078125 213.382812 C 137.046875 214.753906 134.945312 214.691406 134.933594 213.351562 C 134.921875 211.992188 137.113281 211.855469 137.078125 213.382812 Z M 47.578125 213.34375 C 47.542969 214.90625 44.992188 214.375 45.675781 212.808594 C 46.257812 211.46875 47.511719 212.15625 47.578125 213.34375 Z M 67.972656 177.035156 C 68.046875 178.796875 65.457031 178.988281 65.921875 177.574219 C 66.328125 176.351562 67.886719 175.542969 67.972656 177.035156 Z M 119.332031 204.324219 C 119.332031 201.980469 121.503906 202.785156 121.175781 204.578125 C 120.984375 205.636719 119.472656 205.460938 119.339844 204.445312 C 119.324219 204.316406 119.324219 204.183594 119.332031 204.324219 Z M 57.375 188.335938 C 56.222656 191.050781 53.835938 188.4375 56.101562 187.445312 C 56.644531 187.207031 57.378906 187.671875 57.375 188.335938 Z M 89.023438 136.816406 C 86.785156 136.882812 88.992188 133.207031 89.957031 135.015625 C 90.363281 135.769531 89.835938 136.792969 89.023438 136.816406 Z M 79.84375 197.488281 C 81.886719 197.460938 80.136719 200.75 78.878906 199.289062 C 78.28125 198.597656 79.039062 197.5 79.84375 197.488281 Z M 108.488281 205.109375 C 109.746094 205.183594 109.773438 207.324219 108.34375 207.226562 C 106.902344 207.125 107.191406 205.03125 108.488281 205.109375 Z M 82.332031 153.492188 C 82.257812 154.785156 80.144531 154.710938 80.222656 153.332031 C 80.304688 151.929688 82.40625 152.203125 82.332031 153.492188 Z M 67.125 185.558594 C 67.234375 187.90625 63.359375 186.40625 65.78125 184.839844 C 66.359375 184.464844 67.09375 184.871094 67.125 185.558594 Z M 148.058594 156.230469 C 146.867188 156.332031 146.527344 154.332031 147.878906 154.179688 C 149.234375 154.027344 149.429688 156.113281 148.058594 156.230469 Z M 105.363281 112.296875 C 105.246094 113.929688 102.835938 113.84375 103.289062 112.375 C 103.644531 111.230469 105.027344 111.253906 105.363281 112.296875 Z M 78.0625 157.121094 C 79.28125 157.054688 78.816406 158.648438 78.207031 159.070312 C 76.894531 159.980469 76.222656 157.035156 78.0625 157.121094 Z M 108.613281 176.714844 C 108.5625 178.175781 106.671875 178.121094 106.710938 176.664062 C 106.75 175.359375 108.65625 175.503906 108.613281 176.714844 Z M 74.089844 195.460938 C 72.539062 195.527344 73.738281 192.570312 74.9375 193.441406 C 75.757812 194.035156 74.9375 195.441406 74.089844 195.460938 Z M 198.648438 210.625 C 198.617188 211.863281 196.710938 211.832031 196.695312 210.585938 C 196.675781 209.242188 198.679688 209.308594 198.648438 210.625 Z M 101.402344 216.570312 C 102.742188 216.519531 102.847656 218.71875 101.527344 218.671875 C 100.359375 218.632812 100.300781 216.613281 101.402344 216.570312 Z M 72.519531 186.269531 C 73.804688 186.304688 73.773438 188.183594 72.523438 188.222656 C 71.167969 188.269531 71.160156 186.234375 72.519531 186.269531 Z M 115.621094 144.582031 C 115.59375 145.871094 113.628906 145.777344 113.726562 144.488281 C 113.828125 143.121094 115.648438 143.320312 115.621094 144.582031 Z M 196.6875 201.492188 C 196.605469 202.917969 194.679688 202.675781 194.800781 201.351562 C 194.90625 200.125 196.75 200.382812 196.6875 201.492188 Z M 131.996094 128.886719 C 133.222656 128.835938 133.316406 130.730469 132.128906 130.863281 C 130.835938 131.007812 130.714844 128.941406 131.996094 128.886719 Z M 62.054688 190.347656 C 60.390625 190.363281 61.492188 187.621094 62.832031 188.535156 C 63.632812 189.082031 62.773438 190.324219 62.054688 190.347656 Z M 84.21875 202.5 C 84.308594 203.574219 82.554688 203.785156 82.40625 202.621094 C 82.226562 201.203125 84.09375 201.078125 84.21875 202.5 Z M 64.429688 181.21875 C 64.515625 182.664062 62.082031 182.542969 62.644531 181.183594 C 63.042969 180.222656 64.230469 180.257812 64.429688 181.21875 Z M 120.746094 97.476562 C 119.480469 97.472656 119.554688 95.46875 120.738281 95.578125 C 121.765625 95.671875 121.78125 97.484375 120.746094 97.476562 Z M 138.339844 126.316406 C 137.171875 126.320312 137.214844 124.414062 138.402344 124.488281 C 139.488281 124.5625 139.441406 126.3125 138.339844 126.316406 Z M 72.710938 213.214844 C 72.625 214.363281 70.582031 214.476562 70.910156 213.269531 C 71.230469 212.105469 72.796875 212.097656 72.710938 213.214844 Z M 95.238281 186.121094 C 95.1875 187.382812 93.503906 187.355469 93.453125 186.09375 C 93.414062 185.050781 95.285156 184.9375 95.238281 186.121094 Z M 77.816406 203.128906 C 80.082031 203.839844 76.558594 206.070312 76.734375 204.15625 C 76.792969 203.542969 77.195312 203.125 77.816406 203.128906 Z M 43.46875 201.804688 C 42.40625 201.890625 42.503906 199.980469 43.558594 199.964844 C 44.765625 199.945312 44.660156 201.710938 43.46875 201.804688 Z M 65.128906 206.421875 C 65.117188 207.417969 63.523438 207.996094 63.335938 206.871094 C 63.136719 205.703125 64.664062 205.589844 65.128906 206.421875 Z M 112.292969 99.65625 C 112.171875 100.707031 110.472656 100.5625 110.578125 99.539062 C 110.691406 98.464844 112.40625 98.648438 112.292969 99.65625 Z M 70.746094 199.316406 C 70.660156 200.109375 69.25 200.261719 69.351562 199.40625 C 69.460938 198.4375 70.839844 198.421875 70.746094 199.316406 Z M 174.722656 147.101562 C 172.523438 143.457031 174.300781 137.929688 175.023438 134.003906 C 175.304688 132.488281 179.875 124.285156 180.707031 122.964844 L 187.128906 113.269531 C 187.539062 112.605469 186.667969 111.824219 186.609375 111 C 186.132812 104.511719 185.949219 107.078125 187.972656 102.027344 C 188.429688 100.894531 188.648438 99.734375 188.4375 98.507812 C 187.4375 92.699219 187.988281 83.824219 190.636719 78.421875 C 192.304688 75.023438 194.097656 68.800781 198.921875 70.613281 C 201.832031 71.707031 201.835938 79.691406 201.628906 82.148438 C 201.460938 84.132812 200.78125 86.304688 200.773438 88.226562 C 200.738281 94.507812 190.734375 111.148438 186.648438 117.6875 C 185.46875 119.578125 184.53125 120.285156 183.238281 122.792969 L 181.734375 125.3125 C 178.65625 131.359375 176.59375 134.714844 175.355469 141.363281 Z M 188.164062 111.28125 C 189.40625 110.488281 193.144531 102.832031 194.332031 100.917969 C 197.398438 95.980469 200.953125 80.289062 200.15625 74.324219 C 199.992188 73.125 197.917969 71.527344 196.71875 72.25 C 195.503906 72.980469 195.011719 72.292969 193.546875 75.742188 C 191.007812 81.734375 190.46875 82.402344 189.65625 89.101562 C 188.40625 99.386719 192.390625 95.746094 188.023438 105.058594 C 187.402344 106.378906 188.015625 109.804688 188.164062 111.28125 Z M 215.917969 185.796875 C 212.457031 186.175781 210.589844 182.308594 203.3125 184.996094 C 202.835938 185.171875 200.796875 186.367188 200.515625 185.546875 C 200.121094 184.402344 206.289062 180.605469 215.460938 184.140625 C 216.972656 184.722656 218.8125 184.316406 220.367188 184.222656 L 228.371094 184.085938 C 234.632812 183.847656 239.609375 181.625 245.832031 182.082031 C 247.132812 182.179688 246.609375 182.863281 245.082031 183 C 240.445312 183.414062 236.042969 184.980469 231.40625 185.269531 C 228.355469 185.460938 219.421875 185.195312 217.382812 185.6875 C 216.914062 185.800781 216.410156 185.765625 215.917969 185.796875 Z M 236.335938 162.757812 C 236.222656 164.683594 233.988281 164.886719 233.75 163.339844 C 233.605469 162.390625 233.039062 160.820312 233.578125 159.929688 C 234.171875 158.945312 235.394531 159.335938 235.761719 160.253906 C 236.089844 161.089844 236.234375 161.964844 236.335938 162.757812 Z M 209.289062 93.515625 C 209.449219 92.132812 210.613281 92.800781 210.890625 93.761719 L 212.179688 98.195312 C 211.976562 99.128906 210.851562 98.597656 210.578125 98.023438 C 209.894531 96.570312 209.53125 95.023438 209.289062 93.515625 Z M 253.097656 205.765625 C 252.988281 206.425781 252.960938 207.566406 251.851562 207.453125 C 250.664062 207.332031 251.007812 205.289062 250.695312 204.34375 C 250.113281 202.570312 252.570312 202.242188 252.929688 204.191406 C 253.007812 204.628906 253.027344 205.078125 253.097656 205.765625 Z M 240.535156 147.625 C 240.503906 148.660156 238.621094 148.519531 238.566406 147.382812 C 238.519531 146.296875 237.03125 143.320312 238.457031 143.425781 C 239.839844 143.523438 240.492188 146.363281 240.535156 147.625 Z M 230.65625 133.027344 C 231.808594 133 233.851562 137.058594 232.265625 137.695312 C 230.914062 138.238281 230.179688 134.484375 229.96875 133.816406 C 229.84375 133.429688 230.222656 133.019531 230.65625 133.027344 Z M 219.425781 116.707031 C 220.726562 116.597656 222.203125 119.941406 220.941406 120.609375 C 219.355469 121.449219 217.371094 116.828125 219.425781 116.707031 Z M 177.71875 152.710938 C 177.632812 150.894531 180.113281 150.492188 180.269531 154.15625 C 180.328125 155.5625 178.191406 155.699219 177.953125 154.363281 C 177.851562 153.796875 177.789062 153.222656 177.71875 152.710938 Z M 246.222656 177.472656 C 246.222656 179.21875 244.484375 179.207031 244.371094 177.90625 C 244.289062 177 243.820312 175.457031 244.378906 174.644531 C 245.445312 173.085938 246.238281 176.796875 246.222656 177.472656 Z M 201.015625 178.964844 C 200.417969 182.101562 197.085938 177.746094 198.566406 176.574219 C 199.839844 175.570312 200.898438 178.09375 201.015625 178.964844 Z M 232.925781 178.433594 C 234.226562 178.476562 235.359375 181.339844 233.898438 181.925781 C 232.167969 182.625 230.914062 178.335938 232.925781 178.433594 Z M 230.167969 159.480469 C 230.105469 161.527344 227.542969 160.898438 227.722656 157.605469 C 227.800781 156.1875 229.664062 156.441406 230.167969 159.480469 Z M 209.59375 74.058594 C 209.570312 76.367188 206.65625 75.089844 207.214844 72.421875 C 207.441406 71.34375 209.128906 70.90625 209.59375 74.058594 Z M 214.417969 90.285156 C 214.410156 90.90625 213 92.980469 211.871094 88.964844 C 211.390625 87.25 214.46875 87.273438 214.417969 90.285156 Z M 169.144531 141.691406 C 169.515625 139.273438 171.347656 139.660156 171.425781 142.6875 C 171.46875 144.199219 169.097656 144.332031 169.144531 141.691406 Z M 250.492188 184.148438 C 251.675781 184.195312 253.332031 186.125 252.230469 187.109375 C 250.453125 188.695312 248.734375 184.039062 250.492188 184.148438 Z M 224.28125 146.792969 C 224.289062 145.828125 225.519531 145.414062 225.882812 146.296875 C 226.246094 147.167969 227.664062 148.691406 226.480469 149.453125 C 225.15625 150.308594 224.371094 147.4375 224.28125 146.792969 Z M 228.167969 122.824219 C 229.21875 122.8125 230.5625 124.851562 229.71875 125.710938 C 227.972656 127.484375 226.015625 122.792969 228.167969 122.824219 Z M 231.117188 145.273438 C 230.414062 149.085938 227.40625 143.820312 229.214844 143.011719 C 230.453125 142.460938 230.988281 144.515625 231.117188 145.273438 Z M 239.335938 201.519531 C 240.617188 198.78125 243.238281 203.671875 241.136719 204.191406 C 239.816406 204.515625 239.53125 202.328125 239.335938 201.519531 Z M 203.972656 103.859375 C 203.902344 106.078125 200.707031 105.019531 201.585938 102.382812 C 202.15625 100.671875 203.917969 102.632812 203.972656 103.859375 Z M 231.570312 166.980469 C 231.351562 170.085938 228.085938 167.429688 229.488281 165.335938 C 230.339844 164.0625 231.324219 165.570312 231.570312 166.980469 Z M 257.8125 194.5625 C 259.132812 194.550781 260.011719 197.039062 258.664062 197.636719 C 257.0625 198.339844 255.800781 194.574219 257.8125 194.5625 Z M 225.636719 168.015625 C 225.601562 170.105469 222.945312 169.507812 223.261719 167.039062 C 223.488281 165.265625 225.621094 166.117188 225.636719 168.015625 Z M 242.746094 168.550781 C 242.769531 167.242188 244.421875 166.585938 245.074219 169.757812 C 245.355469 171.121094 242.558594 171.578125 242.746094 168.550781 Z M 216.835938 110.570312 C 218.046875 110.492188 219.128906 113.265625 217.902344 113.863281 C 216.34375 114.617188 215.089844 110.609375 216.835938 110.570312 Z M 234.867188 205.875 C 235.0625 203.019531 238.058594 204.054688 237.171875 206.386719 C 236.667969 207.707031 234.78125 207.230469 234.867188 205.875 Z M 231.214844 152.496094 C 231.214844 150.128906 233.59375 151.507812 233.394531 153.808594 C 233.265625 155.304688 231.390625 154.847656 231.214844 152.496094 Z M 206.078125 66.425781 C 205.921875 68.800781 202.207031 66.179688 203.691406 64.804688 C 204.621094 63.949219 206.113281 65.417969 206.078125 66.425781 Z M 177.925781 101.769531 C 177.996094 104.9375 174.019531 103.4375 176.375 100.832031 C 177.191406 99.925781 177.925781 100.96875 177.925781 101.769531 Z M 225.132812 127.167969 C 225.144531 129.488281 220.941406 126.582031 222.835938 125.222656 C 223.898438 124.457031 224.945312 126.34375 225.132812 127.167969 Z M 184.378906 166.351562 C 184.082031 168.480469 181.152344 166.78125 182.25 164.851562 C 183.160156 163.246094 184.355469 165.253906 184.378906 166.351562 Z M 217.898438 99.671875 C 217.917969 101.429688 215.34375 100.921875 215.597656 98.535156 C 215.773438 96.898438 217.84375 97.8125 217.898438 99.671875 Z M 218.9375 179.066406 C 219.199219 177.585938 221.035156 177.320312 221.148438 180.203125 C 221.199219 181.515625 218.816406 181.386719 218.9375 179.066406 Z M 165.980469 120.1875 C 165.546875 123.722656 161.597656 121.691406 164.769531 119.324219 C 165.453125 118.8125 165.949219 119.554688 165.980469 120.1875 Z M 244.847656 203.128906 C 244.882812 199.925781 248.886719 203.871094 246.625 204.769531 C 245.539062 205.199219 244.863281 203.898438 244.847656 203.128906 Z M 187.351562 172.71875 C 187.351562 170.839844 189.730469 171.515625 189.773438 173.054688 C 189.824219 174.875 187.304688 174.371094 187.351562 172.71875 Z M 211.269531 135.714844 C 211.332031 137.546875 209.015625 136.878906 209.066406 134.496094 C 209.097656 132.855469 211.117188 133.640625 211.269531 135.714844 Z M 255.804688 199.101562 C 255.84375 200.625 253.492188 200.078125 253.429688 197.570312 C 253.382812 195.769531 255.804688 197.601562 255.804688 199.101562 Z M 239.449219 176.667969 C 239.714844 172.664062 243.335938 178.292969 240.519531 178.328125 C 239.515625 178.339844 239.496094 177.425781 239.449219 176.667969 Z M 217.164062 194.859375 C 218.351562 194.886719 219.050781 197.113281 217.835938 197.648438 C 216.335938 198.3125 215.367188 194.753906 217.164062 194.859375 Z M 249.398438 199.960938 C 246.554688 198.976562 248.445312 194.890625 250.171875 198.554688 C 250.476562 199.199219 249.941406 199.707031 249.398438 199.960938 Z M 183.101562 158.574219 C 183.164062 160.75 180.828125 160.015625 180.886719 158.023438 C 180.933594 156.320312 183.097656 157.234375 183.101562 158.574219 Z M 169.195312 136.449219 C 169.191406 138.144531 167.058594 138.253906 166.839844 136.6875 C 166.648438 135.347656 168.699219 134.351562 169.195312 136.449219 Z M 239.355469 157.308594 C 239.125 159.730469 236.949219 158.613281 237.433594 156.382812 C 237.511719 156.023438 238.976562 154.695312 239.355469 157.308594 Z M 222.15625 136.65625 C 222.171875 139.460938 218.207031 136.691406 220.347656 135.375 C 221.25 134.820312 222.09375 135.910156 222.15625 136.65625 Z M 162.640625 130.90625 C 162.640625 128.816406 165.003906 129.601562 164.800781 131.355469 C 164.640625 132.757812 162.644531 132.550781 162.640625 130.90625 Z M 233.730469 131.195312 C 233.25 133.527344 231.765625 131.09375 231.417969 129.980469 C 230.9375 128.445312 233.570312 128.835938 233.730469 131.195312 Z M 255.84375 191 C 255.53125 193.640625 251.957031 190.222656 253.886719 189.324219 C 254.847656 188.878906 255.730469 190.1875 255.84375 191 Z M 219.160156 165.78125 C 219.085938 167.574219 216.824219 167.078125 216.816406 165.367188 C 216.8125 163.769531 218.765625 164.085938 219.160156 165.78125 Z M 234.453125 169.65625 C 234.453125 168.0625 236.132812 167.964844 236.539062 170.273438 C 236.773438 171.59375 234.441406 171.789062 234.453125 169.65625 Z M 207.203125 131.890625 C 207.199219 133.488281 204.707031 133.398438 204.765625 131.878906 C 204.824219 130.332031 207.203125 130.265625 207.203125 131.890625 Z M 193.765625 170.34375 C 193.71875 168.542969 195.75 169.230469 196.046875 170.695312 C 196.324219 172.0625 193.796875 172.328125 193.765625 170.34375 Z M 235.683594 136.652344 C 237.949219 137.433594 237.078125 140.097656 235.648438 139.109375 C 234.871094 138.574219 233.988281 136.664062 235.683594 136.652344 Z M 223.144531 116.488281 C 223.417969 114.273438 226.257812 116.628906 225.113281 117.875 C 224.015625 119.074219 223.269531 117.359375 223.144531 116.488281 Z M 194.546875 178.316406 C 194.585938 180.035156 192.335938 179.363281 192.125 178.050781 C 191.84375 176.273438 194.507812 176.757812 194.546875 178.316406 Z M 198.347656 132.085938 C 198.480469 130.667969 200.761719 130.839844 200.734375 132.234375 C 200.703125 133.921875 198.179688 133.894531 198.347656 132.085938 Z M 201.984375 190.53125 C 203.105469 190.457031 204.300781 192.59375 203.015625 193.179688 C 201.671875 193.792969 200.582031 190.582031 201.984375 190.53125 Z M 209.570312 85.820312 C 209.621094 88.941406 205.792969 85.050781 208.15625 84.351562 C 208.996094 84.101562 209.613281 85.074219 209.570312 85.820312 Z M 237.46875 198.082031 C 237.351562 199.570312 234.9375 199.359375 235.121094 197.867188 C 235.3125 196.304688 237.585938 196.597656 237.46875 198.082031 Z M 180.136719 145.507812 C 180.136719 145.5 180.117188 145.679688 180.058594 145.839844 C 179.53125 147.3125 177.222656 145.480469 178.339844 144.0625 C 179.257812 142.890625 180.238281 144.488281 180.136719 145.507812 Z M 199.050781 108.964844 C 201.726562 109.492188 199.742188 112.402344 198.492188 111.078125 C 197.886719 110.433594 197.796875 108.933594 199.050781 108.964844 Z M 182.992188 82.851562 C 183.375 79.871094 186.460938 82.789062 184.613281 83.929688 C 183.777344 84.445312 182.984375 83.757812 182.992188 82.851562 Z M 201.621094 128.382812 C 201.601562 129.988281 199.46875 129.566406 199.421875 127.960938 C 199.371094 126.234375 201.652344 126.863281 201.621094 128.382812 Z M 212.226562 103.042969 C 212.289062 100.714844 216.035156 103.851562 213.671875 104.808594 C 212.757812 105.179688 212.21875 103.761719 212.226562 103.042969 Z M 160.625 127.214844 C 158.652344 127.144531 160.683594 123.476562 161.980469 125.222656 C 162.558594 125.996094 161.4375 127.230469 160.625 127.214844 Z M 211.460938 108.265625 C 211.359375 110.972656 207.636719 107.996094 209.867188 106.921875 C 210.691406 106.527344 211.421875 107.632812 211.460938 108.265625 Z M 230.582031 202.898438 C 232.085938 202.878906 232.027344 205.71875 230.304688 205.347656 C 229.164062 205.097656 229.371094 202.894531 230.582031 202.898438 Z M 180.78125 87.472656 C 182.152344 87.425781 182.386719 89.929688 180.859375 89.9375 C 179.441406 89.941406 179.457031 87.488281 180.78125 87.472656 Z M 181.246094 137.875 C 181.332031 141.40625 178.410156 138.523438 179.582031 137.136719 C 180.292969 136.296875 181.152344 137.023438 181.246094 137.875 Z M 207.550781 167.765625 C 209.222656 167.875 209.203125 170.839844 207.570312 170.226562 C 206.644531 169.878906 206.210938 167.726562 207.550781 167.765625 Z M 252.015625 193.40625 C 251.871094 195.492188 248.65625 193.4375 250.144531 192.164062 C 250.960938 191.46875 252.078125 192.515625 252.015625 193.40625 Z M 210.863281 177.613281 C 210.945312 175.476562 213.785156 176.761719 212.867188 178.277344 C 212.253906 179.289062 210.84375 178.746094 210.863281 177.613281 Z M 219.195312 108.277344 C 219.136719 106.726562 221.28125 107.140625 221.359375 108.636719 C 221.441406 110.226562 219.253906 109.945312 219.195312 108.277344 Z M 261.566406 201.34375 C 261.472656 203.355469 258.371094 202.007812 259.660156 200.554688 C 260.457031 199.652344 261.503906 200.152344 261.566406 201.34375 Z M 225.292969 179.21875 C 225.765625 176.019531 228.992188 180.023438 226.417969 180.4375 C 225.71875 180.546875 225.328125 179.84375 225.292969 179.21875 Z M 214.359375 131.707031 C 214.65625 129.394531 217.6875 132.808594 215.707031 133.542969 C 214.753906 133.894531 214.335938 132.429688 214.359375 131.707031 Z M 188.46875 164.085938 C 190.925781 164.296875 189.027344 167.855469 187.917969 166.082031 C 187.34375 165.164062 187.691406 164.476562 188.46875 164.085938 Z M 221.574219 198.515625 C 221.566406 196.207031 225.03125 198.664062 223.105469 199.746094 C 222.289062 200.203125 221.605469 199.265625 221.574219 198.515625 Z M 244.09375 196.023438 C 244.023438 198.167969 240.8125 196.203125 242.226562 194.988281 C 242.953125 194.363281 244.105469 195.1875 244.09375 196.023438 Z M 215.578125 124.765625 C 216.957031 124.695312 217.171875 126.847656 215.730469 126.941406 C 214.238281 127.039062 214.285156 124.832031 215.578125 124.765625 Z M 213.832031 194.914062 C 213.820312 196.347656 211.589844 196.273438 211.671875 194.828125 C 211.75 193.488281 213.84375 193.546875 213.832031 194.914062 Z M 204.269531 174.542969 C 204.28125 176.042969 202.128906 175.871094 202.160156 174.527344 C 202.191406 173.238281 204.261719 173.152344 204.269531 174.542969 Z M 240 161.90625 C 239.976562 160.371094 241.945312 161 241.992188 162.273438 C 242.050781 163.824219 240.019531 163.332031 240 161.90625 Z M 170.753906 129.28125 C 170.734375 130.675781 168.675781 130.546875 168.65625 129.222656 C 168.636719 127.929688 170.777344 127.902344 170.753906 129.28125 Z M 240.878906 207.691406 C 240.921875 206.054688 242.589844 206.4375 242.785156 207.777344 C 242.988281 209.164062 241.074219 209.25 240.878906 207.691406 Z M 170.546875 114.535156 C 170.417969 116.390625 168.109375 115.675781 168.722656 114.042969 C 169.164062 112.859375 170.472656 113.503906 170.546875 114.535156 Z M 239.394531 170.183594 C 241.703125 170.207031 240.308594 173.453125 239.058594 172.101562 C 238.617188 171.628906 238.46875 170.164062 239.394531 170.183594 Z M 248.105469 207.710938 C 248.113281 209.070312 246.082031 208.992188 246.078125 207.726562 C 246.074219 206.464844 248.09375 206.355469 248.105469 207.710938 Z M 173.945312 109.75 C 173.941406 111.128906 171.878906 110.988281 171.910156 109.730469 C 171.945312 108.441406 173.949219 108.378906 173.945312 109.75 Z M 195.378906 115.542969 C 195.433594 116.816406 193.453125 116.96875 193.3125 115.671875 C 193.167969 114.335938 195.320312 114.160156 195.378906 115.542969 Z M 211.46875 81.171875 C 211.4375 83.085938 207.949219 80.78125 210.089844 79.875 C 210.890625 79.535156 211.484375 80.453125 211.46875 81.171875 Z M 235.792969 149.894531 C 235.800781 147.644531 238.570312 149.269531 237.472656 150.578125 C 236.757812 151.425781 235.949219 150.675781 235.792969 149.894531 Z M 207.070312 193.800781 C 207.277344 191.886719 209.5 193.003906 208.90625 194.246094 C 208.429688 195.246094 207.035156 194.957031 207.070312 193.800781 Z M 178.574219 110.84375 C 178.582031 112.207031 176.566406 112.09375 176.640625 110.785156 C 176.714844 109.433594 178.566406 109.476562 178.574219 110.84375 Z M 225.929688 203.648438 C 224.636719 203.574219 224.804688 201.460938 226.066406 201.617188 C 227.269531 201.769531 227.136719 203.71875 225.929688 203.648438 Z M 210.972656 169.941406 C 211.230469 168.671875 212.777344 168.785156 212.917969 170.015625 C 213.097656 171.640625 211.101562 171.253906 210.972656 169.941406 Z M 198.097656 66.308594 C 196.824219 66.210938 196.984375 64.078125 198.253906 64.277344 C 199.460938 64.460938 199.292969 66.402344 198.097656 66.308594 Z M 195.867188 158.1875 C 195.757812 160.144531 192.714844 158.132812 194.332031 157.105469 C 195.050781 156.652344 195.894531 157.480469 195.867188 158.1875 Z M 166.074219 124.132812 C 167.453125 124.09375 167.4375 126.058594 166.171875 126.09375 C 164.90625 126.128906 164.730469 124.167969 166.074219 124.132812 Z M 241.859375 155.875 C 241.230469 157.664062 239.371094 156.34375 240.414062 154.925781 C 241.054688 154.054688 241.820312 155.226562 241.859375 155.875 Z M 212.765625 117.023438 C 212.792969 118.335938 210.742188 118.378906 210.769531 117.0625 C 210.792969 115.855469 212.742188 115.804688 212.765625 117.023438 Z M 226.898438 196.222656 C 228.21875 196.234375 228.160156 198.230469 226.820312 198.164062 C 225.550781 198.097656 225.707031 196.207031 226.898438 196.222656 Z M 180.417969 95.257812 C 180.40625 96.453125 178.558594 96.394531 178.539062 95.242188 C 178.519531 93.964844 180.429688 93.765625 180.417969 95.257812 Z M 235.757812 142.261719 C 235.726562 143.476562 233.941406 143.394531 233.917969 142.222656 C 233.894531 140.988281 235.792969 141.148438 235.757812 142.261719 Z M 257.464844 203.628906 C 257.453125 204.664062 255.875 204.648438 255.910156 203.601562 C 255.941406 202.695312 257.472656 202.691406 257.464844 203.628906 Z M 205.566406 76.863281 C 206.484375 76.894531 206.472656 78.277344 205.480469 78.183594 C 204.703125 78.105469 204.851562 76.839844 205.566406 76.863281 Z M 194.226562 83.84375 C 191.238281 83.972656 194.429688 78.949219 195.433594 81.476562 C 195.777344 82.34375 195.285156 83.792969 194.226562 83.84375 Z M 193.515625 88.46875 C 193.230469 91.160156 190.539062 88.914062 191.976562 87.246094 C 192.953125 86.117188 193.398438 87.808594 193.515625 88.46875 Z M 197.761719 76.660156 C 197.746094 77.851562 196.070312 78.695312 195.664062 77.316406 C 195.21875 75.789062 197.4375 74.9375 197.761719 76.660156 Z M 192.117188 94.621094 C 192.742188 91.03125 195.347656 96 193.082031 96.136719 C 192.265625 96.183594 192.191406 95.230469 192.117188 94.621094 Z M 196.578125 85.140625 C 196.574219 85.140625 196.753906 85.164062 196.898438 85.253906 C 198.128906 86.035156 196.867188 88.230469 195.820312 87.171875 C 195.140625 86.488281 195.429688 85.050781 196.578125 85.140625 Z M 192.589844 97.960938 C 193.898438 97.890625 193.960938 99.964844 192.664062 99.992188 C 191.363281 100.015625 191.296875 98.035156 192.589844 97.960938 Z M 192.589844 97.960938 " fill-opacity="1" fill-rule="nonzero"/></g></svg>