<svg xmlns="http://www.w3.org/2000/svg" xmlns:xlink="http://www.w3.org/1999/xlink" width="400" zoomAndPan="magnify" viewBox="0 0 300 299.999988" height="400" preserveAspectRatio="xMidYMid meet" version="1.0"><defs><clipPath id="2e307193d5"><path d="M 111.699219 30 L 188.199219 30 L 188.199219 268 L 111.699219 268 Z M 111.699219 30 " clip-rule="nonzero"/></clipPath></defs><g clip-path="url(#2e307193d5)"><path fill="currentColor" d="M 188.359375 170.261719 C 188.375 156.632812 188.105469 143.035156 187.546875 129.464844 L 187.539062 129.277344 C 187.34375 124.578125 187.078125 118.140625 185.464844 112.546875 C 183.90625 107.144531 181.429688 103.523438 177.894531 101.476562 C 176.746094 100.839844 175.558594 100.277344 174.339844 99.789062 C 172.773438 99.199219 171.292969 98.441406 169.898438 97.519531 C 167.992188 96.15625 166.554688 94.40625 165.589844 92.269531 C 165.425781 91.921875 165.273438 91.5625 165.128906 91.195312 C 163.054688 85.957031 162.957031 79.539062 163.066406 75.167969 C 163.097656 73.792969 163.121094 72.421875 163.140625 71.046875 C 163.148438 70.054688 163.15625 69.066406 163.160156 68.085938 C 163.171875 65.136719 163.140625 62.25 163.070312 59.464844 C 163.039062 58.132812 163 56.800781 162.949219 55.46875 L 162.90625 54.523438 C 162.859375 53.3125 162.796875 52.101562 162.730469 50.886719 C 162.730469 50.855469 162.726562 50.828125 162.71875 50.796875 C 162.71875 50.773438 162.71875 50.75 162.71875 50.726562 C 162.722656 50.6875 162.722656 50.652344 162.71875 50.613281 C 162.71875 50.570312 162.714844 50.523438 162.707031 50.480469 C 162.707031 50.464844 162.707031 50.453125 162.707031 50.445312 C 162.707031 50.4375 162.691406 50.332031 162.6875 50.316406 C 162.683594 50.273438 162.675781 50.230469 162.660156 50.191406 C 162.660156 50.171875 162.628906 50.054688 162.625 50.039062 C 162.621094 50.019531 162.585938 49.898438 162.578125 49.882812 L 162.050781 50.074219 L 161.546875 50.339844 L 162.105469 50.253906 L 161.582031 50.460938 C 161.582031 50.484375 161.601562 50.59375 161.605469 50.613281 C 161.613281 50.632812 161.605469 50.742188 161.605469 50.75 C 161.609375 50.785156 161.609375 50.824219 161.605469 50.859375 C 161.59375 50.945312 161.601562 51.027344 161.628906 51.109375 C 161.679688 52.066406 161.730469 53.027344 161.773438 53.988281 C 161.039062 53.984375 160.3125 53.984375 159.585938 53.988281 L 158.941406 53.988281 C 150.753906 53.996094 143.140625 54.203125 138.753906 54.351562 C 138.804688 53.863281 138.863281 53.382812 138.921875 52.898438 C 138.976562 52.414062 139.03125 51.945312 139.070312 51.546875 C 139.144531 51.261719 139.21875 50.996094 139.304688 50.757812 L 138.765625 50.550781 L 139.339844 50.613281 C 139.410156 50.421875 139.484375 50.25 139.5625 50.085938 L 139.734375 49.746094 L 139.734375 49.738281 L 140.921875 49.808594 C 147.585938 50.1875 154.472656 50.582031 161.207031 49.683594 C 161.230469 49.710938 161.25 49.742188 161.269531 49.769531 C 161.332031 49.859375 161.386719 49.953125 161.429688 50.050781 L 161.484375 50.179688 L 162.039062 50.070312 L 162.511719 49.730469 L 162.464844 49.597656 C 162.390625 49.4375 162.304688 49.285156 162.203125 49.140625 C 162.136719 49.042969 162.0625 48.949219 161.980469 48.863281 C 161.859375 46.121094 161.503906 43.414062 160.914062 40.738281 C 160.796875 40.128906 160.675781 39.472656 160.546875 38.796875 C 160.21875 36.714844 159.769531 34.660156 159.199219 32.628906 C 159.050781 32.183594 158.8125 31.789062 158.488281 31.449219 C 157.515625 30.761719 156.433594 30.46875 155.246094 30.566406 L 154.835938 30.546875 C 151.003906 30.3125 147.195312 30.496094 143.402344 31.09375 C 142.960938 31.132812 142.566406 31.285156 142.214844 31.558594 C 141.84375 31.949219 141.628906 32.410156 141.574219 32.945312 C 141.058594 35.566406 140.609375 38.238281 140.175781 40.824219 L 140.117188 41.160156 C 139.878906 42.566406 139.640625 43.972656 139.394531 45.378906 C 139.335938 45.699219 139.257812 46.03125 139.179688 46.363281 C 138.929688 47.230469 138.828125 48.113281 138.867188 49.011719 C 138.832031 49.074219 138.789062 49.136719 138.757812 49.195312 C 138.722656 49.25 138.691406 49.304688 138.667969 49.355469 C 138.625 49.4375 138.582031 49.519531 138.542969 49.605469 C 138.453125 49.792969 138.371094 49.992188 138.289062 50.210938 L 138.234375 50.359375 C 138.125 50.675781 138.03125 51 137.957031 51.328125 C 137.90625 51.804688 137.84375 52.277344 137.792969 52.746094 C 137.707031 53.449219 137.625 54.152344 137.558594 54.863281 L 137.449219 56.128906 C 137.34375 57.390625 137.246094 58.652344 137.164062 59.917969 C 136.847656 64.652344 136.652344 69.640625 136.542969 75.617188 C 136.535156 79.128906 136.289062 82.621094 135.800781 86.09375 C 135.539062 87.855469 135.144531 89.585938 134.613281 91.285156 C 134.554688 91.480469 134.488281 91.671875 134.421875 91.863281 C 133.402344 95.046875 131.601562 97.699219 129.019531 99.824219 C 127.878906 100.675781 126.6875 101.445312 125.4375 102.132812 C 124.238281 102.800781 123.085938 103.539062 121.976562 104.347656 C 115.113281 109.566406 113.644531 118.804688 113.136719 125.300781 C 112.863281 128.753906 112.644531 132.316406 112.460938 136.195312 C 111.953125 146.660156 111.742188 157.652344 111.832031 169.710938 C 111.832031 170.027344 111.839844 170.347656 111.839844 170.664062 C 111.847656 171.644531 111.859375 172.625 111.871094 173.617188 C 111.875 174.117188 111.886719 174.628906 111.894531 175.128906 C 111.90625 175.972656 111.917969 176.8125 111.929688 177.667969 C 111.9375 178.148438 111.949219 178.640625 111.957031 179.128906 C 111.976562 180.007812 111.992188 180.890625 112.011719 181.78125 C 112.023438 182.304688 112.035156 182.835938 112.046875 183.363281 C 112.0625 183.945312 112.074219 184.523438 112.089844 185.109375 L 112.089844 185.117188 C 112.210938 189.933594 112.371094 194.917969 112.578125 200.113281 L 112.675781 202.621094 C 113.46875 222.914062 114.457031 248.164062 117.140625 263.207031 C 117.183594 263.453125 117.324219 263.601562 117.5625 263.65625 C 129.238281 266.046875 141.039062 267.230469 152.957031 267.203125 C 163.171875 267.269531 173.277344 266.234375 183.269531 264.105469 C 183.535156 264.046875 183.679688 263.882812 183.707031 263.613281 C 186.261719 237.796875 187.761719 211.738281 188.210938 185.6875 C 188.210938 185.671875 188.222656 185.660156 188.222656 185.644531 C 188.253906 183.910156 188.273438 182.164062 188.292969 180.417969 C 188.292969 180.132812 188.300781 179.84375 188.304688 179.558594 C 188.332031 176.863281 188.351562 174.171875 188.359375 171.488281 L 188.359375 171.367188 C 188.359375 171.007812 188.359375 170.644531 188.359375 170.289062 C 188.367188 170.277344 188.359375 170.273438 188.359375 170.261719 Z M 118.183594 262.644531 C 115.5625 247.632812 114.589844 222.667969 113.800781 202.578125 L 113.703125 200.070312 C 113.527344 195.605469 113.382812 191.296875 113.273438 187.117188 L 148.1875 242.035156 C 148.296875 242.207031 148.449219 242.292969 148.652344 242.296875 L 148.664062 242.296875 C 148.859375 242.296875 149.011719 242.214844 149.125 242.054688 L 187.058594 187.484375 C 186.574219 212.765625 185.097656 238.042969 182.628906 263.097656 C 152.484375 269.675781 121.832031 263.4375 118.183594 262.644531 Z M 113.578125 136.25 C 113.765625 132.382812 113.984375 128.828125 114.25 125.386719 C 114.789062 118.578125 116.222656 110.132812 122.65625 105.246094 C 123.730469 104.464844 124.847656 103.753906 126.003906 103.113281 C 127.300781 102.402344 128.539062 101.601562 129.722656 100.710938 C 132.347656 98.5625 134.21875 95.882812 135.324219 92.671875 C 138.878906 93.210938 142.449219 93.53125 146.035156 93.636719 L 146.058594 93.636719 C 147.546875 93.691406 149.078125 93.71875 150.648438 93.71875 C 155.0625 93.71875 159.789062 93.507812 164.753906 93.089844 C 165.800781 95.253906 167.296875 97.03125 169.246094 98.429688 C 170.710938 99.398438 172.261719 100.199219 173.90625 100.824219 C 175.082031 101.292969 176.226562 101.835938 177.335938 102.445312 C 180.609375 104.339844 182.914062 107.746094 184.390625 112.855469 C 185.960938 118.316406 186.230469 124.675781 186.421875 129.320312 L 186.429688 129.507812 C 186.964844 142.429688 187.234375 155.386719 187.238281 168.378906 L 152.675781 115.453125 C 152.570312 115.289062 152.421875 115.203125 152.226562 115.195312 C 152.039062 115.207031 151.882812 115.28125 151.761719 115.421875 L 112.949219 168.007812 C 112.890625 156.636719 113.097656 146.199219 113.578125 136.25 Z M 136.890625 86.4375 C 146.839844 75.257812 155.722656 61.007812 159.257812 55.09375 C 160.105469 55.09375 160.957031 55.09375 161.808594 55.101562 L 161.824219 55.511719 C 161.875 56.839844 161.917969 58.164062 161.949219 59.492188 C 162.039062 63.136719 162.0625 66.957031 162.019531 70.851562 C 156.339844 78.617188 150.097656 86.863281 145.789062 92.507812 C 142.40625 92.398438 139.042969 92.097656 135.699219 91.609375 C 136.226562 89.914062 136.625 88.191406 136.890625 86.4375 Z M 164.082031 91.601562 C 164.136719 91.738281 164.195312 91.871094 164.246094 92.007812 C 158.566406 92.488281 152.875 92.664062 147.175781 92.535156 C 151.21875 87.234375 156.777344 79.890625 161.984375 72.796875 C 161.96875 73.574219 161.960938 74.355469 161.941406 75.132812 C 161.832031 79.609375 161.933594 86.179688 164.082031 91.609375 Z M 138.289062 60 C 138.371094 58.742188 138.46875 57.484375 138.570312 56.230469 L 138.636719 55.460938 L 138.652344 55.460938 C 141.753906 55.359375 146.800781 55.210938 152.542969 55.140625 L 153.007812 55.132812 L 153.785156 55.125 C 154.140625 55.125 154.496094 55.117188 154.859375 55.113281 L 155.261719 55.113281 C 156.144531 55.105469 157.039062 55.101562 157.945312 55.101562 C 151.796875 65.429688 144.863281 75.203125 137.152344 84.425781 C 137.472656 81.507812 137.644531 78.582031 137.671875 75.644531 C 137.777344 69.6875 137.980469 64.714844 138.289062 60 Z M 152.179688 116.742188 L 187.246094 170.453125 C 187.238281 175.433594 187.191406 180.476562 187.105469 185.457031 L 148.683594 240.722656 L 113.207031 184.925781 C 113.078125 179.785156 112.992188 174.726562 112.957031 169.886719 Z M 140.273438 46.625 C 140.359375 46.273438 140.441406 45.921875 140.5 45.578125 C 140.746094 44.171875 140.988281 42.761719 141.222656 41.351562 L 141.28125 41.015625 C 141.714844 38.4375 142.164062 35.769531 142.675781 33.167969 C 142.695312 32.882812 142.792969 32.628906 142.960938 32.402344 C 143.152344 32.285156 143.359375 32.21875 143.582031 32.207031 C 143.683594 32.191406 143.789062 32.183594 143.890625 32.167969 C 143.21875 35.523438 142.597656 38.886719 142.039062 42.261719 C 141.839844 43.457031 141.652344 44.648438 141.46875 45.839844 C 141.394531 46.328125 142.140625 46.539062 142.214844 46.046875 C 142.859375 41.839844 143.59375 37.644531 144.410156 33.46875 C 144.503906 33 144.601562 32.53125 144.695312 32.0625 C 145.269531 31.984375 145.84375 31.898438 146.421875 31.835938 C 146.195312 36.59375 145.644531 41.308594 144.769531 45.988281 C 144.679688 46.476562 145.425781 46.683594 145.515625 46.195312 C 146.300781 42.019531 146.832031 37.808594 147.109375 33.570312 C 147.148438 32.972656 147.175781 32.375 147.203125 31.777344 C 147.664062 31.738281 148.125 31.699219 148.589844 31.675781 C 148.511719 35.328125 148.386719 38.980469 148.203125 42.632812 C 148.136719 43.890625 148.066406 45.148438 147.988281 46.402344 C 147.957031 46.902344 148.734375 46.902344 148.765625 46.402344 C 149.03125 42.039062 149.222656 37.667969 149.332031 33.292969 C 149.347656 32.738281 149.355469 32.183594 149.367188 31.625 C 150.070312 31.597656 150.773438 31.585938 151.480469 31.582031 C 151.273438 35.195312 151.140625 38.816406 151.109375 42.4375 C 151.097656 43.757812 151.097656 45.078125 151.109375 46.398438 C 151.117188 46.5 151.15625 46.589844 151.230469 46.660156 C 151.304688 46.730469 151.394531 46.765625 151.496094 46.765625 C 151.601562 46.765625 151.6875 46.730469 151.761719 46.660156 C 151.839844 46.589844 151.878906 46.5 151.882812 46.398438 C 151.84375 41.796875 151.945312 37.199219 152.1875 32.597656 C 152.203125 32.261719 152.222656 31.925781 152.246094 31.582031 C 152.90625 31.589844 153.566406 31.617188 154.230469 31.648438 C 154.433594 35.253906 154.546875 38.859375 154.546875 42.46875 C 154.546875 43.730469 154.535156 44.988281 154.511719 46.25 C 154.511719 46.355469 154.550781 46.449219 154.625 46.523438 C 154.699219 46.597656 154.792969 46.636719 154.898438 46.636719 C 155.007812 46.636719 155.097656 46.597656 155.171875 46.523438 C 155.25 46.449219 155.285156 46.355469 155.285156 46.25 C 155.371094 41.828125 155.304688 37.40625 155.085938 32.988281 C 155.0625 32.550781 155.039062 32.113281 155.011719 31.679688 L 155.199219 31.6875 C 155.679688 31.699219 156.152344 31.738281 156.625 31.808594 C 157.164062 36.464844 157.703125 41.117188 158.242188 45.773438 C 158.296875 46.261719 159.074219 46.265625 159.015625 45.773438 L 157.429688 32.054688 C 157.523438 32.097656 157.605469 32.160156 157.683594 32.230469 C 157.886719 32.453125 158.039062 32.707031 158.132812 32.996094 C 158.679688 34.972656 159.117188 36.976562 159.441406 39.003906 C 159.566406 39.675781 159.691406 40.339844 159.808594 40.953125 C 160.359375 43.472656 160.707031 46.019531 160.847656 48.597656 C 154.28125 49.445312 147.527344 49.066406 140.988281 48.691406 L 139.960938 48.632812 C 139.984375 47.953125 140.089844 47.285156 140.269531 46.625 Z M 140.273438 46.625 " fill-opacity="1" fill-rule="nonzero"/></g><path fill="currentColor" d="M 169.777344 164.703125 C 169.773438 164.726562 169.746094 164.796875 169.75 164.792969 C 169.734375 164.832031 169.726562 164.867188 169.71875 164.90625 C 169.707031 164.941406 169.703125 164.960938 169.699219 164.992188 C 169.695312 165.019531 169.699219 165.070312 169.699219 165.074219 C 169.699219 165.117188 169.699219 165.164062 169.699219 165.207031 C 169.699219 165.214844 169.699219 165.222656 169.699219 165.230469 L 169.707031 165.253906 C 169.71875 165.320312 169.738281 165.390625 169.761719 165.457031 L 169.761719 165.46875 C 169.777344 165.503906 169.796875 165.539062 169.816406 165.574219 C 169.832031 165.605469 169.851562 165.632812 169.871094 165.664062 L 169.894531 165.699219 C 170.074219 165.929688 170.300781 166.09375 170.570312 166.195312 C 171.210938 166.457031 171.832031 166.414062 172.429688 166.0625 C 172.835938 165.828125 173.144531 165.503906 173.359375 165.085938 C 173.570312 164.617188 173.523438 164.179688 173.214844 163.765625 C 172.992188 163.449219 172.6875 163.273438 172.304688 163.242188 C 171.410156 163.21875 170.667969 163.546875 170.078125 164.21875 C 169.953125 164.363281 169.851562 164.527344 169.777344 164.703125 Z M 169.777344 164.703125 " fill-opacity="1" fill-rule="nonzero"/><path fill="currentColor" d="M 135.03125 205.710938 C 139.363281 207.921875 143.964844 209.019531 148.828125 209 C 150.464844 209 152.09375 208.871094 153.714844 208.617188 C 156.921875 208.117188 159.976562 207.136719 162.875 205.671875 C 165.773438 204.210938 168.378906 202.335938 170.683594 200.050781 C 175.289062 195.433594 178.320312 188.707031 179.234375 181.109375 C 179.714844 177.570312 179.660156 174.042969 179.070312 170.519531 C 178.480469 167 177.378906 163.644531 175.765625 160.460938 C 174.261719 157.664062 172.316406 155.222656 169.925781 153.132812 C 167.535156 151.046875 164.851562 149.445312 161.878906 148.332031 C 158.949219 147.21875 155.917969 146.5625 152.789062 146.355469 C 149.65625 146.152344 146.566406 146.40625 143.515625 147.125 C 142.132812 147.472656 140.777344 147.914062 139.457031 148.445312 C 138.132812 148.980469 136.851562 149.597656 135.613281 150.304688 C 134.371094 151.007812 133.1875 151.792969 132.054688 152.660156 C 130.917969 153.527344 129.851562 154.464844 128.84375 155.472656 C 127.835938 156.484375 126.902344 157.558594 126.042969 158.695312 C 125.179688 159.832031 124.398438 161.019531 123.699219 162.261719 C 122.996094 163.503906 122.382812 164.789062 121.855469 166.113281 C 121.328125 167.4375 120.894531 168.792969 120.546875 170.175781 C 119.984375 172.71875 119.714844 175.292969 119.734375 177.898438 C 119.757812 180.503906 120.070312 183.074219 120.679688 185.609375 C 121.285156 188.140625 122.171875 190.574219 123.332031 192.90625 C 124.496094 195.238281 125.902344 197.410156 127.558594 199.421875 C 129.621094 202.027344 132.113281 204.125 135.03125 205.710938 Z M 129.863281 197.488281 C 129.773438 197.394531 129.726562 197.285156 129.726562 197.15625 C 129.726562 197.03125 129.773438 196.921875 129.863281 196.828125 C 130.414062 196.386719 130.964844 195.941406 131.519531 195.496094 L 130.445312 193.738281 L 128.40625 195.160156 C 128.292969 195.222656 128.175781 195.238281 128.054688 195.207031 C 127.929688 195.171875 127.832031 195.101562 127.769531 194.992188 C 127.707031 194.882812 127.691406 194.761719 127.722656 194.640625 C 127.757812 194.515625 127.828125 194.421875 127.933594 194.355469 L 128.472656 193.980469 L 132.230469 191.359375 C 132.339844 191.296875 132.457031 191.28125 132.582031 191.3125 C 132.707031 191.347656 132.800781 191.417969 132.867188 191.527344 C 132.929688 191.640625 132.945312 191.757812 132.914062 191.882812 C 132.882812 192.007812 132.8125 192.105469 132.703125 192.171875 L 132.164062 192.546875 L 131.210938 193.210938 L 132.25 194.914062 L 133.882812 193.597656 C 133.976562 193.511719 134.085938 193.464844 134.214844 193.464844 C 134.339844 193.464844 134.449219 193.511719 134.542969 193.597656 C 134.632812 193.6875 134.679688 193.800781 134.679688 193.925781 C 134.679688 194.054688 134.632812 194.164062 134.542969 194.257812 L 130.523438 197.492188 C 130.429688 197.578125 130.320312 197.621094 130.195312 197.621094 C 130.066406 197.621094 129.957031 197.574219 129.867188 197.488281 Z M 137.695312 198.609375 C 137.257812 199.511719 136.570312 200.144531 135.636719 200.503906 C 135.203125 200.699219 134.75 200.761719 134.277344 200.695312 C 133.808594 200.628906 133.390625 200.445312 133.023438 200.136719 C 132.695312 199.851562 132.480469 199.496094 132.386719 199.070312 C 132.296875 198.640625 132.339844 198.226562 132.523438 197.832031 C 132.585938 197.71875 132.683594 197.648438 132.804688 197.617188 C 132.929688 197.582031 133.046875 197.597656 133.160156 197.664062 C 133.269531 197.730469 133.339844 197.824219 133.371094 197.949219 C 133.402344 198.070312 133.386719 198.1875 133.324219 198.300781 C 133.246094 198.5625 133.261719 198.820312 133.371094 199.074219 C 133.480469 199.328125 133.65625 199.515625 133.90625 199.636719 C 134.195312 199.757812 134.496094 199.804688 134.808594 199.773438 C 135.125 199.742188 135.410156 199.636719 135.671875 199.460938 C 136.296875 199.125 136.726562 198.621094 136.957031 197.949219 C 137.042969 197.6875 137.050781 197.421875 136.976562 197.15625 C 136.902344 196.890625 136.761719 196.667969 136.550781 196.488281 C 135.964844 196.066406 135.121094 196.441406 134.535156 196.675781 C 134.410156 196.710938 134.292969 196.695312 134.183594 196.632812 C 134.070312 196.570312 133.996094 196.476562 133.960938 196.351562 C 133.933594 196.226562 133.949219 196.109375 134.011719 196 C 134.074219 195.890625 134.167969 195.816406 134.289062 195.777344 C 135.300781 195.371094 136.59375 195.070312 137.410156 196.027344 C 137.707031 196.394531 137.882812 196.8125 137.933594 197.277344 C 137.988281 197.746094 137.910156 198.191406 137.699219 198.613281 Z M 146.164062 205.621094 C 144.855469 205.582031 143.597656 205.3125 142.390625 204.8125 C 142.269531 204.773438 142.175781 204.699219 142.113281 204.589844 C 142.050781 204.480469 142.03125 204.363281 142.066406 204.238281 C 142.097656 204.113281 142.171875 204.019531 142.285156 203.957031 C 142.394531 203.894531 142.511719 203.878906 142.636719 203.914062 C 143.121094 204.085938 143.613281 204.238281 144.117188 204.363281 C 144.304688 202.835938 144.492188 201.3125 144.675781 199.785156 C 144.679688 199.660156 144.726562 199.550781 144.816406 199.460938 C 144.90625 199.371094 145.015625 199.324219 145.144531 199.320312 C 145.269531 199.320312 145.378906 199.367188 145.472656 199.457031 C 145.5625 199.550781 145.609375 199.660156 145.609375 199.785156 L 145.019531 204.574219 C 145.398438 204.648438 145.777344 204.6875 146.164062 204.6875 C 146.292969 204.6875 146.402344 204.730469 146.492188 204.820312 C 146.585938 204.914062 146.628906 205.023438 146.632812 205.152344 C 146.632812 205.28125 146.585938 205.390625 146.496094 205.480469 C 146.40625 205.574219 146.296875 205.621094 146.167969 205.621094 Z M 151.714844 203.476562 C 151.632812 204.101562 151.363281 204.628906 150.90625 205.0625 C 150.675781 205.257812 150.414062 205.402344 150.125 205.492188 C 149.835938 205.582031 149.542969 205.617188 149.242188 205.589844 C 148.941406 205.5625 148.65625 205.476562 148.386719 205.335938 C 148.117188 205.195312 147.886719 205.007812 147.695312 204.773438 C 147.683594 204.757812 147.675781 204.742188 147.664062 204.722656 C 147.648438 204.710938 147.636719 204.695312 147.621094 204.679688 C 147.25 204.164062 147.050781 203.589844 147.023438 202.957031 C 147 202.320312 147.148438 201.730469 147.476562 201.1875 C 147.695312 200.8125 147.988281 200.507812 148.355469 200.277344 C 148.722656 200.046875 149.121094 199.914062 149.554688 199.875 C 150.035156 199.894531 150.464844 200.050781 150.839844 200.351562 C 151.21875 200.648438 151.46875 201.03125 151.597656 201.492188 C 151.820312 202.144531 151.863281 202.804688 151.71875 203.480469 Z M 157.644531 204.824219 C 157.519531 204.855469 157.402344 204.839844 157.289062 204.777344 C 157.179688 204.714844 157.105469 204.621094 157.070312 204.5 C 156.882812 203.503906 156.628906 202.515625 156.355469 201.535156 L 156.339844 201.542969 C 155.460938 201.875 154.554688 202.089844 153.621094 202.179688 C 153.777344 203.113281 153.929688 204.050781 154.085938 204.988281 C 154.117188 205.109375 154.101562 205.226562 154.039062 205.339844 C 153.976562 205.449219 153.882812 205.523438 153.761719 205.558594 C 153.636719 205.59375 153.519531 205.578125 153.40625 205.515625 C 153.296875 205.449219 153.222656 205.359375 153.1875 205.234375 L 152.304688 199.890625 C 152.273438 199.769531 152.289062 199.652344 152.351562 199.539062 C 152.414062 199.429688 152.507812 199.355469 152.628906 199.320312 C 152.753906 199.285156 152.871094 199.300781 152.984375 199.363281 C 153.09375 199.429688 153.167969 199.519531 153.203125 199.644531 C 153.292969 200.1875 153.382812 200.726562 153.472656 201.269531 C 154.375 201.183594 155.246094 200.976562 156.09375 200.648438 L 156.101562 200.648438 C 155.960938 200.164062 155.820312 199.679688 155.679688 199.199219 C 155.644531 199.078125 155.660156 198.960938 155.722656 198.847656 C 155.789062 198.738281 155.882812 198.664062 156.003906 198.632812 C 156.128906 198.597656 156.246094 198.613281 156.355469 198.675781 C 156.46875 198.738281 156.542969 198.828125 156.578125 198.953125 C 157.085938 200.699219 157.632812 202.464844 157.96875 204.253906 C 158 204.378906 157.984375 204.496094 157.921875 204.605469 C 157.859375 204.71875 157.769531 204.792969 157.648438 204.828125 Z M 166.941406 199.65625 C 166.847656 199.746094 166.738281 199.789062 166.609375 199.789062 C 166.484375 199.789062 166.375 199.746094 166.28125 199.65625 L 162.351562 196.085938 C 162.261719 195.992188 162.214844 195.882812 162.214844 195.753906 C 162.214844 195.625 162.261719 195.515625 162.351562 195.425781 C 162.441406 195.335938 162.554688 195.292969 162.679688 195.292969 C 162.808594 195.292969 162.917969 195.335938 163.011719 195.425781 L 166.941406 199 C 167.035156 199.089844 167.078125 199.203125 167.082031 199.332031 C 167.082031 199.460938 167.035156 199.574219 166.941406 199.664062 Z M 169.660156 196.566406 L 167.566406 194.785156 L 166.539062 193.914062 L 166.007812 193.460938 C 165.925781 193.390625 165.84375 193.3125 165.757812 193.234375 C 165.578125 193.453125 165.417969 193.695312 165.257812 193.910156 L 164.527344 194.882812 C 164.460938 194.992188 164.363281 195.0625 164.242188 195.09375 C 164.117188 195.128906 164 195.113281 163.890625 195.050781 C 163.777344 194.984375 163.707031 194.890625 163.675781 194.765625 C 163.644531 194.640625 163.660156 194.523438 163.722656 194.414062 C 164.1875 193.796875 164.644531 193.179688 165.109375 192.558594 C 165.199219 192.402344 165.328125 192.296875 165.496094 192.242188 C 165.667969 192.183594 165.832031 192.191406 165.996094 192.265625 C 166.289062 192.453125 166.554688 192.667969 166.796875 192.914062 L 170.316406 195.90625 C 170.773438 196.304688 170.117188 196.960938 169.660156 196.574219 Z M 172.398438 192.941406 C 171.421875 192.277344 170.4375 191.632812 169.441406 191.007812 C 169.195312 190.851562 168.941406 190.695312 168.691406 190.542969 C 168.582031 190.464844 168.46875 190.398438 168.347656 190.34375 C 168.332031 190.34375 168.320312 190.339844 168.304688 190.332031 C 168.289062 190.34375 168.277344 190.355469 168.265625 190.371094 C 167.96875 190.855469 167.636719 191.324219 167.324219 191.796875 C 166.992188 192.292969 166.1875 191.828125 166.515625 191.324219 L 167.117188 190.425781 C 167.269531 190.148438 167.457031 189.890625 167.667969 189.65625 C 168.207031 189.136719 168.832031 189.542969 169.351562 189.859375 C 170.542969 190.589844 171.714844 191.351562 172.867188 192.140625 C 173.355469 192.480469 172.894531 193.289062 172.398438 192.949219 Z M 173.722656 190.480469 C 172.1875 189.648438 170.644531 188.8125 169.164062 187.882812 C 168.65625 187.566406 169.125 186.761719 169.632812 187.082031 C 171.113281 188.007812 172.65625 188.84375 174.191406 189.675781 C 174.722656 189.972656 174.253906 190.777344 173.726562 190.488281 Z M 175.835938 184.734375 L 173.839844 184.105469 L 172.96875 185.96875 L 175.199219 186.851562 C 175.324219 186.886719 175.414062 186.960938 175.476562 187.070312 C 175.542969 187.183594 175.558594 187.300781 175.527344 187.421875 C 175.492188 187.546875 175.417969 187.640625 175.308594 187.703125 C 175.195312 187.765625 175.078125 187.78125 174.953125 187.75 L 174.339844 187.507812 L 170.082031 185.820312 C 169.960938 185.785156 169.867188 185.710938 169.804688 185.601562 C 169.742188 185.488281 169.726562 185.371094 169.757812 185.25 C 169.792969 185.125 169.867188 185.03125 169.976562 184.96875 C 170.089844 184.90625 170.207031 184.890625 170.332031 184.921875 L 170.945312 185.164062 L 172.101562 185.621094 C 172.386719 185.023438 172.667969 184.421875 172.945312 183.816406 L 170.917969 183.1875 C 170.347656 183.007812 170.59375 182.105469 171.164062 182.289062 L 176.085938 183.847656 C 176.65625 184.027344 176.410156 184.925781 175.835938 184.742188 Z M 176.867188 180.3125 C 176.808594 180.742188 176.621094 181.113281 176.316406 181.421875 C 176.007812 181.726562 175.636719 181.914062 175.207031 181.972656 C 175.078125 181.972656 174.96875 181.925781 174.875 181.835938 C 174.785156 181.746094 174.742188 181.636719 174.738281 181.507812 C 174.742188 181.378906 174.789062 181.273438 174.878906 181.183594 C 174.96875 181.09375 175.078125 181.046875 175.207031 181.042969 C 175.730469 180.972656 176.015625 180.289062 175.972656 179.8125 C 175.847656 179.1875 175.496094 178.742188 174.914062 178.480469 C 174.269531 178.117188 173.589844 178.027344 172.871094 178.214844 C 172.574219 178.292969 172.332031 178.453125 172.148438 178.703125 C 171.964844 178.949219 171.878906 179.226562 171.894531 179.535156 C 171.984375 180.144531 172.621094 180.5625 173.085938 180.882812 C 173.203125 180.945312 173.28125 181.039062 173.316406 181.167969 C 173.355469 181.292969 173.339844 181.414062 173.273438 181.53125 C 173.207031 181.644531 173.109375 181.71875 172.976562 181.75 C 172.847656 181.78125 172.726562 181.757812 172.617188 181.6875 C 171.769531 181.101562 170.832031 180.328125 170.972656 179.179688 C 171.054688 178.675781 171.277344 178.246094 171.640625 177.886719 C 172.007812 177.527344 172.441406 177.3125 172.945312 177.242188 C 173.988281 177.082031 174.933594 177.3125 175.785156 177.933594 C 176.179688 178.195312 176.476562 178.539062 176.671875 178.96875 C 176.867188 179.398438 176.933594 179.851562 176.871094 180.320312 Z M 174.59375 166.371094 C 174.703125 166.304688 174.820312 166.289062 174.945312 166.324219 C 175.070312 166.355469 175.164062 166.425781 175.230469 166.539062 C 175.796875 167.761719 176.128906 169.046875 176.21875 170.390625 C 176.21875 170.519531 176.175781 170.628906 176.082031 170.71875 C 175.992188 170.8125 175.882812 170.855469 175.753906 170.859375 C 175.628906 170.855469 175.519531 170.808594 175.429688 170.71875 C 175.339844 170.628906 175.292969 170.519531 175.289062 170.390625 C 175.257812 170.09375 175.230469 169.898438 175.175781 169.585938 C 175.140625 169.386719 175.097656 169.1875 175.058594 168.992188 L 171.003906 170.433594 C 170.882812 170.464844 170.761719 170.449219 170.652344 170.386719 C 170.539062 170.324219 170.46875 170.230469 170.433594 170.109375 C 170.402344 169.984375 170.417969 169.867188 170.480469 169.753906 C 170.542969 169.644531 170.636719 169.570312 170.757812 169.535156 L 174.828125 168.085938 C 174.792969 167.96875 174.765625 167.84375 174.726562 167.730469 C 174.683594 167.59375 174.632812 167.457031 174.578125 167.324219 C 174.554688 167.269531 174.480469 167.109375 174.425781 167.007812 C 174.363281 166.894531 174.347656 166.777344 174.378906 166.65625 C 174.414062 166.53125 174.484375 166.4375 174.59375 166.371094 Z M 174.191406 163.621094 C 174.488281 164.273438 174.476562 164.917969 174.15625 165.558594 C 173.863281 166.128906 173.4375 166.566406 172.878906 166.878906 C 172.320312 167.191406 171.722656 167.320312 171.085938 167.269531 C 170.632812 167.246094 170.214844 167.109375 169.828125 166.867188 C 169.445312 166.621094 169.148438 166.296875 168.933594 165.898438 C 168.84375 165.65625 168.800781 165.40625 168.792969 165.148438 C 168.789062 164.894531 168.824219 164.640625 168.902344 164.398438 C 168.980469 164.152344 169.097656 163.925781 169.25 163.71875 C 169.402344 163.515625 169.582031 163.335938 169.792969 163.191406 C 170.242188 162.796875 170.761719 162.535156 171.347656 162.414062 C 171.929688 162.289062 172.507812 162.320312 173.078125 162.5 C 173.59375 162.734375 173.964844 163.105469 174.195312 163.621094 Z M 165.085938 160.082031 C 165.121094 160.054688 165.199219 159.996094 165.273438 159.933594 C 165.347656 159.875 165.441406 159.796875 165.527344 159.726562 C 165.691406 159.585938 165.855469 159.441406 166.015625 159.296875 C 166.382812 158.96875 166.738281 158.632812 167.097656 158.300781 C 167.78125 157.667969 168.460938 157.027344 169.203125 156.460938 C 169.316406 156.398438 169.433594 156.382812 169.554688 156.414062 C 169.679688 156.449219 169.773438 156.519531 169.839844 156.628906 C 169.902344 156.742188 169.914062 156.859375 169.882812 156.980469 C 169.851562 157.105469 169.78125 157.199219 169.675781 157.265625 C 169.640625 157.292969 169.5625 157.355469 169.488281 157.414062 C 169.414062 157.476562 169.316406 157.554688 169.234375 157.625 C 169.070312 157.765625 168.90625 157.910156 168.746094 158.050781 C 168.378906 158.378906 168.019531 158.714844 167.664062 159.046875 C 167.597656 159.105469 167.535156 159.160156 167.472656 159.222656 C 168.148438 159.851562 168.730469 160.554688 169.222656 161.332031 L 171.605469 159.601562 C 171.714844 159.539062 171.832031 159.523438 171.957031 159.554688 C 172.082031 159.585938 172.175781 159.660156 172.242188 159.769531 C 172.300781 159.878906 172.316406 159.996094 172.285156 160.121094 C 172.253906 160.242188 172.183594 160.339844 172.074219 160.40625 L 167.695312 163.589844 C 167.582031 163.652344 167.464844 163.667969 167.339844 163.636719 C 167.21875 163.601562 167.121094 163.53125 167.058594 163.421875 C 166.996094 163.308594 166.980469 163.191406 167.015625 163.070312 C 167.046875 162.945312 167.117188 162.851562 167.226562 162.785156 L 168.488281 161.867188 C 168.394531 161.722656 168.308594 161.578125 168.210938 161.441406 C 168.136719 161.339844 168.0625 161.238281 167.984375 161.140625 L 167.964844 161.109375 L 167.925781 161.058594 C 167.886719 161.011719 167.847656 160.960938 167.816406 160.914062 C 167.503906 160.535156 167.167969 160.183594 166.804688 159.851562 C 166.40625 160.210938 166 160.5625 165.578125 160.886719 C 165.464844 160.949219 165.347656 160.964844 165.222656 160.933594 C 165.097656 160.902344 165.003906 160.828125 164.9375 160.71875 C 164.875 160.609375 164.859375 160.492188 164.890625 160.371094 C 164.917969 160.25 164.988281 160.152344 165.09375 160.082031 Z M 159.449219 155.980469 C 159.804688 154.246094 160.15625 152.511719 160.511719 150.777344 C 160.632812 150.191406 161.53125 150.441406 161.410156 151.023438 C 161.054688 152.757812 160.703125 154.492188 160.347656 156.230469 C 160.230469 156.816406 159.332031 156.570312 159.453125 155.980469 Z M 155.355469 154.007812 C 155.613281 152.488281 155.871094 150.972656 156.128906 149.453125 C 156.164062 149.332031 156.238281 149.238281 156.351562 149.175781 C 156.460938 149.109375 156.578125 149.097656 156.703125 149.128906 C 156.824219 149.164062 156.917969 149.238281 156.980469 149.351562 C 157.042969 149.460938 157.058594 149.578125 157.027344 149.703125 L 156.566406 152.410156 L 156.34375 153.738281 C 156.304688 153.96875 156.265625 154.199219 156.230469 154.429688 C 156.214844 154.53125 156.1875 154.640625 156.167969 154.75 C 156.445312 154.792969 156.742188 154.808594 157.007812 154.835938 L 158.214844 154.964844 C 158.34375 154.964844 158.453125 155.011719 158.542969 155.101562 C 158.632812 155.191406 158.679688 155.300781 158.679688 155.429688 C 158.679688 155.558594 158.636719 155.667969 158.542969 155.757812 C 158.453125 155.847656 158.34375 155.894531 158.214844 155.894531 C 157.449219 155.8125 156.679688 155.742188 155.910156 155.648438 C 155.558594 155.605469 155.238281 155.425781 155.210938 155.035156 C 155.222656 154.6875 155.273438 154.34375 155.359375 154.007812 Z M 151.417969 153.445312 C 151.433594 152.023438 151.492188 150.605469 151.582031 149.195312 C 151.621094 148.597656 152.554688 148.59375 152.515625 149.195312 C 152.4375 150.390625 152.386719 151.59375 152.359375 152.800781 C 152.359375 153.105469 152.347656 153.410156 152.347656 153.714844 C 152.347656 153.8125 152.351562 153.910156 152.351562 154.011719 L 152.371094 154.082031 C 152.328125 154.042969 152.324219 154.03125 152.359375 154.042969 C 152.394531 154.042969 152.429688 154.050781 152.464844 154.054688 C 153.011719 154.113281 153.574219 154.109375 154.128906 154.136719 C 154.726562 154.164062 154.726562 155.097656 154.128906 155.066406 L 153.117188 155.019531 C 152.789062 155.027344 152.460938 155.003906 152.136719 154.945312 C 151.417969 154.761719 151.414062 154.0625 151.421875 153.449219 Z M 149.726562 149.316406 C 149.792969 151.058594 149.867188 152.8125 149.824219 154.5625 C 149.820312 154.683594 149.769531 154.789062 149.679688 154.875 C 149.589844 154.960938 149.484375 155.003906 149.359375 155.003906 C 149.234375 155.003906 149.128906 154.960938 149.039062 154.875 C 148.949219 154.789062 148.898438 154.683594 148.894531 154.5625 C 148.933594 152.8125 148.863281 151.058594 148.796875 149.316406 C 148.773438 148.714844 149.703125 148.71875 149.726562 149.316406 Z M 143.707031 150.429688 C 143.867188 151.109375 144.027344 151.789062 144.1875 152.472656 L 146.234375 152.265625 L 145.851562 149.898438 C 145.820312 149.773438 145.835938 149.65625 145.898438 149.542969 C 145.960938 149.433594 146.054688 149.359375 146.175781 149.324219 C 146.300781 149.289062 146.417969 149.304688 146.527344 149.367188 C 146.640625 149.433594 146.714844 149.523438 146.75 149.648438 L 146.851562 150.289062 C 147.097656 151.796875 147.339844 153.308594 147.585938 154.816406 C 147.617188 154.941406 147.601562 155.058594 147.539062 155.167969 C 147.476562 155.28125 147.382812 155.351562 147.261719 155.390625 C 147.136719 155.421875 147.019531 155.40625 146.90625 155.34375 C 146.796875 155.28125 146.722656 155.1875 146.6875 155.0625 L 146.582031 154.421875 C 146.519531 154.007812 146.449219 153.597656 146.382812 153.1875 L 144.398438 153.386719 L 144.882812 155.460938 C 145.019531 156.046875 144.121094 156.292969 143.984375 155.707031 L 142.808594 150.679688 C 142.675781 150.09375 143.574219 149.847656 143.707031 150.429688 Z M 139.246094 151.859375 C 139.640625 151.664062 140.054688 151.605469 140.488281 151.683594 C 140.921875 151.765625 141.289062 151.96875 141.585938 152.292969 C 141.671875 152.386719 141.71875 152.496094 141.71875 152.621094 C 141.71875 152.75 141.671875 152.859375 141.585938 152.953125 C 141.496094 153.042969 141.386719 153.089844 141.257812 153.089844 C 141.128906 153.089844 141.019531 153.042969 140.925781 152.953125 C 140.757812 152.71875 140.53125 152.597656 140.242188 152.589844 C 139.9375 152.574219 139.660156 152.652344 139.410156 152.832031 C 138.921875 153.277344 138.71875 153.828125 138.804688 154.480469 C 138.835938 155.195312 139.105469 155.804688 139.613281 156.308594 C 139.828125 156.519531 140.082031 156.644531 140.382812 156.683594 C 140.679688 156.71875 140.960938 156.660156 141.21875 156.503906 C 141.726562 156.125 141.761719 155.339844 141.800781 154.757812 C 141.800781 154.632812 141.847656 154.519531 141.9375 154.429688 C 142.03125 154.339844 142.140625 154.292969 142.269531 154.292969 C 142.398438 154.292969 142.507812 154.339844 142.597656 154.429688 C 142.6875 154.519531 142.734375 154.632812 142.734375 154.757812 C 142.667969 155.769531 142.484375 156.976562 141.445312 157.4375 C 140.976562 157.632812 140.496094 157.667969 140.003906 157.546875 C 139.511719 157.421875 139.101562 157.167969 138.773438 156.78125 C 138.117188 156.003906 137.820312 155.109375 137.875 154.09375 C 137.878906 153.625 138.003906 153.1875 138.25 152.785156 C 138.496094 152.382812 138.828125 152.074219 139.246094 151.859375 Z M 145.691406 157.867188 C 154.183594 155.949219 162.738281 159.347656 166.496094 166.136719 C 170.71875 173.773438 169.21875 185.140625 163.21875 190.964844 C 161.296875 192.773438 159.105469 194.15625 156.648438 195.121094 C 154.191406 196.085938 151.640625 196.554688 149 196.535156 C 145.894531 196.554688 142.945312 195.875 140.15625 194.503906 C 138.308594 193.53125 136.71875 192.238281 135.398438 190.621094 C 134.328125 189.375 133.414062 188.027344 132.660156 186.570312 C 131.90625 185.109375 131.332031 183.585938 130.9375 181.992188 C 130.542969 180.402344 130.335938 178.785156 130.320312 177.144531 C 130.304688 175.503906 130.476562 173.882812 130.839844 172.28125 C 131.308594 170.523438 132.007812 168.855469 132.929688 167.285156 C 133.851562 165.710938 134.964844 164.289062 136.273438 163.023438 C 137.582031 161.753906 139.035156 160.679688 140.632812 159.804688 C 142.230469 158.929688 143.917969 158.285156 145.691406 157.867188 Z M 128.042969 160.714844 C 128.34375 160.183594 128.703125 159.699219 129.125 159.253906 C 129.519531 158.820312 129.9375 158.410156 130.382812 158.03125 C 130.476562 157.941406 130.585938 157.898438 130.710938 157.898438 C 130.839844 157.898438 130.949219 157.941406 131.042969 158.03125 C 131.132812 158.121094 131.175781 158.230469 131.175781 158.359375 C 131.175781 158.488281 131.132812 158.597656 131.042969 158.6875 C 130.703125 158.980469 130.386719 159.300781 130.078125 159.625 L 133.1875 161.871094 C 133.292969 161.9375 133.363281 162.03125 133.394531 162.15625 C 133.429688 162.277344 133.414062 162.394531 133.351562 162.507812 C 133.285156 162.617188 133.191406 162.691406 133.066406 162.722656 C 132.945312 162.753906 132.824219 162.738281 132.714844 162.675781 L 129.445312 160.304688 L 129.371094 160.394531 L 129.339844 160.433594 L 129.28125 160.511719 C 129.121094 160.722656 128.976562 160.949219 128.851562 161.183594 C 128.789062 161.300781 128.691406 161.375 128.566406 161.410156 C 128.4375 161.445312 128.320312 161.429688 128.207031 161.363281 C 128.09375 161.296875 128.019531 161.199219 127.988281 161.074219 C 127.957031 160.945312 127.976562 160.824219 128.046875 160.714844 Z M 127.785156 162.074219 C 128.386719 161.984375 128.960938 162.066406 129.511719 162.328125 C 130.0625 162.585938 130.496094 162.976562 130.808594 163.5 C 131.007812 163.839844 131.125 164.203125 131.15625 164.59375 C 131.1875 164.988281 131.132812 165.367188 130.984375 165.730469 C 130.808594 166.089844 130.542969 166.367188 130.191406 166.5625 C 129.839844 166.757812 129.464844 166.835938 129.066406 166.796875 C 128.453125 166.765625 127.890625 166.578125 127.382812 166.230469 C 126.839844 165.894531 126.4375 165.4375 126.175781 164.859375 C 126.070312 164.566406 126.035156 164.269531 126.066406 163.960938 C 126.09375 163.652344 126.183594 163.363281 126.339844 163.097656 C 126.496094 162.828125 126.699219 162.605469 126.949219 162.425781 C 127.203125 162.25 127.480469 162.128906 127.785156 162.074219 Z M 123.859375 169.777344 C 124.738281 170.046875 125.632812 170.269531 126.535156 170.445312 C 126.664062 169.628906 126.882812 168.839844 127.199219 168.078125 L 124.746094 167.210938 C 124.625 167.175781 124.53125 167.101562 124.46875 166.988281 C 124.40625 166.878906 124.390625 166.761719 124.425781 166.636719 C 124.460938 166.515625 124.53125 166.421875 124.644531 166.355469 C 124.753906 166.292969 124.871094 166.277344 124.996094 166.3125 L 129.703125 167.976562 C 129.828125 168.011719 129.921875 168.085938 129.984375 168.199219 C 130.046875 168.308594 130.058594 168.425781 130.027344 168.550781 C 129.992188 168.675781 129.917969 168.765625 129.808594 168.832031 C 129.695312 168.894531 129.578125 168.910156 129.457031 168.875 L 128.058594 168.382812 C 127.917969 168.707031 127.800781 169.039062 127.699219 169.378906 C 127.640625 169.59375 127.589844 169.808594 127.539062 170.027344 C 127.515625 170.136719 127.492188 170.25 127.472656 170.363281 C 127.464844 170.410156 127.457031 170.460938 127.449219 170.507812 L 127.433594 170.605469 L 127.433594 170.640625 C 127.882812 170.753906 128.332031 170.867188 128.765625 171.007812 C 129.332031 171.195312 129.089844 172.09375 128.515625 171.90625 C 126.914062 171.382812 125.21875 171.195312 123.613281 170.671875 C 123.042969 170.488281 123.285156 169.589844 123.859375 169.777344 Z M 122.714844 180.605469 L 127.863281 179.308594 C 127.988281 179.277344 128.101562 179.296875 128.210938 179.359375 C 128.320312 179.421875 128.390625 179.515625 128.425781 179.636719 C 128.457031 179.757812 128.445312 179.875 128.382812 179.988281 C 128.324219 180.097656 128.230469 180.171875 128.113281 180.207031 L 122.960938 181.503906 C 122.839844 181.535156 122.722656 181.519531 122.609375 181.457031 C 122.5 181.394531 122.425781 181.300781 122.390625 181.175781 C 122.359375 181.054688 122.371094 180.933594 122.433594 180.824219 C 122.496094 180.710938 122.589844 180.640625 122.714844 180.605469 Z M 123.417969 185.125 L 126.054688 184.371094 L 127.375 183.992188 L 127.980469 183.816406 C 128.058594 183.792969 128.234375 183.757812 128.378906 183.71875 L 128.367188 183.679688 L 128.261719 183.382812 L 128.066406 182.835938 C 127.933594 182.457031 127.796875 182.074219 127.660156 181.695312 C 127.460938 181.132812 128.359375 180.886719 128.558594 181.445312 C 128.8125 182.15625 129.074219 182.867188 129.320312 183.582031 C 129.394531 183.746094 129.40625 183.914062 129.347656 184.085938 C 129.289062 184.253906 129.183594 184.382812 129.023438 184.46875 C 128.683594 184.609375 128.335938 184.714844 127.976562 184.789062 L 123.667969 186.023438 C 123.542969 186.058594 123.425781 186.042969 123.3125 185.980469 C 123.199219 185.914062 123.128906 185.820312 123.09375 185.695312 C 123.058594 185.574219 123.074219 185.453125 123.136719 185.34375 C 123.203125 185.230469 123.296875 185.15625 123.417969 185.121094 Z M 124.714844 189.949219 C 124.683594 189.824219 124.699219 189.707031 124.761719 189.597656 C 124.824219 189.488281 124.917969 189.414062 125.039062 189.375 C 126.125 188.9375 127.199219 188.476562 128.265625 187.988281 C 128.542969 187.863281 128.816406 187.738281 129.089844 187.605469 C 129.171875 187.570312 129.339844 187.523438 129.390625 187.453125 C 129.390625 187.441406 129.390625 187.433594 129.390625 187.421875 C 129.363281 187.289062 129.3125 187.164062 129.246094 187.046875 C 129.191406 186.921875 129.140625 186.796875 129.085938 186.675781 C 128.96875 186.398438 128.851562 186.121094 128.734375 185.84375 C 128.671875 185.730469 128.660156 185.613281 128.691406 185.492188 C 128.722656 185.367188 128.792969 185.273438 128.902344 185.207031 C 129.011719 185.140625 129.128906 185.125 129.253906 185.160156 C 129.378906 185.191406 129.472656 185.261719 129.539062 185.371094 L 129.960938 186.371094 C 130.113281 186.664062 130.230469 186.972656 130.316406 187.296875 C 130.445312 188.0625 129.714844 188.34375 129.148438 188.601562 C 127.875 189.195312 126.589844 189.75 125.285156 190.273438 C 125.164062 190.308594 125.042969 190.292969 124.933594 190.226562 C 124.820312 190.164062 124.75 190.070312 124.714844 189.945312 Z M 126.242188 191.886719 C 127.785156 191.070312 129.335938 190.246094 130.929688 189.527344 C 131.039062 189.46875 131.15625 189.453125 131.28125 189.484375 C 131.402344 189.515625 131.5 189.585938 131.566406 189.695312 C 131.628906 189.804688 131.644531 189.925781 131.613281 190.046875 C 131.582031 190.171875 131.507812 190.265625 131.398438 190.332031 C 129.804688 191.054688 128.253906 191.878906 126.714844 192.691406 C 126.1875 192.96875 125.710938 192.164062 126.242188 191.882812 Z M 126.242188 191.886719 " fill-opacity="1" fill-rule="nonzero"/><path fill="currentColor" d="M 150.546875 201.425781 C 150.519531 201.382812 150.492188 201.335938 150.464844 201.292969 L 150.421875 201.238281 C 150.371094 201.175781 150.320312 201.117188 150.261719 201.066406 C 150.242188 201.046875 150.21875 201.027344 150.199219 201.011719 L 150.121094 200.957031 C 150.09375 200.941406 150.0625 200.921875 150.03125 200.90625 C 150 200.890625 149.992188 200.886719 149.976562 200.882812 C 149.910156 200.859375 149.847656 200.839844 149.777344 200.824219 C 149.761719 200.816406 149.746094 200.816406 149.726562 200.816406 L 149.675781 200.816406 C 149.605469 200.816406 149.539062 200.816406 149.46875 200.824219 C 149.457031 200.824219 149.445312 200.824219 149.433594 200.824219 C 149.398438 200.832031 149.359375 200.839844 149.324219 200.851562 C 149.261719 200.867188 149.199219 200.890625 149.140625 200.914062 L 149.078125 200.941406 L 148.984375 200.988281 C 148.914062 201.03125 148.84375 201.078125 148.773438 201.125 C 148.769531 201.125 148.773438 201.125 148.773438 201.125 L 148.753906 201.140625 C 148.726562 201.164062 148.695312 201.191406 148.667969 201.214844 C 148.605469 201.273438 148.542969 201.335938 148.484375 201.402344 C 148.453125 201.433594 148.425781 201.46875 148.398438 201.503906 L 148.386719 201.511719 L 148.375 201.53125 C 148.28125 201.671875 148.199219 201.816406 148.121094 201.96875 L 148.121094 201.976562 C 148.113281 202 148.105469 202.019531 148.097656 202.042969 C 148.089844 202.066406 148.070312 202.117188 148.058594 202.15625 C 148.03125 202.238281 148.011719 202.324219 147.992188 202.410156 C 147.992188 202.433594 147.980469 202.492188 147.976562 202.5 C 147.976562 202.53125 147.972656 202.5625 147.96875 202.59375 C 147.960938 202.699219 147.960938 202.800781 147.96875 202.902344 C 147.996094 203.371094 148.144531 203.792969 148.417969 204.171875 C 148.554688 204.351562 148.722656 204.484375 148.925781 204.582031 C 149.132812 204.667969 149.347656 204.695312 149.574219 204.667969 L 149.609375 204.667969 L 149.6875 204.652344 C 149.746094 204.640625 149.800781 204.628906 149.855469 204.613281 C 149.90625 204.597656 149.960938 204.578125 150.011719 204.554688 C 149.957031 204.582031 150.097656 204.507812 150.117188 204.5 C 150.207031 204.453125 150.28125 204.398438 150.351562 204.328125 C 150.421875 204.269531 150.476562 204.199219 150.523438 204.121094 C 150.761719 203.691406 150.878906 203.234375 150.875 202.746094 C 150.886719 202.492188 150.859375 202.242188 150.792969 202 C 150.742188 201.792969 150.660156 201.605469 150.546875 201.425781 Z M 150.546875 201.425781 " fill-opacity="1" fill-rule="nonzero"/><path fill="currentColor" d="M 128.347656 165.703125 C 128.542969 165.785156 128.742188 165.835938 128.949219 165.859375 C 129.039062 165.867188 129.128906 165.871094 129.222656 165.867188 L 129.347656 165.863281 C 129.355469 165.863281 129.386719 165.863281 129.410156 165.851562 C 129.484375 165.839844 129.5625 165.820312 129.632812 165.800781 C 129.65625 165.792969 129.679688 165.78125 129.699219 165.777344 L 129.707031 165.777344 L 129.714844 165.769531 C 129.769531 165.734375 129.828125 165.699219 129.886719 165.667969 C 129.90625 165.648438 129.933594 165.628906 129.953125 165.605469 C 129.976562 165.585938 129.992188 165.566406 130.011719 165.546875 C 130.019531 165.535156 130.03125 165.523438 130.039062 165.507812 C 130.066406 165.46875 130.09375 165.421875 130.117188 165.378906 C 130.125 165.367188 130.132812 165.355469 130.136719 165.34375 C 130.144531 165.324219 130.152344 165.308594 130.15625 165.289062 C 130.175781 165.230469 130.195312 165.167969 130.207031 165.109375 C 130.214844 165.078125 130.230469 164.933594 130.21875 165.074219 C 130.21875 165.039062 130.226562 165.007812 130.226562 164.976562 C 130.230469 164.910156 130.230469 164.84375 130.226562 164.777344 C 130.226562 164.722656 130.21875 164.664062 130.214844 164.609375 C 130.226562 164.746094 130.199219 164.53125 130.191406 164.496094 C 130.171875 164.417969 130.148438 164.339844 130.121094 164.261719 C 130.109375 164.226562 130.097656 164.195312 130.085938 164.160156 C 130.125 164.273438 130.085938 164.160156 130.074219 164.140625 C 130.015625 164.019531 129.949219 163.90625 129.875 163.792969 L 129.835938 163.734375 L 129.78125 163.644531 C 129.730469 163.589844 129.679688 163.535156 129.621094 163.484375 L 129.535156 163.40625 L 129.523438 163.394531 L 129.507812 163.386719 C 129.457031 163.347656 129.394531 163.3125 129.347656 163.273438 C 128.941406 163.023438 128.503906 162.921875 128.03125 162.972656 C 127.796875 163 127.589844 163.089844 127.410156 163.238281 C 127.230469 163.386719 127.105469 163.574219 127.035156 163.800781 C 126.890625 164.226562 126.976562 164.597656 127.289062 164.921875 C 127.582031 165.265625 127.9375 165.523438 128.347656 165.703125 Z M 128.347656 165.703125 " fill-opacity="1" fill-rule="nonzero"/><path fill="currentColor" d="M 139.328125 171.347656 C 139.546875 171.308594 139.761719 171.246094 139.96875 171.160156 C 139.625 171.664062 139.386719 172.210938 139.257812 172.804688 C 139.113281 173.832031 139.164062 174.851562 139.414062 175.863281 C 139.660156 176.871094 140.089844 177.800781 140.699219 178.644531 C 142.949219 182.019531 145.84375 184.703125 149.386719 186.691406 C 151.226562 189.332031 153.566406 191.980469 156.894531 193.210938 C 157.007812 193.257812 157.128906 193.28125 157.25 193.285156 C 157.351562 193.285156 157.445312 193.261719 157.539062 193.222656 C 157.730469 193.144531 157.859375 193.007812 157.933594 192.816406 C 158.019531 192.546875 158 192.285156 157.871094 192.03125 C 157.542969 191.347656 157.15625 190.695312 156.722656 190.074219 C 157.773438 190.351562 158.84375 190.496094 159.929688 190.503906 C 160.355469 190.503906 160.773438 190.480469 161.195312 190.4375 C 161.425781 190.421875 161.621094 190.328125 161.777344 190.160156 C 161.910156 190.003906 161.964844 189.824219 161.945312 189.617188 C 161.898438 189.339844 161.765625 189.113281 161.539062 188.945312 C 160.667969 188.292969 159.746094 187.722656 158.773438 187.230469 C 158.332031 186.992188 157.890625 186.757812 157.460938 186.5 C 155.773438 185.511719 154.285156 184.285156 152.992188 182.816406 C 152.851562 182.285156 152.746094 181.746094 152.675781 181.203125 C 152.425781 178.714844 152.363281 176.21875 152.488281 173.722656 C 152.503906 172.992188 152.523438 172.261719 152.53125 171.539062 C 152.554688 169.792969 152.394531 167.855469 151.039062 166.6875 C 150.359375 166.132812 149.582031 165.871094 148.707031 165.902344 C 148.71875 165.425781 148.765625 164.953125 148.847656 164.484375 C 148.894531 164.226562 148.933594 163.957031 148.984375 163.679688 C 149.042969 163.285156 149.148438 162.902344 149.292969 162.53125 C 149.371094 162.347656 148.222656 162.457031 148.109375 162.523438 C 147.875 162.660156 147.742188 162.863281 147.703125 163.132812 C 147.527344 163.765625 147.472656 164.40625 147.539062 165.054688 C 146.898438 164.226562 146.097656 163.613281 145.128906 163.210938 C 143.84375 162.714844 142.511719 162.445312 141.136719 162.402344 C 141.683594 163.546875 142.5 164.445312 143.589844 165.097656 C 144.28125 165.652344 145.042969 166.074219 145.878906 166.363281 C 146.09375 166.425781 146.3125 166.464844 146.535156 166.484375 C 146.003906 166.777344 145.546875 167.160156 145.167969 167.632812 C 144.765625 168.167969 144.464844 168.753906 144.257812 169.394531 C 144.199219 169.375 144.148438 169.347656 144.085938 169.332031 C 143.230469 169.136719 142.417969 169.246094 141.648438 169.667969 C 141.445312 169.238281 141.277344 168.796875 141.140625 168.339844 C 141.066406 168.089844 140.980469 167.824219 140.902344 167.554688 C 140.78125 167.171875 140.703125 166.785156 140.664062 166.386719 C 140.652344 166.1875 139.675781 166.796875 139.605469 166.910156 C 139.457031 167.136719 139.425781 167.378906 139.511719 167.636719 C 139.640625 168.277344 139.875 168.878906 140.226562 169.433594 C 139.285156 168.976562 138.289062 168.785156 137.246094 168.859375 C 135.875 168.992188 134.566406 169.347656 133.316406 169.925781 C 134.316406 170.707031 135.453125 171.144531 136.71875 171.238281 C 137.582031 171.425781 138.453125 171.464844 139.328125 171.347656 Z M 142.300781 171.714844 C 142.367188 171.765625 142.636719 171.496094 142.664062 171.453125 C 142.488281 171.199219 142.320312 170.929688 142.15625 170.652344 C 142.511719 170.460938 142.890625 170.359375 143.292969 170.355469 C 143.46875 170.355469 143.644531 170.375 143.8125 170.417969 C 145.09375 170.742188 145.898438 172.085938 146.582031 173.492188 C 146.894531 174.136719 147.203125 174.789062 147.507812 175.441406 C 148.539062 177.785156 149.738281 180.039062 151.109375 182.203125 C 152.648438 184.382812 154.574219 186.132812 156.890625 187.460938 C 157.332031 187.726562 157.789062 187.972656 158.238281 188.21875 C 158.917969 188.570312 159.582031 188.957031 160.226562 189.378906 C 156.886719 189.476562 153.683594 187.917969 150.988281 186.359375 C 146.519531 183.761719 143.550781 181.125 141.648438 178.054688 C 141.117188 177.332031 140.742188 176.535156 140.519531 175.667969 C 140.292969 174.800781 140.238281 173.921875 140.355469 173.03125 C 140.535156 172.246094 140.933594 171.59375 141.554688 171.074219 C 141.789062 171.304688 142.039062 171.515625 142.300781 171.714844 Z M 147.996094 167.109375 C 148.105469 167.421875 148.230469 167.722656 148.375 168.015625 C 148.410156 168.089844 148.769531 167.96875 148.816406 167.945312 C 148.773438 167.636719 148.742188 167.320312 148.722656 167.003906 C 148.738281 167.003906 148.753906 167.003906 148.769531 167.003906 C 149.347656 166.988281 149.859375 167.167969 150.304688 167.535156 C 151.308594 168.402344 151.429688 169.960938 151.410156 171.519531 C 151.398438 172.246094 151.382812 172.96875 151.363281 173.695312 C 151.261719 176.035156 151.308594 178.371094 151.5 180.703125 C 150.402344 178.847656 149.410156 176.933594 148.523438 174.964844 C 148.214844 174.308594 147.90625 173.652344 147.589844 173 C 147.085938 171.761719 146.316406 170.71875 145.277344 169.878906 C 145.441406 169.316406 145.699219 168.796875 146.046875 168.328125 C 146.5625 167.707031 147.210938 167.300781 147.996094 167.113281 Z M 155.246094 189.902344 C 155.695312 190.546875 156.136719 191.167969 156.507812 191.835938 C 154.714844 190.941406 153.183594 189.714844 151.925781 188.152344 C 152.921875 188.691406 153.949219 189.15625 155.007812 189.554688 C 155.085938 189.671875 155.164062 189.789062 155.242188 189.902344 Z M 155.246094 189.902344 " fill-opacity="1" fill-rule="nonzero"/><path fill="currentColor" d="M 136.824219 95.5 C 135.925781 96.128906 135.257812 96.941406 134.8125 97.941406 L 134.589844 98.339844 C 133.246094 100.507812 131.503906 102.285156 129.355469 103.667969 C 121.265625 109.410156 116.886719 119.320312 117.640625 130.175781 C 117.664062 130.90625 117.925781 131.539062 118.425781 132.070312 C 118.667969 132.285156 118.953125 132.390625 119.277344 132.390625 C 119.320312 132.390625 119.363281 132.390625 119.402344 132.390625 C 119.925781 132.34375 120.609375 131.984375 120.914062 130.550781 C 121.253906 128.808594 121.507812 127.058594 121.667969 125.292969 C 121.847656 122.433594 122.410156 119.652344 123.355469 116.953125 C 124.71875 113.332031 127.390625 110.4375 130.242188 107.542969 C 131.089844 106.714844 131.980469 105.9375 132.910156 105.203125 C 135.648438 102.957031 138.75 100.417969 138.804688 96.523438 C 138.828125 96.238281 138.765625 95.972656 138.617188 95.726562 C 138.511719 95.59375 138.382812 95.488281 138.234375 95.40625 C 138.089844 95.328125 137.933594 95.277344 137.765625 95.253906 C 137.597656 95.234375 137.433594 95.246094 137.269531 95.289062 C 137.109375 95.332031 136.960938 95.402344 136.824219 95.5 Z M 132.191406 104.335938 C 131.230469 105.09375 130.308594 105.898438 129.433594 106.753906 C 126.496094 109.734375 123.738281 112.726562 122.300781 116.542969 C 121.316406 119.335938 120.730469 122.210938 120.546875 125.167969 C 120.386719 126.898438 120.144531 128.613281 119.8125 130.316406 C 119.691406 130.886719 119.492188 131.253906 119.296875 131.269531 C 119.238281 131.28125 119.1875 131.265625 119.148438 131.222656 C 118.886719 130.890625 118.757812 130.515625 118.757812 130.097656 C 118.035156 119.640625 122.238281 110.097656 130.007812 104.582031 C 132.292969 103.109375 134.144531 101.210938 135.566406 98.894531 L 135.789062 98.484375 C 136.136719 97.671875 136.667969 97 137.378906 96.476562 C 137.523438 96.390625 137.671875 96.371094 137.660156 96.332031 C 137.667969 96.390625 137.671875 96.449219 137.667969 96.511719 C 137.628906 99.882812 134.863281 102.144531 132.191406 104.335938 Z M 132.191406 104.335938 " fill-opacity="1" fill-rule="nonzero"/><path fill="currentColor" d="M 120.472656 137.378906 C 120.472656 136.101562 119.933594 135.679688 119.484375 135.546875 C 119.296875 135.515625 119.113281 135.519531 118.925781 135.558594 C 118.742188 135.59375 118.570312 135.664062 118.410156 135.765625 C 118.253906 135.871094 118.117188 135.996094 118.007812 136.148438 C 117.894531 136.304688 117.816406 136.472656 117.769531 136.65625 C 117.332031 138.1875 117.136719 139.75 117.179688 141.34375 C 117.144531 141.703125 117.203125 142.050781 117.347656 142.378906 C 117.496094 142.710938 117.710938 142.984375 118 143.203125 C 118.289062 143.382812 118.601562 143.480469 118.941406 143.488281 C 119.183594 143.492188 119.410156 143.429688 119.613281 143.296875 C 120.707031 142.609375 120.6875 140.277344 120.507812 137.859375 C 120.484375 137.632812 120.472656 137.464844 120.472656 137.378906 Z M 118.5625 142.230469 C 118.398438 142.136719 118.308594 141.820312 118.300781 141.332031 C 118.261719 139.867188 118.4375 138.425781 118.832031 137.015625 C 118.886719 136.832031 119 136.703125 119.171875 136.625 C 119.230469 136.644531 119.347656 136.851562 119.347656 137.375 C 119.347656 137.476562 119.363281 137.675781 119.382812 137.9375 C 119.640625 141.402344 119.261719 142.183594 119.011719 142.339844 C 118.902344 142.417969 118.640625 142.277344 118.5625 142.230469 Z M 118.5625 142.230469 " fill-opacity="1" fill-rule="nonzero"/><path fill="currentColor" d="M 177.289062 259.125 C 164.070312 258.082031 150.648438 257.519531 137.386719 257.453125 C 136.480469 257.453125 135.519531 257.398438 134.53125 257.347656 C 131.191406 257.175781 127.410156 256.980469 124.441406 258.492188 C 123.4375 259.003906 122.523438 259.589844 122.621094 260.386719 C 122.71875 261.164062 123.703125 261.488281 124.648438 261.703125 C 131.675781 263.289062 138.398438 263.351562 145.519531 263.414062 C 147.175781 263.433594 148.84375 263.445312 150.527344 263.480469 C 154.996094 263.578125 159.515625 263.625 163.992188 263.625 L 165.855469 263.625 C 170.078125 263.613281 174.820312 263.324219 177.667969 260.054688 C 177.820312 259.878906 177.851562 259.6875 177.765625 259.472656 C 177.675781 259.261719 177.519531 259.144531 177.289062 259.125 Z M 165.847656 262.5 C 160.796875 262.511719 155.628906 262.46875 150.550781 262.359375 C 148.867188 262.324219 147.191406 262.308594 145.527344 262.292969 C 138.472656 262.226562 131.804688 262.164062 124.898438 260.609375 C 124.511719 260.542969 124.144531 260.417969 123.796875 260.238281 C 124.144531 259.929688 124.527344 259.679688 124.953125 259.496094 C 127.648438 258.117188 131.117188 258.292969 134.472656 258.46875 C 135.484375 258.523438 136.460938 258.574219 137.378906 258.578125 C 150.199219 258.640625 163.171875 259.167969 175.960938 260.148438 C 173.351562 262.28125 169.410156 262.492188 165.855469 262.507812 Z M 165.847656 262.5 " fill-opacity="1" fill-rule="nonzero"/></svg>