<svg xmlns="http://www.w3.org/2000/svg" xmlns:xlink="http://www.w3.org/1999/xlink" width="400" zoomAndPan="magnify" viewBox="0 0 300 299.999988" height="400" preserveAspectRatio="xMidYMid meet" version="1.0"><path fill="currentColor" d="M 170.152344 50.03125 C 169.988281 49.820312 169.632812 48.679688 169.375 47.488281 C 168.671875 44.308594 168.183594 43.460938 166.574219 42.640625 C 164.902344 41.777344 164.660156 40.820312 166.078125 40.691406 C 167.335938 40.585938 169.199219 41.753906 169.980469 43.144531 C 170.800781 44.605469 171.621094 47.917969 171.496094 49.234375 C 171.398438 50.300781 170.699219 50.71875 170.152344 50.03125 Z M 170.742188 55.503906 C 170.632812 55.214844 170.53125 54.375 170.523438 53.648438 C 170.515625 52.421875 170.574219 52.3125 171.253906 52.3125 C 171.898438 52.3125 172.015625 52.488281 172.246094 53.722656 C 172.429688 54.738281 172.402344 55.257812 172.132812 55.574219 C 171.648438 56.171875 170.984375 56.128906 170.742188 55.503906 Z M 154.089844 63.40625 C 161.839844 62.957031 168.832031 61.84375 173.667969 60.28125 C 175.28125 59.753906 175.273438 59.789062 175.550781 54.386719 C 175.910156 47.339844 174.75 42.574219 172.078125 40.167969 C 170.597656 38.824219 170.414062 38.765625 164.683594 37.625 C 155.632812 35.84375 133.210938 34.921875 126.464844 42.40625 C 124.796875 44.269531 124.644531 44.929688 124.644531 50.25 C 124.644531 53.65625 124.769531 54.90625 125.363281 57.296875 C 125.835938 59.140625 126.273438 60.300781 126.589844 60.46875 C 127.671875 61.046875 132.328125 62.222656 135.347656 62.691406 C 138.027344 63.09375 142.65625 63.453125 147.875 63.65625 C 148.445312 63.679688 151.238281 63.570312 154.089844 63.40625 Z M 166.421875 79.199219 C 166.136719 78.914062 166.179688 77.976562 166.488281 77.78125 C 166.640625 77.699219 167.789062 77.421875 169.054688 77.175781 C 170.316406 76.941406 171.882812 76.464844 172.53125 76.128906 C 173.601562 75.558594 173.753906 75.558594 174.183594 75.976562 C 175.179688 76.976562 173.433594 78.242188 170.113281 78.949219 C 167.78125 79.433594 166.730469 79.507812 166.421875 79.199219 Z M 130.8125 79.433594 C 126.917969 78.074219 124.617188 76.5 124.835938 75.347656 C 125.011719 74.476562 125.886719 74.558594 127.144531 75.566406 C 127.898438 76.179688 129.550781 76.941406 131.664062 77.640625 C 134.636719 78.640625 135.003906 78.832031 135.003906 79.441406 C 135.003906 80.457031 133.714844 80.457031 130.8125 79.433594 Z M 138.480469 80.859375 C 137.730469 80.566406 137.613281 79.929688 138.210938 79.433594 C 138.738281 78.992188 141.363281 79.351562 141.574219 79.890625 C 141.976562 80.9375 140.121094 81.523438 138.480469 80.859375 Z M 158.527344 82.027344 C 165.230469 81.675781 172.25 80.5 174.953125 79.265625 C 176.984375 78.34375 179.609375 75.726562 180.070312 74.175781 C 180.996094 71.039062 180.097656 68.066406 177.058594 64.207031 C 176.648438 63.6875 176.546875 63.695312 174.316406 64.390625 C 160.84375 68.640625 138.714844 68.890625 126.960938 64.921875 L 123.65625 63.816406 L 122.4375 66.375 C 119.972656 71.566406 120.179688 74.628906 123.210938 77.574219 C 125.105469 79.417969 126.800781 80.25 130.863281 81.339844 C 135.363281 82.546875 144.367188 82.773438 158.527344 82.027344 Z M 190.640625 153.960938 C 191.566406 153.644531 192.082031 153.300781 192.027344 153.046875 C 191.910156 152.496094 189.601562 147.519531 185.457031 138.878906 C 177.941406 123.21875 175.667969 115.609375 173.902344 100.242188 C 173.410156 95.9375 173.292969 93.421875 173.378906 89.386719 C 173.46875 84.8125 173.429688 84.148438 173.03125 84.257812 C 167.414062 85.886719 154.074219 86.933594 142.445312 86.675781 C 135.449219 86.515625 133.246094 86.28125 129.828125 85.332031 L 127.898438 84.804688 L 127.824219 88.242188 C 127.691406 94.503906 126.84375 101.65625 125.632812 106.625 C 125.140625 108.65625 124.476562 111.421875 124.164062 112.773438 C 123.300781 116.507812 121.933594 120.582031 120.121094 124.828125 C 119.226562 126.933594 118.050781 129.871094 117.53125 131.339844 C 116.414062 134.464844 113.429688 141.53125 112.144531 144.0625 C 111.070312 146.195312 108.804688 151.460938 108.804688 151.847656 C 108.804688 152.152344 110.511719 152.628906 112.671875 152.941406 L 114.023438 153.132812 L 114.382812 151.558594 C 114.964844 149.054688 118.195312 141.328125 119.746094 138.726562 C 120.527344 137.429688 122.621094 133.433594 124.417969 129.851562 C 127.714844 123.285156 129.878906 117.578125 130.828125 112.984375 C 131.304688 110.703125 131.878906 104.820312 131.976562 101.144531 L 132.042969 98.777344 L 139.445312 98.585938 C 143.511719 98.488281 151.898438 98.488281 158.082031 98.585938 L 169.332031 98.777344 L 169.398438 101.296875 C 169.492188 105.023438 170.0625 110.433594 170.515625 111.949219 C 170.734375 112.679688 171 113.945312 171.113281 114.761719 C 171.3125 116.289062 173.210938 122.527344 173.628906 123.050781 C 173.761719 123.210938 174.476562 124.8125 175.214844 126.597656 C 175.949219 128.394531 178.148438 133.066406 180.085938 136.976562 C 183.59375 144.03125 185.046875 147.554688 185.734375 150.714844 C 185.925781 151.613281 186.246094 152.914062 186.429688 153.59375 L 186.765625 154.84375 L 187.964844 154.660156 C 188.617188 154.558594 189.828125 154.242188 190.640625 153.960938 Z M 196.414062 181.722656 C 196.253906 181.351562 195.785156 179.464844 195.355469 177.535156 C 194.933594 175.597656 194.140625 172.5625 193.59375 170.78125 C 193.050781 169.003906 192.671875 167.351562 192.765625 167.125 C 192.847656 166.890625 193.234375 166.707031 193.617188 166.707031 C 194.230469 166.707031 194.417969 167.015625 195.238281 169.582031 C 196.613281 173.871094 198.25 180.910156 198.050781 181.695312 C 197.820312 182.59375 196.789062 182.613281 196.414062 181.722656 Z M 198.058594 190.027344 C 197.679688 188.871094 197.335938 186.488281 197.484375 186.101562 C 197.695312 185.53125 198.59375 185.496094 199.039062 186.042969 C 199.222656 186.261719 199.398438 187.292969 199.441406 188.332031 C 199.507812 190.101562 199.476562 190.238281 198.851562 190.320312 C 198.484375 190.371094 198.125 190.246094 198.058594 190.027344 Z M 153.160156 185.539062 C 154.847656 183.746094 154.5 180.53125 152.347656 178.023438 C 150.480469 175.859375 146.632812 179.179688 147.09375 182.550781 C 147.429688 185 148.753906 186.203125 151.152344 186.21875 C 152.203125 186.226562 152.65625 186.078125 153.160156 185.539062 Z M 149.988281 190.320312 C 146.976562 189.800781 144.511719 187.789062 143.601562 185.113281 C 141.429688 178.746094 146.910156 172.132812 152.949219 173.8125 C 156.230469 174.71875 159.125 180.421875 158.265625 184.265625 C 157.320312 188.5 153.890625 191.011719 149.988281 190.320312 Z M 125.171875 191.832031 C 123.011719 191.144531 120.917969 189.648438 120.511719 188.492188 C 119.769531 186.386719 122.285156 185.113281 124.132812 186.664062 C 125.953125 188.199219 129.109375 188.761719 130.265625 187.78125 C 131.296875 186.898438 132.183594 185.582031 132.183594 184.953125 C 132.183594 184.03125 129.652344 181.789062 126.96875 180.363281 C 123.847656 178.695312 122.730469 177.746094 121.742188 175.933594 C 120.074219 172.855469 120.5 169.5 122.859375 167.132812 C 125.746094 164.257812 130.933594 164.308594 133.890625 167.261719 C 136.0625 169.433594 135.742188 173.015625 133.367188 173.015625 C 132.253906 173.015625 131.597656 172.320312 131.597656 171.128906 C 131.597656 168.796875 127.027344 168.082031 125.398438 170.144531 C 124.996094 170.660156 124.785156 171.363281 124.785156 172.199219 C 124.785156 173.863281 125.863281 175.121094 128.402344 176.472656 C 132.671875 178.71875 134.710938 180.480469 135.777344 182.828125 C 136.828125 185.128906 136.238281 187.433594 133.964844 189.902344 C 131.613281 192.453125 128.964844 193.03125 125.171875 191.832031 Z M 98.015625 193.960938 C 97.699219 192.964844 100.980469 178.679688 101.734375 177.761719 C 102.261719 177.125 103.34375 177.359375 103.292969 178.089844 C 103.277344 178.417969 102.847656 180.28125 102.355469 182.242188 C 101.859375 184.1875 101.105469 187.453125 100.695312 189.492188 C 100.273438 191.53125 99.863281 193.484375 99.777344 193.851562 C 99.578125 194.699219 98.277344 194.78125 98.015625 193.960938 Z M 165.609375 197.382812 C 163.402344 196.5625 160.597656 193.980469 160.597656 192.78125 C 160.597656 190.488281 162.671875 190.164062 164.96875 192.09375 C 166.859375 193.679688 167.871094 193.902344 169.003906 193.015625 C 170.089844 192.160156 171.546875 189.070312 171.546875 187.636719 L 171.546875 186.511719 L 170.777344 187.027344 C 169.695312 187.730469 167.546875 187.667969 166.003906 186.875 C 163.484375 185.5625 162.203125 182.160156 162.445312 177.429688 C 162.605469 174.363281 163.050781 173.511719 164.449219 173.511719 C 165.867188 173.511719 166.21875 174.273438 166.230469 177.378906 C 166.230469 181.5625 166.960938 183.566406 168.46875 183.566406 C 170.113281 183.566406 171.195312 180.660156 170.691406 177.585938 C 170.316406 175.304688 170.582031 174.363281 171.757812 173.828125 C 172.722656 173.394531 173.914062 173.945312 174.464844 175.09375 C 174.683594 175.558594 175.136719 178.28125 175.457031 181.160156 C 175.960938 185.574219 176 186.6875 175.699219 188.367188 C 175.304688 190.582031 173.847656 193.871094 172.597656 195.347656 C 170.96875 197.277344 167.789062 198.207031 165.609375 197.382812 Z M 96.785156 202.667969 C 96.597656 202.183594 96.851562 199.617188 97.160156 198.8125 C 97.253906 198.558594 97.648438 198.367188 98.042969 198.367188 C 98.6875 198.367188 98.746094 198.476562 98.714844 199.765625 C 98.65625 202.097656 98.378906 202.9375 97.628906 203.046875 C 97.230469 203.105469 96.894531 202.957031 96.785156 202.667969 Z M 203.433594 218.996094 C 203.117188 218.726562 202.882812 216.972656 202.503906 212.164062 C 202.21875 208.609375 201.925781 205.53125 201.847656 205.328125 C 201.648438 204.808594 202.546875 203.96875 203.082031 204.179688 C 203.652344 204.40625 203.726562 204.78125 204.257812 210.167969 C 205.011719 217.972656 204.816406 220.113281 203.433594 218.996094 Z M 133.460938 214.894531 C 134.515625 213.179688 134.863281 211.195312 134.140625 210.914062 C 132.964844 210.464844 131.097656 213.59375 131.441406 215.429688 C 131.699219 216.820312 132.378906 216.648438 133.460938 214.894531 Z M 129.804688 219.898438 C 128.386719 218.945312 127.707031 217.585938 127.523438 215.371094 C 127.386719 213.660156 127.472656 213.257812 128.300781 211.5625 C 129.878906 208.367188 132.488281 206.605469 134.980469 207.066406 C 135.699219 207.207031 136.457031 207.703125 137.347656 208.625 C 138.578125 209.917969 138.695312 210.1875 139.730469 214.355469 C 140.648438 218.0625 140.761719 218.84375 140.457031 219.429688 C 139.980469 220.320312 139.617188 220.546875 138.644531 220.554688 C 137.832031 220.554688 136.632812 219.390625 136.632812 218.601562 C 136.632812 218.015625 136.214844 218.097656 135.566406 218.820312 C 134.734375 219.734375 132.949219 220.554688 131.800781 220.554688 C 131.246094 220.554688 130.347656 220.261719 129.804688 219.898438 Z M 156.011719 220.144531 C 155.617188 219.75 155.214844 219.085938 155.105469 218.675781 L 154.921875 217.914062 L 153.988281 218.609375 C 151.101562 220.738281 147.628906 220.253906 146.078125 217.511719 C 145.28125 216.074219 145.179688 213.894531 145.777344 210.5625 C 146.203125 208.125 146.882812 207.359375 148.3125 207.710938 C 149.566406 208.03125 149.800781 208.9375 149.398438 211.964844 C 149.058594 214.566406 149.25 216.125 149.921875 216.125 C 150.726562 216.125 151.78125 215.4375 152.3125 214.574219 C 152.738281 213.878906 152.90625 213.089844 152.90625 211.738281 C 152.90625 210.679688 153.09375 209.515625 153.34375 209.046875 C 154.476562 206.847656 157.347656 208.207031 157.347656 210.933594 C 157.347656 211.320312 157.816406 213.230469 158.378906 215.195312 C 159.484375 218.996094 159.464844 219.910156 158.265625 220.546875 C 157.363281 221.027344 156.792969 220.925781 156.011719 220.144531 Z M 183.980469 210.941406 C 183.089844 209.996094 181.890625 209.996094 180.816406 210.933594 L 179.988281 211.664062 L 182.328125 211.679688 L 184.675781 211.6875 Z M 180.421875 221 C 177.417969 220.078125 175.339844 217.089844 175.339844 213.71875 C 175.339844 211.496094 176.179688 209.726562 178.058594 208.046875 C 181.691406 204.777344 185.910156 205.632812 188.007812 210.050781 C 188.820312 211.765625 188.898438 212.847656 188.285156 214.03125 C 187.679688 215.203125 186.46875 215.53125 182.832031 215.53125 L 179.699219 215.53125 L 180.515625 216.351562 C 181.320312 217.140625 181.386719 217.15625 185.097656 217.15625 L 188.851562 217.15625 L 189.273438 218.03125 C 189.632812 218.785156 189.632812 219.003906 189.273438 219.65625 C 188.5625 220.933594 187.109375 221.453125 184.273438 221.429688 C 182.898438 221.417969 181.160156 221.21875 180.421875 221 Z M 165.777344 221.25 C 163.429688 220.019531 162.394531 218.171875 162.378906 215.210938 C 162.371094 212.636719 163.015625 210.605469 164.324219 209.070312 C 165.726562 207.425781 167.453125 206.554688 169.300781 206.546875 C 170.550781 206.539062 170.851562 206.664062 171.589844 207.496094 C 172.554688 208.566406 172.636719 209.1875 171.976562 210.144531 C 171.503906 210.816406 170.28125 211.015625 169.515625 210.53125 C 168.214844 209.699219 166.515625 211.757812 166.304688 214.414062 C 166.179688 215.964844 166.253906 216.386719 166.742188 216.988281 C 167.285156 217.667969 167.496094 217.710938 169.71875 217.644531 C 171.789062 217.585938 172.195312 217.652344 172.722656 218.179688 C 173.738281 219.195312 173.46875 220.613281 172.117188 221.320312 C 170.960938 221.914062 166.960938 221.875 165.777344 221.25 Z M 114.433594 222.175781 C 111.777344 221.605469 108.753906 220.046875 108.402344 219.046875 C 107.992188 217.871094 108.378906 216.839844 109.410156 216.417969 C 110.222656 216.074219 110.484375 216.132812 112.253906 217.03125 C 113.671875 217.753906 114.703125 218.054688 116.019531 218.132812 C 118.445312 218.273438 119.015625 217.871094 118.730469 216.183594 C 118.394531 214.195312 117.453125 213.15625 113.707031 210.648438 C 110.828125 208.71875 110.046875 208.039062 109.484375 206.972656 C 107.503906 203.175781 109.9375 198.105469 114.332031 196.875 C 117.078125 196.101562 120.191406 197.59375 121.414062 200.261719 C 122.253906 202.097656 122.050781 203.214844 120.800781 203.695312 C 119.667969 204.121094 118.730469 203.609375 118.195312 202.277344 C 117.0625 199.441406 113.4375 200.296875 112.792969 203.566406 C 112.546875 204.757812 113.328125 205.691406 115.863281 207.199219 C 119.402344 209.296875 120.800781 210.582031 121.792969 212.636719 C 123.863281 216.929688 123.078125 220.246094 119.613281 221.753906 C 117.84375 222.527344 116.566406 222.628906 114.433594 222.175781 Z M 161.339844 235.355469 C 173.855469 234.867188 184.507812 233.835938 193.160156 232.277344 C 195.355469 231.882812 198.8125 231.269531 200.851562 230.933594 C 206.066406 230.027344 206.664062 229.851562 206.890625 229.070312 C 207 228.699219 207.167969 225.480469 207.257812 221.898438 C 207.484375 213.382812 206.832031 206.503906 204.652344 194.515625 C 202.402344 182.167969 199.492188 172.117188 194.070312 158.046875 L 193.761719 157.234375 L 192.269531 157.824219 C 190.660156 158.460938 180.859375 160.222656 175.550781 160.828125 C 171.320312 161.3125 152.746094 161.3125 144.464844 160.832031 C 141.054688 160.632812 136.1875 160.222656 133.671875 159.910156 C 131.144531 159.601562 128.285156 159.265625 127.304688 159.15625 C 124.433594 158.84375 111.179688 156.648438 109.292969 156.160156 C 108.335938 155.910156 107.386719 155.777344 107.1875 155.859375 C 106.714844 156.035156 104.5625 161.414062 101.945312 168.914062 C 96.480469 184.582031 92.574219 204.097656 92.496094 220.65625 C 92.472656 226.535156 92.53125 227.46875 92.960938 227.9375 C 93.722656 228.785156 97.675781 230.203125 101.558594 231.027344 C 103.511719 231.4375 107.328125 232.25 110.039062 232.820312 C 118.226562 234.566406 128.730469 235.707031 134.5625 235.488281 C 136.917969 235.402344 140.644531 235.429688 142.839844 235.570312 C 147.144531 235.824219 150.296875 235.78125 161.339844 235.355469 Z M 193.160156 255.269531 C 198.746094 251.703125 202.664062 246.78125 204.507812 241.03125 C 205.5 237.953125 206.328125 234.515625 206.128906 234.339844 C 206.019531 234.230469 202.351562 234.707031 201.859375 234.894531 C 201.683594 234.960938 201.445312 235.992188 201.347656 237.183594 C 200.84375 243.097656 198.367188 246.746094 192.226562 250.621094 C 186.738281 254.085938 181.230469 255.875 171.363281 257.375 C 162.503906 258.726562 161.917969 258.765625 152.824219 258.785156 C 141.699219 258.800781 135.578125 258.25 125.53125 256.34375 C 115.660156 254.464844 99.191406 250.203125 99.191406 237.089844 L 99.191406 234.5 L 97.894531 234.179688 C 97.179688 233.996094 95.8125 233.542969 94.871094 233.148438 L 93.152344 232.449219 L 93.3125 233.390625 C 94.097656 237.917969 97.128906 249.164062 100.449219 252.300781 C 114.914062 266.023438 176.183594 266.117188 193.160156 255.269531 Z M 105.550781 259.714844 C 100.375 257.695312 98.875 256.714844 97.054688 254.195312 C 89.980469 244.304688 87.796875 230.019531 88.234375 218.199219 C 88.890625 200.472656 93.394531 180.128906 99.527344 163.199219 C 100.945312 159.289062 107.363281 144.105469 108.832031 141.203125 C 110.003906 138.871094 113.058594 131.664062 113.695312 129.703125 C 113.992188 128.8125 114.886719 126.546875 115.695312 124.675781 C 117.582031 120.3125 119.277344 115.289062 120.214844 111.363281 C 120.617188 109.652344 121.273438 107.050781 121.675781 105.59375 C 122.066406 104.125 122.40625 102.195312 122.421875 101.296875 C 122.429688 100.398438 122.628906 98.804688 122.863281 97.742188 C 123.109375 96.640625 123.378906 93.117188 123.484375 89.460938 L 123.6875 83.09375 L 122.808594 82.589844 C 122.320312 82.304688 121.046875 81.144531 119.972656 80.011719 C 118.34375 78.292969 117.910156 77.597656 117.40625 75.972656 C 116.617188 73.394531 116.625 70.742188 117.429688 68.378906 C 118.261719 65.960938 120.410156 61.675781 121.347656 60.550781 L 122.085938 59.679688 L 121.53125 57.574219 C 120.558594 53.847656 120.230469 49.972656 120.617188 46.699219 C 121.027344 43.210938 121.542969 41.941406 123.519531 39.578125 C 131.480469 30.007812 157.230469 31.851562 168.140625 34.117188 C 171.757812 34.855469 173.367188 35.609375 175.113281 37.355469 C 176.800781 39.050781 177.820312 40.804688 178.851562 43.773438 C 179.628906 45.988281 179.667969 46.375 179.679688 51.726562 C 179.683594 54.8125 179.582031 58.027344 179.464844 58.847656 C 179.238281 60.332031 179.257812 60.367188 180.710938 62.179688 C 183.460938 65.617188 184.734375 69.140625 184.507812 72.691406 C 184.273438 76.296875 182.511719 79.082031 178.652344 81.910156 C 177.738281 82.582031 177.597656 82.867188 177.429688 84.367188 C 176.714844 90.691406 177.820312 102.226562 180.152344 112.925781 C 181.832031 120.566406 184.148438 126.699219 189.746094 138.292969 C 195.765625 150.765625 196.203125 151.78125 200.296875 162.828125 C 204.632812 174.542969 207.226562 184.449219 209.574219 198.332031 C 211.992188 212.628906 212.210938 223.71875 210.289062 235.066406 C 208.820312 243.761719 205.890625 249.675781 200.609375 254.640625 C 196.605469 258.382812 191.402344 260.855469 182.050781 263.449219 C 158.265625 270.015625 128.746094 268.785156 105.550781 259.714844 " fill-opacity="1" fill-rule="nonzero"/></svg>