<svg xmlns="http://www.w3.org/2000/svg" xmlns:xlink="http://www.w3.org/1999/xlink" width="400" zoomAndPan="magnify" viewBox="0 0 300 299.999988" height="400" preserveAspectRatio="xMidYMid meet" version="1.0"><defs><clipPath id="a4dd12b9cb"><path d="M 108 30 L 191.851562 30 L 191.851562 270 L 108 270 Z M 108 30 " clip-rule="nonzero"/></clipPath></defs><g clip-path="url(#a4dd12b9cb)"><path fill="currentColor" d="M 188.4375 165.773438 C 186.699219 162.074219 184.566406 158.621094 182.039062 155.40625 C 180.957031 153.921875 179.835938 152.382812 178.820312 150.828125 C 171.816406 140.132812 170.710938 129.015625 169.539062 117.242188 C 169.351562 115.351562 169.160156 113.433594 168.945312 111.492188 C 168.035156 103.347656 167.351562 95.078125 166.898438 87.035156 C 166.804688 85.378906 166.726562 83.75 166.652344 82.125 C 166.628906 81.570312 166.597656 81.003906 166.574219 80.449219 C 166.511719 78.90625 166.464844 77.394531 166.421875 75.886719 C 166.402344 75.28125 166.378906 74.664062 166.363281 74.066406 C 166.328125 72.539062 166.304688 71.050781 166.289062 69.5625 C 166.289062 69.023438 166.265625 68.472656 166.265625 67.941406 C 166.253906 66.492188 166.265625 65.089844 166.265625 63.683594 C 166.90625 63.425781 167.441406 63.027344 167.875 62.492188 C 168.308594 61.953125 168.582031 61.34375 168.695312 60.664062 C 168.777344 59.8125 168.515625 59.085938 167.902344 58.488281 C 167.644531 58.230469 167.347656 58.03125 167.007812 57.894531 C 168.046875 56.035156 168.542969 54.042969 168.507812 51.914062 C 168.460938 49.675781 167.953125 47.554688 166.976562 45.539062 C 168.457031 44.15625 169.003906 41.917969 168.660156 38.734375 C 168.339844 35.835938 167.738281 33.160156 163.921875 32.15625 C 159.328125 31.03125 154.667969 30.507812 149.9375 30.585938 L 149.921875 30.585938 C 147.058594 30.640625 144.210938 30.875 141.378906 31.28125 L 139.773438 31.480469 C 138.261719 31.570312 136.816406 31.929688 135.4375 32.554688 C 132.941406 33.855469 132.878906 36.25 132.820312 38.359375 L 132.800781 38.957031 C 132.671875 40.035156 132.757812 41.097656 133.058594 42.140625 C 133.359375 43.1875 133.851562 44.132812 134.53125 44.976562 C 133.617188 46.105469 133.09375 47.390625 132.960938 48.832031 C 132.851562 50.378906 132.9375 51.914062 133.21875 53.433594 C 133.339844 55.035156 133.789062 56.535156 134.566406 57.941406 C 133.550781 58.617188 132.234375 59.550781 132.722656 61.378906 C 133.035156 62.402344 133.660156 63.183594 134.585938 63.71875 C 134.601562 65.414062 134.613281 67.109375 134.601562 68.804688 C 134.59375 69.871094 134.566406 70.941406 134.546875 72.011719 C 134.523438 73.199219 134.511719 74.382812 134.476562 75.566406 C 134.445312 76.75 134.390625 77.972656 134.34375 79.175781 C 134.300781 80.238281 134.269531 81.304688 134.214844 82.363281 C 134.15625 83.578125 134.078125 84.792969 134.003906 86.007812 C 133.359375 96.785156 132.207031 107.535156 130.507812 118.164062 C 128.796875 128.878906 126.441406 140.164062 120.851562 150 C 119.78125 151.882812 118.570312 153.726562 117.394531 155.515625 C 115.625 158.089844 114.03125 160.769531 112.605469 163.546875 C 108.179688 172.667969 107.894531 185.089844 108.921875 198.035156 C 108.921875 198.054688 108.914062 198.070312 108.921875 198.089844 C 109.09375 200.261719 109.316406 202.5625 109.597656 205.152344 L 109.605469 205.238281 C 109.714844 206.21875 109.828125 207.230469 109.953125 208.304688 C 110.226562 210.65625 110.480469 213.042969 110.726562 215.445312 C 111.324219 221.324219 111.847656 227.300781 112.355469 233.140625 C 112.742188 237.605469 113.144531 242.148438 113.574219 246.667969 C 113.589844 246.828125 113.605469 246.992188 113.617188 247.152344 L 113.617188 247.167969 C 113.96875 250.808594 114.34375 254.4375 114.753906 257.980469 C 114.8125 259.214844 115.136719 260.375 115.726562 261.457031 C 116.667969 262.714844 117.878906 263.589844 119.363281 264.089844 C 128.753906 268.101562 139.253906 269.027344 148.28125 269.40625 C 150.132812 269.480469 152.015625 269.539062 153.914062 269.539062 C 159.144531 269.65625 164.28125 269.015625 169.320312 267.613281 C 172.597656 266.617188 183.359375 262.96875 184.394531 257.820312 C 185.03125 254.632812 185.621094 251.332031 186.179688 247.988281 C 186.179688 247.96875 186.199219 247.957031 186.203125 247.9375 C 186.285156 247.4375 186.359375 246.925781 186.445312 246.425781 C 186.542969 245.820312 186.636719 245.214844 186.734375 244.605469 C 186.964844 243.121094 187.1875 241.632812 187.402344 240.132812 C 187.46875 239.671875 187.539062 239.214844 187.601562 238.75 C 188.167969 234.714844 188.667969 230.640625 189.097656 226.542969 C 189.140625 226.171875 189.175781 225.796875 189.214844 225.421875 C 189.382812 223.78125 189.539062 222.144531 189.683594 220.511719 C 189.734375 219.957031 189.78125 219.402344 189.828125 218.851562 C 189.957031 217.335938 190.074219 215.824219 190.183594 214.320312 C 190.222656 213.78125 190.265625 213.242188 190.300781 212.703125 C 190.433594 210.714844 190.554688 208.734375 190.65625 206.765625 C 190.726562 205.394531 190.800781 203.976562 190.894531 202.542969 C 190.917969 202.121094 190.941406 201.710938 190.96875 201.289062 L 191.011719 200.523438 C 191.054688 199.8125 191.097656 199.101562 191.140625 198.382812 L 191.175781 197.78125 C 191.808594 186.570312 192.144531 174.496094 188.4375 165.773438 Z M 148.34375 267.964844 C 139.445312 267.597656 129.109375 266.6875 119.933594 262.765625 C 118.734375 262.371094 117.738281 261.679688 116.949219 260.691406 C 116.488281 259.789062 116.234375 258.832031 116.195312 257.820312 C 115.824219 254.671875 115.496094 251.449219 115.179688 248.21875 C 120.121094 250.316406 125.257812 251.675781 130.589844 252.304688 C 134.367188 252.75 138.15625 252.964844 141.957031 252.945312 C 147.144531 252.945312 152.324219 252.625 157.410156 252.308594 C 163.058594 251.960938 168.910156 251.597656 174.621094 250.765625 C 177.953125 250.277344 181.285156 249.597656 184.578125 248.785156 C 184.074219 251.757812 183.546875 254.695312 182.976562 257.542969 C 182.230469 261.257812 173.78125 264.753906 168.902344 266.234375 C 162.308594 268.234375 155.128906 268.257812 148.34375 267.964844 Z M 113.90625 164.195312 C 115.304688 161.46875 116.871094 158.847656 118.605469 156.320312 C 119.792969 154.515625 121.019531 152.644531 122.109375 150.726562 C 127.816406 140.691406 130.203125 129.261719 131.9375 118.402344 C 133.476562 108.773438 134.574219 99.042969 135.253906 89.292969 C 139.101562 89.691406 142.960938 89.890625 146.828125 89.894531 C 153.105469 89.886719 159.335938 89.363281 165.523438 88.324219 C 165.980469 96.019531 166.636719 103.890625 167.503906 111.660156 C 167.71875 113.597656 167.910156 115.507812 168.097656 117.394531 C 169.285156 129.347656 170.414062 140.636719 177.609375 151.628906 C 178.644531 153.210938 179.78125 154.765625 180.867188 156.265625 C 183.328125 159.386719 185.40625 162.746094 187.105469 166.339844 C 190.613281 174.613281 190.363281 186.226562 189.761719 197.097656 C 188.359375 197.222656 186.964844 197.167969 185.578125 196.933594 C 180.167969 196.113281 174.546875 193.492188 168.394531 188.914062 C 167.878906 188.53125 167.367188 188.144531 166.851562 187.753906 C 164.046875 185.382812 160.941406 183.5 157.539062 182.117188 C 153.523438 180.886719 149.457031 180.679688 145.339844 181.484375 C 144.023438 181.648438 142.742188 181.945312 141.492188 182.378906 C 140.179688 182.925781 138.9375 183.59375 137.765625 184.390625 L 128.640625 190.160156 C 125.664062 192.175781 122.519531 193.882812 119.210938 195.285156 C 116.484375 196.214844 113.6875 196.832031 110.824219 197.132812 L 110.304688 197.210938 C 109.367188 184.738281 109.703125 172.84375 113.90625 164.195312 Z M 135.4375 59.101562 C 135.632812 58.972656 135.828125 58.839844 136.015625 58.703125 C 136.1875 58.578125 136.285156 58.410156 136.3125 58.203125 C 136.335938 57.992188 136.28125 57.804688 136.140625 57.644531 C 135.222656 56.316406 134.726562 54.847656 134.652344 53.238281 C 134.390625 51.835938 134.308594 50.421875 134.402344 49 C 134.503906 47.617188 135.054688 46.449219 136.050781 45.488281 C 136.21875 45.339844 136.300781 45.152344 136.292969 44.925781 C 136.289062 44.699219 136.195312 44.519531 136.019531 44.378906 C 134.691406 43.324219 134.144531 41.671875 134.25 39.019531 L 134.269531 38.40625 C 134.320312 36.449219 134.367188 34.757812 136.109375 33.84375 C 137.332031 33.304688 138.609375 32.996094 139.945312 32.917969 L 141.554688 32.722656 C 144.332031 32.320312 147.121094 32.089844 149.921875 32.035156 L 149.9375 32.035156 C 154.542969 31.957031 159.085938 32.464844 163.5625 33.558594 C 166.273438 34.273438 166.882812 35.78125 167.226562 38.894531 C 167.558594 41.933594 167.003906 43.882812 165.519531 44.859375 C 165.351562 44.96875 165.25 45.125 165.207031 45.320312 C 165.167969 45.515625 165.203125 45.695312 165.3125 45.863281 C 165.402344 46.003906 165.527344 46.097656 165.683594 46.152344 C 166.566406 47.972656 167.027344 49.894531 167.066406 51.921875 C 167.085938 54.027344 166.546875 55.980469 165.449219 57.777344 L 165.257812 58.152344 C 165.121094 58.417969 165.140625 58.671875 165.320312 58.914062 C 165.496094 59.152344 165.734375 59.246094 166.027344 59.195312 L 165.988281 58.527344 L 166.070312 59.191406 C 166.394531 59.167969 166.664062 59.277344 166.882812 59.519531 C 167.160156 59.785156 167.285156 60.109375 167.261719 60.488281 C 167.015625 62.527344 163.707031 63.003906 163.046875 63.078125 C 156.058594 63.710938 149.0625 63.835938 142.058594 63.457031 L 139.820312 63.390625 C 138.609375 63.417969 137.421875 63.269531 136.257812 62.941406 C 135.769531 62.808594 135.335938 62.574219 134.957031 62.234375 C 134.582031 61.894531 134.304688 61.488281 134.121094 61.015625 C 133.910156 60.21875 134.3125 59.855469 135.4375 59.101562 Z M 136.042969 64.375 C 137.265625 64.695312 138.511719 64.847656 139.78125 64.835938 L 142.015625 64.898438 C 145.289062 65 148.480469 65.09375 151.65625 65.09375 C 155.515625 65.121094 159.367188 64.925781 163.210938 64.515625 C 163.753906 64.449219 164.289062 64.347656 164.820312 64.203125 C 164.785156 71.289062 164.988281 78.886719 165.4375 86.878906 C 155.453125 88.5625 145.429688 88.886719 135.359375 87.847656 C 135.867188 80.039062 136.09375 72.160156 136.042969 64.375 Z M 184.851562 247.242188 C 181.40625 248.113281 177.925781 248.808594 174.410156 249.324219 C 168.761719 250.152344 162.941406 250.511719 157.296875 250.859375 C 148.582031 251.398438 139.570312 251.957031 130.765625 250.859375 C 125.300781 250.234375 120.050781 248.8125 115.015625 246.597656 C 114.582031 242.105469 114.1875 237.5625 113.792969 233.023438 C 113.070312 224.78125 112.335938 216.257812 111.386719 208.136719 C 110.957031 204.492188 110.648438 201.453125 110.414062 198.652344 L 111.035156 198.558594 C 114.007812 198.246094 116.910156 197.601562 119.738281 196.628906 C 123.136719 195.195312 126.363281 193.441406 129.421875 191.378906 L 138.542969 185.609375 C 139.636719 184.867188 140.792969 184.238281 142.007812 183.726562 C 143.164062 183.332031 144.347656 183.058594 145.558594 182.910156 C 149.441406 182.140625 153.277344 182.328125 157.066406 183.472656 C 160.324219 184.816406 163.292969 186.625 165.980469 188.898438 C 166.496094 189.292969 167.015625 189.683594 167.53125 190.070312 C 173.882812 194.792969 179.710938 197.503906 185.363281 198.355469 C 186.792969 198.601562 188.234375 198.671875 189.683594 198.570312 L 189.527344 201.207031 C 189.414062 203.089844 189.304688 204.921875 189.214844 206.695312 C 188.515625 220.292969 187.0625 233.808594 184.851562 247.242188 Z M 184.851562 247.242188 " fill-opacity="1" fill-rule="nonzero"/></g><path fill="currentColor" d="M 179.007812 199.011719 C 177.792969 197.808594 176.386719 196.898438 174.792969 196.273438 C 173.273438 195.6875 171.714844 195.242188 170.117188 194.941406 C 162.640625 193.582031 155.105469 192.914062 147.507812 192.941406 C 138.726562 192.730469 130.832031 195 125.289062 199.324219 C 123.59375 200.523438 122.292969 202.054688 121.378906 203.917969 C 120.871094 205.152344 120.5625 206.433594 120.449219 207.765625 C 119.789062 213.425781 121.015625 218.378906 122.316406 223.621094 C 122.484375 224.300781 122.652344 224.988281 122.820312 225.679688 C 124.257812 231.648438 126.96875 235.910156 130.875 238.351562 C 133.71875 240.015625 136.738281 241.257812 139.929688 242.078125 C 143.125 242.894531 146.367188 243.257812 149.664062 243.164062 C 153.589844 243.136719 157.476562 242.734375 161.324219 241.945312 C 170.902344 240.035156 177.042969 234.796875 180.097656 225.9375 C 181.234375 222.855469 181.992188 219.683594 182.382812 216.421875 C 182.769531 213.164062 182.773438 209.902344 182.390625 206.640625 C 182.265625 205.214844 181.910156 203.851562 181.332031 202.546875 C 180.753906 201.238281 179.980469 200.0625 179.007812 199.011719 Z M 178.769531 225.476562 C 175.890625 233.828125 170.09375 238.765625 161.042969 240.570312 C 152.75 242.226562 140.910156 242.980469 131.613281 237.160156 C 127.976562 234.890625 125.542969 231.027344 124.175781 225.351562 C 124.007812 224.652344 123.839844 223.964844 123.667969 223.28125 C 122.402344 218.164062 121.207031 213.335938 121.832031 207.921875 C 121.933594 206.734375 122.207031 205.589844 122.652344 204.484375 C 123.476562 202.839844 124.644531 201.488281 126.148438 200.429688 C 131.21875 196.480469 138.367188 194.332031 146.394531 194.332031 C 146.753906 194.332031 147.113281 194.335938 147.476562 194.34375 C 154.992188 194.3125 162.445312 194.96875 169.839844 196.316406 C 171.351562 196.597656 172.828125 197.015625 174.265625 197.570312 C 175.683594 198.121094 176.933594 198.929688 178.019531 199.996094 C 178.886719 200.9375 179.574219 201.992188 180.085938 203.164062 C 180.597656 204.332031 180.902344 205.554688 181.003906 206.828125 C 181.367188 209.980469 181.363281 213.132812 180.984375 216.285156 C 180.605469 219.4375 179.867188 222.5 178.769531 225.476562 Z M 178.769531 225.476562 " fill-opacity="1" fill-rule="nonzero"/><path fill="currentColor" d="M 168.601562 202.621094 C 161.347656 201.078125 154.027344 200.605469 146.636719 201.214844 C 145.78125 201.28125 144.863281 201.339844 143.898438 201.398438 C 139.015625 201.699219 132.933594 202.070312 129.039062 204.574219 C 128.039062 205.167969 127.222656 205.953125 126.589844 206.929688 C 125.957031 207.902344 125.570312 208.964844 125.429688 210.117188 C 125.363281 211 125.507812 211.851562 125.851562 212.664062 C 126.199219 213.476562 126.714844 214.167969 127.398438 214.730469 C 129.042969 216.179688 130.945312 217.105469 133.101562 217.5 C 138.671875 218.339844 144.273438 218.722656 149.902344 218.65625 C 156.015625 218.738281 162.089844 218.304688 168.125 217.355469 C 170.820312 216.824219 174.496094 215.242188 176.03125 212.507812 C 176.453125 211.753906 176.691406 210.945312 176.742188 210.082031 C 176.792969 209.21875 176.652344 208.390625 176.320312 207.589844 C 175.097656 204.355469 171.328125 203.203125 168.601562 202.621094 Z M 133.351562 216.074219 C 131.460938 215.726562 129.796875 214.914062 128.359375 213.644531 C 127.847656 213.226562 127.460938 212.71875 127.199219 212.117188 C 126.9375 211.515625 126.832031 210.886719 126.875 210.230469 C 127.003906 209.304688 127.324219 208.453125 127.839844 207.675781 C 128.359375 206.898438 129.019531 206.269531 129.820312 205.792969 C 133.398438 203.496094 139.269531 203.132812 143.988281 202.84375 C 144.960938 202.785156 145.890625 202.726562 146.753906 202.65625 C 154.003906 202.0625 161.183594 202.519531 168.296875 204.039062 C 172.105469 204.851562 174.222656 206.144531 174.960938 208.105469 C 175.214844 208.703125 175.324219 209.328125 175.289062 209.976562 C 175.253906 210.628906 175.078125 211.238281 174.765625 211.808594 C 173.5625 213.960938 170.417969 215.429688 167.847656 215.9375 C 156.355469 217.601562 144.855469 217.648438 133.351562 216.074219 Z M 133.351562 216.074219 " fill-opacity="1" fill-rule="nonzero"/><path fill="currentColor" d="M 138.402344 205.992188 C 138.402344 208.738281 138.570312 211.472656 138.902344 214.199219 L 140.175781 214.046875 C 139.847656 211.371094 139.683594 208.6875 139.679688 205.992188 Z M 138.402344 205.992188 " fill-opacity="1" fill-rule="nonzero"/><path fill="currentColor" d="M 145.695312 206.453125 C 145.75 207.953125 145.742188 209.460938 145.671875 210.96875 C 144.4375 208.59375 142.804688 206.09375 142.714844 205.953125 L 141.539062 206.261719 C 141.378906 208.871094 141.273438 211.507812 141.226562 214.113281 L 142.507812 214.136719 C 142.542969 212.214844 142.609375 210.277344 142.707031 208.34375 C 143.796875 210.058594 144.734375 211.851562 145.527344 213.726562 L 146.765625 213.570312 C 146.996094 211.183594 147.066406 208.792969 146.972656 206.398438 Z M 145.695312 206.453125 " fill-opacity="1" fill-rule="nonzero"/><path fill="currentColor" d="M 152.75 207 L 152.894531 205.730469 C 151.445312 205.613281 150.003906 205.644531 148.5625 205.816406 L 148.015625 205.882812 L 148 206.433594 C 147.9375 208.488281 147.984375 210.539062 148.144531 212.589844 C 148.148438 212.964844 148.289062 213.28125 148.566406 213.539062 C 148.789062 213.703125 149.039062 213.792969 149.3125 213.8125 C 150.207031 213.9375 151.105469 214.003906 152.011719 214.011719 C 152.277344 214.011719 152.5625 214.011719 152.871094 213.992188 L 152.820312 212.710938 C 151.695312 212.761719 150.582031 212.703125 149.46875 212.539062 L 149.425781 212.539062 L 149.425781 212.492188 C 149.363281 211.683594 149.320312 210.867188 149.292969 210.050781 C 150.1875 210.035156 151.355469 210.074219 151.371094 210.078125 L 151.417969 208.796875 C 151.355469 208.796875 150.203125 208.753906 149.273438 208.769531 C 149.273438 208.191406 149.253906 207.609375 149.265625 207.03125 C 150.425781 206.914062 151.585938 206.902344 152.75 207 Z M 152.75 207 " fill-opacity="1" fill-rule="nonzero"/><path fill="currentColor" d="M 134.726562 212.195312 C 133.953125 210.160156 133.367188 208.070312 132.96875 205.933594 L 131.710938 206.167969 C 132.238281 209 133.078125 211.734375 134.234375 214.371094 L 135.433594 214.296875 L 137.808594 206.367188 L 136.582031 206 Z M 134.726562 212.195312 " fill-opacity="1" fill-rule="nonzero"/><path fill="currentColor" d="M 159.8125 210.039062 C 159.820312 209.78125 159.726562 209.558594 159.539062 209.378906 C 159.375 209.242188 159.1875 209.164062 158.976562 209.152344 C 158.226562 209.078125 157.472656 209.050781 156.714844 209.074219 L 156.757812 210.351562 C 157.351562 210.335938 157.945312 210.351562 158.539062 210.398438 C 158.539062 210.492188 158.546875 210.585938 158.550781 210.683594 C 158.675781 211.355469 158.582031 211.996094 158.261719 212.601562 C 157.996094 212.847656 157.683594 213 157.324219 213.054688 C 156.964844 213.109375 156.621094 213.058594 156.292969 212.902344 C 156.003906 212.738281 155.785156 212.503906 155.628906 212.210938 C 155.316406 211.648438 155.175781 211.050781 155.207031 210.410156 C 155.167969 209.667969 155.289062 208.953125 155.566406 208.265625 C 155.867188 207.597656 156.367188 207.167969 157.078125 206.984375 C 157.375 206.902344 157.671875 206.910156 157.960938 207.015625 C 158.253906 207.117188 158.492188 207.296875 158.671875 207.546875 L 159.828125 207.019531 C 159.683594 206.757812 159.496094 206.527344 159.273438 206.332031 C 159.050781 206.132812 158.804688 205.972656 158.527344 205.855469 C 158.253906 205.742188 157.964844 205.671875 157.667969 205.652344 C 157.371094 205.628906 157.078125 205.65625 156.789062 205.734375 C 156.261719 205.867188 155.789062 206.109375 155.371094 206.453125 C 154.953125 206.800781 154.632812 207.222656 154.40625 207.71875 C 154.042969 208.578125 153.878906 209.476562 153.921875 210.410156 C 153.894531 211.277344 154.089844 212.085938 154.511719 212.839844 C 154.789062 213.363281 155.1875 213.765625 155.710938 214.046875 C 156.132812 214.25 156.582031 214.351562 157.054688 214.34375 C 157.925781 214.371094 158.65625 214.066406 159.242188 213.417969 C 159.800781 212.5625 159.996094 211.628906 159.824219 210.621094 C 159.820312 210.425781 159.8125 210.234375 159.8125 210.039062 Z M 159.8125 210.039062 " fill-opacity="1" fill-rule="nonzero"/><path fill="currentColor" d="M 162.648438 205.722656 C 161.804688 208.472656 161.042969 211.292969 160.386719 214.097656 L 161.636719 214.386719 C 161.804688 213.664062 162.019531 212.941406 162.199219 212.214844 L 164.132812 212.273438 C 164.296875 212.941406 164.457031 213.613281 164.621094 214.277344 L 165.863281 213.96875 C 165.191406 211.246094 164.527344 208.488281 163.882812 205.765625 Z M 162.53125 210.941406 C 162.753906 210.09375 162.949219 209.238281 163.191406 208.394531 C 163.398438 209.261719 163.609375 210.117188 163.820312 210.980469 Z M 162.53125 210.941406 " fill-opacity="1" fill-rule="nonzero"/><path fill="currentColor" d="M 170.667969 207.675781 C 170.40625 207.101562 170.011719 206.648438 169.480469 206.308594 C 168.953125 205.972656 168.371094 205.804688 167.746094 205.8125 C 167.535156 205.8125 167.335938 205.855469 167.148438 205.949219 C 166.792969 206.164062 166.625 206.484375 166.652344 206.898438 C 166.59375 208.855469 166.675781 211.121094 166.75 213.128906 L 166.785156 214.140625 L 168.066406 214.097656 L 168.03125 213.082031 C 168.019531 212.753906 168.003906 212.421875 167.992188 212.082031 C 168.550781 212.714844 169.28125 213.5625 169.671875 214.085938 L 170.695312 213.3125 C 170.261719 212.734375 169.449219 211.796875 168.871094 211.140625 C 169.109375 211.050781 169.335938 210.9375 169.550781 210.800781 C 169.808594 210.644531 170.03125 210.449219 170.222656 210.214844 C 170.414062 209.980469 170.5625 209.71875 170.664062 209.433594 C 170.765625 209.152344 170.816406 208.855469 170.816406 208.554688 C 170.816406 208.253906 170.765625 207.960938 170.667969 207.675781 Z M 168.859375 209.71875 C 168.570312 209.890625 168.261719 210.015625 167.933594 210.097656 C 167.914062 209.070312 167.902344 208.046875 167.925781 207.101562 C 168.257812 207.125 168.5625 207.226562 168.839844 207.410156 C 169.113281 207.59375 169.324219 207.835938 169.472656 208.132812 C 169.566406 208.4375 169.554688 208.738281 169.441406 209.03125 C 169.328125 209.328125 169.132812 209.558594 168.859375 209.71875 Z M 168.859375 209.71875 " fill-opacity="1" fill-rule="nonzero"/><path fill="currentColor" d="M 142.175781 235.234375 C 142.21875 235.195312 142.21875 235.195312 142.175781 235.234375 Z M 142.175781 235.234375 " fill-opacity="1" fill-rule="nonzero"/><path fill="currentColor" d="M 143.261719 232.125 L 141.21875 232.003906 C 141.121094 231.875 140.992188 231.804688 140.828125 231.800781 C 140.691406 231.800781 140.574219 231.851562 140.476562 231.949219 C 140.378906 232.042969 140.328125 232.160156 140.328125 232.296875 L 140.257812 233.40625 C 140.175781 233.773438 140.242188 234.109375 140.453125 234.421875 C 140.605469 234.585938 140.792969 234.667969 141.015625 234.667969 C 141.183594 234.648438 141.351562 234.613281 141.519531 234.570312 C 141.429688 234.582031 141.617188 234.570312 141.636719 234.570312 C 141.65625 234.570312 141.84375 234.589844 141.753906 234.570312 C 141.816406 234.582031 141.882812 234.597656 141.945312 234.617188 C 142 234.640625 142.007812 234.640625 141.960938 234.617188 C 141.988281 234.632812 142.019531 234.648438 142.046875 234.664062 C 142.074219 234.683594 142.101562 234.703125 142.0625 234.664062 C 142.089844 234.683594 142.113281 234.707031 142.136719 234.730469 C 142.175781 234.777344 142.179688 234.777344 142.152344 234.738281 C 142.167969 234.761719 142.183594 234.785156 142.195312 234.8125 C 142.222656 234.863281 142.226562 234.863281 142.195312 234.8125 C 142.207031 234.839844 142.214844 234.867188 142.222656 234.894531 C 142.230469 234.921875 142.222656 234.929688 142.234375 234.949219 C 142.246094 234.96875 142.234375 234.960938 142.234375 234.980469 C 142.234375 235 142.234375 235.035156 142.234375 235.0625 C 142.234375 235.089844 142.164062 235.242188 142.214844 235.144531 C 142.203125 235.171875 142.191406 235.195312 142.175781 235.21875 C 142.160156 235.238281 142.136719 235.253906 142.175781 235.21875 C 142.152344 235.234375 142.128906 235.25 142.101562 235.261719 C 141.996094 235.296875 141.886719 235.316406 141.777344 235.316406 C 141.640625 235.328125 141.503906 235.332031 141.367188 235.328125 L 141.222656 235.316406 C 141.164062 235.308594 141.109375 235.292969 141.054688 235.277344 C 140.980469 235.253906 140.921875 235.214844 140.875 235.152344 C 140.777344 235.054688 140.660156 235.007812 140.523438 235.007812 C 140.382812 235.007812 140.265625 235.058594 140.167969 235.152344 C 140.070312 235.25 140.023438 235.367188 140.023438 235.507812 C 140.023438 235.644531 140.070312 235.761719 140.167969 235.859375 C 140.605469 236.257812 141.113281 236.410156 141.699219 236.320312 C 142.023438 236.320312 142.332031 236.253906 142.621094 236.113281 C 142.882812 235.957031 143.058594 235.734375 143.15625 235.445312 C 143.242188 235.191406 143.253906 234.929688 143.1875 234.664062 C 143.121094 234.402344 142.992188 234.175781 142.796875 233.988281 C 142.339844 233.59375 141.816406 233.464844 141.230469 233.59375 C 141.230469 233.535156 141.238281 233.476562 141.242188 233.414062 L 141.269531 232.980469 L 143.246094 233.09375 C 143.386719 233.09375 143.503906 233.046875 143.597656 232.949219 C 143.695312 232.851562 143.746094 232.734375 143.746094 232.59375 C 143.734375 232.464844 143.683594 232.355469 143.59375 232.265625 C 143.5 232.175781 143.390625 232.128906 143.261719 232.125 Z M 141.234375 233.800781 C 141.199219 233.773438 141.234375 233.832031 141.234375 233.800781 C 141.246094 233.8125 141.253906 233.820312 141.234375 233.800781 Z M 141.234375 233.800781 " fill-opacity="1" fill-rule="nonzero"/><path fill="currentColor" d="M 146.84375 232.421875 C 146.464844 232.078125 146.027344 231.953125 145.527344 232.042969 C 145.308594 232.097656 145.1875 232.238281 145.164062 232.460938 C 145.09375 232.484375 145.03125 232.515625 144.96875 232.550781 C 144.625 232.804688 144.394531 233.136719 144.269531 233.546875 C 144.152344 233.945312 144.15625 234.34375 144.28125 234.738281 C 144.40625 235.132812 144.632812 235.460938 144.960938 235.71875 C 145.121094 235.839844 145.296875 235.925781 145.488281 235.984375 C 145.679688 236.042969 145.875 236.066406 146.074219 236.054688 C 146.273438 236.039062 146.464844 235.992188 146.644531 235.914062 C 146.828125 235.832031 146.992188 235.722656 147.132812 235.582031 C 147.375 235.296875 147.53125 234.96875 147.597656 234.597656 C 147.667969 234.230469 147.644531 233.871094 147.527344 233.515625 C 147.40625 233.082031 147.175781 232.71875 146.84375 232.421875 Z M 145.195312 233.960938 C 145.195312 233.933594 145.214844 233.886719 145.195312 233.960938 Z M 145.53125 234.902344 C 145.503906 234.886719 145.484375 234.851562 145.53125 234.902344 Z M 146.613281 234.386719 C 146.613281 234.386719 146.605469 234.460938 146.597656 234.488281 C 146.585938 234.554688 146.5625 234.613281 146.546875 234.675781 C 146.53125 234.703125 146.519531 234.730469 146.503906 234.757812 C 146.488281 234.785156 146.476562 234.800781 146.464844 234.820312 L 146.351562 234.933594 L 146.265625 234.984375 C 146.257812 234.984375 146.238281 234.996094 146.226562 235.003906 C 146.199219 235.011719 146.171875 235.019531 146.148438 235.027344 C 146.125 235.027344 146.105469 235.035156 146.085938 235.039062 C 146.023438 235.039062 145.964844 235.039062 145.90625 235.039062 L 145.824219 235.023438 L 145.75 235 C 145.730469 235 145.710938 234.984375 145.695312 234.976562 C 145.644531 234.949219 145.59375 234.921875 145.550781 234.890625 C 145.53125 234.871094 145.511719 234.855469 145.492188 234.835938 C 145.472656 234.820312 145.445312 234.785156 145.421875 234.761719 L 145.414062 234.746094 C 145.375 234.6875 145.339844 234.628906 145.308594 234.566406 C 145.300781 234.554688 145.308594 234.566406 145.308594 234.554688 L 145.277344 234.472656 C 145.257812 234.410156 145.246094 234.347656 145.230469 234.285156 C 145.230469 234.273438 145.230469 234.285156 145.230469 234.273438 C 145.230469 234.246094 145.230469 234.214844 145.230469 234.1875 C 145.230469 234.109375 145.230469 234.03125 145.230469 233.957031 C 145.238281 233.917969 145.246094 233.878906 145.257812 233.839844 C 145.265625 233.804688 145.273438 233.789062 145.28125 233.765625 C 145.285156 233.746094 145.292969 233.726562 145.304688 233.710938 C 145.328125 233.65625 145.359375 233.601562 145.390625 233.554688 C 145.390625 233.554688 145.46875 233.445312 145.421875 233.503906 C 145.375 233.5625 145.464844 233.457031 145.476562 233.445312 C 145.488281 233.4375 145.523438 233.402344 145.546875 233.378906 L 145.558594 233.363281 L 145.570312 233.363281 C 145.617188 233.335938 145.664062 233.308594 145.714844 233.28125 C 145.75 233.269531 145.789062 233.257812 145.824219 233.25 C 145.832031 233.253906 145.835938 233.253906 145.839844 233.25 C 145.875 233.25 146.007812 233.273438 145.882812 233.25 C 146.011719 233.273438 146.136719 233.257812 146.253906 233.199219 C 146.269531 233.21875 146.289062 233.230469 146.304688 233.25 L 146.367188 233.320312 C 146.398438 233.367188 146.429688 233.414062 146.457031 233.464844 C 146.484375 233.515625 146.492188 233.527344 146.507812 233.558594 C 146.523438 233.585938 146.566406 233.691406 146.542969 233.632812 C 146.519531 233.574219 146.5625 233.691406 146.5625 233.6875 C 146.574219 233.714844 146.582031 233.742188 146.589844 233.769531 C 146.605469 233.824219 146.621094 233.882812 146.628906 233.941406 L 146.644531 234.019531 C 146.644531 234.082031 146.652344 234.148438 146.652344 234.214844 C 146.652344 234.28125 146.617188 234.335938 146.613281 234.386719 Z M 146.613281 234.386719 " fill-opacity="1" fill-rule="nonzero"/><path fill="currentColor" d="M 150.015625 232.226562 C 149.980469 232.226562 149.945312 232.230469 149.910156 232.242188 C 149.878906 232.234375 149.84375 232.226562 149.808594 232.226562 C 149.394531 232.269531 149.023438 232.417969 148.695312 232.683594 C 148.371094 232.945312 148.144531 233.277344 148.015625 233.675781 C 147.90625 234.070312 147.917969 234.457031 148.046875 234.84375 C 148.175781 235.230469 148.402344 235.546875 148.722656 235.796875 C 149.046875 236.042969 149.414062 236.179688 149.820312 236.207031 C 150.226562 236.230469 150.605469 236.140625 150.957031 235.933594 C 151.308594 235.71875 151.570312 235.421875 151.742188 235.046875 C 151.914062 234.671875 151.96875 234.28125 151.902344 233.875 C 151.808594 233.421875 151.585938 233.039062 151.234375 232.734375 C 150.886719 232.425781 150.480469 232.257812 150.015625 232.226562 Z M 150.933594 234.34375 L 150.921875 234.394531 C 150.914062 234.433594 150.902344 234.472656 150.890625 234.511719 C 150.878906 234.554688 150.871094 234.566406 150.863281 234.589844 C 150.863281 234.597656 150.863281 234.601562 150.863281 234.605469 C 150.832031 234.660156 150.804688 234.714844 150.769531 234.769531 C 150.753906 234.789062 150.699219 234.863281 150.757812 234.785156 C 150.742188 234.808594 150.726562 234.828125 150.707031 234.847656 C 150.65625 234.90625 150.597656 234.953125 150.542969 235.011719 L 150.53125 235.011719 L 150.460938 235.054688 C 150.414062 235.089844 150.359375 235.113281 150.308594 235.140625 L 150.203125 235.179688 L 150.105469 235.203125 L 150.0625 235.210938 C 150.003906 235.210938 149.945312 235.210938 149.882812 235.210938 L 149.824219 235.210938 L 149.769531 235.199219 C 149.714844 235.1875 149.664062 235.167969 149.609375 235.152344 L 149.597656 235.152344 C 149.554688 235.128906 149.511719 235.109375 149.46875 235.085938 C 149.425781 235.058594 149.390625 235.035156 149.355469 235.007812 L 149.316406 234.976562 L 149.242188 234.90625 L 149.183594 234.84375 C 149.183594 234.84375 149.101562 234.738281 149.144531 234.796875 C 149.1875 234.855469 149.109375 234.746094 149.109375 234.746094 C 149.085938 234.710938 149.066406 234.675781 149.046875 234.636719 L 149.011719 234.566406 C 148.988281 234.5 148.972656 234.4375 148.953125 234.367188 C 148.953125 234.355469 148.953125 234.367188 148.953125 234.355469 C 148.953125 234.328125 148.953125 234.300781 148.953125 234.273438 C 148.953125 234.238281 148.953125 234.203125 148.953125 234.167969 C 148.953125 234.15625 148.953125 234.121094 148.960938 234.101562 C 148.972656 234.046875 148.988281 233.988281 149.003906 233.933594 C 149.003906 233.933594 149.050781 233.804688 149.023438 233.878906 C 148.992188 233.949219 149.050781 233.816406 149.058594 233.804688 C 149.09375 233.738281 149.132812 233.675781 149.175781 233.617188 C 149.203125 233.585938 149.230469 233.554688 149.261719 233.523438 C 149.292969 233.492188 149.308594 233.472656 149.335938 233.453125 L 149.371094 233.425781 C 149.433594 233.382812 149.492188 233.339844 149.5625 233.304688 L 149.636719 233.269531 C 149.53125 233.316406 149.648438 233.269531 149.671875 233.269531 L 149.773438 233.242188 L 149.8125 233.234375 L 149.828125 233.234375 C 149.871094 233.226562 149.917969 233.214844 149.960938 233.199219 C 149.988281 233.199219 150.003906 233.226562 150.03125 233.226562 L 150.058594 233.226562 L 150.148438 233.246094 L 150.226562 233.269531 C 150.226562 233.269531 150.355469 233.3125 150.285156 233.285156 C 150.214844 233.261719 150.339844 233.3125 150.339844 233.3125 C 150.363281 233.324219 150.390625 233.339844 150.414062 233.351562 C 150.433594 233.367188 150.460938 233.382812 150.484375 233.394531 L 150.535156 233.433594 C 150.585938 233.472656 150.628906 233.515625 150.671875 233.558594 L 150.726562 233.621094 L 150.738281 233.632812 C 150.769531 233.683594 150.808594 233.734375 150.839844 233.789062 L 150.878906 233.863281 L 150.886719 233.878906 C 150.886719 233.890625 150.890625 233.90625 150.898438 233.917969 C 150.917969 233.976562 150.933594 234.039062 150.945312 234.097656 C 150.945312 234.109375 150.945312 234.097656 150.945312 234.109375 C 150.945312 234.136719 150.945312 234.164062 150.945312 234.191406 C 150.945312 234.242188 150.941406 234.292969 150.933594 234.34375 Z M 150.933594 234.34375 " fill-opacity="1" fill-rule="nonzero"/><path fill="currentColor" d="M 157.34375 232.515625 C 157.117188 232.480469 156.898438 232.507812 156.6875 232.601562 C 156.476562 232.695312 156.308594 232.839844 156.183594 233.03125 C 156.011719 232.605469 155.726562 232.210938 155.195312 232.34375 C 155.050781 232.382812 154.929688 232.457031 154.828125 232.566406 C 154.726562 232.414062 154.585938 232.332031 154.402344 232.324219 C 154.265625 232.324219 154.152344 232.375 154.054688 232.472656 C 153.957031 232.566406 153.90625 232.683594 153.902344 232.820312 C 153.8125 233.734375 153.878906 234.636719 154.105469 235.527344 C 154.140625 235.644531 154.210938 235.738281 154.316406 235.800781 C 154.417969 235.867188 154.53125 235.894531 154.652344 235.875 C 154.773438 235.859375 154.875 235.808594 154.957031 235.714844 C 155.039062 235.625 155.082031 235.519531 155.085938 235.398438 C 155.074219 235.007812 155.113281 234.625 155.195312 234.246094 C 155.238281 234.0625 155.289062 233.882812 155.351562 233.707031 C 155.378906 233.800781 155.410156 233.890625 155.433594 233.988281 C 155.527344 234.378906 155.574219 234.78125 155.578125 235.183594 C 155.578125 235.730469 156.441406 235.882812 156.558594 235.316406 C 156.652344 234.882812 156.730469 234.4375 156.835938 234.003906 C 156.855469 233.910156 156.882812 233.820312 156.917969 233.734375 C 156.917969 233.726562 156.964844 233.648438 156.972656 233.628906 C 156.984375 233.609375 157.03125 233.554688 156.996094 233.59375 C 156.996094 233.59375 157.082031 233.515625 157.070312 233.523438 C 157.058594 233.535156 157.140625 233.472656 157.089844 233.507812 C 157.117188 233.488281 157.140625 233.488281 157.167969 233.507812 L 157.199219 233.542969 C 157.222656 233.582031 157.175781 233.488281 157.214844 233.570312 C 157.214844 233.582031 157.273438 233.6875 157.25 233.636719 C 157.230469 233.589844 157.277344 233.71875 157.277344 233.714844 C 157.289062 233.757812 157.300781 233.796875 157.3125 233.835938 C 157.328125 233.90625 157.34375 233.980469 157.355469 234.054688 C 157.4375 234.523438 157.5 234.996094 157.578125 235.46875 C 157.617188 235.601562 157.695312 235.699219 157.816406 235.765625 C 157.933594 235.835938 158.0625 235.851562 158.195312 235.816406 C 158.324219 235.777344 158.425781 235.699219 158.492188 235.578125 C 158.558594 235.460938 158.578125 235.335938 158.542969 235.203125 C 158.457031 234.664062 158.40625 234.101562 158.273438 233.570312 C 158.234375 233.320312 158.132812 233.097656 157.964844 232.90625 C 157.796875 232.714844 157.589844 232.585938 157.34375 232.515625 Z M 157.164062 233.503906 L 157.171875 233.511719 C 157.144531 233.484375 157.140625 233.484375 157.164062 233.496094 Z M 157.164062 233.503906 " fill-opacity="1" fill-rule="nonzero"/><path fill="currentColor" d="M 159.144531 229.390625 C 159.054688 231.5 159.039062 233.613281 159.089844 235.730469 C 159.089844 235.867188 159.140625 235.984375 159.238281 236.082031 C 159.335938 236.179688 159.453125 236.230469 159.589844 236.230469 C 159.726562 236.230469 159.847656 236.179688 159.945312 236.082031 C 160.042969 235.984375 160.089844 235.867188 160.089844 235.730469 C 160.039062 233.617188 160.054688 231.503906 160.140625 229.390625 C 160.167969 228.746094 159.171875 228.746094 159.144531 229.390625 Z M 159.144531 229.390625 " fill-opacity="1" fill-rule="nonzero"/><path fill="currentColor" d="M 160.929688 235.023438 C 160.792969 235.023438 160.675781 235.070312 160.578125 235.167969 C 160.480469 235.265625 160.429688 235.382812 160.429688 235.523438 C 160.429688 235.660156 160.480469 235.777344 160.578125 235.875 C 160.675781 235.972656 160.792969 236.023438 160.929688 236.023438 C 161.066406 236.023438 161.1875 235.972656 161.285156 235.875 C 161.378906 235.777344 161.429688 235.660156 161.429688 235.523438 C 161.429688 235.382812 161.378906 235.265625 161.285156 235.167969 C 161.1875 235.070312 161.066406 235.023438 160.929688 235.023438 Z M 160.929688 235.023438 " fill-opacity="1" fill-rule="nonzero"/><path fill="currentColor" d="M 135.472656 140.660156 C 136.078125 140.710938 136.363281 139.941406 136.453125 139.339844 C 137.816406 129.972656 138.789062 120.601562 139.492188 111.164062 C 139.621094 109.433594 140.195312 101.75 139.804688 101.296875 C 139.621094 101.089844 139.246094 101.296875 139.09375 101.523438 C 138.960938 101.769531 138.898438 102.035156 138.902344 102.3125 C 138.410156 109.121094 137.324219 115.875 136.5625 122.671875 C 135.949219 128.128906 133.550781 134.492188 134.804688 139.988281 C 134.835938 140.160156 134.914062 140.304688 135.035156 140.429688 C 135.15625 140.550781 135.304688 140.628906 135.472656 140.660156 Z M 135.472656 140.660156 " fill-opacity="1" fill-rule="nonzero"/><path fill="currentColor" d="M 127.691406 157.96875 C 127.789062 158.019531 127.894531 158.050781 128.003906 158.050781 C 128.457031 158.066406 128.789062 157.65625 129.042969 157.28125 C 129.863281 156.054688 135.269531 146.273438 132.859375 145.429688 C 131.953125 145.113281 131.191406 146.152344 130.789062 147.023438 C 129.585938 149.613281 126.25 154.367188 127.210938 157.367188 C 127.292969 157.632812 127.453125 157.832031 127.691406 157.96875 Z M 127.691406 157.96875 " fill-opacity="1" fill-rule="nonzero"/><path fill="currentColor" d="M 137.851562 58.914062 L 140.957031 59.476562 C 142.40625 59.738281 143.867188 59.863281 145.339844 59.851562 L 145.484375 59.851562 C 150.570312 59.828125 155.71875 59.613281 160.785156 59.210938 C 161.691406 59.246094 162.480469 58.960938 163.15625 58.359375 C 163.214844 58.292969 163.246094 58.210938 163.246094 58.121094 C 163.25 58.027344 163.21875 57.945312 163.15625 57.878906 C 163.097656 57.808594 163.019531 57.769531 162.929688 57.757812 C 162.839844 57.746094 162.753906 57.765625 162.679688 57.820312 C 162 57.820312 161.324219 57.765625 160.652344 57.652344 C 160.347656 57.609375 160.105469 57.578125 160 57.574219 C 158.988281 57.519531 157.980469 57.480469 156.964844 57.445312 C 154.953125 57.382812 152.910156 57.363281 150.894531 57.386719 C 148.84375 57.40625 146.761719 57.476562 144.710938 57.585938 C 144.164062 57.613281 143.632812 57.632812 143.109375 57.652344 C 141.332031 57.660156 139.574219 57.84375 137.832031 58.203125 C 137.640625 58.25 137.546875 58.367188 137.550781 58.566406 C 137.554688 58.765625 137.65625 58.878906 137.847656 58.914062 Z M 137.851562 58.914062 " fill-opacity="1" fill-rule="nonzero"/><path fill="currentColor" d="M 145.453125 47.71875 C 146.011719 47.777344 146.574219 47.804688 147.136719 47.804688 C 147.878906 47.804688 148.597656 47.761719 149.222656 47.726562 C 151.859375 47.582031 154.546875 47.398438 157.214844 47.191406 C 159.183594 47.179688 161.050781 46.738281 162.8125 45.859375 C 162.980469 45.757812 163.035156 45.617188 162.972656 45.429688 C 162.914062 45.242188 162.785156 45.160156 162.589844 45.1875 C 158.695312 45.585938 154.792969 45.714844 150.878906 45.5625 C 148.785156 45.507812 146.652344 45.417969 144.550781 45.285156 C 143.535156 45.226562 142.519531 45.152344 141.507812 45.074219 C 141.292969 45.058594 141.046875 45.046875 140.785156 45.039062 C 140.097656 45.03125 139.421875 44.964844 138.746094 44.839844 C 138.542969 44.796875 138.402344 44.875 138.332031 45.070312 C 138.257812 45.269531 138.316406 45.414062 138.5 45.515625 C 140.679688 46.691406 142.996094 47.425781 145.453125 47.71875 Z M 145.453125 47.71875 " fill-opacity="1" fill-rule="nonzero"/></svg>