<svg xmlns="http://www.w3.org/2000/svg" xmlns:xlink="http://www.w3.org/1999/xlink" width="400" zoomAndPan="magnify" viewBox="0 0 300 299.999988" height="400" preserveAspectRatio="xMidYMid meet" version="1.0"><defs><clipPath id="ba19ae00cf"><path d="M 31 42.21875 L 268 42.21875 L 268 257.46875 L 31 257.46875 Z M 31 42.21875 " clip-rule="nonzero"/></clipPath></defs><path fill="#a9a0f0" d="M 70.195312 159.402344 C 69.496094 158.863281 68.289062 158.320312 66.496094 158.816406 C 61.496094 160.207031 54.429688 169.734375 52.285156 175.234375 C 51.914062 176.195312 52.386719 177.277344 53.347656 177.652344 C 54.304688 178.027344 55.390625 177.550781 55.765625 176.589844 C 58.285156 170.125 65.457031 162.484375 67.644531 162.332031 C 67.582031 164.316406 65.035156 170.3125 62.964844 175.199219 C 58.816406 184.976562 53.652344 197.144531 54.1875 205.417969 C 54.25 206.40625 55.074219 207.167969 56.050781 207.167969 C 56.089844 207.167969 56.132812 207.167969 56.171875 207.164062 C 57.203125 207.097656 57.980469 206.207031 57.917969 205.179688 C 57.4375 197.789062 62.410156 186.070312 66.402344 176.660156 C 70.992188 165.839844 72.75 161.375 70.195312 159.402344 Z M 70.195312 159.402344 " fill-opacity="1" fill-rule="nonzero"/><path fill="#a9a0f0" d="M 86.664062 172.207031 C 85.898438 171.742188 84.910156 171.878906 84.304688 172.542969 C 71.535156 186.585938 65.234375 203.042969 65.582031 221.460938 C 65.601562 222.492188 66.511719 223.320312 67.484375 223.292969 C 68.519531 223.273438 69.335938 222.421875 69.316406 221.390625 C 69.050781 207.289062 72.910156 194.390625 80.804688 182.929688 C 76.40625 199.472656 76.5 216.183594 81.101562 232.730469 C 81.332031 233.558594 82.082031 234.097656 82.898438 234.097656 C 83.066406 234.097656 83.234375 234.078125 83.402344 234.03125 C 84.394531 233.753906 84.980469 232.722656 84.703125 231.734375 C 79.40625 212.6875 80.324219 193.417969 87.4375 174.457031 C 87.753906 173.617188 87.425781 172.671875 86.664062 172.207031 Z M 86.664062 172.207031 " fill-opacity="1" fill-rule="nonzero"/><path fill="#a9a0f0" d="M 114.488281 181.796875 C 114.558594 180.878906 113.953125 180.042969 113.054688 179.832031 C 112.144531 179.625 111.234375 180.101562 110.894531 180.953125 C 102.949219 200.671875 101.242188 221.183594 105.820312 241.921875 C 106.015625 242.796875 106.785156 243.386719 107.644531 243.386719 C 107.777344 243.386719 107.914062 243.375 108.050781 243.34375 C 109.054688 243.121094 109.691406 242.125 109.46875 241.117188 C 105.941406 225.144531 106.285156 209.304688 110.476562 193.890625 C 110.988281 208.699219 114.78125 221.4375 121.949219 232.570312 C 122.511719 233.4375 123.667969 233.6875 124.53125 233.128906 C 125.398438 232.570312 125.648438 231.414062 125.089844 230.546875 C 116.453125 217.136719 112.988281 201.191406 114.488281 181.796875 Z M 114.488281 181.796875 " fill-opacity="1" fill-rule="nonzero"/><path fill="#a9a0f0" d="M 137.480469 172.375 C 136.785156 171.789062 135.769531 171.785156 135.070312 172.367188 C 134.371094 172.949219 134.195312 173.953125 134.652344 174.738281 C 144.1875 191.121094 147.402344 210.773438 144.214844 233.152344 C 144.066406 234.171875 144.777344 235.117188 145.800781 235.265625 C 145.890625 235.277344 145.976562 235.285156 146.066406 235.285156 C 146.980469 235.285156 147.78125 234.609375 147.914062 233.679688 C 150.621094 214.664062 148.851562 197.503906 142.65625 182.511719 C 151.148438 191.777344 156.242188 201.976562 158.15625 213.457031 C 158.324219 214.472656 159.285156 215.171875 160.304688 214.992188 C 161.320312 214.820312 162.007812 213.859375 161.839844 212.84375 C 159.261719 197.363281 151.292969 184.128906 137.480469 172.375 Z M 137.480469 172.375 " fill-opacity="1" fill-rule="nonzero"/><g clip-path="url(#ba19ae00cf)"><path fill="#a9a0f0" d="M 262.144531 167.832031 C 263.234375 163.8125 267.15625 147.296875 261.628906 135.757812 C 259.015625 130.289062 252.351562 124.503906 243.871094 119.800781 C 244.800781 114.96875 246.730469 99.132812 235.714844 85.289062 C 224.667969 71.402344 208.332031 67.25 203.574219 66.304688 C 203.074219 63.976562 202.125 61.628906 200.363281 59.871094 C 198.601562 58.109375 196.527344 56.550781 194.199219 55.234375 C 192.441406 54.238281 191.21875 52.523438 190.859375 50.523438 C 189.527344 43.199219 185.839844 42.289062 183.8125 42.417969 C 179.351562 42.667969 176.175781 49.96875 172.8125 57.699219 C 171.171875 61.46875 169.3125 65.746094 168.085938 66.824219 C 166.464844 68.257812 164.683594 68.894531 162.625 69.636719 C 160.359375 70.449219 157.789062 71.367188 155.210938 73.523438 C 151.925781 76.265625 149.609375 79.863281 148.421875 81.96875 C 148.273438 81.878906 148.117188 81.804688 147.972656 81.703125 C 146.285156 80.496094 144.933594 77.894531 143.5 75.136719 C 141.289062 70.886719 138.789062 66.070312 133.949219 64.480469 C 129.84375 63.128906 125.578125 63.511719 122.722656 64.070312 C 121.132812 64.382812 119.800781 65.390625 119.058594 66.839844 C 118.417969 68.101562 118.351562 69.523438 118.800781 70.828125 C 116.574219 71.445312 113.210938 72.796875 111.023438 75.613281 C 108.757812 78.535156 108.433594 81.949219 108.492188 84.046875 C 106.375 84.332031 104.074219 84.554688 101.734375 84.785156 C 92.34375 85.695312 81.703125 86.730469 74.003906 91.875 C 64.753906 98.058594 61.558594 106.433594 60.507812 112.367188 C 60.023438 115.089844 58.464844 117.519531 56.226562 119.03125 C 51.921875 121.945312 46.589844 127.257812 45.636719 136.027344 C 44.417969 147.253906 49.933594 153.082031 52.753906 155.292969 C 48.859375 162.339844 45.582031 171.734375 43.574219 178.175781 C 42.90625 180.304688 41.6875 182.199219 40.050781 183.648438 C 36.457031 186.835938 30.644531 193.683594 32.078125 203.738281 C 33.101562 210.886719 38.253906 216.285156 46.585938 218.941406 C 48.875 219.671875 50.453125 221.71875 50.613281 224.160156 C 50.992188 229.996094 52.660156 237.949219 58.453125 242.679688 C 65.132812 248.132812 75.421875 247.441406 80.953125 246.546875 C 82.992188 246.214844 85.109375 246.617188 86.949219 247.667969 C 93.636719 251.472656 106.21875 257.859375 115.367188 257.859375 C 123.414062 257.859375 129.832031 254.417969 133.796875 251.527344 C 135.429688 250.339844 137.484375 249.800781 139.535156 250.011719 C 144.753906 250.53125 154.449219 250.6875 160.785156 245.824219 C 166.710938 241.277344 167.835938 230.992188 167.734375 223.164062 C 167.707031 220.914062 168.457031 218.761719 169.792969 217.054688 C 171.054688 219.171875 173.480469 221.804688 177.90625 222.234375 C 180.800781 222.515625 184.296875 221.695312 188.261719 219.792969 C 190.511719 218.707031 193.257812 218.890625 195.410156 220.265625 C 199.425781 222.832031 205.285156 225.429688 212.5625 225.429688 C 215.148438 225.429688 217.910156 225.101562 220.832031 224.332031 C 231.746094 221.449219 237.359375 213.9375 240.152344 208.148438 C 241.488281 205.375 244.066406 203.371094 247.050781 202.792969 C 253.539062 201.523438 262.0625 198.015625 265.824219 188.5 C 269.152344 180.074219 265.871094 172.773438 262.144531 167.832031 Z M 157.601562 76.386719 C 159.671875 74.65625 161.71875 73.921875 163.882812 73.148438 C 166.101562 72.351562 168.398438 71.53125 170.554688 69.625 C 172.316406 68.070312 173.863281 64.644531 176.238281 59.1875 C 178.203125 54.671875 181.859375 46.269531 184.019531 46.144531 C 185.980469 46.015625 186.828125 49.261719 187.179688 51.191406 C 187.742188 54.28125 189.632812 56.941406 192.359375 58.484375 C 194.394531 59.632812 196.195312 60.988281 197.71875 62.511719 C 200.761719 65.550781 200.496094 72.210938 200.136719 74.523438 C 199.976562 75.542969 200.675781 76.496094 201.691406 76.660156 C 202.710938 76.808594 203.667969 76.125 203.828125 75.105469 C 203.855469 74.921875 204.164062 72.886719 204.058594 70.242188 C 209.53125 71.53125 223.402344 75.816406 232.789062 87.617188 C 242.007812 99.203125 241.164062 112.679688 240.371094 117.96875 C 235.296875 115.476562 229.734375 113.386719 224.078125 111.972656 C 223.398438 104.773438 221.195312 98.308594 217.464844 92.667969 C 222.648438 96.011719 226.59375 100.183594 229.414062 105.285156 C 229.914062 106.1875 231.054688 106.515625 231.953125 106.015625 C 232.855469 105.515625 233.183594 104.378906 232.683594 103.476562 C 228.179688 95.339844 220.824219 89.144531 210.816406 85.070312 C 210 84.730469 209.035156 85.03125 208.546875 85.78125 C 208.054688 86.535156 208.171875 87.53125 208.820312 88.148438 C 215.296875 94.339844 219.101562 102.074219 220.210938 111.128906 C 215.269531 110.175781 210.335938 109.777344 205.671875 110.097656 C 204.652344 108.261719 204.445312 106.71875 204.234375 105.097656 C 203.992188 103.226562 203.738281 101.289062 202.183594 99.355469 C 199.101562 95.523438 194.117188 91.128906 182.84375 91.128906 C 177.277344 91.128906 172.753906 95.652344 172.753906 101.214844 C 172.753906 101.683594 172.796875 102.152344 172.859375 102.613281 C 172.015625 102.53125 171.253906 102.511719 170.632812 102.519531 C 170.210938 101.339844 169.492188 99.507812 168.433594 97.335938 C 169.570312 90.304688 173.289062 84.195312 179.53125 79.171875 C 180.335938 78.527344 180.460938 77.347656 179.816406 76.546875 C 179.171875 75.742188 177.992188 75.613281 177.1875 76.261719 C 171.476562 80.855469 167.667969 86.3125 165.75 92.5 C 165.304688 91.789062 164.835938 91.070312 164.328125 90.351562 C 161.136719 85.8125 157.140625 84.792969 153.613281 83.894531 C 153.027344 83.746094 152.457031 83.59375 151.890625 83.433594 C 152.988281 81.546875 154.957031 78.59375 157.601562 76.386719 Z M 113.972656 77.902344 C 115.542969 75.882812 118.144531 74.878906 119.84375 74.410156 C 120.074219 76.414062 119.636719 78.402344 118.503906 80.351562 C 117.632812 81.855469 115.3125 82.78125 112.234375 83.425781 C 112.253906 81.902344 112.566406 79.71875 113.972656 77.902344 Z M 49.351562 136.429688 C 50.148438 129.082031 54.671875 124.59375 58.324219 122.121094 C 61.390625 120.046875 63.527344 116.726562 64.1875 113.019531 C 65.113281 107.796875 67.925781 100.429688 76.082031 94.980469 C 83 90.355469 93.144531 89.371094 102.097656 88.5 C 111.570312 87.578125 119.054688 86.851562 121.742188 82.226562 C 124.683594 77.160156 123.699219 72.636719 122.351562 69.742188 C 122.113281 69.226562 122.273438 68.765625 122.390625 68.535156 C 122.605469 68.113281 122.988281 67.824219 123.445312 67.734375 C 125.859375 67.257812 129.449219 66.925781 132.789062 68.023438 C 136.175781 69.140625 138.21875 73.0625 140.191406 76.859375 C 141.832031 80.019531 143.386719 83.007812 145.800781 84.738281 C 146.632812 85.332031 147.496094 85.761719 148.367188 86.132812 C 148.390625 86.148438 148.410156 86.171875 148.4375 86.183594 C 148.46875 86.199219 148.503906 86.195312 148.539062 86.207031 C 149.917969 86.773438 151.320312 87.160156 152.699219 87.511719 C 156.019531 88.359375 158.886719 89.089844 161.28125 92.496094 C 165.628906 98.6875 167.515625 104.925781 167.535156 104.988281 C 167.539062 104.992188 167.542969 104.996094 167.542969 105 C 167.542969 105.003906 167.542969 105.007812 167.542969 105.011719 C 167.5625 105.082031 169.730469 112.273438 165.941406 117.363281 C 165.792969 117.558594 165.597656 117.738281 165.425781 117.925781 C 162.796875 111.683594 158.820312 107.105469 153.597656 104.265625 C 150.777344 99.039062 146.636719 94.707031 141.269531 91.402344 C 140.382812 90.859375 139.234375 91.132812 138.699219 92.011719 C 138.15625 92.890625 138.429688 94.039062 139.308594 94.582031 C 144.265625 97.636719 148.054688 101.636719 150.5625 106.480469 C 153.050781 111.28125 154.367188 117.101562 154.511719 123.769531 C 153.949219 123.976562 153.386719 124.183594 152.824219 124.390625 C 148.902344 125.824219 145.203125 127.175781 142.632812 128.996094 C 142.03125 129.421875 141.464844 129.90625 140.914062 130.421875 C 140.574219 122.726562 138.066406 115.785156 133.28125 109.363281 C 132.917969 105.425781 132.285156 101.367188 131.335938 97.191406 C 131.109375 96.183594 130.101562 95.558594 129.101562 95.785156 C 128.097656 96.011719 127.464844 97.011719 127.695312 98.019531 C 129.382812 105.453125 130.109375 112.527344 129.851562 119.039062 C 129.628906 124.652344 128.628906 130.03125 126.960938 135.101562 C 123.058594 133.859375 119.03125 133.699219 117.355469 133.695312 C 116.890625 133.253906 116.421875 132.808594 115.972656 132.398438 C 113.269531 129.910156 109.09375 130.03125 106.476562 132.667969 C 105.613281 133.539062 104.582031 134.496094 103.429688 135.476562 C 108.382812 126.972656 110.609375 117.300781 110.214844 106.191406 C 114.796875 99.523438 123.046875 94.660156 123.132812 94.609375 C 124.023438 94.089844 124.328125 92.945312 123.808594 92.054688 C 123.289062 91.160156 122.140625 90.859375 121.257812 91.382812 C 120.871094 91.601562 111.769531 96.945312 106.769531 104.601562 C 104.746094 107.699219 102.953125 111.570312 101.058594 115.667969 C 98.421875 121.367188 95.695312 127.261719 92.402344 130.695312 C 87.339844 135.976562 76.847656 142.472656 74.636719 143.816406 C 69.398438 143.792969 64.484375 144.039062 60.261719 146.296875 C 58.351562 147.320312 56.480469 149.40625 54.710938 152.078125 C 52.453125 150.179688 48.371094 145.433594 49.351562 136.429688 Z M 158.210938 122.320312 C 158.023438 118.1875 157.382812 114.367188 156.320312 110.867188 C 158.839844 113.308594 160.851562 116.472656 162.339844 120.320312 C 161.109375 121.039062 159.703125 121.695312 158.210938 122.320312 Z M 131.238281 137.046875 C 130.96875 136.875 130.691406 136.714844 130.40625 136.558594 C 132.246094 131.078125 133.339844 125.25 133.578125 119.183594 C 133.609375 118.402344 133.582031 117.585938 133.585938 116.789062 C 136.472656 122.339844 137.605469 128.257812 137.144531 134.96875 C 135.933594 136.796875 134.960938 138.640625 134.25 140.167969 C 133.308594 138.832031 132.300781 137.734375 131.238281 137.046875 Z M 92.695312 142.082031 C 89.257812 143.425781 85.4375 143.765625 81.574219 143.832031 C 85.832031 141.023438 91.574219 136.949219 95.097656 133.277344 C 98.824219 129.394531 101.679688 123.210938 104.449219 117.230469 C 105.09375 115.835938 105.726562 114.488281 106.355469 113.175781 C 105.527344 124.007812 101.679688 133.238281 94.6875 141.214844 C 94.035156 141.523438 93.375 141.816406 92.695312 142.082031 Z M 164 223.203125 C 164.074219 228.914062 163.460938 239.058594 158.515625 242.855469 C 153.195312 246.933594 144.574219 246.757812 139.914062 246.285156 C 136.914062 245.984375 133.976562 246.769531 131.597656 248.503906 C 128.082031 251.066406 122.410156 254.121094 115.371094 254.121094 C 106.773438 254.121094 93.929688 247.332031 88.804688 244.417969 C 86.21875 242.945312 83.222656 242.390625 80.359375 242.855469 C 75.441406 243.652344 66.371094 244.304688 60.820312 239.78125 C 56.066406 235.898438 54.675781 229.007812 54.34375 223.914062 C 54.085938 219.929688 51.488281 216.582031 47.722656 215.378906 C 42.847656 213.824219 36.816406 210.453125 35.78125 203.207031 C 34.589844 194.882812 39.5 189.128906 42.53125 186.441406 C 44.675781 184.539062 46.269531 182.066406 47.140625 179.285156 C 50.339844 169.039062 53.722656 160.855469 56.835938 155.621094 C 56.839844 155.617188 56.84375 155.613281 56.84375 155.609375 C 56.84375 155.609375 56.84375 155.609375 56.84375 155.605469 C 58.695312 152.5 60.453125 150.425781 62.023438 149.585938 C 66.035156 147.441406 71.347656 147.503906 76.980469 147.566406 C 82.695312 147.625 88.589844 147.695312 94.058594 145.5625 C 94.925781 145.222656 95.769531 144.847656 96.589844 144.453125 C 96.59375 144.449219 96.601562 144.445312 96.609375 144.441406 C 101.996094 141.832031 106.316406 138.128906 109.125 135.300781 C 110.328125 134.09375 112.226562 134.019531 113.445312 135.144531 C 119.992188 141.15625 124.257812 146.34375 125.457031 149.761719 C 127.722656 156.214844 125.671875 160.320312 125.570312 160.515625 C 125.089844 161.421875 125.429688 162.546875 126.328125 163.035156 C 127.234375 163.527344 128.371094 163.191406 128.859375 162.285156 C 128.984375 162.058594 131.835938 156.644531 128.980469 148.527344 C 127.808594 145.191406 124.730469 141.28125 121.359375 137.699219 C 123.875 138.019531 126.925781 138.707031 129.210938 140.1875 C 132.566406 142.355469 136.292969 152.6875 137.851562 158.695312 C 138.070312 159.53125 138.828125 160.089844 139.660156 160.089844 C 139.816406 160.089844 139.972656 160.070312 140.132812 160.03125 C 141.128906 159.773438 141.726562 158.753906 141.46875 157.753906 C 141.332031 157.226562 140.855469 155.441406 140.101562 153.117188 C 144.484375 154.527344 152.070312 157.351562 156.855469 161.328125 C 164.011719 167.273438 176.28125 192.699219 175.367188 202.1875 C 174.980469 206.203125 172.933594 209.625 169.285156 212.355469 C 169.285156 212.359375 169.285156 212.359375 169.28125 212.359375 C 169.277344 212.363281 169.277344 212.367188 169.273438 212.371094 C 165.917969 214.886719 163.949219 218.9375 164 223.203125 Z M 146.753906 145.5 C 147.210938 147.976562 147.867188 150.253906 148.726562 152.351562 C 147.253906 151.714844 145.824219 151.152344 144.5 150.671875 C 145.136719 148.757812 145.882812 147.027344 146.753906 145.5 Z M 160.875 160.015625 C 161.628906 155.378906 164.546875 152.027344 167.929688 148.195312 C 169.976562 145.875 172.171875 143.359375 174.078125 140.332031 C 174.050781 143.332031 173.882812 146.265625 173.558594 149.113281 C 172.714844 156.503906 170.84375 163.550781 168 170.121094 C 165.605469 165.984375 163.121094 162.398438 160.875 160.015625 Z M 262.351562 187.121094 C 259.210938 195.066406 251.910156 198.03125 246.335938 199.121094 C 242.199219 199.925781 238.628906 202.691406 236.785156 206.523438 C 234.335938 211.609375 229.417969 218.195312 219.882812 220.714844 C 210.042969 223.316406 202.238281 220.191406 197.425781 217.113281 C 194.1875 215.042969 190.054688 214.78125 186.644531 216.421875 C 183.351562 218 180.457031 218.722656 178.269531 218.511719 C 174.894531 218.183594 173.304688 215.855469 172.636719 214.453125 C 175.488281 212.023438 178.542969 208.164062 179.082031 202.542969 C 179.699219 196.167969 175.46875 184.261719 170.242188 174.207031 C 173.898438 166.566406 176.273438 158.277344 177.269531 149.539062 C 177.894531 144.070312 177.988281 138.320312 177.566406 132.371094 C 177.5625 132.328125 177.558594 132.289062 177.554688 132.246094 C 177.316406 128.976562 176.933594 125.648438 176.386719 122.265625 C 176.21875 121.246094 175.257812 120.550781 174.242188 120.71875 C 173.226562 120.886719 172.535156 121.847656 172.699219 122.863281 C 173.214844 126.046875 173.578125 129.179688 173.808594 132.253906 C 171.902344 138.03125 168.464844 141.949219 165.128906 145.726562 C 161.984375 149.285156 159.015625 152.703125 157.675781 157.253906 C 156.652344 156.515625 155.558594 155.824219 154.425781 155.175781 C 151.960938 151.46875 150.492188 146.90625 149.945312 141.277344 C 151.328125 139.890625 152.878906 138.761719 154.636719 137.914062 C 155.566406 137.46875 155.957031 136.351562 155.511719 135.421875 C 155.066406 134.492188 153.949219 134.101562 153.019531 134.546875 C 150.566406 135.726562 148.449219 137.324219 146.621094 139.328125 C 146.597656 139.359375 146.570312 139.386719 146.546875 139.417969 C 144.179688 142.039062 142.335938 145.382812 140.96875 149.46875 C 139.960938 149.152344 139.132812 148.910156 138.546875 148.742188 C 137.960938 147.234375 137.304688 145.695312 136.578125 144.21875 C 137.429688 142.03125 140.351562 135.183594 144.785156 132.046875 C 146.949219 130.515625 150.425781 129.246094 154.101562 127.898438 C 155.105469 127.53125 156.109375 127.160156 157.109375 126.78125 C 157.121094 126.773438 157.132812 126.769531 157.148438 126.765625 C 160.347656 125.546875 163.421875 124.214844 165.84375 122.492188 C 165.855469 122.484375 165.871094 122.476562 165.878906 122.46875 C 167.078125 121.613281 168.125 120.675781 168.929688 119.59375 C 172.347656 115.003906 172.117188 109.378906 171.621094 106.261719 C 173.304688 106.335938 175.460938 106.695312 176.878906 107.777344 C 177.632812 108.355469 178.28125 109.128906 178.804688 110.082031 C 180.382812 112.941406 183.6875 114.488281 187.027344 113.925781 C 191.019531 113.257812 192.5 113.632812 192.953125 113.820312 C 195.34375 114.820312 196.117188 117.140625 196.144531 117.222656 C 196.441406 118.207031 197.484375 118.769531 198.472656 118.46875 C 199.460938 118.167969 200.019531 117.125 199.71875 116.136719 C 199.667969 115.972656 198.441406 112.066406 194.390625 110.371094 C 192.914062 109.753906 190.664062 109.675781 187.652344 110.078125 C 190.792969 108.367188 192.929688 105.03125 192.929688 101.207031 C 192.929688 100.175781 192.097656 99.339844 191.0625 99.339844 C 190.03125 99.339844 189.195312 100.175781 189.195312 101.207031 C 189.195312 104.710938 186.347656 107.5625 182.84375 107.5625 C 182.378906 107.5625 181.921875 107.492188 181.472656 107.394531 C 180.800781 106.394531 180.046875 105.492188 179.144531 104.804688 C 178.480469 104.300781 177.753906 103.910156 177.007812 103.597656 C 176.695312 102.839844 176.492188 102.039062 176.492188 101.207031 C 176.492188 97.707031 179.339844 94.855469 182.84375 94.855469 C 192.472656 94.855469 196.554688 98.316406 199.269531 101.695312 C 200.167969 102.8125 200.324219 103.96875 200.53125 105.574219 C 200.789062 107.554688 201.117188 110.011719 203.019531 112.914062 C 203.023438 112.925781 203.03125 112.9375 203.039062 112.949219 C 203.066406 112.992188 203.089844 113.035156 203.117188 113.078125 C 205.261719 116.269531 210.386719 117.90625 216.316406 119.804688 C 220.902344 121.265625 225.644531 122.785156 228.648438 125.011719 C 234.976562 129.707031 237.390625 140.457031 237.410156 140.5625 C 237.601562 141.4375 238.375 142.03125 239.234375 142.03125 C 239.367188 142.03125 239.5 142.019531 239.632812 141.988281 C 240.640625 141.769531 241.28125 140.777344 241.0625 139.769531 C 240.957031 139.273438 238.339844 127.550781 230.875 122.011719 C 227.375 119.414062 222.332031 117.800781 217.457031 116.246094 C 214.957031 115.445312 212.425781 114.632812 210.359375 113.742188 C 220.445312 114.058594 231.53125 117.511719 240.597656 122.246094 C 240.640625 122.28125 240.699219 122.289062 240.742188 122.320312 C 249.15625 126.738281 255.808594 132.253906 258.253906 137.367188 C 262.40625 146.035156 260.433594 158.492188 259.136719 164.351562 C 257.121094 162.304688 255.503906 161.144531 255.453125 161.109375 C 254.609375 160.515625 253.449219 160.714844 252.851562 161.558594 C 252.257812 162.398438 252.457031 163.5625 253.296875 164.160156 C 253.539062 164.332031 256.007812 166.117188 258.457031 169.054688 C 258.570312 169.269531 258.722656 169.460938 258.914062 169.621094 C 262.195312 173.773438 265.175781 179.972656 262.351562 187.121094 Z M 262.351562 187.121094 " fill-opacity="1" fill-rule="nonzero"/></g><path fill="#a9a0f0" d="M 194.554688 123.574219 C 194.503906 122.605469 193.71875 121.839844 192.75 121.8125 C 191.792969 121.730469 190.949219 122.492188 190.835938 123.453125 C 186.996094 155.339844 190.558594 181.636719 201.714844 203.855469 C 202.042969 204.511719 202.699219 204.886719 203.386719 204.886719 C 203.667969 204.886719 203.953125 204.820312 204.222656 204.6875 C 205.144531 204.222656 205.515625 203.101562 205.050781 202.179688 C 196.5 185.152344 192.558594 165.582031 193.136719 142.75 C 197.289062 164.457031 206.472656 183.980469 220.5625 200.972656 C 221.21875 201.765625 222.390625 201.878906 223.191406 201.21875 C 223.988281 200.558594 224.09375 199.382812 223.4375 198.589844 C 205.878906 177.410156 196.160156 152.167969 194.554688 123.574219 Z M 194.554688 123.574219 " fill-opacity="1" fill-rule="nonzero"/><path fill="#a9a0f0" d="M 213.851562 130.929688 C 213.082031 130.410156 212.042969 130.535156 211.417969 131.230469 C 210.792969 131.917969 210.773438 132.964844 211.375 133.679688 C 228.027344 153.519531 237.402344 170.675781 240.871094 187.667969 C 241.050781 188.550781 241.828125 189.160156 242.699219 189.160156 C 242.824219 189.160156 242.949219 189.148438 243.074219 189.121094 C 244.085938 188.917969 244.738281 187.929688 244.53125 186.917969 C 241.59375 172.535156 234.640625 158.113281 222.90625 142.242188 C 236.828125 153.527344 245.675781 165.300781 250.382812 178.632812 C 250.730469 179.605469 251.792969 180.109375 252.769531 179.773438 C 253.742188 179.425781 254.25 178.359375 253.90625 177.386719 C 247.761719 159.996094 235.039062 145.234375 213.851562 130.929688 Z M 213.851562 130.929688 " fill-opacity="1" fill-rule="nonzero"/><path fill="#a9a0f0" d="M 74.46875 114.859375 C 74.566406 114.859375 74.664062 114.851562 74.757812 114.839844 C 85.796875 113.128906 94.945312 107.71875 101.945312 98.75 C 102.503906 98.035156 102.464844 97.019531 101.855469 96.347656 C 101.238281 95.671875 100.234375 95.539062 99.46875 96.027344 C 92.4375 100.511719 85.527344 101.90625 78.328125 100.277344 C 77.320312 100.050781 76.324219 100.683594 76.09375 101.6875 C 75.867188 102.695312 76.5 103.695312 77.503906 103.921875 C 82.398438 105.023438 87.273438 104.882812 92.082031 103.5 C 86.972656 107.5625 81.050781 110.082031 74.1875 111.144531 C 73.167969 111.300781 72.472656 112.257812 72.628906 113.277344 C 72.769531 114.199219 73.5625 114.859375 74.46875 114.859375 Z M 74.46875 114.859375 " fill-opacity="1" fill-rule="nonzero"/></svg>