<svg xmlns="http://www.w3.org/2000/svg" xmlns:xlink="http://www.w3.org/1999/xlink" width="400" zoomAndPan="magnify" viewBox="0 0 300 299.999988" height="400" preserveAspectRatio="xMidYMid meet" version="1.0"><defs><clipPath id="9fa6f7e927"><path d="M 30 79.5 L 270 79.5 L 270 220.5 L 30 220.5 Z M 30 79.5 " clip-rule="nonzero"/></clipPath></defs><g clip-path="url(#9fa6f7e927)"><path fill="#a9a0f0" d="M 245.359375 79.796875 C 241.925781 79.53125 238.898438 79.925781 236.257812 80.980469 C 233.621094 82.039062 230.460938 82.566406 226.765625 82.566406 C 223.074219 82.566406 219.234375 84.542969 215.28125 88.5 C 211.320312 92.457031 207.5 93.242188 203.8125 90.871094 C 200.117188 88.496094 196.425781 87.445312 192.734375 87.707031 C 189.042969 87.96875 186.539062 87.183594 185.222656 85.335938 C 183.90625 83.488281 180.742188 82.695312 175.730469 82.960938 C 170.71875 83.226562 167.421875 83.75 165.84375 84.542969 C 164.257812 85.335938 161.867188 87.707031 158.703125 91.664062 C 155.539062 95.621094 152.382812 98.386719 149.210938 99.964844 C 146.046875 101.550781 143.019531 104.578125 140.117188 109.0625 C 137.21875 113.550781 135.5 115.785156 134.976562 115.785156 C 134.445312 115.785156 132.867188 113.8125 130.226562 109.855469 C 127.59375 105.898438 124.035156 103.789062 119.550781 103.527344 C 115.070312 103.265625 111.644531 102.335938 109.265625 100.757812 C 106.894531 99.179688 104.105469 98.515625 100.945312 98.78125 C 97.777344 99.046875 94.75 100.363281 91.847656 102.734375 C 88.945312 105.109375 85.652344 106.824219 81.960938 107.878906 C 78.265625 108.933594 75.761719 110.117188 74.445312 111.4375 C 73.125 112.757812 71.941406 114.734375 70.886719 117.371094 C 69.832031 120.007812 69.175781 123.429688 68.90625 127.65625 C 68.644531 131.875 69.035156 136.242188 70.09375 140.722656 C 71.148438 145.203125 69.304688 148.238281 64.558594 149.816406 C 59.808594 151.402344 56.515625 152.980469 54.667969 154.566406 C 52.824219 156.144531 51.636719 158.386719 51.109375 161.289062 C 50.582031 164.1875 48.71875 166.167969 45.554688 167.222656 C 42.390625 168.277344 39.230469 170.117188 36.0625 172.757812 C 32.898438 175.398438 31.054688 177.894531 30.527344 180.273438 C 30 182.648438 30.261719 185.414062 31.316406 188.578125 C 32.371094 191.742188 34.347656 195.050781 37.25 198.484375 C 40.152344 201.914062 42.785156 204.285156 45.160156 205.601562 C 47.535156 206.921875 52.558594 208.242188 60.207031 209.558594 C 67.855469 210.875 74.183594 211.144531 79.191406 210.347656 C 84.203125 209.558594 87.230469 208.367188 88.289062 206.789062 C 89.34375 205.203125 92.765625 203.757812 98.570312 202.4375 C 104.375 201.121094 108.476562 199.144531 110.847656 196.503906 C 112.035156 195.1875 113.222656 193.871094 114.40625 192.554688 C 114.804688 194.132812 115.199219 195.71875 115.59375 197.296875 C 116.386719 200.460938 119.023438 203.488281 123.507812 206.394531 C 127.988281 209.296875 130.890625 210.875 132.207031 211.140625 C 133.523438 211.402344 134.84375 212.460938 136.164062 214.304688 C 137.480469 216.148438 139.328125 217.203125 141.699219 217.46875 C 144.070312 217.730469 146.046875 217.601562 147.632812 217.074219 C 149.210938 216.542969 151.320312 217.074219 153.960938 218.652344 C 156.59375 220.238281 160.171875 220.5 164.65625 219.445312 C 169.140625 218.390625 173.621094 217.996094 178.101562 218.257812 C 182.585938 218.523438 185.351562 217.996094 186.40625 216.675781 C 187.460938 215.359375 189.046875 214.171875 191.15625 213.117188 C 193.265625 212.0625 194.714844 210.085938 195.507812 207.183594 C 196.296875 204.285156 197.222656 202.308594 198.273438 201.253906 C 199.328125 200.199219 199.988281 197.296875 200.25 192.554688 C 200.515625 187.804688 204.335938 185.28125 211.71875 185.019531 C 219.109375 184.753906 223.867188 183.828125 225.976562 182.25 C 228.089844 180.664062 230.585938 179.617188 233.492188 179.085938 C 236.390625 178.5625 238.238281 177.898438 239.03125 177.109375 C 239.820312 176.316406 240.875 174.074219 242.195312 170.386719 C 243.511719 166.691406 244.832031 164.1875 246.148438 162.871094 C 247.46875 161.550781 248.128906 159.839844 248.125 157.730469 C 248.125 155.621094 247.335938 153.25 245.75 150.609375 C 244.960938 149.292969 244.167969 147.96875 243.378906 146.652344 C 245.75 145.730469 248.125 144.8125 250.5 143.886719 C 255.242188 142.039062 258.804688 140.0625 261.179688 137.953125 C 263.550781 135.84375 265.398438 133.589844 266.714844 131.210938 C 268.03125 128.839844 268.953125 126.070312 269.484375 122.90625 C 270.007812 119.742188 269.617188 116.714844 268.292969 113.808594 C 266.976562 110.910156 266.578125 108.273438 267.109375 105.898438 C 267.636719 103.527344 266.84375 101.550781 264.734375 99.964844 C 262.625 98.386719 261.441406 96.015625 261.179688 92.851562 C 260.910156 89.679688 259.070312 86.789062 255.636719 84.144531 C 252.210938 81.511719 248.785156 80.0625 245.359375 79.796875 Z M 242.605469 83.898438 C 243.378906 83.929688 244.167969 84.015625 244.960938 84.144531 C 248.128906 84.675781 250.757812 85.730469 252.871094 87.308594 C 254.980469 88.894531 256.167969 91.132812 256.429688 94.035156 C 256.695312 96.9375 257.882812 99.179688 259.992188 100.757812 C 262.101562 102.34375 263.019531 104.316406 262.757812 106.691406 C 262.496094 109.0625 263.019531 111.4375 264.34375 113.808594 C 265.660156 116.183594 266.320312 118.554688 266.320312 120.929688 C 266.320312 123.304688 265.398438 126.203125 263.550781 129.628906 C 261.703125 133.058594 257.882812 136.238281 252.078125 139.140625 C 246.277344 142.039062 242.984375 143.488281 242.195312 143.488281 C 241.402344 143.488281 240.078125 142.570312 238.238281 140.722656 C 236.390625 138.875 235.074219 136.636719 234.28125 133.996094 C 233.488281 131.363281 229.800781 129.371094 223.210938 128.046875 C 219.910156 127.386719 216.601562 126.730469 213.304688 126.070312 C 213.699219 125.410156 214.09375 124.753906 214.492188 124.09375 C 215.28125 122.773438 215.675781 121.320312 215.675781 119.742188 C 215.675781 118.164062 214.882812 114.207031 213.304688 107.878906 C 211.71875 101.546875 211.328125 97.460938 212.117188 95.617188 C 212.90625 93.769531 214.359375 91.925781 216.46875 90.078125 C 218.578125 88.234375 221.625 87.179688 225.582031 86.914062 C 229.539062 86.652344 232.964844 85.992188 235.867188 84.9375 C 238.039062 84.144531 240.28125 83.792969 242.605469 83.898438 Z M 173.75 86.125 C 174.9375 85.992188 176.128906 85.992188 177.3125 86.125 C 179.6875 86.390625 181.398438 87.3125 182.453125 88.894531 C 183.511719 90.476562 186.144531 91.132812 190.363281 90.871094 C 194.582031 90.609375 197.878906 91.132812 200.25 92.453125 C 202.625 93.773438 204.601562 95.222656 206.183594 96.800781 C 207.765625 98.386719 208.554688 100.757812 208.554688 103.921875 C 208.554688 107.085938 209.21875 110.90625 210.535156 115.390625 C 211.851562 119.878906 210.933594 123.828125 207.765625 127.257812 C 204.601562 130.6875 202.101562 132.417969 200.25 132.417969 C 198.402344 132.417969 196.5625 132.941406 194.714844 133.996094 C 192.867188 135.050781 190.757812 136.765625 188.386719 139.140625 C 186.015625 141.515625 184.5625 143.75 184.035156 145.867188 C 183.773438 146.921875 183.507812 147.976562 183.242188 149.03125 C 182.058594 148.632812 180.871094 148.238281 179.6875 147.84375 C 177.308594 147.050781 174.414062 147.046875 170.984375 147.84375 C 167.554688 148.632812 164.640625 148.503906 162.265625 147.445312 C 159.890625 146.390625 156.992188 145.996094 153.5625 146.257812 C 150.136719 146.523438 145.917969 148.5 140.90625 152.195312 C 138.402344 154.035156 135.894531 155.882812 133.390625 157.730469 C 134.183594 155.75 134.976562 153.777344 135.765625 151.796875 C 137.347656 147.839844 138.007812 145.074219 137.742188 143.488281 C 137.480469 141.910156 137.742188 139.539062 138.535156 136.375 C 139.328125 133.203125 139.726562 130.425781 139.71875 128.046875 C 139.71875 125.675781 139.328125 123.4375 138.535156 121.328125 C 137.742188 119.210938 139.191406 115.789062 142.882812 111.042969 C 146.578125 106.292969 150.265625 102.867188 153.960938 100.757812 C 157.648438 98.648438 160.703125 96.015625 163.074219 92.851562 C 165.449219 89.679688 167.816406 87.707031 170.195312 86.914062 C 171.378906 86.523438 172.566406 86.257812 173.75 86.125 Z M 241.976562 91.859375 C 240.9375 91.859375 239.820312 92.457031 238.632812 93.636719 C 237.84375 94.429688 237.050781 95.222656 236.257812 96.015625 L 238.632812 96.015625 C 240.214844 96.015625 241.664062 96.800781 242.984375 98.386719 C 244.304688 99.96875 245.09375 101.550781 245.359375 103.128906 C 245.621094 104.714844 246.148438 105.507812 246.9375 105.507812 C 247.730469 105.507812 248.390625 104.976562 248.914062 103.921875 C 249.445312 102.867188 249.578125 101.550781 249.3125 99.964844 C 249.046875 98.386719 248.253906 96.804688 246.9375 95.222656 C 245.621094 93.636719 244.296875 92.582031 242.984375 92.058594 C 242.652344 91.925781 242.324219 91.859375 241.976562 91.859375 Z M 227.164062 96.015625 C 225.84375 96.015625 223.867188 97.070312 221.230469 99.179688 C 218.59375 101.289062 217.390625 103.261719 217.65625 105.109375 C 217.785156 106.03125 217.917969 106.953125 218.046875 107.878906 C 218.445312 107.746094 218.835938 107.617188 219.234375 107.484375 C 220.027344 107.21875 220.574219 106.292969 220.835938 104.714844 C 221.101562 103.128906 221.628906 101.945312 222.417969 101.15625 C 223.210938 100.363281 224.925781 100.226562 227.558594 100.757812 C 228.875 101.019531 230.199219 101.289062 231.515625 101.550781 C 231.117188 100.625 230.722656 99.707031 230.328125 98.78125 C 229.539062 96.933594 228.476562 96.015625 227.164062 96.015625 Z M 175.367188 97.9375 C 173.886719 98.035156 172.566406 98.582031 171.378906 99.570312 C 169.796875 100.890625 169.140625 102.210938 169.402344 103.527344 C 169.53125 104.183594 169.664062 104.84375 169.796875 105.507812 C 170.324219 104.84375 170.851562 104.183594 171.378906 103.527344 C 172.433594 102.207031 174.542969 101.945312 177.707031 102.734375 C 179.292969 103.128906 180.871094 103.523438 182.453125 103.921875 L 182.453125 102.34375 C 182.453125 101.289062 182.058594 100.363281 181.265625 99.570312 C 180.476562 98.78125 179.023438 98.25 176.914062 97.992188 C 176.390625 97.921875 175.867188 97.902344 175.367188 97.9375 Z M 102.128906 102.734375 C 105.03125 103 107.289062 103.789062 108.871094 105.109375 C 110.453125 106.429688 113.21875 107.089844 117.179688 107.085938 C 121.132812 107.085938 124.953125 109.71875 128.648438 115 C 132.335938 120.273438 134.183594 125.015625 134.183594 129.234375 C 134.183594 133.453125 133.789062 136.242188 133 137.558594 C 132.207031 138.875 131.414062 143.09375 130.625 150.214844 C 129.835938 157.335938 128.25 162.078125 125.878906 164.453125 C 124.691406 165.636719 123.507812 166.824219 122.320312 168.015625 C 121.660156 165.242188 121 162.476562 120.34375 159.707031 C 119.023438 154.167969 117.308594 150.746094 115.199219 149.421875 C 114.144531 148.761719 113.09375 148.105469 112.035156 147.445312 C 112.960938 147.050781 113.878906 146.65625 114.804688 146.257812 C 115.730469 145.867188 116.648438 145.472656 117.570312 145.074219 C 116.78125 144.542969 115.988281 144.019531 115.199219 143.488281 C 113.617188 142.433594 111.773438 141.777344 109.664062 141.515625 C 107.554688 141.25 105.820312 141.90625 104.503906 143.488281 C 103.183594 145.074219 101.867188 145.867188 100.546875 145.867188 C 99.230469 145.867188 98.4375 146.257812 98.175781 147.050781 C 97.910156 147.84375 96.460938 148.367188 93.824219 148.632812 C 91.1875 148.898438 87.632812 148.765625 83.144531 148.238281 C 78.664062 147.707031 75.765625 146.128906 74.445312 143.488281 C 73.125 140.855469 72.335938 138.351562 72.070312 135.976562 C 71.808594 133.601562 72.199219 129.5 73.257812 123.699219 C 74.3125 117.894531 75.367188 114.46875 76.421875 113.414062 C 77.476562 112.359375 80.109375 111.304688 84.332031 110.25 C 88.554688 109.195312 91.851562 107.617188 94.21875 105.507812 C 96.59375 103.398438 99.230469 102.472656 102.128906 102.734375 Z M 191.15625 105.507812 C 191.289062 107.878906 191.417969 110.25 191.550781 112.621094 C 191.8125 117.371094 192.34375 119.746094 193.132812 119.742188 C 193.921875 119.742188 194.714844 117.898438 195.507812 114.207031 C 196.296875 110.511719 196.296875 108.140625 195.507812 107.085938 C 194.714844 106.03125 193.789062 105.507812 192.734375 105.507812 Z M 114.40625 110.554688 C 114.015625 110.621094 113.617188 110.78125 113.222656 111.042969 C 112.429688 111.566406 112.164062 113.546875 112.429688 116.972656 C 112.5625 118.6875 112.695312 120.402344 112.828125 122.113281 C 113.355469 121.984375 113.882812 121.851562 114.40625 121.71875 C 115.460938 121.457031 116.253906 120.398438 116.785156 118.554688 C 117.308594 116.710938 117.441406 115 117.179688 113.414062 C 116.914062 111.835938 116.386719 110.910156 115.59375 110.648438 C 115.199219 110.511719 114.804688 110.488281 114.40625 110.554688 Z M 252.078125 111.042969 L 252.078125 115.390625 C 252.078125 118.292969 251.816406 120.136719 251.289062 120.929688 C 251.023438 121.328125 250.757812 121.71875 250.5 122.113281 L 252.078125 122.113281 C 253.132812 122.113281 254.058594 121.457031 254.851562 120.136719 C 255.640625 118.820312 255.90625 116.972656 255.636719 114.601562 C 255.375 112.226562 254.714844 111.042969 253.664062 111.042969 Z M 222.8125 113.808594 C 222.417969 113.945312 222.019531 114.207031 221.625 114.601562 C 220.835938 115.390625 220.4375 116.714844 220.4375 118.554688 C 220.4375 120.402344 220.570312 121.71875 220.835938 122.511719 C 221.101562 123.304688 221.890625 123.828125 223.210938 124.09375 C 223.867188 124.222656 224.527344 124.355469 225.1875 124.492188 C 224.921875 123.960938 224.65625 123.4375 224.394531 122.90625 C 223.867188 121.851562 223.601562 120.402344 223.601562 118.554688 C 223.601562 116.710938 223.867188 115.523438 224.394531 115 C 224.65625 114.730469 224.925781 114.46875 225.1875 114.207031 C 224.789062 114.074219 224.394531 113.945312 224 113.808594 C 223.601562 113.675781 223.210938 113.675781 222.8125 113.808594 Z M 91.722656 114.746094 C 91.472656 114.777344 91.253906 114.863281 91.054688 115 C 90.265625 115.523438 89.867188 116.316406 89.871094 117.371094 C 89.871094 118.425781 90.527344 119.347656 91.847656 120.136719 C 93.164062 120.929688 95.273438 120.933594 98.175781 120.136719 C 101.078125 119.347656 102.523438 118.554688 102.527344 117.765625 L 102.527344 116.578125 C 101.601562 116.710938 100.683594 116.839844 99.757812 116.972656 C 97.910156 117.238281 96.195312 116.84375 94.617188 115.785156 C 93.429688 115 92.464844 114.640625 91.722656 114.746094 Z M 235.867188 115 C 235.074219 115 234.28125 115.390625 233.492188 116.183594 C 232.703125 116.976562 232.433594 118.03125 232.703125 119.347656 C 232.964844 120.664062 234.417969 121.851562 237.050781 122.90625 C 239.691406 123.960938 241.265625 123.960938 241.796875 122.90625 C 242.0625 122.382812 242.324219 121.851562 242.585938 121.328125 C 241.796875 120.929688 241.003906 120.535156 240.214844 120.136719 C 238.632812 119.347656 237.710938 118.289062 237.445312 116.972656 C 237.183594 115.65625 236.652344 114.992188 235.867188 115 Z M 155.539062 115.375 C 154.75 115.523438 153.957031 116.183594 153.167969 117.371094 C 152.113281 118.949219 151.585938 120.929688 151.585938 123.300781 C 151.585938 125.675781 151.984375 127.519531 152.773438 128.839844 C 153.5625 130.15625 154.492188 130.820312 155.539062 130.820312 L 157.125 130.820312 C 156.992188 128.839844 156.859375 126.863281 156.726562 124.882812 C 156.464844 120.929688 156.59375 118.425781 157.125 117.371094 C 157.386719 116.839844 157.65625 116.316406 157.914062 115.785156 C 157.386719 115.65625 156.859375 115.523438 156.332031 115.390625 C 156.070312 115.328125 155.804688 115.328125 155.539062 115.375 Z M 123.113281 124.492188 C 122.84375 126.46875 122.578125 128.445312 122.320312 130.421875 C 122.054688 132.398438 121.789062 134.394531 121.527344 136.375 C 122.1875 136.105469 122.851562 135.84375 123.507812 135.582031 C 124.824219 135.050781 125.746094 133.851562 126.273438 132.003906 C 126.800781 130.15625 127.0625 128.578125 127.0625 127.257812 C 127.0625 125.9375 126.40625 125.148438 125.085938 124.882812 C 124.429688 124.753906 123.769531 124.621094 123.113281 124.492188 Z M 171.378906 127.65625 C 170.984375 128.441406 170.59375 129.234375 170.195312 130.027344 C 169.402344 131.605469 169.53125 132.941406 170.585938 133.996094 C 171.640625 135.050781 172.960938 135.710938 174.542969 135.976562 C 176.128906 136.242188 177.046875 135.980469 177.3125 135.1875 C 177.578125 134.394531 176.65625 132.921875 174.542969 130.820312 C 173.488281 129.765625 172.433594 128.710938 171.378906 127.65625 Z M 85.320312 127.960938 C 84.925781 128.023438 84.59375 128.179688 84.332031 128.441406 C 83.804688 128.972656 83.671875 130.027344 83.9375 131.605469 C 84.199219 133.191406 85.785156 134.789062 88.683594 136.375 C 90.132812 137.160156 91.582031 137.957031 93.035156 138.746094 C 93.035156 138.214844 93.035156 137.691406 93.035156 137.160156 C 93.035156 136.105469 92.242188 134.375 90.660156 132.003906 C 89.078125 129.628906 87.761719 128.3125 86.707031 128.046875 C 86.179688 127.917969 85.714844 127.894531 85.320312 127.960938 Z M 216.46875 130.820312 C 220.15625 130.820312 223.339844 131.210938 225.976562 132.003906 C 228.613281 132.796875 230.195312 134.394531 230.722656 136.765625 C 231.25 139.140625 232.703125 141.25 235.074219 143.09375 C 237.445312 144.941406 238.765625 146.652344 239.03125 148.238281 C 239.292969 149.816406 240.214844 151.664062 241.796875 153.773438 C 243.378906 155.882812 244.171875 157.59375 244.171875 158.914062 C 244.171875 160.234375 243.511719 161.554688 242.195312 162.871094 C 240.871094 164.1875 239.949219 166.167969 239.421875 168.800781 C 238.898438 171.441406 238.238281 173.152344 237.445312 173.945312 C 236.652344 174.734375 233.226562 176.320312 227.164062 178.691406 C 221.09375 181.0625 215.414062 182.25 210.140625 182.25 C 204.863281 182.25 201.835938 181.988281 201.042969 181.457031 C 200.25 180.933594 199.195312 177.898438 197.878906 172.363281 C 196.5625 166.824219 194.976562 163.53125 193.132812 162.472656 C 191.289062 161.417969 189.703125 159.578125 188.386719 156.9375 C 187.070312 154.296875 186.40625 151.929688 186.40625 149.816406 C 186.40625 147.707031 187.855469 145.210938 190.757812 142.304688 C 193.660156 139.402344 196.691406 137.691406 199.855469 137.160156 C 203.019531 136.636719 205.65625 135.449219 207.765625 133.601562 C 209.878906 131.757812 212.769531 130.820312 216.46875 130.820312 Z M 145.65625 134.789062 C 144.863281 134.789062 144.203125 135.449219 143.675781 136.765625 C 143.148438 138.085938 143.808594 139.40625 145.65625 140.722656 C 147.5 142.039062 148.949219 142.703125 150.003906 142.703125 C 151.058594 142.703125 151.71875 142.304688 151.984375 141.515625 C 152.246094 140.722656 151.457031 139.402344 149.609375 137.558594 C 147.765625 135.710938 146.445312 134.789062 145.65625 134.789062 Z M 221.125 142 C 220.132812 142.0625 219.101562 142.433594 218.046875 143.09375 C 215.9375 144.414062 214.890625 145.734375 214.882812 147.050781 L 214.882812 149.03125 C 215.414062 148.5 215.9375 147.976562 216.46875 147.445312 C 217.523438 146.390625 218.859375 145.996094 220.4375 146.257812 C 222.023438 146.523438 223.078125 147.183594 223.601562 148.238281 C 224.132812 149.292969 224.789062 149.6875 225.582031 149.421875 C 226.375 149.160156 226.773438 148.238281 226.765625 146.652344 C 226.765625 145.074219 225.84375 143.757812 224 142.703125 C 223.078125 142.171875 222.113281 141.933594 221.125 142 Z M 125.085938 146.652344 C 124.296875 146.652344 123.765625 148.238281 123.507812 151.402344 C 123.375 152.980469 123.238281 154.566406 123.113281 156.144531 C 123.507812 155.882812 123.898438 155.617188 124.296875 155.359375 C 125.085938 154.828125 125.75 153.640625 126.273438 151.796875 C 126.800781 149.949219 126.933594 148.632812 126.671875 147.84375 C 126.40625 147.050781 125.878906 146.652344 125.085938 146.652344 Z M 202.625 147.445312 C 201.835938 147.445312 200.511719 148.238281 198.671875 149.816406 C 196.824219 151.402344 195.898438 153.113281 195.898438 154.960938 L 195.898438 157.730469 C 196.296875 157.597656 196.6875 157.46875 197.085938 157.332031 C 197.878906 157.070312 198.671875 156.015625 199.460938 154.167969 C 200.25 152.324219 201.308594 151.140625 202.625 150.609375 C 203.945312 150.085938 204.472656 149.421875 204.207031 148.632812 C 203.945312 147.839844 203.414062 147.445312 202.625 147.445312 Z M 155.019531 150.214844 C 155.761719 150.148438 156.464844 150.148438 157.125 150.214844 C 159.757812 150.476562 162.019531 151.402344 163.867188 152.980469 C 165.710938 154.566406 167.160156 157.992188 168.214844 163.265625 C 169.269531 168.539062 169.53125 173.152344 169.007812 177.109375 C 168.476562 181.0625 165.695312 184.621094 160.683594 187.785156 C 155.671875 190.949219 151.457031 193.210938 148.027344 194.527344 C 144.601562 195.847656 141.171875 196.507812 137.742188 196.503906 C 134.316406 196.503906 130.757812 195.980469 127.0625 194.925781 C 123.375 193.871094 121 192.15625 119.949219 189.78125 C 118.890625 187.410156 118.761719 185.28125 119.550781 183.4375 C 120.34375 181.589844 120.742188 179.347656 120.734375 176.714844 C 120.734375 174.074219 122.976562 171.308594 127.460938 168.40625 C 131.945312 165.507812 135.371094 162.609375 137.742188 159.707031 C 140.117188 156.804688 143.277344 154.433594 147.234375 152.585938 C 150.203125 151.203125 152.792969 150.414062 155.019531 150.214844 Z M 174.148438 150.214844 C 177.050781 150.476562 179.15625 151.007812 180.476562 151.796875 C 181.796875 152.585938 183.25 154.828125 184.828125 158.523438 C 186.40625 162.210938 188.253906 164.71875 190.363281 166.035156 C 192.472656 167.351562 194.183594 171.179688 195.507812 177.507812 C 196.824219 183.835938 197.351562 188.464844 197.085938 191.363281 C 196.824219 194.265625 195.636719 198.351562 193.527344 203.625 C 191.417969 208.898438 189.707031 211.667969 188.386719 211.929688 C 187.070312 212.195312 185.878906 212.855469 184.828125 213.910156 C 183.773438 214.964844 181.003906 215.359375 176.523438 215.09375 C 172.035156 214.832031 167.953125 215.089844 164.257812 215.886719 C 160.570312 216.675781 157.78125 216.417969 155.9375 215.09375 C 154.09375 213.777344 151.320312 213.25 147.632812 213.511719 C 143.9375 213.777344 141.429688 213.121094 140.117188 211.539062 C 138.796875 209.953125 135.238281 207.710938 129.4375 204.8125 C 123.636719 201.910156 120.34375 199.667969 119.550781 198.089844 C 119.15625 197.296875 118.757812 196.503906 118.363281 195.71875 C 120.472656 196.375 122.582031 197.035156 124.691406 197.691406 C 128.910156 199.011719 133.128906 199.671875 137.347656 199.667969 C 141.566406 199.667969 145.523438 199.011719 149.210938 197.691406 C 152.90625 196.375 157.40625 194 162.679688 190.574219 C 167.953125 187.144531 171.117188 184.097656 172.171875 181.457031 C 173.226562 178.824219 173.75 176.582031 173.75 174.734375 C 173.75 172.890625 173.226562 168.9375 172.171875 162.871094 C 171.117188 156.804688 170.324219 153.640625 169.796875 153.378906 C 169.269531 153.113281 169.140625 152.453125 169.402344 151.402344 C 169.664062 150.347656 171.25 149.949219 174.148438 150.214844 Z M 106.714844 150.464844 C 107.488281 150.429688 108.210938 150.476562 108.871094 150.609375 C 111.507812 151.140625 113.351562 152.195312 114.40625 153.773438 C 115.460938 155.359375 116.253906 157.992188 116.785156 161.6875 C 117.308594 165.375 117.308594 167.621094 116.785156 168.40625 C 116.253906 169.199219 116.125 171.046875 116.386719 173.945312 C 116.648438 176.84375 116.523438 179.21875 115.992188 181.0625 C 115.460938 182.910156 113.484375 186.089844 110.058594 190.574219 C 106.628906 195.054688 101.738281 197.429688 95.40625 197.691406 C 89.078125 197.957031 85.519531 196.902344 84.726562 194.527344 C 83.9375 192.15625 82.351562 190.292969 79.980469 188.972656 C 77.609375 187.65625 76.027344 186.335938 75.234375 185.019531 C 74.445312 183.699219 74.441406 181.328125 75.234375 177.898438 C 76.027344 174.46875 75.898438 172.234375 74.839844 171.179688 C 73.785156 170.125 73.261719 168.800781 73.257812 167.222656 C 73.257812 165.636719 74.578125 163.664062 77.214844 161.289062 C 79.851562 158.914062 82.878906 157.46875 86.308594 156.9375 C 89.738281 156.414062 93.691406 155.089844 98.175781 152.980469 C 101.539062 151.402344 104.390625 150.566406 106.714844 150.464844 Z M 77.914062 150.804688 C 79.5625 150.804688 81.167969 150.871094 82.75 151.003906 C 85.914062 151.269531 87.492188 151.667969 87.496094 152.195312 C 87.496094 152.457031 87.496094 152.71875 87.496094 152.980469 L 83.9375 152.980469 C 81.5625 152.980469 78.664062 154.296875 75.234375 156.9375 C 71.808594 159.578125 69.832031 162.207031 69.304688 164.851562 C 68.777344 167.484375 69.039062 169.855469 70.09375 171.964844 C 71.148438 174.074219 71.28125 175.65625 70.488281 176.714844 C 69.699219 177.769531 69.300781 179.347656 69.304688 181.457031 C 69.304688 183.566406 69.832031 185.410156 70.886719 187 C 71.941406 188.578125 73.652344 189.914062 76.027344 190.96875 C 78.402344 192.023438 80.117188 194 81.167969 196.902344 C 82.222656 199.804688 83.539062 201.515625 85.125 202.046875 C 85.914062 202.308594 86.707031 202.574219 87.496094 202.832031 C 86.441406 203.492188 85.390625 204.15625 84.332031 204.8125 C 82.222656 206.132812 78.796875 206.925781 74.050781 207.183594 C 69.300781 207.449219 63.769531 206.527344 57.4375 204.417969 C 51.109375 202.308594 45.953125 198.75 41.996094 193.738281 C 38.039062 188.726562 35.929688 185.152344 35.667969 183.042969 C 35.402344 180.933594 35.664062 179.089844 36.457031 177.507812 C 37.25 175.921875 38.308594 174.605469 39.621094 173.550781 C 40.941406 172.496094 43.988281 171.308594 48.738281 169.988281 C 53.484375 168.671875 55.855469 166.691406 55.855469 164.058594 C 55.855469 161.417969 56.382812 159.3125 57.4375 157.730469 C 58.492188 156.144531 60.46875 154.695312 63.371094 153.378906 C 66.273438 152.058594 69.433594 151.265625 72.863281 151.003906 C 74.578125 150.871094 76.265625 150.804688 77.914062 150.804688 Z M 64.160156 158.523438 C 63.371094 158.523438 62.445312 159.96875 61.394531 162.871094 C 60.867188 164.320312 60.339844 165.769531 59.8125 167.222656 L 60.996094 167.222656 C 61.789062 167.222656 62.714844 166.035156 63.765625 163.660156 C 64.820312 161.289062 65.347656 159.839844 65.347656 159.308594 C 65.347656 159.046875 65.347656 158.785156 65.347656 158.523438 Z M 224.394531 159.308594 C 224.265625 161.023438 224.132812 162.742188 224 164.453125 C 223.867188 166.167969 223.734375 167.878906 223.601562 169.59375 C 224.394531 168.800781 225.1875 168.007812 225.976562 167.222656 C 227.558594 165.636719 228.21875 164.058594 227.953125 162.472656 C 227.691406 160.894531 227.03125 159.96875 225.976562 159.707031 C 225.449219 159.578125 224.921875 159.441406 224.394531 159.308594 Z M 180.765625 169.109375 C 180.300781 169.175781 179.816406 169.328125 179.289062 169.59375 C 178.234375 170.125 177.96875 172.359375 178.5 176.316406 C 179.023438 180.273438 179.6875 182.25 180.476562 182.25 C 181.265625 182.25 182.058594 181.457031 182.851562 179.878906 C 183.640625 178.292969 183.90625 176.183594 183.640625 173.550781 C 183.375 170.910156 182.84375 169.460938 182.058594 169.199219 C 181.664062 169.070312 181.226562 169.039062 180.765625 169.109375 Z M 66.140625 184.621094 C 65.085938 184.621094 64.429688 185.019531 64.160156 185.808594 C 64.03125 186.207031 63.898438 186.601562 63.765625 187 C 64.164062 187.128906 64.558594 187.261719 64.953125 187.390625 C 65.746094 187.65625 66.011719 188.726562 65.742188 190.574219 C 65.480469 192.421875 65.742188 193.472656 66.535156 193.738281 C 66.929688 193.871094 67.324219 194 67.722656 194.132812 C 68.117188 192.945312 68.511719 191.761719 68.90625 190.574219 C 69.699219 188.199219 69.703125 186.601562 68.90625 185.808594 C 68.117188 185.019531 67.191406 184.621094 66.140625 184.621094 Z M 189.570312 188.972656 C 189.179688 189.109375 188.78125 189.390625 188.386719 189.78125 C 187.59375 190.574219 186.671875 193.078125 185.617188 197.296875 C 185.089844 199.40625 184.5625 201.515625 184.035156 203.625 C 184.828125 203.230469 185.621094 202.835938 186.40625 202.4375 C 187.992188 201.648438 189.308594 199.929688 190.363281 197.296875 C 191.417969 194.65625 191.945312 192.683594 191.945312 191.363281 C 191.945312 190.046875 191.550781 189.234375 190.757812 188.972656 C 190.363281 188.839844 189.96875 188.839844 189.570312 188.972656 Z M 163.867188 198.882812 C 158.855469 198.882812 156.070312 199.273438 155.539062 200.066406 C 155.015625 200.859375 155.148438 201.652344 155.9375 202.4375 C 156.726562 203.230469 159.121094 203.628906 163.074219 203.625 C 167.03125 203.625 169.402344 203.363281 170.195312 202.832031 C 170.984375 202.308594 171.378906 201.515625 171.378906 200.460938 L 171.378906 198.882812 Z M 163.867188 198.882812 " fill-opacity="1" fill-rule="nonzero"/></g></svg>