<svg xmlns="http://www.w3.org/2000/svg" xmlns:xlink="http://www.w3.org/1999/xlink" width="400" zoomAndPan="magnify" viewBox="0 0 300 299.999988" height="400" preserveAspectRatio="xMidYMid meet" version="1.0"><defs><clipPath id="a28c2afb49"><path d="M 30 42.148438 L 116 42.148438 L 116 83 L 30 83 Z M 30 42.148438 " clip-rule="nonzero"/></clipPath></defs><path fill="#a9a0f0" d="M 267.964844 180.507812 L 235.472656 180.507812 L 236.1875 179.589844 C 240.457031 174.046875 241.78125 166.878906 239.644531 160.320312 C 235.933594 148.777344 226.832031 139.574219 215.339844 135.761719 L 203.949219 131.945312 L 198.710938 126.710938 C 196.527344 124.523438 193.117188 124.167969 190.527344 125.894531 L 188.746094 127.066406 C 184.421875 129.964844 179.238281 130.980469 174.152344 129.964844 C 166.21875 128.386719 158.085938 128.234375 150.101562 129.558594 L 137.542969 131.640625 C 111.457031 131.742188 89.695312 152.132812 87.964844 178.167969 L 82.882812 255.609375 C 82.832031 256.167969 83.035156 256.726562 83.441406 257.132812 C 83.847656 257.539062 84.355469 257.792969 84.914062 257.792969 L 149.441406 257.792969 C 155.085938 257.792969 160.472656 256.371094 165.304688 253.726562 L 267.964844 253.726562 C 269.085938 253.726562 270 252.8125 270 251.691406 L 270 182.539062 C 270 181.421875 269.085938 180.507812 267.964844 180.507812 Z M 150.863281 133.625 C 158.339844 132.355469 165.914062 132.507812 173.339844 133.980469 C 179.492188 135.199219 185.847656 133.980469 191.085938 130.523438 L 192.863281 129.355469 C 193.832031 128.742188 195.101562 128.84375 195.914062 129.660156 L 201 134.742188 C 201.507812 135.25 202.167969 135.660156 202.882812 135.914062 L 214.117188 139.675781 C 224.390625 143.082031 232.527344 151.320312 235.832031 161.640625 C 237.507812 166.878906 236.492188 172.675781 233.035156 177.148438 L 229.832031 181.320312 C 229.472656 181.777344 229.269531 182.386719 229.371094 182.996094 C 229.578125 184.015625 230.441406 184.675781 231.355469 184.675781 L 265.933594 184.675781 L 265.933594 209.082031 L 207 209.082031 C 203.644531 209.082031 200.796875 211.777344 200.847656 215.132812 C 200.898438 220.929688 196.015625 225.660156 190.117188 225.355469 C 184.679688 225.046875 180.507812 220.371094 180.507812 214.929688 L 180.507812 211.015625 C 180.507812 209.894531 179.59375 208.980469 178.472656 208.980469 L 167.847656 208.980469 C 159.152344 208.980469 152.035156 201.863281 152.035156 193.117188 C 152.035156 173.183594 148.21875 153.710938 140.644531 135.300781 Z M 87.101562 253.726562 L 92.136719 178.523438 C 93.710938 154.980469 113.035156 136.472656 136.472656 135.8125 C 144.101562 154.066406 147.964844 173.386719 147.964844 193.21875 C 147.964844 204.148438 156.863281 213.097656 167.847656 213.097656 L 176.441406 213.097656 L 176.441406 215.132812 C 176.441406 221.488281 180.660156 226.929688 186.40625 228.710938 L 169.78125 245.335938 C 164.339844 250.777344 157.117188 253.777344 149.441406 253.777344 L 87.101562 253.777344 Z M 171.050781 249.660156 C 171.609375 249.199219 172.117188 248.691406 172.679688 248.183594 L 191.542969 229.320312 C 198.964844 228.863281 204.914062 222.660156 204.914062 215.132812 C 204.914062 214.015625 205.832031 213.097656 206.949219 213.097656 L 265.933594 213.097656 L 265.933594 249.710938 L 171.050781 249.710938 Z M 171.050781 249.660156 " fill-opacity="1" fill-rule="nonzero"/><path fill="#a9a0f0" d="M 177.050781 159.558594 C 177.457031 159.964844 177.964844 160.167969 178.472656 160.167969 C 178.984375 160.167969 179.492188 159.964844 179.898438 159.558594 C 185.1875 154.269531 185.1875 145.675781 179.898438 140.386719 C 179.085938 139.574219 177.8125 139.574219 177 140.386719 C 176.1875 141.199219 176.1875 142.472656 177 143.285156 C 180.710938 146.996094 180.710938 152.996094 177 156.660156 C 176.238281 157.472656 176.238281 158.792969 177.050781 159.558594 Z M 177.050781 159.558594 " fill-opacity="1" fill-rule="nonzero"/><g clip-path="url(#a28c2afb49)"><path fill="#a9a0f0" d="M 106.421875 82.878906 C 111.355469 82.878906 115.421875 78.863281 115.421875 73.878906 L 115.421875 55.675781 C 115.421875 48.25 109.371094 42.199219 101.949219 42.199219 L 52.371094 42.199219 C 51.253906 42.199219 50.339844 43.117188 50.339844 44.234375 L 50.339844 46.269531 L 32.035156 46.269531 C 30.914062 46.269531 30 47.183594 30 48.304688 L 30 64.574219 C 30 65.691406 30.914062 66.609375 32.035156 66.609375 L 50.339844 66.609375 L 50.339844 68.640625 C 50.339844 69.761719 51.253906 70.675781 52.371094 70.675781 L 66.609375 70.675781 L 66.609375 73.878906 C 66.609375 78.8125 70.628906 82.878906 75.609375 82.878906 Z M 34.066406 62.539062 L 34.066406 50.335938 L 50.339844 50.335938 L 50.339844 62.539062 Z M 70.679688 46.269531 L 101.949219 46.269531 C 107.136719 46.269531 111.355469 50.488281 111.355469 55.675781 L 111.355469 66.609375 L 70.679688 66.609375 Z M 54.40625 46.269531 L 66.609375 46.269531 L 66.609375 66.609375 L 54.40625 66.609375 Z M 70.679688 73.878906 L 70.679688 70.675781 L 111.355469 70.675781 L 111.355469 73.878906 C 111.355469 76.574219 109.167969 78.8125 106.421875 78.8125 L 75.558594 78.8125 C 72.863281 78.8125 70.679688 76.625 70.679688 73.878906 Z M 70.679688 73.878906 " fill-opacity="1" fill-rule="nonzero"/></g><path fill="#a9a0f0" d="M 76.78125 86.945312 C 75.660156 86.945312 74.746094 87.863281 74.746094 88.980469 L 74.746094 105.25 C 74.746094 106.371094 75.660156 107.285156 76.78125 107.285156 C 77.898438 107.285156 78.8125 106.371094 78.8125 105.25 L 78.8125 88.980469 C 78.8125 87.863281 77.898438 86.945312 76.78125 86.945312 Z M 76.78125 86.945312 " fill-opacity="1" fill-rule="nonzero"/><path fill="#a9a0f0" d="M 82.882812 88.980469 L 82.882812 101.183594 C 82.882812 102.304688 83.796875 103.21875 84.914062 103.21875 C 86.035156 103.21875 86.949219 102.304688 86.949219 101.183594 L 86.949219 88.980469 C 86.949219 87.863281 86.035156 86.945312 84.914062 86.945312 C 83.796875 86.945312 82.882812 87.863281 82.882812 88.980469 Z M 82.882812 88.980469 " fill-opacity="1" fill-rule="nonzero"/><path fill="#a9a0f0" d="M 84.914062 131.691406 C 86.035156 131.691406 86.949219 130.777344 86.949219 129.660156 L 86.949219 113.386719 C 86.949219 112.269531 86.035156 111.355469 84.914062 111.355469 C 83.796875 111.355469 82.882812 112.269531 82.882812 113.386719 L 82.882812 129.660156 C 82.882812 130.777344 83.796875 131.691406 84.914062 131.691406 Z M 84.914062 131.691406 " fill-opacity="1" fill-rule="nonzero"/><path fill="#a9a0f0" d="M 95.085938 88.980469 C 95.085938 87.863281 94.167969 86.945312 93.050781 86.945312 C 91.933594 86.945312 91.015625 87.863281 91.015625 88.980469 L 91.015625 109.320312 C 91.015625 110.4375 91.933594 111.355469 93.050781 111.355469 C 94.167969 111.355469 95.085938 110.4375 95.085938 109.320312 Z M 95.085938 88.980469 " fill-opacity="1" fill-rule="nonzero"/><path fill="#a9a0f0" d="M 93.050781 119.488281 C 91.933594 119.488281 91.015625 120.40625 91.015625 121.523438 L 91.015625 129.660156 C 91.015625 130.777344 91.933594 131.691406 93.050781 131.691406 C 94.167969 131.691406 95.085938 130.777344 95.085938 129.660156 L 95.085938 121.523438 C 95.085938 120.40625 94.167969 119.488281 93.050781 119.488281 Z M 93.050781 119.488281 " fill-opacity="1" fill-rule="nonzero"/><path fill="#a9a0f0" d="M 101.1875 107.285156 C 100.066406 107.285156 99.152344 108.199219 99.152344 109.320312 L 99.152344 129.660156 C 99.152344 130.777344 100.066406 131.691406 101.1875 131.691406 C 102.304688 131.691406 103.21875 130.777344 103.21875 129.660156 L 103.21875 109.320312 C 103.21875 108.199219 102.304688 107.285156 101.1875 107.285156 Z M 101.1875 107.285156 " fill-opacity="1" fill-rule="nonzero"/><path fill="#a9a0f0" d="M 103.21875 88.980469 C 103.21875 87.863281 102.304688 86.945312 101.1875 86.945312 C 100.066406 86.945312 99.152344 87.863281 99.152344 88.980469 L 99.152344 97.117188 C 99.152344 98.234375 100.066406 99.148438 101.1875 99.148438 C 102.304688 99.148438 103.21875 98.234375 103.21875 97.117188 Z M 103.21875 88.980469 " fill-opacity="1" fill-rule="nonzero"/><path fill="#a9a0f0" d="M 111.355469 88.980469 C 111.355469 87.863281 110.441406 86.945312 109.320312 86.945312 C 108.203125 86.945312 107.289062 87.863281 107.289062 88.980469 L 107.289062 105.25 C 107.289062 106.371094 108.203125 107.285156 109.320312 107.285156 C 110.441406 107.285156 111.355469 106.371094 111.355469 105.25 Z M 111.355469 88.980469 " fill-opacity="1" fill-rule="nonzero"/><path fill="#a9a0f0" d="M 109.320312 115.421875 C 108.203125 115.421875 107.289062 116.335938 107.289062 117.457031 L 107.289062 129.660156 C 107.289062 130.777344 108.203125 131.691406 109.320312 131.691406 C 110.441406 131.691406 111.355469 130.777344 111.355469 129.660156 L 111.355469 117.457031 C 111.355469 116.335938 110.441406 115.421875 109.320312 115.421875 Z M 109.320312 115.421875 " fill-opacity="1" fill-rule="nonzero"/><path fill="#a9a0f0" d="M 76.78125 111.355469 C 75.660156 111.355469 74.746094 112.269531 74.746094 113.386719 L 74.746094 129.660156 C 74.746094 130.777344 75.660156 131.691406 76.78125 131.691406 C 77.898438 131.691406 78.8125 130.777344 78.8125 129.660156 L 78.8125 113.386719 C 78.8125 112.269531 77.898438 111.355469 76.78125 111.355469 Z M 76.78125 111.355469 " fill-opacity="1" fill-rule="nonzero"/><path fill="#a9a0f0" d="M 50.339844 131.691406 C 45.863281 131.691406 42.203125 135.355469 42.203125 139.828125 C 42.203125 144.304688 45.863281 147.964844 50.339844 147.964844 C 54.8125 147.964844 58.472656 144.304688 58.472656 139.828125 C 58.472656 135.355469 54.8125 131.691406 50.339844 131.691406 Z M 50.339844 143.894531 C 48.101562 143.894531 46.269531 142.066406 46.269531 139.828125 C 46.269531 137.589844 48.101562 135.761719 50.339844 135.761719 C 52.578125 135.761719 54.40625 137.589844 54.40625 139.828125 C 54.40625 142.066406 52.578125 143.894531 50.339844 143.894531 Z M 50.339844 143.894531 " fill-opacity="1" fill-rule="nonzero"/><path fill="#a9a0f0" d="M 56.441406 107.285156 C 53.085938 107.285156 50.339844 110.03125 50.339844 113.386719 C 50.339844 116.742188 53.085938 119.488281 56.441406 119.488281 C 59.796875 119.488281 62.542969 116.742188 62.542969 113.386719 C 62.542969 110.03125 59.796875 107.285156 56.441406 107.285156 Z M 56.441406 115.421875 C 55.320312 115.421875 54.40625 114.507812 54.40625 113.386719 C 54.40625 112.269531 55.320312 111.355469 56.441406 111.355469 C 57.558594 111.355469 58.472656 112.269531 58.472656 113.386719 C 58.472656 114.507812 57.558594 115.421875 56.441406 115.421875 Z M 56.441406 115.421875 " fill-opacity="1" fill-rule="nonzero"/><path fill="#a9a0f0" d="M 129.660156 107.285156 C 133.015625 107.285156 135.761719 104.539062 135.761719 101.183594 C 135.761719 97.828125 133.015625 95.082031 129.660156 95.082031 C 126.304688 95.082031 123.558594 97.828125 123.558594 101.183594 C 123.558594 104.539062 126.304688 107.285156 129.660156 107.285156 Z M 129.660156 99.148438 C 130.78125 99.148438 131.695312 100.066406 131.695312 101.183594 C 131.695312 102.304688 130.78125 103.21875 129.660156 103.21875 C 128.542969 103.21875 127.628906 102.304688 127.628906 101.183594 C 127.628906 100.066406 128.542969 99.148438 129.660156 99.148438 Z M 129.660156 99.148438 " fill-opacity="1" fill-rule="nonzero"/></svg>