<svg xmlns="http://www.w3.org/2000/svg" xmlns:xlink="http://www.w3.org/1999/xlink" width="400" zoomAndPan="magnify" viewBox="0 0 300 299.999988" height="400" preserveAspectRatio="xMidYMid meet" version="1.0"><path fill="#a9a0f0" d="M 64.949219 145.636719 C 63.074219 147.507812 60.558594 148.582031 57.878906 148.582031 C 55.203125 148.582031 52.683594 147.5625 50.8125 145.636719 C 49.953125 144.777344 48.613281 144.777344 47.757812 145.636719 C 46.902344 146.492188 46.902344 147.832031 47.757812 148.6875 C 50.542969 151.472656 54.183594 152.867188 57.828125 152.867188 C 61.46875 152.867188 65.109375 151.472656 67.894531 148.6875 C 68.753906 147.832031 68.753906 146.492188 67.894531 145.636719 C 67.144531 144.777344 65.753906 144.777344 64.949219 145.636719 Z M 64.949219 145.636719 " fill-opacity="1" fill-rule="nonzero"/><path fill="#a9a0f0" d="M 263.542969 79.277344 L 208.324219 79.277344 C 206.394531 79.277344 204.734375 78.046875 204.09375 76.222656 C 202.113281 70.332031 196.648438 66.421875 190.488281 66.421875 L 154.550781 66.421875 C 152.839844 66.421875 151.339844 67.386719 150.535156 68.832031 C 149.410156 67.546875 148.285156 66.316406 147.054688 65.085938 C 134.09375 52.125 116.902344 45 98.585938 45 C 80.269531 45 63.074219 52.125 50.113281 65.085938 C 37.152344 78.046875 30.03125 95.238281 30.03125 113.554688 C 30.03125 118.320312 32.011719 122.871094 35.492188 126.085938 C 35.277344 131.601562 35.707031 137.171875 36.777344 142.636719 C 37.851562 147.992188 36.777344 153.453125 33.726562 158.007812 L 32.496094 159.882812 C 30.671875 162.558594 31.046875 166.203125 33.351562 168.503906 L 38.867188 174.019531 L 42.882812 186.019531 C 46.902344 198.121094 56.59375 207.707031 68.753906 211.617188 C 75.609375 213.8125 83.214844 212.476562 89.050781 207.976562 L 90.015625 207.226562 L 90.015625 235.558594 C 90.015625 238.664062 91.730469 241.449219 94.460938 242.894531 C 95.640625 243.484375 96.925781 243.804688 98.210938 243.804688 C 99.871094 243.804688 101.582031 243.269531 102.976562 242.253906 L 119.953125 230.148438 L 119.953125 239.359375 C 119.953125 247.984375 126.96875 255 135.59375 255 L 151.445312 255 C 160.070312 255 167.085938 247.984375 167.085938 239.359375 L 167.085938 168.71875 C 168.636719 169.039062 170.191406 169.253906 171.851562 169.253906 L 192.3125 169.253906 C 204.414062 169.253906 214.214844 159.398438 214.214844 147.347656 L 214.214844 143.0625 L 226.105469 140.117188 C 229.210938 139.367188 231.355469 136.582031 231.355469 133.371094 C 231.355469 129.515625 228.246094 126.40625 224.390625 126.40625 L 167.136719 126.40625 L 167.136719 113.554688 C 167.136719 110.714844 166.976562 107.824219 166.601562 104.984375 L 190.488281 104.984375 C 196.703125 104.984375 202.164062 101.019531 204.09375 95.183594 C 204.683594 93.363281 206.394531 92.128906 208.324219 92.128906 L 263.542969 92.128906 C 267.078125 92.128906 269.96875 89.238281 269.96875 85.703125 C 269.96875 82.167969 267.078125 79.277344 263.542969 79.277344 Z M 154.285156 70.976562 C 154.285156 70.867188 154.390625 70.707031 154.550781 70.707031 L 175.707031 70.707031 L 175.707031 74.992188 L 160.710938 74.992188 C 159.535156 74.992188 158.570312 75.957031 158.570312 77.132812 C 158.570312 78.3125 159.535156 79.277344 160.710938 79.277344 L 175.707031 79.277344 L 175.707031 83.5625 L 160.710938 83.5625 C 159.535156 83.5625 158.570312 84.527344 158.570312 85.703125 C 158.570312 86.882812 159.535156 87.847656 160.710938 87.847656 L 175.707031 87.847656 L 175.707031 92.128906 L 160.710938 92.128906 C 159.535156 92.128906 158.570312 93.09375 158.570312 94.273438 C 158.570312 95.453125 159.535156 96.414062 160.710938 96.414062 L 175.707031 96.414062 L 175.707031 100.699219 L 154.550781 100.699219 C 154.445312 100.699219 154.285156 100.59375 154.285156 100.433594 Z M 118.347656 226.023438 L 100.511719 238.773438 C 99.28125 239.628906 97.78125 239.734375 96.441406 239.09375 C 95.101562 238.449219 94.300781 237.113281 94.300781 235.613281 L 94.300781 202.886719 C 94.300781 202.085938 93.816406 201.335938 93.121094 200.960938 C 92.800781 200.800781 91.835938 200.53125 90.871094 201.175781 L 86.425781 204.601562 C 81.714844 208.242188 75.609375 209.367188 70.09375 207.546875 C 59.167969 204.066406 50.542969 195.496094 46.953125 184.679688 L 42.777344 172.199219 C 42.671875 171.878906 42.507812 171.609375 42.242188 171.34375 L 36.402344 165.503906 C 35.546875 164.648438 35.441406 163.308594 36.082031 162.292969 L 37.316406 160.417969 C 40.957031 154.902344 42.296875 148.3125 41.011719 141.832031 C 39.457031 133.960938 39.296875 125.980469 40.636719 118.054688 C 41.867188 110.554688 47.117188 104.449219 54.292969 102.039062 C 64.84375 98.503906 76.199219 99.09375 86.320312 103.59375 L 93.871094 106.914062 C 109.722656 113.980469 120.007812 129.78125 120.007812 147.132812 C 120.007812 148.3125 120.972656 149.277344 122.148438 149.277344 L 126.433594 149.277344 C 132.324219 149.277344 137.144531 154.097656 137.144531 159.988281 C 137.144531 165.878906 132.324219 170.699219 126.433594 170.699219 C 122.898438 170.699219 120.007812 173.59375 120.007812 177.128906 L 120.007812 222.8125 C 120.007812 224.097656 119.363281 225.277344 118.347656 226.023438 Z M 227.125 133.371094 C 227.125 134.601562 226.265625 135.671875 225.089844 135.941406 L 214.269531 138.671875 L 214.269531 130.691406 L 224.445312 130.691406 C 225.945312 130.691406 227.125 131.871094 227.125 133.371094 Z M 209.984375 147.347656 C 209.984375 157.042969 202.058594 164.96875 192.363281 164.96875 L 171.90625 164.96875 C 162.210938 164.96875 154.285156 157.042969 154.285156 147.347656 L 154.285156 130.691406 L 209.984375 130.691406 Z M 162.855469 113.554688 L 162.855469 126.40625 L 152.140625 126.40625 C 150.964844 126.40625 150 127.371094 150 128.550781 L 150 147.347656 C 150 156.1875 155.300781 163.84375 162.855469 167.273438 L 162.855469 239.308594 C 162.855469 245.574219 157.765625 250.660156 151.5 250.660156 L 135.648438 250.660156 C 129.378906 250.660156 124.292969 245.574219 124.292969 239.308594 L 124.292969 177.128906 C 124.292969 175.949219 125.257812 174.984375 126.433594 174.984375 C 134.683594 174.984375 141.429688 168.238281 141.429688 159.988281 C 141.429688 151.742188 134.683594 144.992188 126.433594 144.992188 L 124.238281 144.992188 C 123.433594 126.78125 112.347656 110.449219 95.585938 103.003906 L 88.035156 99.683594 C 76.894531 94.753906 64.414062 94.113281 52.898438 97.96875 C 44.222656 100.859375 37.851562 108.304688 36.351562 117.355469 C 36.191406 118.214844 36.082031 119.070312 35.976562 119.980469 C 34.851562 118.054688 34.261719 115.855469 34.261719 113.609375 C 34.261719 96.414062 40.957031 80.292969 53.058594 68.136719 C 65.273438 55.980469 81.390625 49.285156 98.585938 49.285156 C 115.777344 49.285156 131.898438 55.980469 144.054688 68.082031 C 146.199219 70.226562 148.234375 72.582031 150 74.992188 L 150 100.433594 C 150 102.949219 152.035156 104.984375 154.550781 104.984375 L 162.316406 104.984375 C 162.640625 107.824219 162.855469 110.714844 162.855469 113.554688 Z M 263.542969 87.847656 L 208.324219 87.847656 C 204.574219 87.847656 201.253906 90.257812 200.023438 93.792969 C 198.628906 97.914062 194.828125 100.699219 190.488281 100.699219 L 179.992188 100.699219 L 179.992188 70.707031 L 190.488281 70.707031 C 194.828125 70.707031 198.683594 73.492188 200.023438 77.617188 C 201.203125 81.203125 204.523438 83.5625 208.324219 83.5625 L 263.542969 83.5625 C 264.722656 83.5625 265.683594 84.527344 265.683594 85.703125 C 265.683594 86.882812 264.722656 87.847656 263.542969 87.847656 Z M 263.542969 87.847656 " fill-opacity="1" fill-rule="nonzero"/></svg>