<svg xmlns="http://www.w3.org/2000/svg" xmlns:xlink="http://www.w3.org/1999/xlink" width="400" zoomAndPan="magnify" viewBox="0 0 300 299.999988" height="400" preserveAspectRatio="xMidYMid meet" version="1.0"><defs><clipPath id="34a7489f2a"><path d="M 41.101562 31 L 253 31 L 253 270 L 41.101562 270 Z M 41.101562 31 " clip-rule="nonzero"/></clipPath></defs><g clip-path="url(#34a7489f2a)"><path fill="#a9a0f0" d="M 227.683594 114.984375 C 227.429688 114.121094 225.507812 111.371094 223.328125 110.28125 L 207 101.753906 L 202.316406 81.769531 C 202.691406 81.679688 225.417969 76.347656 224.007812 76.679688 C 229.820312 75.28125 233.453125 69.421875 232.097656 63.609375 L 226.460938 39.597656 C 225.089844 33.777344 219.21875 30.128906 213.386719 31.503906 L 143.148438 48.011719 C 137.335938 49.367188 133.675781 55.253906 135.050781 61.082031 L 135.878906 64.617188 L 122.304688 57.535156 C 118.332031 55.457031 113.46875 56.566406 110.757812 60.195312 L 84.078125 96.328125 L 55.648438 102.992188 C 50.742188 104.183594 47.707031 109.132812 48.882812 114.007812 L 54.21875 136.753906 C 43.804688 151.257812 42.964844 151.121094 42.164062 154.28125 C 41.527344 154.929688 41.222656 155.859375 41.453125 156.761719 L 66.085938 262.105469 C 67.234375 266.976562 72.117188 270.023438 76.941406 268.929688 L 245.246094 231.300781 C 250.191406 230.195312 253.300781 225.308594 252.15625 220.351562 C 221.1875 87.003906 258.871094 248.917969 227.683594 114.984375 Z M 248.488281 223.933594 C 248.199219 223.691406 247.867188 223.488281 247.496094 223.347656 L 150.53125 185.785156 C 151.84375 184.695312 161.242188 175.972656 224.417969 117.609375 L 248.589844 221.175781 C 248.804688 222.105469 248.75 223.046875 248.488281 223.933594 Z M 146.957031 188.320312 L 246.199219 226.449219 L 74.519531 265.117188 Z M 143.984375 51.570312 L 214.21875 35.066406 C 218.082031 34.167969 221.992188 36.574219 222.898438 40.433594 L 228.53125 64.441406 C 229.429688 68.296875 227.019531 72.183594 223.15625 73.117188 L 181.695312 82.851562 C 179.207031 83.429688 177 84.871094 175.484375 86.902344 L 160.75 106.492188 L 158.632812 90.324219 C 158.488281 89.25 157.441406 88.535156 156.40625 88.78125 L 152.917969 89.589844 C 149.128906 90.453125 145.1875 88.277344 144.210938 84.109375 C 144.125 83.734375 138.523438 59.867188 138.609375 60.242188 C 137.714844 56.421875 140.089844 52.488281 143.984375 51.570312 Z M 56.496094 106.550781 C 68.34375 103.773438 54.492188 107.019531 141.226562 86.6875 C 143.308594 91.828125 148.726562 94.339844 153.75 93.152344 L 155.265625 92.804688 L 157.707031 111.414062 C 157.917969 113.03125 159.996094 113.582031 160.984375 112.273438 L 178.417969 89.097656 C 179.417969 87.753906 180.875 86.800781 182.527344 86.414062 L 198.75 82.605469 C 200.300781 89.226562 199.394531 85.355469 209.113281 126.773438 L 148.410156 182.84375 C 146.953125 184.167969 144.898438 184.632812 143.046875 184.0625 L 63.269531 159.296875 L 52.441406 113.160156 C 51.738281 110.234375 53.5625 107.265625 56.496094 106.550781 Z M 45.398438 157.566406 C 157.609375 192.28125 139.566406 186.945312 142.550781 187.660156 L 71.855469 262.605469 C 71.503906 262.980469 71.28125 263.421875 71.125 263.882812 C 70.421875 263.183594 69.890625 262.296875 69.648438 261.269531 Z M 45.398438 157.566406 " fill-opacity="1" fill-rule="nonzero"/></g><path fill="#a9a0f0" d="M 157.210938 67.464844 C 153.875 69.429688 152.476562 73.101562 153.234375 76.550781 L 153.929688 79.699219 C 154.144531 80.648438 155.082031 81.308594 156.117188 81.089844 L 172.089844 77.558594 C 173.054688 77.34375 173.699219 76.382812 173.480469 75.375 L 172.785156 72.226562 C 172.039062 68.847656 169.269531 66.054688 165.355469 65.667969 C 169.820312 60.515625 165.089844 52.707031 158.550781 54.199219 C 152.078125 55.621094 150.898438 64.644531 157.210938 67.464844 Z M 157.210938 67.464844 " fill-opacity="1" fill-rule="nonzero"/><path fill="#a9a0f0" d="M 180.28125 55.351562 L 212.019531 47.898438 C 213 47.671875 213.613281 46.683594 213.378906 45.699219 C 213.152344 44.722656 212.175781 44.09375 211.183594 44.339844 L 179.441406 51.792969 C 178.460938 52.019531 177.847656 53.007812 178.082031 53.992188 C 178.320312 55.015625 179.363281 55.585938 180.28125 55.351562 Z M 180.28125 55.351562 " fill-opacity="1" fill-rule="nonzero"/><path fill="#a9a0f0" d="M 212.066406 53.023438 L 181.421875 60.21875 C 180.441406 60.445312 179.828125 61.433594 180.0625 62.414062 C 180.300781 63.441406 181.34375 64.011719 182.261719 63.777344 L 212.902344 56.582031 C 213.882812 56.351562 214.496094 55.367188 214.261719 54.382812 C 214.035156 53.402344 213.054688 52.769531 212.066406 53.023438 Z M 212.066406 53.023438 " fill-opacity="1" fill-rule="nonzero"/><path fill="#a9a0f0" d="M 204.078125 63.789062 L 183.398438 68.644531 C 182.417969 68.875 181.804688 69.863281 182.039062 70.84375 C 182.277344 71.871094 183.320312 72.441406 184.238281 72.207031 L 204.914062 67.347656 C 205.898438 67.121094 206.511719 66.132812 206.277344 65.148438 C 206.050781 64.171875 205.078125 63.542969 204.078125 63.789062 Z M 204.078125 63.789062 " fill-opacity="1" fill-rule="nonzero"/><path fill="#a9a0f0" d="M 158.238281 129.363281 C 161.292969 129.023438 163.503906 126.261719 163.171875 123.207031 C 163.171875 123.207031 163.171875 123.207031 163.171875 123.203125 C 162.832031 120.148438 160.082031 117.953125 157.003906 118.269531 C 153.949219 118.609375 151.738281 121.375 152.074219 124.433594 C 152.40625 127.40625 155.066406 129.6875 158.238281 129.363281 Z M 158.238281 129.363281 " fill-opacity="1" fill-rule="nonzero"/><path fill="#a9a0f0" d="M 155.589844 139.433594 C 155.589844 139.429688 155.589844 139.429688 155.589844 139.425781 C 155.347656 137.257812 153.417969 135.554688 151.054688 135.796875 C 147.414062 136.203125 146.097656 140.824219 148.941406 143.085938 C 151.761719 145.355469 155.980469 143.070312 155.589844 139.433594 Z M 155.589844 139.433594 " fill-opacity="1" fill-rule="nonzero"/><path fill="#a9a0f0" d="M 147.050781 156.636719 C 148.695312 156.457031 149.886719 154.96875 149.703125 153.320312 C 149.519531 151.675781 148.074219 150.527344 146.386719 150.667969 C 144.75 150.851562 143.558594 152.335938 143.734375 153.984375 C 143.90625 155.539062 145.277344 156.804688 147.050781 156.636719 Z M 147.050781 156.636719 " fill-opacity="1" fill-rule="nonzero"/><path fill="#a9a0f0" d="M 95.722656 148.109375 C 105.605469 146.058594 111.976562 136.394531 109.886719 126.476562 C 107.839844 116.589844 98.140625 110.257812 88.253906 112.308594 C 78.371094 114.359375 72.039062 124.058594 74.089844 133.941406 C 76.140625 143.824219 85.839844 150.195312 95.722656 148.109375 Z M 102.347656 137.492188 L 102.824219 139.871094 L 85.914062 143.386719 L 85.4375 141.042969 C 84.523438 136.722656 87.304688 132.476562 91.625 131.5625 L 92.867188 131.304688 C 97.1875 130.390625 101.433594 133.171875 102.347656 137.492188 Z M 89.609375 118.789062 C 92.574219 118.164062 95.503906 120.105469 96.125 123.070312 C 96.746094 126.035156 94.84375 128.964844 91.84375 129.585938 C 88.878906 130.207031 85.984375 128.269531 85.363281 125.304688 C 84.742188 122.339844 86.644531 119.410156 89.609375 118.789062 Z M 89.609375 118.789062 " fill-opacity="1" fill-rule="nonzero"/></svg>