<svg xmlns="http://www.w3.org/2000/svg" xmlns:xlink="http://www.w3.org/1999/xlink" width="400" zoomAndPan="magnify" viewBox="0 0 300 299.999988" height="400" preserveAspectRatio="xMidYMid meet" version="1.0"><defs><clipPath id="4aede6d72a"><path d="M 24.179688 30 L 276 30 L 276 270 L 24.179688 270 Z M 24.179688 30 " clip-rule="nonzero"/></clipPath></defs><g clip-path="url(#4aede6d72a)"><path fill="#a9a0f0" d="M 275.816406 52.492188 C 275.816406 45.808594 270.707031 40.695312 264.023438 40.695312 L 233.355469 40.695312 L 233.355469 34.796875 C 233.355469 32.4375 231.78125 30.867188 229.421875 30.867188 C 227.0625 30.867188 225.488281 32.4375 225.488281 34.796875 L 225.488281 41.089844 L 201.113281 41.089844 L 201.113281 34.796875 C 201.113281 32.4375 199.539062 30.867188 197.179688 30.867188 C 194.820312 30.867188 193.25 32.4375 193.25 34.796875 L 193.25 41.089844 L 168.871094 41.089844 L 168.871094 34.796875 C 168.871094 32.4375 167.300781 30.867188 164.941406 30.867188 C 162.582031 30.867188 161.007812 32.4375 161.007812 34.796875 L 161.007812 41.089844 L 136.632812 41.089844 L 136.632812 34.796875 C 136.632812 32.4375 135.058594 30.867188 132.699219 30.867188 C 130.339844 30.867188 128.765625 32.4375 128.765625 34.796875 L 128.765625 41.089844 L 104.390625 41.089844 L 104.390625 34.796875 C 104.390625 32.4375 102.816406 30.867188 100.457031 30.867188 C 98.097656 30.867188 96.527344 32.4375 96.527344 34.796875 L 96.527344 41.089844 L 65.859375 41.089844 C 59.175781 41.089844 54.0625 46.199219 54.0625 52.882812 C 54.0625 69.789062 54.0625 162.976562 54.0625 163.367188 C 36.371094 172.410156 24.179688 191.285156 24.179688 212.910156 C 24.179688 243.96875 49.34375 269.132812 80.40625 269.132812 C 100.457031 269.132812 117.757812 258.519531 127.980469 242.792969 L 228.636719 242.792969 C 229.816406 242.792969 230.601562 242.398438 231.386719 241.613281 L 274.246094 198.753906 C 275.03125 197.96875 275.425781 196.789062 275.425781 196.003906 C 275.816406 181.453125 275.816406 249.082031 275.816406 52.492188 Z M 232.566406 199.933594 L 262.054688 199.933594 L 232.566406 229.421875 Z M 66.25 48.558594 L 96.917969 48.558594 L 96.917969 54.851562 C 96.917969 57.207031 98.492188 58.78125 100.851562 58.78125 C 103.210938 58.78125 104.785156 57.207031 104.785156 54.851562 L 104.785156 48.558594 L 129.160156 48.558594 L 129.160156 54.851562 C 129.160156 57.207031 130.734375 58.78125 133.09375 58.78125 C 135.453125 58.78125 137.023438 57.207031 137.023438 54.851562 L 137.023438 48.558594 L 161.402344 48.558594 L 161.402344 54.851562 C 161.402344 57.207031 162.972656 58.78125 165.332031 58.78125 C 167.691406 58.78125 169.265625 57.207031 169.265625 54.851562 L 169.265625 48.558594 L 193.25 48.558594 L 193.25 54.851562 C 193.25 57.207031 194.820312 58.78125 197.179688 58.78125 C 199.539062 58.78125 201.113281 57.207031 201.113281 54.851562 L 201.113281 48.558594 L 225.488281 48.558594 L 225.488281 54.851562 C 225.488281 57.207031 227.0625 58.78125 229.421875 58.78125 C 231.78125 58.78125 233.355469 57.207031 233.355469 54.851562 L 233.355469 48.558594 L 264.023438 48.558594 C 266.382812 48.558594 267.953125 50.132812 267.953125 52.492188 L 267.953125 73.328125 L 62.320312 73.328125 L 62.320312 52.492188 C 62.320312 50.523438 64.285156 48.558594 66.25 48.558594 Z M 80.40625 261.269531 C 53.667969 261.269531 32.042969 239.644531 32.042969 212.910156 C 32.042969 186.171875 53.667969 164.546875 80.40625 164.546875 C 107.140625 164.546875 128.765625 186.171875 128.765625 212.910156 C 128.765625 239.644531 107.140625 261.269531 80.40625 261.269531 Z M 80.40625 156.683594 C 74.113281 156.683594 68.21875 157.863281 62.320312 159.828125 L 62.320312 81.191406 L 267.953125 81.191406 L 267.953125 192.070312 L 228.636719 192.070312 C 226.277344 192.070312 224.703125 193.644531 224.703125 196.003906 L 224.703125 235.320312 L 132.304688 235.320312 C 135.058594 228.636719 137.023438 221.164062 137.023438 213.300781 C 136.632812 181.847656 111.46875 156.683594 80.40625 156.683594 Z M 80.40625 156.683594 " fill-opacity="1" fill-rule="nonzero"/></g><path fill="#a9a0f0" d="M 76.472656 172.410156 L 84.335938 172.410156 L 84.335938 180.273438 L 76.472656 180.273438 Z M 76.472656 172.410156 " fill-opacity="1" fill-rule="nonzero"/><path fill="#a9a0f0" d="M 76.472656 245.542969 L 84.335938 245.542969 L 84.335938 253.40625 L 76.472656 253.40625 Z M 76.472656 245.542969 " fill-opacity="1" fill-rule="nonzero"/><path fill="#a9a0f0" d="M 113.039062 208.976562 L 120.902344 208.976562 L 120.902344 216.839844 L 113.039062 216.839844 Z M 113.039062 208.976562 " fill-opacity="1" fill-rule="nonzero"/><path fill="#a9a0f0" d="M 39.90625 208.976562 L 47.773438 208.976562 L 47.773438 216.839844 L 39.90625 216.839844 Z M 39.90625 208.976562 " fill-opacity="1" fill-rule="nonzero"/><path fill="#a9a0f0" d="M 76.472656 209.765625 L 76.472656 235.714844 L 84.335938 235.714844 L 84.335938 213.300781 L 105.960938 194.824219 L 100.457031 188.925781 Z M 76.472656 209.765625 " fill-opacity="1" fill-rule="nonzero"/><path fill="#a9a0f0" d="M 108.320312 103.210938 L 100.457031 103.210938 C 98.097656 103.210938 96.527344 104.785156 96.527344 107.144531 C 96.527344 109.503906 98.097656 111.074219 100.457031 111.074219 L 108.320312 111.074219 C 110.679688 111.074219 112.253906 109.503906 112.253906 107.144531 C 112.253906 105.175781 110.679688 103.210938 108.320312 103.210938 Z M 108.320312 103.210938 " fill-opacity="1" fill-rule="nonzero"/><path fill="#a9a0f0" d="M 161.402344 111.074219 L 169.265625 111.074219 C 171.625 111.074219 173.195312 109.503906 173.195312 107.144531 C 173.195312 104.785156 171.625 103.210938 169.265625 103.210938 L 161.402344 103.210938 C 159.042969 103.210938 157.46875 104.785156 157.46875 107.144531 C 157.46875 109.503906 159.042969 111.074219 161.402344 111.074219 Z M 161.402344 111.074219 " fill-opacity="1" fill-rule="nonzero"/><path fill="#a9a0f0" d="M 221.953125 111.074219 L 229.816406 111.074219 C 232.175781 111.074219 233.746094 109.503906 233.746094 107.144531 C 233.746094 104.785156 232.175781 103.210938 229.816406 103.210938 L 221.953125 103.210938 C 219.59375 103.210938 218.019531 104.785156 218.019531 107.144531 C 218.019531 109.503906 219.984375 111.074219 221.953125 111.074219 Z M 221.953125 111.074219 " fill-opacity="1" fill-rule="nonzero"/><path fill="#a9a0f0" d="M 108.320312 134.664062 L 100.457031 134.664062 C 98.097656 134.664062 96.527344 136.238281 96.527344 138.597656 C 96.527344 140.957031 98.097656 142.53125 100.457031 142.53125 L 108.320312 142.53125 C 110.679688 142.53125 112.253906 140.957031 112.253906 138.597656 C 112.253906 136.632812 110.679688 134.664062 108.320312 134.664062 Z M 108.320312 134.664062 " fill-opacity="1" fill-rule="nonzero"/><path fill="#a9a0f0" d="M 161.402344 142.53125 L 169.265625 142.53125 C 171.625 142.53125 173.195312 140.957031 173.195312 138.597656 C 173.195312 136.238281 171.625 134.664062 169.265625 134.664062 L 161.402344 134.664062 C 159.042969 134.664062 157.46875 136.238281 157.46875 138.597656 C 157.46875 140.957031 159.042969 142.53125 161.402344 142.53125 Z M 161.402344 142.53125 " fill-opacity="1" fill-rule="nonzero"/><path fill="#a9a0f0" d="M 221.953125 142.53125 L 229.816406 142.53125 C 232.175781 142.53125 233.746094 140.957031 233.746094 138.597656 C 233.746094 136.238281 232.175781 134.664062 229.816406 134.664062 L 221.953125 134.664062 C 219.59375 134.664062 218.019531 136.238281 218.019531 138.597656 C 218.019531 140.957031 219.984375 142.53125 221.953125 142.53125 Z M 221.953125 142.53125 " fill-opacity="1" fill-rule="nonzero"/><path fill="#a9a0f0" d="M 161.402344 173.984375 L 169.265625 173.984375 C 171.625 173.984375 173.195312 172.410156 173.195312 170.050781 C 173.195312 167.691406 171.625 166.121094 169.265625 166.121094 L 161.402344 166.121094 C 159.042969 166.121094 157.46875 167.691406 157.46875 170.050781 C 157.46875 172.410156 159.042969 173.984375 161.402344 173.984375 Z M 161.402344 173.984375 " fill-opacity="1" fill-rule="nonzero"/><path fill="#a9a0f0" d="M 221.953125 173.984375 L 229.816406 173.984375 C 232.175781 173.984375 233.746094 172.410156 233.746094 170.050781 C 233.746094 167.691406 232.175781 166.121094 229.816406 166.121094 L 221.953125 166.121094 C 219.59375 166.121094 218.019531 167.691406 218.019531 170.050781 C 218.019531 172.410156 219.984375 173.984375 221.953125 173.984375 Z M 221.953125 173.984375 " fill-opacity="1" fill-rule="nonzero"/><path fill="#a9a0f0" d="M 161.402344 205.4375 L 169.265625 205.4375 C 171.625 205.4375 173.195312 203.867188 173.195312 201.507812 C 173.195312 199.148438 171.625 197.574219 169.265625 197.574219 L 161.402344 197.574219 C 159.042969 197.574219 157.46875 199.148438 157.46875 201.507812 C 157.46875 203.867188 159.042969 205.4375 161.402344 205.4375 Z M 161.402344 205.4375 " fill-opacity="1" fill-rule="nonzero"/></svg>