<svg xmlns="http://www.w3.org/2000/svg" xmlns:xlink="http://www.w3.org/1999/xlink" width="400" zoomAndPan="magnify" viewBox="0 0 300 299.999988" height="400" preserveAspectRatio="xMidYMid meet" version="1.0"><path fill="currentColor" d="M 265.238281 149.101562 C 265.238281 161.089844 263.355469 172.980469 259.636719 184.425781 C 256.023438 195.425781 250.722656 205.777344 243.933594 215.242188 C 237.394531 224.40625 229.367188 232.679688 220.300781 239.515625 C 211.085938 246.550781 200.832031 252.199219 189.933594 256.113281 C 178.683594 260.175781 166.796875 262.554688 154.804688 263 C 142.667969 263.445312 130.53125 262.058594 118.835938 258.738281 C 107.640625 255.617188 96.988281 250.714844 87.230469 244.371094 C 77.566406 238.082031 68.949219 230.402344 61.566406 221.535156 C 54.28125 212.765625 48.1875 202.855469 43.878906 192.304688 C 39.371094 181.355469 36.546875 169.710938 35.65625 157.921875 C 34.761719 145.882812 35.703125 133.695312 38.578125 121.953125 C 41.300781 110.707031 45.859375 99.953125 51.90625 90.046875 C 57.851562 80.238281 65.378906 71.417969 74 63.789062 C 82.621094 56.109375 92.429688 49.816406 102.933594 45.0625 C 113.585938 40.253906 125.179688 37.085938 136.773438 35.796875 C 148.859375 34.457031 161.195312 34.90625 173.039062 37.332031 C 184.53125 39.660156 195.679688 43.722656 205.984375 49.371094 C 216.089844 54.96875 225.253906 62.003906 233.28125 70.328125 C 241.257812 78.601562 247.945312 88.0625 253.148438 98.371094 C 258.449219 108.824219 261.96875 120.167969 263.800781 131.761719 C 264.792969 137.507812 265.238281 143.253906 265.238281 149.101562 C 265.238281 152.125 269.992188 152.125 269.992188 149.101562 C 269.992188 136.667969 268.0625 124.230469 264.195312 112.390625 C 260.429688 101.042969 254.980469 90.246094 247.996094 80.484375 C 240.960938 70.675781 232.539062 62.054688 222.925781 54.722656 C 213.367188 47.4375 202.714844 41.691406 191.46875 37.578125 C 179.675781 33.320312 167.390625 30.941406 154.953125 30.496094 C 142.371094 30 129.636719 31.484375 117.550781 34.90625 C 105.90625 38.175781 94.757812 43.226562 84.703125 49.769531 C 74.695312 56.308594 65.628906 64.285156 58.046875 73.5 C 50.320312 82.761719 44.027344 93.167969 39.46875 104.265625 C 34.761719 115.609375 31.890625 127.699219 30.949219 140.035156 C 30.007812 152.519531 30.996094 165.105469 34.019531 177.292969 C 36.894531 189.03125 41.648438 200.328125 47.890625 210.585938 C 54.085938 220.691406 61.8125 229.90625 70.78125 237.785156 C 79.746094 245.710938 89.953125 252.300781 100.953125 257.203125 C 112.25 262.308594 124.289062 265.527344 136.625 267.015625 C 149.257812 268.5 162.089844 267.90625 174.472656 265.378906 C 186.414062 262.953125 197.90625 258.738281 208.558594 252.792969 C 218.964844 247.046875 228.574219 239.714844 236.800781 231.09375 C 245.074219 222.523438 252.109375 212.664062 257.457031 201.964844 C 262.910156 191.113281 266.722656 179.421875 268.554688 167.433594 C 269.496094 161.339844 269.992188 155.195312 269.992188 149.003906 C 269.992188 146.03125 265.238281 146.03125 265.238281 149.101562 Z M 265.238281 149.101562 " fill-opacity="1" fill-rule="nonzero"/><path fill="currentColor" d="M 42.34375 162.527344 C 39.46875 154.351562 39.222656 145.582031 40.460938 137.0625 C 41.898438 127.203125 45.117188 117.59375 49.425781 108.625 C 54.132812 98.964844 60.078125 89.996094 67.214844 81.96875 C 75.042969 73.351562 84.207031 66.265625 94.265625 60.222656 C 98.179688 57.84375 102.191406 55.710938 106.253906 53.582031 C 112.148438 50.511719 118.195312 47.4375 124.4375 45.0625 C 137.070312 40.207031 150.695312 38.273438 164.167969 40.253906 C 177.59375 42.238281 189.585938 48.082031 201.027344 55.019531 C 206.480469 58.339844 212.027344 61.609375 217.082031 65.421875 C 221.589844 68.839844 225.007812 72.902344 226.496094 78.402344 C 227.285156 81.375 227.78125 84.496094 228.972656 87.371094 C 230.0625 89.996094 231.648438 92.324219 233.828125 94.15625 C 237.9375 97.625 243.089844 99.3125 247.648438 101.886719 C 251.859375 104.316406 254.933594 107.929688 256.515625 112.539062 C 258.203125 117.445312 258.351562 122.746094 257.757812 127.898438 C 256.964844 134.140625 254.238281 139.9375 253.792969 146.179688 C 253.542969 149.644531 254.335938 152.867188 255.527344 156.085938 C 256.566406 158.8125 257.605469 161.488281 258.101562 164.359375 C 259.886719 174.417969 256.171875 185.367188 248.589844 192.304688 C 244.132812 196.464844 238.335938 198.742188 233.976562 202.953125 C 229.765625 207.015625 226.839844 212.21875 224.660156 217.621094 C 223.570312 220.292969 222.730469 223.070312 221.9375 225.84375 C 221.144531 228.617188 220.648438 231.492188 219.707031 234.214844 C 218.816406 236.792969 216.882812 238.128906 214.355469 239.023438 C 211.035156 240.160156 207.617188 241.152344 204.25 242.242188 C 190.179688 246.652344 176.160156 251.011719 162.089844 255.371094 C 155.648438 257.351562 149.007812 259.878906 142.121094 258.246094 C 135.878906 256.707031 130.382812 253.09375 124.683594 250.367188 C 118.34375 247.34375 111.851562 244.621094 105.261719 242.292969 C 99.417969 240.210938 93.324219 238.675781 87.425781 236.742188 C 82.570312 235.15625 77.566406 233.273438 73.605469 229.957031 C 71.96875 228.617188 70.582031 227.03125 69.441406 225.199219 C 69.195312 224.804688 68.898438 224.355469 68.699219 223.910156 C 68.601562 223.761719 68.550781 223.566406 68.453125 223.316406 C 68.800781 224.058594 68.402344 223.21875 68.351562 223.019531 C 67.363281 220.292969 66.71875 217.421875 65.777344 214.695312 C 64.09375 209.792969 62.0625 204.886719 59.929688 200.128906 C 56.265625 192.253906 52.003906 184.773438 48.488281 176.894531 C 46.207031 172.1875 44.078125 167.433594 42.34375 162.527344 C 41.898438 161.339844 40.707031 160.546875 39.421875 160.894531 C 38.28125 161.191406 37.289062 162.578125 37.785156 163.765625 C 41.300781 173.625 45.859375 183.085938 50.667969 192.351562 C 54.925781 200.578125 58.890625 208.898438 61.765625 217.769531 C 62.605469 220.394531 63.152344 223.117188 64.242188 225.644531 C 65.828125 229.210938 68.699219 232.183594 71.722656 234.511719 C 76.179688 237.882812 81.480469 239.914062 86.78125 241.546875 C 92.925781 243.480469 99.121094 245.117188 105.214844 247.296875 C 111.851562 249.722656 118.34375 252.496094 124.632812 255.617188 C 130.578125 258.589844 136.523438 262.257812 143.210938 263.25 C 150.59375 264.289062 157.679688 261.664062 164.613281 259.484375 C 171.800781 257.253906 179.03125 254.976562 186.214844 252.746094 C 193.398438 250.515625 200.632812 248.238281 207.816406 246.007812 C 211.035156 245.015625 214.308594 244.175781 217.429688 242.835938 C 220.5 241.546875 222.582031 239.269531 223.867188 236.199219 C 224.957031 233.472656 225.453125 230.5 226.195312 227.628906 C 226.988281 224.804688 227.882812 221.980469 228.921875 219.203125 C 231.003906 214.003906 233.925781 209.046875 238.234375 205.332031 C 240.664062 203.203125 243.539062 201.617188 246.210938 199.882812 C 248.738281 198.246094 251.167969 196.414062 253.246094 194.234375 C 257.113281 190.171875 259.9375 185.167969 261.519531 179.769531 C 263.15625 174.367188 263.453125 168.671875 262.460938 163.121094 C 261.917969 160.101562 260.777344 157.324219 259.738281 154.5 C 258.597656 151.378906 257.953125 148.257812 258.449219 144.941406 C 258.996094 141.519531 260.132812 138.300781 260.976562 134.933594 C 261.667969 132.207031 262.117188 129.382812 262.414062 126.609375 C 262.910156 121.207031 262.511719 115.5625 260.578125 110.457031 C 258.546875 105.207031 255.03125 100.996094 250.175781 98.070312 C 245.71875 95.445312 240.414062 93.910156 236.550781 90.492188 C 231.945312 86.332031 232.09375 80.039062 230.109375 74.636719 C 227.929688 68.742188 223.472656 64.382812 218.417969 60.765625 C 213.265625 57 207.667969 53.632812 202.167969 50.363281 C 196.222656 46.746094 190.03125 43.425781 183.589844 40.851562 C 170.707031 35.597656 156.488281 33.714844 142.667969 35.546875 C 128.597656 37.382812 115.816406 43.277344 103.429688 49.816406 C 93.519531 55.070312 83.710938 60.765625 75.042969 67.949219 C 66.421875 75.085938 59.039062 83.65625 52.894531 92.96875 C 46.851562 102.085938 42.046875 112.042969 38.824219 122.445312 C 36.050781 131.5625 34.367188 141.519531 35.160156 151.28125 C 35.507812 155.542969 36.25 159.703125 37.6875 163.765625 C 38.132812 164.957031 39.320312 165.746094 40.609375 165.402344 C 41.898438 165.105469 42.789062 163.765625 42.34375 162.527344 Z M 42.34375 162.527344 " fill-opacity="1" fill-rule="nonzero"/><path fill="currentColor" d="M 73.308594 92.425781 C 73.40625 92.078125 73.554688 91.632812 73.753906 91.285156 C 73.804688 91.136719 73.902344 90.9375 73.953125 90.738281 C 74.050781 90.492188 73.703125 91.335938 73.902344 90.839844 C 73.953125 90.738281 73.953125 90.691406 74 90.589844 C 74.296875 89.847656 74.746094 89.105469 75.140625 88.460938 C 75.339844 88.164062 75.585938 87.816406 75.785156 87.46875 C 75.882812 87.320312 76.03125 87.125 76.132812 86.925781 C 76.179688 86.875 76.230469 86.777344 76.28125 86.726562 C 76.328125 86.675781 76.527344 86.429688 76.328125 86.675781 C 76.082031 86.972656 76.378906 86.628906 76.429688 86.578125 C 76.476562 86.527344 76.527344 86.429688 76.578125 86.378906 C 76.675781 86.230469 76.824219 86.082031 76.925781 85.984375 C 77.171875 85.6875 77.519531 85.339844 77.816406 85.042969 C 78.707031 84.152344 78.757812 82.566406 77.816406 81.671875 C 76.875 80.832031 75.386719 80.730469 74.445312 81.671875 C 71.773438 84.347656 69.789062 87.667969 68.652344 91.285156 C 68.304688 92.425781 69.097656 93.910156 70.285156 94.15625 C 71.671875 94.355469 72.960938 93.664062 73.308594 92.425781 Z M 73.308594 92.425781 " fill-opacity="1" fill-rule="nonzero"/><path fill="currentColor" d="M 89.707031 89.996094 C 91.390625 93.367188 92.976562 96.683594 94.460938 100.101562 C 94.957031 101.242188 96.742188 101.589844 97.730469 100.945312 C 98.871094 100.203125 99.121094 98.964844 98.574219 97.675781 C 97.089844 94.257812 95.503906 90.9375 93.816406 87.570312 C 93.273438 86.480469 91.589844 86.03125 90.546875 86.726562 C 89.410156 87.46875 89.113281 88.808594 89.707031 89.996094 Z M 89.707031 89.996094 " fill-opacity="1" fill-rule="nonzero"/><path fill="currentColor" d="M 67.660156 109.367188 C 71.277344 111.101562 74.792969 112.835938 78.359375 114.519531 C 79.449219 115.066406 80.988281 114.816406 81.628906 113.679688 C 82.226562 112.636719 81.929688 111.003906 80.789062 110.410156 C 77.171875 108.675781 73.652344 106.941406 70.085938 105.253906 C 68.996094 104.710938 67.460938 104.957031 66.816406 106.097656 C 66.273438 107.238281 66.519531 108.824219 67.660156 109.367188 Z M 67.660156 109.367188 " fill-opacity="1" fill-rule="nonzero"/><path fill="currentColor" d="M 52.699219 116.453125 C 52.847656 116.253906 52.945312 116.105469 53.144531 115.859375 C 53.191406 115.757812 53.292969 115.660156 53.339844 115.5625 C 53.539062 115.3125 53.441406 115.460938 53.292969 115.609375 C 53.589844 115.261719 53.9375 114.816406 54.234375 114.472656 C 54.878906 113.726562 55.621094 112.984375 56.363281 112.390625 C 56.511719 112.289062 56.808594 112.191406 56.265625 112.441406 C 56.363281 112.390625 56.460938 112.289062 56.511719 112.242188 C 56.710938 112.09375 56.859375 111.992188 57.105469 111.894531 C 57.304688 111.796875 57.554688 111.648438 57.703125 111.546875 C 57.800781 111.5 57.898438 111.449219 58 111.398438 C 58.097656 111.347656 58.492188 111.199219 58.097656 111.347656 C 57.75 111.5 58.148438 111.347656 58.195312 111.300781 C 58.296875 111.25 58.394531 111.25 58.492188 111.199219 C 58.691406 111.152344 58.941406 111.101562 59.1875 111.050781 C 59.285156 111.050781 59.433594 111.050781 59.484375 111.003906 C 59.335938 111.050781 58.890625 111.050781 59.335938 111.003906 C 59.585938 111.003906 59.882812 110.953125 60.128906 111.003906 C 61.417969 111.003906 62.554688 109.914062 62.507812 108.625 C 62.457031 107.335938 61.464844 106.246094 60.128906 106.246094 C 54.976562 106.195312 51.308594 110.257812 48.488281 114.125 C 47.742188 115.113281 48.289062 116.800781 49.328125 117.394531 C 50.667969 117.988281 51.90625 117.542969 52.699219 116.453125 Z M 52.699219 116.453125 " fill-opacity="1" fill-rule="nonzero"/><path fill="currentColor" d="M 83.464844 128.390625 C 85.199219 128.789062 86.882812 129.285156 88.566406 129.878906 C 89.410156 130.125 90.203125 130.472656 91.042969 130.769531 C 91.488281 130.917969 91.886719 131.066406 92.332031 131.316406 C 91.785156 131.117188 92.382812 131.363281 92.480469 131.363281 C 92.679688 131.464844 92.976562 131.5625 93.175781 131.664062 C 94.265625 132.207031 95.75 132.007812 96.445312 130.820312 C 96.988281 129.78125 96.789062 128.144531 95.601562 127.550781 C 92.132812 125.964844 88.515625 124.726562 84.75 123.882812 C 83.511719 123.636719 82.125 124.230469 81.828125 125.519531 C 81.53125 126.707031 82.175781 128.09375 83.464844 128.390625 Z M 83.464844 128.390625 " fill-opacity="1" fill-rule="nonzero"/><path fill="currentColor" d="M 57.898438 132.605469 C 61.070312 132.949219 64.242188 133.394531 67.410156 133.742188 C 68.007812 133.792969 68.75 133.445312 69.097656 133.050781 C 69.542969 132.652344 69.839844 131.960938 69.789062 131.363281 C 69.742188 130.722656 69.589844 130.125 69.097656 129.679688 C 68.601562 129.183594 68.105469 129.035156 67.410156 128.988281 C 64.242188 128.640625 61.070312 128.195312 57.898438 127.847656 C 57.304688 127.796875 56.5625 128.144531 56.214844 128.542969 C 55.769531 128.9375 55.472656 129.632812 55.523438 130.226562 C 55.570312 130.871094 55.71875 131.464844 56.214844 131.910156 C 56.660156 132.304688 57.207031 132.453125 57.898438 132.605469 Z M 57.898438 132.605469 " fill-opacity="1" fill-rule="nonzero"/><path fill="currentColor" d="M 58.941406 146.921875 C 60.773438 150.6875 63.199219 154.15625 66.074219 157.226562 C 66.917969 158.117188 68.601562 158.117188 69.441406 157.226562 C 70.335938 156.234375 70.335938 154.847656 69.441406 153.859375 C 68.75 153.113281 68.105469 152.371094 67.558594 151.628906 C 67.511719 151.578125 67.363281 151.429688 67.363281 151.378906 C 67.410156 151.480469 67.558594 151.675781 67.410156 151.429688 C 67.261719 151.230469 67.113281 151.035156 66.917969 150.785156 C 66.617188 150.390625 66.320312 149.992188 66.074219 149.597656 C 64.984375 147.960938 63.945312 146.226562 63.101562 144.492188 C 62.554688 143.402344 60.871094 142.957031 59.832031 143.652344 C 58.644531 144.445312 58.34375 145.734375 58.941406 146.921875 Z M 58.941406 146.921875 " fill-opacity="1" fill-rule="nonzero"/><path fill="currentColor" d="M 78.261719 147.863281 C 81.234375 149.746094 84.355469 151.429688 87.527344 152.917969 C 88.121094 153.164062 88.664062 153.3125 89.359375 153.164062 C 89.90625 153.015625 90.5 152.570312 90.796875 152.074219 C 91.339844 151.035156 91.144531 149.398438 89.953125 148.804688 C 86.734375 147.316406 83.660156 145.683594 80.6875 143.75 C 79.648438 143.058594 78.015625 143.503906 77.417969 144.59375 C 76.777344 145.832031 77.171875 147.167969 78.261719 147.863281 Z M 78.261719 147.863281 " fill-opacity="1" fill-rule="nonzero"/><path fill="currentColor" d="M 63.050781 174.664062 C 63.648438 173.972656 64.191406 173.277344 64.886719 172.683594 C 65.183594 172.386719 65.527344 172.089844 65.875 171.839844 C 66.125 171.644531 65.976562 171.792969 65.828125 171.890625 C 65.925781 171.839844 65.976562 171.792969 66.023438 171.742188 C 66.222656 171.59375 66.371094 171.496094 66.617188 171.347656 C 67.363281 170.851562 68.105469 170.40625 68.898438 170.058594 C 69.097656 169.957031 69.34375 169.859375 69.589844 169.761719 C 69.890625 169.613281 69.542969 169.808594 69.441406 169.808594 C 69.542969 169.808594 69.691406 169.710938 69.742188 169.660156 C 70.1875 169.511719 70.582031 169.363281 71.078125 169.167969 C 72.21875 168.820312 73.160156 167.480469 72.714844 166.292969 C 72.367188 165.105469 71.078125 164.261719 69.789062 164.65625 C 65.828125 165.847656 62.257812 168.226562 59.632812 171.347656 C 59.1875 171.890625 58.941406 172.335938 58.941406 173.03125 C 58.941406 173.625 59.1875 174.269531 59.632812 174.714844 C 60.574219 175.457031 62.210938 175.707031 63.050781 174.664062 Z M 63.050781 174.664062 " fill-opacity="1" fill-rule="nonzero"/><path fill="currentColor" d="M 82.96875 185.367188 C 84.851562 183.136719 86.832031 180.859375 88.714844 178.679688 C 89.160156 178.183594 89.410156 177.6875 89.410156 176.992188 C 89.410156 176.398438 89.160156 175.753906 88.714844 175.308594 C 88.21875 174.914062 87.675781 174.566406 87.03125 174.617188 C 86.4375 174.664062 85.742188 174.8125 85.347656 175.308594 C 83.464844 177.539062 81.480469 179.816406 79.597656 181.996094 C 79.152344 182.492188 78.90625 182.988281 78.90625 183.683594 C 78.90625 184.277344 79.152344 184.921875 79.597656 185.367188 C 80.09375 185.761719 80.640625 186.109375 81.285156 186.058594 C 81.929688 186.058594 82.621094 185.863281 82.96875 185.367188 Z M 82.96875 185.367188 " fill-opacity="1" fill-rule="nonzero"/><path fill="currentColor" d="M 70.136719 217.023438 C 72.019531 217.421875 73.902344 218.015625 75.683594 218.757812 C 75.488281 218.660156 75.339844 218.609375 75.089844 218.511719 C 75.238281 218.5625 75.4375 218.660156 75.636719 218.710938 C 76.230469 218.957031 76.777344 219.105469 77.46875 218.957031 C 78.015625 218.808594 78.609375 218.363281 78.90625 217.867188 C 79.203125 217.320312 79.351562 216.679688 79.152344 216.035156 C 79.003906 215.488281 78.609375 214.894531 78.0625 214.597656 C 75.933594 213.65625 73.753906 212.914062 71.472656 212.417969 C 70.832031 212.269531 70.1875 212.316406 69.640625 212.664062 C 69.144531 212.914062 68.699219 213.507812 68.550781 214.101562 C 68.402344 214.746094 68.453125 215.339844 68.800781 215.933594 C 69.097656 216.429688 69.542969 216.925781 70.136719 217.023438 Z M 70.136719 217.023438 " fill-opacity="1" fill-rule="nonzero"/><path fill="currentColor" d="M 80.640625 201.269531 C 84.058594 203.054688 87.378906 205.085938 90.5 207.363281 C 91.488281 208.105469 93.175781 207.5625 93.769531 206.523438 C 94.414062 205.332031 93.96875 204.042969 92.925781 203.25 C 89.804688 201.023438 86.484375 198.941406 83.066406 197.15625 C 81.976562 196.5625 80.441406 196.859375 79.796875 198 C 79.203125 199.089844 79.5 200.675781 80.640625 201.269531 Z M 80.640625 201.269531 " fill-opacity="1" fill-rule="nonzero"/><path fill="currentColor" d="M 99.910156 187.644531 C 102.09375 191.015625 104.816406 193.886719 108.085938 196.265625 C 108.582031 196.5625 109.425781 196.613281 109.917969 196.515625 C 110.464844 196.367188 111.058594 195.917969 111.355469 195.425781 C 111.652344 194.878906 111.800781 194.234375 111.605469 193.589844 C 111.40625 192.945312 111.007812 192.550781 110.515625 192.152344 C 110.414062 192.105469 110.367188 192.054688 110.265625 191.957031 C 109.96875 191.757812 110.21875 191.957031 110.367188 192.054688 C 110.21875 191.90625 110.019531 191.808594 109.820312 191.660156 C 109.472656 191.410156 109.128906 191.0625 108.828125 190.816406 C 108.1875 190.222656 107.542969 189.675781 106.996094 189.03125 C 106.402344 188.390625 105.757812 187.792969 105.3125 187.101562 C 105.410156 187.25 105.609375 187.496094 105.410156 187.199219 C 105.363281 187.101562 105.261719 187.050781 105.214844 186.953125 C 105.113281 186.804688 104.964844 186.605469 104.867188 186.40625 C 104.617188 186.058594 104.371094 185.664062 104.125 185.316406 C 103.429688 184.277344 101.941406 183.730469 100.851562 184.476562 C 99.714844 185.117188 99.269531 186.554688 99.910156 187.644531 Z M 99.910156 187.644531 " fill-opacity="1" fill-rule="nonzero"/><path fill="currentColor" d="M 107.046875 210.882812 C 107.195312 210.136719 107.394531 209.394531 107.691406 208.703125 C 107.738281 208.601562 107.738281 208.554688 107.789062 208.453125 C 107.9375 208.105469 107.589844 208.851562 107.738281 208.601562 C 107.839844 208.453125 107.886719 208.253906 107.988281 208.058594 C 108.136719 207.710938 108.335938 207.363281 108.53125 207.066406 C 108.730469 206.769531 108.878906 206.421875 109.128906 206.175781 C 109.226562 206.027344 109.324219 205.878906 109.425781 205.679688 C 108.976562 206.324219 109.375 205.730469 109.472656 205.628906 C 110.019531 204.984375 110.515625 204.492188 111.160156 203.945312 C 112.097656 203.101562 112.050781 201.417969 111.160156 200.578125 C 110.167969 199.683594 108.78125 199.683594 107.789062 200.578125 C 105.113281 202.90625 103.183594 206.175781 102.390625 209.59375 C 102.140625 210.78125 102.734375 212.21875 104.023438 212.46875 C 105.3125 212.765625 106.796875 212.167969 107.046875 210.882812 Z M 107.046875 210.882812 " fill-opacity="1" fill-rule="nonzero"/><path fill="currentColor" d="M 115.566406 228.964844 C 119.480469 228.121094 123.246094 226.585938 126.566406 224.457031 C 127.605469 223.761719 128.152344 222.375 127.410156 221.1875 C 126.714844 220.144531 125.277344 219.601562 124.136719 220.34375 C 123.347656 220.839844 122.601562 221.285156 121.761719 221.683594 C 121.316406 221.878906 120.917969 222.078125 120.421875 222.324219 C 120.226562 222.425781 119.976562 222.523438 119.730469 222.625 C 119.628906 222.671875 119.53125 222.722656 119.433594 222.773438 C 119.679688 222.671875 119.730469 222.671875 119.582031 222.722656 C 117.847656 223.414062 116.113281 223.960938 114.230469 224.355469 C 112.992188 224.605469 112.148438 226.089844 112.59375 227.230469 C 113.089844 228.617188 114.230469 229.210938 115.566406 228.964844 Z M 115.566406 228.964844 " fill-opacity="1" fill-rule="nonzero"/><path fill="currentColor" d="M 103.035156 238.972656 C 106.847656 240.605469 110.761719 241.648438 114.875 242.09375 C 116.113281 242.242188 117.300781 240.90625 117.253906 239.714844 C 117.203125 238.277344 116.210938 237.535156 114.875 237.335938 C 114.625 237.289062 114.328125 237.289062 114.082031 237.238281 C 114.179688 237.238281 114.230469 237.238281 114.328125 237.289062 C 114.230469 237.289062 114.082031 237.238281 113.980469 237.238281 C 113.488281 237.1875 113.089844 237.089844 112.59375 237.039062 C 111.753906 236.890625 110.910156 236.695312 110.117188 236.445312 C 109.277344 236.246094 108.484375 235.949219 107.691406 235.703125 C 107.246094 235.554688 106.847656 235.40625 106.402344 235.207031 C 106.253906 235.15625 106.054688 235.058594 105.855469 235.007812 C 105.757812 234.960938 105.609375 234.910156 105.511719 234.859375 C 105.757812 234.960938 105.757812 234.960938 105.511719 234.859375 C 104.867188 234.613281 104.371094 234.464844 103.675781 234.613281 C 103.132812 234.761719 102.539062 235.207031 102.242188 235.703125 C 101.695312 236.792969 101.84375 238.476562 103.035156 238.972656 Z M 103.035156 238.972656 " fill-opacity="1" fill-rule="nonzero"/><path fill="currentColor" d="M 146.484375 231.441406 C 150.644531 231.144531 154.804688 230.75 159.015625 230.449219 C 160.253906 230.351562 161.445312 229.460938 161.394531 228.074219 C 161.34375 226.882812 160.355469 225.597656 159.015625 225.695312 C 154.855469 225.992188 150.695312 226.386719 146.484375 226.6875 C 145.242188 226.785156 144.054688 227.675781 144.105469 229.0625 C 144.152344 230.300781 145.09375 231.539062 146.484375 231.441406 Z M 146.484375 231.441406 " fill-opacity="1" fill-rule="nonzero"/><path fill="currentColor" d="M 151.882812 216.828125 C 154.558594 214.992188 157.035156 212.863281 159.164062 210.386719 C 159.613281 209.890625 159.859375 209.394531 159.859375 208.703125 C 159.859375 208.105469 159.613281 207.464844 159.164062 207.015625 C 158.671875 206.621094 158.125 206.273438 157.480469 206.324219 C 156.886719 206.375 156.191406 206.523438 155.796875 207.015625 C 154.261719 208.851562 152.527344 210.484375 150.695312 211.921875 C 150.84375 211.824219 150.992188 211.675781 151.1875 211.574219 C 150.644531 211.972656 150.097656 212.367188 149.554688 212.714844 C 149.007812 213.0625 148.664062 213.507812 148.464844 214.152344 C 148.316406 214.746094 148.363281 215.4375 148.710938 215.984375 C 149.257812 217.023438 150.742188 217.621094 151.882812 216.828125 Z M 151.882812 216.828125 " fill-opacity="1" fill-rule="nonzero"/><path fill="currentColor" d="M 105.066406 143.105469 C 105.363281 138.894531 106.105469 134.832031 107.195312 130.722656 C 107.789062 128.589844 108.285156 126.359375 109.027344 124.28125 C 109.277344 123.488281 109.523438 123.042969 109.871094 122.296875 C 110.367188 121.457031 110.5625 121.160156 111.160156 120.566406 C 111.703125 120.019531 112.199219 119.671875 113.089844 119.277344 C 114.230469 118.730469 115.519531 118.433594 116.757812 118.1875 C 119.285156 117.59375 121.710938 116.996094 124.089844 116.007812 C 128.84375 114.023438 133.15625 111.300781 137.664062 108.824219 C 141.777344 106.59375 146.730469 103.917969 151.585938 105.15625 C 153.863281 105.800781 155.894531 106.988281 157.976562 108.078125 C 160.253906 109.269531 162.582031 110.410156 165.0625 111.101562 C 169.964844 112.539062 175.167969 112.738281 180.074219 114.222656 C 184.332031 115.5625 187.949219 118.285156 190.476562 121.953125 C 196.222656 130.273438 196.769531 141.074219 197.3125 150.886719 C 197.5625 155.542969 197.609375 160.347656 196.175781 164.855469 C 194.835938 168.769531 192.160156 171.839844 188.742188 174.070312 C 181.65625 178.628906 173.136719 180.808594 167.886719 187.746094 C 166.546875 189.480469 165.457031 191.164062 163.179688 191.558594 C 160.703125 191.957031 157.925781 191.609375 155.449219 191.460938 C 149.753906 191.113281 144.054688 190.421875 138.457031 189.28125 C 135.832031 188.734375 132.90625 188.339844 130.382812 187.300781 C 128.152344 186.359375 126.765625 184.277344 125.378906 182.445312 C 122.15625 178.234375 118.9375 174.320312 114.429688 171.496094 C 112.546875 170.304688 110.515625 169.167969 108.878906 167.582031 C 107.441406 166.144531 106.75 164.460938 106.351562 162.429688 C 105.363281 157.820312 105.015625 152.964844 105.015625 148.210938 C 104.914062 146.625 104.964844 144.839844 105.066406 143.105469 C 105.164062 141.867188 103.925781 140.730469 102.6875 140.730469 C 101.300781 140.730469 100.40625 141.820312 100.308594 143.105469 C 100.011719 147.613281 100.011719 152.171875 100.507812 156.632812 C 101.101562 161.683594 101.449219 167.035156 105.214844 170.898438 C 106.996094 172.78125 109.324219 174.121094 111.503906 175.457031 C 113.734375 176.796875 115.617188 178.382812 117.351562 180.3125 C 121.015625 184.328125 123.59375 189.925781 128.945312 191.957031 C 131.621094 192.945312 134.640625 193.492188 137.464844 193.988281 C 140.539062 194.582031 143.609375 195.027344 146.679688 195.472656 C 149.703125 195.820312 152.773438 196.167969 155.746094 196.316406 C 158.621094 196.464844 161.59375 196.710938 164.464844 196.167969 C 167.339844 195.574219 169.171875 193.691406 170.859375 191.511719 C 172.097656 189.875 173.382812 188.390625 175.019531 187.101562 C 178.488281 184.425781 182.699219 182.691406 186.5625 180.710938 C 190.625 178.679688 194.488281 176.203125 197.265625 172.585938 C 200.433594 168.421875 201.671875 163.320312 201.96875 158.21875 C 202.269531 152.917969 201.773438 147.515625 201.277344 142.214844 C 200.730469 136.566406 199.890625 130.871094 197.609375 125.570312 C 195.726562 121.011719 192.902344 116.75 188.941406 113.726562 C 184.628906 110.359375 179.429688 109.070312 174.078125 108.179688 C 171.351562 107.683594 168.628906 107.285156 165.953125 106.496094 C 163.476562 105.75 161.296875 104.5625 159.015625 103.375 C 156.738281 102.132812 154.308594 100.847656 151.785156 100.402344 C 148.8125 99.804688 145.839844 100.203125 142.914062 101.191406 C 137.664062 102.976562 133.007812 106 128.25 108.625 C 125.972656 109.863281 123.644531 111.152344 121.214844 112.042969 C 118.6875 112.984375 115.964844 113.382812 113.386719 114.125 C 111.109375 114.816406 108.878906 115.859375 107.292969 117.640625 C 105.957031 119.175781 105.066406 120.910156 104.371094 122.792969 C 103.578125 124.972656 103.035156 127.253906 102.4375 129.480469 C 101.746094 132.109375 101.152344 134.785156 100.753906 137.457031 C 100.507812 139.339844 100.257812 141.222656 100.109375 143.105469 C 100.011719 144.34375 101.25 145.484375 102.488281 145.484375 C 104.074219 145.484375 105.015625 144.34375 105.066406 143.105469 Z M 105.066406 143.105469 " fill-opacity="1" fill-rule="nonzero"/><path fill="currentColor" d="M 115.070312 141.71875 C 117.996094 128.390625 129.785156 118.582031 142.816406 115.609375 C 150.199219 113.925781 158.519531 114.472656 165.753906 116.699219 C 170.113281 118.039062 174.226562 120.265625 177.496094 123.488281 C 180.519531 126.507812 182.746094 130.375 184.136719 134.386719 C 185.621094 138.546875 186.464844 142.859375 186.761719 147.269531 C 187.058594 152.371094 186.761719 157.621094 184.730469 162.429688 C 182.105469 168.671875 176.851562 173.574219 171.105469 177.09375 C 165.210938 180.710938 158.421875 183.085938 151.335938 183.285156 C 147.472656 183.386719 143.558594 182.890625 139.894531 181.652344 C 139.347656 181.503906 138.902344 181.304688 138.355469 181.054688 C 138.160156 180.957031 137.910156 180.90625 137.714844 180.808594 C 138.207031 181.007812 137.863281 180.859375 137.613281 180.757812 C 137.117188 180.5625 136.625 180.363281 136.128906 180.066406 C 124.039062 174.269531 114.921875 162.578125 114.429688 148.902344 C 114.476562 146.523438 114.625 144.097656 115.070312 141.71875 C 115.320312 140.480469 114.726562 139.144531 113.4375 138.847656 C 112.296875 138.546875 110.8125 139.191406 110.515625 140.480469 C 107.097656 157.128906 116.113281 173.871094 130.480469 182.394531 C 134.839844 184.96875 139.496094 186.804688 144.550781 187.546875 C 153.367188 188.785156 162.238281 187 170.164062 183.039062 C 176.308594 179.964844 181.855469 175.558594 185.867188 170.007812 C 192.261719 161.140625 192.558594 149.695312 190.476562 139.339844 C 188.542969 129.828125 183.539062 120.761719 174.96875 115.609375 C 170.410156 112.886719 165.210938 111.347656 159.910156 110.65625 C 156.441406 110.160156 152.875 109.863281 149.355469 110.0625 C 134.246094 110.804688 118.789062 119.96875 112.644531 133.992188 C 111.753906 136.070312 111.007812 138.25 110.515625 140.480469 C 109.917969 143.402344 114.476562 144.691406 115.070312 141.71875 Z M 115.070312 141.71875 " fill-opacity="1" fill-rule="nonzero"/><path fill="currentColor" d="M 115.023438 92.523438 C 115.714844 91.976562 116.460938 91.582031 117.253906 91.1875 C 117.699219 90.988281 118.09375 90.789062 118.539062 90.542969 C 118.640625 90.492188 118.738281 90.441406 118.835938 90.394531 C 118.539062 90.492188 118.539062 90.542969 118.738281 90.441406 C 118.9375 90.394531 119.085938 90.292969 119.332031 90.246094 C 120.125 89.945312 120.96875 89.699219 121.808594 89.5 C 122.257812 89.402344 122.652344 89.351562 123.097656 89.253906 C 123.195312 89.253906 123.296875 89.203125 123.445312 89.203125 C 123.097656 89.253906 123.097656 89.253906 123.347656 89.203125 C 123.542969 89.203125 123.839844 89.15625 124.039062 89.15625 C 125.277344 89.054688 126.46875 88.164062 126.417969 86.777344 C 126.367188 85.585938 125.378906 84.300781 124.039062 84.398438 C 119.976562 84.695312 116.011719 86.082031 112.695312 88.410156 C 111.703125 89.15625 111.109375 90.492188 111.851562 91.679688 C 112.445312 92.671875 113.980469 93.316406 115.023438 92.523438 Z M 115.023438 92.523438 " fill-opacity="1" fill-rule="nonzero"/><path fill="currentColor" d="M 103.230469 64.53125 C 104.667969 63.738281 106.105469 62.996094 107.542969 62.351562 C 107.691406 62.300781 107.640625 62.300781 107.34375 62.402344 C 107.441406 62.351562 107.542969 62.300781 107.640625 62.300781 C 107.839844 62.203125 108.085938 62.152344 108.285156 62.054688 C 108.632812 61.90625 109.027344 61.804688 109.324219 61.65625 C 110.117188 61.410156 110.910156 61.113281 111.703125 60.914062 C 112.941406 60.566406 113.785156 59.230469 113.339844 58.042969 C 112.992188 56.851562 111.703125 56.058594 110.414062 56.40625 C 107.046875 57.398438 103.824219 58.785156 100.753906 60.46875 C 99.714844 61.113281 99.21875 62.597656 99.910156 63.738281 C 100.65625 64.730469 102.042969 65.226562 103.230469 64.53125 Z M 103.230469 64.53125 " fill-opacity="1" fill-rule="nonzero"/><path fill="currentColor" d="M 131.519531 68.792969 C 134.742188 66.214844 137.8125 63.441406 140.734375 60.519531 C 141.578125 59.625 141.675781 58.042969 140.734375 57.148438 C 139.792969 56.308594 138.308594 56.207031 137.367188 57.148438 C 134.445312 60.074219 131.421875 62.847656 128.152344 65.421875 C 127.707031 65.769531 127.457031 66.511719 127.457031 67.109375 C 127.457031 67.703125 127.707031 68.347656 128.152344 68.792969 C 128.648438 69.1875 129.191406 69.535156 129.835938 69.484375 C 130.53125 69.386719 130.976562 69.1875 131.519531 68.792969 Z M 131.519531 68.792969 " fill-opacity="1" fill-rule="nonzero"/><path fill="currentColor" d="M 133.007812 51.648438 C 133.304688 51.15625 133.652344 50.707031 133.996094 50.3125 C 133.898438 50.460938 133.75 50.609375 133.652344 50.808594 C 134.789062 49.320312 136.128906 48.035156 137.613281 46.894531 C 137.464844 46.992188 137.316406 47.140625 137.117188 47.242188 C 137.566406 46.945312 137.960938 46.597656 138.457031 46.300781 C 139 45.953125 139.347656 45.507812 139.546875 44.863281 C 139.695312 44.269531 139.644531 43.574219 139.296875 43.03125 C 138.605469 42.039062 137.117188 41.445312 136.027344 42.1875 C 133.15625 44.070312 130.777344 46.449219 128.894531 49.273438 C 128.199219 50.3125 128.648438 51.949219 129.738281 52.542969 C 130.925781 53.136719 132.261719 52.738281 133.007812 51.648438 Z M 133.007812 51.648438 " fill-opacity="1" fill-rule="nonzero"/><path fill="currentColor" d="M 135.582031 76.621094 C 137.464844 79.59375 139.101562 82.664062 140.585938 85.835938 C 140.785156 86.378906 141.480469 86.777344 142.023438 86.925781 C 142.617188 87.074219 143.359375 87.023438 143.855469 86.675781 C 144.996094 85.933594 145.292969 84.644531 144.699219 83.40625 C 143.210938 80.238281 141.578125 77.117188 139.695312 74.191406 C 139 73.152344 137.515625 72.605469 136.425781 73.351562 C 135.386719 74.042969 134.839844 75.53125 135.582031 76.621094 Z M 135.582031 76.621094 " fill-opacity="1" fill-rule="nonzero"/><path fill="currentColor" d="M 171.847656 96.785156 C 171.996094 96.785156 172.097656 96.734375 172.292969 96.734375 C 172.046875 96.785156 172.046875 96.785156 172.195312 96.734375 C 172.394531 96.734375 172.640625 96.683594 172.839844 96.683594 C 173.335938 96.636719 173.730469 96.585938 174.226562 96.585938 C 175.070312 96.535156 175.960938 96.535156 176.804688 96.535156 C 177.644531 96.535156 178.535156 96.636719 179.378906 96.734375 C 179.429688 96.734375 180.121094 96.832031 179.578125 96.734375 C 179.773438 96.785156 180.023438 96.785156 180.222656 96.832031 C 180.714844 96.882812 181.164062 96.980469 181.65625 97.082031 C 182.898438 97.328125 184.285156 96.734375 184.582031 95.445312 C 184.828125 94.257812 184.234375 92.820312 182.945312 92.574219 C 178.882812 91.730469 174.769531 91.632812 170.707031 92.277344 C 169.46875 92.425781 168.675781 94.058594 169.074219 95.148438 C 169.273438 96.488281 170.511719 97.03125 171.847656 96.785156 Z M 171.847656 96.785156 " fill-opacity="1" fill-rule="nonzero"/><path fill="currentColor" d="M 163.871094 59.429688 C 165.65625 62.945312 167.6875 66.414062 169.917969 69.632812 C 170.609375 70.625 172.046875 71.21875 173.1875 70.476562 C 174.175781 69.832031 174.773438 68.347656 174.027344 67.207031 C 171.800781 63.9375 169.816406 60.519531 167.984375 57 C 167.390625 55.910156 165.753906 55.464844 164.714844 56.160156 C 163.574219 56.953125 163.277344 58.238281 163.871094 59.429688 Z M 163.871094 59.429688 " fill-opacity="1" fill-rule="nonzero"/><path fill="currentColor" d="M 160.503906 49.769531 C 162.582031 49.667969 164.613281 49.617188 166.695312 49.71875 C 167.6875 49.769531 168.726562 49.816406 169.71875 49.964844 C 169.964844 49.964844 170.214844 50.015625 170.460938 50.066406 C 170.511719 50.066406 171.203125 50.164062 170.757812 50.113281 C 171.351562 50.164062 171.847656 50.261719 172.441406 50.363281 C 173.679688 50.558594 175.070312 50.066406 175.367188 48.726562 C 175.613281 47.585938 175.019531 46.050781 173.730469 45.855469 C 169.371094 45.109375 164.960938 44.863281 160.503906 45.109375 C 159.265625 45.160156 158.074219 46.152344 158.125 47.488281 C 158.175781 48.628906 159.214844 49.816406 160.503906 49.769531 Z M 160.503906 49.769531 " fill-opacity="1" fill-rule="nonzero"/><path fill="currentColor" d="M 190.773438 62.5 C 191.269531 62.402344 191.714844 62.351562 192.210938 62.253906 C 192.457031 62.203125 192.753906 62.152344 192.953125 62.152344 C 193.054688 62.152344 193.695312 62.054688 193.203125 62.105469 C 194.09375 62.003906 195.035156 61.90625 195.925781 61.855469 C 197.757812 61.757812 199.691406 61.707031 201.523438 61.804688 C 202.8125 61.855469 203.953125 60.667969 203.902344 59.429688 C 203.851562 58.140625 202.863281 57.101562 201.523438 57.050781 C 197.511719 56.851562 193.449219 57.148438 189.484375 57.941406 C 188.246094 58.140625 187.453125 59.675781 187.851562 60.816406 C 188.296875 62.152344 189.535156 62.746094 190.773438 62.5 Z M 190.773438 62.5 " fill-opacity="1" fill-rule="nonzero"/><path fill="currentColor" d="M 194.738281 83.359375 C 198.253906 83.703125 201.820312 83.851562 205.390625 83.605469 C 206.628906 83.554688 207.816406 82.566406 207.765625 81.226562 C 207.71875 80.039062 206.726562 78.800781 205.390625 78.847656 C 201.871094 79.046875 198.253906 78.949219 194.738281 78.601562 C 193.5 78.453125 192.308594 79.789062 192.359375 80.980469 C 192.410156 82.417969 193.398438 83.160156 194.738281 83.359375 Z M 194.738281 83.359375 " fill-opacity="1" fill-rule="nonzero"/><path fill="currentColor" d="M 212.175781 69.683594 C 214.800781 72.261719 217.476562 74.785156 220.054688 77.3125 C 220.945312 78.15625 222.53125 78.253906 223.421875 77.3125 C 224.265625 76.371094 224.363281 74.886719 223.421875 73.945312 C 220.796875 71.367188 218.121094 68.839844 215.546875 66.316406 C 214.652344 65.472656 213.066406 65.375 212.175781 66.316406 C 211.285156 67.257812 211.234375 68.742188 212.175781 69.683594 Z M 212.175781 69.683594 " fill-opacity="1" fill-rule="nonzero"/><path fill="currentColor" d="M 229.566406 97.625 C 231.992188 100.054688 234.816406 102.132812 237.691406 103.917969 C 238.730469 104.5625 240.316406 104.164062 240.960938 103.074219 C 241.605469 101.9375 241.207031 100.5 240.117188 99.804688 C 238.730469 98.964844 237.445312 98.070312 236.15625 97.128906 C 236.304688 97.230469 236.453125 97.378906 236.652344 97.476562 C 235.3125 96.488281 234.125 95.398438 232.933594 94.207031 C 232.042969 93.316406 230.457031 93.265625 229.566406 94.207031 C 228.675781 95.296875 228.625 96.734375 229.566406 97.625 Z M 229.566406 97.625 " fill-opacity="1" fill-rule="nonzero"/><path fill="currentColor" d="M 217.179688 102.035156 C 219.261719 104.511719 221.292969 106.941406 223.375 109.417969 C 223.71875 109.8125 224.464844 110.109375 225.058594 110.109375 C 225.652344 110.109375 226.347656 109.863281 226.742188 109.417969 C 227.1875 108.921875 227.484375 108.378906 227.4375 107.734375 C 227.386719 107.039062 227.1875 106.59375 226.742188 106.046875 C 224.660156 103.570312 222.628906 101.144531 220.550781 98.667969 C 220.203125 98.269531 219.460938 97.972656 218.863281 97.972656 C 218.269531 97.972656 217.578125 98.222656 217.179688 98.667969 C 216.734375 99.160156 216.4375 99.707031 216.488281 100.351562 C 216.535156 101.042969 216.785156 101.539062 217.179688 102.035156 Z M 217.179688 102.035156 " fill-opacity="1" fill-rule="nonzero"/><path fill="currentColor" d="M 226.097656 121.507812 C 230.160156 122.398438 234.320312 122.398438 238.382812 121.457031 C 239.625 121.207031 240.464844 119.722656 240.019531 118.582031 C 239.574219 117.34375 238.382812 116.652344 237.097656 116.949219 C 236.652344 117.046875 236.203125 117.144531 235.757812 117.195312 C 235.511719 117.246094 235.261719 117.292969 235.015625 117.292969 C 235.460938 117.246094 234.964844 117.292969 234.816406 117.292969 C 233.976562 117.394531 233.082031 117.445312 232.191406 117.445312 C 231.300781 117.445312 230.457031 117.394531 229.566406 117.34375 C 229.367188 117.34375 229.121094 117.292969 228.921875 117.292969 C 229.46875 117.34375 228.824219 117.292969 228.722656 117.246094 C 228.226562 117.195312 227.78125 117.097656 227.285156 116.996094 C 226.046875 116.75 224.660156 117.34375 224.363281 118.632812 C 224.117188 119.820312 224.761719 121.207031 226.097656 121.507812 Z M 226.097656 121.507812 " fill-opacity="1" fill-rule="nonzero"/><path fill="currentColor" d="M 224.761719 141.769531 C 228.226562 141.621094 231.695312 140.53125 234.570312 138.546875 C 235.5625 137.855469 236.15625 136.46875 235.414062 135.277344 C 234.769531 134.289062 233.230469 133.695312 232.140625 134.4375 C 231.5 134.832031 230.855469 135.230469 230.257812 135.527344 C 230.109375 135.625 229.914062 135.675781 229.714844 135.773438 C 229.617188 135.824219 229.566406 135.875 229.46875 135.875 C 229.765625 135.726562 229.8125 135.726562 229.617188 135.824219 C 229.316406 135.921875 228.972656 136.070312 228.675781 136.171875 C 227.980469 136.367188 227.238281 136.566406 226.496094 136.765625 C 226.347656 136.816406 226.195312 136.816406 226.046875 136.816406 C 225.949219 136.816406 225.851562 136.863281 225.75 136.863281 C 226.097656 136.816406 226.246094 136.816406 225.949219 136.863281 C 225.601562 136.914062 225.15625 136.914062 224.808594 136.964844 C 223.570312 137.011719 222.382812 138.003906 222.433594 139.339844 C 222.433594 140.628906 223.421875 141.867188 224.761719 141.769531 Z M 224.761719 141.769531 " fill-opacity="1" fill-rule="nonzero"/><path fill="currentColor" d="M 213.167969 157.128906 C 215.050781 159.953125 217.230469 162.675781 219.609375 165.203125 C 220.449219 166.09375 222.132812 166.09375 222.976562 165.203125 C 223.867188 164.261719 223.867188 162.824219 222.976562 161.832031 C 221.6875 160.496094 220.5 159.058594 219.3125 157.523438 C 219.410156 157.671875 219.558594 157.820312 219.65625 158.019531 C 218.816406 156.929688 218.023438 155.839844 217.28125 154.699219 C 216.585938 153.660156 215.148438 153.113281 214.007812 153.859375 C 212.96875 154.601562 212.425781 156.039062 213.167969 157.128906 Z M 213.167969 157.128906 " fill-opacity="1" fill-rule="nonzero"/><path fill="currentColor" d="M 248.886719 136.121094 C 250.523438 134.238281 252.15625 132.355469 253.792969 130.472656 C 254.238281 129.976562 254.484375 129.480469 254.484375 128.789062 C 254.484375 128.195312 254.238281 127.550781 253.792969 127.105469 C 253.296875 126.707031 252.753906 126.359375 252.109375 126.410156 C 251.511719 126.460938 250.820312 126.609375 250.421875 127.105469 C 248.789062 128.988281 247.152344 130.871094 245.519531 132.753906 C 245.074219 133.246094 244.824219 133.742188 244.824219 134.4375 C 244.824219 135.03125 245.074219 135.675781 245.519531 136.121094 C 246.015625 136.515625 246.558594 136.863281 247.203125 136.816406 C 247.847656 136.765625 248.492188 136.617188 248.886719 136.121094 Z M 248.886719 136.121094 " fill-opacity="1" fill-rule="nonzero"/><path fill="currentColor" d="M 240.714844 144.34375 C 243.140625 145.484375 245.519531 146.574219 247.945312 147.765625 C 248.542969 148.011719 249.085938 148.160156 249.78125 148.011719 C 250.324219 147.863281 250.917969 147.417969 251.214844 146.921875 C 251.8125 145.882812 251.5625 144.246094 250.375 143.652344 C 247.945312 142.511719 245.570312 141.421875 243.140625 140.234375 C 242.546875 139.984375 242 139.835938 241.308594 139.984375 C 240.761719 140.132812 240.167969 140.578125 239.871094 141.074219 C 239.277344 142.214844 239.476562 143.800781 240.714844 144.34375 Z M 240.714844 144.34375 " fill-opacity="1" fill-rule="nonzero"/><path fill="currentColor" d="M 237.742188 170.355469 C 237.9375 170.257812 238.1875 170.15625 238.382812 170.109375 C 238.1875 170.207031 238.039062 170.257812 237.789062 170.355469 C 239.625 169.5625 241.554688 169.117188 243.488281 168.769531 C 243.289062 168.820312 243.042969 168.820312 242.84375 168.867188 C 242.894531 168.867188 242.894531 168.867188 242.941406 168.867188 C 243.585938 168.769531 244.179688 168.671875 244.628906 168.175781 C 245.074219 167.777344 245.371094 167.085938 245.320312 166.492188 C 245.269531 165.847656 245.121094 165.253906 244.628906 164.804688 C 244.179688 164.460938 243.585938 164.015625 242.941406 164.113281 C 241.605469 164.261719 240.316406 164.460938 238.980469 164.90625 C 237.691406 165.253906 236.453125 165.746094 235.214844 166.34375 C 234.667969 166.539062 234.273438 167.234375 234.125 167.777344 C 233.976562 168.375 234.023438 169.066406 234.371094 169.613281 C 234.667969 170.15625 235.164062 170.554688 235.808594 170.703125 C 236.550781 170.75 237.097656 170.652344 237.742188 170.355469 Z M 237.742188 170.355469 " fill-opacity="1" fill-rule="nonzero"/><path fill="currentColor" d="M 231.449219 180.609375 C 233.480469 182.59375 235.511719 184.625 237.542969 186.65625 C 238.433594 187.546875 240.019531 187.597656 240.910156 186.65625 C 241.753906 185.714844 241.851562 184.226562 240.910156 183.285156 C 238.929688 181.304688 236.847656 179.273438 234.816406 177.242188 C 233.925781 176.351562 232.339844 176.300781 231.449219 177.242188 C 230.558594 178.234375 230.507812 179.667969 231.449219 180.609375 Z M 231.449219 180.609375 " fill-opacity="1" fill-rule="nonzero"/><path fill="currentColor" d="M 213.019531 194.730469 C 215.546875 196.019531 218.269531 196.960938 221.09375 197.40625 C 221.738281 197.503906 222.332031 197.503906 222.925781 197.15625 C 223.421875 196.910156 223.867188 196.316406 224.015625 195.722656 C 224.164062 195.078125 224.117188 194.484375 223.769531 193.886719 C 223.472656 193.394531 222.925781 192.898438 222.332031 192.796875 C 220.402344 192.550781 218.46875 192.003906 216.683594 191.214844 C 216.882812 191.3125 217.03125 191.363281 217.28125 191.460938 C 216.636719 191.214844 215.992188 190.867188 215.445312 190.570312 C 214.355469 189.972656 212.820312 190.273438 212.175781 191.410156 C 211.582031 192.550781 211.878906 194.085938 213.019531 194.730469 Z M 213.019531 194.730469 " fill-opacity="1" fill-rule="nonzero"/><path fill="currentColor" d="M 207.816406 220.394531 C 211.484375 221.234375 215.445312 221.085938 218.964844 219.652344 C 219.558594 219.453125 220.054688 219.105469 220.402344 218.5625 C 220.699219 218.015625 220.847656 217.320312 220.648438 216.726562 C 220.300781 215.636719 218.964844 214.597656 217.726562 215.09375 C 216.980469 215.390625 216.1875 215.6875 215.398438 215.835938 C 214.949219 215.933594 214.605469 215.984375 214.15625 216.035156 C 213.664062 216.132812 214.652344 215.984375 214.109375 216.035156 C 213.910156 216.035156 213.664062 216.082031 213.464844 216.082031 C 212.671875 216.132812 211.878906 216.132812 211.085938 216.082031 C 210.9375 216.082031 210.738281 216.035156 210.542969 216.035156 C 210.441406 216.035156 210.34375 216.035156 210.195312 215.984375 C 210.492188 216.035156 210.542969 216.035156 210.292969 215.984375 C 209.847656 215.933594 209.5 215.835938 209.054688 215.738281 C 207.816406 215.488281 206.429688 216.082031 206.132812 217.371094 C 205.835938 218.660156 206.527344 220.046875 207.816406 220.394531 Z M 207.816406 220.394531 " fill-opacity="1" fill-rule="nonzero"/><path fill="currentColor" d="M 196.472656 199.4375 C 197.957031 197.007812 199.445312 194.632812 200.929688 192.203125 C 201.574219 191.164062 201.179688 189.578125 200.089844 188.933594 C 198.949219 188.289062 197.511719 188.6875 196.816406 189.777344 C 195.332031 192.203125 193.84375 194.582031 192.359375 197.007812 C 191.714844 198.050781 192.113281 199.636719 193.203125 200.277344 C 194.390625 200.824219 195.828125 200.527344 196.472656 199.4375 Z M 196.472656 199.4375 " fill-opacity="1" fill-rule="nonzero"/><path fill="currentColor" d="M 181.0625 207.214844 C 184.382812 209.296875 188.148438 210.484375 192.0625 210.832031 C 193.351562 210.929688 194.488281 209.691406 194.441406 208.453125 C 194.390625 207.117188 193.398438 206.222656 192.0625 206.074219 C 191.863281 206.074219 191.566406 206.027344 191.367188 206.027344 C 191.121094 205.976562 191.171875 205.976562 191.46875 206.027344 C 191.367188 206.027344 191.269531 205.976562 191.171875 205.976562 C 190.824219 205.925781 190.378906 205.828125 190.03125 205.777344 C 189.238281 205.628906 188.445312 205.433594 187.652344 205.132812 C 187.207031 204.984375 186.859375 204.886719 186.414062 204.738281 C 185.871094 204.539062 186.910156 204.9375 186.363281 204.738281 C 186.167969 204.640625 185.917969 204.539062 185.71875 204.492188 C 184.929688 204.144531 184.183594 203.699219 183.492188 203.300781 C 182.449219 202.609375 180.867188 203.054688 180.222656 204.144531 C 179.625 205.132812 179.972656 206.523438 181.0625 207.214844 Z M 181.0625 207.214844 " fill-opacity="1" fill-rule="nonzero"/><path fill="currentColor" d="M 169.71875 214.597656 C 171.105469 217.917969 172.738281 221.085938 174.574219 224.207031 C 175.21875 225.25 176.753906 225.746094 177.84375 225.050781 C 178.882812 224.355469 179.378906 222.96875 178.683594 221.78125 C 177.84375 220.34375 177 218.90625 176.257812 217.421875 C 175.910156 216.679688 175.515625 215.933594 175.21875 215.242188 C 175.070312 214.894531 174.921875 214.5 174.722656 214.199219 C 174.621094 214.003906 174.574219 213.804688 174.472656 213.558594 C 174.425781 213.457031 174.128906 212.714844 174.375 213.359375 C 174.128906 212.765625 173.832031 212.316406 173.285156 211.921875 C 172.738281 211.625 171.996094 211.527344 171.453125 211.675781 C 170.859375 211.871094 170.363281 212.21875 170.015625 212.765625 C 169.667969 213.308594 169.46875 214.050781 169.71875 214.597656 Z M 169.71875 214.597656 " fill-opacity="1" fill-rule="nonzero"/><path fill="currentColor" d="M 156.886719 245.859375 C 159.613281 246.601562 162.386719 247.34375 165.160156 248.089844 C 166.398438 248.386719 167.785156 247.691406 168.082031 246.453125 C 168.332031 245.214844 167.738281 243.878906 166.449219 243.578125 C 163.722656 242.835938 160.949219 242.09375 158.175781 241.351562 C 156.9375 241.054688 155.546875 241.746094 155.25 242.984375 C 154.953125 244.222656 155.597656 245.511719 156.886719 245.859375 Z M 156.886719 245.859375 " fill-opacity="1" fill-rule="nonzero"/><path fill="currentColor" d="M 192.410156 233.722656 C 195.679688 233.917969 198.996094 234.066406 202.269531 234.316406 C 203.554688 234.363281 204.695312 233.175781 204.644531 231.9375 C 204.597656 230.597656 203.605469 229.609375 202.269531 229.558594 C 198.996094 229.359375 195.679688 229.210938 192.410156 228.964844 C 191.121094 228.914062 189.980469 230.105469 190.03125 231.34375 C 190.179688 232.679688 191.121094 233.621094 192.410156 233.722656 Z M 192.410156 233.722656 " fill-opacity="1" fill-rule="nonzero"/></svg>