<svg xmlns="http://www.w3.org/2000/svg" xmlns:xlink="http://www.w3.org/1999/xlink" width="400" zoomAndPan="magnify" viewBox="0 0 300 299.999988" height="400" preserveAspectRatio="xMidYMid meet" version="1.0"><defs><clipPath id="fa553dd2ee"><path d="M 228 39 L 238.199219 39 L 238.199219 248 L 228 248 Z M 228 39 " clip-rule="nonzero"/></clipPath></defs><path fill="#a9a0f0" d="M 233.972656 36.902344 C 231.238281 42.550781 225.878906 46.183594 220.789062 49.542969 C 217.839844 51.304688 215.148438 53.503906 212.085938 55.0625 C 208.738281 56.53125 205.023438 56.851562 201.433594 57.320312 C 194.308594 58.066406 187.117188 57.835938 179.957031 58.058594 C 172.75 58.113281 165.542969 57.554688 158.328125 57.5 C 144.128906 57.140625 129.917969 57.273438 115.714844 57.273438 C 106.667969 57.320312 97.625 57.042969 88.578125 57.035156 C 84.695312 57.117188 80.304688 58.113281 77.066406 55.378906 C 79.871094 53.242188 83.4375 53.265625 86.792969 53.289062 C 90.3125 53.226562 93.832031 53.289062 97.347656 53.511719 C 106.195312 53.863281 115.058594 53.917969 123.914062 53.898438 C 136.445312 53.699219 148.984375 53.921875 161.511719 54.238281 C 168.609375 54.3125 175.695312 54.847656 182.792969 54.613281 C 191.023438 54.339844 199.289062 54.660156 207.460938 53.457031 C 211.050781 53.085938 214.058594 51.066406 216.960938 49.078125 C 220.261719 47.003906 223.203125 44.367188 225.824219 41.515625 C 227.898438 39.285156 230.089844 37 231.222656 34.128906 C 227.882812 34.164062 224.539062 34.195312 221.195312 34.082031 C 210.550781 33.898438 199.910156 34.203125 189.269531 34.296875 C 182.347656 34.117188 175.210938 34.132812 168.339844 34.457031 C 162.730469 34.59375 157.125 34.746094 151.519531 34.988281 C 141.617188 35.09375 131.726562 35.675781 121.824219 35.832031 C 113.257812 36.050781 104.652344 35.988281 96.164062 37.359375 C 94.789062 37.640625 93.359375 37.835938 92.140625 38.566406 C 89.347656 40.445312 86.773438 42.632812 84.019531 44.566406 C 81.15625 46.589844 78.226562 48.5 75.269531 50.378906 C 73.113281 51.8125 71.011719 53.339844 68.519531 54.152344 C 68.28125 54.207031 68.058594 54.402344 67.828125 54.359375 C 67.8125 54.324219 67.835938 54.304688 67.863281 54.285156 C 67.878906 54.28125 67.871094 54.300781 67.867188 54.304688 C 68.832031 52.882812 69.636719 51.316406 70.914062 50.128906 C 72.136719 48.9375 73.398438 47.789062 74.664062 46.644531 C 77.351562 44.257812 80.046875 41.859375 82.933594 39.722656 C 85.003906 38.226562 87.019531 36.648438 89.148438 35.242188 C 92.945312 32.796875 98.972656 33.417969 103.375 33.425781 C 115.300781 34 127.28125 33.707031 139.132812 32.875 C 149.488281 32.261719 159.574219 31.792969 169.890625 31.304688 C 177.054688 30.785156 184.230469 30.875 191.414062 30.804688 C 198.519531 30.578125 205.625 30.519531 212.734375 30.367188 C 218 30.179688 223.269531 30.351562 228.539062 30.316406 C 230.035156 30.363281 231.625 30.132812 233.019531 30.78125 C 235.363281 31.917969 235.144531 34.949219 233.972656 36.890625 Z M 233.972656 36.902344 " fill-opacity="1" fill-rule="nonzero"/><path fill="#a9a0f0" d="M 73 261.351562 C 70.546875 261.023438 67.863281 259.996094 66.757812 257.609375 C 65.132812 253.886719 65.25 249.675781 64.847656 245.695312 C 64.53125 241.742188 64.320312 237.316406 64.070312 233.464844 C 63.371094 226.949219 62.992188 220.414062 62.683594 213.871094 C 61.945312 196.210938 64.195312 178.59375 63.804688 160.929688 C 63.949219 150.121094 64.328125 139.3125 64.253906 128.5 C 64.511719 119.726562 64.453125 110.941406 64.429688 102.164062 C 64.480469 97.917969 64.527344 93.675781 64.5 89.429688 C 64.5 85.042969 64.734375 80.65625 64.457031 76.269531 C 64.324219 73.8125 64.128906 71.542969 63.925781 69.125 C 63.542969 64.839844 62.871094 59.589844 66.800781 56.703125 C 66.675781 57.996094 67.09375 59.265625 67.273438 60.53125 C 67.585938 66.394531 67.117188 72.277344 67.050781 78.144531 C 66.464844 91.222656 67.066406 104.300781 67.148438 117.378906 C 66.851562 136.914062 66.917969 156.453125 67.15625 175.992188 C 67.144531 184.71875 66.328125 193.425781 66.273438 202.152344 C 66.152344 206.542969 66.355469 210.929688 66.640625 215.3125 C 66.777344 221.839844 67.402344 228.316406 67.957031 234.820312 C 68.449219 241.738281 68.644531 248.695312 69.785156 255.554688 C 69.949219 256.625 70.71875 257.4375 71.289062 258.316406 C 71.9375 259.28125 72.539062 260.296875 72.992188 261.351562 Z M 73 261.351562 " fill-opacity="1" fill-rule="nonzero"/><path fill="#a9a0f0" d="M 203.527344 260.183594 C 201.03125 263.382812 197.632812 263.960938 193.824219 264.140625 C 190.160156 264.433594 186.480469 264.558594 182.8125 264.789062 C 173.351562 265.515625 163.878906 266.160156 154.421875 266.9375 C 140.488281 267.875 126.617188 268.867188 112.667969 269.414062 C 109.023438 269.566406 105.382812 269.882812 101.734375 269.746094 C 98.027344 269.597656 94.34375 269.125 90.695312 268.457031 C 86.796875 267.628906 82.410156 266.65625 79.574219 263.839844 C 81.09375 263.847656 82.632812 263.648438 84.152344 263.886719 C 85.761719 264.15625 87.34375 264.605469 88.957031 264.882812 C 93.339844 265.550781 97.78125 265.820312 102.203125 265.8125 C 120.863281 264.804688 139.394531 264.089844 157.953125 262.519531 C 168.753906 261.59375 179.539062 260.457031 190.367188 259.886719 C 192.695312 259.742188 194.773438 259.511719 197.046875 259.175781 C 199.253906 258.855469 201.5 259.355469 203.527344 260.183594 Z M 203.527344 260.183594 " fill-opacity="1" fill-rule="nonzero"/><path fill="#a9a0f0" d="M 227.054688 251.660156 C 225.292969 254.121094 222.855469 256 220.578125 257.960938 C 218.160156 260.113281 212.976562 263.367188 211.105469 259.019531 C 209.972656 255.144531 210.105469 251.003906 209.984375 246.996094 C 209.96875 242.925781 210.058594 238.855469 210.066406 234.78125 C 210.304688 222.722656 211.152344 210.734375 211.59375 198.773438 C 211.792969 190.433594 212.035156 182.09375 211.757812 173.75 C 211.820312 163.449219 211.917969 153.148438 212.148438 142.847656 C 212.0625 132.554688 213.0625 122.285156 213.136719 111.996094 C 213.285156 103.613281 212.648438 95.242188 212.960938 86.863281 C 213.238281 80.339844 212.902344 73.738281 213.878906 67.265625 C 213.96875 66.894531 214.027344 66.453125 214.257812 66.140625 C 214.433594 65.898438 214.828125 65.90625 215 66.144531 C 215.558594 67.21875 215.546875 68.5 215.617188 69.683594 C 215.847656 75.234375 216.4375 80.542969 216.480469 86.070312 C 216.519531 96.519531 216.734375 106.976562 216.394531 117.425781 C 215.910156 131.808594 215.347656 146.199219 215.488281 160.589844 C 215.410156 168.878906 215.496094 177.167969 215.449219 185.457031 C 215.339844 189.625 215.109375 193.789062 215.167969 197.960938 C 215.167969 204.046875 214.746094 210.113281 214.316406 216.179688 C 214.097656 220.109375 214.1875 224.042969 214.003906 227.972656 C 213.65625 234.769531 213.339844 241.570312 213.527344 248.375 C 213.757812 251.535156 213.109375 254.835938 213.980469 257.90625 C 215.589844 257.609375 216.835938 256.304688 218.097656 255.332031 C 220.375 253.355469 222.386719 251.105469 224.496094 248.960938 C 225.722656 247.902344 227.140625 247.015625 228.683594 246.53125 C 228.683594 248.339844 228.054688 250.160156 227.054688 251.664062 Z M 227.054688 251.660156 " fill-opacity="1" fill-rule="nonzero"/><g clip-path="url(#fa553dd2ee)"><path fill="#a9a0f0" d="M 238.027344 53.652344 C 237.703125 62.492188 237.230469 71.328125 237.097656 80.175781 C 237.125 95.535156 237.597656 110.886719 237.230469 126.25 C 236.75 141.074219 235.988281 155.882812 235.613281 170.707031 C 235.433594 177.347656 235.011719 183.972656 235.050781 190.613281 C 234.851562 197.070312 235.113281 203.527344 235.355469 209.972656 C 235.5625 214.246094 235.363281 218.519531 235.476562 222.796875 C 235.53125 224.855469 235.625 226.921875 235.5625 228.980469 C 235.34375 234.683594 234.996094 241.054688 231.210938 245.628906 C 230.410156 246.488281 229.445312 247.242188 228.4375 247.808594 C 228.621094 245.015625 230.0625 242.617188 231.019531 240.054688 C 233.09375 233.402344 232.269531 226.328125 232.308594 219.46875 C 232.359375 210.855469 231.742188 202.257812 231.882812 193.644531 C 231.804688 180.96875 232.542969 168.136719 233.121094 155.507812 C 233.570312 145.882812 233.773438 136.457031 234.230469 126.96875 C 234.535156 116.003906 233.8125 105.050781 233.589844 94.09375 C 233.472656 87.488281 233.015625 80.890625 232.996094 74.28125 C 233.003906 69.910156 233.121094 65.535156 233.179688 61.15625 C 233.332031 56.457031 233.722656 51.769531 233.863281 47.070312 C 233.910156 45.785156 233.875 44.484375 234.117188 43.214844 C 234.296875 42 234.960938 40.863281 234.960938 39.640625 C 234.960938 39.640625 234.945312 39.644531 234.945312 39.636719 C 235.105469 39.589844 235.253906 39.945312 235.347656 40.050781 C 236.117188 41.144531 236.84375 42.25 237.257812 43.523438 C 238.054688 46.816406 238.027344 50.28125 238.03125 53.660156 Z M 238.027344 53.652344 " fill-opacity="1" fill-rule="nonzero"/></g><path fill="#a9a0f0" d="M 202.105469 94.03125 C 199.96875 110.496094 181.386719 115.71875 167.460938 118.386719 C 159.113281 119.765625 150.710938 121.015625 142.242188 121.316406 C 137.226562 121.636719 132.203125 121.347656 127.183594 121.28125 C 124.03125 121.25 120.878906 121.242188 117.742188 120.972656 C 115.289062 120.871094 112.839844 120.320312 110.746094 118.992188 C 112.898438 118.351562 115.214844 118.257812 117.453125 118.507812 C 120.191406 118.65625 122.929688 118.691406 125.667969 118.636719 C 132.679688 118.613281 139.695312 118.738281 146.691406 118.152344 C 154.03125 117.582031 161.332031 116.488281 168.574219 115.179688 C 176.230469 113.554688 184.152344 111.671875 190.5625 106.957031 C 195.65625 103.199219 199.589844 96.933594 198.351562 90.4375 C 196.328125 81.324219 184.316406 79.285156 176.546875 77.949219 C 169.164062 76.878906 161.703125 76.246094 154.242188 76.300781 C 137.085938 76.496094 119.777344 78.894531 103.628906 84.800781 C 94.890625 88.253906 80.902344 93.96875 78.773438 104.105469 C 78.21875 107.644531 78.921875 111.613281 81.21875 114.429688 C 81.601562 114.859375 82.035156 115.234375 82.507812 115.558594 C 83.824219 116.382812 85.101562 117.394531 86.621094 117.789062 C 84.203125 118.480469 81.347656 118.054688 79.371094 116.375 C 75.839844 113.378906 74.609375 108.292969 75.019531 103.820312 C 75.871094 97.109375 81.289062 92.164062 86.683594 88.707031 C 103.902344 78.21875 126.113281 74.359375 146.027344 73.203125 C 157.507812 72.613281 169.046875 73.242188 180.390625 75.113281 C 190.925781 76.898438 203.167969 81.082031 202.105469 94.039062 Z M 202.105469 94.03125 " fill-opacity="1" fill-rule="nonzero"/><path fill="#a9a0f0" d="M 210.699219 118.753906 C 209.261719 122.742188 205.917969 125.5625 202.984375 128.46875 C 200.78125 130.523438 198.53125 132.679688 195.578125 133.574219 C 191.46875 135.152344 187.070312 134.871094 182.78125 134.453125 C 180.1875 134.289062 177.660156 134.199219 175.070312 134.335938 C 170.59375 134.636719 166.097656 135.46875 162.078125 137.539062 C 156.085938 140.457031 150.558594 144.394531 146.09375 149.355469 C 141.621094 154.144531 139.851562 160.917969 143.722656 166.640625 C 147.429688 172.675781 151.324219 173.769531 158.050781 174.070312 C 166.261719 174.765625 174.574219 172.082031 180.9375 166.894531 C 189.671875 159.566406 189.296875 151.585938 194.265625 142.480469 C 195.933594 139.03125 199.003906 135.589844 203.195312 136.082031 C 202.460938 137.652344 201.4375 139.152344 200.4375 140.269531 C 197.214844 143.300781 196.136719 147.753906 194.667969 151.777344 C 189.996094 166.007812 178.15625 176.289062 162.980469 177.230469 C 160.09375 177.367188 157.195312 177.191406 154.320312 176.933594 C 149.894531 176.628906 145.480469 174.765625 142.84375 171.085938 C 140.96875 168.652344 139.117188 166.054688 138.601562 162.960938 C 137.738281 158.550781 138.800781 153.953125 141.359375 150.277344 C 146.457031 142.90625 154.042969 137.402344 162.09375 133.625 C 166.144531 131.753906 170.648438 131.152344 175.066406 130.898438 C 179.207031 130.742188 183.3125 131.425781 187.429688 131.753906 C 191.777344 132.269531 194.945312 130.074219 198.09375 127.40625 C 200.941406 125.179688 203.929688 123.144531 206.789062 120.933594 C 208.007812 120.074219 209.496094 119.546875 210.703125 118.75 Z M 210.699219 118.753906 " fill-opacity="1" fill-rule="nonzero"/><path fill="#a9a0f0" d="M 186.910156 144.828125 C 186.867188 143.898438 186.292969 143.128906 185.867188 142.339844 C 185.351562 141.382812 184.832031 140.433594 184.136719 139.589844 C 183.242188 139.589844 182.417969 139.816406 181.609375 139.949219 C 178.882812 140.375 176.105469 140.449219 173.394531 141.003906 C 170.449219 141.578125 167.367188 142.695312 164.753906 143.984375 C 160.570312 146.226562 156.421875 148.839844 153.246094 152.398438 C 149.414062 156.726562 146.753906 164.035156 153.074219 167.476562 C 156.964844 169.382812 163.375 168.421875 167.433594 167.210938 C 176.59375 163.789062 186.074219 155.003906 186.914062 144.824219 Z M 189.488281 148.148438 C 187.378906 154.878906 182.546875 160.429688 177.015625 164.644531 C 172.558594 168.121094 167.15625 170.363281 161.5 170.761719 C 154.933594 171.75 147.207031 170.136719 146.308594 162.386719 C 146.125 155.957031 151.066406 150.074219 155.90625 146.332031 C 161.542969 142.222656 168.207031 139.636719 174.933594 137.933594 C 178.246094 137.195312 182.523438 136.183594 184.875 139.378906 C 186.8125 139.390625 188.671875 140.691406 189.527344 142.40625 C 190.3125 144.214844 190.027344 146.304688 189.488281 148.148438 Z M 189.488281 148.148438 " fill-opacity="1" fill-rule="nonzero"/><path fill="#a9a0f0" d="M 181.265625 151.839844 C 180.300781 153.21875 177.46875 155.238281 176.042969 153.6875 C 176.113281 151.835938 176.511719 149.960938 177.097656 148.199219 C 177.507812 146.882812 178.828125 146.164062 179.613281 145.230469 C 182.472656 145.539062 182.980469 149.835938 181.265625 151.835938 Z M 181.265625 151.839844 " fill-opacity="1" fill-rule="nonzero"/><path fill="#a9a0f0" d="M 168.078125 158.132812 C 166.175781 161.394531 160.425781 160.480469 159.570312 156.8125 C 159.304688 155.855469 159.421875 154.476562 160.308594 153.855469 C 160.355469 153.808594 160.359375 153.710938 160.40625 153.671875 C 160.421875 153.710938 160.464844 153.734375 160.5 153.753906 C 163.488281 152.632812 165.933594 155.324219 167.730469 157.347656 C 167.890625 157.527344 168.054688 157.699219 168.1875 157.902344 C 168.1875 157.949219 168.09375 158.101562 168.082031 158.132812 Z M 168.078125 158.132812 " fill-opacity="1" fill-rule="nonzero"/><path fill="#a9a0f0" d="M 162.230469 164.382812 C 161.835938 165.632812 159.820312 165.886719 159.035156 164.863281 C 158.855469 164.652344 158.824219 164.371094 158.644531 164.164062 C 158.644531 164.148438 158.675781 164.148438 158.6875 164.144531 C 158.90625 164.015625 159.027344 163.753906 159.253906 163.609375 C 160.046875 162.941406 162.070312 163.25 162.230469 164.386719 Z M 162.230469 164.382812 " fill-opacity="1" fill-rule="nonzero"/><path fill="#a9a0f0" d="M 141.542969 173.265625 C 136.332031 175.480469 130.523438 173.210938 125.691406 170.984375 C 120.453125 168.621094 116.425781 164.457031 112.394531 160.476562 C 105.789062 154.089844 99.597656 146.964844 91.332031 142.828125 C 88.835938 141.675781 86.265625 140.648438 83.546875 140.175781 C 80.871094 139.738281 77.984375 139.664062 75.347656 139.5 C 73.75 139.390625 72.125 138.738281 70.6875 138.242188 C 72.296875 137.945312 73.742188 137.058594 75.390625 136.882812 C 76.8125 136.707031 78.234375 136.539062 79.667969 136.429688 C 85.09375 135.839844 90.523438 137.398438 95.207031 140.09375 C 98.753906 142.125 101.761719 144.949219 104.648438 147.765625 C 109.226562 152.1875 113.34375 157.042969 117.726562 161.660156 C 122.207031 166.769531 127.898438 171.078125 134.679688 172.394531 C 136.949219 172.792969 139.3125 172.804688 141.546875 173.265625 Z M 141.542969 173.265625 " fill-opacity="1" fill-rule="nonzero"/><path fill="#a9a0f0" d="M 104.390625 168.3125 C 100.460938 168.144531 97.53125 165.261719 94.402344 163.226562 C 88.640625 159.285156 83.214844 154.394531 76.308594 152.609375 C 75.125 152.269531 73.917969 151.878906 72.679688 151.914062 C 73.007812 151.738281 73.441406 151.660156 73.824219 151.574219 C 80.582031 150.640625 87.441406 155.457031 92.753906 159.125 C 94.980469 160.667969 97.167969 162.253906 99.386719 163.804688 C 101.277344 165.023438 103.023438 166.542969 104.390625 168.3125 Z M 104.390625 168.3125 " fill-opacity="1" fill-rule="nonzero"/><path fill="#a9a0f0" d="M 98.132812 170.558594 C 94.859375 171.320312 91.5 170.089844 89.421875 167.46875 C 88.613281 166.476562 88.074219 165.238281 87.253906 164.292969 C 89.507812 164.882812 91.535156 165.808594 93.5 167.03125 C 95.246094 167.945312 96.820312 169.121094 98.136719 170.558594 Z M 98.132812 170.558594 " fill-opacity="1" fill-rule="nonzero"/><path fill="#a9a0f0" d="M 87.515625 178.96875 C 83.171875 181.023438 76.441406 178.316406 76.503906 173.144531 C 77.417969 174.496094 79.082031 174.925781 80.488281 175.566406 C 82.929688 176.496094 85.527344 177.164062 87.515625 178.964844 C 87.515625 178.964844 87.515625 178.96875 87.515625 178.96875 Z M 87.515625 178.96875 " fill-opacity="1" fill-rule="nonzero"/><path fill="#a9a0f0" d="M 148.058594 177.941406 C 142.949219 179.898438 137.25 178.667969 131.921875 179.691406 C 121.449219 180.398438 111.007812 182.355469 101.210938 186.195312 C 90.910156 191.171875 78.484375 196.648438 74.3125 208.160156 C 73.59375 210.765625 73.6875 213.570312 72.609375 216.082031 C 70.632812 213.890625 69.699219 210.796875 70.539062 207.914062 C 76.019531 187.050781 109.75 177.371094 128.933594 176.800781 C 135.230469 176.929688 142.164062 175.234375 148.0625 177.941406 Z M 148.058594 177.941406 " fill-opacity="1" fill-rule="nonzero"/><path fill="#a9a0f0" d="M 208.917969 214.953125 C 208.632812 216.167969 208.265625 217.382812 207.753906 218.527344 C 207.21875 219.71875 206.570312 220.847656 205.84375 221.933594 C 204.613281 223.765625 203.128906 225.425781 201.507812 226.910156 C 199.6875 228.578125 197.652344 230.035156 195.578125 231.375 C 194.582031 232.019531 193.558594 232.640625 192.515625 233.203125 C 191.4375 233.777344 190.339844 234.308594 189.234375 234.832031 C 187.039062 235.875 184.777344 236.746094 182.488281 237.558594 C 180.179688 238.375 177.847656 239.140625 175.503906 239.855469 C 172 240.921875 168.414062 241.6875 164.941406 242.390625 C 163.730469 242.636719 162.515625 242.875 161.300781 243.085938 C 160.019531 243.308594 158.734375 243.480469 157.441406 243.640625 C 155.011719 243.945312 152.578125 244.222656 150.136719 244.410156 C 149.9375 244.425781 149.730469 244.441406 149.667969 244.445312 C 147.109375 244.636719 144.550781 244.695312 141.980469 244.683594 C 139.316406 244.667969 136.652344 244.625 133.988281 244.472656 C 131.542969 244.328125 129.089844 244.164062 126.652344 243.871094 C 124.230469 243.578125 121.8125 243.234375 119.410156 242.808594 C 116.890625 242.359375 114.386719 241.800781 111.894531 241.195312 C 109.480469 240.605469 107.109375 239.863281 104.757812 239.058594 C 102.390625 238.246094 100.066406 237.300781 97.789062 236.269531 C 95.601562 235.28125 93.464844 234.207031 91.394531 232.996094 C 90.449219 232.445312 89.515625 231.882812 88.59375 231.292969 C 87.835938 230.808594 87.089844 230.3125 86.421875 229.703125 C 85.894531 229.226562 85.421875 228.6875 85.003906 228.109375 C 84.84375 227.886719 84.691406 227.65625 84.546875 227.417969 C 84.433594 227.238281 84.335938 227.035156 84.238281 226.882812 C 84.199219 226.828125 84.164062 226.773438 84.144531 226.734375 C 84.140625 226.730469 84.136719 226.71875 84.132812 226.714844 C 84.132812 226.714844 84.132812 226.710938 84.132812 226.707031 C 84.132812 226.703125 84.132812 226.703125 84.132812 226.699219 C 84.121094 226.679688 84.121094 226.660156 84.117188 226.644531 C 84.09375 226.488281 84.253906 226.308594 84.433594 226.417969 C 84.480469 226.449219 84.535156 226.472656 84.585938 226.503906 C 85.46875 226.917969 86.347656 227.320312 87.191406 227.8125 C 88.429688 228.539062 89.539062 229.460938 90.726562 230.265625 C 92.515625 231.449219 94.394531 232.472656 96.320312 233.421875 C 99.03125 234.746094 101.839844 235.839844 104.648438 236.78125 C 109.070312 238.230469 113.589844 239.402344 118.011719 240.25 C 120.402344 240.695312 122.792969 241.113281 125.207031 241.410156 C 127.640625 241.710938 130.082031 241.972656 132.527344 242.160156 C 133.109375 242.207031 133.6875 242.238281 134.125 242.261719 C 136.738281 242.402344 139.355469 242.511719 141.976562 242.488281 C 144.511719 242.46875 147.050781 242.363281 149.585938 242.25 C 150.679688 242.203125 151.769531 242.140625 152.726562 242.070312 C 153.933594 241.980469 155.136719 241.886719 156.339844 241.765625 C 157.578125 241.636719 158.8125 241.464844 160.046875 241.304688 C 162.421875 240.988281 164.792969 240.660156 167.027344 240.207031 C 168.984375 239.808594 170.921875 239.34375 172.851562 238.835938 C 174.707031 238.351562 176.554688 237.835938 178.371094 237.222656 C 179.699219 236.765625 181.015625 236.269531 182.308594 235.730469 C 183.664062 235.164062 184.992188 234.53125 186.1875 233.945312 C 186.269531 233.90625 186.347656 233.871094 186.421875 233.832031 C 187.589844 233.253906 188.746094 232.660156 189.875 232.007812 C 191.03125 231.335938 192.171875 230.640625 193.257812 229.929688 C 194.777344 228.921875 196.25 227.847656 197.5 226.769531 C 198.824219 225.617188 200.0625 224.371094 201.234375 223.066406 C 201.964844 222.226562 202.652344 221.339844 203.277344 220.421875 C 203.839844 219.570312 204.355469 218.691406 204.808594 217.78125 C 205.183594 216.996094 205.527344 216.199219 205.808594 215.382812 C 205.992188 214.808594 206.136719 214.222656 206.257812 213.636719 C 206.359375 213.058594 206.4375 212.480469 206.476562 211.894531 C 206.503906 211.339844 206.5 210.78125 206.464844 210.222656 C 206.417969 209.664062 206.339844 209.109375 206.230469 208.5625 C 206.097656 207.941406 205.941406 207.328125 205.75 206.722656 C 205.492188 205.972656 205.191406 205.238281 204.847656 204.523438 C 204.386719 203.609375 203.859375 202.726562 203.296875 201.871094 C 202.6875 200.972656 202.011719 200.125 201.304688 199.304688 C 200.386719 198.25 199.398438 197.265625 198.355469 196.339844 C 197.027344 195.183594 195.628906 194.101562 194.355469 193.242188 C 192.335938 191.902344 190.21875 190.710938 188.25 189.746094 C 186.78125 189.03125 185.273438 188.410156 183.769531 187.769531 C 182.273438 187.132812 180.769531 186.542969 179.246094 186.035156 C 176.851562 185.246094 174.453125 184.449219 172.011719 183.800781 C 170.796875 183.476562 169.578125 183.191406 168.359375 182.890625 C 167.203125 182.609375 166.046875 182.324219 164.878906 182.070312 C 164.519531 181.992188 164.15625 181.921875 163.796875 181.851562 C 162.632812 181.632812 161.464844 181.429688 160.457031 181.238281 C 160.328125 181.214844 160.199219 181.191406 160.070312 181.167969 C 159.507812 181.0625 158.945312 180.957031 158.390625 180.800781 C 157.875 180.65625 157.367188 180.484375 156.957031 180.351562 C 156.054688 180.050781 155.121094 179.769531 154.273438 179.339844 C 154.265625 179.335938 154.269531 179.328125 154.273438 179.328125 C 155.332031 179.027344 156.449219 178.914062 157.546875 178.8125 C 158.179688 178.757812 158.820312 178.714844 159.457031 178.742188 C 160.113281 178.773438 160.773438 178.832031 161.425781 178.902344 C 162.703125 179.039062 163.96875 179.230469 165.238281 179.410156 C 166.421875 179.578125 167.601562 179.75 168.777344 179.949219 C 170.042969 180.167969 171.300781 180.441406 172.546875 180.730469 C 173.75 181.007812 174.953125 181.296875 176.148438 181.609375 C 178.699219 182.277344 181.1875 183.136719 183.660156 184.039062 C 184.695312 184.417969 185.71875 184.808594 186.726562 185.253906 C 187.898438 185.769531 189.042969 186.339844 190.183594 186.917969 C 192.398438 188.03125 194.519531 189.28125 196.5 190.605469 C 196.582031 190.660156 196.667969 190.714844 196.765625 190.78125 L 196.933594 190.894531 C 199.003906 192.277344 200.964844 193.867188 202.707031 195.640625 C 204.304688 197.265625 205.742188 199.042969 206.875 201.019531 C 208.027344 203.039062 208.847656 205.3125 209.214844 207.605469 C 209.371094 208.570312 209.445312 209.554688 209.445312 210.539062 C 209.445312 212.035156 209.273438 213.535156 208.933594 214.976562 Z M 208.917969 214.953125 " fill-opacity="1" fill-rule="nonzero"/><path fill="#a9a0f0" d="M 205.414062 217.492188 C 205.414062 218.113281 205.320312 218.757812 204.957031 219.253906 C 204.5 218.171875 203.886719 217.222656 203.597656 216.082031 C 202.316406 213.238281 201.1875 210.300781 199.589844 207.617188 C 197.878906 205.160156 195.484375 203.398438 193.070312 201.726562 C 188.613281 198.847656 183.796875 196.546875 178.851562 194.636719 C 174.097656 192.828125 169.699219 191.089844 164.777344 190.164062 C 160.289062 189.339844 155.695312 189.375 151.152344 189.21875 C 148.496094 189.136719 145.835938 189.167969 143.183594 189.367188 C 136.5625 189.925781 129.9375 190.054688 123.394531 191.085938 C 115.96875 192.144531 108.609375 193.800781 101.460938 196.0625 C 93.777344 198.65625 86.523438 201.316406 81.019531 207.589844 C 79.414062 209.371094 78.207031 211.515625 77.292969 213.707031 C 76.789062 214.8125 75.890625 215.921875 75.925781 217.148438 C 74.222656 214.703125 74.261719 211.96875 75.632812 209.371094 C 76.6875 207.105469 78.128906 205.023438 79.996094 203.351562 C 85.046875 198.386719 91.507812 195.230469 98.136719 192.925781 C 107.480469 189.65625 117.300781 187.898438 127.121094 186.816406 C 132.652344 186.222656 138.226562 186.128906 143.777344 185.796875 C 147.636719 185.621094 151.4375 185.914062 155.269531 186.191406 C 159.390625 186.421875 163.519531 186.730469 167.535156 187.710938 C 172.882812 188.992188 178.046875 190.972656 183.03125 193.269531 C 189.867188 196.554688 196.191406 201.289062 200.757812 207.382812 C 203 210.34375 205.296875 213.660156 205.414062 217.5 Z M 205.414062 217.492188 " fill-opacity="1" fill-rule="nonzero"/><path fill="#a9a0f0" d="M 170.652344 205.160156 C 169.726562 207.785156 166.390625 208.300781 163.976562 208.734375 C 157.582031 209.796875 149.367188 206.222656 149.902344 198.765625 C 149.886719 198.78125 149.867188 198.800781 149.847656 198.820312 C 149.839844 198.824219 149.835938 198.820312 149.839844 198.8125 C 149.855469 198.753906 149.871094 198.664062 149.953125 198.683594 C 150.117188 198.835938 150.191406 199.097656 150.339844 199.285156 C 150.949219 200.148438 151.71875 200.867188 152.398438 201.671875 C 153.46875 203.109375 154.585938 204.601562 156.28125 205.351562 C 159.480469 206.84375 163.226562 207.804688 166.691406 206.703125 C 167.394531 206.433594 169.558594 205.660156 169.046875 204.6875 C 167.710938 203.917969 166.046875 204.285156 164.574219 204.277344 C 162.65625 204.296875 160.582031 204.296875 158.988281 203.074219 C 157.863281 202.234375 156.964844 201.101562 156.3125 199.859375 C 155.695312 198.484375 154.699219 197.046875 153.234375 196.507812 C 152.628906 196.402344 152.035156 196.578125 151.453125 196.707031 C 151.996094 195.910156 152.894531 195.261719 153.90625 195.257812 C 155.613281 195.25 157.078125 196.5625 157.835938 198.007812 C 158.847656 200.28125 160.644531 202.476562 163.339844 202.480469 C 165.613281 202.585938 170.9375 201.507812 170.65625 205.15625 Z M 170.652344 205.160156 " fill-opacity="1" fill-rule="nonzero"/><path fill="#a9a0f0" d="M 189.304688 219.632812 C 188.378906 221.175781 186.175781 221.871094 184.539062 221.222656 C 185.929688 221.171875 187.25 220.492188 188.195312 219.488281 C 188.421875 219.222656 188.746094 218.757812 188.355469 218.5 C 186.335938 217.183594 184.886719 215.457031 185.535156 212.90625 C 185.679688 211.761719 186.097656 210.546875 185.730469 209.410156 C 185.351562 208.757812 184.507812 209.722656 184.109375 209.96875 C 182.910156 210.980469 182.136719 212.367188 181.648438 213.839844 C 181.1875 215.414062 180.597656 217.109375 180.828125 218.726562 C 178.683594 215.644531 179.480469 210.574219 182.3125 208.160156 C 183.507812 207.132812 185.527344 206.347656 186.808594 207.636719 C 188.507812 209.433594 186.953125 211.910156 186.773438 213.980469 C 186.5 216.515625 190.625 217.367188 189.304688 219.632812 Z M 189.304688 219.632812 " fill-opacity="1" fill-rule="nonzero"/><path fill="#a9a0f0" d="M 179.238281 211.617188 C 178.425781 212.863281 178.601562 214.421875 178.640625 215.824219 C 178.675781 216.804688 178.734375 217.796875 178.855469 218.765625 C 175.683594 216.859375 175.894531 213.136719 179.238281 211.617188 Z M 179.238281 211.617188 " fill-opacity="1" fill-rule="nonzero"/><path fill="#a9a0f0" d="M 179.011719 221.878906 C 177.410156 222.015625 175.734375 221.050781 175.355469 219.433594 C 175.242188 219.003906 175.148438 218.292969 175.382812 217.972656 C 175.65625 218.714844 176.429688 219.132812 177.023438 219.609375 C 177.820312 220.21875 178.550781 221.007812 179.011719 221.878906 Z M 179.011719 221.878906 " fill-opacity="1" fill-rule="nonzero"/><path fill="#a9a0f0" d="M 190.964844 223.0625 C 188.992188 225.621094 186.871094 226.011719 183.925781 225.015625 C 186.316406 224.554688 188.605469 223.46875 190.964844 223.0625 Z M 190.964844 223.0625 " fill-opacity="1" fill-rule="nonzero"/><path fill="#a9a0f0" d="M 174.566406 203.804688 C 174.332031 207.332031 171.320312 209.800781 168.332031 211.214844 C 165.601562 212.574219 162.769531 212.976562 159.875 211.839844 C 161.339844 211.238281 162.910156 210.71875 164.460938 210.332031 C 168.007812 209.644531 171.21875 207.703125 173.628906 205.035156 C 173.960938 204.597656 174.351562 204.167969 174.546875 203.667969 C 174.582031 203.660156 174.558594 203.78125 174.566406 203.804688 Z M 174.566406 203.804688 " fill-opacity="1" fill-rule="nonzero"/><path fill="#a9a0f0" d="M 150.46875 207.773438 C 146.464844 206.171875 145.300781 202.859375 146.5625 198.890625 C 147.988281 201.769531 148.519531 205.234375 150.46875 207.773438 Z M 150.46875 207.773438 " fill-opacity="1" fill-rule="nonzero"/><path fill="#a9a0f0" d="M 150.804688 211.234375 C 147.898438 210.605469 145.113281 208.398438 144.550781 205.40625 C 145.269531 206.617188 146.535156 207.371094 147.582031 208.269531 C 148.667969 209.230469 149.773438 210.253906 150.804688 211.234375 Z M 150.804688 211.234375 " fill-opacity="1" fill-rule="nonzero"/><path fill="#a9a0f0" d="M 165.640625 222.636719 C 164.53125 229.5625 157.753906 236.917969 150.484375 232.679688 C 148.785156 231.800781 147.660156 229.742188 148.027344 227.859375 C 148.664062 228.835938 149.535156 229.667969 150.492188 230.332031 C 154.191406 233.207031 158.230469 232.089844 161.191406 228.789062 C 162.832031 226.792969 164.851562 223.453125 164.03125 220.8125 C 163.664062 219.898438 162.726562 220.328125 162.128906 220.75 C 160.042969 222.207031 158.386719 223.863281 156.433594 225.410156 C 154.144531 227.660156 150.132812 227.734375 148.019531 225.242188 C 147.640625 224.808594 147.261719 224.339844 146.886719 223.949219 C 147.953125 224.480469 149.121094 224.570312 150.285156 224.671875 C 151.398438 224.808594 152.515625 225.070312 153.636719 224.855469 C 155.921875 224.238281 157.460938 222.238281 159.214844 220.832031 C 160.4375 219.765625 161.847656 218.40625 163.613281 218.71875 C 165.296875 219.09375 165.871094 221.117188 165.640625 222.640625 Z M 165.640625 222.636719 " fill-opacity="1" fill-rule="nonzero"/><path fill="#a9a0f0" d="M 165.324219 229.667969 C 164.558594 231.851562 163.136719 233.8125 161.0625 234.902344 C 159.214844 235.914062 156.78125 236.511719 154.773438 235.933594 C 155.828125 235.878906 156.730469 235.160156 157.652344 234.695312 C 160.511719 233.492188 162.828125 231.410156 165.324219 229.667969 Z M 165.324219 229.667969 " fill-opacity="1" fill-rule="nonzero"/><path fill="#a9a0f0" d="M 170.53125 227.996094 C 170.246094 229.347656 170.234375 230.851562 169.34375 231.984375 C 168.382812 233.226562 166.871094 234.003906 165.363281 234.273438 C 166.011719 233.171875 166.792969 232.167969 167.648438 231.222656 C 168.644531 230.140625 169.816406 229.226562 170.53125 227.996094 Z M 170.53125 227.996094 " fill-opacity="1" fill-rule="nonzero"/><path fill="#a9a0f0" d="M 180.609375 231.84375 C 180.152344 233.03125 178.277344 233.074219 177.917969 231.785156 C 177.667969 231.046875 178.375 230.238281 179.140625 230.449219 C 179.996094 230.113281 180.984375 230.953125 180.609375 231.84375 Z M 180.609375 231.84375 " fill-opacity="1" fill-rule="nonzero"/><path fill="#a9a0f0" d="M 138.1875 198.808594 C 137.625 200.273438 135.671875 200.914062 134.417969 199.898438 C 133.714844 199.34375 133.210938 198.046875 133.886719 197.324219 C 133.597656 196.226562 134.550781 195.292969 135.574219 195.121094 C 137.5 194.789062 138.992188 197.117188 138.183594 198.8125 Z M 138.1875 198.808594 " fill-opacity="1" fill-rule="nonzero"/><path fill="#a9a0f0" d="M 135.386719 213.886719 C 134.417969 218.261719 128.503906 218.082031 125.101562 217.050781 C 123.070312 216.472656 121.179688 215.292969 119.917969 213.578125 C 118.933594 212.273438 118.457031 210.417969 119.28125 208.914062 C 119.34375 209.332031 119.390625 209.800781 119.539062 210.21875 C 120.800781 213.21875 123.75 215.1875 126.886719 215.773438 C 129.144531 216.113281 132 216.445312 133.5 214.378906 C 134.128906 213.394531 133.433594 211.796875 132.144531 212.074219 C 128.707031 212.410156 124.375 213.535156 121.898438 210.359375 C 121.492188 209.929688 121.203125 209.382812 120.953125 208.886719 C 121.949219 209.542969 123.125 209.632812 124.28125 209.726562 C 125.960938 209.925781 127.644531 209.960938 129.332031 209.847656 C 132.359375 209.527344 135.644531 210.089844 135.390625 213.882812 Z M 135.386719 213.886719 " fill-opacity="1" fill-rule="nonzero"/><path fill="#a9a0f0" d="M 127.644531 219.757812 C 122.257812 220.554688 117.945312 218.382812 116.679688 212.859375 C 116.621094 212.640625 116.558594 212.417969 116.539062 212.191406 C 116.78125 212.496094 117.0625 212.878906 117.339844 213.179688 C 121.089844 217.4375 122.050781 218.351562 127.644531 219.757812 Z M 127.644531 219.757812 " fill-opacity="1" fill-rule="nonzero"/><path fill="#a9a0f0" d="M 140.226562 216.585938 C 139.175781 218.058594 137.21875 218.726562 135.503906 218.34375 C 136.207031 218.234375 136.792969 217.804688 137.410156 217.476562 C 138.28125 217.027344 139.265625 216.695312 140.226562 216.585938 Z M 140.226562 216.585938 " fill-opacity="1" fill-rule="nonzero"/><path fill="#a9a0f0" d="M 115.152344 217.601562 C 113.5625 217.402344 112.542969 215.808594 112.464844 214.300781 C 112.429688 213.960938 112.414062 213.570312 112.523438 213.242188 C 112.582031 213.296875 112.628906 213.421875 112.6875 213.492188 C 113.652344 214.785156 114.976562 215.921875 115.152344 217.601562 Z M 115.152344 217.601562 " fill-opacity="1" fill-rule="nonzero"/><path fill="#a9a0f0" d="M 120.667969 227.4375 C 118.234375 227.472656 115.898438 227.1875 113.492188 227.042969 C 110.28125 226.851562 107.132812 225.667969 104.488281 223.851562 C 103.140625 222.808594 101.453125 221.789062 101.132812 219.976562 C 100.71875 217.714844 101.375 215.140625 103.027344 213.511719 C 104.363281 212.15625 106.671875 211.65625 107.808594 213.519531 C 108.949219 215.203125 107.480469 217.160156 108.164062 218.871094 C 108.207031 218.972656 108.300781 219.082031 108.335938 219.171875 C 106.707031 218.597656 105.839844 216.957031 105.296875 215.417969 C 103.921875 216.667969 103.894531 218.839844 104.3125 220.527344 C 105.457031 222.820312 108.09375 224.160156 110.390625 225.070312 C 112.238281 225.6875 114.207031 225.695312 116.128906 225.90625 C 117.710938 226.128906 119.296875 226.671875 120.675781 227.441406 Z M 120.667969 227.4375 " fill-opacity="1" fill-rule="nonzero"/><path fill="#a9a0f0" d="M 100.007812 220.972656 C 99.527344 220.984375 98.96875 220.761719 98.820312 220.273438 C 99.296875 220.136719 99.695312 220.46875 99.941406 220.84375 C 99.941406 220.839844 99.9375 220.835938 99.933594 220.832031 C 99.957031 220.878906 100.007812 220.925781 100.007812 220.972656 Z M 100.007812 220.972656 " fill-opacity="1" fill-rule="nonzero"/><path fill="#a9a0f0" d="M 114.171875 229.570312 C 108.289062 230.71875 102.589844 227.769531 98.140625 224.210938 C 100.695312 224.808594 103.285156 225.875 105.738281 226.714844 C 108.558594 227.617188 111.421875 228.535156 114.171875 229.570312 Z M 114.171875 229.570312 " fill-opacity="1" fill-rule="nonzero"/><path fill="#a9a0f0" d="M 120.109375 229.496094 C 119.820312 229.710938 119.492188 229.832031 119.140625 229.894531 C 118.75 229.960938 118.375 229.921875 117.992188 229.847656 C 118 229.847656 118.011719 229.851562 118.023438 229.855469 C 117.785156 229.804688 117.5 229.78125 117.289062 229.675781 C 118.121094 229.152344 119.277344 228.84375 120.113281 229.5 Z M 120.109375 229.496094 " fill-opacity="1" fill-rule="nonzero"/><path fill="#a9a0f0" d="M 119.042969 227.398438 C 118.476562 226.40625 117.304688 225.878906 116.335938 225.316406 C 114.613281 224.382812 112.558594 224.117188 111.078125 222.746094 C 110.214844 222.011719 109.46875 221.089844 108.835938 220.1875 C 109.121094 220.28125 109.414062 220.359375 109.707031 220.417969 C 111.996094 220.6875 114.257812 220.882812 116.066406 222.5 C 117.46875 223.488281 119.332031 225.566406 119.046875 227.398438 Z M 119.042969 227.398438 " fill-opacity="1" fill-rule="nonzero"/><path fill="#a9a0f0" d="M 141.175781 229.277344 C 138.589844 231.289062 135.160156 231.324219 132.066406 230.777344 C 129.273438 230.351562 127.644531 228.609375 126.925781 225.933594 C 127.796875 226.75 129.046875 227.355469 130.058594 227.890625 C 133.433594 229.605469 137.515625 230.074219 141.175781 229.273438 Z M 141.175781 229.277344 " fill-opacity="1" fill-rule="nonzero"/><path fill="#a9a0f0" d="M 143.558594 227.238281 C 143.554688 228.382812 142.875 229.425781 141.914062 230.007812 C 141.90625 229.945312 141.992188 229.859375 142.011719 229.789062 C 142.707031 228.476562 143.699219 226.699219 142.082031 225.644531 C 140.347656 224.777344 138.359375 225.820312 136.582031 226.089844 C 134.160156 226.59375 131.570312 226.878906 129.195312 226.027344 C 128.703125 225.933594 127.375 224.96875 127.285156 225.867188 C 127.304688 225.964844 127.359375 226.046875 127.441406 226.105469 C 126.695312 226.128906 126.492188 225.050781 126.820312 224.5 C 127.464844 223.339844 128.96875 223.019531 130.199219 223.175781 C 131.855469 223.550781 133.5 224.351562 135.226562 224.335938 C 136.765625 224.449219 138.109375 224.074219 139.613281 224.074219 C 141.460938 223.992188 143.675781 225.152344 143.558594 227.238281 Z M 143.558594 227.238281 " fill-opacity="1" fill-rule="nonzero"/><path fill="#a9a0f0" d="M 139.585938 233.347656 C 136.375 234.871094 131.246094 235.113281 129.191406 231.871094 C 130.402344 232.75 132.0625 232.492188 133.476562 232.71875 C 135.554688 232.894531 137.5625 233.019531 139.585938 233.347656 Z M 139.585938 233.347656 " fill-opacity="1" fill-rule="nonzero"/><path fill="#a9a0f0" d="M 121.382812 194.753906 C 118.046875 196.617188 114.414062 197.511719 110.695312 198.171875 C 108.59375 198.578125 106.40625 198.9375 104.292969 198.976562 C 107.109375 197.128906 110.246094 195.890625 113.425781 194.824219 C 115.984375 193.832031 118.832031 193.761719 121.386719 194.753906 Z M 121.382812 194.753906 " fill-opacity="1" fill-rule="nonzero"/><path fill="#a9a0f0" d="M 173.496094 196.617188 C 170.257812 196.417969 167.3125 195.011719 164.292969 193.960938 C 161.972656 193.203125 159.570312 192.632812 157.140625 192.476562 C 160.285156 191.246094 163.132812 191.660156 166.277344 192.695312 C 168.960938 193.394531 171.636719 194.507812 173.496094 196.613281 Z M 173.496094 196.617188 " fill-opacity="1" fill-rule="nonzero"/><path fill="#a9a0f0" d="M 182.8125 203.558594 C 181.878906 203.949219 180.691406 203.121094 180.804688 202.09375 C 180.832031 201.585938 181.320312 201.03125 181.859375 201.222656 C 183.25 200.777344 184.253906 202.914062 182.8125 203.558594 Z M 182.8125 203.558594 " fill-opacity="1" fill-rule="nonzero"/><path fill="#a9a0f0" d="M 147.679688 218.300781 C 147.289062 219.753906 145.070312 219.234375 145.289062 217.792969 C 145.566406 216.089844 148.066406 216.671875 147.679688 218.300781 Z M 147.679688 218.300781 " fill-opacity="1" fill-rule="nonzero"/><path fill="#a9a0f0" d="M 110.832031 206.632812 C 110.207031 209 106.214844 207.929688 107.425781 205.597656 C 107.863281 205.09375 108.511719 204.734375 109.152344 204.535156 C 110.320312 204.324219 111.121094 205.609375 110.832031 206.632812 Z M 110.832031 206.632812 " fill-opacity="1" fill-rule="nonzero"/><path fill="#a9a0f0" d="M 94.644531 210.664062 C 94.753906 212.386719 93.859375 213.871094 93.257812 215.417969 C 93.128906 215.832031 93.058594 216.320312 93.171875 216.703125 C 91.925781 215.625 91.402344 213.90625 91.351562 212.300781 C 91.179688 211.578125 91.910156 208.71875 91.039062 208.664062 C 88.59375 209.707031 87.628906 212.976562 87.976562 215.445312 C 88.261719 217.121094 89.957031 218.054688 91.542969 218.0625 C 91.6875 218.0625 91.863281 218.003906 91.980469 217.976562 C 91.519531 218.777344 90.496094 219.089844 89.617188 219.109375 C 84.59375 218.921875 85.246094 211.722656 87.292969 208.703125 C 89.902344 204.503906 94.6875 205.527344 94.640625 210.660156 Z M 94.644531 210.664062 " fill-opacity="1" fill-rule="nonzero"/><path fill="#a9a0f0" d="M 89.375 219.953125 C 86.617188 221.253906 83.09375 218.644531 83.800781 215.660156 C 84.113281 216.761719 85.347656 217.261719 86.214844 217.886719 C 87.210938 218.660156 88.21875 219.457031 89.375 219.949219 Z M 89.375 219.953125 " fill-opacity="1" fill-rule="nonzero"/><path fill="#a9a0f0" d="M 98.828125 213.929688 C 98.421875 215.511719 96.785156 216.320312 95.332031 216.5 C 95.894531 215.886719 96.171875 215.023438 96.632812 214.382812 C 97.285156 213.457031 98.066406 212.820312 98.929688 212.175781 C 99.054688 212.746094 99.007812 213.363281 98.828125 213.929688 Z M 98.828125 213.929688 " fill-opacity="1" fill-rule="nonzero"/><path fill="#a9a0f0" d="M 93.183594 221.414062 C 91.726562 222.921875 89.667969 223.890625 87.542969 223.601562 C 86.371094 223.515625 85.226562 223.269531 84.164062 222.746094 C 82.675781 221.945312 81.402344 220.375 81.164062 218.683594 C 81.484375 219.167969 82.066406 219.488281 82.59375 219.765625 C 84.09375 220.40625 85.65625 221.035156 87.296875 221.179688 C 89.273438 221.25 91.230469 221.300781 93.183594 221.410156 Z M 93.183594 221.414062 " fill-opacity="1" fill-rule="nonzero"/><path fill="#a9a0f0" d="M 129.910156 201.039062 C 127.925781 201.265625 125.75 199.417969 126.390625 197.371094 C 126.585938 198.015625 127.222656 198.375 127.757812 198.6875 C 128.722656 199.304688 129.339844 200.097656 129.917969 201.03125 C 129.917969 201.035156 129.917969 201.039062 129.910156 201.039062 Z M 129.910156 201.039062 " fill-opacity="1" fill-rule="nonzero"/><path fill="#a9a0f0" d="M 82.9375 256.285156 C 79.726562 254.71875 78.285156 251.363281 77.042969 248.222656 C 75.796875 245.222656 74.664062 242.175781 73.710938 239.066406 C 73.050781 236.910156 72.511719 234.71875 71.972656 232.527344 C 71.484375 230.414062 70.847656 228.289062 70.773438 226.113281 C 70.792969 224.914062 70.988281 223.566406 71.234375 222.476562 C 72.25 224.460938 73.234375 226.476562 73.757812 228.667969 C 75.105469 232.847656 76.320312 237.066406 77.554688 241.277344 C 78.367188 243.921875 79.308594 246.527344 80.347656 249.09375 C 81.414062 251.40625 82.582031 253.75 82.933594 256.285156 Z M 82.9375 256.285156 " fill-opacity="1" fill-rule="nonzero"/><path fill="#a9a0f0" d="M 94.070312 261.929688 C 88.625 259.300781 85.941406 253.398438 83.875 248.039062 C 83.457031 246.601562 83.097656 245.019531 83.226562 243.542969 C 83.300781 243.722656 83.398438 243.902344 83.476562 244.0625 C 85.746094 247.386719 87.359375 251.082031 89.550781 254.40625 C 91.175781 256.835938 93.238281 259.074219 94.066406 261.933594 Z M 94.070312 261.929688 " fill-opacity="1" fill-rule="nonzero"/><path fill="#a9a0f0" d="M 99.820312 259.382812 C 97.90625 258.394531 96.210938 256.964844 95.074219 255.121094 C 93.988281 253.476562 93.007812 251.523438 92.945312 249.53125 C 93.53125 250.441406 94.46875 251.222656 95.21875 252.007812 C 97.242188 254.101562 99.207031 256.484375 99.820312 259.382812 Z M 99.820312 259.382812 " fill-opacity="1" fill-rule="nonzero"/></svg>