<svg xmlns="http://www.w3.org/2000/svg" xmlns:xlink="http://www.w3.org/1999/xlink" width="400" zoomAndPan="magnify" viewBox="0 0 300 299.999988" height="400" preserveAspectRatio="xMidYMid meet" version="1.0"><defs><clipPath id="eafd9396cc"><path d="M 30.050781 126.871094 L 37.320312 126.871094 L 37.320312 131.277344 L 30.050781 131.277344 Z M 30.050781 126.871094 " clip-rule="nonzero"/></clipPath><clipPath id="6a385dd963"><path d="M 203 196.238281 L 210.332031 196.238281 L 210.332031 200.542969 L 203 200.542969 Z M 203 196.238281 " clip-rule="nonzero"/></clipPath><clipPath id="fcf8e389df"><path d="M 170 195 L 178 195 L 178 200.546875 L 170 200.546875 Z M 170 195 " clip-rule="nonzero"/></clipPath></defs><path fill="currentColor" d="M 122.832031 137.617188 C 121.519531 139.414062 124.542969 143.570312 125.917969 143.621094 C 126.347656 143.636719 126.71875 143.480469 126.71875 143.480469 C 126.71875 143.480469 127.226562 143.265625 127.582031 142.753906 C 128.40625 141.554688 126.617188 136.871094 124.28125 136.898438 C 123.757812 136.90625 123.171875 137.152344 122.832031 137.617188 " fill-opacity="1" fill-rule="nonzero"/><path fill="currentColor" d="M 146.9375 101.34375 C 145.625 103.140625 148.648438 107.296875 150.019531 107.347656 C 150.453125 107.363281 150.824219 107.207031 150.824219 107.207031 C 150.824219 107.207031 151.332031 106.992188 151.6875 106.480469 C 152.511719 105.28125 150.722656 100.597656 148.386719 100.625 C 147.863281 100.632812 147.277344 100.878906 146.9375 101.34375 " fill-opacity="1" fill-rule="nonzero"/><path fill="currentColor" d="M 173.207031 137.496094 C 174.234375 139.46875 179.304688 138.605469 179.957031 137.398438 C 180.160156 137.019531 180.183594 136.617188 180.183594 136.617188 C 180.183594 136.617188 180.21875 136.066406 179.917969 135.519531 C 179.207031 134.246094 174.21875 133.773438 173.207031 135.878906 C 172.980469 136.351562 172.941406 136.984375 173.207031 137.496094 " fill-opacity="1" fill-rule="nonzero"/><path fill="currentColor" d="M 200.589844 116.882812 C 202.605469 117.828125 206.113281 114.070312 205.902344 112.714844 C 205.832031 112.289062 205.609375 111.953125 205.609375 111.953125 C 205.609375 111.953125 205.304688 111.492188 204.734375 111.246094 C 203.398438 110.660156 199.140625 113.308594 199.613281 115.59375 C 199.71875 116.109375 200.070312 116.636719 200.589844 116.882812 " fill-opacity="1" fill-rule="nonzero"/><path fill="currentColor" d="M 201.472656 138.269531 C 200.828125 140.402344 205.0625 143.320312 206.375 142.910156 C 206.785156 142.78125 207.082031 142.507812 207.082031 142.507812 C 207.082031 142.507812 207.492188 142.136719 207.65625 141.539062 C 208.035156 140.128906 204.792969 136.3125 202.601562 137.113281 C 202.105469 137.292969 201.636719 137.71875 201.472656 138.269531 " fill-opacity="1" fill-rule="nonzero"/><path fill="currentColor" d="M 123.179688 113.921875 C 124.207031 115.898438 129.273438 115.035156 129.925781 113.824219 C 130.132812 113.445312 130.15625 113.042969 130.15625 113.042969 C 130.15625 113.042969 130.191406 112.492188 129.886719 111.949219 C 129.179688 110.675781 124.1875 110.203125 123.179688 112.304688 C 122.953125 112.78125 122.914062 113.414062 123.179688 113.921875 " fill-opacity="1" fill-rule="nonzero"/><path fill="currentColor" d="M 220.140625 121.269531 C 219.539062 123.410156 223.824219 126.253906 225.125 125.820312 C 225.535156 125.683594 225.828125 125.40625 225.828125 125.40625 C 225.828125 125.40625 226.230469 125.03125 226.382812 124.425781 C 226.738281 123.011719 223.425781 119.25 221.25 120.089844 C 220.761719 120.28125 220.296875 120.714844 220.140625 121.269531 " fill-opacity="1" fill-rule="nonzero"/><path fill="currentColor" d="M 163.96875 117.597656 C 162.632812 117.167969 161.402344 118.285156 160.871094 118.769531 C 160.601562 119.011719 159.089844 120.382812 159.425781 121.910156 C 159.464844 122.101562 159.609375 122.621094 160.0625 123.027344 C 160.785156 123.675781 161.777344 123.5625 162.09375 123.527344 C 163.886719 123.328125 165.929688 121.488281 165.636719 119.632812 C 165.503906 118.785156 164.875 117.886719 163.96875 117.597656 " fill-opacity="1" fill-rule="nonzero"/><path fill="currentColor" d="M 216.175781 155.007812 C 217.085938 156.074219 218.722656 155.773438 219.425781 155.640625 C 219.785156 155.574219 221.792969 155.203125 222.3125 153.730469 C 222.375 153.542969 222.527344 153.027344 222.355469 152.441406 C 222.082031 151.511719 221.179688 151.085938 220.894531 150.949219 C 219.261719 150.175781 216.558594 150.667969 215.828125 152.398438 C 215.496094 153.191406 215.554688 154.28125 216.175781 155.007812 " fill-opacity="1" fill-rule="nonzero"/><path fill="currentColor" d="M 181.238281 116.089844 C 181.082031 117.484375 182.417969 118.476562 182.992188 118.902344 C 183.285156 119.117188 184.925781 120.332031 186.355469 119.710938 C 186.535156 119.632812 187.019531 119.390625 187.328125 118.863281 C 187.824219 118.027344 187.519531 117.082031 187.425781 116.777344 C 186.878906 115.054688 184.675781 113.414062 182.914062 114.058594 C 182.105469 114.355469 181.347656 115.144531 181.238281 116.089844 " fill-opacity="1" fill-rule="nonzero"/><path fill="currentColor" d="M 236.378906 140.175781 C 237.230469 141.289062 238.882812 141.078125 239.589844 140.984375 C 239.949219 140.9375 241.976562 140.675781 242.574219 139.234375 C 242.648438 139.050781 242.832031 138.542969 242.6875 137.949219 C 242.464844 137.007812 241.589844 136.53125 241.308594 136.378906 C 239.722656 135.519531 236.996094 135.863281 236.175781 137.550781 C 235.800781 138.324219 235.800781 139.417969 236.378906 140.175781 " fill-opacity="1" fill-rule="nonzero"/><path fill="currentColor" d="M 133.90625 172.992188 C 134.933594 174.964844 140.003906 174.101562 140.65625 172.894531 C 140.859375 172.511719 140.886719 172.113281 140.886719 172.113281 C 140.886719 172.113281 140.917969 171.558594 140.617188 171.015625 C 139.90625 169.742188 134.917969 169.269531 133.90625 171.375 C 133.679688 171.847656 133.640625 172.480469 133.90625 172.992188 " fill-opacity="1" fill-rule="nonzero"/><path fill="currentColor" d="M 161.292969 152.375 C 163.304688 153.324219 166.8125 149.566406 166.601562 148.210938 C 166.53125 147.785156 166.308594 147.449219 166.308594 147.449219 C 166.308594 147.449219 166.003906 146.988281 165.433594 146.742188 C 164.097656 146.15625 159.839844 148.804688 160.3125 151.089844 C 160.417969 151.605469 160.769531 152.132812 161.292969 152.375 " fill-opacity="1" fill-rule="nonzero"/><path fill="currentColor" d="M 162.171875 173.765625 C 161.527344 175.894531 165.761719 178.8125 167.074219 178.402344 C 167.484375 178.273438 167.78125 178.003906 167.78125 178.003906 C 167.78125 178.003906 168.191406 177.632812 168.355469 177.03125 C 168.734375 175.625 165.492188 171.804688 163.300781 172.609375 C 162.804688 172.789062 162.335938 173.214844 162.171875 173.765625 " fill-opacity="1" fill-rule="nonzero"/><path fill="currentColor" d="M 200.101562 190.960938 C 199.460938 193.089844 203.695312 196.007812 205.003906 195.597656 C 205.417969 195.46875 205.714844 195.199219 205.714844 195.199219 C 205.714844 195.199219 206.125 194.828125 206.289062 194.226562 C 206.667969 192.820312 203.421875 189 201.230469 189.804688 C 200.738281 189.984375 200.269531 190.410156 200.101562 190.960938 " fill-opacity="1" fill-rule="nonzero"/><path fill="currentColor" d="M 180.839844 156.765625 C 180.238281 158.90625 184.523438 161.75 185.824219 161.316406 C 186.234375 161.179688 186.527344 160.902344 186.527344 160.902344 C 186.527344 160.902344 186.929688 160.523438 187.082031 159.921875 C 187.4375 158.507812 184.128906 154.746094 181.949219 155.585938 C 181.460938 155.777344 180.996094 156.210938 180.839844 156.765625 " fill-opacity="1" fill-rule="nonzero"/><path fill="currentColor" d="M 176.875 190.503906 C 177.785156 191.570312 179.421875 191.265625 180.125 191.136719 C 180.484375 191.070312 182.492188 190.699219 183.011719 189.226562 C 183.074219 189.039062 183.226562 188.523438 183.054688 187.9375 C 182.78125 187.007812 181.878906 186.582031 181.59375 186.445312 C 179.960938 185.671875 177.257812 186.164062 176.527344 187.894531 C 176.195312 188.683594 176.253906 189.777344 176.875 190.503906 " fill-opacity="1" fill-rule="nonzero"/><path fill="currentColor" d="M 141.9375 151.585938 C 141.78125 152.980469 143.117188 153.972656 143.691406 154.398438 C 143.984375 154.613281 145.625 155.828125 147.054688 155.207031 C 147.238281 155.125 147.71875 154.886719 148.027344 154.359375 C 148.523438 153.523438 148.21875 152.574219 148.125 152.273438 C 147.578125 150.550781 145.375 148.90625 143.613281 149.554688 C 142.804688 149.851562 142.046875 150.640625 141.9375 151.585938 " fill-opacity="1" fill-rule="nonzero"/><path fill="currentColor" d="M 197.078125 175.671875 C 197.929688 176.785156 199.582031 176.570312 200.289062 176.480469 C 200.648438 176.433594 202.675781 176.171875 203.273438 174.730469 C 203.347656 174.546875 203.53125 174.039062 203.386719 173.445312 C 203.164062 172.5 202.289062 172.027344 202.007812 171.875 C 200.421875 171.015625 197.695312 171.359375 196.875 173.046875 C 196.496094 173.820312 196.5 174.914062 197.078125 175.671875 " fill-opacity="1" fill-rule="nonzero"/><path fill="currentColor" d="M 120.707031 171.359375 C 121.738281 173.335938 126.804688 172.472656 127.457031 171.261719 C 127.660156 170.882812 127.6875 170.480469 127.6875 170.480469 C 127.6875 170.480469 127.722656 169.929688 127.417969 169.386719 C 126.710938 168.113281 121.71875 167.640625 120.710938 169.746094 C 120.484375 170.21875 120.441406 170.851562 120.707031 171.359375 " fill-opacity="1" fill-rule="nonzero"/><path fill="currentColor" d="M 103.636719 119.183594 C 105.648438 120.128906 109.15625 116.371094 108.945312 115.015625 C 108.878906 114.589844 108.652344 114.253906 108.652344 114.253906 C 108.652344 114.253906 108.347656 113.792969 107.777344 113.546875 C 106.441406 112.960938 102.183594 115.609375 102.65625 117.894531 C 102.761719 118.410156 103.117188 118.9375 103.636719 119.183594 " fill-opacity="1" fill-rule="nonzero"/><path fill="currentColor" d="M 137.265625 187.671875 C 139.277344 188.617188 142.785156 184.859375 142.574219 183.503906 C 142.507812 183.078125 142.28125 182.742188 142.28125 182.742188 C 142.28125 182.742188 141.976562 182.285156 141.40625 182.035156 C 140.070312 181.453125 135.8125 184.097656 136.285156 186.382812 C 136.390625 186.898438 136.742188 187.425781 137.265625 187.671875 " fill-opacity="1" fill-rule="nonzero"/><path fill="currentColor" d="M 104.515625 140.570312 C 103.875 142.699219 108.105469 145.621094 109.417969 145.207031 C 109.828125 145.078125 110.125 144.808594 110.125 144.808594 C 110.125 144.808594 110.535156 144.4375 110.699219 143.835938 C 111.078125 142.429688 107.835938 138.609375 105.644531 139.414062 C 105.152344 139.59375 104.679688 140.019531 104.515625 140.570312 " fill-opacity="1" fill-rule="nonzero"/><path fill="currentColor" d="M 123.1875 123.570312 C 122.582031 125.710938 126.867188 128.554688 128.167969 128.121094 C 128.578125 127.984375 128.871094 127.707031 128.871094 127.707031 C 128.871094 127.707031 129.277344 127.328125 129.425781 126.726562 C 129.78125 125.3125 126.472656 121.550781 124.292969 122.390625 C 123.804688 122.582031 123.34375 123.015625 123.1875 123.570312 " fill-opacity="1" fill-rule="nonzero"/><path fill="currentColor" d="M 119.21875 157.308594 C 120.132812 158.375 121.769531 158.074219 122.472656 157.941406 C 122.828125 157.875 124.835938 157.503906 125.355469 156.03125 C 125.421875 155.84375 125.574219 155.328125 125.398438 154.742188 C 125.125 153.8125 124.222656 153.386719 123.9375 153.25 C 122.304688 152.476562 119.601562 152.96875 118.871094 154.699219 C 118.539062 155.488281 118.601562 156.585938 119.21875 157.308594 " fill-opacity="1" fill-rule="nonzero"/><path fill="currentColor" d="M 84.28125 118.390625 C 84.125 119.785156 85.460938 120.777344 86.035156 121.203125 C 86.328125 121.417969 87.96875 122.632812 89.402344 122.011719 C 89.582031 121.929688 90.0625 121.691406 90.375 121.164062 C 90.867188 120.328125 90.566406 119.378906 90.46875 119.078125 C 89.921875 117.355469 87.71875 115.710938 85.957031 116.359375 C 85.152344 116.65625 84.394531 117.445312 84.28125 118.390625 " fill-opacity="1" fill-rule="nonzero"/><path fill="currentColor" d="M 139.28125 138.425781 C 140.136719 139.542969 141.785156 139.328125 142.496094 139.238281 C 142.855469 139.191406 144.878906 138.925781 145.480469 137.484375 C 145.554688 137.300781 145.734375 136.792969 145.59375 136.203125 C 145.367188 135.257812 144.492188 134.78125 144.214844 134.632812 C 142.625 133.769531 139.898438 134.113281 139.078125 135.804688 C 138.703125 136.574219 138.703125 137.671875 139.28125 138.425781 " fill-opacity="1" fill-rule="nonzero"/><g clip-path="url(#eafd9396cc)"><path fill="currentColor" d="M 30.234375 130.03125 C 31.261719 132.003906 36.328125 131.140625 36.984375 129.933594 C 37.1875 129.554688 37.210938 129.152344 37.210938 129.152344 C 37.210938 129.152344 37.246094 128.601562 36.941406 128.054688 C 36.234375 126.785156 31.246094 126.308594 30.234375 128.414062 C 30.007812 128.886719 29.96875 129.519531 30.234375 130.03125 " fill-opacity="1" fill-rule="nonzero"/></g><path fill="currentColor" d="M 70.605469 132.636719 C 72.617188 133.582031 76.125 129.824219 75.910156 128.46875 C 75.84375 128.042969 75.621094 127.707031 75.621094 127.707031 C 75.621094 127.707031 75.3125 127.25 74.746094 127 C 73.410156 126.417969 69.152344 129.0625 69.625 131.347656 C 69.730469 131.863281 70.082031 132.390625 70.605469 132.636719 " fill-opacity="1" fill-rule="nonzero"/><path fill="currentColor" d="M 71.480469 154.023438 C 70.839844 156.15625 75.074219 159.074219 76.386719 158.664062 C 76.796875 158.535156 77.09375 158.261719 77.09375 158.261719 C 77.09375 158.261719 77.503906 157.890625 77.667969 157.292969 C 78.046875 155.882812 74.804688 152.0625 72.613281 152.867188 C 72.117188 153.046875 71.648438 153.472656 71.480469 154.023438 " fill-opacity="1" fill-rule="nonzero"/><path fill="currentColor" d="M 90.15625 137.023438 C 89.550781 139.164062 93.835938 142.007812 95.136719 141.574219 C 95.546875 141.4375 95.839844 141.164062 95.839844 141.164062 C 95.839844 141.164062 96.242188 140.785156 96.394531 140.179688 C 96.75 138.765625 93.441406 135.003906 91.261719 135.84375 C 90.773438 136.035156 90.308594 136.46875 90.15625 137.023438 " fill-opacity="1" fill-rule="nonzero"/><path fill="currentColor" d="M 145.804688 196.050781 C 146.71875 197.117188 148.351562 196.8125 149.054688 196.683594 C 149.414062 196.617188 151.421875 196.246094 151.941406 194.773438 C 152.007812 194.585938 152.160156 194.070312 151.984375 193.484375 C 151.710938 192.554688 150.808594 192.128906 150.523438 191.992188 C 148.890625 191.21875 146.1875 191.710938 145.457031 193.441406 C 145.125 194.230469 145.1875 195.324219 145.804688 196.050781 " fill-opacity="1" fill-rule="nonzero"/><path fill="currentColor" d="M 53 117.480469 C 52.84375 118.875 54.179688 119.863281 54.753906 120.292969 C 55.046875 120.507812 56.6875 121.722656 58.117188 121.097656 C 58.296875 121.019531 58.78125 120.78125 59.089844 120.253906 C 59.582031 119.417969 59.28125 118.46875 59.183594 118.167969 C 58.636719 116.445312 56.4375 114.800781 54.671875 115.449219 C 53.867188 115.742188 53.109375 116.53125 53 117.480469 " fill-opacity="1" fill-rule="nonzero"/><path fill="currentColor" d="M 106.390625 155.929688 C 107.242188 157.042969 108.894531 156.832031 109.601562 156.738281 C 109.960938 156.691406 111.988281 156.429688 112.585938 154.988281 C 112.660156 154.804688 112.84375 154.296875 112.699219 153.703125 C 112.476562 152.761719 111.601562 152.285156 111.320312 152.132812 C 109.734375 151.273438 107.007812 151.617188 106.1875 153.304688 C 105.808594 154.078125 105.8125 155.171875 106.390625 155.929688 " fill-opacity="1" fill-rule="nonzero"/><path fill="currentColor" d="M 150.570312 144.816406 C 149.261719 146.613281 152.28125 150.769531 153.65625 150.820312 C 154.085938 150.835938 154.457031 150.679688 154.457031 150.679688 C 154.457031 150.679688 154.96875 150.464844 155.320312 149.953125 C 156.144531 148.753906 154.355469 144.070312 152.023438 144.097656 C 151.496094 144.105469 150.910156 144.351562 150.570312 144.816406 " fill-opacity="1" fill-rule="nonzero"/><path fill="currentColor" d="M 174.675781 108.542969 C 173.363281 110.339844 176.386719 114.496094 177.761719 114.546875 C 178.191406 114.5625 178.5625 114.40625 178.5625 114.40625 C 178.5625 114.40625 179.074219 114.191406 179.425781 113.679688 C 180.25 112.476562 178.460938 107.796875 176.128906 107.824219 C 175.601562 107.832031 175.015625 108.078125 174.675781 108.542969 " fill-opacity="1" fill-rule="nonzero"/><path fill="currentColor" d="M 150.917969 121.121094 C 151.945312 123.097656 157.011719 122.234375 157.664062 121.023438 C 157.871094 120.644531 157.894531 120.242188 157.894531 120.242188 C 157.894531 120.242188 157.929688 119.691406 157.625 119.148438 C 156.917969 117.875 151.929688 117.402344 150.917969 119.503906 C 150.691406 119.980469 150.652344 120.613281 150.917969 121.121094 " fill-opacity="1" fill-rule="nonzero"/><path fill="currentColor" d="M 191.707031 124.792969 C 190.371094 124.367188 189.140625 125.484375 188.609375 125.96875 C 188.339844 126.210938 186.828125 127.582031 187.164062 129.109375 C 187.207031 129.300781 187.347656 129.820312 187.800781 130.226562 C 188.527344 130.875 189.515625 130.761719 189.832031 130.726562 C 191.625 130.527344 193.667969 128.6875 193.375 126.832031 C 193.242188 125.984375 192.617188 125.085938 191.707031 124.792969 " fill-opacity="1" fill-rule="nonzero"/><path fill="currentColor" d="M 161.644531 180.191406 C 162.671875 182.164062 167.742188 181.300781 168.394531 180.09375 C 168.597656 179.710938 168.625 179.3125 168.625 179.3125 C 168.625 179.3125 168.65625 178.757812 168.355469 178.214844 C 167.644531 176.941406 162.65625 176.46875 161.648438 178.574219 C 161.417969 179.046875 161.378906 179.679688 161.644531 180.191406 " fill-opacity="1" fill-rule="nonzero"/><path fill="currentColor" d="M 169.679688 158.785156 C 169.519531 160.179688 170.855469 161.171875 171.429688 161.597656 C 171.722656 161.8125 173.363281 163.027344 174.796875 162.402344 C 174.976562 162.324219 175.457031 162.085938 175.769531 161.558594 C 176.261719 160.722656 175.960938 159.773438 175.863281 159.472656 C 175.316406 157.75 173.113281 156.105469 171.351562 156.753906 C 170.546875 157.050781 169.785156 157.839844 169.679688 158.785156 " fill-opacity="1" fill-rule="nonzero"/><path fill="currentColor" d="M 148.449219 178.558594 C 149.476562 180.535156 154.542969 179.671875 155.195312 178.460938 C 155.402344 178.082031 155.425781 177.679688 155.425781 177.679688 C 155.425781 177.679688 155.460938 177.128906 155.15625 176.585938 C 154.449219 175.3125 149.457031 174.839844 148.449219 176.941406 C 148.222656 177.417969 148.183594 178.050781 148.449219 178.558594 " fill-opacity="1" fill-rule="nonzero"/><path fill="currentColor" d="M 145.671875 126.976562 C 147.683594 127.925781 151.191406 124.167969 150.980469 122.808594 C 150.914062 122.382812 150.691406 122.050781 150.691406 122.050781 C 150.691406 122.046875 150.382812 121.589844 149.8125 121.339844 C 148.476562 120.757812 144.21875 123.402344 144.691406 125.6875 C 144.796875 126.203125 145.148438 126.730469 145.671875 126.976562 " fill-opacity="1" fill-rule="nonzero"/><path fill="currentColor" d="M 126.070312 144.5 C 125.429688 146.632812 129.660156 149.550781 130.972656 149.140625 C 131.382812 149.011719 131.679688 148.742188 131.679688 148.742188 C 131.679688 148.742188 132.089844 148.371094 132.253906 147.769531 C 132.632812 146.363281 129.390625 142.542969 127.199219 143.34375 C 126.707031 143.523438 126.234375 143.949219 126.070312 144.5 " fill-opacity="1" fill-rule="nonzero"/><path fill="currentColor" d="M 150.925781 130.769531 C 150.320312 132.910156 154.605469 135.753906 155.910156 135.320312 C 156.316406 135.183594 156.609375 134.90625 156.609375 134.90625 C 156.609375 134.90625 157.015625 134.527344 157.167969 133.925781 C 157.523438 132.511719 154.210938 128.75 152.035156 129.589844 C 151.542969 129.78125 151.082031 130.214844 150.925781 130.769531 " fill-opacity="1" fill-rule="nonzero"/><path fill="currentColor" d="M 146.960938 164.507812 C 147.871094 165.574219 149.507812 165.269531 150.210938 165.140625 C 150.566406 165.074219 152.574219 164.703125 153.09375 163.230469 C 153.160156 163.042969 153.3125 162.527344 153.140625 161.941406 C 152.863281 161.011719 151.964844 160.585938 151.675781 160.449219 C 150.042969 159.675781 147.339844 160.167969 146.613281 161.898438 C 146.28125 162.6875 146.339844 163.78125 146.960938 164.507812 " fill-opacity="1" fill-rule="nonzero"/><path fill="currentColor" d="M 167.160156 149.675781 C 168.015625 150.789062 169.664062 150.578125 170.375 150.484375 C 170.734375 150.4375 172.757812 150.175781 173.359375 148.734375 C 173.433594 148.550781 173.613281 148.042969 173.472656 147.449219 C 173.246094 146.503906 172.371094 146.03125 172.09375 145.878906 C 170.503906 145.019531 167.777344 145.363281 166.957031 147.050781 C 166.582031 147.824219 166.582031 148.917969 167.160156 149.675781 " fill-opacity="1" fill-rule="nonzero"/><path fill="currentColor" d="M 134.128906 163.128906 C 134.980469 164.242188 136.632812 164.03125 137.34375 163.9375 C 137.699219 163.890625 139.726562 163.628906 140.324219 162.1875 C 140.398438 162.003906 140.582031 161.496094 140.441406 160.902344 C 140.214844 159.960938 139.339844 159.484375 139.0625 159.332031 C 137.472656 158.472656 134.746094 158.816406 133.925781 160.503906 C 133.550781 161.277344 133.550781 162.371094 134.128906 163.128906 " fill-opacity="1" fill-rule="nonzero"/><path fill="currentColor" d="M 192.234375 164 C 190.921875 165.796875 193.945312 169.953125 195.316406 170.003906 C 195.746094 170.019531 196.117188 169.863281 196.117188 169.863281 C 196.117188 169.863281 196.628906 169.648438 196.980469 169.136719 C 197.808594 167.933594 196.015625 163.253906 193.683594 163.28125 C 193.15625 163.289062 192.574219 163.535156 192.234375 164 " fill-opacity="1" fill-rule="nonzero"/><path fill="currentColor" d="M 216.339844 127.726562 C 215.027344 129.523438 218.050781 133.679688 219.421875 133.730469 C 219.851562 133.746094 220.222656 133.589844 220.222656 133.589844 C 220.222656 133.589844 220.734375 133.375 221.085938 132.863281 C 221.914062 131.660156 220.121094 126.980469 217.789062 127.007812 C 217.261719 127.015625 216.679688 127.261719 216.339844 127.726562 " fill-opacity="1" fill-rule="nonzero"/><path fill="currentColor" d="M 192.578125 140.304688 C 193.605469 142.28125 198.675781 141.417969 199.328125 140.207031 C 199.53125 139.828125 199.558594 139.425781 199.558594 139.425781 C 199.558594 139.425781 199.59375 138.875 199.289062 138.332031 C 198.578125 137.058594 193.589844 136.585938 192.578125 138.6875 C 192.351562 139.164062 192.3125 139.796875 192.578125 140.304688 " fill-opacity="1" fill-rule="nonzero"/><path fill="currentColor" d="M 233.371094 143.980469 C 232.03125 143.550781 230.800781 144.667969 230.273438 145.152344 C 230.003906 145.394531 228.492188 146.765625 228.824219 148.292969 C 228.867188 148.484375 229.007812 149.003906 229.464844 149.410156 C 230.1875 150.058594 231.175781 149.945312 231.492188 149.910156 C 233.289062 149.710938 235.328125 147.871094 235.039062 146.015625 C 234.90625 145.167969 234.277344 144.269531 233.371094 143.980469 " fill-opacity="1" fill-rule="nonzero"/><g clip-path="url(#6a385dd963)"><path fill="currentColor" d="M 203.308594 199.375 C 204.335938 201.347656 209.402344 200.484375 210.054688 199.277344 C 210.261719 198.894531 210.285156 198.496094 210.285156 198.496094 C 210.285156 198.496094 210.320312 197.941406 210.015625 197.398438 C 209.308594 196.125 204.320312 195.652344 203.308594 197.757812 C 203.082031 198.230469 203.042969 198.863281 203.308594 199.375 " fill-opacity="1" fill-rule="nonzero"/></g><path fill="currentColor" d="M 211.339844 177.96875 C 211.179688 179.363281 212.519531 180.355469 213.09375 180.78125 C 213.382812 180.996094 215.023438 182.210938 216.457031 181.585938 C 216.636719 181.507812 217.121094 181.269531 217.429688 180.742188 C 217.921875 179.90625 217.621094 178.957031 217.523438 178.65625 C 216.976562 176.933594 214.777344 175.289062 213.011719 175.9375 C 212.207031 176.234375 211.449219 177.023438 211.339844 177.96875 " fill-opacity="1" fill-rule="nonzero"/><path fill="currentColor" d="M 190.109375 197.742188 C 191.136719 199.71875 196.207031 198.855469 196.859375 197.644531 C 197.0625 197.265625 197.089844 196.863281 197.089844 196.863281 C 197.089844 196.863281 197.121094 196.3125 196.820312 195.769531 C 196.109375 194.496094 191.121094 194.023438 190.109375 196.125 C 189.882812 196.601562 189.84375 197.234375 190.109375 197.742188 " fill-opacity="1" fill-rule="nonzero"/><path fill="currentColor" d="M 173.035156 145.5625 C 175.050781 146.511719 178.558594 142.753906 178.34375 141.398438 C 178.277344 140.972656 178.054688 140.636719 178.054688 140.636719 C 178.054688 140.636719 177.75 140.175781 177.179688 139.929688 C 175.84375 139.34375 171.585938 141.992188 172.058594 144.277344 C 172.164062 144.792969 172.515625 145.320312 173.035156 145.5625 " fill-opacity="1" fill-rule="nonzero"/><path fill="currentColor" d="M 173.914062 166.953125 C 173.273438 169.082031 177.507812 172.003906 178.816406 171.589844 C 179.230469 171.460938 179.527344 171.191406 179.527344 171.191406 C 179.527344 171.191406 179.9375 170.820312 180.101562 170.21875 C 180.480469 168.8125 177.234375 164.992188 175.042969 165.796875 C 174.550781 165.976562 174.082031 166.402344 173.914062 166.953125 " fill-opacity="1" fill-rule="nonzero"/><path fill="currentColor" d="M 192.585938 149.953125 C 191.984375 152.09375 196.269531 154.9375 197.570312 154.503906 C 197.980469 154.367188 198.273438 154.089844 198.273438 154.089844 C 198.273438 154.089844 198.675781 153.710938 198.828125 153.109375 C 199.183594 151.695312 195.871094 147.933594 193.695312 148.773438 C 193.207031 148.964844 192.742188 149.398438 192.585938 149.953125 " fill-opacity="1" fill-rule="nonzero"/><path fill="currentColor" d="M 188.621094 183.691406 C 189.53125 184.757812 191.167969 184.453125 191.871094 184.324219 C 192.230469 184.257812 194.238281 183.886719 194.757812 182.414062 C 194.820312 182.226562 194.972656 181.710938 194.800781 181.125 C 194.523438 180.195312 193.625 179.769531 193.339844 179.632812 C 191.707031 178.859375 189.003906 179.351562 188.273438 181.082031 C 187.941406 181.871094 188 182.964844 188.621094 183.691406 " fill-opacity="1" fill-rule="nonzero"/><path fill="currentColor" d="M 208.824219 168.859375 C 209.675781 169.972656 211.324219 169.757812 212.035156 169.667969 C 212.394531 169.621094 214.421875 169.359375 215.019531 167.914062 C 215.09375 167.734375 215.273438 167.226562 215.132812 166.632812 C 214.910156 165.6875 214.035156 165.214844 213.753906 165.0625 C 212.167969 164.203125 209.441406 164.546875 208.617188 166.234375 C 208.242188 167.007812 208.246094 168.101562 208.824219 168.859375 " fill-opacity="1" fill-rule="nonzero"/><path fill="currentColor" d="M 175.792969 182.3125 C 176.644531 183.425781 178.292969 183.214844 179.003906 183.121094 C 179.363281 183.074219 181.386719 182.8125 181.988281 181.371094 C 182.0625 181.1875 182.242188 180.679688 182.101562 180.085938 C 181.878906 179.144531 181 178.667969 180.722656 178.515625 C 179.132812 177.65625 176.40625 178 175.585938 179.6875 C 175.210938 180.460938 175.210938 181.554688 175.792969 182.3125 " fill-opacity="1" fill-rule="nonzero"/><path fill="currentColor" d="M 80.128906 145.183594 C 78.816406 146.980469 81.839844 151.136719 83.210938 151.1875 C 83.640625 151.199219 84.011719 151.046875 84.011719 151.046875 C 84.011719 151.046875 84.523438 150.832031 84.875 150.320312 C 85.699219 149.117188 83.910156 144.4375 81.578125 144.464844 C 81.050781 144.472656 80.46875 144.71875 80.128906 145.183594 " fill-opacity="1" fill-rule="nonzero"/><path fill="currentColor" d="M 106.769531 125.6875 C 105.457031 127.484375 108.480469 131.644531 109.851562 131.691406 C 110.28125 131.707031 110.652344 131.550781 110.652344 131.550781 C 110.652344 131.550781 111.164062 131.335938 111.515625 130.824219 C 112.34375 129.625 110.550781 124.941406 108.21875 124.972656 C 107.691406 124.976562 107.109375 125.222656 106.769531 125.6875 " fill-opacity="1" fill-rule="nonzero"/><path fill="currentColor" d="M 80.472656 121.488281 C 81.5 123.460938 86.566406 122.597656 87.21875 121.390625 C 87.425781 121.011719 87.449219 120.609375 87.449219 120.609375 C 87.449219 120.609375 87.484375 120.058594 87.183594 119.515625 C 86.472656 118.242188 81.480469 117.769531 80.472656 119.871094 C 80.246094 120.34375 80.207031 120.976562 80.472656 121.488281 " fill-opacity="1" fill-rule="nonzero"/><path fill="currentColor" d="M 121.261719 125.160156 C 119.925781 124.734375 118.695312 125.851562 118.164062 126.332031 C 117.894531 126.578125 116.382812 127.949219 116.71875 129.476562 C 116.757812 129.667969 116.902344 130.1875 117.355469 130.59375 C 118.082031 131.242188 119.070312 131.128906 119.386719 131.09375 C 121.179688 130.894531 123.222656 129.050781 122.929688 127.195312 C 122.796875 126.351562 122.171875 125.453125 121.261719 125.160156 " fill-opacity="1" fill-rule="nonzero"/><path fill="currentColor" d="M 152.457031 187.804688 C 153.484375 189.777344 158.554688 188.914062 159.207031 187.703125 C 159.410156 187.324219 159.4375 186.925781 159.4375 186.925781 C 159.4375 186.921875 159.472656 186.371094 159.167969 185.828125 C 158.457031 184.554688 153.46875 184.082031 152.457031 186.1875 C 152.230469 186.660156 152.191406 187.292969 152.457031 187.804688 " fill-opacity="1" fill-rule="nonzero"/><path fill="currentColor" d="M 99.230469 159.152344 C 99.074219 160.546875 100.410156 161.535156 100.984375 161.960938 C 101.277344 162.179688 102.917969 163.394531 104.351562 162.769531 C 104.53125 162.691406 105.011719 162.449219 105.324219 161.925781 C 105.816406 161.089844 105.515625 160.140625 105.417969 159.835938 C 104.871094 158.117188 102.667969 156.472656 100.90625 157.121094 C 100.101562 157.414062 99.34375 158.203125 99.230469 159.152344 " fill-opacity="1" fill-rule="nonzero"/><path fill="currentColor" d="M 131.019531 192.769531 C 132.046875 194.742188 137.113281 193.878906 137.765625 192.667969 C 137.972656 192.289062 137.996094 191.890625 137.996094 191.890625 C 137.996094 191.890625 138.03125 191.335938 137.726562 190.792969 C 137.019531 189.519531 132.027344 189.046875 131.019531 191.152344 C 130.792969 191.625 130.753906 192.257812 131.019531 192.769531 " fill-opacity="1" fill-rule="nonzero"/><path fill="currentColor" d="M 60.929688 126.746094 C 62.945312 127.695312 66.453125 123.9375 66.238281 122.578125 C 66.171875 122.15625 65.949219 121.820312 65.949219 121.820312 C 65.949219 121.820312 65.640625 121.359375 65.070312 121.109375 C 63.734375 120.527344 59.480469 123.175781 59.949219 125.460938 C 60.054688 125.976562 60.410156 126.503906 60.929688 126.746094 " fill-opacity="1" fill-rule="nonzero"/><path fill="currentColor" d="M 61.808594 148.136719 C 61.167969 150.265625 65.402344 153.183594 66.710938 152.773438 C 67.121094 152.644531 67.421875 152.375 67.421875 152.375 C 67.421875 152.375 67.832031 152.003906 67.992188 151.402344 C 68.371094 149.996094 65.128906 146.175781 62.9375 146.976562 C 62.445312 147.160156 61.972656 147.585938 61.808594 148.136719 " fill-opacity="1" fill-rule="nonzero"/><path fill="currentColor" d="M 80.480469 131.132812 C 79.875 133.277344 84.160156 136.117188 85.464844 135.683594 C 85.875 135.546875 86.167969 135.273438 86.167969 135.273438 C 86.167969 135.273438 86.570312 134.894531 86.722656 134.292969 C 87.078125 132.878906 83.765625 129.117188 81.589844 129.957031 C 81.097656 130.144531 80.636719 130.582031 80.480469 131.132812 " fill-opacity="1" fill-rule="nonzero"/><path fill="currentColor" d="M 129.527344 178.714844 C 130.441406 179.78125 132.078125 179.480469 132.78125 179.347656 C 133.136719 179.28125 135.144531 178.910156 135.664062 177.4375 C 135.730469 177.25 135.882812 176.734375 135.710938 176.148438 C 135.433594 175.21875 134.535156 174.792969 134.246094 174.65625 C 132.613281 173.882812 129.910156 174.375 129.179688 176.105469 C 128.847656 176.898438 128.910156 177.992188 129.527344 178.714844 " fill-opacity="1" fill-rule="nonzero"/><path fill="currentColor" d="M 96.71875 150.042969 C 97.570312 151.15625 99.21875 150.941406 99.929688 150.851562 C 100.289062 150.804688 102.3125 150.542969 102.914062 149.097656 C 102.988281 148.917969 103.167969 148.410156 103.027344 147.816406 C 102.800781 146.871094 101.925781 146.398438 101.648438 146.246094 C 100.058594 145.382812 97.335938 145.726562 96.511719 147.417969 C 96.136719 148.1875 96.136719 149.285156 96.71875 150.042969 " fill-opacity="1" fill-rule="nonzero"/><g clip-path="url(#fcf8e389df)"><path fill="currentColor" d="M 170.910156 199.261719 C 171.761719 200.378906 173.410156 200.164062 174.121094 200.070312 C 174.480469 200.023438 176.507812 199.761719 177.105469 198.320312 C 177.179688 198.136719 177.359375 197.628906 177.21875 197.035156 C 176.996094 196.09375 176.121094 195.617188 175.839844 195.46875 C 174.253906 194.605469 171.527344 194.949219 170.703125 196.640625 C 170.328125 197.410156 170.332031 198.503906 170.910156 199.261719 " fill-opacity="1" fill-rule="nonzero"/></g><path fill="currentColor" d="M 47.9375 134.371094 C 47.296875 136.5 51.527344 139.417969 52.839844 139.007812 C 53.253906 138.878906 53.550781 138.609375 53.550781 138.609375 C 53.550781 138.609375 53.957031 138.238281 54.121094 137.636719 C 54.503906 136.230469 51.257812 132.410156 49.066406 133.210938 C 48.574219 133.394531 48.101562 133.820312 47.9375 134.371094 " fill-opacity="1" fill-rule="nonzero"/><path fill="currentColor" d="M 56.582031 125.527344 C 55.269531 127.324219 58.292969 131.484375 59.664062 131.53125 C 60.097656 131.546875 60.464844 131.390625 60.464844 131.390625 C 60.464844 131.390625 60.976562 131.175781 61.328125 130.664062 C 62.15625 129.464844 60.363281 124.785156 58.03125 124.8125 C 57.507812 124.820312 56.921875 125.0625 56.582031 125.527344 " fill-opacity="1" fill-rule="nonzero"/><path fill="currentColor" d="M 161.683594 195.039062 C 162.710938 197.015625 167.777344 196.148438 168.433594 194.941406 C 168.636719 194.5625 168.660156 194.160156 168.660156 194.160156 C 168.660156 194.160156 168.695312 193.609375 168.394531 193.066406 C 167.683594 191.792969 162.695312 191.320312 161.683594 193.421875 C 161.457031 193.898438 161.417969 194.53125 161.683594 195.039062 " fill-opacity="1" fill-rule="nonzero"/><path fill="currentColor" d="M 38.265625 128.480469 C 37.621094 130.613281 41.855469 133.53125 43.167969 133.121094 C 43.578125 132.992188 43.875 132.722656 43.875 132.722656 C 43.875 132.722656 44.285156 132.351562 44.449219 131.75 C 44.828125 130.34375 41.585938 126.523438 39.394531 127.324219 C 38.898438 127.503906 38.429688 127.929688 38.265625 128.480469 " fill-opacity="1" fill-rule="nonzero"/><path fill="currentColor" d="M 52.96875 145.21875 C 53.878906 146.285156 55.515625 145.984375 56.222656 145.851562 C 56.578125 145.785156 58.585938 145.414062 59.105469 143.941406 C 59.171875 143.757812 59.320312 143.238281 59.148438 142.65625 C 58.875 141.722656 57.972656 141.296875 57.6875 141.160156 C 56.054688 140.386719 53.351562 140.878906 52.621094 142.609375 C 52.289062 143.402344 52.347656 144.496094 52.96875 145.21875 " fill-opacity="1" fill-rule="nonzero"/><path fill="currentColor" d="M 40.140625 143.839844 C 40.992188 144.957031 42.640625 144.742188 43.351562 144.652344 C 43.710938 144.605469 45.738281 144.339844 46.335938 142.898438 C 46.410156 142.71875 46.589844 142.207031 46.449219 141.617188 C 46.226562 140.671875 45.347656 140.199219 45.070312 140.046875 C 43.484375 139.183594 40.757812 139.527344 39.933594 141.21875 C 39.558594 141.988281 39.558594 143.085938 40.140625 143.839844 " fill-opacity="1" fill-rule="nonzero"/><path fill="currentColor" d="M 131.332031 116.550781 C 130.015625 118.347656 133.039062 122.503906 134.414062 122.550781 C 134.84375 122.566406 135.214844 122.414062 135.214844 122.414062 C 135.214844 122.414062 135.726562 122.199219 136.078125 121.6875 C 136.902344 120.484375 135.113281 115.804688 132.78125 115.832031 C 132.253906 115.839844 131.667969 116.085938 131.332031 116.550781 " fill-opacity="1" fill-rule="nonzero"/><path fill="currentColor" d="M 142.324219 109.183594 C 141.011719 110.980469 144.035156 115.136719 145.40625 115.1875 C 145.839844 115.203125 146.210938 115.046875 146.210938 115.046875 C 146.210938 115.046875 146.71875 114.832031 147.070312 114.320312 C 147.898438 113.117188 146.109375 108.4375 143.773438 108.464844 C 143.25 108.472656 142.664062 108.71875 142.324219 109.183594 " fill-opacity="1" fill-rule="nonzero"/><path fill="currentColor" d="M 114.390625 103.164062 C 115.417969 105.136719 120.488281 104.273438 121.140625 103.066406 C 121.34375 102.6875 121.371094 102.285156 121.371094 102.285156 C 121.371094 102.285156 121.402344 101.734375 121.101562 101.191406 C 120.390625 99.917969 115.402344 99.445312 114.390625 101.546875 C 114.164062 102.019531 114.125 102.65625 114.390625 103.164062 " fill-opacity="1" fill-rule="nonzero"/><path fill="currentColor" d="M 155.183594 106.835938 C 153.84375 106.410156 152.613281 107.527344 152.082031 108.007812 C 151.816406 108.253906 150.304688 109.625 150.636719 111.152344 C 150.679688 111.34375 150.820312 111.863281 151.277344 112.269531 C 152 112.917969 152.988281 112.804688 153.304688 112.769531 C 155.101562 112.570312 157.140625 110.730469 156.851562 108.875 C 156.71875 108.027344 156.089844 107.128906 155.183594 106.835938 " fill-opacity="1" fill-rule="nonzero"/><path fill="currentColor" d="M 125.121094 162.234375 C 126.148438 164.207031 131.214844 163.34375 131.867188 162.132812 C 132.074219 161.753906 132.097656 161.351562 132.097656 161.351562 C 132.097656 161.351562 132.132812 160.800781 131.828125 160.257812 C 131.121094 158.984375 126.128906 158.511719 125.121094 160.617188 C 124.894531 161.089844 124.855469 161.722656 125.121094 162.234375 " fill-opacity="1" fill-rule="nonzero"/><path fill="currentColor" d="M 133.152344 140.828125 C 132.992188 142.222656 134.328125 143.214844 134.90625 143.640625 C 135.195312 143.855469 136.835938 145.070312 138.269531 144.445312 C 138.449219 144.367188 138.933594 144.125 139.242188 143.601562 C 139.734375 142.765625 139.433594 141.816406 139.335938 141.515625 C 138.789062 139.792969 136.589844 138.148438 134.824219 138.796875 C 134.019531 139.089844 133.261719 139.882812 133.152344 140.828125 " fill-opacity="1" fill-rule="nonzero"/><path fill="currentColor" d="M 111.921875 160.601562 C 112.949219 162.574219 118.019531 161.710938 118.671875 160.503906 C 118.875 160.125 118.898438 159.722656 118.898438 159.722656 C 118.898438 159.722656 118.933594 159.171875 118.632812 158.628906 C 117.921875 157.355469 112.933594 156.882812 111.921875 158.984375 C 111.695312 159.460938 111.65625 160.09375 111.921875 160.601562 " fill-opacity="1" fill-rule="nonzero"/><path fill="currentColor" d="M 94.847656 108.421875 C 96.863281 109.371094 100.371094 105.613281 100.15625 104.257812 C 100.089844 103.832031 99.867188 103.496094 99.867188 103.496094 C 99.867188 103.496094 99.5625 103.035156 98.992188 102.785156 C 97.652344 102.203125 93.398438 104.851562 93.871094 107.136719 C 93.976562 107.652344 94.328125 108.179688 94.847656 108.421875 " fill-opacity="1" fill-rule="nonzero"/><path fill="currentColor" d="M 95.726562 129.8125 C 95.085938 131.941406 99.320312 134.859375 100.628906 134.449219 C 101.042969 134.320312 101.339844 134.050781 101.339844 134.050781 C 101.339844 134.050781 101.75 133.679688 101.914062 133.078125 C 102.292969 131.671875 99.046875 127.851562 96.859375 128.652344 C 96.363281 128.835938 95.894531 129.261719 95.726562 129.8125 " fill-opacity="1" fill-rule="nonzero"/><path fill="currentColor" d="M 114.398438 112.808594 C 113.796875 114.953125 118.082031 117.792969 119.382812 117.359375 C 119.792969 117.226562 120.085938 116.949219 120.085938 116.949219 C 120.085938 116.949219 120.488281 116.570312 120.640625 115.96875 C 120.996094 114.554688 117.683594 110.792969 115.507812 111.632812 C 115.019531 111.820312 114.554688 112.257812 114.398438 112.808594 " fill-opacity="1" fill-rule="nonzero"/><path fill="currentColor" d="M 110.433594 146.550781 C 111.34375 147.617188 112.980469 147.3125 113.683594 147.183594 C 114.042969 147.117188 116.050781 146.746094 116.570312 145.273438 C 116.632812 145.085938 116.785156 144.570312 116.613281 143.984375 C 116.335938 143.054688 115.4375 142.628906 115.152344 142.492188 C 113.519531 141.71875 110.8125 142.210938 110.085938 143.941406 C 109.753906 144.730469 109.8125 145.824219 110.433594 146.550781 " fill-opacity="1" fill-rule="nonzero"/><path fill="currentColor" d="M 130.636719 131.71875 C 131.488281 132.832031 133.136719 132.617188 133.847656 132.527344 C 134.207031 132.480469 136.234375 132.21875 136.832031 130.773438 C 136.90625 130.59375 137.085938 130.085938 136.945312 129.492188 C 136.722656 128.546875 135.847656 128.074219 135.566406 127.921875 C 133.980469 127.0625 131.253906 127.40625 130.429688 129.09375 C 130.054688 129.863281 130.058594 130.960938 130.636719 131.71875 " fill-opacity="1" fill-rule="nonzero"/><path fill="currentColor" d="M 97.601562 145.171875 C 98.457031 146.285156 100.105469 146.070312 100.816406 145.980469 C 101.175781 145.933594 103.199219 145.671875 103.800781 144.230469 C 103.875 144.046875 104.054688 143.539062 103.914062 142.945312 C 103.691406 142 102.8125 141.527344 102.535156 141.375 C 100.945312 140.515625 98.21875 140.859375 97.398438 142.546875 C 97.023438 143.316406 97.023438 144.414062 97.601562 145.171875 " fill-opacity="1" fill-rule="nonzero"/><path fill="currentColor" d="M 238.375 156.238281 C 237.0625 158.035156 240.085938 162.195312 241.460938 162.242188 C 241.890625 162.257812 242.261719 162.101562 242.261719 162.101562 C 242.261719 162.101562 242.769531 161.890625 243.125 161.375 C 243.949219 160.175781 242.160156 155.496094 239.824219 155.523438 C 239.300781 155.53125 238.714844 155.773438 238.375 156.238281 " fill-opacity="1" fill-rule="nonzero"/><path fill="currentColor" d="M 263.382812 148.832031 C 263.222656 150.226562 264.558594 151.21875 265.132812 151.644531 C 265.425781 151.859375 267.066406 153.078125 268.5 152.453125 C 268.679688 152.371094 269.160156 152.132812 269.46875 151.605469 C 269.964844 150.769531 269.660156 149.820312 269.566406 149.519531 C 269.019531 147.796875 266.816406 146.152344 265.054688 146.800781 C 264.25 147.097656 263.488281 147.886719 263.382812 148.832031 " fill-opacity="1" fill-rule="nonzero"/><path fill="currentColor" d="M 219.179688 137.804688 C 221.191406 138.75 224.699219 134.996094 224.488281 133.636719 C 224.421875 133.210938 224.199219 132.878906 224.199219 132.878906 C 224.199219 132.878906 223.890625 132.417969 223.320312 132.167969 C 221.984375 131.585938 217.730469 134.230469 218.199219 136.519531 C 218.304688 137.03125 218.660156 137.558594 219.179688 137.804688 " fill-opacity="1" fill-rule="nonzero"/><path fill="currentColor" d="M 220.058594 159.191406 C 219.417969 161.324219 223.648438 164.242188 224.960938 163.832031 C 225.371094 163.703125 225.671875 163.433594 225.671875 163.433594 C 225.671875 163.433594 226.078125 163.0625 226.242188 162.460938 C 226.621094 161.054688 223.378906 157.234375 221.1875 158.035156 C 220.691406 158.214844 220.222656 158.640625 220.058594 159.191406 " fill-opacity="1" fill-rule="nonzero"/><path fill="currentColor" d="M 238.730469 142.191406 C 238.125 144.332031 242.410156 147.175781 243.714844 146.742188 C 244.121094 146.605469 244.414062 146.332031 244.414062 146.332031 C 244.414062 146.332031 244.820312 145.953125 244.96875 145.347656 C 245.328125 143.9375 242.015625 140.171875 239.839844 141.015625 C 239.347656 141.203125 238.886719 141.636719 238.730469 142.191406 " fill-opacity="1" fill-rule="nonzero"/><path fill="currentColor" d="M 234.761719 175.929688 C 235.675781 176.996094 237.3125 176.695312 238.015625 176.5625 C 238.371094 176.5 240.378906 176.125 240.898438 174.652344 C 240.964844 174.46875 241.117188 173.949219 240.941406 173.367188 C 240.667969 172.433594 239.765625 172.007812 239.480469 171.875 C 237.847656 171.101562 235.144531 171.589844 234.417969 173.324219 C 234.082031 174.113281 234.144531 175.207031 234.761719 175.929688 " fill-opacity="1" fill-rule="nonzero"/><path fill="currentColor" d="M 254.964844 161.097656 C 255.816406 162.214844 257.46875 162 258.179688 161.90625 C 258.539062 161.863281 260.5625 161.597656 261.160156 160.15625 C 261.238281 159.972656 261.417969 159.464844 261.277344 158.875 C 261.050781 157.929688 260.175781 157.453125 259.898438 157.304688 C 258.308594 156.441406 255.582031 156.785156 254.761719 158.476562 C 254.386719 159.246094 254.386719 160.339844 254.964844 161.097656 " fill-opacity="1" fill-rule="nonzero"/><path fill="currentColor" d="M 205.699219 155.644531 C 205.09375 157.789062 209.378906 160.628906 210.679688 160.195312 C 211.089844 160.058594 211.382812 159.785156 211.382812 159.785156 C 211.382812 159.785156 211.785156 159.40625 211.9375 158.804688 C 212.292969 157.390625 208.984375 153.628906 206.804688 154.46875 C 206.316406 154.65625 205.851562 155.089844 205.699219 155.644531 " fill-opacity="1" fill-rule="nonzero"/><path fill="currentColor" d="M 221.933594 174.554688 C 222.785156 175.667969 224.4375 175.453125 225.144531 175.363281 C 225.503906 175.316406 227.53125 175.054688 228.128906 173.609375 C 228.203125 173.429688 228.382812 172.921875 228.242188 172.328125 C 228.019531 171.382812 227.144531 170.910156 226.863281 170.757812 C 225.277344 169.894531 222.550781 170.238281 221.726562 171.929688 C 221.355469 172.699219 221.355469 173.796875 221.933594 174.554688 " fill-opacity="1" fill-rule="nonzero"/></svg>