<svg xmlns="http://www.w3.org/2000/svg" xmlns:xlink="http://www.w3.org/1999/xlink" width="400" zoomAndPan="magnify" viewBox="0 0 300 299.999988" height="400" preserveAspectRatio="xMidYMid meet" version="1.0"><path fill="currentColor" d="M 265.351562 148.445312 C 262.910156 152.390625 258.539062 155.058594 253.964844 155.617188 C 249.480469 156.167969 241.8125 154.960938 240.15625 150.597656 C 238.457031 146.125 247.519531 133.285156 258.957031 133.527344 C 260.921875 133.570312 264.695312 135.167969 265.96875 136.902344 C 267.882812 139.507812 266.992188 145.785156 265.351562 148.445312 Z M 236.613281 151.023438 C 240.488281 127.113281 265.210938 125.964844 265.128906 133.132812 C 263.863281 133.203125 262.445312 132.300781 261.160156 132.035156 C 249.933594 129.722656 237.152344 141.203125 237.527344 151.480469 C 237.222656 151.328125 236.910156 151.175781 236.613281 151.023438 Z M 224.757812 144.757812 C 224.953125 139.617188 223.125 119.234375 250.273438 107.898438 C 259.945312 112.988281 261.984375 119.769531 263.875 128.195312 C 249.503906 124.105469 234.886719 136.460938 235.800781 150.601562 C 233 149.132812 228.113281 146.371094 224.757812 144.757812 Z M 219.648438 143.296875 C 217.027344 117.558594 235.53125 103.253906 247.34375 97.960938 C 248.382812 100.339844 249.0625 102.914062 250.382812 105.441406 C 231.964844 110.410156 220.328125 128.996094 221.652344 143.511719 C 220.996094 143.363281 220.324219 143.304688 219.648438 143.296875 Z M 211.105469 144.136719 C 209.847656 144.34375 204.621094 145.007812 203.300781 143.488281 C 203.089844 143.246094 202.980469 142.949219 203 142.582031 C 203 142.511719 217.316406 111.519531 202.910156 81.761719 C 223.808594 77.902344 241.4375 88.121094 245.78125 96.636719 C 225.820312 102.597656 213.984375 123.761719 217.417969 143.070312 C 217.347656 142.667969 211.90625 144.007812 211.105469 144.136719 Z M 194.121094 75.890625 C 194.246094 75.972656 194.371094 76.0625 194.492188 76.152344 C 194.4375 76.652344 201.316406 81.355469 202.980469 88.054688 C 209.808594 115.5 206.800781 128.050781 201.253906 140.703125 C 207.179688 120.871094 204.972656 95.617188 194.121094 75.890625 Z M 198.667969 143.867188 C 191.117188 146.339844 190.597656 148.207031 185.277344 146.882812 C 188.046875 134.851562 183.105469 99.871094 153.640625 72.265625 C 165.449219 79.585938 173.59375 90.632812 179.328125 103.140625 C 189.015625 124.378906 189.230469 143.800781 189.539062 145.410156 C 189.539062 145.226562 190.988281 137.832031 188.425781 124.136719 C 187.300781 118.359375 185.464844 111.070312 181.582031 102.492188 C 175.527344 89.167969 165.421875 76.03125 151.917969 70.726562 C 151.828125 70.65625 151.730469 70.574219 151.65625 70.515625 C 164.921875 68.882812 177.769531 67.335938 190.175781 73.609375 C 201.90625 95.117188 204.246094 121.757812 198.667969 143.867188 Z M 183.171875 146.640625 C 183.023438 148.542969 175.527344 153.085938 171.667969 154.375 C 164.882812 156.640625 166.164062 151.03125 162.636719 141.964844 C 157.042969 127.578125 149.160156 121.136719 144.042969 114.914062 C 125.609375 93.355469 100.609375 87.414062 77.484375 94.972656 C 79.589844 94.167969 80.101562 91.355469 89.515625 85.003906 C 103.175781 75.777344 124.210938 68.34375 140.996094 70.488281 C 160.121094 72.933594 185.78125 113.941406 183.171875 146.640625 Z M 160.371094 162.503906 C 149.347656 172.464844 145.691406 170.542969 144.804688 169.972656 C 142.863281 168.722656 136.933594 138.660156 95.578125 132.183594 C 96.160156 132.371094 127.386719 139.449219 141.386719 167.148438 C 135.789062 158.460938 127.28125 151.308594 118.730469 146.941406 C 110.722656 142.886719 106.328125 142.605469 105.953125 142.492188 C 112.785156 146.644531 119.835938 149.878906 128.570312 157.277344 C 122.042969 153.964844 115.804688 152.363281 108.558594 151.417969 C 91.121094 149.289062 81.839844 154.84375 81.175781 155.039062 C 83.726562 154.722656 90.175781 153.136719 99.84375 153.535156 C 114.992188 154.246094 135.628906 159.8125 143.027344 172.964844 C 142.941406 172.898438 142.890625 172.867188 142.890625 172.867188 C 143.339844 176.339844 143.4375 178.222656 143.261719 179.832031 C 133.652344 168.847656 120.027344 168.585938 119.953125 168.5625 C 125.832031 170.847656 138.175781 174.253906 142.828125 182.859375 C 142.628906 182.488281 123.042969 164.976562 94.035156 180.105469 C 95.167969 179.515625 122.265625 167.28125 141.890625 185.53125 C 141.742188 186.097656 141.578125 186.714844 141.410156 187.410156 C 117.421875 164.550781 79.71875 190.96875 84.988281 214.671875 C 85.996094 219.191406 88.242188 224.605469 91.730469 227.757812 C 89.539062 225.699219 86.863281 223.738281 85.15625 221.292969 C 83.550781 218.996094 82.347656 216.246094 81.492188 213.585938 C 79.675781 207.953125 79.742188 201.980469 81.339844 196.308594 C 83.21875 189.636719 86.703125 185.296875 87.390625 184.101562 C 72.890625 195.0625 74.363281 216.878906 87.433594 227.351562 C 71.722656 222.558594 69.714844 209.566406 68.632812 207.363281 C 68.65625 207.429688 67.675781 215.949219 75.902344 223.167969 C 78.46875 225.402344 80.992188 226.644531 83.082031 227.417969 C 83.089844 227.421875 83.097656 227.425781 83.105469 227.425781 C 82.996094 227.398438 82.878906 227.363281 82.765625 227.335938 C 59.753906 217.675781 60.675781 195.9375 60.292969 195.203125 C 60.324219 195.367188 57.925781 204 64.484375 214.640625 C 55.503906 202.984375 56.625 189.988281 56.410156 189.308594 C 56.429688 189.378906 52.714844 202.960938 63.386719 216.253906 C 56.769531 209.722656 52.421875 200.992188 52.253906 190.785156 C 52.039062 167.722656 70.996094 158.996094 71.40625 158.570312 C 57.996094 162.910156 49.890625 175.847656 49.328125 189.320312 C 48.261719 183.976562 47.96875 180.375 50.9375 173.667969 C 51.730469 171.914062 52.441406 170.609375 53.023438 169.660156 C 53.589844 168.699219 54.019531 168.078125 54.277344 167.675781 C 54.53125 167.277344 54.625 167.105469 54.625 167.105469 C 54.625 167.105469 54.464844 167.207031 54.097656 167.511719 C 53.738281 167.816406 53.152344 168.3125 52.414062 169.179688 C 51.65625 170.03125 50.757812 171.273438 49.792969 173.03125 C 47.578125 177.15625 47.378906 178.800781 47.363281 178.863281 C 46.71875 181.695312 46.257812 188.589844 48.566406 193.65625 C 47.316406 192.164062 46.210938 190.765625 45.234375 189.394531 C 44.988281 187.964844 44.433594 185.644531 44.550781 181.765625 C 44.636719 179.722656 44.960938 178.078125 45.292969 176.765625 C 45.636719 175.453125 45.960938 174.453125 46.238281 173.710938 C 46.507812 172.964844 46.695312 172.457031 46.8125 172.132812 C 46.921875 171.808594 46.953125 171.664062 46.953125 171.664062 C 46.953125 171.664062 46.828125 171.738281 46.570312 171.972656 C 46.3125 172.203125 45.90625 172.585938 45.425781 173.261719 C 44.925781 173.921875 44.363281 174.882812 43.816406 176.234375 C 43.28125 177.585938 42.804688 179.355469 42.703125 181.582031 C 42.632812 183.269531 42.777344 184.679688 43.007812 185.871094 C 41.289062 182.710938 40.257812 179.394531 39.886719 175.097656 C 39.214844 155.550781 62.171875 135.308594 95.441406 139.554688 C 97.34375 139.789062 98.125 139.851562 98.125 139.851562 C 98.125 139.851562 97.40625 139.601562 95.5625 139.082031 C 73.511719 132.636719 44.648438 143.746094 38.085938 165.5625 C 38.070312 165.441406 38.246094 164.328125 38.277344 164.128906 C 41.863281 142.871094 60.761719 135.710938 81.625 132.082031 C 63.519531 131.703125 43.78125 138.941406 37.382812 155.648438 C 37.675781 153.601562 38.054688 151.625 38.5 149.714844 C 47.695312 138.769531 50.9375 137.554688 54.066406 134.574219 C 54 134.621094 46.394531 136.199219 39.410156 146.175781 C 45.160156 126.105469 58.507812 113.65625 67.488281 107.175781 C 68.265625 106.8125 69.136719 106.414062 70.125 105.96875 C 72.203125 105.0625 74.804688 104.011719 78.109375 103.035156 C 92.175781 98.960938 103.132812 100.503906 106.113281 100.414062 C 104.34375 100.34375 92.4375 97.820312 74.6875 100.324219 C 75.199219 99.402344 75.535156 98.925781 76.238281 97.960938 C 97.816406 91.570312 117.808594 94.75 136.046875 110.027344 C 124.21875 102.6875 116.164062 102.265625 112.097656 101.289062 C 131.34375 108.59375 148.304688 118.34375 159.367188 140.9375 C 162.675781 147.691406 167.179688 156.351562 160.371094 162.503906 Z M 150.167969 205.914062 C 148.835938 205.65625 148.109375 205.675781 148.003906 205.664062 C 149.351562 206.144531 150.023438 206.398438 150.609375 206.644531 C 150.617188 206.65625 150.625 206.671875 150.628906 206.679688 C 150.664062 206.683594 150.699219 206.695312 150.734375 206.699219 C 168.253906 214.160156 165.335938 231.40625 143.578125 230.613281 C 132.75 230.222656 133.410156 219.648438 139.949219 210.050781 C 140.433594 209.359375 140.625 209.078125 140.625 209.078125 C 140.625 209.078125 140.554688 209.125 140.394531 209.226562 C 134.0625 213.277344 131.523438 223.058594 133.164062 226.9375 C 133.5 227.734375 136.652344 231.980469 137.539062 231.84375 C 137.175781 231.898438 136.804688 231.953125 136.433594 232 C 131.808594 229.742188 131.042969 227.566406 129.515625 225.542969 C 128.234375 227.964844 132.558594 232.425781 134.78125 232.738281 C 121.675781 230.890625 119.191406 222.203125 118.300781 221.390625 C 118.339844 221.457031 118.355469 227.496094 125.09375 231.570312 C 124.710938 231.503906 124.316406 231.425781 123.894531 231.324219 C 121.859375 230.828125 119.257812 229.871094 116.816406 227.601562 C 114.386719 225.320312 113.242188 222.699219 112.65625 220.574219 C 112.058594 218.421875 112.011719 216.675781 112.046875 215.378906 C 112.101562 214.074219 112.238281 213.195312 112.332031 212.644531 C 112.4375 212.09375 112.460938 211.859375 112.460938 211.859375 C 112.464844 211.933594 108.097656 218.472656 113.386719 226.402344 C 104.878906 218.105469 106.679688 203.449219 117.136719 194.925781 C 118 194.246094 118.339844 193.933594 118.339844 193.933594 C 102.417969 201.175781 100.546875 223.226562 114.730469 231.390625 C 114.210938 231.371094 113.710938 231.359375 113.226562 231.34375 C 99.222656 225.472656 102.992188 211.777344 102.917969 211.628906 C 102.917969 211.628906 102.800781 211.773438 102.554688 212.171875 C 100.535156 215.503906 100.460938 221.335938 103.535156 225.992188 C 105.148438 228.394531 107.082031 229.832031 108.714844 230.75 C 109.050781 230.933594 109.371094 231.085938 109.6875 231.230469 C 104.957031 231.011719 101.191406 230.40625 94.769531 227.289062 C 90.113281 225.03125 79.363281 203.082031 99.117188 188.53125 C 103.042969 185.640625 124.054688 172.167969 141.007812 189.347656 C 140.832031 190.515625 140.703125 191.597656 140.835938 192.984375 C 137.652344 191.253906 134.257812 190.519531 130.832031 190.6875 C 125.265625 190.96875 122.820312 193.28125 122.679688 193.34375 C 135.371094 191.9375 142.472656 193.328125 150.167969 205.914062 Z M 267.199219 134.0625 C 265.820312 130.253906 266.648438 112.410156 252.125 107.472656 C 250.382812 103.109375 250.324219 100.949219 248.554688 97.691406 C 235.84375 74.25 204.984375 78.363281 201.332031 79.910156 C 200.554688 78.136719 194.273438 73.074219 188.25 70.21875 C 176.320312 64.628906 162.339844 66.074219 149.511719 69.496094 C 138.417969 65.179688 103.484375 66.628906 81.03125 88.902344 C 77.125 92.777344 73 97.097656 71.78125 102.605469 C 71.753906 102.722656 71.765625 102.832031 71.796875 102.929688 C 70.222656 103.660156 68.75 104.460938 67.21875 105.441406 C 40.109375 119.960938 30.339844 156.222656 37.078125 176.332031 C 37.480469 177.53125 36.660156 185.660156 49.957031 197.859375 C 50.859375 198.6875 51.261719 202.914062 51.765625 204.226562 C 56.425781 216.324219 67.175781 225.527344 80.566406 228.6875 C 83.8125 229.453125 86.984375 229.726562 90.289062 229.6875 C 93.371094 229.652344 96.316406 231.429688 99.3125 232.257812 C 110.390625 235.316406 114.417969 232.207031 119.058594 233.289062 C 122.703125 234.140625 126.328125 234.644531 129.925781 234.441406 C 134.257812 235.152344 138.761719 234.597656 142.894531 233.179688 C 145.328125 233.3125 148.53125 232.972656 152.03125 231.890625 C 169.796875 226.136719 165.0625 210.824219 152.199219 206.460938 C 145.449219 193.429688 140.660156 196.785156 144.011719 186.8125 C 145.335938 182.882812 145.4375 178.066406 146.054688 173.917969 C 146.042969 173.992188 152.695312 173.414062 161.207031 165.109375 C 164.785156 161.609375 167.738281 157.988281 172.644531 156.609375 C 179.238281 154.753906 181.464844 151.164062 182.960938 150.324219 C 183.8125 149.847656 184.707031 149.589844 185.625 149.449219 C 189.933594 150.539062 195.671875 149.007812 199.023438 146.136719 C 199.128906 146.101562 199.242188 146.074219 199.355469 146.042969 C 202.988281 147.585938 207.285156 147.929688 211.140625 147.136719 C 229.308594 143.410156 242.671875 164.808594 260.703125 155.925781 C 266.527344 152.652344 269.644531 145.820312 269.175781 139.285156 C 269.007812 136.945312 267.910156 136.023438 267.199219 134.0625 " fill-opacity="1" fill-rule="nonzero"/><path fill="currentColor" d="M 241.496094 147.265625 C 241.5 147.339844 241.355469 148.027344 241.808594 149.21875 C 242.082031 149.914062 242.59375 150.832031 243.570312 151.738281 C 249.207031 157.007812 256.914062 152.476562 256.984375 152.46875 C 255.066406 151.890625 246.175781 155.496094 241.496094 147.265625 " fill-opacity="1" fill-rule="nonzero"/><path fill="currentColor" d="M 141.195312 227.648438 C 140.277344 227.496094 139.660156 227.355469 139.269531 227.269531 C 138.886719 227.179688 138.71875 227.15625 138.71875 227.15625 C 138.71875 227.15625 138.839844 227.265625 139.171875 227.492188 C 139.507812 227.710938 140.066406 228.039062 140.96875 228.390625 C 141.867188 228.734375 143.125 229.109375 144.832031 229.242188 C 146.527344 229.367188 148.707031 229.253906 151.183594 228.363281 C 158.214844 225.796875 159.800781 220.210938 159.863281 220.140625 C 158.925781 220.683594 154.359375 227.78125 144.933594 227.933594 C 143.335938 227.960938 142.113281 227.792969 141.195312 227.648438 " fill-opacity="1" fill-rule="nonzero"/><path fill="currentColor" d="M 141.863281 155.167969 C 133.828125 141.539062 122 136.148438 121.375 135.699219 C 130.339844 143.929688 134.679688 146.394531 145.296875 163.246094 C 145.296875 163.246094 145.285156 163.066406 145.160156 162.585938 C 144.34375 159.734375 143.300781 157.714844 141.863281 155.167969 " fill-opacity="1" fill-rule="nonzero"/><path fill="currentColor" d="M 140.371094 143.925781 C 136.941406 140.265625 134.828125 139.21875 134.722656 139.132812 C 142.851562 149.320312 144.832031 152.730469 149.882812 162.324219 C 149.882812 162.324219 149.902344 162.183594 149.867188 161.800781 C 149.25 156.121094 144.707031 148.570312 140.371094 143.925781 " fill-opacity="1" fill-rule="nonzero"/><path fill="currentColor" d="M 144.246094 142.089844 C 144.410156 142.480469 152.738281 157.957031 152.949219 158.316406 C 152.9375 158.246094 153.707031 155.496094 150.503906 149.519531 C 148.617188 146.082031 144.316406 142.15625 144.246094 142.089844 " fill-opacity="1" fill-rule="nonzero"/><path fill="currentColor" d="M 150.824219 137.214844 C 148.152344 133.9375 146.417969 133.023438 146.347656 132.960938 C 146.347656 132.960938 146.402344 133.113281 146.582031 133.453125 C 147.683594 135.492188 149.707031 138.027344 152.460938 143.027344 C 155.007812 147.753906 156.023438 150.761719 156.980469 152.71875 C 157.144531 153.054688 157.230469 153.191406 157.230469 153.191406 C 157.492188 149.574219 155.828125 145.414062 154.144531 142.238281 C 152.980469 140.085938 151.828125 138.457031 150.824219 137.214844 " fill-opacity="1" fill-rule="nonzero"/><path fill="currentColor" d="M 153.382812 117.109375 C 153.382812 117.109375 153.472656 117.332031 153.746094 117.851562 C 159.675781 128.957031 157.957031 122.324219 169.367188 149.382812 C 169.351562 149.3125 169.511719 143.546875 164.125 132.53125 C 161.546875 127.316406 158.53125 122.867188 155.980469 119.867188 C 155.070312 118.78125 153.617188 117.34375 153.382812 117.109375 " fill-opacity="1" fill-rule="nonzero"/><path fill="currentColor" d="M 171.722656 147.148438 C 172.984375 141.785156 169.734375 131.738281 165.605469 126.964844 C 169.628906 140.226562 163.863281 121.210938 171.722656 147.148438 " fill-opacity="1" fill-rule="nonzero"/><path fill="currentColor" d="M 176.136719 142.46875 C 176.527344 143.476562 176.769531 143.828125 176.769531 143.828125 C 176.777344 143.753906 177.828125 142.015625 176.230469 136.746094 C 174.640625 131.632812 172.753906 130.121094 172.707031 130.054688 C 172.707031 130.054688 172.644531 130.5 172.855469 131.601562 C 173.214844 133.570312 175.65625 141.230469 176.136719 142.46875 " fill-opacity="1" fill-rule="nonzero"/><path fill="currentColor" d="M 191.113281 117.25 C 192.265625 134 192.1875 132.128906 192.550781 140.703125 C 192.570312 140.628906 194.34375 137.699219 193.824219 129.234375 C 193.484375 124.3125 192.628906 121.308594 192.0625 119.554688 C 191.550781 117.996094 191.144531 117.320312 191.113281 117.25 " fill-opacity="1" fill-rule="nonzero"/><path fill="currentColor" d="M 140.632812 173.441406 C 141.007812 173.710938 141.175781 173.808594 141.175781 173.808594 C 140.871094 173.261719 140.621094 172.671875 139.742188 171.660156 C 139.292969 171.132812 138.875 170.625 137.679688 169.507812 C 137.363281 169.238281 137.03125 168.949219 136.671875 168.640625 C 126.441406 160.285156 115.992188 161.636719 115.914062 161.613281 C 119.574219 163.203125 126.445312 162.753906 140.632812 173.441406 " fill-opacity="1" fill-rule="nonzero"/><path fill="currentColor" d="M 251.75 110.601562 C 245.449219 111.203125 238.300781 116.515625 234.253906 121.507812 C 231.179688 125.328125 230.488281 127.726562 230.425781 127.84375 C 230.929688 127.332031 231.703125 126.546875 232.429688 125.765625 C 235.824219 121.964844 238.253906 119.730469 240.472656 117.9375 C 242.933594 115.960938 245.21875 114.285156 251.75 110.601562 " fill-opacity="1" fill-rule="nonzero"/><path fill="currentColor" d="M 211.984375 107.488281 C 211.230469 121.246094 211.339844 124.234375 208.167969 137.808594 C 207.878906 139.039062 207.667969 139.875 207.550781 140.410156 C 207.4375 140.945312 207.40625 141.175781 207.40625 141.175781 C 207.40625 141.175781 207.519531 141.050781 207.769531 140.660156 C 208.007812 140.261719 208.421875 139.609375 208.910156 138.507812 C 215.957031 122.660156 211.976562 107.5625 211.984375 107.488281 " fill-opacity="1" fill-rule="nonzero"/><path fill="currentColor" d="M 218.5625 113.300781 C 218.5625 113.300781 217.070312 115.644531 215.296875 125.792969 C 213.636719 135.296875 213.96875 138.023438 213.96875 138.023438 C 213.96875 138.023438 215.316406 136.417969 217.105469 126.222656 C 218.894531 116.03125 218.5625 113.300781 218.5625 113.300781 " fill-opacity="1" fill-rule="nonzero"/><path fill="currentColor" d="M 211.5 101.808594 C 211.519531 101.734375 211.742188 101.128906 211.796875 99.632812 C 211.84375 98.015625 211.769531 95.277344 210.675781 91.089844 C 208.855469 84.304688 206.578125 81.785156 206.539062 81.71875 C 206.539062 81.71875 206.460938 82.167969 206.761719 83.59375 C 206.785156 83.695312 211.332031 101.164062 211.5 101.808594 " fill-opacity="1" fill-rule="nonzero"/><path fill="currentColor" d="M 138.796875 190.828125 C 138.796875 190.828125 138.734375 190.726562 138.492188 190.507812 C 138.25 190.304688 137.855469 189.925781 137.121094 189.527344 C 136.757812 189.320312 136.324219 189.070312 135.78125 188.859375 C 135.511719 188.746094 135.214844 188.621094 134.898438 188.503906 C 134.570312 188.402344 134.222656 188.292969 133.851562 188.179688 C 132.351562 187.769531 130.375 187.429688 127.882812 187.535156 C 125.390625 187.648438 123.410156 188.164062 121.886719 188.730469 C 118.015625 190.203125 116.769531 191.886719 116.609375 192.003906 C 120.609375 190.703125 120.753906 190.652344 122.292969 190.246094 C 131.164062 187.992188 137.589844 190.753906 138.796875 190.828125 " fill-opacity="1" fill-rule="nonzero"/></svg>