<svg xmlns="http://www.w3.org/2000/svg" xmlns:xlink="http://www.w3.org/1999/xlink" width="400" zoomAndPan="magnify" viewBox="0 0 300 299.999988" height="400" preserveAspectRatio="xMidYMid meet" version="1.0"><defs><clipPath id="2d99ade617"><path d="M 30 39 L 269 39 L 269 261.898438 L 30 261.898438 Z M 30 39 " clip-rule="nonzero"/></clipPath></defs><path fill="#a9a0f0" d="M 78.519531 179.613281 C 75.882812 179.308594 74.003906 179.84375 72.925781 181.199219 C 72.53125 181.738281 72.269531 182.332031 72.140625 182.988281 C 72.011719 183.644531 72.03125 184.296875 72.191406 184.945312 C 72.5 186.140625 73.050781 187.207031 73.851562 188.148438 C 75.210938 189.804688 76.835938 191.136719 78.722656 192.152344 C 80.609375 193.164062 82.617188 193.78125 84.75 194 L 85.226562 194.042969 L 85.441406 193.617188 C 86.90625 190.9375 88.703125 188.503906 90.835938 186.316406 L 91.3125 185.820312 L 90.820312 185.339844 C 89.140625 183.734375 87.246094 182.441406 85.140625 181.460938 C 83.035156 180.480469 80.828125 179.863281 78.519531 179.613281 Z M 84.425781 192.558594 C 82.566406 192.3125 80.820312 191.734375 79.183594 190.824219 C 77.546875 189.910156 76.132812 188.730469 74.941406 187.285156 C 74.277344 186.507812 73.8125 185.628906 73.550781 184.640625 C 73.433594 184.199219 73.414062 183.75 73.496094 183.300781 C 73.578125 182.847656 73.753906 182.4375 74.015625 182.0625 C 74.722656 181.175781 75.980469 180.921875 77.183594 180.921875 C 77.574219 180.925781 77.96875 180.949219 78.359375 180.996094 C 80.398438 181.21875 82.355469 181.746094 84.234375 182.578125 C 86.109375 183.410156 87.816406 184.507812 89.351562 185.871094 C 87.445312 187.90625 85.804688 190.136719 84.425781 192.558594 Z M 84.425781 192.558594 " fill-opacity="1" fill-rule="nonzero"/><path fill="#a9a0f0" d="M 75.925781 247.542969 C 75.382812 247.574219 74.84375 247.566406 74.304688 247.515625 C 73.140625 247.441406 71.929688 247.363281 70.828125 247.964844 C 70.40625 248.199219 70.078125 248.523438 69.839844 248.941406 C 69.601562 249.359375 69.492188 249.808594 69.511719 250.289062 C 69.492188 252.183594 70.992188 254.457031 72.34375 255.226562 C 73.113281 255.652344 73.9375 255.863281 74.816406 255.855469 C 76.257812 255.828125 77.5625 255.390625 78.722656 254.535156 C 80.167969 253.503906 81.351562 251.671875 80.738281 249.902344 C 80.089844 248.035156 77.851562 247.371094 75.925781 247.542969 Z M 77.914062 253.402344 C 76.597656 254.34375 74.574219 254.894531 73.03125 254.019531 C 72.0625 253.464844 70.886719 251.644531 70.898438 250.300781 C 70.875 250.074219 70.917969 249.859375 71.027344 249.65625 C 71.136719 249.453125 71.289062 249.296875 71.492188 249.1875 C 72.011719 248.9375 72.554688 248.828125 73.128906 248.855469 C 73.480469 248.855469 73.84375 248.878906 74.214844 248.902344 C 74.824219 248.957031 75.4375 248.964844 76.046875 248.925781 C 77.394531 248.808594 79.023438 249.203125 79.421875 250.359375 C 79.800781 251.441406 78.902344 252.695312 77.914062 253.402344 Z M 77.914062 253.402344 " fill-opacity="1" fill-rule="nonzero"/><path fill="#a9a0f0" d="M 44.820312 137.058594 C 44.28125 137.089844 43.738281 137.082031 43.199219 137.03125 C 42.035156 136.957031 40.828125 136.878906 39.722656 137.484375 C 39.300781 137.714844 38.96875 138.039062 38.734375 138.457031 C 38.496094 138.875 38.386719 139.328125 38.402344 139.808594 C 38.386719 141.699219 39.886719 143.972656 41.238281 144.742188 C 42.003906 145.171875 42.832031 145.378906 43.710938 145.371094 C 45.152344 145.34375 46.453125 144.90625 47.617188 144.050781 C 49.0625 143.019531 50.246094 141.1875 49.632812 139.421875 C 48.984375 137.550781 46.746094 136.886719 44.820312 137.058594 Z M 46.808594 142.921875 C 45.492188 143.859375 43.46875 144.414062 41.925781 143.535156 C 40.957031 142.980469 39.78125 141.160156 39.792969 139.820312 C 39.769531 139.589844 39.8125 139.375 39.921875 139.171875 C 40.03125 138.96875 40.1875 138.8125 40.386719 138.703125 C 40.90625 138.453125 41.453125 138.34375 42.023438 138.371094 C 42.375 138.371094 42.738281 138.394531 43.109375 138.417969 C 43.722656 138.472656 44.332031 138.480469 44.945312 138.441406 C 46.289062 138.320312 47.917969 138.722656 48.320312 139.875 C 48.695312 140.960938 47.800781 142.210938 46.808594 142.921875 Z M 46.808594 142.921875 " fill-opacity="1" fill-rule="nonzero"/><path fill="#a9a0f0" d="M 40.808594 117.113281 C 41.773438 117.058594 42.621094 116.71875 43.355469 116.09375 C 44.335938 115.363281 44.667969 113.941406 44.566406 112.855469 C 44.515625 112.425781 44.351562 112.046875 44.078125 111.710938 C 43.804688 111.378906 43.464844 111.144531 43.054688 111.011719 C 42.335938 110.757812 41.605469 110.695312 40.855469 110.820312 C 40.101562 110.945312 39.429688 111.246094 38.835938 111.71875 C 37.800781 112.65625 37.820312 114.917969 38.875 116.199219 C 39.375 116.808594 40.019531 117.113281 40.808594 117.113281 Z M 39.769531 112.75 C 40.3125 112.332031 40.925781 112.132812 41.613281 112.152344 C 41.9375 112.148438 42.25 112.199219 42.554688 112.3125 C 43.136719 112.535156 43.171875 112.878906 43.183594 112.992188 C 43.25 113.6875 43.046875 114.59375 42.527344 114.980469 C 41.722656 115.585938 40.621094 116.128906 39.953125 115.316406 C 39.308594 114.539062 39.371094 113.109375 39.769531 112.75 Z M 39.769531 112.75 " fill-opacity="1" fill-rule="nonzero"/><path fill="#a9a0f0" d="M 140.265625 239.210938 C 138.449219 238.671875 136.539062 238.894531 134.855469 239.09375 C 134.167969 239.164062 133.542969 239.40625 132.992188 239.824219 C 132.4375 240.238281 132.03125 240.769531 131.773438 241.414062 C 131.441406 242.265625 131.34375 243.144531 131.480469 244.050781 C 131.617188 244.953125 131.96875 245.765625 132.539062 246.480469 C 133.179688 247.253906 133.953125 247.847656 134.867188 248.265625 C 135.777344 248.679688 136.734375 248.878906 137.738281 248.859375 C 138.996094 248.863281 140.167969 248.554688 141.257812 247.929688 C 143.050781 246.890625 144.144531 245.117188 144.035156 243.414062 C 143.902344 241.246094 142.042969 239.742188 140.265625 239.210938 Z M 140.5625 246.726562 C 138.296875 248.039062 135.125 247.535156 133.632812 245.625 C 133.222656 245.105469 132.964844 244.519531 132.863281 243.863281 C 132.761719 243.207031 132.824219 242.570312 133.054688 241.949219 C 133.214844 241.535156 133.472656 241.195312 133.824219 240.929688 C 134.179688 240.664062 134.578125 240.511719 135.019531 240.472656 C 136.570312 240.289062 138.328125 240.085938 139.867188 240.542969 C 141.140625 240.925781 142.554688 242.011719 142.648438 243.5 C 142.738281 244.9375 141.582031 246.136719 140.5625 246.726562 Z M 140.5625 246.726562 " fill-opacity="1" fill-rule="nonzero"/><path fill="#a9a0f0" d="M 103.496094 235.640625 C 101.148438 234.832031 97.792969 234.238281 95.160156 235.988281 C 92.230469 237.941406 91.652344 241.964844 92.59375 244.929688 C 93.613281 248.136719 96.113281 250.617188 98.175781 252.421875 C 100.292969 254.277344 103.171875 256.511719 106.648438 257.363281 C 107.535156 257.578125 108.433594 257.6875 109.34375 257.6875 C 112.042969 257.6875 114.554688 256.699219 116.164062 254.910156 C 118.648438 252.148438 117.554688 248.410156 115.863281 246.050781 C 111.921875 240.550781 107.878906 237.148438 103.496094 235.640625 Z M 107.605469 249.382812 C 105.414062 247.417969 103.152344 245.390625 101.234375 243.296875 C 101.089844 243.15625 100.976562 242.996094 100.898438 242.8125 C 100.933594 242.804688 100.964844 242.804688 101 242.808594 C 101.214844 242.863281 101.414062 242.953125 101.59375 243.082031 C 106.246094 245.882812 109.867188 249.6875 113.703125 253.71875 L 114.515625 254.570312 C 114.253906 254.785156 113.980469 254.980469 113.691406 255.15625 C 111.8125 253.160156 109.679688 251.242188 107.605469 249.382812 Z M 115.46875 253.550781 L 114.710938 252.757812 C 110.980469 248.839844 107.125 244.789062 102.3125 241.890625 C 101.96875 241.65625 101.589844 241.503906 101.183594 241.429688 C 100.878906 241.378906 100.589844 241.417969 100.3125 241.546875 C 100.035156 241.671875 99.820312 241.867188 99.660156 242.128906 C 99.425781 242.558594 99.328125 243.273438 100.207031 244.234375 C 102.171875 246.378906 104.460938 248.429688 106.675781 250.417969 C 108.613281 252.152344 110.609375 253.941406 112.371094 255.78125 C 110.597656 256.398438 108.800781 256.472656 106.980469 256.007812 C 103.792969 255.230469 101.089844 253.125 99.09375 251.371094 C 97.167969 249.6875 94.835938 247.386719 93.921875 244.503906 C 93.132812 242.035156 93.574219 238.714844 95.929688 237.144531 C 96.9375 236.507812 98.039062 236.203125 99.230469 236.238281 C 100.542969 236.269531 101.8125 236.507812 103.046875 236.953125 C 107.144531 238.363281 110.964844 241.601562 114.734375 246.855469 C 116.035156 248.675781 116.9375 251.441406 115.46875 253.550781 Z M 115.46875 253.550781 " fill-opacity="1" fill-rule="nonzero"/><path fill="#a9a0f0" d="M 115.996094 180.71875 C 113.199219 178.582031 109.207031 179.34375 106.707031 181.199219 C 104.007812 183.203125 102.46875 186.375 101.433594 188.910156 C 100.367188 191.511719 99.1875 194.960938 99.511719 198.527344 C 99.855469 202.257812 101.976562 205.480469 104.921875 206.730469 C 105.625 207.035156 106.359375 207.1875 107.125 207.191406 C 109.664062 207.191406 111.890625 205.414062 113.203125 203.570312 C 117.125 198.054688 119.03125 193.125 119.035156 188.492188 C 119.035156 186.007812 118.511719 182.640625 115.996094 180.71875 Z M 105.246094 204.023438 L 104.710938 205.058594 C 104.417969 204.882812 104.140625 204.6875 103.878906 204.46875 C 105.160156 202.042969 106.285156 199.40625 107.371094 196.839844 C 108.515625 194.132812 109.699219 191.332031 111.058594 188.835938 C 111.140625 188.65625 111.257812 188.5 111.40625 188.363281 C 111.425781 188.394531 111.4375 188.425781 111.445312 188.457031 C 111.460938 188.679688 111.4375 188.898438 111.378906 189.109375 C 110.238281 194.421875 107.816406 199.085938 105.246094 204.023438 Z M 112.070312 202.761719 C 110.777344 204.582031 108.453125 206.339844 105.980469 205.632812 L 106.480469 204.664062 C 108.976562 199.863281 111.558594 194.894531 112.738281 189.402344 C 112.847656 189 112.871094 188.59375 112.808594 188.183594 C 112.757812 187.882812 112.625 187.621094 112.414062 187.402344 C 112.203125 187.179688 111.949219 187.035156 111.652344 186.972656 C 111.167969 186.886719 110.460938 187.027344 109.835938 188.171875 C 108.445312 190.726562 107.25 193.558594 106.089844 196.296875 C 105.078125 198.695312 104.03125 201.164062 102.863281 203.425781 C 101.707031 201.949219 101.050781 200.273438 100.898438 198.402344 C 100.601562 195.132812 101.714844 191.894531 102.722656 189.4375 C 103.691406 187.066406 105.113281 184.117188 107.539062 182.3125 C 108.855469 181.339844 110.335938 180.835938 111.976562 180.808594 C 113.152344 180.785156 114.210938 181.125 115.152344 181.824219 C 117.214844 183.402344 117.644531 186.320312 117.644531 188.492188 C 117.640625 192.824219 115.816406 197.492188 112.070312 202.761719 Z M 112.070312 202.761719 " fill-opacity="1" fill-rule="nonzero"/><path fill="#a9a0f0" d="M 88.222656 155.019531 C 82.222656 150.941406 77.066406 149.054688 72.460938 149.230469 C 69.972656 149.328125 66.671875 150.046875 65.089844 152.910156 C 63.371094 156.027344 64.644531 160.3125 66.792969 162.9375 C 69.136719 165.800781 72.480469 167.355469 75.128906 168.386719 C 77.410156 169.273438 80.285156 170.230469 83.214844 170.230469 C 83.796875 170.230469 84.378906 170.191406 84.957031 170.109375 C 88.648438 169.582031 91.578125 167.113281 92.421875 163.820312 C 93.382812 160.082031 90.757812 156.742188 88.222656 155.019531 Z M 90.347656 165.195312 C 87.78125 163.898438 85.027344 162.777344 82.351562 161.695312 C 79.503906 160.546875 76.5625 159.355469 73.898438 157.964844 C 73.390625 157.699219 73.28125 157.503906 73.28125 157.460938 C 73.300781 157.441406 73.320312 157.425781 73.347656 157.421875 C 73.558594 157.398438 73.769531 157.414062 73.972656 157.46875 C 79.398438 158.507812 84.359375 160.980469 89.613281 163.597656 L 90.835938 164.207031 C 90.699219 164.550781 90.539062 164.878906 90.347656 165.195312 Z M 91.191406 162.832031 L 90.234375 162.351562 C 84.890625 159.691406 79.847656 157.175781 74.238281 156.101562 C 73.820312 155.996094 73.40625 155.988281 72.984375 156.078125 C 72.675781 156.152344 72.421875 156.3125 72.21875 156.558594 C 72.019531 156.804688 71.910156 157.085938 71.894531 157.402344 C 71.871094 158.109375 72.332031 158.714844 73.257812 159.195312 C 75.980469 160.621094 78.953125 161.820312 81.828125 162.980469 C 84.402344 164.023438 87.046875 165.101562 89.5 166.324219 C 88.203125 167.683594 86.625 168.488281 84.761719 168.730469 C 81.574219 169.1875 78.210938 168.09375 75.636719 167.089844 C 73.144531 166.117188 70.011719 164.671875 67.871094 162.058594 C 66.0625 159.847656 64.90625 156.128906 66.3125 153.582031 C 67.578125 151.285156 70.386719 150.703125 72.519531 150.617188 C 72.703125 150.613281 72.886719 150.609375 73.070312 150.609375 C 77.234375 150.609375 81.941406 152.429688 87.441406 156.167969 C 89.453125 157.535156 91.53125 160.046875 91.191406 162.832031 Z M 91.191406 162.832031 " fill-opacity="1" fill-rule="nonzero"/><g clip-path="url(#2d99ade617)"><path fill="#a9a0f0" d="M 262.726562 78.765625 C 262.695312 78.582031 262.65625 78.402344 262.605469 78.222656 C 262.203125 76.875 261.277344 75.777344 260.535156 74.898438 C 258.339844 72.304688 256.148438 69.546875 254.023438 66.878906 C 249.910156 61.703125 245.652344 56.363281 241 51.660156 C 241.066406 51.523438 241.132812 51.386719 241.1875 51.246094 C 241.972656 49.324219 241.746094 47.257812 240.621094 45.976562 C 239.1875 44.34375 236.796875 44.292969 235.066406 44.960938 C 234.714844 45.101562 234.378906 45.261719 234.054688 45.449219 C 231.066406 43.101562 227.84375 41.136719 224.390625 39.554688 C 221.839844 38.402344 217.144531 41.746094 209.695312 47.304688 C 205.644531 50.320312 201.457031 53.441406 197.914062 55.28125 C 195.300781 56.636719 192.449219 58.671875 189.691406 60.640625 C 188.851562 61.238281 188.015625 61.835938 187.179688 62.417969 C 184.953125 61.660156 182.664062 61.3125 180.308594 61.375 C 177.824219 61.46875 174.484375 62.125 172.660156 64.707031 C 172.15625 65.457031 171.816406 66.269531 171.636719 67.15625 C 171.460938 68.039062 171.460938 68.921875 171.636719 69.804688 C 168.886719 70.675781 166.222656 71.761719 163.644531 73.058594 C 162.105469 73.859375 159.625 74.40625 157.003906 74.988281 C 153.695312 75.71875 150.28125 76.476562 148.328125 77.867188 C 142.300781 82.171875 131.617188 88.203125 120.917969 94.183594 C 120.628906 92.863281 120.222656 91.105469 119.824219 89.386719 C 119.332031 87.253906 118.820312 85.046875 118.550781 83.742188 L 118.527344 83.640625 L 118.476562 83.546875 C 118.222656 83.085938 118.175781 82.996094 112.703125 83.296875 C 109.636719 83.460938 105.519531 83.734375 100.761719 84.089844 C 100.367188 82.234375 98.691406 80.945312 97.074219 80.464844 C 95.257812 79.921875 93.347656 80.148438 91.664062 80.34375 C 90.976562 80.414062 90.351562 80.660156 89.796875 81.074219 C 89.246094 81.492188 88.839844 82.023438 88.578125 82.667969 C 88.265625 83.445312 88.160156 84.253906 88.265625 85.089844 C 77.457031 86.007812 67.542969 86.992188 60.285156 87.871094 C 48.511719 89.292969 45.984375 90.128906 45.273438 90.640625 C 39.976562 90.601562 33.695312 91.222656 31.210938 96.09375 C 30.195312 98.082031 30.117188 100.347656 30.125 102.5 C 30.179688 119.847656 36.992188 151.722656 39.230469 162.195312 L 42.007812 175.179688 C 42.0625 175.445312 42.128906 175.746094 42.195312 176.058594 C 41.519531 176.488281 41.027344 177.074219 40.722656 177.816406 C 40.390625 178.667969 40.292969 179.546875 40.429688 180.453125 C 40.566406 181.355469 40.921875 182.167969 41.488281 182.886719 C 42.199219 183.773438 43.089844 184.410156 44.160156 184.796875 C 47.21875 198.183594 52.285156 219.839844 53.992188 227.121094 C 55.066406 231.6875 55.992188 236.144531 56.8125 240.074219 C 59.015625 250.65625 60.605469 258.300781 63.257812 260.582031 L 63.433594 260.734375 L 63.664062 260.75 C 72.535156 261.335938 80.128906 261.597656 87.25 261.597656 C 102.269531 261.597656 115.160156 260.421875 133.363281 258.625 C 133.683594 258.59375 134.105469 258.554688 134.609375 258.507812 C 141.355469 257.886719 148.535156 257.074219 150.613281 255.742188 C 156.734375 251.820312 155.195312 240.179688 153.839844 229.914062 C 153.574219 227.917969 153.324219 226.035156 153.144531 224.269531 C 153.136719 221.148438 152.433594 215.476562 151.820312 211.105469 C 152.375 210.660156 152.90625 210.1875 153.402344 209.679688 C 155.140625 207.90625 157.117188 205.128906 156.664062 202 C 156.15625 198.515625 152.769531 196.269531 149.6875 195.847656 C 149.578125 195.835938 149.46875 195.824219 149.355469 195.8125 C 147.351562 184.632812 145.3125 175.625 143.871094 171.5625 L 144.445312 171.039062 C 147.363281 168.390625 150.375 165.652344 154.671875 163.585938 C 162.707031 159.699219 170.507812 155.382812 178.074219 150.648438 C 181.425781 148.601562 184.597656 146.671875 187.867188 144.90625 C 188.441406 145.007812 189.019531 145.058594 189.601562 145.054688 C 192.117188 145.054688 195.003906 144.273438 197.285156 143.65625 C 197.613281 143.566406 197.921875 143.484375 198.21875 143.40625 C 200.785156 142.726562 202.339844 141.542969 202.84375 139.886719 C 203.003906 139.296875 203.039062 138.699219 202.949219 138.09375 C 202.859375 137.488281 202.652344 136.925781 202.328125 136.40625 C 204.335938 135.003906 206.019531 133.730469 207.109375 132.785156 C 209.355469 130.839844 212.605469 129.605469 216.046875 128.296875 C 218.320312 127.488281 220.53125 126.539062 222.679688 125.441406 C 227.433594 122.863281 230.722656 120.179688 233.902344 117.585938 C 234.375 117.199219 234.84375 116.820312 235.316406 116.4375 C 235.511719 116.515625 235.714844 116.582031 235.917969 116.636719 C 236.378906 116.753906 236.847656 116.808594 237.324219 116.808594 C 238.007812 116.792969 238.675781 116.679688 239.332031 116.464844 C 239.984375 116.253906 240.59375 115.957031 241.15625 115.566406 C 241.722656 115.179688 242.222656 114.71875 242.65625 114.1875 C 243.085938 113.65625 243.4375 113.074219 243.699219 112.441406 C 243.941406 111.84375 244.085938 111.222656 244.132812 110.578125 C 245.742188 109.789062 247.394531 109.121094 249.09375 108.566406 C 250.675781 108.046875 252.277344 107.589844 253.824219 107.152344 C 260.71875 105.191406 267.234375 103.339844 268.558594 96.507812 C 269.851562 89.871094 267.324219 85.902344 262.726562 78.765625 Z M 235.566406 46.261719 C 236.808594 45.78125 238.589844 45.773438 239.574219 46.894531 C 240.527344 47.976562 240.34375 49.632812 239.898438 50.722656 C 238.914062 53.148438 236.097656 54.691406 233.75 54.097656 C 233.105469 53.9375 232.542969 53.628906 232.0625 53.175781 C 231.578125 52.71875 231.238281 52.175781 231.039062 51.542969 C 230.914062 51.117188 230.910156 50.691406 231.027344 50.265625 C 231.144531 49.839844 231.363281 49.472656 231.691406 49.175781 C 232.804688 48.082031 234.066406 46.839844 235.566406 46.261719 Z M 173.792969 65.511719 C 175.289062 63.390625 178.191406 62.847656 180.359375 62.765625 C 180.558594 62.757812 180.753906 62.753906 180.953125 62.753906 C 185.121094 62.753906 189.671875 64.402344 194.835938 67.785156 C 196.703125 69.007812 198.542969 71.261719 197.933594 73.761719 L 196.941406 73.296875 C 192.050781 70.984375 186.992188 68.597656 181.457031 67.632812 C 181.050781 67.539062 180.644531 67.53125 180.234375 67.609375 C 179.9375 67.671875 179.679688 67.8125 179.46875 68.03125 C 179.257812 68.25 179.125 68.511719 179.070312 68.8125 C 179.003906 69.300781 179.171875 70 180.339844 70.578125 C 182.945312 71.871094 185.820312 72.957031 188.601562 74.007812 C 191.035156 74.929688 193.542969 75.878906 195.851562 76.960938 C 194.417969 78.171875 192.769531 78.890625 190.902344 79.117188 C 187.65625 79.539062 184.371094 78.550781 181.875 77.640625 C 179.472656 76.761719 176.46875 75.453125 174.574219 73.097656 C 172.953125 71.078125 172.164062 67.824219 173.792969 65.511719 Z M 196.851562 75.90625 C 194.378906 74.71875 191.699219 73.695312 189.09375 72.710938 C 186.34375 71.667969 183.5 70.59375 180.957031 69.332031 C 180.773438 69.253906 180.609375 69.144531 180.472656 69 C 180.5 68.980469 180.527344 68.96875 180.5625 68.960938 C 180.78125 68.933594 181.003906 68.949219 181.21875 69 C 186.566406 69.933594 191.320312 72.179688 196.351562 74.550781 L 197.410156 75.050781 C 197.246094 75.351562 197.058594 75.636719 196.851562 75.90625 Z M 149.132812 79 C 150.851562 77.773438 154.128906 77.046875 157.296875 76.347656 C 160.011719 75.742188 162.578125 75.175781 164.28125 74.292969 C 166.761719 73.042969 169.324219 72 171.96875 71.160156 C 172.3125 72.1875 172.816406 73.125 173.488281 73.972656 C 175.597656 76.59375 178.820312 78.007812 181.398438 78.945312 C 183.597656 79.75 186.382812 80.609375 189.304688 80.609375 C 189.898438 80.609375 190.492188 80.570312 191.082031 80.496094 C 194.796875 80.011719 197.933594 77.769531 199.070312 74.78125 C 200.390625 71.300781 198.023438 68.214844 195.59375 66.621094 C 193.441406 65.183594 191.167969 63.976562 188.773438 62.996094 C 189.347656 62.589844 189.921875 62.183594 190.496094 61.773438 C 193.214844 59.832031 196.023438 57.824219 198.546875 56.515625 C 202.191406 54.625 206.425781 51.46875 210.519531 48.417969 C 215.847656 44.449219 221.886719 39.945312 223.816406 40.820312 C 227.03125 42.292969 230.035156 44.109375 232.835938 46.269531 C 232.089844 46.863281 231.386719 47.503906 230.714844 48.183594 C 230.214844 48.660156 229.871094 49.234375 229.6875 49.902344 C 229.503906 50.570312 229.507812 51.238281 229.699219 51.90625 C 229.957031 52.78125 230.421875 53.535156 231.082031 54.167969 C 231.742188 54.800781 232.519531 55.226562 233.40625 55.445312 C 233.867188 55.5625 234.335938 55.617188 234.8125 55.617188 C 235.878906 55.59375 236.882812 55.339844 237.835938 54.859375 C 238.785156 54.378906 239.585938 53.714844 240.238281 52.871094 C 244.75 57.464844 248.90625 62.683594 252.933594 67.742188 C 255.0625 70.417969 257.261719 73.1875 259.46875 75.796875 C 260.308594 76.789062 260.976562 77.628906 261.269531 78.617188 C 261.761719 80.28125 261.0625 82.335938 259.480469 83.851562 C 257.984375 85.289062 255.96875 86.152344 254.023438 86.984375 C 235.929688 94.734375 217.839844 103.152344 200.242188 112 C 200.023438 111.660156 199.761719 111.355469 199.453125 111.09375 C 198.847656 110.628906 198.171875 110.300781 197.433594 110.109375 C 196.691406 109.921875 195.945312 109.882812 195.191406 110 C 194.972656 110.023438 194.742188 110.046875 194.507812 110.0625 C 193.28125 110.167969 191.753906 110.296875 190.933594 111.449219 C 189.851562 112.964844 190.894531 114.726562 192.367188 116.003906 C 187.183594 118.664062 180.757812 121.992188 174.300781 125.476562 C 174.660156 124.359375 174.816406 123.214844 174.765625 122.039062 C 174.492188 115.28125 172.980469 110.214844 170.144531 106.550781 C 168.628906 104.59375 166.167969 102.265625 163.023438 102.265625 L 162.984375 102.265625 C 159.464844 102.285156 156.769531 105.332031 155.933594 108.328125 C 155.027344 111.570312 155.75 115.015625 156.484375 117.65625 C 157.238281 120.367188 158.414062 123.816406 160.855469 126.4375 C 162.4375 128.167969 164.382812 129.261719 166.683594 129.714844 C 157.632812 134.722656 148.578125 139.921875 139.695312 145.214844 C 140.582031 142.871094 140.921875 140.453125 140.707031 137.960938 L 140.664062 137.480469 L 140.203125 137.351562 C 137.296875 136.421875 134.566406 135.117188 132.015625 133.4375 L 131.433594 133.0625 L 131.054688 133.636719 C 129.796875 135.589844 128.886719 137.695312 128.324219 139.949219 C 127.761719 142.203125 127.574219 144.488281 127.765625 146.804688 C 127.921875 148.894531 128.511719 150.414062 129.511719 151.359375 C 128.570312 151.933594 127.632812 152.511719 126.695312 153.085938 C 123.710938 154.929688 120.300781 156.605469 117.617188 155.074219 C 116.894531 154.640625 105.667969 145.40625 96.511719 136.09375 C 97.644531 136.886719 98.902344 137.308594 100.285156 137.359375 C 100.453125 137.363281 100.617188 137.351562 100.785156 137.328125 C 102.867188 137.03125 104.679688 135.285156 105.40625 132.875 C 105.914062 131.175781 105.730469 129.003906 104.164062 127.980469 C 102.507812 126.898438 100.332031 127.742188 98.910156 129.058594 C 98.503906 129.417969 98.070312 129.742188 97.613281 130.035156 C 96.644531 130.6875 95.644531 131.363281 95.140625 132.519531 C 94.96875 132.90625 94.902344 133.308594 94.9375 133.730469 C 94.972656 134.148438 95.105469 134.535156 95.335938 134.890625 C 90.023438 129.367188 85.632812 123.949219 84.792969 120.464844 C 84.546875 119.742188 84.59375 119.039062 84.929688 118.359375 C 86.027344 116.613281 90.160156 113.585938 97.542969 109.113281 C 97.617188 110.4375 97.960938 111.683594 98.574219 112.859375 C 100.152344 115.828125 103.054688 117.824219 105.410156 119.226562 C 107.824219 120.671875 111.054688 122.355469 114.628906 122.566406 C 114.859375 122.582031 115.085938 122.585938 115.316406 122.585938 C 118.792969 122.585938 121.976562 121.007812 123.550781 118.449219 C 125.5 115.285156 123.753906 111.804688 121.664062 109.785156 C 117.46875 105.726562 113.472656 103.21875 109.515625 102.160156 C 112.652344 100.386719 115.921875 98.558594 119.109375 96.78125 C 130.648438 90.339844 142.574219 83.679688 149.136719 79 Z M 193.679688 115.277344 C 193.425781 115.089844 191.25 113.394531 192.066406 112.253906 C 192.511719 111.628906 193.585938 111.535156 194.625 111.449219 C 194.875 111.429688 195.117188 111.40625 195.351562 111.378906 C 195.570312 111.355469 195.789062 111.34375 196.007812 111.339844 C 196.957031 111.308594 197.804688 111.578125 198.554688 112.15625 C 199.367188 112.84375 199.679688 114.050781 199.246094 114.855469 C 199.015625 115.210938 198.714844 115.496094 198.351562 115.710938 C 197.988281 115.929688 197.59375 116.058594 197.171875 116.097656 C 195.894531 116.308594 194.730469 116.035156 193.679688 115.277344 Z M 167.949219 128.457031 C 167.480469 125.757812 166.746094 122.984375 166.035156 120.292969 C 165.28125 117.449219 164.503906 114.507812 164.046875 111.707031 C 164.003906 111.511719 164 111.316406 164.035156 111.117188 C 164.066406 111.128906 164.097656 111.148438 164.121094 111.167969 C 164.269531 111.335938 164.386719 111.519531 164.46875 111.726562 C 166.820312 116.621094 167.761719 121.796875 168.753906 127.273438 L 168.964844 128.417969 C 168.628906 128.457031 168.289062 128.472656 167.953125 128.457031 Z M 170.316406 128.09375 L 170.121094 127.027344 C 169.15625 121.699219 168.15625 116.191406 165.722656 111.125 C 165.5625 110.742188 165.332031 110.40625 165.03125 110.117188 C 164.808594 109.910156 164.542969 109.785156 164.242188 109.742188 C 163.941406 109.695312 163.652344 109.738281 163.375 109.871094 C 162.941406 110.101562 162.46875 110.644531 162.675781 111.929688 C 163.140625 114.800781 163.929688 117.773438 164.6875 120.648438 C 165.355469 123.164062 166.039062 125.753906 166.503906 128.257812 C 164.683594 127.796875 163.140625 126.875 161.871094 125.488281 C 159.636719 123.085938 158.535156 119.84375 157.824219 117.285156 C 157.140625 114.816406 156.457031 111.613281 157.273438 108.703125 C 157.972656 106.210938 160.160156 103.671875 162.992188 103.65625 L 163.023438 103.65625 C 165.601562 103.65625 167.71875 105.691406 169.042969 107.402344 C 171.695312 110.828125 173.113281 115.636719 173.375 122.097656 C 173.46875 124.328125 172.707031 127.136719 170.320312 128.09375 Z M 131.019531 150.757812 C 129.675781 150.058594 129.257812 148.164062 129.148438 146.699219 C 128.980469 144.652344 129.128906 142.628906 129.589844 140.628906 C 130.050781 138.628906 130.804688 136.746094 131.851562 134.980469 C 134.214844 136.464844 136.714844 137.65625 139.355469 138.550781 C 139.464844 140.421875 139.226562 142.246094 138.640625 144.027344 C 138.058594 145.808594 137.167969 147.417969 135.96875 148.859375 C 135.335938 149.660156 134.558594 150.285156 133.640625 150.730469 C 133.226562 150.929688 132.792969 151.03125 132.335938 151.035156 C 131.875 151.039062 131.4375 150.945312 131.023438 150.757812 Z M 96.414062 133.070312 C 96.753906 132.289062 97.550781 131.75 98.390625 131.183594 C 98.90625 130.851562 99.394531 130.484375 99.855469 130.078125 C 100.574219 129.363281 101.4375 128.960938 102.449219 128.875 C 102.792969 128.867188 103.109375 128.957031 103.402344 129.140625 C 104.359375 129.769531 104.421875 131.308594 104.070312 132.472656 C 103.605469 134.023438 102.347656 135.699219 100.585938 135.949219 C 99.484375 136.109375 97.4375 135.382812 96.625 134.316406 C 96.46875 134.152344 96.371094 133.953125 96.332031 133.726562 C 96.292969 133.5 96.320312 133.28125 96.414062 133.070312 Z M 120.699219 110.785156 C 122.304688 112.339844 123.691406 114.898438 122.625 117.238281 L 121.738281 116.59375 C 117.367188 113.40625 112.84375 110.113281 107.589844 108.125 C 107.210938 107.953125 106.8125 107.871094 106.394531 107.875 C 106.089844 107.878906 105.8125 107.96875 105.5625 108.144531 C 105.3125 108.320312 105.132812 108.550781 105.027344 108.835938 C 104.871094 109.300781 104.902344 110.023438 105.941406 110.808594 C 108.257812 112.566406 110.878906 114.175781 113.414062 115.730469 C 115.632812 117.09375 117.914062 118.496094 119.980469 119.988281 C 118.34375 120.914062 116.589844 121.308594 114.714844 121.179688 C 111.441406 120.984375 108.402344 119.394531 106.125 118.03125 C 103.925781 116.71875 101.222656 114.871094 99.804688 112.203125 C 98.589844 109.914062 98.425781 106.570312 100.460938 104.601562 C 101.765625 103.339844 103.597656 102.96875 105.316406 102.96875 C 106.023438 102.972656 106.726562 103.027344 107.425781 103.136719 C 111.710938 103.789062 116.054688 106.292969 120.703125 110.785156 Z M 121.164062 119.136719 C 118.960938 117.507812 116.515625 116.003906 114.140625 114.546875 C 111.636719 113.007812 109.039062 111.417969 106.78125 109.699219 C 106.613281 109.589844 106.476562 109.453125 106.367188 109.285156 C 106.398438 109.273438 106.429688 109.265625 106.464844 109.261719 C 106.6875 109.277344 106.898438 109.332031 107.097656 109.425781 C 112.175781 111.347656 116.421875 114.441406 120.921875 117.71875 L 121.871094 118.40625 C 121.652344 118.667969 121.417969 118.910156 121.164062 119.136719 Z M 89.859375 83.203125 C 90.019531 82.789062 90.277344 82.449219 90.628906 82.183594 C 90.984375 81.917969 91.382812 81.765625 91.820312 81.726562 C 93.375 81.546875 95.132812 81.339844 96.671875 81.800781 C 97.945312 82.179688 99.359375 83.265625 99.453125 84.753906 C 99.542969 86.191406 98.386719 87.390625 97.367188 87.980469 C 95.101562 89.292969 91.929688 88.792969 90.4375 86.878906 C 90.027344 86.359375 89.769531 85.773438 89.667969 85.117188 C 89.566406 84.464844 89.628906 83.824219 89.859375 83.203125 Z M 42.585938 182.027344 C 42.175781 181.507812 41.917969 180.917969 41.816406 180.265625 C 41.710938 179.609375 41.777344 178.972656 42.007812 178.351562 C 42.167969 177.9375 42.421875 177.597656 42.777344 177.332031 C 43.128906 177.066406 43.527344 176.914062 43.96875 176.875 C 45.519531 176.691406 47.28125 176.488281 48.820312 176.945312 C 50.09375 177.324219 51.507812 178.414062 51.601562 179.902344 C 51.691406 181.339844 50.535156 182.539062 49.515625 183.128906 C 47.246094 184.441406 44.074219 183.9375 42.585938 182.027344 Z M 149.867188 254.570312 C 147.792969 255.898438 138.125 256.785156 134.484375 257.121094 C 133.976562 257.167969 133.550781 257.207031 133.226562 257.238281 C 106.554688 259.875 91.324219 261.171875 64.003906 259.375 C 61.792969 257.179688 60.191406 249.480469 58.171875 239.789062 C 57.355469 235.847656 56.425781 231.386719 55.347656 226.800781 C 53.667969 219.648438 48.746094 198.605469 45.675781 185.179688 C 46.011719 185.230469 46.351562 185.257812 46.6875 185.257812 C 47.945312 185.265625 49.121094 184.957031 50.214844 184.332031 C 52.007812 183.292969 53.097656 181.519531 52.992188 179.816406 C 52.855469 177.648438 50.996094 176.144531 49.21875 175.613281 C 47.402344 175.074219 45.496094 175.296875 43.808594 175.496094 C 43.707031 175.507812 43.609375 175.53125 43.511719 175.546875 C 43.460938 175.316406 43.414062 175.09375 43.371094 174.886719 L 40.59375 161.90625 C 38.363281 151.46875 31.570312 119.699219 31.515625 102.496094 C 31.511719 100.511719 31.578125 98.4375 32.445312 96.730469 C 34.53125 92.644531 40.058594 92.023438 44.867188 92.03125 C 44.992188 94.308594 46.089844 101.71875 50.96875 127.46875 C 54.960938 148.519531 60.144531 174.625 64.867188 197.476562 C 64.835938 197.488281 64.800781 197.492188 64.769531 197.503906 C 62.796875 198.097656 62.691406 200.515625 63.25 202.578125 C 63.476562 203.359375 63.839844 204.066406 64.351562 204.695312 C 64.859375 205.328125 65.472656 205.835938 66.1875 206.222656 C 66.367188 206.320312 66.550781 206.40625 66.742188 206.484375 C 67.441406 209.839844 68.132812 213.113281 68.808594 216.28125 C 68.429688 216.445312 68.03125 216.613281 67.621094 216.785156 C 64.632812 218.03125 60.910156 219.585938 61.4375 222.753906 C 62.113281 226.824219 66.628906 227.097656 70.265625 227.320312 C 70.582031 227.339844 70.894531 227.359375 71.199219 227.378906 C 71.5 228.753906 71.796875 230.097656 72.085938 231.40625 L 72.183594 231.847656 L 72.628906 231.9375 C 75.46875 232.503906 80.105469 232.730469 85.585938 232.730469 C 94.726562 232.730469 106.226562 232.097656 115.675781 231.332031 C 130.6875 230.121094 147.597656 228.058594 151.910156 225.800781 C 152.074219 227.167969 152.261719 228.597656 152.460938 230.09375 C 153.699219 239.464844 155.242188 251.125 149.867188 254.570312 Z M 59.183594 130.398438 L 58.476562 131.558594 C 58.148438 131.398438 57.832031 131.210938 57.535156 130.992188 C 59.042969 128.546875 60.394531 125.894531 61.695312 123.316406 C 63.078125 120.578125 64.511719 117.746094 66.121094 115.210938 C 66.429688 114.726562 66.625 114.648438 66.675781 114.636719 C 66.695312 114.65625 66.707031 114.679688 66.710938 114.707031 C 66.71875 114.917969 66.683594 115.125 66.609375 115.328125 C 65.121094 120.644531 62.238281 125.382812 59.183594 130.398438 Z M 60.371094 131.121094 C 63.339844 126.246094 66.40625 121.207031 67.949219 115.703125 C 68.089844 115.296875 68.132812 114.882812 68.078125 114.457031 C 68.03125 114.144531 67.890625 113.875 67.664062 113.652344 C 67.4375 113.433594 67.164062 113.300781 66.847656 113.257812 C 66.152344 113.179688 65.507812 113.582031 64.949219 114.464844 C 63.300781 117.058594 61.855469 119.921875 60.457031 122.6875 C 59.203125 125.164062 57.914062 127.714844 56.488281 130.058594 C 55.238281 128.652344 54.566406 127.007812 54.480469 125.128906 C 54.296875 121.914062 55.667969 118.652344 56.882812 116.171875 C 58.0625 113.769531 59.769531 110.769531 62.550781 108.859375 C 64.183594 107.757812 65.984375 107.183594 67.953125 107.144531 C 69.097656 107.113281 70.15625 107.402344 71.128906 108.015625 C 73.308594 109.46875 73.652344 112.316406 73.558594 114.449219 C 73.367188 118.746094 71.148438 123.457031 66.773438 128.851562 C 65.246094 130.742188 62.566406 132.605469 59.820312 132.03125 Z M 61.761719 107.714844 C 59.765625 109.15625 58.164062 110.953125 56.957031 113.101562 C 53.1875 114.167969 50.820312 108.726562 49.535156 105.777344 C 49.417969 105.503906 49.3125 105.257812 49.210938 105.042969 C 48.910156 104.371094 48.015625 102.085938 49.191406 100.742188 C 49.957031 99.867188 51.332031 99.761719 52.078125 99.785156 C 54.703125 99.84375 57.015625 101.140625 58.488281 102.21875 C 60.253906 103.59375 61.867188 105.128906 63.324219 106.828125 C 62.78125 107.082031 62.261719 107.375 61.761719 107.714844 Z M 66.855469 205.003906 C 65.714844 204.386719 64.960938 203.457031 64.59375 202.214844 C 64.511719 201.910156 63.828125 199.238281 65.171875 198.835938 C 65.90625 198.613281 66.8125 199.199219 67.683594 199.765625 C 67.894531 199.90625 68.101562 200.035156 68.304688 200.15625 C 69.351562 200.726562 70.039062 201.582031 70.359375 202.734375 C 70.582031 203.769531 70.085938 204.917969 69.257812 205.289062 C 68.410156 205.578125 67.609375 205.480469 66.855469 205.003906 Z M 70.347656 225.933594 C 66.222656 225.679688 63.269531 225.289062 62.808594 222.527344 C 62.464844 220.445312 65.488281 219.183594 68.15625 218.070312 C 69.011719 217.710938 69.820312 217.375 70.523438 217.015625 C 71.253906 216.59375 72.035156 216.320312 72.871094 216.191406 C 72.964844 216.183594 73.058594 216.179688 73.152344 216.179688 C 73.796875 216.152344 74.347656 216.367188 74.804688 216.824219 C 75.445312 217.554688 75.355469 218.753906 75.210938 219.925781 L 74.492188 225.675781 C 74.429688 226.183594 74.339844 226.300781 74.296875 226.328125 C 74.121094 226.351562 73.949219 226.339844 73.78125 226.289062 C 72.644531 226.089844 71.5 225.972656 70.347656 225.933594 Z M 155.289062 202.195312 C 155.660156 204.761719 153.929688 207.152344 152.410156 208.703125 C 149.378906 211.800781 144.8125 213.867188 138.449219 215.015625 C 136.253906 215.414062 133.363281 215.042969 132.089844 212.808594 L 133.125 212.46875 C 138.265625 210.777344 143.582031 209.03125 148.265625 205.925781 C 148.625 205.714844 148.925781 205.441406 149.167969 205.101562 C 149.339844 204.851562 149.429688 204.574219 149.433594 204.269531 C 149.4375 203.960938 149.355469 203.683594 149.1875 203.429688 C 148.898438 203.03125 148.296875 202.636719 147.050781 203.019531 C 144.269531 203.871094 141.433594 205.0625 138.691406 206.210938 C 136.292969 207.214844 133.820312 208.25 131.402344 209.054688 C 131.605469 207.1875 132.308594 205.53125 133.507812 204.085938 C 135.578125 201.542969 138.640625 200.007812 141.078125 198.949219 C 143.085938 198.078125 145.628906 197.136719 148.195312 197.136719 C 148.632812 197.136719 149.066406 197.164062 149.5 197.222656 C 152.066406 197.574219 154.878906 199.394531 155.285156 202.195312 Z M 131.582031 211.511719 C 131.496094 211.183594 131.433594 210.851562 131.402344 210.515625 C 134.011719 209.675781 136.660156 208.570312 139.230469 207.492188 C 141.941406 206.359375 144.746094 205.183594 147.460938 204.347656 C 147.644531 204.277344 147.839844 204.246094 148.039062 204.253906 C 148.03125 204.289062 148.019531 204.320312 148 204.347656 C 147.859375 204.519531 147.691406 204.660156 147.496094 204.769531 C 142.972656 207.773438 137.976562 209.414062 132.691406 211.148438 Z M 147.933594 195.75 C 145.210938 195.808594 142.597656 196.773438 140.523438 197.671875 C 137.945312 198.789062 134.691406 200.429688 132.429688 203.207031 C 130.066406 206.113281 129.332031 209.898438 130.5625 212.851562 C 131.710938 215.601562 134.40625 216.542969 136.902344 216.542969 C 137.507812 216.542969 138.105469 216.488281 138.699219 216.382812 C 143.621094 215.492188 147.53125 214.058594 150.546875 212.03125 C 151.320312 217.632812 151.746094 221.9375 151.753906 224.246094 C 150.773438 225.632812 138.269531 228.050781 116.796875 229.839844 C 100.449219 231.203125 80.867188 231.96875 73.34375 230.652344 C 73.117188 229.628906 72.886719 228.578125 72.652344 227.511719 C 72.949219 227.550781 73.234375 227.59375 73.496094 227.648438 C 73.71875 227.699219 73.945312 227.726562 74.171875 227.730469 C 74.460938 227.738281 74.730469 227.671875 74.980469 227.535156 C 75.710938 227.121094 75.820312 226.257812 75.871094 225.84375 L 76.589844 220.09375 C 76.765625 218.675781 76.867188 217.066406 75.851562 215.902344 C 75.449219 215.484375 74.976562 215.175781 74.425781 214.980469 C 73.878906 214.785156 73.316406 214.726562 72.738281 214.804688 C 71.804688 214.925781 70.921875 215.210938 70.097656 215.664062 C 69.488281 212.796875 68.863281 209.847656 68.230469 206.824219 C 68.300781 206.828125 68.375 206.839844 68.445312 206.839844 C 68.925781 206.84375 69.382812 206.75 69.820312 206.554688 C 70.1875 206.367188 70.511719 206.125 70.796875 205.828125 C 71.082031 205.53125 71.308594 205.195312 71.480469 204.824219 C 71.652344 204.449219 71.757812 204.058594 71.800781 203.648438 C 71.839844 203.242188 71.8125 202.835938 71.71875 202.4375 C 71.523438 201.695312 71.191406 201.027344 70.722656 200.421875 C 70.253906 199.816406 69.6875 199.332031 69.019531 198.960938 C 68.828125 198.84375 68.636719 198.71875 68.4375 198.59375 C 67.777344 198.117188 67.0625 197.753906 66.289062 197.5 C 59.300781 163.699219 52.222656 127.328125 48.625 107.167969 C 49.9375 110.109375 52.25 114.640625 55.953125 114.636719 C 56 114.636719 56.046875 114.632812 56.09375 114.632812 C 55.929688 114.945312 55.773438 115.253906 55.628906 115.554688 C 54.339844 118.1875 52.882812 121.664062 53.085938 125.203125 C 53.308594 128.929688 55.519531 132.058594 58.734375 133.175781 C 59.414062 133.414062 60.117188 133.535156 60.839844 133.535156 C 63.695312 133.535156 66.300781 131.648438 67.855469 129.730469 C 72.421875 124.09375 74.742188 119.117188 74.949219 114.515625 C 75.058594 112.023438 74.625 108.675781 71.902344 106.859375 C 69.851562 105.492188 67.125 105.507812 64.710938 106.285156 C 63.066406 104.46875 61.359375 102.597656 59.3125 101.097656 C 56.964844 99.382812 54.476562 98.449219 52.109375 98.394531 C 50.410156 98.351562 48.992188 98.863281 48.144531 99.828125 C 47.882812 100.128906 47.675781 100.464844 47.523438 100.835938 C 46.679688 95.855469 46.203125 92.625 46.203125 91.703125 C 47.964844 90.71875 61.5625 88.753906 88.613281 86.457031 C 88.796875 86.917969 89.042969 87.34375 89.34375 87.738281 C 89.984375 88.507812 90.761719 89.101562 91.671875 89.519531 C 92.585938 89.9375 93.542969 90.132812 94.546875 90.113281 C 95.800781 90.117188 96.976562 89.808594 98.070312 89.183594 C 98.777344 88.804688 99.371094 88.289062 99.851562 87.640625 C 100.328125 86.992188 100.648438 86.273438 100.804688 85.484375 C 110.347656 84.773438 115.785156 84.496094 117.292969 84.519531 C 117.582031 85.855469 118.03125 87.804688 118.46875 89.699219 C 118.910156 91.601562 119.359375 93.554688 119.648438 94.890625 L 118.4375 95.570312 C 114.78125 97.613281 110.996094 99.722656 107.449219 101.738281 C 105.007812 101.394531 101.71875 101.460938 99.5 103.605469 C 98.425781 104.667969 97.796875 105.953125 97.613281 107.457031 C 89.332031 112.429688 85.046875 115.574219 83.761719 117.617188 C 83.472656 118.085938 83.316406 118.597656 83.289062 119.144531 C 79.148438 121.050781 75.882812 127.238281 76.867188 131.488281 C 77.5625 134.511719 82.285156 138.90625 86.453125 142.785156 C 88.253906 144.464844 89.808594 145.910156 90.644531 146.902344 C 94.003906 150.886719 96.667969 153.78125 99.246094 156.574219 C 101.8125 159.363281 104.464844 162.242188 107.804688 166.203125 C 113.515625 172.980469 119.863281 179.199219 127.664062 179.199219 C 127.980469 179.199219 128.300781 179.1875 128.625 179.167969 C 135.066406 178.746094 138.996094 175.890625 142.75 172.570312 C 144.140625 176.746094 146.042969 185.257812 147.933594 195.753906 Z M 201.511719 139.480469 C 201.070312 140.929688 199.285156 141.683594 197.863281 142.058594 C 197.5625 142.140625 197.246094 142.222656 196.921875 142.3125 C 192.957031 143.386719 186.96875 145.007812 185.589844 141.65625 C 184.386719 138.738281 186.566406 134.980469 187.886719 133.402344 C 188.265625 132.984375 188.714844 132.667969 189.238281 132.457031 C 189.757812 132.246094 190.300781 132.15625 190.863281 132.195312 C 193.597656 132.195312 197.03125 133.960938 198.746094 134.960938 C 199.648438 135.4375 200.402344 136.085938 201.007812 136.910156 C 201.277344 137.28125 201.457031 137.691406 201.546875 138.140625 C 201.636719 138.589844 201.625 139.035156 201.511719 139.480469 Z M 242.414062 111.914062 C 241.425781 114.339844 238.605469 115.886719 236.261719 115.289062 C 235.617188 115.128906 235.054688 114.820312 234.574219 114.367188 C 234.089844 113.910156 233.75 113.367188 233.554688 112.734375 C 233.425781 112.308594 233.421875 111.882812 233.539062 111.457031 C 233.65625 111.03125 233.875 110.667969 234.203125 110.367188 C 235.316406 109.273438 236.578125 108.035156 238.078125 107.453125 C 238.609375 107.25 239.160156 107.148438 239.730469 107.144531 C 240.660156 107.101562 241.445312 107.417969 242.085938 108.085938 C 243.039062 109.167969 242.855469 110.824219 242.414062 111.914062 Z M 267.195312 96.246094 C 266.035156 102.234375 260.199219 103.894531 253.445312 105.8125 C 251.886719 106.257812 250.273438 106.71875 248.664062 107.246094 C 247.085938 107.761719 245.546875 108.371094 244.046875 109.078125 C 243.910156 108.363281 243.605469 107.726562 243.132812 107.167969 C 241.699219 105.539062 239.308594 105.488281 237.574219 106.15625 C 235.808594 106.839844 234.4375 108.1875 233.226562 109.375 C 232.726562 109.851562 232.382812 110.425781 232.199219 111.09375 C 232.015625 111.761719 232.019531 112.429688 232.210938 113.097656 C 232.515625 114.171875 233.117188 115.039062 234.011719 115.707031 C 233.679688 115.972656 233.351562 116.238281 233.023438 116.507812 C 229.890625 119.0625 226.652344 121.703125 222.015625 124.21875 C 219.921875 125.285156 217.765625 126.210938 215.550781 126.996094 C 212.148438 128.292969 208.628906 129.628906 206.195312 131.734375 C 205.128906 132.65625 203.46875 133.914062 201.480469 135.304688 C 200.875 134.695312 200.195312 134.179688 199.445312 133.757812 C 196.007812 131.761719 189.800781 128.945312 186.820312 132.515625 C 185.203125 134.449219 182.851562 138.664062 184.300781 142.191406 C 184.660156 143.101562 185.265625 143.800781 186.117188 144.285156 C 183.199219 145.902344 180.34375 147.632812 177.347656 149.460938 C 169.824219 154.171875 162.0625 158.464844 154.074219 162.332031 C 149.589844 164.480469 146.5 167.292969 143.511719 170.007812 C 139.191406 173.933594 135.460938 177.324219 128.527344 177.777344 C 120.898438 178.273438 114.574219 172.078125 108.863281 165.308594 C 105.503906 161.320312 102.839844 158.429688 100.261719 155.632812 C 97.695312 152.847656 95.042969 149.964844 91.703125 146.003906 C 90.339844 144.519531 88.902344 143.109375 87.394531 141.765625 C 83.777344 138.398438 78.820312 133.78125 78.214844 131.175781 C 77.410156 127.695312 80.058594 122.507812 83.410156 120.640625 C 83.425781 120.710938 83.4375 120.78125 83.453125 120.855469 C 86.054688 131.246094 115.734375 155.597656 116.925781 156.28125 C 117.859375 156.808594 118.859375 157.066406 119.929688 157.054688 C 122.5 157.054688 125.1875 155.652344 127.421875 154.269531 C 128.554688 153.574219 129.6875 152.878906 130.820312 152.183594 C 131.277344 152.347656 131.746094 152.425781 132.230469 152.421875 C 132.914062 152.421875 133.570312 152.28125 134.195312 152.007812 C 135.3125 151.476562 136.253906 150.730469 137.023438 149.765625 C 137.636719 149.046875 138.175781 148.277344 138.640625 147.453125 C 148.75 141.402344 159.113281 135.457031 169.4375 129.777344 L 169.429688 129.757812 C 169.671875 129.722656 169.914062 129.671875 170.152344 129.613281 C 171.347656 129.304688 172.332031 128.671875 173.101562 127.707031 C 180.441406 123.71875 187.886719 119.863281 193.660156 116.902344 C 194.519531 117.339844 195.433594 117.554688 196.398438 117.554688 C 196.730469 117.554688 197.0625 117.527344 197.390625 117.472656 C 198.03125 117.40625 198.621094 117.199219 199.160156 116.855469 C 199.703125 116.511719 200.140625 116.0625 200.472656 115.515625 C 200.835938 114.8125 200.929688 114.070312 200.757812 113.300781 C 218.367188 104.445312 236.464844 96.019531 254.566406 88.265625 C 256.628906 87.386719 258.761719 86.46875 260.441406 84.859375 C 261.519531 83.84375 262.246094 82.621094 262.625 81.1875 C 266.449219 87.175781 268.285156 90.652344 267.195312 96.242188 Z M 267.195312 96.246094 " fill-opacity="1" fill-rule="nonzero"/></g><path fill="#a9a0f0" d="M 183.429688 103.59375 L 183.863281 104.128906 L 184.402344 103.699219 C 186.207031 102.234375 187.726562 100.519531 188.964844 98.554688 C 190.203125 96.589844 191.09375 94.476562 191.632812 92.21875 C 192.265625 89.640625 191.976562 87.707031 190.765625 86.472656 C 190.28125 86.011719 189.722656 85.675781 189.089844 85.464844 C 188.457031 85.253906 187.808594 85.191406 187.144531 85.269531 C 185.917969 85.421875 184.789062 85.839844 183.757812 86.515625 C 181.941406 87.652344 180.414062 89.09375 179.171875 90.839844 C 177.925781 92.585938 177.0625 94.5 176.578125 96.585938 L 176.472656 97.050781 L 176.867188 97.316406 C 179.339844 99.109375 181.527344 101.203125 183.429688 103.59375 Z M 184.476562 87.703125 C 185.328125 87.140625 186.261719 86.789062 187.273438 86.652344 C 188.230469 86.53125 189.0625 86.792969 189.773438 87.445312 C 190.621094 88.3125 190.796875 89.808594 190.28125 91.886719 C 189.804688 93.882812 189.035156 95.757812 187.972656 97.515625 C 186.910156 99.269531 185.605469 100.824219 184.0625 102.175781 C 182.28125 100.03125 180.277344 98.121094 178.046875 96.449219 C 178.527344 94.636719 179.320312 92.972656 180.429688 91.464844 C 181.542969 89.953125 182.890625 88.699219 184.476562 87.703125 Z M 184.476562 87.703125 " fill-opacity="1" fill-rule="nonzero"/><path fill="#a9a0f0" d="M 214.476562 68.835938 C 214.644531 68.835938 214.808594 68.824219 214.976562 68.804688 C 217.058594 68.507812 218.871094 66.757812 219.597656 64.351562 C 220.105469 62.648438 219.921875 60.476562 218.355469 59.453125 C 216.695312 58.371094 214.523438 59.21875 213.101562 60.535156 C 212.695312 60.890625 212.261719 61.214844 211.804688 61.507812 C 210.835938 62.160156 209.835938 62.839844 209.332031 63.992188 C 209.140625 64.433594 209.078125 64.890625 209.148438 65.367188 C 209.214844 65.84375 209.40625 66.265625 209.710938 66.636719 C 210.742188 67.988281 212.925781 68.835938 214.476562 68.835938 Z M 210.605469 64.550781 C 210.949219 63.765625 211.742188 63.226562 212.582031 62.660156 C 213.101562 62.328125 213.589844 61.960938 214.046875 61.554688 C 214.765625 60.839844 215.632812 60.441406 216.640625 60.355469 C 216.988281 60.347656 217.304688 60.4375 217.59375 60.621094 C 218.554688 61.246094 218.613281 62.785156 218.265625 63.953125 C 217.796875 65.5 216.539062 67.175781 214.78125 67.429688 C 213.675781 67.585938 211.632812 66.863281 210.820312 65.796875 C 210.660156 65.628906 210.5625 65.433594 210.523438 65.203125 C 210.484375 64.976562 210.511719 64.757812 210.605469 64.550781 Z M 210.605469 64.550781 " fill-opacity="1" fill-rule="nonzero"/><path fill="#a9a0f0" d="M 140.636719 100.941406 C 140.925781 101.074219 141.230469 101.136719 141.546875 101.128906 C 142.210938 101.101562 142.832031 100.917969 143.402344 100.570312 C 143.972656 100.226562 144.425781 99.765625 144.757812 99.1875 C 145.046875 98.652344 145.765625 96.761719 142.949219 95.089844 C 141.890625 94.464844 140.453125 94.699219 139.492188 95.214844 C 139.113281 95.425781 138.824219 95.722656 138.621094 96.101562 C 138.417969 96.480469 138.335938 96.886719 138.367188 97.316406 C 138.40625 98.074219 138.628906 98.777344 139.03125 99.421875 C 139.4375 100.066406 139.96875 100.574219 140.636719 100.941406 Z M 140.148438 96.441406 C 140.558594 96.222656 141 96.109375 141.464844 96.101562 C 141.738281 96.09375 141.996094 96.15625 142.238281 96.285156 C 143.101562 96.800781 144.027344 97.605469 143.53125 98.539062 C 143.058594 99.425781 141.714844 99.914062 141.230469 99.6875 C 140.804688 99.429688 140.460938 99.089844 140.199219 98.664062 C 139.941406 98.242188 139.792969 97.78125 139.757812 97.28125 C 139.742188 96.65625 140.046875 96.492188 140.148438 96.441406 Z M 140.148438 96.441406 " fill-opacity="1" fill-rule="nonzero"/><path fill="#a9a0f0" d="M 129.859375 166.296875 C 128.804688 165.667969 127.363281 165.90625 126.402344 166.421875 C 126.027344 166.632812 125.738281 166.925781 125.535156 167.308594 C 125.332031 167.6875 125.246094 168.09375 125.28125 168.523438 C 125.320312 169.28125 125.542969 169.984375 125.945312 170.628906 C 126.347656 171.273438 126.882812 171.78125 127.546875 172.148438 C 127.835938 172.28125 128.140625 172.34375 128.457031 172.335938 C 129.125 172.308594 129.742188 172.125 130.3125 171.777344 C 130.882812 171.433594 131.335938 170.972656 131.671875 170.394531 C 131.957031 169.855469 132.675781 167.96875 129.859375 166.296875 Z M 130.441406 169.742188 C 129.972656 170.628906 128.628906 171.121094 128.144531 170.890625 C 127.714844 170.636719 127.371094 170.296875 127.113281 169.871094 C 126.851562 169.445312 126.703125 168.984375 126.671875 168.488281 C 126.65625 167.863281 126.957031 167.699219 127.058594 167.648438 C 127.472656 167.429688 127.910156 167.316406 128.378906 167.308594 C 128.652344 167.300781 128.910156 167.363281 129.148438 167.492188 C 130.011719 168.003906 130.9375 168.8125 130.441406 169.742188 Z M 130.441406 169.742188 " fill-opacity="1" fill-rule="nonzero"/><path fill="#a9a0f0" d="M 228.675781 92.980469 C 230.21875 92.949219 231.667969 92.5625 233.019531 91.816406 C 238.972656 88.601562 242.859375 85.019531 244.90625 80.863281 C 246.003906 78.632812 247.019531 75.378906 245.613281 72.546875 C 244.046875 69.394531 240.128906 68.3125 237.066406 68.875 C 233.757812 69.484375 230.980469 71.648438 228.929688 73.464844 C 226.824219 75.332031 224.246094 77.902344 222.960938 81.246094 C 221.617188 84.746094 222.101562 88.574219 224.191406 90.996094 C 224.75 91.644531 225.425781 92.144531 226.210938 92.492188 C 226.996094 92.839844 227.816406 93.003906 228.675781 92.980469 Z M 224.742188 89.40625 C 224.558594 89.121094 224.398438 88.824219 224.261719 88.511719 C 226.480469 86.902344 228.65625 85.023438 230.761719 83.199219 C 232.984375 81.277344 235.28125 79.289062 237.597656 77.648438 C 237.753906 77.523438 237.925781 77.433594 238.117188 77.378906 C 238.121094 77.414062 238.121094 77.445312 238.113281 77.480469 C 238.027344 77.683594 237.914062 77.871094 237.761719 78.035156 C 234.394531 82.300781 230.160156 85.417969 225.671875 88.714844 Z M 224.261719 81.746094 C 225.433594 78.6875 227.867188 76.269531 229.851562 74.507812 C 231.765625 72.808594 234.347656 70.789062 237.316406 70.242188 C 237.769531 70.160156 238.226562 70.121094 238.6875 70.121094 C 240.925781 70.121094 243.324219 71.066406 244.363281 73.164062 C 245.519531 75.488281 244.617188 78.296875 243.65625 80.246094 C 241.742188 84.132812 238.046875 87.519531 232.359375 90.589844 C 230.390625 91.652344 227.53125 92.199219 225.625 90.476562 L 226.496094 89.835938 C 230.859375 86.628906 235.371094 83.308594 238.851562 78.894531 C 239.128906 78.582031 239.328125 78.230469 239.457031 77.832031 C 239.542969 77.539062 239.539062 77.246094 239.449219 76.957031 C 239.355469 76.664062 239.191406 76.425781 238.953125 76.234375 C 238.554688 75.945312 237.855469 75.757812 236.792969 76.511719 C 234.421875 78.1875 232.097656 80.199219 229.851562 82.144531 C 227.882812 83.847656 225.851562 85.605469 223.804688 87.121094 C 223.417969 85.285156 223.570312 83.492188 224.261719 81.746094 Z M 224.261719 81.746094 " fill-opacity="1" fill-rule="nonzero"/></svg>