<svg xmlns="http://www.w3.org/2000/svg" xmlns:xlink="http://www.w3.org/1999/xlink" width="400" zoomAndPan="magnify" viewBox="0 0 300 299.999988" height="400" preserveAspectRatio="xMidYMid meet" version="1.0"><defs><clipPath id="519a5c47d4"><path d="M 32.25 30 L 267.75 30 L 267.75 270 L 32.25 270 Z M 32.25 30 " clip-rule="nonzero"/></clipPath></defs><g clip-path="url(#519a5c47d4)"><path fill="currentColor" d="M 236.835938 88.949219 C 237.984375 89.996094 238.527344 91.261719 238.714844 92.734375 C 238.753906 93.035156 239.175781 93.359375 239.492188 93.542969 C 241.738281 94.816406 244.011719 96.046875 246.261719 97.316406 C 247.074219 97.773438 247.832031 98.316406 248.628906 98.800781 C 250.328125 99.832031 252.117188 100.738281 253.714844 101.90625 C 255.757812 103.398438 257.652344 105.089844 259.59375 106.714844 C 261.195312 108.054688 262.753906 109.441406 264.375 110.757812 C 266.050781 112.121094 267.257812 113.914062 267.550781 115.933594 C 267.742188 117.261719 266.890625 118.757812 266.449219 120.160156 C 265.671875 122.632812 263.273438 123.113281 261.378906 124.207031 C 261.164062 124.332031 260.851562 124.390625 260.738281 124.574219 C 260.003906 125.785156 258.585938 125.757812 257.539062 126.394531 C 257.0625 126.6875 256.523438 127.058594 256.285156 127.53125 C 255.496094 129.097656 254.851562 130.734375 254.109375 132.324219 C 253.433594 133.769531 252.167969 134.476562 250.691406 134.84375 C 249.925781 135.035156 249.617188 135.207031 249.796875 136.214844 C 250.132812 138.078125 250.09375 140.007812 250.226562 141.90625 C 250.273438 142.5625 250.40625 143.210938 250.433594 143.863281 C 250.484375 145.246094 250.46875 146.628906 250.515625 148.011719 C 250.582031 150.011719 250.820312 152.015625 250.722656 154.003906 C 250.578125 157.070312 250.339844 160.148438 249.902344 163.183594 C 249.460938 166.285156 248.773438 169.347656 248.117188 172.410156 C 247.609375 174.785156 247.003906 177.140625 246.398438 179.496094 C 245.777344 181.925781 245.113281 184.34375 244.457031 186.761719 C 243.910156 188.761719 243.335938 190.75 242.796875 192.75 C 242.425781 194.125 242.105469 195.515625 241.742188 196.890625 C 241.648438 197.261719 241.46875 197.609375 241.363281 197.976562 C 240.71875 200.269531 240.117188 202.574219 239.4375 204.855469 C 239.023438 206.265625 238.472656 207.632812 238.03125 209.03125 C 237.597656 210.410156 237.328125 211.847656 236.800781 213.1875 C 235.917969 215.445312 234.847656 217.628906 233.9375 219.878906 C 233.539062 220.867188 233.398438 221.957031 233.050781 222.972656 C 232.226562 225.375 231.324219 227.753906 230.503906 230.160156 C 230.136719 231.238281 230.007812 232.414062 229.558594 233.449219 C 228.417969 236.066406 227.152344 238.628906 225.945312 241.21875 C 225.144531 242.941406 224.375 244.683594 223.558594 246.398438 C 223.34375 246.847656 222.984375 247.226562 222.710938 247.648438 C 221.621094 249.339844 220.664062 251.132812 219.421875 252.703125 C 217.800781 254.753906 216.066406 256.738281 214.183594 258.550781 C 211.816406 260.835938 209.074219 262.625 206.070312 264.039062 C 203.085938 265.445312 199.84375 265.589844 196.707031 266.253906 C 195.859375 266.433594 195.023438 266.691406 194.167969 266.792969 C 192.167969 267.027344 190.15625 267.164062 188.148438 267.378906 C 185.929688 267.617188 183.71875 267.90625 181.496094 268.144531 C 179.90625 268.316406 178.308594 268.5 176.710938 268.570312 C 173.851562 268.699219 170.988281 268.730469 168.125 268.828125 C 164.945312 268.933594 161.765625 269.128906 158.585938 269.171875 C 157.09375 269.191406 155.601562 268.886719 154.105469 268.820312 C 152.605469 268.753906 151.097656 268.816406 149.59375 268.792969 C 147.832031 268.761719 146.070312 268.695312 144.308594 268.652344 C 143.175781 268.621094 142.035156 268.683594 140.910156 268.566406 C 137.34375 268.195312 133.785156 267.746094 130.21875 267.355469 C 128.25 267.140625 126.257812 267.109375 124.308594 266.78125 C 120.878906 266.203125 117.421875 265.65625 114.082031 264.714844 C 112.210938 264.183594 110.539062 262.914062 108.8125 261.910156 C 107.703125 261.269531 106.625 260.570312 105.609375 259.792969 C 104.84375 259.210938 104.199219 258.46875 103.503906 257.796875 C 100.882812 255.253906 98.554688 252.492188 96.953125 249.164062 C 96.726562 248.691406 96.195312 248.367188 95.945312 247.902344 C 94.886719 245.910156 93.867188 243.894531 92.859375 241.878906 C 92.042969 240.246094 91.191406 238.628906 90.480469 236.953125 C 89.664062 235.019531 88.980469 233.03125 88.253906 231.0625 C 87.8125 229.855469 87.378906 228.636719 86.988281 227.410156 C 86.78125 226.761719 86.683594 226.074219 86.507812 225.410156 C 86.429688 225.101562 86.289062 224.804688 86.167969 224.507812 C 85.78125 223.5625 85.375 222.628906 85.011719 221.679688 C 84.550781 220.484375 84.152344 219.265625 83.679688 218.074219 C 82.75 215.710938 81.710938 213.386719 80.863281 210.996094 C 80.167969 209.035156 79.6875 207 79.097656 205.003906 C 78.609375 203.332031 78.078125 201.671875 77.617188 199.996094 C 77.449219 199.394531 77.4375 198.757812 77.351562 198.136719 C 77.191406 198.121094 77.027344 198.109375 76.867188 198.09375 C 75.972656 201.085938 75.042969 204.070312 74.191406 207.078125 C 73.335938 210.09375 72.5625 213.128906 71.710938 216.304688 C 74.011719 217.390625 76.488281 218.488281 78.894531 219.726562 C 79.863281 220.226562 80.828125 220.890625 81.523438 221.714844 C 82.585938 222.964844 82.433594 226.4375 81.539062 227.851562 C 80.96875 228.757812 80.242188 228.382812 79.546875 228.242188 C 78.792969 229.871094 79.238281 230.914062 80.773438 231.953125 C 81.554688 232.488281 81.925781 233.929688 82.078125 235.015625 C 82.25 236.234375 81.96875 237.515625 81.878906 238.765625 C 81.800781 239.902344 80.878906 240.601562 79.75 240.371094 C 79.480469 240.316406 79.214844 240.230469 78.882812 240.136719 C 78.828125 241.21875 78.945312 242.058594 79.449219 243.011719 C 79.921875 243.902344 79.714844 245.164062 79.78125 246.261719 C 79.808594 246.679688 79.683594 247.113281 79.761719 247.515625 C 80.074219 249.207031 79.644531 250.113281 78.105469 250.953125 C 77.929688 251.046875 77.804688 251.3125 77.746094 251.523438 C 77.636719 251.90625 77.679688 252.34375 77.511719 252.6875 C 77.164062 253.394531 77.199219 253.882812 77.785156 254.523438 C 78.421875 255.214844 78.671875 256.132812 78.285156 257.15625 C 77.8125 258.402344 77.464844 259.695312 77.089844 260.980469 C 76.773438 262.082031 76.117188 262.710938 74.925781 262.78125 C 73.941406 262.835938 72.898438 263.941406 73.0625 264.90625 C 73.355469 266.644531 72.238281 267.476562 71.058594 268.167969 C 68.882812 269.441406 66.417969 269.777344 63.953125 269.84375 C 61.734375 269.910156 59.496094 269.898438 57.292969 269.65625 C 55.144531 269.417969 52.976562 269.007812 50.914062 268.371094 C 48.207031 267.535156 45.421875 266.699219 42.980469 265.316406 C 40.199219 263.742188 37.289062 262.078125 35.859375 258.894531 C 35.636719 258.402344 35.175781 257.996094 35.027344 257.492188 C 34.78125 256.652344 34.496094 255.738281 34.59375 254.898438 C 34.75 253.496094 34.835938 252.363281 33.671875 251.179688 C 32.226562 249.714844 33.003906 247.835938 33.480469 246.121094 C 33.644531 245.527344 33.792969 244.910156 34.085938 244.378906 C 34.441406 243.734375 34.8125 242.910156 35.402344 242.621094 C 36.90625 241.875 36.316406 240.246094 37.070312 239.226562 C 37.09375 239.195312 36.96875 239.050781 36.914062 238.957031 C 35.824219 237.144531 35.992188 235.484375 37.414062 233.875 C 37.75 233.496094 38.117188 233.125 38.367188 232.691406 C 38.984375 231.628906 39.859375 231.09375 41.09375 231.003906 C 41.421875 230.980469 41.863281 230.589844 41.984375 230.265625 C 42.070312 230.03125 41.726562 229.625 41.554688 229.304688 C 41.324219 228.867188 40.996094 228.460938 40.84375 227.996094 C 40.308594 226.355469 41.597656 223.085938 43.394531 222.191406 C 44.140625 221.820312 45.15625 221.992188 46.070312 221.917969 C 46.152344 221.617188 46.175781 221.234375 46.351562 220.953125 C 46.765625 220.292969 46.738281 219.820312 46.121094 219.257812 C 45.800781 218.96875 45.566406 218.339844 45.632812 217.917969 C 45.789062 216.886719 46.074219 215.859375 46.449219 214.886719 C 46.59375 214.519531 47.085938 214.1875 47.492188 214.039062 C 49.636719 213.257812 51.875 213.183594 54.125 213.269531 C 55.316406 213.3125 56.511719 213.40625 57.703125 213.460938 C 59.59375 213.542969 60.070312 213.027344 60.261719 211.140625 C 60.414062 209.65625 60.6875 208.167969 61.0625 206.722656 C 61.324219 205.707031 61.953125 204.789062 62.242188 203.777344 C 62.753906 201.988281 63.070312 200.140625 63.585938 198.351562 C 64.222656 196.136719 65.015625 193.96875 65.679688 191.761719 C 66.453125 189.207031 67.15625 186.628906 67.90625 184.066406 C 68.261719 182.859375 68.695312 181.671875 69.03125 180.457031 C 69.539062 178.617188 70.226562 176.785156 70.398438 174.90625 C 70.542969 173.320312 70.101562 171.671875 69.851562 170.0625 C 69.300781 166.46875 68.667969 162.890625 68.15625 159.292969 C 67.917969 157.601562 67.78125 155.882812 67.773438 154.175781 C 67.761719 151.105469 67.796875 148.03125 67.976562 144.964844 C 68.15625 141.890625 68.554688 138.828125 68.789062 135.753906 C 68.8125 135.5 68.378906 135.054688 68.074219 134.953125 C 66.660156 134.484375 65.265625 134.015625 64.535156 132.566406 C 64.191406 131.890625 63.902344 131.1875 63.597656 130.492188 C 63.121094 129.417969 62.664062 128.332031 62.164062 127.269531 C 62.03125 126.996094 61.796875 126.621094 61.554688 126.570312 C 59.707031 126.203125 58.3125 125.019531 56.789062 124.066406 C 56.207031 123.703125 55.585938 123.382812 54.953125 123.132812 C 52.957031 122.347656 52.132812 120.679688 51.574219 118.792969 C 51.515625 118.589844 51.546875 118.34375 51.449219 118.164062 C 50.605469 116.609375 51.132812 115.3125 51.777344 113.757812 C 52.527344 111.9375 54.019531 111.058594 55.28125 109.878906 C 57.566406 107.742188 59.941406 105.699219 62.359375 103.714844 C 63.558594 102.730469 64.988281 102.027344 66.214844 101.070312 C 67.160156 100.328125 67.863281 99.265625 68.828125 98.554688 C 71.085938 96.890625 72.359375 94.445312 74.085938 92.359375 C 74.988281 91.269531 75.882812 90.105469 77.363281 89.613281 C 78.011719 89.398438 78.578125 88.902344 79.132812 88.46875 C 79.269531 88.363281 79.269531 87.996094 79.230469 87.769531 C 79.042969 86.699219 79.203125 85.703125 79.625 84.695312 C 79.773438 84.335938 79.683594 83.597656 79.417969 83.375 C 76.578125 81.039062 75.625 78.050781 75.652344 74.425781 C 75.667969 72.523438 75.625 70.660156 76.304688 68.910156 C 77.347656 66.230469 78.316406 63.507812 80.011719 61.121094 C 80.910156 59.851562 81.601562 58.441406 82.464844 57.144531 C 82.679688 56.820312 83.171875 56.671875 83.554688 56.46875 C 83.773438 56.351562 84.09375 56.351562 84.25 56.1875 C 85.316406 55.050781 86.777344 55.226562 88.101562 55.046875 C 92.445312 54.457031 96.796875 53.929688 101.152344 53.445312 C 102.054688 53.34375 102.992188 53.546875 103.914062 53.585938 C 104.730469 53.621094 105.523438 53.75 105.789062 52.566406 C 106.203125 50.703125 106.796875 48.882812 107.273438 47.03125 C 107.324219 46.828125 107.140625 46.535156 107.007812 46.320312 C 106.605469 45.683594 106.203125 45.046875 105.75 44.445312 C 104.984375 43.425781 105.039062 42.285156 105.273438 41.152344 C 105.601562 39.566406 105.785156 37.894531 106.453125 36.457031 C 107.3125 34.609375 108.648438 33.035156 110.59375 32.089844 C 114.597656 30.152344 118.59375 30.097656 122.277344 32.605469 C 124.144531 33.882812 125.484375 35.8125 125.949219 38.242188 C 126.378906 40.511719 126.144531 42.636719 125.417969 44.800781 C 124.617188 47.1875 123.175781 49.03125 121.199219 50.511719 C 120.863281 50.761719 120.472656 50.941406 120.144531 51.199219 C 119.898438 51.390625 119.714844 51.660156 119.503906 51.894531 C 119.574219 52.050781 119.648438 52.203125 119.722656 52.355469 C 121.804688 52.0625 123.890625 51.769531 125.972656 51.472656 C 126.261719 51.433594 126.546875 51.371094 126.835938 51.363281 C 130.855469 51.289062 134.878906 51.234375 138.902344 51.144531 C 140.972656 51.097656 143.046875 50.980469 145.117188 50.925781 C 147.226562 50.871094 149.335938 50.835938 151.449219 50.824219 C 153.347656 50.816406 155.246094 50.882812 157.144531 50.855469 C 158.832031 50.832031 160.515625 50.707031 162.203125 50.671875 C 163.539062 50.644531 164.878906 50.648438 166.214844 50.703125 C 168.140625 50.785156 170.0625 50.984375 171.992188 51.023438 C 175.578125 51.089844 179.164062 51.050781 182.75 51.109375 C 185.796875 51.160156 188.855469 51.144531 191.886719 51.410156 C 195.710938 51.75 199.507812 52.417969 203.328125 52.8125 C 206.523438 53.144531 209.746094 53.523438 212.945312 53.460938 C 219.558594 53.324219 226.015625 54.566406 232.523438 55.335938 C 233.316406 55.429688 234.019531 56.273438 234.816406 56.382812 C 235.78125 56.519531 236.199219 57.128906 236.566406 57.777344 C 238.054688 60.410156 239.535156 63.050781 240.890625 65.753906 C 241.996094 67.953125 243.023438 70.242188 242.917969 72.769531 C 242.796875 75.628906 242.257812 78.480469 242.308594 81.324219 C 242.363281 84.078125 240.34375 85.320312 238.902344 87.015625 C 238.300781 87.71875 237.546875 88.292969 236.835938 88.953125 Z M 217.140625 95.621094 C 217.320312 95.820312 217.496094 96.1875 217.679688 96.1875 C 218.472656 96.191406 219.277344 96.140625 220.0625 96.019531 C 222.03125 95.707031 223.992188 95.355469 225.953125 95 C 226.894531 94.832031 227.867188 94.730469 228.75 94.398438 C 230.25 93.835938 231.691406 93.117188 233.160156 92.46875 C 233.667969 92.242188 234.183594 92.03125 234.691406 91.820312 C 234.183594 90.460938 234.226562 90.304688 232.367188 91.109375 C 230.046875 92.117188 227.753906 93.203125 225.378906 94.054688 C 223.800781 94.621094 222.105469 94.871094 220.449219 95.195312 C 219.367188 95.40625 218.261719 95.5 217.167969 95.648438 C 215.464844 95.089844 214.085938 96.277344 212.535156 96.609375 C 213.789062 96.609375 215.019531 96.425781 216.238281 96.171875 C 216.5625 96.101562 216.839844 95.808594 217.140625 95.621094 Z M 94.367188 138.125 C 93.953125 139.585938 93.550781 141.082031 93.105469 142.566406 C 92.796875 143.597656 92.367188 144.601562 92.109375 145.644531 C 91.371094 148.683594 90.757812 151.753906 89.96875 154.777344 C 89.242188 157.5625 88.296875 160.289062 87.539062 163.070312 C 86.761719 165.945312 86.164062 168.871094 85.359375 171.738281 C 84.765625 173.84375 83.960938 175.890625 83.261719 177.96875 C 82.765625 179.449219 82.238281 180.921875 81.808594 182.421875 C 81.195312 184.546875 80.6875 186.699219 80.082031 188.828125 C 79.644531 190.367188 79.078125 191.886719 80.136719 193.402344 C 80.195312 193.488281 80.210938 193.605469 80.234375 193.714844 C 80.582031 195.191406 80.859375 196.6875 81.289062 198.140625 C 81.917969 200.265625 82.6875 202.34375 83.339844 204.460938 C 83.871094 206.191406 84.292969 207.957031 84.820312 209.6875 C 85.511719 211.949219 86.265625 214.191406 86.976562 216.445312 C 87.21875 217.203125 87.195312 218.148438 87.660156 218.710938 C 89.277344 220.667969 89.28125 223.222656 90.324219 225.398438 C 91.402344 227.652344 91.957031 230.160156 92.71875 232.5625 C 92.851562 232.980469 92.808594 233.460938 92.976562 233.859375 C 93.730469 235.660156 94.542969 237.4375 95.304688 239.234375 C 95.613281 239.957031 95.734375 240.773438 96.125 241.441406 C 97.574219 243.917969 99.144531 246.320312 100.582031 248.804688 C 101.796875 250.902344 103.253906 252.789062 104.84375 254.621094 C 107.113281 257.230469 110.242188 258.613281 112.949219 260.585938 C 114.171875 261.472656 115.90625 261.742188 117.453125 262.0625 C 119.878906 262.5625 122.34375 262.863281 124.789062 263.261719 C 126.808594 263.59375 128.816406 264 130.84375 264.273438 C 133.125 264.582031 135.421875 264.769531 137.707031 265.027344 C 138.277344 265.089844 138.832031 265.285156 139.398438 265.3125 C 141.398438 265.410156 143.398438 265.441406 145.398438 265.542969 C 147.296875 265.636719 149.195312 265.902344 151.089844 265.882812 C 154.613281 265.851562 158.128906 265.625 161.648438 265.566406 C 164.296875 265.523438 166.949219 265.714844 169.59375 265.632812 C 173.414062 265.507812 177.238281 265.265625 181.054688 264.996094 C 183.242188 264.839844 185.421875 264.578125 187.597656 264.277344 C 189.226562 264.050781 190.828125 263.609375 192.464844 263.402344 C 196.429688 262.902344 200.386719 262.390625 204.179688 261.039062 C 204.722656 260.847656 205.351562 260.808594 205.820312 260.507812 C 207.078125 259.703125 208.207031 258.675781 209.507812 257.953125 C 212.15625 256.488281 214.101562 254.273438 215.925781 251.992188 C 217.367188 250.183594 218.433594 248.078125 219.660156 246.101562 C 219.945312 245.640625 220.125 245.09375 220.484375 244.699219 C 221.742188 243.320312 222.394531 241.632812 222.992188 239.917969 C 223.285156 239.074219 223.488281 238.199219 223.8125 237.371094 C 224.4375 235.78125 225.175781 234.234375 225.761719 232.628906 C 226.5625 230.429688 227.246094 228.1875 228.015625 225.976562 C 228.328125 225.078125 228.78125 224.226562 229.089844 223.324219 C 229.3125 222.671875 229.324219 221.945312 229.566406 221.304688 C 230.105469 219.898438 230.757812 218.539062 231.308594 217.140625 C 231.574219 216.46875 231.679688 215.734375 231.921875 215.050781 C 232.730469 212.765625 233.570312 210.492188 234.386719 208.207031 C 234.453125 208.011719 234.402344 207.777344 234.457031 207.574219 C 235.046875 205.386719 235.632812 203.195312 236.246094 201.015625 C 236.644531 199.585938 237.078125 198.164062 237.507812 196.742188 C 237.902344 195.429688 238.296875 194.113281 238.710938 192.804688 C 239.25 191.09375 239.890625 189.410156 240.328125 187.675781 C 240.921875 185.335938 241.3125 182.945312 241.886719 180.597656 C 242.308594 178.875 242.910156 177.199219 243.382812 175.488281 C 243.765625 174.109375 244.113281 172.71875 244.414062 171.320312 C 244.734375 169.808594 245 168.277344 245.257812 166.75 C 245.492188 165.335938 245.734375 163.917969 245.886719 162.492188 C 246.167969 159.894531 246.609375 157.328125 246.460938 154.675781 C 246.292969 151.746094 246.511719 148.796875 246.480469 145.859375 C 246.457031 143.367188 246.316406 140.878906 246.222656 138.390625 C 246.199219 137.683594 246.160156 136.980469 246.125 136.222656 C 244.632812 137.347656 243.136719 138.097656 241.375 138.128906 C 240.535156 138.144531 239.679688 137.878906 238.859375 137.972656 C 236.402344 138.261719 233.992188 137.949219 231.601562 137.488281 C 231.039062 137.378906 230.839844 137.480469 230.429688 137.800781 C 229.730469 138.347656 228.917969 138.875 228.074219 139.078125 C 226.828125 139.375 225.511719 139.484375 224.222656 139.488281 C 222.03125 139.5 220.3125 138.496094 219.03125 136.710938 C 218.859375 136.46875 218.476562 136.230469 218.199219 136.238281 C 217.027344 136.277344 215.859375 136.445312 214.6875 136.492188 C 213.257812 136.550781 211.824219 136.507812 210.394531 136.5625 C 209.167969 136.609375 207.894531 136.550781 206.730469 136.871094 C 205.191406 137.292969 203.777344 138.144531 202.246094 138.601562 C 200.960938 138.988281 199.558594 138.96875 198.257812 139.316406 C 195.730469 139.992188 193.179688 140.007812 190.609375 139.828125 C 190.035156 139.789062 189.464844 139.609375 188.898438 139.621094 C 186.59375 139.65625 184.769531 138.601562 183.21875 137.0625 C 181.984375 135.832031 181.558594 135.804688 179.945312 136.613281 C 178.550781 137.304688 177.011719 137.71875 175.519531 138.203125 C 175.09375 138.339844 174.5625 138.183594 174.152344 138.347656 C 171.960938 139.226562 169.71875 139.0625 167.449219 138.808594 C 164.746094 138.503906 162.039062 138.230469 159.324219 138.015625 C 158.480469 137.945312 157.621094 138.089844 156.769531 138.164062 C 155.160156 138.308594 153.535156 138.386719 151.945312 138.660156 C 149.953125 139.003906 147.980469 139.191406 145.988281 138.753906 C 145.28125 138.59375 144.570312 138.191406 143.882812 138.238281 C 141.84375 138.386719 140.226562 137.34375 138.476562 136.621094 C 136.945312 135.992188 135.382812 135.277344 133.769531 135.023438 C 130.148438 134.445312 126.703125 135.316406 123.34375 136.71875 C 121.261719 137.585938 119.046875 138.3125 116.765625 137.800781 C 115.003906 137.410156 112.644531 137.617188 112.640625 134.617188 C 111.429688 134.792969 110.367188 134.945312 109.304688 135.109375 C 107.585938 135.371094 105.859375 135.59375 104.152344 135.929688 C 103.144531 136.125 102.164062 136.492188 101.179688 136.796875 C 100.203125 137.097656 99.25 137.515625 98.25 137.703125 C 96.988281 137.9375 95.691406 137.988281 94.367188 138.125 Z M 116.226562 89.683594 C 115.859375 87.832031 115.511719 86.1875 115.207031 84.53125 C 115.109375 84 115.105469 83.449219 115.078125 82.90625 C 114.988281 81.105469 114.796875 79.296875 114.851562 77.5 C 114.898438 76.066406 115.253906 74.644531 115.453125 73.210938 C 115.742188 71.121094 115.96875 69.015625 116.34375 66.941406 C 116.414062 66.570312 117.058594 66.300781 117.4375 65.984375 C 117.742188 66.367188 118.1875 66.707031 118.3125 67.140625 C 118.460938 67.671875 118.363281 68.285156 118.332031 68.859375 C 118.199219 71.453125 117.953125 74.046875 117.945312 76.644531 C 117.9375 79.039062 118.148438 81.433594 118.324219 83.824219 C 118.464844 85.738281 118.683594 87.644531 118.902344 89.550781 C 118.925781 89.75 119.144531 90.03125 119.328125 90.085938 C 120.117188 90.316406 120.917969 90.566406 121.726562 90.648438 C 124.308594 90.910156 126.957031 90.820312 129.457031 91.398438 C 131.714844 91.921875 133.984375 91.949219 136.238281 92.167969 C 139.203125 92.453125 142.203125 92.332031 145.1875 92.453125 C 147.082031 92.53125 148.929688 92.902344 150.875 92.683594 C 153.4375 92.398438 156.046875 92.527344 158.636719 92.464844 C 161.894531 92.386719 165.148438 92.257812 168.402344 92.234375 C 169.679688 92.222656 170.960938 92.511719 172.238281 92.523438 C 174.226562 92.546875 176.214844 92.433594 178.207031 92.414062 C 179.667969 92.402344 181.132812 92.417969 182.59375 92.472656 C 183.273438 92.5 183.945312 92.691406 184.625 92.726562 C 186.035156 92.800781 187.449219 92.8125 188.863281 92.859375 C 190.703125 92.917969 192.542969 92.992188 194.382812 93.046875 C 197.09375 93.125 199.808594 93.214844 202.519531 93.257812 C 203.6875 93.277344 204.863281 93.273438 206.023438 93.148438 C 207.90625 92.941406 209.769531 92.5625 211.65625 92.378906 C 213.511719 92.199219 215.335938 92.328125 217.222656 91.71875 C 219.304688 91.050781 221.59375 90.984375 223.707031 90.222656 C 224.855469 89.808594 226.082031 89.628906 227.230469 89.226562 C 228.558594 88.761719 229.835938 88.144531 231.152344 87.640625 C 233.453125 86.757812 235.847656 86.046875 237.679688 84.28125 C 238.164062 83.816406 238.636719 83.195312 238.796875 82.5625 C 239.125 81.261719 239.253906 79.90625 239.441406 78.570312 C 239.574219 77.636719 239.804688 76.691406 239.746094 75.769531 C 239.652344 74.269531 239.191406 72.78125 239.183594 71.285156 C 239.171875 69.417969 238.351562 67.820312 237.535156 66.339844 C 236.210938 63.941406 234.355469 61.84375 232.949219 59.484375 C 232.21875 58.257812 231.234375 58.152344 230.101562 58.054688 C 229.816406 58.027344 229.527344 58.035156 229.246094 57.992188 C 227.617188 57.730469 226.003906 57.382812 224.367188 57.214844 C 222.3125 57.003906 220.242188 56.960938 218.179688 56.804688 C 215.417969 56.59375 212.667969 56.289062 209.886719 56.308594 C 207.9375 56.324219 205.988281 56.011719 204.042969 55.8125 C 202.351562 55.636719 200.667969 55.382812 198.972656 55.21875 C 196.308594 54.964844 193.636719 54.714844 190.964844 54.542969 C 188.5625 54.386719 186.160156 54.316406 183.753906 54.253906 C 180.140625 54.167969 176.523438 54.175781 172.910156 54.035156 C 169.78125 53.914062 166.664062 53.503906 163.539062 53.472656 C 159.945312 53.4375 156.347656 53.6875 152.753906 53.804688 C 149.722656 53.902344 146.695312 54.007812 143.664062 54.070312 C 139.871094 54.148438 136.074219 54.152344 132.28125 54.261719 C 129.890625 54.328125 127.496094 54.5 125.109375 54.675781 C 123.183594 54.8125 121.257812 55 119.34375 55.226562 C 118.871094 55.28125 118.136719 55.464844 118.015625 55.777344 C 117.363281 57.5 116.863281 59.28125 116.304688 61.066406 C 119.164062 61.324219 121.742188 61.351562 124.242188 61.824219 C 129.265625 62.765625 134.328125 63.074219 139.410156 63.277344 C 140.820312 63.335938 142.230469 63.257812 143.640625 63.273438 C 144.785156 63.285156 145.929688 63.355469 147.074219 63.382812 C 148 63.402344 148.929688 63.359375 149.851562 63.417969 C 151.417969 63.523438 152.976562 63.75 154.539062 63.800781 C 155.492188 63.832031 156.449219 63.546875 157.40625 63.550781 C 159.371094 63.550781 161.390625 63.957031 163.285156 63.621094 C 165.050781 63.308594 166.722656 63.898438 168.507812 63.542969 C 169.890625 63.269531 171.480469 63.777344 173.03125 63.550781 C 174.203125 63.382812 175.441406 63.738281 176.644531 63.726562 C 178.695312 63.699219 180.742188 63.511719 182.792969 63.5 C 184.828125 63.484375 186.863281 63.625 188.898438 63.664062 C 190.332031 63.6875 191.773438 63.71875 193.203125 63.644531 C 195.257812 63.535156 197.304688 63.332031 199.359375 63.175781 C 199.457031 63.171875 199.558594 63.234375 199.660156 63.230469 C 200.351562 63.21875 201.046875 63.222656 201.734375 63.167969 C 202.800781 63.082031 203.863281 62.953125 204.925781 62.84375 C 205.171875 62.820312 205.421875 62.820312 205.667969 62.78125 C 207.140625 62.539062 208.609375 62.191406 210.09375 62.066406 C 212.675781 61.847656 215.265625 61.730469 217.851562 61.640625 C 218.640625 61.613281 219.773438 61.484375 219.941406 62.492188 C 220.109375 63.480469 219.0625 63.757812 218.265625 63.941406 C 215.761719 64.523438 213.273438 65.199219 210.738281 65.582031 C 206.484375 66.226562 202.207031 66.746094 197.929688 67.175781 C 195.882812 67.382812 193.804688 67.324219 191.742188 67.300781 C 189.621094 67.28125 187.480469 66.957031 185.378906 67.140625 C 182.625 67.375 179.914062 67.269531 177.191406 66.949219 C 176.984375 66.925781 176.769531 66.929688 176.558594 66.9375 C 175.171875 66.988281 173.785156 67.105469 172.402344 67.074219 C 170.808594 67.042969 169.222656 66.828125 167.632812 66.792969 C 166.425781 66.769531 165.214844 66.933594 164.003906 66.953125 C 163.257812 66.964844 162.480469 66.707031 161.773438 66.851562 C 159.601562 67.296875 157.464844 66.976562 155.3125 66.769531 C 154.855469 66.726562 154.390625 66.78125 153.933594 66.765625 C 151.140625 66.667969 148.351562 66.574219 145.566406 66.457031 C 144.40625 66.40625 143.25 66.269531 142.09375 66.214844 C 139.59375 66.09375 137.09375 66.050781 134.601562 65.878906 C 133.167969 65.78125 131.75 65.480469 130.324219 65.285156 C 128.148438 64.988281 125.972656 64.726562 123.800781 64.414062 C 121.546875 64.085938 119.304688 63.695312 117.050781 63.371094 C 115.835938 63.199219 115.636719 63.503906 115.261719 64.941406 C 114.765625 66.828125 114.144531 68.679688 113.535156 70.535156 C 112.902344 72.46875 112.148438 74.367188 111.582031 76.324219 C 111.03125 78.21875 110.710938 80.179688 110.183594 82.082031 C 109.601562 84.183594 108.898438 86.253906 108.164062 88.601562 C 110.917969 88.972656 113.488281 89.316406 116.226562 89.683594 Z M 168.414062 103.214844 C 170.070312 106.238281 171.625 109.042969 173.15625 111.863281 C 174.589844 114.507812 176 117.160156 177.410156 119.816406 C 178.117188 121.152344 178.828125 122.488281 179.484375 123.851562 C 179.945312 124.8125 180.257812 125.847656 180.75 126.789062 C 181.589844 128.382812 182.535156 129.921875 183.402344 131.496094 C 183.894531 132.386719 184.15625 133.464844 184.816406 134.1875 C 186.234375 135.753906 188.230469 136.066406 190.246094 136.144531 C 190.695312 136.160156 191.160156 135.996094 191.601562 136.039062 C 196.316406 136.503906 200.828125 135.808594 205.121094 133.773438 C 205.308594 133.683594 205.523438 133.652344 205.726562 133.605469 C 206.992188 133.324219 208.222656 132.894531 209.574219 133.0625 C 210.367188 133.164062 211.1875 132.996094 211.996094 132.988281 C 213.351562 132.96875 214.703125 132.984375 216.214844 132.984375 C 215.542969 131.953125 214.941406 131.027344 214.339844 130.101562 C 213.140625 128.269531 212.066406 126.339844 210.714844 124.628906 C 208.503906 121.828125 206.152344 119.136719 203.78125 116.464844 C 201.632812 114.042969 199.375 111.714844 197.179688 109.335938 C 196.175781 108.246094 195.167969 107.152344 194.242188 106 C 194.039062 105.746094 194.167969 105.222656 194.140625 104.824219 C 194.511719 104.8125 194.902344 104.726562 195.242188 104.816406 C 195.535156 104.894531 195.796875 105.15625 196.035156 105.375 C 197.117188 106.382812 198.171875 107.421875 199.265625 108.414062 C 201.125 110.097656 203.042969 111.71875 204.871094 113.4375 C 206.230469 114.710938 207.546875 116.039062 208.777344 117.4375 C 210.886719 119.835938 213.003906 122.238281 214.949219 124.773438 C 216.726562 127.09375 218.28125 129.582031 219.929688 132.003906 C 220.445312 132.761719 220.851562 133.617188 221.460938 134.289062 C 222.058594 134.945312 222.792969 135.792969 223.566406 135.910156 C 225.222656 136.15625 226.9375 135.984375 228.851562 135.984375 C 228.585938 135.332031 228.503906 134.933594 228.285156 134.632812 C 227.175781 133.097656 226.027344 131.589844 224.894531 130.070312 C 223.625 128.371094 222.367188 126.660156 221.078125 124.972656 C 220.222656 123.851562 219.273438 122.792969 218.453125 121.648438 C 217.410156 120.203125 216.402344 118.722656 215.492188 117.1875 C 215.292969 116.855469 215.578125 116.234375 215.640625 115.746094 C 216.085938 115.8125 216.679688 115.722656 216.957031 115.976562 C 217.960938 116.902344 218.867188 117.9375 219.796875 118.941406 C 220.796875 120.027344 221.78125 121.128906 222.777344 122.222656 C 223.332031 122.832031 223.953125 123.394531 224.445312 124.050781 C 226.195312 126.390625 227.867188 128.789062 229.644531 131.101562 C 230.328125 131.996094 231.210938 132.742188 232.035156 133.515625 C 232.191406 133.664062 232.503906 133.65625 232.746094 133.6875 C 234.734375 133.929688 236.730469 134.121094 238.710938 134.417969 C 240.128906 134.628906 241.433594 134.574219 242.558594 133.550781 C 243.621094 132.582031 244.90625 132.167969 246.3125 132.023438 C 248.316406 131.816406 250.140625 131.074219 251.457031 129.5625 C 252.464844 128.40625 253.15625 126.972656 254.019531 125.683594 C 254.222656 125.382812 254.515625 125.097656 254.828125 124.917969 C 255.683594 124.429688 256.757812 124.179688 257.40625 123.507812 C 258.78125 122.078125 260.421875 121.121094 262.082031 120.113281 C 264.449219 118.675781 265.691406 114.863281 262.714844 112.921875 C 262.253906 112.621094 261.742188 112.40625 261.273438 112.117188 C 258.996094 110.71875 257.113281 108.84375 255.101562 107.105469 C 252.429688 104.792969 249.5 102.796875 246.3125 101.15625 C 242.898438 99.402344 239.671875 97.277344 236.34375 95.347656 C 236.027344 95.164062 235.527344 95.066406 235.199219 95.179688 C 234.0625 95.570312 232.871094 95.921875 231.867188 96.554688 C 229.582031 97.996094 226.941406 97.882812 224.460938 98.453125 C 222.933594 98.804688 221.355469 98.925781 219.808594 99.195312 C 218.714844 99.382812 217.640625 99.683594 216.546875 99.875 C 214.382812 100.253906 212.207031 100.578125 210.039062 100.945312 C 209.121094 101.101562 208.21875 101.355469 207.300781 101.488281 C 206.222656 101.640625 205.136719 101.707031 204.054688 101.8125 C 201.242188 102.082031 198.4375 102.382812 195.625 102.621094 C 193.753906 102.78125 191.863281 103.167969 190.011719 102.4375 C 189.792969 102.355469 189.496094 102.390625 189.253906 102.449219 C 187.539062 102.863281 185.863281 103.355469 184.03125 103.097656 C 182.730469 102.910156 181.378906 103.027344 180.054688 103.039062 C 178.882812 103.046875 177.710938 103.078125 176.539062 103.144531 C 175.25 103.210938 173.960938 103.394531 172.671875 103.40625 C 171.324219 103.421875 169.972656 103.292969 168.410156 103.214844 Z M 167.496094 103.347656 C 165.351562 103.089844 163.363281 102.542969 161.289062 103.167969 C 160.367188 103.449219 159.339844 103.421875 158.359375 103.472656 C 157.210938 103.535156 156.050781 103.46875 154.90625 103.578125 C 152.347656 103.820312 149.8125 104.003906 147.246094 103.527344 C 145.722656 103.242188 144.15625 103.148438 142.601562 103.089844 C 140.605469 103.011719 138.59375 103.160156 136.601562 103.019531 C 133.375 102.792969 130.183594 102.226562 126.933594 102.164062 C 125.085938 102.128906 123.257812 101.515625 121.40625 101.433594 C 118.847656 101.320312 116.277344 101.480469 113.714844 101.492188 C 112.578125 101.5 111.433594 101.519531 110.3125 101.375 C 109.21875 101.230469 108.164062 100.800781 107.070312 100.648438 C 104.914062 100.347656 104.90625 100.390625 104.199219 102.480469 C 104.128906 102.6875 104.03125 102.882812 103.964844 103.089844 C 103.277344 105.230469 102.523438 107.355469 101.925781 109.523438 C 101.238281 112.035156 100.738281 114.601562 100.058594 117.117188 C 99.453125 119.359375 98.679688 121.550781 98.046875 123.785156 C 97.089844 127.144531 96.191406 130.519531 95.285156 133.894531 C 95.191406 134.230469 95.199219 134.59375 95.148438 135.054688 C 95.761719 135.085938 96.316406 135.238281 96.800781 135.117188 C 99.097656 134.550781 101.351562 133.796875 103.664062 133.335938 C 105.550781 132.960938 107.496094 132.867188 109.421875 132.730469 C 110.582031 132.648438 111.753906 132.714844 113.085938 132.714844 C 113.085938 131.136719 113.347656 129.523438 113.019531 128.046875 C 112.578125 126.050781 112.128906 124.109375 112.109375 122.03125 C 112.082031 119.023438 112.5 116.097656 113.292969 113.226562 C 113.855469 111.179688 114.515625 109.140625 115.375 107.207031 C 116.058594 105.675781 117.074219 104.28125 118.039062 102.890625 C 118.226562 102.617188 118.953125 102.445312 119.261719 102.589844 C 119.636719 102.769531 120.019531 103.308594 120.0625 103.730469 C 120.125 104.308594 119.933594 104.941406 119.742188 105.515625 C 118.746094 108.476562 117.644531 111.40625 116.726562 114.390625 C 116.242188 115.957031 116.101562 117.632812 115.726562 119.238281 C 115.296875 121.085938 115.257812 122.898438 115.601562 124.777344 C 115.875 126.28125 115.933594 127.835938 115.917969 129.367188 C 115.902344 130.609375 115.589844 131.84375 115.503906 133.089844 C 115.480469 133.480469 115.742188 134.222656 115.910156 134.234375 C 117.292969 134.328125 118.851562 134.699219 120.042969 134.214844 C 124.089844 132.582031 128.25 131.566406 132.5625 131.121094 C 133.292969 131.046875 134.097656 131.148438 134.796875 131.382812 C 137.066406 132.144531 139.28125 133.074219 141.558594 133.808594 C 143.828125 134.539062 146.125 135.257812 148.464844 135.710938 C 150.070312 136.019531 151.777344 135.980469 153.425781 135.875 C 155.105469 135.765625 156.765625 135.214844 158.445312 135.171875 C 160.351562 135.121094 162.273438 135.390625 164.183594 135.574219 C 165.351562 135.6875 166.53125 136.125 167.667969 136.015625 C 169.746094 135.8125 171.800781 135.347656 173.847656 134.921875 C 174.710938 134.746094 175.535156 134.390625 176.375 134.109375 C 177.582031 133.707031 178.789062 133.300781 180.0625 132.875 C 179.820312 132.269531 179.671875 131.796875 179.453125 131.359375 C 178.035156 128.507812 176.582031 125.675781 175.175781 122.816406 C 174.214844 120.867188 173.28125 118.90625 172.390625 116.921875 C 171.605469 115.171875 170.925781 113.367188 170.148438 111.609375 C 169.230469 109.535156 168.28125 107.476562 167.300781 105.429688 C 166.957031 104.710938 166.800781 104.074219 167.5 103.347656 Z M 63.179688 214.152344 C 64.339844 214.339844 65.414062 214.472656 66.472656 214.695312 C 68.109375 215.042969 68.140625 215.082031 68.703125 213.574219 C 69.679688 210.949219 70.613281 208.308594 71.542969 205.667969 C 72.738281 202.285156 73.964844 198.910156 75.070312 195.5 C 76.042969 192.503906 76.914062 189.472656 77.753906 186.4375 C 78.34375 184.300781 78.726562 182.109375 79.347656 179.988281 C 80.066406 177.542969 80.929688 175.140625 81.769531 172.734375 C 82.148438 171.644531 82.738281 170.617188 83.039062 169.507812 C 83.429688 168.0625 83.53125 166.539062 83.921875 165.097656 C 84.851562 161.671875 85.871094 158.273438 86.863281 154.863281 C 87.15625 153.867188 87.519531 152.890625 87.761719 151.882812 C 88.007812 150.871094 88.101562 149.824219 88.335938 148.804688 C 88.765625 146.910156 89.234375 145.023438 89.710938 143.140625 C 90.03125 141.871094 90.390625 140.609375 90.742188 139.347656 C 91.410156 136.957031 92.128906 134.578125 92.738281 132.175781 C 93.167969 130.472656 93.398438 128.71875 93.824219 127.015625 C 94.332031 124.992188 94.949219 122.992188 95.527344 120.984375 C 95.902344 119.679688 96.292969 118.382812 96.664062 117.082031 C 96.992188 115.941406 97.320312 114.800781 97.625 113.65625 C 98.265625 111.222656 98.859375 108.777344 99.53125 106.355469 C 100.628906 102.40625 101.769531 98.472656 102.894531 94.535156 C 103.644531 91.914062 104.378906 89.289062 105.160156 86.679688 C 105.976562 83.953125 106.867188 81.246094 107.671875 78.515625 C 108.179688 76.789062 108.496094 74.996094 109.066406 73.292969 C 109.917969 70.734375 111.003906 68.25 111.835938 65.6875 C 112.871094 62.503906 113.640625 59.234375 114.730469 56.078125 C 115.453125 53.984375 116.535156 52.019531 117.492188 49.929688 C 116.828125 49.679688 116.191406 49.230469 115.566406 49.25 C 114.410156 49.289062 113.957031 48.4375 113.4375 47.78125 C 112.796875 46.96875 113.324219 46.105469 114.371094 46.3125 C 115.917969 46.617188 117.417969 47.183594 119.425781 47.78125 C 120.910156 47.246094 121.992188 45.476562 122.644531 43.710938 C 123.1875 42.234375 123.078125 40.425781 122.902344 38.800781 C 122.785156 37.71875 122.320312 36.378906 121.535156 35.714844 C 118.53125 33.175781 114.371094 33.671875 111.375 35.691406 C 109.832031 36.730469 109.160156 38.351562 108.414062 40.035156 C 107.472656 42.164062 107.894531 43.683594 109.359375 45.230469 C 109.644531 45.535156 109.800781 46.105469 109.761719 46.53125 C 109.667969 47.488281 109.449219 48.4375 109.226562 49.378906 C 108.613281 51.945312 107.964844 54.503906 107.339844 57.066406 C 106.953125 58.65625 106.65625 60.273438 106.183594 61.835938 C 105.574219 63.867188 104.746094 65.832031 104.164062 67.867188 C 103.652344 69.65625 103.425781 71.527344 102.933594 73.324219 C 102.335938 75.519531 101.566406 77.667969 100.921875 79.851562 C 99.960938 83.109375 99.054688 86.386719 98.097656 89.648438 C 97.886719 90.367188 97.511719 91.039062 97.304688 91.761719 C 96.617188 94.183594 95.996094 96.628906 95.300781 99.046875 C 94.863281 100.558594 94.304688 102.035156 93.855469 103.542969 C 93.085938 106.113281 92.355469 108.699219 91.617188 111.28125 C 90.875 113.882812 90.15625 116.488281 89.402344 119.085938 C 88.75 121.332031 88.0625 123.566406 87.386719 125.804688 C 87.046875 126.933594 86.65625 128.046875 86.359375 129.1875 C 85.960938 130.738281 85.648438 132.3125 85.265625 133.867188 C 84.894531 135.375 84.464844 136.863281 84.089844 138.367188 C 83.671875 140.03125 83.320312 141.714844 82.882812 143.375 C 82.25 145.796875 81.523438 148.199219 80.917969 150.632812 C 80.425781 152.601562 80.171875 154.636719 79.59375 156.574219 C 78.636719 159.773438 77.472656 162.910156 76.457031 166.089844 C 75.433594 169.300781 74.621094 172.582031 73.464844 175.742188 C 72.160156 179.308594 71.429688 183.007812 70.492188 186.660156 C 70.074219 188.277344 69.730469 189.910156 69.28125 191.515625 C 68.347656 194.832031 67.332031 198.125 66.414062 201.445312 C 65.738281 203.882812 65.15625 206.34375 64.535156 208.796875 C 64.089844 210.554688 63.644531 212.308594 63.175781 214.152344 Z M 54.054688 114.890625 C 54.078125 117.449219 54.789062 119.128906 56.6875 120.273438 C 58.117188 121.136719 59.414062 122.21875 60.777344 123.199219 C 61.152344 123.464844 61.507812 123.855469 61.925781 123.945312 C 64.542969 124.507812 65.078125 127.148438 66.714844 128.679688 C 66.820312 128.777344 66.761719 129.03125 66.839844 129.179688 C 66.972656 129.429688 67.109375 129.71875 67.328125 129.878906 C 68.480469 130.734375 69.621094 131.546875 71.128906 131.808594 C 72.53125 132.046875 73.933594 132.484375 75.230469 133.070312 C 76.007812 133.417969 76.652344 134.15625 77.238281 134.824219 C 78.53125 136.292969 80.0625 135.695312 81.554688 135.410156 C 81.707031 135.382812 81.859375 135.046875 81.90625 134.832031 C 82.128906 133.816406 82.261719 132.777344 82.53125 131.777344 C 82.886719 130.441406 83.351562 129.132812 83.753906 127.808594 C 84.308594 125.980469 84.855469 124.152344 85.394531 122.320312 C 86.1875 119.601562 86.984375 116.882812 87.757812 114.164062 C 88.4375 111.773438 89.054688 109.363281 89.761719 106.980469 C 90.617188 104.089844 91.519531 101.210938 92.4375 98.335938 C 92.667969 97.609375 92.5 97.308594 91.75 97.109375 C 90.144531 96.679688 88.523438 96.261719 86.992188 95.636719 C 85.242188 94.921875 83.5625 94.03125 81.894531 93.132812 C 81.210938 92.761719 80.507812 92.273438 80.058594 91.65625 C 79.460938 90.832031 79.320312 90.71875 78.636719 91.5 C 77.597656 92.6875 76.570312 93.886719 75.546875 95.085938 C 75.433594 95.222656 75.378906 95.40625 75.28125 95.558594 C 74.601562 96.609375 74.070312 97.808594 73.207031 98.679688 C 71.46875 100.433594 69.578125 102.03125 67.707031 103.648438 C 65.066406 105.929688 62.421875 108.21875 59.699219 110.40625 C 58.582031 111.304688 57.191406 111.855469 56.058594 112.738281 C 55.199219 113.40625 54.550781 114.34375 54.054688 114.890625 Z M 96.167969 86.425781 C 99.179688 76.210938 101.367188 66.125 105.070312 56.386719 C 103.40625 56.539062 102.066406 56.667969 100.726562 56.789062 C 98.988281 56.945312 97.25 57.105469 95.511719 57.25 C 94.839844 57.304688 94.15625 57.273438 93.488281 57.355469 C 91.785156 57.5625 90.085938 57.789062 88.390625 58.058594 C 87.628906 58.179688 86.6875 58.199219 86.1875 58.660156 C 85.371094 59.40625 84.84375 60.46875 84.21875 61.410156 C 83.363281 62.699219 82.507812 63.988281 81.683594 65.296875 C 80.457031 67.234375 79.34375 69.203125 79.347656 71.621094 C 79.351562 72.777344 79.328125 74 78.972656 75.078125 C 78.496094 76.507812 78.988281 77.789062 79.425781 78.957031 C 80.15625 80.917969 82.003906 81.828125 83.878906 82.539062 C 85.257812 83.0625 86.628906 83.621094 88.039062 84.054688 C 90.703125 84.875 93.394531 85.621094 96.167969 86.425781 Z M 133.519531 95.824219 C 136.230469 97.007812 139.195312 96.992188 141.964844 97.902344 C 141.785156 98.160156 141.628906 98.273438 141.46875 98.269531 C 139.0625 98.230469 136.652344 98.207031 134.25 98.113281 C 132.996094 98.0625 131.75 97.851562 130.496094 97.761719 C 128.4375 97.617188 126.371094 97.558594 124.316406 97.355469 C 123.945312 97.316406 123.628906 96.75 123.285156 96.429688 C 123.6875 96.191406 124.097656 95.738281 124.492188 95.746094 C 126.476562 95.800781 128.457031 95.992188 130.4375 96.09375 C 131.371094 96.144531 132.308594 96.101562 133.242188 96.101562 C 133.25 95.972656 133.253906 95.847656 133.261719 95.71875 C 132.1875 95.582031 131.113281 95.460938 130.046875 95.304688 C 127.007812 94.851562 123.980469 94.355469 120.941406 93.933594 C 118.253906 93.566406 115.550781 93.328125 112.871094 92.9375 C 111.085938 92.679688 109.328125 92.25 107.550781 91.933594 C 107.324219 91.894531 106.886719 92.023438 106.847656 92.160156 C 106.675781 92.75 106.617188 93.375 106.503906 94.058594 C 108.902344 94.375 111.164062 94.648438 113.414062 94.980469 C 114.875 95.195312 116.328125 95.476562 117.769531 95.785156 C 117.976562 95.828125 118.113281 96.167969 118.285156 96.375 C 118.074219 96.464844 117.855469 96.648438 117.648438 96.636719 C 113.765625 96.476562 109.886719 96.292969 105.960938 96.109375 C 105.5 97.550781 105.503906 97.5625 107.058594 97.894531 C 110.011719 98.53125 113.007812 98.460938 115.972656 98.191406 C 120.175781 97.808594 124.308594 98.414062 128.464844 98.742188 C 130.628906 98.914062 132.785156 99.207031 134.949219 99.320312 C 136.800781 99.414062 138.660156 99.269531 140.511719 99.339844 C 143.46875 99.449219 146.417969 99.695312 149.375 99.792969 C 152.117188 99.882812 154.863281 99.894531 157.605469 99.863281 C 160.296875 99.832031 162.984375 99.679688 165.675781 99.621094 C 167.332031 99.582031 168.992188 99.613281 170.652344 99.613281 C 170.65625 99.507812 170.65625 99.402344 170.660156 99.296875 C 169.4375 99.09375 168.222656 98.773438 166.996094 98.714844 C 165.097656 98.628906 163.1875 98.691406 161.285156 98.761719 C 160.648438 98.78125 160.203125 98.546875 160.253906 97.996094 C 160.28125 97.683594 160.820312 97.222656 161.179688 97.167969 C 162.128906 97.027344 163.109375 97.011719 164.074219 97.058594 C 165.28125 97.113281 166.480469 97.296875 167.6875 97.390625 C 170.089844 97.574219 172.5 97.679688 174.894531 97.9375 C 175.667969 98.023438 176.75 98.117188 176.492188 99.300781 C 177.957031 99.300781 179.351562 99.273438 180.746094 99.3125 C 181.402344 99.332031 182.054688 99.535156 182.710938 99.554688 C 185.152344 99.632812 187.515625 98.777344 190 99.058594 C 191.511719 99.226562 193.074219 98.960938 194.613281 98.867188 C 196.199219 98.773438 197.792969 98.511719 199.375 98.5625 C 202.226562 98.652344 204.992188 98.175781 207.757812 97.609375 C 208.148438 97.527344 208.53125 97.417969 208.917969 97.324219 C 208.902344 97.203125 208.890625 97.085938 208.875 96.964844 C 207.746094 96.964844 206.621094 96.988281 205.492188 96.957031 C 204.84375 96.9375 204.203125 96.777344 203.554688 96.773438 C 201.511719 96.769531 199.46875 96.847656 197.425781 96.8125 C 195.800781 96.785156 194.179688 96.632812 192.554688 96.546875 C 190.914062 96.457031 189.269531 96.332031 187.628906 96.320312 C 186.113281 96.3125 184.589844 96.523438 183.074219 96.472656 C 180.84375 96.402344 178.621094 96.113281 176.390625 96.054688 C 174.753906 96.011719 173.109375 96.265625 171.464844 96.25 C 169.691406 96.238281 167.917969 96.070312 166.140625 95.96875 C 165.785156 95.949219 165.421875 95.878906 165.066406 95.914062 C 163.28125 96.089844 161.503906 96.363281 159.714844 96.46875 C 157.765625 96.582031 155.8125 96.558594 153.859375 96.574219 C 152.894531 96.582031 151.929688 96.578125 150.96875 96.523438 C 148.785156 96.398438 146.601562 96.1875 144.414062 96.105469 C 142.5625 96.039062 140.703125 96.148438 138.847656 96.105469 C 137.070312 96.0625 135.296875 95.921875 133.519531 95.824219 Z M 39.203125 237.171875 C 41.425781 237.777344 43.574219 238.328125 45.699219 238.953125 C 48.152344 239.671875 50.578125 240.480469 53.03125 241.207031 C 55.089844 241.816406 57.171875 242.347656 59.234375 242.941406 C 60.585938 243.328125 61.917969 243.777344 63.265625 244.183594 C 65.867188 244.96875 68.46875 245.773438 71.085938 246.519531 C 72.753906 246.992188 74.445312 247.40625 76.140625 247.757812 C 76.375 247.808594 76.933594 247.382812 76.964844 247.128906 C 77.085938 246.140625 77.089844 245.128906 77.050781 244.128906 C 77.039062 243.914062 76.695312 243.652344 76.449219 243.519531 C 76.136719 243.347656 75.75 243.320312 75.425781 243.171875 C 74.277344 242.648438 73.175781 241.984375 71.988281 241.578125 C 68.683594 240.441406 65.355469 239.359375 62.007812 238.355469 C 59.550781 237.613281 57.054688 236.992188 54.5625 236.378906 C 52.386719 235.84375 50.199219 235.355469 48.003906 234.921875 C 45.910156 234.503906 43.800781 234.15625 41.6875 233.839844 C 41.378906 233.796875 40.867188 234.015625 40.710938 234.273438 C 40.167969 235.15625 39.742188 236.113281 39.203125 237.171875 Z M 36.835938 245.488281 C 36.703125 245.636719 36.328125 245.867188 36.269531 246.15625 C 36.09375 247 36.003906 247.867188 35.984375 248.730469 C 35.976562 248.960938 36.296875 249.320312 36.546875 249.417969 C 37.402344 249.75 38.289062 250.015625 39.175781 250.269531 C 40.621094 250.683594 42.085938 251.019531 43.515625 251.472656 C 45.445312 252.078125 47.332031 252.824219 49.273438 253.402344 C 51.867188 254.171875 54.488281 254.851562 57.109375 255.542969 C 60.457031 256.421875 63.800781 257.328125 67.167969 258.121094 C 69.238281 258.605469 71.351562 258.917969 73.449219 259.265625 C 74.777344 259.488281 74.496094 258.128906 74.941406 257.535156 C 75.257812 257.117188 75.085938 256.324219 75.082031 255.699219 C 75.082031 255.632812 74.777344 255.546875 74.605469 255.503906 C 73.484375 255.207031 72.363281 254.929688 71.246094 254.625 C 66.886719 253.441406 62.515625 252.28125 58.164062 251.054688 C 55.535156 250.3125 52.949219 249.414062 50.3125 248.691406 C 46.851562 247.742188 43.363281 246.886719 39.878906 246.023438 C 38.964844 245.796875 38.023438 245.691406 36.835938 245.488281 Z M 79.558594 237.871094 C 79.699219 236.777344 79.789062 235.882812 79.9375 234.996094 C 80.097656 234.039062 79.730469 233.441406 78.910156 232.9375 C 75.527344 230.867188 71.816406 229.6875 68.011719 228.71875 C 65.804688 228.15625 63.632812 227.464844 61.441406 226.835938 C 59.910156 226.398438 58.394531 225.863281 56.832031 225.558594 C 54.171875 225.035156 51.488281 224.59375 48.800781 224.234375 C 46.816406 223.972656 44.925781 224.316406 43.605469 226.011719 C 43.316406 226.378906 43.167969 227.078125 43.316406 227.5 C 43.421875 227.816406 44.085938 228.023438 44.539062 228.121094 C 45.242188 228.269531 45.980469 228.238281 46.691406 228.359375 C 49.460938 228.828125 52.238281 229.273438 54.992188 229.832031 C 57.246094 230.289062 59.496094 230.824219 61.707031 231.453125 C 64.511719 232.25 67.273438 233.175781 70.054688 234.050781 C 70.296875 234.125 70.53125 234.21875 70.765625 234.308594 C 72.335938 234.914062 73.914062 235.503906 75.476562 236.132812 C 76.824219 236.679688 78.15625 237.269531 79.558594 237.871094 Z M 72.457031 135.359375 C 71.824219 145.589844 71.347656 155.417969 73.011719 165.277344 C 73.214844 165.203125 73.546875 165.171875 73.574219 165.058594 C 75.808594 156.148438 79.640625 147.671875 80.863281 138.433594 C 80.453125 138.46875 80.046875 138.582031 79.667969 138.523438 C 78.683594 138.363281 77.628906 138.300781 76.75 137.886719 C 75.339844 137.226562 74.050781 136.316406 72.453125 135.359375 Z M 75.136719 253.375 C 75.195312 252.871094 75.234375 252.269531 75.34375 251.675781 C 75.484375 250.882812 75.238281 250.484375 74.390625 250.347656 C 73.214844 250.160156 72.03125 249.933594 70.910156 249.558594 C 68.171875 248.640625 65.472656 247.597656 62.742188 246.65625 C 61.273438 246.152344 59.773438 245.714844 58.269531 245.304688 C 55.382812 244.511719 52.476562 243.765625 49.585938 242.988281 C 47.84375 242.515625 46.109375 242.027344 44.378906 241.527344 C 42.894531 241.09375 41.425781 240.609375 39.933594 240.207031 C 39.664062 240.136719 39.132812 240.269531 39.03125 240.464844 C 38.691406 241.128906 38.496094 241.863281 38.28125 242.46875 C 50.605469 246.117188 62.808594 249.726562 75.136719 253.375 Z M 48.425781 217.308594 C 59.382812 218.488281 69.734375 221.78125 79.949219 225.535156 C 79.996094 225.203125 80.058594 224.726562 80.15625 224.019531 C 78.640625 223.230469 77.046875 222.414062 75.460938 221.578125 C 74.796875 221.226562 74.195312 220.707031 73.496094 220.480469 C 71.132812 219.710938 68.769531 218.917969 66.355469 218.355469 C 63.117188 217.605469 59.847656 216.972656 56.5625 216.472656 C 54.382812 216.140625 52.144531 216.210938 49.953125 215.949219 C 48.875 215.816406 48.476562 216.160156 48.421875 217.308594 Z M 67.203125 265.917969 C 66.050781 265.613281 65.089844 265.324219 64.109375 265.109375 C 61.460938 264.523438 58.789062 264.023438 56.148438 263.382812 C 54.429688 262.964844 52.753906 262.34375 51.050781 261.847656 C 49.265625 261.328125 47.46875 260.835938 45.671875 260.355469 C 44.410156 260.019531 43.21875 259.570312 42.039062 258.96875 C 40.96875 258.425781 39.558594 258.636719 38.601562 257.644531 C 38.484375 257.527344 38.171875 257.601562 37.714844 257.566406 C 38.152344 258.070312 38.402344 258.425781 38.71875 258.699219 C 41.230469 260.890625 44.226562 262.210938 47.273438 263.433594 C 47.878906 263.675781 48.523438 263.8125 49.128906 264.050781 C 50.632812 264.640625 52.074219 265.539062 53.632812 265.8125 C 56.546875 266.328125 59.515625 266.566406 62.472656 266.773438 C 64.019531 266.878906 65.652344 267.054688 67.203125 265.917969 Z M 71.398438 262.355469 C 70.601562 262.09375 69.886719 261.828125 69.152344 261.625 C 66.539062 260.898438 63.9375 260.125 61.300781 259.503906 C 58.214844 258.773438 55.058594 258.328125 52.011719 257.488281 C 48.949219 256.644531 45.984375 255.464844 42.976562 254.429688 C 40.902344 253.714844 38.824219 253 36.675781 252.257812 C 36.566406 253.679688 37.035156 254.347656 38.164062 254.558594 C 38.765625 254.671875 39.355469 254.847656 39.9375 255.035156 C 41.578125 255.566406 43.21875 256.105469 44.851562 256.664062 C 47.03125 257.40625 49.183594 258.234375 51.382812 258.910156 C 53.542969 259.574219 55.75 260.074219 57.929688 260.679688 C 60.105469 261.285156 62.261719 261.96875 64.441406 262.546875 C 65.835938 262.917969 67.289062 263.085938 68.675781 263.476562 C 70.011719 263.855469 70.558594 263.710938 71.398438 262.355469 Z M 48.75 222.160156 C 51.296875 222.601562 53.785156 222.914062 56.207031 223.492188 C 59.257812 224.214844 62.25 225.175781 65.273438 226.003906 C 68.828125 226.976562 72.386719 227.925781 75.953125 228.84375 C 76.183594 228.902344 76.695312 228.667969 76.746094 228.480469 C 76.960938 227.671875 76.320312 226.773438 75.457031 226.519531 C 72.695312 225.714844 69.9375 224.898438 67.171875 224.113281 C 64.800781 223.4375 62.574219 222.351562 60.039062 222.097656 C 57.046875 221.800781 54.09375 221.089844 51.125 220.566406 C 49.21875 220.230469 49.214844 220.238281 48.75 222.160156 Z M 44.222656 231.308594 C 55.246094 233.871094 66.21875 236.34375 76.621094 241.136719 C 76.585938 239.953125 76.71875 238.957031 75.5625 238.519531 C 74.449219 238.101562 73.339844 237.675781 72.214844 237.292969 C 70.675781 236.773438 69.117188 236.292969 67.574219 235.785156 C 65.34375 235.058594 63.140625 234.246094 60.890625 233.601562 C 58.910156 233.039062 56.882812 232.617188 54.863281 232.203125 C 51.816406 231.582031 48.761719 231.011719 45.703125 230.449219 C 45.148438 230.347656 44.511719 230.265625 44.222656 231.308594 Z M 82.507812 85.351562 C 82.226562 85.96875 82.40625 86.425781 83.117188 86.734375 C 83.507812 86.902344 83.835938 87.21875 84.203125 87.453125 C 87.332031 89.449219 90.929688 90.238281 94.402344 91.359375 C 94.519531 91.195312 94.640625 91.019531 94.765625 90.847656 C 95.6875 89.621094 95.390625 88.890625 93.886719 88.605469 C 92.984375 88.433594 92.078125 88.234375 91.203125 87.953125 C 90.3125 87.671875 89.484375 87.195312 88.589844 86.941406 C 86.601562 86.371094 84.585938 85.886719 82.507812 85.351562 Z M 82.460938 88.257812 C 82.378906 88.785156 82.171875 89.226562 82.304688 89.394531 C 82.972656 90.222656 83.605469 91.175781 84.476562 91.726562 C 86.871094 93.242188 89.554688 94.164062 92.230469 95.058594 C 92.527344 95.15625 92.835938 95.214844 93.21875 95.3125 C 93.425781 94.566406 93.613281 93.894531 93.8125 93.179688 C 89.65625 92.355469 85.992188 90.753906 82.460938 88.257812 Z M 209.046875 96.984375 C 209.078125 97.152344 209.109375 97.320312 209.140625 97.488281 C 210.082031 97.304688 211.023438 97.117188 211.964844 96.933594 C 211.941406 96.8125 211.914062 96.6875 211.890625 96.566406 C 210.941406 96.707031 209.996094 96.847656 209.046875 96.984375 Z M 209.046875 96.984375 " fill-opacity="1" fill-rule="nonzero"/></g><path fill="currentColor" d="M 116.355469 184.96875 C 116.144531 183.96875 115.878906 182.980469 115.734375 181.972656 C 115.460938 180.074219 115.210938 178.175781 115.039062 176.269531 C 114.789062 173.480469 114.378906 170.695312 114.960938 167.886719 C 115.097656 167.234375 114.816406 166.503906 114.902344 165.832031 C 115.164062 163.867188 115.472656 161.910156 115.871094 159.96875 C 115.945312 159.613281 116.542969 159.109375 116.898438 159.109375 C 118.96875 159.113281 121.042969 159.238281 123.113281 159.332031 C 124.640625 159.402344 126.171875 159.464844 127.699219 159.578125 C 129.480469 159.714844 131.257812 159.917969 133.039062 160.074219 C 136.085938 160.335938 139.132812 160.65625 142.1875 160.816406 C 145.222656 160.976562 148.269531 161.003906 151.308594 161.027344 C 153.027344 161.039062 154.75 160.871094 156.464844 160.886719 C 158.8125 160.910156 161.160156 161.074219 163.507812 161.097656 C 165.734375 161.121094 167.957031 161.027344 170.183594 161.015625 C 172.457031 161 174.726562 161.066406 176.996094 161.011719 C 179.773438 160.941406 182.546875 160.785156 185.320312 160.664062 C 187.304688 160.578125 189.292969 160.535156 191.273438 160.386719 C 192.53125 160.289062 193.773438 159.984375 195.027344 159.875 C 195.757812 159.808594 196.550781 159.808594 197.230469 160.035156 C 198.695312 160.515625 198.070312 161.941406 198.257812 162.9375 C 198.449219 163.941406 198.222656 165.027344 198.175781 166.082031 C 198.085938 168 197.976562 169.921875 197.910156 171.84375 C 197.875 172.800781 197.964844 173.765625 197.910156 174.726562 C 197.824219 176.277344 197.644531 177.824219 197.542969 179.375 C 197.417969 181.296875 197.335938 183.222656 197.230469 185.148438 C 197.1875 185.914062 197.085938 186.679688 197.078125 187.449219 C 197.066406 188.535156 196.449219 188.929688 195.476562 189.164062 C 192.726562 189.824219 190.011719 190.636719 187.25 191.25 C 185.148438 191.71875 183.003906 192.003906 180.871094 192.308594 C 178.816406 192.605469 176.753906 192.894531 174.6875 193.050781 C 172.441406 193.222656 170.183594 193.242188 167.933594 193.328125 C 164.855469 193.441406 161.777344 193.597656 158.699219 193.652344 C 156.257812 193.699219 153.8125 193.628906 151.367188 193.597656 C 149.558594 193.578125 147.753906 193.554688 145.949219 193.511719 C 142.761719 193.4375 139.570312 193.398438 136.386719 193.242188 C 133.839844 193.117188 131.292969 192.933594 128.769531 192.597656 C 127.339844 192.40625 125.976562 191.648438 124.550781 191.503906 C 122.234375 191.269531 120.398438 189.957031 118.359375 189.113281 C 117.914062 188.925781 117.441406 188.535156 117.226562 188.117188 C 116.742188 187.144531 116.414062 186.097656 116.019531 185.082031 L 116.355469 184.964844 Z M 195.800781 161.996094 C 195.566406 161.976562 195.492188 161.953125 195.425781 161.96875 C 190.820312 163.183594 186.136719 163.8125 181.371094 163.804688 C 179.898438 163.804688 178.425781 163.804688 176.957031 163.847656 C 174.417969 163.921875 171.886719 164.070312 169.347656 164.109375 C 167.511719 164.132812 165.675781 163.972656 163.839844 164 C 160.414062 164.050781 156.992188 164.222656 153.566406 164.261719 C 151.699219 164.285156 149.824219 164.171875 147.957031 164.0625 C 145.175781 163.902344 142.394531 163.726562 139.617188 163.488281 C 137.402344 163.300781 135.199219 162.984375 132.984375 162.785156 C 129.535156 162.476562 126.074219 162.257812 122.628906 161.921875 C 120.863281 161.75 119.117188 161.40625 117.441406 161.152344 C 117.441406 161.847656 117.390625 162.601562 117.453125 163.339844 C 117.636719 165.542969 117.921875 167.738281 118.066406 169.945312 C 118.199219 172.054688 118.210938 174.167969 118.265625 176.28125 C 118.296875 177.355469 118.203125 178.445312 118.351562 179.503906 C 118.652344 181.644531 119.175781 183.757812 119.421875 185.90625 C 119.601562 187.457031 119.527344 187.65625 121.097656 187.996094 C 123.007812 188.402344 124.820312 189.128906 126.8125 189.277344 C 130.765625 189.574219 134.695312 190.195312 138.648438 190.496094 C 141.160156 190.6875 143.695312 190.570312 146.21875 190.546875 C 149.441406 190.515625 152.660156 190.480469 155.878906 190.382812 C 158.828125 190.292969 161.769531 190.097656 164.714844 189.980469 C 167.726562 189.859375 170.734375 189.796875 173.742188 189.660156 C 175.492188 189.585938 177.246094 189.511719 178.972656 189.269531 C 180.894531 189.003906 182.800781 188.59375 184.695312 188.164062 C 187.671875 187.484375 190.636719 186.757812 193.589844 185.984375 C 193.945312 185.894531 194.429688 185.433594 194.464844 185.101562 C 194.644531 183.421875 194.765625 181.730469 194.769531 180.042969 C 194.769531 178.550781 194.488281 177.050781 194.523438 175.558594 C 194.5625 174.039062 194.859375 172.523438 195.003906 171.003906 C 195.28125 168.023438 195.53125 165.039062 195.800781 161.996094 Z M 195.800781 161.996094 " fill-opacity="1" fill-rule="nonzero"/><path fill="currentColor" d="M 195.03125 73.597656 C 195.136719 74.5625 195.265625 75.523438 195.34375 76.492188 C 195.472656 78.160156 195.632812 79.828125 195.664062 81.496094 C 195.695312 83.023438 195.722656 84.574219 195.472656 86.070312 C 195.179688 87.824219 194.609375 89.535156 194.097656 91.246094 C 194.039062 91.449219 193.585938 91.65625 193.328125 91.640625 C 193.128906 91.628906 192.800781 91.28125 192.789062 91.066406 C 192.667969 89.078125 192.617188 87.089844 192.523438 85.101562 C 192.46875 83.898438 192.363281 82.699219 192.320312 81.5 C 192.28125 80.398438 192.359375 79.292969 192.261719 78.203125 C 192.117188 76.613281 191.730469 75.039062 191.6875 73.453125 C 191.65625 72.144531 190.890625 70.734375 192.003906 69.5 C 192.542969 68.902344 193.144531 68.929688 193.554688 69.507812 C 194.414062 70.722656 194.976562 72.082031 195.03125 73.597656 Z M 195.03125 73.597656 " fill-opacity="1" fill-rule="nonzero"/><path fill="currentColor" d="M 168.144531 77.65625 C 168 80.769531 167.828125 83.882812 167.726562 86.996094 C 167.703125 87.710938 167.457031 88.140625 166.785156 88.207031 C 166.097656 88.269531 165.730469 87.859375 165.636719 87.171875 C 165.292969 84.59375 165.140625 82.023438 165.613281 79.433594 C 165.78125 78.515625 165.683594 77.554688 165.757812 76.621094 C 165.792969 76.175781 165.863281 75.695312 166.0625 75.308594 C 166.484375 74.496094 167.574219 74.488281 167.894531 75.328125 C 168.167969 76.042969 168.179688 76.855469 168.308594 77.625 C 168.253906 77.636719 168.199219 77.644531 168.144531 77.65625 Z M 168.144531 77.65625 " fill-opacity="1" fill-rule="nonzero"/><path fill="currentColor" d="M 225.621094 61.660156 C 226.117188 60.640625 226.867188 60.285156 227.84375 60.464844 C 228.101562 60.511719 228.460938 60.796875 228.496094 61.015625 C 228.53125 61.222656 228.253906 61.574219 228.023438 61.71875 C 227.273438 62.207031 226.488281 62.210938 225.621094 61.660156 Z M 225.621094 61.660156 " fill-opacity="1" fill-rule="nonzero"/><path fill="currentColor" d="M 241.359375 111.589844 C 241.648438 111.765625 242.054688 111.90625 242.300781 112.1875 C 243.339844 113.367188 244.316406 114.601562 245.351562 115.785156 C 245.835938 116.339844 246.410156 116.820312 246.941406 117.332031 C 248.582031 118.910156 250.222656 120.484375 251.859375 122.066406 C 252.09375 122.292969 252.417969 122.503906 252.5 122.78125 C 252.617188 123.179688 252.722656 123.835938 252.519531 124.007812 C 252.214844 124.261719 251.492188 124.410156 251.203125 124.214844 C 249.886719 123.339844 248.515625 122.46875 247.4375 121.335938 C 245.644531 119.453125 244.035156 117.398438 242.410156 115.363281 C 241.765625 114.554688 241.257812 113.628906 240.746094 112.726562 C 240.441406 112.191406 240.570312 111.753906 241.359375 111.589844 Z M 241.359375 111.589844 " fill-opacity="1" fill-rule="nonzero"/><path fill="currentColor" d="M 211.847656 109.417969 C 211.875 110.382812 211.070312 110.929688 210.476562 110.386719 C 208.902344 108.941406 207.441406 107.367188 205.96875 105.8125 C 205.433594 105.25 205.824219 104.605469 206.246094 104.316406 C 206.644531 104.046875 207.304688 104.03125 207.820312 104.101562 C 208.164062 104.144531 208.546875 104.46875 208.773438 104.773438 C 209.769531 106.113281 210.722656 107.484375 211.671875 108.855469 C 211.804688 109.054688 211.824219 109.332031 211.847656 109.417969 Z M 211.847656 109.417969 " fill-opacity="1" fill-rule="nonzero"/><path fill="currentColor" d="M 237.382812 106 C 237.964844 105.976562 239.097656 107.488281 238.910156 107.941406 C 238.839844 108.109375 238.613281 108.292969 238.433594 108.324219 C 237.839844 108.421875 236.730469 106.890625 236.996094 106.34375 C 237.074219 106.179688 237.289062 106.078125 237.382812 106 Z M 237.382812 106 " fill-opacity="1" fill-rule="nonzero"/><path fill="currentColor" d="M 78.136719 112.105469 C 77.59375 113.042969 77.246094 113.796875 76.761719 114.453125 C 75.351562 116.351562 74.015625 118.324219 72.40625 120.042969 C 70.996094 121.546875 69.269531 122.757812 67.648438 124.054688 C 67.113281 124.480469 66.464844 124.695312 65.925781 124 C 65.402344 123.332031 65.855469 122.804688 66.296875 122.394531 C 67.582031 121.191406 69.011719 120.128906 70.222656 118.855469 C 72.246094 116.730469 74.136719 114.480469 76.105469 112.304688 C 76.359375 112.023438 76.734375 111.761719 77.09375 111.695312 C 77.363281 111.644531 77.695312 111.917969 78.136719 112.105469 Z M 78.136719 112.105469 " fill-opacity="1" fill-rule="nonzero"/><path fill="currentColor" d="M 80.265625 108.648438 C 79.90625 108.230469 79.554688 107.917969 79.59375 107.855469 C 80 107.210938 80.472656 106.613281 80.925781 106 C 81.136719 106.1875 81.558594 106.484375 81.527344 106.542969 C 81.183594 107.207031 80.769531 107.832031 80.265625 108.648438 Z M 80.265625 108.648438 " fill-opacity="1" fill-rule="nonzero"/><path fill="currentColor" d="M 100.257812 62.46875 C 98.117188 62.003906 95.96875 61.570312 93.84375 61.050781 C 93.023438 60.851562 92.640625 60.070312 93.011719 59.394531 C 93.222656 59.011719 94.097656 58.765625 94.625 58.832031 C 96.027344 59.011719 97.410156 59.386719 98.792969 59.703125 C 99.902344 59.957031 101.023438 60.195312 102.105469 60.53125 C 102.457031 60.640625 102.714844 61.046875 103.015625 61.320312 C 102.683594 61.597656 102.394531 62.007812 102.011719 62.125 C 101.476562 62.289062 100.875 62.230469 100.304688 62.269531 C 100.289062 62.335938 100.273438 62.402344 100.257812 62.46875 Z M 100.257812 62.46875 " fill-opacity="1" fill-rule="nonzero"/><path fill="currentColor" d="M 160.589844 179.796875 C 160.589844 179.035156 160.613281 178.574219 160.585938 178.117188 C 160.460938 176.144531 160.316406 174.171875 160.191406 172.199219 C 160.171875 171.839844 160.09375 171.425781 160.238281 171.128906 C 160.457031 170.664062 160.804688 169.980469 161.171875 169.929688 C 161.894531 169.828125 162.480469 170.308594 162.515625 171.160156 C 162.574219 172.492188 162.671875 173.824219 162.652344 175.15625 C 162.617188 177.492188 162.550781 179.832031 162.382812 182.160156 C 162.351562 182.617188 161.90625 183.191406 161.488281 183.4375 C 160.941406 183.761719 160.414062 183.46875 160.066406 182.863281 C 158.863281 180.785156 157.644531 178.714844 156.390625 176.667969 C 155.859375 175.800781 155.222656 175 154.503906 173.984375 C 154.363281 175.507812 154.273438 176.75 154.128906 177.988281 C 153.941406 179.601562 153.765625 181.222656 153.46875 182.816406 C 153.390625 183.257812 152.890625 183.621094 152.585938 184.015625 C 152.308594 183.59375 151.847656 183.1875 151.796875 182.738281 C 151.691406 181.816406 151.785156 180.863281 151.835938 179.925781 C 151.960938 177.519531 152.089844 175.113281 152.257812 172.707031 C 152.285156 172.289062 152.480469 171.871094 152.640625 171.472656 C 153.0625 170.394531 154.144531 170.152344 154.878906 171.015625 C 156.925781 173.429688 158.710938 176.019531 159.917969 178.972656 C 160.011719 179.203125 160.238281 179.375 160.589844 179.796875 Z M 160.589844 179.796875 " fill-opacity="1" fill-rule="nonzero"/><path fill="currentColor" d="M 168.070312 178.234375 L 168.070312 181.476562 C 169.082031 181.390625 170.023438 181.332031 170.960938 181.222656 C 171.839844 181.121094 172.722656 180.835938 173.589844 180.882812 C 174.078125 180.910156 174.539062 181.449219 175.011719 181.761719 C 174.65625 182.148438 174.363281 182.761719 173.933594 182.882812 C 172.492188 183.285156 171.007812 183.632812 169.519531 183.765625 C 168.328125 183.867188 167.007812 183.796875 166.371094 182.457031 C 166.128906 181.953125 165.941406 181.351562 165.957031 180.800781 C 165.996094 179.136719 166.191406 177.480469 166.238281 175.816406 C 166.277344 174.417969 166.238281 173.015625 166.144531 171.621094 C 166.097656 170.929688 166.34375 170.535156 166.976562 170.464844 C 168.699219 170.273438 170.421875 170.101562 172.148438 169.992188 C 173.078125 169.9375 174.003906 170.660156 173.832031 171.292969 C 173.601562 172.144531 172.851562 172.371094 172.03125 172.367188 C 170.675781 172.367188 169.316406 172.367188 167.804688 172.367188 C 167.804688 173.363281 167.78125 174.421875 167.832031 175.480469 C 167.839844 175.617188 168.21875 175.851562 168.421875 175.847656 C 170.109375 175.824219 171.796875 175.699219 173.480469 175.734375 C 173.84375 175.742188 174.199219 176.265625 174.554688 176.550781 C 174.277344 176.859375 174.035156 177.378906 173.714844 177.433594 C 171.902344 177.753906 170.074219 177.964844 168.070312 178.234375 Z M 168.070312 178.234375 " fill-opacity="1" fill-rule="nonzero"/><path fill="currentColor" d="M 129.839844 175.183594 C 131.554688 175.382812 133.183594 175.570312 134.882812 175.769531 C 134.992188 174.449219 135.097656 173.089844 135.214844 171.734375 C 135.261719 171.234375 135.273438 170.722656 135.398438 170.246094 C 135.476562 169.953125 135.75 169.710938 135.933594 169.445312 C 136.148438 169.742188 136.527344 170.023438 136.554688 170.335938 C 136.679688 171.773438 136.710938 173.222656 136.765625 174.667969 C 136.855469 177.191406 136.992188 179.714844 136.976562 182.238281 C 136.976562 182.746094 136.503906 183.492188 136.050781 183.703125 C 135.417969 184 134.5625 183.191406 134.539062 182.394531 C 134.515625 181.289062 134.601562 180.183594 134.585938 179.074219 C 134.582031 178.804688 134.433594 178.339844 134.265625 178.292969 C 132.882812 177.917969 131.484375 177.625 129.894531 177.257812 C 129.789062 178.871094 129.683594 180.324219 129.609375 181.777344 C 129.574219 182.40625 129.476562 182.996094 128.695312 182.984375 C 127.878906 182.964844 127.914062 182.378906 127.925781 181.738281 C 127.992188 178.320312 128.007812 174.902344 128.042969 171.480469 C 128.042969 171.335938 128.042969 171.1875 128.070312 171.046875 C 128.210938 170.382812 128.050781 169.363281 129.101562 169.492188 C 130.101562 169.613281 129.792969 170.617188 129.824219 171.273438 C 129.882812 172.566406 129.839844 173.859375 129.839844 175.183594 Z M 129.839844 175.183594 " fill-opacity="1" fill-rule="nonzero"/><path fill="currentColor" d="M 140.085938 178.914062 C 140.339844 177.296875 140.425781 175.636719 140.878906 174.078125 C 141.511719 171.886719 143.417969 170.648438 145.617188 171.078125 C 146.476562 171.246094 147.402344 172.097656 147.886719 172.890625 C 148.421875 173.761719 148.566406 174.90625 148.738281 175.957031 C 148.898438 176.945312 148.945312 177.96875 148.917969 178.96875 C 148.855469 181.019531 147.65625 182.421875 145.964844 183.316406 C 144.714844 183.972656 143.527344 183.976562 142.285156 182.601562 C 141.339844 181.550781 140.160156 180.605469 140.089844 178.910156 Z M 146.875 177.40625 C 146.707031 176.328125 146.714844 175.386719 146.382812 174.585938 C 146.113281 173.9375 145.46875 173.066406 144.921875 173.011719 C 144.359375 172.957031 143.363281 173.664062 143.175781 174.234375 C 142.757812 175.535156 142.699219 176.953125 142.539062 178.328125 C 142.351562 179.90625 143.488281 180.5625 144.640625 181.125 C 145.242188 181.417969 145.777344 181.167969 145.984375 180.480469 C 146.304688 179.421875 146.601562 178.355469 146.875 177.40625 Z M 146.875 177.40625 " fill-opacity="1" fill-rule="nonzero"/><path fill="currentColor" d="M 181.472656 176.871094 C 179.746094 175.335938 177.984375 173.851562 176.34375 172.242188 C 176.023438 171.929688 176.171875 171.136719 176.097656 170.527344 C 179.28125 170.589844 180.589844 173.101562 182.753906 174.664062 C 183.296875 173.382812 183.886719 172.203125 184.289062 170.960938 C 184.542969 170.171875 184.957031 169.785156 185.691406 170.023438 C 186.410156 170.253906 186.296875 170.917969 186.085938 171.492188 C 185.351562 173.53125 184.589844 175.5625 183.863281 177.601562 C 183.199219 179.464844 182.597656 181.347656 181.910156 183.199219 C 181.683594 183.804688 181.523438 184.570312 180.578125 184.542969 C 179.410156 184.507812 178.917969 183.738281 179.398438 182.253906 C 179.835938 180.898438 180.511719 179.621094 181.054688 178.296875 C 181.230469 177.863281 181.320312 177.398438 181.472656 176.871094 Z M 181.472656 176.871094 " fill-opacity="1" fill-rule="nonzero"/></svg>