<svg xmlns="http://www.w3.org/2000/svg" xmlns:xlink="http://www.w3.org/1999/xlink" width="400" zoomAndPan="magnify" viewBox="0 0 300 299.999988" height="400" preserveAspectRatio="xMidYMid meet" version="1.0"><defs><clipPath id="e10612406a"><path d="M 45.449219 30 L 254.699219 30 L 254.699219 270 L 45.449219 270 Z M 45.449219 30 " clip-rule="nonzero"/></clipPath></defs><g clip-path="url(#e10612406a)"><path fill="currentColor" d="M 60.582031 122.726562 C 60.441406 122.675781 60.296875 122.628906 60.199219 122.628906 C 58.09375 122.390625 56.371094 121.433594 54.789062 120.140625 C 54.5 119.898438 54.167969 119.757812 53.832031 119.707031 C 52.488281 119.46875 51.292969 118.894531 50.289062 117.984375 C 49.042969 116.785156 47.890625 115.492188 46.742188 114.199219 C 45.785156 113.097656 45.449219 111.757812 45.546875 110.371094 C 45.640625 109.074219 45.882812 107.734375 46.167969 106.441406 C 46.503906 105.054688 47.367188 103.953125 48.515625 103.089844 C 49.902344 102.035156 51.339844 101.078125 52.730469 100.023438 C 53.878906 99.113281 55.027344 98.0625 56.128906 97.101562 C 57.804688 95.570312 59.433594 93.941406 61.160156 92.503906 C 63.695312 90.351562 66.1875 88.195312 68.246094 85.511719 C 68.773438 84.84375 69.394531 84.21875 70.019531 83.597656 C 72.890625 80.628906 75.8125 77.660156 78.734375 74.6875 C 79.933594 73.492188 81.273438 72.4375 82.519531 71.289062 C 82.613281 71.191406 82.757812 71.097656 82.855469 70.953125 C 82.757812 70.859375 82.757812 70.808594 82.664062 70.714844 C 81.464844 69.613281 80.984375 67.839844 81.753906 66.402344 C 82.183594 65.542969 82.277344 64.917969 82.085938 64.007812 C 81.894531 63.148438 82.277344 62.332031 82.855469 61.664062 C 83.09375 61.375 83.09375 61.230469 82.902344 60.945312 C 82.039062 59.652344 81.703125 58.214844 81.464844 56.730469 C 81.417969 56.441406 81.511719 56.105469 81.511719 55.820312 C 81.511719 55.53125 81.5625 55.195312 81.5625 54.910156 C 81.371094 52.707031 81.035156 50.503906 81.082031 48.300781 C 81.082031 47.054688 81.5625 45.761719 82.085938 44.566406 C 82.855469 42.890625 83.570312 41.210938 83.859375 39.34375 C 84.097656 37.765625 85.007812 36.566406 86.253906 35.5625 C 89.511719 33.023438 93.292969 32.160156 97.316406 32.160156 C 98.082031 32.160156 98.851562 32.496094 99.617188 32.640625 C 99.855469 32.6875 100.191406 32.734375 100.429688 32.640625 C 102.777344 31.492188 105.265625 31.394531 107.710938 31.730469 C 114.65625 32.734375 121.597656 32.496094 128.542969 32.402344 C 131.128906 32.351562 133.761719 31.777344 136.347656 31.25 C 142.335938 30.007812 148.273438 30.054688 154.214844 31.441406 C 155.074219 31.632812 155.839844 31.632812 156.703125 31.492188 C 158.378906 31.25 160.105469 31.15625 161.828125 31.058594 C 166.570312 30.820312 171.3125 30.675781 176.003906 30.4375 C 179.023438 30.292969 181.941406 30.914062 184.769531 31.824219 C 187.210938 32.640625 189.652344 32.785156 192.191406 32.640625 C 194.347656 32.496094 196.550781 32.351562 198.707031 32.257812 C 199.949219 32.207031 201.195312 32.351562 202.394531 32.351562 C 202.824219 32.351562 203.207031 32.351562 203.636719 32.257812 C 204.882812 31.96875 206.128906 31.921875 207.375 32.160156 C 207.996094 32.257812 208.617188 32.402344 209.242188 32.449219 C 212.546875 32.734375 214.703125 34.605469 216.28125 37.332031 C 217.910156 40.160156 218.101562 43.128906 217.335938 46.242188 C 216.855469 48.253906 216.617188 50.265625 216.808594 52.371094 C 217.046875 54.71875 216.761719 57.015625 216.089844 59.269531 C 215.996094 59.601562 216.089844 59.746094 216.378906 59.9375 C 217 60.417969 217.671875 60.847656 218.148438 61.472656 C 219.203125 62.859375 218.867188 64.679688 217.429688 65.734375 C 217.097656 65.972656 217 66.164062 217.097656 66.59375 C 217.429688 68.511719 216.953125 70.140625 215.371094 71.433594 C 215.5625 71.625 215.707031 71.816406 215.898438 71.960938 C 218.199219 74.210938 220.449219 76.507812 222.84375 78.664062 C 225.332031 80.914062 227.296875 83.597656 229.019531 86.421875 C 231.605469 90.683594 234.527344 94.660156 237.738281 98.445312 C 238.886719 99.785156 239.894531 101.222656 240.417969 102.945312 C 240.515625 103.28125 240.800781 103.570312 240.996094 103.902344 C 242.574219 106.058594 244.15625 108.167969 245.6875 110.320312 C 246.023438 110.800781 246.453125 111.136719 247.027344 111.230469 C 249.664062 111.710938 251.722656 113.242188 253.6875 114.96875 C 254.355469 115.542969 254.546875 116.308594 254.355469 117.167969 C 253.972656 118.941406 253.636719 120.714844 253.160156 122.4375 C 252.96875 123.109375 252.585938 123.828125 252.105469 124.355469 C 250.8125 125.695312 249.519531 126.988281 248.082031 128.136719 C 245.160156 130.578125 241.808594 131.347656 238.074219 130.484375 C 237.976562 130.484375 237.882812 130.4375 237.738281 130.4375 C 237.738281 130.628906 237.738281 130.769531 237.738281 130.960938 C 238.933594 140.78125 238.933594 150.597656 238.265625 160.464844 C 236.539062 185.03125 231.082031 208.738281 222.171875 231.679688 C 219.15625 239.488281 215.707031 247.101562 211.730469 254.476562 C 210.871094 256.058594 209.769531 257.207031 208.1875 258.070312 C 202.871094 260.941406 197.269531 262.953125 191.425781 264.488281 C 181.511719 267.074219 171.453125 268.460938 161.253906 269.179688 C 151.53125 269.898438 141.855469 269.992188 132.136719 269.277344 C 121.839844 268.558594 111.683594 267.167969 101.820312 263.960938 C 97.699219 262.617188 93.726562 260.894531 90.179688 258.355469 C 88.21875 256.96875 86.589844 255.339844 85.632812 253.089844 C 85.582031 252.992188 85.535156 252.847656 85.390625 252.753906 C 84.53125 252.226562 84.097656 251.316406 83.621094 250.453125 C 78.351562 241.164062 74.136719 231.34375 70.59375 221.238281 C 65.085938 205.53125 61.492188 189.4375 59.339844 172.964844 C 58.09375 163.195312 57.519531 153.375 57.902344 143.511719 C 58.1875 136.613281 58.859375 129.8125 60.535156 123.109375 C 60.535156 123.109375 60.535156 122.917969 60.582031 122.726562 Z M 234.386719 126.222656 C 233.332031 126.125 232.277344 126.171875 231.367188 125.886719 C 230.410156 125.597656 229.546875 124.929688 228.589844 124.640625 C 227.058594 124.164062 225.523438 123.828125 224.136719 125.167969 C 223.5625 125.695312 222.796875 126.171875 222.078125 126.316406 C 220.785156 126.558594 219.394531 126.699219 218.054688 126.605469 C 214.988281 126.460938 213.550781 124.164062 214.605469 121.335938 C 215.085938 120.042969 214.507812 119.085938 213.121094 119.085938 C 211.730469 119.085938 210.390625 119.230469 209.003906 119.132812 C 207.804688 119.039062 206.65625 119.277344 205.507812 119.46875 C 202.535156 119.851562 199.808594 121.050781 196.980469 121.816406 C 194.25 122.535156 191.714844 122.152344 189.269531 121 C 187.929688 120.378906 187.308594 119.230469 187.210938 117.746094 C 187.164062 117.074219 187.164062 116.453125 187.066406 115.78125 C 187.019531 115.492188 186.972656 115.160156 186.78125 114.917969 C 185.726562 113.386719 184.433594 112.238281 182.519531 112.046875 C 181.417969 111.949219 180.363281 111.902344 179.261719 111.855469 C 177.34375 111.757812 175.621094 111.277344 173.945312 110.273438 C 172.890625 109.652344 171.742188 109.171875 170.59375 108.691406 C 169.96875 108.40625 169.300781 108.214844 168.628906 107.925781 C 167.625 107.496094 166.855469 106.824219 166.378906 105.769531 C 166.234375 105.484375 165.996094 105.148438 165.707031 105.054688 C 162.976562 104.09375 160.152344 103.570312 157.277344 104.09375 C 155.027344 104.527344 154.070312 105.964844 154.261719 108.214844 C 154.40625 109.746094 154.5 111.230469 154.453125 112.765625 C 154.40625 114.34375 153.496094 115.398438 152.058594 116.066406 C 151.050781 116.546875 150.046875 116.691406 148.945312 116.644531 C 147.222656 116.644531 145.496094 116.59375 143.820312 116.644531 C 142.097656 116.691406 140.5625 117.265625 139.222656 118.367188 C 137.976562 119.371094 136.683594 120.234375 135.296875 121.050781 C 133.238281 122.246094 130.890625 122.773438 128.542969 123.203125 C 125.144531 123.828125 121.789062 124.449219 118.34375 124.304688 C 114.03125 124.164062 109.863281 123.394531 105.890625 121.71875 C 104.597656 121.191406 103.304688 121.191406 101.964844 121.382812 C 100.667969 121.527344 99.375 121.863281 98.082031 122.152344 C 95.640625 122.628906 93.292969 122.675781 91.042969 121.433594 C 90.660156 121.242188 90.179688 121.144531 89.75 121 C 87.976562 120.378906 86.351562 120.859375 84.816406 121.71875 C 83.332031 122.535156 81.894531 123.394531 80.410156 124.113281 C 79.835938 124.402344 79.117188 124.59375 78.542969 124.449219 C 77.539062 124.210938 76.675781 124.402344 75.765625 124.738281 C 73.371094 125.550781 71.023438 125.550781 68.820312 124.113281 C 68.054688 123.636719 67.335938 122.964844 66.617188 122.4375 C 66.332031 122.199219 66.089844 121.765625 65.566406 122.007812 C 64.941406 122.246094 64.320312 122.484375 63.648438 122.628906 C 63.265625 122.726562 63.074219 122.867188 62.980469 123.300781 C 61.972656 129.957031 61.253906 136.613281 61.0625 143.320312 C 60.679688 155.4375 61.542969 167.457031 63.410156 179.429688 C 66.140625 196.957031 70.976562 213.863281 77.777344 230.242188 C 80.554688 236.851562 83.714844 243.316406 87.210938 249.542969 C 87.546875 250.117188 87.738281 250.789062 87.785156 251.410156 C 87.835938 251.890625 87.882812 252.273438 88.21875 252.65625 C 89.847656 254.574219 91.859375 256.007812 94.0625 257.160156 C 97.890625 259.171875 101.914062 260.511719 106.082031 261.613281 C 116.523438 264.34375 127.203125 265.445312 137.929688 265.875 C 147.941406 266.257812 157.949219 265.972656 167.957031 264.871094 C 177.535156 263.816406 186.972656 262.09375 196.167969 259.121094 C 199.902344 257.925781 203.589844 256.488281 206.992188 254.429688 C 207.324219 254.238281 207.613281 253.949219 207.804688 253.664062 C 212.257812 245.953125 215.996094 237.90625 219.105469 229.574219 C 224.566406 214.964844 228.445312 199.925781 231.082031 184.554688 C 233.09375 172.820312 234.335938 160.992188 234.671875 149.066406 C 234.863281 142.410156 234.671875 135.703125 234.433594 129.046875 C 234.527344 127.992188 234.433594 127.082031 234.386719 126.222656 Z M 89.511719 74.164062 C 88.410156 73.492188 87.402344 72.871094 86.351562 72.292969 C 86.253906 72.246094 85.96875 72.292969 85.871094 72.4375 C 84.242188 73.921875 82.566406 75.359375 80.984375 76.890625 C 79.023438 78.808594 77.25 80.914062 75.144531 82.640625 C 71.167969 85.945312 67.527344 89.582031 63.792969 93.128906 C 61.734375 95.042969 60.007812 97.246094 58.285156 99.449219 C 56.035156 102.273438 52.875 103.953125 49.617188 105.4375 C 48.660156 105.867188 47.988281 106.441406 47.941406 107.589844 C 47.941406 108.023438 47.890625 108.453125 47.796875 108.882812 C 47.414062 110.992188 48.660156 112.332031 50 113.671875 C 50 113.480469 49.953125 113.339844 49.902344 113.195312 C 49.761719 112.667969 49.519531 112.1875 49.472656 111.613281 C 49.425781 111.328125 49.617188 110.894531 49.808594 110.800781 C 50 110.703125 50.429688 110.800781 50.71875 110.894531 C 50.957031 110.992188 51.101562 111.230469 51.246094 111.421875 C 51.675781 111.996094 52.011719 112.621094 52.441406 113.195312 C 55.269531 117.027344 58.714844 119.5625 63.792969 118.796875 C 65.230469 118.605469 66.332031 119.132812 67.097656 120.332031 C 67.480469 120.953125 67.960938 121.625 68.582031 121.910156 C 70.113281 122.675781 71.789062 123.0625 73.515625 122.582031 C 74.183594 122.390625 74.855469 122.152344 75.476562 121.960938 C 76.484375 121.625 77.488281 121.382812 78.542969 121.671875 C 78.832031 121.765625 79.214844 121.671875 79.453125 121.480469 C 80.554688 120.808594 81.65625 120.140625 82.757812 119.46875 C 83.1875 119.179688 83.621094 118.894531 84.097656 118.65625 C 87.019531 117.265625 89.894531 117.503906 92.765625 118.988281 C 93.582031 119.421875 94.492188 119.851562 95.355469 119.898438 C 96.742188 119.949219 98.132812 119.707031 99.472656 119.515625 C 100.382812 119.371094 101.339844 119.132812 101.960938 118.988281 C 102.296875 118.128906 102.488281 117.503906 102.777344 116.882812 C 103.113281 116.164062 103.589844 115.542969 103.925781 114.824219 C 105.554688 111.421875 107.183594 108.070312 108.761719 104.621094 C 110.726562 100.359375 112.59375 96.050781 115.132812 92.074219 C 115.5625 91.402344 116.042969 90.78125 116.523438 90.207031 C 116.761719 89.917969 117.097656 89.726562 117.433594 90.015625 C 116.953125 90.878906 116.472656 91.644531 116.089844 92.457031 C 114.269531 96.242188 112.929688 100.167969 111.734375 104.191406 C 110.390625 108.644531 108.667969 112.957031 106.558594 117.121094 C 106.273438 117.746094 105.890625 118.320312 105.507812 118.988281 C 107.136719 119.324219 108.714844 119.660156 110.296875 119.996094 C 110.773438 120.089844 110.964844 119.996094 111.0625 119.46875 C 111.398438 117.9375 111.734375 116.355469 112.117188 114.824219 C 112.355469 113.914062 112.738281 113.050781 113.121094 112.238281 C 113.21875 112.046875 113.554688 111.902344 113.746094 111.757812 C 113.792969 111.996094 113.9375 112.238281 113.9375 112.523438 C 113.9375 114.964844 113.886719 117.410156 113.839844 119.804688 C 113.839844 120.234375 113.984375 120.472656 114.460938 120.472656 C 115.421875 120.523438 116.378906 120.617188 117.335938 120.617188 C 121.789062 120.714844 126.101562 119.851562 130.316406 118.796875 C 132.085938 118.320312 133.8125 117.457031 135.535156 116.785156 C 136.0625 116.546875 136.15625 116.261719 135.964844 115.683594 C 135.441406 114.25 134.914062 112.8125 134.625 111.328125 C 134.097656 108.742188 133.667969 106.105469 133.378906 103.472656 C 133.09375 101.171875 132.996094 98.828125 132.851562 96.527344 C 132.804688 96.097656 132.996094 95.714844 133.09375 95.28125 C 133.1875 95.28125 133.285156 95.28125 133.378906 95.28125 C 133.429688 95.570312 133.523438 95.859375 133.570312 96.191406 C 133.621094 96.71875 133.570312 97.292969 133.667969 97.820312 C 134.242188 100.40625 134.769531 102.992188 135.390625 105.578125 C 136.15625 108.644531 137.066406 111.664062 138.648438 114.441406 C 138.886719 114.824219 139.078125 114.917969 139.511719 114.824219 C 140.230469 114.632812 140.945312 114.488281 141.664062 114.441406 C 143.675781 114.34375 145.640625 114.34375 147.652344 114.25 C 148.035156 114.25 148.371094 114.199219 148.945312 114.152344 C 147.746094 113.003906 147.222656 111.710938 146.742188 110.367188 C 145.929688 107.925781 145.160156 105.4375 144.25 103.042969 C 143.4375 100.933594 142.765625 98.777344 142.382812 96.527344 C 141.378906 91.210938 140.421875 85.945312 140.179688 80.53125 C 140.179688 80.386719 140.132812 80.246094 140.085938 80.054688 C 139.796875 80.148438 139.605469 80.246094 139.367188 80.339844 C 137.117188 81.585938 134.914062 82.78125 132.710938 84.027344 C 132.328125 84.269531 131.945312 84.601562 131.703125 84.984375 C 130.648438 86.613281 129.308594 87.8125 127.441406 88.339844 C 125.285156 88.960938 123.132812 89.582031 120.976562 90.160156 C 120.113281 90.398438 119.300781 90.160156 118.628906 89.535156 C 117.71875 88.769531 116.855469 88.003906 115.996094 87.1875 C 115.753906 86.949219 115.515625 86.566406 115.46875 86.183594 C 115.230469 84.84375 116.140625 83.980469 117.671875 84.171875 C 119.445312 84.410156 121.167969 84.027344 122.75 83.308594 C 124.757812 82.351562 126.675781 81.203125 128.496094 79.910156 C 130.792969 78.28125 133.238281 76.84375 135.632812 75.3125 C 135.824219 75.214844 136.015625 75.074219 136.109375 75.023438 C 135.152344 74.402344 134.195312 73.828125 133.285156 73.253906 C 133.140625 73.15625 132.902344 73.109375 132.757812 73.15625 C 130.699219 73.636719 128.589844 73.730469 126.484375 73.730469 C 123.417969 73.730469 120.449219 74.6875 117.527344 74.355469 C 116.953125 75.167969 116.570312 76.03125 115.949219 76.652344 C 113.265625 79.382812 111.398438 82.589844 109.816406 86.039062 C 109.097656 87.574219 108.285156 89.105469 107.277344 90.398438 C 103.304688 95.476562 98.992188 100.3125 94.253906 104.71875 C 89.558594 109.125 84.769531 113.386719 80.601562 118.320312 C 80.554688 118.367188 80.507812 118.414062 80.460938 118.464844 C 80.269531 118.558594 80.027344 118.703125 79.882812 118.65625 C 79.742188 118.558594 79.550781 118.269531 79.597656 118.078125 C 79.644531 117.648438 79.691406 117.167969 79.882812 116.835938 C 80.507812 115.683594 81.082031 114.488281 81.847656 113.480469 C 84.148438 110.273438 86.875 107.449219 89.75 104.765625 C 90.949219 103.664062 92.050781 102.5625 92.765625 101.078125 C 93.628906 99.355469 94.828125 97.820312 95.785156 96.144531 C 99.042969 90.398438 102.203125 84.652344 105.460938 78.902344 C 106.417969 77.179688 107.613281 75.597656 108.667969 73.921875 C 108.761719 73.78125 108.90625 73.585938 109.050781 73.492188 C 109.195312 73.394531 109.480469 73.300781 109.578125 73.347656 C 109.722656 73.445312 109.816406 73.730469 109.769531 73.875 C 109.671875 74.257812 109.53125 74.6875 109.386719 75.023438 C 108.667969 76.652344 107.855469 78.28125 107.136719 79.957031 C 105.265625 84.269531 103.398438 88.625 101.53125 92.9375 C 101.484375 93.078125 101.4375 93.273438 101.386719 93.414062 C 102.871094 92.074219 104.214844 90.636719 105.554688 89.25 C 106.703125 88.050781 107.566406 86.664062 108.285156 85.128906 C 109.289062 83.023438 110.25 80.867188 111.300781 78.761719 C 112.308594 76.796875 113.121094 74.640625 115.132812 73.300781 C 114.847656 73.15625 114.65625 73.0625 114.414062 72.917969 C 113.746094 72.582031 113.074219 72.292969 112.402344 71.960938 C 111.351562 71.433594 110.25 71.242188 109.097656 71.386719 C 107.566406 71.625 106.082031 71.960938 104.550781 72.292969 C 100.476562 73.253906 96.457031 74.257812 92.382812 75.265625 C 92.242188 75.3125 92.050781 75.359375 91.90625 75.457031 C 90.757812 76.316406 89.511719 77.035156 88.554688 78.042969 C 86.492188 80.148438 84.480469 82.351562 82.664062 84.652344 C 79.597656 88.625 76.773438 92.746094 73.800781 96.769531 C 72.03125 99.164062 70.257812 101.558594 68.4375 103.902344 C 68.199219 104.238281 67.578125 104.71875 67.382812 104.621094 C 66.808594 104.335938 67.097656 103.664062 67.242188 103.234375 C 67.71875 101.941406 68.199219 100.648438 68.820312 99.449219 C 73.609375 90.542969 79.691406 82.640625 87.117188 75.789062 C 88.074219 75.457031 88.746094 74.882812 89.511719 74.164062 Z M 153.734375 80.339844 C 153.832031 80.292969 153.925781 80.246094 154.023438 80.246094 C 154.164062 80.4375 154.308594 80.628906 154.40625 80.820312 C 154.835938 81.683594 155.21875 82.589844 155.699219 83.453125 C 156.800781 85.464844 158.042969 87.476562 159.097656 89.535156 C 160.871094 92.839844 162.882812 96 165.277344 98.875 C 166.714844 100.597656 167.671875 102.46875 168.484375 104.476562 C 168.820312 105.292969 169.300781 105.769531 170.066406 106.058594 C 171.933594 106.777344 173.753906 107.589844 175.621094 108.261719 C 176.339844 108.5 177.105469 108.644531 177.824219 108.691406 C 179.308594 108.742188 180.792969 108.742188 182.277344 108.691406 C 186.109375 108.644531 191.089844 112.378906 190.515625 117.21875 C 190.46875 117.792969 190.707031 118.128906 191.234375 118.320312 C 192.527344 118.796875 193.867188 118.847656 195.257812 118.847656 C 198.515625 118.75 201.433594 116.929688 204.738281 117.027344 C 204.738281 117.027344 204.789062 117.027344 204.789062 117.027344 C 206.703125 116.691406 208.570312 116.261719 210.488281 115.972656 C 211.589844 115.78125 212.738281 115.828125 213.984375 115.734375 C 213.839844 115.542969 213.742188 115.351562 213.601562 115.207031 C 212.449219 114.152344 211.398438 113.050781 210.199219 112.09375 C 206.800781 109.316406 203.589844 106.347656 200.8125 102.945312 C 196.070312 97.054688 191.519531 90.972656 187.882812 84.269531 C 187.785156 84.078125 187.738281 83.882812 187.640625 83.691406 C 187.691406 83.644531 187.738281 83.597656 187.785156 83.550781 C 188.023438 83.644531 188.265625 83.644531 188.457031 83.789062 C 188.742188 83.980469 188.984375 84.21875 189.222656 84.507812 C 191.953125 87.714844 194.777344 90.828125 197.414062 94.132812 C 201.816406 99.6875 206.800781 104.574219 212.113281 109.269531 C 213.40625 110.417969 214.605469 111.710938 215.660156 113.097656 C 217.71875 115.875 218.148438 118.988281 217.097656 122.292969 C 216.808594 123.253906 217.144531 123.828125 218.148438 123.730469 C 219.632812 123.585938 221.214844 123.585938 222.554688 122.773438 C 223.511719 122.199219 224.566406 122.101562 225.621094 122.34375 C 226.867188 122.582031 228.109375 122.820312 229.355469 122.964844 C 230.984375 123.15625 232.566406 123.0625 234.050781 122.054688 C 235.199219 121.242188 236.492188 120.664062 237.785156 120.042969 C 239.269531 119.324219 240.800781 118.65625 242.335938 118.078125 C 243.101562 117.792969 243.964844 117.601562 244.824219 117.601562 C 246.023438 117.554688 246.933594 118.175781 247.410156 119.230469 C 248.035156 120.664062 248.128906 122.054688 246.886719 123.300781 C 246.359375 123.828125 245.832031 124.304688 245.257812 124.785156 C 245.015625 124.976562 244.632812 125.121094 244.296875 125.167969 C 243.675781 125.3125 243.195312 124.976562 243.148438 124.355469 C 243.101562 123.921875 243.246094 123.394531 243.4375 123.011719 C 243.628906 122.582031 244.011719 122.199219 244.296875 121.816406 C 244.683594 121.289062 244.730469 120.523438 244.394531 120.1875 C 244.105469 119.898438 243.246094 119.949219 242.8125 120.28125 C 240.945312 121.910156 239.175781 123.636719 236.875 124.6875 C 236.730469 124.785156 236.589844 125.121094 236.589844 125.3125 C 236.730469 126.125 236.921875 126.941406 237.066406 127.753906 C 237.113281 128.089844 237.257812 128.234375 237.640625 128.183594 C 241.1875 128.089844 244.347656 126.941406 247.125 124.640625 C 247.890625 124.019531 248.703125 123.394531 249.472656 122.726562 C 249.804688 122.4375 250.140625 122.054688 250.238281 121.625 C 250.667969 120.332031 250.957031 118.988281 251.339844 117.648438 C 251.53125 117.027344 251.289062 116.738281 250.765625 116.453125 C 249.28125 115.734375 247.792969 114.96875 246.261719 114.25 C 245.066406 113.671875 244.058594 113.003906 243.4375 111.757812 C 243.195312 111.328125 242.910156 110.945312 242.574219 110.609375 C 241.1875 109.074219 239.796875 107.542969 238.40625 106.011719 C 237.929688 105.484375 237.546875 104.957031 237.164062 104.335938 C 236.394531 103.183594 235.773438 101.941406 235.007812 100.789062 C 232.183594 96.769531 229.355469 92.746094 226.816406 88.480469 C 225.523438 86.28125 223.898438 84.21875 222.171875 82.304688 C 220.734375 80.675781 218.964844 79.335938 217.335938 77.851562 C 215.515625 76.175781 213.648438 74.546875 211.78125 72.917969 C 211.636719 72.773438 211.347656 72.726562 211.15625 72.773438 C 207.949219 73.300781 204.789062 73.492188 201.53125 73.394531 C 201.242188 73.394531 200.957031 73.445312 200.714844 73.585938 C 198.898438 74.976562 196.789062 75.550781 194.585938 75.648438 C 192.480469 75.742188 190.371094 75.503906 188.265625 75.40625 C 187.976562 75.40625 187.691406 75.40625 187.355469 75.40625 C 187.355469 75.457031 187.355469 75.503906 187.308594 75.597656 C 188.792969 76.175781 190.277344 76.75 191.714844 77.371094 C 192.816406 77.851562 193.964844 78.28125 195.015625 78.902344 C 197.21875 80.101562 199.375 81.441406 201.578125 82.6875 C 204.019531 84.027344 206.511719 85.226562 209.195312 85.992188 C 210.964844 86.519531 212.785156 86.757812 214.605469 86.804688 C 215.753906 86.804688 216.855469 86.566406 217.910156 85.847656 C 219.96875 84.460938 222.796875 85.703125 223.320312 88.148438 C 223.371094 88.433594 223.371094 88.816406 223.320312 89.105469 C 223.035156 90.492188 221.261719 92.074219 219.875 92.3125 C 219.15625 92.410156 218.484375 92.601562 217.765625 92.601562 C 215.5625 92.695312 213.40625 92.984375 211.15625 92.410156 C 208.1875 91.691406 205.265625 90.972656 202.679688 89.25 C 202.058594 88.816406 201.386719 88.53125 200.714844 88.289062 C 197.507812 86.996094 194.492188 85.320312 191.472656 83.597656 C 190.660156 83.117188 189.75 82.832031 188.839844 82.449219 C 187.59375 81.921875 186.207031 81.539062 185.105469 80.820312 C 182.710938 79.285156 180.121094 78.042969 177.394531 77.226562 C 176.101562 76.84375 174.808594 76.367188 173.464844 76.03125 C 171.933594 75.648438 170.351562 75.359375 168.820312 75.074219 C 168.582031 75.023438 168.246094 75.074219 168.054688 75.214844 C 166.234375 76.605469 164.367188 76.507812 162.5 75.40625 C 162.117188 75.167969 161.78125 75.167969 161.347656 75.3125 C 160.054688 75.789062 158.8125 75.742188 157.710938 74.832031 C 157.375 74.546875 157.132812 74.496094 156.703125 74.59375 C 153.589844 75.503906 150.429688 76.367188 147.316406 77.324219 C 145.832031 77.753906 144.347656 78.28125 142.910156 78.902344 C 141.332031 79.574219 141.472656 79.144531 141.953125 80.964844 C 142.863281 84.171875 143.917969 87.285156 144.828125 90.492188 C 145.929688 94.375 146.933594 98.253906 147.988281 102.132812 C 148.082031 102.515625 148.179688 102.898438 148.226562 103.28125 C 148.5625 106.105469 149.472656 108.835938 150.382812 111.519531 C 150.429688 111.710938 150.574219 111.902344 150.667969 112.046875 C 150.71875 112.046875 150.765625 111.996094 150.8125 111.996094 C 150.8125 111.804688 150.8125 111.566406 150.8125 111.375 C 150.859375 110.128906 150.859375 108.835938 150.957031 107.589844 C 151.195312 104.382812 153.207031 102.082031 156.367188 101.367188 C 158.1875 100.933594 160.054688 100.933594 161.925781 101.222656 C 162.117188 101.269531 162.257812 101.269531 162.546875 101.269531 C 162.449219 101.078125 162.449219 101.03125 162.402344 100.933594 C 159.480469 96.910156 157.277344 92.503906 155.648438 87.8125 C 154.980469 85.894531 154.308594 83.980469 153.734375 82.066406 C 153.6875 81.585938 153.734375 80.964844 153.734375 80.339844 Z M 118.246094 61.804688 C 118.292969 61.710938 118.390625 61.613281 118.4375 61.566406 C 118.152344 61.375 117.863281 61.183594 117.625 60.945312 C 113.984375 57.257812 111.492188 52.945312 110.488281 47.820312 C 110.34375 47.101562 110.390625 46.335938 110.390625 45.617188 C 110.390625 45.476562 110.488281 45.378906 110.582031 45.234375 C 110.726562 45.332031 110.871094 45.378906 110.964844 45.476562 C 111.0625 45.570312 111.0625 45.714844 111.109375 45.808594 C 112.785156 50.695312 115.5625 54.910156 119.347656 58.5 C 120.496094 59.601562 121.550781 60.703125 122.699219 61.804688 C 122.796875 61.902344 122.941406 62.046875 123.082031 62.046875 C 123.800781 62.09375 124.519531 62.140625 125.476562 62.191406 C 124.808594 61.089844 124.28125 60.179688 123.707031 59.269531 C 123.082031 58.214844 122.414062 57.207031 121.789062 56.15625 C 121.648438 55.914062 121.742188 55.582031 121.695312 55.339844 C 121.980469 55.390625 122.363281 55.390625 122.605469 55.53125 C 124.855469 57.398438 126.914062 59.363281 128.207031 62.046875 C 128.304688 62.191406 128.398438 62.332031 128.496094 62.476562 C 128.640625 61.566406 128.640625 60.65625 128.640625 59.792969 C 128.640625 58.070312 128.351562 56.296875 128.925781 54.621094 C 129.355469 53.234375 129.882812 51.894531 130.410156 50.503906 C 131.847656 46.910156 135.726562 45.90625 138.121094 46 C 138.695312 46.050781 139.320312 46.195312 139.894531 46.433594 C 141.570312 47.152344 143.246094 47.917969 144.921875 48.730469 C 145.738281 49.164062 146.550781 49.640625 147.316406 50.167969 C 148.273438 50.792969 149.183594 51.507812 150.191406 52.085938 C 152.488281 53.472656 154.355469 55.292969 155.839844 57.398438 C 157.660156 60.035156 160.054688 61.996094 162.738281 63.625 C 163.410156 64.058594 163.984375 64.488281 164.652344 63.675781 C 164.84375 63.433594 165.230469 63.386719 165.421875 63.148438 C 165.898438 62.574219 166.28125 61.902344 166.761719 61.328125 C 168.4375 59.460938 169.921875 57.398438 171.070312 55.148438 C 171.550781 54.289062 171.980469 53.378906 172.460938 52.46875 C 172.605469 52.226562 172.746094 52.035156 172.890625 51.84375 C 172.988281 51.75 173.128906 51.75 173.273438 51.699219 C 173.324219 51.84375 173.371094 51.988281 173.371094 52.085938 C 173.324219 52.417969 173.226562 52.707031 173.128906 53.042969 C 172.316406 56.203125 171.214844 59.269531 169.300781 61.996094 C 169.25 62.09375 169.203125 62.191406 169.203125 62.285156 C 169.683594 62.621094 170.019531 62.332031 170.351562 62.046875 C 173.371094 59.652344 175.71875 56.683594 177.726562 53.425781 C 178.972656 51.414062 179.835938 49.210938 180.316406 46.863281 C 180.363281 46.671875 180.507812 46.527344 180.601562 46.386719 C 180.648438 46.386719 180.746094 46.386719 180.792969 46.386719 C 180.890625 46.671875 181.03125 46.960938 181.03125 47.246094 C 180.890625 48.828125 180.839844 50.457031 180.457031 52.035156 C 179.691406 55.339844 177.921875 58.167969 176.050781 60.894531 C 175.910156 61.089844 175.8125 61.28125 175.667969 61.472656 C 175.8125 61.472656 175.859375 61.519531 175.910156 61.519531 C 176.101562 61.472656 176.292969 61.375 176.433594 61.328125 C 178.0625 60.703125 179.738281 60.226562 181.511719 60.464844 C 183.042969 60.65625 184.386719 60.417969 185.726562 59.652344 C 186.398438 59.269531 187.066406 58.933594 187.691406 58.5 C 189.941406 57.015625 192.238281 55.675781 194.730469 54.71875 C 197.507812 53.617188 200.332031 52.851562 203.351562 52.898438 C 205.839844 52.945312 207.613281 54.289062 208.140625 56.683594 C 208.476562 58.117188 208.523438 59.601562 208.714844 61.089844 C 208.714844 61.28125 208.714844 61.519531 208.714844 61.710938 C 208.761719 61.757812 208.859375 61.757812 208.90625 61.804688 C 209.097656 61.613281 209.335938 61.472656 209.433594 61.230469 C 209.71875 60.464844 210.105469 59.699219 210.246094 58.886719 C 210.964844 55.054688 210.871094 51.222656 209.863281 47.390625 C 209.671875 46.625 209.816406 45.761719 209.816406 44.949219 C 209.816406 44.804688 210.054688 44.660156 210.152344 44.515625 C 210.296875 44.660156 210.4375 44.757812 210.488281 44.902344 C 210.679688 45.378906 210.773438 45.953125 211.011719 46.433594 C 212.929688 49.691406 213.40625 53.234375 213.214844 56.921875 C 213.214844 57.066406 213.214844 57.207031 213.214844 57.351562 C 213.40625 56.96875 213.503906 56.585938 213.550781 56.203125 C 213.933594 53.378906 214.316406 50.550781 214.703125 47.773438 C 215.132812 44.707031 214.988281 41.738281 213.550781 38.960938 C 212.5 36.902344 211.011719 35.371094 208.523438 35.273438 C 208.285156 35.273438 207.996094 35.226562 207.757812 35.128906 C 206.082031 34.652344 204.5 35.035156 203.015625 35.800781 C 200.476562 37.09375 197.796875 37.859375 195.066406 38.53125 C 194.011719 38.769531 192.910156 38.914062 191.855469 39.007812 C 191.570312 39.058594 191.1875 38.816406 190.898438 38.675781 C 191.089844 38.386719 191.1875 37.957031 191.472656 37.8125 C 192.289062 37.332031 193.199219 36.902344 194.058594 36.472656 C 194.347656 36.328125 194.683594 36.183594 195.113281 35.992188 C 194.824219 35.945312 194.730469 35.898438 194.683594 35.898438 C 191.1875 35.707031 187.785156 35.035156 184.527344 33.789062 C 181.992188 32.832031 179.355469 32.351562 176.675781 32.542969 C 173.5625 32.734375 170.449219 32.976562 167.335938 33.214844 C 166.332031 33.308594 165.324219 33.453125 164.320312 33.550781 C 164.367188 33.695312 164.460938 33.742188 164.511719 33.742188 C 166.042969 33.933594 167.574219 34.125 169.109375 34.269531 C 170.976562 34.460938 172.84375 34.605469 174.664062 34.890625 C 175.621094 35.035156 176.578125 35.511719 177.441406 35.945312 C 177.96875 36.230469 177.921875 36.566406 177.34375 36.757812 C 176.675781 37 176.003906 37.238281 175.332031 37.332031 C 172.796875 37.765625 170.257812 37.523438 167.71875 37.238281 C 162.785156 36.664062 157.949219 35.753906 153.0625 34.652344 C 147.652344 33.453125 142.191406 33.308594 136.734375 34.078125 C 134.003906 34.460938 131.273438 34.84375 128.496094 35.035156 C 126.386719 35.226562 124.234375 35.128906 122.125 35.226562 C 117.480469 35.417969 112.835938 35.511719 108.1875 35.082031 C 105.074219 34.796875 102.058594 35.082031 99.234375 36.519531 C 98.417969 36.902344 97.605469 37.191406 96.742188 37.476562 C 96.3125 37.621094 95.785156 37.667969 95.496094 37.191406 C 95.210938 36.757812 95.402344 36.328125 95.6875 35.945312 C 95.929688 35.609375 96.214844 35.320312 96.550781 34.9375 C 95.929688 34.988281 95.402344 34.9375 94.875 35.035156 C 93.34375 35.273438 91.714844 35.371094 90.277344 35.945312 C 88.167969 36.757812 86.589844 38.101562 86.253906 40.636719 C 86.109375 41.882812 85.632812 43.082031 85.152344 44.230469 C 84.148438 46.433594 83.09375 48.636719 82.902344 51.125 C 82.804688 52.132812 82.566406 53.089844 82.996094 54.097656 C 83.523438 55.292969 83.957031 56.585938 84.433594 57.785156 C 84.722656 58.453125 85.007812 59.125 85.34375 59.746094 C 85.726562 60.417969 86.253906 60.800781 87.117188 60.753906 C 87.5 60.703125 87.882812 60.800781 88.265625 60.847656 C 89.222656 60.945312 90.179688 61.089844 91.140625 61.183594 C 90.757812 60.226562 90.324219 59.363281 90.085938 58.40625 C 89.605469 56.15625 89.269531 53.855469 89.414062 51.558594 C 89.558594 48.445312 90.421875 45.570312 92.335938 43.082031 C 92.480469 42.890625 92.671875 42.699219 92.910156 42.554688 C 93.246094 42.3125 93.390625 42.503906 93.390625 42.839844 C 93.390625 43.03125 93.292969 43.222656 93.246094 43.414062 C 92.863281 44.949219 92.289062 46.433594 92.191406 47.964844 C 91.90625 52.46875 92.527344 56.875 94.492188 61.039062 C 94.636719 61.328125 94.875 61.613281 95.164062 61.664062 C 95.640625 61.804688 96.121094 61.757812 96.742188 61.804688 C 96.597656 61.519531 96.457031 61.328125 96.359375 61.089844 C 95.113281 58.742188 94.445312 56.25 94.347656 53.617188 C 94.347656 53.425781 94.492188 53.234375 94.585938 53.042969 C 94.730469 53.1875 94.96875 53.328125 95.066406 53.519531 C 95.546875 54.621094 95.976562 55.773438 96.457031 56.875 C 97.222656 58.695312 98.226562 60.320312 99.808594 61.566406 C 100.144531 61.804688 100.621094 61.996094 101.054688 61.996094 C 105.265625 62.238281 109.53125 62.09375 113.746094 61.855469 C 115.230469 61.757812 116.761719 61.804688 118.246094 61.804688 Z M 172.507812 67.503906 C 172.554688 67.503906 172.605469 67.554688 172.652344 67.554688 C 173.707031 67.171875 174.757812 66.644531 175.859375 66.402344 C 179.117188 65.734375 182.375 65.160156 185.628906 64.535156 C 186.300781 64.390625 187.019531 64.199219 187.59375 63.816406 C 188.601562 63.242188 189.460938 62.429688 190.46875 61.804688 C 192.382812 60.65625 194.300781 59.507812 196.261719 58.40625 C 197.316406 57.832031 198.417969 57.398438 199.566406 57.015625 C 200.574219 56.683594 201.625 56.921875 202.441406 57.640625 C 203.160156 58.308594 203.542969 59.078125 203.160156 60.082031 C 203.113281 60.273438 203.0625 60.464844 203.0625 60.65625 C 202.871094 62.285156 202.34375 63.769531 201.195312 64.96875 C 200.476562 65.734375 199.855469 66.546875 199.230469 67.363281 C 197.84375 69.085938 196.167969 70.378906 194.011719 70.90625 C 192.289062 71.335938 190.613281 71.191406 188.933594 70.667969 C 185.246094 69.421875 181.464844 68.796875 177.585938 68.273438 C 176.242188 68.082031 175.046875 68.464844 173.707031 69.039062 C 174.472656 69.324219 175.140625 69.46875 175.71875 69.757812 C 177.152344 70.523438 178.6875 70.953125 180.265625 71.289062 C 182.566406 71.816406 184.863281 72.488281 187.164062 72.871094 C 189.125 73.203125 191.136719 73.394531 193.101562 73.394531 C 195.925781 73.347656 198.515625 72.535156 200.382812 70.140625 C 201.578125 68.605469 202.871094 67.121094 204.070312 65.589844 C 204.40625 65.160156 204.789062 64.585938 204.882812 64.058594 C 205.3125 61.757812 205.507812 59.460938 205.027344 57.113281 C 204.789062 55.914062 204.210938 55.390625 202.96875 55.195312 C 201.148438 54.910156 199.421875 55.195312 197.699219 55.675781 C 194.394531 56.585938 191.472656 58.214844 188.742188 60.371094 C 186.589844 62.046875 184.242188 63.148438 181.417969 63.195312 C 178.78125 63.242188 176.433594 64.296875 174.28125 65.734375 C 173.609375 66.308594 173.082031 66.980469 172.507812 67.503906 Z M 83.570312 66.789062 C 83.570312 67.171875 83.570312 67.503906 83.621094 67.792969 C 83.765625 68.941406 84.339844 69.421875 85.488281 69.324219 C 85.773438 69.277344 86.0625 69.277344 86.351562 69.324219 C 88.3125 69.515625 89.988281 70.332031 91.472656 71.527344 C 92.144531 72.054688 92.816406 72.199219 93.628906 72.054688 C 95.066406 71.816406 96.550781 71.578125 98.035156 71.527344 C 101.246094 71.480469 104.308594 70.617188 107.375 69.851562 C 111.207031 68.894531 114.703125 69.566406 118.152344 71.242188 C 118.675781 71.527344 119.347656 71.671875 119.921875 71.671875 C 120.929688 71.71875 121.933594 71.625 122.890625 71.527344 C 125.667969 71.242188 128.398438 70.953125 131.175781 70.667969 C 131.226562 70.667969 131.273438 70.617188 131.320312 70.570312 C 130.699219 68.847656 130.507812 68.703125 128.78125 68.703125 C 123.324219 68.703125 117.910156 68.558594 112.453125 68.082031 C 108.523438 67.695312 104.5 67.648438 100.574219 67.554688 C 97.222656 67.503906 93.867188 67.695312 90.515625 67.746094 C 88.695312 67.792969 86.925781 67.746094 85.152344 67.265625 C 84.625 67.121094 84.148438 66.929688 83.570312 66.789062 Z M 134.671875 53.710938 C 134.625 53.710938 134.625 53.664062 134.578125 53.664062 C 134.386719 53.855469 134.242188 54.046875 134.050781 54.238281 C 133.859375 54.382812 133.621094 54.527344 133.429688 54.480469 C 133.285156 54.429688 133.1875 54.097656 133.140625 53.902344 C 132.757812 51.605469 134.960938 49.449219 137.402344 49.738281 C 140.230469 50.074219 142.765625 51.125 144.921875 53.042969 C 146.023438 54 146.933594 55.148438 148.082031 56.058594 C 149.234375 56.921875 150.191406 58.023438 151.050781 59.125 C 151.578125 59.792969 152.058594 60.5625 152.632812 61.230469 C 153.589844 62.332031 154.5 63.484375 155.648438 64.34375 C 157.375 65.6875 159.433594 66.308594 161.589844 66.738281 C 161.730469 66.789062 161.875 66.738281 162.019531 66.738281 C 161.875 66.5 161.730469 66.453125 161.589844 66.355469 C 158.09375 65.015625 155.363281 62.765625 153.398438 59.507812 C 152.441406 57.976562 151.292969 56.441406 149.949219 55.339844 C 147.554688 53.378906 145.019531 51.507812 142.144531 50.167969 C 141.332031 49.785156 140.515625 49.402344 139.84375 48.828125 C 137.402344 46.816406 133.238281 48.921875 132.660156 51.175781 C 132.136719 53.28125 131.367188 55.292969 131.511719 57.542969 C 131.609375 59.410156 131.609375 61.28125 131.703125 63.148438 C 131.75 63.914062 131.75 64.726562 132.085938 65.351562 C 132.996094 67.121094 134.003906 68.847656 135.152344 70.476562 C 135.871094 71.527344 136.972656 72.054688 138.359375 71.671875 C 138.984375 71.527344 139.652344 71.480469 140.277344 71.386719 C 142.242188 71.097656 144.25 70.90625 146.167969 70.425781 C 149.28125 69.613281 152.34375 68.558594 155.457031 67.601562 C 155.507812 67.601562 155.554688 67.554688 155.601562 67.503906 C 155.363281 67.3125 155.074219 67.265625 154.882812 67.3125 C 151.148438 68.03125 147.316406 68.367188 143.628906 69.515625 C 141.617188 70.140625 139.558594 70.089844 137.546875 69.277344 C 135.679688 68.511719 134.386719 67.21875 134.144531 65.109375 C 134.050781 64.105469 134.003906 63.097656 133.953125 62.046875 C 133.90625 61.28125 134.003906 60.464844 133.8125 59.699219 C 133.523438 58.5 133.621094 57.351562 133.953125 56.25 C 134.148438 55.390625 134.433594 54.574219 134.671875 53.710938 Z M 136.398438 62.429688 C 141.472656 62.957031 146.453125 63.484375 151.4375 64.007812 C 151.386719 63.675781 151.195312 63.53125 151.101562 63.386719 C 150.621094 62.714844 150.046875 62.046875 149.617188 61.328125 C 148.847656 59.9375 147.9375 58.742188 146.695312 57.832031 C 145.878906 57.207031 145.066406 56.585938 144.394531 55.820312 C 142.765625 54 140.707031 52.996094 138.457031 52.179688 C 137.59375 51.84375 137.308594 51.988281 137.019531 52.898438 C 136.683594 54 136.300781 55.148438 136.0625 56.296875 C 135.824219 57.257812 135.871094 58.261719 136.109375 59.269531 C 136.300781 60.035156 136.347656 60.894531 136.398438 61.710938 C 136.398438 61.902344 136.398438 62.140625 136.398438 62.429688 Z M 170.019531 73.203125 C 170.449219 73.253906 170.785156 73.347656 171.070312 73.347656 C 173.371094 73.492188 175.574219 74.019531 177.777344 74.882812 C 180.746094 76.078125 183.667969 77.371094 186.253906 79.285156 C 186.921875 79.765625 187.738281 80.101562 188.503906 80.4375 C 189.941406 81.011719 191.425781 81.488281 192.863281 82.113281 C 195.210938 83.117188 197.507812 84.171875 199.808594 85.273438 C 201.433594 86.039062 203.113281 86.855469 204.597656 87.859375 C 206.320312 89.058594 208.140625 89.824219 210.152344 90.300781 C 212.019531 90.734375 213.886719 91.070312 215.804688 90.398438 C 216.90625 90.015625 218.007812 89.824219 219.105469 89.488281 C 219.632812 89.34375 220.160156 89.105469 220.640625 88.867188 C 221.261719 88.53125 221.261719 88.148438 220.832031 87.378906 C 220.496094 86.804688 220.160156 87.1875 219.824219 87.378906 C 219.394531 87.621094 219.058594 87.90625 218.628906 88.195312 C 218.246094 88.433594 217.863281 88.769531 217.480469 88.867188 C 214.84375 89.582031 212.164062 89.441406 209.625 88.480469 C 207.324219 87.667969 205.171875 86.566406 202.96875 85.511719 C 201.386719 84.746094 199.902344 83.882812 198.371094 83.117188 C 195.785156 81.824219 193.339844 80.195312 190.46875 79.429688 C 189.796875 79.238281 189.125 78.953125 188.457031 78.664062 C 185.628906 77.324219 182.851562 75.984375 180.027344 74.640625 C 179.117188 74.210938 178.160156 73.875 177.152344 73.585938 C 175.191406 73.0625 173.226562 72.582031 171.261719 72.101562 C 171.070312 72.054688 170.734375 72.101562 170.640625 72.199219 C 170.496094 72.4375 170.304688 72.820312 170.019531 73.203125 Z M 158.332031 70.140625 C 158.09375 70.089844 157.851562 70.042969 157.613281 70.042969 C 156.609375 70.140625 155.554688 70.140625 154.597656 70.332031 C 152.296875 70.761719 150.046875 71.386719 147.988281 72.4375 C 145.402344 73.730469 142.382812 74.066406 139.941406 75.695312 C 138.3125 76.75 136.589844 77.660156 134.960938 78.617188 C 131.65625 80.582031 128.78125 83.261719 125.144531 84.792969 C 122.941406 85.753906 120.6875 86.421875 118.292969 86.230469 C 118.152344 86.230469 118.007812 86.230469 117.71875 86.28125 C 118.535156 86.855469 119.203125 87.285156 119.875 87.765625 C 120.257812 88.050781 120.59375 88.050781 121.023438 87.90625 C 122.507812 87.378906 124.042969 86.902344 125.574219 86.472656 C 127.632812 85.894531 129.355469 84.84375 130.9375 83.359375 C 133.570312 80.867188 136.445312 78.761719 139.894531 77.5625 C 140.753906 77.277344 141.617188 76.84375 142.480469 76.507812 C 144.058594 75.933594 145.640625 75.359375 147.171875 74.832031 C 148.179688 74.496094 149.183594 74.257812 150.140625 73.875 C 152.296875 73.011719 154.5 72.582031 156.800781 72.582031 C 156.992188 72.582031 157.230469 72.488281 157.277344 72.390625 C 157.566406 71.625 157.949219 70.90625 158.332031 70.140625 Z M 129.070312 66.261719 C 129.023438 66.019531 128.972656 65.878906 128.972656 65.78125 C 128.925781 65.160156 128.589844 64.917969 127.96875 64.96875 C 127.488281 65.015625 126.960938 64.96875 126.484375 64.917969 C 122.988281 64.679688 119.539062 64.296875 116.042969 64.152344 C 113.839844 64.058594 111.636719 64.441406 109.386719 64.390625 C 104.453125 64.296875 99.519531 64.152344 94.585938 63.960938 C 92.527344 63.867188 90.421875 63.578125 88.363281 63.386719 C 87.261719 63.292969 86.160156 63.148438 85.058594 63.050781 C 84.53125 63.003906 84.050781 63.484375 84.050781 64.105469 C 84.050781 64.488281 84.148438 64.824219 84.671875 64.871094 C 87.644531 65.015625 90.613281 65.207031 93.582031 65.351562 C 96.457031 65.492188 99.328125 65.492188 102.15625 65.636719 C 105.265625 65.828125 108.332031 66.117188 111.445312 66.402344 C 113.503906 66.59375 115.515625 66.929688 117.625 66.546875 C 118.773438 66.355469 119.96875 66.210938 121.121094 66.164062 C 123.707031 65.925781 126.339844 65.6875 129.070312 66.261719 Z M 200.285156 59.269531 C 198.273438 59.410156 190.132812 63.675781 189.414062 64.917969 C 189.652344 64.917969 189.84375 64.917969 190.035156 64.917969 C 192.71875 64.632812 195.402344 64.296875 198.082031 64.105469 C 199.230469 64.007812 199.757812 63.433594 199.949219 62.523438 C 200.191406 61.472656 200.191406 60.417969 200.285156 59.269531 Z M 203.496094 71.191406 C 203.496094 71.242188 203.496094 71.289062 203.542969 71.335938 C 205.746094 70.953125 207.949219 70.617188 210.152344 70.1875 C 211.539062 69.898438 212.882812 69.46875 214.175781 68.988281 C 215.085938 68.65625 215.277344 67.9375 214.941406 67.027344 C 214.796875 66.691406 214.652344 66.59375 214.316406 66.691406 C 213.121094 67.074219 211.921875 67.554688 210.726562 67.839844 C 209.195312 68.222656 207.613281 68.464844 206.082031 68.796875 C 205.9375 68.847656 205.746094 68.796875 205.648438 68.894531 C 204.882812 69.660156 204.210938 70.425781 203.496094 71.191406 Z M 207.804688 66.210938 C 207.996094 66.164062 208.140625 66.210938 208.234375 66.164062 C 210.4375 65.492188 212.691406 64.824219 214.894531 64.105469 C 215.277344 63.960938 215.609375 63.484375 215.804688 63.097656 C 215.898438 62.957031 215.609375 62.476562 215.371094 62.332031 C 215.179688 62.191406 214.796875 62.140625 214.558594 62.191406 C 212.59375 62.765625 210.628906 63.386719 208.667969 64.058594 C 208.523438 64.105469 208.378906 64.25 208.332031 64.390625 C 208.140625 64.96875 207.996094 65.542969 207.804688 66.210938 Z M 146.503906 66.308594 C 143.148438 65.78125 139.894531 65.300781 136.589844 64.824219 C 136.734375 66.070312 137.402344 66.691406 138.359375 67.074219 C 139.652344 67.601562 140.996094 67.648438 142.335938 67.363281 C 143.628906 66.980469 145.019531 66.644531 146.503906 66.308594 Z M 159.722656 73.15625 C 159.769531 73.203125 159.863281 73.300781 159.914062 73.347656 C 160.390625 73.15625 160.917969 73.0625 161.347656 72.773438 C 162.164062 72.152344 162.976562 71.480469 163.695312 70.714844 C 164.84375 69.515625 165.371094 68.03125 165.660156 66.453125 C 165.707031 66.261719 165.421875 65.972656 165.277344 65.734375 C 165.085938 65.878906 164.84375 65.972656 164.75 66.164062 C 164.03125 67.839844 162.976562 69.277344 161.683594 70.617188 C 161.0625 71.242188 160.535156 71.910156 160.007812 72.582031 C 159.914062 72.726562 159.816406 72.964844 159.722656 73.15625 Z M 187.5 67.410156 C 187.5 67.457031 187.5 67.554688 187.449219 67.601562 C 188.933594 67.9375 190.371094 68.367188 191.855469 68.605469 C 193.820312 68.941406 195.257812 67.890625 196.835938 66.691406 C 193.628906 66.929688 190.5625 67.171875 187.5 67.410156 Z M 167.863281 64.441406 C 168.628906 66.070312 168.007812 67.503906 167.429688 68.894531 C 166.855469 70.332031 166.136719 71.625 164.894531 72.726562 C 165.753906 72.917969 166.234375 72.582031 166.570312 72.101562 C 167.191406 71.191406 167.863281 70.285156 168.390625 69.324219 C 169.011719 68.128906 169.15625 66.835938 169.109375 65.542969 C 169.011719 64.679688 168.867188 64.585938 167.863281 64.441406 Z M 176.050781 202.898438 C 174.664062 202.847656 172.125 202.707031 169.585938 202.65625 C 165.179688 202.5625 160.824219 202.5625 156.417969 202.515625 C 156.175781 202.515625 155.984375 202.515625 155.746094 202.515625 C 151.578125 202.273438 147.460938 202.800781 143.34375 203.421875 C 139.703125 204 136.0625 204.523438 132.421875 204.910156 C 130.125 205.148438 127.777344 205.195312 125.476562 205.050781 C 122.890625 204.910156 120.496094 203.949219 118.34375 202.515625 C 116.234375 201.125 115.179688 199.019531 114.796875 196.574219 C 114.605469 195.328125 114.558594 194.085938 114.414062 192.839844 C 114.128906 189.390625 114.367188 185.941406 114.511719 182.496094 C 114.65625 179.285156 114.605469 176.03125 114.414062 172.820312 C 114.078125 167.984375 113.359375 163.195312 113.074219 158.355469 C 112.835938 154.429688 113.074219 150.453125 113.027344 146.527344 C 113.027344 145.332031 112.785156 144.132812 112.59375 142.9375 C 112.164062 140.445312 112.453125 138.097656 113.886719 135.945312 C 114.847656 134.507812 116.089844 133.691406 117.816406 133.597656 C 119.492188 133.5 121.167969 133.5 122.890625 133.691406 C 128.0625 134.316406 133.285156 134.316406 138.503906 134.074219 C 143.292969 133.882812 148.082031 133.644531 152.921875 133.550781 C 160.054688 133.359375 167.191406 133.261719 174.375 133.164062 C 176.914062 133.117188 179.453125 133.023438 181.992188 132.972656 C 186.015625 132.925781 190.085938 132.925781 194.109375 133.308594 C 198.800781 133.789062 203.542969 133.742188 208.234375 133.550781 C 209.527344 133.5 210.679688 133.789062 211.78125 134.410156 C 213.023438 135.082031 214.078125 136.039062 214.605469 137.378906 C 215.371094 139.25 215.851562 141.117188 215.324219 143.128906 C 215.132812 143.796875 215.277344 144.613281 215.371094 145.332031 C 216.042969 151.363281 215.898438 157.351562 214.988281 163.339844 C 214.558594 166.019531 214.367188 168.796875 213.984375 171.480469 C 213.601562 174.304688 213.265625 177.132812 212.738281 179.910156 C 212.164062 182.972656 211.972656 186.085938 212.164062 189.199219 C 212.257812 190.730469 212.257812 192.265625 212.308594 193.84375 C 212.355469 195.234375 211.875 196.527344 211.207031 197.726562 C 210.199219 199.496094 208.761719 200.835938 206.992188 201.796875 C 206.082031 202.273438 205.171875 202.464844 204.117188 202.464844 C 201.003906 202.464844 197.84375 202.609375 194.730469 202.65625 C 192.382812 202.707031 190.085938 202.5625 187.738281 202.609375 C 184.335938 202.609375 180.792969 202.753906 176.050781 202.898438 Z M 128.832031 201.554688 C 129.980469 201.554688 131.082031 201.605469 132.230469 201.554688 C 137.308594 201.222656 142.433594 200.742188 147.507812 200.453125 C 151.484375 200.214844 155.457031 200.070312 159.433594 199.925781 C 162.210938 199.832031 164.941406 199.832031 167.71875 199.6875 C 173.898438 199.402344 180.027344 199.066406 186.207031 198.824219 C 189.796875 198.683594 193.4375 198.730469 197.027344 198.730469 C 198.226562 198.730469 199.472656 198.921875 200.667969 199.019531 C 201.816406 199.113281 202.96875 199.160156 204.117188 199.210938 C 204.5 199.210938 204.882812 199.066406 205.21875 198.824219 C 207.515625 197.246094 208.859375 195.089844 209.050781 192.265625 C 209.097656 191.59375 209.097656 190.972656 209.195312 190.300781 C 209.625 187.476562 210.105469 184.699219 210.488281 181.871094 C 210.871094 179.046875 211.109375 176.222656 211.398438 173.394531 C 211.589844 171.289062 211.78125 169.132812 211.875 167.027344 C 211.972656 163.722656 212.019531 160.367188 212.066406 157.0625 C 212.164062 153.136719 212.546875 149.210938 211.828125 145.28125 C 211.683594 144.421875 211.589844 143.414062 211.78125 142.554688 C 212.019531 141.5 211.921875 140.542969 211.730469 139.535156 C 211.398438 137.957031 210.199219 136.855469 208.570312 136.855469 C 205.601562 136.902344 202.632812 136.996094 199.664062 137.046875 C 197.988281 137.09375 196.3125 137.046875 194.632812 136.996094 C 192.621094 136.949219 190.613281 136.757812 188.601562 136.757812 C 183.1875 136.757812 177.824219 136.855469 172.414062 136.855469 C 163.410156 136.855469 154.40625 136.804688 145.449219 136.757812 C 144.683594 136.757812 143.917969 136.804688 143.148438 136.804688 C 138.9375 136.710938 134.671875 136.660156 130.457031 136.519531 C 127.203125 136.421875 123.945312 136.136719 120.738281 135.945312 C 119.636719 135.894531 118.535156 136.085938 117.910156 137.09375 C 117.382812 137.953125 116.761719 138.914062 116.617188 139.917969 C 116.332031 141.882812 116.089844 143.941406 116.1875 145.953125 C 116.378906 149.785156 116.855469 153.566406 117.097656 157.398438 C 117.433594 162.621094 117.863281 167.792969 117.433594 173.011719 C 117.382812 173.777344 117.335938 174.542969 117.289062 175.3125 C 117.097656 178.136719 117.574219 180.960938 117.765625 183.738281 C 117.957031 187.332031 118.101562 190.875 118.292969 194.46875 C 118.4375 197.484375 119.636719 199.496094 122.652344 200.597656 C 124.519531 201.414062 126.628906 201.554688 128.832031 201.554688 Z M 77.394531 150.261719 C 77.394531 146.71875 77.441406 143.128906 77.394531 139.582031 C 77.394531 137.429688 77.15625 135.226562 76.484375 133.164062 C 76.386719 132.832031 76.054688 132.449219 75.71875 132.351562 C 75.191406 132.207031 74.953125 132.734375 74.855469 133.117188 C 74.617188 134.171875 74.328125 135.226562 74.183594 136.277344 C 73.515625 142.265625 73.417969 148.25 73.417969 154.238281 C 73.417969 157.304688 73.324219 160.417969 73.609375 163.480469 C 74.28125 170.808594 75.335938 178.089844 76.914062 185.320312 C 77.539062 188.097656 78.160156 190.875 79.40625 193.460938 C 79.691406 194.035156 80.125 194.5625 80.601562 194.996094 C 81.082031 195.425781 81.511719 195.28125 81.800781 194.660156 C 82.375 193.460938 82.328125 192.265625 81.992188 191.019531 C 81.609375 189.390625 81.128906 187.8125 80.890625 186.183594 C 80.171875 181.585938 79.5 176.9375 78.925781 172.292969 C 78.449219 168.558594 77.921875 164.773438 77.730469 161.039062 C 77.539062 157.445312 77.679688 153.808594 77.679688 150.214844 C 77.585938 150.261719 77.488281 150.261719 77.394531 150.261719 Z M 96.933594 247.4375 C 98.851562 250.644531 101.386719 253.039062 105.171875 253.804688 C 107.183594 254.191406 109.195312 254.574219 111.207031 254.90625 C 114.078125 255.386719 116.953125 255.867188 119.828125 256.25 C 124.28125 256.871094 128.6875 257.445312 133.140625 257.972656 C 133.621094 258.019531 134.097656 257.972656 134.578125 257.878906 C 135.34375 257.6875 135.871094 257.0625 135.964844 256.296875 C 136.015625 255.53125 135.679688 254.8125 134.914062 254.523438 C 134.339844 254.285156 133.761719 254.191406 133.140625 254.140625 C 127.730469 253.421875 122.269531 252.800781 116.855469 252.082031 C 113.554688 251.652344 110.25 250.933594 106.945312 250.5 C 104.117188 250.117188 102.011719 248.824219 100.527344 246.429688 C 98.992188 244.035156 97.84375 241.449219 96.933594 238.769531 C 96.457031 237.425781 95.976562 236.039062 95.496094 234.699219 C 95.355469 234.265625 95.066406 233.882812 94.777344 233.546875 C 94.300781 233.070312 93.820312 233.261719 93.773438 233.929688 C 93.675781 234.648438 93.675781 235.367188 93.628906 236.085938 C 93.773438 240.15625 94.828125 243.941406 96.933594 247.4375 Z M 222.269531 191.066406 C 222.171875 191.257812 222.027344 191.402344 221.980469 191.59375 C 221.261719 193.84375 220.542969 196.097656 219.875 198.347656 C 218.914062 201.652344 217.957031 204.957031 217.046875 208.261719 C 215.851562 212.570312 213.933594 216.640625 212.210938 220.761719 C 209.863281 226.363281 207.566406 231.96875 205.265625 237.570312 C 204.882812 238.433594 204.546875 239.34375 204.308594 240.253906 C 204.164062 240.875 204.164062 241.546875 204.308594 242.167969 C 204.546875 243.125 205.507812 243.507812 206.367188 243.078125 C 206.894531 242.792969 207.421875 242.3125 207.757812 241.785156 C 209.480469 239.34375 210.582031 236.515625 211.78125 233.738281 C 213.984375 228.519531 215.226562 223.011719 217 217.648438 C 218.628906 212.761719 219.683594 207.6875 220.59375 202.65625 C 221.261719 199.113281 221.835938 195.617188 222.460938 192.074219 C 222.507812 191.785156 222.460938 191.449219 222.460938 191.164062 C 222.410156 191.117188 222.316406 191.117188 222.269531 191.066406 Z M 87.691406 210.082031 C 87.210938 208.355469 86.683594 206.679688 86.160156 204.957031 C 86.109375 204.8125 86.015625 204.621094 85.917969 204.476562 C 85.535156 203.808594 84.386719 203.328125 83.714844 203.472656 C 82.902344 203.710938 82.710938 204.382812 82.664062 205.101562 C 82.613281 205.722656 82.710938 206.394531 82.804688 207.015625 C 83.046875 208.789062 83.570312 210.511719 84.53125 211.996094 C 84.914062 212.617188 85.488281 212.953125 86.253906 212.8125 C 86.972656 212.667969 87.453125 212.1875 87.644531 211.46875 C 87.691406 211.230469 87.738281 210.941406 87.785156 210.75 C 87.785156 210.558594 87.738281 210.320312 87.691406 210.082031 Z M 148.898438 254.574219 C 147.988281 254.621094 147.125 254.621094 146.214844 254.714844 C 145.542969 254.8125 144.828125 254.90625 144.203125 255.097656 C 143.339844 255.433594 143.246094 256.34375 143.964844 256.871094 C 144.15625 257.015625 144.347656 257.160156 144.585938 257.207031 C 146.742188 258.070312 148.992188 258.453125 151.339844 258.261719 C 152.152344 258.210938 152.921875 257.878906 153.496094 257.300781 C 154.214844 256.585938 154.214844 255.578125 153.351562 255.003906 C 152.824219 254.667969 152.152344 254.476562 151.53125 254.429688 C 150.667969 254.332031 149.757812 254.382812 148.847656 254.382812 C 148.898438 254.476562 148.898438 254.523438 148.898438 254.574219 Z M 183.761719 105.769531 C 182.757812 105.53125 181.75 105.246094 180.746094 105.003906 C 180.554688 104.957031 180.265625 105.148438 180.027344 105.195312 C 180.125 105.4375 180.125 105.769531 180.316406 105.914062 C 180.746094 106.296875 181.222656 106.632812 181.703125 106.871094 C 183.523438 107.6875 185.34375 108.5 187.164062 109.269531 C 187.832031 109.554688 188.503906 109.84375 189.125 110.175781 C 190.417969 110.894531 191.1875 111.949219 191.519531 113.433594 C 191.664062 114.152344 191.953125 114.871094 192.289062 115.542969 C 192.480469 115.875 192.863281 116.210938 193.199219 116.402344 C 193.773438 116.738281 194.011719 116.59375 194.011719 115.925781 C 194.058594 114.917969 194.011719 113.867188 193.964844 112.859375 C 193.820312 110.320312 192.574219 108.550781 190.179688 107.589844 C 189.941406 107.496094 189.652344 107.351562 189.460938 107.160156 C 188.886719 106.441406 188.265625 105.722656 187.785156 104.910156 C 185.152344 100.503906 182.566406 96.097656 179.929688 91.691406 C 177.871094 88.289062 175.71875 84.890625 173.5625 81.539062 C 173.179688 80.964844 172.652344 80.4375 172.171875 79.910156 C 172.078125 79.8125 171.789062 79.765625 171.644531 79.8125 C 171.550781 79.863281 171.503906 80.148438 171.503906 80.339844 C 171.550781 80.582031 171.695312 80.820312 171.789062 81.058594 C 175.957031 89.296875 179.738281 97.726562 184.386719 105.722656 C 184.433594 105.769531 184.433594 105.867188 184.433594 106.011719 C 184.242188 105.914062 184.003906 105.820312 183.761719 105.769531 Z M 122.363281 154.71875 C 127.25 154.667969 132.085938 154.667969 136.972656 154.574219 C 149.472656 154.382812 161.972656 154.144531 174.472656 153.949219 C 183.042969 153.808594 191.570312 153.710938 200.140625 153.617188 C 200.859375 153.617188 201.625 153.519531 202.34375 153.425781 C 202.535156 153.375 202.726562 153.136719 202.871094 152.945312 C 202.679688 152.800781 202.535156 152.5625 202.34375 152.515625 C 201.914062 152.417969 201.484375 152.371094 201.050781 152.371094 C 199.183594 152.324219 197.316406 152.226562 195.449219 152.226562 C 173.226562 152.035156 151.003906 151.890625 128.78125 151.75 C 126.4375 151.75 124.089844 151.75 121.742188 151.75 C 121.695312 151.605469 121.695312 151.460938 121.648438 151.316406 C 121.597656 150.214844 121.453125 149.113281 121.453125 148.011719 C 121.453125 146.480469 121.597656 144.996094 122.222656 143.558594 C 122.414062 143.078125 122.75 142.839844 123.273438 142.792969 C 124.042969 142.746094 124.808594 142.601562 125.621094 142.503906 C 126.195312 142.457031 126.675781 142.21875 126.722656 141.59375 C 126.820312 140.925781 126.386719 140.589844 125.859375 140.398438 C 125.71875 140.351562 125.621094 140.300781 125.476562 140.300781 C 124.664062 140.15625 123.898438 139.964844 123.082031 139.917969 C 121.3125 139.773438 120.257812 140.492188 119.636719 142.167969 C 119.109375 143.511719 119.15625 144.898438 119.394531 146.289062 C 119.730469 148.347656 120.019531 150.40625 119.921875 152.515625 C 119.875 153.519531 120.019531 154.574219 120.113281 155.578125 C 120.160156 156.585938 120.351562 157.589844 120.304688 158.546875 C 120.257812 162.667969 120.113281 166.785156 120.019531 170.953125 C 119.96875 173.730469 119.921875 176.507812 120.019531 179.285156 C 120.113281 182.398438 120.351562 185.511719 120.496094 188.671875 C 120.546875 189.917969 120.496094 191.210938 120.546875 192.457031 C 120.59375 194.132812 120.976562 195.714844 121.980469 197.054688 C 123.035156 198.441406 125.046875 198.777344 126.246094 197.773438 C 126.675781 197.390625 126.769531 197.007812 126.386719 196.625 C 126.050781 196.289062 125.621094 195.953125 125.238281 195.714844 C 124.617188 195.328125 124.234375 194.804688 124.089844 194.085938 C 123.992188 193.558594 123.898438 193.03125 123.898438 192.457031 C 123.851562 190.78125 123.851562 189.054688 123.800781 187.378906 C 123.800781 186.996094 123.898438 186.851562 124.328125 186.851562 C 125.574219 186.851562 126.867188 186.804688 128.113281 186.757812 C 143.484375 186.421875 158.8125 186.183594 174.183594 185.800781 C 182.132812 185.609375 190.132812 185.320312 198.082031 185.03125 C 199.136719 184.984375 200.191406 184.890625 201.242188 184.746094 C 201.484375 184.699219 201.625 184.410156 201.867188 184.21875 C 201.625 184.027344 201.433594 183.738281 201.195312 183.691406 C 200.574219 183.597656 199.949219 183.546875 199.328125 183.546875 C 193.773438 183.5 188.21875 183.355469 182.660156 183.355469 C 168.101562 183.40625 153.542969 183.5 138.984375 183.597656 C 134.195312 183.644531 129.355469 183.691406 124.566406 183.691406 C 123.324219 183.691406 123.515625 183.789062 123.417969 182.589844 C 123.371094 181.679688 123.371094 180.820312 123.324219 179.910156 C 123.082031 174.304688 122.890625 168.703125 122.605469 163.097656 C 122.507812 160.945312 122.363281 158.789062 122.171875 156.679688 C 122.125 156.058594 122.03125 155.484375 121.933594 154.859375 C 122.125 154.765625 122.222656 154.71875 122.363281 154.71875 Z M 183.332031 170.714844 C 181.417969 166.929688 179.5 163.144531 177.632812 159.363281 C 177.441406 158.980469 177.203125 158.597656 176.960938 158.261719 C 176.386719 157.542969 175.71875 157.113281 174.757812 157.351562 C 173.65625 157.640625 173.128906 158.40625 173.035156 159.457031 C 172.746094 162.476562 172.460938 165.445312 172.125 168.460938 C 171.835938 171.382812 171.550781 174.351562 171.261719 177.273438 C 171.214844 177.800781 171.214844 178.375 171.359375 178.902344 C 171.644531 179.8125 172.507812 180.292969 173.515625 180.242188 C 174.472656 180.195312 175.285156 179.527344 175.476562 178.472656 C 175.667969 177.5625 175.765625 176.652344 175.859375 175.742188 C 176.101562 172.917969 176.339844 170.089844 176.53125 167.21875 C 176.53125 167.121094 176.578125 167.027344 176.625 166.835938 C 176.820312 167.167969 176.914062 167.410156 177.058594 167.648438 C 178.734375 170.953125 180.457031 174.210938 182.085938 177.515625 C 182.519531 178.328125 183.09375 178.757812 184.003906 178.710938 C 184.914062 178.664062 185.628906 178.328125 186.0625 177.464844 C 186.253906 176.988281 186.492188 176.554688 186.683594 176.078125 C 187.832031 173.011719 188.984375 169.945312 190.132812 166.882812 C 190.226562 166.691406 190.324219 166.5 190.417969 166.308594 C 190.753906 167.265625 190.996094 168.175781 191.136719 169.132812 C 191.617188 172.054688 192 174.976562 192.480469 177.898438 C 192.621094 178.855469 192.910156 179.8125 193.964844 180.148438 C 195.351562 180.578125 196.886719 179.332031 196.789062 177.753906 C 196.742188 177.226562 196.644531 176.699219 196.597656 176.222656 C 195.878906 170.472656 194.730469 164.824219 193.101562 159.265625 C 192.957031 158.789062 192.671875 158.308594 192.335938 157.925781 C 191.472656 156.96875 190.179688 156.96875 189.367188 157.972656 C 188.933594 158.453125 188.601562 159.074219 188.359375 159.699219 C 187.355469 162.332031 186.398438 164.964844 185.390625 167.550781 C 184.914062 168.894531 184.335938 170.234375 183.8125 171.671875 C 183.621094 171.191406 183.476562 170.953125 183.332031 170.714844 Z M 150.140625 140.589844 C 145.257812 140.589844 140.421875 140.589844 135.535156 140.589844 C 134.625 140.589844 133.714844 140.78125 132.804688 140.925781 C 132.613281 140.972656 132.328125 141.257812 132.328125 141.5 C 132.328125 141.644531 132.613281 141.882812 132.804688 142.027344 C 132.949219 142.121094 133.140625 142.121094 133.285156 142.167969 C 134.480469 142.265625 135.726562 142.3125 136.925781 142.457031 C 142.335938 142.984375 147.746094 142.984375 153.160156 142.984375 C 159.242188 143.03125 165.324219 143.078125 171.40625 143.078125 C 177.203125 143.078125 182.949219 142.984375 188.742188 142.9375 C 189.175781 142.9375 189.652344 142.839844 190.085938 142.792969 C 191.617188 142.648438 193.148438 142.359375 194.683594 142.359375 C 196.695312 142.359375 198.753906 142.554688 200.765625 142.695312 C 201.816406 142.792969 202.871094 142.839844 203.925781 143.03125 C 205.601562 143.269531 206.175781 144.132812 206.222656 145.90625 C 206.222656 146.527344 206.175781 147.101562 206.082031 147.726562 C 205.648438 150.886719 204.835938 153.949219 204.929688 157.160156 C 204.980469 158.40625 204.882812 159.699219 204.929688 160.945312 C 204.980469 161.566406 205.074219 162.238281 205.363281 162.761719 C 205.554688 163.097656 206.082031 163.386719 206.511719 163.480469 C 207.039062 163.578125 207.324219 163.144531 207.515625 162.714844 C 207.660156 162.332031 207.804688 161.949219 207.851562 161.519531 C 208.332031 158.355469 208.667969 155.148438 209.195312 151.988281 C 209.527344 149.878906 209.71875 147.820312 209.289062 145.714844 C 208.714844 142.792969 207.183594 140.683594 204.214844 140.015625 C 202.96875 139.726562 201.675781 139.582031 200.429688 139.535156 C 197.9375 139.441406 195.496094 139.390625 193.007812 139.441406 C 190.324219 139.488281 187.640625 139.679688 184.960938 139.773438 C 183.425781 139.824219 181.894531 139.824219 180.316406 139.917969 C 175.046875 140.15625 169.828125 140.445312 164.558594 140.589844 C 159.769531 140.683594 154.933594 140.589844 150.140625 140.589844 C 150.140625 140.542969 150.140625 140.589844 150.140625 140.589844 Z M 168.773438 172.675781 C 169.058594 174.066406 169.347656 175.40625 169.585938 176.746094 C 169.730469 177.515625 169.730469 178.328125 169.730469 179.140625 C 169.730469 179.910156 169.109375 180.53125 168.292969 180.722656 C 166.808594 181.105469 165.179688 179.957031 165.230469 178.375 C 165.277344 176.605469 164.84375 174.929688 164.367188 173.25 C 164.269531 172.867188 164.078125 172.675781 163.648438 172.726562 C 161.207031 172.773438 158.761719 172.773438 156.367188 172.773438 C 155.984375 172.773438 155.792969 172.917969 155.699219 173.300781 C 155.363281 174.59375 155.027344 175.886719 154.738281 177.132812 C 154.691406 177.324219 154.691406 177.5625 154.738281 177.753906 C 154.933594 179.046875 154.597656 179.8125 153.589844 180.386719 C 152.632812 180.960938 151.292969 180.820312 150.429688 180.101562 C 149.617188 179.429688 149.375 178.566406 149.757812 177.371094 C 150.382812 175.550781 151.050781 173.730469 151.578125 171.910156 C 152.871094 167.457031 154.453125 163.144531 156.464844 159.027344 C 156.75 158.40625 157.085938 157.78125 157.519531 157.253906 C 158.429688 156.152344 159.769531 156.152344 160.773438 157.160156 C 162.355469 158.789062 163.648438 160.558594 164.652344 162.621094 C 165.46875 164.296875 166.234375 166.019531 166.953125 167.742188 C 167.144531 168.222656 167.382812 168.414062 167.910156 168.367188 C 168.628906 168.320312 169.300781 168.414062 169.828125 168.941406 C 170.878906 169.996094 170.59375 171.671875 169.25 172.390625 C 169.109375 172.535156 168.964844 172.582031 168.773438 172.675781 Z M 162.546875 168.367188 C 161.589844 166.355469 160.871094 164.390625 159.53125 162.570312 C 158.714844 164.582031 157.996094 166.449219 157.230469 168.367188 C 159.003906 168.367188 160.679688 168.367188 162.546875 168.367188 Z M 146.214844 195.28125 C 142.242188 195.570312 138.265625 195.90625 134.289062 196.238281 C 133.140625 196.335938 131.992188 196.625 130.84375 196.863281 C 130.601562 196.910156 130.265625 197.292969 130.265625 197.4375 C 130.316406 197.675781 130.601562 198.011719 130.84375 198.058594 C 131.320312 198.15625 131.894531 198.15625 132.375 198.15625 C 133.476562 198.109375 134.53125 197.964844 135.632812 197.867188 C 139.03125 197.675781 142.433594 197.53125 145.832031 197.339844 C 148.992188 197.148438 152.058594 196.527344 155.265625 196.863281 C 156.75 197.007812 158.234375 197.101562 159.769531 197.148438 C 162.5 197.292969 165.277344 197.53125 168.007812 197.53125 C 171.261719 197.484375 174.566406 197.292969 177.824219 197.054688 C 180.554688 196.863281 183.234375 196.574219 185.917969 196.335938 C 189.03125 196.097656 192.144531 195.90625 195.257812 196.289062 C 196.644531 196.480469 198.082031 196.574219 199.472656 196.71875 C 202.011719 197.007812 205.507812 194.46875 205.9375 191.210938 C 206.082031 190.0625 206.511719 188.960938 206.703125 187.8125 C 206.847656 187.140625 206.894531 186.375 206.800781 185.703125 C 206.703125 184.984375 206.082031 184.507812 205.457031 184.457031 C 204.882812 184.410156 204.210938 184.792969 203.972656 185.511719 C 203.734375 186.183594 203.636719 186.902344 203.589844 187.621094 C 203.542969 189.105469 203.207031 190.492188 202.488281 191.738281 C 201.960938 192.742188 201.148438 193.558594 199.949219 193.703125 C 199.089844 193.796875 198.179688 193.75 197.363281 193.605469 C 193.867188 192.933594 190.324219 193.03125 186.78125 193.175781 C 183.042969 193.320312 179.308594 193.652344 175.621094 193.84375 C 173.707031 193.941406 171.742188 193.988281 169.828125 194.132812 C 166.664062 194.371094 163.503906 194.753906 160.34375 194.898438 C 157.183594 195.042969 154.023438 194.945312 151.386719 194.945312 C 149.328125 195.089844 147.796875 195.1875 146.214844 195.28125 Z M 149.375 161.613281 C 150.191406 161.613281 150.765625 161.277344 151.003906 160.511719 C 151.292969 159.507812 151.101562 158.546875 150.621094 157.6875 C 150.238281 156.96875 149.519531 156.777344 148.753906 157.113281 C 148.515625 157.207031 148.226562 157.304688 147.9375 157.304688 C 145.351562 157.351562 142.765625 157.398438 140.179688 157.398438 C 139.84375 157.398438 139.511719 157.304688 139.222656 157.113281 C 138.359375 156.632812 137.449219 156.871094 137.019531 157.78125 C 136.589844 158.742188 136.542969 159.699219 136.875 160.703125 C 137.355469 162.09375 138.9375 162.378906 139.941406 162.042969 C 140.515625 161.851562 141.140625 161.804688 141.761719 161.710938 C 142.097656 161.660156 142.289062 161.851562 142.289062 162.1875 C 142.289062 165.875 142.335938 169.5625 142.289062 173.25 C 142.289062 173.683594 142.144531 174.160156 141.953125 174.59375 C 141.523438 175.695312 140.230469 176.363281 138.886719 176.222656 C 137.835938 176.125 137.117188 175.3125 136.828125 174.113281 C 136.636719 173.394531 136.300781 172.675781 135.871094 172.007812 C 135.679688 171.671875 135.246094 171.382812 134.863281 171.335938 C 134.097656 171.289062 133.285156 171.335938 132.566406 171.527344 C 131.703125 171.765625 131.175781 172.4375 131.035156 173.300781 C 130.890625 174.449219 131.367188 175.359375 132.183594 176.125 C 132.710938 176.605469 133.1875 177.132812 133.621094 177.707031 C 135.199219 179.765625 137.210938 180.867188 139.894531 180.53125 C 142.957031 180.148438 145.929688 177.898438 146.453125 174.59375 C 146.886719 171.71875 146.886719 168.894531 146.789062 166.019531 C 146.742188 164.582031 146.644531 163.144531 146.597656 161.566406 C 147.605469 161.613281 148.515625 161.566406 149.375 161.613281 Z M 207.851562 166.929688 C 207.804688 166.402344 207.710938 165.925781 207.039062 165.828125 C 206.414062 165.734375 206.082031 166.164062 205.890625 166.691406 C 205.746094 167.027344 205.699219 167.359375 205.648438 167.695312 C 205.554688 168.269531 205.554688 168.796875 205.457031 169.371094 C 204.980469 172.484375 204.453125 175.644531 203.972656 178.757812 C 203.925781 179.140625 203.878906 179.476562 203.925781 179.859375 C 204.019531 180.675781 204.644531 181.296875 205.410156 181.394531 C 206.175781 181.488281 206.894531 181.105469 207.230469 180.292969 C 207.421875 179.859375 207.515625 179.382812 207.566406 178.902344 C 207.757812 176.316406 207.902344 173.730469 208.042969 171.335938 C 207.996094 169.753906 207.949219 168.367188 207.851562 166.929688 Z M 207.851562 166.929688 " fill-opacity="1" fill-rule="nonzero"/></g></svg>