<svg xmlns="http://www.w3.org/2000/svg" xmlns:xlink="http://www.w3.org/1999/xlink" width="400" zoomAndPan="magnify" viewBox="0 0 300 299.999988" height="400" preserveAspectRatio="xMidYMid meet" version="1.0"><path fill="currentColor" d="M 84.667969 216.027344 L 84.589844 216.027344 C 84.019531 221.160156 84.21875 219.644531 84.160156 220.058594 C 77.378906 220.058594 59.167969 222.1875 54.75 222.875 C 50.839844 223.460938 44.738281 225.6875 45.246094 229.679688 C 45.519531 232.144531 48.414062 233.824219 51.113281 234.996094 C 74.8125 245.363281 101.132812 244.816406 126.242188 246.105469 L 126.242188 246.03125 C 130.785156 246.40625 152.015625 251.910156 181.03125 244.125 C 191.1875 241.859375 200.535156 238.496094 209.53125 234.21875 C 215.664062 230.640625 212.628906 220.914062 212.53125 215.664062 C 223.136719 209.675781 232.242188 202.191406 239.632812 193.320312 C 257.15625 172.277344 270.128906 137.25 263.933594 107.484375 C 264.164062 106.65625 264.300781 105.820312 264.300781 104.992188 C 264.300781 92.464844 240.726562 81.707031 201.238281 76.21875 C 199.46875 75.953125 199.0625 78.667969 200.863281 78.921875 C 231.222656 83.136719 252.699219 90.820312 259.359375 99.378906 C 258.824219 100.375 259.582031 100.273438 261.136719 107.332031 C 259.59375 112.25 253.277344 116.082031 248.675781 118.402344 C 247.269531 117.789062 245.816406 117.183594 244.28125 116.625 C 238.828125 108.3125 227.808594 102.335938 224.507812 100.6875 C 223.839844 100.355469 223.019531 100.621094 222.683594 101.296875 C 222.34375 101.96875 222.617188 102.789062 223.292969 103.125 C 230.152344 106.550781 238.746094 112.421875 242.742188 119.195312 C 202.761719 139.6875 98.023438 138.726562 59.253906 120.558594 C 65.203125 111.25 73.347656 103.847656 83.433594 100.335938 C 85.132812 99.746094 84.25 97.175781 82.539062 97.765625 C 73.273438 100.988281 64.757812 107.742188 58.5 116.78125 C 56.5 117.53125 54.488281 118.390625 52.390625 119.382812 C 47.410156 116.988281 41.054688 113.621094 38.527344 108.664062 C 38.800781 106.71875 39.03125 103.929688 40.234375 98.871094 C 49.480469 88.066406 81.363281 79.300781 121.675781 76.515625 C 123.460938 76.394531 123.308594 73.6875 121.488281 73.796875 C 81.796875 76.539062 51.015625 84.777344 39.691406 95.515625 C 39.785156 95.171875 39.867188 94.8125 39.964844 94.476562 C 33.121094 100.929688 32.066406 109.921875 31.675781 119.464844 C 30.160156 158.210938 48.894531 194.789062 84.667969 216.027344 Z M 64.085938 126.675781 C 64.449219 126.730469 108.90625 141.859375 182.164062 135.859375 C 202.148438 134.230469 250.484375 127.929688 261.960938 111.652344 C 266.277344 139.734375 253.921875 171.898438 237.539062 191.574219 C 230.339844 200.214844 221.457031 207.507812 211.101562 213.34375 C 211.09375 213.34375 211.085938 213.335938 211.074219 213.335938 C 210.578125 213.335938 210.164062 213.617188 209.925781 214.011719 C 203.515625 217.515625 196.933594 220.359375 189.976562 222.628906 C 188.277344 223.1875 189.09375 225.789062 190.824219 225.222656 C 198.367188 222.757812 204.226562 220.101562 209.921875 217.082031 C 210.519531 222.597656 211.785156 229.726562 208.261719 231.808594 C 170.515625 249.617188 133.480469 247.675781 96.378906 230.824219 C 91.710938 228.714844 89.394531 228.636719 90.351562 219.207031 C 91.074219 219.589844 91.796875 219.988281 92.53125 220.332031 C 92.570312 220.371094 92.648438 220.371094 92.6875 220.410156 C 92.695312 220.410156 92.703125 220.410156 92.710938 220.414062 C 102.171875 225.121094 112.3125 228.46875 122.707031 230.511719 L 122.722656 230.578125 C 128.835938 231.878906 137.195312 232.847656 145.601562 232.847656 C 147.050781 232.847656 149.90625 233.628906 151.039062 232.339844 C 151.34375 232 151.417969 231.632812 151.386719 231.289062 C 152.445312 230.472656 151.847656 228.863281 150.570312 228.863281 C 107.398438 228.863281 65.171875 204.453125 47.300781 164.917969 C 39.972656 149.378906 36.953125 129.621094 38.144531 112.910156 C 43.847656 119.582031 55.710938 124.078125 64.085938 126.675781 Z M 64.085938 126.675781 " fill-opacity="1" fill-rule="nonzero"/><path fill="currentColor" d="M 91.597656 99.734375 C 86.039062 102.128906 91.617188 112.1875 93.859375 115.164062 C 97.183594 119.582031 102.035156 123.808594 107.390625 125.371094 C 112.675781 126.867188 120.679688 128.542969 126.441406 128.542969 C 134.242188 128.542969 139.035156 124.722656 140.421875 116.847656 C 142.042969 105.859375 131.476562 95.402344 122.117188 89.839844 C 114.71875 85.214844 108.085938 82.691406 99.980469 85.808594 C 97.492188 86.769531 95.664062 88.050781 94.503906 89.492188 C 91.828125 91.292969 90.527344 93.648438 92.1875 98.9375 C 91.957031 99.175781 91.777344 99.449219 91.597656 99.734375 Z M 101.101562 88.320312 C 108.222656 85.683594 113.761719 87.832031 120.695312 92.164062 C 128.953125 97.070312 139.171875 106.664062 137.730469 116.414062 C 136.875 121.292969 134.222656 124.921875 129.296875 125.59375 C 124.351562 126.441406 115.488281 124.667969 110.59375 123.28125 C 100.332031 120.265625 92.085938 106.921875 93.554688 101.785156 C 93.765625 101.042969 94.21875 100.546875 95.097656 100.144531 C 104.617188 101.667969 107.441406 103.441406 114.695312 107.558594 C 123.796875 112.65625 125.710938 114.816406 126.804688 114.816406 C 128.15625 114.816406 128.683594 113.054688 127.558594 112.316406 C 122.175781 108.769531 110.308594 101.246094 104.128906 99.394531 C 101.546875 98.625 98.902344 98.042969 96.257812 97.589844 C 96.175781 97.21875 95.183594 95.039062 95.921875 92.398438 C 96.445312 90.402344 99.183594 89.066406 101.101562 88.320312 Z M 101.101562 88.320312 " fill-opacity="1" fill-rule="nonzero"/><path fill="currentColor" d="M 151.742188 103.3125 C 157.457031 104.417969 168.261719 105.402344 173.902344 103.792969 C 174.824219 103.496094 175.703125 103.160156 176.59375 102.738281 C 181.082031 100.519531 184.132812 95.714844 185.375 90.804688 C 188.058594 79.632812 180.109375 70.078125 170.1875 64.121094 C 161.097656 58.835938 155.601562 59.191406 149.53125 61.988281 C 149.4375 62.023438 149.34375 62.066406 149.257812 62.109375 L 149.253906 62.105469 C 146.984375 63.152344 144.238281 64.816406 142.625 67.128906 C 141.402344 68.15625 140.449219 69.328125 140.011719 70.617188 C 139.269531 72.761719 139.191406 74.941406 139.691406 76.851562 C 139.3125 77.246094 138.984375 77.679688 138.714844 78.167969 C 131.976562 82.558594 139.640625 100.800781 151.742188 103.3125 Z M 150.671875 64.464844 C 155.90625 62.050781 160.480469 61.621094 168.796875 66.46875 C 178.792969 72.457031 186.4375 82.191406 181.847656 92.785156 C 179.796875 97.800781 176.640625 100.054688 173.113281 101.183594 C 168.425781 102.519531 160.101562 101.867188 154.90625 100.804688 C 143.730469 98.566406 136.421875 81.097656 142.761719 77.90625 C 151.417969 78.410156 154.292969 79.875 159.726562 82.742188 C 161.183594 83.5625 163.691406 84.605469 171.558594 89.636719 C 173.082031 90.605469 174.542969 88.3125 173.027344 87.339844 C 165.0625 82.253906 162.316406 81.074219 161 80.332031 C 154.894531 77.109375 152.257812 75.902344 143.898438 75.269531 C 143.472656 73.628906 143.570312 71.695312 144.191406 69.925781 C 145.328125 66.621094 151.035156 64.238281 150.671875 64.464844 Z M 150.671875 64.464844 " fill-opacity="1" fill-rule="nonzero"/><path fill="currentColor" d="M 212.910156 93.339844 C 212.558594 92.660156 211.941406 92.136719 211.191406 91.71875 C 208.980469 89.136719 204.09375 88.558594 200.792969 89.144531 C 193.363281 90.402344 184.566406 100.125 181.511719 106.980469 C 176.980469 117.09375 182.78125 125.488281 189.609375 125.488281 C 192.253906 125.488281 194.550781 124.796875 196.921875 124.054688 C 206.703125 121.074219 211.996094 115.933594 214.789062 110.039062 C 215.871094 107.65625 218.117188 100.40625 214.792969 98.71875 C 214.46875 98.226562 214.042969 97.835938 213.539062 97.527344 C 213.71875 96.113281 213.542969 94.640625 212.910156 93.339844 Z M 184.003906 108.09375 C 186.066406 103.460938 189.796875 99.488281 191.828125 97.539062 C 195.199219 94.355469 198.699219 91.679688 203.210938 91.679688 C 209.207031 91.679688 210.363281 94.019531 209.953125 97.304688 C 204.011719 99.691406 200.570312 101.640625 189.429688 112.859375 C 188.160156 114.136719 190.097656 116.054688 191.367188 114.777344 C 194.539062 111.585938 202.007812 104.300781 205.980469 102.144531 C 207.78125 101.167969 209.671875 100.316406 211.589844 99.574219 C 215.300781 100.359375 211.65625 113.953125 203.644531 118.214844 C 199.8125 120.191406 194.011719 122.640625 190.089844 122.730469 C 185.28125 123.3125 180.140625 116.707031 184.003906 108.09375 Z M 184.003906 108.09375 " fill-opacity="1" fill-rule="nonzero"/><path fill="currentColor" d="M 82.773438 194.058594 C 93.976562 197.578125 107.859375 199.640625 123.992188 199.003906 C 124.226562 199.507812 124.753906 199.84375 125.316406 199.796875 C 132.796875 199.269531 138.410156 205.191406 142.625 211.355469 C 143.628906 212.820312 145.902344 211.316406 144.875 209.816406 C 141.453125 204.8125 137.882812 200.703125 132.433594 198.429688 C 138.8125 197.820312 145.289062 196.832031 151.84375 195.414062 C 155.125 200.347656 165.367188 202.316406 171.324219 202.316406 C 183.660156 202.316406 193.335938 197.199219 197.785156 195.351562 C 199.390625 194.675781 201.464844 193.78125 202.101562 192.304688 C 205.894531 190.683594 217.222656 183.835938 218.695312 182.875 C 219.964844 182.058594 223.253906 180.964844 223.191406 178.488281 C 223.136719 176.507812 220.042969 177.066406 218.027344 177.148438 C 220.445312 175.023438 229.859375 167.972656 233.484375 163.046875 C 233.734375 162.671875 233.789062 162.125 233.617188 161.710938 C 233.179688 160.632812 231.496094 160.359375 229.949219 160.011719 C 230.539062 159.027344 230.503906 159.023438 230.703125 158.660156 C 236.777344 147.015625 239 145.804688 238.792969 141.605469 C 238.628906 139.597656 237.390625 138.246094 235.949219 137.902344 C 234.078125 137.449219 232.234375 138.613281 230.882812 139.460938 C 230.519531 139.648438 230.785156 139.703125 226.828125 141.449219 C 226.835938 140.214844 226.621094 139.746094 226.175781 139.402344 C 225.761719 139.078125 225.128906 139.015625 224.664062 139.246094 C 218.269531 142.417969 212.148438 146.089844 207.535156 149.289062 C 207.40625 147.972656 206.78125 147.351562 206.222656 147.101562 C 204.476562 146.296875 202.300781 148.019531 199.847656 150.160156 C 198.65625 151.203125 196.011719 152.992188 192.707031 155.882812 C 193.070312 153.464844 192.332031 152.804688 192.007812 152.546875 C 190.386719 151.242188 187.882812 152.65625 186.054688 153.691406 C 185.914062 153.773438 183.027344 155.203125 179.351562 157.316406 C 163.28125 166.550781 160.789062 170.984375 154.316406 181.910156 C 152.414062 185.121094 150.125 189.046875 150.796875 192.839844 C 140.371094 195.066406 130.132812 196.230469 120.230469 196.363281 C 125.210938 192.886719 129.066406 187.726562 130.800781 181.9375 C 131.316406 180.210938 128.710938 179.417969 128.191406 181.15625 C 126.183594 187.855469 121.007812 193.589844 114.589844 196.386719 C 103.464844 196.078125 93.035156 194.425781 83.589844 191.457031 C 81.882812 190.914062 81.046875 193.519531 82.773438 194.058594 Z M 235.3125 140.550781 C 235.792969 140.664062 236.03125 141.292969 236.074219 141.789062 C 236.226562 144.878906 234.449219 145.597656 228.285156 157.398438 C 227.988281 157.953125 227.621094 158.863281 226.75 159.601562 C 224.167969 159.5 221.902344 159.640625 219.457031 160.128906 C 222.28125 156.171875 226.203125 149.378906 226.613281 144.550781 L 227.292969 144.246094 C 233.542969 141.5 234.230469 140.277344 235.3125 140.550781 Z M 224.039062 142.609375 C 223.890625 144.460938 223.871094 144.699219 223.828125 144.921875 C 223.089844 147.984375 222.21875 150.292969 220.914062 152.628906 C 219.367188 155.378906 217.472656 158.519531 215.175781 161.140625 C 213.976562 161.441406 212.792969 161.78125 211.621094 162.171875 C 209.921875 162.734375 210.757812 165.339844 212.480469 164.757812 C 222.328125 161.484375 226.066406 162.464844 227.402344 162.285156 C 228.449219 162.484375 229.167969 162.613281 230.15625 162.851562 C 227.230469 166.238281 224.5625 168.089844 214.042969 177.117188 C 208.285156 176.828125 206.253906 175.570312 201.539062 174.503906 C 205.675781 168.636719 205.085938 165.050781 206.195312 159.253906 C 206.585938 157.128906 206.992188 155.472656 207.355469 152.816406 C 209.203125 151.355469 219.039062 145.1875 224.039062 142.609375 Z M 157.714844 181.480469 C 162.910156 172.070312 167.222656 167.425781 180.710938 159.679688 C 181.570312 159.183594 189.238281 154.949219 190.121094 154.703125 C 190.101562 155.609375 189.515625 157.75 188.730469 159.691406 C 187.925781 161.402344 186.289062 167.210938 181.222656 174.542969 C 180.199219 176.027344 182.445312 177.574219 183.46875 176.089844 C 187.304688 170.535156 189.042969 166.441406 191.484375 160.089844 C 192.136719 159.582031 192.832031 159.089844 193.785156 158.507812 C 197.378906 155.347656 200.199219 153.472656 201.640625 152.210938 C 203.144531 150.898438 204.222656 150.082031 204.863281 149.769531 C 204.855469 152.804688 204.179688 155.132812 203.515625 158.75 C 202.222656 165.5 203.082031 168.039062 198.546875 173.976562 C 195.214844 173.617188 192.039062 174.320312 188.753906 175.167969 C 187.027344 175.613281 187.660156 178.238281 189.433594 177.808594 C 191.726562 177.21875 194.167969 176.636719 196.632812 176.597656 C 201.996094 176.308594 207.011719 180.464844 218.511719 179.871094 C 215.878906 181.25 205.746094 187.6875 201.40625 189.617188 C 199.347656 187.796875 194.558594 186.773438 193.675781 186.464844 C 185.414062 184.109375 177.082031 182.816406 167.105469 184.226562 C 165.3125 184.480469 165.710938 187.195312 167.488281 186.925781 C 177.125 185.554688 185.117188 186.855469 192.925781 189.085938 C 193.554688 189.292969 197.683594 190.292969 199.386719 191.472656 C 198.558594 192.152344 196.53125 192.882812 195.828125 193.238281 C 189.304688 196.484375 172.589844 203.351562 158.351562 196.984375 C 150.050781 193.269531 153.621094 188.925781 157.714844 181.480469 Z M 157.714844 181.480469 " fill-opacity="1" fill-rule="nonzero"/><path fill="currentColor" d="M 128.335938 53.5 L 139.296875 58.214844 C 140.953125 58.933594 142.03125 56.421875 140.375 55.710938 L 129.410156 50.996094 C 127.75 50.28125 126.679688 52.785156 128.335938 53.5 Z M 128.335938 53.5 " fill-opacity="1" fill-rule="nonzero"/><path fill="currentColor" d="M 147.03125 50.238281 C 144.355469 45.589844 141.316406 41.117188 137.992188 36.9375 C 136.886719 35.527344 134.734375 37.214844 135.859375 38.632812 C 139.097656 42.707031 142.0625 47.066406 144.667969 51.597656 C 145.574219 53.160156 147.929688 51.800781 147.03125 50.238281 Z M 147.03125 50.238281 " fill-opacity="1" fill-rule="nonzero"/><path fill="currentColor" d="M 154.632812 47.25 C 154.632812 46.886719 154.726562 32.417969 154.726562 31.882812 C 154.730469 30.070312 152.007812 30.058594 152 31.875 C 152 33.066406 151.910156 46.875 151.90625 47.238281 C 151.902344 49.054688 154.625 49.0625 154.632812 47.25 Z M 154.632812 47.25 " fill-opacity="1" fill-rule="nonzero"/></svg>