<svg xmlns="http://www.w3.org/2000/svg" xmlns:xlink="http://www.w3.org/1999/xlink" width="400" zoomAndPan="magnify" viewBox="0 0 300 299.999988" height="400" preserveAspectRatio="xMidYMid meet" version="1.0"><defs><clipPath id="97e7288b5c"><path d="M 53.25 30 L 246.75 30 L 246.75 270 L 53.25 270 Z M 53.25 30 " clip-rule="nonzero"/></clipPath></defs><g clip-path="url(#97e7288b5c)"><path fill="currentColor" d="M 216.761719 38.121094 C 198.875 32.902344 175.164062 30.03125 150 30.03125 C 124.835938 30.03125 101.125 32.902344 83.238281 38.121094 C 63.621094 43.839844 53.25 51.75 53.25 60.988281 L 53.25 84.210938 C 53.25 88.859375 55.878906 93.171875 60.988281 97.039062 L 60.988281 242.878906 C 60.988281 260.664062 105.765625 269.96875 150 269.96875 C 194.234375 269.96875 239.011719 260.664062 239.011719 242.878906 L 239.011719 97.039062 C 244.121094 93.171875 246.75 88.859375 246.75 84.210938 L 246.75 60.988281 C 246.75 51.75 236.378906 43.839844 216.761719 38.121094 Z M 150 37.769531 C 205.148438 37.769531 239.011719 51.292969 239.011719 60.988281 C 239.011719 70.6875 205.148438 84.210938 150 84.210938 C 94.851562 84.210938 60.988281 70.6875 60.988281 60.988281 C 60.988281 51.292969 94.851562 37.769531 150 37.769531 Z M 209.183594 255.566406 C 193.425781 259.863281 172.40625 262.230469 150 262.230469 C 127.59375 262.230469 106.574219 259.863281 90.816406 255.566406 C 75.558594 251.40625 68.730469 246.195312 68.730469 242.878906 L 68.730469 239.171875 C 83.421875 249.265625 116.863281 254.488281 150 254.488281 C 183.136719 254.488281 216.578125 249.265625 231.269531 239.171875 L 231.269531 242.878906 C 231.269531 246.195312 224.441406 251.40625 209.183594 255.566406 Z M 231.269531 227.398438 C 231.269531 230.714844 224.441406 235.925781 209.183594 240.085938 C 193.425781 244.382812 172.40625 246.75 150 246.75 C 127.59375 246.75 106.574219 244.382812 90.816406 240.085938 C 75.558594 235.925781 68.730469 230.714844 68.730469 227.398438 L 68.730469 101.664062 C 72.796875 103.636719 77.640625 105.449219 83.238281 107.082031 C 101.125 112.296875 124.835938 115.171875 150 115.171875 C 175.164062 115.171875 198.875 112.296875 216.761719 107.082031 C 222.359375 105.449219 227.203125 103.636719 231.269531 101.664062 Z M 150 107.429688 C 94.851562 107.429688 60.988281 93.90625 60.988281 84.210938 L 60.988281 73.820312 C 66.035156 77.636719 73.496094 81.019531 83.238281 83.859375 C 101.125 89.078125 124.835938 91.949219 150 91.949219 C 175.164062 91.949219 198.875 89.078125 216.761719 83.859375 C 226.503906 81.019531 233.964844 77.636719 239.011719 73.820312 L 239.011719 84.210938 C 239.011719 93.90625 205.148438 107.429688 150 107.429688 Z M 150 107.429688 " fill-opacity="1" fill-rule="nonzero"/></g><path fill="currentColor" d="M 215.789062 115.171875 L 223.53125 115.171875 L 223.53125 177.089844 L 215.789062 177.089844 Z M 215.789062 115.171875 " fill-opacity="1" fill-rule="nonzero"/><path fill="currentColor" d="M 215.789062 184.828125 L 223.53125 184.828125 L 223.53125 192.570312 L 215.789062 192.570312 Z M 215.789062 184.828125 " fill-opacity="1" fill-rule="nonzero"/><path fill="currentColor" d="M 75.382812 64.472656 C 80.285156 66.84375 86.941406 69.046875 94.632812 70.84375 C 110.171875 74.472656 129.835938 76.46875 150 76.46875 C 170.164062 76.46875 189.828125 74.472656 205.367188 70.84375 C 213.058594 69.046875 219.714844 66.84375 224.617188 64.472656 C 225.953125 63.828125 226.804688 62.476562 226.804688 60.988281 C 226.804688 59.503906 225.953125 58.152344 224.617188 57.503906 C 219.714844 55.136719 213.058594 52.933594 205.367188 51.136719 C 189.828125 47.507812 170.164062 45.511719 150 45.511719 C 129.835938 45.511719 110.171875 47.507812 94.632812 51.136719 C 86.941406 52.933594 80.285156 55.136719 75.382812 57.503906 C 74.046875 58.152344 73.195312 59.503906 73.195312 60.988281 C 73.195312 62.476562 74.046875 63.828125 75.382812 64.472656 Z M 96.394531 58.675781 C 111.371094 55.175781 130.410156 53.25 150 53.25 C 169.589844 53.25 188.625 55.175781 203.605469 58.675781 C 206.910156 59.445312 209.75 60.230469 212.171875 60.988281 C 209.75 61.75 206.910156 62.535156 203.605469 63.304688 C 188.625 66.804688 169.589844 68.730469 150 68.730469 C 130.410156 68.730469 111.371094 66.804688 96.394531 63.304688 C 93.089844 62.535156 90.25 61.75 87.828125 60.988281 C 90.25 60.230469 93.089844 59.445312 96.394531 58.675781 Z M 96.394531 58.675781 " fill-opacity="1" fill-rule="nonzero"/><path fill="currentColor" d="M 146.128906 142.261719 C 146.128906 142.773438 146.03125 143.265625 145.835938 143.742188 C 145.640625 144.214844 145.359375 144.632812 144.996094 144.996094 C 144.632812 145.359375 144.214844 145.640625 143.742188 145.835938 C 143.265625 146.03125 142.773438 146.128906 142.261719 146.128906 C 141.746094 146.128906 141.253906 146.03125 140.777344 145.835938 C 140.304688 145.640625 139.886719 145.359375 139.523438 144.996094 C 139.160156 144.632812 138.882812 144.214844 138.683594 143.742188 C 138.488281 143.265625 138.390625 142.773438 138.390625 142.261719 C 138.390625 141.746094 138.488281 141.253906 138.683594 140.777344 C 138.882812 140.304688 139.160156 139.886719 139.523438 139.523438 C 139.886719 139.160156 140.304688 138.882812 140.777344 138.683594 C 141.253906 138.488281 141.746094 138.390625 142.261719 138.390625 C 142.773438 138.390625 143.265625 138.488281 143.742188 138.683594 C 144.214844 138.882812 144.632812 139.160156 144.996094 139.523438 C 145.359375 139.886719 145.640625 140.304688 145.835938 140.777344 C 146.03125 141.253906 146.128906 141.746094 146.128906 142.261719 Z M 146.128906 142.261719 " fill-opacity="1" fill-rule="nonzero"/><path fill="currentColor" d="M 138.390625 157.738281 C 138.390625 158.253906 138.292969 158.746094 138.09375 159.222656 C 137.898438 159.695312 137.621094 160.113281 137.257812 160.476562 C 136.894531 160.839844 136.476562 161.117188 136 161.316406 C 135.527344 161.511719 135.03125 161.609375 134.519531 161.609375 C 134.007812 161.609375 133.511719 161.511719 133.039062 161.316406 C 132.566406 161.117188 132.144531 160.839844 131.785156 160.476562 C 131.421875 160.113281 131.140625 159.695312 130.945312 159.222656 C 130.75 158.746094 130.648438 158.253906 130.648438 157.738281 C 130.648438 157.226562 130.75 156.734375 130.945312 156.257812 C 131.140625 155.785156 131.421875 155.367188 131.785156 155.003906 C 132.144531 154.640625 132.566406 154.359375 133.039062 154.164062 C 133.511719 153.96875 134.007812 153.871094 134.519531 153.871094 C 135.03125 153.871094 135.527344 153.96875 136 154.164062 C 136.476562 154.359375 136.894531 154.640625 137.257812 155.003906 C 137.621094 155.367188 137.898438 155.785156 138.09375 156.257812 C 138.292969 156.734375 138.390625 157.226562 138.390625 157.738281 Z M 138.390625 157.738281 " fill-opacity="1" fill-rule="nonzero"/><path fill="currentColor" d="M 153.871094 153.871094 C 153.871094 154.382812 153.773438 154.875 153.574219 155.351562 C 153.378906 155.824219 153.097656 156.242188 152.738281 156.605469 C 152.375 156.96875 151.957031 157.25 151.480469 157.445312 C 151.007812 157.640625 150.511719 157.738281 150 157.738281 C 149.488281 157.738281 148.992188 157.640625 148.519531 157.445312 C 148.042969 157.25 147.625 156.96875 147.261719 156.605469 C 146.902344 156.242188 146.621094 155.824219 146.425781 155.351562 C 146.226562 154.875 146.128906 154.382812 146.128906 153.871094 C 146.128906 153.355469 146.226562 152.863281 146.425781 152.390625 C 146.621094 151.914062 146.902344 151.496094 147.261719 151.132812 C 147.625 150.769531 148.042969 150.492188 148.519531 150.292969 C 148.992188 150.097656 149.488281 150 150 150 C 150.511719 150 151.007812 150.097656 151.480469 150.292969 C 151.957031 150.492188 152.375 150.769531 152.738281 151.132812 C 153.097656 151.496094 153.378906 151.914062 153.574219 152.390625 C 153.773438 152.863281 153.871094 153.355469 153.871094 153.871094 Z M 153.871094 153.871094 " fill-opacity="1" fill-rule="nonzero"/><path fill="currentColor" d="M 192.570312 200.308594 L 192.570312 173.21875 C 192.570312 166 184.144531 160.042969 169.316406 156.664062 C 168.972656 150.726562 165.875 142.949219 161.050781 136.039062 C 157.628906 131.132812 150.636719 122.910156 142.261719 122.910156 C 133.882812 122.910156 126.890625 131.132812 123.46875 136.039062 C 118.644531 142.949219 115.546875 150.726562 115.203125 156.664062 C 100.375 160.042969 91.949219 166 91.949219 173.21875 L 91.949219 204.179688 C 91.949219 216.882812 117.257812 223.53125 142.261719 223.53125 C 146.683594 223.53125 151.03125 223.328125 155.242188 222.929688 C 158.089844 230.074219 165.070312 235.140625 173.21875 235.140625 C 178.292969 235.140625 182.910156 233.175781 186.363281 229.972656 C 188.304688 230.824219 190.402344 231.269531 192.570312 231.269531 C 201.105469 231.269531 208.050781 224.324219 208.050781 215.789062 C 208.050781 207.253906 201.105469 200.308594 192.570312 200.308594 Z M 142.261719 130.648438 C 150.042969 130.648438 161.609375 148.410156 161.609375 157.738281 C 161.609375 166.199219 149.742188 169.351562 142.261719 169.351562 C 134.777344 169.351562 122.910156 166.199219 122.910156 157.738281 C 122.910156 148.410156 134.476562 130.648438 142.261719 130.648438 Z M 116.542969 164.300781 C 120.328125 172.722656 131.347656 177.089844 142.261719 177.089844 C 153.171875 177.089844 164.191406 172.722656 167.976562 164.300781 C 179.566406 167.007812 184.828125 171.027344 184.828125 173.21875 C 184.828125 177.160156 169.804688 184.828125 142.261719 184.828125 C 114.714844 184.828125 99.691406 177.160156 99.691406 173.21875 C 99.691406 171.027344 104.953125 167.007812 116.542969 164.300781 Z M 99.691406 184.035156 C 109.089844 189.667969 125.738281 192.570312 142.261719 192.570312 C 158.78125 192.570312 175.433594 189.667969 184.828125 184.035156 L 184.828125 200.320312 C 181.59375 197.886719 177.574219 196.441406 173.21875 196.441406 C 170.316406 196.441406 167.566406 197.085938 165.089844 198.238281 C 158.210938 199.589844 150.332031 200.308594 142.261719 200.308594 C 114.714844 200.308594 99.691406 192.640625 99.691406 188.699219 Z M 99.691406 204.179688 L 99.691406 199.511719 C 109.089844 205.148438 125.738281 208.050781 142.261719 208.050781 C 146.863281 208.050781 151.414062 207.824219 155.789062 207.394531 C 154.628906 209.792969 153.957031 212.464844 153.882812 215.285156 C 150.113281 215.621094 146.21875 215.789062 142.261719 215.789062 C 114.714844 215.789062 99.691406 208.121094 99.691406 204.179688 Z M 173.21875 227.398438 C 166.820312 227.398438 161.609375 222.191406 161.609375 215.789062 C 161.609375 209.386719 166.820312 204.179688 173.21875 204.179688 C 179.621094 204.179688 184.828125 209.386719 184.828125 215.789062 C 184.828125 222.191406 179.621094 227.398438 173.21875 227.398438 Z M 192.570312 223.53125 C 192.042969 223.53125 191.527344 223.472656 191.023438 223.371094 C 192.015625 221.039062 192.570312 218.480469 192.570312 215.789062 C 192.570312 213.101562 192.015625 210.539062 191.023438 208.210938 C 191.527344 208.109375 192.042969 208.050781 192.570312 208.050781 C 196.835938 208.050781 200.308594 211.523438 200.308594 215.789062 C 200.308594 220.058594 196.835938 223.53125 192.570312 223.53125 Z M 192.570312 223.53125 " fill-opacity="1" fill-rule="nonzero"/></svg>