<svg xmlns="http://www.w3.org/2000/svg" xmlns:xlink="http://www.w3.org/1999/xlink" width="400" zoomAndPan="magnify" viewBox="0 0 300 299.999988" height="400" preserveAspectRatio="xMidYMid meet" version="1.0"><path fill="currentColor" d="M 108.558594 95.035156 C 109.8125 94.746094 111.050781 94.382812 112.316406 94.1875 C 116.375 93.554688 120.398438 93.707031 124.394531 94.652344 C 124.9375 94.804688 125.492188 94.835938 126.050781 94.75 C 126.613281 94.660156 127.128906 94.460938 127.601562 94.152344 C 132.757812 90.980469 138.257812 88.621094 144.105469 87.066406 C 146.109375 86.542969 147.121094 85.667969 147.964844 83.777344 C 153.257812 71.785156 162.324219 63.703125 174.550781 59.273438 C 188.683594 54.148438 202.699219 55.082031 216.347656 61.136719 C 228.632812 66.566406 237.996094 75.242188 244.007812 87.347656 C 245.867188 91.03125 247.214844 94.894531 248.050781 98.9375 C 248.886719 102.976562 249.175781 107.058594 248.925781 111.175781 C 248.777344 113.640625 248.324219 116.085938 247.992188 118.683594 C 248.289062 118.8125 248.679688 118.960938 249.039062 119.148438 C 250.332031 119.855469 251.675781 120.492188 252.886719 121.324219 C 253.515625 121.734375 254.039062 122.253906 254.457031 122.878906 C 254.875 123.503906 255.152344 124.183594 255.292969 124.925781 C 255.4375 125.570312 255.804688 126.035156 256.402344 126.320312 C 257.816406 127.207031 259.175781 128.167969 260.484375 129.203125 C 262.316406 130.703125 263.546875 132.589844 264.175781 134.875 C 264.648438 136.484375 264.605469 138.078125 264.054688 139.664062 C 263.738281 140.5625 263.953125 141.125 264.546875 141.828125 C 269.203125 147.371094 269.992188 153.625 267.621094 160.332031 C 267.117188 161.730469 266.199219 163.011719 265.519531 164.257812 C 265.835938 165.792969 266.308594 167.304688 266.425781 168.84375 C 266.621094 171.480469 265.820312 173.96875 264.597656 176.253906 C 263.921875 177.574219 263.496094 178.972656 263.324219 180.445312 C 262.859375 183.605469 262.457031 186.777344 261.925781 189.921875 C 261.042969 194.984375 258.417969 198.828125 253.695312 201.074219 C 253.410156 201.199219 253.175781 201.386719 252.992188 201.636719 C 252.808594 201.886719 252.695312 202.164062 252.65625 202.472656 C 252.300781 204.199219 251.832031 205.898438 251.257812 207.566406 C 249.457031 212.449219 245.898438 215.332031 240.816406 216.316406 C 240.058594 216.460938 239.59375 216.703125 239.390625 217.449219 C 239.261719 217.855469 239.109375 218.253906 238.925781 218.640625 C 237.195312 222.636719 234.265625 225.226562 229.976562 226.128906 C 228.109375 226.507812 226.226562 226.78125 224.328125 226.957031 C 223.972656 226.949219 223.640625 227.035156 223.332031 227.21875 C 223.027344 227.402344 222.792969 227.652344 222.628906 227.972656 C 222.125 228.894531 221.550781 229.769531 220.90625 230.597656 C 217.914062 234.382812 213.996094 236.1875 209.167969 235.957031 C 207.789062 235.859375 206.417969 235.679688 205.0625 235.425781 C 204.570312 235.296875 204.140625 235.40625 203.777344 235.761719 C 196.746094 242.054688 188.664062 242.566406 180.066406 240 C 179.738281 239.863281 179.402344 239.839844 179.054688 239.925781 C 178.710938 240.011719 178.425781 240.191406 178.203125 240.464844 C 176.109375 242.667969 173.589844 244.140625 170.644531 244.886719 C 167.660156 245.660156 164.695312 245.597656 161.742188 244.699219 C 160.519531 244.296875 159.375 243.730469 158.308594 243.003906 C 158.035156 242.777344 157.722656 242.644531 157.367188 242.605469 C 157.011719 242.566406 156.675781 242.632812 156.359375 242.796875 C 153.515625 244.097656 150.535156 244.890625 147.417969 245.179688 C 142.675781 245.546875 137.921875 245.558594 133.5 243.566406 C 132.726562 243.183594 131.90625 242.984375 131.039062 242.972656 C 130.175781 242.960938 129.351562 243.136719 128.566406 243.503906 C 126.0625 244.519531 123.464844 245.113281 120.765625 245.285156 C 118.070312 245.460938 115.417969 245.203125 112.804688 244.519531 C 110.472656 243.984375 108.425781 242.90625 106.667969 241.285156 C 106.378906 241.007812 106.039062 240.804688 105.65625 240.679688 C 105.273438 240.558594 104.882812 240.523438 104.484375 240.582031 C 101.097656 240.792969 97.714844 240.726562 94.394531 239.875 C 93.597656 239.6875 92.824219 239.449219 92.0625 239.152344 C 87.304688 237.203125 85.542969 235.597656 83.765625 232.4375 C 81.492188 232.332031 79.25 232.339844 77.035156 232.085938 C 75.429688 231.875 73.859375 231.5 72.332031 230.960938 C 71.128906 230.578125 70.054688 229.96875 69.109375 229.132812 C 68.164062 228.300781 67.421875 227.3125 66.890625 226.167969 C 66.699219 225.703125 66.398438 225.324219 65.988281 225.035156 C 65.574219 224.746094 65.117188 224.59375 64.617188 224.570312 C 63.382812 224.414062 62.171875 224.160156 60.984375 223.804688 C 54.699219 221.9375 50.136719 218.152344 48.089844 211.734375 C 47.929688 211.164062 47.582031 210.757812 47.046875 210.511719 C 46.375 210.140625 45.777344 209.675781 45.25 209.113281 C 43.253906 207.082031 41.851562 204.648438 40.652344 202.085938 C 38.257812 196.960938 36.683594 191.566406 35.222656 186.125 C 33.816406 180.910156 32.847656 175.617188 32.324219 170.242188 C 32.183594 168.777344 31.859375 167.28125 32.011719 165.847656 C 32.207031 164.023438 32.804688 162.242188 33.289062 160.1875 C 33.355469 160.308594 33.289062 160.128906 33.175781 159.976562 C 30.429688 156.25 30.007812 152.089844 30.730469 147.703125 C 31.148438 145.085938 31.992188 142.617188 33.261719 140.292969 C 34.09375 138.636719 35.277344 137.289062 36.8125 136.25 C 37.3125 135.910156 37.613281 135.445312 37.714844 134.851562 C 39.699219 127.5 44.160156 122.210938 51.148438 119.160156 C 51.902344 118.910156 52.414062 118.410156 52.683594 117.660156 C 53.695312 114.894531 55.628906 112.789062 57.804688 110.898438 C 61.105469 108.078125 64.882812 106.242188 69.136719 105.386719 C 70.113281 105.222656 70.871094 104.722656 71.410156 103.886719 C 72.804688 101.847656 74.773438 100.527344 77 99.589844 C 81.050781 97.894531 85.273438 97.03125 89.667969 97 C 90.699219 97.042969 91.609375 96.734375 92.398438 96.070312 C 93.777344 94.855469 95.332031 93.945312 97.066406 93.335938 C 98.796875 92.726562 100.582031 92.464844 102.414062 92.546875 C 104.171875 92.699219 105.90625 92.992188 107.613281 93.433594 C 108.695312 93.675781 108.722656 93.84375 108.566406 95.074219 C 107.957031 94.957031 107.351562 94.8125 106.742188 94.734375 C 105.046875 94.507812 103.339844 94.136719 101.644531 94.15625 C 100.246094 94.167969 98.886719 94.414062 97.570312 94.894531 C 96.253906 95.371094 95.054688 96.058594 93.972656 96.949219 C 94.109375 97.492188 94.40625 97.992188 94.28125 98.347656 C 94.042969 98.96875 93.382812 98.6875 92.882812 98.664062 C 91.835938 98.613281 90.78125 98.449219 89.742188 98.5 C 86.597656 98.660156 83.511719 99.195312 80.496094 100.109375 C 78.445312 100.644531 76.554688 101.527344 74.828125 102.757812 C 74.246094 103.226562 73.746094 103.757812 73.226562 104.242188 C 73.421875 104.449219 73.46875 104.554688 73.542969 104.574219 C 74.007812 104.726562 74.574219 104.78125 74.472656 105.429688 C 74.390625 106.007812 73.855469 106.046875 73.363281 106.128906 C 72.332031 106.296875 71.296875 106.476562 70.277344 106.710938 C 65.425781 107.800781 61.046875 109.816406 57.5625 113.4375 C 56.496094 114.652344 55.523438 115.941406 54.648438 117.304688 C 54.449219 117.628906 54.402344 117.972656 54.503906 118.339844 C 54.933594 119.558594 54.96875 119.53125 53.828125 119.878906 C 46.601562 122.101562 42.148438 127.128906 39.628906 134.058594 C 39.464844 134.507812 39.453125 134.957031 39.589844 135.414062 C 39.863281 136.128906 39.667969 136.503906 39.023438 136.765625 C 36.753906 137.695312 35.398438 139.496094 34.386719 141.609375 C 33.066406 144.351562 32.308594 147.238281 32.121094 150.273438 C 31.914062 153.578125 32.636719 156.632812 34.714844 159.265625 C 34.964844 159.527344 35.101562 159.839844 35.128906 160.199219 C 35.15625 160.5625 35.070312 160.890625 34.863281 161.1875 C 32.828125 165.210938 33.027344 169.082031 35.796875 172.742188 C 37.578125 175.023438 39.707031 176.917969 42.175781 178.425781 C 43.097656 178.980469 43.695312 179.777344 43.976562 180.816406 C 44.503906 182.613281 45.292969 184.292969 46.339844 185.847656 C 47.382812 187.402344 48.640625 188.765625 50.105469 189.9375 C 52.570312 191.898438 55.5 192.214844 58.492188 192.265625 C 59.5625 192.265625 59.613281 192.136719 59.832031 193.152344 C 60.210938 194.925781 60.464844 196.726562 60.96875 198.464844 C 61.367188 199.933594 61.941406 201.332031 62.6875 202.660156 C 62.976562 203.160156 63.324219 203.613281 63.730469 204.019531 C 64.140625 204.429688 64.59375 204.773438 65.09375 205.0625 C 65.59375 205.347656 66.125 205.5625 66.683594 205.710938 C 67.242188 205.855469 67.808594 205.925781 68.386719 205.917969 C 70.671875 206.023438 72.835938 205.554688 74.878906 204.523438 C 75.46875 204.21875 76.074219 203.933594 76.691406 203.675781 C 77.714844 203.234375 77.710938 203.253906 78.480469 204.140625 C 79.113281 204.917969 79.785156 205.65625 80.5 206.355469 C 83.71875 209.304688 87.367188 211.3125 91.871094 211.386719 C 93.480469 211.394531 95.058594 211.171875 96.601562 210.71875 C 98.144531 210.265625 99.589844 209.601562 100.9375 208.722656 C 102.167969 207.96875 102.378906 207.988281 103.457031 208.914062 C 104.988281 210.261719 106.738281 211.195312 108.707031 211.710938 C 112.65625 212.730469 116.621094 212.820312 120.609375 211.96875 C 123.40625 211.378906 125.921875 210.105469 128.324219 208.640625 C 129.476562 207.925781 130.425781 207.941406 131.632812 208.558594 C 136.289062 210.941406 141.265625 211.445312 146.394531 210.855469 C 149.292969 210.488281 152.105469 209.78125 154.832031 208.734375 C 155.183594 208.566406 155.550781 208.515625 155.933594 208.570312 C 156.320312 208.625 156.65625 208.78125 156.945312 209.039062 C 161.332031 212.605469 166.40625 213.527344 171.886719 212.832031 C 174.933594 212.410156 177.84375 211.539062 180.621094 210.214844 C 182.226562 209.472656 183.648438 209.15625 185.058594 210.492188 C 185.285156 210.667969 185.535156 210.808594 185.804688 210.910156 C 190.203125 213.050781 194.730469 213.074219 199.3125 211.683594 C 203.0625 210.546875 206.339844 208.699219 208.40625 205.195312 C 208.871094 204.457031 209.449219 204.324219 210.234375 204.464844 C 211.6875 204.722656 213.144531 205.011719 214.605469 205.160156 C 218.886719 205.59375 222.886719 204.851562 226.324219 202.074219 C 227.835938 200.960938 228.871094 199.507812 229.433594 197.714844 C 229.476562 197.46875 229.5625 197.234375 229.6875 197.015625 C 229.816406 196.800781 229.976562 196.613281 230.175781 196.453125 C 230.371094 196.296875 230.589844 196.175781 230.828125 196.097656 C 231.066406 196.019531 231.3125 195.984375 231.5625 195.996094 C 231.945312 195.964844 232.320312 195.910156 232.695312 195.828125 C 235.0625 195.46875 237.355469 194.832031 239.566406 193.914062 C 240.933594 193.351562 242.132812 192.542969 243.171875 191.492188 C 244.210938 190.441406 245.003906 189.230469 245.546875 187.859375 C 245.863281 187.113281 246.089844 186.332031 246.382812 185.574219 C 246.734375 184.644531 247.117188 184.398438 248.113281 184.417969 C 248.492188 184.417969 248.875 184.503906 249.25 184.53125 C 250.714844 184.6875 252.15625 184.574219 253.578125 184.191406 C 255 183.808594 256.304688 183.183594 257.492188 182.316406 C 259.253906 181.019531 260.738281 179.460938 261.945312 177.632812 C 263.148438 175.808594 264.003906 173.832031 264.503906 171.703125 C 265.058594 169.503906 265.011719 167.3125 263.828125 165.320312 C 263.273438 164.390625 263.476562 163.832031 264.066406 163.042969 C 264.945312 161.96875 265.640625 160.789062 266.152344 159.5 C 268.25 153.246094 267.457031 147.441406 263.023438 142.378906 C 262.226562 141.445312 261.984375 140.609375 262.371094 139.523438 C 263.347656 136.785156 262.617188 134.371094 260.972656 132.121094 C 259.644531 130.398438 258.035156 129 256.140625 127.929688 C 255.324219 127.429688 254.476562 126.996094 253.640625 126.53125 C 253.09375 126.226562 252.828125 125.796875 253.226562 125.25 C 253.304688 125.144531 253.363281 125.027344 253.394531 124.898438 C 253.429688 124.773438 253.4375 124.644531 253.417969 124.511719 C 253.402344 124.378906 253.359375 124.257812 253.292969 124.144531 C 253.226562 124.03125 253.140625 123.933594 253.035156 123.851562 C 252.199219 123.007812 251.300781 122.242188 250.335938 121.550781 C 249.503906 120.976562 248.585938 120.433594 247.542969 120.433594 L 244.28125 128.753906 C 244.300781 128.832031 244.332031 128.902344 244.378906 128.96875 C 244.566406 129.1875 244.761719 129.390625 244.960938 129.601562 C 248.878906 133.625 251.804688 138.277344 253.738281 143.554688 C 256.28125 150.574219 256.023438 157.457031 252.550781 164.183594 C 250.792969 167.652344 248.597656 170.8125 245.953125 173.664062 C 243.308594 176.511719 240.324219 178.945312 237 180.953125 C 218.101562 192.460938 197.695312 199.402344 175.605469 201.078125 C 167.570312 201.6875 159.511719 202.011719 151.453125 202.21875 C 143.730469 202.421875 135.996094 202.308594 128.269531 202.332031 C 122.917969 202.371094 117.589844 202.058594 112.28125 201.402344 C 101.671875 200.054688 91.191406 198.035156 80.839844 195.34375 C 64.375 191.039062 53.21875 180.699219 47.691406 164.496094 C 46.078125 159.859375 45.613281 155.105469 46.296875 150.242188 C 47.15625 144.160156 49.644531 138.734375 53.113281 133.734375 C 58.683594 125.707031 66.203125 119.945312 74.613281 115.21875 C 75.058594 114.925781 75.542969 114.734375 76.066406 114.644531 C 76.859375 114.578125 77.195312 114.128906 77.523438 113.507812 C 78.378906 111.886719 79.496094 110.476562 80.875 109.269531 C 82.253906 108.066406 83.804688 107.148438 85.523438 106.519531 C 88.964844 105.15625 92.535156 104.414062 96.238281 104.292969 C 96.59375 104.300781 96.929688 104.21875 97.242188 104.046875 C 97.554688 103.875 97.800781 103.640625 97.988281 103.335938 C 100.421875 99.96875 103.527344 97.425781 107.304688 95.703125 C 107.71875 95.484375 108.136719 95.25 108.558594 95.035156 Z M 146.246094 87.996094 C 145.363281 88.234375 144.816406 88.359375 144.285156 88.53125 C 138.757812 90.277344 133.492188 92.609375 128.484375 95.519531 C 125.160156 97.429688 122.09375 99.691406 119.28125 102.296875 C 116.339844 105.09375 113.839844 108.183594 112.363281 112.011719 C 110.75 116.203125 110.871094 120.3125 112.9375 124.328125 C 113.402344 125.257812 113.96875 126.152344 114.484375 127.066406 C 114.6875 127.332031 114.84375 127.621094 114.949219 127.9375 C 115.011719 128.261719 114.9375 128.554688 114.726562 128.808594 C 114.539062 128.949219 114.117188 128.871094 113.832031 128.777344 C 113.617188 128.671875 113.449219 128.515625 113.328125 128.308594 C 111.40625 125.472656 109.925781 122.460938 109.664062 118.964844 C 109.308594 114.210938 110.933594 110.0625 113.621094 106.257812 C 116.125 102.707031 119.296875 99.828125 122.789062 97.285156 C 123.1875 96.996094 123.558594 96.671875 124.070312 96.261719 C 123.769531 96.128906 123.460938 96.023438 123.140625 95.945312 C 118.945312 95.292969 114.753906 95.085938 110.65625 96.3125 C 103.039062 98.554688 98.273438 103.835938 95.808594 111.289062 C 94.238281 116.035156 94.820312 120.605469 97.308594 124.941406 C 98.871094 127.644531 100.777344 130.082031 103.023438 132.25 C 104.742188 133.964844 106.683594 135.375 108.851562 136.472656 C 111.015625 137.570312 113.296875 138.304688 115.695312 138.679688 C 119.421875 139.277344 123.113281 139.082031 126.824219 138.726562 C 127.816406 138.632812 128.808594 138.476562 129.804688 138.367188 C 130.335938 138.3125 130.9375 138.289062 131.082031 138.960938 C 131.226562 139.628906 130.691406 139.84375 130.152344 139.960938 C 129.871094 140.035156 129.59375 140.09375 129.308594 140.132812 C 125.179688 140.546875 121.058594 141.003906 116.894531 140.519531 C 112.84375 140.054688 109.058594 138.867188 105.6875 136.542969 C 103.480469 135.015625 101.492188 133.238281 99.722656 131.214844 C 97.957031 129.191406 96.46875 126.980469 95.253906 124.582031 C 93.808594 121.808594 93.171875 118.859375 93.339844 115.734375 C 93.511719 112.789062 94.25 109.992188 95.558594 107.347656 C 95.773438 106.882812 95.953125 106.445312 96.21875 105.84375 C 95.6875 105.84375 95.410156 105.84375 95.128906 105.84375 C 91.195312 106.21875 87.367188 107.125 83.949219 109.136719 C 79.4375 111.796875 77.277344 115.953125 77.230469 121.160156 C 77.199219 124.621094 78.480469 127.683594 80.367188 130.515625 C 82.128906 133.03125 84.1875 135.265625 86.554688 137.226562 C 91.59375 141.621094 97.207031 144.914062 103.789062 146.472656 C 110.082031 147.972656 116.449219 148.015625 122.851562 147.566406 C 123.660156 147.511719 124.46875 147.457031 125.277344 147.425781 C 125.742188 147.425781 126.160156 147.5625 126.210938 148.105469 C 126.261719 148.644531 125.851562 148.839844 125.417969 148.957031 C 125.136719 149.023438 124.855469 149.0625 124.570312 149.082031 C 120.382812 149.5 116.191406 149.59375 111.992188 149.363281 C 108.316406 149.132812 104.707031 148.503906 101.171875 147.46875 C 93.296875 145.140625 86.945312 140.433594 81.429688 134.519531 C 80.007812 133.050781 78.820312 131.414062 77.863281 129.609375 C 76.90625 127.804688 76.222656 125.898438 75.804688 123.898438 C 75.804688 123.78125 75.648438 123.683594 75.554688 123.5625 C 75.410156 123.582031 75.273438 123.625 75.144531 123.6875 C 74.800781 123.945312 74.460938 124.210938 74.136719 124.492188 C 70.039062 128.125 67.589844 132.574219 67.074219 138.105469 C 66.609375 143.199219 68.097656 147.445312 72.082031 150.683594 C 77.902344 155.410156 84.660156 157.382812 92.066406 157.039062 C 94.582031 156.921875 97.089844 156.5 99.601562 156.214844 C 99.925781 156.136719 100.25 156.121094 100.578125 156.167969 C 100.847656 156.25 101.199219 156.546875 101.230469 156.78125 C 101.207031 157.117188 101.050781 157.371094 100.765625 157.546875 C 100.328125 157.746094 99.871094 157.863281 99.390625 157.90625 C 97.40625 158.152344 95.417969 158.414062 93.425781 158.589844 C 85.449219 159.296875 78.203125 157.351562 71.75 152.566406 C 71.488281 152.390625 71.214844 152.234375 70.933594 152.101562 C 70.886719 152.226562 70.855469 152.355469 70.839844 152.488281 C 70.851562 152.675781 70.875 152.863281 70.914062 153.050781 C 72.039062 158.113281 74.246094 162.589844 78.136719 166.09375 C 83.222656 170.691406 89.277344 173.167969 96.023438 174.046875 C 99.726562 174.484375 103.4375 174.589844 107.160156 174.363281 C 112.609375 174.160156 118.007812 173.527344 123.355469 172.457031 C 129.257812 171.214844 134.898438 169.15625 140.464844 166.867188 C 147.6875 163.929688 154.765625 160.621094 161.441406 156.476562 C 168.121094 152.351562 173.632812 147.019531 177.976562 140.484375 C 179.664062 137.992188 180.910156 135.296875 181.714844 132.402344 C 182.523438 129.503906 182.851562 126.554688 182.695312 123.550781 C 182.691406 122.554688 182.507812 121.59375 182.144531 120.671875 C 181.773438 121.097656 181.527344 121.375 181.300781 121.664062 C 179.800781 123.589844 177.917969 125.007812 175.648438 125.917969 C 172.273438 127.261719 169.128906 126.902344 166.226562 124.625 C 165.949219 124.433594 165.664062 124.257812 165.367188 124.097656 C 165.257812 124.515625 165.171875 124.78125 165.113281 125.03125 C 164.855469 126.253906 164.410156 127.40625 163.78125 128.488281 C 163.152344 129.570312 162.371094 130.527344 161.4375 131.355469 C 159.746094 132.878906 157.824219 134.003906 155.667969 134.730469 C 152.496094 135.851562 149.230469 136.492188 145.867188 136.644531 C 142.503906 136.796875 139.195312 136.460938 135.933594 135.632812 C 131.148438 134.46875 127.109375 132.082031 124.09375 128.109375 C 120.789062 123.757812 119.6875 118.792969 119.902344 113.425781 C 119.898438 113.136719 119.949219 112.859375 120.0625 112.59375 C 120.183594 112.328125 120.394531 112.191406 120.6875 112.191406 C 120.984375 112.191406 121.195312 112.328125 121.316406 112.59375 C 121.457031 112.949219 121.523438 113.316406 121.523438 113.695312 C 121.574219 114.699219 121.550781 115.703125 121.617188 116.703125 C 122.132812 124.621094 126.925781 130.917969 134.460938 133.472656 C 139.824219 135.28125 145.3125 135.402344 150.84375 134.378906 C 153.710938 133.921875 156.363281 132.910156 158.808594 131.34375 C 161.53125 129.527344 163.265625 127.042969 163.625 123.746094 C 163.796875 122.027344 163.714844 120.316406 163.375 118.625 C 163.035156 116.929688 162.457031 115.320312 161.636719 113.800781 C 161.613281 113.753906 161.472656 113.761719 161.324219 113.730469 C 161.203125 113.898438 161.050781 114.074219 160.933594 114.269531 C 158.320312 118.675781 154.363281 121.496094 149.828125 123.613281 C 149.363281 123.839844 148.820312 124.140625 148.429688 123.574219 C 148.039062 123.003906 148.550781 122.710938 148.824219 122.339844 C 148.871094 122.238281 148.894531 122.132812 148.90625 122.027344 C 143.875 111.148438 142.789062 99.914062 146.246094 87.996094 Z M 261.707031 181.386719 L 261.367188 181.15625 C 259.667969 183 257.660156 184.410156 255.355469 185.394531 C 252.988281 186.324219 250.515625 186.324219 248.109375 186.171875 C 248.023438 186.277344 247.945312 186.390625 247.871094 186.507812 C 247.789062 186.679688 247.714844 186.855469 247.652344 187.039062 C 246.140625 191.847656 242.855469 194.847656 238.085938 196.25 C 236.289062 196.746094 234.46875 197.152344 232.628906 197.46875 C 231.722656 197.636719 231.097656 197.871094 230.742188 198.867188 C 230 200.949219 228.523438 202.507812 226.761719 203.808594 C 222.921875 206.636719 218.574219 207.269531 213.976562 206.757812 C 212.609375 206.609375 211.242188 206.378906 209.90625 206.195312 C 209.097656 207.125 208.382812 208.09375 207.535156 208.925781 C 205.007812 211.394531 201.898438 212.796875 198.507812 213.621094 C 193.4375 214.847656 188.554688 214.484375 183.992188 211.792969 C 183.621094 211.542969 183.207031 211.402344 182.757812 211.378906 C 182.308594 211.355469 181.886719 211.453125 181.492188 211.664062 C 178.488281 213.054688 175.34375 213.988281 172.066406 214.457031 C 166.425781 215.152344 161.128906 214.261719 156.460938 210.796875 C 156.199219 210.59375 155.90625 210.46875 155.582031 210.421875 C 155.253906 210.375 154.9375 210.410156 154.628906 210.53125 C 152.007812 211.234375 149.390625 212.050781 146.710938 212.421875 C 141.476562 213.148438 136.3125 212.667969 131.488281 210.3125 C 130.992188 210.027344 130.460938 209.898438 129.894531 209.933594 C 129.324219 209.964844 128.808594 210.152344 128.351562 210.492188 C 123.523438 213.511719 118.230469 214.566406 112.589844 214.039062 C 109 213.707031 105.660156 212.742188 102.84375 210.363281 C 102.644531 210.214844 102.433594 210.082031 102.210938 209.972656 C 102.125 209.980469 102.042969 210 101.960938 210.027344 C 101.496094 210.28125 101.03125 210.546875 100.566406 210.789062 C 95.992188 213.179688 91.25 213.796875 86.339844 211.980469 C 83.152344 210.757812 80.449219 208.847656 78.234375 206.253906 C 77.898438 205.871094 77.546875 205.503906 77.210938 205.140625 C 76.445312 205.527344 75.816406 205.847656 75.167969 206.160156 C 72.652344 207.394531 70.003906 207.828125 67.226562 207.460938 C 64.179688 207.089844 62.101562 205.304688 60.703125 202.667969 C 59.773438 200.882812 59.34375 198.914062 58.957031 196.945312 C 58.765625 195.976562 58.554688 195.019531 58.359375 194.082031 C 57.25 193.933594 56.3125 193.804688 55.363281 193.6875 C 52.769531 193.433594 50.480469 192.464844 48.492188 190.78125 C 45.734375 188.359375 43.808594 185.398438 42.71875 181.894531 C 42.445312 181.003906 41.921875 180.296875 41.148438 179.78125 C 38.914062 178.292969 36.894531 176.558594 35.089844 174.574219 C 34.988281 174.457031 34.796875 174.414062 34.484375 174.257812 C 34.515625 174.78125 34.574219 175.304688 34.660156 175.824219 C 35.589844 179.917969 36.433594 184.03125 37.496094 188.082031 C 38.703125 192.957031 40.394531 197.664062 42.558594 202.195312 C 43.535156 204.289062 44.808594 206.183594 46.375 207.878906 C 46.660156 208.113281 46.957031 208.320312 47.273438 208.507812 C 47.203125 207.851562 47.160156 207.433594 47.105469 207.015625 C 46.976562 206.023438 46.816406 205.035156 46.714844 204.039062 C 46.660156 203.519531 46.597656 202.863281 47.289062 202.761719 C 48.117188 202.640625 48.070312 203.402344 48.21875 203.929688 C 48.234375 204.023438 48.246094 204.117188 48.25 204.214844 C 48.476562 205.613281 48.675781 207.042969 48.933594 208.449219 C 49.984375 214.242188 53.078125 218.507812 58.425781 221.074219 C 60.253906 221.925781 62.167969 222.492188 64.164062 222.769531 C 64.566406 222.828125 64.964844 222.863281 65.46875 222.917969 C 65.144531 221.199219 64.839844 219.65625 64.566406 218.121094 C 64.464844 217.652344 64.425781 217.175781 64.445312 216.699219 C 64.445312 216.480469 64.738281 216.113281 64.910156 216.105469 C 65.238281 216.101562 65.503906 216.226562 65.707031 216.484375 C 65.867188 216.9375 65.980469 217.40625 66.046875 217.882812 C 66.601562 219.996094 67.023438 222.164062 67.765625 224.210938 C 68.828125 227.136719 71.027344 228.972656 74.015625 229.804688 C 76.75 230.546875 79.53125 230.839844 82.359375 230.679688 C 82.589844 230.632812 82.8125 230.554688 83.023438 230.449219 C 82.964844 230.132812 82.929688 229.902344 82.890625 229.671875 C 82.628906 228.074219 82.355469 226.476562 82.113281 224.878906 C 82.039062 224.5 82.050781 224.121094 82.152344 223.746094 C 82.238281 223.492188 82.574219 223.144531 82.789062 223.152344 C 83.003906 223.15625 83.292969 223.496094 83.449219 223.75 C 83.558594 223.933594 83.488281 224.21875 83.53125 224.449219 C 83.8125 226.046875 84.042969 227.65625 84.414062 229.230469 C 84.949219 231.457031 85.957031 233.472656 87.820312 234.886719 C 88.964844 235.746094 90.183594 236.480469 91.480469 237.089844 C 95.484375 238.980469 99.757812 239.183594 104.058594 238.953125 C 104.324219 238.898438 104.582031 238.816406 104.828125 238.703125 C 104.828125 238.214844 104.828125 237.746094 104.828125 237.28125 C 104.828125 235.417969 104.804688 233.554688 104.800781 231.6875 C 104.769531 231.355469 104.796875 231.027344 104.878906 230.703125 C 104.996094 230.4375 105.195312 230.277344 105.476562 230.210938 C 105.761719 230.230469 105.976562 230.367188 106.117188 230.617188 C 106.257812 231.023438 106.328125 231.441406 106.328125 231.871094 C 106.378906 233.878906 106.4375 235.882812 106.421875 237.886719 C 106.410156 238.292969 106.488281 238.683594 106.660156 239.054688 C 106.832031 239.421875 107.078125 239.734375 107.398438 239.992188 C 108.878906 241.324219 110.578125 242.253906 112.496094 242.785156 C 115.152344 243.519531 117.859375 243.789062 120.609375 243.585938 C 122.296875 243.535156 123.933594 243.226562 125.519531 242.65625 C 125.519531 240.527344 125.519531 238.433594 125.519531 236.347656 C 125.519531 235.816406 125.21875 235.210938 125.839844 234.789062 C 126.480469 234.992188 126.410156 235.527344 126.425781 235.96875 C 126.464844 237.597656 126.46875 239.230469 126.503906 240.839844 C 126.503906 241.304688 126.566406 241.738281 126.621094 242.417969 L 130.742188 240.832031 C 130.808594 240.484375 130.871094 240.257812 130.894531 240.023438 C 131.066406 237.976562 131.230469 235.9375 131.398438 233.894531 C 131.394531 233.511719 131.445312 233.136719 131.546875 232.769531 C 131.675781 232.503906 131.886719 232.347656 132.175781 232.304688 C 132.382812 232.304688 132.644531 232.578125 132.765625 232.796875 C 132.851562 233.023438 132.878906 233.257812 132.847656 233.496094 C 132.78125 235.265625 132.703125 237.027344 132.613281 238.789062 C 132.574219 239.589844 132.507812 240.390625 132.457031 241.117188 C 136.648438 244.238281 148.664062 244.238281 152.371094 242.1875 L 152.371094 240.707031 C 152.371094 239.464844 152.371094 238.226562 152.371094 236.980469 C 152.371094 236.515625 152.253906 235.980469 153.128906 235.84375 C 153.597656 237.820312 153.023438 239.875 153.488281 242.050781 L 156.921875 240.679688 C 156.921875 240.136719 156.921875 239.664062 156.921875 239.195312 C 156.921875 237.710938 156.875 236.234375 156.863281 234.753906 C 156.832031 234.421875 156.863281 234.09375 156.953125 233.773438 C 157.082031 233.511719 157.285156 233.359375 157.570312 233.304688 C 157.855469 233.355469 158.0625 233.507812 158.183594 233.773438 C 158.277344 234.09375 158.316406 234.421875 158.300781 234.753906 C 158.378906 236.515625 158.507812 238.28125 158.511719 240.046875 C 158.492188 240.433594 158.578125 240.792969 158.769531 241.128906 C 158.957031 241.464844 159.21875 241.726562 159.558594 241.910156 C 161.351562 242.996094 163.296875 243.574219 165.390625 243.648438 C 170.417969 243.976562 174.488281 242.023438 177.863281 238.394531 C 178.222656 237.984375 178.378906 237.507812 178.328125 236.960938 C 178.328125 235.007812 178.328125 233.050781 178.359375 231.09375 C 178.359375 230.078125 178.667969 229.582031 179.171875 229.695312 C 179.953125 229.855469 179.8125 230.53125 179.828125 231.09375 C 179.863281 233 179.878906 234.910156 179.921875 236.816406 C 179.953125 238.253906 179.980469 238.3125 181.316406 238.71875 C 184.847656 239.765625 188.4375 240.019531 192.078125 239.484375 C 194.140625 239.257812 196.089844 238.664062 197.925781 237.699219 C 197.925781 235.628906 197.925781 233.539062 197.925781 231.445312 C 197.925781 230.539062 197.863281 229.628906 197.886719 228.726562 C 197.949219 228.445312 198.058594 228.183594 198.214844 227.945312 L 198.558594 227.945312 C 198.671875 228.367188 198.746094 228.796875 198.792969 229.234375 C 198.84375 231.382812 198.855469 233.53125 198.894531 235.675781 C 198.894531 236.082031 198.960938 236.488281 199.007812 237.019531 C 200.546875 236.414062 201.574219 235.359375 202.683594 234.410156 C 203.019531 234.136719 203.265625 233.800781 203.421875 233.398438 C 203.578125 232.992188 203.625 232.578125 203.558594 232.152344 C 203.34375 229.820312 203.203125 227.492188 203.054688 225.164062 C 203.023438 224.636719 203.054688 224.003906 203.71875 223.929688 C 204.386719 223.855469 204.507812 224.464844 204.558594 225.007812 C 204.558594 225.148438 204.558594 225.292969 204.558594 225.4375 C 204.753906 227.859375 204.964844 230.28125 205.152344 232.710938 C 205.203125 233.324219 205.300781 233.808594 206.050781 233.9375 C 209.933594 234.625 213.703125 234.539062 216.96875 231.996094 C 219.953125 229.667969 222.066406 226.726562 222.433594 222.804688 C 222.621094 220.8125 222.773438 218.8125 222.945312 216.820312 C 222.941406 216.4375 222.996094 216.066406 223.109375 215.703125 C 223.257812 215.453125 223.476562 215.320312 223.765625 215.304688 C 223.96875 215.304688 224.195312 215.597656 224.328125 215.8125 C 224.402344 215.996094 224.421875 216.179688 224.390625 216.371094 C 224.316406 218.136719 224.265625 219.898438 224.148438 221.660156 C 224.074219 222.824219 223.914062 223.988281 223.769531 225.3125 C 227.074219 225.148438 230.085938 224.65625 232.890625 223.1875 C 233.507812 222.867188 233.554688 222.316406 233.597656 221.734375 C 233.796875 219.40625 234.003906 217.074219 234.203125 214.746094 C 234.246094 214.28125 234.160156 213.695312 235.0625 213.515625 C 235.28125 216.203125 234.65625 218.800781 234.707031 221.519531 C 235.007812 221.355469 235.175781 221.320312 235.238281 221.222656 C 236.683594 219.46875 237.8125 217.53125 238.164062 215.269531 C 238.5 213.148438 238.6875 211.011719 238.9375 208.878906 C 238.964844 208.640625 238.90625 208.359375 239.011719 208.175781 C 239.121094 207.988281 239.398438 207.605469 239.652344 207.558594 C 240.117188 207.464844 240.332031 207.820312 240.359375 208.253906 C 240.382812 208.632812 240.382812 209.015625 240.359375 209.394531 C 240.265625 210.792969 240.140625 212.152344 240.046875 213.53125 C 240.046875 213.925781 240.070312 214.316406 240.117188 214.710938 C 243.660156 214.058594 246.484375 212.511719 248.308594 209.53125 C 249.109375 208.167969 249.730469 206.734375 250.175781 205.21875 C 251.132812 201.957031 251.714844 198.632812 251.925781 195.238281 C 251.957031 194.472656 252.027344 193.714844 252.136719 192.960938 C 252.175781 192.703125 252.511719 192.492188 252.71875 192.269531 C 252.972656 192.5 253.324219 192.683594 253.457031 192.972656 C 253.554688 193.300781 253.570312 193.628906 253.503906 193.960938 C 253.421875 195.292969 253.308594 196.621094 253.21875 197.953125 C 253.21875 198.347656 253.21875 198.746094 253.21875 199.3125 C 253.742188 199.054688 254.046875 198.929688 254.320312 198.765625 C 255.765625 197.914062 256.980469 196.808594 257.960938 195.449219 C 258.945312 194.089844 259.609375 192.585938 259.960938 190.945312 C 260.664062 187.785156 261.121094 184.574219 261.707031 181.386719 Z M 229.328125 136.910156 C 229.769531 136.523438 230.066406 136.296875 230.332031 136.03125 C 232 134.378906 233.5 132.59375 234.835938 130.667969 C 236.171875 128.742188 237.324219 126.710938 238.289062 124.574219 C 239.253906 122.4375 240.015625 120.234375 240.574219 117.957031 C 241.132812 115.679688 241.480469 113.371094 241.617188 111.03125 C 241.863281 107.296875 241.609375 103.597656 240.859375 99.929688 C 240.109375 96.261719 238.886719 92.761719 237.191406 89.421875 C 228.316406 71.460938 208.507812 60.824219 189.210938 62.476562 C 183.152344 62.996094 177.359375 64.507812 172.03125 67.445312 C 159.1875 74.507812 152.03125 85.371094 150.894531 100.015625 C 150.429688 106.183594 151.566406 112.175781 153.867188 117.925781 C 154.027344 118.28125 154.203125 118.628906 154.402344 118.964844 C 154.757812 118.71875 155.039062 118.546875 155.289062 118.335938 C 157.300781 116.671875 158.894531 114.671875 160.074219 112.339844 C 160.226562 111.992188 160.40625 111.652344 160.613281 111.332031 C 161.046875 110.71875 161.542969 110.695312 162.007812 111.25 C 162.214844 111.515625 162.390625 111.800781 162.539062 112.097656 C 163.558594 113.945312 164.335938 115.890625 164.871094 117.933594 C 165.289062 119.394531 165.785156 120.828125 166.359375 122.234375 C 166.742188 123.101562 167.363281 123.734375 168.222656 124.132812 C 169 124.574219 169.832031 124.863281 170.714844 124.992188 C 171.597656 125.121094 172.476562 125.085938 173.347656 124.882812 C 174.78125 124.554688 176.109375 123.980469 177.324219 123.148438 C 178.539062 122.316406 179.558594 121.292969 180.382812 120.074219 C 180.65625 119.683594 180.886719 119.257812 181.1875 118.894531 C 181.917969 118.019531 182.96875 118.117188 183.515625 119.144531 C 183.765625 119.609375 183.917969 120.109375 183.984375 120.632812 C 184.15625 122.242188 184.253906 123.855469 184.382812 125.46875 C 184.417969 125.859375 184.453125 126.257812 184.5 126.800781 C 188.910156 124.15625 192.886719 123.636719 195.988281 128.085938 C 198.039062 127.285156 199.902344 126.433594 201.839844 125.828125 C 202.730469 125.515625 203.644531 125.371094 204.589844 125.402344 C 205.53125 125.429688 206.4375 125.625 207.308594 125.992188 C 208.234375 126.398438 209.199219 126.550781 210.203125 126.457031 C 212.621094 126.308594 214.863281 126.851562 216.695312 128.53125 C 217.125 128.957031 217.644531 129.136719 218.25 129.070312 C 218.773438 129.039062 219.296875 129.046875 219.820312 129.09375 C 223.941406 129.386719 226.9375 131.320312 228.601562 135.148438 C 228.804688 135.679688 229.019531 136.203125 229.328125 136.910156 Z M 76.066406 116.152344 C 75.292969 116.519531 74.539062 116.929688 73.808594 117.382812 C 70.546875 119.6875 67.167969 121.886719 64.023438 124.371094 C 61.078125 126.675781 58.457031 129.304688 56.152344 132.25 C 53.847656 135.199219 51.933594 138.382812 50.410156 141.796875 C 47.65625 148 46.714844 154.433594 48.46875 161.0625 C 52.917969 177.832031 63.726562 188.476562 80.21875 193.5 C 87.261719 194.992188 94.285156 196.566406 101.34375 197.953125 C 109.875 199.683594 118.496094 200.582031 127.203125 200.65625 C 140.984375 200.683594 154.773438 200.71875 168.546875 199.882812 C 174.742188 199.507812 180.921875 199.054688 187.039062 198.019531 C 195.738281 196.535156 204.214844 194.238281 212.46875 191.128906 C 220.726562 188.015625 228.609375 184.144531 236.121094 179.515625 C 239.449219 177.5 242.417969 175.050781 245.03125 172.167969 C 247.644531 169.28125 249.789062 166.085938 251.464844 162.574219 C 252.621094 160.242188 253.347656 157.78125 253.640625 155.195312 C 253.929688 152.609375 253.773438 150.046875 253.164062 147.515625 C 251.726562 141.136719 248.375 135.726562 243.960938 130.945312 C 243.75 130.753906 243.527344 130.582031 243.289062 130.425781 C 243.136719 130.585938 243 130.753906 242.875 130.933594 C 239.855469 136 235.988281 140.300781 231.269531 143.835938 C 231.019531 144.023438 230.835938 144.261719 230.726562 144.554688 C 230.617188 144.847656 230.59375 145.148438 230.660156 145.453125 C 231.03125 150.453125 229.628906 154.988281 226.96875 159.164062 C 220.394531 169.496094 211.542969 176.992188 199.773438 180.804688 C 190.539062 183.800781 181.015625 185.078125 171.359375 185.421875 C 164.789062 185.65625 158.316406 185.152344 151.988281 183.148438 C 151.058594 182.851562 150.140625 182.875 149.226562 183.21875 C 144.273438 184.890625 139.183594 185.882812 133.964844 186.195312 C 127.246094 186.554688 120.628906 185.890625 114.113281 184.207031 C 108.917969 182.898438 104.0625 180.820312 99.945312 177.339844 C 98.878906 176.335938 97.613281 175.800781 96.148438 175.726562 C 96.003906 175.726562 95.863281 175.703125 95.71875 175.6875 C 92.890625 175.351562 90.140625 174.675781 87.476562 173.667969 C 84.808594 172.660156 82.304688 171.34375 79.960938 169.71875 C 73.527344 165.257812 70.054688 159.03125 69.097656 151.347656 C 69.015625 150.4375 68.691406 149.621094 68.128906 148.902344 C 66.9375 147.421875 66.152344 145.753906 65.773438 143.898438 C 64.613281 138.042969 65.65625 132.605469 69.03125 127.675781 C 70.605469 125.484375 72.484375 123.601562 74.667969 122.023438 C 75.066406 121.761719 75.335938 121.410156 75.484375 120.960938 C 75.757812 119.496094 75.878906 117.984375 76.074219 116.167969 Z M 101.714844 176.183594 L 101.628906 176.585938 C 102.042969 176.894531 102.453125 177.214844 102.878906 177.515625 C 105.132812 179.0625 107.542969 180.304688 110.109375 181.242188 C 114.492188 182.792969 118.996094 183.800781 123.621094 184.265625 C 128.914062 184.898438 134.195312 184.789062 139.457031 183.9375 C 146.457031 182.714844 153.132812 180.519531 159.488281 177.339844 C 170.476562 171.984375 180.5625 165.226562 190.042969 157.523438 C 195.09375 153.429688 199.867188 149.023438 203.917969 143.898438 C 205.851562 141.566406 207.386719 138.996094 208.523438 136.1875 C 209.183594 134.566406 209.449219 132.886719 209.324219 131.144531 C 209.148438 129.25 208.082031 127.855469 206.304688 127.382812 C 205.472656 127.15625 204.628906 127.066406 203.765625 127.113281 C 201.492188 127.324219 199.390625 128.039062 197.460938 129.257812 C 197.148438 129.394531 196.914062 129.613281 196.757812 129.914062 C 196.597656 130.214844 196.550781 130.535156 196.617188 130.867188 C 196.863281 133.195312 196.25 135.402344 195.242188 137.507812 C 193.914062 140.171875 192.203125 142.570312 190.117188 144.699219 C 185.023438 150.074219 178.914062 154.167969 172.8125 158.269531 C 172.546875 158.480469 172.25 158.621094 171.917969 158.6875 C 171.59375 158.6875 171.316406 158.570312 171.09375 158.332031 C 170.988281 158.0625 171.023438 157.808594 171.195312 157.574219 C 171.523438 157.21875 171.886719 156.910156 172.289062 156.644531 C 174.597656 155.078125 176.925781 153.484375 179.1875 151.816406 C 183.265625 148.882812 187.164062 145.761719 190.402344 141.867188 C 192.046875 139.976562 193.335938 137.871094 194.269531 135.550781 C 194.859375 134.113281 195.101562 132.617188 194.996094 131.066406 C 194.707031 127.832031 192.007812 125.804688 188.851562 126.578125 C 187.753906 126.898438 186.710938 127.351562 185.726562 127.929688 C 185.171875 128.222656 184.71875 128.632812 184.363281 129.152344 C 184.011719 129.671875 183.800781 130.242188 183.730469 130.867188 C 183.117188 134.34375 181.847656 137.5625 179.921875 140.519531 C 177.570312 144.191406 174.835938 147.558594 171.726562 150.613281 C 167.945312 154.3125 163.578125 157.21875 159.019531 159.84375 C 152.03125 163.871094 144.628906 167.089844 137.085938 169.964844 C 131.839844 172.050781 126.441406 173.605469 120.890625 174.625 C 115.042969 175.570312 109.160156 176.09375 103.238281 176.195312 C 102.734375 176.207031 102.234375 176.199219 101.726562 176.199219 Z M 210.292969 127.917969 C 210.59375 129.207031 210.816406 130.503906 210.96875 131.816406 C 211.140625 134.683594 210.0625 137.242188 208.738281 139.695312 C 207.042969 142.703125 205.019531 145.46875 202.660156 147.988281 C 198.328125 152.714844 193.609375 157.015625 188.507812 160.890625 C 177.972656 169.015625 166.894531 176.265625 154.546875 181.363281 C 154.265625 181.519531 154 181.691406 153.746094 181.886719 C 154.316406 182.078125 154.710938 182.230469 155.113281 182.351562 C 158.457031 183.15625 161.84375 183.628906 165.28125 183.769531 C 170.773438 183.96875 176.242188 183.707031 181.691406 182.984375 C 187.382812 182.332031 192.972656 181.175781 198.460938 179.519531 C 210.105469 175.925781 218.902344 168.699219 225.425781 158.558594 C 227.210938 155.90625 228.351562 152.996094 228.847656 149.835938 C 229.132812 147.363281 229.097656 144.890625 228.746094 142.425781 C 228.394531 139.960938 227.734375 137.582031 226.769531 135.285156 C 225.628906 132.621094 223.46875 131.167969 220.625 130.722656 C 220 130.625 219.367188 130.601562 218.796875 130.550781 C 218.714844 130.789062 218.675781 130.84375 218.6875 130.878906 C 218.78125 131.148438 218.875 131.417969 218.992188 131.679688 C 219.664062 133.140625 220.097656 134.671875 220.292969 136.269531 C 220.488281 137.867188 220.433594 139.457031 220.128906 141.039062 C 219.53125 144.296875 218.101562 147.285156 216.667969 150.246094 C 216.585938 150.414062 216.503906 150.632812 216.355469 150.710938 C 216.050781 150.878906 215.636719 151.140625 215.390625 151.042969 C 215.144531 150.945312 215.007812 150.441406 215.023438 150.113281 C 215.089844 149.734375 215.222656 149.378906 215.417969 149.050781 C 216.117188 147.433594 216.875 145.835938 217.515625 144.195312 C 218.417969 142.050781 218.824219 139.8125 218.730469 137.488281 C 218.566406 134.917969 217.925781 132.492188 216.28125 130.445312 C 214.726562 128.523438 212.644531 127.871094 210.292969 127.917969 Z M 152.839844 120.140625 C 152.824219 119.996094 152.796875 119.855469 152.761719 119.714844 C 152.574219 119.25 152.375 118.742188 152.1875 118.253906 C 149.71875 111.777344 148.660156 105.101562 149.394531 98.183594 C 150.65625 86.464844 155.949219 76.941406 165.296875 69.820312 C 175.328125 62.183594 186.800781 59.570312 199.183594 61.074219 C 201.929688 61.390625 204.628906 61.925781 207.285156 62.683594 C 209.941406 63.445312 212.515625 64.414062 215.011719 65.597656 C 217.507812 66.78125 219.890625 68.164062 222.160156 69.738281 C 224.429688 71.316406 226.550781 73.066406 228.53125 74.996094 C 236.917969 83.039062 242.066406 92.824219 243.167969 104.460938 C 244.175781 115.09375 241.46875 124.808594 234.917969 133.339844 C 233.585938 135.070312 231.972656 136.601562 230.523438 138.234375 C 230.179688 138.554688 229.976562 138.945312 229.914062 139.410156 C 230.042969 140.429688 230.234375 141.4375 230.484375 142.433594 C 231.414062 141.667969 232.226562 141.089844 232.941406 140.414062 C 246.128906 128.046875 250.234375 113.039062 245.433594 95.726562 C 242.210938 84.117188 235.183594 74.996094 225.355469 68.171875 C 211.378906 58.460938 196.007812 55.285156 179.371094 59.507812 C 169.207031 62.085938 160.644531 67.425781 154.429688 75.972656 C 144.238281 89.949219 143.421875 104.984375 150.121094 120.671875 C 150.28125 120.964844 150.46875 121.242188 150.679688 121.5 C 151.175781 121.226562 151.613281 121.035156 152 120.765625 C 152.28125 120.558594 152.535156 120.34375 152.839844 120.140625 Z M 152.839844 120.140625 " fill-opacity="1" fill-rule="nonzero"/><path fill="currentColor" d="M 133.136719 147.195312 C 133.375 147.070312 133.625 146.984375 133.886719 146.929688 C 142.421875 146.464844 150.113281 143.433594 157.410156 139.210938 C 157.78125 138.996094 158.167969 138.820312 158.574219 138.6875 C 158.695312 138.648438 158.886719 138.816406 159.089844 138.910156 C 158.839844 139.839844 158.027344 140.03125 157.40625 140.386719 C 150.171875 144.539062 142.523438 147.417969 134.113281 147.839844 C 133.78125 147.808594 133.453125 147.738281 133.136719 147.625 Z M 133.136719 147.195312 " fill-opacity="1" fill-rule="nonzero"/><path fill="currentColor" d="M 122.605469 107.46875 C 122.539062 107.222656 122.367188 106.953125 122.425781 106.738281 C 122.582031 106.191406 122.78125 105.660156 123.03125 105.148438 C 124.351562 102.355469 126.25 100.023438 128.339844 97.789062 C 128.742188 97.355469 128.765625 97.375 129.773438 97.449219 C 129.484375 97.886719 129.171875 98.304688 128.839844 98.710938 C 126.902344 100.816406 125.113281 103.007812 123.839844 105.597656 C 123.535156 106.21875 123.257812 106.859375 122.96875 107.488281 Z M 122.605469 107.46875 " fill-opacity="1" fill-rule="nonzero"/><path fill="currentColor" d="M 105.917969 219.863281 C 105.574219 218.292969 105.023438 216.898438 105.09375 215.167969 C 105.457031 215.390625 105.765625 215.472656 105.792969 215.632812 C 106.058594 216.917969 106.257812 218.210938 106.484375 219.507812 C 106.5 219.558594 106.214844 219.671875 105.917969 219.863281 Z M 105.917969 219.863281 " fill-opacity="1" fill-rule="nonzero"/><path fill="currentColor" d="M 101.074219 214.75 C 100.367188 216.230469 99.5625 217.652344 98.65625 219.019531 C 97.984375 217.785156 98.804688 217.105469 99.167969 216.425781 C 99.53125 215.742188 99.597656 214.726562 101.074219 214.75 Z M 101.074219 214.75 " fill-opacity="1" fill-rule="nonzero"/><path fill="currentColor" d="M 103.074219 215.878906 C 103.613281 216.847656 103.542969 218.421875 103.011719 219.105469 C 102.292969 218.183594 102.289062 217.09375 103.074219 215.878906 Z M 103.074219 215.878906 " fill-opacity="1" fill-rule="nonzero"/><path fill="currentColor" d="M 209.195312 83.5 C 208.855469 83.933594 208.597656 84.308594 208.304688 84.644531 C 205.898438 87.371094 203.824219 90.332031 202.082031 93.523438 C 201.050781 95.3125 200.324219 97.21875 199.90625 99.242188 C 199.757812 99.992188 199.707031 100.746094 199.75 101.507812 C 199.863281 102.933594 200.726562 103.699219 202.144531 103.542969 C 203.1875 103.40625 204.195312 103.148438 205.175781 102.769531 C 207.898438 101.710938 210.441406 100.3125 212.796875 98.574219 C 215.234375 96.832031 217.574219 94.945312 219.96875 93.140625 C 220.398438 92.816406 220.902344 92.574219 221.367188 92.269531 C 221.796875 93.128906 221.246094 93.402344 220.867188 93.699219 C 218.847656 95.292969 216.890625 96.960938 214.761719 98.417969 C 212.269531 100.089844 209.699219 101.628906 207.050781 103.035156 C 205.683594 103.714844 204.246094 104.191406 202.742188 104.46875 C 200.3125 104.976562 198.757812 103.644531 198.671875 101.167969 C 198.660156 99.476562 198.988281 97.851562 199.652344 96.296875 C 201.515625 91.570312 204.441406 87.539062 207.8125 83.796875 C 208.109375 83.515625 208.371094 83.078125 209.195312 83.5 Z M 209.195312 83.5 " fill-opacity="1" fill-rule="nonzero"/><path fill="currentColor" d="M 173.808594 83.859375 C 174.476562 83.921875 174.53125 84.535156 174.789062 84.945312 C 176.652344 87.941406 178.410156 91 180.378906 93.917969 C 181.398438 95.359375 182.566406 96.675781 183.871094 97.867188 C 184.679688 98.621094 185.589844 99.210938 186.605469 99.644531 C 188.78125 100.574219 190.242188 99.742188 190.332031 97.386719 C 190.410156 95.71875 190.289062 94.0625 189.96875 92.421875 C 189.320312 89.253906 188.46875 86.125 187.695312 82.980469 C 187.5625 82.574219 187.457031 82.160156 187.378906 81.742188 C 187.359375 81.628906 187.378906 81.523438 187.4375 81.425781 C 187.496094 81.328125 187.578125 81.261719 187.683594 81.226562 C 187.792969 81.1875 187.898438 81.1875 188.003906 81.230469 C 188.109375 81.269531 188.191406 81.339844 188.246094 81.4375 C 188.394531 81.6875 188.496094 81.953125 188.554688 82.234375 C 189.703125 86.265625 190.847656 90.304688 191.304688 94.484375 C 191.457031 95.671875 191.445312 96.855469 191.277344 98.035156 C 190.867188 100.574219 189.105469 101.609375 186.679688 100.761719 C 185.679688 100.421875 184.773438 99.917969 183.953125 99.25 C 182.675781 98.179688 181.503906 96.996094 180.441406 95.707031 C 177.824219 92.472656 175.785156 88.847656 173.886719 85.164062 C 173.664062 84.789062 173.289062 84.359375 173.808594 83.859375 Z M 173.808594 83.859375 " fill-opacity="1" fill-rule="nonzero"/><path fill="currentColor" d="M 160.820312 105.582031 C 161.289062 105.753906 161.753906 105.917969 162.1875 106.105469 C 164.957031 107.242188 167.691406 108.484375 170.515625 109.492188 C 171.921875 109.953125 173.363281 110.199219 174.84375 110.230469 C 176.839844 110.316406 177.53125 109.300781 176.847656 107.386719 C 176.53125 106.476562 176.09375 105.636719 175.527344 104.859375 C 174.210938 103.113281 172.820312 101.417969 171.382812 99.769531 C 170.222656 98.441406 168.949219 97.21875 167.734375 95.9375 C 167.410156 95.59375 167.050781 95.21875 167.734375 94.734375 C 168.015625 94.890625 168.277344 95.074219 168.515625 95.289062 C 170.6875 97.617188 172.890625 99.945312 174.984375 102.34375 C 175.859375 103.417969 176.621094 104.570312 177.269531 105.792969 C 177.648438 106.460938 177.898438 107.171875 178.019531 107.929688 C 178.347656 109.960938 177.378906 111.214844 175.328125 111.238281 C 173.945312 111.261719 172.582031 111.105469 171.242188 110.773438 C 167.765625 109.882812 164.546875 108.308594 161.355469 106.695312 C 161.070312 106.507812 160.8125 106.289062 160.578125 106.039062 Z M 160.820312 105.582031 " fill-opacity="1" fill-rule="nonzero"/><path fill="currentColor" d="M 222.867188 117.9375 C 222.601562 118.734375 222.125 118.640625 221.714844 118.625 C 218.289062 118.546875 214.855469 118.484375 211.425781 118.335938 C 210.421875 118.285156 209.445312 118.085938 208.5 117.746094 C 207.175781 117.28125 206.71875 116.152344 207.289062 114.863281 C 207.601562 114.105469 208.042969 113.441406 208.621094 112.863281 C 209.5625 111.914062 210.609375 111.09375 211.757812 110.402344 C 214.878906 108.660156 218.066406 107.046875 221.25 105.414062 C 221.714844 105.175781 222.234375 104.753906 222.839844 105.222656 C 222.898438 105.828125 222.371094 105.871094 222.027344 106.054688 C 219.078125 107.613281 216.101562 109.117188 213.175781 110.738281 C 211.980469 111.4375 210.851562 112.226562 209.789062 113.113281 C 209.242188 113.585938 208.792969 114.132812 208.433594 114.757812 C 207.746094 115.90625 208.058594 116.621094 209.367188 116.996094 C 210.058594 117.191406 210.761719 117.300781 211.476562 117.324219 C 213.527344 117.394531 215.574219 117.382812 217.625 117.433594 C 219.054688 117.46875 220.480469 117.546875 221.910156 117.636719 C 222.242188 117.703125 222.558594 117.800781 222.867188 117.9375 Z M 222.867188 117.9375 " fill-opacity="1" fill-rule="nonzero"/><path fill="currentColor" d="M 237.214844 119.355469 C 236.316406 118.765625 236.726562 118.226562 236.8125 117.757812 C 237.1875 115.796875 237.628906 113.847656 237.992188 111.878906 C 238.601562 108.511719 238.574219 105.152344 237.910156 101.796875 C 237.824219 101.367188 237.480469 100.863281 238.257812 100.433594 C 238.449219 100.726562 238.605469 101.039062 238.722656 101.367188 C 239.457031 104.511719 239.613281 107.683594 239.1875 110.882812 C 238.929688 113.210938 238.351562 115.472656 237.875 117.753906 C 237.699219 118.304688 237.476562 118.839844 237.214844 119.355469 Z M 237.214844 119.355469 " fill-opacity="1" fill-rule="nonzero"/><path fill="currentColor" d="M 230.523438 130.953125 C 230.523438 130.757812 230.4375 130.53125 230.523438 130.410156 C 232.144531 127.726562 233.78125 125.054688 235.433594 122.390625 C 235.503906 122.273438 235.761719 122.269531 236.179688 122.132812 C 235.796875 124.328125 234.53125 125.859375 233.546875 127.53125 C 231.894531 130.308594 231.507812 130.667969 230.523438 130.953125 Z M 230.523438 130.953125 " fill-opacity="1" fill-rule="nonzero"/><path fill="currentColor" d="M 190.152344 116.46875 C 191.121094 117.015625 192.335938 120.195312 192.199219 121.539062 C 191.945312 121.371094 191.636719 121.277344 191.5625 121.09375 C 190.941406 119.597656 190.21875 118.136719 190.152344 116.46875 Z M 190.152344 116.46875 " fill-opacity="1" fill-rule="nonzero"/><path fill="currentColor" d="M 195.226562 116.652344 C 195.847656 117.722656 195.488281 120.773438 194.644531 121.917969 C 194.511719 121.558594 194.433594 121.183594 194.410156 120.800781 C 194.589844 119.402344 194.523438 117.945312 195.226562 116.652344 Z M 195.226562 116.652344 " fill-opacity="1" fill-rule="nonzero"/><path fill="currentColor" d="M 86.902344 191.414062 C 86.535156 191.476562 86.167969 191.488281 85.796875 191.449219 C 78.742188 189.347656 71.757812 187.105469 66.003906 182.195312 C 62.476562 179.1875 60.679688 177.378906 60.203125 176.074219 C 60.476562 176.0625 60.742188 176.105469 60.996094 176.199219 C 61.296875 176.4375 61.566406 176.703125 61.8125 176.996094 C 64.34375 179.71875 67.179688 182.070312 70.328125 184.050781 C 73.472656 186.03125 76.820312 187.570312 80.371094 188.675781 C 82.144531 189.21875 83.90625 189.808594 85.671875 190.394531 C 86.136719 190.546875 86.71875 190.570312 86.902344 191.414062 Z M 86.902344 191.414062 " fill-opacity="1" fill-rule="nonzero"/><path fill="currentColor" d="M 114.53125 195.140625 C 112.988281 195.667969 99.382812 194.277344 93.675781 193.046875 C 93.332031 192.929688 93.003906 192.773438 92.691406 192.582031 C 93.160156 191.851562 93.730469 192.117188 94.207031 192.164062 C 97 192.527344 99.765625 192.964844 102.554688 193.289062 C 105.953125 193.691406 109.363281 194.003906 112.773438 194.355469 C 113.203125 194.375 113.625 194.433594 114.042969 194.535156 C 114.234375 194.636719 114.355469 194.933594 114.53125 195.140625 Z M 114.53125 195.140625 " fill-opacity="1" fill-rule="nonzero"/><path fill="currentColor" d="M 240.746094 152.332031 C 241.785156 154.242188 242.460938 156.308594 243.425781 158.234375 C 243.527344 158.433594 243.425781 158.734375 243.394531 159.039062 C 242.425781 158.570312 241.472656 156.777344 240.457031 153.65625 C 240.335938 153.242188 239.960938 152.777344 240.746094 152.332031 Z M 240.746094 152.332031 " fill-opacity="1" fill-rule="nonzero"/><path fill="currentColor" d="M 244.878906 152.246094 C 245.03125 152.453125 245.222656 152.597656 245.226562 152.742188 C 245.261719 154.648438 245.273438 156.554688 245.269531 158.464844 C 245.269531 158.664062 245.097656 158.871094 244.9375 159.226562 C 244.6875 158.921875 244.382812 158.730469 244.386719 158.539062 C 244.386719 156.546875 244.476562 154.550781 244.542969 152.558594 C 244.546875 152.496094 244.667969 152.4375 244.878906 152.246094 Z M 244.878906 152.246094 " fill-opacity="1" fill-rule="nonzero"/><path fill="currentColor" d="M 248.554688 152.355469 C 248.980469 154.074219 248.816406 155.730469 248.054688 157.328125 C 247.9375 157.109375 247.703125 156.886719 247.71875 156.679688 C 247.84375 155.222656 247.785156 153.722656 248.554688 152.355469 Z M 248.554688 152.355469 " fill-opacity="1" fill-rule="nonzero"/><path fill="currentColor" d="M 224.773438 190.988281 C 224.222656 191.328125 223.808594 191.621094 223.375 191.851562 C 212.660156 197.230469 201.363281 200.886719 189.425781 202.355469 C 184.605469 202.945312 179.765625 203.324219 174.9375 203.800781 C 174.46875 203.847656 174.003906 203.949219 173.515625 203.949219 C 173.125 203.925781 172.742188 203.871094 172.359375 203.789062 C 172.460938 202.960938 172.96875 203.0625 173.367188 203.027344 C 175.785156 202.816406 178.207031 202.636719 180.625 202.40625 C 190.941406 201.441406 201.121094 199.808594 210.871094 196.105469 C 215.007812 194.53125 219.015625 192.621094 223.085938 190.882812 C 223.53125 190.683594 224.027344 190.128906 224.773438 190.988281 Z M 224.773438 190.988281 " fill-opacity="1" fill-rule="nonzero"/><path fill="currentColor" d="M 227.328125 190.109375 C 227.394531 188.980469 228.039062 188.855469 228.5 188.59375 C 230.703125 187.359375 232.910156 186.128906 235.136719 184.933594 C 243.792969 180.273438 249.933594 173.1875 254.878906 164.902344 C 255.105469 164.515625 255.34375 164.136719 255.769531 163.503906 C 255.933594 164.046875 256.117188 164.316406 256.054688 164.507812 C 255.894531 164.957031 255.691406 165.386719 255.4375 165.792969 C 250.539062 174.125 244.324219 181.164062 235.6875 185.824219 C 233.417969 187.042969 231.171875 188.304688 228.910156 189.527344 C 228.394531 189.753906 227.867188 189.945312 227.328125 190.109375 Z M 227.328125 190.109375 " fill-opacity="1" fill-rule="nonzero"/><path fill="currentColor" d="M 168.269531 161.863281 C 167.015625 164.320312 151.214844 174.027344 144.910156 176.304688 C 144.53125 176.441406 144.125 176.75 143.753906 176.136719 C 143.851562 176.007812 143.925781 175.796875 144.066406 175.738281 C 152.597656 172.152344 160.183594 166.953125 167.761719 161.761719 C 167.835938 161.683594 168.019531 161.796875 168.269531 161.863281 Z M 168.269531 161.863281 " fill-opacity="1" fill-rule="nonzero"/><path fill="currentColor" d="M 212.328125 156.867188 C 211.675781 159.238281 205.152344 165.601562 199.425781 169.523438 C 198.550781 170.128906 197.78125 171.046875 196.238281 171.128906 C 196.445312 170.777344 196.683594 170.445312 196.957031 170.144531 C 197.558594 169.675781 198.195312 169.261719 198.820312 168.824219 C 203.25 165.722656 207.199219 162.097656 210.667969 157.945312 C 210.886719 157.636719 211.136719 157.355469 211.421875 157.097656 C 211.710938 156.96875 212.011719 156.890625 212.328125 156.867188 Z M 212.328125 156.867188 " fill-opacity="1" fill-rule="nonzero"/></svg>