<svg xmlns="http://www.w3.org/2000/svg" xmlns:xlink="http://www.w3.org/1999/xlink" width="400" zoomAndPan="magnify" viewBox="0 0 300 299.999988" height="400" preserveAspectRatio="xMidYMid meet" version="1.0"><defs><clipPath id="d28b9a44ba"><path d="M 30.140625 56.398438 L 269.859375 56.398438 L 269.859375 243.597656 L 30.140625 243.597656 Z M 30.140625 56.398438 " clip-rule="nonzero"/></clipPath></defs><g clip-path="url(#d28b9a44ba)"><path fill="currentColor" d="M 156.789062 216.742188 C 150.039062 219.769531 142.738281 223.277344 134.972656 223.84375 C 120.546875 224.902344 112.925781 215.972656 105.882812 208.285156 C 91.417969 192.507812 78.582031 178.941406 64.890625 162.625 C 62.550781 159.835938 58.550781 154.328125 56.296875 153.832031 C 52.886719 153.082031 48.15625 154.871094 44.066406 154.507812 C 40.214844 154.164062 37.746094 153.015625 35.140625 151.800781 C 35.121094 151.445312 34.714844 151.535156 34.808594 152.140625 C 36.265625 156.964844 35.113281 161.761719 37.453125 164.992188 C 40.539062 169.253906 47.300781 168.882812 54.3125 169.390625 C 71.972656 185.855469 86.898438 205.109375 103.898438 222.832031 C 109.269531 228.429688 115.152344 236.304688 122.410156 238.726562 C 131.640625 241.808594 143.015625 237.679688 150.179688 234.332031 C 163.113281 228.285156 177.0625 221.472656 189.847656 215.390625 C 201.582031 209.804688 215.550781 206.886719 216.292969 191.035156 C 198.8125 199.617188 176.074219 208.09375 156.789062 216.742188 Z M 245.382812 100.726562 C 234.472656 118.484375 220.925781 134.199219 208.691406 151.125 C 204.945312 156.304688 201.410156 165.328125 195.796875 167.359375 C 188.976562 169.828125 178.398438 166.152344 171.335938 164.992188 C 150.097656 161.503906 127.867188 157.425781 109.519531 152.140625 C 109.976562 165.363281 121.457031 166.113281 132.328125 169.390625 C 145.894531 173.480469 158.242188 175.613281 171.667969 178.523438 C 177.429688 179.769531 187.894531 182.777344 193.152344 180.890625 C 195.535156 180.035156 197.664062 175.617188 200.09375 172.773438 C 202.667969 169.761719 205.066406 166.988281 207.039062 164.65625 C 219.210938 150.246094 228.828125 137.136719 239.433594 121.699219 C 241.457031 118.75 245.234375 114.933594 245.714844 112.566406 C 246.164062 110.34375 244.253906 106.910156 247.035156 106.140625 C 249.671875 106.148438 248.808594 109.738281 249.679688 111.550781 C 260.835938 112.867188 268.382812 105.929688 265.878906 93.289062 C 261.167969 97.9375 254.890625 100.984375 245.382812 100.726562 Z M 196.128906 183.257812 C 189.890625 186.996094 177.191406 183.601562 169.683594 181.90625 C 155.382812 178.675781 141.960938 176.035156 129.023438 172.09375 C 122.039062 169.96875 113.382812 168.222656 110.511719 164.992188 C 108.550781 162.789062 107.601562 158.9375 106.542969 155.523438 C 103.054688 144.277344 105.34375 138.519531 110.179688 130.15625 C 115.683594 120.632812 119.226562 114.886719 124.726562 105.800781 C 126.789062 102.390625 132.09375 96.1875 131.667969 92.949219 C 131.183594 89.261719 126.480469 88.210938 123.402344 88.890625 C 107.101562 92.496094 94.71875 98.882812 77.453125 105.800781 C 70.382812 108.632812 63.417969 111.699219 55.632812 115.273438 C 48.675781 118.46875 39.628906 122.460938 36.460938 127.785156 C 34.246094 131.507812 32.394531 141.527344 34.476562 146.050781 C 35.839844 149.003906 40.359375 150.484375 44.394531 150.785156 C 48.421875 151.085938 53.324219 149.324219 57.289062 150.109375 C 60.433594 150.734375 63.640625 155.890625 65.882812 158.566406 C 69.15625 162.476562 71.851562 165.171875 74.148438 167.699219 C 85.988281 180.738281 94.925781 191.195312 106.875 203.890625 C 112.0625 209.398438 118.574219 217.136719 125.714844 219.449219 C 137.273438 223.1875 149.003906 215.964844 156.789062 212.683594 C 173.910156 205.46875 190.449219 198.792969 207.367188 191.035156 C 210.238281 189.71875 215.78125 188 215.960938 184.949219 C 216.082031 182.914062 212.890625 179.339844 211.664062 177.507812 C 209.828125 174.765625 208.554688 173.316406 206.707031 170.742188 C 202.347656 174.480469 200.785156 180.464844 196.128906 183.257812 Z M 138.9375 68.257812 C 136.828125 74.445312 141.554688 80.511719 140.59375 86.183594 C 139.984375 89.777344 135.074219 96.007812 131.996094 100.726562 C 124.933594 111.5625 120.816406 118.277344 114.476562 129.476562 C 112.167969 133.554688 106.824219 141.867188 108.527344 146.390625 C 110.195312 150.824219 123.480469 151.769531 128.03125 152.816406 C 143.34375 156.34375 156.46875 159 171.667969 161.609375 C 177.140625 162.550781 189.382812 166.03125 194.808594 163.976562 C 197.753906 162.863281 199.726562 158.007812 201.085938 155.859375 C 203.097656 152.683594 205.375 149.628906 207.039062 147.40625 C 217.863281 132.929688 227.605469 120.722656 237.449219 105.800781 C 239.308594 102.984375 241.59375 98.164062 243.730469 97.347656 C 245.703125 96.59375 249.261719 97.285156 252.328125 96.667969 C 257.949219 95.542969 266.6875 91.402344 265.878906 83.816406 C 265.164062 77.082031 252.042969 73.265625 245.382812 71.300781 C 236.878906 68.796875 226.039062 67.808594 216.957031 66.566406 C 195.644531 63.660156 175.992188 59.117188 156.789062 60.476562 C 148.359375 61.078125 141.136719 61.820312 138.9375 68.257812 Z M 249.351562 114.597656 C 235.847656 132.570312 223.886719 152.128906 208.691406 168.375 C 213.996094 175.011719 219.824219 178.953125 220.261719 189.007812 C 221.128906 208.914062 202.78125 213.074219 189.515625 219.449219 C 176.105469 225.890625 162.0625 233.5 147.203125 239.742188 C 139.632812 242.921875 128.542969 245.011719 121.089844 242.449219 C 113.992188 240.007812 107.277344 232.152344 102.246094 226.890625 C 96.414062 220.792969 91.339844 214.523438 86.046875 208.625 C 77.914062 199.558594 70.121094 190.875 61.585938 181.566406 C 59.265625 179.035156 55.359375 173.851562 52.992188 173.109375 C 49.417969 171.988281 46.253906 172.730469 43.734375 172.09375 C 34.988281 169.882812 33.058594 165.847656 31.503906 154.847656 C 30.058594 144.632812 28.664062 133.332031 33.484375 125.757812 C 37.21875 119.894531 46.296875 115.269531 53.652344 111.890625 C 69.699219 104.519531 85.125 99.152344 101.585938 92.273438 C 105.050781 90.824219 109.039062 88.96875 113.816406 87.539062 C 121.984375 85.089844 130.914062 82.441406 134.640625 90.242188 C 139.707031 84.046875 135.09375 79.53125 134.640625 74.007812 C 132.660156 49.859375 170.046875 56.804688 188.527344 59.125 C 198.117188 60.328125 207.859375 61.792969 218.605469 63.183594 C 228.480469 64.460938 238.273438 65.164062 248.027344 68.257812 C 255.992188 70.785156 267.300781 75.128906 269.183594 81.449219 C 270.050781 84.351562 269.753906 89.398438 269.847656 93.289062 C 270.203125 108.386719 263.847656 117.210938 249.351562 114.597656 " fill-opacity="1" fill-rule="evenodd"/></g><path fill="currentColor" d="M 172.65625 81.113281 C 172.628906 81.589844 172.601562 82.070312 172.988281 82.125 C 172.394531 85.25 166.84375 85.320312 167.039062 82.464844 C 167.164062 80.566406 170.886719 79.945312 172.65625 81.113281 " fill-opacity="1" fill-rule="evenodd"/><path fill="currentColor" d="M 173.320312 90.917969 C 173.019531 90.324219 172.101562 90.359375 171.996094 89.566406 C 173.882812 82.28125 181.304688 89.65625 173.320312 90.917969 " fill-opacity="1" fill-rule="evenodd"/><path fill="currentColor" d="M 76.460938 137.257812 C 76.195312 137.546875 75.558594 137.457031 75.46875 137.933594 C 72.449219 137.53125 71.761719 134.738281 71.503906 131.507812 C 74.335938 128.949219 76.394531 133.839844 76.460938 137.257812 " fill-opacity="1" fill-rule="evenodd"/><path fill="currentColor" d="M 83.402344 135.566406 C 80.753906 136.71875 79.046875 134.535156 79.4375 131.507812 C 81.53125 129.027344 84.34375 132.941406 83.402344 135.566406 " fill-opacity="1" fill-rule="evenodd"/><path fill="currentColor" d="M 177.949219 142.332031 C 177.925781 139.28125 183.03125 138.058594 183.566406 140.300781 C 184.085938 142.46875 179.648438 145.234375 177.949219 142.332031 " fill-opacity="1" fill-rule="evenodd"/><path fill="currentColor" d="M 183.566406 145.714844 C 184.707031 145.480469 185.566406 145.363281 185.878906 146.730469 C 187.21875 152.535156 177.226562 147.003906 183.566406 145.714844 " fill-opacity="1" fill-rule="evenodd"/><path fill="currentColor" d="M 135.964844 194.757812 C 137.015625 197.296875 135.253906 199.28125 132.988281 199.492188 C 132.980469 199.164062 132.582031 199.230469 132.328125 199.152344 C 131.148438 196.519531 133.636719 193.882812 135.964844 194.757812 " fill-opacity="1" fill-rule="evenodd"/><path fill="currentColor" d="M 136.957031 200.84375 C 136.277344 197.550781 139.773438 194.847656 141.253906 197.800781 C 141.351562 200.382812 139.070312 202.585938 136.957031 200.84375 " fill-opacity="1" fill-rule="evenodd"/></svg>