<svg xmlns="http://www.w3.org/2000/svg" xmlns:xlink="http://www.w3.org/1999/xlink" width="400" zoomAndPan="magnify" viewBox="0 0 300 299.999988" height="400" preserveAspectRatio="xMidYMid meet" version="1.0"><defs><clipPath id="d29ed88c6b"><path d="M 99.898438 30.226562 L 200.074219 30.226562 L 200.074219 269.777344 L 99.898438 269.777344 Z M 99.898438 30.226562 " clip-rule="nonzero"/></clipPath></defs><g clip-path="url(#d29ed88c6b)"><path fill="#a9a0f0" d="M 189.328125 246.707031 C 179.585938 256.394531 163.136719 260.304688 147.703125 260.238281 C 134.601562 260.179688 122.316406 257.476562 114.550781 250.664062 C 90.710938 231.636719 111.796875 200.921875 113.191406 196.859375 C 113.574219 195.90625 113.910156 194.867188 114.210938 193.773438 L 125.527344 196.859375 C 138.847656 217.398438 169.21875 213.453125 177.167969 197.164062 L 185.996094 194.953125 C 186.738281 197.585938 187.675781 200.015625 188.867188 202.085938 C 189.015625 202.558594 206.882812 229.246094 189.328125 246.707031 Z M 117.910156 256.585938 C 135.40625 266.1875 165.4375 265.738281 182.328125 256.324219 C 178.09375 270.085938 122.988281 269.691406 117.910156 256.585938 Z M 112.128906 103.777344 L 127.277344 107.878906 L 127.738281 106.710938 C 133.332031 92.582031 164.945312 89.363281 173.664062 106.214844 L 174.15625 107.164062 L 175.203125 106.941406 C 179.4375 106.050781 184.972656 104.410156 187.941406 103.496094 C 191.429688 110.289062 194.175781 118.808594 193.007812 129.75 C 191.753906 141.132812 186.75 150.027344 185.160156 155.363281 C 184.238281 158.09375 182.082031 177.492188 185.320312 192.222656 L 175.113281 194.773438 C 172.5625 201.140625 165.117188 207.1875 153.234375 208.003906 C 142.148438 208.773438 132.5 202.996094 127.355469 194.441406 L 114.859375 191.03125 C 117.527344 177.8125 115.539062 158.882812 115.601562 160.273438 C 114.945312 148.976562 98.730469 129.828125 112.128906 103.777344 Z M 122.152344 86.957031 C 123.824219 82.382812 124.714844 76.421875 125.121094 70.582031 C 127.75 72.113281 134.300781 73.015625 137.324219 73.316406 C 148.457031 74.375 162.882812 74.269531 173.476562 70.832031 C 174.003906 70.65625 174.527344 70.464844 175.0625 70.203125 C 175.507812 76.324219 176.476562 82.632812 178.304688 87.371094 C 179.855469 90.941406 183.351562 95.3125 186.574219 100.972656 C 183.800781 101.816406 179.320312 103.128906 175.636719 103.964844 C 165.507812 86.601562 133.261719 89.296875 125.636719 104.515625 L 113.511719 101.234375 C 116.871094 95.371094 120.566406 90.835938 122.152344 86.957031 Z M 122.835938 48.054688 C 125.960938 50.097656 131.671875 51.234375 135.335938 51.859375 C 140.222656 52.660156 145.15625 52.925781 150.085938 53.015625 C 157.429688 52.898438 170.808594 52.054688 177.078125 48.214844 C 177.152344 48.867188 177.1875 49.375 176.695312 50.140625 C 173.980469 54.519531 148.085938 56.199219 133.839844 53.945312 C 130.191406 53.339844 122.046875 51.664062 122.835938 48.054688 Z M 174.757812 55.882812 C 167.898438 58.15625 157.597656 58.8125 150.394531 58.871094 C 144.898438 58.910156 139.378906 58.667969 133.964844 57.886719 C 129.996094 57.292969 121.019531 55.632812 122.703125 51.992188 C 125.28125 54.183594 130.277344 55.210938 133.546875 55.746094 C 146.519531 57.75 171.488281 56.875 177.355469 52.140625 C 177.335938 54.398438 176.71875 55.207031 174.757812 55.882812 Z M 174.71875 68.1875 C 174.601562 68.257812 174.46875 68.332031 174.328125 68.398438 C 168.222656 71.179688 146.964844 71.132812 137.574219 70.335938 C 135.433594 70.152344 133.292969 69.917969 131.1875 69.5625 C 130.136719 69.382812 129.097656 69.167969 128.105469 68.890625 C 127.613281 68.75 127.125 68.59375 126.703125 68.398438 C 126.558594 68.332031 126.425781 68.257812 126.3125 68.1875 C 126.425781 68.117188 126.558594 68.042969 126.703125 67.972656 C 127.125 67.78125 127.613281 67.625 128.105469 67.484375 C 129.097656 67.203125 130.136719 66.992188 131.1875 66.8125 C 139.800781 65.351562 153.679688 65.210938 163.453125 66.035156 C 166.132812 66.269531 171.878906 66.859375 174.328125 67.972656 C 174.46875 68.042969 174.601562 68.117188 174.71875 68.1875 Z M 173.429688 65.714844 C 165.597656 63.617188 132.644531 62.285156 125.351562 65.765625 C 125.421875 63.136719 125.410156 60.617188 125.332031 58.375 C 128.054688 59.503906 130.804688 60.128906 133.5625 60.65625 C 144.289062 62.746094 163.808594 62.351562 174.78125 58.460938 C 174.726562 60.789062 174.738281 63.425781 174.84375 66.1875 C 174.363281 65.996094 173.894531 65.847656 173.429688 65.714844 Z M 119.339844 38.085938 C 119.4375 38.105469 126.078125 41.472656 149.972656 41.597656 C 157.691406 41.570312 171.085938 40.945312 180.496094 37.730469 C 180.609375 46.203125 175.214844 47.863281 164.496094 49.308594 C 155.410156 50.5 144.871094 50.5 135.679688 49.289062 C 132.453125 48.855469 128.289062 48.132812 125.253906 46.96875 C 122.835938 46 119.824219 44.238281 119.339844 38.085938 Z M 119.523438 35.523438 C 119.542969 35.535156 119.574219 35.574219 119.628906 35.613281 C 122.320312 31.574219 177.097656 30.757812 180.328125 35.613281 C 180.386719 35.574219 180.414062 35.535156 180.433594 35.523438 C 180.433594 35.785156 180.484375 35.730469 180.328125 35.613281 C 175.796875 40.128906 124.070312 40.042969 119.628906 35.613281 C 119.496094 35.703125 119.507812 35.789062 119.53125 35.601562 C 119.523438 35.5625 119.523438 35.546875 119.523438 35.523438 Z M 193.9375 203.71875 C 185.113281 190.324219 187.199219 174.753906 187.613281 159.558594 C 188.484375 149.289062 205.703125 128.363281 188.851562 99.316406 C 183.160156 89.320312 180.839844 89.484375 178.882812 79.234375 C 177.898438 73.933594 177.195312 65.730469 177.496094 57.125 C 178.15625 56.648438 178.867188 55.707031 179.214844 54.546875 C 179.851562 52.421875 179.097656 51.15625 178.769531 50.097656 C 179.117188 49.0625 179.015625 48.203125 178.816406 47.117188 C 182.921875 43.382812 182.46875 37.523438 182.257812 35.941406 C 182.382812 35.261719 182.132812 34.757812 181.652344 34.277344 C 176.53125 29.152344 114.105469 27.921875 117.402344 36.34375 C 117.347656 38.46875 117.621094 43.570312 121.214844 46.960938 C 120.753906 48.179688 120.777344 49.328125 121.40625 50.472656 C 119.992188 52.15625 119.890625 54.605469 122.375 56.660156 C 122.71875 65.117188 122.242188 77.992188 119.25 85.898438 C 115.699219 94.757812 95.539062 111.285156 107.277344 144.667969 C 111.199219 156.039062 112.023438 154.472656 112.269531 162.300781 C 112.492188 176.113281 114.308594 187.824219 107.617188 200.546875 C 107.367188 201.304688 86.214844 236.089844 115.03125 254.867188 C 115.03125 266.308594 138.3125 269.65625 150.078125 269.777344 C 163.464844 269.777344 184.632812 264.574219 184.402344 255.160156 L 184.402344 255.105469 C 202.566406 243.636719 203.796875 222.324219 193.9375 203.71875 " fill-opacity="1" fill-rule="nonzero"/></g><path fill="#a9a0f0" d="M 129.566406 144.660156 C 129.566406 142.046875 129.566406 139.433594 129.566406 136.820312 C 133.28125 137.234375 135.808594 137.402344 135.804688 141.375 C 135.804688 145.277344 133.300781 145.273438 129.566406 144.660156 Z M 129.566406 128.039062 C 132.882812 128.167969 135.566406 128.515625 135.566406 131.839844 C 135.566406 135.671875 133.066406 135.476562 129.566406 135.085938 C 129.566406 132.738281 129.566406 130.390625 129.566406 128.039062 Z M 140.378906 141.636719 C 140.382812 139.050781 138.535156 137.4375 136.132812 136.484375 C 136.132812 136.441406 136.132812 136.398438 136.132812 136.355469 C 138.816406 135.449219 140.15625 133.847656 140.15625 131.617188 C 140.15625 130.792969 139.984375 130.066406 139.636719 129.445312 C 139.292969 128.820312 138.816406 128.324219 138.203125 127.957031 C 135.65625 126.410156 133.617188 126.90625 123.417969 125.457031 C 123.417969 125.78125 123.417969 126.105469 123.417969 126.433594 C 123.789062 126.582031 124.082031 126.734375 124.296875 126.890625 C 124.503906 127.042969 124.664062 127.222656 124.765625 127.433594 C 124.867188 127.644531 124.933594 127.910156 124.957031 128.230469 C 124.980469 128.550781 124.992188 128.9375 124.992188 129.402344 C 124.992188 133.65625 124.992188 137.910156 124.992188 142.160156 C 124.992188 142.632812 124.980469 143.023438 124.949219 143.328125 C 124.921875 143.636719 124.855469 143.882812 124.753906 144.074219 C 124.648438 144.257812 124.492188 144.398438 124.277344 144.480469 C 124.070312 144.566406 123.78125 144.632812 123.417969 144.679688 C 123.417969 145.003906 123.417969 145.328125 123.417969 145.65625 C 131.140625 146.753906 140.382812 149.023438 140.378906 141.636719 " fill-opacity="1" fill-rule="nonzero"/><path fill="#a9a0f0" d="M 149.320312 138.082031 C 153.0625 138.148438 155.582031 138.082031 155.582031 142.046875 C 155.582031 143.054688 155.410156 143.84375 155.074219 144.429688 C 154.03125 146.234375 151.660156 146.089844 149.320312 145.929688 C 149.320312 143.316406 149.320312 140.699219 149.320312 138.082031 Z M 149.320312 129.308594 C 152.648438 129.117188 155.34375 129.207031 155.34375 132.535156 C 155.34375 136.402344 152.808594 136.410156 149.320312 136.355469 C 149.320312 134.007812 149.320312 131.65625 149.320312 129.308594 Z M 144.679688 145.039062 C 144.648438 145.347656 144.582031 145.601562 144.480469 145.800781 C 144.234375 146.265625 143.660156 146.417969 143.136719 146.535156 C 143.136719 146.859375 143.136719 147.1875 143.136719 147.511719 C 153.328125 147.980469 155.945312 147.894531 158.15625 146.308594 C 158.832031 145.824219 159.335938 145.207031 159.667969 144.464844 C 160.953125 141.597656 160.148438 138.398438 155.90625 137.128906 C 155.90625 137.082031 155.90625 137.039062 155.90625 136.996094 C 161.148438 134.738281 161.714844 128.5625 155.566406 127.675781 C 153.554688 127.394531 151.101562 127.679688 143.136719 127.3125 C 143.136719 127.636719 143.136719 127.964844 143.136719 128.289062 C 145.328125 128.964844 144.722656 128.695312 144.722656 143.863281 C 144.722656 144.335938 144.707031 144.730469 144.679688 145.039062 " fill-opacity="1" fill-rule="nonzero"/><path fill="#a9a0f0" d="M 176.285156 136.648438 C 176.277344 147.019531 170.46875 146.585938 168.851562 143.433594 C 167.527344 140.835938 166.253906 128.667969 172.011719 128.136719 C 175.765625 127.789062 176.28125 132.882812 176.285156 136.648438 Z M 172.144531 126.394531 C 160.453125 127.488281 161.546875 143.035156 166.503906 146.085938 C 167.601562 146.761719 168.953125 147.121094 170.546875 147.148438 C 172.632812 150.195312 173.546875 152.394531 177.226562 151.957031 C 179.304688 151.714844 180.535156 150.675781 182.105469 148.96875 C 181.761719 148.589844 181.421875 148.207031 181.074219 147.824219 C 178.25 150.621094 176.855469 148.445312 175.160156 146.304688 C 179.488281 144.445312 180.988281 140.179688 180.988281 135.453125 C 180.988281 132.117188 180.253906 129.707031 178.777344 128.203125 C 177.300781 126.695312 175.09375 126.117188 172.144531 126.394531 " fill-opacity="1" fill-rule="nonzero"/><path fill="#a9a0f0" d="M 134.289062 158.984375 C 133.976562 159.097656 133.660156 159.210938 133.347656 159.324219 C 133.671875 160.679688 134.644531 161.558594 136.03125 161.726562 C 139.183594 162.109375 139.925781 158.253906 137.121094 156.734375 C 136.113281 156.179688 135.351562 155.816406 134.96875 155.3125 C 133.765625 153.726562 136.246094 152.191406 137.507812 154.53125 C 137.796875 154.378906 138.085938 154.222656 138.375 154.070312 C 137.324219 151.84375 133.625 151.90625 133.628906 154.332031 C 133.628906 156.070312 135.007812 156.703125 136.425781 157.480469 C 138.070312 158.394531 138.066406 159.898438 137.304688 160.527344 C 136.980469 160.792969 134.855469 161.414062 134.289062 158.984375 " fill-opacity="1" fill-rule="nonzero"/><path fill="#a9a0f0" d="M 141.628906 158.460938 C 142.097656 157.414062 142.566406 156.363281 143.03125 155.316406 C 143.5 156.429688 143.96875 157.539062 144.4375 158.644531 C 143.5 158.59375 142.566406 158.53125 141.628906 158.460938 Z M 139.035156 161.832031 C 139.414062 161.867188 139.792969 161.902344 140.171875 161.9375 C 140.554688 161.070312 140.933594 160.203125 141.316406 159.332031 C 142.464844 159.421875 143.613281 159.5 144.761719 159.5625 C 145.144531 160.484375 145.527344 161.402344 145.90625 162.320312 C 146.289062 162.339844 146.667969 162.351562 147.046875 162.367188 C 145.710938 159.265625 144.371094 156.140625 143.03125 152.996094 C 141.699219 155.964844 140.367188 158.90625 139.035156 161.832031 " fill-opacity="1" fill-rule="nonzero"/><path fill="#a9a0f0" d="M 147.707031 153.574219 C 147.707031 159.164062 147.457031 160.589844 148.558594 161.761719 C 149.859375 163.140625 154.554688 163.636719 154.554688 159.097656 C 154.554688 157.265625 154.554688 155.4375 154.554688 153.609375 C 154.199219 153.617188 153.84375 153.625 153.488281 153.628906 C 153.488281 159.363281 154.070312 161.726562 151.128906 161.710938 C 148.03125 161.695312 148.769531 158.914062 148.769531 153.605469 C 148.414062 153.597656 148.058594 153.585938 147.707031 153.574219 " fill-opacity="1" fill-rule="nonzero"/><path fill="#a9a0f0" d="M 158.351562 155.3125 C 159.660156 153.878906 162.097656 153.503906 163.800781 155.191406 C 163.800781 154.738281 163.800781 154.28125 163.800781 153.824219 C 161.78125 152.597656 159.238281 152.964844 157.621094 154.589844 C 153.683594 158.613281 158.730469 165.304688 163.800781 161.171875 C 163.800781 160.710938 163.800781 160.246094 163.800781 159.78125 C 160.902344 163.414062 156.070312 160.445312 157.589844 156.515625 C 157.757812 156.078125 158.015625 155.675781 158.351562 155.3125 " fill-opacity="1" fill-rule="nonzero"/><path fill="#a9a0f0" d="M 170.222656 153.292969 C 170.222656 152.972656 170.222656 152.652344 170.222656 152.332031 C 168.679688 152.554688 167.136719 152.742188 165.585938 152.910156 C 165.585938 155.84375 165.585938 158.785156 165.585938 161.722656 C 167.136719 161.558594 168.679688 161.367188 170.222656 161.148438 C 170.222656 160.820312 170.222656 160.496094 170.222656 160.171875 C 169.027344 160.34375 167.832031 160.496094 166.632812 160.632812 C 166.632812 159.507812 166.632812 158.382812 166.632812 157.253906 C 167.832031 157.117188 169.027344 156.964844 170.222656 156.796875 C 170.222656 156.472656 170.222656 156.144531 170.222656 155.820312 C 169.027344 155.988281 167.832031 156.144531 166.632812 156.28125 C 166.632812 155.4375 166.632812 154.59375 166.632812 153.75 C 167.832031 153.617188 169.027344 153.460938 170.222656 153.292969 " fill-opacity="1" fill-rule="nonzero"/><path fill="#a9a0f0" d="M 137.1875 196.769531 C 133.378906 190.863281 149.445312 185.460938 160.828125 189.4375 C 162.289062 189.972656 163.703125 190.664062 164.878906 191.605469 C 165.484375 192.058594 165.960938 192.621094 166.363281 193.207031 C 171.3125 201.585938 143.410156 204.773438 137.1875 196.769531 Z M 165.652344 190.625 C 164.300781 189.582031 162.773438 188.875 161.214844 188.339844 C 147.851562 183.734375 130.410156 189.777344 135.363281 197.933594 C 135.894531 198.710938 136.511719 199.410156 137.214844 199.941406 C 148.421875 208.898438 173.28125 201.851562 167.453125 192.511719 C 166.9375 191.78125 166.34375 191.125 165.652344 190.625 " fill-opacity="1" fill-rule="nonzero"/><path fill="#a9a0f0" d="M 170.632812 108.488281 C 166.46875 102.605469 158.882812 99.078125 151.636719 99.003906 C 144.210938 99.011719 136.730469 102.191406 132.390625 107.984375 C 135.34375 105.964844 138.4375 104.402344 141.671875 103.347656 C 152.394531 100.042969 162.128906 102.355469 170.632812 108.488281 " fill-opacity="1" fill-rule="nonzero"/><path fill="#a9a0f0" d="M 143.882812 166.84375 C 138.003906 166.558594 130.789062 165.554688 125.714844 164.835938 C 130.417969 166.957031 135.449219 168.277344 140.578125 169.082031 L 143.660156 169.492188 C 155.597656 170.707031 166.351562 168.925781 174.183594 165.722656 C 170.078125 166.148438 154.871094 167.195312 143.882812 166.84375 " fill-opacity="1" fill-rule="nonzero"/><path fill="#a9a0f0" d="M 136.5625 172.945312 C 145.535156 176.507812 158.394531 176.632812 167.609375 173.011719 C 153.5625 174.101562 150.9375 174.136719 136.5625 172.945312 " fill-opacity="1" fill-rule="nonzero"/><path fill="#a9a0f0" d="M 173.453125 120.878906 C 147.597656 120.660156 178.410156 121.769531 127.621094 119.832031 C 141.398438 124.699219 160.433594 124.828125 173.453125 120.878906 " fill-opacity="1" fill-rule="nonzero"/><path fill="#a9a0f0" d="M 178.882812 97.53125 C 177.214844 93.804688 175.820312 90.5625 174.792969 86.566406 C 173.6875 82.574219 173.28125 79.011719 172.882812 75.023438 C 172.308594 76.960938 172.097656 78.992188 172.132812 81.023438 C 172.207031 87.089844 174.808594 93.652344 178.882812 97.53125 " fill-opacity="1" fill-rule="nonzero"/><path fill="#a9a0f0" d="M 127.203125 74.621094 C 126.480469 77.199219 125.296875 82.019531 123.863281 86.097656 C 122.503906 90.203125 120.5 94.753906 119.496094 97.226562 C 124.582031 91.960938 128.046875 82.261719 127.203125 74.621094 " fill-opacity="1" fill-rule="nonzero"/><path fill="#a9a0f0" d="M 116.492188 246.382812 C 112.933594 242.542969 110.675781 237.875 109.65625 232.804688 C 108.535156 227.777344 108.730469 222.355469 109.554688 217.28125 C 110.460938 212.101562 112.1875 207.039062 114.648438 202.214844 C 111.199219 206.40625 108.773438 211.476562 107.414062 216.828125 C 106.050781 222.171875 105.765625 227.871094 106.902344 233.382812 C 108.113281 238.914062 110.652344 244.128906 114.957031 247.949219 C 117.035156 249.847656 119.441406 251.34375 121.980469 252.425781 C 124.558594 253.472656 127.160156 254.167969 129.820312 254.71875 C 127.367188 253.585938 124.859375 252.523438 122.601562 251.195312 C 120.320312 249.875 118.265625 248.246094 116.492188 246.382812 " fill-opacity="1" fill-rule="nonzero"/><path fill="#a9a0f0" d="M 192.351562 224.101562 C 192.289062 220.007812 191.457031 215.964844 190.027344 212.183594 C 189.300781 210.296875 188.382812 208.492188 187.339844 206.773438 C 186.265625 205.074219 185.011719 203.5 183.632812 202.070312 C 188.308594 208.519531 190.359375 216.425781 190.152344 224.089844 C 189.851562 235.722656 183.976562 245.292969 172.179688 250.972656 C 164.289062 254.820312 152.027344 257.34375 137.777344 255.882812 C 153.027344 259.765625 172.359375 257.421875 183.515625 246.539062 C 189.746094 240.457031 192.738281 231.714844 192.351562 224.101562 " fill-opacity="1" fill-rule="nonzero"/><path fill="#a9a0f0" d="M 183.609375 232.742188 C 185.148438 227.785156 185.5 222.613281 184.0625 217.710938 C 183.964844 228.625 180.417969 237.140625 173.847656 244.015625 C 171.609375 246.332031 169.066406 248.371094 166.265625 250.1875 C 169.480469 249.25 172.488281 247.542969 175.089844 245.351562 C 178.898438 242.175781 181.929688 237.824219 183.609375 232.742188 " fill-opacity="1" fill-rule="nonzero"/><path fill="#a9a0f0" d="M 114.527344 234.816406 C 115.476562 237.585938 116.847656 240.21875 118.671875 242.503906 C 120.476562 244.789062 122.703125 246.75 125.257812 248.058594 C 123.300781 245.972656 121.597656 243.789062 120.171875 241.453125 C 119.84375 240.851562 119.507812 240.257812 119.15625 239.679688 L 118.253906 237.851562 C 117.996094 237.21875 117.707031 236.605469 117.4375 235.984375 L 116.753906 234.070312 C 114.925781 228.753906 114.535156 223.320312 115.140625 217.777344 C 113.894531 220.359375 112.71875 229.257812 114.527344 234.816406 " fill-opacity="1" fill-rule="nonzero"/><path fill="#a9a0f0" d="M 146.535156 78.171875 C 151.375 78.375 156.675781 78.082031 161.355469 76.84375 C 157.746094 76.644531 151.375 76.558594 146.628906 76.296875 C 141.605469 76.089844 135.6875 75.570312 131.917969 75.410156 C 136.4375 77.085938 141.671875 77.894531 146.535156 78.171875 " fill-opacity="1" fill-rule="nonzero"/><path fill="#a9a0f0" d="M 176.617188 40.726562 C 166.257812 41.917969 171.582031 42.167969 146.550781 43.765625 C 153.476562 45.421875 167.976562 44.765625 176.617188 40.726562 " fill-opacity="1" fill-rule="nonzero"/><path fill="#a9a0f0" d="M 155.097656 46.898438 C 159.757812 48.726562 166.949219 48.183594 171.164062 45.847656 C 169.765625 45.765625 158.203125 46.308594 155.097656 46.898438 " fill-opacity="1" fill-rule="nonzero"/><path fill="#a9a0f0" d="M 173.003906 94.183594 C 169.710938 83.792969 172.359375 93.140625 169.824219 82.539062 C 169.292969 83.511719 169.0625 84.59375 168.984375 85.683594 C 168.921875 86.773438 169.042969 87.875 169.332031 88.929688 C 169.902344 91.039062 171.21875 93.125 173.003906 94.183594 " fill-opacity="1" fill-rule="nonzero"/><path fill="#a9a0f0" d="M 126.136719 92.8125 C 125.800781 93.769531 125.4375 94.726562 125.148438 95.792969 C 126.078125 95.1875 126.8125 94.378906 127.445312 93.5 C 128.066406 92.617188 128.5625 91.648438 128.925781 90.632812 C 129.792969 88.226562 129.8125 85.878906 129.3125 84.246094 C 128.785156 85.410156 128.234375 86.988281 127.164062 89.996094 L 126.136719 92.8125 " fill-opacity="1" fill-rule="nonzero"/><path fill="#a9a0f0" d="M 150.175781 183.519531 L 153.734375 183.453125 L 157.285156 183.277344 C 162.421875 182.722656 169.410156 182.203125 178.101562 179.023438 C 159.464844 180.933594 150.09375 180.707031 150.1875 180.707031 C 140.242188 180.472656 137.832031 180.503906 122.292969 178.742188 C 134.667969 183.398438 145.550781 183.132812 150.175781 183.519531 " fill-opacity="1" fill-rule="nonzero"/></svg>