<svg xmlns="http://www.w3.org/2000/svg" xmlns:xlink="http://www.w3.org/1999/xlink" width="400" zoomAndPan="magnify" viewBox="0 0 300 299.999988" height="400" preserveAspectRatio="xMidYMid meet" version="1.0"><defs><clipPath id="25b7d9f38d"><path d="M 77.648438 30 L 222.398438 30 L 222.398438 269 L 77.648438 269 Z M 77.648438 30 " clip-rule="nonzero"/></clipPath></defs><g clip-path="url(#25b7d9f38d)"><path fill="#a9a0f0" d="M 215.980469 42.808594 C 211.746094 37.359375 205.136719 35.710938 198.746094 34.113281 L 198.140625 33.960938 C 197.390625 33.777344 196.636719 33.597656 195.882812 33.425781 C 180.914062 30.050781 165.4375 30 150.449219 30 C 136.765625 30 123.28125 30.152344 109.742188 32.511719 C 96.515625 34.816406 87.320312 38.613281 82.3125 50.394531 C 77.816406 60.960938 77.671875 72.890625 78.183594 84.210938 C 78.675781 95.285156 81.628906 105.222656 87.746094 116.433594 C 89.691406 120.324219 90.980469 124.421875 91.617188 128.726562 C 92.25 133.027344 92.199219 137.324219 91.460938 141.609375 C 90.933594 143.8125 90.179688 145.929688 89.195312 147.964844 L 88.859375 148.734375 C 85.929688 155.441406 83.832031 162.394531 82.5625 169.601562 C 81.289062 176.808594 80.882812 184.0625 81.339844 191.363281 C 82.085938 207.488281 83.015625 227.554688 100.96875 237.699219 C 104.792969 239.816406 108.785156 241.542969 112.945312 242.878906 C 112 246.632812 111.546875 250.445312 111.578125 254.316406 C 111.613281 258.1875 112.132812 261.992188 113.144531 265.730469 C 113.234375 266.039062 113.441406 266.226562 113.753906 266.296875 C 124.058594 268.199219 134.449219 269.050781 144.921875 268.851562 C 159.554688 268.753906 174.140625 267.90625 188.683594 266.3125 C 189.046875 266.269531 189.28125 266.070312 189.378906 265.714844 C 190.554688 261.621094 191.03125 257.445312 190.8125 253.195312 C 190.59375 248.941406 189.691406 244.839844 188.101562 240.886719 C 192.492188 239.050781 196.484375 237.0625 199.972656 235.210938 C 203.289062 233.5625 206.363281 231.550781 209.199219 229.167969 C 221.113281 218.53125 221.210938 199.734375 221.289062 184.632812 L 221.296875 183.195312 C 221.527344 177.921875 221.167969 172.6875 220.21875 167.496094 C 219.296875 163.820312 218.074219 160.242188 216.550781 156.773438 C 216.160156 155.820312 215.773438 154.871094 215.402344 153.914062 C 210.257812 140.792969 209.203125 129.519531 212.265625 120.425781 C 213.175781 117.917969 214.246094 115.488281 215.484375 113.128906 C 216.363281 111.363281 217.269531 109.535156 218.035156 107.652344 C 221.414062 99.332031 222.027344 90.074219 222.179688 82.113281 C 222.324219 74.640625 222.066406 67.179688 221.414062 59.730469 C 220.964844 54.523438 219.933594 47.890625 215.980469 42.808594 Z M 214.023438 112.398438 C 212.753906 114.824219 211.652344 117.324219 210.722656 119.898438 C 207.53125 129.367188 208.589844 141.011719 213.882812 154.511719 C 214.257812 155.472656 214.644531 156.429688 215.03125 157.386719 C 216.519531 160.773438 217.714844 164.261719 218.617188 167.851562 C 219.535156 172.921875 219.882812 178.03125 219.660156 183.183594 L 219.652344 184.617188 C 219.574219 199.398438 219.476562 217.792969 208.109375 227.941406 C 205.378906 230.242188 202.410156 232.183594 199.203125 233.757812 C 195.605469 235.667969 191.457031 237.722656 186.898438 239.601562 C 154.582031 231.890625 117.835938 240.578125 114.0625 241.515625 C 109.789062 240.179688 105.695312 238.429688 101.777344 236.265625 C 84.613281 226.574219 83.707031 207.007812 82.976562 191.289062 C 82.527344 184.113281 82.929688 176.980469 84.175781 169.898438 C 85.421875 162.816406 87.484375 155.980469 90.359375 149.390625 L 90.6875 148.625 C 91.730469 146.484375 92.523438 144.25 93.070312 141.929688 C 93.863281 137.453125 93.929688 132.96875 93.265625 128.472656 C 92.601562 123.976562 91.242188 119.703125 89.1875 115.648438 C 83.117188 104.519531 80.316406 95.09375 79.820312 84.136719 C 79.320312 73.007812 79.457031 61.300781 83.820312 51.035156 C 88.539062 39.9375 97.34375 36.335938 110.027344 34.128906 C 123.433594 31.792969 136.796875 31.65625 150.449219 31.640625 C 165.347656 31.640625 180.730469 31.691406 195.523438 35.03125 C 196.261719 35.195312 197.007812 35.375 197.746094 35.5625 L 198.351562 35.710938 C 204.46875 37.234375 210.800781 38.8125 214.6875 43.8125 C 218.375 48.558594 219.351562 54.890625 219.789062 59.871094 C 220.4375 67.261719 220.691406 74.667969 220.546875 82.082031 C 220.398438 89.890625 219.804688 98.964844 216.523438 107.03125 C 215.777344 108.863281 214.886719 110.660156 214.023438 112.398438 Z M 114.589844 264.796875 C 114.425781 264.148438 114.117188 262.839844 113.828125 261.089844 C 117.476562 260.511719 132.496094 258.203125 141.65625 257.878906 C 141.933594 257.378906 142.246094 256.90625 142.597656 256.460938 C 142.953125 256.011719 143.339844 255.59375 143.757812 255.210938 C 144.175781 254.824219 144.625 254.472656 145.101562 254.160156 C 145.574219 253.847656 146.074219 253.570312 146.59375 253.335938 C 147.113281 253.101562 147.644531 252.910156 148.195312 252.761719 C 148.746094 252.613281 149.304688 252.511719 149.871094 252.453125 C 150.4375 252.390625 151.007812 252.378906 151.574219 252.410156 C 152.144531 252.441406 152.707031 252.519531 153.261719 252.640625 C 161.3125 254.320312 161.5 258.441406 161.5 258.441406 C 161.5 258.441406 179.929688 257.726562 188.84375 260.164062 C 188.636719 261.710938 188.339844 263.234375 187.945312 264.742188 C 182.550781 265.347656 139.09375 269.953125 114.589844 264.796875 Z M 188.859375 259.992188 C 186.859375 259.097656 184.773438 258.484375 182.609375 258.152344 C 179.65625 257.632812 176.6875 257.269531 173.699219 257.070312 C 170.953125 256.808594 168.171875 256.832031 165.4375 256.453125 C 165.125 256.425781 164.828125 256.339844 164.550781 256.199219 C 163.960938 255.871094 163.632812 254.808594 163.238281 254.257812 C 162.71875 253.554688 162.132812 252.917969 161.472656 252.34375 C 160.113281 251.21875 158.628906 250.289062 157.019531 249.554688 C 156.308594 249.25 155.574219 249.007812 154.820312 248.828125 C 154.066406 248.652344 153.304688 248.535156 152.53125 248.488281 C 151.757812 248.4375 150.988281 248.457031 150.21875 248.539062 C 149.449219 248.621094 148.691406 248.769531 147.945312 248.980469 C 147.199219 249.191406 146.476562 249.464844 145.78125 249.800781 C 145.082031 250.136719 144.417969 250.527344 143.785156 250.976562 C 143.15625 251.425781 142.566406 251.921875 142.019531 252.472656 C 141.472656 253.023438 140.976562 253.613281 140.53125 254.246094 C 140.3125 254.691406 140.007812 255.0625 139.617188 255.367188 C 139.257812 255.5625 138.875 255.675781 138.46875 255.707031 C 135.1875 256.1875 131.910156 256.664062 128.636719 257.148438 C 127.242188 257.355469 125.871094 257.710938 124.457031 257.9375 C 122.871094 258.195312 121.296875 258.519531 119.738281 258.910156 C 118.453125 259.230469 117.179688 259.597656 115.921875 260.011719 C 115.25 260.230469 114.480469 260.546875 113.796875 260.855469 C 112.769531 254.871094 113.03125 248.945312 114.589844 243.078125 C 118.972656 242 154.878906 233.675781 186.449219 241.171875 C 187.675781 244.148438 188.496094 247.230469 188.90625 250.421875 C 189.3125 253.613281 189.296875 256.804688 188.859375 259.992188 Z M 188.859375 259.992188 " fill-opacity="1" fill-rule="nonzero"/></g><path fill="#a9a0f0" d="M 200.429688 210.410156 C 199.867188 212.769531 198.882812 214.933594 197.476562 216.90625 C 196.070312 218.882812 194.34375 220.519531 192.296875 221.820312 C 186.1875 225.304688 178.59375 223.699219 171.636719 222.65625 C 162.851562 221.339844 154.039062 221.09375 145.195312 221.914062 C 134.683594 222.898438 124.171875 225.390625 113.679688 224.195312 C 107.636719 223.507812 100.773438 221.527344 98.71875 215.175781 C 97.066406 210.050781 97.1875 203.683594 97.304688 198.328125 C 94.636719 206.628906 92.628906 219.347656 101.53125 224.597656 C 109.824219 229.492188 120.253906 226.917969 129.867188 226.347656 C 133.632812 226.128906 137.40625 226.242188 141.171875 226.347656 L 181.296875 227.554688 C 187.734375 227.75 193.195312 227.183594 198.308594 223.027344 C 199.953125 221.8125 201.382812 220.382812 202.59375 218.734375 C 206.910156 212.222656 205.15625 200.183594 201.785156 193.65625 C 201.820312 199.441406 202 204.8125 200.429688 210.410156 Z M 200.429688 210.410156 " fill-opacity="1" fill-rule="nonzero"/><path fill="#a9a0f0" d="M 122.546875 49.328125 C 127.136719 49.023438 131.730469 48.96875 136.324219 49.164062 C 140.648438 49.257812 144.960938 49.066406 149.257812 48.597656 C 161.121094 47.667969 173.136719 46.390625 184.976562 48.277344 C 185.847656 48.4375 186.703125 48.65625 187.539062 48.941406 C 188.375 49.226562 189.1875 49.570312 189.976562 49.976562 C 190.761719 50.382812 191.511719 50.84375 192.230469 51.359375 C 192.949219 51.875 193.625 52.441406 194.257812 53.058594 C 194.894531 53.675781 195.476562 54.335938 196.015625 55.042969 C 196.550781 55.746094 197.03125 56.484375 197.457031 57.261719 C 197.882812 58.035156 198.25 58.835938 198.554688 59.667969 C 198.863281 60.496094 199.105469 61.34375 199.289062 62.210938 C 200.859375 69.679688 202.324219 77.171875 203.6875 84.683594 C 204.457031 77.925781 204.398438 71.171875 203.5 64.425781 C 202.722656 58.753906 200.191406 53.078125 195.535156 49.742188 C 191.078125 46.542969 185.332031 45.878906 179.859375 45.476562 C 157.667969 43.640625 135.519531 44.097656 113.421875 46.847656 C 107.667969 47.605469 102.675781 49.101562 99.179688 54.089844 C 96.9375 57.574219 95.449219 61.355469 94.710938 65.433594 C 93.460938 71.152344 92.90625 76.9375 93.042969 82.789062 C 93.667969 80.054688 94.296875 77.320312 94.925781 74.585938 C 96.546875 67.523438 98.449219 59.96875 103.914062 55.207031 C 108.914062 50.847656 115.921875 49.726562 122.546875 49.328125 Z M 122.546875 49.328125 " fill-opacity="1" fill-rule="nonzero"/><path fill="#a9a0f0" d="M 202.183594 96.976562 C 201.429688 99.90625 200.871094 102.882812 200.292969 105.851562 C 199.882812 108.902344 199.210938 111.890625 198.277344 114.824219 C 198.097656 115.296875 197.890625 115.761719 197.75 116.246094 C 197.554688 117.015625 197.441406 117.800781 197.40625 118.59375 C 197.390625 118.757812 197.425781 119 197.597656 119.019531 C 197.65625 119.019531 197.707031 119.003906 197.753906 118.972656 C 197.773438 118.960938 197.792969 118.949219 197.8125 118.933594 C 199.210938 117.648438 200.140625 116.082031 200.601562 114.234375 C 201.226562 112.359375 201.742188 110.453125 202.144531 108.515625 C 202.40625 107.355469 206.40625 93.621094 203.890625 93.03125 C 203.035156 92.828125 202.304688 96.507812 202.183594 96.976562 Z M 202.183594 96.976562 " fill-opacity="1" fill-rule="nonzero"/><path fill="#a9a0f0" d="M 118.453125 96.328125 C 116.820312 96.625 115.171875 96.804688 113.511719 96.871094 C 111.632812 96.9375 109.769531 97.160156 107.925781 97.539062 C 107.722656 97.585938 107.558594 97.695312 107.441406 97.867188 C 107.320312 98.039062 107.273438 98.226562 107.296875 98.433594 C 107.953125 103.847656 108.746094 109.316406 109.515625 114.601562 C 110.945312 124.386719 112.425781 134.503906 113 144.621094 C 113.328125 150.527344 115.078125 180.394531 116.316406 188.695312 C 116.34375 188.878906 116.425781 189.035156 116.558594 189.167969 C 116.695312 189.296875 116.851562 189.371094 117.039062 189.390625 L 118.761719 189.582031 C 132.550781 191.355469 146.394531 192.371094 160.296875 192.628906 C 168.171875 192.675781 176.003906 192.09375 183.789062 190.886719 C 183.972656 190.859375 184.125 190.777344 184.253906 190.644531 C 184.378906 190.511719 184.453125 190.355469 184.476562 190.171875 C 186.148438 175.554688 187.933594 160.152344 189.714844 144.730469 C 191.5 129.308594 193.289062 113.867188 194.964844 99.226562 C 194.988281 99.03125 194.945312 98.851562 194.839844 98.6875 C 194.734375 98.523438 194.585938 98.410156 194.398438 98.351562 C 192.761719 97.953125 191.105469 97.859375 189.433594 98.074219 C 187.144531 98.222656 185.167969 98.351562 183.984375 96.941406 C 183.226562 95.75 182.921875 94.453125 183.078125 93.046875 C 183.097656 89.847656 183.4375 86.679688 184.09375 83.546875 C 184.132812 83.371094 184.113281 83.195312 184.035156 83.03125 C 183.957031 82.867188 183.839844 82.738281 183.675781 82.652344 C 181.195312 81.371094 178.648438 80.246094 176.027344 79.273438 C 173.410156 78.304688 170.742188 77.492188 168.027344 76.84375 C 165.3125 76.199219 162.566406 75.714844 159.792969 75.402344 C 157.015625 75.085938 154.234375 74.941406 151.441406 74.964844 C 148.648438 74.984375 145.867188 75.179688 143.097656 75.539062 C 140.328125 75.898438 137.59375 76.425781 134.886719 77.117188 C 132.179688 77.808594 129.527344 78.664062 126.925781 79.679688 C 124.324219 80.691406 121.792969 81.859375 119.332031 83.183594 C 119.179688 83.269531 119.0625 83.390625 118.988281 83.554688 C 118.914062 83.714844 118.890625 83.882812 118.925781 84.058594 C 119.539062 87.175781 120.035156 90.339844 120.402344 93.453125 C 120.582031 94.171875 120.511719 94.867188 120.191406 95.535156 C 119.707031 96 119.125 96.265625 118.453125 96.328125 Z M 182.371094 83.820312 C 181.769531 86.867188 181.460938 89.9375 181.441406 93.042969 C 181.355469 93.917969 181.421875 94.78125 181.644531 95.632812 C 181.863281 96.488281 182.226562 97.273438 182.730469 97.996094 C 184.445312 100.046875 187.035156 99.882812 189.546875 99.71875 C 190.785156 99.585938 192.023438 99.601562 193.257812 99.765625 C 191.605469 114.191406 189.847656 129.371094 188.09375 144.550781 C 186.335938 159.726562 184.574219 174.9375 182.921875 189.371094 C 161.683594 192.679688 139.960938 190.28125 118.941406 187.960938 L 117.851562 187.839844 C 116.605469 178.589844 114.839844 148.066406 114.640625 144.539062 C 114.054688 134.34375 112.574219 124.195312 111.140625 114.371094 C 110.40625 109.335938 109.648438 104.144531 109.015625 98.988281 C 110.539062 98.734375 112.070312 98.578125 113.609375 98.511719 C 115.34375 98.441406 117.066406 98.253906 118.777344 97.941406 C 119.871094 97.820312 120.78125 97.347656 121.503906 96.515625 C 122.113281 95.503906 122.289062 94.421875 122.027344 93.269531 C 121.679688 90.316406 121.21875 87.308594 120.648438 84.339844 C 123.015625 83.097656 125.449219 81.996094 127.949219 81.042969 C 130.445312 80.085938 132.992188 79.285156 135.585938 78.632812 C 138.179688 77.980469 140.804688 77.484375 143.457031 77.144531 C 146.109375 76.808594 148.773438 76.625 151.449219 76.601562 C 154.121094 76.582031 156.789062 76.71875 159.445312 77.011719 C 162.105469 77.308594 164.738281 77.757812 167.339844 78.367188 C 169.945312 78.972656 172.503906 79.734375 175.019531 80.648438 C 177.53125 81.558594 179.984375 82.617188 182.371094 83.820312 Z M 182.371094 83.820312 " fill-opacity="1" fill-rule="nonzero"/><path fill="#a9a0f0" d="M 127.402344 101.195312 C 124.144531 102.308594 120.792969 102.933594 117.351562 103.070312 C 117.140625 103.089844 116.9375 103.144531 116.75 103.242188 C 116.5625 103.339844 116.398438 103.472656 116.265625 103.636719 C 116.128906 103.796875 116.03125 103.980469 115.96875 104.183594 C 115.90625 104.386719 115.886719 104.59375 115.910156 104.808594 L 115.9375 105.074219 C 117.207031 117.15625 123.578125 177.667969 124.359375 182.261719 C 124.421875 182.628906 124.59375 182.9375 124.875 183.183594 C 125.152344 183.429688 125.480469 183.558594 125.855469 183.574219 C 126.160156 183.585938 157.894531 184.683594 171.796875 184.683594 C 173.421875 184.683594 174.8125 184.667969 175.886719 184.636719 C 176.074219 184.628906 176.257812 184.589844 176.433594 184.519531 C 176.609375 184.445312 176.765625 184.34375 176.902344 184.214844 C 177.042969 184.085938 177.15625 183.9375 177.242188 183.769531 C 177.328125 183.601562 177.382812 183.421875 177.402344 183.234375 L 185.972656 105.640625 C 185.996094 105.433594 185.980469 105.234375 185.925781 105.035156 C 185.867188 104.835938 185.777344 104.65625 185.648438 104.492188 C 185.519531 104.328125 185.367188 104.199219 185.1875 104.097656 C 185.007812 103.996094 184.816406 103.929688 184.609375 103.90625 C 181.457031 103.542969 178.460938 102.65625 175.621094 101.246094 C 175.574219 97.1875 175.945312 93.171875 176.730469 89.191406 C 176.78125 88.878906 176.742188 88.582031 176.617188 88.292969 C 176.488281 88.003906 176.289062 87.777344 176.023438 87.605469 C 175.644531 87.363281 166.574219 81.660156 150.945312 81.960938 C 135.363281 82.261719 126.820312 87.867188 126.464844 88.105469 C 126.207031 88.277344 126.011719 88.511719 125.890625 88.800781 C 125.769531 89.089844 125.734375 89.390625 125.792969 89.699219 C 126.5625 93.5 127.101562 97.332031 127.402344 101.195312 Z M 175.613281 183 C 175.714844 182.933594 175.792969 182.847656 175.855469 182.746094 L 175.828125 182.996094 Z M 173.453125 89.769531 C 173.277344 90.933594 172.980469 92.988281 172.75 95.085938 C 172.015625 101.859375 172.640625 102.9375 173.46875 103.570312 C 175.757812 105.332031 180.222656 106.335938 182.671875 106.78125 L 174.414062 181.515625 C 163.683594 181.679688 133.308594 180.675781 127.277344 180.46875 C 125.972656 170.414062 120.027344 113.921875 119.199219 106.058594 C 120.285156 105.941406 121.824219 105.753906 123.351562 105.496094 C 128.242188 104.675781 130.242188 103.667969 130.496094 101.925781 C 130.757812 100.066406 129.675781 93.507812 129.085938 90.214844 C 132.488281 88.507812 136.039062 87.226562 139.746094 86.363281 C 143.449219 85.5 147.207031 85.082031 151.007812 85.109375 C 154.886719 84.945312 158.722656 85.257812 162.519531 86.046875 C 166.320312 86.835938 169.964844 88.078125 173.453125 89.769531 Z M 117.792969 104.679688 C 117.746094 104.71875 117.703125 104.757812 117.667969 104.804688 C 117.628906 104.851562 117.597656 104.902344 117.570312 104.953125 L 117.570312 104.902344 L 117.480469 104.707031 Z M 126.167969 181.988281 L 125.972656 181.988281 C 125.960938 181.933594 125.953125 181.875 125.941406 181.808594 C 126.003906 181.878906 126.082031 181.941406 126.167969 181.988281 Z M 184.304688 105.734375 C 184.242188 105.613281 184.152344 105.511719 184.039062 105.429688 C 184.175781 105.445312 184.277344 105.457031 184.332031 105.460938 Z M 175.09375 88.988281 C 175.078125 88.953125 175.058594 88.917969 175.039062 88.882812 C 175.058594 88.898438 175.082031 88.910156 175.105469 88.921875 Z M 127.433594 89.425781 C 127.417969 89.464844 127.402344 89.5 127.390625 89.535156 C 127.390625 89.5 127.378906 89.480469 127.375 89.46875 Z M 127.433594 89.425781 " fill-opacity="1" fill-rule="nonzero"/><path fill="#a9a0f0" d="M 170.292969 155.796875 C 169.605469 155.808594 168.910156 155.820312 168.222656 155.8125 C 168.222656 155.320312 168.222656 154.8125 168.222656 154.296875 L 169.863281 154.296875 L 169.863281 152.089844 L 168.214844 152.089844 C 168.214844 151.457031 168.214844 150.820312 168.214844 150.1875 C 169.105469 150.121094 170.082031 150.070312 170.09375 150.070312 L 171.195312 150.007812 L 171.074219 147.804688 L 169.976562 147.867188 C 169.894531 147.867188 167.964844 147.976562 166.996094 148.082031 L 166.011719 148.183594 L 166.011719 149.167969 C 166 151.769531 166.011719 154.539062 166.023438 156.902344 L 166.023438 157.980469 L 167.097656 158.003906 C 167.605469 158.011719 168.117188 158.015625 168.628906 158.015625 C 169.199219 158.015625 169.769531 158.011719 170.335938 158 L 171.441406 157.972656 L 171.390625 155.769531 Z M 170.292969 155.796875 " fill-opacity="1" fill-rule="nonzero"/><path fill="#a9a0f0" d="M 161.53125 155.957031 C 161.28125 156.066406 161.019531 156.105469 160.75 156.070312 C 160.476562 156.039062 160.234375 155.9375 160.015625 155.773438 C 159.734375 155.527344 159.523438 155.230469 159.386719 154.882812 C 158.902344 153.710938 158.902344 152.539062 159.386719 151.367188 C 159.570312 150.855469 159.871094 150.425781 160.289062 150.078125 C 160.617188 149.804688 160.992188 149.699219 161.414062 149.765625 C 161.816406 149.917969 162.070312 150.199219 162.183594 150.613281 L 164.386719 150.539062 C 164.355469 150.199219 164.269531 149.867188 164.136719 149.550781 C 164.003906 149.234375 163.824219 148.945312 163.601562 148.683594 C 163.378906 148.421875 163.121094 148.199219 162.828125 148.015625 C 162.539062 147.832031 162.226562 147.699219 161.894531 147.613281 C 161.371094 147.511719 160.855469 147.523438 160.339844 147.648438 C 159.824219 147.773438 159.355469 148 158.941406 148.332031 C 158.207031 148.921875 157.675781 149.65625 157.34375 150.535156 C 156.996094 151.371094 156.820312 152.246094 156.824219 153.152344 C 156.828125 154.0625 157.007812 154.933594 157.363281 155.769531 C 157.644531 156.445312 158.0625 157.019531 158.625 157.492188 C 159.300781 158.027344 160.074219 158.292969 160.9375 158.289062 C 161.46875 158.289062 161.980469 158.179688 162.464844 157.957031 C 163.089844 157.65625 163.589844 157.214844 163.96875 156.632812 C 164.347656 156.050781 164.546875 155.414062 164.570312 154.71875 L 162.363281 154.675781 C 162.351562 154.949219 162.269531 155.199219 162.121094 155.429688 C 161.972656 155.660156 161.777344 155.835938 161.53125 155.957031 Z M 161.53125 155.957031 " fill-opacity="1" fill-rule="nonzero"/><path fill="#a9a0f0" d="M 135.558594 145.59375 C 136.085938 145.457031 136.574219 145.234375 137.027344 144.933594 C 137.480469 144.632812 137.871094 144.261719 138.199219 143.828125 C 138.527344 143.394531 138.773438 142.917969 138.9375 142.398438 C 139.105469 141.882812 139.183594 141.351562 139.167969 140.808594 L 136.90625 140.785156 C 136.921875 141.074219 136.890625 141.355469 136.808594 141.632812 C 136.730469 141.910156 136.605469 142.167969 136.441406 142.402344 C 136.273438 142.640625 136.070312 142.84375 135.835938 143.011719 C 135.601562 143.179688 135.34375 143.300781 135.066406 143.382812 C 134.835938 143.425781 134.601562 143.425781 134.367188 143.382812 C 134.132812 143.339844 133.917969 143.257812 133.710938 143.136719 C 133.507812 143.011719 133.332031 142.859375 133.183594 142.675781 C 133.039062 142.488281 132.925781 142.285156 132.851562 142.058594 C 132 140.304688 132.164062 137.015625 133.570312 135.824219 C 134.023438 135.429688 134.546875 135.289062 135.140625 135.402344 C 135.53125 135.496094 135.871094 135.6875 136.148438 135.980469 C 136.429688 136.273438 136.609375 136.617188 136.683594 137.015625 L 138.902344 136.554688 C 138.820312 136.140625 138.683594 135.75 138.488281 135.382812 C 138.292969 135.011719 138.046875 134.675781 137.753906 134.375 C 137.460938 134.078125 137.132812 133.828125 136.765625 133.625 C 136.398438 133.421875 136.011719 133.273438 135.601562 133.183594 C 134.980469 133.0625 134.363281 133.078125 133.75 133.238281 C 133.136719 133.398438 132.589844 133.6875 132.105469 134.097656 C 129.855469 136.007812 129.566406 140.476562 130.820312 143.046875 C 130.976562 143.429688 131.183594 143.78125 131.445312 144.101562 C 131.703125 144.421875 132.003906 144.699219 132.34375 144.9375 C 132.683594 145.171875 133.050781 145.351562 133.441406 145.480469 C 133.832031 145.609375 134.238281 145.679688 134.648438 145.695312 C 134.957031 145.691406 135.261719 145.660156 135.558594 145.59375 Z M 135.558594 145.59375 " fill-opacity="1" fill-rule="nonzero"/><path fill="#a9a0f0" d="M 145.304688 137.367188 C 144.292969 137.359375 143.285156 137.433594 142.285156 137.589844 L 142.121094 133.277344 L 139.859375 133.367188 L 140.316406 145.039062 L 142.578125 144.949219 L 142.378906 139.863281 C 143.316406 139.703125 144.261719 139.625 145.210938 139.628906 C 145.121094 141.445312 145.023438 143.265625 144.90625 145.070312 L 147.164062 145.214844 C 147.417969 141.234375 147.613281 137.195312 147.742188 133.210938 L 145.480469 133.136719 C 145.429688 134.539062 145.367188 135.953125 145.304688 137.367188 Z M 145.304688 137.367188 " fill-opacity="1" fill-rule="nonzero"/><path fill="#a9a0f0" d="M 149.714844 133.738281 L 151.976562 133.703125 L 152.171875 145.1875 L 149.910156 145.226562 Z M 149.714844 133.738281 " fill-opacity="1" fill-rule="nonzero"/><path fill="#a9a0f0" d="M 169.332031 133.738281 L 171.59375 133.703125 L 171.785156 145.1875 L 169.523438 145.226562 Z M 169.332031 133.738281 " fill-opacity="1" fill-rule="nonzero"/><path fill="#a9a0f0" d="M 154.574219 133.390625 C 154.574219 133.453125 154.289062 139.484375 154.285156 143.351562 L 154.285156 144.605469 L 155.53125 144.476562 C 157.351562 144.292969 159.195312 144.199219 161.019531 144.199219 L 161.019531 141.933594 C 159.542969 141.933594 158.046875 141.996094 156.5625 142.113281 C 156.613281 138.367188 156.835938 133.550781 156.839844 133.5 Z M 154.574219 133.390625 " fill-opacity="1" fill-rule="nonzero"/><path fill="#a9a0f0" d="M 162.328125 134.023438 C 162.3125 134.261719 162 139.910156 162.058594 143.492188 L 162.074219 144.476562 L 163.625 144.664062 C 164.722656 144.828125 165.820312 144.914062 166.929688 144.925781 C 167.335938 144.925781 167.792969 144.914062 168.332031 144.890625 L 168.226562 142.628906 C 166.917969 142.710938 165.613281 142.65625 164.316406 142.464844 C 164.316406 138.972656 164.585938 134.199219 164.585938 134.144531 Z M 162.328125 134.023438 " fill-opacity="1" fill-rule="nonzero"/><path fill="#a9a0f0" d="M 138.46875 153.378906 C 137.898438 152.765625 137.21875 152.316406 136.429688 152.027344 C 136.265625 151.957031 136.113281 151.886719 135.953125 151.804688 C 134.933594 151.3125 134.714844 150.941406 134.671875 150.761719 C 134.660156 150.648438 134.6875 150.546875 134.753906 150.453125 C 134.917969 150.214844 135.140625 150.066406 135.421875 150.003906 C 135.714844 149.949219 136 149.976562 136.28125 150.082031 C 136.558594 150.183594 136.792969 150.355469 136.976562 150.585938 L 138.714844 149.398438 C 138.285156 148.816406 137.734375 148.390625 137.058594 148.128906 C 136.386719 147.867188 135.691406 147.804688 134.980469 147.949219 C 134.121094 148.128906 133.453125 148.589844 132.976562 149.324219 C 132.589844 149.914062 132.472656 150.550781 132.621094 151.238281 C 132.828125 151.800781 133.140625 152.300781 133.5625 152.730469 C 133.984375 153.160156 134.476562 153.480469 135.035156 153.699219 C 135.214844 153.785156 135.390625 153.863281 135.566406 153.945312 C 136.058594 154.113281 136.492188 154.378906 136.867188 154.738281 C 136.988281 154.855469 137.0625 154.996094 137.085938 155.164062 C 137.109375 155.328125 137.082031 155.484375 136.996094 155.632812 C 136.828125 155.902344 136.597656 156.101562 136.308594 156.238281 C 136.023438 156.371094 135.71875 156.414062 135.40625 156.371094 C 134.855469 156.316406 134.429688 156.058594 134.125 155.597656 L 132.285156 156.617188 C 132.589844 157.132812 132.996094 157.554688 133.503906 157.878906 C 134.007812 158.203125 134.5625 158.398438 135.160156 158.460938 C 135.308594 158.476562 135.460938 158.488281 135.613281 158.488281 C 136.285156 158.496094 136.90625 158.335938 137.488281 158 C 138.070312 157.667969 138.523438 157.207031 138.851562 156.625 C 139.140625 156.097656 139.25 155.535156 139.179688 154.941406 C 139.109375 154.34375 138.871094 153.824219 138.46875 153.378906 Z M 138.46875 153.378906 " fill-opacity="1" fill-rule="nonzero"/><path fill="#a9a0f0" d="M 141.933594 147.785156 L 139.003906 157.929688 L 141.027344 158.515625 L 141.636719 156.402344 C 142.613281 156.230469 143.597656 156.144531 144.589844 156.132812 L 145.351562 158.367188 L 147.34375 157.683594 L 143.9375 147.734375 Z M 142.28125 154.183594 L 143.03125 151.578125 L 143.875 154.046875 C 143.34375 154.070312 142.808594 154.117188 142.285156 154.183594 Z M 142.28125 154.183594 " fill-opacity="1" fill-rule="nonzero"/><path fill="#a9a0f0" d="M 155.03125 147.609375 L 152.871094 148.027344 L 153.085938 149.070312 C 153.34375 150.328125 153.417969 151.59375 153.304688 152.871094 L 153.304688 152.941406 C 153.316406 153.890625 153.089844 154.78125 152.621094 155.605469 C 152.386719 155.882812 152.089844 156.042969 151.730469 156.082031 C 151.476562 156.140625 151.246094 156.09375 151.035156 155.945312 C 150.460938 155.488281 150.328125 154 150.25 153.109375 L 150.25 153.046875 C 150.167969 151.636719 150.199219 150.226562 150.34375 148.820312 L 150.425781 147.757812 L 148.222656 147.59375 L 148.144531 148.65625 C 147.988281 150.175781 147.957031 151.695312 148.050781 153.21875 L 148.050781 153.277344 C 148.015625 154.074219 148.136719 154.84375 148.410156 155.589844 C 148.683594 156.335938 149.089844 157 149.632812 157.582031 C 150.195312 158.019531 150.832031 158.230469 151.542969 158.214844 C 151.6875 158.214844 151.828125 158.207031 151.972656 158.191406 C 152.933594 158.089844 153.722656 157.667969 154.34375 156.925781 C 155.121094 155.773438 155.503906 154.503906 155.492188 153.117188 L 155.492188 153.042969 C 155.625 151.566406 155.539062 150.097656 155.238281 148.644531 Z M 155.03125 147.609375 " fill-opacity="1" fill-rule="nonzero"/><path fill="#a9a0f0" d="M 136.234375 109.757812 C 137.398438 109.699219 138.515625 109.445312 139.589844 109 C 139.820312 108.886719 140.039062 108.757812 140.246094 108.605469 C 139.992188 109.34375 139.882812 110.097656 139.917969 110.875 C 140.082031 112.246094 140.496094 113.535156 141.160156 114.746094 C 141.828125 115.953125 142.691406 116.992188 143.761719 117.867188 C 146.96875 120.75 150.621094 122.867188 154.71875 124.214844 C 157.792969 127.644531 161.609375 131.214844 166.695312 132.292969 C 166.800781 132.316406 166.910156 132.332031 167.023438 132.332031 C 167.226562 132.335938 167.414062 132.285156 167.589844 132.179688 C 167.839844 132.027344 168 131.808594 168.0625 131.523438 C 168.128906 131.128906 168.046875 130.769531 167.820312 130.445312 C 167.003906 129.269531 166.085938 128.175781 165.070312 127.164062 C 164.941406 127.023438 164.8125 126.878906 164.683594 126.738281 C 165.699219 126.882812 166.722656 126.957031 167.753906 126.964844 C 169.875 126.992188 171.933594 126.625 173.917969 125.871094 C 174.226562 125.769531 174.457031 125.574219 174.605469 125.28125 C 174.730469 125.019531 174.742188 124.746094 174.640625 124.472656 C 174.480469 124.105469 174.21875 123.851562 173.847656 123.703125 C 172.515625 123.167969 171.148438 122.757812 169.746094 122.464844 C 169.105469 122.3125 168.460938 122.160156 167.828125 121.984375 C 164.664062 121.148438 161.820312 119.6875 159.296875 117.601562 C 159.195312 117.515625 159.105469 117.417969 159.003906 117.328125 C 158.214844 114.144531 157.660156 110.925781 157.347656 107.664062 C 157.230469 106.710938 157.117188 105.761719 156.988281 104.8125 C 156.683594 102.515625 156.097656 100 154.085938 98.726562 C 153.082031 98.113281 152.003906 97.914062 150.847656 98.128906 C 150.777344 97.535156 150.75 96.9375 150.769531 96.339844 C 150.78125 95.996094 150.78125 95.632812 150.792969 95.265625 C 150.796875 94.742188 150.859375 94.222656 150.976562 93.710938 C 151.042969 93.460938 149.570312 93.816406 149.4375 93.925781 C 149.15625 94.148438 149.019531 94.441406 149.023438 94.796875 C 148.917969 95.652344 148.964844 96.496094 149.171875 97.332031 C 148.183594 96.375 147.023438 95.726562 145.6875 95.386719 C 143.917969 94.984375 142.132812 94.890625 140.332031 95.097656 C 141.261719 96.484375 142.5 97.5 144.042969 98.140625 C 145.046875 98.734375 146.117188 99.136719 147.261719 99.351562 C 147.515625 99.382812 147.769531 99.394531 148.027344 99.382812 C 147.410156 99.859375 146.902344 100.433594 146.507812 101.101562 C 145.871094 102.246094 145.523438 103.472656 145.464844 104.785156 C 145.292969 104.757812 145.125 104.742188 144.953125 104.734375 C 143.78125 104.777344 142.769531 105.203125 141.917969 106.015625 C 141.535156 105.554688 141.1875 105.070312 140.871094 104.5625 C 140.691406 104.265625 140.492188 103.964844 140.304688 103.652344 C 140.019531 103.210938 139.785156 102.742188 139.601562 102.25 C 139.519531 102.003906 138.484375 103.113281 138.433594 103.277344 C 138.324219 103.617188 138.367188 103.933594 138.566406 104.230469 C 138.945312 105.003906 139.449219 105.683594 140.085938 106.265625 C 138.730469 106.007812 137.402344 106.105469 136.101562 106.554688 C 134.402344 107.1875 132.851562 108.085938 131.457031 109.246094 C 133 109.898438 134.589844 110.066406 136.234375 109.757812 Z M 143.496094 108.445312 C 143.59375 108.484375 143.84375 108.054688 143.867188 107.988281 C 143.578125 107.738281 143.289062 107.476562 143.007812 107.207031 C 143.554688 106.667969 144.210938 106.386719 144.976562 106.363281 L 145.023438 106.363281 C 146.707031 106.363281 148.160156 107.769531 149.480469 109.289062 C 150.105469 110.011719 150.71875 110.738281 151.335938 111.46875 C 153.445312 114.089844 155.738281 116.542969 158.214844 118.824219 C 160.921875 121.078125 163.980469 122.65625 167.382812 123.558594 C 168.039062 123.742188 168.695312 123.898438 169.363281 124.050781 C 170.289062 124.269531 171.167969 124.480469 172.035156 124.761719 C 167.875 125.910156 163.429688 125.050781 159.558594 124.007812 C 153.003906 122.238281 148.34375 119.90625 144.890625 116.664062 C 143.976562 115.933594 143.234375 115.058594 142.65625 114.042969 C 142.082031 113.023438 141.714844 111.9375 141.554688 110.777344 C 141.519531 109.730469 141.800781 108.78125 142.402344 107.925781 C 142.757812 108.121094 143.121094 108.296875 143.496094 108.453125 Z M 147.921875 101.90625 C 148.46875 101.015625 149.226562 100.375 150.199219 99.992188 C 150.386719 100.347656 150.597656 100.691406 150.824219 101.027344 C 150.882812 101.109375 151.328125 100.890625 151.386719 100.847656 C 151.28125 100.484375 151.183594 100.113281 151.101562 99.738281 C 151.289062 99.695312 151.480469 99.671875 151.671875 99.667969 C 152.222656 99.660156 152.734375 99.800781 153.199219 100.09375 C 154.640625 101.011719 155.089844 103 155.359375 105.015625 C 155.484375 105.960938 155.597656 106.902344 155.714844 107.847656 C 156.007812 110.265625 156.308594 112.738281 156.808594 115.179688 C 155.332031 113.640625 153.941406 112.011719 152.585938 110.410156 C 151.964844 109.675781 151.347656 108.933594 150.71875 108.21875 C 149.71875 106.972656 148.511719 105.980469 147.09375 105.238281 C 147.089844 104.0625 147.367188 102.953125 147.921875 101.917969 Z M 162.496094 126.773438 C 162.945312 127.289062 163.414062 127.785156 163.882812 128.285156 C 164.539062 128.972656 165.160156 129.632812 165.722656 130.339844 C 162.738281 129.257812 160.15625 127.5625 157.976562 125.253906 C 158.363281 125.367188 158.734375 125.484375 159.125 125.589844 C 160.078125 125.847656 161.078125 126.082031 162.089844 126.296875 C 162.230469 126.460938 162.367188 126.625 162.496094 126.773438 Z M 162.496094 126.773438 " fill-opacity="1" fill-rule="nonzero"/></svg>