<svg xmlns="http://www.w3.org/2000/svg" xmlns:xlink="http://www.w3.org/1999/xlink" width="400" zoomAndPan="magnify" viewBox="0 0 300 299.999988" height="400" preserveAspectRatio="xMidYMid meet" version="1.0"><defs><clipPath id="70fd22c53b"><path d="M 97.050781 30 L 202.800781 30 L 202.800781 270 L 97.050781 270 Z M 97.050781 30 " clip-rule="nonzero"/></clipPath></defs><g clip-path="url(#70fd22c53b)"><path fill="#a9a0f0" d="M 202.445312 238.28125 C 202.382812 237.125 202.320312 236.015625 202.289062 234.992188 C 202.289062 234.984375 202.28125 234.847656 202.28125 234.839844 C 202.257812 234.167969 202.234375 233.078125 202.210938 231.941406 C 202.179688 230.53125 202.148438 229.054688 202.117188 228.230469 L 202.117188 228.046875 L 202.0625 226.640625 C 201.699219 217.789062 201.1875 208.644531 200.496094 198.683594 C 200.199219 194.472656 199.882812 190.273438 199.554688 186.148438 C 198.566406 173.765625 197.46875 162.019531 196.5625 152.542969 L 196.328125 150.125 C 195.964844 146.300781 195.589844 142.347656 194.96875 138.46875 L 194.96875 138.464844 C 194.625 136.339844 194.246094 134.441406 193.800781 132.664062 C 191.773438 124.472656 188.402344 118.535156 183.191406 113.964844 C 182.085938 113 180.890625 112.128906 179.734375 111.289062 C 177.953125 110.085938 176.316406 108.714844 174.828125 107.167969 C 174.152344 106.410156 173.550781 105.597656 173.03125 104.726562 C 170.453125 100.429688 169.722656 77.257812 169.660156 68.6875 C 169.621094 63.980469 169.605469 59.273438 169.609375 54.566406 C 170.523438 53.898438 171.265625 53.070312 171.828125 52.085938 C 173.90625 48.480469 173.816406 43.507812 171.597656 38.792969 L 171.472656 38.523438 C 170.851562 37.167969 170.007812 35.96875 168.9375 34.929688 C 167.867188 33.890625 166.644531 33.082031 165.269531 32.503906 C 163.671875 31.953125 162.03125 31.621094 160.347656 31.511719 L 160.171875 31.492188 C 154.011719 30.820312 146.347656 29.96875 140.273438 32.628906 C 138.1875 33.492188 136.46875 34.828125 135.125 36.644531 C 133.914062 38.363281 133.027344 40.234375 132.460938 42.257812 C 131.894531 44.28125 131.679688 46.339844 131.824219 48.4375 C 131.835938 49.621094 132.09375 50.75 132.601562 51.820312 C 133.109375 52.890625 133.820312 53.804688 134.726562 54.566406 C 134.660156 54.941406 134.59375 55.324219 134.53125 55.691406 C 133.882812 59.53125 133.222656 68.433594 132.589844 77.042969 C 131.953125 85.65625 131.300781 94.527344 130.65625 98.316406 C 130.316406 100.765625 129.742188 103.15625 128.9375 105.492188 C 128.359375 107.117188 127.492188 108.566406 126.328125 109.835938 C 125.042969 111.070312 123.621094 112.121094 122.058594 112.980469 C 121.46875 113.339844 120.882812 113.699219 120.3125 114.078125 C 117.222656 116.179688 114.554688 118.726562 112.320312 121.722656 C 110.082031 124.71875 108.394531 127.996094 107.257812 131.558594 C 106.308594 134.289062 105.554688 137.074219 105.003906 139.910156 C 103.917969 145.871094 103.164062 151.875 102.742188 157.921875 C 102.496094 160.695312 102.265625 163.316406 101.976562 165.894531 L 101.71875 168.210938 C 99.765625 186.015625 98.289062 207.125 97.550781 227.65625 C 97.4375 230.6875 97.347656 233.722656 97.273438 236.757812 L 97.242188 238.074219 C 97.046875 246.804688 97.671875 255.59375 103.515625 260.828125 C 106.855469 263.820312 111.347656 264.992188 115.300781 265.867188 C 126.449219 268.320312 137.730469 269.550781 149.148438 269.558594 C 162.824219 269.578125 176.257812 267.769531 189.445312 264.128906 C 192.519531 263.488281 195.265625 262.171875 197.6875 260.175781 C 202.550781 255.59375 202.90625 248.042969 202.5625 240.566406 C 202.523438 239.792969 202.484375 239.027344 202.445312 238.28125 Z M 199.148438 198.773438 C 199.84375 208.722656 200.359375 217.855469 200.714844 226.695312 L 200.75 227.558594 C 199.1875 227.570312 197.710938 227.226562 196.316406 226.527344 C 195.457031 226.152344 194.566406 225.859375 193.648438 225.648438 C 191.261719 225.230469 188.855469 224.992188 186.433594 224.925781 C 181.945312 224.835938 177.476562 225.109375 173.03125 225.746094 C 170.527344 226.074219 167.984375 226.472656 165.527344 226.855469 C 158.601562 228.15625 151.621094 228.796875 144.574219 228.773438 C 141.632812 228.667969 137.910156 228.273438 135.203125 226.144531 C 129.734375 221.847656 134.285156 213.859375 137.609375 208.03125 C 138.265625 206.882812 138.882812 205.792969 139.363281 204.839844 C 143.496094 196.324219 148.371094 188.257812 153.988281 180.640625 C 166.457031 164.230469 180.347656 155.050781 195.28125 153.34375 C 196.484375 165.890625 197.996094 182.253906 199.148438 198.773438 Z M 140.800781 33.863281 C 146.558594 31.34375 154.023438 32.167969 160.023438 32.828125 L 160.199219 32.847656 C 161.761719 32.949219 163.285156 33.25 164.765625 33.753906 C 165.949219 34.261719 167.003906 34.960938 167.933594 35.851562 C 168.863281 36.742188 169.605469 37.769531 170.164062 38.929688 C 168.691406 39.964844 167.054688 40.519531 165.257812 40.59375 C 158.332031 41.265625 151.425781 41.125 144.535156 40.167969 L 143.714844 40.074219 C 141.507812 39.835938 137.40625 39.402344 136.503906 37.511719 C 136.457031 37.414062 136.417969 37.308594 136.386719 37.203125 C 137.5625 35.703125 139.035156 34.589844 140.800781 33.863281 Z M 154.109375 42.296875 C 153.410156 42.953125 152.59375 43.386719 151.660156 43.605469 C 150.285156 43.886719 148.996094 43.664062 147.789062 42.945312 C 147.238281 42.621094 146.761719 42.210938 146.359375 41.714844 C 149.089844 42.007812 151.671875 42.207031 154.109375 42.296875 Z M 133.15625 48.375 C 133.046875 46.636719 133.195312 44.921875 133.597656 43.230469 C 134 41.535156 134.640625 39.9375 135.519531 38.4375 C 136.980469 40.683594 141.0625 41.148438 143.574219 41.414062 L 144.378906 41.503906 C 144.515625 41.523438 144.636719 41.53125 144.769531 41.546875 C 145.253906 42.667969 146.035156 43.515625 147.105469 44.101562 C 148.179688 44.738281 149.34375 45.058594 150.59375 45.058594 C 151.050781 45.058594 151.5 45.011719 151.945312 44.917969 C 153.582031 44.542969 154.902344 43.683594 155.90625 42.335938 C 156.394531 42.34375 156.894531 42.363281 157.375 42.363281 C 160.0625 42.371094 162.742188 42.226562 165.414062 41.929688 C 167.335938 41.816406 169.105469 41.238281 170.722656 40.195312 C 172.394531 44.261719 172.398438 48.398438 170.660156 51.414062 C 168.429688 55.289062 163.554688 55.429688 159.257812 55.550781 C 158.785156 55.566406 158.316406 55.578125 157.867188 55.597656 C 153.910156 55.675781 149.957031 55.542969 146.011719 55.195312 C 144.34375 55.074219 142.675781 54.957031 141.011719 54.871094 C 139.714844 54.855469 138.441406 54.679688 137.191406 54.34375 C 136.683594 54.1875 136.207031 53.964844 135.761719 53.671875 C 134.941406 53.042969 134.300781 52.261719 133.84375 51.328125 C 133.386719 50.398438 133.160156 49.414062 133.164062 48.375 Z M 121.058594 115.199219 C 121.617188 114.828125 122.191406 114.476562 122.765625 114.125 C 124.421875 113.199219 125.933594 112.078125 127.296875 110.757812 C 128.585938 109.355469 129.550781 107.757812 130.1875 105.964844 C 131.027344 103.546875 131.625 101.070312 131.976562 98.535156 C 132.628906 94.6875 133.285156 85.765625 133.925781 77.136719 C 134.558594 68.5625 135.210938 59.691406 135.851562 55.917969 C 135.882812 55.71875 135.921875 55.515625 135.957031 55.308594 C 136.226562 55.429688 136.496094 55.535156 136.777344 55.625 C 138.140625 55.996094 139.527344 56.195312 140.941406 56.214844 C 142.597656 56.300781 144.253906 56.417969 145.910156 56.535156 C 149.0625 56.757812 152.300781 56.988281 155.535156 56.988281 C 156.328125 56.988281 157.121094 56.972656 157.914062 56.941406 C 158.363281 56.925781 158.824219 56.910156 159.289062 56.898438 C 162.191406 56.816406 165.550781 56.710938 168.257812 55.378906 C 168.257812 59.820312 168.273438 64.261719 168.304688 68.699219 C 168.3125 69.972656 168.574219 99.9375 171.871094 105.421875 C 172.433594 106.367188 173.082031 107.25 173.816406 108.066406 C 175.371094 109.683594 177.078125 111.121094 178.933594 112.375 C 180.066406 113.199219 181.238281 114.054688 182.292969 114.976562 C 187.140625 119.226562 190.320312 124.761719 192.292969 132.304688 C 178.886719 135.113281 165.339844 136.828125 151.652344 137.449219 C 143.128906 137.765625 134.640625 137.34375 126.1875 136.179688 C 121.257812 135.359375 116.449219 134.085938 111.761719 132.355469 C 110.769531 132.023438 109.773438 131.695312 108.769531 131.367188 C 109.882812 128.074219 111.488281 125.042969 113.589844 122.277344 C 115.695312 119.511719 118.183594 117.152344 121.058594 115.199219 Z M 108.308594 132.625 C 109.328125 132.953125 110.335938 133.296875 111.339844 133.628906 C 116.109375 135.378906 120.996094 136.675781 126.007812 137.511719 C 134.535156 138.6875 143.101562 139.113281 151.707031 138.792969 C 165.492188 138.167969 179.136719 136.441406 192.640625 133.609375 C 192.972656 134.996094 193.261719 136.484375 193.53125 138.085938 C 183.9375 140.808594 174.191406 142.753906 164.292969 143.921875 C 154.390625 145.089844 144.460938 145.46875 134.5 145.054688 C 129.632812 144.910156 124.808594 144.40625 120.015625 143.542969 C 115.371094 142.644531 110.84375 141.332031 106.433594 139.613281 C 106.917969 137.246094 107.542969 134.914062 108.308594 132.625 Z M 103.054688 168.359375 L 103.308594 166.046875 C 103.601562 163.449219 103.835938 160.820312 104.078125 158.039062 C 104.578125 152.390625 105.089844 146.554688 106.160156 140.960938 C 110.578125 142.664062 115.113281 143.964844 119.765625 144.863281 C 124.621094 145.738281 129.511719 146.25 134.441406 146.398438 C 144.449219 146.816406 154.425781 146.441406 164.375 145.269531 C 174.324219 144.101562 184.113281 142.15625 193.753906 139.429688 C 194.300781 143.03125 194.648438 146.703125 194.996094 150.359375 L 195.15625 152.023438 C 179.832031 153.769531 165.625 163.105469 152.925781 179.824219 C 147.257812 187.507812 142.34375 195.648438 138.175781 204.238281 C 137.710938 205.160156 137.101562 206.230469 136.453125 207.367188 C 133.09375 213.265625 128.003906 222.179688 134.386719 227.199219 C 137.398438 229.570312 141.394531 230.003906 144.539062 230.117188 C 145.242188 230.140625 145.949219 230.15625 146.652344 230.152344 C 153.066406 229.988281 159.425781 229.328125 165.738281 228.183594 C 168.1875 227.800781 170.722656 227.40625 173.214844 227.078125 C 177.585938 226.449219 181.980469 226.179688 186.394531 226.273438 C 188.753906 226.335938 191.09375 226.566406 193.414062 226.976562 C 194.246094 227.171875 195.050781 227.441406 195.832031 227.78125 C 197.398438 228.550781 199.054688 228.925781 200.800781 228.902344 C 200.828125 229.738281 200.851562 230.871094 200.875 231.972656 C 200.894531 232.84375 200.914062 233.6875 200.929688 234.339844 C 199.585938 234.640625 198.222656 234.882812 196.929688 235.101562 C 159.582031 241.394531 126.609375 238.75 98.917969 227.246094 C 99.648438 206.890625 101.117188 185.996094 103.054688 168.359375 Z M 159.082031 239.765625 C 171.863281 239.710938 184.550781 238.597656 197.144531 236.421875 C 198.378906 236.214844 199.683594 235.96875 200.972656 235.683594 C 201.007812 236.542969 201.050781 237.429688 201.105469 238.355469 C 201.140625 238.96875 201.175781 239.59375 201.207031 240.226562 C 200.820312 240.425781 200.421875 240.597656 200.015625 240.746094 C 176.9375 249.347656 151.53125 246.640625 129.519531 243.433594 C 119.378906 241.953125 108.648438 240.183594 98.628906 236.324219 C 98.691406 233.773438 98.769531 231.222656 98.867188 228.671875 C 116.839844 236.054688 136.988281 239.765625 159.082031 239.765625 Z M 196.765625 259.199219 C 194.5 261.035156 191.9375 262.25 189.082031 262.835938 C 183.105469 264.46875 177.050781 265.730469 170.921875 266.625 C 164.792969 267.519531 158.632812 268.039062 152.441406 268.183594 C 146.25 268.328125 140.070312 268.097656 133.90625 267.492188 C 127.742188 266.886719 121.636719 265.910156 115.589844 264.5625 C 111.804688 263.726562 107.507812 262.605469 104.410156 259.832031 C 98.972656 254.960938 98.398438 246.511719 98.585938 238.105469 L 98.597656 237.726562 C 108.613281 241.515625 119.25 243.285156 129.320312 244.757812 C 140.941406 246.640625 152.636719 247.675781 164.40625 247.863281 C 176.785156 248.085938 188.808594 246.132812 200.480469 242.003906 C 200.738281 241.90625 201 241.800781 201.261719 241.683594 C 201.503906 248.488281 201.011719 255.199219 196.765625 259.199219 Z M 196.765625 259.199219 " fill-opacity="1" fill-rule="nonzero"/></g><path fill="#a9a0f0" d="M 125.882812 220.476562 C 125.785156 220.4375 125.703125 220.375 125.636719 220.296875 C 125.5625 220.1875 125.53125 220.0625 125.539062 219.933594 C 125.539062 219.554688 125.625 219.1875 125.652344 218.8125 C 125.710938 218.421875 125.617188 218.066406 125.378906 217.753906 C 125.191406 217.570312 124.964844 217.453125 124.707031 217.40625 C 124.414062 217.324219 124.128906 217.34375 123.847656 217.460938 C 123.308594 217.71875 123.1875 218.699219 122.960938 219.207031 C 122.925781 219.328125 122.851562 219.417969 122.738281 219.472656 C 122.589844 219.523438 122.433594 219.386719 122.394531 219.230469 C 122.367188 219.066406 122.382812 218.910156 122.433594 218.753906 C 122.605469 218.082031 122.71875 217.402344 122.777344 216.710938 C 122.8125 216.503906 122.792969 216.304688 122.71875 216.109375 C 122.585938 215.882812 122.398438 215.738281 122.144531 215.675781 C 121.691406 215.511719 121.25 215.53125 120.8125 215.734375 C 119.636719 216.320312 119.285156 218.753906 119.050781 219.910156 C 118.902344 220.394531 118.921875 220.871094 119.109375 221.34375 C 119.359375 221.722656 119.699219 221.992188 120.125 222.148438 C 121.402344 222.769531 122.71875 223.289062 124.074219 223.714844 C 125.039062 224.007812 126.789062 224.75 127.792969 224.347656 C 128.003906 224.136719 128.179688 223.902344 128.316406 223.636719 C 128.453125 223.371094 128.542969 223.089844 128.589844 222.796875 C 128.636719 222.5 128.636719 222.207031 128.585938 221.914062 C 128.539062 221.617188 128.445312 221.339844 128.308594 221.074219 C 127.851562 220.667969 126.503906 220.777344 125.882812 220.476562 Z M 125.882812 220.476562 " fill-opacity="1" fill-rule="nonzero"/><path fill="#a9a0f0" d="M 131.511719 212.179688 C 130.527344 211.695312 130.402344 212.285156 129.5625 212.441406 C 129.449219 212.453125 129.339844 212.441406 129.234375 212.402344 L 126.78125 211.753906 C 126.066406 211.566406 125.246094 211.269531 125.046875 210.5625 C 124.953125 210.230469 125.015625 209.839844 124.800781 209.570312 C 124.625 209.390625 124.410156 209.28125 124.160156 209.238281 C 123.75 209.078125 123.328125 209.050781 122.898438 209.160156 C 121.769531 209.574219 121.167969 212.171875 120.960938 213.195312 C 120.898438 213.410156 120.910156 213.617188 120.992188 213.820312 C 121.015625 213.871094 121.042969 213.914062 121.078125 213.957031 C 121.144531 214.03125 121.21875 214.09375 121.304688 214.144531 C 121.566406 214.328125 121.859375 214.421875 122.179688 214.421875 C 122.507812 214.421875 122.789062 214.304688 123.019531 214.066406 C 123.105469 213.976562 123.171875 213.871094 123.265625 213.789062 C 123.445312 213.625 123.601562 213.683594 123.808594 213.742188 C 124.882812 214.035156 125.945312 214.363281 126.996094 214.726562 C 127.277344 214.804688 127.535156 214.933594 127.761719 215.117188 C 128.410156 215.703125 127.804688 216.5 128.199219 217.128906 C 128.304688 217.359375 128.476562 217.515625 128.71875 217.589844 C 128.964844 217.722656 129.21875 217.757812 129.488281 217.691406 C 130.082031 217.464844 130.5 217.058594 130.734375 216.46875 C 131.144531 215.699219 131.488281 214.898438 131.761719 214.066406 C 131.941406 213.515625 132.164062 212.507812 131.511719 212.179688 Z M 131.511719 212.179688 " fill-opacity="1" fill-rule="nonzero"/><path fill="#a9a0f0" d="M 125.980469 208.757812 C 126.8125 209.078125 127.652344 209.085938 128.496094 208.792969 C 129.09375 208.542969 129.582031 208.070312 130.167969 207.785156 C 130.429688 207.636719 130.707031 207.59375 131 207.652344 C 131.148438 207.691406 131.269531 207.777344 131.355469 207.902344 C 131.441406 208.03125 131.476562 208.171875 131.460938 208.324219 C 131.394531 208.703125 130.957031 208.84375 130.695312 209.113281 C 130.535156 209.300781 130.441406 209.515625 130.410156 209.761719 C 130.382812 210.007812 130.425781 210.238281 130.539062 210.457031 C 130.78125 210.894531 131.148438 211.152344 131.644531 211.230469 C 132.398438 211.324219 133.039062 211.09375 133.5625 210.542969 C 134.074219 210.003906 134.417969 209.371094 134.59375 208.644531 C 134.945312 207.53125 134.894531 206.433594 134.445312 205.355469 C 133.265625 202.828125 130.75 203.847656 129.105469 205.203125 C 128.882812 205.421875 128.621094 205.582031 128.328125 205.6875 C 128.175781 205.738281 128.023438 205.734375 127.875 205.675781 C 127.726562 205.621094 127.613281 205.519531 127.535156 205.382812 C 127.425781 205.007812 127.511719 204.6875 127.789062 204.417969 C 128.050781 204.175781 128.242188 203.890625 128.363281 203.558594 C 128.398438 203.277344 128.332031 203.019531 128.164062 202.792969 C 127.996094 202.5625 127.777344 202.421875 127.5 202.367188 C 126.957031 202.300781 126.445312 202.398438 125.964844 202.660156 C 125.457031 203.023438 125.050781 203.476562 124.746094 204.019531 C 124.4375 204.5625 124.257812 205.144531 124.207031 205.765625 C 124.054688 206.472656 124.148438 207.140625 124.492188 207.773438 C 124.875 208.277344 125.367188 208.605469 125.980469 208.757812 Z M 125.980469 208.757812 " fill-opacity="1" fill-rule="nonzero"/><path fill="#a9a0f0" d="M 130.605469 201.191406 C 131.925781 201.910156 133.261719 202.605469 134.546875 203.394531 C 135.1875 203.789062 136.023438 204.183594 136.617188 203.730469 C 136.753906 203.613281 136.875 203.480469 136.980469 203.335938 C 137.085938 203.191406 137.175781 203.035156 137.242188 202.867188 C 137.3125 202.699219 137.359375 202.527344 137.386719 202.347656 C 137.410156 202.171875 137.417969 201.992188 137.398438 201.8125 C 137.382812 201.632812 137.34375 201.457031 137.285156 201.289062 C 137.226562 201.117188 137.148438 200.957031 137.050781 200.804688 C 136.953125 200.652344 136.839844 200.515625 136.707031 200.390625 C 136.574219 200.269531 136.433594 200.164062 136.273438 200.074219 C 136.042969 199.976562 135.832031 199.847656 135.640625 199.679688 C 135.445312 199.542969 135.390625 199.363281 135.476562 199.140625 C 135.566406 198.917969 135.726562 198.824219 135.964844 198.855469 C 136.464844 198.9375 136.9375 199.097656 137.386719 199.332031 C 138.488281 199.695312 139.480469 198.609375 139.578125 197.539062 C 139.628906 197.183594 139.527344 196.878906 139.273438 196.628906 C 138.550781 195.988281 137.738281 195.5 136.941406 194.921875 C 135.5625 193.921875 134.113281 193.039062 132.59375 192.277344 C 132.210938 192.023438 131.792969 191.941406 131.34375 192.035156 C 131.121094 192.125 130.9375 192.265625 130.785156 192.457031 C 130.453125 192.832031 130.203125 193.257812 130.035156 193.730469 C 129.957031 193.914062 129.925781 194.109375 129.9375 194.3125 C 129.996094 194.796875 130.476562 195.09375 130.894531 195.3125 C 131.511719 195.640625 132.128906 195.964844 132.746094 196.285156 C 134.179688 197.039062 133.132812 198.546875 131.820312 197.855469 L 130.066406 196.9375 C 129.734375 196.738281 129.378906 196.605469 129 196.535156 C 128.734375 196.515625 128.488281 196.566406 128.257812 196.691406 C 128.023438 196.816406 127.84375 196.992188 127.714844 197.222656 C 127.417969 197.605469 127.226562 198.035156 127.144531 198.515625 C 127.019531 199.894531 129.667969 200.683594 130.605469 201.191406 Z M 130.605469 201.191406 " fill-opacity="1" fill-rule="nonzero"/><path fill="#a9a0f0" d="M 137.925781 184.078125 C 138.632812 184.625 139.4375 184.878906 140.332031 184.839844 C 140.972656 184.769531 141.570312 184.460938 142.210938 184.359375 C 142.503906 184.289062 142.78125 184.328125 143.046875 184.46875 C 143.179688 184.546875 143.273438 184.660156 143.324219 184.804688 C 143.371094 184.953125 143.371094 185.097656 143.316406 185.242188 C 143.148438 185.589844 142.691406 185.597656 142.367188 185.78125 C 142.160156 185.914062 142.007812 186.09375 141.914062 186.324219 C 141.820312 186.550781 141.800781 186.785156 141.851562 187.023438 C 141.964844 187.515625 142.25 187.871094 142.703125 188.085938 C 143.398438 188.394531 144.070312 188.359375 144.730469 187.984375 C 145.367188 187.609375 145.871094 187.101562 146.234375 186.460938 C 146.875 185.484375 147.125 184.414062 146.984375 183.257812 C 146.539062 180.488281 143.84375 180.742188 141.902344 181.566406 C 141.625 181.710938 141.332031 181.792969 141.019531 181.808594 C 140.863281 181.808594 140.71875 181.761719 140.59375 181.664062 C 140.46875 181.566406 140.386719 181.4375 140.351562 181.285156 C 140.34375 180.894531 140.511719 180.609375 140.855469 180.433594 C 141.171875 180.277344 141.433594 180.058594 141.640625 179.773438 C 141.75 179.507812 141.753906 179.242188 141.65625 178.976562 C 141.558594 178.710938 141.382812 178.511719 141.132812 178.378906 C 140.632812 178.15625 140.117188 178.101562 139.582031 178.21875 C 138.492188 178.351562 137.496094 179.710938 137.050781 180.691406 C 136.710938 181.328125 136.621094 182 136.78125 182.703125 C 137.003906 183.292969 137.386719 183.75 137.925781 184.078125 Z M 137.925781 184.078125 " fill-opacity="1" fill-rule="nonzero"/><path fill="#a9a0f0" d="M 143.828125 176.347656 L 146.390625 179.867188 C 146.890625 180.550781 147.695312 182.707031 148.839844 182.085938 C 149.117188 181.90625 149.335938 181.667969 149.488281 181.371094 C 149.734375 181.007812 149.917969 180.613281 150.039062 180.191406 C 150.167969 179.75 150.125 179.320312 149.921875 178.910156 C 149.753906 178.617188 149.46875 178.363281 149.453125 178.023438 C 149.410156 177.070312 150.667969 177.226562 151.199219 177.367188 C 151.382812 177.433594 151.566406 177.453125 151.761719 177.425781 C 151.984375 177.355469 152.171875 177.226562 152.324219 177.042969 C 152.84375 176.597656 153.25 176.0625 153.542969 175.445312 C 153.679688 175.191406 153.671875 174.941406 153.519531 174.691406 C 153.417969 174.59375 153.300781 174.523438 153.164062 174.484375 L 152.832031 174.359375 C 151.027344 173.691406 149.234375 172.988281 147.410156 172.363281 C 146.320312 171.804688 145.179688 171.679688 143.992188 171.980469 C 143.304688 172.28125 142.804688 172.769531 142.488281 173.453125 C 142.449219 173.527344 142.425781 173.605469 142.421875 173.691406 C 142.425781 173.785156 142.445312 173.875 142.488281 173.960938 C 142.824219 174.816406 143.273438 175.613281 143.828125 176.347656 Z M 148.296875 175.40625 C 148.414062 175.464844 148.496094 175.554688 148.542969 175.675781 C 148.554688 175.710938 148.554688 175.75 148.554688 175.789062 C 148.472656 176.105469 148.273438 176.285156 147.949219 176.332031 C 147.558594 176.351562 147.269531 175.894531 147.035156 175.628906 C 145.976562 174.480469 147.789062 175.082031 148.296875 175.40625 Z M 148.296875 175.40625 " fill-opacity="1" fill-rule="nonzero"/><path fill="#a9a0f0" d="M 148.339844 170.277344 C 149.519531 171.527344 150.886719 172.523438 152.4375 173.261719 C 152.675781 173.375 152.925781 173.457031 153.183594 173.511719 C 153.441406 173.566406 153.699219 173.59375 153.964844 173.589844 C 154.226562 173.585938 154.488281 173.554688 154.742188 173.492188 C 155 173.433594 155.246094 173.34375 155.480469 173.226562 C 155.714844 173.109375 155.9375 172.96875 156.140625 172.800781 C 156.34375 172.636719 156.527344 172.449219 156.691406 172.242188 C 156.851562 172.035156 156.992188 171.8125 157.101562 171.574219 C 157.214844 171.335938 157.300781 171.085938 157.355469 170.832031 C 157.882812 168.261719 155.683594 165.957031 154.078125 164.128906 C 153.777344 163.75 153.421875 163.433594 153.011719 163.171875 C 152.097656 162.660156 150.523438 163.308594 150.882812 164.539062 C 151.027344 164.933594 151.242188 165.277344 151.53125 165.582031 C 152.410156 166.382812 153.054688 167.347656 153.460938 168.464844 C 153.554688 168.78125 153.574219 169.097656 153.515625 169.421875 C 152.960938 171.753906 150.023438 167.683594 149.464844 167.0625 C 149.308594 166.867188 149.125 166.707031 148.914062 166.582031 C 147.667969 165.953125 146.667969 167.730469 147.144531 168.808594 C 147.441406 169.378906 147.839844 169.867188 148.339844 170.277344 Z M 148.339844 170.277344 " fill-opacity="1" fill-rule="nonzero"/><path fill="#a9a0f0" d="M 159.40625 167.398438 C 159.792969 167.457031 160.179688 167.457031 160.566406 167.40625 C 160.949219 167.351562 161.320312 167.242188 161.675781 167.082031 C 162.03125 166.917969 162.355469 166.710938 162.648438 166.453125 C 162.941406 166.199219 163.195312 165.90625 163.402344 165.578125 C 163.890625 164.628906 163.996094 163.636719 163.722656 162.601562 C 163.648438 162.058594 163.363281 161.660156 162.875 161.40625 C 162.621094 161.335938 162.363281 161.324219 162.105469 161.371094 C 161.53125 161.429688 160.726562 161.46875 160.691406 162.261719 C 160.722656 162.519531 160.734375 162.777344 160.726562 163.039062 C 160.679688 163.214844 160.585938 163.359375 160.4375 163.46875 C 160.292969 163.582031 160.128906 163.632812 159.945312 163.632812 C 159.574219 163.609375 159.269531 163.453125 159.035156 163.164062 C 158.808594 162.886719 158.621094 162.582031 158.476562 162.25 C 158.328125 161.984375 158.226562 161.699219 158.171875 161.398438 C 158.113281 161.078125 158.203125 160.800781 158.4375 160.574219 C 158.519531 160.503906 158.613281 160.460938 158.714844 160.4375 C 159.039062 160.371094 159.355469 160.5625 159.683594 160.601562 C 159.902344 160.609375 160.113281 160.566406 160.3125 160.476562 C 160.511719 160.386719 160.683594 160.261719 160.828125 160.09375 C 160.972656 159.929688 161.070312 159.738281 161.128906 159.527344 C 161.1875 159.316406 161.199219 159.101562 161.160156 158.886719 C 160.992188 158.460938 160.707031 158.132812 160.308594 157.902344 C 159.828125 157.523438 159.292969 157.261719 158.699219 157.109375 C 158.136719 157.0625 157.597656 157.152344 157.082031 157.375 C 156.566406 157.597656 156.128906 157.929688 155.78125 158.371094 C 155.53125 158.644531 155.316406 158.945312 155.136719 159.269531 C 154.894531 159.699219 154.730469 160.160156 154.648438 160.644531 C 154.53125 161.878906 154.835938 162.996094 155.550781 164.003906 C 156.464844 165.46875 157.640625 167.089844 159.40625 167.398438 Z M 159.40625 167.398438 " fill-opacity="1" fill-rule="nonzero"/><path fill="#a9a0f0" d="M 164.40625 160.585938 C 165.113281 161.269531 165.816406 162.15625 166.886719 162.148438 C 167.332031 162.121094 167.757812 162.011719 168.160156 161.8125 C 168.761719 161.554688 169.347656 161.257812 169.917969 160.925781 C 170.332031 160.730469 170.667969 160.445312 170.925781 160.066406 C 171.183594 159.683594 171.324219 159.265625 171.347656 158.808594 C 171.320312 158.035156 170.464844 157.09375 169.667969 157.257812 C 168.941406 157.457031 168.289062 157.789062 167.703125 158.257812 C 167.53125 158.394531 167.339844 158.484375 167.125 158.523438 C 167.015625 158.535156 166.914062 158.511719 166.820312 158.453125 C 166.726562 158.390625 166.664062 158.304688 166.636719 158.199219 C 166.625 157.96875 166.71875 157.800781 166.917969 157.6875 C 167.097656 157.589844 167.261719 157.46875 167.40625 157.324219 C 167.699219 156.953125 167.496094 156.402344 167.269531 155.980469 C 167.246094 155.921875 167.207031 155.871094 167.160156 155.824219 C 167.09375 155.773438 167.019531 155.75 166.933594 155.75 C 166.5625 155.800781 166.246094 155.960938 165.980469 156.222656 C 165.105469 156.851562 164.460938 156.167969 165.230469 155.351562 C 165.757812 154.796875 166.910156 154.277344 167.15625 153.519531 C 167.226562 153.28125 167.234375 153.039062 167.183594 152.792969 C 167.125 152.347656 166.925781 151.976562 166.585938 151.679688 C 165.523438 150.84375 163.527344 152.703125 162.820312 153.445312 C 162.765625 153.5 162.710938 153.558594 162.660156 153.617188 C 162.355469 153.875 162.117188 154.179688 161.941406 154.539062 C 161.765625 154.894531 161.667969 155.273438 161.648438 155.667969 C 161.628906 156.066406 161.6875 156.449219 161.828125 156.824219 C 161.964844 157.195312 162.171875 157.527344 162.445312 157.8125 C 162.945312 158.847656 163.597656 159.773438 164.40625 160.585938 Z M 164.40625 160.585938 " fill-opacity="1" fill-rule="nonzero"/><path fill="#a9a0f0" d="M 133.339844 115.0625 C 134.277344 114.265625 135 113.308594 135.511719 112.191406 C 136.019531 111.070312 136.269531 109.894531 136.257812 108.667969 C 136.257812 108.480469 136.191406 108.324219 136.0625 108.191406 C 135.929688 108.0625 135.769531 107.996094 135.585938 107.996094 C 135.402344 107.996094 135.242188 108.0625 135.109375 108.191406 C 134.980469 108.324219 134.914062 108.480469 134.914062 108.667969 C 134.925781 109.71875 134.707031 110.71875 134.265625 111.675781 C 133.824219 112.628906 133.199219 113.441406 132.390625 114.113281 C 132.261719 114.246094 132.195312 114.402344 132.195312 114.589844 C 132.195312 114.773438 132.261719 114.933594 132.390625 115.0625 C 132.523438 115.191406 132.683594 115.253906 132.867188 115.253906 C 133.050781 115.253906 133.207031 115.191406 133.339844 115.0625 Z M 133.339844 115.0625 " fill-opacity="1" fill-rule="nonzero"/><path fill="#a9a0f0" d="M 117.550781 130.65625 C 119.878906 125.5625 124.214844 121.871094 128.410156 118.332031 C 129.074219 117.777344 128.121094 116.832031 127.460938 117.382812 C 123.183594 120.988281 118.765625 124.785156 116.390625 129.976562 C 116.035156 130.757812 117.191406 131.441406 117.550781 130.65625 Z M 117.550781 130.65625 " fill-opacity="1" fill-rule="nonzero"/><path fill="#a9a0f0" d="M 108.296875 245.035156 C 108.34375 244.171875 107.003906 244.175781 106.953125 245.035156 C 106.820312 247.4375 107.046875 249.804688 107.628906 252.136719 C 108.210938 254.46875 109.128906 256.664062 110.375 258.71875 C 110.472656 258.867188 110.609375 258.960938 110.78125 259.003906 C 110.957031 259.042969 111.117188 259.019531 111.273438 258.929688 C 111.425781 258.839844 111.527344 258.710938 111.578125 258.539062 C 111.628906 258.371094 111.617188 258.207031 111.535156 258.046875 C 110.347656 256.09375 109.480469 254.007812 108.925781 251.789062 C 108.375 249.570312 108.164062 247.316406 108.296875 245.035156 Z M 108.296875 245.035156 " fill-opacity="1" fill-rule="nonzero"/></svg>