<svg xmlns="http://www.w3.org/2000/svg" xmlns:xlink="http://www.w3.org/1999/xlink" width="400" zoomAndPan="magnify" viewBox="0 0 300 299.999988" height="400" preserveAspectRatio="xMidYMid meet" version="1.0"><path fill="#a9a0f0" d="M 165.976562 46.878906 C 166.464844 43.410156 166.933594 40.09375 166.933594 36.734375 C 164.679688 36.328125 160.585938 35.695312 159.898438 35.664062 C 159.867188 35.664062 159.851562 35.664062 159.835938 35.664062 C 159.027344 35.664062 158.152344 35.695312 157.285156 35.726562 C 154.78125 35.835938 152.183594 35.9375 149.527344 35.25 C 147.421875 34.71875 144.808594 35.070312 142.265625 35.421875 C 141.671875 35.5 141.078125 35.578125 140.507812 35.648438 L 140.128906 35.695312 C 136.125 36.140625 134.003906 36.460938 132.875 36.664062 C 132.859375 40.03125 133.335938 43.378906 133.832031 46.878906 C 134.183594 49.382812 134.535156 51.980469 134.707031 54.609375 L 137.789062 54.546875 C 139.308594 54.515625 140.765625 54.625 142.195312 54.734375 C 143.707031 54.851562 145.125 54.960938 146.5625 54.914062 C 147.535156 54.882812 148.511719 54.851562 149.496094 54.835938 C 152.152344 54.78125 154.898438 54.71875 157.511719 54.382812 C 158.707031 54.226562 159.882812 54.351562 161.03125 54.46875 C 161.605469 54.53125 162.199219 54.59375 162.769531 54.625 C 163.550781 54.640625 164.3125 54.640625 165.085938 54.65625 C 165.273438 51.996094 165.625 49.398438 165.976562 46.878906 Z M 165.414062 103.402344 C 165.820312 103.371094 166.214844 103.324219 166.613281 103.277344 C 166.542969 101.429688 166.480469 99.582031 166.417969 97.761719 L 166.371094 96.25 C 166.308594 93.863281 166.339844 91.453125 166.386719 89.113281 C 166.417969 86.734375 166.449219 84.253906 166.371094 81.859375 C 166.269531 78.671875 166.183594 75.394531 166.117188 72.125 C 166.039062 68.90625 165.960938 65.683594 165.851562 62.535156 C 164.265625 62.609375 162.644531 62.703125 161.015625 62.703125 C 160.046875 62.703125 159.105469 62.671875 158.152344 62.59375 C 152.582031 62.136719 146.804688 62.230469 141.242188 62.339844 C 138.847656 62.371094 136.398438 62.402344 133.957031 62.402344 C 133.847656 65.542969 133.769531 68.773438 133.699219 72.007812 C 133.621094 75.324219 133.527344 78.625 133.417969 81.859375 C 133.351562 84.253906 133.386719 86.71875 133.417969 89.113281 C 133.449219 91.453125 133.496094 93.863281 133.417969 96.25 L 133.386719 97.734375 C 133.335938 99.566406 133.273438 101.429688 133.179688 103.308594 C 138.722656 103.996094 144.558594 104.410156 150.546875 104.503906 L 152.269531 104.535156 C 154.78125 104.574219 157.355469 104.621094 159.804688 104.394531 C 160.28125 104.347656 160.75 104.207031 161.257812 104.058594 C 161.808594 103.871094 162.371094 103.707031 163.027344 103.613281 C 163.824219 103.519531 164.617188 103.464844 165.414062 103.402344 Z M 169.492188 59.375 C 171.167969 58.210938 168.496094 57.144531 167.582031 56.902344 C 165.976562 56.503906 164.3125 56.964844 162.691406 56.917969 C 162.066406 56.886719 161.429688 56.824219 160.78125 56.746094 C 159.726562 56.636719 158.722656 56.535156 157.816406 56.652344 C 155.070312 57.003906 152.253906 57.066406 149.558594 57.128906 C 148.574219 57.144531 147.597656 57.175781 146.632812 57.207031 C 146.359375 57.222656 146.101562 57.222656 145.828125 57.222656 C 144.527344 57.222656 143.261719 57.113281 142.023438 57.027344 C 140.648438 56.917969 139.230469 56.792969 137.84375 56.839844 C 135.503906 56.902344 132.953125 56.683594 130.722656 57.496094 C 130.660156 57.527344 130.582031 57.558594 130.503906 57.589844 C 130.199219 57.714844 129.910156 57.890625 129.746094 58.179688 C 129.050781 59.328125 131.359375 59.867188 132.046875 59.984375 C 132.171875 60 132.242188 60.0625 132.351562 60.09375 C 135.300781 60.125 138.292969 60.09375 141.195312 60.046875 C 146.820312 59.945312 152.652344 59.84375 158.339844 60.300781 C 160.75 60.519531 163.332031 60.378906 165.820312 60.246094 C 166.292969 60.21875 166.753906 60.203125 167.230469 60.1875 C 167.394531 60.109375 167.566406 60.015625 167.746094 59.984375 C 168.523438 59.84375 169.09375 59.648438 169.492188 59.375 Z M 179.359375 261.265625 C 179.664062 260.9375 179.9375 260.570312 180.195312 260.210938 C 179.375 260.546875 178.5 260.851562 177.574219 261.0625 C 174.867188 261.710938 172.082031 261.765625 169.398438 261.824219 L 158.566406 262.050781 C 156.871094 262.097656 155.195312 261.933594 153.574219 261.78125 C 151.9375 261.632812 150.40625 261.492188 148.808594 261.523438 C 147.917969 261.539062 147.039062 261.664062 146.085938 261.796875 C 145.09375 261.933594 144.042969 262.089844 142.980469 262.097656 C 142.664062 262.097656 142.328125 262.097656 142.007812 262.097656 C 139.519531 262.097656 137.015625 262.027344 134.582031 261.949219 C 133.195312 261.902344 131.804688 261.855469 130.410156 261.824219 C 127.726562 261.765625 124.949219 261.710938 122.226562 261.0625 C 121.292969 260.851562 120.433594 260.546875 119.613281 260.210938 C 119.871094 260.570312 120.144531 260.9375 120.457031 261.265625 C 121.417969 262.238281 122.851562 263.019531 124.824219 263.644531 C 129.699219 265.203125 134.769531 265.125 140.144531 265.039062 L 140.523438 265.023438 C 140.570312 265.023438 140.617188 265.023438 140.664062 265.023438 C 141.460938 265.023438 142.132812 265.140625 142.738281 265.25 C 143.011719 265.296875 143.292969 265.34375 143.597656 265.382812 C 144.347656 265.460938 145.21875 265.398438 146.148438 265.3125 C 146.59375 265.28125 147.015625 265.25 147.449219 265.21875 L 154.46875 264.882812 C 154.8125 264.867188 155.164062 264.804688 155.492188 264.757812 C 156 264.679688 156.585938 264.609375 157.191406 264.59375 C 158.019531 264.59375 158.800781 264.726562 159.46875 264.851562 C 159.945312 264.945312 160.398438 265.023438 160.765625 265.039062 C 165.46875 265.125 170.46875 265.09375 174.992188 263.644531 C 176.957031 263.019531 178.382812 262.238281 179.359375 261.265625 Z M 185.238281 198.609375 C 185.222656 197.941406 185.222656 197.285156 185.222656 196.597656 C 180.574219 191.296875 176.347656 185.585938 172.269531 180.039062 L 170.59375 177.777344 C 166.691406 172.507812 162.511719 166.929688 157.910156 161.875 C 156.765625 160.613281 155.585938 159.386719 154.453125 158.242188 C 154.136719 157.9375 153.785156 157.617188 153.433594 157.289062 C 152.535156 156.5 151.617188 155.691406 150.960938 154.636719 L 150.835938 154.417969 C 150.257812 153.492188 150.242188 153.507812 149.78125 153.671875 C 149.386719 153.828125 149.035156 154.316406 148.652344 154.832031 C 148.363281 155.246094 148.058594 155.675781 147.660156 156.027344 C 146.578125 157.03125 145.476562 158.101562 144.394531 159.214844 C 142.421875 161.234375 140.460938 163.433594 138.386719 165.90625 C 134.628906 170.429688 131.070312 175.257812 127.617188 179.929688 L 126.074219 182.039062 C 124.128906 184.648438 122.039062 187.464844 119.886719 190.195312 C 118.835938 191.542969 117.765625 192.871094 116.683594 194.1875 C 116.589844 194.289062 116.332031 194.5625 115.996094 194.9375 C 115.667969 195.273438 115.105469 195.898438 114.59375 196.457031 C 114.59375 197.105469 114.59375 197.746094 114.570312 198.386719 C 120.910156 210.210938 128.21875 220.660156 136.3125 229.472656 C 138.339844 231.6875 140.460938 233.839844 142.617188 235.871094 C 143.730469 236.929688 144.878906 237.96875 146.039062 238.972656 C 146.578125 239.449219 147.171875 239.832031 147.785156 240.261719 C 148.347656 240.628906 148.917969 241.007812 149.449219 241.453125 C 149.859375 241.78125 150.148438 242.03125 150.390625 242.09375 C 150.671875 242.03125 151.476562 241.15625 151.820312 240.773438 C 152.121094 240.441406 152.410156 240.136719 152.652344 239.933594 C 153.894531 238.878906 155.148438 237.765625 156.382812 236.632812 C 158.785156 234.402344 161.132812 232.039062 163.394531 229.597656 C 167.761719 224.855469 171.917969 219.621094 175.769531 214 C 177.667969 211.246094 179.53125 208.359375 181.285156 205.398438 C 182.136719 203.960938 182.976562 202.511719 183.804688 201.042969 C 183.851562 200.949219 183.976562 200.742188 184.15625 200.445312 C 184.585938 199.726562 184.949219 199.117188 185.238281 198.609375 Z M 183.757812 244.488281 C 185.527344 230.863281 185.394531 216.902344 185.269531 203.382812 C 185.269531 203.289062 185.269531 203.183594 185.269531 203.074219 C 184.617188 204.25 183.9375 205.414062 183.25 206.574219 C 181.464844 209.570312 179.585938 212.503906 177.667969 215.292969 C 173.75 220.996094 169.523438 226.324219 165.070312 231.136719 C 162.785156 233.640625 160.367188 236.054688 157.925781 238.320312 C 156.679688 239.480469 155.40625 240.613281 154.136719 241.679688 C 153.957031 241.828125 153.738281 242.078125 153.511719 242.335938 C 152.683594 243.207031 151.617188 244.378906 150.34375 244.378906 C 150.179688 244.378906 149.992188 244.347656 149.796875 244.308594 C 149.082031 244.105469 148.550781 243.660156 148.097656 243.308594 C 147.519531 242.828125 147.015625 242.492188 146.515625 242.15625 C 145.859375 241.726562 145.1875 241.265625 144.527344 240.707031 C 143.347656 239.660156 142.195312 238.621094 141.046875 237.539062 C 138.863281 235.480469 136.695312 233.273438 134.613281 231.019531 C 127.21875 222.984375 120.488281 213.585938 114.539062 203.074219 C 114.539062 203.183594 114.539062 203.289062 114.539062 203.382812 C 114.421875 216.902344 114.28125 230.863281 116.050781 244.488281 C 116.175781 245.421875 116.285156 246.414062 116.394531 247.46875 C 116.699219 250.429688 117.046875 253.839844 117.960938 256.710938 C 119.535156 257.886719 121.355469 258.511719 122.757812 258.832031 C 125.238281 259.417969 127.890625 259.476562 130.464844 259.53125 C 131.851562 259.5625 133.257812 259.609375 134.644531 259.65625 C 137.382812 259.734375 140.191406 259.828125 142.972656 259.8125 C 143.871094 259.796875 144.808594 259.671875 145.765625 259.53125 C 146.742188 259.402344 147.730469 259.246094 148.761719 259.230469 C 150.484375 259.199219 152.167969 259.355469 153.785156 259.5 C 155.40625 259.65625 156.933594 259.8125 158.519531 259.765625 L 169.351562 259.53125 C 171.917969 259.476562 174.5625 259.417969 177.050781 258.832031 C 178.453125 258.511719 180.277344 257.886719 181.847656 256.710938 C 182.75 253.839844 183.117188 250.429688 183.421875 247.46875 C 183.53125 246.414062 183.632812 245.421875 183.757812 244.488281 Z M 185.957031 169.824219 C 186.433594 163.195312 186.917969 156.34375 185.894531 149.808594 C 185.191406 145.316406 183.90625 141.621094 181.972656 138.515625 C 180.917969 136.824219 179.40625 135.433594 177.816406 133.96875 C 176.136719 132.425781 174.40625 130.832031 173.082031 128.757812 C 170.304688 124.40625 168.433594 118.875 167.378906 111.847656 C 167.074219 109.75 166.894531 107.660156 166.753906 105.570312 C 166.355469 105.601562 165.976562 105.640625 165.59375 105.679688 C 164.828125 105.734375 164.0625 105.796875 163.308594 105.890625 C 162.855469 105.953125 162.402344 106.085938 161.925781 106.242188 C 161.351562 106.421875 160.71875 106.609375 160.015625 106.6875 C 158.535156 106.820312 157.027344 106.867188 155.53125 106.867188 C 154.417969 106.867188 153.316406 106.835938 152.222656 106.820312 L 150.515625 106.789062 C 144.496094 106.703125 138.628906 106.289062 133.0625 105.601562 C 132.921875 107.675781 132.734375 109.765625 132.414062 111.847656 C 131.375 118.875 129.511719 124.40625 126.734375 128.757812 C 125.402344 130.832031 123.679688 132.425781 122 133.96875 C 120.410156 135.433594 118.898438 136.824219 117.84375 138.515625 C 115.902344 141.621094 114.621094 145.316406 113.914062 149.808594 C 112.890625 156.34375 113.382812 163.195312 113.84375 169.824219 C 113.992188 171.835938 114.132812 173.839844 114.242188 175.835938 C 114.53125 181.585938 114.609375 187.355469 114.59375 193.066406 C 114.738281 192.917969 114.863281 192.777344 114.902344 192.714844 C 115.996094 191.421875 117.046875 190.109375 118.085938 188.792969 C 120.222656 186.078125 122.296875 183.277344 124.222656 180.679688 L 125.785156 178.574219 C 129.238281 173.878906 132.828125 169.027344 136.632812 164.441406 C 138.738281 161.921875 140.734375 159.675781 142.738281 157.632812 C 143.871094 156.46875 144.988281 155.371094 146.101562 154.347656 C 146.335938 154.128906 146.5625 153.828125 146.804688 153.492188 C 147.3125 152.789062 147.933594 151.914062 148.972656 151.535156 C 151.203125 150.675781 152.238281 152.328125 152.777344 153.234375 L 152.902344 153.429688 C 153.386719 154.191406 154.152344 154.863281 154.945312 155.582031 C 155.34375 155.933594 155.726562 156.269531 156.078125 156.617188 C 157.238281 157.78125 158.433594 159.035156 159.601562 160.332031 C 164.265625 165.480469 168.496094 171.085938 172.441406 176.40625 L 174.101562 178.683594 C 177.652344 183.488281 181.308594 188.410156 185.207031 193.066406 C 185.207031 187.355469 185.285156 181.585938 185.574219 175.835938 C 185.683594 173.839844 185.816406 171.835938 185.957031 169.824219 Z M 190.417969 149.109375 C 191.519531 156.152344 191.011719 163.265625 190.535156 170.144531 C 190.386719 172.125 190.246094 174.113281 190.152344 176.085938 C 189.683594 185.140625 189.777344 194.398438 189.855469 203.351562 C 189.972656 217.011719 190.113281 231.136719 188.296875 245.082031 C 188.1875 245.96875 188.078125 246.929688 187.976562 247.941406 C 187.40625 253.472656 186.691406 260.359375 182.609375 264.484375 C 181.113281 266 179.070312 267.160156 176.378906 268.011719 C 171.183594 269.679688 165.78125 269.726562 160.679688 269.617188 C 159.929688 269.601562 159.234375 269.460938 158.628906 269.359375 C 158.121094 269.265625 157.605469 269.15625 157.269531 269.171875 C 156.902344 269.1875 156.523438 269.25 156.140625 269.296875 C 155.664062 269.375 155.179688 269.4375 154.703125 269.453125 L 147.675781 269.796875 C 147.296875 269.8125 146.914062 269.84375 146.53125 269.875 C 145.84375 269.9375 145.109375 270 144.347656 270 C 143.933594 270 143.503906 269.984375 143.058594 269.9375 C 142.679688 269.890625 142.3125 269.835938 141.945312 269.75 C 141.445312 269.679688 141.03125 269.585938 140.601562 269.601562 L 140.222656 269.601562 C 134.707031 269.710938 129.003906 269.796875 123.414062 268.011719 C 120.730469 267.160156 118.695312 266 117.195312 264.484375 C 113.125 260.359375 112.398438 253.472656 111.839844 247.941406 C 111.730469 246.929688 111.628906 245.96875 111.519531 245.082031 C 109.703125 231.136719 109.820312 217.011719 109.957031 203.335938 C 110.035156 194.398438 110.128906 185.140625 109.65625 176.085938 C 109.5625 174.113281 109.40625 172.125 109.273438 170.144531 C 108.78125 163.265625 108.28125 156.152344 109.398438 149.109375 C 110.183594 143.992188 111.683594 139.726562 113.945312 136.089844 C 115.339844 133.859375 117.140625 132.207031 118.898438 130.589844 C 120.425781 129.1875 121.859375 127.855469 122.867188 126.285156 C 125.292969 122.496094 126.945312 117.542969 127.890625 111.179688 C 128.546875 106.734375 128.671875 102.304688 128.808594 97.609375 L 128.855469 96.109375 C 128.910156 93.839844 128.871094 91.46875 128.839844 89.175781 C 128.808594 86.734375 128.761719 84.214844 128.855469 81.703125 C 128.964844 78.484375 129.035156 75.183594 129.113281 71.902344 C 129.175781 69.242188 129.238281 66.582031 129.316406 63.984375 C 128.714844 63.757812 128.179688 63.46875 127.695312 63.132812 C 126.308594 62.167969 125.402344 60.746094 125.222656 59.203125 C 124.957031 57.128906 126.074219 54.945312 128.0625 53.632812 C 128.746094 53.175781 129.402344 53.003906 129.988281 52.941406 C 129.800781 51.121094 129.542969 49.304688 129.292969 47.519531 C 128.714844 43.425781 128.125 39.195312 128.335938 34.828125 C 128.460938 32.472656 130.042969 32.214844 139.613281 31.125 L 139.980469 31.101562 C 140.507812 31.039062 141.078125 30.945312 141.640625 30.867188 C 144.480469 30.484375 147.691406 30.054688 150.671875 30.820312 C 152.667969 31.328125 154.828125 31.25 157.097656 31.164062 C 158.050781 31.109375 158.949219 31.085938 159.953125 31.085938 C 160.8125 31.085938 164.773438 31.726562 165.226562 31.804688 C 170.195312 32.597656 171.371094 32.792969 171.472656 34.8125 L 171.472656 34.828125 C 171.691406 39.195312 171.089844 43.425781 170.515625 47.519531 C 170.273438 49.304688 170.007812 51.121094 169.828125 52.941406 C 170.390625 53.003906 171.050781 53.175781 171.753906 53.632812 C 173.734375 54.945312 174.851562 57.128906 174.59375 59.21875 C 174.40625 60.746094 173.492188 62.191406 172.097656 63.148438 C 171.628906 63.46875 171.089844 63.757812 170.5 63.984375 C 170.578125 66.628906 170.640625 69.320312 170.695312 72.023438 C 170.773438 75.277344 170.851562 78.53125 170.957031 81.703125 C 171.050781 84.214844 171.003906 86.75 170.964844 89.191406 C 170.925781 91.484375 170.894531 93.839844 170.957031 96.109375 L 171.003906 97.640625 C 171.136719 102.320312 171.261719 106.734375 171.917969 111.179688 C 172.871094 117.542969 174.515625 122.496094 176.941406 126.285156 C 177.9375 127.855469 179.390625 129.1875 180.917969 130.589844 C 182.65625 132.207031 184.476562 133.859375 185.847656 136.089844 C 188.125 139.726562 189.621094 143.992188 190.417969 149.109375 " fill-opacity="1" fill-rule="nonzero"/><path fill="#a9a0f0" d="M 181.542969 198.875 C 181.769531 198.480469 181.988281 198.113281 182.183594 197.792969 C 177.738281 192.628906 173.703125 187.160156 169.8125 181.859375 L 168.128906 179.597656 C 164.28125 174.386719 160.140625 168.886719 155.648438 163.941406 C 154.515625 162.6875 153.386719 161.492188 152.300781 160.410156 C 152.046875 160.167969 151.773438 159.902344 151.492188 159.660156 C 150.945312 159.167969 150.390625 158.683594 149.875 158.148438 C 149.828125 158.195312 149.78125 158.226562 149.738281 158.273438 C 148.699219 159.230469 147.644531 160.253906 146.578125 161.359375 C 144.667969 163.3125 142.753906 165.441406 140.734375 167.867188 C 137.039062 172.3125 133.527344 177.078125 130.121094 181.6875 L 128.539062 183.855469 C 126.578125 186.484375 124.472656 189.3125 122.296875 192.089844 C 121.222656 193.449219 120.136719 194.8125 119.015625 196.140625 C 118.929688 196.261719 118.625 196.582031 118.226562 197.011719 C 118.085938 197.175781 117.875 197.410156 117.640625 197.652344 C 123.757812 208.953125 130.792969 218.960938 138.558594 227.40625 C 140.539062 229.566406 142.617188 231.671875 144.714844 233.65625 C 145.8125 234.683594 146.914062 235.691406 148.042969 236.664062 C 148.441406 237.007812 148.941406 237.351562 149.480469 237.710938 C 149.691406 237.84375 149.90625 238 150.117188 238.132812 C 150.320312 237.9375 150.5 237.75 150.671875 237.601562 C 151.890625 236.578125 153.113281 235.496094 154.308594 234.386719 C 156.648438 232.226562 158.949219 229.910156 161.148438 227.515625 C 165.414062 222.890625 169.492188 217.757812 173.265625 212.277344 C 175.117188 209.570312 176.925781 206.722656 178.65625 203.820312 C 179.515625 202.417969 180.316406 200.996094 181.128906 199.5625 C 181.191406 199.453125 181.324219 199.210938 181.542969 198.875 Z M 184.445312 196.902344 C 184.765625 197.269531 184.8125 197.808594 184.570312 198.230469 C 184.289062 198.71875 183.921875 199.328125 183.5 200.054688 C 183.3125 200.359375 183.171875 200.585938 183.132812 200.679688 C 182.324219 202.128906 181.480469 203.578125 180.628906 205 C 178.867188 207.945312 177.035156 210.816406 175.140625 213.570312 C 171.308594 219.148438 167.167969 224.371094 162.832031 229.074219 C 160.585938 231.5 158.246094 233.855469 155.859375 236.070312 C 154.640625 237.203125 153.386719 238.304688 152.152344 239.355469 C 151.890625 239.574219 151.585938 239.910156 151.25 240.261719 L 151.09375 240.425781 C 150.867188 240.675781 150.5625 240.789062 150.257812 240.789062 C 150.007812 240.789062 149.765625 240.710938 149.574219 240.566406 C 149.113281 240.214844 148.652344 239.910156 148.207031 239.613281 C 147.597656 239.207031 147.054688 238.839844 146.53125 238.386719 C 145.382812 237.382812 144.253906 236.359375 143.152344 235.324219 C 141 233.289062 138.886719 231.152344 136.859375 228.953125 C 128.808594 220.199219 121.535156 209.78125 115.230469 198.019531 C 114.996094 197.589844 115.058594 197.074219 115.394531 196.722656 C 115.824219 196.230469 116.300781 195.726562 116.542969 195.453125 C 116.910156 195.070312 117.164062 194.78125 117.257812 194.671875 C 118.359375 193.363281 119.425781 192.011719 120.503906 190.671875 C 122.648438 187.925781 124.746094 185.109375 126.6875 182.480469 L 128.25 180.390625 C 131.695312 175.6875 135.238281 170.890625 138.980469 166.398438 C 141.046875 163.917969 142.980469 161.75 144.941406 159.753906 C 146.023438 158.640625 147.125 157.570312 148.183594 156.585938 C 148.496094 156.285156 148.777344 155.964844 148.957031 155.707031 C 149.175781 155.433594 149.511719 155.261719 149.875 155.261719 C 150.226562 155.261719 150.5625 155.417969 150.773438 155.707031 C 151.421875 156.53125 152.183594 157.21875 152.917969 157.875 C 153.332031 158.226562 153.628906 158.5 153.925781 158.785156 C 155.039062 159.902344 156.1875 161.109375 157.339844 162.398438 C 161.910156 167.421875 166.085938 172.964844 169.976562 178.222656 L 171.644531 180.5 C 175.691406 185.96875 179.867188 191.628906 184.445312 196.902344 " fill-opacity="1" fill-rule="nonzero"/><path fill="#a9a0f0" d="M 164.664062 205.265625 C 166.371094 199.726562 166.023438 194.257812 164.757812 190.0625 C 164.21875 188.246094 163.488281 186.65625 162.753906 185.21875 C 162.847656 185.554688 162.925781 185.890625 162.996094 186.242188 C 163.199219 187.160156 163.394531 187.996094 163.605469 189.113281 C 163.699219 189.695312 163.730469 190.640625 163.183594 191.46875 C 162.925781 191.878906 162.449219 192.292969 161.847656 192.457031 C 161.273438 192.613281 160.71875 192.535156 160.265625 192.347656 C 159.328125 191.980469 158.816406 191.21875 158.519531 190.671875 C 158.246094 190.109375 158.066406 189.664062 157.863281 189.15625 C 157.480469 188.167969 157.191406 187.191406 156.972656 186.242188 C 156.796875 185.382812 156.679688 184.578125 156.609375 183.800781 C 156.523438 184.058594 156.429688 184.300781 156.351562 184.578125 C 156.015625 185.765625 155.914062 186.925781 156.257812 188.261719 C 156.59375 189.617188 157.316406 191.039062 157.832031 192.871094 C 158.074219 193.792969 158.246094 194.78125 158.183594 195.867188 C 158.144531 196.933594 157.816406 198.160156 157.003906 199.132812 C 156.765625 199.40625 156.507812 199.804688 155.664062 199.992188 C 155.21875 200.070312 154.671875 199.929688 154.308594 199.59375 C 153.894531 199.257812 153.753906 198.796875 153.722656 198.523438 C 153.628906 197.972656 153.753906 197.574219 153.785156 197.363281 C 153.816406 197.167969 153.847656 196.964844 153.878906 196.769531 C 153.957031 195.945312 153.910156 195.101562 153.699219 194.273438 C 153.496094 193.449219 153.160156 192.746094 152.667969 191.925781 C 152.207031 191.117188 151.632812 190.195312 151.3125 189.082031 C 150.960938 187.925781 151.039062 186.734375 151.234375 185.765625 C 151.4375 184.773438 151.710938 183.917969 151.90625 183.121094 C 152.714844 180.039062 152.394531 177.03125 151.710938 174.675781 C 151.171875 172.886719 150.46875 171.484375 149.828125 170.398438 C 150.039062 170.953125 150.273438 171.578125 150.484375 172.265625 C 150.976562 174.035156 151.375 176.34375 150.773438 178.941406 C 150.148438 181.554688 148.441406 183.769531 147.265625 185.96875 C 146.289062 187.800781 145.78125 189.695312 146.210938 191.179688 L 146.226562 191.234375 C 146.40625 191.878906 146.023438 192.550781 145.382812 192.730469 C 144.878906 192.871094 144.363281 192.675781 144.074219 192.261719 C 143.378906 191.296875 142.996094 190.210938 142.894531 189.140625 C 142.847656 188.566406 142.863281 188.199219 142.847656 187.800781 C 142.832031 187.386719 142.800781 187.003906 142.769531 186.625 C 142.753906 186.351562 142.695312 186.101562 142.664062 185.84375 C 142.390625 186.671875 141.992188 187.511719 141.460938 188.347656 C 140.460938 189.96875 139.042969 191.542969 137.859375 193.363281 C 136.632812 195.164062 135.960938 197.363281 136.0625 199.882812 C 136.15625 202.371094 136.921875 205.078125 138.175781 207.660156 C 139.425781 210.226562 141.257812 212.695312 143.722656 214.492188 C 146.132812 216.277344 149.285156 217.328125 152.441406 217.144531 C 155.601562 216.996094 158.386719 215.386719 160.382812 213.078125 C 162.417969 210.785156 163.761719 207.992188 164.664062 205.265625 Z M 166.480469 189.492188 C 168.082031 193.9375 168.679688 199.835938 166.925781 205.949219 C 166.007812 208.96875 164.617188 212.058594 162.277344 214.75 C 161.132812 216.074219 159.726562 217.296875 158.066406 218.179688 C 156.398438 219.085938 154.5 219.609375 152.589844 219.707031 C 148.761719 219.941406 145.050781 218.65625 142.210938 216.519531 C 139.363281 214.398438 137.351562 211.550781 136.015625 208.664062 C 134.707031 205.792969 133.941406 202.816406 133.925781 199.914062 C 133.925781 198.480469 134.136719 197.058594 134.550781 195.757812 C 134.996094 194.460938 135.636719 193.300781 136.359375 192.332031 C 137.773438 190.398438 139.246094 188.980469 140.269531 187.558594 C 141.289062 186.148438 141.898438 184.804688 142.101562 183.613281 C 142.132812 183.417969 142.148438 183.230469 142.164062 183.050781 C 142.132812 182.941406 142.117188 182.800781 142.085938 182.714844 C 141.5 180.53125 140.953125 179.246094 141.210938 179.089844 C 141.445312 178.957031 142.46875 179.992188 143.503906 182.191406 C 143.917969 183.097656 144.332031 184.207031 144.636719 185.476562 C 144.746094 185.234375 144.863281 185 144.988281 184.773438 C 146.375 182.238281 147.917969 180.296875 148.464844 178.332031 C 149.066406 176.34375 148.941406 174.324219 148.699219 172.664062 C 148.128906 169.300781 147.457031 167.132812 147.855469 167.007812 C 147.949219 166.960938 148.167969 167.179688 148.441406 167.578125 C 148.777344 167.757812 149.285156 168.105469 149.921875 168.707031 C 151.007812 169.761719 152.441406 171.5 153.433594 174.082031 C 154.449219 176.617188 155.023438 180.023438 154.230469 183.691406 C 153.816406 185.445312 153.285156 187.066406 153.722656 188.363281 C 153.878906 188.839844 154.136719 189.34375 154.453125 189.890625 C 154.355469 189.507812 154.246094 189.113281 154.183594 188.714844 C 153.816406 187.035156 154.105469 185.265625 154.625 183.996094 C 155.125 182.699219 155.710938 181.664062 156.125 180.757812 C 156.460938 180.070312 156.679688 179.457031 156.839844 178.910156 C 156.933594 178.527344 157.003906 178.175781 157.097656 177.886719 C 157.300781 176.875 157.222656 176.265625 157.394531 176.21875 C 157.449219 176.1875 157.605469 176.359375 157.738281 176.695312 C 157.777344 176.679688 157.800781 176.664062 157.816406 176.664062 C 158.199219 176.742188 158.074219 178.464844 158.386719 181.109375 C 158.519531 182.433594 158.800781 183.996094 159.28125 185.664062 C 159.53125 186.484375 159.835938 187.339844 160.203125 188.214844 C 160.382812 188.628906 160.601562 189.113281 160.78125 189.460938 C 160.921875 189.695312 161.03125 189.828125 161.101562 189.890625 C 161.117188 189.796875 161.132812 189.664062 161.101562 189.445312 C 160.953125 188.488281 160.796875 187.574219 160.664062 186.6875 C 160.382812 184.867188 160.171875 183.230469 160.015625 181.84375 C 159.882812 180.453125 159.804688 179.308594 159.820312 178.527344 C 159.5 177.109375 159.617188 176.28125 159.726562 176.28125 C 159.835938 176.28125 159.929688 176.632812 160.15625 177.289062 C 160.445312 177.382812 160.890625 178.417969 161.429688 180.148438 C 161.988281 181.203125 162.753906 182.410156 163.660156 183.832031 C 164.648438 185.351562 165.703125 187.261719 166.480469 189.492188 " fill-opacity="1" fill-rule="nonzero"/></svg>