<svg xmlns="http://www.w3.org/2000/svg" xmlns:xlink="http://www.w3.org/1999/xlink" width="400" zoomAndPan="magnify" viewBox="0 0 300 299.999988" height="400" preserveAspectRatio="xMidYMid meet" version="1.0"><path fill="#a9a0f0" d="M 125.675781 243.207031 C 124.914062 243.207031 124.914062 244.394531 125.675781 244.394531 C 126.441406 244.394531 126.441406 243.207031 125.675781 243.207031 Z M 176.382812 228.894531 C 175.476562 230.609375 174.898438 232.515625 174.359375 234.371094 C 173.976562 235.691406 172.972656 238.105469 173.78125 239.378906 C 173.863281 239.507812 174.058594 239.550781 174.167969 239.429688 C 174.640625 238.90625 174.601562 238.523438 174.695312 237.808594 C 174.835938 236.726562 174.882812 235.640625 175.050781 234.5625 C 175.351562 232.628906 175.960938 230.8125 176.484375 228.9375 C 176.503906 228.875 176.410156 228.835938 176.382812 228.894531 Z M 125.980469 240.390625 C 125.96875 240.320312 125.957031 240.261719 125.941406 240.207031 C 125.503906 238.054688 124.984375 235.914062 124.515625 233.765625 C 124.140625 232.066406 123.695312 230.320312 122.59375 228.9375 C 122.539062 228.867188 122.433594 228.957031 122.472656 229.03125 C 124.398438 232.578125 124.296875 236.636719 124.777344 240.550781 C 124.886719 241.441406 126.160156 241.261719 125.980469 240.390625 Z M 183.445312 219.125 C 183.011719 219.125 183.011719 219.796875 183.445312 219.796875 C 183.878906 219.796875 183.878906 219.125 183.445312 219.125 Z M 185.390625 216.289062 C 184.804688 216.289062 184.367188 216.863281 184.523438 217.425781 C 184.652344 217.902344 185.160156 218.1875 185.632812 218.058594 C 186.054688 217.9375 186.382812 217.472656 186.28125 217.03125 C 186.183594 216.609375 185.839844 216.289062 185.390625 216.289062 Z M 191.507812 196.148438 C 191.476562 196.085938 191.378906 196.132812 191.394531 196.195312 C 191.800781 197.953125 192.484375 199.664062 193.027344 201.378906 C 193.5625 203.058594 194.558594 205.042969 194.097656 206.816406 C 193.722656 208.273438 192.246094 209.460938 191.144531 210.386719 C 189.871094 211.457031 188.308594 212.410156 187.226562 213.671875 C 186.722656 214.257812 187.355469 215.179688 188.070312 214.769531 C 189.664062 213.855469 191.09375 212.367188 192.476562 211.164062 C 193.742188 210.066406 194.828125 208.789062 195.152344 207.105469 C 195.476562 205.417969 194.554688 203.671875 193.953125 202.148438 C 193.164062 200.160156 192.464844 198.0625 191.507812 196.148438 Z M 158.632812 191.046875 C 158.023438 190.609375 157.683594 190.746094 156.925781 190.769531 C 155.910156 190.808594 154.886719 190.800781 153.871094 190.804688 C 151.832031 190.808594 149.796875 190.820312 147.757812 190.765625 C 143.851562 190.660156 139.984375 190.261719 136.089844 190 C 136.054688 189.996094 136.046875 190.054688 136.082031 190.0625 C 139.753906 190.746094 143.53125 191.070312 147.25 191.390625 C 149.285156 191.570312 151.320312 191.746094 153.359375 191.832031 C 154.378906 191.878906 155.398438 191.910156 156.417969 191.933594 C 157.261719 191.957031 157.9375 192.171875 158.632812 191.65625 C 158.855469 191.492188 158.863281 191.210938 158.632812 191.046875 Z M 169.488281 190.195312 C 169.105469 190.195312 168.785156 190.515625 168.785156 190.898438 C 168.785156 191.285156 169.105469 191.605469 169.488281 191.605469 C 169.875 191.605469 170.195312 191.285156 170.195312 190.898438 C 170.195312 190.515625 169.875 190.195312 169.488281 190.195312 Z M 175.273438 189.257812 C 175.226562 189.273438 175.179688 189.289062 175.128906 189.304688 C 174.933594 189.375 174.820312 189.453125 174.660156 189.585938 C 174.371094 189.832031 174.34375 190.316406 174.527344 190.628906 C 174.722656 190.960938 175.125 191.128906 175.5 191.023438 C 175.667969 190.980469 175.792969 190.90625 175.925781 190.808594 C 176.054688 190.730469 176.15625 190.628906 176.230469 190.503906 C 176.347656 190.308594 176.378906 190.070312 176.316406 189.847656 C 176.199219 189.425781 175.710938 189.105469 175.273438 189.257812 Z M 197.398438 126.925781 C 196.113281 138.625 195.144531 150.371094 193.539062 162.03125 C 192.796875 167.410156 192.742188 172.890625 191.132812 178.121094 C 190.40625 180.488281 189.195312 182.628906 187.488281 184.421875 C 185.726562 186.269531 183.683594 186.96875 181.285156 187.566406 C 180.21875 187.835938 180.523438 189.320312 181.53125 189.394531 C 186.175781 189.722656 190.160156 185.21875 191.859375 181.382812 C 194.132812 176.25 194.03125 170.242188 194.511719 164.75 C 195.058594 158.453125 195.410156 152.136719 195.925781 145.835938 C 196.4375 139.53125 197.050781 133.234375 197.558594 126.925781 C 197.570312 126.820312 197.410156 126.824219 197.398438 126.925781 Z M 100.867188 98.8125 C 100.824219 98.457031 100.671875 98.238281 100.332031 98.105469 C 100.304688 98.097656 100.277344 98.089844 100.253906 98.078125 C 99.980469 97.972656 99.605469 98.140625 99.476562 98.394531 C 99.386719 98.566406 99.335938 98.710938 99.339844 98.910156 C 99.339844 99.082031 99.410156 99.21875 99.519531 99.316406 C 99.875 100.636719 99.878906 102.21875 100.066406 103.542969 C 100.304688 105.222656 100.550781 106.898438 100.800781 108.574219 C 101.304688 111.925781 101.8125 115.277344 102.378906 118.621094 C 103.507812 125.277344 104.367188 132.078125 105.960938 138.640625 C 105.964844 138.660156 105.996094 138.65625 105.992188 138.640625 C 105.210938 132.082031 103.996094 125.582031 103.234375 119.015625 C 102.457031 112.28125 101.703125 105.539062 100.867188 98.8125 Z M 130.867188 34.847656 C 131.355469 34.847656 131.355469 34.09375 130.867188 34.09375 C 130.382812 34.09375 130.382812 34.847656 130.867188 34.847656 Z M 125.675781 35.703125 C 126.171875 35.703125 126.585938 35.289062 126.585938 34.796875 C 126.585938 34.300781 126.171875 33.886719 125.675781 33.886719 C 125.179688 33.886719 124.769531 34.300781 124.769531 34.796875 C 124.769531 35.289062 125.179688 35.703125 125.675781 35.703125 Z M 121.441406 34.625 C 116.046875 34.78125 110.492188 35.441406 105.820312 38.34375 C 101.671875 40.917969 98.949219 45.195312 97.359375 49.726562 C 95.351562 55.449219 95.394531 61.679688 95.773438 67.652344 C 96.191406 74.230469 96.773438 80.863281 97.527344 87.410156 C 97.644531 88.441406 99.246094 88.488281 99.171875 87.410156 C 98.765625 81.316406 98.085938 75.222656 97.523438 69.140625 C 96.980469 63.308594 96.671875 57.3125 98.09375 51.570312 C 99.277344 46.785156 101.832031 42.09375 105.789062 39.054688 C 110.238281 35.636719 116.097656 35.390625 121.441406 34.785156 C 121.542969 34.773438 121.546875 34.621094 121.441406 34.625 Z M 207.65625 65.953125 C 205.671875 83.109375 205.054688 99.765625 203.171875 116.9375 C 201.292969 134.101562 199.375 151.261719 197.285156 168.398438 C 196.71875 173.039062 196.121094 177.804688 196.089844 182.542969 C 196.074219 185.167969 194.757812 187.617188 192.574219 189.074219 C 192.5625 189.082031 192.550781 189.089844 192.535156 189.097656 C 188.550781 191.742188 184.109375 193.683594 179.539062 195.074219 C 174.195312 196.699219 168.605469 197.355469 163.046875 197.675781 C 160.230469 197.835938 139.765625 197.835938 136.949219 197.675781 C 131.390625 197.355469 125.800781 196.699219 120.457031 195.074219 C 115.886719 193.683594 111.449219 191.742188 107.460938 189.097656 C 107.449219 189.089844 107.4375 189.082031 107.425781 189.074219 C 105.238281 187.617188 103.921875 185.167969 103.90625 182.542969 C 103.878906 177.804688 103.277344 173.039062 102.710938 168.398438 C 100.625 151.261719 98.707031 134.101562 96.824219 116.9375 C 94.945312 99.765625 94.324219 83.109375 92.34375 65.953125 C 91.878906 61.941406 91.335938 57.832031 91.816406 53.789062 C 92.054688 51.824219 92.210938 49.636719 93.023438 47.8125 C 93.667969 46.359375 94.488281 45 95.488281 43.761719 C 99.644531 38.601562 104.816406 34.441406 111.191406 32.792969 C 113.1875 32.273438 115.148438 31.640625 117.191406 31.320312 C 119.125 31.015625 121.101562 30.90625 123.058594 30.859375 C 127.367188 30.757812 131.675781 30.980469 135.957031 31.464844 C 140.578125 31.988281 145.304688 32.230469 150 32.230469 C 154.691406 32.230469 159.417969 31.988281 164.042969 31.464844 C 168.324219 30.980469 172.632812 30.757812 176.9375 30.859375 C 178.894531 30.90625 180.871094 31.015625 182.804688 31.320312 C 184.847656 31.640625 186.808594 32.273438 188.804688 32.792969 C 195.179688 34.441406 200.355469 38.601562 204.507812 43.761719 C 205.507812 45 206.328125 46.359375 206.976562 47.8125 C 207.789062 49.636719 207.945312 51.824219 208.179688 53.789062 C 208.664062 57.832031 208.121094 61.941406 207.65625 65.953125 Z M 197.730469 213.035156 C 195.546875 215.242188 192.675781 216.6875 190.097656 218.371094 C 187.457031 220.101562 185.191406 222.222656 183.265625 224.722656 C 179.585938 229.496094 177.855469 235.613281 178.148438 241.613281 C 178.191406 242.582031 177.917969 243.550781 177.300781 244.300781 C 176.328125 245.484375 174.980469 246.398438 173.59375 246.945312 C 170.742188 248.082031 167.511719 248.535156 164.496094 249.015625 C 161.429688 249.511719 158.328125 249.78125 155.226562 249.902344 C 155.074219 249.914062 154.921875 249.917969 154.769531 249.921875 C 153.179688 249.980469 146.820312 249.980469 145.230469 249.921875 C 145.074219 249.917969 144.921875 249.914062 144.769531 249.902344 C 141.667969 249.78125 138.566406 249.511719 135.5 249.015625 C 132.488281 248.535156 129.257812 248.082031 126.40625 246.945312 C 125.015625 246.398438 123.667969 245.484375 122.695312 244.300781 C 122.082031 243.550781 121.804688 242.582031 121.851562 241.613281 C 122.140625 235.613281 120.414062 229.496094 116.730469 224.722656 C 114.804688 222.222656 112.542969 220.101562 109.898438 218.371094 C 107.324219 216.6875 104.453125 215.242188 102.269531 213.035156 C 96.152344 206.863281 101.449219 199.003906 102.988281 192.085938 C 102.988281 192.070312 102.992188 192.058594 102.996094 192.046875 C 103.375 190.324219 105.285156 189.441406 106.824219 190.296875 C 106.929688 190.355469 107.03125 190.414062 107.136719 190.46875 C 111.296875 192.710938 115.738281 194.394531 120.320312 195.566406 C 125.609375 196.921875 131.019531 197.789062 136.453125 198.285156 C 139.4375 198.558594 142.390625 198.664062 145.394531 198.65625 C 146.933594 198.652344 153.023438 198.652344 154.5625 198.65625 C 157.566406 198.664062 160.558594 198.558594 163.542969 198.285156 C 168.976562 197.789062 174.390625 196.921875 179.675781 195.566406 C 184.257812 194.394531 188.699219 192.710938 192.863281 190.46875 C 192.964844 190.414062 193.070312 190.355469 193.171875 190.296875 C 194.714844 189.441406 196.625 190.324219 197.003906 192.046875 C 197.003906 192.058594 197.007812 192.070312 197.011719 192.085938 C 198.550781 199.003906 203.84375 206.863281 197.730469 213.035156 Z M 179.03125 246.109375 C 179.113281 246.011719 179.246094 246.128906 179.253906 246.269531 C 179.421875 248.910156 179.914062 251.574219 179.953125 254.160156 C 179.972656 255.523438 179.824219 256.855469 179.523438 258.160156 C 179.464844 258.414062 179.089844 258.375 179.082031 258.117188 C 179.070312 257.726562 179.058594 257.339844 179.050781 256.953125 C 178.964844 253.558594 178.886719 250.164062 178.800781 246.769531 C 178.792969 246.53125 178.875 246.292969 179.03125 246.109375 Z M 178.5625 256.4375 C 178.546875 257.601562 178.523438 258.769531 178.503906 259.933594 C 178.484375 261.078125 178.136719 262.199219 177.488281 263.144531 C 177.445312 263.214844 177.40625 263.261719 177.386719 263.292969 C 177.3125 263.375 177.238281 263.457031 177.164062 263.535156 C 176.804688 263.914062 176.167969 263.660156 176.148438 263.136719 C 176.105469 261.765625 176.054688 260.398438 176.019531 259.027344 C 175.9375 255.679688 175.859375 252.332031 175.773438 248.980469 C 175.765625 248.621094 175.96875 248.285156 176.292969 248.132812 C 176.863281 247.855469 177.40625 247.535156 177.910156 247.15625 C 178.214844 246.925781 178.648438 247.144531 178.644531 247.527344 C 178.617188 250.496094 178.59375 253.46875 178.5625 256.4375 Z M 166.808594 250.074219 C 163.503906 250.773438 160.253906 250.980469 156.894531 251.042969 C 155.484375 251.074219 144.511719 251.074219 143.101562 251.042969 C 139.742188 250.980469 136.496094 250.773438 133.191406 250.074219 C 130.21875 249.445312 126.945312 248.753906 124.296875 247.195312 C 123.183594 246.542969 123.246094 246.15625 124.484375 246.761719 C 127.363281 248.15625 131.222656 248.796875 133.417969 249.195312 C 136.992188 249.84375 140.613281 250.269531 144.246094 250.429688 C 146.101562 250.515625 148.058594 250.628906 150 250.609375 C 151.941406 250.628906 153.894531 250.515625 155.753906 250.429688 C 159.382812 250.269531 163.003906 249.84375 166.578125 249.195312 C 168.777344 248.796875 172.632812 248.15625 175.511719 246.761719 C 176.75 246.15625 176.8125 246.542969 175.699219 247.195312 C 173.050781 248.753906 169.78125 249.445312 166.808594 250.074219 Z M 175.53125 258.511719 C 175.511719 260.402344 175.460938 262.292969 175.4375 264.179688 L 175.4375 264.277344 C 175.425781 264.691406 175.195312 265.0625 174.832031 265.257812 C 174.824219 265.261719 174.816406 265.265625 174.808594 265.269531 C 174.058594 265.667969 173.148438 265.148438 173.125 264.300781 C 173.078125 262.917969 173.027344 261.535156 172.992188 260.15625 C 172.90625 256.820312 172.832031 253.488281 172.746094 250.152344 C 172.734375 249.6875 173.042969 249.269531 173.488281 249.144531 C 173.753906 249.074219 174.019531 248.996094 174.28125 248.914062 C 174.945312 248.703125 175.621094 249.195312 175.613281 249.890625 C 175.585938 252.765625 175.5625 255.640625 175.53125 258.511719 Z M 172.5 259.636719 C 172.484375 261.527344 172.433594 263.414062 172.410156 265.304688 C 172.40625 265.398438 172.40625 265.492188 172.402344 265.585938 C 172.386719 266.070312 172.066406 266.5 171.597656 266.644531 C 171.59375 266.644531 171.585938 266.648438 171.578125 266.652344 C 170.863281 266.871094 170.132812 266.351562 170.109375 265.601562 C 170.058594 264.230469 169.992188 262.207031 169.960938 261.019531 C 169.875 257.609375 169.796875 254.203125 169.710938 250.792969 C 169.699219 250.363281 169.992188 249.984375 170.410156 249.890625 C 170.726562 249.820312 171.105469 249.734375 171.484375 249.644531 C 172.050781 249.511719 172.59375 249.949219 172.589844 250.535156 C 172.558594 253.566406 172.535156 256.605469 172.5 259.636719 Z M 169.472656 260.503906 C 169.457031 261.929688 169.398438 264.820312 169.363281 266.304688 C 169.347656 266.847656 168.953125 267.296875 168.425781 267.390625 C 168.417969 267.390625 168.410156 267.394531 168.402344 267.394531 C 167.730469 267.511719 167.105469 267.003906 167.082031 266.320312 C 167.035156 264.964844 166.964844 262.851562 166.933594 261.625 C 166.851562 258.375 166.777344 255.128906 166.695312 251.878906 C 166.679688 251.195312 167.148438 250.59375 167.824219 250.460938 C 167.832031 250.457031 167.839844 250.457031 167.851562 250.457031 C 168.738281 250.273438 169.566406 250.953125 169.554688 251.855469 C 169.527344 254.738281 169.503906 257.621094 169.472656 260.503906 Z M 166.445312 261.109375 C 166.421875 263 166.375 264.886719 166.351562 266.777344 L 166.351562 266.785156 C 166.34375 267.316406 165.933594 267.753906 165.40625 267.8125 C 165.347656 267.816406 165.289062 267.824219 165.230469 267.828125 C 164.613281 267.894531 164.070312 267.421875 164.054688 266.800781 C 164.003906 265.246094 163.945312 263.695312 163.90625 262.144531 C 163.820312 258.804688 163.742188 255.464844 163.65625 252.121094 C 163.644531 251.585938 164.035156 251.121094 164.566406 251.039062 C 164.808594 251.003906 165.050781 250.964844 165.292969 250.921875 C 165.945312 250.816406 166.539062 251.324219 166.53125 251.988281 C 166.5 255.027344 166.476562 258.070312 166.445312 261.109375 Z M 163.414062 261.628906 C 163.402344 262.996094 163.351562 265.59375 163.320312 267.023438 C 163.308594 267.589844 162.871094 268.058594 162.308594 268.109375 C 162.285156 268.109375 162.257812 268.113281 162.234375 268.117188 L 162.226562 268.117188 C 161.589844 268.171875 161.042969 267.675781 161.023438 267.039062 C 160.972656 265.496094 160.914062 263.949219 160.875 262.402344 C 160.789062 259.078125 160.714844 255.75 160.632812 252.421875 C 160.617188 251.9375 160.976562 251.527344 161.453125 251.46875 C 161.785156 251.429688 162.117188 251.386719 162.449219 251.34375 C 163.015625 251.269531 163.511719 251.710938 163.503906 252.28125 C 163.472656 255.398438 163.449219 258.511719 163.414062 261.628906 Z M 160.386719 261.890625 C 160.367188 263.777344 160.316406 265.667969 160.292969 267.554688 L 160.292969 267.5625 C 160.289062 267.957031 159.972656 268.277344 159.578125 268.296875 C 159.320312 268.308594 159.058594 268.320312 158.800781 268.332031 C 158.378906 268.34375 158.019531 268.015625 158.007812 267.585938 C 157.957031 265.890625 157.890625 264.191406 157.84375 262.492188 C 157.761719 259.199219 157.6875 255.90625 157.601562 252.613281 C 157.59375 252.199219 157.90625 251.851562 158.324219 251.808594 L 158.332031 251.808594 C 158.753906 251.769531 159.179688 251.726562 159.601562 251.679688 C 160.074219 251.632812 160.480469 252 160.476562 252.472656 C 160.445312 255.613281 160.417969 258.75 160.386719 261.890625 Z M 157.355469 261.976562 C 157.34375 263.300781 157.292969 265.816406 157.261719 267.269531 C 157.25 267.882812 156.75 268.378906 156.132812 268.386719 L 156.109375 268.386719 C 155.488281 268.390625 154.984375 267.890625 154.964844 267.273438 C 154.917969 265.707031 154.855469 264.140625 154.816406 262.578125 C 154.734375 259.3125 154.660156 256.050781 154.574219 252.785156 C 154.566406 252.351562 154.910156 251.984375 155.34375 251.980469 C 155.773438 251.972656 156.199219 251.957031 156.621094 251.933594 C 157.074219 251.914062 157.449219 252.277344 157.445312 252.730469 C 157.414062 255.8125 157.386719 258.894531 157.355469 261.976562 Z M 154.328125 262.0625 C 154.3125 263.371094 154.269531 265.800781 154.238281 267.234375 C 154.226562 267.839844 153.746094 268.324219 153.148438 268.347656 C 153.121094 268.351562 153.09375 268.351562 153.066406 268.351562 C 153.054688 268.351562 153.046875 268.347656 153.039062 268.347656 C 152.796875 268.34375 152.566406 268.257812 152.382812 268.121094 C 152.117188 267.917969 151.941406 267.597656 151.929688 267.238281 C 151.882812 265.746094 151.828125 264.246094 151.789062 262.75 C 151.703125 259.503906 151.632812 256.261719 151.550781 253.015625 C 151.535156 252.382812 152.066406 251.875 152.703125 251.917969 C 152.925781 251.929688 153.15625 251.941406 153.382812 251.953125 C 153.964844 251.976562 154.421875 252.457031 154.414062 253.039062 C 154.382812 256.046875 154.359375 259.054688 154.328125 262.0625 Z M 151.300781 262.234375 C 151.285156 263.621094 151.238281 266.167969 151.210938 267.472656 C 151.207031 267.8125 150.992188 268.097656 150.695312 268.207031 C 150.597656 268.246094 149.402344 268.246094 149.304688 268.207031 C 149.007812 268.097656 148.792969 267.8125 148.785156 267.472656 C 148.761719 266.167969 148.714844 263.621094 148.699219 262.234375 C 148.664062 259.011719 148.664062 256.144531 148.628906 252.921875 C 148.625 252.488281 148.9375 252.121094 149.363281 252.058594 C 149.585938 252.03125 150.457031 252.03125 150.679688 252.058594 C 151.101562 252.121094 151.417969 252.488281 151.414062 252.921875 C 151.378906 256.144531 151.332031 259.011719 151.300781 262.234375 Z M 148.210938 262.75 C 148.171875 264.246094 148.113281 265.746094 148.066406 267.238281 C 148.058594 267.597656 147.878906 267.917969 147.613281 268.121094 C 147.429688 268.257812 147.203125 268.34375 146.957031 268.347656 C 146.949219 268.347656 146.941406 268.351562 146.933594 268.351562 C 146.90625 268.351562 146.878906 268.351562 146.847656 268.347656 C 146.253906 268.320312 145.773438 267.835938 145.757812 267.234375 C 145.726562 265.800781 145.683594 263.371094 145.671875 262.0625 C 145.640625 259.054688 145.613281 256.046875 145.585938 253.039062 C 145.578125 252.457031 146.035156 251.976562 146.617188 251.953125 C 146.839844 251.941406 147.070312 251.929688 147.296875 251.917969 C 147.933594 251.875 148.464844 252.382812 148.449219 253.015625 C 148.367188 256.261719 148.292969 259.503906 148.210938 262.75 Z M 145.179688 262.578125 C 145.140625 264.140625 145.082031 265.707031 145.03125 267.273438 C 145.011719 267.890625 144.507812 268.390625 143.886719 268.386719 L 143.863281 268.386719 C 143.246094 268.378906 142.746094 267.882812 142.734375 267.269531 C 142.703125 265.816406 142.65625 263.300781 142.640625 261.976562 C 142.609375 258.894531 142.582031 255.8125 142.550781 252.730469 C 142.546875 252.277344 142.921875 251.914062 143.375 251.933594 C 143.800781 251.957031 144.222656 251.972656 144.652344 251.980469 C 145.089844 251.984375 145.433594 252.351562 145.421875 252.785156 C 145.339844 256.050781 145.261719 259.3125 145.179688 262.578125 Z M 142.152344 262.492188 C 142.109375 264.191406 142.039062 265.890625 141.988281 267.585938 C 141.980469 268.015625 141.621094 268.34375 141.195312 268.332031 C 140.9375 268.320312 140.679688 268.308594 140.421875 268.296875 C 140.027344 268.277344 139.710938 267.957031 139.703125 267.5625 L 139.703125 267.554688 C 139.679688 265.667969 139.632812 263.777344 139.609375 261.890625 C 139.578125 258.75 139.554688 255.613281 139.523438 252.472656 C 139.515625 252 139.925781 251.632812 140.394531 251.679688 C 140.816406 251.726562 141.242188 251.769531 141.667969 251.808594 L 141.675781 251.808594 C 142.089844 251.851562 142.40625 252.199219 142.394531 252.613281 C 142.3125 255.90625 142.234375 259.199219 142.152344 262.492188 Z M 139.121094 262.402344 C 139.082031 263.949219 139.023438 265.496094 138.976562 267.039062 C 138.953125 267.675781 138.410156 268.171875 137.773438 268.117188 L 137.761719 268.117188 C 137.738281 268.113281 137.714844 268.109375 137.6875 268.109375 C 137.125 268.058594 136.691406 267.589844 136.675781 267.023438 C 136.644531 265.59375 136.597656 262.996094 136.582031 261.628906 C 136.550781 258.511719 136.527344 255.398438 136.492188 252.28125 C 136.488281 251.710938 136.984375 251.269531 137.546875 251.34375 C 137.878906 251.386719 138.210938 251.429688 138.542969 251.46875 C 139.023438 251.527344 139.378906 251.9375 139.367188 252.421875 C 139.285156 255.75 139.207031 259.078125 139.121094 262.402344 Z M 136.09375 262.144531 C 136.054688 263.695312 135.992188 265.246094 135.945312 266.800781 C 135.925781 267.421875 135.382812 267.894531 134.765625 267.828125 C 134.707031 267.824219 134.648438 267.816406 134.59375 267.8125 C 134.066406 267.753906 133.652344 267.316406 133.648438 266.785156 L 133.648438 266.777344 C 133.625 264.886719 133.574219 263 133.554688 261.109375 C 133.523438 258.070312 133.5 255.027344 133.46875 251.988281 C 133.460938 251.324219 134.050781 250.816406 134.707031 250.921875 C 134.949219 250.964844 135.191406 251.003906 135.429688 251.039062 C 135.964844 251.121094 136.351562 251.585938 136.339844 252.121094 C 136.253906 255.464844 136.179688 258.804688 136.09375 262.144531 Z M 133.066406 261.625 C 133.035156 262.851562 132.960938 264.964844 132.914062 266.320312 C 132.890625 267.003906 132.269531 267.511719 131.597656 267.394531 C 131.589844 267.394531 131.582031 267.390625 131.574219 267.390625 C 131.042969 267.296875 130.648438 266.847656 130.636719 266.304688 C 130.597656 264.820312 130.539062 261.929688 130.523438 260.503906 C 130.496094 257.621094 130.472656 254.738281 130.445312 251.855469 C 130.433594 250.953125 131.261719 250.273438 132.144531 250.457031 C 132.15625 250.457031 132.167969 250.457031 132.175781 250.460938 C 132.847656 250.59375 133.320312 251.195312 133.304688 251.878906 C 133.222656 255.128906 133.148438 258.375 133.066406 261.625 Z M 130.035156 261.019531 C 130.003906 262.207031 129.9375 264.230469 129.890625 265.601562 C 129.863281 266.351562 129.132812 266.871094 128.421875 266.652344 C 128.414062 266.648438 128.40625 266.644531 128.398438 266.644531 C 127.933594 266.5 127.609375 266.070312 127.59375 265.585938 C 127.59375 265.492188 127.589844 265.398438 127.585938 265.304688 C 127.5625 263.414062 127.515625 261.527344 127.496094 259.636719 C 127.460938 256.605469 127.4375 253.566406 127.410156 250.535156 C 127.402344 249.949219 127.945312 249.511719 128.515625 249.644531 C 128.894531 249.734375 129.273438 249.820312 129.585938 249.890625 C 130.003906 249.984375 130.296875 250.363281 130.289062 250.792969 C 130.199219 254.203125 130.121094 257.609375 130.035156 261.019531 Z M 127.003906 260.15625 C 126.972656 261.535156 126.921875 262.917969 126.875 264.300781 C 126.847656 265.148438 125.9375 265.667969 125.191406 265.269531 C 125.179688 265.265625 125.171875 265.261719 125.164062 265.257812 C 124.804688 265.0625 124.570312 264.691406 124.558594 264.277344 L 124.558594 264.179688 C 124.535156 262.292969 124.488281 260.402344 124.464844 258.511719 C 124.433594 255.640625 124.414062 252.765625 124.382812 249.890625 C 124.378906 249.195312 125.054688 248.703125 125.71875 248.914062 C 125.980469 248.996094 126.242188 249.074219 126.507812 249.144531 C 126.957031 249.269531 127.265625 249.6875 127.253906 250.152344 C 127.167969 253.488281 127.089844 256.820312 127.003906 260.15625 Z M 123.980469 259.027344 C 123.941406 260.398438 123.894531 261.765625 123.847656 263.136719 C 123.832031 263.660156 123.191406 263.914062 122.832031 263.535156 C 122.757812 263.457031 122.683594 263.375 122.613281 263.292969 C 122.589844 263.261719 122.554688 263.214844 122.507812 263.144531 C 121.859375 262.199219 121.515625 261.078125 121.492188 259.933594 C 121.472656 258.769531 121.449219 257.601562 121.4375 256.4375 C 121.40625 253.46875 121.382812 250.496094 121.351562 247.527344 C 121.347656 247.144531 121.785156 246.925781 122.089844 247.15625 C 122.59375 247.535156 123.132812 247.855469 123.707031 248.132812 C 124.03125 248.285156 124.234375 248.621094 124.226562 248.980469 C 124.140625 252.332031 124.0625 255.679688 123.980469 259.027344 Z M 120.949219 256.953125 C 120.9375 257.339844 120.929688 257.726562 120.914062 258.117188 C 120.90625 258.375 120.53125 258.414062 120.476562 258.160156 C 120.171875 256.855469 120.023438 255.523438 120.046875 254.160156 C 120.082031 251.574219 120.578125 248.910156 120.742188 246.269531 C 120.75 246.128906 120.886719 246.011719 120.964844 246.109375 C 121.121094 246.292969 121.207031 246.53125 121.199219 246.769531 C 121.113281 250.164062 121.035156 253.558594 120.949219 256.953125 Z M 210.617188 53.242188 C 210.28125 50.050781 208.785156 46.984375 207.222656 44.203125 C 204.164062 38.75 199.003906 34.980469 193.292969 32.675781 C 189.84375 31.289062 186.382812 30.78125 182.71875 30.464844 C 178.398438 30.09375 174.0625 30.003906 169.730469 30.15625 C 165.828125 30.292969 161.933594 30.398438 158.035156 30.648438 C 155.359375 30.824219 152.683594 31.054688 150 31.054688 C 147.316406 31.054688 144.636719 30.824219 141.964844 30.648438 C 138.0625 30.398438 134.167969 30.292969 130.265625 30.15625 C 125.9375 30.003906 121.597656 30.09375 117.28125 30.464844 C 113.617188 30.78125 110.152344 31.289062 106.703125 32.675781 C 100.992188 34.980469 95.835938 38.75 92.777344 44.203125 C 91.210938 46.984375 89.71875 50.050781 89.382812 53.242188 C 88.957031 57.304688 89.410156 61.363281 89.859375 65.402344 C 91.785156 82.597656 94.128906 99.75 96.15625 116.9375 C 98.179688 134.078125 100.195312 151.230469 101.972656 168.398438 C 102.808594 176.460938 103.390625 184.675781 101.289062 192.609375 C 99.570312 199.097656 95.257812 206.378906 99.914062 212.648438 C 101.648438 214.980469 104.199219 216.578125 106.628906 218.089844 C 109.417969 219.824219 112.113281 221.605469 114.292969 224.101562 C 117.898438 228.230469 120.3125 233.425781 121.003906 238.855469 C 121.101562 239.613281 120.84375 240.351562 120.355469 240.941406 C 119.9375 241.457031 119.796875 242.195312 119.84375 242.976562 C 119.894531 243.878906 119.894531 244.789062 119.773438 245.683594 C 119.609375 246.925781 119.421875 248.164062 119.226562 249.414062 C 118.875 251.652344 118.582031 253.953125 118.75 256.21875 C 118.890625 258.089844 119.0625 260.210938 120.300781 261.714844 C 121.519531 263.191406 122.617188 264.585938 124.332031 265.546875 C 128.167969 267.6875 132.875 268.230469 137.148438 268.867188 C 140.4375 269.355469 143.753906 269.757812 147.074219 269.953125 C 148.050781 270.007812 151.949219 270.007812 152.921875 269.953125 C 156.246094 269.757812 159.5625 269.355469 162.847656 268.867188 C 167.125 268.230469 171.832031 267.6875 175.664062 265.546875 C 177.378906 264.585938 178.476562 263.191406 179.699219 261.714844 C 180.9375 260.210938 181.109375 258.089844 181.25 256.21875 C 181.417969 253.953125 181.125 251.652344 180.769531 249.414062 C 180.574219 248.164062 180.390625 246.925781 180.222656 245.683594 C 180.101562 244.789062 180.101562 243.878906 180.15625 242.976562 C 180.203125 242.195312 180.0625 241.457031 179.640625 240.941406 C 179.15625 240.351562 178.894531 239.613281 178.992188 238.855469 C 179.683594 233.425781 182.101562 228.230469 185.707031 224.101562 C 187.882812 221.605469 190.578125 219.824219 193.367188 218.089844 C 195.796875 216.578125 198.351562 214.980469 200.082031 212.648438 C 204.738281 206.378906 200.425781 199.097656 198.707031 192.609375 C 196.609375 184.675781 197.1875 176.460938 198.023438 168.398438 C 199.804688 151.230469 201.820312 134.078125 203.84375 116.9375 C 205.871094 99.75 208.214844 82.597656 210.136719 65.402344 C 210.589844 61.363281 211.042969 57.304688 210.617188 53.242188 Z M 177.980469 154.386719 C 176.949219 160.910156 175.675781 167.648438 170.972656 172.621094 C 168.671875 175.050781 165.625 176.546875 162.417969 177.367188 C 160.847656 177.769531 159.238281 177.96875 157.621094 178.085938 C 156.949219 178.132812 156.265625 178.1875 155.578125 178.234375 C 154.5 178.308594 145.5 178.308594 144.417969 178.234375 C 143.734375 178.1875 143.046875 178.132812 142.375 178.085938 C 140.761719 177.96875 139.148438 177.769531 137.578125 177.367188 C 134.371094 176.546875 131.324219 175.050781 129.027344 172.621094 C 124.320312 167.648438 123.046875 160.910156 122.015625 154.386719 C 119.320312 137.398438 116.714844 120.386719 114.332031 103.347656 C 113.179688 95.132812 111.792969 86.851562 111.332031 78.558594 C 111.132812 74.898438 111.4375 70.855469 112.308594 67.292969 C 113.136719 63.910156 114.578125 60.457031 116.777344 57.722656 C 118.90625 55.070312 121.351562 52.996094 124.359375 51.375 C 127.339844 49.769531 130.566406 48.53125 133.886719 47.855469 C 136.203125 47.386719 138.535156 47.15625 140.863281 46.960938 C 142.652344 46.808594 154.105469 46.769531 159.132812 46.960938 C 161.46875 47.046875 163.792969 47.386719 166.109375 47.855469 C 169.429688 48.53125 172.660156 49.769531 175.636719 51.375 C 178.644531 52.996094 181.09375 55.070312 183.222656 57.722656 C 185.421875 60.457031 186.863281 63.910156 187.691406 67.292969 C 188.558594 70.855469 188.867188 74.898438 188.667969 78.558594 C 188.207031 86.851562 186.816406 95.132812 185.667969 103.347656 C 183.28125 120.386719 180.675781 137.398438 177.980469 154.386719 Z M 188.011719 92.273438 C 188.628906 88.457031 189.378906 84.664062 189.820312 80.820312 C 190.246094 77.101562 190.671875 73.347656 190.175781 69.617188 C 189.71875 66.210938 188.742188 62.722656 186.765625 59.871094 C 184.996094 57.3125 182.808594 55.230469 180.339844 53.355469 C 174.832031 49.171875 168.3125 47.015625 161.511719 46.101562 C 157.703125 45.589844 153.855469 45.480469 150.011719 45.636719 C 150.007812 45.636719 150.007812 45.636719 150.007812 45.636719 L 150 45.636719 C 146.152344 45.480469 142.296875 45.589844 138.488281 46.101562 C 131.683594 47.015625 125.164062 49.171875 119.65625 53.355469 C 117.1875 55.230469 115.003906 57.3125 113.230469 59.871094 C 111.257812 62.722656 110.277344 66.210938 109.824219 69.617188 C 109.328125 73.347656 109.753906 77.101562 110.179688 80.820312 C 110.617188 84.664062 111.371094 88.457031 111.984375 92.273438 C 113.355469 100.789062 114.570312 109.324219 115.808594 117.863281 C 117.050781 126.40625 118.230469 134.960938 119.417969 143.507812 C 120.441406 150.855469 121.054688 158.398438 123.144531 165.542969 C 124.9375 171.667969 129.042969 176.703125 135.195312 178.753906 C 137.589844 179.550781 140.027344 179.929688 142.488281 180.046875 C 144.980469 180.167969 155.042969 180.171875 157.546875 180.046875 C 159.992188 179.925781 162.421875 179.546875 164.804688 178.753906 C 170.957031 176.703125 175.058594 171.667969 176.851562 165.542969 C 178.941406 158.398438 179.558594 150.855469 180.578125 143.507812 C 181.769531 134.960938 182.949219 126.40625 184.1875 117.863281 C 185.425781 109.324219 186.644531 100.789062 188.011719 92.273438 Z M 161.066406 227.664062 C 159.128906 227.835938 157.1875 227.941406 155.246094 228.015625 C 155.023438 228.011719 154.792969 228.023438 154.566406 228.039062 C 153.609375 228.074219 146.386719 228.074219 145.429688 228.039062 C 145.203125 228.023438 144.976562 228.011719 144.75 228.015625 C 142.808594 227.941406 140.871094 227.835938 138.929688 227.664062 C 132.480469 227.09375 126.320312 225.578125 120.058594 224.023438 C 120.054688 224.023438 120.050781 224.027344 120.058594 224.027344 C 126.230469 226.222656 132.863281 227.445312 139.324219 228.445312 C 140.507812 228.628906 141.699219 228.796875 142.890625 228.945312 C 144.851562 229.195312 155.144531 229.195312 157.109375 228.945312 C 158.300781 228.796875 159.488281 228.628906 160.675781 228.445312 C 167.132812 227.445312 173.769531 226.222656 179.941406 224.027344 C 179.941406 224.023438 179.941406 224.023438 179.941406 224.023438 C 173.675781 225.578125 167.515625 227.09375 161.066406 227.664062 " fill-opacity="1" fill-rule="nonzero"/></svg>