<svg xmlns="http://www.w3.org/2000/svg" xmlns:xlink="http://www.w3.org/1999/xlink" width="400" zoomAndPan="magnify" viewBox="0 0 300 299.999988" height="400" preserveAspectRatio="xMidYMid meet" version="1.0"><path fill="#a9a0f0" d="M 207.433594 149.882812 L 189.851562 99.292969 C 187.367188 92.167969 181.972656 86.589844 174.988281 83.871094 L 174.988281 77.679688 C 181.785156 76.226562 186.757812 70.273438 186.757812 63.148438 L 186.757812 44.910156 C 186.757812 36.703125 180.050781 30 171.847656 30 L 128.199219 30 C 119.992188 30 113.289062 36.65625 113.289062 44.910156 L 113.289062 63.101562 C 113.289062 70.226562 118.257812 76.179688 125.007812 77.632812 L 125.007812 83.824219 C 118.023438 86.589844 112.632812 92.121094 110.195312 99.246094 L 92.613281 149.835938 C 89.753906 151.101562 91.722656 240.136719 91.207031 244.261719 C 91.207031 258.464844 102.785156 270 116.992188 270 L 183.050781 270 C 197.257812 270 208.792969 258.464844 208.792969 244.261719 C 208.324219 239.851562 210.246094 151.523438 207.433594 149.882812 Z M 116.945312 44.910156 C 116.945312 38.671875 122.007812 33.65625 128.199219 33.65625 L 171.847656 33.65625 C 178.082031 33.65625 183.097656 38.71875 183.097656 44.910156 L 183.097656 52.222656 L 163.6875 52.222656 C 162.9375 48.660156 159.515625 46.035156 155.90625 46.035156 L 143.996094 46.035156 C 140.386719 46.035156 136.964844 48.707031 136.214844 52.222656 L 116.851562 52.222656 L 116.851562 44.910156 Z M 160.40625 54.003906 C 160.40625 56.441406 158.4375 58.363281 156 58.363281 L 144.089844 58.363281 C 138.277344 58.222656 138.324219 49.738281 144.089844 49.597656 C 144.089844 49.597656 156 49.597656 156 49.597656 C 158.4375 49.597656 160.40625 51.566406 160.40625 54.003906 Z M 116.945312 63.101562 L 116.945312 55.785156 L 136.308594 55.785156 C 137.058594 59.300781 140.480469 61.976562 144.089844 61.976562 L 156 61.976562 C 159.609375 62.023438 163.03125 59.347656 163.78125 55.785156 L 183.191406 55.785156 C 183.144531 57.378906 183.332031 63.664062 183.003906 65.117188 C 182.113281 70.367188 177.285156 74.445312 171.894531 74.351562 L 128.246094 74.351562 C 122.054688 74.445312 116.898438 69.335938 116.945312 63.101562 Z M 171.378906 78.007812 L 171.378906 82.652344 C 169.457031 82.277344 167.488281 81.996094 165.515625 81.949219 C 161.15625 82.183594 132.277344 81.339844 128.667969 82.652344 L 128.667969 78.007812 Z M 205.226562 244.308594 C 205.226562 256.496094 195.289062 266.4375 183.097656 266.4375 L 117.039062 266.4375 C 104.847656 266.4375 94.910156 256.496094 94.910156 244.308594 L 94.910156 158.320312 C 94.910156 155.835938 95.332031 153.398438 96.128906 151.054688 L 113.664062 100.46875 C 115.914062 93.949219 120.976562 88.980469 127.496094 86.777344 C 131.667969 84.574219 160.21875 85.980469 165.5625 85.605469 C 174.847656 85.558594 183.566406 91.699219 186.476562 100.515625 C 186.476562 100.515625 204.007812 151.101562 204.007812 151.101562 C 204.804688 153.445312 205.226562 155.882812 205.226562 158.367188 Z M 192.101562 178.855469 C 188.960938 158.460938 171.285156 142.804688 150.046875 142.804688 C 128.808594 142.804688 111.132812 158.460938 107.992188 178.855469 C 107.101562 182.75 107.664062 214.019531 107.523438 218.660156 C 107.523438 229.304688 116.148438 237.929688 126.792969 237.929688 L 173.347656 237.929688 C 183.988281 237.929688 192.617188 229.304688 192.617188 218.660156 C 192.476562 213.832031 193.039062 182.890625 192.101562 178.855469 Z M 188.960938 218.660156 C 188.960938 227.289062 181.925781 234.320312 173.300781 234.320312 L 126.746094 234.320312 C 118.117188 234.320312 111.085938 227.289062 111.085938 218.660156 L 111.085938 185.328125 C 113.242188 133.707031 186.804688 133.707031 188.960938 185.328125 C 188.960938 185.328125 188.960938 218.660156 188.960938 218.660156 Z M 188.960938 218.660156 " fill-opacity="1" fill-rule="nonzero"/></svg>