<svg xmlns="http://www.w3.org/2000/svg" xmlns:xlink="http://www.w3.org/1999/xlink" width="400" zoomAndPan="magnify" viewBox="0 0 300 299.999988" height="400" preserveAspectRatio="xMidYMid meet" version="1.0"><defs><clipPath id="34a834bfdd"><path d="M 30 69 L 270 69 L 270 229 L 30 229 Z M 30 69 " clip-rule="nonzero"/></clipPath></defs><g clip-path="url(#34a834bfdd)"><path fill="#ffffff" d="M 254.339844 68.949219 C 254.125 68.949219 253.894531 68.972656 253.679688 69.027344 L 226.421875 76.230469 C 225.089844 76.574219 224.300781 77.933594 224.65625 79.265625 L 226.128906 84.691406 L 219.167969 86.5625 C 202.140625 86.535156 185.113281 86.472656 168.070312 86.460938 C 168.035156 86.445312 167.996094 86.445312 167.957031 86.460938 C 165.316406 86.574219 162.8125 87.667969 160.917969 89.496094 C 160.855469 89.546875 160.804688 89.597656 160.738281 89.660156 C 159.277344 91.097656 157.832031 92.546875 156.367188 93.996094 C 154.90625 95.445312 153.445312 96.890625 151.984375 98.339844 C 150.535156 99.789062 149.074219 101.238281 147.613281 102.6875 C 146.152344 104.121094 144.703125 105.582031 143.242188 107.03125 C 141.78125 108.46875 140.320312 109.917969 138.859375 111.367188 C 138.769531 111.453125 138.679688 111.542969 138.589844 111.632812 C 137.246094 110.769531 135.757812 110.09375 134.15625 109.664062 C 131.882812 109.066406 129.59375 108.976562 127.410156 109.320312 C 120.828125 110.375 115.082031 115.40625 113.191406 122.421875 C 110.050781 134.085938 114.652344 144.875 119.808594 152.585938 C 124.980469 160.300781 130.902344 165.21875 130.902344 165.21875 C 131.464844 165.675781 132.199219 165.878906 132.925781 165.75 C 132.925781 165.75 133.457031 165.664062 134.296875 165.472656 C 135.148438 165.28125 136.367188 164.988281 137.828125 164.570312 C 139.289062 164.152344 141.007812 163.605469 142.886719 162.90625 C 144.765625 162.207031 146.800781 161.355469 148.882812 160.324219 C 150.96875 159.296875 153.117188 158.089844 155.210938 156.679688 C 155.734375 156.324219 156.253906 155.953125 156.777344 155.574219 C 157.285156 155.191406 157.792969 154.796875 158.300781 154.390625 C 158.808594 153.984375 159.316406 153.566406 159.800781 153.132812 C 160.296875 152.6875 160.777344 152.242188 161.25 151.773438 C 161.488281 151.546875 161.71875 151.304688 161.960938 151.0625 C 162.1875 150.820312 162.417969 150.578125 162.644531 150.339844 C 162.8125 150.148438 162.976562 149.96875 163.128906 149.777344 C 163.359375 149.703125 163.585938 149.625 163.816406 149.550781 L 197.414062 140.539062 C 201.007812 139.726562 203.371094 137.476562 205.457031 136.347656 C 205.507812 136.335938 205.546875 136.308594 205.582031 136.285156 C 213.296875 131.542969 220.996094 126.804688 228.710938 122.066406 L 235.773438 120.171875 L 237.222656 125.484375 C 237.578125 126.816406 238.953125 127.605469 240.285156 127.25 L 267.542969 120.058594 C 268.878906 119.703125 269.664062 118.339844 269.296875 117.007812 L 256.742188 70.792969 C 256.449219 69.710938 255.457031 68.949219 254.339844 68.9375 Z M 151.261719 71.476562 C 137.398438 71.238281 123.484375 74.679688 111.410156 81.707031 L 111.398438 81.707031 C 85.285156 96.332031 69.59375 126.84375 73.035156 156.589844 C 73.136719 158 74.394531 159.042969 75.804688 158.878906 C 77.203125 158.710938 78.195312 157.414062 77.980469 156.019531 C 74.789062 128.367188 89.582031 99.613281 113.863281 86.027344 L 113.875 86.027344 L 113.902344 86.015625 C 133.078125 74.84375 157.539062 73.398438 177.945312 82.125 C 179.214844 82.710938 180.714844 82.125 181.261719 80.84375 C 181.808594 79.558594 181.199219 78.074219 179.902344 77.550781 C 171.695312 74.03125 162.898438 72.050781 154.03125 71.578125 L 154.03125 71.59375 C 153.101562 71.542969 152.1875 71.515625 151.261719 71.476562 Z M 252.574219 74.476562 L 263.832031 115.890625 L 241.390625 121.824219 L 230.132812 80.398438 L 238.9375 78.074219 L 239.992188 81.921875 L 241.519531 87.550781 C 241.847656 88.898438 243.246094 89.726562 244.59375 89.355469 C 245.941406 88.988281 246.730469 87.578125 246.320312 86.242188 L 244.796875 80.613281 L 243.753906 76.800781 Z M 227.441406 89.507812 L 234.464844 115.367188 L 227.300781 117.300781 C 227.082031 117.335938 226.867188 117.402344 226.664062 117.503906 C 226.640625 117.515625 226.613281 117.542969 226.589844 117.554688 C 226.5625 117.566406 226.550781 117.566406 226.523438 117.578125 C 226.460938 117.617188 226.410156 117.644531 226.347656 117.679688 C 218.59375 122.445312 210.84375 127.222656 203.09375 131.988281 C 203.066406 131.988281 203.054688 131.988281 203.054688 132 C 200.273438 133.515625 198.265625 135.230469 196.359375 135.6875 C 196.28125 135.710938 196.207031 135.726562 196.128906 135.75 L 196.105469 135.761719 C 196.054688 135.761719 196.015625 135.777344 195.964844 135.789062 L 162.46875 144.757812 C 162.378906 144.785156 162.304688 144.824219 162.214844 144.859375 C 159.648438 145.851562 156.433594 145.191406 154.855469 143.042969 C 154.832031 143.007812 154.792969 142.96875 154.769531 142.929688 C 152.480469 140.183594 153.738281 135.078125 156.992188 133.753906 C 162.390625 132.101562 159.191406 133.121094 165.007812 131.507812 L 165.035156 131.492188 L 175.964844 128.558594 C 181.808594 126.996094 185.277344 120.910156 183.714844 115.050781 C 182.53125 110.652344 178.820312 107.527344 174.578125 106.929688 C 173.167969 106.726562 171.679688 106.804688 170.21875 107.210938 L 160.980469 109.777344 C 160.726562 109.828125 160.484375 109.902344 160.257812 110.019531 C 159.886719 110.195312 159.582031 110.449219 159.34375 110.769531 C 158.464844 111.644531 157.601562 112.523438 156.722656 113.398438 C 156.027344 114.109375 155.3125 114.820312 154.613281 115.535156 C 151.09375 115.394531 147.601562 116.449219 144.601562 118.457031 C 143.964844 117.183594 143.203125 116.015625 142.328125 114.960938 C 142.339844 114.9375 142.351562 114.9375 142.367188 114.910156 C 143.828125 113.460938 145.289062 112.011719 146.75 110.566406 C 148.199219 109.117188 149.660156 107.679688 151.121094 106.230469 C 152.582031 104.78125 154.042969 103.335938 155.503906 101.886719 C 156.953125 100.4375 158.414062 98.988281 159.875 97.539062 C 161.335938 96.089844 162.796875 94.644531 164.246094 93.195312 C 164.261719 93.179688 164.273438 93.167969 164.285156 93.15625 C 165.300781 92.140625 166.75 91.503906 168.171875 91.441406 C 185.164062 91.441406 202.152344 91.503906 219.15625 91.542969 C 219.433594 91.566406 219.714844 91.554688 219.980469 91.492188 C 220.003906 91.492188 220.019531 91.492188 220.042969 91.480469 C 220.070312 91.480469 220.109375 91.464844 220.144531 91.453125 L 220.222656 91.441406 Z M 246.21875 92.851562 C 244.808594 92.800781 243.628906 93.917969 243.628906 95.328125 C 243.628906 96.738281 244.808594 97.871094 246.21875 97.820312 C 247.632812 97.871094 248.800781 96.738281 248.800781 95.328125 C 248.800781 93.917969 247.632812 92.800781 246.21875 92.851562 Z M 173.359375 111.796875 C 175.898438 111.886719 178.1875 113.652344 178.910156 116.332031 C 179.789062 119.636719 177.921875 122.878906 174.679688 123.753906 L 168.859375 125.304688 C 168.695312 124.925781 168.503906 124.554688 168.3125 124.1875 C 167.78125 123.207031 167.167969 122.292969 166.457031 121.441406 C 165.757812 120.589844 164.972656 119.804688 164.105469 119.105469 C 163.242188 118.40625 162.304688 117.78125 161.285156 117.273438 C 160.980469 117.109375 160.664062 116.96875 160.347656 116.828125 C 161.121094 116.042969 161.894531 115.265625 162.671875 114.480469 L 171.566406 112.011719 C 172.164062 111.847656 172.761719 111.785156 173.359375 111.796875 Z M 129.898438 114.109375 C 130.878906 114.097656 131.882812 114.222656 132.875 114.492188 C 136.875 115.558594 140.015625 118.761719 141.121094 123.054688 C 141.601562 124.925781 143.953125 125.558594 145.3125 124.175781 C 148.425781 121.011719 152.773438 119.789062 156.789062 120.84375 C 157.574219 121.0625 158.324219 121.339844 159.023438 121.707031 C 159.722656 122.066406 160.371094 122.484375 160.96875 122.980469 C 161.578125 123.460938 162.125 124.007812 162.621094 124.605469 C 163.117188 125.214844 163.546875 125.863281 163.929688 126.5625 C 163.941406 126.574219 163.941406 126.601562 163.96875 126.625 L 163.726562 126.691406 L 163.714844 126.691406 C 163.714844 126.691406 163.714844 126.691406 163.714844 126.703125 C 157.792969 128.34375 161.285156 127.238281 155.378906 129.039062 C 155.3125 129.066406 155.25 129.089844 155.1875 129.117188 C 148.554688 131.761719 146.394531 140.539062 150.917969 146.054688 C 152.277344 147.886719 154.105469 149.105469 156.128906 149.753906 C 155.808594 150.019531 155.503906 150.289062 155.1875 150.542969 C 154.742188 150.898438 154.285156 151.253906 153.828125 151.582031 C 153.371094 151.925781 152.898438 152.242188 152.429688 152.574219 C 150.550781 153.832031 148.605469 154.9375 146.6875 155.878906 C 144.78125 156.820312 142.898438 157.605469 141.160156 158.253906 C 139.417969 158.902344 137.816406 159.410156 136.457031 159.804688 C 135.121094 160.1875 134.042969 160.453125 133.265625 160.617188 C 132.175781 159.652344 128.109375 156.019531 123.964844 149.84375 C 119.238281 142.777344 115.386719 133.464844 118.019531 123.742188 C 119.582031 117.921875 124.589844 114.148438 129.914062 114.109375 Z M 222.964844 131.085938 C 221.390625 131.136719 220.246094 132.613281 220.601562 134.136719 C 226.410156 160.859375 215.164062 190.417969 193.078125 206.515625 L 193.042969 206.554688 C 171.109375 223.289062 139.570312 225.550781 115.4375 212.183594 C 114.230469 211.484375 112.695312 211.917969 112.007812 213.136719 C 111.335938 214.355469 111.792969 215.894531 113.023438 216.542969 C 138.960938 230.902344 172.480469 228.5 196.054688 210.519531 C 219.800781 193.1875 231.722656 161.824219 225.484375 133.09375 C 225.242188 131.898438 224.171875 131.0625 222.964844 131.085938 Z M 171.425781 157.796875 C 170.003906 157.847656 168.566406 158.179688 167.207031 158.839844 C 167.167969 158.863281 167.117188 158.878906 167.082031 158.902344 C 157.167969 164.480469 147.347656 170.171875 137.5 175.804688 C 136.722656 170.515625 132.136719 166.4375 126.632812 166.425781 L 79.1875 166.285156 C 78.730469 166.285156 78.269531 166.3125 77.8125 166.375 C 77.800781 166.375 77.777344 166.375 77.761719 166.386719 C 77.75 166.386719 77.726562 166.386719 77.710938 166.386719 C 77.585938 166.414062 77.457031 166.414062 77.34375 166.449219 C 77.265625 166.464844 77.203125 166.476562 77.128906 166.5 C 77.027344 166.515625 76.9375 166.527344 76.835938 166.566406 C 76.746094 166.578125 76.65625 166.617188 76.566406 166.628906 C 76.492188 166.652344 76.414062 166.679688 76.339844 166.691406 C 76.238281 166.71875 76.125 166.753906 76.023438 166.78125 C 75.957031 166.804688 75.894531 166.832031 75.832031 166.855469 C 75.703125 166.882812 75.589844 166.921875 75.476562 166.972656 C 75.4375 166.984375 75.398438 166.996094 75.359375 167.023438 C 75.222656 167.085938 75.070312 167.125 74.929688 167.1875 L 74.917969 167.1875 C 74.902344 167.199219 74.902344 167.199219 74.902344 167.199219 C 74.472656 167.378906 74.039062 167.582031 73.632812 167.824219 L 65.144531 172.675781 L 62.996094 173.910156 L 62.449219 171.902344 C 62.082031 170.582031 60.722656 169.792969 59.386719 170.148438 L 32.132812 177.339844 C 30.796875 177.695312 30.007812 179.054688 30.367188 180.378906 L 42.933594 226.605469 C 43.300781 227.941406 44.660156 228.726562 45.996094 228.371094 L 73.265625 221.167969 C 74.585938 220.824219 75.375 219.464844 75.019531 218.128906 L 74.21875 215.21875 L 77.496094 213.339844 L 85.984375 208.472656 C 86.441406 208.207031 86.925781 208.027344 87.40625 207.902344 C 87.890625 207.773438 88.386719 207.699219 88.917969 207.699219 L 122.363281 207.773438 C 124.296875 207.875 126.226562 207.480469 127.941406 206.605469 C 127.980469 206.578125 128.019531 206.554688 128.042969 206.527344 C 144.144531 197.339844 160.21875 188.101562 176.292969 178.902344 C 180.878906 176.757812 183.714844 171.621094 182.457031 166.5 C 181.453125 161.457031 176.878906 158.011719 172.023438 157.875 C 171.820312 157.859375 171.617188 157.859375 171.414062 157.875 Z M 171.234375 162.855469 C 174.007812 162.726562 177.082031 164.722656 177.601562 167.429688 C 177.613281 167.480469 177.628906 167.53125 177.640625 167.570312 C 178.3125 170.210938 176.625 173.261719 174.070312 174.378906 C 173.992188 174.417969 173.90625 174.457031 173.828125 174.507812 C 157.777344 183.695312 141.742188 192.917969 125.679688 202.09375 C 124.726562 202.5625 123.621094 202.792969 122.566406 202.714844 C 122.554688 202.714844 122.53125 202.714844 122.515625 202.714844 C 122.480469 202.714844 122.429688 202.714844 122.378906 202.714844 L 122.339844 202.714844 C 122.328125 202.714844 122.3125 202.714844 122.300781 202.714844 L 88.933594 202.640625 C 88.640625 202.640625 88.347656 202.652344 88.042969 202.679688 C 87.914062 202.664062 87.789062 202.679688 87.648438 202.691406 C 87.203125 202.753906 86.746094 202.832031 86.300781 202.945312 C 86.238281 202.972656 86.1875 202.972656 86.125 202.996094 C 86.074219 202.996094 86.035156 203.023438 85.996094 203.023438 C 85.539062 203.136719 85.09375 203.289062 84.675781 203.464844 C 84.546875 203.515625 84.433594 203.582031 84.332031 203.644531 C 84.054688 203.757812 83.785156 203.910156 83.519531 204.0625 L 75.042969 208.917969 L 72.882812 210.148438 L 64.355469 178.777344 L 67.636719 176.910156 L 76.125 172.042969 C 76.402344 171.890625 76.683594 171.761719 76.960938 171.648438 C 77.078125 171.597656 77.203125 171.558594 77.316406 171.507812 C 77.417969 171.484375 77.519531 171.445312 77.609375 171.445312 C 77.699219 171.417969 77.777344 171.394531 77.851562 171.382812 C 78.003906 171.34375 78.167969 171.304688 78.320312 171.304688 C 78.601562 171.253906 78.882812 171.242188 79.171875 171.242188 L 126.621094 171.367188 C 129.988281 171.382812 132.632812 174.011719 132.644531 177.351562 C 132.644531 180.683594 130.050781 183.273438 126.683594 183.273438 L 102.960938 183.199219 L 97.039062 183.171875 C 95.628906 183.121094 94.445312 184.242188 94.445312 185.652344 C 94.433594 187.0625 95.605469 188.207031 97.015625 188.152344 L 102.949219 188.167969 L 126.671875 188.242188 C 131.003906 188.257812 134.78125 185.714844 136.546875 182.042969 C 136.609375 182.015625 136.660156 181.992188 136.710938 181.964844 C 147.625 175.738281 158.476562 169.4375 169.40625 163.285156 C 169.976562 163.007812 170.601562 162.867188 171.234375 162.828125 Z M 58.296875 175.511719 L 69.554688 216.9375 L 47.101562 222.871094 L 35.84375 181.445312 L 44.660156 179.121094 L 45.703125 182.957031 L 47.242188 188.585938 C 47.570312 189.945312 48.957031 190.773438 50.316406 190.402344 C 51.664062 190.035156 52.449219 188.625 52.042969 187.289062 L 50.519531 181.660156 L 49.476562 177.847656 Z M 51.941406 193.886719 C 48.652344 193.921875 48.652344 198.828125 51.941406 198.867188 C 55.21875 198.828125 55.21875 193.921875 51.941406 193.886719 Z M 51.941406 193.886719 " fill-opacity="1" fill-rule="nonzero"/></g></svg>