<svg xmlns="http://www.w3.org/2000/svg" xmlns:xlink="http://www.w3.org/1999/xlink" width="400" zoomAndPan="magnify" viewBox="0 0 300 299.999988" height="400" preserveAspectRatio="xMidYMid meet" version="1.0"><defs><clipPath id="a63b3f2728"><path d="M 30.449219 31 L 263.699219 31 L 263.699219 264 L 30.449219 264 Z M 30.449219 31 " clip-rule="nonzero"/></clipPath></defs><g clip-path="url(#a63b3f2728)"><path fill="currentColor" d="M 263.613281 218.066406 L 251.757812 182.507812 C 251.511719 181.71875 250.722656 181.175781 249.882812 181.175781 L 240.003906 181.175781 L 240.003906 161.417969 L 249.882812 161.417969 C 250.523438 161.417969 251.117188 161.125 251.460938 160.578125 C 251.808594 160.035156 251.957031 159.394531 251.710938 158.800781 L 242.820312 132.183594 C 243.511719 130.800781 243.90625 129.269531 243.90625 127.6875 L 243.710938 87.78125 C 243.710938 82.894531 240.003906 78.695312 235.164062 78.054688 L 227.113281 76.96875 L 228.546875 50.398438 C 228.84375 45.308594 225.089844 40.765625 220.050781 40.074219 L 210.964844 38.839844 C 205.929688 38.148438 201.085938 41.507812 200 46.445312 L 194.171875 72.375 L 186.125 71.289062 C 181.285156 70.644531 176.640625 73.660156 175.257812 78.351562 L 166.765625 108.03125 L 149.875 63.484375 L 160.789062 68.421875 C 161.28125 68.621094 161.824219 68.671875 162.320312 68.472656 C 162.8125 68.273438 163.207031 67.929688 163.40625 67.433594 L 172.589844 47.039062 C 172.988281 46.101562 172.640625 45.015625 171.75 44.519531 L 158.21875 36.914062 C 149.230469 31.828125 138.613281 30 128.4375 31.679688 L 123.699219 32.46875 C 123.550781 32.46875 123.453125 32.519531 123.304688 32.566406 L 86.363281 46.59375 C 86.261719 46.644531 86.113281 46.691406 86.015625 46.792969 L 81.964844 49.359375 C 73.222656 54.839844 66.507812 63.285156 63.148438 73.066406 L 58.113281 87.734375 C 57.765625 88.722656 58.261719 89.757812 59.148438 90.203125 L 79.546875 99.390625 C 80.535156 99.832031 81.71875 99.390625 82.164062 98.402344 L 87.101562 87.488281 L 98.808594 118.355469 C 97.128906 118.847656 95.449219 119.539062 93.671875 120.328125 L 79.199219 111.636719 C 75.199219 109.21875 69.964844 109.957031 66.804688 113.464844 L 48.925781 133.070312 C 45.765625 136.527344 45.46875 141.8125 48.285156 145.566406 L 58.261719 159.148438 C 54.851562 168.730469 55.542969 176.730469 60.039062 181.324219 L 44.429688 181.324219 C 43.59375 181.324219 42.851562 181.867188 42.554688 182.65625 L 30.703125 218.214844 C 30.503906 218.808594 30.601562 219.5 30.949219 219.992188 C 31.292969 220.488281 31.9375 220.832031 32.53125 220.832031 L 42.40625 220.832031 L 42.40625 254.414062 C 42.40625 259.847656 46.851562 264.292969 52.285156 264.292969 L 241.929688 264.292969 C 247.363281 264.292969 251.808594 259.847656 251.808594 254.414062 L 251.808594 220.832031 L 261.6875 220.832031 C 262.328125 220.832031 262.921875 220.535156 263.265625 219.992188 C 263.613281 219.449219 263.808594 218.707031 263.613281 218.066406 Z M 122.859375 38.988281 C 124.191406 47.089844 119.597656 55.089844 111.945312 58.003906 C 104.238281 60.917969 95.496094 58.003906 91.152344 51.039062 L 90.113281 49.410156 L 122.5625 37.113281 Z M 128.835938 125.859375 L 166.367188 125.859375 C 167.949219 127.6875 170.121094 128.875 172.542969 129.21875 L 193.730469 132.132812 L 185.234375 157.46875 L 151.898438 157.46875 L 160.394531 148.972656 C 160.835938 148.53125 161.035156 147.886719 160.9375 147.246094 C 160.835938 146.601562 160.441406 146.058594 159.847656 145.8125 L 155.007812 143.394531 L 164.046875 137.367188 L 161.875 134.058594 L 150.023438 141.960938 C 149.429688 142.355469 149.082031 143.046875 149.132812 143.738281 C 149.183594 144.429688 149.578125 145.070312 150.21875 145.367188 L 155.652344 148.085938 L 146.316406 157.46875 L 118.265625 157.46875 Z M 168.34375 216.734375 L 157.824219 185.125 L 207.65625 185.125 L 197.136719 216.734375 Z M 186.667969 161.417969 C 187.507812 161.417969 188.246094 160.875 188.542969 160.085938 L 196.542969 136.082031 L 196.542969 181.175781 L 129.378906 181.175781 L 129.378906 161.417969 Z M 153.625 185.125 L 164.144531 216.734375 L 128.785156 216.734375 L 118.265625 185.125 Z M 157.035156 254.265625 L 157.035156 220.683594 L 198.519531 220.683594 C 199.359375 220.683594 200.101562 220.140625 200.394531 219.351562 L 208.398438 195.347656 L 208.398438 260.195312 L 155.058594 260.195312 C 156.292969 258.5625 157.035156 256.488281 157.035156 254.265625 Z M 211.804688 157.46875 L 203.855469 133.566406 L 232.746094 137.566406 C 233.191406 137.613281 233.632812 137.664062 234.078125 137.664062 C 236.152344 137.664062 238.175781 137.023438 239.90625 135.789062 L 247.167969 157.519531 L 211.804688 157.519531 Z M 203.902344 47.285156 C 204.59375 44.324219 207.457031 42.296875 210.472656 42.691406 L 219.558594 43.925781 C 222.570312 44.324219 224.84375 47.089844 224.644531 50.101562 L 223.214844 76.324219 L 198.125 72.867188 Z M 179.160156 79.4375 C 179.949219 76.621094 182.765625 74.792969 185.679688 75.1875 L 193.382812 76.277344 L 191.261719 85.808594 L 195.113281 86.648438 L 197.335938 76.820312 L 223.066406 80.375 L 222.523438 90.449219 L 226.472656 90.648438 L 227.015625 80.917969 L 231.460938 81.511719 L 219.214844 124.28125 C 218.472656 126.800781 218.816406 129.515625 220.050781 131.785156 L 173.085938 125.316406 C 171.40625 125.070312 169.875 124.132812 168.9375 122.699219 C 168 121.265625 167.75 119.488281 168.195312 117.808594 Z M 96.4375 126.402344 L 104.832031 131.441406 C 98.707031 147.839844 86.363281 161.371094 70.605469 168.976562 L 65.46875 162.011719 C 79.496094 153.960938 90.410156 141.46875 96.4375 126.402344 Z M 68.335938 172.628906 C 68.730469 173.171875 69.324219 173.421875 69.914062 173.421875 C 70.210938 173.421875 70.457031 173.371094 70.753906 173.222656 C 88.632812 165.074219 102.609375 149.765625 109.078125 131.195312 C 109.375 130.304688 109.03125 129.316406 108.238281 128.875 L 97.917969 122.652344 C 104.734375 120.082031 110.5625 120.230469 113.820312 123.195312 C 117.128906 126.207031 117.820312 131.886719 115.796875 139.144531 C 113.625 146.898438 108.585938 155.296875 101.671875 162.902344 C 94.757812 170.457031 86.804688 176.234375 79.300781 179.148438 C 72.238281 181.867188 66.558594 181.71875 63.199219 178.65625 C 59.9375 175.691406 59.246094 169.914062 61.175781 162.902344 Z M 104.585938 165.617188 C 111.105469 158.503906 115.992188 150.605469 118.660156 143.097656 L 118.90625 143.097656 L 113.671875 158.800781 C 113.476562 159.394531 113.574219 160.085938 113.917969 160.578125 C 114.265625 161.074219 114.90625 161.417969 115.5 161.417969 L 125.378906 161.417969 L 125.378906 181.175781 L 84.535156 181.175781 C 91.449219 177.765625 98.410156 172.382812 104.585938 165.617188 Z M 45.863281 185.125 L 112.832031 185.125 L 102.3125 216.734375 L 88.730469 216.734375 L 86.507812 214.511719 L 93.523438 203.992188 C 93.867188 203.449219 93.96875 202.804688 93.71875 202.214844 C 93.523438 201.621094 93.027344 201.175781 92.386719 200.980469 L 64.730469 193.078125 C 63.839844 192.828125 62.953125 193.175781 62.507812 193.964844 C 62.0625 194.753906 62.160156 195.742188 62.804688 196.386719 L 73.519531 207.101562 L 67.101562 216.734375 L 35.296875 216.734375 Z M 46.40625 254.265625 L 46.40625 220.683594 L 68.136719 220.683594 C 68.78125 220.683594 69.421875 220.339844 69.765625 219.796875 L 77.667969 207.941406 C 78.210938 207.152344 78.0625 206.113281 77.421875 205.472656 L 70.953125 199.003906 L 88.683594 204.089844 L 82.261719 213.671875 C 81.71875 214.460938 81.867188 215.5 82.507812 216.140625 L 86.460938 220.089844 C 86.855469 220.488281 87.347656 220.683594 87.84375 220.683594 L 103.648438 220.683594 C 104.488281 220.683594 105.226562 220.140625 105.523438 219.351562 L 113.523438 195.347656 L 113.523438 260.195312 L 105.078125 260.195312 L 101.574219 249.675781 C 101.425781 249.179688 101.03125 248.785156 100.585938 248.539062 L 94.707031 245.574219 L 101.375 235.597656 L 98.066406 233.425781 L 90.164062 245.277344 C 89.867188 245.773438 89.769531 246.316406 89.917969 246.859375 C 90.066406 247.402344 90.460938 247.847656 90.953125 248.144531 L 98.117188 251.75 L 100.929688 260.242188 L 52.332031 260.242188 C 49.074219 260.195312 46.40625 257.527344 46.40625 254.265625 Z M 237.78125 216.734375 L 243.660156 207.941406 C 243.957031 207.449219 244.054688 206.90625 243.90625 206.363281 C 243.757812 205.820312 243.363281 205.375 242.871094 205.078125 L 236.746094 202.015625 L 239.808594 195.890625 L 236.25 194.113281 L 232.300781 202.015625 C 231.808594 203.003906 232.203125 204.1875 233.191406 204.683594 L 239.066406 207.644531 L 233.042969 216.734375 L 223.65625 216.734375 L 213.136719 185.125 L 248.5 185.125 L 259.019531 216.734375 Z M 237.78125 216.734375 " fill-opacity="1" fill-rule="nonzero"/></g></svg>