<svg xmlns="http://www.w3.org/2000/svg" xmlns:xlink="http://www.w3.org/1999/xlink" width="400" zoomAndPan="magnify" viewBox="0 0 300 299.999988" height="400" preserveAspectRatio="xMidYMid meet" version="1.0"><defs><clipPath id="a8dc0e1691"><path d="M 199.324219 103.238281 L 270 103.238281 L 270 231.601562 L 199.324219 231.601562 Z M 199.324219 103.238281 " clip-rule="nonzero"/></clipPath><clipPath id="c0d7da6917"><path d="M 186 68.101562 L 236 68.101562 L 236 173 L 186 173 Z M 186 68.101562 " clip-rule="nonzero"/></clipPath><clipPath id="1f5e945df9"><path d="M 30 103.238281 L 100.636719 103.238281 L 100.636719 231.601562 L 30 231.601562 Z M 30 103.238281 " clip-rule="nonzero"/></clipPath><clipPath id="2a1a7e041a"><path d="M 64 68.101562 L 114 68.101562 L 114 173 L 64 173 Z M 64 68.101562 " clip-rule="nonzero"/></clipPath></defs><path fill="currentColor" d="M 167.152344 121.972656 C 165.992188 121.972656 165.046875 122.917969 165.046875 124.078125 C 165.046875 125.238281 165.992188 126.183594 167.152344 126.183594 C 168.96875 126.183594 170.449219 127.664062 170.449219 129.480469 C 170.449219 130.640625 171.394531 131.585938 172.554688 131.585938 C 173.714844 131.585938 174.660156 130.640625 174.660156 129.480469 C 174.660156 125.339844 171.292969 121.972656 167.152344 121.972656 " fill-opacity="1" fill-rule="nonzero"/><path fill="currentColor" d="M 165.84375 159.671875 C 159.652344 165.925781 153.445312 170.925781 150.296875 173.351562 L 150 173.578125 L 149.703125 173.351562 C 146.554688 170.941406 140.351562 165.972656 134.160156 159.730469 C 123.285156 148.777344 117.539062 139.042969 117.542969 131.589844 C 117.546875 121.464844 124.972656 113.828125 134.8125 113.828125 C 136.863281 113.828125 139.097656 114.402344 141.441406 115.535156 C 142.539062 116.0625 143.640625 116.707031 144.710938 117.445312 C 145.378906 117.90625 146.042969 118.410156 146.675781 118.941406 L 147.074219 119.273438 L 144.898438 121.597656 C 144.519531 122.003906 144.320312 122.535156 144.339844 123.09375 C 144.355469 123.652344 144.589844 124.167969 144.996094 124.546875 C 145.382812 124.910156 145.890625 125.113281 146.421875 125.113281 C 146.996094 125.113281 147.554688 124.871094 147.945312 124.449219 L 151.488281 120.640625 C 154.570312 117.496094 160.007812 113.828125 165.195312 113.828125 C 175.023438 113.828125 182.445312 121.464844 182.457031 131.589844 C 182.460938 138.976562 176.71875 148.6875 165.84375 159.671875 Z M 180.542969 116.042969 C 176.570312 111.921875 171.121094 109.65625 165.195312 109.65625 C 158.453125 109.65625 152.546875 114.105469 150.320312 116.019531 L 150.003906 116.292969 L 149.6875 116.019531 C 148.851562 115.304688 147.976562 114.628906 147.082031 114.011719 C 145.835938 113.148438 144.546875 112.398438 143.257812 111.773438 C 140.339844 110.367188 137.496094 109.65625 134.8125 109.65625 C 128.886719 109.65625 123.4375 111.921875 119.460938 116.042969 C 115.535156 120.105469 113.371094 125.628906 113.367188 131.585938 C 113.367188 136.46875 115.289062 141.976562 119.085938 147.960938 C 122.03125 152.601562 126.121094 157.566406 131.246094 162.722656 C 139.902344 171.4375 148.421875 177.621094 148.78125 177.878906 C 149.140625 178.136719 149.5625 178.273438 150.003906 178.273438 C 150.449219 178.273438 150.871094 178.136719 151.230469 177.875 C 151.589844 177.613281 160.113281 171.390625 168.765625 162.660156 C 180.628906 150.6875 186.640625 140.230469 186.628906 131.585938 C 186.625 125.625 184.460938 120.105469 180.542969 116.042969 " fill-opacity="1" fill-rule="nonzero"/><g clip-path="url(#a8dc0e1691)"><path fill="currentColor" d="M 269.847656 163.855469 L 260.949219 112.085938 C 260.460938 109.304688 258.917969 106.875 256.601562 105.242188 C 254.28125 103.613281 251.46875 102.984375 248.6875 103.46875 C 245.554688 104.015625 242.855469 105.921875 241.28125 108.703125 C 241.15625 108.917969 241.042969 109.140625 240.9375 109.363281 C 239.988281 111.355469 239.6875 113.554688 240.066406 115.730469 L 243.292969 134.988281 C 243.386719 135.535156 243.691406 136.015625 244.152344 136.335938 C 244.609375 136.660156 245.164062 136.78125 245.714844 136.6875 C 246.386719 136.570312 246.957031 136.140625 247.25 135.523438 C 247.4375 135.128906 247.496094 134.691406 247.421875 134.265625 L 247.40625 134.152344 C 247.394531 134.089844 247.382812 134.023438 247.371094 133.960938 L 247.371094 133.949219 L 244.195312 115.003906 C 243.96875 113.691406 244.148438 112.363281 244.722656 111.160156 C 244.789062 111.027344 244.859375 110.890625 244.929688 110.761719 C 245.882812 109.082031 247.511719 107.929688 249.40625 107.597656 C 251.089844 107.304688 252.789062 107.6875 254.191406 108.671875 C 255.589844 109.65625 256.523438 111.125 256.816406 112.808594 L 265.714844 164.578125 C 265.820312 165.183594 265.839844 165.796875 265.773438 166.394531 C 265.695312 167.09375 265.496094 167.773438 265.191406 168.421875 C 265.097656 168.617188 264.996094 168.804688 264.886719 168.980469 L 264.847656 169.042969 L 264.820312 169.074219 L 238.496094 200.707031 C 238.429688 200.789062 238.378906 200.851562 238.339844 200.910156 C 238.035156 201.359375 237.761719 201.832031 237.53125 202.320312 C 236.585938 204.304688 236.285156 206.503906 236.664062 208.6875 L 237.273438 212.167969 L 208.835938 217.128906 L 204.871094 194.734375 C 204.410156 192.074219 204.769531 189.394531 205.921875 186.976562 C 206.355469 186.070312 206.90625 185.261719 207.710938 184.347656 C 207.847656 184.1875 212.507812 178.953125 215.011719 176.144531 L 238.378906 149.882812 L 238.511719 149.738281 C 240.8125 147.144531 244.796875 146.84375 247.398438 149.0625 C 248.671875 150.152344 249.4375 151.679688 249.554688 153.363281 C 249.632812 154.472656 249.421875 155.585938 248.945312 156.585938 C 248.703125 157.097656 248.390625 157.578125 248.019531 158.015625 L 248.011719 158.023438 C 248.003906 158.035156 247.996094 158.046875 247.988281 158.058594 C 247.976562 158.066406 247.96875 158.078125 247.957031 158.089844 L 247.953125 158.09375 L 232.703125 176.832031 C 232.609375 176.953125 232.523438 177.09375 232.453125 177.234375 C 232.035156 178.117188 232.273438 179.160156 233.039062 179.773438 C 233.507812 180.148438 234.117188 180.304688 234.707031 180.199219 C 235.210938 180.113281 235.664062 179.84375 235.984375 179.445312 L 251.226562 160.71875 L 251.230469 160.710938 C 251.234375 160.703125 251.242188 160.695312 251.25 160.6875 L 251.257812 160.675781 C 251.847656 159.972656 252.347656 159.199219 252.738281 158.382812 C 253.519531 156.738281 253.867188 154.898438 253.738281 153.070312 C 253.539062 150.253906 252.253906 147.699219 250.121094 145.875 C 245.792969 142.175781 239.171875 142.667969 235.363281 146.96875 L 211.414062 173.859375 C 211.308594 173.980469 211.097656 174.21875 210.808594 174.542969 C 208.957031 176.613281 204.410156 181.546875 203.5625 182.75 C 203.085938 183.429688 202.59375 184.207031 202.128906 185.175781 C 200.605469 188.375 200.125 191.929688 200.742188 195.457031 L 204.707031 217.847656 L 201.136719 218.472656 C 200.515625 218.578125 199.980469 218.957031 199.671875 219.507812 C 199.644531 219.550781 199.621094 219.59375 199.601562 219.636719 C 199.414062 220.03125 199.355469 220.464844 199.429688 220.894531 L 201.015625 230.085938 C 201.019531 230.101562 201.023438 230.113281 201.023438 230.128906 L 201.035156 230.191406 C 201.160156 230.839844 201.59375 231.398438 202.195312 231.683594 C 203.191406 232.160156 204.398438 231.78125 204.941406 230.820312 C 204.964844 230.777344 204.988281 230.730469 205.007812 230.6875 C 205.214844 230.253906 205.269531 229.773438 205.160156 229.308594 L 205.152344 229.265625 L 203.921875 222.242188 L 204.246094 222.183594 L 243.699219 215.304688 L 244.839844 221.804688 C 244.851562 221.960938 244.878906 222.113281 244.921875 222.257812 C 245.09375 222.832031 245.5 223.308594 246.039062 223.566406 C 247.035156 224.039062 248.238281 223.660156 248.78125 222.703125 C 248.804688 222.65625 248.828125 222.613281 248.851562 222.566406 C 249.042969 222.164062 249.101562 221.71875 249.019531 221.285156 L 247.46875 212.519531 C 247.269531 211.382812 246.183594 210.613281 245.042969 210.8125 L 241.40625 211.449219 L 240.796875 207.964844 C 240.566406 206.652344 240.75 205.324219 241.320312 204.125 C 241.445312 203.867188 241.585938 203.613281 241.742188 203.375 L 241.796875 203.296875 L 268.179688 171.59375 L 268.203125 171.566406 C 268.214844 171.550781 268.230469 171.527344 268.238281 171.511719 L 268.28125 171.460938 C 268.289062 171.445312 268.296875 171.433594 268.308594 171.417969 L 268.347656 171.363281 C 268.578125 171.003906 268.785156 170.625 268.96875 170.238281 C 269.480469 169.164062 269.808594 168.027344 269.9375 166.863281 C 270.050781 165.863281 270.019531 164.851562 269.847656 163.855469 " fill-opacity="1" fill-rule="nonzero"/></g><g clip-path="url(#c0d7da6917)"><path fill="currentColor" d="M 201.421875 169.148438 L 226.6875 138.664062 C 227.203125 138.042969 227.628906 137.359375 227.949219 136.621094 C 228.320312 135.765625 228.546875 134.847656 228.621094 133.902344 C 228.648438 133.5625 228.652344 133.214844 228.636719 132.875 L 228.632812 132.804688 C 228.632812 132.785156 228.628906 132.769531 228.625 132.75 L 228.621094 132.714844 C 228.621094 132.695312 228.617188 132.671875 228.613281 132.652344 L 228.609375 132.617188 L 223.285156 101.988281 L 223.28125 101.945312 C 223.269531 101.753906 223.273438 101.5625 223.289062 101.371094 C 223.355469 100.46875 223.703125 99.625 224.28125 98.925781 L 225.691406 97.238281 L 227.472656 98.722656 C 228.339844 99.445312 229.632812 99.324219 230.355469 98.457031 L 234.660156 93.316406 C 234.941406 92.988281 235.105469 92.582031 235.136719 92.152344 C 235.140625 92.101562 235.144531 92.054688 235.144531 92.003906 C 235.152344 90.929688 234.320312 90.023438 233.246094 89.941406 C 232.667969 89.894531 232.09375 90.101562 231.671875 90.503906 C 231.570312 90.597656 231.476562 90.707031 231.398438 90.824219 L 228.519531 94.265625 L 205.851562 75.382812 L 208.988281 71.621094 L 209.003906 71.605469 C 209.320312 71.261719 209.507812 70.835938 209.542969 70.371094 C 209.546875 70.320312 209.550781 70.273438 209.550781 70.222656 C 209.558594 69.148438 208.722656 68.242188 207.652344 68.160156 C 207.003906 68.109375 206.363281 68.371094 205.941406 68.863281 L 205.910156 68.902344 C 205.902344 68.914062 205.890625 68.921875 205.882812 68.933594 L 201.398438 74.335938 C 201.125 74.664062 200.960938 75.0625 200.929688 75.484375 C 200.925781 75.53125 200.921875 75.582031 200.921875 75.628906 C 200.917969 76.246094 201.1875 76.824219 201.660156 77.21875 L 203.402344 78.667969 L 192.695312 91.453125 C 190.90625 93.597656 189.84375 96.195312 189.632812 98.953125 C 189.558594 99.890625 189.613281 100.660156 189.65625 101.15625 C 189.734375 102.015625 190.378906 104.984375 190.898438 107.367188 C 191.066406 108.132812 191.207031 108.792969 191.316406 109.296875 C 191.378906 109.613281 191.429688 109.847656 191.453125 109.96875 L 196.996094 136.535156 C 197.816406 140.515625 201.351562 143.300781 205.257812 143.300781 C 205.757812 143.300781 206.265625 143.253906 206.769531 143.160156 C 208.972656 142.746094 210.878906 141.492188 212.140625 139.621094 C 212.957031 138.40625 213.445312 137 213.558594 135.550781 C 213.613281 134.832031 213.578125 134.097656 213.449219 133.378906 L 210.523438 115.382812 C 210.445312 114.890625 210.195312 114.445312 209.8125 114.125 C 209.359375 113.75 208.769531 113.585938 208.191406 113.675781 C 207.246094 113.820312 206.535156 114.585938 206.460938 115.535156 C 206.449219 115.691406 206.453125 115.851562 206.480469 116.003906 L 209.402344 133.980469 L 209.417969 134.066406 C 209.488281 134.449219 209.507812 134.839844 209.476562 135.226562 C 209.421875 135.980469 209.167969 136.707031 208.742188 137.335938 C 208.105469 138.289062 207.136719 138.929688 206.019531 139.136719 C 203.734375 139.566406 201.484375 138.035156 201.007812 135.722656 L 200.976562 135.578125 L 195.574219 109.636719 C 194.507812 104.523438 193.910156 101.648438 193.886719 101.535156 C 193.710938 100.679688 193.660156 99.980469 193.714844 99.273438 C 193.863281 97.359375 194.597656 95.5625 195.835938 94.074219 L 206.542969 81.285156 L 222.546875 94.617188 L 221.140625 96.308594 C 220.007812 97.664062 219.339844 99.304688 219.203125 101.054688 C 219.171875 101.480469 219.171875 101.917969 219.203125 102.351562 C 219.210938 102.421875 219.21875 102.496094 219.234375 102.585938 L 224.550781 133.152344 L 224.550781 133.171875 C 224.554688 133.308594 224.550781 133.453125 224.539062 133.597656 C 224.5 134.085938 224.386719 134.554688 224.195312 134.992188 C 224.03125 135.367188 223.8125 135.722656 223.546875 136.042969 L 198.277344 166.527344 C 197.53125 167.421875 196.484375 167.972656 195.320312 168.078125 C 194.160156 168.183594 193.027344 167.832031 192.132812 167.085938 C 191.128906 166.25 190.554688 165.015625 190.566406 163.699219 C 190.566406 163.597656 190.570312 163.492188 190.578125 163.394531 C 190.648438 162.488281 190.992188 161.644531 191.574219 160.945312 L 200.761719 149.761719 C 200.800781 149.71875 200.835938 149.675781 200.875 149.628906 L 200.917969 149.574219 C 201.191406 149.246094 201.351562 148.847656 201.382812 148.425781 C 201.433594 147.765625 201.160156 147.117188 200.652344 146.695312 C 200.234375 146.34375 199.703125 146.179688 199.160156 146.230469 C 198.613281 146.277344 198.125 146.535156 197.773438 146.957031 L 188.429688 158.324219 C 187.304688 159.675781 186.636719 161.316406 186.5 163.070312 C 186.484375 163.269531 186.476562 163.46875 186.476562 163.664062 C 186.457031 166.214844 187.5625 168.605469 189.515625 170.230469 C 191.042969 171.507812 192.933594 172.1875 194.910156 172.1875 C 195.167969 172.1875 195.429688 172.175781 195.691406 172.152344 C 197.945312 171.945312 199.976562 170.878906 201.421875 169.148438 " fill-opacity="1" fill-rule="nonzero"/></g><g clip-path="url(#1f5e945df9)"><path fill="currentColor" d="M 100.332031 219.507812 C 100.023438 218.957031 99.488281 218.578125 98.867188 218.472656 L 95.296875 217.847656 L 99.261719 195.457031 C 99.878906 191.929688 99.398438 188.375 97.871094 185.175781 C 97.410156 184.207031 96.917969 183.429688 96.441406 182.75 C 95.59375 181.546875 91.046875 176.613281 89.195312 174.542969 C 88.910156 174.21875 88.695312 173.980469 88.589844 173.859375 L 64.640625 146.96875 C 60.832031 142.667969 54.214844 142.175781 49.882812 145.875 C 47.75 147.699219 46.464844 150.253906 46.265625 153.070312 C 46.136719 154.902344 46.484375 156.738281 47.265625 158.382812 C 47.65625 159.199219 48.15625 159.972656 48.746094 160.675781 L 48.753906 160.6875 C 48.761719 160.695312 48.769531 160.703125 48.773438 160.710938 L 48.78125 160.71875 L 64.019531 179.445312 C 64.339844 179.84375 64.792969 180.113281 65.296875 180.199219 C 65.886719 180.304688 66.496094 180.148438 66.964844 179.773438 C 67.730469 179.160156 67.96875 178.117188 67.550781 177.234375 C 67.484375 177.09375 67.394531 176.953125 67.296875 176.832031 L 52.050781 158.09375 L 52.046875 158.089844 C 52.035156 158.078125 52.023438 158.066406 52.015625 158.058594 C 52.007812 158.046875 52 158.035156 51.992188 158.023438 L 51.984375 158.015625 C 51.613281 157.578125 51.300781 157.097656 51.058594 156.585938 C 50.582031 155.585938 50.371094 154.472656 50.449219 153.363281 C 50.566406 151.679688 51.332031 150.152344 52.605469 149.0625 C 55.207031 146.84375 59.191406 147.144531 61.492188 149.738281 L 61.621094 149.882812 L 84.992188 176.144531 C 87.496094 178.953125 92.15625 184.1875 92.292969 184.347656 C 93.097656 185.261719 93.648438 186.070312 94.082031 186.976562 C 95.234375 189.394531 95.597656 192.074219 95.132812 194.734375 L 91.167969 217.128906 L 62.730469 212.167969 L 63.339844 208.6875 C 63.71875 206.503906 63.417969 204.304688 62.472656 202.320312 C 62.242188 201.832031 61.96875 201.359375 61.664062 200.910156 C 61.625 200.851562 61.574219 200.789062 61.507812 200.707031 L 35.183594 169.074219 L 35.15625 169.042969 L 35.117188 168.980469 C 35.011719 168.804688 34.90625 168.617188 34.8125 168.421875 C 34.503906 167.773438 34.308594 167.09375 34.234375 166.394531 C 34.164062 165.796875 34.183594 165.183594 34.289062 164.578125 L 43.183594 112.808594 C 43.480469 111.125 44.414062 109.65625 45.8125 108.671875 C 47.214844 107.6875 48.914062 107.304688 50.597656 107.597656 C 52.492188 107.929688 54.121094 109.082031 55.074219 110.761719 C 55.148438 110.890625 55.214844 111.027344 55.28125 111.160156 C 55.855469 112.363281 56.035156 113.691406 55.808594 115.003906 L 52.632812 133.949219 L 52.632812 133.960938 C 52.617188 134.023438 52.609375 134.089844 52.597656 134.152344 L 52.582031 134.265625 C 52.507812 134.691406 52.566406 135.128906 52.753906 135.523438 C 53.050781 136.140625 53.617188 136.570312 54.285156 136.6875 C 54.839844 136.78125 55.394531 136.660156 55.851562 136.335938 C 56.308594 136.015625 56.613281 135.535156 56.710938 134.988281 L 59.9375 115.730469 C 60.316406 113.554688 60.015625 111.355469 59.066406 109.363281 C 58.960938 109.140625 58.84375 108.917969 58.722656 108.703125 C 57.148438 105.921875 54.449219 104.015625 51.316406 103.46875 C 48.535156 102.984375 45.722656 103.613281 43.402344 105.242188 C 41.085938 106.875 39.542969 109.304688 39.054688 112.085938 L 30.160156 163.855469 C 29.984375 164.851562 29.953125 165.863281 30.066406 166.863281 C 30.195312 168.027344 30.523438 169.164062 31.035156 170.238281 C 31.21875 170.625 31.425781 171.003906 31.65625 171.363281 L 31.695312 171.417969 C 31.707031 171.433594 31.714844 171.445312 31.726562 171.460938 L 31.761719 171.511719 C 31.773438 171.527344 31.789062 171.550781 31.804688 171.566406 L 31.824219 171.59375 L 58.207031 203.296875 L 58.261719 203.371094 C 58.417969 203.613281 58.5625 203.867188 58.683594 204.125 C 59.257812 205.324219 59.4375 206.652344 59.207031 207.964844 L 58.597656 211.449219 L 54.960938 210.8125 C 53.820312 210.613281 52.734375 211.382812 52.535156 212.519531 L 50.984375 221.285156 C 50.902344 221.71875 50.960938 222.164062 51.15625 222.570312 C 51.175781 222.613281 51.199219 222.65625 51.222656 222.703125 C 51.765625 223.660156 52.96875 224.039062 53.964844 223.566406 C 54.503906 223.308594 54.910156 222.832031 55.082031 222.257812 C 55.125 222.113281 55.152344 221.960938 55.164062 221.804688 L 56.308594 215.304688 L 95.757812 222.183594 L 96.082031 222.242188 L 94.851562 229.265625 L 94.84375 229.308594 C 94.734375 229.773438 94.785156 230.253906 94.996094 230.6875 C 95.015625 230.730469 95.039062 230.777344 95.0625 230.820312 C 95.605469 231.78125 96.8125 232.160156 97.804688 231.683594 C 98.410156 231.398438 98.84375 230.839844 98.96875 230.191406 L 98.980469 230.128906 C 98.980469 230.113281 98.984375 230.101562 98.988281 230.085938 L 100.574219 220.894531 C 100.648438 220.464844 100.589844 220.03125 100.402344 219.636719 C 100.382812 219.59375 100.359375 219.550781 100.332031 219.507812 " fill-opacity="1" fill-rule="nonzero"/></g><g clip-path="url(#2a1a7e041a)"><path fill="currentColor" d="M 111.578125 158.328125 L 102.230469 146.953125 C 101.878906 146.535156 101.390625 146.277344 100.84375 146.230469 C 100.300781 146.179688 99.769531 146.34375 99.351562 146.695312 C 98.839844 147.117188 98.570312 147.765625 98.621094 148.425781 C 98.652344 148.851562 98.8125 149.246094 99.082031 149.570312 L 99.132812 149.628906 C 99.167969 149.675781 99.203125 149.722656 99.242188 149.761719 L 108.433594 160.945312 C 109.011719 161.644531 109.355469 162.488281 109.425781 163.394531 C 109.433594 163.496094 109.4375 163.597656 109.4375 163.699219 C 109.445312 165.015625 108.875 166.25 107.871094 167.085938 C 106.976562 167.832031 105.84375 168.183594 104.683594 168.078125 C 103.519531 167.972656 102.46875 167.421875 101.726562 166.527344 L 76.457031 136.042969 C 76.191406 135.722656 75.972656 135.367188 75.808594 134.988281 C 75.617188 134.554688 75.503906 134.085938 75.464844 133.597656 C 75.453125 133.453125 75.449219 133.308594 75.453125 133.171875 L 75.453125 133.152344 L 80.765625 102.589844 C 80.785156 102.496094 80.792969 102.421875 80.800781 102.347656 C 80.832031 101.917969 80.832031 101.484375 80.800781 101.054688 C 80.664062 99.304688 79.996094 97.664062 78.863281 96.308594 L 77.457031 94.617188 L 93.460938 81.289062 L 104.167969 94.074219 C 105.40625 95.5625 106.140625 97.359375 106.289062 99.273438 C 106.34375 99.984375 106.289062 100.679688 106.117188 101.535156 C 106.085938 101.699219 104.882812 107.464844 104.429688 109.636719 L 99.027344 135.574219 L 98.996094 135.722656 C 98.519531 138.035156 96.269531 139.566406 93.984375 139.136719 C 92.867188 138.929688 91.898438 138.289062 91.261719 137.335938 C 90.835938 136.707031 90.582031 135.980469 90.523438 135.226562 C 90.496094 134.839844 90.515625 134.449219 90.585938 134.066406 L 90.601562 133.992188 L 93.523438 116.003906 C 93.546875 115.851562 93.554688 115.691406 93.542969 115.539062 C 93.46875 114.585938 92.757812 113.820312 91.8125 113.675781 C 91.234375 113.585938 90.644531 113.75 90.191406 114.125 C 89.808594 114.445312 89.554688 114.890625 89.480469 115.378906 L 86.558594 133.34375 L 86.554688 133.375 C 86.425781 134.097656 86.390625 134.832031 86.445312 135.550781 C 86.558594 137 87.046875 138.40625 87.867188 139.621094 C 89.125 141.492188 91.03125 142.746094 93.230469 143.160156 C 93.738281 143.253906 94.246094 143.300781 94.746094 143.300781 C 98.652344 143.300781 102.1875 140.515625 103.007812 136.539062 L 108.546875 109.96875 C 108.574219 109.847656 108.621094 109.613281 108.6875 109.292969 C 108.792969 108.792969 108.9375 108.132812 109.105469 107.367188 C 109.621094 104.984375 110.269531 102.015625 110.347656 101.15625 C 110.417969 100.367188 110.425781 99.667969 110.371094 98.953125 C 110.15625 96.195312 109.097656 93.597656 107.308594 91.449219 L 96.601562 78.667969 L 98.34375 77.21875 C 98.816406 76.824219 99.085938 76.246094 99.082031 75.628906 C 99.082031 75.582031 99.078125 75.53125 99.074219 75.488281 C 99.042969 75.0625 98.878906 74.664062 98.605469 74.335938 L 94.121094 68.933594 C 94.113281 68.921875 94.101562 68.910156 94.09375 68.902344 L 94.058594 68.859375 C 93.640625 68.371094 93 68.109375 92.351562 68.160156 C 91.28125 68.246094 90.445312 69.152344 90.453125 70.222656 C 90.453125 70.273438 90.457031 70.324219 90.460938 70.367188 C 90.496094 70.835938 90.683594 71.265625 91 71.605469 L 94.152344 75.382812 L 71.484375 94.265625 L 68.609375 90.824219 C 68.527344 90.707031 68.433594 90.597656 68.332031 90.503906 C 67.910156 90.101562 67.335938 89.894531 66.757812 89.941406 C 65.683594 90.023438 64.851562 90.929688 64.859375 92.003906 C 64.859375 92.054688 64.859375 92.101562 64.863281 92.148438 C 64.898438 92.582031 65.0625 92.988281 65.34375 93.316406 L 69.648438 98.457031 C 70.371094 99.324219 71.664062 99.445312 72.53125 98.722656 L 74.3125 97.238281 L 75.722656 98.925781 C 76.300781 99.625 76.648438 100.46875 76.714844 101.371094 C 76.730469 101.5625 76.734375 101.753906 76.722656 101.945312 L 76.71875 101.988281 L 71.394531 132.605469 L 71.386719 132.652344 C 71.386719 132.671875 71.382812 132.695312 71.382812 132.714844 L 71.378906 132.75 C 71.375 132.769531 71.371094 132.785156 71.371094 132.804688 L 71.367188 132.875 C 71.351562 133.21875 71.355469 133.5625 71.382812 133.902344 C 71.457031 134.847656 71.683594 135.765625 72.054688 136.621094 C 72.375 137.359375 72.800781 138.046875 73.316406 138.664062 L 98.582031 169.148438 C 100.023438 170.878906 102.058594 171.945312 104.3125 172.152344 C 104.574219 172.175781 104.835938 172.1875 105.09375 172.1875 C 107.066406 172.1875 108.957031 171.503906 110.488281 170.230469 C 112.4375 168.609375 113.546875 166.214844 113.527344 163.664062 C 113.527344 163.46875 113.519531 163.269531 113.503906 163.070312 C 113.367188 161.316406 112.699219 159.675781 111.578125 158.328125 " fill-opacity="1" fill-rule="nonzero"/></g><path fill="currentColor" d="M 150.023438 94.117188 C 151.152344 94.117188 152.066406 93.199219 152.066406 92.074219 L 152.066406 81.144531 C 152.066406 80.015625 151.152344 79.101562 150.023438 79.101562 C 148.894531 79.101562 147.980469 80.015625 147.980469 81.144531 L 147.980469 92.074219 C 147.980469 93.199219 148.894531 94.117188 150.023438 94.117188 " fill-opacity="1" fill-rule="nonzero"/><path fill="currentColor" d="M 150.023438 188.53125 C 148.894531 188.53125 147.980469 189.445312 147.980469 190.574219 L 147.980469 201.5 C 147.980469 202.628906 148.894531 203.542969 150.023438 203.542969 C 151.152344 203.542969 152.066406 202.628906 152.066406 201.5 L 152.066406 190.574219 C 152.066406 189.445312 151.152344 188.53125 150.023438 188.53125 " fill-opacity="1" fill-rule="nonzero"/><path fill="currentColor" d="M 170.476562 101.015625 C 170.78125 101.175781 171.105469 101.25 171.425781 101.25 C 172.160156 101.25 172.871094 100.851562 173.234375 100.15625 L 178.308594 90.476562 C 178.832031 89.476562 178.449219 88.242188 177.449219 87.71875 C 176.449219 87.195312 175.214844 87.578125 174.691406 88.578125 L 169.617188 98.257812 C 169.09375 99.257812 169.480469 100.492188 170.476562 101.015625 " fill-opacity="1" fill-rule="nonzero"/><path fill="currentColor" d="M 129.570312 179.050781 C 128.570312 178.527344 127.335938 178.914062 126.8125 179.914062 L 121.738281 189.589844 C 121.214844 190.589844 121.597656 191.824219 122.597656 192.347656 C 122.902344 192.507812 123.226562 192.582031 123.542969 192.582031 C 124.28125 192.582031 124.992188 192.183594 125.355469 191.488281 L 130.429688 181.808594 C 130.953125 180.808594 130.566406 179.574219 129.570312 179.050781 " fill-opacity="1" fill-rule="nonzero"/><path fill="currentColor" d="M 126.8125 100.15625 C 127.175781 100.851562 127.886719 101.25 128.621094 101.25 C 128.941406 101.25 129.265625 101.175781 129.570312 101.015625 C 130.566406 100.492188 130.953125 99.257812 130.429688 98.257812 L 125.355469 88.578125 C 124.832031 87.582031 123.597656 87.195312 122.597656 87.71875 C 121.597656 88.242188 121.214844 89.476562 121.738281 90.476562 L 126.8125 100.15625 " fill-opacity="1" fill-rule="nonzero"/><path fill="currentColor" d="M 173.234375 179.914062 C 172.710938 178.914062 171.476562 178.527344 170.476562 179.050781 C 169.480469 179.574219 169.09375 180.808594 169.617188 181.808594 L 174.691406 191.488281 C 175.054688 192.183594 175.765625 192.582031 176.5 192.582031 C 176.820312 192.582031 177.144531 192.507812 177.449219 192.347656 C 178.449219 191.824219 178.832031 190.589844 178.308594 189.589844 L 173.234375 179.914062 " fill-opacity="1" fill-rule="nonzero"/></svg>