<svg xmlns="http://www.w3.org/2000/svg" xmlns:xlink="http://www.w3.org/1999/xlink" width="400" zoomAndPan="magnify" viewBox="0 0 300 299.999988" height="400" preserveAspectRatio="xMidYMid meet" version="1.0"><defs><clipPath id="079882198f"><path d="M 144.917969 57.230469 L 270 57.230469 L 270 142.621094 L 144.917969 142.621094 Z M 144.917969 57.230469 " clip-rule="nonzero"/></clipPath><clipPath id="732db273f7"><path d="M 111.609375 91.488281 L 209.714844 91.488281 L 209.714844 252.300781 L 111.609375 252.300781 Z M 111.609375 91.488281 " clip-rule="nonzero"/></clipPath><clipPath id="6a32cf78ea"><path d="M 117 239 L 124 239 L 124 252.300781 L 117 252.300781 Z M 117 239 " clip-rule="nonzero"/></clipPath></defs><g clip-path="url(#079882198f)"><path fill="currentColor" d="M 221.472656 128.007812 L 199.953125 91.257812 L 210.234375 85.242188 L 231.75 121.992188 Z M 269.558594 108.800781 C 268.65625 107.261719 266.675781 106.746094 265.136719 107.644531 L 239.429688 122.316406 L 238.964844 121.515625 C 238.964844 121.515625 238.964844 121.515625 238.960938 121.515625 L 214.179688 79.183594 C 214.179688 79.183594 214.175781 79.179688 214.175781 79.175781 L 213.710938 78.382812 L 239.941406 63.277344 C 241.480469 62.375 242 60.394531 241.097656 58.855469 C 240.195312 57.316406 238.214844 56.796875 236.675781 57.699219 L 207.652344 74.4375 C 206.484375 75.121094 205.902344 76.421875 206.085938 77.683594 C 206.140625 78.085938 206.277344 78.488281 206.496094 78.859375 L 206.964844 79.660156 L 193.898438 87.3125 C 193.160156 87.746094 192.621094 88.453125 192.40625 89.285156 C 192.292969 89.703125 192.269531 90.136719 192.332031 90.558594 C 192.382812 90.917969 192.496094 91.265625 192.667969 91.589844 L 190.453125 92.902344 L 173.800781 83.484375 C 173.472656 83.296875 173.113281 83.171875 172.738281 83.109375 L 149.433594 79.238281 C 149.421875 79.234375 149.023438 79.171875 148.828125 79.144531 C 148.808594 79.140625 148.789062 79.136719 148.769531 79.136719 C 148.742188 79.128906 148.722656 79.128906 148.71875 79.125 C 148.71875 79.125 148.714844 79.125 148.710938 79.125 C 148.535156 79.097656 148.351562 79.078125 148.167969 79.082031 C 146.375 79.09375 144.933594 80.558594 144.949219 82.351562 C 144.960938 84 146.207031 85.351562 147.804688 85.542969 L 171.117188 89.394531 L 188.890625 99.445312 C 189.894531 100.011719 191.125 100.003906 192.117188 99.417969 L 195.925781 97.167969 L 214.363281 128.660156 L 210.308594 131.035156 C 209.484375 131.519531 208.917969 132.34375 208.757812 133.285156 C 208.558594 134.464844 208.148438 136.28125 207.527344 138.320312 C 207.523438 138.335938 207.519531 138.34375 207.511719 138.355469 C 207.410156 138.679688 207.351562 139.023438 207.359375 139.382812 C 207.371094 141.175781 208.835938 142.617188 210.628906 142.601562 C 212.140625 142.589844 213.398438 141.542969 213.746094 140.144531 L 213.75 140.144531 C 214.265625 138.425781 214.617188 136.929688 214.839844 135.871094 L 217.636719 134.234375 C 218.582031 135.640625 220.464844 136.089844 221.949219 135.222656 L 235.015625 127.570312 L 235.484375 128.371094 C 236.390625 129.914062 238.367188 130.429688 239.910156 129.527344 L 268.402344 113.226562 C 269.945312 112.324219 270.460938 110.34375 269.558594 108.800781 " fill-opacity="1" fill-rule="nonzero"/></g><path fill="currentColor" d="M 118.824219 169.289062 C 117.078125 169.289062 115.664062 170.703125 115.664062 172.449219 C 115.664062 174.199219 117.078125 175.613281 118.824219 175.613281 C 121.019531 175.613281 122.800781 177.398438 122.800781 179.589844 C 122.800781 181.335938 124.21875 182.753906 125.964844 182.753906 C 127.710938 182.753906 129.128906 181.335938 129.128906 179.589844 C 129.128906 173.910156 124.507812 169.289062 118.824219 169.289062 " fill-opacity="1" fill-rule="nonzero"/><path fill="currentColor" d="M 96.3125 237.28125 L 96.152344 237.40625 L 95.988281 237.28125 C 91.835938 234.105469 83.648438 227.546875 75.480469 219.3125 C 61.179688 204.902344 53.621094 192.132812 53.628906 182.378906 C 53.632812 169.210938 63.285156 159.28125 76.074219 159.28125 C 78.730469 159.28125 81.625 160.027344 84.675781 161.5 C 86.109375 162.1875 87.546875 163.03125 88.945312 163.996094 C 89.820312 164.601562 90.683594 165.257812 91.515625 165.953125 L 91.734375 166.132812 L 89.132812 168.914062 C 88.558594 169.523438 88.257812 170.320312 88.289062 171.160156 C 88.316406 172 88.667969 172.777344 89.277344 173.347656 C 89.859375 173.894531 90.621094 174.195312 91.421875 174.195312 C 92.289062 174.195312 93.121094 173.832031 93.714844 173.203125 L 98.390625 168.171875 C 102.410156 164.070312 109.496094 159.28125 116.238281 159.28125 C 129.015625 159.28125 138.65625 169.210938 138.671875 182.382812 C 138.683594 192.042969 131.128906 204.789062 116.828125 219.234375 C 108.65625 227.488281 100.46875 234.082031 96.3125 237.28125 Z M 121.222656 223.714844 C 136.980469 207.816406 144.960938 193.90625 144.949219 182.375 C 144.941406 174.398438 142.046875 167.007812 136.796875 161.566406 C 131.472656 156.046875 124.171875 153.007812 116.238281 153.007812 C 107.199219 153.007812 99.304688 158.953125 96.332031 161.511719 L 96.15625 161.660156 L 95.984375 161.511719 C 94.871094 160.554688 93.703125 159.652344 92.511719 158.832031 C 90.847656 157.679688 89.128906 156.675781 87.398438 155.84375 C 83.492188 153.960938 79.683594 153.007812 76.074219 153.007812 C 68.140625 153.007812 60.835938 156.046875 55.507812 161.5625 C 50.253906 167.007812 47.355469 174.398438 47.351562 182.375 C 47.347656 188.902344 49.910156 196.253906 54.96875 204.222656 C 58.875 210.378906 64.300781 216.96875 71.089844 223.800781 C 82.5625 235.347656 93.84375 243.53125 94.320312 243.875 C 94.859375 244.261719 95.492188 244.46875 96.15625 244.46875 C 96.824219 244.46875 97.460938 244.261719 98.003906 243.867188 C 98.476562 243.523438 109.761719 235.28125 121.222656 223.714844 " fill-opacity="1" fill-rule="nonzero"/><g clip-path="url(#732db273f7)"><path fill="currentColor" d="M 199.265625 148.449219 C 196.152344 148.128906 193.101562 149.039062 190.675781 151.011719 C 190.570312 151.097656 190.472656 151.1875 190.382812 151.285156 L 178.757812 163.421875 L 178.738281 163.4375 L 178.445312 107.664062 C 178.40625 101.722656 173.539062 96.921875 167.597656 96.960938 C 165.761719 96.972656 164.035156 97.449219 162.523438 98.273438 C 160.90625 94.316406 157.003906 91.53125 152.476562 91.5625 C 149.542969 91.582031 146.886719 92.78125 144.953125 94.703125 C 142.996094 92.808594 140.328125 91.644531 137.390625 91.664062 C 131.863281 91.699219 127.324219 95.917969 126.753906 101.289062 C 125.410156 100.699219 123.925781 100.375 122.367188 100.386719 C 116.425781 100.425781 111.625 105.289062 111.664062 111.230469 C 111.664062 111.230469 111.839844 143.140625 111.839844 143.335938 C 111.839844 145.125 113.292969 146.578125 115.082031 146.578125 C 116.875 146.578125 118.328125 145.125 118.328125 143.335938 C 118.328125 143.261719 118.128906 111.1875 118.128906 111.1875 C 118.113281 108.8125 120.03125 106.867188 122.410156 106.851562 C 124.785156 106.835938 126.734375 108.753906 126.746094 111.132812 L 126.945312 140.617188 C 126.957031 142.402344 128.414062 143.839844 130.199219 143.828125 C 131.984375 143.816406 133.421875 142.359375 133.410156 140.574219 L 133.210938 111.089844 L 133.15625 102.46875 C 133.136719 100.09375 135.058594 98.144531 137.433594 98.128906 C 139.8125 98.113281 141.757812 100.03125 141.773438 102.410156 L 142.027344 140.140625 C 142.039062 141.925781 143.496094 143.363281 145.28125 143.351562 C 147.066406 143.339844 148.503906 141.882812 148.492188 140.097656 L 148.238281 102.363281 C 148.222656 99.988281 150.144531 98.042969 152.519531 98.027344 C 154.898438 98.011719 156.84375 99.933594 156.859375 102.308594 L 156.894531 107.808594 L 157.109375 139.851562 C 157.125 141.636719 158.578125 143.074219 160.363281 143.0625 C 162.148438 143.050781 163.585938 141.59375 163.574219 139.808594 L 163.359375 107.765625 C 163.34375 105.386719 165.265625 103.441406 167.640625 103.425781 C 170.019531 103.410156 171.964844 105.328125 171.980469 107.699219 L 172.304688 169.417969 C 172.304688 169.421875 172.304688 169.421875 172.304688 169.425781 C 172.304688 169.769531 172.363281 170.101562 172.464844 170.410156 C 172.269531 171.421875 172.558594 172.507812 173.335938 173.296875 C 174.589844 174.570312 176.632812 174.585938 177.90625 173.332031 L 183.328125 167.992188 C 183.347656 167.972656 183.371094 167.949219 183.390625 167.929688 L 194.894531 155.917969 C 195.960938 155.109375 197.269531 154.742188 198.605469 154.878906 C 200 155.023438 201.257812 155.699219 202.140625 156.789062 C 203.828125 158.859375 203.414062 161.503906 200.910156 164.644531 L 186.28125 182.433594 L 168.691406 192.804688 C 167.699219 193.386719 167.089844 194.457031 167.097656 195.609375 L 167.144531 200.027344 L 149.738281 200.007812 C 147.945312 200.007812 146.492188 201.457031 146.492188 203.25 C 146.492188 204.980469 147.851562 206.398438 149.5625 206.488281 C 149.617188 206.492188 170.25 206.476562 170.25 206.476562 L 170.320312 218.386719 L 140.777344 218.53125 C 138.984375 218.53125 137.535156 219.984375 137.535156 221.777344 C 137.535156 223.566406 138.984375 225.019531 140.777344 225.019531 L 173.59375 224.832031 C 173.597656 224.832031 173.597656 224.832031 173.601562 224.832031 L 174.523438 224.824219 L 174.503906 249.175781 C 174.515625 250.960938 175.96875 252.398438 177.757812 252.386719 C 179.542969 252.375 180.980469 250.921875 180.96875 249.136719 L 180.96875 221.554688 C 180.960938 220.199219 180.121094 219.046875 178.9375 218.574219 C 178.5625 218.421875 178.148438 218.339844 177.714844 218.339844 L 176.785156 218.347656 L 176.695312 203.203125 C 176.6875 202.347656 176.34375 201.527344 175.734375 200.921875 C 175.425781 200.617188 175.0625 200.382812 174.664062 200.226562 C 174.328125 200.089844 173.972656 200.015625 173.605469 199.996094 L 173.578125 197.425781 L 190.058594 187.714844 C 190.382812 187.523438 190.671875 187.273438 190.914062 186.984375 L 205.917969 168.734375 C 205.929688 168.722656 205.9375 168.710938 205.949219 168.699219 C 208.433594 165.589844 209.671875 162.414062 209.652344 159.421875 C 209.636719 157.019531 208.808594 154.738281 207.15625 152.707031 C 205.179688 150.28125 202.378906 148.765625 199.265625 148.449219 " fill-opacity="1" fill-rule="nonzero"/></g><path fill="currentColor" d="M 97.867188 79.71875 L 108.222656 85.613281 L 87.152344 122.625 L 76.800781 116.730469 Z M 72.328125 124.101562 C 72.652344 123.847656 72.929688 123.53125 73.144531 123.15625 L 73.601562 122.351562 L 86.761719 129.839844 C 87.507812 130.265625 88.390625 130.375 89.21875 130.148438 C 89.636719 130.035156 90.023438 129.835938 90.359375 129.574219 C 90.640625 129.351562 90.886719 129.078125 91.085938 128.769531 L 93.324219 130.03125 L 93.59375 148.054688 C 93.59375 149.847656 95.046875 151.296875 96.839844 151.296875 C 98.628906 151.296875 100.082031 149.847656 100.082031 148.054688 L 99.773438 128.109375 C 99.761719 126.957031 99.140625 125.898438 98.136719 125.328125 L 94.289062 123.160156 L 112.339844 91.445312 L 116.421875 93.765625 C 117.253906 94.238281 118.253906 94.320312 119.148438 93.988281 C 120.269531 93.570312 122.042969 93.015625 124.125 92.53125 C 124.136719 92.527344 124.148438 92.53125 124.160156 92.527344 C 124.492188 92.457031 124.820312 92.332031 125.128906 92.148438 C 126.671875 91.242188 127.1875 89.25 126.28125 87.707031 C 125.515625 86.40625 123.980469 85.839844 122.589844 86.238281 L 122.589844 86.234375 C 120.84375 86.648438 119.375 87.089844 118.34375 87.425781 L 115.527344 85.824219 C 116.273438 84.300781 115.71875 82.445312 114.230469 81.59375 L 101.066406 74.101562 L 101.527344 73.292969 C 102.410156 71.742188 101.867188 69.769531 100.316406 68.886719 L 64.316406 48.484375 C 62.765625 47.601562 60.792969 48.140625 59.90625 49.695312 C 59.023438 51.246094 59.566406 53.21875 61.117188 54.101562 L 94.3125 72.90625 L 93.851562 73.710938 C 93.851562 73.710938 93.851562 73.710938 93.851562 73.714844 L 69.582031 116.339844 C 69.582031 116.34375 69.582031 116.347656 69.578125 116.347656 L 69.125 117.148438 L 35.292969 98.105469 C 33.738281 97.222656 31.765625 97.765625 30.882812 99.316406 C 30 100.867188 30.539062 102.84375 32.09375 103.722656 L 68.734375 124.367188 C 69.910156 125.039062 71.328125 124.886719 72.328125 124.101562 " fill-opacity="1" fill-rule="nonzero"/><g clip-path="url(#6a32cf78ea)"><path fill="currentColor" d="M 120.269531 239.5625 C 118.476562 239.5625 117.023438 241.015625 117.023438 242.804688 C 117.023438 242.929688 117.015625 248.851562 117.015625 248.851562 C 117.027344 250.636719 118.480469 252.074219 120.269531 252.0625 C 122.054688 252.050781 123.492188 250.597656 123.480469 248.808594 L 123.53125 242.804688 C 123.53125 241.015625 122.058594 239.5625 120.269531 239.5625 " fill-opacity="1" fill-rule="nonzero"/></g></svg>