<svg xmlns="http://www.w3.org/2000/svg" xmlns:xlink="http://www.w3.org/1999/xlink" width="400" zoomAndPan="magnify" viewBox="0 0 300 299.999988" height="400" preserveAspectRatio="xMidYMid meet" version="1.0"><defs><clipPath id="05c9e7d277"><path d="M 39.707031 166.554688 L 146.648438 166.554688 L 146.648438 214.765625 L 39.707031 214.765625 Z M 39.707031 166.554688 " clip-rule="nonzero"/></clipPath><clipPath id="f8465adb43"><path d="M 71 85.199219 L 145 85.199219 L 145 169 L 71 169 Z M 71 85.199219 " clip-rule="nonzero"/></clipPath><clipPath id="1cde8e4d34"><path d="M 132.382812 93.039062 L 270 93.039062 L 270 198.628906 L 132.382812 198.628906 Z M 132.382812 93.039062 " clip-rule="nonzero"/></clipPath></defs><g clip-path="url(#05c9e7d277)"><path fill="currentColor" d="M 133.949219 173.234375 L 124.011719 179.75 C 123.070312 180.359375 122.808594 181.617188 123.417969 182.554688 C 124.03125 183.496094 125.289062 183.757812 126.226562 183.144531 L 136.164062 176.632812 C 138.074219 175.386719 140.636719 175.925781 141.882812 177.835938 C 143.128906 179.742188 142.585938 182.308594 140.679688 183.550781 L 110.714844 203.128906 C 110.382812 203.347656 110.023438 203.515625 109.652344 203.628906 C 109.085938 203.796875 108.480469 203.84375 107.890625 203.761719 L 79.304688 195.273438 C 79.234375 195.25 79.160156 195.230469 79.082031 195.214844 C 76.984375 194.808594 74.84375 195.226562 73.050781 196.394531 L 71.332031 197.515625 L 60.464844 180.855469 L 73.816406 172.09375 C 75.757812 170.828125 78.066406 170.378906 80.335938 170.820312 L 111.117188 181.03125 C 111.117188 181.03125 111.117188 181.03125 111.121094 181.03125 C 111.121094 181.03125 111.121094 181.035156 111.125 181.035156 C 113.257812 181.734375 114.460938 184.019531 113.804688 186.128906 C 113.484375 187.15625 112.777344 187.992188 111.808594 188.492188 C 110.832031 188.996094 109.710938 189.089844 108.648438 188.761719 C 108.636719 188.757812 108.628906 188.753906 108.617188 188.753906 C 108.605469 188.75 108.59375 188.746094 108.582031 188.742188 L 93.546875 184.59375 C 92.464844 184.296875 91.347656 184.929688 91.050781 186.011719 C 90.890625 186.59375 91 187.1875 91.308594 187.660156 C 91.570312 188.058594 91.972656 188.367188 92.46875 188.503906 L 107.503906 192.652344 C 107.507812 192.652344 107.511719 192.652344 107.511719 192.652344 C 109.578125 193.277344 111.761719 193.082031 113.667969 192.097656 C 115.609375 191.097656 117.03125 189.40625 117.675781 187.332031 C 118.984375 183.121094 116.617188 178.574219 112.398438 177.183594 C 112.398438 177.183594 112.394531 177.179688 112.394531 177.179688 L 81.660156 166.984375 C 81.546875 166.941406 81.433594 166.902344 81.3125 166.875 C 77.9375 166.167969 74.488281 166.8125 71.59375 168.699219 L 58.246094 177.457031 L 57.089844 175.6875 C 56.480469 174.75 55.222656 174.484375 54.285156 175.09375 L 40.640625 183.996094 C 39.699219 184.609375 39.4375 185.867188 40.050781 186.804688 L 50.949219 203.515625 C 51.5625 204.453125 52.820312 204.714844 53.757812 204.105469 C 54.695312 203.492188 54.960938 202.234375 54.347656 201.296875 L 44.554688 186.285156 L 54.800781 179.601562 L 70.226562 203.246094 L 59.980469 209.929688 L 59.5 209.191406 C 58.886719 208.253906 57.628906 207.988281 56.691406 208.601562 C 55.753906 209.214844 55.488281 210.46875 56.101562 211.410156 L 57.691406 213.847656 C 58.304688 214.785156 59.558594 215.050781 60.5 214.4375 L 74.144531 205.535156 C 75.082031 204.921875 75.347656 203.667969 74.734375 202.726562 L 73.550781 200.914062 L 75.269531 199.792969 C 76.148438 199.21875 77.199219 199.003906 78.234375 199.183594 L 106.878906 207.691406 C 106.882812 207.691406 106.882812 207.691406 106.886719 207.695312 C 106.925781 207.707031 106.960938 207.714844 107 207.722656 C 107.035156 207.730469 107.066406 207.738281 107.101562 207.742188 C 107.109375 207.746094 107.117188 207.746094 107.125 207.75 C 108.355469 207.953125 109.636719 207.871094 110.824219 207.511719 C 111.566406 207.285156 112.277344 206.957031 112.933594 206.527344 L 142.894531 186.949219 C 146.679688 184.484375 147.746094 179.398438 145.28125 175.617188 C 142.8125 171.835938 137.730469 170.769531 133.949219 173.234375 " fill-opacity="1" fill-rule="nonzero"/></g><path fill="currentColor" d="M 109.554688 145.855469 L 109.714844 145.898438 C 111.367188 146.316406 112.308594 146.832031 112.414062 146.886719 C 114.429688 148.011719 115.652344 149.855469 115.6875 151.816406 C 115.734375 154.710938 113.222656 157.285156 109.707031 157.929688 L 109.554688 157.957031 Z M 105.574219 141.066406 L 105.417969 141.03125 C 104.308594 140.800781 103.511719 140.476562 102.988281 140.046875 L 102.984375 140.042969 C 101.863281 139.089844 101.234375 137.851562 101.210938 136.550781 C 101.191406 135.214844 101.808594 133.925781 102.953125 132.921875 C 103.644531 132.316406 104.472656 131.855469 105.402344 131.558594 L 105.574219 131.503906 Z M 116.367188 159.175781 C 117.453125 158.222656 118.304688 157.109375 118.898438 155.875 C 119.523438 154.5625 119.832031 153.171875 119.804688 151.746094 C 119.746094 148.296875 117.734375 145.136719 114.417969 143.289062 C 114.101562 143.109375 112.382812 142.203125 109.660156 141.660156 L 109.554688 141.640625 L 109.554688 131.363281 L 109.714844 131.402344 C 110.761719 131.652344 111.730469 132.121094 112.511719 132.757812 C 113.6875 133.722656 114.351562 134.988281 114.375 136.324219 C 114.390625 137.441406 115.316406 138.351562 116.4375 138.351562 L 116.46875 138.347656 C 117.605469 138.332031 118.511719 137.390625 118.496094 136.253906 C 118.449219 133.683594 117.25 131.308594 115.117188 129.566406 C 113.632812 128.351562 111.792969 127.542969 109.800781 127.21875 L 109.695312 127.203125 L 109.652344 124.710938 C 109.632812 123.59375 108.707031 122.6875 107.585938 122.6875 L 107.554688 122.6875 C 106.421875 122.707031 105.511719 123.644531 105.53125 124.78125 L 105.574219 127.273438 L 105.46875 127.292969 C 103.488281 127.683594 101.679688 128.558594 100.234375 129.824219 C 98.164062 131.636719 97.046875 134.050781 97.089844 136.621094 C 97.132812 139.128906 98.285156 141.460938 100.328125 143.191406 L 100.351562 143.210938 C 101.574219 144.226562 103.199219 144.871094 105.464844 145.234375 L 105.574219 145.25 L 105.574219 157.765625 L 105.40625 157.714844 C 103.984375 157.300781 102.757812 156.554688 101.867188 155.566406 C 100.949219 154.546875 100.453125 153.339844 100.433594 152.078125 C 100.414062 150.960938 99.488281 150.050781 98.367188 150.050781 L 98.335938 150.050781 C 97.785156 150.0625 97.273438 150.285156 96.890625 150.679688 C 96.507812 151.074219 96.300781 151.597656 96.3125 152.148438 C 96.335938 153.578125 96.6875 154.953125 97.359375 156.242188 C 97.996094 157.460938 98.886719 158.539062 100.003906 159.453125 C 101.5 160.675781 103.339844 161.535156 105.324219 161.9375 L 105.425781 161.960938 L 105.472656 164.570312 C 105.492188 165.6875 106.414062 166.59375 107.53125 166.59375 L 107.566406 166.59375 C 108.117188 166.585938 108.632812 166.363281 109.015625 165.96875 C 109.398438 165.570312 109.601562 165.050781 109.59375 164.5 L 109.550781 162.117188 L 109.667969 162.101562 C 112.222656 161.789062 114.539062 160.777344 116.367188 159.175781 " fill-opacity="1" fill-rule="nonzero"/><g clip-path="url(#f8465adb43)"><path fill="currentColor" d="M 75.550781 136.355469 C 72.78125 141 71.492188 145.390625 71.492188 150.175781 C 71.492188 155.125 71.769531 156.621094 73.492188 160.828125 C 73.8125 161.613281 74.566406 162.085938 75.363281 162.085938 C 75.617188 162.085938 75.878906 162.039062 76.128906 161.9375 C 77.160156 161.515625 77.65625 160.335938 77.234375 159.300781 C 75.707031 155.566406 75.535156 154.628906 75.535156 150.175781 C 75.535156 141.339844 80.800781 135.203125 88.09375 126.707031 C 92.3125 121.789062 97.070312 116.246094 101.613281 109.148438 L 107.199219 109.148438 C 108.3125 109.148438 109.21875 108.242188 109.21875 107.125 C 109.21875 106.011719 108.3125 105.105469 107.199219 105.105469 L 101.371094 105.105469 C 100.566406 104.058594 98.832031 101.53125 97.082031 98.46875 C 95.789062 96.210938 94.785156 94.167969 94.148438 92.53125 C 94.859375 92.652344 95.675781 92.769531 96.613281 92.886719 C 96.820312 92.914062 96.996094 92.933594 97.101562 92.949219 C 99.417969 93.28125 102.421875 93.476562 105.078125 92.027344 C 105.8125 91.625 106.457031 91.125 107.023438 90.6875 C 108.003906 89.921875 108.640625 89.453125 109.371094 89.40625 C 110.636719 89.328125 111.980469 89.894531 113.410156 90.496094 C 114.699219 91.035156 116.03125 91.597656 117.535156 91.8125 C 118.832031 91.996094 120.082031 92.144531 121.304688 92.253906 C 119.773438 95.628906 116.984375 101.5 114.566406 105.105469 L 113.652344 105.105469 C 112.535156 105.105469 111.632812 106.011719 111.632812 107.125 C 111.632812 108.242188 112.535156 109.148438 113.652344 109.148438 L 114.351562 109.148438 C 117.183594 114.707031 121.53125 119.234375 125.746094 123.625 C 133.382812 131.578125 140.597656 139.09375 140.585938 152.761719 C 140.582031 157.695312 139.179688 161.800781 136.300781 165.316406 C 135.59375 166.179688 135.722656 167.453125 136.585938 168.160156 C 136.960938 168.46875 137.414062 168.617188 137.863281 168.617188 C 138.449219 168.617188 139.03125 168.363281 139.429688 167.875 C 142.921875 163.613281 144.621094 158.667969 144.628906 152.765625 C 144.632812 145.898438 142.953125 139.757812 139.492188 133.988281 C 136.46875 128.957031 132.5 124.820312 128.660156 120.824219 C 124.472656 116.460938 120.503906 112.324219 117.953125 107.3125 C 121.699219 101.699219 125.992188 91.671875 126.183594 91.222656 C 126.441406 90.613281 126.386719 89.914062 126.03125 89.351562 C 125.679688 88.789062 125.074219 88.4375 124.410156 88.410156 C 122.386719 88.320312 120.324219 88.125 118.101562 87.808594 C 117.121094 87.667969 116.078125 87.230469 114.976562 86.769531 C 113.265625 86.046875 111.324219 85.230469 109.113281 85.371094 C 107.105469 85.5 105.683594 86.605469 104.542969 87.496094 C 104.050781 87.875 103.589844 88.234375 103.144531 88.476562 C 101.53125 89.355469 99.375 89.191406 97.671875 88.945312 C 97.535156 88.925781 97.347656 88.902344 97.117188 88.875 C 94.226562 88.515625 93.179688 88.230469 92.800781 88.070312 C 92.304688 87.546875 91.550781 87.320312 90.828125 87.511719 C 89.941406 87.742188 89.320312 88.546875 89.320312 89.46875 C 89.320312 91.964844 90.886719 95.902344 93.980469 101.179688 C 95.015625 102.945312 96.152344 104.734375 97.1875 106.21875 C 97.476562 106.628906 97.742188 107 97.980469 107.320312 C 93.65625 114.019531 89.085938 119.34375 85.027344 124.070312 C 81.25 128.472656 77.984375 132.277344 75.550781 136.355469 " fill-opacity="1" fill-rule="nonzero"/></g><path fill="currentColor" d="M 66.585938 110.863281 L 77.265625 110.863281 C 78.382812 110.863281 79.285156 109.957031 79.285156 108.839844 C 79.285156 107.722656 78.382812 106.820312 77.265625 106.820312 L 66.585938 106.820312 C 65.46875 106.820312 64.5625 107.722656 64.5625 108.839844 C 64.5625 109.957031 65.46875 110.863281 66.585938 110.863281 " fill-opacity="1" fill-rule="nonzero"/><path fill="currentColor" d="M 36.246094 129.683594 C 36.246094 128.566406 35.34375 127.664062 34.226562 127.664062 L 32.019531 127.664062 C 30.90625 127.664062 30 128.566406 30 129.683594 C 30 130.800781 30.90625 131.703125 32.019531 131.703125 L 34.226562 131.703125 C 35.34375 131.703125 36.246094 130.800781 36.246094 129.683594 " fill-opacity="1" fill-rule="nonzero"/><path fill="currentColor" d="M 47.769531 131.703125 L 55.785156 131.703125 C 56.902344 131.703125 57.808594 130.800781 57.808594 129.683594 C 57.808594 128.566406 56.902344 127.664062 55.785156 127.664062 L 47.769531 127.664062 C 46.652344 127.664062 45.746094 128.566406 45.746094 129.683594 C 45.746094 130.800781 46.652344 131.703125 47.769531 131.703125 " fill-opacity="1" fill-rule="nonzero"/><path fill="currentColor" d="M 49.339844 152.761719 C 49.339844 151.644531 48.4375 150.742188 47.320312 150.742188 L 35.464844 150.742188 C 34.351562 150.742188 33.445312 151.644531 33.445312 152.761719 C 33.445312 153.878906 34.351562 154.785156 35.464844 154.785156 L 47.320312 154.785156 C 48.4375 154.785156 49.339844 153.878906 49.339844 152.761719 " fill-opacity="1" fill-rule="nonzero"/><path fill="currentColor" d="M 57.484375 150.742188 C 56.367188 150.742188 55.460938 151.644531 55.460938 152.761719 C 55.460938 153.878906 56.367188 154.785156 57.484375 154.785156 L 59.25 154.785156 C 60.367188 154.785156 61.273438 153.878906 61.273438 152.761719 C 61.273438 151.644531 60.367188 150.742188 59.25 150.742188 L 57.484375 150.742188 " fill-opacity="1" fill-rule="nonzero"/><path fill="currentColor" d="M 55.785156 110.863281 L 58.089844 110.863281 C 59.207031 110.863281 60.113281 109.957031 60.113281 108.839844 C 60.113281 107.722656 59.207031 106.820312 58.089844 106.820312 L 55.785156 106.820312 C 54.671875 106.820312 53.765625 107.722656 53.765625 108.839844 C 53.765625 109.957031 54.671875 110.863281 55.785156 110.863281 " fill-opacity="1" fill-rule="nonzero"/><g clip-path="url(#1cde8e4d34)"><path fill="currentColor" d="M 252.023438 177.832031 C 252.023438 179.210938 250.90625 180.328125 249.527344 180.332031 C 248.152344 180.332031 247.035156 179.210938 247.035156 177.835938 C 247.03125 177.171875 247.292969 176.542969 247.765625 176.070312 C 248.234375 175.597656 248.859375 175.339844 249.527344 175.339844 L 249.53125 175.242188 L 249.53125 175.339844 C 250.90625 175.339844 252.023438 176.457031 252.023438 177.832031 Z M 254.390625 192.234375 L 254.390625 192.402344 L 254.277344 192.523438 C 253.078125 193.871094 251.347656 194.644531 249.539062 194.644531 C 247.730469 194.644531 246 193.875 244.796875 192.53125 L 244.6875 192.40625 L 244.6875 192.242188 C 244.675781 190.867188 245.609375 186.710938 247.355469 183.929688 C 248.050781 184.179688 248.785156 184.304688 249.535156 184.304688 C 250.277344 184.304688 251.011719 184.175781 251.710938 183.925781 C 253.457031 186.699219 254.398438 190.859375 254.390625 192.234375 Z M 269.996094 123.113281 C 269.945312 122.300781 269.417969 121.613281 268.648438 121.351562 L 184.773438 93.230469 L 184.769531 93.230469 C 184.550781 93.144531 184.308594 93.09375 184.054688 93.09375 C 183.855469 93.09375 183.660156 93.125 183.480469 93.179688 L 183.476562 93.179688 L 133.890625 109.867188 C 133.820312 109.886719 133.753906 109.910156 133.6875 109.933594 C 132.957031 110.226562 132.4375 110.9375 132.4375 111.773438 C 132.4375 112.867188 133.324219 113.753906 134.417969 113.753906 C 134.664062 113.753906 134.898438 113.710938 135.113281 113.628906 L 184.085938 97.136719 L 262.621094 123.507812 L 248.964844 130.109375 L 222.636719 127.921875 C 222.578125 127.917969 222.515625 127.914062 222.453125 127.914062 C 221.421875 127.914062 220.574219 128.691406 220.480469 129.722656 C 220.433594 130.25 220.59375 130.765625 220.933594 131.175781 C 221.273438 131.582031 221.753906 131.832031 222.28125 131.878906 L 242.011719 133.472656 L 184.113281 161.46875 L 154.171875 147.089844 C 153.902344 146.949219 153.597656 146.875 153.277344 146.875 C 152.183594 146.875 151.296875 147.757812 151.296875 148.851562 C 151.296875 149.664062 151.785156 150.359375 152.480469 150.667969 L 183.253906 165.464844 C 183.515625 165.589844 183.8125 165.65625 184.113281 165.65625 C 184.417969 165.65625 184.714844 165.589844 184.976562 165.464844 L 228.472656 144.433594 L 228.496094 174.605469 L 228.445312 174.703125 C 227.949219 175.640625 227.144531 176.582031 226.054688 177.507812 C 220.351562 182.335938 207.335938 187.800781 191.109375 189.132812 L 190.703125 189.152344 C 188.859375 189.246094 185.425781 189.421875 184.078125 189.421875 L 183.96875 189.421875 C 183.933594 189.421875 183.898438 189.421875 183.863281 189.421875 C 183.828125 189.417969 183.796875 189.417969 183.761719 189.417969 C 182.222656 189.394531 179.105469 189.234375 177.429688 189.148438 L 177.101562 189.132812 C 168.308594 188.414062 160.496094 186.496094 154.242188 184.105469 C 154.242188 184.105469 154.238281 184.105469 154.238281 184.105469 C 154.015625 184.019531 153.773438 183.96875 153.515625 183.96875 C 152.421875 183.96875 151.539062 184.855469 151.539062 185.949219 C 151.539062 186.789062 152.0625 187.507812 152.796875 187.792969 C 152.800781 187.796875 152.800781 187.796875 152.800781 187.796875 C 152.808594 187.800781 152.820312 187.800781 152.828125 187.804688 C 152.832031 187.808594 152.835938 187.808594 152.839844 187.8125 C 154.015625 188.261719 155.226562 188.707031 156.476562 189.113281 C 164.640625 191.765625 173.699219 193.238281 182.671875 193.382812 L 185.519531 193.382812 C 194.492188 193.238281 203.550781 191.765625 211.714844 189.113281 C 218.804688 186.8125 224.808594 183.765625 228.621094 180.542969 C 230.351562 179.078125 231.589844 177.5 232.296875 175.851562 C 232.355469 175.714844 232.402344 175.578125 232.429688 175.4375 C 232.457031 175.3125 232.46875 175.179688 232.46875 175.039062 L 232.445312 142.511719 L 247.523438 135.222656 L 247.539062 171.589844 C 247.539062 171.621094 247.539062 171.648438 247.539062 171.679688 C 246.277344 172.085938 245.144531 172.898438 244.347656 173.964844 C 243.503906 175.089844 243.058594 176.429688 243.058594 177.839844 C 243.058594 179.152344 243.453125 180.414062 244.199219 181.492188 C 243 183.296875 241.941406 185.832031 241.285156 188.453125 C 240.140625 193.035156 241.054688 194.214844 241.355469 194.601562 C 243.332031 197.15625 246.3125 198.617188 249.535156 198.617188 L 249.542969 198.617188 C 252.769531 198.617188 255.75 197.148438 257.722656 194.59375 C 258.023438 194.203125 258.9375 193.019531 257.789062 188.441406 C 257.128906 185.820312 256.066406 183.292969 254.867188 181.488281 C 255.609375 180.402344 256 179.140625 256 177.832031 C 255.996094 176.421875 255.550781 175.085938 254.707031 173.957031 C 253.902344 172.890625 252.769531 172.082031 251.507812 171.675781 C 251.511719 171.644531 251.511719 171.617188 251.511719 171.585938 L 251.496094 133.300781 L 257.351562 130.46875 C 257.558594 130.441406 257.761719 130.382812 257.949219 130.289062 L 268.875 125.023438 C 269.605469 124.671875 270.046875 123.921875 269.996094 123.113281 " fill-opacity="1" fill-rule="nonzero"/></g></svg>