<svg xmlns="http://www.w3.org/2000/svg" xmlns:xlink="http://www.w3.org/1999/xlink" width="400" zoomAndPan="magnify" viewBox="0 0 300 299.999988" height="400" preserveAspectRatio="xMidYMid meet" version="1.0"><path fill="#a9a0f0" d="M 246.183594 218.113281 L 251.078125 218.113281 C 251.078125 218.222656 251.074219 218.328125 251.074219 218.433594 C 249.4375 218.609375 247.8125 218.277344 246.183594 218.113281 Z M 246.183594 218.113281 " fill-opacity="1" fill-rule="nonzero"/><path fill="#a9a0f0" d="M 191.363281 197.855469 C 190.558594 197.703125 189.738281 197.597656 189.167969 196.898438 C 190.070312 196.808594 190.695312 197.382812 191.363281 197.855469 Z M 191.363281 197.855469 " fill-opacity="1" fill-rule="nonzero"/><path fill="#a9a0f0" d="M 250.289062 217.421875 C 249.644531 217.5625 249.195312 217.484375 248.492188 217.417969 C 248.769531 217.261719 249.070312 217.1875 249.390625 217.1875 C 249.710938 217.1875 250.007812 217.265625 250.289062 217.421875 Z M 250.289062 217.421875 " fill-opacity="1" fill-rule="nonzero"/><path fill="#a9a0f0" d="M 155.464844 195.925781 C 156.648438 195.957031 157.257812 197.246094 158.496094 196.929688 C 158.972656 196.75 160.351562 198 160.535156 198.53125 C 160.722656 199.050781 159.761719 199.488281 159.4375 199.089844 C 158.289062 197.816406 156.847656 196.917969 155.464844 195.925781 Z M 155.464844 195.925781 " fill-opacity="1" fill-rule="nonzero"/><path fill="#a9a0f0" d="M 259.75 225.726562 C 261.839844 225.796875 257.472656 226.988281 257.003906 226.96875 C 257.269531 226.414062 257.925781 226.589844 258.191406 226.167969 Z M 259.75 225.726562 " fill-opacity="1" fill-rule="nonzero"/><path fill="#a9a0f0" d="M 259.75 225.726562 C 258.945312 225.925781 258.316406 226.277344 257.449219 226.089844 C 257.929688 225.625 259.804688 224.59375 259.75 225.726562 Z M 259.75 225.726562 " fill-opacity="1" fill-rule="nonzero"/><path fill="#a9a0f0" d="M 161.308594 197.859375 C 161.867188 198.207031 162.167969 198.429688 161.714844 199.007812 C 161.464844 198.722656 161.441406 198.394531 161.308594 197.859375 Z M 161.308594 197.859375 " fill-opacity="1" fill-rule="nonzero"/><path fill="#a9a0f0" d="M 96.289062 161.949219 C 95.800781 163.101562 94.824219 163.863281 93.921875 164.621094 C 91.773438 166.417969 89.765625 168.375 87.441406 169.972656 C 86.230469 170.808594 85.371094 172.101562 84.21875 173.054688 C 81.746094 175.113281 78.648438 176.210938 75.75 177.539062 C 67.484375 182.476562 58.144531 179.277344 49.765625 176.445312 C 40.210938 173.640625 36.019531 163.53125 32.253906 155.179688 C 30.152344 150.519531 31.015625 145.5 30.648438 140.605469 C 30.140625 134.207031 34.863281 124.25 39.078125 119.515625 C 55.875 100.425781 75.273438 83.136719 96.5625 69.199219 C 101.753906 65.84375 107.460938 69.144531 112.421875 71.3125 C 117.5 74.25 123.964844 75.601562 127.378906 80.703125 C 133.453125 88.664062 136.371094 98.902344 144.207031 105.488281 C 154.765625 113.824219 148.371094 128.273438 160.550781 133.644531 C 174.113281 141.757812 189.640625 145.554688 205.429688 144.421875 C 230.484375 143.460938 227.03125 150.738281 245.402344 159.113281 C 249.242188 160.671875 252.511719 163.019531 255.214844 166.160156 C 257.523438 167.128906 257.886719 169.410156 258.640625 171.351562 C 261.660156 180.613281 264.105469 190.132812 265.351562 199.804688 C 266.675781 208.5 269.863281 218.304688 263.832031 225.9375 C 263.460938 226.703125 262.882812 227.253906 262.097656 227.585938 C 253.464844 231.628906 243.988281 234.125 234.566406 231.113281 C 228.09375 229.230469 221.796875 226.867188 215.679688 224.027344 C 198.929688 216.167969 180.738281 212.347656 163.730469 205.15625 C 159.160156 203.667969 156.097656 198.921875 151.164062 198.550781 C 148.058594 198.019531 144.9375 199.113281 141.847656 198.34375 C 132.335938 196.308594 122.964844 193.324219 113.792969 190.105469 C 102.414062 185.445312 101.710938 171.28125 96.261719 161.980469 C 96.601562 161.496094 96.207031 161.113281 96.050781 160.726562 C 92.835938 152.980469 89.65625 145.019531 84.542969 138.316406 C 86.871094 144.542969 90.75 150.671875 90.277344 157.679688 C 87.644531 149.464844 85.871094 140.359375 79.808594 133.90625 C 78.914062 132.675781 78.199219 131.527344 76.40625 131.511719 C 78.761719 133.851562 80.808594 136.160156 82.140625 139.21875 C 81.554688 138.957031 81.414062 138.5625 81.242188 138.230469 C 79.886719 135.859375 76.1875 130.640625 73.21875 131.003906 C 78.421875 134.917969 82.636719 139.945312 84.679688 146.304688 C 86.894531 152.167969 87.726562 158.222656 87.167969 164.46875 C 89.414062 158.828125 87.007812 152.199219 86.039062 146.441406 L 86.011719 146.464844 C 89.378906 151.226562 89.515625 162.230469 87.511719 167.75 C 91.292969 164.703125 89.960938 163.464844 90.171875 159.160156 C 90.554688 160.707031 90.253906 162.527344 90.328125 164.164062 C 90.3125 164.773438 90.667969 164.683594 91.074219 164.707031 C 90.179688 165.800781 89.15625 166.746094 88.496094 168.015625 C 88.925781 168.117188 89.078125 167.84375 89.234375 167.667969 C 90.789062 165.890625 92.691406 164.496094 94.457031 162.949219 C 94.988281 162.484375 95.46875 161.894531 96.289062 161.949219 Z M 166.609375 144.78125 C 166.15625 143.71875 164.945312 143.792969 164.253906 143.078125 C 160.472656 140.785156 156.640625 138.105469 152.980469 135.867188 C 154.878906 138.6875 158.429688 139.855469 160.898438 141.984375 C 160.578125 141.816406 160.289062 141.554688 159.679688 141.613281 C 162.636719 144.085938 165.628906 146.058594 169.4375 146.914062 C 168.851562 146.277344 168.050781 146.242188 167.753906 145.5625 C 169.4375 146.300781 171.109375 147.074219 173 147.09375 C 170.875 146.339844 168.820312 144.980469 166.578125 144.765625 Z M 222.308594 199.609375 C 224.207031 201.359375 226.132812 203.066406 228.703125 203.769531 C 226.628906 202.339844 224.652344 200.53125 222.339844 199.574219 C 220.25 197.75 217.765625 196.207031 215.855469 194.089844 C 214.363281 192.621094 212.800781 191.152344 210.9375 190.171875 C 210.832031 190.332031 210.851562 190.476562 210.996094 190.605469 C 214.066406 194.378906 217.742188 197.78125 222.308594 199.609375 Z M 175.171875 148.664062 C 173.414062 148.445312 171.761719 147.707031 169.765625 147.527344 C 174.132812 149.414062 178.691406 150.003906 182.71875 152.703125 C 185.164062 153.925781 188.511719 155.773438 191.265625 155.476562 C 185.492188 153.996094 180.839844 150.160156 175.128906 148.617188 C 179.929688 148.957031 183.800781 152.484375 188.601562 153.113281 C 183.570312 150.089844 180.4375 148.691406 174.632812 148.0625 C 174.777344 148.359375 175.214844 148.289062 175.171875 148.664062 Z M 78.730469 84.523438 C 85.394531 80.570312 91.507812 75.265625 98.105469 71.03125 C 98.300781 70.902344 98.59375 70.847656 98.578125 70.425781 C 91.300781 73.714844 84.753906 79.441406 78.753906 84.546875 C 78.261719 84.53125 78.046875 84.890625 77.824219 85.238281 C 78.238281 85.144531 78.632812 85.019531 78.730469 84.523438 Z M 215.484375 189.328125 C 215.863281 190.023438 216.386719 190.585938 217.050781 191.011719 C 216.679688 190.324219 216.257812 189.675781 215.59375 189.226562 C 207.402344 179.328125 196.03125 170.65625 183.402344 167.65625 C 190.410156 171.367188 198.199219 174.023438 204.429688 179.144531 C 208.40625 182.222656 211.910156 185.859375 215.484375 189.328125 Z M 246.828125 211.9375 C 251.640625 213.003906 256.535156 212.175781 261.40625 212.101562 C 262.832031 212.042969 264.207031 212.195312 265.40625 213.085938 C 265.492188 213.152344 265.589844 213.179688 265.699219 213.171875 C 265.8125 213.160156 265.902344 213.113281 265.976562 213.03125 C 264.527344 210.355469 260.414062 210.46875 257.71875 210.320312 C 251.664062 210.539062 245.703125 209.957031 239.707031 209.46875 C 241.851562 210.832031 244.496094 211.042969 246.871094 211.960938 C 246.71875 212.335938 246.214844 211.816406 246.085938 212.300781 C 246.644531 212.351562 247.160156 212.652344 247.832031 212.53125 C 247.457031 212.292969 247.011719 212.320312 246.828125 211.9375 Z M 70.859375 162.675781 L 70.878906 162.691406 C 71.128906 161.167969 74.917969 157.140625 74.289062 155.78125 C 70.429688 160.871094 66.972656 166.148438 61.917969 170.234375 C 67.304688 171.050781 80 172.664062 76.527344 163.542969 C 76.042969 163.433594 75.945312 164.042969 75.546875 163.8125 C 75.660156 163.230469 76.628906 162.988281 76.113281 162.082031 C 75.378906 162.4375 74.957031 163.246094 74.167969 163.503906 C 74.519531 162.636719 76.25 161.90625 75.886719 160.957031 C 75.390625 160.53125 74.671875 162.347656 73.964844 162.484375 C 74.371094 161.328125 75.675781 160.785156 75.464844 159.40625 C 74.671875 160.40625 74.15625 161.410156 73.261719 162.152344 C 73.140625 161.714844 73.734375 161.558594 73.488281 161.175781 C 73.199219 161.160156 73.167969 161.613281 72.8125 161.480469 C 72.851562 160.867188 73.53125 160.476562 73.488281 159.617188 C 72.460938 160.742188 72.101562 161.960938 70.859375 162.675781 Z M 253.335938 176.976562 C 255.316406 177.46875 256.816406 179.109375 258.886719 179.1875 C 258.136719 175.886719 257.132812 172.660156 256.351562 169.371094 C 256.242188 168.773438 255.921875 168.324219 255.398438 168.023438 C 253.351562 167.070312 252.339844 164.984375 250.480469 163.828125 C 248.644531 162.570312 246.683594 161.558594 244.589844 160.800781 C 238.316406 158.789062 233.476562 154.355469 228.144531 150.695312 C 215.25 142.863281 197.164062 148.34375 182.550781 144.238281 C 174.375 142.757812 167.035156 139.308594 159.734375 135.515625 C 155.546875 133.636719 152.703125 130.535156 151.148438 126.230469 C 148.859375 116.75 149.433594 112.078125 141.082031 105.226562 C 136.402344 100.957031 133.742188 95.058594 130.664062 89.628906 C 127.84375 84.984375 125.441406 79.382812 120.148438 77.101562 C 117.398438 75.960938 114.757812 74.550781 112.070312 73.261719 C 111.59375 73.035156 111.144531 72.644531 110.5625 73.042969 C 110.460938 73.113281 110.324219 73.183594 110.230469 72.886719 C 109.867188 71.359375 108.628906 72.511719 107.691406 72.542969 C 107.699219 72.070312 108.558594 72.183594 108.316406 71.675781 C 107.960938 71.226562 107.496094 71.902344 107.074219 71.675781 C 105.761719 70.769531 105.429688 72.066406 104.109375 72.003906 C 104.578125 71.347656 105.441406 71.398438 106.015625 70.625 C 104.554688 70.96875 103.5 71.824219 102.0625 72.0625 C 102.746094 71.273438 103.722656 71.1875 104.359375 70.46875 C 103.660156 70.339844 103.152344 70.582031 102.683594 70.820312 C 100.316406 72.054688 97.78125 72.9375 95.507812 74.355469 C 101.75 76.035156 108.167969 76.757812 114.414062 78.488281 C 117.566406 79.1875 119.746094 81.449219 121.429688 84.082031 C 125.871094 90.410156 130.328125 96.726562 135.09375 102.820312 C 138.464844 106.632812 140.011719 111.761719 143.675781 115.308594 C 146.238281 117.71875 147.882812 120.707031 149.394531 123.808594 C 151.441406 127.125 149.960938 132.070312 152.960938 134.742188 C 160.386719 139.429688 168.199219 143.804688 176.695312 146.15625 C 179.59375 146.953125 182.363281 148.035156 184.898438 149.644531 C 188.164062 151.722656 191.515625 153.5625 195.414062 154.136719 C 195.609375 154.167969 195.996094 154.214844 195.882812 154.476562 C 195.222656 156.109375 197.207031 154.292969 200.363281 155.027344 C 206.957031 156.121094 214.089844 151.148438 220.195312 153.003906 C 222.304688 154.191406 224.796875 154.3125 226.890625 155.53125 C 230.089844 157.246094 233.097656 159.230469 235.769531 161.714844 C 240.773438 166.800781 247.527344 169.796875 251.667969 175.722656 C 249.671875 174.988281 248.679688 172.375 246.363281 172.21875 C 250.09375 176.117188 254.0625 179.53125 259.394531 180.925781 C 257.167969 179.917969 255.027344 178.777344 253.335938 176.976562 Z M 63.410156 99.0625 C 70.007812 97.308594 76.933594 97.703125 83.675781 96.707031 C 88.15625 95.871094 92.5625 97.445312 96.832031 98.617188 C 105.566406 101.03125 109.992188 109.5625 112.957031 117.4375 C 117.738281 131.109375 123.296875 145.175781 135.203125 154.222656 C 140.921875 159.503906 148.839844 158.285156 155.871094 159.917969 C 165.699219 162.351562 175.820312 163.457031 185.542969 166.300781 C 197.863281 170.195312 209.738281 177.046875 217.871094 186.917969 C 216.480469 186.371094 215.359375 185.558594 214.113281 184.9375 C 215.386719 186.648438 216.804688 188.175781 218.167969 189.792969 C 218.320312 189.964844 218.570312 190.792969 218.859375 189.824219 C 228.5625 197.300781 236.316406 210.480469 250.605469 208.953125 C 255.730469 208.695312 261.535156 207.464844 266.027344 210.636719 C 266.554688 207.996094 265.976562 205.445312 265.09375 202.976562 C 262.875 197.167969 262.253906 190.945312 260.519531 184.996094 C 260.3125 184.277344 260.039062 183.894531 259.203125 183.746094 C 255.390625 183.128906 252.5 180.449219 249.8125 177.875 C 247.332031 175.515625 244.527344 173.636719 241.402344 172.242188 C 235.136719 169.597656 230.496094 164.589844 225.65625 159.996094 C 214.128906 148.628906 198.378906 163.492188 181.183594 153.019531 C 178.921875 151.726562 176.5 150.890625 173.917969 150.515625 C 169.363281 149.886719 165.398438 147.847656 161.621094 145.417969 C 157.988281 142.636719 152.578125 139.515625 150.976562 135.105469 C 149.132812 116.238281 141.730469 120.113281 132.796875 106.875 C 126.265625 97.671875 119.136719 87.917969 108.445312 83.347656 C 103.140625 80.570312 97.378906 79.238281 91.597656 77.992188 C 91.050781 77.742188 90.703125 77.828125 90.257812 78.160156 C 81.160156 84.894531 72.070312 91.847656 63.410156 99.0625 Z M 31.605469 139.761719 C 34.753906 133.5 40.777344 129.8125 46.199219 125.679688 C 60.179688 115.664062 82.09375 121.785156 90.945312 136.058594 C 94.550781 141.183594 96.386719 147.320312 99.730469 152.496094 C 101.46875 154.15625 102.714844 156.15625 103.199219 158.515625 C 105.324219 165.125 108.890625 171.25 112.933594 176.871094 C 118.46875 184.023438 129.351562 184.71875 136.792969 189.6875 C 141.640625 192.863281 145.152344 191.085938 150.335938 191.144531 C 158.289062 190.898438 163.074219 198.390625 170.542969 199.972656 C 187.644531 205.058594 203.703125 212.933594 220.433594 218.9375 C 233.324219 222.535156 248.808594 228.160156 260.992188 220.320312 C 254.9375 221.078125 247.808594 220.878906 242.503906 218.554688 C 250.203125 218.875 259.03125 221.132812 265.796875 216.597656 C 265.734375 216.058594 266.371094 214.667969 265.523438 214.578125 C 263.941406 214.683594 262.402344 214.167969 260.796875 214.40625 C 247.972656 216.597656 245.46875 215.277344 233.949219 210.046875 C 231.496094 208.992188 229.152344 207.726562 226.917969 206.257812 C 223.898438 203.964844 220.09375 203.117188 217.101562 200.808594 C 210.773438 195.242188 208.453125 188.125 199.4375 185.316406 C 181.96875 178.894531 164.664062 171.390625 146.195312 168.382812 C 139.863281 167.863281 136.820312 163.628906 131.824219 160.480469 C 129.226562 158.800781 126.890625 156.8125 124.816406 154.515625 C 119.964844 149.917969 118.328125 143.386719 115.621094 137.484375 C 110.578125 127.707031 106.535156 111.847656 96.136719 106.710938 C 83.25 102.25 64.929688 99.984375 52.816406 107.171875 C 53.023438 107.441406 53.367188 107.230469 53.542969 107.558594 C 52.820312 107.644531 52.15625 107.890625 51.546875 108.289062 C 50.9375 108.691406 50.453125 109.207031 50.085938 109.835938 C 51.085938 109.8125 51.851562 109.273438 53.023438 109.386719 C 51.058594 110.453125 49.0625 110.253906 47.851562 112.128906 C 48.859375 112.0625 49.699219 111.441406 50.902344 111.480469 C 48.898438 112.550781 47.082031 112.578125 45.621094 114.363281 C 46.492188 114.390625 47.089844 113.796875 47.921875 113.941406 C 46.167969 114.988281 44.105469 115.359375 42.800781 117.332031 C 44.265625 116.8125 45.382812 116.050781 46.917969 115.738281 C 44.371094 117.441406 41.390625 118.128906 39.902344 120.867188 C 42.613281 119.40625 45.164062 117.648438 48.101562 116.644531 C 45.253906 118.789062 37.855469 122.070312 36.8125 125.207031 C 42.710938 120.324219 49.511719 116.234375 57.015625 114.445312 C 49.089844 118.75 40.175781 122.648438 34.34375 129.867188 C 33.242188 133.148438 31.335938 136.152344 31.605469 139.761719 Z M 264.523438 221.421875 C 263.347656 220.71875 262.5625 221.28125 261.851562 221.933594 C 258.746094 224.644531 254.265625 224.753906 250.378906 225.523438 C 242.511719 226.796875 234.824219 224.71875 227.292969 222.65625 C 209.761719 218.226562 193.863281 209.269531 176.679688 203.738281 C 170.207031 201.300781 163.691406 198.972656 158.082031 194.722656 C 156.367188 193.425781 154.242188 192.953125 152.089844 192.753906 C 150.097656 192.527344 148.117188 192.613281 146.148438 193.015625 C 142.515625 193.867188 139.160156 192.960938 136.003906 191.164062 C 131.773438 188.898438 127.386719 186.988281 122.84375 185.433594 C 113.617188 183 108.589844 175.191406 104.871094 166.96875 C 102.503906 161.238281 100.160156 155.558594 97.011719 150.203125 C 91.222656 138.371094 83.625 125.746094 69.644531 123.207031 C 61.773438 121.328125 53.128906 122.386719 46.777344 127.667969 C 44.027344 130.023438 40.367188 131.757812 38.503906 134.941406 C 35.417969 143.097656 34.816406 152.1875 38.117188 160.351562 C 39.382812 163.730469 40.847656 167.324219 43.820312 169.523438 C 42.039062 164.851562 39.484375 160.164062 39.5 155.160156 C 40.515625 159.570312 41.570312 163.992188 43.9375 167.980469 C 43.707031 165.910156 42.582031 163.953125 42.847656 161.851562 C 44.402344 166.960938 46.347656 171.785156 51.023438 174.917969 C 51.257812 174.476562 50.691406 174.261719 50.976562 173.835938 C 57.777344 182.679688 79.160156 177.972656 84.046875 169.125 C 88.914062 159.550781 81.667969 141.4375 71.210938 138.484375 C 67.570312 137.742188 57.128906 133.894531 54.585938 136.605469 C 54.636719 135.957031 55.289062 135.871094 55.277344 135.28125 C 54.027344 135.566406 53.375 136.730469 52.238281 137.257812 C 52.363281 136.65625 53.027344 136.441406 53.199219 135.628906 L 50.578125 137.585938 L 50.476562 137.460938 L 51.316406 136.261719 C 50.117188 136.828125 49.027344 137.765625 47.976562 138.386719 C 47.324219 137.53125 47.066406 138.476562 46.851562 138.71875 C 45.511719 140.472656 43.574219 142.039062 43.136719 144.292969 C 41.851562 152.757812 44.742188 162.621094 51.800781 167.839844 C 53.074219 168.738281 54.433594 169.199219 56.011719 168.734375 C 64.035156 167.652344 68.984375 161.050781 73.292969 154.820312 C 74.507812 153.617188 70.933594 150.445312 69.988281 149.285156 C 69.0625 155.644531 60.945312 165.144531 54.140625 162.355469 C 50.859375 159.238281 48.957031 154.519531 49.371094 150.007812 C 50.035156 141.734375 64.507812 142.003906 69.273438 146.515625 C 72.179688 149.011719 75.210938 151.796875 76.5 155.5 C 77.265625 158.808594 81.160156 167.746094 77.679688 169.851562 C 74.03125 172.804688 69.085938 171.191406 64.792969 171.6875 C 60.015625 171.804688 55.464844 170.847656 51.136719 168.824219 C 43.753906 164.058594 38.558594 149.578125 42.300781 141.492188 C 43.5625 139.664062 44.851562 137.820312 46.652344 136.503906 C 49.945312 134.234375 52.007812 130.121094 56.289062 129.613281 C 62.023438 128.566406 67.839844 129.5625 73.601562 129.875 C 76.867188 130.117188 79.683594 131.230469 82.042969 133.65625 C 92.238281 144.046875 97.242188 158.011719 102.0625 171.445312 C 104.375 178.015625 107.71875 185.324219 114.46875 188.285156 C 119.410156 190.410156 124.703125 191.578125 129.773438 193.34375 C 136.890625 195.664062 144.242188 198.203125 151.722656 196.152344 C 156.171875 195.382812 157.5 200.691406 161.085938 202.042969 C 163.027344 202.90625 165 203.6875 167.007812 204.386719 C 183.769531 210.9375 201.410156 214.964844 217.675781 222.824219 C 223.246094 225.449219 228.984375 227.625 234.894531 229.351562 C 244.066406 232.476562 253.109375 229.140625 261.75 226.136719 C 263.546875 225.355469 263.132812 222.789062 264.523438 221.421875 Z M 60.125 144.25 C 56.863281 144.390625 51.074219 145.238281 50.945312 149.734375 C 50.492188 152.597656 53.371094 162.070312 56.90625 161.324219 C 60.425781 160.394531 65.101562 154.46875 67.507812 151.558594 C 68.175781 150.375 69.460938 148.496094 68.234375 147.320312 C 66.050781 145.289062 63.484375 144.257812 60.125 144.25 Z M 86.316406 153.589844 C 85.597656 146.925781 76.941406 131.019531 69.597656 130.75 C 63.457031 130.921875 55.941406 128.613281 51.304688 133.921875 C 59.1875 134 66.164062 136.347656 73.691406 137.996094 C 80.902344 139.957031 83.28125 147.703125 86.316406 153.589844 Z M 202.179688 180.949219 C 184.25 171.039062 164.050781 165.710938 144.601562 159.5 C 141.230469 158.949219 137.804688 158.644531 134.417969 158.074219 C 134.285156 158.058594 134.039062 157.988281 134.035156 158.339844 C 146.203125 164.769531 160.109375 166.722656 173.132812 170.828125 C 183.0625 173.394531 192.769531 177.441406 202.179688 180.949219 Z M 190.738281 177.484375 C 172.222656 170.578125 151.867188 167.898438 133.871094 160.214844 C 135.476562 161.390625 137.011719 162.648438 138.480469 163.992188 C 139.59375 165.269531 140.984375 165.484375 142.621094 165.546875 C 149.269531 166.65625 155.648438 168.90625 162.226562 170.316406 C 171.867188 172.074219 181.375 175.117188 190.738281 177.484375 Z M 175.441406 174.515625 C 184.882812 177.710938 194.164062 181.421875 203.394531 185.152344 C 207.089844 186.527344 210.582031 188.296875 213.871094 190.464844 C 214.101562 190.617188 214.292969 190.949219 214.742188 190.695312 C 203.953125 181.351562 189.203125 177.433594 175.441406 174.515625 Z M 161.078125 163.164062 C 175.285156 167.78125 189.929688 172.386719 202.714844 179.953125 C 197.496094 174.355469 170.945312 163.53125 161.078125 163.160156 Z M 254.011719 179.648438 C 250.097656 177.351562 247.613281 173.714844 243.773438 171.507812 C 241.121094 170.089844 238.773438 168.28125 236.71875 166.085938 C 233.117188 162.222656 228.640625 159.4375 224.46875 156.277344 C 223.925781 155.808594 223.296875 155.546875 222.582031 155.492188 C 229.554688 159.914062 234.199219 167.210938 241.550781 171.160156 C 245.589844 173.441406 248.992188 176.558594 252.613281 179.410156 C 252.945312 179.664062 253.277344 180.09375 254.011719 179.644531 Z M 136.109375 157.996094 C 131.492188 155.777344 127.425781 153 125.6875 147.867188 C 123.097656 142.402344 119.941406 137.222656 117.425781 131.742188 C 119.707031 139.363281 126.667969 158.199219 136.109375 157.996094 Z M 36.046875 158.273438 C 34.464844 150.46875 35.609375 142.570312 37.785156 134.984375 C 34.992188 139.074219 33.183594 143.976562 33.75 148.972656 C 34.308594 152.101562 33.980469 155.648438 36.046875 158.273438 Z M 89.597656 99.695312 C 82.527344 97.378906 67.914062 98.800781 64.0625 100.726562 C 72.550781 99.316406 80.992188 100.1875 89.597656 99.695312 Z M 102.078125 105.273438 C 107.238281 111.476562 110.660156 118.726562 114.441406 125.765625 C 111.660156 118.316406 108.785156 110.144531 102.078125 105.273438 Z M 128.855469 96.78125 C 127.164062 93.675781 124.894531 91.113281 122.484375 88.558594 C 118.324219 83.851562 113.429688 78.882812 106.804688 78.367188 C 120.417969 82.964844 119.578125 87.894531 128.855469 96.78125 Z M 213.066406 194.640625 C 215.105469 198.726562 220.035156 202.394531 222.894531 202.128906 C 220.421875 198.695312 216.113281 197.496094 213.066406 194.640625 Z M 113.019531 84.121094 C 108.390625 79.675781 102.488281 78.316406 96.449219 77.296875 C 102.285156 78.804688 107.464844 81.898438 113.019531 84.121094 Z M 120.113281 88.546875 C 118.785156 84.929688 115.09375 82.628906 111.78125 80.84375 C 108.640625 79.285156 105.277344 78.433594 101.921875 77.542969 C 101.648438 77.441406 101.394531 77.476562 101.160156 77.648438 C 108.449219 79.570312 114.953125 82.886719 120.113281 88.546875 Z M 120.6875 142.636719 C 121.644531 147.570312 123.207031 151.859375 127.839844 154.316406 C 124.761719 150.84375 122.65625 146.785156 120.6875 142.636719 Z M 121.835938 86.578125 C 120.136719 83.230469 117.332031 79.46875 113.199219 79.847656 C 116.589844 81.667969 119.164062 84.175781 121.835938 86.578125 Z M 224.042969 155 C 227.460938 157.476562 230.65625 160.261719 234.246094 162.496094 C 231.542969 159.039062 228.027344 156.695312 224.042969 155 Z M 103.65625 109.703125 C 101.964844 106.652344 99.457031 104.527344 96.308594 103.121094 C 98.996094 105.097656 100.585938 108.222656 103.65625 109.703125 Z M 135.328125 108.558594 C 132.949219 104.984375 131.019531 101.085938 127.960938 97.976562 C 130.285156 101.59375 132.578125 105.226562 135.328125 108.558594 Z M 127.730469 149.167969 C 128.957031 152.148438 131 154.351562 134.023438 155.597656 C 131.730469 153.640625 129.941406 151.210938 127.730469 149.167969 Z M 261.53125 209.632812 C 256.882812 209 252.273438 209.671875 247.65625 209.761719 C 252.289062 210.082031 256.921875 209.835938 261.53125 209.632812 Z M 110.632812 124.066406 C 111.757812 128.035156 113.390625 131.792969 115.238281 135.464844 C 113.988281 131.550781 112.453125 127.75 110.632812 124.066406 Z M 91.246094 103.167969 C 87.476562 101.667969 83.597656 100.90625 79.53125 101.460938 C 83.507812 101.511719 87.375 102.320312 91.246094 103.167969 Z M 98.183594 105.644531 C 95.933594 103.191406 93.074219 101.976562 89.875 101.4375 C 92.746094 102.636719 95.421875 104.230469 98.183594 105.644531 Z M 137.503906 109.511719 C 136.160156 106.824219 134.519531 104.335938 132.582031 102.039062 C 134.003906 104.675781 135.644531 107.164062 137.503906 109.511719 Z M 84.121094 98.082031 L 91.402344 99.160156 C 89.089844 98.089844 86.683594 97.648438 84.121094 98.082031 Z M 228.75 201.335938 C 227.074219 199.804688 225.59375 198.074219 223.855469 196.609375 C 225.21875 198.460938 226.378906 200.523438 228.75 201.335938 Z M 61.796875 159.585938 C 64.191406 158.71875 65.796875 157.019531 66.941406 154.828125 C 65.296875 156.492188 63.6875 158.1875 61.796875 159.585938 Z M 116.171875 131.65625 L 115.90625 131.804688 C 116.746094 134.234375 117.585938 136.660156 118.425781 139.089844 C 118.335938 136.382812 117.035156 134.09375 116.171875 131.65625 Z M 103.832031 105.316406 C 102.203125 103.367188 100.242188 101.882812 97.75 101.210938 C 99.804688 102.527344 101.914062 103.765625 103.832031 105.316406 Z M 62.191406 158.273438 C 63.511719 157.730469 64.992188 156.359375 65.683594 155.058594 C 64.5 156.144531 63.308594 157.058594 62.191406 158.273438 Z M 241.144531 208.34375 L 237.300781 206.898438 C 238.371094 207.867188 239.652344 208.292969 241.144531 208.34375 Z M 145.140625 166.929688 C 143.792969 166.585938 143.203125 166.074219 141.863281 166.066406 C 143.269531 166.765625 143.828125 166.917969 145.140625 166.929688 Z M 101.480469 70.546875 C 100.0625 70.882812 99.496094 71.175781 98.570312 72.097656 C 99.617188 71.722656 100.585938 71.207031 101.480469 70.546875 Z M 242.523438 211.757812 C 241.269531 210.808594 241.148438 210.769531 240.101562 210.882812 C 240.855469 211.316406 241.664062 211.609375 242.523438 211.757812 Z M 217.78125 153.554688 C 218.070312 153.554688 218.363281 153.816406 218.757812 153.507812 Z M 218.21875 192.160156 L 218.070312 192.25 C 218.230469 192.421875 218.324219 192.894531 218.644531 192.660156 Z M 218.21875 192.160156 " fill-opacity="1" fill-rule="nonzero"/><path fill="#a9a0f0" d="M 165.820312 144.492188 C 166.097656 144.515625 166.347656 144.605469 166.578125 144.765625 C 167.003906 145.015625 167.511719 145.15625 167.800781 145.609375 C 167.039062 145.421875 166.375 145.050781 165.820312 144.492188 Z M 165.820312 144.492188 " fill-opacity="1" fill-rule="nonzero"/><path fill="#a9a0f0" d="M 227 162.941406 C 226.652344 163.003906 226.378906 162.886719 226.175781 162.597656 C 224.085938 160.464844 221.5 159.238281 218.648438 158.527344 C 216.902344 157.972656 214.929688 157.910156 213.296875 157.140625 C 218.242188 155.949219 224.273438 158.273438 227 162.941406 Z M 227 162.941406 " fill-opacity="1" fill-rule="nonzero"/><path fill="#a9a0f0" d="M 113.917969 89.878906 C 117.929688 91.753906 122.910156 96.621094 123.394531 99.050781 C 120.515625 95.617188 117.527344 92.542969 113.917969 89.878906 Z M 113.917969 89.878906 " fill-opacity="1" fill-rule="nonzero"/><path fill="#a9a0f0" d="M 209.246094 176.695312 C 212.558594 177.015625 214.800781 179.308594 216.910156 181.617188 C 217.140625 181.917969 217.683594 182.382812 217.351562 182.765625 C 216.859375 183.003906 216.441406 182.210938 216.097656 181.941406 C 214.363281 179.847656 212.246094 178.273438 209.746094 177.214844 C 209.566406 177.136719 209.285156 177.117188 209.246094 176.695312 Z M 209.246094 176.695312 " fill-opacity="1" fill-rule="nonzero"/><path fill="#a9a0f0" d="M 91.144531 94.917969 C 95.378906 95.179688 99.496094 95.800781 102.773438 98.871094 C 99.144531 96.890625 95.171875 95.773438 91.144531 94.917969 Z M 91.144531 94.917969 " fill-opacity="1" fill-rule="nonzero"/><path fill="#a9a0f0" d="M 149.183594 140.789062 C 147.453125 138.96875 146.292969 136.839844 145.707031 134.394531 C 145.46875 134.023438 145.890625 133.050781 146.273438 133.660156 C 146.953125 136.152344 147.925781 138.53125 149.183594 140.789062 Z M 149.183594 140.789062 " fill-opacity="1" fill-rule="nonzero"/><path fill="#a9a0f0" d="M 130.667969 147.167969 C 132.503906 148.90625 134.351562 150.589844 136.21875 152.261719 C 134.453125 151.503906 131.070312 149.101562 130.667969 147.167969 Z M 130.667969 147.167969 " fill-opacity="1" fill-rule="nonzero"/><path fill="#a9a0f0" d="M 99.269531 80.855469 C 101.363281 80.742188 106.871094 82.816406 107.957031 84.164062 C 105.136719 82.976562 102.347656 81.707031 99.269531 80.855469 Z M 99.269531 80.855469 " fill-opacity="1" fill-rule="nonzero"/><path fill="#a9a0f0" d="M 211.425781 174.171875 C 212.632812 174.457031 216.472656 176.191406 216.210938 177.546875 C 215.917969 177.894531 215.652344 177.636719 215.425781 177.402344 C 214.214844 176.171875 212.824219 175.171875 211.425781 174.171875 Z M 211.425781 174.171875 " fill-opacity="1" fill-rule="nonzero"/><path fill="#a9a0f0" d="M 99.347656 95.910156 L 93.75 93.847656 C 95.941406 93.976562 98.578125 94.890625 99.347656 95.910156 Z M 99.347656 95.910156 " fill-opacity="1" fill-rule="nonzero"/><path fill="#a9a0f0" d="M 122.632812 99.496094 C 121.402344 98.488281 120.765625 97.054688 119.777344 95.875 C 121.132812 96.773438 122 98.050781 122.632812 99.496094 Z M 122.632812 99.496094 " fill-opacity="1" fill-rule="nonzero"/><path fill="#a9a0f0" d="M 222.488281 161.5 C 223.425781 161.636719 225.566406 162.453125 225.484375 163.402344 C 225.316406 163.644531 225.089844 163.507812 224.910156 163.367188 C 224.101562 162.75 223.292969 162.125 222.488281 161.5 Z M 222.488281 161.5 " fill-opacity="1" fill-rule="nonzero"/><path fill="#a9a0f0" d="M 132.703125 147.339844 C 133.722656 148.007812 134.226562 148.949219 134.980469 149.765625 C 133.9375 149.511719 133.074219 148.609375 132.703125 147.339844 Z M 132.703125 147.339844 " fill-opacity="1" fill-rule="nonzero"/><path fill="#a9a0f0" d="M 222.738281 163.3125 C 223.542969 163.234375 225.109375 163.589844 225.011719 164.390625 C 224.476562 164.96875 223.335938 163.738281 222.738281 163.3125 Z M 222.738281 163.3125 " fill-opacity="1" fill-rule="nonzero"/><path fill="#a9a0f0" d="M 216.03125 173.4375 C 216.816406 173.441406 218.371094 173.765625 218.144531 174.730469 C 218.09375 174.808594 218.019531 174.851562 217.921875 174.855469 C 217.824219 174.863281 217.746094 174.824219 217.6875 174.75 C 217.183594 174.25 216.566406 173.894531 216.03125 173.4375 Z M 216.03125 173.4375 " fill-opacity="1" fill-rule="nonzero"/><path fill="#a9a0f0" d="M 215.558594 174.160156 C 216.46875 174.617188 217.316406 175.203125 217.628906 176.34375 Z M 215.558594 174.160156 " fill-opacity="1" fill-rule="nonzero"/><path fill="#a9a0f0" d="M 99.046875 94.46875 C 97.882812 94.25 97.050781 93.730469 96.035156 93.402344 C 97.257812 93.285156 98.109375 93.574219 99.046875 94.46875 Z M 99.046875 94.46875 " fill-opacity="1" fill-rule="nonzero"/><path fill="#a9a0f0" d="M 106.492188 84.242188 C 105.652344 84.109375 104.890625 83.785156 104.214844 83.273438 C 105.054688 83.421875 105.902344 83.558594 106.492188 84.242188 Z M 106.492188 84.242188 " fill-opacity="1" fill-rule="nonzero"/><path fill="#a9a0f0" d="M 145.691406 137.480469 C 145.921875 138.035156 146.152344 138.59375 146.492188 139.421875 C 145.5 138.476562 145.5 138.476562 145.691406 137.480469 Z M 145.691406 137.480469 " fill-opacity="1" fill-rule="nonzero"/><path fill="#a9a0f0" d="M 144.777344 140.644531 C 144.175781 140.246094 143.804688 140.003906 143.925781 139.34375 C 144.347656 139.664062 144.535156 140.019531 144.777344 140.644531 Z M 144.777344 140.644531 " fill-opacity="1" fill-rule="nonzero"/><path fill="#a9a0f0" d="M 97.964844 92.328125 C 98.472656 92.355469 98.953125 92.402344 99.355469 92.847656 C 98.695312 93.019531 98.355469 92.558594 97.964844 92.328125 Z M 97.964844 92.328125 " fill-opacity="1" fill-rule="nonzero"/><path fill="#a9a0f0" d="M 144.601562 138.480469 C 145.039062 138.886719 145.230469 139.144531 145.214844 139.496094 C 144.824219 139.714844 144.492188 139.097656 144.601562 138.480469 Z M 144.601562 138.480469 " fill-opacity="1" fill-rule="nonzero"/><path fill="#a9a0f0" d="M 121.796875 100.050781 C 121.101562 99.878906 120.988281 99.46875 120.789062 99.039062 C 121.484375 98.96875 121.460938 99.515625 121.796875 100.050781 Z M 121.796875 100.050781 " fill-opacity="1" fill-rule="nonzero"/><path fill="#a9a0f0" d="M 224.011719 165.882812 C 223.464844 165.816406 223.292969 165.5 223.011719 165.214844 C 223.53125 165.101562 223.757812 165.359375 224.011719 165.882812 Z M 224.011719 165.882812 " fill-opacity="1" fill-rule="nonzero"/><path fill="#a9a0f0" d="M 218.554688 173.207031 C 218.058594 173.179688 217.882812 172.851562 217.574219 172.570312 C 218.140625 172.46875 218.410156 172.65625 218.554688 173.207031 Z M 218.554688 173.207031 " fill-opacity="1" fill-rule="nonzero"/><path fill="#a9a0f0" d="M 62.503906 113.765625 C 80.054688 110.996094 94.851562 124.550781 102.898438 138.910156 C 110.515625 151.382812 119.25 164.007812 132.730469 170.515625 C 101.0625 159.480469 101.828125 113.535156 62.503906 113.765625 Z M 62.503906 113.765625 " fill-opacity="1" fill-rule="nonzero"/><path fill="#a9a0f0" d="M 167.835938 184.203125 C 182.007812 185.976562 194.429688 193.859375 205.488281 202.53125 C 213.976562 208.960938 224.929688 211.058594 234.332031 215.472656 C 224.363281 213.636719 214.089844 210.476562 205.730469 204.605469 C 194.617188 195.042969 182.253906 187.378906 167.835938 184.203125 Z M 167.835938 184.203125 " fill-opacity="1" fill-rule="nonzero"/><path fill="#a9a0f0" d="M 65.101562 110.210938 C 73.15625 110.03125 80.808594 111.300781 87.570312 116.558594 C 85.71875 116.625 83.78125 114.613281 82.011719 113.933594 C 76.792969 111.21875 70.84375 110.785156 65.101562 110.210938 Z M 65.101562 110.210938 " fill-opacity="1" fill-rule="nonzero"/><path fill="#a9a0f0" d="M 149.722656 189.441406 C 153.351562 189.503906 157.273438 189.953125 160.140625 192.421875 C 160.367188 192.609375 160.707031 192.855469 160.398438 193.195312 C 160.160156 193.460938 159.898438 193.203125 159.695312 193.054688 C 156.832031 190.78125 153.15625 190.425781 149.699219 189.707031 Z M 149.722656 189.441406 " fill-opacity="1" fill-rule="nonzero"/><path fill="#a9a0f0" d="M 83.710938 112.730469 C 79.996094 110.632812 76.210938 109.625 72.136719 108.851562 C 74.316406 108.398438 83.183594 110.378906 83.710938 112.730469 Z M 83.710938 112.730469 " fill-opacity="1" fill-rule="nonzero"/><path fill="#a9a0f0" d="M 76.8125 108.285156 C 77.671875 107.957031 83.671875 109.511719 83.554688 110.410156 C 83.386719 110.851562 82.953125 110.507812 82.640625 110.386719 C 80.734375 109.589844 78.792969 108.886719 76.8125 108.285156 Z M 76.8125 108.285156 " fill-opacity="1" fill-rule="nonzero"/><path fill="#a9a0f0" d="M 118.632812 178.90625 C 117.179688 178.792969 114.785156 176.527344 113.972656 174.65625 Z M 118.632812 178.90625 " fill-opacity="1" fill-rule="nonzero"/><path fill="#a9a0f0" d="M 152.804688 188.066406 C 153.410156 187.730469 160.269531 189.691406 157.671875 190.03125 C 156.074219 189.324219 154.441406 188.691406 152.804688 188.066406 Z M 152.804688 188.066406 " fill-opacity="1" fill-rule="nonzero"/><path fill="#a9a0f0" d="M 188.191406 193.871094 C 190.203125 194.632812 192.128906 195.566406 193.96875 196.675781 L 193.851562 196.925781 L 187.996094 194.21875 Z M 188.191406 193.871094 " fill-opacity="1" fill-rule="nonzero"/><path fill="#a9a0f0" d="M 154.140625 187.035156 C 154.921875 186.785156 157.964844 187.15625 157.621094 188.238281 C 156.964844 188.808594 155.007812 187.230469 154.140625 187.035156 Z M 154.140625 187.035156 " fill-opacity="1" fill-rule="nonzero"/><path fill="#a9a0f0" d="M 188.980469 195.429688 C 190.386719 195.726562 191.621094 196.351562 192.691406 197.304688 L 188.839844 195.863281 Z M 188.980469 195.429688 " fill-opacity="1" fill-rule="nonzero"/><path fill="#a9a0f0" d="M 84.078125 109.058594 L 79.363281 107.523438 C 81.035156 107.488281 83.285156 108.183594 84.078125 109.058594 Z M 84.078125 109.058594 " fill-opacity="1" fill-rule="nonzero"/><path fill="#a9a0f0" d="M 118.644531 177.664062 C 117.667969 176.902344 116.792969 176.039062 116.019531 175.074219 C 117.445312 175.632812 118.253906 176.378906 118.644531 177.664062 Z M 118.644531 177.664062 " fill-opacity="1" fill-rule="nonzero"/><path fill="#a9a0f0" d="M 154.761719 185.878906 C 155.578125 185.679688 157.191406 185.835938 157.222656 186.648438 C 156.636719 187.175781 155.515625 186.242188 154.761719 185.878906 Z M 154.761719 185.878906 " fill-opacity="1" fill-rule="nonzero"/><path fill="#a9a0f0" d="M 81.972656 106.628906 C 82.953125 106.691406 83.9375 106.808594 84.917969 107.320312 C 84.101562 107.527344 83.382812 107.367188 81.972656 106.628906 Z M 81.972656 106.628906 " fill-opacity="1" fill-rule="nonzero"/><path fill="#a9a0f0" d="M 116.996094 174.480469 C 117.710938 174.871094 118.515625 175.140625 118.808594 176.011719 C 118.011719 175.738281 117.476562 175.132812 116.996094 174.480469 Z M 116.996094 174.480469 " fill-opacity="1" fill-rule="nonzero"/><path fill="#a9a0f0" d="M 119.417969 175.121094 C 119.171875 175.039062 119.121094 174.796875 119.0625 174.601562 C 119.128906 174.039062 120.058594 175.011719 119.417969 175.121094 Z M 119.417969 175.121094 " fill-opacity="1" fill-rule="nonzero"/><path fill="#a9a0f0" d="M 79.316406 148.921875 C 76.1875 143.78125 70.128906 142.535156 65.246094 139.765625 C 65.664062 139.488281 65.972656 139.734375 66.28125 139.851562 C 68.382812 140.664062 70.515625 141.40625 72.574219 142.320312 C 76.226562 144.105469 80.628906 147.640625 81.417969 151.769531 C 80.8125 151.441406 80.824219 150.769531 80.363281 150.464844 C 80.125 149.878906 79.699219 149.414062 79.316406 148.921875 Z M 79.316406 148.921875 " fill-opacity="1" fill-rule="nonzero"/><path fill="#a9a0f0" d="M 79.316406 148.921875 C 79.699219 149.414062 80.125 149.878906 80.367188 150.464844 C 80.214844 150.667969 80.757812 151.40625 79.902344 151.0625 L 79.941406 151.09375 C 79.328125 149.707031 78.109375 148.804688 77.039062 147.554688 C 78.132812 147.679688 78.484375 148.714844 79.316406 148.921875 Z M 79.316406 148.921875 " fill-opacity="1" fill-rule="nonzero"/><path fill="#a9a0f0" d="M 56.476562 176.746094 C 55.296875 176.863281 54.6875 175.929688 53.761719 175.355469 C 54.28125 175.035156 54.554688 175.65625 54.933594 175.472656 Z M 56.476562 176.746094 " fill-opacity="1" fill-rule="nonzero"/><path fill="#a9a0f0" d="M 56.476562 176.746094 L 54.929688 175.472656 C 55.015625 174.144531 57.710938 177.011719 56.476562 176.746094 Z M 56.476562 176.746094 " fill-opacity="1" fill-rule="nonzero"/><path fill="#a9a0f0" d="M 79.902344 151.0625 C 79.355469 152.316406 78.550781 150.503906 77.882812 149.980469 C 78.789062 150.03125 79.351562 151.074219 79.902344 151.0625 Z M 79.902344 151.0625 " fill-opacity="1" fill-rule="nonzero"/><path fill="#a9a0f0" d="M 77.597656 151.027344 C 77.742188 150.921875 77.785156 150.867188 77.804688 150.875 C 79.429688 151.382812 78.640625 152.53125 77.597656 151.027344 Z M 77.597656 151.027344 " fill-opacity="1" fill-rule="nonzero"/><path fill="#a9a0f0" d="M 246.917969 163.390625 C 248.738281 163.988281 250.359375 164.929688 251.777344 166.214844 L 246.714844 163.761719 Z M 246.917969 163.390625 " fill-opacity="1" fill-rule="nonzero"/><path fill="#a9a0f0" d="M 251.039062 167.492188 C 250.117188 167.171875 249.199219 166.890625 248.339844 166.261719 C 249.210938 166.027344 249.625 166.214844 251.039062 167.492188 Z M 251.039062 167.492188 " fill-opacity="1" fill-rule="nonzero"/><path fill="#a9a0f0" d="M 86.039062 146.441406 C 85.746094 146.089844 85.597656 145.683594 85.59375 145.226562 C 85.960938 145.550781 86.113281 145.953125 86.039062 146.441406 Z M 86.039062 146.441406 " fill-opacity="1" fill-rule="nonzero"/><path fill="#a9a0f0" d="M 70.859375 162.675781 C 70.839844 163.105469 70.589844 163.351562 69.96875 163.707031 C 70.34375 163.160156 70.457031 162.796875 70.878906 162.691406 Z M 70.859375 162.675781 " fill-opacity="1" fill-rule="nonzero"/></svg>