<svg xmlns="http://www.w3.org/2000/svg" xmlns:xlink="http://www.w3.org/1999/xlink" width="400" zoomAndPan="magnify" viewBox="0 0 300 299.999988" height="400" preserveAspectRatio="xMidYMid meet" version="1.0"><defs><clipPath id="2095ae93a0"><path d="M 30 56 L 146 56 L 146 245.550781 L 30 245.550781 Z M 30 56 " clip-rule="nonzero"/></clipPath><clipPath id="cc4d948675"><path d="M 154 56 L 270 56 L 270 245.550781 L 154 245.550781 Z M 154 56 " clip-rule="nonzero"/></clipPath></defs><g clip-path="url(#2095ae93a0)"><path fill="#a9a0f0" d="M 93.988281 245.703125 C 87.265625 245.703125 82.136719 242.214844 79.980469 239.886719 C 79.222656 239.070312 78.601562 238.414062 78.023438 237.832031 C 49.40625 208.777344 37.609375 168.128906 33.128906 146.484375 C 31.675781 139.601562 30.902344 132.640625 30.808594 125.609375 C 30.714844 118.574219 31.296875 111.597656 32.5625 104.675781 C 36.101562 85.535156 43.925781 71.828125 55.820312 63.980469 C 70.445312 54.3125 85.996094 57.003906 88.085938 57.429688 L 88.375 57.457031 C 95.078125 58.117188 100.84375 62.980469 102.714844 69.554688 C 106.664062 83.425781 112.28125 87.628906 112.335938 87.664062 C 112.4375 87.734375 112.53125 87.804688 112.625 87.882812 L 133.15625 106.195312 C 135.035156 107.871094 136.726562 109.722656 138.222656 111.746094 C 139.722656 113.769531 141 115.921875 142.050781 118.210938 C 143.105469 120.496094 143.917969 122.867188 144.484375 125.320312 C 145.050781 127.773438 145.359375 130.257812 145.414062 132.773438 C 145.863281 155.605469 141.054688 176.410156 136.957031 189.847656 C 132.558594 204.230469 128.105469 213.261719 127.8125 213.851562 C 118.441406 233.183594 108.042969 243.832031 96.894531 245.492188 C 95.929688 245.632812 94.960938 245.703125 93.988281 245.703125 Z M 80.582031 62.613281 C 75.058594 62.613281 66.761719 63.691406 58.945312 68.882812 C 48.464844 75.859375 41.503906 88.242188 38.28125 105.734375 C 37.082031 112.285156 36.527344 118.886719 36.617188 125.546875 C 36.707031 132.203125 37.4375 138.789062 38.8125 145.304688 C 43.175781 166.320312 54.597656 205.765625 82.164062 233.757812 C 82.785156 234.386719 83.445312 235.082031 84.246094 235.945312 C 85.808594 237.632812 90.285156 240.597656 96.042969 239.726562 C 102.320312 238.785156 112.03125 233.09375 122.589844 211.285156 L 122.609375 211.253906 C 122.652344 211.164062 127.128906 202.140625 131.441406 187.996094 C 135.40625 174.996094 140.039062 154.878906 139.609375 132.867188 C 139.5625 130.75 139.300781 128.660156 138.824219 126.597656 C 138.347656 124.535156 137.664062 122.542969 136.777344 120.617188 C 135.890625 118.695312 134.816406 116.882812 133.554688 115.183594 C 132.296875 113.480469 130.875 111.925781 129.292969 110.515625 L 108.867188 92.3125 C 107.582031 91.347656 101.398438 86.085938 97.140625 71.136719 C 95.917969 66.835938 92.171875 63.660156 87.839844 63.234375 L 87.46875 63.203125 C 87.332031 63.191406 87.195312 63.171875 87.058594 63.144531 C 84.917969 62.757812 82.757812 62.582031 80.582031 62.613281 Z M 80.582031 62.613281 " fill-opacity="1" fill-rule="nonzero"/></g><path fill="#a9a0f0" d="M 49.617188 125.992188 C 50.171875 127.363281 50.667969 128.738281 51.136719 130.117188 C 51.605469 131.496094 52.089844 132.867188 52.535156 134.242188 C 52.980469 135.617188 53.445312 136.984375 53.871094 138.359375 C 54.097656 139.042969 54.320312 139.726562 54.535156 140.410156 C 54.75 141.09375 54.972656 141.78125 55.175781 142.464844 C 56.898438 147.941406 58.554688 153.398438 60.234375 158.851562 C 61.914062 164.304688 63.589844 169.757812 65.226562 175.257812 C 65.648438 176.628906 66.046875 178.007812 66.449219 179.394531 C 66.648438 180.082031 66.863281 180.769531 67.058594 181.464844 L 67.636719 183.550781 C 68.039062 184.941406 68.417969 186.34375 68.785156 187.753906 C 69.15625 189.164062 69.523438 190.574219 69.832031 192.027344 C 68.933594 190.863281 68.113281 189.632812 67.304688 188.410156 C 66.496094 187.1875 65.757812 185.925781 65.007812 184.664062 C 64.257812 183.40625 63.582031 182.109375 62.898438 180.820312 C 62.546875 180.175781 62.242188 179.519531 61.910156 178.863281 C 61.582031 178.210938 61.261719 177.554688 60.953125 176.894531 C 55.976562 166.242188 52.570312 155.109375 50.730469 143.5 C 50.617188 142.777344 50.527344 142.046875 50.425781 141.328125 C 50.328125 140.613281 50.222656 139.875 50.136719 139.15625 C 49.980469 137.703125 49.84375 136.25 49.730469 134.796875 C 49.613281 133.339844 49.5625 131.875 49.53125 130.410156 C 49.503906 128.945312 49.535156 127.464844 49.617188 125.992188 Z M 49.617188 125.992188 " fill-opacity="1" fill-rule="nonzero"/><path fill="#a9a0f0" d="M 122.304688 194.460938 C 122.347656 192.980469 122.449219 191.515625 122.578125 190.070312 C 122.703125 188.621094 122.8125 187.164062 122.957031 185.734375 C 123.101562 184.300781 123.230469 182.855469 123.394531 181.425781 C 123.464844 180.710938 123.539062 179.996094 123.621094 179.28125 C 123.703125 178.5625 123.769531 177.851562 123.859375 177.140625 C 124.492188 171.441406 125.179688 165.773438 125.839844 160.105469 C 126.503906 154.4375 127.167969 148.769531 127.890625 143.078125 C 128.054688 141.65625 128.246094 140.230469 128.4375 138.804688 C 128.53125 138.089844 128.617188 137.375 128.726562 136.660156 L 129.019531 134.515625 C 129.210938 133.082031 129.429688 131.648438 129.664062 130.210938 C 129.894531 128.773438 130.125 127.328125 130.429688 125.878906 C 130.777344 127.316406 131.039062 128.757812 131.28125 130.207031 C 131.527344 131.652344 131.695312 133.113281 131.863281 134.566406 C 132.03125 136.019531 132.136719 137.472656 132.242188 138.925781 C 132.304688 139.65625 132.320312 140.378906 132.355469 141.113281 C 132.390625 141.84375 132.425781 142.566406 132.4375 143.300781 C 132.578125 149.148438 132.296875 154.980469 131.597656 160.789062 C 130.921875 166.601562 129.835938 172.332031 128.335938 177.988281 C 128.152344 178.695312 127.941406 179.394531 127.757812 180.097656 C 127.570312 180.800781 127.359375 181.503906 127.136719 182.199219 C 126.691406 183.59375 126.234375 184.980469 125.746094 186.359375 C 125.261719 187.734375 124.722656 189.097656 124.15625 190.453125 C 123.59375 191.808594 122.972656 193.140625 122.304688 194.460938 Z M 122.304688 194.460938 " fill-opacity="1" fill-rule="nonzero"/><path fill="#a9a0f0" d="M 86.664062 146.183594 C 86.191406 144.78125 85.777344 143.375 85.390625 141.976562 C 85.003906 140.574219 84.605469 139.171875 84.226562 137.773438 C 83.851562 136.375 83.480469 134.980469 83.140625 133.585938 C 82.957031 132.886719 82.777344 132.191406 82.601562 131.496094 C 82.429688 130.800781 82.246094 130.101562 82.089844 129.40625 C 80.695312 123.839844 79.371094 118.289062 78.019531 112.742188 C 76.667969 107.195312 75.324219 101.65625 74.019531 96.070312 C 73.679688 94.675781 73.367188 93.273438 73.046875 91.867188 C 72.886719 91.167969 72.71875 90.46875 72.566406 89.765625 L 72.105469 87.644531 C 71.785156 86.234375 71.496094 84.8125 71.210938 83.382812 C 70.925781 81.953125 70.644531 80.519531 70.421875 79.054688 C 71.25 80.28125 71.996094 81.546875 72.730469 82.816406 C 73.460938 84.085938 74.125 85.390625 74.796875 86.691406 C 75.46875 87.992188 76.066406 89.324219 76.671875 90.65625 C 76.980469 91.320312 77.25 91.996094 77.542969 92.667969 C 77.832031 93.339844 78.125 94.015625 78.382812 94.703125 C 80.542969 100.140625 82.308594 105.703125 83.671875 111.390625 C 85.054688 117.074219 86.023438 122.828125 86.578125 128.652344 C 86.648438 129.378906 86.695312 130.105469 86.753906 130.839844 C 86.8125 131.570312 86.867188 132.292969 86.902344 133.023438 C 86.96875 134.476562 87.023438 135.941406 87.046875 137.40625 C 87.070312 138.867188 87.046875 140.332031 86.976562 141.796875 C 86.910156 143.261719 86.832031 144.714844 86.664062 146.183594 Z M 86.664062 146.183594 " fill-opacity="1" fill-rule="nonzero"/><g clip-path="url(#cc4d948675)"><path fill="#a9a0f0" d="M 205.984375 245.703125 C 205.007812 245.703125 204.039062 245.632812 203.078125 245.488281 C 191.933594 243.824219 181.53125 233.179688 172.160156 213.84375 C 171.867188 213.265625 167.414062 204.222656 163.015625 189.839844 C 158.902344 176.40625 154.101562 155.605469 154.550781 132.769531 C 154.605469 130.25 154.914062 127.765625 155.480469 125.3125 C 156.046875 122.859375 156.855469 120.488281 157.910156 118.203125 C 158.964844 115.917969 160.242188 113.761719 161.742188 111.738281 C 163.238281 109.714844 164.929688 107.863281 166.808594 106.1875 L 187.339844 87.875 C 187.421875 87.800781 187.507812 87.730469 187.601562 87.667969 C 187.921875 87.421875 193.414062 83.015625 197.238281 69.546875 C 199.109375 62.96875 204.875 58.109375 211.578125 57.449219 L 211.867188 57.421875 C 213.972656 56.996094 229.523438 54.304688 244.148438 63.972656 C 256.039062 71.820312 263.859375 85.519531 267.402344 104.667969 C 268.671875 111.589844 269.257812 118.566406 269.164062 125.601562 C 269.066406 132.640625 268.292969 139.597656 266.84375 146.484375 C 262.355469 168.128906 250.5625 208.777344 221.941406 237.839844 C 221.359375 238.421875 220.738281 239.082031 219.980469 239.898438 C 217.835938 242.230469 212.703125 245.703125 205.984375 245.703125 Z M 191.105469 92.324219 L 170.675781 110.53125 C 169.097656 111.941406 167.675781 113.496094 166.414062 115.195312 C 165.15625 116.898438 164.082031 118.710938 163.195312 120.632812 C 162.304688 122.554688 161.625 124.550781 161.148438 126.613281 C 160.671875 128.675781 160.410156 130.765625 160.363281 132.882812 C 159.929688 154.894531 164.566406 175.011719 168.527344 188.011719 C 172.84375 202.152344 177.320312 211.175781 177.363281 211.265625 L 177.378906 211.300781 C 187.945312 233.101562 197.648438 238.800781 203.929688 239.738281 C 209.683594 240.613281 214.160156 237.636719 215.726562 235.960938 C 216.523438 235.089844 217.179688 234.402344 217.804688 233.773438 C 245.371094 205.777344 256.800781 166.332031 261.15625 145.316406 C 262.53125 138.804688 263.261719 132.21875 263.351562 125.558594 C 263.441406 118.902344 262.886719 112.296875 261.6875 105.75 C 258.460938 88.257812 251.515625 75.859375 241.023438 68.894531 C 227.734375 60.054688 213.066406 63.125 212.921875 63.167969 C 212.785156 63.195312 212.648438 63.214844 212.511719 63.226562 L 212.144531 63.257812 C 207.785156 63.683594 204.054688 66.859375 202.839844 71.160156 C 198.574219 86.097656 192.386719 91.363281 191.105469 92.324219 Z M 212.292969 60.320312 Z M 212.292969 60.320312 " fill-opacity="1" fill-rule="nonzero"/></g><path fill="#a9a0f0" d="M 250.355469 125.992188 C 250.4375 127.464844 250.4375 128.933594 250.421875 130.402344 C 250.40625 131.871094 250.308594 133.328125 250.222656 134.789062 C 250.140625 136.25 249.972656 137.695312 249.816406 139.148438 C 249.742188 139.875 249.636719 140.601562 249.527344 141.324219 C 249.417969 142.046875 249.335938 142.777344 249.222656 143.492188 C 247.382812 155.105469 243.976562 166.238281 239 176.890625 C 238.691406 177.550781 238.363281 178.203125 238.042969 178.859375 C 237.71875 179.511719 237.40625 180.171875 237.054688 180.8125 C 236.371094 182.105469 235.675781 183.394531 234.945312 184.660156 C 234.214844 185.925781 233.453125 187.175781 232.648438 188.402344 C 231.847656 189.632812 231.019531 190.847656 230.121094 192.019531 C 230.429688 190.566406 230.785156 189.152344 231.167969 187.746094 C 231.546875 186.34375 231.914062 184.9375 232.328125 183.546875 L 232.910156 181.460938 C 233.105469 180.765625 233.316406 180.074219 233.519531 179.386719 C 233.917969 178.003906 234.316406 176.621094 234.742188 175.253906 C 236.378906 169.753906 238.0625 164.304688 239.734375 158.847656 C 241.40625 153.390625 243.070312 147.933594 244.792969 142.460938 C 244.996094 141.773438 245.21875 141.089844 245.433594 140.40625 C 245.648438 139.71875 245.871094 139.035156 246.097656 138.351562 C 246.519531 136.976562 246.96875 135.609375 247.433594 134.238281 C 247.898438 132.863281 248.34375 131.488281 248.832031 130.113281 C 249.320312 128.738281 249.800781 127.363281 250.355469 125.992188 Z M 250.355469 125.992188 " fill-opacity="1" fill-rule="nonzero"/><path fill="#a9a0f0" d="M 177.667969 194.460938 C 177 193.140625 176.40625 191.800781 175.828125 190.449219 C 175.25 189.101562 174.753906 187.726562 174.238281 186.355469 C 173.722656 184.984375 173.292969 183.589844 172.847656 182.195312 C 172.628906 181.5 172.433594 180.796875 172.230469 180.097656 C 172.027344 179.394531 171.820312 178.691406 171.648438 177.984375 C 168.644531 166.617188 167.269531 155.058594 167.53125 143.304688 C 167.546875 142.574219 167.582031 141.851562 167.617188 141.113281 C 167.648438 140.378906 167.667969 139.660156 167.730469 138.929688 C 167.832031 137.476562 167.953125 136.023438 168.105469 134.566406 C 168.261719 133.113281 168.457031 131.660156 168.6875 130.207031 C 168.917969 128.753906 169.195312 127.320312 169.539062 125.882812 C 169.832031 127.335938 170.09375 128.773438 170.308594 130.214844 C 170.523438 131.652344 170.757812 133.085938 170.953125 134.519531 L 171.242188 136.664062 C 171.34375 137.378906 171.429688 138.09375 171.535156 138.804688 C 171.722656 140.234375 171.917969 141.660156 172.082031 143.082031 C 172.800781 148.773438 173.457031 154.441406 174.117188 160.109375 C 174.773438 165.773438 175.464844 171.445312 176.09375 177.144531 C 176.1875 177.855469 176.257812 178.570312 176.335938 179.28125 C 176.414062 179.996094 176.492188 180.710938 176.558594 181.425781 C 176.726562 182.859375 176.851562 184.292969 177 185.734375 C 177.148438 187.175781 177.273438 188.621094 177.378906 190.074219 C 177.488281 191.527344 177.625 192.980469 177.667969 194.460938 Z M 177.667969 194.460938 " fill-opacity="1" fill-rule="nonzero"/><path fill="#a9a0f0" d="M 213.304688 146.183594 C 213.136719 144.730469 213.050781 143.25 212.976562 141.785156 C 212.90625 140.320312 212.914062 138.859375 212.910156 137.394531 C 212.910156 135.929688 212.988281 134.472656 213.054688 133.011719 C 213.089844 132.28125 213.148438 131.558594 213.203125 130.828125 C 213.253906 130.097656 213.304688 129.375 213.375 128.640625 C 214.511719 116.9375 217.246094 105.621094 221.574219 94.691406 C 221.84375 94.015625 222.132812 93.34375 222.414062 92.65625 C 222.695312 91.96875 222.972656 91.308594 223.285156 90.644531 C 223.890625 89.3125 224.511719 87.992188 225.160156 86.679688 C 225.8125 85.367188 226.5 84.078125 227.226562 82.804688 C 227.957031 81.53125 228.707031 80.269531 229.53125 79.042969 C 229.3125 80.496094 229.042969 81.949219 228.746094 83.371094 C 228.449219 84.792969 228.164062 86.222656 227.851562 87.632812 L 227.390625 89.753906 C 227.238281 90.457031 227.066406 91.15625 226.90625 91.855469 C 226.589844 93.261719 226.277344 94.664062 225.9375 96.058594 C 224.632812 101.644531 223.277344 107.183594 221.9375 112.730469 C 220.597656 118.277344 219.261719 123.828125 217.867188 129.394531 C 217.710938 130.089844 217.523438 130.785156 217.351562 131.484375 C 217.179688 132.183594 217 132.875 216.816406 133.574219 C 216.476562 134.96875 216.101562 136.363281 215.726562 137.761719 C 215.355469 139.160156 214.984375 140.5625 214.578125 141.964844 C 214.175781 143.363281 213.78125 144.78125 213.304688 146.183594 Z M 213.304688 146.183594 " fill-opacity="1" fill-rule="nonzero"/></svg>