<svg xmlns="http://www.w3.org/2000/svg" xmlns:xlink="http://www.w3.org/1999/xlink" width="400" zoomAndPan="magnify" viewBox="0 0 300 299.999988" height="400" preserveAspectRatio="xMidYMid meet" version="1.0"><path fill="#a9a0f0" d="M 256.632812 158.265625 C 260.175781 148.101562 264.902344 136.476562 263.6875 125.515625 C 263.015625 119.40625 260.105469 113.921875 258.976562 107.941406 C 257.730469 101.441406 255.03125 96.585938 250.894531 91.519531 C 244.496094 83.707031 239.886719 74.5 233.34375 66.875 C 229.933594 62.90625 226.0625 59.125 221.285156 56.835938 C 218.625 55.566406 214.082031 53.492188 211.257812 55.667969 C 210.757812 56.054688 210.128906 56.835938 209.488281 57.679688 C 209.371094 57.949219 209.269531 58.21875 209.164062 58.496094 C 209.070312 58.769531 209.015625 59.0625 208.929688 59.363281 C 208.714844 59.953125 208.730469 60.609375 208.597656 61.25 C 208.644531 61.910156 208.574219 62.589844 208.730469 63.261719 L 208.816406 63.789062 C 208.945312 64.144531 209.371094 64.777344 209.742188 65.320312 C 209.945312 65.628906 210.144531 65.945312 210.347656 66.300781 C 210.445312 66.457031 210.585938 66.835938 210.671875 67.089844 C 210.71875 67.230469 210.703125 67.277344 210.734375 67.363281 L 210.75 67.484375 L 210.773438 67.703125 L 210.757812 67.75 L 210.75 67.84375 C 210.671875 68.34375 210.539062 68.816406 210.347656 69.117188 C 210.160156 69.488281 209.960938 69.761719 209.773438 70 C 209.386719 70.503906 209.015625 70.890625 208.714844 71.246094 C 208.40625 71.585938 208.171875 71.902344 207.949219 72.171875 C 207.761719 72.445312 207.601562 72.660156 207.476562 72.855469 C 207.277344 73.386719 207.089844 73.660156 206.933594 73.644531 C 206.773438 73.628906 206.648438 73.332031 206.5625 72.769531 C 206.570312 72.476562 206.648438 72.042969 206.773438 71.601562 C 206.917969 71.199219 207.105469 70.726562 207.359375 70.300781 C 207.585938 69.875 207.855469 69.417969 208.132812 68.933594 C 209.03125 67.378906 207.089844 65.945312 206.503906 64.523438 C 206.503906 64.507812 206.488281 64.460938 206.488281 64.460938 L 206.488281 64.421875 L 206.371094 63.789062 C 205.921875 63.109375 205.386719 62.265625 204.808594 61.390625 C 204.574219 61.082031 204.375 60.796875 204.167969 60.507812 C 198.0625 55.535156 185.6875 67.933594 184.710938 73.402344 C 183.503906 80.195312 189.941406 84.636719 191.945312 90.519531 C 194.011719 96.570312 191.441406 100.699219 189.445312 106.472656 C 188.441406 109.339844 187.8125 111.636719 186.34375 113.679688 C 188.988281 113.175781 191.273438 111.964844 193.011719 111.019531 C 194.953125 109.9375 196.253906 109.226562 196.578125 109.582031 C 196.878906 109.890625 196.167969 111.234375 194.441406 112.953125 C 192.710938 114.578125 189.730469 116.71875 185.703125 117.191406 C 183.714844 117.417969 181.820312 117.128906 180.21875 116.652344 C 180.085938 116.605469 179.960938 116.558594 179.816406 116.519531 C 174.882812 115.519531 170.195312 113.695312 165.027344 113.503906 C 160.371094 113.332031 155.730469 113.410156 151.078125 113.222656 C 140.042969 112.753906 127.535156 111.320312 117.570312 117.105469 C 98.332031 128.230469 86.5 148.589844 79.546875 169.085938 C 80.078125 170.757812 81.355469 171.546875 83.210938 171.292969 C 83.328125 171.277344 83.429688 171.292969 83.527344 171.292969 C 84.726562 171.074219 86.042969 170.574219 87.386719 169.675781 C 89.050781 168.617188 90.738281 167.089844 92.378906 165.335938 C 95.664062 161.777344 98.234375 158.078125 100.105469 155.410156 C 101.976562 152.757812 103.105469 151.054688 103.546875 151.226562 C 104.40625 151.511719 101.945312 159.796875 94.851562 167.632812 C 93.320312 169.25 91.679688 170.671875 89.925781 171.769531 C 88.945312 172.691406 87.78125 173.644531 86.53125 174.617188 C 86.167969 174.875 85.796875 175.113281 85.4375 175.367188 C 82.957031 177.503906 80.34375 179.628906 78.316406 182.183594 C 75.160156 186.167969 74.632812 190.148438 72.929688 194.691406 C 70.679688 200.667969 67.609375 206.023438 63.78125 211.152344 C 59.457031 216.9375 53.484375 220.875 48.621094 226.117188 C 44.0625 231.015625 40.226562 236.523438 35.726562 241.480469 C 43.964844 246.277344 57.074219 240.492188 64.214844 237.195312 C 73.992188 232.6875 83.429688 229.925781 90.367188 221.332031 C 90.519531 221.128906 90.714844 220.988281 90.894531 220.875 C 90.992188 220.75 91.125 220.632812 91.28125 220.519531 C 95.980469 217.121094 100.902344 215.304688 105.289062 211.25 C 109 207.808594 113.914062 204.984375 117.214844 201.1875 C 122.777344 194.792969 125.707031 186.652344 131.246094 180.226562 C 131.472656 179.539062 132.027344 179.113281 132.679688 178.972656 C 132.785156 177.132812 133.1875 175.261719 133.800781 173.371094 C 132.839844 172.816406 132.027344 172.003906 131.585938 171.074219 C 130.828125 169.621094 130.742188 168.191406 130.804688 166.960938 C 130.929688 164.476562 131.617188 162.503906 132.304688 160.910156 C 133.683594 157.738281 135.316406 156.183594 135.671875 156.457031 C 136.042969 156.742188 135.261719 158.550781 134.542969 161.667969 C 134.1875 163.191406 133.832031 165.082031 133.882812 166.976562 C 133.898438 167.917969 134.085938 168.863281 134.488281 169.503906 C 134.859375 170.164062 135.402344 170.519531 136.257812 170.757812 L 138.117188 171.261719 L 137.488281 173 L 137.375 173.304688 C 136.175781 176.527344 135.5 179.738281 135.671875 182.214844 C 136.429688 184.480469 138.929688 185.8125 141.023438 186.738281 C 141.1875 186.792969 141.308594 186.894531 141.425781 186.992188 C 141.96875 187.195312 142.457031 187.605469 142.726562 188.246094 C 144.15625 191.636719 147.066406 198.117188 151.375 198.347656 C 151.738281 198.355469 152.046875 198.457031 152.316406 198.605469 C 152.75 198.628906 153.207031 198.8125 153.601562 199.199219 C 159.472656 204.984375 164.082031 211.585938 172.414062 213.882812 C 172.871094 214.003906 173.195312 214.238281 173.433594 214.523438 C 173.882812 214.648438 174.308594 214.910156 174.632812 215.351562 C 180.117188 222.613281 189.539062 230.96875 198.96875 231.898438 C 199.160156 231.910156 199.355469 231.949219 199.515625 232.027344 C 200.320312 231.859375 201.195312 232.082031 201.761719 232.957031 C 205.589844 238.78125 213.773438 240.335938 220.070312 242.0625 C 228.230469 244.304688 239.351562 241.621094 243.941406 233.800781 C 247.894531 227.070312 247.667969 219.503906 248.636719 212.007812 C 249.363281 206.339844 250.136719 200.886719 250.089844 195.261719 C 250.035156 194.945312 249.980469 194.621094 249.910156 194.289062 C 248.953125 190.453125 247.4375 187.148438 246.355469 184.75 C 245.171875 182.351562 244.464844 180.796875 244.769531 180.613281 C 245.039062 180.441406 246.222656 181.65625 247.808594 183.867188 C 248.582031 185.007812 249.425781 186.4375 250.222656 188.109375 C 252.765625 178.6875 255.132812 169.265625 256.316406 159.550781 C 256.347656 159.292969 256.417969 159.078125 256.519531 158.867188 C 256.519531 158.683594 256.5625 158.480469 256.632812 158.265625 Z M 267.144531 120.503906 C 270.085938 133.636719 265.042969 147.128906 260.765625 159.410156 C 260.703125 159.566406 260.632812 159.710938 260.554688 159.835938 C 259.285156 170.179688 256.804688 180.210938 254.082031 190.234375 C 254.121094 190.390625 254.167969 190.550781 254.179688 190.722656 C 255.164062 201.171875 253.292969 212.125 251.875 222.476562 C 250.691406 231.070312 247.566406 239.105469 239.515625 243.460938 C 231.632812 247.714844 224.261719 247.800781 215.816406 245.347656 C 209.589844 243.53125 202.890625 241.417969 198.804688 236.152344 C 187.96875 235.023438 177.820312 226.429688 171.355469 218.035156 C 171.324219 218.019531 171.300781 218.019531 171.269531 218.019531 C 162.289062 215.519531 157.214844 208.839844 150.902344 202.574219 C 144.9375 201.953125 141.339844 195.648438 139.082031 190.503906 C 139.011719 190.476562 138.945312 190.460938 138.875 190.4375 C 136.3125 189.308594 133.96875 187.683594 132.546875 185.453125 C 127.332031 192.492188 124.347656 201.035156 117.425781 206.757812 C 113.199219 210.253906 109.132812 214.351562 104.816406 217.703125 C 101.304688 220.433594 97.121094 221.601562 93.523438 224.160156 C 93.476562 224.230469 93.453125 224.300781 93.398438 224.363281 C 85.042969 234.710938 71.4375 239.253906 59.269531 244.078125 C 51.132812 247.304688 38.554688 249.585938 31.117188 243.40625 C 30.046875 242.507812 30.289062 241.292969 31.078125 240.535156 C 31.160156 240.234375 31.332031 239.933594 31.585938 239.664062 C 37.101562 233.882812 41.347656 226.867188 47.234375 221.476562 C 52.835938 216.332031 58.628906 211.683594 62.8125 205.210938 C 65.164062 201.558594 67.460938 197.714844 68.792969 193.546875 C 69.722656 190.660156 70.15625 187.394531 71.59375 184.695312 C 73.636719 180.851562 76.449219 177.796875 79.546875 174.917969 C 77.503906 174.097656 75.917969 172.460938 75.304688 169.875 C 75.261719 169.707031 75.238281 169.535156 75.238281 169.375 C 75.160156 169.046875 75.160156 168.675781 75.304688 168.257812 C 82.300781 147.460938 94.960938 123.84375 115.398438 113.394531 C 125.933594 108.027344 137.125 108.335938 148.675781 108.824219 C 154.847656 109.09375 161.183594 108.667969 167.316406 109.378906 C 172.234375 109.96875 176.851562 111.644531 181.671875 112.503906 C 181.6875 112.503906 181.6875 112.488281 181.703125 112.488281 C 184.890625 110.089844 186.785156 102.386719 187.898438 98.660156 C 190.042969 91.457031 184.773438 88.046875 182.160156 82.238281 C 180.203125 77.898438 179.21875 73.140625 182.035156 68.863281 C 186.613281 61.933594 196.640625 51.296875 205.320312 56.152344 C 207.917969 53.316406 209.859375 50.214844 214.453125 50.539062 C 218.808594 50.855469 222.855469 52.457031 226.464844 54.894531 C 237.828125 62.566406 242.796875 74.796875 251.179688 85.121094 C 254.925781 89.746094 259.449219 94.488281 261.429688 100.230469 C 263.640625 106.648438 265.660156 113.851562 267.144531 120.503906 " fill-opacity="1" fill-rule="nonzero"/><path fill="#a9a0f0" d="M 258.691406 140.519531 C 259.347656 140.40625 260.175781 144.046875 258.644531 148.171875 C 257.894531 150.214844 256.703125 151.914062 255.519531 152.828125 C 254.28125 153.792969 253.394531 153.855469 253.222656 153.601562 C 253.019531 153.316406 253.679688 152.640625 254.28125 151.660156 C 254.949219 150.65625 255.722656 149.144531 256.378906 147.34375 C 257.730469 143.746094 258.035156 140.574219 258.691406 140.519531 " fill-opacity="1" fill-rule="nonzero"/><path fill="#a9a0f0" d="M 257.578125 122.398438 C 257.699219 124.726562 257.664062 126.851562 257.304688 128.59375 C 256.664062 132.128906 255.363281 133.984375 255.117188 133.855469 C 254.761719 133.699219 255.449219 131.695312 255.605469 128.398438 C 255.738281 126.761719 255.605469 124.789062 255.363281 122.613281 C 255.0625 120.449219 254.5625 118.089844 253.878906 115.636719 C 251.019531 105.796875 246.207031 98.796875 246.792969 98.402344 C 247.050781 98.21875 248.597656 99.703125 250.523438 102.625 C 252.449219 105.527344 254.675781 109.835938 256.191406 114.964844 C 256.917969 117.546875 257.375 120.078125 257.578125 122.398438 " fill-opacity="1" fill-rule="nonzero"/><path fill="#a9a0f0" d="M 248.835938 165.621094 C 249.324219 168.152344 249.023438 170.246094 248.683594 171.632812 C 248.257812 172.945312 247.894531 173.628906 247.753906 173.589844 C 247.582031 173.558594 247.636719 172.777344 247.769531 171.429688 C 247.792969 170.132812 247.808594 168.234375 247.179688 165.992188 C 246.585938 163.765625 245.324219 161.265625 243.601562 158.597656 C 241.929688 155.914062 239.769531 153.042969 238.140625 149.5 L 237.84375 148.84375 L 237.589844 148.085938 C 237.457031 147.628906 237.289062 147.257812 237.210938 146.71875 C 237.125 146.214844 237.039062 145.71875 236.957031 145.230469 C 236.917969 144.777344 236.871094 144.320312 236.832031 143.863281 C 236.683594 142.0625 236.675781 140.375 236.515625 138.851562 C 236.398438 137.296875 236.089844 135.894531 235.6875 134.621094 C 235.460938 133.808594 235.300781 133.25 235.128906 132.554688 C 234.976562 131.898438 234.828125 131.285156 234.6875 130.683594 C 234.15625 128.339844 233.511719 126.582031 232.832031 125.46875 C 232.546875 124.875 232.207031 124.5 232.019531 124.183594 C 231.835938 123.875 231.75 123.691406 231.804688 123.613281 C 231.859375 123.558594 232.050781 123.628906 232.359375 123.828125 C 232.664062 124.046875 233.148438 124.339844 233.589844 124.910156 C 234.589844 125.957031 235.570312 127.859375 236.328125 130.210938 C 236.515625 130.78125 236.699219 131.394531 236.917969 132.019531 C 237.101562 132.609375 237.375 133.367188 237.558594 133.90625 C 238.101562 135.355469 238.527344 136.941406 238.710938 138.59375 C 238.945312 140.25 239.011719 141.960938 239.175781 143.644531 C 239.230469 144.070312 239.269531 144.488281 239.316406 144.914062 C 239.382812 145.300781 239.453125 145.6875 239.53125 146.074219 C 239.554688 146.445312 239.753906 146.917969 239.886719 147.34375 L 239.988281 147.675781 L 240.042969 147.847656 L 240.074219 147.917969 L 240.074219 147.929688 L 240.328125 148.503906 C 241.8125 151.730469 243.871094 154.613281 245.496094 157.453125 C 247.164062 160.253906 248.394531 163.078125 248.835938 165.621094 " fill-opacity="1" fill-rule="nonzero"/><path fill="#a9a0f0" d="M 244.398438 196.648438 C 244.464844 197.542969 244.441406 198.371094 244.382812 199.09375 C 244.34375 199.820312 244.296875 200.429688 244.242188 200.941406 C 244.125 201.953125 243.980469 202.503906 243.824219 202.503906 C 243.652344 202.503906 243.484375 201.953125 243.296875 200.957031 C 243.214844 200.460938 243.128906 199.859375 243.042969 199.160156 C 242.972656 198.457031 242.871094 197.660156 242.703125 196.785156 C 242.554688 195.929688 242.402344 194.976562 242.230469 193.949219 C 242.082031 192.933594 241.726562 191.921875 241.488281 190.808594 C 241.355469 190.25 241.226562 189.695312 241.085938 189.121094 C 240.871094 188.535156 240.660156 187.9375 240.429688 187.335938 C 240.210938 186.738281 239.988281 186.121094 239.753906 185.492188 L 239.585938 185.023438 L 239.5 184.78125 L 239.5 184.765625 L 239.484375 184.75 L 239.429688 184.636719 L 238.988281 183.792969 C 237.867188 181.472656 236.289062 179.53125 234.757812 177.789062 C 233.242188 176.042969 231.734375 174.515625 230.542969 173.140625 C 228.105469 170.386719 227.0625 168.429688 227.277344 168.234375 C 227.550781 167.988281 229.136719 169.636719 231.757812 171.949219 C 233.074219 173.140625 234.703125 174.53125 236.382812 176.273438 C 238.054688 178 239.871094 180.085938 241.140625 182.707031 L 241.628906 183.667969 L 241.679688 183.785156 L 241.710938 183.808594 L 241.75 183.921875 L 241.765625 183.984375 L 241.851562 184.226562 L 242.015625 184.695312 C 242.230469 185.324219 242.441406 185.933594 242.65625 186.554688 C 242.855469 187.164062 243.058594 187.765625 243.25 188.347656 C 243.382812 188.988281 243.515625 189.609375 243.632812 190.21875 C 243.839844 191.433594 244.140625 192.59375 244.210938 193.660156 C 244.273438 194.738281 244.34375 195.734375 244.398438 196.648438 " fill-opacity="1" fill-rule="nonzero"/><path fill="#a9a0f0" d="M 242.773438 90.730469 C 243.894531 92.199219 244.125 93.328125 243.941406 93.40625 C 243.699219 93.507812 243.113281 92.703125 241.828125 91.605469 C 241.15625 91.03125 240.359375 90.351562 239.429688 89.578125 C 238.519531 88.734375 237.375 87.84375 236.53125 86.234375 L 236.515625 86.183594 L 236.484375 86.121094 C 236.242188 85.261719 236.242188 84.519531 236.289062 83.839844 C 236.3125 83.148438 236.375 82.492188 236.414062 81.84375 C 236.785156 76.496094 231.972656 72.027344 228.089844 69.085938 C 226.851562 68.144531 225.722656 67.460938 224.964844 67.089844 C 224.167969 66.675781 223.667969 66.449219 223.71875 66.273438 C 223.765625 66.132812 224.261719 66.03125 225.222656 66.1875 C 226.21875 66.332031 227.503906 66.820312 229.003906 67.664062 C 231.941406 69.375 235.632812 72.515625 238 77.339844 C 238.167969 77.695312 238.332031 78.050781 238.457031 78.4375 L 238.65625 78.980469 L 238.695312 79.195312 C 238.710938 79.226562 238.710938 79.296875 238.710938 79.296875 L 238.742188 79.421875 L 238.773438 79.683594 C 238.84375 79.992188 238.828125 80.527344 238.828125 80.9375 C 238.8125 81.308594 238.789062 81.679688 238.757812 82.035156 C 238.609375 83.382812 238.417969 84.734375 238.527344 85.410156 C 238.996094 86.46875 239.917969 87.433594 240.667969 88.292969 C 241.488281 89.175781 242.230469 90.003906 242.773438 90.730469 " fill-opacity="1" fill-rule="nonzero"/><path fill="#a9a0f0" d="M 242.355469 214.777344 C 242.46875 217.394531 242.941406 221.042969 242.742188 225.261719 C 242.609375 227.371094 242.253906 229.429688 241.457031 231.214844 C 240.683594 233.011719 239.429688 234.410156 238.164062 235.183594 C 236.902344 235.980469 235.742188 236.234375 234.945312 236.351562 C 234.1875 236.398438 233.746094 236.335938 233.707031 236.183594 C 233.660156 236.011719 234.03125 235.765625 234.71875 235.4375 C 235.332031 235.082031 236.242188 234.628906 237.140625 233.824219 C 238.046875 233.027344 238.875 231.882812 239.398438 230.378906 C 239.941406 228.886719 240.210938 227.070312 240.328125 225.113281 C 240.527344 221.191406 240.328125 217.460938 240.660156 214.730469 C 240.914062 211.980469 241.726562 210.371094 242.046875 210.476562 C 242.371094 210.578125 242.183594 212.164062 242.355469 214.777344 " fill-opacity="1" fill-rule="nonzero"/><path fill="#a9a0f0" d="M 234.1875 210.78125 C 235.570312 211.523438 235.886719 213.007812 235.601562 214.4375 C 235.445312 214.949219 235.300781 215.40625 235.105469 215.808594 C 234.742188 216.605469 234.386719 217.238281 234.085938 217.75 C 233.476562 218.777344 233.15625 219.320312 232.988281 219.273438 C 232.832031 219.25 232.878906 218.53125 233.234375 217.378906 C 233.40625 216.804688 233.644531 216.125 233.847656 215.351562 C 233.976562 214.964844 234.046875 214.554688 234.117188 214.136719 C 234.117188 213.980469 234.132812 213.820312 234.15625 213.648438 L 234.101562 213.277344 L 234.070312 213.09375 C 233.890625 212.707031 233.832031 212.652344 233.375 212.449219 C 233.15625 212.351562 232.832031 212.25 232.492188 212.039062 C 232.207031 211.925781 231.664062 211.40625 231.503906 211.210938 C 231.0625 210.640625 230.757812 210.199219 230.351562 209.628906 C 229.960938 209.085938 229.492188 208.496094 229.167969 207.570312 C 228.863281 206.59375 229.003906 205.582031 229.265625 204.769531 C 229.375 204.328125 229.523438 204.058594 229.644531 203.6875 L 229.746094 203.414062 C 229.824219 203.246094 229.878906 203.167969 229.933594 203.042969 C 230.078125 202.8125 230.1875 202.574219 230.355469 202.386719 C 232.980469 199.671875 232.933594 199.097656 231.601562 195.402344 C 231.464844 195.015625 231.363281 194.644531 231.230469 194.273438 C 231.09375 193.863281 231.03125 193.578125 230.921875 193.160156 C 230.738281 192.449219 230.574219 191.75 230.402344 191.0625 C 229.777344 188.332031 229.21875 185.933594 228.476562 184.039062 C 228.144531 183.066406 227.703125 182.269531 227.378906 181.523438 C 226.953125 180.867188 226.660156 180.242188 226.320312 179.769531 C 225.59375 178.808594 225.269531 178.230469 225.382812 178.113281 C 225.492188 178 226.0625 178.355469 226.992188 179.113281 C 227.449219 179.5 227.921875 180.125 228.507812 180.796875 C 228.988281 181.539062 229.574219 182.351562 230.03125 183.351562 C 231.046875 185.324219 231.820312 187.804688 232.578125 190.503906 C 232.761719 191.179688 232.949219 191.867188 233.148438 192.5625 C 233.242188 192.847656 233.359375 193.273438 233.488281 193.5625 C 233.621094 193.894531 233.746094 194.234375 233.875 194.558594 C 234.402344 196.019531 235.105469 197.460938 235.214844 199.5 C 235.199219 199.773438 235.175781 200.058594 235.144531 200.34375 L 235.128906 200.460938 L 235.113281 200.5 C 235.113281 200.53125 235.042969 200.730469 235.042969 200.730469 L 234.992188 200.871094 L 234.875 201.140625 L 234.8125 201.289062 L 234.671875 201.496094 C 234.589844 201.628906 234.488281 201.777344 234.386719 201.898438 C 234.171875 202.203125 234.015625 202.285156 233.816406 202.488281 C 233.085938 203.097656 232.5 203.453125 232.207031 203.855469 C 232.105469 203.941406 232.074219 204.058594 232.019531 204.144531 C 231.988281 204.179688 231.941406 204.257812 231.933594 204.257812 L 231.835938 204.53125 C 231.703125 204.855469 231.503906 205.257812 231.449219 205.511719 C 231.246094 206.085938 231.199219 206.554688 231.277344 206.925781 C 231.5625 207.769531 232.53125 209.085938 233.117188 210.023438 C 233.21875 210.199219 233.273438 210.199219 233.320312 210.238281 C 233.34375 210.285156 233.390625 210.339844 233.503906 210.394531 C 233.660156 210.523438 233.890625 210.609375 234.1875 210.78125 " fill-opacity="1" fill-rule="nonzero"/><path fill="#a9a0f0" d="M 227.765625 111.476562 C 227.953125 111.570312 227.9375 112.589844 227.363281 114.335938 C 227.039062 115.164062 226.589844 116.347656 225.40625 117.230469 C 224.609375 117.863281 223.621094 118.222656 222.597656 118.476562 C 222.667969 118.628906 222.722656 118.785156 222.777344 118.949219 C 222.9375 119.574219 223.109375 120.214844 223.195312 120.890625 C 223.210938 121.570312 223.339844 122.289062 223.210938 123 C 223.15625 123.355469 223.109375 123.710938 223.046875 124.070312 C 222.953125 124.433594 222.839844 124.773438 222.738281 125.128906 C 221.863281 127.726562 219.953125 129.566406 218.113281 130.765625 C 216.242188 131.949219 214.332031 132.585938 212.714844 132.855469 C 211.121094 133.109375 209.742188 133.078125 208.863281 132.941406 C 208.003906 132.761719 207.53125 132.59375 207.53125 132.421875 C 207.53125 132.253906 208.019531 132.113281 208.890625 131.996094 C 209.757812 131.84375 210.902344 131.625 212.3125 131.191406 C 213.726562 130.75 215.328125 130.039062 216.851562 128.925781 C 218.351562 127.828125 219.820312 126.289062 220.449219 124.339844 C 221.199219 122.21875 220.914062 119.992188 220.109375 118.136719 L 219.496094 116.71875 L 220.980469 116.589844 C 222.351562 116.464844 223.535156 116.234375 224.363281 115.746094 C 225.222656 115.304688 225.722656 114.445312 226.179688 113.78125 C 227.039062 112.335938 227.503906 111.390625 227.765625 111.476562 " fill-opacity="1" fill-rule="nonzero"/><path fill="#a9a0f0" d="M 227.277344 239.035156 C 227.449219 239.253906 225.832031 240.691406 222.523438 240.976562 C 219.28125 241.25 214.617188 240.117188 210.824219 236.753906 C 210.5 236.421875 210.113281 236.066406 209.828125 235.742188 L 209.417969 235.253906 C 209.332031 235.152344 209.316406 235.152344 209.171875 234.96875 L 208.992188 234.679688 C 208.503906 233.921875 207.988281 233.195312 207.679688 232.429688 C 206.933594 230.921875 206.546875 229.5 206.132812 228.253906 C 206.078125 228.097656 205.675781 227.8125 205.148438 227.441406 C 204.589844 227.046875 204.105469 226.359375 203.933594 225.714844 L 203.972656 225.816406 C 203.632812 224.886719 203.800781 224.285156 203.863281 223.742188 C 203.964844 223.21875 204.082031 222.800781 204.175781 222.460938 C 204.375 221.816406 204.523438 221.414062 204.675781 221.414062 C 204.824219 221.429688 204.976562 221.800781 205.015625 222.542969 C 205.046875 222.902344 205.078125 223.332031 205.101562 223.820312 C 205.117188 224.277344 205.195312 224.875 205.371094 225.113281 L 205.417969 225.214844 C 205.589844 225.515625 205.773438 225.730469 206.175781 225.957031 C 206.371094 226.085938 206.632812 226.1875 206.957031 226.40625 C 207.261719 226.574219 207.664062 226.914062 207.949219 227.402344 L 207.957031 227.417969 L 207.988281 227.503906 C 209.046875 230 210.082031 232.871094 212.457031 234.96875 C 215.683594 237.851562 219.683594 239.105469 222.5 239.285156 C 225.367188 239.453125 227.125 238.679688 227.277344 239.035156 " fill-opacity="1" fill-rule="nonzero"/><path fill="#a9a0f0" d="M 221.585938 157.214844 C 223.953125 160.339844 224.796875 162.636719 224.546875 162.765625 C 224.222656 162.960938 222.863281 161.011719 220.292969 158.328125 C 217.765625 155.644531 213.601562 152.402344 208.800781 149.539062 C 207.617188 148.929688 206.277344 148.472656 204.960938 147.863281 C 204.304688 147.542969 203.664062 147.242188 202.953125 146.703125 C 202.566406 146.460938 202.363281 146.214844 202.132812 145.988281 L 201.875 145.734375 L 201.808594 145.640625 L 201.777344 145.632812 L 201.746094 145.574219 L 201.4375 145.1875 C 199.820312 143.160156 198.613281 141.25 197.5 139.746094 C 196.949219 138.988281 196.398438 138.363281 195.9375 137.789062 C 195.449219 137.25 195.023438 136.777344 194.667969 136.390625 C 193.894531 135.648438 193.507812 135.183594 193.609375 135.035156 C 193.707031 134.90625 194.28125 135.121094 195.222656 135.632812 C 195.695312 135.925781 196.253906 136.335938 196.878906 136.824219 C 197.46875 137.335938 198.140625 137.9375 198.789062 138.664062 C 200.152344 140.089844 201.519531 141.921875 203.128906 143.761719 L 203.445312 144.117188 L 203.546875 144.21875 L 203.71875 144.375 C 203.964844 144.605469 204.203125 144.84375 204.40625 144.929688 C 204.761719 145.164062 205.351562 145.464844 205.9375 145.71875 C 207.113281 146.230469 208.488281 146.671875 209.90625 147.390625 C 215.113281 150.484375 219.195312 154.042969 221.585938 157.214844 " fill-opacity="1" fill-rule="nonzero"/><path fill="#a9a0f0" d="M 207.414062 77.21875 C 207.484375 77.371094 207.160156 77.726562 206.519531 78.253906 C 205.875 78.792969 204.894531 79.484375 203.863281 80.441406 C 203.378906 80.90625 202.851562 81.457031 202.488281 82.066406 C 202.449219 82.167969 202.0625 82.941406 202.148438 82.996094 C 202.109375 83.195312 202.164062 83.480469 202.277344 83.855469 C 202.402344 84.226562 202.648438 84.804688 202.75 85.507812 C 202.75 85.863281 202.773438 86.25 202.71875 86.59375 C 202.695312 86.738281 202.703125 86.824219 202.648438 87.015625 C 202.597656 87.21875 202.550781 87.417969 202.480469 87.605469 C 201.921875 88.9375 201.0625 89.730469 200.707031 90.476562 C 199.515625 92.941406 203.363281 95.269531 204.203125 97.15625 C 204.34375 97.390625 204.40625 97.644531 204.492188 97.886719 L 204.589844 98.257812 C 204.613281 98.355469 204.613281 98.289062 204.660156 98.511719 L 204.675781 98.675781 C 204.691406 98.867188 204.707031 99.070312 204.714844 99.269531 C 204.707031 99.515625 204.691406 99.757812 204.675781 99.980469 C 204.476562 101.769531 203.617188 102.851562 203.019531 103.5 C 202.402344 104.160156 201.921875 104.328125 201.824219 104.226562 C 201.691406 104.097656 201.9375 103.6875 202.261719 102.96875 C 202.566406 102.253906 203.035156 101.171875 202.976562 99.941406 C 202.96875 99.804688 202.96875 99.671875 202.96875 99.53125 C 202.921875 99.339844 202.875 99.144531 202.835938 98.945312 C 202.75 98.742188 202.617188 98.355469 202.433594 98.085938 C 202.109375 97.5 201.503906 96.972656 200.761719 96.316406 C 200.390625 95.972656 199.996094 95.640625 199.5625 95.132812 C 199.324219 94.882812 199.191406 94.691406 199.039062 94.472656 L 198.921875 94.304688 L 198.867188 94.234375 L 198.835938 94.1875 L 198.75 94.046875 C 198.734375 94.019531 198.535156 93.601562 198.535156 93.601562 C 198.25 93.042969 198.046875 92.363281 197.992188 91.621094 C 197.925781 90.847656 198.15625 90.019531 198.480469 89.390625 C 199.175781 88.109375 199.996094 87.386719 200.261719 86.707031 C 200.546875 85.949219 200.492188 85.59375 200.152344 84.480469 C 199.996094 83.90625 199.882812 83.195312 200.097656 82.492188 C 200.136719 82.320312 200.191406 82.152344 200.253906 81.980469 C 200.304688 81.828125 200.367188 81.765625 200.421875 81.648438 L 200.578125 81.355469 L 200.664062 81.207031 L 200.738281 81.085938 L 200.761719 81.039062 L 200.824219 80.96875 C 201.449219 80.109375 202.164062 79.566406 202.804688 79.097656 C 204.121094 78.199219 205.265625 77.742188 206.0625 77.441406 C 206.859375 77.15625 207.328125 77.070312 207.414062 77.21875 " fill-opacity="1" fill-rule="nonzero"/><path fill="#a9a0f0" d="M 196.011719 225.414062 C 198.15625 226.714844 199.796875 227.238281 199.679688 227.609375 C 199.625 227.875 197.894531 228 195.222656 226.929688 C 193.910156 226.40625 192.324219 225.359375 191.242188 223.621094 C 190.164062 221.847656 189.769531 219.722656 189.703125 217.546875 C 189.6875 217.191406 189.6875 216.835938 189.671875 216.480469 C 189.6875 215.839844 189.894531 215.28125 190.089844 214.925781 C 190.445312 214.292969 190.597656 213.964844 190.652344 213.695312 C 190.558594 213.449219 190.164062 212.96875 189.753906 212.480469 C 189.515625 212.179688 189.269531 211.855469 189.042969 211.421875 C 188.929688 211.167969 188.796875 210.847656 188.757812 210.640625 C 188.726562 210.421875 188.710938 210.207031 188.703125 210 C 188.882812 208.210938 189.839844 207.253906 190.566406 206.539062 C 191.308594 205.84375 192.070312 205.480469 192.609375 205.273438 C 193.128906 205.125 193.429688 205.125 193.5 205.242188 C 193.554688 205.371094 193.351562 205.597656 192.964844 205.953125 C 192.65625 206.324219 192.355469 206.796875 191.867188 207.507812 C 190.328125 209.75 190.628906 210.066406 192.167969 211.878906 C 192.457031 212.210938 192.789062 212.683594 192.957031 213.339844 L 192.980469 213.410156 L 192.980469 213.5625 C 193.011719 214.609375 192.46875 215.492188 192.222656 215.992188 C 192.097656 216.25 192.097656 216.378906 192.082031 216.433594 C 192.082031 216.789062 192.097656 217.144531 192.097656 217.507812 C 192.167969 219.390625 192.46875 221.191406 193.167969 222.507812 C 193.871094 223.828125 194.9375 224.757812 196.011719 225.414062 " fill-opacity="1" fill-rule="nonzero"/><path fill="#a9a0f0" d="M 186.28125 140.636719 C 188.472656 142.175781 189.625 143.359375 189.445312 143.609375 C 189.246094 143.902344 187.761719 143.234375 185.445312 142.121094 C 183.101562 141.046875 179.878906 139.632812 176.203125 138.277344 C 168.839844 135.648438 162.628906 133.839844 162.796875 133.132812 C 162.929688 132.539062 169.414062 133.296875 177.03125 136.003906 C 180.820312 137.417969 184.085938 139.152344 186.28125 140.636719 " fill-opacity="1" fill-rule="nonzero"/><path fill="#a9a0f0" d="M 187.070312 165.976562 C 187.3125 166.203125 186.847656 167.089844 185.988281 168.34375 C 185.160156 169.589844 183.960938 171.246094 182.785156 173.117188 C 181.671875 175.011719 180.929688 176.800781 180.472656 178.167969 C 180.078125 179.539062 179.808594 180.472656 179.453125 180.496094 C 179.144531 180.496094 178.792969 179.53125 178.792969 177.898438 C 178.832031 176.257812 179.476562 174 180.722656 171.886719 C 182.019531 169.792969 183.527344 168.207031 184.742188 167.191406 C 185.941406 166.195312 186.832031 165.761719 187.070312 165.976562 " fill-opacity="1" fill-rule="nonzero"/><path fill="#a9a0f0" d="M 177.433594 210.292969 C 178.246094 212.480469 178.792969 213.898438 178.5 214.050781 C 178.230469 214.183594 177.226562 213.109375 175.949219 210.980469 C 175.335938 209.914062 174.648438 208.535156 174.355469 206.765625 C 174.207031 205.882812 174.144531 204.902344 174.363281 203.886719 C 174.492188 203.269531 174.726562 202.65625 174.996094 202.070312 C 174.949219 202.03125 174.886719 202 174.835938 201.953125 C 173.890625 201.273438 173.148438 200.382812 172.574219 199.433594 C 172.027344 198.488281 171.742188 197.460938 171.5625 196.5 C 171.269531 194.574219 171.523438 192.878906 171.878906 191.535156 C 172.652344 188.867188 173.707031 187.503906 173.984375 187.636719 C 174.324219 187.765625 173.835938 189.351562 173.566406 191.851562 C 173.433594 193.089844 173.402344 194.574219 173.734375 196.074219 C 174.09375 197.574219 174.886719 199.015625 176.273438 200.027344 C 176.566406 200.246094 176.875 200.414062 177.179688 200.617188 L 178.308594 201.40625 L 177.582031 202.355469 C 175.648438 204.925781 176.644531 208.148438 177.433594 210.292969 " fill-opacity="1" fill-rule="nonzero"/><path fill="#a9a0f0" d="M 155.589844 182.199219 C 155.457031 181.199219 155.21875 180.226562 155.148438 179.210938 C 155.015625 178.167969 155.417969 176.953125 156.078125 176.457031 C 156.6875 175.917969 157.292969 175.753906 157.648438 175.667969 C 158.019531 175.617188 158.226562 175.632812 158.273438 175.730469 C 158.421875 175.957031 157.570312 176.359375 156.972656 177.238281 C 156.671875 177.679688 156.617188 178.199219 156.789062 178.996094 C 156.957031 179.785156 157.34375 180.78125 157.617188 181.996094 L 157.632812 182.152344 C 157.648438 182.296875 157.785156 182.570312 158.15625 183.011719 C 158.445312 183.398438 158.96875 183.984375 159.117188 184.921875 C 159.171875 185.082031 159.203125 185.222656 159.203125 185.324219 C 159.203125 185.4375 159.203125 185.539062 159.1875 185.640625 C 159.171875 185.796875 159.148438 185.933594 159.117188 186.050781 C 159.054688 186.28125 159 186.46875 158.929688 186.667969 C 158.800781 187.039062 158.660156 187.378906 158.519531 187.707031 C 158.257812 188.332031 157.933594 189.074219 157.785156 189.539062 C 157.777344 189.761719 157.746094 190.011719 157.730469 190.25 C 157.632812 191.28125 157.648438 192.292969 157.816406 193.207031 C 157.941406 194.117188 158.242188 194.960938 158.660156 195.65625 C 159.441406 197.121094 160.789062 198 162 198.605469 C 164.5 199.703125 166.394531 199.859375 166.363281 200.246094 C 166.363281 200.5 164.484375 201.035156 161.398438 200.191406 C 159.90625 199.726562 158.003906 198.773438 156.773438 196.847656 C 155.488281 194.960938 155.101562 192.417969 155.335938 190.050781 C 155.355469 189.746094 155.386719 189.4375 155.417969 189.136719 L 155.417969 189.066406 L 155.449219 189.003906 C 155.742188 188.023438 156.0625 187.449219 156.347656 186.777344 C 156.488281 186.46875 156.617188 186.152344 156.742188 185.847656 C 156.804688 185.710938 156.84375 185.578125 156.890625 185.46875 L 156.917969 185.394531 C 156.917969 185.410156 156.917969 185.410156 156.917969 185.421875 C 156.917969 185.476562 156.941406 185.664062 157.019531 185.765625 L 156.917969 185.394531 L 156.917969 185.371094 L 156.890625 185.253906 C 156.933594 185.152344 156.773438 184.796875 156.417969 184.308594 C 156.117188 183.867188 155.628906 183.210938 155.605469 182.320312 C 155.605469 182.285156 155.589844 182.238281 155.589844 182.199219 " fill-opacity="1" fill-rule="nonzero"/><path fill="#a9a0f0" d="M 155.589844 182.199219 C 155.589844 182.238281 155.605469 182.285156 155.605469 182.320312 C 155.605469 182.285156 155.589844 182.238281 155.589844 182.199219 " fill-opacity="1" fill-rule="nonzero"/><path fill="#a9a0f0" d="M 148.636719 190.25 C 150.40625 192.378906 152.378906 192.449219 152.316406 192.863281 C 152.316406 193.003906 151.835938 193.191406 150.917969 193.105469 C 150.019531 193.035156 148.667969 192.5625 147.4375 191.464844 C 146.207031 190.367188 145.054688 188.75 144.296875 186.761719 C 143.894531 185.78125 143.609375 184.695312 143.421875 183.535156 C 143.335938 182.996094 143.28125 182.320312 143.265625 181.726562 C 143.265625 181.441406 143.25 181.199219 143.28125 180.867188 C 143.296875 180.441406 143.367188 180.023438 143.492188 179.683594 C 143.738281 178.996094 144.070312 178.4375 144.328125 177.96875 C 144.597656 177.425781 144.707031 177.339844 144.707031 177.054688 C 144.691406 176.675781 144.621094 176.328125 144.464844 175.769531 C 144.28125 175.175781 144.210938 174.6875 144.125 174.199219 C 143.878906 172.203125 143.539062 170.417969 143.792969 168.691406 C 143.894531 168.273438 143.957031 167.878906 144.09375 167.507812 C 144.265625 167.144531 144.425781 166.820312 144.582031 166.519531 C 144.992188 165.976562 145.433594 165.492188 145.78125 165.265625 C 146.523438 164.832031 146.980469 164.664062 147.097656 164.792969 C 147.195312 164.917969 146.933594 165.335938 146.390625 165.976562 C 146.152344 166.316406 145.996094 166.703125 145.78125 167.144531 C 145.71875 167.410156 145.648438 167.664062 145.566406 167.933594 C 145.511719 168.207031 145.527344 168.53125 145.496094 168.847656 C 145.464844 170.132812 145.9375 171.855469 146.308594 173.757812 C 146.40625 174.246094 146.523438 174.757812 146.679688 175.144531 C 146.824219 175.585938 147.035156 176.273438 147.066406 176.96875 C 147.148438 177.773438 146.65625 178.6875 146.421875 179.113281 C 146.152344 179.628906 145.921875 180.054688 145.796875 180.441406 C 145.710938 180.644531 145.695312 180.796875 145.679688 180.9375 C 145.664062 181.167969 145.664062 181.488281 145.664062 181.757812 C 145.679688 182.269531 145.695312 182.691406 145.765625 183.210938 C 145.898438 184.195312 146.089844 185.152344 146.382812 186.011719 C 146.917969 187.78125 147.777344 189.207031 148.636719 190.25 " fill-opacity="1" fill-rule="nonzero"/><path fill="#a9a0f0" d="M 131.617188 129.097656 C 131.875 129.769531 128.019531 131.523438 123.605469 133.875 C 121.421875 135.105469 119.566406 136.367188 118.320312 137.3125 C 117.039062 138.347656 116.1875 139.089844 115.90625 138.851562 C 115.683594 138.648438 115.992188 137.621094 117.039062 136.199219 C 118.183594 134.695312 120.09375 133.09375 122.4375 131.78125 C 127.195312 129.257812 131.417969 128.515625 131.617188 129.097656 " fill-opacity="1" fill-rule="nonzero"/><path fill="#a9a0f0" d="M 128.050781 160.507812 C 128.398438 160.664062 126.761719 163.15625 127.046875 167.703125 C 127.117188 168.847656 127.277344 170.101562 127.464844 171.476562 C 127.632812 172.863281 127.875 174.371094 127.835938 176.085938 C 127.851562 176.898438 127.65625 178 127.464844 178.726562 C 127.0625 179.871094 126.535156 180.597656 125.847656 181.339844 C 124.515625 182.792969 122.878906 183.824219 121.292969 184.828125 L 121.222656 184.867188 L 121.167969 184.898438 C 120.703125 185.082031 120.269531 185.308594 119.769531 185.453125 C 119.511719 185.523438 119.25 185.625 119.011719 185.664062 L 118.351562 185.824219 C 118.082031 185.925781 118.027344 185.910156 117.695312 186.25 C 117.457031 186.46875 117.152344 186.847656 116.882812 187.164062 C 116.652344 187.519531 116.425781 187.890625 116.1875 188.261719 C 114.910156 190.390625 113.898438 192.6875 112.730469 194.875 C 111.554688 197.058594 110.113281 199.160156 108.242188 200.660156 C 107.328125 201.414062 106.316406 202 105.289062 202.503906 C 104.816406 202.695312 104.34375 202.882812 103.871094 203.066406 C 103.363281 203.246094 102.859375 203.4375 102.332031 203.53125 C 101.257812 203.742188 100.390625 203.703125 99.75 203.910156 C 99.410156 203.988281 99.078125 204.195312 98.75 204.328125 C 98.433594 204.515625 98.132812 204.714844 97.832031 204.886719 C 97.4375 205.273438 97.050781 205.613281 96.695312 205.953125 C 96.339844 206.308594 96.019531 206.695312 95.703125 207.042969 C 95.09375 207.707031 94.511719 208.351562 94.054688 208.824219 C 93.066406 209.695312 92.457031 210.097656 92.355469 210 C 92.253906 209.898438 92.671875 209.292969 93.453125 208.25 C 93.808594 207.699219 94.210938 207.082031 94.769531 206.300781 C 95.054688 205.914062 95.308594 205.480469 95.664062 205.054688 C 96.035156 204.628906 96.4375 204.179688 96.847656 203.710938 L 96.863281 203.703125 L 96.894531 203.671875 C 97.21875 203.429688 97.558594 203.183594 97.925781 202.929688 C 98.320312 202.710938 98.707031 202.441406 99.191406 202.285156 C 100.175781 201.914062 101.148438 201.898438 101.914062 201.675781 C 102.316406 201.582031 102.71875 201.40625 103.128906 201.242188 C 103.578125 201.042969 104.019531 200.839844 104.492188 200.632812 C 105.257812 200.175781 106.085938 199.671875 106.84375 199 C 108.359375 197.691406 109.574219 195.875 110.640625 193.777344 C 111.730469 191.6875 112.730469 189.335938 114.128906 187.023438 C 114.382812 186.59375 114.65625 186.183594 114.925781 185.765625 L 114.957031 185.710938 L 114.988281 185.679688 C 115.34375 185.277344 115.597656 184.921875 116.039062 184.511719 C 116.355469 184.140625 117.121094 183.636719 117.75 183.511719 L 118.46875 183.351562 C 118.667969 183.3125 118.855469 183.242188 119.039062 183.195312 C 119.398438 183.09375 119.769531 182.910156 120.140625 182.769531 C 121.710938 181.8125 123.164062 180.914062 124.222656 179.816406 C 124.515625 179.554688 124.710938 179.257812 124.933594 178.972656 C 125.058594 178.824219 125.105469 178.671875 125.191406 178.53125 L 125.320312 178.316406 L 125.375 178.214844 L 125.375 178.167969 C 125.648438 177.285156 125.746094 176.769531 125.792969 176.003906 C 125.917969 173.046875 125.40625 170.148438 125.53125 167.71875 C 125.609375 165.28125 126.195312 163.332031 126.808594 162.148438 C 127.417969 160.949219 127.960938 160.4375 128.050781 160.507812 " fill-opacity="1" fill-rule="nonzero"/><path fill="#a9a0f0" d="M 86.167969 214.277344 C 86.398438 214.554688 84.710938 216.480469 82.277344 219.90625 C 81.03125 221.601562 79.546875 223.660156 77.671875 225.800781 C 75.792969 227.929688 73.480469 230.257812 70.292969 231.773438 C 68.320312 232.601562 66.210938 233.027344 64.199219 232.871094 C 63.214844 232.824219 62.265625 232.554688 61.359375 232.382812 C 60.773438 232.167969 60.214844 231.949219 59.644531 231.742188 C 57.445312 234.558594 54.933594 236.183594 53.113281 237.164062 C 51.101562 238.238281 49.867188 238.496094 49.765625 238.324219 C 49.632812 238.09375 50.761719 237.394531 52.449219 236.113281 C 54.121094 234.796875 56.546875 232.824219 58.390625 229.886719 L 58.855469 229.128906 L 59.710938 229.484375 C 62.527344 230.714844 66.023438 231.015625 69.296875 229.566406 C 71.964844 228.316406 74.144531 226.273438 76.035156 224.300781 C 77.921875 222.335938 79.53125 220.402344 80.960938 218.832031 C 83.761719 215.636719 85.972656 214.035156 86.167969 214.277344 " fill-opacity="1" fill-rule="nonzero"/></svg>