<svg xmlns="http://www.w3.org/2000/svg" xmlns:xlink="http://www.w3.org/1999/xlink" width="400" zoomAndPan="magnify" viewBox="0 0 300 299.999988" height="400" preserveAspectRatio="xMidYMid meet" version="1.0"><path fill="currentColor" d="M 248.820312 149.363281 C 248.296875 148.320312 246.921875 147.578125 245.734375 148.042969 C 245.433594 148.160156 245.152344 148.347656 244.839844 148.441406 C 244.117188 148.652344 243.320312 147.78125 243.0625 147.179688 C 242.472656 145.792969 243.582031 144.308594 244.078125 142.929688 C 244.222656 142.53125 246.195312 136.414062 246.945312 133.671875 C 247.257812 132.53125 248.460938 128.96875 248.191406 126.933594 C 248.171875 126.804688 247.320312 121.425781 247.3125 121.410156 C 246.363281 115.648438 245.015625 113.066406 244.53125 111.753906 C 244.03125 108.605469 247.265625 106.882812 249.050781 104.707031 C 250.304688 103.023438 251.289062 101.292969 252.269531 99.472656 C 252.691406 98.550781 253.066406 97.597656 253.5 96.640625 C 253.953125 95.640625 254.667969 94.769531 255.132812 93.742188 C 255.699219 92.5 256.246094 91.109375 257.429688 90.34375 C 260.222656 88.953125 261.253906 91.578125 265.070312 91.105469 C 265.992188 91.023438 266.78125 90.617188 267.328125 89.898438 C 268.984375 87.800781 269.632812 85.230469 269.730469 82.679688 C 270.007812 79.589844 268.203125 78.769531 265.101562 77.398438 C 264.136719 76.972656 263.164062 76.78125 262.21875 76.535156 C 260.335938 76.046875 259.332031 75.773438 255.917969 76.570312 C 248.550781 78.234375 248.1875 83.265625 244.507812 87.945312 C 243.214844 90.324219 241.933594 91.964844 239.507812 94.3125 C 238.746094 95.023438 239.601562 94.171875 235.707031 97.566406 C 235.203125 98.007812 234.710938 98.828125 234.101562 99.105469 C 232.476562 99.855469 229.363281 97.925781 227.601562 97.238281 C 225.515625 96.421875 219.621094 94.75 216.789062 94.664062 C 215.605469 94.625 214.394531 94.800781 213.179688 94.863281 C 206.855469 95.191406 204.996094 96.132812 202.898438 96.476562 C 201.644531 96.464844 200.28125 96.851562 199.015625 96.957031 C 197.8125 97.058594 196.730469 96.582031 195.539062 96.332031 C 195 96.214844 194.457031 96.101562 194.007812 95.773438 C 192.550781 94.734375 193.550781 93.582031 194.007812 92.394531 C 194.5 91.109375 193.945312 89.398438 193.148438 88.324219 C 192.429688 87.183594 190.855469 85.109375 189.453125 86.953125 C 189.183594 87.332031 189.023438 87.75 188.824219 88.171875 C 187.984375 89.925781 185.75 89.949219 184.730469 93.09375 C 183.449219 97.039062 185.492188 101.128906 189.066406 103.195312 C 189.726562 103.574219 190.78125 103.925781 191.148438 104.660156 C 191.773438 105.890625 189.492188 106.539062 188.734375 107.046875 C 188.0625 107.496094 187.457031 108.046875 186.785156 108.5 C 186.113281 108.949219 185.40625 109.34375 184.734375 109.792969 C 183.828125 110.402344 183.011719 111.148438 182.105469 111.753906 C 181.195312 112.359375 180.207031 112.84375 179.292969 113.433594 C 173.359375 117.082031 169.363281 119.554688 161.84375 122.125 C 160.804688 122.429688 159.722656 122.554688 158.664062 122.78125 C 157.609375 123.007812 156.574219 123.371094 155.5 123.503906 C 149.132812 123.578125 151.546875 124.136719 142.066406 122.992188 C 140.914062 122.851562 139.734375 122.890625 138.589844 122.734375 C 137.4375 122.570312 136.3125 122.261719 135.167969 122.082031 C 130.773438 121.609375 131.375 121.4375 124.867188 120.339844 C 122.738281 120.089844 120.597656 119.828125 118.46875 119.492188 C 115.492188 118.65625 106.863281 117.804688 102.488281 117.316406 C 93.707031 116.652344 95.550781 117.109375 92.820312 117.222656 C 91.773438 117.265625 90.730469 117.253906 89.683594 117.34375 C 88.644531 117.433594 87.613281 117.640625 86.578125 117.777344 C 85.542969 117.914062 84.472656 117.867188 83.445312 118.046875 C 83 118.125 77.746094 119.296875 77.3125 119.414062 C 76.304688 119.6875 75.363281 120.191406 74.367188 120.507812 C 70.980469 121.582031 72.828125 120.824219 68.46875 122.628906 C 67.5 123.023438 66.46875 123.273438 65.519531 123.714844 C 61.394531 125.632812 61.710938 125.753906 60.007812 126.722656 C 58.21875 127.804688 56.417969 128.875 54.636719 129.972656 C 53.78125 130.566406 53.054688 131.351562 52.222656 131.984375 C 51.386719 132.613281 50.460938 133.132812 49.65625 133.796875 C 46.824219 136.429688 42.238281 140.429688 40.128906 143.597656 C 39.363281 144.574219 38.480469 145.460938 37.800781 146.488281 C 37.125 147.414062 36.703125 148.496094 36.109375 149.460938 C 35.511719 150.429688 34.746094 151.300781 34.234375 152.328125 C 33.074219 154.9375 31.328125 160.378906 30.96875 162.039062 C 30.5 164.378906 30.152344 167.339844 30.070312 168.824219 C 30.015625 169.875 30.273438 170.929688 30.324219 171.988281 C 30.378906 173.039062 30.265625 174.109375 30.417969 175.15625 C 30.570312 176.199219 30.964844 177.195312 31.207031 178.226562 C 31.449219 179.246094 31.734375 180.253906 32.058594 181.265625 C 32.507812 182.679688 32.75 183.941406 34.296875 187.171875 C 35.078125 188.808594 35.101562 189.402344 37.257812 192.773438 C 39.097656 195.308594 41.085938 197.730469 43.0625 200.125 C 44.34375 201.515625 51.085938 207.472656 52.121094 208.222656 C 55.769531 210.667969 58.621094 212.480469 62.5625 214.433594 C 63.453125 214.898438 64.285156 215.5 65.203125 215.949219 C 66.183594 216.421875 67.246094 216.710938 68.25 217.140625 C 70.246094 218 72.25 218.867188 74.273438 219.667969 C 75.304688 220.019531 76.410156 220.136719 77.453125 220.449219 C 78.816406 220.851562 79.863281 221.375 83.734375 222.234375 C 84.796875 222.46875 85.894531 222.535156 86.964844 222.734375 C 88.039062 222.9375 89.078125 223.316406 90.152344 223.480469 C 91.195312 223.636719 92.257812 223.609375 93.296875 223.738281 C 95.511719 224.011719 95.671875 224.289062 102.710938 224.519531 C 107.992188 224.691406 105.875 224.578125 109.007812 224.5 C 110.058594 224.476562 111.113281 224.5625 112.164062 224.511719 C 113.214844 224.457031 114.25 224.230469 115.300781 224.148438 C 116.34375 224.070312 117.414062 224.210938 118.457031 224.105469 C 119.503906 224 120.519531 223.652344 121.558594 223.515625 C 123.894531 223.214844 123.476562 223.714844 133.964844 221.359375 C 135.132812 221.097656 138.253906 220.328125 140.074219 219.839844 C 143.269531 219.3125 148.371094 217.441406 149.554688 216.972656 C 150.386719 216.671875 158.335938 214.335938 162.0625 212.1875 C 163.019531 211.78125 163.964844 211.375 164.902344 210.953125 C 165.84375 210.523438 166.835938 210.21875 167.765625 209.777344 C 168.699219 209.335938 169.605469 208.835938 170.527344 208.371094 C 173.03125 207.3125 177.648438 204.574219 178.65625 203.878906 C 179.601562 203.339844 180.597656 202.882812 181.535156 202.308594 C 182.460938 201.738281 183.339844 201.074219 184.253906 200.472656 C 185.164062 199.871094 186.1875 199.425781 187.089844 198.804688 C 192.050781 195.375 190.5 196.074219 192.265625 194.761719 C 193.613281 193.757812 193.742188 193.957031 197.613281 190.949219 C 198.480469 190.273438 199.222656 189.445312 200.074219 188.773438 C 201.351562 187.769531 201.460938 187.996094 205.25 184.921875 C 206.082031 184.246094 206.855469 183.496094 207.679688 182.804688 C 210.949219 180.085938 208.203125 182.496094 212.578125 178.621094 C 214.117188 177.125 215.699219 175.664062 217.304688 174.242188 C 218.078125 173.496094 218.773438 172.675781 219.527344 171.90625 C 220.304688 171.117188 221.222656 170.484375 221.980469 169.710938 C 225.371094 165.898438 226.125 165.578125 230.753906 159.839844 C 231.464844 158.960938 232.3125 158.195312 233.011719 157.355469 C 234.371094 155.722656 234.800781 153.007812 237.085938 153.847656 C 237.898438 154.144531 238.695312 155.160156 239.421875 155.648438 C 240.332031 156.257812 241.273438 156.914062 242.367188 157.074219 C 243.636719 157.257812 244.980469 156.816406 246.054688 156.109375 C 247.144531 155.394531 248.386719 154.644531 249.054688 153.46875 C 249.570312 152.515625 249.3125 150.351562 248.820312 149.363281 Z M 192.722656 89.945312 C 192.722656 90.222656 192.671875 90.519531 192.535156 90.753906 C 192.078125 91.542969 191.644531 92.378906 191.078125 93.09375 C 189.730469 94.960938 191.714844 97.726562 193.710938 98.132812 C 195.230469 98.523438 195.898438 99.179688 198.730469 98.992188 C 199.734375 98.925781 203.027344 98.023438 203.53125 97.898438 C 207.328125 96.964844 208.339844 96.921875 209.667969 96.65625 C 218.070312 94.863281 226.667969 96.023438 233.320312 102.160156 C 233.898438 102.722656 235.769531 104.332031 236.238281 103.683594 C 236.734375 103.007812 235.167969 102.066406 237.097656 99.589844 C 238.871094 97.3125 240.351562 96.554688 241.894531 94.824219 C 243.9375 92.539062 244.269531 92.082031 245.742188 89.332031 C 246.414062 88.070312 247.089844 85.703125 248.742188 83.46875 C 252.648438 78.796875 258.519531 75.292969 264.585938 78.238281 C 264.585938 78.261719 264.671875 78.128906 264.667969 78.152344 C 264.808594 78.203125 264.878906 78.371094 265.007812 78.429688 C 266.1875 79.171875 267.042969 80.21875 266.882812 81.683594 C 266.542969 84.808594 266.5625 84.523438 266.539062 84.640625 C 265.851562 87.980469 264.011719 88.769531 262.117188 87.945312 C 261.648438 87.492188 261.011719 87.226562 260.445312 86.933594 C 258.082031 85.222656 256.675781 85.578125 254.472656 87.460938 C 252.804688 88.96875 253.21875 89.214844 252.046875 92.140625 C 251.691406 93.023438 251.433594 93.9375 251.019531 94.792969 C 250.605469 95.644531 250.226562 96.519531 249.773438 97.351562 C 249.316406 98.179688 248.742188 98.945312 248.257812 99.757812 C 247.792969 100.539062 247.386719 101.355469 246.859375 102.09375 C 244.949219 104.777344 244.734375 105.011719 244.101562 105.550781 C 243.617188 105.960938 243.144531 106.4375 242.558594 106.679688 C 241.847656 106.980469 241.167969 106.355469 240.4375 106.371094 C 240.023438 106.378906 239.566406 106.605469 239.53125 107.023438 C 239.503906 107.402344 239.863281 107.570312 240.082031 107.828125 C 242.757812 111.625 244.8125 115.457031 245.390625 120.59375 C 245.507812 121.671875 245.34375 122.765625 245.363281 123.84375 C 245.382812 124.917969 245.574219 126.003906 245.511719 127.085938 C 245.03125 132.339844 244.0625 138.136719 241.332031 142.695312 C 240.179688 144.613281 240.1875 146.167969 240.660156 147.683594 C 240.953125 148.625 241.558594 149.023438 242.226562 149.695312 C 242.726562 150.199219 243.160156 151.09375 243.957031 151.09375 C 244.496094 151.09375 245.15625 150.117188 245.65625 150.433594 C 246.109375 150.726562 245.449219 152.832031 243.871094 153.328125 C 241.15625 153.941406 238.273438 152.726562 237.371094 149.929688 C 236.523438 146.742188 238.785156 143.429688 236.125 140.875 C 235.015625 139.007812 234.914062 139.367188 234.554688 137.886719 C 234.003906 135.578125 235.863281 134.417969 235.792969 132.863281 C 235.75 131.941406 235.667969 131.011719 235.660156 130.078125 C 235.652344 129.554688 235.765625 126.921875 235.113281 125.949219 C 234.429688 125.066406 233.097656 125.382812 232.363281 126.058594 C 230.011719 127.96875 228.5625 127.867188 226.539062 128.292969 C 224.449219 128.734375 223.125 128.132812 221.53125 128.132812 C 220.542969 128.132812 219.554688 128.195312 218.566406 128.238281 C 214.921875 128.09375 214.496094 131.40625 214.765625 134.382812 C 214.976562 136.644531 214.210938 137.3125 212.113281 136.09375 C 209.347656 134.578125 209.511719 131.953125 209.207031 130.097656 C 207.960938 125.878906 206.652344 120.394531 210.886719 116.390625 C 212.644531 114.457031 213.964844 113.71875 214.835938 112.457031 C 215.246094 111.875 215.710938 111.15625 216.28125 110.535156 C 216.867188 109.902344 217.4375 109.300781 217.558594 108.554688 C 217.761719 107.023438 216.257812 105.695312 215.066406 104.949219 C 210.605469 102.609375 207.199219 102.578125 203.460938 102.503906 C 202.402344 102.5625 201.347656 102.855469 200.285156 102.875 C 199.246094 102.894531 198.191406 102.671875 197.136719 102.539062 C 195.429688 102.328125 193.664062 102.1875 191.105469 100.78125 C 188.90625 99.570312 186.164062 96.796875 186.867188 94.46875 C 187 94.035156 187.390625 93.71875 187.652344 93.34375 C 187.828125 93.09375 187.785156 92.632812 188.003906 92.421875 C 190.464844 90.386719 189.242188 89.546875 190.59375 88.132812 C 190.726562 88.078125 190.894531 88.160156 191.046875 88.175781 C 191.585938 88.210938 191.910156 88.660156 192.226562 89.089844 C 192.457031 89.355469 192.722656 89.605469 192.722656 89.945312 Z M 95.246094 118.886719 C 97.703125 118.886719 101.929688 119.097656 104.550781 119.660156 C 109.183594 120.257812 109.761719 120.175781 113.796875 121.015625 C 123.203125 123.371094 130.578125 124.84375 134.980469 125.503906 C 138.003906 126.277344 148.125 127.851562 149.953125 128.011719 C 151.363281 128.09375 154.371094 128.070312 156.03125 127.878906 C 164.292969 125.90625 167.605469 125.320312 175.027344 119.605469 C 178.390625 117.769531 181.65625 114.742188 187.089844 111.359375 C 187.703125 110.992188 188.863281 109.953125 190.21875 108.996094 C 190.824219 108.574219 193.578125 106.753906 194.652344 106.375 C 198.839844 104.898438 205.921875 105.167969 207.089844 105.433594 C 209.199219 105.925781 211.328125 107.878906 211.515625 110.292969 C 211.835938 114.488281 205.398438 116.695312 206.148438 124.070312 C 206.304688 125.589844 206.390625 127.027344 207.074219 128.398438 C 207.488281 129.21875 207.699219 130.164062 207.726562 131.074219 C 207.78125 132.722656 206.851562 132.796875 209.246094 135.960938 C 209.804688 136.695312 210.441406 137.316406 211.3125 137.804688 C 212.175781 138.289062 213.074219 138.867188 214.054688 139.121094 C 215.0625 139.523438 216.136719 139.585938 217.023438 139.023438 C 218.015625 138.394531 218.261719 137.164062 218.449219 136.003906 C 218.523438 135.515625 218.6875 135.148438 218.660156 134.664062 C 218.496094 133.414062 218.859375 132.007812 219.960938 131.296875 C 221.425781 130.441406 224.089844 131.765625 225.65625 131.554688 C 226.894531 131.363281 227.824219 130.210938 229.046875 129.925781 C 230.03125 129.695312 231.109375 130.035156 231.929688 130.675781 C 232.453125 131.238281 232.636719 132.0625 232.8125 132.804688 C 233.175781 134.378906 232.972656 135.390625 232.46875 136.835938 C 231.976562 138.261719 232.421875 139.464844 233.480469 140.453125 C 234.785156 141.664062 235.304688 144.1875 234.921875 145.933594 C 234.265625 148.933594 228.617188 157.621094 226.679688 160.097656 C 226.011719 160.953125 225.160156 161.648438 224.460938 162.472656 C 223.765625 163.296875 223.140625 164.1875 222.414062 164.988281 C 221.6875 165.789062 220.890625 166.523438 220.140625 167.300781 C 219.386719 168.078125 218.738281 168.957031 217.964844 169.710938 C 213.902344 173.300781 211.542969 175.515625 205.617188 180.226562 C 204.117188 181.414062 204.5 181.367188 200.609375 184.273438 C 199.753906 184.910156 198.804688 185.414062 197.941406 186.035156 C 197.078125 186.660156 196.316406 187.421875 195.445312 188.035156 C 194.570312 188.644531 193.589844 189.097656 192.710938 189.699219 C 191.835938 190.296875 191.011719 190.984375 190.125 191.578125 C 189.9375 191.703125 184.679688 194.929688 184.671875 194.9375 C 183.765625 195.503906 182.949219 196.222656 182.03125 196.773438 C 181.109375 197.320312 180.117188 197.742188 179.1875 198.269531 C 178.257812 198.796875 177.375 199.417969 176.433594 199.925781 C 175.457031 200.457031 176.195312 200.007812 170.667969 202.742188 C 169.511719 203.316406 168.339844 204.132812 164.949219 205.660156 C 160.769531 207.140625 161.976562 206.980469 156.046875 209.332031 C 150.953125 211.273438 146.621094 212.597656 143.863281 213.378906 C 142.84375 213.695312 141.875 214.199219 140.847656 214.5 C 138.765625 215.011719 136.71875 215.59375 134.652344 216.175781 C 133.617188 216.421875 132.53125 216.449219 131.480469 216.667969 C 129.402344 217.15625 127.300781 217.519531 125.171875 217.753906 C 124.117188 217.90625 123.085938 218.261719 122.019531 218.382812 C 120.960938 218.503906 119.886719 218.527344 118.824219 218.617188 C 117.757812 218.707031 116.695312 218.839844 115.628906 218.894531 C 114.566406 218.957031 113.492188 218.8125 112.421875 218.84375 C 111.355469 218.871094 110.289062 218.886719 109.21875 218.886719 C 108.152344 218.886719 107.082031 219.019531 106.011719 218.992188 C 100.230469 218.839844 102.398438 218.761719 99.621094 218.53125 C 98.558594 218.445312 97.46875 218.554688 96.410156 218.441406 C 95.34375 218.320312 94.304688 218.019531 93.25 217.871094 C 91.667969 217.816406 87.011719 217.003906 83.800781 216.113281 C 82.757812 215.871094 81.695312 215.710938 80.664062 215.4375 C 79.628906 215.160156 78.65625 214.679688 77.640625 214.371094 C 76.613281 214.058594 75.519531 213.96875 74.515625 213.621094 C 73.5 213.273438 72.578125 212.675781 71.585938 212.292969 C 70.582031 211.90625 69.519531 211.695312 68.539062 211.273438 C 63.390625 208.921875 60.324219 206.980469 57.355469 205.046875 C 56.460938 204.457031 55.433594 204.058594 54.574219 203.429688 C 53.707031 202.796875 52.996094 201.96875 52.179688 201.292969 C 50.816406 200.175781 48.640625 199.28125 43.230469 192.183594 C 42.820312 191.640625 40.527344 188.070312 39.792969 186.8125 C 39.136719 185.6875 38.132812 184.464844 36.792969 181.183594 C 36.390625 180.195312 36.128906 179.15625 35.804688 178.144531 C 33.398438 171.734375 33.960938 166.613281 34.371094 162.394531 C 34.90625 158.003906 37.101562 152.148438 38.960938 149.863281 C 40.359375 147.519531 39.316406 148.554688 42.378906 144.6875 C 43.019531 143.871094 43.828125 143.160156 44.535156 142.359375 C 46.550781 140.09375 44.480469 141.535156 51.265625 135.664062 C 52.066406 134.96875 52.785156 134.171875 53.613281 133.519531 C 54.445312 132.851562 55.410156 132.371094 56.253906 131.75 C 57.121094 131.117188 57.886719 130.363281 58.75 129.789062 C 59.773438 129.109375 64.394531 126.492188 66.417969 125.523438 C 68.617188 124.507812 71.992188 123.035156 74.359375 122.488281 C 75.324219 122.175781 76.25 121.734375 77.226562 121.460938 C 78.207031 121.1875 79.246094 121.167969 80.230469 120.933594 C 81.21875 120.699219 82.15625 120.265625 83.152344 120.070312 C 87.257812 119.488281 93.789062 118.6875 95.246094 118.886719 Z M 95.246094 118.886719 " fill-opacity="1" fill-rule="nonzero"/></svg>