<svg xmlns="http://www.w3.org/2000/svg" xmlns:xlink="http://www.w3.org/1999/xlink" width="400" zoomAndPan="magnify" viewBox="0 0 300 299.999988" height="400" preserveAspectRatio="xMidYMid meet" version="1.0"><defs><clipPath id="bbf6d18692"><path d="M 37.648438 30 L 262.648438 30 L 262.648438 270 L 37.648438 270 Z M 37.648438 30 " clip-rule="nonzero"/></clipPath></defs><g clip-path="url(#bbf6d18692)"><path fill="currentColor" d="M 53.953125 206.070312 C 53.941406 206.066406 53.933594 206.0625 53.925781 206.058594 C 53.507812 205.820312 53.050781 205.660156 52.523438 205.519531 C 49.367188 204.769531 46.476562 205.238281 43.699219 206.328125 C 43.160156 206.539062 42.636719 206.792969 42.128906 207.085938 C 41.640625 207.363281 41.140625 207.644531 40.714844 208.023438 C 40.316406 208.382812 40.03125 208.769531 39.707031 209.195312 C 38.925781 210.214844 38.382812 211.105469 37.648438 212.144531 L 38.273438 213.054688 C 39.582031 212.734375 40.667969 212.527344 41.96875 212.136719 C 42.472656 211.988281 42.945312 211.882812 43.414062 211.652344 C 44.269531 211.230469 45.015625 210.640625 45.820312 210.160156 C 47.003906 209.457031 48.132812 208.734375 49.464844 208.339844 C 50.359375 208.074219 51.269531 207.867188 52.28125 207.839844 C 52.625 207.820312 52.933594 207.816406 53.234375 207.878906 C 53.53125 207.941406 53.808594 208.023438 54.082031 208.113281 C 54.175781 208.675781 54.320312 209.234375 54.503906 209.785156 C 54.097656 209.976562 53.679688 210.121094 53.246094 210.269531 C 52.058594 210.679688 50.835938 210.945312 49.65625 211.261719 C 48 211.726562 46.191406 212.199219 44.398438 212.890625 C 43.804688 213.121094 43.222656 213.378906 42.65625 213.675781 C 42.078125 213.980469 41.507812 214.3125 40.996094 214.710938 C 40.640625 214.988281 40.292969 215.269531 40.011719 215.621094 C 38.78125 217.164062 38.109375 218.710938 37.808594 220.605469 L 38.785156 221.117188 C 39.144531 220.761719 39.492188 220.503906 39.90625 220.214844 C 40.5625 219.761719 41.222656 219.601562 41.960938 219.25 C 42.402344 219.042969 42.84375 218.917969 43.277344 218.671875 C 43.753906 218.40625 44.199219 218.074219 44.667969 217.773438 C 45.148438 217.460938 45.621094 217.140625 46.105469 216.832031 C 47.714844 215.804688 49.308594 214.851562 50.792969 214.019531 C 51.738281 213.480469 52.726562 212.980469 53.667969 212.375 C 54.1875 212.042969 54.679688 211.699219 55.140625 211.316406 C 55.507812 212.0625 55.953125 212.785156 56.464844 213.472656 C 56.398438 213.523438 56.332031 213.574219 56.265625 213.628906 C 55.074219 214.558594 53.839844 215.972656 52.640625 216.671875 C 51.25 217.515625 49.734375 218.175781 48.207031 218.945312 C 47.691406 219.207031 47.175781 219.46875 46.675781 219.769531 C 46.164062 220.074219 45.679688 220.421875 45.199219 220.769531 C 45.054688 220.875 44.894531 220.972656 44.765625 221.097656 C 44.441406 221.414062 44.175781 221.742188 43.929688 222.113281 C 43.03125 223.460938 42.460938 224.648438 42.023438 226.183594 L 42.917969 226.828125 C 44.074219 226.050781 45.1875 225.75 46.488281 225.195312 C 46.839844 225.042969 47.179688 224.929688 47.515625 224.738281 C 47.652344 224.65625 47.769531 224.554688 47.898438 224.457031 C 48.546875 223.96875 49.207031 223.496094 49.851562 222.992188 C 51.503906 221.699219 53.046875 220.351562 54.4375 218.921875 C 54.753906 218.59375 55.078125 218.230469 55.367188 217.800781 C 56.070312 216.761719 56.667969 215.476562 57.34375 214.546875 C 58.042969 215.320312 58.820312 216.023438 59.65625 216.632812 C 59.527344 216.800781 59.515625 216.898438 59.363281 217.128906 C 59.328125 217.1875 59.273438 217.199219 59.226562 217.164062 C 59.152344 217.109375 59.082031 217.039062 59.140625 216.988281 C 58.878906 217.222656 58.667969 217.117188 58.429688 217.378906 C 58.347656 217.46875 58.191406 217.53125 58.203125 217.65625 C 58.261719 218.394531 58.46875 217.789062 58.964844 218.335938 C 59.441406 218.867188 59.085938 218.386719 59.558594 218.917969 L 60.554688 219.390625 C 61.898438 219.457031 60.761719 219.511719 62.097656 219.3125 C 62.363281 219.273438 62.355469 219.328125 62.527344 219.125 C 62.636719 219 62.636719 218.800781 62.613281 218.636719 C 62.589844 218.503906 62.570312 218.390625 62.550781 218.289062 C 64.074219 218.9375 65.664062 219.277344 67.195312 219.230469 C 67.257812 219.230469 67.320312 219.226562 67.378906 219.222656 C 66.992188 219.6875 66.632812 220.167969 66.304688 220.667969 C 65.800781 221.449219 65.421875 222.3125 65.15625 223.230469 C 64.890625 223.082031 64.632812 222.960938 64.441406 222.917969 C 63.738281 222.757812 63.058594 222.667969 62.34375 222.613281 C 61.632812 222.558594 60.941406 222.585938 60.222656 222.621094 C 58.261719 222.730469 56.527344 223.035156 54.882812 223.652344 C 54.152344 223.929688 53.4375 224.261719 52.796875 224.710938 C 52.539062 224.890625 52.300781 225.085938 52.089844 225.320312 C 51.9375 225.488281 51.828125 225.636719 51.699219 225.828125 C 50.972656 226.890625 50.457031 227.761719 49.808594 228.984375 L 50.503906 229.835938 C 51.757812 229.46875 52.695312 229.300781 53.878906 229.03125 C 54.074219 228.988281 54.238281 228.976562 54.425781 228.914062 C 54.679688 228.832031 54.917969 228.742188 55.15625 228.625 C 55.535156 228.433594 55.890625 228.207031 56.253906 227.996094 C 56.617188 227.785156 56.964844 227.558594 57.335938 227.34375 C 58.421875 226.714844 59.503906 226.09375 60.816406 225.628906 C 61.398438 225.417969 61.957031 225.230469 62.550781 225.085938 C 63.148438 224.9375 63.722656 224.796875 64.34375 224.722656 C 64.46875 224.707031 64.640625 224.726562 64.824219 224.765625 C 64.554688 226.597656 64.695312 228.558594 65.210938 230.421875 C 64.605469 230.335938 64.101562 230.285156 63.921875 230.269531 C 61.007812 230.089844 58.589844 230.972656 56.40625 232.449219 C 55.75 232.894531 55.113281 233.402344 54.574219 234.007812 C 54.441406 234.15625 54.328125 234.3125 54.222656 234.484375 C 54.0625 234.75 53.9375 234.992188 53.808594 235.277344 C 53.289062 236.457031 53.007812 237.421875 52.53125 238.625 L 53.324219 239.394531 C 54.765625 238.75 55.96875 238.355469 57.332031 237.578125 C 57.492188 237.484375 57.640625 237.382812 57.78125 237.261719 C 58.3125 236.804688 58.789062 236.292969 59.289062 235.820312 C 60.679688 234.5 62.035156 233.230469 64.121094 232.765625 C 64.332031 232.710938 65.105469 232.503906 65.90625 232.359375 C 65.96875 232.5 66.035156 232.640625 66.101562 232.78125 C 66.265625 233.121094 66.445312 233.453125 66.636719 233.777344 C 66.558594 233.886719 66.480469 233.984375 66.398438 234.050781 C 65.933594 234.421875 65.433594 234.714844 64.917969 235.03125 C 64.390625 235.351562 63.867188 235.632812 63.332031 235.914062 C 62.101562 236.570312 60.832031 237.042969 59.558594 237.613281 C 59.121094 237.808594 58.691406 238.003906 58.269531 238.230469 C 57.84375 238.460938 57.410156 238.691406 57.019531 238.980469 C 56.746094 239.183594 56.492188 239.394531 56.269531 239.652344 C 55.265625 240.820312 54.714844 241.894531 54.046875 243.296875 L 54.785156 244.117188 C 55.96875 243.707031 56.914062 243.582031 58.128906 243.308594 C 58.324219 243.265625 58.496094 243.246094 58.6875 243.179688 C 58.949219 243.089844 59.195312 242.984375 59.441406 242.855469 C 59.847656 242.640625 60.230469 242.382812 60.613281 242.128906 C 61.007812 241.863281 61.386719 241.578125 61.761719 241.285156 C 62.953125 240.363281 64.058594 239.414062 65.128906 238.351562 C 65.699219 237.78125 66.265625 237.222656 66.777344 236.582031 C 67.113281 236.164062 67.421875 235.757812 67.703125 235.308594 C 68.339844 236.09375 69.058594 236.785156 69.859375 237.355469 C 69.507812 238.058594 69.121094 238.679688 68.988281 238.898438 C 67.972656 240.679688 66.242188 241.507812 64.578125 242.570312 C 63.945312 242.972656 63.296875 243.375 62.730469 243.871094 C 62.578125 244.007812 62.445312 244.152344 62.320312 244.3125 C 62.125 244.5625 61.964844 244.785156 61.808594 245.058594 C 61.125 246.246094 60.652344 247.183594 60.316406 248.507812 L 61.195312 249.171875 C 62.453125 248.421875 63.636719 248.304688 65.007812 247.757812 C 65.171875 247.695312 65.324219 247.621094 65.472656 247.527344 C 66.082031 247.132812 66.636719 246.664062 67.171875 246.179688 C 69.113281 244.425781 70.71875 242.472656 71.351562 239.828125 C 71.398438 239.601562 71.519531 239.027344 71.621094 238.359375 C 73.125 239.011719 74.816406 239.265625 76.640625 238.984375 C 78.070312 238.714844 80.34375 237.386719 82.839844 235.226562 C 85.589844 232.851562 88.796875 229.554688 91.753906 226.414062 C 89.96875 228.875 88.09375 231.527344 86.535156 234.09375 C 85.035156 236.566406 83.835938 238.976562 83.226562 241.089844 C 83.140625 241.386719 83.078125 241.679688 83.03125 241.96875 C 81.710938 240.792969 79.917969 240.800781 78 241.09375 C 77.410156 241.183594 76.851562 241.347656 76.296875 241.59375 C 75.953125 241.742188 75.597656 241.902344 75.34375 242.167969 C 75.109375 242.414062 75.019531 242.632812 74.886719 242.933594 C 74.480469 243.84375 74.441406 244.238281 74.175781 245.015625 L 74.789062 245.929688 C 75.691406 245.972656 76.140625 246.15625 77.246094 246.054688 C 77.488281 246.035156 77.703125 246.011719 77.9375 245.914062 C 78.160156 245.820312 78.359375 245.667969 78.558594 245.527344 C 78.761719 245.386719 78.925781 245.21875 79.117188 245.070312 C 80.371094 244.070312 81.488281 243.019531 82.976562 243.664062 C 83.089844 244.894531 83.527344 246.070312 84.203125 247.152344 C 84.015625 247.300781 83.8125 247.433594 83.601562 247.570312 C 83.269531 247.785156 82.910156 247.917969 82.546875 248.050781 C 80.625 248.808594 78.820312 249.113281 77.109375 249.703125 C 76.234375 250.007812 75.410156 250.394531 74.621094 250.863281 C 74.347656 251.027344 74.066406 251.195312 73.828125 251.414062 C 73.578125 251.640625 73.347656 251.867188 73.164062 252.15625 C 72.363281 253.421875 71.914062 254.605469 71.683594 256.4375 L 72.644531 256.980469 C 73.824219 256.058594 74.832031 255.859375 75.941406 255.363281 C 76.152344 255.269531 76.359375 255.199219 76.554688 255.082031 C 76.746094 254.964844 76.921875 254.828125 77.101562 254.703125 C 77.695312 254.289062 78.292969 253.898438 78.917969 253.515625 C 80.515625 252.535156 82.128906 251.570312 83.808594 250.246094 C 84.238281 249.890625 84.652344 249.53125 84.996094 249.085938 C 85.113281 248.933594 85.226562 248.78125 85.332031 248.625 C 85.769531 249.101562 86.25 249.550781 86.773438 249.964844 C 86.273438 251.125 85.613281 252.621094 85.382812 252.886719 C 83.898438 254.695312 81.894531 255.832031 80.113281 257.320312 C 79.4375 257.882812 78.769531 258.472656 78.238281 259.164062 C 78.09375 259.351562 77.976562 259.542969 77.871094 259.753906 C 77.710938 260.074219 77.574219 260.355469 77.460938 260.691406 C 77.003906 262.054688 76.703125 263.191406 76.6875 264.703125 L 77.71875 265.101562 C 78.761719 263.910156 79.941406 263.441406 81.164062 262.5625 C 81.386719 262.40625 81.589844 262.238281 81.785156 262.050781 C 82.25 261.605469 82.6875 261.128906 83.121094 260.644531 C 84.867188 258.691406 86.507812 256.691406 87.628906 254.300781 C 87.730469 254.066406 87.9375 253.351562 88.054688 252.4375 C 88.113281 251.964844 88.167969 251.453125 88.21875 250.960938 L 88.234375 250.972656 C 89.53125 251.746094 90.960938 252.308594 92.398438 252.628906 C 92.375 252.738281 92.351562 252.851562 92.328125 252.964844 C 92.066406 254.136719 91.398438 255.339844 91.054688 255.894531 C 90.1875 257.324219 89.03125 258.59375 87.976562 259.976562 C 87.597656 260.476562 87.234375 260.976562 86.910156 261.503906 C 86.5625 262.070312 86.273438 262.660156 86.023438 263.261719 C 85.921875 263.515625 85.804688 263.765625 85.746094 264.035156 C 85.648438 264.460938 85.589844 264.867188 85.605469 265.300781 C 85.664062 266.976562 85.9375 268.386719 86.953125 269.976562 L 88.027344 269.734375 C 88.085938 269.21875 88.203125 268.816406 88.34375 268.359375 C 88.574219 267.601562 89.003906 267.132812 89.402344 266.492188 C 89.503906 266.328125 89.632812 266.21875 89.722656 266.050781 C 89.851562 265.820312 89.992188 265.605469 90.105469 265.367188 C 90.324219 264.890625 90.523438 264.402344 90.746094 263.917969 C 90.984375 263.394531 91.203125 262.871094 91.441406 262.34375 C 92.25 260.566406 93.082031 258.832031 93.621094 257.03125 C 93.839844 256.253906 94.207031 254.585938 94.109375 253.101562 C 94.101562 253.027344 94.097656 252.957031 94.089844 252.886719 C 95.007812 252.964844 95.90625 252.9375 96.753906 252.796875 C 97.527344 253.578125 98.609375 253.824219 99.457031 254.476562 C 99.785156 254.734375 99.925781 255.136719 100.015625 255.761719 C 100.109375 256.347656 99.929688 257 99.757812 257.730469 C 99.484375 258.882812 98.992188 260.089844 98.675781 261.328125 C 98.371094 262.511719 98.171875 263.699219 98.257812 264.757812 C 98.308594 265.398438 98.40625 266.015625 98.6875 266.527344 C 98.941406 266.992188 99.144531 267.414062 99.542969 267.738281 C 100.667969 268.648438 101.898438 269.453125 104.210938 268.855469 L 104.3125 267.757812 C 103.585938 267.429688 103.207031 267.03125 102.835938 266.617188 C 102.6875 266.457031 102.722656 266.253906 102.644531 266.074219 C 102.59375 265.964844 102.707031 265.863281 102.679688 265.753906 C 102.617188 265.523438 102.816406 265.320312 102.8125 265.070312 C 102.8125 264.957031 102.839844 264.839844 102.832031 264.722656 C 102.8125 264.15625 102.839844 263.539062 102.882812 262.890625 C 103.066406 260.078125 103.480469 256.9375 102.65625 254.992188 C 102.238281 254.054688 101.792969 253.425781 101.203125 253.039062 C 100.605469 252.648438 99.984375 252.429688 99.300781 252.304688 C 99.109375 252.269531 98.914062 252.242188 98.722656 252.214844 C 98.914062 252.125 99.101562 252.03125 99.28125 251.929688 C 100.445312 251.265625 101.5 250.320312 102.464844 249.242188 C 103.707031 247.855469 104.789062 246.242188 105.777344 244.882812 C 107.078125 243.085938 108.308594 241.230469 109.503906 239.339844 C 112.207031 235.058594 114.710938 230.605469 117.488281 226.402344 C 120.226562 222.210938 122.984375 218.035156 125.683594 213.820312 C 128.375 209.613281 131.003906 205.371094 133.726562 201.183594 C 138.4375 193.710938 143.277344 186.128906 147.832031 178.402344 C 150.878906 173.234375 153.796875 168.019531 156.4375 162.722656 L 155.46875 162.199219 C 152.519531 167.285156 149.308594 172.285156 145.957031 177.214844 C 140.925781 184.605469 135.59375 191.8125 130.410156 198.933594 C 128.085938 202.210938 125.765625 205.484375 123.523438 208.820312 C 120.171875 213.804688 116.957031 218.878906 113.667969 223.90625 C 110.914062 228.167969 108.421875 232.664062 105.757812 237.015625 C 104.640625 238.839844 103.492188 240.644531 102.273438 242.386719 C 101.386719 243.65625 100.425781 245.171875 99.308594 246.472656 C 98.667969 247.21875 97.984375 247.898438 97.203125 248.363281 C 95.34375 249.476562 92.484375 248.871094 90.210938 247.582031 C 88.019531 246.335938 86.179688 244.378906 86.785156 242.074219 C 87.273438 240.207031 88.300781 238.082031 89.5625 235.882812 C 92.464844 230.828125 96.585938 225.433594 98.894531 221.78125 C 104.25 213.308594 109.648438 204.804688 115.117188 196.351562 C 118.761719 190.714844 122.429688 185.101562 126.152344 179.554688 C 127.960938 176.859375 129.660156 174.136719 131.289062 171.367188 C 132.917969 168.605469 134.476562 165.804688 135.996094 162.949219 C 135.996094 162.949219 139.191406 157.273438 139.191406 157.273438 C 139.191406 157.273438 140.25 155.425781 140.25 155.425781 C 140.320312 155.296875 140.351562 154.960938 140.410156 154.742188 C 140.585938 154.726562 140.699219 154.652344 140.5625 154.558594 C 140.488281 154.511719 140.445312 154.601562 140.410156 154.742188 C 140.25 154.757812 140.039062 154.722656 139.917969 154.609375 L 140.683594 153.816406 C 140.285156 153.421875 139.945312 153.507812 139.648438 153.933594 C 139.507812 154.128906 139.402344 154.632812 139.269531 154.855469 C 139.269531 154.855469 138.171875 156.675781 138.171875 156.675781 C 138.171875 156.675781 134.820312 162.304688 134.820312 162.304688 C 134.445312 162.964844 134.066406 163.625 133.6875 164.28125 C 132.273438 165.605469 129.671875 167.964844 126.644531 170.671875 C 119.949219 176.664062 111.199219 184.367188 108.742188 186.511719 C 104.121094 190.570312 99.410156 194.535156 94.632812 198.417969 C 92.074219 200.492188 89.5 202.542969 86.910156 204.570312 C 87.984375 203.402344 89.054688 202.234375 90.136719 201.078125 C 92.207031 198.839844 94.355469 196.726562 96.507812 194.640625 C 98.042969 193.15625 99.585938 191.691406 101.125 190.222656 C 104.742188 186.777344 108.355469 183.339844 111.953125 179.757812 C 117.070312 174.640625 121.855469 169.210938 126.980469 164.113281 C 129.164062 161.941406 131.410156 159.839844 133.757812 157.839844 L 133.070312 156.976562 C 130.574219 158.851562 128.1875 160.839844 125.835938 162.878906 C 120.382812 167.613281 115.199219 172.640625 109.730469 177.363281 C 105.050781 181.453125 100.273438 185.222656 95.703125 189.289062 C 92.628906 192.023438 89.675781 194.910156 86.792969 197.960938 C 84.199219 200.75 81.640625 203.601562 78.949219 206.3125 C 77.199219 208.074219 75.398438 209.777344 73.46875 211.339844 C 72.226562 212.351562 70.953125 213.457031 69.523438 214.195312 C 68.746094 214.59375 67.921875 214.890625 67.019531 214.9375 C 64.660156 215.058594 62.136719 213.679688 60.324219 211.738281 C 58.542969 209.832031 57.367188 207.347656 58.035156 204.988281 C 58.347656 203.875 59.121094 202.796875 60.027344 201.777344 C 61.601562 200.007812 63.589844 198.414062 65.003906 197.152344 C 73.917969 189.203125 82.855469 181.273438 91.726562 173.257812 C 97.640625 167.917969 103.523438 162.542969 109.367188 157.121094 C 114.820312 152.054688 119.914062 146.835938 125.324219 141.859375 C 127.621094 139.746094 129.976562 137.675781 132.4375 135.679688 L 131.753906 134.816406 C 129.21875 136.761719 126.796875 138.785156 124.421875 140.851562 C 118.878906 145.675781 113.628906 150.734375 108.03125 155.640625 C 100.546875 162.203125 93 168.683594 85.429688 175.136719 C 77.851562 181.597656 70.257812 188.03125 62.667969 194.464844 C 61.128906 195.769531 58.984375 197.417969 57.265625 199.253906 C 55.90625 200.703125 54.828125 202.285156 54.328125 203.890625 C 54.105469 204.609375 53.984375 205.335938 53.953125 206.070312 Z M 131.386719 168.167969 C 129.636719 169.886719 127.488281 171.980469 125.234375 174.167969 C 119.265625 179.964844 112.546875 186.433594 110.476562 188.410156 C 105.980469 192.667969 101.398438 196.828125 96.742188 200.914062 C 92.085938 205 87.359375 209.003906 82.578125 212.9375 C 79.726562 215.269531 75.988281 217.265625 73.007812 219.820312 C 71.871094 220.796875 70.855469 221.859375 70.09375 223.089844 C 68.746094 225.21875 69.023438 228.324219 70.21875 230.796875 C 70.808594 232.019531 71.648438 233.089844 72.695312 233.8125 C 73.636719 234.460938 74.75 234.851562 76.03125 234.699219 C 76.65625 234.636719 77.507812 234.1875 78.542969 233.550781 C 79.851562 232.753906 81.367188 231.691406 82.96875 230.460938 C 88.058594 226.546875 94 221.160156 97.515625 218.222656 C 102.667969 210.484375 107.847656 202.71875 113.109375 195.019531 C 116.90625 189.464844 120.742188 183.953125 124.621094 178.496094 C 126.480469 175.882812 128.238281 173.234375 129.925781 170.539062 C 130.417969 169.75 130.902344 168.960938 131.386719 168.167969 Z M 161.355469 151.816406 L 161.464844 151.914062 C 164.539062 148.546875 171.371094 142.136719 176.121094 137.324219 C 177.558594 135.867188 178.808594 134.554688 179.714844 133.515625 C 185.804688 126.476562 191.886719 119.398438 198.035156 112.382812 C 202.128906 107.707031 206.246094 103.0625 210.425781 98.484375 C 212.152344 96.59375 213.886719 94.707031 215.640625 92.839844 C 217.394531 90.976562 219.160156 89.128906 220.949219 87.304688 C 222.136719 86.089844 223.734375 84.835938 225.023438 83.480469 C 225.703125 82.765625 226.300781 82.015625 226.761719 81.246094 C 226.996094 80.855469 227.222656 80.023438 226.878906 78.917969 C 226.800781 78.667969 226.683594 78.375 226.542969 78.046875 C 226.660156 77.984375 226.765625 77.929688 226.847656 77.890625 C 226.847656 77.890625 229.894531 76.511719 229.894531 76.511719 C 230.195312 76.371094 231.375 75.378906 232.289062 74.863281 C 232.359375 75.023438 232.457031 75.203125 232.5 75.359375 C 232.683594 76.027344 232.847656 76.667969 232.933594 76.910156 C 233.160156 77.5 233.601562 78.308594 234.128906 79.207031 C 234.449219 79.757812 234.785156 80.367188 235.117188 80.96875 C 235.257812 81.21875 235.433594 81.4375 235.574219 81.683594 C 235.664062 81.847656 235.808594 81.953125 235.894531 82.117188 C 236.035156 82.386719 236.273438 82.558594 236.34375 82.847656 C 236.410156 83.113281 236.542969 83.34375 236.546875 83.617188 C 236.453125 83.617188 236.390625 83.621094 236.371094 83.625 C 235.847656 83.632812 235.214844 83.847656 234.554688 84.246094 C 233.382812 84.953125 231.957031 86.472656 231.289062 86.988281 C 229.472656 88.390625 227.664062 89.796875 225.878906 91.230469 C 224.082031 92.675781 222.3125 94.15625 220.570312 95.675781 C 218.664062 97.359375 216.753906 99.046875 214.886719 100.785156 C 212.09375 103.382812 209.324219 106.015625 206.65625 108.75 C 205.769531 109.664062 204.902344 110.59375 204.050781 111.539062 C 202.050781 113.753906 200.148438 116.023438 198.222656 118.289062 C 195.601562 121.386719 194.0625 123.027344 192.511719 125.210938 C 191.632812 126.445312 190.746094 127.832031 189.679688 129.753906 C 189.613281 129.789062 189.550781 129.824219 189.488281 129.859375 C 187.097656 131.179688 184.679688 132.730469 181.886719 134.886719 L 182.53125 135.78125 C 185.390625 133.851562 187.832031 132.480469 190.246094 131.355469 C 194.046875 129.585938 197.757812 128.4375 202.824219 126.640625 C 206.191406 125.449219 209.707031 124.460938 213.296875 123.558594 C 217.417969 122.519531 221.628906 121.640625 225.808594 120.753906 C 227.925781 120.304688 230.03125 119.855469 232.113281 119.378906 C 234.25 118.894531 236.351562 118.367188 238.417969 117.84375 C 240.246094 117.382812 242.082031 116.953125 243.925781 116.546875 C 245.769531 116.144531 247.621094 115.769531 249.476562 115.417969 L 253.382812 114.664062 C 253.382812 114.664062 255.761719 114.183594 255.761719 114.183594 C 255.984375 114.136719 256.238281 114.160156 256.449219 114.167969 C 256.53125 114.507812 256.632812 114.949219 256.699219 115.351562 C 256.699219 115.351562 257.132812 117.796875 257.132812 117.796875 C 257.277344 118.519531 257.625 119.425781 257.875 120.304688 L 257.921875 120.480469 C 257.601562 120.605469 257.191406 120.757812 256.867188 120.84375 C 255.707031 121.152344 254.546875 121.355469 254.171875 121.46875 C 251.269531 122.347656 248.371094 123.230469 245.480469 124.144531 C 242.585938 125.058594 239.699219 126.003906 236.824219 126.984375 C 228.96875 129.652344 221.0625 132.128906 213.320312 135.042969 C 208.125 137 203.003906 139.148438 198.023438 141.679688 C 194.585938 143.433594 191.300781 145.375 188.109375 147.457031 C 183.347656 150.566406 178.796875 153.96875 174.242188 157.457031 L 155.609375 172.320312 L 156.277344 173.195312 L 175.304688 158.886719 C 179.921875 155.574219 184.535156 152.34375 189.339844 149.402344 C 192.515625 147.460938 195.777344 145.644531 199.179688 144.027344 C 204.128906 141.664062 209.207031 139.683594 214.351562 137.894531 C 222.136719 135.1875 230.070312 132.925781 237.960938 130.472656 C 240.261719 129.757812 242.566406 129.070312 244.878906 128.394531 C 248.351562 127.378906 251.832031 126.398438 255.320312 125.4375 C 255.980469 125.253906 258.867188 124.820312 260.351562 124.0625 C 261.605469 123.417969 262.183594 122.433594 262.28125 121.558594 C 262.34375 120.984375 262.285156 120.335938 262.140625 119.664062 C 261.941406 118.75 261.539062 117.761719 261.402344 116.996094 C 261.402344 116.996094 261.027344 114.652344 261.027344 114.652344 C 260.730469 112.6875 260.3125 111.492188 259.726562 110.804688 C 258.886719 109.8125 257.558594 109.242188 254.835938 109.792969 C 254.835938 109.792969 252.554688 110.222656 252.554688 110.222656 L 249.191406 110.839844 C 249.363281 110.703125 249.535156 110.566406 249.707031 110.429688 C 250.460938 109.828125 251.21875 109.246094 251.914062 108.585938 C 252.875 107.671875 253.714844 106.683594 254.5 105.8125 C 255.121094 105.125 255.667969 104.46875 256.15625 103.917969 C 256.570312 103.433594 258.144531 102.054688 258.910156 101.003906 C 259.457031 100.253906 259.75 99.566406 259.753906 99.085938 C 259.765625 98.3125 259.472656 97.308594 258.753906 96.355469 C 257.804688 95.097656 256.277344 93.769531 255.617188 93.1875 C 255.136719 92.757812 254.609375 92.324219 254.035156 91.953125 C 253.441406 91.570312 252.828125 91.230469 252.203125 90.992188 C 251.332031 90.671875 250.1875 90.765625 248.972656 91.429688 C 248.070312 91.921875 247.09375 92.671875 246.171875 93.539062 C 245.992188 93.183594 245.753906 92.816406 245.46875 92.449219 C 244.609375 91.359375 243.261719 90.222656 242.691406 89.605469 C 242.359375 89.246094 239.714844 86.320312 238.414062 84.90625 C 239.386719 83.9375 239.601562 82.808594 239.691406 81.511719 C 239.75 80.667969 239.550781 79.832031 239.246094 79.003906 C 238.9375 78.171875 238.414062 77.429688 237.941406 76.757812 C 237.46875 76.085938 236.960938 75.558594 236.714844 75.125 C 236.503906 74.78125 235.929688 73.425781 235.390625 72.699219 C 234.886719 72.023438 234.375 71.589844 233.949219 71.496094 C 233.464844 71.390625 232.636719 71.351562 231.773438 71.886719 C 230.644531 72.585938 229.070312 74.105469 228.636719 74.4375 C 228.636719 74.4375 225.984375 76.566406 225.984375 76.566406 C 225.953125 76.59375 225.914062 76.621094 225.871094 76.652344 C 225.15625 75.242188 224.332031 73.785156 224.171875 73.378906 C 224.074219 73.125 223.878906 72.535156 223.621094 72.085938 C 223.359375 71.625 223.015625 71.269531 222.675781 71.03125 C 221.949219 70.527344 221.136719 70.414062 220.242188 70.78125 C 219.535156 71.070312 218.816406 71.5625 218.125 72.175781 C 218.09375 72.203125 218.0625 72.230469 218.03125 72.257812 C 217.898438 71.964844 217.71875 71.691406 217.527344 71.410156 C 217.023438 70.660156 216.367188 69.996094 215.878906 69.320312 C 215.28125 68.496094 214.328125 66.738281 213.238281 65.542969 C 212.375 64.597656 211.316406 64.207031 210.464844 64.054688 C 209.753906 63.964844 208.933594 64.191406 208.097656 64.675781 C 206.691406 65.488281 205.183594 67.519531 204.484375 68.257812 C 203.84375 68.996094 203.210938 69.734375 202.585938 70.484375 C 203.15625 68.613281 203.765625 66.683594 204.332031 64.695312 C 204.601562 63.746094 204.832031 62.785156 205.046875 61.816406 C 205.476562 59.867188 205.835938 57.902344 206.1875 55.976562 C 206.75 52.875 207.195312 49.859375 207.59375 47.085938 C 207.722656 46.136719 208.074219 44.796875 208.125 43.597656 C 208.160156 42.847656 208.113281 42.140625 207.90625 41.542969 C 207.53125 40.476562 206.511719 39.476562 205.121094 38.925781 C 203.40625 38.246094 201.289062 38.144531 200.164062 38.738281 C 198.710938 39.511719 197.644531 40.6875 196.867188 42.113281 C 195.855469 43.964844 195.304688 46.171875 194.699219 48.03125 C 194.589844 48.359375 194.386719 49.519531 194.117188 50.511719 C 194.011719 50.894531 193.902344 51.25 193.773438 51.496094 C 193.742188 51.554688 193.765625 51.625 193.734375 51.640625 L 193.808594 51.828125 C 193.726562 51.796875 193.644531 51.769531 193.558594 51.742188 L 187.621094 50.300781 C 187.582031 50.289062 187.085938 50.210938 186.703125 50.085938 C 186.972656 48.769531 187.480469 47.136719 187.5625 45.660156 C 187.628906 44.527344 187.484375 43.464844 187.046875 42.554688 C 186.539062 41.5 185.78125 40.570312 184.867188 39.734375 C 183.273438 38.277344 181.152344 37.132812 179.726562 35.769531 C 178.832031 34.917969 177.277344 32.523438 175.835938 31.304688 C 175.097656 30.679688 174.347656 30.289062 173.675781 30.171875 C 172.824219 30.019531 172.058594 30.285156 171.503906 31.054688 C 171.109375 31.601562 170.875 32.855469 170.820312 33.175781 C 170.820312 33.175781 169.992188 38.738281 169.992188 38.738281 C 169.246094 44.296875 168.707031 49.871094 167.921875 55.414062 C 167.585938 57.761719 167.210938 60.105469 166.753906 62.4375 C 165.152344 70.578125 163.214844 78.671875 161.117188 86.742188 C 157.960938 98.863281 154.433594 110.914062 151.035156 122.898438 C 149.992188 126.578125 149.019531 130.273438 147.960938 133.945312 C 147.257812 136.378906 146.519531 138.804688 145.695312 141.210938 C 145.695312 141.210938 143.617188 146.796875 143.617188 146.796875 L 142.835938 148.792969 C 142.804688 148.871094 142.582031 149.414062 142.484375 149.628906 C 142.285156 150.0625 143.175781 149.640625 143.289062 149.558594 L 142.566406 150.363281 C 142.597656 150.394531 143.21875 150.636719 143.480469 150.101562 C 143.589844 149.878906 143.835938 149.3125 143.871094 149.230469 C 143.871094 149.230469 144.707031 147.230469 144.707031 147.230469 L 146.921875 141.644531 C 147.804688 139.238281 148.605469 136.808594 149.375 134.371094 C 150.519531 130.722656 151.585938 127.054688 152.71875 123.398438 C 156.410156 111.480469 160.246094 99.503906 163.671875 87.4375 C 165.964844 79.359375 168.066406 71.242188 169.84375 63.078125 C 170.363281 60.699219 170.796875 58.308594 171.191406 55.914062 C 172.09375 50.378906 172.75 44.808594 173.609375 39.261719 L 174.296875 35.269531 C 175.328125 36.515625 176.3125 37.980469 176.957031 38.621094 C 178.371094 40.023438 180.492188 41.226562 182.074219 42.730469 C 182.582031 43.207031 183.019531 43.722656 183.292969 44.316406 C 183.503906 44.777344 183.410156 45.34375 183.320312 45.921875 C 183.09375 47.378906 182.550781 48.90625 182.363281 50.0625 C 182.113281 51.636719 181.910156 53.214844 181.734375 54.800781 C 181.335938 58.40625 181.070312 62.027344 180.625 65.625 C 179.636719 74.035156 178.539062 82.527344 177.207031 90.972656 C 176.542969 95.167969 175.8125 99.351562 175 103.507812 C 174.1875 107.679688 173.324219 111.824219 172.261719 115.917969 C 171.316406 119.648438 170.171875 123.308594 168.914062 126.933594 C 167.003906 132.433594 164.855469 137.84375 162.824219 143.296875 C 161.695312 146.300781 160.796875 149.40625 159.6875 152.425781 C 159.21875 153.703125 158.707031 154.960938 158.128906 156.195312 L 159.117188 156.6875 C 159.769531 155.457031 160.351562 154.1875 160.898438 152.90625 C 161.054688 152.542969 161.207031 152.179688 161.355469 151.816406 Z M 162.398438 149.207031 C 165.757812 145.542969 170.996094 140.234375 174.824219 136.085938 C 176.179688 134.617188 177.355469 133.292969 178.199219 132.246094 C 184.0625 125.011719 189.910156 117.726562 195.835938 110.515625 C 199.796875 105.699219 203.796875 100.921875 207.851562 96.203125 C 209.53125 94.25 211.21875 92.300781 212.925781 90.367188 C 214.636719 88.429688 216.363281 86.507812 218.113281 84.605469 C 219.253906 83.371094 220.796875 82.09375 222.039062 80.71875 C 222.304688 80.417969 222.554688 80.117188 222.777344 79.804688 C 222.296875 78.671875 221.257812 76.921875 220.640625 75.84375 C 219.75 76.753906 218.910156 77.816406 218.203125 78.5 C 216.375 80.242188 214.589844 82.027344 212.84375 83.847656 C 211.105469 85.664062 209.402344 87.511719 207.765625 89.425781 C 206.335938 91.09375 204.96875 92.808594 203.578125 94.511719 C 202.167969 96.234375 200.746094 97.949219 199.292969 99.636719 C 198.03125 101.101562 196.734375 102.53125 195.402344 103.933594 C 193.171875 106.25 190.78125 108.542969 188.308594 110.824219 C 183.28125 115.464844 177.949219 120.023438 173.027344 124.480469 C 172.570312 125.648438 172.097656 126.808594 171.613281 127.96875 C 169.363281 133.355469 166.886719 138.648438 164.523438 143.988281 C 163.769531 145.703125 163.089844 147.457031 162.402344 149.207031 Z M 136.195312 134.277344 C 136.15625 134.316406 136.121094 134.355469 136.089844 134.394531 L 136.570312 135.386719 C 137.007812 135.378906 137.328125 135.503906 137.800781 135.589844 C 138.441406 135.707031 138.929688 135.941406 139.601562 136.125 C 139.925781 136.210938 140.199219 136.328125 140.53125 136.371094 C 140.664062 136.386719 140.800781 136.375 140.933594 136.367188 C 141.035156 136.363281 141.136719 136.382812 141.230469 136.347656 C 141.363281 136.300781 141.417969 136.238281 141.519531 136.140625 C 142.328125 135.347656 142.269531 135.289062 142.808594 134.464844 L 142.652344 133.371094 C 141.941406 132.765625 142.089844 132.59375 141.226562 131.957031 C 141.117188 131.878906 141.0625 131.820312 140.929688 131.789062 C 140.835938 131.769531 140.734375 131.792969 140.640625 131.808594 C 140.324219 131.859375 140.019531 131.921875 139.714844 132.042969 C 139.328125 132.191406 138.964844 132.347656 138.625 132.511719 C 138.824219 132.292969 139.003906 132.085938 139.140625 131.902344 C 140.164062 130.523438 141.191406 129.253906 142.160156 127.839844 C 142.539062 127.289062 142.902344 126.738281 143.230469 126.152344 C 143.445312 125.769531 143.621094 125.363281 143.820312 124.96875 C 144.621094 123.253906 145.457031 121.546875 146.21875 119.804688 C 149.253906 112.84375 151.957031 105.757812 155.164062 98.90625 L 154.203125 98.371094 C 152.109375 101.554688 150.09375 104.769531 148.128906 108.054688 C 146.078125 111.488281 144.039062 114.910156 142.113281 118.410156 C 141.289062 119.902344 140.527344 121.425781 139.730469 122.925781 C 139.53125 123.324219 139.3125 123.714844 139.136719 124.121094 C 138.867188 124.742188 138.644531 125.367188 138.4375 126.011719 C 137.910156 127.652344 137.542969 129.246094 137.089844 130.910156 C 136.933594 131.488281 136.550781 132.328125 136.355469 133.113281 C 136.246094 133.539062 136.15625 133.929688 136.195312 134.277344 Z M 224.003906 116.746094 C 225.070312 115.679688 226.34375 114.339844 227.707031 112.863281 C 233.128906 106.992188 239.964844 98.984375 241.535156 97.199219 C 241.964844 96.714844 242.757812 94.675781 243.597656 94.796875 C 243.46875 94.542969 243.152344 94.292969 242.863281 93.996094 C 242.015625 93.121094 240.933594 92.289062 240.433594 91.792969 C 240.125 91.492188 237.957031 89.304688 236.503906 87.863281 C 235.902344 88.683594 234.125 89.484375 233.644531 89.894531 C 231.566406 91.660156 229.511719 93.433594 227.476562 95.238281 C 226.132812 96.4375 224.800781 97.644531 223.484375 98.886719 C 221.644531 100.605469 219.832031 102.359375 218.003906 104.097656 C 215.265625 106.703125 212.570312 109.363281 209.808594 111.949219 C 207.960938 113.679688 206.078125 115.359375 204.199219 117.046875 C 202.9375 118.179688 201.664062 119.277344 200.402344 120.402344 C 197.441406 123.0625 195.707031 124.429688 193.917969 126.359375 C 193.328125 126.992188 192.738281 127.683594 192.097656 128.5 C 194.976562 127.082031 198.011719 125.824219 201.828125 124.136719 C 206.28125 122.171875 211.015625 120.496094 215.871094 119.035156 C 218.5625 118.226562 221.285156 117.46875 224.003906 116.746094 Z M 186.53125 51.15625 C 186.339844 52.515625 186.191406 53.882812 186.058594 55.25 C 185.710938 58.878906 185.492188 62.523438 185.097656 66.144531 C 183.917969 76.324219 182.730469 86.644531 180.8125 96.804688 C 180.300781 99.523438 179.722656 102.226562 179.082031 104.914062 C 178.117188 108.964844 176.992188 112.964844 175.746094 116.917969 C 175.269531 118.398438 174.761719 119.867188 174.226562 121.324219 C 176.273438 119.175781 178.375 117.003906 180.472656 114.8125 C 180.980469 110.71875 181.441406 106.675781 182.054688 102.585938 C 182.328125 100.757812 182.59375 98.941406 182.964844 97.132812 C 183.460938 94.730469 184.09375 92.359375 184.714844 89.988281 C 185.648438 86.429688 186.691406 82.902344 187.695312 79.367188 C 188.917969 75.207031 190.429688 71.066406 191.675781 66.867188 C 192.492188 64.117188 193.203125 61.355469 193.625 58.542969 C 193.792969 57.480469 194.164062 56.003906 193.960938 54.785156 C 193.863281 54.183594 193.628906 53.636719 192.988281 53.386719 C 192.988281 53.386719 187.179688 51.457031 187.179688 51.457031 C 187.144531 51.441406 186.855469 51.316406 186.53125 51.15625 Z M 244.675781 111.71875 C 245.332031 110.550781 246.082031 109.257812 246.929688 107.929688 C 247.457031 107.105469 247.972656 106.289062 248.578125 105.53125 C 249.417969 104.476562 250.355469 103.550781 251.1875 102.699219 C 251.855469 102.019531 252.5 101.425781 253.046875 100.90625 C 253.34375 100.632812 254.101562 100.0625 254.875 99.453125 C 255.136719 99.242188 255.578125 99.015625 255.878906 98.8125 C 255.660156 98.554688 255.632812 97.824219 255.332031 97.398438 C 254.6875 96.492188 253.9375 95.648438 253.5625 95.210938 C 253.226562 94.820312 252.851562 94.421875 252.441406 94.066406 C 252.046875 93.71875 251.640625 93.390625 251.203125 93.144531 C 250.703125 92.863281 249.957031 93.109375 249.113281 93.503906 C 248.269531 93.898438 247.371094 94.457031 246.519531 95.085938 C 246.460938 95.640625 246.210938 96.257812 245.75 96.84375 C 245.078125 97.699219 243.953125 98.570312 243.507812 99.03125 C 241.839844 100.730469 234.558594 108.363281 228.824219 113.949219 C 228.058594 114.695312 227.324219 115.402344 226.628906 116.058594 C 228.050781 115.691406 229.46875 115.332031 230.882812 114.980469 C 233.042969 114.4375 235.195312 113.949219 237.296875 113.414062 C 239.171875 112.941406 241.058594 112.496094 242.949219 112.082031 C 243.523438 111.957031 244.101562 111.835938 244.675781 111.71875 Z M 217.28125 72.988281 L 217.164062 73.046875 C 216.921875 72.703125 216.578125 72.445312 216.207031 72.191406 C 215.554688 71.742188 214.84375 71.402344 214.246094 71 C 213.652344 70.59375 212.730469 69.808594 211.730469 69.101562 C 211.191406 68.71875 210.28125 67.867188 210.148438 68.339844 C 210.136719 68.394531 210.234375 68.421875 210.285156 68.417969 C 210.34375 68.414062 210.460938 68.453125 210.539062 68.464844 C 210.507812 68.511719 210.472656 68.570312 210.4375 68.601562 C 210.222656 68.765625 209.996094 68.957031 209.777344 69.171875 C 208.953125 69.976562 208.1875 70.941406 207.761719 71.382812 C 207.761719 71.382812 196.121094 83.101562 196.121094 83.101562 C 195.5625 83.640625 194.621094 84.503906 193.53125 85.46875 C 192.285156 86.574219 190.855469 87.8125 189.632812 88.855469 C 189.464844 89.597656 189.296875 90.339844 189.125 91.082031 C 188.566406 93.460938 188.035156 95.851562 187.371094 98.203125 C 186.871094 99.976562 186.285156 101.710938 185.699219 103.457031 C 184.664062 106.5625 183.578125 109.609375 182.503906 112.679688 C 183.746094 111.363281 184.980469 110.042969 186.191406 108.71875 C 188.414062 106.285156 190.539062 103.835938 192.511719 101.386719 C 195.339844 97.996094 197.894531 94.394531 200.613281 90.914062 C 201.800781 89.394531 203.042969 87.917969 204.296875 86.453125 C 205.992188 84.472656 207.746094 82.546875 209.5625 80.679688 C 211.367188 78.820312 213.234375 77.015625 215.132812 75.246094 C 215.765625 74.664062 216.5 73.792969 217.28125 72.988281 Z M 256.0625 98.671875 C 256.128906 98.613281 256.175781 98.558594 256.1875 98.507812 C 256.203125 98.457031 256.1875 98.410156 256.132812 98.367188 C 256.023438 98.289062 256.054688 98.515625 256.0625 98.671875 Z M 199.859375 73.898438 C 199.789062 70.742188 199.84375 67.382812 200.140625 63.910156 C 200.203125 63.1875 200.289062 62.472656 200.40625 61.753906 C 200.671875 60.09375 201.035156 58.445312 201.402344 56.816406 C 202.234375 53.152344 203.195312 49.625 203.929688 46.402344 C 204.109375 45.648438 204.472656 44.640625 204.671875 43.664062 C 204.757812 43.234375 204.863281 42.820312 204.777344 42.476562 C 204.660156 42 204.039062 41.699219 203.425781 41.460938 C 202.65625 41.160156 201.808594 40.925781 201.292969 41.140625 C 200.21875 41.578125 199.414062 42.351562 198.761719 43.289062 C 197.628906 44.914062 196.890625 46.917969 196.125 48.585938 C 195.945312 48.992188 195.460938 50.753906 194.960938 51.730469 C 194.851562 51.945312 194.734375 52.125 194.617188 52.273438 C 195.289062 52.785156 195.675781 53.53125 195.890625 54.378906 C 196.25 55.78125 196.023438 57.546875 195.933594 58.804688 C 195.769531 61.027344 195.433594 63.234375 195.007812 65.433594 C 194.039062 70.445312 192.578125 75.394531 191.511719 80.339844 C 191.097656 82.164062 190.703125 83.992188 190.304688 85.824219 C 190.351562 85.765625 190.402344 85.710938 190.449219 85.65625 C 191.953125 83.933594 193.425781 82.199219 194.140625 81.296875 C 196.097656 78.867188 197.949219 76.367188 199.859375 73.898438 Z M 232.695312 74.664062 C 232.746094 74.722656 232.796875 74.773438 232.847656 74.796875 C 232.984375 74.859375 233.464844 75.039062 233.417969 74.796875 C 233.359375 74.5 233.078125 74.503906 232.695312 74.664062 Z M 210.539062 68.464844 C 210.554688 68.445312 210.570312 68.425781 210.582031 68.414062 C 210.597656 68.40625 210.605469 68.40625 210.613281 68.425781 C 210.636719 68.472656 210.597656 68.476562 210.539062 68.464844 Z M 210.539062 68.464844 " fill-opacity="1" fill-rule="evenodd"/></g></svg>