<svg xmlns="http://www.w3.org/2000/svg" xmlns:xlink="http://www.w3.org/1999/xlink" width="400" zoomAndPan="magnify" viewBox="0 0 300 299.999988" height="400" preserveAspectRatio="xMidYMid meet" version="1.0"><defs><clipPath id="6bccfbd6b4"><path d="M 32 64.199219 L 270 64.199219 L 270 235.949219 L 32 235.949219 Z M 32 64.199219 " clip-rule="nonzero"/></clipPath></defs><g clip-path="url(#6bccfbd6b4)"><path fill="currentColor" d="M 247.871094 67.445312 C 248.738281 67.339844 248.898438 68.6875 248.035156 68.792969 C 247.164062 68.898438 247.003906 67.550781 247.871094 67.445312 Z M 261.398438 79.40625 C 262.265625 79.300781 262.425781 80.648438 261.558594 80.753906 C 260.691406 80.859375 260.53125 79.511719 261.398438 79.40625 Z M 263.359375 79.625 C 264.230469 79.519531 264.390625 80.867188 263.523438 80.972656 C 262.65625 81.078125 262.492188 79.730469 263.359375 79.625 Z M 265.945312 80.261719 C 266.8125 80.15625 266.976562 81.503906 266.105469 81.609375 C 265.238281 81.714844 265.078125 80.367188 265.945312 80.261719 Z M 264.097656 81.96875 C 264.96875 81.863281 265.128906 83.210938 264.261719 83.316406 C 263.394531 83.417969 263.230469 82.070312 264.097656 81.96875 Z M 257.027344 77.503906 C 257.894531 77.398438 258.054688 78.746094 257.1875 78.851562 C 256.320312 78.957031 256.160156 77.609375 257.027344 77.503906 Z M 253.074219 71.828125 C 253.941406 71.722656 254.101562 73.070312 253.234375 73.175781 C 252.367188 73.28125 252.207031 71.933594 253.074219 71.828125 Z M 251.332031 69.988281 C 252.199219 69.882812 252.359375 71.230469 251.492188 71.335938 C 250.625 71.441406 250.464844 70.09375 251.332031 69.988281 Z M 249.144531 68.886719 C 250.015625 68.78125 250.175781 70.128906 249.308594 70.234375 C 248.441406 70.339844 248.277344 68.988281 249.144531 68.886719 Z M 173.203125 179.722656 C 166.503906 185.359375 159.746094 190.921875 152.929688 196.410156 C 146.464844 201.613281 139.972656 206.792969 133.226562 211.628906 C 120.210938 220.953125 105.878906 229.1875 89.957031 232.152344 C 78.855469 234.21875 66.976562 233.523438 56.808594 228.808594 C 59.71875 229.792969 62.796875 230.277344 65.902344 230.222656 C 66.511719 230.214844 66.957031 229.527344 66.886719 228.964844 C 66.808594 228.304688 66.242188 227.96875 65.628906 227.976562 C 61.875 228.042969 58.132812 227.179688 54.765625 225.546875 C 66.71875 228.285156 79.375 226.273438 90.699219 221.738281 C 104.296875 216.292969 116.167969 207.453125 127.894531 198.855469 C 140.660156 189.496094 153.429688 180.136719 166.191406 170.777344 C 178.957031 161.417969 191.726562 152.0625 204.492188 142.699219 C 214.542969 135.332031 224.992188 127.5625 231.214844 116.488281 C 231.785156 115.480469 232.304688 114.449219 232.785156 113.394531 C 235.316406 113.046875 237.351562 116.242188 237.21875 118.550781 C 237.007812 122.160156 233.914062 125.011719 231.480469 127.347656 C 225.214844 133.363281 218.882812 139.308594 212.484375 145.183594 C 199.644531 156.980469 186.546875 168.496094 173.203125 179.722656 Z M 50.875 222.277344 C 50.867188 222.121094 50.855469 221.960938 50.835938 221.804688 C 58.59375 222.3125 66.386719 221.28125 73.742188 218.753906 C 75.117188 218.28125 74.257812 216.1875 72.882812 216.660156 C 66.019531 219.015625 58.710938 220.015625 51.46875 219.582031 C 62.875 214.929688 72.863281 207.511719 82.199219 199.570312 C 92.226562 191.042969 101.71875 181.839844 112.460938 174.191406 C 124.261719 165.789062 137.324219 159.425781 150.410156 153.304688 C 163.507812 147.179688 176.53125 140.925781 189.085938 133.707031 C 203.667969 125.324219 218.988281 111.925781 223.253906 107.585938 C 224.480469 106.335938 225.511719 104.871094 226.035156 103.242188 C 226.964844 103.4375 227.785156 104.027344 228.511719 104.628906 C 230.164062 106.011719 231.167969 108.132812 231.019531 110.304688 C 230.839844 112.972656 229.347656 115.332031 227.949219 117.53125 C 226.566406 119.691406 225.003906 121.734375 223.320312 123.664062 C 219.917969 127.554688 216.03125 130.984375 211.996094 134.199219 C 210.183594 135.640625 208.34375 137.039062 206.484375 138.417969 C 194.324219 147.472656 182.035156 156.359375 169.808594 165.324219 C 157.25 174.53125 144.691406 183.738281 132.132812 192.945312 C 120.488281 201.480469 108.957031 210.554688 95.929688 216.925781 C 83.78125 222.871094 69.84375 226.363281 56.359375 223.609375 C 54.714844 223.273438 53.09375 222.839844 51.5 222.3125 C 51.277344 222.238281 51.066406 222.234375 50.875 222.277344 Z M 49.019531 216.699219 C 55.800781 213.925781 61.898438 209.578125 66.757812 204.097656 C 68.136719 202.542969 69.40625 200.894531 70.5625 199.171875 C 70.90625 198.664062 70.878906 197.980469 70.371094 197.582031 C 69.917969 197.226562 69.125 197.265625 68.785156 197.773438 C 64.839844 203.644531 59.542969 208.609375 53.375 212.089844 C 51.621094 213.082031 49.800781 213.949219 47.929688 214.703125 C 47.910156 214.710938 47.894531 214.71875 47.878906 214.726562 C 47.710938 214.453125 47.539062 214.175781 47.363281 213.898438 C 51.023438 210.441406 54.332031 206.636719 57.207031 202.503906 C 58.035156 201.3125 56.257812 199.910156 55.425781 201.105469 C 52.675781 205.0625 49.535156 208.738281 46.039062 212.054688 C 45.621094 211.542969 45.167969 211.0625 44.675781 210.640625 C 50.253906 200.207031 57.335938 190.601562 65.582031 182.121094 C 74.21875 173.242188 84.1875 165.582031 95.015625 159.5625 C 100.484375 156.523438 106.179688 153.886719 112.046875 151.699219 C 119.222656 149.023438 126.613281 146.972656 133.769531 144.246094 C 147.59375 138.984375 159.566406 130.363281 171.277344 121.5 C 180.78125 114.308594 190.035156 107.335938 199.53125 100.136719 C 199.714844 100.003906 199.890625 99.851562 199.953125 99.808594 C 204.371094 96.792969 208.792969 93.777344 213.214844 90.761719 C 213.484375 90.828125 213.796875 90.839844 214.132812 90.839844 C 215.304688 90.835938 216.484375 91.019531 217.585938 91.4375 C 218.652344 91.839844 219.644531 92.433594 220.519531 93.164062 C 222.371094 94.722656 223.71875 96.964844 224.066406 99.390625 C 224.8125 104.574219 219.378906 108.332031 216.070312 111.386719 C 211.753906 115.375 206.933594 118.921875 202.175781 122.355469 C 198.96875 124.664062 195.699219 126.886719 192.367188 129.015625 C 180.179688 136.804688 167.160156 143.011719 154.070312 149.105469 C 141.046875 155.167969 127.964844 161.253906 115.902344 169.113281 C 104.6875 176.421875 94.890625 185.523438 84.84375 194.304688 C 75.132812 202.789062 64.980469 211.109375 53.136719 216.433594 C 51.980469 216.953125 50.8125 217.433594 49.632812 217.890625 C 49.441406 217.488281 49.230469 217.089844 49.019531 216.699219 Z M 48.5 223.699219 C 47.792969 223.132812 47.097656 222.546875 46.421875 221.925781 C 43.183594 218.964844 40.476562 215.421875 38.542969 211.496094 C 39.445312 210.996094 40.519531 211.027344 41.542969 211.347656 C 41.828125 211.433594 42.503906 211.703125 42.886719 211.980469 C 43.140625 212.167969 43.363281 212.410156 43.566406 212.660156 C 44.039062 213.234375 44.566406 213.777344 44.988281 214.382812 C 45.976562 215.808594 46.890625 217.347656 47.628906 218.917969 C 48.34375 220.441406 48.808594 222.035156 48.5 223.699219 Z M 37.609375 209.40625 C 36.910156 207.695312 36.351562 205.925781 35.960938 204.105469 C 34.460938 197.113281 35.175781 189.769531 37.425781 183.015625 C 42.285156 168.410156 53.761719 157.644531 66.421875 149.523438 C 73.25 145.140625 80.484375 141.425781 87.769531 137.878906 C 95.867188 133.9375 104.054688 130.183594 112.210938 126.371094 L 161.714844 103.226562 C 169.9375 99.382812 178.15625 95.542969 186.375 91.699219 C 190.515625 89.761719 194.65625 87.824219 198.796875 85.890625 C 200.722656 84.992188 202.628906 84.011719 204.621094 83.269531 C 206.4375 82.589844 208.640625 82.027344 210.519531 82.800781 C 211.496094 83.199219 212.265625 84.125 212.671875 85.074219 C 213.183594 86.261719 212.78125 87.191406 212.414062 88.347656 C 212.386719 88.433594 212.363281 88.527344 212.34375 88.617188 C 208.300781 91.378906 204.257812 94.136719 200.214844 96.894531 C 199.257812 97.59375 182.820312 109.914062 174.144531 116.488281 C 162.40625 125.386719 150.632812 134.644531 137 140.503906 C 129.90625 143.550781 122.46875 145.671875 115.179688 148.179688 C 108.957031 150.320312 102.898438 152.855469 97.0625 155.902344 C 86.019531 161.667969 75.816406 169.023438 66.859375 177.679688 C 57.824219 186.414062 50.058594 196.394531 43.902344 207.351562 C 43.601562 207.882812 43.3125 208.417969 43.019531 208.953125 C 44.0625 202.640625 45.871094 196.476562 48.441406 190.617188 C 49.210938 188.863281 50.046875 187.136719 50.941406 185.445312 C 51.226562 184.90625 50.882812 184.1875 50.351562 183.957031 C 49.753906 183.699219 49.152344 184.003906 48.863281 184.546875 C 45.644531 190.636719 43.242188 197.140625 41.703125 203.855469 C 41.324219 205.515625 41.003906 207.1875 40.734375 208.867188 C 40.613281 208.855469 40.496094 208.847656 40.375 208.84375 C 39.246094 205.984375 38.800781 202.902344 39.125 199.839844 C 39.277344 198.394531 37.039062 198.054688 36.886719 199.503906 C 36.542969 202.785156 36.949219 206.105469 38.085938 209.199219 C 37.921875 209.257812 37.761719 209.328125 37.609375 209.40625 Z M 215.261719 77.171875 C 216.59375 76.828125 218.007812 76.925781 219.359375 77.03125 C 220.71875 77.132812 222.070312 77.238281 223.433594 77.207031 C 226.136719 77.144531 228.839844 76.59375 231.367188 75.640625 C 233.929688 74.675781 236.210938 73.1875 238.480469 71.679688 C 240.371094 70.421875 242.335938 69.160156 244.5 68.453125 C 244.414062 69.351562 244.628906 70.277344 245.0625 71.070312 C 245.589844 72.035156 246.355469 72.753906 247.226562 73.363281 C 246.027344 75.445312 244.785156 77.515625 243.222656 79.351562 C 241.511719 81.363281 239.378906 82.941406 236.90625 83.890625 C 231.5625 85.945312 225.851562 84.09375 220.339844 84.867188 C 218.515625 85.125 216.75 85.652344 215.1875 86.554688 C 215.214844 85.242188 214.75 83.871094 213.953125 82.777344 C 213.292969 81.859375 212.46875 81.238281 211.558594 80.832031 C 212.042969 79.054688 213.449219 77.644531 215.261719 77.171875 Z M 246.851562 68.234375 C 247.097656 67.628906 247.746094 67.222656 248.371094 67.058594 C 249.261719 66.820312 250.117188 67.066406 250.863281 67.542969 C 250.0625 67.703125 250.234375 68.980469 251.082031 68.878906 C 251.5 68.828125 251.675781 68.488281 251.652344 68.164062 C 252.035156 68.519531 252.375 68.917969 252.65625 69.320312 C 253.503906 70.519531 254.066406 71.878906 254.6875 73.207031 C 254.636719 73.203125 254.585938 73.203125 254.53125 73.210938 C 253.664062 73.316406 253.824219 74.664062 254.695312 74.558594 C 254.941406 74.527344 255.101562 74.394531 255.1875 74.226562 C 255.410156 74.660156 255.644531 75.082031 255.910156 75.488281 C 257.15625 77.398438 258.917969 78.699219 261.179688 79.109375 C 262.992188 79.433594 265.339844 79.15625 266.816406 80.484375 C 267.691406 81.269531 267.589844 82.515625 266.882812 83.308594 C 266.988281 82.890625 266.722656 82.371094 266.167969 82.4375 C 265.320312 82.539062 265.457031 83.824219 266.273438 83.785156 C 266.1875 83.835938 266.09375 83.878906 265.996094 83.914062 C 265.25 84.1875 264.371094 84.039062 263.683594 83.664062 C 262.894531 83.226562 262.410156 82.433594 261.898438 81.71875 C 261.246094 80.800781 260.5 79.925781 259.445312 79.472656 C 258.488281 79.058594 257.296875 79.144531 256.398438 78.609375 C 255.898438 78.3125 255.605469 77.773438 255.371094 77.199219 C 255.488281 77.285156 255.640625 77.332031 255.824219 77.308594 C 256.691406 77.203125 256.53125 75.855469 255.660156 75.960938 C 255.320312 76 255.140625 76.238281 255.097656 76.5 C 255.03125 76.324219 254.964844 76.148438 254.890625 75.988281 C 254.621094 75.382812 254.023438 74.601562 253.539062 74.242188 C 252.488281 73.472656 251.226562 73.039062 250.074219 72.433594 C 249.984375 72.386719 249.898438 72.339844 249.808594 72.292969 C 249.882812 72.3125 249.964844 72.320312 250.054688 72.308594 C 250.921875 72.203125 250.757812 70.855469 249.890625 70.960938 C 249.246094 71.039062 249.171875 71.796875 249.527344 72.144531 C 248.78125 71.742188 248.035156 71.285156 247.488281 70.636719 C 246.9375 69.984375 246.515625 69.066406 246.851562 68.234375 Z M 226.433594 100.542969 C 226.386719 94.753906 221.625 89.5 215.9375 88.703125 C 217.40625 87.765625 219.167969 87.292969 220.878906 87.078125 C 223.613281 86.734375 226.351562 87.042969 229.085938 87.136719 C 232.082031 87.242188 235.039062 87.050781 237.859375 85.949219 C 240.410156 84.953125 242.648438 83.335938 244.496094 81.320312 C 246.359375 79.289062 247.78125 76.90625 249.15625 74.523438 C 249.707031 74.835938 250.261719 75.136719 250.882812 75.414062 C 251.707031 75.785156 252.945312 77.125 253.363281 78.089844 C 253.445312 78.285156 253.539062 78.480469 253.636719 78.667969 C 252.226562 80.652344 250.371094 82.300781 248.179688 83.378906 C 245.640625 84.625 242.777344 84.765625 240.207031 85.890625 C 237.871094 86.914062 236.359375 88.796875 235.28125 91.050781 C 234.359375 92.992188 233.769531 95.136719 232.628906 96.960938 C 231.988281 97.980469 231.183594 98.867188 230.101562 99.429688 C 228.953125 100.027344 227.695312 100.316406 226.433594 100.542969 Z M 233.519531 99.550781 C 235.0625 97.816406 235.839844 95.550781 236.707031 93.4375 C 237.523438 91.457031 238.472656 89.410156 240.402344 88.308594 C 241.617188 87.617188 243.019531 87.308594 244.367188 86.992188 C 245.792969 86.660156 247.207031 86.304688 248.546875 85.703125 C 251.136719 84.542969 253.421875 82.726562 255.128906 80.464844 C 255.332031 80.597656 255.546875 80.722656 255.789062 80.820312 C 256.742188 81.199219 257.898438 81.140625 258.792969 81.664062 C 258.800781 81.671875 258.808594 81.679688 258.816406 81.683594 C 256.347656 83.039062 253.871094 84.390625 251.410156 85.765625 C 248.867188 87.183594 246.378906 88.761719 244.871094 91.335938 C 242.289062 95.742188 243.355469 101.570312 239.777344 105.480469 C 238.027344 107.386719 235.621094 108.582031 233.277344 109.648438 C 233.167969 106.703125 231.546875 103.832031 229.085938 102.21875 C 230.75 101.710938 232.292969 100.929688 233.519531 99.550781 Z M 261.691406 91.246094 C 259.257812 93.402344 256.300781 94.691406 253.496094 96.269531 C 250.851562 97.757812 248.347656 99.578125 246.792969 102.242188 C 246.035156 103.546875 245.644531 104.984375 245.496094 106.476562 C 245.34375 108 245.414062 109.632812 244.820312 111.074219 C 243.824219 113.484375 241.179688 115.101562 238.582031 114.847656 C 238.566406 114.8125 238.550781 114.777344 238.53125 114.746094 C 237.695312 113.226562 236.355469 111.976562 234.796875 111.429688 C 236.726562 110.527344 238.621094 109.515625 240.242188 108.140625 C 242.394531 106.3125 243.671875 104.007812 244.390625 101.304688 C 245.046875 98.847656 245.230469 96.253906 246.15625 93.871094 C 247.144531 91.328125 249.101562 89.71875 251.398438 88.355469 C 254.324219 86.621094 257.351562 85.039062 260.339844 83.410156 C 260.480469 83.617188 260.621094 83.824219 260.765625 84.011719 C 261.9375 85.511719 263.765625 86.464844 265.628906 86.292969 C 264.605469 88.148438 263.285156 89.839844 261.691406 91.246094 Z M 237.324219 124.261719 C 238.625 122.378906 239.5 120.195312 239.429688 118.007812 C 239.414062 117.523438 239.75 117.113281 240.226562 117.046875 C 242.351562 116.746094 244.332031 115.632812 245.710938 113.949219 C 246.671875 112.769531 247.230469 111.355469 247.457031 109.855469 C 247.703125 108.257812 247.585938 106.582031 248.035156 105.015625 C 248.835938 102.226562 251.261719 100.234375 253.640625 98.785156 C 256.554688 97.007812 259.773438 95.75 262.441406 93.574219 C 265.183594 91.339844 267.347656 88.421875 268.683594 85.148438 C 268.734375 85.027344 268.761719 84.914062 268.769531 84.804688 C 268.785156 84.632812 268.839844 84.46875 268.9375 84.324219 C 269.730469 83.140625 270 81.605469 269.402344 80.273438 C 268.363281 77.945312 265.722656 77.324219 263.425781 77.101562 C 262.238281 76.984375 260.996094 76.917969 259.921875 76.347656 C 258.984375 75.84375 258.285156 74.996094 257.710938 74.121094 C 256.28125 71.933594 255.664062 69.289062 253.9375 67.277344 C 252.363281 65.449219 250.089844 64.238281 247.65625 64.921875 C 247.117188 65.074219 246.609375 65.320312 246.164062 65.648438 C 246.050781 65.730469 245.921875 65.789062 245.785156 65.8125 C 240.207031 66.792969 236.207031 71.230469 231.082031 73.320312 C 228.503906 74.375 225.742188 74.925781 222.957031 74.964844 C 220.0625 75.007812 217.140625 74.25 214.296875 75.109375 C 212.09375 75.773438 210.359375 77.511719 209.574219 79.636719 C 209.441406 80 209.09375 80.242188 208.707031 80.230469 C 207.226562 80.195312 205.691406 80.503906 204.292969 80.984375 C 202.171875 81.710938 200.15625 82.757812 198.128906 83.707031 L 191.632812 86.746094 C 187.300781 88.769531 182.964844 90.796875 178.632812 92.820312 C 161.238281 100.953125 143.847656 109.085938 126.453125 117.21875 C 117.785156 121.269531 109.121094 125.320312 100.457031 129.371094 C 92.152344 133.253906 83.828125 137.117188 75.753906 141.46875 C 61.855469 148.957031 48.070312 158.332031 39.882812 172.199219 C 32.261719 185.105469 30 201.75 37.90625 215.0625 C 46.015625 228.710938 61.816406 235.335938 77.207031 235.535156 C 94.355469 235.757812 110.605469 228.917969 124.90625 219.953125 C 132.152344 215.414062 139.015625 210.296875 145.742188 205.023438 C 152.847656 199.453125 159.859375 193.753906 166.816406 187.996094 C 180.980469 176.28125 194.875 164.242188 208.484375 151.886719 C 215.265625 145.734375 221.976562 139.503906 228.613281 133.195312 C 231.578125 130.378906 234.984375 127.644531 237.324219 124.261719 " fill-opacity="1" fill-rule="nonzero"/></g></svg>