<svg width="24" height="24" viewBox="0 0 24 24" fill="none" xmlns="http://www.w3.org/2000/svg">
<path d="M22.5126 10.5687C22.512 10.5682 22.5115 10.5677 22.511 10.5672L13.5359 1.5924C13.1533 1.20967 12.6447 0.998833 12.1037 0.998833C11.5626 0.998833 11.054 1.2095 10.6713 1.59223L1.7008 10.5625C1.69778 10.5656 1.69475 10.5687 1.69173 10.5718C0.90613 11.3619 0.907473 12.6439 1.69559 13.432C2.05566 13.7922 2.53122 14.0009 3.03968 14.0227C3.06033 14.0247 3.08114 14.0257 3.10212 14.0257H3.45984V20.6307C3.45984 21.9377 4.52326 23.0011 5.83058 23.0011H9.34196C9.69783 23.0011 9.98655 22.7125 9.98655 22.3565V17.1782C9.98655 16.5818 10.4717 16.0967 11.0681 16.0967H13.1392C13.7356 16.0967 14.2208 16.5818 14.2208 17.1782V22.3565C14.2208 22.7125 14.5093 23.0011 14.8653 23.0011H18.3767C19.684 23.0011 20.7475 21.9377 20.7475 20.6307V14.0257H21.0792C21.62 14.0257 22.1286 13.8151 22.5115 13.4323C23.3005 12.6429 23.3008 11.3587 22.5126 10.5687Z" fill="#A9A0F0"/>
</svg>
