<svg width="24" height="23" viewBox="0 0 24 23" fill="none" xmlns="http://www.w3.org/2000/svg">
<path d="M21.8165 10.2051C21.816 10.2047 21.8155 10.2042 21.8151 10.2037L13.6951 2.08403C13.349 1.73777 12.8888 1.54702 12.3993 1.54702C11.9098 1.54702 11.4497 1.73762 11.1034 2.08388L2.98764 10.1995C2.98491 10.2022 2.98217 10.2051 2.97944 10.2078C2.26869 10.9227 2.2699 12.0825 2.98293 12.7956C3.30869 13.1215 3.73894 13.3102 4.19895 13.33C4.21763 13.3318 4.23646 13.3327 4.25545 13.3327H4.57908V19.3083C4.57908 20.4908 5.54118 21.4529 6.72394 21.4529H9.90075C10.2227 21.4529 10.4839 21.1918 10.4839 20.8697V16.1848C10.4839 15.6452 10.9228 15.2063 11.4624 15.2063H13.3362C13.8758 15.2063 14.3147 15.6452 14.3147 16.1848V20.8697C14.3147 21.1918 14.5758 21.4529 14.8979 21.4529H18.0747C19.2574 21.4529 20.2195 20.4908 20.2195 19.3083V13.3327H20.5196C21.009 13.3327 21.4691 13.1421 21.8155 12.7959C22.5293 12.0816 22.5296 10.9198 21.8165 10.2051Z" fill="currentColor"/>
</svg>
