<svg width="24" height="24" viewBox="0 0 24 24" fill="none" xmlns="http://www.w3.org/2000/svg">
<path d="M16.61 1H7.39198C3.38798 1 1.00098 3.387 1.00098 7.391V16.609C1.00098 20.613 3.38798 23 7.39198 23H16.61C20.614 23 23.001 20.613 23.001 16.609V7.391C23.001 3.387 20.614 1 16.61 1ZM9.76798 15.19L7.29298 17.665C7.12798 17.83 6.91898 17.907 6.70998 17.907C6.50098 17.907 6.28098 17.83 6.12698 17.665L5.30198 16.84C4.97198 16.521 4.97198 15.993 5.30198 15.674C5.62098 15.355 6.13798 15.355 6.46798 15.674L6.70998 15.916L8.60198 14.024C8.92098 13.705 9.43798 13.705 9.76798 14.024C10.087 14.343 10.087 14.871 9.76798 15.19ZM9.76798 7.49L7.29298 9.965C7.12798 10.13 6.91898 10.207 6.70998 10.207C6.50098 10.207 6.28098 10.13 6.12698 9.965L5.30198 9.14C4.97198 8.821 4.97198 8.293 5.30198 7.974C5.62098 7.655 6.13798 7.655 6.46798 7.974L6.70998 8.216L8.60198 6.324C8.92098 6.005 9.43798 6.005 9.76798 6.324C10.087 6.643 10.087 7.171 9.76798 7.49ZM18.117 17.082H12.342C11.891 17.082 11.517 16.708 11.517 16.257C11.517 15.806 11.891 15.432 12.342 15.432H18.117C18.579 15.432 18.942 15.806 18.942 16.257C18.942 16.708 18.579 17.082 18.117 17.082ZM18.117 9.382H12.342C11.891 9.382 11.517 9.008 11.517 8.557C11.517 8.106 11.891 7.732 12.342 7.732H18.117C18.579 7.732 18.942 8.106 18.942 8.557C18.942 9.008 18.579 9.382 18.117 9.382Z" fill="#A9A0F0"/>
</svg>
