<svg width="24" height="24" viewBox="0 0 24 24" fill="none" xmlns="http://www.w3.org/2000/svg">
<g opacity="0.8">
<path d="M11.8419 11.5975C13.2978 11.5975 14.5583 11.0753 15.5886 10.0451C16.6185 9.01501 17.1408 7.75465 17.1408 6.29858C17.1408 4.84302 16.6186 3.58249 15.5884 2.55208C14.5582 1.52217 13.2976 1 11.8419 1C10.3858 1 9.12546 1.52217 8.09538 2.55225C7.06531 3.58232 6.54297 4.84285 6.54297 6.29858C6.54297 7.75465 7.06531 9.01518 8.09538 10.0453C9.12579 11.0752 10.3863 11.5975 11.8419 11.5975ZM9.00713 3.46382C9.79752 2.67343 10.7247 2.28923 11.8419 2.28923C12.9589 2.28923 13.8863 2.67343 14.6768 3.46382C15.4672 4.25438 15.8516 5.18173 15.8516 6.29858C15.8516 7.41577 15.4672 8.34296 14.6768 9.13351C13.8863 9.92407 12.9589 10.3083 11.8419 10.3083C10.725 10.3083 9.79785 9.9239 9.00713 9.13351C8.21657 8.34312 7.8322 7.41577 7.8322 6.29858C7.8322 5.18173 8.21657 4.25438 9.00713 3.46382Z" fill="#6C6C6C"/>
<path d="M21.113 17.9169C21.0833 17.4883 21.0232 17.0206 20.9347 16.5268C20.8454 16.0293 20.7304 15.559 20.5928 15.1292C20.4505 14.6849 20.2573 14.2461 20.0181 13.8257C19.7702 13.3893 19.4788 13.0093 19.1518 12.6966C18.8099 12.3694 18.3913 12.1064 17.9073 11.9146C17.4249 11.7237 16.8903 11.627 16.3184 11.627C16.0938 11.627 15.8766 11.7192 15.4572 11.9923C15.1991 12.1606 14.8971 12.3553 14.5601 12.5707C14.2719 12.7543 13.8815 12.9263 13.3992 13.0821C12.9288 13.2343 12.4511 13.3116 11.9794 13.3116C11.5081 13.3116 11.0304 13.2343 10.5596 13.0821C10.0779 12.9265 9.6873 12.7545 9.39961 12.5708C9.06577 12.3575 8.76364 12.1628 8.50163 11.9921C8.08252 11.719 7.86533 11.6269 7.64075 11.6269C7.06873 11.6269 6.5343 11.7237 6.05208 11.9147C5.56834 12.1062 5.14957 12.3693 4.80733 12.6967C4.48036 13.0096 4.18898 13.3894 3.94124 13.8257C3.70239 14.2461 3.50903 14.6847 3.3667 15.1293C3.22923 15.5592 3.11426 16.0293 3.02496 16.5268C2.93634 17.02 2.87642 17.4877 2.84671 17.9174C2.8175 18.3376 2.80273 18.7748 2.80273 19.2166C2.80273 20.365 3.1678 21.2947 3.8877 21.9803C4.59869 22.6569 5.53931 23 6.68352 23H17.2767C18.4205 23 19.3611 22.6569 20.0723 21.9803C20.7924 21.2952 21.1574 20.3651 21.1574 19.2164C21.1573 18.7731 21.1423 18.3359 21.113 17.9169ZM19.1834 21.0463C18.7136 21.4934 18.0899 21.7108 17.2765 21.7108H6.68352C5.86996 21.7108 5.24625 21.4934 4.77661 21.0464C4.31587 20.6078 4.09196 20.0091 4.09196 19.2166C4.09196 18.8043 4.10556 18.3973 4.13275 18.0066C4.15927 17.6232 4.21349 17.2021 4.29388 16.7546C4.37328 16.3127 4.47432 15.8979 4.5945 15.5224C4.70981 15.1624 4.86708 14.8059 5.06212 14.4625C5.24826 14.1352 5.46243 13.8544 5.69876 13.6281C5.91982 13.4165 6.19844 13.2432 6.52675 13.1133C6.83038 12.9931 7.17162 12.9274 7.54205 12.9174C7.5872 12.9415 7.6676 12.9873 7.79785 13.0722C8.06288 13.2449 8.36836 13.442 8.70607 13.6577C9.08675 13.9004 9.57719 14.1196 10.1631 14.3087C10.7622 14.5024 11.3732 14.6008 11.9796 14.6008C12.586 14.6008 13.1971 14.5024 13.7959 14.3089C14.3823 14.1194 14.8726 13.9004 15.2538 13.6573C15.5994 13.4364 15.8963 13.2451 16.1613 13.0722C16.2916 12.9874 16.372 12.9415 16.4171 12.9174C16.7877 12.9274 17.129 12.9931 17.4328 13.1133C17.7609 13.2432 18.0395 13.4166 18.2606 13.6281C18.4969 13.8542 18.7111 14.135 18.8972 14.4626C19.0924 14.8059 19.2499 15.1626 19.365 15.5223C19.4854 15.8982 19.5866 16.3128 19.6658 16.7544C19.746 17.2027 19.8004 17.624 19.8269 18.0067V18.0071C19.8543 18.3963 19.868 18.8032 19.8682 19.2166C19.868 20.0093 19.6441 20.6078 19.1834 21.0463Z" fill="#6C6C6C"/>
</g>
</svg>
