<svg xmlns="http://www.w3.org/2000/svg" xmlns:xlink="http://www.w3.org/1999/xlink" width="400" zoomAndPan="magnify" viewBox="0 0 300 299.999988" height="400" preserveAspectRatio="xMidYMid meet" version="1.0"><path fill="currentColor" d="M 259.652344 251.109375 L 210.335938 157.066406 L 218.800781 153.082031 C 219.65625 152.679688 220.089844 151.710938 219.816406 150.808594 C 218.1875 145.402344 214.613281 137.636719 206.828125 131.34375 C 196.972656 123.367188 186 122.453125 180.390625 122.601562 C 179.375 118.824219 176.777344 115.820312 173.332031 114.558594 C 171.523438 113.894531 169.804688 113.832031 168.398438 113.988281 L 168.398438 103.875 C 173.363281 100.160156 177.175781 94.96875 179.171875 89.152344 C 180.222656 86.113281 180.753906 82.777344 180.753906 79.242188 L 180.753906 60.632812 C 180.753906 43.839844 167.144531 30.097656 150.40625 30 L 149.765625 30 C 132.949219 30.054688 119.269531 43.796875 119.269531 60.632812 L 119.269531 79.242188 C 119.269531 82.777344 119.800781 86.109375 120.847656 89.148438 C 122.847656 94.96875 126.65625 100.160156 131.625 103.875 L 131.625 113.988281 C 130.214844 113.828125 128.5 113.894531 126.695312 114.558594 C 123.246094 115.820312 120.648438 118.824219 119.628906 122.601562 C 114.019531 122.445312 103.050781 123.367188 93.195312 131.34375 C 85.410156 137.636719 81.832031 145.402344 80.207031 150.808594 C 79.933594 151.710938 80.363281 152.679688 81.21875 153.078125 L 89.6875 157.066406 L 40.371094 251.113281 C 38.605469 254.488281 39.753906 258.707031 42.984375 260.71875 L 48.273438 264.007812 C 49.460938 264.75 50.792969 265.101562 52.109375 265.101562 C 53.460938 265.101562 54.800781 264.730469 55.964844 264.023438 C 56.265625 265.996094 57.054688 267.4375 58.316406 268.273438 C 59.132812 268.820312 60.078125 269.0625 61.109375 269.0625 C 65.722656 269.0625 71.984375 264.183594 75.332031 259.570312 C 79.878906 253.316406 80.167969 246.324219 79.859375 242.367188 C 80.738281 240.703125 81.617188 239.035156 82.5 237.367188 C 84.550781 241.46875 88.515625 244.441406 93.246094 245.105469 L 112.90625 247.871094 C 111.558594 248.707031 110.15625 249.453125 108.703125 250.097656 C 107.0625 250.820312 105.382812 251.410156 103.707031 251.859375 C 100.332031 252.761719 97.976562 255.804688 97.976562 259.261719 L 97.976562 259.488281 C 97.976562 263.707031 101.410156 267.136719 105.628906 267.136719 L 134.90625 267.136719 C 136.488281 268.960938 138.765625 270 141.183594 270 C 141.539062 270 141.898438 269.976562 142.257812 269.929688 C 159.480469 267.714844 176.210938 263.054688 191.980469 256.074219 C 201.515625 251.859375 210.726562 246.761719 219.40625 240.925781 L 220.164062 242.367188 C 219.855469 246.324219 220.144531 253.316406 224.691406 259.570312 C 228.039062 264.183594 234.300781 269.0625 238.914062 269.0625 C 239.941406 269.0625 240.890625 268.820312 241.703125 268.277344 C 242.96875 267.4375 243.757812 265.996094 244.058594 264.023438 C 245.222656 264.730469 246.558594 265.101562 247.914062 265.101562 C 249.230469 265.101562 250.5625 264.75 251.753906 264.007812 L 257.039062 260.71875 C 260.269531 258.707031 261.417969 254.488281 259.652344 251.109375 Z M 117.511719 210.046875 C 116.789062 211.164062 115.851562 212.167969 114.730469 213.039062 C 109.421875 210.855469 103.945312 208.90625 98.410156 207.230469 C 104.289062 196.097656 110.164062 184.960938 116.039062 173.828125 C 117.289062 182.1875 118.382812 190.605469 119.277344 198.929688 C 119.542969 201.398438 119.984375 205.53125 117.980469 209.253906 C 117.839844 209.523438 117.683594 209.789062 117.511719 210.046875 Z M 180.742188 198.933594 C 181.636719 190.605469 182.730469 182.1875 183.984375 173.828125 C 188.429688 182.253906 192.878906 190.679688 197.328125 199.109375 L 201.183594 206.414062 C 198.265625 207.183594 195.367188 208.15625 192.542969 209.324219 C 191.003906 209.964844 189.457031 210.671875 187.945312 211.433594 C 186.03125 212.402344 183.738281 211.851562 182.578125 210.160156 C 182.546875 210.101562 182.515625 210.054688 182.484375 210.011719 C 182.324219 209.765625 182.175781 209.507812 182.03125 209.230469 C 180.039062 205.53125 180.480469 201.398438 180.742188 198.933594 Z M 135.433594 106.316406 C 139.910156 108.742188 144.886719 110.015625 150.011719 110.015625 C 155.132812 110.015625 160.109375 108.742188 164.585938 106.316406 L 164.585938 115.460938 C 158.847656 120.101562 152.527344 120.617188 150.011719 120.617188 C 142.9375 120.617188 137.808594 117.347656 135.433594 115.457031 Z M 124.449219 87.90625 C 123.539062 85.269531 123.078125 82.351562 123.078125 79.242188 L 123.078125 60.632812 C 123.078125 45.890625 135.054688 33.859375 149.773438 33.808594 L 150.394531 33.808594 C 165.035156 33.894531 176.945312 45.925781 176.945312 60.632812 L 176.945312 79.242188 C 176.945312 82.355469 176.484375 85.269531 175.570312 87.910156 C 173.726562 93.285156 170.113281 98.058594 165.402344 101.34375 C 160.847656 104.523438 155.523438 106.203125 150.011719 106.203125 C 144.5 106.203125 139.175781 104.523438 134.621094 101.34375 C 129.910156 98.058594 126.296875 93.285156 124.449219 87.90625 Z M 95.589844 134.304688 C 105.5 126.285156 116.6875 126.164062 121.035156 126.484375 C 122.042969 126.554688 122.929688 125.835938 123.0625 124.835938 C 123.484375 121.664062 125.375 119.097656 128.007812 118.136719 C 129.832031 117.464844 131.558594 117.746094 132.589844 118.046875 C 135.113281 120.160156 141.285156 124.429688 150.011719 124.429688 C 153.007812 124.429688 160.632812 123.796875 167.429688 118.050781 C 168.457031 117.746094 170.1875 117.460938 172.019531 118.136719 C 174.644531 119.097656 176.539062 121.664062 176.960938 124.835938 C 177.09375 125.835938 177.984375 126.558594 178.988281 126.484375 C 183.339844 126.164062 194.523438 126.285156 204.433594 134.304688 C 210.75 139.410156 214 145.597656 215.660156 150.347656 L 203.347656 156.144531 C 196.285156 159.464844 189.222656 162.789062 182.164062 166.109375 C 181.59375 166.378906 181.191406 166.910156 181.09375 167.535156 C 179.519531 177.386719 178.183594 187.371094 177.101562 197.242188 C 168.28125 199.695312 159.175781 200.941406 150.011719 200.941406 C 140.855469 200.941406 131.746094 199.695312 122.921875 197.242188 C 121.839844 187.371094 120.503906 177.386719 118.929688 167.535156 C 118.832031 166.910156 118.429688 166.378906 117.859375 166.109375 C 110.800781 162.789062 103.738281 159.464844 96.675781 156.144531 L 84.363281 150.347656 C 86.023438 145.597656 89.273438 139.410156 95.589844 134.304688 Z M 72.25 257.332031 C 68.375 262.667969 61.957031 266.125 60.425781 265.101562 C 59.9375 264.777344 59.207031 263.070312 59.933594 258.921875 C 60.210938 257.339844 60.667969 255.585938 61.296875 253.714844 C 62.597656 249.84375 61.601562 245.632812 58.710938 242.746094 L 58.648438 242.679688 C 57.898438 241.945312 56.71875 241.972656 55.980469 242.71875 C 55.242188 243.460938 55.265625 244.6875 56.007812 245.425781 C 57.851562 247.269531 58.507812 250.046875 57.6875 252.503906 C 57.046875 254.40625 56.574219 256.203125 56.261719 257.867188 L 55.089844 259.691406 C 54.058594 261.292969 51.902344 261.777344 50.285156 260.773438 L 44.996094 257.480469 C 43.449219 256.519531 42.898438 254.496094 43.746094 252.878906 L 54.628906 232.128906 C 58.117188 232.847656 61.515625 233.964844 64.75 235.464844 C 68.878906 237.378906 72.683594 239.882812 76.078125 242.894531 C 76.3125 246.328125 76.003906 252.167969 72.25 257.332031 Z M 84.953125 232.71875 C 87.945312 227.050781 90.933594 221.382812 93.925781 215.71875 L 96.59375 210.664062 C 102.59375 212.453125 108.523438 214.5625 114.242188 216.957031 C 114.246094 216.957031 114.246094 216.957031 114.246094 216.957031 C 114.25 216.960938 114.253906 216.960938 114.253906 216.960938 C 119.558594 219.183594 124.808594 221.691406 129.859375 224.417969 C 130.144531 224.574219 130.457031 224.648438 130.761719 224.648438 C 131.4375 224.648438 132.09375 224.285156 132.4375 223.648438 C 132.9375 222.722656 132.59375 221.566406 131.667969 221.066406 C 131.128906 220.773438 130.585938 220.488281 130.039062 220.199219 L 153.371094 224.933594 L 153.371094 230.113281 C 148.0625 231.203125 142.691406 232.179688 137.375 233.007812 C 132.878906 233.710938 129.800781 237.789062 130.363281 242.296875 L 130.894531 246.554688 L 93.773438 241.332031 C 89.265625 240.699219 85.710938 237.203125 84.953125 232.71875 Z M 157.183594 224.351562 C 160.242188 222.300781 164.097656 221.640625 167.675781 222.597656 L 175.691406 224.742188 C 171.816406 225.816406 167.902344 226.832031 163.988281 227.765625 C 161.738281 228.304688 159.460938 228.816406 157.183594 229.308594 Z M 101.789062 259.492188 L 101.789062 259.261719 C 101.789062 257.527344 102.980469 255.996094 104.6875 255.539062 C 106.550781 255.042969 108.417969 254.386719 110.242188 253.585938 C 113.167969 252.285156 115.910156 250.625 118.40625 248.648438 L 131.386719 250.472656 L 132.910156 262.679688 C 132.9375 262.898438 132.976562 263.113281 133.023438 263.328125 L 105.628906 263.328125 C 103.511719 263.328125 101.789062 261.605469 101.789062 259.492188 Z M 190.441406 252.589844 C 175.003906 259.421875 158.632812 263.984375 141.773438 266.152344 C 140.054688 266.375 138.390625 265.613281 137.421875 264.164062 C 137.027344 263.582031 136.78125 262.921875 136.691406 262.207031 L 134.144531 241.824219 C 133.835938 239.375 135.515625 237.152344 137.960938 236.773438 C 143.847656 235.855469 149.800781 234.769531 155.65625 233.539062 C 155.660156 233.539062 155.664062 233.535156 155.667969 233.535156 C 158.742188 232.890625 161.835938 232.199219 164.875 231.472656 C 171.082031 229.988281 177.304688 228.320312 183.367188 226.507812 C 183.371094 226.507812 183.375 226.507812 183.382812 226.503906 C 186.851562 225.46875 190.382812 224.351562 193.875 223.1875 C 194.875 222.855469 195.414062 221.777344 195.082031 220.777344 C 194.75 219.78125 193.671875 219.242188 192.671875 219.574219 C 189.386719 220.667969 186.070312 221.71875 182.800781 222.699219 L 168.660156 218.917969 C 163.933594 217.652344 158.832031 218.5625 154.832031 221.34375 L 119.171875 214.109375 C 119.707031 213.523438 120.1875 212.902344 120.621094 212.253906 C 130.296875 214.101562 140.175781 215.046875 150.011719 215.046875 C 159.847656 215.046875 169.726562 214.101562 179.402344 212.253906 C 180.902344 214.488281 183.390625 215.71875 185.96875 215.71875 C 187.214844 215.71875 188.480469 215.433594 189.664062 214.835938 C 191.089844 214.117188 192.550781 213.449219 194.003906 212.84375 C 196.945312 211.625 199.96875 210.632812 203.011719 209.878906 L 217.617188 237.539062 C 209.023438 243.347656 199.894531 248.410156 190.441406 252.589844 Z M 255.023438 257.484375 L 249.738281 260.773438 C 248.121094 261.777344 245.964844 261.292969 244.933594 259.695312 L 243.761719 257.871094 C 243.449219 256.203125 242.976562 254.40625 242.335938 252.503906 C 241.511719 250.046875 242.171875 247.269531 244.046875 245.394531 C 244.796875 244.65625 244.808594 243.453125 244.070312 242.703125 C 243.332031 241.953125 242.125 241.941406 241.375 242.679688 L 241.320312 242.734375 C 238.421875 245.632812 237.425781 249.84375 238.722656 253.714844 C 239.351562 255.585938 239.8125 257.335938 240.085938 258.921875 C 240.8125 263.070312 240.082031 264.78125 239.59375 265.105469 C 238.066406 266.121094 231.644531 262.667969 227.769531 257.332031 C 224.015625 252.167969 223.707031 246.328125 223.945312 242.898438 C 227.339844 239.882812 231.144531 237.378906 235.273438 235.464844 C 238.507812 233.96875 241.90625 232.847656 245.394531 232.128906 L 256.277344 252.878906 C 257.125 254.496094 256.574219 256.519531 255.023438 257.484375 Z M 255.023438 257.484375 " fill-opacity="1" fill-rule="nonzero"/><path fill="currentColor" d="M 155.046875 74.617188 C 156.257812 75.53125 158.820312 77.0625 162.371094 77.0625 C 163.886719 77.0625 166.855469 76.746094 169.691406 74.621094 C 170.53125 73.988281 170.703125 72.796875 170.074219 71.953125 C 169.441406 71.109375 168.25 70.941406 167.40625 71.570312 C 165.453125 73.035156 163.414062 73.253906 162.371094 73.253906 C 159.929688 73.253906 158.171875 72.199219 157.339844 71.574219 C 156.496094 70.941406 155.304688 71.109375 154.671875 71.949219 C 154.039062 72.789062 154.207031 73.984375 155.046875 74.617188 Z M 155.046875 74.617188 " fill-opacity="1" fill-rule="nonzero"/><path fill="currentColor" d="M 144.976562 74.617188 C 145.816406 73.984375 145.984375 72.789062 145.351562 71.949219 C 144.71875 71.109375 143.523438 70.941406 142.683594 71.574219 C 141.851562 72.199219 140.09375 73.253906 137.648438 73.253906 C 136.605469 73.253906 134.566406 73.035156 132.613281 71.570312 C 131.773438 70.941406 130.578125 71.109375 129.949219 71.953125 C 129.316406 72.796875 129.488281 73.988281 130.332031 74.621094 C 133.167969 76.746094 136.132812 77.0625 137.648438 77.0625 C 141.199219 77.0625 143.765625 75.53125 144.976562 74.617188 Z M 144.976562 74.617188 " fill-opacity="1" fill-rule="nonzero"/></svg>