<svg xmlns="http://www.w3.org/2000/svg" xmlns:xlink="http://www.w3.org/1999/xlink" width="400" zoomAndPan="magnify" viewBox="0 0 300 299.999988" height="400" preserveAspectRatio="xMidYMid meet" version="1.0"><defs><clipPath id="c64a415617"><path d="M 30 30 L 270 30 L 270 269.699219 L 30 269.699219 Z M 30 30 " clip-rule="nonzero"/></clipPath></defs><g clip-path="url(#c64a415617)"><path fill="currentColor" d="M 140.269531 147.382812 L 207.003906 127.035156 C 211.296875 125.726562 215.335938 123.761719 219.011719 121.195312 L 268.597656 86.597656 C 269.457031 85.996094 269.667969 84.8125 269.070312 83.953125 C 268.46875 83.09375 267.285156 82.882812 266.425781 83.484375 L 216.839844 118.082031 C 213.488281 120.421875 209.808594 122.210938 205.898438 123.402344 L 167.972656 134.96875 C 167.90625 134.757812 167.832031 134.550781 167.753906 134.34375 C 166.859375 132.003906 165.207031 130.171875 163.183594 129.015625 C 167.867188 127.816406 171.765625 124.117188 174.292969 118.480469 L 196.308594 111.769531 C 200.59375 110.460938 204.636719 108.496094 208.320312 105.929688 L 268.597656 63.863281 C 269.457031 63.265625 269.667969 62.082031 269.070312 61.222656 C 268.46875 60.363281 267.285156 60.152344 266.425781 60.75 L 206.148438 102.816406 C 202.792969 105.15625 199.109375 106.945312 195.203125 108.136719 L 175.894531 114.023438 C 177.15625 109.5 177.570312 104.503906 177 100.070312 C 176.859375 98.996094 176.65625 97.933594 176.394531 96.882812 C 179.414062 97.953125 182.484375 98.480469 185.402344 98.480469 C 191.132812 98.480469 196.28125 96.453125 199.359375 92.539062 C 204.105469 86.5 202.828125 77.433594 199.21875 71.972656 C 196.171875 67.359375 190.773438 64.316406 183.523438 63.078125 C 187.832031 53.835938 186.710938 43.464844 180.496094 37.601562 C 175.378906 32.773438 167.851562 32.09375 162.660156 33.558594 C 155.089844 35.699219 149.082031 43.121094 146.441406 53.136719 C 142.957031 46.28125 138.285156 40.496094 132.941406 36.511719 C 126.320312 31.582031 119.265625 29.71875 113.078125 31.261719 C 105.519531 33.144531 97.597656 40.546875 97.425781 49.671875 C 97.28125 57.183594 102.253906 64.261719 109.703125 68.015625 C 102.492188 70.089844 94.367188 74.273438 92.125 82.691406 C 90.011719 90.644531 93.726562 100.3125 100.40625 104.242188 C 102.886719 105.703125 105.804688 106.402344 108.910156 106.402344 C 114.226562 106.402344 120.097656 104.347656 125.28125 100.53125 C 125.101562 103.648438 124.953125 106.773438 124.820312 109.890625 C 124.804688 109.878906 124.789062 109.859375 124.769531 109.847656 L 124.644531 109.738281 C 122.453125 107.835938 119.546875 106.949219 116.664062 107.304688 C 113.785156 107.664062 111.179688 109.230469 109.515625 111.609375 C 99.960938 125.269531 90.40625 138.9375 80.851562 152.605469 L 79.546875 154.46875 C 77.28125 157.71875 74.476562 160.519531 71.214844 162.796875 L 31.058594 190.816406 C 30.199219 191.414062 29.988281 192.597656 30.589844 193.457031 C 30.957031 193.988281 31.546875 194.269531 32.148438 194.269531 C 32.523438 194.269531 32.902344 194.160156 33.230469 193.929688 L 73.386719 165.910156 C 77.019531 163.375 80.140625 160.257812 82.660156 156.644531 L 83.964844 154.78125 C 93.519531 141.113281 103.074219 127.445312 112.628906 113.785156 C 113.691406 112.265625 115.289062 111.300781 117.128906 111.074219 C 118.949219 110.851562 120.777344 111.410156 122.164062 112.613281 L 122.289062 112.722656 C 123.78125 114.011719 124.585938 115.882812 124.503906 117.851562 C 124.445312 119.242188 123.949219 120.550781 123.066406 121.632812 L 119.265625 126.304688 C 116.375 129.851562 113.488281 133.398438 110.601562 136.945312 C 108.90625 139.03125 108.796875 142.023438 110.335938 144.222656 C 111.464844 145.84375 113.320312 146.8125 115.300781 146.8125 C 116.042969 146.8125 116.769531 146.675781 117.460938 146.410156 L 155.59375 131.863281 C 159.03125 130.546875 162.898438 132.269531 164.210938 135.707031 C 164.257812 135.828125 164.300781 135.949219 164.339844 136.074219 L 139.160156 143.753906 C 134.644531 145.132812 131.863281 149.523438 132.550781 154.195312 C 133.238281 158.804688 137.269531 162.28125 141.929688 162.28125 C 142.441406 162.28125 142.972656 162.234375 143.515625 162.144531 L 165.929688 158.359375 L 156.175781 169.550781 C 154.378906 171.617188 152.320312 173.464844 150.046875 175.050781 L 117.21875 197.957031 C 113.296875 200.699219 111.738281 205.523438 113.085938 209.777344 C 106.796875 210.0625 100.628906 212.128906 95.449219 215.738281 L 31.050781 260.679688 C 30.1875 261.277344 29.980469 262.460938 30.578125 263.320312 C 30.949219 263.851562 31.539062 264.132812 32.136719 264.132812 C 32.511719 264.132812 32.890625 264.023438 33.222656 263.792969 L 97.621094 218.851562 C 102.757812 215.273438 108.996094 213.40625 115.242188 213.546875 C 116.511719 214.964844 118.125 216.003906 119.957031 216.554688 C 118.859375 219.636719 119.269531 223.082031 121.1875 225.882812 C 121.207031 225.914062 121.226562 225.941406 121.246094 225.972656 C 123.25 228.832031 126.464844 230.414062 129.777344 230.414062 C 130.449219 230.414062 131.128906 230.34375 131.800781 230.210938 C 133.832031 243.007812 136.292969 255.855469 139.125 268.433594 C 139.324219 269.316406 140.109375 269.914062 140.976562 269.914062 C 141.113281 269.914062 141.253906 269.898438 141.394531 269.867188 L 149.699219 268.003906 C 150.191406 267.894531 150.617188 267.589844 150.886719 267.164062 C 151.15625 266.738281 151.246094 266.222656 151.132812 265.734375 C 148.820312 255.472656 146.757812 245.011719 144.988281 234.578125 C 146.195312 235.046875 147.480469 235.289062 148.773438 235.289062 C 150.839844 235.289062 152.925781 234.675781 154.738281 233.410156 L 160.386719 229.472656 C 160.679688 230.207031 161.054688 230.910156 161.511719 231.554688 C 163.453125 234.335938 166.644531 235.992188 170.046875 235.992188 C 172.191406 235.992188 174.25 235.34375 176.003906 234.117188 L 217.882812 204.898438 C 222.664062 201.5625 226.878906 197.535156 230.417969 192.9375 L 245.90625 172.800781 C 249.214844 168.5 253.148438 164.746094 257.601562 161.636719 L 268.597656 153.960938 C 269.457031 153.363281 269.667969 152.179688 269.066406 151.320312 C 268.46875 150.460938 267.285156 150.25 266.425781 150.847656 L 255.429688 158.523438 C 250.65625 161.855469 246.441406 165.878906 242.894531 170.484375 L 227.40625 190.621094 C 224.105469 194.914062 220.171875 198.671875 215.710938 201.785156 L 173.828125 231.007812 C 172.714844 231.785156 171.410156 232.195312 170.046875 232.195312 C 167.882812 232.195312 165.855469 231.144531 164.621094 229.375 C 164.15625 228.71875 163.824219 227.984375 163.628906 227.207031 L 203.566406 199.34375 C 204.425781 198.742188 204.636719 197.558594 204.035156 196.699219 C 203.4375 195.839844 202.253906 195.628906 201.394531 196.230469 L 152.566406 230.296875 C 149.796875 232.230469 146.035156 231.78125 143.796875 229.238281 C 143.65625 229.082031 143.507812 228.894531 143.355469 228.675781 C 142.570312 227.554688 142.15625 226.25 142.15625 224.902344 C 142.15625 224.605469 142.1875 224.304688 142.230469 224.003906 L 184.566406 194.460938 C 185.429688 193.859375 185.636719 192.675781 185.039062 191.816406 C 184.4375 190.957031 183.253906 190.746094 182.394531 191.347656 L 133.5625 225.421875 C 133.234375 225.652344 132.894531 225.84375 132.550781 226 C 132.539062 226.003906 132.53125 226.011719 132.519531 226.019531 C 129.644531 227.332031 126.246094 226.425781 124.40625 223.867188 C 124.390625 223.839844 124.375 223.816406 124.355469 223.789062 C 122.921875 221.746094 122.773438 219.136719 123.910156 216.96875 C 125.699219 216.8125 127.425781 216.191406 128.945312 215.132812 L 177.777344 181.058594 C 178.636719 180.460938 178.847656 179.277344 178.246094 178.417969 C 177.648438 177.558594 176.464844 177.347656 175.605469 177.945312 L 126.773438 212.019531 C 125.277344 213.0625 123.464844 213.441406 121.671875 213.078125 C 119.886719 212.71875 118.363281 211.671875 117.386719 210.125 C 115.535156 207.199219 116.433594 203.136719 119.390625 201.070312 L 152.21875 178.164062 C 154.746094 176.402344 157.039062 174.339844 159.035156 172.042969 L 171.832031 157.359375 L 179.984375 155.980469 C 181.015625 155.808594 181.714844 154.828125 181.539062 153.792969 C 181.363281 152.761719 180.386719 152.066406 179.351562 152.238281 L 142.886719 158.402344 C 142.554688 158.457031 142.230469 158.484375 141.925781 158.484375 C 139.132812 158.484375 136.714844 156.402344 136.304688 153.640625 C 135.894531 150.839844 137.5625 148.210938 140.269531 147.382812 Z M 124.3125 139.734375 L 116.109375 142.863281 C 115.148438 143.230469 114.027344 142.882812 113.449219 142.050781 C 112.875 141.230469 112.914062 140.117188 113.546875 139.34375 C 116.433594 135.792969 119.320312 132.25 122.207031 128.703125 L 124.367188 126.050781 C 124.296875 130.605469 124.277344 135.175781 124.3125 139.734375 Z M 196.050781 74.066406 C 198.972656 78.480469 199.890625 85.722656 196.375 90.191406 C 192.238281 95.453125 183.011719 96.210938 174.710938 92.046875 C 171.824219 85.597656 166.578125 80.070312 159.859375 76.277344 C 163.628906 76.007812 168.148438 76.265625 173.027344 77.753906 C 180.230469 79.949219 185.242188 83.933594 188.179688 86.894531 C 188.550781 87.269531 189.039062 87.457031 189.527344 87.457031 C 190.007812 87.457031 190.492188 87.273438 190.863281 86.902344 C 191.605469 86.164062 191.613281 84.964844 190.871094 84.21875 C 187.628906 80.953125 182.09375 76.546875 174.132812 74.121094 C 166.582031 71.820312 159.816406 72.183594 155.003906 73.082031 C 154.71875 72.078125 154.242188 71.144531 153.605469 70.324219 C 163.246094 67.050781 172.65625 65.6875 180.394531 66.480469 C 187.761719 67.234375 193.320312 69.925781 196.050781 74.066406 Z M 149.066406 59.6875 C 150.398438 48.171875 156.136719 39.347656 163.695312 37.214844 C 167.851562 36.039062 173.855469 36.558594 177.890625 40.363281 C 183.164062 45.339844 183.789062 54.539062 179.523438 62.597656 C 170.90625 61.964844 160.59375 63.6875 150.207031 67.5 C 153.226562 61.695312 157.460938 56.703125 162.566406 52.972656 C 165.457031 50.859375 168.644531 49.125 172.039062 47.816406 C 173.019531 47.441406 173.507812 46.34375 173.128906 45.363281 C 172.753906 44.386719 171.65625 43.898438 170.675781 44.273438 C 166.96875 45.703125 163.484375 47.597656 160.324219 49.910156 C 155.804688 53.214844 151.914062 57.421875 148.847656 62.265625 C 148.894531 61.394531 148.96875 60.535156 149.066406 59.6875 Z M 101.21875 49.746094 C 101.359375 42.535156 107.957031 36.449219 113.996094 34.945312 C 123.703125 32.523438 137.980469 41.144531 145.246094 59.742188 C 145 62.066406 144.917969 64.457031 145.011719 66.882812 C 143.785156 64.113281 142.226562 61.503906 140.351562 59.097656 C 137.601562 55.574219 134.273438 52.601562 130.460938 50.261719 C 129.566406 49.710938 128.398438 49.992188 127.847656 50.882812 C 127.300781 51.777344 127.578125 52.945312 128.472656 53.496094 C 131.898438 55.597656 134.886719 58.269531 137.359375 61.433594 C 139.164062 63.75 140.648438 66.28125 141.785156 68.976562 C 141.589844 69.136719 141.402344 69.304688 141.222656 69.480469 C 134.46875 66.621094 127.269531 65.445312 120.3125 66.078125 C 119.644531 66.144531 118.339844 66.265625 116.757812 66.5 C 107.730469 64.574219 101.074219 57.421875 101.21875 49.746094 Z M 128.519531 92.304688 C 127.765625 93.199219 126.957031 94.0625 126.117188 94.867188 C 117.613281 103.050781 107.714844 104.132812 102.328125 100.972656 C 97.109375 97.898438 94.117188 89.976562 95.792969 83.667969 C 98.234375 74.507812 110.121094 71.363281 116.984375 70.304688 C 118.628906 70.050781 119.984375 69.925781 120.664062 69.859375 C 126.804688 69.300781 133.167969 70.304688 139.183594 72.75 C 138.929688 73.511719 138.789062 74.3125 138.765625 75.128906 C 134.277344 75.238281 129.789062 75.820312 125.417969 76.867188 C 120.199219 78.117188 115.144531 80.027344 110.398438 82.546875 C 109.472656 83.039062 109.121094 84.1875 109.613281 85.113281 C 109.953125 85.753906 110.613281 86.121094 111.292969 86.121094 C 111.589844 86.121094 111.894531 86.050781 112.179688 85.898438 C 116.644531 83.53125 121.394531 81.734375 126.300781 80.558594 C 130.644531 79.515625 135.09375 78.972656 139.570312 78.917969 C 140.117188 80.054688 140.90625 81.046875 141.882812 81.824219 C 141.320312 82.101562 140.753906 82.386719 140.199219 82.691406 L 140.203125 82.699219 C 140.203125 82.699219 140.203125 82.703125 140.203125 82.703125 L 140.199219 82.695312 C 135.8125 85.097656 131.882812 88.332031 128.519531 92.304688 Z M 144.109375 120.78125 C 142.148438 121.777344 139.175781 123.359375 136.6875 125.007812 C 136.710938 123.601562 136.738281 122.1875 136.773438 120.78125 C 136.96875 112.570312 137.96875 104.445312 139.746094 96.496094 L 140.316406 109.484375 C 140.496094 113.558594 141.828125 117.492188 144.109375 120.78125 Z M 136.601562 135.046875 C 136.601562 133.273438 136.609375 131.507812 136.625 129.757812 C 138.992188 127.738281 143.832031 125.152344 146.621094 123.769531 C 148.496094 125.613281 150.722656 127.097656 153.136719 128.089844 C 153.417969 128.207031 153.699219 128.3125 153.980469 128.414062 Z M 161.640625 125.476562 C 159.425781 125.894531 157.050781 125.59375 154.578125 124.578125 C 152.253906 123.625 150.140625 122.113281 148.460938 120.199219 C 145.832031 117.222656 144.285156 113.355469 144.109375 109.320312 L 143.058594 85.476562 C 144.21875 84.890625 145.402344 84.371094 146.589844 83.929688 C 146.875 83.820312 147.152344 83.71875 147.433594 83.613281 C 148.015625 83.585938 148.578125 83.5 149.121094 83.355469 C 150.871094 85.957031 152.386719 88.714844 153.636719 91.5625 C 157.050781 99.347656 158.519531 107.78125 158.003906 116.628906 C 157.945312 117.675781 158.742188 118.574219 159.789062 118.632812 C 159.828125 118.636719 159.863281 118.636719 159.902344 118.636719 C 160.898438 118.636719 161.734375 117.859375 161.792969 116.847656 C 162.34375 107.398438 160.769531 98.375 157.113281 90.039062 C 155.824219 87.101562 154.269531 84.257812 152.484375 81.566406 C 153.5625 80.617188 154.394531 79.398438 154.871094 78.011719 C 162.605469 81.457031 168.609375 87.253906 171.507812 94.167969 C 172.371094 96.21875 172.949219 98.371094 173.234375 100.558594 C 173.871094 105.492188 173.058594 111.519531 171.136719 116.230469 C 169.617188 119.917969 166.738281 124.515625 161.640625 125.476562 Z M 161.640625 125.476562 " fill-opacity="1" fill-rule="nonzero"/></g></svg>