<svg xmlns="http://www.w3.org/2000/svg" xmlns:xlink="http://www.w3.org/1999/xlink" width="400" zoomAndPan="magnify" viewBox="0 0 300 299.999988" height="400" preserveAspectRatio="xMidYMid meet" version="1.0"><path fill="#a9a0f0" d="M 220.789062 138.488281 C 241.964844 149.726562 265.726562 133.957031 263.230469 110.125 C 262.203125 100.417969 257.871094 90.632812 250.367188 84.179688 C 245.117188 79.644531 239.453125 75.746094 235.167969 70.222656 C 232.21875 66.417969 230.835938 61.488281 229.160156 57.027344 C 221.792969 43.511719 205.40625 34.675781 190.59375 42.792969 C 184.648438 46.042969 176.300781 50.761719 174.59375 57.984375 C 172.839844 65.414062 174.085938 74.148438 176.332031 81.351562 C 179.9375 92.972656 187.191406 102.988281 194.425781 112.628906 C 201.628906 122.242188 209.984375 132.753906 220.789062 138.488281 Z M 263.230469 93.3125 C 267.820312 102.859375 269.957031 114.417969 266.546875 124.714844 C 258.445312 149.109375 229.730469 152.738281 211.167969 137.710938 C 199.492188 128.273438 190.59375 115.980469 182.261719 103.625 C 174.054688 91.445312 165.875 74.070312 169.488281 58.832031 C 172.492188 46.152344 187.445312 35.96875 200.132812 35.15625 C 214.589844 34.230469 226.628906 42.261719 233.386719 54.777344 C 233.484375 54.957031 233.546875 55.132812 233.59375 55.304688 C 233.609375 55.320312 233.609375 55.335938 233.625 55.351562 C 235.726562 60.902344 237.417969 66.53125 241.878906 70.742188 C 245.070312 73.730469 248.558594 76.316406 251.863281 79.175781 C 256.484375 83.144531 260.582031 87.777344 263.230469 93.3125 " fill-opacity="1" fill-rule="nonzero"/><path fill="#a9a0f0" d="M 253.515625 124.140625 C 253.515625 125.03125 253.53125 125.863281 253.472656 126.613281 C 253.332031 128.09375 253.109375 129.277344 252.835938 130.074219 C 252.597656 130.867188 252.375 131.285156 252.179688 131.253906 C 252.003906 131.230469 251.878906 130.773438 251.796875 129.957031 C 251.75 129.160156 251.671875 128.011719 251.570312 126.613281 C 251.355469 123.839844 250.683594 120.070312 248.132812 116.9375 C 246.867188 115.351562 245.324219 114.0625 243.886719 112.921875 C 242.441406 111.769531 241.054688 110.796875 239.910156 109.941406 C 237.59375 108.234375 236.21875 107.019531 236.414062 106.703125 C 236.621094 106.378906 238.3125 107.003906 240.914062 108.3125 C 242.203125 108.980469 243.734375 109.808594 245.355469 110.929688 C 246.96875 112.023438 248.738281 113.375 250.234375 115.261719 C 251.734375 117.113281 252.691406 119.292969 253.125 121.285156 C 253.410156 122.273438 253.410156 123.246094 253.515625 124.140625 " fill-opacity="1" fill-rule="nonzero"/><path fill="#a9a0f0" d="M 236.140625 87.554688 C 237.207031 88.0625 240.605469 88.851562 240.441406 86.695312 C 240.320312 85.035156 239.300781 83.445312 238.375 82.117188 C 236.558594 79.492188 234.375 76.957031 231.902344 74.894531 C 230.535156 73.859375 228.984375 72.742188 227.277344 72.425781 C 225.097656 72.015625 226.386719 75.28125 226.820312 76.394531 C 228.425781 80.71875 231.917969 85.5 236.140625 87.554688 Z M 247.332031 101.105469 C 252.242188 103.785156 247.144531 96.039062 246.867188 95.636719 C 246.777344 95.507812 246.714844 95.382812 246.667969 95.265625 C 245.484375 93.105469 244.382812 90.875 243.269531 88.65625 C 241.800781 91.746094 237.097656 92.195312 233.800781 90.078125 C 228.875 86.886719 223.375 80.617188 222.828125 74.324219 C 221.429688 76.496094 221.714844 79.867188 223.632812 82.578125 C 225.941406 85.871094 228.859375 88.558594 231.988281 91.058594 C 234.773438 93.3125 238.234375 93.914062 241.023438 96.015625 C 243.121094 97.613281 245.023438 99.847656 247.332031 101.105469 Z M 249.773438 93.960938 C 251.71875 96.71875 254.921875 100.023438 252.820312 103.546875 C 251.269531 106.171875 247.71875 105.390625 245.625 103.992188 C 242.914062 102.15625 240.753906 99.382812 237.753906 98.03125 C 235.285156 96.898438 232.90625 96.085938 230.773438 94.363281 C 226.71875 91.113281 221.792969 87.382812 219.738281 82.410156 C 217.136719 76.140625 219.5625 70.6875 224.550781 69.28125 C 222.597656 68.394531 220.820312 67.496094 219.5 66.625 C 217.925781 65.542969 217.160156 64.632812 217.332031 64.316406 C 217.523438 63.976562 218.6875 64.347656 220.425781 64.964844 C 222.101562 65.542969 224.535156 66.371094 227.183594 67.535156 C 228.542969 68.136719 229.800781 68.824219 230.898438 69.558594 C 230.976562 69.574219 231.046875 69.589844 231.121094 69.621094 C 240.976562 72.839844 245.261719 85.871094 249.773438 93.960938 " fill-opacity="1" fill-rule="nonzero"/><path fill="#a9a0f0" d="M 235.394531 195.667969 C 237.054688 188.746094 239.570312 177.972656 235.316406 171.472656 C 231.394531 165.457031 224.234375 159.925781 217.316406 157.78125 C 202.75 153.277344 189.46875 160.183594 182.214844 173.078125 C 180.175781 178.289062 178.441406 183.980469 174.472656 188.113281 C 169.84375 192.941406 164.078125 196.355469 159.375 201.054688 C 152.484375 207.960938 147.675781 217.382812 147.273438 227.265625 C 146.925781 236.285156 149.359375 245.945312 156.710938 251.847656 C 165.90625 259.214844 179.160156 260.503906 189.421875 254.632812 C 200.804688 248.132812 209.699219 237.890625 217.445312 227.476562 C 224.699219 217.714844 232.519531 207.722656 235.394531 195.667969 Z M 241.863281 175.726562 C 245.261719 190.980469 236.859375 208.308594 228.441406 220.332031 C 219.902344 232.554688 210.875 244.703125 199.066406 253.976562 C 189.167969 261.777344 176.734375 265.648438 164.4375 261.34375 C 154.585938 257.886719 146.617188 250.519531 143.875 240.210938 C 141.117188 229.816406 142.460938 218.339844 147.636719 208.871094 C 150.585938 203.480469 154.363281 198.714844 159.195312 194.886719 C 163.195312 191.710938 167.882812 188.730469 171.105469 184.714844 C 174.339844 180.667969 175.898438 176.058594 177.785156 171.324219 C 177.800781 171.308594 177.800781 171.292969 177.816406 171.277344 C 177.859375 171.101562 177.945312 170.929688 178.039062 170.753906 C 184.957031 158.351562 197.121094 150.476562 211.578125 151.609375 C 224.25 152.613281 239.046875 163.007812 241.863281 175.726562 " fill-opacity="1" fill-rule="nonzero"/><path fill="#a9a0f0" d="M 206.921875 52.421875 C 211.367188 57.28125 212.929688 62.433594 212.296875 62.6875 C 211.59375 63.035156 209.027344 58.671875 204.941406 54.238281 C 202.90625 52.039062 200.851562 50.316406 199.207031 49.3125 C 197.660156 48.308594 196.355469 47.8125 196.464844 47.433594 C 196.542969 47.109375 197.839844 46.855469 200.023438 47.589844 C 202.125 48.277344 204.703125 50.015625 206.921875 52.421875 " fill-opacity="1" fill-rule="nonzero"/><path fill="#a9a0f0" d="M 211.277344 166.5625 C 211.578125 166.894531 209.296875 168.96875 206.378906 172.730469 C 204.882812 174.578125 203.445312 177 202.394531 179.890625 C 201.824219 181.339844 201.507812 182.855469 201.167969 184.492188 C 200.925781 186.277344 200.6875 187.96875 200.355469 189.945312 C 199.578125 193.757812 198.316406 197.234375 196.75 200.144531 C 195.265625 203.125 193.546875 205.582031 192 207.542969 C 188.78125 211.511719 186.1875 213.074219 185.976562 212.886719 C 185.636719 212.585938 187.890625 210.371094 190.472656 206.429688 C 191.761719 204.40625 193.226562 201.96875 194.519531 199.078125 C 195.894531 196.246094 196.988281 192.925781 197.707031 189.449219 C 197.871094 188.546875 198.007812 187.652344 198.15625 186.769531 C 198.277344 185.882812 198.425781 184.984375 198.558594 184.128906 C 198.949219 182.34375 199.398438 180.523438 200.085938 178.992188 C 201.390625 175.851562 203.160156 173.300781 204.914062 171.503906 C 208.402344 167.851562 211.097656 166.335938 211.277344 166.5625 " fill-opacity="1" fill-rule="nonzero"/><path fill="#a9a0f0" d="M 209.191406 161.78125 C 209.222656 161.949219 208.773438 162.21875 208.007812 162.53125 C 207.214844 162.785156 206.15625 163.308594 204.882812 163.925781 C 202.378906 165.300781 199.507812 168.011719 196.78125 171.609375 C 196.417969 172.089844 196.132812 172.492188 195.699219 173 C 195.28125 173.433594 194.890625 173.859375 194.488281 174.289062 C 193.644531 175.070312 192.8125 175.820312 191.96875 176.414062 C 190.292969 177.640625 188.71875 178.546875 187.429688 179.292969 C 184.863281 180.761719 183.265625 181.796875 183.011719 181.511719 C 182.789062 181.242188 183.898438 179.695312 186.347656 177.734375 C 188.71875 175.757812 192.09375 173.589844 194.648438 169.972656 C 197.46875 166.214844 201.027344 163.277344 204.101562 162.207031 C 205.628906 161.710938 206.90625 161.441406 207.800781 161.511719 C 208.695312 161.488281 209.175781 161.585938 209.191406 161.78125 " fill-opacity="1" fill-rule="nonzero"/><path fill="#a9a0f0" d="M 184.300781 192.460938 C 184.632812 191.488281 186.117188 187.9375 183.890625 188.492188 C 182.140625 188.925781 180.640625 189.867188 179.195312 190.917969 C 176.734375 192.910156 174.417969 195.394531 172.648438 198.015625 C 171.804688 199.257812 170.5 200.980469 170.515625 202.570312 C 170.546875 204.625 173.589844 204.144531 174.804688 203.480469 C 178.917969 201.234375 182.773438 196.964844 184.300781 192.460938 Z M 187.398438 198.703125 C 188.972656 196.023438 189.152344 193.011719 188.195312 190.886719 C 187.160156 196.925781 182.277344 203.210938 177.113281 206.046875 C 174.53125 207.464844 171.777344 207.976562 169.125 206.414062 C 168.441406 206 167.945312 205.410156 167.628906 204.726562 C 166.492188 206.839844 165.367188 208.964844 164.167969 211.050781 C 164.121094 211.164062 164.054688 211.289062 163.960938 211.421875 C 163.882812 211.558594 163.78125 211.675781 163.691406 211.769531 C 163.003906 212.679688 162.269531 213.589844 161.667969 214.554688 C 159.738281 217.683594 163.945312 216.710938 165.398438 215.4375 C 167.242188 213.859375 169.113281 212.023438 171.375 211.035156 C 177.257812 208.4375 183.984375 204.515625 187.398438 198.703125 Z M 181.644531 185.132812 C 189.914062 183.804688 195.652344 191.25 191.105469 198.988281 C 188.386719 203.621094 184.191406 207.628906 179.746094 210.640625 C 176.269531 212.980469 172.300781 213.890625 169.082031 216.679688 C 167.464844 218.070312 165.921875 219.34375 164.039062 220.332031 C 161.984375 221.414062 158.703125 221.414062 157.730469 218.847656 C 156.355469 215.179688 158.988281 212.585938 161.085938 209.714844 C 165.699219 201.699219 170.910156 186.855469 181.644531 185.132812 " fill-opacity="1" fill-rule="nonzero"/><path fill="#a9a0f0" d="M 177.179688 151.523438 C 183.492188 144.289062 186.132812 134.148438 183.566406 124.667969 C 180.253906 112.339844 173.003906 101.359375 165.203125 91.382812 C 157.636719 81.675781 149.953125 71.28125 138.933594 65.25 C 132.445312 61.699219 122.4375 56.324219 114.816406 59.148438 C 108.296875 61.558594 101.261719 66.878906 97.363281 72.988281 C 96.898438 74.71875 96.753906 76.828125 97.054688 79.121094 C 97.410156 81.675781 98.28125 84.417969 99.609375 87.160156 C 102.25 92.625 105.917969 96.941406 108.792969 99.753906 C 111.65625 102.574219 113.859375 103.863281 113.6875 104.234375 C 113.570312 104.550781 110.9375 103.816406 107.546875 101.183594 C 104.179688 98.601562 100.050781 94.234375 97.183594 88.316406 C 95.75 85.351562 94.835938 82.292969 94.582031 79.390625 C 94.566406 79.175781 94.582031 78.980469 94.566406 78.773438 C 90.519531 90.15625 94.296875 101.902344 103.117188 110.589844 C 106.921875 113.429688 111.277344 116.125 114.097656 119.996094 C 118.257812 125.703125 120.089844 132.273438 123.292969 138.472656 C 127.890625 147.347656 135.636719 154.9375 145.25 158.234375 C 153.9375 161.230469 164.167969 161.726562 172.046875 156.167969 C 172.363281 155.941406 172.664062 155.6875 172.988281 155.449219 C 172.734375 155.496094 172.476562 155.5625 172.199219 155.625 C 169.796875 156.003906 167.117188 155.957031 164.4375 155.480469 C 159.066406 154.445312 154.648438 152.421875 151.574219 150.859375 C 148.515625 149.261719 146.707031 148.121094 146.855469 147.78125 C 147.003906 147.433594 149.085938 147.972656 152.324219 149.109375 C 155.558594 150.203125 159.960938 151.878906 164.917969 152.839844 C 167.390625 153.261719 169.753906 153.378906 171.835938 153.171875 C 172.363281 153.09375 172.871094 153.007812 173.351562 152.929688 C 173.859375 152.867188 174.292969 152.660156 174.742188 152.542969 C 175.660156 152.34375 176.394531 151.878906 177.128906 151.539062 C 177.144531 151.539062 177.15625 151.523438 177.179688 151.523438 Z M 185.542969 115.5 C 190.695312 128.457031 190.617188 140.929688 182.457031 152.613281 C 176.8125 160.675781 166.878906 165.558594 157.058594 165.269531 C 146.105469 164.945312 135.203125 160.34375 127.519531 152.4375 C 122.878906 147.65625 119.632812 142.328125 117.078125 136.1875 C 113.078125 126.535156 108.644531 120.710938 100.257812 114.417969 C 100.257812 114.402344 100.242188 114.402344 100.242188 114.386719 C 100.089844 114.289062 99.925781 114.179688 99.78125 114.03125 C 89.625 104.070312 85.230469 90.277344 90.132812 76.617188 C 94.15625 65.457031 109.015625 51.574219 121.8125 53.804688 C 138.707031 56.769531 151.558594 67.148438 162.175781 80.015625 C 171.121094 90.859375 180.300781 102.332031 185.542969 115.5 " fill-opacity="1" fill-rule="nonzero"/><path fill="#a9a0f0" d="M 175.042969 219.179688 C 175.203125 219.453125 174.085938 220.933594 171.25 222.433594 C 168.585938 223.945312 164.484375 225.066406 161.265625 227.597656 C 161.1875 227.644531 161.011719 227.777344 161.011719 227.777344 L 160.710938 228.0625 C 160.515625 228.253906 160.246094 228.480469 160.152344 228.617188 C 159.867188 228.933594 159.589844 229.289062 159.335938 229.683594 C 158.878906 230.457031 158.554688 231.28125 158.332031 232.125 C 157.9375 233.832031 157.921875 235.566406 157.851562 237.050781 C 157.789062 240 157.441406 241.902344 157.078125 241.902344 C 156.710938 241.886719 156.371094 240.09375 155.960938 237.128906 C 155.78125 235.628906 155.558594 233.800781 155.914062 231.628906 C 156.097656 230.546875 156.46875 229.398438 157.085938 228.332031 C 157.398438 227.808594 157.757812 227.28125 158.222656 226.773438 C 158.445312 226.488281 158.617188 226.355469 158.824219 226.132812 L 159.132812 225.84375 C 159.351562 225.636719 159.417969 225.621094 159.558594 225.511719 C 161.503906 223.882812 163.675781 223.074219 165.535156 222.339844 C 167.4375 221.652344 169.113281 221.171875 170.476562 220.695312 C 173.140625 219.835938 174.816406 218.832031 175.042969 219.179688 " fill-opacity="1" fill-rule="nonzero"/><path fill="#a9a0f0" d="M 128.585938 129.6875 C 130.4375 130.101562 130.800781 127.167969 130.515625 125.925781 C 129.625 121.910156 126.992188 117.367188 123.742188 114.75 C 123.1875 114.304688 118.546875 110.394531 118.429688 112.867188 C 118.351562 114.75 118.878906 116.503906 119.535156 118.226562 C 120.839844 121.207031 122.707031 124.1875 124.839844 126.628906 C 125.8125 127.726562 127.085938 129.339844 128.585938 129.6875 Z M 138.285156 141.980469 C 140.894531 141.214844 141.265625 139.75 139.363281 137.59375 C 138.390625 135.539062 137.179688 133.355469 136.863281 131.0625 C 135.996094 124.84375 133.945312 117.429688 129.449219 112.652344 C 128.074219 110.929688 126.304688 109.714844 124.121094 109.027344 C 123.308594 109.152344 122.605469 109.34375 121.957031 109.570312 C 127.550781 112.425781 132.816406 118.914062 133.75 125.066406 C 134.277344 128.425781 132.59375 132.257812 129.765625 132.96875 C 131.503906 134.628906 133.257812 136.289062 134.964844 137.996094 C 135.078125 138.074219 135.171875 138.164062 135.265625 138.296875 C 135.394531 138.40625 135.472656 138.535156 135.558594 138.660156 C 136.414062 139.792969 137.242188 141.054688 138.285156 141.980469 Z M 143.960938 140.960938 C 144.351562 143.078125 143.425781 145.917969 140.992188 146.203125 C 136.984375 146.699219 135.1875 143.523438 132.894531 140.636719 C 126.199219 133.941406 112.761719 124.535156 114.691406 113.359375 C 116.058594 105.375 124.839844 102.875 130.5625 108.953125 C 134.167969 112.773438 137.117188 117.824219 138.675781 122.867188 C 140.050781 127.300781 140.414062 131.570312 142.269531 135.917969 C 143.015625 137.65625 143.605469 139.09375 143.960938 140.960938 " fill-opacity="1" fill-rule="nonzero"/><path fill="#a9a0f0" d="M 102.398438 206.015625 C 111.132812 196.484375 111.910156 183.605469 106.558594 172.152344 C 103.59375 167.519531 99.910156 162.785156 98.890625 157.199219 C 97.902344 151.796875 97.933594 146.429688 97.53125 140.976562 C 96.707031 129.371094 91.316406 117.625 81.53125 110.8125 C 72.652344 104.628906 60.9375 101.839844 51.113281 107.878906 C 39.847656 114.8125 35.144531 125.730469 35.808594 138.730469 C 36.417969 150.3125 39.382812 161.632812 43.019531 172.613281 C 46.988281 184.625 51.050781 196.398438 60.28125 205.550781 C 67.359375 212.546875 74.757812 218.292969 85.292969 215.117188 C 91.445312 213.25 97.933594 210.894531 102.398438 206.015625 Z M 110.992188 170.4375 C 115.773438 181.078125 116.746094 194.300781 109.8125 204.339844 C 102.875 214.371094 87.539062 223.390625 74.945312 220.601562 C 60.789062 217.472656 48.511719 201.683594 43.605469 188.730469 C 38.339844 174.878906 33.621094 160.582031 31.644531 145.863281 C 30.023438 133.816406 30.917969 120.09375 39.847656 110.914062 C 48.179688 102.347656 59.964844 97.214844 71.933594 100.835938 C 83.332031 104.28125 93.292969 112.882812 98.128906 123.871094 C 100.929688 130.265625 102.1875 136.589844 102.429688 143.570312 C 102.605469 148.40625 102.398438 153.804688 104.164062 158.367188 C 105.710938 162.320312 108.074219 165.695312 110.351562 169.242188 C 110.484375 169.378906 110.605469 169.558594 110.707031 169.78125 C 110.847656 170.003906 110.921875 170.230469 110.992188 170.4375 " fill-opacity="1" fill-rule="nonzero"/><path fill="#a9a0f0" d="M 102.652344 187.757812 C 103.117188 189.75 103.238281 191.605469 103.117188 193.148438 C 102.984375 194.695312 102.605469 195.953125 102.113281 196.722656 C 101.648438 197.488281 101.183594 197.757812 101.0625 197.660156 C 100.738281 197.417969 101.515625 195.890625 101.214844 193.132812 C 101.109375 191.78125 100.808594 190.152344 100.257812 188.429688 C 99.71875 186.707031 98.90625 184.792969 97.789062 183.234375 L 97.410156 182.738281 L 96.828125 182.167969 C 96.480469 181.898438 96.148438 181.640625 95.808594 181.386719 C 95.417969 181.164062 95 180.96875 94.597656 180.746094 C 94.203125 180.554688 93.742188 180.414062 93.324219 180.238281 C 91.585938 179.582031 89.878906 179.085938 88.511719 178.40625 C 85.578125 177.046875 84.574219 175.472656 84.75 175.234375 C 84.992188 174.863281 86.597656 175.964844 89.175781 176.636719 C 90.503906 177.03125 92.195312 177.316406 94.105469 177.898438 C 94.597656 178.050781 95.09375 178.167969 95.601562 178.390625 C 96.121094 178.628906 96.644531 178.832031 97.167969 179.125 C 97.679688 179.488281 98.171875 179.820312 98.699219 180.253906 L 99.285156 180.824219 L 99.941406 181.613281 C 101.410156 183.679688 102.15625 185.78125 102.652344 187.757812 " fill-opacity="1" fill-rule="nonzero"/><path fill="#a9a0f0" d="M 89.53125 167.386719 C 89.484375 167.339844 89.4375 167.324219 89.386719 167.277344 C 84.417969 162.9375 81.753906 154.203125 82.882812 147.765625 C 83.507812 144.210938 86.488281 141.371094 89.4375 141.800781 C 88.351562 139.523438 87.238281 137.261719 86.179688 134.96875 C 86.179688 134.945312 86.179688 134.929688 86.164062 134.914062 C 86.101562 134.804688 86.058594 134.691406 86.027344 134.566406 C 85.429688 132.753906 81.710938 126.464844 81.949219 132.09375 C 82.085938 135.0625 82.402344 137.894531 82.085938 140.859375 C 81.460938 146.636719 80.367188 151.480469 81.640625 157.285156 C 82.203125 159.851562 84.84375 168.570312 89.53125 167.386719 Z M 92.898438 164.597656 C 93.757812 162.878906 93.800781 160.898438 93.785156 159.023438 C 93.625 155.925781 92.929688 152.707031 91.910156 149.789062 C 91.175781 147.703125 87.824219 141.742188 86.40625 147.285156 C 85.355469 151.371094 86.390625 157.125 88.558594 160.738281 C 89.007812 161.511719 91.871094 166.636719 92.898438 164.597656 Z M 89.214844 133.5625 C 93.757812 143.449219 102.1875 155.894531 95.863281 166.722656 C 91.09375 174.832031 82.070312 168.375 79.570312 162.382812 C 77.460938 157.363281 77.339844 150.953125 77.640625 145.632812 C 77.878906 141.742188 78.882812 138.265625 78.707031 134.28125 C 78.628906 132.714844 78.375 130.535156 78.984375 128.96875 C 80.125 125.941406 81.769531 124.953125 84.953125 125.71875 C 87.648438 126.375 88.542969 131.394531 89.214844 133.5625 " fill-opacity="1" fill-rule="nonzero"/><path fill="#a9a0f0" d="M 74.945312 118.558594 C 75.679688 121.988281 75.363281 124.96875 75.167969 127.089844 C 74.898438 129.207031 74.542969 130.519531 74.179688 130.519531 C 73.800781 130.519531 73.476562 129.191406 73.261719 127.089844 C 72.984375 124.984375 72.953125 122.070312 72.320312 119.152344 C 70.898438 113.398438 66.960938 109.554688 67.691406 108.953125 C 67.964844 108.695312 69.066406 109.460938 70.6875 110.945312 C 71.074219 111.335938 71.4375 111.816406 71.855469 112.328125 C 72.25 112.851562 72.742188 113.34375 73.058594 114.03125 C 73.429688 114.703125 73.832031 115.375 74.164062 116.125 C 74.417969 116.90625 74.691406 117.714844 74.945312 118.558594 " fill-opacity="1" fill-rule="nonzero"/></svg>