<svg xmlns="http://www.w3.org/2000/svg" xmlns:xlink="http://www.w3.org/1999/xlink" width="400" zoomAndPan="magnify" viewBox="0 0 300 299.999988" height="400" preserveAspectRatio="xMidYMid meet" version="1.0"><path fill="#a9a0f0" d="M 145.171875 197.148438 C 145.71875 197.917969 146.289062 198.6875 146.851562 199.476562 C 146.597656 196.703125 146.34375 193.917969 145.6875 191.171875 C 143.226562 180.996094 141.660156 170.175781 144.152344 159.957031 C 135.429688 164.316406 126.222656 167.546875 116.609375 169.015625 C 117.226562 169.355469 117.855469 169.683594 118.464844 170.039062 C 129.867188 176.652344 137.566406 186.558594 145.171875 197.148438 Z M 158.132812 233.832031 C 158 233.734375 157.855469 233.640625 157.703125 233.554688 C 157.253906 233.316406 156.800781 233.09375 156.339844 232.902344 C 155.417969 232.511719 154.503906 232.1875 153.65625 231.910156 C 151.902344 231.355469 150.410156 230.878906 149.179688 230.496094 C 146.710938 229.742188 145.367188 229.070312 145.472656 228.863281 C 145.527344 228.78125 146.878906 229.085938 149.425781 229.550781 C 150.6875 229.804688 152.25 230.109375 154.039062 230.554688 C 154.824219 230.765625 155.65625 231.003906 156.53125 231.292969 C 155.941406 230.394531 155.417969 229.457031 154.964844 228.480469 C 154.457031 228.195312 153.925781 227.917969 153.355469 227.664062 C 152.585938 227.3125 151.609375 226.949219 150.671875 226.566406 C 149.726562 226.210938 148.734375 225.828125 147.710938 225.425781 C 145.664062 224.625 143.425781 223.75 141.152344 222.566406 C 140.589844 222.234375 140.027344 221.914062 139.453125 221.589844 C 138.890625 221.210938 138.320312 220.828125 137.757812 220.441406 C 137.167969 220.042969 136.722656 219.628906 136.191406 219.210938 C 135.667969 218.78125 135.136719 218.351562 134.597656 217.921875 C 132.539062 216.273438 130.460938 214.484375 128.0625 212.96875 C 123.445312 209.738281 118.648438 207.183594 114.355469 204.738281 C 110.011719 202.355469 106.128906 200.117188 102.929688 198.109375 C 101.335938 197.054688 99.914062 196.09375 98.667969 195.25 C 97.4375 194.386719 96.492188 193.527344 95.675781 192.878906 C 94.0625 191.511719 93.214844 190.695312 93.316406 190.566406 C 93.421875 190.425781 94.460938 190.980469 96.238281 192.085938 C 97.144531 192.625 98.199219 193.378906 99.484375 194.109375 C 100.757812 194.847656 102.210938 195.679688 103.828125 196.59375 C 107.089844 198.378906 111.035156 200.441406 115.441406 202.707031 C 119.832031 205.054688 124.707031 207.570312 129.484375 210.90625 C 131.929688 212.453125 134.097656 214.335938 136.214844 216.082031 C 136.722656 216.496094 137.222656 216.929688 137.730469 217.34375 C 138.234375 217.742188 138.734375 218.234375 139.242188 218.558594 C 139.726562 218.914062 140.21875 219.257812 140.710938 219.597656 C 141.226562 219.929688 141.75 220.21875 142.25 220.535156 C 144.34375 221.703125 146.480469 222.621094 148.496094 223.496094 C 149.519531 223.941406 150.496094 224.386719 151.433594 224.804688 C 152.308594 225.203125 153.09375 225.542969 153.925781 225.972656 C 153.59375 225.074219 153.316406 224.164062 153.0625 223.21875 C 151.5625 217.773438 149.964844 212.898438 147.1875 208.105469 C 146.910156 207.867188 146.625 207.613281 146.296875 207.390625 C 144.679688 206.144531 142.820312 205.023438 140.890625 203.847656 C 139.9375 203.253906 138.929688 202.664062 138.027344 202.054688 L 137.328125 201.609375 L 136.945312 201.355469 L 136.613281 201.125 C 136.175781 200.808594 135.746094 200.5 135.296875 200.1875 C 133.558594 198.941406 131.898438 197.738281 130.300781 196.585938 C 127.125 194.285156 124.292969 192.179688 121.941406 190.386719 C 117.210938 186.78125 114.371094 184.417969 114.578125 184.144531 C 114.773438 183.859375 117.964844 185.695312 122.945312 188.933594 C 125.4375 190.550781 128.367188 192.488281 131.621094 194.703125 C 133.253906 195.808594 134.945312 196.972656 136.707031 198.171875 C 137.152344 198.476562 137.582031 198.792969 138.027344 199.09375 L 138.367188 199.324219 L 138.496094 199.417969 L 138.675781 199.53125 L 139.359375 199.960938 C 140.3125 200.570312 141.210938 201.109375 142.195312 201.714844 C 142.679688 202.007812 143.160156 202.308594 143.644531 202.617188 C 136.75 192.242188 128.816406 181.191406 118.0625 174.945312 C 108.171875 169.207031 97.261719 165.675781 87.253906 160.238281 C 79.09375 155.789062 71.410156 151.773438 62.890625 150.558594 C 63.511719 150.78125 64.121094 151.011719 64.726562 151.265625 C 67.367188 152.347656 69.917969 153.625 72.15625 154.902344 C 76.695312 157.433594 80.816406 159.65625 84.179688 161.710938 C 90.914062 165.832031 94.976562 168.515625 94.800781 168.808594 C 94.636719 169.109375 90.261719 166.96875 83.355469 163.261719 C 79.847656 161.46875 75.703125 159.316406 71.074219 156.949219 C 68.757812 155.703125 66.40625 154.570312 63.804688 153.535156 C 61.230469 152.527344 58.5 151.609375 55.699219 151.117188 C 54.214844 150.863281 52.746094 150.75 51.40625 150.925781 C 51.039062 150.972656 50.683594 151.058594 50.339844 151.164062 C 54.214844 152.171875 57.605469 153.757812 60.621094 155.300781 C 62.460938 156.339844 64.183594 157.300781 65.691406 158.355469 C 66.441406 158.871094 67.1875 159.347656 67.890625 159.855469 C 68.550781 160.371094 69.1875 160.863281 69.796875 161.332031 C 74.6875 165.207031 76.933594 168.152344 76.773438 168.324219 C 76.519531 168.585938 73.835938 165.992188 68.867188 162.609375 C 68.242188 162.195312 67.589844 161.746094 66.890625 161.292969 C 66.195312 160.847656 65.453125 160.417969 64.683594 159.957031 C 63.167969 158.996094 61.453125 158.132812 59.644531 157.195312 C 56.484375 155.71875 52.921875 154.15625 49.007812 153.3125 C 49.261719 154.171875 49.46875 155.019531 49.664062 155.816406 C 50.0625 157.59375 50.386719 159.261719 50.878906 160.738281 C 52.808594 164.832031 55.03125 168.070312 56.523438 170.382812 C 58.066406 172.691406 58.914062 174.089844 58.722656 174.253906 C 58.53125 174.398438 57.328125 173.300781 55.460938 171.199219 C 53.621094 169.0625 51.054688 165.945312 48.800781 161.632812 L 48.800781 161.617188 L 48.769531 161.523438 C 47.746094 158.933594 47.363281 155.964844 46.402344 153.339844 C 45.6875 153.980469 45 154.664062 44.378906 155.371094 C 44.101562 155.894531 43.832031 156.441406 43.59375 156.996094 C 42.957031 158.578125 42.554688 160.226562 42.300781 161.824219 C 41.816406 165.015625 41.996094 167.992188 42.410156 170.40625 C 42.855469 172.816406 43.546875 174.746094 44.171875 175.914062 C 44.792969 177.160156 45.300781 177.835938 45.125 177.960938 C 45.015625 178.035156 44.324219 177.628906 43.386719 176.476562 C 42.378906 175.289062 41.402344 173.359375 40.6875 170.800781 C 40.078125 168.515625 39.742188 165.722656 39.949219 162.671875 C 34.105469 177.007812 39.386719 196.925781 46.679688 208.96875 C 55.960938 224.28125 69.574219 236.808594 86.910156 242.09375 C 99.558594 245.945312 113.011719 248.53125 126.269531 248.53125 C 136.898438 248.546875 150.863281 247.207031 156.5625 237.507812 C 155.601562 237.746094 154.648438 237.855469 153.671875 237.953125 C 152.316406 238.046875 150.925781 238.148438 149.488281 238.253906 C 148.847656 238.324219 148.179688 238.402344 147.441406 238.578125 C 146.703125 238.738281 145.957031 238.917969 145.21875 239.085938 C 144.449219 239.277344 143.558594 239.277344 142.710938 239.378906 C 141.898438 239.339844 141.019531 239.308594 140.21875 239.230469 C 139.40625 239.140625 138.589844 239.054688 137.773438 238.960938 C 137.058594 238.878906 136.351562 238.863281 135.589844 238.933594 C 134.097656 239.085938 132.566406 239.570312 130.761719 239.96875 C 130.332031 240.0625 129.914062 240.140625 129.484375 240.207031 C 128.9375 240.285156 128.554688 240.300781 128.0625 240.347656 L 126.699219 240.429688 C 126.238281 240.460938 125.761719 240.414062 125.300781 240.402344 L 123.921875 240.347656 L 122.570312 240.164062 C 121.65625 240.0625 120.777344 239.929688 119.949219 239.746094 L 118.703125 239.515625 L 117.386719 239.199219 C 116.585938 239.023438 115.78125 238.832031 114.996094 238.640625 C 114.195312 238.460938 113.441406 238.238281 112.640625 238.109375 C 111.828125 237.96875 111.035156 237.839844 110.25 237.703125 C 108.648438 237.441406 107.179688 237.203125 105.628906 236.886719 C 99.46875 235.792969 94.253906 233.734375 89.992188 231.917969 C 85.738281 230.0625 82.386719 228.449219 80.0625 227.339844 C 77.71875 226.257812 76.457031 225.574219 76.519531 225.410156 C 76.570312 225.25 77.972656 225.617188 80.417969 226.433594 C 82.878906 227.28125 86.363281 228.65625 90.660156 230.273438 C 94.960938 231.863281 100.105469 233.703125 105.996094 234.617188 C 107.511719 234.855469 109.050781 235.09375 110.617188 235.347656 C 111.410156 235.464844 112.210938 235.578125 113.027344 235.71875 C 113.824219 235.832031 114.640625 236.054688 115.472656 236.238281 C 116.300781 236.433594 117.132812 236.625 117.980469 236.800781 L 119.148438 237.0625 L 120.410156 237.300781 C 121.253906 237.46875 122.085938 237.601562 122.902344 237.6875 L 124.148438 237.855469 L 125.394531 237.894531 C 125.808594 237.910156 126.222656 237.953125 126.636719 237.941406 L 127.871094 237.855469 L 129.039062 237.761719 C 129.453125 237.671875 129.898438 237.617188 130.300781 237.523438 C 131.84375 237.203125 133.542969 236.664062 135.367188 236.5 C 136.273438 236.402344 137.214844 236.441406 138.113281 236.5625 C 138.914062 236.65625 139.699219 236.753906 140.488281 236.847656 C 141.273438 236.933594 141.972656 236.960938 142.710938 237.023438 C 143.425781 236.933594 144.089844 236.976562 144.804688 236.808594 C 145.542969 236.664062 146.289062 236.515625 146.996094 236.371094 C 147.710938 236.21875 148.511719 236.132812 149.296875 236.054688 C 150.796875 235.972656 152.1875 235.941406 153.527344 235.878906 C 154.808594 235.800781 156.117188 235.65625 157.046875 235.363281 C 157.316406 235.238281 157.539062 235.140625 157.761719 235.046875 C 157.910156 234.664062 158.015625 234.234375 158.132812 233.832031 Z M 178.421875 119.265625 C 178.121094 117.632812 177.859375 115.988281 177.621094 114.34375 C 176.699219 114.863281 175.78125 115.574219 174.8125 116.371094 C 172.367188 118.257812 169.820312 120.257812 167.121094 122.292969 C 164.390625 124.246094 161.632812 126.402344 158.671875 128.386719 C 155.703125 130.382812 152.839844 132.390625 149.933594 134.105469 C 148.496094 135 147.074219 135.859375 145.6875 136.722656 C 144.28125 137.539062 142.875 138.261719 141.511719 139.007812 C 140.144531 139.746094 138.8125 140.460938 137.503906 141.152344 C 136.191406 141.789062 134.867188 142.367188 133.621094 142.945312 C 131.097656 144.089844 128.777344 145.1875 126.515625 145.914062 C 124.292969 146.695312 122.277344 147.398438 120.507812 148.019531 C 118.703125 148.449219 117.164062 148.820312 115.886719 149.132812 C 113.332031 149.710938 111.910156 149.949219 111.847656 149.78125 C 111.8125 149.621094 113.15625 149.058594 115.617188 148.195312 C 116.847656 147.78125 118.363281 147.265625 120.125 146.679688 C 121.816406 145.972656 123.746094 145.160156 125.878906 144.265625 C 128.03125 143.464844 130.285156 142.28125 132.714844 141.074219 C 133.945312 140.46875 135.207031 139.84375 136.5 139.199219 C 137.757812 138.484375 139.066406 137.746094 140.382812 136.984375 C 141.71875 136.230469 143.097656 135.492188 144.472656 134.660156 C 145.828125 133.800781 147.21875 132.921875 148.625 132.03125 C 151.472656 130.316406 154.308594 128.308594 157.230469 126.324219 C 160.179688 124.355469 162.921875 122.246094 165.667969 120.316406 C 168.351562 118.316406 170.929688 116.386719 173.390625 114.550781 C 174.566406 113.640625 175.8125 112.679688 177.289062 112.042969 C 176.90625 109.003906 176.660156 105.953125 176.488281 102.90625 C 172.328125 106.511719 167.589844 108.703125 163.371094 110.472656 C 158.949219 112.28125 154.964844 113.703125 151.710938 115.109375 C 148.464844 116.511719 145.910156 117.824219 144.265625 118.863281 C 142.566406 119.886719 141.628906 120.523438 141.511719 120.378906 C 141.421875 120.257812 142.121094 119.386719 143.671875 118.078125 C 145.25 116.742188 147.742188 115.15625 150.957031 113.511719 C 154.1875 111.851562 158.164062 110.25 162.445312 108.351562 C 166.722656 106.4375 171.359375 104.183594 175.242188 100.683594 C 175.691406 100.296875 176.019531 99.992188 176.3125 99.644531 C 176.3125 99.613281 176.3125 99.574219 176.3125 99.542969 C 176.3125 99.320312 176.3125 99.113281 176.3125 98.90625 C 176.25 98.890625 176.199219 98.890625 176.136719 98.875 C 175.589844 98.8125 174.984375 98.800781 174.367188 98.8125 C 171.921875 98.875 169.429688 99.207031 167.078125 99.390625 C 162.394531 99.898438 158.046875 99.914062 154.515625 100.222656 C 152.75 100.34375 151.132812 100.460938 149.726562 100.550781 C 148.347656 100.746094 147.132812 100.890625 146.148438 101 C 144.164062 101.222656 143.035156 101.269531 142.996094 101.097656 C 142.949219 100.921875 144.003906 100.566406 145.957031 100.042969 C 146.933594 99.796875 148.140625 99.5 149.535156 99.160156 C 150.957031 98.921875 152.554688 98.714844 154.347656 98.476562 C 157.941406 97.929688 162.125 97.738281 166.824219 97.097656 C 169.183594 96.84375 171.613281 96.476562 174.3125 96.351562 C 174.953125 96.335938 175.605469 96.335938 176.296875 96.414062 C 176.296875 96.0625 176.328125 95.699219 176.34375 95.347656 C 173.511719 94.53125 170.738281 93.539062 167.976562 92.515625 C 166.660156 92.40625 165.292969 92.355469 163.886719 92.324219 C 158.03125 92.199219 151.5625 92.800781 144.726562 93.492188 C 138.042969 94.175781 131.707031 94.859375 126.015625 95.839844 C 124.59375 96.089844 123.222656 96.398438 121.878906 96.652344 C 121.207031 96.785156 120.539062 96.914062 119.910156 97.054688 C 119.253906 97.214844 118.632812 97.375 118.007812 97.53125 C 116.765625 97.851562 115.554688 98.152344 114.402344 98.445312 C 113.28125 98.792969 112.195312 99.160156 111.15625 99.5 C 102.929688 102.199219 98.222656 105.234375 98.019531 104.804688 C 97.929688 104.660156 99.042969 103.828125 101.105469 102.484375 C 101.621094 102.152344 102.199219 101.78125 102.835938 101.382812 C 103.503906 101.042969 104.242188 100.667969 105.050781 100.269531 C 105.851562 99.867188 106.6875 99.453125 107.613281 99.007812 C 108.519531 98.566406 109.527344 98.238281 110.566406 97.820312 C 111.601562 97.4375 112.6875 96.992188 113.839844 96.605469 C 115.011719 96.253906 116.210938 95.890625 117.472656 95.523438 C 118.109375 95.347656 118.746094 95.152344 119.402344 94.960938 C 120.054688 94.816406 120.714844 94.660156 121.402344 94.5 C 122.769531 94.207031 124.164062 93.847656 125.601562 93.585938 C 131.367188 92.4375 137.789062 91.683594 144.472656 91.015625 C 150.171875 90.421875 155.703125 89.976562 160.878906 89.992188 C 159.824219 89.65625 158.769531 89.324219 157.71875 89.03125 C 150.011719 86.894531 142.265625 86.714844 134.40625 88.15625 C 122.769531 90.308594 110.773438 93.421875 99.558594 97.214844 C 85.148438 102.074219 72.1875 111.179688 66.742188 123.910156 C 69.84375 120.878906 73.179688 118.734375 76.148438 117.324219 C 77.765625 116.480469 79.347656 116.003906 80.6875 115.496094 C 82.078125 115.109375 83.277344 114.820312 84.253906 114.625 C 86.253906 114.34375 87.355469 114.265625 87.386719 114.449219 C 87.5 114.917969 83.023438 115.472656 76.964844 118.894531 C 73.933594 120.585938 70.574219 123 67.527344 126.371094 C 67.144531 126.816406 66.757812 127.261719 66.359375 127.699219 L 66.058594 128.046875 C 66.058594 128.046875 65.929688 128.253906 65.882812 128.339844 L 65.4375 129.039062 C 65.289062 129.277344 65.128906 129.5 64.980469 129.730469 L 64.742188 130.332031 C 64.21875 132.847656 63.972656 135.492188 64.058594 138.246094 C 64.265625 137.84375 64.460938 137.429688 64.699219 137.058594 C 65.957031 135.046875 67.464844 133.277344 69.074219 131.800781 C 72.289062 128.800781 75.910156 127.183594 78.886719 126.132812 C 84.984375 124.164062 88.839844 124.101562 88.871094 124.324219 C 88.953125 124.722656 85.164062 125.394531 79.496094 127.683594 C 76.695312 128.902344 73.433594 130.59375 70.597656 133.414062 C 69.1875 134.808594 67.859375 136.4375 66.726562 138.320312 C 65.882812 139.746094 65.175781 141.3125 64.488281 142.9375 C 64.667969 144.074219 64.90625 145.21875 65.191406 146.375 C 71.328125 147.425781 77.226562 149.757812 83.246094 153.003906 C 91.730469 157.554688 100.757812 161.125 109.449219 165.308594 C 124.324219 164.460938 138.796875 158.902344 151.265625 150.878906 C 157.730469 146.710938 165.609375 142.011719 169.746094 135.320312 C 172.527344 130.816406 174.90625 126.179688 178.296875 122.109375 C 174.859375 125.285156 171.597656 127.09375 169.316406 128.292969 C 166.96875 129.515625 165.546875 129.914062 165.492188 129.761719 C 165.414062 129.601562 166.675781 128.902344 168.824219 127.46875 C 170.945312 126.015625 174.136719 123.925781 177.265625 120.671875 C 177.667969 120.234375 178.050781 119.757812 178.421875 119.265625 Z M 188.410156 66.296875 C 191.648438 65.019531 195.070312 65.097656 198.214844 66.160156 C 196.316406 62.867188 192.59375 59.460938 189.410156 61.683594 C 189.011719 63.214844 188.679688 64.753906 188.410156 66.296875 Z M 205.851562 170.261719 C 203.644531 168.570312 201.570312 166.761719 199.625 164.832031 C 199.609375 165.707031 199.539062 166.632812 199.355469 167.609375 C 198.984375 169.355469 198.332031 171.199219 197.433594 172.992188 C 195.578125 176.566406 193.355469 179.304688 191.75 181.265625 C 190.117188 183.1875 188.996094 184.335938 188.695312 184.144531 C 188.410156 183.949219 188.980469 182.464844 190.257812 180.257812 C 191.496094 178.035156 193.410156 175.152344 195.101562 171.84375 C 195.949219 170.199219 196.492188 168.585938 196.925781 167.09375 C 197.308594 165.578125 197.371094 164.183594 197.371094 162.976562 C 197.371094 162.960938 197.371094 162.953125 197.371094 162.925781 C 192.925781 158.039062 189.257812 152.480469 186.441406 146.167969 C 183.695312 140.011719 181.742188 133.589844 180.097656 127.039062 C 176.28125 132.390625 173.867188 138.738281 168.867188 143.183594 C 163.59375 147.890625 157.863281 152.1875 151.789062 155.789062 C 151.085938 156.1875 150.394531 156.585938 149.679688 156.996094 C 146.164062 166.730469 146.996094 177.605469 149.386719 187.542969 C 149.394531 187.597656 149.410156 187.640625 149.425781 187.6875 C 149.410156 186.394531 149.410156 185.089844 149.441406 183.742188 C 149.535156 176.699219 150.378906 170.230469 151.886719 165.769531 C 152.601562 163.53125 153.527344 161.824219 154.21875 160.6875 C 154.964844 159.632812 155.449219 159.09375 155.601562 159.171875 C 155.761719 159.261719 155.539062 159.957031 155.0625 161.15625 C 154.695312 162.339844 154.054688 164.03125 153.59375 166.246094 C 152.585938 170.597656 152.027344 176.828125 151.949219 183.789062 C 151.816406 189.957031 151.933594 195.617188 151.863281 200.039062 C 151.871094 200.171875 151.886719 200.308594 151.886719 200.453125 C 151.996094 202.800781 151.535156 206.308594 153.109375 208.34375 C 153.800781 207.96875 154.425781 207.707031 155.046875 207.4375 C 155.746094 207.136719 156.457031 206.847656 157.007812 206.5625 L 157.15625 206.492188 C 157.1875 206.460938 157.285156 206.382812 157.316406 206.382812 L 157.671875 206.046875 L 158.402344 205.363281 C 158.902344 204.945312 159.324219 204.324219 159.761719 203.816406 C 160.671875 202.753906 161.53125 201.523438 162.429688 200.5 L 163.085938 199.703125 L 163.886719 198.894531 C 164.378906 198.410156 164.871094 197.949219 165.355469 197.488281 C 169.269531 193.871094 172.769531 190.710938 175.289062 187.703125 C 177.796875 184.6875 179.34375 181.90625 179.941406 179.8125 C 180.097656 179.289062 180.210938 178.835938 180.320312 178.4375 C 180.433594 178.035156 180.449219 177.644531 180.527344 177.367188 C 180.628906 176.773438 180.734375 176.476562 180.804688 176.476562 C 180.898438 176.476562 180.972656 176.78125 181.027344 177.382812 C 181.027344 177.691406 181.105469 178.042969 181.058594 178.492188 C 181.011719 178.9375 180.957031 179.460938 180.898438 180.035156 C 180.542969 182.351562 179.136719 185.488281 176.683594 188.796875 C 174.222656 192.078125 170.738281 195.488281 166.960938 199.148438 C 166.5 199.609375 166.023438 200.085938 165.546875 200.554688 L 164.90625 201.207031 L 164.269531 202.007812 C 163.355469 203.109375 162.632812 204.207031 161.675781 205.363281 C 161.175781 205.9375 160.785156 206.546875 160.164062 207.101562 L 159.292969 207.929688 L 159.15625 208.046875 C 161.632812 206.863281 163.992188 205.585938 166.261719 204.371094 C 167.492188 203.699219 168.628906 203.191406 169.777344 202.648438 C 170.914062 202.101562 171.820312 201.445312 172.828125 200.902344 C 173.746094 200.246094 174.652344 199.59375 175.484375 198.957031 C 176.28125 198.246094 177.082031 197.609375 177.796875 196.925781 C 180.628906 194.210938 182.671875 191.65625 184.203125 190.027344 C 185.71875 188.363281 186.601562 187.496094 186.742188 187.597656 C 186.871094 187.703125 186.25 188.78125 184.972656 190.632812 C 183.671875 192.464844 181.84375 195.171875 179.042969 198.171875 C 178.34375 198.910156 177.542969 199.640625 176.742188 200.425781 C 175.882812 201.148438 174.96875 201.878906 173.984375 202.617188 C 172.945312 203.253906 171.882812 204.03125 170.769531 204.609375 C 169.792969 205.125 168.722656 205.644531 167.746094 206.191406 C 170.382812 205.421875 172.929688 204.4375 175.242188 202.976562 C 179.351562 200.363281 183.433594 197.648438 187.226562 194.59375 C 195.148438 188.234375 203.699219 180.582031 205.851562 170.261719 Z M 201.222656 66.222656 C 201.03125 64.058594 201.699219 61.953125 203.890625 59.96875 C 201.152344 58.835938 198.394531 57.730469 195.664062 56.554688 C 195.015625 57.207031 194.617188 58.113281 194.464844 59.015625 C 197.355469 60.335938 199.894531 63.296875 201.222656 66.222656 Z M 207.054688 79.75 C 206.300781 77.402344 204.832031 75.003906 203.554688 72.597656 C 199.554688 68.445312 193.261719 66.621094 187.941406 69.488281 C 187.511719 73.179688 187.449219 76.894531 187.6875 80.609375 C 190.863281 76.871094 197.476562 77.050781 202.609375 78.378906 C 204.03125 78.757812 205.554688 79.179688 207.054688 79.75 Z M 214.988281 96.269531 C 214.898438 95.777344 214.8125 95.277344 214.71875 94.753906 C 214.628906 94.59375 214.589844 94.398438 214.574219 94.175781 C 214.558594 93.9375 214.527344 93.714844 214.511719 93.492188 C 214.382812 92.738281 214.226562 91.960938 214.050781 91.222656 C 213.597656 89.640625 212.882812 88.15625 212.183594 86.671875 C 211.960938 86.363281 211.730469 86.03125 211.460938 85.769531 C 209.289062 83.617188 206.90625 82.402344 204 81.539062 C 198.953125 80.070312 188.839844 77.941406 188.519531 85.839844 C 188.503906 86.078125 188.425781 86.285156 188.324219 86.464844 C 188.933594 90.46875 189.894531 94.4375 191.140625 98.34375 C 196.253906 93.792969 203.921875 92.515625 210.519531 94.398438 C 212.183594 94.875 213.667969 95.507812 214.988281 96.269531 Z M 218.144531 108.925781 C 219.050781 109.050781 219.882812 109.273438 220.664062 109.566406 C 219.351562 102.882812 215.550781 97.660156 208.199219 96.636719 C 202.253906 95.792969 196.347656 96.714844 192.09375 101.128906 C 193.992188 106.398438 196.394531 111.480469 199.207031 116.304688 C 202.945312 110.902344 212.320312 108.160156 218.144531 108.925781 Z M 220.964844 68.503906 C 220.472656 68.167969 220.003906 67.828125 219.496094 67.496094 C 215.328125 64.875 210.921875 62.882812 206.476562 61.023438 C 206.398438 61.214844 206.300781 61.40625 206.105469 61.566406 C 203.039062 64.144531 203.667969 67.351562 205.246094 70.644531 C 207.558594 73.011719 209.269531 76.027344 209.929688 79.316406 C 210.007812 79.316406 210.074219 79.304688 210.152344 79.304688 C 210.167969 78.695312 210.246094 78.058594 210.40625 77.402344 C 211.589844 72.613281 216.289062 69.449219 220.964844 68.503906 Z M 233.6875 81.75 C 230.777344 77.703125 227.578125 73.902344 223.902344 70.757812 C 223.765625 70.804688 223.664062 70.851562 223.503906 70.851562 C 216.289062 71.074219 210.484375 77.640625 214.019531 84.554688 C 215.210938 86.863281 216.304688 89.03125 216.875 91.429688 C 216.914062 91.316406 216.957031 91.191406 217.019531 91.0625 C 220.359375 84.65625 226.832031 82.03125 233.6875 81.75 Z M 227.488281 124.085938 C 227.742188 124.148438 228.011719 124.203125 228.273438 124.261719 C 227.773438 122.601562 227.148438 120.878906 226.378906 119.25 C 226.09375 118.75 225.824219 118.257812 225.585938 117.742188 C 223.410156 113.910156 220.148438 110.972656 215.121094 111.382812 C 210.628906 111.734375 203.054688 114.503906 200.785156 118.878906 C 203.054688 122.5 205.554688 125.941406 208.214844 129.140625 C 208.550781 129.570312 208.921875 129.984375 209.277344 130.414062 C 212.46875 124.617188 221.441406 122.839844 227.488281 124.085938 Z M 240.507812 143.289062 C 241.03125 143.773438 241.53125 144.3125 242.054688 144.84375 C 240.167969 138.992188 241.800781 132.507812 234.441406 129.140625 C 228.425781 126.402344 214.175781 123.703125 211.175781 132.667969 C 213.519531 135.429688 215.949219 138.175781 218.457031 140.84375 C 225.78125 135.121094 233.894531 137 240.507812 143.289062 Z M 244.136719 98.222656 C 244.097656 98.136719 244.039062 98.046875 243.992188 97.96875 C 241.277344 93.585938 238.539062 88.871094 235.476562 84.324219 C 235.378906 84.339844 235.300781 84.386719 235.1875 84.386719 C 227.488281 84.339844 215.375 89.164062 219.957031 98.90625 C 221.703125 102.613281 223.425781 105.980469 223.527344 110.136719 C 223.617188 110.105469 223.6875 110.121094 223.78125 110.105469 C 223.855469 107.582031 224.703125 105.089844 226.640625 102.867188 C 229.308594 99.828125 232.441406 97.324219 236.65625 97.023438 C 239.800781 96.785156 241.976562 97.214844 244.136719 98.222656 Z M 245.714844 162.640625 C 246.367188 161.230469 246.589844 159.746094 246.484375 158.261719 C 245.492188 156.347656 244.808594 154.296875 244.453125 152.15625 C 243.175781 149.933594 241.484375 147.910156 239.871094 146.375 C 234.101562 140.890625 227.265625 137.359375 220.3125 142.75 C 225.296875 147.890625 230.632812 152.65625 236.460938 156.601562 C 239.421875 158.625 242.613281 160.671875 245.652344 162.894531 C 245.667969 162.816406 245.667969 162.730469 245.714844 162.640625 Z M 252.699219 114.3125 C 250.976562 110.398438 249.019531 106.589844 246.929688 102.921875 C 241.308594 99.261719 234.664062 97.746094 229.578125 103.558594 C 226.019531 107.628906 226.050781 112.105469 227.832031 116.242188 C 228.25 116.964844 228.632812 117.726562 228.972656 118.496094 C 229.625 119.578125 230.347656 120.617188 231.164062 121.609375 C 232.808594 114.582031 245.074219 112.003906 252.699219 114.3125 Z M 257.84375 129.960938 C 256.980469 125.816406 255.703125 121.742188 254.136719 117.757812 C 248.453125 114.164062 230.292969 116.59375 234.117188 125.570312 C 234.179688 125.714844 234.195312 125.847656 234.207031 125.984375 C 237.039062 127.09375 239.691406 128.65625 241.222656 130.953125 C 243.921875 135.03125 243.078125 139.714844 244.5625 144.011719 C 245.90625 137.121094 250.488281 131.160156 257.84375 129.960938 Z M 256.996094 163.691406 C 256.804688 163.691406 256.597656 163.648438 256.390625 163.546875 C 254.042969 162.355469 249.613281 162.339844 247.746094 164.507812 C 251.035156 167.109375 254.027344 170.007812 256.257812 173.421875 C 256.328125 170.175781 256.628906 166.921875 256.996094 163.691406 Z M 257.3125 161.070312 C 258.242188 153.625 259.371094 146.210938 259.003906 138.707031 C 258.894531 136.644531 258.65625 134.597656 258.335938 132.554688 C 251.558594 133.5 247.390625 138.8125 247.28125 145.78125 C 247.238281 148.097656 247.328125 150.597656 247.773438 153.019531 C 248.335938 154.316406 248.765625 155.671875 248.976562 157.03125 C 249.484375 158.164062 250.113281 159.21875 250.960938 160.148438 C 250.976562 160.164062 250.976562 160.179688 250.988281 160.195312 C 253.210938 159.925781 255.558594 160.277344 257.3125 161.070312 Z M 260.15625 126.945312 C 262.558594 120.21875 253.796875 107.519531 250.714844 101.8125 C 244.34375 90.007812 237.648438 77.449219 228.109375 67.867188 C 221.972656 61.714844 215.660156 56.875 206.792969 55.960938 C 202.5625 55.515625 197.863281 52.832031 193.457031 52.640625 C 203.777344 57.507812 215.035156 60.207031 224.101562 67.527344 C 234.132812 75.613281 241.445312 88.007812 247.730469 99.039062 C 250.742188 104.320312 253.898438 110.136719 256.449219 116.164062 C 256.480469 116.179688 256.496094 116.195312 256.519531 116.210938 C 256.917969 116.542969 257.011719 116.933594 256.917969 117.308594 C 258.210938 120.464844 258.804688 123.816406 260.15625 126.945312 Z M 261.566406 162.816406 C 264.535156 155.894531 265.554688 148.527344 264.632812 141.035156 C 264.164062 137.285156 263.402344 133.578125 262.425781 129.945312 C 262.425781 131.070312 262.410156 132.207031 262.347656 133.382812 C 262.15625 136.976562 261.847656 140.351562 261.519531 143.40625 C 261.132812 151.917969 259.632812 160.339844 259.089844 168.839844 C 259.84375 166.855469 260.6875 164.863281 261.566406 162.816406 Z M 268.386719 136.097656 C 269.441406 142.742188 270.015625 149.710938 268.417969 156.339844 C 266.5625 163.945312 262.171875 170.578125 260.957031 178.34375 C 261.625 181.089844 261.296875 183.933594 258.867188 185.773438 C 256.519531 187.566406 253.175781 187.566406 250.382812 187.226562 C 250.265625 187.210938 250.160156 187.179688 250.042969 187.164062 C 249.929688 187.195312 249.789062 187.210938 249.644531 187.226562 C 235.523438 188.027344 224.320312 181.988281 212.496094 174.84375 C 211.558594 174.285156 210.660156 173.660156 209.753906 173.066406 C 207.007812 183.265625 198.46875 191.464844 190.371094 197.738281 C 185.71875 201.355469 180.671875 205.699219 175.230469 208.078125 C 168.945312 210.808594 162.222656 211.691406 155.703125 213.714844 C 155.65625 213.730469 155.625 213.730469 155.585938 213.746094 C 155.433594 213.84375 155.269531 213.945312 155.078125 214.007812 C 155.125 214.128906 155.179688 214.261719 155.210938 214.390625 C 156.902344 219.996094 157.632812 226.542969 161.871094 230.878906 C 162.191406 231.226562 162.394531 231.59375 162.460938 231.964844 C 162.816406 232.441406 163 233.046875 162.816406 233.785156 C 159.203125 248.8125 142.917969 252.746094 129.351562 252.960938 C 113.808594 253.214844 97.484375 250.621094 82.800781 245.429688 C 62.335938 238.195312 46.410156 221.210938 38.003906 201.460938 C 30.605469 184.113281 29.949219 157.316406 48.324219 146.375 C 48.878906 146.058594 49.394531 146.003906 49.871094 146.105469 C 53.277344 144.757812 56.761719 143.988281 60.304688 144.796875 C 56.136719 121.726562 71.3125 104.097656 92.261719 95.199219 C 105.644531 89.5 121.386719 85.726562 135.714844 83.488281 C 150.878906 81.109375 162.632812 86.777344 176.667969 90.824219 C 178.089844 77.179688 183.417969 64.589844 187.433594 51.316406 C 187.527344 51.039062 187.65625 50.816406 187.789062 50.625 C 187.832031 49.761719 188.3125 48.949219 189.363281 48.648438 C 195.785156 46.855469 202.636719 50.902344 209.03125 51.730469 C 214.957031 52.523438 219.851562 54.9375 224.542969 58.691406 C 236.285156 68.089844 244.199219 80.996094 251.46875 93.953125 C 258.78125 106.988281 266.027344 121.179688 268.386719 136.097656 Z M 237.660156 177.128906 C 237.648438 177.128906 237.539062 177.097656 237.515625 177.082031 C 235.347656 176.28125 232.738281 176.519531 229.769531 175.984375 C 229.101562 175.882812 228.539062 175.722656 228.011719 175.550781 C 227.339844 175.359375 226.832031 175.082031 226.242188 174.859375 C 225.664062 174.636719 225.15625 174.304688 224.625 174.015625 C 224.09375 173.714844 223.589844 173.40625 223.125 173.054688 C 221.171875 171.714844 219.496094 170.191406 217.882812 168.746094 C 217.050781 168.023438 216.304688 167.339844 215.457031 166.660156 L 214.851562 166.15625 L 214.542969 165.902344 C 214.527344 165.886719 214.480469 165.863281 214.453125 165.832031 L 214.289062 165.722656 L 212.996094 164.878906 C 211.28125 163.738281 209.5 162.65625 207.785156 161.324219 C 206.921875 160.6875 206.300781 159.957031 205.554688 159.300781 C 204.769531 158.515625 204.253906 157.777344 203.585938 157.019531 C 202.292969 155.5625 201.285156 153.996094 200.246094 152.511719 C 198.246094 149.488281 196.648438 146.519531 195.308594 143.773438 C 192.703125 138.246094 191.109375 133.5625 190.210938 130.253906 C 189.347656 126.976562 189.0625 125.109375 189.21875 125.0625 C 189.65625 124.933594 191.363281 132.316406 196.894531 142.972656 C 198.308594 145.628906 199.953125 148.464844 201.953125 151.34375 C 202.992188 152.75 204 154.25 205.277344 155.59375 C 205.867188 156.265625 206.492188 157.09375 207.097656 157.65625 C 207.820312 158.277344 208.539062 159.046875 209.304688 159.585938 C 210.761719 160.6875 212.496094 161.722656 214.304688 162.863281 L 215.660156 163.738281 L 215.820312 163.855469 L 216.058594 164.015625 L 216.367188 164.269531 L 216.988281 164.777344 C 217.820312 165.429688 218.679688 166.199219 219.496094 166.90625 C 222.757812 169.761719 226.078125 172.769531 230.292969 173.539062 C 232.648438 174 235.539062 173.746094 238.363281 174.746094 C 238.476562 174.785156 238.460938 174.769531 238.699219 174.859375 L 238.921875 174.976562 L 239.371094 175.183594 L 240.238281 175.597656 C 240.832031 175.851562 241.460938 176.328125 242.039062 176.699219 C 243.207031 177.453125 244.167969 178.238281 245.191406 178.875 C 248.558594 181.027344 252.3125 182.390625 255.875 182.421875 C 255.988281 182.367188 256.082031 182.273438 256.179688 182.195312 C 255.859375 181.828125 255.472656 181.472656 255.074219 181.144531 C 254.121094 180.40625 253.050781 179.78125 251.980469 179.191406 C 249.835938 178.042969 247.667969 177.113281 245.621094 176.191406 C 244.597656 175.738281 243.605469 175.277344 242.644531 174.753906 C 241.722656 174.269531 240.832031 173.746094 239.992188 173.3125 C 238.300781 172.5 236.65625 171.792969 235.171875 171.121094 C 232.203125 169.816406 229.894531 168.585938 228.480469 167.507812 C 227.085938 166.40625 226.464844 165.664062 226.542969 165.609375 C 226.625 165.484375 227.402344 166.039062 228.863281 166.90625 C 230.347656 167.769531 232.664062 168.777344 235.671875 169.90625 C 237.183594 170.46875 238.863281 171.078125 240.714844 171.890625 C 241.621094 172.292969 242.492188 172.753906 243.445312 173.230469 C 244.335938 173.660156 245.328125 174.074219 246.351562 174.507812 C 248.414062 175.335938 250.652344 176.222656 252.953125 177.367188 C 254.074219 177.960938 255.234375 178.597656 256.359375 179.429688 C 256.375 179.320312 256.390625 179.234375 256.40625 179.128906 C 256.257812 179.011719 256.121094 178.859375 256.035156 178.628906 C 250.175781 164.808594 233.238281 159.910156 223.363281 149.488281 C 214.160156 139.773438 204.492188 130.398438 197.714844 118.734375 C 189.441406 104.496094 184.074219 88.316406 185.050781 72.320312 C 182.449219 80.402344 180.417969 88.617188 180.6875 97.136719 C 181.136719 111.640625 183.226562 126.53125 188.804688 140.027344 C 194.15625 153.003906 202.371094 163.984375 214.75 171 C 225.519531 177.113281 235.023438 182.867188 247.476562 182.835938 C 246.230469 182.289062 245.03125 181.652344 243.859375 180.921875 C 242.746094 180.226562 241.707031 179.414062 240.714844 178.773438 C 240.214844 178.476562 239.816406 178.105469 239.199219 177.835938 L 238.316406 177.429688 L 237.871094 177.222656 L 237.675781 177.128906 C 237.675781 177.128906 237.675781 177.128906 237.660156 177.128906 " fill-opacity="1" fill-rule="nonzero"/><path fill="#a9a0f0" d="M 166.230469 133.222656 C 166.347656 133.636719 163.191406 134.730469 158.625 137.492188 C 156.308594 138.828125 153.703125 140.683594 150.78125 142.714844 C 149.3125 143.75 147.78125 144.828125 146.121094 145.941406 C 145.304688 146.503906 144.457031 147.042969 143.613281 147.574219 C 143.1875 147.84375 142.757812 148.105469 142.328125 148.375 L 141.996094 148.582031 C 141.789062 148.710938 141.734375 148.710938 141.597656 148.789062 L 140.90625 149.132812 C 139.003906 150.050781 137.167969 150.957031 135.382812 151.8125 C 133.589844 152.640625 131.785156 153.242188 130.105469 153.902344 C 129.261719 154.21875 128.429688 154.527344 127.628906 154.824219 C 126.816406 155.09375 126.015625 155.324219 125.253906 155.578125 C 123.714844 156.042969 122.292969 156.472656 120.984375 156.855469 C 115.757812 158.308594 112.457031 159.007812 112.355469 158.679688 C 112.242188 158.339844 115.355469 157.0625 120.441406 155.179688 C 121.703125 154.695312 123.09375 154.171875 124.578125 153.625 C 125.316406 153.339844 126.09375 153.066406 126.878906 152.765625 C 127.644531 152.441406 128.445312 152.09375 129.261719 151.757812 C 130.890625 151.042969 132.660156 150.417969 134.390625 149.589844 C 136.113281 148.726562 137.890625 147.84375 139.71875 146.933594 L 140.398438 146.597656 C 140.488281 146.550781 140.683594 146.464844 140.683594 146.449219 L 141.003906 146.25 C 141.449219 145.988281 141.882812 145.71875 142.3125 145.449219 C 143.171875 144.9375 144.019531 144.414062 144.804688 143.882812 C 146.417969 142.8125 147.988281 141.789062 149.472656 140.8125 C 152.519531 138.867188 155.269531 137.121094 157.777344 135.929688 C 162.730469 133.484375 166.167969 132.96875 166.230469 133.222656 " fill-opacity="1" fill-rule="nonzero"/><path fill="#a9a0f0" d="M 135.828125 123.832031 C 135.984375 124.101562 133.699219 125.777344 129.644531 127.921875 C 125.601562 130.09375 119.753906 132.539062 113.09375 134.660156 C 106.382812 136.644531 100.167969 138.023438 95.53125 138.351562 C 94.945312 138.414062 94.414062 138.660156 93.890625 138.660156 C 93.375 138.660156 92.898438 138.660156 92.4375 138.660156 C 91.554688 138.660156 90.769531 138.46875 90.128906 138.4375 C 88.855469 138.382812 88.140625 138.175781 88.125 137.992188 C 88.125 137.828125 88.808594 137.582031 90.070312 137.34375 C 90.691406 137.222656 91.460938 137.089844 92.351562 136.960938 C 92.816406 136.898438 93.285156 136.820312 93.792969 136.761719 C 94.292969 136.660156 94.8125 136.539062 95.359375 136.4375 C 99.738281 135.683594 105.789062 134.214844 112.355469 132.269531 C 118.894531 130.191406 124.738281 128.046875 128.890625 126.324219 C 133.058594 124.617188 135.636719 123.492188 135.828125 123.832031 " fill-opacity="1" fill-rule="nonzero"/><path fill="#a9a0f0" d="M 126.445312 246.167969 C 126.429688 246.351562 124.960938 246.46875 122.277344 246.554688 C 120.957031 246.675781 119.292969 246.453125 117.371094 246.277344 C 115.425781 246.167969 113.304688 245.636719 110.933594 245.160156 C 106.234375 244.007812 100.789062 242.078125 94.976562 239.554688 C 92.085938 238.308594 89.046875 237.007812 85.902344 235.648438 C 82.730469 234.308594 79.441406 232.925781 76.070312 231.519531 C 74.394531 230.792969 72.765625 229.933594 71.148438 229.164062 C 69.527344 228.332031 68.050781 227.328125 66.535156 226.433594 C 63.558594 224.550781 61.019531 222.164062 58.804688 219.851562 C 54.390625 215.167969 51.175781 210.34375 48.847656 206.109375 C 46.53125 201.847656 45.222656 198.109375 44.601562 195.488281 C 44.472656 194.816406 44.339844 194.226562 44.234375 193.71875 C 44.164062 193.203125 44.132812 192.757812 44.101562 192.402344 C 44.039062 191.6875 44.054688 191.320312 44.140625 191.304688 C 44.21875 191.304688 44.378906 191.65625 44.585938 192.308594 C 44.695312 192.640625 44.808594 193.054688 44.964844 193.539062 C 45.125 194.019531 45.316406 194.578125 45.539062 195.203125 C 46.425781 197.679688 47.9375 201.191406 50.386719 205.230469 C 55.285156 213.175781 63.496094 223.988281 77.09375 229.234375 C 80.433594 230.65625 83.707031 232.054688 86.863281 233.386719 C 90.023438 234.785156 93.039062 236.148438 95.914062 237.457031 C 101.621094 240.0625 106.875 242.109375 111.378906 243.453125 C 120.394531 246.023438 126.445312 245.667969 126.445312 246.167969 " fill-opacity="1" fill-rule="nonzero"/><path fill="#a9a0f0" d="M 101.714844 224.886719 C 106.859375 226.433594 110.179688 226.996094 110.132812 227.378906 C 110.105469 227.679688 106.664062 227.742188 101.28125 226.597656 C 98.566406 226.082031 95.421875 225.140625 91.984375 223.957031 C 88.570312 222.695312 84.894531 221.128906 81.15625 219.183594 C 77.449219 217.214844 74.058594 215.058594 71.105469 212.921875 C 68.195312 210.730469 65.675781 208.621094 63.773438 206.609375 C 59.859375 202.617188 58.246094 199.640625 58.46875 199.460938 C 58.785156 199.195312 60.960938 201.847656 64.980469 205.316406 C 66.980469 207.113281 69.542969 209.007812 72.441406 211.046875 C 75.371094 213.03125 78.710938 215.042969 82.324219 216.976562 C 85.960938 218.859375 89.523438 220.457031 92.800781 221.789062 C 96.121094 223.066406 99.128906 224.148438 101.714844 224.886719 " fill-opacity="1" fill-rule="nonzero"/></svg>