<svg xmlns="http://www.w3.org/2000/svg" xmlns:xlink="http://www.w3.org/1999/xlink" width="400" zoomAndPan="magnify" viewBox="0 0 300 299.999988" height="400" preserveAspectRatio="xMidYMid meet" version="1.0"><defs><clipPath id="f2df073130"><path d="M 30 61.800781 L 269 61.800781 L 269 237 L 30 237 Z M 30 61.800781 " clip-rule="nonzero"/></clipPath></defs><g clip-path="url(#f2df073130)"><path fill="currentColor" d="M 56.078125 160.992188 C 56.117188 160.605469 56.265625 160.21875 56.511719 159.917969 C 55.304688 158.972656 54.121094 157.933594 52.921875 156.835938 C 48.5625 152.800781 44.566406 150.371094 39.488281 149.101562 C 39.457031 149.132812 39.433594 149.171875 39.378906 149.210938 C 36.847656 151.300781 37.082031 154.335938 39.574219 156.253906 C 39.652344 156.125 39.734375 155.96875 39.828125 155.84375 C 40.121094 155.503906 40.480469 155.203125 40.820312 155.03125 C 41.003906 154.9375 41.191406 154.855469 41.363281 154.800781 C 41.253906 154.460938 41.191406 154.09375 41.238281 153.777344 C 41.308594 152.957031 41.8125 152.414062 42.230469 152.105469 C 42.445312 151.933594 42.722656 151.859375 42.917969 151.796875 C 43.117188 151.71875 43.226562 151.796875 43.351562 151.796875 C 43.589844 151.84375 43.722656 151.898438 43.738281 151.988281 C 43.769531 152.089844 43.675781 152.199219 43.476562 152.324219 C 43.398438 152.40625 43.203125 152.445312 43.148438 152.554688 C 43.082031 152.679688 43.011719 152.75 42.933594 152.855469 C 42.808594 153.136719 42.625 153.46875 42.722656 153.839844 C 42.792969 154.195312 42.980469 154.460938 43.34375 154.636719 L 45.324219 155.636719 L 42.996094 156.339844 C 42.585938 156.464844 42.144531 156.589844 41.855469 156.796875 C 41.578125 157.03125 41.398438 157.191406 41.429688 157.457031 C 41.378906 157.988281 42.003906 158.980469 42.941406 159.4375 C 44.03125 160.035156 45.253906 159.910156 46.277344 159.34375 L 48.019531 158.375 L 47.910156 160.304688 C 47.886719 160.675781 47.933594 160.910156 48.019531 161.0625 C 48.121094 161.203125 48.335938 161.363281 48.667969 161.417969 C 49.304688 161.574219 50.046875 161.449219 50.597656 161.3125 C 51.75 161.023438 52.300781 160.535156 52.523438 160.675781 C 52.71875 160.777344 52.425781 161.738281 51.117188 162.511719 C 50.472656 162.867188 49.628906 163.253906 48.445312 163.207031 C 47.886719 163.199219 47.144531 162.992188 46.546875 162.386719 C 46.371094 162.199219 46.246094 162.015625 46.136719 161.804688 C 44.828125 162.246094 43.203125 162.261719 41.839844 161.488281 C 41.378906 161.257812 40.972656 160.9375 40.617188 160.582031 C 41.167969 165.46875 52.867188 165.191406 55.414062 161.613281 C 55.605469 161.347656 55.832031 161.148438 56.078125 160.992188 Z M 70.046875 189.722656 C 71.207031 191.265625 72.925781 192.890625 74.929688 192.589844 C 73.746094 189.445312 66.910156 184.558594 64.113281 182.167969 C 59.917969 178.558594 55.195312 176.4375 49.558594 177.019531 C 46.648438 177.320312 43.304688 177.746094 40.355469 177.359375 C 39.929688 178.28125 39.613281 179.289062 39.292969 180.292969 C 40.496094 182.261719 44.464844 182.46875 46.6875 182.105469 C 46.570312 181.996094 46.464844 181.875 46.386719 181.734375 C 46.152344 181.460938 46.121094 181.105469 46.054688 180.828125 C 46.039062 180.542969 46.09375 180.292969 46.136719 180.070312 C 46.277344 179.660156 46.449219 179.304688 46.617188 179.125 C 46.957031 178.761719 47.207031 178.582031 47.363281 178.652344 C 47.5 178.738281 47.523438 179.039062 47.429688 179.519531 C 47.390625 179.765625 47.429688 179.992188 47.414062 180.238281 C 47.453125 180.347656 47.46875 180.457031 47.515625 180.558594 C 47.59375 180.617188 47.578125 180.71875 47.6875 180.742188 C 48.191406 181.230469 50.984375 181.007812 52.71875 180.015625 L 52.9375 179.875 L 54.640625 178.832031 L 54.792969 180.6875 C 54.917969 182.328125 57.039062 183.21875 58.371094 183.25 C 59.792969 183.359375 60.648438 182.878906 60.863281 183.144531 C 60.957031 183.234375 60.863281 183.546875 60.492188 183.917969 C 60.121094 184.296875 59.429688 184.667969 58.507812 184.863281 C 57.574219 185.039062 56.402344 185.015625 55.179688 184.464844 C 54.578125 184.1875 53.957031 183.800781 53.445312 183.179688 C 53.269531 182.964844 53.113281 182.71875 52.972656 182.453125 C 52.039062 182.824219 51.148438 182.988281 50.28125 183.042969 C 52.160156 184.667969 54.421875 185.757812 56.96875 185.828125 C 57.574219 185.851562 58.046875 186.085938 58.371094 186.433594 C 59.074219 186.347656 59.832031 186.582031 60.351562 187.316406 C 62.953125 190.945312 67.777344 194.824219 72.234375 194.167969 C 71.988281 194.082031 71.75 194.011719 71.515625 193.917969 C 70.222656 193.332031 69.109375 192.339844 68.1875 191.125 C 68.03125 190.929688 67.902344 190.714844 67.777344 190.503906 C 66.730469 190.808594 65.671875 190.730469 64.789062 190.414062 C 64.191406 190.171875 63.65625 189.847656 63.246094 189.390625 C 62.859375 188.925781 62.566406 188.375 62.558594 187.820312 C 62.488281 186.71875 63.09375 186.117188 63.410156 185.796875 C 63.765625 185.550781 64.015625 185.457031 64.136719 185.535156 C 64.253906 185.636719 64.222656 185.898438 64.070312 186.292969 C 64.007812 186.664062 63.867188 187.144531 64.0625 187.5625 C 64.207031 187.957031 64.679688 188.3125 65.390625 188.484375 C 66.113281 188.632812 66.988281 188.523438 67.660156 188.097656 L 68.652344 187.460938 L 69.285156 188.5625 C 69.511719 188.949219 69.757812 189.335938 70.046875 189.722656 Z M 121.101562 82.933594 C 121.289062 81.390625 121.582031 79.820312 121.921875 78.273438 C 111.589844 81.40625 102.613281 87.066406 93.597656 92.648438 C 94.007812 92.640625 94.425781 92.625 94.867188 92.648438 C 98.304688 92.886719 99.664062 92.609375 103.054688 91.757812 C 107.832031 86.113281 113.941406 82.3125 121.101562 82.933594 Z M 117.109375 119.25 C 126.894531 119.0625 134.25 111.453125 128.039062 102.371094 C 125.949219 105.59375 124.183594 108.757812 122.558594 110.917969 C 120.871094 113.046875 119.601562 114.140625 119.367188 113.960938 C 119.089844 113.769531 119.925781 112.296875 121.242188 109.980469 C 122.308594 107.96875 123.617188 105.136719 125.5 102.039062 C 123.828125 102.257812 122.234375 102.675781 120.785156 103.183594 C 119.816406 103.527344 118.910156 103.882812 118.042969 104.253906 L 117.480469 104.925781 C 115.414062 107.382812 113.902344 110.300781 112.183594 112.003906 C 110.488281 113.753906 108.972656 114.210938 108.878906 113.960938 C 108.683594 113.660156 109.746094 112.792969 110.929688 110.988281 C 111.550781 110.089844 112.167969 108.9375 112.910156 107.644531 C 113.128906 107.226562 113.375 106.816406 113.640625 106.390625 C 110.738281 107.890625 108.40625 109.207031 106.546875 110.175781 C 102.351562 112.390625 100.53125 112.832031 100.441406 112.582031 C 100.316406 112.304688 101.855469 111.429688 105.820312 108.890625 C 107.609375 107.792969 109.878906 106.335938 112.84375 104.679688 C 110.722656 104.53125 108.714844 104.742188 107.105469 104.804688 C 104.722656 104.941406 103.234375 104.820312 103.1875 104.5 C 103.148438 104.183594 104.566406 103.734375 106.867188 103.167969 C 108.035156 102.921875 109.429688 102.605469 111.070312 102.496094 C 112.632812 102.378906 114.453125 102.378906 116.28125 102.890625 C 117.449219 102.324219 118.71875 101.777344 120.113281 101.265625 C 120.878906 100.992188 121.707031 100.730469 122.558594 100.515625 C 122.023438 100.210938 121.488281 99.902344 120.980469 99.632812 C 119.390625 98.734375 117.992188 97.953125 116.773438 97.417969 C 114.351562 96.285156 112.6875 96.257812 112.648438 95.898438 C 112.578125 95.621094 114.492188 95.03125 117.324219 95.867188 C 118.734375 96.257812 120.296875 96.929688 121.96875 97.734375 C 123.039062 98.238281 124.167969 98.820312 125.335938 99.351562 C 121.992188 96.164062 120.808594 91.78125 120.824219 87.050781 C 107.515625 86.253906 98.210938 104.371094 96.195312 116.066406 C 103.289062 116.4375 110.015625 119.375 117.109375 119.25 Z M 135.054688 82.863281 C 135.417969 84.363281 135.527344 86.402344 135.371094 88.933594 C 135.261719 90.683594 134.976562 92.679688 134.683594 94.894531 C 143.3125 87.335938 141.566406 69.855469 129.882812 66.195312 C 126.714844 75.277344 120.296875 91.425781 129.84375 97.632812 C 130.765625 97.332031 131.632812 96.945312 132.429688 96.496094 C 132.769531 93.40625 133.265625 90.875 133.472656 88.769531 C 133.707031 86.363281 133.761719 84.488281 133.613281 83.085938 C 133.527344 82.382812 133.527344 81.761719 133.421875 81.269531 C 133.320312 80.789062 133.257812 80.371094 133.210938 80.050781 C 133.132812 79.410156 133.171875 79.09375 133.3125 79.039062 C 133.433594 78.984375 133.652344 79.199219 133.96875 79.796875 C 134.132812 80.082031 134.324219 80.484375 134.550781 80.980469 C 134.765625 81.476562 134.867188 82.121094 135.054688 82.863281 Z M 141.703125 123.957031 C 145.503906 115.417969 144.539062 104.625 135.527344 99.917969 C 135.371094 99.839844 135.246094 99.753906 135.125 99.65625 C 134.574219 100.003906 134 100.320312 133.390625 100.621094 C 134.929688 102.007812 136.238281 103.363281 137.207031 104.710938 C 138.746094 106.785156 139.503906 108.757812 139.824219 110.269531 C 140.109375 111.808594 140.054688 112.886719 139.914062 113.558594 C 139.777344 114.21875 139.636719 114.496094 139.488281 114.480469 C 139.351562 114.464844 139.226562 114.179688 139.117188 113.558594 C 138.996094 112.941406 138.839844 111.964844 138.398438 110.65625 C 137.949219 109.347656 137.175781 107.699219 135.6875 105.863281 C 135 104.988281 134.132812 104.074219 133.132812 103.121094 C 134.804688 107.132812 134.90625 111.738281 133.0625 115.519531 C 133.101562 115.570312 133.140625 115.609375 133.195312 115.679688 C 135.363281 118.941406 138.058594 122.316406 141.703125 123.957031 Z M 156.445312 83.847656 C 154.878906 83.851562 153.292969 83.847656 151.753906 83.335938 C 149.152344 82.484375 146.828125 81.304688 144.140625 80.949219 C 144.25 84.488281 143.59375 88.042969 142.183594 91.230469 C 146.355469 87.832031 151.242188 85.332031 156.445312 83.847656 Z M 162.839844 184.046875 C 165.394531 182.46875 167.679688 181.875 167.546875 178.582031 C 167.128906 178.421875 166.855469 178.15625 166.855469 177.800781 C 166.855469 177.746094 166.855469 177.707031 166.855469 177.660156 C 163.605469 179.023438 160.703125 180.0625 157.140625 178.628906 C 152.171875 176.601562 148.476562 170.066406 142.570312 172.296875 C 136.972656 174.417969 131.335938 176.742188 125.207031 176.34375 C 114.050781 175.609375 105.09375 170.121094 96.5625 163.417969 C 96.585938 163.59375 96.636719 163.789062 96.652344 163.980469 C 96.746094 165.167969 96.515625 166.28125 96.144531 167.242188 C 96.691406 167.3125 97.226562 167.394531 97.753906 167.519531 C 98.730469 167.722656 99.535156 168.339844 99.96875 168.851562 C 100.175781 169.144531 100.355469 169.394531 100.492188 169.609375 C 100.601562 169.84375 100.6875 170.050781 100.742188 170.214844 C 100.851562 170.5625 100.867188 170.757812 100.78125 170.808594 C 100.703125 170.847656 100.507812 170.769531 100.261719 170.546875 C 100.121094 170.4375 99.984375 170.300781 99.820312 170.152344 C 99.640625 170.011719 99.433594 169.84375 99.214844 169.679688 C 98.730469 169.394531 98.234375 169.097656 97.46875 169.074219 C 96.707031 169.007812 95.734375 169.046875 94.625 169.023438 L 93.222656 168.976562 L 93.84375 167.589844 C 94.316406 166.582031 94.601562 165.414062 94.441406 164.199219 C 94.300781 162.992188 93.710938 161.738281 92.746094 160.816406 C 92.25 160.304688 91.628906 159.964844 91.109375 159.808594 C 90.539062 159.699219 90.265625 159.785156 90.019531 160.054688 C 89.757812 160.359375 89.5625 160.953125 89.523438 161.558594 C 89.453125 162.179688 89.507812 162.828125 89.546875 163.433594 L 89.664062 164.847656 L 88.425781 164.492188 C 86.636719 163.964844 85.027344 163.789062 84.460938 164.230469 C 83.839844 164.65625 83.917969 165.554688 83.6875 165.523438 C 83.59375 165.539062 83.492188 165.382812 83.367188 165.097656 C 83.300781 164.765625 83.191406 164.128906 83.671875 163.5 C 84.183594 162.835938 85.078125 162.566406 85.953125 162.480469 C 86.449219 162.441406 86.976562 162.449219 87.511719 162.496094 C 87.472656 162.164062 87.441406 161.820312 87.457031 161.449219 C 87.488281 160.636719 87.597656 159.660156 88.285156 158.695312 C 85.15625 158.050781 82.089844 158.886719 77.878906 160.691406 C 73.9375 162.355469 69.371094 164.601562 64.980469 163.882812 C 63.496094 163.632812 62.15625 163.199219 60.910156 162.621094 C 62.722656 165.5625 69.070312 165.738281 71.78125 165.257812 C 72.414062 165.152344 72.949219 165.304688 73.375 165.59375 C 73.746094 165.738281 74.078125 166.003906 74.347656 166.429688 C 75.171875 167.753906 76.488281 168.457031 77.742188 169.238281 C 77.742188 169.222656 77.726562 169.199219 77.726562 169.183594 C 77.351562 168.355469 77.222656 167.535156 77.160156 166.777344 C 77.074219 165.273438 77.523438 164.089844 78.027344 163.378906 C 78.539062 162.78125 78.910156 162.589844 79.019531 162.65625 C 79.140625 162.742188 78.964844 163.152344 78.707031 163.828125 C 78.554688 164.4375 78.398438 165.414062 78.644531 166.597656 C 78.925781 167.78125 79.460938 169.097656 80.753906 170.082031 C 81.246094 170.382812 81.734375 170.523438 82.585938 170.335938 C 83.4375 170.160156 84.53125 169.84375 85.683594 169.695312 L 87.1875 169.5 L 86.9375 171.027344 C 86.796875 171.964844 86.761719 172.929688 87.007812 173.621094 C 87.207031 174.191406 87.648438 174.566406 88.269531 174.867188 C 88.410156 174.921875 88.671875 175.039062 88.679688 175.058594 L 89.316406 175.230469 C 89.414062 175.253906 89.539062 175.292969 89.617188 175.308594 L 89.792969 175.292969 C 89.917969 175.285156 90.019531 175.355469 90.167969 175.292969 C 91.234375 175.214844 92.371094 173.976562 93.503906 173.039062 L 94.441406 172.28125 L 94.988281 173.25 C 95.492188 174.171875 96.160156 174.789062 96.871094 174.921875 C 97.574219 175.105469 98.332031 174.882812 98.914062 174.609375 C 100.082031 174.03125 100.703125 173.425781 100.867188 173.589844 C 101.003906 173.683594 100.726562 174.542969 99.503906 175.554688 C 98.898438 176.027344 97.945312 176.59375 96.652344 176.476562 C 96.019531 176.4375 95.328125 176.191406 94.78125 175.78125 C 94.53125 175.609375 94.316406 175.410156 94.105469 175.183594 C 93.820312 175.476562 93.511719 175.78125 93.15625 176.097656 C 92.519531 176.648438 91.652344 177.335938 90.492188 177.5 C 90.210938 177.585938 89.878906 177.539062 89.578125 177.539062 L 89.113281 177.5 C 88.972656 177.484375 88.890625 177.460938 88.78125 177.429688 L 88.128906 177.273438 C 87.734375 177.144531 87.597656 177.074219 87.308594 176.964844 C 86.320312 176.53125 85.257812 175.640625 84.832031 174.425781 C 84.554688 173.628906 84.5 172.898438 84.53125 172.195312 C 84.019531 172.296875 83.507812 172.390625 82.925781 172.488281 C 82.394531 172.566406 81.734375 172.613281 81.085938 172.445312 C 80.820312 172.390625 80.574219 172.28125 80.328125 172.15625 C 80.589844 172.9375 80.746094 173.78125 80.921875 174.441406 C 82.230469 179.355469 88.308594 183.28125 92.441406 178.863281 C 93.101562 178.15625 93.898438 178.101562 94.578125 178.390625 C 94.835938 178.28125 95.136719 178.226562 95.507812 178.257812 C 99.535156 178.628906 104.242188 177.265625 108.34375 178.101562 C 108.144531 177.855469 107.980469 177.609375 107.847656 177.359375 C 107.167969 176.097656 107.089844 174.921875 107.238281 174.125 C 107.398438 173.410156 107.648438 173.09375 107.769531 173.09375 C 107.941406 173.109375 107.980469 173.535156 108.082031 174.191406 C 108.203125 174.773438 108.492188 175.664062 109.148438 176.523438 C 109.800781 177.375 110.898438 178.210938 112.246094 178.613281 C 113.609375 179.023438 115.179688 178.847656 116.308594 177.855469 L 118.277344 176.121094 L 118.222656 178.824219 C 118.207031 179.289062 118.207031 179.75 118.332031 180.15625 C 118.59375 181.050781 119.335938 181.65625 120.3125 181.996094 C 121.28125 182.328125 122.363281 182.382812 123.355469 182.300781 L 124.460938 182.207031 L 124.507812 183.234375 C 124.570312 184.242188 124.894531 185.09375 125.390625 185.757812 C 125.886719 186.433594 126.570312 186.84375 127.125 187.175781 C 128.308594 187.796875 129.140625 187.988281 129.109375 188.238281 C 129.109375 188.414062 128.234375 188.664062 126.691406 188.308594 C 125.957031 188.066406 124.996094 187.726562 124.152344 186.890625 C 123.519531 186.277344 123 185.425781 122.699219 184.4375 C 121.738281 184.503906 120.699219 184.453125 119.632812 184.148438 C 118.910156 183.925781 118.183594 183.570312 117.535156 183.019531 C 116.875 182.453125 116.363281 181.671875 116.117188 180.8125 C 116.085938 180.742188 116.078125 180.679688 116.0625 180.609375 C 115.605469 180.789062 115.125 180.914062 114.660156 180.96875 C 114.296875 181.007812 113.972656 181.007812 113.625 180.992188 C 116.203125 183.375 117.8125 186.183594 121.746094 187.050781 C 121.761719 187.050781 121.777344 187.066406 121.777344 187.066406 C 122.296875 187.015625 122.851562 187.144531 123.347656 187.585938 C 127.582031 191.265625 132.273438 192.402344 136.980469 190.0625 C 136.253906 189.554688 135.632812 188.824219 135.347656 188.042969 C 134.796875 186.519531 134.921875 185.109375 135.238281 183.886719 C 133.132812 183.792969 131.175781 183.652344 129.84375 183.042969 C 129.03125 182.6875 128.480469 182.246094 128.1875 181.820312 C 127.929688 181.433594 127.898438 181.183594 127.96875 181.128906 C 128.054688 181.050781 128.273438 181.199219 128.628906 181.410156 C 128.929688 181.585938 129.480469 181.804688 130.183594 181.941406 C 131.648438 182.277344 133.761719 182.050781 136.609375 181.972656 L 137.933594 181.941406 L 137.507812 183.289062 C 137.105469 184.535156 136.910156 186.078125 137.40625 187.191406 C 137.648438 187.742188 138.042969 188.097656 138.621094 188.34375 C 138.730469 188.382812 138.839844 188.414062 138.964844 188.4375 C 139.574219 187.65625 140.867188 187.546875 141.789062 188.128906 C 142.230469 187.835938 142.65625 187.449219 143.042969 186.984375 C 143.714844 186.148438 144.265625 185.164062 144.785156 184.203125 L 145.558594 182.742188 L 146.566406 183.996094 C 147.488281 185.125 148.726562 185.730469 149.871094 185.652344 C 151.023438 185.621094 151.921875 184.945312 152.457031 184.242188 C 153.503906 182.742188 153.347656 181.355469 153.664062 181.355469 C 153.78125 181.355469 153.914062 181.640625 154.027344 182.246094 C 154.066406 182.839844 154.121094 183.800781 153.585938 184.90625 C 153.0625 185.976562 151.851562 187.199219 150.074219 187.441406 C 149.207031 187.5625 148.246094 187.476562 147.339844 187.105469 C 146.890625 186.929688 146.480469 186.695312 146.085938 186.402344 C 145.730469 187.066406 145.328125 187.742188 144.816406 188.398438 C 144.320312 189.035156 143.671875 189.707031 142.863281 190.1875 C 143.792969 194.695312 151.023438 190.382812 152.457031 188.003906 C 152.566406 187.820312 152.675781 187.6875 152.8125 187.5625 C 153.238281 186.890625 154.027344 186.402344 155.019531 186.597656 C 157.558594 187.066406 160.742188 185.332031 162.839844 184.046875 Z M 177.632812 177.570312 C 182.269531 177.460938 185.242188 174.238281 185.4375 169.859375 C 180.644531 171.996094 175.785156 173.945312 170.945312 175.957031 C 170.96875 176.105469 170.984375 176.261719 170.984375 176.421875 C 170.984375 176.492188 170.984375 176.671875 170.984375 176.863281 C 171.355469 177.195312 171.617188 177.644531 171.671875 178.257812 C 172.019531 181.980469 170.519531 183.792969 168.289062 185.410156 C 171.972656 185.21875 175.457031 184.164062 175.566406 179.628906 C 175.597656 178.488281 176.488281 177.59375 177.632812 177.570312 Z M 188.425781 198.054688 C 189.007812 195.871094 188.851562 193.53125 187.792969 191.386719 C 184.515625 194.941406 180.925781 197.921875 175.859375 198.671875 C 167.761719 199.851562 161.351562 195.917969 154.546875 202.800781 C 150.53125 206.847656 146.976562 210.585938 141.246094 211.910156 C 140.710938 212.035156 140.25 211.949219 139.859375 211.757812 C 139.738281 211.742188 139.597656 211.71875 139.457031 211.679688 C 133.085938 209.734375 126.234375 208.375 120.3125 205.191406 C 115.566406 202.644531 111.535156 198.449219 106.617188 196.273438 C 100.78125 193.6875 94.742188 196.675781 88.695312 196.503906 C 88.324219 196.488281 87.96875 196.464844 87.597656 196.449219 C 87.648438 196.613281 87.6875 196.785156 87.6875 196.976562 C 88.625 197.046875 89.5625 197.070312 90.460938 197.070312 C 90.800781 197.070312 91.109375 197.15625 91.367188 197.28125 C 91.769531 197.226562 92.210938 197.300781 92.644531 197.582031 C 95.925781 199.632812 99.519531 200.160156 103.054688 201.011719 C 102.902344 200.785156 102.761719 200.585938 102.636719 200.359375 C 102.226562 199.648438 101.996094 198.984375 101.886719 198.488281 C 101.800781 198.023438 101.839844 197.742188 101.996094 197.675781 C 102.136719 197.597656 102.367188 197.773438 102.691406 198.09375 C 103.011719 198.378906 103.429688 198.84375 103.960938 199.386719 C 104.503906 199.917969 105.132812 200.539062 105.890625 201.121094 C 106.617188 201.683594 107.523438 202.195312 108.28125 202.25 C 108.933594 202.328125 109.445312 201.949219 109.960938 201.351562 L 111.078125 200.097656 L 111.765625 201.40625 C 112.523438 202.816406 113.222656 203.859375 113.832031 204.535156 C 114.4375 205.222656 114.894531 205.59375 114.808594 205.859375 C 114.738281 206.058594 114.042969 206.113281 113.035156 205.609375 C 112.316406 205.246094 111.519531 204.558594 110.773438 203.683594 C 110.636719 203.789062 110.488281 203.882812 110.347656 204 C 110.3125 204.023438 110.265625 204.039062 110.226562 204.0625 C 112.59375 205.933594 113.832031 208.398438 116.296875 210.6875 C 119.863281 214 123.765625 217.75 128.039062 220.117188 C 131.230469 221.90625 135.140625 223.308594 138.785156 223.625 C 140.773438 223.789062 142.65625 223.765625 144.429688 222.789062 C 145.738281 222.085938 146.457031 220.527344 147.75 219.894531 C 149.320312 219.113281 150.566406 219.714844 152.109375 219.1875 C 155.785156 217.949219 157.558594 214.496094 159.230469 211.238281 C 158.566406 211.363281 157.921875 211.429688 157.304688 211.4375 C 157.148438 212.761719 156.769531 214.046875 155.949219 215.078125 C 155.445312 215.71875 154.710938 216.230469 153.960938 216.410156 C 153.214844 216.585938 152.527344 216.527344 151.984375 216.371094 C 150.902344 216.054688 150.195312 215.503906 149.800781 215.132812 C 149.414062 214.746094 149.238281 214.472656 149.304688 214.359375 C 149.453125 214.070312 150.566406 214.800781 152.234375 214.96875 C 153.078125 215.039062 153.890625 214.792969 154.402344 213.933594 C 154.949219 213.097656 155.183594 211.742188 155.152344 210.324219 L 155.128906 209.210938 L 156.296875 209.203125 C 157.464844 209.1875 158.734375 209.101562 159.742188 208.691406 C 160.703125 208.320312 161.183594 207.769531 161.359375 206.972656 C 161.554688 206.167969 161.375 205.175781 161.144531 204.269531 L 160.648438 202.390625 L 162.390625 202.960938 C 164.636719 203.707031 166.453125 204.125 167.65625 203.882812 C 168.847656 203.691406 169.402344 203.03125 169.605469 203.1875 C 169.691406 203.242188 169.675781 203.472656 169.464844 203.859375 C 169.25 204.214844 168.785156 204.726562 168.027344 205.050781 C 166.863281 205.59375 165.269531 205.578125 163.550781 205.300781 C 163.660156 205.878906 163.691406 206.5 163.589844 207.171875 C 170.023438 207.273438 178.136719 208.125 183.703125 204.464844 C 184.378906 204.023438 184.980469 203.511719 185.539062 202.976562 C 184.941406 203.316406 184.269531 203.636719 183.496094 203.859375 C 182.613281 204.054688 181.496094 204.148438 180.414062 203.558594 C 180.148438 203.378906 179.902344 203.1875 179.667969 202.976562 C 179.578125 202.855469 179.492188 202.730469 179.390625 202.589844 C 178.773438 203.117188 178.097656 203.527344 177.386719 203.773438 C 176.773438 204 176.132812 204.09375 175.527344 204.0625 C 174.917969 204.007812 174.359375 203.875 173.917969 203.613281 C 173.019531 203.101562 172.648438 202.390625 172.453125 201.917969 C 172.332031 201.460938 172.332031 201.1875 172.4375 201.121094 C 172.5625 201.050781 172.804688 201.1875 173.136719 201.507812 C 173.476562 201.722656 173.917969 202.109375 174.523438 202.265625 C 175.652344 202.660156 177.59375 201.777344 178.832031 199.933594 L 180.058594 198.101562 L 180.871094 200.375 C 181.0625 200.902344 181.242188 201.40625 181.566406 201.546875 C 181.882812 201.707031 182.394531 201.738281 182.976562 201.644531 C 183.546875 201.492188 184.144531 201.28125 184.679688 200.996094 C 185.769531 200.445312 186.699219 199.742188 187.402344 199.105469 C 187.8125 198.71875 188.148438 198.378906 188.425781 198.054688 Z M 197.453125 112.359375 C 196.199219 107.09375 195.144531 101.1875 191.925781 96.804688 C 187.914062 91.386719 181.472656 88.242188 174.917969 87.128906 C 162.597656 85.039062 150.074219 88.382812 141.519531 97.496094 C 144.492188 97.222656 147.347656 97.160156 150.035156 97.277344 C 150.917969 96.835938 151.824219 96.394531 152.757812 95.921875 C 154.933594 94.839844 157.125 94.011719 159.0625 93.199219 C 161.058594 92.5 162.886719 91.921875 164.417969 91.464844 C 167.585938 90.820312 169.535156 90.597656 169.605469 90.914062 C 169.675781 91.214844 167.855469 92.019531 164.929688 93.035156 C 163.496094 93.671875 161.769531 94.382812 159.875 95.171875 C 158.257812 95.96875 156.445312 96.742188 154.585938 97.617188 C 157.746094 97.953125 160.648438 98.445312 163.289062 99.027344 C 163.566406 98.871094 163.835938 98.726562 164.117188 98.570312 C 168.132812 96.574219 172.066406 95.425781 175 95.117188 C 177.964844 94.785156 179.808594 95.28125 179.761719 95.550781 C 179.722656 95.914062 177.988281 96.023438 175.304688 96.726562 C 173.019531 97.316406 170.023438 98.378906 166.824219 99.847656 C 169.835938 100.605469 172.5 101.402344 174.855469 102.195312 L 175.015625 102.164062 L 175.441406 102.09375 C 176.277344 101.984375 177.105469 101.859375 177.890625 101.738281 C 178.679688 101.683594 179.4375 101.683594 180.148438 101.667969 C 181.582031 101.628906 182.820312 101.722656 183.898438 101.792969 C 185.988281 101.914062 187.296875 102.109375 187.335938 102.441406 C 187.367188 102.75 186.074219 103.121094 183.9375 103.433594 C 182.890625 103.5625 181.613281 103.648438 180.257812 103.804688 C 180.042969 103.828125 179.792969 103.84375 179.5625 103.875 C 180.042969 104.050781 180.5 104.230469 180.941406 104.394531 C 188.78125 107.488281 191.554688 109.101562 191.453125 109.324219 C 191.328125 109.625 188.339844 108.480469 180.445312 105.769531 C 179.5625 105.484375 178.609375 105.167969 177.601562 104.832031 C 178.710938 106.605469 179.683594 108.300781 180.148438 109.804688 C 180.878906 111.980469 180.535156 113.242188 180.273438 113.273438 C 179.933594 113.34375 179.632812 112.003906 178.679688 110.445312 C 177.742188 108.757812 176.023438 106.660156 174.289062 103.882812 L 174.203125 103.773438 C 171.402344 102.921875 168.1875 102.039062 164.472656 101.226562 C 164.695312 101.707031 164.914062 102.203125 165.128906 102.660156 C 165.535156 103.527344 165.742188 104.378906 166.027344 105.175781 C 166.5625 106.785156 166.964844 108.125 167.296875 109.324219 C 168.082031 111.675781 168.523438 113.148438 168.226562 113.273438 C 167.980469 113.394531 167.058594 112.171875 165.890625 109.953125 C 164.757812 107.652344 163.628906 104.371094 161.894531 101.117188 L 161.648438 100.660156 C 158.984375 100.148438 156.105469 99.738281 152.96875 99.492188 C 152.796875 99.476562 152.636719 99.476562 152.457031 99.46875 C 154.410156 101.929688 155.839844 104.324219 156.613281 106.289062 C 157.589844 108.757812 157.621094 110.269531 157.390625 110.355469 C 157.09375 110.460938 156.507812 108.992188 155.28125 106.941406 C 154.050781 104.863281 152.03125 102.164062 149.367188 99.296875 C 147.03125 99.230469 144.566406 99.296875 141.992188 99.523438 C 145.257812 102.660156 147.0625 106.730469 147.648438 111.097656 C 147.804688 111.152344 147.960938 111.222656 148.105469 111.3125 C 163.691406 121.378906 181.597656 121.53125 197.453125 112.359375 Z M 190.042969 167.613281 C 198.085938 173.449219 212.703125 164.6875 209.429688 154.691406 C 203.21875 159.382812 197.027344 163.941406 190.042969 167.613281 Z M 233.941406 106.40625 C 237.222656 107.09375 239.753906 105.222656 236.054688 103.332031 C 232.996094 101.792969 228.445312 102.921875 225.089844 102.644531 C 220.492188 102.25 215.777344 102.132812 211.21875 101.257812 C 206.441406 100.304688 202.269531 98.804688 198.117188 96.285156 C 196.4375 95.265625 195.207031 94.003906 194.015625 92.820312 C 194.195312 93.035156 194.386719 93.230469 194.535156 93.445312 C 198.667969 99.050781 200.054688 105.753906 201.710938 112.390625 C 201.804688 112.746094 201.789062 113.078125 201.71875 113.367188 C 201.789062 114.054688 201.515625 114.773438 200.757812 115.238281 C 184.003906 125.496094 164.597656 125.921875 147.820312 115.953125 C 147.570312 119.820312 146.511719 123.714844 144.722656 127.230469 C 144.636719 127.394531 144.539062 127.53125 144.429688 127.65625 C 144.019531 128.347656 143.238281 128.808594 142.214844 128.523438 C 137.152344 127.089844 133.433594 123.199219 130.46875 119 C 129.601562 119.820312 128.605469 120.550781 127.421875 121.144531 C 116.542969 126.582031 105.308594 119.835938 94.066406 120.15625 C 93.117188 120.179688 92.496094 119.660156 92.234375 118.984375 C 91.929688 118.652344 91.753906 118.195312 91.839844 117.578125 C 92.644531 111.027344 95.59375 102.464844 100.261719 95.488281 C 99.960938 95.675781 99.65625 95.867188 99.363281 96.09375 C 98.9375 96.496094 98.371094 96.535156 97.863281 96.285156 C 87.117188 91.054688 81.96875 105.546875 74.394531 109.964844 C 66.738281 114.425781 57.550781 114.441406 49.644531 118.265625 C 49.558594 120.316406 51.660156 121.023438 53.523438 121.046875 C 53.609375 121.046875 53.679688 121.078125 53.75 121.09375 C 53.886719 121.046875 54.035156 121.023438 54.222656 121.046875 C 57.984375 121.410156 60.667969 123.910156 61.824219 127.464844 C 61.886719 127.53125 61.925781 127.546875 61.960938 127.601562 C 64.441406 130.527344 67.761719 131.730469 71.546875 131.179688 C 71.671875 131.164062 71.792969 131.195312 71.902344 131.203125 C 72.167969 131 72.492188 130.894531 72.894531 130.953125 C 76.128906 131.441406 79.3125 131.820312 82.128906 133.601562 C 82.339844 133.726562 82.464844 133.890625 82.554688 134.058594 C 88.074219 136.398438 92.125 132.8125 97.4375 133.9375 C 102.257812 134.933594 106.113281 138.1875 110.347656 140.484375 C 110.402344 140.507812 110.433594 140.554688 110.472656 140.578125 C 110.488281 140.578125 110.496094 140.578125 110.511719 140.59375 C 118.128906 143.457031 124.136719 139.757812 131.632812 140.816406 C 138.460938 141.792969 144.019531 146.082031 151.023438 146.277344 C 151.109375 146.277344 151.164062 146.324219 151.242188 146.332031 C 151.382812 146.292969 151.535156 146.269531 151.714844 146.277344 C 157.660156 146.839844 162.421875 146.554688 167.777344 143.597656 C 171.191406 141.707031 174.148438 140.484375 178.097656 140.539062 C 178.308594 140.554688 178.484375 140.59375 178.632812 140.664062 C 178.804688 140.578125 178.996094 140.523438 179.242188 140.539062 C 189.191406 141.351562 200 131.867188 207.65625 126.261719 C 207.710938 126.101562 207.804688 125.921875 207.957031 125.769531 C 212.117188 121.570312 216.101562 117.183594 220.578125 113.3125 C 223.746094 110.585938 228.148438 106.265625 232.695312 106.597656 C 232.785156 106.597656 232.855469 106.636719 232.941406 106.660156 C 233.195312 106.460938 233.546875 106.351562 233.941406 106.40625 Z M 233.265625 135.40625 C 238.710938 133.6875 252.871094 131.203125 250.429688 123.398438 C 239.546875 126.613281 228.785156 130.382812 219.144531 136.382812 C 207.890625 143.402344 198.050781 152.816406 186.203125 158.855469 C 180.535156 161.753906 175.402344 164.625 170.007812 168 C 166.949219 169.910156 162.453125 172.691406 158.582031 171.328125 C 154.355469 169.84375 152.179688 166.730469 148.886719 163.882812 C 142.695312 158.484375 137.105469 163.417969 131.160156 166.070312 C 121.90625 170.207031 114.628906 166.335938 107.800781 159.59375 C 103.683594 155.527344 99.597656 150.253906 94.332031 147.644531 C 88.425781 144.710938 84.21875 146.429688 79.085938 149.738281 C 64.253906 159.296875 52.054688 144.519531 40.882812 133.308594 C 37.042969 135.941406 36.28125 139.8125 36.296875 144.292969 C 40.285156 144.734375 44.375 145.457031 47.839844 147.5625 C 51.984375 150.0625 55.058594 153.644531 58.851562 156.589844 C 69.085938 164.53125 76.925781 153.328125 87.363281 153.847656 C 90.652344 154.027344 93.960938 156.078125 96.4375 158.058594 C 101.429688 162.070312 106.492188 166.296875 112.402344 168.921875 C 118.875 171.816406 126.195312 173.371094 133.171875 171.320312 C 137.382812 170.082031 141.394531 167.699219 145.839844 167.472656 C 149.453125 167.296875 152.828125 170.972656 155.515625 172.808594 C 161.359375 176.792969 165.464844 173.765625 171.386719 171.34375 C 183.949219 166.210938 195.457031 160.707031 206.15625 152.253906 C 214.492188 145.648438 222.960938 138.664062 233.265625 135.40625 Z M 251.613281 164.792969 C 252.816406 162.300781 252.707031 160.289062 251.910156 158.144531 C 248.09375 162.449219 244.902344 165.644531 238.71875 166.691406 C 235.320312 167.273438 231.910156 166.527344 228.488281 166.605469 C 222.351562 166.761719 219.066406 169.84375 216.027344 174.789062 C 214.011719 178.046875 212.132812 179.90625 208.261719 180.664062 C 204.511719 181.410156 200.277344 180.441406 196.808594 182.453125 C 194.285156 183.902344 192.511719 185.953125 190.65625 188.113281 C 192.429688 190.660156 193.132812 193.878906 192.847656 197.015625 C 198.832031 200.390625 201.277344 195.492188 206.015625 192.347656 C 210.027344 189.691406 216.929688 190.960938 218.324219 185.742188 C 218.402344 185.441406 218.527344 185.179688 218.695312 184.96875 C 218.875 184.398438 219.269531 183.871094 219.988281 183.605469 C 221.445312 183.074219 223.085938 182.703125 224.765625 182.34375 C 223.96875 181.609375 223.722656 180.511719 223.796875 179.714844 C 223.8125 179.496094 223.851562 179.289062 223.898438 179.078125 C 223.667969 179.070312 223.417969 179.023438 223.171875 178.96875 C 222.792969 178.898438 222.367188 178.738281 221.996094 178.472656 C 221.609375 178.210938 221.28125 177.800781 221.144531 177.375 C 220.855469 176.507812 221.050781 175.820312 221.210938 175.292969 C 221.40625 174.757812 221.636719 174.316406 221.855469 173.945312 C 222.792969 172.460938 223.550781 171.839844 223.722656 171.949219 C 223.921875 172.070312 223.496094 172.984375 222.976562 174.472656 C 222.839844 174.84375 222.730469 175.253906 222.644531 175.664062 C 222.574219 176.082031 222.589844 176.523438 222.730469 176.726562 C 222.824219 177.074219 223.835938 177.21875 225.015625 177.058594 C 224.96875 177.089844 225.160156 176.964844 225.476562 176.988281 C 225.617188 177.003906 225.726562 177.027344 225.835938 177.089844 C 226.097656 177.195312 226.308594 177.445312 226.375 177.636719 C 226.453125 177.816406 226.453125 177.957031 226.453125 178.035156 C 226.453125 178.1875 226.390625 178.390625 226.277344 178.574219 C 226.128906 179 225.972656 179.464844 225.988281 179.835938 C 225.972656 180.261719 226.082031 180.496094 226.277344 180.679688 C 226.679688 181.089844 227.957031 181.183594 229.070312 180.898438 C 230.71875 180.511719 232.277344 179.464844 232.679688 178.328125 C 233.175781 177.21875 232.429688 175.902344 231.578125 174.914062 L 229.265625 172.195312 L 232.523438 173.410156 C 233.3125 173.699219 234.027344 173.753906 234.574219 173.558594 C 235.15625 173.410156 235.472656 172.914062 235.746094 172.527344 C 235.84375 172.296875 235.921875 172.070312 236.023438 171.894531 C 236.09375 171.699219 236.125 171.523438 236.171875 171.375 C 236.269531 171.097656 236.371094 170.917969 236.449219 170.917969 C 236.550781 170.917969 236.625 171.074219 236.710938 171.398438 C 236.734375 171.554688 236.796875 171.761719 236.804688 172.011719 C 236.796875 172.257812 236.765625 172.542969 236.726562 172.878906 C 236.535156 173.480469 236.191406 174.386719 235.226562 174.882812 C 234.921875 175.058594 234.574219 175.160156 234.203125 175.230469 C 234.320312 175.410156 234.414062 175.570312 234.503906 175.765625 C 234.921875 176.59375 235.101562 177.707031 234.816406 178.761719 C 237.648438 176.523438 237.71875 174.125 239.398438 171.25 C 239.792969 170.585938 240.445312 170.230469 241.171875 170.035156 C 240.886719 169.75 240.660156 169.433594 240.566406 169.097656 C 240.390625 168.605469 240.40625 168.109375 240.519531 167.945312 C 240.636719 167.722656 240.761719 167.589844 240.921875 167.558594 C 242.796875 167.21875 243.859375 169.875 245.613281 169.980469 C 247.835938 170.121094 250.738281 166.621094 251.613281 164.792969 Z M 260.261719 116.339844 C 255.515625 107.101562 247.953125 100.484375 238.105469 96.644531 C 236.199219 95.898438 234.257812 95.320312 232.324219 94.824219 C 230.285156 94.769531 228.078125 94.808594 225.757812 94.949219 C 220.183594 95.320312 214.933594 95.707031 211.125 95.304688 C 207.222656 94.933594 205.109375 93.972656 205.164062 93.601562 C 205.234375 93.144531 207.609375 93.382812 211.179688 93.175781 C 213.230469 93.089844 215.730469 92.828125 218.542969 92.539062 C 212.566406 91.8125 206.621094 91.09375 200.882812 89.140625 C 190.160156 85.480469 182.851562 77.09375 170.789062 77.34375 C 165.128906 77.464844 159.214844 78.292969 153.59375 77.289062 C 149.785156 76.597656 146.300781 74.460938 142.671875 73.339844 C 143.289062 74.988281 143.703125 76.714844 143.933594 78.472656 C 147.609375 78.953125 150.761719 81.167969 154.453125 81.289062 C 157.660156 81.40625 160.46875 81.128906 163.382812 82.484375 C 168.21875 81.957031 173.136719 82.273438 177.828125 83.550781 C 180.644531 84.308594 183.496094 85.316406 186.15625 86.664062 C 186.21875 86.664062 186.28125 86.632812 186.359375 86.632812 C 194.511719 86.773438 197.925781 94.785156 205.363281 97.191406 C 214.59375 100.164062 224.03125 99.808594 233.53125 100.195312 C 236.308594 100.304688 242.605469 102.054688 241.503906 106.25 C 240.582031 109.71875 236.339844 109.261719 233.476562 108.828125 C 233.28125 108.992188 233.035156 109.085938 232.695312 109.078125 C 228.011719 108.726562 222.839844 114.496094 219.75 117.398438 C 216.296875 120.671875 213.0625 124.140625 209.714844 127.515625 C 209.699219 127.53125 209.691406 127.53125 209.675781 127.546875 C 209.609375 127.765625 209.46875 127.996094 209.234375 128.167969 C 201.144531 134.027344 189.964844 143.882812 179.242188 143.015625 C 179.035156 143 178.855469 142.945312 178.710938 142.863281 C 178.539062 142.960938 178.347656 143.03125 178.097656 143.015625 C 172.839844 142.929688 169.335938 146.082031 164.667969 147.792969 C 160.300781 149.386719 156.28125 149.195312 151.714844 148.761719 C 151.613281 148.746094 151.550781 148.699219 151.464844 148.675781 C 151.328125 148.730469 151.1875 148.761719 151.023438 148.761719 C 143.261719 148.535156 136.75 142.660156 129.046875 143.226562 C 122.007812 143.746094 116.734375 145.578125 109.855469 142.976562 C 109.707031 142.925781 109.582031 142.824219 109.464844 142.738281 C 109.359375 142.714844 109.234375 142.683594 109.109375 142.613281 C 103.4375 139.5625 98.789062 135.144531 91.878906 136.839844 C 87.984375 137.785156 85.050781 137.777344 81.347656 136.203125 C 81.070312 136.078125 80.90625 135.902344 80.8125 135.691406 C 78.320312 134.167969 75.511719 133.820312 72.660156 133.410156 C 72.539062 133.480469 72.382812 133.546875 72.207031 133.570312 C 67.550781 134.238281 63.300781 133 60.214844 129.34375 C 60.050781 129.167969 59.980469 128.964844 59.941406 128.757812 C 59.734375 128.617188 59.546875 128.421875 59.445312 128.121094 C 58.648438 125.699219 56.828125 123.769531 54.222656 123.523438 C 54.105469 123.515625 54.035156 123.46875 53.941406 123.445312 C 53.816406 123.484375 53.679688 123.523438 53.523438 123.523438 C 51.78125 123.5 49.785156 123.113281 48.507812 121.804688 C 47.5625 120.859375 47.183594 119.730469 47.152344 118.507812 C 46.671875 117.964844 46.5625 117.066406 47.390625 116.632812 C 47.484375 116.570312 47.5625 116.546875 47.648438 116.507812 C 47.789062 116.386719 47.949219 116.300781 48.136719 116.269531 C 54.40625 113.148438 61.21875 112.621094 67.777344 110.253906 C 73.808594 108.070312 77.160156 104.183594 81.207031 99.902344 C 77.917969 101.628906 74.558594 103.191406 71.035156 104.492188 C 61.660156 107.945312 48.421875 110.066406 40.199219 116.972656 C 38.882812 118.507812 37.382812 120.332031 35.855469 122.46875 C 38.09375 123.570312 40.742188 124.40625 43.628906 125.34375 C 44.496094 125.628906 45.363281 125.945312 46.246094 126.292969 C 46.6875 126.457031 47.097656 126.636719 47.484375 126.828125 C 47.910156 127.023438 48.335938 127.230469 48.753906 127.425781 C 49.5 127.890625 50.242188 128.347656 50.953125 128.789062 C 51.644531 129.265625 52.300781 129.714844 52.964844 130.171875 C 55.519531 132.046875 57.695312 133.765625 59.585938 135.105469 C 61.5 136.421875 63.015625 137.359375 64.183594 138.007812 C 65.367188 138.628906 65.988281 139.070312 65.917969 139.261719 C 65.847656 139.457031 65.089844 139.394531 63.78125 139.105469 C 62.503906 138.820312 60.5625 138.046875 58.457031 136.917969 C 56.335938 135.746094 53.957031 134.167969 51.394531 132.472656 C 50.746094 132.0625 50.085938 131.644531 49.414062 131.21875 C 48.722656 130.824219 48.019531 130.421875 47.316406 130.011719 C 46.773438 129.785156 45.78125 129.289062 45.078125 129.074219 C 44.335938 128.773438 43.523438 128.492188 42.667969 128.207031 C 42.144531 128.042969 41.625 127.859375 41.097656 127.679688 C 47.429688 133.640625 52.882812 140.609375 60.226562 145.277344 C 65.75 148.769531 70.128906 150.605469 75.921875 146.855469 C 77.773438 145.671875 79.683594 144.285156 81.71875 143.304688 C 77.632812 142.925781 73.808594 143.582031 70.925781 144.039062 C 69.230469 144.308594 67.832031 144.542969 66.855469 144.664062 C 65.863281 144.765625 65.285156 144.734375 65.230469 144.535156 C 65.160156 144.339844 65.625 143.992188 66.507812 143.542969 C 67.390625 143.070312 68.699219 142.535156 70.402344 141.957031 C 72.113281 141.40625 74.164062 140.839844 76.554688 140.507812 C 78.925781 140.136719 81.679688 140.113281 84.460938 140.632812 C 86.078125 140.925781 87.597656 141.40625 88.996094 141.933594 C 96.003906 142.367188 101.703125 147.5625 106.671875 152.601562 C 110.667969 156.640625 115.535156 162.796875 121.488281 163.789062 C 126.980469 164.695312 131.523438 161.03125 136.230469 158.832031 C 138.429688 157.789062 140.605469 157.292969 142.851562 157.292969 C 142.546875 157.066406 142.238281 156.867188 141.9375 156.640625 C 139.542969 155.015625 136.851562 154.140625 134.324219 153.839844 C 131.808594 153.523438 129.472656 153.777344 127.542969 154.179688 C 125.617188 154.589844 124.089844 155.171875 123.039062 155.558594 C 121.96875 155.984375 121.304688 156.195312 121.195312 156.007812 C 121.101562 155.828125 121.511719 155.3125 122.417969 154.550781 C 123.394531 153.808594 124.894531 152.871094 126.949219 152.128906 C 129.015625 151.402344 131.648438 150.875 134.589844 151.066406 C 137.523438 151.261719 140.773438 152.214844 143.632812 154.140625 C 144.335938 154.636719 145.03125 155.15625 145.605469 155.652344 C 146.195312 156.164062 146.828125 156.742188 147.363281 157.261719 C 147.757812 157.664062 148.144531 158.050781 148.515625 158.429688 C 152.070312 160.179688 153.980469 164.324219 157.359375 166.265625 C 164.125 170.152344 170.75 161.527344 176.402344 158.886719 C 181.691406 156.425781 186.855469 154.019531 191.699219 150.742188 C 192.074219 150.496094 192.429688 150.246094 192.792969 150 C 190.121094 150.65625 187.527344 151.054688 185.152344 151.472656 C 181.558594 152.042969 178.378906 152.585938 175.785156 153.273438 C 173.199219 153.949219 171.136719 154.707031 169.828125 155.347656 C 168.46875 156 167.671875 156.441406 167.546875 156.230469 C 167.445312 156.078125 167.941406 155.378906 169.179688 154.375 C 170.449219 153.328125 172.484375 152.230469 175.140625 151.238281 C 177.8125 150.230469 181.070312 149.457031 184.640625 148.730469 C 188.203125 147.972656 192.125 147.296875 195.890625 145.90625 L 196.246094 145.78125 L 196.40625 145.710938 L 196.507812 145.6875 L 196.53125 145.671875 L 197.183594 145.355469 C 197.648438 145.121094 198.117188 144.890625 198.566406 144.664062 C 199.023438 144.433594 199.503906 144.222656 199.914062 143.992188 C 200.332031 143.730469 200.726562 143.480469 201.128906 143.234375 C 202.726562 142.328125 204.25 141.175781 205.730469 140.167969 C 208.664062 138.046875 211.304688 136.050781 213.726562 134.609375 C 215.128906 133.742188 216.421875 133.078125 217.550781 132.558594 C 218.734375 131.835938 219.933594 131.140625 221.160156 130.460938 C 221.375 130.273438 221.585938 130.082031 221.800781 129.886719 C 222.34375 129.40625 222.910156 128.917969 223.472656 128.421875 L 223.882812 128.042969 L 224.238281 127.710938 L 225.050781 126.914062 C 229.402344 122.59375 233.722656 118.753906 237.441406 116.757812 C 239.28125 115.734375 240.871094 115.128906 242.078125 114.90625 C 243.238281 114.671875 243.882812 114.757812 243.933594 114.9375 C 244.003906 115.152344 243.417969 115.472656 242.449219 116.019531 C 241.511719 116.53125 240.15625 117.382812 238.601562 118.542969 C 236.125 120.347656 233.210938 123.097656 229.96875 126.292969 C 239.792969 122.160156 249.996094 119.203125 260.261719 116.339844 Z M 246.15625 143.796875 C 253.503906 143.070312 259.039062 132.226562 254.726562 126.496094 C 254.164062 130.257812 251.171875 133.246094 246.816406 135.144531 C 237.347656 139.269531 227.792969 141.191406 219.175781 147.421875 C 217.519531 148.605469 215.910156 149.804688 214.300781 151.015625 C 218.503906 152.035156 222.785156 152.679688 226.734375 150.378906 C 226.316406 150.480469 225.917969 150.496094 225.570312 150.433594 C 224.582031 150.355469 223.828125 149.953125 223.289062 149.558594 C 222.738281 149.140625 222.429688 148.730469 222.273438 148.359375 C 222.132812 148.027344 222.164062 147.816406 222.257812 147.753906 C 222.351562 147.667969 222.558594 147.769531 222.839844 147.917969 C 223.070312 148.042969 223.457031 148.234375 223.9375 148.390625 C 224.820312 148.746094 226.523438 148.785156 226.964844 147.847656 L 227.949219 145.78125 L 228.921875 148.109375 C 229.265625 148.960938 229.730469 149.597656 230.535156 149.691406 C 231.441406 149.875 232.59375 149.511719 233.546875 149.015625 C 234.496094 148.519531 235.296875 147.902344 235.898438 147.335938 C 236.535156 146.773438 236.914062 146.222656 237.230469 145.835938 C 237.476562 145.457031 237.703125 145.207031 237.859375 145.214844 C 238.019531 145.246094 238.105469 145.546875 238.074219 146.152344 C 237.988281 146.71875 237.757812 147.546875 237.167969 148.390625 C 236.605469 149.226562 235.773438 150.125 234.621094 150.867188 C 233.5625 151.539062 232.167969 152.183594 230.425781 152.003906 C 234.550781 156.230469 243.734375 152.710938 243.484375 146.59375 C 243.46875 146.332031 243.507812 146.097656 243.578125 145.882812 C 243.152344 145.988281 242.695312 146.003906 242.246094 145.867188 C 241.101562 145.480469 240.871094 144.574219 240.769531 144.132812 C 240.761719 143.707031 240.816406 143.441406 240.945312 143.386719 C 241.101562 143.335938 241.324219 143.480469 241.597656 143.8125 C 241.875 144.039062 242.246094 144.347656 242.582031 144.285156 C 242.867188 144.285156 243.402344 143.9375 243.859375 143.359375 C 244.300781 142.769531 244.640625 142.234375 244.617188 141.546875 L 244.570312 140.632812 L 246.164062 140.632812 C 247.148438 140.632812 247.835938 140.207031 248.425781 139.828125 C 248.566406 139.703125 248.710938 139.457031 248.851562 139.339844 C 248.976562 139.191406 249.097656 138.96875 249.207031 138.835938 C 249.46875 138.574219 249.625 138.15625 249.835938 137.898438 C 250.507812 136.667969 250.941406 135.738281 251.273438 135.816406 C 251.570312 135.886719 251.730469 136.863281 251.34375 138.472656 C 251.203125 138.859375 251.121094 139.316406 250.847656 139.765625 C 250.710938 140.003906 250.585938 140.238281 250.429688 140.484375 C 250.246094 140.703125 250.035156 140.941406 249.820312 141.175781 C 249.058594 141.871094 247.898438 142.328125 246.777344 142.382812 C 246.652344 142.925781 246.429688 143.386719 246.15625 143.796875 Z M 259.921875 172.210938 C 260.167969 172.011719 260.425781 171.871094 260.703125 171.785156 C 260.175781 171.304688 259.613281 170.847656 258.984375 170.617188 C 258.582031 170.460938 258.226562 170.214844 257.964844 169.910156 C 256.261719 170.191406 254.542969 170.175781 253.007812 169.804688 C 250.824219 172.1875 247.339844 174.703125 244.546875 174.222656 C 242.230469 173.820312 243.425781 172.390625 242.386719 174.898438 C 242 175.820312 241.628906 176.839844 241.15625 177.714844 C 240.40625 179.164062 239.492188 180.386719 238.160156 181.394531 C 233.421875 185 227.636719 185.402344 222.179688 187.214844 C 219.742188 195.335938 212.171875 192.199219 206.664062 197.101562 C 201.804688 201.4375 197.59375 203.953125 191.839844 201.171875 C 191.066406 203.101562 189.875 204.835938 188.269531 206.183594 C 181.472656 211.859375 172.207031 211.386719 163.828125 211.308594 C 160.5625 217.128906 156.878906 224.703125 149.453125 223.363281 C 144.597656 232.457031 129.046875 225.992188 122.890625 221.613281 C 118.347656 218.367188 114.011719 214.605469 110.636719 210.160156 C 106.015625 204.039062 96.886719 205.066406 90.621094 201.1875 C 90.570312 201.1875 90.515625 201.203125 90.460938 201.203125 C 85.351562 201.171875 80.464844 200.238281 77.59375 196.3125 C 70.609375 201.328125 61.992188 196.234375 57.203125 189.941406 C 57.132812 189.957031 57.054688 189.972656 56.96875 189.957031 C 53.398438 189.863281 50.210938 188.414062 47.554688 186.148438 C 44.171875 186.734375 40.09375 186.132812 37.492188 184.132812 C 37.414062 184.226562 37.351562 184.328125 37.273438 184.421875 C 36.214844 185.582031 34.640625 185.960938 35.261719 187.53125 C 44.605469 188.058594 53.199219 190.792969 61.414062 195.4375 C 66.617188 198.363281 71.957031 202.746094 77.71875 204.449219 C 82.546875 205.894531 87.542969 206.105469 92.519531 206.710938 C 113.40625 209.257812 124.222656 235.585938 146.675781 232.613281 C 155.40625 228.300781 161.273438 219.539062 170.269531 215.804688 C 175.28125 213.730469 180.382812 212.996094 185.667969 211.964844 C 191.902344 210.742188 197.675781 208.566406 203.398438 205.789062 C 212.984375 201.152344 221.941406 195.144531 231.796875 191.085938 C 237.183594 188.871094 243.136719 186.984375 247.945312 183.585938 C 252.488281 180.386719 255.648438 175.75 259.921875 172.210938 Z M 263.484375 150.214844 C 263.46875 150.039062 263.460938 149.859375 263.445312 149.667969 C 260.8125 151.617188 257.746094 152.816406 255.019531 155.007812 C 256.726562 158.75 257.136719 162.339844 255.539062 165.964844 C 255.804688 165.367188 261.113281 165.5625 262.136719 164.144531 C 263.578125 162.164062 262.011719 159.453125 260.9375 157.703125 C 261.820312 157.492188 262.476562 157.277344 262.972656 157.046875 C 266.609375 155.328125 260.898438 153.027344 263.484375 150.214844 Z M 267.058594 145.742188 C 268.398438 147.644531 268.601562 149.582031 267.554688 151.507812 C 269.554688 154.25 268.863281 157.59375 266.292969 159.382812 C 268.71875 163.015625 266.503906 166.320312 262.847656 168.277344 C 263.570312 168.851562 264.242188 169.484375 264.898438 170.152344 C 265.511719 170.757812 265.757812 171.894531 265.21875 172.652344 C 264.203125 174.085938 263.460938 175.570312 261.957031 176.601562 C 261.570312 176.863281 261.199219 176.964844 260.851562 176.964844 C 257.832031 179.960938 255.222656 183.484375 251.753906 185.9375 C 247.898438 188.648438 243.703125 190.628906 239.34375 192.417969 C 228.3125 196.945312 218.402344 203.085938 207.710938 208.273438 C 202.507812 210.796875 196.988281 213.644531 191.296875 214.976562 C 186.15625 216.175781 180.691406 216.535156 175.660156 218.191406 C 165.585938 221.503906 159.246094 230.382812 150.1875 235.4375 C 149.980469 235.933594 149.554688 236.328125 148.828125 236.453125 C 138.871094 238.164062 129.046875 234.695312 121.085938 228.703125 C 112.828125 222.496094 104.503906 212.972656 93.882812 211.097656 C 88.804688 210.199219 83.367188 210.449219 78.414062 208.960938 C 73.390625 207.476562 69.179688 204.75 64.703125 202.109375 C 54.738281 196.203125 45.117188 191.8125 33.332031 191.566406 C 31.792969 191.535156 31.148438 190.132812 31.398438 188.980469 C 30.554688 186.820312 30.640625 184.644531 32.660156 183.003906 C 33.734375 182.136719 34.394531 181.058594 34.921875 179.90625 C 34.796875 179.109375 34.820312 178.226562 35.011719 177.25 C 35.167969 176.523438 35.59375 176.082031 36.105469 175.890625 C 34.65625 174.921875 33.542969 173.464844 32.953125 171.234375 C 32.707031 170.316406 33.054688 169.59375 33.652344 169.144531 C 34.867188 167.472656 36.28125 166.035156 37.878906 164.75 C 36.609375 163.308594 36.035156 161.402344 36.515625 159.042969 C 33.417969 156.132812 32.433594 151.734375 34.695312 148.265625 C 34.546875 148.25 34.410156 148.21875 34.253906 148.203125 C 32.960938 148.078125 32.304688 147.019531 32.273438 146.003906 C 32.234375 145.835938 32.1875 145.65625 32.1875 145.457031 C 32 139.386719 33.140625 134.011719 37.878906 130.398438 C 35.839844 128.46875 33.828125 126.757812 31.839844 125.441406 C 31.011719 124.902344 30.777344 124.066406 30.941406 123.289062 C 30.839844 122.878906 30.871094 122.40625 31.089844 121.929688 C 37.273438 108.660156 54.617188 105.910156 67.003906 101.558594 C 86.8125 94.621094 102.175781 79.214844 122.714844 73.71875 C 122.859375 73.679688 122.984375 73.671875 123.125 73.65625 C 124.167969 70.066406 125.367188 66.691406 126.320312 63.871094 C 126.605469 63.011719 127.25 62.585938 127.9375 62.476562 C 128.394531 62 129.070312 61.71875 129.898438 61.898438 C 134.339844 62.917969 137.722656 65.382812 140.09375 68.617188 C 145.929688 69.398438 150.421875 73.222656 156.507812 73.472656 C 163.09375 73.75 169.828125 72.582031 176.378906 73.488281 C 188.480469 75.160156 196.878906 84.984375 209.183594 86.734375 C 222.050781 88.554688 234.753906 89.335938 246.304688 95.984375 C 254.8125 100.886719 260.992188 107.628906 264.96875 116.632812 C 265.511719 117.824219 265.132812 119.273438 263.730469 119.660156 C 261.167969 120.371094 258.574219 121.09375 255.980469 121.804688 C 260.8125 125.304688 261.339844 131.359375 259.289062 136.769531 C 262.351562 138.023438 264.898438 139.710938 267.324219 142.164062 C 268.027344 142.863281 268.050781 143.8125 267.65625 144.664062 C 267.476562 145.039062 267.269531 145.402344 267.058594 145.742188 Z M 60.832031 174.417969 C 60.089844 173.867188 59.460938 173.203125 58.664062 172.832031 C 58.292969 172.628906 57.9375 172.390625 57.550781 172.210938 C 57.164062 172.0625 56.777344 171.910156 56.402344 171.769531 C 53.363281 170.65625 50.511719 170.585938 48.617188 170.351562 C 46.6875 170.160156 45.613281 169.980469 45.613281 169.78125 C 45.613281 169.570312 46.671875 169.347656 48.632812 169.183594 C 50.550781 169.058594 53.460938 168.757812 57.054688 169.734375 C 57.488281 169.875 57.945312 170.011719 58.417969 170.152344 C 58.867188 170.328125 59.308594 170.578125 59.78125 170.792969 C 60.738281 171.183594 61.550781 171.894531 62.472656 172.511719 L 62.558594 172.566406 L 62.597656 172.597656 L 62.613281 172.613281 L 62.699219 172.691406 L 62.707031 172.707031 L 63.671875 173.675781 C 64.046875 174.101562 64.441406 174.597656 64.8125 175.074219 C 65.476562 176.011719 66.113281 176.988281 66.683594 177.980469 C 67.035156 178.558594 67.375 179.125 67.730469 179.691406 C 70.214844 182.191406 72.507812 184.929688 75.09375 187.230469 C 75.527344 187.515625 75.953125 187.8125 76.394531 188.066406 C 80.628906 190.714844 85.453125 191.652344 89.648438 191 C 90.183594 190.90625 90.691406 190.808594 91.203125 190.714844 C 91.714844 190.574219 92.210938 190.4375 92.691406 190.296875 C 93.648438 189.972656 94.578125 189.636719 95.539062 189.226562 C 97.367188 188.414062 99.394531 187.8125 101.144531 187.441406 C 104.773438 186.734375 107.886719 187.507812 109.644531 188.453125 C 111.425781 189.390625 112.230469 190.164062 112.136719 190.296875 C 112.015625 190.503906 110.992188 190.09375 109.21875 189.554688 C 107.445312 189.003906 104.757812 188.664062 101.609375 189.515625 C 100.089844 189.988281 98.566406 190.535156 96.832031 191.371094 C 101.375 190.878906 105.835938 190.769531 109.921875 193.386719 C 114.105469 196.054688 117.867188 199.507812 122.394531 201.628906 C 128.21875 204.355469 134.433594 205.84375 140.566406 207.699219 C 140.621094 207.714844 140.675781 207.738281 140.726562 207.769531 C 144.902344 206.609375 147.488281 203.75 150.242188 200.964844 C 150.15625 200.996094 150.089844 201.027344 150.019531 201.050781 C 147.511719 201.777344 145.0625 201.644531 143.050781 201.351562 C 141.023438 201.066406 139.3125 200.65625 137.863281 200.375 C 136.429688 200.113281 135.277344 199.910156 134.464844 199.757812 C 133.628906 199.632812 133.140625 199.453125 133.132812 199.246094 C 133.117188 199.042969 133.566406 198.820312 134.394531 198.585938 C 135.261719 198.394531 136.539062 198.222656 138.089844 198.253906 C 139.628906 198.269531 141.433594 198.464844 143.34375 198.585938 C 145.242188 198.710938 147.253906 198.710938 149.167969 198.148438 C 149.632812 197.992188 150.105469 197.84375 150.546875 197.636719 C 151.023438 197.402344 151.503906 197.171875 151.960938 196.945312 C 152.898438 196.464844 153.945312 196.023438 154.917969 195.652344 C 156.894531 194.894531 158.828125 194.59375 160.40625 194.554688 C 160.59375 194.554688 160.773438 194.570312 160.933594 194.570312 C 164.503906 193.902344 168.042969 194.359375 172.042969 194.578125 C 181.386719 195.066406 185.699219 186.695312 191.988281 181.324219 C 191.328125 181.640625 190.664062 181.957031 189.980469 182.292969 C 189.457031 182.539062 188.945312 182.753906 188.433594 183.003906 C 187.9375 183.28125 187.457031 183.546875 186.976562 183.800781 C 186.019531 184.328125 185.089844 184.824219 184.199219 185.289062 C 182.449219 186.292969 180.871094 187.191406 179.507812 187.886719 C 176.789062 189.421875 175 190.1875 174.769531 189.847656 C 174.535156 189.5 175.898438 188.113281 178.292969 186.132812 C 179.53125 185.179688 181.03125 184.078125 182.765625 182.910156 C 183.648438 182.367188 184.585938 181.804688 185.546875 181.214844 C 186.042969 180.9375 186.535156 180.632812 187.046875 180.347656 C 187.558594 180.070312 188.125 179.820312 188.660156 179.566406 C 189.207031 179.320312 189.757812 179.054688 190.292969 178.808594 L 191.113281 178.453125 L 191.492188 178.265625 L 191.699219 178.171875 L 191.738281 178.15625 L 191.878906 178.101562 L 191.988281 178.078125 C 192.511719 177.910156 193.039062 177.761719 193.558594 177.609375 C 194.164062 177.515625 194.773438 177.414062 195.363281 177.320312 C 196.863281 177.179688 198.179688 177.25 199.363281 177.359375 C 200.195312 177.167969 201.046875 177.027344 201.957031 176.988281 C 205.683594 176.792969 209.652344 177.25 211.851562 173.683594 C 212.914062 171.949219 213.988281 170.191406 215.304688 168.617188 C 219.464844 163.75 224.078125 162.179688 230.410156 162.535156 C 235.171875 162.8125 241.101562 163.484375 244.871094 159.839844 C 246.746094 158.035156 248.191406 155.898438 250.011719 154.058594 C 253.984375 150.023438 260.125 148.566406 263.25 143.992188 C 261.5 142.4375 259.660156 141.3125 257.429688 140.453125 C 255.097656 144.046875 251.59375 146.894531 247.589844 147.722656 C 246.953125 157.066406 233.601562 161.1875 227.320312 154.707031 C 222.921875 156.671875 218.308594 156.148438 213.65625 155.085938 C 215.722656 167.394531 200.195312 177.839844 189.332031 172.046875 C 188.386719 176.988281 184.609375 180.679688 179.507812 181.515625 C 178.253906 188.734375 170.90625 189.746094 164.101562 189.5 C 163.480469 189.476562 163.023438 189.242188 162.699219 188.878906 C 160.492188 189.988281 157.992188 190.738281 155.609375 190.714844 C 152.015625 195.746094 142.957031 198.519531 139.738281 193.285156 C 133.457031 196.984375 126.769531 195.613281 121.140625 191.085938 C 120.996094 191.085938 120.824219 191.070312 120.644531 191.03125 C 116.898438 190.203125 114.769531 188.996094 112.703125 185.835938 C 108.808594 179.867188 101.308594 182.917969 95.507812 182.382812 C 95.277344 182.367188 95.082031 182.316406 94.890625 182.230469 C 90.972656 185.953125 85.351562 185.675781 81.171875 182.191406 C 78.414062 179.890625 77.6875 177.691406 76.65625 174.363281 C 76.007812 172.28125 73.1875 171.152344 71.515625 169.433594 C 66.769531 169.925781 60.460938 168.9375 57.6875 165.097656 C 53.847656 168.410156 46.371094 169.144531 41.363281 167.101562 C 41.207031 167.3125 41.011719 167.488281 40.796875 167.660156 C 39.488281 168.605469 38.28125 169.820312 37.3125 171.113281 C 39.488281 175.324219 47.167969 172.914062 50.800781 172.792969 C 54.121094 172.683594 57.78125 172.96875 60.832031 174.417969 " fill-opacity="1" fill-rule="nonzero"/></g><path fill="currentColor" d="M 216.839844 179.441406 C 217.054688 179.574219 216.644531 180.953125 215.335938 183.042969 C 214.65625 184.046875 213.65625 185.410156 211.820312 186.101562 C 210.613281 186.558594 209.289062 186.597656 207.980469 186.457031 C 208.027344 187.074219 207.957031 187.757812 207.65625 188.3125 C 207.238281 189.195312 206.566406 189.832031 205.875 190.234375 C 205.1875 190.628906 204.476562 190.914062 203.746094 191.039062 C 202.902344 191.226562 202.050781 191.210938 201.222656 191.054688 C 201.214844 191.234375 201.183594 191.425781 201.144531 191.605469 C 200.96875 192.402344 200.472656 193.105469 199.90625 193.507812 C 198.761719 194.320312 197.683594 194.34375 196.878906 194.382812 C 195.238281 194.375 194.386719 194.003906 194.386719 193.8125 C 194.402344 193.5625 195.324219 193.492188 196.726562 193.175781 C 197.414062 193 198.28125 192.734375 198.816406 192.199219 C 199.078125 191.921875 199.234375 191.636719 199.289062 191.25 C 199.3125 190.863281 199.234375 190.382812 199.0625 189.871094 L 198.445312 187.796875 L 200.550781 188.679688 C 201.277344 188.980469 202.285156 189.089844 203.273438 188.839844 C 204.25 188.625 205.257812 188.042969 205.550781 187.339844 C 205.804688 186.859375 205.714844 186.269531 205.355469 185.605469 L 204.101562 183.289062 L 206.605469 183.917969 C 208.339844 184.351562 209.949219 184.558594 211.1875 184.203125 C 212.425781 183.871094 213.378906 182.949219 214.152344 182.136719 C 215.660156 180.433594 216.589844 179.257812 216.839844 179.441406 " fill-opacity="1" fill-rule="nonzero"/><path fill="currentColor" d="M 211.355469 107.148438 C 211.425781 107.273438 211.3125 107.488281 211.09375 107.777344 C 210.847656 108.039062 210.542969 108.441406 210.226562 108.882812 C 209.980469 109.378906 209.714844 109.929688 209.730469 110.601562 C 209.746094 111.273438 209.949219 112.050781 210.335938 112.855469 L 211.148438 114.636719 L 209.097656 114.457031 C 208.664062 114.425781 208.214844 114.386719 207.796875 114.480469 C 205.921875 114.796875 204.636719 116.585938 203.964844 117.894531 C 203.59375 118.566406 203.382812 119.164062 203.167969 119.550781 C 202.972656 119.992188 202.808594 120.238281 202.640625 120.226562 C 202.476562 120.195312 202.355469 119.929688 202.269531 119.464844 C 202.214844 118.953125 202.207031 118.210938 202.421875 117.34375 C 202.632812 116.460938 203.027344 115.433594 203.800781 114.425781 C 204.566406 113.449219 205.796875 112.460938 207.378906 112.195312 C 207.515625 112.171875 207.65625 112.15625 207.78125 112.140625 C 207.679688 111.554688 207.671875 110.957031 207.75 110.390625 C 207.90625 109.261719 208.5625 108.425781 209.113281 107.898438 C 209.730469 107.417969 210.273438 107.15625 210.667969 107.09375 C 211.0625 106.992188 211.304688 107.007812 211.355469 107.148438 " fill-opacity="1" fill-rule="nonzero"/><path fill="currentColor" d="M 192.550781 126.636719 C 192.636719 126.859375 191.683594 127.488281 190.042969 128.476562 C 188.425781 129.539062 186.195312 131.09375 183.472656 133.015625 L 182.644531 133.585938 L 182.039062 132.679688 C 181.402344 131.714844 180.203125 131.054688 178.789062 130.847656 C 177.355469 130.628906 175.746094 130.917969 174.34375 131.566406 C 173.515625 131.976562 172.804688 132.511719 172.316406 133.160156 C 171.867188 133.820312 171.65625 134.554688 171.632812 135.304688 L 171.585938 136.535156 L 170.472656 136.46875 C 168.414062 136.359375 166.492188 136.519531 164.820312 136.855469 C 164.402344 136.945312 164 137.039062 163.605469 137.140625 C 163.21875 137.234375 162.863281 137.386719 162.507812 137.496094 C 161.769531 137.722656 161.167969 138.0625 160.59375 138.324219 C 158.402344 139.441406 157.1875 140.664062 156.984375 140.398438 C 156.902344 140.324219 157.09375 139.949219 157.519531 139.355469 C 157.90625 138.765625 158.734375 137.953125 159.875 137.125 C 160.453125 136.753906 161.089844 136.289062 161.855469 135.972656 C 162.226562 135.800781 162.613281 135.585938 163.039062 135.429688 C 163.464844 135.296875 163.90625 135.160156 164.363281 135.003906 C 165.890625 134.578125 167.640625 134.308594 169.511719 134.261719 C 169.636719 133.410156 169.9375 132.566406 170.449219 131.835938 C 171.191406 130.792969 172.222656 130.027344 173.320312 129.46875 C 175.210938 128.601562 177.230469 128.300781 179.136719 128.632812 C 180.675781 128.878906 182.179688 129.640625 183.175781 130.792969 C 185.648438 129.304688 187.84375 128.105469 189.488281 127.410156 C 191.359375 126.6875 192.476562 126.441406 192.550781 126.636719 " fill-opacity="1" fill-rule="nonzero"/><path fill="currentColor" d="M 147.152344 216 C 147.277344 216.03125 147.308594 216.371094 147.199219 217.019531 C 147.03125 217.640625 146.703125 218.617188 145.714844 219.453125 C 144.761719 220.3125 143.136719 220.898438 141.371094 220.597656 C 140.125 220.421875 138.839844 219.785156 137.777344 218.777344 C 137.46875 219.179688 137.207031 219.605469 136.78125 219.949219 C 135.96875 220.777344 134.742188 221.300781 133.511719 221.433594 C 132.273438 221.589844 131.082031 221.273438 130.097656 220.777344 C 129.085938 220.3125 128.257812 219.605469 127.582031 218.847656 C 126.484375 217.609375 125.847656 216.140625 125.601562 214.722656 C 124.585938 214.722656 123.601562 214.335938 123.023438 213.769531 C 122.1875 213.027344 121.800781 212.175781 121.597656 211.484375 C 121.390625 210.796875 121.367188 210.246094 121.390625 209.859375 C 121.429688 209.488281 121.511719 209.292969 121.597656 209.292969 C 121.816406 209.265625 121.96875 210.023438 122.574219 211.066406 C 123.148438 212.089844 124.484375 213.453125 126.136719 212.777344 L 127.195312 212.335938 L 127.359375 213.605469 C 127.527344 214.882812 128.148438 216.246094 129.207031 217.363281 C 129.726562 217.894531 130.363281 218.390625 131.082031 218.707031 C 131.777344 219.042969 132.554688 219.21875 133.28125 219.128906 C 134.75 219.003906 135.914062 217.820312 136.601562 216.402344 L 137.507812 214.542969 L 138.539062 216.277344 C 139.328125 217.578125 140.519531 218.460938 141.742188 218.761719 C 142.957031 219.082031 144.105469 218.832031 144.902344 218.351562 C 146.519531 217.332031 146.851562 215.875 147.152344 216 " fill-opacity="1" fill-rule="nonzero"/><path fill="currentColor" d="M 144.375 135.128906 C 144.414062 135.25 143.878906 135.53125 142.804688 135.738281 C 141.742188 135.902344 140.179688 135.863281 138.398438 135.902344 L 137.632812 135.917969 L 137.648438 135.074219 C 137.65625 133.464844 137.230469 131.371094 135.425781 131.054688 C 133.636719 130.667969 131.160156 131.644531 129.277344 133.261719 L 128.007812 134.332031 L 127.441406 132.703125 C 127.085938 131.691406 126.539062 130.792969 125.6875 130.335938 C 124.097656 129.46875 121.800781 130.066406 120.113281 131.070312 C 118.363281 132.0625 117.015625 133.53125 116.378906 135.003906 L 115.839844 136.21875 L 114.894531 135.445312 C 112.433594 133.433594 110.242188 132.132812 108.5625 131.496094 C 106.949219 130.894531 105.78125 130.777344 105.835938 130.542969 C 105.867188 130.398438 106.867188 130.082031 108.863281 130.4375 C 110.558594 130.738281 112.773438 131.714844 115.085938 133.230469 C 115.9375 131.621094 117.269531 130.210938 118.964844 129.160156 C 120.027344 128.539062 121.179688 127.972656 122.527344 127.734375 C 123.851562 127.503906 125.40625 127.546875 126.800781 128.300781 C 127.816406 128.847656 128.519531 129.714844 129.015625 130.628906 C 129.851562 130.085938 130.75 129.65625 131.671875 129.34375 C 133.03125 128.894531 134.519531 128.703125 135.953125 129.097656 C 136.664062 129.289062 137.328125 129.707031 137.847656 130.203125 C 138.359375 130.722656 138.707031 131.328125 138.910156 131.9375 C 139.226562 132.84375 139.257812 133.6875 139.210938 134.4375 C 140.742188 134.609375 141.914062 134.808594 142.78125 134.910156 C 143.746094 134.964844 144.320312 134.980469 144.375 135.128906 " fill-opacity="1" fill-rule="nonzero"/><path fill="currentColor" d="M 92.757812 102.550781 C 92.796875 102.710938 92.582031 102.945312 92.164062 103.238281 C 91.976562 103.371094 91.730469 103.542969 91.4375 103.71875 C 91.171875 103.9375 90.871094 104.160156 90.53125 104.40625 C 90.195312 104.640625 89.910156 104.988281 89.546875 105.289062 C 89.222656 105.617188 88.925781 106.035156 88.601562 106.414062 C 88.378906 106.886719 88.007812 107.28125 87.859375 107.824219 C 87.757812 108.085938 87.664062 108.339844 87.558594 108.605469 C 87.503906 108.882812 87.441406 109.167969 87.386719 109.457031 C 87.222656 110.035156 87.308594 110.640625 87.238281 111.207031 L 87.046875 112.597656 L 85.914062 112.390625 C 84.957031 112.226562 84.042969 112.226562 83.246094 112.335938 C 82.464844 112.484375 81.789062 112.730469 81.277344 113.046875 C 80.304688 113.589844 79.699219 114.457031 79.453125 114.246094 C 79.328125 114.179688 79.3125 113.929688 79.40625 113.535156 C 79.4375 113.171875 79.777344 112.53125 80.328125 111.925781 C 80.867188 111.3125 81.71875 110.765625 82.765625 110.40625 C 83.4375 110.199219 84.195312 110.105469 84.980469 110.089844 C 84.980469 109.75 85.011719 109.402344 85.101562 109.046875 C 85.1875 108.675781 85.273438 108.300781 85.351562 107.929688 C 85.488281 107.574219 85.644531 107.226562 85.792969 106.886719 C 86.039062 106.195312 86.550781 105.664062 86.90625 105.113281 C 87.378906 104.625 87.828125 104.175781 88.300781 103.828125 C 88.796875 103.511719 89.238281 103.191406 89.671875 103 C 90.128906 102.8125 90.539062 102.660156 90.902344 102.535156 C 91.273438 102.441406 91.605469 102.410156 91.878906 102.378906 C 92.410156 102.339844 92.722656 102.394531 92.757812 102.550781 " fill-opacity="1" fill-rule="nonzero"/><path fill="currentColor" d="M 86.21875 123.183594 C 86.519531 123.570312 86.644531 123.800781 86.566406 123.886719 C 86.371094 124.117188 85.558594 123.515625 84.089844 123.144531 C 83.351562 122.988281 82.464844 122.863281 81.472656 123.042969 C 80.496094 123.222656 79.4375 123.625 78.445312 124.328125 L 77.546875 124.949219 L 76.914062 123.964844 C 76.074219 122.671875 74.769531 121.488281 73.125 121.105469 C 72.058594 120.828125 70.964844 120.96875 70.074219 121.355469 C 69.148438 121.734375 68.464844 122.46875 67.9375 123.25 L 66.609375 125.25 L 66.082031 123.003906 C 65.625 121.0625 64.347656 119.730469 63.386719 118.917969 C 62.433594 118.117188 61.660156 117.675781 61.785156 117.46875 C 61.871094 117.304688 62.644531 117.273438 64.015625 117.910156 C 64.980469 118.367188 66.273438 119.25 67.226562 120.757812 C 67.730469 120.195312 68.355469 119.699219 69.101562 119.328125 C 70.449219 118.667969 72.121094 118.445312 73.683594 118.863281 C 75.664062 119.328125 77.207031 120.613281 78.210938 122.027344 C 79.257812 121.539062 80.328125 121.292969 81.308594 121.253906 C 82.601562 121.183594 83.71875 121.53125 84.539062 121.914062 C 85.351562 122.347656 85.929688 122.78125 86.21875 123.183594 " fill-opacity="1" fill-rule="nonzero"/></svg>