<svg xmlns="http://www.w3.org/2000/svg" xmlns:xlink="http://www.w3.org/1999/xlink" width="400" zoomAndPan="magnify" viewBox="0 0 300 299.999988" height="400" preserveAspectRatio="xMidYMid meet" version="1.0"><defs><clipPath id="51a43e5876"><path d="M 30.183594 35.101562 L 269.808594 35.101562 L 269.808594 264.601562 L 30.183594 264.601562 Z M 30.183594 35.101562 " clip-rule="nonzero"/></clipPath></defs><g clip-path="url(#51a43e5876)"><path fill="#a9a0f0" d="M 259.59375 185.777344 C 252.128906 209.277344 234.636719 240.066406 193.71875 253.273438 C 177.066406 258.648438 160.238281 261.296875 144.011719 261.296875 C 117.851562 261.296875 93.300781 254.414062 73.800781 241 C 49.320312 224.164062 35.507812 199.152344 33.871094 168.664062 C 33.285156 157.746094 35.003906 132.792969 45.203125 108.507812 C 58.699219 76.351562 82.042969 55.109375 114.597656 45.375 C 129.460938 40.929688 143.632812 38.707031 157.058594 38.707031 C 176.316406 38.707031 194.03125 43.28125 210.011719 52.40625 C 245.417969 72.636719 261.359375 109.449219 264.148438 120.753906 C 266.980469 132.207031 268.105469 158.972656 259.59375 185.777344 Z M 267.648438 119.890625 C 265.96875 113.089844 260.839844 100.460938 251.925781 87.273438 C 241.082031 71.222656 227.207031 58.085938 211.792969 49.28125 C 183.785156 33.28125 150.742188 30.8125 113.566406 41.925781 C 95.347656 47.371094 79.699219 56.507812 67.058594 69.0625 C 56.582031 79.476562 48.113281 92.277344 41.878906 107.113281 C 29.019531 137.757812 30.109375 165.757812 30.277344 168.855469 C 31.144531 184.941406 35.34375 199.699219 42.761719 212.714844 C 49.796875 225.058594 59.554688 235.574219 71.761719 243.964844 C 91.867188 257.792969 117.140625 264.886719 144.03125 264.886719 C 160.621094 264.886719 177.824219 262.1875 194.824219 256.699219 C 237.207031 243.015625 255.300781 211.171875 263.015625 186.867188 C 271.753906 159.351562 270.574219 131.738281 267.648438 119.890625 " fill-opacity="1" fill-rule="nonzero"/></g><path fill="#a9a0f0" d="M 242.980469 162.699219 C 243.390625 163.457031 243.78125 164.171875 244.082031 164.875 C 246.003906 169.4375 243.839844 175.449219 239.445312 177.738281 C 238.632812 178.160156 238.269531 179.117188 238.589844 179.96875 C 239.46875 182.273438 240.441406 185.558594 240.109375 188.1875 C 239.855469 190.136719 238.296875 192.285156 236.433594 192.285156 L 236.371094 192.285156 C 235.714844 192.246094 235.113281 192.601562 234.777344 193.160156 C 234.445312 193.722656 234.441406 194.417969 234.773438 194.984375 C 235.953125 197.03125 235.804688 199.78125 234.390625 201.683594 C 232.988281 203.585938 230.398438 204.53125 228.101562 203.996094 C 227.484375 203.855469 226.839844 204.046875 226.402344 204.496094 C 225.960938 204.953125 225.792969 205.601562 225.949219 206.207031 C 226.859375 209.691406 225.691406 213.667969 223.035156 216.105469 C 220.375 218.539062 216.308594 219.355469 212.921875 218.144531 C 212.414062 217.960938 211.855469 218.015625 211.394531 218.285156 C 210.933594 218.558594 210.621094 219.019531 210.53125 219.546875 C 210.089844 222.316406 208.136719 224.847656 205.582031 225.996094 C 203.023438 227.140625 199.835938 226.902344 197.476562 225.394531 C 197.007812 225.09375 196.429688 225.027344 195.902344 225.214844 C 195.378906 225.402344 194.972656 225.8125 194.800781 226.339844 C 193.519531 230.214844 189.308594 233.085938 184.570312 233.324219 C 179.347656 233.582031 174.589844 230.984375 171.519531 228.757812 C 173.269531 216.238281 165.070312 200.832031 162.839844 196.925781 C 161.226562 194.101562 162.90625 188.910156 164.851562 182.890625 C 167.613281 174.320312 171.0625 163.65625 167.871094 152.320312 C 165.898438 145.316406 162.355469 141.304688 158.921875 137.429688 C 155.132812 133.140625 151.542969 129.09375 150.484375 120.976562 L 150.359375 120.003906 C 149.582031 114.007812 148.292969 103.964844 143.488281 94.890625 C 139.375 87.105469 133.519531 81.652344 126.015625 78.605469 C 126.144531 78.316406 126.296875 78.046875 126.496094 77.808594 C 127.441406 76.660156 129.25 76.242188 130.605469 76.859375 C 131.121094 77.09375 131.722656 77.070312 132.21875 76.800781 C 132.71875 76.53125 133.050781 76.039062 133.136719 75.472656 C 133.339844 74.054688 134.679688 72.8125 136.113281 72.71875 C 137.542969 72.621094 139.039062 73.675781 139.429688 75.066406 C 139.664062 75.898438 140.453125 76.445312 141.320312 76.375 C 142.183594 76.296875 142.871094 75.613281 142.949219 74.75 C 143.140625 72.726562 143.761719 70.046875 145.625 68.714844 C 146.417969 68.152344 147.609375 67.996094 148.605469 68.324219 C 149.023438 68.46875 149.566406 68.75 149.804688 69.308594 C 149.835938 69.382812 149.859375 69.457031 149.890625 69.53125 C 150.238281 70.441406 151.246094 70.910156 152.167969 70.585938 C 153.085938 70.261719 153.585938 69.265625 153.285156 68.335938 C 153.253906 68.234375 153.21875 68.140625 153.183594 68.042969 C 152.257812 65.285156 153.78125 61.816406 156.46875 60.675781 C 159.21875 59.507812 162.878906 60.902344 164.148438 63.609375 C 164.476562 64.316406 165.214844 64.726562 165.992188 64.632812 C 166.769531 64.539062 167.390625 63.957031 167.542969 63.195312 C 167.949219 61.113281 170.085938 59.433594 172.210938 59.53125 C 174.324219 59.628906 176.304688 61.484375 176.527344 63.597656 C 176.601562 64.335938 177.128906 64.953125 177.839844 65.144531 C 178.5625 65.34375 179.324219 65.074219 179.761719 64.480469 C 181.046875 62.742188 183.769531 62.082031 185.707031 63.035156 C 187.644531 63.988281 188.777344 66.546875 188.179688 68.625 C 187.925781 69.492188 188.363281 70.417969 189.191406 70.777344 C 190.023438 71.140625 190.988281 70.820312 191.453125 70.039062 C 192.351562 68.527344 193.921875 68.089844 195.082031 67.988281 C 197.414062 67.777344 199.96875 68.78125 201.433594 70.472656 C 204.449219 73.960938 204.679688 79.261719 204.53125 83.488281 C 204.515625 84.058594 204.765625 84.605469 205.210938 84.957031 C 205.65625 85.3125 206.242188 85.4375 206.789062 85.289062 C 210.957031 84.183594 216.277344 83.199219 220.453125 85.359375 C 222.492188 86.414062 224.117188 88.710938 224.496094 91.074219 C 224.6875 92.257812 224.644531 93.9375 223.375 95.234375 C 222.960938 95.652344 222.78125 96.246094 222.894531 96.820312 C 223.003906 97.398438 223.386719 97.890625 223.917969 98.128906 C 229.191406 100.515625 233.0625 107.605469 232.203125 113.304688 C 232.085938 114.097656 232.496094 114.863281 233.214844 115.207031 C 235.738281 116.386719 237.78125 118.734375 238.824219 121.644531 C 239.871094 124.550781 239.785156 127.664062 238.589844 130.183594 C 238.375 130.640625 238.363281 131.160156 238.550781 131.625 C 238.738281 132.089844 239.105469 132.457031 239.574219 132.636719 C 242.429688 133.722656 244.769531 136.355469 245.828125 139.671875 C 246.882812 142.996094 246.496094 146.492188 244.792969 149.03125 C 244.476562 149.503906 244.113281 149.976562 243.71875 150.476562 C 242.597656 151.925781 241.320312 153.574219 241.015625 155.710938 C 240.625 158.382812 241.878906 160.679688 242.980469 162.699219 Z M 78.601562 167.019531 C 78.910156 169.585938 80.621094 171.96875 82.625 173.292969 C 84.394531 174.457031 86.417969 175.0625 88.359375 175.441406 C 87.429688 176.226562 86.542969 177.066406 85.667969 177.902344 C 84.71875 178.804688 83.824219 179.664062 82.882812 180.429688 C 79.949219 182.832031 76.429688 184.445312 72.699219 185.097656 C 70.925781 185.410156 66.53125 185.851562 64.066406 183.222656 C 62.023438 181.042969 62.160156 177.566406 63.195312 175.082031 C 65.351562 169.933594 69.476562 169.042969 74.695312 167.914062 C 75.585938 167.714844 76.488281 167.523438 77.398438 167.300781 C 77.804688 167.203125 78.199219 167.109375 78.601562 167.019531 Z M 95.785156 164.511719 L 96.195312 164.46875 C 97.273438 164.355469 98.425781 164.230469 99.558594 164.230469 C 100.695312 164.230469 101.8125 164.355469 102.816406 164.738281 C 104.363281 165.339844 105.796875 166.984375 105.46875 168.484375 C 105.136719 169.976562 103.234375 170.949219 101.488281 171.261719 C 100.589844 171.417969 99.65625 171.476562 98.660156 171.535156 C 97.183594 171.625 95.652344 171.722656 94.117188 172.160156 C 93.644531 172.296875 93.1875 172.460938 92.746094 172.644531 C 92.523438 172.496094 92.257812 172.394531 91.972656 172.355469 C 89.492188 172.027344 86.6875 171.664062 84.609375 170.289062 C 83.277344 169.414062 82.1875 167.828125 82.152344 166.300781 C 86.617188 165.496094 91.105469 165.007812 95.785156 164.511719 Z M 161.984375 238.253906 C 151.285156 245.511719 139.628906 241.074219 129.335938 237.164062 C 125.074219 235.542969 121.054688 234.015625 117.359375 233.394531 C 96.3125 229.886719 79.722656 220.242188 69.394531 205.496094 C 64.511719 198.535156 61.144531 190.585938 59.496094 182.421875 C 59.921875 183.652344 60.578125 184.761719 61.4375 185.6875 C 63.429688 187.816406 66.472656 188.945312 70.039062 188.945312 C 71.089844 188.945312 72.195312 188.839844 73.324219 188.644531 C 77.660156 187.882812 81.753906 186.003906 85.164062 183.214844 C 86.207031 182.363281 87.195312 181.414062 88.148438 180.503906 C 90.378906 178.378906 92.488281 176.367188 95.105469 175.621094 C 96.265625 175.289062 97.535156 175.214844 98.882812 175.128906 C 99.929688 175.0625 101.015625 174.996094 102.113281 174.804688 C 104.957031 174.300781 108.25 172.585938 108.980469 169.257812 C 109.742188 165.796875 107.101562 162.53125 104.105469 161.382812 C 101.304688 160.304688 98.253906 160.632812 95.808594 160.894531 L 95.402344 160.9375 C 90.574219 161.453125 85.949219 161.945312 81.292969 162.796875 C 80.644531 162.554688 79.9375 162.71875 79.460938 163.15625 C 78.492188 163.347656 77.523438 163.566406 76.550781 163.804688 C 75.667969 164.019531 74.792969 164.207031 73.933594 164.394531 C 68.441406 165.585938 62.757812 166.816406 59.875 173.695312 C 59.183594 175.34375 58.855469 177.074219 58.867188 178.746094 C 58.234375 174.164062 58.148438 169.558594 58.640625 165.046875 C 59.675781 155.4375 63.113281 149.484375 66.4375 143.742188 C 70.328125 137.007812 74.003906 130.652344 73.507812 119.601562 C 73.132812 111.164062 77.117188 97.933594 86.777344 88.820312 C 93.398438 82.570312 101.597656 79.335938 110.675781 79.335938 C 112.023438 79.335938 113.398438 79.410156 114.78125 79.550781 C 117.492188 79.835938 119.972656 80.355469 122.230469 81.078125 C 122.921875 81.296875 123.59375 81.53125 124.242188 81.796875 C 125.082031 82.121094 125.890625 82.480469 126.671875 82.871094 C 142.996094 91.011719 145.570312 111.007812 146.789062 120.46875 L 146.914062 121.445312 C 148.121094 130.652344 152.238281 135.3125 156.230469 139.816406 C 159.535156 143.554688 162.660156 147.082031 164.40625 153.289062 C 167.304688 163.582031 164.039062 173.671875 161.425781 181.78125 C 159.128906 188.890625 157.308594 194.511719 159.714844 198.714844 C 160.929688 200.832031 168.515625 214.589844 168.101562 225.976562 C 168.078125 226.730469 168.011719 227.476562 167.914062 228.203125 C 167.820312 228.886719 167.683594 229.558594 167.519531 230.214844 C 166.703125 233.40625 164.984375 236.214844 161.984375 238.253906 Z M 246.5625 152.6875 C 246.96875 152.160156 247.398438 151.617188 247.789062 151.035156 C 250.089844 147.589844 250.640625 142.9375 249.257812 138.582031 C 248.070312 134.863281 245.609375 131.78125 242.503906 130.042969 C 243.449219 127.035156 243.363281 123.621094 242.214844 120.433594 C 241.003906 117.066406 238.738281 114.257812 235.890625 112.5625 C 236.257812 106.304688 232.613281 99.324219 227.289062 95.886719 C 228.101562 94.320312 228.367188 92.476562 228.046875 90.507812 C 227.488281 87.015625 225.15625 83.746094 222.109375 82.167969 C 217.648438 79.851562 212.535156 80.289062 208.164062 81.25 C 208.113281 76.851562 207.394531 71.863281 204.15625 68.121094 C 201.9375 65.554688 198.25 64.089844 194.761719 64.402344 C 193.625 64.503906 192.574219 64.785156 191.644531 65.222656 C 191.019531 62.925781 189.464844 60.875 187.292969 59.808594 C 184.714844 58.535156 181.566406 58.792969 179.148438 60.269531 C 177.785156 57.828125 175.183594 56.058594 172.371094 55.933594 C 169.671875 55.816406 167.019531 57.222656 165.417969 59.375 C 162.707031 56.851562 158.511719 55.898438 155.0625 57.367188 C 152.042969 58.644531 149.960938 61.625 149.445312 64.820312 C 147.433594 64.253906 145.191406 64.605469 143.542969 65.78125 C 142.070312 66.832031 140.945312 68.390625 140.226562 70.382812 C 138.976562 69.5 137.445312 69.023438 135.878906 69.128906 C 133.414062 69.289062 131.210938 70.867188 130.160156 73.039062 C 127.789062 72.746094 125.253906 73.65625 123.71875 75.523438 C 123.25 76.09375 122.886719 76.734375 122.628906 77.421875 C 120.28125 76.730469 117.789062 76.242188 115.152344 75.972656 C 103.367188 74.75 92.703125 78.289062 84.308594 86.199219 C 73.765625 96.144531 69.484375 110.222656 69.914062 119.765625 C 70.363281 129.757812 67.101562 135.402344 63.324219 141.933594 C 59.976562 147.730469 56.179688 154.292969 55.054688 164.65625 C 53.46875 179.339844 57.617188 194.976562 66.441406 207.570312 C 77.339844 223.113281 94.75 233.277344 116.769531 236.949219 C 120.105469 237.5 123.972656 238.96875 128.054688 240.519531 C 134.425781 242.949219 141.738281 245.726562 149.222656 245.726562 C 154.148438 245.726562 159.144531 244.527344 164.003906 241.234375 C 167.421875 238.921875 169.511719 235.902344 170.640625 232.527344 C 173.980469 234.726562 178.628906 236.941406 183.839844 236.941406 C 184.136719 236.941406 184.445312 236.929688 184.753906 236.917969 C 190.164062 236.648438 195.074219 233.640625 197.382812 229.390625 C 200.449219 230.65625 203.992188 230.644531 207.054688 229.273438 C 210.136719 227.898438 212.523438 225.222656 213.609375 222.046875 C 217.765625 222.84375 222.332031 221.621094 225.460938 218.761719 C 228.46875 216 230.082031 211.796875 229.824219 207.730469 C 232.714844 207.59375 235.5625 206.15625 237.289062 203.824219 C 239.042969 201.457031 239.570312 198.257812 238.808594 195.421875 C 241.496094 194.332031 243.320312 191.460938 243.679688 188.636719 C 244.03125 185.828125 243.304688 182.644531 242.460938 180.109375 C 247.589844 176.539062 249.84375 169.289062 247.390625 163.472656 C 247.027344 162.605469 246.578125 161.777344 246.144531 160.980469 C 245.226562 159.300781 244.363281 157.710938 244.570312 156.222656 C 244.746094 155.03125 245.628906 153.890625 246.5625 152.6875 " fill-opacity="1" fill-rule="nonzero"/><path fill="#a9a0f0" d="M 173.414062 94.335938 C 174.054688 94.929688 174.238281 96.15625 173.867188 97.316406 C 173.4375 98.667969 172.421875 99.910156 171.441406 101.113281 C 170.8125 101.882812 170.925781 103.015625 171.695312 103.644531 C 172.03125 103.917969 172.433594 104.050781 172.832031 104.050781 C 173.355469 104.050781 173.871094 103.828125 174.226562 103.390625 C 175.367188 101.996094 176.660156 100.414062 177.300781 98.410156 C 178.101562 95.894531 177.539062 93.257812 175.867188 91.703125 C 174.335938 90.273438 172.285156 90.015625 170.484375 89.886719 C 168.800781 89.765625 167.152344 89.707031 165.519531 90.3125 C 164.96875 90.519531 164.460938 90.792969 164.015625 91.121094 C 163.511719 90.449219 162.902344 89.875 162.203125 89.449219 C 160.105469 88.160156 157.34375 88.265625 155.488281 89.707031 C 153.402344 91.328125 152.832031 94.394531 154.210938 96.542969 C 154.746094 97.378906 155.859375 97.621094 156.695312 97.082031 C 157.53125 96.546875 157.777344 95.433594 157.238281 94.597656 C 156.863281 94.015625 157.085938 93.019531 157.695312 92.546875 C 158.371094 92.023438 159.5 92.007812 160.316406 92.511719 C 161.167969 93.039062 161.777344 94.117188 161.863281 95.261719 C 161.9375 96.226562 162.765625 96.949219 163.734375 96.921875 C 164.699219 96.882812 165.464844 96.082031 165.457031 95.113281 C 165.453125 94.589844 166.03125 93.960938 166.773438 93.6875 C 167.726562 93.335938 168.902344 93.382812 170.226562 93.476562 C 171.46875 93.566406 172.738281 93.707031 173.414062 94.335938 " fill-opacity="1" fill-rule="nonzero"/><path fill="#a9a0f0" d="M 194.550781 107.078125 C 195.503906 107.363281 196.503906 106.824219 196.792969 105.871094 C 196.964844 105.292969 197.464844 104.761719 198.121094 104.457031 C 198.777344 104.148438 199.5 104.109375 200.058594 104.351562 C 200.617188 104.59375 201.085938 105.148438 201.3125 105.835938 C 201.539062 106.523438 201.496094 107.246094 201.195312 107.773438 C 200.695312 108.636719 200.988281 109.734375 201.851562 110.234375 C 202.132812 110.398438 202.445312 110.472656 202.75 110.472656 C 203.371094 110.472656 203.976562 110.152344 204.308594 109.574219 C 205.128906 108.152344 205.28125 106.375 204.730469 104.707031 C 204.175781 103.03125 202.992188 101.699219 201.488281 101.046875 C 199.980469 100.398438 198.199219 100.449219 196.601562 101.191406 C 195.003906 101.9375 193.816406 103.265625 193.34375 104.835938 C 193.058594 105.789062 193.597656 106.792969 194.550781 107.078125 " fill-opacity="1" fill-rule="nonzero"/><path fill="#a9a0f0" d="M 180.457031 138.238281 C 182.542969 138.238281 184.617188 137.210938 185.804688 135.472656 C 187.320312 133.242188 187.214844 130.085938 185.554688 127.960938 C 184.941406 127.179688 183.808594 127.042969 183.027344 127.65625 C 182.246094 128.265625 182.105469 129.398438 182.722656 130.179688 C 183.417969 131.074219 183.464844 132.507812 182.828125 133.445312 C 182.191406 134.382812 180.839844 134.867188 179.753906 134.542969 C 178.664062 134.21875 177.796875 133.078125 177.773438 131.945312 C 177.753906 131.019531 177.035156 130.257812 176.113281 130.1875 C 175.273438 130.121094 174.511719 130.648438 174.261719 131.433594 C 174.242188 131.433594 174.226562 131.433594 174.214844 131.433594 C 173.929688 131.359375 173.582031 130.988281 173.289062 130.457031 C 172.53125 129.074219 172.410156 127.332031 172.976562 125.902344 C 173.546875 124.457031 174.8125 123.308594 176.273438 122.902344 C 177.234375 122.640625 177.796875 121.648438 177.535156 120.691406 C 177.269531 119.730469 176.277344 119.167969 175.320312 119.433594 C 172.785156 120.132812 170.605469 122.105469 169.628906 124.582031 C 168.667969 127.015625 168.855469 129.855469 170.132812 132.183594 C 170.921875 133.628906 172.011719 134.570312 173.285156 134.914062 C 173.839844 135.058594 174.429688 135.070312 174.996094 134.953125 C 175.800781 136.386719 177.136719 137.519531 178.726562 137.992188 C 179.292969 138.160156 179.875 138.238281 180.457031 138.238281 " fill-opacity="1" fill-rule="nonzero"/><path fill="#a9a0f0" d="M 211.347656 148.773438 C 212.988281 148.15625 214.398438 146.820312 215.050781 145.058594 C 215.933594 142.683594 215.417969 139.835938 213.699219 137.632812 C 212.355469 135.910156 210.316406 134.585938 207.796875 133.796875 C 206.851562 133.5 205.84375 134.027344 205.542969 134.976562 C 205.246094 135.925781 205.777344 136.933594 206.726562 137.230469 C 207.992188 137.628906 209.734375 138.402344 210.859375 139.84375 C 211.800781 141.054688 212.121094 142.605469 211.675781 143.804688 C 211.257812 144.9375 209.988281 145.730469 208.972656 145.503906 C 208.167969 145.332031 207.351562 145.722656 206.980469 146.453125 C 206.609375 147.1875 206.785156 148.078125 207.402344 148.621094 C 207.75 148.921875 207.820312 149.402344 207.828125 149.660156 C 207.851562 150.289062 207.613281 150.933594 207.207031 151.34375 C 206.191406 152.375 204.511719 152.46875 203.273438 152.214844 C 201.636719 151.878906 200.070312 150.949219 198.472656 149.945312 C 197.628906 149.414062 196.519531 149.667969 195.988281 150.511719 C 195.460938 151.351562 195.714844 152.460938 196.554688 152.992188 C 198.441406 154.179688 200.320312 155.28125 202.550781 155.742188 C 203.195312 155.875 203.835938 155.9375 204.457031 155.9375 C 206.539062 155.9375 208.445312 155.214844 209.769531 153.871094 C 210.867188 152.757812 211.484375 151.136719 211.425781 149.527344 C 211.417969 149.269531 211.390625 149.019531 211.347656 148.773438 " fill-opacity="1" fill-rule="nonzero"/><path fill="#a9a0f0" d="M 212.683594 171.203125 C 211.773438 170.796875 210.714844 171.207031 210.308594 172.117188 C 209.90625 173.023438 210.316406 174.089844 211.222656 174.492188 C 212.136719 174.898438 213.382812 175.625 214.132812 176.769531 C 214.738281 177.695312 214.910156 178.839844 214.578125 179.6875 C 214.273438 180.449219 213.433594 181.015625 212.746094 180.914062 C 211.761719 180.777344 210.847656 181.457031 210.707031 182.441406 C 210.566406 183.425781 211.25 184.335938 212.234375 184.476562 C 212.453125 184.507812 212.671875 184.523438 212.890625 184.523438 C 215.007812 184.523438 217.09375 183.101562 217.921875 181.011719 C 218.683594 179.082031 218.386719 176.707031 217.144531 174.804688 C 216.171875 173.3125 214.628906 172.066406 212.683594 171.203125 " fill-opacity="1" fill-rule="nonzero"/><path fill="#a9a0f0" d="M 191.175781 176.515625 C 191.601562 175.617188 191.21875 174.546875 190.320312 174.117188 C 189.421875 173.695312 188.347656 174.078125 187.921875 174.976562 C 187.164062 176.574219 185.148438 177.550781 183.425781 177.164062 C 181.699219 176.769531 180.304688 175.011719 180.3125 173.246094 C 180.316406 172.25 179.515625 171.441406 178.523438 171.4375 C 177.542969 171.410156 176.71875 172.234375 176.714844 173.226562 C 176.695312 176.699219 179.238281 179.898438 182.625 180.671875 C 183.15625 180.792969 183.691406 180.851562 184.226562 180.851562 C 187.109375 180.851562 189.921875 179.164062 191.175781 176.515625 " fill-opacity="1" fill-rule="nonzero"/><path fill="#a9a0f0" d="M 201.347656 195.273438 C 200.363281 195.113281 199.445312 195.78125 199.28125 196.761719 C 198.921875 198.96875 196.988281 200.90625 194.78125 201.269531 C 192.582031 201.636719 190.121094 200.421875 189.066406 198.445312 C 188.601562 197.570312 187.511719 197.238281 186.632812 197.707031 C 185.757812 198.171875 185.425781 199.261719 185.890625 200.136719 C 187.445312 203.058594 190.707031 204.933594 193.992188 204.933594 C 194.453125 204.933594 194.914062 204.898438 195.367188 204.824219 C 199.085938 204.207031 202.226562 201.058594 202.835938 197.339844 C 202.996094 196.359375 202.328125 195.433594 201.347656 195.273438 " fill-opacity="1" fill-rule="nonzero"/><path fill="#a9a0f0" d="M 138.179688 187.695312 C 137.480469 188.363281 136.734375 188.992188 135.9375 189.601562 C 136.417969 186.523438 137.203125 183.988281 138.355469 181.789062 C 138.742188 181.042969 139.175781 180.34375 139.65625 179.6875 C 140.046875 179.128906 140.476562 178.613281 140.9375 178.128906 C 141.371094 177.65625 141.839844 177.214844 142.328125 176.820312 C 143.082031 176.203125 143.882812 175.679688 144.71875 175.277344 C 144.570312 176.773438 144.195312 178.285156 143.613281 179.765625 C 143.332031 180.503906 142.996094 181.230469 142.613281 181.941406 C 142.613281 181.949219 142.613281 181.949219 142.613281 181.949219 C 142.273438 182.585938 141.894531 183.214844 141.472656 183.824219 C 140.550781 185.195312 139.445312 186.5 138.179688 187.695312 Z M 122.875 196.269531 C 120.324219 197.191406 118.183594 197.824219 116.023438 197.945312 C 113.660156 198.070312 111.558594 197.492188 110.109375 196.316406 C 109.609375 195.90625 109.203125 195.433594 108.898438 194.929688 C 108.597656 194.417969 108.398438 193.878906 108.339844 193.347656 C 108.058594 190.953125 111.949219 188.335938 113.414062 187.347656 C 114.601562 186.546875 115.886719 185.890625 117.242188 185.1875 C 118.441406 184.5625 119.675781 183.929688 120.863281 183.179688 C 120.832031 185.59375 121.554688 188.023438 122.980469 189.996094 C 124.339844 191.863281 126.28125 193.25 128.445312 194.007812 C 126.761719 194.78125 124.914062 195.53125 122.875 196.269531 Z M 128.621094 175.015625 C 128.890625 174.644531 129.152344 174.265625 129.421875 173.894531 C 130.9375 171.792969 132.601562 169.699219 134.660156 168.320312 C 135.054688 168.050781 135.46875 167.8125 135.894531 167.601562 C 136.007812 167.546875 136.125 167.492188 136.242188 167.445312 C 136.785156 167.210938 137.378906 167.039062 137.984375 166.933594 C 138.421875 166.859375 138.867188 166.816406 139.308594 166.816406 C 140.730469 166.816406 142.128906 167.242188 143.105469 168.253906 C 143.9375 169.117188 144.371094 170.3125 144.585938 171.421875 C 143.273438 171.894531 142.015625 172.578125 140.832031 173.433594 C 140.339844 173.789062 139.855469 174.183594 139.394531 174.605469 C 138.914062 175.03125 138.457031 175.488281 138.023438 175.972656 C 136.929688 177.191406 135.957031 178.585938 135.160156 180.121094 C 133.578125 183.160156 132.59375 186.671875 132.109375 191.0625 C 129.710938 191.019531 127.292969 189.8125 125.898438 187.886719 C 124.222656 185.578125 123.988281 182.214844 125.328125 179.699219 C 125.421875 179.515625 125.488281 179.324219 125.511719 179.125 C 126.648438 177.804688 127.640625 176.394531 128.621094 175.015625 Z M 143.140625 187.617188 C 143.578125 187.070312 143.988281 186.519531 144.375 185.949219 C 144.792969 185.34375 145.175781 184.734375 145.523438 184.101562 C 147.597656 180.417969 148.617188 176.402344 148.355469 172.5625 C 148.15625 169.71875 147.238281 167.367188 145.695312 165.757812 C 143.496094 163.46875 139.9375 162.675781 136.5 163.566406 C 135.925781 163.707031 135.355469 163.902344 134.796875 164.148438 C 134.636719 164.21875 134.476562 164.289062 134.3125 164.371094 C 133.929688 164.554688 133.554688 164.757812 133.195312 164.984375 C 130.417969 166.671875 128.339844 169.234375 126.5 171.792969 C 126.226562 172.171875 125.957031 172.554688 125.6875 172.941406 C 124.042969 175.253906 122.488281 177.449219 120.445312 179.082031 C 119 180.226562 117.34375 181.085938 115.59375 181.992188 C 114.199219 182.703125 112.765625 183.449219 111.40625 184.359375 C 109.367188 185.734375 104.722656 188.851562 104.722656 193.089844 C 104.722656 193.316406 104.734375 193.542969 104.765625 193.773438 C 105.003906 195.765625 106.125 197.707031 107.84375 199.105469 C 109.800781 200.699219 112.460938 201.558594 115.394531 201.558594 C 115.667969 201.558594 115.945312 201.550781 116.222656 201.539062 C 119.105469 201.382812 121.800781 200.484375 124.097656 199.648438 C 129.117188 197.832031 135.539062 195.132812 140.644531 190.3125 C 141.546875 189.457031 142.378906 188.558594 143.140625 187.617188 " fill-opacity="1" fill-rule="nonzero"/><path fill="#a9a0f0" d="M 114.75 214.832031 C 114.449219 215.324219 113.859375 215.765625 112.980469 216.152344 C 109.683594 217.605469 105.546875 217.328125 99.953125 215.273438 C 98.648438 214.800781 97.273438 214.238281 96 213.515625 C 94.730469 212.792969 93.558594 211.910156 92.671875 210.777344 C 91 208.640625 90.597656 202.925781 92.488281 200.214844 C 92.90625 199.621094 93.570312 198.925781 94.855469 198.925781 C 95.292969 198.925781 95.796875 199.003906 96.390625 199.195312 C 97.898438 199.6875 98.882812 201.402344 99.925781 203.21875 C 100.222656 203.753906 100.523438 204.28125 100.84375 204.777344 C 103.535156 209.0625 107.921875 212.113281 112.875 213.152344 L 113.167969 213.210938 C 113.847656 213.351562 114.609375 213.503906 114.847656 213.785156 C 114.992188 213.96875 114.984375 214.453125 114.75 214.832031 Z M 113.882812 209.683594 L 113.613281 209.628906 C 109.667969 208.804688 106.03125 206.273438 103.886719 202.867188 C 103.601562 202.40625 103.324219 201.917969 103.046875 201.433594 C 101.773438 199.214844 100.332031 196.691406 97.5 195.777344 C 94.238281 194.714844 91.335938 195.582031 89.535156 198.15625 C 88.222656 200.039062 87.640625 202.621094 87.640625 205.179688 C 87.640625 208.222656 88.460938 211.234375 89.839844 212.996094 C 92.167969 215.96875 95.636719 217.523438 98.710938 218.652344 C 101.335938 219.613281 104.765625 220.660156 108.332031 220.660156 C 110.359375 220.660156 112.429688 220.328125 114.425781 219.449219 C 116.019531 218.75 117.125 217.855469 117.824219 216.707031 C 118.847656 215.023438 118.765625 212.882812 117.617188 211.496094 C 116.570312 210.230469 115.015625 209.914062 113.882812 209.683594 " fill-opacity="1" fill-rule="nonzero"/><path fill="#a9a0f0" d="M 152.742188 223.96875 C 152.425781 224.652344 151.730469 225.128906 151.203125 225.414062 C 148.066406 227.089844 143.988281 225.996094 140.078125 224.722656 C 139.015625 224.375 137.875 224.007812 136.785156 223.546875 C 135.691406 223.085938 134.648438 222.527344 133.765625 221.8125 C 132.320312 220.644531 131.167969 217.792969 131.640625 216.558594 C 131.695312 216.421875 131.859375 216 133.011719 216 C 133.09375 216 133.1875 216 133.285156 216.007812 C 134.242188 216.054688 135.308594 216.558594 136.535156 217.535156 C 136.96875 217.878906 137.386719 218.25 137.828125 218.632812 C 138.609375 219.324219 139.417969 220.039062 140.359375 220.65625 C 142.738281 222.222656 145.613281 222.929688 148.449219 222.648438 C 148.78125 222.609375 149.121094 222.570312 149.46875 222.523438 C 150.765625 222.351562 152.234375 222.167969 152.707031 222.738281 C 152.925781 223.003906 152.941406 223.542969 152.742188 223.96875 Z M 149.011719 218.953125 C 148.703125 218.992188 148.390625 219.035156 148.089844 219.066406 C 146.105469 219.265625 144.007812 218.75 142.339844 217.652344 C 141.605469 217.171875 140.925781 216.570312 140.203125 215.933594 C 139.746094 215.53125 139.277344 215.121094 138.78125 214.722656 C 136.941406 213.257812 135.199219 212.503906 133.46875 212.414062 C 129.851562 212.230469 128.636719 214.351562 128.285156 215.273438 C 127.066406 218.449219 129.335938 222.851562 131.5 224.609375 C 133.785156 226.464844 136.535156 227.355469 138.964844 228.148438 C 141.664062 229.023438 144.605469 229.859375 147.484375 229.859375 C 149.34375 229.859375 151.179688 229.507812 152.902344 228.585938 C 154.359375 227.804688 155.4375 226.726562 156.015625 225.472656 C 156.804688 223.753906 156.589844 221.777344 155.472656 220.433594 C 153.730469 218.347656 151.003906 218.699219 149.011719 218.953125 " fill-opacity="1" fill-rule="nonzero"/><path fill="#a9a0f0" d="M 111.328125 152.453125 C 110.132812 153.019531 108.53125 153.09375 106.574219 152.675781 C 105.707031 152.496094 104.84375 152.246094 103.929688 151.976562 C 102.90625 151.679688 101.84375 151.371094 100.738281 151.15625 C 96.007812 150.222656 92.097656 151.527344 88.308594 152.785156 C 85.65625 153.667969 84.851562 153.355469 84.625 153.175781 C 84.175781 152.828125 84.269531 151.691406 84.617188 150.800781 C 85.636719 148.203125 88.019531 146.027344 91.148438 144.824219 C 93.300781 144 95.753906 143.601562 98.765625 143.601562 C 99.4375 143.601562 100.136719 143.621094 100.867188 143.660156 C 103.59375 143.804688 106.328125 144.195312 109 144.808594 C 110.566406 145.167969 111.78125 145.570312 112.597656 146.335938 C 113.4375 147.128906 113.839844 148.457031 113.601562 149.636719 C 113.355469 150.832031 112.484375 151.914062 111.328125 152.453125 Z M 117.125 150.355469 C 117.613281 147.964844 116.808594 145.359375 115.066406 143.714844 C 113.578125 142.3125 111.65625 141.726562 109.800781 141.300781 C 106.9375 140.640625 103.996094 140.226562 101.058594 140.070312 C 96.535156 139.824219 92.984375 140.265625 89.863281 141.460938 C 85.785156 143.027344 82.65625 145.949219 81.269531 149.484375 C 80.484375 151.476562 80.316406 154.386719 82.410156 156.019531 C 83.316406 156.722656 84.402344 156.96875 85.503906 156.96875 C 86.890625 156.96875 88.308594 156.578125 89.4375 156.199219 C 92.941406 155.042969 96.246094 153.9375 100.046875 154.6875 C 100.046875 154.6875 100.046875 154.6875 100.050781 154.6875 C 100.992188 154.871094 101.933594 155.140625 102.921875 155.429688 C 103.859375 155.707031 104.824219 155.988281 105.824219 156.199219 C 108.574219 156.78125 110.9375 156.617188 112.855469 155.71875 C 115.023438 154.699219 116.652344 152.648438 117.125 150.355469 " fill-opacity="1" fill-rule="nonzero"/><path fill="#a9a0f0" d="M 93.261719 115.464844 C 94.058594 111.609375 95.679688 107.972656 97.984375 104.835938 C 101.703125 99.792969 107.332031 96.035156 113.421875 94.542969 C 114.703125 94.226562 115.808594 94.066406 116.785156 94.066406 C 117.546875 94.066406 118.230469 94.164062 118.859375 94.355469 C 120.414062 94.835938 121.589844 96.054688 121.71875 97.324219 C 121.847656 98.628906 120.980469 99.964844 120.230469 100.859375 C 119.785156 101.378906 119.285156 101.882812 118.765625 102.410156 C 118.007812 103.1875 117.21875 103.984375 116.527344 104.925781 C 115.351562 106.527344 114.625 108.300781 114.070312 110.121094 C 114.070312 110.121094 114.066406 110.121094 114.066406 110.125 C 112.8125 109.238281 111.128906 108.902344 109.621094 109.09375 C 108.5 109.238281 107.5 109.582031 106.535156 109.917969 C 105.8125 110.167969 105.132812 110.40625 104.46875 110.527344 C 103.917969 110.628906 103.3125 110.664062 102.675781 110.699219 C 101.960938 110.738281 101.21875 110.78125 100.445312 110.925781 C 97.816406 111.40625 95.28125 113.027344 93.257812 115.484375 C 93.257812 115.480469 93.261719 115.476562 93.261719 115.46875 C 93.253906 115.464844 93.261719 115.464844 93.261719 115.464844 Z M 112.933594 114.503906 C 112.351562 116.800781 111.714844 118.945312 110.445312 120.664062 C 109 122.613281 106.648438 124.066406 103.828125 124.742188 C 102.46875 125.074219 101.003906 125.242188 99.375 125.242188 C 98.136719 125.242188 96.804688 125.144531 95.347656 124.957031 C 94.292969 124.828125 93.078125 124.527344 92.582031 123.859375 C 93.503906 121.808594 94.484375 119.742188 95.820312 118.023438 C 97.34375 116.070312 99.214844 114.808594 101.09375 114.464844 C 101.644531 114.359375 102.246094 114.328125 102.882812 114.292969 C 103.601562 114.25 104.347656 114.207031 105.125 114.066406 C 106.050781 113.894531 106.898438 113.601562 107.714844 113.320312 C 108.542969 113.03125 109.328125 112.761719 110.078125 112.664062 C 111.085938 112.535156 112.195312 112.957031 112.324219 113.519531 C 112.417969 113.917969 112.640625 114.253906 112.933594 114.496094 C 112.933594 114.496094 112.933594 114.496094 112.933594 114.5 Z M 94.890625 128.53125 C 96.503906 128.734375 97.984375 128.839844 99.378906 128.839844 C 101.292969 128.839844 103.03125 128.640625 104.675781 128.246094 C 108.316406 127.367188 111.394531 125.433594 113.335938 122.804688 C 115.242188 120.234375 115.980469 117.203125 116.695312 114.269531 C 117.355469 111.585938 117.972656 109.046875 119.429688 107.054688 C 119.964844 106.320312 120.628906 105.652344 121.332031 104.9375 C 121.878906 104.386719 122.441406 103.808594 122.976562 103.179688 C 123.667969 102.363281 124.207031 101.53125 124.59375 100.695312 C 125.175781 99.4375 125.417969 98.175781 125.296875 96.964844 C 125.175781 95.808594 124.71875 94.699219 123.996094 93.738281 C 123.027344 92.457031 121.601562 91.4375 119.917969 90.917969 C 117.191406 90.078125 114.414062 90.589844 112.5625 91.046875 C 105.671875 92.738281 99.300781 96.988281 95.089844 102.699219 C 92.03125 106.855469 90.046875 111.792969 89.351562 116.984375 C 89.300781 117.328125 89.246094 117.695312 89.191406 118.074219 C 88.945312 119.769531 88.671875 121.691406 88.75 123.390625 C 88.78125 124.046875 88.976562 125.164062 89.828125 126.195312 C 90.691406 127.234375 92.210938 128.1875 94.890625 128.53125 " fill-opacity="1" fill-rule="nonzero"/><path fill="#a9a0f0" d="M 122.980469 131.414062 C 124.054688 130.367188 125.574219 129.757812 127.097656 129.65625 C 127.257812 129.644531 127.414062 129.636719 127.578125 129.636719 C 128.027344 129.636719 128.476562 129.679688 128.914062 129.777344 C 129.253906 129.847656 129.59375 129.949219 129.914062 130.082031 C 130.214844 130.203125 130.503906 130.34375 130.78125 130.507812 C 133.453125 131.996094 135.171875 134.898438 136.171875 137.183594 C 136.449219 137.820312 136.710938 138.472656 136.976562 139.132812 C 138.167969 142.113281 139.519531 145.5 142.5625 147.460938 C 143.722656 148.210938 144.960938 148.636719 146.144531 149.042969 C 146.816406 149.277344 147.457031 149.492188 148.042969 149.753906 C 149.121094 150.246094 150.398438 151.207031 150.425781 152.304688 C 150.449219 153.210938 149.511719 154.089844 148.597656 154.410156 C 148.042969 154.601562 147.4375 154.675781 146.816406 154.675781 C 145.972656 154.675781 145.113281 154.539062 144.382812 154.390625 C 141.066406 153.738281 137.871094 152.4375 134.882812 150.523438 C 134.007812 149.964844 133.160156 149.359375 132.351562 148.707031 C 131.671875 148.175781 131.027344 147.601562 130.398438 147.015625 C 129.703125 146.347656 129.039062 145.652344 128.414062 144.929688 C 126.304688 142.503906 124.601562 139.761719 123.402344 136.832031 L 123.328125 136.644531 C 122.21875 133.929688 121.824219 132.53125 122.980469 131.414062 Z M 119.996094 138.003906 L 120.070312 138.191406 C 121.980469 142.871094 125.039062 147.117188 128.894531 150.503906 C 129.527344 151.058594 130.171875 151.585938 130.839844 152.089844 C 131.464844 152.5625 132.097656 153.011719 132.757812 153.433594 C 132.816406 153.480469 132.886719 153.519531 132.945312 153.558594 C 134.625 154.636719 136.371094 155.539062 138.164062 156.273438 C 139.960938 157.003906 141.804688 157.554688 143.6875 157.925781 C 144.609375 158.109375 145.683594 158.28125 146.8125 158.28125 C 147.785156 158.28125 148.804688 158.152344 149.792969 157.804688 C 152.335938 156.910156 154.078125 154.613281 154.023438 152.222656 C 153.96875 149.878906 152.289062 147.730469 149.523438 146.480469 C 148.78125 146.144531 148.035156 145.886719 147.316406 145.640625 C 146.285156 145.289062 145.308594 144.953125 144.511719 144.4375 C 142.433594 143.097656 141.40625 140.527344 140.316406 137.796875 C 140.035156 137.101562 139.757812 136.410156 139.464844 135.738281 C 137.503906 131.253906 134.671875 128.144531 131.285156 126.753906 C 131.007812 126.640625 130.71875 126.539062 130.429688 126.453125 C 129.832031 126.273438 129.21875 126.152344 128.597656 126.089844 C 127.996094 126.027344 127.382812 126.019531 126.785156 126.078125 C 124.453125 126.25 122.167969 127.203125 120.488281 128.824219 C 117.441406 131.757812 118.921875 135.367188 119.996094 138.003906 " fill-opacity="1" fill-rule="nonzero"/><path fill="#a9a0f0" d="M 82.152344 135.402344 C 81.59375 134.582031 80.472656 134.363281 79.648438 134.929688 C 74.804688 138.222656 72.628906 144.875 74.589844 150.398438 C 74.847656 151.136719 75.542969 151.597656 76.285156 151.597656 C 76.484375 151.597656 76.6875 151.5625 76.882812 151.496094 C 77.820312 151.160156 78.3125 150.136719 77.976562 149.199219 C 76.574219 145.230469 78.191406 140.265625 81.671875 137.90625 C 82.492188 137.347656 82.710938 136.222656 82.152344 135.402344 " fill-opacity="1" fill-rule="nonzero"/><path fill="#a9a0f0" d="M 119.800781 161.339844 C 119.414062 162.367188 118.199219 163.109375 117.109375 163.003906 C 116.113281 162.910156 115.242188 163.636719 115.148438 164.628906 C 115.050781 165.617188 115.777344 166.496094 116.769531 166.589844 C 116.953125 166.605469 117.140625 166.617188 117.332031 166.617188 C 119.855469 166.617188 122.25 165.007812 123.167969 162.628906 C 123.519531 161.699219 123.058594 160.660156 122.128906 160.300781 C 121.199219 159.949219 120.164062 160.410156 119.800781 161.339844 " fill-opacity="1" fill-rule="nonzero"/><path fill="#a9a0f0" d="M 133.234375 120.761719 C 133.441406 121.578125 134.175781 122.121094 134.980469 122.121094 C 135.121094 122.121094 135.269531 122.105469 135.417969 122.066406 C 136.382812 121.820312 136.96875 120.84375 136.722656 119.886719 C 136.105469 117.414062 134.929688 115.070312 133.328125 113.089844 C 132.703125 112.320312 131.570312 112.199219 130.796875 112.824219 C 130.023438 113.449219 129.902344 114.582031 130.535156 115.355469 C 131.804688 116.929688 132.742188 118.800781 133.234375 120.761719 " fill-opacity="1" fill-rule="nonzero"/><path fill="#a9a0f0" d="M 151.09375 196.785156 C 150.4375 196.808594 149.859375 197.191406 149.566406 197.765625 C 149.488281 197.933594 149.429688 198.113281 149.398438 198.304688 C 149.308594 198.90625 149.019531 199.488281 148.570312 199.980469 C 148.355469 200.226562 148.101562 200.441406 147.8125 200.632812 C 146.9375 201.222656 145.933594 201.433594 145.054688 201.210938 C 144.09375 200.976562 143.117188 201.558594 142.871094 202.523438 C 142.632812 203.488281 143.21875 204.460938 144.183594 204.707031 C 144.695312 204.832031 145.222656 204.894531 145.757812 204.894531 C 147.148438 204.894531 148.570312 204.460938 149.8125 203.628906 C 149.910156 203.566406 149.996094 203.5 150.085938 203.429688 C 150.617188 203.050781 151.082031 202.609375 151.480469 202.117188 C 151.957031 201.53125 152.332031 200.890625 152.601562 200.207031 C 152.769531 199.761719 152.894531 199.300781 152.960938 198.832031 C 153.105469 197.855469 152.425781 196.9375 151.441406 196.796875 C 151.324219 196.777344 151.210938 196.773438 151.09375 196.785156 " fill-opacity="1" fill-rule="nonzero"/><path fill="#a9a0f0" d="M 87.605469 194.335938 C 87.238281 193.410156 86.195312 192.957031 85.269531 193.324219 C 83.339844 194.078125 82.03125 196.058594 82.097656 198.132812 C 82.128906 199.105469 82.925781 199.871094 83.898438 199.871094 L 83.953125 199.871094 C 84.945312 199.839844 85.726562 199.015625 85.695312 198.019531 C 85.679688 197.46875 86.070312 196.871094 86.585938 196.667969 C 87.507812 196.308594 87.964844 195.265625 87.605469 194.335938 " fill-opacity="1" fill-rule="nonzero"/></svg>