<svg xmlns="http://www.w3.org/2000/svg" xmlns:xlink="http://www.w3.org/1999/xlink" width="400" zoomAndPan="magnify" viewBox="0 0 300 299.999988" height="400" preserveAspectRatio="xMidYMid meet" version="1.0"><path fill="#a9a0f0" d="M 256.699219 30.097656 L 256.511719 30.007812 L 256.304688 30.035156 C 255.542969 30.132812 179.554688 39.886719 140.757812 45.320312 L 140.757812 45.328125 C 132.273438 43.6875 123.707031 42.886719 115.066406 42.914062 C 106.425781 42.945312 97.867188 43.8125 89.394531 45.507812 C 85.207031 46.355469 81.484375 49.449219 79.441406 53.78125 C 77.402344 58.113281 77.386719 62.953125 79.398438 66.726562 C 79.714844 67.320312 80.027344 67.917969 80.328125 68.519531 C 73.769531 70.210938 67.816406 71.949219 61.90625 75.308594 C 57.765625 77.582031 54.324219 80.644531 51.585938 84.496094 C 47.128906 86.742188 43.617188 91.644531 41.933594 98 C 39.582031 106.886719 41.074219 116.773438 45.820312 123.917969 C 37.949219 139.164062 38.007812 155.976562 38.050781 167.128906 C 38.050781 167.871094 38.054688 168.589844 38.054688 169.277344 L 38.054688 170.863281 C 38.039062 187.773438 38 232.6875 47.890625 247.484375 C 52.507812 254.394531 61.910156 260.148438 75.085938 264.121094 C 87.097656 267.742188 101.582031 269.765625 116.980469 269.976562 C 117.816406 269.988281 118.652344 269.992188 119.484375 269.992188 C 133.917969 269.992188 148.074219 268.3125 159.59375 265.21875 C 173.011719 261.609375 182.578125 256.214844 187.25 249.613281 C 193.375 240.960938 195.007812 182.644531 195.007812 149.554688 C 195.007812 139.871094 190.109375 126.289062 187.214844 119.664062 C 187.03125 118.917969 186.714844 118.230469 186.273438 117.601562 C 186.050781 117.144531 185.851562 116.753906 185.691406 116.453125 C 189.945312 112.257812 190.890625 103.425781 187.582031 98.296875 C 189.152344 91.765625 186.046875 85.117188 179.777344 81.609375 C 176.675781 77.136719 171.898438 73.582031 166.851562 72.167969 C 167.058594 72.121094 167.265625 72.070312 167.472656 72.019531 L 167.476562 72.035156 C 167.625 71.996094 167.773438 71.949219 167.921875 71.910156 L 168.070312 71.875 C 168.082031 71.871094 168.09375 71.863281 168.109375 71.859375 C 176.214844 69.671875 183.589844 66.011719 190.230469 60.871094 C 211.703125 59.320312 236.382812 55.738281 254.695312 51.511719 C 258.4375 50.648438 260.988281 47.203125 261.523438 42.300781 C 262.03125 37.617188 260.539062 31.921875 256.699219 30.097656 Z M 192.832031 40.941406 C 194.441406 42.199219 195.550781 43.109375 196.480469 44.585938 C 197.128906 47.535156 197.242188 52.527344 196.871094 54.460938 C 196.523438 56.273438 194.808594 57.589844 193.082031 58.726562 C 193.050781 55.671875 193.003906 52.652344 192.953125 49.722656 C 192.90625 46.863281 192.859375 43.917969 192.832031 40.941406 Z M 198.253906 54.726562 C 198.703125 52.382812 198.488281 47.046875 197.824219 44.15625 C 197.808594 44.082031 197.78125 44.011719 197.738281 43.945312 C 196.621094 42.125 195.28125 41.066406 193.441406 39.636719 C 201.195312 38.613281 208.847656 37.609375 216.007812 36.675781 C 218.792969 40.230469 219.136719 52.871094 216.523438 56.757812 C 209.3125 57.703125 202.042969 58.492188 195.027344 59.085938 C 196.527344 57.96875 197.890625 56.59375 198.253906 54.726562 Z M 62.601562 76.53125 C 68.449219 73.207031 74.390625 71.496094 80.964844 69.808594 C 82.652344 73.300781 84.109375 76.890625 85.328125 80.574219 C 81.789062 80.890625 78.324219 81.570312 74.925781 82.609375 C 71.53125 83.648438 68.277344 85.027344 65.167969 86.742188 C 62.058594 88.457031 59.15625 90.476562 56.46875 92.792969 C 53.777344 95.113281 51.351562 97.683594 49.195312 100.507812 C 48.546875 97.855469 48.878906 95.027344 49.691406 91.875 C 51.234375 85.914062 55.9375 80.320312 62.601562 76.53125 Z M 54.347656 105.089844 C 56.425781 102.671875 58.722656 100.476562 61.230469 98.503906 C 63.738281 96.535156 66.414062 94.824219 69.253906 93.375 C 72.097656 91.921875 75.050781 90.761719 78.117188 89.886719 C 81.1875 89.011719 84.308594 88.441406 87.488281 88.175781 C 88.25 91.386719 88.835938 94.632812 89.242188 97.910156 C 86.503906 98.214844 83.808594 98.738281 81.152344 99.480469 C 78.5 100.21875 75.921875 101.164062 73.417969 102.316406 C 70.914062 103.46875 68.519531 104.816406 66.230469 106.351562 C 63.945312 107.886719 61.792969 109.597656 59.78125 111.476562 C 58.660156 110.816406 57.558594 110.128906 56.476562 109.414062 C 52.878906 107.042969 50.789062 104.664062 49.734375 102.144531 C 51.839844 99.269531 54.230469 96.652344 56.898438 94.289062 C 59.566406 91.925781 62.453125 89.875 65.5625 88.132812 C 68.671875 86.390625 71.929688 85 75.335938 83.957031 C 78.742188 82.914062 82.222656 82.242188 85.773438 81.949219 C 86.277344 83.550781 86.734375 85.164062 87.148438 86.792969 C 83.898438 87.078125 80.707031 87.675781 77.574219 88.582031 C 74.4375 89.484375 71.417969 90.683594 68.515625 92.171875 C 65.613281 93.664062 62.878906 95.417969 60.316406 97.4375 C 57.753906 99.457031 55.40625 101.703125 53.277344 104.175781 Z M 119.425781 96.417969 C 137.589844 92.5625 156.847656 96.871094 172.367188 108.257812 C 171.980469 108.488281 171.585938 108.707031 171.183594 108.914062 C 162.050781 113.609375 152.527344 117.269531 142.601562 119.894531 L 142.8125 119.167969 C 137.796875 117.660156 133.085938 115.484375 128.683594 112.640625 C 124.285156 109.796875 120.367188 106.398438 116.929688 102.441406 C 117.574219 100.355469 118.40625 98.347656 119.425781 96.421875 Z M 171.824219 110.167969 C 172.527344 109.804688 173.199219 109.414062 173.847656 108.996094 C 175.617188 109.949219 177.292969 111.046875 178.875 112.289062 C 167.667969 122.371094 152.125 129.117188 134.027344 131.59375 C 117.167969 133.898438 92.71875 135.167969 71.996094 128.117188 C 63.894531 125.359375 57.722656 122.058594 53.230469 118.003906 C 55.308594 116.214844 57.507812 114.597656 59.835938 113.144531 C 74.066406 121.394531 91.074219 125.695312 109.503906 125.695312 C 110.660156 125.695312 111.820312 125.675781 112.988281 125.644531 C 132.878906 125.0625 153.226562 119.710938 171.824219 110.167969 Z M 185.042969 118.277344 C 185.285156 118.785156 185.5625 119.394531 185.867188 120.085938 C 187.007812 126.292969 185.496094 141.664062 148.308594 153.132812 C 137.089844 156.507812 125.621094 158.179688 113.902344 158.148438 C 92.242188 158.148438 69.386719 152.371094 52.144531 137.875 C 48.472656 134.789062 46.71875 131.542969 46.9375 128.226562 C 47.164062 124.769531 49.46875 121.589844 52.179688 118.972656 C 56.820312 123.1875 63.191406 126.605469 71.542969 129.449219 C 83.351562 133.464844 96.332031 134.820312 108.460938 134.820312 C 117.085938 134.785156 125.671875 134.175781 134.214844 132.984375 C 152.691406 130.460938 168.566406 123.535156 179.996094 113.175781 C 182.066406 114.863281 183.988281 116.722656 185.042969 118.277344 Z M 61.054688 112.21875 C 63 110.429688 65.078125 108.804688 67.28125 107.34375 C 69.488281 105.882812 71.792969 104.601562 74.203125 103.503906 C 76.609375 102.410156 79.085938 101.507812 81.636719 100.804688 C 84.1875 100.101562 86.777344 99.601562 89.40625 99.304688 C 90.246094 106.988281 90.097656 114.652344 88.953125 122.296875 C 79.097656 120.46875 69.800781 117.109375 61.054688 112.21875 Z M 43.292969 98.359375 C 44.574219 93.523438 46.949219 89.597656 49.988281 87.183594 C 49.277344 88.570312 48.726562 90.015625 48.332031 91.523438 C 46.449219 98.808594 46.984375 104.835938 55.699219 110.589844 C 56.613281 111.191406 57.539062 111.777344 58.480469 112.34375 C 56.269531 113.753906 54.175781 115.320312 52.203125 117.042969 C 50.164062 115.046875 48.472656 112.789062 47.132812 110.265625 C 45.792969 107.746094 44.863281 105.082031 44.347656 102.273438 L 42.96875 102.546875 C 43.503906 105.484375 44.472656 108.273438 45.871094 110.910156 C 47.269531 113.550781 49.03125 115.917969 51.160156 118.011719 C 49.53125 119.539062 48.160156 121.273438 47.050781 123.210938 C 42.476562 116.390625 41.03125 106.902344 43.292969 98.359375 Z M 39.457031 167.125 C 39.449219 164.945312 39.441406 162.546875 39.492188 159.988281 C 62.164062 174.667969 89.136719 182 116.117188 182 C 143.410156 182 170.703125 174.496094 193.554688 159.519531 C 193.324219 183.398438 192.273438 216.839844 189.566406 235.59375 C 146.21875 261.109375 89.578125 261.730469 45.015625 237.191406 C 39.421875 217.796875 39.449219 183.535156 39.460938 170.867188 L 39.460938 169.277344 C 39.460938 168.589844 39.460938 167.871094 39.457031 167.125 Z M 186.101562 248.800781 C 181.621094 255.132812 172.328125 260.339844 159.226562 263.863281 C 147.167969 267.105469 132.171875 268.777344 117 268.574219 C 84.308594 268.132812 57.636719 259.546875 49.054688 246.707031 C 47.566406 244.332031 46.414062 241.800781 45.601562 239.113281 C 67.285156 250.765625 91.710938 256.574219 116.070312 256.574219 C 141.652344 256.574219 167.152344 250.160156 189.296875 237.375 C 188.40625 242.972656 187.351562 247.039062 186.101562 248.800781 Z M 193.566406 157.828125 C 148.316406 187.96875 85.078125 188.222656 39.609375 158.394531 L 39.527344 158.515625 C 39.792969 149.304688 40.9375 138.222656 45.582031 127.691406 C 45.5625 127.839844 45.542969 127.988281 45.535156 128.136719 C 45.285156 131.925781 47.203125 135.566406 51.238281 138.957031 C 63.367188 149.148438 79.535156 155.878906 97.988281 158.417969 C 103.382812 159.152344 108.800781 159.519531 114.246094 159.515625 C 125.988281 159.550781 137.480469 157.871094 148.722656 154.476562 C 180.453125 144.6875 186.882812 131.835938 187.464844 123.976562 C 190.214844 131.058594 193.601562 141.761719 193.601562 149.554688 C 193.601562 152.121094 193.589844 154.898438 193.566406 157.828125 Z M 186.144531 98.253906 C 186.089844 98.460938 186.125 98.65625 186.246094 98.832031 C 189.390625 103.367188 188.527344 111.785156 184.621094 115.53125 C 183.503906 114.339844 182.3125 113.230469 181.042969 112.207031 C 183.300781 110.070312 185.386719 107.777344 187.292969 105.320312 L 186.183594 104.460938 C 184.277344 106.910156 182.191406 109.195312 179.929688 111.320312 C 178.40625 110.136719 176.808594 109.0625 175.136719 108.105469 C 181.394531 103.445312 184.515625 96.144531 183.03125 88.957031 C 182.699219 87.394531 182.179688 85.902344 181.46875 84.476562 C 185.625 87.921875 187.488281 93.148438 186.144531 98.253906 Z M 181.65625 89.242188 C 183.070312 96.097656 179.921875 103.085938 173.71875 107.394531 C 173.597656 107.34375 173.484375 107.296875 173.375 107.253906 C 157.839844 95.785156 138.601562 91.289062 120.332031 94.800781 C 125.289062 86.453125 133.558594 80.085938 143.035156 77.738281 C 143.21875 77.691406 143.402344 77.648438 143.585938 77.605469 L 143.589844 77.796875 C 146.925781 77.742188 150.234375 78.035156 153.511719 78.671875 C 156.789062 79.308594 159.964844 80.277344 163.039062 81.574219 C 166.117188 82.875 169.023438 84.476562 171.765625 86.378906 C 174.511719 88.28125 177.027344 90.449219 179.316406 92.875 L 180.347656 91.917969 C 178.25 89.699219 175.96875 87.691406 173.5 85.890625 C 171.03125 84.09375 168.421875 82.535156 165.667969 81.21875 C 162.910156 79.902344 160.058594 78.851562 157.109375 78.058594 C 154.160156 77.269531 151.164062 76.753906 148.117188 76.519531 C 150.59375 75.9375 153.089844 75.367188 155.539062 74.8125 C 158.164062 74.214844 160.84375 73.601562 163.496094 72.976562 C 171.695312 73.691406 179.96875 81.066406 181.65625 89.242188 Z M 163.289062 71.546875 L 163.289062 71.582031 C 160.605469 72.214844 157.890625 72.835938 155.230469 73.4375 C 151.082031 74.382812 146.796875 75.355469 142.703125 76.371094 C 130.324219 79.441406 119.921875 89.105469 115.863281 101.175781 C 113.324219 98.089844 111.164062 94.761719 109.375 91.191406 C 102.179688 76.742188 98.167969 65.300781 112.222656 49.585938 L 111.175781 48.648438 C 96.5625 64.988281 100.910156 77.351562 108.117188 91.816406 C 109.816406 95.164062 111.828125 98.3125 114.148438 101.261719 C 116.472656 104.214844 119.0625 106.90625 121.921875 109.34375 C 124.777344 111.777344 127.84375 113.910156 131.125 115.738281 C 134.402344 117.566406 137.832031 119.054688 141.40625 120.207031 C 123.960938 124.628906 106.417969 125.417969 90.34375 122.558594 C 91.0625 117.742188 91.394531 112.898438 91.339844 108.03125 C 91.285156 103.164062 90.847656 98.332031 90.023438 93.53125 C 89.199219 88.734375 88 84.03125 86.425781 79.425781 C 84.855469 74.816406 82.925781 70.363281 80.644531 66.0625 C 78.835938 62.679688 78.867188 58.3125 80.71875 54.382812 C 82.570312 50.449219 85.921875 47.648438 89.679688 46.886719 C 98.105469 45.199219 106.617188 44.34375 115.207031 44.320312 C 123.800781 44.296875 132.3125 45.109375 140.746094 46.753906 C 144.355469 55.335938 152.128906 60.773438 159.660156 66.023438 C 161.898438 67.585938 164.199219 69.191406 166.339844 70.855469 C 165.371094 71.089844 164.386719 71.324219 163.402344 71.558594 C 163.363281 71.554688 163.328125 71.550781 163.289062 71.546875 Z M 189.914062 59.488281 L 189.699219 59.503906 L 189.527344 59.636719 C 183.085938 64.660156 175.925781 68.253906 168.046875 70.417969 C 165.640625 68.492188 163.011719 66.652344 160.460938 64.871094 C 153.195312 59.804688 145.703125 54.5625 142.1875 46.542969 C 155.847656 44.632812 173.796875 42.230469 191.417969 39.902344 C 191.441406 43.242188 191.496094 46.546875 191.546875 49.746094 C 191.601562 52.871094 191.652344 56.097656 191.679688 59.359375 C 191.089844 59.402344 190.5 59.445312 189.914062 59.488281 Z M 260.125 42.152344 C 259.660156 46.433594 257.511719 49.421875 254.378906 50.144531 C 243.839844 52.574219 231.183594 54.792969 218.242188 56.53125 C 220.460938 51.640625 220.105469 40.839844 217.558594 36.476562 C 238.101562 33.792969 254.226562 31.71875 256.273438 31.457031 C 258.988281 32.902344 260.636719 37.445312 260.125 42.152344 Z M 260.125 42.152344 " fill-opacity="1" fill-rule="nonzero"/><path fill="#a9a0f0" d="M 211.394531 49.683594 C 211.324219 49.09375 211.144531 48.535156 210.847656 48.019531 C 210.550781 47.5 210.164062 47.0625 209.6875 46.699219 C 209.226562 46.335938 208.710938 46.074219 208.144531 45.921875 C 207.574219 45.769531 206.996094 45.738281 206.414062 45.824219 C 205.859375 45.925781 205.339844 46.125 204.859375 46.421875 C 204.378906 46.71875 203.96875 47.09375 203.632812 47.546875 C 203.292969 48 203.050781 48.496094 202.898438 49.042969 C 202.75 49.585938 202.703125 50.140625 202.765625 50.703125 C 202.851562 51.21875 203.023438 51.707031 203.277344 52.167969 C 203.535156 52.625 203.863281 53.027344 204.261719 53.371094 C 204.660156 53.714844 205.101562 53.980469 205.59375 54.167969 C 206.085938 54.355469 206.59375 54.453125 207.117188 54.460938 C 207.273438 54.460938 207.425781 54.453125 207.578125 54.433594 C 208.136719 54.351562 208.664062 54.171875 209.152344 53.890625 C 209.644531 53.609375 210.066406 53.25 210.417969 52.808594 C 210.773438 52.367188 211.035156 51.878906 211.203125 51.339844 C 211.371094 50.800781 211.433594 50.25 211.394531 49.683594 Z M 207.410156 53.039062 C 207.03125 53.070312 206.660156 53.027344 206.292969 52.917969 C 205.929688 52.808594 205.597656 52.636719 205.296875 52.40625 C 204.996094 52.171875 204.746094 51.890625 204.550781 51.566406 C 204.351562 51.238281 204.222656 50.886719 204.15625 50.511719 C 204.121094 50.132812 204.152344 49.761719 204.257812 49.394531 C 204.359375 49.027344 204.523438 48.691406 204.753906 48.386719 C 204.980469 48.082031 205.257812 47.828125 205.578125 47.625 C 205.902344 47.421875 206.25 47.285156 206.625 47.214844 C 207.445312 47.09375 208.179688 47.292969 208.828125 47.8125 C 209.5 48.320312 209.886719 48.992188 209.996094 49.828125 C 210.019531 50.207031 209.972656 50.578125 209.855469 50.941406 C 209.738281 51.304688 209.5625 51.632812 209.324219 51.929688 C 209.085938 52.226562 208.800781 52.472656 208.472656 52.664062 C 208.140625 52.855469 207.789062 52.980469 207.414062 53.039062 Z M 207.410156 53.039062 " fill-opacity="1" fill-rule="nonzero"/><path fill="#a9a0f0" d="M 114.101562 83.496094 C 113.445312 85.234375 113.097656 87.03125 113.066406 88.890625 C 113.03125 90.746094 113.316406 92.554688 113.910156 94.3125 L 115.242188 93.855469 C 114.964844 93.058594 114.761719 92.25 114.632812 91.417969 C 114.5 90.589844 114.441406 89.753906 114.457031 88.914062 C 114.46875 88.074219 114.558594 87.242188 114.71875 86.417969 C 114.878906 85.589844 115.113281 84.789062 115.414062 84.003906 C 115.714844 83.21875 116.082031 82.46875 116.519531 81.746094 C 116.953125 81.027344 117.445312 80.351562 117.996094 79.71875 C 118.550781 79.085938 119.15625 78.507812 119.808594 77.980469 C 120.464844 77.453125 121.160156 76.988281 121.894531 76.582031 L 121.21875 75.351562 C 119.59375 76.253906 118.171875 77.40625 116.949219 78.804688 C 115.730469 80.203125 114.777344 81.769531 114.101562 83.496094 Z M 114.101562 83.496094 " fill-opacity="1" fill-rule="nonzero"/><path fill="#a9a0f0" d="M 111.46875 67.90625 C 110.117188 69.617188 109.089844 71.5 108.378906 73.558594 C 107.671875 75.617188 107.320312 77.738281 107.335938 79.914062 L 108.738281 79.90625 C 108.734375 78.902344 108.8125 77.910156 108.972656 76.921875 C 109.132812 75.929688 109.378906 74.964844 109.703125 74.015625 C 110.03125 73.070312 110.433594 72.15625 110.914062 71.277344 C 111.398438 70.398438 111.949219 69.566406 112.570312 68.78125 C 113.191406 67.996094 113.875 67.269531 114.621094 66.597656 C 115.367188 65.929688 116.164062 65.328125 117.011719 64.792969 C 117.859375 64.257812 118.746094 63.800781 119.671875 63.417969 C 120.597656 63.03125 121.546875 62.730469 122.523438 62.507812 L 122.210938 61.136719 C 120.089844 61.621094 118.105469 62.445312 116.261719 63.609375 C 114.421875 64.769531 112.824219 66.203125 111.46875 67.90625 Z M 111.46875 67.90625 " fill-opacity="1" fill-rule="nonzero"/><path fill="#a9a0f0" d="M 98.523438 57.433594 L 97.15625 57.101562 C 92.355469 76.953125 99.605469 99.148438 115.207031 112.332031 L 116.113281 111.257812 C 100.910156 98.410156 93.84375 76.78125 98.523438 57.433594 Z M 98.523438 57.433594 " fill-opacity="1" fill-rule="nonzero"/><path fill="#a9a0f0" d="M 80.160156 60.921875 L 79.945312 62.3125 C 83.148438 62.800781 85.894531 65.523438 86.625 68.933594 C 90.191406 85.53125 94.953125 101.777344 100.910156 117.675781 L 102.226562 117.179688 C 96.292969 101.347656 91.550781 85.167969 88 68.636719 C 87.136719 64.609375 83.984375 61.507812 80.160156 60.921875 Z M 80.160156 60.921875 " fill-opacity="1" fill-rule="nonzero"/><path fill="#a9a0f0" d="M 88.582031 52.855469 C 89.125 63.421875 90.855469 73.789062 93.765625 83.960938 C 96.679688 94.132812 100.703125 103.839844 105.839844 113.089844 L 107.066406 112.40625 C 101.984375 103.25 98.003906 93.640625 95.117188 83.574219 C 92.234375 73.507812 90.523438 63.246094 89.988281 52.785156 Z M 88.582031 52.855469 " fill-opacity="1" fill-rule="nonzero"/><path fill="#a9a0f0" d="M 121.777344 140.863281 C 96.660156 142.234375 70.585938 136.769531 52.039062 126.238281 L 51.34375 127.460938 C 68.210938 137.035156 91.199219 142.480469 114.101562 142.480469 C 116.6875 142.480469 119.28125 142.410156 121.855469 142.269531 C 147.984375 140.839844 169.253906 132.546875 180.214844 119.519531 L 179.136719 118.613281 C 168.425781 131.347656 147.519531 139.453125 121.777344 140.863281 Z M 121.777344 140.863281 " fill-opacity="1" fill-rule="nonzero"/><path fill="#a9a0f0" d="M 168.679688 242.632812 C 168.742188 242.648438 168.808594 242.660156 168.875 242.660156 C 168.929688 242.660156 168.980469 242.652344 169.035156 242.640625 C 175.089844 241.214844 179.664062 235.367188 179.914062 228.738281 C 179.902344 228.382812 179.84375 228.035156 179.746094 227.691406 C 179.648438 227.351562 179.507812 227.027344 179.328125 226.71875 C 179.148438 226.414062 178.933594 226.132812 178.683594 225.878906 C 178.433594 225.625 178.15625 225.40625 177.851562 225.222656 C 177.546875 225.039062 177.222656 224.894531 176.882812 224.792969 C 176.542969 224.6875 176.195312 224.628906 175.839844 224.613281 C 175.484375 224.59375 175.132812 224.621094 174.78125 224.691406 C 174.433594 224.765625 174.097656 224.878906 173.777344 225.03125 C 171.644531 226.257812 169.4375 227.523438 167.617188 229.324219 C 165.523438 231.398438 164.359375 233.871094 164.335938 236.285156 C 164.304688 239.226562 166.132812 241.898438 168.679688 242.632812 Z M 168.609375 230.324219 C 170.292969 228.652344 172.421875 227.429688 174.476562 226.25 C 174.820312 226.058594 175.1875 225.964844 175.578125 225.96875 C 176.132812 225.980469 176.648438 226.128906 177.125 226.425781 C 177.539062 226.648438 177.875 226.964844 178.121094 227.367188 C 178.367188 227.773438 178.496094 228.210938 178.507812 228.683594 C 178.285156 234.625 174.257812 239.867188 168.898438 241.226562 C 167.0625 240.597656 165.71875 238.515625 165.742188 236.296875 C 165.761719 234.257812 166.78125 232.136719 168.609375 230.324219 Z M 168.609375 230.324219 " fill-opacity="1" fill-rule="nonzero"/><path fill="#a9a0f0" d="M 151.429688 243.238281 C 153.441406 244.273438 155.574219 244.765625 157.835938 244.714844 C 159.070312 244.707031 160.296875 244.59375 161.515625 244.375 C 161.839844 244.320312 162.03125 244.128906 162.085938 243.804688 C 162.210938 243.113281 162.28125 242.417969 162.292969 241.714844 C 162.308594 241.011719 162.265625 240.3125 162.167969 239.617188 C 162.066406 238.921875 161.914062 238.242188 161.707031 237.570312 C 161.5 236.898438 161.238281 236.25 160.925781 235.621094 C 160.617188 234.988281 160.253906 234.390625 159.847656 233.816406 C 159.441406 233.246094 158.988281 232.710938 158.496094 232.210938 C 158 231.710938 157.472656 231.253906 156.902344 230.839844 C 156.335938 230.425781 155.742188 230.058594 155.113281 229.738281 C 154.34375 229.367188 153.53125 229.191406 152.675781 229.207031 C 151.824219 229.222656 151.019531 229.433594 150.261719 229.832031 C 149.34375 230.273438 148.570312 230.890625 147.941406 231.691406 C 147.308594 232.488281 146.886719 233.382812 146.671875 234.378906 C 146.046875 237.695312 148.050781 241.421875 151.429688 243.238281 Z M 148.050781 234.636719 C 148.226562 233.859375 148.558594 233.160156 149.058594 232.539062 C 149.554688 231.917969 150.160156 231.4375 150.882812 231.097656 C 151.503906 230.78125 152.164062 230.621094 152.863281 230.613281 C 153.429688 230.609375 153.96875 230.734375 154.472656 230.988281 C 155.015625 231.265625 155.53125 231.582031 156.023438 231.9375 C 156.515625 232.292969 156.976562 232.683594 157.40625 233.113281 C 157.835938 233.539062 158.234375 233.996094 158.59375 234.484375 C 158.953125 234.972656 159.273438 235.488281 159.554688 236.023438 C 159.835938 236.5625 160.074219 237.121094 160.269531 237.695312 C 160.460938 238.269531 160.613281 238.855469 160.714844 239.453125 C 160.820312 240.050781 160.875 240.652344 160.886719 241.261719 C 160.898438 241.867188 160.859375 242.472656 160.777344 243.074219 C 157.324219 243.601562 154.402344 243.242188 152.09375 242 C 149.648438 240.683594 147.472656 237.730469 148.050781 234.636719 Z M 148.050781 234.636719 " fill-opacity="1" fill-rule="nonzero"/><path fill="#a9a0f0" d="M 176.011719 229.582031 L 174.613281 229.441406 C 174.515625 230.320312 174.308594 231.171875 173.992188 232 C 173.675781 232.828125 173.261719 233.601562 172.75 234.324219 C 172.238281 235.046875 171.644531 235.691406 170.96875 236.265625 C 170.292969 236.835938 169.558594 237.3125 168.761719 237.699219 L 169.355469 238.96875 C 170.265625 238.53125 171.101562 237.988281 171.871094 237.339844 C 172.640625 236.691406 173.3125 235.953125 173.894531 235.132812 C 174.476562 234.3125 174.949219 233.433594 175.304688 232.492188 C 175.664062 231.550781 175.898438 230.582031 176.011719 229.582031 Z M 176.011719 229.582031 " fill-opacity="1" fill-rule="nonzero"/><path fill="#a9a0f0" d="M 156.636719 240.882812 L 156.816406 239.488281 C 156.132812 239.382812 155.484375 239.179688 154.867188 238.871094 C 154.25 238.566406 153.695312 238.171875 153.199219 237.691406 C 152.707031 237.210938 152.296875 236.664062 151.972656 236.054688 C 151.648438 235.449219 151.425781 234.804688 151.300781 234.125 L 149.914062 234.34375 C 150.0625 235.171875 150.335938 235.957031 150.730469 236.699219 C 151.125 237.441406 151.625 238.105469 152.226562 238.691406 C 152.828125 239.277344 153.507812 239.757812 154.257812 240.132812 C 155.011719 240.503906 155.804688 240.757812 156.636719 240.882812 Z M 156.636719 240.882812 " fill-opacity="1" fill-rule="nonzero"/><path fill="#a9a0f0" d="M 140.234375 84.085938 L 140.273438 85.492188 C 143.789062 85.417969 147.273438 85.691406 150.734375 86.316406 C 154.191406 86.941406 157.554688 87.90625 160.820312 89.210938 C 164.082031 90.515625 167.183594 92.128906 170.121094 94.058594 C 173.0625 95.988281 175.777344 98.1875 178.273438 100.664062 L 179.269531 99.675781 C 176.707031 97.132812 173.917969 94.867188 170.898438 92.886719 C 167.878906 90.90625 164.691406 89.246094 161.339844 87.90625 C 157.984375 86.566406 154.53125 85.578125 150.976562 84.933594 C 147.425781 84.289062 143.84375 84.007812 140.234375 84.085938 Z M 140.234375 84.085938 " fill-opacity="1" fill-rule="nonzero"/><path fill="#a9a0f0" d="M 77.652344 112.488281 L 78.753906 113.359375 C 79.265625 112.742188 79.851562 112.203125 80.511719 111.746094 C 81.171875 111.285156 81.878906 110.925781 82.640625 110.664062 C 83.398438 110.402344 84.179688 110.246094 84.980469 110.199219 C 85.785156 110.152344 86.578125 110.214844 87.363281 110.386719 L 87.691406 109.019531 C 86.777344 108.8125 85.847656 108.734375 84.914062 108.785156 C 83.976562 108.835938 83.0625 109.015625 82.175781 109.320312 C 81.289062 109.625 80.460938 110.046875 79.691406 110.585938 C 78.921875 111.125 78.242188 111.757812 77.652344 112.488281 Z M 77.652344 112.488281 " fill-opacity="1" fill-rule="nonzero"/><path fill="#a9a0f0" d="M 137.226562 105.640625 L 137.898438 104.402344 C 135.691406 103.21875 133.359375 102.386719 130.902344 101.902344 C 128.445312 101.417969 125.96875 101.304688 123.480469 101.5625 L 123.628906 102.957031 C 125.976562 102.714844 128.3125 102.820312 130.628906 103.277344 C 132.945312 103.734375 135.148438 104.523438 137.226562 105.640625 Z M 137.226562 105.640625 " fill-opacity="1" fill-rule="nonzero"/><path fill="#a9a0f0" d="M 154.730469 110.300781 L 155.816406 109.410156 C 154.753906 108.128906 153.484375 107.109375 152.003906 106.351562 C 150.523438 105.59375 148.957031 105.15625 147.296875 105.042969 L 147.210938 106.449219 C 148.675781 106.546875 150.058594 106.933594 151.363281 107.601562 C 152.671875 108.269531 153.792969 109.171875 154.730469 110.300781 Z M 154.730469 110.300781 " fill-opacity="1" fill-rule="nonzero"/><path fill="#a9a0f0" d="M 134.21875 111.300781 L 134.320312 112.703125 C 136.113281 112.582031 137.859375 112.8125 139.558594 113.394531 C 141.257812 113.976562 142.78125 114.859375 144.125 116.050781 L 145.0625 115.003906 C 143.574219 113.6875 141.890625 112.707031 140.011719 112.066406 C 138.132812 111.425781 136.199219 111.167969 134.21875 111.300781 Z M 134.21875 111.300781 " fill-opacity="1" fill-rule="nonzero"/><path fill="#a9a0f0" d="M 142.742188 110.425781 C 142.785156 110.425781 142.828125 110.425781 142.867188 110.421875 C 143.277344 110.402344 143.644531 110.273438 143.972656 110.027344 C 144.296875 109.78125 144.527344 109.464844 144.65625 109.078125 C 144.800781 108.671875 144.824219 108.257812 144.730469 107.835938 C 144.632812 107.414062 144.433594 107.050781 144.128906 106.742188 C 144 106.636719 143.863281 106.542969 143.714844 106.46875 C 143.5625 106.394531 143.40625 106.339844 143.246094 106.300781 C 143.082031 106.265625 142.917969 106.246094 142.75 106.25 C 142.582031 106.253906 142.417969 106.273438 142.253906 106.316406 C 142.09375 106.359375 141.9375 106.417969 141.792969 106.496094 C 141.644531 106.578125 141.507812 106.671875 141.382812 106.785156 C 141.257812 106.894531 141.148438 107.019531 141.054688 107.160156 C 140.960938 107.296875 140.886719 107.445312 140.824219 107.601562 C 140.765625 107.757812 140.726562 107.917969 140.707031 108.085938 C 140.6875 108.25 140.6875 108.417969 140.707031 108.582031 C 140.726562 108.75 140.765625 108.910156 140.824219 109.066406 C 140.882812 109.222656 140.957031 109.371094 141.050781 109.507812 C 141.144531 109.648438 141.253906 109.773438 141.378906 109.886719 C 141.503906 109.996094 141.636719 110.09375 141.785156 110.171875 C 141.933594 110.253906 142.085938 110.3125 142.25 110.355469 C 142.410156 110.398438 142.574219 110.421875 142.742188 110.425781 Z M 142.0625 108.089844 C 142.15625 107.867188 142.324219 107.734375 142.558594 107.6875 C 142.632812 107.667969 142.710938 107.65625 142.789062 107.65625 C 142.941406 107.652344 143.074219 107.695312 143.191406 107.792969 C 143.390625 108.042969 143.433594 108.320312 143.328125 108.621094 C 143.242188 108.894531 143.058594 109.027344 142.773438 109.019531 C 142.53125 109.015625 142.34375 108.914062 142.210938 108.714844 C 142.054688 108.53125 142.003906 108.324219 142.0625 108.089844 Z M 142.0625 108.089844 " fill-opacity="1" fill-rule="nonzero"/><path fill="#a9a0f0" d="M 86.292969 115.816406 L 84.585938 115.804688 C 84.417969 115.804688 84.261719 115.835938 84.109375 115.898438 C 83.957031 115.960938 83.820312 116.050781 83.707031 116.167969 C 83.589844 116.285156 83.5 116.421875 83.4375 116.574219 C 83.378906 116.726562 83.347656 116.886719 83.351562 117.050781 C 83.269531 118.042969 83.921875 119.265625 84.988281 119.433594 C 85.078125 119.449219 85.167969 119.457031 85.261719 119.457031 C 85.632812 119.445312 85.972656 119.335938 86.285156 119.136719 C 86.597656 118.933594 86.835938 118.664062 86.996094 118.332031 C 87.214844 117.96875 87.304688 117.578125 87.269531 117.15625 C 87.234375 116.734375 87.078125 116.367188 86.804688 116.046875 C 86.664062 115.894531 86.496094 115.820312 86.292969 115.816406 Z M 85.757812 117.667969 C 85.644531 117.878906 85.425781 118.078125 85.207031 118.046875 C 85.058594 117.996094 84.957031 117.894531 84.894531 117.753906 C 84.800781 117.582031 84.753906 117.402344 84.75 117.210938 L 85.863281 117.21875 C 85.871094 117.378906 85.835938 117.527344 85.757812 117.667969 Z M 85.757812 117.667969 " fill-opacity="1" fill-rule="nonzero"/><path fill="#a9a0f0" d="M 161.1875 110.859375 C 161.476562 111.011719 161.785156 111.085938 162.109375 111.082031 C 162.550781 111.078125 162.960938 110.957031 163.335938 110.722656 C 163.675781 110.535156 163.945312 110.269531 164.136719 109.929688 C 164.328125 109.589844 164.417969 109.222656 164.402344 108.832031 C 164.390625 108.441406 164.273438 108.085938 164.054688 107.757812 C 163.835938 107.433594 163.550781 107.191406 163.195312 107.03125 C 162.855469 106.839844 162.492188 106.746094 162.101562 106.753906 C 161.710938 106.761719 161.351562 106.867188 161.019531 107.070312 C 160.867188 107.183594 160.734375 107.308594 160.613281 107.453125 C 160.492188 107.597656 160.390625 107.753906 160.308594 107.921875 C 160.226562 108.09375 160.167969 108.269531 160.128906 108.453125 C 160.089844 108.636719 160.078125 108.824219 160.085938 109.011719 C 160.09375 109.199219 160.125 109.382812 160.179688 109.5625 C 160.230469 109.742188 160.308594 109.914062 160.402344 110.074219 C 160.5 110.234375 160.613281 110.382812 160.746094 110.515625 C 160.878906 110.648438 161.027344 110.765625 161.1875 110.859375 Z M 161.78125 108.253906 C 161.882812 108.191406 161.992188 108.160156 162.109375 108.160156 C 162.261719 108.164062 162.40625 108.203125 162.539062 108.273438 C 162.703125 108.390625 162.792969 108.550781 162.8125 108.75 C 162.832031 108.953125 162.773438 109.125 162.636719 109.273438 C 162.5 109.417969 162.328125 109.492188 162.128906 109.484375 C 161.925781 109.480469 161.761719 109.398438 161.632812 109.246094 C 161.503906 109.089844 161.453125 108.914062 161.484375 108.714844 C 161.511719 108.515625 161.613281 108.363281 161.78125 108.253906 Z M 161.78125 108.253906 " fill-opacity="1" fill-rule="nonzero"/><path fill="#a9a0f0" d="M 74.433594 107.285156 C 74.265625 107.222656 74.101562 107.21875 73.933594 107.28125 L 72.558594 107.789062 C 72.339844 107.875 72.144531 108 71.96875 108.15625 C 71.792969 108.316406 71.652344 108.5 71.546875 108.710938 C 71.4375 108.921875 71.371094 109.144531 71.347656 109.378906 C 71.320312 109.613281 71.339844 109.847656 71.398438 110.074219 C 71.4375 110.335938 71.519531 110.578125 71.644531 110.808594 C 71.769531 111.039062 71.933594 111.242188 72.128906 111.414062 C 72.328125 111.585938 72.546875 111.71875 72.792969 111.816406 C 73.039062 111.910156 73.289062 111.957031 73.554688 111.960938 L 73.601562 111.960938 C 74.652344 111.9375 75.5 111.117188 75.710938 109.925781 C 75.921875 108.734375 75.410156 107.671875 74.433594 107.285156 Z M 74.328125 109.675781 C 74.269531 109.996094 74.046875 110.542969 73.570312 110.554688 C 73.367188 110.539062 73.191406 110.464844 73.042969 110.324219 C 72.894531 110.183594 72.804688 110.011719 72.777344 109.808594 C 72.761719 109.714844 72.6875 109.238281 73.046875 109.105469 L 74.109375 108.714844 C 74.339844 109 74.410156 109.324219 74.328125 109.679688 Z M 74.328125 109.675781 " fill-opacity="1" fill-rule="nonzero"/><path fill="#a9a0f0" d="M 116.183594 58.03125 C 116.261719 58.03125 116.339844 58.027344 116.417969 58.019531 C 116.617188 57.984375 116.808594 57.925781 116.996094 57.847656 C 117.179688 57.765625 117.355469 57.664062 117.515625 57.539062 C 117.675781 57.414062 117.816406 57.273438 117.945312 57.113281 C 118.070312 56.957031 118.171875 56.785156 118.257812 56.601562 C 118.339844 56.414062 118.398438 56.222656 118.4375 56.023438 C 118.472656 55.824219 118.484375 55.625 118.46875 55.421875 C 118.457031 55.21875 118.417969 55.023438 118.359375 54.828125 C 118.296875 54.636719 118.210938 54.453125 118.105469 54.28125 C 117.84375 53.933594 117.515625 53.679688 117.117188 53.511719 C 116.71875 53.347656 116.304688 53.292969 115.875 53.355469 C 115.449219 53.390625 115.0625 53.53125 114.71875 53.78125 C 114.371094 54.03125 114.113281 54.351562 113.945312 54.746094 C 113.796875 55.132812 113.757812 55.53125 113.820312 55.941406 C 113.886719 56.351562 114.046875 56.71875 114.308594 57.039062 C 114.769531 57.683594 115.394531 58.015625 116.183594 58.03125 Z M 115.246094 55.277344 C 115.402344 54.949219 115.664062 54.773438 116.03125 54.75 C 116.402344 54.691406 116.707031 54.800781 116.953125 55.089844 C 117.035156 55.226562 117.078125 55.375 117.085938 55.535156 C 117.09375 55.699219 117.058594 55.851562 116.988281 55.992188 C 116.917969 56.136719 116.816406 56.257812 116.683594 56.347656 C 116.550781 56.441406 116.40625 56.496094 116.246094 56.511719 C 116.085938 56.53125 115.929688 56.507812 115.78125 56.445312 C 115.632812 56.386719 115.507812 56.292969 115.40625 56.167969 C 115.304688 56.042969 115.242188 55.902344 115.214844 55.742188 C 115.183594 55.585938 115.195312 55.429688 115.246094 55.277344 Z M 115.246094 55.277344 " fill-opacity="1" fill-rule="nonzero"/><path fill="#a9a0f0" d="M 143.027344 66.753906 C 142.882812 66.699219 142.734375 66.695312 142.585938 66.738281 C 140.625 67.316406 139.949219 68.71875 140.152344 69.855469 C 140.1875 70.097656 140.265625 70.328125 140.386719 70.546875 C 140.503906 70.761719 140.65625 70.949219 140.84375 71.113281 C 141.027344 71.273438 141.238281 71.398438 141.46875 71.484375 C 141.699219 71.570312 141.9375 71.617188 142.183594 71.617188 C 142.230469 71.617188 142.273438 71.617188 142.320312 71.613281 C 143.394531 71.542969 144.234375 70.667969 144.414062 69.4375 C 144.59375 68.207031 144.039062 67.128906 143.027344 66.753906 Z M 143.023438 69.234375 C 142.957031 69.699219 142.683594 70.179688 142.226562 70.210938 C 142.050781 70.21875 141.894531 70.164062 141.761719 70.046875 C 141.628906 69.933594 141.554688 69.785156 141.535156 69.609375 C 141.453125 69.144531 141.730469 68.542969 142.71875 68.175781 C 143.011719 68.472656 143.113281 68.828125 143.023438 69.234375 Z M 143.023438 69.234375 " fill-opacity="1" fill-rule="nonzero"/><path fill="#a9a0f0" d="M 109.601562 116.601562 C 109.480469 116.644531 109.375 116.710938 109.289062 116.808594 C 109.132812 117.011719 109.015625 117.238281 108.9375 117.480469 C 108.859375 117.726562 108.824219 117.976562 108.835938 118.234375 C 108.847656 118.492188 108.902344 118.738281 109.003906 118.976562 C 109.105469 119.210938 109.242188 119.425781 109.417969 119.613281 C 109.871094 120.203125 110.472656 120.511719 111.21875 120.535156 C 111.546875 120.535156 111.851562 120.457031 112.136719 120.296875 C 112.347656 120.171875 112.527344 120.015625 112.679688 119.824219 C 112.828125 119.636719 112.941406 119.425781 113.011719 119.191406 C 113.082031 118.957031 113.109375 118.722656 113.089844 118.480469 C 113.070312 118.238281 113.007812 118.007812 112.902344 117.789062 C 112.46875 116.804688 111.28125 116.058594 109.601562 116.601562 Z M 111.445312 119.070312 C 111.09375 119.269531 110.6875 118.945312 110.507812 118.722656 C 110.285156 118.480469 110.203125 118.199219 110.265625 117.878906 C 111.027344 117.703125 111.457031 117.996094 111.617188 118.355469 C 111.683594 118.480469 111.703125 118.609375 111.667969 118.746094 C 111.636719 118.882812 111.5625 118.992188 111.445312 119.070312 Z M 111.445312 119.070312 " fill-opacity="1" fill-rule="nonzero"/></svg>