<svg xmlns="http://www.w3.org/2000/svg" xmlns:xlink="http://www.w3.org/1999/xlink" width="400" zoomAndPan="magnify" viewBox="0 0 300 299.999988" height="400" preserveAspectRatio="xMidYMid meet" version="1.0"><defs><clipPath id="2c2c29b221"><path d="M 76 235 L 227 235 L 227 263.851562 L 76 263.851562 Z M 76 235 " clip-rule="nonzero"/></clipPath></defs><path fill="#a9a0f0" d="M 74.730469 201.148438 C 78.972656 219.6875 87.652344 236.609375 93.066406 254.773438 C 93.15625 255.085938 93.640625 254.957031 93.550781 254.640625 C 88.390625 236.386719 79.390625 219.585938 75.03125 201.0625 C 74.984375 200.867188 74.6875 200.953125 74.730469 201.148438 " fill-opacity="1" fill-rule="nonzero"/><path fill="#a9a0f0" d="M 87.417969 194.84375 C 89.589844 205.703125 92.761719 216.234375 96.199219 226.75 C 99.640625 237.273438 102.6875 247.816406 105.164062 258.609375 C 105.242188 258.949219 105.742188 258.800781 105.679688 258.464844 C 101.441406 236.761719 92.480469 216.351562 87.636719 194.785156 C 87.605469 194.640625 87.390625 194.703125 87.417969 194.84375 " fill-opacity="1" fill-rule="nonzero"/><path fill="#a9a0f0" d="M 101.355469 199.960938 C 104.371094 220.636719 111.667969 240.382812 115.363281 260.9375 C 115.4375 261.332031 116.027344 261.164062 115.964844 260.773438 C 114.292969 250.445312 111.707031 240.367188 108.882812 230.304688 C 106.058594 220.242188 103.597656 210.15625 101.585938 199.898438 C 101.554688 199.742188 101.332031 199.8125 101.355469 199.960938 " fill-opacity="1" fill-rule="nonzero"/><path fill="#a9a0f0" d="M 117.046875 208.042969 C 117.636719 214.109375 118.730469 220.152344 119.628906 226.175781 C 121.082031 235.902344 122.519531 245.632812 124.042969 255.347656 C 124.398438 257.609375 124.769531 259.875 125.117188 262.140625 C 125.1875 262.582031 125.863281 262.394531 125.792969 261.953125 C 123.386719 246.316406 120.953125 230.351562 118.394531 214.621094 C 118.035156 212.414062 117.703125 210.203125 117.238281 208.015625 C 117.21875 207.910156 117.035156 207.929688 117.046875 208.042969 " fill-opacity="1" fill-rule="nonzero"/><path fill="#a9a0f0" d="M 128.496094 194.570312 C 129.886719 214.242188 132.257812 233.878906 134.277344 253.492188 C 134.558594 256.214844 134.925781 259.144531 135.195312 261.761719 C 135.242188 262.210938 135.949219 262.214844 135.902344 261.761719 C 133.875 242.070312 131.957031 222.359375 129.742188 202.683594 C 129.4375 199.960938 129.132812 197.242188 128.765625 194.53125 C 128.746094 194.382812 128.484375 194.414062 128.496094 194.570312 " fill-opacity="1" fill-rule="nonzero"/><path fill="#a9a0f0" d="M 143.667969 202.964844 C 143.015625 212.835938 143.910156 222.828125 144.753906 232.664062 C 145.128906 237.023438 145.511719 241.378906 145.753906 245.75 C 146.0625 251.265625 145.722656 256.871094 146.183594 262.363281 C 146.222656 262.832031 146.855469 262.824219 146.90625 262.363281 C 147.492188 257.054688 146.980469 251.421875 146.671875 246.101562 C 146.414062 241.613281 146.019531 237.136719 145.601562 232.664062 C 144.671875 222.753906 144.34375 212.902344 143.957031 202.964844 C 143.949219 202.777344 143.675781 202.777344 143.667969 202.964844 " fill-opacity="1" fill-rule="nonzero"/><path fill="#a9a0f0" d="M 160.25 196.082031 C 159.25 206.859375 158.800781 217.667969 158.480469 228.484375 C 158.160156 239.308594 157.441406 250.082031 156.878906 260.890625 C 156.847656 261.460938 157.695312 261.4375 157.753906 260.890625 C 158.90625 250.15625 159.035156 239.269531 159.277344 228.484375 C 159.519531 217.671875 159.917969 206.875 160.632812 196.082031 C 160.652344 195.832031 160.273438 195.839844 160.25 196.082031 " fill-opacity="1" fill-rule="nonzero"/><path fill="#a9a0f0" d="M 175.378906 202.003906 C 174.0625 211.738281 173.09375 221.53125 171.890625 231.28125 C 171.339844 235.742188 170.800781 240.207031 170.285156 244.675781 C 169.664062 250.070312 168.542969 255.738281 168.625 261.167969 C 168.628906 261.589844 169.289062 261.707031 169.382812 261.269531 C 170.476562 256.253906 170.566406 250.859375 171.117188 245.75 C 171.613281 241.144531 172.140625 236.539062 172.65625 231.929688 C 173.765625 221.988281 175.035156 212.027344 175.691406 202.046875 C 175.703125 201.867188 175.402344 201.824219 175.378906 202.003906 " fill-opacity="1" fill-rule="nonzero"/><path fill="#a9a0f0" d="M 190.65625 195.460938 C 187.957031 209.660156 186.097656 224.0625 184.015625 238.363281 C 182.917969 245.894531 181.78125 253.699219 180.761719 261.113281 C 180.683594 261.6875 181.558594 261.9375 181.640625 261.355469 C 184.65625 239.394531 188.167969 217.488281 191.003906 195.507812 C 191.027344 195.308594 190.691406 195.265625 190.65625 195.460938 " fill-opacity="1" fill-rule="nonzero"/><path fill="#a9a0f0" d="M 203.566406 200.863281 C 198.960938 220.128906 195.589844 239.761719 191.992188 259.242188 C 191.886719 259.824219 192.777344 260.074219 192.886719 259.488281 C 196.488281 239.972656 200.546875 220.511719 203.867188 200.945312 C 203.898438 200.753906 203.613281 200.667969 203.566406 200.863281 " fill-opacity="1" fill-rule="nonzero"/><path fill="#a9a0f0" d="M 218.546875 193.328125 C 215.691406 204.089844 212.933594 214.863281 209.90625 225.578125 C 206.898438 236.226562 203.496094 246.996094 201.519531 257.894531 C 201.417969 258.457031 202.230469 258.703125 202.390625 258.132812 C 204.011719 252.351562 205.207031 246.433594 206.730469 240.621094 C 208.023438 235.671875 209.367188 230.734375 210.722656 225.800781 C 213.671875 215.082031 216.667969 204.316406 218.8125 193.402344 C 218.84375 193.230469 218.589844 193.15625 218.546875 193.328125 " fill-opacity="1" fill-rule="nonzero"/><path fill="#a9a0f0" d="M 228.90625 194.492188 C 226.042969 204.5 223.070312 214.4375 219.8125 224.328125 C 218.351562 228.765625 216.898438 233.203125 215.523438 237.664062 C 213.859375 243.074219 211.90625 248.640625 210.9375 254.222656 C 210.839844 254.789062 211.621094 255.019531 211.8125 254.460938 C 213.605469 249.183594 214.746094 243.625 216.34375 238.273438 C 217.714844 233.683594 219.171875 229.117188 220.636719 224.554688 C 223.808594 214.664062 226.972656 204.730469 229.246094 194.585938 C 229.296875 194.363281 228.96875 194.273438 228.90625 194.492188 " fill-opacity="1" fill-rule="nonzero"/><path fill="#a9a0f0" d="M 117.335938 198.199219 C 117.140625 194.113281 116.910156 190.03125 116.664062 185.949219 C 116.4375 182.183594 116.46875 178.289062 115.777344 174.578125 C 115.753906 174.464844 115.589844 174.496094 115.585938 174.605469 C 115.378906 178.503906 115.953125 182.511719 116.226562 186.402344 C 116.507812 190.339844 116.808594 194.269531 117.140625 198.199219 C 117.152344 198.324219 117.339844 198.328125 117.335938 198.199219 " fill-opacity="1" fill-rule="nonzero"/><path fill="#a9a0f0" d="M 143.789062 194.289062 C 144.195312 189.785156 144.234375 185.148438 143.683594 180.652344 C 143.644531 180.335938 143.164062 180.320312 143.179688 180.652344 C 143.394531 185.214844 143.550781 189.71875 143.421875 194.289062 C 143.414062 194.527344 143.769531 194.523438 143.789062 194.289062 " fill-opacity="1" fill-rule="nonzero"/><path fill="#a9a0f0" d="M 161.03125 190.65625 C 161.414062 187.027344 161.824219 183.375 162.144531 179.738281 C 162.164062 179.476562 161.726562 179.414062 161.679688 179.675781 C 161.101562 183.277344 160.816406 187.015625 160.734375 190.65625 C 160.730469 190.851562 161.011719 190.84375 161.03125 190.65625 " fill-opacity="1" fill-rule="nonzero"/><path fill="#a9a0f0" d="M 100.628906 193.03125 C 99.835938 186.273438 98.855469 179.449219 97.742188 172.738281 C 97.695312 172.46875 97.230469 172.527344 97.257812 172.804688 C 98.007812 179.542969 99.105469 186.417969 100.523438 193.042969 C 100.535156 193.101562 100.636719 193.089844 100.628906 193.03125 " fill-opacity="1" fill-rule="nonzero"/><path fill="#a9a0f0" d="M 86.519531 186.988281 C 85.507812 180.925781 84.578125 174.855469 83.675781 168.78125 C 83.628906 168.457031 83.140625 168.59375 83.1875 168.914062 C 84.089844 174.976562 85.160156 181.019531 86.351562 187.03125 C 86.375 187.144531 86.539062 187.097656 86.519531 186.988281 " fill-opacity="1" fill-rule="nonzero"/><path fill="#a9a0f0" d="M 72.457031 185.507812 C 70.777344 179 67.9375 172.925781 66.515625 166.335938 C 66.441406 165.984375 65.925781 166.136719 65.980469 166.484375 C 67.042969 173.132812 70.546875 179.09375 72.433594 185.511719 C 72.4375 185.523438 72.460938 185.519531 72.457031 185.507812 " fill-opacity="1" fill-rule="nonzero"/><path fill="#a9a0f0" d="M 176.96875 193.425781 C 177.601562 189.054688 178.226562 184.65625 178.546875 180.25 C 178.5625 180.0625 178.25 180.019531 178.21875 180.207031 C 177.535156 184.570312 177.148438 189 176.777344 193.398438 C 176.765625 193.507812 176.953125 193.535156 176.96875 193.425781 " fill-opacity="1" fill-rule="nonzero"/><path fill="#a9a0f0" d="M 191.382812 188.554688 C 191.867188 186.320312 192.21875 184.058594 192.570312 181.804688 C 192.589844 181.664062 192.378906 181.601562 192.351562 181.746094 C 191.949219 184 191.546875 186.261719 191.277344 188.535156 C 191.269531 188.597656 191.371094 188.609375 191.382812 188.554688 " fill-opacity="1" fill-rule="nonzero"/><path fill="#a9a0f0" d="M 206.34375 190.796875 C 207.253906 187.363281 208.074219 183.796875 208.652344 180.292969 C 208.6875 180.078125 208.375 179.980469 208.316406 180.199219 C 207.410156 183.636719 206.699219 187.230469 206.125 190.738281 C 206.101562 190.875 206.304688 190.941406 206.34375 190.796875 " fill-opacity="1" fill-rule="nonzero"/><path fill="#a9a0f0" d="M 221.453125 182.546875 C 222.1875 179.914062 222.984375 177.292969 223.625 174.636719 C 223.65625 174.507812 223.464844 174.457031 223.429688 174.582031 C 222.675781 177.210938 222.074219 179.882812 221.410156 182.535156 C 221.402344 182.5625 221.445312 182.574219 221.453125 182.546875 " fill-opacity="1" fill-rule="nonzero"/><path fill="#a9a0f0" d="M 233.398438 181.777344 C 234.789062 177.332031 236.316406 172.539062 237.019531 167.9375 C 237.058594 167.667969 236.703125 167.5625 236.605469 167.824219 C 235 172.195312 234.023438 177.128906 233.097656 181.691406 C 233.058594 181.886719 233.335938 181.96875 233.398438 181.777344 " fill-opacity="1" fill-rule="nonzero"/><path fill="#a9a0f0" d="M 245.476562 170.144531 C 246.449219 167.148438 247.605469 164.144531 248.367188 161.085938 C 248.40625 160.925781 248.179688 160.867188 248.121094 161.019531 C 247.027344 163.972656 246.289062 167.101562 245.40625 170.125 C 245.390625 170.167969 245.460938 170.1875 245.476562 170.144531 " fill-opacity="1" fill-rule="nonzero"/><path fill="#a9a0f0" d="M 35.65625 134.132812 C 36.121094 139.730469 38.011719 144.960938 41.296875 149.523438 C 41.511719 149.820312 42.015625 149.539062 41.796875 149.230469 C 38.636719 144.710938 36.632812 139.613281 35.949219 134.132812 C 35.929688 133.949219 35.636719 133.941406 35.65625 134.132812 " fill-opacity="1" fill-rule="nonzero"/><path fill="#a9a0f0" d="M 41.324219 143.699219 C 39.871094 146.128906 42.710938 149.171875 44.101562 150.988281 C 46.238281 153.78125 48.738281 156.332031 51.617188 158.359375 C 51.867188 158.53125 52.1875 158.128906 51.945312 157.933594 C 49.847656 156.21875 47.8125 154.46875 46.007812 152.441406 C 44.445312 150.683594 40.285156 146.4375 41.574219 143.84375 C 41.65625 143.675781 41.421875 143.535156 41.324219 143.699219 " fill-opacity="1" fill-rule="nonzero"/><path fill="#a9a0f0" d="M 47.71875 149.542969 C 50.382812 155.628906 55.757812 160.257812 62.28125 161.695312 C 62.601562 161.765625 62.742188 161.28125 62.417969 161.199219 C 56.03125 159.578125 50.773438 155.386719 48.039062 149.355469 C 47.9375 149.136719 47.625 149.324219 47.71875 149.542969 " fill-opacity="1" fill-rule="nonzero"/><path fill="#a9a0f0" d="M 57.566406 156.960938 C 61.863281 161.949219 67.496094 165.863281 73.859375 167.691406 C 74.183594 167.785156 74.3125 167.296875 73.996094 167.1875 C 67.722656 165.023438 62.28125 161.660156 57.886719 156.636719 C 57.695312 156.414062 57.375 156.738281 57.566406 156.960938 " fill-opacity="1" fill-rule="nonzero"/><path fill="#a9a0f0" d="M 63.210938 156.242188 C 67.613281 161.988281 73.765625 166.3125 80.8125 168.117188 C 81.144531 168.203125 81.28125 167.699219 80.953125 167.601562 C 74.027344 165.539062 68.035156 161.679688 63.578125 155.957031 C 63.417969 155.75 63.046875 156.027344 63.210938 156.242188 " fill-opacity="1" fill-rule="nonzero"/><path fill="#a9a0f0" d="M 76.015625 161.191406 C 80.683594 165.878906 86.179688 169.917969 92.316406 172.457031 C 92.609375 172.578125 92.820312 172.082031 92.535156 171.941406 C 86.554688 169.007812 81.113281 165.550781 76.328125 160.878906 C 76.125 160.679688 75.816406 160.988281 76.015625 161.191406 " fill-opacity="1" fill-rule="nonzero"/><path fill="#a9a0f0" d="M 86.714844 164.492188 C 91.449219 167.632812 96.386719 170.429688 101.574219 172.75 C 101.859375 172.875 102.109375 172.460938 101.824219 172.324219 C 96.675781 169.914062 91.703125 167.203125 86.957031 164.074219 C 86.695312 163.902344 86.453125 164.320312 86.714844 164.492188 " fill-opacity="1" fill-rule="nonzero"/><path fill="#a9a0f0" d="M 96.433594 165.769531 C 101.535156 170.347656 107.3125 174.328125 113.664062 176.953125 C 113.933594 177.0625 114.125 176.609375 113.863281 176.480469 C 107.6875 173.460938 101.945312 169.992188 96.765625 165.4375 C 96.539062 165.238281 96.207031 165.566406 96.433594 165.769531 " fill-opacity="1" fill-rule="nonzero"/><path fill="#a9a0f0" d="M 106.605469 168.671875 C 111.332031 171.988281 116.492188 174.726562 122.003906 176.476562 C 122.347656 176.582031 122.484375 176.058594 122.152344 175.9375 C 116.722656 173.960938 111.632812 171.503906 106.878906 168.203125 C 106.59375 168.003906 106.324219 168.472656 106.605469 168.671875 " fill-opacity="1" fill-rule="nonzero"/><path fill="#a9a0f0" d="M 116.601562 167.796875 C 120.582031 172.078125 125.941406 174.882812 131.800781 175.355469 C 132.085938 175.378906 132.078125 174.945312 131.800781 174.914062 C 126.027344 174.203125 120.816406 171.855469 116.699219 167.699219 C 116.636719 167.636719 116.542969 167.734375 116.601562 167.796875 " fill-opacity="1" fill-rule="nonzero"/><path fill="#a9a0f0" d="M 132.019531 172.355469 C 135.21875 175.085938 139.222656 176.867188 143.320312 177.746094 C 143.59375 177.800781 143.707031 177.394531 143.433594 177.328125 C 139.289062 176.300781 135.6875 174.535156 132.128906 172.210938 C 132.042969 172.15625 131.941406 172.289062 132.019531 172.355469 " fill-opacity="1" fill-rule="nonzero"/><path fill="#a9a0f0" d="M 143.730469 172.832031 C 147.046875 174.003906 150.46875 174.96875 153.957031 175.46875 C 154.226562 175.507812 154.355469 175.097656 154.074219 175.042969 C 150.601562 174.347656 147.191406 173.597656 143.8125 172.53125 C 143.621094 172.472656 143.542969 172.765625 143.730469 172.832031 " fill-opacity="1" fill-rule="nonzero"/><path fill="#a9a0f0" d="M 163.6875 170.660156 C 160.902344 173.222656 157.742188 175.304688 154.332031 176.929688 C 154.039062 177.070312 154.296875 177.488281 154.585938 177.363281 C 158.140625 175.832031 161.273438 173.710938 164.082031 171.050781 C 164.34375 170.804688 163.949219 170.417969 163.6875 170.660156 " fill-opacity="1" fill-rule="nonzero"/><path fill="#a9a0f0" d="M 173.78125 170.558594 C 171.855469 172.398438 169.691406 173.921875 167.335938 175.15625 C 167.128906 175.265625 167.308594 175.574219 167.519531 175.46875 C 169.945312 174.269531 172.105469 172.710938 174.039062 170.820312 C 174.210938 170.652344 173.953125 170.394531 173.78125 170.558594 " fill-opacity="1" fill-rule="nonzero"/><path fill="#a9a0f0" d="M 188.179688 167.832031 C 185.441406 170.660156 182.132812 172.734375 178.457031 174.121094 C 178.222656 174.210938 178.316406 174.585938 178.5625 174.503906 C 182.398438 173.234375 185.6875 171.035156 188.445312 168.097656 C 188.613281 167.921875 188.351562 167.65625 188.179688 167.832031 " fill-opacity="1" fill-rule="nonzero"/><path fill="#a9a0f0" d="M 198.054688 168.453125 C 194.777344 170.859375 191.191406 172.605469 187.261719 173.675781 C 186.992188 173.746094 187.105469 174.164062 187.378906 174.09375 C 191.363281 173.058594 194.984375 171.207031 198.136719 168.558594 C 198.195312 168.511719 198.117188 168.40625 198.054688 168.453125 " fill-opacity="1" fill-rule="nonzero"/><path fill="#a9a0f0" d="M 207.1875 166.425781 C 202.90625 169.65625 198.261719 172.199219 193.300781 174.214844 C 193.109375 174.292969 193.1875 174.605469 193.386719 174.53125 C 198.425781 172.644531 203.082031 169.96875 207.339844 166.6875 C 207.492188 166.570312 207.34375 166.308594 207.1875 166.425781 " fill-opacity="1" fill-rule="nonzero"/><path fill="#a9a0f0" d="M 217.410156 163.746094 C 213.101562 167.34375 208.410156 170.257812 203.40625 172.78125 C 203.15625 172.910156 203.375 173.273438 203.625 173.15625 C 208.707031 170.785156 213.351562 167.589844 217.5625 163.898438 C 217.671875 163.808594 217.515625 163.65625 217.410156 163.746094 " fill-opacity="1" fill-rule="nonzero"/><path fill="#a9a0f0" d="M 226.160156 161.378906 C 221.539062 165.457031 216.234375 168.460938 210.410156 170.453125 C 210.191406 170.527344 210.28125 170.875 210.503906 170.800781 C 216.425781 168.90625 221.769531 165.765625 226.398438 161.621094 C 226.5625 161.476562 226.320312 161.238281 226.160156 161.378906 " fill-opacity="1" fill-rule="nonzero"/><path fill="#a9a0f0" d="M 235.472656 158.199219 C 230.007812 163.082031 223.933594 166.539062 217.277344 169.5 C 217.027344 169.613281 217.203125 170.035156 217.464844 169.945312 C 224.257812 167.550781 230.472656 163.332031 235.707031 158.433594 C 235.863281 158.285156 235.628906 158.058594 235.472656 158.199219 " fill-opacity="1" fill-rule="nonzero"/><path fill="#a9a0f0" d="M 242.199219 154.640625 C 239.085938 159.40625 234.351562 162.75 228.894531 164.292969 C 228.652344 164.363281 228.753906 164.730469 228.996094 164.671875 C 234.714844 163.3125 239.394531 159.777344 242.445312 154.78125 C 242.539062 154.628906 242.300781 154.488281 242.199219 154.640625 " fill-opacity="1" fill-rule="nonzero"/><path fill="#a9a0f0" d="M 248.632812 149.964844 C 245.429688 155.4375 241.085938 159.601562 235.765625 162.996094 C 235.539062 163.140625 235.742188 163.488281 235.980469 163.355469 C 241.433594 160.308594 245.828125 155.519531 248.796875 150.058594 C 248.851562 149.953125 248.695312 149.859375 248.632812 149.964844 " fill-opacity="1" fill-rule="nonzero"/><path fill="#a9a0f0" d="M 257.082031 145.609375 C 254.660156 150.558594 251.171875 154.609375 246.835938 157.972656 C 246.597656 158.160156 246.914062 158.574219 247.160156 158.394531 C 251.613281 155.144531 255.046875 150.757812 257.363281 145.773438 C 257.449219 145.585938 257.175781 145.417969 257.082031 145.609375 " fill-opacity="1" fill-rule="nonzero"/><path fill="#a9a0f0" d="M 46.980469 122.144531 C 47.898438 123.691406 48.816406 125.234375 49.734375 126.78125 C 49.851562 126.976562 50.148438 126.800781 50.035156 126.605469 C 49.113281 125.0625 48.1875 123.519531 47.265625 121.972656 C 47.15625 121.789062 46.867188 121.957031 46.980469 122.144531 " fill-opacity="1" fill-rule="nonzero"/><path fill="#a9a0f0" d="M 51.957031 123.996094 C 53.1875 126.972656 54.878906 129.632812 57.105469 131.960938 C 57.3125 132.175781 57.636719 131.851562 57.433594 131.632812 C 55.300781 129.328125 53.582031 126.71875 52.339844 123.835938 C 52.246094 123.617188 51.867188 123.773438 51.957031 123.996094 " fill-opacity="1" fill-rule="nonzero"/><path fill="#a9a0f0" d="M 64.964844 136.246094 C 66.914062 137.707031 69.175781 138.484375 71.609375 138.546875 C 71.964844 138.558594 71.964844 138.007812 71.609375 138 C 69.261719 137.925781 67.125 137.171875 65.246094 135.765625 C 64.957031 135.550781 64.679688 136.03125 64.964844 136.246094 " fill-opacity="1" fill-rule="nonzero"/><path fill="#a9a0f0" d="M 70.050781 136.265625 C 72.957031 137.871094 76.152344 138.683594 79.476562 138.484375 C 79.796875 138.460938 79.804688 137.96875 79.476562 137.976562 C 76.210938 138.046875 73.167969 137.414062 70.273438 135.882812 C 70.023438 135.753906 69.804688 136.125 70.050781 136.265625 " fill-opacity="1" fill-rule="nonzero"/><path fill="#a9a0f0" d="M 59.003906 126.683594 C 58.503906 129.886719 59.792969 133.078125 62.140625 135.257812 C 62.40625 135.507812 62.808594 135.109375 62.539062 134.859375 C 60.1875 132.675781 59.1875 129.886719 59.238281 126.714844 C 59.242188 126.582031 59.027344 126.546875 59.003906 126.683594 " fill-opacity="1" fill-rule="nonzero"/><path fill="#a9a0f0" d="M 62.019531 130.617188 C 63.261719 132.738281 65.113281 134.609375 67.34375 135.671875 C 67.613281 135.800781 67.839844 135.429688 67.582031 135.273438 C 65.464844 133.996094 63.707031 132.5 62.304688 130.449219 C 62.1875 130.277344 61.910156 130.429688 62.019531 130.617188 " fill-opacity="1" fill-rule="nonzero"/><path fill="#a9a0f0" d="M 67.378906 132.792969 C 69.074219 134.375 71.089844 135.445312 73.375 135.859375 C 73.703125 135.917969 73.84375 135.425781 73.511719 135.355469 C 71.339844 134.898438 69.363281 133.957031 67.695312 132.472656 C 67.480469 132.285156 67.167969 132.59375 67.378906 132.792969 " fill-opacity="1" fill-rule="nonzero"/><path fill="#a9a0f0" d="M 124.351562 145.269531 C 129.007812 145.90625 133.710938 145.941406 138.359375 145.1875 C 138.625 145.144531 138.566406 144.679688 138.292969 144.714844 C 133.648438 145.242188 129.054688 145.378906 124.394531 144.949219 C 124.214844 144.929688 124.167969 145.242188 124.351562 145.269531 " fill-opacity="1" fill-rule="nonzero"/><path fill="#a9a0f0" d="M 122.992188 144.074219 C 126.390625 143.84375 129.789062 143.597656 133.183594 143.332031 C 133.535156 143.308594 133.539062 142.757812 133.183594 142.785156 C 129.785156 143.050781 126.386719 143.335938 122.992188 143.632812 C 122.710938 143.660156 122.707031 144.09375 122.992188 144.074219 " fill-opacity="1" fill-rule="nonzero"/><path fill="#a9a0f0" d="M 146.621094 141.503906 C 145.023438 143.269531 143.363281 143.738281 141.050781 143.558594 C 140.753906 143.535156 140.75 143.945312 140.988281 144.042969 C 143.050781 144.867188 145.871094 143.601562 146.839844 141.675781 C 146.910156 141.539062 146.730469 141.378906 146.621094 141.503906 " fill-opacity="1" fill-rule="nonzero"/><path fill="#a9a0f0" d="M 150.714844 140.070312 C 149.078125 141.921875 147.171875 143.265625 145.109375 144.601562 C 144.820312 144.789062 145.070312 145.203125 145.378906 145.058594 C 147.578125 144.011719 149.488281 142.25 151.042969 140.398438 C 151.234375 140.171875 150.914062 139.847656 150.714844 140.070312 " fill-opacity="1" fill-rule="nonzero"/><path fill="#a9a0f0" d="M 154.730469 139.941406 C 152.859375 142.09375 150.816406 144.035156 148.746094 145.992188 C 148.492188 146.238281 148.867188 146.597656 149.132812 146.375 C 151.316406 144.574219 153.261719 142.457031 155.085938 140.296875 C 155.292969 140.050781 154.945312 139.691406 154.730469 139.941406 " fill-opacity="1" fill-rule="nonzero"/><path fill="#a9a0f0" d="M 225.054688 113.425781 C 226.183594 115.390625 228.113281 116.664062 230.375 116.851562 C 230.726562 116.878906 230.707031 116.359375 230.375 116.316406 C 228.34375 116.042969 226.550781 114.929688 225.480469 113.179688 C 225.316406 112.910156 224.898438 113.152344 225.054688 113.425781 " fill-opacity="1" fill-rule="nonzero"/><path fill="#a9a0f0" d="M 228.292969 113.523438 C 230.117188 115.234375 232.507812 116.136719 235.007812 115.859375 C 235.339844 115.824219 235.355469 115.308594 235.007812 115.324219 C 232.632812 115.445312 230.433594 114.765625 228.65625 113.160156 C 228.414062 112.9375 228.054688 113.296875 228.292969 113.523438 " fill-opacity="1" fill-rule="nonzero"/><path fill="#a9a0f0" d="M 233.523438 112.222656 C 234.757812 112.683594 235.992188 113.144531 237.230469 113.589844 C 237.507812 113.6875 237.617188 113.257812 237.351562 113.15625 C 236.121094 112.683594 234.882812 112.230469 233.644531 111.777344 C 233.363281 111.671875 233.246094 112.121094 233.523438 112.222656 " fill-opacity="1" fill-rule="nonzero"/><path fill="#a9a0f0" d="M 227.0625 89.359375 C 231.179688 91.308594 235.324219 93.199219 239.472656 95.082031 C 239.738281 95.203125 239.96875 94.808594 239.703125 94.691406 C 235.539062 92.820312 231.371094 90.964844 227.179688 89.160156 C 227.046875 89.101562 226.925781 89.296875 227.0625 89.359375 " fill-opacity="1" fill-rule="nonzero"/><path fill="#a9a0f0" d="M 216.769531 92.273438 C 214.546875 94.515625 211.746094 95.492188 208.621094 95.460938 C 208.277344 95.457031 208.289062 95.960938 208.621094 95.988281 C 211.835938 96.273438 214.90625 94.933594 217.113281 92.621094 C 217.332031 92.390625 216.988281 92.046875 216.769531 92.273438 " fill-opacity="1" fill-rule="nonzero"/><path fill="#a9a0f0" d="M 221.054688 94.511719 C 218.015625 95.75 214.957031 96.4375 211.765625 97.132812 C 211.445312 97.203125 211.507812 97.75 211.84375 97.714844 C 215.0625 97.386719 218.238281 96.328125 221.210938 95.082031 C 221.554688 94.9375 221.40625 94.367188 221.054688 94.511719 " fill-opacity="1" fill-rule="nonzero"/><path fill="#a9a0f0" d="M 223.839844 96.398438 C 221.664062 97.125 219.488281 97.84375 217.324219 98.609375 C 216.960938 98.738281 217.109375 99.316406 217.484375 99.195312 C 219.667969 98.488281 221.832031 97.730469 224.003906 96.984375 C 224.367188 96.855469 224.210938 96.273438 223.839844 96.398438 " fill-opacity="1" fill-rule="nonzero"/><path fill="#a9a0f0" d="M 228.429688 96 C 226.882812 96.761719 225.335938 97.523438 223.789062 98.289062 C 223.554688 98.402344 223.757812 98.753906 223.992188 98.640625 C 225.542969 97.878906 227.09375 97.121094 228.640625 96.359375 C 228.882812 96.242188 228.671875 95.878906 228.429688 96 " fill-opacity="1" fill-rule="nonzero"/><path fill="#a9a0f0" d="M 228.808594 98.296875 C 228.347656 98.761719 227.890625 99.226562 227.4375 99.703125 C 227.234375 99.917969 227.550781 100.234375 227.765625 100.03125 C 228.242188 99.578125 228.707031 99.121094 229.171875 98.660156 C 229.40625 98.425781 229.042969 98.0625 228.808594 98.296875 " fill-opacity="1" fill-rule="nonzero"/><path fill="#a9a0f0" d="M 232.101562 100.660156 C 231.796875 100.976562 231.492188 101.289062 231.1875 101.601562 C 231.042969 101.753906 231.269531 101.976562 231.421875 101.832031 C 231.734375 101.53125 232.046875 101.226562 232.359375 100.921875 C 232.53125 100.757812 232.265625 100.492188 232.101562 100.660156 " fill-opacity="1" fill-rule="nonzero"/><path fill="#a9a0f0" d="M 180.019531 104.4375 C 182.949219 103.960938 185.882812 103.5 188.808594 103.003906 C 189.148438 102.945312 189.003906 102.4375 188.664062 102.488281 C 185.734375 102.945312 182.804688 103.433594 179.875 103.90625 C 179.527344 103.964844 179.675781 104.496094 180.019531 104.4375 " fill-opacity="1" fill-rule="nonzero"/><path fill="#a9a0f0" d="M 183.238281 107.546875 C 186.164062 107.0625 189.101562 106.632812 192.007812 106.046875 C 192.246094 105.996094 192.195312 105.585938 191.953125 105.621094 C 188.992188 106.011719 186.050781 106.5625 183.101562 107.058594 C 182.78125 107.113281 182.917969 107.601562 183.238281 107.546875 " fill-opacity="1" fill-rule="nonzero"/><path fill="#a9a0f0" d="M 189.199219 110.828125 C 191.683594 110.507812 194.171875 110.191406 196.652344 109.84375 C 196.894531 109.808594 196.84375 109.378906 196.59375 109.410156 C 194.109375 109.734375 191.628906 110.085938 189.148438 110.4375 C 188.925781 110.46875 188.976562 110.859375 189.199219 110.828125 " fill-opacity="1" fill-rule="nonzero"/><path fill="#a9a0f0" d="M 196.125 113.429688 C 198.59375 113.4375 201.0625 113.476562 203.53125 113.425781 C 203.710938 113.421875 203.710938 113.15625 203.53125 113.152344 C 201.0625 113.101562 198.59375 113.140625 196.125 113.148438 C 195.945312 113.148438 195.945312 113.429688 196.125 113.429688 " fill-opacity="1" fill-rule="nonzero"/><path fill="#a9a0f0" d="M 203.023438 116.6875 C 204.351562 116.929688 205.636719 116.800781 206.878906 116.265625 C 207.027344 116.199219 206.917969 115.933594 206.761719 115.992188 C 205.585938 116.433594 204.367188 116.550781 203.128906 116.300781 C 202.878906 116.25 202.773438 116.636719 203.023438 116.6875 " fill-opacity="1" fill-rule="nonzero"/><path fill="#a9a0f0" d="M 137.71875 84.730469 C 139.855469 86.140625 142.175781 87.101562 144.695312 87.546875 C 144.941406 87.589844 145.046875 87.21875 144.800781 87.171875 C 142.324219 86.691406 140.007812 85.820312 137.871094 84.476562 C 137.707031 84.371094 137.5625 84.628906 137.71875 84.730469 " fill-opacity="1" fill-rule="nonzero"/><path fill="#a9a0f0" d="M 139.160156 88.839844 C 141.109375 89.152344 142.933594 89.785156 144.613281 90.839844 C 144.890625 91.011719 145.144531 90.570312 144.867188 90.402344 C 143.125 89.347656 141.234375 88.703125 139.195312 88.574219 C 139.050781 88.566406 139.011719 88.8125 139.160156 88.839844 " fill-opacity="1" fill-rule="nonzero"/><path fill="#a9a0f0" d="M 138.488281 92.714844 C 139.976562 94.058594 141.820312 94.863281 143.824219 94.972656 C 144.109375 94.988281 144.101562 94.558594 143.824219 94.53125 C 141.921875 94.347656 140.214844 93.6875 138.71875 92.484375 C 138.5625 92.355469 138.332031 92.574219 138.488281 92.714844 " fill-opacity="1" fill-rule="nonzero"/><path fill="#a9a0f0" d="M 138.632812 98.113281 C 140.59375 99.855469 142.59375 101.558594 144.617188 103.234375 C 144.820312 103.40625 145.117188 103.113281 144.914062 102.9375 C 142.910156 101.234375 140.882812 99.558594 138.820312 97.921875 C 138.6875 97.816406 138.5 97.996094 138.632812 98.113281 " fill-opacity="1" fill-rule="nonzero"/><path fill="#a9a0f0" d="M 140.882812 105.054688 C 141.847656 106.609375 142.472656 108.285156 142.769531 110.089844 C 142.804688 110.320312 143.15625 110.222656 143.117188 109.992188 C 142.800781 108.164062 142.144531 106.460938 141.15625 104.894531 C 141.046875 104.71875 140.773438 104.878906 140.882812 105.054688 " fill-opacity="1" fill-rule="nonzero"/><path fill="#a9a0f0" d="M 91.902344 107.542969 C 93.917969 108.273438 95.925781 109.0625 97.980469 109.6875 C 98.289062 109.78125 98.394531 109.332031 98.109375 109.210938 C 96.121094 108.398438 94.066406 107.746094 92.042969 107.039062 C 91.722656 106.929688 91.589844 107.429688 91.902344 107.542969 " fill-opacity="1" fill-rule="nonzero"/><path fill="#a9a0f0" d="M 91.921875 111.1875 C 92.996094 111.507812 94.070312 111.835938 95.160156 112.109375 C 95.507812 112.195312 95.644531 111.691406 95.308594 111.578125 C 94.242188 111.21875 93.164062 110.914062 92.082031 110.601562 C 91.703125 110.496094 91.546875 111.078125 91.921875 111.1875 " fill-opacity="1" fill-rule="nonzero"/><path fill="#a9a0f0" d="M 91.976562 115.480469 C 94.355469 115.617188 96.675781 115.464844 99.003906 114.980469 C 99.402344 114.898438 99.230469 114.304688 98.835938 114.375 C 96.5625 114.769531 94.28125 114.921875 91.976562 114.800781 C 91.539062 114.777344 91.542969 115.457031 91.976562 115.480469 " fill-opacity="1" fill-rule="nonzero"/><path fill="#a9a0f0" d="M 93.828125 119.597656 C 96.914062 119.460938 100.003906 119.335938 103.085938 119.164062 C 103.496094 119.140625 103.503906 118.5 103.085938 118.519531 C 100 118.65625 96.914062 118.839844 93.828125 119.011719 C 93.457031 119.03125 93.453125 119.613281 93.828125 119.597656 " fill-opacity="1" fill-rule="nonzero"/><path fill="#a9a0f0" d="M 97.070312 121.855469 C 99.941406 122.042969 102.710938 121.765625 105.46875 120.933594 C 105.765625 120.847656 105.640625 120.390625 105.339844 120.46875 C 102.625 121.1875 99.875 121.519531 97.070312 121.378906 C 96.761719 121.363281 96.765625 121.835938 97.070312 121.855469 " fill-opacity="1" fill-rule="nonzero"/><path fill="#a9a0f0" d="M 104.941406 126.546875 C 107.253906 126.292969 109.550781 126.441406 111.824219 126.898438 C 112.15625 126.964844 112.292969 126.460938 111.964844 126.398438 C 109.628906 125.933594 107.3125 125.832031 104.941406 126.003906 C 104.589844 126.027344 104.597656 126.582031 104.941406 126.546875 " fill-opacity="1" fill-rule="nonzero"/><path fill="#a9a0f0" d="M 73.265625 95.703125 C 73.511719 97.800781 74.25 99.789062 75.625 101.40625 C 75.789062 101.59375 76.117188 101.34375 75.972656 101.140625 C 74.777344 99.46875 73.921875 97.699219 73.597656 95.660156 C 73.570312 95.472656 73.242188 95.515625 73.265625 95.703125 " fill-opacity="1" fill-rule="nonzero"/><path fill="#a9a0f0" d="M 70.511719 97.59375 C 70.894531 99.710938 71.597656 101.886719 72.863281 103.648438 C 72.996094 103.835938 73.285156 103.675781 73.171875 103.464844 C 72.140625 101.539062 71.234375 99.683594 70.753906 97.527344 C 70.71875 97.367188 70.480469 97.4375 70.511719 97.59375 " fill-opacity="1" fill-rule="nonzero"/><path fill="#a9a0f0" d="M 68.648438 100.328125 C 68.492188 102.425781 68.796875 104.496094 69.632812 106.433594 C 69.742188 106.691406 70.195312 106.503906 70.089844 106.242188 C 69.296875 104.332031 68.90625 102.402344 69 100.328125 C 69.011719 100.101562 68.664062 100.101562 68.648438 100.328125 " fill-opacity="1" fill-rule="nonzero"/><path fill="#a9a0f0" d="M 67.136719 104.136719 C 67.785156 105.832031 68.394531 107.5625 69.164062 109.207031 C 69.257812 109.402344 69.585938 109.265625 69.515625 109.058594 C 68.929688 107.339844 68.164062 105.671875 67.457031 104 C 67.378906 103.824219 67.070312 103.949219 67.136719 104.136719 " fill-opacity="1" fill-rule="nonzero"/><path fill="#a9a0f0" d="M 63.605469 107.875 C 64.617188 108.859375 65.632812 109.890625 66.742188 110.765625 C 66.929688 110.910156 67.183594 110.675781 67.007812 110.5 C 66.023438 109.484375 64.886719 108.585938 63.800781 107.679688 C 63.667969 107.570312 63.476562 107.75 63.605469 107.875 " fill-opacity="1" fill-rule="nonzero"/><path fill="#a9a0f0" d="M 60.8125 110.144531 C 61.421875 110.933594 62.023438 111.734375 62.667969 112.496094 C 62.742188 112.582031 62.890625 112.46875 62.824219 112.375 C 62.257812 111.566406 61.644531 110.792969 61.042969 110.011719 C 60.941406 109.875 60.707031 110.007812 60.8125 110.144531 " fill-opacity="1" fill-rule="nonzero"/><path fill="#a9a0f0" d="M 135.152344 54.464844 C 138.375 53.335938 141.613281 52.238281 144.804688 51.027344 C 145.132812 50.90625 145 50.386719 144.660156 50.5 C 141.417969 51.574219 138.21875 52.765625 135.003906 53.921875 C 134.664062 54.042969 134.8125 54.585938 135.152344 54.464844 " fill-opacity="1" fill-rule="nonzero"/><path fill="#a9a0f0" d="M 136.96875 57.097656 C 140.523438 55.691406 144.113281 54.339844 147.636719 52.851562 C 147.84375 52.761719 147.695312 52.398438 147.476562 52.480469 C 143.917969 53.828125 140.402344 55.316406 136.871094 56.746094 C 136.660156 56.835938 136.75 57.183594 136.96875 57.097656 " fill-opacity="1" fill-rule="nonzero"/><path fill="#a9a0f0" d="M 142.078125 57.464844 C 144.261719 55.945312 146.714844 55.164062 149.375 55.164062 C 149.644531 55.164062 149.644531 54.746094 149.375 54.746094 C 146.648438 54.757812 144.113281 55.5625 141.886719 57.136719 C 141.6875 57.277344 141.875 57.605469 142.078125 57.464844 " fill-opacity="1" fill-rule="nonzero"/><path fill="#a9a0f0" d="M 148.535156 57.113281 C 150.21875 56.613281 151.910156 56.128906 153.589844 55.597656 C 153.800781 55.53125 153.710938 55.203125 153.492188 55.261719 C 151.804688 55.742188 150.121094 56.261719 148.4375 56.773438 C 148.222656 56.835938 148.3125 57.179688 148.535156 57.113281 " fill-opacity="1" fill-rule="nonzero"/><path fill="#a9a0f0" d="M 150.828125 59.402344 C 153.289062 59.042969 155.753906 58.6875 158.214844 58.316406 C 158.496094 58.273438 158.375 57.839844 158.09375 57.882812 C 155.636719 58.257812 153.179688 58.648438 150.726562 59.035156 C 150.480469 59.074219 150.585938 59.4375 150.828125 59.402344 " fill-opacity="1" fill-rule="nonzero"/><path fill="#a9a0f0" d="M 112.238281 58.144531 C 111.457031 59.605469 111.117188 61.183594 111.234375 62.835938 C 111.25 63.0625 111.609375 63.0625 111.589844 62.835938 C 111.445312 61.234375 111.734375 59.710938 112.464844 58.277344 C 112.539062 58.128906 112.320312 57.996094 112.238281 58.144531 " fill-opacity="1" fill-rule="nonzero"/><path fill="#a9a0f0" d="M 108.863281 60.925781 C 108.460938 62.941406 108.019531 64.953125 107.667969 66.980469 C 107.632812 67.179688 107.929688 67.269531 107.972656 67.066406 C 108.417969 65.058594 108.777344 63.027344 109.171875 61.007812 C 109.210938 60.808594 108.902344 60.722656 108.863281 60.925781 " fill-opacity="1" fill-rule="nonzero"/><path fill="#a9a0f0" d="M 106.527344 63.757812 C 106.386719 66.871094 105.984375 69.949219 105.324219 72.992188 C 105.273438 73.21875 105.625 73.316406 105.671875 73.089844 C 106.320312 70 106.679688 66.910156 106.765625 63.757812 C 106.773438 63.601562 106.535156 63.605469 106.527344 63.757812 " fill-opacity="1" fill-rule="nonzero"/><path fill="#a9a0f0" d="M 103.808594 69.78125 C 103.589844 71.53125 103.707031 73.257812 104.203125 74.945312 C 104.285156 75.234375 104.726562 75.113281 104.648438 74.824219 C 104.199219 73.160156 104.058594 71.496094 104.265625 69.78125 C 104.300781 69.492188 103.847656 69.496094 103.808594 69.78125 " fill-opacity="1" fill-rule="nonzero"/><path fill="#a9a0f0" d="M 189.644531 142.15625 C 194.824219 142.480469 199.859375 141.585938 204.589844 139.4375 C 204.886719 139.304688 204.628906 138.875 204.332031 139 C 199.667969 141.015625 194.730469 141.980469 189.644531 141.808594 C 189.421875 141.800781 189.425781 142.140625 189.644531 142.15625 " fill-opacity="1" fill-rule="nonzero"/><path fill="#a9a0f0" d="M 197.050781 136.207031 C 200.644531 136.40625 204.0625 135.773438 207.359375 134.328125 C 207.613281 134.214844 207.425781 133.761719 207.167969 133.871094 C 203.917969 135.203125 200.5625 135.828125 197.050781 135.753906 C 196.757812 135.746094 196.761719 136.191406 197.050781 136.207031 " fill-opacity="1" fill-rule="nonzero"/><path fill="#a9a0f0" d="M 209.105469 130.5 C 210.820312 129.941406 212.539062 129.386719 214.253906 128.828125 C 214.484375 128.753906 214.386719 128.390625 214.15625 128.464844 C 212.441406 129.03125 210.726562 129.59375 209.011719 130.15625 C 208.796875 130.230469 208.886719 130.570312 209.105469 130.5 " fill-opacity="1" fill-rule="nonzero"/><path fill="#a9a0f0" d="M 219.269531 126.398438 C 220.40625 126.347656 221.4375 125.855469 222.15625 124.972656 C 222.289062 124.8125 222.0625 124.582031 221.925781 124.742188 C 221.253906 125.554688 220.324219 126.058594 219.269531 126.136719 C 219.105469 126.152344 219.101562 126.40625 219.269531 126.398438 " fill-opacity="1" fill-rule="nonzero"/><path fill="#a9a0f0" d="M 239.828125 118.121094 C 240.75 117.34375 241.671875 116.570312 242.566406 115.765625 C 242.71875 115.628906 242.5 115.421875 242.347656 115.546875 C 241.410156 116.304688 240.496094 117.089844 239.582031 117.875 C 239.410156 118.023438 239.65625 118.261719 239.828125 118.121094 " fill-opacity="1" fill-rule="nonzero"/><path fill="#a9a0f0" d="M 246.828125 119.460938 C 248.058594 117.605469 249.292969 115.753906 250.480469 113.871094 C 250.605469 113.667969 250.292969 113.492188 250.160156 113.683594 C 248.90625 115.519531 247.699219 117.390625 246.484375 119.257812 C 246.34375 119.472656 246.6875 119.671875 246.828125 119.460938 " fill-opacity="1" fill-rule="nonzero"/><path fill="#a9a0f0" d="M 251.515625 116.234375 C 252.621094 114.25 253.660156 112.207031 254.59375 110.136719 C 254.691406 109.90625 254.375 109.707031 254.246094 109.933594 C 253.148438 111.921875 252.132812 113.980469 251.203125 116.054688 C 251.109375 116.257812 251.402344 116.441406 251.515625 116.234375 " fill-opacity="1" fill-rule="nonzero"/><path fill="#a9a0f0" d="M 255.253906 123.902344 C 254.59375 125.714844 253.648438 127.367188 252.425781 128.859375 C 252.253906 129.070312 252.558594 129.375 252.726562 129.160156 C 253.960938 127.59375 254.890625 125.871094 255.519531 123.976562 C 255.578125 123.808594 255.316406 123.738281 255.253906 123.902344 " fill-opacity="1" fill-rule="nonzero"/><path fill="#a9a0f0" d="M 256.511719 127.105469 C 255.898438 128.949219 255.003906 130.632812 253.886719 132.21875 C 253.742188 132.421875 254.074219 132.605469 254.21875 132.414062 C 255.402344 130.835938 256.25 129.078125 256.832031 127.191406 C 256.894531 126.988281 256.578125 126.902344 256.511719 127.105469 " fill-opacity="1" fill-rule="nonzero"/><path fill="#a9a0f0" d="M 256.210938 132.707031 C 255.125 135.832031 253.433594 138.605469 251.15625 141.007812 C 251.046875 141.121094 251.21875 141.296875 251.328125 141.183594 C 253.621094 138.75 255.328125 135.925781 256.421875 132.765625 C 256.464844 132.632812 256.253906 132.574219 256.210938 132.707031 " fill-opacity="1" fill-rule="nonzero"/><path fill="#a9a0f0" d="M 128.019531 154.726562 C 130.492188 155.214844 132.972656 155.398438 135.488281 155.152344 C 135.777344 155.125 135.785156 154.671875 135.488281 154.691406 C 133.011719 154.84375 130.574219 154.769531 128.125 154.34375 C 127.875 154.300781 127.765625 154.679688 128.019531 154.726562 " fill-opacity="1" fill-rule="nonzero"/><path fill="#a9a0f0" d="M 129.941406 157.335938 C 133.640625 157.433594 137.328125 157.863281 140.984375 158.414062 C 141.226562 158.449219 141.332031 158.082031 141.089844 158.042969 C 137.386719 157.464844 133.675781 157.15625 129.941406 156.910156 C 129.667969 156.894531 129.664062 157.332031 129.941406 157.335938 " fill-opacity="1" fill-rule="nonzero"/><path fill="#a9a0f0" d="M 141.042969 160.691406 C 143.386719 160.804688 145.726562 160.671875 148.011719 160.121094 C 148.207031 160.074219 148.121094 159.796875 147.933594 159.828125 C 145.636719 160.207031 143.371094 160.421875 141.042969 160.316406 C 140.800781 160.304688 140.804688 160.679688 141.042969 160.691406 " fill-opacity="1" fill-rule="nonzero"/><path fill="#a9a0f0" d="M 143.894531 164.058594 C 145.746094 163.75 147.601562 163.453125 149.449219 163.132812 C 149.722656 163.085938 149.601562 162.679688 149.335938 162.71875 C 147.480469 163.007812 145.628906 163.320312 143.777344 163.621094 C 143.492188 163.667969 143.613281 164.101562 143.894531 164.058594 " fill-opacity="1" fill-rule="nonzero"/><path fill="#a9a0f0" d="M 51.167969 131.417969 C 53.875 134.46875 57.027344 137.105469 60.390625 139.402344 C 60.628906 139.566406 60.851562 139.179688 60.617188 139.015625 C 57.285156 136.691406 54.25 134.074219 51.316406 131.269531 C 51.21875 131.175781 51.078125 131.316406 51.167969 131.417969 " fill-opacity="1" fill-rule="nonzero"/><path fill="#a9a0f0" d="M 50.25 136.550781 C 52.246094 137.980469 54.414062 139.097656 56.753906 139.839844 C 56.964844 139.90625 57.050781 139.582031 56.84375 139.511719 C 54.53125 138.75 52.386719 137.707031 50.390625 136.316406 C 50.242188 136.210938 50.109375 136.449219 50.25 136.550781 " fill-opacity="1" fill-rule="nonzero"/><path fill="#a9a0f0" d="M 50.183594 140.273438 C 51.414062 141.507812 52.644531 142.746094 53.878906 143.984375 C 54.0625 144.167969 54.351562 143.882812 54.164062 143.699219 C 52.925781 142.464844 51.691406 141.234375 50.453125 140 C 50.277344 139.828125 50.007812 140.097656 50.183594 140.273438 " fill-opacity="1" fill-rule="nonzero"/><path fill="#a9a0f0" d="M 49.261719 142.582031 C 50.925781 144.492188 52.972656 145.9375 55.363281 146.792969 C 55.574219 146.867188 55.65625 146.539062 55.453125 146.457031 C 53.171875 145.539062 51.160156 144.164062 49.527344 142.316406 C 49.367188 142.132812 49.105469 142.402344 49.261719 142.582031 " fill-opacity="1" fill-rule="nonzero"/><path fill="#a9a0f0" d="M 192.425781 75.929688 C 195.234375 76.238281 198.148438 76.09375 200.828125 75.128906 C 201.125 75.019531 201.011719 74.566406 200.695312 74.648438 C 197.941406 75.351562 195.273438 75.804688 192.425781 75.640625 C 192.234375 75.628906 192.242188 75.910156 192.425781 75.929688 " fill-opacity="1" fill-rule="nonzero"/><path fill="#a9a0f0" d="M 193.828125 79.988281 C 195.53125 79.722656 197.238281 79.453125 198.945312 79.183594 C 199.136719 79.15625 199.054688 78.859375 198.863281 78.890625 C 197.164062 79.1875 195.464844 79.480469 193.769531 79.773438 C 193.625 79.796875 193.6875 80.011719 193.828125 79.988281 " fill-opacity="1" fill-rule="nonzero"/><path fill="#a9a0f0" d="M 193.347656 82.46875 C 194.117188 82.464844 194.894531 82.46875 195.664062 82.453125 C 195.890625 82.449219 195.890625 82.105469 195.664062 82.101562 C 194.894531 82.085938 194.117188 82.089844 193.347656 82.085938 C 193.101562 82.085938 193.101562 82.46875 193.347656 82.46875 " fill-opacity="1" fill-rule="nonzero"/><path fill="#a9a0f0" d="M 193.839844 85.609375 C 194.453125 85.441406 195.0625 85.269531 195.667969 85.074219 C 195.773438 85.042969 195.730469 84.890625 195.625 84.914062 C 195 85.046875 194.386719 85.199219 193.769531 85.359375 C 193.605469 85.402344 193.675781 85.65625 193.839844 85.609375 " fill-opacity="1" fill-rule="nonzero"/><path fill="#a9a0f0" d="M 176.695312 76.9375 C 179.007812 77.238281 181.324219 77.539062 183.644531 77.824219 C 184.011719 77.867188 184.007812 77.292969 183.644531 77.246094 C 181.328125 76.941406 179.011719 76.652344 176.695312 76.367188 C 176.328125 76.324219 176.335938 76.890625 176.695312 76.9375 " fill-opacity="1" fill-rule="nonzero"/><path fill="#a9a0f0" d="M 177.609375 80.675781 C 178.691406 80.683594 179.773438 80.714844 180.851562 80.648438 C 181.136719 80.632812 181.140625 80.21875 180.851562 80.203125 C 179.773438 80.136719 178.691406 80.167969 177.609375 80.175781 C 177.289062 80.175781 177.289062 80.671875 177.609375 80.675781 " fill-opacity="1" fill-rule="nonzero"/><path fill="#a9a0f0" d="M 176.988281 83.480469 C 177.320312 83.640625 177.652344 83.804688 177.996094 83.9375 C 178.296875 84.050781 178.464844 83.589844 178.210938 83.433594 C 177.914062 83.25 177.605469 83.101562 177.296875 82.949219 C 176.945312 82.773438 176.632812 83.308594 176.988281 83.480469 " fill-opacity="1" fill-rule="nonzero"/><path fill="#a9a0f0" d="M 176.800781 84.796875 C 177.496094 85.902344 178.625 86.589844 179.929688 86.667969 C 180.300781 86.691406 180.285156 86.136719 179.929688 86.097656 C 178.851562 85.984375 177.894531 85.414062 177.3125 84.496094 C 177.105469 84.175781 176.59375 84.472656 176.800781 84.796875 " fill-opacity="1" fill-rule="nonzero"/><path fill="#a9a0f0" d="M 191.835938 61.238281 C 189.875 62.636719 187.753906 63.460938 185.40625 63.957031 C 185.039062 64.035156 185.203125 64.566406 185.558594 64.507812 C 187.941406 64.128906 190.15625 63.09375 192.089844 61.667969 C 192.34375 61.480469 192.101562 61.050781 191.835938 61.238281 " fill-opacity="1" fill-rule="nonzero"/><path fill="#a9a0f0" d="M 193.824219 62.8125 C 191.808594 64.195312 189.660156 64.945312 187.265625 65.34375 C 187.007812 65.390625 187.066406 65.820312 187.324219 65.800781 C 189.78125 65.625 192.078125 64.644531 194.019531 63.152344 C 194.214844 63 194.035156 62.667969 193.824219 62.8125 " fill-opacity="1" fill-rule="nonzero"/><path fill="#a9a0f0" d="M 195.488281 63.589844 C 193.726562 65.171875 191.800781 66.042969 189.609375 66.871094 C 189.316406 66.980469 189.425781 67.410156 189.738281 67.34375 C 192.023438 66.871094 194.136719 65.480469 195.824219 63.921875 C 196.042969 63.714844 195.714844 63.386719 195.488281 63.589844 " fill-opacity="1" fill-rule="nonzero"/><path fill="#a9a0f0" d="M 197.488281 64.628906 C 196.085938 65.535156 194.683594 66.441406 193.285156 67.34375 C 193.050781 67.496094 193.269531 67.878906 193.503906 67.722656 C 194.890625 66.792969 196.277344 65.863281 197.667969 64.933594 C 197.855469 64.808594 197.679688 64.503906 197.488281 64.628906 " fill-opacity="1" fill-rule="nonzero"/><path fill="#a9a0f0" d="M 93.058594 95.265625 C 95.882812 97.132812 99.324219 97.917969 102.660156 97.179688 C 102.902344 97.125 102.855469 96.710938 102.601562 96.738281 C 99.25 97.117188 96.183594 96.671875 93.203125 95.023438 C 93.042969 94.933594 92.910156 95.167969 93.058594 95.265625 " fill-opacity="1" fill-rule="nonzero"/><path fill="#a9a0f0" d="M 97.34375 94.160156 C 99.519531 95.496094 101.917969 96.28125 104.476562 96.351562 C 104.742188 96.359375 104.738281 95.957031 104.476562 95.941406 C 101.980469 95.777344 99.679688 95.128906 97.523438 93.855469 C 97.324219 93.742188 97.148438 94.042969 97.34375 94.160156 " fill-opacity="1" fill-rule="nonzero"/><path fill="#a9a0f0" d="M 99.761719 93.199219 C 101.886719 94.042969 104.113281 94.363281 106.386719 94.046875 C 106.640625 94.011719 106.582031 93.570312 106.324219 93.59375 C 104.097656 93.804688 101.96875 93.589844 99.871094 92.792969 C 99.617188 92.699219 99.511719 93.101562 99.761719 93.199219 " fill-opacity="1" fill-rule="nonzero"/><path fill="#a9a0f0" d="M 102.488281 91.300781 C 103.78125 92.199219 105.308594 92.527344 106.851562 92.214844 C 107.171875 92.152344 107.035156 91.675781 106.71875 91.726562 C 105.300781 91.960938 103.933594 91.667969 102.746094 90.859375 C 102.472656 90.671875 102.21875 91.113281 102.488281 91.300781 " fill-opacity="1" fill-rule="nonzero"/><path fill="#a9a0f0" d="M 119.765625 46.640625 C 118.65625 47.839844 117.488281 49.007812 116.433594 50.253906 C 116.285156 50.425781 116.523438 50.675781 116.683594 50.503906 C 117.804688 49.3125 118.828125 48.015625 119.894531 46.769531 C 119.96875 46.683594 119.847656 46.554688 119.765625 46.640625 " fill-opacity="1" fill-rule="nonzero"/><path fill="#a9a0f0" d="M 121.476562 46.070312 C 120.324219 47.515625 119.183594 49.148438 118.296875 50.769531 C 118.164062 51.007812 118.492188 51.183594 118.648438 50.976562 C 119.753906 49.515625 120.789062 47.808594 121.625 46.183594 C 121.671875 46.09375 121.546875 45.980469 121.476562 46.070312 " fill-opacity="1" fill-rule="nonzero"/><path fill="#a9a0f0" d="M 122.910156 46.121094 C 122.339844 47.3125 121.789062 48.554688 121.390625 49.816406 C 121.320312 50.039062 121.671875 50.195312 121.773438 49.976562 C 122.328125 48.773438 122.761719 47.488281 123.144531 46.21875 C 123.183594 46.082031 122.972656 45.988281 122.910156 46.121094 " fill-opacity="1" fill-rule="nonzero"/><path fill="#a9a0f0" d="M 132.253906 42.328125 C 129.550781 42.15625 127.144531 43.632812 126.144531 46.164062 C 126.058594 46.390625 126.433594 46.546875 126.535156 46.328125 C 127.609375 44.132812 129.792969 42.59375 132.253906 42.457031 C 132.335938 42.453125 132.335938 42.332031 132.253906 42.328125 " fill-opacity="1" fill-rule="nonzero"/><path fill="#a9a0f0" d="M 174.273438 52.191406 C 174.007812 54.34375 174.253906 56.710938 175.0625 58.734375 C 175.175781 59.019531 175.621094 58.917969 175.535156 58.601562 C 174.972656 56.457031 174.585938 54.410156 174.460938 52.191406 C 174.453125 52.066406 174.289062 52.070312 174.273438 52.191406 " fill-opacity="1" fill-rule="nonzero"/><path fill="#a9a0f0" d="M 176.144531 50.339844 C 175.871094 52.796875 175.757812 55.40625 176.3125 57.832031 C 176.371094 58.085938 176.804688 58.039062 176.777344 57.769531 C 176.523438 55.261719 176.21875 52.871094 176.386719 50.339844 C 176.394531 50.1875 176.164062 50.195312 176.144531 50.339844 " fill-opacity="1" fill-rule="nonzero"/><path fill="#a9a0f0" d="M 177.390625 48.5 C 177.703125 50.816406 177.894531 53.195312 178.390625 55.480469 C 178.445312 55.722656 178.867188 55.675781 178.839844 55.417969 C 178.613281 53.085938 178.070312 50.765625 177.652344 48.464844 C 177.628906 48.320312 177.371094 48.347656 177.390625 48.5 " fill-opacity="1" fill-rule="nonzero"/><path fill="#a9a0f0" d="M 179.992188 72.117188 C 187.78125 74.433594 196.03125 72.96875 202.398438 67.886719 C 203.324219 67.148438 202.007812 65.820312 201.089844 66.578125 C 195.320312 71.328125 187.472656 73.183594 180.234375 71.238281 C 179.664062 71.085938 179.429688 71.949219 179.992188 72.117188 " fill-opacity="1" fill-rule="nonzero"/><path fill="#a9a0f0" d="M 171.515625 47.75 C 172.230469 50.164062 172.140625 52.1875 172.074219 54.660156 C 172.035156 56.132812 172.234375 57.511719 172.921875 58.835938 C 174.429688 61.730469 177.757812 63.925781 180.84375 64.734375 C 181.8125 64.988281 182.273438 63.714844 181.5 63.175781 C 178.410156 61.019531 174.230469 59.945312 173.75 55.511719 C 173.425781 52.566406 173.953125 50.085938 172.359375 47.394531 C 172.097656 46.949219 171.363281 47.238281 171.515625 47.75 " fill-opacity="1" fill-rule="nonzero"/><path fill="#a9a0f0" d="M 164.144531 129.996094 C 163.417969 133.636719 163.074219 136.808594 160.910156 139.992188 C 159.914062 141.460938 158.683594 142.824219 157.308594 143.953125 C 155.941406 145.070312 154.3125 145.734375 152.9375 146.816406 C 152.152344 147.4375 153.054688 148.398438 153.796875 148.292969 C 157.433594 147.78125 160.820312 143.957031 162.578125 140.964844 C 164.359375 137.929688 165.890625 133.519531 164.886719 129.996094 C 164.785156 129.648438 164.222656 129.613281 164.144531 129.996094 " fill-opacity="1" fill-rule="nonzero"/><path fill="#a9a0f0" d="M 119.636719 141.144531 C 122.753906 141.167969 125.597656 140.878906 128.523438 142.222656 C 130.453125 143.113281 132.179688 143.714844 134.320312 143.210938 C 135.25 142.996094 134.980469 141.675781 134.105469 141.621094 C 132.398438 141.515625 130.992188 141.472656 129.355469 140.804688 C 128.28125 140.367188 127.28125 140.019531 126.128906 139.871094 C 123.949219 139.585938 121.65625 139.867188 119.535156 140.394531 C 119.109375 140.5 119.207031 141.140625 119.636719 141.144531 " fill-opacity="1" fill-rule="nonzero"/><path fill="#a9a0f0" d="M 135.035156 43.691406 C 130.761719 43.589844 126.40625 46.234375 123.992188 49.660156 C 123.488281 50.382812 124.65625 51.292969 125.21875 50.609375 C 127.96875 47.285156 131.039062 45.664062 135.152344 44.554688 C 135.640625 44.425781 135.53125 43.703125 135.035156 43.691406 " fill-opacity="1" fill-rule="nonzero"/><path fill="#a9a0f0" d="M 82.878906 135.117188 C 79.773438 133.027344 74.855469 132.257812 71.386719 133.808594 C 70.675781 134.121094 71.023438 135.339844 71.78125 135.273438 C 73.511719 135.128906 75.179688 134.722656 76.929688 134.8125 C 78.875 134.914062 80.632812 135.5 82.46875 136.097656 C 83.070312 136.292969 83.363281 135.441406 82.878906 135.117188 " fill-opacity="1" fill-rule="nonzero"/><path fill="#a9a0f0" d="M 49.160156 115.757812 C 51.363281 116.203125 52.796875 117.96875 54.179688 119.617188 C 55.558594 121.261719 56.507812 122.917969 56.855469 125.054688 C 56.992188 125.886719 58.394531 125.699219 58.332031 124.855469 C 58.144531 122.300781 56.617188 120.277344 54.886719 118.5 C 53.410156 116.984375 51.488281 114.855469 49.160156 115.308594 C 48.9375 115.351562 48.941406 115.710938 49.160156 115.757812 " fill-opacity="1" fill-rule="nonzero"/><path fill="#a9a0f0" d="M 133.636719 135.441406 C 136.855469 135.582031 140.140625 135.792969 143.359375 135.675781 C 144.167969 135.644531 144.167969 134.445312 143.359375 134.417969 C 140.140625 134.296875 136.855469 134.511719 133.636719 134.648438 C 133.125 134.667969 133.125 135.421875 133.636719 135.441406 " fill-opacity="1" fill-rule="nonzero"/><path fill="#a9a0f0" d="M 163.953125 148.1875 C 160.3125 146.777344 156.359375 145.980469 152.460938 146.558594 C 151.789062 146.65625 151.96875 147.71875 152.617188 147.722656 C 156.4375 147.75 160.027344 147.96875 163.671875 149.21875 C 164.332031 149.445312 164.585938 148.429688 163.953125 148.1875 " fill-opacity="1" fill-rule="nonzero"/><path fill="#a9a0f0" d="M 118.390625 103.636719 C 114.191406 98.902344 105.59375 97.113281 99.648438 98.835938 C 98.558594 99.152344 98.898438 100.554688 99.898438 100.683594 C 103.25 101.117188 106.613281 100.25 110.011719 100.917969 C 112.886719 101.488281 115.386719 102.859375 117.941406 104.21875 C 118.320312 104.414062 118.667969 103.949219 118.390625 103.636719 " fill-opacity="1" fill-rule="nonzero"/><path fill="#a9a0f0" d="M 90.878906 88.222656 C 87.964844 82.339844 99.179688 80.300781 96.671875 74.171875 C 96.265625 73.175781 94.789062 73.527344 95.027344 74.625 C 95.902344 78.660156 91.511719 80.277344 89.84375 83.265625 C 88.890625 84.964844 88.570312 87.375 90.195312 88.75 C 90.574219 89.066406 91.101562 88.675781 90.878906 88.222656 " fill-opacity="1" fill-rule="nonzero"/><path fill="#a9a0f0" d="M 197.785156 93.339844 C 200.773438 92.871094 204.140625 92.09375 206.699219 94.25 C 208.296875 95.597656 209.308594 97.25 211.316406 98.082031 C 213.722656 99.085938 216.378906 99.648438 218.882812 100.363281 C 221.589844 101.136719 224.367188 102.171875 227.164062 102.519531 C 228.074219 102.632812 228.464844 101.136719 227.636719 100.765625 C 224.9375 99.566406 221.867188 99 219.019531 98.230469 C 216.058594 97.433594 212.226562 97.050781 209.882812 94.9375 C 208.128906 93.359375 206.832031 91.832031 204.375 91.410156 C 202.09375 91.019531 199.644531 91.492188 197.449219 92.113281 C 196.640625 92.339844 196.992188 93.464844 197.785156 93.339844 " fill-opacity="1" fill-rule="nonzero"/><path fill="#a9a0f0" d="M 103.320312 61.007812 C 105.160156 59.335938 106.457031 57.179688 108.410156 55.566406 C 110.546875 53.796875 112.945312 52.816406 115.292969 51.421875 C 115.789062 51.128906 115.453125 50.390625 114.90625 50.511719 C 112.316406 51.089844 109.882812 52.847656 107.894531 54.550781 C 106.023438 56.148438 103.695312 58.378906 102.972656 60.808594 C 102.910156 61.015625 103.171875 61.148438 103.320312 61.007812 " fill-opacity="1" fill-rule="nonzero"/><path fill="#a9a0f0" d="M 100.445312 64.03125 C 100.179688 64.261719 99.855469 64.273438 99.578125 64.519531 C 99.183594 64.878906 98.824219 65.273438 98.457031 65.660156 C 97.722656 66.433594 97.023438 67.238281 96.3125 68.03125 C 95.992188 68.390625 96.507812 68.914062 96.84375 68.5625 C 97.585938 67.796875 98.335938 67.039062 99.054688 66.253906 C 99.375 65.898438 99.699219 65.542969 100.003906 65.171875 C 100.121094 65.027344 100.265625 64.882812 100.355469 64.722656 C 100.472656 64.515625 100.367188 64.375 100.558594 64.121094 C 100.613281 64.050781 100.503906 63.980469 100.445312 64.03125 " fill-opacity="1" fill-rule="nonzero"/><path fill="#a9a0f0" d="M 88.339844 74.609375 C 88.058594 74.894531 87.773438 75.179688 87.488281 75.464844 C 87.394531 75.558594 87.535156 75.699219 87.628906 75.609375 C 87.914062 75.324219 88.199219 75.039062 88.488281 74.75 C 88.578125 74.660156 88.4375 74.515625 88.339844 74.609375 " fill-opacity="1" fill-rule="nonzero"/><path fill="#a9a0f0" d="M 88.339844 74.515625 C 80.902344 80.007812 73.875 86.375 68.4375 93.894531 C 68.042969 94.445312 68.941406 95.144531 69.382812 94.625 C 75.367188 87.574219 81.523438 80.859375 88.753906 75.050781 C 89.050781 74.8125 88.652344 74.285156 88.339844 74.515625 " fill-opacity="1" fill-rule="nonzero"/><path fill="#a9a0f0" d="M 62.242188 99.835938 C 59.347656 102.699219 55.945312 104.726562 52.257812 106.390625 C 51.808594 106.597656 52.128906 107.371094 52.597656 107.199219 C 56.511719 105.757812 59.800781 103.246094 62.570312 100.164062 C 62.765625 99.945312 62.453125 99.628906 62.242188 99.835938 " fill-opacity="1" fill-rule="nonzero"/><path fill="#a9a0f0" d="M 147.558594 42.539062 C 153.707031 40.867188 159.589844 41.191406 165.757812 42.492188 C 166.351562 42.617188 166.585938 41.773438 166.007812 41.585938 C 160.015625 39.617188 153.351562 40.144531 147.445312 42.117188 C 147.183594 42.207031 147.285156 42.613281 147.558594 42.539062 " fill-opacity="1" fill-rule="nonzero"/><path fill="#a9a0f0" d="M 206.296875 66.316406 C 208.691406 69.054688 210.949219 71.859375 212.953125 74.902344 C 213.214844 75.296875 213.824219 74.949219 213.589844 74.53125 C 211.785156 71.308594 209.507812 68.332031 206.722656 65.886719 C 206.429688 65.628906 206.035156 66.023438 206.296875 66.316406 " fill-opacity="1" fill-rule="nonzero"/><path fill="#a9a0f0" d="M 216.953125 78.238281 C 218.363281 80.414062 220.035156 82.296875 222.066406 83.914062 C 222.417969 84.195312 222.921875 83.707031 222.566406 83.414062 C 220.636719 81.824219 218.867188 80.003906 217.378906 77.992188 C 217.191406 77.742188 216.777344 77.96875 216.953125 78.238281 " fill-opacity="1" fill-rule="nonzero"/><path fill="#a9a0f0" d="M 165.414062 69.589844 C 167.230469 70.863281 169.246094 71.617188 171.441406 71.90625 C 172.011719 71.984375 172.03125 71.042969 171.441406 70.996094 C 169.371094 70.832031 167.464844 70.1875 165.707031 69.089844 C 165.386719 68.890625 165.113281 69.378906 165.414062 69.589844 " fill-opacity="1" fill-rule="nonzero"/><path fill="#a9a0f0" d="M 148.898438 65.457031 C 143.113281 64.710938 137.125 64.664062 131.425781 66.039062 C 130.753906 66.199219 131.050781 67.164062 131.707031 67.054688 C 137.445312 66.105469 143.078125 65.527344 148.898438 66.035156 C 149.273438 66.066406 149.257812 65.503906 148.898438 65.457031 " fill-opacity="1" fill-rule="nonzero"/><path fill="#a9a0f0" d="M 121.113281 73.300781 C 119.871094 74.320312 118.601562 75.308594 117.410156 76.386719 C 116.933594 76.816406 117.617188 77.449219 118.09375 77.074219 C 119.359375 76.085938 120.550781 75.003906 121.765625 73.953125 C 122.222656 73.5625 121.566406 72.925781 121.113281 73.300781 " fill-opacity="1" fill-rule="nonzero"/><path fill="#a9a0f0" d="M 123.136719 113.914062 C 124.386719 115.25 125.109375 116.769531 125.640625 118.5 C 125.792969 119 126.539062 118.792969 126.421875 118.285156 C 125.988281 116.445312 124.882812 114.8125 123.515625 113.535156 C 123.265625 113.300781 122.902344 113.664062 123.136719 113.914062 " fill-opacity="1" fill-rule="nonzero"/><path fill="#a9a0f0" d="M 156.296875 64.476562 C 159.679688 65.371094 164.433594 63.574219 167.542969 62.324219 C 168.039062 62.125 167.84375 61.316406 167.316406 61.5 C 165.394531 62.175781 163.4375 62.78125 161.449219 63.226562 C 159.734375 63.605469 157.882812 63.609375 156.273438 64.316406 C 156.203125 64.347656 156.230469 64.457031 156.296875 64.476562 " fill-opacity="1" fill-rule="nonzero"/><path fill="#a9a0f0" d="M 214.359375 110.359375 C 214.128906 112.339844 214.375 114.308594 215.191406 116.132812 C 215.421875 116.644531 216.15625 116.199219 215.941406 115.695312 C 215.207031 113.976562 214.832031 112.230469 214.925781 110.359375 C 214.941406 109.988281 214.402344 110.007812 214.359375 110.359375 " fill-opacity="1" fill-rule="nonzero"/><path fill="#a9a0f0" d="M 257.851562 117.753906 C 262.195312 124.308594 262.824219 131.792969 259.539062 138.941406 C 259.28125 139.496094 260.054688 139.980469 260.375 139.429688 C 264.261719 132.734375 263.3125 123.289062 258.136719 117.535156 C 258 117.382812 257.738281 117.582031 257.851562 117.753906 " fill-opacity="1" fill-rule="nonzero"/><path fill="#a9a0f0" d="M 228.105469 93.84375 C 235.90625 98.078125 245.375 97.355469 252.359375 103.460938 C 253.085938 104.09375 254.09375 103.105469 253.425781 102.394531 C 250.425781 99.195312 246.34375 97.640625 242.167969 96.617188 C 237.546875 95.488281 232.914062 94.582031 228.320312 93.328125 C 228.019531 93.246094 227.820312 93.6875 228.105469 93.84375 " fill-opacity="1" fill-rule="nonzero"/><path fill="#a9a0f0" d="M 212.257812 86.371094 C 209.871094 88.507812 207.109375 89.933594 204.496094 91.71875 C 203.839844 92.167969 204.398438 93.085938 205.109375 92.769531 C 208.023438 91.472656 210.453125 89.003906 212.582031 86.699219 C 212.785156 86.480469 212.480469 86.171875 212.257812 86.371094 " fill-opacity="1" fill-rule="nonzero"/><path fill="#a9a0f0" d="M 199.902344 145.996094 C 202.28125 145.617188 204.582031 144.890625 206.804688 143.964844 C 207.003906 143.882812 206.890625 143.601562 206.6875 143.6875 C 204.460938 144.632812 202.171875 145.203125 199.78125 145.566406 C 199.5 145.609375 199.621094 146.042969 199.902344 145.996094 " fill-opacity="1" fill-rule="nonzero"/><path fill="#a9a0f0" d="M 217.085938 141.066406 C 219.25 140.300781 221.421875 139.554688 223.558594 138.722656 C 224.066406 138.523438 223.867188 137.707031 223.328125 137.886719 C 221.148438 138.605469 219 139.40625 216.84375 140.1875 C 216.296875 140.386719 216.53125 141.261719 217.085938 141.066406 " fill-opacity="1" fill-rule="nonzero"/><path fill="#a9a0f0" d="M 231.238281 135.378906 C 236.644531 133.324219 241.296875 130.027344 244.910156 125.503906 C 245.105469 125.261719 244.765625 124.910156 244.5625 125.15625 C 240.953125 129.523438 236.40625 132.925781 231.140625 135.015625 C 230.917969 135.105469 231.011719 135.464844 231.238281 135.378906 " fill-opacity="1" fill-rule="nonzero"/><path fill="#a9a0f0" d="M 85.375 143.015625 C 87.265625 143.339844 89.140625 143.625 91.050781 143.8125 C 91.53125 143.859375 91.652344 143.035156 91.167969 142.960938 C 89.269531 142.664062 87.386719 142.464844 85.46875 142.304688 C 85.066406 142.269531 84.972656 142.945312 85.375 143.015625 " fill-opacity="1" fill-rule="nonzero"/><path fill="#a9a0f0" d="M 100.820312 144.578125 C 111.953125 147.847656 122.871094 150.128906 134.554688 149.421875 C 135.09375 149.390625 135.09375 148.621094 134.554688 148.585938 C 128.6875 148.195312 122.828125 148.375 116.984375 147.535156 C 111.566406 146.757812 106.253906 145.457031 100.949219 144.117188 C 100.652344 144.042969 100.527344 144.492188 100.820312 144.578125 " fill-opacity="1" fill-rule="nonzero"/><path fill="#a9a0f0" d="M 45.863281 115.140625 C 46.042969 113.527344 46.164062 111.933594 46.675781 110.382812 C 47.199219 108.800781 48.152344 107.59375 48.917969 106.152344 C 49.191406 105.640625 48.5625 105.179688 48.132812 105.546875 C 45.683594 107.660156 44.625 112.140625 45.523438 115.1875 C 45.578125 115.386719 45.839844 115.328125 45.863281 115.140625 " fill-opacity="1" fill-rule="nonzero"/><path fill="#a9a0f0" d="M 150.484375 134.34375 C 148.328125 134.289062 145.929688 135.9375 144.320312 137.234375 C 144.019531 137.476562 144.410156 137.972656 144.734375 137.765625 C 145.675781 137.175781 146.621094 136.613281 147.621094 136.125 C 148.597656 135.648438 149.691406 135.328125 150.574219 134.683594 C 150.714844 134.578125 150.675781 134.347656 150.484375 134.34375 " fill-opacity="1" fill-rule="nonzero"/><path fill="#a9a0f0" d="M 142.175781 138.191406 C 141.699219 138.785156 141.023438 139.121094 140.273438 139.222656 C 139.695312 139.300781 139.648438 140.167969 140.273438 140.164062 C 141.316406 140.15625 142.234375 139.515625 142.699219 138.597656 C 142.859375 138.28125 142.425781 137.882812 142.175781 138.191406 " fill-opacity="1" fill-rule="nonzero"/><path fill="#a9a0f0" d="M 105.710938 84.246094 C 103.125 84.496094 100.371094 84.921875 98.105469 86.277344 C 97.667969 86.539062 97.953125 87.253906 98.457031 87.109375 C 100.929688 86.410156 103.269531 85.304688 105.765625 84.640625 C 105.980469 84.585938 105.945312 84.21875 105.710938 84.246094 " fill-opacity="1" fill-rule="nonzero"/><path fill="#a9a0f0" d="M 95.367188 87.585938 C 94.515625 88.148438 93.664062 88.707031 92.847656 89.324219 C 92.359375 89.691406 92.894531 90.398438 93.367188 89.992188 C 94.148438 89.328125 94.878906 88.617188 95.613281 87.90625 C 95.777344 87.75 95.5625 87.460938 95.367188 87.585938 " fill-opacity="1" fill-rule="nonzero"/><path fill="#a9a0f0" d="M 61.839844 122.273438 C 63.359375 122.867188 64.871094 123.484375 66.433594 123.957031 C 66.960938 124.117188 67.175781 123.3125 66.660156 123.136719 C 65.121094 122.605469 63.539062 122.222656 61.964844 121.8125 C 61.664062 121.734375 61.558594 122.164062 61.839844 122.273438 " fill-opacity="1" fill-rule="nonzero"/><path fill="#a9a0f0" d="M 69.476562 126.140625 C 69.828125 126.742188 70.285156 127.28125 70.65625 127.871094 C 71.027344 128.46875 71.347656 129.097656 71.679688 129.71875 C 71.910156 130.148438 72.679688 129.847656 72.488281 129.378906 C 71.945312 128.066406 71.019531 126.601562 69.8125 125.800781 C 69.605469 125.664062 69.359375 125.933594 69.476562 126.140625 " fill-opacity="1" fill-rule="nonzero"/><path fill="#a9a0f0" d="M 118.5625 44.265625 C 116.84375 44.53125 115.152344 45.828125 114.089844 47.144531 C 113.765625 47.546875 114.261719 48.066406 114.664062 47.71875 C 115.316406 47.144531 115.992188 46.585938 116.695312 46.078125 C 117.363281 45.597656 118.113281 45.257812 118.777344 44.78125 C 119.042969 44.589844 118.878906 44.21875 118.5625 44.265625 " fill-opacity="1" fill-rule="nonzero"/><path fill="#a9a0f0" d="M 182.96875 54.300781 C 181.789062 55.21875 181.109375 57.207031 181.371094 58.664062 C 181.460938 59.183594 182.34375 59.191406 182.429688 58.664062 C 182.542969 57.957031 182.539062 57.253906 182.742188 56.558594 C 182.9375 55.886719 183.277344 55.277344 183.539062 54.628906 C 183.679688 54.273438 183.199219 54.121094 182.96875 54.300781 " fill-opacity="1" fill-rule="nonzero"/><path fill="#a9a0f0" d="M 184.105469 60.664062 C 184.265625 60.855469 184.425781 61.042969 184.585938 61.234375 C 184.769531 61.453125 184.929688 61.671875 185.230469 61.722656 C 185.496094 61.769531 185.875 61.601562 185.835938 61.265625 C 185.8125 61.09375 185.78125 60.9375 185.675781 60.796875 C 185.59375 60.6875 185.476562 60.59375 185.375 60.503906 C 185.183594 60.324219 184.992188 60.144531 184.800781 59.96875 C 184.332031 59.53125 183.703125 60.183594 184.105469 60.664062 " fill-opacity="1" fill-rule="nonzero"/><path fill="#a9a0f0" d="M 225.996094 105.5 C 224.632812 105.714844 223.378906 106.671875 223.042969 108.039062 C 222.921875 108.535156 223.628906 108.867188 223.890625 108.394531 C 224.453125 107.378906 225.144531 106.523438 226.222656 106.042969 C 226.554688 105.894531 226.296875 105.449219 225.996094 105.5 " fill-opacity="1" fill-rule="nonzero"/><path fill="#a9a0f0" d="M 48.292969 156.933594 C 51.265625 166.523438 54.441406 176.070312 57.550781 185.617188 C 62.628906 201.210938 68.519531 216.582031 74.140625 231.988281 C 75.589844 235.96875 76.769531 240.535156 78.945312 244.207031 C 79.816406 245.679688 82.117188 244.339844 81.242188 242.863281 C 79.617188 240.117188 78.546875 236.199219 77.316406 232.992188 C 74.664062 226.078125 72.09375 219.132812 69.523438 212.1875 C 66.496094 204.003906 63.746094 195.726562 60.671875 187.558594 C 58.070312 180.65625 55.296875 173.816406 52.636719 166.933594 C 51.332031 163.5625 50.078125 160.167969 48.738281 156.808594 C 48.628906 156.539062 48.203125 156.640625 48.292969 156.933594 " fill-opacity="1" fill-rule="nonzero"/><path fill="#a9a0f0" d="M 253.933594 152.105469 C 250.246094 158.210938 248.011719 165.378906 245.421875 171.992188 C 239.714844 186.550781 234.53125 201.335938 229.828125 216.25 C 227.097656 224.90625 224.527344 233.621094 222.347656 242.4375 C 221.863281 244.386719 224.875 245.21875 225.359375 243.265625 C 232.394531 214.832031 242.871094 187.410156 252.300781 159.722656 C 253.136719 157.273438 253.976562 154.882812 254.515625 152.351562 C 254.589844 152.003906 254.128906 151.789062 253.933594 152.105469 " fill-opacity="1" fill-rule="nonzero"/><path fill="#a9a0f0" d="M 56.164062 167.488281 C 59.058594 176.613281 62.15625 185.683594 65.167969 194.769531 C 70.121094 209.722656 75.921875 224.4375 81.386719 239.210938 C 82.828125 243.09375 84.035156 247.367188 86.050781 251.007812 C 86.878906 252.507812 89.179688 251.164062 88.347656 249.664062 C 86.894531 247.039062 85.773438 243.289062 84.574219 240.214844 C 81.980469 233.554688 79.453125 226.867188 76.925781 220.179688 C 74.007812 212.453125 71.359375 204.628906 68.378906 196.917969 C 65.8125 190.269531 63.078125 183.6875 60.449219 177.066406 C 59.164062 173.832031 57.925781 170.582031 56.609375 167.363281 C 56.5 167.097656 56.070312 167.195312 56.164062 167.488281 " fill-opacity="1" fill-rule="nonzero"/><path fill="#a9a0f0" d="M 242.835938 160.894531 C 239.417969 167.113281 237.5 174.328125 235.183594 181.007812 C 230.164062 195.460938 225.613281 210.097656 221.4375 224.816406 C 219.046875 233.230469 216.773438 241.679688 214.8125 250.207031 C 214.363281 252.164062 217.375 253 217.824219 251.035156 C 224.253906 223.074219 233.527344 195.886719 241.59375 168.382812 C 242.300781 165.96875 243.011719 163.621094 243.414062 161.136719 C 243.46875 160.804688 243.023438 160.550781 242.835938 160.894531 " fill-opacity="1" fill-rule="nonzero"/><path fill="#a9a0f0" d="M 71.277344 168.472656 C 73.699219 178.105469 76.3125 187.703125 78.871094 197.296875 C 83.027344 212.863281 87.976562 228.25 92.605469 243.683594 C 93.832031 247.769531 94.8125 252.171875 96.617188 256.058594 C 97.339844 257.609375 99.632812 256.257812 98.914062 254.714844 C 99.082031 255.078125 98.695312 254.101562 98.59375 253.800781 C 98.347656 253.089844 98.121094 252.375 97.890625 251.65625 C 97.152344 249.347656 96.421875 247.035156 95.683594 244.722656 C 93.484375 237.796875 91.34375 230.851562 89.203125 223.90625 C 86.683594 215.71875 84.4375 207.453125 81.855469 199.28125 C 79.671875 192.371094 77.3125 185.515625 75.0625 178.625 C 73.945312 175.203125 72.875 171.761719 71.722656 168.351562 C 71.628906 168.070312 71.203125 168.183594 71.277344 168.472656 " fill-opacity="1" fill-rule="nonzero"/><path fill="#a9a0f0" d="M 231 163.839844 C 227.820312 170.015625 226.132812 177.109375 224.050781 183.707031 C 219.460938 198.265625 215.367188 212.996094 211.679688 227.8125 C 209.496094 236.589844 207.449219 245.40625 205.726562 254.289062 C 205.347656 256.25 208.359375 257.09375 208.742188 255.117188 C 214.234375 226.777344 222.632812 199.136719 229.988281 171.253906 C 230.617188 168.863281 231.246094 166.535156 231.582031 164.082031 C 231.625 163.757812 231.179688 163.484375 231 163.839844 " fill-opacity="1" fill-rule="nonzero"/><path fill="#a9a0f0" d="M 86.78125 175.164062 C 88.910156 184.617188 91.164062 194.070312 93.476562 203.480469 C 97.179688 218.570312 101.515625 233.511719 105.4375 248.546875 C 106.335938 251.988281 107.28125 255.417969 108.207031 258.851562 C 108.652344 260.503906 111.222656 259.804688 110.773438 258.144531 C 108.25 248.789062 105.65625 239.449219 103.0625 230.109375 C 100.824219 222.042969 98.863281 213.910156 96.539062 205.867188 C 94.542969 198.976562 92.375 192.132812 90.300781 185.261719 C 89.273438 181.859375 88.296875 178.433594 87.226562 175.042969 C 87.136719 174.757812 86.714844 174.875 86.78125 175.164062 " fill-opacity="1" fill-rule="nonzero"/><path fill="#a9a0f0" d="M 213.941406 170.179688 C 211.339844 176.207031 210.234375 183.003906 208.703125 189.359375 C 205.3125 203.402344 202.347656 217.5625 199.636719 231.757812 C 198.03125 240.148438 196.511719 248.5625 195.199219 257.007812 C 194.894531 258.972656 197.90625 259.824219 198.214844 257.839844 C 202.417969 230.78125 208.601562 204.101562 213.574219 177.1875 C 213.996094 174.894531 214.421875 172.671875 214.535156 170.34375 C 214.550781 170.042969 214.066406 169.886719 213.941406 170.179688 " fill-opacity="1" fill-rule="nonzero"/><path fill="#a9a0f0" d="M 101.824219 172.863281 C 103.371094 182.71875 105.042969 192.578125 106.78125 202.398438 C 109.550781 218.023438 112.929688 233.539062 115.90625 249.125 C 116.585938 252.695312 117.316406 256.253906 118.027344 259.820312 C 118.359375 261.5 120.925781 260.789062 120.589844 259.113281 C 118.648438 249.351562 116.628906 239.609375 114.617188 229.859375 C 112.894531 221.527344 111.453125 213.144531 109.644531 204.828125 C 108.082031 197.652344 106.339844 190.511719 104.699219 183.355469 C 103.886719 179.816406 103.125 176.269531 102.273438 172.742188 C 102.199219 172.445312 101.78125 172.578125 101.824219 172.863281 " fill-opacity="1" fill-rule="nonzero"/><path fill="#a9a0f0" d="M 197.234375 174.179688 C 195.050781 180.246094 194.433594 187.019531 193.324219 193.339844 C 190.875 207.285156 188.816406 221.308594 186.894531 235.335938 C 185.792969 243.335938 184.738281 251.339844 183.804688 259.359375 C 183.574219 261.355469 186.699219 261.335938 186.929688 259.359375 C 189.980469 233.160156 194.363281 207.128906 197.390625 180.929688 C 197.648438 178.691406 197.917969 176.519531 197.855469 174.265625 C 197.847656 173.894531 197.351562 173.847656 197.234375 174.179688 " fill-opacity="1" fill-rule="nonzero"/><path fill="#a9a0f0" d="M 119 176.292969 C 119.632812 185.558594 120.457031 194.820312 121.210938 204.078125 C 122.449219 219.222656 124.527344 234.320312 126.191406 249.421875 C 126.636719 253.453125 126.914062 257.585938 127.703125 261.574219 C 128.039062 263.253906 130.601562 262.542969 130.273438 260.867188 C 129.707031 258.023438 129.429688 254.285156 129.019531 251.0625 C 128.152344 244.253906 127.328125 237.441406 126.5 230.625 C 125.527344 222.601562 124.824219 214.554688 123.777344 206.535156 C 122.890625 199.765625 121.824219 193.019531 120.863281 186.261719 C 120.390625 182.917969 119.964844 179.566406 119.453125 176.230469 C 119.414062 175.972656 118.980469 176.035156 119 176.292969 " fill-opacity="1" fill-rule="nonzero"/><path fill="#a9a0f0" d="M 183.613281 175.539062 C 181.511719 181.59375 181.003906 188.355469 180 194.652344 C 177.816406 208.371094 176.050781 222.164062 174.480469 235.964844 C 173.566406 244.011719 172.71875 252.070312 172.046875 260.144531 C 171.878906 262.148438 175.003906 262.136719 175.167969 260.144531 C 177.335938 234.136719 181.246094 208.328125 183.859375 182.371094 C 184.085938 180.101562 184.332031 177.902344 184.238281 175.625 C 184.222656 175.257812 183.730469 175.199219 183.613281 175.539062 " fill-opacity="1" fill-rule="nonzero"/><path fill="#a9a0f0" d="M 131.214844 175.886719 C 131.746094 185.140625 132.476562 194.390625 133.109375 203.636719 C 134.148438 218.816406 136.0625 233.957031 137.472656 249.105469 C 137.851562 253.148438 138.242188 257.183594 138.683594 261.21875 C 138.867188 262.902344 141.53125 262.921875 141.34375 261.21875 C 140.230469 251.039062 139.199219 240.847656 138.101562 230.664062 C 137.226562 222.554688 136.621094 214.425781 135.664062 206.320312 C 134.851562 199.476562 133.851562 192.652344 132.960938 185.816406 C 132.527344 182.488281 132.144531 179.148438 131.667969 175.824219 C 131.632812 175.570312 131.199219 175.628906 131.214844 175.886719 " fill-opacity="1" fill-rule="nonzero"/><path fill="#a9a0f0" d="M 165.789062 176.898438 C 164.269531 182.796875 164.304688 189.222656 163.820312 195.265625 C 162.742188 208.792969 161.984375 222.351562 161.277344 235.90625 C 160.855469 243.984375 160.445312 252.0625 160.085938 260.144531 C 159.996094 262.15625 163.121094 262.148438 163.210938 260.144531 C 164.347656 234.609375 166.207031 209.0625 166.621094 183.5 C 166.652344 181.300781 166.699219 179.167969 166.414062 176.984375 C 166.371094 176.65625 165.886719 176.519531 165.789062 176.898438 " fill-opacity="1" fill-rule="nonzero"/><path fill="#a9a0f0" d="M 147.574219 175.929688 C 147.160156 178.664062 147.207031 181.390625 147.210938 184.152344 C 147.222656 190.839844 147.351562 197.535156 147.542969 204.21875 C 147.972656 219.339844 148.484375 234.460938 149.027344 249.578125 C 149.152344 253.101562 149.277344 256.621094 149.40625 260.144531 C 149.480469 262.148438 152.605469 262.160156 152.53125 260.144531 C 152.179688 250.597656 151.816406 241.050781 151.460938 231.503906 C 150.894531 216.414062 150.179688 201.335938 149.285156 186.261719 C 149.082031 182.8125 148.96875 179.308594 148.191406 175.929688 C 148.125 175.640625 147.625 175.613281 147.574219 175.929688 " fill-opacity="1" fill-rule="nonzero"/><g clip-path="url(#2c2c29b221)"><path fill="#a9a0f0" d="M 76.765625 237.195312 C 78.808594 241.867188 78.890625 247.921875 83.867188 250.8125 C 84.734375 251.3125 85.714844 251.5625 86.5 252.210938 C 87.148438 252.75 87.601562 253.484375 88.261719 254.023438 C 89.554688 255.082031 91.1875 255.589844 92.792969 255.957031 C 94.578125 256.367188 96.011719 256.511719 97.503906 257.617188 C 98.789062 258.578125 100.222656 259.273438 101.722656 259.832031 C 103.300781 260.421875 104.949219 260.796875 106.609375 261.054688 C 107.355469 261.171875 108.222656 261.152344 108.941406 261.355469 C 109.734375 261.578125 110.46875 262.105469 111.261719 262.371094 C 114.207031 263.363281 117.242188 262.417969 120.117188 263.171875 C 123.457031 264.042969 126.671875 262.71875 129.949219 263.195312 C 133.652344 263.734375 137.523438 263.867188 141.089844 262.574219 C 140.683594 262.519531 140.28125 262.464844 139.878906 262.414062 C 142.617188 263.859375 146.355469 263.640625 149.332031 263.339844 C 152.203125 263.050781 155.171875 264.167969 158 263.28125 C 158.746094 263.046875 159.417969 262.632812 160.160156 262.382812 C 161.730469 261.851562 163.132812 262.867188 164.710938 263.128906 C 167.929688 263.664062 171.101562 262.800781 173.75 260.949219 C 173.238281 260.949219 172.722656 260.949219 172.207031 260.949219 C 176.828125 263.726562 182.351562 263.566406 186.609375 260.273438 C 186 260.351562 185.390625 260.441406 184.78125 260.519531 C 187.035156 261.570312 189.347656 261.742188 191.792969 261.335938 C 194.1875 260.941406 196.640625 259.28125 198.996094 259.238281 C 201.371094 259.191406 202.921875 259.863281 204.988281 258.269531 C 206.089844 257.421875 206.902344 256.355469 208.402344 256.316406 C 209.753906 256.28125 210.972656 256.605469 212.339844 256.320312 C 213.433594 256.089844 214.453125 255.628906 215.308594 254.914062 C 216.25 254.128906 216.453125 252.90625 217.289062 252.15625 C 217.910156 251.597656 218.890625 251.558594 219.671875 251.082031 C 220.40625 250.636719 221.039062 250.011719 221.597656 249.367188 C 224.046875 246.554688 226.183594 242.390625 226.222656 238.597656 C 226.238281 237.449219 224.414062 237.148438 224.175781 238.320312 C 223.542969 241.503906 221.558594 245.121094 219.386719 247.507812 C 218.925781 248.015625 218.410156 248.574219 217.75 248.816406 C 216.9375 249.113281 216.125 249.019531 215.402344 249.589844 C 214.574219 250.238281 214.558594 251.148438 214.054688 251.984375 C 213.183594 253.421875 211.382812 253.613281 209.871094 253.507812 C 207.925781 253.371094 206.386719 253.394531 204.769531 254.605469 C 203.96875 255.203125 203.285156 256.101562 202.308594 256.40625 C 201.332031 256.710938 200.3125 256.363281 199.308594 256.289062 C 197.304688 256.144531 195.816406 257.117188 193.960938 257.71875 C 191.523438 258.507812 188.726562 259.058594 186.304688 257.925781 C 185.855469 257.714844 185.222656 257.585938 184.78125 257.925781 C 181.484375 260.460938 177.289062 260.378906 173.75 258.355469 C 173.304688 258.101562 172.648438 258.046875 172.207031 258.355469 C 171.042969 259.179688 169.78125 259.835938 168.363281 260.109375 C 167.316406 260.3125 166.214844 260.320312 165.164062 260.125 C 163.945312 259.898438 162.828125 259.0625 161.617188 258.984375 C 159.710938 258.871094 158.21875 260.203125 156.429688 260.480469 C 154.804688 260.730469 153.269531 260.121094 151.679688 260.007812 C 149.90625 259.882812 148.039062 260.363281 146.234375 260.363281 C 144.53125 260.363281 143.078125 260.097656 141.464844 259.695312 C 139.808594 259.28125 137.949219 260.269531 136.207031 260.378906 C 134.003906 260.519531 131.78125 260.316406 129.613281 259.941406 C 127.621094 259.59375 126.070312 260.25 124.0625 260.328125 C 122.265625 260.394531 120.75 259.691406 119.050781 259.605469 C 117.179688 259.511719 115.328125 259.980469 113.453125 259.644531 C 111.609375 259.316406 110.191406 258.328125 108.3125 258.101562 C 106.257812 257.855469 104.175781 257.433594 102.246094 256.664062 C 100.527344 255.980469 99.3125 254.597656 97.699219 253.867188 C 95.808594 253.007812 93.550781 253.144531 91.609375 252.375 C 89.667969 251.597656 88.527344 249.707031 86.605469 248.808594 C 84.34375 247.75 83.007812 246.242188 81.785156 244.058594 C 80.394531 241.570312 79.921875 238.644531 78.613281 236.113281 C 77.96875 234.863281 76.226562 235.960938 76.765625 237.195312 " fill-opacity="1" fill-rule="nonzero"/></g><path fill="#a9a0f0" d="M 109.777344 46.710938 C 105.75 48.644531 102.515625 51.332031 99.738281 54.816406 C 97.097656 58.136719 94.34375 60.890625 91.027344 63.546875 C 87.039062 66.746094 82.972656 69.847656 78.988281 73.050781 C 75.425781 75.921875 71.667969 78.785156 68.652344 82.246094 C 65.570312 85.777344 63.003906 89.726562 59.890625 93.230469 C 56.773438 96.734375 52.78125 99.175781 48.953125 101.820312 C 41.710938 106.820312 35.863281 112.773438 33.539062 121.476562 C 31.535156 128.972656 30.140625 139.515625 35.039062 146.179688 C 40.523438 153.632812 46.796875 159.867188 55.28125 163.792969 C 63.894531 167.78125 73.265625 169.40625 82.519531 171.183594 C 92.820312 173.160156 103.132812 175.09375 113.542969 176.429688 C 134.722656 179.140625 155.945312 178.375 177.199219 177.046875 C 186.234375 176.480469 195.445312 176.289062 204.371094 174.6875 C 208.019531 174.03125 211.570312 173.28125 215.066406 172.023438 C 220.421875 170.09375 225.546875 168.011719 231.09375 166.664062 C 240.863281 164.289062 249.925781 159.394531 257.386719 152.667969 C 264.316406 146.425781 269.84375 138.460938 268.558594 128.726562 C 267.34375 119.503906 262.875 111.433594 256.8125 104.535156 C 253.449219 100.707031 249.640625 97.28125 245.507812 94.300781 C 241.117188 91.136719 236.421875 88.570312 232.433594 84.863281 C 224.71875 77.699219 219.054688 68.789062 211.558594 61.445312 C 208.347656 58.296875 205.007812 54.941406 200.71875 53.363281 C 196.695312 51.882812 192.355469 51.484375 188.292969 50.105469 C 184.007812 48.65625 180.714844 45.425781 177.230469 42.683594 C 173.710938 39.914062 170.074219 38.238281 165.679688 37.359375 C 160.070312 36.238281 154.363281 35.855469 148.652344 36.164062 C 143.371094 36.449219 138.234375 38.21875 132.9375 38 C 128.90625 37.835938 125.800781 38.355469 123.289062 41.78125 C 122.035156 43.492188 124.902344 45.15625 126.136719 43.445312 C 128.71875 39.867188 134.164062 41.492188 137.96875 40.953125 C 143.355469 40.1875 148.445312 39.230469 153.925781 39.355469 C 159.0625 39.46875 164.890625 39.722656 169.714844 41.660156 C 173.597656 43.21875 176.582031 46.261719 179.839844 48.773438 C 183.015625 51.21875 186.261719 52.886719 190.140625 53.894531 C 193.914062 54.871094 198.09375 55.488281 201.472656 57.550781 C 205.515625 60.019531 209.125 64.03125 212.300781 67.5 C 215.476562 70.96875 218.203125 74.785156 221.234375 78.363281 C 224.398438 82.09375 227.757812 85.707031 231.453125 88.921875 C 235.128906 92.117188 239.414062 94.378906 243.40625 97.132812 C 251.0625 102.425781 258.667969 109.84375 262.300781 118.558594 C 263.988281 122.613281 264.96875 126.890625 265.105469 131.28125 C 265.25 135.964844 263.523438 140.179688 260.765625 143.90625 C 254.976562 151.730469 246.121094 157.824219 237.117188 161.335938 C 232.535156 163.121094 227.695312 163.984375 223.054688 165.574219 C 218.59375 167.105469 214.21875 168.980469 209.625 170.097656 C 202.398438 171.863281 195.285156 172.335938 187.882812 172.773438 C 167.550781 173.976562 147.152344 175.675781 126.789062 174.277344 C 117.15625 173.613281 107.597656 172.273438 98.085938 170.648438 C 88.515625 169.015625 78.8125 167.503906 69.414062 165.054688 C 61.230469 162.921875 53.132812 159.824219 46.695312 154.179688 C 43.304688 151.199219 40.179688 147.566406 37.574219 143.878906 C 35.164062 140.46875 35.097656 136.074219 35.269531 132.039062 C 35.644531 123.210938 38.242188 114.863281 45.070312 108.917969 C 48.332031 106.074219 52.101562 103.898438 55.65625 101.460938 C 59.160156 99.058594 62.035156 96.472656 64.691406 93.15625 C 67.390625 89.78125 69.816406 86.097656 72.933594 83.085938 C 76.03125 80.085938 79.519531 77.445312 82.910156 74.792969 C 89.71875 69.464844 96.914062 64.601562 102.328125 57.796875 C 104.984375 54.457031 107.828125 51.882812 111.691406 49.984375 C 113.886719 48.902344 111.964844 45.664062 109.777344 46.710938 " fill-opacity="1" fill-rule="nonzero"/><path fill="#a9a0f0" d="M 101.5625 96.960938 C 100.300781 97.230469 99.539062 97.757812 98.371094 98.167969 C 97.480469 98.480469 96.378906 98.386719 95.445312 98.269531 C 93.042969 97.964844 91.285156 96.84375 90.53125 94.472656 C 89.679688 91.789062 90.09375 89.636719 92.242188 87.730469 C 94.023438 86.152344 96.246094 85.050781 98.460938 84.226562 C 100.453125 83.484375 102.53125 82.9375 104.621094 82.535156 C 105.109375 82.441406 105.667969 82.277344 106.164062 82.265625 C 106.773438 82.246094 106.519531 82.148438 107.089844 82.472656 C 107.617188 82.769531 108.269531 83.554688 108.421875 84.136719 C 109.015625 86.382812 107.066406 89.371094 106.160156 91.289062 C 104.988281 93.773438 104.511719 96.144531 101.5625 96.960938 C 99.304688 97.582031 100.273438 101.128906 102.53125 100.472656 C 106.597656 99.296875 107.582031 96.617188 109.136719 93.03125 C 110.417969 90.066406 112.34375 86.757812 111.6875 83.378906 C 111.316406 81.492188 109.011719 79.066406 107.019531 78.914062 C 104.054688 78.691406 100.320312 80.132812 97.621094 81.191406 C 91.902344 83.433594 85.324219 87.800781 87.738281 94.855469 C 88.609375 97.398438 90.296875 99.328125 92.945312 100.050781 C 94.351562 100.4375 95.761719 100.371094 97.199219 100.34375 C 99.113281 100.304688 100.59375 100.890625 102.53125 100.472656 C 104.828125 99.984375 103.855469 96.472656 101.5625 96.960938 " fill-opacity="1" fill-rule="nonzero"/><path fill="#a9a0f0" d="M 179.761719 57.152344 C 179.734375 56.441406 179.851562 55.726562 179.832031 55.023438 C 179.824219 54.730469 179.625 53.945312 179.644531 53.714844 C 179.742188 52.757812 180.621094 52.632812 181.445312 52.65625 C 182.914062 52.695312 184.546875 53.164062 185.992188 53.445312 C 188.332031 53.898438 189.707031 56.445312 191.808594 57.628906 C 193.683594 58.683594 195.851562 59.296875 197.582031 60.59375 C 199.042969 61.6875 201.167969 64.546875 198.890625 65.902344 C 196.863281 67.105469 193.183594 66.285156 191.105469 65.6875 C 188.714844 65.003906 186.65625 63.558594 184.277344 62.863281 C 183.035156 62.5 181.363281 62.570312 180.625 61.304688 C 179.984375 60.203125 179.894531 58.367188 179.761719 57.152344 C 179.515625 54.863281 175.890625 54.839844 176.144531 57.152344 C 176.511719 60.484375 176.953125 64.347656 180.550781 65.644531 C 182.53125 66.359375 184.425781 66.730469 186.359375 67.644531 C 187.964844 68.40625 189.601562 69.058594 191.34375 69.4375 C 194.464844 70.113281 198.917969 70.601562 201.5625 68.359375 C 203.859375 66.414062 203.824219 63.289062 202.417969 60.816406 C 200.738281 57.867188 197.871094 56.773438 194.898438 55.519531 C 192.964844 54.703125 191.671875 53.707031 190.1875 52.257812 C 189.0625 51.160156 187.921875 50.800781 186.371094 50.679688 C 184.292969 50.511719 181.441406 49.667969 179.515625 50.78125 C 178.628906 51.292969 178.347656 52.179688 177.671875 52.828125 C 177.140625 53.339844 176.75 53.402344 176.421875 54.136719 C 176.023438 55.019531 176.113281 56.222656 176.144531 57.152344 C 176.234375 59.472656 179.851562 59.484375 179.761719 57.152344 " fill-opacity="1" fill-rule="nonzero"/><path fill="#a9a0f0" d="M 110.199219 48.644531 C 113.527344 51.089844 117.914062 53.59375 122.179688 52.199219 C 125.609375 51.082031 128.449219 47.566406 127.300781 43.847656 C 126.269531 40.503906 122.542969 38.945312 119.277344 39.269531 C 114.984375 39.691406 111.601562 43.300781 109.300781 46.664062 C 108.199219 48.28125 110.683594 50.175781 112.007812 48.75 C 113.914062 46.6875 115.621094 44.085938 118.371094 43.054688 C 120.199219 42.371094 123.148438 42.660156 123.996094 44.710938 C 125.160156 47.511719 121.449219 49.667969 119.160156 49.832031 C 116.207031 50.039062 113.335938 48.613281 110.65625 47.558594 C 109.984375 47.296875 109.703125 48.277344 110.199219 48.644531 " fill-opacity="1" fill-rule="nonzero"/><path fill="#a9a0f0" d="M 235.046875 107.34375 C 235.800781 108.027344 236.710938 108.84375 236.980469 109.863281 C 237.382812 111.402344 236.285156 112.863281 235.21875 113.820312 C 233.796875 115.089844 231.988281 115.914062 230.101562 116.191406 C 226.289062 116.753906 222.171875 115.128906 220.984375 111.226562 C 219.957031 107.839844 221.367188 103.339844 225.523438 103.8125 C 227.289062 104.015625 228.980469 104.8125 230.535156 105.632812 C 232.015625 106.414062 233.566406 107.011719 235.042969 107.796875 C 236.25 108.433594 237.625 106.839844 236.550781 105.84375 C 232.949219 102.492188 227.316406 98.726562 222.121094 100.605469 C 216.558594 102.617188 215.996094 110.425781 218.804688 114.828125 C 221.949219 119.761719 228.648438 120.808594 233.726562 118.492188 C 236.230469 117.355469 238.558594 115.304688 239.34375 112.585938 C 240.203125 109.59375 238.566406 107.457031 236.117188 105.960938 C 235.273438 105.445312 234.296875 106.664062 235.046875 107.34375 " fill-opacity="1" fill-rule="nonzero"/><path fill="#a9a0f0" d="M 134.15625 137.796875 C 132.648438 139.046875 130.679688 141.386719 132.578125 143.246094 C 133.664062 144.304688 135.625 144.542969 137.003906 144.925781 C 139.070312 145.496094 141.136719 146.058594 143.203125 146.605469 C 146.542969 147.488281 150.601562 149.058594 154.074219 148.007812 C 156.574219 147.25 158.535156 145.179688 159.507812 142.800781 C 161.757812 137.292969 157.984375 131.472656 152.480469 129.988281 C 149.550781 129.199219 146.363281 129.816406 143.785156 131.363281 C 142.296875 132.253906 141.078125 133.519531 139.628906 134.472656 C 137.96875 135.5625 136.179688 136.441406 134.515625 137.523438 C 132.621094 138.75 134.328125 141.738281 136.296875 140.570312 C 138.210938 139.429688 140.210938 138.386719 142.035156 137.101562 C 143.816406 135.847656 145.292969 134.234375 147.410156 133.53125 C 151.476562 132.183594 157.070312 134.90625 156.78125 139.699219 C 156.664062 141.625 155.539062 143.484375 153.863281 144.449219 C 151.460938 145.832031 148.292969 144.644531 145.78125 144.160156 C 143.21875 143.664062 140.636719 143.257812 138.0625 142.820312 C 137.367188 142.699219 134.882812 142.71875 134.320312 142.207031 C 133.554688 141.519531 135.703125 140.871094 136.296875 140.570312 C 138.457031 139.476562 136.230469 136.078125 134.15625 137.796875 " fill-opacity="1" fill-rule="nonzero"/><path fill="#a9a0f0" d="M 73.480469 122.367188 C 72.191406 121.496094 71.238281 121.328125 69.800781 121.058594 C 68.566406 120.828125 67.398438 119.960938 66.21875 119.445312 C 64.070312 118.507812 61.605469 117.453125 59.207031 117.710938 C 53.050781 118.375 54.417969 126.738281 56.230469 130.554688 C 58.894531 136.171875 65.582031 139.484375 71.546875 137.121094 C 74.160156 136.078125 76.554688 134.046875 77.324219 131.246094 C 78.25 127.851562 76.417969 124.695312 73.824219 122.628906 C 71.921875 121.121094 69.824219 123.789062 71.773438 125.289062 C 74.015625 127.019531 75.183594 129.789062 73.21875 132.195312 C 71.871094 133.851562 69.59375 134.785156 67.488281 134.765625 C 62.9375 134.726562 59.519531 131.105469 58.328125 126.960938 C 57.867188 125.355469 57.347656 122.886719 58.433594 121.410156 C 59.363281 120.144531 61.265625 120.617188 62.609375 120.894531 C 64.351562 121.253906 66.21875 121.765625 67.855469 122.460938 C 69.183594 123.019531 70.539062 124.441406 71.773438 125.289062 C 73.566406 126.527344 75.285156 123.582031 73.480469 122.367188 " fill-opacity="1" fill-rule="nonzero"/></svg>