<svg xmlns="http://www.w3.org/2000/svg" xmlns:xlink="http://www.w3.org/1999/xlink" width="400" zoomAndPan="magnify" viewBox="0 0 300 299.999988" height="400" preserveAspectRatio="xMidYMid meet" version="1.0"><defs><clipPath id="d03b2d8013"><path d="M 113.703125 150 L 163 150 L 163 199.5 L 113.703125 199.5 Z M 113.703125 150 " clip-rule="nonzero"/></clipPath></defs><path fill="#a9a0f0" d="M 124.644531 269.71875 C 122.933594 269.625 118.375 269.539062 114.507812 269.523438 C 104.40625 269.480469 100.109375 269.117188 93.316406 267.730469 C 88.339844 266.714844 86.171875 265.738281 83.4375 263.273438 C 82.359375 262.304688 81.710938 261.925781 80.59375 261.605469 C 77.203125 260.636719 73.105469 258.46875 66.414062 254.109375 C 64.480469 252.847656 62.769531 251.859375 62.613281 251.914062 C 62.457031 251.964844 61.988281 251.476562 61.566406 250.832031 C 60.929688 249.851562 60.824219 249.515625 60.945312 248.804688 C 61.023438 248.335938 60.933594 247.222656 60.746094 246.324219 C 60.222656 243.816406 59.753906 240.085938 59.222656 234.214844 C 58.957031 231.269531 58.488281 226.660156 58.183594 223.96875 C 57.351562 216.6875 56.734375 210.257812 56.421875 205.6875 C 56.015625 199.726562 56.113281 184.59375 56.667969 167.613281 C 57.339844 147.027344 57.53125 143.695312 58.753906 131.753906 C 59.0625 128.773438 59.191406 126 59.15625 123.253906 C 59.082031 117.324219 59.308594 116.585938 63.535156 108.765625 C 65.777344 104.617188 66.3125 103.761719 68.597656 100.6875 C 69.394531 99.613281 70.046875 98.664062 70.046875 98.582031 C 70.046875 98.496094 69.402344 98.296875 68.613281 98.128906 C 65.207031 97.417969 63.011719 96.074219 59.261719 92.40625 C 56.429688 89.640625 56.128906 89.238281 56.347656 88.546875 C 56.523438 87.984375 60.363281 85.074219 66.441406 80.886719 L 70.984375 77.757812 L 70.09375 76.8125 C 67.269531 73.820312 65.570312 69.6875 65.289062 65.152344 C 65.03125 60.984375 66.085938 55.980469 67.597656 54.195312 C 68.230469 53.449219 68.355469 53.132812 68.265625 52.515625 C 68 50.699219 69.578125 49.074219 73.394531 47.21875 C 84.425781 41.863281 99.945312 39.566406 124.878906 39.597656 C 133.230469 39.609375 135.75 39.699219 142.0625 40.207031 C 151.746094 40.988281 168.234375 43.300781 178.203125 45.269531 C 180.609375 45.746094 187.085938 47.863281 189.527344 48.972656 C 191.835938 50.019531 193.753906 52.066406 193.753906 53.480469 C 193.753906 53.859375 193.917969 54.109375 194.230469 54.210938 C 195.160156 54.511719 197.964844 59.769531 198.671875 62.554688 C 198.863281 63.304688 199.058594 63.953125 199.101562 64 C 199.148438 64.046875 199.535156 63.484375 199.960938 62.753906 C 203.996094 55.851562 212.15625 44.746094 216.894531 39.707031 C 224.003906 32.148438 231.273438 30 234.640625 34.460938 C 236.171875 36.484375 236.476562 37.695312 236.464844 41.632812 C 236.453125 44.75 236.382812 45.347656 235.824219 47.21875 C 234.503906 51.609375 231.859375 56.191406 227.722656 61.25 C 225.347656 64.152344 218.242188 71.394531 215.4375 73.769531 L 213.511719 75.398438 L 216.820312 75.542969 C 225.949219 75.941406 235.660156 79.945312 239.65625 84.949219 C 243.988281 90.371094 243.859375 96.1875 239.304688 100.769531 C 236.433594 103.660156 233.050781 105.273438 228.699219 105.828125 C 223.160156 106.535156 217.035156 104.355469 210.867188 99.472656 L 209.429688 98.335938 L 209.089844 99.003906 C 208.539062 100.082031 206.507812 101.761719 205.089844 102.316406 C 204.289062 102.625 203.035156 102.867188 201.878906 102.9375 L 199.984375 103.050781 L 202.242188 105.527344 C 203.484375 106.886719 205.039062 108.660156 205.695312 109.46875 C 206.980469 111.054688 209.089844 115.144531 209.792969 117.417969 C 210.027344 118.191406 210.351562 118.824219 210.507812 118.828125 C 211.714844 118.835938 212.382812 129.925781 211.699219 138.621094 C 211.550781 140.5 211.378906 155.300781 211.269531 175.300781 C 211.167969 194.453125 210.980469 210.980469 210.828125 213.839844 C 210.078125 228.261719 209.597656 235.613281 209.273438 237.703125 C 208.964844 239.679688 208.953125 240.410156 209.191406 242.589844 C 209.472656 245.191406 209.375 248.300781 208.9375 250.558594 C 208.667969 251.933594 207.242188 254.09375 204.339844 257.511719 C 200.976562 261.472656 197.757812 264.132812 196.320312 264.136719 C 195.871094 264.140625 195.792969 264.042969 195.875 263.601562 C 195.972656 263.078125 195.882812 263.101562 193.339844 264.191406 C 191.890625 264.8125 189.964844 265.527344 189.0625 265.78125 C 187.324219 266.265625 182.199219 266.980469 177.398438 267.402344 C 175.816406 267.542969 172.707031 267.921875 170.488281 268.242188 C 165.96875 268.898438 158.933594 269.242188 149.640625 269.261719 C 146.472656 269.265625 141.707031 269.425781 139.042969 269.613281 C 134.007812 269.96875 129.929688 270 124.644531 269.71875 Z M 171.292969 264.035156 C 173.445312 263.839844 176.191406 263.675781 177.394531 263.671875 C 182.007812 263.648438 186.558594 263.070312 191.109375 261.921875 C 193.59375 261.296875 195.6875 260.886719 196.042969 260.960938 C 196.597656 261.070312 196.695312 260.984375 197.054688 260 C 197.589844 258.539062 200.71875 253.304688 202.207031 251.375 C 204.816406 247.996094 204.582031 248.710938 204.824219 243.378906 C 204.945312 240.773438 205.085938 238.445312 205.140625 238.207031 C 205.195312 237.96875 205.132812 235.296875 205 232.269531 C 204.707031 225.421875 204.738281 176.3125 205.042969 164.703125 C 205.398438 151.234375 205.796875 145.851562 207.136719 136.296875 L 207.84375 131.289062 L 207.371094 129.078125 C 207.109375 127.859375 206.789062 126.21875 206.652344 125.429688 C 206.128906 122.382812 204.878906 119.207031 202.691406 115.378906 C 201.398438 113.113281 198.359375 109.054688 198.359375 109.589844 C 198.359375 109.789062 198.921875 114.285156 199.609375 119.574219 C 202.398438 140.949219 202.363281 140.585938 202.40625 149.800781 C 202.4375 157.316406 202.40625 158.140625 202.03125 158.882812 C 201.808594 159.332031 201.566406 159.882812 201.496094 160.105469 C 201.324219 160.652344 200.972656 160.621094 200.824219 160.046875 C 200.746094 159.742188 200.511719 159.582031 200.136719 159.582031 C 199.449219 159.582031 197.804688 157.875 197.269531 156.597656 C 196.992188 155.941406 196.863281 154.371094 196.722656 149.917969 C 196.589844 145.730469 196.34375 142.558594 195.839844 138.625 C 195.023438 132.195312 194.070312 123.542969 193.855469 120.578125 C 193.769531 119.425781 193.402344 116.386719 193.035156 113.824219 C 192.671875 111.261719 192.371094 108.832031 192.371094 108.421875 C 192.371094 107.570312 192.082031 107.277344 191.699219 107.746094 C 190.789062 108.847656 187.375 109.488281 185.078125 108.984375 L 183.660156 108.671875 L 183.289062 110.664062 C 182.351562 115.726562 178.75 138.207031 178.738281 139.074219 C 178.714844 140.664062 179.542969 149.519531 179.824219 150.683594 C 180.152344 152.058594 180.148438 152.210938 179.738281 153.144531 C 178.4375 156.117188 173.910156 155.234375 173.003906 151.832031 C 172.699219 150.695312 172.773438 149.992188 173.828125 144.210938 C 175.363281 135.792969 176.242188 130.070312 176.589844 126.28125 C 177.039062 121.375 177.511719 117.558594 178.238281 112.929688 C 178.554688 110.902344 178.78125 109.207031 178.738281 109.164062 C 178.699219 109.125 177.921875 109.339844 177.019531 109.648438 C 175.632812 110.117188 174.84375 110.214844 172.023438 110.269531 C 169.878906 110.308594 168.851562 110.402344 169.175781 110.527344 C 171.351562 111.382812 157.941406 111.828125 153.09375 111.058594 C 151.699219 110.839844 149.472656 110.382812 148.140625 110.050781 C 146.808594 109.714844 144.785156 109.394531 143.636719 109.335938 C 141.824219 109.242188 141.199219 109.328125 138.839844 109.964844 C 133.363281 111.441406 128.765625 111.355469 125.851562 109.726562 C 125.1875 109.355469 124.097656 108.742188 123.433594 108.367188 L 122.226562 107.683594 L 119.460938 108.109375 C 114.855469 108.816406 110.921875 109.125 108.320312 108.980469 C 104.433594 108.765625 102.304688 107.816406 99.671875 105.117188 L 98.308594 103.722656 L 97.472656 104.15625 C 96.714844 104.542969 92.722656 105.324219 89.730469 105.660156 C 88.277344 105.828125 85.011719 105.265625 82.851562 104.484375 C 81.953125 104.15625 80.394531 103.796875 79.378906 103.683594 C 76.925781 103.402344 75.78125 102.929688 74.753906 101.78125 L 73.898438 100.824219 L 73.230469 101.617188 C 70.226562 105.167969 67.910156 108.449219 66.242188 111.496094 C 65.75 112.390625 64.964844 113.726562 64.5 114.460938 C 63.59375 115.882812 61.847656 120.164062 62.078125 120.394531 C 62.152344 120.46875 62.128906 120.648438 62.027344 120.789062 C 61.925781 120.929688 61.945312 122.140625 62.074219 123.484375 C 62.234375 125.15625 62.230469 129.492188 62.058594 137.226562 C 61.894531 144.742188 61.871094 157.675781 61.992188 175.882812 C 62.15625 200.09375 62.230469 204.011719 62.65625 209.882812 C 63.363281 219.734375 63.757812 236.71875 63.410156 242.761719 C 63.261719 245.410156 63.082031 247.726562 63.015625 247.90625 C 62.925781 248.144531 63.308594 248.34375 64.425781 248.652344 C 67.660156 249.535156 73.132812 252.832031 79.210938 257.550781 C 80.996094 258.933594 82.480469 259.898438 83.246094 260.164062 C 83.910156 260.394531 85.078125 260.902344 85.84375 261.292969 C 88.050781 262.417969 89.398438 262.703125 95.046875 263.242188 C 99.550781 263.671875 102.070312 263.757812 111.859375 263.796875 C 118.597656 263.824219 124.910156 263.96875 127.0625 264.140625 C 129.648438 264.347656 133.535156 264.394531 140.078125 264.304688 C 145.210938 264.230469 150.601562 264.261719 152.058594 264.367188 C 155.773438 264.644531 166.625 264.457031 171.292969 264.035156 Z M 173.988281 259.046875 C 172.648438 258.792969 173.1875 258.441406 175.144531 258.289062 C 176.191406 258.210938 179.34375 257.609375 182.148438 256.953125 C 184.953125 256.296875 187.511719 255.757812 187.832031 255.757812 C 189.050781 255.757812 189.527344 256.308594 188.820312 256.902344 C 188.367188 257.285156 183.527344 258.449219 180.59375 258.886719 C 178.140625 259.25 175.414062 259.316406 173.988281 259.046875 Z M 154.097656 254.476562 C 151.347656 254.140625 149.0625 253.542969 149.0625 253.164062 C 149.0625 253.019531 149.230469 252.980469 149.464844 253.078125 C 149.6875 253.167969 151.371094 253.296875 153.207031 253.359375 C 156.128906 253.464844 159.492188 253.328125 166.738281 252.808594 C 168.753906 252.664062 169.332031 252.859375 169.332031 253.671875 C 169.332031 254.117188 169.136719 254.183594 166.570312 254.585938 C 164.527344 254.90625 157.121094 254.84375 154.097656 254.476562 Z M 92.414062 254.117188 C 88.714844 253.304688 85.632812 251.714844 83.378906 249.453125 C 82.113281 248.183594 80.882812 246.109375 80.878906 245.246094 C 80.875 244.082031 81.5 244.269531 84.035156 246.195312 C 88.789062 249.804688 92.816406 251.289062 99.542969 251.917969 C 101.304688 252.082031 104.367188 251.738281 106.125 251.179688 C 108.558594 250.40625 107.828125 251.425781 104.949219 252.828125 C 102.632812 253.957031 100.742188 254.378906 97.460938 254.492188 C 95.148438 254.574219 94.15625 254.5 92.414062 254.117188 Z M 174.992188 252.054688 C 174.722656 251.949219 174.644531 251.820312 174.792969 251.726562 C 175.292969 251.414062 178.414062 250.863281 182.289062 250.402344 C 184.472656 250.144531 187.019531 249.8125 187.945312 249.667969 C 189.191406 249.472656 189.695312 249.46875 189.890625 249.664062 C 190.265625 250.046875 188.382812 250.824219 185.828125 251.339844 C 182.191406 252.078125 176.066406 252.480469 174.992188 252.054688 Z M 92.917969 246.648438 C 96.757812 237.554688 99.535156 233.207031 99.535156 236.277344 C 99.535156 237.550781 94.070312 246.550781 93.105469 246.867188 C 92.898438 246.933594 92.832031 246.855469 92.917969 246.648438 Z M 171.175781 246.1875 C 163.199219 245.773438 157.386719 244.558594 156.941406 243.214844 C 156.867188 242.984375 157.011719 242.933594 157.5 243.03125 C 158.996094 243.320312 174.003906 243.445312 178.164062 243.199219 C 184.773438 242.808594 187.757812 242.332031 192.828125 240.859375 C 195.554688 240.066406 196.328125 239.996094 196.75 240.511719 C 197.5625 241.503906 195.152344 243.0625 190.507812 244.542969 C 185.347656 246.195312 180.03125 246.648438 171.175781 246.1875 Z M 87.1875 242.335938 C 87.449219 241.191406 90.234375 235.714844 91.664062 233.519531 C 93.378906 230.894531 94.753906 229.308594 95.117188 229.535156 C 95.914062 230.03125 94.964844 232.117188 91.554688 237.34375 C 88.976562 241.292969 88.148438 242.394531 87.503906 242.746094 C 87.070312 242.980469 87.046875 242.949219 87.1875 242.335938 Z M 85.253906 236.578125 C 85.253906 236.058594 89.410156 227.902344 90.761719 225.769531 C 92 223.824219 92.5 223.488281 93.09375 224.210938 C 93.703125 224.949219 92.636719 227.21875 89.34375 232.199219 C 87.117188 235.566406 85.253906 237.5625 85.253906 236.578125 Z M 76.835938 234.042969 C 75.117188 228.675781 74.117188 223.5 72.488281 211.511719 C 71.261719 202.5 70.835938 197.929688 70.523438 190.4375 C 70.269531 184.40625 69.9375 176.335938 69.570312 167.265625 C 69.253906 159.425781 69.582031 150.703125 70.765625 135.597656 C 71.527344 125.867188 72.230469 121.367188 73.421875 118.632812 C 74.585938 115.957031 77.671875 111.988281 79.820312 110.410156 C 81.265625 109.347656 83.183594 109.625 83.183594 110.902344 C 83.183594 111.132812 82.714844 111.710938 82.140625 112.183594 C 80.800781 113.296875 78.121094 116.511719 77.074219 118.273438 C 75.46875 120.960938 75.53125 120.261719 75.386719 138.042969 C 75.21875 158.816406 75.261719 165.886719 75.574219 171.457031 C 75.714844 173.957031 75.925781 182.445312 76.039062 190.320312 C 76.246094 204.386719 76.414062 208.726562 77.082031 217.335938 C 77.265625 219.703125 77.574219 224.578125 77.765625 228.164062 C 77.957031 231.75 78.175781 235.128906 78.257812 235.671875 C 78.371094 236.476562 78.328125 236.664062 78.039062 236.664062 C 77.78125 236.664062 77.433594 235.90625 76.835938 234.042969 Z M 185.226562 233.414062 C 184.40625 233.328125 183.523438 233.136719 183.269531 232.988281 C 182.730469 232.671875 182.664062 232.695312 184.453125 232.574219 C 185.226562 232.519531 188.339844 232.105469 191.363281 231.652344 C 200.261719 230.3125 200.855469 230.246094 201.164062 230.554688 C 201.570312 230.96875 200.824219 231.683594 199.542969 232.109375 C 198.03125 232.605469 194.792969 233.132812 191.5625 233.398438 C 188.554688 233.648438 187.507812 233.652344 185.226562 233.414062 Z M 82.296875 231.597656 C 82.417969 231.320312 84.132812 228.382812 87.765625 222.226562 C 89.613281 219.089844 91.160156 216.390625 91.203125 216.230469 C 91.308594 215.8125 92.089844 215.867188 92.253906 216.300781 C 92.765625 217.648438 87.164062 227.078125 83.722656 230.664062 C 82.804688 231.625 82.09375 232.09375 82.296875 231.597656 Z M 184.363281 225.210938 C 183.824219 225.089844 183.382812 224.917969 183.382812 224.828125 C 183.382812 224.738281 184.1875 224.652344 185.167969 224.640625 C 187.324219 224.605469 190.058594 224.136719 195.183594 222.910156 C 199.1875 221.957031 200.535156 221.789062 200.378906 222.265625 C 200.148438 222.964844 193.230469 224.75 188.863281 225.234375 C 186.292969 225.519531 185.714844 225.519531 184.363281 225.210938 Z M 80.964844 224.726562 C 81.953125 223.351562 90.097656 210.878906 91.402344 208.753906 C 92.214844 207.425781 93.667969 205.171875 94.628906 203.746094 C 96.222656 201.390625 96.335938 201.144531 95.886719 201.078125 C 95.21875 200.976562 95.257812 200.609375 95.964844 200.335938 C 96.71875 200.046875 97.203125 200.257812 97.375 200.945312 C 97.871094 202.9375 95.660156 207.019531 89.8125 214.914062 C 85.175781 221.171875 81.664062 225.253906 80.914062 225.253906 C 80.65625 225.253906 80.660156 225.152344 80.964844 224.726562 Z M 182.40625 218.339844 C 181.664062 218.140625 181.992188 217.800781 182.921875 217.800781 C 183.714844 217.800781 189.691406 216.347656 195.347656 214.78125 C 196.289062 214.519531 197.617188 214.308594 198.300781 214.308594 C 199.359375 214.308594 199.53125 214.367188 199.46875 214.714844 C 199.257812 215.824219 188.195312 218.546875 184.191406 218.472656 C 183.429688 218.457031 182.628906 218.398438 182.40625 218.339844 Z M 79.203125 213.433594 C 80.753906 211.675781 86.289062 204.902344 90.003906 200.21875 C 92.191406 197.460938 95.25 193.339844 97.867188 189.621094 C 100.113281 186.4375 101.75 184.5 102.203125 184.5 C 104.027344 184.5 98.34375 192.398438 86.53125 206.273438 C 83.042969 210.371094 78.382812 215.238281 77.945312 215.238281 C 77.765625 215.238281 78.328125 214.425781 79.203125 213.433594 Z M 83.492188 198.078125 C 85.117188 194.960938 86.910156 192.371094 88.738281 190.496094 C 90.207031 188.992188 91.011719 188.550781 91.011719 189.246094 C 91.011719 189.566406 86.34375 196.089844 84.164062 198.820312 C 82.382812 201.046875 82.105469 200.738281 83.492188 198.078125 Z M 82.949219 191.53125 C 82.949219 191.429688 83.046875 191.246094 83.160156 191.125 C 83.273438 191.003906 83.898438 189.855469 84.542969 188.574219 C 85.191406 187.292969 86.492188 185.042969 87.4375 183.570312 C 88.378906 182.09375 89.492188 180.289062 89.910156 179.554688 C 91.414062 176.898438 91.574219 179.09375 90.078125 181.910156 C 88.878906 184.175781 85.542969 189.226562 84.316406 190.636719 C 83.433594 191.648438 82.949219 191.964844 82.949219 191.53125 Z M 82.488281 182.773438 C 82.488281 182.722656 83.171875 181.542969 84.003906 180.15625 C 86.863281 175.390625 91.78125 168.898438 92.535156 168.898438 C 93.1875 168.898438 93.136719 169.625 92.414062 170.804688 C 91.515625 172.261719 85.6875 179.792969 84.078125 181.574219 C 83.066406 182.691406 82.488281 183.125 82.488281 182.773438 Z M 82.585938 173.601562 C 82.65625 173.179688 83.121094 172.128906 83.621094 171.273438 C 85.742188 167.621094 91.570312 159.597656 92.105469 159.585938 C 92.75 159.578125 92.296875 160.566406 90.246094 163.65625 C 88.089844 166.910156 83.992188 172.648438 83.1875 173.554688 L 82.457031 174.371094 Z M 81.339844 165.125 C 81.339844 164.179688 87.414062 156.019531 91.359375 151.664062 C 93.144531 149.695312 93.316406 149.570312 93.316406 150.238281 C 93.316406 150.5 92.550781 151.738281 91.613281 152.992188 C 89.738281 155.5 81.625 165.402344 81.449219 165.402344 C 81.390625 165.402344 81.34375 165.289062 81.339844 165.125 Z M 81.230469 156.800781 C 80.984375 156.402344 83.046875 153.734375 88.175781 147.804688 C 91.066406 144.464844 93.707031 141.371094 94.039062 140.933594 C 94.972656 139.714844 95.101562 140.316406 94.214844 141.753906 C 93.132812 143.515625 90.863281 146.34375 87.667969 149.917969 C 86.179688 151.582031 84.152344 153.855469 83.15625 154.972656 C 82.199219 156.050781 81.355469 156.855469 81.230469 156.800781 Z M 79.957031 148.683594 C 79.957031 148.207031 83.003906 144.078125 87.289062 138.742188 C 95.898438 128.023438 96.605469 127.203125 96.9375 127.535156 C 97.636719 128.242188 90.957031 137.058594 83.117188 145.785156 C 80.558594 148.632812 79.957031 149.183594 79.957031 148.683594 Z M 81.019531 138.433594 C 80.648438 137.828125 83.496094 133.863281 88.25 128.378906 C 91.277344 124.878906 98.875 116.734375 99.109375 116.734375 C 99.585938 116.734375 99.21875 117.757812 98.171875 119.335938 C 96.414062 121.992188 92.710938 126.363281 87.175781 132.339844 C 81.601562 138.347656 81.222656 138.730469 81.019531 138.433594 Z M 82.257812 127.109375 C 82.257812 126.90625 84.429688 123.789062 85.675781 122.207031 C 88.460938 118.664062 93.980469 111.9375 94.445312 111.511719 C 95.054688 110.957031 95.515625 111.300781 95.304688 112.15625 C 94.824219 114.082031 87.5 123.308594 84.339844 125.964844 C 83.082031 127.019531 82.289062 127.464844 82.257812 127.109375 Z M 165.25 110.0625 C 165.09375 109.996094 164.78125 109.992188 164.558594 110.050781 C 164.332031 110.109375 164.460938 110.164062 164.839844 110.167969 C 165.222656 110.171875 165.402344 110.125 165.25 110.0625 Z M 147.25 91.117188 L 147.488281 91.875 C 147.621094 92.292969 147.796875 94.757812 147.875 97.351562 C 148.007812 101.476562 147.980469 102.066406 147.679688 102.011719 C 147.113281 101.90625 146.566406 100.441406 146.308594 98.34375 C 146.007812 95.867188 145.996094 92.5 146.292969 91.714844 L 146.515625 91.117188 L 143.125 91.113281 C 141.261719 91.113281 139.503906 91.046875 139.21875 90.972656 C 138.71875 90.835938 138.714844 90.847656 139.0625 91.558594 C 139.261719 91.957031 139.71875 94.386719 140.082031 96.957031 C 140.445312 99.527344 140.855469 101.769531 140.996094 101.941406 C 141.425781 102.46875 140.867188 102.558594 140.25 102.066406 C 139.027344 101.09375 138.058594 97.902344 137.839844 94.132812 C 137.761719 92.742188 137.804688 91.726562 137.960938 91.4375 C 138.203125 90.980469 138.09375 90.96875 131.484375 90.6875 C 125.152344 90.414062 120.019531 90.089844 118.191406 89.84375 L 117.382812 89.734375 L 116.941406 93.628906 C 116.695312 95.769531 116.457031 98.074219 116.402344 98.746094 C 116.351562 99.417969 116.226562 99.96875 116.125 99.96875 C 115.777344 99.96875 115.429688 98.511719 115.433594 97.082031 C 115.4375 95.660156 115.984375 90.992188 116.238281 90.179688 C 116.382812 89.722656 116.167969 89.652344 113.914062 89.410156 L 112.96875 89.3125 L 112.324219 92.601562 C 111.96875 94.410156 111.484375 96.550781 111.242188 97.351562 C 111 98.15625 110.871094 98.925781 110.953125 99.0625 C 111.046875 99.21875 110.9375 99.28125 110.675781 99.230469 C 109.984375 99.097656 109.984375 96.421875 110.683594 93.058594 C 111 91.542969 111.324219 90.078125 111.40625 89.800781 C 111.585938 89.207031 111.367188 89.117188 109.199219 88.898438 L 107.691406 88.746094 L 107.273438 90.574219 C 107.042969 91.578125 106.488281 93.605469 106.042969 95.078125 C 105.59375 96.550781 105.238281 97.945312 105.25 98.175781 C 105.261719 98.410156 105.144531 98.554688 104.996094 98.503906 C 104.441406 98.308594 104.738281 95.308594 105.636719 91.960938 C 106.109375 90.203125 106.457031 88.722656 106.414062 88.675781 C 106.367188 88.628906 105.679688 88.519531 104.890625 88.425781 C 103.519531 88.269531 103.453125 88.285156 103.453125 88.769531 C 103.453125 89.96875 100.414062 97.148438 99.820312 97.347656 C 99.613281 97.417969 99.578125 97.144531 99.675781 96.316406 C 100.011719 93.5 101.339844 89.734375 102.367188 88.699219 L 102.925781 88.136719 L 101.402344 87.988281 C 100.566406 87.90625 99.503906 87.785156 99.042969 87.714844 C 98.210938 87.589844 98.179688 87.613281 96.414062 89.875 C 93.839844 93.164062 91.292969 95.96875 90.496094 96.386719 C 89.890625 96.699219 89.761719 96.703125 89.46875 96.410156 C 89.179688 96.113281 89.476562 95.722656 91.867188 93.300781 C 95.027344 90.101562 97.09375 87.707031 96.835938 87.550781 C 96.738281 87.492188 95.984375 87.367188 95.160156 87.277344 C 94.335938 87.1875 92.109375 86.796875 90.207031 86.40625 C 88.308594 86.019531 86.472656 85.648438 86.128906 85.589844 C 85.652344 85.503906 84.867188 85.875 82.671875 87.238281 C 79 89.515625 77.8125 90.054688 77.195312 89.71875 C 76.5 89.34375 76.652344 88.085938 77.390625 88.089844 C 77.601562 88.09375 79.152344 87.390625 80.84375 86.527344 C 83.410156 85.214844 83.824219 84.933594 83.375 84.800781 C 77.4375 83.074219 75.011719 81.945312 74.085938 80.484375 C 73.832031 80.082031 73.351562 79.585938 73.015625 79.382812 C 72.421875 79.019531 72.394531 79.03125 71.78125 79.84375 C 71.015625 80.859375 67.625 83.609375 63.457031 86.601562 C 61.75 87.828125 60.390625 88.941406 60.4375 89.082031 C 60.710938 89.917969 68.453125 92.71875 72.242188 93.351562 C 74.800781 93.78125 75.578125 94.09375 76.671875 95.144531 C 77.421875 95.863281 77.726562 96.554688 77.996094 98.171875 C 78.191406 99.363281 79.039062 99.851562 81.535156 100.210938 C 83.589844 100.503906 84.660156 100.429688 89.863281 99.613281 C 94.226562 98.929688 96.398438 99.226562 99.4375 100.910156 C 101.4375 102.019531 105.363281 103.363281 107.371094 103.628906 C 108.195312 103.738281 109.75 103.75 110.828125 103.652344 C 114.964844 103.28125 119.703125 103.171875 121.015625 103.425781 C 122.972656 103.796875 124.953125 104.769531 124.820312 105.289062 C 124.738281 105.617188 125.171875 105.941406 126.878906 106.828125 C 129.035156 107.949219 129.054688 107.953125 131.769531 108.066406 C 134.199219 108.167969 134.808594 108.105469 137.347656 107.511719 C 141.105469 106.628906 145.734375 106.570312 148.882812 107.367188 C 152.101562 108.179688 159.394531 109.171875 162.71875 109.25 C 163.449219 109.269531 164.796875 109.070312 165.714844 108.8125 C 166.628906 108.554688 169.183594 108.082031 171.382812 107.761719 C 174.097656 107.367188 175.84375 106.992188 176.796875 106.589844 C 177.570312 106.261719 178.488281 105.886719 178.828125 105.757812 C 179.53125 105.492188 179.527344 105.496094 180.054688 102.765625 C 180.261719 101.675781 180.683594 99.699219 180.988281 98.375 L 181.546875 95.960938 L 180.730469 94.289062 C 179.878906 92.550781 179.613281 90.882812 180.109375 90.382812 C 180.503906 89.984375 181.203125 90.691406 181.6875 91.96875 C 181.898438 92.53125 182.128906 92.933594 182.203125 92.863281 C 182.371094 92.691406 183.609375 88.46875 183.515625 88.375 C 183.480469 88.339844 182.265625 88.515625 180.816406 88.765625 C 178.035156 89.257812 172.988281 89.832031 169.320312 90.085938 L 167.117188 90.234375 L 167.542969 91.109375 C 167.777344 91.585938 168.273438 93.175781 168.644531 94.636719 C 169.019531 96.09375 169.390625 97.523438 169.472656 97.8125 C 169.652344 98.441406 169.320312 98.496094 168.804688 97.921875 C 167.773438 96.765625 166.125 91.5 166.546875 90.699219 C 166.765625 90.285156 166.644531 90.269531 163.621094 90.371094 C 161.886719 90.429688 160.4375 90.5 160.398438 90.539062 C 160.359375 90.570312 160.480469 91.214844 160.667969 91.964844 C 160.855469 92.714844 161.285156 94.847656 161.617188 96.707031 C 161.949219 98.5625 162.378906 100.328125 162.574219 100.625 C 162.765625 100.925781 162.859375 101.230469 162.785156 101.308594 C 162.574219 101.523438 161.433594 100.578125 161 99.824219 C 160.390625 98.773438 159.421875 94.695312 159.265625 92.542969 L 159.128906 90.59375 L 156.574219 90.761719 C 155.167969 90.851562 154.003906 90.941406 153.984375 90.960938 C 153.964844 90.980469 154.035156 91.835938 154.140625 92.863281 C 154.417969 95.488281 154.414062 101.363281 154.136719 101.363281 C 153.402344 101.363281 152.632812 98.054688 152.382812 93.835938 L 152.222656 91.113281 L 147.25 91.113281 Z M 189.046875 105.339844 C 190.464844 104.515625 191.679688 103.175781 191.679688 102.429688 C 191.679688 102.125 191.476562 99.589844 191.230469 96.789062 C 190.988281 93.992188 190.714844 90.46875 190.628906 88.964844 C 190.453125 85.890625 190.246094 85.613281 189.257812 87.117188 C 188.375 88.46875 184.304688 103.519531 184.304688 105.4375 C 184.304688 105.8125 184.875 105.945312 186.609375 105.988281 C 187.621094 106.011719 188.113281 105.882812 189.046875 105.339844 Z M 133.289062 102.070312 C 132.695312 101.101562 131.554688 94.945312 131.558594 92.746094 C 131.5625 91.277344 131.777344 90.804688 132.386719 90.921875 C 132.699219 90.984375 132.925781 91.417969 133.214844 92.488281 C 134.183594 96.132812 134.246094 103.636719 133.289062 102.070312 Z M 122.65625 102.023438 C 122.390625 101.597656 122.171875 91.304688 122.425781 90.945312 C 122.773438 90.445312 123.234375 90.621094 123.652344 91.410156 C 124.195312 92.429688 124.179688 96.238281 123.613281 99.5 C 123.183594 102.019531 122.992188 102.539062 122.65625 102.023438 Z M 228.992188 100.535156 C 233.699219 99.414062 237.28125 96.152344 237.28125 92.984375 C 237.28125 89.914062 234.914062 87.015625 230.640625 84.847656 C 224.332031 81.648438 216.722656 80.464844 209.414062 81.542969 C 206.164062 82.023438 200.726562 83.277344 200.382812 83.625 C 200.183594 83.824219 208.96875 92.339844 211.371094 94.277344 C 218.101562 99.699219 223.882812 101.753906 228.992188 100.535156 Z M 203.570312 100.085938 C 205.441406 99.296875 206.308594 97.957031 206.070312 96.21875 C 205.9375 95.242188 205.761719 94.941406 204.84375 94.125 C 202.894531 92.394531 196.039062 88.492188 195.644531 88.894531 C 195.550781 88.988281 196.789062 98.324219 197.105469 99.898438 C 197.183594 100.289062 197.410156 100.433594 198.070312 100.511719 C 199.621094 100.703125 202.667969 100.46875 203.570312 100.085938 Z M 175.664062 97.59375 C 174.578125 96.730469 172.515625 91.476562 172.882812 90.507812 C 173.152344 89.796875 173.929688 90.175781 174.488281 91.292969 C 174.980469 92.28125 176.703125 97.421875 176.703125 97.910156 C 176.703125 98.242188 176.335938 98.125 175.664062 97.59375 Z M 83.253906 95.859375 C 83.167969 95.640625 83.253906 95.363281 83.449219 95.21875 C 84.027344 94.785156 87.992188 91.328125 89.820312 89.664062 C 91.425781 88.203125 91.933594 87.859375 91.933594 88.246094 C 91.933594 88.496094 86.167969 94.351562 84.945312 95.339844 C 83.71875 96.332031 83.46875 96.414062 83.253906 95.859375 Z M 157.125 86.703125 C 168.355469 86.324219 172.976562 86.007812 177.972656 85.273438 C 180.503906 84.902344 183.175781 84.597656 183.902344 84.597656 C 184.992188 84.597656 185.304688 84.507812 185.632812 84.089844 C 186.976562 82.378906 188.4375 81.03125 189.53125 80.492188 C 190.878906 79.824219 191.007812 79.625 192.03125 76.5625 C 193.5625 72.003906 194.589844 66.140625 194.367188 63.230469 C 194.242188 61.566406 193.019531 55.839844 192.726562 55.542969 C 192.660156 55.472656 192.417969 55.578125 192.195312 55.773438 C 190.71875 57.089844 187.714844 57.984375 183.78125 58.273438 C 182.113281 58.398438 180.074219 58.726562 178.777344 59.082031 C 172.921875 60.671875 167.007812 61.523438 154.933594 62.511719 C 150.492188 62.875 133.546875 62.875 128.558594 62.515625 C 126.46875 62.363281 120.609375 62.03125 115.542969 61.773438 C 107.621094 61.375 98.226562 60.636719 96.308594 60.265625 C 95.992188 60.203125 92.882812 59.886719 89.398438 59.5625 C 82.335938 58.902344 79.507812 58.5 76.957031 57.785156 C 75.050781 57.253906 72.273438 56.027344 71.179688 55.242188 C 70.78125 54.953125 70.386719 54.820312 70.277344 54.9375 C 69.992188 55.234375 69.585938 59.3125 69.589844 61.824219 C 69.597656 64.605469 70.117188 68.464844 70.746094 70.394531 C 71.90625 73.957031 74.15625 77.640625 76.40625 79.667969 C 77.636719 80.777344 77.84375 80.871094 80.269531 81.421875 C 89.015625 83.40625 91.84375 83.824219 103.511719 84.832031 C 129.832031 87.105469 137.359375 87.367188 157.125 86.703125 Z M 198.710938 78.695312 C 200.355469 78.136719 202.371094 77.339844 203.195312 76.917969 C 208.625 74.152344 217.078125 66.695312 223.53125 58.984375 C 227.492188 54.246094 230.253906 49.566406 231.425781 45.589844 C 232.597656 41.613281 232.164062 37.269531 230.535156 36.644531 C 228.632812 35.914062 224.152344 38.621094 220.179688 42.898438 C 213.054688 50.570312 202.28125 66.003906 196.925781 76.214844 C 195.566406 78.800781 195.207031 79.707031 195.53125 79.707031 C 195.640625 79.707031 197.070312 79.25 198.710938 78.695312 Z M 142.621094 74.59375 C 140.96875 72.925781 140.296875 68.527344 141.691406 68.527344 C 142.195312 68.527344 142.679688 69.898438 143.085938 72.476562 C 143.21875 73.316406 143.375 74.238281 143.433594 74.527344 C 143.566406 75.171875 143.222656 75.199219 142.621094 74.59375 Z M 135.410156 74.054688 C 135.222656 73.765625 134.589844 72.171875 134.007812 70.519531 C 132.898438 67.371094 132.886719 66.792969 133.945312 66.949219 C 135.042969 67.109375 136.160156 70.191406 136.160156 73.0625 C 136.164062 74.660156 135.976562 74.917969 135.410156 74.054688 Z M 120.925781 73.53125 C 119.671875 72.84375 118.605469 69.054688 119.117188 67.125 C 119.417969 65.996094 120.160156 65.828125 120.355469 66.84375 C 120.421875 67.195312 120.695312 68.628906 120.960938 70.027344 C 121.226562 71.425781 121.542969 72.753906 121.660156 72.980469 C 122.144531 73.890625 121.90625 74.070312 120.925781 73.53125 Z M 151.167969 72.828125 C 150.601562 72.101562 150.144531 70.140625 150.25 68.902344 C 150.335938 67.914062 150.929688 67.296875 151.375 67.746094 C 151.652344 68.027344 152.039062 73.171875 151.792969 73.324219 C 151.707031 73.378906 151.429688 73.160156 151.167969 72.828125 Z M 128.046875 72.730469 C 126.871094 71.792969 125.796875 68.128906 126.234375 66.523438 C 126.761719 64.601562 128.101562 64.367188 128.101562 66.203125 C 128.101562 67.605469 128.792969 72.34375 129.035156 72.59375 C 129.695312 73.273438 128.886719 73.386719 128.046875 72.730469 Z M 105.417969 71.964844 C 104.695312 71.328125 104.226562 69.285156 104 65.800781 C 103.859375 63.636719 103.882812 63.40625 104.261719 63.257812 C 104.929688 62.996094 105.65625 64.082031 105.945312 65.773438 C 106.085938 66.585938 106.261719 68.273438 106.34375 69.519531 C 106.421875 70.769531 106.585938 71.851562 106.699219 71.921875 C 106.984375 72.097656 106.730469 72.488281 106.332031 72.488281 C 106.15625 72.488281 105.757812 72.261719 105.417969 71.964844 Z M 113.363281 70.46875 C 112.066406 66.96875 111.726562 64.570312 112.519531 64.570312 C 113.234375 64.570312 114.039062 66.160156 114.386719 68.265625 C 114.578125 69.402344 114.347656 71.789062 114.046875 71.789062 C 113.941406 71.789062 113.636719 71.207031 113.363281 70.46875 Z M 164.320312 70.800781 C 162.945312 69.316406 162.574219 65.039062 163.820312 65.039062 C 164.464844 65.039062 164.707031 65.71875 164.859375 67.984375 C 164.933594 69.117188 165.082031 70.332031 165.195312 70.683594 C 165.445312 71.488281 165.019531 71.550781 164.320312 70.800781 Z M 97.21875 70.242188 C 96.203125 67.847656 95.910156 64.640625 96.605469 63.566406 C 97.070312 62.847656 97.574219 62.757812 97.800781 63.347656 C 97.886719 63.574219 98.070312 64.960938 98.207031 66.433594 C 98.457031 69.121094 98.320312 71.324219 97.902344 71.324219 C 97.777344 71.324219 97.46875 70.835938 97.21875 70.242188 Z M 90.402344 70.457031 C 89.667969 68.6875 90.035156 64.339844 90.914062 64.339844 C 91.378906 64.339844 91.558594 65.800781 91.347656 67.917969 C 91.246094 68.960938 91.164062 70.152344 91.164062 70.566406 C 91.164062 71.570312 90.84375 71.527344 90.402344 70.457031 Z M 159.226562 69.792969 C 158.601562 68.992188 158.40625 67.464844 158.726562 65.910156 C 159.039062 64.382812 159.445312 63.738281 159.96875 63.945312 C 160.242188 64.046875 160.347656 64.378906 160.347656 65.109375 C 160.347656 67.070312 160.046875 70.394531 159.871094 70.394531 C 159.773438 70.394531 159.484375 70.125 159.226562 69.792969 Z M 85.382812 69.863281 C 84.730469 68.859375 84.300781 67.242188 84.277344 65.734375 C 84.257812 64.058594 84.78125 62.476562 85.359375 62.476562 C 85.554688 62.476562 85.730469 62.5 85.742188 62.53125 C 85.761719 62.566406 85.886719 64.34375 86.03125 66.492188 C 86.234375 69.558594 86.230469 70.390625 86.007812 70.390625 C 85.851562 70.394531 85.570312 70.15625 85.382812 69.863281 Z M 176.363281 69.617188 C 175.894531 68.890625 175.042969 65.441406 175.132812 64.632812 C 175.1875 64.167969 175.351562 63.96875 175.730469 63.914062 C 176.511719 63.800781 176.976562 65.140625 177.113281 67.890625 C 177.230469 70.273438 177.054688 70.683594 176.363281 69.617188 Z M 170.652344 69.753906 C 170.039062 69.070312 169.792969 68.113281 169.792969 66.417969 C 169.792969 65.109375 169.878906 64.714844 170.257812 64.332031 C 170.628906 63.957031 170.816406 63.910156 171.183594 64.109375 C 171.609375 64.339844 171.636719 64.566406 171.582031 67.257812 C 171.519531 70.214844 171.390625 70.574219 170.652344 69.753906 Z M 182.484375 68.511719 C 181.9375 67.601562 181.246094 64.28125 181.347656 63.058594 C 181.457031 61.769531 182.0625 61.6875 182.660156 62.875 C 183.558594 64.652344 183.996094 69.226562 183.265625 69.226562 C 183.078125 69.226562 182.730469 68.914062 182.484375 68.511719 Z M 79.296875 68.683594 C 78.351562 67.535156 77.726562 62.347656 78.421875 61.425781 C 78.65625 61.117188 78.851562 61.039062 79.007812 61.195312 C 79.339844 61.527344 79.722656 64.164062 79.726562 66.125 C 79.726562 67.046875 79.828125 68.066406 79.949219 68.394531 C 80.125 68.855469 80.101562 68.992188 79.863281 68.992188 C 79.695312 68.996094 79.449219 68.863281 79.296875 68.683594 Z M 188.53125 65.695312 C 187.542969 64.617188 186.921875 60.832031 187.539062 59.664062 C 187.839844 59.101562 188.597656 59.082031 188.886719 59.632812 C 189.210938 60.238281 189.445312 64.300781 189.21875 65.34375 L 189.027344 66.234375 Z M 74.347656 65.023438 C 72.925781 63.894531 72.320312 57.933594 73.625 57.933594 C 74.210938 57.933594 74.558594 58.976562 74.882812 61.703125 C 75.390625 66.003906 75.414062 65.871094 74.347656 65.023438 Z M 192.292969 64.808594 C 191.085938 63.359375 190.320312 59.984375 191.03125 59.261719 C 191.476562 58.8125 192.132812 58.941406 192.351562 59.519531 C 192.53125 59.992188 192.726562 61.21875 193.179688 64.632812 C 193.320312 65.679688 193.066406 65.734375 192.292969 64.808594 Z M 162.421875 58.191406 C 169.652344 57.652344 171.417969 57.449219 179.773438 56.183594 C 187.128906 55.070312 187.359375 55.015625 188.238281 54.3125 C 188.738281 53.914062 189.144531 53.5 189.144531 53.394531 C 189.144531 52.5625 181.679688 50.15625 176.144531 49.203125 C 168.480469 47.878906 153.828125 46.214844 146.414062 45.824219 C 144.894531 45.742188 141.402344 45.523438 138.652344 45.339844 C 132.363281 44.914062 106.699219 44.832031 102.070312 45.226562 C 98.40625 45.535156 92.300781 46.261719 89.054688 46.769531 C 80.910156 48.042969 74.179688 50.078125 71.894531 51.949219 L 71.320312 52.417969 L 72.632812 53.003906 C 75.503906 54.289062 78.457031 54.785156 86.675781 55.371094 C 89.503906 55.574219 94.515625 55.996094 97.808594 56.308594 C 106.140625 57.101562 105.949219 57.089844 114.164062 57.472656 C 120.34375 57.761719 128.785156 58.222656 134.894531 58.601562 C 138.449219 58.824219 157.742188 58.535156 162.421875 58.191406 Z M 162.421875 58.191406 " fill-opacity="1" fill-rule="evenodd"/><g clip-path="url(#d03b2d8013)"><path fill="#a9a0f0" d="M 162.863281 177.136719 C 162.757812 177.011719 162.589844 176.953125 162.425781 176.992188 C 162.304688 177.023438 161.605469 177.191406 160.527344 177.472656 C 162.058594 175.46875 162.332031 173.746094 161.347656 172.238281 C 160.363281 170.726562 158.679688 170.285156 156.230469 170.871094 C 156.917969 170.003906 157.355469 169.433594 157.429688 169.332031 C 157.53125 169.203125 157.546875 169.023438 157.476562 168.875 C 157.402344 168.726562 157.253906 168.632812 157.085938 168.628906 C 156.964844 168.625 148.09375 168.601562 139.097656 172.820312 C 140.746094 162.589844 137.902344 153.601562 137.867188 153.484375 C 137.8125 153.324219 137.679688 153.210938 137.515625 153.183594 C 137.351562 153.160156 137.1875 153.230469 137.089844 153.363281 C 137.019531 153.46875 136.605469 154.054688 135.980469 154.96875 C 135.8125 152.457031 134.882812 150.980469 133.148438 150.492188 C 131.417969 150.003906 129.855469 150.78125 128.398438 152.839844 C 128.34375 151.726562 128.296875 151.007812 128.289062 150.882812 C 128.277344 150.71875 128.171875 150.574219 128.019531 150.507812 C 127.867188 150.445312 127.691406 150.472656 127.566406 150.578125 C 127.4375 150.691406 114.714844 161.726562 113.894531 177.253906 C 113.769531 179.671875 114.28125 182.019531 115.375 184.046875 C 116.609375 186.339844 118.753906 189.257812 121.964844 190.164062 C 122.6875 190.367188 123.414062 190.453125 124.136719 190.453125 C 124.585938 190.453125 125.027344 190.410156 125.46875 190.347656 C 125.5625 191.867188 125.945312 193.40625 126.824219 194.753906 C 128.644531 197.546875 132.074219 198.722656 134.628906 199.21875 C 135.394531 199.367188 136.175781 199.441406 136.960938 199.441406 C 138.496094 199.441406 140.054688 199.160156 141.554688 198.601562 C 156.128906 193.183594 162.867188 177.746094 162.933594 177.589844 C 162.996094 177.4375 162.972656 177.261719 162.863281 177.136719 Z M 160.613281 172.714844 C 161.183594 173.589844 161.632812 175.074219 159.058594 177.863281 C 155.644531 178.789062 150.304688 180.355469 146.199219 182.117188 C 149.472656 179.066406 153.058594 174.8125 155.28125 172.058594 C 157.972656 171.136719 159.722656 171.347656 160.613281 172.714844 Z M 122.203125 189.320312 C 119.289062 188.496094 117.300781 185.773438 116.144531 183.632812 C 115.128906 181.746094 114.652344 179.554688 114.773438 177.300781 C 115.460938 164.207031 124.855469 154.355469 127.46875 151.863281 C 127.648438 155.1875 128.136719 166.65625 126.679688 171.824219 C 126.675781 171.835938 126.675781 171.847656 126.675781 171.859375 C 126.570312 172.273438 125.046875 178.402344 124.90625 182.121094 C 124.894531 182.363281 125.085938 182.566406 125.324219 182.574219 C 125.332031 182.574219 125.335938 182.574219 125.34375 182.574219 C 125.578125 182.574219 125.773438 182.390625 125.78125 182.152344 C 125.921875 178.480469 127.515625 172.113281 127.53125 172.046875 C 127.53125 172.042969 127.53125 172.042969 127.53125 172.039062 C 129.003906 166.863281 135.394531 157.363281 137.28125 154.628906 C 138.203125 158.117188 141.074219 171.414062 134.820312 182.949219 C 133.742188 184.9375 132.191406 186.554688 130.339844 187.632812 C 128.234375 188.855469 125.117188 190.140625 122.203125 189.320312 Z M 132.910156 151.335938 C 134.484375 151.777344 135.207031 153.382812 135.132812 156.230469 C 133.167969 159.171875 130.175781 163.867188 128.242188 167.898438 C 128.699219 163.457031 128.601562 157.894531 128.464844 154.359375 C 130.355469 151.066406 131.90625 151.054688 132.910156 151.335938 Z M 141.25 197.777344 C 139.132812 198.566406 136.902344 198.765625 134.796875 198.359375 C 132.40625 197.894531 129.214844 196.8125 127.558594 194.277344 C 126.753906 193.042969 126.414062 191.609375 126.335938 190.191406 C 128.007812 189.820312 129.558594 189.101562 130.78125 188.390625 C 132.773438 187.234375 134.4375 185.496094 135.589844 183.367188 C 137.277344 180.257812 138.308594 177.023438 138.910156 173.882812 C 146.25 170.285156 153.644531 169.644531 156.167969 169.53125 C 154.121094 172.148438 146.960938 181.082031 142.460938 184.03125 C 142.457031 184.035156 142.457031 184.03125 142.453125 184.035156 C 142.398438 184.070312 136.792969 187.492188 133.332031 188.722656 C 133.101562 188.804688 132.984375 189.054688 133.0625 189.28125 C 133.128906 189.460938 133.296875 189.574219 133.476562 189.574219 C 133.527344 189.574219 133.574219 189.566406 133.625 189.546875 C 137.152344 188.292969 142.609375 184.964844 142.902344 184.789062 C 142.90625 184.785156 142.914062 184.785156 142.917969 184.78125 C 147.417969 181.847656 158.511719 178.890625 161.738281 178.066406 C 160.136719 181.304688 153.539062 193.210938 141.25 197.777344 Z M 141.25 197.777344 " fill-opacity="1" fill-rule="nonzero"/></g><path fill="#a9a0f0" d="M 149.46875 190.519531 C 149.554688 190.519531 149.640625 190.496094 149.714844 190.445312 C 155.5 186.445312 157.042969 182.515625 157.105469 182.351562 C 157.191406 182.125 157.078125 181.871094 156.855469 181.785156 C 156.628906 181.699219 156.375 181.8125 156.289062 182.039062 C 156.273438 182.078125 154.757812 185.890625 149.21875 189.722656 C 149.019531 189.859375 148.96875 190.132812 149.105469 190.332031 C 149.191406 190.457031 149.328125 190.519531 149.46875 190.519531 Z M 149.46875 190.519531 " fill-opacity="1" fill-rule="nonzero"/><path fill="#a9a0f0" d="M 143.398438 194.101562 C 143.441406 194.101562 143.480469 194.097656 143.519531 194.085938 C 145.207031 193.609375 147.089844 192.164062 147.171875 192.101562 C 147.363281 191.953125 147.398438 191.679688 147.25 191.488281 C 147.101562 191.296875 146.828125 191.261719 146.636719 191.410156 C 146.617188 191.421875 144.804688 192.8125 143.28125 193.242188 C 143.050781 193.304688 142.914062 193.546875 142.980469 193.78125 C 143.03125 193.976562 143.207031 194.101562 143.398438 194.101562 Z M 143.398438 194.101562 " fill-opacity="1" fill-rule="nonzero"/><path fill="#a9a0f0" d="M 125.304688 158.25 C 125.496094 158.097656 125.527344 157.824219 125.378906 157.632812 C 125.226562 157.445312 124.953125 157.410156 124.761719 157.5625 C 124.625 157.667969 121.335938 160.316406 119.246094 167.03125 C 119.171875 167.261719 119.300781 167.507812 119.535156 167.578125 C 119.578125 167.59375 119.621094 167.597656 119.664062 167.597656 C 119.851562 167.597656 120.023438 167.476562 120.082031 167.289062 C 122.085938 160.859375 125.273438 158.273438 125.304688 158.25 Z M 125.304688 158.25 " fill-opacity="1" fill-rule="nonzero"/><path fill="#a9a0f0" d="M 118.984375 169.695312 C 118.757812 169.609375 118.507812 169.726562 118.421875 169.953125 C 118.386719 170.046875 117.570312 172.28125 117.621094 174.03125 C 117.628906 174.269531 117.820312 174.457031 118.058594 174.457031 C 118.0625 174.457031 118.066406 174.457031 118.070312 174.457031 C 118.3125 174.449219 118.503906 174.246094 118.496094 174.003906 C 118.449219 172.425781 119.238281 170.28125 119.246094 170.257812 C 119.328125 170.03125 119.210938 169.777344 118.984375 169.695312 Z M 118.984375 169.695312 " fill-opacity="1" fill-rule="nonzero"/></svg>