<svg xmlns="http://www.w3.org/2000/svg" xmlns:xlink="http://www.w3.org/1999/xlink" width="400" zoomAndPan="magnify" viewBox="0 0 300 299.999988" height="400" preserveAspectRatio="xMidYMid meet" version="1.0"><defs><clipPath id="976f9e64d5"><path d="M 161 60 L 269.996094 60 L 269.996094 216 L 161 216 Z M 161 60 " clip-rule="nonzero"/></clipPath></defs><path fill="#a9a0f0" d="M 172.105469 199.433594 C 171.15625 200.273438 170.007812 201.109375 168.648438 201.996094 C 160.820312 207.113281 147.1875 213.273438 133.675781 218.972656 C 120.207031 224.648438 106.984375 229.820312 98.132812 233.125 L 98.125 233.128906 C 89.121094 236.488281 85.007812 237.746094 81.945312 237.21875 C 80.007812 236.890625 78.410156 235.820312 76.828125 234.371094 L 76.832031 234.371094 C 75.976562 233.585938 75.128906 232.691406 74.234375 231.742188 C 73.753906 231.226562 72.941406 231.199219 72.425781 231.679688 C 72.160156 231.933594 72.023438 232.273438 72.023438 232.617188 C 72.023438 232.867188 71.898438 232.871094 72.050781 233.089844 C 72.050781 233.089844 72.324219 233.445312 72.371094 233.492188 C 74.773438 236.054688 77.53125 239.0625 81.511719 239.742188 C 85.414062 240.410156 90.289062 238.785156 99.015625 235.527344 L 99.023438 235.523438 C 107.902344 232.207031 121.164062 227.023438 134.671875 221.328125 C 148.148438 215.644531 161.996094 209.402344 170.046875 204.140625 C 171.613281 203.121094 173.007812 202.101562 174.191406 200.992188 C 174.828125 200.390625 175.40625 199.761719 175.910156 199.089844 C 175.226562 198.578125 174.542969 198.070312 173.859375 197.558594 C 173.375 198.203125 172.789062 198.820312 172.105469 199.433594 " fill-opacity="1" fill-rule="nonzero"/><path fill="#a9a0f0" d="M 103.953125 112.046875 L 103.957031 112.042969 L 103.953125 112.046875 " fill-opacity="1" fill-rule="nonzero"/><path fill="#a9a0f0" d="M 118.671875 189.53125 C 119.609375 190.296875 120.136719 191.597656 120.605469 192.671875 C 121.371094 194.433594 122.003906 196.242188 122.6875 198.03125 C 123.160156 199.265625 123.792969 200.636719 123.792969 201.984375 C 123.792969 202.144531 123.78125 202.277344 123.757812 202.394531 C 123.582031 203.253906 122.6875 203.945312 119.679688 205.363281 C 116.808594 206.714844 113.050781 208.304688 110.871094 208.402344 C 109.265625 208.476562 108.632812 207.769531 107.277344 204.976562 C 106.519531 203.410156 105.8125 201.8125 105.214844 200.179688 C 104.714844 198.820312 104.152344 197.289062 104.222656 195.820312 C 104.300781 194.246094 106.160156 193.632812 107.359375 193.109375 C 109.433594 192.214844 111.484375 191.257812 113.5625 190.371094 C 113.695312 190.316406 113.832031 190.257812 113.964844 190.203125 C 116.570312 189.101562 117.773438 188.796875 118.671875 189.53125 Z M 113.011719 187.949219 C 110.867188 188.855469 108.714844 189.753906 106.601562 190.738281 C 105.207031 191.386719 103.609375 192.019531 102.640625 193.285156 C 101.5 194.773438 101.6875 196.753906 102.117188 198.464844 C 102.578125 200.3125 103.292969 202.09375 104.058594 203.835938 C 104.382812 204.578125 104.726562 205.3125 105.078125 206.042969 C 106.375 208.726562 107.644531 211 110.984375 210.847656 C 113.75 210.71875 117.976562 208.867188 120.722656 207.574219 C 123.335938 206.34375 125.6875 205.183594 126.15625 202.878906 C 126.214844 202.582031 126.242188 202.28125 126.242188 201.984375 C 126.242188 200.378906 125.46875 198.441406 124.730469 196.523438 C 124.609375 196.203125 124.496094 195.917969 124.371094 195.585938 C 124.25 195.269531 124.179688 195.082031 124.054688 194.757812 C 123.941406 194.441406 123.847656 194.199219 123.726562 193.878906 C 122.878906 191.652344 121.792969 188.921875 120.222656 187.636719 C 117.96875 185.792969 115.15625 187.042969 113.011719 187.949219 " fill-opacity="1" fill-rule="nonzero"/><path fill="#a9a0f0" d="M 126.148438 202.917969 L 126.152344 202.894531 Z M 126.148438 202.917969 " fill-opacity="1" fill-rule="nonzero"/><path fill="#a9a0f0" d="M 59.109375 187.898438 C 59.132812 188.019531 59.171875 188.191406 59.238281 188.417969 L 59.234375 188.402344 C 59.304688 188.628906 59.410156 188.945312 59.554688 189.351562 C 59.796875 190.019531 59.449219 190.757812 58.78125 191 C 58.113281 191.238281 57.375 190.890625 57.136719 190.222656 C 56.972656 189.777344 56.851562 189.417969 56.769531 189.144531 L 56.765625 189.125 C 56.675781 188.820312 56.617188 188.566406 56.578125 188.367188 C 56.449219 187.671875 56.910156 187 57.609375 186.871094 C 58.308594 186.742188 58.976562 187.199219 59.109375 187.898438 " fill-opacity="1" fill-rule="nonzero"/><path fill="#a9a0f0" d="M 144.285156 189.722656 L 144.277344 189.738281 L 144.277344 189.742188 L 144.285156 189.722656 C 144.109375 190.167969 143.902344 190.65625 143.664062 191.191406 C 143.375 191.839844 142.613281 192.132812 141.964844 191.84375 C 141.316406 191.554688 141.023438 190.792969 141.3125 190.144531 C 141.535156 189.644531 141.730469 189.191406 141.890625 188.78125 L 141.894531 188.761719 L 141.894531 188.757812 C 142.152344 188.117188 142.898438 187.792969 143.558594 188.054688 C 144.21875 188.3125 144.546875 189.058594 144.285156 189.722656 " fill-opacity="1" fill-rule="nonzero"/><path fill="#a9a0f0" d="M 148.089844 189.890625 L 147.96875 190.277344 C 147.757812 190.957031 147.035156 191.335938 146.359375 191.125 C 145.679688 190.910156 145.300781 190.191406 145.511719 189.511719 L 145.632812 189.125 C 145.84375 188.449219 146.566406 188.066406 147.246094 188.28125 C 147.921875 188.492188 148.300781 189.214844 148.089844 189.890625 " fill-opacity="1" fill-rule="nonzero"/><path fill="#a9a0f0" d="M 99.34375 153.832031 C 99.28125 153.933594 99.226562 154.039062 99.175781 154.132812 L 99.1875 154.105469 L 98.863281 154.78125 C 98.550781 155.421875 97.785156 155.6875 97.144531 155.378906 C 96.503906 155.070312 96.238281 154.300781 96.546875 153.660156 L 96.871094 152.988281 L 96.886719 152.960938 C 96.960938 152.8125 97.042969 152.664062 97.132812 152.511719 C 97.496094 151.902344 98.289062 151.703125 98.894531 152.066406 C 99.507812 152.429688 99.707031 153.222656 99.34375 153.832031 " fill-opacity="1" fill-rule="nonzero"/><path fill="#a9a0f0" d="M 53.164062 140.125 C 53.039062 140.539062 52.90625 141.066406 52.761719 141.714844 C 52.605469 142.410156 51.917969 142.847656 51.226562 142.691406 C 50.53125 142.539062 50.09375 141.851562 50.246094 141.160156 C 50.40625 140.441406 50.558594 139.84375 50.707031 139.363281 C 50.914062 138.6875 51.636719 138.308594 52.316406 138.515625 C 52.996094 138.722656 53.375 139.445312 53.164062 140.125 " fill-opacity="1" fill-rule="nonzero"/><path fill="#a9a0f0" d="M 127.019531 99.871094 C 127.625 100.320312 128.175781 100.898438 128.671875 101.609375 L 128.652344 101.585938 C 128.972656 102.019531 129.347656 102.734375 129.789062 103.734375 C 130.078125 104.386719 129.78125 105.144531 129.128906 105.433594 C 128.480469 105.71875 127.71875 105.421875 127.433594 104.769531 C 127.070312 103.941406 126.785156 103.386719 126.578125 103.109375 L 126.5625 103.078125 C 126.226562 102.601562 125.867188 102.21875 125.484375 101.933594 C 124.914062 101.511719 124.796875 100.703125 125.21875 100.136719 C 125.640625 99.5625 126.449219 99.445312 127.019531 99.871094 " fill-opacity="1" fill-rule="nonzero"/><path fill="#a9a0f0" d="M 96.625 108.628906 C 96.496094 108.816406 96.285156 109.136719 95.996094 109.585938 C 95.609375 110.183594 94.8125 110.351562 94.214844 109.964844 C 93.617188 109.578125 93.449219 108.785156 93.832031 108.1875 C 94.140625 107.71875 94.363281 107.378906 94.503906 107.171875 C 94.90625 106.585938 95.707031 106.4375 96.292969 106.839844 C 96.878906 107.242188 97.027344 108.042969 96.625 108.628906 " fill-opacity="1" fill-rule="nonzero"/><path fill="#a9a0f0" d="M 78.363281 188.230469 L 78.367188 188.226562 L 78.363281 188.230469 L 78.363281 188.234375 C 78.136719 188.746094 77.957031 189.171875 77.820312 189.511719 C 77.554688 190.167969 76.808594 190.492188 76.148438 190.230469 C 75.488281 189.964844 75.167969 189.214844 75.433594 188.554688 C 75.582031 188.183594 75.773438 187.734375 76.007812 187.195312 L 76.007812 187.203125 L 76.007812 187.195312 C 76.296875 186.542969 77.054688 186.246094 77.707031 186.53125 C 78.355469 186.820312 78.652344 187.582031 78.363281 188.230469 " fill-opacity="1" fill-rule="nonzero"/><path fill="#a9a0f0" d="M 88.039062 122.5625 L 88.042969 122.566406 C 88.042969 122.566406 88.046875 122.566406 88.046875 122.566406 L 88.039062 122.5625 " fill-opacity="1" fill-rule="nonzero"/><path fill="#a9a0f0" d="M 86.007812 121.722656 C 85.734375 121.710938 85.457031 121.738281 85.191406 121.800781 L 85.148438 121.8125 C 84.652344 121.949219 84.1875 122.148438 83.746094 122.414062 C 83.136719 122.777344 82.9375 123.570312 83.304688 124.175781 C 83.667969 124.789062 84.457031 124.984375 85.070312 124.621094 C 85.367188 124.441406 85.765625 124.246094 86.128906 124.367188 C 86.496094 124.492188 86.707031 124.882812 86.921875 125.175781 C 87.339844 125.746094 88.144531 125.875 88.71875 125.453125 C 89.472656 124.90625 89.289062 124.046875 88.800781 123.382812 C 88.253906 122.636719 87.515625 122.144531 86.667969 121.816406 C 86.699219 121.828125 86.730469 121.839844 86.761719 121.851562 C 86.515625 121.777344 86.261719 121.734375 86.007812 121.722656 " fill-opacity="1" fill-rule="nonzero"/><path fill="#a9a0f0" d="M 116.746094 93.367188 C 114.984375 93.703125 113.238281 94.121094 111.503906 94.582031 C 101.824219 97.152344 88.015625 102.339844 70.074219 110.152344 C 65.398438 112.15625 60.75 114.242188 56.171875 116.464844 C 52.464844 118.257812 48.796875 120.136719 45.222656 122.1875 C 42.472656 123.765625 39.769531 125.4375 37.226562 127.328125 C 34.1875 129.589844 30.128906 132.621094 30.050781 136.808594 C 30.007812 139.210938 30.882812 141.488281 31.539062 143.757812 C 32.148438 145.851562 32.820312 147.925781 33.523438 149.988281 C 34.40625 152.578125 35.339844 155.152344 36.296875 157.714844 C 37.449219 160.800781 38.640625 163.871094 39.855469 166.933594 C 41.28125 170.515625 42.734375 174.085938 44.207031 177.648438 C 45.898438 181.726562 47.613281 185.792969 49.347656 189.855469 C 51.300781 194.433594 53.277344 198.996094 55.273438 203.554688 C 56.523438 206.410156 57.792969 209.257812 59.039062 212.109375 C 60.914062 216.394531 62.886719 220.648438 65.199219 224.714844 C 66.628906 227.234375 68.179688 229.832031 70.269531 231.871094 C 71.992188 233.554688 74.457031 234.347656 76.835938 234.375 C 79.847656 234.40625 83.882812 233.511719 88.929688 231.691406 C 95.875 229.464844 114.910156 221.8125 146.042969 208.742188 C 157.019531 204.457031 164.207031 200.230469 167.613281 196.074219 C 168.195312 195.359375 168.664062 194.648438 169.023438 193.941406 C 168.3125 193.410156 167.609375 192.882812 166.902344 192.351562 C 166.5625 193.0625 166.097656 193.777344 165.507812 194.496094 C 165.910156 194.796875 165.910156 194.796875 165.511719 194.496094 C 162.316406 198.40625 155.492188 202.371094 145.042969 206.386719 C 139.492188 208.746094 133.929688 211.089844 128.363281 213.414062 C 123.589844 215.402344 118.8125 217.375 114.023438 219.320312 C 110.027344 220.941406 106.03125 222.542969 102.015625 224.109375 C 98.804688 225.359375 95.585938 226.59375 92.347656 227.773438 C 89.917969 228.664062 87.480469 229.527344 85.019531 230.320312 C 80.980469 231.625 76.105469 233.1875 72.367188 230.207031 C 70.5625 228.769531 69.265625 226.746094 68.210938 224.722656 C 64.964844 219.335938 59.109375 206.539062 50.648438 186.335938 C 42.144531 166.277344 36.46875 151.640625 33.628906 142.421875 C 33.046875 140.683594 32.753906 139.128906 32.753906 137.757812 C 32.753906 135.742188 33.386719 134.132812 34.648438 132.921875 C 37.640625 129.0625 48.625 122.773438 67.609375 114.058594 C 86.417969 105.519531 102.15625 99.632812 114.832031 96.402344 C 119.117188 95.3125 124.097656 94.398438 128.476562 97.398438 C 129.757812 98.273438 130.621094 99.632812 131.472656 100.898438 C 132.757812 102.8125 133.878906 104.832031 134.953125 106.867188 C 135.375 107.664062 135.804688 108.507812 136.253906 109.398438 C 136.824219 108.625 137.390625 107.859375 137.960938 107.101562 C 137.960938 107.101562 136.65625 104.585938 136.65625 104.585938 L 136.382812 104.058594 C 135.296875 101.953125 134.066406 99.894531 132.554688 98.0625 C 130.96875 96.128906 127.78125 92.957031 122.496094 92.695312 C 120.566406 92.597656 118.640625 93.003906 116.746094 93.367188 " fill-opacity="1" fill-rule="nonzero"/><path fill="#a9a0f0" d="M 126.113281 91.226562 L 124.40625 91.394531 C 123.253906 91.546875 122.085938 91.746094 120.898438 91.996094 C 119.148438 92.335938 109.667969 95.15625 109.570312 95.234375 L 110.089844 95.597656 C 109.832031 95.8125 111.089844 95.125 111.035156 95.578125 L 111.039062 95.640625 C 111.246094 96.535156 111.734375 96.9375 112.5 96.84375 C 115.703125 95.941406 117.550781 95.429688 118.054688 95.308594 C 120.917969 94.601562 122.601562 94.226562 123.105469 94.179688 C 124.179688 93.988281 125.222656 93.855469 126.226562 93.777344 L 127.253906 93.734375 L 127.703125 93.714844 C 128.664062 93.699219 129.585938 93.765625 130.457031 93.914062 C 131.203125 93.996094 132.152344 94.292969 133.300781 94.800781 C 134.308594 95.28125 135.324219 96.039062 136.335938 97.074219 C 137.265625 98.019531 138.277344 99.328125 139.371094 101 C 139.835938 101.710938 140.316406 102.488281 140.808594 103.328125 C 141.371094 102.585938 141.933594 101.855469 142.488281 101.136719 C 141.988281 100.316406 141.503906 99.558594 141.023438 98.863281 C 140.566406 98.199219 140.121094 97.589844 139.683594 97.039062 C 139.390625 96.566406 138.519531 95.644531 137.066406 94.261719 C 135.507812 92.832031 133.46875 91.878906 130.945312 91.402344 L 129.390625 91.214844 C 128.332031 91.136719 127.238281 91.140625 126.113281 91.226562 " fill-opacity="1" fill-rule="nonzero"/><path fill="#a9a0f0" d="M 116.410156 107.953125 C 117.617188 108.9375 118.234375 110.746094 118.773438 112.148438 C 119.296875 113.511719 119.824219 114.871094 120.347656 116.230469 C 120.839844 117.503906 121.429688 118.78125 121.523438 120.160156 C 121.660156 122.179688 118.875 123.101562 117.417969 123.785156 C 114.546875 125.136719 110.789062 126.722656 108.609375 126.824219 C 107.003906 126.898438 106.367188 126.191406 105.019531 123.398438 C 103.671875 120.613281 102.09375 116.847656 101.960938 114.761719 C 101.953125 114.664062 101.949219 114.574219 101.949219 114.488281 C 101.949219 113.957031 102.0625 113.621094 102.199219 113.382812 C 102.484375 112.875 103.007812 112.558594 103.925781 112.0625 C 106.652344 110.835938 109.359375 109.617188 111.703125 108.625 C 114.308594 107.523438 115.515625 107.21875 116.410156 107.953125 Z M 110.75 106.371094 C 108.367188 107.378906 105.605469 108.625 102.871094 109.851562 C 102.84375 109.867188 102.820312 109.878906 102.785156 109.898438 C 101.972656 110.335938 100.765625 110.953125 100.070312 112.171875 C 99.699219 112.832031 99.503906 113.597656 99.503906 114.492188 C 99.503906 114.628906 99.507812 114.773438 99.519531 114.917969 C 99.6875 117.566406 101.511719 121.769531 102.816406 124.464844 C 104.113281 127.148438 105.378906 129.421875 108.722656 129.269531 C 111.488281 129.140625 115.714844 127.289062 118.460938 125.996094 C 120.65625 124.964844 122.585938 123.996094 123.460938 122.457031 C 124.082031 121.367188 124.074219 120.019531 123.808594 118.824219 C 123.675781 118.21875 123.457031 117.628906 123.257812 117.042969 C 122.519531 114.917969 121.664062 112.839844 120.84375 110.746094 C 120.195312 109.09375 119.367188 107.214844 117.960938 106.058594 C 115.707031 104.214844 112.894531 105.464844 110.75 106.371094 " fill-opacity="1" fill-rule="nonzero"/><path fill="#a9a0f0" d="M 120.371094 129.246094 C 120 129.40625 119.621094 129.566406 119.234375 129.734375 C 117.421875 130.515625 115.625 131.320312 113.824219 132.128906 C 112.433594 132.753906 110.898438 133.371094 109.960938 134.636719 C 109.859375 134.769531 109.773438 134.90625 109.691406 135.050781 C 109.316406 135.707031 109.125 136.476562 109.125 137.371094 C 109.125 137.507812 109.128906 137.648438 109.136719 137.792969 C 109.296875 140.210938 110.824219 143.925781 112.082031 146.601562 C 112.203125 146.859375 112.320312 147.105469 112.433594 147.339844 C 113.554688 149.648438 114.648438 151.65625 117.058594 152.074219 C 115.417969 150.234375 114.632812 148.679688 114.632812 146.679688 C 114.632812 146.554688 114.640625 146.421875 114.644531 146.289062 C 114.640625 146.285156 114.640625 146.28125 114.636719 146.277344 C 114.046875 145.054688 113.410156 143.644531 112.871094 142.269531 C 112.871094 142.28125 112.867188 142.292969 112.863281 142.300781 C 112.863281 142.308594 112.859375 142.316406 112.855469 142.324219 C 112.851562 142.339844 112.847656 142.351562 112.84375 142.367188 C 112.851562 142.332031 112.863281 142.300781 112.871094 142.269531 C 112.183594 140.511719 111.65625 138.808594 111.578125 137.636719 C 111.574219 137.542969 111.570312 137.453125 111.570312 137.367188 C 111.570312 136.835938 111.683594 136.492188 111.820312 136.257812 C 112.105469 135.75 112.628906 135.429688 113.546875 134.933594 C 114.746094 134.398438 115.9375 133.863281 117.101562 133.34375 C 118.492188 132.722656 119.839844 132.132812 121.085938 131.605469 C 121.484375 130.941406 121.902344 130.265625 122.328125 129.582031 C 122.339844 129.5625 122.347656 129.546875 122.359375 129.53125 C 122.367188 129.519531 122.375 129.511719 122.382812 129.5 C 122.644531 129.074219 122.917969 128.644531 123.191406 128.214844 C 122.195312 128.46875 121.230469 128.886719 120.371094 129.246094 " fill-opacity="1" fill-rule="nonzero"/><path fill="#a9a0f0" d="M 120.515625 158.054688 C 120.414062 158.234375 120.324219 158.425781 120.25 158.625 C 119.417969 160.863281 120.398438 163.429688 121.179688 165.53125 C 121.789062 167.171875 122.5 168.773438 123.261719 170.347656 C 124.5625 173.027344 125.828125 175.304688 129.167969 175.152344 C 131.390625 175.050781 134.554688 173.835938 137.140625 172.695312 C 137.773438 172.410156 138.367188 172.132812 138.910156 171.878906 C 139.183594 171.75 139.457031 171.617188 139.726562 171.488281 C 139.007812 170.921875 138.300781 170.355469 137.601562 169.792969 C 136.773438 170.175781 135.878906 170.578125 134.976562 170.960938 C 132.789062 171.867188 130.550781 172.640625 129.054688 172.707031 C 127.453125 172.78125 126.816406 172.074219 125.464844 169.28125 C 124.773438 167.851562 124.128906 166.402344 123.5625 164.917969 C 123.1875 163.9375 122.820312 162.945312 122.597656 161.914062 C 122.421875 161.089844 122.203125 160.042969 122.644531 159.265625 C 122.859375 158.886719 123.203125 158.613281 123.746094 158.292969 C 123.078125 157.714844 122.441406 157.160156 121.835938 156.621094 C 121.34375 156.980469 120.863281 157.441406 120.515625 158.054688 " fill-opacity="1" fill-rule="nonzero"/><path fill="#a9a0f0" d="M 146.296875 177.945312 C 147.03125 178.542969 149.382812 184.035156 149.855469 185.246094 C 150.363281 186.542969 150.878906 187.835938 151.234375 189.179688 C 151.519531 190.238281 151.421875 191.289062 150.515625 192 C 149.5625 192.753906 148.398438 193.261719 147.308594 193.773438 C 144.4375 195.128906 140.675781 196.714844 138.496094 196.816406 C 136.890625 196.890625 136.257812 196.179688 134.90625 193.386719 C 133.558594 190.605469 131.984375 186.839844 131.847656 184.75 C 131.839844 184.652344 131.839844 184.566406 131.839844 184.480469 C 131.839844 183.949219 131.949219 183.609375 132.085938 183.371094 C 132.375 182.863281 132.898438 182.542969 133.820312 182.046875 C 136.546875 180.820312 139.246094 179.605469 141.59375 178.613281 C 142.398438 178.273438 143.070312 178.011719 143.640625 177.828125 C 144.914062 177.425781 145.679688 177.4375 146.296875 177.945312 Z M 141.375 176.054688 C 141.125 176.15625 140.878906 176.261719 140.640625 176.363281 C 138.253906 177.371094 135.507812 178.605469 132.777344 179.835938 L 132.757812 179.84375 C 132.734375 179.855469 132.710938 179.867188 132.679688 179.882812 C 131.871094 180.320312 130.65625 180.9375 129.960938 182.164062 C 129.585938 182.820312 129.390625 183.585938 129.390625 184.480469 C 129.390625 184.621094 129.398438 184.761719 129.40625 184.910156 C 129.578125 187.558594 131.398438 191.757812 132.703125 194.453125 C 134 197.136719 135.269531 199.414062 138.609375 199.257812 C 141.375 199.128906 145.601562 197.28125 148.351562 195.988281 C 150.542969 194.957031 152.472656 193.988281 153.351562 192.449219 C 153.554688 192.089844 153.699219 191.703125 153.78125 191.292969 C 153.835938 191.007812 153.863281 190.714844 153.863281 190.414062 C 153.863281 189.042969 153.394531 187.691406 152.921875 186.417969 C 152.5 185.269531 152.054688 184.128906 151.617188 182.988281 C 151.414062 182.464844 151.21875 181.941406 151.015625 181.417969 C 150.910156 181.144531 150.800781 180.878906 150.6875 180.609375 C 150.609375 180.417969 150.496094 179.917969 150.339844 179.792969 C 148.449219 178.339844 146.585938 176.894531 144.753906 175.460938 C 144.625 175.355469 144.496094 175.253906 144.363281 175.152344 C 143.335938 175.289062 142.3125 175.667969 141.375 176.054688 " fill-opacity="1" fill-rule="nonzero"/><path fill="#a9a0f0" d="M 119.15625 199.4375 C 118.980469 199.644531 118.90625 199.890625 118.859375 200.144531 C 118.832031 200.304688 118.8125 200.46875 118.796875 200.628906 C 118.753906 200.976562 118.628906 201.25 118.328125 201.445312 C 118.046875 201.625 117.710938 201.734375 117.515625 202.019531 C 117.246094 202.425781 117.226562 202.957031 117.464844 203.375 C 117.816406 203.992188 118.601562 204.210938 119.21875 203.859375 C 120.554688 203.105469 121.925781 201.46875 121.351562 199.839844 C 121.1875 199.371094 120.757812 199.035156 120.265625 198.988281 C 119.847656 198.941406 119.425781 199.117188 119.15625 199.4375 " fill-opacity="1" fill-rule="nonzero"/><path fill="#a9a0f0" d="M 108.523438 165.351562 C 109.730469 166.199219 110.3125 168.105469 110.847656 169.355469 C 111.808594 171.59375 112.605469 173.902344 113.371094 176.21875 C 113.613281 176.9375 113.84375 177.730469 113.5625 178.4375 C 113.289062 179.125 112.597656 179.535156 111.949219 179.890625 C 108.726562 181.652344 105.367188 183.234375 101.785156 184.039062 C 101.039062 184.207031 100.226562 184.335938 99.53125 184.023438 C 98.890625 183.734375 98.457031 183.121094 98.097656 182.519531 C 97.242188 181.101562 96.59375 179.574219 95.941406 178.050781 C 95.164062 176.230469 94.382812 174.378906 94.152344 172.410156 C 94.085938 171.851562 94.074219 171.253906 94.328125 170.75 C 94.679688 170.050781 95.453125 169.683594 96.167969 169.367188 C 99.003906 168.121094 101.835938 166.871094 104.671875 165.625 C 105.460938 165.277344 106.28125 164.921875 107.144531 164.917969 C 107.683594 164.914062 108.136719 165.078125 108.523438 165.351562 Z M 102.890625 163.734375 C 100.5 164.746094 97.746094 165.984375 95.007812 167.214844 C 94.984375 167.230469 94.957031 167.242188 94.933594 167.253906 C 93.632812 167.953125 91.644531 168.976562 91.644531 171.855469 C 91.644531 171.988281 91.648438 172.136719 91.65625 172.28125 C 91.828125 174.929688 93.648438 179.128906 94.953125 181.824219 C 96.25 184.507812 97.515625 186.785156 100.859375 186.632812 C 103.625 186.503906 107.851562 184.652344 110.601562 183.359375 C 112.566406 182.433594 115.160156 181.371094 115.910156 179.125 C 116.324219 177.875 116 176.527344 115.660156 175.292969 C 115.429688 174.445312 115.136719 173.621094 114.8125 172.804688 C 114.125 171.050781 113.5 169.269531 112.753906 167.539062 C 112.117188 166.074219 111.363281 164.460938 110.097656 163.421875 C 107.84375 161.578125 105.03125 162.828125 102.890625 163.734375 " fill-opacity="1" fill-rule="nonzero"/><path fill="#a9a0f0" d="M 98.671875 142.160156 L 98.667969 142.160156 C 99.625 142.945312 100.507812 144.9375 101.4375 147.386719 C 101.542969 147.664062 101.660156 147.96875 101.765625 148.246094 C 101.882812 148.566406 101.960938 148.761719 102.078125 149.078125 L 102.082031 149.085938 C 102.191406 149.375 102.339844 149.765625 102.445312 150.035156 C 103.261719 152.140625 103.792969 153.574219 103.792969 154.613281 C 103.792969 154.773438 103.777344 154.910156 103.753906 155.023438 C 103.578125 155.882812 102.683594 156.578125 99.679688 157.992188 C 96.808594 159.34375 93.046875 160.933594 90.867188 161.035156 C 89.265625 161.105469 88.628906 160.398438 87.273438 157.605469 C 85.929688 154.824219 84.351562 151.054688 84.21875 148.96875 C 84.214844 148.871094 84.207031 148.785156 84.207031 148.699219 C 84.207031 147.394531 84.851562 146.984375 86.175781 146.273438 C 88.90625 145.046875 91.617188 143.824219 93.964844 142.832031 C 96.570312 141.730469 97.773438 141.429688 98.671875 142.160156 Z M 93.011719 140.578125 C 90.621094 141.589844 87.867188 142.828125 85.132812 144.0625 C 85.105469 144.074219 85.078125 144.085938 85.050781 144.101562 L 85.054688 144.101562 L 85.039062 144.109375 L 85.035156 144.109375 C 83.738281 144.8125 81.765625 145.832031 81.765625 148.699219 C 81.765625 148.835938 81.769531 148.980469 81.777344 149.125 C 81.949219 151.773438 83.769531 155.976562 85.074219 158.671875 C 86.375 161.355469 87.640625 163.632812 90.980469 163.476562 C 93.746094 163.351562 97.972656 161.5 100.722656 160.207031 C 103.335938 158.976562 105.6875 157.816406 106.152344 155.507812 L 106.152344 155.511719 C 106.210938 155.210938 106.238281 154.910156 106.238281 154.613281 C 106.238281 153.007812 105.46875 151.070312 104.726562 149.15625 C 104.613281 148.855469 104.484375 148.527344 104.367188 148.214844 L 104.371094 148.226562 L 104.367188 148.214844 C 104.257812 147.933594 104.164062 147.679688 104.054688 147.386719 C 103.945312 147.101562 103.835938 146.804688 103.722656 146.511719 C 102.878906 144.285156 101.789062 141.554688 100.21875 140.269531 C 97.964844 138.425781 95.15625 139.675781 93.011719 140.578125 " fill-opacity="1" fill-rule="nonzero"/><path fill="#a9a0f0" d="M 88.90625 119.273438 C 89.863281 120.054688 90.742188 122.042969 91.671875 124.492188 C 91.777344 124.773438 91.894531 125.078125 92 125.355469 C 92.109375 125.648438 92.207031 125.910156 92.316406 126.199219 C 92.453125 126.550781 92.554688 126.8125 92.679688 127.144531 C 93.496094 129.253906 94.027344 130.6875 94.027344 131.726562 C 94.027344 131.886719 94.015625 132.019531 93.992188 132.136719 C 93.816406 132.996094 92.921875 133.691406 89.914062 135.105469 C 87.042969 136.457031 83.285156 138.046875 81.105469 138.144531 C 79.5 138.21875 78.863281 137.511719 77.511719 134.71875 C 76.164062 131.9375 74.589844 128.167969 74.453125 126.082031 C 74.449219 125.984375 74.445312 125.898438 74.445312 125.8125 C 74.445312 124.507812 75.089844 124.097656 76.414062 123.386719 C 79.144531 122.15625 81.851562 120.9375 84.199219 119.945312 C 86.804688 118.84375 88.007812 118.542969 88.90625 119.273438 Z M 83.246094 117.691406 C 80.855469 118.703125 78.105469 119.941406 75.367188 121.175781 C 75.339844 121.183594 75.3125 121.199219 75.289062 121.214844 C 73.988281 121.914062 72 122.933594 72 125.8125 C 72 125.949219 72.003906 126.09375 72.011719 126.238281 C 72.183594 128.886719 74.007812 133.089844 75.308594 135.785156 C 76.609375 138.46875 77.875 140.742188 81.214844 140.589844 C 83.980469 140.464844 88.210938 138.613281 90.957031 137.320312 C 93.570312 136.089844 95.921875 134.929688 96.386719 132.621094 C 96.449219 132.324219 96.472656 132.027344 96.472656 131.726562 C 96.472656 130.125 95.703125 128.179688 94.960938 126.265625 C 94.828125 125.914062 94.742188 125.691406 94.601562 125.328125 C 94.496094 125.042969 94.398438 124.792969 94.289062 124.496094 C 94.183594 124.210938 94.070312 123.914062 93.960938 123.621094 C 93.109375 121.394531 92.023438 118.667969 90.453125 117.382812 C 88.203125 115.539062 85.390625 116.789062 83.246094 117.691406 " fill-opacity="1" fill-rule="nonzero"/><path fill="#a9a0f0" d="M 90.898438 199.976562 C 91.785156 200.699219 92.292969 201.90625 92.746094 202.925781 C 93.460938 204.535156 94.039062 206.203125 94.671875 207.847656 C 95.484375 209.953125 96.019531 211.386719 96.019531 212.425781 C 96.019531 212.589844 96.003906 212.722656 95.980469 212.839844 C 95.808594 213.695312 94.914062 214.390625 91.90625 215.808594 C 89.035156 217.15625 85.273438 218.746094 83.09375 218.847656 C 81.492188 218.921875 80.855469 218.214844 79.503906 215.417969 C 78.15625 212.636719 76.582031 208.867188 76.449219 206.78125 C 76.441406 206.6875 76.4375 206.59375 76.4375 206.511719 C 76.4375 205.207031 77.082031 204.800781 78.40625 204.085938 C 81.132812 202.859375 83.847656 201.636719 86.191406 200.644531 C 88.796875 199.542969 90.003906 199.242188 90.898438 199.976562 Z M 91.925781 215.796875 L 91.921875 215.796875 Z M 92.929688 218.027344 L 92.933594 218.027344 Z M 85.238281 198.394531 C 82.847656 199.40625 80.09375 200.644531 77.359375 201.875 C 77.332031 201.886719 77.304688 201.898438 77.28125 201.914062 C 75.980469 202.613281 73.992188 203.636719 73.992188 206.511719 C 73.992188 206.648438 73.996094 206.796875 74.007812 206.9375 C 74.175781 209.585938 75.996094 213.785156 77.300781 216.480469 L 77.300781 216.484375 C 78.601562 219.167969 79.867188 221.445312 83.207031 221.289062 C 85.972656 221.164062 90.199219 219.3125 92.945312 218.019531 L 92.949219 218.019531 C 95.5625 216.789062 97.914062 215.628906 98.378906 213.320312 C 98.441406 213.023438 98.464844 212.726562 98.464844 212.425781 C 98.464844 210.820312 97.695312 208.882812 96.957031 206.964844 C 96.832031 206.648438 96.71875 206.355469 96.59375 206.027344 C 96.484375 205.730469 96.398438 205.503906 96.28125 205.199219 C 96.191406 204.949219 96.046875 204.578125 95.953125 204.324219 C 95.105469 202.097656 94.019531 199.367188 92.445312 198.082031 C 90.191406 196.238281 87.382812 197.488281 85.238281 198.394531 " fill-opacity="1" fill-rule="nonzero"/><path fill="#a9a0f0" d="M 80.316406 177.210938 C 81.269531 177.992188 82.152344 179.984375 83.082031 182.429688 C 83.203125 182.75 83.289062 182.972656 83.410156 183.296875 C 83.507812 183.5625 83.625 183.871094 83.726562 184.132812 C 83.851562 184.460938 83.972656 184.777344 84.089844 185.082031 C 84.902344 187.191406 85.4375 188.625 85.4375 189.664062 C 85.4375 189.824219 85.421875 189.960938 85.398438 190.074219 C 85.222656 190.933594 84.328125 191.625 81.324219 193.042969 C 78.453125 194.394531 74.691406 195.984375 72.511719 196.082031 C 70.910156 196.15625 70.273438 195.449219 68.921875 192.65625 L 68.917969 192.65625 C 67.574219 189.871094 65.996094 186.105469 65.863281 184.019531 C 65.855469 183.921875 65.851562 183.832031 65.851562 183.75 C 65.851562 182.445312 66.5 182.035156 67.820312 181.324219 C 70.550781 180.09375 73.257812 178.875 75.609375 177.882812 C 78.214844 176.78125 79.417969 176.480469 80.316406 177.210938 Z M 74.652344 175.628906 C 72.261719 176.640625 69.511719 177.878906 66.773438 179.109375 C 66.746094 179.125 66.722656 179.136719 66.695312 179.152344 C 65.398438 179.851562 63.40625 180.871094 63.40625 183.75 C 63.40625 183.886719 63.414062 184.03125 63.421875 184.175781 C 63.59375 186.824219 65.414062 191.023438 66.714844 193.71875 L 66.71875 193.722656 C 68.019531 196.40625 69.285156 198.679688 72.625 198.527344 C 75.390625 198.398438 79.617188 196.546875 82.363281 195.253906 C 84.976562 194.023438 87.332031 192.863281 87.796875 190.558594 C 87.855469 190.261719 87.882812 189.960938 87.882812 189.664062 C 87.882812 188.058594 87.113281 186.117188 86.371094 184.203125 C 86.25 183.886719 86.132812 183.589844 86.011719 183.265625 C 85.90625 182.996094 85.804688 182.71875 85.699219 182.4375 C 85.578125 182.113281 85.492188 181.886719 85.367188 181.5625 C 84.523438 179.335938 83.433594 176.601562 81.863281 175.320312 C 79.609375 173.472656 76.796875 174.722656 74.652344 175.628906 " fill-opacity="1" fill-rule="nonzero"/><path fill="#a9a0f0" d="M 64.710938 151.875 L 64.714844 151.875 Z M 70.367188 153.460938 C 71.320312 154.242188 72.203125 156.234375 73.136719 158.679688 C 73.242188 158.957031 73.359375 159.265625 73.460938 159.542969 C 73.574219 159.84375 73.667969 160.089844 73.777344 160.382812 C 73.886719 160.671875 74.039062 161.066406 74.140625 161.332031 C 74.957031 163.441406 75.488281 164.875 75.488281 165.914062 C 75.488281 166.074219 75.476562 166.207031 75.453125 166.324219 C 75.277344 167.183594 74.382812 167.875 71.375 169.289062 C 68.503906 170.644531 64.742188 172.230469 62.5625 172.332031 C 60.960938 172.40625 60.324219 171.695312 58.972656 168.90625 C 57.628906 166.121094 56.050781 162.355469 55.917969 160.265625 C 55.910156 160.167969 55.90625 160.082031 55.90625 159.996094 C 55.90625 158.695312 56.550781 158.285156 57.875 157.570312 C 60.601562 156.34375 63.3125 155.125 65.65625 154.132812 L 65.660156 154.128906 C 68.265625 153.027344 69.472656 152.726562 70.367188 153.460938 Z M 65.652344 154.132812 L 65.65625 154.132812 Z M 64.710938 151.875 L 64.707031 151.878906 C 62.316406 152.890625 59.5625 154.128906 56.828125 155.359375 C 56.800781 155.375 56.773438 155.382812 56.75 155.398438 C 55.449219 156.097656 53.460938 157.117188 53.460938 159.996094 C 53.460938 160.136719 53.464844 160.28125 53.472656 160.425781 C 53.644531 163.070312 55.464844 167.273438 56.769531 169.964844 L 56.773438 169.972656 C 58.070312 172.65625 59.335938 174.929688 62.675781 174.777344 C 65.441406 174.648438 69.671875 172.796875 72.417969 171.503906 C 75.03125 170.273438 77.382812 169.113281 77.847656 166.808594 C 77.910156 166.511719 77.933594 166.210938 77.933594 165.914062 C 77.933594 164.308594 77.164062 162.367188 76.425781 160.453125 C 76.308594 160.152344 76.183594 159.824219 76.0625 159.515625 C 75.960938 159.242188 75.859375 158.96875 75.75 158.683594 C 75.65625 158.425781 75.523438 158.078125 75.421875 157.8125 C 74.574219 155.585938 73.488281 152.851562 71.914062 151.566406 C 69.664062 149.722656 66.851562 150.972656 64.710938 151.875 " fill-opacity="1" fill-rule="nonzero"/><path fill="#a9a0f0" d="M 61.085938 131.078125 C 62.039062 131.859375 62.921875 133.847656 63.851562 136.292969 C 63.96875 136.597656 64.0625 136.855469 64.179688 137.160156 C 64.292969 137.472656 64.378906 137.695312 64.496094 138 C 64.632812 138.359375 64.730469 138.609375 64.859375 138.949219 C 65.671875 141.054688 66.207031 142.492188 66.207031 143.53125 C 66.207031 143.6875 66.191406 143.824219 66.167969 143.9375 C 65.996094 144.800781 65.097656 145.492188 62.09375 146.90625 C 59.222656 148.261719 55.460938 149.847656 53.28125 149.949219 C 51.679688 150.023438 51.042969 149.316406 49.691406 146.523438 C 48.34375 143.738281 46.769531 139.972656 46.632812 137.882812 L 46.632812 137.886719 C 46.625 137.789062 46.625 137.695312 46.625 137.617188 C 46.625 136.3125 47.269531 135.902344 48.589844 135.1875 C 51.320312 133.960938 54.03125 132.742188 56.378906 131.746094 C 58.984375 130.644531 60.1875 130.34375 61.085938 131.078125 Z M 55.425781 129.496094 C 53.035156 130.503906 50.289062 131.742188 47.550781 132.972656 L 47.554688 132.972656 L 47.546875 132.976562 C 47.519531 132.988281 47.492188 133 47.46875 133.015625 C 46.167969 133.714844 44.175781 134.734375 44.175781 137.617188 C 44.175781 137.75 44.183594 137.898438 44.191406 138.042969 C 44.363281 140.6875 46.183594 144.890625 47.488281 147.585938 L 47.488281 147.589844 C 48.789062 150.269531 50.054688 152.546875 53.394531 152.390625 C 56.160156 152.265625 60.386719 150.414062 63.132812 149.121094 C 65.746094 147.890625 68.101562 146.730469 68.566406 144.425781 L 68.566406 144.421875 C 68.625 144.125 68.652344 143.828125 68.652344 143.53125 C 68.652344 141.925781 67.878906 139.980469 67.140625 138.066406 C 67.007812 137.71875 66.917969 137.492188 66.78125 137.128906 C 66.671875 136.839844 66.582031 136.601562 66.46875 136.300781 C 66.34375 135.96875 66.265625 135.761719 66.136719 135.421875 C 65.292969 133.199219 64.203125 130.46875 62.632812 129.183594 C 60.378906 127.339844 57.566406 128.589844 55.425781 129.496094 " fill-opacity="1" fill-rule="nonzero"/><path fill="#a9a0f0" d="M 54.890625 141.429688 C 54.863281 141.777344 54.855469 142.125 54.863281 142.472656 C 54.871094 142.765625 54.871094 143.054688 55 143.320312 C 55.214844 143.773438 55.6875 144.0625 56.191406 144.050781 C 56.613281 144.039062 57.007812 143.820312 57.238281 143.46875 C 57.585938 142.9375 57.410156 142.21875 57.457031 141.617188 C 57.507812 140.910156 56.972656 140.292969 56.265625 140.242188 C 55.558594 140.191406 54.941406 140.722656 54.890625 141.429688 " fill-opacity="1" fill-rule="nonzero"/><path fill="#a9a0f0" d="M 155.136719 106.363281 C 156.347656 106.570312 158.09375 107.863281 160.105469 109.523438 C 160.335938 109.714844 160.589844 109.925781 160.816406 110.113281 C 161.042969 110.300781 161.28125 110.503906 161.503906 110.6875 C 161.769531 110.90625 162.039062 111.125 162.289062 111.332031 C 164.378906 113.042969 165.578125 114.082031 165.882812 115.011719 C 165.929688 115.164062 165.953125 115.3125 165.953125 115.46875 C 165.953125 116.304688 165.34375 117.417969 163.808594 119.59375 C 161.984375 122.183594 159.507812 125.410156 157.667969 126.570312 C 156.3125 127.425781 155.414062 127.125 152.863281 125.367188 C 150.324219 123.621094 147.101562 121.128906 145.957031 119.386719 C 145.578125 118.804688 145.488281 118.386719 145.488281 118.074219 C 145.488281 117.492188 145.78125 116.960938 146.328125 116.082031 C 148.089844 113.671875 149.839844 111.28125 151.386719 109.261719 C 153.101562 107.023438 153.996094 106.167969 155.136719 106.363281 Z M 149.449219 107.777344 C 147.878906 109.828125 146.097656 112.265625 144.332031 114.679688 C 144.3125 114.703125 144.300781 114.726562 144.285156 114.75 L 144.28125 114.753906 C 143.792969 115.53125 143.046875 116.667969 143.046875 118.074219 C 143.046875 118.945312 143.328125 119.820312 143.917969 120.722656 C 145.371094 122.933594 149.023438 125.683594 151.480469 127.375 C 153.929688 129.066406 156.148438 130.410156 158.96875 128.636719 C 161.304688 127.164062 164.058594 123.472656 165.804688 121 C 167.195312 119.023438 168.394531 117.234375 168.394531 115.46875 C 168.394531 115.058594 168.332031 114.648438 168.199219 114.25 C 167.613281 112.472656 165.640625 110.925781 163.832031 109.441406 C 163.578125 109.234375 163.320312 109.023438 163.058594 108.804688 C 162.835938 108.625 162.609375 108.433594 162.375 108.238281 C 162.164062 108.0625 161.878906 107.824219 161.660156 107.644531 C 159.828125 106.132812 157.542969 104.300781 155.546875 103.960938 C 152.683594 103.46875 150.863281 105.9375 149.449219 107.777344 " fill-opacity="1" fill-rule="nonzero"/><path fill="#a9a0f0" d="M 162.558594 91.386719 C 162.570312 91.363281 162.589844 91.339844 162.605469 91.316406 C 164.371094 88.902344 166.152344 86.464844 167.722656 84.414062 C 169.136719 82.570312 170.957031 80.105469 173.820312 80.59375 C 175.816406 80.933594 178.101562 82.765625 179.933594 84.277344 C 180.191406 84.492188 180.402344 84.667969 180.652344 84.875 C 180.902344 85.085938 181.085938 85.238281 181.332031 85.441406 C 181.589844 85.65625 181.855469 85.871094 182.105469 86.078125 C 183.917969 87.558594 185.886719 89.109375 186.472656 90.886719 C 186.605469 91.285156 186.667969 91.691406 186.667969 92.105469 C 186.667969 93.867188 185.46875 95.65625 184.078125 97.632812 C 182.332031 100.109375 179.578125 103.796875 177.242188 105.269531 C 174.417969 107.046875 172.203125 105.699219 169.753906 104.011719 C 167.292969 102.316406 163.644531 99.570312 162.191406 97.359375 C 161.601562 96.457031 161.320312 95.578125 161.320312 94.707031 C 161.320312 93.300781 162.066406 92.164062 162.558594 91.386719 L 162.550781 91.394531 Z M 164.621094 92.683594 L 164.628906 92.675781 L 164.621094 92.683594 C 164.0625 93.578125 163.757812 94.121094 163.757812 94.707031 C 163.757812 95.023438 163.851562 95.441406 164.230469 96.019531 C 165.375 97.765625 168.601562 100.253906 171.136719 102.003906 C 173.6875 103.757812 174.585938 104.058594 175.941406 103.207031 C 177.78125 102.046875 180.257812 98.816406 182.082031 96.230469 C 183.617188 94.054688 184.226562 92.9375 184.226562 92.105469 C 184.226562 91.945312 184.203125 91.796875 184.15625 91.648438 C 183.851562 90.71875 182.652344 89.675781 180.5625 87.964844 C 180.3125 87.761719 180.042969 87.539062 179.777344 87.320312 C 179.535156 87.121094 179.332031 86.953125 179.089844 86.75 C 178.84375 86.542969 178.625 86.363281 178.378906 86.160156 C 176.367188 84.496094 174.625 83.203125 173.410156 83 C 172.269531 82.804688 171.375 83.660156 169.660156 85.898438 C 168.105469 87.925781 166.34375 90.332031 164.574219 92.753906 L 164.621094 92.683594 " fill-opacity="1" fill-rule="nonzero"/><path fill="#a9a0f0" d="M 164.023438 129.789062 C 164.039062 129.765625 164.054688 129.742188 164.070312 129.722656 L 164.074219 129.714844 L 164.078125 129.710938 C 165.84375 127.300781 167.617188 124.867188 169.1875 122.816406 L 169.171875 122.839844 C 169.140625 122.886719 169.191406 122.816406 169.175781 122.832031 L 169.191406 122.816406 C 170.601562 120.972656 172.425781 118.507812 175.285156 118.996094 C 177.28125 119.335938 179.570312 121.167969 181.402344 122.679688 C 181.660156 122.898438 181.863281 123.066406 182.121094 123.277344 C 182.332031 123.453125 182.597656 123.675781 182.800781 123.84375 C 183.050781 124.050781 183.332031 124.277344 183.574219 124.480469 C 185.386719 125.960938 187.355469 127.511719 187.941406 129.289062 C 188.070312 129.6875 188.136719 130.089844 188.136719 130.503906 C 188.136719 132.269531 186.9375 134.058594 185.542969 136.035156 C 183.796875 138.511719 181.042969 142.199219 178.710938 143.667969 C 175.890625 145.449219 173.667969 144.101562 171.222656 142.414062 C 168.761719 140.71875 165.113281 137.972656 163.660156 135.761719 C 163.066406 134.859375 162.789062 133.980469 162.789062 133.105469 C 162.789062 131.703125 163.535156 130.566406 164.023438 129.789062 L 164.019531 129.796875 Z M 166.09375 131.085938 L 166.097656 131.074219 L 166.089844 131.085938 C 165.527344 131.980469 165.226562 132.523438 165.226562 133.105469 C 165.226562 133.421875 165.320312 133.84375 165.699219 134.417969 C 166.84375 136.164062 170.066406 138.65625 172.605469 140.402344 C 175.152344 142.160156 176.050781 142.460938 177.40625 141.605469 C 179.25 140.445312 181.726562 137.21875 183.550781 134.628906 C 185.085938 132.453125 185.695312 131.339844 185.695312 130.503906 C 185.695312 130.347656 185.671875 130.199219 185.621094 130.050781 C 185.316406 129.117188 184.121094 128.078125 182.03125 126.367188 C 181.777344 126.160156 181.511719 125.941406 181.246094 125.722656 C 181.042969 125.554688 180.761719 125.320312 180.554688 125.152344 C 180.292969 124.933594 180.113281 124.78125 179.847656 124.5625 C 177.835938 122.898438 176.089844 121.605469 174.878906 121.398438 C 173.738281 121.203125 172.84375 122.0625 171.125 124.300781 L 171.140625 124.285156 C 171.105469 124.328125 171.199219 124.203125 171.140625 124.28125 L 171.125 124.300781 C 169.574219 126.324219 167.8125 128.730469 166.046875 131.148438 L 166.050781 131.140625 L 166.046875 131.148438 L 166.09375 131.085938 " fill-opacity="1" fill-rule="nonzero"/><path fill="#a9a0f0" d="M 182.167969 106.484375 C 182.183594 106.460938 182.199219 106.4375 182.21875 106.414062 C 183.980469 104.003906 185.761719 101.5625 187.332031 99.511719 C 188.742188 97.671875 190.566406 95.203125 193.429688 95.691406 C 195.425781 96.03125 197.714844 97.863281 199.542969 99.378906 C 199.769531 99.5625 200.042969 99.792969 200.261719 99.972656 C 200.488281 100.164062 200.722656 100.355469 200.941406 100.539062 C 201.195312 100.746094 201.472656 100.976562 201.71875 101.175781 C 203.527344 102.65625 205.5 104.207031 206.082031 105.984375 C 206.214844 106.382812 206.277344 106.789062 206.277344 107.199219 C 206.277344 108.964844 205.082031 110.757812 203.6875 112.734375 C 201.941406 115.207031 199.1875 118.894531 196.851562 120.367188 C 194.03125 122.144531 191.8125 120.796875 189.363281 119.109375 C 186.90625 117.414062 183.257812 114.667969 181.804688 112.453125 C 181.210938 111.554688 180.929688 110.675781 180.929688 109.804688 C 180.929688 108.398438 181.679688 107.265625 182.164062 106.484375 L 182.160156 106.496094 Z M 184.234375 107.78125 L 184.238281 107.773438 L 184.234375 107.78125 C 183.671875 108.679688 183.371094 109.21875 183.371094 109.804688 C 183.371094 110.117188 183.464844 110.539062 183.839844 111.117188 C 184.984375 112.859375 188.210938 115.351562 190.746094 117.101562 C 193.296875 118.855469 194.195312 119.15625 195.550781 118.304688 C 197.390625 117.144531 199.867188 113.914062 201.695312 111.328125 C 203.226562 109.148438 203.839844 108.035156 203.839844 107.199219 C 203.839844 107.042969 203.816406 106.894531 203.765625 106.746094 C 203.460938 105.816406 202.265625 104.773438 200.171875 103.0625 C 199.917969 102.855469 199.65625 102.640625 199.390625 102.421875 C 199.164062 102.234375 198.925781 102.035156 198.699219 101.847656 C 198.472656 101.65625 198.21875 101.449219 197.988281 101.257812 C 195.976562 99.597656 194.234375 98.304688 193.019531 98.097656 C 191.878906 97.902344 190.984375 98.757812 189.269531 100.996094 C 187.71875 103.019531 185.957031 105.433594 184.183594 107.851562 L 184.234375 107.78125 " fill-opacity="1" fill-rule="nonzero"/><path fill="#a9a0f0" d="M 183.996094 145 C 184.011719 144.972656 184.027344 144.949219 184.042969 144.925781 C 185.808594 142.515625 187.59375 140.074219 189.164062 138.027344 C 190.574219 136.1875 192.398438 133.71875 195.257812 134.207031 C 197.253906 134.546875 199.542969 136.378906 201.371094 137.890625 C 201.609375 138.089844 201.859375 138.292969 202.089844 138.488281 C 202.296875 138.660156 202.574219 138.890625 202.769531 139.054688 C 203.03125 139.265625 203.296875 139.484375 203.546875 139.6875 C 205.355469 141.171875 207.328125 142.722656 207.910156 144.5 C 208.042969 144.898438 208.105469 145.304688 208.105469 145.714844 C 208.105469 147.480469 206.910156 149.269531 205.515625 151.246094 L 205.535156 151.21875 L 205.515625 151.246094 C 203.773438 153.722656 201.015625 157.410156 198.679688 158.878906 C 195.859375 160.660156 193.640625 159.3125 191.191406 157.621094 C 188.734375 155.929688 185.082031 153.183594 183.632812 150.972656 C 183.039062 150.070312 182.757812 149.191406 182.757812 148.316406 C 182.757812 146.914062 183.507812 145.777344 183.996094 145 Z M 186.0625 146.296875 C 185.5 147.191406 185.199219 147.734375 185.199219 148.316406 C 185.199219 148.632812 185.292969 149.054688 185.671875 149.628906 C 186.816406 151.375 190.039062 153.867188 192.578125 155.613281 C 195.125 157.371094 196.027344 157.671875 197.378906 156.816406 C 199.222656 155.65625 201.699219 152.429688 203.523438 149.839844 L 203.503906 149.867188 L 203.503906 149.863281 L 203.523438 149.839844 C 205.058594 147.664062 205.667969 146.550781 205.667969 145.714844 C 205.667969 145.558594 205.644531 145.410156 205.59375 145.261719 C 205.289062 144.328125 204.09375 143.289062 202 141.578125 C 201.75 141.371094 201.480469 141.152344 201.21875 140.933594 C 201.019531 140.769531 200.730469 140.53125 200.527344 140.363281 C 200.296875 140.171875 200.046875 139.964844 199.816406 139.769531 C 197.804688 138.109375 196.0625 136.816406 194.847656 136.609375 C 193.710938 136.414062 192.816406 137.273438 191.097656 139.511719 C 189.546875 141.535156 187.785156 143.949219 186.015625 146.367188 L 186.0625 146.296875 " fill-opacity="1" fill-rule="nonzero"/><path fill="#a9a0f0" d="M 202.886719 121.101562 C 202.902344 121.074219 202.917969 121.050781 202.9375 121.027344 C 204.699219 118.613281 206.480469 116.179688 208.054688 114.125 C 209.464844 112.285156 211.289062 109.816406 214.148438 110.308594 C 216.144531 110.644531 218.433594 112.476562 220.265625 113.992188 C 220.511719 114.195312 220.738281 114.386719 220.980469 114.589844 C 221.207031 114.773438 221.445312 114.972656 221.660156 115.15625 C 221.929688 115.375 222.175781 115.574219 222.433594 115.789062 C 224.246094 117.269531 226.21875 118.824219 226.804688 120.597656 C 226.933594 120.996094 226.996094 121.402344 226.996094 121.816406 C 226.996094 123.578125 225.800781 125.371094 224.40625 127.347656 C 222.664062 129.820312 219.90625 133.507812 217.574219 134.980469 C 214.75 136.761719 212.53125 135.414062 210.082031 133.722656 C 207.625 132.03125 203.976562 129.28125 202.523438 127.070312 C 201.933594 126.167969 201.648438 125.289062 201.648438 124.417969 C 201.648438 123.011719 202.398438 121.875 202.886719 121.101562 Z M 204.953125 122.394531 C 204.390625 123.292969 204.089844 123.832031 204.089844 124.417969 C 204.089844 124.734375 204.183594 125.15625 204.5625 125.730469 C 205.707031 127.476562 208.929688 129.964844 211.46875 131.714844 C 214.015625 133.472656 214.914062 133.773438 216.269531 132.917969 C 218.113281 131.757812 220.589844 128.527344 222.414062 125.941406 C 223.949219 123.765625 224.558594 122.652344 224.558594 121.816406 C 224.558594 121.660156 224.535156 121.511719 224.484375 121.359375 C 224.179688 120.429688 222.984375 119.390625 220.890625 117.675781 C 220.628906 117.460938 220.386719 117.261719 220.109375 117.035156 C 219.878906 116.84375 219.652344 116.65625 219.421875 116.464844 C 219.1875 116.269531 218.945312 116.066406 218.710938 115.875 C 216.695312 114.207031 214.953125 112.917969 213.738281 112.710938 C 212.601562 112.515625 211.707031 113.371094 209.988281 115.609375 C 208.433594 117.640625 206.675781 120.042969 204.90625 122.464844 L 204.953125 122.394531 " fill-opacity="1" fill-rule="nonzero"/><path fill="#a9a0f0" d="M 222.949219 137.351562 C 222.964844 137.328125 222.980469 137.304688 222.996094 137.28125 L 223.007812 137.269531 L 223.007812 137.265625 C 224.773438 134.855469 226.546875 132.429688 228.117188 130.378906 C 229.527344 128.539062 231.351562 126.070312 234.214844 126.558594 C 236.207031 126.898438 238.496094 128.734375 240.328125 130.246094 C 240.597656 130.46875 240.78125 130.621094 241.042969 130.839844 C 241.285156 131.042969 241.492188 131.214844 241.722656 131.40625 C 242.003906 131.636719 242.226562 131.820312 242.5 132.042969 C 244.3125 133.523438 246.28125 135.074219 246.867188 136.851562 C 246.996094 137.253906 247.058594 137.65625 247.058594 138.070312 C 247.058594 139.832031 245.859375 141.625 244.46875 143.601562 C 242.726562 146.074219 239.96875 149.761719 237.636719 151.234375 C 234.8125 153.015625 232.59375 151.664062 230.144531 149.976562 C 227.6875 148.28125 224.039062 145.535156 222.585938 143.324219 C 221.996094 142.421875 221.710938 141.542969 221.710938 140.671875 C 221.710938 139.265625 222.460938 138.132812 222.949219 137.351562 L 222.953125 137.34375 L 222.957031 137.34375 Z M 225.015625 138.648438 L 225.007812 138.660156 L 225.015625 138.648438 C 224.453125 139.546875 224.152344 140.085938 224.152344 140.671875 C 224.152344 140.988281 224.246094 141.40625 224.625 141.984375 C 225.769531 143.730469 228.992188 146.21875 231.53125 147.96875 C 234.078125 149.722656 234.976562 150.023438 236.332031 149.171875 C 238.175781 148.011719 240.652344 144.78125 242.476562 142.195312 C 244.011719 140.019531 244.621094 138.902344 244.621094 138.070312 C 244.621094 137.914062 244.597656 137.765625 244.546875 137.613281 C 244.242188 136.683594 243.046875 135.644531 240.953125 133.929688 C 240.691406 133.714844 240.449219 133.515625 240.171875 133.289062 C 239.9375 133.097656 239.714844 132.910156 239.484375 132.714844 C 239.222656 132.5 239.03125 132.339844 238.773438 132.125 C 236.757812 130.460938 235.015625 129.171875 233.804688 128.964844 C 232.664062 128.769531 231.769531 129.625 230.050781 131.863281 C 228.5 133.890625 226.75 136.285156 224.976562 138.707031 L 224.980469 138.707031 L 224.96875 138.71875 L 225.015625 138.648438 " fill-opacity="1" fill-rule="nonzero"/><path fill="#a9a0f0" d="M 198.285156 85.277344 L 198.261719 85.265625 L 198.285156 85.277344 C 199.449219 85.933594 200.8125 86.820312 202.371094 87.933594 C 202.949219 88.347656 203.082031 89.152344 202.671875 89.730469 C 202.257812 90.308594 201.453125 90.441406 200.878906 90.03125 C 199.390625 88.96875 198.101562 88.128906 197.015625 87.515625 L 197.039062 87.527344 C 196.398438 87.164062 196.179688 86.378906 196.53125 85.761719 C 196.878906 85.144531 197.664062 84.925781 198.285156 85.277344 " fill-opacity="1" fill-rule="nonzero"/><path fill="#a9a0f0" d="M 152.523438 95.722656 L 153.035156 95.59375 C 153.722656 95.417969 154.421875 95.835938 154.597656 96.519531 C 154.773438 97.210938 154.359375 97.910156 153.667969 98.085938 L 153.160156 98.21875 C 152.472656 98.390625 151.773438 97.976562 151.597656 97.285156 C 151.421875 96.601562 151.835938 95.898438 152.523438 95.722656 " fill-opacity="1" fill-rule="nonzero"/><path fill="#a9a0f0" d="M 154.296875 91.347656 C 154.46875 91.296875 154.777344 91.179688 155.21875 90.992188 C 155.875 90.71875 156.628906 91.03125 156.902344 91.6875 C 157.175781 92.339844 156.867188 93.097656 156.210938 93.367188 C 155.6875 93.585938 155.300781 93.734375 155.050781 93.808594 C 154.375 94.019531 153.652344 93.636719 153.445312 92.957031 C 153.234375 92.28125 153.617188 91.558594 154.296875 91.347656 " fill-opacity="1" fill-rule="nonzero"/><path fill="#a9a0f0" d="M 154.253906 113.507812 C 154.476562 113.527344 154.699219 113.539062 154.925781 113.546875 C 155 113.550781 155.078125 113.550781 155.152344 113.550781 L 155.144531 113.550781 L 155.273438 113.550781 L 155.265625 113.550781 C 155.457031 113.550781 155.644531 113.550781 155.835938 113.550781 C 156.546875 113.546875 157.121094 114.121094 157.125 114.832031 C 157.125 115.542969 156.550781 116.121094 155.839844 116.121094 C 155.652344 116.125 155.464844 116.125 155.273438 116.125 L 155.132812 116.125 C 155.042969 116.121094 154.949219 116.121094 154.855469 116.117188 C 154.578125 116.109375 154.304688 116.09375 154.03125 116.070312 C 153.324219 116.007812 152.800781 115.386719 152.863281 114.675781 C 152.921875 113.96875 153.546875 113.445312 154.253906 113.507812 " fill-opacity="1" fill-rule="nonzero"/><path fill="#a9a0f0" d="M 154.773438 110.574219 L 155.175781 110.367188 C 155.808594 110.042969 156.585938 110.292969 156.910156 110.925781 C 157.230469 111.558594 156.980469 112.335938 156.351562 112.660156 L 155.949219 112.863281 C 155.3125 113.1875 154.539062 112.9375 154.214844 112.304688 C 153.890625 111.675781 154.144531 110.898438 154.773438 110.574219 " fill-opacity="1" fill-rule="nonzero"/><path fill="#a9a0f0" d="M 213.671875 119.230469 L 214.128906 119.128906 C 214.816406 118.96875 215.507812 119.402344 215.667969 120.09375 C 215.824219 120.789062 215.390625 121.476562 214.699219 121.636719 L 214.242188 121.742188 C 213.550781 121.898438 212.859375 121.464844 212.703125 120.773438 C 212.546875 120.082031 212.980469 119.390625 213.671875 119.230469 " fill-opacity="1" fill-rule="nonzero"/><path fill="#a9a0f0" d="M 237.300781 134.996094 C 237.683594 135.296875 237.96875 135.519531 238.167969 135.664062 C 238.746094 136.074219 238.878906 136.878906 238.460938 137.457031 C 238.050781 138.035156 237.246094 138.167969 236.667969 137.75 C 236.433594 137.582031 236.113281 137.335938 235.699219 137.007812 C 235.144531 136.5625 235.050781 135.753906 235.496094 135.199219 C 235.9375 134.640625 236.75 134.550781 237.300781 134.996094 " fill-opacity="1" fill-rule="nonzero"/><path fill="#a9a0f0" d="M 193.46875 101.339844 C 193.945312 101.613281 194.515625 101.988281 195.179688 102.46875 C 195.757812 102.886719 195.886719 103.691406 195.46875 104.265625 C 195.050781 104.84375 194.25 104.972656 193.671875 104.554688 C 193.082031 104.128906 192.589844 103.800781 192.195312 103.578125 C 191.578125 103.222656 191.359375 102.4375 191.714844 101.820312 C 192.066406 101.203125 192.851562 100.988281 193.46875 101.339844 " fill-opacity="1" fill-rule="nonzero"/><path fill="#a9a0f0" d="M 251.484375 126.304688 C 252.867188 127.617188 253.722656 129.277344 254.054688 131.285156 C 254.167969 131.984375 253.695312 132.648438 252.992188 132.761719 C 252.289062 132.878906 251.628906 132.402344 251.515625 131.703125 C 251.277344 130.261719 250.675781 129.085938 249.710938 128.167969 C 249.195312 127.679688 249.179688 126.863281 249.667969 126.347656 C 250.15625 125.832031 250.972656 125.8125 251.484375 126.304688 " fill-opacity="1" fill-rule="nonzero"/><path fill="#a9a0f0" d="M 216.554688 161.230469 C 216.679688 161.679688 216.804688 162.085938 216.929688 162.457031 C 217.160156 163.128906 216.804688 163.863281 216.132812 164.089844 C 215.457031 164.320312 214.726562 163.964844 214.5 163.292969 C 214.355469 162.875 214.210938 162.417969 214.074219 161.921875 C 213.882812 161.238281 214.285156 160.53125 214.96875 160.339844 C 215.652344 160.148438 216.363281 160.546875 216.554688 161.230469 " fill-opacity="1" fill-rule="nonzero"/><path fill="#a9a0f0" d="M 218.59375 158.054688 L 218.855469 158.554688 C 219.183594 159.1875 218.9375 159.960938 218.308594 160.289062 C 217.679688 160.621094 216.902344 160.375 216.574219 159.742188 L 216.3125 159.242188 C 215.988281 158.613281 216.230469 157.835938 216.859375 157.507812 C 217.488281 157.179688 218.269531 157.425781 218.59375 158.054688 " fill-opacity="1" fill-rule="nonzero"/><path fill="#a9a0f0" d="M 223.898438 106.089844 C 223.898438 106.578125 224.199219 107.035156 224.679688 107.214844 C 225.460938 107.496094 228.015625 109.484375 232.347656 113.179688 C 232.851562 113.605469 233.605469 113.546875 234.03125 113.042969 C 234.222656 112.820312 234.316406 112.542969 234.316406 112.269531 C 234.316406 111.933594 234.175781 111.597656 233.898438 111.363281 C 229.347656 107.484375 226.550781 105.355469 225.503906 104.972656 C 224.882812 104.746094 224.199219 105.0625 223.972656 105.683594 C 223.921875 105.816406 223.898438 105.957031 223.898438 106.089844 " fill-opacity="1" fill-rule="nonzero"/><path fill="#a9a0f0" d="M 195.367188 77.25 C 205.796875 84.53125 222.101562 96.484375 232.269531 104.210938 C 242.421875 111.929688 246.4375 115.421875 250.753906 119.4375 C 251.054688 119.71875 251.355469 120 251.65625 120.285156 C 253.949219 122.460938 256.304688 124.792969 257.703125 127.675781 C 259.140625 130.625 259.007812 133.777344 257.878906 136.820312 C 255.507812 143.207031 250.851562 148.769531 246.800781 154.144531 C 246.800781 154.144531 246.738281 154.226562 246.726562 154.242188 C 240.390625 162.425781 234.027344 170.640625 227.070312 179.507812 C 220.089844 188.40625 212.53125 197.9375 207.28125 203.617188 C 201.976562 209.351562 199.320312 210.8125 196.75 210.816406 C 194.007812 210.820312 190.96875 209.183594 187.390625 206.917969 C 183.890625 204.707031 180.199219 202.121094 176.480469 199.519531 C 165.589844 191.378906 154.71875 183.257812 144.753906 175.460938 C 134.785156 167.65625 125.746094 160.199219 120.148438 155.105469 C 116.382812 151.671875 114.632812 149.667969 114.632812 146.679688 C 114.632812 145.070312 115.144531 143.058594 116.386719 140.277344 C 120.066406 132.042969 129.664062 118.152344 138.597656 106.25 C 147.5 94.390625 155.628906 84.660156 161.933594 78.089844 C 168.320312 71.441406 172.5625 68.351562 176.601562 67.980469 C 180.605469 67.613281 184.773438 69.863281 195.367188 77.25 Z M 176.367188 65.441406 C 171.269531 65.910156 166.417969 69.742188 160.09375 76.324219 C 153.691406 82.992188 145.496094 92.808594 136.554688 104.71875 C 127.644531 116.589844 117.871094 130.699219 114.054688 139.238281 C 112.75 142.160156 112.082031 144.550781 112.082031 146.679688 C 112.082031 150.9375 114.769531 153.652344 118.429688 156.988281 C 124.09375 162.152344 133.195312 169.652344 143.183594 177.46875 C 153.179688 185.292969 164.078125 193.433594 174.972656 201.574219 L 175.003906 201.597656 C 178.714844 204.195312 182.464844 206.820312 186.023438 209.074219 C 189.507812 211.277344 193.160156 213.371094 196.757812 213.367188 C 200.53125 213.359375 203.867188 211.066406 209.152344 205.347656 C 214.492188 199.578125 222.121094 189.957031 229.078125 181.082031 C 236.042969 172.207031 242.414062 163.976562 248.75 155.796875 L 248.761719 155.78125 C 248.761719 155.78125 248.839844 155.683594 248.839844 155.683594 C 250.292969 153.753906 251.746094 151.828125 253.15625 149.867188 C 255.199219 147.027344 257.183594 144.113281 258.789062 140.996094 C 260.117188 138.414062 261.269531 135.578125 261.359375 132.636719 C 261.558594 126.308594 256.769531 121.550781 252.492188 117.570312 C 248.101562 113.484375 244.015625 109.9375 233.8125 102.179688 C 223.621094 94.433594 207.292969 82.460938 196.828125 75.160156 C 186.515625 67.964844 181.503906 64.96875 176.367188 65.441406 " fill-opacity="1" fill-rule="nonzero"/><path fill="#a9a0f0" d="M 136.828125 130.300781 C 138.039062 130.507812 139.785156 131.800781 141.792969 133.460938 C 142.039062 133.664062 142.261719 133.847656 142.503906 134.054688 C 142.75 134.257812 142.953125 134.425781 143.195312 134.625 C 143.484375 134.863281 143.699219 135.042969 143.976562 135.269531 C 146.070312 136.980469 147.265625 138.019531 147.570312 138.953125 C 147.621094 139.101562 147.644531 139.25 147.644531 139.40625 C 147.644531 140.242188 147.035156 141.355469 145.5 143.53125 L 145.496094 143.535156 C 143.671875 146.121094 141.195312 149.347656 139.359375 150.511719 C 138.003906 151.363281 137.101562 151.0625 134.554688 149.304688 C 132.015625 147.558594 128.792969 145.066406 127.648438 143.320312 C 127.269531 142.746094 127.175781 142.324219 127.175781 142.007812 C 127.175781 141.433594 127.472656 140.894531 128.019531 140.019531 C 129.78125 137.609375 131.527344 135.222656 133.074219 133.203125 C 134.792969 130.964844 135.6875 130.109375 136.828125 130.300781 Z M 131.140625 131.71875 C 129.566406 133.769531 127.785156 136.203125 126.023438 138.617188 C 126.003906 138.640625 125.988281 138.667969 125.972656 138.691406 C 125.484375 139.472656 124.738281 140.605469 124.738281 142.007812 C 124.738281 142.882812 125.015625 143.761719 125.609375 144.664062 C 127.0625 146.875 130.710938 149.621094 133.171875 151.3125 C 135.621094 153.003906 137.835938 154.351562 140.65625 152.570312 C 142.996094 151.101562 145.75 147.414062 147.492188 144.9375 L 147.496094 144.933594 C 148.886719 142.960938 150.082031 141.167969 150.082031 139.40625 C 150.082031 138.996094 150.019531 138.589844 149.890625 138.191406 C 149.304688 136.414062 147.332031 134.859375 145.523438 133.378906 C 145.246094 133.15625 145.03125 132.976562 144.75 132.746094 C 144.507812 132.546875 144.316406 132.386719 144.066406 132.179688 C 143.816406 131.96875 143.605469 131.792969 143.347656 131.582031 C 141.519531 130.070312 139.230469 128.238281 137.234375 127.898438 C 134.375 127.410156 132.550781 129.878906 131.140625 131.71875 " fill-opacity="1" fill-rule="nonzero"/><path fill="#a9a0f0" d="M 136.746094 145.5625 C 136.625 145.554688 136.511719 145.546875 136.394531 145.523438 C 135.957031 145.441406 135.519531 145.53125 135.1875 145.847656 C 135.015625 146.015625 134.890625 146.234375 134.832031 146.46875 C 134.664062 147.160156 135.089844 147.855469 135.78125 148.023438 C 136.210938 148.128906 136.707031 148.179688 137.144531 148.121094 C 137.863281 148.03125 138.449219 147.5 138.390625 146.738281 C 138.363281 146.359375 138.167969 146.007812 137.859375 145.785156 C 137.53125 145.546875 137.132812 145.574219 136.746094 145.5625 " fill-opacity="1" fill-rule="nonzero"/><path fill="#a9a0f0" d="M 155.902344 145.136719 C 157.113281 145.34375 158.855469 146.636719 160.867188 148.300781 C 161.113281 148.5 161.335938 148.683594 161.578125 148.886719 C 161.828125 149.097656 162.023438 149.257812 162.269531 149.460938 C 162.53125 149.675781 162.804688 149.902344 163.054688 150.105469 C 165.144531 151.816406 166.339844 152.859375 166.644531 153.785156 C 166.695312 153.9375 166.71875 154.085938 166.71875 154.242188 C 166.71875 155.078125 166.109375 156.191406 164.574219 158.367188 C 162.75 160.957031 160.273438 164.183594 158.433594 165.347656 C 157.078125 166.199219 156.175781 165.898438 153.628906 164.144531 C 151.089844 162.390625 147.867188 159.902344 146.722656 158.160156 C 146.34375 157.582031 146.25 157.160156 146.25 156.847656 C 146.25 156.269531 146.542969 155.734375 147.09375 154.859375 C 148.855469 152.445312 150.601562 150.058594 152.152344 148.039062 C 153.867188 145.796875 154.761719 144.945312 155.902344 145.136719 Z M 150.214844 146.554688 C 148.640625 148.605469 146.867188 151.03125 145.101562 153.449219 L 145.09375 153.457031 C 145.078125 153.480469 145.0625 153.503906 145.046875 153.527344 L 145.066406 153.5 L 145.046875 153.527344 C 144.558594 154.304688 143.8125 155.441406 143.8125 156.847656 C 143.8125 157.71875 144.089844 158.597656 144.683594 159.496094 C 146.136719 161.710938 149.785156 164.457031 152.246094 166.148438 C 154.695312 167.839844 156.914062 169.1875 159.734375 167.410156 C 162.066406 165.9375 164.824219 162.246094 166.566406 159.773438 C 167.960938 157.796875 169.160156 156.007812 169.160156 154.242188 C 169.160156 153.832031 169.09375 153.425781 168.964844 153.027344 C 168.378906 151.25 166.40625 149.699219 164.597656 148.214844 C 164.363281 148.023438 164.066406 147.78125 163.824219 147.578125 C 163.585938 147.386719 163.386719 147.21875 163.140625 147.015625 C 162.910156 146.820312 162.664062 146.617188 162.421875 146.417969 C 160.59375 144.90625 158.304688 143.074219 156.3125 142.730469 C 153.449219 142.246094 151.625 144.714844 150.214844 146.554688 " fill-opacity="1" fill-rule="nonzero"/><path fill="#a9a0f0" d="M 176.226562 160.832031 C 177.4375 161.039062 179.183594 162.332031 181.195312 163.996094 C 181.425781 164.183594 181.675781 164.394531 181.90625 164.585938 C 182.128906 164.769531 182.375 164.976562 182.59375 165.15625 C 182.867188 165.378906 183.121094 165.585938 183.375 165.800781 C 185.46875 167.511719 186.664062 168.550781 186.972656 169.484375 C 187.019531 169.632812 187.042969 169.78125 187.042969 169.9375 C 187.042969 170.773438 186.433594 171.886719 184.898438 174.0625 C 183.074219 176.652344 180.597656 179.878906 178.757812 181.039062 C 177.402344 181.894531 176.5 181.59375 173.957031 179.839844 C 171.414062 178.089844 168.195312 175.597656 167.046875 173.855469 C 166.667969 173.277344 166.574219 172.855469 166.574219 172.542969 C 166.574219 171.960938 166.871094 171.429688 167.417969 170.550781 C 169.175781 168.144531 170.929688 165.746094 172.476562 163.730469 C 174.191406 161.492188 175.085938 160.636719 176.226562 160.832031 Z M 170.539062 162.25 C 168.96875 164.296875 167.183594 166.742188 165.421875 169.148438 C 165.40625 169.171875 165.386719 169.195312 165.375 169.222656 C 164.886719 170 164.136719 171.136719 164.136719 172.542969 C 164.136719 173.414062 164.417969 174.289062 165.007812 175.191406 C 166.460938 177.40625 170.113281 180.152344 172.566406 181.847656 C 175.015625 183.535156 177.238281 184.882812 180.058594 183.105469 C 182.394531 181.632812 185.148438 177.945312 186.894531 175.46875 C 188.285156 173.492188 189.480469 171.703125 189.480469 169.9375 C 189.480469 169.527344 189.421875 169.121094 189.289062 168.722656 C 188.707031 166.941406 186.734375 165.394531 184.921875 163.910156 C 184.675781 163.710938 184.402344 163.484375 184.148438 163.277344 C 183.929688 163.097656 183.691406 162.898438 183.464844 162.710938 C 183.234375 162.515625 182.988281 162.3125 182.75 162.113281 C 180.917969 160.601562 178.632812 158.769531 176.636719 158.429688 C 173.773438 157.941406 171.949219 160.40625 170.539062 162.25 " fill-opacity="1" fill-rule="nonzero"/><path fill="#a9a0f0" d="M 173.207031 165.734375 C 172.902344 166.375 173.175781 167.140625 173.792969 167.4375 L 173.796875 167.4375 L 173.816406 167.449219 C 174.480469 167.761719 175.042969 168 175.507812 168.164062 C 176.183594 168.398438 176.914062 168.046875 177.148438 167.375 C 177.382812 166.703125 177.03125 165.96875 176.359375 165.734375 C 175.976562 165.601562 175.5 165.398438 174.925781 165.125 C 174.28125 164.816406 173.515625 165.089844 173.207031 165.734375 " fill-opacity="1" fill-rule="nonzero"/><path fill="#a9a0f0" d="M 196.617188 175.355469 C 197.832031 175.566406 199.574219 176.855469 201.585938 178.519531 C 201.792969 178.691406 202.09375 178.9375 202.296875 179.109375 C 202.515625 179.289062 202.769531 179.503906 202.984375 179.679688 C 203.25 179.898438 203.519531 180.121094 203.769531 180.324219 C 205.859375 182.035156 207.058594 183.074219 207.363281 184.007812 C 207.410156 184.15625 207.433594 184.304688 207.433594 184.464844 C 207.433594 185.296875 206.824219 186.410156 205.289062 188.585938 C 203.464844 191.175781 200.988281 194.402344 199.148438 195.566406 C 197.792969 196.421875 196.894531 196.117188 194.34375 194.363281 C 191.804688 192.613281 188.582031 190.121094 187.4375 188.378906 C 187.058594 187.800781 186.96875 187.378906 186.96875 187.066406 C 186.96875 186.488281 187.261719 185.953125 187.808594 185.078125 C 189.570312 182.667969 191.320312 180.273438 192.867188 178.257812 C 194.582031 176.019531 195.476562 175.164062 196.617188 175.355469 Z M 187.835938 185.035156 L 187.835938 185.039062 Z M 185.761719 183.753906 L 185.757812 183.757812 Z M 190.929688 176.773438 C 189.359375 178.824219 187.574219 181.261719 185.8125 183.675781 C 185.792969 183.699219 185.78125 183.722656 185.765625 183.746094 L 185.761719 183.75 C 185.273438 184.527344 184.527344 185.664062 184.527344 187.066406 C 184.527344 187.9375 184.808594 188.816406 185.398438 189.71875 C 186.851562 191.929688 190.5 194.675781 192.960938 196.371094 C 195.410156 198.058594 197.625 199.410156 200.449219 197.628906 C 202.785156 196.15625 205.539062 192.46875 207.285156 189.992188 C 208.675781 188.015625 209.875 186.226562 209.875 184.464844 C 209.875 184.050781 209.808594 183.644531 209.679688 183.246094 C 209.09375 181.46875 207.125 179.917969 205.3125 178.4375 C 205.054688 178.226562 204.804688 178.019531 204.539062 177.800781 C 204.328125 177.625 204.078125 177.417969 203.859375 177.234375 C 203.640625 177.050781 203.367188 176.824219 203.140625 176.636719 C 201.308594 175.125 199.023438 173.292969 197.027344 172.953125 C 194.164062 172.464844 192.339844 174.933594 190.929688 176.773438 " fill-opacity="1" fill-rule="nonzero"/><path fill="#a9a0f0" d="M 215.554688 152.621094 C 216.769531 152.828125 218.511719 154.121094 220.527344 155.785156 C 220.761719 155.976562 221 156.175781 221.234375 156.371094 C 221.445312 156.550781 221.714844 156.769531 221.921875 156.945312 L 221.925781 156.945312 C 222.183594 157.160156 222.460938 157.386719 222.707031 157.585938 C 224.796875 159.296875 225.996094 160.339844 226.300781 161.269531 C 226.351562 161.421875 226.375 161.570312 226.375 161.726562 C 226.375 162.558594 225.761719 163.671875 224.230469 165.847656 L 224.226562 165.851562 C 222.402344 168.441406 219.925781 171.667969 218.085938 172.828125 C 216.730469 173.683594 215.832031 173.382812 213.28125 171.625 C 210.746094 169.875 207.523438 167.386719 206.375 165.644531 C 205.996094 165.0625 205.90625 164.644531 205.90625 164.328125 C 205.90625 163.75 206.199219 163.214844 206.746094 162.339844 C 208.507812 159.933594 210.257812 157.539062 211.804688 155.523438 L 211.808594 155.519531 C 213.523438 153.28125 214.414062 152.425781 215.554688 152.621094 Z M 209.867188 154.039062 L 209.863281 154.042969 C 208.292969 156.09375 206.515625 158.527344 204.75 160.9375 C 204.734375 160.960938 204.71875 160.984375 204.703125 161.007812 C 204.214844 161.789062 203.464844 162.925781 203.464844 164.328125 C 203.464844 165.199219 203.746094 166.078125 204.339844 166.980469 C 205.792969 169.191406 209.441406 171.9375 211.898438 173.632812 C 214.347656 175.320312 216.566406 176.667969 219.386719 174.894531 C 221.722656 173.417969 224.476562 169.730469 226.222656 167.257812 L 226.226562 167.253906 C 227.617188 165.277344 228.8125 163.488281 228.8125 161.726562 C 228.8125 161.316406 228.75 160.90625 228.617188 160.507812 C 228.035156 158.730469 226.0625 157.183594 224.25 155.699219 C 223.988281 155.484375 223.746094 155.285156 223.476562 155.0625 C 223.292969 154.910156 222.992188 154.660156 222.796875 154.496094 C 222.578125 154.316406 222.304688 154.089844 222.078125 153.902344 C 220.25 152.390625 217.960938 150.558594 215.964844 150.214844 C 213.105469 149.726562 211.28125 152.195312 209.867188 154.039062 " fill-opacity="1" fill-rule="nonzero"/><path fill="#a9a0f0" d="M 174.183594 125.113281 C 173.484375 125.171875 172.800781 125.453125 172.34375 126.003906 C 172.300781 126.058594 172.261719 126.113281 172.21875 126.175781 C 171.8125 126.757812 171.957031 127.558594 172.539062 127.964844 C 172.808594 128.152344 173.144531 128.230469 173.46875 128.1875 C 173.667969 128.160156 173.84375 128.078125 174.007812 127.960938 C 174.148438 127.859375 174.296875 127.71875 174.484375 127.695312 C 174.703125 127.664062 174.933594 127.796875 175.148438 127.839844 C 175.371094 127.882812 175.601562 127.898438 175.820312 127.828125 C 176.195312 127.707031 176.496094 127.417969 176.632812 127.050781 C 176.878906 126.382812 176.542969 125.644531 175.875 125.398438 C 175.585938 125.289062 175.304688 125.207031 175.035156 125.160156 C 174.757812 125.109375 174.46875 125.089844 174.183594 125.113281 " fill-opacity="1" fill-rule="nonzero"/><g clip-path="url(#976f9e64d5)"><path fill="#a9a0f0" d="M 179.3125 61.046875 C 173.464844 62.460938 167.964844 68.160156 162.851562 73.394531 L 161.726562 74.652344 C 161.234375 75.15625 162.367188 74.707031 162.875 75.199219 C 163.378906 75.691406 164.1875 75.683594 164.675781 75.175781 C 170.003906 69.722656 174.941406 64.730469 179.914062 63.523438 C 184.648438 62.378906 189.722656 64.617188 205.011719 75.308594 C 220.117188 85.871094 244.667969 104.234375 257.007812 115.710938 C 264.910156 123.058594 267.441406 127.277344 267.441406 131.171875 C 267.441406 133.441406 266.589844 135.785156 265.03125 138.816406 C 260.761719 147.105469 251.976562 159.160156 243.066406 170.753906 C 234.183594 182.316406 225.265625 193.316406 219.214844 200.542969 L 219.222656 200.535156 L 219.21875 200.535156 L 219.214844 200.542969 C 213.058594 207.894531 210.113281 211.011719 207.203125 212.0625 C 204.363281 213.089844 201.351562 212.207031 197.816406 211.109375 C 197.144531 210.898438 196.429688 211.277344 196.21875 211.949219 C 196.011719 212.625 195.472656 213.050781 196.144531 213.261719 C 199.492188 214.296875 204.28125 215.835938 208.070312 214.460938 C 211.78125 213.121094 215.203125 209.308594 221.167969 202.1875 L 221.167969 202.183594 L 221.171875 202.179688 C 227.242188 194.929688 236.183594 183.902344 245.089844 172.3125 C 253.976562 160.746094 262.910156 148.511719 267.296875 139.980469 C 268.898438 136.875 269.996094 134.078125 269.996094 131.171875 C 269.996094 126.058594 266.613281 121.15625 258.746094 113.84375 C 246.269531 102.242188 221.59375 83.789062 206.472656 73.21875 C 191.542969 62.773438 185.40625 59.570312 179.3125 61.046875 " fill-opacity="1" fill-rule="nonzero"/></g></svg>