<svg xmlns="http://www.w3.org/2000/svg" xmlns:xlink="http://www.w3.org/1999/xlink" width="400" zoomAndPan="magnify" viewBox="0 0 300 299.999988" height="400" preserveAspectRatio="xMidYMid meet" version="1.0"><path fill="#a9a0f0" d="M 255.390625 90.601562 C 252.484375 87.695312 248.628906 86.09375 244.53125 86.09375 L 152.421875 86.09375 L 152.421875 70.859375 C 152.421875 59.785156 161.429688 50.777344 172.5 50.777344 L 216.105469 50.777344 C 217.007812 50.777344 217.746094 50.042969 217.746094 49.136719 C 217.746094 48.234375 217.007812 47.496094 216.105469 47.496094 L 172.5 47.496094 C 159.644531 47.496094 149.167969 57.949219 149.140625 70.808594 L 149.140625 86.09375 L 55.472656 86.09375 C 47.003906 86.09375 40.109375 92.988281 40.109375 101.457031 L 40.109375 201.320312 C 40.109375 209.792969 47.003906 216.683594 55.472656 216.683594 L 57.796875 216.683594 C 58.511719 223.039062 59.960938 231.636719 62.851562 237.8125 C 59.554688 238.609375 57.140625 241.617188 57.140625 245.050781 C 57.140625 249.160156 60.484375 252.5 64.597656 252.5 L 110.359375 252.5 C 114.46875 252.5 117.816406 249.15625 117.816406 245.050781 C 117.816406 241.699219 115.523438 238.738281 112.316406 237.859375 C 112.582031 231.296875 114.667969 224.414062 117.445312 221.023438 C 118.027344 220.308594 119.011719 218.773438 120.226562 216.683594 L 181.328125 216.683594 C 182.539062 218.765625 183.503906 220.261719 184.128906 221.023438 C 186.902344 224.414062 188.988281 231.292969 189.253906 237.863281 C 186.046875 238.738281 183.757812 241.699219 183.757812 245.050781 C 183.757812 249.160156 187.101562 252.5 191.214844 252.5 L 236.976562 252.5 C 241.085938 252.5 244.433594 249.15625 244.433594 245.050781 C 244.433594 241.613281 242.015625 238.605469 238.714844 237.8125 C 241.59375 231.664062 243.046875 223.054688 243.765625 216.683594 L 244.535156 216.683594 C 253.003906 216.683594 259.898438 209.792969 259.898438 201.320312 L 259.898438 101.453125 C 259.898438 97.355469 258.296875 93.5 255.390625 90.59375 Z M 244.53125 213.402344 L 244.09375 213.402344 C 244.363281 210.351562 244.429688 208.394531 244.433594 208.359375 L 244.433594 184.917969 C 244.433594 181.234375 242.042969 178.039062 238.554688 176.976562 C 238.824219 176.203125 238.960938 175.40625 238.960938 174.59375 L 238.960938 168.96875 C 238.960938 164.960938 235.703125 161.703125 231.695312 161.703125 L 220.316406 161.703125 C 219.441406 161.703125 218.558594 161.867188 217.726562 162.1875 C 217.4375 157.863281 213.828125 154.4375 209.429688 154.4375 C 207.585938 154.4375 205.832031 155.035156 204.386719 156.144531 L 204.386719 139.933594 C 204.386719 135.351562 200.65625 131.625 196.074219 131.625 C 195.816406 131.625 195.554688 131.636719 195.273438 131.667969 C 194.753906 131.546875 194.222656 131.488281 193.695312 131.488281 L 182.3125 131.488281 C 178.308594 131.488281 175.046875 134.75 175.046875 138.753906 L 175.046875 144.378906 C 175.046875 148.386719 178.308594 151.644531 182.3125 151.644531 L 187.761719 151.644531 L 187.761719 161.703125 L 182.3125 161.703125 C 178.308594 161.703125 175.046875 164.964844 175.046875 168.96875 L 175.046875 174.59375 C 175.046875 174.683594 175.050781 174.773438 175.054688 174.863281 C 173.269531 174.828125 171.492188 175.425781 169.785156 176.613281 C 163.132812 181.25 174.042969 203.355469 179.496094 213.40625 L 122.066406 213.40625 C 128.15625 202.234375 134.75 187.140625 133.804688 180.335938 C 133.566406 178.636719 132.886719 177.382812 131.785156 176.613281 C 129.578125 175.078125 127.269531 174.546875 124.9375 175.042969 C 124.949219 174.890625 124.953125 174.742188 124.953125 174.59375 L 124.953125 168.96875 C 124.953125 164.964844 121.695312 161.703125 117.6875 161.703125 L 113.808594 161.703125 L 113.808594 151.644531 L 117.6875 151.644531 C 121.695312 151.644531 124.953125 148.386719 124.953125 144.378906 L 124.953125 138.753906 C 124.953125 134.746094 121.695312 131.488281 117.6875 131.488281 L 106.3125 131.488281 C 105.789062 131.488281 105.257812 131.546875 104.734375 131.664062 C 100.496094 132.050781 97.183594 135.679688 97.183594 139.933594 L 97.183594 156.144531 C 95.738281 155.039062 93.984375 154.4375 92.140625 154.4375 C 87.554688 154.4375 83.824219 158.167969 83.824219 162.75 L 83.824219 163.003906 C 82.613281 162.160156 81.179688 161.703125 79.691406 161.703125 L 68.316406 161.703125 C 64.308594 161.703125 61.050781 164.960938 61.050781 168.96875 L 61.050781 174.59375 C 61.050781 175.597656 61.261719 176.601562 61.671875 177.523438 C 58.90625 178.945312 57.144531 181.796875 57.144531 184.921875 L 57.144531 208.421875 C 57.152344 208.640625 57.222656 210.550781 57.472656 213.40625 L 55.476562 213.40625 C 48.816406 213.40625 43.394531 207.988281 43.394531 201.324219 L 43.394531 101.464844 C 43.394531 94.800781 48.816406 89.378906 55.476562 89.378906 L 244.539062 89.378906 C 251.203125 89.378906 256.621094 94.800781 256.621094 101.464844 L 256.621094 201.496094 C 256.53125 208.074219 251.152344 213.40625 244.546875 213.40625 Z M 236.972656 249.21875 L 191.210938 249.21875 C 188.90625 249.21875 187.035156 247.347656 187.035156 245.050781 C 187.035156 242.75 188.90625 240.878906 191.210938 240.878906 L 236.972656 240.878906 C 239.273438 240.878906 241.148438 242.75 241.148438 245.050781 C 241.148438 247.347656 239.273438 249.222656 236.96875 249.222656 Z M 187.757812 181.855469 L 187.757812 186.027344 C 186.933594 184.496094 186.082031 183.101562 185.203125 181.855469 Z M 178.328125 174.589844 L 178.328125 168.964844 C 178.328125 166.769531 180.113281 164.980469 182.3125 164.980469 L 187.757812 164.980469 L 187.757812 178.574219 L 182.492188 178.578125 C 181.175781 177.25 179.824219 176.269531 178.472656 175.660156 C 178.371094 175.3125 178.324219 174.953125 178.324219 174.589844 Z M 188.875 135.796875 C 188.820312 135.886719 188.773438 135.980469 188.722656 136.070312 C 188.648438 136.210938 188.582031 136.351562 188.515625 136.496094 C 188.46875 136.59375 188.425781 136.691406 188.386719 136.792969 C 188.328125 136.9375 188.273438 137.085938 188.21875 137.238281 L 188.203125 137.285156 C 188.171875 137.371094 188.144531 137.453125 188.121094 137.535156 C 188.070312 137.695312 188.03125 137.855469 187.992188 138.011719 L 187.976562 138.085938 C 187.957031 138.160156 187.9375 138.234375 187.921875 138.316406 C 187.886719 138.492188 187.863281 138.671875 187.839844 138.855469 L 187.824219 138.941406 C 187.816406 138.996094 187.808594 139.054688 187.804688 139.113281 C 187.773438 139.390625 187.761719 139.667969 187.761719 139.929688 L 187.761719 148.363281 L 182.3125 148.363281 C 180.117188 148.363281 178.328125 146.574219 178.328125 144.378906 L 178.328125 138.753906 C 178.328125 136.558594 180.117188 134.769531 182.3125 134.769531 L 189.578125 134.769531 C 189.480469 134.890625 189.386719 135.011719 189.296875 135.140625 C 189.253906 135.199219 189.214844 135.257812 189.175781 135.320312 L 189.128906 135.386719 C 189.046875 135.527344 188.960938 135.664062 188.882812 135.804688 Z M 231.085938 178.308594 L 231.085938 173.480469 C 231.085938 168.898438 227.355469 165.167969 222.773438 165.167969 C 220.9375 165.167969 219.1875 165.765625 217.746094 166.871094 L 217.746094 165.925781 C 218.464844 165.316406 219.371094 164.984375 220.316406 164.984375 L 231.695312 164.984375 C 233.894531 164.984375 235.679688 166.769531 235.679688 168.96875 L 235.679688 174.59375 C 235.679688 175.335938 235.476562 176.050781 235.089844 176.675781 C 233.628906 176.851562 232.261719 177.410156 231.089844 178.304688 Z M 171.65625 179.300781 C 173.351562 178.121094 174.945312 177.84375 176.632812 178.449219 C 177.902344 178.894531 179.226562 179.855469 180.570312 181.304688 C 184.929688 186.019531 187.820312 194.144531 187.851562 194.222656 C 188.109375 194.96875 188.890625 195.433594 189.671875 195.300781 C 190.464844 195.164062 191.039062 194.484375 191.039062 193.683594 L 191.039062 139.898438 C 191.042969 139.210938 191.191406 138.539062 191.476562 137.894531 L 191.511719 137.816406 C 191.519531 137.789062 191.53125 137.761719 191.558594 137.710938 C 192.230469 136.347656 193.460938 135.367188 194.929688 135.027344 C 195.070312 134.996094 195.210938 134.96875 195.351562 134.949219 L 195.429688 134.9375 C 195.625 134.914062 195.839844 134.898438 196.066406 134.898438 C 198.84375 134.898438 201.101562 137.15625 201.101562 139.929688 L 201.101562 177.953125 C 201.101562 178.859375 201.835938 179.59375 202.742188 179.59375 C 203.648438 179.59375 204.382812 178.859375 204.382812 177.953125 L 204.382812 162.867188 C 204.386719 162.828125 204.390625 162.785156 204.390625 162.742188 C 204.390625 159.96875 206.648438 157.714844 209.425781 157.714844 C 212.199219 157.714844 214.457031 159.96875 214.457031 162.742188 L 214.457031 182.472656 C 214.457031 183.375 215.195312 184.113281 216.097656 184.113281 C 217.003906 184.113281 217.738281 183.375 217.738281 182.472656 L 217.742188 173.476562 C 217.742188 170.703125 219.996094 168.445312 222.769531 168.445312 C 225.542969 168.445312 227.800781 170.703125 227.800781 173.476562 L 227.800781 193.203125 C 227.800781 194.109375 228.535156 194.84375 229.441406 194.84375 C 230.34375 194.84375 231.082031 194.109375 231.082031 193.203125 L 231.078125 184.835938 L 231.082031 184.785156 C 231.113281 183.496094 231.628906 182.285156 232.535156 181.371094 L 232.5625 181.34375 C 233.488281 180.429688 234.707031 179.910156 236 179.882812 C 236.042969 179.882812 236.0625 179.882812 236.070312 179.878906 L 236.113281 179.878906 C 238.890625 179.878906 241.148438 182.136719 241.148438 184.914062 L 241.148438 208.296875 C 241.148438 208.324219 241.042969 211.054688 240.652344 214.875 C 240.066406 220.65625 238.574219 231.230469 235.15625 237.59375 L 192.523438 237.59375 C 192.210938 230.324219 189.878906 222.875 186.664062 218.941406 C 186.082031 218.230469 185 216.515625 183.699219 214.226562 C 174.613281 198.289062 168.761719 181.316406 171.660156 179.296875 Z M 64.59375 240.875 L 110.355469 240.875 C 112.65625 240.875 114.53125 242.746094 114.53125 245.046875 C 114.53125 247.347656 112.65625 249.21875 110.355469 249.21875 L 64.59375 249.21875 C 62.292969 249.21875 60.417969 247.347656 60.417969 245.046875 C 60.417969 242.746094 62.292969 240.875 64.59375 240.875 Z M 64.324219 168.964844 C 64.324219 166.769531 66.113281 164.980469 68.308594 164.980469 L 79.691406 164.980469 C 80.664062 164.980469 81.574219 165.335938 82.277344 165.941406 C 81.191406 165.433594 80.003906 165.167969 78.792969 165.167969 C 74.210938 165.167969 70.484375 168.898438 70.484375 173.480469 L 70.484375 178.3125 C 69.035156 177.207031 67.269531 176.601562 65.453125 176.601562 C 65.265625 176.601562 65.074219 176.609375 64.882812 176.621094 C 64.515625 176.007812 64.324219 175.308594 64.324219 174.589844 Z M 112 134.765625 L 117.691406 134.765625 C 119.890625 134.765625 121.675781 136.554688 121.675781 138.75 L 121.675781 144.375 C 121.675781 146.570312 119.890625 148.359375 117.691406 148.359375 L 113.8125 148.359375 L 113.8125 139.933594 C 113.8125 138.027344 113.171875 136.234375 112 134.765625 Z M 113.808594 178.574219 L 113.808594 164.980469 L 117.691406 164.980469 C 119.886719 164.980469 121.675781 166.769531 121.675781 168.964844 L 121.675781 174.589844 C 121.675781 175.488281 121.382812 176.332031 120.832031 177.035156 C 120.398438 177.367188 119.976562 177.722656 119.582031 178.09375 C 119 178.410156 118.347656 178.574219 117.691406 178.574219 Z M 113.808594 186.027344 L 113.808594 181.859375 L 116.371094 181.859375 C 115.488281 183.105469 114.632812 184.5 113.8125 186.03125 Z M 109.039062 237.59375 L 66.410156 237.59375 C 61.25 227.988281 60.449219 209.144531 60.417969 208.359375 L 60.417969 184.914062 C 60.417969 182.140625 62.675781 179.882812 65.453125 179.882812 C 68.226562 179.882812 70.484375 182.140625 70.484375 184.914062 L 70.484375 193.207031 C 70.484375 194.109375 71.222656 194.847656 72.125 194.847656 C 73.03125 194.847656 73.765625 194.109375 73.765625 193.207031 L 73.765625 173.476562 C 73.765625 170.703125 76.023438 168.445312 78.796875 168.445312 C 81.570312 168.445312 83.824219 170.703125 83.824219 173.476562 L 83.824219 182.46875 C 83.824219 183.375 84.558594 184.109375 85.464844 184.109375 C 86.371094 184.109375 87.105469 183.375 87.105469 182.46875 L 87.105469 162.738281 C 87.105469 159.964844 89.363281 157.710938 92.140625 157.710938 C 94.914062 157.710938 97.171875 159.964844 97.171875 162.738281 C 97.171875 162.777344 97.175781 162.816406 97.179688 162.828125 L 97.179688 177.953125 C 97.179688 178.855469 97.917969 179.59375 98.820312 179.59375 C 99.726562 179.59375 100.460938 178.855469 100.460938 177.953125 L 100.460938 139.925781 C 100.460938 137.152344 102.71875 134.898438 105.496094 134.898438 C 108.269531 134.898438 110.53125 137.152344 110.53125 139.925781 L 110.53125 193.679688 C 110.53125 194.480469 111.105469 195.160156 111.898438 195.296875 C 112.695312 195.425781 113.460938 194.960938 113.71875 194.21875 C 113.75 194.128906 116.847656 185.371094 121.484375 180.78125 C 122.105469 180.398438 122.660156 179.933594 123.132812 179.394531 C 123.804688 178.929688 124.464844 178.589844 125.09375 178.386719 C 126.722656 177.863281 128.269531 178.15625 129.910156 179.300781 C 130.230469 179.519531 130.453125 180.03125 130.554688 180.78125 C 131.410156 186.9375 123.738281 203.914062 118.003906 214.023438 C 117.902344 214.15625 117.816406 214.300781 117.757812 214.457031 C 116.53125 216.601562 115.515625 218.191406 114.902344 218.941406 C 111.675781 222.875 109.339844 230.320312 109.03125 237.585938 Z M 109.039062 237.59375 " fill-opacity="1" fill-rule="nonzero"/><path fill="#a9a0f0" d="M 79.6875 101.484375 L 68.308594 101.484375 C 64.5625 101.484375 61.511719 104.535156 61.511719 108.28125 L 61.511719 113.90625 C 61.511719 117.652344 64.5625 120.703125 68.308594 120.703125 L 79.6875 120.703125 C 83.433594 120.703125 86.484375 117.652344 86.484375 113.90625 L 86.484375 108.28125 C 86.484375 104.53125 83.433594 101.484375 79.6875 101.484375 Z M 84.140625 113.90625 C 84.140625 116.363281 82.144531 118.359375 79.6875 118.359375 L 68.308594 118.359375 C 65.851562 118.359375 63.855469 116.363281 63.855469 113.90625 L 63.855469 108.28125 C 63.855469 105.824219 65.851562 103.828125 68.308594 103.828125 L 79.6875 103.828125 C 82.140625 103.828125 84.140625 105.824219 84.140625 108.28125 Z M 84.140625 113.90625 " fill-opacity="1" fill-rule="nonzero"/><path fill="#a9a0f0" d="M 79.6875 121.171875 L 68.308594 121.171875 C 64.300781 121.171875 61.042969 117.914062 61.042969 113.90625 L 61.042969 108.28125 C 61.042969 104.273438 64.300781 101.015625 68.308594 101.015625 L 79.6875 101.015625 C 83.695312 101.015625 86.953125 104.273438 86.953125 108.28125 L 86.953125 113.90625 C 86.953125 117.914062 83.695312 121.171875 79.6875 121.171875 Z M 68.308594 101.953125 C 64.820312 101.953125 61.980469 104.792969 61.980469 108.28125 L 61.980469 113.90625 C 61.980469 117.394531 64.820312 120.234375 68.308594 120.234375 L 79.6875 120.234375 C 83.175781 120.234375 86.015625 117.394531 86.015625 113.90625 L 86.015625 108.28125 C 86.015625 104.792969 83.175781 101.953125 79.6875 101.953125 Z M 79.6875 118.828125 L 68.308594 118.828125 C 65.59375 118.828125 63.386719 116.621094 63.386719 113.90625 L 63.386719 108.28125 C 63.386719 105.566406 65.59375 103.359375 68.308594 103.359375 L 79.6875 103.359375 C 82.402344 103.359375 84.609375 105.566406 84.609375 108.28125 L 84.609375 113.90625 C 84.609375 116.621094 82.402344 118.828125 79.6875 118.828125 Z M 68.308594 104.296875 C 66.113281 104.296875 64.324219 106.085938 64.324219 108.28125 L 64.324219 113.90625 C 64.324219 116.101562 66.113281 117.890625 68.308594 117.890625 L 79.6875 117.890625 C 81.882812 117.890625 83.671875 116.101562 83.671875 113.90625 L 83.671875 108.28125 C 83.671875 106.085938 81.882812 104.296875 79.6875 104.296875 Z M 68.308594 104.296875 " fill-opacity="1" fill-rule="nonzero"/><path fill="#a9a0f0" d="M 117.6875 101.484375 L 106.3125 101.484375 C 102.5625 101.484375 99.515625 104.535156 99.515625 108.28125 L 99.515625 113.90625 C 99.515625 117.652344 102.5625 120.703125 106.3125 120.703125 L 117.6875 120.703125 C 121.4375 120.703125 124.484375 117.652344 124.484375 113.90625 L 124.484375 108.28125 C 124.484375 104.53125 121.433594 101.484375 117.6875 101.484375 Z M 122.140625 113.90625 C 122.140625 116.363281 120.144531 118.359375 117.6875 118.359375 L 106.3125 118.359375 C 103.855469 118.359375 101.859375 116.363281 101.859375 113.90625 L 101.859375 108.28125 C 101.859375 105.824219 103.855469 103.828125 106.3125 103.828125 L 117.6875 103.828125 C 120.144531 103.828125 122.140625 105.824219 122.140625 108.28125 Z M 122.140625 113.90625 " fill-opacity="1" fill-rule="nonzero"/><path fill="#a9a0f0" d="M 117.6875 121.171875 L 106.3125 121.171875 C 102.304688 121.171875 99.046875 117.914062 99.046875 113.90625 L 99.046875 108.28125 C 99.046875 104.273438 102.304688 101.015625 106.3125 101.015625 L 117.6875 101.015625 C 121.695312 101.015625 124.953125 104.273438 124.953125 108.28125 L 124.953125 113.90625 C 124.953125 117.914062 121.695312 121.171875 117.6875 121.171875 Z M 106.3125 101.953125 C 102.824219 101.953125 99.984375 104.792969 99.984375 108.28125 L 99.984375 113.90625 C 99.984375 117.394531 102.824219 120.234375 106.3125 120.234375 L 117.691406 120.234375 C 121.179688 120.234375 124.019531 117.394531 124.019531 113.90625 L 124.019531 108.28125 C 124.019531 104.792969 121.179688 101.953125 117.691406 101.953125 Z M 117.6875 118.828125 L 106.3125 118.828125 C 103.597656 118.828125 101.390625 116.621094 101.390625 113.90625 L 101.390625 108.28125 C 101.390625 105.566406 103.597656 103.359375 106.3125 103.359375 L 117.6875 103.359375 C 120.402344 103.359375 122.609375 105.566406 122.609375 108.28125 L 122.609375 113.90625 C 122.609375 116.621094 120.402344 118.828125 117.6875 118.828125 Z M 106.3125 104.296875 C 104.117188 104.296875 102.328125 106.085938 102.328125 108.28125 L 102.328125 113.90625 C 102.328125 116.101562 104.117188 117.890625 106.3125 117.890625 L 117.691406 117.890625 C 119.886719 117.890625 121.675781 116.101562 121.675781 113.90625 L 121.675781 108.28125 C 121.675781 106.085938 119.886719 104.296875 117.691406 104.296875 Z M 106.3125 104.296875 " fill-opacity="1" fill-rule="nonzero"/><path fill="#a9a0f0" d="M 155.691406 101.484375 L 144.3125 101.484375 C 140.566406 101.484375 137.515625 104.535156 137.515625 108.28125 L 137.515625 113.90625 C 137.515625 117.652344 140.566406 120.703125 144.3125 120.703125 L 155.691406 120.703125 C 159.4375 120.703125 162.488281 117.652344 162.488281 113.90625 L 162.488281 108.28125 C 162.488281 104.53125 159.4375 101.484375 155.691406 101.484375 Z M 160.144531 113.90625 C 160.144531 116.363281 158.144531 118.359375 155.691406 118.359375 L 144.3125 118.359375 C 141.859375 118.359375 139.859375 116.363281 139.859375 113.90625 L 139.859375 108.28125 C 139.859375 105.824219 141.859375 103.828125 144.3125 103.828125 L 155.691406 103.828125 C 158.144531 103.828125 160.144531 105.824219 160.144531 108.28125 Z M 160.144531 113.90625 " fill-opacity="1" fill-rule="nonzero"/><path fill="#a9a0f0" d="M 155.691406 121.171875 L 144.3125 121.171875 C 140.308594 121.171875 137.046875 117.914062 137.046875 113.90625 L 137.046875 108.28125 C 137.046875 104.273438 140.308594 101.015625 144.3125 101.015625 L 155.691406 101.015625 C 159.695312 101.015625 162.957031 104.273438 162.957031 108.28125 L 162.957031 113.90625 C 162.957031 117.914062 159.695312 121.171875 155.691406 121.171875 Z M 144.3125 101.953125 C 140.824219 101.953125 137.984375 104.792969 137.984375 108.28125 L 137.984375 113.90625 C 137.984375 117.394531 140.824219 120.234375 144.3125 120.234375 L 155.691406 120.234375 C 159.179688 120.234375 162.019531 117.394531 162.019531 113.90625 L 162.019531 108.28125 C 162.019531 104.792969 159.179688 101.953125 155.691406 101.953125 Z M 155.691406 118.828125 L 144.3125 118.828125 C 141.597656 118.828125 139.390625 116.621094 139.390625 113.90625 L 139.390625 108.28125 C 139.390625 105.566406 141.597656 103.359375 144.3125 103.359375 L 155.691406 103.359375 C 158.40625 103.359375 160.613281 105.566406 160.613281 108.28125 L 160.613281 113.90625 C 160.613281 116.621094 158.40625 118.828125 155.691406 118.828125 Z M 144.3125 104.296875 C 142.117188 104.296875 140.328125 106.085938 140.328125 108.28125 L 140.328125 113.90625 C 140.328125 116.101562 142.117188 117.890625 144.3125 117.890625 L 155.691406 117.890625 C 157.886719 117.890625 159.675781 116.101562 159.675781 113.90625 L 159.675781 108.28125 C 159.675781 106.085938 157.886719 104.296875 155.691406 104.296875 Z M 144.3125 104.296875 " fill-opacity="1" fill-rule="nonzero"/><path fill="#a9a0f0" d="M 193.691406 101.484375 L 182.316406 101.484375 C 178.566406 101.484375 175.519531 104.535156 175.519531 108.28125 L 175.519531 113.90625 C 175.519531 117.652344 178.566406 120.703125 182.316406 120.703125 L 193.691406 120.703125 C 197.441406 120.703125 200.488281 117.652344 200.488281 113.90625 L 200.488281 108.28125 C 200.488281 104.53125 197.4375 101.484375 193.691406 101.484375 Z M 198.144531 113.90625 C 198.144531 116.363281 196.148438 118.359375 193.691406 118.359375 L 182.316406 118.359375 C 179.859375 118.359375 177.863281 116.363281 177.863281 113.90625 L 177.863281 108.28125 C 177.863281 105.824219 179.859375 103.828125 182.316406 103.828125 L 193.691406 103.828125 C 196.148438 103.828125 198.144531 105.824219 198.144531 108.28125 Z M 198.144531 113.90625 " fill-opacity="1" fill-rule="nonzero"/><path fill="#a9a0f0" d="M 193.691406 121.171875 L 182.316406 121.171875 C 178.308594 121.171875 175.050781 117.914062 175.050781 113.90625 L 175.050781 108.28125 C 175.050781 104.273438 178.308594 101.015625 182.316406 101.015625 L 193.691406 101.015625 C 197.699219 101.015625 200.957031 104.273438 200.957031 108.28125 L 200.957031 113.90625 C 200.957031 117.914062 197.695312 121.171875 193.691406 121.171875 Z M 182.316406 101.953125 C 178.828125 101.953125 175.988281 104.792969 175.988281 108.28125 L 175.988281 113.90625 C 175.988281 117.394531 178.828125 120.234375 182.316406 120.234375 L 193.691406 120.234375 C 197.183594 120.234375 200.019531 117.394531 200.019531 113.90625 L 200.019531 108.28125 C 200.019531 104.792969 197.183594 101.953125 193.691406 101.953125 Z M 193.691406 118.828125 L 182.316406 118.828125 C 179.601562 118.828125 177.394531 116.621094 177.394531 113.90625 L 177.394531 108.28125 C 177.394531 105.566406 179.601562 103.359375 182.316406 103.359375 L 193.691406 103.359375 C 196.40625 103.359375 198.613281 105.566406 198.613281 108.28125 L 198.613281 113.90625 C 198.613281 116.621094 196.40625 118.828125 193.691406 118.828125 Z M 182.316406 104.296875 C 180.117188 104.296875 178.332031 106.085938 178.332031 108.28125 L 178.332031 113.90625 C 178.332031 116.101562 180.117188 117.890625 182.316406 117.890625 L 193.691406 117.890625 C 195.890625 117.890625 197.675781 116.101562 197.675781 113.90625 L 197.675781 108.28125 C 197.675781 106.085938 195.890625 104.296875 193.691406 104.296875 Z M 182.316406 104.296875 " fill-opacity="1" fill-rule="nonzero"/><path fill="#a9a0f0" d="M 231.695312 101.484375 L 220.316406 101.484375 C 216.566406 101.484375 213.519531 104.535156 213.519531 108.28125 L 213.519531 113.90625 C 213.519531 117.652344 216.566406 120.703125 220.316406 120.703125 L 231.695312 120.703125 C 235.441406 120.703125 238.492188 117.652344 238.492188 113.90625 L 238.492188 108.28125 C 238.492188 104.53125 235.4375 101.484375 231.695312 101.484375 Z M 236.148438 113.90625 C 236.148438 116.363281 234.148438 118.359375 231.695312 118.359375 L 220.316406 118.359375 C 217.859375 118.359375 215.863281 116.363281 215.863281 113.90625 L 215.863281 108.28125 C 215.863281 105.824219 217.859375 103.828125 220.316406 103.828125 L 231.695312 103.828125 C 234.148438 103.828125 236.148438 105.824219 236.148438 108.28125 Z M 236.148438 113.90625 " fill-opacity="1" fill-rule="nonzero"/><path fill="#a9a0f0" d="M 231.695312 121.171875 L 220.316406 121.171875 C 216.308594 121.171875 213.050781 117.914062 213.050781 113.90625 L 213.050781 108.28125 C 213.050781 104.273438 216.308594 101.015625 220.316406 101.015625 L 231.695312 101.015625 C 235.699219 101.015625 238.960938 104.273438 238.960938 108.28125 L 238.960938 113.90625 C 238.960938 117.914062 235.695312 121.171875 231.695312 121.171875 Z M 220.3125 101.953125 C 216.824219 101.953125 213.984375 104.792969 213.984375 108.28125 L 213.984375 113.90625 C 213.984375 117.394531 216.824219 120.234375 220.3125 120.234375 L 231.691406 120.234375 C 235.179688 120.234375 238.019531 117.394531 238.019531 113.90625 L 238.019531 108.28125 C 238.019531 104.792969 235.179688 101.953125 231.691406 101.953125 Z M 231.695312 118.828125 L 220.316406 118.828125 C 217.601562 118.828125 215.394531 116.621094 215.394531 113.90625 L 215.394531 108.28125 C 215.394531 105.566406 217.601562 103.359375 220.316406 103.359375 L 231.695312 103.359375 C 234.40625 103.359375 236.617188 105.566406 236.617188 108.28125 L 236.617188 113.90625 C 236.617188 116.621094 234.40625 118.828125 231.695312 118.828125 Z M 220.3125 104.296875 C 218.117188 104.296875 216.328125 106.085938 216.328125 108.28125 L 216.328125 113.90625 C 216.328125 116.101562 218.117188 117.890625 220.3125 117.890625 L 231.691406 117.890625 C 233.886719 117.890625 235.675781 116.101562 235.675781 113.90625 L 235.675781 108.28125 C 235.675781 106.085938 233.886719 104.296875 231.691406 104.296875 Z M 220.3125 104.296875 " fill-opacity="1" fill-rule="nonzero"/><path fill="#a9a0f0" d="M 79.6875 131.953125 L 68.308594 131.953125 C 64.5625 131.953125 61.511719 135.003906 61.511719 138.75 L 61.511719 144.375 C 61.511719 148.121094 64.5625 151.171875 68.308594 151.171875 L 79.6875 151.171875 C 83.433594 151.171875 86.484375 148.121094 86.484375 144.375 L 86.484375 138.75 C 86.484375 135 83.433594 131.953125 79.6875 131.953125 Z M 84.140625 144.375 C 84.140625 146.832031 82.144531 148.828125 79.6875 148.828125 L 68.308594 148.828125 C 65.851562 148.828125 63.855469 146.832031 63.855469 144.375 L 63.855469 138.75 C 63.855469 136.292969 65.851562 134.296875 68.308594 134.296875 L 79.6875 134.296875 C 82.140625 134.296875 84.140625 136.292969 84.140625 138.75 Z M 84.140625 144.375 " fill-opacity="1" fill-rule="nonzero"/><path fill="#a9a0f0" d="M 79.6875 151.640625 L 68.308594 151.640625 C 64.300781 151.640625 61.042969 148.382812 61.042969 144.375 L 61.042969 138.75 C 61.042969 134.742188 64.300781 131.484375 68.308594 131.484375 L 79.6875 131.484375 C 83.695312 131.484375 86.953125 134.742188 86.953125 138.75 L 86.953125 144.375 C 86.953125 148.382812 83.695312 151.640625 79.6875 151.640625 Z M 68.308594 132.421875 C 64.820312 132.421875 61.980469 135.261719 61.980469 138.75 L 61.980469 144.375 C 61.980469 147.863281 64.820312 150.703125 68.308594 150.703125 L 79.6875 150.703125 C 83.175781 150.703125 86.015625 147.863281 86.015625 144.375 L 86.015625 138.75 C 86.015625 135.261719 83.175781 132.421875 79.6875 132.421875 Z M 79.6875 149.296875 L 68.308594 149.296875 C 65.59375 149.296875 63.386719 147.089844 63.386719 144.375 L 63.386719 138.75 C 63.386719 136.035156 65.59375 133.828125 68.308594 133.828125 L 79.6875 133.828125 C 82.402344 133.828125 84.609375 136.035156 84.609375 138.75 L 84.609375 144.375 C 84.609375 147.089844 82.402344 149.296875 79.6875 149.296875 Z M 68.308594 134.765625 C 66.113281 134.765625 64.324219 136.554688 64.324219 138.75 L 64.324219 144.375 C 64.324219 146.570312 66.113281 148.359375 68.308594 148.359375 L 79.6875 148.359375 C 81.882812 148.359375 83.671875 146.570312 83.671875 144.375 L 83.671875 138.75 C 83.671875 136.554688 81.882812 134.765625 79.6875 134.765625 Z M 68.308594 134.765625 " fill-opacity="1" fill-rule="nonzero"/><path fill="#a9a0f0" d="M 155.691406 131.953125 L 144.3125 131.953125 C 140.566406 131.953125 137.515625 135.003906 137.515625 138.75 L 137.515625 144.375 C 137.515625 148.121094 140.566406 151.171875 144.3125 151.171875 L 155.691406 151.171875 C 159.4375 151.171875 162.488281 148.121094 162.488281 144.375 L 162.488281 138.75 C 162.488281 135 159.4375 131.953125 155.691406 131.953125 Z M 160.144531 144.375 C 160.144531 146.832031 158.144531 148.828125 155.691406 148.828125 L 144.3125 148.828125 C 141.859375 148.828125 139.859375 146.832031 139.859375 144.375 L 139.859375 138.75 C 139.859375 136.292969 141.859375 134.296875 144.3125 134.296875 L 155.691406 134.296875 C 158.144531 134.296875 160.144531 136.292969 160.144531 138.75 Z M 160.144531 144.375 " fill-opacity="1" fill-rule="nonzero"/><path fill="#a9a0f0" d="M 155.691406 151.640625 L 144.3125 151.640625 C 140.308594 151.640625 137.046875 148.382812 137.046875 144.375 L 137.046875 138.75 C 137.046875 134.742188 140.308594 131.484375 144.3125 131.484375 L 155.691406 131.484375 C 159.695312 131.484375 162.957031 134.742188 162.957031 138.75 L 162.957031 144.375 C 162.957031 148.382812 159.695312 151.640625 155.691406 151.640625 Z M 144.3125 132.421875 C 140.824219 132.421875 137.984375 135.261719 137.984375 138.75 L 137.984375 144.375 C 137.984375 147.863281 140.824219 150.703125 144.3125 150.703125 L 155.691406 150.703125 C 159.179688 150.703125 162.019531 147.863281 162.019531 144.375 L 162.019531 138.75 C 162.019531 135.261719 159.179688 132.421875 155.691406 132.421875 Z M 155.691406 149.296875 L 144.3125 149.296875 C 141.597656 149.296875 139.390625 147.089844 139.390625 144.375 L 139.390625 138.75 C 139.390625 136.035156 141.597656 133.828125 144.3125 133.828125 L 155.691406 133.828125 C 158.40625 133.828125 160.613281 136.035156 160.613281 138.75 L 160.613281 144.375 C 160.613281 147.089844 158.40625 149.296875 155.691406 149.296875 Z M 144.3125 134.765625 C 142.117188 134.765625 140.328125 136.554688 140.328125 138.75 L 140.328125 144.375 C 140.328125 146.570312 142.117188 148.359375 144.3125 148.359375 L 155.691406 148.359375 C 157.886719 148.359375 159.675781 146.570312 159.675781 144.375 L 159.675781 138.75 C 159.675781 136.554688 157.886719 134.765625 155.691406 134.765625 Z M 144.3125 134.765625 " fill-opacity="1" fill-rule="nonzero"/><path fill="#a9a0f0" d="M 231.695312 131.953125 L 220.316406 131.953125 C 216.566406 131.953125 213.519531 135.003906 213.519531 138.75 L 213.519531 144.375 C 213.519531 148.121094 216.566406 151.171875 220.316406 151.171875 L 231.695312 151.171875 C 235.441406 151.171875 238.492188 148.121094 238.492188 144.375 L 238.492188 138.75 C 238.492188 135 235.4375 131.953125 231.695312 131.953125 Z M 236.148438 144.375 C 236.148438 146.832031 234.148438 148.828125 231.695312 148.828125 L 220.316406 148.828125 C 217.859375 148.828125 215.863281 146.832031 215.863281 144.375 L 215.863281 138.75 C 215.863281 136.292969 217.859375 134.296875 220.316406 134.296875 L 231.695312 134.296875 C 234.148438 134.296875 236.148438 136.292969 236.148438 138.75 Z M 236.148438 144.375 " fill-opacity="1" fill-rule="nonzero"/><path fill="#a9a0f0" d="M 231.695312 151.640625 L 220.316406 151.640625 C 216.308594 151.640625 213.050781 148.382812 213.050781 144.375 L 213.050781 138.75 C 213.050781 134.742188 216.308594 131.484375 220.316406 131.484375 L 231.695312 131.484375 C 235.699219 131.484375 238.960938 134.742188 238.960938 138.75 L 238.960938 144.375 C 238.960938 148.382812 235.695312 151.640625 231.695312 151.640625 Z M 220.3125 132.421875 C 216.824219 132.421875 213.984375 135.261719 213.984375 138.75 L 213.984375 144.375 C 213.984375 147.863281 216.824219 150.703125 220.3125 150.703125 L 231.691406 150.703125 C 235.179688 150.703125 238.019531 147.863281 238.019531 144.375 L 238.019531 138.75 C 238.019531 135.261719 235.179688 132.421875 231.691406 132.421875 Z M 231.695312 149.296875 L 220.316406 149.296875 C 217.601562 149.296875 215.394531 147.089844 215.394531 144.375 L 215.394531 138.75 C 215.394531 136.035156 217.601562 133.828125 220.316406 133.828125 L 231.695312 133.828125 C 234.40625 133.828125 236.617188 136.035156 236.617188 138.75 L 236.617188 144.375 C 236.617188 147.089844 234.40625 149.296875 231.695312 149.296875 Z M 220.3125 134.765625 C 218.117188 134.765625 216.328125 136.554688 216.328125 138.75 L 216.328125 144.375 C 216.328125 146.570312 218.117188 148.359375 220.3125 148.359375 L 231.691406 148.359375 C 233.886719 148.359375 235.675781 146.570312 235.675781 144.375 L 235.675781 138.75 C 235.675781 136.554688 233.886719 134.765625 231.691406 134.765625 Z M 220.3125 134.765625 " fill-opacity="1" fill-rule="nonzero"/><path fill="#a9a0f0" d="M 155.691406 162.167969 L 144.3125 162.167969 C 140.566406 162.167969 137.515625 165.21875 137.515625 168.964844 L 137.515625 174.589844 C 137.515625 178.339844 140.566406 181.386719 144.3125 181.386719 L 155.691406 181.386719 C 159.4375 181.386719 162.488281 178.339844 162.488281 174.589844 L 162.488281 168.964844 C 162.488281 165.21875 159.4375 162.167969 155.691406 162.167969 Z M 160.144531 174.589844 C 160.144531 177.046875 158.144531 179.042969 155.691406 179.042969 L 144.3125 179.042969 C 141.859375 179.042969 139.859375 177.046875 139.859375 174.589844 L 139.859375 168.964844 C 139.859375 166.511719 141.859375 164.511719 144.3125 164.511719 L 155.691406 164.511719 C 158.144531 164.511719 160.144531 166.511719 160.144531 168.964844 Z M 160.144531 174.589844 " fill-opacity="1" fill-rule="nonzero"/><path fill="#a9a0f0" d="M 155.691406 181.855469 L 144.3125 181.855469 C 140.308594 181.855469 137.046875 178.597656 137.046875 174.589844 L 137.046875 168.964844 C 137.046875 164.960938 140.308594 161.699219 144.3125 161.699219 L 155.691406 161.699219 C 159.695312 161.699219 162.957031 164.960938 162.957031 168.964844 L 162.957031 174.589844 C 162.957031 178.597656 159.695312 181.855469 155.691406 181.855469 Z M 144.3125 162.636719 C 140.824219 162.636719 137.984375 165.476562 137.984375 168.964844 L 137.984375 174.589844 C 137.984375 178.078125 140.824219 180.917969 144.3125 180.917969 L 155.691406 180.917969 C 159.179688 180.917969 162.019531 178.078125 162.019531 174.589844 L 162.019531 168.964844 C 162.019531 165.476562 159.179688 162.636719 155.691406 162.636719 Z M 155.691406 179.511719 L 144.3125 179.511719 C 141.597656 179.511719 139.390625 177.304688 139.390625 174.589844 L 139.390625 168.964844 C 139.390625 166.25 141.597656 164.042969 144.3125 164.042969 L 155.691406 164.042969 C 158.40625 164.042969 160.613281 166.25 160.613281 168.964844 L 160.613281 174.589844 C 160.613281 177.304688 158.40625 179.511719 155.691406 179.511719 Z M 144.3125 164.980469 C 142.117188 164.980469 140.328125 166.769531 140.328125 168.964844 L 140.328125 174.589844 C 140.328125 176.789062 142.117188 178.574219 144.3125 178.574219 L 155.691406 178.574219 C 157.886719 178.574219 159.675781 176.789062 159.675781 174.589844 L 159.675781 168.964844 C 159.675781 166.769531 157.886719 164.980469 155.691406 164.980469 Z M 144.3125 164.980469 " fill-opacity="1" fill-rule="nonzero"/></svg>