<svg xmlns="http://www.w3.org/2000/svg" xmlns:xlink="http://www.w3.org/1999/xlink" width="400" zoomAndPan="magnify" viewBox="0 0 300 299.999988" height="400" preserveAspectRatio="xMidYMid meet" version="1.0"><path fill="currentColor" d="M 220.175781 116.71875 L 220.175781 177.574219 L 227.402344 177.574219 L 227.402344 116.71875 C 235.007812 115.195312 240.714844 108.351562 240.714844 99.984375 C 240.714844 90.472656 233.105469 82.867188 223.597656 82.867188 C 215.609375 82.867188 208.765625 88.574219 206.863281 96.179688 L 173.773438 96.179688 L 173.773438 103.40625 L 206.863281 103.40625 C 208.765625 110.253906 213.707031 115.195312 220.175781 116.71875 Z M 223.976562 90.472656 C 229.300781 90.472656 233.867188 95.039062 233.867188 100.363281 C 233.867188 105.6875 229.683594 110.253906 223.976562 110.253906 C 218.652344 110.253906 214.089844 105.6875 214.089844 100.363281 C 214.089844 94.65625 218.273438 90.472656 223.976562 90.472656 Z M 223.976562 90.472656 " fill-opacity="1" fill-rule="nonzero"/><path fill="currentColor" d="M 74.5 205.71875 L 74.5 136.496094 L 67.273438 136.496094 L 67.273438 205.71875 C 59.667969 207.242188 53.960938 214.085938 53.960938 222.457031 C 53.960938 231.964844 61.570312 239.570312 71.078125 239.570312 C 79.066406 239.570312 85.910156 233.867188 87.8125 226.257812 L 125.847656 226.257812 L 125.847656 219.03125 L 87.8125 219.03125 C 85.910156 212.1875 80.964844 207.242188 74.5 205.71875 Z M 70.699219 232.34375 C 65.371094 232.34375 60.808594 227.78125 60.808594 222.457031 C 60.808594 217.128906 65.371094 212.566406 70.699219 212.566406 C 76.023438 212.566406 80.585938 217.128906 80.585938 222.457031 C 80.585938 227.78125 76.402344 232.34375 70.699219 232.34375 Z M 70.699219 232.34375 " fill-opacity="1" fill-rule="nonzero"/><path fill="currentColor" d="M 141.441406 67.273438 L 141.441406 51.296875 C 141.441406 50.15625 141.0625 49.777344 141.0625 49.777344 C 140.300781 49.015625 136.878906 49.398438 134.976562 49.398438 L 91.234375 49.398438 C 90.476562 49.398438 89.714844 49.015625 88.953125 48.636719 L 66.511719 32.660156 L 37.988281 32.660156 C 33.421875 32.660156 30 36.085938 30 40.648438 L 30 121.28125 C 30 131.550781 47.117188 131.933594 47.117188 122.421875 L 47.117188 82.488281 C 47.117188 74.121094 53.960938 67.273438 62.328125 67.273438 Z M 47.875 57.765625 C 45.59375 57.765625 43.691406 55.863281 43.691406 53.582031 C 43.691406 51.296875 45.59375 49.398438 47.875 49.398438 L 67.65625 49.398438 C 69.9375 49.398438 71.839844 51.296875 71.839844 53.582031 C 71.839844 55.863281 69.9375 57.765625 67.65625 57.765625 Z M 47.875 57.765625 " fill-opacity="1" fill-rule="nonzero"/><path fill="currentColor" d="M 160.078125 129.269531 C 163.882812 129.269531 166.925781 126.226562 166.925781 122.421875 L 166.925781 82.488281 C 166.925781 78.683594 163.882812 75.640625 160.078125 75.640625 L 62.328125 75.640625 C 58.527344 75.640625 55.484375 78.683594 55.484375 82.488281 C 55.484375 122.804688 56.242188 124.324219 53.960938 129.269531 Z M 90.476562 99.601562 L 104.167969 85.910156 C 105.6875 84.390625 108.351562 84.390625 109.875 85.910156 C 111.394531 87.429688 111.394531 90.09375 109.875 91.617188 L 103.027344 98.460938 L 131.554688 98.460938 C 133.835938 98.460938 135.738281 100.363281 135.738281 102.644531 C 135.738281 104.925781 133.835938 106.828125 131.554688 106.828125 L 103.027344 106.828125 L 109.875 113.675781 C 111.394531 115.195312 111.394531 117.859375 109.875 119.378906 C 108.351562 120.902344 105.6875 120.902344 104.167969 119.378906 L 90.476562 105.6875 C 88.953125 103.785156 88.953125 101.125 90.476562 99.601562 Z M 90.476562 99.601562 " fill-opacity="1" fill-rule="nonzero"/><path fill="currentColor" d="M 244.515625 202.675781 L 244.515625 186.703125 C 244.515625 185.5625 244.136719 185.179688 244.136719 185.179688 C 243.375 184.800781 239.953125 184.800781 238.050781 184.800781 L 194.3125 184.800781 C 193.550781 184.800781 192.789062 184.421875 192.027344 184.039062 L 169.589844 168.066406 L 141.0625 168.066406 C 136.496094 168.066406 133.074219 171.488281 133.074219 176.050781 L 133.074219 256.6875 C 133.074219 266.957031 150.191406 267.335938 150.191406 257.828125 L 150.191406 217.890625 C 150.191406 209.523438 157.035156 202.675781 165.402344 202.675781 Z M 150.570312 193.167969 C 148.289062 193.167969 146.386719 191.265625 146.386719 188.984375 C 146.386719 186.703125 148.289062 184.800781 150.570312 184.800781 L 170.347656 184.800781 C 172.628906 184.800781 174.53125 186.703125 174.53125 188.984375 C 174.53125 191.265625 172.628906 193.167969 170.347656 193.167969 Z M 150.570312 193.167969 " fill-opacity="1" fill-rule="nonzero"/><path fill="currentColor" d="M 262.773438 211.042969 L 165.023438 211.042969 C 161.21875 211.042969 158.175781 214.085938 158.175781 217.890625 C 158.175781 258.207031 158.9375 259.730469 156.65625 264.675781 L 263.152344 264.675781 C 266.957031 264.675781 270 261.632812 270 257.828125 L 270 217.890625 C 269.621094 214.085938 266.578125 211.042969 262.773438 211.042969 Z M 234.246094 241.851562 L 205.722656 241.851562 L 212.566406 248.699219 C 214.089844 250.21875 214.089844 252.882812 212.566406 254.40625 C 211.046875 255.925781 208.382812 255.925781 206.863281 254.40625 L 193.167969 240.710938 C 191.648438 239.191406 191.648438 236.527344 193.167969 235.007812 L 206.863281 221.3125 C 208.382812 219.792969 211.046875 219.792969 212.566406 221.3125 C 214.089844 222.835938 214.089844 225.496094 212.566406 227.019531 L 205.722656 233.867188 L 234.246094 233.867188 C 236.53125 233.867188 238.429688 235.765625 238.429688 238.050781 C 238.429688 239.953125 236.53125 241.851562 234.246094 241.851562 Z M 234.246094 241.851562 " fill-opacity="1" fill-rule="nonzero"/></svg>