<svg xmlns="http://www.w3.org/2000/svg" xmlns:xlink="http://www.w3.org/1999/xlink" width="400" zoomAndPan="magnify" viewBox="0 0 300 299.999988" height="400" preserveAspectRatio="xMidYMid meet" version="1.0"><defs><clipPath id="594c381f81"><path d="M 46.539062 61 L 217 61 L 217 269 L 46.539062 269 Z M 46.539062 61 " clip-rule="nonzero"/></clipPath></defs><path fill="currentColor" d="M 156.078125 118.304688 C 156.078125 119.746094 157.25 120.914062 158.691406 120.914062 L 172.425781 120.914062 C 173.867188 120.914062 175.039062 119.746094 175.039062 118.304688 C 175.039062 116.863281 173.867188 115.691406 172.425781 115.691406 L 158.691406 115.691406 C 157.25 115.691406 156.078125 116.863281 156.078125 118.304688 Z M 156.078125 118.304688 " fill-opacity="1" fill-rule="nonzero"/><path fill="currentColor" d="M 184.40625 133.605469 C 184.40625 132.164062 183.238281 130.992188 181.796875 130.992188 L 158.691406 130.992188 C 157.25 130.992188 156.078125 132.164062 156.078125 133.605469 C 156.078125 135.046875 157.25 136.21875 158.691406 136.21875 L 181.796875 136.21875 C 183.238281 136.21875 184.40625 135.046875 184.40625 133.605469 Z M 184.40625 133.605469 " fill-opacity="1" fill-rule="nonzero"/><path fill="currentColor" d="M 88.511719 233.324219 L 84.898438 233.324219 C 83.457031 233.324219 82.289062 234.496094 82.289062 235.9375 C 82.289062 237.378906 83.457031 238.550781 84.898438 238.550781 C 90.292969 238.550781 175.253906 238.546875 174.78125 238.550781 C 176.222656 238.550781 177.390625 237.378906 177.390625 235.9375 C 177.390625 234.496094 176.222656 233.324219 174.78125 233.324219 L 171.171875 233.324219 L 171.171875 192.757812 C 171.171875 189.523438 168.539062 186.894531 165.304688 186.894531 L 154.929688 186.894531 C 151.695312 186.894531 149.066406 189.523438 149.066406 192.757812 L 149.066406 233.324219 L 140.890625 233.324219 L 140.890625 185.527344 C 140.890625 182.296875 138.261719 179.664062 135.027344 179.664062 L 124.652344 179.664062 C 121.417969 179.664062 118.789062 182.296875 118.789062 185.527344 L 118.789062 233.324219 L 110.613281 233.324219 L 110.613281 204.53125 C 110.613281 201.296875 107.984375 198.667969 104.75 198.667969 L 94.375 198.667969 C 91.140625 198.667969 88.511719 201.296875 88.511719 204.53125 Z M 154.289062 192.757812 C 154.289062 192.40625 154.578125 192.117188 154.929688 192.117188 L 165.304688 192.117188 C 165.660156 192.117188 165.949219 192.40625 165.949219 192.757812 L 165.949219 233.324219 L 154.289062 233.324219 Z M 124.011719 185.527344 C 124.011719 185.175781 124.300781 184.886719 124.652344 184.886719 L 135.027344 184.886719 C 135.378906 184.886719 135.667969 185.175781 135.667969 185.527344 L 135.667969 233.324219 L 124.011719 233.324219 Z M 124.011719 185.527344 " fill-opacity="1" fill-rule="nonzero"/><g clip-path="url(#594c381f81)"><path fill="currentColor" d="M 46.5 73.4375 L 46.5 257.28125 C 46.5 263.65625 51.683594 268.839844 58.054688 268.839844 L 204.683594 268.839844 C 211.054688 268.839844 216.242188 263.65625 216.242188 257.28125 L 216.242188 193.125 C 216.242188 191.683594 215.070312 190.511719 213.628906 190.511719 C 212.1875 190.511719 211.015625 191.683594 211.015625 193.125 L 211.015625 257.28125 C 211.015625 260.773438 208.175781 263.617188 204.683594 263.617188 L 58.054688 263.617188 C 54.5625 263.617188 51.722656 260.773438 51.722656 257.28125 L 51.722656 73.4375 C 51.722656 69.925781 54.5625 67.070312 58.054688 67.070312 L 89.765625 67.070312 C 91.207031 67.070312 92.378906 65.898438 92.378906 64.457031 C 92.378906 63.015625 91.207031 61.847656 89.765625 61.847656 L 58.054688 61.847656 C 51.683594 61.847656 46.5 67.046875 46.5 73.4375 Z M 46.5 73.4375 " fill-opacity="1" fill-rule="nonzero"/></g><path fill="currentColor" d="M 204.683594 61.847656 L 172.480469 61.847656 C 171.039062 61.847656 169.867188 63.015625 169.867188 64.457031 C 169.867188 65.898438 171.039062 67.070312 172.480469 67.070312 L 204.683594 67.070312 C 208.175781 67.070312 211.015625 69.925781 211.015625 73.4375 L 211.015625 107.640625 C 211.015625 109.082031 212.1875 110.25 213.628906 110.25 C 215.070312 110.25 216.242188 109.082031 216.242188 107.640625 L 216.242188 73.4375 C 216.242188 67.046875 211.054688 61.847656 204.683594 61.847656 Z M 204.683594 61.847656 " fill-opacity="1" fill-rule="nonzero"/><path fill="currentColor" d="M 88.433594 75.175781 L 74.15625 75.175781 C 68.734375 75.175781 64.320312 79.589844 64.320312 85.011719 L 64.320312 245.636719 C 64.320312 251.0625 68.734375 255.476562 74.15625 255.476562 L 188.582031 255.476562 C 194.027344 255.476562 198.457031 251.0625 198.457031 245.636719 L 198.457031 199.71875 C 198.457031 198.277344 197.285156 197.105469 195.84375 197.105469 C 194.402344 197.105469 193.230469 198.277344 193.230469 199.71875 L 193.230469 245.636719 C 193.230469 248.183594 191.144531 250.25 188.582031 250.25 L 74.15625 250.25 C 71.613281 250.25 69.542969 248.183594 69.542969 245.636719 L 69.542969 85.011719 C 69.542969 82.46875 71.613281 80.398438 74.15625 80.398438 L 88.433594 80.398438 C 89.875 80.398438 91.046875 79.230469 91.046875 77.785156 C 91.046875 76.34375 89.875 75.175781 88.433594 75.175781 Z M 88.433594 75.175781 " fill-opacity="1" fill-rule="nonzero"/><path fill="currentColor" d="M 195.84375 137.542969 C 197.285156 137.542969 198.457031 136.371094 198.457031 134.929688 L 198.457031 85.011719 C 198.457031 79.589844 194.027344 75.175781 188.582031 75.175781 L 173.183594 75.175781 C 171.742188 75.175781 170.570312 76.34375 170.570312 77.785156 C 170.570312 79.230469 171.742188 80.398438 173.183594 80.398438 L 188.582031 80.398438 C 191.144531 80.398438 193.230469 82.46875 193.230469 85.011719 L 193.230469 134.929688 C 193.230469 136.371094 194.402344 137.542969 195.84375 137.542969 Z M 195.84375 137.542969 " fill-opacity="1" fill-rule="nonzero"/><path fill="currentColor" d="M 160.226562 55.855469 L 149.792969 55.855469 C 147.777344 47.109375 140.074219 40.742188 130.902344 40.742188 C 121.703125 40.742188 113.984375 47.109375 111.96875 55.855469 L 102.527344 55.855469 C 100.121094 55.855469 98.164062 57.8125 98.164062 60.21875 L 98.164062 86.617188 C 98.164062 89.023438 100.121094 90.980469 102.527344 90.980469 L 160.226562 90.980469 C 162.636719 90.980469 164.59375 89.023438 164.59375 86.617188 L 164.59375 60.21875 C 164.59375 57.8125 162.636719 55.855469 160.226562 55.855469 Z M 130.902344 45.964844 C 137.199219 45.964844 142.578125 50.0625 144.4375 55.855469 L 117.320312 55.855469 C 119.183594 50.0625 124.582031 45.964844 130.902344 45.964844 Z M 159.371094 85.757812 L 103.386719 85.757812 L 103.386719 61.078125 L 159.371094 61.078125 Z M 159.371094 85.757812 " fill-opacity="1" fill-rule="nonzero"/><path fill="currentColor" d="M 76.457031 134.472656 C 77.433594 140.90625 79.871094 144.28125 82.03125 147.421875 C 83.398438 149.421875 86.261719 149.707031 88 147.976562 L 104.625 131.386719 C 105.363281 130.648438 105.769531 129.667969 105.769531 128.628906 L 105.769531 105.121094 C 105.769531 102.796875 103.726562 100.933594 101.324219 101.265625 C 84.59375 103.652344 74.132812 119.171875 76.457031 134.472656 Z M 100.546875 106.710938 L 100.546875 128.078125 L 85.441406 143.148438 C 76.339844 129.652344 83.15625 110.503906 100.546875 106.710938 Z M 100.546875 106.710938 " fill-opacity="1" fill-rule="nonzero"/><path fill="currentColor" d="M 117.683594 101.636719 C 115.816406 101.199219 114.296875 100.953125 112.828125 102.210938 C 111.964844 102.949219 111.46875 104.027344 111.46875 105.167969 L 111.46875 126.550781 C 111.46875 128.703125 113.21875 130.449219 115.367188 130.449219 L 137 130.449219 C 139.195312 130.449219 141.160156 128.605469 140.855469 125.988281 C 139.042969 114.433594 131.25 104.828125 117.683594 101.636719 Z M 116.695312 125.226562 L 116.695312 106.773438 C 127.296875 109.328125 133.558594 116.539062 135.410156 125.226562 Z M 116.695312 125.226562 " fill-opacity="1" fill-rule="nonzero"/><path fill="currentColor" d="M 105.4375 139.671875 L 90.808594 154.304688 C 89.113281 156 89.335938 158.792969 91.242188 160.191406 C 101.984375 168.101562 115.722656 167.621094 125.460938 160.566406 C 127.398438 159.164062 127.628906 156.351562 125.929688 154.65625 L 110.949219 139.671875 C 109.429688 138.152344 106.960938 138.152344 105.4375 139.671875 Z M 95.625 156.875 L 108.195312 144.304688 L 121.117188 157.226562 C 114.617188 161.601562 104.210938 162.4375 95.625 156.875 Z M 95.625 156.875 " fill-opacity="1" fill-rule="nonzero"/><path fill="currentColor" d="M 121.984375 135.128906 C 118.519531 135.128906 116.777344 139.324219 119.226562 141.777344 C 123.273438 145.832031 127.886719 150.457031 131.742188 154.296875 C 133.394531 155.945312 136.132812 155.78125 137.574219 153.921875 C 141.378906 149.007812 142.988281 142.945312 143.609375 139.769531 C 144.074219 137.363281 142.234375 135.128906 139.785156 135.128906 Z M 121.984375 135.128906 " fill-opacity="1" fill-rule="nonzero"/><path fill="currentColor" d="M 230.132812 96.78125 C 183.265625 168.917969 185.421875 164.878906 185.316406 166.121094 C 185.285156 166.484375 182.96875 193.457031 183 193.105469 L 183 193.109375 C 182.816406 195.199219 185.042969 196.617188 186.851562 195.628906 C 209.828125 183.089844 211.042969 182.582031 211.578125 181.765625 L 255.984375 113.628906 C 258.640625 109.546875 257.484375 104.105469 253.417969 101.457031 L 242.304688 94.214844 C 238.234375 91.566406 232.789062 92.707031 230.132812 96.78125 Z M 196.128906 184.605469 L 189.351562 180.179688 L 190.144531 170.917969 L 204.289062 180.160156 Z M 251.605469 110.773438 L 208.628906 176.722656 L 191.53125 165.582031 L 226.652344 111.695312 L 235.578125 117.511719 C 236.777344 118.296875 238.398438 117.964844 239.191406 116.75 C 239.980469 115.542969 239.636719 113.921875 238.429688 113.136719 L 229.503906 107.316406 L 234.511719 99.632812 C 235.585938 97.980469 237.796875 97.511719 239.449219 98.589844 L 250.566406 105.835938 C 252.199219 106.898438 252.699219 109.101562 251.605469 110.773438 Z M 251.605469 110.773438 " fill-opacity="1" fill-rule="nonzero"/><path fill="currentColor" d="M 254.085938 94.796875 C 253.296875 96.003906 253.636719 97.621094 254.847656 98.410156 C 256.058594 99.199219 257.671875 98.855469 258.460938 97.648438 L 260.855469 93.976562 C 262.59375 91.308594 261.839844 87.71875 259.167969 85.976562 L 253.46875 82.261719 C 250.824219 80.535156 247.226562 81.242188 245.464844 83.949219 L 243.070312 87.617188 C 242.285156 88.828125 242.625 90.445312 243.832031 91.234375 C 245.042969 92.019531 246.65625 91.683594 247.449219 90.472656 L 249.84375 86.800781 C 249.984375 86.578125 250.390625 86.484375 250.613281 86.636719 L 256.316406 90.351562 C 256.574219 90.519531 256.648438 90.867188 256.476562 91.125 Z M 254.085938 94.796875 " fill-opacity="1" fill-rule="nonzero"/></svg>