<svg xmlns="http://www.w3.org/2000/svg" xmlns:xlink="http://www.w3.org/1999/xlink" width="400" zoomAndPan="magnify" viewBox="0 0 300 299.999988" height="400" preserveAspectRatio="xMidYMid meet" version="1.0"><path fill="currentColor" d="M 228.960938 129.105469 C 230.464844 129.105469 231.6875 127.886719 231.6875 126.382812 L 231.6875 49.375 C 231.6875 44.785156 228.066406 41.046875 223.617188 41.046875 L 139.628906 41.046875 C 138.128906 41.046875 136.90625 42.265625 136.90625 43.769531 C 136.90625 45.273438 138.128906 46.492188 139.628906 46.492188 L 223.617188 46.492188 C 225.0625 46.492188 226.238281 47.785156 226.238281 49.375 L 226.238281 126.382812 C 226.238281 127.886719 227.460938 129.105469 228.960938 129.105469 Z M 228.960938 129.105469 " fill-opacity="1" fill-rule="nonzero"/><path fill="currentColor" d="M 231.6875 213.570312 L 231.6875 205.601562 C 231.6875 204.097656 230.464844 202.878906 228.960938 202.878906 C 227.460938 202.878906 226.238281 204.097656 226.238281 205.601562 L 226.238281 213.570312 C 226.238281 215.15625 225.0625 216.449219 223.617188 216.449219 L 137.574219 216.449219 C 136.070312 216.449219 134.851562 217.667969 134.851562 219.171875 C 134.851562 220.675781 136.070312 221.894531 137.574219 221.894531 L 223.617188 221.894531 C 228.066406 221.894531 231.6875 218.160156 231.6875 213.570312 Z M 231.6875 213.570312 " fill-opacity="1" fill-rule="nonzero"/><path fill="currentColor" d="M 110.894531 72.71875 C 110.761719 74.21875 111.871094 75.535156 113.367188 75.667969 L 122.460938 76.460938 C 124.160156 76.605469 125.546875 75.195312 125.414062 73.53125 L 123.101562 44.378906 C 122.914062 42.046875 120.042969 41.007812 118.417969 42.714844 L 92.917969 69.445312 C 92.433594 69.953125 92.164062 70.914062 92.164062 71.609375 L 92.164062 169.699219 C 92.164062 171.199219 93.386719 172.421875 94.886719 172.421875 C 96.390625 172.421875 97.613281 171.199219 97.613281 169.699219 L 97.613281 72.414062 L 118.152344 50.882812 L 119.730469 70.757812 L 113.84375 70.242188 C 112.320312 70.085938 111.023438 71.21875 110.894531 72.71875 Z M 110.894531 72.71875 " fill-opacity="1" fill-rule="nonzero"/><path fill="currentColor" d="M 141.585938 86.890625 C 140.476562 85.875 138.753906 85.953125 137.738281 87.0625 L 123.5625 102.570312 L 118.972656 96.550781 C 118.058594 95.355469 116.347656 95.125 115.152344 96.039062 C 113.960938 96.953125 113.730469 98.660156 114.640625 99.855469 L 121.207031 108.460938 C 122.230469 109.800781 124.234375 109.90625 125.382812 108.644531 L 141.757812 90.738281 C 142.773438 89.625 142.695312 87.902344 141.585938 86.890625 Z M 141.585938 86.890625 " fill-opacity="1" fill-rule="nonzero"/><path fill="currentColor" d="M 114.640625 183.6875 L 121.207031 192.292969 C 122.226562 193.628906 124.230469 193.742188 125.382812 192.480469 L 141.757812 174.570312 C 142.773438 173.460938 142.695312 171.734375 141.585938 170.722656 C 140.476562 169.707031 138.753906 169.78125 137.738281 170.894531 L 123.5625 186.402344 L 118.972656 180.382812 C 118.058594 179.1875 116.347656 178.957031 115.152344 179.871094 C 113.960938 180.785156 113.730469 182.492188 114.640625 183.6875 Z M 114.640625 183.6875 " fill-opacity="1" fill-rule="nonzero"/><path fill="currentColor" d="M 137.964844 128.378906 C 136.878906 127.339844 135.15625 127.386719 134.117188 128.472656 L 127.101562 135.828125 L 120.085938 128.472656 C 119.050781 127.382812 117.324219 127.339844 116.234375 128.378906 C 115.148438 129.417969 115.105469 131.140625 116.144531 132.230469 L 123.339844 139.769531 L 116.144531 147.3125 C 114.488281 149.050781 115.738281 151.914062 118.113281 151.914062 C 120.144531 151.914062 120.441406 150.320312 127.101562 143.714844 C 134.050781 150.609375 134.074219 151.914062 136.085938 151.914062 C 138.460938 151.914062 139.714844 149.050781 138.054688 147.3125 L 130.863281 139.769531 L 138.054688 132.230469 C 139.09375 131.140625 139.054688 129.417969 137.964844 128.378906 Z M 137.964844 128.378906 " fill-opacity="1" fill-rule="nonzero"/><path fill="currentColor" d="M 204.730469 95.132812 L 150.242188 95.132812 C 148.738281 95.132812 147.519531 96.351562 147.519531 97.855469 C 147.519531 99.359375 148.738281 100.578125 150.242188 100.578125 L 204.730469 100.578125 C 206.234375 100.578125 207.453125 99.359375 207.453125 97.855469 C 207.453125 96.351562 206.234375 95.132812 204.730469 95.132812 Z M 204.730469 95.132812 " fill-opacity="1" fill-rule="nonzero"/><path fill="currentColor" d="M 150.242188 142.496094 L 200.609375 142.496094 C 202.113281 142.496094 203.332031 141.273438 203.332031 139.769531 C 203.332031 138.269531 202.113281 137.046875 200.609375 137.046875 L 150.242188 137.046875 C 148.738281 137.046875 147.519531 138.269531 147.519531 139.769531 C 147.519531 141.273438 148.738281 142.496094 150.242188 142.496094 Z M 150.242188 142.496094 " fill-opacity="1" fill-rule="nonzero"/><path fill="currentColor" d="M 150.242188 186.132812 L 204.730469 186.132812 C 206.234375 186.132812 207.453125 184.914062 207.453125 183.410156 C 207.453125 181.90625 206.234375 180.6875 204.730469 180.6875 L 150.242188 180.6875 C 148.738281 180.6875 147.519531 181.90625 147.519531 183.410156 C 147.519531 184.914062 148.738281 186.132812 150.242188 186.132812 Z M 150.242188 186.132812 " fill-opacity="1" fill-rule="nonzero"/><path fill="currentColor" d="M 266.597656 199.375 L 256.601562 178.355469 C 255.953125 177 254.328125 176.429688 252.972656 177.066406 C 251.613281 177.714844 251.035156 179.339844 251.683594 180.695312 L 261.679688 201.714844 C 263.839844 206.253906 261.855469 211.625 257.371094 213.714844 L 246.785156 218.808594 L 217.992188 159.046875 C 221.136719 158.863281 223.722656 157.566406 225.644531 155.210938 L 251.777344 209.453125 C 252.429688 210.808594 254.054688 211.378906 255.414062 210.726562 C 256.769531 210.074219 257.335938 208.445312 256.683594 207.089844 L 228.492188 148.574219 C 228.359375 148.296875 228.179688 148.042969 227.960938 147.828125 L 213.003906 132.910156 C 211.1875 131.101562 208.089844 132.589844 208.375 135.140625 L 210.714844 156.132812 C 210.804688 156.5 210.792969 156.648438 210.96875 157.015625 L 248.457031 234.828125 C 250.78125 239.640625 256.585938 241.699219 261.445312 239.355469 C 266.300781 237.015625 268.304688 231.207031 265.980469 226.386719 L 264.410156 223.128906 C 263.757812 221.773438 262.128906 221.203125 260.777344 221.855469 C 259.421875 222.507812 258.851562 224.136719 259.503906 225.488281 L 261.074219 228.753906 C 262.074219 230.816406 261.265625 233.394531 259.066406 234.457031 C 256.949219 235.480469 254.386719 234.585938 253.363281 232.464844 L 249.148438 223.714844 C 249.511719 223.539062 260.339844 218.328125 259.65625 218.65625 C 266.929688 215.277344 270.046875 206.617188 266.597656 199.375 Z M 222.484375 150.054688 C 221.171875 152.9375 219.167969 154.042969 215.910156 153.574219 L 214.648438 142.238281 Z M 222.484375 150.054688 " fill-opacity="1" fill-rule="nonzero"/><path fill="currentColor" d="M 78.0625 135.980469 C 65.183594 123.101562 42.960938 132.257812 42.960938 150.542969 L 42.960938 156.597656 C 42.960938 167.941406 52.195312 177.171875 63.539062 177.171875 C 74.867188 177.171875 84.082031 167.941406 84.082031 156.597656 L 84.082031 150.542969 C 84.082031 145.847656 82.210938 140.128906 78.0625 135.980469 Z M 48.410156 150.542969 C 48.410156 137.101562 64.746094 130.363281 74.214844 139.832031 C 76.015625 141.636719 77.238281 143.847656 77.945312 146.234375 C 76.816406 146.191406 75.472656 146.066406 74.03125 145.765625 C 66.074219 144.113281 57.753906 147.527344 53.300781 154.253906 C 51.808594 156.511719 50.261719 158.171875 48.6875 159.34375 C 48.523438 158.449219 48.410156 157.535156 48.410156 156.597656 Z M 63.539062 171.726562 C 58.132812 171.726562 53.414062 168.851562 50.738281 164.570312 C 53.28125 162.992188 55.664062 160.554688 57.84375 157.261719 C 61.078125 152.371094 67.144531 149.902344 72.921875 151.101562 C 75.105469 151.554688 77.121094 151.691406 78.632812 151.710938 L 78.632812 156.597656 C 78.632812 164.9375 71.863281 171.726562 63.539062 171.726562 Z M 63.539062 171.726562 " fill-opacity="1" fill-rule="nonzero"/><path fill="currentColor" d="M 43.257812 246.734375 L 48.035156 246.734375 L 48.035156 256.226562 C 48.035156 257.730469 49.257812 258.953125 50.757812 258.953125 C 52.261719 258.953125 53.484375 257.730469 53.484375 256.226562 L 53.484375 246.734375 L 58.921875 246.734375 C 60.421875 246.734375 61.644531 245.515625 61.644531 244.011719 C 61.644531 242.507812 60.421875 241.289062 58.921875 241.289062 L 43.257812 241.289062 C 39.019531 241.289062 35.625 237.832031 35.625 233.660156 L 35.625 198.140625 C 35.625 190.871094 41.53125 184.894531 48.875 184.894531 L 74.59375 184.894531 C 77.714844 184.894531 80.773438 185.761719 83.433594 187.410156 L 95.113281 194.644531 C 96.394531 195.4375 98.070312 195.042969 98.863281 193.761719 C 99.65625 192.484375 99.261719 190.804688 97.980469 190.015625 L 86.300781 182.78125 C 82.777344 180.601562 78.730469 179.449219 74.59375 179.449219 L 48.875 179.449219 C 38.519531 179.449219 30.179688 187.859375 30.179688 198.140625 L 30.179688 233.660156 C 30.179688 240.703125 35.882812 246.734375 43.257812 246.734375 Z M 43.257812 246.734375 " fill-opacity="1" fill-rule="nonzero"/><path fill="currentColor" d="M 50.039062 207.503906 C 48.535156 207.503906 47.316406 208.722656 47.316406 210.226562 L 47.316406 223.695312 C 47.316406 227.351562 50.289062 230.324219 53.941406 230.324219 L 74.523438 230.324219 L 68.4375 244.9375 C 66.625 249.289062 69.824219 254.109375 74.554688 254.109375 L 105.652344 254.109375 C 108.269531 254.109375 110.648438 252.566406 111.710938 250.171875 L 130.746094 207.238281 C 132.6875 202.867188 129.484375 197.929688 124.691406 197.929688 L 92.425781 197.929688 C 89.742188 197.929688 87.339844 199.53125 86.308594 202.011719 L 82.535156 211.082031 L 74.464844 201.429688 C 73.503906 200.28125 71.785156 200.121094 70.628906 201.089844 C 69.476562 202.050781 69.320312 203.769531 70.289062 204.925781 L 80.171875 216.75 L 76.789062 224.875 L 53.941406 224.875 C 53.292969 224.875 52.761719 224.347656 52.761719 223.695312 L 52.761719 210.226562 C 52.761719 208.722656 51.542969 207.503906 50.039062 207.503906 Z M 91.335938 204.101562 C 91.523438 203.660156 91.949219 203.375 92.425781 203.375 L 124.691406 203.375 C 125.542969 203.375 126.113281 204.246094 125.769531 205.035156 L 106.730469 247.964844 C 106.542969 248.390625 106.121094 248.664062 105.652344 248.664062 L 74.554688 248.664062 C 73.707031 248.664062 73.144531 247.808594 73.464844 247.03125 Z M 91.335938 204.101562 " fill-opacity="1" fill-rule="nonzero"/></svg>