<svg xmlns="http://www.w3.org/2000/svg" xmlns:xlink="http://www.w3.org/1999/xlink" width="400" zoomAndPan="magnify" viewBox="0 0 300 299.999988" height="400" preserveAspectRatio="xMidYMid meet" version="1.0"><defs><clipPath id="36cda3254d"><path d="M 31.199219 30 L 269 30 L 269 269 L 31.199219 269 Z M 31.199219 30 " clip-rule="nonzero"/></clipPath></defs><path fill="currentColor" d="M 188.527344 227.21875 L 193.480469 227.21875 L 193.480469 232.195312 L 188.527344 232.195312 Z M 188.527344 227.21875 " fill-opacity="1" fill-rule="nonzero"/><path fill="currentColor" d="M 188.527344 237.171875 L 193.480469 237.171875 L 193.480469 242.148438 L 188.527344 242.148438 Z M 188.527344 237.171875 " fill-opacity="1" fill-rule="nonzero"/><path fill="currentColor" d="M 188.527344 247.125 L 193.480469 247.125 L 193.480469 252.082031 L 188.527344 252.082031 Z M 188.527344 247.125 " fill-opacity="1" fill-rule="nonzero"/><path fill="currentColor" d="M 137.515625 247.125 L 142.621094 247.125 L 142.621094 252.082031 L 137.515625 252.082031 Z M 137.515625 247.125 " fill-opacity="1" fill-rule="nonzero"/><path fill="currentColor" d="M 147.71875 247.125 L 152.820312 247.125 L 152.820312 252.082031 L 147.71875 252.082031 Z M 147.71875 247.125 " fill-opacity="1" fill-rule="nonzero"/><path fill="currentColor" d="M 168.121094 247.125 L 173.226562 247.125 L 173.226562 252.082031 L 168.121094 252.082031 Z M 168.121094 247.125 " fill-opacity="1" fill-rule="nonzero"/><path fill="currentColor" d="M 157.921875 247.125 L 163.023438 247.125 L 163.023438 252.082031 L 157.921875 252.082031 Z M 157.921875 247.125 " fill-opacity="1" fill-rule="nonzero"/><path fill="currentColor" d="M 178.324219 247.125 L 183.425781 247.125 L 183.425781 252.082031 L 178.324219 252.082031 Z M 178.324219 247.125 " fill-opacity="1" fill-rule="nonzero"/><path fill="currentColor" d="M 127.316406 247.125 L 132.417969 247.125 L 132.417969 252.082031 L 127.316406 252.082031 Z M 127.316406 247.125 " fill-opacity="1" fill-rule="nonzero"/><path fill="currentColor" d="M 117.113281 247.125 L 122.214844 247.125 L 122.214844 252.082031 L 117.113281 252.082031 Z M 117.113281 247.125 " fill-opacity="1" fill-rule="nonzero"/><path fill="currentColor" d="M 66.101562 247.125 L 71.207031 247.125 L 71.207031 252.082031 L 66.101562 252.082031 Z M 66.101562 247.125 " fill-opacity="1" fill-rule="nonzero"/><path fill="currentColor" d="M 55.902344 247.125 L 61.003906 247.125 L 61.003906 252.082031 L 55.902344 252.082031 Z M 55.902344 247.125 " fill-opacity="1" fill-rule="nonzero"/><path fill="currentColor" d="M 76.304688 247.125 L 81.410156 247.125 L 81.410156 252.082031 L 76.304688 252.082031 Z M 76.304688 247.125 " fill-opacity="1" fill-rule="nonzero"/><path fill="currentColor" d="M 106.910156 247.125 L 112.011719 247.125 L 112.011719 252.082031 L 106.910156 252.082031 Z M 106.910156 247.125 " fill-opacity="1" fill-rule="nonzero"/><path fill="currentColor" d="M 96.710938 247.125 L 101.8125 247.125 L 101.8125 252.082031 L 96.710938 252.082031 Z M 96.710938 247.125 " fill-opacity="1" fill-rule="nonzero"/><path fill="currentColor" d="M 86.507812 247.125 L 91.609375 247.125 L 91.609375 252.082031 L 86.507812 252.082031 Z M 86.507812 247.125 " fill-opacity="1" fill-rule="nonzero"/><path fill="currentColor" d="M 45.847656 247.125 L 50.804688 247.125 L 50.804688 252.082031 L 45.847656 252.082031 Z M 45.847656 247.125 " fill-opacity="1" fill-rule="nonzero"/><path fill="currentColor" d="M 45.847656 237.300781 L 50.804688 237.300781 L 50.804688 242.214844 L 45.847656 242.214844 Z M 45.847656 237.300781 " fill-opacity="1" fill-rule="nonzero"/><path fill="currentColor" d="M 45.847656 188.152344 L 50.804688 188.152344 L 50.804688 193.070312 L 45.847656 193.070312 Z M 45.847656 188.152344 " fill-opacity="1" fill-rule="nonzero"/><path fill="currentColor" d="M 45.847656 168.496094 L 50.804688 168.496094 L 50.804688 173.410156 L 45.847656 173.410156 Z M 45.847656 168.496094 " fill-opacity="1" fill-rule="nonzero"/><path fill="currentColor" d="M 45.847656 227.46875 L 50.804688 227.46875 L 50.804688 232.382812 L 45.847656 232.382812 Z M 45.847656 227.46875 " fill-opacity="1" fill-rule="nonzero"/><path fill="currentColor" d="M 45.847656 217.640625 L 50.804688 217.640625 L 50.804688 222.554688 L 45.847656 222.554688 Z M 45.847656 217.640625 " fill-opacity="1" fill-rule="nonzero"/><path fill="currentColor" d="M 45.847656 197.984375 L 50.804688 197.984375 L 50.804688 202.898438 L 45.847656 202.898438 Z M 45.847656 197.984375 " fill-opacity="1" fill-rule="nonzero"/><path fill="currentColor" d="M 45.847656 207.808594 L 50.804688 207.808594 L 50.804688 212.722656 L 45.847656 212.722656 Z M 45.847656 207.808594 " fill-opacity="1" fill-rule="nonzero"/><path fill="currentColor" d="M 45.847656 148.835938 L 50.804688 148.835938 L 50.804688 153.75 L 45.847656 153.75 Z M 45.847656 148.835938 " fill-opacity="1" fill-rule="nonzero"/><path fill="currentColor" d="M 45.847656 139.007812 L 50.804688 139.007812 L 50.804688 143.921875 L 45.847656 143.921875 Z M 45.847656 139.007812 " fill-opacity="1" fill-rule="nonzero"/><path fill="currentColor" d="M 45.847656 89.863281 L 50.804688 89.863281 L 50.804688 94.777344 L 45.847656 94.777344 Z M 45.847656 89.863281 " fill-opacity="1" fill-rule="nonzero"/><path fill="currentColor" d="M 45.847656 119.351562 L 50.804688 119.351562 L 50.804688 124.265625 L 45.847656 124.265625 Z M 45.847656 119.351562 " fill-opacity="1" fill-rule="nonzero"/><path fill="currentColor" d="M 45.847656 99.691406 L 50.804688 99.691406 L 50.804688 104.605469 L 45.847656 104.605469 Z M 45.847656 99.691406 " fill-opacity="1" fill-rule="nonzero"/><path fill="currentColor" d="M 45.847656 129.179688 L 50.804688 129.179688 L 50.804688 134.09375 L 45.847656 134.09375 Z M 45.847656 129.179688 " fill-opacity="1" fill-rule="nonzero"/><path fill="currentColor" d="M 45.847656 178.324219 L 50.804688 178.324219 L 50.804688 183.238281 L 45.847656 183.238281 Z M 45.847656 178.324219 " fill-opacity="1" fill-rule="nonzero"/><path fill="currentColor" d="M 45.847656 158.667969 L 50.804688 158.667969 L 50.804688 163.582031 L 45.847656 163.582031 Z M 45.847656 158.667969 " fill-opacity="1" fill-rule="nonzero"/><path fill="currentColor" d="M 45.847656 109.519531 L 50.804688 109.519531 L 50.804688 114.433594 L 45.847656 114.433594 Z M 45.847656 109.519531 " fill-opacity="1" fill-rule="nonzero"/><path fill="currentColor" d="M 45.847656 79.992188 L 50.804688 79.992188 L 50.804688 84.949219 L 45.847656 84.949219 Z M 45.847656 79.992188 " fill-opacity="1" fill-rule="nonzero"/><path fill="currentColor" d="M 56.046875 79.992188 L 58.523438 79.992188 L 58.523438 84.949219 L 56.046875 84.949219 Z M 56.046875 79.992188 " fill-opacity="1" fill-rule="nonzero"/><path fill="currentColor" d="M 180.800781 79.992188 L 183.28125 79.992188 L 183.28125 84.949219 L 180.800781 84.949219 Z M 180.800781 79.992188 " fill-opacity="1" fill-rule="nonzero"/><path fill="currentColor" d="M 188.527344 79.992188 L 193.480469 79.992188 L 193.480469 84.949219 L 188.527344 84.949219 Z M 188.527344 79.992188 " fill-opacity="1" fill-rule="nonzero"/><path fill="currentColor" d="M 188.527344 99.003906 L 193.480469 99.003906 L 193.480469 103.691406 L 188.527344 103.691406 Z M 188.527344 99.003906 " fill-opacity="1" fill-rule="nonzero"/><path fill="currentColor" d="M 188.527344 108.375 L 193.480469 108.375 L 193.480469 113.058594 L 188.527344 113.058594 Z M 188.527344 108.375 " fill-opacity="1" fill-rule="nonzero"/><path fill="currentColor" d="M 188.527344 89.632812 L 193.480469 89.632812 L 193.480469 94.320312 L 188.527344 94.320312 Z M 188.527344 89.632812 " fill-opacity="1" fill-rule="nonzero"/><path fill="currentColor" d="M 120.339844 68.21875 C 127.457031 68.21875 133.25 62.429688 133.25 55.308594 C 133.25 48.191406 127.457031 42.402344 120.339844 42.402344 C 113.226562 42.402344 107.433594 48.191406 107.433594 55.308594 C 107.433594 62.429688 113.222656 68.21875 120.339844 68.21875 Z M 120.339844 47.355469 C 124.726562 47.355469 128.296875 50.925781 128.296875 55.308594 C 128.296875 59.695312 124.726562 63.265625 120.339844 63.265625 C 115.957031 63.265625 112.386719 59.695312 112.386719 55.308594 C 112.386719 50.925781 115.957031 47.355469 120.339844 47.355469 Z M 120.339844 47.355469 " fill-opacity="1" fill-rule="nonzero"/><path fill="currentColor" d="M 97.238281 99.226562 L 63.042969 99.226562 L 63.042969 133.421875 L 97.238281 133.421875 Z M 92.285156 128.464844 L 67.996094 128.464844 L 67.996094 104.179688 L 92.285156 104.179688 Z M 92.285156 128.464844 " fill-opacity="1" fill-rule="nonzero"/><path fill="currentColor" d="M 162.988281 100.824219 L 173.808594 100.824219 L 173.808594 105.777344 L 162.988281 105.777344 Z M 162.988281 100.824219 " fill-opacity="1" fill-rule="nonzero"/><path fill="currentColor" d="M 109.152344 100.824219 L 155.222656 100.824219 L 155.222656 105.777344 L 109.152344 105.777344 Z M 109.152344 100.824219 " fill-opacity="1" fill-rule="nonzero"/><path fill="currentColor" d="M 109.152344 113.847656 L 154.976562 113.847656 L 154.976562 118.800781 L 109.152344 118.800781 Z M 109.152344 113.847656 " fill-opacity="1" fill-rule="nonzero"/><path fill="currentColor" d="M 109.152344 126.867188 L 138.644531 126.867188 L 138.644531 131.820312 L 109.152344 131.820312 Z M 109.152344 126.867188 " fill-opacity="1" fill-rule="nonzero"/><path fill="currentColor" d="M 97.238281 151.003906 L 63.042969 151.003906 L 63.042969 185.199219 L 97.238281 185.199219 Z M 92.285156 180.246094 L 67.996094 180.246094 L 67.996094 155.960938 L 92.285156 155.960938 Z M 92.285156 180.246094 " fill-opacity="1" fill-rule="nonzero"/><path fill="currentColor" d="M 97.238281 202.785156 L 63.042969 202.785156 L 63.042969 236.980469 L 97.238281 236.980469 Z M 92.285156 232.027344 L 67.996094 232.027344 L 67.996094 207.742188 L 92.285156 207.742188 Z M 92.285156 232.027344 " fill-opacity="1" fill-rule="nonzero"/><path fill="currentColor" d="M 109.15625 204.382812 L 138.945312 204.382812 L 138.945312 209.339844 L 109.15625 209.339844 Z M 109.15625 204.382812 " fill-opacity="1" fill-rule="nonzero"/><path fill="currentColor" d="M 109.152344 217.40625 L 152.519531 217.40625 L 152.519531 222.359375 L 109.152344 222.359375 Z M 109.152344 217.40625 " fill-opacity="1" fill-rule="nonzero"/><path fill="currentColor" d="M 109.152344 230.429688 L 141.101562 230.429688 L 141.101562 235.382812 L 109.152344 235.382812 Z M 109.152344 230.429688 " fill-opacity="1" fill-rule="nonzero"/><path fill="currentColor" d="M 240.738281 203.527344 C 246.945312 193.21875 250.164062 181.371094 250.039062 169.261719 L 245.085938 169.3125 C 245.199219 180.503906 242.230469 191.449219 236.496094 200.972656 Z M 240.738281 203.527344 " fill-opacity="1" fill-rule="nonzero"/><g clip-path="url(#36cda3254d)"><path fill="currentColor" d="M 232.617188 204.9375 L 227.042969 209.46875 L 223.867188 205.558594 C 231.515625 197.273438 236.320312 186.828125 237.5 175.410156 C 238.945312 161.4375 234.863281 147.734375 226.003906 136.832031 C 221.09375 130.792969 215.015625 126.019531 208.226562 122.714844 L 208.226562 75.5625 C 208.226562 69.875 203.609375 65.246094 197.933594 65.246094 L 163.617188 65.246094 L 163.617188 51.726562 L 143.132812 51.726562 C 141.757812 40.003906 131.695312 30.835938 119.652344 30.835938 C 107.621094 30.835938 97.570312 40.003906 96.195312 51.726562 L 75.710938 51.726562 L 75.710938 65.246094 L 41.394531 65.246094 C 35.71875 65.246094 31.101562 69.875 31.101562 75.5625 L 31.101562 256.511719 C 31.101562 262.199219 35.71875 266.828125 41.394531 266.828125 L 197.933594 266.828125 C 203.609375 266.828125 208.226562 262.199219 208.226562 256.511719 L 208.226562 217.226562 C 209.542969 216.585938 210.832031 215.890625 212.09375 215.140625 L 215.261719 219.039062 L 209.679688 223.578125 L 241.859375 263.179688 C 247.027344 269.539062 256.335938 270.457031 262.648438 265.328125 C 268.984375 260.179688 269.949219 250.878906 264.800781 244.539062 Z M 222.15625 139.957031 C 230.183594 149.835938 233.882812 162.242188 232.574219 174.902344 C 231.265625 187.558594 225.105469 198.949219 215.226562 206.976562 C 208.96875 212.0625 201.597656 215.394531 193.816406 216.832031 C 176.722656 219.933594 159.449219 213.777344 148.21875 200.039062 C 148.140625 199.941406 148.066406 199.839844 147.988281 199.742188 C 141.152344 191.191406 137.542969 180.6875 137.574219 169.910156 C 137.574219 169.757812 137.578125 169.601562 137.578125 169.449219 C 137.761719 154.8125 144.507812 141.671875 155.140625 133.03125 C 155.222656 132.964844 155.3125 132.90625 155.394531 132.84375 C 165.515625 124.75 178.503906 121.261719 190.667969 122.679688 C 190.761719 122.691406 190.855469 122.707031 190.953125 122.71875 C 203.226562 124.210938 214.355469 130.359375 222.15625 139.957031 Z M 80.667969 56.683594 L 100.960938 56.683594 L 100.992188 54.234375 C 101.121094 44.066406 109.492188 35.789062 119.652344 35.789062 C 129.824219 35.789062 138.207031 44.066406 138.335938 54.234375 L 138.367188 56.683594 L 158.664062 56.683594 L 158.664062 79.746094 L 80.667969 79.746094 Z M 203.273438 219.394531 L 203.273438 256.511719 C 203.273438 259.46875 200.878906 261.875 197.933594 261.875 L 41.394531 261.875 C 38.449219 261.875 36.054688 259.46875 36.054688 256.511719 L 36.054688 75.5625 C 36.054688 72.605469 38.449219 70.199219 41.394531 70.199219 L 75.710938 70.199219 L 75.710938 84.703125 L 163.617188 84.703125 L 163.617188 70.199219 L 197.933594 70.199219 C 200.878906 70.199219 203.273438 72.605469 203.273438 75.5625 L 203.273438 120.609375 C 196.972656 118.292969 191.503906 117.816406 191.144531 117.746094 C 176.765625 116.121094 162.597656 120.667969 152.1875 129.058594 C 152.128906 129.105469 152.066406 129.140625 152.011719 129.1875 C 144.875 134.980469 138.898438 143.046875 135.589844 152.597656 L 109.15625 152.597656 L 109.15625 157.550781 L 134.089844 157.550781 C 133.933594 158.199219 133.8125 158.851562 133.679688 159.5 C 133.664062 159.5625 133.652344 159.625 133.636719 159.691406 C 133.242188 161.660156 132.960938 163.640625 132.796875 165.625 L 109.15625 165.625 L 109.15625 170.578125 L 132.621094 170.578125 C 132.648438 173.289062 132.871094 175.988281 133.316406 178.652344 L 109.15625 178.652344 L 109.15625 183.605469 L 134.398438 183.605469 C 136.308594 190.742188 139.746094 197.375 144.136719 202.859375 C 144.21875 202.960938 144.285156 203.070312 144.367188 203.171875 C 156.242188 217.78125 175.359375 225.128906 194.261719 221.800781 C 197.148438 221.304688 200.707031 220.335938 203.273438 219.394531 Z M 216.242188 212.390625 C 216.949219 211.871094 217.671875 211.375 218.355469 210.820312 C 219.042969 210.257812 219.667969 209.640625 220.324219 209.054688 L 223.199219 212.589844 L 219.105469 215.914062 Z M 259.523438 261.484375 C 255.296875 264.917969 249.113281 264.253906 245.707031 260.054688 L 216.644531 224.296875 L 218.386719 222.882812 L 218.386719 222.886719 L 230.167969 213.3125 L 230.164062 213.3125 L 231.894531 211.90625 L 260.953125 247.664062 C 264.378906 251.878906 263.738281 258.054688 259.523438 261.484375 Z M 259.523438 261.484375 " fill-opacity="1" fill-rule="nonzero"/></g><path fill="currentColor" d="M 141.796875 166.855469 L 140.125 168.589844 L 141.8125 170.308594 C 142.605469 171.117188 161.5 190.117188 185.253906 190.117188 L 185.449219 190.117188 C 209.289062 190.011719 228.117188 170.742188 228.90625 169.921875 L 230.578125 168.1875 L 228.890625 166.46875 C 228.101562 165.660156 209.203125 146.65625 185.253906 146.65625 C 161.414062 146.761719 142.585938 166.035156 141.796875 166.855469 Z M 168.042969 155.304688 C 165.261719 158.972656 163.597656 163.535156 163.621094 168.484375 C 163.640625 173.441406 165.355469 178 168.1875 181.652344 C 158.304688 177.730469 150.570312 171.542969 147.199219 168.554688 C 150.53125 165.546875 158.179688 159.3125 168.042969 155.304688 Z M 185.351562 186.246094 L 185.351562 185.164062 C 176.140625 185.164062 168.617188 177.671875 168.574219 168.460938 C 168.535156 159.382812 175.757812 151.949219 184.84375 151.640625 C 185.03125 151.636719 185.210938 151.613281 185.398438 151.613281 C 194.585938 151.640625 202.089844 159.121094 202.128906 168.3125 C 202.171875 177.5625 194.675781 185.125 185.425781 185.164062 Z M 202.632812 181.507812 C 205.433594 177.832031 207.105469 173.257812 207.082031 168.292969 C 207.0625 163.332031 205.34375 158.773438 202.503906 155.117188 C 212.394531 159.039062 220.136719 165.230469 223.507812 168.21875 C 220.167969 171.238281 212.492188 177.5 202.632812 181.507812 Z M 202.632812 181.507812 " fill-opacity="1" fill-rule="nonzero"/><path fill="currentColor" d="M 185.316406 160.238281 C 183.140625 160.25 181.09375 161.105469 179.5625 162.652344 C 178.03125 164.199219 177.195312 166.246094 177.203125 168.421875 C 177.226562 172.898438 180.878906 176.535156 185.351562 176.535156 L 185.386719 176.535156 C 187.5625 176.527344 189.609375 175.667969 191.140625 174.125 C 192.671875 172.578125 193.511719 170.527344 193.5 168.351562 C 193.480469 163.878906 189.824219 160.238281 185.316406 160.238281 Z M 187.621094 170.636719 C 187.019531 171.242188 186.21875 171.578125 185.367188 171.582031 L 185.351562 174.058594 L 185.351562 171.582031 C 183.597656 171.582031 182.164062 170.15625 182.15625 168.402344 C 182.152344 167.546875 182.480469 166.746094 183.082031 166.140625 C 183.683594 165.535156 184.484375 165.199219 185.351562 165.195312 C 187.105469 165.195312 188.539062 166.621094 188.546875 168.375 C 188.550781 169.226562 188.222656 170.03125 187.621094 170.636719 Z M 187.621094 170.636719 " fill-opacity="1" fill-rule="nonzero"/><path fill="currentColor" d="M 215.5625 80.113281 L 220.515625 80.113281 L 220.515625 85.070312 L 215.5625 85.070312 Z M 215.5625 80.113281 " fill-opacity="1" fill-rule="nonzero"/><path fill="currentColor" d="M 215.5625 90.023438 L 220.515625 90.023438 L 220.515625 94.976562 L 215.5625 94.976562 Z M 215.5625 90.023438 " fill-opacity="1" fill-rule="nonzero"/><path fill="currentColor" d="M 215.5625 99.933594 L 220.515625 99.933594 L 220.515625 104.886719 L 215.5625 104.886719 Z M 215.5625 99.933594 " fill-opacity="1" fill-rule="nonzero"/><path fill="currentColor" d="M 242.691406 245.414062 L 239.585938 241.554688 L 243.445312 238.449219 L 246.550781 242.308594 Z M 242.691406 245.414062 " fill-opacity="1" fill-rule="nonzero"/><path fill="currentColor" d="M 233.371094 233.863281 L 237.230469 230.753906 L 240.339844 234.609375 L 236.480469 237.71875 Z M 233.371094 233.863281 " fill-opacity="1" fill-rule="nonzero"/><path fill="currentColor" d="M 38.816406 52.132812 L 43.769531 52.132812 L 43.769531 57.085938 L 38.816406 57.085938 Z M 38.816406 52.132812 " fill-opacity="1" fill-rule="nonzero"/><path fill="currentColor" d="M 48.726562 52.132812 L 53.679688 52.132812 L 53.679688 57.085938 L 48.726562 57.085938 Z M 48.726562 52.132812 " fill-opacity="1" fill-rule="nonzero"/><path fill="currentColor" d="M 58.632812 52.132812 L 63.589844 52.132812 L 63.589844 57.085938 L 58.632812 57.085938 Z M 58.632812 52.132812 " fill-opacity="1" fill-rule="nonzero"/><path fill="currentColor" d="M 182.460938 52.132812 L 187.414062 52.132812 L 187.414062 57.085938 L 182.460938 57.085938 Z M 182.460938 52.132812 " fill-opacity="1" fill-rule="nonzero"/><path fill="currentColor" d="M 172.550781 52.132812 L 177.503906 52.132812 L 177.503906 57.085938 L 172.550781 57.085938 Z M 172.550781 52.132812 " fill-opacity="1" fill-rule="nonzero"/><path fill="currentColor" d="M 192.367188 52.132812 L 197.320312 52.132812 L 197.320312 57.085938 L 192.367188 57.085938 Z M 192.367188 52.132812 " fill-opacity="1" fill-rule="nonzero"/><path fill="currentColor" d="M 229.738281 60.03125 L 234.695312 60.03125 L 234.695312 64.988281 L 229.738281 64.988281 Z M 229.738281 60.03125 " fill-opacity="1" fill-rule="nonzero"/><path fill="currentColor" d="M 249.558594 60.03125 L 254.511719 60.03125 L 254.511719 64.988281 L 249.558594 64.988281 Z M 249.558594 60.03125 " fill-opacity="1" fill-rule="nonzero"/><path fill="currentColor" d="M 239.648438 60.03125 L 244.601562 60.03125 L 244.601562 64.988281 L 239.648438 64.988281 Z M 239.648438 60.03125 " fill-opacity="1" fill-rule="nonzero"/><path fill="currentColor" d="M 225.265625 119.960938 L 230.21875 119.960938 L 230.21875 124.914062 L 225.265625 124.914062 Z M 225.265625 119.960938 " fill-opacity="1" fill-rule="nonzero"/><path fill="currentColor" d="M 235.171875 119.960938 L 240.125 119.960938 L 240.125 124.914062 L 235.171875 124.914062 Z M 235.171875 119.960938 " fill-opacity="1" fill-rule="nonzero"/><path fill="currentColor" d="M 245.082031 119.960938 L 250.035156 119.960938 L 250.035156 124.914062 L 245.082031 124.914062 Z M 245.082031 119.960938 " fill-opacity="1" fill-rule="nonzero"/><path fill="currentColor" d="M 247.082031 95.921875 L 241.433594 95.921875 L 241.433594 100.875 L 247.082031 100.875 L 247.082031 106.523438 L 252.035156 106.523438 L 252.035156 100.875 L 257.683594 100.875 L 257.683594 95.921875 L 252.035156 95.921875 L 252.035156 90.269531 L 247.082031 90.269531 Z M 247.082031 95.921875 " fill-opacity="1" fill-rule="nonzero"/><path fill="currentColor" d="M 218.316406 42.402344 L 212.667969 42.402344 L 212.667969 47.355469 L 218.316406 47.355469 L 218.316406 53.003906 L 223.269531 53.003906 L 223.269531 47.355469 L 228.917969 47.355469 L 228.917969 42.402344 L 223.269531 42.402344 L 223.269531 36.753906 L 218.316406 36.753906 Z M 218.316406 42.402344 " fill-opacity="1" fill-rule="nonzero"/></svg>