<svg xmlns="http://www.w3.org/2000/svg" xmlns:xlink="http://www.w3.org/1999/xlink" width="400" zoomAndPan="magnify" viewBox="0 0 300 299.999988" height="400" preserveAspectRatio="xMidYMid meet" version="1.0"><defs><clipPath id="2b26e7afff"><path d="M 238 123 L 258.75 123 L 258.75 130 L 238 130 Z M 238 123 " clip-rule="nonzero"/></clipPath><clipPath id="8699d6dcf8"><path d="M 238 146 L 258.75 146 L 258.75 153 L 238 153 Z M 238 146 " clip-rule="nonzero"/></clipPath><clipPath id="36aa14a983"><path d="M 238 169 L 258.75 169 L 258.75 176 L 238 176 Z M 238 169 " clip-rule="nonzero"/></clipPath><clipPath id="3f7b07d042"><path d="M 238 193 L 258.75 193 L 258.75 199 L 238 199 Z M 238 193 " clip-rule="nonzero"/></clipPath><clipPath id="9c5b4dbc0e"><path d="M 238 216 L 258.75 216 L 258.75 222 L 238 222 Z M 238 216 " clip-rule="nonzero"/></clipPath><clipPath id="1debee5fee"><path d="M 238 239 L 258.75 239 L 258.75 246 L 238 246 Z M 238 239 " clip-rule="nonzero"/></clipPath></defs><path fill="#a9a0f0" d="M 241.078125 245.058594 L 48.71875 245.058594 C 47.109375 245.058594 45.804688 243.753906 45.804688 242.144531 L 45.804688 126.617188 C 45.804688 125.007812 47.109375 123.699219 48.71875 123.699219 L 241.078125 123.699219 C 242.6875 123.699219 243.996094 125.007812 243.996094 126.617188 L 243.996094 242.144531 C 243.996094 243.753906 242.6875 245.058594 241.078125 245.058594 Z M 51.636719 239.226562 L 238.160156 239.226562 L 238.160156 129.535156 L 51.636719 129.535156 Z M 51.636719 239.226562 " fill-opacity="1" fill-rule="evenodd"/><path fill="#a9a0f0" d="M 209.855469 229.367188 L 79.945312 229.367188 C 78.332031 229.367188 77.027344 228.0625 77.027344 226.449219 C 77.027344 219.496094 71.367188 213.839844 64.414062 213.839844 C 62.800781 213.839844 61.496094 212.53125 61.496094 210.921875 L 61.496094 157.84375 C 61.496094 156.230469 62.800781 154.925781 64.414062 154.925781 C 71.367188 154.925781 77.027344 149.269531 77.027344 142.3125 C 77.027344 140.703125 78.332031 139.394531 79.945312 139.394531 L 209.855469 139.394531 C 211.464844 139.394531 212.773438 140.703125 212.773438 142.3125 C 212.773438 149.265625 218.429688 154.925781 225.386719 154.925781 C 226.996094 154.925781 228.300781 156.230469 228.300781 157.84375 L 228.300781 210.921875 C 228.300781 212.53125 226.996094 213.839844 225.386719 213.839844 C 218.429688 213.839844 212.773438 219.496094 212.773438 226.453125 C 212.773438 228.0625 211.464844 229.367188 209.855469 229.367188 Z M 82.632812 223.535156 L 207.167969 223.535156 C 208.417969 215.695312 214.628906 209.484375 222.46875 208.234375 L 222.46875 160.53125 C 214.628906 159.277344 208.417969 153.070312 207.167969 145.230469 L 82.632812 145.230469 C 81.378906 153.070312 75.171875 159.277344 67.332031 160.53125 L 67.332031 208.234375 C 75.171875 209.484375 81.378906 215.695312 82.632812 223.535156 Z M 82.632812 223.535156 " fill-opacity="1" fill-rule="evenodd"/><g clip-path="url(#2b26e7afff)"><path fill="#a9a0f0" d="M 256.882812 129.535156 L 241.078125 129.535156 C 239.46875 129.535156 238.164062 128.230469 238.164062 126.617188 C 238.164062 125.007812 239.46875 123.703125 241.078125 123.703125 L 256.882812 123.703125 C 258.492188 123.703125 259.800781 125.007812 259.800781 126.617188 C 259.800781 128.230469 258.492188 129.535156 256.882812 129.535156 Z M 256.882812 129.535156 " fill-opacity="1" fill-rule="evenodd"/></g><g clip-path="url(#8699d6dcf8)"><path fill="#a9a0f0" d="M 256.882812 152.640625 L 241.078125 152.640625 C 239.46875 152.640625 238.164062 151.335938 238.164062 149.722656 C 238.164062 148.113281 239.46875 146.804688 241.078125 146.804688 L 256.882812 146.804688 C 258.492188 146.804688 259.800781 148.113281 259.800781 149.722656 C 259.800781 151.335938 258.492188 152.640625 256.882812 152.640625 Z M 256.882812 152.640625 " fill-opacity="1" fill-rule="evenodd"/></g><g clip-path="url(#36aa14a983)"><path fill="#a9a0f0" d="M 256.882812 175.746094 L 241.078125 175.746094 C 239.46875 175.746094 238.164062 174.441406 238.164062 172.828125 C 238.164062 171.21875 239.46875 169.910156 241.078125 169.910156 L 256.882812 169.910156 C 258.492188 169.910156 259.800781 171.21875 259.800781 172.828125 C 259.800781 174.441406 258.492188 175.746094 256.882812 175.746094 Z M 256.882812 175.746094 " fill-opacity="1" fill-rule="evenodd"/></g><g clip-path="url(#3f7b07d042)"><path fill="#a9a0f0" d="M 256.882812 198.851562 L 241.078125 198.851562 C 239.46875 198.851562 238.164062 197.542969 238.164062 195.933594 C 238.164062 194.320312 239.46875 193.015625 241.078125 193.015625 L 256.882812 193.015625 C 258.492188 193.015625 259.800781 194.320312 259.800781 195.933594 C 259.800781 197.542969 258.492188 198.851562 256.882812 198.851562 Z M 256.882812 198.851562 " fill-opacity="1" fill-rule="evenodd"/></g><g clip-path="url(#9c5b4dbc0e)"><path fill="#a9a0f0" d="M 256.882812 221.953125 L 241.078125 221.953125 C 239.46875 221.953125 238.164062 220.648438 238.164062 219.039062 C 238.164062 217.425781 239.46875 216.121094 241.078125 216.121094 L 256.882812 216.121094 C 258.492188 216.121094 259.800781 217.425781 259.800781 219.039062 C 259.800781 220.648438 258.492188 221.953125 256.882812 221.953125 Z M 256.882812 221.953125 " fill-opacity="1" fill-rule="evenodd"/></g><g clip-path="url(#1debee5fee)"><path fill="#a9a0f0" d="M 256.882812 245.058594 L 241.078125 245.058594 C 239.46875 245.058594 238.164062 243.753906 238.164062 242.140625 C 238.164062 240.53125 239.46875 239.226562 241.078125 239.226562 L 256.882812 239.226562 C 258.492188 239.226562 259.800781 240.53125 259.800781 242.140625 C 259.800781 243.753906 258.492188 245.058594 256.882812 245.058594 Z M 256.882812 245.058594 " fill-opacity="1" fill-rule="evenodd"/></g><path fill="#a9a0f0" d="M 48.71875 129.539062 L 32.917969 129.539062 C 31.308594 129.539062 30 128.230469 30 126.621094 C 30 125.007812 31.308594 123.703125 32.917969 123.703125 L 48.722656 123.703125 C 50.332031 123.703125 51.636719 125.007812 51.636719 126.621094 C 51.636719 128.230469 50.332031 129.539062 48.71875 129.539062 Z M 48.71875 129.539062 " fill-opacity="1" fill-rule="evenodd"/><path fill="#a9a0f0" d="M 48.71875 152.640625 L 32.917969 152.640625 C 31.308594 152.640625 30 151.335938 30 149.726562 C 30 148.113281 31.308594 146.808594 32.917969 146.808594 L 48.722656 146.808594 C 50.332031 146.808594 51.636719 148.113281 51.636719 149.726562 C 51.636719 151.335938 50.332031 152.640625 48.71875 152.640625 Z M 48.71875 152.640625 " fill-opacity="1" fill-rule="evenodd"/><path fill="#a9a0f0" d="M 48.71875 175.746094 L 32.917969 175.746094 C 31.308594 175.746094 30 174.441406 30 172.832031 C 30 171.21875 31.308594 169.914062 32.917969 169.914062 L 48.722656 169.914062 C 50.332031 169.914062 51.636719 171.21875 51.636719 172.832031 C 51.636719 174.441406 50.332031 175.746094 48.71875 175.746094 Z M 48.71875 175.746094 " fill-opacity="1" fill-rule="evenodd"/><path fill="#a9a0f0" d="M 48.71875 198.851562 L 32.917969 198.851562 C 31.308594 198.851562 30 197.546875 30 195.933594 C 30 194.324219 31.308594 193.015625 32.917969 193.015625 L 48.722656 193.015625 C 50.332031 193.015625 51.636719 194.324219 51.636719 195.933594 C 51.636719 197.546875 50.332031 198.851562 48.71875 198.851562 Z M 48.71875 198.851562 " fill-opacity="1" fill-rule="evenodd"/><path fill="#a9a0f0" d="M 48.71875 221.957031 L 32.917969 221.957031 C 31.308594 221.957031 30 220.648438 30 219.039062 C 30 217.425781 31.308594 216.121094 32.917969 216.121094 L 48.722656 216.121094 C 50.332031 216.121094 51.636719 217.425781 51.636719 219.039062 C 51.636719 220.648438 50.332031 221.957031 48.71875 221.957031 Z M 48.71875 221.957031 " fill-opacity="1" fill-rule="evenodd"/><path fill="#a9a0f0" d="M 48.71875 245.058594 L 32.917969 245.058594 C 31.308594 245.058594 30 243.753906 30 242.144531 C 30 240.53125 31.308594 239.226562 32.917969 239.226562 L 48.722656 239.226562 C 50.332031 239.226562 51.636719 240.53125 51.636719 242.144531 C 51.636719 243.753906 50.332031 245.058594 48.71875 245.058594 Z M 48.71875 245.058594 " fill-opacity="1" fill-rule="evenodd"/><path fill="#a9a0f0" d="M 167.785156 215.90625 L 93.40625 215.90625 C 91.792969 215.90625 90.488281 214.601562 90.488281 212.988281 L 90.488281 155.773438 C 90.488281 154.164062 91.792969 152.855469 93.40625 152.855469 L 167.785156 152.855469 C 185.171875 152.855469 199.3125 167 199.3125 184.382812 C 199.3125 201.765625 185.171875 215.90625 167.785156 215.90625 Z M 96.320312 210.074219 L 167.785156 210.074219 C 181.953125 210.074219 193.476562 198.546875 193.476562 184.382812 C 193.476562 170.214844 181.953125 158.691406 167.785156 158.691406 L 96.320312 158.691406 Z M 96.320312 210.074219 " fill-opacity="1" fill-rule="evenodd"/><path fill="#a9a0f0" d="M 144.128906 205.773438 C 143.382812 205.773438 142.636719 205.488281 142.066406 204.917969 L 136.820312 199.671875 L 132.523438 199.671875 C 130.914062 199.671875 129.609375 198.367188 129.609375 196.757812 L 129.609375 191.859375 L 124.5 186.367188 C 123.457031 185.25 123.457031 183.515625 124.5 182.394531 L 129.609375 176.902344 L 129.609375 172.007812 C 129.609375 170.394531 130.914062 169.089844 132.523438 169.089844 L 136.820312 169.089844 L 142.066406 163.84375 C 143.152344 162.757812 144.894531 162.699219 146.050781 163.710938 L 152.476562 169.332031 L 157.203125 169.332031 C 158.8125 169.332031 160.117188 170.640625 160.117188 172.25 L 160.117188 177.210938 L 165.226562 182.316406 C 166.363281 183.457031 166.363281 185.304688 165.226562 186.445312 L 160.117188 191.550781 L 160.117188 196.511719 C 160.117188 198.125 158.8125 199.429688 157.203125 199.429688 L 152.476562 199.429688 L 146.050781 205.050781 C 145.5 205.535156 144.8125 205.773438 144.128906 205.773438 Z M 135.441406 193.839844 L 138.03125 193.839844 C 138.804688 193.839844 139.546875 194.144531 140.09375 194.691406 L 144.261719 198.863281 L 149.460938 194.316406 C 149.992188 193.851562 150.671875 193.59375 151.378906 193.59375 L 154.285156 193.59375 L 154.285156 190.34375 C 154.285156 189.566406 154.59375 188.828125 155.140625 188.28125 L 159.039062 184.378906 L 155.140625 180.484375 C 154.59375 179.933594 154.285156 179.191406 154.285156 178.417969 L 154.285156 175.167969 L 151.378906 175.167969 C 150.671875 175.167969 149.992188 174.910156 149.460938 174.445312 L 144.261719 169.898438 L 140.09375 174.066406 C 139.546875 174.613281 138.804688 174.921875 138.03125 174.921875 L 135.441406 174.921875 L 135.441406 178.046875 C 135.441406 178.785156 135.164062 179.496094 134.660156 180.035156 L 130.621094 184.378906 L 134.664062 188.726562 C 135.164062 189.265625 135.441406 189.976562 135.441406 190.714844 Z M 135.441406 193.839844 " fill-opacity="1" fill-rule="evenodd"/><path fill="#a9a0f0" d="M 148.097656 111.46875 C 125.480469 111.46875 107.078125 93.070312 107.078125 70.453125 C 107.078125 52.589844 118.488281 36.902344 135.472656 31.414062 C 136.652344 31.03125 137.949219 31.441406 138.699219 32.429688 C 139.445312 33.421875 139.484375 34.777344 138.796875 35.8125 C 134.933594 41.59375 132.890625 48.34375 132.890625 55.324219 C 132.890625 74.726562 148.675781 90.507812 168.074219 90.507812 C 171.769531 90.507812 175.414062 89.9375 178.90625 88.808594 C 180.085938 88.425781 181.382812 88.835938 182.132812 89.824219 C 182.878906 90.816406 182.917969 92.171875 182.230469 93.203125 C 174.589844 104.640625 161.832031 111.46875 148.097656 111.46875 Z M 129.886719 40.324219 C 119.492188 46.585938 112.914062 57.890625 112.914062 70.453125 C 112.914062 89.851562 128.699219 105.636719 148.097656 105.636719 C 157.140625 105.636719 165.6875 102.183594 172.136719 96.144531 C 170.792969 96.277344 169.4375 96.34375 168.078125 96.34375 C 145.457031 96.34375 127.058594 77.941406 127.058594 55.324219 C 127.054688 50.140625 128.023438 45.066406 129.886719 40.324219 Z M 129.886719 40.324219 " fill-opacity="1" fill-rule="evenodd"/><path fill="#a9a0f0" d="M 159.292969 75.050781 C 158.058594 75.050781 156.953125 74.269531 156.542969 73.101562 L 152.90625 62.789062 L 142.59375 59.152344 C 141.425781 58.738281 140.644531 57.636719 140.644531 56.398438 C 140.644531 55.164062 141.425781 54.058594 142.59375 53.648438 L 152.90625 50.011719 L 156.542969 39.695312 C 156.953125 38.53125 158.058594 37.75 159.292969 37.75 C 160.53125 37.75 161.632812 38.53125 162.046875 39.695312 L 165.683594 50.011719 L 175.996094 53.648438 C 177.164062 54.058594 177.945312 55.164062 177.945312 56.398438 C 177.945312 57.636719 177.164062 58.738281 175.996094 59.152344 L 165.683594 62.789062 L 162.046875 73.101562 C 161.632812 74.269531 160.53125 75.050781 159.292969 75.050781 Z M 152.335938 56.398438 L 156.164062 57.75 C 156.996094 58.042969 157.652344 58.699219 157.945312 59.53125 L 159.292969 63.359375 L 160.644531 59.53125 C 160.9375 58.699219 161.59375 58.042969 162.425781 57.75 L 166.253906 56.398438 L 162.425781 55.050781 C 161.59375 54.757812 160.9375 54.101562 160.644531 53.269531 L 159.292969 49.441406 L 157.945312 53.269531 C 157.652344 54.101562 156.996094 54.757812 156.164062 55.050781 Z M 152.335938 56.398438 " fill-opacity="1" fill-rule="evenodd"/></svg>