<svg xmlns="http://www.w3.org/2000/svg" xmlns:xlink="http://www.w3.org/1999/xlink" width="400" zoomAndPan="magnify" viewBox="0 0 300 299.999988" height="400" preserveAspectRatio="xMidYMid meet" version="1.0"><defs><clipPath id="4ce252b693"><path d="M 62.75 31 L 237 31 L 237 269 L 62.75 269 Z M 62.75 31 " clip-rule="nonzero"/></clipPath></defs><g clip-path="url(#4ce252b693)"><path fill="currentColor" d="M 67.433594 31.882812 C 64.769531 31.882812 62.515625 34.136719 62.515625 36.800781 L 62.515625 261.738281 C 62.515625 265.203125 65.421875 268.117188 68.886719 268.117188 L 230.574219 268.117188 C 234.035156 268.117188 236.941406 265.203125 236.941406 261.738281 L 236.941406 38.261719 C 236.941406 34.796875 234.035156 31.882812 230.578125 31.882812 Z M 68.144531 37.515625 L 121.582031 37.515625 L 121.582031 78.472656 L 68.144531 78.472656 Z M 127.214844 37.515625 L 230.578125 37.515625 C 231.019531 37.515625 231.316406 37.816406 231.316406 38.261719 L 231.316406 78.472656 L 127.214844 78.472656 Z M 170.828125 43.628906 C 168 43.628906 165.582031 46.046875 165.582031 48.875 L 165.582031 66.984375 C 165.582031 69.8125 167.960938 72.242188 170.828125 72.242188 L 202.527344 72.242188 C 205.386719 72.242188 207.773438 69.8125 207.773438 66.984375 L 207.773438 48.871094 C 207.773438 46.039062 205.359375 43.625 202.527344 43.625 L 170.828125 43.625 Z M 145.8125 46.382812 C 139.441406 46.382812 134.28125 51.546875 134.28125 57.917969 C 134.28125 57.921875 134.28125 57.921875 134.28125 57.925781 C 134.28125 64.300781 139.445312 69.464844 145.8125 69.464844 C 152.1875 69.46875 157.351562 64.3125 157.355469 57.941406 C 157.355469 57.9375 157.355469 57.9375 157.355469 57.9375 C 157.363281 51.566406 152.203125 46.394531 145.835938 46.390625 C 145.828125 46.382812 145.824219 46.382812 145.8125 46.382812 Z M 218.203125 48.316406 C 217.195312 48.316406 216.398438 49.128906 216.398438 50.132812 L 216.398438 53.234375 C 216.398438 54.238281 217.199219 55.050781 218.203125 55.050781 L 221.503906 55.050781 C 222.507812 55.050781 223.308594 54.238281 223.308594 53.234375 L 223.308594 50.125 C 223.308594 49.121094 222.507812 48.3125 221.503906 48.3125 L 218.203125 48.3125 Z M 171.214844 49.257812 L 202.140625 49.257812 L 202.140625 66.59375 L 171.214844 66.59375 Z M 145.8125 51.917969 C 149.132812 51.914062 151.828125 54.597656 151.832031 57.917969 C 151.832031 57.917969 151.832031 57.921875 151.832031 57.925781 C 151.832031 61.246094 149.140625 63.933594 145.824219 63.933594 C 145.824219 63.933594 145.820312 63.933594 145.820312 63.933594 C 142.496094 63.933594 139.804688 61.246094 139.804688 57.925781 C 139.804688 54.609375 142.496094 51.917969 145.8125 51.917969 Z M 77.804688 55.78125 C 75.957031 55.78125 74.152344 56.875 73.292969 58.507812 C 72.4375 60.140625 72.566406 62.25 73.613281 63.769531 C 73.613281 63.769531 73.617188 63.773438 73.621094 63.78125 L 76.769531 68.320312 C 78.101562 70.234375 80.175781 71.34375 82.535156 71.34375 L 107.359375 71.34375 C 109.71875 71.34375 111.8125 70.234375 113.136719 68.316406 L 116.273438 63.785156 C 116.273438 63.785156 116.277344 63.78125 116.285156 63.773438 C 117.332031 62.253906 117.460938 60.144531 116.601562 58.511719 C 115.742188 56.878906 113.9375 55.785156 112.089844 55.785156 L 77.804688 55.785156 Z M 218.203125 60.816406 C 217.195312 60.816406 216.398438 61.625 216.398438 62.628906 L 216.398438 65.734375 C 216.398438 66.738281 217.199219 67.546875 218.203125 67.546875 L 221.503906 67.546875 C 222.507812 67.546875 223.308594 66.738281 223.308594 65.734375 L 223.308594 62.628906 C 223.308594 61.625 222.507812 60.816406 221.503906 60.816406 Z M 78.832031 61.410156 L 111.054688 61.410156 L 108.492188 65.105469 C 108.257812 65.445312 107.753906 65.710938 107.351562 65.710938 L 82.523438 65.710938 C 82.121094 65.710938 81.617188 65.445312 81.378906 65.105469 Z M 68.144531 84.105469 L 231.316406 84.105469 L 231.316406 261.746094 C 231.316406 262.183594 231.019531 262.492188 230.578125 262.492188 L 68.875 262.492188 C 68.429688 262.492188 68.140625 262.183594 68.140625 261.746094 L 68.140625 84.105469 Z M 150.113281 96.046875 C 131.398438 96.0625 112.808594 103.789062 99.582031 117.027344 C 86.351562 130.269531 78.652344 148.867188 78.652344 167.582031 C 78.652344 186.308594 86.351562 204.914062 99.59375 218.160156 C 112.832031 231.40625 131.453125 239.109375 150.179688 239.109375 C 168.90625 239.109375 187.519531 231.398438 200.765625 218.160156 C 214.011719 204.917969 221.703125 186.308594 221.703125 167.582031 L 221.703125 167.574219 C 221.703125 165.832031 221.570312 164.105469 221.441406 162.371094 C 222.507812 161.015625 223.589844 159.675781 224.773438 158.449219 L 224.785156 158.449219 C 226.226562 156.964844 226.875 154.75 226.457031 152.726562 C 224.800781 144.691406 221.960938 136.851562 217.867188 129.636719 C 213.769531 122.417969 208.503906 115.972656 202.449219 110.4375 C 200.921875 109.027344 198.675781 108.449219 196.652344 108.925781 C 195.0625 109.296875 193.429688 109.542969 191.777344 109.765625 C 179.707031 101.105469 165.039062 96.046875 150.179688 96.046875 C 150.15625 96.046875 150.140625 96.046875 150.113281 96.046875 Z M 150.113281 101.691406 C 150.136719 101.691406 150.15625 101.691406 150.179688 101.691406 C 164.496094 101.691406 178.777344 106.503906 190.160156 115.199219 C 190.511719 115.464844 190.945312 115.585938 191.390625 115.535156 C 193.570312 115.277344 195.761719 114.925781 197.945312 114.414062 L 197.957031 114.414062 C 198.199219 114.355469 198.46875 114.425781 198.648438 114.589844 L 198.648438 114.601562 C 204.292969 119.765625 209.1875 125.753906 212.972656 132.417969 C 216.757812 139.078125 219.390625 146.363281 220.929688 153.859375 C 220.984375 154.101562 220.898438 154.363281 220.734375 154.542969 L 220.734375 154.554688 C 219.058594 156.28125 217.523438 158.105469 216.097656 159.996094 C 215.835938 160.335938 215.722656 160.765625 215.761719 161.195312 C 215.96875 163.320312 216.078125 165.453125 216.078125 167.589844 C 216.078125 184.839844 208.96875 201.984375 196.769531 214.179688 C 184.574219 226.378906 167.429688 233.488281 150.179688 233.488281 C 132.929688 233.488281 115.785156 226.378906 103.585938 214.179688 C 91.386719 201.984375 84.28125 184.839844 84.28125 167.589844 C 84.28125 150.347656 91.367188 133.207031 103.554688 121.007812 C 115.742188 108.808594 132.875 101.707031 150.113281 101.691406 Z M 149.726562 120.394531 C 123.597656 120.394531 102.410156 141.582031 102.410156 167.71875 C 102.410156 193.847656 123.597656 215.035156 149.726562 215.035156 C 175.859375 215.035156 197.042969 193.855469 197.042969 167.71875 C 197.042969 141.582031 175.863281 120.402344 149.726562 120.394531 Z M 149.683594 126.050781 C 149.695312 126.050781 149.710938 126.050781 149.726562 126.050781 C 172.738281 126.054688 191.390625 144.710938 191.390625 167.722656 C 191.386719 190.730469 172.734375 209.382812 149.726562 209.386719 C 126.722656 209.382812 108.070312 190.730469 108.0625 167.722656 C 108.0625 144.726562 126.6875 126.074219 149.683594 126.050781 Z M 133.640625 147.042969 C 133.59375 147.042969 133.546875 147.046875 133.496094 147.050781 C 132.859375 147.121094 132.398438 147.691406 132.464844 148.332031 C 132.464844 148.339844 132.464844 148.351562 132.472656 148.363281 C 132.535156 148.839844 132.558594 149.3125 132.558594 149.800781 C 132.535156 151.988281 131.859375 154.128906 130.898438 156.074219 C 129.9375 158.019531 128.6875 159.804688 127.511719 161.640625 C 125.738281 164.398438 124.101562 167.238281 123.023438 170.320312 C 121.941406 173.402344 121.453125 176.742188 122.066406 179.949219 C 122.671875 183.09375 124.378906 185.992188 126.773438 188.097656 C 127.265625 188.515625 127.992188 188.453125 128.414062 187.976562 C 128.699219 187.636719 128.773438 187.175781 128.601562 186.765625 C 128.476562 186.472656 128.390625 186.34375 128.402344 186.371094 C 127.183594 183.277344 126.953125 179.8125 127.753906 176.585938 C 128.992188 171.574219 132.5 167.535156 134.96875 163.042969 C 135.957031 161.242188 136.800781 159.359375 137.222656 157.34375 C 137.648438 155.335938 137.625 153.207031 136.972656 151.261719 C 136.460938 149.746094 135.5625 148.421875 134.410156 147.359375 C 134.199219 147.164062 133.925781 147.050781 133.640625 147.042969 Z M 153.722656 147.042969 C 153.667969 147.042969 153.625 147.046875 153.578125 147.050781 C 152.9375 147.117188 152.472656 147.679688 152.535156 148.320312 C 152.539062 148.332031 152.539062 148.347656 152.539062 148.363281 C 152.605469 148.839844 152.636719 149.3125 152.636719 149.800781 C 152.617188 151.988281 151.941406 154.128906 150.980469 156.074219 C 150.015625 158.019531 148.765625 159.804688 147.589844 161.640625 C 145.820312 164.398438 144.171875 167.238281 143.089844 170.320312 C 142.011719 173.402344 141.527344 176.742188 142.148438 179.949219 C 142.753906 183.09375 144.460938 185.992188 146.855469 188.097656 C 147.34375 188.515625 148.074219 188.453125 148.492188 187.976562 C 148.777344 187.636719 148.851562 187.175781 148.679688 186.765625 C 148.558594 186.472656 148.472656 186.34375 148.480469 186.371094 C 147.261719 183.277344 147.03125 179.8125 147.832031 176.585938 C 149.074219 171.574219 152.578125 167.535156 155.046875 163.042969 C 156.035156 161.242188 156.882812 159.359375 157.304688 157.34375 C 157.722656 155.335938 157.699219 153.207031 157.050781 151.261719 C 156.539062 149.746094 155.644531 148.421875 154.488281 147.359375 C 154.28125 147.164062 154.007812 147.050781 153.722656 147.042969 Z M 173.800781 147.042969 C 173.75 147.042969 173.707031 147.046875 173.65625 147.050781 C 173.019531 147.117188 172.550781 147.679688 172.617188 148.320312 C 172.621094 148.332031 172.621094 148.347656 172.621094 148.363281 C 172.683594 148.839844 172.71875 149.3125 172.71875 149.800781 C 172.695312 151.988281 172.019531 154.128906 171.058594 156.074219 C 170.09375 158.019531 168.847656 159.804688 167.671875 161.640625 C 165.898438 164.398438 164.25 167.238281 163.171875 170.320312 C 162.09375 173.402344 161.609375 176.742188 162.226562 179.949219 C 162.832031 183.09375 164.546875 185.992188 166.933594 188.097656 C 167.421875 188.515625 168.152344 188.453125 168.574219 187.976562 C 168.855469 187.636719 168.925781 187.175781 168.761719 186.765625 C 168.636719 186.472656 168.550781 186.34375 168.5625 186.371094 C 167.34375 183.277344 167.113281 179.8125 167.914062 176.585938 C 169.148438 171.574219 172.660156 167.535156 175.128906 163.042969 C 176.117188 161.242188 176.953125 159.359375 177.371094 157.34375 C 177.792969 155.335938 177.78125 153.207031 177.132812 151.261719 C 176.621094 149.746094 175.722656 148.421875 174.570312 147.359375 C 174.359375 147.164062 174.085938 147.050781 173.800781 147.042969 Z M 173.800781 147.042969 " fill-opacity="1" fill-rule="nonzero"/></g></svg>