<svg xmlns="http://www.w3.org/2000/svg" xmlns:xlink="http://www.w3.org/1999/xlink" width="400" zoomAndPan="magnify" viewBox="0 0 300 299.999988" height="400" preserveAspectRatio="xMidYMid meet" version="1.0"><defs><clipPath id="1bdc0c6a61"><path d="M 30 44.851562 L 270 44.851562 L 270 254.851562 L 30 254.851562 Z M 30 44.851562 " clip-rule="nonzero"/></clipPath></defs><g clip-path="url(#1bdc0c6a61)"><path fill="#a9a0f0" d="M 268.6875 195.503906 L 265.515625 179.230469 C 268.648438 174.417969 269.804688 168.582031 268.6875 162.867188 L 252.773438 81.242188 C 250.746094 70.816406 241.5625 63.257812 230.949219 63.257812 L 197.859375 63.257812 C 192.414062 49.714844 177.117188 45.226562 176.453125 45.035156 C 176.394531 45.019531 176.324219 45.015625 176.265625 45.003906 C 176.230469 44.996094 176.195312 44.984375 176.164062 44.984375 C 176.054688 44.980469 175.945312 44.984375 175.839844 45.003906 C 175.804688 45.007812 175.777344 45.019531 175.742188 45.03125 C 175.664062 45.046875 175.589844 45.070312 175.519531 45.105469 C 175.507812 45.109375 175.496094 45.109375 175.484375 45.113281 C 175.222656 45.242188 148.96875 57.53125 119.097656 45.085938 C 118.996094 45.046875 118.894531 45.019531 118.789062 45.003906 C 118.75 44.996094 118.710938 44.996094 118.671875 44.996094 C 118.601562 44.992188 118.535156 44.984375 118.46875 44.992188 C 118.425781 44.996094 118.386719 45.007812 118.339844 45.015625 C 118.289062 45.019531 118.238281 45.023438 118.1875 45.035156 C 117.527344 45.226562 102.222656 49.714844 96.777344 63.257812 L 68.996094 63.257812 C 58.382812 63.257812 49.199219 70.824219 47.167969 81.242188 L 31.253906 162.867188 C 30.140625 168.582031 31.292969 174.417969 34.425781 179.230469 L 31.253906 195.503906 C 30.132812 201.253906 31.3125 207.128906 34.492188 211.960938 L 31.253906 228.570312 C 29.976562 235.113281 31.679688 241.816406 35.917969 246.964844 C 40.160156 252.109375 46.414062 255.0625 53.082031 255.0625 L 246.863281 255.0625 C 253.53125 255.0625 259.785156 252.109375 264.027344 246.964844 C 268.269531 241.820312 269.964844 235.113281 268.6875 228.570312 L 265.449219 211.964844 C 268.632812 207.128906 269.808594 201.257812 268.6875 195.503906 Z M 197.230469 84.324219 C 197.242188 84.273438 197.261719 84.222656 197.273438 84.171875 C 197.460938 83.460938 197.640625 82.753906 197.808594 82.058594 C 197.820312 82.019531 197.832031 81.980469 197.835938 81.941406 C 198.003906 81.246094 198.152344 80.5625 198.292969 79.890625 C 198.296875 79.855469 198.308594 79.824219 198.3125 79.785156 L 227.128906 78.914062 L 198.566406 78.445312 C 198.609375 78.210938 198.660156 77.960938 198.699219 77.726562 C 198.71875 77.625 198.734375 77.527344 198.75 77.429688 C 198.851562 76.8125 198.941406 76.203125 199.015625 75.605469 C 199.027344 75.503906 199.042969 75.394531 199.054688 75.296875 C 199.121094 74.703125 199.175781 74.113281 199.222656 73.535156 C 199.226562 73.433594 199.234375 73.339844 199.238281 73.246094 C 199.277344 72.660156 199.300781 72.097656 199.304688 71.53125 C 199.304688 71.445312 199.304688 71.367188 199.304688 71.285156 C 199.304688 70.710938 199.292969 70.144531 199.261719 69.597656 C 199.253906 69.539062 199.25 69.484375 199.25 69.429688 C 199.210938 68.855469 199.160156 68.292969 199.082031 67.742188 C 199.082031 67.730469 199.074219 67.71875 199.074219 67.703125 C 198.996094 67.152344 198.898438 66.617188 198.773438 66.089844 C 198.769531 66.0625 198.761719 66.03125 198.757812 66.003906 L 230.949219 66.003906 C 240.25 66.003906 248.296875 72.632812 250.078125 81.769531 L 265.992188 163.394531 C 267.003906 168.566406 265.882812 173.855469 262.929688 178.15625 C 262.703125 178.480469 262.46875 178.796875 262.226562 179.105469 C 262.222656 179.113281 262.214844 179.125 262.210938 179.128906 C 259.519531 182.5625 255.785156 184.972656 251.625 186.023438 C 251.597656 186.027344 251.5625 186.039062 251.535156 186.042969 C 251.210938 186.121094 250.878906 186.195312 250.542969 186.257812 C 250.484375 186.269531 250.421875 186.28125 250.359375 186.289062 C 250.058594 186.347656 249.75 186.390625 249.441406 186.429688 C 249.355469 186.441406 249.273438 186.453125 249.1875 186.464844 C 248.890625 186.496094 248.59375 186.527344 248.296875 186.546875 C 248.207031 186.554688 248.117188 186.566406 248.023438 186.570312 C 247.640625 186.59375 247.253906 186.605469 246.867188 186.605469 L 148.777344 186.605469 L 148.777344 94.027344 C 149.164062 93.960938 149.558594 93.886719 149.945312 93.832031 C 149.964844 93.828125 149.984375 93.828125 150.003906 93.828125 C 170.734375 90.8125 189.140625 102.5 189.324219 102.625 C 189.425781 102.691406 189.539062 102.734375 189.652344 102.773438 C 189.683594 102.785156 189.722656 102.792969 189.757812 102.804688 C 189.835938 102.820312 189.917969 102.835938 190.003906 102.835938 C 190.027344 102.835938 190.046875 102.847656 190.070312 102.847656 C 190.085938 102.847656 190.105469 102.84375 190.121094 102.84375 C 190.25 102.835938 190.378906 102.820312 190.507812 102.78125 C 190.90625 102.648438 191.21875 102.34375 191.367188 101.953125 C 191.671875 101.117188 191.980469 100.28125 192.277344 99.457031 C 192.308594 99.378906 192.335938 99.308594 192.363281 99.226562 C 192.648438 98.4375 192.929688 97.660156 193.207031 96.878906 C 193.25 96.773438 193.289062 96.660156 193.328125 96.554688 C 193.34375 96.511719 193.355469 96.472656 193.371094 96.425781 L 221.910156 95.5625 L 193.835938 95.105469 C 193.925781 94.839844 194.027344 94.570312 194.117188 94.308594 C 194.160156 94.179688 194.207031 94.054688 194.246094 93.925781 C 194.496094 93.191406 194.746094 92.46875 194.984375 91.746094 C 195.03125 91.617188 195.070312 91.496094 195.109375 91.367188 C 195.34375 90.648438 195.578125 89.933594 195.796875 89.226562 C 195.835938 89.109375 195.871094 88.992188 195.910156 88.871094 C 195.9375 88.777344 195.964844 88.683594 195.992188 88.585938 L 224.523438 87.722656 L 196.398438 87.257812 C 196.449219 87.085938 196.503906 86.910156 196.554688 86.738281 C 196.582031 86.648438 196.605469 86.558594 196.632812 86.46875 C 196.835938 85.746094 197.042969 85.027344 197.230469 84.324219 Z M 177.339844 48.246094 C 181.40625 49.800781 191.902344 54.703125 195.628906 65.097656 C 195.804688 65.589844 195.953125 66.101562 196.078125 66.621094 C 196.390625 67.9375 196.546875 69.355469 196.570312 70.867188 C 196.675781 78.4375 193.410156 88.367188 189.355469 99.429688 C 185.140625 97.007812 172.449219 90.546875 157.148438 90.546875 C 156.910156 90.546875 156.667969 90.558594 156.425781 90.558594 C 156.308594 90.558594 156.1875 90.566406 156.070312 90.566406 C 155.742188 90.570312 155.425781 90.570312 155.097656 90.582031 C 157.140625 89.277344 159.429688 87.539062 161.757812 85.277344 C 165.152344 81.96875 168.953125 77.144531 171.984375 70.34375 C 174.644531 64.507812 176.699219 57.230469 177.339844 48.246094 Z M 174.542969 48.484375 C 174.429688 49.769531 174.285156 51.015625 174.125 52.230469 C 171.695312 52.949219 169.316406 53.660156 166.871094 54.171875 C 164.082031 54.742188 161.300781 55.453125 158.445312 55.785156 C 155.597656 56.148438 152.722656 56.351562 149.84375 56.390625 C 146.960938 56.445312 144.070312 56.367188 141.195312 56.070312 L 141.175781 56.203125 C 144.039062 56.6875 146.929688 56.945312 149.832031 57.074219 C 152.734375 57.171875 155.648438 57.101562 158.554688 56.871094 C 161.460938 56.65625 164.382812 56.28125 167.207031 55.492188 L 169.304688 54.835938 C 169.992188 54.597656 170.671875 54.308594 171.347656 54.03125 C 172.289062 53.675781 173.183594 53.199219 174.054688 52.703125 C 173.820312 54.390625 173.535156 56.003906 173.210938 57.550781 C 173.132812 57.558594 173.054688 57.570312 172.972656 57.59375 C 172.855469 57.632812 161.011719 61.253906 146.851562 60.960938 C 133.871094 60.710938 123.203125 57.914062 121.386719 57.410156 C 120.804688 54.648438 120.355469 51.660156 120.082031 48.433594 C 145.320312 58.097656 167.710938 51.117188 174.542969 48.484375 Z M 99.007812 65.097656 C 102.695312 54.808594 113.066406 49.882812 117.203125 48.285156 C 117.308594 51.558594 117.851562 58.496094 120.4375 66.210938 C 124.082031 77.121094 130.492188 85.40625 139.164062 90.582031 C 138.910156 90.578125 138.664062 90.570312 138.417969 90.566406 C 138.402344 90.566406 138.382812 90.566406 138.371094 90.566406 C 136.0625 90.527344 133.8125 90.636719 131.632812 90.867188 C 131.605469 90.875 131.574219 90.875 131.546875 90.878906 C 131.03125 90.933594 130.515625 90.996094 130.007812 91.0625 C 129.980469 91.070312 129.957031 91.070312 129.929688 91.074219 C 120.273438 92.359375 112.28125 95.789062 107.773438 98.097656 C 107.75 98.109375 107.726562 98.117188 107.703125 98.128906 C 107.492188 98.242188 107.285156 98.347656 107.082031 98.453125 C 107.042969 98.476562 107.003906 98.496094 106.96875 98.515625 C 106.792969 98.613281 106.617188 98.707031 106.449219 98.796875 C 106.410156 98.820312 106.371094 98.839844 106.324219 98.863281 C 106.164062 98.953125 106.007812 99.039062 105.859375 99.121094 C 105.832031 99.136719 105.800781 99.15625 105.765625 99.171875 C 105.59375 99.265625 105.421875 99.363281 105.273438 99.453125 C 100.089844 85.277344 96.195312 72.964844 99.007812 65.097656 Z M 146.027344 252.316406 L 53.082031 252.316406 C 47.238281 252.316406 41.757812 249.726562 38.042969 245.222656 C 36.167969 242.953125 34.863281 240.335938 34.175781 237.5625 C 34.304688 237.726562 34.433594 237.886719 34.574219 238.046875 C 35 238.472656 35.390625 238.9375 35.84375 239.328125 L 37.25 240.4375 C 37.714844 240.8125 38.253906 241.066406 38.753906 241.390625 C 39.269531 241.6875 39.753906 242.027344 40.304688 242.242188 C 42.421875 243.273438 44.648438 244.035156 46.898438 244.628906 C 48.03125 244.890625 49.164062 245.179688 50.300781 245.417969 L 53.742188 245.957031 C 54.886719 246.171875 56.046875 246.230469 57.199219 246.339844 C 58.355469 246.433594 59.507812 246.550781 60.664062 246.628906 C 62.972656 246.6875 65.292969 246.78125 67.59375 246.808594 L 81.417969 246.855469 L 136.707031 247.027344 L 81.421875 246.171875 L 67.605469 245.957031 C 65.308594 245.902344 63.015625 245.777344 60.722656 245.695312 C 59.582031 245.605469 58.445312 245.46875 57.300781 245.363281 C 56.164062 245.238281 55.015625 245.167969 53.894531 244.941406 L 50.515625 244.371094 C 49.40625 244.121094 48.300781 243.828125 47.199219 243.558594 C 45.007812 242.953125 42.867188 242.1875 40.855469 241.171875 C 40.328125 240.957031 39.875 240.628906 39.390625 240.34375 C 38.925781 240.035156 38.417969 239.789062 37.984375 239.433594 L 36.691406 238.386719 C 36.28125 238.015625 35.933594 237.589844 35.546875 237.199219 C 35.347656 237.007812 35.195312 236.785156 35.042969 236.558594 L 34.578125 235.894531 C 34.40625 235.679688 34.308594 235.429688 34.179688 235.1875 C 34.0625 234.945312 33.933594 234.710938 33.820312 234.464844 C 33.761719 234.28125 33.691406 234.089844 33.632812 233.902344 C 33.542969 232.3125 33.648438 230.691406 33.957031 229.089844 L 36.667969 215.171875 C 40.855469 219.753906 46.800781 222.421875 53.085938 222.421875 L 146.03125 222.421875 L 146.03125 252.316406 Z M 146.027344 219.25 L 53.082031 219.25 C 47.238281 219.25 41.757812 216.660156 38.042969 212.15625 C 36.550781 210.347656 35.425781 208.316406 34.679688 206.171875 C 35.054688 206.5625 35.417969 206.96875 35.820312 207.328125 L 37.222656 208.4375 C 37.445312 208.632812 37.703125 208.777344 37.960938 208.929688 L 38.726562 209.382812 C 39.242188 209.675781 39.722656 210.027344 40.269531 210.242188 C 42.382812 211.269531 44.601562 212.035156 46.84375 212.632812 L 50.234375 213.421875 L 53.664062 213.957031 C 54.808594 214.167969 55.957031 214.234375 57.109375 214.34375 L 60.5625 214.640625 C 62.863281 214.699219 65.171875 214.789062 67.476562 214.824219 L 81.253906 214.867188 L 136.382812 215.042969 L 81.261719 214.179688 L 67.480469 213.964844 C 65.191406 213.90625 62.910156 213.789062 60.625 213.699219 L 57.210938 213.363281 C 56.074219 213.242188 54.9375 213.160156 53.816406 212.941406 L 50.449219 212.375 L 47.140625 211.558594 C 44.960938 210.945312 42.828125 210.179688 40.820312 209.171875 C 40.292969 208.957031 39.851562 208.621094 39.363281 208.339844 L 38.652344 207.902344 C 38.410156 207.757812 38.171875 207.617188 37.96875 207.433594 L 36.679688 206.390625 C 36.277344 206.019531 35.921875 205.601562 35.542969 205.207031 C 35.339844 205.019531 35.195312 204.792969 35.039062 204.570312 L 34.574219 203.902344 C 34.398438 203.691406 34.308594 203.4375 34.179688 203.203125 C 34.0625 202.960938 33.929688 202.726562 33.828125 202.480469 C 33.808594 202.421875 33.789062 202.371094 33.769531 202.316406 C 33.503906 200.253906 33.558594 198.140625 33.96875 196.039062 L 36.679688 182.128906 C 39.828125 185.585938 43.941406 187.921875 48.445312 188.878906 C 48.484375 188.886719 48.519531 188.894531 48.558594 188.902344 C 48.894531 188.96875 49.230469 189.035156 49.566406 189.09375 C 49.664062 189.109375 49.757812 189.121094 49.851562 189.132812 C 50.140625 189.171875 50.425781 189.214844 50.714844 189.242188 C 50.894531 189.261719 51.082031 189.273438 51.265625 189.289062 C 51.472656 189.304688 51.679688 189.328125 51.894531 189.339844 C 52.289062 189.363281 52.695312 189.371094 53.097656 189.371094 L 141.464844 189.371094 C 141.523438 196.296875 141.613281 203.222656 141.875 210.152344 L 142.015625 210.152344 C 142.363281 203.222656 142.53125 196.296875 142.675781 189.371094 L 146.050781 189.371094 L 146.050781 219.25 Z M 146.027344 186.617188 L 142.710938 186.617188 C 142.730469 185.535156 142.753906 184.457031 142.777344 183.375 C 142.921875 174.457031 142.820312 165.53125 142.804688 156.609375 L 142.761719 129.839844 L 142.648438 103.074219 L 142.507812 103.074219 L 142.070312 129.839844 L 141.699219 156.609375 C 141.570312 165.53125 141.363281 174.449219 141.398438 183.375 C 141.410156 184.457031 141.414062 185.539062 141.425781 186.621094 L 53.082031 186.621094 C 52.695312 186.621094 52.308594 186.609375 51.925781 186.585938 C 51.835938 186.582031 51.746094 186.570312 51.652344 186.566406 C 51.355469 186.542969 51.058594 186.519531 50.761719 186.480469 C 50.675781 186.46875 50.59375 186.457031 50.515625 186.449219 C 50.207031 186.410156 49.898438 186.363281 49.59375 186.308594 C 49.535156 186.296875 49.472656 186.285156 49.417969 186.273438 C 49.082031 186.210938 48.75 186.140625 48.425781 186.054688 C 48.394531 186.050781 48.367188 186.039062 48.335938 186.03125 C 44.171875 184.984375 40.433594 182.574219 37.738281 179.136719 C 37.734375 179.128906 37.734375 179.125 37.726562 179.117188 C 37.488281 178.808594 37.25 178.492188 37.027344 178.160156 C 35.542969 176.003906 34.523438 173.597656 34 171.082031 C 34.191406 171.328125 34.386719 171.566406 34.589844 171.800781 C 35.015625 172.226562 35.40625 172.695312 35.867188 173.082031 L 37.277344 174.199219 C 37.75 174.566406 38.289062 174.824219 38.792969 175.144531 C 39.300781 175.441406 39.800781 175.777344 40.351562 175.996094 C 42.480469 177.027344 44.710938 177.789062 46.96875 178.382812 C 48.105469 178.640625 49.238281 178.9375 50.378906 179.167969 L 53.832031 179.707031 C 54.980469 179.917969 56.140625 179.96875 57.292969 180.082031 C 58.453125 180.175781 59.609375 180.300781 60.769531 180.367188 C 63.089844 180.421875 65.410156 180.523438 67.722656 180.546875 L 81.585938 180.59375 L 137.039062 180.765625 L 81.59375 179.910156 L 67.730469 179.695312 C 65.421875 179.644531 63.128906 179.515625 60.824219 179.433594 C 59.675781 179.351562 58.539062 179.214844 57.394531 179.105469 C 56.253906 178.976562 55.105469 178.917969 53.976562 178.691406 L 50.585938 178.121094 C 49.464844 177.878906 48.367188 177.578125 47.257812 177.308594 C 45.0625 176.703125 42.910156 175.933594 40.894531 174.925781 C 40.367188 174.714844 39.90625 174.390625 39.425781 174.097656 C 38.960938 173.789062 38.449219 173.535156 38.011719 173.191406 L 36.71875 172.140625 C 36.304688 171.777344 35.957031 171.347656 35.570312 170.953125 C 35.367188 170.761719 35.210938 170.539062 35.058594 170.316406 L 34.589844 169.648438 C 34.414062 169.433594 34.316406 169.183594 34.191406 168.941406 C 34.074219 168.699219 33.945312 168.460938 33.832031 168.21875 C 33.765625 168.007812 33.6875 167.792969 33.613281 167.574219 C 33.585938 166.191406 33.699219 164.796875 33.96875 163.40625 L 49.882812 81.777344 C 51.664062 72.644531 59.703125 66.015625 69.011719 66.015625 L 95.898438 66.015625 C 95.890625 66.042969 95.886719 66.070312 95.882812 66.101562 C 95.757812 66.625 95.65625 67.160156 95.578125 67.714844 C 95.578125 67.726562 95.574219 67.742188 95.574219 67.753906 C 95.496094 68.300781 95.445312 68.867188 95.40625 69.441406 L 95.40625 68.75 L 67.261719 69.371094 L 95.375 70.125 C 95.359375 70.511719 95.34375 70.898438 95.347656 71.289062 C 95.347656 71.375 95.347656 71.453125 95.347656 71.535156 C 95.355469 72.097656 95.375 72.667969 95.414062 73.25 C 95.421875 73.34375 95.425781 73.445312 95.433594 73.542969 C 95.449219 73.804688 95.484375 74.074219 95.503906 74.335938 L 73.296875 74.925781 L 95.632812 75.636719 C 95.707031 76.230469 95.792969 76.832031 95.890625 77.441406 C 95.910156 77.535156 95.925781 77.636719 95.941406 77.734375 C 96.050781 78.367188 96.167969 79.003906 96.300781 79.65625 C 96.316406 79.734375 96.335938 79.8125 96.351562 79.890625 C 96.417969 80.210938 96.496094 80.539062 96.570312 80.867188 L 78.359375 81.449219 L 96.863281 82.160156 C 97.023438 82.828125 97.191406 83.5 97.378906 84.183594 C 97.386719 84.226562 97.398438 84.277344 97.417969 84.324219 C 97.605469 85.035156 97.808594 85.75 98.019531 86.480469 C 98.050781 86.570312 98.070312 86.660156 98.101562 86.75 C 98.179688 87.019531 98.269531 87.292969 98.347656 87.5625 L 82.769531 88.140625 L 98.738281 88.851562 C 98.746094 88.863281 98.746094 88.871094 98.75 88.882812 C 98.785156 89 98.824219 89.113281 98.855469 89.230469 C 99.082031 89.9375 99.308594 90.65625 99.550781 91.378906 C 99.589844 91.5 99.636719 91.625 99.675781 91.753906 C 99.914062 92.476562 100.160156 93.203125 100.414062 93.933594 C 100.460938 94.0625 100.503906 94.183594 100.542969 94.3125 C 100.632812 94.578125 100.726562 94.839844 100.824219 95.105469 L 88.160156 95.652344 L 101.253906 96.332031 C 101.28125 96.410156 101.304688 96.484375 101.332031 96.5625 C 101.371094 96.667969 101.410156 96.773438 101.445312 96.878906 C 101.726562 97.660156 102.003906 98.445312 102.292969 99.226562 C 102.320312 99.308594 102.347656 99.378906 102.375 99.457031 C 102.679688 100.28125 102.980469 101.109375 103.289062 101.953125 C 103.410156 102.277344 103.652344 102.535156 103.957031 102.691406 C 104.015625 102.726562 104.074219 102.753906 104.140625 102.773438 C 104.269531 102.816406 104.398438 102.832031 104.527344 102.835938 C 104.542969 102.835938 104.5625 102.84375 104.570312 102.84375 C 104.59375 102.84375 104.617188 102.835938 104.640625 102.832031 C 104.722656 102.824219 104.808594 102.816406 104.890625 102.796875 C 104.925781 102.792969 104.957031 102.78125 104.992188 102.773438 C 105.105469 102.742188 105.210938 102.691406 105.3125 102.628906 C 105.3125 102.628906 105.316406 102.628906 105.316406 102.625 C 105.328125 102.617188 105.421875 102.558594 105.59375 102.457031 C 107.625 101.21875 120.773438 93.613281 136.757812 93.332031 C 136.816406 93.332031 136.871094 93.328125 136.925781 93.328125 C 137.464844 93.320312 138.007812 93.328125 138.546875 93.332031 C 138.664062 93.332031 138.777344 93.332031 138.886719 93.339844 C 139.386719 93.351562 139.898438 93.378906 140.402344 93.40625 C 140.558594 93.417969 140.714844 93.417969 140.871094 93.429688 C 141.347656 93.460938 141.828125 93.5 142.3125 93.550781 C 142.503906 93.570312 142.6875 93.578125 142.871094 93.601562 C 143.335938 93.652344 143.808594 93.714844 144.277344 93.78125 C 144.480469 93.808594 144.683594 93.832031 144.882812 93.859375 C 145.265625 93.917969 145.644531 93.988281 146.027344 94.054688 Z M 145.65625 90.765625 C 143.414062 89.785156 139.671875 87.792969 135.734375 84.195312 C 136.640625 84.25 137.550781 84.277344 138.457031 84.265625 C 140.363281 84.25 142.261719 84.09375 144.128906 83.808594 C 142.238281 83.867188 140.351562 83.789062 138.492188 83.582031 C 137.558594 83.480469 136.636719 83.335938 135.714844 83.167969 C 135.261719 83.085938 134.808594 82.988281 134.359375 82.882812 C 132.964844 81.476562 131.503906 79.796875 130.0625 77.800781 C 130.96875 77.894531 131.878906 77.972656 132.785156 78.03125 C 134.1875 78.113281 135.585938 78.164062 136.988281 78.164062 C 139.789062 78.175781 142.582031 78.019531 145.347656 77.6875 C 142.5625 77.789062 139.777344 77.714844 137.015625 77.476562 C 135.632812 77.363281 134.257812 77.199219 132.886719 77.003906 C 131.59375 76.820312 130.292969 76.59375 129.039062 76.320312 C 128 74.757812 126.992188 73.027344 126.039062 71.105469 C 126.582031 71.234375 127.125 71.355469 127.675781 71.46875 C 129.195312 71.765625 130.722656 71.96875 132.253906 72.105469 C 133.789062 72.226562 135.320312 72.304688 136.847656 72.28125 C 138.378906 72.28125 139.90625 72.1875 141.425781 72.0625 C 139.902344 72.074219 138.378906 72.050781 136.859375 71.9375 C 135.339844 71.84375 133.832031 71.652344 132.335938 71.429688 C 130.839844 71.175781 129.363281 70.867188 127.910156 70.472656 C 127.046875 70.230469 126.183594 69.960938 125.34375 69.652344 C 124.65625 68.144531 124.011719 66.527344 123.417969 64.800781 C 125.261719 65.417969 127.097656 65.835938 128.976562 66.199219 C 131.265625 66.632812 133.574219 66.90625 135.882812 67.09375 C 138.199219 67.261719 140.511719 67.328125 142.828125 67.292969 C 143.980469 67.292969 145.140625 67.214844 146.289062 67.175781 L 149.746094 66.917969 L 146.289062 67.003906 C 145.136719 66.980469 143.980469 67.007812 142.832031 66.945312 C 140.53125 66.867188 138.234375 66.6875 135.957031 66.410156 C 133.683594 66.113281 131.417969 65.726562 129.195312 65.191406 C 127.042969 64.664062 124.855469 64.03125 122.890625 63.167969 C 122.617188 62.289062 122.351562 61.394531 122.105469 60.457031 C 125.90625 61.414062 135.375 63.5 146.800781 63.722656 C 147.355469 63.734375 147.910156 63.742188 148.460938 63.742188 C 159.738281 63.742188 169.128906 61.515625 172.488281 60.609375 C 171.636719 63.832031 170.59375 66.722656 169.4375 69.304688 C 166.683594 75.335938 163.261719 79.722656 160.1875 82.792969 C 155.714844 87.265625 151.304688 89.691406 148.886719 90.8125 C 148.207031 91.101562 147.6875 91.304688 147.339844 91.429688 C 146.761719 91.214844 146.207031 90.992188 145.65625 90.765625 Z M 265.992188 229.097656 C 267.113281 234.835938 265.625 240.707031 261.910156 245.21875 C 258.191406 249.726562 252.714844 252.3125 246.867188 252.3125 L 148.777344 252.3125 L 148.777344 222.421875 L 153.171875 222.421875 C 153.136719 222.589844 153.117188 222.765625 153.117188 222.9375 C 153.117188 224.652344 154.839844 226.046875 156.972656 226.046875 C 159.101562 226.046875 160.824219 224.65625 160.824219 222.9375 C 160.824219 222.765625 160.804688 222.589844 160.769531 222.421875 L 237.015625 222.421875 C 237.167969 222.804688 237.308594 223.191406 237.433594 223.578125 C 237.660156 224.300781 237.847656 225.039062 237.988281 225.785156 C 238.132812 226.535156 238.207031 227.296875 238.226562 228.066406 C 238.257812 228.832031 238.183594 229.605469 238.066406 230.375 C 238.296875 229.632812 238.484375 228.867188 238.574219 228.082031 C 238.664062 227.296875 238.710938 226.507812 238.671875 225.710938 C 238.640625 224.914062 238.5625 224.125 238.433594 223.335938 C 238.382812 223.027344 238.324219 222.726562 238.257812 222.421875 L 242.6875 222.421875 C 242.953125 223.21875 243.199219 224.042969 243.398438 224.867188 C 243.65625 225.917969 243.859375 226.996094 244.003906 228.070312 C 244.15625 229.152344 244.21875 230.238281 244.230469 231.335938 C 244.234375 232.4375 244.128906 233.527344 243.945312 234.617188 C 244.234375 233.550781 244.460938 232.464844 244.570312 231.355469 C 244.675781 230.25 244.726562 229.128906 244.6875 228.015625 C 244.65625 226.898438 244.558594 225.785156 244.414062 224.675781 C 244.308594 223.917969 244.171875 223.171875 244.015625 222.421875 L 246.867188 222.421875 C 247.585938 222.421875 248.296875 222.382812 249.003906 222.316406 C 249.535156 223.464844 249.960938 224.730469 250.277344 225.996094 C 250.644531 227.492188 250.890625 229.035156 250.960938 230.59375 C 251.03125 232.144531 250.992188 233.714844 250.75 235.261719 C 250.5625 236.816406 250.136719 238.335938 249.660156 239.84375 C 250.242188 238.382812 250.78125 236.886719 251.089844 235.320312 C 251.445312 233.773438 251.601562 232.179688 251.648438 230.582031 C 251.691406 228.976562 251.558594 227.375 251.285156 225.785156 C 251.066406 224.550781 250.78125 223.351562 250.355469 222.148438 C 252.632812 221.785156 254.832031 221.070312 256.863281 220.039062 C 257.628906 223.308594 258.097656 226.699219 258.160156 230.054688 C 258.1875 231.929688 258.085938 233.820312 257.734375 235.648438 C 257.378906 237.46875 256.796875 239.261719 255.816406 240.800781 C 254.824219 242.332031 253.429688 243.574219 251.753906 244.304688 C 251.324219 244.449219 250.902344 244.636719 250.460938 244.753906 C 250.011719 244.84375 249.570312 244.988281 249.109375 245.042969 C 248.644531 245.09375 248.195312 245.167969 247.726562 245.195312 L 246.296875 245.273438 C 242.488281 245.488281 238.664062 245.585938 234.84375 245.660156 C 227.199219 245.800781 219.546875 245.828125 211.898438 245.8125 C 204.246094 245.789062 196.59375 245.726562 188.945312 245.621094 C 196.59375 245.84375 204.242188 246.019531 211.890625 246.152344 C 219.539062 246.28125 227.195312 246.371094 234.847656 246.34375 C 238.675781 246.328125 242.503906 246.289062 246.335938 246.125 C 248.21875 246.085938 250.269531 245.941406 252.117188 245.167969 C 253.972656 244.398438 255.570312 243.019531 256.675781 241.355469 C 257.777344 239.679688 258.417969 237.769531 258.820312 235.855469 C 259.222656 233.933594 259.351562 231.976562 259.351562 230.03125 C 259.335938 226.421875 258.886719 222.871094 258.09375 219.347656 C 260.003906 218.226562 261.757812 216.820312 263.277344 215.15625 Z M 261.902344 212.152344 C 258.1875 216.660156 252.707031 219.246094 246.863281 219.246094 L 148.777344 219.246094 L 148.777344 189.363281 L 153.300781 189.363281 C 153.183594 189.660156 153.117188 189.976562 153.117188 190.308594 C 153.117188 192.023438 154.839844 193.417969 156.972656 193.417969 C 159.101562 193.417969 160.824219 192.027344 160.824219 190.308594 C 160.824219 189.976562 160.757812 189.660156 160.640625 189.363281 L 237.007812 189.363281 C 237.15625 189.742188 237.304688 190.140625 237.425781 190.527344 C 237.65625 191.25 237.839844 191.988281 237.980469 192.734375 C 238.128906 193.484375 238.199219 194.246094 238.222656 195.015625 C 238.25 195.78125 238.175781 196.554688 238.058594 197.324219 C 238.289062 196.585938 238.480469 195.816406 238.570312 195.03125 C 238.660156 194.246094 238.703125 193.457031 238.664062 192.660156 C 238.636719 191.867188 238.558594 191.074219 238.429688 190.285156 C 238.378906 189.972656 238.3125 189.664062 238.25 189.355469 L 242.675781 189.355469 C 242.945312 190.15625 243.1875 190.980469 243.390625 191.816406 C 243.648438 192.871094 243.847656 193.945312 243.992188 195.019531 C 244.144531 196.101562 244.207031 197.191406 244.21875 198.289062 C 244.222656 199.386719 244.117188 200.480469 243.933594 201.566406 C 244.222656 200.5 244.449219 199.414062 244.558594 198.304688 C 244.667969 197.199219 244.714844 196.078125 244.675781 194.964844 C 244.644531 193.851562 244.546875 192.734375 244.402344 191.625 C 244.296875 190.863281 244.160156 190.113281 244.003906 189.355469 L 246.863281 189.355469 C 247.265625 189.355469 247.664062 189.34375 248.066406 189.320312 C 248.273438 189.3125 248.480469 189.289062 248.695312 189.273438 C 248.796875 189.265625 248.898438 189.253906 248.996094 189.25 C 249.53125 190.402344 249.960938 191.675781 250.277344 192.941406 C 250.644531 194.4375 250.890625 195.980469 250.960938 197.535156 C 251.03125 199.089844 250.992188 200.65625 250.75 202.203125 C 250.5625 203.761719 250.136719 205.28125 249.660156 206.789062 C 250.242188 205.324219 250.78125 203.828125 251.089844 202.265625 C 251.445312 200.71875 251.601562 199.121094 251.648438 197.527344 C 251.691406 195.921875 251.558594 194.320312 251.285156 192.730469 C 251.066406 191.492188 250.773438 190.285156 250.347656 189.082031 C 250.363281 189.082031 250.382812 189.074219 250.398438 189.074219 C 250.734375 189.019531 251.070312 188.957031 251.402344 188.890625 C 251.441406 188.878906 251.484375 188.875 251.523438 188.867188 C 252.972656 188.558594 254.371094 188.09375 255.722656 187.511719 C 256.585938 190.996094 257.117188 194.632812 257.183594 198.238281 C 257.210938 200.113281 257.113281 202.003906 256.757812 203.828125 C 256.40625 205.652344 255.824219 207.445312 254.84375 208.984375 C 253.851562 210.515625 252.457031 211.757812 250.78125 212.488281 C 250.347656 212.632812 249.929688 212.816406 249.484375 212.933594 C 249.035156 213.023438 248.59375 213.171875 248.136719 213.226562 C 247.667969 213.277344 247.222656 213.351562 246.75 213.378906 L 245.320312 213.457031 C 241.511719 213.667969 237.691406 213.769531 233.867188 213.84375 C 226.226562 213.984375 218.570312 214.011719 210.921875 213.996094 C 203.273438 213.972656 195.617188 213.910156 187.96875 213.804688 C 195.617188 214.027344 203.265625 214.203125 210.917969 214.335938 C 218.566406 214.464844 226.21875 214.554688 233.875 214.527344 C 237.699219 214.511719 241.527344 214.472656 245.359375 214.308594 C 247.242188 214.269531 249.292969 214.125 251.144531 213.351562 C 253 212.582031 254.597656 211.203125 255.699219 209.539062 C 256.804688 207.863281 257.441406 205.953125 257.847656 204.035156 C 258.25 202.113281 258.378906 200.160156 258.378906 198.214844 C 258.363281 194.394531 257.855469 190.632812 256.976562 186.90625 C 259.324219 185.707031 261.464844 184.105469 263.285156 182.109375 L 266 196.019531 C 267.109375 201.769531 265.617188 207.644531 261.902344 212.152344 Z M 261.902344 212.152344 " fill-opacity="1" fill-rule="nonzero"/></g><path fill="#a9a0f0" d="M 156.964844 115.109375 C 154.835938 115.109375 153.109375 116.5 153.109375 118.21875 C 153.109375 119.933594 154.835938 121.328125 156.964844 121.328125 C 159.09375 121.328125 160.820312 119.9375 160.820312 118.21875 C 160.820312 116.503906 159.09375 115.109375 156.964844 115.109375 Z M 156.964844 115.109375 " fill-opacity="1" fill-rule="nonzero"/><path fill="#a9a0f0" d="M 156.964844 139.730469 C 154.835938 139.730469 153.109375 141.121094 153.109375 142.839844 C 153.109375 144.554688 154.835938 145.949219 156.964844 145.949219 C 159.09375 145.949219 160.820312 144.5625 160.820312 142.839844 C 160.820312 141.125 159.09375 139.730469 156.964844 139.730469 Z M 156.964844 139.730469 " fill-opacity="1" fill-rule="nonzero"/><path fill="#a9a0f0" d="M 156.964844 164.992188 C 154.835938 164.992188 153.109375 166.382812 153.109375 168.101562 C 153.109375 169.816406 154.835938 171.210938 156.964844 171.210938 C 159.09375 171.210938 160.820312 169.820312 160.820312 168.101562 C 160.820312 166.382812 159.09375 164.992188 156.964844 164.992188 Z M 156.964844 164.992188 " fill-opacity="1" fill-rule="nonzero"/><path fill="#a9a0f0" d="M 156.964844 208.710938 C 154.835938 208.710938 153.109375 210.101562 153.109375 211.820312 C 153.109375 213.535156 154.835938 214.929688 156.964844 214.929688 C 159.09375 214.929688 160.820312 213.539062 160.820312 211.820312 C 160.820312 210.105469 159.09375 208.710938 156.964844 208.710938 Z M 156.964844 208.710938 " fill-opacity="1" fill-rule="nonzero"/><path fill="#a9a0f0" d="M 156.964844 241.34375 C 154.835938 241.34375 153.109375 242.734375 153.109375 244.457031 C 153.109375 246.171875 154.835938 247.566406 156.964844 247.566406 C 159.09375 247.566406 160.820312 246.175781 160.820312 244.457031 C 160.820312 242.742188 159.09375 241.34375 156.964844 241.34375 Z M 156.964844 241.34375 " fill-opacity="1" fill-rule="nonzero"/><path fill="#a9a0f0" d="M 100.089844 175.375 C 93 175.320312 85.914062 175.464844 78.828125 175.476562 C 75.289062 175.480469 71.742188 175.46875 68.199219 175.4375 C 66.421875 175.4375 64.675781 175.324219 62.902344 175.28125 L 60.269531 175.042969 L 58.953125 174.921875 L 57.648438 174.726562 C 54.164062 174.238281 50.695312 173.453125 47.460938 172.046875 C 45.847656 171.347656 44.300781 170.496094 42.878906 169.453125 C 41.480469 168.398438 40.1875 167.121094 39.410156 165.558594 L 39.28125 165.609375 C 40.046875 167.246094 41.320312 168.5625 42.707031 169.675781 C 44.121094 170.769531 45.671875 171.675781 47.292969 172.425781 C 50.535156 173.941406 54.027344 174.824219 57.542969 175.410156 L 58.859375 175.632812 L 60.1875 175.785156 L 62.84375 176.070312 C 64.617188 176.152344 66.40625 176.300781 68.175781 176.332031 C 71.722656 176.433594 75.269531 176.519531 78.8125 176.578125 C 85.90625 176.714844 93 176.875 100.089844 176.753906 C 107.183594 176.597656 114.273438 176.433594 121.355469 175.933594 L 121.355469 175.796875 C 114.265625 175.507812 107.175781 175.46875 100.089844 175.375 Z M 100.089844 175.375 " fill-opacity="1" fill-rule="nonzero"/><path fill="#a9a0f0" d="M 100.089844 209.40625 C 93 209.347656 85.914062 209.496094 78.828125 209.507812 C 75.289062 209.511719 71.742188 209.5 68.199219 209.46875 C 66.421875 209.46875 64.675781 209.355469 62.902344 209.308594 L 60.269531 209.074219 L 58.953125 208.953125 L 57.648438 208.753906 C 54.164062 208.269531 50.695312 207.484375 47.460938 206.078125 C 45.847656 205.375 44.300781 204.523438 42.878906 203.480469 C 41.480469 202.429688 40.1875 201.152344 39.410156 199.585938 L 39.28125 199.636719 C 40.046875 201.273438 41.320312 202.589844 42.707031 203.707031 C 44.121094 204.800781 45.671875 205.707031 47.292969 206.457031 C 50.535156 207.972656 54.027344 208.855469 57.542969 209.4375 L 58.859375 209.664062 L 60.1875 209.8125 L 62.84375 210.101562 C 64.617188 210.183594 66.40625 210.328125 68.175781 210.363281 C 71.722656 210.464844 75.269531 210.546875 78.8125 210.609375 C 85.90625 210.746094 93 210.90625 100.089844 210.785156 C 107.183594 210.625 114.273438 210.464844 121.355469 209.964844 L 121.355469 209.824219 C 114.265625 209.539062 107.175781 209.5 100.089844 209.40625 Z M 100.089844 209.40625 " fill-opacity="1" fill-rule="nonzero"/><path fill="#a9a0f0" d="M 42.878906 236.050781 C 41.480469 234.996094 40.1875 233.71875 39.410156 232.15625 L 39.28125 232.207031 C 40.046875 233.84375 41.320312 235.160156 42.707031 236.273438 C 44.121094 237.367188 45.671875 238.273438 47.292969 239.027344 C 50.535156 240.539062 54.027344 241.425781 57.542969 242.007812 L 58.859375 242.230469 L 60.1875 242.382812 L 62.84375 242.667969 C 64.617188 242.753906 66.40625 242.898438 68.175781 242.929688 C 71.722656 243.03125 75.269531 243.117188 78.8125 243.179688 C 85.90625 243.3125 93 243.476562 100.089844 243.351562 C 107.183594 243.195312 114.273438 243.03125 121.355469 242.535156 L 121.355469 242.394531 C 114.261719 242.109375 107.171875 242.070312 100.082031 241.972656 C 92.996094 241.917969 85.90625 242.0625 78.824219 242.074219 C 75.28125 242.078125 71.734375 242.070312 68.195312 242.035156 C 66.417969 242.035156 64.667969 241.921875 62.898438 241.878906 L 60.265625 241.640625 L 58.949219 241.519531 L 57.640625 241.324219 C 54.15625 240.835938 50.6875 240.050781 47.453125 238.644531 C 45.847656 237.9375 44.292969 237.085938 42.878906 236.050781 Z M 42.878906 236.050781 " fill-opacity="1" fill-rule="nonzero"/><path fill="#a9a0f0" d="M 44.757812 134.933594 C 45.9375 128.289062 46.878906 121.601562 47.890625 114.929688 L 50.957031 94.914062 L 51.707031 89.910156 C 51.976562 88.238281 52.152344 86.5625 52.589844 84.957031 C 53.015625 83.347656 53.648438 81.773438 54.640625 80.433594 C 55.621094 79.117188 57.03125 77.996094 58.691406 77.761719 L 58.683594 77.625 C 56.949219 77.824219 55.472656 78.9375 54.425781 80.265625 C 53.367188 81.617188 52.671875 83.214844 52.195312 84.84375 C 51.707031 86.484375 51.484375 88.171875 51.171875 89.824219 L 50.285156 94.8125 L 46.8125 114.761719 C 45.644531 121.414062 44.40625 128.046875 43.402344 134.722656 C 42.441406 141.402344 41.449219 148.078125 40.742188 154.804688 L 40.875 154.828125 C 42.355469 148.226562 43.542969 141.578125 44.757812 134.933594 Z M 44.757812 134.933594 " fill-opacity="1" fill-rule="nonzero"/><path fill="#a9a0f0" d="M 54.113281 99.890625 C 53.617188 102.320312 53.183594 104.757812 52.746094 107.203125 C 51.882812 112.082031 51.253906 117.003906 50.554688 121.910156 L 48.429688 136.632812 L 46.375 151.371094 L 46.507812 151.390625 L 49.109375 136.742188 L 51.636719 122.085938 C 52.480469 117.199219 53.410156 112.328125 54.09375 107.414062 C 54.429688 104.960938 54.773438 102.5 55.054688 100.035156 L 55.472656 96.335938 C 55.585938 95.097656 55.726562 93.867188 55.816406 92.628906 L 55.679688 92.605469 C 55.382812 93.816406 55.132812 95.027344 54.855469 96.242188 Z M 54.113281 99.890625 " fill-opacity="1" fill-rule="nonzero"/><path fill="#a9a0f0" d="M 106 95.289062 C 105.433594 93.316406 104.800781 91.382812 104.265625 89.421875 C 103.730469 87.460938 103.222656 85.5 102.8125 83.527344 C 101.972656 79.585938 101.359375 75.585938 101.519531 71.5625 C 101.726562 67.574219 102.707031 63.554688 104.886719 60.160156 C 105.957031 58.46875 107.265625 56.90625 108.832031 55.617188 C 110.371094 54.316406 112.132812 53.230469 114.035156 52.539062 L 113.996094 52.40625 C 110.082031 53.675781 106.671875 56.371094 104.3125 59.785156 C 101.945312 63.21875 100.773438 67.367188 100.425781 71.496094 C 100.105469 75.636719 100.4375 79.835938 101.472656 83.839844 C 101.988281 85.839844 102.605469 87.8125 103.351562 89.730469 C 103.742188 90.683594 104.101562 91.648438 104.527344 92.578125 C 104.976562 93.5 105.402344 94.4375 105.871094 95.34375 Z M 106 95.289062 " fill-opacity="1" fill-rule="nonzero"/><path fill="#a9a0f0" d="M 105.984375 67.742188 C 105.226562 69.707031 104.824219 71.804688 104.679688 73.917969 L 104.621094 75.507812 C 104.605469 76.039062 104.660156 76.566406 104.671875 77.101562 C 104.699219 78.164062 104.925781 79.207031 105.148438 80.238281 C 105.402344 81.261719 105.78125 82.253906 106.140625 83.242188 C 106.574219 84.207031 107.066406 85.136719 107.585938 86.042969 L 107.714844 85.992188 C 107.542969 84.949219 107.3125 83.949219 107.066406 82.957031 C 106.988281 82.445312 106.875 81.953125 106.785156 81.449219 C 106.695312 80.949219 106.539062 80.460938 106.5 79.957031 C 106.375 78.953125 106.117188 77.972656 106.035156 76.972656 C 105.972656 76.472656 105.871094 75.972656 105.84375 75.46875 L 105.78125 73.957031 C 105.789062 71.9375 106.039062 69.910156 106.640625 67.972656 C 107.222656 66.03125 108.097656 64.132812 109.417969 62.5625 L 109.324219 62.464844 C 107.828125 63.9375 106.761719 65.792969 105.984375 67.742188 Z M 105.984375 67.742188 " fill-opacity="1" fill-rule="nonzero"/><path fill="#a9a0f0" d="M 157.675781 82.109375 C 159.566406 80.628906 161.3125 78.960938 162.910156 77.15625 C 163.738281 76.277344 164.453125 75.300781 165.214844 74.355469 C 165.871094 73.339844 166.601562 72.359375 167.097656 71.246094 C 168.222656 69.09375 168.917969 66.734375 169.289062 64.363281 L 169.152344 64.324219 C 168.054688 66.46875 167.128906 68.605469 165.886719 70.589844 C 165.601562 71.097656 165.320312 71.601562 164.996094 72.089844 L 164.09375 73.585938 C 163.4375 74.550781 162.816406 75.546875 162.0625 76.449219 C 160.617188 78.292969 159.003906 80.019531 157.234375 81.582031 C 155.484375 83.164062 153.597656 84.613281 151.5625 85.832031 L 151.625 85.953125 C 153.765625 84.890625 155.777344 83.570312 157.675781 82.109375 Z M 157.675781 82.109375 " fill-opacity="1" fill-rule="nonzero"/><path fill="#a9a0f0" d="M 164.886719 85.476562 L 164.988281 85.574219 C 167.058594 83.421875 168.941406 81.089844 170.699219 78.675781 C 172.429688 76.238281 174.015625 73.683594 175.410156 71.015625 C 176.761719 68.332031 178.011719 65.554688 178.710938 62.59375 C 179.351562 59.628906 179.558594 56.546875 179.082031 53.570312 L 178.949219 53.578125 C 178.664062 56.5625 178.164062 59.425781 177.382812 62.25 C 176.523438 65.042969 175.648438 67.84375 174.425781 70.53125 C 173.183594 73.207031 171.734375 75.792969 170.132812 78.289062 C 168.535156 80.78125 166.8125 83.214844 164.886719 85.476562 Z M 164.886719 85.476562 " fill-opacity="1" fill-rule="nonzero"/><path fill="#a9a0f0" d="M 178.707031 69.640625 C 179.464844 68.53125 180.089844 67.339844 180.667969 66.121094 C 181.230469 64.894531 181.714844 63.632812 182.128906 62.347656 C 182.355469 61.707031 182.527344 61.050781 182.730469 60.394531 C 182.894531 59.734375 183.039062 59.066406 183.078125 58.382812 C 183.195312 57.027344 183.105469 55.644531 182.757812 54.304688 L 182.617188 54.304688 C 182.210938 55.632812 182.007812 56.914062 181.714844 58.195312 C 181.445312 59.464844 181.359375 60.777344 181.070312 62.058594 C 180.800781 63.34375 180.457031 64.621094 180.03125 65.871094 C 179.632812 67.132812 179.144531 68.371094 178.589844 69.574219 Z M 178.707031 69.640625 " fill-opacity="1" fill-rule="nonzero"/><path fill="#a9a0f0" d="M 185.449219 65.199219 C 185.828125 64.335938 186.164062 63.445312 186.449219 62.535156 C 186.730469 61.628906 187.089844 60.714844 187.101562 59.746094 C 187.140625 58.789062 187.035156 57.8125 186.667969 56.875 L 186.53125 56.875 C 186.132812 57.800781 185.953125 58.6875 185.734375 59.578125 C 185.527344 60.457031 185.539062 61.375 185.375 62.277344 C 185.230469 63.179688 185.035156 64.078125 184.792969 64.96875 C 184.566406 65.863281 184.289062 66.75 183.96875 67.617188 L 184.09375 67.6875 C 184.617188 66.894531 185.042969 66.054688 185.449219 65.199219 Z M 185.449219 65.199219 " fill-opacity="1" fill-rule="nonzero"/><path fill="#a9a0f0" d="M 189.332031 67.304688 C 189.679688 66.617188 189.980469 65.898438 190.222656 65.164062 C 190.46875 64.429688 190.804688 63.691406 190.800781 62.902344 C 190.820312 62.117188 190.710938 61.316406 190.34375 60.550781 L 190.207031 60.550781 C 189.8125 61.304688 189.632812 62.007812 189.4375 62.722656 C 189.246094 63.421875 189.28125 64.167969 189.15625 64.894531 C 189.035156 65.617188 188.878906 66.347656 188.6875 67.0625 C 188.507812 67.792969 188.277344 68.503906 188.015625 69.210938 L 188.132812 69.277344 C 188.597656 68.660156 188.972656 67.988281 189.332031 67.304688 Z M 189.332031 67.304688 " fill-opacity="1" fill-rule="nonzero"/><path fill="#a9a0f0" d="M 190.335938 75.644531 C 191.460938 74.1875 192.335938 72.550781 193.03125 70.824219 C 193.378906 69.964844 193.773438 69.09375 193.847656 68.144531 C 193.941406 67.210938 193.863281 66.238281 193.527344 65.320312 L 193.386719 65.316406 C 192.96875 66.207031 192.753906 67.054688 192.492188 67.894531 C 192.234375 68.726562 192.199219 69.621094 191.980469 70.480469 C 191.773438 71.34375 191.523438 72.203125 191.21875 73.046875 C 190.933594 73.898438 190.59375 74.734375 190.214844 75.558594 Z M 190.335938 75.644531 " fill-opacity="1" fill-rule="nonzero"/><path fill="#a9a0f0" d="M 182.40625 183.304688 L 182.40625 183.445312 C 196.011719 183.800781 209.609375 183.863281 223.203125 183.949219 C 230.011719 183.949219 236.777344 183.972656 243.628906 183.863281 C 244.5 183.871094 245.367188 183.746094 246.230469 183.671875 C 246.660156 183.617188 247.09375 183.539062 247.523438 183.472656 C 247.957031 183.410156 248.382812 183.320312 248.808594 183.207031 C 250.511719 182.816406 252.191406 182.207031 253.714844 181.296875 C 255.246094 180.394531 256.613281 179.207031 257.6875 177.796875 C 258.757812 176.378906 259.539062 174.757812 260.054688 173.082031 C 260.582031 171.40625 260.832031 169.664062 260.917969 167.933594 C 261 166.195312 260.894531 164.464844 260.632812 162.746094 L 258.707031 152.699219 L 254.863281 132.664062 L 247.105469 92.609375 L 246.96875 92.636719 L 254.191406 132.804688 L 257.839844 152.882812 L 259.648438 162.894531 C 260.105469 166.183594 260.015625 169.613281 259.011719 172.753906 C 258.507812 174.316406 257.765625 175.800781 256.769531 177.085938 C 255.765625 178.363281 254.511719 179.425781 253.101562 180.234375 C 251.691406 181.050781 250.128906 181.601562 248.523438 181.949219 C 248.125 182.046875 247.71875 182.132812 247.304688 182.183594 C 246.898438 182.238281 246.488281 182.3125 246.078125 182.363281 C 245.25 182.414062 244.425781 182.523438 243.589844 182.507812 C 240.246094 182.554688 236.804688 182.507812 233.414062 182.523438 L 223.210938 182.582031 C 209.605469 182.738281 196 182.871094 182.40625 183.304688 Z M 182.40625 183.304688 " fill-opacity="1" fill-rule="nonzero"/><path fill="#a9a0f0" d="M 228.757812 71.074219 L 199.300781 70.59375 L 199.300781 71.277344 L 199.304688 71.96875 Z M 228.757812 71.074219 " fill-opacity="1" fill-rule="nonzero"/><path fill="#a9a0f0" d="M 250.363281 148.636719 L 251.773438 157.085938 L 252.136719 159.199219 C 252.277344 159.847656 252.265625 160.554688 252.304688 161.25 C 252.355469 162.644531 252.316406 164.042969 252.175781 165.429688 C 251.941406 168.195312 251.277344 170.964844 249.832031 173.308594 C 248.421875 175.660156 245.933594 177.296875 243.109375 177.761719 L 243.125 177.898438 C 244.566406 177.847656 246.011719 177.46875 247.324219 176.78125 C 248.617188 176.074219 249.765625 175.054688 250.628906 173.839844 C 252.375 171.402344 253.144531 168.453125 253.542969 165.574219 C 253.710938 164.117188 253.765625 162.660156 253.734375 161.199219 C 253.699219 160.46875 253.6875 159.734375 253.519531 158.984375 L 253.117188 156.878906 L 251.445312 148.460938 L 248.164062 131.621094 L 244.8125 114.804688 L 244.675781 114.828125 L 247.484375 131.738281 Z M 250.363281 148.636719 " fill-opacity="1" fill-rule="nonzero"/><path fill="#a9a0f0" d="M 242.039062 148.824219 L 242.835938 153.65625 L 243.265625 156.066406 C 243.34375 156.46875 243.433594 156.859375 243.496094 157.234375 C 243.5625 157.617188 243.613281 158.007812 243.652344 158.402344 C 243.835938 159.960938 243.847656 161.546875 243.574219 163.085938 C 243.304688 164.617188 242.671875 166.09375 241.523438 167.25 L 241.605469 167.355469 C 243.023438 166.480469 244.050781 164.945312 244.515625 163.308594 C 244.777344 162.496094 244.894531 161.652344 244.996094 160.8125 C 245.0625 159.964844 245.070312 159.117188 245.019531 158.277344 C 244.984375 157.859375 244.941406 157.4375 244.878906 157.019531 C 244.816406 156.585938 244.734375 156.175781 244.660156 155.785156 L 244.167969 153.390625 L 243.113281 148.617188 L 241.0625 139.058594 L 238.945312 129.511719 L 238.8125 129.539062 L 240.390625 139.191406 Z M 242.039062 148.824219 " fill-opacity="1" fill-rule="nonzero"/><path fill="#a9a0f0" d="M 91.125 138.078125 C 92.46875 139.371094 93.742188 140.757812 95.191406 141.933594 C 96.644531 143.117188 98.128906 144.257812 99.769531 145.226562 L 99.859375 145.128906 C 98.726562 143.589844 97.4375 142.234375 96.109375 140.914062 C 94.789062 139.585938 93.285156 138.46875 91.859375 137.257812 L 87.558594 133.65625 L 83.210938 130.105469 L 83.121094 130.203125 L 87.101562 134.160156 Z M 91.125 138.078125 " fill-opacity="1" fill-rule="nonzero"/><path fill="#a9a0f0" d="M 119.859375 147.941406 C 118.453125 146.394531 117.007812 144.890625 115.554688 143.382812 C 112.652344 140.378906 109.582031 137.550781 106.5625 134.671875 L 97.523438 126.003906 L 88.433594 117.382812 L 88.339844 117.480469 L 97.039062 126.488281 L 105.792969 135.449219 C 108.707031 138.441406 111.566406 141.484375 114.589844 144.359375 C 116.109375 145.792969 117.628906 147.226562 119.1875 148.617188 L 121.527344 150.703125 C 122.328125 151.378906 123.109375 152.070312 123.925781 152.730469 L 124.023438 152.636719 C 123.355469 151.828125 122.65625 151.050781 121.972656 150.261719 Z M 119.859375 147.941406 " fill-opacity="1" fill-rule="nonzero"/><path fill="#a9a0f0" d="M 191.710938 143.765625 L 187.75 140.992188 C 186.417969 140.082031 185.09375 139.164062 183.75 138.273438 L 183.667969 138.378906 C 184.875 139.445312 186.113281 140.480469 187.335938 141.535156 L 191.046875 144.632812 C 192.289062 145.660156 193.457031 146.78125 194.800781 147.683594 C 196.132812 148.589844 197.5 149.453125 199.015625 150.132812 L 199.097656 150.023438 C 198.050781 148.746094 196.863281 147.648438 195.640625 146.59375 C 194.417969 145.53125 193.03125 144.695312 191.710938 143.765625 Z M 191.710938 143.765625 " fill-opacity="1" fill-rule="nonzero"/><path fill="#a9a0f0" d="M 194.785156 136.300781 C 197.410156 138.554688 199.96875 140.890625 202.695312 143.019531 C 205.417969 145.15625 208.183594 147.238281 211.089844 149.15625 L 211.179688 149.050781 C 208.753906 146.554688 206.179688 144.234375 203.574219 141.960938 C 200.96875 139.679688 198.195312 137.613281 195.488281 135.457031 L 187.359375 129.003906 L 179.183594 122.605469 L 179.09375 122.710938 L 186.917969 129.53125 Z M 194.785156 136.300781 " fill-opacity="1" fill-rule="nonzero"/><path fill="#a9a0f0" d="M 198.867188 127.488281 C 202.167969 130.238281 205.417969 133.050781 208.820312 135.671875 C 210.523438 136.980469 212.226562 138.289062 213.96875 139.550781 L 216.582031 141.441406 C 217.472656 142.050781 218.339844 142.679688 219.242188 143.265625 L 219.328125 143.160156 C 218.558594 142.402344 217.757812 141.6875 216.972656 140.953125 L 214.570312 138.804688 C 212.96875 137.378906 211.324219 135.988281 209.683594 134.605469 C 206.394531 131.839844 202.953125 129.269531 199.558594 126.628906 L 189.394531 118.710938 L 179.183594 110.84375 L 179.097656 110.949219 L 188.96875 119.246094 Z M 198.867188 127.488281 " fill-opacity="1" fill-rule="nonzero"/><path fill="#a9a0f0" d="M 111.066406 126.679688 C 112.308594 127.707031 113.476562 128.828125 114.820312 129.726562 C 116.15625 130.636719 117.523438 131.5 119.035156 132.175781 L 119.117188 132.070312 C 118.070312 130.792969 116.882812 129.695312 115.660156 128.640625 C 114.445312 127.582031 113.054688 126.742188 111.746094 125.8125 L 107.78125 123.039062 C 106.449219 122.128906 105.125 121.210938 103.78125 120.320312 L 103.699219 120.425781 C 104.910156 121.492188 106.148438 122.527344 107.367188 123.582031 Z M 111.066406 126.679688 " fill-opacity="1" fill-rule="nonzero"/></svg>