<svg xmlns="http://www.w3.org/2000/svg" xmlns:xlink="http://www.w3.org/1999/xlink" width="400" zoomAndPan="magnify" viewBox="0 0 300 299.999988" height="400" preserveAspectRatio="xMidYMid meet" version="1.0"><defs><clipPath id="13a0996ca2"><path d="M 30.078125 35.707031 L 269.921875 35.707031 L 269.921875 264.914062 L 30.078125 264.914062 Z M 30.078125 35.707031 " clip-rule="nonzero"/></clipPath></defs><g clip-path="url(#13a0996ca2)"><path fill="currentColor" d="M 268.875 104.574219 C 268.867188 105.320312 268.652344 106.03125 268.59375 106.761719 C 268.519531 107.59375 268.503906 108.425781 268.433594 109.257812 C 268.285156 110.964844 268.058594 112.667969 267.757812 114.355469 C 266.988281 118.65625 265.453125 122.417969 264.015625 126.515625 C 263.664062 127.503906 263.367188 128.546875 262.699219 129.378906 C 262.464844 129.675781 260.992188 132.152344 260.746094 131.753906 C 260.320312 131.0625 260.46875 128.632812 260.679688 128.226562 C 261.3125 127.015625 261.878906 125.765625 262.300781 124.464844 C 262.816406 122.863281 263.101562 121.195312 263.476562 119.550781 C 263.898438 117.695312 264.429688 115.863281 264.925781 114.023438 C 265.347656 112.464844 265.738281 110.894531 266.101562 109.316406 C 266.929688 105.765625 267.828125 99.96875 267.316406 96.296875 C 268.417969 95.964844 268.878906 103.996094 268.875 104.574219 Z M 260.128906 125.171875 C 259.75 126.832031 258.925781 127.441406 257.429688 128.125 C 253.886719 129.734375 248.109375 129.613281 244.328125 129.960938 C 240.746094 130.292969 237.191406 130.898438 233.605469 131.167969 C 230.042969 131.4375 226.480469 131.648438 222.941406 132.152344 C 222.941406 130.855469 222.855469 129.566406 222.964844 128.273438 C 223.058594 127.128906 223.273438 126.039062 222.980469 124.925781 C 222.429688 122.816406 221.167969 120.753906 219.542969 119.300781 C 217.757812 117.703125 214.878906 116.714844 212.816406 115.519531 C 211.765625 114.910156 210.9375 114.035156 210.058594 113.207031 C 209.039062 112.246094 207.296875 111.160156 206.273438 110.195312 C 207.398438 109.949219 209.476562 109.589844 210.605469 109.152344 C 211.539062 108.789062 213.371094 108.46875 213.589844 107.472656 C 214.054688 105.386719 213.746094 102.960938 213.882812 100.847656 C 214.253906 100.847656 217.519531 100.335938 217.792969 100.292969 C 219.28125 100.054688 220.789062 100.050781 222.289062 100.011719 C 226.566406 99.902344 230.832031 99.457031 235.042969 98.695312 C 237.003906 98.335938 238.96875 97.894531 240.914062 97.484375 C 242.183594 97.21875 243.566406 96.488281 243.425781 94.992188 C 243.371094 94.421875 243.175781 93.878906 243.019531 93.332031 C 242.527344 91.613281 242.390625 89.828125 242.082031 88.078125 C 241.941406 87.285156 241.589844 86.472656 241.503906 85.6875 C 241.433594 85.054688 241.410156 84.632812 241.410156 84.632812 C 241.414062 84.703125 244.082031 84.21875 244.367188 84.15625 C 246.425781 83.707031 248.539062 83.683594 250.632812 83.570312 C 252.113281 83.492188 253.527344 83.082031 254.980469 82.84375 C 256.46875 82.597656 258.007812 82.613281 259.515625 82.539062 C 260.289062 82.503906 262.0625 84.289062 262.621094 84.847656 C 264.574219 86.800781 264.519531 88.394531 265.179688 90.613281 C 265.941406 93.183594 265.914062 96.015625 265.898438 98.695312 C 265.867188 103.648438 265.105469 108.386719 263.96875 113.207031 C 263.265625 116.183594 262.863281 118.652344 261.660156 121.472656 C 261.242188 122.457031 260.335938 124.257812 260.128906 125.171875 Z M 258.4375 132.589844 C 257.65625 133.714844 254.5625 133.804688 253.175781 134.046875 C 248.648438 134.835938 243.96875 135.027344 239.394531 135.46875 C 236.527344 135.746094 233.65625 136.027344 230.785156 136.304688 C 229.238281 136.457031 227.6875 136.605469 226.140625 136.757812 C 225.695312 136.800781 222.601562 137.390625 222.824219 136.503906 C 222.808594 136.390625 222.792969 136.28125 222.78125 136.167969 C 222.746094 135.835938 222.703125 135.507812 222.722656 135.171875 C 222.777344 134.179688 223.277344 133.742188 224.226562 133.570312 C 225.371094 133.355469 226.542969 133.28125 227.699219 133.183594 C 235.675781 132.496094 243.6875 131.984375 251.648438 131.253906 C 254.085938 131.03125 256.785156 130.660156 258.859375 129.226562 C 258.722656 129.804688 258.777344 132.097656 258.4375 132.589844 Z M 221.359375 145.574219 C 221.527344 143.953125 222.234375 140.214844 222.535156 138.652344 C 223.011719 138.746094 223.488281 138.71875 223.976562 138.699219 C 224.464844 138.679688 225.46875 138.539062 225.929688 138.40625 C 225.226562 140.007812 222.363281 144.253906 221.359375 145.574219 Z M 221.285156 131.496094 C 221.191406 132.386719 221.09375 133.277344 221.042969 134.164062 C 220.832031 137.894531 220.632812 141.65625 220.21875 145.375 C 220.066406 146.753906 219.046875 147.558594 218.28125 148.621094 C 216.621094 150.921875 213.941406 152.367188 211.59375 153.921875 C 209.035156 155.625 206.433594 157.257812 203.832031 158.898438 C 202.15625 159.953125 200.480469 161.007812 198.804688 162.0625 C 197.832031 162.675781 196.851562 163.289062 195.949219 164.003906 C 195.484375 164.371094 194.050781 166.253906 193.421875 166.089844 C 192.183594 165.761719 193.480469 160.070312 193.707031 159.132812 C 194.695312 155.058594 195.890625 151.035156 196.734375 146.917969 C 197.28125 144.28125 197.71875 141.5625 197.269531 138.90625 C 196.757812 135.871094 195.15625 134.164062 192.882812 132.285156 C 192.296875 131.804688 191.707031 131.320312 191.039062 130.96875 C 188.667969 129.726562 185.175781 129.632812 182.554688 129.246094 C 180.132812 128.890625 177.679688 128.804688 175.234375 128.746094 C 171.308594 128.652344 167.378906 128.632812 163.460938 128.902344 C 160.507812 129.101562 157.570312 129.46875 154.640625 129.863281 C 153.382812 130.035156 152.152344 130.03125 150.910156 130.199219 C 149.566406 130.378906 145.957031 131.0625 145.957031 131.0625 C 145.957031 131.0625 145.523438 130.582031 144.929688 130.109375 C 143.285156 128.796875 141.328125 128.332031 139.320312 127.757812 C 137.980469 127.371094 136.441406 127.128906 135.238281 126.425781 C 136.410156 125.359375 137.746094 124.492188 139.042969 123.582031 C 140.390625 122.636719 141.722656 121.660156 143.101562 120.761719 C 144.386719 119.929688 145.621094 119.117188 146.792969 118.125 C 147.882812 117.210938 148.578125 116.632812 149.800781 115.917969 C 150.378906 115.582031 150.96875 115.230469 151.519531 114.851562 C 152.070312 114.472656 153.183594 113.265625 153.183594 113.265625 C 153.308594 113.167969 154.578125 113.242188 154.753906 113.246094 C 155.136719 113.253906 155.523438 113.261719 155.902344 113.269531 C 158.402344 113.320312 160.914062 113.546875 163.417969 113.625 C 166.003906 113.703125 168.589844 113.742188 171.171875 113.734375 C 173.15625 113.730469 176.671875 113.585938 177.121094 113.582031 C 177.566406 113.582031 179.0625 113.457031 179.0625 113.457031 C 179.433594 114.453125 181.308594 116.695312 184.078125 114.988281 C 184.511719 114.71875 184.921875 112.957031 184.921875 112.957031 C 184.921875 112.957031 185.453125 112.996094 185.949219 112.878906 C 187.039062 112.625 188.21875 112.621094 189.332031 112.519531 C 190.90625 112.378906 192.464844 112.222656 194.027344 112.003906 C 195.457031 111.800781 196.886719 111.585938 198.316406 111.382812 C 199.996094 111.136719 201.679688 110.882812 203.367188 110.714844 C 203.816406 110.667969 205.210938 111.804688 205.628906 112.070312 C 206.914062 112.882812 208.132812 113.835938 209.398438 114.6875 C 212.246094 116.601562 215.453125 118.144531 218.210938 120.144531 C 219.203125 120.867188 219.929688 122.007812 220.488281 123.085938 C 221.875 125.773438 221.59375 128.632812 221.285156 131.496094 Z M 212.496094 156.941406 C 212.015625 157.511719 211.53125 158.078125 211.046875 158.648438 C 207.75 162.527344 204.421875 166.367188 200.980469 170.15625 C 199.886719 171.367188 198.792969 172.574219 197.707031 173.792969 C 186.46875 186.398438 176.347656 200.027344 165.84375 213.214844 C 164.964844 214.316406 163.9375 215.832031 162.976562 216.871094 C 162.195312 216.347656 160.988281 214.96875 160.015625 213.742188 C 159.753906 213.410156 161.109375 212.371094 161.988281 211.28125 C 163.292969 209.667969 164.597656 208.050781 165.902344 206.4375 C 168.507812 203.207031 171.117188 199.976562 173.726562 196.746094 C 179.007812 190.203125 184.289062 183.660156 189.574219 177.117188 C 190.898438 175.476562 194.417969 171.636719 195.664062 169.933594 C 198.988281 165.386719 201.648438 162.097656 205.058594 159.988281 C 205.851562 159.5 206.738281 159.355469 207.484375 158.773438 C 209.082031 157.53125 214.382812 153.578125 216.054688 152.441406 C 216.179688 152.59375 213.152344 155.964844 213.167969 156.15625 C 213.175781 156.289062 212.589844 156.832031 212.496094 156.941406 Z M 165.949219 222.144531 C 165.957031 222.152344 168.835938 225.316406 170.273438 226.890625 C 175.71875 232.867188 181.738281 238.417969 186.902344 244.640625 C 188.929688 247.089844 194.46875 252.644531 194.46875 252.644531 C 194.46875 252.644531 194.726562 254.238281 194.019531 255.125 C 193.226562 256.117188 191.964844 256.066406 191.964844 256.066406 C 191.964844 256.066406 188.203125 252.441406 187.761719 252.148438 C 185.4375 250.605469 183.878906 248.21875 181.890625 246.308594 C 180.832031 245.296875 179.78125 244.371094 178.808594 243.269531 C 177.785156 242.109375 176.6875 241.015625 175.628906 239.890625 C 170.472656 234.402344 165.613281 228.625 160.6875 222.921875 C 159.492188 221.539062 158.292969 220.15625 157.097656 218.769531 C 153.902344 215.070312 150.589844 211.441406 147.460938 207.695312 C 146.933594 207.066406 145.496094 205.382812 145.496094 205.382812 C 145.496094 205.382812 145.449219 204.707031 145.574219 203.964844 C 145.695312 203.261719 145.601562 202.574219 145.664062 201.867188 C 145.699219 201.457031 145.792969 200.785156 145.890625 200.167969 C 145.949219 199.804688 146.425781 199.703125 146.625 200.007812 C 147.238281 200.957031 148.074219 201.996094 148.675781 202.71875 C 154.246094 209.402344 160.082031 215.707031 165.949219 222.144531 Z M 196.339844 254.226562 C 197.074219 254.136719 198.007812 254.882812 198.515625 255.335938 C 199.1875 255.933594 199.605469 256.445312 199.589844 257.378906 C 199.574219 258.179688 199.304688 258.941406 198.800781 259.5625 C 198.191406 260.3125 197.546875 260.578125 196.644531 260.808594 C 195.3125 260.863281 192.808594 259.671875 193.453125 257.984375 C 193.738281 257.230469 194.621094 256.648438 195.066406 255.957031 C 195.386719 255.460938 195.671875 254.308594 196.339844 254.226562 Z M 157.460938 224.148438 C 156.25 225.773438 154.96875 227.34375 153.71875 228.9375 C 152.433594 230.578125 151.136719 232.210938 149.925781 233.902344 C 148.820312 235.449219 147.882812 237.746094 146.4375 238.980469 C 145.988281 238.261719 146.269531 236.789062 146.21875 236 C 146.164062 235.066406 145.980469 231.75 145.980469 231.75 C 145.980469 231.75 147.332031 229.855469 148.265625 228.382812 C 149.328125 226.695312 150.480469 225.089844 151.761719 223.5625 C 152.984375 222.105469 154.183594 220.5625 155.628906 219.324219 C 156.261719 220.128906 156.898438 220.933594 157.53125 221.738281 C 157.671875 221.917969 158.402344 222.609375 158.410156 222.851562 C 158.417969 223.109375 157.625 223.929688 157.460938 224.148438 Z M 145.035156 222.863281 C 145.007812 222.140625 144.976562 221.417969 144.960938 220.695312 C 144.914062 218.886719 144.878906 217.078125 144.859375 215.269531 C 144.84375 213.644531 144.589844 211.789062 144.855469 210.183594 C 144.949219 209.488281 144.9375 208.183594 145.15625 207.527344 C 146.609375 209.273438 148.054688 211.027344 149.558594 212.726562 C 150.328125 213.59375 151.109375 214.445312 151.921875 215.277344 C 152.5 215.871094 154.222656 218.035156 154.222656 218.035156 C 154.222656 218.035156 153.257812 219.085938 152.898438 219.5625 C 152.25 220.429688 151.5625 221.269531 150.894531 222.125 C 149.949219 223.332031 149.003906 224.539062 148.058594 225.746094 C 147.3125 226.703125 145.980469 228.449219 145.476562 229.632812 C 145.523438 229.601562 145.117188 225.554688 145.109375 225.191406 C 145.09375 224.414062 145.066406 223.636719 145.035156 222.863281 Z M 183.660156 133.675781 C 180.964844 133.804688 178.335938 134.210938 175.65625 134.441406 C 172.863281 134.679688 170.0625 134.609375 167.261719 134.683594 C 161.976562 134.816406 156.734375 135.4375 151.453125 135.5625 C 150.632812 135.582031 148.109375 135.769531 148.109375 135.769531 C 148.109375 135.769531 147.648438 133.296875 146.757812 132.222656 C 147.429688 132.203125 151.515625 131.625 151.960938 131.628906 C 153.585938 131.636719 155.230469 131.386719 156.859375 131.210938 C 160.363281 130.832031 163.875 130.46875 167.398438 130.304688 C 171.238281 130.132812 175.09375 130.199219 178.921875 130.554688 C 182.714844 130.90625 186.570312 131.242188 190.1875 132.449219 C 190.863281 132.671875 191.714844 133.421875 191.714844 133.421875 C 191.714844 133.421875 188.277344 133.464844 187.53125 133.5 C 186.246094 133.566406 184.953125 133.617188 183.660156 133.675781 Z M 183.328125 138.59375 C 181.011719 138.742188 178.699219 138.890625 176.382812 139.039062 C 175.136719 139.121094 173.886719 139.199219 172.636719 139.28125 C 170.144531 139.441406 167.652344 139.601562 165.15625 139.742188 C 162.832031 139.875 160.507812 139.992188 158.179688 140.113281 C 156.535156 140.195312 154.890625 140.277344 153.246094 140.359375 C 152.332031 140.40625 149.1875 140.671875 149.1875 140.671875 C 149.1875 140.671875 149.070312 139.648438 148.996094 139.257812 C 148.867188 138.554688 148.804688 137.855469 148.648438 137.15625 C 151.871094 136.5625 155.390625 136.90625 158.671875 136.8125 C 162.125 136.71875 165.578125 136.5625 169.019531 136.296875 C 171.242188 136.121094 173.457031 135.902344 175.675781 135.71875 C 180.855469 135.285156 186.039062 135.242188 191.207031 135.027344 C 191.902344 135 192.898438 135.003906 192.898438 135.003906 C 193.5625 135.460938 194.832031 136.910156 195.039062 137.722656 C 194.621094 137.839844 190.960938 138.136719 190.527344 138.167969 C 189.046875 138.265625 187.550781 138.324219 186.070312 138.417969 C 185.152344 138.476562 184.242188 138.535156 183.328125 138.59375 Z M 195.441406 144.15625 C 195.160156 145.800781 194.507812 147.257812 194.039062 148.816406 C 193.476562 150.675781 193.007812 152.570312 192.492188 154.441406 C 191.957031 156.398438 191.328125 158.355469 190.875 160.335938 C 190.5 161.972656 190.632812 163.96875 190.871094 165.632812 C 190.953125 166.1875 191.0625 166.664062 191.046875 167.21875 C 191.03125 167.761719 191.183594 168.90625 191.183594 169.269531 C 191.183594 169.738281 193.84375 168.75 195.039062 167.554688 C 195.054688 168.453125 190.738281 173.089844 190.394531 173.613281 C 186.339844 179.75 180.972656 185.199219 176.390625 190.964844 C 173.675781 194.378906 170.941406 197.777344 168.179688 201.152344 C 165.664062 204.238281 162.605469 207.210938 160.402344 210.515625 C 160.007812 211.074219 158.746094 212.429688 158.742188 212.429688 C 158.808594 212.363281 158.050781 211.558594 157.996094 211.464844 C 157.800781 211.125 157.519531 210.945312 157.269531 210.675781 C 156.929688 210.308594 156.667969 210.027344 156.375 209.625 C 155.789062 208.8125 155.183594 208.015625 154.5625 207.230469 C 151.789062 203.722656 148.761719 200.691406 145.976562 197.191406 C 145.976562 197.191406 145.960938 195.699219 145.992188 195.085938 C 146.824219 178.3125 147.839844 161.746094 149.226562 145.03125 C 149.308594 144.066406 149.269531 141.980469 149.269531 141.980469 C 149.269531 141.980469 158.238281 141.539062 162.238281 141.371094 C 166.460938 141.199219 170.675781 140.980469 174.890625 140.71875 C 177.40625 140.5625 179.917969 140.386719 182.433594 140.214844 C 185.324219 140.015625 188.214844 139.816406 191.105469 139.617188 C 192.128906 139.546875 195.476562 139.394531 195.476562 139.394531 C 195.476562 139.394531 195.640625 140.992188 195.664062 141.742188 C 195.683594 142.558594 195.578125 143.355469 195.441406 144.15625 Z M 144.84375 194.085938 C 144.796875 194.957031 143.652344 209.089844 143.617188 216.570312 C 143.597656 220.382812 143.675781 224.191406 143.902344 227.996094 C 144.003906 229.6875 144.992188 241.039062 144.992188 241.039062 C 144.992188 241.039062 141.394531 241.703125 140.296875 241.464844 C 139.828125 241.363281 138.835938 241.300781 138.5 240.933594 C 138.183594 240.589844 138.132812 238.75 138.128906 238.324219 C 138.113281 236.867188 138.09375 235.398438 138.144531 233.945312 C 138.1875 232.703125 137.890625 231.207031 137.738281 229.964844 C 137.46875 227.835938 135.839844 232.285156 135.613281 233.292969 C 135.085938 235.660156 134.925781 238.621094 134.5 241.039062 C 134.34375 241.921875 134.15625 241.753906 133.839844 241.734375 C 130.347656 241.53125 124.601562 240.527344 121.484375 239.523438 C 119.0625 238.742188 113.335938 236.84375 112.777344 235.597656 C 112.660156 235.34375 112.820312 232.277344 112.851562 231.378906 C 112.890625 230.167969 112.914062 228.960938 112.980469 227.753906 C 114.320312 203.117188 116.25 178.445312 116.695312 153.777344 C 116.78125 149.207031 117.484375 145.183594 115.363281 140.941406 C 114.824219 139.859375 114.21875 138.765625 113.085938 138.300781 C 112.109375 137.902344 109.023438 135.878906 109.023438 135.878906 C 109.023438 135.878906 111.667969 135.335938 112.390625 135.175781 C 113.816406 134.859375 115.253906 134.589844 116.683594 134.296875 C 117.960938 134.019531 118.972656 133.628906 119.867188 132.648438 C 120.074219 132.421875 120.15625 132.132812 120.21875 131.835938 C 120.40625 130.980469 120.429688 130.078125 120.507812 129.207031 C 122.679688 129.660156 124.816406 130.171875 127.007812 130.570312 C 127.90625 130.734375 129.246094 131.082031 129.496094 130.832031 C 130.203125 130.125 131.265625 129.214844 132.066406 128.609375 C 132.945312 127.949219 133.53125 127.742188 134.621094 128.039062 C 135.625 128.308594 136.582031 128.667969 137.605469 128.867188 C 138.664062 129.074219 139.621094 129.527344 140.671875 129.757812 C 141.542969 129.945312 144.171875 131.941406 144.949219 133.117188 C 145.730469 134.296875 146.453125 135.765625 146.78125 137.144531 C 147.140625 138.660156 147.875 140.226562 147.820312 141.777344 C 147.789062 142.617188 147.96875 143.441406 147.972656 144.28125 C 147.976562 145.152344 147.949219 146.210938 147.886719 147.078125 C 146.757812 162.945312 145.707031 178.453125 144.84375 194.085938 Z M 145.171875 243.832031 C 145.285156 244.785156 145.664062 247.21875 145.363281 247.707031 C 145.054688 248.214844 142.59375 248.140625 141.957031 248.402344 C 141.496094 248.589844 138.664062 248.628906 138.257812 248.332031 C 137.855469 248.035156 137.695312 246.503906 137.679688 246.078125 C 137.617188 244.675781 137.675781 243.933594 137.675781 242.53125 C 139.71875 242.839844 143.199219 243.066406 145.113281 242.015625 C 145.164062 242.769531 145.085938 243.082031 145.171875 243.832031 Z M 137.96875 250.035156 C 137.226562 251.042969 135.476562 253.066406 134.601562 253.964844 C 133.816406 254.773438 132.960938 255.847656 132.21875 256.699219 C 131.640625 257.367188 129.921875 259.507812 129.921875 259.507812 C 129.921875 259.507812 128.335938 259.507812 127.332031 258.347656 C 126.847656 257.792969 126.15625 256.296875 126.15625 256.296875 C 126.15625 256.296875 127.859375 254.453125 128.128906 253.953125 C 128.679688 252.925781 130.941406 250.636719 130.941406 250.636719 C 130.941406 250.636719 131.695312 250.71875 132.742188 250.507812 C 133.707031 250.347656 133.363281 250.203125 134.621094 246.664062 C 134.886719 245.910156 135.035156 245.148438 135.164062 244.363281 C 135.238281 243.917969 135.578125 243.96875 136.621094 241.472656 C 136.621094 243.050781 136.417969 245.933594 136.308594 247.5 C 136.296875 247.660156 136.273438 249.566406 136.710938 249.804688 Z M 128.964844 262.015625 C 128.632812 262.433594 128.269531 262.832031 128.1875 262.886719 C 127.492188 263.351562 126.617188 263.570312 125.789062 263.40625 C 125.214844 263.289062 124.683594 263.015625 124.171875 262.726562 C 123.777344 262.5 123.386719 262.261719 123.082031 261.925781 C 122.246094 261.007812 122.6875 259.445312 123.386719 258.550781 C 123.945312 257.835938 124.886719 258.03125 125.34375 258.765625 C 125.714844 259.363281 126.171875 259.925781 126.816406 260.246094 C 127.472656 260.574219 128.839844 260.796875 129.542969 261 C 129.695312 261.042969 129.347656 261.542969 128.964844 262.015625 Z M 126.660156 248.445312 C 126.296875 248.355469 125.953125 248.269531 125.640625 248.199219 C 124.492188 247.957031 123.324219 247.839844 122.152344 247.738281 C 119.46875 247.503906 116.65625 247.34375 114.277344 245.941406 C 113.730469 245.617188 112.457031 245.570312 112.457031 245.175781 C 112.457031 244.308594 112.507812 242.582031 112.5 241.71875 C 112.492188 240.160156 112.457031 238.660156 112.644531 237.113281 C 114.8125 238.773438 117.753906 239.351562 120.246094 240.3125 C 121.519531 240.804688 122.679688 241.382812 124 241.761719 C 125.628906 242.222656 127.328125 242.328125 129.011719 242.429688 C 129.359375 242.449219 133.699219 242.914062 133.707031 242.890625 C 133.46875 243.621094 133.363281 244.503906 133.113281 245.234375 C 132.914062 245.816406 132.3125 248.363281 132.066406 248.902344 C 131.910156 249.25 128.722656 248.953125 126.660156 248.445312 Z M 113.285156 175.878906 C 112.273438 175.03125 110.882812 173.261719 110.675781 173.011719 C 108.601562 170.496094 106.34375 168.125 104.144531 165.722656 C 99.019531 160.117188 93.832031 154.5625 88.6875 148.980469 C 86.859375 146.996094 85.515625 144.488281 83.640625 142.617188 C 83.132812 142.113281 82.65625 141.574219 82.191406 141.113281 C 84.636719 141.335938 89.417969 141.800781 89.417969 141.800781 C 89.417969 141.800781 93.277344 146.582031 94.96875 148.535156 C 97.0625 150.949219 99.15625 153.367188 101.25 155.78125 C 105.441406 160.617188 109.734375 166.199219 114.253906 170.722656 C 114.734375 171.199219 114.277344 177.277344 114.277344 177.277344 C 114.277344 177.277344 113.742188 176.261719 113.285156 175.878906 Z M 115.054688 163.605469 C 115.140625 165.265625 115.238281 167.402344 114.566406 168.171875 C 111.816406 166.109375 109.726562 162.90625 107.445312 160.347656 C 104.78125 157.355469 102.058594 154.414062 99.386719 151.425781 C 98.015625 149.898438 96.660156 148.355469 95.328125 146.789062 C 94.234375 145.5 91.847656 143.410156 91.367188 141.800781 C 92.636719 141.667969 96.109375 142.113281 97.753906 142.296875 C 102.300781 142.800781 106.871094 143.019531 111.414062 143.535156 C 112.558594 143.664062 114.851562 143.492188 114.851562 143.492188 C 114.851562 143.492188 115.085938 144.71875 115.285156 145.492188 C 116.160156 148.886719 115.304688 152.167969 115.199219 155.617188 C 115.132812 157.761719 115.070312 159.90625 115.003906 162.050781 C 114.992188 162.4375 115.023438 162.988281 115.054688 163.605469 Z M 77.40625 138.917969 C 76.410156 138.707031 75.414062 138.472656 74.433594 138.203125 C 67.507812 136.316406 59.832031 135.089844 53.476562 134.398438 C 48.582031 133.867188 41.320312 131.632812 37.613281 127.925781 C 37.125 127.4375 35.710938 125.175781 35.710938 125.175781 C 35.710938 125.175781 36.8125 125.921875 38.109375 126.371094 C 38.417969 126.476562 38.738281 126.550781 39.054688 126.625 C 48.683594 128.996094 58.542969 131.234375 68.214844 133.527344 C 74.453125 135.003906 80.976562 136.234375 87.484375 136.292969 C 94.171875 136.351562 100.5 136.910156 107.191406 137.269531 C 107.785156 137.300781 108.347656 137.144531 108.894531 137.359375 C 110.132812 137.839844 111.371094 138.730469 112.550781 139.335938 C 113.460938 139.800781 114.253906 140.949219 114.410156 141.949219 C 113.082031 142.078125 111.492188 141.929688 110.15625 141.867188 C 104.289062 141.597656 98.4375 140.910156 92.574219 140.421875 C 87.484375 139.996094 82.425781 139.964844 77.40625 138.917969 Z M 34.167969 121.972656 C 33.292969 121.175781 32.125 119.800781 31.785156 118.445312 C 31.222656 116.199219 32.101562 114.03125 33.28125 112.1875 C 34.835938 109.75 38.269531 108.019531 41.007812 107.089844 C 44.445312 105.921875 47.882812 104.75 51.320312 103.585938 C 55 102.335938 59.175781 101.726562 62.914062 100.6875 C 68.375 99.164062 73.949219 98.097656 79.535156 97.164062 C 82.144531 96.730469 84.75 96.304688 87.316406 95.757812 C 88.695312 95.464844 90.125 95.316406 91.519531 95.117188 C 92.109375 95.035156 95.453125 94.976562 95.71875 94.550781 C 95.28125 95.253906 94.597656 95.699219 93.960938 96.226562 C 91.222656 98.519531 88.871094 101.597656 87.191406 104.746094 C 85.105469 108.648438 84.292969 113.183594 84.914062 117.566406 C 85.863281 124.285156 90.671875 129.949219 94.285156 135.449219 C 94.09375 135.160156 90.917969 135.414062 90.394531 135.378906 C 81.421875 134.804688 72.085938 132.847656 63.3125 130.90625 C 54.421875 128.9375 45.425781 126.746094 36.894531 123.535156 C 35.84375 123.140625 34.898438 122.644531 34.167969 121.972656 Z M 96.167969 99.808594 C 95.71875 99.855469 94.804688 100.324219 94.308594 100.804688 C 93.808594 101.285156 93.453125 101.601562 93.109375 102.207031 C 92.640625 103.035156 92.484375 103.777344 92.246094 104.695312 C 91.960938 105.796875 92.269531 107.199219 92.414062 108.328125 C 93.050781 113.207031 95.039062 117.765625 98.722656 121.125 C 99.984375 122.277344 100.722656 122.511719 102.492188 122.460938 C 108.796875 122.292969 114.789062 120.839844 120.722656 118.816406 C 127.035156 116.671875 133.425781 114.757812 139.878906 113.082031 C 140.441406 112.9375 142.25 112.171875 142.25 112.171875 C 142.25 112.171875 148.59375 112.847656 151.265625 112.957031 C 150.875 113.867188 149.578125 114.417969 148.777344 114.988281 C 143.460938 118.773438 137.96875 122.214844 132.839844 126.273438 C 131.570312 127.277344 129.386719 129.164062 128.917969 129.285156 C 128.316406 129.449219 124.601562 128.449219 122.886719 127.90625 C 121.890625 127.59375 120.902344 127.3125 119.960938 126.863281 C 119.484375 126.636719 118.820312 125.921875 118.667969 126.574219 C 118.441406 127.558594 118.578125 128.476562 118.570312 129.25 C 118.5625 130.378906 119.085938 131.71875 118.460938 132.007812 C 117.777344 132.328125 115.890625 132.769531 115.15625 132.839844 C 114.011719 132.953125 112.871094 133.148438 111.742188 133.363281 C 109.089844 133.863281 106.464844 134.535156 103.785156 134.867188 C 102.410156 135.042969 101.042969 135.097656 99.660156 135.058594 C 98.511719 135.027344 97 135.625 96.25 135.234375 C 94.976562 134.570312 93.953125 132.183594 93.34375 130.90625 C 92.207031 128.535156 90.042969 126.40625 88.773438 124.097656 C 87.453125 121.699219 86.546875 119.074219 86.195312 116.355469 C 85.628906 111.964844 87.121094 107.890625 89.414062 104.160156 C 91.25 101.164062 93.5625 98.421875 95.941406 95.84375 C 96.34375 95.40625 97.046875 94.5 97.046875 94.5 L 98.257812 94.257812 C 98.257812 94.257812 97.804688 95.203125 97.714844 95.378906 C 96.886719 97.035156 96.171875 99.808594 96.167969 99.808594 Z M 122.425781 116.921875 C 118.402344 118.222656 114.253906 119.6875 110.128906 120.3125 C 106.644531 120.84375 102.558594 121.941406 99.484375 119.527344 C 98.910156 119.082031 98.382812 118.570312 97.90625 118.019531 C 95.433594 115.144531 94.5625 111.648438 94.128906 107.960938 C 93.96875 106.636719 93.890625 105.332031 94.285156 104.042969 C 94.664062 102.804688 95.222656 102.488281 96.292969 101.863281 C 97.414062 103.359375 99.695312 104.222656 101.433594 104.589844 C 103.292969 104.980469 105.113281 105.492188 106.988281 105.800781 C 108.855469 106.105469 110.746094 106.3125 112.59375 106.71875 C 116.28125 107.539062 120.003906 108.25 123.734375 108.867188 C 125.5625 109.167969 127.375 109.53125 129.191406 109.90625 C 131.023438 110.28125 132.886719 110.433594 134.734375 110.695312 C 136.304688 110.921875 137.867188 111.207031 139.429688 111.480469 C 138.195312 111.480469 136.496094 112.394531 135.3125 112.765625 C 133.808594 113.234375 132.308594 113.703125 130.804688 114.175781 C 127.996094 115.050781 125.210938 116.015625 122.425781 116.921875 Z M 182.636719 114.222656 C 182.113281 114.402344 181.429688 114.535156 181.066406 113.976562 C 180.941406 113.785156 180.867188 113.554688 180.804688 113.332031 C 180.828125 113.378906 181.910156 113.183594 182.007812 113.171875 C 182.339844 113.128906 182.679688 113.074219 183.015625 113.070312 C 183.050781 113.398438 183.050781 114.078125 182.636719 114.222656 Z M 108.371094 101.769531 C 112.222656 102.546875 116.078125 103.324219 119.929688 104.101562 C 122.09375 104.539062 124.261719 104.976562 126.425781 105.414062 C 128.132812 105.761719 129.84375 106.105469 131.554688 106.410156 C 133.1875 106.707031 134.824219 106.964844 136.457031 107.226562 C 139.175781 107.65625 141.878906 108.023438 144.59375 108.371094 C 150.5625 109.128906 156.570312 109.605469 162.589844 109.804688 C 175.414062 110.230469 188.292969 109.414062 200.980469 107.480469 C 203.984375 107.023438 206.949219 106.394531 209.976562 106.226562 C 210.484375 106.152344 211.089844 105.894531 211.597656 105.726562 C 211.835938 105.652344 211.949219 106.070312 212.042969 106.296875 C 212.222656 106.726562 211.882812 106.742188 211.625 106.886719 C 210.75 107.371094 209.808594 107.730469 208.832031 107.953125 C 207.804688 108.1875 206.765625 108.414062 205.730469 108.605469 C 198.171875 109.976562 190.28125 110.761719 182.621094 111.472656 C 177.71875 111.925781 172.792969 112.199219 167.871094 112.171875 C 163.625 112.152344 159.003906 112.265625 154.863281 111.480469 C 153.058594 111.140625 151.210938 111.15625 149.378906 111.085938 C 145.1875 110.925781 141.023438 110.339844 136.882812 109.660156 C 131.617188 108.796875 126.378906 107.785156 121.136719 106.769531 C 114.75 105.535156 108.355469 104.296875 101.964844 103.0625 C 101.085938 102.894531 100.179688 102.710938 99.449219 102.191406 C 98.039062 101.1875 98.164062 99.621094 98.410156 98.5 C 100.824219 100.867188 105.242188 101.140625 108.371094 101.769531 Z M 105.011719 86.648438 C 108.839844 82.09375 113.011719 77.574219 117.855469 73.941406 C 118.855469 73.195312 120.847656 71.699219 120.847656 71.699219 C 120.847656 71.699219 124.339844 74.566406 125.765625 73.183594 C 127.460938 71.535156 130.496094 68.332031 129.316406 65.824219 C 129.203125 65.582031 128.753906 64.835938 128.753906 64.835938 L 129.949219 63.96875 C 129.949219 63.96875 131.359375 65.492188 132.34375 66.023438 C 133.605469 66.710938 138.238281 63.054688 138.5625 61.847656 C 138.773438 61.074219 138.425781 59.605469 138.425781 59.605469 C 138.425781 59.605469 139.28125 59.207031 139.511719 59.136719 C 139.617188 59.105469 140.046875 58.984375 140.046875 58.984375 C 140.046875 58.984375 140.078125 58.980469 140.335938 59.238281 C 140.804688 59.707031 140.875 60.464844 141.398438 60.910156 C 143.152344 62.398438 145.03125 60.140625 146.523438 59.488281 C 148.179688 58.757812 152.011719 57.363281 151.761719 54.996094 C 151.761719 54.996094 151.863281 54.332031 154.121094 53.777344 C 160.140625 52.300781 166.488281 52.214844 172.652344 51.976562 C 178.863281 51.742188 185.105469 52.410156 191.121094 53.96875 C 196.949219 55.476562 203.515625 58.578125 206.855469 63.804688 C 210.15625 68.964844 210.535156 75.914062 211.320312 81.816406 C 211.722656 84.835938 211.851562 87.859375 212.054688 90.898438 C 212.265625 94.078125 212.136719 97.25 212.226562 100.4375 C 212.253906 101.476562 212.476562 102.757812 211.726562 103.613281 C 210.953125 104.492188 209.519531 104.488281 208.453125 104.597656 C 201.679688 105.289062 194.976562 106.488281 188.210938 107.238281 C 185.945312 107.484375 183.671875 107.6875 181.386719 107.796875 C 177.269531 108.003906 173.15625 108.207031 169.039062 108.238281 C 166.109375 108.257812 163.183594 108.191406 160.257812 108.050781 C 150.167969 107.566406 140.140625 106.175781 130.210938 104.371094 C 125.226562 103.460938 120.261719 102.449219 115.3125 101.390625 C 110.773438 100.421875 105.96875 99.738281 101.601562 98.167969 C 97.015625 96.515625 103.390625 88.574219 105.011719 86.648438 Z M 121.125 69.601562 C 121.203125 68.832031 122.175781 67.742188 122.699219 67.214844 C 123.382812 66.535156 124.230469 66.089844 125.179688 65.914062 C 126.304688 65.710938 128.355469 65.671875 128.207031 67.332031 C 128.113281 68.351562 127.054688 69.324219 126.460938 70.105469 C 126.027344 70.671875 125.304688 72.199219 124.445312 72.011719 C 123.980469 71.910156 123.480469 71.453125 123.074219 71.210938 C 122.601562 70.921875 122.097656 70.65625 121.636719 70.34375 C 121.363281 70.152344 121.085938 69.972656 121.125 69.601562 Z M 134.78125 60.019531 C 135.273438 59.757812 135.726562 59.53125 136.25 59.832031 C 136.675781 60.078125 137.238281 60.824219 137.332031 61.308594 C 137.542969 62.394531 134.992188 63.601562 134.203125 64.105469 C 133.574219 64.503906 133.121094 64.589844 132.53125 64.050781 C 132.097656 63.648438 131.804688 63.121094 131.765625 62.527344 C 131.636719 61.339844 133.964844 60.464844 134.78125 60.019531 Z M 143.160156 56.820312 C 144.175781 56.191406 145.183594 55.554688 146.261719 55.023438 C 147.097656 54.613281 148.03125 54.128906 148.980469 54.46875 C 149.675781 54.722656 150.441406 55.285156 150.234375 56.066406 C 150.019531 56.882812 149.449219 57.085938 148.703125 57.269531 C 147.703125 57.511719 146.703125 57.898438 145.796875 58.382812 C 145.011719 58.804688 144.371094 59.414062 143.589844 59.828125 C 142.71875 60.289062 141.933594 59.613281 141.902344 58.707031 C 141.871094 57.816406 142.460938 57.25 143.160156 56.820312 Z M 205.773438 54.800781 C 206.367188 54.988281 206.96875 55.183594 207.511719 55.488281 C 208.050781 55.796875 208.539062 56.234375 208.796875 56.800781 C 208.902344 57.035156 208.925781 57.257812 208.898438 57.480469 C 208.816406 58.078125 208.359375 58.644531 208.121094 59.207031 C 207.933594 59.640625 207.769531 60.082031 207.625 60.53125 C 207.566406 60.730469 207.171875 61.640625 207.28125 61.808594 C 206.402344 60.417969 205.628906 58.976562 204.21875 58.058594 C 202.886719 57.191406 201.4375 56.519531 200.097656 55.65625 C 201.695312 54.574219 203.972656 54.226562 205.773438 54.800781 Z M 207.71875 52.28125 C 208.238281 52.082031 208.710938 52.167969 209.222656 52.332031 C 210.375 52.699219 211.546875 53.296875 212.335938 54.234375 C 212.035156 54.664062 211.308594 54.957031 210.890625 55.324219 C 210.089844 56.039062 209.152344 55.167969 208.671875 54.558594 C 208.105469 53.824219 207.304688 53.679688 206.484375 53.34375 C 206.40625 53.3125 207.558594 52.347656 207.71875 52.28125 Z M 213.34375 49.957031 C 213.941406 50.089844 215.007812 50.640625 215.183594 51.269531 C 215.398438 52.035156 214.71875 53.082031 213.855469 52.84375 C 213.398438 52.714844 212.980469 52.238281 212.574219 51.996094 C 212.117188 51.722656 211.652344 51.460938 211.195312 51.183594 C 211.6875 50.453125 212.390625 49.746094 213.34375 49.957031 Z M 216.378906 47.996094 C 216.992188 47.59375 217.617188 47.441406 218.046875 48.136719 C 218.355469 48.632812 218.90625 49.441406 218.539062 49.972656 C 218.085938 50.621094 217.007812 50.960938 216.265625 51.019531 C 215.835938 50.507812 215.621094 49.246094 215.601562 48.871094 C 215.578125 48.46875 216.078125 48.191406 216.378906 47.996094 Z M 223.097656 79.027344 C 223.941406 78.957031 224.78125 78.890625 225.621094 78.828125 C 227.703125 78.679688 229.785156 78.546875 231.863281 78.34375 C 233.722656 78.164062 235.792969 77.574219 237.65625 77.867188 C 239.003906 78.082031 238.882812 79.839844 239.015625 80.851562 C 239.222656 82.429688 239.425781 84.011719 239.621094 85.589844 C 239.847656 87.425781 240.066406 89.257812 240.273438 91.09375 C 240.375 91.992188 241.285156 95.214844 240.222656 95.746094 C 239.550781 96.257812 238.363281 96.304688 237.574219 96.46875 C 235.351562 96.929688 233.117188 97.3125 230.867188 97.617188 C 225.988281 98.28125 221.128906 98.355469 216.222656 98.570312 C 215.734375 98.59375 213.882812 98.855469 213.882812 98.855469 C 213.882812 98.855469 213.84375 96.761719 213.828125 96.183594 C 213.800781 95.4375 213.78125 94.691406 213.757812 93.949219 C 213.710938 92.433594 213.636719 90.921875 213.554688 89.410156 C 213.394531 86.574219 213.203125 83.742188 213.003906 80.910156 C 212.996094 80.828125 213 80.53125 213 80.53125 C 213 80.53125 214.53125 80.238281 214.621094 80.214844 C 217.835938 79.378906 219.792969 79.304688 223.097656 79.027344 Z M 269.921875 104.671875 C 269.941406 102.667969 269.816406 100.664062 269.511719 98.683594 C 269.085938 95.910156 268.3125 93.210938 267.402344 90.558594 C 266.585938 88.179688 265.917969 85.199219 264.304688 83.226562 C 262.0625 80.484375 255.652344 80.996094 251.679688 81.359375 C 249.320312 81.574219 246.984375 81.964844 244.652344 82.363281 C 241.292969 82.929688 240.972656 82.992188 240.914062 79.269531 C 240.90625 78.519531 240.730469 76.730469 240.1875 76.234375 C 239.757812 75.835938 239.015625 75.746094 238.238281 75.691406 C 237.179688 75.617188 236.160156 76.03125 235.148438 76.257812 C 233.9375 76.527344 232.714844 76.710938 231.484375 76.847656 C 229.015625 77.128906 226.53125 77.226562 224.058594 77.488281 C 220.308594 77.886719 212.8125 79.113281 212.8125 79.113281 C 212.8125 79.113281 212.394531 77.066406 212.363281 76.855469 C 212.28125 76.359375 212.210938 75.859375 212.132812 75.359375 C 211.972656 74.308594 211.789062 73.265625 211.5625 72.226562 C 211.089844 70.082031 210.515625 67.992188 209.8125 65.914062 C 209.101562 63.816406 208.589844 61.609375 209.664062 59.53125 C 210.140625 58.601562 210.855469 57.820312 211.5625 57.050781 C 211.992188 56.578125 212.433594 56.101562 212.964844 55.738281 C 213.441406 55.410156 213.988281 55.296875 214.484375 55.015625 C 216.457031 53.882812 218.3125 52.472656 220.199219 51.203125 C 221.171875 50.546875 222.140625 49.894531 223.113281 49.238281 C 224.035156 48.621094 224.957031 47.824219 225.945312 47.332031 C 226.550781 46.925781 227.15625 46.515625 227.804688 46.183594 C 230.957031 44.554688 234.054688 43.148438 237.59375 42.566406 C 238.675781 42.382812 239.789062 42.273438 240.871094 42.457031 C 241.46875 42.558594 242.160156 42.730469 242.632812 42.34375 C 242.886719 42.136719 243.007812 41.8125 243.097656 41.496094 C 243.113281 41.4375 243.210938 41.277344 242.914062 41.207031 C 241.859375 40.96875 240.75 40.546875 239.652344 40.679688 C 238.691406 40.792969 237.730469 40.953125 236.777344 41.152344 C 233.136719 41.917969 229.667969 43.308594 226.46875 45.203125 C 225.488281 45.78125 224.539062 46.40625 223.617188 47.074219 C 222.777344 47.683594 221.949219 48.453125 220.890625 48.621094 C 220.480469 48.691406 220.480469 48.539062 220.234375 48.222656 C 220.054688 47.996094 219.878906 47.769531 219.699219 47.542969 C 219.433594 47.214844 219.023438 46.816406 219.140625 46.351562 C 219.261719 45.871094 219.929688 45.582031 220.308594 45.351562 C 220.863281 45.019531 221.425781 44.695312 221.972656 44.351562 C 223.441406 43.425781 224.800781 42.359375 226.324219 41.515625 C 227.816406 40.691406 229.371094 39.996094 230.945312 39.347656 C 232.953125 38.527344 235.015625 37.78125 237.167969 37.445312 C 239.230469 37.121094 241.191406 37.519531 243.25 37.464844 C 243.785156 37.453125 244.691406 37.53125 245.167969 37.285156 C 245.636719 37.042969 245.570312 36.425781 245.230469 36.0625 C 244.859375 35.671875 244.160156 35.753906 243.667969 35.742188 C 242.464844 35.71875 241.261719 35.714844 240.058594 35.714844 C 238.851562 35.714844 237.648438 35.648438 236.460938 35.917969 C 235.304688 36.179688 234.160156 36.59375 233.035156 36.96875 C 230.886719 37.691406 228.769531 38.523438 226.757812 39.578125 C 225.386719 40.300781 224.070312 41.121094 222.773438 41.96875 C 219.425781 44.144531 216.121094 46.425781 212.605469 48.320312 C 210.796875 49.292969 208.871094 49.933594 207.113281 51.019531 C 206.019531 51.695312 204.925781 52.578125 203.691406 52.964844 C 201.664062 53.597656 199.128906 54.375 197 54.007812 C 194.8125 53.632812 192.851562 52.472656 190.664062 52.070312 C 187.800781 51.546875 184.914062 51.152344 182.046875 50.640625 C 179.203125 50.128906 176.355469 50.371094 173.488281 50.214844 C 170.65625 50.058594 162.226562 50.640625 160.808594 50.84375 C 159.332031 51.054688 157.921875 51.460938 156.460938 51.75 C 154.933594 52.050781 150.882812 53.195312 150.332031 53.199219 C 149.816406 53.207031 149.296875 52.980469 148.769531 52.960938 C 146.40625 52.882812 143.894531 54.007812 141.953125 55.265625 C 141.574219 55.511719 141.203125 55.777344 140.917969 56.125 C 140.613281 56.496094 140.046875 57.609375 140.046875 57.609375 C 140.046875 57.609375 139.351562 57.882812 138.929688 58.0625 C 138.53125 58.230469 137.785156 58.691406 137.367188 58.671875 C 136.753906 58.644531 136.347656 58.054688 135.664062 58.082031 C 134.59375 58.121094 133.707031 58.867188 132.875 59.457031 C 131.976562 60.09375 131.078125 60.816406 130.125 61.308594 C 129.328125 61.726562 129.335938 62.433594 129.199219 62.597656 C 128.820312 63.070312 126.335938 64.34375 126.335938 64.34375 C 126.335938 64.34375 123.28125 64.9375 122.183594 65.820312 C 121.144531 66.65625 120.226562 68.152344 119.53125 69.292969 C 119.210938 69.824219 119.476562 70.824219 119.476562 70.824219 C 118.34375 71.675781 113.992188 75.4375 112.996094 76.433594 C 110.789062 78.640625 108.300781 80.789062 106.140625 83.03125 C 104.140625 85.101562 102.382812 87.222656 100.789062 89.621094 C 99.257812 91.933594 98.910156 92.640625 98.910156 92.640625 C 83.359375 95.152344 68.03125 98.113281 52.730469 101.917969 C 47.921875 103.113281 43.078125 104.359375 38.617188 106.519531 C 35.019531 108.257812 31.472656 110.890625 30.402344 114.742188 C 29.714844 117.222656 30.167969 119.929688 31.3125 122.234375 C 32.699219 125.035156 35.300781 127.773438 37.601562 129.84375 C 40.535156 132.484375 44.257812 133.699219 48.09375 134.648438 C 52.140625 135.648438 55.566406 136.582031 59.6875 137.195312 C 63.429688 137.753906 67.167969 138.308594 70.90625 138.867188 C 73.03125 139.183594 79.753906 140.816406 79.753906 140.816406 C 79.753906 140.816406 82.4375 143.625 84.347656 146.203125 C 86.792969 149.507812 90.0625 152.417969 92.832031 155.464844 C 96.417969 159.402344 99.789062 163.480469 103.304688 167.476562 C 105.160156 169.585938 106.988281 171.722656 108.757812 173.90625 C 110.332031 175.847656 114.179688 179.480469 114.179688 179.480469 C 114.179688 179.480469 113.988281 182.972656 113.929688 184.011719 C 113.195312 197.425781 112.914062 210.875 111.824219 224.289062 C 111.515625 228.097656 111.171875 231.902344 110.972656 235.71875 C 110.867188 237.675781 110.796875 239.632812 110.789062 241.59375 C 110.785156 242.679688 110.679688 245.039062 110.9375 245.691406 C 111.035156 245.929688 111.84375 246.101562 112.078125 246.25 C 113.703125 247.265625 115.097656 247.789062 116.996094 248.195312 C 118.878906 248.597656 120.742188 249.105469 122.636719 249.476562 C 124.550781 249.855469 127.925781 249.910156 129.84375 250.226562 C 129.269531 251.164062 127.753906 252.582031 127.234375 253.414062 C 126.792969 254.117188 125.414062 255.730469 125.414062 255.730469 C 125.414062 255.730469 124.230469 255.492188 123.28125 256.449219 C 122.644531 257.082031 121.972656 257.855469 121.511719 258.628906 C 119.449219 262.085938 123.878906 265.257812 127.019531 264.886719 C 127.753906 264.800781 128.550781 264.613281 129.074219 264.046875 C 129.75 263.3125 130.1875 262.289062 130.789062 261.484375 C 132.585938 259.070312 134.320312 256.609375 136.226562 254.28125 C 136.886719 253.472656 137.480469 252.621094 138.109375 251.785156 C 138.277344 251.558594 139.039062 250.183594 139.316406 250.152344 C 139.886719 250.242188 140.527344 250.363281 141.097656 250.285156 C 141.859375 250.183594 142.660156 250.15625 143.398438 249.933594 C 144.019531 249.746094 146.21875 249.066406 146.480469 248.621094 C 146.65625 248.316406 146.675781 247.511719 146.710938 247.171875 C 146.789062 246.402344 146.796875 245.609375 146.730469 244.839844 C 146.65625 244.03125 146.652344 241.410156 146.648438 241.386719 C 146.648438 241.15625 147.273438 240.621094 147.414062 240.464844 C 147.886719 239.945312 148.253906 239.382812 148.648438 238.785156 C 149.515625 237.480469 150.40625 236.191406 151.320312 234.917969 C 152.566406 233.179688 153.855469 231.472656 155.183594 229.800781 C 156.285156 228.414062 157.398438 226.523438 158.796875 225.433594 L 159.742188 224.269531 C 159.742188 224.269531 162.535156 227.179688 163.179688 227.886719 C 167.753906 232.898438 171.554688 237.476562 175.835938 241.941406 C 178.476562 244.695312 181.132812 247.433594 183.742188 250.214844 C 185.070312 251.628906 186.445312 252.613281 187.742188 254.058594 C 188.386719 254.777344 188.933594 255.582031 189.585938 256.296875 C 190.089844 256.851562 191.023438 257.570312 191.480469 257.910156 C 191.644531 258.03125 191.746094 258.214844 191.757812 258.421875 C 191.785156 258.84375 191.875 259.597656 192.183594 260.070312 C 193.058594 261.402344 194.886719 262.738281 196.4375 262.796875 C 198.253906 262.867188 199.792969 261.714844 200.582031 260.148438 C 201.136719 259.035156 201.789062 257.949219 201.023438 256.582031 C 199.074219 253.085938 196.46875 252.714844 196.46875 252.714844 C 196.46875 252.714844 192.113281 247.519531 189.03125 244.785156 C 185.398438 241.558594 182.578125 237.535156 178.9375 234.316406 C 178.09375 233.570312 177.351562 232.648438 176.535156 231.875 C 175.984375 231.355469 175.464844 230.808594 174.949219 230.257812 C 173.21875 228.417969 171.734375 226.585938 170.003906 224.75 C 168.082031 222.714844 164.097656 218.039062 164.097656 218.039062 C 164.097656 218.039062 166.441406 214.910156 167.121094 214.050781 C 176.804688 201.847656 186.636719 189.765625 196.613281 177.800781 C 201.535156 171.894531 206.417969 165.734375 211.410156 159.890625 C 215.933594 154.59375 220.925781 149.585938 224.414062 143.578125 C 225.402344 141.863281 228.21875 138.277344 228.21875 138.277344 C 228.21875 138.277344 229.523438 138.234375 230.515625 138.171875 C 232.753906 138.027344 235.054688 138.089844 237.269531 137.710938 C 241.300781 137.023438 245.363281 136.503906 249.4375 136.15625 C 253.015625 135.847656 257.96875 135.683594 259.855469 134.238281 C 262.699219 132.058594 264.585938 129.027344 265.679688 125.664062 C 266.984375 121.652344 268.195312 117.597656 268.988281 113.449219 C 269.539062 110.558594 269.886719 107.609375 269.921875 104.671875 " fill-opacity="1" fill-rule="nonzero"/></g><path fill="currentColor" d="M 180.136719 87.066406 C 181.039062 86.601562 180.90625 85.558594 180.835938 84.652344 C 180.734375 83.390625 180.109375 83.539062 179.175781 84.128906 C 180.402344 84.972656 180.0625 85.828125 180.136719 87.066406 Z M 173.4375 86.886719 C 173.351562 87.3125 172.953125 88.640625 173.363281 88.964844 C 173.839844 89.339844 175.425781 88.648438 175.953125 88.554688 C 176.257812 87.730469 175.710938 86.5 175.710938 86.5 C 175.710938 86.5 173.953125 86.511719 173.4375 86.886719 Z M 161.304688 88.285156 C 161.269531 87.609375 161.292969 86.570312 161.003906 86.285156 C 160.460938 85.738281 159.105469 85.839844 158.332031 85.066406 C 158.167969 85.695312 158.242188 86.929688 158.699219 87.644531 C 159.257812 88.527344 160.792969 88.578125 161.304688 88.285156 Z M 178.972656 84.625 C 178.40625 84.863281 177.570312 85.265625 177.152344 85.757812 C 176.898438 86.058594 176.9375 86.4375 176.980469 86.800781 C 177.003906 87.007812 177.046875 88.054688 177.195312 88.15625 C 177.320312 88.242188 178.109375 88.03125 178.269531 87.984375 C 178.617188 87.871094 179.320312 87.675781 179.46875 87.320312 C 179.753906 86.632812 179.3125 85.375 178.972656 84.625 Z M 166.191406 88.992188 C 166.191406 88.722656 166.308594 87.558594 166.144531 87.332031 C 165.953125 87.066406 165.277344 87.082031 165.03125 87.066406 C 164.324219 87.011719 163.355469 86.230469 162.660156 86.574219 C 162.230469 86.78125 162.363281 87.398438 162.421875 87.855469 C 162.484375 88.367188 162.527344 88.617188 163 88.804688 C 163.855469 89.148438 165.324219 89.4375 166.191406 88.992188 Z M 167.515625 87.296875 C 167.515625 87.296875 167.171875 88.65625 167.496094 89.074219 C 168.015625 89.738281 170.15625 89.433594 170.851562 89.359375 C 171.65625 89.277344 171.601562 88.925781 171.792969 88.15625 C 171.972656 87.417969 172.128906 87.125 171.902344 87.066406 C 171.515625 86.96875 170.394531 86.960938 170 86.941406 C 168.21875 86.835938 167.515625 87.296875 167.515625 87.296875 Z M 190.214844 80.671875 C 190.214844 80.671875 190.320312 78.625 189.640625 76.476562 C 188.84375 73.960938 188 72.15625 185.960938 70.117188 C 184.636719 68.796875 182.980469 68.359375 181.214844 67.902344 C 179.304688 67.410156 177.355469 67.054688 175.394531 66.832031 C 169.007812 66.121094 162.890625 66.96875 156.90625 69.261719 C 153.550781 70.546875 150.363281 72.21875 147.164062 73.847656 C 144.15625 75.382812 141.28125 77.308594 138.863281 79.730469 C 137.390625 81.199219 136.71875 83.027344 136.71875 83.027344 C 136.71875 83.027344 141.675781 82.839844 143.835938 82.765625 C 147.304688 82.765625 150.785156 82.523438 154.242188 82.296875 C 154.988281 82.246094 156.75 81.835938 156.75 81.835938 C 156.75 81.835938 157.074219 80.707031 157.570312 80.164062 C 159.171875 78.410156 162.382812 77.816406 164.601562 77.433594 C 167.28125 76.964844 170.011719 77.042969 172.730469 77.132812 C 174.683594 77.195312 176.691406 77.429688 178.511719 78.179688 C 179.28125 78.496094 180.421875 78.972656 180.914062 79.667969 C 181.332031 80.253906 181.804688 81.296875 181.804688 81.296875 C 181.804688 81.296875 184.261719 81.273438 185.320312 81.179688 C 186.472656 81.082031 187.65625 81.253906 188.78125 80.933594 C 189.027344 80.859375 190.214844 80.671875 190.214844 80.671875 Z M 160.136719 93.792969 C 164.789062 93.742188 169.429688 93.53125 174.132812 93.0625 C 176.996094 92.773438 179.871094 92.472656 182.683594 91.851562 C 184.984375 91.347656 188.195312 90.199219 189.382812 87.867188 C 189.527344 87.585938 189.597656 87.269531 189.660156 86.953125 C 189.71875 86.65625 190.136719 82.507812 189.886719 82.546875 C 188.078125 82.832031 186.242188 82.808594 184.410156 82.886719 C 183.144531 82.941406 182.347656 82.929688 182.347656 82.929688 C 182.347656 82.929688 182.542969 87.269531 181.328125 88.046875 C 180.035156 88.875 178.335938 89.339844 176.851562 89.691406 C 175.609375 89.984375 174.34375 90.179688 173.074219 90.332031 C 170.667969 90.617188 168.238281 90.738281 165.820312 90.617188 C 163.460938 90.496094 160.921875 90.230469 158.683594 89.425781 C 158.539062 89.375 158.394531 89.308594 158.25 89.25 C 157.164062 88.816406 156.933594 87.863281 156.769531 86.835938 C 156.640625 86.035156 156.390625 83.617188 156.390625 83.617188 C 156.390625 83.617188 154.941406 83.644531 154.5 83.664062 C 153.597656 83.695312 152.703125 83.742188 151.804688 83.796875 C 148.371094 84.011719 144.929688 84.128906 141.496094 84.382812 C 140.625 84.449219 136.058594 84.589844 136.058594 84.589844 C 136.058594 84.589844 134.394531 87.050781 135.566406 89.246094 C 135.851562 89.78125 136.355469 90.574219 136.871094 90.882812 C 137.855469 91.476562 138.917969 91.9375 140.011719 92.285156 C 143.269531 93.304688 146.707031 93.582031 150.085938 93.679688 C 153.460938 93.777344 156.804688 93.828125 160.136719 93.792969 Z M 164.753906 78.941406 C 164.082031 79.046875 163.421875 79.175781 162.761719 79.332031 C 161.820312 79.5625 160.917969 79.882812 159.976562 80.113281 C 159.480469 80.234375 158.960938 80.449219 158.683594 80.882812 C 158.070312 81.847656 158.527344 83.375 159.433594 83.980469 C 161.019531 85.042969 163.234375 85.4375 165.097656 85.648438 C 167.230469 85.890625 169.386719 85.800781 171.523438 85.652344 C 173.105469 85.542969 174.726562 85.390625 176.21875 84.820312 C 176.941406 84.542969 177.574219 84.140625 178.210938 83.710938 C 178.820312 83.296875 179.617188 82.757812 179.757812 81.972656 C 179.824219 81.585938 179.691406 81.175781 179.457031 80.855469 C 179.226562 80.535156 178.902344 80.292969 178.566406 80.082031 C 177.0625 79.144531 175.429688 79.097656 173.722656 78.9375 C 171.796875 78.761719 169.863281 78.570312 167.929688 78.636719 C 166.863281 78.671875 165.804688 78.773438 164.753906 78.941406 Z M 191.65625 83.535156 C 191.558594 84.875 191.371094 86.210938 191.128906 87.507812 C 190.28125 92.066406 185.875 92.28125 182.074219 93.136719 C 178.980469 93.835938 175.839844 94.339844 172.6875 94.683594 C 166.34375 95.378906 159.945312 95.445312 153.578125 95.132812 C 151.824219 95.046875 150.070312 94.933594 148.320312 94.792969 C 144.238281 94.464844 140.3125 93.984375 136.402344 92.714844 C 134.015625 91.945312 132.925781 89 133.449219 86.609375 C 134.269531 82.84375 137.316406 79.285156 140.128906 76.789062 C 143.1875 74.070312 146.785156 72.007812 150.496094 70.316406 C 156.050781 67.777344 161.996094 65.992188 168.082031 65.359375 C 171.125 65.046875 174.203125 65.027344 177.246094 65.363281 C 180.039062 65.675781 183.039062 66.03125 185.371094 67.703125 C 186.683594 68.644531 187.796875 69.839844 188.75 71.140625 C 191.394531 74.738281 191.984375 79.175781 191.65625 83.535156 " fill-opacity="1" fill-rule="nonzero"/><path fill="currentColor" d="M 215.300781 136.429688 C 215.035156 135.957031 215.300781 135.09375 215.636719 134.636719 C 216.28125 133.769531 217.539062 134.628906 217.539062 135.757812 C 217.539062 136.628906 216.015625 137.699219 215.300781 136.429688 Z M 218.246094 134.9375 C 218.167969 134.640625 218.066406 134.355469 217.933594 134.105469 C 217.742188 133.738281 217.429688 133.523438 217.074219 133.324219 C 216.121094 132.789062 215.183594 133.246094 214.578125 133.953125 C 213.976562 134.660156 213.667969 135.589844 213.90625 136.503906 C 214.007812 136.890625 214.207031 137.28125 214.4375 137.601562 C 214.640625 137.875 214.910156 138.109375 215.230469 138.214844 C 215.882812 138.417969 216.59375 138.085938 217.164062 137.792969 C 217.589844 137.578125 217.992188 137.277344 218.210938 136.84375 C 218.398438 136.46875 218.433594 136.03125 218.378906 135.617188 C 218.351562 135.398438 218.304688 135.167969 218.246094 134.9375 " fill-opacity="1" fill-rule="nonzero"/><path fill="currentColor" d="M 202.136719 119.109375 C 202.261719 119.402344 202.515625 119.664062 202.851562 119.738281 C 203.265625 119.832031 203.554688 119.558594 203.652344 119.160156 C 203.789062 118.617188 203.300781 118.070312 202.75 118.074219 C 202.074219 118.078125 201.9375 118.636719 202.136719 119.109375 Z M 204.246094 117.566406 C 205.109375 118.394531 205.078125 120.183594 203.859375 120.613281 C 202.023438 121.261719 199.144531 119.421875 200.496094 117.453125 C 201.5 115.992188 203.683594 117.023438 204.246094 117.566406 " fill-opacity="1" fill-rule="nonzero"/><path fill="currentColor" d="M 220.105469 93.976562 C 219.902344 93.675781 219.328125 93.691406 219.011719 93.765625 C 218.703125 93.835938 218.234375 94.082031 218.171875 94.429688 C 218.132812 94.636719 218.269531 94.832031 218.433594 94.957031 C 218.699219 95.160156 219.0625 95.234375 219.386719 95.152344 C 219.765625 95.050781 220.164062 94.675781 220.179688 94.261719 C 220.183594 94.144531 220.160156 94.050781 220.105469 93.976562 Z M 218.121094 92.777344 C 219.132812 92.496094 220.367188 91.976562 221.109375 92.964844 C 221.671875 93.71875 221.609375 94.769531 221.074219 95.519531 C 220.617188 96.160156 219.949219 96.25 219.203125 96.230469 C 218.820312 96.222656 218.433594 96.210938 218.0625 96.117188 C 217.445312 95.957031 217.023438 95.515625 216.695312 94.984375 C 216.347656 94.425781 216.242188 93.6875 216.828125 93.25 C 217.132812 93.019531 217.519531 92.925781 217.890625 92.835938 C 217.964844 92.816406 218.042969 92.796875 218.121094 92.777344 " fill-opacity="1" fill-rule="nonzero"/><path fill="currentColor" d="M 129.511719 245.289062 C 129.175781 244.691406 127.628906 244.25 128.136719 246.242188 C 128.902344 246.105469 129.71875 245.671875 129.511719 245.289062 Z M 130.941406 245.226562 C 130.90625 246.496094 129.875 246.644531 128.875 246.992188 C 127.925781 247.316406 126.511719 247.023438 126.417969 245.753906 C 126.375 245.140625 126.957031 244.78125 127.363281 244.425781 C 127.773438 244.066406 128.136719 243.414062 128.6875 243.269531 C 129.796875 242.984375 130.964844 244.164062 130.941406 245.226562 " fill-opacity="1" fill-rule="nonzero"/></svg>