<svg xmlns="http://www.w3.org/2000/svg" xmlns:xlink="http://www.w3.org/1999/xlink" width="400" zoomAndPan="magnify" viewBox="0 0 300 299.999988" height="400" preserveAspectRatio="xMidYMid meet" version="1.0"><defs><clipPath id="e38304cf26"><path d="M 29.828125 30 L 145.117188 30 L 145.117188 269.738281 L 29.828125 269.738281 Z M 29.828125 30 " clip-rule="nonzero"/></clipPath><clipPath id="f912dd688d"><path d="M 143 149.371094 L 269.425781 149.371094 L 269.425781 266 L 143 266 Z M 143 149.371094 " clip-rule="nonzero"/></clipPath></defs><g clip-path="url(#e38304cf26)"><path fill="#a9a0f0" d="M 91.714844 71.328125 C 89.082031 71.414062 87.0625 68.59375 84.578125 68.375 C 82.5 68.195312 79.773438 69.511719 77.195312 70.34375 C 72.789062 71.773438 68.183594 72.453125 65.140625 70.34375 C 64.609375 69.976562 64.308594 68.582031 63.417969 69.113281 C 65.230469 81 57.351562 86.089844 51.363281 92.980469 C 49.277344 95.382812 47.015625 98.074219 44.71875 100.609375 C 42.402344 103.167969 39.71875 106 38.324219 108.480469 C 33.128906 117.699219 33.003906 132.320312 32.417969 145.636719 C 31.207031 173.128906 34.582031 210.644531 36.109375 238.882812 C 32.148438 240.1875 33.128906 242.273438 35.125 244.542969 C 36.0625 245.613281 36.421875 245.992188 36.601562 247.003906 C 35.390625 247.808594 34.300781 247.769531 33.894531 248.972656 C 31.839844 255.027344 43.675781 258.871094 45.457031 260.78125 C 58.714844 264.726562 77.152344 267.285156 96.386719 266.441406 C 110.394531 265.828125 122.851562 265.71875 133.296875 261.027344 C 136.300781 259.679688 141.144531 257.203125 140.921875 254.140625 C 140.816406 252.652344 139.566406 252.65625 139.199219 251.433594 C 141.039062 248.757812 144.203125 247.042969 142.644531 242.820312 C 141.84375 240.65625 139.183594 240.515625 138.707031 238.882812 C 138.144531 236.949219 139.394531 234.261719 139.445312 232.488281 C 139.667969 225.070312 138.421875 217.640625 138.460938 210.34375 C 138.625 180.152344 141.769531 152.105469 138.460938 125.707031 C 136.75 112.050781 129.695312 103.515625 122.222656 95.6875 C 114.84375 87.953125 104.074219 82.257812 106.476562 67.636719 C 100.542969 60.644531 96.378906 71.179688 91.714844 71.328125 Z M 107.460938 42.542969 C 106.867188 42.503906 106.207031 43.121094 105.492188 43.035156 C 104.472656 42.914062 103.296875 42.054688 102.292969 42.050781 C 101.328125 42.042969 100.398438 42.707031 99.585938 42.789062 C 97.023438 43.039062 95.835938 41.636719 94.175781 41.066406 C 92.699219 44.117188 87.21875 44.464844 85.070312 41.804688 C 81.765625 43.824219 77.859375 44.027344 75.230469 41.3125 C 73.449219 43.859375 68.390625 43.671875 66.617188 41.3125 C 64.816406 42.296875 63.21875 43.492188 62.679688 45.742188 C 56.511719 44.671875 60.214844 50.964844 63.171875 51.644531 C 63.074219 55.085938 63.535156 60.753906 63.417969 64.6875 C 64.699219 65.246094 64.636719 67.363281 65.878906 68.375 C 70.5625 72.195312 78.269531 66.746094 83.347656 66.160156 C 87.445312 65.691406 88.777344 69.101562 91.46875 69.113281 C 95.417969 69.132812 97.328125 62.722656 102.046875 62.964844 C 103.574219 63.042969 104.761719 64.203125 106.230469 64.441406 C 106.402344 58.894531 106.085938 55.230469 105.738281 50.414062 C 109.058594 49.785156 112.996094 42.902344 107.460938 42.542969 Z M 85.316406 33.683594 C 77.414062 33.945312 69.929688 35.46875 62.1875 36.636719 C 61.585938 37.988281 61.226562 39.929688 62.1875 41.066406 C 64.71875 40.972656 65.347656 38.976562 67.355469 38.359375 C 67.824219 39.53125 68.945312 40.050781 69.816406 40.820312 C 73.164062 41.378906 73.761719 39.1875 75.71875 38.359375 C 77.214844 39.3125 77.714844 40.859375 79.660156 41.066406 C 81.929688 41.308594 83.554688 38.996094 85.070312 39.097656 C 86.839844 39.214844 87.550781 41.507812 89.992188 41.3125 C 92.320312 41.125 92.800781 38.765625 94.910156 38.113281 C 96.046875 40.460938 100.472656 41 102.539062 39.097656 C 104.320312 41.804688 107.820312 39.675781 108.691406 38.359375 C 108.613281 37.042969 108.140625 36.121094 107.460938 35.40625 C 99.890625 34.523438 92.585938 33.445312 85.316406 33.683594 Z M 110.90625 41.066406 C 111.804688 42.515625 113.179688 44.117188 112.628906 47.214844 C 112.226562 49.453125 109.121094 50.429688 108.445312 52.628906 C 108.046875 53.925781 108.628906 56.351562 108.691406 57.796875 C 109.015625 65.457031 108.210938 74.101562 110.660156 79.203125 C 113.09375 84.277344 118.109375 87.636719 121.730469 91.257812 C 130.65625 100.183594 139.132812 110.054688 140.921875 125.953125 C 144.574219 158.351562 139.972656 193.835938 141.414062 226.089844 C 141.503906 228.046875 141.550781 230.042969 141.660156 231.996094 C 141.773438 233.96875 141.363281 236.378906 141.660156 237.65625 C 142.039062 239.273438 144.21875 239.84375 144.859375 242.082031 C 145.992188 246.054688 144.898438 248.699219 142.644531 251.925781 C 143.113281 253.015625 143.226562 254.460938 143.136719 256.109375 C 138.390625 265.199219 125.421875 268.078125 111.398438 269.148438 C 95.828125 270.335938 78.398438 269.632812 63.910156 267.917969 C 53.921875 266.734375 45.28125 265.0625 38.324219 260.042969 C 34.152344 257.035156 29.320312 253.941406 31.1875 248.234375 C 31.320312 247.828125 32.421875 246.421875 32.417969 246.265625 C 32.40625 245.628906 30.933594 244.734375 30.695312 244.050781 C 29.519531 240.691406 31.199219 237.804688 33.402344 236.425781 C 31.796875 202.328125 28.765625 168.945312 30.203125 136.285156 C 30.382812 132.175781 30.910156 127.710938 31.679688 123.738281 C 33 116.921875 34.242188 110.453125 37.339844 105.28125 C 42.839844 96.085938 53.1875 89.226562 58.496094 80.679688 C 61.066406 76.546875 60.773438 71.519531 60.710938 65.179688 C 60.675781 61.1875 61.140625 56.65625 60.464844 54.105469 C 59.886719 51.914062 56.269531 50.316406 56.039062 47.953125 C 55.875 46.308594 56.832031 44.707031 58.25 43.527344 C 56.4375 40.167969 58.1875 34.289062 61.695312 33.191406 C 62.484375 32.945312 63.652344 33.292969 64.894531 33.191406 C 68.0625 32.9375 71.277344 31.648438 74.738281 30.976562 C 81.597656 29.648438 89.488281 29.785156 97.371094 30.734375 C 105.984375 31.765625 112.636719 32.476562 110.90625 41.066406 " fill-opacity="1" fill-rule="evenodd"/></g><path fill="#a9a0f0" d="M 52.839844 125.949219 C 50.890625 130.070312 49.808594 135.058594 44.71875 136.039062 C 43.464844 144.375 45.195312 153.613281 45.703125 163.101562 C 46.539062 178.726562 46.441406 193.375 46.441406 208.867188 C 46.441406 213.636719 45.710938 222.652344 46.933594 226.335938 C 47.6875 228.601562 52.179688 231.039062 50.871094 235.6875 C 59.558594 240.511719 72.507812 242.226562 85.808594 243.066406 C 99.210938 243.914062 113.539062 243.421875 123.945312 240.113281 C 124.511719 237.859375 124.03125 236.339844 125.175781 234.457031 C 126.269531 232.652344 128.851562 232.457031 129.605469 230.765625 C 130.726562 228.242188 130.285156 223.339844 130.097656 219.691406 C 128.742188 193.316406 129.316406 163.722656 129.113281 135.546875 C 125.074219 134.710938 121.308594 133.855469 119.023438 131.363281 C 117.484375 129.679688 117.449219 127.238281 115.582031 125.707031 C 93.90625 126.324219 74.453125 125.574219 52.839844 125.949219 Z M 117.058594 123.488281 C 118.492188 125.511719 118.464844 127.925781 120.007812 129.640625 C 122.386719 132.289062 126.320312 132.976562 130.589844 133.824219 C 131.054688 159.613281 130.164062 188.816406 131.328125 217.480469 C 131.484375 221.3125 132.429688 230.273438 130.589844 232.980469 C 129.785156 234.160156 127.675781 234.132812 126.652344 235.6875 C 125.480469 237.472656 126.121094 238.726562 125.667969 240.851562 C 121.289062 244.867188 113.957031 245.136719 107.214844 245.527344 C 88.316406 246.621094 63.714844 245.554688 49.394531 237.65625 C 50.136719 232.480469 47.777344 230.414062 45.457031 228.304688 C 44.332031 205.164062 45.65625 181.554688 43.980469 161.132812 C 43.261719 152.34375 42.445312 143.53125 42.996094 134.808594 C 45.285156 133.527344 47.457031 133.585938 48.902344 131.609375 C 50.558594 129.351562 49.671875 125.839844 51.855469 123.738281 C 74.136719 123.4375 97.453125 124.050781 117.058594 123.488281 " fill-opacity="1" fill-rule="evenodd"/><path fill="#a9a0f0" d="M 110.414062 139.976562 C 110.660156 139.976562 110.90625 139.976562 111.152344 139.976562 C 111.183594 141.089844 111.753906 141.671875 111.890625 142.679688 C 111.507812 143.085938 110.929688 142.597656 110.414062 142.4375 C 110.414062 141.617188 110.414062 140.796875 110.414062 139.976562 " fill-opacity="1" fill-rule="evenodd"/><path fill="#a9a0f0" d="M 106.722656 141.453125 C 108.28125 141.453125 109.074219 142.214844 109.183594 143.664062 C 108.605469 143.660156 108.457031 144.089844 107.707031 143.910156 C 107.742188 142.730469 106.304688 143.019531 106.722656 141.453125 " fill-opacity="1" fill-rule="evenodd"/><path fill="#a9a0f0" d="M 55.300781 142.679688 C 55.214844 143.175781 55.351562 143.453125 55.792969 143.417969 C 55.132812 144.648438 54.796875 146.199219 52.839844 146.125 C 52.878906 145.839844 52.785156 145.6875 52.59375 145.636719 C 53.324219 144.476562 54.023438 143.289062 55.300781 142.679688 " fill-opacity="1" fill-rule="evenodd"/><path fill="#a9a0f0" d="M 55.546875 147.847656 C 55.261719 147.558594 55.265625 146.976562 55.300781 146.375 C 57.699219 144.414062 58.546875 147.820312 55.546875 147.847656 " fill-opacity="1" fill-rule="evenodd"/><path fill="#a9a0f0" d="M 99.832031 172.453125 C 99.429688 178.808594 99.929688 184.109375 100.078125 190.414062 C 101.058594 190.828125 102.675781 190.605469 104.015625 190.660156 C 104.628906 188.402344 103.585938 184.488281 105.246094 183.277344 C 107.996094 185.285156 109.257812 188.78125 112.136719 190.660156 C 113.65625 189.800781 115.15625 188.925781 116.316406 187.707031 C 115.144531 184.617188 112.160156 183.335938 110.167969 181.066406 C 111.554688 178.515625 113.753906 176.777344 114.84375 173.929688 C 113.976562 173.402344 113.46875 172.515625 112.382812 172.207031 C 109.96875 173.648438 108.722656 176.257812 106.476562 177.867188 C 104.351562 177.203125 106.078125 172.6875 104.753906 171.222656 C 103.078125 171.597656 101.550781 172.121094 99.832031 172.453125 Z M 106.96875 169.253906 C 107.433594 170.511719 107.128906 172.539062 107.214844 174.175781 C 108.964844 173.777344 110.210938 169.675781 112.628906 169.746094 C 113.625 169.773438 116.722656 172.640625 116.8125 173.929688 C 116.992188 176.5625 113.613281 178.609375 113.121094 180.574219 C 114.9375 183.195312 118.898438 185.410156 118.039062 189.183594 C 115.703125 190.539062 114.082031 192.605469 111.152344 193.367188 C 109.457031 191.53125 108.425781 189.039062 106.230469 187.707031 C 105.878906 189.488281 105.804688 191.546875 105.246094 193.121094 C 103.507812 192.710938 99.753906 193.433594 97.867188 192.136719 C 98.453125 185.761719 97.042969 179.378906 97.867188 171.46875 C 99.976562 170.535156 103.121094 168.328125 106.96875 169.253906 " fill-opacity="1" fill-rule="evenodd"/><path fill="#a9a0f0" d="M 85.070312 172.453125 C 85.230469 178.070312 85.660156 182.671875 85.808594 188.9375 C 88.492188 189.570312 92.734375 190.171875 94.421875 189.675781 C 94.773438 188.289062 94.691406 185.984375 94.421875 184.507812 C 93.011719 184.035156 91.351562 183.804688 89.992188 183.277344 C 90.53125 179.792969 90.140625 175.261719 89.746094 172.453125 C 88.6875 172.054688 86.128906 172.054688 85.070312 172.453125 Z M 91.960938 181.800781 C 93.128906 182.355469 94.492188 182.714844 95.898438 183.03125 C 96.097656 185.417969 95.976562 189.25 95.652344 191.890625 C 91.742188 192.40625 87.875 191.855469 84.332031 190.90625 C 83.96875 186.210938 83.757812 178.585938 83.101562 171.46875 C 84.890625 169.847656 89.261719 169.394531 90.976562 170.730469 C 93.460938 172.664062 91.167969 178.996094 91.960938 181.800781 " fill-opacity="1" fill-rule="evenodd"/><path fill="#a9a0f0" d="M 56.039062 172.945312 C 55.875 172.945312 55.710938 172.945312 55.546875 172.945312 C 53.839844 177.554688 52.746094 182.777344 52.347656 188.691406 C 53.332031 188.691406 53.824219 189.183594 54.808594 189.183594 C 56.164062 187.671875 55.136719 183.773438 57.515625 183.277344 C 59.066406 184.1875 58.160156 187.550781 61.207031 186.96875 C 62.191406 186.480469 61.113281 183.925781 62.433594 183.769531 C 65.773438 184.039062 65.375 188.050781 67.355469 189.675781 C 68.675781 189.519531 70.113281 189.480469 71.292969 189.183594 C 70.855469 183.957031 68.054688 178.976562 67.109375 173.4375 C 66.421875 173.304688 65.832031 173.078125 65.140625 172.945312 C 63.199219 174.609375 62.625 177.644531 59.726562 178.359375 C 58.203125 176.847656 57.917969 174.101562 56.039062 172.945312 Z M 57.761719 170.976562 C 58.574219 172.542969 59.414062 174.082031 60.21875 175.652344 C 61.886719 174.609375 63.015625 173.035156 63.664062 170.976562 C 65.449219 170.832031 66.519531 171.402344 68.09375 171.46875 C 69.253906 175.488281 70.417969 180.796875 72.03125 185.246094 C 72.601562 186.816406 73.742188 188.132812 73.015625 190.660156 C 70.820312 191.027344 67.773438 192.539062 65.632812 191.398438 C 65.226562 189.507812 64.453125 187.988281 63.664062 186.476562 C 62.878906 186.835938 62.871094 187.980469 62.679688 188.9375 C 60.769531 188.382812 60.410156 189.441406 58.746094 189.675781 C 58.445312 188.414062 57.976562 187.328125 57.265625 186.476562 C 56.457031 187.800781 56.609375 190.082031 55.546875 191.152344 C 54.023438 190.707031 51.859375 190.902344 50.378906 190.414062 C 50.644531 184.570312 52.683594 176.570312 54.808594 170.976562 C 56.289062 171.015625 56.53125 170.769531 57.761719 170.976562 " fill-opacity="1" fill-rule="evenodd"/><path fill="#a9a0f0" d="M 76.457031 189.429688 C 77.675781 189.605469 78.910156 189.765625 80.394531 189.675781 C 79.875 184.046875 79.46875 178.300781 78.671875 172.945312 C 77.28125 172.945312 75.886719 172.945312 74.492188 172.945312 C 74.519531 179.183594 75.847656 183.398438 76.457031 189.429688 Z M 79.902344 171.222656 C 80.851562 176.914062 81.730469 184.804688 81.625 191.398438 C 79.507812 192.0625 76.96875 191.945312 74.738281 191.398438 C 74.285156 184.988281 72.515625 177.492188 73.015625 171.222656 C 74.636719 170.636719 77.726562 170.960938 79.902344 171.222656 " fill-opacity="1" fill-rule="evenodd"/><path fill="#a9a0f0" d="M 63.910156 222.152344 C 63.117188 222.824219 62.132812 222.109375 61.695312 221.660156 C 61.273438 221.976562 61.203125 222.644531 60.710938 222.890625 C 59.679688 222.636719 58.964844 221.511719 59.480469 220.429688 C 60.730469 220.085938 60.15625 221.558594 61.207031 221.417969 C 61.65625 220.800781 61.183594 220.46875 61.449219 219.449219 C 63.015625 218.804688 63.019531 221.355469 63.910156 222.152344 " fill-opacity="1" fill-rule="evenodd"/><path fill="#a9a0f0" d="M 108.691406 222.644531 C 109.257812 223.585938 108.6875 225.175781 107.953125 225.597656 C 105.78125 225.507812 107.136719 222.554688 108.691406 222.644531 " fill-opacity="1" fill-rule="evenodd"/><path fill="#a9a0f0" d="M 111.644531 225.351562 C 112.316406 225.171875 112.140625 225.839844 112.628906 225.84375 C 112.484375 226.847656 112.402344 227.914062 111.152344 227.8125 C 110.433594 226.914062 111.339844 225.996094 111.644531 225.351562 " fill-opacity="1" fill-rule="evenodd"/><path fill="#a9a0f0" d="M 160.507812 243.839844 C 160.410156 243.933594 159.941406 244.917969 160.058594 244.851562 C 164.292969 242.335938 163.808594 235.480469 167.808594 232.75 C 172.027344 229.878906 177.40625 231.503906 182.042969 230.289062 C 182.039062 230.398438 182.0625 230.464844 182.0625 230.464844 C 182.0625 230.464844 182.078125 230.464844 182.101562 230.46875 C 176.96875 236.824219 180.457031 242.328125 165.300781 242.910156 C 162.925781 243 161.375 243.746094 159.820312 245.53125 C 159.722656 245.640625 159.878906 245.800781 159.984375 245.691406 C 163.003906 242.683594 168.222656 246.148438 175.328125 242.433594 C 179.507812 240.246094 180.035156 236.394531 181.683594 233.589844 C 182.375 232.417969 184 230.285156 184.117188 229.199219 C 184.386719 228.757812 184.316406 228.457031 184.316406 228.457031 C 184.316406 228.457031 183.839844 228.351562 182.984375 228.984375 C 175.8125 229.582031 171.1875 228.59375 167.277344 231.226562 C 162.832031 234.21875 164.210938 240.386719 160.507812 243.839844 " fill-opacity="1" fill-rule="nonzero"/><g clip-path="url(#f912dd688d)"><path fill="#a9a0f0" d="M 267.160156 194.390625 C 265.441406 197.605469 262.378906 201.042969 262.378906 201.042969 C 262.378906 201.042969 263.722656 201.195312 265.667969 200.820312 C 264.171875 205.007812 259.613281 208.816406 259.613281 208.816406 C 259.613281 208.816406 260.210938 208.96875 262.527344 208.519531 C 260.882812 210.988281 256.921875 213.902344 256.921875 213.902344 L 259.984375 213.675781 C 258.429688 215.792969 257.351562 217.3125 255.472656 218.195312 C 255.472656 218.167969 255.472656 218.140625 255.472656 218.113281 C 255.429688 218.15625 255.382812 218.195312 255.339844 218.253906 C 255.332031 218.257812 255.320312 218.265625 255.3125 218.269531 C 255.125 216.558594 254.800781 214.886719 254.355469 213.265625 C 256.175781 213.152344 257.21875 212.855469 257.21875 212.855469 C 257.21875 212.855469 256.082031 212.53125 254.105469 212.429688 C 253.242188 209.621094 251.992188 207.003906 250.371094 204.691406 C 256.050781 205.949219 260.121094 205.136719 260.363281 205.132812 C 259.859375 205.085938 255.222656 205.175781 249.542969 203.578125 C 248.269531 201.957031 246.804688 200.503906 245.152344 199.277344 C 246.730469 198.367188 248.203125 197.480469 249.566406 196.632812 C 253.4375 198.027344 257.574219 198.558594 261.839844 198.011719 C 262.4375 197.921875 262.75 197.871094 262.75 197.871094 C 262.75 197.871094 262.433594 197.875 261.828125 197.878906 C 258.023438 197.851562 254.445312 197.363281 250.554688 196.011719 C 254.367188 193.59375 258.058594 191.011719 261.617188 188.226562 C 262.433594 187.574219 262.859375 187.234375 262.859375 187.234375 C 260.007812 189.007812 257.28125 190.773438 252.683594 193.527344 C 254.152344 189.609375 255.480469 186.667969 256.171875 185.046875 C 256.03125 185.285156 253.691406 188.269531 251.4375 194.273438 C 249.265625 195.558594 246.804688 196.984375 244.0625 198.511719 C 243.597656 198.210938 243.121094 197.925781 242.632812 197.65625 C 242.796875 192.472656 244.054688 188.804688 245.746094 184.921875 C 243.632812 188.484375 242.082031 191.9375 241.753906 197.195312 C 238.980469 195.820312 235.820312 194.992188 232.316406 194.84375 C 233.625 189.941406 234.8125 186.464844 235.503906 184.285156 C 235.457031 184.382812 233.207031 188.445312 231.394531 194.8125 C 228.371094 194.789062 226.164062 195.214844 223.429688 195.789062 C 224.097656 190.679688 225.515625 186.792969 225.667969 186.242188 C 225.613281 186.371094 223.300781 190.160156 222.492188 195.988281 C 219.992188 196.53125 217.429688 197.167969 214.9375 198 C 215.070312 193.675781 216.304688 190.507812 216.398438 190.128906 C 216.359375 190.230469 214.21875 193.394531 214.03125 198.308594 C 211.875 199.078125 209.785156 200.003906 207.859375 201.152344 C 207.28125 199.722656 206.484375 198.363281 205.539062 197.09375 C 205.558594 197.074219 205.574219 197.046875 205.589844 197.027344 C 205.582031 197.019531 205.574219 197.007812 205.566406 197 C 206.347656 194.660156 207.230469 193.160156 209.828125 191.027344 C 209.828125 191.027344 210.132812 192.46875 210.875 193.871094 C 213.632812 190.261719 217.789062 186.402344 217.789062 186.402344 C 217.789062 186.402344 218.050781 187.738281 218.125 189.082031 C 222.386719 184.375 225.75 182.507812 225.75 182.507812 C 225.75 182.507812 225.898438 183.851562 226.421875 184.671875 C 231.058594 180.5625 236.585938 178.917969 236.585938 178.917969 C 236.585938 178.917969 235.914062 181.460938 235.390625 182.953125 C 238.980469 180.339844 242.121094 178.992188 242.121094 178.992188 C 242.121094 178.992188 241.894531 180.113281 241.519531 181.683594 C 245.707031 179.664062 249.148438 179.367188 249.148438 179.367188 C 249.148438 179.367188 247.953125 181.382812 247.875 182.433594 C 249.613281 181.179688 256.492188 179.847656 256.246094 180.636719 L 254.003906 182.878906 L 263.125 182.433594 L 261.480469 184.898438 C 264.195312 184.335938 266.605469 183.980469 268.207031 184.375 C 268.089844 186.175781 266.28125 187.734375 264.621094 189.457031 C 264.621094 189.457031 265.21875 189.382812 267.878906 188.984375 C 267.886719 191.777344 265.785156 193.339844 264.398438 194.683594 C 264.398438 194.683594 264.917969 194.839844 267.160156 194.390625 Z M 252.371094 232.128906 C 250.417969 239.21875 248.898438 240.136719 247.511719 244.308594 C 246.28125 248 246.503906 251.679688 242.105469 252.234375 C 239.964844 252.503906 237.820312 252.75 235.675781 252.960938 C 229.316406 253.570312 222.851562 253.871094 216.496094 253.066406 C 210.769531 252.34375 204.886719 250.171875 201.183594 245.742188 C 203.976562 247.734375 206.898438 249.34375 210.492188 250.667969 C 211.351562 250.992188 212.191406 251.230469 212.984375 251.492188 C 213.789062 251.707031 214.554688 251.90625 215.285156 252.082031 C 224.421875 253.875 227.664062 252.4375 228.488281 252.453125 C 227.445312 252.339844 219.792969 253.023438 210.71875 249.65625 C 207.519531 248.46875 203.109375 246.917969 200.890625 244.214844 C 199.449219 242.460938 197.53125 241.203125 197.289062 238.777344 C 203.46875 247.476562 211.796875 248.660156 211.832031 248.683594 C 211.160156 248.179688 201.28125 243.953125 196.554688 234.925781 C 195.507812 231.1875 194.921875 231.613281 194.40625 228.636719 C 194.550781 227.417969 194.15625 225.617188 194.84375 222.058594 C 195.253906 219.949219 195.566406 219.507812 196.253906 216.789062 C 206.40625 202.203125 208.394531 201.390625 222.363281 197.925781 C 250.007812 191.070312 256.742188 216.253906 252.371094 232.128906 Z M 195.382812 241.78125 C 193.894531 253.59375 183.683594 260.160156 172.625 260.496094 C 169.332031 260.417969 165.96875 259.71875 162.847656 259 C 159.503906 258.226562 156.136719 257.429688 152.6875 257.347656 C 152.445312 257.34375 152.195312 257.34375 151.953125 257.34375 C 151.902344 257.34375 151.851562 257.339844 151.800781 257.339844 C 151.671875 257.34375 151.542969 257.34375 151.410156 257.347656 C 151.203125 257.347656 150.996094 257.355469 150.789062 257.363281 C 150.25 257.386719 149.714844 257.433594 149.183594 257.5 C 147.691406 257.691406 146.71875 257.960938 146.15625 258.03125 C 145.984375 258.027344 145.808594 258.007812 145.640625 257.984375 C 145.394531 257.808594 145.570312 257.246094 146.027344 255.933594 C 147.519531 251.640625 146.113281 247.113281 145.386719 242.78125 C 143.507812 231.59375 149.113281 222.421875 159.613281 218.226562 C 178.980469 210.488281 184.484375 224.757812 186.816406 225.175781 C 188.746094 226.851562 192.296875 227.078125 194.46875 233.300781 C 194.476562 233.316406 194.480469 233.335938 194.488281 233.347656 C 195.445312 236.113281 195.707031 239.1875 195.382812 241.78125 Z M 149.996094 259.246094 C 150.355469 259.179688 150.703125 259.128906 151.039062 259.113281 C 162.117188 258.664062 172.226562 267.335938 186.839844 257.816406 C 172.257812 269.738281 157.667969 261.207031 149.996094 259.246094 Z M 155.375 194.703125 C 155.761719 193.378906 155.878906 191.980469 156.308594 190.671875 C 157.746094 186.289062 164.640625 187.046875 168.25 187.035156 C 174.824219 187.019531 178.851562 183.796875 190.574219 188.316406 C 193.261719 189.347656 195.433594 190.496094 197.269531 191.738281 C 197.289062 191.777344 197.304688 191.808594 197.324219 191.84375 L 197.378906 191.8125 C 201.933594 194.933594 204.75 199.175781 206.671875 201.90625 C 205.851562 202.453125 205.140625 203 204.5 203.554688 C 200.269531 198.59375 193.199219 194.585938 187.179688 192.296875 C 187.289062 192.785156 189.875 193.3125 189.867188 193.792969 C 196.222656 196.933594 199.421875 199.894531 203.601562 204.375 C 202.859375 205.097656 202.210938 205.839844 201.605469 206.621094 C 197.035156 202.210938 192.355469 199.09375 187.113281 196.625 C 187.113281 196.628906 187.109375 196.628906 187.109375 196.632812 C 192.03125 199.847656 196.214844 202.945312 200.875 207.589844 C 200.378906 208.277344 199.886719 208.992188 199.363281 209.761719 C 195.183594 205.824219 189.742188 202.109375 185.085938 199.027344 C 185.609375 199.847656 194.144531 206.910156 198.65625 210.796875 C 197.675781 212.222656 197.609375 212.242188 196.378906 213.882812 C 192.507812 209.476562 187.609375 205.832031 182.617188 202.613281 C 182.351562 202.886719 183.128906 202.808594 182.839844 203.0625 C 187.667969 206.679688 190.949219 210.132812 195.675781 214.835938 C 194.996094 215.777344 194.308594 216.808594 193.703125 217.90625 C 183.539062 207.746094 181.132812 206.867188 181.085938 206.828125 C 181.132812 206.878906 184.136719 211.003906 193.074219 219.15625 C 192.519531 220.351562 192.101562 221.617188 191.917969 222.921875 C 191.867188 222.875 174.554688 205.980469 173.648438 205.980469 C 178.195312 211.699219 185.972656 219.445312 191.8125 224.363281 C 191.816406 225.164062 191.921875 225.976562 192.148438 226.796875 C 190.113281 224.898438 188.191406 225.027344 186.890625 223.253906 C 184.738281 220.324219 182.164062 218.046875 178.765625 216.300781 C 174.085938 210.578125 170.929688 207.539062 170.929688 207.539062 C 170.929688 207.539062 172.773438 210.527344 176.457031 215.308594 C 174.960938 214.785156 173.8125 214.566406 172.550781 214.414062 C 168.980469 209.707031 166.742188 205.984375 164.246094 201.628906 C 164.394531 201.949219 166.121094 207.464844 170.957031 214.28125 C 168.90625 214.1875 166.84375 214.371094 164.816406 214.769531 C 161.847656 207.839844 161.613281 204.035156 160.640625 200.296875 C 160.324219 205.101562 161.410156 210.945312 163.570312 215.042969 C 162.644531 215.261719 161.734375 215.527344 160.839844 215.828125 C 158.765625 212.8125 158.046875 210.167969 157.511719 207.175781 C 157.335938 209.980469 157.554688 212.894531 159.664062 216.242188 C 158.675781 216.613281 158.085938 216.863281 157.359375 217.203125 C 154.523438 209.613281 155.925781 203.117188 156.570312 199.207031 C 153.324219 205.347656 153.863281 212.371094 156.164062 217.796875 C 155.734375 218.023438 155.304688 218.257812 154.882812 218.507812 C 152.882812 214.660156 152.054688 210.277344 152.683594 205.335938 C 152.789062 204.652344 152.847656 204.296875 152.847656 204.296875 C 152.847656 204.296875 152.722656 204.632812 152.507812 205.296875 C 151.140625 210.019531 151.699219 214.925781 153.851562 219.148438 C 153.492188 219.382812 153.140625 219.625 152.789062 219.875 C 147.871094 207.191406 153.710938 200.386719 155.375 194.703125 Z M 181.121094 177.871094 C 181.121094 177.871094 182.617188 179.292969 184.484375 180.488281 C 183.589844 176.675781 186.203125 171.59375 186.203125 171.59375 C 186.203125 171.59375 187.027344 174.210938 188.597656 175.925781 C 187.253906 170.320312 190.914062 165.515625 190.914062 165.515625 C 190.914062 165.515625 191.585938 167.257812 192.859375 168.601562 C 193.15625 161.648438 197.121094 159.78125 197.121094 159.78125 C 197.121094 159.78125 198.164062 163.21875 198.914062 163.96875 C 199.511719 159.109375 203.324219 156.34375 203.324219 156.34375 C 203.324219 156.34375 204.371094 159.554688 204.820312 161.125 C 205.714844 157.765625 207.210938 154.921875 209.003906 153.277344 C 209.453125 153.652344 210.875 157.238281 210.875 157.238281 C 210.875 157.238281 214.3125 152.53125 217.078125 150.8125 C 218.273438 152.382812 219.378906 160.351562 219.378906 160.351562 C 219.378906 160.351562 220.144531 159.40625 222.425781 158.109375 C 223.066406 160.472656 221.714844 166.210938 221.714844 166.210938 C 221.714844 166.210938 222.234375 166.132812 224.402344 164.640625 C 225.148438 167.109375 222.910156 173.984375 222.910156 173.984375 C 222.910156 173.984375 223.878906 172.789062 225.449219 172.191406 C 224.925781 175.253906 222.4375 180.503906 222.4375 180.503906 L 225.824219 178.621094 C 225.824219 178.621094 225.148438 179.738281 224.402344 181.984375 C 222.085938 183.253906 218.425781 187.363281 218.425781 187.363281 C 218.425781 187.363281 218.648438 186.84375 218.125 185.273438 C 215.136719 186.691406 212.441406 189.90625 211.023438 191.925781 C 211.097656 190.804688 210.574219 190.355469 210.425781 189.234375 C 207.097656 190.539062 204.542969 194.265625 204.140625 195.402344 C 203.425781 194.605469 202.640625 193.824219 201.785156 193.074219 C 201.960938 192.609375 202.136719 192.152344 202.3125 191.695312 C 213.164062 186.957031 219.664062 182.382812 220.160156 182.089844 C 218.429688 182.96875 211.894531 186.542969 202.765625 190.507812 C 203.847656 187.65625 204.847656 184.957031 205.769531 182.417969 C 213.683594 178.359375 219.734375 174.054688 219.777344 174.027344 C 215.140625 176.507812 211.542969 178.460938 206.222656 181.164062 C 207.277344 178.234375 208.226562 175.527344 209.074219 173.066406 C 215.644531 168.480469 218.839844 164.125 219.117188 163.835938 C 218.417969 164.441406 214.832031 167.878906 209.574219 171.601562 C 212.578125 162.78125 214.605469 156 214.621094 155.949219 C 211.996094 162.929688 209.796875 168.816406 207.320312 175.335938 C 206.335938 166.714844 205.429688 161.730469 205.429688 161.730469 C 205.429688 161.730469 205.609375 167.488281 206.605469 177.195312 L 206.609375 177.195312 C 205.539062 180.007812 204.367188 183.070312 203.089844 186.375 C 201.355469 179.894531 200.550781 174.988281 199.75 169.34375 C 199.992188 175.113281 200.515625 180.371094 202.476562 187.609375 L 202.625 187.570312 C 202.039062 189.082031 201.433594 190.644531 200.808594 192.253906 C 199.703125 191.359375 198.511719 190.511719 197.246094 189.726562 C 192.679688 180.574219 192.597656 172.703125 192.472656 172.042969 C 192.527344 172.441406 191.867188 179.914062 195.875 188.910156 C 193.046875 187.316406 189.914062 186.046875 186.675781 185.253906 C 185.910156 181.683594 185.976562 178.789062 185.945312 178.324219 C 185.9375 178.375 185.152344 181.351562 185.738281 185.03125 C 184.292969 184.722656 182.847656 184.496094 181.234375 184.394531 C 181.226562 184.351562 181.222656 184.34375 181.222656 184.332031 C 181.097656 184.316406 180.972656 184.308594 180.851562 184.292969 C 179.824219 181.125 181.121094 177.871094 181.121094 177.871094 Z M 269.03125 187.8125 C 268.957031 187.589844 266.9375 187.886719 266.9375 187.886719 C 268.207031 186.859375 269.042969 185.566406 269.777344 183.554688 C 267.460938 182.953125 263.5 183.253906 263.722656 183.027344 C 263.949219 182.804688 264.171875 182.804688 264.886719 181.839844 C 261.5625 180.871094 257.070312 181.308594 256.847656 181.382812 C 256.621094 181.460938 257.820312 180.488281 258.492188 179.664062 C 253.570312 178.96875 251.738281 179.40625 249.742188 180.488281 C 249.742188 180.488281 250.117188 179.964844 251.015625 178.542969 C 245.332031 178.28125 244.105469 178.738281 242.792969 179.816406 C 242.792969 179.816406 243.539062 178.769531 244.136719 177.570312 C 239.878906 178.007812 238.664062 179.078125 237.261719 180.1875 C 237.261719 180.1875 237.785156 178.992188 238.007812 178.019531 C 233 178.246094 227.242188 182.058594 227.242188 182.058594 L 227.46875 180.488281 C 227.46875 180.488281 227.46875 180.488281 226.125 181.011719 C 227.242188 179.515625 226.945312 177.425781 227.019531 177.199219 C 227.09375 176.976562 226.570312 177.347656 225.078125 177.871094 C 226.945312 175.851562 226.421875 170.320312 226.570312 170.023438 C 226.722656 169.722656 226.125 170.171875 224.554688 170.917969 C 226.125 167.40625 225.078125 162.996094 225.078125 162.695312 C 225.078125 162.398438 224.703125 162.84375 222.910156 164.191406 C 224.105469 161.277344 222.984375 156.714844 223.082031 156.300781 C 223.179688 155.882812 220.292969 157.988281 220.292969 158.285156 C 220.292969 158.585938 219.246094 151.78125 217.410156 149.375 C 213.039062 151.902344 210.796875 154.921875 210.796875 154.921875 L 209.527344 152.082031 C 205.042969 154.398438 204.820312 157.765625 204.820312 157.765625 C 204.820312 157.765625 204.445312 155.070312 203.25 155.222656 C 199.285156 157.316406 198.613281 161.726562 198.613281 161.726562 C 198.613281 161.726562 198.242188 159.855469 197.40625 158.523438 C 191.976562 161.824219 192.027344 165.488281 192.136719 166.296875 C 192.058594 165.984375 191.804688 165.203125 191.136719 163.820312 C 187.398438 167.40625 187.625 172.117188 187.625 172.117188 C 187.625 172.117188 186.953125 170.472656 186.355469 169.5 C 184.398438 172.199219 183 175.074219 183.214844 178.457031 C 182.984375 178.253906 180.867188 176.566406 181.046875 176.257812 C 180.332031 177.492188 179.652344 178.453125 179.34375 179.875 C 179.039062 181.292969 179.027344 182.777344 179.441406 184.171875 C 179.4375 184.171875 179.433594 184.171875 179.429688 184.171875 C 179.4375 184.183594 179.441406 184.1875 179.449219 184.199219 C 179.464844 184.246094 179.480469 184.292969 179.492188 184.335938 C 174.324219 184.335938 172.792969 185.886719 168.242188 185.898438 C 165.359375 185.902344 159.65625 185.519531 157.128906 187.199219 C 155.171875 188.496094 154.898438 190.855469 154.441406 192.96875 C 153.074219 199.21875 149.230469 202.042969 149.238281 210.039062 C 148.71875 213.746094 149.550781 217.769531 151.304688 221.011719 C 136.257812 233.332031 147.300781 246.640625 144.941406 254.601562 C 144.582031 255.804688 143.53125 257.203125 143.90625 258.503906 C 144.351562 260.039062 145.574219 259.578125 146.648438 259.960938 C 150.054688 261.171875 160.46875 264.652344 164.242188 265.304688 C 179.550781 267.953125 193.875 257.878906 196.839844 244.300781 C 202.207031 253.097656 213.480469 255.429688 223.207031 255.5 C 227.757812 255.535156 240.171875 254.722656 244.292969 253.613281 C 246.707031 252.960938 247.625 250.144531 248.210938 247.992188 C 249.742188 242.363281 256.164062 232.386719 255.441406 219.859375 C 259.554688 218.160156 261.929688 212.476562 261.929688 212.257812 C 261.929688 212.03125 261.628906 212.480469 260.582031 212.554688 C 263.273438 211.585938 264.246094 206.949219 264.246094 206.949219 C 264.246094 206.949219 264.097656 206.800781 262.675781 207.171875 C 265.496094 205.589844 267 199.199219 267.085938 198.878906 C 267.085938 198.878906 266.789062 198.878906 264.917969 199.550781 C 267.757812 197.980469 268.433594 192.894531 268.433594 192.894531 C 268.433594 192.894531 268.433594 192.894531 266.789062 193.046875 C 269.179688 191.625 269.105469 188.039062 269.03125 187.8125 " fill-opacity="1" fill-rule="nonzero"/></g><path fill="#a9a0f0" d="M 204.304688 221.511719 C 208.667969 219.839844 213.878906 220.769531 217.582031 217.558594 C 218.601562 216.679688 219.453125 215.675781 220.613281 214.957031 C 222.265625 213.933594 225.714844 213.277344 227.320312 209.195312 C 227.675781 208.292969 227.789062 207.3125 228.285156 206.464844 C 228.851562 205.507812 229.71875 204.792969 230.191406 203.773438 C 231.097656 201.832031 230.269531 199.875 229.878906 197.917969 C 229.832031 197.683594 229.464844 197.691406 229.414062 197.917969 C 228.957031 199.871094 229.601562 202.066406 228.515625 203.828125 C 227.71875 205.121094 226.882812 206.046875 226.390625 207.515625 C 224.597656 212.832031 221.453125 212.210938 218.558594 214.585938 C 213.101562 219.070312 215.121094 217.914062 207.824219 219.238281 C 205.316406 219.691406 197.347656 224.222656 195.671875 221.039062 C 195.625 220.953125 195.488281 221.011719 195.515625 221.105469 C 196.679688 224.898438 201.90625 222.429688 204.304688 221.511719 " fill-opacity="1" fill-rule="nonzero"/><path fill="#a9a0f0" d="M 204.894531 241.984375 C 196.089844 234.957031 196.40625 225.898438 196.226562 225.507812 C 196.238281 225.542969 193.855469 239.832031 211.078125 247.359375 C 223.324219 252.761719 239.652344 250.273438 239.984375 250.296875 C 238.660156 250.023438 216.722656 251.617188 204.894531 241.984375 " fill-opacity="1" fill-rule="nonzero"/><path fill="#a9a0f0" d="M 226.644531 244.25 C 213.203125 237.472656 207.296875 226.636719 205.375 224.234375 C 205.511719 224.4375 207.945312 232.460938 217.351562 239.980469 C 227.097656 247.949219 236.253906 248.074219 236.425781 248.144531 C 233.792969 247.25 231.015625 246.425781 226.644531 244.25 " fill-opacity="1" fill-rule="nonzero"/><path fill="#a9a0f0" d="M 231.894531 231.847656 C 224.65625 221.484375 220.175781 218.285156 220.132812 218.238281 C 233.140625 235.367188 233.6875 237.335938 241.214844 248.589844 C 238.839844 242.699219 235.472656 237.003906 231.894531 231.847656 " fill-opacity="1" fill-rule="nonzero"/><path fill="#a9a0f0" d="M 238.945312 227.109375 C 242.203125 235.695312 242.5 245.195312 242.707031 246.859375 C 242.726562 246.441406 243.539062 242.980469 242.714844 236.394531 C 241.511719 227.15625 237.375 217.636719 229.5625 210.398438 C 230.394531 211.75 235.445312 217.601562 238.945312 227.109375 " fill-opacity="1" fill-rule="nonzero"/><path fill="#a9a0f0" d="M 246.234375 220.113281 C 242.019531 207.3125 233.824219 202.5625 233.789062 202.515625 C 235.011719 204.277344 243.027344 210.449219 246.398438 226.660156 C 247.726562 235.78125 246.664062 239.890625 246.398438 243.039062 C 246.523438 242.441406 248.253906 238.804688 248.175781 231.441406 C 248.128906 228.382812 247.6875 224.558594 246.234375 220.113281 " fill-opacity="1" fill-rule="nonzero"/><path fill="#a9a0f0" d="M 178.285156 234.53125 C 178.238281 234.496094 177.328125 233.164062 174.867188 232.617188 C 170.191406 231.582031 166.246094 234.953125 165.90625 237.46875 C 165.878906 237.675781 165.890625 237.757812 165.890625 237.757812 C 169.09375 234.507812 171.835938 233 176.828125 234.175781 C 177.355469 234.3125 177.917969 234.445312 178.285156 234.53125 " fill-opacity="1" fill-rule="nonzero"/><path fill="#a9a0f0" d="M 167.261719 238.21875 C 166.578125 238.996094 166.585938 239.65625 166.570312 239.699219 C 173.320312 235.964844 173.039062 237.496094 175.5625 236.65625 C 172.988281 234.972656 168.871094 236.179688 167.261719 238.21875 " fill-opacity="1" fill-rule="nonzero"/><path fill="#a9a0f0" d="M 171.332031 257.824219 C 171.0625 257.820312 170.28125 257.804688 170.15625 257.796875 C 170.117188 257.796875 169.898438 257.785156 169.867188 257.785156 C 169.792969 257.78125 169.742188 257.777344 169.664062 257.789062 C 164.550781 258.339844 160.707031 255.527344 152.484375 256.335938 C 151.6875 256.417969 151.371094 256.484375 151.371094 256.484375 C 151.371094 256.484375 151.699219 256.507812 152.503906 256.5625 C 153.308594 256.617188 154.59375 256.695312 156.492188 256.949219 C 160.359375 257.476562 162.59375 258.230469 164.121094 258.609375 C 165.527344 258.957031 166.832031 259.195312 168.339844 259.210938 C 168.695312 259.207031 169.117188 259.203125 169.53125 259.171875 C 169.570312 259.167969 169.746094 259.15625 169.773438 259.15625 C 169.769531 259.15625 169.773438 259.15625 169.828125 259.160156 C 179.503906 259.90625 188.519531 254.410156 192.070312 246.109375 C 192.769531 244.488281 193.007812 243.402344 193.152344 242.753906 C 193.273438 242.097656 193.289062 241.867188 193.289062 241.867188 C 193.289062 241.867188 193.167969 242.167969 192.867188 242.898438 C 188.605469 252.859375 179.867188 257.980469 171.332031 257.824219 " fill-opacity="1" fill-rule="nonzero"/><path fill="#a9a0f0" d="M 206.207031 202.152344 C 202.929688 196.894531 197.214844 192.199219 190.535156 189.773438 C 188.648438 189.074219 187.097656 188.9375 187.050781 188.925781 C 191.089844 190.746094 193.5 191.847656 197.128906 194.316406 C 201.160156 197.085938 203.488281 199.574219 206.207031 202.152344 " fill-opacity="1" fill-rule="nonzero"/><path fill="#a9a0f0" d="M 242.894531 249.378906 C 242.78125 249.453125 242.664062 249.53125 242.554688 249.613281 C 241.746094 250.203125 241.023438 250.902344 240 251.113281 C 241.261719 251.058594 242.359375 251.003906 243.390625 250.265625 C 244.183594 249.695312 245.066406 248.929688 245.308594 247.933594 C 245.335938 247.820312 245.332031 247.765625 245.332031 247.765625 C 245.332031 247.765625 245.285156 247.78125 245.183594 247.832031 C 244.371094 248.253906 243.65625 248.878906 242.894531 249.378906 " fill-opacity="1" fill-rule="nonzero"/><path fill="#a9a0f0" d="M 199.871094 229.136719 C 200.515625 229.984375 201.980469 236.292969 213.144531 243.324219 C 222.257812 248.226562 227.261719 247.289062 227.851562 247.449219 C 226.957031 247.15625 219.351562 246.460938 211.421875 241.027344 C 204.164062 236.039062 200.984375 230.414062 199.871094 229.136719 " fill-opacity="1" fill-rule="nonzero"/><path fill="#a9a0f0" d="M 239.511719 202.453125 C 240.027344 203.03125 242.960938 205.566406 245.84375 210.238281 C 251.445312 219.617188 251.738281 228.730469 248.785156 239.1875 C 253.527344 228.640625 251.949219 217.625 246.234375 209.261719 C 243.019531 204.554688 239.558594 202.492188 239.511719 202.453125 " fill-opacity="1" fill-rule="nonzero"/><path fill="#a9a0f0" d="M 243.136719 222.992188 C 240.800781 215.53125 237.320312 212.355469 237.292969 212.308594 C 238.335938 214.894531 242.421875 219.011719 244.488281 235.878906 C 244.992188 231.488281 244.429688 227.144531 243.136719 222.992188 " fill-opacity="1" fill-rule="nonzero"/><path fill="#a9a0f0" d="M 203.199219 219.3125 C 206.640625 217.4375 206.429688 217.488281 210.296875 217.617188 C 212.152344 217.734375 214.296875 217.46875 215.234375 215.878906 C 213.007812 217.605469 210.503906 216.5625 207.972656 216.550781 C 203.394531 216.460938 200.75 221.792969 196.289062 219.226562 C 196.289062 219.226562 196.308594 219.253906 196.351562 219.3125 C 198.039062 221.394531 200.84375 220.601562 203.199219 219.3125 " fill-opacity="1" fill-rule="nonzero"/><path fill="#a9a0f0" d="M 225.253906 206.992188 C 226.515625 205.335938 228.5625 202.988281 227.117188 201.339844 C 226.972656 201.179688 226.894531 201.140625 226.894531 201.140625 C 227.621094 204.035156 225.617188 203.574219 221.195312 211.492188 C 221.195312 211.492188 222.339844 210.738281 225.253906 206.992188 " fill-opacity="1" fill-rule="nonzero"/><path fill="#a9a0f0" d="M 167.300781 217.738281 C 167.210938 217.75 163.527344 217.289062 158.851562 219.273438 C 156.789062 220.152344 154.300781 221.574219 151.921875 224.085938 C 148.765625 227.4375 146.910156 231.589844 146.484375 235.894531 C 146.421875 236.640625 146.390625 237.460938 146.460938 238.207031 C 146.5 238.644531 146.53125 238.792969 146.53125 238.792969 C 146.695312 237.550781 146.757812 236.96875 147.054688 235.578125 C 147.945312 231.496094 149.867188 227.722656 152.75 224.699219 C 158.710938 218.453125 166.753906 217.921875 167.300781 217.738281 " fill-opacity="1" fill-rule="nonzero"/><path fill="#a9a0f0" d="M 204.296875 215.167969 C 204.71875 215.167969 205.0625 214.738281 204.9375 214.324219 C 204.703125 213.589844 203.925781 213.476562 203.652344 214.324219 C 203.527344 214.738281 203.871094 215.167969 204.296875 215.167969 " fill-opacity="1" fill-rule="nonzero"/><path fill="#a9a0f0" d="M 207.660156 214.199219 C 208.328125 214.199219 208.332031 213.15625 207.660156 213.15625 C 206.988281 213.15625 206.988281 214.199219 207.660156 214.199219 " fill-opacity="1" fill-rule="nonzero"/><path fill="#a9a0f0" d="M 213.714844 212.480469 C 214.769531 212.480469 214.769531 210.839844 213.714844 210.839844 C 212.65625 210.839844 212.65625 212.480469 213.714844 212.480469 " fill-opacity="1" fill-rule="nonzero"/><path fill="#a9a0f0" d="M 200.257812 216.535156 C 201.050781 216.535156 201.050781 215.304688 200.257812 215.304688 C 199.46875 215.304688 199.464844 216.535156 200.257812 216.535156 " fill-opacity="1" fill-rule="nonzero"/><path fill="#a9a0f0" d="M 209.902344 209.824219 C 211.003906 209.824219 211.007812 208.109375 209.902344 208.109375 C 208.800781 208.109375 208.796875 209.824219 209.902344 209.824219 " fill-opacity="1" fill-rule="nonzero"/><path fill="#a9a0f0" d="M 216.40625 209.933594 C 217.359375 209.933594 217.359375 208.453125 216.40625 208.453125 C 215.453125 208.453125 215.449219 209.933594 216.40625 209.933594 " fill-opacity="1" fill-rule="nonzero"/><path fill="#a9a0f0" d="M 205.863281 210.976562 C 206.71875 210.976562 206.71875 209.652344 205.863281 209.652344 C 205.011719 209.652344 205.011719 210.976562 205.863281 210.976562 " fill-opacity="1" fill-rule="nonzero"/><path fill="#a9a0f0" d="M 215.824219 229.667969 C 213.097656 225.804688 215.703125 229.507812 211.902344 223.898438 C 212.132812 224.359375 212.5625 226.820312 216.195312 232.152344 C 225.191406 244.484375 238.820312 247.875 238.867188 247.90625 C 236.011719 245.8125 225.511719 242.207031 215.824219 229.667969 " fill-opacity="1" fill-rule="nonzero"/><path fill="#a9a0f0" d="M 159.921875 191.726562 C 160.613281 191.726562 160.613281 190.675781 159.921875 190.675781 C 159.640625 190.675781 159.398438 190.917969 159.398438 191.203125 C 159.398438 191.484375 159.640625 191.726562 159.921875 191.726562 " fill-opacity="1" fill-rule="nonzero"/><path fill="#a9a0f0" d="M 162.738281 189.914062 C 163.496094 189.914062 163.496094 188.734375 162.738281 188.734375 C 161.976562 188.734375 161.976562 189.914062 162.738281 189.914062 " fill-opacity="1" fill-rule="nonzero"/><path fill="#a9a0f0" d="M 158.75 194.449219 C 159.609375 194.449219 159.613281 193.113281 158.75 193.113281 C 157.890625 193.113281 157.886719 194.449219 158.75 194.449219 " fill-opacity="1" fill-rule="nonzero"/><path fill="#a9a0f0" d="M 158.28125 191.007812 C 158.9375 191.007812 158.941406 189.984375 158.28125 189.984375 C 157.621094 189.984375 157.621094 191.007812 158.28125 191.007812 " fill-opacity="1" fill-rule="nonzero"/><path fill="#a9a0f0" d="M 166.585938 191.433594 C 166.816406 191.070312 166.414062 190.457031 165.667969 190.769531 C 165.25 190.945312 166.085938 192.226562 166.585938 191.433594 " fill-opacity="1" fill-rule="nonzero"/><path fill="#a9a0f0" d="M 168.835938 189.082031 C 169.433594 189.082031 169.433594 188.160156 168.835938 188.160156 C 168.242188 188.160156 168.242188 189.082031 168.835938 189.082031 " fill-opacity="1" fill-rule="nonzero"/></svg>