<svg xmlns="http://www.w3.org/2000/svg" xmlns:xlink="http://www.w3.org/1999/xlink" width="400" zoomAndPan="magnify" viewBox="0 0 300 299.999988" height="400" preserveAspectRatio="xMidYMid meet" version="1.0"><defs><clipPath id="1b421c6b82"><path d="M 71 30 L 229.949219 30 L 229.949219 270 L 71 270 Z M 71 30 " clip-rule="nonzero"/></clipPath></defs><g clip-path="url(#1b421c6b82)"><path fill="#a9a0f0" d="M 229.574219 183.214844 C 229.523438 144.652344 229.199219 100.910156 228.765625 96.914062 C 228.765625 96.914062 228.765625 96.859375 228.765625 96.859375 C 227.957031 90.109375 217.101562 64.183594 205.058594 55.597656 C 205.273438 54.355469 205.21875 52.359375 204.515625 49.0625 C 203.4375 43.933594 199.980469 32.917969 195.984375 31.511719 C 191.773438 30 101.152344 32.105469 96.992188 33.835938 C 93.320312 35.347656 91.050781 45.285156 90.351562 50.304688 C 89.863281 53.871094 89.863281 56.460938 90.296875 58.082031 C 83.921875 63.050781 72.472656 91.242188 71.609375 95.078125 C 70.3125 100.855469 71.503906 248.289062 71.554688 254.554688 L 71.609375 254.988281 C 73.933594 261.628906 110.816406 268 116.652344 268 C 116.703125 268 116.703125 268 116.703125 268 C 120.972656 269.460938 130.855469 270 143.058594 270 C 176.378906 270 227.039062 266.058594 227.46875 265.894531 C 228.925781 265.410156 229.683594 265.140625 229.574219 183.214844 Z M 179.511719 100.585938 C 198.199219 99.882812 216.34375 99.074219 226.390625 98.371094 C 226.605469 102.207031 226.820312 112.464844 226.929688 126.074219 C 222.664062 128.503906 216.667969 127.210938 213.804688 123.265625 C 213.105469 122.347656 212.5625 121.269531 212.023438 120.136719 C 211.214844 118.515625 210.402344 116.894531 209.054688 115.492188 C 205.542969 111.925781 200.144531 111.710938 195.824219 111.980469 L 194.796875 112.035156 C 190.90625 112.25 186.859375 112.519531 183.726562 110.683594 C 180.324219 108.738281 178.539062 104.3125 179.511719 100.585938 Z M 218.667969 77.578125 C 222.445312 84.871094 225.203125 92.050781 226.066406 95.832031 C 216.238281 96.535156 198.738281 97.34375 180.59375 97.992188 C 183.832031 91.945312 189.71875 89.730469 194.257812 88.972656 C 195.605469 88.757812 197.066406 88.648438 198.414062 88.542969 C 202.355469 88.21875 206.40625 87.949219 209.59375 85.246094 C 210.78125 84.222656 211.699219 82.980469 212.5625 81.792969 C 213.050781 81.144531 213.535156 80.441406 214.078125 79.792969 C 215.210938 78.496094 216.992188 77.253906 218.667969 77.578125 Z M 217.316406 75.09375 C 215.535156 75.363281 213.699219 76.445312 212.132812 78.226562 C 211.539062 78.929688 210.996094 79.632812 210.511719 80.386719 C 209.703125 81.519531 208.945312 82.601562 207.972656 83.410156 C 205.433594 85.570312 201.925781 85.839844 198.253906 86.113281 C 196.792969 86.21875 195.335938 86.328125 193.878906 86.597656 C 186.210938 87.839844 180.539062 91.945312 177.785156 98.15625 C 150.835938 99.179688 123.183594 99.992188 117.40625 100.152344 C 116.003906 92.917969 108.226562 69.371094 98.667969 60.621094 C 103.742188 60.835938 111.089844 60.945312 119.621094 60.945312 C 151.160156 60.945312 198.46875 59.488281 203.761719 57.703125 C 208.621094 61.269531 213.429688 68.074219 217.316406 75.09375 Z M 94.5625 60.621094 C 103.582031 65.589844 113.03125 91.027344 114.8125 100.097656 C 106.929688 99.9375 98.828125 99.019531 91.863281 97.886719 C 92.023438 97.667969 92.132812 97.398438 92.078125 97.128906 C 91.429688 84.921875 92.238281 72.664062 94.5625 60.621094 Z M 94.128906 44.257812 C 95.640625 38.480469 97.261719 36.425781 97.964844 36.101562 C 103.257812 34.535156 191.179688 32.484375 195.175781 33.835938 C 196.417969 34.265625 198.847656 38.261719 200.84375 44.796875 C 202.410156 49.875 202.789062 53.332031 202.628906 54.84375 C 202.464844 54.949219 202.355469 55.058594 202.25 55.21875 C 202.140625 55.382812 202.085938 55.492188 202.085938 55.652344 C 193.339844 57.597656 109.523438 59.269531 94.671875 57.921875 C 94.023438 57.652344 93.375 57.433594 92.726562 57.328125 C 92.238281 55.707031 92.511719 50.359375 94.128906 44.257812 Z M 91.808594 59.917969 C 91.914062 59.917969 92.023438 59.972656 92.132812 59.972656 C 89.753906 72.230469 88.890625 84.761719 89.59375 97.238281 C 89.59375 97.34375 89.59375 97.398438 89.648438 97.507812 C 82.464844 96.265625 76.847656 94.96875 74.472656 94.375 C 76.902344 86.164062 88.296875 61.972656 91.808594 59.917969 Z M 74.148438 254.285156 C 73.824219 213.402344 73.175781 110.253906 73.984375 96.914062 C 79.171875 98.15625 97.800781 102.421875 115.085938 102.636719 C 115.894531 114.894531 116.542969 195.203125 116.433594 238.570312 C 115.300781 239.21875 114.113281 239.703125 112.816406 240.027344 C 110.980469 240.511719 109.089844 240.566406 107.039062 240.675781 C 104.929688 240.78125 102.769531 240.835938 100.609375 241.429688 C 96.453125 242.566406 92.78125 245.480469 90.835938 249.316406 C 89.109375 252.664062 88.730469 256.714844 89.703125 260.386719 C 81.871094 258.441406 75.121094 256.175781 74.148438 254.285156 Z M 116.054688 265.464844 C 112.707031 265.300781 102.230469 263.464844 92.5625 261.144531 C 92.5625 261.089844 92.5625 261.089844 92.511719 261.035156 C 91.214844 257.6875 91.429688 253.746094 93.105469 250.503906 C 94.722656 247.265625 97.800781 244.832031 101.3125 243.863281 C 103.203125 243.375 105.148438 243.265625 107.199219 243.214844 C 109.25 243.105469 111.410156 243.050781 113.519531 242.511719 C 114.542969 242.242188 115.570312 241.863281 116.488281 241.429688 C 116.378906 253.851562 116.273438 262.816406 116.054688 265.464844 Z M 118.378906 265.789062 C 118.757812 262.980469 119.027344 256.28125 119.082031 239.863281 C 122.429688 237.597656 125.238281 234.355469 127.992188 231.171875 C 131.988281 226.527344 135.824219 222.097656 141.167969 220.691406 C 146.351562 219.34375 152.5625 221.339844 156.992188 225.824219 C 160.664062 229.550781 163.3125 234.894531 164.878906 241.753906 L 165.203125 243.160156 C 166.066406 247.046875 167.039062 251.53125 170.332031 254.339844 C 173.355469 256.929688 177.460938 257.363281 181.078125 257.472656 L 182.535156 257.523438 C 185.5625 257.578125 188.476562 257.632812 191.015625 258.765625 C 193.664062 259.902344 196.039062 262.816406 195.226562 265.570312 C 195.226562 265.625 195.175781 265.734375 195.175781 265.789062 C 166.984375 267.355469 128.746094 268.648438 118.378906 265.789062 Z M 226.226562 263.519531 C 223.042969 263.898438 211.863281 264.761719 197.765625 265.625 C 198.46875 261.738281 195.5 257.957031 191.988281 256.445312 C 188.964844 255.148438 185.722656 255.09375 182.535156 254.988281 L 181.132812 254.933594 C 177.945312 254.824219 174.382812 254.445312 171.953125 252.394531 C 169.304688 250.125 168.441406 246.292969 167.632812 242.621094 L 167.308594 241.214844 C 165.632812 233.871094 162.769531 228.089844 158.71875 224.042969 C 153.699219 218.964844 146.515625 216.695312 140.46875 218.261719 C 134.308594 219.882812 130.097656 224.796875 125.992188 229.550781 C 123.726562 232.195312 121.511719 234.789062 119.027344 236.785156 C 119.027344 225.066406 118.972656 208.867188 118.8125 186.453125 C 118.539062 151.027344 118 111.0625 117.570312 102.636719 C 123.726562 102.476562 150.511719 101.664062 176.867188 100.691406 C 176.003906 105.335938 178.214844 110.46875 182.375 112.84375 C 186.210938 115.003906 190.582031 114.789062 194.851562 114.519531 L 195.875 114.464844 C 199.65625 114.25 204.410156 114.410156 207.164062 117.21875 C 208.242188 118.296875 208.945312 119.703125 209.703125 121.214844 C 210.296875 122.402344 210.890625 123.589844 211.699219 124.671875 C 214.078125 127.910156 218.125 129.695312 222.121094 129.695312 C 223.742188 129.695312 225.363281 129.371094 226.875 128.777344 C 227.308594 174.894531 227.039062 255.203125 226.226562 263.519531 Z M 226.226562 263.519531 " fill-opacity="1" fill-rule="nonzero"/></g><path fill="#a9a0f0" d="M 183.457031 70.070312 C 183.402344 65.210938 177.945312 61.429688 170.925781 61.429688 C 163.960938 61.429688 158.503906 65.210938 158.398438 70.019531 L 157.207031 77.632812 C 157.207031 81.953125 162.71875 85.300781 169.738281 85.300781 C 176.757812 85.300781 182.265625 81.898438 182.265625 77.792969 L 183.183594 72.015625 C 183.347656 71.421875 183.457031 70.773438 183.457031 70.125 C 183.507812 70.125 183.507812 70.125 183.457031 70.070312 C 183.507812 70.070312 183.457031 70.070312 183.457031 70.070312 Z M 170.980469 63.914062 C 176.378906 63.914062 180.917969 66.722656 180.972656 70.070312 L 180.753906 71.421875 C 179.78125 74.230469 175.679688 76.390625 170.925781 76.390625 C 165.472656 76.390625 160.882812 73.527344 160.882812 70.179688 C 160.882812 66.832031 165.523438 63.914062 170.980469 63.914062 Z M 169.738281 82.816406 C 163.742188 82.816406 159.691406 80.117188 159.691406 77.847656 L 160.179688 74.714844 C 162.339844 77.253906 166.28125 78.875 170.925781 78.875 C 174.492188 78.875 177.675781 77.847656 179.945312 76.230469 L 179.730469 77.632812 C 179.78125 80.117188 175.730469 82.816406 169.738281 82.816406 Z M 169.738281 82.816406 " fill-opacity="1" fill-rule="nonzero"/><path fill="#a9a0f0" d="M 171.953125 130.558594 C 144.625 130.558594 122.429688 148.648438 122.429688 170.847656 C 122.429688 193.042969 144.679688 211.132812 171.953125 211.132812 C 199.226562 211.132812 221.476562 193.042969 221.476562 170.847656 C 221.476562 148.648438 199.277344 130.558594 171.953125 130.558594 Z M 171.953125 208.648438 C 146.03125 208.648438 124.914062 191.691406 124.914062 170.847656 C 124.914062 150 146.03125 133.042969 171.953125 133.042969 C 197.875 133.042969 218.992188 150 218.992188 170.847656 C 218.992188 191.691406 197.875 208.648438 171.953125 208.648438 Z M 171.953125 208.648438 " fill-opacity="1" fill-rule="nonzero"/><path fill="#a9a0f0" d="M 204.679688 153.78125 C 203.382812 153.511719 198.738281 153.132812 193.121094 157.453125 C 192.851562 157.128906 192.582031 156.859375 192.257812 156.535156 C 197.605469 154.429688 198.308594 150.703125 198.199219 148.597656 C 198.089844 145.789062 196.417969 142.816406 194.6875 142.4375 C 193.933594 142.277344 193.175781 142.601562 192.796875 143.304688 C 191.878906 144.976562 189.125 149.136719 183.507812 151.027344 C 183.402344 151.082031 183.347656 151.082031 183.238281 151.132812 C 180.484375 150.269531 177.082031 149.730469 172.871094 149.675781 C 168.65625 149.621094 165.253906 150.160156 162.5 150.972656 C 162.445312 150.972656 162.445312 150.917969 162.394531 150.917969 C 156.832031 148.757812 154.292969 144.492188 153.480469 142.761719 C 153.15625 142.0625 152.402344 141.683594 151.59375 141.84375 C 149.863281 142.167969 148.027344 145.03125 147.8125 147.839844 C 147.648438 150 148.191406 153.835938 153.753906 156.210938 C 153.265625 156.695312 152.835938 157.238281 152.457031 157.667969 C 152.402344 157.5625 152.292969 157.507812 152.1875 157.453125 C 145.707031 153.347656 140.898438 154.429688 139.546875 154.859375 C 138.089844 155.347656 137.066406 156.101562 136.6875 157.074219 C 136.417969 157.777344 136.523438 158.640625 137.117188 159.882812 C 138.46875 162.691406 142.410156 167.28125 145.867188 169.0625 C 144.464844 173.601562 143.976562 178.839844 145.21875 183.644531 C 146.785156 189.695312 150.890625 194.121094 157.101562 196.5 C 159.960938 200.277344 166.171875 202.871094 173.570312 202.871094 C 180.648438 202.871094 186.640625 200.496094 189.613281 196.984375 C 195.875 194.339844 199.925781 189.800781 201.332031 183.914062 C 202.519531 179 201.761719 173.492188 199.980469 168.792969 C 203.222656 166.6875 206.625 161.449219 207.648438 158.480469 C 208.082031 157.238281 208.082031 156.320312 207.703125 155.671875 C 207.273438 154.753906 206.191406 154.105469 204.679688 153.78125 Z M 203.921875 156.210938 C 205.058594 156.371094 205.542969 156.75 205.542969 156.644531 C 205.597656 157.019531 205.328125 157.777344 204.894531 158.695312 C 204.789062 158.640625 204.679688 158.585938 204.515625 158.585938 C 204.355469 158.585938 200.683594 158.261719 196.578125 161.933594 C 196.144531 161.289062 195.714844 160.691406 195.226562 160.207031 C 195.066406 159.992188 194.851562 159.722656 194.632812 159.449219 C 199.226562 155.941406 202.84375 156.046875 203.921875 156.210938 Z M 174.8125 152.320312 C 186.640625 152.917969 190.582031 158.261719 192.527344 160.855469 C 192.851562 161.289062 193.066406 161.609375 193.339844 161.882812 C 193.984375 162.636719 194.582031 163.5 195.175781 164.417969 C 195.226562 164.582031 195.335938 164.742188 195.445312 164.851562 C 195.5 164.90625 195.550781 165.011719 195.605469 165.066406 C 195.28125 165.660156 194.6875 166.09375 193.984375 166.308594 C 193.175781 166.578125 192.3125 166.527344 191.71875 166.148438 C 191.015625 165.769531 190.476562 165.066406 189.882812 164.367188 C 189.125 163.449219 188.207031 162.367188 186.910156 161.773438 C 185.398438 161.125 183.832031 161.289062 182.429688 161.449219 C 181.671875 161.558594 180.972656 161.609375 180.269531 161.609375 C 178.378906 161.503906 176.542969 160.207031 175.570312 158.316406 C 174.652344 156.644531 174.4375 154.535156 174.8125 152.320312 Z M 194.527344 145.355469 C 195.121094 146.113281 195.824219 147.679688 195.714844 149.351562 C 195.5 151.726562 193.664062 153.5625 190.367188 154.589844 C 190.3125 154.589844 190.261719 154.644531 190.207031 154.644531 C 189.234375 153.886719 188.046875 153.132812 186.640625 152.484375 C 190.855469 150.433594 193.339844 147.246094 194.527344 145.355469 Z M 150.296875 148.757812 C 150.242188 147.03125 151.050781 145.515625 151.644531 144.816406 C 152.726562 146.8125 155.101562 150.054688 159.261719 152.320312 C 157.910156 152.96875 156.777344 153.726562 155.804688 154.484375 C 155.695312 154.375 155.589844 154.320312 155.425781 154.265625 C 152.132812 153.023438 150.351562 151.132812 150.296875 148.757812 Z M 140.574219 157.183594 C 141.65625 156.914062 145.488281 156.265625 150.835938 159.613281 C 150.890625 159.613281 150.890625 159.667969 150.945312 159.667969 C 150.78125 159.882812 150.621094 160.046875 150.511719 160.207031 C 149.972656 160.800781 149.484375 161.503906 149 162.207031 C 144.300781 158.75 140.46875 159.558594 140.304688 159.613281 C 140.144531 159.667969 140.035156 159.722656 139.925781 159.773438 C 139.386719 158.910156 139.007812 158.261719 139.007812 157.9375 C 139.007812 157.9375 139.441406 157.507812 140.574219 157.183594 Z M 141.546875 162.042969 C 142.628906 162.042969 144.949219 162.3125 147.703125 164.417969 C 147.324219 165.121094 147 165.878906 146.675781 166.6875 C 144.949219 165.769531 143.058594 163.878906 141.546875 162.042969 Z M 173.570312 200.386719 C 167.039062 200.386719 161.257812 198.011719 158.992188 194.769531 C 158.992188 194.769531 158.9375 194.714844 158.9375 194.714844 C 158.289062 193.796875 157.964844 192.828125 157.964844 191.800781 C 157.964844 187.15625 165.09375 183.214844 173.570312 183.214844 C 182.050781 183.214844 189.179688 187.15625 189.179688 191.800781 C 189.179688 196.445312 182.050781 200.386719 173.570312 200.386719 Z M 198.953125 183.320312 C 197.929688 187.535156 195.445312 190.882812 191.554688 193.257812 C 191.664062 192.773438 191.71875 192.285156 191.71875 191.800781 C 191.71875 185.589844 183.777344 180.675781 173.625 180.675781 C 163.472656 180.675781 155.535156 185.535156 155.535156 191.800781 C 155.535156 192.230469 155.589844 192.664062 155.640625 193.097656 C 151.539062 190.882812 148.890625 187.535156 147.703125 183.050781 C 146.515625 178.570312 147.054688 173.492188 148.511719 169.171875 C 148.621094 169.0625 148.675781 168.902344 148.730469 168.738281 C 148.785156 168.632812 148.785156 168.523438 148.785156 168.363281 C 149.753906 165.769531 150.996094 163.5 152.457031 161.882812 C 152.726562 161.558594 153.050781 161.179688 153.375 160.746094 C 155.589844 157.777344 159.691406 152.320312 172.382812 152.269531 C 172.007812 154.914062 172.328125 157.453125 173.410156 159.503906 C 174.8125 162.152344 177.460938 163.988281 180.160156 164.148438 C 181.078125 164.203125 181.941406 164.09375 182.753906 163.988281 C 183.996094 163.824219 185.019531 163.71875 185.9375 164.09375 C 186.695312 164.417969 187.34375 165.175781 187.992188 165.984375 C 188.695312 166.796875 189.449219 167.769531 190.53125 168.363281 C 191.285156 168.792969 192.148438 169.011719 193.015625 169.011719 C 193.609375 169.011719 194.257812 168.902344 194.851562 168.6875 C 195.660156 168.414062 196.363281 167.984375 196.902344 167.445312 C 197.066406 167.769531 197.171875 168.09375 197.335938 168.46875 C 197.335938 168.523438 197.386719 168.578125 197.386719 168.632812 C 197.386719 168.6875 197.441406 168.6875 197.441406 168.738281 C 199.226562 173.277344 200.089844 178.570312 198.953125 183.320312 Z M 199.0625 166.417969 C 198.683594 165.609375 198.308594 164.90625 197.929688 164.148438 C 200.304688 161.882812 202.464844 161.289062 203.546875 161.179688 C 202.304688 163.175781 200.683594 165.230469 199.0625 166.417969 Z M 199.0625 166.417969 " fill-opacity="1" fill-rule="nonzero"/><path fill="#a9a0f0" d="M 182.753906 170.574219 C 180.917969 170.574219 179.40625 172.140625 179.40625 174.085938 C 179.40625 176.03125 180.917969 177.597656 182.753906 177.597656 C 184.589844 177.597656 186.101562 176.03125 186.101562 174.085938 C 186.101562 172.140625 184.589844 170.574219 182.753906 170.574219 Z M 182.753906 175.113281 C 182.265625 175.113281 181.890625 174.679688 181.890625 174.085938 C 181.890625 173.546875 182.265625 173.058594 182.753906 173.058594 C 183.238281 173.058594 183.617188 173.492188 183.617188 174.085938 C 183.5625 174.625 183.183594 175.113281 182.753906 175.113281 Z M 182.753906 175.113281 " fill-opacity="1" fill-rule="nonzero"/><path fill="#a9a0f0" d="M 163.742188 170.574219 C 161.90625 170.574219 160.394531 172.140625 160.394531 174.085938 C 160.394531 176.03125 161.90625 177.597656 163.742188 177.597656 C 165.578125 177.597656 167.089844 176.03125 167.089844 174.085938 C 167.089844 172.140625 165.578125 170.574219 163.742188 170.574219 Z M 163.742188 175.113281 C 163.257812 175.113281 162.878906 174.679688 162.878906 174.085938 C 162.878906 173.546875 163.257812 173.058594 163.742188 173.058594 C 164.230469 173.058594 164.605469 173.492188 164.605469 174.085938 C 164.605469 174.625 164.230469 175.113281 163.742188 175.113281 Z M 163.742188 175.113281 " fill-opacity="1" fill-rule="nonzero"/><path fill="#a9a0f0" d="M 165.742188 189.207031 C 164.335938 189.207031 163.203125 190.34375 163.203125 191.746094 C 163.203125 193.148438 164.335938 194.285156 165.742188 194.285156 C 167.144531 194.285156 168.28125 193.148438 168.28125 191.746094 C 168.28125 190.394531 167.144531 189.207031 165.742188 189.207031 Z M 165.742188 191.746094 C 165.796875 191.746094 165.796875 191.746094 165.742188 191.746094 Z M 165.742188 191.746094 " fill-opacity="1" fill-rule="nonzero"/><path fill="#a9a0f0" d="M 179.132812 189.207031 C 177.730469 189.207031 176.597656 190.34375 176.597656 191.746094 C 176.597656 193.148438 177.730469 194.285156 179.132812 194.285156 C 180.539062 194.285156 181.671875 193.148438 181.671875 191.746094 C 181.726562 190.394531 180.59375 189.207031 179.132812 189.207031 Z M 179.132812 191.746094 C 179.1875 191.746094 179.1875 191.746094 179.132812 191.746094 Z M 179.132812 191.746094 " fill-opacity="1" fill-rule="nonzero"/><path fill="#a9a0f0" d="M 106.929688 208.542969 C 107.738281 208.542969 108.550781 208.21875 109.199219 207.679688 C 109.953125 207.03125 110.332031 206.113281 110.332031 205.085938 L 109.304688 135.039062 C 109.304688 133.3125 107.957031 131.855469 106.226562 131.691406 L 83.222656 129.585938 C 82.25 129.53125 81.332031 129.800781 80.628906 130.449219 C 79.925781 131.097656 79.546875 132.015625 79.546875 132.933594 L 79.332031 202.007812 C 79.332031 203.734375 80.628906 205.140625 82.304688 205.355469 L 106.550781 208.433594 C 106.660156 208.488281 106.765625 208.542969 106.929688 208.542969 Z M 81.761719 202.0625 L 81.980469 132.988281 C 81.980469 132.71875 82.085938 132.503906 82.25 132.339844 C 82.410156 132.179688 82.628906 132.125 82.84375 132.125 C 82.84375 132.125 82.898438 132.125 82.898438 132.125 L 105.902344 134.230469 C 106.335938 134.285156 106.714844 134.664062 106.714844 135.09375 L 107.738281 205.140625 C 107.738281 205.464844 107.578125 205.734375 107.414062 205.789062 C 107.308594 205.894531 107.089844 206.058594 106.714844 206.003906 L 82.464844 202.925781 C 82.140625 202.925781 81.761719 202.546875 81.761719 202.0625 Z M 81.761719 202.0625 " fill-opacity="1" fill-rule="nonzero"/><path fill="#a9a0f0" d="M 102.230469 139.144531 L 86.191406 137.742188 C 85.757812 137.6875 85.382812 138.011719 85.328125 138.441406 C 85.273438 138.875 85.597656 139.253906 86.03125 139.308594 L 102.070312 140.710938 C 102.070312 140.710938 102.121094 140.710938 102.121094 140.710938 C 102.5 140.710938 102.878906 140.386719 102.878906 140.007812 C 102.988281 139.578125 102.664062 139.199219 102.230469 139.144531 Z M 102.230469 139.144531 " fill-opacity="1" fill-rule="nonzero"/><path fill="#a9a0f0" d="M 102.230469 146.21875 L 86.191406 144.816406 C 85.757812 144.761719 85.382812 145.085938 85.328125 145.515625 C 85.273438 145.949219 85.597656 146.328125 86.03125 146.382812 L 102.070312 147.785156 C 102.070312 147.785156 102.121094 147.785156 102.121094 147.785156 C 102.5 147.785156 102.878906 147.460938 102.878906 147.082031 C 102.988281 146.652344 102.664062 146.273438 102.230469 146.21875 Z M 102.230469 146.21875 " fill-opacity="1" fill-rule="nonzero"/><path fill="#a9a0f0" d="M 102.230469 153.292969 L 86.191406 151.890625 C 85.757812 151.890625 85.382812 152.160156 85.328125 152.59375 C 85.273438 153.023438 85.597656 153.402344 86.03125 153.457031 L 102.070312 154.859375 C 102.070312 154.859375 102.121094 154.859375 102.121094 154.859375 C 102.5 154.859375 102.878906 154.535156 102.878906 154.160156 C 102.988281 153.671875 102.664062 153.292969 102.230469 153.292969 Z M 102.230469 153.292969 " fill-opacity="1" fill-rule="nonzero"/><path fill="#a9a0f0" d="M 102.230469 160.316406 L 86.191406 158.964844 C 85.757812 158.910156 85.382812 159.234375 85.328125 159.667969 C 85.273438 160.097656 85.597656 160.476562 86.03125 160.53125 L 102.070312 161.882812 C 102.070312 161.882812 102.121094 161.882812 102.121094 161.882812 C 102.5 161.882812 102.878906 161.558594 102.878906 161.179688 C 102.988281 160.746094 102.664062 160.367188 102.230469 160.316406 Z M 102.230469 160.316406 " fill-opacity="1" fill-rule="nonzero"/><path fill="#a9a0f0" d="M 102.230469 167.390625 L 86.191406 166.039062 C 85.757812 165.984375 85.382812 166.308594 85.328125 166.742188 C 85.273438 167.171875 85.597656 167.550781 86.03125 167.605469 L 102.070312 168.957031 C 102.070312 168.957031 102.121094 168.957031 102.121094 168.957031 C 102.5 168.957031 102.878906 168.632812 102.878906 168.253906 C 102.988281 167.820312 102.664062 167.445312 102.230469 167.390625 Z M 102.230469 167.390625 " fill-opacity="1" fill-rule="nonzero"/><path fill="#a9a0f0" d="M 102.230469 174.464844 L 86.191406 173.058594 C 85.757812 173.007812 85.382812 173.332031 85.328125 173.761719 C 85.273438 174.195312 85.597656 174.574219 86.03125 174.625 L 102.070312 176.03125 C 102.070312 176.03125 102.121094 176.03125 102.121094 176.03125 C 102.5 176.03125 102.878906 175.707031 102.878906 175.328125 C 102.988281 174.84375 102.664062 174.464844 102.230469 174.464844 Z M 102.230469 174.464844 " fill-opacity="1" fill-rule="nonzero"/><path fill="#a9a0f0" d="M 102.230469 181.484375 L 86.191406 180.082031 C 85.757812 180.082031 85.382812 180.351562 85.328125 180.78125 C 85.273438 181.214844 85.597656 181.59375 86.03125 181.648438 L 102.070312 183.050781 C 102.070312 183.050781 102.121094 183.050781 102.121094 183.050781 C 102.5 183.050781 102.878906 182.726562 102.878906 182.347656 C 102.988281 181.917969 102.664062 181.539062 102.230469 181.484375 Z M 102.230469 181.484375 " fill-opacity="1" fill-rule="nonzero"/><path fill="#a9a0f0" d="M 102.230469 188.558594 L 86.191406 187.15625 C 85.757812 187.101562 85.382812 187.425781 85.328125 187.859375 C 85.273438 188.289062 85.597656 188.667969 86.03125 188.722656 L 102.070312 190.125 C 102.070312 190.125 102.121094 190.125 102.121094 190.125 C 102.5 190.125 102.878906 189.800781 102.878906 189.425781 C 102.988281 188.992188 102.664062 188.613281 102.230469 188.558594 Z M 102.230469 188.558594 " fill-opacity="1" fill-rule="nonzero"/><path fill="#a9a0f0" d="M 102.230469 195.632812 L 86.191406 194.285156 C 85.757812 194.230469 85.382812 194.554688 85.328125 194.988281 C 85.273438 195.417969 85.597656 195.796875 86.03125 195.851562 L 102.070312 197.199219 C 102.070312 197.199219 102.121094 197.199219 102.121094 197.199219 C 102.5 197.199219 102.878906 196.875 102.878906 196.5 C 102.988281 196.011719 102.664062 195.632812 102.230469 195.632812 Z M 102.230469 195.632812 " fill-opacity="1" fill-rule="nonzero"/><path fill="#a9a0f0" d="M 151.699219 37.9375 C 155.75 37.722656 157.75 37.832031 159.691406 37.886719 C 160.71875 37.9375 161.746094 37.9375 163.042969 37.9375 C 164.285156 37.9375 165.796875 37.886719 167.738281 37.832031 L 171.25 37.832031 C 171.683594 37.832031 172.007812 37.507812 172.007812 37.074219 C 172.007812 36.644531 171.683594 36.320312 171.25 36.320312 L 167.6875 36.320312 C 163.636719 36.535156 161.636719 36.425781 159.691406 36.371094 C 157.695312 36.320312 155.695312 36.210938 151.59375 36.425781 C 151.160156 36.425781 150.835938 36.804688 150.835938 37.238281 C 150.890625 37.613281 151.214844 37.9375 151.699219 37.9375 Z M 151.699219 37.9375 " fill-opacity="1" fill-rule="nonzero"/><path fill="#a9a0f0" d="M 175.949219 37.238281 L 177.730469 37.238281 C 178.164062 37.238281 178.488281 36.914062 178.488281 36.480469 C 178.488281 36.046875 178.164062 35.722656 177.730469 35.722656 L 175.949219 35.722656 C 175.515625 35.722656 175.191406 36.046875 175.191406 36.480469 C 175.191406 36.914062 175.515625 37.238281 175.949219 37.238281 Z M 175.949219 37.238281 " fill-opacity="1" fill-rule="nonzero"/><path fill="#a9a0f0" d="M 165.957031 73.042969 C 167.199219 73.691406 168.550781 73.796875 169.792969 73.796875 C 170.117188 73.796875 170.386719 73.796875 170.65625 73.796875 C 171.089844 73.796875 171.410156 73.421875 171.410156 72.988281 C 171.410156 72.554688 171.035156 72.230469 170.65625 72.230469 C 169.359375 72.285156 167.847656 72.285156 166.714844 71.691406 C 165.742188 71.207031 165.039062 69.964844 165.472656 69.046875 C 165.6875 68.667969 165.527344 68.183594 165.09375 68.019531 C 164.714844 67.804688 164.230469 67.964844 164.066406 68.398438 C 163.203125 70.070312 164.390625 72.179688 165.957031 73.042969 Z M 165.957031 73.042969 " fill-opacity="1" fill-rule="nonzero"/><path fill="#a9a0f0" d="M 174.382812 73.582031 C 174.4375 73.582031 174.542969 73.582031 174.597656 73.527344 L 175.570312 73.257812 C 176.003906 73.148438 176.21875 72.71875 176.109375 72.285156 C 176.003906 71.855469 175.570312 71.636719 175.136719 71.746094 L 174.167969 72.015625 C 173.734375 72.125 173.519531 72.554688 173.625 72.988281 C 173.734375 73.367188 174.058594 73.582031 174.382812 73.582031 Z M 174.382812 73.582031 " fill-opacity="1" fill-rule="nonzero"/><path fill="#a9a0f0" d="M 126.859375 108.792969 C 129.339844 108.957031 131.773438 109.0625 134.257812 109.0625 C 139.277344 109.0625 144.300781 108.738281 149.214844 108.039062 C 149.648438 107.984375 149.972656 107.605469 149.863281 107.171875 C 149.753906 106.742188 149.433594 106.472656 149 106.527344 C 141.707031 107.496094 134.308594 107.769531 126.910156 107.28125 C 126.480469 107.226562 126.101562 107.605469 126.101562 108.039062 C 126.101562 108.363281 126.425781 108.738281 126.859375 108.792969 Z M 126.859375 108.792969 " fill-opacity="1" fill-rule="nonzero"/><path fill="#a9a0f0" d="M 154.398438 107.929688 C 154.453125 107.929688 154.453125 107.929688 154.507812 107.929688 L 156.722656 107.660156 C 157.15625 107.605469 157.480469 107.226562 157.425781 106.796875 C 157.371094 106.363281 156.992188 106.09375 156.558594 106.09375 L 154.347656 106.363281 C 153.914062 106.417969 153.589844 106.796875 153.644531 107.226562 C 153.699219 107.660156 154.023438 107.929688 154.398438 107.929688 Z M 154.398438 107.929688 " fill-opacity="1" fill-rule="nonzero"/><path fill="#a9a0f0" d="M 219.585938 237.597656 L 219.585938 216.695312 C 219.585938 216.265625 219.261719 215.941406 218.828125 215.941406 C 218.398438 215.941406 218.074219 216.265625 218.074219 216.695312 L 218.074219 237.597656 C 218.074219 238.027344 218.398438 238.351562 218.828125 238.351562 C 219.261719 238.351562 219.585938 238.027344 219.585938 237.597656 Z M 219.585938 237.597656 " fill-opacity="1" fill-rule="nonzero"/><path fill="#a9a0f0" d="M 219.261719 244.238281 C 218.828125 244.238281 218.503906 244.5625 218.503906 244.996094 L 218.503906 247.964844 C 218.503906 248.398438 218.828125 248.722656 219.261719 248.722656 C 219.691406 248.722656 220.015625 248.398438 220.015625 247.964844 L 220.015625 244.996094 C 220.070312 244.5625 219.691406 244.238281 219.261719 244.238281 Z M 219.261719 244.238281 " fill-opacity="1" fill-rule="nonzero"/><path fill="#a9a0f0" d="M 77.550781 105.878906 C 77.117188 105.878906 76.792969 106.203125 76.792969 106.632812 L 76.792969 115.4375 C 76.792969 115.867188 77.117188 116.191406 77.550781 116.191406 C 77.984375 116.191406 78.308594 115.867188 78.308594 115.4375 L 78.308594 106.6875 C 78.308594 106.253906 77.984375 105.878906 77.550781 105.878906 Z M 77.550781 105.878906 " fill-opacity="1" fill-rule="nonzero"/><path fill="#a9a0f0" d="M 109.847656 219.234375 L 109.847656 227.226562 C 109.847656 227.660156 110.167969 227.984375 110.601562 227.984375 C 111.035156 227.984375 111.359375 227.660156 111.359375 227.226562 L 111.359375 219.234375 C 111.359375 218.804688 111.035156 218.480469 110.601562 218.480469 C 110.167969 218.480469 109.847656 218.804688 109.847656 219.234375 Z M 109.847656 219.234375 " fill-opacity="1" fill-rule="nonzero"/><path fill="#a9a0f0" d="M 109.792969 232.84375 C 109.359375 232.84375 109.035156 233.167969 109.035156 233.601562 L 109.035156 235.597656 C 109.035156 236.03125 109.359375 236.355469 109.792969 236.355469 C 110.222656 236.355469 110.546875 236.03125 110.546875 235.597656 L 110.546875 233.601562 C 110.601562 233.222656 110.222656 232.84375 109.792969 232.84375 Z M 109.792969 232.84375 " fill-opacity="1" fill-rule="nonzero"/></svg>