<svg xmlns="http://www.w3.org/2000/svg" xmlns:xlink="http://www.w3.org/1999/xlink" width="400" zoomAndPan="magnify" viewBox="0 0 300 299.999988" height="400" preserveAspectRatio="xMidYMid meet" version="1.0"><defs><clipPath id="1aa28fa40b"><path d="M 92.550781 30 L 207.300781 30 L 207.300781 270 L 92.550781 270 Z M 92.550781 30 " clip-rule="nonzero"/></clipPath></defs><g clip-path="url(#1aa28fa40b)"><path fill="#a9a0f0" d="M 207.34375 246.910156 C 207.265625 241.84375 207.34375 236.742188 207.34375 231.675781 C 207.304688 207.449219 207.1875 183.21875 206.914062 158.992188 C 206.714844 143.679688 206.675781 128.324219 206.519531 113.011719 C 206.441406 105.628906 206.558594 98.246094 206.089844 90.863281 C 206.089844 90.707031 206.089844 90.550781 206.089844 90.394531 C 206.050781 88.78125 205.617188 87.289062 204.832031 85.878906 C 197.683594 72.800781 190.617188 59.648438 182.605469 47.003906 C 182.214844 46.375 182.097656 45.707031 182.136719 44.960938 C 182.292969 42.488281 182.410156 40.050781 182.527344 37.578125 C 182.605469 36.085938 182.605469 34.554688 182.605469 33.0625 C 182.566406 31.375 182.136719 30.902344 180.484375 30.394531 C 179.464844 30.078125 178.445312 30.078125 177.421875 30.078125 C 168.589844 30 159.792969 30.039062 150.996094 30.628906 C 145.382812 31.019531 139.726562 31.21875 134.113281 31.570312 C 131.480469 31.726562 128.890625 31.964844 126.296875 32.238281 C 121.429688 32.671875 116.714844 33.257812 111.925781 33.101562 C 111.375 33.101562 110.828125 33.101562 110.277344 33.179688 C 109.019531 33.378906 108.273438 34.121094 108.078125 35.339844 C 108 35.890625 108 36.441406 108 36.988281 C 108.078125 41.425781 107.960938 45.902344 108.351562 50.339844 C 108.429688 51.203125 108.3125 52.066406 108.039062 52.894531 C 107.253906 55.484375 106.546875 58.074219 105.800781 60.667969 C 103.601562 68.207031 101.558594 75.785156 99.007812 83.246094 C 97.710938 87.015625 96.492188 90.785156 95.355469 94.554688 C 94.492188 97.382812 93.863281 100.25 93.863281 103.195312 C 93.785156 121.375 93.628906 139.554688 93.589844 157.773438 C 93.507812 177.878906 93.507812 197.945312 93.46875 218.050781 C 93.46875 225.195312 93.390625 232.34375 93.15625 239.488281 C 92.960938 244.949219 92.84375 250.445312 92.722656 255.902344 C 92.605469 258.023438 92.605469 260.066406 92.605469 262.148438 C 92.644531 265.011719 93.824219 266.503906 96.652344 267.25 C 97.121094 267.367188 97.59375 267.449219 98.066406 267.527344 C 99.871094 267.839844 101.675781 267.996094 103.523438 268.035156 C 107.960938 268.074219 112.398438 268.273438 116.835938 268.664062 C 118.71875 268.820312 120.644531 269.058594 122.527344 269.175781 C 130.460938 269.6875 138.390625 270 147.382812 269.882812 C 157.28125 269.882812 168.234375 269.292969 179.191406 268.820312 C 180.527344 268.78125 181.898438 268.625 183.234375 268.46875 C 184.726562 268.273438 186.21875 267.878906 187.4375 266.9375 C 191.089844 264.265625 194.738281 261.597656 198.078125 258.496094 C 200 256.726562 201.925781 254.960938 204.085938 253.46875 C 206.363281 251.859375 207.382812 249.699219 207.34375 246.910156 Z M 182.722656 56.503906 C 184.296875 58.902344 185.746094 61.335938 187.160156 63.847656 C 191.207031 71.152344 195.289062 78.378906 199.375 85.679688 C 199.648438 86.152344 199.921875 86.621094 200.199219 87.132812 C 200.628906 87.917969 200.550781 88.113281 199.648438 88.585938 C 199.492188 88.664062 199.375 88.742188 199.214844 88.820312 C 194.308594 91.097656 189.4375 93.335938 184.53125 95.613281 C 183.824219 95.929688 183.46875 95.773438 183.351562 95.066406 C 183.273438 94.4375 183.234375 93.808594 183.195312 93.179688 C 183.195312 84.582031 182.605469 76.058594 182.214844 67.460938 C 182.015625 63.652344 181.898438 59.84375 181.742188 55.957031 C 182.449219 55.957031 182.527344 56.269531 182.722656 56.503906 Z M 112.082031 38.480469 C 112.121094 37.578125 112.320312 37.34375 113.222656 37.34375 C 115.851562 37.304688 118.445312 37.34375 121.074219 37.105469 C 125.90625 36.714844 130.734375 36.203125 135.566406 36.046875 C 139.214844 35.929688 142.867188 35.695312 146.519531 35.496094 C 155.945312 34.988281 165.40625 34.59375 174.832031 34.710938 C 175.382812 34.710938 175.929688 34.671875 176.480469 34.710938 C 177.265625 34.75 177.5 34.988281 177.5 35.695312 C 177.5 36.636719 177.460938 37.617188 177.421875 38.558594 C 177.34375 41.035156 177.304688 43.46875 177.226562 45.941406 C 177.1875 46.804688 176.953125 47.042969 176.089844 47.121094 C 175.773438 47.160156 175.460938 47.160156 175.144531 47.160156 C 164.898438 47.511719 154.6875 47.828125 144.4375 48.179688 C 144.4375 48.179688 144.4375 48.179688 144.4375 48.140625 C 136.585938 48.457031 128.730469 48.730469 120.878906 49.042969 C 118.246094 49.164062 115.65625 49.398438 113.027344 49.554688 C 112.199219 49.59375 111.886719 49.398438 111.925781 48.730469 C 111.964844 45.3125 112.003906 41.898438 112.082031 38.480469 Z M 99.558594 98.167969 C 100.421875 95.339844 101.324219 92.550781 102.148438 89.765625 C 105.484375 78.496094 108.785156 67.226562 112.082031 55.996094 C 112.945312 53.089844 112.359375 53.363281 115.578125 53.363281 C 123.351562 53.324219 131.128906 53.011719 138.902344 52.695312 C 140.867188 52.617188 142.867188 52.578125 144.871094 52.5 C 144.871094 52.5 144.871094 52.460938 144.871094 52.460938 C 154.84375 52.066406 164.859375 51.714844 174.832031 51.320312 C 175.222656 51.320312 175.617188 51.28125 176.007812 51.28125 C 176.363281 51.28125 176.636719 51.558594 176.675781 51.871094 C 176.796875 52.578125 176.875 53.285156 176.875 53.992188 C 177.109375 60.589844 177.421875 67.148438 177.582031 73.742188 C 177.738281 80.734375 178.011719 87.722656 178.484375 94.671875 C 178.523438 95.066406 178.5625 95.457031 178.5625 95.851562 C 178.5625 96.28125 178.328125 96.597656 177.855469 96.636719 C 177.304688 96.675781 176.753906 96.675781 176.207031 96.675781 C 163.011719 96.675781 149.859375 97.1875 136.703125 97.617188 C 128.144531 97.894531 119.582031 98.167969 110.984375 98.441406 C 107.410156 98.558594 103.835938 98.835938 100.304688 98.992188 C 99.636719 99.070312 99.398438 98.796875 99.558594 98.167969 Z M 180.171875 263.679688 C 178.011719 263.796875 175.890625 263.875 173.730469 263.992188 C 164.074219 264.464844 154.375 264.816406 144.675781 264.738281 C 136.976562 264.660156 129.242188 264.582031 121.585938 263.875 C 114.949219 263.207031 108.3125 263.285156 101.636719 263.285156 C 96.886719 263.324219 97.671875 263.757812 97.789062 259.359375 C 98.261719 240.078125 98.378906 220.757812 98.457031 201.480469 C 98.574219 171.871094 98.574219 142.226562 98.613281 112.617188 C 98.613281 110.144531 98.652344 107.710938 98.652344 105.234375 C 98.652344 104.6875 98.652344 104.136719 98.691406 103.585938 C 98.730469 102.839844 98.96875 102.683594 99.753906 102.644531 C 100.066406 102.644531 100.382812 102.644531 100.695312 102.644531 C 113.417969 102.800781 126.101562 102.527344 138.824219 102.210938 C 144.476562 102.09375 150.09375 101.9375 155.746094 101.859375 C 162.738281 101.742188 169.726562 101.582031 176.714844 101.191406 C 177.1875 101.152344 177.660156 101.152344 178.128906 101.152344 C 178.992188 101.191406 179.191406 101.425781 179.230469 102.328125 C 179.269531 102.878906 179.230469 103.429688 179.230469 103.980469 C 179.113281 116.542969 179.347656 129.070312 179.542969 141.636719 C 179.660156 149.410156 179.78125 157.1875 179.898438 165 C 179.976562 170.8125 180.054688 176.582031 180.132812 182.394531 C 180.132812 182.394531 180.132812 182.394531 180.09375 182.394531 C 180.367188 197.550781 180.644531 212.710938 180.878906 227.90625 C 181.035156 236.542969 181.152344 245.222656 181.3125 253.859375 C 181.351562 256.492188 181.429688 259.082031 181.46875 261.714844 C 181.46875 261.871094 181.507812 262.027344 181.507812 262.1875 C 181.507812 263.441406 181.351562 263.597656 180.171875 263.679688 Z M 202.238281 249.386719 C 200.238281 250.957031 198.351562 252.644531 196.3125 254.175781 C 193.484375 256.335938 190.578125 258.417969 187.710938 260.535156 C 187.359375 260.8125 187.003906 261.203125 186.453125 261.125 C 185.90625 260.535156 186.0625 259.789062 186.023438 259.082031 C 185.945312 255.351562 185.867188 251.621094 185.828125 247.894531 C 185.707031 238.429688 185.589844 229.003906 185.472656 219.542969 C 185.238281 203.167969 185 186.832031 184.765625 170.457031 C 184.648438 162.210938 184.53125 153.925781 184.414062 145.679688 C 184.214844 131.464844 184.019531 117.25 183.507812 103.035156 C 183.390625 100.011719 183.117188 100.523438 185.984375 99.265625 C 190.617188 97.226562 195.25 95.144531 199.882812 93.023438 C 202.554688 91.804688 202.476562 91.804688 202.4375 94.75 C 202.359375 102.527344 202.398438 110.300781 202.398438 118.113281 C 202.4375 144.070312 202.476562 170.066406 202.554688 196.019531 C 202.59375 211.726562 202.789062 227.472656 202.90625 243.179688 C 202.90625 244.59375 202.945312 246.046875 203.027344 247.460938 C 203.105469 248.324219 202.867188 248.914062 202.238281 249.386719 Z M 176.246094 189.738281 C 176.246094 190.445312 175.773438 191.074219 174.988281 191.308594 C 174.398438 191.464844 173.730469 191.582031 173.105469 191.582031 C 167.882812 191.820312 162.660156 192.09375 157.4375 192.289062 C 151.976562 192.488281 146.480469 192.605469 141.023438 192.761719 C 140.238281 192.800781 139.453125 192.839844 138.628906 192.839844 C 138.3125 192.839844 138 192.878906 137.683594 192.878906 C 128.890625 192.996094 120.09375 193.3125 111.296875 193.15625 C 109.882812 193.113281 108.429688 193.035156 107.015625 192.839844 C 105.957031 192.722656 105.527344 192.289062 105.445312 191.664062 C 105.40625 190.996094 105.917969 190.484375 107.058594 190.25 C 109.648438 189.738281 112.238281 189.660156 114.871094 189.503906 C 130.460938 188.640625 146.089844 188.246094 161.714844 188.011719 C 165.445312 187.933594 169.175781 187.894531 172.90625 187.851562 C 173.613281 187.851562 174.320312 187.8125 175.027344 188.089844 C 175.8125 188.441406 176.246094 189.03125 176.246094 189.738281 Z M 106.507812 131.742188 C 105.800781 131.621094 105.289062 131.074219 105.289062 130.484375 C 105.289062 129.972656 105.722656 129.464844 106.3125 129.304688 C 107.097656 129.148438 107.882812 128.992188 108.667969 128.953125 C 111.296875 128.796875 113.890625 128.640625 116.519531 128.558594 C 125.867188 128.285156 135.25 128.050781 144.597656 127.773438 C 153.941406 127.5 163.328125 127.265625 172.671875 126.988281 C 173.066406 126.988281 173.457031 126.949219 173.851562 126.988281 C 174.871094 127.105469 175.539062 127.773438 175.539062 128.679688 C 175.539062 129.464844 174.988281 130.132812 174.085938 130.328125 C 173.613281 130.445312 173.144531 130.445312 172.671875 130.445312 C 166.703125 130.601562 160.773438 130.757812 154.804688 130.917969 C 149.898438 131.035156 144.949219 131.191406 140.042969 131.347656 C 130.695312 131.582031 121.3125 131.898438 111.964844 131.898438 C 110.707031 131.898438 109.414062 131.898438 108.15625 131.859375 C 107.605469 131.859375 107.015625 131.820312 106.507812 131.742188 Z M 113.890625 158.953125 C 116.714844 161.425781 120.367188 161.386719 123.117188 158.875 C 124.175781 157.894531 124.960938 156.714844 125.550781 155.378906 C 127.199219 151.6875 127.75 147.800781 127.199219 143.757812 C 126.886719 141.441406 125.828125 139.4375 124.253906 137.632812 C 121.664062 134.726562 116.128906 134.292969 113.691406 139.082031 C 111.964844 142.460938 110.867188 145.957031 110.828125 149.765625 C 110.867188 150.863281 110.867188 152.003906 110.984375 153.101562 C 111.335938 155.378906 112.121094 157.382812 113.890625 158.953125 Z M 116.363281 142.578125 C 117.03125 141.320312 118.167969 140.261719 119.503906 139.828125 C 123.039062 138.652344 123.824219 146.898438 122.371094 152.003906 C 122.097656 152.984375 121.625 153.925781 120.996094 154.75 C 120.40625 155.535156 119.660156 156.046875 118.679688 156.320312 C 117.304688 156.675781 115.65625 155.300781 115.183594 153.964844 C 113.8125 149.960938 114.398438 146.386719 116.363281 142.578125 Z M 111.808594 163.429688 C 112.320312 163.820312 112.710938 164.292969 113.105469 164.804688 C 114.359375 166.53125 115.578125 168.296875 116.835938 170.027344 C 117.1875 170.535156 117.421875 171.164062 118.089844 171.402344 C 118.71875 171.085938 118.914062 170.457031 119.269531 169.949219 C 120.445312 168.140625 121.585938 166.335938 122.722656 164.527344 C 123 164.136719 123.195312 163.703125 123.507812 163.351562 C 124.375 162.410156 125.945312 162.644531 126.492188 163.820312 C 126.808594 164.566406 126.886719 165.351562 126.886719 166.140625 C 126.964844 171.203125 127.082031 176.308594 127.160156 181.375 C 127.160156 182.082031 127.160156 182.828125 127.003906 183.496094 C 126.808594 184.4375 126.023438 185.105469 125.199219 185.105469 C 124.375 185.144531 123.550781 184.515625 123.351562 183.574219 C 123.195312 182.867188 123.15625 182.160156 123.15625 181.453125 C 123.078125 178.429688 123.039062 175.40625 123 172.421875 C 123 171.949219 122.960938 171.480469 122.882812 171.007812 C 122.882812 170.929688 121.429688 172.148438 120.957031 172.773438 C 120.40625 173.558594 119.898438 174.34375 119.269531 175.089844 C 118.640625 175.835938 117.738281 175.917969 116.914062 175.445312 C 116.207031 175.050781 115.65625 174.464844 115.144531 173.875 C 114.320312 172.8125 113.496094 171.753906 112.671875 170.65625 C 112.515625 170.457031 112.359375 170.339844 112.082031 170.378906 C 111.769531 170.457031 111.769531 170.734375 111.769531 170.96875 C 111.730469 172.773438 111.691406 174.621094 111.652344 176.425781 C 111.613281 178.507812 111.574219 180.550781 111.535156 182.628906 C 111.535156 183.257812 111.492188 183.886719 111.179688 184.476562 C 110.90625 185.027344 110.433594 185.339844 109.84375 185.339844 C 109.253906 185.339844 108.824219 185.027344 108.507812 184.476562 C 108.195312 183.886719 108.15625 183.257812 108.15625 182.628906 C 108.117188 181.21875 108.039062 179.765625 108.039062 178.351562 C 108.117188 174.386719 108.234375 170.417969 108.351562 166.453125 C 108.390625 165.746094 108.429688 165 108.667969 164.332031 C 109.175781 162.996094 110.628906 162.566406 111.808594 163.429688 Z M 143.339844 155.773438 C 143.652344 156.675781 143.890625 157.617188 144.28125 158.441406 C 144.597656 159.148438 145.34375 159.425781 146.089844 159.304688 C 146.875 159.148438 147.542969 158.441406 147.542969 157.65625 C 147.542969 157.1875 147.382812 156.714844 147.265625 156.28125 C 146.953125 155.144531 146.597656 154.003906 146.246094 152.867188 C 144.714844 147.878906 143.183594 142.851562 141.652344 137.867188 C 141.375 137.042969 141.101562 136.179688 140.667969 135.472656 C 139.84375 134.097656 138.15625 134.175781 137.449219 135.628906 C 137.214844 136.140625 137.058594 136.6875 136.898438 137.199219 C 135.171875 142.894531 133.5625 148.625 132.109375 154.398438 C 131.835938 155.457031 131.675781 156.558594 131.519531 157.34375 C 131.519531 157.972656 131.480469 158.285156 131.519531 158.597656 C 131.597656 159.304688 132.03125 159.777344 132.660156 159.972656 C 133.167969 160.171875 133.914062 159.894531 134.308594 159.304688 C 134.660156 158.796875 134.9375 158.207031 135.171875 157.617188 C 135.445312 156.871094 135.683594 156.125 135.917969 155.378906 C 136.113281 154.789062 136.507812 154.515625 137.175781 154.515625 C 138.667969 154.59375 140.199219 154.59375 141.691406 154.59375 C 142.828125 154.59375 142.90625 154.632812 143.339844 155.773438 Z M 140.828125 150.824219 C 139.726562 150.863281 138.628906 150.902344 137.214844 150.785156 C 137.804688 148.546875 138.3125 146.542969 138.824219 144.582031 C 138.863281 144.464844 139.019531 144.34375 139.136719 144.265625 C 139.453125 144.148438 139.570312 144.425781 139.648438 144.621094 C 140.238281 146.425781 140.828125 148.195312 141.414062 150 C 141.535156 150.472656 141.296875 150.785156 140.828125 150.824219 Z M 157.199219 181.492188 C 156.886719 175.523438 157.121094 169.59375 157.945312 163.703125 C 158.027344 163.074219 158.144531 162.449219 158.457031 161.898438 C 158.929688 161.035156 159.753906 160.640625 160.617188 160.835938 C 161.402344 161.035156 161.953125 161.621094 161.992188 162.566406 C 162.03125 163.429688 161.953125 164.292969 161.914062 165.15625 C 161.875 165.941406 161.835938 166.726562 161.796875 167.550781 C 161.796875 167.75 161.875 168.023438 161.992188 168.179688 C 162.1875 168.378906 162.460938 168.21875 162.621094 168.101562 C 163.246094 167.632812 163.835938 167.082031 164.464844 166.609375 C 165.644531 165.667969 166.820312 164.726562 168.039062 163.820312 C 168.746094 163.3125 169.53125 162.878906 170.394531 162.683594 C 170.984375 162.566406 171.492188 162.761719 171.847656 163.273438 C 172.160156 163.703125 172.121094 164.332031 171.691406 164.804688 C 171.257812 165.273438 170.789062 165.667969 170.277344 166.097656 C 168.078125 167.945312 165.917969 169.75 163.445312 171.832031 C 166.3125 174.109375 168.3125 176.78125 170.90625 178.859375 C 171.375 179.253906 171.847656 179.726562 172.199219 180.234375 C 172.75 181.019531 172.632812 182.003906 172.042969 182.671875 C 171.453125 183.335938 170.550781 183.535156 169.648438 183.21875 C 168.980469 182.945312 168.429688 182.511719 167.882812 182.003906 C 166.152344 180.351562 164.425781 178.742188 162.699219 177.09375 C 162.542969 176.9375 162.34375 176.78125 162.148438 176.621094 C 161.875 176.386719 161.480469 176.542969 161.441406 176.859375 C 161.363281 178.035156 161.363281 179.214844 161.285156 180.433594 C 161.246094 181.140625 161.246094 181.886719 161.089844 182.550781 C 160.890625 183.496094 160.105469 184.003906 159.164062 183.964844 C 158.222656 183.964844 157.515625 183.375 157.28125 182.472656 C 157.28125 182.160156 157.238281 181.804688 157.199219 181.492188 Z M 156.769531 158.050781 C 155.867188 158.050781 155.082031 157.460938 154.84375 156.558594 C 154.726562 156.007812 154.6875 155.457031 154.6875 154.910156 C 154.6875 152.589844 154.921875 143.089844 154.921875 140.613281 C 154.921875 139.515625 154.765625 139.359375 153.746094 139.242188 C 152.722656 139.121094 151.703125 139.042969 150.683594 138.964844 C 150.367188 138.925781 150.054688 138.925781 149.738281 138.847656 C 148.71875 138.652344 148.089844 138.140625 148.011719 137.472656 C 147.933594 136.804688 148.445312 136.21875 149.542969 135.941406 C 150.09375 135.785156 150.644531 135.667969 151.191406 135.628906 C 155 135.3125 158.8125 135.078125 162.621094 135.234375 C 163.167969 135.273438 163.71875 135.3125 164.269531 135.433594 C 165.132812 135.667969 165.605469 136.414062 165.605469 137.199219 C 165.566406 137.984375 165.054688 138.691406 164.191406 138.925781 C 163.640625 139.042969 163.089844 139.082031 162.542969 139.121094 C 162.226562 139.164062 161.914062 139.164062 161.597656 139.203125 C 160.222656 139.320312 160.105469 139.4375 159.988281 140.734375 C 159.910156 141.988281 159.871094 143.285156 159.792969 144.542969 C 159.597656 147.957031 159.359375 151.335938 159.125 154.75 C 159.085938 155.378906 158.96875 156.007812 158.8125 156.636719 C 158.457031 157.539062 157.671875 158.050781 156.769531 158.050781 Z M 116.050781 121.804688 C 116.007812 121.257812 116.285156 120.863281 116.796875 120.746094 C 117.382812 120.589844 118.050781 120.472656 118.679688 120.472656 C 126.140625 120.195312 133.5625 119.960938 141.023438 119.765625 C 147.855469 119.566406 154.648438 119.371094 161.480469 119.175781 C 162.03125 119.175781 162.582031 119.136719 163.128906 119.214844 C 163.875 119.332031 164.464844 119.960938 164.503906 120.667969 C 164.542969 121.414062 163.953125 122.160156 163.089844 122.316406 C 162.699219 122.394531 162.304688 122.355469 161.914062 122.355469 C 154.609375 122.472656 147.34375 122.550781 139.214844 122.710938 C 133.328125 122.984375 126.574219 122.984375 119.859375 122.945312 C 118.914062 122.945312 117.972656 122.90625 117.03125 122.789062 C 116.480469 122.710938 116.089844 122.394531 116.050781 121.804688 Z M 164.113281 198.652344 C 164.074219 199.242188 163.523438 199.867188 162.933594 200.027344 C 162.542969 200.105469 162.148438 200.105469 161.753906 200.144531 C 155.199219 200.261719 148.601562 200.378906 142.042969 200.535156 C 136.351562 200.65625 130.617188 200.65625 124.921875 200.574219 C 123.824219 200.574219 122.683594 200.535156 121.585938 200.417969 C 121.035156 200.378906 120.484375 200.183594 120.015625 199.988281 C 119.738281 199.867188 119.582031 199.554688 119.582031 199.203125 C 119.582031 198.847656 119.78125 198.574219 120.054688 198.417969 C 120.328125 198.257812 120.644531 198.140625 120.957031 198.140625 C 122.214844 198.023438 123.46875 197.828125 124.726562 197.789062 C 130.261719 197.589844 135.800781 197.433594 141.375 197.277344 C 146.050781 197.160156 150.722656 197.160156 155.394531 197.121094 C 157.4375 197.082031 159.515625 197.042969 161.558594 196.964844 C 162.109375 196.964844 162.660156 196.925781 163.167969 197.160156 C 163.757812 197.433594 164.152344 198.0625 164.113281 198.652344 Z M 144.949219 179.488281 C 144.949219 177.605469 144.988281 175.679688 145.027344 173.324219 C 145.105469 170.929688 145.105469 168.101562 145.539062 165.273438 C 145.617188 164.648438 145.65625 164.019531 145.96875 163.429688 C 146.324219 162.761719 146.875 162.328125 147.660156 162.328125 C 148.40625 162.328125 149.230469 162.878906 149.386719 163.703125 C 149.582031 164.527344 149.699219 165.433594 149.699219 166.296875 C 149.699219 168.179688 149.582031 170.105469 149.503906 171.988281 C 149.386719 174.1875 149.269531 176.425781 149.152344 178.625 C 149.113281 179.214844 149.386719 179.488281 149.976562 179.527344 C 150.761719 179.566406 151.546875 179.566406 152.332031 179.605469 C 153.039062 179.648438 153.746094 179.765625 154.414062 180.078125 C 155.121094 180.433594 155.472656 180.980469 155.433594 181.804688 C 155.394531 182.589844 155 183.140625 154.253906 183.417969 C 153.824219 183.574219 153.351562 183.691406 152.882812 183.730469 C 150.800781 183.886719 148.796875 183.457031 146.753906 183.21875 C 145.8125 183.101562 145.222656 182.394531 145.066406 181.453125 C 144.988281 180.746094 144.949219 180.117188 144.949219 179.488281 Z M 138.234375 164.566406 C 138.351562 165.195312 138.351562 165.824219 138.351562 166.453125 C 138.351562 168.730469 138.15625 177.917969 138.117188 180.234375 C 138.117188 180.941406 138.117188 181.648438 137.84375 182.355469 C 137.527344 183.179688 136.976562 183.652344 136.113281 183.730469 C 135.25 183.808594 134.386719 183.21875 134.113281 182.355469 C 133.992188 182.003906 133.953125 181.570312 133.914062 181.179688 C 133.445312 176.035156 133.5625 170.890625 133.757812 165.746094 C 133.757812 165.273438 133.875 164.804688 133.992188 164.332031 C 134.347656 163.15625 135.171875 162.488281 136.191406 162.527344 C 137.253906 162.644531 138.039062 163.351562 138.234375 164.566406 Z M 138.234375 164.566406 " fill-opacity="1" fill-rule="nonzero"/></g></svg>