<svg xmlns="http://www.w3.org/2000/svg" xmlns:xlink="http://www.w3.org/1999/xlink" width="400" zoomAndPan="magnify" viewBox="0 0 300 299.999988" height="400" preserveAspectRatio="xMidYMid meet" version="1.0"><defs><clipPath id="a38f3df27f"><path d="M 66 30 L 233.851562 30 L 233.851562 270 L 66 270 Z M 66 30 " clip-rule="nonzero"/></clipPath></defs><path fill="#caacde" d="M 123.277344 51.050781 C 123.394531 50.992188 123.507812 50.933594 123.507812 50.933594 C 123.453125 50.933594 123.335938 50.992188 123.277344 51.050781 Z M 123.277344 51.050781 " fill-opacity="1" fill-rule="nonzero"/><path fill="#caacde" d="M 121.3125 69.847656 C 121.3125 69.902344 121.3125 69.960938 121.3125 69.960938 C 121.3125 69.960938 121.3125 69.960938 121.3125 70.019531 C 121.371094 70.191406 121.429688 70.25 121.3125 69.847656 Z M 121.3125 69.847656 " fill-opacity="1" fill-rule="nonzero"/><path fill="#caacde" d="M 124.839844 50.183594 C 124.78125 50.183594 124.78125 50.183594 124.839844 50.183594 C 124.78125 50.183594 124.78125 50.183594 124.839844 50.183594 C 124.722656 50.242188 124.722656 50.242188 124.667969 50.242188 C 124.433594 50.355469 124.433594 50.472656 124.839844 50.183594 Z M 124.839844 50.183594 " fill-opacity="1" fill-rule="nonzero"/><path fill="#caacde" d="M 124.03125 73.199219 C 124.144531 73.199219 124.261719 73.257812 124.378906 73.316406 C 124.320312 73.257812 124.261719 73.199219 124.03125 73.199219 Z M 124.03125 73.199219 " fill-opacity="1" fill-rule="nonzero"/><path fill="#caacde" d="M 177.699219 67.707031 C 177.753906 67.707031 177.753906 67.707031 177.699219 67.707031 C 177.753906 67.476562 177.753906 66.953125 177.699219 67.707031 Z M 177.699219 67.707031 " fill-opacity="1" fill-rule="nonzero"/><g clip-path="url(#a38f3df27f)"><path fill="#caacde" d="M 228.992188 137.625 C 225.8125 132.535156 221.128906 128.890625 215.925781 126.058594 C 221.128906 115.128906 224.832031 101.882812 219.972656 90.203125 C 217.773438 84.996094 214.246094 80.71875 209.5625 77.539062 C 204.414062 74.066406 198.113281 72.332031 191.980469 71.984375 C 188.800781 71.8125 185.503906 72.101562 182.324219 72.796875 C 182.613281 72.160156 182.785156 71.523438 182.960938 70.886719 C 183.828125 67.589844 183.886719 64.0625 183.828125 60.707031 C 183.769531 58.742188 183.65625 56.71875 183.421875 54.75 C 183.019531 51.800781 182.324219 48.910156 180.183594 46.714844 C 178.160156 44.632812 175.441406 43.9375 172.667969 43.589844 C 172.433594 43.589844 172.144531 43.53125 171.914062 43.53125 C 172.78125 39.890625 172.839844 36.015625 170.179688 33.066406 C 167.402344 30 162.894531 30 159.074219 30 C 153.523438 30.058594 147.972656 30.117188 142.421875 30.171875 C 138.488281 30.230469 133.917969 30 130.566406 32.429688 C 128.714844 33.757812 127.441406 35.667969 127.039062 37.921875 C 126.691406 39.890625 126.75 41.796875 127.09375 43.707031 C 124.203125 44.109375 121.429688 44.976562 119.171875 47.003906 C 116.917969 48.96875 116.164062 51.746094 115.761719 54.636719 C 115.238281 58.511719 115.238281 62.386719 115.414062 66.316406 C 115.472656 68.167969 115.472656 70.136719 115.875 71.925781 C 116.222656 73.429688 117.03125 74.761719 118.074219 75.917969 C 119.808594 77.828125 122.351562 78.925781 124.839844 79.503906 C 125.011719 83.261719 125.128906 87.023438 124.839844 90.722656 C 124.78125 91.242188 124.722656 91.765625 124.667969 92.285156 C 124.667969 92.34375 124.667969 92.457031 124.609375 92.515625 C 124.609375 92.515625 124.550781 92.976562 124.550781 93.035156 C 124.378906 94.136719 124.144531 95.234375 123.914062 96.273438 C 123.683594 97.199219 123.453125 98.066406 123.105469 98.933594 C 122.929688 99.339844 122.816406 99.746094 122.640625 100.207031 C 122.585938 100.324219 122.46875 100.554688 122.46875 100.613281 C 122.351562 100.84375 122.238281 101.074219 122.121094 101.304688 C 121.660156 102.230469 121.195312 103.15625 120.617188 104.023438 C 120.386719 104.371094 120.15625 104.777344 119.867188 105.121094 C 119.691406 105.355469 119.578125 105.585938 119.402344 105.757812 C 119.402344 105.816406 119.347656 105.816406 119.347656 105.816406 C 119.230469 105.933594 119.113281 106.105469 119 106.222656 C 117.609375 107.957031 115.992188 109.460938 114.257812 110.90625 C 114.199219 110.964844 114.199219 110.964844 114.140625 110.964844 C 114.082031 110.964844 114.082031 111.023438 114.023438 111.078125 C 113.910156 111.195312 113.734375 111.3125 113.621094 111.367188 C 113.214844 111.65625 112.753906 111.945312 112.347656 112.234375 C 111.421875 112.871094 110.496094 113.394531 109.574219 113.972656 C 107.722656 115.011719 105.8125 115.996094 103.847656 116.863281 C 101.824219 117.789062 99.800781 118.65625 97.71875 119.523438 C 97.542969 119.582031 97.3125 119.695312 97.3125 119.695312 C 97.023438 119.8125 96.792969 119.925781 96.503906 120.042969 C 95.925781 120.273438 95.347656 120.507812 94.765625 120.796875 C 93.667969 121.257812 92.511719 121.71875 91.414062 122.242188 C 87.539062 123.917969 83.664062 125.769531 80.136719 128.140625 C 76.261719 130.742188 72.792969 133.980469 70.363281 138.027344 C 67.933594 142.078125 66.777344 146.589844 66.371094 151.273438 C 65.96875 155.78125 66.429688 160.292969 67.125 164.746094 C 67.933594 169.953125 69.089844 175.097656 70.132812 180.246094 C 72.503906 191.984375 74.875 203.78125 77.246094 215.523438 C 79.617188 227.148438 81.871094 238.828125 84.300781 250.394531 C 85.398438 255.714844 87.363281 261.09375 91.761719 264.5625 C 98.179688 269.652344 106.910156 270 114.777344 269.828125 C 123.914062 269.59375 133.050781 269.421875 142.1875 269.304688 C 151.09375 269.25 160 269.25 168.90625 269.421875 C 174.34375 269.539062 179.78125 269.652344 185.15625 269.828125 C 189.726562 269.941406 194.410156 269.828125 198.863281 268.726562 C 204.878906 267.28125 210.140625 263.753906 212.800781 258.027344 C 213.957031 255.484375 214.765625 252.765625 215.289062 249.992188 C 216.503906 244.035156 217.71875 238.078125 218.875 232.179688 C 221.246094 220.4375 223.617188 208.640625 225.988281 196.902344 C 227.144531 191.058594 228.359375 185.277344 229.515625 179.4375 C 230.496094 174.460938 231.652344 169.488281 232.40625 164.457031 C 233.851562 155.320312 234.023438 145.664062 228.992188 137.625 Z M 212.339844 120.042969 C 212.394531 119.871094 212.394531 119.871094 212.339844 120.042969 Z M 187.585938 77.882812 C 188.28125 77.828125 189.03125 77.828125 189.785156 77.769531 C 191.171875 77.769531 192.558594 77.828125 193.949219 77.941406 C 194.121094 77.941406 194.296875 78 194.46875 78 C 194.816406 78.058594 195.164062 78.117188 195.507812 78.171875 C 196.203125 78.289062 196.957031 78.460938 197.648438 78.636719 C 198.980469 78.984375 200.308594 79.386719 201.582031 79.851562 C 201.753906 79.910156 201.929688 80.023438 202.101562 80.082031 C 202.160156 80.082031 202.21875 80.140625 202.277344 80.140625 C 202.507812 80.253906 202.679688 80.371094 202.855469 80.429688 C 203.546875 80.777344 204.183594 81.121094 204.878906 81.46875 C 205.457031 81.816406 206.035156 82.164062 206.613281 82.570312 C 206.902344 82.742188 207.132812 82.914062 207.421875 83.148438 C 207.539062 83.203125 207.652344 83.320312 207.769531 83.378906 C 207.828125 83.4375 207.886719 83.4375 207.945312 83.492188 C 208.984375 84.363281 209.96875 85.230469 210.835938 86.269531 C 211.183594 86.617188 211.472656 87.023438 211.761719 87.367188 C 211.816406 87.425781 211.875 87.542969 211.933594 87.601562 C 212.105469 87.832031 212.28125 88.0625 212.453125 88.351562 C 213.03125 89.21875 213.554688 90.144531 214.015625 91.070312 C 214.132812 91.300781 214.246094 91.53125 214.363281 91.765625 C 214.421875 91.878906 214.476562 91.9375 214.476562 92.054688 C 214.652344 92.574219 214.882812 93.09375 215.058594 93.613281 C 215.402344 94.714844 215.75 95.871094 215.925781 97.027344 C 215.980469 97.316406 216.039062 97.605469 216.097656 97.835938 C 216.15625 98.066406 216.214844 99.050781 216.15625 98.066406 C 216.214844 98.703125 216.269531 99.339844 216.328125 99.976562 C 216.445312 101.363281 216.445312 102.695312 216.328125 104.082031 C 216.269531 104.890625 216.214844 105.644531 216.097656 106.453125 C 216.097656 106.570312 216.097656 106.683594 216.039062 106.800781 C 216.039062 106.914062 215.980469 107.03125 215.980469 107.089844 C 215.925781 107.492188 215.867188 107.898438 215.75 108.363281 C 215.460938 110.097656 215 111.890625 214.535156 113.566406 C 214.015625 115.417969 213.378906 117.265625 212.628906 119.058594 C 212.570312 119.234375 212.453125 119.464844 212.394531 119.636719 C 212.339844 119.8125 212.28125 119.925781 212.222656 120.101562 C 211.992188 120.5625 211.816406 121.085938 211.585938 121.546875 C 211.296875 122.183594 211.007812 122.820312 210.71875 123.457031 C 209.679688 122.992188 208.578125 122.472656 207.539062 122.007812 C 206.496094 121.546875 205.457031 121.140625 204.414062 120.679688 C 203.835938 120.449219 203.257812 120.21875 202.679688 119.925781 C 202.390625 119.8125 202.160156 119.695312 201.871094 119.582031 C 201.582031 119.464844 201.523438 119.40625 201.753906 119.523438 C 201.582031 119.464844 201.410156 119.347656 201.234375 119.292969 C 201.003906 119.175781 200.773438 119.117188 200.539062 119.003906 C 203.257812 112.640625 204.820312 105.355469 202.042969 98.761719 C 199.210938 91.996094 192.445312 88.234375 185.273438 87.890625 C 181.628906 87.714844 177.929688 88.410156 174.574219 89.914062 C 174.402344 87.3125 174.402344 84.707031 174.515625 82.105469 C 174.632812 82.046875 174.804688 81.992188 174.921875 81.933594 C 175.5 81.585938 176.078125 81.238281 176.714844 80.890625 C 177.003906 80.71875 177.292969 80.601562 177.582031 80.488281 C 177.753906 80.371094 178.332031 80.023438 178.566406 80.023438 C 178.390625 80.023438 178.160156 80.199219 178.449219 80.082031 C 178.621094 80.023438 178.796875 79.964844 178.96875 79.851562 C 179.257812 79.734375 179.546875 79.621094 179.894531 79.503906 C 180.589844 79.273438 181.226562 79.039062 181.917969 78.867188 C 183.25 78.519531 184.578125 78.230469 185.96875 78.058594 C 186.140625 78.058594 186.371094 78 186.546875 78 C 186.949219 77.882812 187.296875 77.882812 187.585938 77.882812 Z M 184.925781 110.558594 C 183.25 109.171875 181.6875 107.609375 180.300781 105.875 C 180.242188 105.757812 180.011719 105.527344 180.011719 105.46875 C 179.894531 105.296875 179.722656 105.121094 179.605469 104.949219 C 179.316406 104.542969 179.085938 104.140625 178.796875 103.734375 C 178.21875 102.808594 177.699219 101.882812 177.292969 100.902344 C 177.175781 100.726562 177.121094 100.496094 177.003906 100.324219 C 177.003906 100.265625 176.945312 100.265625 176.945312 100.207031 C 176.945312 100.148438 176.945312 100.148438 176.886719 100.089844 C 176.714844 99.628906 176.542969 99.167969 176.367188 98.644531 C 176.078125 97.71875 175.789062 96.796875 175.558594 95.8125 C 175.90625 95.636719 176.25 95.40625 176.597656 95.292969 C 176.773438 95.175781 177.003906 95.117188 177.175781 95.003906 C 177.175781 95.003906 177.234375 95.003906 177.234375 95.003906 C 177.234375 95.003906 177.292969 95.003906 177.292969 95.003906 C 178.101562 94.714844 178.910156 94.425781 179.78125 94.191406 C 180.53125 94.019531 181.28125 93.789062 182.09375 93.730469 C 182.324219 93.730469 182.554688 93.671875 182.613281 93.671875 C 183.132812 93.613281 183.597656 93.613281 184.117188 93.613281 C 184.867188 93.613281 185.679688 93.671875 186.429688 93.730469 C 186.429688 93.730469 186.488281 93.730469 186.488281 93.730469 C 186.605469 93.730469 186.777344 93.789062 186.894531 93.789062 C 187.355469 93.847656 187.816406 93.960938 188.28125 94.078125 C 189.03125 94.25 189.726562 94.480469 190.421875 94.769531 C 190.421875 94.769531 190.421875 94.769531 190.476562 94.769531 C 190.652344 94.886719 190.824219 94.945312 191 95.003906 C 191.347656 95.175781 191.691406 95.347656 192.039062 95.582031 C 192.386719 95.8125 192.734375 95.984375 193.023438 96.21875 C 193.082031 96.273438 193.253906 96.390625 193.3125 96.449219 C 193.3125 96.449219 193.371094 96.507812 193.371094 96.507812 C 193.890625 96.96875 194.410156 97.429688 194.875 97.953125 C 195.046875 98.183594 195.277344 98.414062 195.453125 98.644531 C 194.816406 97.953125 195.394531 98.589844 195.566406 98.820312 C 195.914062 99.339844 196.203125 99.859375 196.492188 100.4375 C 196.609375 100.667969 196.957031 101.652344 196.667969 100.785156 C 196.722656 101.015625 196.839844 101.304688 196.957031 101.539062 C 197.1875 102.171875 197.359375 102.867188 197.476562 103.5625 C 197.535156 103.851562 197.535156 104.199219 197.648438 104.488281 C 197.648438 104.429688 197.648438 104.429688 197.648438 104.371094 C 197.648438 104.371094 197.648438 104.371094 197.648438 104.429688 C 197.648438 104.601562 197.707031 104.777344 197.707031 104.949219 C 197.765625 105.703125 197.765625 106.453125 197.707031 107.261719 C 197.707031 107.667969 197.648438 108.074219 197.589844 108.476562 C 197.589844 108.652344 197.589844 108.882812 197.535156 109.113281 C 197.765625 108.304688 197.535156 109.230469 197.476562 109.402344 C 197.300781 110.386719 197.070312 111.3125 196.839844 112.292969 C 196.550781 113.277344 196.261719 114.261719 195.855469 115.242188 C 195.800781 115.476562 195.683594 115.648438 195.625 115.878906 C 195.566406 116.054688 195.507812 116.226562 195.453125 116.398438 C 195.566406 116.109375 195.566406 116.167969 195.453125 116.457031 C 195.394531 116.574219 195.335938 116.632812 195.335938 116.746094 C 195.277344 116.6875 195.164062 116.6875 195.105469 116.632812 C 193.195312 115.765625 191.347656 114.78125 189.554688 113.738281 C 188.628906 113.21875 187.761719 112.640625 186.894531 112.0625 C 186.546875 111.832031 186.199219 111.601562 185.851562 111.3125 C 185.679688 111.195312 185.5625 111.078125 185.390625 110.964844 C 185.5625 111.023438 184.984375 110.617188 184.925781 110.558594 Z M 165.03125 36.476562 C 164.859375 36.363281 164.800781 36.304688 165.03125 36.476562 Z M 165.207031 36.535156 C 165.148438 36.535156 165.089844 36.476562 165.03125 36.476562 C 165.089844 36.476562 165.148438 36.535156 165.207031 36.535156 Z M 132.53125 39.425781 C 132.589844 39.253906 132.589844 39.078125 132.648438 38.964844 C 132.703125 38.789062 132.761719 38.617188 132.820312 38.445312 C 132.9375 38.210938 133.109375 37.980469 133.226562 37.75 C 133.339844 37.632812 133.457031 37.519531 133.574219 37.402344 C 133.574219 37.402344 133.628906 37.34375 133.628906 37.34375 C 133.6875 37.285156 133.746094 37.230469 133.804688 37.230469 C 134.035156 37.054688 134.382812 36.941406 134.613281 36.765625 C 134.730469 36.707031 134.902344 36.652344 135.019531 36.652344 C 135.363281 36.535156 135.769531 36.417969 136.117188 36.363281 C 136.289062 36.304688 136.523438 36.304688 136.695312 36.246094 C 136.753906 36.246094 136.8125 36.246094 136.867188 36.1875 C 136.984375 36.1875 137.214844 36.128906 137.273438 36.128906 C 137.503906 36.128906 137.734375 36.074219 137.96875 36.074219 C 139.007812 36.015625 139.992188 36.015625 141.03125 36.015625 C 146.121094 35.957031 151.210938 35.898438 156.300781 35.898438 C 158.382812 35.898438 160.523438 35.78125 162.660156 35.957031 C 162.835938 35.957031 162.949219 36.015625 163.125 36.015625 C 163.125 36.015625 163.125 36.015625 163.183594 36.015625 C 163.527344 36.074219 163.933594 36.128906 164.28125 36.246094 C 164.511719 36.304688 164.800781 36.417969 165.03125 36.476562 C 165.03125 36.476562 165.03125 36.476562 165.089844 36.476562 C 165.265625 36.535156 165.378906 36.652344 165.554688 36.707031 C 165.609375 36.765625 165.667969 36.765625 165.667969 36.824219 C 165.726562 36.882812 165.785156 36.941406 165.898438 36.996094 C 165.957031 37.054688 165.957031 37.054688 166.015625 37.113281 C 166.074219 37.230469 166.132812 37.285156 166.1875 37.402344 C 166.246094 37.519531 166.304688 37.632812 166.363281 37.75 C 166.363281 37.808594 166.421875 37.863281 166.421875 37.921875 C 166.476562 38.152344 166.535156 38.328125 166.59375 38.558594 C 166.59375 38.617188 166.59375 38.675781 166.652344 38.789062 C 166.652344 38.90625 166.710938 39.3125 166.710938 39.367188 C 166.710938 39.65625 166.710938 39.890625 166.710938 40.179688 C 166.710938 40.292969 166.710938 40.46875 166.710938 40.582031 C 166.710938 40.699219 166.710938 40.816406 166.652344 40.871094 C 166.59375 41.105469 166.535156 41.394531 166.476562 41.625 C 166.363281 42.261719 166.132812 42.839844 165.957031 43.476562 C 163.585938 43.476562 161.15625 43.476562 158.785156 43.417969 C 153.121094 43.417969 147.507812 43.417969 141.84375 43.476562 C 139.355469 43.476562 136.925781 43.476562 134.441406 43.53125 C 133.917969 43.53125 133.398438 43.53125 132.878906 43.53125 C 132.761719 43.011719 132.648438 42.550781 132.53125 42.027344 C 132.53125 42.027344 132.53125 41.972656 132.53125 41.972656 C 132.53125 41.855469 132.53125 41.796875 132.53125 41.683594 C 132.472656 41.394531 132.472656 41.046875 132.472656 40.757812 C 132.472656 40.410156 132.589844 39.832031 132.53125 39.425781 Z M 124.144531 73.257812 C 124.144531 73.257812 124.089844 73.257812 124.089844 73.199219 C 124.089844 73.199219 124.03125 73.199219 124.03125 73.199219 C 124.03125 73.199219 124.03125 73.199219 124.089844 73.199219 C 123.972656 73.140625 123.914062 73.085938 123.800781 73.085938 C 123.566406 72.96875 123.335938 72.796875 123.105469 72.679688 C 123.046875 72.621094 122.929688 72.5625 122.875 72.507812 C 122.699219 72.332031 122.527344 72.21875 122.351562 72.042969 C 122.296875 71.984375 122.179688 71.8125 122.121094 71.753906 C 122.007812 71.582031 121.890625 71.40625 121.832031 71.234375 C 121.773438 71.175781 121.773438 71.117188 121.71875 71.003906 C 121.660156 70.714844 121.542969 70.425781 121.484375 70.136719 C 121.484375 70.078125 121.484375 70.019531 121.484375 69.960938 C 121.484375 69.960938 121.484375 69.960938 121.484375 69.902344 C 121.484375 69.847656 121.484375 69.730469 121.429688 69.671875 C 121.429688 69.730469 121.429688 69.730469 121.484375 69.789062 C 121.484375 69.382812 121.429688 68.976562 121.429688 68.632812 C 121.371094 67.648438 121.3125 66.605469 121.253906 65.625 C 121.195312 63.832031 121.136719 62.097656 121.195312 60.304688 C 121.195312 59.4375 121.253906 58.570312 121.3125 57.703125 C 121.371094 57.296875 121.371094 56.832031 121.429688 56.429688 C 121.429688 56.253906 121.484375 56.082031 121.484375 55.910156 C 121.484375 55.792969 121.484375 55.734375 121.484375 55.675781 C 121.484375 55.621094 121.484375 55.5625 121.484375 55.503906 C 121.601562 54.808594 121.71875 54.117188 121.890625 53.480469 C 121.949219 53.25 122.0625 53.015625 122.121094 52.785156 C 122.179688 52.667969 122.238281 52.554688 122.296875 52.496094 C 122.410156 52.265625 122.527344 52.089844 122.699219 51.859375 C 122.699219 51.859375 122.699219 51.800781 122.757812 51.800781 C 122.929688 51.628906 123.046875 51.457031 123.21875 51.339844 C 123.335938 51.222656 123.394531 51.167969 123.507812 51.109375 C 123.507812 51.109375 123.453125 51.109375 123.453125 51.167969 C 123.453125 51.167969 123.507812 51.167969 123.507812 51.109375 C 123.507812 51.109375 123.507812 51.109375 123.566406 51.050781 C 123.742188 50.933594 123.914062 50.878906 123.800781 50.933594 C 124.144531 50.703125 124.492188 50.472656 124.839844 50.296875 C 124.839844 50.296875 124.898438 50.296875 124.957031 50.242188 C 125.011719 50.242188 125.011719 50.183594 125.070312 50.183594 C 125.128906 50.183594 125.128906 50.183594 125.128906 50.125 C 125.128906 50.125 125.128906 50.125 125.070312 50.125 C 125.359375 50.007812 125.589844 49.953125 125.878906 49.835938 C 126.515625 49.664062 127.09375 49.546875 127.730469 49.429688 C 127.789062 49.429688 128.425781 49.375 127.960938 49.375 C 127.441406 49.429688 128.136719 49.375 128.195312 49.375 C 128.65625 49.316406 129.0625 49.316406 129.523438 49.257812 C 130.507812 49.199219 131.546875 49.257812 132.53125 49.199219 C 134.671875 49.199219 136.753906 49.199219 138.894531 49.140625 C 144.15625 49.140625 149.476562 49.085938 154.738281 49.085938 C 158.785156 49.085938 162.835938 49.085938 166.882812 49.140625 C 165.785156 49.835938 164.6875 50.53125 163.585938 51.28125 C 162.660156 51.917969 162.140625 53.25 162.835938 54.230469 C 163.472656 55.15625 164.800781 55.675781 165.785156 54.984375 C 168.328125 53.363281 170.929688 51.6875 173.476562 50.066406 C 173.707031 49.953125 173.878906 49.777344 173.996094 49.546875 C 174.171875 49.605469 174.285156 49.605469 174.460938 49.664062 C 174.632812 49.71875 174.863281 49.777344 175.039062 49.835938 C 175.09375 49.894531 175.152344 49.894531 175.210938 49.953125 C 175.441406 50.066406 175.617188 50.183594 175.789062 50.296875 C 175.847656 50.355469 175.90625 50.355469 175.960938 50.414062 C 175.960938 50.414062 175.960938 50.414062 176.019531 50.472656 C 176.078125 50.53125 176.136719 50.589844 176.195312 50.644531 C 174.632812 52.207031 173.070312 53.769531 171.394531 55.214844 C 170.46875 56.023438 169.484375 56.832031 168.558594 57.644531 C 168.097656 58.046875 167.636719 58.394531 167.113281 58.800781 C 167 58.914062 166.882812 58.972656 166.765625 59.089844 C 166.710938 59.089844 166.710938 59.148438 166.652344 59.203125 C 166.363281 59.4375 166.074219 59.609375 165.785156 59.839844 C 164.859375 60.535156 164.339844 61.75 165.03125 62.789062 C 165.609375 63.65625 167.058594 64.292969 167.980469 63.542969 C 171.453125 60.941406 174.804688 58.105469 177.929688 55.097656 C 178.390625 58.859375 178.449219 62.617188 178.160156 66.375 C 178.101562 66.722656 178.101562 67.070312 178.042969 67.476562 C 178.042969 67.589844 177.988281 67.707031 177.988281 67.820312 C 177.988281 67.820312 177.988281 67.765625 177.988281 67.765625 C 177.929688 68.285156 177.8125 68.746094 177.699219 69.265625 C 177.582031 69.730469 177.410156 70.191406 177.234375 70.65625 C 177.234375 70.65625 177.234375 70.714844 177.175781 70.714844 C 177.0625 70.945312 176.945312 71.175781 176.832031 71.347656 C 176.714844 71.523438 176.597656 71.695312 176.484375 71.871094 C 176.484375 71.871094 176.484375 71.871094 176.484375 71.925781 C 176.308594 72.101562 176.195312 72.273438 176.019531 72.390625 C 175.90625 72.507812 175.617188 72.679688 175.5 72.851562 C 175.441406 72.910156 175.382812 72.910156 175.328125 72.96875 C 175.152344 73.085938 174.980469 73.199219 174.75 73.316406 C 174.574219 73.429688 174.34375 73.488281 174.171875 73.605469 C 174.980469 73.140625 174.113281 73.605469 173.824219 73.71875 C 173.300781 73.894531 172.722656 74.007812 172.203125 74.125 C 172.089844 74.125 171.972656 74.183594 171.855469 74.183594 C 171.394531 74.242188 171.566406 74.183594 171.742188 74.183594 C 171.507812 74.183594 170.988281 74.296875 170.875 74.296875 C 169.136719 74.414062 167.402344 74.355469 165.667969 74.296875 C 158.265625 74.242188 150.804688 74.242188 143.402344 74.242188 C 139.585938 74.242188 135.769531 74.296875 132.011719 74.296875 C 131.203125 74.296875 130.449219 74.296875 129.640625 74.296875 C 129.292969 74.296875 128.945312 74.242188 128.597656 74.242188 C 128.425781 74.242188 128.25 74.242188 128.078125 74.183594 C 128.019531 74.183594 127.960938 74.183594 127.90625 74.183594 C 127.328125 74.183594 126.632812 73.953125 126.113281 73.835938 C 125.824219 73.777344 125.589844 73.71875 125.300781 73.605469 C 125.128906 73.546875 124.898438 73.429688 124.667969 73.316406 C 124.378906 73.316406 124.261719 73.316406 124.144531 73.257812 Z M 227.546875 156.417969 C 227.492188 157.460938 227.433594 158.441406 227.316406 159.484375 C 227.257812 160.0625 227.203125 160.582031 227.144531 161.160156 C 227.144531 161.335938 227.085938 161.507812 227.085938 161.738281 C 227.085938 161.796875 227.085938 161.855469 227.085938 161.855469 C 227.085938 162.027344 227.027344 162.203125 227.027344 162.316406 C 226.332031 167.292969 225.175781 172.207031 224.195312 177.121094 C 221.824219 188.746094 219.507812 200.429688 217.136719 212.054688 C 214.824219 223.5625 212.453125 235.070312 210.140625 246.636719 C 209.792969 248.3125 209.445312 250.046875 209.042969 251.667969 C 208.867188 252.246094 208.695312 252.824219 208.523438 253.402344 C 208.40625 253.691406 208.289062 254.039062 208.175781 254.328125 C 208.117188 254.441406 208.058594 254.558594 208 254.675781 C 207.945312 254.789062 207.945312 254.90625 207.945312 254.964844 C 207.769531 255.367188 207.480469 255.890625 207.25 256.179688 C 206.902344 256.757812 206.554688 257.335938 206.152344 257.914062 C 206.09375 257.972656 206.09375 258.027344 206.035156 258.085938 C 205.804688 258.316406 205.628906 258.550781 205.457031 258.78125 C 204.992188 259.242188 204.53125 259.707031 204.070312 260.109375 C 204.070312 260.109375 204.011719 260.167969 204.011719 260.167969 C 203.953125 260.226562 203.835938 260.285156 203.78125 260.34375 C 203.546875 260.515625 203.316406 260.6875 203.085938 260.804688 C 202.449219 261.210938 201.8125 261.554688 201.121094 261.847656 C 201.003906 261.902344 200.832031 261.960938 200.714844 262.019531 C 201.464844 261.671875 200.832031 261.960938 200.714844 262.019531 C 200.367188 262.191406 199.960938 262.308594 199.558594 262.425781 C 198.75 262.714844 197.878906 262.945312 197.070312 263.117188 C 196.261719 263.292969 195.453125 263.40625 194.640625 263.582031 C 194.527344 263.582031 194.238281 263.636719 194.179688 263.636719 C 193.890625 263.695312 193.660156 263.695312 193.371094 263.695312 C 192.792969 263.753906 192.269531 263.8125 191.691406 263.8125 C 189.089844 263.984375 186.546875 263.925781 183.945312 263.8125 C 174.171875 263.523438 164.339844 263.347656 154.566406 263.292969 C 146.121094 263.234375 137.679688 263.347656 129.175781 263.523438 C 124.433594 263.636719 119.636719 263.753906 114.894531 263.8125 C 113.332031 263.871094 111.828125 263.871094 110.324219 263.8125 C 111.308594 262.539062 112.289062 261.265625 113.214844 259.9375 C 113.503906 259.53125 113.5625 258.722656 113.445312 258.261719 C 113.332031 257.738281 112.925781 257.21875 112.464844 256.988281 C 111.945312 256.699219 111.363281 256.582031 110.785156 256.757812 C 110.207031 256.929688 109.863281 257.277344 109.515625 257.738281 C 108.070312 259.648438 106.679688 261.5 105.234375 263.40625 C 105.175781 263.40625 105.175781 263.40625 105.121094 263.40625 C 104.195312 263.234375 103.269531 263.117188 102.34375 262.886719 C 101.589844 262.714844 100.839844 262.480469 100.089844 262.25 C 100.03125 262.25 99.972656 262.191406 99.914062 262.191406 C 102.402344 259.128906 104.945312 256.0625 107.433594 252.996094 C 108.125 252.128906 108.359375 250.800781 107.433594 249.933594 C 106.621094 249.179688 105.121094 249.007812 104.367188 249.933594 C 101.589844 253.34375 98.757812 256.757812 95.980469 260.167969 C 95.925781 260.167969 95.925781 260.109375 95.867188 260.109375 C 95.808594 260.109375 95.75 260.054688 95.75 260.054688 C 95.636719 259.9375 95.519531 259.820312 95.460938 259.765625 C 95 259.359375 94.59375 258.953125 94.1875 258.550781 C 94.132812 258.433594 93.957031 258.316406 93.785156 258.144531 C 93.785156 258.144531 93.785156 258.144531 93.726562 258.027344 C 93.609375 257.855469 93.496094 257.683594 93.378906 257.507812 C 93.320312 257.394531 93.207031 257.277344 93.148438 257.160156 C 94.476562 255.367188 95.75 253.574219 97.082031 251.726562 C 97.371094 251.320312 97.429688 250.570312 97.3125 250.046875 C 97.195312 249.527344 96.792969 249.007812 96.328125 248.777344 C 95.808594 248.488281 95.230469 248.371094 94.652344 248.542969 C 94.074219 248.71875 93.726562 249.066406 93.378906 249.527344 C 92.628906 250.570312 91.875 251.550781 91.125 252.59375 C 90.488281 250.453125 90.027344 248.253906 89.5625 246.058594 C 88.40625 240.21875 87.191406 234.433594 86.035156 228.59375 C 83.664062 216.96875 81.351562 205.285156 78.980469 193.664062 C 77.824219 187.820312 76.609375 182.039062 75.453125 176.199219 C 74.46875 171.398438 73.429688 166.539062 72.734375 161.683594 C 72.734375 161.566406 72.675781 161.449219 72.675781 161.394531 C 72.617188 161.160156 72.617188 160.929688 72.617188 160.699219 C 72.558594 160.121094 72.503906 159.601562 72.445312 159.023438 C 72.328125 157.921875 72.269531 156.824219 72.269531 155.667969 C 72.269531 154.683594 72.269531 153.644531 72.269531 152.660156 C 72.269531 152.140625 72.328125 151.5625 72.386719 151.039062 C 72.386719 150.75 72.445312 150.519531 72.445312 150.230469 C 72.445312 150.058594 72.503906 149.941406 72.503906 149.769531 C 72.503906 149.710938 72.503906 149.710938 72.503906 149.652344 C 72.847656 147.570312 73.371094 145.605469 74.0625 143.636719 C 74.0625 143.582031 74.121094 143.523438 74.121094 143.464844 C 74.121094 143.40625 74.179688 143.347656 74.179688 143.292969 C 74.296875 143.058594 74.410156 142.769531 74.527344 142.539062 C 74.757812 142.136719 74.929688 141.730469 75.164062 141.324219 C 75.453125 140.804688 75.742188 140.34375 76.03125 139.878906 C 76.203125 139.648438 76.378906 139.417969 76.492188 139.183594 C 76.492188 139.183594 76.722656 138.839844 76.78125 138.78125 C 78.113281 137.105469 79.671875 135.601562 81.351562 134.269531 C 81.464844 134.210938 81.640625 134.039062 81.699219 134.039062 C 81.8125 133.921875 81.988281 133.863281 82.101562 133.75 C 82.507812 133.460938 82.96875 133.171875 83.375 132.882812 C 84.242188 132.304688 85.167969 131.78125 86.09375 131.261719 C 89.851562 129.121094 93.785156 127.445312 97.71875 125.769531 C 97.832031 125.710938 98.179688 125.59375 98.179688 125.59375 C 98.46875 125.480469 98.699219 125.363281 98.988281 125.25 C 99.566406 125.015625 100.144531 124.785156 100.722656 124.496094 C 101.824219 124.035156 102.980469 123.511719 104.078125 123.050781 C 106.042969 122.183594 107.953125 121.316406 109.863281 120.332031 C 113.679688 118.367188 117.320312 116.109375 120.503906 113.160156 C 123.800781 110.039062 126.402344 106.28125 128.136719 102.058594 C 129.699219 98.242188 130.449219 94.078125 130.738281 89.972656 C 130.96875 86.617188 130.914062 83.320312 130.738281 79.964844 C 132.761719 80.023438 134.84375 79.964844 136.867188 79.910156 C 144.792969 79.851562 152.714844 79.851562 160.578125 79.910156 C 162.605469 79.910156 164.628906 79.910156 166.652344 79.964844 C 167.460938 79.964844 168.269531 79.964844 169.082031 79.964844 C 168.734375 87.773438 168.90625 95.695312 172.089844 102.984375 C 175.617188 111.136719 182.671875 116.6875 190.476562 120.5625 C 192.386719 121.488281 194.351562 122.414062 196.261719 123.222656 C 197.246094 123.628906 198.226562 124.089844 199.269531 124.496094 C 199.90625 124.785156 200.484375 125.015625 201.121094 125.304688 C 201.410156 125.421875 201.640625 125.539062 201.929688 125.652344 C 201.988281 125.652344 201.988281 125.710938 202.042969 125.710938 C 202.21875 125.769531 202.390625 125.828125 202.566406 125.941406 C 206.554688 127.621094 210.488281 129.355469 214.246094 131.492188 C 215.058594 131.957031 215.925781 132.476562 216.675781 132.996094 C 217.023438 133.230469 217.371094 133.460938 217.71875 133.75 C 217.949219 133.921875 218.121094 134.039062 218.351562 134.210938 C 218.410156 134.269531 218.46875 134.328125 218.527344 134.328125 C 218.585938 134.386719 218.699219 134.441406 218.757812 134.5 C 219.511719 135.078125 220.203125 135.714844 220.898438 136.410156 C 221.359375 136.8125 221.765625 137.277344 222.171875 137.738281 C 222.34375 137.972656 222.574219 138.203125 222.75 138.433594 C 222.75 138.433594 223.039062 138.78125 223.09375 138.839844 C 223.730469 139.707031 224.367188 140.632812 224.886719 141.613281 C 225.121094 142.019531 225.292969 142.425781 225.523438 142.828125 C 225.640625 143.003906 225.699219 143.234375 225.8125 143.464844 C 225.8125 143.523438 226.042969 144.101562 226.101562 144.160156 C 226.449219 145.085938 226.738281 146.066406 226.96875 146.992188 C 227.085938 147.511719 227.203125 148.035156 227.316406 148.554688 C 227.375 148.785156 227.375 149.015625 227.433594 149.25 C 227.433594 149.304688 227.492188 149.710938 227.546875 149.828125 C 227.546875 152.140625 227.605469 154.28125 227.546875 156.417969 Z M 227.546875 156.417969 " fill-opacity="1" fill-rule="nonzero"/></g><path fill="#caacde" d="M 197.824219 104.488281 C 197.765625 104.253906 197.648438 103.851562 197.824219 104.488281 Z M 197.824219 104.488281 " fill-opacity="1" fill-rule="nonzero"/><path fill="#caacde" d="M 203.605469 166.65625 C 203.664062 166.714844 203.664062 166.714844 203.605469 166.65625 Z M 203.605469 166.65625 " fill-opacity="1" fill-rule="nonzero"/><path fill="#caacde" d="M 199.558594 165.09375 C 199.441406 165.035156 199.328125 165.035156 199.152344 164.976562 C 199.558594 165.09375 199.617188 165.09375 199.558594 165.09375 Z M 199.558594 165.09375 " fill-opacity="1" fill-rule="nonzero"/><path fill="#caacde" d="M 185.101562 241.953125 C 184.523438 242.007812 184.925781 241.953125 185.101562 241.953125 Z M 185.101562 241.953125 " fill-opacity="1" fill-rule="nonzero"/><path fill="#caacde" d="M 205.628906 178.625 C 205.628906 178.625 205.628906 178.570312 205.628906 178.570312 C 205.6875 178.335938 205.6875 177.933594 205.628906 178.625 Z M 205.628906 178.625 " fill-opacity="1" fill-rule="nonzero"/><path fill="#caacde" d="M 202.101562 165.730469 C 202.042969 165.730469 202.042969 165.730469 202.042969 165.730469 C 201.988281 165.730469 201.929688 165.671875 201.8125 165.671875 C 201.8125 165.671875 201.929688 165.730469 202.160156 165.789062 C 202.160156 165.730469 202.160156 165.730469 202.101562 165.730469 Z M 202.101562 165.730469 " fill-opacity="1" fill-rule="nonzero"/><path fill="#caacde" d="M 205.863281 171.511719 C 205.863281 171.511719 205.863281 171.457031 205.863281 171.511719 C 205.804688 171.339844 205.804688 171.222656 205.804688 171.109375 C 205.746094 170.992188 205.746094 170.992188 205.863281 171.511719 Z M 205.863281 171.511719 " fill-opacity="1" fill-rule="nonzero"/><path fill="#caacde" d="M 204.300781 167.347656 C 204.183594 167.234375 204.183594 167.175781 204.300781 167.347656 Z M 204.300781 167.347656 " fill-opacity="1" fill-rule="nonzero"/><path fill="#caacde" d="M 112.175781 240.679688 C 111.597656 240.390625 111.945312 240.5625 112.175781 240.679688 Z M 112.175781 240.679688 " fill-opacity="1" fill-rule="nonzero"/><path fill="#caacde" d="M 191.113281 238.597656 C 191.171875 238.480469 191.230469 238.367188 191.347656 238.25 C 191.289062 238.25 191.171875 238.367188 191.113281 238.597656 Z M 191.113281 238.597656 " fill-opacity="1" fill-rule="nonzero"/><path fill="#caacde" d="M 207.539062 162.375 C 205.746094 160.871094 203.605469 159.890625 201.292969 159.484375 C 198.460938 158.964844 195.625 159.023438 192.792969 159.3125 C 191.867188 159.425781 190.882812 159.542969 189.957031 159.714844 C 189.496094 159.773438 189.03125 159.832031 188.570312 159.945312 C 188.28125 160.003906 188.050781 160.003906 187.761719 160.0625 C 187.585938 160.0625 187.472656 160.121094 187.296875 160.121094 C 187.238281 160.121094 187.238281 160.121094 187.183594 160.121094 C 185.042969 160.410156 182.960938 160.640625 180.820312 160.757812 C 173.476562 161.335938 166.074219 161.160156 158.730469 160.234375 C 158.554688 160.234375 158.382812 160.179688 158.207031 160.179688 C 158.152344 160.179688 158.09375 160.179688 158.09375 160.179688 C 157.6875 160.121094 157.285156 160.0625 156.878906 160.003906 C 156.125 159.890625 155.316406 159.773438 154.566406 159.601562 C 153.003906 159.3125 151.441406 159.023438 149.878906 158.675781 C 147.046875 158.039062 144.269531 157.285156 141.496094 156.476562 C 136.8125 155.089844 132.183594 153.355469 127.617188 151.5625 C 124.203125 150.230469 120.847656 148.785156 117.320312 147.800781 C 112.464844 146.414062 107.144531 146.296875 102.285156 147.570312 C 96.617188 149.015625 91.472656 152.542969 88.40625 157.574219 C 84.820312 163.476562 84.53125 170.589844 85.863281 177.179688 C 88.8125 191.984375 91.992188 206.734375 95.578125 221.421875 C 96.964844 226.972656 98.351562 232.816406 101.128906 237.847656 C 103.382812 241.953125 106.855469 245.132812 111.363281 246.578125 C 117.148438 248.488281 123.394531 247.5625 129.351562 247.039062 C 138.371094 246.289062 147.507812 246.171875 156.589844 246.40625 C 164.859375 246.636719 173.070312 247.332031 181.339844 247.792969 C 186.71875 248.140625 192.15625 246.636719 195.625 242.242188 C 199.617188 237.152344 200.886719 230.441406 202.21875 224.253906 C 204.070312 215.347656 205.917969 206.441406 207.769531 197.59375 C 208.695312 193.257812 209.5625 188.921875 210.488281 184.582031 C 211.585938 179.261719 212.6875 173.25 211.007812 167.925781 C 210.371094 165.789062 209.214844 163.820312 207.539062 162.375 Z M 199.441406 208.988281 C 198.515625 213.382812 197.589844 217.777344 196.667969 222.171875 C 195.972656 225.585938 195.277344 229.054688 194.179688 232.351562 C 194.007812 232.988281 193.773438 233.566406 193.542969 234.203125 C 193.429688 234.433594 192.964844 235.476562 193.371094 234.605469 C 193.195312 234.953125 193.082031 235.300781 192.90625 235.648438 C 192.675781 236.167969 192.386719 236.632812 192.097656 237.152344 C 191.925781 237.382812 191.808594 237.671875 191.636719 237.902344 C 191.578125 238.019531 191.402344 238.191406 191.289062 238.367188 C 191.347656 238.367188 191.289062 238.425781 191.171875 238.597656 C 191.113281 238.65625 191.113281 238.65625 191.058594 238.714844 C 191.058594 238.714844 191.058594 238.714844 191.058594 238.769531 C 191 238.828125 190.941406 238.886719 190.882812 238.945312 C 190.710938 239.117188 190.59375 239.292969 190.421875 239.464844 C 190.246094 239.636719 190.074219 239.871094 189.84375 240.042969 C 189.726562 240.101562 189.667969 240.21875 189.554688 240.273438 C 189.554688 240.273438 189.609375 240.273438 189.609375 240.273438 C 189.609375 240.273438 189.554688 240.273438 189.554688 240.332031 C 189.4375 240.449219 189.320312 240.507812 189.265625 240.507812 C 188.976562 240.679688 188.742188 240.910156 188.453125 241.085938 C 188.222656 241.199219 187.992188 241.316406 187.761719 241.429688 C 187.644531 241.488281 187.527344 241.546875 187.414062 241.605469 C 187.472656 241.605469 187.472656 241.546875 187.472656 241.546875 C 187.007812 241.71875 186.488281 241.894531 185.96875 242.007812 C 185.679688 242.066406 185.390625 242.125 185.101562 242.183594 C 185.101562 242.183594 185.101562 242.183594 185.042969 242.183594 C 185.101562 242.183594 185.15625 242.183594 185.214844 242.183594 C 184.984375 242.183594 184.8125 242.242188 184.578125 242.242188 C 183.191406 242.355469 181.746094 242.296875 180.359375 242.242188 C 176.484375 241.953125 172.609375 241.664062 168.734375 241.429688 C 160.175781 240.910156 151.617188 240.621094 143.058594 240.796875 C 138.546875 240.910156 134.035156 241.085938 129.523438 241.488281 C 126.113281 241.777344 122.640625 242.242188 119.230469 242.183594 C 118.652344 242.183594 118.015625 242.125 117.4375 242.125 C 117.148438 242.125 116.800781 242.066406 116.511719 242.066406 C 116.339844 242.066406 116.222656 242.007812 116.050781 242.007812 C 115.007812 241.835938 113.96875 241.605469 112.925781 241.316406 C 112.695312 241.257812 112.464844 241.140625 112.234375 241.085938 C 112.175781 241.085938 112.175781 241.027344 112.117188 241.027344 C 112.175781 241.027344 112.175781 241.085938 112.234375 241.085938 C 111.769531 240.851562 111.308594 240.621094 110.84375 240.390625 C 110.496094 240.160156 110.09375 239.925781 109.746094 239.695312 C 109.6875 239.636719 109.628906 239.636719 109.628906 239.582031 C 109.457031 239.40625 109.285156 239.292969 109.109375 239.117188 C 108.761719 238.828125 108.472656 238.539062 108.183594 238.191406 C 108.011719 238.019531 107.835938 237.84375 107.722656 237.671875 C 107.664062 237.613281 107.605469 237.554688 107.546875 237.5 C 106.96875 236.632812 106.390625 235.765625 105.929688 234.894531 C 105.699219 234.433594 105.464844 233.972656 105.234375 233.507812 C 105.121094 233.277344 105.003906 233.046875 104.886719 232.757812 C 104.832031 232.582031 104.773438 232.410156 104.714844 232.292969 C 104.25 231.136719 103.847656 229.921875 103.441406 228.707031 C 101.359375 222 99.914062 215.117188 98.351562 208.292969 C 96.675781 200.777344 95 193.257812 93.4375 185.683594 C 92.800781 182.617188 92.164062 179.550781 91.527344 176.429688 C 91.355469 175.675781 91.238281 174.984375 91.125 174.230469 C 91.125 174.230469 91.125 174.171875 91.125 174.117188 C 91.066406 173.882812 91.066406 173.710938 91.066406 173.480469 C 91.007812 173.015625 90.949219 172.496094 90.949219 172.035156 C 90.894531 171.28125 90.894531 170.53125 90.894531 169.835938 C 90.894531 169.140625 91.066406 168.390625 91.066406 167.695312 C 91.066406 167.636719 91.066406 167.523438 91.066406 167.464844 C 91.066406 167.464844 91.066406 167.40625 91.066406 167.40625 C 91.066406 167.40625 91.066406 167.464844 91.066406 167.464844 C 91.066406 167.292969 91.125 167.175781 91.125 167.003906 C 91.183594 166.65625 91.238281 166.367188 91.296875 166.019531 C 91.472656 165.265625 91.703125 164.574219 91.933594 163.820312 C 92.050781 163.589844 92.105469 163.300781 92.222656 163.070312 C 92.28125 162.953125 92.339844 162.78125 92.398438 162.664062 C 92.6875 162.027344 93.03125 161.394531 93.4375 160.757812 C 93.554688 160.523438 93.726562 160.292969 93.898438 160.0625 C 94.015625 159.890625 94.769531 159.023438 94.132812 159.714844 C 94.59375 159.195312 95 158.675781 95.519531 158.152344 C 95.925781 157.75 96.328125 157.34375 96.792969 156.941406 C 96.90625 156.824219 97.023438 156.765625 97.136719 156.652344 C 97.429688 156.476562 97.660156 156.246094 97.949219 156.070312 C 98.988281 155.378906 100.144531 154.859375 101.246094 154.28125 C 100.378906 154.742188 101.359375 154.222656 101.589844 154.164062 C 101.878906 154.046875 102.226562 153.933594 102.515625 153.816406 C 103.152344 153.644531 103.789062 153.46875 104.425781 153.296875 C 105.0625 153.121094 105.753906 153.066406 106.390625 152.949219 C 105.410156 153.121094 106.566406 152.949219 106.796875 152.890625 C 107.144531 152.832031 107.492188 152.832031 107.835938 152.832031 C 109.226562 152.777344 110.671875 152.777344 112.058594 152.949219 C 112.234375 152.949219 112.40625 153.007812 112.578125 153.007812 C 112.8125 153.066406 113.042969 153.066406 113.214844 153.121094 C 113.5625 153.179688 113.851562 153.238281 114.199219 153.296875 C 114.894531 153.46875 115.585938 153.644531 116.28125 153.875 C 117.898438 154.335938 119.460938 154.914062 120.964844 155.550781 C 124.957031 157.054688 128.886719 158.675781 132.878906 160.121094 C 137.96875 161.914062 143.113281 163.476562 148.433594 164.632812 C 154.914062 166.078125 161.5625 166.886719 168.214844 167.175781 C 171.972656 167.292969 175.730469 167.234375 179.492188 167.003906 C 181.515625 166.886719 183.539062 166.714844 185.503906 166.425781 C 186.71875 166.308594 187.933594 166.136719 189.148438 165.960938 C 190.015625 165.847656 191 165.613281 191.867188 165.554688 C 191.925781 165.554688 191.980469 165.554688 192.039062 165.554688 C 192.214844 165.554688 192.445312 165.5 192.617188 165.5 C 192.964844 165.441406 193.3125 165.441406 193.660156 165.382812 C 194.410156 165.324219 195.105469 165.265625 195.855469 165.265625 C 196.433594 165.265625 197.070312 165.265625 197.648438 165.265625 C 197.9375 165.265625 198.226562 165.324219 198.574219 165.324219 C 198.75 165.324219 198.863281 165.324219 199.039062 165.382812 C 199.039062 165.382812 198.980469 165.382812 198.980469 165.382812 C 199.039062 165.382812 199.039062 165.382812 199.09375 165.382812 C 199.210938 165.382812 199.441406 165.441406 199.5 165.5 C 200.25 165.671875 201.0625 165.789062 201.8125 166.078125 C 201.8125 166.078125 201.929688 166.078125 202.042969 166.136719 C 202.160156 166.191406 202.21875 166.191406 202.332031 166.25 C 202.277344 166.25 202.21875 166.191406 202.160156 166.191406 C 202.277344 166.25 202.449219 166.308594 202.566406 166.425781 C 202.738281 166.539062 202.96875 166.65625 203.144531 166.769531 C 203.257812 166.886719 203.492188 167.058594 203.605469 167.117188 C 203.546875 167.058594 203.433594 167.003906 203.257812 166.828125 C 203.546875 167.117188 203.835938 167.347656 204.125 167.636719 C 204.242188 167.8125 204.414062 167.984375 204.53125 168.101562 C 204.414062 167.984375 204.359375 167.871094 204.300781 167.8125 C 204.414062 167.925781 204.53125 168.042969 204.589844 168.160156 C 204.820312 168.507812 204.992188 168.851562 205.167969 169.199219 C 205.167969 169.199219 205.167969 169.199219 205.167969 169.257812 C 205.285156 169.488281 205.339844 169.777344 205.398438 170.007812 C 205.515625 170.414062 205.628906 170.878906 205.6875 171.28125 C 205.6875 171.339844 205.6875 171.457031 205.746094 171.570312 C 205.746094 171.628906 205.804688 171.746094 205.804688 171.800781 C 205.804688 171.859375 205.804688 171.859375 205.804688 171.917969 C 205.804688 171.976562 205.804688 171.976562 205.804688 172.035156 C 205.804688 172.035156 205.804688 171.976562 205.804688 171.976562 C 205.804688 172.089844 205.804688 172.207031 205.863281 172.324219 C 205.976562 173.480469 205.976562 174.695312 205.917969 175.851562 C 205.863281 176.429688 205.863281 177.066406 205.804688 177.644531 C 205.746094 177.992188 205.746094 178.335938 205.6875 178.683594 C 205.6875 178.859375 205.628906 179.03125 205.628906 179.203125 C 205.628906 179.148438 205.628906 179.148438 205.628906 179.148438 C 205.398438 180.59375 205.167969 182.097656 204.820312 183.542969 C 203.085938 191.695312 201.234375 200.3125 199.441406 208.988281 Z M 199.441406 208.988281 " fill-opacity="1" fill-rule="nonzero"/><path fill="#caacde" d="M 189.320312 240.273438 C 189.4375 240.21875 189.554688 240.160156 189.609375 240.101562 C 189.320312 240.21875 189.265625 240.273438 189.320312 240.273438 Z M 189.320312 240.273438 " fill-opacity="1" fill-rule="nonzero"/><path fill="#caacde" d="M 187.527344 241.316406 C 187.816406 241.199219 188.105469 240.96875 187.527344 241.316406 Z M 187.527344 241.316406 " fill-opacity="1" fill-rule="nonzero"/><path fill="#caacde" d="M 124.089844 195.398438 C 123.453125 195.050781 122.816406 194.820312 122.179688 194.53125 C 121.890625 194.414062 121.660156 194.296875 121.371094 194.183594 C 121.3125 194.183594 121.3125 194.183594 121.3125 194.183594 C 121.136719 194.125 121.023438 194.066406 120.847656 194.007812 C 120.558594 193.894531 120.269531 193.71875 120.039062 193.605469 C 119.925781 193.546875 119.808594 193.488281 119.75 193.429688 C 119.75 193.429688 119.636719 193.316406 119.519531 193.257812 C 119.460938 193.199219 119.347656 193.085938 119.347656 193.085938 C 119.230469 193.027344 119.171875 192.910156 119.113281 192.851562 C 119.058594 192.738281 118.941406 192.621094 118.882812 192.507812 C 118.882812 192.449219 118.824219 192.273438 118.765625 192.21875 C 118.765625 192.160156 118.710938 192.042969 118.710938 191.984375 C 118.710938 191.8125 118.710938 191.695312 118.710938 191.523438 C 118.710938 191.464844 118.710938 191.464844 118.710938 191.40625 C 118.710938 191.40625 118.710938 191.347656 118.765625 191.292969 C 118.824219 191.175781 118.824219 191.058594 118.882812 190.886719 C 118.882812 190.828125 118.882812 190.828125 118.882812 190.769531 C 118.882812 190.769531 118.941406 190.714844 118.941406 190.65625 C 119 190.597656 119.058594 190.539062 119.058594 190.425781 C 119.058594 190.425781 119.171875 190.308594 119.230469 190.25 C 119.289062 190.25 119.460938 190.019531 119.519531 190.019531 C 119.578125 189.960938 119.925781 189.847656 119.867188 189.847656 C 119.925781 189.847656 120.039062 189.789062 120.097656 189.789062 C 120.15625 189.789062 120.214844 189.789062 120.214844 189.730469 C 120.214844 189.730469 120.269531 189.730469 120.328125 189.730469 C 120.445312 189.730469 120.617188 189.730469 120.734375 189.730469 C 120.792969 189.730469 120.847656 189.730469 120.847656 189.730469 C 120.847656 189.730469 120.90625 189.730469 120.964844 189.789062 C 121.082031 189.847656 121.253906 189.847656 121.371094 189.902344 C 121.484375 189.960938 121.601562 190.019531 121.71875 190.078125 C 122.699219 190.714844 124.089844 190.308594 124.667969 189.324219 C 125.300781 188.285156 124.898438 186.953125 123.914062 186.375 C 121.136719 184.640625 117.265625 185.449219 115.414062 188.167969 C 113.679688 190.714844 114.199219 194.355469 116.453125 196.378906 C 117.554688 197.304688 118.765625 197.882812 120.097656 198.40625 C 120.328125 198.519531 120.558594 198.578125 120.792969 198.695312 C 120.847656 198.75 120.964844 198.75 121.023438 198.808594 C 121.082031 198.808594 121.195312 198.867188 121.253906 198.925781 C 121.773438 199.15625 122.296875 199.445312 122.816406 199.792969 C 122.929688 199.851562 122.988281 199.964844 123.105469 200.023438 C 123.105469 200.023438 123.21875 200.140625 123.277344 200.199219 C 123.335938 200.253906 123.394531 200.429688 123.453125 200.429688 C 123.507812 200.488281 123.507812 200.542969 123.566406 200.660156 C 123.566406 200.660156 123.566406 200.71875 123.566406 200.71875 C 123.566406 200.832031 123.625 200.949219 123.683594 201.066406 C 123.683594 201.121094 123.683594 201.121094 123.683594 201.121094 C 123.683594 201.121094 123.683594 201.121094 123.683594 201.179688 C 123.683594 201.355469 123.683594 201.46875 123.683594 201.644531 C 123.683594 201.703125 123.683594 201.757812 123.683594 201.816406 C 123.625 201.992188 123.625 202.222656 123.566406 202.394531 C 123.566406 202.453125 123.507812 202.511719 123.507812 202.570312 C 123.507812 202.625 123.453125 202.742188 123.394531 202.800781 C 123.335938 202.914062 123.277344 202.972656 123.21875 203.089844 C 123.164062 203.148438 123.164062 203.148438 123.105469 203.203125 C 123.046875 203.261719 122.988281 203.320312 122.929688 203.378906 C 122.929688 203.378906 122.757812 203.492188 122.699219 203.550781 C 122.699219 203.550781 122.640625 203.609375 122.585938 203.609375 C 122.46875 203.667969 122.351562 203.667969 122.179688 203.726562 C 122.179688 203.726562 122.179688 203.726562 122.121094 203.726562 C 121.949219 203.726562 121.832031 203.726562 121.660156 203.726562 C 121.660156 203.726562 121.601562 203.726562 121.542969 203.726562 C 121.429688 203.726562 121.253906 203.667969 121.136719 203.667969 C 121.023438 203.609375 120.90625 203.609375 120.792969 203.550781 C 121.253906 203.667969 120.734375 203.550781 120.617188 203.492188 C 120.503906 203.4375 120.386719 203.378906 120.328125 203.320312 C 120.269531 203.320312 120.269531 203.261719 120.214844 203.261719 C 120.214844 203.261719 120.214844 203.261719 120.15625 203.203125 C 120.039062 203.089844 119.925781 202.972656 119.808594 202.914062 C 119.808594 202.914062 119.75 202.859375 119.75 202.859375 C 119.75 202.859375 119.75 202.859375 119.75 202.800781 C 119.691406 202.683594 119.636719 202.570312 119.578125 202.511719 C 119.578125 202.453125 119.519531 202.335938 119.519531 202.28125 C 119.171875 201.179688 118.015625 200.429688 116.859375 200.777344 C 115.761719 201.066406 115.007812 202.335938 115.355469 203.4375 C 116.222656 206.269531 119.058594 208.292969 122.007812 208.179688 C 125.011719 208.003906 127.441406 205.75 127.90625 202.800781 C 128.308594 199.445312 126.863281 196.84375 124.089844 195.398438 Z M 121.371094 189.902344 C 121.429688 189.902344 121.429688 189.902344 121.371094 189.902344 C 121.542969 189.960938 121.542969 189.960938 121.371094 189.902344 Z M 119.058594 192.738281 C 118.882812 192.5625 119 192.679688 119.058594 192.738281 Z M 122.816406 199.675781 C 123.105469 199.851562 122.875 199.734375 122.816406 199.675781 Z M 123.507812 200.488281 C 123.394531 200.3125 123.453125 200.429688 123.507812 200.488281 Z M 122.0625 203.550781 C 121.949219 203.550781 121.832031 203.550781 122.0625 203.550781 Z M 122.0625 203.550781 " fill-opacity="1" fill-rule="nonzero"/><path fill="#caacde" d="M 141.03125 187.183594 C 140.050781 186.664062 138.605469 186.894531 138.082031 187.9375 C 137.390625 189.324219 136.695312 190.714844 136 192.160156 C 135.828125 192.507812 135.652344 192.910156 135.421875 193.257812 C 135.132812 192.796875 134.902344 192.332031 134.613281 191.925781 C 133.804688 190.480469 132.9375 189.035156 132.125 187.589844 C 131.546875 186.605469 130.160156 186.203125 129.175781 186.839844 C 128.195312 187.476562 127.789062 188.746094 128.425781 189.789062 C 129.351562 191.40625 130.277344 193.027344 131.203125 194.589844 C 131.664062 195.339844 132.070312 196.148438 132.53125 196.902344 C 132.761719 197.363281 133.050781 197.828125 133.339844 198.230469 C 133.457031 200.71875 133.574219 203.203125 133.6875 205.691406 C 133.746094 206.847656 134.671875 207.890625 135.886719 207.890625 C 137.042969 207.832031 138.082031 206.90625 138.082031 205.691406 C 137.96875 203.261719 137.851562 200.832031 137.734375 198.40625 C 137.910156 198.117188 138.082031 197.828125 138.199219 197.539062 C 138.605469 196.726562 139.007812 195.917969 139.414062 195.109375 C 140.222656 193.429688 141.089844 191.8125 141.898438 190.136719 C 142.304688 189.152344 142.074219 187.765625 141.03125 187.183594 Z M 136.925781 195.976562 C 136.984375 196.035156 136.984375 196.035156 136.925781 195.976562 Z M 136.925781 195.976562 " fill-opacity="1" fill-rule="nonzero"/><path fill="#caacde" d="M 153.351562 199.039062 C 153.929688 198.636719 154.449219 198.171875 154.855469 197.59375 C 156.648438 195.28125 156.878906 192.21875 155.433594 189.671875 C 153.988281 187.242188 151.039062 185.683594 148.203125 186.605469 C 146.640625 187.128906 145.371094 188.226562 144.847656 189.847656 C 144.328125 191.347656 144.558594 193.085938 144.617188 194.589844 C 144.734375 198.347656 144.847656 202.046875 144.964844 205.808594 C 145.023438 206.964844 145.949219 208.003906 147.164062 208.003906 C 148.320312 207.945312 149.359375 207.078125 149.359375 205.808594 C 149.300781 204.363281 149.300781 202.859375 149.246094 201.410156 C 149.300781 201.410156 149.300781 201.46875 149.359375 201.46875 C 150.054688 201.875 150.921875 202.511719 151.382812 202.859375 C 152.078125 203.378906 152.714844 204.015625 153.351562 204.59375 C 153.699219 204.941406 153.988281 205.285156 154.332031 205.632812 C 154.507812 205.808594 154.621094 205.980469 154.796875 206.152344 C 154.855469 206.210938 155.203125 206.675781 155.027344 206.441406 C 155.722656 207.367188 156.878906 207.890625 157.976562 207.195312 C 158.902344 206.675781 159.480469 205.171875 158.730469 204.246094 C 157.109375 202.335938 155.375 200.542969 153.351562 199.039062 Z M 150.171875 195.917969 C 150.285156 195.859375 150.285156 195.859375 150.171875 195.917969 Z M 149.128906 190.945312 Z M 149.128906 190.945312 C 149.070312 191.003906 149.070312 191.003906 149.070312 191.003906 C 149.070312 190.945312 149.128906 190.945312 149.128906 190.945312 Z M 149.070312 191.003906 C 149.070312 191.003906 149.070312 191.058594 149.070312 191.058594 C 149.070312 191.003906 149.070312 191.003906 149.070312 191.003906 Z M 148.898438 191.582031 C 148.898438 191.582031 148.898438 191.464844 148.898438 191.40625 C 148.898438 191.347656 148.957031 191.175781 149.011719 191.117188 C 149.011719 191.117188 149.011719 191.117188 149.070312 191.058594 C 149.070312 191.058594 149.070312 191.058594 149.070312 191.003906 C 149.128906 190.945312 149.1875 190.945312 149.246094 190.886719 C 149.246094 190.886719 149.300781 190.886719 149.300781 190.828125 C 149.359375 190.828125 149.476562 190.769531 149.535156 190.769531 C 149.535156 190.769531 149.589844 190.769531 149.589844 190.769531 C 149.648438 190.769531 149.824219 190.769531 149.824219 190.769531 C 149.878906 190.769531 149.996094 190.769531 150.054688 190.769531 C 150.113281 190.769531 150.113281 190.769531 150.113281 190.769531 C 150.226562 190.828125 150.34375 190.828125 150.460938 190.886719 C 150.402344 190.886719 150.75 191.003906 150.804688 191.058594 C 150.863281 191.058594 150.863281 191.117188 150.921875 191.117188 C 150.980469 191.175781 151.039062 191.175781 151.09375 191.234375 C 151.152344 191.292969 151.269531 191.40625 151.328125 191.464844 C 151.382812 191.582031 151.558594 191.8125 151.558594 191.871094 C 151.617188 191.984375 151.671875 192.101562 151.730469 192.21875 C 151.730469 192.273438 151.847656 192.621094 151.90625 192.679688 C 151.90625 192.738281 151.960938 192.851562 151.960938 192.910156 C 151.960938 193.085938 151.960938 193.257812 151.960938 193.429688 C 151.960938 193.488281 151.960938 193.546875 151.960938 193.605469 C 151.960938 193.605469 151.960938 193.664062 151.960938 193.664062 C 151.960938 193.777344 151.789062 194.125 151.789062 194.125 C 151.671875 194.296875 151.617188 194.472656 151.5 194.644531 C 151.5 194.644531 151.5 194.703125 151.5 194.703125 C 151.441406 194.820312 151.328125 194.878906 151.269531 194.992188 C 151.210938 195.050781 151.152344 195.109375 151.039062 195.222656 C 151.039062 195.222656 150.863281 195.398438 150.804688 195.457031 C 150.75 195.457031 150.75 195.511719 150.75 195.511719 C 150.632812 195.570312 150.515625 195.628906 150.402344 195.746094 C 150.285156 195.800781 150.171875 195.859375 150.054688 195.917969 C 150.054688 195.917969 149.996094 195.917969 149.996094 195.917969 C 149.765625 195.976562 149.476562 196.089844 149.246094 196.148438 C 149.246094 196.148438 149.1875 196.148438 149.1875 196.148438 C 149.128906 196.148438 148.957031 196.148438 148.957031 196.148438 C 148.957031 195.457031 148.898438 194.820312 148.898438 194.125 C 148.898438 193.488281 148.839844 192.851562 148.839844 192.21875 C 148.898438 192.042969 148.898438 191.8125 148.898438 191.582031 Z M 148.898438 191.582031 " fill-opacity="1" fill-rule="nonzero"/><path fill="#caacde" d="M 171.800781 188.34375 C 170.585938 188.6875 170.0625 189.847656 170.296875 191.003906 C 170.757812 193.316406 170.875 195.746094 170.757812 198.171875 C 170.699219 199.445312 170.640625 200.253906 170.351562 201.296875 C 170.238281 201.757812 170.121094 202.28125 169.890625 202.742188 C 169.890625 202.742188 169.71875 203.089844 169.660156 203.148438 C 169.601562 203.261719 169.542969 203.378906 169.484375 203.4375 C 169.484375 203.492188 169.3125 203.667969 169.3125 203.667969 C 169.195312 203.78125 169.023438 203.957031 168.90625 204.074219 C 168.90625 204.074219 168.847656 204.128906 168.792969 204.1875 C 168.734375 204.246094 168.617188 204.304688 168.617188 204.304688 C 168.503906 204.363281 168.386719 204.417969 168.269531 204.476562 C 168.15625 204.535156 167.75 204.59375 167.808594 204.59375 C 167.691406 204.59375 167.636719 204.59375 167.519531 204.59375 C 167.402344 204.59375 167.289062 204.535156 167.230469 204.535156 C 167.289062 204.535156 167.519531 204.652344 167.230469 204.535156 C 167.058594 204.417969 166.824219 204.304688 166.652344 204.1875 C 166.652344 204.1875 166.363281 203.898438 166.304688 203.839844 C 166.246094 203.78125 166.1875 203.726562 166.132812 203.667969 C 166.132812 203.609375 166.074219 203.609375 166.015625 203.492188 C 165.898438 203.261719 165.785156 203.089844 165.667969 202.859375 C 165.554688 202.570312 165.378906 202.046875 165.207031 201.527344 C 164.917969 200.429688 164.628906 199.214844 164.511719 198.171875 C 164.164062 195.6875 164.222656 192.796875 164.628906 190.367188 C 164.800781 189.265625 164.339844 187.996094 163.125 187.707031 C 162.082031 187.476562 160.636719 187.996094 160.464844 189.210938 C 159.945312 192.21875 159.828125 195.28125 160.234375 198.289062 C 160.578125 201.238281 161.15625 204.476562 163.183594 206.789062 C 165.148438 209.046875 168.503906 209.566406 170.988281 207.890625 C 173.648438 206.097656 174.460938 203.148438 174.863281 200.199219 C 175.269531 196.726562 175.09375 193.257812 174.460938 189.847656 C 174.226562 188.746094 172.839844 188.054688 171.800781 188.34375 Z M 171.800781 188.34375 " fill-opacity="1" fill-rule="nonzero"/><path fill="#caacde" d="M 184.347656 186.839844 C 182.902344 186.375 181.226562 186.144531 179.78125 186.492188 C 177.988281 186.894531 176.832031 188.398438 176.597656 190.191406 C 176.367188 191.753906 176.542969 193.375 176.542969 194.992188 C 176.597656 198.808594 176.597656 202.570312 176.65625 206.386719 C 176.65625 207.542969 177.640625 208.582031 178.855469 208.582031 C 180.011719 208.523438 181.050781 207.65625 181.050781 206.386719 C 181.050781 204.652344 180.992188 202.914062 180.992188 201.179688 C 183.769531 201.007812 186.429688 199.851562 188.105469 197.59375 C 189.84375 195.222656 190.015625 191.695312 188.164062 189.382812 C 187.183594 188.109375 185.792969 187.300781 184.347656 186.839844 Z M 180.878906 190.597656 C 180.992188 190.25 180.9375 190.480469 180.878906 190.597656 Z M 184.984375 194.125 C 184.925781 194.242188 184.925781 194.296875 184.867188 194.414062 C 184.867188 194.472656 184.867188 194.472656 184.867188 194.472656 C 184.867188 194.472656 184.8125 194.53125 184.8125 194.589844 C 184.695312 194.820312 184.578125 194.992188 184.464844 195.222656 C 184.464844 195.222656 184.40625 195.28125 184.40625 195.28125 C 184.289062 195.398438 184.175781 195.511719 184 195.6875 C 184 195.6875 183.945312 195.746094 183.886719 195.800781 C 183.828125 195.859375 183.597656 196.035156 183.597656 196.035156 C 183.363281 196.148438 183.132812 196.265625 182.902344 196.378906 C 182.84375 196.378906 182.84375 196.4375 182.84375 196.4375 C 182.730469 196.496094 182.554688 196.554688 182.441406 196.613281 C 182.152344 196.726562 181.863281 196.785156 181.574219 196.84375 C 181.574219 196.84375 181.398438 196.902344 181.339844 196.902344 C 181.28125 196.902344 181.109375 196.960938 181.050781 196.960938 C 180.992188 196.960938 180.9375 196.960938 180.9375 196.960938 C 180.9375 196.089844 180.9375 195.28125 180.9375 194.414062 C 180.9375 193.777344 180.9375 193.199219 180.9375 192.5625 C 180.9375 192.21875 180.9375 191.925781 180.9375 191.582031 C 180.9375 191.464844 180.9375 191.347656 180.9375 191.234375 C 180.9375 191.234375 180.9375 190.945312 180.9375 190.886719 C 180.9375 190.886719 180.9375 190.828125 180.9375 190.828125 C 181.226562 190.828125 181.515625 190.828125 181.804688 190.828125 C 181.863281 190.828125 181.976562 190.828125 182.09375 190.886719 C 182.152344 190.886719 182.207031 190.886719 182.207031 190.886719 C 182.441406 190.945312 182.730469 191.003906 182.960938 191.058594 C 183.191406 191.117188 183.421875 191.175781 183.597656 191.292969 C 183.597656 191.292969 183.945312 191.464844 184 191.523438 C 184.058594 191.582031 184.40625 191.8125 184.40625 191.753906 C 184.464844 191.8125 184.578125 191.925781 184.636719 191.984375 C 184.636719 191.984375 184.695312 192.042969 184.753906 192.101562 C 184.8125 192.160156 184.8125 192.21875 184.8125 192.21875 C 184.867188 192.332031 184.925781 192.390625 184.984375 192.507812 C 184.925781 192.449219 185.101562 192.910156 185.15625 193.027344 C 185.15625 193.085938 185.15625 193.085938 185.15625 193.140625 C 185.15625 193.140625 185.15625 193.199219 185.15625 193.257812 C 185.15625 193.375 185.15625 193.546875 185.15625 193.664062 C 185.15625 193.664062 185.15625 193.71875 185.15625 193.777344 C 185.15625 193.835938 185.15625 193.894531 185.15625 193.894531 C 185.042969 193.894531 185.042969 194.007812 184.984375 194.125 Z M 184.984375 194.125 " fill-opacity="1" fill-rule="nonzero"/><path fill="#caacde" d="M 188.339844 226.394531 C 187.355469 225.875 185.851562 226.046875 185.390625 227.148438 C 185.042969 227.898438 184.636719 228.59375 184.175781 229.230469 C 183.65625 229.921875 183.019531 230.5 182.382812 231.023438 C 181.6875 231.542969 180.992188 231.945312 180.242188 232.292969 C 180.125 232.351562 180.011719 232.410156 179.835938 232.46875 C 179.316406 232.640625 178.855469 232.929688 178.566406 233.449219 C 178.277344 233.914062 178.160156 234.605469 178.332031 235.128906 C 178.679688 236.167969 179.835938 237.035156 180.992188 236.632812 C 184.523438 235.359375 187.585938 232.757812 189.148438 229.34375 C 189.378906 228.824219 189.554688 228.246094 189.378906 227.667969 C 189.207031 227.203125 188.800781 226.625 188.339844 226.394531 Z M 188.339844 226.394531 " fill-opacity="1" fill-rule="nonzero"/><path fill="#caacde" d="M 184.753906 127.621094 C 185.910156 127.675781 186.949219 126.578125 186.949219 125.421875 C 186.894531 124.207031 186.023438 123.339844 184.753906 123.222656 C 184.523438 123.222656 184.347656 123.222656 184.117188 123.167969 C 184.058594 123.167969 184 123.167969 183.945312 123.167969 C 184.058594 123.167969 184.117188 123.222656 183.945312 123.167969 C 183.945312 123.167969 183.886719 123.167969 183.886719 123.167969 C 183.886719 123.167969 183.828125 123.167969 183.828125 123.167969 C 183.828125 123.167969 183.828125 123.167969 183.886719 123.167969 C 183.480469 123.109375 183.132812 123.050781 182.785156 122.933594 C 182.382812 122.820312 181.976562 122.703125 181.628906 122.589844 C 181.457031 122.53125 181.226562 122.472656 181.050781 122.355469 C 180.9375 122.296875 180.878906 122.296875 180.761719 122.242188 C 180.011719 121.894531 179.316406 121.546875 178.621094 121.085938 C 178.449219 120.96875 178.277344 120.851562 178.101562 120.738281 C 178.042969 120.679688 177.988281 120.621094 177.929688 120.621094 C 177.582031 120.332031 177.292969 120.101562 176.945312 119.753906 C 176.136719 118.945312 174.691406 118.886719 173.878906 119.753906 C 173.128906 120.621094 173.011719 122.007812 173.878906 122.820312 C 176.832031 125.710938 180.703125 127.386719 184.753906 127.621094 Z M 184.753906 127.621094 " fill-opacity="1" fill-rule="nonzero"/><path fill="#caacde" d="M 207.363281 93.671875 C 207.652344 94.136719 207.945312 94.597656 208.175781 95.058594 C 208.347656 95.464844 208.464844 95.871094 208.523438 96.332031 C 208.636719 96.851562 209.101562 97.375 209.503906 97.605469 C 209.96875 97.894531 210.660156 98.007812 211.183594 97.835938 C 211.703125 97.664062 212.222656 97.316406 212.453125 96.851562 C 212.742188 96.332031 212.800781 95.753906 212.6875 95.175781 C 212.453125 94.078125 212.050781 93.035156 211.472656 92.109375 C 210.894531 91.183594 210.199219 90.261719 209.332031 89.566406 C 208.867188 89.160156 208.40625 88.929688 207.769531 88.929688 C 207.25 88.929688 206.613281 89.160156 206.207031 89.566406 C 205.804688 89.972656 205.574219 90.550781 205.574219 91.128906 C 205.574219 91.648438 205.746094 92.285156 206.207031 92.6875 C 206.671875 92.976562 207.019531 93.324219 207.363281 93.671875 Z M 207.363281 93.671875 " fill-opacity="1" fill-rule="nonzero"/><path fill="#caacde" d="M 85.285156 141.613281 C 85.746094 141.265625 86.152344 140.863281 86.265625 140.34375 C 86.382812 139.820312 86.324219 139.128906 86.035156 138.664062 C 85.457031 137.738281 84.070312 137.160156 83.085938 137.914062 C 79.730469 140.285156 77.648438 143.925781 77.300781 148.035156 C 77.1875 149.191406 78.34375 150.230469 79.5 150.230469 C 80.773438 150.171875 81.582031 149.25 81.699219 148.035156 C 81.699219 147.917969 81.699219 147.800781 81.699219 147.746094 C 81.699219 147.746094 81.699219 147.746094 81.699219 147.6875 C 81.699219 147.628906 81.699219 147.628906 81.699219 147.628906 C 81.699219 147.570312 81.753906 147.457031 81.753906 147.398438 C 81.8125 147.050781 81.929688 146.644531 82.042969 146.296875 C 82.101562 146.125 82.160156 145.953125 82.21875 145.777344 C 82.21875 145.71875 82.277344 145.605469 82.277344 145.546875 C 82.449219 145.199219 82.566406 144.851562 82.796875 144.5625 C 82.96875 144.21875 83.203125 143.925781 83.433594 143.582031 C 83.492188 143.523438 83.492188 143.464844 83.546875 143.464844 C 83.664062 143.347656 83.78125 143.175781 83.894531 143.058594 C 84.125 142.769531 84.414062 142.480469 84.703125 142.25 C 84.820312 142.136719 84.992188 142.019531 85.109375 141.902344 C 85.167969 141.730469 85.226562 141.671875 85.285156 141.613281 Z M 85.167969 141.730469 C 85.226562 141.671875 85.167969 141.671875 85.167969 141.730469 Z M 84.992188 141.847656 Z M 84.992188 141.847656 " fill-opacity="1" fill-rule="nonzero"/><path fill="#caacde" d="M 105.582031 203.4375 C 106.738281 203.089844 107.375 201.933594 107.085938 200.777344 C 106.277344 197.132812 105.410156 193.429688 104.597656 189.789062 C 104.367188 188.6875 103.039062 187.9375 101.9375 188.285156 C 100.78125 188.6875 100.144531 189.789062 100.433594 190.945312 C 101.246094 194.589844 102.113281 198.289062 102.921875 201.933594 C 103.152344 203.03125 104.484375 203.78125 105.582031 203.4375 Z M 105.582031 203.4375 " fill-opacity="1" fill-rule="nonzero"/><path fill="#caacde" d="M 109.109375 210.664062 C 108.9375 210.144531 108.589844 209.683594 108.125 209.394531 C 107.664062 209.105469 106.96875 208.988281 106.449219 209.160156 C 105.929688 209.335938 105.410156 209.683594 105.175781 210.144531 C 104.886719 210.664062 104.773438 211.242188 104.945312 211.820312 C 105.292969 212.921875 105.699219 214.019531 106.042969 215.117188 C 106.21875 215.636719 106.566406 216.101562 107.027344 216.390625 C 107.492188 216.679688 108.183594 216.796875 108.703125 216.621094 C 109.226562 216.449219 109.746094 216.101562 109.976562 215.636719 C 110.265625 215.117188 110.382812 214.539062 110.207031 213.960938 C 109.804688 212.863281 109.457031 211.765625 109.109375 210.664062 Z M 109.109375 210.664062 " fill-opacity="1" fill-rule="nonzero"/></svg>