<svg xmlns="http://www.w3.org/2000/svg" xmlns:xlink="http://www.w3.org/1999/xlink" width="400" zoomAndPan="magnify" viewBox="0 0 300 299.999988" height="400" preserveAspectRatio="xMidYMid meet" version="1.0"><defs><clipPath id="3070052ca3"><path d="M 207 56.398438 L 217 56.398438 L 217 61 L 207 61 Z M 207 56.398438 " clip-rule="nonzero"/></clipPath><clipPath id="e5f4d2c60d"><path d="M 79 195 L 161 195 L 161 243.898438 L 79 243.898438 Z M 79 195 " clip-rule="nonzero"/></clipPath></defs><path fill="#caacde" d="M 260.785156 156.398438 C 260.273438 156.136719 259.707031 156.390625 259.511719 156.847656 C 258.875 158.351562 258.085938 160.21875 256.582031 160.546875 C 254.882812 160.945312 253.292969 159.074219 252.878906 157.21875 C 252.359375 154.960938 252.746094 152.835938 252.144531 150.34375 C 251.976562 149.640625 251.105469 149.410156 250.605469 149.914062 C 248.148438 152.40625 245.289062 154.515625 242.121094 156.171875 C 240.296875 157.085938 239.007812 157.257812 238.179688 156.707031 C 237.367188 156.160156 237 154.925781 237.082031 153.058594 C 237.253906 150.035156 238.058594 146.960938 239.429688 144.097656 C 239.574219 143.730469 240.074219 143.28125 239.597656 142.65625 C 239.363281 142.359375 238.964844 142.238281 238.613281 142.339844 C 234.386719 143.628906 231.511719 144.695312 227.460938 143.503906 C 226.855469 143.335938 226.78125 143.257812 226.78125 142.691406 C 226.894531 137.65625 234.734375 133.746094 229.484375 128.921875 C 226.6875 126.332031 215.167969 122.804688 211.726562 121.636719 C 197.292969 116.914062 181.992188 114.925781 166.367188 116.214844 C 168.964844 103.207031 167.941406 89.589844 160.371094 80.382812 C 156.265625 75.371094 150.492188 72.421875 146.273438 71.925781 C 139.554688 69.382812 131.78125 69.339844 126.726562 70.167969 C 95.617188 75.242188 73.175781 95.507812 55.25 121.582031 C 42.207031 140.527344 33.226562 167.324219 50.613281 180.730469 C 55.425781 188.527344 66.140625 195.234375 81.539062 195.234375 C 100.417969 195.234375 116.566406 186.480469 130.71875 174.011719 C 134.875 183.476562 141.84375 191.640625 150.5 197.066406 C 155.785156 200.359375 161.871094 202.5 167.5 204.949219 C 175.683594 208.453125 181.164062 209.800781 187.195312 211.492188 C 197.179688 214.308594 201.066406 215.160156 211.628906 215.351562 C 207.046875 229.554688 226.460938 238.640625 234.714844 223.53125 C 236.925781 219.320312 236.738281 216.289062 235.714844 213.09375 C 255.101562 208.019531 263.210938 198.265625 266.4375 185.40625 C 266.4375 185.40625 266.4375 185.402344 266.4375 185.402344 C 266.867188 184.183594 270.015625 179.300781 269.371094 171.160156 C 268.851562 164.421875 265.71875 159.042969 260.785156 156.398438 Z M 56.757812 122.617188 C 71.125 101.707031 86.449219 87.542969 103.59375 79.308594 C 111.839844 75.375 123.90625 71.507812 133.046875 71.507812 C 140.488281 71.507812 149.609375 73.59375 154.050781 79.472656 C 154.109375 79.550781 154.132812 79.648438 154.1875 79.734375 C 155.566406 81.878906 155.105469 83.070312 152.515625 83.21875 C 151.394531 83.277344 151.617188 83.269531 150.46875 83.523438 C 136.398438 86.558594 156.472656 106.742188 159.089844 111.265625 C 159.804688 112.523438 160.429688 114.144531 160.152344 115.5625 C 160.015625 116.339844 159.753906 116.664062 159.398438 117.261719 C 159.03125 117.585938 158.417969 118.652344 156.121094 119.460938 C 151.5 121.0625 144.089844 118.65625 140.863281 122.648438 C 139.621094 124.21875 139.402344 126.59375 140.207031 129.261719 C 140.207031 129.261719 140.207031 129.265625 140.210938 129.269531 C 140.210938 129.269531 140.210938 129.273438 140.210938 129.277344 C 140.363281 129.769531 140.609375 130.21875 140.800781 130.691406 C 142.894531 135.832031 145.921875 139.074219 146.574219 143.28125 C 147.027344 146.242188 146.410156 149.292969 144.117188 150.8125 C 142.066406 152.179688 139.050781 152.003906 136.617188 151.902344 C 123.796875 151.355469 117.835938 145.570312 114.207031 150.449219 C 114.1875 150.472656 114.164062 150.492188 114.144531 150.519531 C 113.703125 151.136719 113.351562 151.894531 113.101562 152.785156 C 111.0625 159.796875 118.566406 165.800781 118.640625 172.046875 C 118.644531 172.082031 118.652344 172.113281 118.652344 172.144531 C 118.652344 175.480469 116.363281 178.941406 112.847656 180.476562 C 112.519531 180.617188 112.15625 180.671875 111.816406 180.777344 C 108.832031 181.726562 105.328125 181.46875 102.179688 179.914062 C 96.585938 177.144531 93.226562 171.625 86.992188 169.183594 C 86.433594 168.964844 85.898438 168.710938 85.304688 168.558594 C 80.265625 167.285156 74.582031 169.316406 71.492188 173.457031 C 67.914062 178.246094 67.65625 181.375 62.03125 183.105469 C 58.636719 184.15625 54.667969 181.3125 51.910156 179.453125 C 29.988281 162.890625 53.949219 126.691406 56.757812 122.617188 Z M 88.117188 185.078125 C 80.671875 186.757812 75.625 186.675781 73.246094 186.832031 C 72.773438 186.832031 72.335938 186.429688 72.335938 185.953125 C 72.335938 185.445312 72.738281 185.003906 73.246094 185.003906 C 78.105469 184.933594 82.964844 184.347656 87.75 183.289062 C 88.96875 183.113281 89.246094 184.835938 88.117188 185.078125 Z M 249.394531 202.867188 C 246.597656 204.746094 243.261719 205.511719 240.296875 205.242188 C 239.785156 205.207031 239.421875 204.769531 239.457031 204.257812 C 239.496094 203.746094 239.96875 203.378906 240.445312 203.414062 C 243.183594 203.636719 246.070312 202.90625 248.335938 201.371094 C 249.355469 200.6875 250.359375 202.164062 249.394531 202.867188 Z M 264.84375 184.464844 C 264.824219 184.5 264.8125 184.539062 264.800781 184.578125 C 264.792969 184.589844 264.777344 184.59375 264.773438 184.601562 C 263.808594 186.8125 260.722656 190.71875 257.769531 192.3125 C 254.046875 194.316406 251.582031 193.101562 247.824219 191.25 C 244.390625 189.535156 240.847656 187.78125 237.230469 190.15625 C 231.640625 193.882812 230.070312 202.285156 231.824219 207.980469 C 231.984375 208.5 232.214844 209.011719 232.421875 209.523438 C 234.441406 214.613281 235.878906 217.382812 233.101562 222.667969 C 225.65625 236.316406 208.53125 227.410156 213.753906 214.816406 C 215.644531 209.90625 220.390625 204.066406 214.742188 194.832031 C 211.011719 188.6875 204 183.972656 197.683594 183.367188 C 196.652344 183.265625 195.390625 183.140625 194.035156 183.109375 C 175.1875 182.679688 186.941406 200.914062 172.265625 198.390625 C 169.757812 197.921875 168.078125 197.082031 167.132812 195.820312 C 164.734375 192.609375 167.175781 187.855469 168.359375 184.425781 C 170.4375 178.351562 169.664062 170.785156 163.246094 169.195312 C 157.886719 167.859375 153.144531 171.800781 147.589844 172.246094 C 143.34375 172.589844 140.0625 171.054688 137.199219 167.808594 C 142.492188 162.34375 147.378906 156.351562 151.714844 149.972656 C 155.367188 144.566406 158.289062 138.648438 160.882812 133.023438 C 163.019531 128.402344 164.757812 123.304688 165.945312 118.074219 C 180.398438 116.808594 195.695312 118.320312 211.144531 123.367188 C 214.078125 124.375 225.792969 127.996094 228.246094 130.261719 C 230.234375 132.089844 229.570312 133.300781 227.882812 135.875 C 226.417969 138.109375 225.007812 140.351562 224.953125 142.667969 C 224.953125 144.144531 225.605469 144.882812 226.960938 145.261719 C 230.867188 146.402344 233.742188 145.714844 237.167969 144.683594 C 236.074219 147.335938 235.417969 150.167969 235.257812 152.964844 C 235.039062 157.984375 237.886719 160.300781 242.953125 157.796875 C 245.765625 156.324219 248.339844 154.523438 250.628906 152.429688 C 250.78125 154.125 250.699219 155.890625 251.097656 157.625 C 251.710938 160.355469 254.113281 162.914062 256.972656 162.335938 C 258.992188 161.886719 260.046875 160.125 260.78125 158.515625 C 268.628906 163.5625 269.34375 176.050781 264.84375 184.464844 Z M 264.84375 184.464844 " fill-opacity="1" fill-rule="nonzero"/><path fill="#caacde" d="M 222.730469 157.847656 C 223.65625 156.035156 223.699219 154.378906 223.640625 152.179688 C 223.335938 135.367188 184.347656 126.824219 179.539062 140.261719 C 178.898438 141.941406 178.148438 144.417969 178.667969 146.777344 C 176.273438 158.257812 206.773438 169.714844 219.074219 162.820312 C 220.996094 161.742188 222.539062 160.039062 222.730469 157.847656 Z M 220.824219 158.238281 C 220.496094 159.421875 219.601562 160.425781 218.179688 161.226562 C 213.980469 163.582031 206.148438 163.652344 198.207031 161.402344 C 187.589844 158.4375 179.558594 152.011719 180.445312 147.042969 C 180.449219 147.035156 180.453125 147.03125 180.457031 147.027344 L 180.460938 147.027344 C 180.464844 147.019531 180.46875 147.007812 180.472656 146.996094 C 180.472656 146.996094 180.476562 146.992188 180.476562 146.988281 C 180.488281 146.964844 180.496094 146.933594 180.5 146.898438 C 181.863281 142.128906 192.246094 140.679688 203.152344 143.730469 C 213.390625 146.621094 221.371094 152.808594 220.941406 157.527344 C 220.902344 157.851562 220.964844 157.703125 220.824219 158.238281 Z M 220.824219 158.238281 " fill-opacity="1" fill-rule="nonzero"/><path fill="#caacde" d="M 70.917969 137.550781 C 71.933594 140.597656 75.535156 143.804688 78.589844 144.371094 C 79.75 145.21875 81.175781 145.671875 82.839844 145.671875 C 88.253906 145.671875 95.832031 141.378906 102.34375 134.148438 C 111.238281 124.292969 114.5 113.21875 109.746094 108.910156 C 109.445312 108.65625 109.144531 108.441406 109.003906 108.386719 C 108.566406 108.003906 108.164062 106.804688 104.140625 104.914062 C 89.535156 97.992188 66.394531 124.929688 70.917969 137.550781 Z M 100.988281 132.925781 C 93.238281 141.527344 83.375 146.023438 79.261719 142.683594 C 78.3125 141.828125 77.78125 140.53125 77.695312 138.835938 C 76.992188 125.332031 100.703125 103.625 108.542969 110.285156 C 112.382812 113.761719 108.921875 124.132812 100.988281 132.925781 Z M 100.988281 132.925781 " fill-opacity="1" fill-rule="nonzero"/><path fill="#caacde" d="M 173.152344 127.109375 C 169.929688 128.199219 166.777344 129.539062 163.78125 131.085938 C 162.933594 131.515625 163.246094 132.808594 164.199219 132.808594 C 164.957031 132.808594 166.78125 131.191406 173.738281 128.84375 C 174.214844 128.679688 174.472656 128.160156 174.3125 127.683594 C 174.148438 127.203125 173.628906 126.949219 173.152344 127.109375 Z M 173.152344 127.109375 " fill-opacity="1" fill-rule="nonzero"/><path fill="#caacde" d="M 154.050781 148.523438 C 153.65625 148.214844 153.082031 148.273438 152.765625 148.671875 C 152.453125 149.070312 152.519531 149.644531 152.914062 149.957031 C 154.738281 151.402344 156.347656 153.109375 157.691406 155.039062 C 158.375 156.007812 159.890625 154.988281 159.191406 153.988281 C 157.742188 151.917969 156.011719 150.082031 154.050781 148.523438 Z M 154.050781 148.523438 " fill-opacity="1" fill-rule="nonzero"/><path fill="#caacde" d="M 181.402344 160.203125 C 180.4375 159.457031 179.339844 160.917969 180.289062 161.652344 C 181.988281 162.957031 183.804688 164.101562 185.679688 165.0625 C 186.757812 165.613281 187.578125 163.976562 186.507812 163.433594 C 184.730469 162.527344 183.011719 161.441406 181.402344 160.203125 Z M 181.402344 160.203125 " fill-opacity="1" fill-rule="nonzero"/><path fill="#caacde" d="M 228.773438 170.28125 C 226.15625 171.519531 223.246094 172.234375 220.347656 172.355469 C 219.167969 172.40625 219.203125 174.183594 220.386719 174.183594 C 221.570312 174.011719 224.933594 174.117188 229.550781 171.9375 C 230.007812 171.71875 230.207031 171.175781 229.992188 170.71875 C 229.773438 170.261719 229.226562 170.078125 228.773438 170.28125 Z M 228.773438 170.28125 " fill-opacity="1" fill-rule="nonzero"/><path fill="#caacde" d="M 248.957031 170.109375 C 247.207031 169.992188 245.398438 170.84375 244.488281 172.203125 C 241.335938 170.617188 238.238281 173.804688 239.445312 176.789062 C 239.628906 177.242188 240.15625 177.484375 240.632812 177.289062 C 241.101562 177.105469 241.324219 176.570312 241.136719 176.101562 C 240.828125 175.339844 241.160156 174.320312 241.859375 173.882812 C 242.5625 173.449219 243.613281 173.59375 244.167969 174.203125 C 244.652344 174.75 245.542969 174.523438 245.726562 173.828125 C 246.070312 172.554688 247.65625 171.800781 248.84375 171.933594 C 250.464844 172.03125 251.890625 173.105469 252.804688 173.992188 C 253.160156 174.347656 253.738281 174.335938 254.097656 173.972656 C 254.445312 173.613281 254.4375 173.035156 254.074219 172.679688 C 252.425781 171.082031 250.707031 170.214844 248.957031 170.109375 Z M 248.957031 170.109375 " fill-opacity="1" fill-rule="nonzero"/><path fill="#caacde" d="M 186.984375 127.59375 C 187.34375 126.707031 188.222656 126.023438 189.164062 125.882812 C 189.503906 125.835938 189.71875 125.882812 189.902344 125.824219 C 188.917969 126.90625 190.492188 128.15625 191.351562 126.941406 C 193.40625 124.789062 196.925781 125.464844 198.070312 128.097656 C 198.269531 128.554688 198.800781 128.769531 199.273438 128.570312 C 199.738281 128.367188 199.945312 127.828125 199.746094 127.367188 C 198.375 124.230469 194.449219 122.734375 191.1875 124.742188 C 189.902344 123.292969 186.425781 124.132812 185.292969 126.902344 C 184.835938 128.027344 186.519531 128.707031 186.984375 127.59375 Z M 186.984375 127.59375 " fill-opacity="1" fill-rule="nonzero"/><path fill="#caacde" d="M 105.996094 82.582031 C 109.476562 81.167969 113.296875 80.40625 117.050781 80.367188 C 117.554688 80.367188 117.957031 79.953125 117.953125 79.449219 C 117.953125 78.945312 117.542969 78.542969 117.042969 78.542969 C 115.539062 78.703125 111.3125 78.449219 105.3125 80.890625 C 104.84375 81.078125 104.621094 81.609375 104.808594 82.078125 C 105.003906 82.5625 105.554688 82.765625 105.996094 82.582031 Z M 105.996094 82.582031 " fill-opacity="1" fill-rule="nonzero"/><path fill="#caacde" d="M 71.25 115.613281 C 72.664062 112.566406 74.507812 109.738281 76.738281 107.203125 C 77.074219 106.824219 77.035156 106.246094 76.65625 105.914062 C 76.277344 105.578125 75.695312 105.613281 75.367188 105.996094 C 73.019531 108.660156 71.078125 111.640625 69.597656 114.84375 C 69.382812 115.304688 69.582031 115.847656 70.039062 116.058594 C 70.519531 116.277344 71.046875 116.054688 71.25 115.613281 Z M 71.25 115.613281 " fill-opacity="1" fill-rule="nonzero"/><path fill="#caacde" d="M 59.195312 166.066406 C 59.59375 165.757812 59.664062 165.183594 59.355469 164.785156 C 59.035156 164.382812 58.460938 164.320312 58.074219 164.625 C 56.496094 165.851562 54.066406 165.25 52.78125 163.917969 C 51.453125 162.550781 50.847656 160.382812 51.105469 157.972656 C 51.160156 157.488281 50.761719 157.09375 50.273438 157.019531 C 49.824219 156.941406 49.273438 157.308594 49.175781 157.789062 C 47.707031 158.386719 47 153.699219 48.546875 153.589844 C 49.046875 153.558594 49.425781 153.117188 49.390625 152.613281 C 49.300781 151.183594 46.785156 151.628906 46.0625 153.714844 C 45.265625 156.019531 46.535156 160.054688 49.238281 159.640625 C 49.597656 166.40625 55.828125 168.699219 59.195312 166.066406 Z M 59.195312 166.066406 " fill-opacity="1" fill-rule="nonzero"/><path fill="#caacde" d="M 87.230469 153.257812 C 85.371094 155.992188 82.652344 158.164062 79.574219 159.375 C 79.101562 159.558594 78.871094 160.089844 79.058594 160.554688 C 79.238281 161.023438 79.769531 161.261719 80.238281 161.074219 C 83.660156 159.734375 86.675781 157.324219 88.742188 154.285156 C 89.023438 153.867188 88.917969 153.300781 88.5 153.015625 C 88.085938 152.730469 87.515625 152.835938 87.230469 153.257812 Z M 87.230469 153.257812 " fill-opacity="1" fill-rule="nonzero"/><path fill="#caacde" d="M 114.441406 110.609375 C 114.800781 112.609375 114.972656 114.632812 114.949219 116.625 C 114.941406 117.125 115.347656 117.539062 115.851562 117.546875 C 115.855469 117.546875 115.859375 117.546875 115.859375 117.546875 C 116.359375 117.546875 116.765625 117.144531 116.773438 116.644531 C 116.800781 114.539062 116.621094 112.398438 116.238281 110.289062 C 116.019531 109.070312 114.230469 109.4375 114.441406 110.609375 Z M 114.441406 110.609375 " fill-opacity="1" fill-rule="nonzero"/><path fill="#caacde" d="M 129.34375 89.246094 C 129.667969 88.859375 129.613281 88.28125 129.226562 87.960938 C 128.621094 87.457031 128.609375 86.378906 128.949219 85.628906 C 129.378906 84.667969 130.257812 83.898438 131.109375 83.15625 C 131.488281 82.824219 131.527344 82.246094 131.195312 81.867188 C 130.867188 81.484375 130.285156 81.449219 129.910156 81.777344 C 128.953125 82.613281 127.871094 83.554688 127.285156 84.882812 C 125.980469 87.761719 128.253906 90.554688 129.34375 89.246094 Z M 129.34375 89.246094 " fill-opacity="1" fill-rule="nonzero"/><path fill="#caacde" d="M 49.6875 103.210938 L 54.222656 94.101562 C 54.445312 93.648438 54.261719 93.101562 53.808594 92.875 C 53.359375 92.65625 52.808594 92.835938 52.585938 93.285156 L 48.054688 102.398438 C 47.515625 103.480469 49.148438 104.285156 49.6875 103.210938 Z M 49.6875 103.210938 " fill-opacity="1" fill-rule="nonzero"/><path fill="#caacde" d="M 60.238281 77.296875 C 60.273438 77.296875 60.308594 77.292969 60.347656 77.289062 C 72.5625 75.867188 75.140625 77.945312 75.261719 76.050781 C 75.289062 75.550781 74.90625 75.113281 74.40625 75.082031 C 69.671875 74.792969 64.871094 74.921875 60.132812 75.476562 C 59 75.605469 59.09375 77.296875 60.238281 77.296875 Z M 60.238281 77.296875 " fill-opacity="1" fill-rule="nonzero"/><path fill="#caacde" d="M 36.496094 69.273438 L 33.867188 77.953125 C 33.722656 78.433594 33.996094 78.945312 34.480469 79.089844 C 34.929688 79.234375 35.46875 78.988281 35.617188 78.480469 L 38.242188 69.800781 C 38.59375 68.652344 36.839844 68.109375 36.496094 69.273438 Z M 36.496094 69.273438 " fill-opacity="1" fill-rule="nonzero"/><path fill="#caacde" d="M 59.226562 57.792969 L 51.945312 58.6875 C 50.816406 58.824219 50.917969 60.507812 52.054688 60.507812 C 52.878906 60.40625 59.894531 59.546875 59.445312 59.601562 C 59.949219 59.542969 60.304688 59.085938 60.242188 58.585938 C 60.183594 58.085938 59.722656 57.738281 59.226562 57.792969 Z M 59.226562 57.792969 " fill-opacity="1" fill-rule="nonzero"/><path fill="#caacde" d="M 188.152344 78.542969 C 187.652344 78.628906 187.320312 79.097656 187.40625 79.59375 C 187.496094 80.125 188.019531 80.433594 188.460938 80.339844 C 191.640625 79.792969 194.765625 78.898438 197.746094 77.683594 C 198.214844 77.492188 198.433594 76.957031 198.246094 76.492188 C 198.054688 76.023438 197.523438 75.792969 197.054688 75.992188 C 194.195312 77.160156 191.199219 78.019531 188.152344 78.542969 Z M 188.152344 78.542969 " fill-opacity="1" fill-rule="nonzero"/><path fill="#caacde" d="M 221.292969 82.464844 C 221.070312 82.019531 220.519531 81.84375 220.066406 82.058594 C 219.617188 82.285156 219.433594 82.832031 219.660156 83.285156 C 221.097656 86.160156 223.152344 88.785156 225.601562 90.882812 C 225.992188 91.21875 226.570312 91.160156 226.886719 90.785156 C 227.214844 90.398438 227.171875 89.824219 226.792969 89.496094 C 224.527344 87.558594 222.625 85.125 221.292969 82.464844 Z M 221.292969 82.464844 " fill-opacity="1" fill-rule="nonzero"/><g clip-path="url(#3070052ca3)"><path fill="#caacde" d="M 207.621094 58.40625 C 206.484375 58.804688 207.066406 60.515625 208.21875 60.132812 C 210.644531 59.28125 213.179688 58.726562 215.75 58.476562 C 216.980469 58.355469 216.753906 56.5 215.570312 56.65625 C 212.855469 56.921875 210.183594 57.507812 207.621094 58.40625 Z M 207.621094 58.40625 " fill-opacity="1" fill-rule="nonzero"/></g><g clip-path="url(#e5f4d2c60d)"><path fill="#caacde" d="M 117.648438 196.730469 C 117.972656 196.339844 117.921875 195.765625 117.539062 195.441406 C 117.152344 195.121094 116.578125 195.167969 116.25 195.550781 C 106.949219 206.621094 92.886719 212.664062 80.480469 217.992188 C 79.574219 218.378906 79.847656 219.746094 80.839844 219.746094 C 83.390625 219.453125 94.671875 219.507812 109.671875 214.289062 C 108.164062 223.613281 108.339844 233.367188 110.203125 242.617188 C 110.300781 243.109375 110.785156 243.421875 111.261719 243.332031 C 114.378906 242.761719 116.242188 239.890625 117.789062 236.867188 L 131.179688 210.6875 C 139.894531 217.792969 149.171875 224.332031 158.785156 230.136719 C 159.566406 230.613281 160.488281 229.753906 160.066406 228.9375 L 145.03125 199.8125 C 144.476562 198.722656 142.859375 199.582031 143.410156 200.644531 L 156.941406 226.867188 C 148.078125 221.34375 139.519531 215.195312 131.464844 208.558594 C 131.003906 208.1875 130.328125 208.335938 130.070312 208.847656 C 115.007812 238.03125 114.882812 239.96875 111.804688 241.273438 C 110.070312 232.03125 110.046875 222.304688 111.738281 213.066406 C 111.863281 212.363281 111.167969 211.800781 110.523438 212.046875 C 102.621094 214.9375 94.414062 216.789062 86.058594 217.570312 C 97.339844 212.621094 109.285156 206.683594 117.648438 196.730469 Z M 117.648438 196.730469 " fill-opacity="1" fill-rule="nonzero"/></g></svg>