<svg xmlns="http://www.w3.org/2000/svg" xmlns:xlink="http://www.w3.org/1999/xlink" width="400" zoomAndPan="magnify" viewBox="0 0 300 299.999988" height="400" preserveAspectRatio="xMidYMid meet" version="1.0"><defs><filter x="0%" y="0%" width="100%" height="100%" id="0f70e84a1a"><feColorMatrix values="0 0 0 0 1 0 0 0 0 1 0 0 0 0 1 0 0 0 1 0" color-interpolation-filters="sRGB"/></filter><clipPath id="8bbb48682b"><path d="M 30 45.300781 L 270 45.300781 L 270 254.550781 L 30 254.550781 Z M 30 45.300781 " clip-rule="nonzero"/></clipPath><mask id="4b99c75791"><g filter="url(#0f70e84a1a)"><rect x="-30" width="360" fill="#000000" y="-29.999999" height="359.999986" fill-opacity="0.914"/></g></mask><clipPath id="7552596cbf"><path d="M 0.480469 0.359375 L 239.761719 0.359375 L 239.761719 209.550781 L 0.480469 209.550781 Z M 0.480469 0.359375 " clip-rule="nonzero"/></clipPath><clipPath id="8ea4649204"><rect x="0" width="240" y="0" height="210"/></clipPath><mask id="0d5a1c853d"><g filter="url(#0f70e84a1a)"><rect x="-30" width="360" fill="#000000" y="-29.999999" height="359.999986" fill-opacity="0.844"/></g></mask><clipPath id="d3a7b0bb35"><path d="M 0.0390625 1 L 3.878906 1 L 3.878906 8.878906 L 0.0390625 8.878906 Z M 0.0390625 1 " clip-rule="nonzero"/></clipPath><clipPath id="865db4dc11"><rect x="0" width="4" y="0" height="9"/></clipPath><mask id="240a438e19"><g filter="url(#0f70e84a1a)"><rect x="-30" width="360" fill="#000000" y="-29.999999" height="359.999986" fill-opacity="0.844"/></g></mask><clipPath id="9d58288a97"><path d="M 0.800781 1 L 4.398438 1 L 4.398438 8.878906 L 0.800781 8.878906 Z M 0.800781 1 " clip-rule="nonzero"/></clipPath><clipPath id="9c19dd1fac"><rect x="0" width="5" y="0" height="9"/></clipPath><mask id="fe56f6a3bc"><g filter="url(#0f70e84a1a)"><rect x="-30" width="360" fill="#000000" y="-29.999999" height="359.999986" fill-opacity="0.75"/></g></mask><clipPath id="2415c05e95"><path d="M 0.199219 0.0390625 L 4 0.0390625 L 4 3.640625 L 0.199219 3.640625 Z M 0.199219 0.0390625 " clip-rule="nonzero"/></clipPath><clipPath id="51331eab5a"><rect x="0" width="5" y="0" height="4"/></clipPath><mask id="4431f8ad22"><g filter="url(#0f70e84a1a)"><rect x="-30" width="360" fill="#000000" y="-29.999999" height="359.999986" fill-opacity="0.75"/></g></mask><clipPath id="9591a7c4fa"><path d="M 0.640625 0.0390625 L 4.238281 0.0390625 L 4.238281 3.640625 L 0.640625 3.640625 Z M 0.640625 0.0390625 " clip-rule="nonzero"/></clipPath><clipPath id="4f22d36fa4"><rect x="0" width="5" y="0" height="4"/></clipPath><mask id="5399337b97"><g filter="url(#0f70e84a1a)"><rect x="-30" width="360" fill="#000000" y="-29.999999" height="359.999986" fill-opacity="0.847"/></g></mask><clipPath id="9f66507d7d"><path d="M 0.359375 0 L 5.878906 0 L 5.878906 5.28125 L 0.359375 5.28125 Z M 0.359375 0 " clip-rule="nonzero"/></clipPath><clipPath id="8a3ac85d37"><rect x="0" width="6" y="0" height="6"/></clipPath><mask id="df16b10867"><g filter="url(#0f70e84a1a)"><rect x="-30" width="360" fill="#000000" y="-29.999999" height="359.999986" fill-opacity="0.847"/></g></mask><clipPath id="0d13be27ba"><path d="M 0.800781 0 L 6.078125 0 L 6.078125 5.28125 L 0.800781 5.28125 Z M 0.800781 0 " clip-rule="nonzero"/></clipPath><clipPath id="350337dd55"><rect x="0" width="7" y="0" height="6"/></clipPath><mask id="5416b06f40"><g filter="url(#0f70e84a1a)"><rect x="-30" width="360" fill="#000000" y="-29.999999" height="359.999986" fill-opacity="0.834"/></g></mask><clipPath id="1c67906bcd"><path d="M 0.441406 0.238281 L 6.441406 0.238281 L 6.441406 7.441406 L 0.441406 7.441406 Z M 0.441406 0.238281 " clip-rule="nonzero"/></clipPath><clipPath id="8912ec2004"><rect x="0" width="7" y="0" height="8"/></clipPath><mask id="84d85089f4"><g filter="url(#0f70e84a1a)"><rect x="-30" width="360" fill="#000000" y="-29.999999" height="359.999986" fill-opacity="0.734"/></g></mask><clipPath id="b69a19a448"><path d="M 0.078125 1 L 2.960938 1 L 2.960938 3.839844 L 0.078125 3.839844 Z M 0.078125 1 " clip-rule="nonzero"/></clipPath><clipPath id="3672581448"><rect x="0" width="3" y="0" height="4"/></clipPath><mask id="fc34045086"><g filter="url(#0f70e84a1a)"><rect x="-30" width="360" fill="#000000" y="-29.999999" height="359.999986" fill-opacity="0.734"/></g></mask><clipPath id="0eedeb80d8"><path d="M 0.480469 1 L 3.601562 1 L 3.601562 3.839844 L 0.480469 3.839844 Z M 0.480469 1 " clip-rule="nonzero"/></clipPath><clipPath id="a74a187204"><rect x="0" width="4" y="0" height="4"/></clipPath><mask id="1ff82bb0c5"><g filter="url(#0f70e84a1a)"><rect x="-30" width="360" fill="#000000" y="-29.999999" height="359.999986" fill-opacity="0.578"/></g></mask><clipPath id="95f838cdcd"><path d="M 0.199219 1 L 2.121094 1 L 2.121094 2.601562 L 0.199219 2.601562 Z M 0.199219 1 " clip-rule="nonzero"/></clipPath><clipPath id="7df991daca"><rect x="0" width="3" y="0" height="3"/></clipPath><mask id="0ba7896210"><g filter="url(#0f70e84a1a)"><rect x="-30" width="360" fill="#000000" y="-29.999999" height="359.999986" fill-opacity="0.578"/></g></mask><clipPath id="58616eb5c7"><path d="M 0.320312 0.921875 L 2.238281 0.921875 L 2.238281 2.601562 L 0.320312 2.601562 Z M 0.320312 0.921875 " clip-rule="nonzero"/></clipPath><clipPath id="04433966e4"><rect x="0" width="3" y="0" height="3"/></clipPath><mask id="1935449894"><g filter="url(#0f70e84a1a)"><rect x="-30" width="360" fill="#000000" y="-29.999999" height="359.999986" fill-opacity="0.865"/></g></mask><clipPath id="6eb0fa20a8"><path d="M 0.121094 1 L 13.320312 1 L 13.320312 6.679688 L 0.121094 6.679688 Z M 0.121094 1 " clip-rule="nonzero"/></clipPath><clipPath id="4778666e29"><rect x="0" width="14" y="0" height="7"/></clipPath><mask id="b54573b859"><g filter="url(#0f70e84a1a)"><rect x="-30" width="360" fill="#000000" y="-29.999999" height="359.999986" fill-opacity="0.74"/></g></mask><clipPath id="bc23b7dc62"><path d="M 0 0.601562 L 3.839844 0.601562 L 3.839844 4.441406 L 0 4.441406 Z M 0 0.601562 " clip-rule="nonzero"/></clipPath><clipPath id="8e173be055"><rect x="0" width="4" y="0" height="5"/></clipPath><mask id="00000bcaf0"><g filter="url(#0f70e84a1a)"><rect x="-30" width="360" fill="#000000" y="-29.999999" height="359.999986" fill-opacity="0.823"/></g></mask><clipPath id="8bf877d468"><path d="M 0.398438 0.519531 L 5.679688 0.519531 L 5.679688 8 L 0.398438 8 Z M 0.398438 0.519531 " clip-rule="nonzero"/></clipPath><clipPath id="a5f5fc0d2b"><rect x="0" width="6" y="0" height="9"/></clipPath><mask id="fdf27ecd17"><g filter="url(#0f70e84a1a)"><rect x="-30" width="360" fill="#000000" y="-29.999999" height="359.999986" fill-opacity="0.833"/></g></mask><clipPath id="5353b9fb43"><path d="M 0.519531 0.398438 L 5.800781 0.398438 L 5.800781 8 L 0.519531 8 Z M 0.519531 0.398438 " clip-rule="nonzero"/></clipPath><clipPath id="96edcb29ae"><rect x="0" width="6" y="0" height="9"/></clipPath><mask id="a0a51d92ce"><g filter="url(#0f70e84a1a)"><rect x="-30" width="360" fill="#000000" y="-29.999999" height="359.999986" fill-opacity="0.902"/></g></mask><clipPath id="d5dc9bf775"><path d="M 1 1 L 22.679688 1 L 22.679688 25.71875 L 1 25.71875 Z M 1 1 " clip-rule="nonzero"/></clipPath><clipPath id="ae29108cbb"><rect x="0" width="23" y="0" height="26"/></clipPath><mask id="7758aa0436"><g filter="url(#0f70e84a1a)"><rect x="-30" width="360" fill="#000000" y="-29.999999" height="359.999986" fill-opacity="0.902"/></g></mask><clipPath id="a2b67d58a2"><path d="M 0 1 L 21.601562 1 L 21.601562 25.71875 L 0 25.71875 Z M 0 1 " clip-rule="nonzero"/></clipPath><clipPath id="d1ecb32c57"><rect x="0" width="22" y="0" height="26"/></clipPath><mask id="3d987d212b"><g filter="url(#0f70e84a1a)"><rect x="-30" width="360" fill="#000000" y="-29.999999" height="359.999986" fill-opacity="0.839"/></g></mask><clipPath id="2d93d2027c"><path d="M 0.121094 0.238281 L 5.640625 0.238281 L 5.640625 6 L 0.121094 6 Z M 0.121094 0.238281 " clip-rule="nonzero"/></clipPath><clipPath id="aed615f25d"><rect x="0" width="6" y="0" height="6"/></clipPath><mask id="440590d9cf"><g filter="url(#0f70e84a1a)"><rect x="-30" width="360" fill="#000000" y="-29.999999" height="359.999986" fill-opacity="0.72"/></g></mask><clipPath id="7a6d6035ec"><path d="M 0.921875 0.359375 L 3.800781 0.359375 L 3.800781 3.238281 L 0.921875 3.238281 Z M 0.921875 0.359375 " clip-rule="nonzero"/></clipPath><clipPath id="e20709b9ab"><rect x="0" width="4" y="0" height="4"/></clipPath><mask id="a2517430a0"><g filter="url(#0f70e84a1a)"><rect x="-30" width="360" fill="#000000" y="-29.999999" height="359.999986" fill-opacity="0.73"/></g></mask><clipPath id="49a8fa4cad"><path d="M 0.078125 0.359375 L 4 0.359375 L 4 4.199219 L 0.078125 4.199219 Z M 0.078125 0.359375 " clip-rule="nonzero"/></clipPath><clipPath id="507518efd3"><rect x="0" width="5" y="0" height="5"/></clipPath><mask id="c7521dd41d"><g filter="url(#0f70e84a1a)"><rect x="-30" width="360" fill="#000000" y="-29.999999" height="359.999986" fill-opacity="0.739"/></g></mask><clipPath id="c0c780fd84"><path d="M 0.71875 0.320312 L 4.558594 0.320312 L 4.558594 4 L 0.71875 4 Z M 0.71875 0.320312 " clip-rule="nonzero"/></clipPath><clipPath id="c217491ab3"><rect x="0" width="5" y="0" height="5"/></clipPath><mask id="d8327666b7"><g filter="url(#0f70e84a1a)"><rect x="-30" width="360" fill="#000000" y="-29.999999" height="359.999986" fill-opacity="0.555"/></g></mask><clipPath id="59810e654b"><path d="M 0.320312 0.519531 L 2.480469 0.519531 L 2.480469 2.441406 L 0.320312 2.441406 Z M 0.320312 0.519531 " clip-rule="nonzero"/></clipPath><clipPath id="42d65a9e08"><rect x="0" width="3" y="0" height="3"/></clipPath><mask id="37d08509c2"><g filter="url(#0f70e84a1a)"><rect x="-30" width="360" fill="#000000" y="-29.999999" height="359.999986" fill-opacity="0.821"/></g></mask><clipPath id="58798ad112"><path d="M 0.199219 0.761719 L 5 0.761719 L 5 8.679688 L 0.199219 8.679688 Z M 0.199219 0.761719 " clip-rule="nonzero"/></clipPath><clipPath id="e0107d950e"><rect x="0" width="5" y="0" height="9"/></clipPath><mask id="271e6e0151"><g filter="url(#0f70e84a1a)"><rect x="-30" width="360" fill="#000000" y="-29.999999" height="359.999986" fill-opacity="0.854"/></g></mask><clipPath id="bf675d3a30"><path d="M 0.601562 0.679688 L 12.601562 0.679688 L 12.601562 9.558594 L 0.601562 9.558594 Z M 0.601562 0.679688 " clip-rule="nonzero"/></clipPath><clipPath id="dfd87a4d5c"><rect x="0" width="13" y="0" height="10"/></clipPath><mask id="5f29953f24"><g filter="url(#0f70e84a1a)"><rect x="-30" width="360" fill="#000000" y="-29.999999" height="359.999986" fill-opacity="0.837"/></g></mask><clipPath id="f1eff91141"><path d="M 0.238281 0.078125 L 5.761719 0.078125 L 5.761719 5.601562 L 0.238281 5.601562 Z M 0.238281 0.078125 " clip-rule="nonzero"/></clipPath><clipPath id="aad0af8da3"><rect x="0" width="6" y="0" height="6"/></clipPath><mask id="4326eef51b"><g filter="url(#0f70e84a1a)"><rect x="-30" width="360" fill="#000000" y="-29.999999" height="359.999986" fill-opacity="0.729"/></g></mask><clipPath id="f96b4dc790"><path d="M 0 0.640625 L 3.839844 0.640625 L 3.839844 4.480469 L 0 4.480469 Z M 0 0.640625 " clip-rule="nonzero"/></clipPath><clipPath id="e4e4b40718"><rect x="0" width="4" y="0" height="5"/></clipPath><mask id="c3907819c3"><g filter="url(#0f70e84a1a)"><rect x="-30" width="360" fill="#000000" y="-29.999999" height="359.999986" fill-opacity="0.829"/></g></mask><clipPath id="5c105e500d"><path d="M 1 0.238281 L 6.441406 0.238281 L 6.441406 5.761719 L 1 5.761719 Z M 1 0.238281 " clip-rule="nonzero"/></clipPath><clipPath id="da722c41f8"><rect x="0" width="7" y="0" height="6"/></clipPath><mask id="e0d98f562d"><g filter="url(#0f70e84a1a)"><rect x="-30" width="360" fill="#000000" y="-29.999999" height="359.999986" fill-opacity="0.552"/></g></mask><clipPath id="1bf34a8fc6"><path d="M 0.398438 0.199219 L 2.320312 0.199219 L 2.320312 2 L 0.398438 2 Z M 0.398438 0.199219 " clip-rule="nonzero"/></clipPath><clipPath id="2e1c85902b"><rect x="0" width="3" y="0" height="3"/></clipPath><mask id="a2c6f90a0e"><g filter="url(#0f70e84a1a)"><rect x="-30" width="360" fill="#000000" y="-29.999999" height="359.999986" fill-opacity="0.719"/></g></mask><clipPath id="f6e5b09b3e"><path d="M 0.320312 0.679688 L 3.199219 0.679688 L 3.199219 3.558594 L 0.320312 3.558594 Z M 0.320312 0.679688 " clip-rule="nonzero"/></clipPath><clipPath id="c64ce0850a"><rect x="0" width="4" y="0" height="4"/></clipPath><mask id="2434d1b3ad"><g filter="url(#0f70e84a1a)"><rect x="-30" width="360" fill="#000000" y="-29.999999" height="359.999986" fill-opacity="0.709"/></g></mask><clipPath id="e2dc405092"><path d="M 0.28125 0.558594 L 3.398438 0.558594 L 3.398438 3.441406 L 0.28125 3.441406 Z M 0.28125 0.558594 " clip-rule="nonzero"/></clipPath><clipPath id="fb28ea54a7"><rect x="0" width="4" y="0" height="4"/></clipPath><mask id="73567e24c7"><g filter="url(#0f70e84a1a)"><rect x="-30" width="360" fill="#000000" y="-29.999999" height="359.999986" fill-opacity="0.531"/></g></mask><clipPath id="daba87a42c"><path d="M 0.601562 0.238281 L 2.519531 0.238281 L 2.519531 2.398438 L 0.601562 2.398438 Z M 0.601562 0.238281 " clip-rule="nonzero"/></clipPath><clipPath id="74f8db0838"><rect x="0" width="3" y="0" height="3"/></clipPath><mask id="3434c422a1"><g filter="url(#0f70e84a1a)"><rect x="-30" width="360" fill="#000000" y="-29.999999" height="359.999986" fill-opacity="0.893"/></g></mask><clipPath id="faedd41785"><path d="M 0.601562 0.199219 L 21.480469 0.199219 L 21.480469 26.121094 L 0.601562 26.121094 Z M 0.601562 0.199219 " clip-rule="nonzero"/></clipPath><clipPath id="83d2220ae4"><rect x="0" width="22" y="0" height="27"/></clipPath><mask id="73fa568a23"><g filter="url(#0f70e84a1a)"><rect x="-30" width="360" fill="#000000" y="-29.999999" height="359.999986" fill-opacity="0.83"/></g></mask><clipPath id="35dfd28f31"><path d="M 0.640625 0.28125 L 6 0.28125 L 6 5.800781 L 0.640625 5.800781 Z M 0.640625 0.28125 " clip-rule="nonzero"/></clipPath><clipPath id="b3ec4461be"><rect x="0" width="7" y="0" height="6"/></clipPath><mask id="087449e94d"><g filter="url(#0f70e84a1a)"><rect x="-30" width="360" fill="#000000" y="-29.999999" height="359.999986" fill-opacity="0.843"/></g></mask><clipPath id="60a9a4dce4"><path d="M 0.320312 0.238281 L 13 0.238281 L 13 8 L 0.320312 8 Z M 0.320312 0.238281 " clip-rule="nonzero"/></clipPath><clipPath id="f3d6825657"><rect x="0" width="14" y="0" height="9"/></clipPath><mask id="c1e8e49da1"><g filter="url(#0f70e84a1a)"><rect x="-30" width="360" fill="#000000" y="-29.999999" height="359.999986" fill-opacity="0.533"/></g></mask><clipPath id="6ba9a725d4"><path d="M 1 0.160156 L 3 0.160156 L 3 2 L 1 2 Z M 1 0.160156 " clip-rule="nonzero"/></clipPath><clipPath id="664ec37d5f"><rect x="0" width="4" y="0" height="3"/></clipPath><mask id="fa753b6990"><g filter="url(#0f70e84a1a)"><rect x="-30" width="360" fill="#000000" y="-29.999999" height="359.999986" fill-opacity="0.707"/></g></mask><clipPath id="d77db74809"><path d="M 0.761719 0.160156 L 3.640625 0.160156 L 3.640625 3.28125 L 0.761719 3.28125 Z M 0.761719 0.160156 " clip-rule="nonzero"/></clipPath><clipPath id="4d7e8368c6"><rect x="0" width="4" y="0" height="4"/></clipPath><mask id="05d8168203"><g filter="url(#0f70e84a1a)"><rect x="-30" width="360" fill="#000000" y="-29.999999" height="359.999986" fill-opacity="0.893"/></g></mask><clipPath id="c2aa0cea08"><path d="M 0.441406 0.761719 L 22.761719 0.761719 L 22.761719 21.398438 L 0.441406 21.398438 Z M 0.441406 0.761719 " clip-rule="nonzero"/></clipPath><clipPath id="11d5489e1f"><rect x="0" width="23" y="0" height="22"/></clipPath><mask id="288abd4837"><g filter="url(#0f70e84a1a)"><rect x="-30" width="360" fill="#000000" y="-29.999999" height="359.999986" fill-opacity="0.89"/></g></mask><clipPath id="bf4c576f54"><path d="M 0.28125 1 L 18.28125 1 L 18.28125 33.640625 L 0.28125 33.640625 Z M 0.28125 1 " clip-rule="nonzero"/></clipPath><clipPath id="dcfce9c808"><rect x="0" width="19" y="0" height="34"/></clipPath><mask id="eaf4382af7"><g filter="url(#0f70e84a1a)"><rect x="-30" width="360" fill="#000000" y="-29.999999" height="359.999986" fill-opacity="0.885"/></g></mask><clipPath id="446e8f8ae3"><path d="M 0.640625 0.601562 L 22 0.601562 L 22 26.761719 L 0.640625 26.761719 Z M 0.640625 0.601562 " clip-rule="nonzero"/></clipPath><clipPath id="7b79519a21"><rect x="0" width="22" y="0" height="27"/></clipPath><mask id="6597301ffd"><g filter="url(#0f70e84a1a)"><rect x="-30" width="360" fill="#000000" y="-29.999999" height="359.999986" fill-opacity="0.733"/></g></mask><clipPath id="da6a51ddc0"><path d="M 0.238281 0.761719 L 3.839844 0.761719 L 3.839844 4.359375 L 0.238281 4.359375 Z M 0.238281 0.761719 " clip-rule="nonzero"/></clipPath><clipPath id="e18553829f"><rect x="0" width="4" y="0" height="5"/></clipPath><mask id="4bde5f5270"><g filter="url(#0f70e84a1a)"><rect x="-30" width="360" fill="#000000" y="-29.999999" height="359.999986" fill-opacity="0.859"/></g></mask><clipPath id="2638d99153"><path d="M 0.359375 0.601562 L 4.921875 0.601562 L 4.921875 12.839844 L 0.359375 12.839844 Z M 0.359375 0.601562 " clip-rule="nonzero"/></clipPath><clipPath id="ddbae8ca6a"><rect x="0" width="5" y="0" height="13"/></clipPath><mask id="75cde20a58"><g filter="url(#0f70e84a1a)"><rect x="-30" width="360" fill="#000000" y="-29.999999" height="359.999986" fill-opacity="0.885"/></g></mask><clipPath id="dac5144560"><path d="M 0.121094 0.359375 L 21 0.359375 L 21 22 L 0.121094 22 Z M 0.121094 0.359375 " clip-rule="nonzero"/></clipPath><clipPath id="b8ca9e4649"><rect x="0" width="21" y="0" height="23"/></clipPath><mask id="cf190543ec"><g filter="url(#0f70e84a1a)"><rect x="-30" width="360" fill="#000000" y="-29.999999" height="359.999986" fill-opacity="0.891"/></g></mask><clipPath id="72dd09bd46"><path d="M 0.800781 0.078125 L 32 0.078125 L 32 21.199219 L 0.800781 21.199219 Z M 0.800781 0.078125 " clip-rule="nonzero"/></clipPath><clipPath id="1bab0c014c"><rect x="0" width="33" y="0" height="22"/></clipPath><mask id="e077ae179f"><g filter="url(#0f70e84a1a)"><rect x="-30" width="360" fill="#000000" y="-29.999999" height="359.999986" fill-opacity="0.883"/></g></mask><clipPath id="2c2d2a79cc"><path d="M 0.761719 0.238281 L 20.921875 0.238281 L 20.921875 31.921875 L 0.761719 31.921875 Z M 0.761719 0.238281 " clip-rule="nonzero"/></clipPath><clipPath id="bc1245d257"><rect x="0" width="21" y="0" height="32"/></clipPath><mask id="701b400fb1"><g filter="url(#0f70e84a1a)"><rect x="-30" width="360" fill="#000000" y="-29.999999" height="359.999986" fill-opacity="0.737"/></g></mask><clipPath id="cf3e51ae5e"><path d="M 0.480469 0.199219 L 4 0.199219 L 4 3.800781 L 0.480469 3.800781 Z M 0.480469 0.199219 " clip-rule="nonzero"/></clipPath><clipPath id="ffeba30658"><rect x="0" width="5" y="0" height="4"/></clipPath><mask id="58c882ad19"><g filter="url(#0f70e84a1a)"><rect x="-30" width="360" fill="#000000" y="-29.999999" height="359.999986" fill-opacity="0.726"/></g></mask><clipPath id="27356d7a47"><path d="M 0.398438 0.199219 L 4 0.199219 L 4 3.800781 L 0.398438 3.800781 Z M 0.398438 0.199219 " clip-rule="nonzero"/></clipPath><clipPath id="86d95b20a8"><rect x="0" width="5" y="0" height="4"/></clipPath><mask id="d5aab9026e"><g filter="url(#0f70e84a1a)"><rect x="-30" width="360" fill="#000000" y="-29.999999" height="359.999986" fill-opacity="0.86"/></g></mask><clipPath id="1318115445"><path d="M 0.398438 0.800781 L 11.679688 0.800781 L 11.679688 8.238281 L 0.398438 8.238281 Z M 0.398438 0.800781 " clip-rule="nonzero"/></clipPath><clipPath id="942debb58b"><rect x="0" width="12" y="0" height="9"/></clipPath><mask id="cfce4b4620"><g filter="url(#0f70e84a1a)"><rect x="-30" width="360" fill="#000000" y="-29.999999" height="359.999986" fill-opacity="0.85"/></g></mask><clipPath id="48c4adecca"><path d="M 0.160156 0.28125 L 5.921875 0.28125 L 5.921875 12.28125 L 0.160156 12.28125 Z M 0.160156 0.28125 " clip-rule="nonzero"/></clipPath><clipPath id="f9648ef50a"><rect x="0" width="6" y="0" height="13"/></clipPath><mask id="b5f89cae0f"><g filter="url(#0f70e84a1a)"><rect x="-30" width="360" fill="#000000" y="-29.999999" height="359.999986" fill-opacity="0.883"/></g></mask><clipPath id="0871136019"><path d="M 0.121094 1 L 29.878906 1 L 29.878906 24.601562 L 0.121094 24.601562 Z M 0.121094 1 " clip-rule="nonzero"/></clipPath><clipPath id="0db452a95e"><rect x="0" width="30" y="0" height="25"/></clipPath><mask id="9f0044e283"><g filter="url(#0f70e84a1a)"><rect x="-30" width="360" fill="#000000" y="-29.999999" height="359.999986" fill-opacity="0.725"/></g></mask><clipPath id="46bc24f2e5"><path d="M 1 0.28125 L 4.441406 0.28125 L 4.441406 3.878906 L 1 3.878906 Z M 1 0.28125 " clip-rule="nonzero"/></clipPath><clipPath id="ef32699590"><rect x="0" width="5" y="0" height="4"/></clipPath><mask id="9b9a441706"><g filter="url(#0f70e84a1a)"><rect x="-30" width="360" fill="#000000" y="-29.999999" height="359.999986" fill-opacity="0.85"/></g></mask><clipPath id="2b87c48206"><path d="M 0.761719 0.359375 L 11.320312 0.359375 L 11.320312 9 L 0.761719 9 Z M 0.761719 0.359375 " clip-rule="nonzero"/></clipPath><clipPath id="ec8a7ec7df"><rect x="0" width="12" y="0" height="9"/></clipPath></defs><g clip-path="url(#8bbb48682b)"><g mask="url(#4b99c75791)"><g transform="matrix(1, 0, 0, 1, 30, 45)"><g clip-path="url(#8ea4649204)"><g clip-path="url(#7552596cbf)"><path fill="#caacde" d="M 87.964844 0.429688 C 89.265625 0.332031 90.523438 0.519531 91.734375 1.003906 C 93.65625 1.714844 95.328125 2.804688 96.75 4.269531 C 97.410156 5.066406 97.945312 5.941406 98.367188 6.894531 C 98.597656 7.738281 98.863281 8.570312 99.175781 9.386719 C 100.527344 8.992188 101.90625 8.734375 103.316406 8.609375 C 108.699219 8.328125 114.085938 8.308594 119.472656 8.542969 C 121.15625 8.640625 122.804688 8.917969 124.417969 9.386719 C 124.730469 8.570312 125 7.738281 125.226562 6.894531 C 125.988281 5.121094 127.167969 3.699219 128.761719 2.621094 C 130.304688 1.535156 132.011719 0.816406 133.878906 0.464844 C 135.347656 0.332031 136.761719 0.558594 138.117188 1.136719 C 140.230469 2.03125 142.078125 3.296875 143.671875 4.941406 C 146.59375 8.707031 147.625 12.949219 146.769531 17.664062 C 146.417969 19.589844 145.8125 21.429688 144.953125 23.183594 C 144.480469 23.941406 144.132812 24.746094 143.910156 25.609375 C 144.039062 26.324219 144.164062 27.042969 144.277344 27.761719 C 144.519531 28.582031 144.789062 29.386719 145.085938 30.1875 C 146.046875 32.128906 146.988281 34.082031 147.914062 36.042969 C 148.730469 37.953125 149.492188 39.882812 150.203125 41.832031 C 151.160156 45.707031 151.292969 49.613281 150.605469 53.546875 C 149.632812 57.796875 147.601562 61.445312 144.515625 64.484375 C 144 64.902344 143.460938 65.28125 142.898438 65.628906 C 143.765625 66.722656 144.605469 67.832031 145.421875 68.960938 C 146.980469 72.078125 147.878906 75.375 148.117188 78.859375 C 148.296875 80.617188 148.226562 82.371094 147.914062 84.109375 C 147.699219 85.308594 147.429688 86.5 147.105469 87.675781 C 146.578125 89.46875 146.058594 91.265625 145.558594 93.0625 C 145.511719 93.46875 145.511719 93.871094 145.558594 94.273438 C 145.726562 95.011719 145.953125 95.726562 146.230469 96.429688 C 147.4375 95.222656 148.726562 94.113281 150.101562 93.097656 C 150.472656 92.878906 150.855469 92.675781 151.246094 92.492188 C 152.335938 92.046875 153.410156 91.589844 154.476562 91.109375 C 153.652344 89.503906 153.179688 87.808594 153.0625 86.027344 C 152.445312 81.3125 153.378906 76.8125 155.859375 72.53125 C 157.226562 70.117188 158.945312 67.976562 161.007812 66.101562 C 163.75 63.875 166.621094 61.835938 169.625 59.976562 C 171.183594 58.839844 172.542969 57.507812 173.695312 55.96875 C 173.796875 55.6875 173.863281 55.394531 173.898438 55.09375 C 173.945312 53.929688 174.066406 52.796875 174.269531 51.695312 C 174.683594 48.183594 176.042969 45.050781 178.34375 42.304688 C 180.144531 40.390625 182.289062 38.988281 184.769531 38.097656 C 187.398438 37.429688 190.023438 37.429688 192.648438 38.097656 C 194.128906 38.539062 195.351562 39.359375 196.316406 40.554688 C 198.152344 42.722656 199.171875 45.179688 199.378906 47.925781 C 199.339844 48.421875 199.273438 48.917969 199.175781 49.40625 C 199.199219 49.429688 199.222656 49.453125 199.246094 49.472656 C 198.996094 50.21875 198.816406 50.957031 198.707031 51.695312 C 199.433594 51.890625 200.152344 52.117188 200.859375 52.367188 C 202.417969 53.011719 203.945312 53.730469 205.4375 54.523438 C 209.445312 56.738281 213.371094 59.070312 217.21875 61.523438 C 217.742188 62 218.304688 62.429688 218.902344 62.804688 C 219.480469 63.3125 220.027344 63.839844 220.550781 64.386719 C 221.164062 63.90625 221.734375 63.378906 222.269531 62.804688 C 223.871094 61.527344 225.699219 60.820312 227.753906 60.683594 C 229.632812 60.542969 231.507812 60.800781 233.375 61.457031 C 234.464844 62.027344 235.417969 62.78125 236.238281 63.710938 C 238.910156 66.984375 240 70.585938 239.5 74.515625 C 239.050781 77.519531 237.851562 80.222656 235.898438 82.628906 C 234.203125 84.550781 232.261719 86.175781 230.078125 87.507812 C 229.800781 87.722656 229.542969 87.957031 229.304688 88.214844 C 228.929688 89.15625 228.605469 90.109375 228.328125 91.078125 C 228.375 91.167969 228.351562 91.257812 228.257812 91.347656 C 228.28125 91.367188 228.304688 91.390625 228.328125 91.414062 C 228.09375 92.265625 227.960938 93.117188 227.921875 93.972656 C 227.78125 97.238281 227.445312 100.449219 226.914062 103.597656 C 226.785156 104.917969 226.449219 106.222656 225.902344 107.503906 C 225.332031 109.152344 224.578125 110.734375 223.648438 112.25 C 222.613281 113.949219 221.390625 115.507812 219.980469 116.925781 C 217.253906 119.4375 214.089844 121.167969 210.488281 122.109375 C 209.78125 122.269531 209.085938 122.347656 208.398438 122.347656 C 208.515625 123.472656 208.675781 124.628906 208.871094 125.8125 C 208.871094 126.441406 208.871094 127.070312 208.871094 127.699219 C 208.578125 129.542969 208.140625 131.390625 207.558594 133.253906 C 207.027344 134.613281 206.464844 135.960938 205.875 137.292969 C 205.417969 138.121094 204.921875 138.929688 204.394531 139.714844 C 203.574219 140.734375 202.71875 141.71875 201.835938 142.675781 C 200.222656 144.265625 198.585938 145.839844 196.921875 147.390625 C 196.328125 148.308594 195.96875 149.316406 195.84375 150.417969 C 195.695312 151.691406 195.515625 152.949219 195.308594 154.1875 C 194.75 156.910156 194.164062 159.625 193.554688 162.335938 C 192.945312 164.234375 192.292969 166.117188 191.605469 167.988281 C 190.332031 171.226562 188.664062 174.234375 186.589844 177.011719 C 184.816406 179.199219 182.773438 181.09375 180.460938 182.699219 C 177.894531 184.359375 175.101562 185.292969 172.082031 185.492188 C 171.210938 185.46875 170.40625 185.46875 169.65625 185.492188 C 165.660156 185.089844 161.859375 184.070312 158.246094 182.429688 C 157.164062 181.964844 156.109375 181.449219 155.082031 180.882812 C 148.496094 176.722656 141.785156 172.75 134.953125 168.964844 C 133.484375 168.128906 131.980469 167.34375 130.445312 166.609375 C 126.246094 164.132812 122.644531 160.957031 119.640625 157.082031 C 118.414062 155.339844 117.449219 153.453125 116.746094 151.429688 C 116.015625 148.757812 115.867188 146.140625 116.308594 143.585938 C 116.285156 143.5625 116.261719 143.539062 116.238281 143.519531 C 116.296875 143.265625 116.363281 143.003906 116.441406 142.746094 C 114.894531 142.695312 113.34375 142.648438 111.796875 142.609375 C 106.984375 142.65625 102.167969 142.769531 97.355469 142.945312 C 96.128906 142.941406 94.902344 142.851562 93.6875 142.675781 C 93.75 143.730469 94.097656 144.671875 94.730469 145.503906 C 95.886719 146.855469 97.074219 148.179688 98.300781 149.476562 C 99.574219 151.152344 100.898438 152.792969 102.269531 154.390625 C 104.46875 157.445312 106.398438 160.675781 108.0625 164.085938 C 109.261719 166.777344 110.101562 169.582031 110.585938 172.5 C 110.570312 172.539062 110.550781 172.574219 110.519531 172.601562 C 111.210938 176.429688 110.839844 180.167969 109.40625 183.808594 C 109.101562 184.535156 108.742188 185.230469 108.332031 185.894531 C 106.851562 188.136719 105.042969 190.078125 102.910156 191.71875 C 100.101562 193.851562 97.074219 195.625 93.824219 197.039062 C 87.085938 199.273438 80.445312 201.675781 73.894531 204.242188 C 70.980469 205.46875 68.050781 206.667969 65.109375 207.84375 C 63.140625 208.382812 61.109375 208.839844 59.019531 209.222656 C 57.65625 209.421875 56.34375 209.566406 55.082031 209.660156 C 54.195312 209.648438 53.296875 209.648438 52.386719 209.660156 C 51.289062 209.519531 50.179688 209.351562 49.054688 209.15625 C 45.191406 208.25 41.96875 206.285156 39.394531 203.265625 C 37.351562 200.90625 35.738281 198.28125 34.546875 195.386719 C 33.710938 193.386719 33.058594 191.320312 32.597656 189.195312 C 32.195312 187.265625 31.871094 185.359375 31.621094 183.472656 C 31.46875 182.453125 31.359375 181.433594 31.285156 180.410156 C 31.277344 180.3125 31.300781 180.199219 31.351562 180.074219 C 31.28125 178.90625 31.214844 177.738281 31.148438 176.574219 C 31.160156 176.519531 31.179688 176.476562 31.214844 176.4375 C 31.167969 176.070312 31.121094 175.699219 31.082031 175.328125 C 31.136719 173.167969 31.136719 170.980469 31.082031 168.761719 C 30.902344 168.246094 30.691406 167.742188 30.441406 167.25 C 29.113281 165.539062 27.8125 163.8125 26.539062 162.066406 C 25.417969 160.441406 24.460938 158.722656 23.675781 156.914062 C 22.863281 154.328125 22.324219 151.683594 22.058594 148.972656 C 22.0625 147.878906 22.070312 146.765625 22.09375 145.640625 C 22.269531 144.507812 22.570312 143.398438 23.003906 142.308594 C 22.980469 142.285156 22.957031 142.261719 22.9375 142.238281 C 23.089844 141.808594 23.226562 141.371094 23.339844 140.925781 C 21.851562 140.617188 20.460938 140.066406 19.164062 139.277344 C 15.851562 137.265625 13.214844 134.585938 11.253906 131.234375 C 9.59375 128.023438 8.550781 124.671875 8.125 121.167969 C 8.128906 120.054688 8.128906 118.933594 8.125 117.804688 C 8.167969 117.195312 8.214844 116.589844 8.261719 115.984375 C 8.238281 115.871094 8.214844 115.761719 8.191406 115.648438 C 8.304688 113.714844 8.503906 111.761719 8.796875 109.792969 C 8.804688 108.824219 8.792969 107.828125 8.765625 106.796875 C 8.71875 105.652344 8.496094 104.554688 8.089844 103.496094 C 7.035156 102.542969 6.039062 101.53125 5.097656 100.46875 C 1.480469 96.460938 0 91.871094 0.652344 86.703125 C 1.40625 83.066406 3.292969 80.128906 6.308594 77.882812 C 7.507812 77.011719 8.855469 76.5625 10.347656 76.535156 C 12.863281 76.40625 15.222656 76.945312 17.414062 78.152344 C 18.550781 78.90625 19.484375 79.859375 20.210938 81.011719 C 20.402344 81.269531 20.628906 81.492188 20.882812 81.6875 C 21.257812 81.378906 21.648438 81.097656 22.058594 80.84375 C 23.867188 79.785156 25.753906 78.863281 27.714844 78.085938 C 29.539062 77.410156 31.355469 76.710938 33.167969 75.996094 C 35.390625 75.144531 37.632812 74.359375 39.898438 73.640625 C 40.667969 73.480469 41.429688 73.300781 42.1875 73.101562 C 42.921875 72.945312 43.664062 72.84375 44.410156 72.800781 C 44.421875 72.480469 44.445312 72.175781 44.476562 71.890625 C 44.074219 69.425781 44.578125 67.171875 45.992188 65.125 C 47.171875 63.363281 48.6875 61.960938 50.535156 60.917969 C 51.34375 60.574219 52.183594 60.363281 53.0625 60.277344 C 55.898438 60.113281 58.601562 60.6875 61.171875 61.996094 C 65.527344 64.867188 67.984375 68.894531 68.542969 74.078125 C 68.640625 75.1875 68.675781 76.273438 68.644531 77.34375 C 68.574219 78.429688 68.484375 79.484375 68.375 80.507812 C 68.414062 80.957031 68.5625 81.375 68.8125 81.753906 C 69.535156 82.980469 70.378906 84.125 71.339844 85.1875 C 72.550781 86.355469 73.785156 87.5 75.039062 88.621094 C 75.851562 89.441406 76.648438 90.273438 77.429688 91.109375 C 77.476562 91.019531 77.476562 90.929688 77.429688 90.839844 C 76.558594 88.226562 75.90625 85.554688 75.476562 82.832031 C 75.214844 78.378906 75.929688 74.09375 77.632812 69.972656 C 77.914062 69.410156 78.226562 68.875 78.574219 68.355469 C 79.273438 67.441406 79.980469 66.53125 80.695312 65.628906 C 79.097656 64.613281 77.761719 63.324219 76.691406 61.757812 C 73.113281 56.675781 71.8125 51.042969 72.785156 44.863281 C 72.964844 43.410156 73.300781 41.996094 73.796875 40.621094 C 74.496094 38.886719 75.214844 37.15625 75.949219 35.4375 C 76.839844 33.707031 77.691406 31.957031 78.507812 30.1875 C 78.804688 29.386719 79.074219 28.582031 79.316406 27.761719 C 79.433594 27.042969 79.554688 26.324219 79.6875 25.609375 C 79.460938 24.746094 79.113281 23.941406 78.640625 23.183594 C 77.714844 21.308594 77.089844 19.332031 76.757812 17.261719 C 76.035156 12.683594 77.089844 8.574219 79.921875 4.941406 C 82.125 2.589844 84.808594 1.085938 87.964844 0.429688 Z M 88.910156 4.738281 C 90.140625 4.78125 91.261719 5.152344 92.273438 5.851562 C 93.347656 6.519531 94.1875 7.40625 94.800781 8.511719 C 95.21875 9.664062 95.714844 10.789062 96.28125 11.875 C 96.992188 12.722656 97.878906 13.292969 98.9375 13.59375 C 100.457031 13.660156 101.960938 13.546875 103.449219 13.257812 C 106.238281 13.25 109.019531 13.128906 111.796875 12.886719 C 114.574219 13.128906 117.355469 13.25 120.144531 13.257812 C 121.019531 13.375 121.894531 13.488281 122.769531 13.59375 C 125.0625 13.910156 126.734375 13.046875 127.785156 11 C 128.199219 9.792969 128.738281 8.648438 129.402344 7.566406 C 130.675781 6 132.3125 5.054688 134.316406 4.738281 C 137.632812 5.128906 139.945312 6.859375 141.25 9.921875 C 142.511719 12.773438 142.625 15.667969 141.585938 18.609375 C 141.027344 19.964844 140.445312 21.3125 139.835938 22.648438 C 139.570312 23.367188 139.457031 24.105469 139.5 24.867188 C 139.8125 27.511719 140.464844 30.070312 141.453125 32.542969 C 142.929688 35.738281 144.207031 39.015625 145.289062 42.371094 C 145.644531 44.25 145.8125 46.144531 145.792969 48.058594 C 145.855469 50.34375 145.484375 52.554688 144.683594 54.691406 C 144.246094 55.769531 143.75 56.824219 143.203125 57.855469 C 141.882812 59.976562 140.582031 62.109375 139.296875 64.25 C 139.230469 64.445312 139.1875 64.648438 139.164062 64.855469 C 138.753906 65.492188 138.6875 66.164062 138.960938 66.875 C 139.851562 68.589844 140.792969 70.273438 141.789062 71.925781 C 142.628906 73.699219 143.167969 75.5625 143.402344 77.511719 C 143.722656 79.347656 143.769531 81.1875 143.539062 83.03125 C 142.996094 86.171875 142.210938 89.242188 141.183594 92.253906 C 140.78125 93.714844 140.78125 95.171875 141.183594 96.632812 C 141.492188 98.148438 141.953125 99.621094 142.5625 101.039062 C 142.066406 101.894531 141.628906 102.78125 141.25 103.699219 C 140.757812 105 140.339844 106.324219 140.003906 107.671875 C 135.519531 105.847656 131.144531 106.082031 126.875 108.378906 C 125.566406 109.082031 124.386719 109.96875 123.34375 111.039062 C 121.976562 112.492188 120.878906 114.132812 120.042969 115.953125 C 119.265625 117.972656 118.746094 120.058594 118.496094 122.210938 C 117.898438 125.261719 118.125 128.246094 119.167969 131.164062 C 119.40625 131.757812 119.699219 132.316406 120.042969 132.847656 C 120.089844 132.9375 120.089844 133.027344 120.042969 133.117188 C 119.300781 134.367188 118.640625 135.65625 118.058594 136.988281 C 115.96875 136.996094 113.882812 137.074219 111.796875 137.222656 C 110.789062 137.144531 109.777344 137.085938 108.769531 137.054688 C 106.5 137.039062 104.234375 137.003906 101.96875 136.957031 C 99.476562 137.027344 96.988281 137.039062 94.496094 136.988281 C 94.089844 136.976562 93.683594 136.941406 93.285156 136.886719 C 93.160156 136.121094 93 135.324219 92.8125 134.496094 C 92.835938 134.476562 92.859375 134.453125 92.878906 134.429688 C 92.585938 132.703125 92.035156 131.050781 91.230469 129.484375 C 90.550781 128.183594 89.832031 126.90625 89.078125 125.644531 C 88.050781 124.125 86.871094 122.71875 85.542969 121.4375 C 84.328125 120.605469 83.09375 119.796875 81.839844 119.015625 C 82.328125 118.070312 82.8125 117.117188 83.289062 116.152344 C 83.878906 114.523438 84.316406 112.886719 84.601562 111.238281 C 87.800781 109.769531 90.988281 109.804688 94.160156 111.339844 C 95.574219 111.945312 96.839844 112.765625 97.964844 113.796875 C 98.898438 114.914062 99.726562 116.101562 100.453125 117.363281 C 101.671875 120.5 102.03125 123.730469 101.53125 127.058594 C 101.375 128.179688 100.992188 129.210938 100.386719 130.15625 C 99.832031 130.664062 99.425781 131.269531 99.175781 131.972656 C 98.960938 133.066406 99.332031 133.882812 100.285156 134.429688 C 101.3125 134.792969 102.199219 134.582031 102.945312 133.792969 C 104.363281 131.777344 105.171875 129.53125 105.367188 127.058594 C 105.429688 123.566406 104.9375 120.15625 103.886719 116.828125 C 101.8125 111.523438 98.011719 108.167969 92.476562 106.761719 C 89.878906 106.25 87.320312 106.394531 84.800781 107.199219 C 84.554688 103.835938 83.679688 100.640625 82.175781 97.605469 C 82.386719 96.796875 82.554688 95.976562 82.679688 95.148438 C 82.734375 94.472656 82.710938 93.800781 82.613281 93.128906 C 81.921875 90.90625 81.292969 88.660156 80.730469 86.398438 C 79.460938 81.667969 79.730469 77.019531 81.539062 72.464844 C 82.597656 70.617188 83.628906 68.753906 84.632812 66.875 C 84.90625 66.164062 84.839844 65.492188 84.433594 64.855469 C 84.347656 64.351562 84.167969 63.878906 83.894531 63.441406 C 82.699219 61.597656 81.53125 59.734375 80.394531 57.855469 C 79.492188 56.253906 78.796875 54.574219 78.304688 52.804688 C 77.867188 50.785156 77.710938 48.746094 77.835938 46.679688 C 77.851562 45.226562 78.007812 43.792969 78.304688 42.371094 C 79.386719 39.015625 80.664062 35.738281 82.144531 32.542969 C 83.261719 29.820312 83.914062 26.992188 84.09375 24.0625 C 84.015625 23.582031 83.902344 23.109375 83.757812 22.648438 C 83.148438 21.3125 82.566406 19.964844 82.007812 18.609375 C 80.679688 14.5625 81.285156 10.835938 83.824219 7.433594 C 85.214844 5.957031 86.910156 5.0625 88.910156 4.738281 Z M 188.609375 41.96875 C 189.769531 41.964844 190.980469 42.203125 192.242188 42.675781 C 192.945312 43.085938 193.519531 43.632812 193.960938 44.324219 C 194.933594 45.765625 195.382812 47.335938 195.308594 49.035156 C 195.207031 49.839844 195.085938 50.636719 194.9375 51.425781 C 194.824219 53.625 195.765625 55.195312 197.765625 56.136719 C 198.851562 56.578125 199.949219 57.046875 201.0625 57.550781 C 203.265625 58.855469 205.53125 60.046875 207.863281 61.121094 C 210.125 62.707031 212.457031 64.1875 214.863281 65.5625 C 215.957031 66.546875 217.148438 67.398438 218.429688 68.121094 C 219.980469 68.574219 221.414062 68.351562 222.738281 67.449219 C 223.703125 66.597656 224.757812 65.878906 225.902344 65.292969 C 227.699219 64.691406 229.449219 64.667969 231.152344 65.226562 C 233.519531 66.75 234.777344 68.925781 234.925781 71.757812 C 234.980469 75.433594 233.585938 78.515625 230.75 81.011719 C 229.484375 81.929688 228.226562 82.863281 226.980469 83.804688 C 226.535156 84.230469 226.164062 84.710938 225.871094 85.253906 C 225.597656 86.148438 225.25 87.035156 224.828125 87.914062 C 224 90.554688 223.53125 93.222656 223.414062 95.925781 C 223 98.546875 222.515625 101.164062 221.964844 103.765625 C 220.855469 106.703125 219.328125 109.398438 217.386719 111.84375 C 215.980469 113.382812 214.375 114.675781 212.574219 115.714844 C 210.480469 116.875 208.371094 117.996094 206.246094 119.082031 C 205.949219 119.296875 205.679688 119.546875 205.4375 119.824219 C 204.8125 120.132812 204.445312 120.636719 204.328125 121.335938 C 204.316406 121.734375 204.28125 122.128906 204.226562 122.515625 C 204.210938 122.75 204.234375 122.996094 204.292969 123.253906 C 204.179688 124.917969 204.125 126.59375 204.125 128.269531 C 203.910156 129.710938 203.527344 131.125 202.980469 132.511719 C 202.554688 133.476562 202.128906 134.441406 201.703125 135.40625 C 201.347656 136.0625 200.957031 136.691406 200.523438 137.292969 C 199.335938 138.738281 198.089844 140.128906 196.789062 141.464844 C 195.484375 142.746094 194.164062 144 192.816406 145.234375 C 192.40625 145.808594 192.046875 146.417969 191.738281 147.054688 C 191.113281 148.675781 190.675781 150.324219 190.425781 152 C 189.726562 157.03125 188.480469 161.980469 186.691406 166.84375 C 185.675781 169.40625 184.351562 171.785156 182.71875 173.980469 C 181.183594 175.898438 179.375 177.503906 177.296875 178.792969 C 174.039062 180.566406 170.660156 180.867188 167.167969 179.703125 C 164.828125 179.078125 162.570312 178.191406 160.402344 177.042969 C 156.550781 174.75 152.667969 172.503906 148.753906 170.3125 C 147.664062 169.734375 146.566406 169.171875 145.457031 168.628906 C 144.601562 168.019531 143.726562 167.433594 142.832031 166.878906 C 138.914062 164.535156 134.964844 162.246094 130.984375 160.011719 C 128.792969 158.628906 126.78125 157.023438 124.957031 155.199219 C 123.90625 154.101562 123.007812 152.890625 122.265625 151.5625 C 121.160156 149.152344 120.800781 146.660156 121.1875 144.089844 C 121.632812 141.074219 122.640625 138.292969 124.21875 135.742188 C 126.109375 132.71875 128.339844 129.957031 130.914062 127.464844 C 132.140625 126.292969 133.375 125.136719 134.617188 123.996094 C 136.101562 122.78125 137.582031 121.570312 139.0625 120.359375 C 139.949219 119.472656 140.792969 118.539062 141.585938 117.566406 C 141.855469 117.074219 142.125 116.578125 142.394531 116.085938 C 143.191406 112.246094 144.289062 108.5 145.691406 104.84375 C 147.308594 101.90625 149.429688 99.402344 152.054688 97.335938 C 153.917969 96.316406 155.734375 95.230469 157.507812 94.074219 C 157.992188 93.644531 158.195312 93.117188 158.113281 92.492188 C 158.230469 92.246094 158.308594 91.988281 158.347656 91.714844 C 158.289062 89.03125 158.230469 86.304688 158.179688 83.539062 C 158.261719 80.796875 158.925781 78.183594 160.167969 75.695312 C 161.160156 73.953125 162.234375 72.269531 163.398438 70.644531 C 163.683594 70.351562 163.964844 70.050781 164.238281 69.738281 C 166.929688 67.3125 169.757812 65.070312 172.722656 63.003906 C 173.875 62.054688 174.960938 61.03125 175.984375 59.941406 C 176.464844 59.417969 176.890625 58.859375 177.265625 58.257812 C 178.078125 57.601562 178.546875 56.75 178.679688 55.699219 C 178.871094 54.085938 179.070312 52.46875 179.285156 50.855469 C 180.265625 46.660156 182.765625 43.800781 186.789062 42.269531 C 187.398438 42.125 188.003906 42.023438 188.609375 41.96875 Z M 53.566406 64.722656 C 55.667969 64.566406 57.554688 65.113281 59.222656 66.371094 C 62.019531 68.648438 63.546875 71.566406 63.796875 75.121094 C 63.707031 76.730469 63.617188 78.3125 63.527344 79.867188 C 63.523438 81.078125 63.914062 82.132812 64.707031 83.03125 C 65.003906 83.734375 65.363281 84.410156 65.785156 85.050781 C 66.871094 86.609375 68.082031 88.070312 69.417969 89.425781 C 70.226562 90.144531 70.988281 90.90625 71.707031 91.714844 C 72.667969 92.878906 73.652344 94.023438 74.671875 95.148438 C 75.40625 96.058594 76.054688 97.023438 76.621094 98.042969 C 77.351562 99.601562 78.011719 101.183594 78.609375 102.789062 C 78.839844 103.738281 79.0625 104.703125 79.28125 105.683594 C 79.257812 105.707031 79.238281 105.730469 79.214844 105.753906 C 79.304688 106.277344 79.371094 106.804688 79.417969 107.335938 C 79.40625 107.742188 79.40625 108.171875 79.417969 108.613281 C 79.363281 109.425781 79.285156 110.253906 79.179688 111.105469 C 78.746094 113.558594 78.273438 116.003906 77.765625 118.441406 C 77.765625 118.992188 77.757812 119.542969 77.734375 120.089844 C 77.824219 120.835938 78.160156 121.441406 78.742188 121.910156 C 79.578125 122.574219 80.386719 123.269531 81.167969 123.996094 C 82.886719 125.199219 84.3125 126.691406 85.441406 128.472656 C 86.496094 130.179688 87.371094 131.972656 88.066406 133.859375 C 88.859375 137.472656 89.308594 141.109375 89.414062 144.765625 C 89.554688 145.839844 89.890625 146.851562 90.421875 147.792969 C 90.984375 148.625 91.546875 149.453125 92.105469 150.285156 C 95.585938 154.03125 98.703125 158.046875 101.464844 162.335938 C 103.296875 165.292969 104.632812 168.46875 105.46875 171.859375 C 105.625 172.929688 105.761719 174.019531 105.871094 175.125 C 106.054688 177.820312 105.503906 180.378906 104.222656 182.800781 C 103.511719 183.984375 102.625 185.027344 101.566406 185.929688 C 98.742188 188.207031 95.621094 189.980469 92.207031 191.25 C 87.40625 192.945312 82.671875 194.785156 78.003906 196.769531 C 74.910156 197.804688 71.835938 198.882812 68.78125 200 C 65.855469 201.238281 62.847656 202.335938 59.757812 203.296875 C 57.398438 203.960938 55.039062 204.308594 52.691406 204.339844 C 50.300781 204.410156 48.101562 203.8125 46.09375 202.558594 C 44.476562 201.4375 43.074219 200.078125 41.886719 198.484375 C 40.121094 196.027344 38.878906 193.367188 38.148438 190.507812 C 37.886719 189.796875 37.707031 189.101562 37.609375 188.421875 C 36.851562 185.078125 36.449219 181.722656 36.398438 178.355469 C 36.355469 178.140625 36.3125 177.925781 36.265625 177.71875 C 36.234375 175.550781 36.234375 173.410156 36.265625 171.289062 C 36.140625 169.992188 35.925781 168.714844 35.625 167.449219 C 35.441406 166.914062 35.214844 166.398438 34.953125 165.902344 C 33.847656 164.507812 32.773438 163.09375 31.722656 161.660156 C 30.683594 160.148438 29.695312 158.597656 28.757812 157.015625 C 27.996094 155.40625 27.46875 153.734375 27.175781 152 C 27.035156 151.578125 26.9375 151.136719 26.875 150.6875 C 26.707031 149.632812 26.628906 148.597656 26.636719 147.589844 C 26.648438 147.300781 26.660156 147.007812 26.671875 146.714844 C 27.03125 144.695312 27.332031 142.664062 27.582031 140.625 C 27.582031 139.867188 27.28125 139.273438 26.671875 138.839844 C 26.472656 138.519531 26.238281 138.226562 25.964844 137.964844 C 24.113281 136.578125 22.273438 135.175781 20.445312 133.757812 C 18.644531 132.269531 17.128906 130.53125 15.902344 128.539062 C 14.511719 125.839844 13.535156 123.003906 12.972656 120.023438 C 13.003906 119.996094 13.027344 119.964844 13.039062 119.921875 C 12.996094 119.429688 12.949219 118.9375 12.90625 118.441406 C 12.910156 116.433594 12.910156 114.390625 12.90625 112.316406 C 13.246094 109.304688 13.144531 106.316406 12.601562 103.363281 C 12.371094 102.804688 12.273438 102.253906 12.300781 101.714844 C 12.113281 101.097656 11.832031 100.527344 11.457031 99.996094 C 10.230469 98.734375 9.019531 97.457031 7.824219 96.160156 C 5.449219 93.03125 4.753906 89.53125 5.734375 85.65625 C 6.550781 83.429688 8.042969 81.824219 10.210938 80.84375 C 12.019531 80.566406 13.773438 80.878906 15.464844 81.785156 C 16.390625 82.480469 17.222656 83.277344 17.953125 84.175781 C 18.304688 84.515625 18.660156 84.839844 19.03125 85.152344 C 19.949219 85.660156 20.925781 85.894531 21.960938 85.859375 C 22.546875 85.71875 23.121094 85.527344 23.675781 85.289062 C 24.5 84.863281 25.308594 84.414062 26.101562 83.941406 C 28.824219 82.871094 31.515625 81.726562 34.179688 80.507812 C 36.578125 79.847656 38.957031 79.0625 41.3125 78.152344 C 42.429688 77.867188 43.554688 77.597656 44.679688 77.34375 C 46.402344 76.902344 47.535156 75.835938 48.078125 74.144531 C 48.179688 73.652344 48.214844 73.15625 48.179688 72.664062 C 47.980469 69.730469 49.011719 67.339844 51.277344 65.496094 C 51.976562 65.03125 52.738281 64.773438 53.566406 64.722656 Z M 133.808594 110.160156 C 135.625 110.164062 137.367188 110.523438 139.027344 111.238281 C 138.886719 112.410156 138.527344 113.507812 137.949219 114.539062 C 137.371094 115.160156 136.753906 115.734375 136.097656 116.253906 C 135.09375 116.992188 134.105469 117.753906 133.136719 118.542969 C 131.519531 120.070312 129.859375 121.554688 128.15625 122.988281 C 126.207031 124.957031 124.375 127.035156 122.667969 129.214844 C 122.011719 127.40625 121.742188 125.546875 121.863281 123.625 C 121.902344 121.351562 122.375 119.175781 123.273438 117.097656 C 124.050781 115.734375 124.980469 114.492188 126.070312 113.359375 C 128.363281 111.585938 130.941406 110.519531 133.808594 110.160156 Z M 133.808594 110.160156 " fill-opacity="1" fill-rule="evenodd"/></g></g></g></g></g><g mask="url(#0d5a1c853d)"><g transform="matrix(1, 0, 0, 1, 113, 54)"><g clip-path="url(#865db4dc11)"><g clip-path="url(#d3a7b0bb35)"><path fill="#caacde" d="M 2.476562 1.058594 C 3.046875 0.914062 3.460938 1.09375 3.722656 1.597656 C 3.765625 1.753906 3.765625 1.910156 3.722656 2.066406 C 3.40625 2.847656 3.191406 3.65625 3.082031 4.492188 C 3.277344 5.375 3.503906 6.25 3.753906 7.117188 C 3.710938 8.105469 3.207031 8.664062 2.238281 8.800781 C 1.390625 8.691406 0.851562 8.21875 0.625 7.386719 C 0.445312 6.5625 0.324219 5.734375 0.253906 4.894531 C 0.253906 3.164062 0.996094 1.886719 2.476562 1.058594 Z M 2.476562 1.058594 " fill-opacity="1" fill-rule="evenodd"/></g></g></g></g><g mask="url(#240a438e19)"><g transform="matrix(1, 0, 0, 1, 166, 54)"><g clip-path="url(#9c19dd1fac)"><g clip-path="url(#9d58288a97)"><path fill="#caacde" d="M 1.3125 1.058594 C 2.085938 1.003906 2.726562 1.269531 3.230469 1.867188 C 4.035156 2.863281 4.394531 4.007812 4.308594 5.300781 C 4.230469 6.074219 4.09375 6.835938 3.902344 7.589844 C 3.355469 8.789062 2.511719 9.070312 1.378906 8.429688 C 1.042969 8.058594 0.863281 7.621094 0.839844 7.117188 C 1.089844 6.25 1.316406 5.375 1.511719 4.492188 C 1.472656 4.082031 1.394531 3.675781 1.277344 3.28125 C 1.105469 2.804688 0.957031 2.320312 0.839844 1.832031 C 0.871094 1.492188 1.027344 1.234375 1.3125 1.058594 Z M 1.3125 1.058594 " fill-opacity="1" fill-rule="evenodd"/></g></g></g></g><g mask="url(#fe56f6a3bc)"><g transform="matrix(1, 0, 0, 1, 115, 65)"><g clip-path="url(#51331eab5a)"><g clip-path="url(#2415c05e95)"><path fill="#caacde" d="M 2.023438 0.0898438 C 3.472656 0.273438 4.046875 1.082031 3.742188 2.511719 C 3.070312 3.640625 2.160156 3.875 1.015625 3.21875 C 0.300781 2.46875 0.222656 1.648438 0.777344 0.761719 C 1.128906 0.402344 1.542969 0.175781 2.023438 0.0898438 Z M 2.023438 0.0898438 " fill-opacity="1" fill-rule="evenodd"/></g></g></g></g><g mask="url(#4431f8ad22)"><g transform="matrix(1, 0, 0, 1, 164, 65)"><g clip-path="url(#4f22d36fa4)"><g clip-path="url(#9591a7c4fa)"><path fill="#caacde" d="M 2.300781 0.0898438 C 3.664062 0.207031 4.28125 0.949219 4.152344 2.308594 C 3.691406 3.445312 2.871094 3.816406 1.695312 3.421875 C 0.691406 2.757812 0.480469 1.894531 1.054688 0.828125 C 1.382812 0.421875 1.796875 0.175781 2.300781 0.0898438 Z M 2.300781 0.0898438 " fill-opacity="1" fill-rule="evenodd"/></g></g></g></g><g mask="url(#5399337b97)"><g transform="matrix(1, 0, 0, 1, 123, 84)"><g clip-path="url(#8a3ac85d37)"><g clip-path="url(#9f66507d7d)"><path fill="#caacde" d="M 2.574219 0.0742188 C 4.121094 -0.0507812 5.140625 0.621094 5.636719 2.09375 C 5.871094 3.523438 5.320312 4.519531 3.988281 5.089844 C 2.394531 5.429688 1.28125 4.859375 0.65625 3.371094 C 0.324219 1.695312 0.964844 0.597656 2.574219 0.0742188 Z M 2.574219 0.0742188 " fill-opacity="1" fill-rule="evenodd"/></g></g></g></g><g mask="url(#df16b10867)"><g transform="matrix(1, 0, 0, 1, 154, 84)"><g clip-path="url(#350337dd55)"><g clip-path="url(#0d13be27ba)"><path fill="#caacde" d="M 2.945312 0.0742188 C 4.5 -0.0976562 5.523438 0.554688 6.007812 2.023438 C 6.203125 3.210938 5.808594 4.144531 4.828125 4.820312 C 3.457031 5.507812 2.28125 5.273438 1.292969 4.113281 C 0.558594 2.664062 0.839844 1.441406 2.136719 0.441406 C 2.402344 0.296875 2.671875 0.175781 2.945312 0.0742188 Z M 2.945312 0.0742188 " fill-opacity="1" fill-rule="evenodd"/></g></g></g></g><g mask="url(#5416b06f40)"><g transform="matrix(1, 0, 0, 1, 211, 90)"><g clip-path="url(#8912ec2004)"><g clip-path="url(#1c67906bcd)"><path fill="#caacde" d="M 4.644531 0.46875 C 5.339844 0.308594 5.890625 0.511719 6.296875 1.074219 C 6.40625 1.476562 6.304688 1.8125 5.992188 2.082031 C 5.339844 2.589844 4.769531 3.171875 4.277344 3.835938 C 4.027344 4.554688 3.847656 5.273438 3.738281 5.988281 C 3.292969 7.0625 2.539062 7.433594 1.480469 7.097656 C 0.707031 6.527344 0.472656 5.777344 0.777344 4.84375 C 1.082031 3.828125 1.53125 2.886719 2.121094 2.015625 C 2.789062 1.199219 3.628906 0.683594 4.644531 0.46875 Z M 4.644531 0.46875 " fill-opacity="1" fill-rule="evenodd"/></g></g></g></g><g mask="url(#84d85089f4)"><g transform="matrix(1, 0, 0, 1, 118, 90)"><g clip-path="url(#3672581448)"><g clip-path="url(#b69a19a448)"><path fill="#caacde" d="M 1.246094 1.074219 C 2.4375 1.085938 2.964844 1.667969 2.828125 2.824219 C 2.578125 3.363281 2.148438 3.632812 1.546875 3.632812 C 0.375 3.460938 -0.03125 2.8125 0.335938 1.679688 C 0.574219 1.367188 0.875 1.164062 1.246094 1.074219 Z M 1.246094 1.074219 " fill-opacity="1" fill-rule="evenodd"/></g></g></g></g><g mask="url(#fc34045086)"><g transform="matrix(1, 0, 0, 1, 162, 90)"><g clip-path="url(#a74a187204)"><g clip-path="url(#0eedeb80d8)"><path fill="#caacde" d="M 1.945312 1.074219 C 3.078125 1.140625 3.539062 1.722656 3.324219 2.824219 C 3.054688 3.339844 2.628906 3.609375 2.046875 3.632812 C 1.246094 3.59375 0.785156 3.179688 0.667969 2.386719 C 0.789062 1.644531 1.214844 1.207031 1.945312 1.074219 Z M 1.945312 1.074219 " fill-opacity="1" fill-rule="evenodd"/></g></g></g></g><g mask="url(#1ff82bb0c5)"><g transform="matrix(1, 0, 0, 1, 121, 91)"><g clip-path="url(#7df991daca)"><g clip-path="url(#95f838cdcd)"><path fill="#caacde" d="M 0.871094 1.015625 C 1.117188 1.003906 1.367188 1.015625 1.609375 1.050781 C 2.050781 1.234375 2.199219 1.558594 2.046875 2.027344 C 1.777344 2.535156 1.363281 2.703125 0.804688 2.53125 C 0.421875 2.285156 0.296875 1.933594 0.433594 1.488281 C 0.546875 1.296875 0.691406 1.136719 0.871094 1.015625 Z M 0.871094 1.015625 " fill-opacity="1" fill-rule="evenodd"/></g></g></g></g><g mask="url(#0ba7896210)"><g transform="matrix(1, 0, 0, 1, 160, 91)"><g clip-path="url(#04433966e4)"><g clip-path="url(#58616eb5c7)"><path fill="#caacde" d="M 0.984375 1.015625 C 1.878906 0.894531 2.273438 1.273438 2.160156 2.160156 C 1.890625 2.546875 1.519531 2.671875 1.050781 2.53125 C 0.582031 2.300781 0.414062 1.929688 0.546875 1.421875 C 0.644531 1.230469 0.792969 1.097656 0.984375 1.015625 Z M 0.984375 1.015625 " fill-opacity="1" fill-rule="evenodd"/></g></g></g></g><g mask="url(#1935449894)"><g transform="matrix(1, 0, 0, 1, 135, 91)"><g clip-path="url(#4778666e29)"><g clip-path="url(#6eb0fa20a8)"><path fill="#caacde" d="M 6.527344 1.082031 C 7.6875 1.0625 8.4375 1.601562 8.78125 2.699219 C 8.84375 3.058594 8.808594 3.40625 8.683594 3.742188 C 9.019531 3.855469 9.371094 3.933594 9.726562 3.980469 C 9.902344 3.949219 10.070312 3.894531 10.230469 3.808594 C 10.761719 3.285156 11.277344 2.746094 11.777344 2.195312 C 12.75 2 13.246094 2.402344 13.261719 3.40625 C 13.164062 4.511719 12.648438 5.363281 11.710938 5.964844 C 10.371094 6.765625 9.003906 6.8125 7.605469 6.097656 C 7.320312 5.945312 7.050781 5.777344 6.796875 5.59375 C 5.140625 6.832031 3.433594 6.910156 1.679688 5.828125 C 1.160156 5.421875 0.765625 4.917969 0.503906 4.316406 C 0.257812 3.695312 0.277344 3.089844 0.570312 2.496094 C 0.925781 2.148438 1.34375 2.046875 1.816406 2.195312 C 2.316406 2.746094 2.832031 3.285156 3.363281 3.808594 C 3.523438 3.894531 3.691406 3.949219 3.867188 3.980469 C 4.226562 3.933594 4.574219 3.855469 4.914062 3.742188 C 4.730469 3.234375 4.742188 2.730469 4.945312 2.226562 C 5.320312 1.617188 5.847656 1.234375 6.527344 1.082031 Z M 6.527344 1.082031 " fill-opacity="1" fill-rule="evenodd"/></g></g></g></g><g mask="url(#b54573b859)"><g transform="matrix(1, 0, 0, 1, 210, 99)"><g clip-path="url(#8e173be055)"><g clip-path="url(#bc23b7dc62)"><path fill="#caacde" d="M 1.742188 0.757812 C 3.191406 0.738281 3.851562 1.480469 3.726562 2.980469 C 3.113281 4.261719 2.183594 4.566406 0.933594 3.886719 C 0 2.886719 0.0429688 1.945312 1.070312 1.0625 C 1.292969 0.9375 1.515625 0.835938 1.742188 0.757812 Z M 1.742188 0.757812 " fill-opacity="1" fill-rule="evenodd"/></g></g></g></g><g mask="url(#00000bcaf0)"><g transform="matrix(1, 0, 0, 1, 86, 113)"><g clip-path="url(#a5f5fc0d2b)"><g clip-path="url(#8bf877d468)"><path fill="#caacde" d="M 1.402344 0.625 C 2.734375 0.710938 3.753906 1.316406 4.464844 2.445312 C 5.074219 3.585938 5.421875 4.808594 5.507812 6.113281 C 5.46875 7.117188 4.964844 7.734375 3.996094 7.964844 C 3.296875 7.882812 2.800781 7.523438 2.515625 6.886719 C 2.320312 6.375 2.265625 5.871094 2.34375 5.371094 C 2.367188 4.613281 2.152344 3.929688 1.707031 3.320312 C 1.417969 2.917969 1.101562 2.535156 0.761719 2.175781 C 0.3125 1.371094 0.527344 0.855469 1.402344 0.625 Z M 1.402344 0.625 " fill-opacity="1" fill-rule="evenodd"/></g></g></g></g><g mask="url(#fdf27ecd17)"><g transform="matrix(1, 0, 0, 1, 257, 116)"><g clip-path="url(#96edcb29ae)"><g clip-path="url(#5353b9fb43)"><path fill="#caacde" d="M 4.085938 0.453125 C 4.808594 0.488281 5.265625 0.867188 5.46875 1.597656 C 5.757812 2.484375 5.78125 3.359375 5.535156 4.222656 C 5.023438 5.476562 4.269531 6.5625 3.277344 7.488281 C 2.410156 8.050781 1.613281 7.972656 0.890625 7.253906 C 0.507812 6.386719 0.664062 5.601562 1.359375 4.898438 C 1.851562 4.539062 2.300781 4.136719 2.707031 3.683594 C 3.113281 2.804688 3.378906 1.886719 3.515625 0.925781 C 3.679688 0.726562 3.871094 0.570312 4.085938 0.453125 Z M 4.085938 0.453125 " fill-opacity="1" fill-rule="evenodd"/></g></g></g></g><g mask="url(#a0a51d92ce)"><g transform="matrix(1, 0, 0, 1, 117, 119)"><g clip-path="url(#ae29108cbb)"><g clip-path="url(#d5dc9bf775)"><path fill="#caacde" d="M 8.167969 1.019531 C 8.59375 1.015625 8.976562 1.140625 9.3125 1.390625 C 10.078125 2.269531 10.910156 3.078125 11.804688 3.816406 C 13.519531 5.066406 15.292969 6.234375 17.121094 7.316406 C 19.015625 8.625 20.53125 10.273438 21.667969 12.265625 C 22.605469 14.855469 22.695312 17.480469 21.9375 20.140625 C 20.414062 24.027344 17.554688 25.8125 13.351562 25.492188 C 12.382812 25.351562 11.441406 25.105469 10.527344 24.75 C 9.210938 24.195312 7.886719 23.65625 6.554688 23.136719 C 5.5625 22.660156 4.667969 22.054688 3.859375 21.316406 C 3.3125 20.769531 2.761719 20.21875 2.210938 19.667969 C 1.589844 19.003906 1.21875 18.21875 1.101562 17.3125 C 1.179688 16.421875 1.648438 16.09375 2.515625 16.335938 C 2.878906 16.441406 3.214844 16.597656 3.523438 16.808594 C 4.410156 17.441406 5.285156 18.09375 6.148438 18.761719 C 6.710938 19.132812 7.292969 19.46875 7.898438 19.769531 C 9.417969 20.289062 10.945312 20.785156 12.476562 21.25 C 14.027344 21.46875 15.53125 21.289062 16.988281 20.710938 C 18.175781 19.964844 18.859375 18.898438 19.042969 17.515625 C 19.203125 16.6875 19.226562 15.855469 19.109375 15.023438 C 19.035156 14.738281 18.921875 14.46875 18.773438 14.214844 C 18.070312 13.289062 17.273438 12.449219 16.382812 11.691406 C 14.878906 10.582031 13.355469 9.503906 11.804688 8.460938 C 10.71875 7.53125 9.652344 6.578125 8.605469 5.597656 C 7.804688 4.675781 7.300781 3.609375 7.09375 2.402344 C 7.117188 1.671875 7.476562 1.210938 8.167969 1.019531 Z M 8.167969 1.019531 " fill-opacity="1" fill-rule="evenodd"/></g></g></g></g><g mask="url(#7758aa0436)"><g transform="matrix(1, 0, 0, 1, 144, 119)"><g clip-path="url(#d1ecb32c57)"><g clip-path="url(#a2b67d58a2)"><path fill="#caacde" d="M 14.15625 1.019531 C 15 1.09375 15.449219 1.550781 15.503906 2.402344 C 15.335938 3.464844 14.921875 4.417969 14.257812 5.261719 C 12.351562 7.304688 10.207031 9.042969 7.828125 10.480469 C 6.28125 11.488281 4.945312 12.734375 3.820312 14.214844 C 3.515625 14.746094 3.371094 15.320312 3.382812 15.933594 C 3.414062 16.984375 3.605469 18.007812 3.957031 18.996094 C 4.417969 19.726562 5.011719 20.320312 5.742188 20.78125 C 7.464844 21.425781 9.214844 21.515625 10.992188 21.050781 C 12.207031 20.570312 13.441406 20.144531 14.695312 19.769531 C 15.300781 19.46875 15.882812 19.132812 16.445312 18.761719 C 17.308594 18.09375 18.183594 17.441406 19.070312 16.808594 C 19.640625 16.386719 20.269531 16.226562 20.953125 16.335938 C 21.335938 16.546875 21.515625 16.875 21.492188 17.3125 C 21.375 18.21875 21.007812 19.003906 20.382812 19.667969 C 19.605469 20.492188 18.785156 21.265625 17.925781 21.992188 C 17.34375 22.441406 16.714844 22.820312 16.039062 23.136719 C 14.328125 23.847656 12.601562 24.523438 10.855469 25.15625 C 8.269531 25.863281 5.824219 25.527344 3.519531 24.144531 C 1.089844 22.070312 -0.03125 19.421875 0.152344 16.203125 C 0.109375 14.222656 0.660156 12.4375 1.800781 10.851562 C 2.851562 9.488281 4.074219 8.308594 5.472656 7.316406 C 7.585938 6.082031 9.605469 4.710938 11.53125 3.210938 C 12.113281 2.601562 12.695312 1.996094 13.28125 1.390625 C 13.546875 1.191406 13.839844 1.066406 14.15625 1.019531 Z M 14.15625 1.019531 " fill-opacity="1" fill-rule="evenodd"/></g></g></g></g><g mask="url(#3d987d212b)"><g transform="matrix(1, 0, 0, 1, 207, 120)"><g clip-path="url(#aed615f25d)"><g clip-path="url(#2d93d2027c)"><path fill="#caacde" d="M 2.65625 0.492188 C 4.710938 0.675781 5.621094 1.796875 5.382812 3.859375 C 4.777344 5.46875 3.644531 6.042969 1.980469 5.574219 C 0.652344 4.898438 0.125 3.851562 0.398438 2.445312 C 0.769531 1.347656 1.519531 0.695312 2.65625 0.492188 Z M 2.65625 0.492188 " fill-opacity="1" fill-rule="evenodd"/></g></g></g></g><g mask="url(#440590d9cf)"><g transform="matrix(1, 0, 0, 1, 199, 123)"><g clip-path="url(#e20709b9ab)"><g clip-path="url(#7a6d6035ec)"><path fill="#caacde" d="M 1.972656 0.453125 C 3.289062 0.507812 3.816406 1.183594 3.554688 2.472656 C 2.945312 3.226562 2.261719 3.328125 1.5 2.777344 C 0.785156 2.015625 0.808594 1.296875 1.566406 0.621094 C 1.714844 0.585938 1.851562 0.527344 1.972656 0.453125 Z M 1.972656 0.453125 " fill-opacity="1" fill-rule="evenodd"/></g></g></g></g><g mask="url(#a2517430a0)"><g transform="matrix(1, 0, 0, 1, 88, 123)"><g clip-path="url(#507518efd3)"><g clip-path="url(#49a8fa4cad)"><path fill="#caacde" d="M 1.691406 0.523438 C 2.984375 0.414062 3.722656 1 3.914062 2.273438 C 3.800781 3.3125 3.230469 3.898438 2.195312 4.023438 C 1.113281 3.9375 0.496094 3.355469 0.34375 2.273438 C 0.425781 1.386719 0.875 0.804688 1.691406 0.523438 Z M 1.691406 0.523438 " fill-opacity="1" fill-rule="evenodd"/></g></g></g></g><g mask="url(#c7521dd41d)"><g transform="matrix(1, 0, 0, 1, 252, 124)"><g clip-path="url(#c217491ab3)"><g clip-path="url(#c0c780fd84)"><path fill="#caacde" d="M 2.421875 0.464844 C 3.4375 0.390625 4.097656 0.839844 4.410156 1.8125 C 4.5625 2.726562 4.234375 3.410156 3.433594 3.863281 C 2.035156 4.1875 1.207031 3.648438 0.941406 2.25 C 1.019531 1.296875 1.511719 0.699219 2.421875 0.464844 Z M 2.421875 0.464844 " fill-opacity="1" fill-rule="evenodd"/></g></g></g></g><g mask="url(#d8327666b7)"><g transform="matrix(1, 0, 0, 1, 202, 125)"><g clip-path="url(#42d65a9e08)"><g clip-path="url(#59810e654b)"><path fill="#caacde" d="M 1.125 0.675781 C 1.949219 0.632812 2.34375 1.011719 2.304688 1.820312 C 2.113281 2.160156 1.820312 2.339844 1.429688 2.359375 C 0.777344 2.246094 0.507812 1.867188 0.621094 1.214844 C 0.734375 0.976562 0.902344 0.796875 1.125 0.675781 Z M 1.125 0.675781 " fill-opacity="1" fill-rule="evenodd"/></g></g></g></g><g mask="url(#37d08509c2)"><g transform="matrix(1, 0, 0, 1, 37, 131)"><g clip-path="url(#e0107d950e)"><g clip-path="url(#58798ad112)"><path fill="#caacde" d="M 1.730469 0.9375 C 2.53125 0.941406 2.890625 1.332031 2.808594 2.113281 C 2.84375 2.78125 2.921875 3.445312 3.042969 4.101562 C 3.148438 4.421875 3.304688 4.714844 3.515625 4.976562 C 4.144531 5.503906 4.558594 6.167969 4.761719 6.960938 C 4.679688 7.082031 4.679688 7.207031 4.761719 7.332031 C 4.507812 8.371094 3.832031 8.785156 2.742188 8.578125 C 2.382812 8.441406 2.078125 8.230469 1.832031 7.9375 C 1.25 7.078125 0.769531 6.171875 0.386719 5.210938 C 0.40625 5.191406 0.429688 5.167969 0.453125 5.144531 C 0.0390625 3.914062 0.1875 2.734375 0.890625 1.609375 C 1.125 1.316406 1.40625 1.089844 1.730469 0.9375 Z M 1.730469 0.9375 " fill-opacity="1" fill-rule="evenodd"/></g></g></g></g><g mask="url(#271e6e0151)"><g transform="matrix(1, 0, 0, 1, 213, 133)"><g clip-path="url(#dfd87a4d5c)"><g clip-path="url(#bf675d3a30)"><path fill="#caacde" d="M 1.703125 0.753906 C 2.4375 0.679688 2.898438 0.992188 3.082031 1.695312 C 3.089844 2.28125 3.199219 2.84375 3.421875 3.378906 C 3.523438 3.527344 3.644531 3.648438 3.789062 3.75 C 4.078125 3.835938 4.355469 3.9375 4.632812 4.054688 C 5.253906 2.546875 6.320312 2.109375 7.828125 2.742188 C 8.460938 3.175781 8.777344 3.78125 8.773438 4.558594 C 8.734375 5.144531 8.488281 5.617188 8.03125 5.972656 C 8.320312 6.25 8.636719 6.5 8.972656 6.710938 C 9.660156 6.792969 10.289062 6.632812 10.859375 6.242188 C 11.722656 5.996094 12.238281 6.3125 12.40625 7.183594 C 12.203125 8.242188 11.574219 8.914062 10.523438 9.203125 C 8.167969 9.742188 6.507812 8.898438 5.542969 6.679688 C 4.394531 6.738281 3.320312 6.503906 2.308594 5.972656 C 0.910156 4.890625 0.40625 3.488281 0.796875 1.765625 C 0.976562 1.308594 1.277344 0.972656 1.703125 0.753906 Z M 1.703125 0.753906 " fill-opacity="1" fill-rule="evenodd"/></g></g></g></g><g mask="url(#5f29953f24)"><g transform="matrix(1, 0, 0, 1, 234, 136)"><g clip-path="url(#aad0af8da3)"><g clip-path="url(#f1eff91141)"><path fill="#caacde" d="M 2.851562 0.246094 C 4.023438 0.253906 4.886719 0.769531 5.445312 1.792969 C 5.910156 3.027344 5.605469 4.09375 4.535156 4.992188 C 3.226562 5.679688 2.050781 5.511719 1 4.488281 C 0.375 3.664062 0.238281 2.789062 0.597656 1.859375 C 1.085938 0.949219 1.835938 0.410156 2.851562 0.246094 Z M 2.851562 0.246094 " fill-opacity="1" fill-rule="evenodd"/></g></g></g></g><g mask="url(#4326eef51b)"><g transform="matrix(1, 0, 0, 1, 42, 140)"><g clip-path="url(#e4e4b40718)"><g clip-path="url(#f96b4dc790)"><path fill="#caacde" d="M 1.714844 0.890625 C 3.109375 0.929688 3.773438 1.648438 3.699219 3.042969 C 3.210938 4.34375 2.324219 4.722656 1.039062 4.1875 C 0.179688 3.503906 0.0117188 2.671875 0.535156 1.699219 C 0.835938 1.285156 1.226562 1.015625 1.714844 0.890625 Z M 1.714844 0.890625 " fill-opacity="1" fill-rule="evenodd"/></g></g></g></g><g mask="url(#c3907819c3)"><g transform="matrix(1, 0, 0, 1, 85, 144)"><g clip-path="url(#da722c41f8)"><g clip-path="url(#5c105e500d)"><path fill="#caacde" d="M 3.34375 0.324219 C 4.953125 0.238281 5.929688 0.980469 6.273438 2.546875 C 6.390625 3.746094 5.929688 4.65625 4.894531 5.273438 C 4.085938 5.605469 3.300781 5.625 2.539062 5.339844 C 1.289062 4.578125 0.875 3.492188 1.292969 2.074219 C 1.640625 1.085938 2.328125 0.503906 3.34375 0.324219 Z M 3.34375 0.324219 " fill-opacity="1" fill-rule="evenodd"/></g></g></g></g><g mask="url(#e0d98f562d)"><g transform="matrix(1, 0, 0, 1, 236, 145)"><g clip-path="url(#2e1c85902b)"><g clip-path="url(#1bf34a8fc6)"><path fill="#caacde" d="M 0.917969 0.265625 C 1.734375 0.222656 2.160156 0.570312 2.199219 1.308594 C 1.824219 2.027344 1.320312 2.148438 0.683594 1.679688 C 0.308594 1.121094 0.386719 0.648438 0.917969 0.265625 Z M 0.917969 0.265625 " fill-opacity="1" fill-rule="evenodd"/></g></g></g></g><g mask="url(#a2c6f90a0e)"><g transform="matrix(1, 0, 0, 1, 238, 145)"><g clip-path="url(#c64ce0850a)"><g clip-path="url(#f6e5b09b3e)"><path fill="#caacde" d="M 1.542969 0.804688 C 2.226562 0.746094 2.753906 1.015625 3.125 1.613281 C 3.351562 2.777344 2.878906 3.382812 1.714844 3.429688 C 0.472656 2.957031 0.191406 2.179688 0.871094 1.109375 C 1.09375 0.984375 1.320312 0.882812 1.542969 0.804688 Z M 1.542969 0.804688 " fill-opacity="1" fill-rule="evenodd"/></g></g></g></g><g mask="url(#2434d1b3ad)"><g transform="matrix(1, 0, 0, 1, 95, 148)"><g clip-path="url(#fb28ea54a7)"><g clip-path="url(#e2dc405092)"><path fill="#caacde" d="M 1.691406 0.632812 C 2.9375 0.628906 3.417969 1.238281 3.140625 2.449219 C 2.863281 2.953125 2.433594 3.242188 1.863281 3.324219 C 0.855469 3.214844 0.429688 2.65625 0.582031 1.640625 C 0.796875 1.125 1.167969 0.789062 1.691406 0.632812 Z M 1.691406 0.632812 " fill-opacity="1" fill-rule="evenodd"/></g></g></g></g><g mask="url(#73567e24c7)"><g transform="matrix(1, 0, 0, 1, 93, 150)"><g clip-path="url(#74f8db0838)"><g clip-path="url(#daba87a42c)"><path fill="#caacde" d="M 1.40625 0.449219 C 2.320312 0.554688 2.589844 1.027344 2.210938 1.863281 C 1.671875 2.25 1.164062 2.203125 0.699219 1.730469 C 0.511719 1.066406 0.746094 0.640625 1.40625 0.449219 Z M 1.40625 0.449219 " fill-opacity="1" fill-rule="evenodd"/></g></g></g></g><g mask="url(#3434c422a1)"><g transform="matrix(1, 0, 0, 1, 177, 151)"><g clip-path="url(#83d2220ae4)"><g clip-path="url(#faedd41785)"><path fill="#caacde" d="M 14.679688 0.460938 C 15.328125 0.4375 15.8125 0.730469 16.128906 1.335938 C 16.75 4.144531 17.828125 6.789062 19.359375 9.277344 C 20.253906 10.929688 20.882812 12.679688 21.246094 14.527344 C 21.660156 16.710938 21.300781 18.777344 20.167969 20.722656 C 19.480469 21.949219 18.640625 23.0625 17.644531 24.054688 C 16.386719 25.042969 14.976562 25.691406 13.402344 26.007812 C 11.039062 26.121094 8.90625 25.425781 7.007812 23.921875 C 6.386719 23.3125 5.804688 22.671875 5.257812 22 C 4.449219 20.9375 3.632812 19.882812 2.800781 18.835938 C 1.496094 16.714844 0.820312 14.425781 0.78125 11.972656 C 0.824219 11.449219 1.039062 11.011719 1.417969 10.660156 C 1.851562 10.421875 2.253906 10.464844 2.628906 10.792969 C 2.867188 11.03125 3.082031 11.289062 3.269531 11.566406 C 3.78125 12.628906 4.25 13.703125 4.683594 14.796875 C 4.976562 15.335938 5.265625 15.875 5.558594 16.414062 C 6.691406 17.726562 7.847656 19.015625 9.027344 20.285156 C 10.25 21.1875 11.621094 21.761719 13.132812 22 C 14.472656 21.945312 15.5625 21.40625 16.398438 20.386719 C 16.757812 19.890625 17.117188 19.398438 17.472656 18.90625 C 17.648438 18.519531 17.792969 18.128906 17.910156 17.726562 C 17.816406 16.472656 17.535156 15.183594 17.070312 13.855469 C 16.472656 12.386719 15.796875 10.953125 15.050781 9.546875 C 14.417969 7.984375 13.882812 6.390625 13.433594 4.769531 C 13.382812 4.394531 13.324219 4.023438 13.265625 3.65625 C 13.269531 3.152344 13.324219 2.578125 13.433594 1.941406 C 13.554688 1.183594 13.96875 0.6875 14.679688 0.460938 Z M 14.679688 0.460938 " fill-opacity="1" fill-rule="evenodd"/></g></g></g></g><g mask="url(#73fa568a23)"><g transform="matrix(1, 0, 0, 1, 56, 155)"><g clip-path="url(#b3ec4461be)"><g clip-path="url(#35dfd28f31)"><path fill="#caacde" d="M 2.792969 0.429688 C 4.296875 0.3125 5.339844 0.941406 5.921875 2.316406 C 6.191406 3.765625 5.664062 4.808594 4.339844 5.445312 C 2.347656 5.886719 1.136719 5.101562 0.707031 3.089844 C 0.820312 1.730469 1.515625 0.84375 2.792969 0.429688 Z M 2.792969 0.429688 " fill-opacity="1" fill-rule="evenodd"/></g></g></g></g><g mask="url(#087449e94d)"><g transform="matrix(1, 0, 0, 1, 70, 156)"><g clip-path="url(#f3d6825657)"><g clip-path="url(#60a9a4dce4)"><path fill="#caacde" d="M 11.75 0.507812 C 12.21875 0.582031 12.566406 0.828125 12.792969 1.25 C 13.257812 2.917969 12.796875 4.277344 11.410156 5.320312 C 10.496094 5.894531 9.507812 6.132812 8.449219 6.027344 C 8.136719 5.949219 7.820312 5.894531 7.507812 5.859375 C 6.121094 7.953125 4.28125 8.492188 1.988281 7.476562 C 1.199219 7.023438 0.726562 6.351562 0.574219 5.457031 C 0.660156 4.652344 1.109375 4.292969 1.917969 4.378906 C 2.402344 4.59375 2.851562 4.863281 3.265625 5.1875 C 3.707031 5.339844 4.132812 5.320312 4.546875 5.121094 C 4.738281 5.011719 4.914062 4.890625 5.082031 4.75 C 4.359375 3.617188 4.515625 2.617188 5.554688 1.753906 C 6.488281 1.234375 7.363281 1.324219 8.179688 2.023438 C 8.539062 2.414062 8.71875 2.875 8.71875 3.402344 C 9.175781 3.367188 9.601562 3.242188 9.996094 3.03125 C 10.109375 2.875 10.222656 2.71875 10.335938 2.5625 C 10.496094 2.050781 10.664062 1.546875 10.839844 1.046875 C 11.0625 0.71875 11.363281 0.539062 11.75 0.507812 Z M 11.75 0.507812 " fill-opacity="1" fill-rule="evenodd"/></g></g></g></g><g mask="url(#c1e8e49da1)"><g transform="matrix(1, 0, 0, 1, 56, 164)"><g clip-path="url(#664ec37d5f)"><g clip-path="url(#6ba9a725d4)"><path fill="#caacde" d="M 1.851562 0.25 C 2.769531 0.378906 3.003906 0.851562 2.558594 1.664062 C 2.136719 2.085938 1.699219 2.105469 1.242188 1.730469 C 0.878906 1 1.078125 0.503906 1.851562 0.25 Z M 1.851562 0.25 " fill-opacity="1" fill-rule="evenodd"/></g></g></g></g><g mask="url(#fa753b6990)"><g transform="matrix(1, 0, 0, 1, 53, 164)"><g clip-path="url(#4d7e8368c6)"><g clip-path="url(#d77db74809)"><path fill="#caacde" d="M 2.023438 0.386719 C 2.699219 0.316406 3.203125 0.585938 3.539062 1.191406 C 3.734375 2.300781 3.261719 2.90625 2.125 3.011719 C 1.328125 2.890625 0.890625 2.429688 0.8125 1.628906 C 0.957031 0.953125 1.363281 0.539062 2.023438 0.386719 Z M 2.023438 0.386719 " fill-opacity="1" fill-rule="evenodd"/></g></g></g></g><g mask="url(#05d8168203)"><g transform="matrix(1, 0, 0, 1, 199, 167)"><g clip-path="url(#11d5489e1f)"><g clip-path="url(#c2aa0cea08)"><path fill="#caacde" d="M 20.820312 0.953125 C 22.359375 0.910156 22.867188 1.605469 22.335938 3.039062 C 21.980469 3.527344 21.542969 3.921875 21.023438 4.21875 C 20.105469 4.773438 19.128906 5.121094 18.09375 5.261719 C 16.785156 5.570312 15.484375 5.820312 14.1875 6 C 12.695312 6.015625 11.15625 6.136719 9.578125 6.371094 C 8.644531 6.566406 7.722656 6.8125 6.816406 7.113281 C 6.148438 7.355469 5.621094 7.769531 5.234375 8.359375 C 4.640625 9.371094 4.246094 10.4375 4.058594 11.554688 C 4.117188 12.40625 4.351562 13.226562 4.765625 14.011719 C 6.480469 15.953125 8.589844 16.988281 11.09375 17.109375 C 12.546875 17.59375 14.027344 17.707031 15.535156 17.445312 C 15.558594 17.46875 15.582031 17.492188 15.601562 17.511719 C 16.566406 17.335938 17.519531 17.222656 18.464844 17.175781 C 19.085938 17.15625 19.636719 17.335938 20.113281 17.714844 C 20.390625 18.410156 20.222656 18.980469 19.609375 19.433594 C 19.25 19.746094 18.847656 19.992188 18.398438 20.171875 C 16.308594 20.960938 14.191406 21.285156 12.035156 21.148438 C 10.402344 20.890625 8.765625 20.644531 7.121094 20.40625 C 5.285156 19.980469 3.738281 19.085938 2.476562 17.714844 C 1.695312 16.933594 1.132812 16.011719 0.792969 14.957031 C 0.167969 12.601562 0.4375 10.355469 1.601562 8.222656 C 2.367188 6.566406 3.480469 5.183594 4.933594 4.082031 C 7.164062 2.839844 9.511719 2.199219 11.96875 2.164062 C 12.738281 2.109375 13.511719 2.074219 14.289062 2.0625 C 16.542969 2.066406 18.71875 1.695312 20.820312 0.953125 Z M 20.820312 0.953125 " fill-opacity="1" fill-rule="evenodd"/></g></g></g></g><g mask="url(#288abd4837)"><g transform="matrix(1, 0, 0, 1, 161, 173)"><g clip-path="url(#dcfce9c808)"><g clip-path="url(#bf4c576f54)"><path fill="#caacde" d="M 3.214844 1.011719 C 8.683594 1.027344 12.890625 3.335938 15.835938 7.945312 C 17.148438 9.945312 17.878906 12.109375 18.023438 14.441406 C 18.09375 14.871094 18.164062 15.320312 18.226562 15.789062 C 18.25 18.066406 17.832031 20.34375 16.980469 22.621094 C 16.285156 24.578125 15.429688 26.464844 14.421875 28.277344 C 13.1875 30.15625 11.605469 31.671875 9.675781 32.820312 C 9.136719 33.125 8.566406 33.339844 7.960938 33.460938 C 6.808594 33.453125 6.042969 32.890625 5.671875 31.777344 C 5.570312 30.53125 6.097656 29.667969 7.253906 29.183594 C 8.230469 28.925781 9.082031 28.457031 9.8125 27.769531 C 11.160156 26.421875 12.25 24.882812 13.078125 23.160156 C 13.933594 21.355469 14.484375 19.480469 14.726562 17.539062 C 14.683594 16.046875 14.515625 14.578125 14.222656 13.128906 C 13.265625 10.625 11.773438 8.503906 9.746094 6.765625 C 8.34375 5.769531 6.796875 5.097656 5.097656 4.746094 C 3.984375 4.574219 2.886719 4.441406 1.800781 4.34375 C 0.566406 3.996094 0.214844 3.289062 0.757812 2.222656 C 1.441406 1.539062 2.261719 1.132812 3.214844 1.011719 Z M 3.214844 1.011719 " fill-opacity="1" fill-rule="evenodd"/></g></g></g></g><g mask="url(#eaf4382af7)"><g transform="matrix(1, 0, 0, 1, 92, 177)"><g clip-path="url(#7b79519a21)"><g clip-path="url(#446e8f8ae3)"><path fill="#caacde" d="M 9.472656 0.78125 C 10.070312 0.738281 10.53125 1.007812 10.851562 1.589844 C 11.15625 2.460938 11.164062 3.3125 10.886719 4.148438 C 10.789062 4.789062 10.597656 5.417969 10.3125 6.03125 C 9.753906 7.0625 9.191406 8.097656 8.632812 9.128906 C 7.480469 10.730469 6.378906 12.367188 5.332031 14.042969 C 4.8125 15.066406 4.398438 16.128906 4.085938 17.242188 C 4.097656 17.75 4.199219 18.277344 4.390625 18.824219 C 4.757812 19.597656 5.183594 20.335938 5.667969 21.042969 C 7.039062 22.324219 8.597656 22.671875 10.347656 22.089844 C 11.363281 21.8125 12.304688 21.386719 13.175781 20.808594 C 14.222656 19.847656 15.3125 18.941406 16.441406 18.082031 C 17.460938 16.808594 18.378906 15.460938 19.199219 14.042969 C 19.566406 13.496094 20.046875 13.105469 20.648438 12.863281 C 21.195312 12.761719 21.566406 12.976562 21.757812 13.503906 C 21.96875 14.199219 21.96875 14.894531 21.757812 15.589844 C 21.152344 17.433594 20.253906 19.117188 19.066406 20.640625 C 17.929688 21.710938 16.796875 22.777344 15.667969 23.839844 C 15.097656 24.359375 14.492188 24.828125 13.847656 25.25 C 11.640625 26.503906 9.304688 26.816406 6.847656 26.195312 C 4.203125 25.050781 2.417969 23.109375 1.496094 20.371094 C 0.574219 18.203125 0.488281 16.007812 1.226562 13.773438 C 1.738281 12.367188 2.414062 11.042969 3.246094 9.800781 C 4.824219 7.914062 6.234375 5.914062 7.488281 3.8125 C 7.792969 3.042969 8.117188 2.277344 8.464844 1.523438 C 8.710938 1.140625 9.046875 0.890625 9.472656 0.78125 Z M 9.472656 0.78125 " fill-opacity="1" fill-rule="evenodd"/></g></g></g></g><g mask="url(#6597301ffd)"><g transform="matrix(1, 0, 0, 1, 156, 179)"><g clip-path="url(#e18553829f)"><g clip-path="url(#da6a51ddc0)"><path fill="#caacde" d="M 1.683594 0.867188 C 3.082031 0.84375 3.746094 1.492188 3.671875 2.820312 C 3.304688 3.859375 2.597656 4.277344 1.550781 4.066406 C 0.699219 3.714844 0.320312 3.085938 0.40625 2.179688 C 0.621094 1.53125 1.046875 1.089844 1.683594 0.867188 Z M 1.683594 0.867188 " fill-opacity="1" fill-rule="evenodd"/></g></g></g></g><g mask="url(#4bde5f5270)"><g transform="matrix(1, 0, 0, 1, 153, 183)"><g clip-path="url(#ddbae8ca6a)"><g clip-path="url(#2638d99153)"><path fill="#caacde" d="M 3 0.636719 C 4.023438 0.683594 4.460938 1.222656 4.3125 2.253906 C 4.058594 3.113281 3.878906 3.988281 3.777344 4.878906 C 3.742188 5.574219 3.710938 6.210938 3.675781 6.796875 C 3.878906 8.035156 4.230469 9.238281 4.71875 10.398438 C 5.003906 11.152344 4.859375 11.8125 4.28125 12.386719 C 3.703125 12.710938 3.144531 12.6875 2.597656 12.316406 C 2.3125 12.078125 2.074219 11.796875 1.890625 11.476562 C 1.289062 10.140625 0.863281 8.75 0.613281 7.300781 C 0.457031 5.625 0.636719 3.984375 1.148438 2.386719 C 1.550781 1.5625 2.167969 0.976562 3 0.636719 Z M 3 0.636719 " fill-opacity="1" fill-rule="evenodd"/></g></g></g></g><g mask="url(#75cde20a58)"><g transform="matrix(1, 0, 0, 1, 69, 189)"><g clip-path="url(#b8ca9e4649)"><g clip-path="url(#dac5144560)"><path fill="#caacde" d="M 1.640625 0.425781 C 1.960938 0.410156 2.273438 0.445312 2.582031 0.527344 C 3.183594 0.789062 3.765625 1.082031 4.332031 1.402344 C 5.894531 1.960938 7.484375 2.410156 9.113281 2.75 C 11.628906 3.042969 13.988281 3.804688 16.179688 5.039062 C 18.066406 6.160156 19.355469 7.765625 20.050781 9.851562 C 20.632812 11.332031 20.933594 12.824219 20.960938 14.328125 C 20.792969 15.445312 20.511719 16.53125 20.121094 17.59375 C 19.628906 18.488281 18.992188 19.261719 18.203125 19.917969 C 17.515625 20.421875 16.800781 20.871094 16.046875 21.261719 C 15.09375 21.632812 14.105469 21.867188 13.085938 21.96875 C 12.148438 21.945312 11.214844 21.945312 10.292969 21.96875 C 9.503906 21.925781 8.71875 21.882812 7.933594 21.835938 C 7.101562 21.882812 6.292969 21.75 5.511719 21.429688 C 4.167969 21.046875 2.878906 20.496094 1.640625 19.78125 C 1.023438 19.367188 0.585938 18.820312 0.328125 18.132812 C 0.230469 17.410156 0.542969 16.984375 1.269531 16.851562 C 1.679688 16.835938 2.09375 16.867188 2.515625 16.953125 C 3.621094 17.253906 4.71875 17.570312 5.816406 17.898438 C 6.382812 18.015625 6.957031 18.117188 7.53125 18.199219 C 8.925781 18.15625 10.375 18.101562 11.875 18.03125 C 13.234375 17.84375 14.492188 17.351562 15.644531 16.550781 C 16.5625 15.871094 17.132812 14.964844 17.359375 13.824219 C 17.40625 12.386719 17.089844 11.042969 16.417969 9.785156 C 16.179688 9.480469 15.898438 9.222656 15.574219 9.011719 C 13.28125 7.800781 10.867188 7.003906 8.339844 6.621094 C 6.609375 6.078125 4.914062 5.441406 3.257812 4.703125 C 2.488281 4.257812 1.800781 3.707031 1.203125 3.054688 C 0.996094 2.734375 0.816406 2.398438 0.664062 2.042969 C 0.539062 1.21875 0.867188 0.679688 1.640625 0.425781 Z M 1.640625 0.425781 " fill-opacity="1" fill-rule="evenodd"/></g></g></g></g><g mask="url(#cf190543ec)"><g transform="matrix(1, 0, 0, 1, 184, 196)"><g clip-path="url(#1bab0c014c)"><g clip-path="url(#72dd09bd46)"><path fill="#caacde" d="M 17.308594 0.292969 C 20.144531 0.121094 22.839844 0.601562 25.386719 1.742188 C 28.230469 3.148438 30.351562 5.269531 31.746094 8.101562 C 31.953125 8.738281 32.019531 9.390625 31.949219 10.054688 C 31.734375 11.074219 31.140625 11.46875 30.164062 11.234375 C 29.824219 11.027344 29.519531 10.769531 29.257812 10.460938 C 28.089844 8.460938 26.527344 6.832031 24.578125 5.578125 C 22.992188 4.695312 21.34375 4.234375 19.628906 4.199219 C 18.085938 3.941406 16.527344 4.042969 14.953125 4.5 C 13.382812 5.070312 11.925781 5.835938 10.574219 6.789062 C 8.34375 8.820312 6.671875 11.230469 5.558594 14.027344 C 5.316406 14.730469 5.136719 15.445312 5.023438 16.179688 C 4.976562 16.5625 4.976562 16.945312 5.023438 17.324219 C 5.128906 17.804688 5.207031 18.285156 5.257812 18.773438 C 5.132812 20.265625 4.335938 21.042969 2.867188 21.097656 C 1.722656 20.824219 1.070312 20.109375 0.914062 18.941406 C 0.722656 15.945312 1.441406 13.140625 3.070312 10.527344 C 4.714844 8.058594 6.632812 5.824219 8.824219 3.828125 C 11.339844 1.910156 14.164062 0.730469 17.308594 0.292969 Z M 17.308594 0.292969 " fill-opacity="1" fill-rule="evenodd"/></g></g></g></g><g mask="url(#e077ae179f)"><g transform="matrix(1, 0, 0, 1, 107, 204)"><g clip-path="url(#bc1245d257)"><g clip-path="url(#2c2d2a79cc)"><path fill="#caacde" d="M 14.535156 0.304688 C 15.335938 0.308594 16.132812 0.308594 16.925781 0.304688 C 18.351562 0.375 19.5625 0.914062 20.558594 1.921875 C 21.171875 3.085938 20.847656 3.8125 19.582031 4.109375 C 18.386719 4.113281 17.210938 4.054688 16.046875 3.941406 C 12.722656 4.105469 9.960938 5.429688 7.769531 7.914062 C 7.132812 8.589844 6.550781 9.308594 6.019531 10.066406 C 5.234375 11.636719 4.730469 13.308594 4.503906 15.082031 C 4.433594 15.460938 4.386719 15.832031 4.367188 16.191406 C 4.527344 19.292969 5.367188 22.1875 6.894531 24.875 C 7.40625 25.691406 8.023438 26.421875 8.746094 27.066406 C 9.386719 27.394531 9.992188 27.777344 10.5625 28.207031 C 11.367188 29.238281 11.367188 30.257812 10.5625 31.273438 C 9.660156 31.996094 8.71875 32.074219 7.734375 31.507812 C 5.511719 29.957031 3.886719 27.925781 2.855469 25.414062 C 1.722656 22.164062 1.085938 18.902344 0.933594 15.621094 C 1.15625 10.066406 3.535156 5.710938 8.070312 2.558594 C 10.054688 1.3125 12.210938 0.5625 14.535156 0.304688 Z M 14.535156 0.304688 " fill-opacity="1" fill-rule="evenodd"/></g></g></g></g><g mask="url(#701b400fb1)"><g transform="matrix(1, 0, 0, 1, 210, 211)"><g clip-path="url(#ffeba30658)"><g clip-path="url(#cf3e51ae5e)"><path fill="#caacde" d="M 1.875 0.238281 C 3.261719 0.199219 3.902344 0.871094 3.796875 2.257812 C 3.554688 3.054688 3.015625 3.480469 2.179688 3.539062 C 0.738281 3.210938 0.289062 2.355469 0.832031 0.980469 C 1.101562 0.609375 1.449219 0.363281 1.875 0.238281 Z M 1.875 0.238281 " fill-opacity="1" fill-rule="evenodd"/></g></g></g></g><g mask="url(#58c882ad19)"><g transform="matrix(1, 0, 0, 1, 128, 211)"><g clip-path="url(#86d95b20a8)"><g clip-path="url(#27356d7a47)"><path fill="#caacde" d="M 2.015625 0.304688 C 2.882812 0.246094 3.503906 0.605469 3.867188 1.382812 C 4.105469 2.128906 3.9375 2.769531 3.363281 3.300781 C 2.222656 3.917969 1.347656 3.648438 0.738281 2.496094 C 0.554688 1.417969 0.980469 0.6875 2.015625 0.304688 Z M 2.015625 0.304688 " fill-opacity="1" fill-rule="evenodd"/></g></g></g></g><g mask="url(#d5aab9026e)"><g transform="matrix(1, 0, 0, 1, 200, 214)"><g clip-path="url(#942debb58b)"><g clip-path="url(#1318115445)"><path fill="#caacde" d="M 10.058594 0.941406 C 10.949219 0.921875 11.421875 1.359375 11.472656 2.253906 C 11.320312 3.40625 10.804688 4.359375 9.925781 5.117188 C 8.710938 6.113281 7.363281 6.890625 5.886719 7.4375 C 4.722656 7.734375 3.542969 7.949219 2.351562 8.078125 C 1.472656 8.050781 0.878906 7.632812 0.566406 6.832031 C 0.527344 6.273438 0.730469 5.800781 1.171875 5.417969 C 1.570312 5.183594 1.984375 5.058594 2.417969 5.046875 C 3.121094 4.894531 3.828125 4.75 4.539062 4.609375 C 6.425781 3.914062 8.042969 2.8125 9.386719 1.3125 C 9.605469 1.167969 9.828125 1.046875 10.058594 0.941406 Z M 10.058594 0.941406 " fill-opacity="1" fill-rule="evenodd"/></g></g></g></g><g mask="url(#cfce4b4620)"><g transform="matrix(1, 0, 0, 1, 128, 215)"><g clip-path="url(#f9648ef50a)"><g clip-path="url(#48c4adecca)"><path fill="#caacde" d="M 3.566406 0.34375 C 4.046875 0.421875 4.453125 0.648438 4.777344 1.019531 C 5.507812 1.9375 5.820312 2.96875 5.71875 4.117188 C 5.726562 5.785156 5.398438 7.375 4.742188 8.894531 C 4.269531 9.851562 3.71875 10.761719 3.09375 11.621094 C 2.464844 12.199219 1.769531 12.3125 1.007812 11.957031 C 0.4375 11.390625 0.289062 10.75 0.570312 10.039062 C 1.035156 9.214844 1.484375 8.386719 1.914062 7.546875 C 2.550781 5.707031 2.71875 3.796875 2.421875 1.828125 C 2.410156 1.007812 2.792969 0.515625 3.566406 0.34375 Z M 3.566406 0.34375 " fill-opacity="1" fill-rule="evenodd"/></g></g></g></g><g mask="url(#b5f89cae0f)"><g transform="matrix(1, 0, 0, 1, 69, 219)"><g clip-path="url(#0db452a95e)"><g clip-path="url(#0871136019)"><path fill="#caacde" d="M 11.066406 1.058594 C 11.984375 1.027344 12.929688 1.074219 13.894531 1.191406 C 15.402344 1.28125 16.859375 1.628906 18.269531 2.234375 C 21.742188 3.800781 24.425781 6.238281 26.3125 9.539062 C 27.210938 11.039062 28.015625 12.589844 28.738281 14.183594 C 29.625 16.519531 29.949219 18.910156 29.710938 21.355469 C 29.574219 21.882812 29.429688 22.410156 29.273438 22.9375 C 28.523438 24.308594 27.457031 24.679688 26.078125 24.046875 C 25.148438 23.320312 24.867188 22.386719 25.234375 21.253906 C 25.699219 20.1875 25.867188 19.089844 25.742188 17.953125 C 25.207031 14.746094 23.960938 11.851562 22.003906 9.269531 C 21.589844 8.769531 21.132812 8.308594 20.625 7.890625 C 19.882812 7.375 19.144531 6.859375 18.402344 6.34375 C 17.113281 5.574219 15.734375 5.160156 14.261719 5.097656 C 10.582031 4.429688 7.296875 5.382812 4.402344 7.957031 C 3.832031 8.503906 3.296875 9.0625 2.785156 9.640625 C 2.335938 10.03125 1.851562 10.246094 1.335938 10.28125 C 0.546875 10.058594 0.152344 9.53125 0.160156 8.699219 C 0.246094 8.082031 0.414062 7.488281 0.664062 6.914062 C 2.734375 3.996094 5.527344 2.144531 9.046875 1.359375 C 9.726562 1.234375 10.398438 1.136719 11.066406 1.058594 Z M 11.066406 1.058594 " fill-opacity="1" fill-rule="evenodd"/></g></g></g></g><g mask="url(#9f0044e283)"><g transform="matrix(1, 0, 0, 1, 69, 233)"><g clip-path="url(#ef32699590)"><g clip-path="url(#46bc24f2e5)"><path fill="#caacde" d="M 2.582031 0.386719 C 4.109375 0.570312 4.660156 1.402344 4.234375 2.878906 C 3.683594 3.667969 2.953125 3.902344 2.042969 3.585938 C 0.890625 2.695312 0.824219 1.730469 1.84375 0.691406 C 2.089844 0.566406 2.335938 0.464844 2.582031 0.386719 Z M 2.582031 0.386719 " fill-opacity="1" fill-rule="evenodd"/></g></g></g></g><g mask="url(#9b9a441706)"><g transform="matrix(1, 0, 0, 1, 71, 237)"><g clip-path="url(#ec8a7ec7df)"><g clip-path="url(#2b87c48206)"><path fill="#caacde" d="M 1.929688 0.425781 C 2.304688 0.398438 2.640625 0.5 2.9375 0.730469 C 3.453125 1.363281 3.957031 2.003906 4.453125 2.648438 C 5.371094 3.652344 6.4375 4.46875 7.652344 5.105469 C 8.402344 5.402344 9.167969 5.667969 9.941406 5.914062 C 10.570312 6.183594 10.953125 6.65625 11.085938 7.328125 C 11.019531 8.019531 10.652344 8.503906 9.972656 8.773438 C 9.953125 8.75 9.929688 8.730469 9.90625 8.707031 C 9.65625 8.800781 9.410156 8.84375 9.167969 8.839844 C 7.414062 8.441406 5.785156 7.757812 4.285156 6.789062 C 3.234375 5.984375 2.324219 5.050781 1.558594 3.996094 C 0.996094 3.117188 0.839844 2.175781 1.089844 1.167969 C 1.257812 0.78125 1.539062 0.535156 1.929688 0.425781 Z M 1.929688 0.425781 " fill-opacity="1" fill-rule="evenodd"/></g></g></g></g></svg>