<svg xmlns="http://www.w3.org/2000/svg" xmlns:xlink="http://www.w3.org/1999/xlink" width="400" zoomAndPan="magnify" viewBox="0 0 300 299.999988" height="400" preserveAspectRatio="xMidYMid meet" version="1.0"><path fill="#caacde" d="M 248.179688 140.789062 C 250.863281 139.308594 251.359375 136.144531 251.492188 133.238281 C 251.773438 128.855469 251.667969 126.980469 250.226562 125.347656 C 249.984375 125.070312 249.636719 124.90625 249.265625 124.890625 C 248.507812 124.8125 247.527344 125.578125 245.652344 129.308594 C 245.648438 129.3125 245.648438 129.316406 245.648438 129.320312 C 244.058594 132.441406 243.136719 135.972656 244.367188 139.238281 C 245.027344 140.988281 246.503906 141.707031 248.179688 140.789062 Z M 248.867188 129.011719 C 248.992188 130.136719 248.882812 131.488281 248.777344 133.117188 C 248.683594 135.269531 248.378906 137.578125 246.910156 138.285156 C 245.78125 135.238281 247.277344 131.851562 248.867188 129.011719 Z M 248.867188 129.011719 " fill-opacity="1" fill-rule="nonzero"/><path fill="#caacde" d="M 241.527344 151.253906 C 239.285156 161.679688 229.535156 175.621094 237.746094 182.347656 C 241.609375 185.5 246.960938 183.761719 248.042969 178.324219 C 248.46875 176.1875 248.105469 174.035156 247.785156 172.136719 C 246.585938 165.113281 245.65625 158.195312 244.183594 151.253906 C 243.878906 149.828125 241.835938 149.824219 241.527344 151.253906 Z M 241.527344 151.253906 " fill-opacity="1" fill-rule="nonzero"/><path fill="#caacde" d="M 128.792969 195.722656 C 125.585938 196.941406 123.28125 197.871094 119.207031 201.289062 C 118.589844 201.320312 118.140625 201.730469 117.992188 202.292969 C 115.105469 204.835938 112.621094 207.5 110.65625 209.6875 C 109.460938 211.027344 111.476562 212.835938 112.679688 211.5 C 114.382812 209.597656 116.519531 207.335938 118.929688 205.125 C 130.875 230.359375 130.355469 232.128906 132.402344 231.183594 C 133.082031 230.871094 133.378906 230.066406 133.070312 229.382812 L 121.066406 203.269531 C 122.980469 201.679688 124.613281 200.265625 128.65625 198.679688 L 155.769531 247.703125 C 150.730469 250.125 148.152344 254.453125 146.753906 258.863281 C 145.582031 256.332031 138.171875 240.449219 136.996094 237.933594 C 136.234375 236.296875 133.789062 237.441406 134.527344 239.070312 C 146.921875 265.484375 145.839844 263.578125 146.34375 263.960938 C 147.269531 265.796875 149.816406 265.097656 151.550781 263.984375 C 157.015625 260.480469 159.835938 251.464844 158.847656 248.816406 C 159.40625 247.589844 160.117188 250.445312 131.257812 197.773438 C 142.773438 194.199219 148.460938 195.429688 157.453125 186.1875 C 158.5625 185.082031 159.320312 184.359375 159.972656 183.417969 C 161.246094 181.574219 160.074219 179.863281 158.046875 180.066406 C 155.015625 180.394531 152.917969 181.695312 150.226562 183.203125 C 143.441406 186.917969 140.613281 186.246094 135.273438 186.058594 L 142.105469 179.066406 C 143.347656 177.789062 141.433594 175.886719 140.160156 177.167969 L 131.035156 186.511719 C 130.136719 187.433594 130.933594 188.957031 132.121094 188.8125 C 133.652344 188.6875 135.167969 188.765625 136.78125 188.847656 C 142.03125 189.128906 145.3125 188.988281 151.53125 185.582031 C 153.515625 184.472656 155.03125 183.5625 156.703125 183.089844 C 146.109375 194.09375 141.367188 191.285156 128.792969 195.722656 Z M 128.792969 195.722656 " fill-opacity="1" fill-rule="nonzero"/><path fill="#caacde" d="M 48.75 109.886719 C 49.546875 111.503906 51.980469 110.300781 51.191406 108.6875 C 43.664062 93.40625 33.625 84.898438 40.609375 75.429688 C 42.394531 73 47.570312 69.136719 51.234375 66.402344 C 51.066406 66.632812 50.859375 66.804688 50.707031 67.058594 C 49.164062 69.613281 51.601562 70.363281 53.660156 70.367188 C 61.503906 70.375 60.960938 73.089844 64.269531 75.390625 C 66.039062 76.621094 68.414062 76.875 70.320312 76.035156 C 71.746094 75.40625 73.078125 74.191406 74.636719 74.488281 C 77.425781 75.023438 78.195312 79.5625 80.171875 81.972656 C 82.800781 85.175781 85.984375 84.476562 87.757812 85.011719 C 90.207031 85.753906 91.691406 88.339844 92.386719 90.824219 C 93.078125 93.304688 93.265625 95.941406 94.410156 98.261719 C 95.785156 101.054688 99.390625 103.246094 101.203125 101.175781 C 103.125 105.886719 104.1875 109.839844 104.453125 114.960938 C 91.921875 112.371094 88.917969 120.164062 84.730469 123 C 80.164062 126.085938 73.382812 125.003906 68.046875 128.203125 C 66.496094 129.128906 62.949219 131.988281 61.535156 133.824219 C 61.121094 134.367188 60.761719 134.960938 60.445312 135.570312 C 56.703125 131.125 56.363281 123.746094 54.699219 117.675781 C 54.234375 115.945312 51.609375 116.652344 52.085938 118.386719 C 53.949219 125.222656 54.058594 133.484375 59.660156 138.664062 C 59.820312 139.011719 60.109375 139.292969 60.503906 139.40625 C 60.527344 139.414062 60.546875 139.410156 60.566406 139.414062 C 67.851562 145.210938 76.699219 143.90625 85.273438 140.378906 C 112.585938 190.847656 108.96875 183.945312 110.929688 187.882812 C 75.964844 222.378906 77.175781 220.339844 77.21875 221.523438 C 75.300781 223.695312 75.9375 229.976562 76.570312 233.070312 C 78.039062 240.277344 84.175781 245.582031 86.257812 241.179688 C 91.746094 235.625 97.265625 230.109375 102.828125 224.628906 C 104.101562 223.371094 102.207031 221.4375 100.917969 222.695312 C 96.199219 227.34375 91.527344 232.039062 86.863281 236.742188 C 86.828125 231.394531 85.46875 225.699219 80.617188 221.359375 L 189.074219 115.1875 C 191.226562 116.875 193.269531 118.808594 194.773438 121.070312 L 146.460938 169.167969 C 145.601562 170.023438 146.21875 171.488281 147.417969 171.488281 C 148.492188 171.488281 145.71875 173.515625 192.023438 127.644531 C 200.386719 133.867188 207.488281 134.902344 218.914062 127.953125 C 229.472656 121.535156 233.1875 113.113281 246.046875 103.960938 C 250.800781 100.574219 255.714844 97.070312 257.910156 91.351562 C 260.324219 85.066406 259.175781 76.65625 252.570312 69.25 C 270.011719 52.429688 269.09375 53.527344 269.617188 52.398438 C 270.125 51.335938 270.035156 50.125 269.394531 49.242188 C 268.132812 47.5 265.9375 47.746094 263.964844 48.199219 C 255.933594 49.648438 261.40625 47.0625 244.808594 62.285156 C 241.941406 60.136719 232.691406 53.671875 228.867188 52.472656 C 221.109375 50.039062 215.78125 54.507812 212.441406 58.070312 C 211.929688 58.617188 211.957031 59.476562 212.503906 59.988281 C 213.046875 60.5 213.90625 60.480469 214.421875 59.925781 C 223.328125 50.4375 229.179688 54.769531 239.835938 62.070312 C 239.582031 61.996094 239.371094 61.863281 239.101562 61.804688 C 236.238281 61.199219 236.34375 63.738281 237.011719 65.675781 C 239.566406 73.050781 236.882812 73.464844 235.839844 77.324219 C 235.28125 79.398438 235.824219 81.714844 237.222656 83.234375 C 238.269531 84.367188 239.828125 85.222656 240.0625 86.789062 C 240.484375 89.59375 236.546875 91.800781 234.960938 94.46875 C 232.863281 98 234.546875 100.761719 234.632812 102.613281 C 234.75 105.164062 232.84375 107.414062 230.777344 108.886719 C 228.710938 110.359375 226.339844 111.402344 224.566406 113.246094 C 222.457031 115.445312 221.585938 119.554688 224.082031 120.601562 C 220.601562 123.75 217.128906 126.261719 212.457031 128.230469 C 210.761719 115.558594 202.503906 115.25 198.582031 112.296875 C 194.277344 109.042969 193.015625 102.269531 188.324219 98.308594 C 187.335938 97.464844 186.222656 96.789062 185.242188 96.191406 C 183.085938 94.871094 181.464844 93.929688 179.023438 93.574219 C 182.085938 88.273438 189.519531 85.46875 194.734375 81.488281 C 199.644531 77.742188 203.675781 73 207.710938 68.070312 C 208.1875 67.488281 208.101562 66.632812 207.519531 66.160156 C 206.949219 65.6875 206.089844 65.769531 205.613281 66.351562 C 201.679688 71.152344 197.765625 75.761719 193.085938 79.332031 C 187.09375 83.90625 179.050781 86.410156 175.894531 93.84375 C 175.609375 94.109375 175.429688 94.480469 175.453125 94.898438 C 175.457031 94.917969 175.464844 94.933594 175.46875 94.953125 C 174.039062 99.15625 174.222656 104.15625 176.1875 108.777344 C 177.46875 111.792969 179.429688 114.761719 182.257812 118.054688 L 120.570312 178.445312 L 107.25 154.355469 C 106.886719 153.699219 106.0625 153.46875 105.402344 153.824219 C 104.75 154.1875 104.507812 155.011719 104.875 155.671875 L 118.558594 180.417969 L 112.957031 185.898438 C 110.550781 181.144531 114.5 188.683594 84.300781 132.878906 C 86.070312 131.707031 88.683594 130.742188 90.703125 130.054688 L 98.707031 144.523438 C 98.957031 144.972656 99.417969 145.226562 99.894531 145.226562 C 100.117188 145.226562 100.34375 145.171875 100.554688 145.054688 C 101.207031 144.691406 101.449219 143.867188 101.082031 143.210938 L 96.433594 134.800781 C 106.085938 128.460938 109.019531 121.546875 106.394531 108.648438 C 104.207031 97.871094 97.757812 89.421875 94.355469 79.429688 C 92.035156 72.621094 91.058594 64.109375 84.972656 58.851562 C 79.464844 54.09375 70.453125 52.464844 60.054688 57.617188 L 54.722656 45.304688 C 51.15625 37.046875 50.988281 36.304688 50.1875 35.472656 C 48.632812 33.890625 46.292969 34.382812 45.300781 36.457031 C 44.699219 37.683594 44.847656 38.648438 44.273438 40.933594 C 44.226562 41.335938 43.464844 43.046875 44.335938 45.097656 L 51.804688 62.632812 C 48.796875 64.765625 40.664062 70.777344 38.425781 73.816406 C 30.148438 85.046875 41.210938 94.542969 48.75 109.886719 Z M 261.070312 51.382812 L 262.011719 51.265625 C 264.808594 50.957031 266.695312 50.140625 267.195312 50.835938 C 267.546875 51.300781 267.402344 51.171875 250.695312 67.285156 C 249.515625 66.132812 248.273438 65.027344 246.972656 63.972656 C 259.867188 51.957031 259.214844 51.636719 261.070312 51.382812 Z M 177.910156 96.210938 C 180.203125 96.347656 181.414062 97.03125 183.824219 98.507812 C 186.984375 100.425781 188.109375 101.257812 191.203125 106.855469 C 194.839844 113.441406 196.492188 114.628906 201.125 116.792969 C 202.421875 117.402344 203.644531 117.972656 204.707031 118.75 C 208.402344 121.453125 209.515625 126.125 209.84375 129.183594 C 204.386719 130.835938 200.335938 130.292969 193.984375 125.6875 L 196.050781 123.632812 C 196.085938 123.753906 196.144531 123.871094 196.171875 123.988281 C 196.367188 124.730469 197.132812 125.144531 197.832031 124.953125 C 200.464844 124.257812 197.175781 119.464844 195.394531 117.402344 C 192.9375 114.558594 189.933594 112.105469 186.460938 110.117188 C 184.90625 109.222656 183.546875 111.574219 185.109375 112.472656 C 185.710938 112.816406 186.21875 113.246094 186.789062 113.621094 L 184.203125 116.152344 C 179.226562 110.328125 175.597656 103.695312 177.910156 96.210938 Z M 95.109375 132.414062 L 93.359375 129.246094 C 94.050781 129.058594 94.738281 128.859375 95.441406 128.710938 C 97.207031 128.335938 96.625 125.667969 94.875 126.054688 C 91.199219 126.839844 84.675781 128.9375 81.816406 131.3125 C 80.742188 132.207031 80.015625 133.175781 78.878906 134.703125 C 77.804688 136.140625 79.976562 137.769531 81.058594 136.332031 C 81.328125 135.96875 81.730469 135.410156 82.238281 134.78125 L 83.96875 137.96875 C 76.578125 140.972656 68.898438 142.328125 62.554688 137.535156 C 62.855469 136.804688 63.21875 136.097656 63.691406 135.480469 C 64.847656 133.976562 68.152344 131.304688 69.441406 130.53125 C 71.679688 129.191406 74.324219 128.730469 77.121094 128.238281 C 84.570312 126.933594 86.238281 125.761719 89.859375 122.007812 C 90.871094 120.960938 91.824219 119.972656 92.921875 119.207031 C 96.710938 116.5625 101.484375 117.039062 104.480469 117.746094 C 104.210938 123.34375 102.589844 127.445312 95.109375 132.414062 Z M 46.832031 44.035156 C 46.324219 42.835938 46.972656 41.855469 47.277344 39.921875 C 47.367188 39.207031 47.546875 37.058594 48.242188 37.367188 C 48.574219 37.707031 48.492188 37.757812 52.234375 46.382812 L 57.648438 58.886719 C 56.441406 59.570312 55.257812 60.304688 54.089844 61.074219 Z M 46.832031 44.035156 " fill-opacity="1" fill-rule="nonzero"/></svg>