<svg xmlns="http://www.w3.org/2000/svg" xmlns:xlink="http://www.w3.org/1999/xlink" width="400" zoomAndPan="magnify" viewBox="0 0 300 299.999988" height="400" preserveAspectRatio="xMidYMid meet" version="1.0"><defs><clipPath id="2537e1577a"><path d="M 30 35.398438 L 270 35.398438 L 270 264.898438 L 30 264.898438 Z M 30 35.398438 " clip-rule="nonzero"/></clipPath></defs><g clip-path="url(#2537e1577a)"><path fill="currentColor" d="M 103.859375 81.058594 C 102.25 83.386719 101.15625 86.042969 100.730469 88.90625 L 123.164062 88.90625 C 122.179688 82.402344 117.820312 77.054688 111.941406 74.070312 C 108.628906 75.757812 105.84375 78.164062 103.859375 81.058594 Z M 109.191406 51.089844 C 109.191406 47.460938 114.710938 47.460938 114.710938 51.089844 L 114.710938 61.347656 C 114.710938 64.976562 109.191406 64.976562 109.191406 61.347656 Z M 131.78125 94.402344 L 92.125 94.402344 L 92.125 104.125 L 131.78125 104.125 Z M 68.0625 87.824219 C 68.0625 84.195312 73.582031 84.195312 73.582031 87.824219 L 73.582031 103.894531 C 73.582031 107.523438 68.0625 107.523438 68.0625 103.894531 Z M 77.613281 178.757812 C 71.800781 173.867188 61.46875 177.195312 61.46875 183.867188 C 61.46875 190.558594 71.800781 193.890625 77.613281 188.980469 C 81.023438 186.117188 81.023438 181.636719 77.613281 178.757812 Z M 70.8125 170.910156 C 84.097656 170.910156 90.761719 185.085938 81.148438 193.183594 C 71.722656 201.125 55.964844 195.246094 55.964844 183.867188 C 55.964844 176.269531 63.15625 170.910156 70.8125 170.910156 Z M 43.082031 138.675781 C 43.097656 140.144531 43.128906 141.726562 43.097656 143.363281 C 61.765625 143.363281 80.410156 143.363281 99.078125 143.363281 C 99.042969 141.71875 99.078125 140.144531 99.09375 138.675781 C 99.203125 130.84375 99.28125 126.152344 87.558594 125.808594 C 82.742188 125.65625 75.175781 119.308594 71.09375 115.789062 C 67.015625 119.308594 59.433594 125.65625 54.617188 125.808594 C 42.910156 126.15625 42.96875 130.84375 43.082031 138.675781 Z M 111.644531 151.496094 L 29.996094 151.496094 L 29.996094 160.9375 L 111.640625 160.9375 L 111.640625 151.496094 Z M 186.117188 204.175781 C 201.308594 199.65625 217.632812 199.265625 232.167969 203.175781 C 228.386719 185.105469 205.859375 178.242188 192.667969 191.433594 C 189.292969 194.828125 186.925781 199.238281 186.117188 204.175781 Z M 35.640625 264.609375 C 79.804688 264.609375 123.964844 264.609375 168.136719 264.609375 C 168.171875 260.296875 166.46875 255.398438 164.902344 251.105469 C 161.507812 241.679688 153.269531 232.90625 144.34375 226.1875 C 122.1875 209.539062 89.066406 200.097656 62.507812 209.667969 C 52.472656 213.296875 43.21875 219.636719 35.636719 229.460938 L 35.636719 264.609375 Z M 155.023438 227.96875 C 162.15625 234.632812 167.453125 241.945312 170.078125 249.246094 C 171.910156 254.324219 173.691406 259.46875 173.640625 264.609375 L 258.023438 264.609375 L 258.023438 226.546875 C 256.863281 224.59375 255.425781 222.714844 253.71875 220.984375 C 244.996094 212.027344 231.175781 207.476562 218.488281 206.320312 C 195.445312 204.207031 172.328125 212.210938 155.023438 227.96875 Z M 111.519531 204.054688 C 116.382812 205.414062 121.128906 207.128906 125.714844 209.117188 L 125.714844 109.628906 L 98.183594 109.628906 L 98.183594 122.058594 C 104.78125 124.796875 104.703125 130.582031 104.59375 138.742188 L 104.667969 145.976562 L 114.390625 145.976562 C 115.90625 145.976562 117.144531 147.210938 117.144531 148.730469 L 117.144531 163.691406 C 117.144531 165.207031 115.90625 166.441406 114.390625 166.441406 L 111.511719 166.441406 L 111.511719 204.054688 Z M 35.640625 220.992188 C 54.148438 201.269531 80.519531 196.949219 106.003906 202.65625 L 106.003906 166.4375 L 35.640625 166.4375 Z M 179.019531 181.089844 C 182.1875 182.828125 179.5625 187.640625 176.394531 185.921875 L 158.464844 176.179688 C 155.292969 174.445312 157.902344 169.613281 161.089844 171.351562 Z M 193.382812 169.535156 C 194.167969 170.832031 193.757812 172.519531 192.464844 173.320312 C 191.167969 174.101562 189.480469 173.695312 188.679688 172.398438 L 178.328125 155.527344 C 177.53125 154.234375 177.9375 152.546875 179.234375 151.746094 C 180.53125 150.960938 182.234375 151.371094 183.015625 152.667969 Z M 211.984375 166.375 C 211.984375 170.003906 206.480469 170.003906 206.480469 166.375 L 206.480469 146.898438 C 206.480469 143.269531 211.984375 143.269531 211.984375 146.898438 Z M 229.792969 172.394531 C 228.992188 173.6875 227.304688 174.097656 226.007812 173.3125 C 224.714844 172.515625 224.304688 170.828125 225.089844 169.53125 L 235.449219 152.660156 C 236.234375 151.367188 237.921875 150.957031 239.21875 151.742188 C 240.511719 152.539062 240.9375 154.226562 240.136719 155.523438 Z M 245.640625 203.378906 C 242.011719 203.378906 242.011719 197.859375 245.640625 197.859375 L 266.355469 197.859375 C 269.984375 197.859375 269.984375 203.378906 266.355469 203.378906 Z M 242.078125 185.914062 C 238.90625 187.636719 236.277344 182.820312 239.453125 181.085938 L 257.382812 171.34375 C 260.554688 169.625 263.183594 174.4375 260.007812 176.175781 Z M 172.832031 197.875 C 176.441406 197.875 176.441406 203.363281 172.832031 203.363281 L 152.117188 203.363281 C 148.503906 203.363281 148.503906 197.875 152.117188 197.875 Z M 165.511719 35.425781 C 154.683594 40.835938 148.617188 52.746094 153.082031 64.308594 C 157.503906 75.753906 170.246094 81.847656 182.34375 80.550781 C 161.78125 74.429688 152.835938 52.027344 165.511719 35.425781 Z M 165.511719 35.425781 " fill-opacity="1" fill-rule="nonzero"/></g></svg>