<svg xmlns="http://www.w3.org/2000/svg" xmlns:xlink="http://www.w3.org/1999/xlink" width="400" zoomAndPan="magnify" viewBox="0 0 300 299.999988" height="400" preserveAspectRatio="xMidYMid meet" version="1.0"><defs><clipPath id="7c28d5b330"><path d="M 154 37 L 263 37 L 263 146.25 L 154 146.25 Z M 154 37 " clip-rule="nonzero"/></clipPath><clipPath id="3ed5b4e0db"><path d="M 30 102.691406 L 147 102.691406 L 147 269.941406 L 30 269.941406 Z M 30 102.691406 " clip-rule="nonzero"/></clipPath></defs><g clip-path="url(#7c28d5b330)"><path fill="#a9a0f0" d="M 208.445312 146.074219 C 206.890625 146.074219 205.335938 146.007812 203.789062 145.871094 C 202.242188 145.738281 200.699219 145.539062 199.167969 145.273438 C 197.636719 145.007812 196.121094 144.675781 194.617188 144.28125 C 193.113281 143.882812 191.628906 143.425781 190.164062 142.902344 C 188.703125 142.378906 187.261719 141.792969 185.847656 141.148438 C 184.4375 140.5 183.050781 139.796875 181.699219 139.03125 C 180.34375 138.265625 179.027344 137.445312 177.746094 136.566406 C 176.460938 135.6875 175.21875 134.757812 174.015625 133.773438 C 172.8125 132.789062 171.652344 131.753906 170.539062 130.671875 C 169.425781 129.585938 168.359375 128.457031 167.339844 127.285156 C 166.324219 126.109375 165.359375 124.890625 164.445312 123.632812 C 163.53125 122.375 162.671875 121.082031 161.871094 119.75 C 161.066406 118.417969 160.324219 117.054688 159.636719 115.660156 C 158.953125 114.265625 158.328125 112.84375 157.765625 111.394531 C 157.199219 109.945312 156.699219 108.476562 156.261719 106.984375 C 155.824219 105.492188 155.449219 103.988281 155.140625 102.460938 C 154.832031 100.9375 154.589844 99.40625 154.414062 97.859375 C 154.234375 96.316406 154.125 94.769531 154.082031 93.214844 C 154.035156 91.660156 154.058594 90.105469 154.148438 88.554688 C 154.234375 87.003906 154.390625 85.457031 154.613281 83.917969 C 154.832031 82.378906 155.117188 80.855469 155.472656 79.339844 C 155.824219 77.824219 156.238281 76.328125 156.71875 74.851562 C 157.199219 73.371094 157.742188 71.917969 158.347656 70.484375 C 158.953125 69.054688 159.617188 67.648438 160.339844 66.273438 C 161.066406 64.898438 161.847656 63.558594 162.6875 62.25 C 163.527344 60.941406 164.421875 59.671875 165.371094 58.441406 C 166.320312 57.210938 167.320312 56.023438 168.371094 54.875 C 169.421875 53.730469 170.519531 52.632812 171.664062 51.582031 C 172.808594 50.53125 173.996094 49.527344 175.226562 48.578125 C 176.460938 47.628906 177.726562 46.734375 179.035156 45.894531 C 180.34375 45.050781 181.683594 44.269531 183.058594 43.542969 C 184.433594 42.816406 185.835938 42.152344 187.265625 41.542969 C 188.910156 40.851562 190.582031 40.238281 192.28125 39.710938 C 193.984375 39.179688 195.707031 38.738281 197.453125 38.375 C 199.199219 38.015625 200.957031 37.742188 202.730469 37.554688 C 204.503906 37.367188 206.28125 37.269531 208.0625 37.257812 C 209.84375 37.242188 211.621094 37.320312 213.398438 37.480469 C 215.171875 37.644531 216.933594 37.890625 218.683594 38.226562 C 220.433594 38.5625 222.164062 38.984375 223.875 39.488281 C 225.582031 39.996094 227.261719 40.582031 228.914062 41.253906 C 230.566406 41.921875 232.179688 42.671875 233.757812 43.5 C 235.335938 44.332031 236.867188 45.234375 238.355469 46.214844 C 239.847656 47.195312 241.28125 48.246094 242.667969 49.367188 C 244.054688 50.488281 245.382812 51.671875 246.652344 52.925781 C 247.917969 54.175781 249.125 55.484375 250.265625 56.855469 C 251.40625 58.226562 252.476562 59.648438 253.476562 61.121094 C 254.476562 62.597656 255.402344 64.117188 256.253906 65.683594 C 257.105469 67.25 257.875 68.851562 258.570312 70.496094 C 259.265625 72.136719 259.875 73.808594 260.40625 75.511719 C 260.933594 77.210938 261.378906 78.933594 261.738281 80.679688 C 262.097656 82.425781 262.371094 84.183594 262.558594 85.957031 C 262.746094 87.730469 262.847656 89.507812 262.859375 91.289062 C 262.871094 93.070312 262.796875 94.851562 262.632812 96.625 C 262.472656 98.398438 262.222656 100.160156 261.886719 101.914062 C 261.550781 103.664062 261.132812 105.390625 260.625 107.101562 C 260.121094 108.808594 259.53125 110.492188 258.863281 112.140625 C 258.191406 113.792969 257.441406 115.40625 256.613281 116.984375 C 255.785156 118.5625 254.878906 120.097656 253.898438 121.585938 C 252.921875 123.074219 251.871094 124.511719 250.75 125.894531 C 249.628906 127.28125 248.441406 128.609375 247.191406 129.878906 C 245.941406 131.148438 244.628906 132.351562 243.257812 133.492188 C 241.890625 134.632812 240.46875 135.703125 238.992188 136.703125 C 237.519531 137.703125 235.996094 138.628906 234.429688 139.480469 C 232.867188 140.332031 231.261719 141.105469 229.621094 141.796875 C 222.851562 144.664062 215.792969 146.089844 208.445312 146.074219 Z M 208.445312 41.453125 C 180.753906 41.453125 158.226562 63.980469 158.226562 91.671875 C 158.226562 119.363281 180.753906 141.890625 208.445312 141.890625 C 236.132812 141.890625 258.660156 119.363281 258.660156 91.671875 C 258.660156 63.980469 236.132812 41.453125 208.445312 41.453125 Z M 208.445312 41.453125 " fill-opacity="1" fill-rule="nonzero"/></g><path fill="#a9a0f0" d="M 223.40625 97.238281 C 222.753906 97.238281 222.105469 97.171875 221.46875 97.046875 C 220.828125 96.917969 220.207031 96.730469 219.601562 96.480469 C 219 96.230469 218.425781 95.925781 217.882812 95.5625 C 217.339844 95.199219 216.839844 94.789062 216.378906 94.324219 C 215.917969 93.863281 215.503906 93.363281 215.140625 92.820312 C 214.777344 92.277344 214.472656 91.703125 214.222656 91.101562 C 213.972656 90.5 213.785156 89.878906 213.65625 89.238281 C 213.53125 88.597656 213.46875 87.949219 213.46875 87.296875 C 213.46875 86.644531 213.53125 86 213.65625 85.359375 C 213.785156 84.71875 213.972656 84.097656 214.222656 83.496094 C 214.472656 82.890625 214.777344 82.320312 215.140625 81.777344 C 215.503906 81.234375 215.917969 80.730469 216.378906 80.269531 C 216.839844 79.808594 217.339844 79.398438 217.882812 79.035156 C 218.425781 78.671875 219 78.367188 219.601562 78.117188 C 220.207031 77.867188 220.828125 77.675781 221.46875 77.550781 C 222.105469 77.421875 222.753906 77.359375 223.40625 77.359375 C 224.058594 77.359375 224.703125 77.421875 225.34375 77.550781 C 225.984375 77.675781 226.605469 77.867188 227.210938 78.117188 C 227.8125 78.367188 228.386719 78.671875 228.925781 79.035156 C 229.46875 79.398438 229.972656 79.808594 230.433594 80.269531 C 230.894531 80.730469 231.308594 81.234375 231.667969 81.777344 C 232.03125 82.320312 232.339844 82.890625 232.589844 83.496094 C 232.839844 84.097656 233.027344 84.71875 233.152344 85.359375 C 233.28125 86 233.34375 86.644531 233.34375 87.296875 C 233.34375 87.949219 233.28125 88.597656 233.152344 89.238281 C 233.023438 89.875 232.835938 90.496094 232.585938 91.101562 C 232.335938 91.703125 232.027344 92.273438 231.667969 92.816406 C 231.304688 93.359375 230.890625 93.863281 230.429688 94.324219 C 229.96875 94.785156 229.46875 95.195312 228.925781 95.558594 C 228.382812 95.921875 227.808594 96.226562 227.207031 96.476562 C 226.605469 96.726562 225.984375 96.917969 225.34375 97.042969 C 224.703125 97.171875 224.058594 97.238281 223.40625 97.238281 Z M 223.40625 81.542969 C 223.027344 81.542969 222.652344 81.582031 222.285156 81.65625 C 221.914062 81.726562 221.554688 81.835938 221.203125 81.980469 C 220.855469 82.125 220.523438 82.304688 220.207031 82.515625 C 219.894531 82.722656 219.605469 82.960938 219.335938 83.230469 C 219.070312 83.496094 218.832031 83.789062 218.621094 84.101562 C 218.410156 84.414062 218.234375 84.746094 218.089844 85.097656 C 217.945312 85.445312 217.835938 85.804688 217.761719 86.175781 C 217.6875 86.546875 217.652344 86.921875 217.652344 87.296875 C 217.652344 87.675781 217.6875 88.050781 217.761719 88.421875 C 217.835938 88.792969 217.945312 89.152344 218.089844 89.5 C 218.234375 89.847656 218.410156 90.179688 218.621094 90.496094 C 218.832031 90.808594 219.070312 91.101562 219.335938 91.367188 C 219.605469 91.632812 219.894531 91.871094 220.207031 92.082031 C 220.523438 92.292969 220.855469 92.46875 221.203125 92.613281 C 221.554688 92.757812 221.914062 92.867188 222.285156 92.941406 C 222.652344 93.015625 223.027344 93.050781 223.40625 93.050781 C 223.785156 93.050781 224.15625 93.015625 224.527344 92.941406 C 224.898438 92.867188 225.257812 92.757812 225.609375 92.613281 C 225.957031 92.46875 226.289062 92.292969 226.601562 92.082031 C 226.917969 91.871094 227.207031 91.632812 227.472656 91.367188 C 227.742188 91.101562 227.980469 90.808594 228.191406 90.496094 C 228.398438 90.179688 228.578125 89.847656 228.722656 89.5 C 228.867188 89.152344 228.976562 88.792969 229.050781 88.421875 C 229.125 88.050781 229.160156 87.675781 229.160156 87.296875 C 229.160156 86.921875 229.121094 86.546875 229.050781 86.175781 C 228.976562 85.804688 228.867188 85.445312 228.722656 85.097656 C 228.578125 84.746094 228.398438 84.417969 228.191406 84.101562 C 227.980469 83.789062 227.742188 83.496094 227.472656 83.230469 C 227.207031 82.964844 226.917969 82.726562 226.601562 82.515625 C 226.289062 82.304688 225.957031 82.128906 225.609375 81.984375 C 225.257812 81.839844 224.898438 81.730469 224.527344 81.65625 C 224.15625 81.582031 223.785156 81.546875 223.40625 81.546875 Z M 223.40625 81.542969 " fill-opacity="1" fill-rule="nonzero"/><path fill="#a9a0f0" d="M 256.238281 97.238281 C 255.585938 97.238281 254.941406 97.171875 254.300781 97.046875 C 253.660156 96.917969 253.039062 96.730469 252.4375 96.480469 C 251.832031 96.230469 251.261719 95.925781 250.71875 95.5625 C 250.175781 95.199219 249.671875 94.789062 249.210938 94.324219 C 248.75 93.863281 248.339844 93.363281 247.976562 92.820312 C 247.613281 92.277344 247.308594 91.703125 247.058594 91.101562 C 246.808594 90.5 246.617188 89.878906 246.492188 89.238281 C 246.363281 88.597656 246.300781 87.949219 246.300781 87.296875 C 246.300781 86.644531 246.363281 86 246.492188 85.359375 C 246.617188 84.71875 246.808594 84.097656 247.058594 83.496094 C 247.308594 82.890625 247.613281 82.320312 247.976562 81.777344 C 248.339844 81.234375 248.75 80.730469 249.210938 80.269531 C 249.671875 79.808594 250.175781 79.398438 250.71875 79.035156 C 251.261719 78.671875 251.832031 78.367188 252.4375 78.117188 C 253.039062 77.867188 253.660156 77.675781 254.300781 77.550781 C 254.941406 77.421875 255.585938 77.359375 256.238281 77.359375 C 257.671875 77.355469 259.042969 77.652344 260.347656 78.246094 C 260.597656 78.363281 260.8125 78.523438 261 78.726562 C 261.183594 78.929688 261.324219 79.160156 261.417969 79.417969 C 261.511719 79.675781 261.554688 79.945312 261.542969 80.21875 C 261.535156 80.492188 261.472656 80.757812 261.359375 81.007812 C 261.246094 81.257812 261.085938 81.476562 260.886719 81.664062 C 260.6875 81.851562 260.457031 81.996094 260.199219 82.09375 C 259.945312 82.191406 259.679688 82.238281 259.402344 82.230469 C 259.128906 82.222656 258.863281 82.164062 258.613281 82.054688 C 257.859375 81.710938 257.066406 81.542969 256.238281 81.542969 C 255.789062 81.542969 255.34375 81.597656 254.902344 81.699219 C 254.464844 81.804688 254.042969 81.960938 253.640625 82.164062 C 253.238281 82.367188 252.863281 82.613281 252.519531 82.90625 C 252.175781 83.199219 251.867188 83.527344 251.601562 83.890625 C 251.332031 84.253906 251.113281 84.644531 250.9375 85.058594 C 250.761719 85.476562 250.636719 85.90625 250.5625 86.351562 C 250.488281 86.796875 250.464844 87.246094 250.496094 87.695312 C 250.527344 88.144531 250.609375 88.585938 250.746094 89.015625 C 250.878906 89.449219 251.0625 89.855469 251.296875 90.246094 C 251.527344 90.632812 251.800781 90.988281 252.113281 91.3125 C 252.429688 91.636719 252.777344 91.917969 253.160156 92.160156 C 253.539062 92.402344 253.945312 92.59375 254.371094 92.742188 C 254.796875 92.886719 255.238281 92.984375 255.6875 93.027344 C 256.136719 93.070312 256.582031 93.058594 257.03125 92.996094 C 257.476562 92.933594 257.910156 92.820312 258.332031 92.65625 C 258.753906 92.492188 259.148438 92.28125 259.519531 92.023438 C 259.746094 91.867188 259.996094 91.757812 260.269531 91.699219 C 260.539062 91.640625 260.8125 91.632812 261.085938 91.683594 C 261.359375 91.734375 261.613281 91.832031 261.84375 91.984375 C 262.078125 92.132812 262.273438 92.320312 262.433594 92.550781 C 262.589844 92.777344 262.699219 93.027344 262.757812 93.300781 C 262.816406 93.570312 262.824219 93.84375 262.773438 94.117188 C 262.722656 94.390625 262.625 94.640625 262.476562 94.875 C 262.324219 95.109375 262.136719 95.304688 261.90625 95.464844 C 260.203125 96.648438 258.316406 97.242188 256.238281 97.238281 Z M 256.238281 97.238281 " fill-opacity="1" fill-rule="nonzero"/><path fill="#a9a0f0" d="M 202.195312 79.804688 C 201.542969 79.804688 200.894531 79.742188 200.257812 79.613281 C 199.617188 79.488281 198.996094 79.300781 198.390625 79.050781 C 197.789062 78.800781 197.214844 78.492188 196.671875 78.132812 C 196.128906 77.769531 195.628906 77.355469 195.167969 76.894531 C 194.707031 76.433594 194.292969 75.929688 193.929688 75.390625 C 193.570312 74.847656 193.261719 74.273438 193.011719 73.671875 C 192.761719 73.066406 192.574219 72.445312 192.449219 71.804688 C 192.320312 71.164062 192.257812 70.519531 192.257812 69.867188 C 192.257812 69.214844 192.320312 68.566406 192.449219 67.929688 C 192.574219 67.289062 192.761719 66.667969 193.011719 66.0625 C 193.261719 65.460938 193.570312 64.886719 193.929688 64.34375 C 194.292969 63.800781 194.707031 63.300781 195.167969 62.839844 C 195.628906 62.378906 196.128906 61.964844 196.671875 61.601562 C 197.214844 61.242188 197.789062 60.933594 198.390625 60.683594 C 198.996094 60.433594 199.617188 60.246094 200.257812 60.117188 C 200.894531 59.992188 201.542969 59.929688 202.195312 59.929688 C 202.847656 59.929688 203.496094 59.992188 204.132812 60.117188 C 204.773438 60.246094 205.394531 60.433594 206 60.683594 C 206.601562 60.933594 207.175781 61.242188 207.71875 61.601562 C 208.257812 61.964844 208.761719 62.378906 209.222656 62.839844 C 209.683594 63.300781 210.097656 63.800781 210.460938 64.34375 C 210.820312 64.886719 211.128906 65.460938 211.378906 66.0625 C 211.628906 66.667969 211.816406 67.289062 211.941406 67.929688 C 212.070312 68.566406 212.132812 69.214844 212.132812 69.867188 C 212.132812 70.519531 212.070312 71.164062 211.941406 71.804688 C 211.8125 72.445312 211.625 73.066406 211.375 73.667969 C 211.125 74.269531 210.816406 74.84375 210.457031 75.386719 C 210.09375 75.929688 209.679688 76.429688 209.21875 76.890625 C 208.757812 77.351562 208.257812 77.765625 207.714844 78.128906 C 207.171875 78.488281 206.597656 78.796875 205.996094 79.046875 C 205.394531 79.296875 204.773438 79.484375 204.132812 79.613281 C 203.492188 79.742188 202.847656 79.804688 202.195312 79.804688 Z M 202.195312 64.113281 C 201.816406 64.113281 201.441406 64.148438 201.074219 64.222656 C 200.703125 64.296875 200.34375 64.40625 199.992188 64.550781 C 199.644531 64.695312 199.3125 64.871094 199 65.082031 C 198.683594 65.292969 198.394531 65.53125 198.125 65.796875 C 197.859375 66.066406 197.621094 66.355469 197.410156 66.671875 C 197.199219 66.984375 197.023438 67.316406 196.878906 67.664062 C 196.734375 68.015625 196.625 68.375 196.550781 68.746094 C 196.476562 69.113281 196.441406 69.488281 196.441406 69.867188 C 196.441406 70.246094 196.476562 70.617188 196.550781 70.988281 C 196.625 71.359375 196.734375 71.71875 196.878906 72.070312 C 197.023438 72.417969 197.199219 72.75 197.410156 73.0625 C 197.621094 73.378906 197.859375 73.667969 198.125 73.9375 C 198.394531 74.203125 198.683594 74.441406 199 74.652344 C 199.3125 74.863281 199.644531 75.039062 199.992188 75.183594 C 200.34375 75.328125 200.703125 75.4375 201.074219 75.511719 C 201.441406 75.585938 201.816406 75.621094 202.195312 75.621094 C 202.574219 75.621094 202.949219 75.585938 203.316406 75.511719 C 203.6875 75.4375 204.046875 75.328125 204.398438 75.183594 C 204.746094 75.039062 205.078125 74.863281 205.390625 74.652344 C 205.707031 74.441406 205.996094 74.203125 206.265625 73.9375 C 206.53125 73.667969 206.769531 73.378906 206.980469 73.0625 C 207.191406 72.75 207.367188 72.417969 207.511719 72.070312 C 207.65625 71.71875 207.765625 71.359375 207.839844 70.988281 C 207.914062 70.617188 207.949219 70.246094 207.949219 69.867188 C 207.949219 69.488281 207.910156 69.117188 207.835938 68.746094 C 207.765625 68.375 207.65625 68.015625 207.507812 67.667969 C 207.363281 67.316406 207.1875 66.984375 206.976562 66.671875 C 206.769531 66.359375 206.527344 66.066406 206.261719 65.800781 C 205.996094 65.53125 205.703125 65.292969 205.390625 65.085938 C 205.078125 64.875 204.746094 64.699219 204.394531 64.550781 C 204.046875 64.40625 203.6875 64.296875 203.316406 64.222656 C 202.945312 64.152344 202.574219 64.113281 202.195312 64.113281 Z M 202.195312 64.113281 " fill-opacity="1" fill-rule="nonzero"/><path fill="#a9a0f0" d="M 223.433594 53.554688 C 223.058594 53.550781 222.683594 53.53125 222.3125 53.488281 C 221.9375 53.445312 221.570312 53.382812 221.203125 53.300781 C 220.839844 53.214844 220.480469 53.109375 220.125 52.984375 C 219.769531 52.859375 219.425781 52.714844 219.089844 52.550781 C 218.75 52.386719 218.425781 52.207031 218.105469 52.003906 C 217.789062 51.804688 217.484375 51.585938 217.195312 51.351562 C 216.902344 51.113281 216.625 50.863281 216.359375 50.597656 C 216.097656 50.328125 215.851562 50.046875 215.617188 49.753906 C 215.386719 49.457031 215.171875 49.152344 214.976562 48.832031 C 214.777344 48.511719 214.601562 48.183594 214.441406 47.84375 C 214.28125 47.503906 214.140625 47.15625 214.019531 46.800781 C 213.898438 46.445312 213.800781 46.085938 213.71875 45.71875 C 213.640625 45.351562 213.582031 44.980469 213.546875 44.609375 C 213.507812 44.234375 213.492188 43.859375 213.496094 43.484375 C 213.5 43.109375 213.527344 42.738281 213.574219 42.363281 C 213.621094 41.992188 213.6875 41.625 213.777344 41.261719 C 213.832031 41.007812 213.933594 40.773438 214.074219 40.558594 C 214.21875 40.34375 214.394531 40.160156 214.601562 40.011719 C 214.8125 39.863281 215.042969 39.753906 215.292969 39.6875 C 215.539062 39.625 215.792969 39.605469 216.050781 39.632812 C 216.304688 39.660156 216.546875 39.734375 216.777344 39.851562 C 217.007812 39.96875 217.207031 40.125 217.378906 40.316406 C 217.550781 40.507812 217.683594 40.726562 217.777344 40.96875 C 217.867188 41.207031 217.914062 41.457031 217.914062 41.714844 C 217.914062 41.886719 217.890625 42.054688 217.851562 42.222656 C 217.753906 42.601562 217.699219 42.988281 217.683594 43.382812 C 217.664062 43.777344 217.6875 44.167969 217.75 44.554688 C 217.816406 44.941406 217.917969 45.320312 218.058594 45.6875 C 218.199219 46.054688 218.375 46.402344 218.585938 46.734375 C 218.800781 47.066406 219.042969 47.371094 219.316406 47.652344 C 219.59375 47.933594 219.894531 48.183594 220.21875 48.40625 C 220.546875 48.625 220.890625 48.808594 221.257812 48.957031 C 221.621094 49.105469 221.996094 49.214844 222.382812 49.285156 C 222.769531 49.359375 223.160156 49.390625 223.550781 49.382812 C 223.945312 49.375 224.335938 49.324219 224.71875 49.238281 C 225.101562 49.148438 225.472656 49.023438 225.828125 48.859375 C 226.1875 48.695312 226.523438 48.496094 226.839844 48.265625 C 227.15625 48.03125 227.445312 47.769531 227.710938 47.476562 C 227.972656 47.183594 228.203125 46.867188 228.402344 46.527344 C 228.601562 46.1875 228.761719 45.832031 228.886719 45.457031 C 229.011719 45.085938 229.097656 44.703125 229.144531 44.3125 C 229.175781 44.039062 229.261719 43.78125 229.398438 43.539062 C 229.535156 43.296875 229.710938 43.089844 229.929688 42.917969 C 230.148438 42.746094 230.390625 42.625 230.660156 42.550781 C 230.925781 42.472656 231.195312 42.453125 231.472656 42.488281 C 231.75 42.519531 232.007812 42.605469 232.25 42.742188 C 232.492188 42.878906 232.695312 43.054688 232.867188 43.273438 C 233.039062 43.492188 233.164062 43.734375 233.238281 44 C 233.3125 44.269531 233.332031 44.539062 233.300781 44.816406 C 233.226562 45.414062 233.101562 46 232.921875 46.574219 C 232.742188 47.148438 232.511719 47.703125 232.230469 48.234375 C 231.953125 48.769531 231.625 49.269531 231.253906 49.746094 C 230.882812 50.21875 230.472656 50.65625 230.023438 51.054688 C 229.570312 51.453125 229.089844 51.808594 228.574219 52.121094 C 228.058594 52.429688 227.519531 52.695312 226.957031 52.90625 C 226.394531 53.121094 225.816406 53.28125 225.222656 53.390625 C 224.632812 53.5 224.035156 53.550781 223.433594 53.554688 Z M 223.433594 53.554688 " fill-opacity="1" fill-rule="nonzero"/><path fill="#a9a0f0" d="M 230.570312 141.179688 C 230.335938 141.175781 230.105469 141.140625 229.886719 141.0625 C 229.664062 140.984375 229.460938 140.875 229.277344 140.730469 C 229.09375 140.585938 228.9375 140.414062 228.808594 140.214844 C 228.683594 140.019531 228.59375 139.804688 228.539062 139.578125 C 228.402344 139.019531 228.222656 138.472656 228 137.945312 C 227.777344 137.414062 227.515625 136.902344 227.210938 136.414062 C 226.910156 135.921875 226.570312 135.460938 226.195312 135.023438 C 225.816406 134.589844 225.410156 134.1875 224.96875 133.816406 C 224.53125 133.445312 224.0625 133.109375 223.570312 132.8125 C 223.078125 132.511719 222.566406 132.257812 222.03125 132.039062 C 221.5 131.824219 220.953125 131.648438 220.390625 131.519531 C 219.832031 131.390625 219.265625 131.304688 218.691406 131.261719 C 218.117188 131.222656 217.542969 131.226562 216.96875 131.277344 C 216.394531 131.328125 215.828125 131.421875 215.269531 131.5625 C 214.714844 131.699219 214.167969 131.882812 213.640625 132.109375 C 213.109375 132.332031 212.601562 132.597656 212.113281 132.902344 C 211.625 133.210938 211.164062 133.550781 210.730469 133.929688 C 210.296875 134.308594 209.898438 134.71875 209.527344 135.160156 C 209.160156 135.601562 208.828125 136.070312 208.53125 136.5625 C 208.238281 137.058594 207.984375 137.574219 207.769531 138.105469 C 207.667969 138.367188 207.523438 138.601562 207.328125 138.800781 C 207.132812 139.003906 206.910156 139.160156 206.652344 139.273438 C 206.398438 139.386719 206.128906 139.445312 205.847656 139.449219 C 205.570312 139.453125 205.300781 139.402344 205.039062 139.300781 C 204.777344 139.195312 204.550781 139.046875 204.351562 138.847656 C 204.148438 138.652344 203.996094 138.425781 203.886719 138.167969 C 203.777344 137.910156 203.722656 137.640625 203.722656 137.359375 C 203.722656 137.082031 203.777344 136.8125 203.882812 136.554688 C 204.179688 135.816406 204.53125 135.101562 204.9375 134.417969 C 205.347656 133.734375 205.804688 133.089844 206.316406 132.476562 C 206.824219 131.867188 207.382812 131.300781 207.980469 130.777344 C 208.582031 130.253906 209.21875 129.78125 209.890625 129.359375 C 210.566406 128.933594 211.269531 128.566406 212.003906 128.257812 C 212.734375 127.945312 213.488281 127.691406 214.261719 127.5 C 215.03125 127.308594 215.816406 127.175781 216.609375 127.109375 C 217.402344 127.039062 218.195312 127.03125 218.988281 127.089844 C 219.78125 127.144531 220.566406 127.261719 221.34375 127.445312 C 222.117188 127.625 222.875 127.863281 223.609375 128.164062 C 224.347656 128.464844 225.058594 128.820312 225.738281 129.230469 C 226.421875 129.644531 227.066406 130.105469 227.671875 130.621094 C 228.28125 131.132812 228.84375 131.691406 229.363281 132.292969 C 229.882812 132.898438 230.355469 133.539062 230.773438 134.214844 C 231.191406 134.890625 231.554688 135.597656 231.863281 136.332031 C 232.167969 137.066406 232.417969 137.820312 232.605469 138.59375 C 232.640625 138.746094 232.660156 138.902344 232.664062 139.0625 C 232.664062 139.21875 232.648438 139.375 232.617188 139.53125 C 232.582031 139.6875 232.53125 139.835938 232.464844 139.976562 C 232.394531 140.121094 232.3125 140.253906 232.214844 140.378906 C 232.117188 140.503906 232.007812 140.617188 231.882812 140.714844 C 231.761719 140.816406 231.625 140.898438 231.484375 140.96875 C 231.34375 141.039062 231.195312 141.089844 231.039062 141.125 C 230.882812 141.160156 230.726562 141.179688 230.570312 141.179688 Z M 230.570312 141.179688 " fill-opacity="1" fill-rule="nonzero"/><path fill="#a9a0f0" d="M 199.027344 117.78125 C 198.527344 117.78125 198.027344 117.734375 197.535156 117.636719 C 197.046875 117.539062 196.566406 117.394531 196.101562 117.199219 C 195.640625 117.007812 195.199219 116.773438 194.78125 116.496094 C 194.363281 116.214844 193.980469 115.898438 193.625 115.542969 C 193.269531 115.191406 192.953125 114.804688 192.671875 114.386719 C 192.394531 113.96875 192.160156 113.53125 191.96875 113.066406 C 191.773438 112.601562 191.628906 112.125 191.53125 111.632812 C 191.433594 111.140625 191.386719 110.644531 191.386719 110.140625 C 191.386719 109.640625 191.433594 109.144531 191.53125 108.652344 C 191.628906 108.160156 191.773438 107.679688 191.964844 107.21875 C 192.160156 106.753906 192.394531 106.3125 192.671875 105.894531 C 192.953125 105.480469 193.269531 105.09375 193.621094 104.738281 C 193.976562 104.382812 194.363281 104.066406 194.78125 103.789062 C 195.199219 103.507812 195.636719 103.273438 196.101562 103.082031 C 196.566406 102.890625 197.042969 102.746094 197.535156 102.648438 C 198.027344 102.546875 198.523438 102.5 199.027344 102.5 C 199.527344 102.5 200.023438 102.546875 200.515625 102.644531 C 201.007812 102.746094 201.488281 102.890625 201.949219 103.082031 C 202.414062 103.273438 202.855469 103.507812 203.273438 103.789062 C 203.6875 104.066406 204.074219 104.382812 204.429688 104.738281 C 204.785156 105.09375 205.101562 105.476562 205.378906 105.894531 C 205.660156 106.3125 205.894531 106.753906 206.085938 107.214844 C 206.277344 107.679688 206.421875 108.15625 206.519531 108.648438 C 206.617188 109.140625 206.667969 109.640625 206.667969 110.140625 C 206.667969 110.640625 206.617188 111.140625 206.519531 111.628906 C 206.421875 112.121094 206.277344 112.601562 206.085938 113.0625 C 205.890625 113.527344 205.65625 113.96875 205.378906 114.382812 C 205.097656 114.800781 204.78125 115.1875 204.429688 115.542969 C 204.074219 115.894531 203.6875 116.210938 203.269531 116.492188 C 202.855469 116.769531 202.414062 117.003906 201.949219 117.199219 C 201.488281 117.390625 201.007812 117.535156 200.519531 117.632812 C 200.027344 117.730469 199.53125 117.78125 199.027344 117.78125 Z M 199.027344 106.6875 C 198.570312 106.683594 198.128906 106.773438 197.703125 106.949219 C 197.28125 107.125 196.90625 107.375 196.582031 107.699219 C 196.257812 108.023438 196.007812 108.394531 195.832031 108.820312 C 195.65625 109.242188 195.570312 109.683594 195.570312 110.140625 C 195.570312 110.601562 195.65625 111.042969 195.832031 111.464844 C 196.007812 111.886719 196.257812 112.261719 196.582031 112.585938 C 196.90625 112.910156 197.28125 113.160156 197.703125 113.335938 C 198.128906 113.511719 198.570312 113.597656 199.027344 113.597656 C 199.484375 113.597656 199.925781 113.511719 200.351562 113.335938 C 200.773438 113.160156 201.148438 112.910156 201.472656 112.585938 C 201.796875 112.261719 202.046875 111.886719 202.21875 111.464844 C 202.394531 111.039062 202.484375 110.597656 202.484375 110.140625 C 202.480469 109.683594 202.394531 109.242188 202.21875 108.820312 C 202.042969 108.394531 201.792969 108.023438 201.46875 107.699219 C 201.144531 107.375 200.773438 107.125 200.347656 106.949219 C 199.925781 106.773438 199.484375 106.6875 199.027344 106.6875 Z M 199.027344 106.6875 " fill-opacity="1" fill-rule="nonzero"/><path fill="#a9a0f0" d="M 179.074219 94.882812 C 178.949219 94.882812 178.824219 94.875 178.699219 94.851562 C 178.425781 94.804688 178.171875 94.703125 177.941406 94.554688 C 177.707031 94.402344 177.511719 94.214844 177.351562 93.988281 C 177.195312 93.757812 177.085938 93.507812 177.027344 93.238281 C 176.964844 92.96875 176.960938 92.695312 177.011719 92.421875 C 177.125 91.769531 177.128906 91.121094 177.019531 90.46875 C 176.964844 90.191406 176.96875 89.914062 177.027344 89.640625 C 177.085938 89.363281 177.195312 89.113281 177.355469 88.878906 C 177.515625 88.648438 177.714844 88.457031 177.949219 88.308594 C 178.1875 88.15625 178.445312 88.054688 178.722656 88.007812 C 179 87.960938 179.277344 87.96875 179.550781 88.035156 C 179.824219 88.097656 180.074219 88.214844 180.304688 88.378906 C 180.53125 88.542969 180.71875 88.746094 180.863281 88.988281 C 181.011719 89.230469 181.101562 89.488281 181.144531 89.765625 C 181.335938 90.902344 181.332031 92.035156 181.128906 93.167969 C 181.085938 93.410156 181.003906 93.632812 180.878906 93.847656 C 180.753906 94.058594 180.601562 94.242188 180.414062 94.398438 C 180.222656 94.554688 180.015625 94.675781 179.785156 94.757812 C 179.554688 94.84375 179.316406 94.882812 179.074219 94.882812 Z M 179.074219 94.882812 " fill-opacity="1" fill-rule="nonzero"/><path fill="#a9a0f0" d="M 242.410156 118.457031 C 241.878906 118.457031 241.351562 118.40625 240.832031 118.304688 C 240.3125 118.199219 239.808594 118.046875 239.316406 117.84375 C 238.828125 117.640625 238.363281 117.390625 237.921875 117.097656 C 237.480469 116.800781 237.074219 116.46875 236.699219 116.09375 C 236.324219 115.71875 235.988281 115.308594 235.691406 114.867188 C 235.398438 114.425781 235.148438 113.960938 234.945312 113.472656 C 234.742188 112.980469 234.589844 112.476562 234.488281 111.957031 C 234.382812 111.4375 234.332031 110.910156 234.332031 110.382812 C 234.332031 109.851562 234.382812 109.324219 234.488281 108.804688 C 234.589844 108.285156 234.742188 107.78125 234.945312 107.289062 C 235.148438 106.800781 235.398438 106.335938 235.691406 105.894531 C 235.988281 105.453125 236.324219 105.046875 236.699219 104.671875 C 237.074219 104.296875 237.480469 103.960938 237.921875 103.664062 C 238.363281 103.371094 238.828125 103.121094 239.316406 102.917969 C 239.808594 102.714844 240.3125 102.5625 240.832031 102.460938 C 241.351562 102.355469 241.878906 102.304688 242.410156 102.304688 C 242.9375 102.304688 243.464844 102.355469 243.984375 102.460938 C 244.503906 102.5625 245.007812 102.714844 245.5 102.917969 C 245.988281 103.121094 246.457031 103.371094 246.894531 103.664062 C 247.335938 103.960938 247.746094 104.296875 248.121094 104.671875 C 248.496094 105.046875 248.828125 105.453125 249.125 105.894531 C 249.417969 106.335938 249.667969 106.800781 249.871094 107.289062 C 250.074219 107.78125 250.226562 108.285156 250.332031 108.804688 C 250.433594 109.324219 250.484375 109.851562 250.484375 110.382812 C 250.484375 110.910156 250.433594 111.4375 250.328125 111.957031 C 250.226562 112.476562 250.070312 112.980469 249.867188 113.46875 C 249.664062 113.960938 249.414062 114.425781 249.121094 114.867188 C 248.828125 115.308594 248.492188 115.714844 248.117188 116.089844 C 247.742188 116.464844 247.335938 116.800781 246.894531 117.09375 C 246.453125 117.386719 245.988281 117.636719 245.5 117.839844 C 245.007812 118.042969 244.503906 118.199219 243.984375 118.300781 C 243.464844 118.40625 242.9375 118.457031 242.410156 118.457031 Z M 242.410156 106.488281 C 241.894531 106.488281 241.394531 106.589844 240.917969 106.785156 C 240.441406 106.984375 240.023438 107.265625 239.65625 107.628906 C 239.292969 107.996094 239.011719 108.414062 238.8125 108.890625 C 238.617188 109.367188 238.515625 109.867188 238.515625 110.382812 C 238.515625 110.898438 238.617188 111.394531 238.8125 111.871094 C 239.011719 112.347656 239.292969 112.769531 239.65625 113.132812 C 240.023438 113.5 240.441406 113.78125 240.917969 113.976562 C 241.394531 114.175781 241.894531 114.273438 242.410156 114.273438 C 242.925781 114.273438 243.421875 114.175781 243.898438 113.976562 C 244.375 113.78125 244.796875 113.5 245.160156 113.132812 C 245.527344 112.769531 245.808594 112.347656 246.003906 111.871094 C 246.203125 111.394531 246.300781 110.898438 246.300781 110.382812 C 246.300781 109.867188 246.199219 109.371094 246.003906 108.894531 C 245.804688 108.417969 245.523438 107.996094 245.160156 107.628906 C 244.792969 107.265625 244.375 106.984375 243.898438 106.785156 C 243.421875 106.589844 242.925781 106.488281 242.410156 106.488281 Z M 242.410156 106.488281 " fill-opacity="1" fill-rule="nonzero"/><path fill="#a9a0f0" d="M 219.910156 144.8125 C 219.753906 144.8125 219.601562 144.796875 219.449219 144.761719 C 207.578125 142.109375 196.796875 135.414062 189.089844 125.914062 C 188.117188 124.714844 187.195312 123.472656 186.328125 122.195312 C 185.460938 120.917969 184.648438 119.605469 183.894531 118.257812 C 183.136719 116.914062 182.441406 115.535156 181.800781 114.128906 C 181.164062 112.722656 180.585938 111.292969 180.070312 109.835938 C 179.554688 108.382812 179.101562 106.90625 178.710938 105.410156 C 178.320312 103.917969 177.992188 102.410156 177.730469 100.886719 C 177.46875 99.367188 177.273438 97.835938 177.140625 96.296875 C 177.011719 94.757812 176.945312 93.214844 176.945312 91.671875 C 176.945312 90.125 177.011719 88.585938 177.140625 87.046875 C 177.273438 85.507812 177.46875 83.976562 177.730469 82.457031 C 177.992188 80.933594 178.320312 79.425781 178.710938 77.929688 C 179.101562 76.4375 179.554688 74.960938 180.070312 73.507812 C 180.585938 72.050781 181.164062 70.621094 181.800781 69.214844 C 182.441406 67.804688 183.136719 66.429688 183.894531 65.082031 C 184.648438 63.734375 185.460938 62.421875 186.328125 61.144531 C 187.195312 59.867188 188.117188 58.628906 189.089844 57.429688 C 196.796875 47.929688 207.578125 41.230469 219.449219 38.578125 C 219.722656 38.511719 219.996094 38.5 220.273438 38.542969 C 220.550781 38.589844 220.808594 38.683594 221.046875 38.832031 C 221.285156 38.980469 221.488281 39.167969 221.648438 39.398438 C 221.8125 39.625 221.921875 39.878906 221.984375 40.152344 C 222.046875 40.425781 222.050781 40.699219 222.003906 40.976562 C 221.953125 41.253906 221.851562 41.507812 221.699219 41.746094 C 221.546875 41.980469 221.355469 42.179688 221.125 42.335938 C 220.894531 42.496094 220.640625 42.601562 220.367188 42.660156 C 197.640625 47.742188 181.152344 68.351562 181.152344 91.671875 C 181.152344 114.988281 197.640625 135.601562 220.363281 140.679688 C 220.613281 140.734375 220.847656 140.835938 221.0625 140.976562 C 221.273438 141.121094 221.457031 141.296875 221.605469 141.503906 C 221.753906 141.714844 221.863281 141.945312 221.929688 142.191406 C 221.992188 142.441406 222.011719 142.695312 221.984375 142.949219 C 221.957031 143.203125 221.882812 143.449219 221.765625 143.675781 C 221.648438 143.90625 221.492188 144.105469 221.300781 144.277344 C 221.109375 144.449219 220.894531 144.582031 220.65625 144.675781 C 220.414062 144.765625 220.167969 144.8125 219.910156 144.8125 Z M 219.910156 144.8125 " fill-opacity="1" fill-rule="nonzero"/><g clip-path="url(#3ed5b4e0db)"><path fill="#a9a0f0" d="M 146.808594 237.625 C 145.765625 231.882812 139.761719 226.664062 136.632812 224.054688 C 136.632812 223.269531 136.371094 222.226562 135.585938 221.703125 C 122.277344 212.046875 111.835938 196.386719 105.050781 183.601562 C 104.789062 171.332031 105.050781 165.332031 104.789062 159.847656 C 107.398438 159.589844 109.488281 158.023438 110.792969 155.414062 L 111.054688 155.414062 C 112.097656 155.414062 113.140625 154.628906 113.402344 153.585938 C 122.796875 153.847656 117.839844 144.449219 121.753906 141.320312 C 123.582031 139.753906 124.886719 137.144531 125.410156 135.578125 C 131.410156 133.226562 133.238281 120.441406 122.277344 109.476562 C 117.839844 105.039062 112.359375 102.691406 106.617188 102.691406 L 106.09375 102.691406 C 92.785156 102.953125 87.304688 118.351562 86.519531 132.96875 C 84.953125 135.054688 82.867188 137.402344 82.867188 140.535156 C 80.257812 142.101562 66.945312 150.976562 61.988281 172.898438 C 57.289062 194.300781 51.808594 209.4375 65.902344 239.972656 C 59.375 240.496094 57.027344 240.757812 53.894531 246.238281 C 46.066406 244.671875 39.542969 251.980469 38.757812 252.503906 C 35.105469 255.632812 30.144531 258.765625 30.40625 263.726562 C 30.667969 266.855469 34.058594 269.726562 35.886719 269.726562 C 61.464844 269.726562 58.070312 269.726562 59.117188 269.726562 C 61.203125 269.988281 57.027344 269.726562 137.675781 269.988281 C 138.457031 269.988281 139.242188 269.726562 139.761719 268.945312 C 142.371094 265.289062 145.503906 257.984375 142.632812 250.9375 C 143.9375 248.585938 147.59375 243.628906 146.808594 237.625 Z M 91.480469 133.75 C 91.480469 131.140625 93.046875 107.910156 106.09375 107.652344 L 106.617188 107.652344 C 112.359375 107.652344 116.273438 110.523438 118.621094 112.871094 C 126.972656 121.222656 125.667969 130.617188 123.320312 130.878906 C 122.277344 130.878906 121.230469 131.664062 120.972656 132.707031 C 118.882812 139.753906 115.492188 135.578125 114.445312 148.367188 C 112.878906 148.625 110.269531 147.582031 108.964844 150.453125 L 108.445312 150.453125 C 107.136719 150.453125 105.832031 151.757812 106.09375 153.0625 L 106.09375 153.585938 C 105.050781 155.152344 103.222656 155.152344 101.398438 154.367188 L 88.609375 141.578125 C 86 139.230469 91.480469 136.097656 91.480469 133.75 Z M 35.367188 262.941406 C 35.367188 262.160156 36.410156 260.59375 38.757812 258.765625 C 42.933594 255.632812 46.847656 250.9375 51.808594 250.9375 C 50.503906 255.113281 49.980469 260.332031 52.070312 264.246094 L 36.410156 264.246094 C 35.886719 263.984375 35.367188 263.464844 35.367188 262.941406 Z M 136.109375 264.507812 C 58.855469 263.203125 57.550781 267.640625 55.984375 260.332031 C 54.941406 254.851562 58.070312 247.28125 60.683594 245.976562 C 75.296875 242.585938 81.5625 250.152344 100.875 250.152344 C 101.136719 250.152344 101.398438 250.152344 101.65625 250.152344 C 102.960938 250.152344 104.269531 248.847656 104.269531 247.542969 C 104.269531 246.238281 102.960938 245.195312 101.65625 244.933594 C 92.523438 245.195312 81.824219 242.324219 75.296875 240.496094 C 75.296875 240.496094 75.035156 240.496094 75.035156 240.496094 C 74.777344 240.496094 74.515625 240.496094 74.253906 240.234375 C 72.949219 239.714844 71.644531 239.453125 70.859375 239.191406 C 57.8125 211.789062 61.203125 196.910156 65.378906 179.945312 C 67.207031 172.378906 69.816406 155.671875 83.910156 145.496094 L 99.570312 160.371094 C 99.570312 162.71875 99.570312 168.203125 99.570312 172.898438 C 95.914062 164.546875 95.65625 160.894531 92.523438 161.9375 C 91.21875 162.460938 90.433594 163.765625 90.957031 165.070312 C 91.480469 166.636719 105.050781 204.742188 130.367188 224.054688 L 125.148438 233.1875 C 117.839844 227.707031 93.566406 208.132812 83.648438 181.25 C 82.605469 178.117188 77.644531 179.945312 78.953125 183.078125 C 90.957031 215.703125 122.015625 237.363281 124.363281 238.929688 L 125.410156 239.714844 C 128.800781 242.585938 131.933594 245.457031 134.542969 248.066406 C 141.066406 254.328125 137.675781 261.636719 136.109375 264.507812 Z M 138.195312 244.152344 C 135.585938 241.539062 132.453125 238.929688 129.324219 236.058594 L 134.28125 228.230469 C 137.152344 230.578125 141.328125 234.753906 141.851562 238.148438 C 142.371094 241.28125 140.808594 243.890625 139.761719 245.457031 C 138.980469 245.195312 138.71875 244.671875 138.195312 244.152344 Z M 138.195312 244.152344 " fill-opacity="1" fill-rule="nonzero"/></g></svg>