<svg xmlns="http://www.w3.org/2000/svg" xmlns:xlink="http://www.w3.org/1999/xlink" width="400" zoomAndPan="magnify" viewBox="0 0 300 299.999988" height="400" preserveAspectRatio="xMidYMid meet" version="1.0"><defs><clipPath id="245f40e722"><path d="M 30 87 L 270 87 L 270 213.75 L 30 213.75 Z M 30 87 " clip-rule="nonzero"/></clipPath></defs><g clip-path="url(#245f40e722)"><path fill="currentColor" d="M 267.898438 209.949219 L 261.445312 209.949219 L 258.863281 203.804688 L 263.910156 203.804688 C 264.960938 203.804688 265.8125 202.953125 265.8125 201.902344 C 265.8125 200.855469 264.960938 200.003906 263.910156 200.003906 L 257.265625 200.003906 L 255.238281 195.171875 L 260.054688 195.171875 C 261.101562 195.171875 261.953125 194.320312 261.953125 193.269531 C 261.953125 192.21875 261.101562 191.367188 260.054688 191.367188 L 253.640625 191.367188 L 251.726562 186.820312 L 256.324219 186.820312 C 257.375 186.820312 258.226562 185.96875 258.226562 184.917969 C 258.226562 183.867188 257.375 183.015625 256.324219 183.015625 L 250.128906 183.015625 L 248.140625 178.277344 L 252.835938 178.277344 C 253.886719 178.277344 254.738281 177.425781 254.738281 176.375 C 254.738281 175.324219 253.886719 174.472656 252.835938 174.472656 L 246.542969 174.472656 L 245.027344 170.867188 L 249.589844 170.867188 C 250.640625 170.867188 251.492188 170.015625 251.492188 168.964844 C 251.492188 167.914062 250.640625 167.0625 249.589844 167.0625 L 242.171875 167.0625 C 242.167969 167.0625 242.167969 167.0625 242.164062 167.0625 L 238.519531 167.0625 C 238.414062 158.042969 232.894531 149.273438 225.308594 146.519531 C 221.671875 145.203125 216.917969 144.691406 211.179688 144.996094 C 211.152344 144.996094 211.128906 144.996094 211.101562 144.996094 C 209.257812 145.097656 207.597656 145.265625 206.253906 145.4375 C 207.035156 142.363281 206.902344 139.265625 205.832031 136.472656 C 203.265625 129.753906 174 102.792969 148.992188 92.101562 C 137.730469 87.289062 128.628906 86.273438 121.941406 89.085938 C 102.59375 97.222656 99.371094 129.742188 98.976562 145.585938 C 96.855469 145.40625 93.746094 145.554688 91.425781 147.433594 C 90.769531 147.964844 90.203125 148.59375 89.71875 149.292969 L 72.097656 150.1875 C 69.402344 150.328125 66.980469 151.6875 65.453125 153.917969 C 64.023438 156.011719 63.59375 158.566406 64.25 160.992188 L 63.3125 167.0625 L 57.835938 167.0625 C 57.832031 167.0625 57.832031 167.0625 57.828125 167.0625 L 50.160156 167.0625 C 49.109375 167.0625 48.257812 167.914062 48.257812 168.964844 C 48.257812 170.015625 49.109375 170.867188 50.160156 170.867188 L 54.972656 170.867188 L 53.457031 174.472656 L 46.910156 174.472656 C 45.859375 174.472656 45.011719 175.324219 45.011719 176.375 C 45.011719 177.425781 45.859375 178.277344 46.910156 178.277344 L 51.859375 178.277344 L 49.871094 183.015625 L 43.421875 183.015625 C 42.371094 183.015625 41.519531 183.867188 41.519531 184.917969 C 41.519531 185.96875 42.371094 186.820312 43.421875 186.820312 L 48.273438 186.820312 L 46.359375 191.367188 L 39.820312 191.367188 C 38.769531 191.367188 37.917969 192.21875 37.917969 193.269531 C 37.917969 194.320312 38.769531 195.171875 39.820312 195.171875 L 44.761719 195.171875 L 42.734375 200.003906 L 36.089844 200.003906 C 35.042969 200.003906 34.191406 200.855469 34.191406 201.902344 C 34.191406 202.953125 35.042969 203.804688 36.089844 203.804688 L 41.136719 203.804688 L 38.554688 209.949219 L 32.101562 209.949219 C 31.054688 209.949219 30.203125 210.796875 30.203125 211.847656 C 30.203125 212.898438 31.054688 213.75 32.101562 213.75 L 39.8125 213.75 C 39.816406 213.75 39.816406 213.75 39.816406 213.75 C 39.820312 213.75 39.824219 213.75 39.824219 213.75 L 260.175781 213.75 C 260.179688 213.75 260.179688 213.75 260.183594 213.75 C 260.183594 213.75 260.183594 213.75 260.1875 213.75 L 267.898438 213.75 C 268.945312 213.75 269.796875 212.898438 269.796875 211.847656 C 269.796875 210.796875 268.945312 209.949219 267.898438 209.949219 Z M 208.390625 149.023438 C 207.007812 153.058594 206.144531 157.128906 205.839844 161.179688 C 204.390625 161.183594 202.914062 161.617188 201.582031 162.453125 C 199.347656 161.476562 197.644531 159.933594 196.425781 157.777344 C 199.894531 155.921875 202.808594 153.011719 204.671875 149.507812 C 205.5 149.375 206.800781 149.183594 208.390625 149.023438 Z M 69.554688 184.28125 C 68.289062 184.28125 67.089844 183.730469 66.265625 182.769531 C 65.441406 181.808594 65.082031 180.542969 65.273438 179.292969 L 66.867188 168.96875 L 71.914062 184.28125 Z M 153.683594 171.132812 C 146.984375 161.535156 144.207031 153.730469 145.660156 148.566406 C 146.417969 145.867188 147.988281 143.710938 150.464844 141.964844 C 160.375 134.96875 180.441406 137.898438 180.644531 137.925781 C 181.683594 138.085938 182.652344 137.371094 182.808594 136.332031 C 182.964844 135.292969 182.25 134.324219 181.214844 134.167969 C 180.367188 134.039062 161.175781 131.234375 149.746094 137.910156 C 147.988281 135.71875 144.417969 130.8125 142.800781 125.265625 C 140.871094 118.625 141.628906 110.824219 141.910156 108.589844 C 141.933594 108.378906 141.9375 108.253906 141.9375 108.238281 C 141.9375 107.1875 141.085938 106.335938 140.035156 106.335938 C 139.046875 106.335938 138.234375 107.089844 138.144531 108.058594 L 138.132812 108.121094 C 137.9375 109.695312 137.523438 113.832031 137.847656 118.554688 C 135.777344 115.347656 134.074219 111.878906 132.769531 108.179688 C 132.417969 107.1875 131.332031 106.671875 130.34375 107.019531 C 129.351562 107.367188 128.832031 108.453125 129.183594 109.445312 C 131.460938 115.910156 134.859375 121.722656 139.277344 126.742188 C 141.097656 132.660156 144.714844 137.714844 146.660156 140.148438 C 144.382812 142.183594 142.808594 144.652344 142 147.535156 C 140.234375 153.8125 142.988281 162.292969 150.175781 172.742188 C 149.980469 174.828125 149.0625 181.746094 145.285156 185.980469 C 142.527344 189.078125 136.644531 191.222656 130.175781 191.53125 C 118.414062 182.660156 110.007812 172.667969 104.507812 160.996094 C 104.0625 160.046875 102.929688 159.640625 101.980469 160.089844 C 101.027344 160.535156 100.621094 161.667969 101.070312 162.617188 C 106.148438 173.398438 113.566406 182.796875 123.644531 191.207031 C 121.574219 190.894531 119.574219 190.382812 117.707031 189.679688 C 116.445312 189.203125 115.050781 188.386719 113.558594 187.257812 C 104.007812 180.007812 94.019531 162.464844 93.917969 162.289062 C 93.402344 161.375 92.242188 161.054688 91.328125 161.570312 C 90.414062 162.085938 90.089844 163.246094 90.609375 164.160156 C 90.984375 164.820312 98.878906 178.6875 107.738281 187.234375 L 84.480469 189.0625 C 81.3125 189.308594 78.25 187.8125 76.507812 185.140625 C 76.101562 184.519531 75.773438 183.835938 75.535156 183.113281 L 68 160.261719 C 67.527344 158.835938 67.742188 157.304688 68.59375 156.0625 C 69.441406 154.820312 70.792969 154.0625 72.292969 153.984375 L 88.09375 153.183594 C 87.832031 154.4375 87.847656 155.378906 87.851562 155.542969 C 87.886719 156.570312 88.730469 157.382812 89.753906 157.382812 C 89.773438 157.382812 89.792969 157.382812 89.816406 157.382812 C 90.863281 157.347656 91.6875 156.46875 91.652344 155.417969 C 91.652344 155.402344 91.625 153.695312 92.476562 152.058594 C 92.484375 152.042969 92.492188 152.03125 92.5 152.019531 C 92.835938 151.375 93.28125 150.824219 93.820312 150.386719 C 95.152344 149.308594 97.359375 149.246094 98.929688 149.410156 C 98.933594 151.726562 98.992188 153.09375 98.996094 153.164062 C 99.042969 154.210938 99.929688 155.023438 100.980469 154.976562 C 102.03125 154.925781 102.84375 154.039062 102.796875 152.988281 C 102.792969 152.96875 102.707031 151 102.742188 147.824219 C 102.808594 141.539062 103.367188 129.285156 106.363281 117.804688 C 109.878906 104.355469 115.613281 95.871094 123.414062 92.589844 C 129.117188 90.191406 137.21875 91.203125 147.496094 95.597656 C 172.382812 106.238281 200.238281 132.484375 202.277344 137.828125 C 203.34375 140.617188 203.132812 143.875 201.675781 146.996094 C 199.992188 150.601562 196.8125 153.632812 193.164062 155.113281 C 191.75 155.691406 189.828125 156.074219 187.453125 156.257812 C 180.621094 156.78125 172.195312 155.464844 170.03125 155.097656 C 165.757812 151.175781 162.046875 149.460938 161.882812 149.390625 C 160.929688 148.957031 159.804688 149.378906 159.371094 150.332031 C 158.933594 151.285156 159.355469 152.414062 160.308594 152.851562 C 160.34375 152.867188 163.890625 154.515625 167.851562 158.253906 C 169.402344 159.722656 170.828125 161.328125 172.085938 163.03125 C 173.78125 165.328125 175.871094 168.976562 178.296875 173.875 C 178.527344 174.335938 178.753906 174.800781 178.980469 175.265625 C 179.570312 176.484375 180.171875 177.816406 180.820312 179.347656 C 182.535156 183.390625 183.949219 187.398438 184.683594 189.570312 L 173.839844 194.035156 C 170.875 191.230469 160.988281 181.589844 153.683594 171.132812 Z M 208.34375 200.878906 C 208.042969 201.179688 207.640625 201.347656 207.210938 201.347656 L 179.070312 201.347656 C 177.414062 201.347656 176.015625 200.160156 175.742188 198.53125 L 175.558594 197.441406 L 187.480469 192.53125 C 188.816406 192.453125 194.667969 192.222656 198.953125 193.765625 C 202.332031 194.984375 206.101562 197.183594 208.050781 198.390625 C 208.527344 198.679688 208.8125 199.191406 208.8125 199.75 C 208.8125 200.175781 208.644531 200.578125 208.34375 200.878906 Z M 184.117188 177.378906 C 183.519531 175.992188 182.957031 174.746094 182.402344 173.605469 C 182.257812 173.308594 182.113281 173.015625 181.96875 172.71875 C 182.6875 168.574219 186.597656 162.65625 188.601562 159.972656 C 190.203125 159.8125 191.628906 159.554688 192.875 159.210938 C 194.273438 161.863281 196.238281 163.894531 198.746094 165.289062 C 197.929688 166.613281 197.515625 168.113281 197.597656 169.597656 C 197.660156 170.648438 198.566406 171.445312 199.605469 171.390625 C 200.652344 171.332031 201.457031 170.433594 201.398438 169.386719 C 201.332031 168.234375 201.96875 166.960938 203.054688 166.066406 C 204.257812 165.078125 205.78125 164.726562 206.9375 165.179688 C 207.296875 165.316406 207.597656 165.53125 207.828125 165.8125 C 208.742188 166.925781 208.320312 168.914062 206.882812 170.246094 C 206.542969 170.558594 206.332031 170.984375 206.28125 171.445312 C 205.992188 174.226562 207.9375 179.859375 209.46875 183.449219 C 198.921875 183.050781 188.707031 180.632812 184.117188 177.378906 Z M 234.664062 168.816406 C 234.589844 169.757812 234.4375 170.675781 234.210938 171.546875 C 232.386719 178.550781 228.144531 183.269531 213.636719 183.5 C 212.402344 180.972656 210.21875 175.046875 210.058594 172.429688 C 212.46875 169.71875 212.816406 165.890625 210.761719 163.394531 C 210.417969 162.976562 210.023438 162.617188 209.585938 162.316406 C 209.835938 157.804688 210.828125 153.253906 212.535156 148.742188 C 217.1875 148.589844 221.136719 149.054688 224.011719 150.09375 C 230.53125 152.464844 235.308594 160.859375 234.664062 168.816406 Z M 234.664062 168.816406 " fill-opacity="1" fill-rule="nonzero"/></g></svg>