<svg xmlns="http://www.w3.org/2000/svg" xmlns:xlink="http://www.w3.org/1999/xlink" width="400" zoomAndPan="magnify" viewBox="0 0 300 299.999988" height="400" preserveAspectRatio="xMidYMid meet" version="1.0"><defs><clipPath id="18a7666410"><path d="M 152 30 L 228 30 L 228 108 L 152 108 Z M 152 30 " clip-rule="nonzero"/></clipPath><clipPath id="fa44a1dbbb"><path d="M 49.351562 30 L 250 30 L 250 270 L 49.351562 270 Z M 49.351562 30 " clip-rule="nonzero"/></clipPath></defs><g clip-path="url(#18a7666410)"><path fill="currentColor" d="M 191.828125 107.054688 C 206.429688 107.054688 219.792969 99.257812 226.703125 86.707031 C 227.707031 84.882812 227.253906 82.597656 225.625 81.292969 C 223.992188 79.992188 221.671875 80.050781 220.109375 81.429688 C 204.140625 96.089844 176.363281 84.625 176.617188 62.949219 C 176.617188 51.402344 184.726562 41.402344 196.347656 38.628906 C 198.378906 38.140625 199.769531 36.253906 199.628906 34.167969 C 199.371094 30.144531 194.996094 29.882812 191.828125 30 C 139.335938 32.128906 139.339844 104.929688 191.828125 107.054688 Z M 174.003906 44.03125 C 158.320312 65.945312 175.417969 96.984375 202.597656 96.609375 C 199.351562 97.808594 195.535156 98.484375 191.828125 98.480469 C 161.878906 98.585938 149.398438 60.613281 174.003906 44.03125 Z M 174.003906 44.03125 " fill-opacity="1" fill-rule="nonzero"/></g><path fill="currentColor" d="M 196.113281 47.703125 L 192.839844 54.144531 L 185.464844 55.183594 C 183.835938 55.414062 182.480469 56.554688 181.980469 58.125 C 181.480469 59.691406 181.925781 61.410156 183.117188 62.539062 L 188.378906 67.515625 C 187.976562 71.550781 185.558594 76.429688 188.8125 78.699219 C 190.125 79.664062 191.863281 79.808594 193.3125 79.070312 L 199.933594 75.6875 L 206.554688 79.070312 C 209.550781 80.726562 213.4375 77.871094 212.722656 74.507812 C 212.722656 74.507812 211.488281 67.515625 211.488281 67.515625 L 216.75 62.539062 C 219.351562 60.230469 217.867188 55.554688 214.402344 55.183594 C 214.402344 55.183594 207.027344 54.144531 207.027344 54.144531 L 203.753906 47.703125 C 202.289062 44.828125 197.578125 44.828125 196.113281 47.703125 Z M 199.46875 60.015625 L 199.933594 59.101562 C 200.582031 60.699219 201.824219 62.117188 203.621094 62.320312 C 203.621094 62.320312 204.394531 62.425781 204.394531 62.425781 C 203.105469 63.460938 202.328125 65.070312 202.648438 66.730469 C 202.648438 66.730469 202.789062 67.523438 202.789062 67.523438 C 201.929688 67.054688 200.921875 66.550781 199.933594 66.59375 C 198.945312 66.550781 197.9375 67.054688 197.078125 67.523438 C 197.078125 67.523438 197.21875 66.730469 197.21875 66.730469 C 197.539062 65.070312 196.761719 63.460938 195.472656 62.425781 C 197.121094 62.332031 198.722656 61.550781 199.46875 60.015625 Z M 199.46875 60.015625 " fill-opacity="1" fill-rule="nonzero"/><g clip-path="url(#fa44a1dbbb)"><path fill="currentColor" d="M 249.054688 264.242188 C 249.054688 264.242188 232.867188 219.925781 232.867188 219.925781 C 232.246094 218.238281 230.640625 217.113281 228.839844 217.113281 L 123.183594 217.113281 C 123.273438 205.398438 123.292969 168.1875 120.382812 135.75 C 124.867188 134.710938 127.726562 129.695312 126.292969 125.316406 C 126.292969 125.316406 124.148438 118.285156 124.148438 118.285156 C 123.199219 115.160156 120.578125 113.015625 117.535156 112.511719 C 115.753906 101.214844 113.511719 92.667969 110.746094 86.839844 C 118.875 85.195312 125.007812 78.058594 125.007812 69.523438 L 125.007812 45.363281 C 125.007812 36.894531 118.058594 30 109.515625 30 C 109.515625 30 96.128906 30 96.128906 30 C 87.589844 30 80.636719 36.894531 80.636719 45.363281 L 80.636719 60.90625 C 80.636719 65.4375 81.804688 69.707031 83.851562 73.433594 C 69.40625 76.617188 61.097656 91.019531 61.03125 106.324219 C 61.03125 127.496094 56.414062 219.636719 56.367188 220.5625 C 56.289062 222.089844 57.03125 223.539062 58.3125 224.371094 C 58.453125 224.464844 61.089844 226.148438 65.5625 227.972656 L 50.167969 264.03125 C 49.601562 265.355469 49.738281 266.875 50.53125 268.078125 C 51.324219 269.277344 52.667969 270 54.109375 270 L 245.03125 270 C 247.898438 270.066406 250.136719 266.9375 249.054688 264.242188 Z M 107.179688 78.625 C 97.273438 78.625 89.210938 70.675781 89.210938 60.90625 L 89.210938 52.113281 L 116.4375 52.113281 L 116.4375 69.523438 C 116.4375 74.542969 112.285156 78.625 107.179688 78.625 Z M 96.128906 38.570312 L 109.515625 38.570312 C 112.683594 38.570312 115.335938 40.683594 116.152344 43.542969 L 89.496094 43.542969 C 90.3125 40.683594 92.960938 38.570312 96.128906 38.570312 Z M 69.601562 106.324219 C 70.003906 93.34375 76.800781 80.171875 91.144531 81.804688 C 93.859375 83.855469 96.980469 85.390625 100.367188 86.285156 C 102.292969 88.1875 106.035156 94.332031 109.105469 113.914062 L 102.238281 115.660156 L 95.480469 97.425781 C 93.433594 92.191406 85.574219 95.074219 87.445312 100.402344 C 87.445312 100.398438 95.539062 122.25 95.539062 122.25 C 96.300781 124.308594 98.484375 125.460938 100.613281 124.917969 C 100.613281 124.917969 115.328125 121.195312 115.972656 120.84375 C 115.972656 120.84375 118.265625 127.460938 118.265625 127.460938 C 118.207031 127.472656 96.777344 132.550781 96.777344 132.550781 C 94.082031 133.195312 91.230469 131.878906 90.019531 129.425781 L 80.984375 111.167969 C 78.414062 106.167969 70.886719 109.871094 73.300781 114.96875 C 73.300781 114.96875 82.335938 133.226562 82.335938 133.226562 C 85.332031 139.359375 92.273438 142.472656 98.753906 140.894531 C 98.753906 140.894531 111.945312 137.765625 111.945312 137.765625 C 114.8125 170.664062 114.695312 208.191406 114.605469 218.167969 C 101.140625 224.878906 86.75 225.992188 72.601562 221.421875 C 69.296875 220.359375 66.714844 219.183594 65.0625 218.339844 C 65.835938 202.71875 69.601562 125.925781 69.601562 106.324219 Z M 92.675781 240.007812 C 93.007812 242.039062 94.734375 243.550781 96.792969 243.609375 C 97.957031 243.640625 101.152344 243.730469 103.195312 247.445312 L 87.847656 247.445312 C 86.664062 247.445312 85.699219 246.480469 85.699219 245.296875 L 85.699219 232.605469 C 87.636719 232.734375 89.566406 232.804688 91.5 232.699219 C 91.5 232.699219 92.675781 240.007812 92.675781 240.007812 Z M 60.597656 261.429688 C 60.597656 261.429688 73.75 230.628906 73.75 230.628906 C 74.886719 230.925781 76.023438 231.191406 77.128906 231.421875 L 77.128906 245.296875 C 77.128906 251.207031 81.9375 256.015625 87.847656 256.015625 L 105.695312 256.015625 C 119.546875 254.175781 109.476562 236.457031 100.632812 235.503906 C 100.632812 235.503906 100.046875 231.867188 100.046875 231.867188 C 106.460938 230.875 112.714844 228.53125 118.855469 225.683594 C 118.855469 225.683594 225.84375 225.683594 225.84375 225.683594 L 238.902344 261.429688 Z M 60.597656 261.429688 " fill-opacity="1" fill-rule="nonzero"/></g></svg>