<svg xmlns="http://www.w3.org/2000/svg" xmlns:xlink="http://www.w3.org/1999/xlink" width="400" zoomAndPan="magnify" viewBox="0 0 300 299.999988" height="400" preserveAspectRatio="xMidYMid meet" version="1.0"><defs><clipPath id="6ead2cfdb6"><path d="M 30 38 L 267 38 L 267 263.851562 L 30 263.851562 Z M 30 38 " clip-rule="nonzero"/></clipPath></defs><g clip-path="url(#6ead2cfdb6)"><path fill="#a9a0f0" d="M 81.28125 233.175781 C 80.851562 232.382812 80.496094 231.558594 80.257812 230.722656 C 67.765625 241.234375 54.582031 251.027344 39.210938 256.882812 C 38.578125 257.121094 37.996094 256.523438 37.964844 255.929688 C 36.792969 254.296875 35.632812 252.664062 34.453125 251.027344 C 34.097656 252.097656 34.089844 253.320312 34.601562 254.742188 C 35.300781 256.699219 36.085938 258.324219 37.457031 259.730469 C 47.636719 255.960938 56.660156 252.34375 65.339844 245.554688 C 70.546875 241.480469 75.585938 236.632812 81.28125 233.175781 Z M 81.488281 222.03125 C 82.199219 220.832031 85.261719 216.921875 83.589844 216.035156 C 74.238281 222.910156 64.542969 229.273438 55.050781 235.933594 C 50.226562 239.3125 45.289062 242.953125 40.09375 245.777344 C 38.578125 246.585938 37.039062 247.539062 35.902344 248.710938 C 37.53125 249.527344 38.972656 250.695312 39.457031 252.589844 C 40.210938 255.644531 41.011719 254.257812 44.519531 252.589844 C 47.183594 251.335938 49.832031 250.035156 52.378906 248.539062 C 62.230469 242.78125 71.214844 235.824219 79.914062 228.464844 C 79.898438 228.390625 79.898438 228.335938 79.882812 228.265625 C 79.859375 225.917969 80.289062 224.039062 81.488281 222.03125 Z M 135.230469 198.742188 C 136.539062 197.816406 137.570312 196.730469 138.457031 195.570312 C 134.414062 198.855469 130.011719 199.941406 125.53125 202.550781 C 118.328125 206.746094 115.796875 213.6875 112.738281 221.0625 C 109.214844 229.589844 102.625 238.109375 92.289062 235.617188 C 89.101562 234.847656 91.804688 230.492188 88.710938 228.953125 C 86.007812 227.589844 84.832031 226.328125 84.382812 224.355469 C 84.214844 224.773438 84.097656 225.210938 84.007812 225.65625 C 82.929688 231.539062 87.753906 235.269531 91.582031 238.820312 C 92.273438 239.457031 92.972656 240.1875 93.707031 240.933594 C 100.703125 239.15625 108.96875 234.65625 112.457031 228.265625 C 115.949219 221.871094 116.941406 214.328125 121.183594 208.253906 C 122.753906 206.015625 124.441406 203.414062 127.011719 202.226562 C 129.621094 201.011719 132.898438 200.410156 135.230469 198.742188 Z M 137.539062 153.203125 C 137.625 152.710938 137.6875 152.210938 137.761719 151.71875 C 131.667969 163.609375 123.117188 174.0625 113.632812 183.4375 C 108.335938 188.648438 102.417969 193.28125 97.46875 198.847656 C 93.566406 203.203125 87.925781 206.960938 84.714844 212.019531 C 86.800781 212.242188 88.679688 213.101562 88.472656 215.605469 C 88.417969 216.195312 88.285156 216.742188 88.125 217.265625 C 91.511719 217.914062 95.105469 219.929688 97.167969 215.972656 C 98.070312 214.25 98.839844 212.371094 100.09375 210.855469 C 106.097656 203.621094 112.117188 196.394531 117.726562 188.84375 C 122.769531 182.082031 127.910156 175.164062 131.867188 167.699219 C 134.269531 163.15625 136.679688 158.308594 137.539062 153.203125 Z M 160.453125 123.902344 C 161.078125 121.714844 158.691406 116.445312 157.136719 120.007812 C 156.738281 120.90625 156.421875 121.824219 156.191406 122.777344 C 155.390625 126.195312 155.203125 129.660156 154.679688 133.117188 C 153.527344 140.804688 151.457031 148.433594 148.617188 155.660156 C 145.691406 163.101562 141.394531 169.800781 138.625 177.34375 C 136.523438 183.078125 134.460938 190.035156 130.367188 194.722656 C 126.601562 199.003906 120.453125 199.210938 116.640625 203.1875 C 110.585938 209.523438 109.199219 219.160156 102.417969 225.003906 C 95.953125 230.550781 91.148438 224.625 86.707031 220.199219 C 86.515625 220.515625 86.332031 220.832031 86.140625 221.140625 C 86.292969 224.511719 88.132812 226.3125 90.910156 227.996094 C 91.464844 228.320312 92.066406 228.9375 92.273438 229.574219 C 92.613281 230.589844 92.898438 231.3125 92.703125 232.40625 C 91.867188 237.226562 104.128906 231.097656 104.933594 230.253906 C 111.816406 223.03125 112.085938 211.609375 119.34375 204.730469 C 125.523438 198.886719 134.332031 198.0625 139.949219 191.351562 C 140.765625 190.375 141.542969 189.359375 142.273438 188.3125 C 143.136719 186.285156 143.988281 184.253906 145.144531 182.34375 C 147.285156 178.796875 149.277344 175.101562 151.070312 171.300781 C 151.789062 169.5625 152.496094 167.828125 153.210938 166.089844 C 153.273438 165.933594 153.363281 165.804688 153.480469 165.710938 C 154.488281 163.210938 155.390625 160.664062 156.144531 158.101562 C 158.667969 149.539062 157.738281 140.898438 158.675781 132.160156 C 158.992188 129.234375 159.644531 126.703125 160.453125 123.902344 Z M 161.617188 195.046875 C 161.601562 194.652344 161.585938 194.238281 161.578125 193.867188 C 161.453125 193.207031 161.355469 192.566406 161.277344 191.953125 L 161.277344 191.9375 C 161.183594 191.742188 161.078125 191.535156 160.976562 191.328125 C 158.46875 186.648438 155.234375 179.722656 155.726562 174.300781 C 155.789062 173.640625 155.898438 173.007812 156.027344 172.402344 C 153.835938 174.972656 151.449219 177.433594 149.476562 180.097656 C 147.832031 183.625 145.953125 187.03125 143.652344 190.058594 C 141.628906 194.851562 139.394531 198.761719 134.570312 201.296875 C 129.898438 203.765625 125.925781 204.199219 122.886719 209.238281 C 120.675781 212.886719 118.953125 216.714844 117.582031 220.761719 C 113.878906 231.691406 106.4375 239.433594 95.320312 242.535156 C 97.484375 244.589844 99.894531 246.347656 102.78125 246.214844 C 104.433594 246.140625 106.058594 245.800781 107.636719 245.292969 C 111.445312 242.875 114.75 239.378906 116.589844 235.539062 C 118.929688 230.675781 119.257812 224.816406 122.046875 220.191406 C 123.148438 218.34375 124.933594 216.558594 125.910156 214.679688 C 126.972656 212.679688 127.480469 209.847656 128.820312 207.953125 C 130.503906 205.605469 132.597656 204.105469 134.839844 202.496094 C 135.429688 201.925781 136.070312 201.3125 136.746094 200.6875 C 137.425781 200.125 138.140625 199.539062 138.878906 198.925781 C 139.710938 198.269531 140.425781 197.777344 141.210938 197.109375 C 144.320312 194.613281 146.898438 192.082031 148.507812 190.082031 C 150.078125 188.195312 150.792969 186.53125 151.109375 186.695312 C 151.316406 186.808594 151.265625 188.441406 149.792969 190.972656 C 148.394531 193.375 145.828125 196.222656 142.597656 198.832031 C 141.828125 199.488281 140.910156 200.109375 140.21875 200.617188 C 139.449219 201.195312 138.710938 201.757812 138 202.28125 C 137.949219 202.320312 137.910156 202.359375 137.855469 202.394531 C 138.324219 207.269531 147.230469 201.519531 149.792969 200.78125 C 153.082031 199.824219 160.507812 198.871094 161.617188 195.046875 Z M 161.601562 62.070312 C 162.070312 61.957031 164.59375 61.710938 161.917969 60.703125 C 160.476562 60.15625 159.699219 59.4375 159.351562 58.601562 C 157.828125 60.054688 156.34375 61.59375 154.890625 63.210938 C 156.042969 63.964844 157.058594 64.828125 158 65.757812 C 158.351562 64.933594 158.859375 64.171875 159.609375 63.527344 C 160.152344 63.042969 160.847656 62.257812 161.601562 62.070312 Z M 154.84375 80.3125 C 157.890625 83.414062 164.070312 84.933594 163.601562 79.714844 C 160.054688 74.832031 157.375 69.246094 152.054688 66.058594 C 151.773438 66.152344 151.472656 66.152344 151.195312 66.066406 C 151.070312 66.121094 150.910156 66.175781 150.753906 66.195312 C 142.804688 67.660156 138.496094 72.777344 134.53125 78.652344 C 134.699219 78.8125 134.871094 78.988281 135.023438 79.226562 C 138.171875 83.824219 142.898438 76.84375 146.167969 75.027344 C 147.777344 74.125 151.132812 74.101562 152.21875 75.949219 C 153.195312 77.613281 153.273438 78.71875 154.84375 80.3125 Z M 166.210938 82.90625 C 165.972656 82.660156 165.742188 82.414062 165.519531 82.152344 C 165.195312 84.175781 164.085938 85.941406 161.523438 86.355469 C 157.515625 87.011719 152.726562 82.421875 150.855469 79.214844 C 146.539062 71.839844 141.757812 83.976562 137.179688 83.617188 C 136.917969 83.601562 136.679688 83.546875 136.46875 83.5 C 135.023438 83.824219 134.007812 84.140625 134.882812 85.0625 C 135.40625 85.46875 136.386719 85.703125 137.230469 86.261719 C 137.640625 86.554688 138.078125 86.785156 138.402344 87.101562 C 138.734375 87.425781 139.070312 87.742188 139.355469 88.058594 C 140.496094 89.371094 141.234375 90.628906 141.933594 91.621094 C 142.636719 92.605469 143.160156 93.289062 143.667969 93.785156 C 144.175781 94.253906 144.421875 94.570312 144.359375 94.660156 C 144.289062 94.761719 143.914062 94.644531 143.289062 94.34375 C 142.675781 94.046875 141.789062 93.3125 140.949219 92.390625 C 140.101562 91.457031 139.226562 90.257812 138.171875 89.164062 C 137.894531 88.902344 137.609375 88.65625 137.324219 88.394531 C 137.03125 88.132812 136.679688 87.988281 136.371094 87.75 C 135.746094 87.324219 134.839844 87.195312 133.835938 86.488281 C 133.589844 86.300781 133.328125 86.054688 133.113281 85.730469 C 132.9375 85.386719 132.804688 84.945312 132.84375 84.578125 C 132.859375 84.199219 132.976562 83.894531 133.089844 83.617188 C 133.199219 83.371094 133.214844 83.378906 133.277344 83.246094 C 133.351562 83.128906 133.507812 82.921875 133.636719 82.792969 C 133.914062 82.53125 134.214844 82.359375 134.5 82.230469 C 133.976562 81.699219 133.554688 81.160156 133 80.9375 C 132.035156 82.421875 131.050781 83.9375 130.011719 85.441406 C 130.167969 91.980469 137.507812 92.566406 140.386719 97.476562 C 143.175781 102.21875 144.136719 107.476562 144.683594 112.894531 C 145.828125 124.277344 144.984375 134.355469 140.972656 144.707031 C 139.824219 149.09375 139.789062 153.691406 138.269531 158.023438 C 136.722656 162.433594 134.816406 166.683594 132.414062 170.699219 C 127.625 178.75 122.136719 186.402344 116.378906 193.804688 C 110.429688 201.480469 103.878906 208.675781 98.863281 216.96875 C 95.296875 222.847656 93.082031 219.929688 88.1875 219.199219 C 90.15625 221.570312 92.113281 224.308594 94.921875 224.902344 C 98.878906 225.726562 101.910156 223.492188 104.089844 220.359375 C 107.167969 215.933594 109.152344 210.949219 111.917969 206.351562 C 114.648438 201.835938 117.75 199.847656 122.554688 197.707031 C 131.050781 193.921875 133.730469 184.992188 136.730469 176.820312 C 142.375 161.507812 151.226562 148.078125 152.917969 131.390625 C 153.234375 128.3125 153.679688 115.089844 159.351562 116.359375 C 162.554688 117.058594 163.625 119.960938 162.761719 122.984375 C 160.601562 130.507812 160.53125 137.671875 160.085938 145.4375 C 159.660156 152.972656 157.789062 159.640625 155.113281 166.535156 C 155.105469 166.558594 155.105469 166.589844 155.089844 166.613281 C 154.074219 169.082031 153.082031 171.667969 152.011719 174.265625 C 154.359375 171.625 156.699219 168.992188 158.335938 166.027344 C 160.886719 150.308594 167.398438 136.625 163.53125 120.261719 C 162.101562 114.25 159.953125 107.683594 160.832031 101.417969 C 161.171875 99.03125 161.902344 96.785156 162.71875 94.554688 C 162.347656 94.960938 161.984375 95.355469 161.617188 95.753906 C 158.675781 98.523438 158.390625 102.449219 157.691406 105.144531 C 157.359375 106.5 156.96875 107.621094 156.628906 108.339844 C 156.257812 109.03125 156.003906 109.394531 155.882812 109.347656 C 155.78125 109.308594 155.820312 108.863281 155.988281 108.109375 C 156.121094 107.34375 156.289062 106.292969 156.460938 104.921875 C 156.644531 103.558594 156.78125 101.902344 157.246094 100.046875 C 157.359375 99.578125 157.515625 99.109375 157.675781 98.625 C 157.90625 98.039062 158.039062 97.722656 158.328125 97.199219 C 158.898438 96.183594 159.578125 95.398438 160.308594 94.570312 C 161.015625 93.796875 161.714844 93.050781 162.386719 92.320312 L 162.847656 91.789062 L 163.039062 91.550781 L 163.25 91.25 C 163.515625 90.859375 163.777344 90.496094 164.035156 90.113281 C 164.28125 89.75 164.511719 89.394531 164.726562 89.042969 C 165.402344 87.0625 165.964844 85.039062 166.210938 82.90625 Z M 190.402344 198.253906 C 183.507812 198.480469 175.59375 201.679688 170.230469 195.984375 C 165.257812 190.695312 159.707031 181.367188 158.351562 172.992188 C 158 175.164062 158.105469 177.527344 158.84375 180.382812 C 160.039062 184.886719 162.492188 188.78125 163.832031 193.167969 C 164.132812 194.121094 164.070312 195.007812 163.777344 195.800781 C 163.792969 195.890625 163.792969 195.984375 163.808594 196.09375 C 163.832031 197.125 163.648438 198.085938 163.261719 199.003906 C 162.515625 200.839844 161.292969 202.171875 160.128906 203.234375 C 158.9375 204.289062 157.722656 205.035156 156.667969 205.542969 C 155.597656 206.066406 154.695312 206.351562 154.019531 206.46875 C 153.378906 206.574219 153.003906 206.523438 152.949219 206.390625 C 152.894531 206.230469 153.195312 206 153.734375 205.660156 C 154.242188 205.320312 154.996094 204.851562 155.875 204.214844 C 156.742188 203.574219 157.753906 202.757812 158.730469 201.757812 C 159.460938 200.988281 160.214844 200.085938 160.785156 199.078125 C 159.867188 199.664062 158.875 200.109375 157.984375 200.410156 C 155.113281 201.402344 151.996094 201.871094 149.1875 203.035156 C 146.785156 204.027344 144.421875 205.527344 141.867188 206.113281 C 138.972656 206.785156 136.941406 206.285156 136.199219 203.972656 C 132.605469 206.769531 130.257812 209.378906 128.496094 213.933594 C 128.042969 215.097656 127.347656 216.144531 126.5625 217.097656 C 122.382812 222.277344 121.539062 228.414062 119.257812 234.453125 C 118.273438 237.054688 116.695312 239.550781 114.75 241.765625 C 118.496094 239.367188 122.023438 236.425781 125.402344 234.148438 C 129.8125 231.167969 134.4375 228.898438 138.488281 225.371094 C 140.964844 223.230469 143.460938 220.839844 146.292969 219.128906 C 150.695312 216.464844 155.542969 214.925781 160.414062 213.3125 C 168.929688 210.484375 185.039062 207.046875 190.402344 198.253906 Z M 205.019531 49.871094 C 204.90625 50.042969 204.789062 50.195312 204.664062 50.363281 C 204.417969 50.71875 204.171875 51.058594 203.925781 51.410156 C 203.648438 51.789062 203.378906 52.195312 203.042969 52.535156 C 202.425781 53.25 201.65625 53.964844 200.878906 54.597656 C 200.625 54.789062 200.371094 54.984375 200.125 55.183594 C 199.863281 55.414062 199.460938 55.582031 199.132812 55.769531 C 198.792969 55.9375 198.414062 56.007812 198.0625 56.105469 C 197.714844 56.136719 197.363281 56.199219 197.03125 56.191406 C 195.738281 56.191406 194.753906 56.066406 194.183594 56.453125 L 194.175781 56.453125 C 194.175781 56.460938 194.175781 56.460938 194.175781 56.460938 C 194.136719 56.515625 194.097656 56.621094 194.050781 56.722656 C 193.96875 56.945312 193.875 57.191406 193.726562 57.453125 C 193.496094 58.015625 192.898438 58.539062 192.414062 58.652344 C 191.433594 58.992188 190.632812 58.894531 190.011719 58.839844 C 188.757812 58.667969 188.101562 58.484375 188.09375 58.332031 C 188.09375 58.160156 188.832031 58.039062 190.011719 57.945312 C 190.597656 57.882812 191.328125 57.824219 191.925781 57.507812 C 192.265625 57.351562 192.335938 57.183594 192.464844 56.867188 C 192.542969 56.699219 192.589844 56.476562 192.675781 56.230469 C 192.71875 56.097656 192.765625 55.96875 192.84375 55.78125 L 192.996094 55.507812 C 193.105469 55.375 193.242188 55.246094 193.40625 55.160156 C 193.953125 54.804688 194.621094 54.582031 195.214844 54.558594 C 195.867188 54.488281 196.429688 54.527344 196.984375 54.488281 C 197.253906 54.488281 197.492188 54.4375 197.746094 54.414062 C 197.96875 54.320312 198.222656 54.296875 198.414062 54.175781 C 198.625 54.035156 198.824219 53.996094 199.046875 53.796875 C 199.300781 53.605469 199.554688 53.40625 199.800781 53.210938 C 200.53125 52.597656 201.15625 52.027344 201.757812 51.371094 C 202.070312 51.074219 202.316406 50.734375 202.566406 50.417969 C 202.578125 50.402344 202.578125 50.402344 202.578125 50.402344 C 201.363281 50.566406 200.125 50.527344 198.863281 50.132812 C 193.929688 48.640625 188.757812 47.394531 183.5625 47.585938 C 187.109375 53.457031 183.414062 62.519531 178.386719 66.453125 C 179.695312 67.597656 180.652344 67.558594 181.273438 66.359375 C 181.511719 66.082031 181.742188 65.796875 181.992188 65.519531 C 182.753906 64.804688 183.207031 64.320312 184.175781 63.851562 C 186.523438 62.703125 188.925781 61.640625 191.433594 60.847656 C 194.136719 60 196.808594 59.515625 199.5625 58.878906 C 204.679688 57.691406 204.925781 53.957031 205.019531 49.871094 Z M 217.511719 55.066406 C 218.390625 53.550781 223.699219 43.984375 220.058594 42.992188 C 215.972656 44.082031 212.695312 46.539062 208.652344 48.339844 C 208.097656 48.585938 207.550781 48.824219 207.003906 49.0625 C 206.929688 52.636719 207.136719 55.273438 205.019531 57.921875 C 205.675781 57.652344 206.34375 57.359375 207.019531 57.039062 C 209.59375 55.796875 211.746094 54.320312 212.726562 52.859375 C 212.964844 52.496094 213.210938 52.164062 213.292969 51.867188 C 213.425781 51.566406 213.601562 51.289062 213.625 51.003906 C 213.742188 50.472656 213.863281 50.171875 213.980469 50.171875 C 214.109375 50.171875 214.210938 50.472656 214.300781 51.019531 C 214.378906 51.28125 214.332031 51.640625 214.25 52.089844 C 214.210938 52.558594 214.019531 52.988281 213.792969 53.488281 C 212.878906 55.484375 210.515625 57.308594 207.789062 58.632812 C 205.058594 59.925781 202.449219 60.570312 200.492188 60.832031 C 198.269531 61.417969 195.730469 61.539062 193.820312 62.15625 C 190.519531 63.195312 185.722656 64.140625 183.375 66.90625 C 182.714844 67.675781 182.042969 68.722656 181.160156 69.246094 C 179.082031 70.453125 177.203125 68.738281 175.648438 67.503906 C 175.609375 67.484375 175.59375 67.429688 175.554688 67.390625 C 172.976562 69.507812 170.792969 70.585938 170.566406 70.300781 C 170.261719 69.875 173.054688 67.503906 176.15625 64.519531 C 177.765625 62.988281 179.195312 61.640625 180.167969 60.617188 C 180.613281 60.132812 180.964844 59.722656 181.234375 59.4375 C 183.359375 55.582031 184.160156 51.132812 181.289062 47.753906 C 173.054688 48.726562 166.628906 52.21875 160.960938 57.152344 C 160.855469 57.699219 160.992188 58.183594 161.601562 58.460938 C 162.214844 58.746094 162.847656 58.96875 163.441406 59.269531 C 163.878906 59.101562 164.300781 58.953125 164.726562 58.929688 C 165.796875 58.816406 166.695312 58.9375 167.472656 58.929688 C 167.6875 58.9375 167.859375 58.914062 168.050781 58.902344 C 168.113281 58.929688 168.429688 58.847656 168.597656 58.824219 C 168.988281 58.746094 169.460938 58.707031 169.722656 58.578125 C 170.960938 58.183594 172.046875 57.308594 172.800781 56.476562 C 174.316406 54.734375 175.238281 53.488281 175.464844 53.660156 C 175.632812 53.773438 175.15625 55.167969 173.769531 57.261719 C 173.039062 58.292969 171.953125 59.476562 170.167969 60.132812 C 169.707031 60.347656 169.34375 60.363281 168.929688 60.46875 C 168.691406 60.515625 168.597656 60.570312 168.234375 60.601562 C 167.996094 60.625 167.75 60.664062 167.519531 60.65625 C 166.582031 60.695312 165.6875 60.585938 164.933594 60.679688 C 164.902344 60.679688 164.894531 60.679688 164.878906 60.695312 C 164.894531 60.703125 164.902344 60.730469 164.917969 60.753906 C 165.125 61.171875 165.386719 61.539062 165.496094 62.03125 C 165.558594 62.257812 165.632812 62.503906 165.679688 62.71875 L 165.75 63.273438 L 165.820312 63.835938 C 165.835938 64.097656 165.851562 64.257812 165.851562 64.464844 C 165.859375 65.949219 165.75 67.183594 165.820312 68.199219 C 165.851562 69.230469 166.027344 69.984375 166.25 70.46875 C 166.433594 70.898438 166.757812 71.183594 166.65625 71.277344 C 166.605469 71.332031 166.265625 71.371094 165.726562 70.847656 C 165.242188 70.359375 164.839844 69.453125 164.640625 68.34375 C 164.410156 67.242188 164.378906 65.898438 164.28125 64.542969 L 164.226562 64.089844 L 164.132812 63.535156 L 164.125 63.496094 C 163.910156 63.601562 163.695312 63.695312 163.488281 63.734375 C 161.371094 64.257812 160 65.496094 159.554688 67.445312 C 163.09375 71.632812 165.535156 76.757812 169.566406 80.769531 C 169.761719 80.96875 169.890625 81.160156 169.984375 81.367188 C 176.585938 82.261719 183.230469 84.800781 189.863281 84.476562 C 197.609375 84.070312 201.101562 77.78125 205.621094 72.441406 C 205.21875 71.730469 204.710938 71.109375 204.042969 70.609375 C 203.835938 70.40625 203.757812 70.113281 203.773438 69.84375 C 203.664062 69.890625 203.558594 69.929688 203.441406 69.976562 C 203.164062 70.054688 202.878906 70.144531 202.59375 70.222656 C 202.011719 70.375 201.410156 70.546875 200.792969 70.707031 C 199.59375 71.046875 198.300781 71.316406 196.96875 71.59375 C 195.582031 71.800781 194.222656 72.023438 192.996094 71.992188 C 191.742188 72.039062 190.503906 71.984375 189.449219 72.078125 C 187.277344 72.207031 185.546875 73.0625 184.253906 74.070312 C 183.015625 75.140625 181.992188 76.226562 181.105469 76.75 C 180.179688 77.3125 179.660156 77.335938 179.605469 77.257812 C 179.527344 77.140625 180.050781 76.828125 180.691406 76.210938 C 181.382812 75.570312 182.152344 74.464844 183.429688 73.148438 C 183.613281 72.976562 183.730469 72.847656 183.992188 72.648438 C 184.175781 72.5 184.351562 72.378906 184.554688 72.230469 C 184.914062 71.953125 185.4375 71.667969 185.921875 71.40625 C 186.902344 70.914062 188.078125 70.609375 189.28125 70.46875 C 189.886719 70.375 190.488281 70.355469 191.105469 70.339844 C 191.703125 70.316406 192.320312 70.285156 192.9375 70.261719 C 194.222656 70.269531 195.414062 70.039062 196.652344 69.867188 C 197.914062 69.589844 199.164062 69.34375 200.371094 69.03125 C 200.972656 68.890625 201.5625 68.738281 202.148438 68.605469 C 202.433594 68.523438 202.726562 68.445312 203.011719 68.382812 C 203.257812 68.289062 203.511719 68.199219 203.757812 68.105469 C 204.972656 67.652344 206.105469 66.996094 207.074219 66.320312 C 208 65.464844 208.921875 64.632812 209.863281 63.789062 C 210.492188 63.117188 211.054688 62.542969 211.546875 62.171875 C 211.65625 62.070312 211.746094 62.011719 211.847656 61.933594 C 214.039062 59.832031 216.082031 57.605469 217.511719 55.066406 Z M 231.945312 138.179688 C 235.152344 134.261719 241.089844 134.09375 240.519531 127.898438 C 240.011719 122.347656 232.265625 118.746094 228.441406 114.980469 C 225.871094 112.449219 222.445312 110.808594 218.859375 109.460938 C 218.691406 109.421875 218.503906 109.386719 218.320312 109.332031 C 213.0625 107.644531 208.359375 107.722656 205.167969 103.121094 C 204.417969 102.410156 203.796875 101.640625 203.296875 100.773438 C 201.964844 98.417969 201.757812 96.054688 201.015625 93.507812 C 200.292969 91.042969 198.960938 88.863281 198.0625 86.472656 C 189.941406 91.265625 178.464844 86.433594 169.722656 85.261719 C 168.742188 89.695312 166.65625 93.542969 165.503906 98.015625 C 163.617188 105.375 165.75 112.046875 167.3125 119.230469 C 169.796875 130.789062 168.628906 141.742188 165.632812 153.089844 C 163.878906 159.769531 160.753906 166.980469 162.832031 173.886719 C 164.433594 179.199219 166.796875 184.539062 169.882812 189.1875 C 173.261719 194.300781 176.546875 196.117188 182.566406 195.0625 C 183.898438 194.824219 185.214844 194.613281 186.523438 194.46875 C 191.066406 193.261719 195.46875 194.292969 200.179688 193.660156 C 201.625 193.484375 202.839844 193.128906 203.925781 192.667969 C 204.589844 192.328125 205.257812 191.980469 205.898438 191.613281 C 208.351562 189.925781 209.761719 187.425781 210.984375 184.617188 C 209.863281 185.722656 208.675781 186.703125 207.476562 187.464844 C 205.996094 188.332031 204.550781 188.925781 203.289062 189.15625 C 202.671875 189.328125 202.050781 189.320312 201.535156 189.367188 C 201.015625 189.417969 200.59375 189.359375 200.253906 189.320312 C 199.5625 189.210938 199.1875 189.105469 199.1875 188.972656 C 199.148438 188.671875 200.808594 188.6875 202.957031 187.941406 C 204.066406 187.59375 205.304688 186.957031 206.589844 186.101562 C 207.84375 185.203125 209.128906 184.070312 210.363281 182.738281 C 211.445312 181.546875 212.410156 180.335938 213.285156 179.183594 C 213.457031 178.796875 213.632812 178.40625 213.816406 178.011719 C 218.453125 168.542969 228.964844 162.355469 229.171875 151.003906 C 229.234375 146.800781 229.082031 141.667969 231.945312 138.179688 Z M 252.003906 97.703125 C 253.574219 91.980469 250.292969 84.214844 246.753906 79.597656 C 244.144531 76.195312 240.65625 72.855469 237.394531 70.09375 C 232.960938 66.359375 227.902344 65.835938 222.59375 65.8125 C 222.421875 65.835938 222.269531 65.875 222.109375 65.914062 C 221.636719 66.472656 221.183594 67.050781 220.699219 67.652344 C 220.082031 68.3125 219.476562 68.96875 218.898438 69.605469 L 218.453125 70.0625 C 218.257812 70.261719 218.097656 70.390625 217.9375 70.546875 C 217.582031 70.832031 217.242188 71.085938 216.902344 71.316406 C 215.558594 72.246094 214.355469 72.941406 213.417969 73.617188 C 212.476562 74.277344 211.824219 74.910156 211.417969 75.386719 C 211.039062 75.832031 210.847656 76.242188 210.714844 76.171875 C 210.640625 76.125 210.546875 75.773438 210.832031 75.046875 C 211.09375 74.355469 211.699219 73.5 212.632812 72.648438 C 213.53125 71.800781 214.71875 70.953125 215.949219 70.015625 C 216.25 69.777344 216.535156 69.53125 216.828125 69.285156 L 217.210938 68.90625 L 217.628906 68.421875 C 218.074219 67.9375 218.535156 67.429688 219.003906 66.90625 C 217.433594 67.542969 215.925781 68.390625 214.488281 69.507812 C 208.652344 73.980469 205.414062 80.484375 199.957031 85.132812 C 199.878906 85.207031 199.785156 85.269531 199.710938 85.339844 C 200.269531 86.957031 201.226562 88.441406 201.917969 90.011719 C 202.050781 89.425781 202.164062 88.871094 202.28125 88.347656 C 202.578125 87.011719 202.917969 85.910156 203.273438 85.195312 C 203.613281 84.460938 204.019531 84.148438 204.082031 84.214844 C 204.195312 84.308594 204.042969 84.671875 203.925781 85.417969 C 203.78125 86.132812 203.648438 87.203125 203.511719 88.566406 C 203.425781 89.242188 203.351562 89.980469 203.257812 90.765625 C 203.179688 91.496094 203.179688 92.296875 203.328125 93.128906 C 203.542969 94.800781 204.171875 96.632812 204.890625 98.570312 C 205.113281 99.257812 205.375 99.878906 205.644531 100.480469 C 206.757812 101.84375 208.167969 102.933594 209.722656 103.851562 C 209.9375 103.964844 210.175781 104.082031 210.476562 104.160156 C 210.921875 104.289062 211.378906 104.453125 211.832031 104.589844 C 212.347656 104.757812 212.894531 104.9375 213.347656 105.144531 C 215.035156 106.015625 216.964844 106 218.652344 106.160156 C 220.382812 106.160156 221.96875 106.160156 223.324219 106.121094 C 226.023438 106.082031 227.6875 106.292969 227.6875 106.523438 C 227.6875 106.785156 226.023438 107.007812 223.394531 107.359375 C 222.476562 107.507812 221.40625 107.605469 220.230469 107.683594 C 220.320312 107.714844 220.421875 107.753906 220.523438 107.792969 C 223.300781 108.207031 226.273438 108 228.726562 109.523438 C 232.121094 111.617188 236.910156 116.734375 241.21875 116.3125 C 247.839844 115.671875 250.570312 102.957031 252.003906 97.703125 Z M 253.972656 107.382812 C 255.734375 99.054688 255.121094 91.28125 253.074219 83.070312 C 250.878906 74.257812 247.199219 69.367188 238.125 66.890625 C 237.277344 66.660156 236.417969 66.453125 235.570312 66.265625 C 236.175781 66.628906 236.792969 67.035156 237.371094 67.519531 C 241.425781 70.953125 246.714844 75.125 249.277344 79.921875 C 252.195312 85.355469 255.945312 91.945312 253.894531 98.226562 C 252.296875 103.160156 251.046875 111.09375 247.5625 115.15625 C 244.589844 118.628906 240.058594 119.121094 236.101562 116.8125 C 233.230469 115.144531 230.726562 112.664062 227.75 111.210938 C 227.355469 111.023438 226.957031 110.871094 226.535156 110.738281 C 227.316406 111.261719 228.035156 111.839844 228.6875 112.480469 C 231.519531 115.273438 233.960938 117.476562 237.355469 119.628906 C 238.757812 120.515625 240.617188 121.5625 241.304688 123.15625 C 242.679688 126.433594 243.28125 130.9375 241.386719 134.167969 C 240.425781 135.832031 238.6875 136.09375 237.054688 136.710938 C 230.152344 139.265625 231.289062 147.722656 231.011719 153.296875 C 230.90625 155.246094 230.375 157.105469 229.582031 158.902344 C 230.34375 158.300781 231.121094 157.722656 231.851562 157.121094 C 232.082031 156.9375 232.3125 156.746094 232.550781 156.558594 C 232.753906 156.421875 232.929688 156.183594 233.128906 156 C 233.507812 155.621094 233.882812 155.246094 234.175781 154.796875 C 235.40625 153.089844 236.191406 151.226562 236.953125 149.695312 C 237.332031 148.925781 237.6875 148.21875 238.039062 147.617188 C 238.425781 147.03125 238.742188 146.5 239.054688 146.144531 C 239.695312 145.429688 240.09375 145.078125 240.203125 145.136719 C 240.296875 145.207031 240.085938 145.699219 239.617188 146.539062 C 239.195312 147.386719 238.6875 148.585938 238.085938 150.179688 C 237.484375 151.757812 236.832031 153.742188 235.492188 155.738281 C 235.191406 156.261719 234.769531 156.714844 234.332031 157.175781 C 234.089844 157.414062 233.914062 157.660156 233.636719 157.882812 C 233.398438 158.078125 233.167969 158.269531 232.929688 158.46875 C 232.003906 159.253906 230.972656 160.03125 229.957031 160.832031 C 228.664062 161.792969 227.617188 162.824219 226.648438 163.894531 C 226.210938 164.511719 225.75 165.113281 225.285156 165.6875 C 220.566406 171.507812 216.726562 176.472656 213.871094 183.46875 C 213.195312 185.140625 212.464844 186.679688 211.632812 188.101562 C 211.746094 188.035156 211.863281 187.957031 211.976562 187.894531 C 217.003906 184.902344 221.875 181.5 225.71875 177.027344 C 230.035156 171.976562 233.605469 166.296875 237.800781 161.132812 C 241.3125 156.800781 245.136719 152.636719 248.414062 148.101562 C 248.152344 144.746094 245.453125 142.582031 245.199219 139.265625 C 244.953125 135.816406 245.945312 132.921875 247 129.683594 C 249.394531 122.332031 252.371094 114.941406 253.972656 107.382812 Z M 262.894531 110.703125 C 263.839844 99.054688 261.65625 88.609375 258.453125 77.503906 C 258.113281 76.328125 257.777344 75.085938 257.421875 73.808594 C 257.183594 73.378906 256.953125 72.949219 256.707031 72.5 C 256.3125 71.785156 255.921875 71.046875 255.503906 70.285156 C 255.097656 69.546875 254.679688 68.707031 254.273438 68.066406 C 253.410156 66.699219 252.042969 65.597656 250.515625 64.542969 C 247.367188 62.425781 244.46875 60.261719 241.71875 58.675781 C 241.027344 58.277344 240.296875 57.90625 239.617188 57.546875 L 239.101562 57.269531 L 238.894531 57.167969 L 238.632812 57.0625 C 238.292969 56.90625 237.972656 56.761719 237.65625 56.652344 C 236.976562 56.421875 236.753906 56.398438 236.132812 56.667969 C 235.832031 56.800781 235.5 56.960938 235.199219 57.078125 L 234.761719 57.246094 C 234.5 57.351562 234.390625 57.351562 234.207031 57.390625 C 232.867188 57.660156 231.714844 57.652344 230.699219 57.546875 C 229.679688 57.46875 228.820312 57.269531 228.125 57.046875 C 226.664062 56.566406 226.234375 55.898438 226.273438 55.820312 C 226.339844 55.691406 227.042969 56.199219 228.296875 56.382812 C 228.964844 56.5 229.78125 56.574219 230.734375 56.566406 C 231.691406 56.566406 232.8125 56.476562 233.882812 56.191406 C 234 56.144531 234.207031 56.105469 234.253906 56.082031 L 234.675781 55.875 C 234.96875 55.730469 235.269531 55.582031 235.570312 55.445312 C 235.886719 55.289062 236.285156 55.089844 236.792969 55.066406 C 237.054688 55.035156 237.292969 55.066406 237.5 55.121094 C 237.734375 55.144531 237.933594 55.207031 238.117188 55.273438 C 238.496094 55.375 238.847656 55.519531 239.210938 55.667969 L 239.488281 55.769531 L 239.789062 55.914062 L 240.3125 56.160156 C 241.011719 56.515625 241.734375 56.820312 242.457031 57.230469 C 245.460938 58.847656 248.378906 60.992188 251.519531 63.09375 C 252.863281 64.035156 254.21875 65.113281 255.242188 66.472656 C 252.566406 58.222656 248.699219 49.832031 241.574219 45.992188 C 236.339844 43.160156 229.304688 42.074219 223.347656 42.429688 C 223.125 42.445312 222.921875 42.496094 222.707031 42.503906 C 224.460938 45.277344 221.859375 50.886719 220.691406 53.25 C 218.707031 57.285156 215.949219 60.492188 212.671875 63.601562 C 212.015625 64.210938 205.773438 69.398438 206.421875 70.183594 C 206.667969 70.484375 206.851562 70.707031 206.992188 70.882812 C 207.660156 70.191406 208.335938 69.515625 209.054688 68.90625 C 219.867188 59.699219 234.40625 59.109375 246.785156 66.210938 C 257.523438 72.378906 260.347656 90.328125 258.867188 101.695312 C 257.851562 109.617188 255.175781 116.953125 252.75 124.503906 C 254.042969 122.609375 255.121094 120.90625 255.804688 119.5 C 256.722656 117.683594 257.121094 116.34375 257.382812 116.421875 C 257.574219 116.472656 257.660156 117.804688 256.96875 119.96875 C 256.296875 122.101562 254.726562 124.773438 252.847656 127.433594 C 252.042969 128.574219 251.308594 129.660156 250.648438 130.675781 C 249.339844 134.277344 248.191406 138.15625 250.140625 141.457031 C 250.609375 142.25 251.003906 143 251.339844 143.714844 C 257.523438 133.746094 261.925781 122.476562 262.894531 110.703125 Z M 262.746094 78.234375 C 270.042969 102.898438 267.421875 128.40625 252.226562 149.472656 C 252.109375 149.765625 251.941406 149.996094 251.71875 150.164062 C 251.324219 150.703125 250.949219 151.226562 250.539062 151.742188 C 245.113281 158.738281 239.09375 165.257812 234.015625 172.523438 C 230.28125 177.851562 226.265625 182.515625 221.105469 186.53125 C 216.457031 190.171875 211.09375 193 205.875 195.753906 C 202.296875 197.632812 198.585938 199.394531 194.644531 198.570312 C 190.273438 207.722656 177.371094 211.648438 168.628906 214.664062 C 162.554688 216.765625 155.457031 218.167969 149.933594 221.507812 C 145.691406 224.0625 142.152344 227.488281 138.308594 230.566406 C 135.453125 232.859375 132.152344 234.300781 129.136719 236.339844 C 122.339844 240.941406 114.832031 248.292969 106.421875 249.71875 C 104.84375 249.988281 103.417969 250.042969 102.101562 249.910156 C 101.972656 249.957031 101.839844 249.988281 101.695312 250.035156 C 101.277344 250.132812 100.949219 249.964844 100.734375 249.703125 C 97.136719 248.957031 94.28125 246.769531 91.113281 243.753906 C 88.902344 241.652344 85.878906 239.195312 83.53125 236.386719 C 76.015625 240.84375 69.613281 247.617188 62.484375 252.589844 C 54.875 257.914062 46.476562 260.5625 37.832031 263.75 C 37.277344 263.957031 36.792969 263.910156 36.417969 263.6875 C 36.101562 263.617188 35.785156 263.488281 35.5 263.257812 C 31.773438 260.148438 30.011719 255.136719 30.210938 250.378906 C 30.421875 245.554688 36.0625 243.867188 39.371094 241.675781 C 52.863281 232.761719 66.394531 223.710938 79.488281 214.179688 C 79.480469 213.972656 79.503906 213.742188 79.613281 213.488281 C 81.984375 207.824219 86.460938 204.445312 90.773438 200.242188 C 95.820312 195.308594 100.609375 190.210938 105.835938 185.425781 C 116.511719 175.648438 127.085938 164.265625 133.691406 151.25 C 140.550781 137.726562 142.949219 124.503906 140.347656 109.539062 C 139.75 106.082031 139.125 101.355469 136.445312 98.808594 C 134.746094 97.214844 132.804688 96.03125 130.980469 94.605469 C 127.710938 92.074219 126.070312 89.386719 126.078125 85.195312 C 126.078125 84.910156 126.132812 84.65625 126.242188 84.4375 C 126.265625 84.148438 126.355469 83.847656 126.5625 83.5625 C 132.976562 74.332031 137.648438 64.648438 149.710938 62.425781 C 149.964844 62.371094 150.195312 62.386719 150.402344 62.417969 C 158.074219 53.398438 167.136719 45.339844 179.503906 44.023438 C 186.769531 43.238281 192.90625 44.777344 199.894531 46.363281 C 205.636719 47.648438 211.054688 41.882812 216.125 39.957031 C 225.917969 36.277344 241.179688 38.695312 248.378906 46.632812 C 256.453125 55.558594 259.40625 66.960938 262.746094 78.234375 " fill-opacity="1" fill-rule="nonzero"/></g><path fill="#a9a0f0" d="M 238.171875 127.1875 C 238.324219 128.890625 237.484375 130.414062 236.445312 131.539062 C 235.378906 132.714844 233.992188 133.5625 232.628906 134.300781 C 231.273438 135.046875 229.957031 135.679688 228.84375 136.449219 C 227.71875 137.203125 226.816406 138.085938 226.21875 139.117188 L 225.554688 140.257812 L 224.847656 139.195312 C 222.617188 135.800781 221.167969 132.832031 219.796875 130.953125 C 218.503906 129.066406 217.414062 128.105469 217.566406 127.949219 C 217.675781 127.859375 218.914062 128.464844 220.566406 130.335938 C 222.046875 131.9375 223.585938 134.515625 225.488281 137.28125 C 226.140625 136.417969 226.957031 135.664062 227.855469 135.03125 C 229.105469 134.148438 230.480469 133.46875 231.796875 132.753906 C 233.097656 132.046875 234.300781 131.296875 235.175781 130.359375 C 236.09375 129.4375 236.625 128.289062 236.546875 127.320312 C 236.492188 126.273438 235.886719 125.257812 235.191406 124.425781 C 234.5 123.585938 233.714844 122.871094 232.960938 122.253906 C 231.460938 121.015625 230.113281 120.113281 229.210938 119.460938 C 228.3125 118.796875 227.839844 118.367188 227.902344 118.277344 C 227.972656 118.167969 228.558594 118.390625 229.566406 118.859375 C 230.582031 119.359375 232.027344 120.09375 233.714844 121.261719 C 234.554688 121.839844 235.445312 122.554688 236.300781 123.472656 C 237.125 124.386719 237.992188 125.578125 238.171875 127.1875 " fill-opacity="1" fill-rule="nonzero"/><path fill="#a9a0f0" d="M 220.34375 154.722656 C 220.4375 157.136719 220.207031 159.371094 220.035156 161.363281 L 219.992188 161.808594 L 219.914062 162.179688 C 219.875 162.425781 219.820312 162.65625 219.773438 162.894531 C 219.667969 163.363281 219.613281 163.8125 219.460938 164.25 C 219.160156 165.152344 218.882812 165.988281 218.597656 166.71875 C 217.34375 169.605469 215.964844 171.054688 215.835938 170.921875 C 215.597656 170.738281 216.535156 169.144531 217.425781 166.296875 C 217.605469 165.597656 217.8125 164.828125 218.027344 163.988281 C 218.144531 163.589844 218.167969 163.101562 218.242188 162.640625 C 218.28125 162.394531 218.488281 162.164062 218.535156 161.925781 L 218.757812 161.585938 L 218.582031 161.53125 L 218.488281 161.449219 L 218.464844 161.261719 C 218.542969 159.238281 218.691406 157.046875 218.613281 154.796875 C 218.519531 152.597656 218.027344 150.503906 217.28125 148.742188 C 216.519531 146.953125 215.609375 145.398438 214.902344 144.046875 C 214.1875 142.699219 213.632812 141.535156 213.363281 140.710938 C 213.101562 139.902344 213 139.417969 213.117188 139.367188 C 213.21875 139.320312 213.515625 139.695312 213.980469 140.425781 C 214.449219 141.136719 215.125 142.152344 215.964844 143.40625 C 216.8125 144.667969 217.84375 146.183594 218.742188 148.085938 C 219.667969 149.996094 220.253906 152.28125 220.34375 154.722656 " fill-opacity="1" fill-rule="nonzero"/><path fill="#a9a0f0" d="M 207.921875 130.191406 C 209.863281 133.601562 210.023438 136.109375 209.855469 136.109375 C 209.554688 136.1875 208.960938 133.902344 206.859375 130.859375 C 205.84375 129.320312 204.402344 127.636719 202.59375 126.042969 C 202.140625 125.664062 201.664062 125.25 201.171875 124.878906 C 200.664062 124.554688 200.15625 124.210938 199.632812 123.871094 C 199.046875 123.5625 198.394531 123.285156 197.761719 122.984375 C 197.246094 122.761719 196.46875 122.554688 195.828125 122.332031 C 195.152344 122.101562 194.492188 121.878906 193.820312 121.667969 C 193.160156 121.46875 192.488281 121.277344 191.835938 121.078125 C 190.519531 120.691406 189.265625 120.308594 188.046875 119.945312 C 185.59375 119.238281 183.5625 118.367188 181.765625 117.660156 C 181.390625 117.492188 180.921875 117.359375 180.921875 117.34375 C 180.859375 117.34375 180.480469 117.789062 180.234375 118.050781 C 179.710938 118.589844 179.210938 119.03125 178.804688 119.367188 C 178.011719 120.078125 177.519531 120.414062 177.425781 120.339844 C 177.332031 120.261719 177.65625 119.746094 178.3125 118.914062 C 178.640625 118.5 179.027344 117.992188 179.503906 117.398438 C 179.605469 117.242188 179.710938 117.097656 179.828125 116.929688 L 180.050781 116.660156 C 180.136719 116.550781 180.296875 116.4375 180.4375 116.34375 C 180.621094 116.273438 180.882812 116.195312 181.027344 116.21875 C 181.167969 116.234375 181.34375 116.25 181.484375 116.289062 C 181.707031 116.359375 181.984375 116.421875 182.207031 116.496094 C 183.992188 117.035156 186.164062 117.804688 188.53125 118.390625 C 189.75 118.722656 191.003906 119.066406 192.304688 119.421875 C 192.972656 119.605469 193.636719 119.785156 194.328125 119.984375 C 195 120.207031 195.683594 120.429688 196.390625 120.660156 C 197.113281 120.90625 197.722656 121.054688 198.492188 121.394531 C 199.132812 121.707031 199.761719 121.96875 200.371094 122.324219 C 200.988281 122.722656 201.570312 123.132812 202.164062 123.523438 C 202.726562 123.949219 203.195312 124.410156 203.6875 124.839844 C 205.574219 126.617188 206.984375 128.480469 207.921875 130.191406 " fill-opacity="1" fill-rule="nonzero"/><path fill="#a9a0f0" d="M 193.40625 55.144531 L 193.40625 55.160156 C 193.367188 55.167969 193.335938 55.183594 193.296875 55.207031 L 193.40625 55.144531 " fill-opacity="1" fill-rule="nonzero"/><path fill="#a9a0f0" d="M 182.699219 92.773438 C 184.992188 92.605469 186.339844 92.660156 186.355469 92.820312 C 186.355469 92.992188 185.078125 93.238281 182.804688 93.652344 C 182.230469 93.746094 181.605469 93.875 180.882812 93.9375 C 180.527344 93.984375 180.167969 94.023438 179.789062 94.058594 C 179.398438 94.066406 178.988281 94.066406 178.574219 94.082031 C 177.1875 94.058594 175.570312 93.769531 174 93.035156 C 173.9375 93.253906 173.886719 93.460938 173.839844 93.667969 C 173.65625 94.191406 173.414062 94.667969 173.191406 95.191406 C 172.976562 95.691406 172.753906 96.144531 172.515625 96.632812 C 172.292969 97.109375 172.101562 97.648438 171.875 98.171875 C 171.554688 99.09375 171.460938 99.972656 171.859375 100.910156 C 172.269531 101.828125 173 103.105469 173.339844 104.320312 C 174.425781 107.738281 175.925781 111.09375 175.855469 114.632812 C 175.839844 115.503906 175.753906 116.175781 175.632812 117.035156 C 175.53125 117.765625 175.417969 118.5 175.308594 119.191406 C 175.117188 120.585938 174.933594 121.902344 174.695312 123.117188 C 174.253906 125.535156 173.546875 127.433594 172.855469 128.667969 C 172.152344 129.835938 171.652344 130.390625 171.554688 130.351562 C 171.429688 130.28125 171.746094 129.582031 172.253906 128.335938 C 172.699219 127.128906 173.183594 125.28125 173.46875 122.925781 C 173.625 121.730469 173.714844 120.429688 173.863281 119.007812 C 173.925781 118.296875 174.015625 117.566406 174.109375 116.796875 C 174.179688 116.175781 174.253906 115.273438 174.238281 114.550781 C 174.222656 111.617188 172.816406 108.390625 171.652344 104.84375 C 171.316406 103.652344 170.792969 102.828125 170.246094 101.566406 C 170.015625 100.933594 169.8125 100.21875 169.867188 99.503906 C 169.867188 98.769531 170.089844 98.15625 170.304688 97.53125 C 170.53125 97.007812 170.746094 96.484375 170.992188 95.976562 C 171.238281 95.476562 171.484375 94.984375 171.738281 94.492188 C 171.9375 94.03125 172.191406 93.574219 172.347656 93.128906 C 172.492188 92.675781 172.628906 92.230469 172.761719 91.796875 L 173.09375 90.757812 L 173.925781 91.304688 C 177.019531 93.328125 180.449219 92.882812 182.699219 92.773438 " fill-opacity="1" fill-rule="nonzero"/><path fill="#a9a0f0" d="M 149.839844 111.863281 C 150.117188 115.011719 150.078125 118.46875 149.964844 122.046875 C 149.910156 123.832031 149.855469 125.570312 149.800781 127.257812 C 149.746094 129.019531 149.710938 130.558594 149.425781 132.199219 C 148.933594 135.386719 148.054688 138.066406 147.269531 140.296875 C 145.613281 144.722656 144.476562 147.386719 144.25 147.316406 C 144.003906 147.238281 144.753906 144.390625 146.082031 139.917969 C 146.707031 137.6875 147.4375 134.984375 147.816406 132.007812 C 148.039062 130.582031 148.054688 128.859375 148.078125 127.242188 C 148.078125 125.535156 148.148438 123.785156 148.199219 121.992188 C 148.332031 118.414062 148.402344 115.035156 148.222656 111.980469 C 148.039062 108.9375 147.570312 106.238281 146.890625 104.042969 C 146.238281 101.851562 145.285156 100.257812 144.660156 99.148438 C 143.90625 98.078125 143.496094 97.460938 143.597656 97.386719 C 143.683594 97.308594 144.25 97.761719 145.183594 98.703125 C 146.046875 99.765625 147.230469 101.371094 148.078125 103.644531 C 148.9375 105.898438 149.554688 108.714844 149.839844 111.863281 " fill-opacity="1" fill-rule="nonzero"/></svg>