<svg xmlns="http://www.w3.org/2000/svg" xmlns:xlink="http://www.w3.org/1999/xlink" width="400" zoomAndPan="magnify" viewBox="0 0 300 299.999988" height="400" preserveAspectRatio="xMidYMid meet" version="1.0"><path fill="#a9a0f0" d="M 148.785156 180.214844 L 141.988281 174.535156 C 139.023438 172.054688 133.59375 174.007812 129.355469 179.074219 C 125.121094 184.144531 124.164062 189.835938 127.128906 192.3125 C 127.128906 192.3125 127.128906 192.3125 127.132812 192.316406 L 133.921875 197.992188 C 134.789062 198.71875 135.867188 199.0625 137.066406 199.0625 C 139.960938 199.0625 143.558594 197.035156 146.554688 193.449219 C 148.402344 191.242188 149.710938 188.773438 150.246094 186.496094 C 150.882812 183.765625 150.363281 181.535156 148.785156 180.214844 Z M 132.28125 181.519531 C 135.375 177.816406 138.742188 176.785156 139.546875 177.457031 C 140.351562 178.128906 139.933594 181.625 136.839844 185.328125 C 133.742188 189.03125 130.375 190.058594 129.570312 189.390625 C 128.769531 188.71875 129.1875 185.21875 132.28125 181.519531 Z M 146.535156 185.628906 C 146.140625 187.3125 145.082031 189.273438 143.632812 191.007812 C 140.539062 194.707031 137.171875 195.742188 136.367188 195.070312 L 133.488281 192.664062 C 135.59375 191.78125 137.804688 190.113281 139.761719 187.769531 C 141.71875 185.429688 142.964844 182.957031 143.460938 180.726562 L 146.339844 183.136719 C 146.640625 183.386719 146.871094 184.191406 146.535156 185.628906 Z M 213.191406 96.78125 L 213.175781 96.785156 C 215.960938 89.820312 205.960938 77.511719 194.3125 68.828125 C 187.691406 63.890625 180.746094 60.164062 174.761719 58.332031 C 166.289062 55.742188 162.625 57.730469 161.039062 59.855469 L 154.949219 68.027344 C 150.734375 65.597656 138.679688 59.046875 131.300781 59.046875 C 122.003906 59.046875 103.234375 73.648438 99.914062 79.621094 C 97.519531 83.914062 96.945312 92.03125 96.808594 96.054688 C 91.589844 95.03125 85.566406 94.394531 81.976562 95.8125 C 75.277344 98.464844 64.09375 108.644531 62.261719 115.03125 C 60.617188 120.777344 63.808594 145.210938 67.726562 152.902344 C 66.5 157.023438 61.640625 175.507812 68.847656 188.414062 C 72.539062 195.03125 79.542969 200.632812 88.0625 203.78125 C 88.707031 204.019531 89.351562 204.234375 89.996094 204.441406 C 91.03125 207.925781 94.988281 218.816406 105.136719 223.785156 C 111.257812 226.777344 117.574219 227.507812 122.285156 227.507812 C 124.398438 227.507812 126.179688 227.359375 127.484375 227.207031 C 127.632812 230.75 128.578125 234.570312 130.652344 238.96875 C 130.964844 239.632812 131.636719 240.058594 132.375 240.058594 C 148.519531 240.058594 163.320312 237.617188 176.375 232.796875 C 189.914062 227.800781 200.886719 220.535156 208.984375 211.203125 C 209.367188 210.757812 209.527344 210.164062 209.414062 209.585938 C 208.984375 207.40625 208.296875 205.390625 207.371094 203.542969 C 210.210938 204.390625 213.195312 204.820312 216.3125 204.820312 C 220.480469 204.820312 224.890625 204.058594 229.515625 202.53125 C 230.0625 202.351562 230.5 201.933594 230.703125 201.394531 C 230.90625 200.855469 230.851562 200.253906 230.5625 199.757812 L 222.546875 186.144531 L 225.164062 180.277344 C 225.390625 179.769531 225.386719 179.191406 225.148438 178.691406 C 224.914062 178.1875 224.46875 177.8125 223.9375 177.667969 L 218.738281 176.222656 L 217.417969 169.992188 C 217.933594 170.113281 218.441406 170.179688 218.941406 170.179688 C 219.660156 170.179688 220.359375 170.054688 221.039062 169.78125 L 239.316406 162.519531 C 242.886719 161.101562 244.507812 156.320312 244.007812 148.6875 C 243.5625 141.867188 241.460938 133.433594 238.085938 124.949219 C 231.597656 108.613281 220.960938 93.695312 213.191406 96.78125 Z M 164.09375 62.132812 C 164.691406 61.332031 165.960938 60.929688 167.707031 60.929688 C 169.332031 60.929688 171.363281 61.277344 173.644531 61.976562 C 179.222656 63.679688 185.753906 67.199219 192.035156 71.882812 C 206.058594 82.335938 211.574219 92.902344 209.359375 95.878906 L 201.375 106.585938 C 199.269531 99.75 191.40625 91.109375 182.597656 84.542969 C 173.789062 77.976562 163.261719 72.910156 156.109375 72.84375 Z M 193.609375 153.832031 C 192.917969 152.824219 192.527344 151.625 192.527344 150.375 C 192.527344 147.484375 194.578125 145.027344 197.304688 144.410156 C 198.148438 146.371094 199.042969 148.269531 199.976562 150.109375 C 198.296875 150.765625 195.921875 151.921875 193.609375 153.832031 Z M 188.71875 150.375 C 188.71875 152.640625 189.492188 154.808594 190.875 156.546875 C 190.765625 156.679688 190.65625 156.8125 190.546875 156.949219 C 188.351562 159.722656 187.058594 163.386719 186.300781 166.53125 C 184.648438 164.175781 182.582031 162.796875 180.519531 162.828125 C 179.707031 160.714844 178.925781 158.902344 178.308594 157.535156 C 179.503906 157.5 180.730469 157.414062 181.980469 157.273438 C 182.941406 157.164062 183.671875 156.347656 183.671875 155.378906 L 183.671875 135.867188 C 183.671875 135.179688 183.300781 134.546875 182.699219 134.210938 L 178.539062 131.867188 L 182.230469 128.105469 C 182.609375 127.71875 182.804688 127.1875 182.769531 126.644531 C 182.734375 126.105469 182.46875 125.605469 182.039062 125.269531 L 177.914062 122.054688 L 180.148438 119 C 180.386719 118.671875 180.515625 118.28125 180.515625 117.875 L 180.515625 112.832031 C 183.902344 114.421875 187.191406 115.59375 190.152344 116.179688 C 190.3125 123.003906 192.351562 131.84375 195.855469 140.863281 C 191.746094 142.082031 188.71875 145.902344 188.71875 150.375 Z M 181.722656 202.300781 C 181.707031 201.914062 181.679688 201.539062 181.636719 201.171875 C 181.5 200.078125 181.238281 199.113281 180.863281 198.285156 C 181.785156 196.894531 182.574219 195.519531 183.21875 194.175781 C 189.15625 194.371094 200.132812 196.152344 204.402344 206.152344 C 197.472656 202.945312 189.871094 201.648438 181.722656 202.300781 Z M 132.386719 233 C 130.628906 227.390625 131.136719 222.882812 132.753906 218.132812 C 135.542969 219.335938 138.21875 220.277344 140.625 220.832031 C 137.285156 224.226562 134.53125 228.292969 132.386719 233 Z M 144.921875 217.589844 C 139.425781 217.589844 128.039062 212.445312 116.585938 204.792969 C 104.875 196.964844 96.382812 188.742188 94.957031 183.84375 C 93.597656 179.164062 95.421875 172.578125 100.085938 165.21875 C 101.042969 165.179688 102.394531 165.070312 103.996094 164.808594 C 104.089844 167.917969 104.613281 173.199219 106.917969 176.855469 C 108.925781 180.046875 112.839844 182.683594 115.769531 184.332031 C 116.0625 184.5 116.382812 184.578125 116.699219 184.578125 C 117.367188 184.578125 118.011719 184.230469 118.363281 183.605469 C 118.878906 182.691406 118.554688 181.527344 117.636719 181.011719 C 114.039062 178.988281 111.378906 176.789062 110.140625 174.828125 C 108.335938 171.957031 107.820312 167.132812 107.789062 163.96875 C 109.117188 163.59375 110.519531 163.105469 111.933594 162.476562 L 113.34375 164.144531 C 114.394531 165.386719 115.96875 165.984375 117.824219 165.984375 C 120.820312 165.984375 124.558594 164.421875 128.035156 161.480469 C 133.664062 156.71875 135.839844 150.679688 133.09375 147.433594 L 132.375 146.582031 C 132.859375 145.683594 133.308594 144.757812 133.714844 143.820312 C 140.402344 143.21875 146.585938 143.382812 148.820312 143.472656 C 154.039062 150.960938 162.671875 156.597656 174.058594 157.4375 C 174.625 158.617188 175.640625 160.816406 176.746094 163.628906 L 171.246094 164.964844 L 155.394531 159.902344 C 154.394531 159.582031 153.324219 160.136719 153 161.136719 C 152.683594 162.136719 153.234375 163.210938 154.238281 163.53125 L 167.484375 167.761719 C 166.457031 169.617188 166.023438 172.246094 166.316406 175.226562 C 161.183594 173.902344 154.097656 171.53125 151.125 168.722656 C 146.453125 164.308594 142.714844 156.550781 142.675781 156.472656 C 142.222656 155.527344 141.085938 155.125 140.136719 155.578125 C 139.1875 156.03125 138.785156 157.167969 139.238281 158.117188 C 139.402344 158.460938 143.3125 166.585938 148.511719 171.492188 C 152.199219 174.976562 159.84375 177.441406 164.5625 178.703125 C 162.847656 180.457031 160.707031 183.199219 158.820312 187.265625 C 155.4375 194.5625 157.515625 208.984375 158.285156 213.5 C 153.347656 216.175781 148.746094 217.589844 144.921875 217.589844 Z M 80.21875 161.371094 C 85.546875 163.300781 91.453125 164.5625 95.742188 165.039062 C 91.335938 172.621094 89.753906 179.597656 91.300781 184.910156 C 92.621094 189.441406 97.539062 194.625 102.628906 199.011719 C 97.074219 197.144531 89.925781 193.609375 85.4375 187.09375 C 78.910156 177.628906 79.578125 166.109375 80.21875 161.371094 Z M 106.871094 147.15625 C 101.488281 147.15625 97.109375 142.777344 97.109375 137.394531 C 97.109375 132.015625 101.488281 127.632812 106.871094 127.632812 C 112.253906 127.632812 116.632812 132.011719 116.632812 137.394531 C 116.632812 138.070312 116.558594 138.734375 116.425781 139.386719 C 114.914062 140.128906 113.375 141.128906 111.882812 142.390625 C 110.117188 143.886719 108.691406 145.503906 107.652344 147.125 C 107.390625 147.144531 107.132812 147.15625 106.871094 147.15625 Z M 114.34375 145.300781 C 118.53125 141.753906 122.730469 141.082031 123.667969 142.191406 C 124.605469 143.300781 123.246094 147.328125 119.058594 150.871094 C 117.0625 152.5625 114.792969 153.800781 112.839844 154.269531 C 111.371094 154.621094 110.183594 154.511719 109.734375 153.980469 C 108.796875 152.871094 110.15625 148.84375 114.34375 145.300781 Z M 112.304688 97.316406 L 120.441406 99.3125 C 120.976562 99.445312 121.539062 99.339844 121.988281 99.023438 C 122.4375 98.710938 122.730469 98.21875 122.789062 97.671875 L 123.332031 92.761719 L 129.863281 94.765625 C 130.382812 94.925781 130.949219 94.855469 131.414062 94.570312 C 131.878906 94.285156 132.199219 93.816406 132.296875 93.277344 L 132.964844 89.535156 L 138.78125 90.367188 C 139.746094 90.5 140.652344 89.898438 140.894531 88.957031 L 142.351562 83.34375 C 144.640625 83.785156 147.757812 84.382812 149.328125 84.6875 C 151 88.550781 154.242188 92.847656 158.289062 96.960938 C 156.363281 98.042969 154.605469 99.3125 153.015625 100.742188 L 147.796875 94.195312 C 147.144531 93.371094 145.945312 93.238281 145.121094 93.890625 C 144.300781 94.546875 144.164062 95.746094 144.820312 96.570312 L 150.335938 103.492188 C 149.160156 104.871094 148.113281 106.355469 147.207031 107.9375 C 147.003906 108.027344 146.800781 108.113281 146.59375 108.195312 L 139.707031 99.601562 C 139.050781 98.78125 137.851562 98.648438 137.03125 99.308594 C 136.210938 99.964844 136.078125 101.164062 136.734375 101.984375 L 142.792969 109.542969 C 141.472656 109.953125 140.101562 110.316406 138.679688 110.636719 C 136.257812 111.179688 133.738281 111.574219 131.238281 111.816406 L 126.515625 105.246094 C 125.898438 104.390625 124.710938 104.195312 123.855469 104.808594 C 123 105.425781 122.808594 106.613281 123.421875 107.46875 L 126.726562 112.070312 C 125.707031 112.089844 124.695312 112.085938 123.714844 112.042969 C 116.394531 111.746094 109.445312 110.015625 102.054688 106.632812 Z M 176.707031 117.253906 L 174.316406 120.519531 L 170.378906 120.519531 C 169.324219 120.519531 168.472656 121.371094 168.472656 122.421875 C 168.472656 123.476562 169.324219 124.328125 170.378906 124.328125 L 174.628906 124.328125 L 178.015625 126.964844 L 174.636719 130.40625 L 170.378906 130.40625 C 169.324219 130.40625 168.472656 131.257812 168.472656 132.308594 C 168.472656 133.363281 169.324219 134.214844 170.378906 134.214844 L 174.9375 134.214844 L 179.859375 136.984375 L 179.859375 144.640625 C 174.402344 143.617188 161.496094 140.402344 157.242188 132.386719 C 152.21875 122.925781 154.96875 106.761719 155.578125 103.574219 C 157.234375 102.082031 159.101562 100.789062 161.171875 99.734375 C 163.152344 101.542969 165.257812 103.285156 167.421875 104.898438 C 170.386719 107.105469 173.546875 109.144531 176.707031 110.882812 Z M 175.625 176.054688 C 176.320312 178.910156 177.554688 181.480469 179.101562 183.296875 C 179.136719 183.339844 179.171875 183.375 179.210938 183.414062 L 175.410156 184.339844 C 174.394531 184.589844 171.75 182.324219 170.527344 177.296875 C 169.300781 172.269531 170.613281 169.042969 171.628906 168.796875 L 175.425781 167.871094 C 175.410156 167.921875 175.398438 167.972656 175.386719 168.023438 C 174.847656 170.347656 174.933594 173.203125 175.625 176.054688 Z M 147.078125 128.632812 C 146.21875 121.335938 147.621094 114.628906 150.890625 109.246094 C 150.152344 116.167969 149.925781 126.726562 153.878906 134.175781 C 159.148438 144.101562 174.316406 147.566406 179.859375 148.523438 L 179.859375 153.644531 C 160.429688 155.0625 148.695312 142.339844 147.078125 128.632812 Z M 123.5625 115.851562 C 124.304688 115.878906 125.058594 115.894531 125.816406 115.894531 C 130.292969 115.894531 134.984375 115.371094 139.515625 114.351562 C 141.410156 113.929688 143.226562 113.425781 144.960938 112.851562 C 144.074219 115.332031 143.480469 117.976562 143.203125 120.742188 C 128.476562 122.808594 116.566406 120.1875 107.089844 112.746094 C 112.574219 114.613281 117.957031 115.621094 123.5625 115.851562 Z M 133.839844 125.25 C 136.78125 125.246094 139.84375 125.03125 143.023438 124.609375 C 143.03125 126.074219 143.117188 127.566406 143.296875 129.082031 C 143.71875 132.675781 144.800781 136.25 146.496094 139.59375 C 143.761719 139.539062 139.667969 139.550781 135.152344 139.882812 C 135.859375 137.519531 136.257812 135.230469 136.257812 133.28125 C 136.257812 130.195312 135.039062 127.328125 133.839844 125.25 Z M 130.183594 149.894531 C 131.125 151.003906 129.765625 155.03125 125.574219 158.574219 C 121.386719 162.117188 117.191406 162.792969 116.25 161.683594 L 113.207031 158.085938 C 113.378906 158.050781 113.550781 158.015625 113.726562 157.972656 C 116.28125 157.359375 119.046875 155.871094 121.519531 153.78125 C 124.289062 151.433594 126.222656 148.777344 127.144531 146.300781 Z M 162.074219 213.074219 C 161.292969 208.617188 160.210938 199.757812 161.089844 193.375 L 171.414062 197.03125 C 171.289062 197.144531 171.160156 197.257812 171.035156 197.378906 C 169.132812 199.1875 167.488281 201.863281 166.394531 204.910156 C 165.304688 207.960938 164.882812 211.074219 165.203125 213.679688 C 165.226562 213.859375 165.25 214.039062 165.28125 214.214844 Z M 170.34375 216.015625 C 169.6875 215.78125 169.167969 214.707031 168.984375 213.210938 C 168.738281 211.214844 169.101562 208.65625 169.984375 206.195312 C 170.863281 203.730469 172.207031 201.523438 173.664062 200.136719 C 174.753906 199.097656 175.839844 198.597656 176.492188 198.832031 C 177.148438 199.066406 177.671875 200.140625 177.855469 201.636719 C 178.101562 203.632812 177.738281 206.191406 176.855469 208.65625 C 175.007812 213.816406 171.714844 216.503906 170.34375 216.015625 Z M 180.03125 192.027344 C 179.53125 193.125 178.90625 194.257812 178.183594 195.414062 C 178.050781 195.351562 177.914062 195.296875 177.777344 195.246094 C 177.773438 195.246094 177.773438 195.246094 177.773438 195.242188 C 177.773438 195.242188 177.769531 195.242188 177.769531 195.242188 L 161.960938 189.640625 C 162.058594 189.375 162.164062 189.113281 162.277344 188.871094 C 164.125 184.882812 166.222656 182.382812 167.699219 180.960938 C 169.425781 185.347656 172.335938 188.167969 175.25 188.167969 C 175.605469 188.167969 175.960938 188.128906 176.3125 188.039062 L 181.34375 186.816406 C 181.140625 188.789062 180.707031 190.535156 180.03125 192.027344 Z M 184.214844 182.195312 C 183.6875 182.324219 182.820312 181.789062 182.003906 180.828125 C 180.851562 179.476562 179.875 177.40625 179.328125 175.152344 C 178.78125 172.902344 178.695312 170.617188 179.097656 168.882812 C 179.378906 167.65625 179.90625 166.78125 180.429688 166.652344 C 181.449219 166.402344 184.09375 168.667969 185.316406 173.695312 C 186.539062 178.726562 185.230469 181.949219 184.214844 182.195312 Z M 169.703125 101.84375 C 155.679688 91.390625 150.160156 80.824219 152.378906 77.847656 C 154.597656 74.875 166.300781 77.144531 180.324219 87.597656 C 194.34375 98.050781 199.863281 108.617188 197.644531 111.59375 C 195.425781 114.566406 183.722656 112.296875 169.703125 101.84375 Z M 103.242188 81.472656 C 106.015625 76.488281 123.636719 62.855469 131.300781 62.855469 C 137.496094 62.855469 148.371094 68.671875 152.652344 71.105469 L 149.324219 75.570312 C 148.28125 76.96875 147.941406 78.675781 148.15625 80.582031 L 141.316406 79.265625 C 140.332031 79.078125 139.367188 79.6875 139.113281 80.660156 L 137.636719 86.351562 L 133.148438 85.710938 L 132.332031 78.203125 C 132.21875 77.15625 131.28125 76.398438 130.234375 76.515625 C 129.1875 76.628906 128.429688 77.566406 128.542969 78.613281 L 129.488281 87.320312 L 128.921875 90.492188 L 123.089844 88.703125 C 122.402344 87.03125 121.351562 83.976562 121.511719 81.964844 C 121.703125 79.5625 123.398438 76.351562 124.03125 75.320312 C 124.585938 74.425781 124.308594 73.253906 123.414062 72.699219 C 122.519531 72.144531 121.347656 72.421875 120.792969 73.316406 C 120.679688 73.5 118.015625 77.839844 117.714844 81.664062 C 117.453125 84.921875 119.101562 89.09375 119.742188 90.570312 L 119.242188 95.097656 L 112.226562 93.375 C 111.613281 93.226562 110.960938 93.390625 110.492188 93.816406 L 105.625 98.238281 C 104.519531 97.910156 102.738281 97.402344 100.59375 96.886719 C 100.695312 92.765625 101.277344 85.003906 103.242188 81.472656 Z M 65.925781 116.082031 C 67.289062 111.320312 77.238281 101.785156 83.378906 99.355469 C 87.300781 97.804688 96.566406 99.722656 102.300781 101.261719 L 97.390625 105.722656 C 96.640625 106.40625 96.558594 107.558594 97.203125 108.34375 C 105.578125 118.488281 116.109375 124.023438 129.144531 125.0625 C 130.152344 126.378906 132.449219 129.753906 132.449219 133.28125 C 132.449219 135.667969 131.585938 139.515625 129.707031 143.433594 L 126.574219 139.730469 C 125.222656 138.128906 122.996094 137.601562 120.417969 138.042969 C 120.425781 137.828125 120.441406 137.613281 120.441406 137.394531 C 120.441406 129.914062 114.351562 123.824219 106.871094 123.824219 C 99.386719 123.824219 93.300781 129.914062 93.300781 137.394531 C 93.300781 144.558594 98.878906 150.441406 105.921875 150.929688 C 105.363281 153.074219 105.625 155.023438 106.824219 156.441406 L 109.351562 159.425781 C 105.605469 160.886719 101.699219 161.4375 99.023438 161.4375 C 91.921875 161.4375 74.65625 156.921875 71.402344 151.6875 C 67.828125 145.925781 64.441406 121.257812 65.925781 116.082031 Z M 72.171875 186.558594 C 66.714844 176.777344 69.207031 162.683594 70.726562 156.449219 C 72.308594 157.722656 74.328125 158.875 76.578125 159.894531 C 75.820312 164.464844 74.484375 177.917969 82.300781 189.257812 C 87.277344 196.476562 94.910156 200.398438 100.957031 202.488281 C 90.425781 202.265625 77.726562 196.511719 72.171875 186.558594 Z M 106.8125 220.363281 C 99.699219 216.882812 96.023438 209.710938 94.429688 205.585938 C 96.871094 206.078125 99.273438 206.335938 101.578125 206.335938 C 104.679688 206.335938 107.601562 205.886719 110.21875 204.988281 C 111.96875 206.265625 113.464844 207.289062 114.472656 207.960938 C 118.972656 210.96875 124.199219 214.070312 129.273438 216.539062 C 128.480469 218.792969 127.898438 221.027344 127.628906 223.339844 C 124.253906 223.789062 115.1875 224.460938 106.8125 220.363281 Z M 175.054688 229.226562 C 163.171875 233.609375 149.757812 235.957031 135.144531 236.21875 C 137.636719 230.140625 141.160156 225.160156 145.640625 221.378906 C 150.0625 221.21875 155.195312 219.570312 160.578125 216.585938 L 169.058594 219.605469 C 169.589844 219.792969 170.136719 219.886719 170.691406 219.886719 C 174.320312 219.886719 178.285156 215.960938 180.441406 209.9375 C 180.894531 208.671875 181.226562 207.394531 181.441406 206.148438 C 189.828125 205.382812 197.574219 206.828125 204.519531 210.453125 C 197.015625 218.460938 187.121094 224.773438 175.054688 229.226562 Z M 215.253906 178.140625 C 215.402344 178.835938 215.921875 179.390625 216.605469 179.582031 L 220.785156 180.742188 L 218.667969 185.484375 C 218.414062 186.050781 218.453125 186.699219 218.765625 187.230469 L 226.050781 199.605469 C 217.164062 202.070312 209.542969 201.351562 202.820312 197.4375 C 198.429688 193.328125 192.183594 190.871094 184.585938 190.421875 C 184.933594 189.011719 185.148438 187.488281 185.234375 185.863281 C 188.90625 184.859375 190.539062 179.441406 189.089844 173.097656 C 189.210938 171.597656 190 163.777344 193.535156 159.3125 C 196.234375 155.894531 199.855469 154.207031 201.78125 153.5 C 205.023438 159.246094 209.042969 164.746094 213.050781 167.773438 Z M 204.375 150.316406 C 202.675781 147.164062 201.097656 143.761719 199.6875 140.207031 C 196.300781 131.6875 194.230469 123.058594 193.976562 116.605469 C 194.003906 116.605469 194.03125 116.605469 194.058594 116.605469 C 196.953125 116.605469 199.28125 115.773438 200.699219 113.871094 L 202.820312 111.023438 C 207.449219 115.667969 212.476562 124.078125 216.269531 133.617188 C 223.488281 151.789062 223.09375 164.867188 219.632812 166.242188 C 216.929688 167.316406 210.484375 161.652344 204.375 150.316406 Z M 234.546875 126.355469 C 237.777344 134.480469 239.789062 142.5 240.207031 148.9375 C 240.636719 155.503906 239.238281 158.453125 237.910156 158.980469 L 225.289062 163.996094 C 227.085938 156.648438 224.476562 143.960938 219.808594 132.210938 C 215.679688 121.820312 210.277344 112.925781 205.117188 107.9375 L 209.199219 102.464844 L 214.601562 100.320312 C 218.0625 98.945312 227.324219 108.183594 234.546875 126.355469 Z M 116.339844 193.402344 C 117.089844 194.140625 117.101562 195.347656 116.363281 196.09375 C 115.988281 196.472656 115.496094 196.664062 115.003906 196.664062 C 114.523438 196.664062 114.039062 196.480469 113.667969 196.117188 L 103.074219 185.683594 C 102.324219 184.945312 102.316406 183.738281 103.054688 182.992188 C 103.792969 182.242188 105 182.230469 105.75 182.96875 Z M 196.027344 170.746094 C 195.871094 169.703125 196.585938 168.734375 197.625 168.574219 L 205 167.449219 C 206.039062 167.289062 207.011719 168.003906 207.171875 169.042969 C 207.332031 170.082031 206.617188 171.054688 205.578125 171.214844 L 198.199219 172.339844 C 198.101562 172.355469 198.003906 172.363281 197.910156 172.363281 C 196.984375 172.363281 196.171875 171.6875 196.027344 170.746094 Z M 204.03125 181.582031 L 196.652344 182.707031 C 196.558594 182.722656 196.460938 182.730469 196.363281 182.730469 C 195.4375 182.730469 194.628906 182.054688 194.484375 181.113281 C 194.324219 180.070312 195.039062 179.101562 196.078125 178.941406 L 203.457031 177.816406 C 204.492188 177.65625 205.46875 178.371094 205.625 179.410156 C 205.785156 180.449219 205.070312 181.421875 204.03125 181.582031 Z M 205 188.039062 L 212.378906 186.914062 C 213.417969 186.753906 214.390625 187.46875 214.546875 188.507812 C 214.707031 189.546875 213.992188 190.519531 212.953125 190.679688 L 205.578125 191.804688 C 205.480469 191.820312 205.382812 191.828125 205.285156 191.828125 C 204.363281 191.828125 203.550781 191.152344 203.40625 190.210938 C 203.246094 189.167969 203.960938 188.199219 205 188.039062 Z M 74.476562 117.738281 C 75.042969 116.851562 76.222656 116.59375 77.109375 117.15625 C 78.015625 117.738281 86 122.976562 87.15625 128.523438 C 87.839844 131.796875 87.476562 134.21875 87.125 136.566406 C 86.902344 138.039062 86.695312 139.429688 86.75 141.035156 C 86.871094 144.746094 90.035156 148.773438 90.066406 148.816406 C 90.71875 149.636719 90.582031 150.835938 89.757812 151.488281 C 89.410156 151.769531 88.988281 151.902344 88.574219 151.902344 C 88.015625 151.902344 87.460938 151.660156 87.085938 151.1875 C 86.921875 150.984375 83.109375 146.144531 82.941406 141.164062 C 82.875 139.210938 83.121094 137.578125 83.355469 136 C 83.6875 133.804688 83.96875 131.90625 83.425781 129.304688 C 82.800781 126.296875 77.960938 122.226562 75.054688 120.367188 C 74.171875 119.800781 73.910156 118.621094 74.476562 117.738281 Z M 87.277344 117.335938 C 86.582031 116.546875 86.65625 115.34375 87.445312 114.648438 C 88.234375 113.953125 89.441406 114.027344 90.136719 114.816406 L 94.191406 119.414062 C 94.886719 120.203125 94.808594 121.40625 94.019531 122.101562 C 93.660156 122.421875 93.210938 122.578125 92.761719 122.578125 C 92.234375 122.578125 91.710938 122.359375 91.332031 121.933594 Z M 71.644531 130.011719 C 70.957031 129.214844 71.039062 128.011719 71.835938 127.324219 C 72.628906 126.632812 73.832031 126.71875 74.519531 127.511719 L 77.386719 130.8125 C 78.078125 131.605469 77.992188 132.808594 77.199219 133.5 C 76.839844 133.8125 76.394531 133.964844 75.953125 133.964844 C 75.417969 133.964844 74.890625 133.742188 74.511719 133.308594 Z M 150 43.769531 C 121.625 43.769531 94.945312 54.816406 74.882812 74.882812 C 54.816406 94.945312 43.769531 121.625 43.769531 150 C 43.769531 178.375 54.816406 205.054688 74.882812 225.117188 C 94.945312 245.183594 121.625 256.230469 150 256.230469 C 178.375 256.230469 205.054688 245.183594 225.117188 225.117188 C 245.183594 205.054688 256.230469 178.375 256.230469 150 C 256.230469 121.625 245.183594 94.945312 225.117188 74.882812 C 205.054688 54.816406 178.375 43.769531 150 43.769531 Z M 150 252.421875 C 93.523438 252.421875 47.578125 206.476562 47.578125 150 C 47.578125 93.523438 93.523438 47.578125 150 47.578125 C 206.476562 47.578125 252.421875 93.523438 252.421875 150 C 252.421875 206.476562 206.476562 252.421875 150 252.421875 Z M 150 30 C 117.945312 30 87.8125 42.480469 65.148438 65.148438 C 42.480469 87.8125 30 117.945312 30 150 C 30 182.054688 42.480469 212.1875 65.148438 234.851562 C 87.8125 257.519531 117.945312 270 150 270 C 182.054688 270 212.1875 257.519531 234.851562 234.851562 C 257.519531 212.1875 270 182.054688 270 150 C 270 117.945312 257.519531 87.8125 234.851562 65.148438 C 212.1875 42.480469 182.054688 30 150 30 Z M 150 266.191406 C 85.933594 266.191406 33.808594 214.066406 33.808594 150 C 33.808594 85.933594 85.933594 33.808594 150 33.808594 C 214.066406 33.808594 266.191406 85.933594 266.191406 150 C 266.191406 214.066406 214.066406 266.191406 150 266.191406 Z M 150 266.191406 " fill-opacity="1" fill-rule="nonzero"/></svg>