<svg xmlns="http://www.w3.org/2000/svg" xmlns:xlink="http://www.w3.org/1999/xlink" width="400" zoomAndPan="magnify" viewBox="0 0 300 299.999988" height="400" preserveAspectRatio="xMidYMid meet" version="1.0"><defs><clipPath id="426ff15a9d"><path d="M 30 61.050781 L 270 61.050781 L 270 238.800781 L 30 238.800781 Z M 30 61.050781 " clip-rule="nonzero"/></clipPath></defs><path fill="#a9a0f0" d="M 69.65625 177.371094 C 91.128906 189.640625 119.664062 196.398438 150 196.398438 C 180.335938 196.398438 208.871094 189.640625 230.34375 177.371094 C 251.9375 165.03125 263.828125 148.582031 263.828125 131.050781 C 263.828125 113.523438 251.9375 97.074219 230.34375 84.734375 C 208.871094 72.464844 180.335938 65.707031 150 65.707031 C 119.664062 65.707031 91.128906 72.464844 69.65625 84.734375 C 48.0625 97.074219 36.171875 113.523438 36.171875 131.050781 C 36.171875 148.582031 48.0625 165.03125 69.65625 177.371094 Z M 81.941406 167.246094 C 81.46875 166.964844 80.953125 166.832031 80.402344 166.847656 C 79.835938 166.867188 79.273438 166.941406 78.722656 167.074219 C 77.804688 167.261719 77.015625 167.425781 76.503906 167.023438 C 75.855469 166.515625 76.027344 165.300781 76.53125 164.363281 C 76.671875 164.101562 76.828125 163.839844 76.984375 163.582031 C 77.542969 162.660156 78.117188 161.707031 78.128906 160.539062 C 78.132812 160.125 78.144531 158.863281 77.238281 158.382812 C 76.140625 157.800781 74.703125 158.792969 72.882812 160.050781 C 71.511719 161 69.632812 162.300781 68.765625 161.992188 C 68.542969 161.894531 68.382812 161.730469 68.292969 161.503906 C 75.128906 156.148438 76.59375 155.550781 78.0625 155.542969 L 78.078125 155.542969 C 79.457031 155.542969 81.074219 156.253906 81.511719 157.621094 C 81.78125 158.472656 81.605469 159.542969 81.4375 160.582031 C 81.179688 162.160156 80.886719 163.949219 82.25 165.171875 C 83.054688 165.890625 84.132812 166.058594 85.085938 166.207031 C 86.054688 166.355469 86.890625 166.484375 87.257812 167.089844 C 87.609375 167.667969 87.378906 168.441406 87.113281 169.332031 C 86.855469 170.046875 86.722656 170.785156 86.714844 171.546875 C 86.804688 173.792969 88.925781 175.179688 90.46875 176.1875 C 91.503906 176.867188 93.152344 178.183594 93.015625 179.621094 L 88.957031 182.882812 C 88.949219 181.972656 88.742188 181.113281 88.328125 180.300781 C 87.984375 179.570312 87.5 178.945312 86.875 178.433594 C 86.25 177.917969 85.546875 177.5625 84.761719 177.363281 C 84.429688 177.289062 84.09375 177.242188 83.765625 177.199219 C 83.066406 177.105469 82.402344 177.011719 81.988281 176.636719 C 81.285156 175.992188 81.417969 174.722656 82.394531 172.753906 C 83.359375 170.8125 83.746094 168.34375 81.941406 167.246094 Z M 150 195.003906 C 127.492188 195.003906 106.511719 191.21875 88.910156 184.714844 L 94.097656 180.542969 C 94.222656 180.441406 94.304688 180.3125 94.339844 180.15625 C 94.742188 178.390625 93.671875 176.617188 91.234375 175.019531 C 89.871094 174.128906 88.175781 173.015625 88.109375 171.488281 C 88.128906 170.882812 88.242188 170.300781 88.449219 169.734375 C 88.769531 168.675781 89.125 167.472656 88.449219 166.363281 C 87.746094 165.207031 86.449219 165.003906 85.304688 164.828125 C 84.464844 164.699219 83.675781 164.574219 83.183594 164.132812 C 82.445312 163.46875 82.550781 162.433594 82.816406 160.808594 C 83.015625 159.609375 83.214844 158.367188 82.839844 157.195312 C 82.171875 155.101562 79.910156 154.148438 78.078125 154.148438 L 78.058594 154.148438 C 76.046875 154.15625 74.167969 155.109375 67.03125 160.71875 C 66.785156 160.914062 66.707031 161.160156 66.792969 161.460938 C 66.871094 161.875 67.046875 162.246094 67.3125 162.574219 C 67.578125 162.898438 67.90625 163.144531 68.292969 163.308594 C 69.832031 163.855469 71.789062 162.507812 73.679688 161.199219 C 74.554688 160.59375 76.1875 159.46875 76.582031 159.613281 C 76.582031 159.613281 76.742188 159.773438 76.734375 160.527344 C 76.726562 161.3125 76.273438 162.0625 75.789062 162.859375 C 75.621094 163.140625 75.453125 163.417969 75.300781 163.703125 C 74.519531 165.15625 74.320312 167.089844 75.640625 168.125 C 76.664062 168.925781 77.90625 168.671875 79.003906 168.445312 C 79.855469 168.269531 80.664062 168.101562 81.214844 168.441406 C 82.285156 169.09375 81.671875 171.070312 81.144531 172.136719 C 80.671875 173.089844 79.226562 176 81.046875 177.667969 C 81.78125 178.34375 82.738281 178.472656 83.582031 178.585938 C 83.886719 178.625 84.179688 178.667969 84.453125 178.726562 C 85.03125 178.882812 85.550781 179.152344 86.007812 179.539062 C 86.46875 179.921875 86.828125 180.386719 87.082031 180.929688 C 87.617188 181.957031 87.707031 183.023438 87.339844 184.128906 C 74.785156 179.316406 64.027344 173.101562 55.753906 165.886719 C 54.914062 165.066406 54.207031 164.148438 53.628906 163.128906 C 53.054688 162.105469 52.632812 161.027344 52.367188 159.886719 C 52.097656 158.742188 51.996094 157.589844 52.0625 156.417969 C 52.125 155.246094 52.355469 154.109375 52.746094 153.003906 C 52.964844 152.425781 53.207031 151.839844 53.453125 151.242188 C 54.890625 147.734375 56.519531 143.757812 54.613281 140.296875 C 53.546875 138.367188 51.601562 137.050781 49.71875 135.78125 C 47.261719 134.121094 45.140625 132.691406 45.351562 130.289062 C 45.515625 128.386719 47.394531 126.972656 49.160156 126.558594 C 51.1875 126.078125 53.417969 126.5 55.386719 126.871094 C 55.558594 126.90625 55.71875 126.878906 55.867188 126.792969 C 56.019531 126.707031 56.125 126.582031 56.179688 126.417969 C 56.238281 126.253906 56.234375 126.09375 56.171875 125.933594 C 56.109375 125.769531 56 125.648438 55.847656 125.570312 C 55.34375 125.273438 54.949219 124.875 54.660156 124.371094 C 54.367188 123.867188 54.222656 123.324219 54.21875 122.746094 C 54.175781 121.804688 54.351562 120.90625 54.753906 120.054688 C 55.152344 119.203125 55.730469 118.492188 56.484375 117.925781 C 59.171875 116.070312 62.816406 116.253906 66.308594 116.601562 C 69.828125 116.953125 73.824219 117.351562 77.101562 115.378906 C 80.089844 113.582031 82.117188 111.074219 82.660156 108.5 C 83.40625 104.976562 85.417969 103.796875 87.75 102.429688 C 89.570312 101.359375 91.453125 100.257812 92.746094 97.953125 C 93.488281 96.476562 94.101562 94.949219 94.585938 93.371094 C 95.789062 89.859375 97.15625 85.875 99.722656 85.644531 C 100.695312 85.597656 101.664062 85.65625 102.625 85.828125 C 103.953125 86.003906 105.324219 86.191406 106.707031 85.871094 C 110.019531 85.097656 111.644531 82.039062 113.214844 79.078125 C 114.625 76.425781 115.957031 73.914062 118.378906 72.957031 C 121.417969 71.753906 124.460938 73.5625 127.679688 75.476562 C 130.757812 77.304688 133.9375 79.199219 137.414062 78.609375 C 140.015625 78.167969 142.007812 76.433594 143.933594 74.753906 C 145.675781 73.234375 147.324219 71.800781 149.359375 71.28125 C 152.765625 70.414062 156.191406 72.394531 158.464844 74.210938 C 159.378906 74.941406 160.273438 75.75 161.136719 76.535156 C 162.871094 78.105469 164.667969 79.734375 166.792969 80.882812 C 171.3125 83.320312 176.558594 83.269531 181.636719 83.222656 C 182.347656 83.214844 183.039062 83.195312 183.757812 83.207031 C 188.441406 83.207031 195.101562 83.714844 198.84375 88.082031 C 200.484375 90 201.46875 92.5625 202.417969 95.039062 C 203.804688 98.660156 205.242188 102.40625 208.769531 104.242188 C 211.546875 105.691406 214.753906 105.441406 217.855469 105.203125 C 221.1875 104.945312 224.335938 104.703125 226.746094 106.496094 C 229.128906 108.269531 229.855469 111.34375 230.621094 114.601562 C 231.410156 117.953125 232.226562 121.421875 235.011719 123.5 C 236.984375 124.976562 239.402344 125.3125 241.742188 125.636719 C 243.28125 125.789062 244.785156 126.113281 246.246094 126.609375 C 247.089844 126.933594 247.867188 127.375 248.578125 127.929688 C 249.292969 128.484375 249.910156 129.128906 250.433594 129.867188 C 250.953125 130.601562 251.359375 131.398438 251.648438 132.253906 C 251.9375 133.109375 252.097656 133.988281 252.128906 134.890625 C 252.160156 135.792969 252.058594 136.679688 251.828125 137.550781 C 251.597656 138.425781 251.25 139.246094 250.777344 140.015625 C 250.304688 140.785156 249.734375 141.472656 249.058594 142.074219 C 248.386719 142.675781 247.640625 143.167969 246.824219 143.550781 C 246.65625 143.628906 246.539062 143.757812 246.46875 143.929688 C 246.402344 144.101562 246.402344 144.277344 246.472656 144.449219 C 249.960938 152.976562 248.113281 161.460938 241.273438 168.347656 C 220.84375 184.480469 187.542969 195.003906 150 195.003906 Z M 150 67.101562 C 211.996094 67.101562 262.433594 95.789062 262.433594 131.050781 C 262.433594 143.015625 256.621094 154.21875 246.53125 163.804688 C 247.378906 162.359375 248.054688 160.835938 248.554688 159.238281 C 249.058594 157.636719 249.371094 156.003906 249.5 154.332031 C 249.625 152.660156 249.5625 150.996094 249.3125 149.339844 C 249.058594 147.683594 248.625 146.074219 248.003906 144.515625 C 248.890625 144.03125 249.695312 143.433594 250.410156 142.71875 C 251.125 142.003906 251.726562 141.203125 252.214844 140.316406 C 252.703125 139.433594 253.054688 138.496094 253.277344 137.507812 C 253.496094 136.519531 253.574219 135.523438 253.507812 134.511719 C 253.441406 133.503906 253.234375 132.523438 252.890625 131.574219 C 252.542969 130.625 252.070312 129.742188 251.472656 128.925781 C 250.875 128.109375 250.175781 127.394531 249.375 126.777344 C 248.570312 126.164062 247.699219 125.671875 246.753906 125.304688 C 245.191406 124.769531 243.585938 124.417969 241.9375 124.253906 C 239.671875 123.9375 237.53125 123.640625 235.847656 122.382812 C 233.472656 120.605469 232.746094 117.535156 231.980469 114.28125 C 231.191406 110.925781 230.375 107.453125 227.578125 105.375 C 224.75 103.273438 221.191406 103.546875 217.75 103.8125 C 214.710938 104.046875 211.835938 104.269531 209.417969 103.007812 C 206.359375 101.414062 205.078125 98.074219 203.722656 94.542969 C 202.730469 91.953125 201.703125 89.273438 199.90625 87.175781 C 195.789062 82.371094 188.71875 81.8125 183.757812 81.8125 L 183.742188 81.8125 C 183.039062 81.8125 182.332031 81.820312 181.621094 81.828125 C 176.722656 81.875 171.65625 81.921875 167.457031 79.65625 C 165.480469 78.585938 163.824219 77.089844 162.074219 75.5 C 161.195312 74.703125 160.285156 73.878906 159.339844 73.125 C 156.816406 71.105469 152.980469 68.917969 149.015625 69.929688 C 146.65625 70.53125 144.808594 72.144531 143.015625 73.703125 C 141.15625 75.324219 139.398438 76.855469 137.183594 77.230469 C 134.214844 77.734375 131.257812 75.976562 128.398438 74.277344 C 125.027344 72.273438 121.542969 70.203125 117.863281 71.660156 C 114.964844 72.808594 113.449219 75.664062 111.984375 78.421875 C 110.496094 81.230469 109.085938 83.882812 106.390625 84.511719 C 105.261719 84.773438 104.074219 84.613281 102.8125 84.441406 C 101.75 84.257812 100.679688 84.195312 99.601562 84.253906 C 96.132812 84.566406 94.609375 89.003906 93.265625 92.921875 C 92.804688 94.417969 92.226562 95.867188 91.53125 97.269531 C 90.421875 99.246094 88.785156 100.207031 87.046875 101.226562 C 84.648438 102.632812 82.171875 104.085938 81.296875 108.210938 C 80.832031 110.410156 79.042969 112.585938 76.382812 114.183594 C 73.503906 115.917969 69.757812 115.542969 66.449219 115.214844 C 62.695312 114.839844 58.773438 114.652344 55.691406 116.777344 C 54.738281 117.480469 54.007812 118.367188 53.496094 119.441406 C 52.988281 120.511719 52.765625 121.640625 52.824219 122.824219 C 52.859375 123.640625 53.074219 124.40625 53.464844 125.125 C 51.921875 124.859375 50.378906 124.882812 48.84375 125.195312 C 46.65625 125.710938 44.195312 127.488281 43.964844 130.167969 C 43.683594 133.386719 46.355469 135.191406 48.9375 136.9375 C 50.683594 138.113281 52.492188 139.332031 53.394531 140.972656 C 54.976562 143.847656 53.546875 147.335938 52.164062 150.710938 C 51.914062 151.316406 51.667969 151.917969 51.445312 152.503906 C 50.90625 154.019531 50.640625 155.585938 50.652344 157.195312 C 50.664062 158.804688 50.953125 160.363281 51.515625 161.871094 C 42.632812 152.726562 37.566406 142.21875 37.566406 131.050781 C 37.566406 95.789062 88.003906 67.101562 150 67.101562 Z M 150 67.101562 " fill-opacity="1" fill-rule="nonzero"/><g clip-path="url(#426ff15a9d)"><path fill="#a9a0f0" d="M 269.882812 133.675781 C 269.882812 114.210938 257.363281 95.933594 234.636719 82.21875 C 212.019531 68.566406 181.960938 61.050781 150 61.050781 C 118.039062 61.050781 87.980469 68.566406 65.363281 82.21875 C 42.636719 95.933594 30.117188 114.210938 30.117188 133.675781 C 30.117188 145.746094 34.933594 157.351562 44.003906 167.703125 C 50.582031 185.054688 64.160156 199.996094 83.289062 210.917969 C 87.558594 213.347656 91.957031 215.511719 96.492188 217.402344 L 91.570312 224.171875 C 91.511719 224.253906 91.472656 224.347656 91.453125 224.449219 C 91.433594 224.550781 91.433594 224.648438 91.460938 224.75 C 91.484375 224.847656 91.527344 224.941406 91.59375 225.019531 C 91.65625 225.101562 91.734375 225.164062 91.828125 225.207031 C 92.101562 225.34375 119.511719 238.710938 150 238.949219 C 159.777344 238.949219 182.664062 238.949219 206.355469 226.21875 C 206.535156 226.125 206.648438 225.980469 206.703125 225.78125 C 206.753906 225.585938 206.722656 225.402344 206.617188 225.234375 L 202.722656 219.0625 C 210.25 216.308594 217.429688 212.835938 224.257812 208.640625 C 244.230469 196.261719 257.589844 178.945312 261.902344 159.859375 C 267.144531 151.621094 269.882812 142.78125 269.882812 133.675781 Z M 150 62.445312 C 215.332031 62.445312 268.484375 94.402344 268.484375 133.675781 C 268.484375 172.953125 215.332031 204.90625 150 204.90625 C 84.667969 204.90625 31.515625 172.953125 31.515625 133.675781 C 31.515625 94.402344 84.667969 62.445312 150 62.445312 Z M 205.035156 225.34375 C 181.890625 237.554688 159.578125 237.554688 150.007812 237.554688 C 122.652344 237.339844 97.78125 226.433594 93.199219 224.3125 L 97.824219 217.945312 C 114.066406 224.519531 132.300781 227.957031 151.398438 227.957031 C 168.929688 227.957031 186.03125 225.039062 201.382812 219.554688 Z M 223.523438 207.453125 C 203.644531 219.773438 178.027344 226.558594 151.398438 226.558594 C 102.988281 226.558594 61.539062 204.234375 46.707031 170.621094 C 52.3125 176.25 58.53125 181.089844 65.363281 185.136719 C 87.980469 198.789062 118.039062 206.304688 150 206.304688 C 181.960938 206.304688 212.019531 198.789062 234.636719 185.136719 C 245.265625 178.722656 253.65625 171.3125 259.585938 163.25 C 254.542969 180.5 241.875 196.082031 223.523438 207.453125 Z M 223.523438 207.453125 " fill-opacity="1" fill-rule="nonzero"/></g><path fill="#a9a0f0" d="M 211.964844 145.742188 C 212.914062 145.390625 214.675781 144.738281 215.183594 143.15625 C 215.707031 141.523438 214.675781 139.769531 212.351562 138.347656 C 210.984375 137.507812 209.53125 136.511719 209.621094 135.222656 C 209.628906 135.070312 209.59375 134.925781 209.507812 134.796875 C 209.421875 134.664062 209.308594 134.574219 209.164062 134.519531 C 209.015625 134.46875 208.867188 134.464844 208.71875 134.507812 C 208.570312 134.554688 208.453125 134.636719 208.359375 134.761719 C 208.136719 135.03125 207.886719 135.273438 207.609375 135.484375 C 207.335938 135.699219 207.039062 135.882812 206.726562 136.035156 C 206.410156 136.1875 206.085938 136.304688 205.746094 136.386719 C 205.40625 136.46875 205.0625 136.515625 204.714844 136.523438 C 204.367188 136.535156 204.019531 136.507812 203.675781 136.441406 C 203.332031 136.378906 203 136.28125 202.679688 136.144531 C 202.355469 136.011719 202.054688 135.84375 201.765625 135.644531 C 201.480469 135.445312 201.21875 135.21875 200.976562 134.964844 C 200.035156 133.820312 199.675781 132.3125 199.296875 130.714844 C 198.910156 129.089844 198.511719 127.40625 197.449219 126.03125 C 196.816406 125.273438 196.101562 124.605469 195.304688 124.027344 C 194.769531 123.628906 194.269531 123.199219 193.796875 122.730469 C 192.40625 121.289062 191.679688 119.226562 191.035156 117.410156 C 190.34375 115.453125 189.558594 113.242188 187.964844 111.582031 C 186.226562 109.773438 183.511719 108.996094 181.550781 108.871094 C 181.253906 108.847656 181.035156 108.964844 180.894531 109.230469 C 180.597656 109.800781 180.347656 110.390625 180.148438 111 C 179.949219 111.613281 179.804688 112.238281 179.707031 112.871094 C 179.613281 113.507812 179.570312 114.148438 179.582031 114.789062 C 179.597656 115.433594 179.660156 116.070312 179.78125 116.703125 C 179.898438 117.335938 180.066406 117.953125 180.289062 118.554688 C 180.511719 119.160156 180.78125 119.742188 181.101562 120.296875 C 181.421875 120.855469 181.78125 121.386719 182.191406 121.882812 C 182.597656 122.378906 183.042969 122.839844 183.527344 123.265625 C 183.914062 123.585938 184.324219 123.890625 184.726562 124.183594 C 185.902344 125.050781 187.011719 125.867188 187.390625 127.070312 C 187.683594 128.003906 187.484375 129.03125 187.277344 130.121094 C 187.148438 130.726562 187.058594 131.335938 187.003906 131.953125 C 186.96875 132.6875 187.035156 133.410156 187.203125 134.125 C 187.371094 134.839844 187.632812 135.515625 187.992188 136.15625 C 188.351562 136.792969 188.789062 137.371094 189.3125 137.886719 C 189.832031 138.402344 190.417969 138.835938 191.0625 139.1875 C 191.933594 139.609375 192.835938 139.941406 193.773438 140.1875 C 194.808594 140.347656 195.761719 140.722656 196.628906 141.3125 C 197.496094 141.902344 198.195312 142.648438 198.722656 143.554688 C 199.277344 144.375 199.925781 145.113281 200.667969 145.765625 C 202.011719 146.820312 203.539062 147.316406 205.246094 147.261719 C 207.433594 147.261719 209.78125 146.550781 211.964844 145.742188 Z M 199.847656 142.726562 C 199.226562 141.699219 198.421875 140.847656 197.429688 140.167969 C 196.441406 139.492188 195.351562 139.050781 194.167969 138.847656 C 193.320312 138.628906 192.5 138.328125 191.710938 137.953125 C 191.183594 137.664062 190.707031 137.3125 190.28125 136.890625 C 189.855469 136.46875 189.496094 136 189.203125 135.476562 C 188.914062 134.953125 188.699219 134.402344 188.558594 133.820312 C 188.421875 133.234375 188.371094 132.644531 188.398438 132.046875 C 188.449219 131.488281 188.535156 130.933594 188.652344 130.382812 C 188.882812 129.171875 189.121094 127.917969 188.722656 126.652344 C 188.207031 125.015625 186.859375 124.023438 185.554688 123.0625 C 185.15625 122.765625 184.777344 122.488281 184.421875 122.195312 C 181.113281 119.425781 180.035156 114.1875 181.914062 110.304688 C 183.917969 110.527344 185.824219 111.367188 186.960938 112.554688 C 188.34375 113.996094 189.074219 116.058594 189.71875 117.875 C 190.410156 119.828125 191.191406 122.042969 192.792969 123.699219 C 193.308594 124.214844 193.859375 124.691406 194.441406 125.128906 C 195.148438 125.636719 195.785156 126.21875 196.34375 126.882812 C 197.226562 128.023438 197.574219 129.488281 197.941406 131.039062 C 198.339844 132.71875 198.753906 134.457031 199.902344 135.855469 C 200.507812 136.554688 201.238281 137.082031 202.089844 137.445312 C 202.941406 137.808594 203.828125 137.96875 204.753906 137.921875 C 206.144531 137.894531 207.394531 137.457031 208.5 136.609375 C 209.128906 138.011719 210.6875 138.964844 211.625 139.539062 C 212.261719 139.929688 214.308594 141.3125 213.855469 142.734375 C 213.578125 143.59375 212.484375 144.0625 211.484375 144.433594 C 208.007812 145.71875 204.113281 146.753906 201.550781 144.683594 C 200.898438 144.101562 200.332031 143.453125 199.847656 142.726562 Z M 199.847656 142.726562 " fill-opacity="1" fill-rule="nonzero"/><path fill="#a9a0f0" d="M 145.347656 180.792969 C 145.890625 180.792969 146.410156 180.691406 146.910156 180.480469 C 148.320312 179.886719 149.207031 178.53125 149.855469 177.539062 L 154.585938 170.289062 C 157.191406 166.292969 159.890625 162.15625 161.710938 157.609375 C 162.160156 156.484375 162.527344 155.28125 162.160156 154.089844 C 161.765625 152.828125 160.421875 152.042969 158.078125 150.761719 C 157.984375 150.710938 157.886719 150.683594 157.78125 150.675781 C 157.671875 150.671875 157.570312 150.6875 157.472656 150.730469 C 157.375 150.773438 157.289062 150.832031 157.21875 150.910156 C 157.148438 150.992188 157.101562 151.082031 157.070312 151.183594 C 155.640625 156.265625 154.160156 161.519531 151.734375 166.285156 C 149.0625 171.542969 145.476562 175.542969 141.363281 177.855469 C 141.269531 177.910156 141.1875 177.984375 141.128906 178.074219 C 141.066406 178.167969 141.027344 178.269531 141.011719 178.378906 C 141 178.488281 141.011719 178.597656 141.046875 178.699219 C 141.085938 178.804688 141.144531 178.894531 141.226562 178.972656 C 142.367188 180.101562 143.742188 180.707031 145.347656 180.792969 Z M 152.980469 166.917969 C 155.328125 162.300781 156.796875 157.292969 158.175781 152.414062 C 159.695312 153.261719 160.625 153.878906 160.824219 154.507812 C 161.050781 155.238281 160.824219 156.066406 160.414062 157.09375 C 158.644531 161.511719 155.984375 165.585938 153.414062 169.527344 L 148.683594 176.777344 C 147.972656 177.867188 147.308594 178.800781 146.367188 179.199219 C 145.210938 179.683594 143.914062 179.234375 142.921875 178.554688 C 146.90625 176.050781 150.371094 172.050781 152.980469 166.917969 Z M 152.980469 166.917969 " fill-opacity="1" fill-rule="nonzero"/><path fill="#a9a0f0" d="M 126.515625 169.019531 C 126.492188 168.824219 126.40625 168.667969 126.25 168.546875 L 113.265625 158.5 C 114.992188 158.433594 116.707031 158.558594 118.40625 158.863281 C 118.503906 158.882812 118.605469 158.878906 118.703125 158.855469 C 118.800781 158.828125 118.886719 158.785156 118.964844 158.722656 C 119.046875 158.660156 119.109375 158.585938 119.152344 158.496094 C 119.199219 158.40625 119.226562 158.308594 119.230469 158.210938 C 119.375 155.160156 119.507812 152.285156 120.804688 149.863281 C 120.859375 149.757812 120.886719 149.644531 120.886719 149.527344 C 120.886719 149.410156 120.855469 149.300781 120.800781 149.195312 C 120.742188 149.09375 120.664062 149.007812 120.566406 148.945312 C 120.464844 148.882812 120.355469 148.847656 120.238281 148.835938 L 109.203125 148.058594 C 108.988281 148.042969 108.804688 148.113281 108.652344 148.273438 C 108.503906 148.429688 108.4375 148.613281 108.460938 148.832031 C 108.679688 150.875 108.753906 152.921875 108.695312 154.976562 C 107.121094 153.828125 105.796875 153.574219 104.765625 154.242188 C 103.828125 154.847656 103.574219 155.941406 103.347656 156.90625 C 103.097656 157.953125 102.933594 158.460938 102.480469 158.582031 C 102.183594 158.660156 102.011719 158.847656 101.96875 159.152344 C 101.921875 159.453125 102.027344 159.6875 102.289062 159.847656 C 109.902344 164.605469 117.128906 169.890625 123.96875 175.710938 C 124.085938 175.808594 124.21875 175.863281 124.371094 175.875 C 124.527344 175.886719 124.667969 175.847656 124.796875 175.765625 C 124.925781 175.683594 125.019531 175.570312 125.074219 175.425781 C 125.128906 175.28125 125.132812 175.136719 125.09375 174.988281 C 124.839844 174.03125 124.828125 173.070312 125.050781 172.105469 C 125.277344 171.140625 125.714844 170.285156 126.367188 169.539062 C 126.492188 169.386719 126.539062 169.214844 126.515625 169.019531 Z M 119.121094 150.160156 C 118.195312 152.398438 117.996094 154.898438 117.871094 157.359375 C 115.789062 157.050781 113.695312 157.003906 111.601562 157.210938 L 110.042969 156.007812 C 110.15625 153.839844 110.117188 151.671875 109.929688 149.511719 Z M 123.480469 173.472656 C 117.273438 168.296875 110.753906 163.546875 103.917969 159.226562 C 104.324219 158.613281 104.585938 157.949219 104.703125 157.222656 C 104.886719 156.445312 105.058594 155.710938 105.523438 155.414062 C 106.054688 155.070312 106.914062 155.351562 108.078125 156.25 L 108.609375 156.664062 C 108.578125 157.179688 108.535156 157.695312 108.484375 158.210938 C 108.464844 158.414062 108.523438 158.59375 108.660156 158.75 C 108.800781 158.902344 108.972656 158.980469 109.179688 158.980469 C 109.226562 158.980469 109.273438 158.972656 109.320312 158.964844 C 109.9375 158.835938 110.5625 158.742188 111.191406 158.664062 L 124.851562 169.238281 C 123.953125 170.503906 123.496094 171.917969 123.480469 173.472656 Z M 123.480469 173.472656 " fill-opacity="1" fill-rule="nonzero"/><path fill="#a9a0f0" d="M 72.929688 140.066406 C 72.84375 139.878906 72.703125 139.757812 72.507812 139.695312 C 72.316406 139.632812 72.128906 139.648438 71.953125 139.75 C 69.285156 141.253906 66.769531 142.671875 63.417969 143.394531 C 63.300781 143.421875 63.195312 143.472656 63.105469 143.550781 C 63.015625 143.632812 62.949219 143.726562 62.90625 143.839844 C 62.867188 143.953125 62.855469 144.070312 62.875 144.1875 C 62.894531 144.308594 62.941406 144.414062 63.015625 144.507812 C 65.738281 147.976562 67.933594 151.75 69.601562 155.832031 C 69.640625 155.929688 69.703125 156.019531 69.785156 156.089844 C 69.867188 156.164062 69.960938 156.214844 70.066406 156.242188 C 70.171875 156.269531 70.28125 156.273438 70.386719 156.25 C 70.496094 156.226562 70.589844 156.183594 70.675781 156.117188 C 72.820312 154.4375 75.234375 153.371094 77.921875 152.921875 C 78.03125 152.90625 78.128906 152.863281 78.214844 152.800781 C 78.304688 152.734375 78.375 152.65625 78.425781 152.558594 C 78.476562 152.464844 78.503906 152.359375 78.503906 152.25 C 78.507812 152.140625 78.488281 152.039062 78.441406 151.941406 Z M 70.546875 154.472656 C 69.019531 150.921875 67.09375 147.597656 64.773438 144.503906 C 67.3125 143.757812 69.714844 142.699219 71.980469 141.335938 L 76.800781 151.71875 C 74.535156 152.222656 72.449219 153.140625 70.546875 154.472656 Z M 70.546875 154.472656 " fill-opacity="1" fill-rule="nonzero"/><path fill="#a9a0f0" d="M 147.53125 92.265625 C 153.34375 95.78125 158.609375 99.984375 163.324219 104.875 L 163.519531 105.078125 C 164.972656 106.589844 166.476562 108.152344 168.566406 108.742188 C 169.25 108.917969 169.941406 109.027344 170.648438 109.074219 C 171.144531 109.113281 171.636719 109.179688 172.125 109.273438 C 173.007812 109.457031 174.03125 109.96875 174.277344 110.835938 C 174.355469 111.105469 174.53125 111.273438 174.804688 111.332031 C 174.953125 111.363281 175.105469 111.378906 175.257812 111.378906 C 175.949219 111.363281 176.523438 111.101562 176.984375 110.585938 C 177.347656 110.207031 177.597656 109.765625 177.730469 109.261719 C 177.867188 108.753906 177.875 108.25 177.753906 107.738281 C 177.378906 106.359375 176.128906 105.226562 174.320312 104.625 C 173.726562 104.4375 173.125 104.28125 172.515625 104.15625 C 171.785156 104.011719 171.070312 103.808594 170.371094 103.546875 C 168.289062 102.683594 166.789062 100.746094 165.34375 98.871094 C 165.027344 98.460938 164.714844 98.054688 164.394531 97.660156 C 162.507812 95.316406 160.339844 93.277344 157.882812 91.539062 C 155.429688 89.800781 152.785156 88.429688 149.949219 87.425781 C 149.773438 87.363281 149.601562 87.371094 149.433594 87.445312 C 149.265625 87.523438 149.144531 87.644531 149.070312 87.8125 C 148.585938 89.027344 147.996094 90.1875 147.300781 91.296875 C 147.195312 91.460938 147.167969 91.640625 147.210938 91.828125 C 147.257812 92.019531 147.363281 92.164062 147.53125 92.265625 Z M 150.097656 88.964844 C 152.683594 89.945312 155.101562 91.242188 157.34375 92.867188 C 159.582031 94.488281 161.574219 96.378906 163.308594 98.535156 C 163.621094 98.921875 163.929688 99.320312 164.238281 99.722656 C 165.800781 101.742188 167.410156 103.832031 169.84375 104.835938 C 170.613281 105.128906 171.398438 105.355469 172.207031 105.515625 C 172.792969 105.648438 173.347656 105.773438 173.882812 105.949219 C 174.523438 106.164062 176.050781 106.796875 176.40625 108.101562 C 176.527344 108.6875 176.382812 109.191406 175.972656 109.625 C 175.824219 109.789062 175.644531 109.898438 175.429688 109.957031 C 174.933594 108.957031 173.84375 108.207031 172.414062 107.90625 C 171.875 107.800781 171.328125 107.726562 170.78125 107.683594 C 170.160156 107.644531 169.550781 107.550781 168.945312 107.398438 C 167.222656 106.910156 165.851562 105.488281 164.527344 104.109375 L 164.332031 103.90625 C 159.695312 99.097656 154.535156 94.941406 148.851562 91.4375 C 149.316406 90.640625 149.734375 89.816406 150.097656 88.964844 Z M 150.097656 88.964844 " fill-opacity="1" fill-rule="nonzero"/><path fill="#a9a0f0" d="M 210.058594 158.859375 C 209.894531 158.785156 209.726562 158.777344 209.554688 158.832031 C 209.386719 158.886719 209.253906 158.988281 209.164062 159.144531 L 205.464844 165.488281 C 205.367188 165.648438 205.34375 165.824219 205.390625 166.007812 C 205.433594 166.191406 205.539062 166.332031 205.699219 166.429688 C 207.527344 167.566406 208.964844 169.078125 210.003906 170.960938 C 210.136719 171.203125 210.339844 171.324219 210.617188 171.324219 C 210.632812 171.324219 210.652344 171.324219 210.671875 171.324219 C 210.972656 171.300781 211.171875 171.144531 211.273438 170.859375 C 212.117188 168.289062 213.4375 165.992188 215.230469 163.964844 C 215.347656 163.84375 215.410156 163.695312 215.421875 163.527344 C 215.433594 163.355469 215.386719 163.203125 215.285156 163.066406 C 213.902344 161.21875 212.15625 159.816406 210.058594 158.859375 Z M 210.464844 169.066406 C 209.519531 167.707031 208.363281 166.558594 207.003906 165.617188 L 210.046875 160.40625 C 211.507812 161.167969 212.761719 162.179688 213.8125 163.449219 C 212.394531 165.140625 211.277344 167.015625 210.464844 169.066406 Z M 210.464844 169.066406 " fill-opacity="1" fill-rule="nonzero"/><path fill="#a9a0f0" d="M 198.691406 179.8125 C 196.128906 179.277344 193.757812 177.363281 191.4375 173.960938 C 190.953125 173.253906 190.480469 172.511719 190.023438 171.789062 C 188.671875 169.667969 187.28125 167.472656 185.347656 165.75 C 184.753906 165.21875 184.117188 164.742188 183.503906 164.28125 C 182.726562 163.726562 181.996094 163.121094 181.304688 162.464844 C 180.6875 161.851562 179.289062 160.222656 179.582031 158.390625 C 179.734375 157.710938 179.980469 157.0625 180.316406 156.449219 C 180.800781 155.453125 181.296875 154.421875 181.183594 153.21875 C 180.886719 150.085938 176.910156 149.078125 175.601562 148.746094 C 175.308594 148.671875 175.070312 148.753906 174.882812 148.992188 C 173.476562 150.785156 172.90625 153.386719 173.320312 156.128906 C 173.683594 158.523438 174.671875 160.722656 175.628906 162.851562 C 176.78125 165.425781 177.976562 168.085938 179.78125 170.382812 C 181.222656 172.109375 182.816406 173.683594 184.558594 175.105469 C 186.433594 176.734375 188.203125 178.277344 189.574219 180.203125 C 189.738281 180.4375 189.898438 180.671875 190.066406 180.914062 C 191.109375 182.4375 192.289062 184.164062 194.273438 184.507812 C 194.457031 184.542969 194.644531 184.558594 194.832031 184.554688 C 195.753906 184.535156 196.574219 184.238281 197.296875 183.664062 C 198.363281 182.894531 199.011719 181.863281 199.242188 180.570312 C 199.261719 180.390625 199.21875 180.230469 199.113281 180.085938 C 199.007812 179.9375 198.867188 179.847656 198.691406 179.8125 Z M 196.457031 182.550781 C 195.890625 183.027344 195.242188 183.21875 194.511719 183.136719 C 193.105469 182.890625 192.148438 181.484375 191.21875 180.128906 C 191.046875 179.878906 190.878906 179.632812 190.710938 179.394531 C 189.242188 177.335938 187.328125 175.667969 185.472656 174.054688 C 183.800781 172.6875 182.269531 171.175781 180.875 169.519531 C 179.179688 167.359375 178.019531 164.777344 176.898438 162.28125 C 175.984375 160.238281 175.035156 158.128906 174.703125 155.921875 C 174.371094 153.746094 174.742188 151.699219 175.714844 150.222656 C 178.328125 150.953125 179.660156 151.980469 179.792969 153.351562 C 179.871094 154.164062 179.476562 154.980469 179.058594 155.839844 C 178.65625 156.574219 178.371094 157.351562 178.203125 158.171875 C 177.925781 159.910156 178.695312 161.835938 180.316406 163.453125 C 181.054688 164.15625 181.835938 164.804688 182.664062 165.398438 C 183.285156 165.863281 183.867188 166.300781 184.417969 166.789062 C 186.203125 168.386719 187.484375 170.402344 188.84375 172.539062 C 189.308594 173.269531 189.785156 174.023438 190.28125 174.75 C 192.609375 178.160156 195.042969 180.214844 197.695312 181 C 197.414062 181.625 197.003906 182.140625 196.457031 182.550781 Z M 196.457031 182.550781 " fill-opacity="1" fill-rule="nonzero"/><path fill="#a9a0f0" d="M 221.386719 134.535156 C 220.363281 134.476562 219.832031 135.347656 219.367188 136.113281 C 218.914062 136.863281 218.441406 137.640625 217.507812 138.007812 C 217.25 138.109375 217.105469 138.296875 217.070312 138.570312 C 217.035156 138.84375 217.128906 139.0625 217.351562 139.222656 C 218.925781 140.367188 219.9375 142.503906 220.128906 145.082031 C 220.207031 146.785156 220.125 148.480469 219.886719 150.167969 C 219.8125 150.863281 219.738281 151.558594 219.683594 152.25 C 219.59375 153.003906 219.800781 153.660156 220.308594 154.222656 C 220.542969 154.4375 220.824219 154.546875 221.144531 154.546875 C 221.226562 154.546875 221.308594 154.539062 221.390625 154.523438 C 221.695312 154.453125 221.964844 154.308594 222.195312 154.09375 L 228.484375 148.9375 C 229.113281 148.417969 230.066406 147.636719 230.285156 146.488281 C 230.542969 145.140625 229.730469 143.984375 228.949219 143.007812 L 223 135.574219 C 222.621094 134.984375 222.082031 134.636719 221.386719 134.535156 Z M 228.914062 146.230469 C 228.800781 146.832031 228.226562 147.34375 227.601562 147.859375 L 221.3125 153.019531 C 221.28125 153.042969 221.234375 153.082031 221.195312 153.109375 C 221.09375 152.871094 221.050781 152.621094 221.074219 152.363281 C 221.128906 151.679688 221.203125 151 221.277344 150.316406 C 221.523438 148.546875 221.605469 146.765625 221.523438 144.976562 C 221.332031 142.429688 220.417969 140.230469 218.96875 138.777344 C 219.628906 138.234375 220.160156 137.589844 220.5625 136.835938 C 220.832031 136.390625 221.113281 135.929688 221.3125 135.929688 L 221.320312 135.929688 C 221.503906 135.9375 221.789062 136.292969 221.910156 136.445312 L 227.859375 143.882812 C 228.445312 144.617188 229.0625 145.460938 228.914062 146.230469 Z M 228.914062 146.230469 " fill-opacity="1" fill-rule="nonzero"/><path fill="#a9a0f0" d="M 237.121094 158.507812 C 237.042969 158.378906 236.9375 158.285156 236.800781 158.222656 C 236.660156 158.164062 236.519531 158.148438 236.371094 158.179688 C 230.714844 159.382812 225.09375 159.246094 219.5 157.777344 C 219.207031 157.699219 218.96875 157.78125 218.777344 158.015625 C 218.589844 158.25 218.5625 158.503906 218.699219 158.769531 C 219.324219 159.992188 219.589844 161.289062 219.492188 162.65625 C 219.480469 162.851562 219.539062 163.019531 219.667969 163.167969 C 219.796875 163.3125 219.960938 163.390625 220.15625 163.402344 C 221.710938 163.476562 223.269531 163.515625 224.832031 163.515625 C 229.414062 163.511719 233.96875 163.191406 238.503906 162.546875 C 238.761719 162.507812 238.9375 162.371094 239.039062 162.136719 C 239.144531 161.898438 239.125 161.675781 238.980469 161.457031 C 238.425781 160.621094 237.851562 159.75 237.121094 158.507812 Z M 220.90625 162.039062 C 220.898438 161.15625 220.757812 160.296875 220.488281 159.457031 C 225.703125 160.625 230.929688 160.6875 236.171875 159.648438 C 236.554688 160.28125 236.894531 160.820312 237.214844 161.316406 C 231.800781 162.023438 226.363281 162.261719 220.90625 162.039062 Z M 220.90625 162.039062 " fill-opacity="1" fill-rule="nonzero"/><path fill="#a9a0f0" d="M 207.589844 117.144531 C 207.867188 118.511719 208.148438 119.921875 209.421875 120.761719 C 210.203125 121.199219 211.039062 121.425781 211.9375 121.445312 L 212.171875 121.472656 C 214.070312 121.671875 216.757812 122.285156 218.785156 124.078125 C 220.644531 125.726562 221.554688 128.152344 221.101562 130.261719 C 221.082031 130.363281 221.082031 130.464844 221.105469 130.570312 C 221.132812 130.671875 221.175781 130.765625 221.242188 130.847656 C 221.308594 130.929688 221.390625 130.992188 221.484375 131.039062 C 221.578125 131.082031 221.679688 131.105469 221.785156 131.105469 C 221.851562 131.105469 221.917969 131.097656 221.980469 131.078125 L 223.964844 130.496094 C 224.234375 130.417969 224.394531 130.242188 224.453125 129.96875 C 225.335938 125.667969 223.289062 120.824219 219.230469 117.628906 C 215.375 114.597656 210.464844 113.398438 206.621094 112.695312 C 206.460938 112.664062 206.308594 112.691406 206.164062 112.765625 C 206.023438 112.84375 205.917969 112.957031 205.855469 113.109375 C 205.789062 113.257812 205.78125 113.414062 205.824219 113.570312 C 205.867188 113.726562 205.957031 113.851562 206.089844 113.949219 C 207.089844 114.667969 207.332031 115.871094 207.589844 117.144531 Z M 218.367188 118.730469 C 221.257812 121.003906 223.808594 125.109375 223.160156 129.277344 L 222.609375 129.4375 C 222.621094 128.210938 222.375 127.035156 221.867188 125.914062 C 221.363281 124.796875 220.644531 123.835938 219.714844 123.035156 C 217.886719 121.417969 215.332031 120.398438 212.320312 120.082031 L 212.074219 120.058594 C 211.410156 120.050781 210.78125 119.894531 210.191406 119.59375 C 209.40625 119.074219 209.199219 118.050781 208.960938 116.867188 C 208.824219 116.027344 208.589844 115.21875 208.25 114.441406 C 211.5625 115.164062 215.34375 116.351562 218.367188 118.730469 Z M 218.367188 118.730469 " fill-opacity="1" fill-rule="nonzero"/><path fill="#a9a0f0" d="M 246.050781 141.195312 C 246.222656 140.972656 246.25 140.734375 246.132812 140.476562 C 246.015625 140.21875 245.816406 140.082031 245.53125 140.070312 L 241.839844 139.890625 C 240.957031 139.910156 240.101562 139.753906 239.28125 139.421875 C 238.703125 139.128906 238.144531 138.46875 238.25 137.824219 C 238.421875 136.75 240.132812 136.386719 241.140625 136.265625 C 242.054688 136.152344 244.835938 135.816406 245.320312 133.679688 C 245.683594 132.082031 244.34375 130.582031 242.859375 130.183594 C 241.570312 129.832031 240.242188 130.109375 239.066406 130.355469 L 238.917969 130.386719 C 237.820312 130.613281 236.671875 130.800781 235.71875 130.414062 C 234.386719 129.867188 233.78125 128.394531 233.136719 126.835938 C 232.632812 125.617188 232.117188 124.355469 231.203125 123.371094 C 231.121094 123.285156 231.023438 123.21875 230.90625 123.183594 C 230.789062 123.144531 230.671875 123.140625 230.554688 123.164062 C 230.433594 123.1875 230.328125 123.238281 230.234375 123.320312 C 230.144531 123.398438 230.078125 123.496094 230.035156 123.609375 C 229.222656 125.996094 228.570312 128.425781 228.078125 130.894531 C 228.050781 131.007812 228.054688 131.117188 228.085938 131.226562 C 228.515625 132.835938 230.15625 133.511719 231.476562 134.058594 L 231.6875 134.148438 C 232.53125 134.5 233.902344 135.359375 233.664062 136.347656 C 233.550781 136.828125 233.085938 137.1875 232.542969 137.605469 C 232.03125 137.964844 231.589844 138.394531 231.222656 138.898438 C 230.242188 140.382812 230.8125 142.355469 231.878906 143.535156 C 232.84375 144.601562 234.125 145.199219 235.363281 145.773438 L 235.570312 145.871094 C 236.726562 146.410156 237.914062 147.023438 238.609375 148.011719 C 238.730469 148.183594 238.898438 148.28125 239.105469 148.304688 C 239.132812 148.304688 239.15625 148.308594 239.183594 148.308594 C 239.363281 148.308594 239.519531 148.246094 239.652344 148.125 C 241.980469 145.992188 244.109375 143.683594 246.050781 141.195312 Z M 236.164062 144.605469 L 235.953125 144.507812 C 234.839844 143.992188 233.691406 143.457031 232.914062 142.597656 C 232.226562 141.835938 231.804688 140.546875 232.386719 139.664062 C 232.675781 139.292969 233.011719 138.972656 233.398438 138.710938 C 234.054688 138.203125 234.796875 137.628906 235.023438 136.667969 C 235.445312 134.890625 233.78125 133.503906 232.222656 132.855469 L 232.007812 132.765625 C 230.929688 132.320312 229.8125 131.859375 229.480469 131.011719 C 229.890625 129.164062 230.320312 127.265625 230.921875 125.355469 C 231.269531 126.007812 231.578125 126.675781 231.84375 127.363281 C 232.570312 129.121094 233.316406 130.9375 235.191406 131.703125 C 236.507812 132.242188 237.949219 132.011719 239.203125 131.75 L 239.355469 131.71875 C 240.425781 131.496094 241.527344 131.265625 242.496094 131.527344 C 243.332031 131.753906 244.136719 132.589844 243.957031 133.367188 C 243.777344 134.160156 242.800781 134.652344 240.972656 134.875 C 237.882812 135.246094 237.039062 136.5625 236.871094 137.597656 C 236.648438 138.972656 237.636719 140.148438 238.652344 140.664062 C 239.644531 141.09375 240.6875 141.300781 241.769531 141.28125 L 244.097656 141.394531 C 242.59375 143.234375 240.976562 144.964844 239.246094 146.59375 C 238.34375 145.738281 237.316406 145.078125 236.164062 144.605469 Z M 236.164062 144.605469 " fill-opacity="1" fill-rule="nonzero"/><path fill="#a9a0f0" d="M 173.65625 139.234375 C 174.03125 139.53125 174.414062 139.839844 174.808594 140.125 C 176.242188 141.164062 177.636719 141.695312 178.910156 141.695312 C 179.3125 141.699219 179.703125 141.644531 180.085938 141.535156 C 180.671875 141.34375 181.175781 141.027344 181.597656 140.578125 C 182.019531 140.132812 182.308594 139.613281 182.46875 139.019531 C 182.605469 138.570312 182.617188 138.117188 182.511719 137.664062 C 182.402344 137.207031 182.191406 136.808594 181.867188 136.472656 C 181.761719 136.363281 181.636719 136.296875 181.492188 136.273438 C 179.761719 135.964844 177.796875 135.621094 176.261719 134.640625 C 174.945312 133.796875 173.75 132.195312 174.050781 130.507812 C 174.207031 129.847656 174.441406 129.214844 174.753906 128.609375 C 175.335938 127.335938 176 125.894531 175.222656 124.480469 C 174.742188 123.605469 173.882812 123.160156 173.125 122.761719 C 172.554688 122.527344 172.0625 122.175781 171.652344 121.710938 C 171.082031 120.902344 171.445312 119.65625 172.128906 118.917969 C 172.949219 118.035156 174.210938 117.550781 175.320312 117.121094 C 175.433594 117.078125 175.527344 117.011719 175.605469 116.917969 C 175.683594 116.824219 175.734375 116.71875 175.753906 116.601562 C 175.777344 116.484375 175.769531 116.367188 175.734375 116.253906 C 175.695312 116.136719 175.632812 116.039062 175.542969 115.957031 L 170.707031 111.492188 C 170.621094 111.414062 170.523438 111.359375 170.414062 111.328125 C 170.300781 111.300781 170.1875 111.296875 170.074219 111.324219 C 169.964844 111.351562 169.863281 111.402344 169.777344 111.476562 C 169.6875 111.554688 169.625 111.644531 169.582031 111.753906 C 169.148438 112.875 168.703125 114.027344 168.105469 115.804688 L 166.050781 115.601562 C 165.757812 115.570312 165.535156 115.679688 165.382812 115.929688 C 164.601562 117.085938 164.015625 118.335938 163.628906 119.675781 C 163.417969 120.429688 163.390625 121.1875 163.546875 121.949219 C 163.703125 122.714844 164.023438 123.402344 164.507812 124.011719 C 164.871094 124.394531 165.269531 124.734375 165.703125 125.03125 C 166.242188 125.335938 166.65625 125.761719 166.945312 126.304688 C 167.28125 127.210938 166.484375 128.308594 165.757812 129.070312 L 165.644531 129.1875 C 164.730469 130.144531 163.589844 131.335938 163.636719 132.890625 C 163.695312 134.730469 165.378906 135.933594 166.796875 136.402344 C 167.4375 136.601562 168.089844 136.753906 168.75 136.863281 C 170.65625 137.09375 172.292969 137.886719 173.65625 139.234375 Z M 167.238281 135.078125 C 166.164062 134.722656 165.066406 133.894531 165.035156 132.84375 C 165.003906 131.875 165.84375 130.996094 166.65625 130.148438 L 166.765625 130.03125 C 168.222656 128.507812 168.726562 127.089844 168.257812 125.820312 C 167.878906 125.003906 167.300781 124.363281 166.527344 123.902344 C 166.175781 123.664062 165.851562 123.394531 165.558594 123.089844 C 165.222656 122.648438 165.003906 122.152344 164.902344 121.609375 C 164.804688 121.0625 164.832031 120.527344 164.988281 119.992188 C 165.289062 118.9375 165.742188 117.949219 166.347656 117.03125 L 168.519531 117.246094 C 168.683594 117.265625 168.835938 117.226562 168.972656 117.140625 C 169.109375 117.050781 169.203125 116.925781 169.253906 116.773438 C 169.757812 115.25 170.152344 114.167969 170.515625 113.214844 L 173.78125 116.230469 C 172.769531 116.621094 171.875 117.199219 171.105469 117.96875 C 170.058594 119.097656 169.492188 121.074219 170.511719 122.515625 C 171.042969 123.171875 171.699219 123.664062 172.476562 124 C 173.117188 124.332031 173.722656 124.648438 174 125.152344 C 174.40625 125.894531 174.074219 126.734375 173.480469 128.023438 C 173.117188 128.734375 172.851562 129.480469 172.675781 130.257812 C 172.261719 132.582031 173.800781 134.722656 175.507812 135.8125 C 177.199219 136.894531 179.199219 137.28125 180.996094 137.601562 C 181.191406 137.9375 181.230469 138.292969 181.117188 138.664062 C 181.023438 139.019531 180.851562 139.335938 180.601562 139.605469 C 180.347656 139.875 180.050781 140.074219 179.699219 140.195312 C 178.265625 140.601562 176.695312 139.769531 175.628906 138.996094 C 175.261719 138.726562 174.886719 138.429688 174.527344 138.144531 C 172.980469 136.648438 171.140625 135.765625 169.007812 135.492188 C 168.40625 135.390625 167.816406 135.253906 167.238281 135.078125 Z M 167.238281 135.078125 " fill-opacity="1" fill-rule="nonzero"/><path fill="#a9a0f0" d="M 163.480469 146.015625 C 163.492188 145.714844 163.363281 145.496094 163.09375 145.363281 L 145.476562 136.535156 C 143.894531 135.746094 142.398438 134.820312 142.160156 133.429688 C 142.113281 133.019531 142.113281 132.609375 142.160156 132.199219 C 142.214844 131.710938 142.21875 131.222656 142.164062 130.734375 C 141.769531 127.890625 138.398438 126.621094 137.289062 126.203125 C 135.566406 125.554688 133.417969 124.746094 132.820312 123.054688 C 132.726562 122.792969 132.546875 122.640625 132.277344 122.597656 C 132.003906 122.550781 131.78125 122.636719 131.613281 122.855469 C 129.441406 125.613281 128.917969 127.789062 130.015625 129.503906 C 130.605469 130.429688 131.523438 130.90625 132.410156 131.371094 C 132.921875 131.613281 133.402344 131.910156 133.851562 132.257812 C 134.84375 133.105469 135.261719 134.453125 135.703125 135.875 C 136.167969 137.375 136.648438 138.925781 137.855469 140.042969 C 138.992188 141.097656 140.46875 141.476562 141.894531 141.84375 C 143.210938 142.179688 144.457031 142.5 145.335938 143.320312 C 146.011719 144.046875 146.523438 144.875 146.875 145.800781 C 147.027344 146.136719 147.183594 146.46875 147.347656 146.796875 C 148.296875 148.648438 149.621094 149.710938 151.074219 149.789062 C 151.132812 149.789062 151.191406 149.792969 151.25 149.792969 C 152.433594 149.792969 153.46875 149.148438 154.386719 148.578125 C 155.351562 147.976562 156.1875 147.457031 157.03125 147.65625 C 157.574219 147.84375 158.054688 148.140625 158.464844 148.539062 C 158.578125 148.632812 158.695312 148.726562 158.808594 148.816406 C 159.828125 149.625 160.789062 149.917969 161.65625 149.6875 C 162.746094 149.398438 163.394531 148.09375 163.480469 146.015625 Z M 161.300781 148.335938 C 160.882812 148.449219 160.335938 148.242188 159.679688 147.722656 C 159.570312 147.636719 159.464844 147.550781 159.359375 147.460938 C 158.78125 146.917969 158.117188 146.527344 157.355469 146.296875 C 155.949219 145.972656 154.730469 146.726562 153.65625 147.394531 C 152.792969 147.933594 151.964844 148.441406 151.15625 148.394531 C 149.890625 148.328125 149.007812 146.96875 148.597656 146.160156 C 148.4375 145.851562 148.292969 145.535156 148.144531 145.21875 C 147.722656 144.121094 147.105469 143.148438 146.292969 142.296875 C 145.152344 141.238281 143.675781 140.859375 142.246094 140.492188 C 140.929688 140.152344 139.683594 139.835938 138.808594 139.019531 C 137.875 138.15625 137.46875 136.847656 137.039062 135.464844 C 136.558594 133.914062 136.058594 132.308594 134.757812 131.199219 C 134.234375 130.78125 133.667969 130.425781 133.058594 130.136719 C 132.300781 129.738281 131.585938 129.363281 131.199219 128.753906 C 130.570312 127.773438 130.867188 126.375 132.070312 124.597656 C 133.1875 126.15625 135.234375 126.925781 136.800781 127.515625 C 139.292969 128.453125 140.597656 129.570312 140.785156 130.929688 C 140.820312 131.316406 140.816406 131.707031 140.773438 132.09375 C 140.710938 132.617188 140.714844 133.140625 140.785156 133.664062 C 141.128906 135.667969 142.941406 136.828125 144.851562 137.785156 L 162.054688 146.402344 C 161.933594 147.699219 161.554688 148.269531 161.300781 148.335938 Z M 161.300781 148.335938 " fill-opacity="1" fill-rule="nonzero"/><path fill="#a9a0f0" d="M 128.070312 163.992188 C 129.3125 165.324219 129.820312 167.140625 130.359375 169.066406 C 130.496094 169.5625 130.636719 170.058594 130.789062 170.546875 C 131.390625 172.480469 132.863281 175.8125 135.964844 176.40625 C 136.082031 176.429688 136.195312 176.421875 136.304688 176.386719 C 139.511719 175.371094 142.332031 173.46875 145.054688 171.628906 C 145.585938 171.269531 146.824219 170.429688 146.753906 169.125 C 146.695312 168.058594 145.851562 167.464844 145.175781 166.980469 C 144.898438 166.800781 144.640625 166.59375 144.402344 166.363281 C 143.761719 165.691406 143.726562 164.675781 143.683594 163.503906 C 143.691406 162.679688 143.59375 161.871094 143.390625 161.074219 C 142.855469 159.304688 141.445312 158.167969 140.082031 157.070312 C 138.996094 156.195312 137.96875 155.371094 137.40625 154.269531 C 136.824219 153.132812 136.773438 151.78125 136.71875 150.351562 C 136.65625 148.683594 136.59375 146.953125 135.640625 145.476562 C 135.171875 144.804688 134.621094 144.203125 133.996094 143.671875 C 133.375 143.167969 132.855469 142.574219 132.441406 141.894531 C 132.101562 141.09375 131.914062 140.261719 131.886719 139.394531 C 131.859375 139.125 131.832031 138.855469 131.796875 138.589844 C 131.5625 136.820312 130.917969 135.601562 129.878906 134.964844 C 129.457031 134.722656 129.007812 134.605469 128.523438 134.601562 C 128.039062 134.601562 127.585938 134.722656 127.164062 134.960938 C 126.832031 135.128906 126.566406 135.375 126.371094 135.691406 C 126.175781 136.007812 126.078125 136.355469 126.074219 136.730469 C 126.128906 137.417969 126.382812 138.023438 126.828125 138.550781 C 126.964844 138.738281 127.089844 138.933594 127.199219 139.136719 C 127.742188 140.1875 127.375 141.667969 126.113281 143.53125 L 126.015625 143.671875 C 124.945312 145.246094 123.734375 147.03125 124.125 149.0625 C 124.34375 150.1875 125.011719 151.109375 125.664062 152.003906 C 126.410156 153.039062 127.058594 153.933594 126.878906 154.910156 C 126.691406 155.539062 126.378906 156.09375 125.941406 156.582031 C 125.414062 157.28125 124.816406 158.070312 124.726562 159.082031 C 124.574219 160.820312 125.886719 161.992188 127.046875 163.023438 C 127.421875 163.355469 127.769531 163.667969 128.070312 163.992188 Z M 126.117188 159.207031 C 126.265625 158.527344 126.582031 157.933594 127.054688 157.421875 C 127.632812 156.765625 128.03125 156.011719 128.25 155.167969 C 128.542969 153.597656 127.613281 152.316406 126.792969 151.183594 C 126.207031 150.378906 125.65625 149.617188 125.496094 148.796875 C 125.21875 147.335938 126.210938 145.875 127.171875 144.457031 L 127.269531 144.316406 C 128.863281 141.964844 129.246094 140.058594 128.441406 138.5 C 128.304688 138.238281 128.148438 137.992188 127.972656 137.753906 C 127.707031 137.457031 127.542969 137.109375 127.472656 136.71875 C 127.488281 136.460938 127.617188 136.28125 127.851562 136.175781 C 128.066406 136.058594 128.296875 136 128.542969 136 C 128.757812 135.996094 128.960938 136.046875 129.148438 136.15625 C 129.808594 136.5625 130.234375 137.441406 130.410156 138.773438 C 130.441406 139.027344 130.46875 139.285156 130.496094 139.539062 C 130.480469 140.554688 130.695312 141.519531 131.148438 142.429688 C 131.597656 143.34375 132.230469 144.097656 133.050781 144.703125 C 133.585938 145.152344 134.058594 145.660156 134.464844 146.230469 C 135.207031 147.390625 135.265625 148.855469 135.324219 150.40625 C 135.378906 151.925781 135.4375 153.496094 136.160156 154.90625 C 136.859375 156.273438 138.054688 157.234375 139.207031 158.160156 C 140.457031 159.167969 141.640625 160.121094 142.050781 161.480469 C 142.214844 162.160156 142.296875 162.851562 142.289062 163.554688 C 142.335938 164.890625 142.378906 166.269531 143.386719 167.328125 C 143.6875 167.625 144.015625 167.890625 144.367188 168.125 C 144.96875 168.550781 145.335938 168.835938 145.355469 169.199219 C 145.382812 169.660156 144.789062 170.121094 144.269531 170.46875 C 141.679688 172.222656 139 174.03125 136.058594 175 C 133.78125 174.445312 132.613281 171.726562 132.117188 170.132812 C 131.96875 169.660156 131.835938 169.175781 131.699219 168.6875 C 131.140625 166.6875 130.5625 164.621094 129.089844 163.039062 C 128.746094 162.667969 128.355469 162.320312 127.972656 161.980469 C 126.972656 161.089844 126.023438 160.246094 126.117188 159.207031 Z M 126.117188 159.207031 " fill-opacity="1" fill-rule="nonzero"/><path fill="#a9a0f0" d="M 168.75 167.457031 C 168.617188 167.320312 168.457031 167.246094 168.265625 167.242188 C 168.078125 167.234375 167.910156 167.296875 167.769531 167.425781 C 167.183594 167.964844 166.324219 168.175781 165.417969 168.394531 C 165.15625 168.457031 164.894531 168.519531 164.640625 168.59375 C 162.816406 169.101562 161.675781 170.148438 161.503906 171.46875 C 161.460938 172.195312 161.585938 172.890625 161.886719 173.550781 L 164.558594 180.730469 C 164.609375 180.875 164.703125 180.988281 164.832031 181.070312 C 164.957031 181.15625 165.101562 181.191406 165.253906 181.183594 C 165.40625 181.175781 165.542969 181.121094 165.660156 181.023438 C 165.777344 180.921875 165.855469 180.800781 165.890625 180.648438 C 165.972656 180.375 166.144531 180.1875 166.40625 180.078125 C 166.855469 179.875 167.300781 179.871094 167.75 180.070312 C 168.445312 180.40625 169.007812 181.160156 169.464844 182.378906 C 169.558594 182.636719 169.648438 182.898438 169.738281 183.164062 C 170.003906 184.074219 170.390625 184.925781 170.90625 185.722656 C 171.679688 186.808594 173.195312 187.746094 174.6875 187.234375 C 174.894531 187.160156 175.097656 187.070312 175.292969 186.964844 C 175.449219 186.875 175.613281 186.804688 175.78125 186.75 C 176.367188 186.59375 177.042969 187.136719 177.304688 187.734375 C 177.640625 188.507812 177.585938 189.476562 177.53125 190.332031 C 177.515625 190.605469 177.625 190.816406 177.855469 190.964844 C 178.089844 191.109375 178.328125 191.117188 178.566406 190.984375 C 180.242188 190.054688 182.039062 189.519531 183.949219 189.378906 C 184.070312 189.367188 184.179688 189.332031 184.28125 189.265625 C 184.382812 189.199219 184.460938 189.113281 184.515625 189.007812 C 184.574219 188.902344 184.601562 188.789062 184.597656 188.667969 C 184.59375 188.546875 184.5625 188.433594 184.503906 188.332031 C 180.078125 180.75 174.828125 173.792969 168.75 167.457031 Z M 178.96875 189.222656 C 178.980469 188.515625 178.851562 187.832031 178.585938 187.175781 C 178.371094 186.644531 178.027344 186.214844 177.5625 185.878906 C 177.097656 185.542969 176.582031 185.359375 176.007812 185.324219 C 175.8125 185.324219 175.621094 185.347656 175.429688 185.398438 C 175.160156 185.476562 174.902344 185.582031 174.65625 185.71875 C 174.519531 185.792969 174.378906 185.859375 174.238281 185.914062 C 173.457031 186.179688 172.542969 185.613281 172.046875 184.910156 C 171.613281 184.226562 171.285156 183.492188 171.0625 182.710938 C 170.96875 182.433594 170.875 182.160156 170.773438 181.886719 C 170.183594 180.320312 169.394531 179.3125 168.359375 178.816406 C 167.511719 178.421875 166.660156 178.421875 165.8125 178.816406 C 165.675781 178.882812 165.546875 178.957031 165.421875 179.042969 L 163.199219 173.0625 C 162.988281 172.613281 162.886719 172.144531 162.890625 171.648438 C 163.03125 170.570312 164.554688 170.0625 165.015625 169.9375 C 165.257812 169.871094 165.503906 169.808594 165.75 169.75 C 166.605469 169.589844 167.410156 169.300781 168.167969 168.871094 C 173.742188 174.746094 178.601562 181.15625 182.753906 188.105469 C 181.441406 188.304688 180.179688 188.675781 178.96875 189.222656 Z M 178.96875 189.222656 " fill-opacity="1" fill-rule="nonzero"/><path fill="#a9a0f0" d="M 195.464844 146.199219 C 194.078125 145.992188 192.699219 146.039062 191.332031 146.335938 C 191.171875 146.367188 191.042969 146.441406 190.9375 146.558594 C 190.832031 146.679688 190.773438 146.816406 190.761719 146.976562 L 189.371094 167.644531 C 189.363281 167.757812 189.382812 167.867188 189.425781 167.96875 C 189.472656 168.074219 189.539062 168.160156 189.628906 168.234375 C 189.71875 168.304688 189.816406 168.351562 189.929688 168.375 C 190.042969 168.398438 190.152344 168.390625 190.261719 168.359375 C 191.597656 167.980469 192.890625 168.097656 194.140625 168.707031 C 194.246094 168.761719 194.363281 168.785156 194.484375 168.777344 C 194.605469 168.773438 194.71875 168.738281 194.820312 168.671875 C 194.925781 168.605469 195.003906 168.519531 195.0625 168.414062 C 195.121094 168.304688 195.148438 168.191406 195.148438 168.070312 C 195.035156 161.015625 195.34375 153.980469 196.074219 146.960938 C 196.09375 146.773438 196.042969 146.605469 195.925781 146.457031 C 195.808594 146.308594 195.652344 146.222656 195.464844 146.199219 Z M 193.738281 167.050781 C 192.78125 166.765625 191.8125 166.6875 190.824219 166.820312 L 192.117188 147.621094 C 192.945312 147.476562 193.777344 147.4375 194.613281 147.507812 C 193.960938 154.007812 193.671875 160.523438 193.738281 167.050781 Z M 193.738281 167.050781 " fill-opacity="1" fill-rule="nonzero"/><path fill="#a9a0f0" d="M 187.996094 99.71875 C 187.953125 99.953125 188.015625 100.160156 188.183594 100.332031 C 189.84375 102.023438 191.242188 103.910156 192.375 105.996094 C 192.496094 106.21875 192.679688 106.339844 192.933594 106.359375 C 192.953125 106.359375 192.96875 106.359375 192.988281 106.359375 C 193.21875 106.359375 193.402344 106.269531 193.542969 106.085938 C 194.152344 105.320312 194.914062 104.75 195.824219 104.378906 C 196.734375 104.007812 197.675781 103.886719 198.652344 104.007812 C 198.925781 104.046875 199.144531 103.957031 199.308594 103.734375 C 199.476562 103.511719 199.5 103.277344 199.382812 103.023438 C 198.207031 100.613281 197.246094 98.117188 196.5 95.535156 C 196.472656 95.429688 196.417969 95.332031 196.339844 95.25 C 196.261719 95.167969 196.171875 95.105469 196.066406 95.070312 C 195.957031 95.03125 195.851562 95.019531 195.738281 95.035156 C 195.625 95.050781 195.523438 95.089844 195.429688 95.152344 C 193.195312 96.703125 190.847656 98.054688 188.386719 99.207031 C 188.167969 99.308594 188.039062 99.480469 187.996094 99.71875 Z M 195.429688 96.84375 C 196.035156 98.800781 196.769531 100.710938 197.636719 102.570312 C 195.894531 102.644531 194.386719 103.28125 193.121094 104.476562 C 192.179688 102.890625 191.089844 101.417969 189.847656 100.054688 C 191.777344 99.105469 193.636719 98.035156 195.429688 96.84375 Z M 195.429688 96.84375 " fill-opacity="1" fill-rule="nonzero"/><path fill="#a9a0f0" d="M 150.484375 105.132812 C 150.570312 105.171875 150.664062 105.191406 150.757812 105.191406 C 150.921875 105.191406 151.070312 105.140625 151.199219 105.039062 C 151.324219 104.9375 151.410156 104.804688 151.445312 104.644531 C 151.742188 103.203125 152.171875 101.804688 152.742188 100.449219 C 152.820312 100.265625 152.824219 100.082031 152.746094 99.898438 C 152.671875 99.714844 152.539062 99.589844 152.355469 99.515625 C 141.59375 95.328125 131.972656 89.320312 123.484375 81.488281 C 123.285156 81.304688 123.058594 81.253906 122.800781 81.335938 C 122.542969 81.417969 122.386719 81.59375 122.328125 81.859375 L 121.328125 86.542969 C 121.269531 86.816406 121.347656 87.046875 121.566406 87.226562 C 130.359375 94.5625 140 100.53125 150.484375 105.132812 Z M 123.441406 83.339844 C 131.664062 90.730469 140.914062 96.46875 151.183594 100.558594 C 150.816406 101.523438 150.511719 102.507812 150.28125 103.515625 C 140.335938 99.066406 131.171875 93.371094 122.785156 86.421875 Z M 123.441406 83.339844 " fill-opacity="1" fill-rule="nonzero"/><path fill="#a9a0f0" d="M 97.335938 105.347656 C 97.558594 105.472656 97.765625 105.613281 97.964844 105.769531 C 98.949219 106.597656 98.859375 108.246094 98.621094 109.90625 C 98.375 111.617188 98.246094 114.035156 99.953125 115.28125 C 100.730469 115.769531 101.578125 116.042969 102.492188 116.101562 C 103.167969 116.136719 103.796875 116.320312 104.386719 116.652344 C 105.15625 117.195312 105.429688 118.3125 105.691406 119.394531 L 105.78125 119.757812 C 106.417969 122.296875 107.511719 124.273438 109.035156 125.636719 C 109.679688 126.222656 110.40625 126.675781 111.214844 126.996094 C 112.027344 127.320312 112.867188 127.488281 113.738281 127.5 C 114.402344 127.503906 115.046875 127.394531 115.671875 127.167969 C 116.496094 126.835938 117.257812 126.402344 117.96875 125.871094 C 118.359375 125.601562 118.730469 125.347656 119.117188 125.128906 C 119.546875 124.882812 121.03125 124.132812 122.082031 124.8125 C 122.320312 124.964844 122.566406 124.972656 122.8125 124.828125 C 123.058594 124.683594 123.171875 124.46875 123.15625 124.1875 C 123.066406 122.640625 122.726562 121.152344 122.136719 119.722656 C 121.542969 118.292969 120.734375 117 119.707031 115.84375 C 119.636719 115.765625 119.550781 115.707031 119.453125 115.667969 C 119.355469 115.625 119.253906 115.609375 119.148438 115.617188 C 119.042969 115.621094 118.945312 115.648438 118.851562 115.703125 C 118.757812 115.753906 118.683594 115.820312 118.621094 115.90625 C 117.515625 117.457031 115.875 118.386719 114.316406 118.34375 C 112.816406 118.300781 111.144531 117.050781 111.160156 115.441406 C 111.1875 114.945312 111.273438 114.460938 111.417969 113.984375 C 111.652344 113.054688 111.921875 112 111.445312 110.976562 C 110.535156 109.035156 107.914062 109.101562 106.660156 109.128906 C 106.183594 109.148438 103.792969 109.136719 103.535156 107.820312 C 103.402344 107.140625 103.890625 106.546875 104.707031 105.65625 C 105.417969 104.882812 106.222656 104.003906 106.355469 102.851562 C 106.503906 101.5625 105.898438 99.742188 102.164062 98.425781 C 101.125 98.054688 98.722656 97.03125 98.933594 95.460938 C 98.957031 95.277344 98.914062 95.109375 98.804688 94.960938 C 98.695312 94.8125 98.550781 94.71875 98.367188 94.683594 C 98.183594 94.652344 98.015625 94.683594 97.859375 94.785156 C 97.703125 94.886719 97.605469 95.027344 97.5625 95.210938 L 95.890625 102.234375 C 95.738281 102.726562 95.714844 103.230469 95.824219 103.734375 C 96.054688 104.570312 96.765625 105 97.335938 105.347656 Z M 97.25 102.554688 L 98.390625 97.765625 C 99.332031 98.699219 100.433594 99.355469 101.703125 99.742188 C 102.996094 100.199219 105.144531 101.191406 104.96875 102.691406 C 104.886719 103.394531 104.300781 104.035156 103.679688 104.710938 C 102.839844 105.628906 101.886719 106.667969 102.167969 108.089844 C 102.480469 109.679688 104.175781 110.589844 106.699219 110.527344 C 108.164062 110.488281 109.722656 110.585938 110.179688 111.570312 C 110.445312 112.140625 110.269531 112.835938 110.066406 113.640625 C 109.894531 114.226562 109.792969 114.820312 109.765625 115.429688 C 109.746094 117.65625 111.855469 119.671875 114.277344 119.742188 C 116.03125 119.8125 117.855469 118.917969 119.203125 117.414062 C 120.523438 119.125 121.339844 121.054688 121.65625 123.191406 C 120.496094 123.058594 119.421875 123.296875 118.429688 123.914062 C 117.992188 124.164062 117.578125 124.449219 117.179688 124.722656 C 116.566406 125.183594 115.90625 125.5625 115.199219 125.855469 C 113.546875 126.457031 111.496094 125.960938 109.964844 124.59375 C 108.65625 123.421875 107.703125 121.679688 107.136719 119.417969 L 107.046875 119.0625 C 106.738281 117.792969 106.390625 116.355469 105.195312 115.511719 C 104.425781 115.039062 103.589844 114.777344 102.6875 114.71875 C 102.007812 114.683594 101.371094 114.496094 100.777344 114.15625 C 99.675781 113.351562 99.808594 111.460938 100.003906 110.109375 C 100.300781 108.050781 100.367188 105.96875 98.863281 104.703125 C 98.609375 104.5 98.34375 104.316406 98.0625 104.15625 C 97.628906 103.890625 97.253906 103.664062 97.167969 103.363281 C 97.136719 103.089844 97.164062 102.820312 97.253906 102.554688 Z M 97.25 102.554688 " fill-opacity="1" fill-rule="nonzero"/><path fill="#a9a0f0" d="M 115.066406 96.09375 C 114.96875 96.117188 114.878906 96.164062 114.800781 96.226562 C 114.722656 96.292969 114.660156 96.371094 114.617188 96.460938 C 114.570312 96.554688 114.546875 96.648438 114.542969 96.75 C 114.542969 96.851562 114.5625 96.949219 114.601562 97.042969 C 115.152344 98.339844 114.554688 99.894531 113.976562 101.40625 C 113.878906 101.65625 113.78125 101.90625 113.691406 102.15625 C 112.863281 104.429688 112.9375 107.203125 114.976562 108.273438 C 115.960938 108.789062 117.0625 108.6875 118.035156 108.597656 C 118.902344 108.519531 119.722656 108.441406 120.339844 108.792969 C 121.046875 109.195312 121.390625 110.089844 121.753906 111.035156 L 121.90625 111.429688 C 122.613281 113.207031 123.710938 114.191406 125 114.210938 L 125.039062 114.210938 C 126.445312 114.210938 127.28125 113.117188 128.023438 112.152344 C 128.582031 111.421875 129.109375 110.730469 129.792969 110.550781 C 130.980469 110.238281 132.15625 111.609375 132.777344 112.488281 C 133.703125 113.800781 134.859375 115.433594 136.707031 115.535156 L 136.746094 115.535156 C 137.050781 115.535156 137.265625 115.394531 137.386719 115.113281 C 138.25 113.113281 139.054688 110.582031 137.613281 108.722656 C 137.0625 108.085938 136.410156 107.582031 135.652344 107.210938 L 130.242188 104.128906 C 129.390625 103.550781 128.453125 103.226562 127.425781 103.15625 C 126.683594 103.164062 126.050781 103.433594 125.523438 103.957031 C 125.347656 104.140625 125.203125 104.34375 125.097656 104.578125 C 124.183594 104.222656 123.535156 103.207031 123.226562 102.332031 C 123.015625 101.675781 122.851562 101.007812 122.734375 100.328125 C 122.601562 99.550781 122.410156 98.789062 122.160156 98.046875 C 121.289062 95.644531 119.101562 95.042969 115.066406 96.09375 Z M 120.847656 98.519531 C 121.070312 99.199219 121.242188 99.890625 121.363281 100.597656 C 121.492188 101.339844 121.675781 102.074219 121.90625 102.792969 C 122.414062 104.242188 123.675781 105.976562 125.570312 106.09375 C 125.773438 106.109375 125.949219 106.042969 126.097656 105.902344 C 126.246094 105.765625 126.316406 105.59375 126.3125 105.386719 C 126.320312 105.207031 126.386719 105.054688 126.523438 104.933594 C 126.777344 104.6875 127.082031 104.558594 127.4375 104.550781 L 127.449219 104.550781 C 128.21875 104.640625 128.917969 104.902344 129.550781 105.34375 L 134.960938 108.425781 C 135.550781 108.710938 136.066406 109.09375 136.507812 109.574219 C 137.402344 110.730469 136.9375 112.503906 136.316406 114.046875 C 135.363281 113.726562 134.597656 112.644531 133.890625 111.644531 C 132.71875 109.984375 131.410156 109.109375 130.140625 109.109375 C 129.902344 109.109375 129.667969 109.140625 129.4375 109.203125 C 128.292969 109.503906 127.5625 110.460938 126.914062 111.304688 C 126.195312 112.242188 125.707031 112.816406 125.039062 112.816406 L 125.019531 112.816406 C 124.058594 112.800781 123.429688 111.484375 123.207031 110.917969 L 123.058594 110.535156 C 122.640625 109.453125 122.167969 108.226562 121.027344 107.578125 C 120.03125 107.011719 118.902344 107.117188 117.902344 107.210938 C 117.050781 107.289062 116.242188 107.363281 115.621094 107.039062 C 114.335938 106.363281 114.398438 104.285156 115 102.636719 C 115.089844 102.394531 115.183594 102.152344 115.277344 101.90625 C 115.832031 100.460938 116.449219 98.851562 116.125 97.277344 C 120.078125 96.40625 120.574219 97.769531 120.847656 98.519531 Z M 120.847656 98.519531 " fill-opacity="1" fill-rule="nonzero"/><path fill="#a9a0f0" d="M 98.632812 134.167969 L 124.519531 134.453125 L 124.527344 134.453125 C 124.640625 134.453125 124.746094 134.429688 124.84375 134.378906 C 124.945312 134.328125 125.027344 134.257812 125.09375 134.167969 C 125.160156 134.074219 125.199219 133.976562 125.21875 133.863281 C 125.234375 133.753906 125.226562 133.644531 125.191406 133.539062 C 124.996094 132.9375 124.808594 132.371094 124.910156 130.125 C 124.917969 130.023438 124.898438 129.925781 124.863281 129.832031 C 124.824219 129.738281 124.769531 129.65625 124.695312 129.589844 C 124.621094 129.519531 124.539062 129.46875 124.441406 129.433594 C 124.347656 129.402344 124.25 129.390625 124.148438 129.398438 C 115.523438 130.199219 106.945312 129.851562 98.410156 128.351562 C 98.304688 128.335938 98.199219 128.339844 98.09375 128.371094 C 97.992188 128.398438 97.898438 128.453125 97.820312 128.523438 C 97.738281 128.597656 97.679688 128.683594 97.640625 128.785156 C 97.601562 128.886719 97.585938 128.988281 97.59375 129.097656 L 97.945312 133.527344 C 97.960938 133.707031 98.035156 133.859375 98.167969 133.980469 C 98.296875 134.101562 98.453125 134.164062 98.632812 134.167969 Z M 123.492188 130.859375 C 123.460938 131.59375 123.503906 132.320312 123.617188 133.046875 L 99.289062 132.777344 L 99.054688 129.878906 C 107.160156 131.226562 115.304688 131.554688 123.492188 130.859375 Z M 123.492188 130.859375 " fill-opacity="1" fill-rule="nonzero"/><path fill="#a9a0f0" d="M 97.792969 163.003906 C 96.402344 161.769531 95.578125 160.945312 95.832031 159.898438 C 95.988281 159.25 96.589844 158.734375 97.226562 158.191406 C 97.925781 157.597656 98.71875 156.921875 99.039062 155.925781 C 99.789062 153.609375 97.660156 151.722656 95.996094 150.503906 C 95.289062 149.984375 93.039062 148.175781 93.8125 146.621094 C 94.183594 145.890625 95.109375 145.550781 96.089844 145.195312 C 97.191406 144.792969 98.445312 144.339844 99.097656 143.183594 C 99.976562 141.632812 99.183594 139.648438 97.90625 138.625 C 96.671875 137.640625 95.0625 137.308594 93.769531 137.042969 L 81.464844 134.5 C 80.773438 134.355469 80.125 134.089844 79.527344 133.710938 C 79.199219 133.503906 78.851562 133.339844 78.488281 133.214844 C 78.300781 133.160156 78.125 133.179688 77.957031 133.269531 C 77.785156 133.359375 77.671875 133.496094 77.617188 133.679688 C 77.515625 134.054688 77.453125 134.4375 77.421875 134.824219 C 77.390625 135.210938 77.398438 135.597656 77.4375 135.980469 C 77.476562 136.367188 77.554688 136.746094 77.664062 137.117188 C 77.769531 137.492188 77.914062 137.847656 78.089844 138.195312 C 78.261719 138.542969 78.46875 138.871094 78.703125 139.179688 C 78.9375 139.488281 79.195312 139.773438 79.484375 140.035156 C 79.769531 140.296875 80.078125 140.527344 80.40625 140.734375 C 80.734375 140.9375 81.078125 141.113281 81.441406 141.253906 C 82.269531 141.519531 83.117188 141.699219 83.980469 141.792969 C 85.089844 141.953125 86.152344 142.101562 86.914062 142.613281 C 85.863281 143.496094 85.246094 144.617188 85.074219 145.980469 C 84.929688 146.800781 84.988281 147.609375 85.242188 148.402344 C 85.496094 149.191406 85.921875 149.882812 86.515625 150.464844 C 86.988281 150.878906 87.496094 151.246094 88.035156 151.570312 C 88.941406 152.148438 89.722656 152.648438 89.957031 153.449219 C 90.207031 154.316406 89.722656 155.265625 89.210938 156.277344 C 89.101562 156.488281 88.996094 156.695312 88.898438 156.902344 C 88.503906 157.753906 88.21875 158.636719 88.042969 159.554688 C 87.863281 160.476562 87.800781 161.402344 87.851562 162.335938 C 87.898438 163.273438 88.0625 164.1875 88.335938 165.082031 C 88.609375 165.976562 88.984375 166.828125 89.46875 167.628906 C 89.601562 167.851562 89.800781 167.960938 90.0625 167.960938 L 90.066406 167.960938 L 99.703125 167.875 C 99.886719 167.875 100.046875 167.808594 100.179688 167.683594 C 100.3125 167.554688 100.382812 167.398438 100.394531 167.214844 C 100.492188 165.402344 99.058594 164.128906 97.792969 163.003906 Z M 90.457031 166.5625 C 90.082031 165.871094 89.789062 165.148438 89.582031 164.390625 C 89.375 163.628906 89.257812 162.855469 89.230469 162.070312 C 89.203125 161.285156 89.269531 160.503906 89.425781 159.734375 C 89.582031 158.964844 89.828125 158.222656 90.15625 157.507812 C 90.25 157.308594 90.351562 157.113281 90.453125 156.910156 C 91.039062 155.761719 91.703125 154.460938 91.296875 153.0625 C 90.917969 151.753906 89.785156 151.03125 88.789062 150.390625 C 88.320312 150.113281 87.878906 149.796875 87.464844 149.441406 C 87.265625 149.222656 87.089844 148.988281 86.945312 148.730469 C 86.796875 148.476562 86.679688 148.207031 86.589844 147.925781 C 86.503906 147.644531 86.449219 147.355469 86.425781 147.0625 C 86.402344 146.765625 86.414062 146.472656 86.453125 146.179688 C 86.496094 145.890625 86.570312 145.605469 86.675781 145.328125 C 86.78125 145.054688 86.917969 144.792969 87.082031 144.546875 C 87.246094 144.300781 87.433594 144.078125 87.648438 143.875 C 87.863281 143.671875 88.097656 143.492188 88.351562 143.34375 C 88.445312 143.296875 88.523438 143.230469 88.589844 143.148438 C 88.652344 143.066406 88.699219 142.976562 88.722656 142.875 C 88.746094 142.773438 88.746094 142.667969 88.722656 142.566406 C 88.699219 142.464844 88.65625 142.371094 88.59375 142.289062 C 87.507812 140.882812 85.816406 140.644531 84.179688 140.410156 C 83.40625 140.328125 82.652344 140.171875 81.910156 139.941406 C 81.414062 139.742188 80.960938 139.472656 80.550781 139.128906 C 80.144531 138.785156 79.800781 138.390625 79.519531 137.933594 C 79.238281 137.480469 79.035156 136.996094 78.910156 136.476562 C 78.789062 135.957031 78.75 135.429688 78.792969 134.898438 L 78.828125 134.917969 C 79.554688 135.375 80.339844 135.691406 81.183594 135.867188 L 93.484375 138.40625 C 94.691406 138.65625 96.058594 138.9375 97.03125 139.714844 C 97.835938 140.359375 98.390625 141.601562 97.882812 142.496094 C 97.484375 143.199219 96.574219 143.53125 95.609375 143.882812 C 94.472656 144.296875 93.183594 144.765625 92.566406 145.996094 C 91.710938 147.703125 92.683594 149.808594 95.171875 151.628906 C 97.234375 153.136719 98.066406 154.402344 97.710938 155.492188 C 97.511719 156.113281 96.933594 156.605469 96.324219 157.125 C 95.582031 157.757812 94.742188 158.476562 94.476562 159.566406 C 94.011719 161.503906 95.527344 162.855469 96.867188 164.046875 C 97.773438 164.851562 98.640625 165.621094 98.914062 166.484375 Z M 90.457031 166.5625 " fill-opacity="1" fill-rule="nonzero"/><path fill="#a9a0f0" d="M 60.101562 129.070312 C 61.402344 129.109375 62.707031 129.128906 64.011719 129.128906 C 72.140625 129.125 80.203125 128.378906 88.191406 126.886719 C 88.417969 126.839844 88.582031 126.714844 88.6875 126.507812 C 88.789062 126.300781 88.789062 126.089844 88.6875 125.882812 C 88.039062 124.554688 87.367188 123.179688 86.207031 120.617188 C 86.128906 120.445312 86 120.324219 85.824219 120.257812 C 85.648438 120.1875 85.472656 120.1875 85.296875 120.261719 C 81.277344 121.953125 77.101562 123.09375 72.78125 123.679688 C 68.457031 124.265625 64.132812 124.28125 59.804688 123.722656 C 59.699219 123.710938 59.59375 123.71875 59.492188 123.753906 C 59.390625 123.789062 59.304688 123.839844 59.226562 123.917969 C 59.148438 123.992188 59.09375 124.078125 59.058594 124.179688 C 59.019531 124.277344 59.007812 124.382812 59.019531 124.488281 L 59.425781 128.441406 C 59.445312 128.617188 59.519531 128.761719 59.644531 128.882812 C 59.773438 129 59.925781 129.0625 60.101562 129.070312 Z M 85.210938 121.804688 C 85.992188 123.519531 86.542969 124.667969 87.03125 125.675781 C 78.339844 127.234375 69.578125 127.90625 60.753906 127.6875 L 60.496094 125.210938 C 64.691406 125.679688 68.882812 125.625 73.066406 125.046875 C 77.25 124.46875 81.296875 123.390625 85.210938 121.804688 Z M 85.210938 121.804688 " fill-opacity="1" fill-rule="nonzero"/><path fill="#a9a0f0" d="M 110.675781 95.25 C 110.785156 95.378906 110.921875 95.460938 111.089844 95.492188 C 111.257812 95.523438 111.414062 95.496094 111.5625 95.410156 C 114.320312 93.824219 116.542969 91.910156 118.445312 87.714844 C 118.507812 87.578125 118.523438 87.4375 118.492188 87.289062 C 118.460938 87.140625 118.390625 87.015625 118.28125 86.914062 C 116.785156 85.539062 115.136719 84.390625 113.328125 83.464844 C 113.1875 83.394531 113.042969 83.371094 112.890625 83.398438 C 112.738281 83.425781 112.609375 83.492188 112.5 83.605469 C 110.648438 85.5625 108.511719 87.132812 106.085938 88.316406 C 105.992188 88.363281 105.910156 88.429688 105.84375 88.511719 C 105.777344 88.597656 105.734375 88.691406 105.710938 88.796875 C 105.691406 88.898438 105.691406 89.003906 105.714844 89.105469 C 105.742188 89.210938 105.789062 89.304688 105.855469 89.386719 Z M 113.144531 84.949219 C 114.515625 85.691406 115.785156 86.574219 116.957031 87.601562 C 115.378906 90.886719 113.5625 92.5625 111.375 93.898438 L 107.484375 89.167969 C 109.585938 88.046875 111.472656 86.640625 113.144531 84.949219 Z M 113.144531 84.949219 " fill-opacity="1" fill-rule="nonzero"/><path fill="#a9a0f0" d="M 152.167969 83.75 L 173.910156 95.015625 C 175.039062 95.667969 176.257812 96.035156 177.558594 96.109375 C 178.472656 96.140625 179.25 95.828125 179.886719 95.167969 C 180.46875 94.539062 180.734375 93.796875 180.675781 92.941406 C 180.605469 91.757812 180.125 90.769531 179.242188 89.976562 C 178.019531 88.90625 176.46875 88.511719 174.96875 88.132812 L 174.625 88.042969 C 170.78125 87.058594 167.132812 85.597656 163.675781 83.65625 C 160.214844 81.71875 157.066406 79.367188 154.222656 76.605469 C 154.132812 76.523438 154.03125 76.464844 153.914062 76.433594 C 153.800781 76.402344 153.683594 76.398438 153.566406 76.429688 C 153.449219 76.457031 153.34375 76.515625 153.257812 76.597656 C 153.167969 76.679688 153.105469 76.777344 153.070312 76.894531 C 151.863281 80.648438 151.601562 81.953125 151.800781 83.234375 C 151.835938 83.46875 151.957031 83.640625 152.167969 83.75 Z M 154.0625 78.382812 C 156.921875 81.03125 160.0625 83.285156 163.484375 85.152344 C 166.902344 87.015625 170.5 88.429688 174.277344 89.398438 L 174.625 89.488281 C 175.964844 89.828125 177.347656 90.175781 178.316406 91.027344 C 178.90625 91.558594 179.226562 92.214844 179.28125 93.003906 C 179.316406 93.460938 179.183594 93.863281 178.875 94.203125 C 177.914062 95.203125 175.992188 94.523438 174.550781 93.777344 L 153.144531 82.683594 C 153.097656 81.835938 153.335938 80.726562 154.0625 78.382812 Z M 154.0625 78.382812 " fill-opacity="1" fill-rule="nonzero"/><path fill="#a9a0f0" d="M 156.214844 189.515625 C 154.589844 189.46875 152.980469 189.269531 151.386719 188.921875 C 149.796875 188.574219 148.25 188.085938 146.75 187.453125 C 145.25 186.820312 143.820312 186.058594 142.460938 185.160156 C 141.097656 184.265625 139.832031 183.253906 138.660156 182.125 L 138.15625 181.628906 C 136.113281 179.621094 133.792969 177.34375 130.828125 177.839844 C 128.867188 178.167969 127.53125 179.605469 126.242188 181 C 125.125 182.203125 124.074219 183.34375 122.695312 183.71875 C 120.96875 184.183594 118.921875 183.386719 116.609375 181.339844 C 116.359375 181.117188 116.109375 180.890625 115.859375 180.664062 C 114.164062 179.125 112.414062 177.535156 110.085938 177.105469 C 109.445312 177.003906 108.804688 176.992188 108.160156 177.0625 C 107.519531 177.136719 106.894531 177.292969 106.292969 177.53125 C 105.691406 177.769531 105.132812 178.085938 104.613281 178.476562 C 104.097656 178.863281 103.640625 179.316406 103.242188 179.828125 C 102.472656 180.84375 101.933594 181.96875 101.621094 183.207031 C 101.308594 184.441406 101.253906 185.691406 101.449219 186.949219 C 101.472656 187.109375 101.539062 187.246094 101.65625 187.359375 C 101.773438 187.472656 101.914062 187.535156 102.074219 187.550781 C 102.234375 187.566406 102.382812 187.53125 102.519531 187.441406 C 102.65625 187.355469 102.75 187.234375 102.800781 187.082031 C 103.300781 185.625 105.140625 184.925781 106.636719 185.089844 C 108.390625 185.285156 109.976562 186.339844 111.328125 187.3125 L 111.824219 187.671875 C 113.207031 188.679688 114.636719 189.722656 116.335938 190.25 C 119.257812 191.164062 122.21875 190.375 125.089844 189.613281 C 127.40625 188.996094 129.804688 188.355469 132.085938 188.679688 C 133.980469 188.945312 135.699219 189.839844 137.519531 190.78125 C 138.042969 191.054688 138.5625 191.324219 139.089844 191.582031 C 142.433594 193.207031 145.953125 194.210938 149.648438 194.601562 C 149.957031 194.636719 150.269531 194.652344 150.582031 194.652344 C 152.433594 194.652344 154.65625 193.960938 156.789062 190.589844 C 156.933594 190.359375 156.941406 190.125 156.8125 189.886719 C 156.683594 189.648438 156.484375 189.527344 156.214844 189.519531 Z M 149.792969 193.210938 C 146.257812 192.839844 142.890625 191.878906 139.695312 190.324219 C 139.179688 190.074219 138.671875 189.808594 138.160156 189.542969 C 136.316406 188.585938 134.410156 187.597656 132.277344 187.296875 C 131.785156 187.226562 131.292969 187.195312 130.796875 187.195312 C 128.742188 187.195312 126.707031 187.734375 124.726562 188.261719 C 121.929688 189.007812 119.289062 189.710938 116.75 188.917969 C 115.273438 188.457031 113.9375 187.484375 112.644531 186.542969 L 112.144531 186.179688 C 110.539062 185.023438 108.78125 183.921875 106.789062 183.703125 C 106.074219 183.625 105.371094 183.683594 104.675781 183.875 C 103.984375 184.070312 103.347656 184.382812 102.777344 184.820312 C 102.878906 183.289062 103.398438 181.914062 104.335938 180.699219 C 104.65625 180.289062 105.023438 179.925781 105.441406 179.613281 C 105.855469 179.300781 106.304688 179.046875 106.785156 178.851562 C 107.269531 178.65625 107.769531 178.527344 108.285156 178.464844 C 108.804688 178.402344 109.320312 178.40625 109.835938 178.480469 C 111.769531 178.835938 113.371094 180.292969 114.921875 181.699219 C 115.175781 181.933594 115.429688 182.160156 115.683594 182.386719 C 118.371094 184.765625 120.851562 185.667969 123.0625 185.066406 C 124.828125 184.585938 126.070312 183.246094 127.269531 181.949219 C 128.449219 180.671875 129.566406 179.46875 131.058594 179.21875 C 133.320312 178.839844 135.285156 180.765625 137.179688 182.628906 L 137.6875 183.125 C 140.019531 185.371094 142.667969 187.160156 145.625 188.484375 C 148.582031 189.8125 151.675781 190.597656 154.90625 190.847656 C 153.09375 193.179688 151.382812 193.378906 149.792969 193.210938 Z M 149.792969 193.210938 " fill-opacity="1" fill-rule="nonzero"/><path fill="#a9a0f0" d="M 89.640625 119.144531 C 89.65625 119.253906 89.699219 119.355469 89.761719 119.449219 C 89.824219 119.539062 89.90625 119.613281 90.007812 119.664062 C 90.105469 119.71875 90.210938 119.742188 90.324219 119.746094 C 90.433594 119.746094 90.539062 119.722656 90.640625 119.675781 C 92.191406 118.910156 93.796875 118.117188 94.929688 118.097656 C 95.035156 118.097656 95.136719 118.070312 95.230469 118.023438 C 95.328125 117.976562 95.40625 117.910156 95.472656 117.828125 C 95.535156 117.746094 95.582031 117.652344 95.601562 117.546875 C 95.625 117.445312 95.625 117.339844 95.597656 117.238281 L 93.648438 109.082031 C 93.621094 108.96875 93.566406 108.867188 93.488281 108.777344 C 93.410156 108.691406 93.3125 108.625 93.199219 108.585938 C 93.089844 108.546875 92.976562 108.535156 92.859375 108.554688 C 92.742188 108.574219 92.636719 108.621094 92.542969 108.691406 C 91.328125 109.628906 89.96875 110.222656 88.460938 110.476562 C 88.359375 110.492188 88.269531 110.527344 88.183594 110.585938 C 88.101562 110.640625 88.035156 110.710938 87.980469 110.796875 C 87.929688 110.882812 87.894531 110.976562 87.882812 111.074219 C 87.871094 111.175781 87.878906 111.273438 87.90625 111.371094 C 88.695312 113.914062 89.273438 116.507812 89.640625 119.144531 Z M 92.527344 110.402344 L 94.058594 116.800781 C 92.953125 117.070312 91.894531 117.472656 90.882812 118 C 90.542969 115.867188 90.070312 113.765625 89.464844 111.691406 C 90.554688 111.425781 91.574219 110.992188 92.527344 110.398438 Z M 92.527344 110.402344 " fill-opacity="1" fill-rule="nonzero"/><path fill="#a9a0f0" d="M 212.640625 130.761719 L 215.378906 127.367188 L 216.464844 128.242188 L 213.726562 131.636719 Z M 212.640625 130.761719 " fill-opacity="1" fill-rule="nonzero"/><path fill="#a9a0f0" d="M 183.917969 150.632812 L 185.875 143.917969 L 187.214844 144.308594 L 185.257812 151.023438 Z M 183.917969 150.632812 " fill-opacity="1" fill-rule="nonzero"/><path fill="#a9a0f0" d="M 155.925781 119.9375 C 155.65625 118.527344 154.597656 117.4375 153.828125 116.644531 L 145.09375 107.671875 C 144.894531 107.464844 144.65625 107.40625 144.382812 107.492188 C 144.113281 107.578125 143.953125 107.761719 143.90625 108.042969 C 143.71875 109.128906 143.257812 110.074219 142.511719 110.882812 C 142.382812 111.027344 142.320312 111.195312 142.328125 111.386719 C 142.335938 111.582031 142.410156 111.742188 142.554688 111.871094 C 145.796875 114.84375 147.25 119.0625 148.785156 123.53125 C 150.289062 127.898438 151.839844 132.414062 155.234375 135.628906 C 155.464844 135.84375 155.722656 135.886719 156.007812 135.753906 C 156.292969 135.621094 156.429688 135.398438 156.414062 135.085938 C 156.347656 133.828125 157.089844 132.8125 157.808594 131.828125 C 158.605469 130.746094 159.425781 129.621094 159.035156 128.242188 C 158.746094 127.214844 157.90625 126.628906 157.164062 126.109375 C 156.660156 125.816406 156.234375 125.429688 155.890625 124.957031 C 155.507812 124.289062 155.648438 123.449219 155.8125 122.476562 C 156.003906 121.636719 156.042969 120.789062 155.925781 119.9375 Z M 156.367188 127.253906 C 156.996094 127.691406 157.539062 128.070312 157.695312 128.617188 C 157.890625 129.308594 157.4375 129.972656 156.683594 131.003906 C 156.050781 131.78125 155.5625 132.644531 155.21875 133.589844 C 152.734375 130.714844 151.453125 126.992188 150.105469 123.074219 C 148.652344 118.84375 147.152344 114.480469 143.976562 111.300781 C 144.386719 110.753906 144.710938 110.164062 144.949219 109.523438 L 152.824219 117.621094 C 153.511719 118.324219 154.363281 119.199219 154.554688 120.199219 C 154.632812 120.886719 154.59375 121.570312 154.4375 122.242188 C 154.253906 123.324219 154.050781 124.550781 154.683594 125.648438 C 155.125 126.308594 155.6875 126.84375 156.367188 127.253906 Z M 156.367188 127.253906 " fill-opacity="1" fill-rule="nonzero"/><path fill="#a9a0f0" d="M 140.320312 84.589844 L 141.714844 84.507812 L 142.042969 90.203125 L 140.648438 90.285156 Z M 140.320312 84.589844 " fill-opacity="1" fill-rule="nonzero"/><path fill="#a9a0f0" d="M 186.550781 90.257812 L 187.640625 89.386719 L 190.609375 93.101562 L 189.515625 93.972656 Z M 186.550781 90.257812 " fill-opacity="1" fill-rule="nonzero"/><path fill="#a9a0f0" d="M 202.964844 154.183594 L 206.816406 152.933594 L 207.25 154.261719 L 203.394531 155.511719 Z M 202.964844 154.183594 " fill-opacity="1" fill-rule="nonzero"/><path fill="#a9a0f0" d="M 215.488281 176.089844 L 216.640625 176.878906 C 217.621094 175.457031 218.902344 174.410156 220.488281 173.734375 L 219.945312 172.449219 C 218.105469 173.230469 216.621094 174.445312 215.488281 176.089844 Z M 215.488281 176.089844 " fill-opacity="1" fill-rule="nonzero"/><path fill="#a9a0f0" d="M 145.214844 155.105469 L 145.839844 153.859375 L 149.78125 155.835938 L 149.152344 157.085938 Z M 145.214844 155.105469 " fill-opacity="1" fill-rule="nonzero"/><path fill="#a9a0f0" d="M 167.246094 157.078125 L 166.511719 158.265625 C 167.476562 158.859375 168.222656 159.65625 168.746094 160.660156 L 169.984375 160.011719 C 169.339844 158.78125 168.425781 157.804688 167.246094 157.078125 Z M 167.246094 157.078125 " fill-opacity="1" fill-rule="nonzero"/><path fill="#a9a0f0" d="M 155.71875 182.371094 L 156.277344 181.089844 L 161.535156 183.386719 L 160.976562 184.664062 Z M 155.71875 182.371094 " fill-opacity="1" fill-rule="nonzero"/><path fill="#a9a0f0" d="M 102.527344 172.382812 C 104.039062 171.632812 105.632812 171.363281 107.304688 171.574219 L 107.484375 170.191406 C 105.527344 169.941406 103.667969 170.253906 101.902344 171.132812 Z M 102.527344 172.382812 " fill-opacity="1" fill-rule="nonzero"/><path fill="#a9a0f0" d="M 104.609375 141.5625 L 108.003906 139.375 L 108.761719 140.546875 L 105.367188 142.738281 Z M 104.609375 141.5625 " fill-opacity="1" fill-rule="nonzero"/><path fill="#a9a0f0" d="M 117.972656 139.890625 L 118.652344 138.671875 L 122.546875 140.839844 L 121.867188 142.058594 Z M 117.972656 139.890625 " fill-opacity="1" fill-rule="nonzero"/><path fill="#a9a0f0" d="M 96.109375 122.265625 L 99.285156 120.511719 L 99.960938 121.738281 L 96.785156 123.488281 Z M 96.109375 122.265625 " fill-opacity="1" fill-rule="nonzero"/><path fill="#a9a0f0" d="M 135.558594 119.460938 L 135.804688 118.085938 L 141.367188 119.085938 L 141.117188 120.460938 Z M 135.558594 119.460938 " fill-opacity="1" fill-rule="nonzero"/><path fill="#a9a0f0" d="M 122.992188 94.902344 L 123.859375 93.8125 L 127.460938 96.675781 L 126.589844 97.769531 Z M 122.992188 94.902344 " fill-opacity="1" fill-rule="nonzero"/><path fill="#a9a0f0" d="M 117.832031 77.835938 L 120.132812 75.316406 L 121.164062 76.261719 L 118.863281 78.777344 Z M 117.832031 77.835938 " fill-opacity="1" fill-rule="nonzero"/><path fill="#a9a0f0" d="M 57.027344 135.101562 L 57.679688 133.867188 L 61.839844 136.058594 L 61.191406 137.292969 Z M 57.027344 135.101562 " fill-opacity="1" fill-rule="nonzero"/><path fill="#a9a0f0" d="M 57.449219 157.613281 L 59.742188 153.445312 L 60.964844 154.117188 L 58.675781 158.285156 Z M 57.449219 157.613281 " fill-opacity="1" fill-rule="nonzero"/><path fill="#a9a0f0" d="M 72.066406 169.917969 C 70.929688 168.800781 69.59375 168.035156 68.054688 167.621094 L 67.691406 168.972656 C 68.992188 169.324219 70.125 169.96875 71.085938 170.914062 Z M 72.066406 169.917969 " fill-opacity="1" fill-rule="nonzero"/><path fill="#a9a0f0" d="M 196.9375 116.28125 L 200.441406 115.515625 L 200.738281 116.878906 L 197.234375 117.644531 Z M 196.9375 116.28125 " fill-opacity="1" fill-rule="nonzero"/><path fill="#a9a0f0" d="M 221.152344 111.105469 L 223.011719 110.011719 L 223.722656 111.214844 L 221.859375 112.308594 Z M 221.152344 111.105469 " fill-opacity="1" fill-rule="nonzero"/></svg>