<svg xmlns="http://www.w3.org/2000/svg" xmlns:xlink="http://www.w3.org/1999/xlink" width="400" zoomAndPan="magnify" viewBox="0 0 300 299.999988" height="400" preserveAspectRatio="xMidYMid meet" version="1.0"><path fill="#a9a0f0" d="M 114.875 116.582031 C 112.824219 115.792969 110.449219 116.394531 108.203125 118.273438 C 106.191406 119.949219 104.464844 122.5 103.335938 125.457031 C 102.207031 128.414062 101.796875 131.46875 102.175781 134.054688 C 102.605469 136.953125 103.96875 138.980469 106.027344 139.765625 C 106.617188 139.992188 107.226562 140.101562 107.859375 140.101562 C 109.429688 140.101562 111.097656 139.410156 112.703125 138.074219 C 114.710938 136.398438 116.4375 133.847656 117.566406 130.890625 C 120.050781 124.386719 118.867188 118.101562 114.875 116.582031 Z M 114.761719 129.816406 C 113.8125 132.304688 112.398438 134.417969 110.777344 135.769531 C 109.421875 136.902344 108.078125 137.335938 107.097656 136.960938 C 106.113281 136.585938 105.40625 135.367188 105.148438 133.617188 C 104.839844 131.53125 105.191406 129.011719 106.140625 126.527344 C 107.089844 124.042969 108.503906 121.929688 110.125 120.578125 C 111.164062 119.714844 112.191406 119.253906 113.058594 119.253906 C 113.324219 119.253906 113.574219 119.296875 113.808594 119.386719 C 115.847656 120.164062 116.738281 124.640625 114.761719 129.816406 Z M 212.308594 136.363281 C 216.28125 134.761719 217.347656 128.453125 214.746094 122 C 213.558594 119.066406 211.78125 116.546875 209.738281 114.910156 C 207.453125 113.078125 205.066406 112.523438 203.023438 113.351562 C 199.054688 114.949219 197.984375 121.261719 200.585938 127.710938 C 201.179688 129.179688 201.921875 130.542969 202.769531 131.746094 C 203.617188 132.945312 204.570312 133.984375 205.59375 134.804688 C 207.191406 136.082031 208.832031 136.734375 210.371094 136.734375 C 211.042969 136.734375 211.691406 136.613281 212.308594 136.363281 Z M 203.375 126.589844 C 201.300781 121.449219 202.117188 116.953125 204.148438 116.132812 C 205.125 115.738281 206.480469 116.144531 207.863281 117.253906 C 209.511719 118.570312 210.964844 120.65625 211.960938 123.125 C 214.035156 128.265625 213.21875 132.761719 211.1875 133.582031 C 210.207031 133.976562 208.855469 133.566406 207.46875 132.460938 C 205.824219 131.140625 204.367188 129.058594 203.375 126.589844 Z M 249.203125 114.511719 C 250.109375 111.453125 250.105469 108.601562 249.191406 105.972656 C 246.203125 97.410156 234.480469 94.179688 230.40625 93.304688 C 230.835938 86.132812 227.726562 80.289062 221.351562 76.34375 C 217.667969 74.0625 213.867188 73.027344 212.050781 72.628906 C 211.054688 67.066406 208.785156 63.316406 205.300781 61.480469 C 201.308594 59.375 196.914062 60.441406 194.789062 61.191406 C 190.171875 54.121094 182.640625 51.15625 172.921875 52.617188 C 166.796875 53.535156 161.609375 55.933594 159.792969 56.851562 C 155.3125 54.878906 151.113281 54.578125 147.292969 55.960938 C 142.6875 57.632812 139.917969 61.316406 138.699219 63.300781 C 133.644531 61.101562 128.832031 60.765625 124.386719 62.308594 C 117.753906 64.609375 113.96875 70.390625 112.75 72.546875 C 107.203125 72.875 103.222656 74.746094 100.386719 77.113281 C 98.742188 74.773438 95.144531 70.316406 91.574219 70.316406 C 91.53125 70.316406 91.492188 70.316406 91.453125 70.316406 C 90.332031 70.347656 88.75 70.835938 87.59375 72.980469 C 86.199219 75.5625 86.492188 78.433594 86.75 80.964844 C 87.144531 84.863281 86.929688 85.484375 85.085938 85.726562 C 82.847656 86.015625 80.921875 84.636719 79.222656 83.421875 C 77.675781 82.316406 76.214844 81.277344 74.640625 81.832031 C 73.226562 82.328125 72.660156 83.847656 72.355469 84.949219 C 70.820312 90.476562 69.15625 91.921875 66.222656 92.914062 C 64.335938 93.554688 62.890625 95.011719 62.265625 96.90625 C 61.589844 98.945312 61.917969 101.21875 63.140625 102.992188 C 63.175781 103.683594 61.230469 105.710938 60.183594 106.800781 C 58.335938 108.726562 56.425781 110.714844 56.023438 112.769531 C 42.605469 116.910156 30.039062 123.089844 30.039062 131.722656 C 30.039062 147.535156 33.214844 162.878906 39.472656 177.320312 C 45.515625 191.265625 54.167969 203.789062 65.1875 214.542969 C 76.203125 225.292969 89.03125 233.738281 103.316406 239.632812 C 118.105469 245.738281 133.808594 248.828125 150 248.828125 C 166.191406 248.828125 181.894531 245.734375 196.683594 239.632812 C 210.96875 233.738281 223.796875 225.292969 234.8125 214.542969 C 245.832031 203.789062 254.484375 191.265625 260.527344 177.320312 C 266.785156 162.878906 269.960938 147.535156 269.960938 131.722656 C 269.960938 124.230469 260.484375 118.578125 249.203125 114.507812 Z M 100.582031 87.082031 C 101.460938 84.582031 102.363281 82.007812 101.828125 79.8125 C 104.835938 77.09375 108.8125 75.648438 113.71875 75.511719 C 114.277344 75.496094 114.785156 75.164062 115.03125 74.65625 C 115.0625 74.585938 118.488281 67.53125 125.367188 65.144531 C 129.410156 63.746094 133.882812 64.234375 138.671875 66.597656 C 139.035156 66.777344 139.453125 66.800781 139.839844 66.667969 C 140.21875 66.53125 140.53125 66.246094 140.699219 65.878906 C 140.726562 65.828125 143.152344 60.660156 148.320312 58.785156 C 151.546875 57.613281 155.203125 57.980469 159.1875 59.878906 C 159.625 60.085938 160.136719 60.070312 160.5625 59.835938 C 160.617188 59.804688 166.484375 56.605469 173.441406 55.574219 C 182.417969 54.246094 188.957031 57.019531 192.875 63.804688 C 193.265625 64.492188 194.125 64.75 194.835938 64.402344 C 194.886719 64.378906 199.84375 61.996094 203.898438 64.136719 C 206.703125 65.617188 208.503906 68.972656 209.253906 74.121094 C 209.347656 74.773438 209.859375 75.292969 210.515625 75.386719 C 210.5625 75.394531 215.304688 76.136719 219.773438 78.898438 C 225.570312 82.488281 228.101562 87.683594 227.296875 94.339844 C 227.199219 95.140625 227.753906 95.878906 228.550781 96.003906 C 228.699219 96.027344 243.386719 98.445312 246.351562 106.960938 C 247.046875 108.945312 247.050781 111.140625 246.367188 113.53125 C 246.105469 114.441406 245.75 115.382812 245.289062 116.347656 C 243.957031 119.160156 241.785156 122.210938 238.78125 125.480469 C 238.71875 125.546875 238.664062 125.625 238.613281 125.699219 C 238.371094 125.289062 238.128906 124.886719 237.875 124.484375 C 235.84375 121.210938 233.511719 118.21875 230.933594 115.589844 C 229.992188 114.625 229.019531 113.707031 228.019531 112.84375 C 227.433594 112.339844 226.839844 111.851562 226.230469 111.382812 C 225.566406 110.863281 224.890625 110.367188 224.199219 109.894531 C 224.191406 109.796875 224.175781 109.703125 224.164062 109.601562 C 224.101562 109.039062 224.058594 108.472656 224.03125 107.90625 C 223.941406 106.121094 223.996094 104.332031 224.046875 102.582031 C 224.195312 97.59375 224.335938 92.847656 220.804688 90.40625 C 220.941406 90.078125 220.972656 89.394531 220.769531 88.460938 C 220.730469 88.300781 220.6875 88.136719 220.644531 87.960938 C 220.597656 87.789062 220.527344 87.617188 220.460938 87.4375 C 220.339844 87.066406 220.152344 86.699219 219.957031 86.308594 C 219.542969 85.546875 218.984375 84.753906 218.289062 84.027344 C 217.582031 83.304688 216.808594 82.726562 216.0625 82.285156 C 215.675781 82.078125 215.316406 81.878906 214.953125 81.746094 C 214.773438 81.675781 214.601562 81.597656 214.429688 81.546875 C 214.257812 81.496094 214.09375 81.449219 213.933594 81.40625 C 212.65625 81.082031 211.828125 81.222656 211.777344 81.492188 C 211.710938 81.796875 212.382812 82.179688 213.347656 82.792969 C 213.46875 82.867188 213.597656 82.949219 213.726562 83.03125 C 213.859375 83.113281 213.988281 83.214844 214.125 83.304688 C 214.402344 83.480469 214.679688 83.707031 214.976562 83.921875 C 215.554688 84.378906 216.167969 84.90625 216.757812 85.507812 C 217.34375 86.121094 217.847656 86.746094 218.289062 87.339844 C 218.496094 87.644531 218.707031 87.925781 218.878906 88.210938 C 218.964844 88.351562 219.058594 88.484375 219.136719 88.617188 C 219.214844 88.75 219.292969 88.878906 219.363281 89.003906 C 219.554688 89.324219 219.722656 89.613281 219.871094 89.855469 C 219.671875 89.757812 219.46875 89.664062 219.253906 89.578125 C 215.429688 88.050781 212.578125 90.398438 210.496094 92.113281 C 208.191406 94.011719 207.402344 94.40625 206.261719 93.570312 C 205.160156 92.753906 204.007812 90.648438 202.898438 88.609375 C 200.917969 84.984375 198.679688 80.875 194.917969 80.15625 C 192.671875 79.722656 190.335938 80.546875 187.761719 82.679688 C 185.207031 84.804688 183.074219 86.804688 181.191406 88.574219 C 178.5 91.105469 175.730469 93.722656 174.617188 93.507812 C 174.277344 93.441406 173.847656 92.894531 173.433594 92.007812 C 172.40625 89.777344 174.484375 87.378906 177.765625 83.984375 C 180.582031 81.074219 183.492188 78.066406 183.078125 74.617188 C 182.929688 73.382812 181.476562 62.472656 176.265625 60.246094 C 175.042969 59.722656 173.097656 59.472656 170.761719 61.226562 C 167.859375 63.410156 166.683594 66.839844 165.644531 69.867188 C 164.039062 74.550781 163.28125 75.621094 160.625 74.789062 C 157.703125 73.875 156.152344 71.164062 154.789062 68.773438 C 153.585938 66.667969 152.546875 64.847656 150.636719 64.671875 C 148.921875 64.511719 147.546875 65.882812 146.664062 66.929688 C 141.789062 72.6875 138.976562 73.496094 134.882812 73.066406 C 132.4375 72.808594 130.164062 73.65625 128.488281 75.457031 C 127.0625 76.984375 126.261719 79.003906 126.226562 81.066406 C 126.078125 81.355469 125.941406 81.636719 125.8125 81.910156 C 124.75 84.105469 124.433594 84.304688 123.652344 84.144531 C 122.671875 83.941406 121.203125 82.847656 119.777344 81.785156 C 117.136719 79.820312 114.140625 77.589844 111.089844 78.34375 C 109.285156 78.792969 107.78125 80.238281 106.628906 82.644531 C 105.503906 84.992188 104.644531 87.113281 103.886719 88.984375 C 102.988281 91.210938 101.753906 94.257812 101.070312 94.425781 C 101.066406 94.425781 100.773438 94.449219 100.035156 93.816406 C 98.734375 92.710938 99.410156 90.429688 100.585938 87.082031 Z M 207.71875 145.332031 C 207.027344 143.621094 205.339844 142.503906 202.960938 142.1875 C 200.886719 141.914062 198.464844 142.28125 196.132812 143.21875 C 193.800781 144.160156 191.800781 145.578125 190.5 147.214844 C 189.132812 148.9375 188.648438 150.742188 189.109375 152.347656 C 187.726562 152.492188 186.332031 152.625 184.917969 152.753906 C 183.84375 149.5 183.101562 146.234375 182.683594 143.039062 C 182.542969 141.96875 182.4375 140.902344 182.371094 139.847656 C 181.410156 125.347656 187.140625 112.660156 197.949219 108.300781 C 198.859375 107.933594 199.785156 107.632812 200.730469 107.394531 C 201.121094 107.300781 201.511719 107.210938 201.90625 107.136719 C 203.253906 106.878906 204.632812 106.75 206.03125 106.75 C 210.046875 106.75 214.222656 107.808594 218.34375 109.898438 C 219.238281 110.351562 220.128906 110.851562 221.019531 111.402344 C 221.183594 111.503906 221.347656 111.605469 221.507812 111.714844 C 223.390625 112.917969 225.191406 114.308594 226.902344 115.859375 C 230.265625 118.921875 233.261719 122.609375 235.761719 126.773438 C 236.285156 127.648438 236.785156 128.539062 237.265625 129.453125 C 237.601562 130.085938 237.921875 130.730469 238.234375 131.386719 C 237.753906 130.878906 237.136719 130.46875 236.394531 130.167969 C 235.707031 129.886719 234.914062 129.703125 234.03125 129.621094 C 233.566406 129.578125 233.085938 129.5625 232.589844 129.578125 C 230.738281 129.628906 228.703125 130.078125 226.714844 130.878906 C 221.015625 133.175781 217.730469 137.421875 219.074219 140.746094 C 219.421875 141.617188 220.046875 142.320312 220.898438 142.839844 C 221.753906 143.355469 222.839844 143.691406 224.113281 143.808594 C 224.460938 143.839844 224.824219 143.855469 225.191406 143.855469 C 227.136719 143.855469 229.308594 143.40625 231.425781 142.550781 C 232.492188 142.121094 233.496094 141.605469 234.414062 141.027344 C 235.367188 140.429688 236.214844 139.761719 236.9375 139.050781 C 237.160156 138.832031 237.367188 138.609375 237.5625 138.382812 C 237.832031 138.070312 238.066406 137.761719 238.273438 137.449219 C 239.078125 136.242188 239.445312 135.027344 239.351562 133.890625 C 239.4375 134.097656 239.523438 134.304688 239.609375 134.511719 C 240.171875 135.90625 240.671875 137.304688 241.105469 138.707031 C 241.207031 139.019531 241.300781 139.339844 241.390625 139.652344 C 236.933594 142.226562 230.433594 144.664062 222.273438 146.753906 C 221.597656 146.925781 220.90625 147.097656 220.207031 147.265625 C 217.867188 147.832031 215.425781 148.363281 212.894531 148.859375 C 211.019531 149.234375 209.097656 149.585938 207.128906 149.921875 C 208.039062 148.386719 208.296875 146.769531 207.71875 145.328125 Z M 202.328125 150.691406 L 202.324219 150.691406 C 199.066406 151.175781 195.707031 151.617188 192.253906 152.007812 C 192.164062 151.898438 192.09375 151.78125 192.042969 151.65625 C 191.980469 151.5 191.949219 151.328125 191.949219 151.140625 C 191.949219 150.550781 192.261719 149.832031 192.851562 149.082031 C 193.824219 147.863281 195.425781 146.742188 197.257812 146.003906 C 198.714844 145.417969 200.238281 145.101562 201.578125 145.101562 C 201.917969 145.101562 202.25 145.121094 202.5625 145.164062 C 203.808594 145.328125 204.667969 145.800781 204.933594 146.453125 C 205.359375 147.507812 204.34375 149.25 202.328125 150.691406 Z M 179.4375 141.007812 C 179.519531 142.019531 179.636719 143.03125 179.785156 144.050781 C 180.214844 147.035156 180.90625 150.039062 181.851562 153.015625 C 179.535156 153.207031 177.191406 153.371094 174.816406 153.519531 C 174 150.5 173.472656 147.492188 173.21875 144.550781 C 173.128906 143.515625 173.078125 142.488281 173.054688 141.472656 C 172.777344 128.683594 177.777344 117.597656 186.90625 112.859375 C 184.03125 116.351562 181.871094 120.726562 180.582031 125.804688 C 179.363281 130.601562 178.988281 135.75 179.4375 141.003906 Z M 170.136719 143.652344 C 170.347656 146.972656 170.890625 150.339844 171.753906 153.695312 C 164.695312 154.070312 157.410156 154.265625 150 154.265625 C 149.339844 154.265625 148.679688 154.261719 148.019531 154.261719 C 148.375 153.1875 148.691406 152.113281 148.976562 151.035156 C 149.800781 147.941406 150.34375 144.835938 150.617188 141.769531 C 150.777344 139.929688 150.839844 138.105469 150.804688 136.304688 C 150.960938 136.195312 151.113281 136.085938 151.265625 135.980469 C 152.15625 135.332031 152.933594 134.652344 153.5625 133.917969 C 155.746094 131.386719 156.183594 128.191406 153.570312 123.273438 C 152.746094 121.714844 153.210938 121.023438 156.511719 118.910156 C 158.953125 117.339844 161.996094 115.390625 162.355469 111.785156 C 162.730469 107.992188 160.269531 106.203125 158.472656 104.898438 C 158.402344 104.847656 158.332031 104.796875 158.265625 104.746094 C 156.667969 103.574219 156.136719 103.046875 156.667969 101.722656 C 156.746094 101.519531 156.855469 101.300781 156.984375 101.054688 C 159.292969 96.730469 159.625 92.472656 157.851562 89.933594 C 156.628906 88.191406 154.550781 87.429688 151.988281 87.789062 C 149.554688 88.136719 147.644531 89.261719 146.105469 90.164062 C 143.53125 91.683594 143.0625 91.957031 141.777344 89.816406 C 140.84375 88.257812 140.125 86.5625 139.425781 84.921875 C 137.738281 80.949219 136 76.847656 131.464844 77.074219 C 131.339844 77.082031 131.21875 77.089844 131.101562 77.105469 C 132.066406 76.285156 133.277344 75.914062 134.566406 76.050781 C 139.398438 76.558594 143.300781 75.546875 148.953125 68.867188 C 149.921875 67.71875 150.347656 67.664062 150.347656 67.660156 C 150.765625 67.785156 151.617188 69.277344 152.179688 70.261719 C 153.65625 72.84375 155.679688 76.390625 159.726562 77.65625 C 165.527344 79.464844 167.167969 74.683594 168.484375 70.84375 C 169.425781 68.09375 170.398438 65.25 172.566406 63.628906 C 173.851562 62.65625 174.621094 62.808594 175.085938 63.007812 C 177.53125 64.050781 179.492188 69.949219 180.09375 74.976562 C 180.339844 77.007812 177.933594 79.492188 175.609375 81.894531 C 172.386719 85.222656 168.738281 88.996094 170.707031 93.265625 C 171.574219 95.144531 172.664062 96.1875 174.042969 96.453125 C 176.652344 96.960938 179.136719 94.628906 183.246094 90.761719 C 185.097656 89.023438 187.191406 87.054688 189.679688 84.988281 C 191.488281 83.488281 193.058594 82.855469 194.351562 83.101562 C 196.71875 83.554688 198.597656 87.003906 200.257812 90.046875 C 201.585938 92.476562 202.839844 94.773438 204.480469 95.984375 C 207.667969 98.332031 210.40625 96.074219 212.40625 94.429688 C 214.617188 92.601562 216.109375 91.554688 218.136719 92.363281 C 221.164062 93.578125 221.214844 96.835938 221.042969 102.492188 C 221 104.074219 220.953125 105.691406 221.003906 107.339844 C 221.011719 107.535156 221.019531 107.726562 221.027344 107.921875 C 220.480469 107.613281 219.929688 107.324219 219.378906 107.054688 C 213.007812 103.90625 206.488281 102.980469 200.464844 104.371094 C 199.777344 104.527344 199.101562 104.714844 198.425781 104.933594 C 198.324219 104.949219 198.210938 104.972656 198.09375 105.007812 L 198.089844 105 C 198.085938 105.003906 198.03125 105.027344 197.90625 105.078125 C 197.902344 105.078125 197.898438 105.078125 197.894531 105.082031 L 196.824219 105.511719 C 196.179688 105.773438 195.253906 106.144531 193.9375 106.679688 C 192.402344 107.296875 190.34375 108.128906 187.601562 109.234375 C 179.636719 112.449219 173.867188 119.65625 171.359375 129.527344 C 170.5 132.914062 170.058594 136.480469 170.035156 140.128906 C 170.023438 141.296875 170.058594 142.46875 170.136719 143.648438 Z M 235.5 136.160156 C 235.433594 136.246094 235.363281 136.335938 235.289062 136.421875 C 234.746094 137.054688 234.035156 137.667969 233.214844 138.222656 C 232.347656 138.8125 231.359375 139.34375 230.304688 139.765625 C 228.253906 140.59375 226.097656 140.976562 224.394531 140.816406 C 223.058594 140.695312 222.109375 140.246094 221.855469 139.625 C 221.355469 138.382812 223.4375 135.441406 227.839844 133.660156 C 228.988281 133.199219 230.164062 132.878906 231.28125 132.710938 C 232.160156 132.574219 232.996094 132.542969 233.75 132.609375 C 233.941406 132.628906 234.125 132.652344 234.296875 132.6875 C 235.34375 132.867188 236.070312 133.269531 236.285156 133.804688 C 236.515625 134.371094 236.222656 135.238281 235.5 136.160156 Z M 58.957031 113.445312 C 59.007812 112.953125 59.375 112.316406 59.886719 111.636719 C 60.570312 110.730469 61.515625 109.746094 62.351562 108.878906 C 64.785156 106.34375 67.300781 103.722656 65.613281 101.292969 C 64.929688 100.304688 64.738281 98.984375 65.117188 97.847656 C 65.449219 96.835938 66.183594 96.097656 67.1875 95.757812 C 70.878906 94.503906 73.386719 92.46875 75.25 85.75 C 75.414062 85.152344 75.566406 84.851562 75.65625 84.714844 C 76.070312 84.859375 76.902344 85.457031 77.476562 85.867188 C 79.410156 87.25 82.0625 89.140625 85.472656 88.699219 C 90.492188 88.050781 90.054688 83.777344 89.738281 80.65625 C 89.511719 78.453125 89.28125 76.175781 90.234375 74.402344 C 90.8125 73.339844 91.339844 73.324219 91.539062 73.316406 L 91.582031 73.316406 C 93.324219 73.316406 96.183594 76.199219 98.210938 79.242188 C 98.378906 79.496094 98.546875 79.75 98.699219 80.003906 C 99.261719 80.914062 98.925781 82.511719 98.371094 84.253906 C 98.183594 84.855469 97.964844 85.472656 97.75 86.089844 C 96.519531 89.59375 95.125 93.574219 98.082031 96.101562 C 98.566406 96.515625 100.039062 97.769531 101.777344 97.34375 C 103.960938 96.8125 105.039062 94.144531 106.671875 90.113281 C 107.414062 88.28125 108.253906 86.207031 109.335938 83.941406 C 110.085938 82.382812 110.917969 81.480469 111.808594 81.257812 C 113.484375 80.84375 115.875 82.625 117.984375 84.195312 C 118.863281 84.84375 119.710938 85.480469 120.546875 85.992188 C 121.394531 86.515625 122.226562 86.914062 123.042969 87.085938 C 126.316406 87.757812 127.640625 85.023438 128.511719 83.21875 C 128.773438 82.675781 129.015625 82.195312 129.257812 81.78125 C 129.871094 80.742188 130.507812 80.128906 131.617188 80.070312 C 133.9375 79.949219 134.996094 82.167969 136.664062 86.09375 C 137.363281 87.75 138.164062 89.625 139.203125 91.359375 C 142.023438 96.050781 145.261719 94.148438 147.628906 92.753906 C 149.003906 91.941406 150.566406 91.023438 152.410156 90.765625 C 153.832031 90.566406 154.835938 90.867188 155.390625 91.65625 C 156.296875 92.949219 156.320312 95.921875 154.335938 99.640625 C 153.933594 100.390625 153.691406 101.070312 153.566406 101.691406 C 153.332031 102.902344 153.5625 103.886719 154.027344 104.695312 C 154.679688 105.855469 155.804688 106.671875 156.703125 107.328125 C 158.484375 108.617188 159.558594 109.507812 159.363281 111.488281 C 159.152344 113.652344 157.082031 114.972656 154.890625 116.378906 C 152.25 118.070312 148.636719 120.386719 150.917969 124.683594 C 152.914062 128.4375 152.964844 130.527344 150.59375 132.671875 C 150.355469 130.207031 149.917969 127.804688 149.289062 125.488281 C 146.609375 115.671875 140.726562 108.582031 132.71875 105.523438 L 131.398438 105.019531 L 124.382812 102.34375 L 122.617188 101.667969 C 122.613281 101.667969 122.609375 101.664062 122.605469 101.664062 L 122.179688 101.5 L 122.171875 101.523438 C 122.125 101.511719 122.082031 101.507812 122.035156 101.5 C 115.210938 99.367188 107.675781 100.339844 100.421875 104.269531 L 100.421875 104.273438 C 99.539062 104.75 98.667969 105.269531 97.800781 105.832031 C 96.796875 106.484375 95.8125 107.179688 94.859375 107.925781 C 87.8125 113.414062 82.070312 121.390625 78.496094 130.746094 C 76.574219 135.785156 75.382812 140.945312 74.945312 146.007812 C 69.863281 144.589844 65.511719 143.035156 61.992188 141.398438 C 61.695312 140.097656 60.859375 138.757812 59.476562 137.34375 C 54.140625 131.890625 57.355469 127.566406 59.941406 124.089844 C 60.605469 123.195312 61.179688 122.425781 61.546875 121.691406 C 61.980469 120.828125 62.089844 120.054688 62.011719 119.363281 C 63.027344 120.914062 64.828125 123.359375 66.652344 126.253906 C 69.644531 130.9375 71.582031 135.0625 72.15625 134.855469 C 72.425781 134.753906 72.28125 133.570312 71.683594 131.765625 C 71.386719 130.867188 70.960938 129.816406 70.425781 128.683594 C 69.882812 127.554688 69.222656 126.339844 68.449219 125.113281 C 67.671875 123.894531 66.855469 122.777344 66.0625 121.804688 C 65.265625 120.835938 64.5 120.007812 63.808594 119.355469 C 62.632812 118.234375 61.726562 117.609375 61.359375 117.578125 C 61.027344 117.035156 60.625 116.570312 60.277344 116.171875 C 59.875 115.703125 59.539062 115.308594 59.304688 114.917969 C 59.03125 114.453125 58.902344 114 58.957031 113.445312 Z M 129.15625 147.09375 C 127.828125 145.484375 125.804688 144.105469 123.464844 143.210938 C 121.121094 142.316406 118.695312 141.996094 116.628906 142.3125 C 114.265625 142.675781 112.597656 143.824219 111.941406 145.546875 C 111.285156 147.269531 111.757812 149.238281 113.28125 151.082031 C 113.769531 151.671875 114.34375 152.226562 114.996094 152.742188 C 111.734375 152.453125 108.546875 152.117188 105.433594 151.738281 C 102.242188 151.351562 99.136719 150.921875 96.125 150.453125 C 90.292969 149.542969 84.816406 148.476562 79.792969 147.265625 C 79.148438 147.113281 78.519531 146.953125 77.898438 146.796875 C 78.1875 142.921875 78.949219 138.972656 80.175781 135.066406 C 80.21875 138.074219 83.375 141.378906 88.246094 143.242188 C 90.285156 144.019531 92.363281 144.421875 94.242188 144.421875 C 94.695312 144.421875 95.140625 144.398438 95.570312 144.351562 C 98.109375 144.0625 99.875 142.945312 100.542969 141.195312 C 101.207031 139.449219 100.636719 137.4375 98.9375 135.53125 C 97.46875 133.882812 95.269531 132.445312 92.738281 131.480469 C 87.703125 129.558594 83.011719 130.003906 81.082031 132.417969 C 81.152344 132.21875 81.226562 132.015625 81.300781 131.816406 C 85.132812 121.78125 91.570312 113.445312 99.433594 108.351562 C 100.089844 107.925781 100.75 107.523438 101.414062 107.15625 C 105.851562 104.667969 110.386719 103.398438 114.746094 103.398438 C 117.378906 103.398438 119.945312 103.863281 122.386719 104.792969 C 122.847656 104.96875 123.300781 105.160156 123.746094 105.371094 C 130.144531 108.339844 134.867188 114.449219 137.128906 122.742188 C 139.59375 131.777344 138.839844 142.28125 135.007812 152.320312 C 134.792969 152.875 134.574219 153.429688 134.347656 153.972656 C 132.835938 153.914062 131.339844 153.851562 129.84375 153.777344 C 130.117188 153.433594 130.335938 153.046875 130.492188 152.632812 C 131.152344 150.910156 130.675781 148.941406 129.15625 147.097656 Z M 127.6875 151.558594 C 127.5625 151.890625 127.285156 152.175781 126.886719 152.402344 C 126.488281 152.632812 125.964844 152.800781 125.351562 152.894531 C 123.816406 153.132812 121.882812 152.867188 120.042969 152.164062 C 118.207031 151.460938 116.585938 150.375 115.597656 149.175781 C 114.804688 148.207031 114.496094 147.277344 114.746094 146.617188 C 115 145.957031 115.851562 145.46875 117.085938 145.28125 C 117.453125 145.222656 117.839844 145.195312 118.246094 145.195312 C 119.535156 145.195312 120.992188 145.480469 122.390625 146.011719 C 124.230469 146.714844 125.847656 147.804688 126.835938 149 C 127.628906 149.96875 127.941406 150.898438 127.6875 151.558594 Z M 83.25 134.59375 C 83.53125 133.859375 84.847656 133.300781 86.777344 133.300781 C 88.152344 133.300781 89.832031 133.582031 91.667969 134.28125 C 93.726562 135.070312 95.558594 136.253906 96.695312 137.523438 C 97.585938 138.523438 97.976562 139.496094 97.738281 140.121094 L 97.738281 140.125 C 97.496094 140.75 96.558594 141.214844 95.230469 141.363281 C 93.53125 141.558594 91.375 141.21875 89.320312 140.433594 C 84.894531 138.742188 82.769531 135.847656 83.25 134.59375 Z M 137.8125 153.390625 C 141.867188 142.761719 142.65625 131.597656 140.023438 121.949219 C 138.644531 116.894531 136.414062 112.5625 133.480469 109.132812 C 139.636719 112.183594 144.1875 118.195312 146.390625 126.277344 C 147.128906 128.980469 147.578125 131.820312 147.742188 134.734375 C 147.90625 137.613281 147.789062 140.566406 147.402344 143.550781 C 147.128906 145.640625 146.722656 147.75 146.183594 149.847656 C 145.808594 151.3125 145.367188 152.78125 144.859375 154.234375 C 142.402344 154.207031 139.960938 154.15625 137.542969 154.078125 C 137.632812 153.851562 137.726562 153.621094 137.8125 153.390625 Z M 150 245.828125 C 85.507812 245.828125 33.042969 194.640625 33.042969 131.722656 C 33.042969 126.203125 41.429688 120.523438 56.390625 115.804688 C 56.816406 116.765625 57.46875 117.519531 58.011719 118.140625 C 59.101562 119.394531 59.203125 119.664062 58.863281 120.347656 C 58.613281 120.84375 58.089844 121.550781 57.53125 122.300781 C 55.136719 125.519531 50.816406 131.332031 56.074219 138.019531 C 53.230469 135.945312 51.714844 133.8125 51.714844 131.722656 C 51.714844 130.894531 51.042969 130.222656 50.210938 130.222656 C 49.378906 130.222656 48.710938 130.894531 48.710938 131.722656 C 48.710938 136.390625 52.957031 140.214844 58.949219 143.277344 C 59.816406 143.726562 60.726562 144.15625 61.660156 144.574219 C 65.695312 146.355469 70.269531 147.847656 74.773438 149.078125 C 75.777344 149.355469 76.777344 149.613281 77.765625 149.859375 C 78.207031 149.972656 78.648438 150.082031 79.085938 150.183594 C 83.589844 151.269531 88.441406 152.238281 93.582031 153.085938 C 94.726562 153.273438 95.882812 153.457031 97.058594 153.632812 C 99.085938 153.9375 101.152344 154.222656 103.257812 154.492188 C 104.285156 154.625 105.324219 154.75 106.371094 154.871094 C 114.773438 155.855469 123.726562 156.546875 133.007812 156.921875 C 134.089844 156.96875 135.183594 157.007812 136.273438 157.042969 C 138.738281 157.125 141.222656 157.183594 143.726562 157.21875 C 144.796875 157.238281 145.871094 157.25 146.945312 157.257812 C 147.960938 157.265625 148.980469 157.269531 150 157.269531 C 157.703125 157.269531 165.273438 157.058594 172.601562 156.652344 C 173.640625 156.597656 174.675781 156.535156 175.703125 156.46875 C 178.121094 156.316406 180.511719 156.140625 182.871094 155.941406 C 183.914062 155.855469 184.953125 155.765625 185.984375 155.671875 C 187.820312 155.5 189.636719 155.316406 191.425781 155.121094 C 195.566406 154.667969 199.582031 154.144531 203.445312 153.558594 C 206.457031 153.097656 209.375 152.601562 212.191406 152.0625 C 213.234375 151.859375 214.261719 151.65625 215.273438 151.445312 C 217.207031 151.046875 219.089844 150.625 220.914062 150.1875 C 221.117188 150.136719 221.324219 150.085938 221.527344 150.035156 C 222.609375 149.769531 223.714844 149.488281 224.816406 149.1875 C 230.957031 147.535156 237.265625 145.382812 242.1875 142.679688 C 243.140625 142.15625 244.042969 141.605469 244.886719 141.042969 C 248.773438 138.40625 251.289062 135.316406 251.289062 131.722656 C 251.289062 130.894531 250.617188 130.222656 249.789062 130.222656 C 248.960938 130.222656 248.289062 130.894531 248.289062 131.722656 C 248.289062 133.789062 246.804688 135.898438 244.019531 137.953125 C 243.546875 136.421875 243.003906 134.898438 242.394531 133.386719 C 242.1875 132.878906 241.976562 132.371094 241.757812 131.867188 C 241.765625 129.667969 241.59375 127.917969 241.472656 126.980469 C 243.277344 124.972656 244.789062 123.023438 246.011719 121.136719 C 246.257812 121.410156 247.039062 121.742188 248.125 122.203125 C 248.464844 122.347656 248.835938 122.5 249.226562 122.679688 C 249.625 122.847656 250.03125 123.050781 250.46875 123.253906 C 251.328125 123.675781 252.261719 124.164062 253.207031 124.726562 C 254.152344 125.300781 255.019531 125.894531 255.796875 126.453125 C 256.179688 126.746094 256.554688 127.007812 256.886719 127.28125 C 257.230469 127.539062 257.535156 127.796875 257.824219 128.027344 C 258.96875 128.957031 259.714844 129.558594 259.960938 129.375 C 260.1875 129.210938 259.855469 128.265625 258.914062 126.988281 C 258.679688 126.671875 258.410156 126.332031 258.089844 125.992188 C 257.785156 125.640625 257.425781 125.296875 257.042969 124.9375 C 256.261719 124.234375 255.34375 123.53125 254.304688 122.902344 C 253.261719 122.28125 252.207031 121.800781 251.222656 121.441406 C 250.726562 121.273438 250.253906 121.113281 249.800781 121.011719 C 249.351562 120.890625 248.921875 120.8125 248.53125 120.75 C 247.488281 120.597656 246.703125 120.613281 246.28125 120.722656 C 247.007812 119.566406 247.625 118.4375 248.132812 117.332031 C 260.25 121.722656 266.960938 126.789062 266.960938 131.726562 C 266.960938 194.640625 214.492188 245.828125 150 245.828125 Z M 86.855469 219.757812 C 86.78125 219.886719 85.878906 219.5 84.304688 218.683594 C 83.914062 218.476562 83.476562 218.25 83 217.996094 C 82.53125 217.730469 82.035156 217.417969 81.5 217.089844 C 80.433594 216.417969 79.191406 215.691406 77.917969 214.746094 C 77.269531 214.285156 76.59375 213.800781 75.890625 213.296875 C 75.53125 213.050781 75.195312 212.761719 74.839844 212.484375 C 74.488281 212.203125 74.128906 211.917969 73.765625 211.625 C 73.402344 211.332031 73.03125 211.035156 72.65625 210.730469 C 72.46875 210.578125 72.277344 210.429688 72.089844 210.269531 C 71.90625 210.105469 71.722656 209.941406 71.535156 209.777344 C 70.792969 209.113281 70.03125 208.429688 69.25 207.726562 C 66.195312 204.839844 63.019531 201.457031 60.027344 197.628906 C 57.070312 193.777344 54.585938 189.859375 52.550781 186.183594 C 52.070312 185.25 51.597656 184.339844 51.140625 183.453125 C 51.023438 183.234375 50.910156 183.011719 50.800781 182.796875 C 50.691406 182.574219 50.59375 182.351562 50.492188 182.132812 C 50.292969 181.691406 50.097656 181.261719 49.90625 180.835938 C 49.714844 180.410156 49.527344 179.988281 49.339844 179.578125 C 49.160156 179.167969 48.964844 178.769531 48.816406 178.359375 C 48.503906 177.550781 48.207031 176.777344 47.921875 176.035156 C 47.324219 174.566406 46.929688 173.179688 46.546875 171.980469 C 46.363281 171.378906 46.183594 170.824219 46.042969 170.300781 C 45.917969 169.777344 45.804688 169.296875 45.703125 168.867188 C 45.308594 167.136719 45.15625 166.167969 45.300781 166.128906 C 45.441406 166.089844 45.859375 166.984375 46.492188 168.621094 C 46.648438 169.03125 46.820312 169.484375 47.007812 169.984375 C 47.203125 170.480469 47.4375 171.011719 47.667969 171.585938 C 48.152344 172.730469 48.640625 174.058594 49.316406 175.464844 C 49.636719 176.175781 49.972656 176.921875 50.320312 177.699219 C 50.484375 178.089844 50.695312 178.46875 50.890625 178.867188 C 51.089844 179.261719 51.292969 179.664062 51.5 180.074219 C 51.703125 180.484375 51.914062 180.898438 52.125 181.320312 C 52.230469 181.53125 52.332031 181.75 52.449219 181.960938 C 52.566406 182.171875 52.683594 182.382812 52.800781 182.59375 C 53.277344 183.445312 53.761719 184.324219 54.261719 185.222656 C 56.347656 188.769531 58.820312 192.5625 61.710938 196.324219 C 64.636719 200.066406 67.691406 203.40625 70.605469 206.308594 C 71.351562 207.019531 72.078125 207.710938 72.785156 208.382812 C 72.960938 208.550781 73.136719 208.71875 73.308594 208.882812 C 73.484375 209.046875 73.671875 209.199219 73.847656 209.355469 C 74.203125 209.667969 74.554688 209.972656 74.902344 210.273438 C 75.246094 210.574219 75.585938 210.871094 75.917969 211.160156 C 76.253906 211.449219 76.566406 211.75 76.90625 212.007812 C 77.570312 212.539062 78.207031 213.050781 78.816406 213.539062 C 80.011719 214.542969 81.175781 215.34375 82.164062 216.101562 C 82.660156 216.46875 83.117188 216.828125 83.546875 217.140625 C 83.984375 217.449219 84.382812 217.726562 84.742188 217.980469 C 86.167969 219 86.925781 219.628906 86.855469 219.757812 Z M 111.855469 230.523438 C 111.828125 230.8125 110.976562 231.015625 109.601562 230.984375 C 108.230469 230.953125 106.34375 230.660156 104.359375 229.996094 C 102.375 229.324219 100.695312 228.417969 99.585938 227.609375 C 98.472656 226.804688 97.917969 226.125 98.070312 225.882812 C 98.402344 225.375 101.328125 226.746094 105.039062 227.976562 C 108.738281 229.238281 111.898438 229.917969 111.855469 230.523438 Z M 73.269531 115.21875 C 71.527344 110.648438 69.550781 107.140625 70.050781 106.785156 C 70.285156 106.621094 71.105469 107.308594 72.121094 108.660156 C 72.632812 109.335938 73.179688 110.179688 73.722656 111.15625 C 74.257812 112.136719 74.789062 113.25 75.253906 114.453125 C 75.71875 115.65625 76.070312 116.839844 76.332031 117.925781 C 76.582031 119.011719 76.746094 120.007812 76.816406 120.847656 C 76.96875 122.535156 76.824219 123.59375 76.542969 123.628906 C 75.933594 123.703125 75.042969 119.773438 73.269531 115.21875 Z M 90.320312 95.1875 C 90.28125 94.035156 90.335938 93.277344 90.625 93.195312 C 90.902344 93.117188 91.367188 93.75 91.796875 94.890625 C 92.222656 96.027344 92.585938 97.683594 92.652344 99.539062 C 92.71875 101.394531 92.46875 103.070312 92.121094 104.234375 C 91.773438 105.402344 91.351562 106.066406 91.070312 106.007812 C 90.777344 105.945312 90.671875 105.191406 90.628906 104.042969 C 90.585938 102.886719 90.582031 101.328125 90.523438 99.613281 C 90.464844 97.894531 90.355469 96.339844 90.320312 95.1875 Z M 78.394531 96.421875 C 78.347656 95.933594 78.335938 95.476562 78.335938 95.0625 C 78.351562 93.394531 78.644531 92.386719 78.925781 92.386719 C 79.542969 92.394531 79.875 96.292969 81.511719 100.703125 C 83.09375 105.136719 85.347656 108.335938 84.875 108.738281 C 84.660156 108.921875 83.789062 108.335938 82.707031 107.066406 C 82.441406 106.75 82.152344 106.394531 81.878906 105.992188 C 81.585938 105.597656 81.316406 105.148438 81.03125 104.679688 C 80.480469 103.722656 79.949219 102.628906 79.511719 101.433594 C 79.078125 100.234375 78.78125 99.054688 78.589844 97.972656 C 78.503906 97.425781 78.425781 96.910156 78.394531 96.421875 Z M 122.898438 94.882812 C 122.675781 92.5625 122.972656 90.636719 123.558594 90.578125 C 124.144531 90.523438 124.796875 92.359375 125.019531 94.683594 C 125.238281 97.003906 124.941406 98.933594 124.355469 98.988281 C 123.773438 99.042969 123.117188 97.207031 122.898438 94.882812 Z M 107.183594 96.515625 C 106.988281 95.324219 107.121094 94.214844 107.394531 93.472656 C 107.667969 92.722656 108.046875 92.339844 108.324219 92.402344 C 108.617188 92.46875 108.769531 92.945312 108.894531 93.625 C 109.015625 94.304688 109.125 95.195312 109.285156 96.164062 C 109.449219 97.136719 109.632812 98.011719 109.742188 98.695312 C 109.84375 99.375 109.851562 99.878906 109.597656 100.035156 C 109.355469 100.1875 108.875 99.945312 108.371094 99.324219 C 107.871094 98.710938 107.382812 97.707031 107.183594 96.515625 Z M 138.308594 105.46875 C 138.226562 105.171875 139.019531 104.710938 140.226562 104.011719 C 140.53125 103.832031 140.859375 103.644531 141.207031 103.429688 C 141.558594 103.226562 141.917969 102.980469 142.304688 102.742188 C 143.058594 102.238281 143.871094 101.664062 144.6875 101.015625 C 145.5 100.359375 146.234375 99.6875 146.890625 99.058594 C 147.210938 98.734375 147.527344 98.4375 147.800781 98.136719 C 148.085938 97.847656 148.339844 97.566406 148.578125 97.308594 C 149.527344 96.28125 150.144531 95.605469 150.417969 95.75 C 150.667969 95.875 150.511719 96.824219 149.8125 98.171875 C 149.636719 98.503906 149.433594 98.867188 149.183594 99.234375 C 148.945312 99.613281 148.652344 99.988281 148.339844 100.382812 C 147.699219 101.152344 146.921875 101.945312 146.023438 102.675781 C 145.113281 103.398438 144.171875 103.988281 143.277344 104.445312 C 142.824219 104.660156 142.398438 104.867188 141.976562 105.015625 C 141.5625 105.183594 141.167969 105.304688 140.800781 105.402344 C 139.335938 105.792969 138.375 105.738281 138.304688 105.46875 Z M 152.078125 78.707031 C 152.15625 80.761719 151.953125 82.621094 151.644531 83.933594 C 151.339844 85.246094 150.953125 86.019531 150.664062 85.980469 C 150.070312 85.886719 150.109375 82.675781 149.949219 78.789062 C 149.8125 74.898438 149.53125 71.703125 150.117188 71.566406 C 150.402344 71.503906 150.84375 72.246094 151.25 73.53125 C 151.65625 74.820312 152 76.65625 152.078125 78.707031 Z M 166.929688 85.128906 C 164.46875 92.640625 161.449219 98.320312 160.925781 98.085938 C 160.375 97.84375 162.484375 91.867188 164.90625 84.464844 C 167.347656 77.070312 169.199219 71.003906 169.785156 71.140625 C 170.347656 71.261719 169.40625 77.625 166.929688 85.128906 Z M 173.316406 110.902344 C 171.683594 113.199219 169.859375 115.667969 168.175781 118.371094 C 166.496094 121.070312 165.148438 123.769531 164.34375 126.347656 C 163.527344 128.925781 163.226562 131.367188 163.253906 133.410156 C 163.292969 135.453125 163.628906 137.097656 163.933594 138.214844 C 164.089844 138.777344 164.214844 139.214844 164.300781 139.519531 C 164.375 139.828125 164.386719 140.007812 164.320312 140.042969 C 164.257812 140.078125 164.121094 139.964844 163.914062 139.710938 C 163.816406 139.585938 163.6875 139.425781 163.5625 139.226562 C 163.441406 139.023438 163.308594 138.785156 163.160156 138.515625 C 162.59375 137.425781 161.992188 135.710938 161.753906 133.503906 C 161.519531 131.296875 161.683594 128.621094 162.457031 125.796875 C 163.226562 122.960938 164.617188 120.058594 166.363281 117.246094 C 168.121094 114.433594 170.027344 111.960938 171.738281 109.734375 C 173.460938 107.511719 174.984375 105.519531 176.195312 103.800781 C 178.628906 100.375 179.777344 98.019531 180.070312 98.136719 C 180.199219 98.191406 180.09375 98.863281 179.683594 100.003906 C 179.277344 101.144531 178.542969 102.742188 177.464844 104.609375 C 176.386719 106.480469 174.953125 108.609375 173.316406 110.902344 Z M 191.417969 105.070312 C 191.210938 104.851562 191.558594 104.1875 192.164062 103.230469 C 192.472656 102.753906 192.832031 102.195312 193.230469 101.578125 C 193.621094 100.960938 194.046875 100.28125 194.476562 99.558594 C 194.902344 98.832031 195.289062 98.132812 195.640625 97.488281 C 195.988281 96.839844 196.304688 96.253906 196.570312 95.757812 C 197.113281 94.765625 197.527344 94.136719 197.820312 94.210938 C 198.097656 94.277344 198.199219 95.050781 197.996094 96.246094 C 197.894531 96.84375 197.707031 97.542969 197.429688 98.292969 C 197.148438 99.042969 196.78125 99.84375 196.3125 100.640625 C 195.839844 101.433594 195.320312 102.148438 194.800781 102.753906 C 194.277344 103.359375 193.757812 103.863281 193.285156 104.238281 C 192.335938 104.996094 191.609375 105.28125 191.417969 105.074219 Z M 195.183594 69.929688 C 195.101562 69.664062 195.730469 69.15625 196.96875 68.949219 C 197.582031 68.84375 198.339844 68.839844 199.164062 68.996094 C 199.984375 69.152344 200.867188 69.488281 201.691406 70.027344 C 202.507812 70.574219 203.164062 71.253906 203.628906 71.949219 C 204.09375 72.644531 204.382812 73.34375 204.53125 73.949219 C 204.824219 75.171875 204.597656 75.945312 204.324219 75.976562 C 204.019531 76.019531 203.703125 75.382812 203.140625 74.53125 C 202.585938 73.679688 201.722656 72.605469 200.515625 71.800781 C 199.304688 71.003906 197.976562 70.632812 196.976562 70.453125 C 195.972656 70.265625 195.261719 70.226562 195.183594 69.929688 Z M 130.953125 126.179688 C 130.773438 125.625 130.542969 125.039062 130.316406 124.425781 C 129.839844 123.199219 129.277344 121.871094 128.609375 120.515625 C 127.933594 119.160156 127.222656 117.90625 126.542969 116.78125 C 126.191406 116.230469 125.867188 115.691406 125.535156 115.207031 C 125.371094 114.964844 125.222656 114.722656 125.066406 114.5 C 124.910156 114.273438 124.757812 114.058594 124.617188 113.851562 C 123.46875 112.203125 122.71875 111.167969 122.933594 110.945312 C 123.121094 110.742188 124.261719 111.40625 125.765625 112.882812 C 125.953125 113.070312 126.144531 113.265625 126.347656 113.46875 C 126.546875 113.679688 126.734375 113.90625 126.941406 114.140625 C 127.355469 114.601562 127.75 115.132812 128.171875 115.6875 C 128.988281 116.820312 129.800781 118.128906 130.519531 119.570312 C 131.230469 121.019531 131.773438 122.460938 132.175781 123.792969 C 132.363281 124.464844 132.542969 125.101562 132.65625 125.714844 C 132.71875 126.015625 132.785156 126.308594 132.828125 126.59375 C 132.867188 126.875 132.90625 127.148438 132.945312 127.410156 C 133.199219 129.503906 133.035156 130.8125 132.761719 130.839844 C 132.453125 130.871094 132.085938 129.644531 131.472656 127.734375 C 131.394531 127.496094 131.316406 127.246094 131.230469 126.984375 C 131.148438 126.726562 131.046875 126.460938 130.953125 126.179688 Z M 132.71875 140.535156 C 132.710938 138.601562 133.183594 137.03125 133.773438 137.03125 C 134.359375 137.027344 134.839844 138.59375 134.847656 140.53125 C 134.851562 142.464844 134.378906 144.035156 133.792969 144.035156 C 133.203125 144.039062 132.722656 142.472656 132.71875 140.535156 Z M 194.535156 114.804688 C 194.753906 115.035156 194.082031 115.976562 193.132812 117.492188 C 193.011719 117.683594 192.890625 117.882812 192.761719 118.089844 C 192.632812 118.292969 192.515625 118.519531 192.382812 118.746094 C 192.113281 119.191406 191.867188 119.695312 191.59375 120.207031 C 191.078125 121.257812 190.5625 122.429688 190.121094 123.699219 C 189.691406 124.972656 189.375 126.214844 189.136719 127.355469 C 189.039062 127.933594 188.921875 128.476562 188.863281 128.996094 C 188.828125 129.253906 188.78125 129.503906 188.753906 129.746094 C 188.730469 129.988281 188.703125 130.222656 188.679688 130.445312 C 188.496094 132.226562 188.449219 133.378906 188.136719 133.425781 C 187.992188 133.449219 187.820312 133.183594 187.632812 132.671875 C 187.585938 132.546875 187.539062 132.402344 187.488281 132.246094 C 187.445312 132.089844 187.410156 131.914062 187.371094 131.726562 C 187.300781 131.355469 187.207031 130.925781 187.175781 130.445312 C 187.15625 130.203125 187.132812 129.953125 187.113281 129.691406 C 187.09375 129.429688 187.101562 129.15625 187.101562 128.871094 C 187.085938 128.304688 187.140625 127.699219 187.195312 127.0625 C 187.34375 125.792969 187.632812 124.40625 188.105469 123.007812 C 188.59375 121.609375 189.21875 120.339844 189.882812 119.25 C 190.230469 118.710938 190.558594 118.203125 190.917969 117.761719 C 191.09375 117.539062 191.257812 117.316406 191.433594 117.121094 C 191.609375 116.929688 191.78125 116.742188 191.945312 116.566406 C 192.265625 116.207031 192.601562 115.925781 192.890625 115.675781 C 193.035156 115.554688 193.167969 115.4375 193.300781 115.339844 C 193.4375 115.246094 193.5625 115.160156 193.675781 115.089844 C 194.136719 114.800781 194.4375 114.699219 194.539062 114.804688 Z M 188.316406 144.925781 C 188.339844 146.527344 187.882812 147.835938 187.296875 147.84375 C 186.707031 147.851562 186.210938 146.558594 186.1875 144.957031 C 186.160156 143.351562 186.617188 142.046875 187.207031 142.035156 C 187.792969 142.027344 188.289062 143.320312 188.316406 144.925781 Z M 259.417969 147.398438 C 259.421875 147.675781 259.425781 147.988281 259.421875 148.328125 C 259.417969 148.667969 259.394531 149.039062 259.375 149.433594 C 259.328125 150.226562 259.285156 151.132812 259.160156 152.125 C 259.105469 152.625 259.042969 153.144531 258.980469 153.6875 C 258.914062 154.230469 258.816406 154.789062 258.726562 155.371094 C 258.558594 156.539062 258.300781 157.769531 258.035156 159.066406 C 257.460938 161.652344 256.695312 164.472656 255.703125 167.367188 C 254.691406 170.257812 253.546875 172.941406 252.398438 175.332031 C 251.804688 176.515625 251.246094 177.640625 250.65625 178.664062 C 250.367188 179.175781 250.097656 179.675781 249.816406 180.144531 C 249.527344 180.609375 249.253906 181.054688 248.988281 181.480469 C 248.472656 182.335938 247.945312 183.074219 247.492188 183.726562 C 247.261719 184.050781 247.050781 184.351562 246.847656 184.625 C 246.636719 184.894531 246.441406 185.136719 246.265625 185.355469 C 245.554688 186.21875 245.105469 186.65625 244.984375 186.574219 C 244.859375 186.492188 245.074219 185.902344 245.566406 184.90625 C 246.070312 183.917969 246.789062 182.496094 247.679688 180.742188 C 247.898438 180.300781 248.128906 179.839844 248.371094 179.363281 C 248.609375 178.882812 248.835938 178.375 249.085938 177.855469 C 249.597656 176.820312 250.085938 175.6875 250.617188 174.507812 C 251.644531 172.128906 252.703125 169.488281 253.691406 166.671875 C 254.660156 163.84375 255.460938 161.113281 256.125 158.613281 C 256.4375 157.355469 256.753906 156.164062 256.996094 155.035156 C 257.117188 154.472656 257.253906 153.933594 257.363281 153.40625 C 257.472656 152.882812 257.574219 152.378906 257.671875 151.898438 C 258.058594 149.96875 258.375 148.40625 258.59375 147.316406 C 258.820312 146.230469 259.019531 145.632812 259.164062 145.644531 C 259.3125 145.65625 259.394531 146.277344 259.417969 147.398438 Z M 259.417969 147.398438 " fill-opacity="1" fill-rule="nonzero"/></svg>