<svg xmlns="http://www.w3.org/2000/svg" xmlns:xlink="http://www.w3.org/1999/xlink" width="400" zoomAndPan="magnify" viewBox="0 0 300 299.999988" height="400" preserveAspectRatio="xMidYMid meet" version="1.0"><defs><clipPath id="6ae7002860"><path d="M 30.175781 69.285156 L 269.824219 69.285156 L 269.824219 250.800781 L 30.175781 250.800781 Z M 30.175781 69.285156 " clip-rule="nonzero"/></clipPath><clipPath id="7d40c701fa"><path d="M 203 49.050781 L 239 49.050781 L 239 84 L 203 84 Z M 203 49.050781 " clip-rule="nonzero"/></clipPath></defs><g clip-path="url(#6ae7002860)"><path fill="#a9a0f0" d="M 218.871094 221.003906 C 218.742188 221.214844 218.652344 221.441406 218.59375 221.675781 C 215.402344 235.527344 185.269531 246.382812 150 246.382812 C 114.730469 246.382812 84.597656 235.527344 81.40625 221.675781 C 81.351562 221.441406 81.257812 221.214844 81.132812 221.003906 L 47.863281 166.339844 C 67.445312 179.800781 101.597656 188.902344 141.730469 190.007812 C 141.941406 190.015625 142.148438 190.015625 142.355469 190.023438 C 143.367188 190.046875 144.378906 190.070312 145.390625 190.085938 C 145.695312 190.089844 145.992188 190.097656 146.296875 190.101562 C 147.527344 190.117188 148.757812 190.125 149.996094 190.125 C 151.234375 190.125 152.46875 190.117188 153.699219 190.101562 C 154.003906 190.097656 154.300781 190.089844 154.597656 190.085938 C 155.617188 190.070312 156.628906 190.046875 157.632812 190.023438 C 157.84375 190.015625 158.054688 190.015625 158.261719 190.007812 C 198.402344 188.902344 232.554688 179.800781 252.128906 166.339844 Z M 48.984375 140.394531 C 49.050781 141.085938 49.1875 141.765625 49.40625 142.433594 C 48.226562 143.941406 47.625 145.835938 47.714844 147.753906 C 46.128906 148.925781 44.953125 150.558594 44.339844 152.476562 C 43.816406 154.113281 43.761719 155.820312 44.140625 157.449219 C 41.828125 155.316406 39.925781 153.105469 38.445312 150.863281 C 38.113281 150.316406 37.664062 149.578125 37.371094 149.09375 C 35.628906 145.941406 34.71875 142.726562 34.71875 139.503906 C 34.71875 137.027344 35.25 134.546875 36.273438 132.097656 C 39.476562 136.035156 43.871094 139.003906 48.984375 140.394531 Z M 55.527344 96.238281 C 66.695312 96.238281 75.78125 105.320312 75.78125 116.488281 C 75.78125 117.660156 75.664062 118.863281 75.441406 120.082031 C 75.355469 120.117188 75.269531 120.160156 75.179688 120.203125 C 73.234375 121.210938 71.726562 122.839844 70.863281 124.800781 C 68.773438 124.367188 66.574219 124.652344 64.625 125.65625 C 62.675781 126.664062 61.167969 128.292969 60.304688 130.25 C 58.21875 129.820312 56.011719 130.105469 54.0625 131.109375 C 53.800781 131.242188 53.550781 131.394531 53.304688 131.546875 C 53.175781 131.632812 53.054688 131.722656 52.929688 131.808594 C 52.824219 131.886719 52.714844 131.957031 52.609375 132.042969 C 52.457031 132.160156 52.308594 132.289062 52.160156 132.414062 C 52.097656 132.46875 52.035156 132.523438 51.976562 132.582031 C 51.816406 132.730469 51.664062 132.882812 51.511719 133.042969 C 51.472656 133.085938 51.4375 133.125 51.398438 133.167969 C 51.242188 133.335938 51.09375 133.519531 50.953125 133.699219 C 50.925781 133.730469 50.898438 133.761719 50.875 133.800781 C 50.730469 133.992188 50.589844 134.183594 50.460938 134.386719 C 50.445312 134.417969 50.425781 134.449219 50.40625 134.476562 C 50.273438 134.683594 50.152344 134.898438 50.039062 135.117188 C 50.027344 135.132812 50.015625 135.160156 50.003906 135.179688 C 49.890625 135.410156 49.777344 135.636719 49.679688 135.871094 C 41.222656 133.332031 35.277344 125.488281 35.277344 116.488281 C 35.277344 105.320312 44.359375 96.238281 55.527344 96.238281 Z M 112 96.035156 C 112.160156 96.273438 112.324219 96.5 112.503906 96.722656 C 111.164062 98.382812 110.40625 100.472656 110.40625 102.667969 C 110.40625 104.855469 111.167969 106.945312 112.511719 108.605469 C 111.632812 109.695312 111.007812 110.96875 110.683594 112.339844 C 109.886719 112.121094 109.054688 112.023438 108.222656 112.0625 C 105.507812 108.414062 100.464844 107.15625 96.292969 109.304688 C 94.351562 110.308594 92.84375 111.945312 91.980469 113.898438 C 89.886719 113.46875 87.6875 113.75 85.738281 114.757812 C 83.789062 115.761719 82.285156 117.390625 81.421875 119.347656 C 81.007812 119.261719 80.585938 119.214844 80.160156 119.1875 C 80.265625 118.277344 80.324219 117.375 80.324219 116.488281 C 80.324219 111.945312 79.089844 107.683594 76.945312 104.015625 C 87.460938 100.523438 99.234375 97.84375 112 96.035156 Z M 119.769531 85.859375 C 119.824219 85.863281 119.933594 85.867188 119.988281 85.867188 C 121.058594 85.867188 121.992188 85.121094 122.207031 84.070312 C 122.496094 82.714844 123.550781 81.65625 124.898438 81.371094 C 125.949219 81.144531 126.6875 80.085938 126.6875 79.015625 C 126.6875 77.703125 127.199219 76.46875 128.125 75.539062 C 129.050781 74.609375 130.28125 74.097656 131.597656 74.097656 C 133.222656 74.097656 134.738281 74.902344 135.660156 76.246094 C 136.082031 76.867188 136.785156 77.238281 137.539062 77.238281 C 138.292969 77.238281 138.996094 76.867188 139.414062 76.246094 C 140.332031 74.894531 141.847656 74.089844 143.484375 74.089844 C 145.109375 74.089844 146.621094 74.890625 147.542969 76.238281 C 147.964844 76.859375 148.664062 77.230469 149.421875 77.230469 C 150.171875 77.230469 150.875 76.855469 151.296875 76.234375 C 152.210938 74.886719 153.734375 74.078125 155.359375 74.078125 C 156.984375 74.078125 158.507812 74.882812 159.421875 76.226562 C 159.847656 76.847656 160.546875 77.21875 161.304688 77.21875 C 162.054688 77.21875 162.757812 76.847656 163.179688 76.222656 C 164.097656 74.875 165.617188 74.070312 167.246094 74.070312 C 168.871094 74.070312 170.390625 74.871094 171.308594 76.21875 C 171.730469 76.839844 172.433594 77.210938 173.183594 77.210938 C 173.9375 77.207031 174.636719 76.839844 175.066406 76.214844 C 175.980469 74.867188 177.5 74.0625 179.128906 74.058594 C 180.4375 74.058594 181.671875 74.570312 182.601562 75.496094 C 183.527344 76.421875 184.039062 77.65625 184.042969 78.863281 C 184.042969 78.894531 184.03125 78.988281 184.03125 79.019531 C 183.996094 80.121094 184.757812 81.089844 185.832031 81.320312 C 187.183594 81.605469 188.246094 82.664062 188.53125 84.011719 C 188.757812 85.0625 189.777344 85.804688 190.890625 85.804688 C 192.203125 85.804688 193.4375 86.3125 194.363281 87.238281 C 195.289062 88.167969 195.800781 89.402344 195.808594 90.710938 C 195.808594 92.339844 195.003906 93.859375 193.65625 94.777344 C 193.03125 95.199219 192.660156 95.902344 192.660156 96.65625 C 192.660156 97.410156 193.03125 98.113281 193.65625 98.535156 C 195.007812 99.453125 195.8125 100.96875 195.816406 102.59375 C 195.816406 104.222656 195.007812 105.738281 193.667969 106.660156 C 193.042969 107.082031 192.671875 107.789062 192.671875 108.542969 C 192.671875 109.292969 193.050781 109.996094 193.667969 110.414062 C 193.960938 110.613281 194.226562 110.84375 194.464844 111.101562 C 194.371094 111.09375 194.277344 111.09375 194.1875 111.085938 C 194.085938 111.082031 193.992188 111.070312 193.894531 111.070312 C 193.699219 111.058594 193.511719 111.066406 193.320312 111.066406 C 193.242188 111.070312 193.167969 111.066406 193.089844 111.070312 C 192.835938 111.082031 192.574219 111.101562 192.3125 111.136719 C 192.234375 111.144531 192.148438 111.160156 192.0625 111.171875 C 191.886719 111.199219 191.707031 111.230469 191.53125 111.261719 C 191.425781 111.289062 191.316406 111.316406 191.210938 111.335938 C 191.058594 111.378906 190.902344 111.417969 190.75 111.464844 C 190.640625 111.492188 190.535156 111.523438 190.429688 111.5625 C 190.261719 111.613281 190.105469 111.671875 189.949219 111.730469 C 189.855469 111.769531 189.761719 111.800781 189.671875 111.839844 C 189.421875 111.945312 189.175781 112.054688 188.9375 112.179688 C 186.816406 113.269531 185.195312 115.058594 184.289062 117.199219 C 182.019531 116.695312 179.617188 116.988281 177.503906 118.078125 C 175.390625 119.175781 173.761719 120.960938 172.859375 123.101562 C 170.585938 122.601562 168.1875 122.886719 166.070312 123.984375 C 163.683594 125.214844 161.921875 127.304688 161.105469 129.859375 C 160.445312 131.929688 160.472656 134.113281 161.148438 136.117188 C 159.839844 137.757812 159.183594 139.828125 159.300781 141.933594 C 158.8125 142.289062 158.359375 142.6875 157.941406 143.121094 C 155.066406 146.132812 154.261719 150.765625 156.28125 154.675781 C 156.285156 154.6875 156.292969 154.699219 156.304688 154.707031 C 156.324219 154.75 156.34375 154.800781 156.371094 154.839844 C 156.074219 154.90625 155.757812 154.941406 155.417969 154.941406 C 153.792969 154.941406 152.28125 154.136719 151.359375 152.792969 C 150.933594 152.171875 150.238281 151.800781 149.484375 151.800781 C 148.714844 151.855469 148.027344 152.171875 147.601562 152.796875 C 146.691406 154.144531 145.171875 154.953125 143.539062 154.953125 C 143.113281 154.953125 142.691406 154.890625 142.273438 154.773438 C 142.308594 153.84375 142.195312 152.917969 141.960938 152.019531 C 141.933594 151.917969 141.90625 151.820312 141.882812 151.726562 C 141.847656 151.621094 141.8125 151.519531 141.78125 151.410156 C 141.730469 151.273438 141.679688 151.128906 141.625 150.996094 C 141.59375 150.910156 141.5625 150.832031 141.53125 150.75 C 141.4375 150.53125 141.339844 150.308594 141.226562 150.097656 C 140.226562 148.152344 138.589844 146.640625 136.636719 145.78125 C 137.066406 143.691406 136.78125 141.484375 135.777344 139.535156 C 134.773438 137.59375 133.140625 136.085938 131.1875 135.222656 C 131.292969 134.699219 131.359375 134.167969 131.375 133.640625 C 131.425781 132.042969 131.082031 130.441406 130.324219 128.980469 C 129.324219 127.03125 127.6875 125.523438 125.734375 124.660156 C 126.164062 122.570312 125.878906 120.371094 124.871094 118.425781 C 123.714844 116.179688 121.75 114.515625 119.347656 113.75 C 119.128906 113.679688 118.914062 113.621094 118.699219 113.574219 C 118.640625 113.558594 118.582031 113.546875 118.523438 113.53125 C 118.347656 113.496094 118.167969 113.457031 117.984375 113.429688 C 117.941406 113.417969 117.902344 113.414062 117.859375 113.402344 C 117.628906 113.371094 117.398438 113.34375 117.171875 113.328125 L 117.160156 113.328125 C 116.9375 113.308594 116.71875 113.300781 116.496094 113.300781 L 116.378906 113.300781 C 116.164062 113.308594 115.957031 113.3125 115.75 113.328125 C 115.726562 113.328125 115.710938 113.328125 115.695312 113.335938 C 115.492188 113.351562 115.296875 113.371094 115.09375 113.402344 C 115.375 112.222656 116.085938 111.175781 117.113281 110.480469 C 117.730469 110.054688 118.101562 109.351562 118.101562 108.601562 C 118.101562 107.847656 117.730469 107.144531 117.105469 106.71875 C 115.757812 105.804688 114.957031 104.285156 114.949219 102.660156 C 114.949219 101.035156 115.753906 99.515625 117.101562 98.597656 C 117.71875 98.171875 118.09375 97.46875 118.09375 96.71875 C 118.09375 95.964844 117.71875 95.261719 117.097656 94.839844 C 115.75 93.925781 114.945312 92.40625 114.945312 90.777344 C 114.941406 88.070312 117.140625 85.863281 119.769531 85.859375 Z M 245.429688 94.222656 C 254.835938 94.222656 262.476562 101.871094 262.476562 111.273438 C 262.476562 119.175781 256.949219 126.03125 249.382812 127.835938 C 249.394531 127.78125 249.394531 127.730469 249.402344 127.675781 C 249.417969 127.554688 249.433594 127.425781 249.445312 127.296875 C 249.460938 127.144531 249.476562 126.996094 249.488281 126.84375 C 249.5 126.71875 249.5 126.589844 249.503906 126.460938 C 249.511719 126.3125 249.511719 126.164062 249.503906 126.015625 C 249.503906 125.882812 249.5 125.757812 249.492188 125.625 C 249.484375 125.476562 249.472656 125.328125 249.457031 125.179688 C 249.441406 125.050781 249.429688 124.921875 249.410156 124.796875 C 249.386719 124.644531 249.359375 124.496094 249.335938 124.347656 C 249.308594 124.226562 249.285156 124.097656 249.257812 123.96875 C 249.222656 123.820312 249.179688 123.671875 249.136719 123.523438 C 249.109375 123.398438 249.078125 123.28125 249.042969 123.160156 C 248.988281 123 248.925781 122.835938 248.867188 122.675781 C 248.824219 122.574219 248.792969 122.46875 248.75 122.371094 C 248.640625 122.109375 248.523438 121.851562 248.398438 121.601562 C 247.300781 119.480469 245.515625 117.855469 243.375 116.949219 C 243.875 114.683594 243.582031 112.28125 242.492188 110.164062 C 241.261719 107.78125 239.171875 106.015625 236.617188 105.203125 C 234.550781 104.542969 232.371094 104.5625 230.363281 105.246094 C 230.144531 105.070312 229.921875 104.910156 229.6875 104.761719 C 232.292969 98.472656 238.519531 94.222656 245.429688 94.222656 Z M 265.277344 139.503906 C 265.277344 142.738281 264.363281 145.964844 262.605469 149.132812 L 261.550781 150.863281 C 261.445312 151.023438 261.34375 151.183594 261.230469 151.34375 C 261.179688 151.320312 261.128906 151.289062 261.078125 151.269531 C 261.589844 148.992188 261.296875 146.585938 260.199219 144.460938 C 259.105469 142.347656 257.316406 140.71875 255.175781 139.8125 C 255.683594 137.550781 255.390625 135.148438 254.296875 133.027344 C 253.996094 132.441406 253.632812 131.894531 253.226562 131.382812 C 255.996094 130.308594 258.476562 128.671875 260.550781 126.632812 C 263.6875 130.824219 265.277344 135.148438 265.277344 139.503906 Z M 199.300781 106.929688 C 199.984375 105.605469 200.359375 104.121094 200.359375 102.59375 C 200.355469 100.910156 199.90625 99.296875 199.09375 97.882812 C 203.328125 98.695312 207.429688 99.605469 211.378906 100.613281 C 209.472656 101.71875 207.996094 103.398438 207.15625 105.394531 C 204.886719 104.894531 202.484375 105.179688 200.371094 106.277344 C 199.992188 106.46875 199.640625 106.695312 199.300781 106.929688 Z M 163.972656 142.492188 C 163.5625 140.972656 164.074219 139.355469 165.28125 138.363281 C 166.132812 137.667969 166.332031 136.398438 165.792969 135.441406 C 165.117188 134.136719 164.988281 132.640625 165.4375 131.242188 C 165.882812 129.839844 166.847656 128.691406 168.15625 128.023438 C 168.359375 127.914062 168.5625 127.832031 168.773438 127.75 C 168.816406 127.734375 168.855469 127.722656 168.898438 127.714844 C 169.066406 127.65625 169.238281 127.601562 169.410156 127.558594 C 169.460938 127.542969 169.519531 127.542969 169.574219 127.527344 C 169.734375 127.496094 169.898438 127.464844 170.0625 127.445312 C 170.121094 127.4375 170.1875 127.441406 170.246094 127.429688 C 170.40625 127.421875 170.558594 127.410156 170.71875 127.410156 C 170.816406 127.410156 170.910156 127.421875 171 127.429688 C 171.128906 127.4375 171.261719 127.441406 171.382812 127.457031 C 171.480469 127.46875 171.578125 127.488281 171.671875 127.503906 C 171.792969 127.53125 171.921875 127.546875 172.046875 127.582031 C 172.15625 127.613281 172.257812 127.648438 172.371094 127.6875 C 172.476562 127.71875 172.582031 127.746094 172.6875 127.789062 C 172.902344 127.875 173.109375 127.96875 173.3125 128.074219 C 173.972656 128.4375 174.773438 128.441406 175.4375 128.097656 C 176.101562 127.75 176.5625 127.101562 176.652344 126.355469 C 176.871094 124.539062 177.96875 122.957031 179.589844 122.121094 C 181.203125 121.285156 183.132812 121.300781 184.742188 122.175781 C 185.402344 122.53125 186.199219 122.542969 186.867188 122.195312 C 187.535156 121.851562 187.988281 121.195312 188.082031 120.449219 C 188.304688 118.632812 189.402344 117.058594 191.023438 116.214844 C 192.640625 115.378906 194.570312 115.402344 196.175781 116.273438 C 196.511719 116.449219 196.871094 116.539062 197.234375 116.546875 C 197.421875 116.546875 197.601562 116.53125 197.785156 116.480469 C 197.960938 116.445312 198.136719 116.378906 198.304688 116.296875 C 198.800781 116.035156 199.171875 115.609375 199.371094 115.101562 C 199.375 115.097656 199.382812 115.09375 199.382812 115.085938 C 199.398438 115.042969 199.40625 115 199.417969 114.957031 C 199.433594 114.910156 199.449219 114.867188 199.464844 114.820312 L 199.464844 114.804688 C 199.488281 114.71875 199.503906 114.632812 199.515625 114.546875 C 199.515625 114.527344 199.523438 114.5 199.53125 114.480469 C 199.582031 114.070312 199.695312 113.644531 199.867188 113.203125 C 199.871094 113.183594 199.875 113.164062 199.886719 113.144531 C 200.371094 111.9375 201.273438 110.925781 202.453125 110.316406 C 204.074219 109.480469 206 109.5 207.609375 110.367188 C 208.273438 110.726562 209.0625 110.734375 209.726562 110.390625 C 210.398438 110.046875 210.851562 109.394531 210.949219 108.648438 C 211.167969 106.832031 212.269531 105.246094 213.882812 104.414062 C 216.582031 103.019531 219.910156 104.082031 221.261719 106.695312 C 221.289062 106.753906 221.34375 106.871094 221.375 106.921875 C 221.867188 107.863281 222.945312 108.339844 223.984375 108.058594 C 224.71875 107.855469 225.480469 107.875 226.191406 108.09375 C 226.195312 108.09375 226.199219 108.097656 226.207031 108.097656 C 226.792969 108.28125 227.3125 108.585938 227.75 108.988281 C 227.878906 109.109375 228 109.238281 228.113281 109.378906 C 228.71875 110.117188 229.769531 110.359375 230.664062 110.046875 C 230.789062 110.007812 230.917969 109.953125 231.035156 109.882812 C 232.339844 109.207031 233.832031 109.085938 235.230469 109.53125 C 236.636719 109.980469 237.777344 110.941406 238.453125 112.253906 C 239.289062 113.867188 239.269531 115.800781 238.402344 117.402344 C 238.039062 118.0625 238.035156 118.863281 238.378906 119.527344 C 238.726562 120.195312 239.375 120.652344 240.121094 120.742188 C 241.9375 120.964844 243.519531 122.0625 244.355469 123.683594 C 245.191406 125.300781 245.167969 127.230469 244.300781 128.835938 C 244.121094 129.167969 244.03125 129.53125 244.03125 129.898438 C 244.023438 130.265625 244.109375 130.625 244.28125 130.960938 C 244.625 131.632812 245.277344 132.085938 246.027344 132.175781 C 246.085938 132.179688 246.144531 132.199219 246.207031 132.207031 C 246.582031 132.265625 246.960938 132.363281 247.332031 132.5 C 247.34375 132.507812 247.347656 132.507812 247.359375 132.511719 C 248.59375 132.992188 249.636719 133.90625 250.261719 135.117188 C 251.097656 136.734375 251.074219 138.664062 250.203125 140.269531 C 249.84375 140.929688 249.839844 141.726562 250.179688 142.394531 C 250.527344 143.0625 251.183594 143.515625 251.929688 143.605469 C 253.742188 143.828125 255.324219 144.929688 256.160156 146.542969 C 256.996094 148.167969 256.976562 150.097656 256.109375 151.699219 C 255.746094 152.363281 255.742188 153.160156 256.085938 153.828125 C 256.433594 154.496094 257.082031 154.949219 257.828125 155.039062 C 257.957031 155.054688 258.078125 155.074219 258.207031 155.101562 C 253.742188 159.9375 247.261719 164.503906 239.007812 168.550781 C 239.046875 168.476562 239.089844 168.398438 239.125 168.320312 C 239.652344 167.179688 239.164062 165.832031 238.023438 165.300781 C 236.882812 164.769531 235.53125 165.261719 235.003906 166.402344 C 234.085938 168.363281 232.933594 170.195312 231.574219 171.867188 C 231.269531 171.984375 230.964844 172.105469 230.664062 172.230469 C 230.417969 172.324219 230.171875 172.425781 229.921875 172.523438 C 229.503906 172.6875 229.082031 172.847656 228.65625 173.007812 C 228.199219 173.175781 227.738281 173.347656 227.277344 173.519531 L 226.492188 173.804688 C 224.847656 174.390625 223.164062 174.964844 221.433594 175.519531 C 221.421875 175.519531 221.417969 175.527344 221.40625 175.53125 C 220.640625 175.769531 219.867188 176.011719 219.085938 176.246094 C 218.820312 176.328125 218.546875 176.410156 218.277344 176.488281 C 217.636719 176.679688 216.992188 176.867188 216.347656 177.050781 C 215.84375 177.191406 215.332031 177.335938 214.820312 177.476562 C 214.480469 177.570312 214.136719 177.660156 213.796875 177.757812 C 213.273438 177.894531 212.757812 178.035156 212.238281 178.167969 C 212.199219 178.179688 212.164062 178.1875 212.128906 178.199219 C 210.898438 178.519531 209.652344 178.824219 208.398438 179.125 C 208.339844 179.136719 208.273438 179.152344 208.210938 179.167969 C 206.550781 179.5625 204.859375 179.933594 203.144531 180.296875 C 196.488281 178.15625 191.050781 173.5625 187.839844 167.339844 C 184.625 161.105469 184.023438 153.984375 186.15625 147.296875 C 188.289062 140.613281 192.898438 135.152344 199.136719 131.9375 C 201.21875 130.859375 203.421875 130.066406 205.6875 129.582031 C 206.917969 129.320312 207.695312 128.113281 207.433594 126.882812 C 207.171875 125.65625 205.953125 124.878906 204.734375 125.140625 C 202.074219 125.710938 199.492188 126.636719 197.054688 127.894531 C 189.738281 131.675781 184.332031 138.070312 181.828125 145.914062 C 179.324219 153.761719 180.027344 162.109375 183.804688 169.429688 C 186.492188 174.636719 190.519531 178.871094 195.441406 181.777344 C 193.574219 182.109375 191.691406 182.410156 189.777344 182.699219 C 189.519531 182.738281 189.25 182.773438 188.992188 182.816406 C 188.21875 182.929688 187.441406 183.035156 186.664062 183.140625 C 186.054688 183.226562 185.449219 183.304688 184.84375 183.386719 C 184.421875 183.441406 184.007812 183.492188 183.585938 183.539062 C 182.871094 183.632812 182.152344 183.714844 181.429688 183.800781 L 180.742188 183.882812 C 179.6875 184 178.628906 184.109375 177.566406 184.21875 C 177.523438 184.222656 177.480469 184.222656 177.445312 184.226562 C 177.449219 183.355469 177.664062 182.503906 178.078125 181.730469 C 178.441406 181.070312 178.445312 180.277344 178.101562 179.605469 C 177.757812 178.941406 177.105469 178.488281 176.359375 178.394531 C 174.542969 178.171875 172.960938 177.074219 172.125 175.457031 C 171.289062 173.835938 171.308594 171.910156 172.179688 170.300781 C 172.535156 169.640625 172.546875 168.847656 172.199219 168.175781 C 171.851562 167.511719 171.203125 167.054688 170.453125 166.960938 C 168.640625 166.738281 167.054688 165.640625 166.21875 164.023438 C 165.382812 162.402344 165.402344 160.476562 166.277344 158.867188 C 166.632812 158.207031 166.644531 157.414062 166.296875 156.742188 C 165.953125 156.078125 165.296875 155.617188 164.550781 155.527344 C 163.453125 155.394531 162.441406 154.933594 161.628906 154.234375 C 161.558594 154.15625 161.5 154.070312 161.425781 153.996094 C 161.058594 153.636719 160.769531 153.308594 160.550781 152.984375 C 160.472656 152.851562 160.386719 152.726562 160.316406 152.589844 C 158.929688 149.894531 159.988281 146.566406 162.613281 145.207031 C 162.644531 145.191406 162.742188 145.148438 162.769531 145.132812 C 163.757812 144.660156 164.265625 143.546875 163.972656 142.492188 Z M 48.984375 157.601562 C 48.382812 156.433594 48.269531 155.109375 48.667969 153.855469 C 49.066406 152.605469 49.925781 151.585938 51.027344 151.019531 C 51.058594 151.007812 51.140625 150.96875 51.167969 150.953125 C 52.152344 150.480469 52.660156 149.367188 52.371094 148.3125 C 52.007812 146.976562 52.460938 145.546875 53.523438 144.675781 C 54.351562 144 54.527344 142.714844 54.035156 141.761719 C 53.582031 140.882812 53.40625 139.910156 53.519531 138.945312 C 53.523438 138.921875 53.53125 138.90625 53.53125 138.890625 C 53.6875 137.699219 54.265625 136.628906 55.132812 135.84375 C 55.15625 135.828125 55.175781 135.808594 55.195312 135.792969 C 55.316406 135.691406 55.441406 135.59375 55.570312 135.503906 C 55.601562 135.484375 55.632812 135.457031 55.664062 135.433594 C 55.820312 135.335938 55.980469 135.234375 56.148438 135.148438 C 57.589844 134.402344 59.3125 134.417969 60.746094 135.195312 C 61.40625 135.550781 62.203125 135.5625 62.871094 135.21875 C 63.539062 134.871094 63.992188 134.222656 64.082031 133.46875 C 64.28125 131.851562 65.257812 130.445312 66.707031 129.695312 C 68.148438 128.949219 69.867188 128.96875 71.300781 129.742188 C 71.960938 130.105469 72.757812 130.109375 73.425781 129.769531 C 74.09375 129.421875 74.550781 128.769531 74.640625 128.023438 C 74.835938 126.402344 75.816406 124.992188 77.261719 124.246094 C 77.46875 124.140625 77.691406 124.082031 77.910156 124.015625 L 78.070312 123.964844 C 78.1875 123.925781 78.296875 123.878906 78.40625 123.824219 C 79.5625 123.558594 80.789062 123.714844 81.863281 124.292969 C 82.523438 124.652344 83.316406 124.660156 83.984375 124.316406 C 84.652344 123.96875 85.109375 123.320312 85.199219 122.570312 C 85.398438 120.957031 86.375 119.539062 87.820312 118.792969 C 89.261719 118.046875 90.984375 118.0625 92.414062 118.839844 C 93.074219 119.203125 93.875 119.207031 94.539062 118.863281 C 95.210938 118.519531 95.664062 117.867188 95.753906 117.121094 C 95.953125 115.5 96.933594 114.089844 98.375 113.34375 C 100.789062 112.097656 103.753906 113.050781 104.957031 115.375 C 104.96875 115.402344 105.011719 115.492188 105.019531 115.519531 C 105.5 116.503906 106.609375 117.015625 107.667969 116.722656 C 108.894531 116.390625 110.199219 116.753906 111.078125 117.644531 C 111.117188 117.703125 111.160156 117.761719 111.210938 117.8125 C 111.277344 117.886719 111.40625 118.011719 111.507812 118.09375 C 111.519531 118.113281 111.539062 118.121094 111.554688 118.132812 C 111.59375 118.171875 111.636719 118.195312 111.679688 118.230469 C 111.738281 118.269531 111.796875 118.3125 111.859375 118.351562 C 111.90625 118.382812 111.953125 118.40625 112.003906 118.429688 C 112.070312 118.460938 112.136719 118.488281 112.207031 118.515625 C 112.253906 118.539062 112.304688 118.554688 112.355469 118.570312 C 112.421875 118.589844 112.5 118.605469 112.566406 118.621094 L 112.726562 118.65625 C 112.800781 118.664062 112.875 118.671875 112.945312 118.671875 C 113.003906 118.675781 113.050781 118.679688 113.105469 118.675781 C 113.183594 118.675781 113.257812 118.671875 113.339844 118.660156 C 113.386719 118.65625 113.441406 118.65625 113.488281 118.644531 C 113.574219 118.628906 113.660156 118.605469 113.738281 118.578125 C 113.78125 118.570312 113.820312 118.5625 113.863281 118.546875 C 113.984375 118.511719 114.101562 118.457031 114.21875 118.394531 C 115.382812 117.792969 116.710938 117.679688 117.960938 118.078125 C 119.214844 118.480469 120.230469 119.339844 120.832031 120.507812 C 121.578125 121.949219 121.5625 123.671875 120.785156 125.105469 C 120.429688 125.765625 120.417969 126.5625 120.761719 127.230469 C 121.109375 127.898438 121.765625 128.351562 122.511719 128.441406 C 124.128906 128.640625 125.539062 129.621094 126.285156 131.0625 C 127.03125 132.511719 127.011719 134.230469 126.238281 135.664062 C 125.875 136.324219 125.871094 137.125 126.214844 137.789062 C 126.5625 138.453125 127.210938 138.90625 127.957031 139.003906 C 129.578125 139.195312 130.988281 140.179688 131.734375 141.625 C 132.480469 143.066406 132.464844 144.785156 131.6875 146.21875 C 131.328125 146.886719 131.324219 147.679688 131.664062 148.34375 C 131.753906 148.515625 131.863281 148.664062 131.980469 148.800781 C 132.347656 149.21875 132.851562 149.496094 133.410156 149.558594 C 134.625 149.707031 135.722656 150.292969 136.511719 151.1875 C 136.773438 151.488281 137 151.820312 137.1875 152.183594 C 137.277344 152.355469 137.351562 152.53125 137.421875 152.710938 C 137.4375 152.753906 137.449219 152.796875 137.464844 152.839844 C 137.507812 152.972656 137.550781 153.105469 137.585938 153.242188 C 137.601562 153.3125 137.613281 153.378906 137.628906 153.445312 C 137.644531 153.546875 137.667969 153.648438 137.683594 153.746094 C 137.691406 153.84375 137.703125 153.941406 137.710938 154.039062 C 137.714844 154.074219 137.714844 154.117188 137.71875 154.160156 C 137.742188 154.703125 137.675781 155.191406 137.582031 155.585938 C 137.570312 155.628906 137.566406 155.671875 137.558594 155.71875 C 137.457031 156.082031 137.320312 156.4375 137.140625 156.78125 C 136.78125 157.441406 136.773438 158.234375 137.117188 158.90625 C 137.457031 159.570312 138.121094 160.023438 138.859375 160.113281 C 140.480469 160.316406 141.894531 161.296875 142.640625 162.738281 C 143.882812 165.144531 142.933594 168.113281 140.617188 169.3125 C 140.589844 169.328125 140.496094 169.371094 140.46875 169.378906 C 139.476562 169.859375 138.972656 170.972656 139.257812 172.03125 C 139.621094 173.363281 139.167969 174.789062 138.097656 175.664062 C 137.257812 176.355469 137.070312 177.625 137.585938 178.578125 C 138.1875 179.742188 138.300781 181.074219 137.902344 182.320312 C 137.5 183.574219 136.640625 184.59375 135.476562 185.191406 C 135.472656 185.195312 135.460938 185.203125 135.453125 185.203125 C 127.722656 184.804688 120.203125 184.089844 112.976562 183.09375 C 113.902344 182.402344 114.792969 181.65625 115.628906 180.851562 C 116.539062 179.984375 116.566406 178.546875 115.703125 177.640625 C 114.832031 176.734375 113.394531 176.703125 112.488281 177.570312 C 110.824219 179.164062 108.929688 180.515625 106.863281 181.582031 C 106.617188 181.707031 106.410156 181.878906 106.234375 182.070312 C 95.5625 180.285156 85.632812 177.875 76.773438 174.941406 C 75.878906 173.777344 75.078125 172.53125 74.398438 171.222656 C 71.449219 165.507812 70.898438 158.980469 72.855469 152.851562 C 74.8125 146.714844 79.039062 141.714844 84.757812 138.765625 C 86.824219 137.695312 89.023438 136.933594 91.285156 136.5 C 92.515625 136.261719 93.328125 135.074219 93.085938 133.835938 C 92.851562 132.609375 91.664062 131.792969 90.429688 132.03125 C 87.738281 132.550781 85.128906 133.453125 82.671875 134.722656 C 68.914062 141.824219 63.34375 158.601562 69.960938 172.480469 C 69.214844 172.1875 68.472656 171.894531 67.738281 171.589844 C 59.820312 168.335938 53.179688 164.640625 47.976562 160.679688 C 47.988281 160.671875 47.996094 160.667969 48.003906 160.664062 C 49.121094 160.085938 49.558594 158.71875 48.984375 157.601562 Z M 156.847656 185.496094 C 156.292969 185.511719 155.738281 185.523438 155.183594 185.53125 C 154.730469 185.539062 154.277344 185.542969 153.820312 185.554688 C 153.433594 185.558594 153.039062 185.566406 152.648438 185.570312 C 151.765625 185.574219 150.882812 185.582031 149.996094 185.582031 C 149.113281 185.582031 148.230469 185.574219 147.34375 185.570312 C 146.957031 185.566406 146.5625 185.558594 146.171875 185.554688 C 145.714844 185.542969 145.261719 185.539062 144.804688 185.53125 C 144.25 185.523438 143.703125 185.511719 143.152344 185.496094 C 142.917969 185.488281 142.691406 185.484375 142.457031 185.480469 C 142.132812 185.46875 141.800781 185.457031 141.476562 185.449219 C 141.78125 184.898438 142.035156 184.316406 142.234375 183.707031 C 142.84375 181.789062 142.828125 179.769531 142.222656 177.910156 C 143.40625 176.394531 144.007812 174.503906 143.921875 172.582031 C 147.570312 169.871094 148.832031 164.820312 146.679688 160.65625 C 146.414062 160.144531 146.109375 159.667969 145.761719 159.222656 C 147.125 158.894531 148.398438 158.269531 149.484375 157.390625 C 151.148438 158.730469 153.230469 159.484375 155.429688 159.484375 C 156.910156 159.484375 158.347656 159.125 159.664062 158.441406 C 160.179688 158.78125 160.726562 159.082031 161.304688 159.320312 C 160.804688 161.589844 161.089844 163.992188 162.183594 166.105469 C 163.273438 168.21875 165.0625 169.847656 167.203125 170.753906 C 166.703125 173.023438 166.992188 175.425781 168.082031 177.539062 C 169.179688 179.664062 170.972656 181.292969 173.125 182.195312 C 172.957031 182.996094 172.886719 183.816406 172.917969 184.644531 C 167.886719 185.058594 162.753906 185.339844 157.53125 185.480469 Z M 269.820312 139.503906 C 269.820312 133.820312 267.691406 128.28125 263.503906 123.027344 C 265.730469 119.617188 267.027344 115.566406 267.027344 111.273438 C 267.027344 99.367188 257.339844 89.679688 245.429688 89.679688 C 237.640625 89.679688 230.539062 93.9375 226.742188 100.488281 C 218.589844 97.640625 209.59375 95.265625 199.945312 93.421875 C 200.207031 92.550781 200.351562 91.640625 200.351562 90.710938 C 200.351562 88.183594 199.363281 85.808594 197.574219 84.027344 C 196.152344 82.605469 194.359375 81.695312 192.421875 81.382812 C 191.609375 79.636719 190.203125 78.230469 188.457031 77.429688 C 188.144531 75.488281 187.226562 73.695312 185.8125 72.277344 C 184.023438 70.496094 181.652344 69.515625 179.121094 69.515625 C 176.929688 69.519531 174.839844 70.273438 173.179688 71.621094 C 171.523438 70.277344 169.433594 69.523438 167.242188 69.523438 C 165.046875 69.527344 162.960938 70.285156 161.296875 71.628906 C 159.640625 70.289062 157.550781 69.535156 155.355469 69.535156 C 153.167969 69.535156 151.078125 70.296875 149.417969 71.640625 C 147.753906 70.296875 145.671875 69.542969 143.472656 69.542969 C 141.285156 69.546875 139.191406 70.304688 137.535156 71.652344 C 135.875 70.3125 133.785156 69.554688 131.59375 69.554688 C 129.066406 69.554688 126.691406 70.542969 124.910156 72.328125 C 123.488281 73.75 122.578125 75.542969 122.265625 77.484375 C 120.527344 78.289062 119.125 79.695312 118.320312 81.441406 C 113.832031 82.175781 110.398438 86.085938 110.398438 90.78125 C 110.398438 91.082031 110.414062 91.375 110.445312 91.667969 C 97.214844 93.589844 85.03125 96.441406 74.164062 100.160156 C 69.617188 94.976562 62.949219 91.691406 55.527344 91.691406 C 41.855469 91.691406 30.730469 102.816406 30.730469 116.488281 C 30.730469 120.46875 31.683594 124.261719 33.386719 127.632812 C 31.257812 131.488281 30.171875 135.476562 30.171875 139.503906 C 30.171875 144.820312 32.019531 149.914062 35.457031 154.691406 L 77.0625 223.070312 C 81.164062 238.972656 112.367188 250.925781 149.996094 250.925781 C 187.625 250.925781 218.828125 238.972656 222.929688 223.070312 L 264.546875 154.675781 C 267.976562 149.90625 269.820312 144.8125 269.820312 139.503906 " fill-opacity="1" fill-rule="nonzero"/></g><path fill="#a9a0f0" d="M 120.402344 169.964844 C 120.617188 170.035156 120.84375 170.0625 121.0625 170.0625 C 122.035156 170.0625 122.9375 169.429688 123.234375 168.449219 C 124.046875 165.75 124.457031 162.957031 124.457031 160.152344 C 124.457031 158.058594 124.230469 155.960938 123.773438 153.921875 C 123.496094 152.695312 122.28125 151.929688 121.054688 152.199219 C 119.832031 152.472656 119.0625 153.6875 119.335938 154.917969 C 119.71875 156.632812 119.917969 158.394531 119.917969 160.152344 C 119.917969 162.511719 119.570312 164.863281 118.882812 167.132812 C 118.519531 168.335938 119.195312 169.605469 120.402344 169.964844 " fill-opacity="1" fill-rule="nonzero"/><path fill="#a9a0f0" d="M 103.496094 137.332031 C 107.429688 138.652344 110.964844 140.972656 113.722656 144.035156 C 114.167969 144.535156 114.789062 144.792969 115.410156 144.792969 C 115.953125 144.792969 116.496094 144.601562 116.929688 144.207031 C 117.859375 143.371094 117.941406 141.933594 117.097656 141 C 113.820312 137.351562 109.609375 134.59375 104.941406 133.023438 C 103.753906 132.628906 102.464844 133.269531 102.066406 134.457031 C 101.664062 135.644531 102.308594 136.933594 103.496094 137.332031 " fill-opacity="1" fill-rule="nonzero"/><path fill="#a9a0f0" d="M 217.273438 129.722656 C 221.054688 130.621094 224.640625 132.375 227.664062 134.796875 C 228.082031 135.132812 228.582031 135.296875 229.085938 135.296875 C 229.75 135.296875 230.40625 135.007812 230.859375 134.449219 C 231.640625 133.46875 231.484375 132.042969 230.507812 131.253906 C 226.96875 128.410156 222.757812 126.355469 218.328125 125.300781 C 217.105469 125.007812 215.882812 125.765625 215.589844 126.984375 C 215.296875 128.203125 216.050781 129.429688 217.273438 129.722656 " fill-opacity="1" fill-rule="nonzero"/><path fill="#a9a0f0" d="M 237.476562 155.101562 C 237.480469 156.355469 238.5 157.359375 239.75 157.359375 L 239.761719 157.359375 C 241.019531 157.355469 242.03125 156.332031 242.019531 155.074219 C 241.992188 150.472656 240.960938 146.03125 238.945312 141.867188 C 238.394531 140.738281 237.035156 140.269531 235.90625 140.8125 C 234.777344 141.363281 234.304688 142.71875 234.851562 143.851562 C 236.570312 147.394531 237.457031 151.183594 237.476562 155.101562 " fill-opacity="1" fill-rule="nonzero"/><path fill="#a9a0f0" d="M 132.25 101.671875 C 132.640625 101.933594 133.082031 102.058594 133.515625 102.058594 C 134.246094 102.058594 134.964844 101.707031 135.402344 101.058594 C 139.890625 94.398438 147.359375 90.421875 155.375 90.417969 C 156.628906 90.414062 157.648438 89.398438 157.648438 88.140625 C 157.648438 86.886719 156.628906 85.871094 155.375 85.871094 C 145.847656 85.878906 136.96875 90.605469 131.636719 98.515625 C 130.933594 99.554688 131.207031 100.96875 132.25 101.671875 " fill-opacity="1" fill-rule="nonzero"/><path fill="#a9a0f0" d="M 91.765625 66.832031 C 96.019531 66.832031 99.476562 70.292969 99.476562 74.546875 C 99.476562 78.800781 96.019531 82.261719 91.765625 82.261719 C 87.511719 82.261719 84.046875 78.800781 84.046875 74.546875 C 84.046875 70.292969 87.511719 66.832031 91.765625 66.832031 Z M 91.765625 86.804688 C 98.523438 86.804688 104.023438 81.308594 104.023438 74.546875 C 104.023438 67.789062 98.523438 62.289062 91.765625 62.289062 C 85.007812 62.289062 79.507812 67.789062 79.507812 74.546875 C 79.507812 81.308594 85.007812 86.804688 91.765625 86.804688 " fill-opacity="1" fill-rule="nonzero"/><g clip-path="url(#7d40c701fa)"><path fill="#a9a0f0" d="M 220.886719 53.59375 C 227.972656 53.59375 233.734375 59.359375 233.734375 66.441406 C 233.734375 73.527344 227.972656 79.292969 220.886719 79.292969 C 213.800781 79.292969 208.039062 73.527344 208.039062 66.441406 C 208.039062 59.359375 213.800781 53.59375 220.886719 53.59375 Z M 220.886719 83.835938 C 230.472656 83.835938 238.28125 76.035156 238.28125 66.441406 C 238.28125 56.851562 230.472656 49.046875 220.886719 49.046875 C 211.292969 49.046875 203.488281 56.851562 203.488281 66.441406 C 203.488281 76.035156 211.292969 83.835938 220.886719 83.835938 " fill-opacity="1" fill-rule="nonzero"/></g><path fill="#a9a0f0" d="M 136.4375 202.957031 L 134.171875 202.792969 L 133.847656 207.324219 L 136.109375 207.488281 C 136.226562 207.5 139.0625 207.699219 143.765625 207.847656 L 146.039062 207.914062 L 146.175781 203.371094 L 143.90625 203.304688 C 139.3125 203.160156 136.46875 202.957031 136.4375 202.957031 " fill-opacity="1" fill-rule="nonzero"/><path fill="#a9a0f0" d="M 194.335938 199.96875 C 190.5 200.742188 186.308594 201.398438 181.882812 201.914062 L 179.625 202.179688 L 180.152344 206.691406 L 182.410156 206.429688 C 186.960938 205.898438 191.273438 205.222656 195.234375 204.425781 L 197.460938 203.980469 L 196.566406 199.523438 L 194.335938 199.96875 " fill-opacity="1" fill-rule="nonzero"/><path fill="#a9a0f0" d="M 169.273438 203 C 165.183594 203.234375 160.917969 203.378906 156.59375 203.429688 L 154.324219 203.453125 L 154.371094 207.996094 L 156.644531 207.972656 C 161.039062 207.921875 165.375 207.777344 169.539062 207.53125 L 171.808594 207.40625 L 171.542969 202.867188 L 169.273438 203 " fill-opacity="1" fill-rule="nonzero"/><path fill="#a9a0f0" d="M 213.183594 194.046875 C 211.148438 195.035156 208.875 195.949219 206.441406 196.78125 L 204.289062 197.515625 L 205.753906 201.816406 L 207.90625 201.082031 C 210.519531 200.195312 212.957031 199.203125 215.15625 198.136719 L 217.203125 197.148438 L 215.222656 193.058594 L 213.183594 194.046875 " fill-opacity="1" fill-rule="nonzero"/><path fill="#a9a0f0" d="M 262.4375 72.175781 L 259.632812 68.597656 L 250.355469 75.871094 L 253.15625 79.449219 L 262.4375 72.175781 " fill-opacity="1" fill-rule="nonzero"/><path fill="#a9a0f0" d="M 157.949219 50.589844 L 153.402344 50.589844 L 153.402344 60.839844 L 157.949219 60.839844 L 157.949219 50.589844 " fill-opacity="1" fill-rule="nonzero"/><path fill="#a9a0f0" d="M 70.421875 81.90625 L 63.289062 73.066406 L 59.753906 75.917969 L 66.886719 84.761719 L 70.421875 81.90625 " fill-opacity="1" fill-rule="nonzero"/></svg>