<svg xmlns="http://www.w3.org/2000/svg" xmlns:xlink="http://www.w3.org/1999/xlink" width="400" zoomAndPan="magnify" viewBox="0 0 300 299.999988" height="400" preserveAspectRatio="xMidYMid meet" version="1.0"><defs><clipPath id="7cc2062089"><path d="M 30 64 L 269 64 L 269 236.851562 L 30 236.851562 Z M 30 64 " clip-rule="nonzero"/></clipPath></defs><g clip-path="url(#7cc2062089)"><path fill="currentColor" d="M 57.050781 130.5625 C 57.050781 130.546875 57.066406 130.546875 57.066406 130.53125 C 56.929688 130.484375 56.898438 130.421875 56.773438 130.378906 C 56.378906 130.191406 56.113281 129.996094 55.804688 129.671875 C 54.882812 128.6875 54.195312 127.597656 54.195312 126.425781 C 54.195312 125.753906 54.441406 125.023438 55.007812 124.304688 C 51.933594 124.195312 51.289062 124.058594 49.640625 123.832031 C 48.75 125.289062 47.765625 127.410156 47.441406 129.074219 C 47.042969 131.011719 47.8125 131.089844 48.5625 132.578125 C 48.796875 133.042969 48.578125 134.21875 48.703125 134.375 C 49.042969 134.777344 49.398438 135.132812 49.734375 135.480469 C 51.699219 134.652344 54.226562 133.761719 56.898438 133.042969 C 56.789062 132.21875 56.867188 131.390625 57.050781 130.5625 Z M 71.101562 132.683594 C 71.472656 131.296875 72.425781 130.113281 73.410156 128.984375 C 69.476562 127.566406 65.601562 125.875 61.527344 125 C 60.46875 124.785156 59.191406 124.644531 57.773438 124.535156 C 57.726562 125.289062 57.53125 126.242188 57.773438 126.921875 C 57.972656 127.488281 59.3125 127.613281 59.707031 128.125 C 60.328125 128.875 60.53125 129.5 60.621094 130.453125 C 60.683594 131.113281 60.484375 131.65625 60.421875 132.25 C 64.230469 131.578125 68.089844 131.5 71.101562 132.683594 Z M 65.648438 165.308594 C 68.863281 163.605469 76.347656 159.847656 76.40625 155.582031 C 74.65625 156.648438 72.796875 157.546875 71.738281 158.238281 C 64.859375 162.699219 58.941406 165.339844 50.667969 167.121094 C 48.058594 167.679688 42.34375 167.679688 40.632812 169.878906 C 40.238281 170.382812 39.894531 170.753906 39.554688 171.042969 C 42.910156 171.960938 46.488281 172.488281 49.808594 173.273438 C 49.980469 172.832031 50.335938 172.457031 50.949219 172.304688 C 56.207031 170.996094 60.941406 167.8125 65.648438 165.308594 Z M 68.351562 156.222656 C 69.257812 155.628906 77.113281 150.886719 76.871094 150.042969 C 76.160156 147.449219 74.132812 145.203125 73.628906 142.570312 C 72.273438 135.511719 64.214844 134.777344 58.175781 136.285156 C 52.527344 137.695312 49.230469 140.476562 44.628906 143.769531 C 43.125 144.832031 35.21875 151.226562 37.710938 152.746094 C 37.835938 152.839844 37.960938 152.933594 38.050781 153.023438 C 41.460938 151.964844 45.402344 153.367188 48.996094 151.46875 C 50.089844 150.886719 54.332031 150.089844 52.472656 149.152344 C 51.304688 148.5625 50.625 148.011719 49.886719 146.96875 C 48.5625 145.109375 51.636719 143.359375 52.945312 145.1875 C 53.496094 145.96875 54.226562 146.363281 54.914062 146.765625 C 55.269531 146.015625 55.726562 145.308594 56.175781 144.535156 C 57.113281 142.941406 58.5 141.679688 60.390625 141.492188 C 61.34375 141.398438 62.15625 142.375 62.15625 143.265625 C 62.15625 144.296875 61.34375 144.9375 60.390625 145.03125 C 60.25 145.046875 59.691406 145.566406 59.609375 145.707031 C 59.34375 146.125 59.113281 146.566406 58.832031 146.96875 C 58.4375 147.5625 57.972656 148.183594 57.851562 148.90625 C 58.269531 148.90625 58.703125 148.90625 59.113281 148.933594 C 60.515625 149.011719 61.800781 149.4375 63.171875 149.765625 C 65.386719 150.273438 64.449219 153.683594 62.21875 153.179688 C 61.003906 152.902344 59.878906 152.492188 58.617188 152.492188 C 57.742188 152.492188 56.867188 152.492188 55.976562 152.492188 C 55.347656 153.007812 54.542969 153.382812 53.792969 153.503906 C 51.699219 153.824219 50.042969 155.269531 48.042969 155.992188 C 46.550781 156.535156 44.25 156.175781 42.660156 156.117188 C 39.398438 156.023438 35.605469 157.632812 35.101562 161.28125 C 34.839844 163.125 33.101562 167.949219 36.085938 168.585938 C 38.632812 167.886719 39.816406 165.15625 42.785156 164.558594 C 46.402344 163.816406 49.902344 163.558594 53.511719 162.574219 C 59.191406 161.019531 63.355469 159.453125 68.351562 156.222656 Z M 83.945312 170.808594 C 83.125 168.902344 82.898438 166.8125 83.046875 164.683594 C 83.046875 164.683594 83.03125 164.691406 83.023438 164.691406 C 79.667969 165.984375 72.597656 165.796875 71.976562 165.789062 C 71.832031 165.875 71.675781 165.96875 71.535156 166.0625 C 68.617188 167.773438 65.570312 169.648438 62.433594 171.351562 C 65.109375 171.992188 67.726562 172.472656 70.550781 172.488281 C 74.640625 172.503906 80.011719 172.753906 83.945312 170.808594 Z M 83.542969 161.5 C 83.757812 160.546875 84.007812 159.601562 84.308594 158.703125 C 83.527344 155.652344 83.125 152.574219 83.214844 149.839844 C 82.882812 149.71875 82.542969 149.546875 82.292969 149.398438 C 81.898438 149.136719 81.417969 149.058594 80.992188 148.875 C 80.777344 148.796875 80.574219 148.6875 80.359375 148.578125 C 80.496094 149.277344 80.605469 149.964844 80.605469 150.6875 C 80.605469 151.539062 80.203125 152.320312 79.574219 153.054688 C 81.125 156.742188 79.515625 159.769531 76.886719 162.234375 C 78.640625 162.15625 80.40625 161.910156 82.015625 161.28125 C 82.652344 161.050781 83.15625 161.171875 83.542969 161.5 Z M 86.863281 181.589844 C 88.171875 180.855469 89.660156 180.109375 90.847656 179.160156 C 89.351562 177.484375 87.941406 175.734375 86.292969 174.179688 C 86.175781 174.054688 86.050781 173.921875 85.925781 173.78125 C 82.007812 175.875 76.65625 176.050781 72.425781 176.035156 C 69.460938 176.019531 65.9375 176.144531 63.0625 175.253906 C 62.28125 175.007812 58.925781 173.582031 58.5625 173.675781 C 58.253906 173.738281 57.972656 173.722656 57.726562 173.660156 C 56.804688 174.054688 55.898438 174.425781 54.976562 174.765625 C 58.160156 175.796875 61.265625 176.988281 64.449219 178.191406 C 69.707031 180.1875 75.050781 181.496094 80.359375 183.0625 C 80.453125 183.046875 80.527344 183.007812 80.636719 183.007812 C 81.359375 183.007812 82.046875 182.960938 82.714844 182.882812 C 83.324219 182.761719 83.945312 182.558594 84.570312 182.511719 C 85.339844 182.296875 86.089844 182.023438 86.863281 181.589844 Z M 90.550781 139.757812 C 91.550781 138.386719 92.488281 136.929688 93.640625 135.699219 C 89.660156 134.265625 86.136719 131.640625 81.914062 131.167969 C 80.25 130.980469 78.640625 130.609375 77.050781 130.160156 C 76.5625 130.71875 75.957031 131.222656 75.5625 131.824219 C 75.378906 132.113281 74.347656 133.296875 74.394531 133.558594 C 74.457031 133.996094 74.394531 134.40625 74.253906 134.761719 C 75.082031 135.667969 75.765625 136.789062 76.191406 138.175781 C 76.78125 140.097656 77.761719 141.957031 78.667969 143.863281 C 78.933594 143.878906 79.203125 143.925781 79.46875 144.046875 C 80.421875 144.457031 81.25 145.347656 82.265625 145.582031 C 82.929688 145.722656 83.558594 146.140625 84.183594 146.433594 C 85.433594 144.441406 87.585938 143.140625 89.1875 141.429688 C 89.171875 140.632812 89.628906 139.878906 90.550781 139.757812 Z M 92.140625 192.519531 C 92.503906 191.628906 92.125 190.414062 91.859375 189.539062 C 91.597656 188.648438 91.28125 187.757812 91.171875 186.820312 C 91.03125 185.726562 91.566406 185.601562 90.109375 185.539062 C 89.675781 185.523438 89.226562 185.523438 88.800781 185.523438 C 88.15625 186.972656 88.082031 188.707031 88.523438 190.226562 C 88.847656 191.320312 89.140625 192.394531 89.414062 193.472656 C 90.382812 193.671875 91.78125 193.363281 92.140625 192.519531 Z M 98.871094 186.492188 C 98.777344 186.492188 98.699219 186.492188 98.605469 186.476562 C 96.40625 186.113281 95.59375 184.914062 94.625 183.511719 C 94.515625 183.605469 94.394531 183.710938 94.269531 183.820312 C 94.71875 184.574219 94.484375 185.152344 94.59375 186.050781 C 94.6875 186.757812 94.933594 187.429688 95.136719 188.105469 C 95.484375 189.335938 95.71875 190.613281 95.703125 191.800781 C 95.886719 190.722656 96.335938 189.753906 97.484375 189.082031 C 98.730469 188.335938 98.855469 187.460938 98.871094 186.492188 Z M 99.730469 183.117188 C 103.285156 177.207031 111.140625 176.175781 116.523438 172.226562 C 113.042969 172.9375 109.769531 174.085938 106.3125 175.269531 C 100.683594 177.175781 92.09375 173.84375 88.785156 169.074219 C 87.925781 167.867188 87.160156 166.449219 86.460938 164.921875 C 86.351562 166.0625 86.414062 167.167969 86.726562 168.230469 C 87.585938 171.132812 89.941406 172.425781 91.644531 174.660156 C 93.03125 176.46875 97.226562 182.683594 99.542969 183.0625 C 99.621094 183.078125 99.667969 183.101562 99.730469 183.117188 Z M 121.71875 152.335938 C 121.207031 151.917969 120.75 151.492188 120.226562 151.074219 C 119.023438 150.152344 118.503906 151.46875 117.398438 151.964844 C 116.429688 152.398438 114.554688 152.398438 112.984375 152.101562 C 112.152344 152.460938 111.277344 152.746094 110.355469 152.714844 C 110.324219 152.714844 110.28125 152.714844 110.25 152.699219 C 110.203125 152.824219 110.15625 152.933594 110.109375 153.054688 C 109.84375 153.683594 109.496094 154.164062 109.09375 154.613281 C 111.324219 154.851562 113.058594 156.300781 115.257812 156.191406 C 117.769531 156.070312 119.753906 154.273438 121.71875 152.335938 Z M 124.34375 82.261719 C 126.359375 80.675781 128.621094 79.535156 130.820312 78.289062 C 115.011719 72.046875 97.320312 68.886719 80.375 68.15625 C 73.859375 67.886719 68.871094 69.3125 63.859375 73.523438 C 60.390625 76.445312 55.789062 77.492188 52.746094 80.96875 C 49.058594 85.167969 46.640625 90.191406 43.660156 94.878906 C 42.691406 96.40625 41.660156 97.96875 40.769531 99.589844 C 44.503906 99.875 48.183594 100.078125 51.933594 100.246094 C 54.457031 100.355469 56.671875 101.308594 59.066406 101.75 C 59.296875 101.625 59.5625 101.539062 59.878906 101.523438 C 64.015625 101.355469 66.214844 102.839844 70.085938 103.382812 C 73.148438 103.792969 75.65625 103.710938 78.375 105.367188 C 83.710938 108.613281 89.09375 108.054688 94.859375 108.148438 C 95.949219 101.015625 105.726562 94.988281 111.511719 91.742188 C 116.257812 89.070312 120.148438 85.546875 124.34375 82.261719 Z M 132.261719 169.664062 C 137.351562 166.859375 129.699219 155.789062 128.0625 151.492188 C 127.636719 151.855469 126.972656 152.398438 125.957031 153.226562 C 124.082031 154.746094 122.53125 154.992188 121.332031 157.664062 C 121.191406 157.972656 121.023438 158.222656 120.820312 158.4375 C 122.773438 163.109375 124.65625 168.570312 129.386719 170.917969 C 132.679688 172.566406 130.183594 170.808594 132.261719 169.664062 Z M 136.242188 196.949219 C 136.257812 196.933594 136.273438 196.917969 136.289062 196.886719 C 136.257812 196.902344 136.226562 196.933594 136.179688 196.949219 C 136.210938 196.949219 136.226562 196.949219 136.242188 196.949219 Z M 143.933594 150.671875 C 143.855469 150.65625 143.777344 150.625 143.703125 150.609375 C 140.078125 149.609375 136.101562 149.121094 132.632812 147.75 C 126.5 145.339844 120.054688 143.910156 113.890625 141.707031 C 113.65625 142.507812 113.703125 143.785156 113.554688 144.503906 C 113.339844 145.519531 113.433594 146.488281 113.433594 147.519531 C 113.433594 147.8125 113.433594 148.089844 113.433594 148.386719 C 113.679688 148.433594 113.902344 148.457031 114.199219 148.484375 C 115.273438 148.59375 115.746094 148.917969 116.601562 148.230469 C 119.769531 145.660156 121.6875 148.261719 124.269531 149.871094 C 125.714844 148.609375 127.25 147.59375 129.0625 147.378906 C 129.699219 147.308594 130.246094 147.78125 130.589844 148.261719 C 131.402344 149.4375 131.996094 150.71875 132.664062 151.996094 C 133.894531 152.042969 135.476562 152.429688 136.628906 151.855469 C 137.441406 151.445312 138.179688 150.382812 139.195312 150.429688 C 141 150.523438 142.625 151.871094 143.933594 150.671875 Z M 152.492188 187.136719 C 150.710938 185.199219 149.402344 182.882812 148.914062 179.683594 C 147.820312 180.050781 146.730469 179.996094 145.589844 179.484375 C 144.265625 178.871094 142.980469 179.375 141.65625 179.058594 C 140.640625 178.792969 139.613281 178.484375 138.582031 178.28125 C 136.535156 177.871094 133.800781 177.285156 132.679688 175.441406 C 131.726562 175.71875 130.511719 175.425781 129.1875 174.765625 C 126.792969 173.566406 124.941406 172.023438 123.453125 170.257812 C 123.175781 170.644531 122.859375 170.980469 122.441406 171.226562 C 122.425781 171.257812 122.410156 171.289062 122.394531 171.320312 C 119.179688 175.503906 114.71875 177.671875 109.96875 179.902344 C 106.050781 181.730469 102.976562 183.046875 102.464844 187.710938 C 102.363281 188.617188 102.441406 189.628906 101.789062 190.351562 C 100.289062 192.03125 99.070312 192.707031 99.023438 195.277344 C 98.996094 196.59375 98.636719 197.714844 98.027344 198.855469 C 97.390625 200.039062 97.136719 200.40625 96.230469 201.386719 C 98.375 203.835938 100.777344 203.632812 103.449219 200.792969 C 104.347656 198.871094 104.460938 198.855469 106.128906 197.59375 C 107.957031 196.230469 109.707031 199.289062 107.910156 200.652344 C 107.660156 200.839844 107.46875 201.023438 107.265625 201.226562 C 107.707031 204.695312 110.9375 206.554688 112.679688 203.101562 C 113.601562 201.242188 113.703125 199.335938 115.214844 197.824219 C 116.042969 196.996094 117.257812 196.996094 117.917969 195.917969 C 118.472656 195.058594 118.992188 194.222656 119.683594 193.457031 C 121.285156 191.644531 123.878906 189.988281 124.785156 187.632812 C 124.855469 187.492188 124.910156 187.367188 124.972656 187.261719 C 124.269531 186.617188 123.703125 185.914062 123.378906 185.183594 C 121.898438 185.679688 120.582031 186.460938 119.410156 187.523438 C 117.976562 188.816406 118.101562 190.1875 117.164062 191.660156 C 115.664062 194.0625 113.554688 194.472656 110.859375 194.488281 C 108.589844 194.488281 108.589844 190.953125 110.859375 190.953125 C 111.589844 190.9375 112.496094 191.046875 113.167969 190.769531 C 114.355469 190.304688 114.261719 189.121094 114.609375 188.21875 C 115.042969 187.167969 115.476562 186.308594 116.320312 185.539062 C 118.273438 183.773438 120.394531 182.328125 122.941406 181.621094 C 123.082031 179.972656 123.484375 178.40625 123.253906 176.796875 C 122.929688 174.566406 126.34375 173.597656 126.667969 175.84375 C 127.03125 178.40625 124.972656 182.433594 127.234375 184.292969 C 130.09375 186.632812 133.367188 188.738281 137.070312 189.382812 C 140.015625 189.894531 143.253906 189.769531 146.21875 189.660156 C 148.882812 189.554688 150.480469 188.304688 152.492188 187.136719 Z M 151.507812 152.949219 C 150.191406 152.542969 148.867188 152.148438 147.542969 151.730469 C 147.527344 151.777344 147.511719 151.808594 147.496094 151.839844 C 145.824219 154.519531 143.792969 155.195312 140.703125 154.558594 C 139.671875 154.347656 140.03125 154.101562 139.179688 154.527344 C 138.550781 154.835938 137.890625 155.285156 137.210938 155.472656 C 136.445312 155.683594 135.597656 155.695312 134.769531 155.652344 C 135.847656 157.726562 135.925781 159.742188 136.304688 161.988281 C 137.722656 161.4375 139.207031 160.863281 140.71875 160.847656 C 141.964844 160.832031 141.890625 159.390625 142.703125 158.609375 C 144.5 156.851562 146.992188 156.144531 148.558594 154.558594 C 149.324219 153.808594 150.371094 153.304688 151.507812 152.949219 Z M 158.519531 157.578125 C 156.0625 153.992188 152.292969 156.558594 149.945312 158.378906 C 148.101562 159.785156 145.515625 159.46875 144.667969 162.3125 C 143.917969 164.804688 139.671875 164.875 137.226562 165.496094 C 137.691406 166.996094 138.148438 168.964844 137.472656 169.964844 C 137.164062 170.429688 135.570312 171.707031 134.894531 172.367188 C 135.335938 172.644531 135.675781 173.085938 135.691406 173.753906 C 135.722656 174.425781 141.042969 175.253906 141.578125 175.378906 C 142.78125 175.6875 144.042969 175.550781 145.265625 175.75 C 145.777344 175.828125 147.542969 176.515625 147.898438 176.332031 C 148.070312 176.238281 148.234375 176.191406 148.402344 176.144531 C 148.253906 174.9375 148.148438 173.828125 148.195312 172.800781 C 148.179688 172.675781 148.132812 172.566406 148.117188 172.425781 C 147.976562 171.769531 148.195312 171.226562 148.558594 170.832031 C 148.851562 169.996094 149.339844 169.230469 150.144531 168.539062 C 149.207031 166.121094 152.320312 162.527344 153.570312 160.667969 C 154.660156 159.050781 156.535156 158.128906 158.519531 157.578125 Z M 159.199219 193.015625 C 159.214844 192.90625 159.230469 192.8125 159.261719 192.722656 C 157.84375 191.675781 156.488281 190.691406 155.234375 189.675781 C 153.429688 190.613281 152.277344 192.332031 150.285156 192.890625 C 148.480469 193.378906 146.289062 193.191406 144.4375 193.191406 C 140.238281 193.191406 136.195312 193.332031 132.277344 191.597656 C 131.152344 191.09375 129.464844 190.320312 127.839844 189.335938 C 126.636719 191.816406 124.578125 193.71875 122.703125 195.75 C 125.609375 196.609375 128.433594 197.5 131.214844 198.5625 C 131.355469 198.390625 131.523438 198.242188 131.757812 198.105469 C 132.230469 197.824219 132.773438 197.59375 133.308594 197.484375 C 133.710938 197.390625 134.242188 197.390625 134.601562 197.199219 C 135.121094 196.886719 135.613281 196.671875 136.210938 196.609375 C 136.335938 196.59375 136.460938 196.59375 136.566406 196.578125 C 137.984375 195.363281 140.488281 196.996094 139.300781 198.730469 C 138.921875 199.289062 138.425781 199.824219 137.738281 199.976562 C 139.09375 200.375 140.425781 200.839844 141.84375 201.054688 C 145.980469 201.683594 145.421875 199.4375 147.914062 197.980469 C 151.277344 195.996094 158.046875 199.917969 158.875 193.78125 C 158.921875 193.457031 159.046875 193.207031 159.199219 193.015625 Z M 163.289062 200.304688 C 164.503906 200.699219 166.242188 200.449219 167.054688 199.382812 C 165.304688 198.367188 163.59375 197.28125 161.949219 196.167969 C 161.578125 197.367188 160.949219 198.46875 159.996094 199.257812 C 160.886719 199.855469 162.5625 200.070312 163.289062 200.304688 Z M 167.238281 156.441406 C 167.238281 156.269531 167.238281 156.144531 167.238281 156.039062 C 165.242188 155.789062 163.242188 155.527344 161.230469 155.226562 C 161.4375 155.542969 161.65625 155.882812 161.839844 156.207031 C 161.980469 156.441406 162.058594 156.664062 162.089844 156.882812 C 162.242188 156.867188 162.398438 156.851562 162.554688 156.820312 C 164.132812 156.632812 165.714844 156.441406 167.238281 156.441406 Z M 182.476562 166.496094 C 182.476562 166.496094 182.492188 166.480469 182.492188 166.464844 C 180.230469 164.84375 178.726562 161.878906 175.738281 161.375 C 175.652344 161.359375 175.542969 161.328125 175.449219 161.3125 C 175.984375 162.605469 176.292969 164.0625 176.449219 165.558594 C 178.355469 165.183594 180.460938 165.632812 182.476562 166.496094 Z M 184.582031 187.679688 C 186.054688 187.351562 189.003906 186.585938 191.097656 185.632812 C 189.238281 185.214844 187.378906 184.632812 185.691406 184.496094 C 181.585938 184.152344 177.875 183.007812 173.972656 181.714844 C 169.988281 180.390625 167.789062 177.515625 164.304688 175.535156 C 160.917969 173.613281 157.324219 172.023438 153.785156 170.382812 C 152.785156 170.832031 152.191406 171.675781 151.894531 172.769531 C 153.632812 177.484375 158.78125 177.546875 162.671875 180.484375 C 165.472656 182.589844 168.253906 184.277344 171.847656 184.277344 C 172.003906 184.277344 172.113281 184.339844 172.234375 184.355469 C 172.769531 184.214844 173.359375 184.308594 173.863281 184.804688 C 176.234375 187.066406 181.445312 188.367188 184.582031 187.679688 Z M 193.574219 188.226562 C 191.886719 189.003906 190.082031 189.171875 188.347656 190.335938 C 186.828125 191.335938 184.101562 191.425781 182.351562 191.28125 C 178.789062 190.984375 174.816406 190.15625 171.957031 187.800781 C 171.925781 187.800781 171.894531 187.816406 171.847656 187.816406 C 169.882812 187.816406 167.898438 187.507812 165.992188 186.988281 C 163.242188 186.230469 161.152344 183.339844 158.640625 182.023438 C 156.140625 180.683594 153.972656 179.949219 152.238281 178.871094 C 152.785156 181.007812 153.617188 182.929688 154.1875 183.757812 C 155.707031 185.957031 161.78125 190.535156 163.777344 191.707031 C 170.648438 195.734375 187.953125 196.011719 193.574219 188.226562 Z M 191.066406 232.199219 C 194.464844 232.585938 196.585938 234.894531 195.898438 230.496094 C 194.960938 224.484375 194.976562 220.851562 195.851562 215.351562 C 189.175781 214.703125 182.429688 211.636719 175.707031 210.800781 C 168.238281 209.894531 160.703125 207.675781 153.144531 207.800781 C 147.761719 207.894531 143.328125 207.691406 138.410156 205.507812 C 132.402344 202.835938 126.589844 200.605469 120.332031 198.746094 C 119.363281 200.273438 117.289062 200.242188 116.933594 202.402344 C 116.730469 203.527344 115.980469 204.851562 115.640625 206.003906 C 114.664062 209.40625 110.417969 208.925781 107.675781 208.1875 C 106.175781 207.785156 105.207031 206.34375 104.585938 204.742188 C 103.945312 205.554688 103.160156 206.3125 101.851562 206.847656 C 100.304688 207.492188 96.515625 206.269531 95.261719 205.601562 C 90.078125 202.945312 93.230469 200.824219 94.964844 197.074219 C 95.546875 195.8125 95.484375 194.316406 95.5625 192.921875 C 95.300781 194.277344 94.5625 195.453125 93.0625 196.285156 C 91.535156 197.136719 89.476562 197.3125 87.847656 196.734375 C 86.105469 196.105469 86.507812 195.027344 86.019531 193.628906 C 85.386719 191.832031 84.867188 190.003906 84.789062 188.191406 C 76.902344 185.417969 68.886719 184.230469 61.15625 180.761719 C 53.496094 177.316406 44.90625 176.71875 37.113281 173.992188 C 36.710938 177.671875 36.246094 181.0625 37.496094 184.820312 C 39.113281 189.675781 43.171875 191.644531 47.507812 193.613281 C 55.632812 197.3125 64.757812 199.070312 73.410156 201.007812 C 78.546875 202.148438 82.945312 204.601562 87.925781 206.066406 C 92.230469 207.34375 96.625 207.894531 101.007812 208.863281 C 108.925781 210.628906 117.367188 210.691406 125.175781 212.78125 C 142.222656 217.351562 157.734375 226.097656 175.140625 229.835938 C 180.367188 230.960938 185.765625 231.617188 191.066406 232.199219 Z M 197.835938 163.078125 C 197.261719 162.046875 196.679688 161.125 196.128906 160.40625 C 193.449219 160.925781 190.808594 160.722656 188.035156 159.832031 C 182.832031 158.144531 177.496094 157.332031 172.097656 156.632812 C 174.03125 158.019531 177.558594 157.820312 179.402344 158.894531 C 180.554688 159.578125 181.585938 160.667969 182.660156 161.484375 C 183.351562 162.003906 184.132812 163.589844 184.867188 163.84375 C 185.054688 163.90625 185.210938 164 185.347656 164.109375 C 186.503906 163.738281 187.828125 163.777344 189.222656 164.324219 C 190.625 164.890625 192.730469 163.542969 194.1875 163.078125 C 195.261719 162.738281 196.617188 162.847656 197.835938 163.078125 Z M 196.496094 211.171875 C 196.757812 210.921875 197.023438 210.660156 197.261719 210.402344 C 187.90625 208.675781 178.523438 205.492188 170.082031 201.054688 C 168.625 203.253906 166.195312 204.175781 163.398438 203.960938 C 160.964844 203.789062 157.828125 202.621094 156.472656 200.441406 C 153.800781 200.621094 150.007812 200.417969 149.023438 201.652344 C 148.023438 202.882812 146.992188 203.648438 145.949219 204.097656 C 146.960938 204.253906 147.992188 204.363281 149.054688 204.332031 C 152.191406 204.285156 155.265625 204.285156 158.394531 204.679688 C 165.960938 205.679688 173.5 207.128906 181.074219 207.863281 C 185.96875 208.34375 190.761719 211.015625 195.636719 211.765625 C 195.851562 211.480469 196.136719 211.261719 196.496094 211.171875 Z M 198.035156 96.46875 C 201.597656 95.628906 204.75 94.003906 208.042969 92.554688 C 200.785156 90.132812 193.589844 87.480469 186.503906 84.75 C 182.847656 83.339844 179.167969 82.199219 175.480469 80.90625 C 171.066406 79.363281 165.273438 76.144531 160.5 76.460938 C 156.15625 76.753906 151.878906 78.164062 147.511719 78.320312 C 143.777344 78.457031 140.054688 78.457031 136.367188 78.953125 C 133.074219 81.441406 128.792969 83.058594 125.957031 85.902344 C 123.71875 88.132812 121.410156 89.730469 118.675781 91.363281 C 116.011719 92.957031 113.796875 94.988281 111.0625 96.453125 C 107.988281 98.09375 104.804688 99.875 102.316406 102.355469 C 101.179688 103.476562 98.949219 105.761719 99.101562 107.535156 C 99.273438 109.582031 102.679688 110.53125 104.585938 111.421875 C 120.347656 118.875 137.847656 124.769531 155.203125 126.953125 C 156.171875 127.078125 157.140625 127.179688 158.09375 127.269531 C 160.292969 117.308594 171.113281 109.191406 180.445312 106.644531 C 187.410156 104.746094 191.027344 98.078125 198.035156 96.46875 Z M 201.582031 174.96875 C 201.582031 174.644531 201.613281 174.347656 201.597656 174.007812 C 201.523438 172.054688 200.644531 169.199219 199.492188 166.496094 C 199.113281 166.773438 198.617188 166.90625 198.035156 166.757812 C 196.527344 166.339844 194.929688 166.433594 193.480469 166.996094 C 192.761719 167.277344 192.1875 167.867188 191.46875 168.074219 C 189.933594 168.539062 186.628906 166.632812 185.535156 168.199219 C 187.023438 169.214844 188.332031 170.382812 189.238281 171.476562 C 190.703125 173.210938 188.207031 175.734375 186.75 173.976562 C 184.769531 171.613281 180.074219 168.230469 176.667969 169.152344 C 176.683594 169.777344 176.683594 170.382812 176.699219 170.933594 C 176.734375 173.210938 173.203125 173.210938 173.15625 170.933594 C 173.09375 168.230469 173.421875 162.921875 171.050781 160.941406 C 169.347656 159.53125 165.882812 159.957031 163.808594 160.207031 C 160.578125 160.609375 157.308594 161.605469 155.453125 164.402344 C 155.203125 164.773438 154.328125 165.8125 153.847656 166.664062 C 154.082031 166.679688 154.304688 166.742188 154.554688 166.84375 C 165.636719 172.101562 174.878906 179.683594 187.316406 181.140625 C 192.527344 181.761719 200.398438 183.234375 201.460938 176.253906 C 201.351562 175.828125 201.367188 175.363281 201.582031 174.96875 Z M 209.46875 166.402344 C 209.609375 166.230469 209.761719 166.078125 209.902344 165.9375 C 209.46875 165.828125 209.011719 165.8125 208.453125 165.984375 C 206.75 166.449219 204.921875 166.0625 203.15625 165.773438 C 204.125 168.261719 204.75 170.886719 204.859375 173.410156 C 206 173.132812 207.011719 172.800781 207.230469 171.847656 C 207.671875 169.753906 208.167969 168.074219 209.46875 166.402344 Z M 215.316406 157.066406 C 215.480469 150.839844 214.835938 143.722656 216.035156 137.679688 C 211.589844 136.699219 206.046875 139.324219 201.566406 138.882812 C 198.246094 138.539062 197.601562 134.976562 193.328125 136.699219 C 192.203125 137.164062 189.796875 138.710938 188.285156 138.308594 C 185.457031 137.527344 182.289062 134.929688 179.324219 133.699219 C 177.183594 132.808594 174.28125 131.777344 172.019531 131.453125 C 168.144531 130.886719 164.273438 130.75 160.402344 130.59375 C 159.703125 130.980469 158.8125 130.949219 158.277344 130.484375 C 154.566406 130.316406 150.851562 130.042969 147.132812 129.269531 C 132.742188 126.273438 118.425781 121.878906 105.113281 115.574219 C 99.792969 113.050781 95.152344 111.71875 89.242188 111.71875 C 86.679688 111.71875 83.417969 112.269531 81.015625 110.960938 C 75.363281 107.882812 66.539062 104.777344 59.878906 105.058594 C 59.847656 105.058594 59.832031 105.042969 59.800781 105.042969 C 59.484375 105.226562 59.082031 105.320312 58.632812 105.257812 C 57.269531 105.042969 56.054688 104.445312 54.699219 104.152344 C 52.761719 103.710938 50.949219 103.855469 48.980469 103.871094 C 45.703125 103.902344 42.460938 103.289062 39.207031 103.011719 C 39.019531 103.507812 38.882812 104.011719 38.742188 104.523438 C 38.789062 104.625 38.835938 104.714844 38.835938 104.824219 C 38.835938 109.441406 39.445312 111.53125 41.414062 115.375 C 44.03125 120.492188 49.839844 119.851562 54.503906 120.230469 C 61.761719 120.820312 68.136719 123.722656 74.945312 125.675781 C 78.328125 126.628906 81.898438 127.148438 85.199219 128.222656 C 88.769531 129.410156 91.78125 131.5625 95.355469 132.59375 C 99.667969 133.839844 103.960938 133.40625 107.910156 135.328125 C 111.828125 137.214844 116.058594 139.222656 120.300781 140.277344 C 137.9375 144.675781 154.628906 150.539062 172.722656 153.289062 C 176.890625 153.914062 181.539062 153.257812 185.441406 154.882812 C 190.957031 157.175781 194.324219 157.238281 200.082031 155.652344 C 204.277344 154.488281 210.132812 156.441406 214.757812 157.515625 C 214.882812 157.332031 215.070312 157.175781 215.316406 157.066406 Z M 217.390625 161.265625 C 217.160156 161.328125 216.925781 161.359375 216.710938 161.34375 C 216.476562 161.40625 216.238281 161.40625 215.960938 161.375 C 210.964844 160.546875 204.90625 158.207031 199.769531 159.390625 C 200.335938 160.207031 200.894531 161.082031 201.398438 162.003906 C 203.351562 162.140625 206 163.21875 207.796875 162.453125 C 208.703125 162.0625 209.761719 161.699219 210.761719 162.046875 C 212.242188 162.589844 213.195312 163.433594 214.898438 163.28125 C 216.476562 163.125 217.144531 162.34375 217.390625 161.265625 Z M 216.410156 220.535156 C 217.53125 219.785156 218.4375 218.839844 219.234375 217.824219 C 213.242188 219.691406 205.394531 217.746094 199.351562 215.695312 C 198.460938 220.945312 197.554688 226.972656 199.695312 232.214844 C 199.726562 232.292969 199.753906 232.402344 199.785156 232.492188 C 203.519531 231.574219 206.488281 227.984375 209.777344 225.253906 C 211.933594 223.46875 214.101562 222.097656 216.410156 220.535156 Z M 222.386719 211.636719 C 221.265625 211.84375 220.109375 211.984375 218.925781 211.953125 C 214.835938 211.859375 210.777344 211.96875 206.703125 211.652344 C 204.890625 211.511719 203.078125 211.308594 201.242188 211.046875 C 201.1875 211.339844 201.050781 211.636719 200.769531 211.90625 C 200.632812 212.046875 200.492188 212.183594 200.351562 212.324219 C 207.292969 214.8125 218.003906 217.839844 222.386719 211.636719 Z M 237.4375 198.886719 C 234.929688 199.636719 231.992188 198.777344 229.164062 198.808594 C 225.648438 198.824219 222.433594 199.027344 219.957031 196.78125 C 217.359375 198.792969 212.402344 198.777344 209.671875 198.273438 C 204.15625 197.246094 199.769531 194.332031 196.851562 189.753906 C 192.0625 197.296875 180.199219 199.210938 170.40625 197.351562 C 174.15625 199.46875 178.105469 201.289062 182.089844 202.402344 C 188.546875 204.238281 195.976562 207.203125 202.597656 207.601562 C 213.085938 208.234375 232.691406 211.234375 237.4375 198.886719 Z M 244.121094 188.492188 C 244.820312 187.507812 245.523438 185.945312 245.570312 184.496094 C 243.914062 186.277344 241.976562 188.585938 239.761719 188.585938 C 238.1875 188.585938 237.359375 188.121094 236.40625 189.507812 C 235.703125 190.535156 234.65625 191.046875 233.566406 191.519531 C 229.105469 193.488281 222.738281 192.109375 218.753906 189.019531 C 218.722656 189.019531 218.722656 189.035156 218.695312 189.050781 C 216.035156 189.894531 212.992188 189.878906 210.421875 188.601562 C 207.261719 187.050781 204.441406 184.308594 200.988281 183.371094 C 200.226562 184.007812 199.335938 184.574219 198.308594 185.046875 C 198.386719 185.183594 198.445312 185.355469 198.460938 185.523438 C 198.570312 185.648438 198.664062 185.773438 198.742188 185.929688 C 200.644531 189.753906 203.769531 192.859375 207.84375 194.152344 C 209.226562 194.59375 217.359375 195.949219 218.066406 193.78125 C 218.515625 192.410156 220.050781 192.292969 220.925781 192.9375 C 221.25 193.046875 221.550781 193.277344 221.800781 193.613281 C 223.597656 196.199219 227.351562 195.199219 230.007812 195.300781 C 231.929688 195.378906 235.941406 196.902344 237.453125 194.90625 C 237.546875 194.78125 237.640625 194.6875 237.730469 194.59375 C 237.800781 194.167969 238.066406 193.765625 238.605469 193.488281 C 241.140625 192.226562 242.480469 190.832031 244.121094 188.492188 Z M 246.320312 166.695312 C 243.757812 167.089844 240.851562 165.605469 239.746094 163.203125 C 239.699219 163.09375 235.820312 159.726562 235.128906 160.800781 C 234.71875 161.46875 234.316406 162.328125 233.625 162.785156 C 231.195312 164.417969 228.808594 164.558594 226.027344 164.527344 C 221.496094 167.027344 212.210938 165.542969 210.871094 171.785156 C 210.578125 173.179688 210.382812 174.441406 209.421875 175.441406 C 212.589844 179.3125 216.425781 178.941406 221.34375 177.941406 C 224.582031 177.285156 225.890625 175.875 228.617188 174.269531 C 231.519531 172.582031 234.039062 174.378906 237.191406 174.039062 C 241.820312 173.535156 245.152344 170.808594 246.320312 166.695312 Z M 247.210938 174.007812 C 247.210938 173.707031 247.167969 173.519531 247.105469 173.332031 C 247.035156 173.273438 246.941406 173.210938 246.878906 173.132812 C 245.910156 174.132812 244.742188 175.023438 243.199219 175.796875 C 238.730469 178.042969 232.179688 175.9375 228.964844 179.359375 C 227.277344 181.15625 219.585938 182.882812 216.941406 182.699219 C 211.621094 182.3125 208.855469 180.917969 205.953125 176.6875 C 205.503906 176.765625 205.046875 176.859375 204.613281 177.027344 C 204.378906 178.238281 203.984375 179.390625 203.394531 180.453125 C 207.8125 182.3125 211.453125 186.570312 216.316406 185.945312 C 216.285156 184.449219 218.097656 183.117188 219.21875 184.542969 C 221.359375 187.246094 225.136719 188.691406 228.539062 188.648438 C 230.902344 188.617188 233.285156 187.941406 234.59375 185.851562 C 234.757812 185.570312 234.976562 185.371094 235.238281 185.199219 C 236.316406 184.648438 240.667969 184.101562 240.824219 183.882812 C 241.667969 182.730469 243.371094 181.605469 244.449219 180.699219 C 244.570312 180.605469 244.757812 180.53125 244.898438 180.46875 C 244.957031 180.042969 245.648438 179.667969 245.648438 179.421875 C 245.648438 179.40625 245.648438 179.40625 245.648438 179.390625 C 245.648438 179.027344 245.632812 178.671875 245.726562 178.3125 C 245.878906 177.4375 245.894531 176.425781 246.429688 175.6875 C 247.050781 174.828125 247.210938 175.054688 247.210938 174.007812 Z M 249.535156 156.929688 C 251.566406 156.535156 251.472656 156.503906 251.285156 153.839844 C 251.039062 150.4375 250.054688 148.355469 247.320312 146.324219 C 247.179688 146.230469 247.074219 146.125 246.980469 146 C 245.136719 147.308594 243.167969 148.417969 240.984375 149.230469 C 234.671875 151.59375 228.585938 155.835938 222.203125 158.515625 C 223.015625 160.019531 224.046875 160.296875 225.246094 160.957031 C 228.761719 160.957031 231.164062 159.925781 233.378906 157.128906 C 233.773438 156.625 234.519531 156.582031 235.097656 156.664062 C 237.59375 157.097656 240.078125 158.4375 242.046875 160.035156 C 243.511719 161.234375 244.742188 162.621094 245.523438 162.667969 C 245.648438 162.203125 245.957031 161.832031 246.320312 161.589844 C 246.398438 161.171875 246.445312 160.632812 246.445312 159.910156 C 246.445312 157.945312 247.941406 157.253906 249.535156 156.929688 Z M 247.320312 106.628906 C 249.242188 105.808594 251.984375 105.597656 254.65625 105.964844 C 252.582031 104.699219 250.117188 103.761719 248.863281 103.414062 C 245.136719 102.371094 241.0625 100.890625 237.207031 100.480469 C 236.855469 100.671875 236.4375 100.75 235.941406 100.640625 C 228.351562 98.84375 220.769531 96.675781 213.257812 94.265625 C 213.117188 94.359375 212.976562 94.429688 212.808594 94.5 C 209.183594 95.660156 205.953125 98.265625 202.304688 99.109375 C 196.804688 100.371094 193.992188 103.152344 189.65625 106.351562 C 185.660156 109.316406 180.917969 109.488281 176.71875 111.925781 C 170.832031 115.375 163.289062 120.308594 161.59375 127.550781 C 167.085938 127.921875 172.421875 128.128906 177.953125 129.515625 C 180.632812 130.183594 183.582031 131.144531 186.070312 132.25 C 187.535156 132.902344 188.765625 134.761719 190.34375 134.132812 C 192.359375 133.3125 195.636719 131.933594 197.851562 133.027344 C 200.429688 134.28125 201.148438 135.328125 203.921875 134.929688 C 207.949219 134.34375 212.867188 133.164062 216.972656 134.265625 C 218.910156 128.472656 221.496094 121.019531 226.398438 117.234375 C 232.257812 112.71875 240.511719 109.550781 247.320312 106.628906 Z M 264.742188 124.058594 C 266.15625 122.988281 262.300781 115.636719 261.632812 114.621094 C 256.359375 106.472656 248.414062 109.914062 241.929688 113.265625 C 235.78125 116.449219 228.460938 118.324219 225 124.816406 C 221.9375 130.59375 219.476562 135.914062 219.476562 142.492188 C 219.476562 147.046875 219.28125 151.445312 218.988281 155.914062 C 224.355469 153.882812 229.507812 150.214844 234.640625 148.011719 C 240.15625 145.644531 244.757812 143.847656 248.753906 139.191406 C 250.597656 137.070312 253.136719 135.542969 254.886719 133.148438 C 255.980469 131.625 257.210938 129.921875 258.652344 128.71875 C 260.621094 127.078125 262.695312 125.613281 264.742188 124.058594 Z M 262.113281 109.378906 C 265.144531 112.894531 269.828125 120.492188 268.265625 125.351562 C 267.476562 127.765625 262.632812 129.671875 261.148438 131.222656 C 259.085938 133.359375 257.621094 135.976562 255.609375 138.113281 C 253.703125 140.128906 251.78125 142.066406 249.753906 143.816406 C 254.160156 147.433594 255.933594 152.492188 254.46875 158.316406 C 254.121094 159.785156 252.441406 160.632812 251.03125 160.5 C 249.738281 160.375 249.90625 162.0625 249.785156 163.496094 C 250.015625 163.691406 250.164062 163.96875 250.226562 164.324219 C 250.320312 164.433594 250.425781 164.527344 250.503906 164.667969 C 250.90625 165.308594 251.117188 166.03125 251.054688 166.8125 C 250.921875 168.476562 250.644531 169.980469 250.179688 171.550781 C 250.582031 172.304688 250.753906 173.070312 250.753906 174.007812 C 250.753906 174.566406 250.828125 175.222656 250.691406 175.765625 C 250.472656 176.484375 249.800781 176.84375 249.472656 177.46875 C 248.957031 178.5 249.03125 180.28125 248.523438 181.464844 C 249.597656 183.945312 249.070312 187.539062 247.601562 189.660156 C 245.742188 192.332031 244.136719 194.347656 241.496094 195.933594 C 241.496094 195.980469 241.527344 196.011719 241.527344 196.042969 C 241.511719 196.796875 241.480469 197.59375 241.015625 198.226562 C 240.984375 198.273438 240.9375 198.296875 240.890625 198.351562 C 241.078125 198.683594 241.125 199.101562 240.9375 199.589844 C 239.035156 204.851562 237.050781 207.570312 231.257812 209.03125 C 230.195312 209.296875 229.164062 209.613281 228.136719 209.953125 C 228.199219 210.433594 228.089844 210.9375 227.695312 211.386719 C 225.355469 214.074219 224.574219 217.554688 222.25 220.164062 C 220.109375 222.59375 217.453125 223.925781 214.820312 225.777344 C 211.976562 227.777344 209.40625 229.804688 207.378906 232.632812 C 206.875 233.324219 206.472656 234.011719 205.796875 234.539062 C 203.984375 235.941406 200.832031 236.210938 199.152344 236.257812 C 199.136719 236.257812 199.136719 236.257812 199.136719 236.257812 C 196.945312 237.304688 194.773438 236.398438 192.453125 235.996094 C 187.207031 235.089844 181.738281 234.367188 176.464844 233.695312 C 155.847656 231.015625 138.070312 217.539062 117.535156 215.246094 C 108.40625 214.214844 98.304688 212.8125 89.507812 210.234375 C 79.714844 207.34375 70.367188 203.851562 60.359375 201.511719 C 52.714844 199.746094 42.566406 197.121094 36.851562 191.394531 C 31.808594 186.371094 33.148438 178.886719 33.714844 172.628906 C 33.011719 172.226562 32.839844 171.550781 33.039062 170.917969 C 31.5625 169.648438 31.011719 167.523438 30.6875 165.046875 C 30.238281 161.390625 32.636719 157.59375 34.898438 155.085938 C 32.808594 153.382812 32.359375 151.226562 33.746094 148.609375 C 34.914062 146.363281 38.804688 144.0625 40.664062 142.289062 C 42.050781 140.972656 44.378906 138.695312 46.566406 137.175781 C 45.984375 136.558594 45.417969 135.945312 45.109375 135.023438 C 45.015625 134.714844 45.015625 134.390625 45.109375 134.085938 C 45.324219 133.390625 45.308594 133.265625 45.0625 133.699219 C 44.566406 133.265625 44.328125 132.933594 44 132.359375 C 43.21875 131.027344 43.800781 128.566406 44.296875 127.210938 C 44.796875 125.832031 45.078125 124.429688 45.644531 123.105469 C 43.628906 122.554688 41.878906 121.726562 40.695312 120.417969 C 37.128906 116.527344 35.820312 108.945312 35.433594 106.023438 C 35.164062 105.660156 35.023438 105.179688 35.117188 104.609375 C 35.960938 99.511719 39.355469 95.445312 41.957031 91.128906 C 44.566406 86.730469 46.6875 82.199219 50.242188 78.457031 C 53.914062 74.601562 59.113281 73.324219 62.96875 69.683594 C 65.371094 67.421875 67.832031 65.800781 71.148438 65.390625 C 91.09375 62.9375 114.074219 67.730469 132.601562 75.183594 C 132.980469 75.335938 133.261719 75.585938 133.460938 75.878906 C 134.050781 75.753906 134.632812 75.664062 135.226562 75.585938 C 135.273438 75.570312 135.320312 75.570312 135.351562 75.570312 C 139.394531 75.066406 143.4375 75.238281 147.511719 74.789062 C 151.632812 74.339844 156.34375 72.664062 160.5 72.929688 C 165.304688 73.230469 169.632812 75.136719 174.140625 76.707031 C 177.617188 77.925781 181.792969 78.535156 185.039062 80.246094 C 192.964844 84.375 202.414062 85.980469 210.683594 89.425781 C 218.847656 92.820312 227.523438 95.019531 236.097656 97.03125 C 236.332031 96.941406 236.609375 96.878906 236.925781 96.910156 C 242.324219 97.40625 249.503906 99.03125 254.191406 101.796875 C 257.40625 103.695312 260.652344 105.195312 261.542969 108.789062 C 261.742188 108.976562 261.945312 109.175781 262.113281 109.378906 Z M 120.945312 167.371094 C 120.992188 167.230469 121.070312 167.105469 121.144531 166.996094 C 119.796875 164.722656 118.699219 162.21875 117.535156 159.617188 C 117.445312 159.617188 117.367188 159.632812 117.273438 159.632812 C 110.90625 159.941406 104.757812 156.773438 98.273438 158.300781 C 96.058594 158.804688 95.105469 155.394531 97.335938 154.882812 C 99.589844 154.347656 101.898438 154.667969 104.191406 154.761719 C 104.238281 154.441406 104.410156 154.101562 104.742188 153.792969 C 105.359375 153.257812 106.019531 152.886719 106.539062 152.257812 C 106.925781 151.808594 107.082031 151.179688 107.296875 150.609375 C 106.460938 149.765625 105.679688 149.011719 104.585938 148.386719 C 103.945312 148 103.648438 147.65625 102.882812 147.503906 C 102.222656 147.371094 101.621094 147.121094 101.007812 146.84375 C 98.933594 145.890625 100.730469 142.847656 102.789062 143.785156 C 103.515625 144.109375 104.285156 144.140625 105.019531 144.441406 C 105.710938 144.753906 106.25 145.203125 106.785156 145.488281 C 107.878906 146.078125 108.722656 146.9375 109.535156 147.828125 C 109.550781 147.324219 109.589844 146.8125 109.621094 146.339844 C 109.691406 144.890625 110.171875 143.503906 110.265625 142.082031 C 110.308594 141.476562 110.371094 140.925781 110.535156 140.382812 C 109.691406 140.035156 108.863281 139.664062 108.046875 139.269531 C 104.988281 137.789062 101.300781 137.402344 97.792969 136.726562 C 97.683594 136.835938 97.5625 136.882812 97.40625 136.976562 C 96.320312 137.617188 95.074219 138.648438 93.8125 140.191406 C 93.828125 140.191406 93.828125 140.191406 93.828125 140.191406 C 94.6875 140.191406 94.90625 141.972656 94.457031 142.738281 C 93.9375 143.628906 92.90625 143.925781 92.046875 143.503906 C 91.875 143.429688 91.691406 143.367188 91.519531 143.328125 C 90.03125 145.308594 88.691406 147.261719 87.800781 148.5 C 84.867188 152.605469 88.460938 158.066406 89.507812 162.265625 C 91.9375 171.960938 101.558594 172.785156 109.25 170.414062 C 109.386719 170.367188 120.945312 166.773438 120.945312 167.371094 " fill-opacity="1" fill-rule="nonzero"/></g><path fill="currentColor" d="M 261.757812 122.273438 C 262.386719 122.910156 262.511719 124.164062 261.757812 124.785156 C 260.480469 125.832031 258.976562 125.582031 257.4375 125.550781 C 255.152344 125.519531 255.152344 121.980469 257.4375 122.019531 C 257.886719 122.035156 258.328125 122.074219 258.777344 122.074219 C 259.023438 122.089844 259.273438 122.089844 259.511719 122.058594 C 259.527344 122.058594 259.527344 122.058594 259.558594 122.058594 C 259.621094 122.035156 259.667969 122.035156 259.699219 122.019531 C 260.371094 121.679688 261.164062 121.679688 261.757812 122.273438 " fill-opacity="1" fill-rule="nonzero"/><path fill="currentColor" d="M 257.949219 117.125 C 261.023438 117.125 261.023438 121.742188 257.949219 121.742188 L 256.40625 121.742188 C 254.871094 121.742188 254.871094 117.125 256.40625 117.125 C 257.949219 117.125 257.949219 117.125 257.949219 117.125 " fill-opacity="1" fill-rule="nonzero"/><path fill="currentColor" d="M 251.015625 125.148438 C 251.96875 125.304688 252.78125 126.488281 252.535156 127.332031 C 252.253906 128.347656 251.117188 128.71875 250.164062 128.566406 C 248.816406 128.363281 245.648438 128.378906 245.648438 128.378906 C 244.105469 128.378906 244.105469 124.847656 245.648438 124.847656 C 248.722656 124.847656 249.320312 124.894531 251.015625 125.148438 " fill-opacity="1" fill-rule="nonzero"/><path fill="currentColor" d="M 250.257812 120.199219 C 253.332031 120.199219 253.332031 123.273438 250.257812 123.273438 L 247.179688 123.273438 C 245.648438 123.273438 245.648438 120.199219 247.179688 120.199219 C 248.722656 120.199219 250.257812 120.199219 250.257812 120.199219 " fill-opacity="1" fill-rule="nonzero"/><path fill="currentColor" d="M 249.351562 129.949219 C 250.148438 130.484375 250.503906 131.5 250 132.359375 C 249.535156 133.164062 248.367188 133.546875 247.570312 133.011719 C 246.910156 132.546875 246.183594 132.714844 245.382812 132.730469 C 243.109375 132.761719 243.109375 129.222656 245.382812 129.191406 C 246.816406 129.160156 248.117188 129.113281 249.351562 129.949219 " fill-opacity="1" fill-rule="nonzero"/><path fill="currentColor" d="M 233.347656 123.273438 C 236.421875 123.273438 236.421875 126.347656 233.347656 126.347656 C 230.273438 126.347656 230.273438 123.273438 233.347656 123.273438 " fill-opacity="1" fill-rule="nonzero"/><path fill="currentColor" d="M 232.023438 134.375 C 232.929688 134.683594 233.535156 135.589844 233.253906 136.558594 C 233.007812 137.449219 231.992188 138.097656 231.085938 137.789062 C 230.398438 137.558594 229.714844 137.355469 228.996094 137.339844 C 226.726562 137.292969 226.710938 133.761719 228.996094 133.808594 C 230.039062 133.839844 231.023438 134.054688 232.023438 134.375 " fill-opacity="1" fill-rule="nonzero"/><path fill="currentColor" d="M 231.816406 126.890625 C 234.054688 126.84375 234.082031 130.269531 231.898438 130.40625 C 231.882812 130.378906 231.851562 130.390625 231.816406 130.421875 C 231.835938 130.421875 231.867188 130.421875 231.898438 130.40625 C 231.914062 130.40625 231.929688 130.421875 231.929688 130.4375 C 231.164062 131.027344 229.949219 130.5625 229.523438 129.8125 C 228.980469 128.890625 229.382812 127.984375 230.148438 127.378906 C 230.628906 127.007812 231.210938 126.90625 231.816406 126.890625 " fill-opacity="1" fill-rule="nonzero"/><path fill="currentColor" d="M 231.898438 130.40625 C 231.867188 130.421875 231.835938 130.421875 231.816406 130.421875 C 231.851562 130.390625 231.882812 130.378906 231.898438 130.40625 " fill-opacity="1" fill-rule="nonzero"/><path fill="currentColor" d="M 228.949219 138.988281 C 229.839844 139.371094 230.460938 140.160156 230.179688 141.175781 C 229.949219 142.003906 228.902344 142.785156 228.011719 142.398438 C 227.632812 142.25 227.351562 142.21875 226.933594 142.21875 C 224.664062 142.203125 224.664062 138.664062 226.933594 138.679688 C 227.632812 138.679688 228.320312 138.726562 228.949219 138.988281 " fill-opacity="1" fill-rule="nonzero"/><path fill="currentColor" d="M 227.460938 144.3125 C 229.730469 144.367188 229.730469 147.90625 227.460938 147.84375 C 226.355469 147.828125 225.214844 147.609375 224.167969 147.277344 C 222 146.582031 222.921875 143.171875 225.105469 143.863281 C 225.890625 144.109375 226.65625 144.296875 227.460938 144.3125 " fill-opacity="1" fill-rule="nonzero"/><path fill="currentColor" d="M 212.210938 150.199219 C 214.207031 151.289062 212.417969 154.332031 210.421875 153.242188 C 209.453125 152.714844 208.261719 152.964844 207.214844 152.976562 C 204.9375 152.992188 204.9375 149.453125 207.214844 149.4375 C 208.964844 149.414062 210.605469 149.324219 212.210938 150.199219 " fill-opacity="1" fill-rule="nonzero"/><path fill="currentColor" d="M 210.027344 144.566406 C 212.320312 144.472656 212.304688 148.011719 210.027344 148.105469 C 209.398438 148.136719 208.792969 148.355469 208.199219 148.546875 C 207.277344 148.859375 206.261719 148.214844 206.015625 147.324219 C 205.75 146.355469 206.332031 145.449219 207.261719 145.140625 C 208.167969 144.847656 209.074219 144.613281 210.027344 144.566406 " fill-opacity="1" fill-rule="nonzero"/><path fill="currentColor" d="M 186.207031 222.410156 C 186.207031 222.472656 185.707031 222.78125 185.628906 222.835938 C 185.347656 223.050781 185.070312 223.253906 184.785156 223.453125 C 183.992188 224.003906 182.832031 223.609375 182.367188 222.820312 C 181.863281 221.929688 182.210938 220.945312 182.996094 220.394531 C 184.039062 219.675781 184.882812 218.992188 186.191406 218.871094 C 187.160156 218.792969 187.960938 219.746094 187.960938 220.644531 C 187.960938 221.238281 187.671875 221.703125 187.253906 222.007812 C 187.992188 221.796875 188.890625 222.175781 189.269531 222.820312 C 189.78125 223.71875 189.40625 224.6875 188.625 225.253906 C 188.175781 225.5625 188.035156 225.910156 187.734375 226.40625 C 186.472656 228.296875 183.414062 226.53125 184.675781 224.625 C 185.273438 223.695312 185.859375 222.929688 186.734375 222.285156 C 186.566406 222.347656 186.410156 222.394531 186.207031 222.410156 " fill-opacity="1" fill-rule="nonzero"/><path fill="currentColor" d="M 185.691406 138.648438 C 187.960938 138.648438 187.960938 141.722656 185.691406 141.722656 C 182.613281 141.722656 182.613281 138.648438 185.691406 138.648438 " fill-opacity="1" fill-rule="nonzero"/><path fill="currentColor" d="M 152.113281 214.886719 C 152.570312 215.671875 152.34375 216.871094 151.476562 217.304688 C 151.191406 217.445312 150.882812 217.613281 150.835938 217.691406 C 149.664062 219.660156 146.605469 217.871094 147.777344 215.902344 C 148.234375 215.136719 148.898438 214.640625 149.695312 214.246094 C 150.554688 213.8125 151.601562 214.011719 152.113281 214.886719 " fill-opacity="1" fill-rule="nonzero"/><path fill="currentColor" d="M 149.039062 212.0625 C 149.496094 212.84375 149.269531 214.074219 148.402344 214.492188 C 148.054688 214.640625 147.699219 214.78125 147.355469 214.949219 C 147.234375 214.996094 147.117188 215.074219 147.007812 215.136719 C 146.621094 215.792969 145.714844 216.152344 144.996094 215.949219 C 143.996094 215.671875 143.578125 214.71875 143.746094 213.765625 C 144.011719 212.402344 145.542969 211.9375 146.621094 211.433594 C 147.480469 211.015625 148.511719 211.1875 149.039062 212.0625 " fill-opacity="1" fill-rule="nonzero"/><path fill="currentColor" d="M 83.929688 198.136719 C 84.570312 198.777344 84.664062 199.992188 83.929688 200.621094 C 83.636719 200.882812 83.101562 201.226562 82.914062 201.386719 C 82.171875 202.023438 81.125 202.117188 80.40625 201.386719 C 79.761719 200.746094 79.683594 199.527344 80.40625 198.902344 C 80.699219 198.636719 81.234375 198.296875 81.433594 198.136719 C 82.15625 197.5 83.214844 197.40625 83.929688 198.136719 " fill-opacity="1" fill-rule="nonzero"/><path fill="currentColor" d="M 79.652344 191.785156 C 81.835938 191.140625 82.773438 194.546875 80.589844 195.199219 C 79.714844 195.441406 78.996094 196.136719 78.191406 196.546875 C 76.175781 197.609375 74.394531 194.5625 76.40625 193.488281 C 77.5 192.921875 78.4375 192.140625 79.652344 191.785156 " fill-opacity="1" fill-rule="nonzero"/><path fill="currentColor" d="M 51.964844 188.910156 C 53.621094 187.335938 56.128906 189.832031 54.472656 191.394531 C 53.976562 191.859375 53.410156 192.226562 52.929688 192.691406 C 51.273438 194.246094 48.765625 191.753906 50.429688 190.1875 C 50.917969 189.722656 51.476562 189.367188 51.964844 188.910156 " fill-opacity="1" fill-rule="nonzero"/><path fill="currentColor" d="M 50.351562 109.007812 C 51.257812 109.332031 51.855469 110.207031 51.589844 111.191406 C 51.351562 112.066406 50.320312 112.75 49.414062 112.421875 C 48.292969 112.019531 47.214844 111.5 46.324219 110.6875 C 44.644531 109.132812 47.152344 106.644531 48.828125 108.195312 C 49.167969 108.503906 49.808594 108.820312 50.351562 109.007812 " fill-opacity="1" fill-rule="nonzero"/><path fill="currentColor" d="M 51.335938 186.601562 C 51.605469 187.601562 50.996094 188.460938 50.105469 188.785156 C 49.152344 189.121094 48.355469 189.554688 47.324219 189.613281 C 46.355469 189.675781 45.550781 188.769531 45.550781 187.847656 C 45.550781 186.835938 46.355469 186.136719 47.324219 186.082031 C 47.90625 186.050781 48.59375 185.570312 49.152344 185.371094 C 50.058594 185.046875 51.089844 185.742188 51.335938 186.601562 " fill-opacity="1" fill-rule="nonzero"/><path fill="currentColor" d="M 48.324219 113.050781 C 49.980469 114.621094 47.472656 117.109375 45.8125 115.558594 C 45.457031 115.234375 45.0625 115.019531 44.628906 114.808594 C 43.769531 114.375 43.535156 113.175781 44 112.390625 C 44.503906 111.515625 45.550781 111.332031 46.417969 111.765625 C 47.121094 112.097656 47.75 112.515625 48.324219 113.050781 " fill-opacity="1" fill-rule="nonzero"/></svg>