<svg xmlns="http://www.w3.org/2000/svg" xmlns:xlink="http://www.w3.org/1999/xlink" width="400" zoomAndPan="magnify" viewBox="0 0 300 299.999988" height="400" preserveAspectRatio="xMidYMid meet" version="1.0"><path fill="currentColor" d="M 250.265625 235.703125 C 243.640625 235.703125 236.050781 231.976562 228.320312 224.941406 C 213.414062 211.550781 205.824219 196.507812 198.371094 181.878906 C 193.402344 172.21875 188.851562 163.109375 182.5 155.519531 C 173.253906 144.339844 161.800781 138.269531 149.929688 138.269531 C 138.199219 138.269531 126.605469 144.339844 117.5 155.519531 C 111.148438 163.109375 106.457031 172.21875 101.628906 181.878906 C 94.175781 196.507812 86.445312 211.550781 71.679688 224.941406 C 63.8125 231.976562 56.359375 235.703125 49.734375 235.703125 C 44.492188 235.703125 35.382812 233.21875 33.035156 216.246094 C 30 194.4375 32.621094 149.722656 84.652344 96.453125 C 85.34375 95.761719 86.308594 95.484375 87.273438 95.761719 C 88.378906 96.039062 89.621094 96.175781 90.722656 96.175781 C 90.722656 96.175781 90.863281 96.175781 90.863281 96.175781 C 95.554688 96.175781 100.109375 93.828125 102.730469 90.101562 C 105.078125 86.792969 105.628906 82.652344 104.25 78.648438 C 103.699219 77.269531 104.386719 75.75 105.628906 75.199219 L 128.402344 64.847656 C 129.78125 64.296875 131.300781 64.847656 131.988281 66.089844 C 134.613281 70.644531 141.648438 73.679688 149.929688 73.679688 C 158.351562 73.679688 165.386719 70.644531 168.011719 66.089844 C 168.699219 64.847656 170.21875 64.296875 171.460938 64.847656 L 194.371094 75.199219 C 195.613281 75.75 196.300781 77.269531 195.75 78.648438 C 194.371094 82.652344 194.785156 86.792969 197.128906 90.101562 C 200.441406 94.796875 206.792969 97.140625 212.726562 95.761719 C 213.554688 95.484375 214.65625 95.761719 215.210938 96.453125 C 267.378906 149.722656 270 194.4375 266.964844 216.246094 C 264.480469 233.21875 255.371094 235.703125 250.265625 235.703125 Z M 149.929688 132.75 C 163.457031 132.75 176.429688 139.648438 186.78125 151.933594 C 193.542969 160.074219 198.234375 169.460938 203.339844 179.394531 C 210.515625 193.472656 217.96875 208.242188 231.910156 220.9375 C 238.671875 226.871094 245.15625 230.183594 250.265625 230.183594 C 256.335938 230.183594 260.0625 225.214844 261.441406 215.554688 C 263.789062 198.855469 263.652344 154.417969 212.3125 101.421875 C 204.859375 102.523438 196.855469 99.210938 192.714844 93.277344 C 189.679688 89.136719 188.710938 84.167969 189.816406 79.199219 L 171.324219 70.921875 C 166.492188 76.992188 157.382812 79.199219 149.929688 79.199219 C 142.617188 79.199219 133.507812 76.992188 128.539062 70.921875 L 110.046875 79.199219 C 111.148438 84.167969 110.183594 89.136719 107.285156 93.277344 C 103.699219 98.382812 97.347656 101.695312 90.863281 101.695312 C 89.757812 101.695312 88.65625 101.558594 87.550781 101.421875 C 36.210938 154.417969 36.210938 198.855469 38.558594 215.554688 C 39.9375 225.214844 43.664062 230.183594 49.734375 230.183594 C 54.84375 230.183594 61.328125 226.871094 67.953125 220.9375 C 82.03125 208.242188 89.484375 193.472656 96.660156 179.394531 C 101.765625 169.460938 106.457031 160.074219 113.21875 151.933594 C 123.433594 139.648438 136.542969 132.75 149.929688 132.75 Z M 149.929688 132.75 " fill-opacity="1" fill-rule="evenodd"/><path fill="currentColor" d="M 67.539062 205.480469 C 66.296875 205.480469 65.191406 205.203125 64.226562 204.515625 L 50.289062 196.234375 C 48.769531 195.40625 47.804688 194.023438 47.25 192.230469 C 46.835938 190.574219 47.113281 188.78125 48.078125 187.402344 L 56.222656 173.601562 C 56.636719 173.046875 57.1875 172.496094 57.878906 172.359375 C 58.566406 172.21875 59.394531 172.21875 59.949219 172.632812 L 80.375 184.777344 C 81.617188 185.605469 82.03125 187.261719 81.339844 188.644531 L 73.195312 202.304688 C 71.957031 204.238281 69.746094 205.480469 67.539062 205.480469 Z M 59.535156 178.84375 L 52.773438 190.160156 C 52.632812 190.4375 52.632812 190.714844 52.632812 190.988281 C 52.632812 191.128906 52.773438 191.402344 53.1875 191.542969 L 66.988281 199.820312 C 67.402344 200.097656 68.089844 200.097656 68.367188 199.40625 L 75.128906 188.089844 Z M 59.535156 178.84375 " fill-opacity="1" fill-rule="evenodd"/><path fill="currentColor" d="M 78.992188 189.886719 C 78.441406 189.886719 78.027344 189.746094 77.476562 189.472656 L 57.1875 177.464844 C 55.808594 176.636719 55.394531 174.980469 56.222656 173.601562 L 66.296875 156.625 C 66.710938 156.074219 67.261719 155.519531 67.953125 155.382812 C 68.78125 155.246094 69.472656 155.382812 70.160156 155.660156 L 90.449219 167.804688 C 91.828125 168.632812 92.242188 170.289062 91.414062 171.667969 L 81.339844 188.644531 C 80.925781 189.195312 80.375 189.609375 79.683594 189.886719 C 79.40625 189.886719 79.132812 189.886719 78.992188 189.886719 Z M 62.433594 174.015625 L 78.027344 183.398438 L 85.203125 171.117188 L 69.609375 161.867188 Z M 62.433594 174.015625 " fill-opacity="1" fill-rule="evenodd"/><path fill="currentColor" d="M 89.070312 172.910156 C 88.515625 172.910156 88.101562 172.773438 87.6875 172.632812 L 67.261719 160.488281 C 66.710938 160.074219 66.160156 159.382812 66.019531 158.695312 C 65.882812 158.003906 65.882812 157.316406 66.296875 156.625 L 76.371094 139.648438 C 77.199219 138.40625 78.855469 137.992188 80.234375 138.683594 L 100.523438 150.828125 C 101.902344 151.65625 102.316406 153.3125 101.488281 154.691406 L 91.414062 171.667969 C 91 172.21875 90.449219 172.632812 89.757812 172.910156 C 89.484375 172.910156 89.34375 172.910156 89.070312 172.910156 Z M 72.507812 157.039062 L 88.101562 166.421875 L 95.417969 154.140625 L 79.820312 144.894531 Z M 72.507812 157.039062 " fill-opacity="1" fill-rule="evenodd"/><path fill="currentColor" d="M 99.144531 155.933594 C 98.730469 155.933594 98.175781 155.796875 97.761719 155.660156 L 77.335938 143.511719 C 76.09375 142.683594 75.679688 141.03125 76.371094 139.648438 L 84.929688 125.433594 C 86.03125 123.640625 87.964844 122.535156 90.035156 122.535156 C 91.136719 122.535156 92.105469 122.8125 93.070312 123.363281 L 107.976562 132.335938 C 110.734375 133.992188 111.703125 137.578125 110.046875 140.339844 L 101.488281 154.691406 C 101.214844 155.246094 100.523438 155.796875 99.832031 155.933594 C 99.558594 155.933594 99.417969 155.933594 99.144531 155.933594 Z M 82.582031 140.203125 L 98.175781 149.449219 L 105.355469 137.578125 C 105.355469 137.441406 105.355469 137.164062 105.214844 137.027344 L 90.171875 128.054688 C 90.035156 128.054688 89.757812 128.054688 89.621094 128.195312 Z M 82.582031 140.203125 " fill-opacity="1" fill-rule="evenodd"/><path fill="currentColor" d="M 232.460938 205.480469 C 230.113281 205.480469 228.042969 204.238281 226.804688 202.304688 L 218.660156 188.644531 C 217.832031 187.261719 218.246094 185.605469 219.625 184.777344 L 239.914062 172.632812 C 241.292969 171.945312 242.949219 172.359375 243.777344 173.601562 L 251.921875 187.402344 C 253.714844 190.4375 252.75 194.4375 249.710938 196.234375 L 235.773438 204.515625 C 234.808594 205.203125 233.566406 205.480469 232.460938 205.480469 Z M 224.734375 188.089844 L 231.496094 199.546875 C 231.769531 199.820312 232.183594 199.960938 232.460938 199.960938 C 232.597656 199.960938 232.738281 199.960938 232.875 199.820312 L 246.8125 191.542969 C 247.226562 191.265625 247.503906 190.574219 247.226562 190.160156 L 240.464844 178.84375 Z M 224.734375 188.089844 " fill-opacity="1" fill-rule="evenodd"/><path fill="currentColor" d="M 221.007812 189.886719 C 220.730469 189.886719 220.59375 189.886719 220.316406 189.886719 C 219.625 189.609375 219.074219 189.195312 218.660156 188.644531 L 208.585938 171.667969 C 207.757812 170.289062 208.171875 168.632812 209.550781 167.804688 L 229.839844 155.660156 C 230.527344 155.382812 231.21875 155.246094 231.910156 155.382812 C 232.597656 155.519531 233.289062 156.074219 233.566406 156.625 L 243.777344 173.601562 C 244.46875 174.980469 244.054688 176.636719 242.8125 177.464844 L 222.386719 189.472656 C 221.972656 189.746094 221.558594 189.886719 221.007812 189.886719 Z M 214.65625 171.117188 L 221.972656 183.398438 L 237.566406 174.015625 L 230.253906 161.867188 Z M 214.65625 171.117188 " fill-opacity="1" fill-rule="evenodd"/><path fill="currentColor" d="M 210.929688 172.910156 C 210.65625 172.910156 210.378906 172.910156 210.242188 172.910156 C 209.550781 172.632812 208.863281 172.21875 208.585938 171.667969 L 198.371094 154.691406 C 197.683594 153.3125 198.097656 151.65625 199.339844 150.828125 L 219.765625 138.683594 C 221.007812 137.992188 222.800781 138.40625 223.492188 139.648438 L 233.566406 156.625 C 233.980469 157.316406 234.117188 158.003906 233.980469 158.695312 C 233.703125 159.382812 233.289062 160.074219 232.738281 160.488281 L 212.3125 172.632812 C 211.898438 172.773438 211.34375 172.910156 210.929688 172.910156 Z M 204.582031 154.140625 L 211.898438 166.421875 L 227.492188 157.039062 L 220.179688 144.894531 Z M 204.582031 154.140625 " fill-opacity="1" fill-rule="evenodd"/><path fill="currentColor" d="M 200.855469 155.933594 C 200.582031 155.933594 200.304688 155.933594 200.167969 155.933594 C 199.339844 155.796875 198.785156 155.246094 198.371094 154.691406 L 189.953125 140.339844 C 189.125 139.097656 188.851562 137.441406 189.265625 135.921875 C 189.679688 134.40625 190.644531 133.023438 192.023438 132.335938 L 206.929688 123.363281 C 207.894531 122.8125 208.863281 122.535156 209.964844 122.535156 C 212.035156 122.535156 213.96875 123.640625 215.070312 125.433594 L 223.492188 139.648438 C 224.320312 141.03125 223.90625 142.683594 222.523438 143.511719 L 202.238281 155.660156 C 201.824219 155.796875 201.269531 155.933594 200.855469 155.933594 Z M 209.964844 128.054688 C 209.828125 128.054688 209.828125 128.054688 209.691406 128.054688 L 194.785156 137.027344 C 194.644531 137.164062 194.507812 137.441406 194.644531 137.578125 L 201.683594 149.449219 L 217.417969 140.203125 L 210.242188 128.195312 C 210.242188 128.054688 210.101562 128.054688 209.964844 128.054688 Z M 209.964844 128.054688 " fill-opacity="1" fill-rule="evenodd"/><path fill="currentColor" d="M 193.957031 92.863281 L 105.90625 92.863281 C 104.386719 92.863281 103.144531 91.621094 103.144531 90.101562 C 103.144531 88.585938 104.386719 87.34375 105.90625 87.34375 L 193.957031 87.34375 C 195.472656 87.34375 196.714844 88.585938 196.714844 90.101562 C 196.714844 91.621094 195.472656 92.863281 193.957031 92.863281 Z M 193.957031 92.863281 " fill-opacity="1" fill-rule="evenodd"/><path fill="currentColor" d="M 200.855469 133.023438 C 200.441406 133.023438 199.890625 132.886719 199.476562 132.609375 C 146.480469 102.9375 101.074219 132.195312 100.660156 132.472656 C 99.28125 133.300781 97.625 133.023438 96.796875 131.78125 C 95.96875 130.402344 96.246094 128.746094 97.625 127.917969 C 98.039062 127.640625 146.066406 96.453125 202.238281 127.78125 C 203.480469 128.46875 204.03125 130.265625 203.203125 131.507812 C 202.789062 132.472656 201.824219 133.023438 200.855469 133.023438 Z M 200.855469 133.023438 " fill-opacity="1" fill-rule="evenodd"/></svg>