<svg xmlns="http://www.w3.org/2000/svg" xmlns:xlink="http://www.w3.org/1999/xlink" width="400" zoomAndPan="magnify" viewBox="0 0 300 299.999988" height="400" preserveAspectRatio="xMidYMid meet" version="1.0"><defs><clipPath id="12fc4a9bfb"><path d="M 30 51.601562 L 270 51.601562 L 270 248.101562 L 30 248.101562 Z M 30 51.601562 " clip-rule="nonzero"/></clipPath></defs><g clip-path="url(#12fc4a9bfb)"><path fill="#a9a0f0" d="M 270 71.601562 L 270 55.085938 C 270 53.207031 268.476562 51.683594 266.597656 51.683594 L 98.394531 51.683594 C 71.28125 51.683594 49.222656 73.742188 49.222656 100.855469 C 49.222656 103.496094 50.105469 105.929688 51.589844 107.886719 C 51.71875 116.28125 54.183594 127.058594 58.933594 139.960938 C 61.113281 145.875 61.957031 151.324219 61.667969 157.621094 C 61.445312 162.582031 61.28125 168.78125 61.394531 175.269531 L 33.402344 175.269531 C 31.523438 175.269531 30 176.789062 30 178.667969 C 30 180.546875 31.523438 182.070312 33.402344 182.070312 L 61.617188 182.070312 C 61.78125 185.320312 62.027344 188.558594 62.390625 191.675781 C 64.175781 207.042969 68.257812 215.441406 74.871094 217.359375 C 75.460938 217.527344 76.085938 217.535156 76.679688 217.378906 C 78.011719 217.03125 89.65625 213.207031 88.753906 187.113281 C 88.691406 185.273438 88.71875 183.597656 88.820312 182.070312 L 107.960938 182.070312 C 108.066406 183.648438 108.097656 185.328125 108.035156 187.113281 C 107.132812 213.207031 118.777344 217.03125 120.109375 217.378906 C 120.394531 217.453125 120.683594 217.492188 120.972656 217.492188 C 121.292969 217.492188 121.609375 217.445312 121.917969 217.359375 C 128.535156 215.441406 132.617188 207.042969 134.402344 191.671875 C 134.761719 188.558594 135.007812 185.316406 135.171875 182.070312 L 155.128906 182.070312 C 155.316406 184.125 155.359375 186.226562 155.257812 188.433594 C 154.84375 197.566406 154.632812 210.886719 155.976562 222.488281 C 157.761719 237.859375 161.84375 246.261719 168.457031 248.175781 C 169.050781 248.34375 169.675781 248.351562 170.269531 248.195312 C 171.601562 247.847656 183.242188 244.023438 182.34375 217.929688 C 181.667969 198.324219 191.222656 197.359375 192.003906 197.3125 C 192.261719 197.328125 194.734375 197.546875 197.066406 199.960938 C 200.335938 203.347656 201.910156 209.558594 201.625 217.929688 C 200.722656 244.023438 212.367188 247.847656 213.699219 248.195312 C 213.980469 248.269531 214.273438 248.308594 214.5625 248.308594 C 214.882812 248.308594 215.199219 248.265625 215.507812 248.175781 C 222.121094 246.261719 226.207031 237.859375 227.988281 222.488281 C 229.335938 210.886719 229.125 197.566406 228.707031 188.433594 C 228.609375 186.226562 228.648438 184.125 228.835938 182.070312 L 266.597656 182.070312 C 268.476562 182.070312 270 180.546875 270 178.667969 C 270 176.789062 268.476562 175.269531 266.597656 175.269531 L 230.03125 175.269531 C 230.417969 173.785156 230.890625 172.292969 231.449219 170.769531 C 241.046875 144.699219 241.292969 128.0625 232.195312 119.914062 C 220.574219 109.5 198.078125 118.570312 191.984375 121.328125 C 185.890625 118.570312 163.398438 109.5 151.773438 119.914062 C 142.675781 128.0625 142.921875 144.699219 152.519531 170.769531 C 153.082031 172.292969 153.550781 173.785156 153.941406 175.269531 L 135.398438 175.269531 C 135.507812 168.78125 135.347656 162.578125 135.121094 157.617188 C 134.832031 151.324219 135.675781 145.875 137.859375 139.953125 C 142.652344 126.9375 145.109375 116.273438 145.242188 107.839844 C 146.75 105.835938 147.566406 103.40625 147.566406 100.855469 C 147.566406 91.695312 144.992188 82.726562 140.222656 75.003906 L 266.597656 75.003906 C 268.476562 75.003906 270 73.480469 270 71.601562 Z M 156.308594 124.984375 C 164.445312 117.683594 183.726562 124.78125 190.46875 128.128906 C 191.421875 128.605469 192.542969 128.605469 193.5 128.128906 C 200.242188 124.78125 219.523438 117.683594 227.664062 124.984375 C 232.253906 129.105469 235.535156 139.984375 225.066406 168.417969 C 222.558594 175.230469 221.585938 181.5 221.914062 188.742188 C 223.472656 222.992188 219.160156 238.097656 214.628906 241.15625 C 212.671875 239.765625 207.855469 234.628906 208.421875 218.164062 C 208.78125 207.761719 206.605469 200.046875 201.957031 195.234375 C 197.519531 190.640625 192.539062 190.507812 191.984375 190.507812 C 191.429688 190.507812 186.449219 190.640625 182.011719 195.234375 C 177.363281 200.046875 175.1875 207.761719 175.546875 218.164062 C 176.109375 234.453125 171.339844 239.664062 169.308594 241.136719 C 164.785156 238.027344 160.5 222.910156 162.054688 188.742188 C 162.382812 181.5 161.410156 175.230469 158.902344 168.417969 C 148.4375 139.984375 151.714844 129.105469 156.308594 124.984375 Z M 89.980469 175.269531 C 92.472656 167.074219 97.839844 166.53125 98.417969 166.496094 C 98.675781 166.511719 101.148438 166.734375 103.476562 169.144531 C 104.929688 170.648438 106.042969 172.710938 106.8125 175.269531 Z M 131.476562 137.601562 C 128.96875 144.417969 127.996094 150.683594 128.324219 157.925781 C 129.882812 192.179688 125.574219 207.28125 121.039062 210.339844 C 119.082031 208.949219 114.265625 203.8125 114.832031 187.347656 C 115.191406 176.945312 113.015625 169.230469 108.367188 164.417969 C 103.929688 159.828125 98.949219 159.695312 98.394531 159.695312 C 97.84375 159.695312 92.859375 159.828125 88.421875 164.417969 C 83.773438 169.230469 81.601562 176.945312 81.957031 187.347656 C 82.519531 203.636719 77.753906 208.847656 75.722656 210.320312 C 71.199219 207.210938 66.910156 192.097656 68.464844 157.933594 C 68.792969 150.683594 67.824219 144.417969 65.316406 137.609375 C 61.667969 127.695312 59.449219 119.21875 58.6875 112.304688 C 59.398438 112.441406 60.132812 112.515625 60.882812 112.515625 C 67.3125 112.515625 72.542969 107.285156 72.542969 100.855469 C 72.542969 97.375 73.238281 94.054688 74.492188 91.019531 C 85.082031 91.515625 96.753906 97.253906 96.878906 97.316406 C 97.832031 97.789062 98.957031 97.789062 99.910156 97.316406 C 106.652344 93.964844 125.933594 86.867188 134.074219 94.167969 C 138.667969 98.289062 141.945312 109.167969 131.476562 137.601562 Z M 78.359375 84.542969 C 83.105469 78.726562 90.320312 75.003906 98.394531 75.003906 C 106.324219 75.003906 113.632812 78.566406 118.480469 84.566406 C 109.859375 85.652344 101.703125 89.015625 98.394531 90.511719 C 95.09375 89.019531 86.921875 85.648438 78.359375 84.542969 Z M 263.199219 68.203125 L 133.597656 68.203125 C 132.277344 68.203125 131.078125 68.964844 130.519531 70.160156 C 129.960938 71.355469 130.140625 72.765625 130.984375 73.777344 C 134.878906 78.460938 137.6875 83.917969 139.273438 89.734375 C 139.054688 89.519531 138.835938 89.304688 138.605469 89.097656 C 135.273438 86.113281 131.042969 84.730469 126.566406 84.339844 C 120.710938 74.339844 110.089844 68.203125 98.394531 68.203125 C 80.390625 68.203125 65.742188 82.851562 65.742188 100.855469 C 65.742188 103.535156 63.5625 105.714844 60.882812 105.714844 C 58.203125 105.714844 56.023438 103.535156 56.023438 100.855469 C 56.023438 77.492188 75.03125 58.484375 98.394531 58.484375 L 263.199219 58.484375 Z M 263.199219 68.203125 " fill-opacity="1" fill-rule="nonzero"/></g></svg>