<svg xmlns="http://www.w3.org/2000/svg" xmlns:xlink="http://www.w3.org/1999/xlink" width="400" zoomAndPan="magnify" viewBox="0 0 300 299.999988" height="400" preserveAspectRatio="xMidYMid meet" version="1.0"><path fill="#a9a0f0" d="M 38.722656 175.910156 C 29.980469 199.144531 46.960938 221.847656 66.230469 233.226562 C 87.613281 245.851562 113.582031 248.960938 137.957031 246.625 C 182.21875 242.382812 225.472656 219 249.414062 180.894531 C 262.875 159.464844 269.992188 129.441406 253.421875 107.695312 C 256.519531 105.644531 258.246094 102.675781 256.660156 98.558594 C 255.671875 96.113281 254.210938 93.988281 252.277344 92.191406 C 250.09375 90.128906 247.492188 89.101562 244.984375 87.558594 C 241.550781 85.445312 241.746094 81.765625 242.164062 78.160156 C 242.613281 74.316406 243.664062 70.507812 243.628906 66.613281 C 243.589844 61.925781 241.734375 56.511719 237.46875 54.039062 C 232.300781 51.042969 226.792969 54.097656 222.957031 57.777344 C 220.765625 59.878906 218.890625 62.386719 216.332031 64.070312 C 212.960938 66.289062 209.195312 66.007812 205.738281 64.132812 C 202.304688 62.265625 200.691406 58.980469 197.703125 56.742188 C 195.34375 54.96875 192.390625 55.425781 189.828125 56.507812 C 184.585938 58.726562 180.507812 63.570312 179.820312 69.257812 C 163.378906 64.941406 145.816406 62.894531 129.226562 67.621094 C 125.234375 68.769531 121.390625 70.300781 117.703125 72.207031 C 117.265625 72.414062 116.976562 72.746094 116.835938 73.207031 C 110.335938 75.300781 103.988281 77.777344 97.792969 80.644531 C 90.695312 83.910156 83.308594 87.375 77.359375 92.527344 C 74.03125 95.332031 71.605469 98.773438 70.082031 102.851562 C 69.300781 104.542969 68.707031 106.296875 68.300781 108.113281 C 65.40625 106.058594 62.171875 104.257812 58.542969 104.289062 C 57.6875 104.3125 56.851562 104.4375 56.03125 104.667969 C 55.207031 104.894531 54.425781 105.222656 53.683594 105.644531 C 52.941406 106.0625 52.261719 106.570312 51.644531 107.15625 C 51.027344 107.746094 50.488281 108.402344 50.03125 109.121094 C 47.761719 112.570312 47.542969 116.910156 48.570312 120.820312 C 49.550781 124.574219 54.929688 132.976562 47.195312 132.273438 C 39.28125 131.558594 33.894531 137.957031 34.871094 145.757812 C 35.144531 147.753906 35.71875 149.65625 36.589844 151.46875 C 37.679688 153.8125 39.46875 156.269531 39.59375 158.933594 C 39.765625 162.640625 36.019531 165.171875 34.96875 168.515625 C 33.695312 172.558594 35.621094 174.757812 38.722656 175.910156 Z M 250.019531 173.8125 C 239.671875 192.59375 224.113281 208.304688 206.152344 219.882812 C 197.199219 225.613281 187.753906 230.367188 177.820312 234.140625 C 167.882812 237.914062 157.664062 240.632812 147.164062 242.289062 C 124.667969 245.890625 100.570312 244.855469 79.289062 236.210938 C 55.78125 226.660156 32.902344 203.976562 40.742188 176.488281 C 41.65625 176.679688 42.578125 176.816406 43.507812 176.902344 C 42.679688 183.238281 41.207031 190.835938 44.496094 196.515625 C 44.984375 197.359375 46.152344 196.621094 45.773438 195.765625 C 43.332031 190.257812 44.96875 183.046875 45.476562 177.023438 C 47.558594 177.089844 49.640625 177.035156 51.71875 176.863281 C 51.609375 181.941406 52.191406 186.992188 53.921875 191.691406 C 57.402344 201.144531 64.894531 205.695312 73.425781 210.140625 C 82.71875 214.984375 92.3125 219.753906 102.644531 221.921875 C 109.316406 223.304688 116.011719 223.429688 122.730469 222.292969 C 124.289062 223.140625 126.484375 223.492188 127.8125 223.707031 C 131.449219 224.296875 135.210938 224.285156 138.886719 224.320312 C 146.695312 224.394531 154.84375 223.847656 161.839844 220.066406 C 162.570312 219.667969 162.0625 218.363281 161.261719 218.691406 C 154.394531 221.488281 147.273438 222.277344 139.90625 222.226562 C 136.6875 222.207031 133.441406 222.140625 130.230469 221.933594 C 129.027344 221.878906 127.835938 221.734375 126.652344 221.503906 C 128.75 221.007812 130.8125 220.402344 132.847656 219.691406 C 138.320312 217.710938 143.582031 215.277344 148.632812 212.386719 C 153.613281 209.59375 159.003906 206.707031 163.3125 202.929688 C 163.476562 202.789062 163.601562 202.621094 163.691406 202.421875 C 165.246094 201.585938 166.726562 200.5625 168.183594 199.632812 C 169.984375 198.480469 172.207031 197.40625 173.683594 195.796875 C 176.964844 198.664062 180.691406 200.722656 184.867188 201.96875 C 187.421875 202.710938 190.027344 203.089844 192.683594 203.109375 C 190.914062 204.1875 189.164062 205.304688 187.410156 206.1875 C 183.269531 208.273438 178.972656 210.003906 174.835938 212.089844 C 174.234375 212.394531 174.667969 213.273438 175.277344 213.136719 C 179.78125 212.128906 183.925781 210.351562 188.082031 208.355469 C 191.421875 206.75 195.667969 205.027344 198.660156 202.558594 C 202.945312 201.730469 206.839844 200.015625 210.347656 197.414062 C 216.515625 192.808594 220.765625 185.964844 222.882812 178.613281 C 223.632812 176 224.113281 173.332031 224.324219 170.621094 C 224.363281 170.65625 224.40625 170.6875 224.449219 170.714844 C 224.464844 170.730469 224.484375 170.738281 224.503906 170.75 C 224.519531 171.058594 224.625 171.332031 224.824219 171.566406 C 225.027344 171.800781 225.277344 171.949219 225.582031 172.011719 C 239.457031 175.875 250.210938 159.996094 250.457031 147.917969 C 250.515625 144.890625 250.199219 141.207031 248.816406 138.457031 C 247.832031 136.488281 246.105469 136.261719 244.277344 136.519531 C 246.386719 132.078125 246.34375 127.21875 245.152344 122.214844 C 244.40625 119.074219 243.03125 114.96875 245.46875 112.214844 C 246.78125 110.730469 248.839844 109.960938 250.664062 109.160156 C 264.75 128.671875 261.117188 153.667969 250.019531 173.8125 Z M 55.0625 174.050781 C 55.09375 173.539062 55.128906 173.027344 55.167969 172.515625 C 59.335938 180 68.398438 186.304688 74.71875 189.535156 C 88.503906 196.578125 104.816406 198.601562 120.058594 196.492188 C 124.355469 195.921875 128.535156 194.875 132.59375 193.347656 C 136.652344 191.820312 140.480469 189.851562 144.085938 187.441406 C 151.539062 182.441406 158.472656 176.601562 165.558594 171.109375 C 173.277344 165.125 180.992188 159.144531 188.710938 153.160156 C 195.066406 148.234375 201.523438 143.285156 206.449219 136.855469 C 211.570312 130.160156 214.191406 122.15625 216.101562 114.042969 C 217.140625 109.636719 218.015625 105.085938 218.167969 100.535156 C 219.511719 104.996094 220.382812 109.546875 220.78125 114.1875 C 221.039062 117.449219 221.070312 120.714844 220.871094 123.984375 C 220.820312 124.023438 220.777344 124.070312 220.742188 124.125 C 218.027344 128.667969 215.882812 133.550781 213.121094 138.089844 C 212.734375 138.722656 213.703125 139.273438 214.109375 138.667969 C 216.382812 135.273438 218.746094 131.710938 220.523438 127.953125 C 219.921875 133.171875 218.765625 138.269531 217.0625 143.238281 C 216.105469 143.511719 215.144531 143.773438 214.191406 144.054688 C 211.144531 144.957031 205.949219 145.394531 204.9375 149.027344 C 203.832031 153.003906 205.097656 158.578125 206.566406 162.3125 C 206.714844 162.710938 206.984375 162.984375 207.378906 163.136719 C 202.632812 165.355469 197.902344 167.605469 193.1875 169.894531 C 190.367188 171.265625 187.554688 172.652344 184.746094 174.054688 C 186.613281 172.523438 188.578125 171.121094 190.59375 169.730469 C 190.734375 169.640625 190.828125 169.511719 190.867188 169.347656 C 190.90625 169.183594 190.886719 169.027344 190.800781 168.878906 C 190.714844 168.734375 190.589844 168.636719 190.425781 168.59375 C 190.261719 168.546875 190.105469 168.5625 189.957031 168.644531 C 186.273438 170.566406 183.039062 173.347656 180.167969 176.332031 C 176.003906 178.394531 171.382812 180.296875 167.628906 183.011719 C 167.488281 183.121094 167.367188 183.253906 167.273438 183.40625 C 167.179688 183.5625 167.117188 183.726562 167.085938 183.90625 C 167.054688 184.082031 167.054688 184.261719 167.089844 184.4375 C 167.125 184.617188 167.191406 184.78125 167.285156 184.933594 C 167.109375 185.089844 166.996094 185.285156 166.941406 185.515625 C 166.886719 185.746094 166.90625 185.96875 167 186.1875 C 167.371094 187.277344 167.839844 188.324219 168.398438 189.328125 C 162.648438 192.597656 156.910156 195.890625 151.183594 199.199219 C 151.035156 199.292969 150.941406 199.425781 150.898438 199.597656 C 150.855469 199.769531 150.878906 199.929688 150.96875 200.082031 C 151.058594 200.234375 151.1875 200.332031 151.355469 200.378906 C 151.523438 200.425781 151.6875 200.410156 151.839844 200.324219 C 157.613281 197.082031 163.375 193.824219 169.125 190.542969 C 169.851562 191.675781 170.671875 192.742188 171.582031 193.738281 C 169.714844 194.660156 167.988281 196.285156 166.339844 197.410156 C 164.730469 198.511719 162.972656 199.515625 161.417969 200.726562 C 157.265625 202.707031 153.472656 205.558594 149.5 207.875 C 145.464844 210.257812 141.300781 212.394531 137.011719 214.28125 C 128.066406 218.136719 118.351562 220.371094 108.585938 219.292969 C 98.746094 218.210938 89.480469 214.253906 80.695312 209.882812 C 72.597656 205.847656 62.921875 202.058594 58.441406 193.675781 C 56.824219 190.605469 55.789062 187.347656 55.339844 183.910156 C 56.082031 185.261719 56.964844 186.515625 57.980469 187.679688 C 58.996094 188.839844 60.125 189.878906 61.363281 190.800781 C 62.601562 191.71875 63.925781 192.496094 65.332031 193.132812 C 66.738281 193.765625 68.195312 194.246094 69.703125 194.566406 C 69.894531 194.613281 70.074219 194.585938 70.246094 194.484375 C 70.414062 194.386719 70.523438 194.242188 70.578125 194.050781 C 70.628906 193.859375 70.609375 193.679688 70.515625 193.507812 C 70.421875 193.335938 70.28125 193.21875 70.09375 193.160156 C 68.269531 192.492188 66.550781 191.621094 64.933594 190.542969 C 63.320312 189.464844 61.855469 188.210938 60.539062 186.785156 C 59.222656 185.355469 58.09375 183.792969 57.148438 182.097656 C 56.207031 180.398438 55.476562 178.613281 54.960938 176.742188 C 54.964844 176.46875 54.96875 176.191406 54.980469 175.917969 C 55.164062 175.636719 55.261719 175.328125 55.277344 174.996094 C 55.292969 174.660156 55.222656 174.34375 55.0625 174.050781 Z M 240.914062 118.238281 C 241.019531 119.039062 241.179688 119.832031 241.359375 120.617188 C 237.449219 122.304688 233.640625 124.226562 229.601562 125.613281 C 229.453125 125.65625 229.34375 125.75 229.269531 125.882812 C 229.195312 126.019531 229.179688 126.164062 229.222656 126.3125 C 229.261719 126.460938 229.347656 126.574219 229.480469 126.652344 C 229.613281 126.730469 229.757812 126.753906 229.90625 126.71875 C 233.960938 125.601562 238.066406 124.449219 241.835938 122.550781 C 242.300781 124.195312 242.628906 125.867188 242.816406 127.5625 C 242.9375 129.316406 242.769531 131.042969 242.304688 132.738281 C 241.839844 134.433594 241.109375 136.003906 240.105469 137.449219 C 233.617188 138.851562 227.164062 140.433594 220.757812 142.1875 C 222.875 135.4375 223.960938 128.523438 224.011719 121.445312 C 228.027344 120.503906 231.976562 118.652344 235.707031 116.914062 C 237.339844 116.152344 239.191406 115.363281 240.976562 114.449219 C 240.753906 115.710938 240.734375 116.972656 240.914062 118.238281 Z M 223.949219 162.078125 C 228.757812 164.25 234.019531 162.246094 238.484375 160.078125 C 241.226562 158.746094 244.019531 157.253906 246.082031 155.097656 C 245.621094 156.476562 245.042969 157.804688 244.34375 159.082031 C 240.765625 165.578125 234.003906 170.359375 226.378906 169.113281 C 226.183594 169.082031 225.992188 169.085938 225.796875 169.121094 C 225.683594 169.066406 225.578125 169.007812 225.480469 168.949219 C 225.351562 168.878906 225.214844 168.835938 225.070312 168.824219 C 225.019531 168.789062 224.964844 168.765625 224.917969 168.726562 C 224.777344 168.613281 224.617188 168.570312 224.4375 168.59375 C 224.453125 168.035156 224.460938 167.476562 224.453125 166.921875 C 224.476562 165.285156 224.308594 163.671875 223.949219 162.078125 Z M 237.785156 157.917969 C 233.472656 160.074219 229.167969 161.726562 224.367188 160.269531 C 224.1875 160.214844 224.007812 160.21875 223.828125 160.285156 C 223.652344 160.347656 223.511719 160.460938 223.410156 160.617188 C 223.050781 159.84375 222.507812 159.230469 221.78125 158.78125 C 221.699219 158.527344 221.570312 158.300781 221.390625 158.101562 C 221.210938 157.90625 221 157.753906 220.75 157.652344 C 220.503906 157.550781 220.25 157.503906 219.980469 157.515625 C 219.714844 157.527344 219.464844 157.59375 219.226562 157.714844 L 219.214844 157.675781 C 218.890625 157.824219 218.570312 157.972656 218.246094 158.121094 C 217.40625 156.46875 215.246094 155.441406 213.949219 154.109375 C 212.320312 152.429688 211.09375 150.511719 209.757812 148.621094 C 209.765625 148.617188 209.769531 148.613281 209.777344 148.609375 C 211.476562 147.753906 213.714844 147.414062 215.539062 146.882812 C 217.636719 146.273438 219.742188 145.683594 221.855469 145.109375 C 225.722656 144.058594 229.609375 143.070312 233.507812 142.136719 C 235.636719 141.628906 237.769531 141.140625 239.90625 140.671875 C 240.171875 140.613281 240.515625 140.519531 240.902344 140.40625 C 241.261719 140.421875 241.589844 140.328125 241.886719 140.128906 C 243.328125 139.730469 244.976562 139.363281 245.707031 139.84375 C 247.769531 141.207031 247.433594 146.9375 247.277344 149.164062 C 247.273438 149.238281 247.261719 149.3125 247.257812 149.382812 C 246.863281 149.492188 246.609375 149.746094 246.496094 150.136719 C 245.226562 154.128906 241.296875 156.164062 237.785156 157.917969 Z M 209.164062 161.597656 C 208.441406 158.710938 206.46875 152.738281 208.425781 149.808594 C 209.285156 151.808594 210.457031 153.609375 211.9375 155.207031 C 212.945312 156.34375 214.597656 158.277344 216.277344 159.027344 C 213.90625 160.117188 211.539062 161.210938 209.167969 162.304688 C 209.226562 162.070312 209.226562 161.832031 209.164062 161.597656 Z M 219.417969 161.460938 C 219.945312 162.425781 220.300781 163.457031 220.480469 164.542969 C 220.632812 166.140625 220.648438 167.738281 220.527344 169.335938 C 220.34375 172.40625 219.792969 175.410156 218.867188 178.347656 C 216.957031 184.503906 213.371094 190.292969 208.191406 194.214844 C 206.644531 195.367188 204.988281 196.332031 203.226562 197.117188 C 201.464844 197.898438 199.640625 198.476562 197.75 198.851562 C 195.859375 199.222656 193.949219 199.382812 192.023438 199.332031 C 190.09375 199.28125 188.199219 199.015625 186.332031 198.539062 C 178.679688 196.578125 173.78125 191.414062 169.417969 185.167969 C 169.402344 185.144531 169.382812 185.128906 169.367188 185.105469 C 173.4375 183.675781 177.34375 181.359375 181.207031 179.476562 C 185.601562 177.335938 190.007812 175.21875 194.425781 173.125 C 202.734375 169.183594 211.050781 165.273438 219.417969 161.460938 Z M 219.503906 65.761719 C 219.785156 65.542969 220.070312 65.320312 220.34375 65.082031 C 223.996094 61.949219 228.394531 55.050781 233.964844 56.242188 C 229.675781 60.949219 226.019531 66.542969 222.25 71.621094 C 221.722656 72.332031 222.917969 73.265625 223.484375 72.574219 C 227.621094 67.535156 232.339844 62.476562 235.910156 56.980469 C 240.375 59.457031 240.480469 65.84375 239.921875 70.605469 C 239.628906 70.75 239.425781 70.976562 239.3125 71.28125 C 237.867188 75.019531 236.613281 78.1875 234.210938 81.457031 C 231.789062 84.761719 229.007812 87.761719 226.519531 91.003906 C 225.746094 92.007812 227.328125 93.011719 228.175781 92.28125 C 231.558594 89.363281 234.453125 85.648438 237.054688 82.023438 C 237.539062 81.347656 238.042969 80.628906 238.53125 79.878906 C 238.308594 82.804688 238.585938 85.691406 240.289062 87.964844 C 241.578125 89.683594 243.511719 90.632812 245.375 91.585938 C 245.824219 91.816406 246.261719 92.0625 246.691406 92.3125 C 245.402344 92.464844 244.074219 93.039062 242.933594 93.453125 C 241.035156 94.183594 239.238281 95.105469 237.539062 96.226562 C 237.367188 96.332031 237.257812 96.484375 237.207031 96.683594 C 237.160156 96.878906 237.1875 97.066406 237.289062 97.242188 C 237.390625 97.417969 237.539062 97.53125 237.734375 97.585938 C 237.929688 97.640625 238.117188 97.621094 238.296875 97.523438 C 240.097656 96.683594 241.945312 95.96875 243.839844 95.371094 C 245.359375 94.875 247.253906 94.800781 248.535156 93.839844 C 248.597656 93.789062 248.65625 93.730469 248.707031 93.664062 C 250.03125 94.660156 251.160156 95.839844 252.09375 97.203125 C 252.277344 97.480469 252.460938 97.765625 252.632812 98.058594 C 249.417969 98.15625 245.847656 99.839844 242.9375 100.972656 C 239.660156 102.25 236.003906 103.566406 233.207031 105.71875 C 232.515625 106.25 232.863281 107.574219 233.859375 107.257812 C 237.34375 106.148438 240.59375 104.273438 244.046875 103.023438 C 247.066406 101.925781 250.699219 101.445312 253.507812 99.898438 C 254.046875 101.476562 253.976562 103.082031 252.4375 104.351562 C 250.898438 105.621094 248.828125 106.238281 247.058594 107.109375 C 245.820312 107.703125 244.703125 108.46875 243.707031 109.410156 C 240.601562 110.601562 237.628906 112.722656 234.722656 114.171875 C 231.199219 115.925781 227.496094 117.359375 223.996094 119.148438 C 223.949219 117.179688 223.820312 115.210938 223.617188 113.238281 C 222.71875 104.730469 220.46875 95.691406 216.136719 88.101562 C 214.621094 84.753906 212.363281 82.019531 209.363281 79.898438 C 212.816406 75.242188 216.167969 70.507812 219.503906 65.761719 Z M 185.742188 62.914062 C 187.613281 60.890625 191.160156 58.175781 194.132812 58.503906 C 196.820312 58.804688 198.683594 62.53125 200.566406 64.203125 C 202.4375 65.914062 204.558594 67.214844 206.933594 68.101562 C 208.257812 68.585938 209.625 68.835938 211.035156 68.84375 C 212.445312 68.851562 213.816406 68.621094 215.148438 68.152344 C 212.460938 71.597656 209.714844 74.996094 206.90625 78.347656 C 206.3125 78.023438 205.695312 77.71875 205.0625 77.4375 C 197.714844 74.148438 189.679688 71.902344 181.890625 69.808594 C 182.75 67.320312 183.941406 64.859375 185.742188 62.914062 Z M 76.667969 98.515625 C 81.714844 92.222656 89.601562 88.445312 96.671875 84.945312 C 103.835938 81.445312 111.164062 78.34375 118.664062 75.636719 C 118.988281 75.644531 119.292969 75.574219 119.582031 75.421875 C 119.898438 75.261719 120.214844 75.105469 120.535156 74.953125 C 121.496094 74.605469 122.460938 74.261719 123.425781 73.921875 C 123.730469 73.820312 123.96875 73.628906 124.132812 73.351562 C 137.824219 67.816406 153.140625 67.753906 167.570312 70.421875 C 175.703125 71.929688 183.667969 74.226562 191.527344 76.773438 C 198.480469 79.023438 207.46875 80.917969 211.527344 87.664062 C 215.011719 93.46875 214.550781 100.933594 213.4375 107.347656 C 212.160156 114.691406 210.289062 122.320312 206.796875 128.945312 C 203.203125 135.765625 197.574219 141.03125 191.644531 145.820312 C 185.078125 151.128906 178.316406 156.210938 171.640625 161.382812 C 164.816406 166.675781 157.988281 171.964844 151.160156 177.257812 C 144.675781 182.285156 138.128906 187.3125 130.285156 190.019531 C 116.078125 194.925781 99.492188 194.191406 85.316406 189.535156 C 78.539062 187.382812 72.398438 184.0625 66.886719 179.566406 C 61.851562 175.359375 54.695312 168.234375 57.699219 160.980469 C 59.488281 156.660156 64.019531 153.941406 67.710938 151.425781 C 71.414062 148.90625 75.386719 146.292969 77.792969 142.414062 C 81.640625 136.222656 78.8125 129.867188 76.121094 123.84375 C 72.441406 115.613281 70.570312 106.113281 76.667969 98.515625 Z M 68.40625 124.960938 C 68.761719 122.367188 69.191406 119.78125 69.675781 117.207031 C 70.203125 119.371094 70.890625 121.480469 71.738281 123.542969 C 73.308594 127.410156 75.929688 131.398438 75.835938 135.714844 C 75.722656 140.9375 71.03125 144.339844 67.042969 147.058594 C 66.992188 142.183594 67.171875 137.3125 67.578125 132.453125 C 67.640625 132.289062 67.652344 132.121094 67.625 131.949219 C 67.832031 129.617188 68.085938 127.285156 68.40625 124.960938 Z M 53.558594 109.722656 C 57.722656 105.207031 63.386719 108.210938 67.664062 111.003906 C 67.527344 111.660156 67.394531 112.3125 67.257812 112.953125 C 66.4375 116.789062 65.816406 120.652344 65.335938 124.546875 C 65.066406 126.714844 64.855469 128.886719 64.695312 131.066406 C 62.167969 131.128906 59.425781 131.964844 57.074219 132.238281 C 56.058594 132.355469 55.039062 132.457031 54.023438 132.550781 C 55.15625 130.214844 54.570312 127.226562 53.589844 124.894531 C 51.546875 120.039062 49.4375 114.195312 53.558594 109.722656 Z M 42.210938 162.527344 C 43.914062 158.40625 41.894531 154.746094 40.082031 151.089844 C 37.792969 146.472656 36.570312 140.101562 41.484375 136.621094 C 44.691406 134.347656 48.714844 136.671875 51.882812 134.859375 C 53.796875 134.800781 55.707031 134.699219 57.617188 134.554688 C 59.695312 134.394531 62.261719 134.457031 64.507812 133.960938 C 64.238281 138.910156 64.214844 143.863281 64.4375 148.828125 C 60.824219 151.265625 57.128906 153.882812 54.894531 157.660156 C 54.167969 158.84375 53.640625 160.105469 53.304688 161.453125 C 52.972656 162.800781 52.855469 164.164062 52.945312 165.546875 C 52.449219 168.214844 52.09375 170.902344 51.878906 173.609375 C 49.648438 173.785156 47.417969 173.835938 45.183594 173.75 C 43.183594 173.667969 40.023438 173.777344 38.574219 172.128906 C 36.25 169.480469 41.222656 164.914062 42.210938 162.527344 Z M 190.589844 189.898438 C 187.214844 189.777344 184.386719 188.207031 181.875 186.03125 C 180.90625 185.191406 182.222656 183.484375 183.246094 184.253906 C 185.613281 186.023438 188.316406 187.210938 190.980469 188.457031 C 191.683594 188.785156 191.324219 189.925781 190.589844 189.898438 Z M 193.085938 181.566406 C 194.089844 182.054688 194.835938 182.972656 195.703125 183.65625 C 196.59375 184.328125 197.445312 185.046875 198.253906 185.816406 C 198.710938 186.269531 198.410156 187.285156 197.683594 187.195312 C 195.332031 186.902344 192.335938 185.09375 191.636719 182.683594 C 191.589844 182.488281 191.597656 182.300781 191.664062 182.113281 C 191.730469 181.925781 191.839844 181.773438 192 181.652344 C 192.15625 181.53125 192.332031 181.464844 192.53125 181.449219 C 192.726562 181.433594 192.914062 181.472656 193.085938 181.566406 Z M 199.558594 176.679688 C 200.675781 176.949219 201.566406 177.175781 202.472656 177.945312 C 203.269531 178.648438 203.867188 179.496094 204.269531 180.484375 C 204.640625 181.339844 203.679688 182.21875 202.929688 181.519531 C 202.296875 180.949219 201.632812 180.421875 200.9375 179.933594 C 200.269531 179.375 199.574219 178.851562 198.851562 178.359375 C 198.660156 178.242188 198.527344 178.074219 198.460938 177.855469 C 198.390625 177.640625 198.402344 177.425781 198.488281 177.21875 C 198.578125 177.007812 198.722656 176.851562 198.925781 176.75 C 199.128906 176.648438 199.339844 176.625 199.558594 176.679688 Z M 207.039062 173.613281 C 206.65625 172.503906 208.40625 171.78125 208.925781 172.816406 C 209.28125 173.402344 209.71875 173.917969 210.238281 174.363281 C 210.734375 174.828125 211.277344 175.222656 211.867188 175.550781 C 212.019531 175.648438 212.128906 175.777344 212.195312 175.945312 C 212.261719 176.113281 212.269531 176.285156 212.222656 176.457031 C 212.175781 176.628906 212.082031 176.773438 211.941406 176.882812 C 211.800781 176.996094 211.640625 177.054688 211.460938 177.058594 C 210.441406 177.097656 209.523438 176.808594 208.710938 176.191406 C 207.875 175.511719 207.320312 174.652344 207.039062 173.613281 Z M 228.828125 153.050781 C 228.871094 153.226562 228.855469 153.394531 228.785156 153.5625 C 228.714844 153.730469 228.601562 153.855469 228.445312 153.949219 C 228.289062 154.039062 228.121094 154.074219 227.941406 154.054688 C 227.761719 154.03125 227.605469 153.960938 227.476562 153.835938 C 226.847656 153.28125 226.320312 152.625 225.691406 152.070312 C 225.058594 151.511719 224.539062 150.851562 223.886719 150.324219 C 223.054688 149.644531 224.121094 148.566406 224.949219 148.945312 C 225.882812 149.292969 226.6875 149.832031 227.363281 150.558594 C 228.039062 151.28125 228.527344 152.109375 228.828125 153.050781 Z M 235.140625 149.242188 C 235.242188 149.414062 235.277344 149.597656 235.253906 149.796875 C 235.226562 149.992188 235.144531 150.160156 235.003906 150.304688 C 234.859375 150.4375 234.691406 150.519531 234.496094 150.542969 C 234.300781 150.570312 234.117188 150.535156 233.941406 150.441406 C 233.675781 150.316406 233.363281 150.277344 233.09375 150.125 C 232.890625 150.007812 232.691406 149.863281 232.496094 149.726562 C 231.960938 149.378906 231.507812 148.941406 231.140625 148.417969 C 231.003906 148.183594 230.953125 147.929688 230.988281 147.664062 C 231.023438 147.394531 231.136719 147.164062 231.324219 146.972656 C 231.519531 146.789062 231.75 146.679688 232.019531 146.644531 C 232.285156 146.609375 232.535156 146.65625 232.769531 146.785156 C 233.304688 147.054688 233.765625 147.414062 234.160156 147.867188 C 234.378906 148.085938 234.582031 148.320312 234.765625 148.570312 C 234.914062 148.785156 234.996094 149.035156 235.140625 149.242188 Z M 48.746094 141.660156 C 50.363281 141.199219 52.105469 141.378906 53.773438 141.203125 C 55.765625 140.992188 57.863281 140.683594 59.824219 140.285156 C 60.613281 140.125 61.210938 141.277344 60.402344 141.660156 C 57.121094 143.222656 52.3125 144.761719 48.746094 143.285156 C 48.019531 142.984375 47.878906 141.90625 48.746094 141.660156 Z M 57.472656 148.101562 C 55.390625 148.738281 53.277344 148.886719 51.128906 148.535156 C 50.15625 148.390625 50.40625 146.792969 51.359375 146.839844 C 53.339844 146.941406 55.316406 146.921875 57.292969 146.777344 C 58.078125 146.714844 58.171875 147.894531 57.472656 148.101562 Z M 87.464844 129.8125 C 90.574219 126.484375 93.691406 123.171875 96.824219 119.867188 C 97.503906 119.976562 98.179688 120.089844 98.84375 120.210938 C 102.546875 120.898438 106.25 121.550781 109.957031 122.1875 C 113.710938 122.832031 117.464844 123.460938 121.222656 124.074219 C 116.960938 129.175781 112.773438 134.339844 108.671875 139.5625 C 108.433594 139.523438 108.199219 139.476562 107.960938 139.433594 C 105.386719 138.976562 102.808594 138.539062 100.226562 138.121094 C 97.785156 137.730469 95.222656 137.035156 92.742188 137.203125 C 92.539062 137.210938 92.363281 137.285156 92.210938 137.421875 C 92.058594 137.558594 91.972656 137.726562 91.945312 137.929688 C 91.917969 138.128906 91.957031 138.316406 92.066406 138.488281 C 92.175781 138.660156 92.328125 138.777344 92.523438 138.835938 C 94.898438 139.785156 97.660156 139.933594 100.1875 140.371094 C 102.492188 140.769531 104.796875 141.175781 107.101562 141.582031 C 104.214844 145.292969 101.375 149.039062 98.578125 152.8125 C 94.792969 152.21875 91.003906 151.710938 87.214844 151.40625 C 86.222656 151.328125 86.003906 152.9375 86.980469 153.148438 C 90.28125 153.863281 93.613281 154.453125 96.960938 154.996094 C 95.570312 156.894531 94.1875 158.804688 92.820312 160.722656 C 92.164062 161.640625 93.652344 162.457031 94.3125 161.59375 C 95.917969 159.503906 97.527344 157.417969 99.140625 155.339844 C 104.242188 156.136719 109.363281 156.855469 114.429688 157.742188 C 117.394531 158.257812 120.359375 158.804688 123.320312 159.351562 C 119.683594 163.355469 116.085938 167.394531 112.53125 171.464844 C 111.835938 172.265625 112.976562 173.433594 113.707031 172.640625 C 117.667969 168.347656 121.628906 164.058594 125.589844 159.769531 C 131.011719 160.765625 136.433594 161.75 141.882812 162.570312 C 142.882812 162.722656 143.347656 161.269531 142.3125 161.011719 C 137.375 159.785156 132.386719 158.765625 127.382812 157.828125 C 130.542969 154.417969 133.714844 151.019531 136.894531 147.628906 C 142.578125 148.917969 148.269531 150.191406 154.007812 151.179688 C 154.230469 151.230469 154.4375 151.199219 154.632812 151.085938 C 154.828125 150.96875 154.953125 150.800781 155.015625 150.582031 C 155.074219 150.363281 155.050781 150.15625 154.941406 149.957031 C 154.835938 149.757812 154.671875 149.625 154.457031 149.554688 C 149.367188 147.929688 144.152344 146.636719 138.902344 145.484375 C 143.636719 140.460938 148.40625 135.472656 153.21875 130.523438 C 153.65625 130.078125 154.097656 129.636719 154.535156 129.191406 C 162.371094 130.328125 170.214844 131.429688 178.058594 132.496094 C 178.230469 132.535156 178.398438 132.539062 178.570312 132.503906 C 178.742188 132.472656 178.898438 132.40625 179.042969 132.308594 C 179.1875 132.210938 179.304688 132.085938 179.394531 131.9375 C 179.488281 131.789062 179.542969 131.628906 179.566406 131.453125 C 179.589844 131.28125 179.578125 131.109375 179.53125 130.945312 C 179.480469 130.777344 179.402344 130.625 179.289062 130.492188 C 179.175781 130.359375 179.042969 130.253906 178.886719 130.175781 C 178.730469 130.097656 178.566406 130.058594 178.390625 130.050781 C 171.105469 129.136719 163.824219 128.167969 156.554688 127.148438 C 161.644531 121.96875 166.777344 116.835938 171.953125 111.742188 C 179.765625 112.617188 187.578125 113.476562 195.390625 114.320312 C 196.914062 114.484375 196.894531 112.109375 195.390625 111.941406 C 188.296875 111.148438 181.199219 110.378906 174.097656 109.632812 C 177.035156 106.785156 180.109375 103.992188 183.136719 101.15625 C 188.242188 101.875 193.382812 102.546875 198.492188 102.585938 C 199.363281 102.59375 199.578125 101.238281 198.699219 101.042969 C 194.300781 100.128906 189.863281 99.457031 185.390625 99.023438 C 188.488281 96.109375 191.414062 93.035156 194.171875 89.796875 C 194.6875 89.179688 193.988281 88.011719 193.230469 88.578125 C 189.226562 91.664062 185.453125 95.011719 181.910156 98.621094 C 180.941406 98.507812 179.976562 98.390625 179.011719 98.265625 C 171.699219 97.304688 164.394531 96.285156 157.097656 95.214844 C 154.84375 94.882812 152.589844 94.535156 150.339844 94.179688 C 153.207031 91.054688 156.105469 87.953125 159.035156 84.875 C 165.277344 86.1875 171.578125 87.058594 177.941406 87.496094 C 178.769531 87.542969 178.960938 86.207031 178.136719 86.039062 C 172.371094 84.871094 166.546875 83.996094 160.722656 83.117188 C 161.550781 82.253906 162.371094 81.390625 163.203125 80.53125 C 164.070312 79.636719 162.707031 78.273438 161.839844 79.164062 C 160.683594 80.359375 159.527344 81.558594 158.378906 82.757812 C 155.230469 82.28125 152.085938 81.789062 148.953125 81.234375 C 148.058594 81.074219 147.660156 82.414062 148.574219 82.621094 C 151.300781 83.238281 154.039062 83.847656 156.789062 84.417969 C 153.824219 87.523438 150.875 90.648438 147.949219 93.800781 C 140.800781 92.65625 133.660156 91.449219 126.511719 90.3125 C 128.816406 88.265625 131.085938 86.152344 132.835938 83.78125 C 133.292969 83.164062 132.414062 82.363281 131.808594 82.75 C 128.898438 84.601562 126.296875 87.261719 123.789062 89.875 C 121.035156 89.449219 118.28125 89.035156 115.527344 88.636719 C 114.542969 88.496094 114.074219 89.945312 115.101562 90.175781 C 117.417969 90.695312 119.742188 91.191406 122.074219 91.65625 C 121.53125 92.214844 120.992188 92.761719 120.449219 93.289062 C 117.480469 96.175781 114.539062 99.089844 111.625 102.027344 C 105.367188 100.84375 99.160156 99.429688 92.878906 98.398438 C 92.722656 98.363281 92.574219 98.382812 92.4375 98.464844 C 92.300781 98.546875 92.210938 98.667969 92.167969 98.820312 C 92.125 98.976562 92.140625 99.125 92.21875 99.265625 C 92.292969 99.40625 92.410156 99.5 92.5625 99.546875 C 98.136719 101.488281 104.046875 102.703125 109.941406 103.71875 C 109.570312 104.09375 109.195312 104.464844 108.824219 104.839844 C 104.585938 109.136719 100.40625 113.492188 96.277344 117.894531 C 93.519531 117.382812 90.722656 116.820312 87.964844 116.757812 C 87.8125 116.761719 87.679688 116.816406 87.566406 116.917969 C 87.457031 117.019531 87.390625 117.144531 87.367188 117.296875 C 87.347656 117.445312 87.378906 117.585938 87.460938 117.710938 C 87.542969 117.839844 87.65625 117.925781 87.800781 117.972656 C 90.074219 118.683594 92.394531 119.203125 94.753906 119.53125 C 91.933594 122.570312 89.144531 125.636719 86.386719 128.730469 C 85.738281 129.460938 86.789062 130.535156 87.464844 129.8125 Z M 125.09375 157.40625 C 121.546875 156.761719 117.996094 156.15625 114.445312 155.550781 C 109.929688 154.78125 105.386719 153.925781 100.824219 153.171875 C 103.730469 149.441406 106.652344 145.730469 109.597656 142.035156 C 114.175781 142.867188 118.75 143.738281 123.316406 144.652344 C 127.097656 145.410156 130.867188 146.257812 134.632812 147.113281 C 131.429688 150.523438 128.25 153.953125 125.09375 157.40625 Z M 136.621094 145 C 132.203125 144.066406 127.769531 143.210938 123.375 142.335938 C 119.324219 141.527344 115.265625 140.757812 111.199219 140.027344 C 115.375 134.808594 119.601562 129.632812 123.871094 124.5 C 126.847656 124.980469 129.824219 125.457031 132.800781 125.925781 C 139.230469 126.929688 145.664062 127.898438 152.105469 128.832031 C 146.914062 134.1875 141.753906 139.578125 136.621094 145 Z M 154.089844 126.800781 C 146.8125 125.777344 139.542969 124.710938 132.277344 123.601562 C 130.015625 123.257812 127.757812 122.910156 125.496094 122.558594 C 129.644531 117.601562 133.847656 112.691406 138.101562 107.828125 C 139.636719 108.015625 141.171875 108.203125 142.707031 108.386719 C 151.546875 109.429688 160.390625 110.449219 169.238281 111.441406 C 164.15625 116.527344 159.105469 121.648438 154.089844 126.800781 Z M 148.492188 96.195312 C 151.347656 96.628906 154.199219 97.0625 157.050781 97.488281 C 163.621094 98.472656 170.199219 99.398438 176.789062 100.269531 C 177.804688 100.40625 178.824219 100.546875 179.847656 100.691406 C 177.308594 103.265625 174.808594 105.867188 172.296875 108.371094 C 171.972656 108.691406 171.65625 109.015625 171.332031 109.335938 C 162.15625 108.363281 152.980469 107.382812 143.804688 106.398438 C 142.453125 106.253906 141.101562 106.097656 139.75 105.949219 C 142.636719 102.675781 145.550781 99.421875 148.492188 96.195312 Z M 121.761719 94.601562 C 122.625 93.769531 123.535156 92.949219 124.460938 92.125 C 131.632812 93.519531 138.855469 94.710938 146.082031 95.824219 C 143.082031 99.078125 140.105469 102.355469 137.152344 105.65625 C 130.6875 104.914062 124.234375 104.097656 117.800781 103.101562 C 116.464844 102.894531 115.136719 102.667969 113.804688 102.425781 C 116.441406 99.800781 119.09375 97.195312 121.761719 94.601562 Z M 110.109375 106.121094 C 110.78125 105.441406 111.464844 104.769531 112.144531 104.089844 C 114.054688 104.40625 115.957031 104.707031 117.84375 105.011719 C 123.714844 105.960938 129.605469 106.765625 135.503906 107.507812 C 131.222656 112.332031 127 117.210938 122.84375 122.148438 C 118.542969 121.476562 114.246094 120.800781 109.945312 120.113281 C 106.226562 119.519531 102.503906 118.925781 98.78125 118.332031 C 98.636719 118.308594 98.488281 118.285156 98.34375 118.257812 C 102.230469 114.179688 106.152344 110.132812 110.109375 106.121094 Z M 84.351562 166.503906 C 89.140625 167.335938 93.835938 168.539062 98.4375 170.101562 C 98.640625 170.164062 98.792969 170.289062 98.894531 170.476562 C 98.996094 170.660156 99.015625 170.855469 98.960938 171.058594 C 98.902344 171.265625 98.785156 171.421875 98.601562 171.527344 C 98.421875 171.636719 98.226562 171.664062 98.019531 171.617188 C 93.21875 170.847656 88.507812 169.710938 83.882812 168.210938 C 83.652344 168.140625 83.480469 168 83.367188 167.789062 C 83.253906 167.582031 83.226562 167.359375 83.292969 167.128906 C 83.355469 166.898438 83.488281 166.722656 83.695312 166.601562 C 83.902344 166.480469 84.121094 166.445312 84.351562 166.503906 Z M 173.886719 172.082031 C 175.429688 170.707031 177.171875 169.589844 178.738281 168.238281 C 178.871094 168.113281 179.03125 168.050781 179.21875 168.054688 C 179.402344 168.058594 179.558594 168.125 179.691406 168.253906 C 179.820312 168.386719 179.886719 168.542969 179.890625 168.726562 C 179.894531 168.914062 179.832031 169.074219 179.707031 169.207031 C 178.277344 170.796875 176.765625 172.347656 174.839844 173.316406 C 174.078125 173.699219 173.191406 172.703125 173.886719 172.082031 Z M 74.503906 198.636719 C 73.707031 197.847656 74.875 196.753906 75.710938 197.433594 C 77.882812 199.191406 80.015625 200.589844 82.757812 201.226562 C 82.90625 201.273438 83.027344 201.359375 83.121094 201.484375 C 83.214844 201.609375 83.261719 201.753906 83.261719 201.910156 C 83.261719 202.066406 83.214844 202.207031 83.121094 202.335938 C 83.027344 202.460938 82.90625 202.546875 82.757812 202.59375 C 79.425781 203.328125 76.675781 200.796875 74.503906 198.636719 Z M 109.71875 206.214844 C 114.164062 206.433594 118.609375 206.207031 122.878906 204.855469 C 123.773438 204.574219 124.066406 205.882812 123.253906 206.222656 C 118.78125 208.089844 114.269531 208.785156 109.515625 207.695312 C 109.339844 207.640625 109.203125 207.535156 109.101562 207.378906 C 109.003906 207.222656 108.964844 207.054688 108.988281 206.871094 C 109.015625 206.6875 109.097656 206.535156 109.234375 206.410156 C 109.371094 206.285156 109.53125 206.222656 109.71875 206.214844 Z M 120.175781 210.488281 C 123.808594 209.765625 127.316406 208.648438 130.703125 207.140625 C 131.453125 206.796875 132.109375 207.855469 131.359375 208.265625 C 127.929688 210.183594 124.265625 211.398438 120.367188 211.902344 C 119.554688 212.003906 119.398438 210.65625 120.175781 210.488281 Z M 82.652344 178.011719 C 93.6875 182.882812 105.085938 185.925781 117.238281 185.308594 C 117.992188 185.269531 117.984375 186.433594 117.238281 186.476562 C 109.820312 186.957031 102.515625 186.253906 95.328125 184.363281 C 88.632812 182.554688 82.128906 179.617188 75.914062 176.570312 C 71.234375 174.277344 66.65625 171.011719 65.78125 165.5 C 64.949219 160.25 68.796875 156.191406 73.453125 154.503906 C 74.238281 154.21875 74.6875 155.417969 74.003906 155.816406 C 71.667969 157.183594 68.984375 158.460938 67.636719 160.96875 C 65.957031 164.078125 67.320312 167.78125 69.453125 170.277344 C 72.769531 174.15625 78.113281 176.007812 82.652344 178.011719 Z M 183.867188 143.8125 C 176.351562 152.601562 164.617188 156.253906 155.878906 163.585938 C 151.21875 167.496094 147.15625 172.011719 142.230469 175.625 C 137.5 179.109375 132.386719 181.886719 126.890625 183.957031 C 126.210938 184.214844 125.734375 183.066406 126.394531 182.785156 C 132.195312 180.394531 137.59375 177.300781 142.589844 173.503906 C 147.304688 169.84375 151.195312 165.28125 155.835938 161.546875 C 164.441406 154.628906 174.714844 150.390625 182.851562 142.792969 C 182.992188 142.660156 183.160156 142.597656 183.355469 142.601562 C 183.546875 142.605469 183.714844 142.675781 183.851562 142.8125 C 183.988281 142.949219 184.058594 143.113281 184.0625 143.308594 C 184.0625 143.5 184 143.667969 183.867188 143.8125 Z M 199.292969 130.816406 C 196.789062 133.5625 193.992188 135.96875 190.902344 138.035156 C 190.226562 138.492188 189.605469 137.402344 190.265625 136.949219 C 193.21875 134.886719 195.9375 132.550781 198.421875 129.945312 C 198.976562 129.367188 199.824219 130.230469 199.292969 130.816406 Z M 217.628906 78.554688 C 217.90625 78.304688 218.175781 78.046875 218.460938 77.808594 C 218.75 77.566406 219.070312 77.367188 219.359375 77.125 C 219.484375 77.007812 219.632812 76.953125 219.808594 76.953125 C 219.980469 76.957031 220.125 77.019531 220.25 77.140625 C 220.371094 77.265625 220.433594 77.410156 220.4375 77.585938 C 220.4375 77.757812 220.382812 77.90625 220.265625 78.03125 C 220.023438 78.324219 219.828125 78.644531 219.589844 78.9375 C 219.351562 79.222656 219.097656 79.496094 218.851562 79.777344 C 218.117188 80.613281 216.796875 79.300781 217.628906 78.554688 Z M 233.171875 130.476562 C 234.421875 129.863281 235.703125 129.332031 237.015625 128.878906 C 237.714844 128.65625 238.183594 129.75 237.519531 130.070312 C 236.25 130.640625 234.949219 131.132812 233.621094 131.542969 C 232.996094 131.753906 232.570312 130.75 233.171875 130.476562 Z M 54.800781 211.476562 C 53.550781 210.851562 52.488281 209.996094 51.609375 208.910156 C 50.730469 207.824219 50.117188 206.605469 49.765625 205.253906 C 49.582031 204.589844 50.59375 204.132812 50.894531 204.777344 C 51.945312 207.015625 53.488281 208.832031 55.523438 210.234375 C 55.6875 210.339844 55.792969 210.484375 55.839844 210.671875 C 55.886719 210.859375 55.859375 211.039062 55.761719 211.207031 C 55.664062 211.375 55.523438 211.484375 55.335938 211.535156 C 55.148438 211.589844 54.96875 211.566406 54.800781 211.476562 Z M 49.414062 195.214844 C 49.375 195.050781 49.398438 194.894531 49.484375 194.75 C 49.570312 194.601562 49.695312 194.507812 49.859375 194.460938 C 50.023438 194.417969 50.179688 194.433594 50.328125 194.515625 C 50.476562 194.597656 50.578125 194.71875 50.628906 194.878906 C 51.207031 196.765625 52.191406 198.40625 53.589844 199.800781 C 54.265625 200.472656 53.261719 201.4375 52.558594 200.835938 C 51.703125 200.125 51.003906 199.289062 50.460938 198.316406 C 49.917969 197.347656 49.570312 196.3125 49.414062 195.214844 Z M 158.113281 230.453125 C 152.617188 232.875 147.15625 233.820312 141.230469 232.695312 C 140.578125 232.574219 140.753906 231.566406 141.382812 231.570312 C 146.832031 231.59375 152.363281 230.878906 157.472656 228.933594 C 158.355469 228.597656 158.96875 230.078125 158.113281 230.453125 Z M 157.539062 235.636719 C 156.414062 236.421875 155.191406 236.996094 153.863281 237.355469 C 152.539062 237.714844 151.195312 237.839844 149.824219 237.730469 C 149.671875 237.722656 149.539062 237.664062 149.433594 237.554688 C 149.324219 237.441406 149.273438 237.308594 149.273438 237.15625 C 149.273438 237 149.324219 236.867188 149.433594 236.757812 C 149.539062 236.648438 149.671875 236.589844 149.824219 236.582031 C 152.324219 236.386719 154.664062 235.679688 156.847656 234.453125 C 157.011719 234.367188 157.179688 234.347656 157.359375 234.398438 C 157.535156 234.445312 157.671875 234.550781 157.765625 234.710938 C 157.859375 234.871094 157.882812 235.039062 157.839844 235.21875 C 157.796875 235.398438 157.695312 235.539062 157.539062 235.636719 Z M 228.503906 187.519531 C 225.535156 191.328125 222.351562 195.851562 218.367188 198.648438 C 217.816406 199.035156 217.203125 198.296875 217.492188 197.769531 C 219.84375 193.519531 224.035156 189.867188 227.503906 186.519531 C 228.175781 185.867188 229.046875 186.824219 228.503906 187.519531 Z M 228.503906 187.519531 " fill-opacity="1" fill-rule="nonzero"/></svg>