<svg xmlns="http://www.w3.org/2000/svg" xmlns:xlink="http://www.w3.org/1999/xlink" width="400" zoomAndPan="magnify" viewBox="0 0 300 299.999988" height="400" preserveAspectRatio="xMidYMid meet" version="1.0"><path fill="#a9a0f0" d="M 125.355469 199.339844 C 121.703125 204.222656 116.914062 208.230469 113.75 213.476562 C 113.644531 213.652344 113.898438 213.859375 114.03125 213.699219 C 117.921875 208.964844 122.332031 204.640625 125.933594 199.679688 C 126.1875 199.328125 125.613281 199.003906 125.355469 199.339844 Z M 125.355469 199.339844 " fill-opacity="1" fill-rule="nonzero"/><path fill="#a9a0f0" d="M 165.25 169.195312 C 167.140625 166.027344 168.832031 162.757812 170.316406 159.382812 C 170.527344 158.9375 169.902344 158.554688 169.65625 158.992188 C 167.773438 162.203125 166.160156 165.542969 164.8125 169.011719 C 164.714844 169.273438 165.109375 169.414062 165.25 169.195312 Z M 165.25 169.195312 " fill-opacity="1" fill-rule="nonzero"/><path fill="#a9a0f0" d="M 138.144531 234.828125 C 137.929688 235.128906 137.800781 235.464844 137.761719 235.835938 C 137.671875 236.238281 137.652344 236.644531 137.695312 237.050781 C 137.71875 237.296875 138.03125 237.496094 138.226562 237.273438 C 138.695312 236.734375 139.160156 235.617188 138.839844 234.917969 C 138.765625 234.792969 138.65625 234.71875 138.515625 234.703125 C 138.371094 234.683594 138.25 234.726562 138.144531 234.828125 Z M 138.144531 234.828125 " fill-opacity="1" fill-rule="nonzero"/><path fill="#a9a0f0" d="M 155.664062 173.363281 C 160.632812 165.613281 163.53125 156.738281 168.222656 148.824219 C 168.257812 148.757812 168.265625 148.6875 168.246094 148.613281 C 168.226562 148.539062 168.183594 148.484375 168.117188 148.445312 C 168.050781 148.40625 167.980469 148.394531 167.90625 148.414062 C 167.832031 148.433594 167.773438 148.472656 167.734375 148.539062 C 162.652344 156.203125 159.117188 164.8125 155.265625 173.128906 C 155.191406 173.261719 155.21875 173.363281 155.351562 173.441406 C 155.480469 173.515625 155.582031 173.492188 155.664062 173.363281 Z M 155.664062 173.363281 " fill-opacity="1" fill-rule="nonzero"/><path fill="#a9a0f0" d="M 117.855469 199.382812 C 115.703125 203.210938 112.757812 206.605469 110.847656 210.566406 C 110.785156 210.695312 110.960938 210.859375 111.0625 210.730469 C 113.859375 207.285156 116.273438 203.585938 118.296875 199.636719 C 118.441406 199.347656 118.015625 199.097656 117.855469 199.382812 Z M 117.855469 199.382812 " fill-opacity="1" fill-rule="nonzero"/><path fill="#a9a0f0" d="M 79.738281 246.148438 C 81.445312 244.070312 82.773438 241.710938 84.507812 239.636719 C 84.816406 239.265625 84.289062 238.730469 83.976562 239.105469 C 82.261719 241.136719 80.242188 243.394531 79.425781 245.964844 C 79.367188 246.136719 79.617188 246.296875 79.738281 246.148438 Z M 79.738281 246.148438 " fill-opacity="1" fill-rule="nonzero"/><path fill="#a9a0f0" d="M 133.996094 206.75 C 132.46875 208.75 131.074219 210.835938 129.808594 213.011719 C 129.757812 213.105469 129.773438 213.183594 129.859375 213.25 C 129.941406 213.316406 130.023438 213.3125 130.101562 213.238281 C 131.875 211.445312 133.074219 209.097656 134.597656 207.101562 C 134.871094 206.746094 134.265625 206.394531 133.996094 206.75 Z M 133.996094 206.75 " fill-opacity="1" fill-rule="nonzero"/><path fill="#a9a0f0" d="M 130.734375 199.414062 C 126.289062 205.800781 120.09375 211.199219 116.753906 218.308594 C 116.71875 218.363281 116.734375 218.410156 116.789062 218.441406 C 116.847656 218.476562 116.890625 218.464844 116.925781 218.410156 C 121.371094 211.933594 126.710938 206.132812 131.0625 199.605469 C 131.195312 199.402344 130.871094 199.21875 130.734375 199.414062 Z M 130.734375 199.414062 " fill-opacity="1" fill-rule="nonzero"/><path fill="#a9a0f0" d="M 115.277344 196.386719 C 111.429688 201.429688 108.238281 206.925781 104.84375 212.273438 C 104.773438 212.386719 104.941406 212.519531 105.027344 212.414062 C 109.015625 207.445312 112.046875 201.816406 115.929688 196.765625 C 116.222656 196.378906 115.570312 196.003906 115.277344 196.386719 Z M 115.277344 196.386719 " fill-opacity="1" fill-rule="nonzero"/><path fill="#a9a0f0" d="M 133.066406 202.296875 C 129.765625 205.667969 126.996094 209.519531 123.976562 213.136719 C 123.902344 213.21875 123.902344 213.300781 123.980469 213.378906 C 124.0625 213.457031 124.140625 213.460938 124.222656 213.382812 C 127.640625 210.125 130.226562 206.109375 133.363281 202.59375 C 133.542969 202.394531 133.257812 202.101562 133.066406 202.296875 Z M 133.066406 202.296875 " fill-opacity="1" fill-rule="nonzero"/><path fill="#a9a0f0" d="M 111.367188 196.753906 C 108.300781 201.613281 105.121094 206.453125 102.339844 211.484375 C 102.292969 211.570312 102.3125 211.636719 102.398438 211.6875 C 102.480469 211.738281 102.550781 211.71875 102.601562 211.636719 C 106.015625 207.011719 108.796875 201.90625 111.808594 197.011719 C 111.976562 196.730469 111.542969 196.480469 111.367188 196.753906 Z M 111.367188 196.753906 " fill-opacity="1" fill-rule="nonzero"/><path fill="#a9a0f0" d="M 70.480469 196.871094 C 70.378906 196.980469 70.378906 197.089844 70.484375 197.195312 C 70.589844 197.300781 70.699219 197.304688 70.808594 197.203125 C 74.199219 194.046875 77.742188 191.066406 80.789062 187.5625 C 80.851562 187.496094 80.851562 187.425781 80.785156 187.359375 C 80.722656 187.296875 80.652344 187.292969 80.585938 187.355469 C 77.203125 190.515625 73.671875 193.511719 70.480469 196.871094 Z M 70.480469 196.871094 " fill-opacity="1" fill-rule="nonzero"/><path fill="#a9a0f0" d="M 86.992188 186.191406 C 87.058594 186.121094 87.0625 186.046875 87.003906 185.964844 C 86.941406 185.886719 86.867188 185.871094 86.78125 185.917969 C 80.007812 189.8125 74.097656 195.8125 69.558594 202.109375 C 69.320312 202.441406 69.878906 202.871094 70.128906 202.546875 C 74.96875 196.296875 81.246094 191.539062 86.992188 186.191406 Z M 86.992188 186.191406 " fill-opacity="1" fill-rule="nonzero"/><path fill="#a9a0f0" d="M 70.246094 193.902344 C 71.546875 193.292969 72.75 192.519531 73.84375 191.582031 C 73.980469 191.46875 73.804688 191.261719 73.65625 191.34375 C 72.363281 191.96875 71.175781 192.757812 70.09375 193.707031 C 69.992188 193.8125 70.121094 193.957031 70.246094 193.902344 Z M 70.246094 193.902344 " fill-opacity="1" fill-rule="nonzero"/><path fill="#a9a0f0" d="M 87.398438 226.445312 C 87.40625 226.457031 87.414062 226.46875 87.421875 226.480469 L 87.425781 226.484375 C 87.410156 226.460938 87.410156 226.460938 87.398438 226.445312 Z M 87.398438 226.445312 " fill-opacity="1" fill-rule="nonzero"/><path fill="#a9a0f0" d="M 65.164062 227.8125 C 62.050781 229.359375 59.527344 231.878906 57.160156 234.382812 C 56.90625 234.644531 57.304688 235.046875 57.558594 234.78125 C 59.914062 232.277344 62.496094 230.035156 65.3125 228.0625 C 65.390625 228.011719 65.40625 227.945312 65.359375 227.867188 C 65.3125 227.785156 65.246094 227.769531 65.164062 227.8125 Z M 65.164062 227.8125 " fill-opacity="1" fill-rule="nonzero"/><path fill="#a9a0f0" d="M 102.871094 191.039062 C 98.769531 197.445312 93.691406 203.257812 90.324219 210.117188 C 90.292969 210.179688 90.308594 210.226562 90.367188 210.261719 C 90.429688 210.296875 90.476562 210.285156 90.515625 210.226562 C 94.574219 203.773438 99.300781 197.777344 103.308594 191.296875 C 103.480469 191.015625 103.042969 190.765625 102.871094 191.039062 Z M 102.871094 191.039062 " fill-opacity="1" fill-rule="nonzero"/><path fill="#a9a0f0" d="M 145.496094 176.996094 C 151.445312 166.832031 156.832031 156.296875 162.394531 145.914062 C 162.597656 145.535156 162.023438 145.199219 161.816406 145.578125 C 156.226562 155.941406 150.1875 166.164062 145.34375 176.910156 C 145.300781 177.007812 145.4375 177.097656 145.496094 176.996094 Z M 145.496094 176.996094 " fill-opacity="1" fill-rule="nonzero"/><path fill="#a9a0f0" d="M 107.703125 194.925781 C 105.5 200.101562 101.976562 204.566406 99.5625 209.632812 C 99.484375 209.800781 99.71875 209.941406 99.8125 209.777344 C 102.640625 204.953125 106.078125 200.339844 108.074219 195.082031 C 108.152344 194.867188 107.792969 194.714844 107.703125 194.925781 Z M 107.703125 194.925781 " fill-opacity="1" fill-rule="nonzero"/><path fill="#a9a0f0" d="M 98.820312 184.582031 C 95.449219 188.519531 92.089844 192.386719 88.460938 196.101562 C 85.09375 199.550781 81.667969 203.015625 79.113281 207.128906 C 78.992188 207.328125 79.296875 207.574219 79.445312 207.382812 C 82.652344 203.359375 86.089844 199.542969 89.753906 195.929688 C 93.136719 192.515625 96.742188 189.019531 99.035156 184.75 C 99.109375 184.617188 98.925781 184.457031 98.820312 184.582031 Z M 98.820312 184.582031 " fill-opacity="1" fill-rule="nonzero"/><path fill="#a9a0f0" d="M 90.625 201.175781 C 91.988281 199.054688 93.550781 197.089844 95.3125 195.285156 C 95.375 195.21875 95.375 195.152344 95.308594 195.085938 C 95.242188 195.019531 95.175781 195.015625 95.105469 195.082031 C 93.179688 196.785156 91.546875 198.734375 90.214844 200.933594 C 90.140625 201.070312 90.171875 201.175781 90.304688 201.253906 C 90.4375 201.332031 90.542969 201.304688 90.625 201.175781 Z M 90.625 201.175781 " fill-opacity="1" fill-rule="nonzero"/><path fill="#a9a0f0" d="M 90.652344 186.050781 C 90.792969 185.792969 90.441406 185.492188 90.230469 185.726562 C 87.21875 189.109375 84.28125 192.472656 81.070312 195.683594 C 77.847656 198.910156 74.371094 202.226562 72.328125 206.363281 C 72.238281 206.550781 72.488281 206.785156 72.636719 206.601562 C 75.492188 203.027344 78.527344 199.609375 81.730469 196.34375 C 84.882812 193.1875 88.503906 190.019531 90.652344 186.050781 Z M 90.652344 186.050781 " fill-opacity="1" fill-rule="nonzero"/><path fill="#a9a0f0" d="M 87.378906 226.421875 C 87.382812 226.429688 87.390625 226.4375 87.398438 226.445312 C 87.273438 226.273438 87.335938 226.371094 87.378906 226.421875 Z M 87.378906 226.421875 " fill-opacity="1" fill-rule="nonzero"/><path fill="#a9a0f0" d="M 94.550781 153.535156 C 97.734375 147.726562 101.574219 142.296875 104.308594 136.246094 C 104.390625 136.066406 104.125 135.898438 104.035156 136.085938 C 101.074219 142.019531 97.179688 147.417969 94.324219 153.402344 C 94.253906 153.554688 94.46875 153.683594 94.550781 153.535156 Z M 94.550781 153.535156 " fill-opacity="1" fill-rule="nonzero"/><path fill="#a9a0f0" d="M 79.453125 258.710938 C 79.472656 258.710938 79.480469 258.703125 79.480469 258.683594 C 79.480469 258.664062 79.472656 258.652344 79.453125 258.652344 C 79.433594 258.652344 79.421875 258.664062 79.421875 258.683594 C 79.421875 258.703125 79.433594 258.710938 79.453125 258.710938 Z M 79.453125 258.710938 " fill-opacity="1" fill-rule="nonzero"/><path fill="#a9a0f0" d="M 80.535156 259.671875 C 80.488281 259.59375 80.417969 259.566406 80.328125 259.589844 C 79.871094 259.722656 79.835938 260.265625 79.839844 260.679688 C 79.847656 261.121094 79.976562 261.785156 80.445312 261.9375 C 80.53125 261.960938 80.617188 261.949219 80.695312 261.90625 C 80.777344 261.859375 80.828125 261.792969 80.855469 261.707031 C 80.976562 261.398438 80.769531 261 80.738281 260.679688 C 80.757812 260.328125 80.691406 259.988281 80.535156 259.671875 Z M 80.535156 259.671875 " fill-opacity="1" fill-rule="nonzero"/><path fill="#a9a0f0" d="M 99.070312 261.292969 C 98.945312 262 98.703125 263.136719 99.4375 263.570312 C 99.5 263.640625 99.574219 263.6875 99.660156 263.71875 C 99.746094 263.746094 99.832031 263.753906 99.921875 263.738281 C 100.011719 263.722656 100.089844 263.683594 100.160156 263.625 C 100.230469 263.570312 100.285156 263.5 100.316406 263.414062 C 100.78125 262.875 100.417969 261.902344 100.3125 261.292969 C 100.269531 261.15625 100.191406 261.042969 100.078125 260.957031 C 99.960938 260.871094 99.832031 260.828125 99.691406 260.828125 C 99.546875 260.828125 99.417969 260.871094 99.300781 260.957031 C 99.1875 261.042969 99.109375 261.15625 99.070312 261.292969 Z M 99.070312 261.292969 " fill-opacity="1" fill-rule="nonzero"/><path fill="#a9a0f0" d="M 100.664062 262.542969 C 100.679688 262.785156 100.753906 263.007812 100.878906 263.214844 C 100.917969 263.277344 100.96875 263.328125 101.03125 263.363281 C 101.09375 263.398438 101.164062 263.414062 101.234375 263.414062 C 101.308594 263.414062 101.375 263.398438 101.441406 263.363281 C 101.503906 263.328125 101.554688 263.277344 101.59375 263.214844 C 101.71875 263.007812 101.789062 262.785156 101.804688 262.542969 C 101.898438 261.808594 100.570312 261.808594 100.664062 262.542969 Z M 100.664062 262.542969 " fill-opacity="1" fill-rule="nonzero"/><path fill="#a9a0f0" d="M 136.785156 234.101562 C 136.929688 233.898438 136.679688 234.144531 136.632812 234.195312 C 136.523438 234.3125 136.453125 234.449219 136.417969 234.605469 C 136.300781 235.121094 136.175781 235.632812 136.0625 236.148438 C 135.90625 236.832031 135.394531 238.140625 135.855469 238.769531 C 135.90625 238.847656 135.976562 238.898438 136.066406 238.921875 C 136.15625 238.945312 136.242188 238.933594 136.324219 238.890625 C 137.046875 238.539062 137.132812 237.175781 137.285156 236.488281 C 137.386719 236.035156 137.453125 235.574219 137.53125 235.117188 C 137.582031 234.792969 137.539062 234.480469 137.40625 234.179688 C 137.363281 234.039062 137.269531 233.957031 137.121094 233.941406 C 136.972656 233.921875 136.863281 233.972656 136.785156 234.101562 Z M 136.785156 234.101562 " fill-opacity="1" fill-rule="nonzero"/><path fill="#a9a0f0" d="M 122.875 235.730469 C 122.726562 235.640625 122.5625 235.621094 122.394531 235.664062 C 122.222656 235.710938 122.09375 235.808594 122.003906 235.957031 C 121.824219 236.261719 121.671875 236.578125 121.554688 236.90625 C 121.4375 237.277344 121.394531 237.667969 121.292969 238.042969 C 121.210938 238.355469 121.652344 238.667969 121.875 238.382812 C 122.074219 238.121094 122.300781 237.875 122.519531 237.632812 C 122.769531 237.320312 122.964844 236.976562 123.105469 236.601562 C 123.191406 236.449219 123.210938 236.289062 123.167969 236.117188 C 123.121094 235.949219 123.027344 235.820312 122.875 235.730469 Z M 122.875 235.730469 " fill-opacity="1" fill-rule="nonzero"/><path fill="#a9a0f0" d="M 70.226562 240.1875 C 70.925781 239.441406 71.667969 238.742188 72.457031 238.089844 C 72.597656 237.957031 72.421875 237.769531 72.265625 237.839844 C 71.300781 238.300781 70.488281 238.949219 69.828125 239.789062 C 69.597656 240.066406 69.996094 240.472656 70.226562 240.1875 Z M 70.226562 240.1875 " fill-opacity="1" fill-rule="nonzero"/><path fill="#a9a0f0" d="M 87.421875 226.480469 C 87.238281 226.183594 86.972656 226.058594 86.625 226.105469 C 86.28125 226.152344 86.058594 226.34375 85.957031 226.675781 C 85.816406 227.140625 85.90625 227.550781 86.226562 227.914062 C 86.335938 228.015625 86.460938 228.089844 86.605469 228.125 C 86.75 228.164062 86.894531 228.164062 87.039062 228.128906 C 87.183594 228.089844 87.308594 228.019531 87.414062 227.914062 C 87.523438 227.808594 87.597656 227.683594 87.636719 227.542969 C 87.683594 227.3125 87.679688 227.082031 87.625 226.855469 C 87.585938 226.714844 87.519531 226.589844 87.421875 226.480469 Z M 87.421875 226.480469 " fill-opacity="1" fill-rule="nonzero"/><path fill="#a9a0f0" d="M 98.765625 232.25 C 98.683594 232.625 98.679688 233.003906 98.753906 233.382812 C 98.785156 233.6875 98.855469 233.980469 98.976562 234.261719 C 99.015625 234.332031 99.074219 234.378906 99.152344 234.398438 C 99.230469 234.417969 99.304688 234.40625 99.371094 234.367188 C 99.675781 234.105469 99.882812 233.78125 99.996094 233.398438 C 100.109375 233.015625 100.109375 232.632812 99.996094 232.25 C 99.957031 232.113281 99.878906 232.003906 99.765625 231.917969 C 99.652344 231.835938 99.523438 231.792969 99.382812 231.792969 C 99.242188 231.792969 99.113281 231.835938 99 231.917969 C 98.886719 232.003906 98.808594 232.113281 98.765625 232.25 Z M 98.765625 232.25 " fill-opacity="1" fill-rule="nonzero"/><path fill="#a9a0f0" d="M 96.558594 229.585938 C 96.265625 230.484375 96.105469 231.410156 96.078125 232.359375 C 95.84375 233.457031 95.96875 234.515625 96.445312 235.53125 C 96.480469 235.585938 96.523438 235.628906 96.578125 235.660156 C 96.632812 235.691406 96.691406 235.707031 96.753906 235.707031 C 96.816406 235.707031 96.875 235.691406 96.929688 235.660156 C 96.984375 235.628906 97.027344 235.585938 97.0625 235.53125 C 97.367188 234.640625 97.507812 233.726562 97.484375 232.785156 C 97.644531 231.738281 97.582031 230.703125 97.300781 229.683594 C 97.1875 229.40625 96.714844 229.222656 96.558594 229.585938 Z M 96.558594 229.585938 " fill-opacity="1" fill-rule="nonzero"/><path fill="#a9a0f0" d="M 77.132812 257.359375 C 77.085938 257.210938 76.984375 257.132812 76.824219 257.132812 C 76.667969 257.132812 76.5625 257.210938 76.515625 257.359375 C 76.378906 257.929688 76.464844 258.460938 76.765625 258.960938 C 76.816406 259.039062 76.886719 259.078125 76.980469 259.078125 C 77.070312 259.078125 77.144531 259.039062 77.191406 258.960938 C 77.324219 258.742188 77.363281 258.507812 77.316406 258.257812 C 77.292969 257.949219 77.230469 257.652344 77.132812 257.359375 Z M 77.132812 257.359375 " fill-opacity="1" fill-rule="nonzero"/><path fill="#a9a0f0" d="M 150.960938 157.71875 C 152.03125 155.65625 152.96875 153.53125 153.777344 151.351562 C 153.851562 151.171875 153.539062 151.042969 153.460938 151.21875 C 152.402344 153.289062 151.472656 155.414062 150.679688 157.601562 C 150.660156 157.6875 150.691406 157.746094 150.769531 157.777344 C 150.851562 157.8125 150.914062 157.792969 150.960938 157.71875 Z M 150.960938 157.71875 " fill-opacity="1" fill-rule="nonzero"/><path fill="#a9a0f0" d="M 131.152344 150.59375 C 132.175781 148.375 133.214844 146.171875 134.292969 143.980469 C 134.390625 143.777344 134.09375 143.601562 133.992188 143.804688 C 132.828125 145.96875 131.8125 148.203125 130.941406 150.503906 C 130.898438 150.628906 131.097656 150.710938 131.152344 150.59375 Z M 131.152344 150.59375 " fill-opacity="1" fill-rule="nonzero"/><path fill="#a9a0f0" d="M 128.539062 176.554688 C 135.886719 164.191406 142.570312 151.152344 147.222656 137.515625 C 147.402344 136.992188 146.585938 136.777344 146.398438 137.289062 C 141.507812 150.878906 133.839844 163.160156 128.300781 176.453125 C 128.242188 176.59375 128.464844 176.679688 128.539062 176.554688 Z M 128.539062 176.554688 " fill-opacity="1" fill-rule="nonzero"/><path fill="#a9a0f0" d="M 128.875 167.609375 C 133.257812 158.5 137.96875 149.539062 142.300781 140.410156 C 142.34375 140.328125 142.328125 140.265625 142.246094 140.21875 C 142.167969 140.171875 142.101562 140.1875 142.050781 140.265625 C 136.675781 148.757812 132.351562 158.183594 128.582031 167.488281 C 128.515625 167.65625 128.796875 167.773438 128.875 167.609375 Z M 128.875 167.609375 " fill-opacity="1" fill-rule="nonzero"/><path fill="#a9a0f0" d="M 144 163.121094 C 146.597656 158.085938 149.011719 152.9375 151.171875 147.695312 C 151.324219 147.324219 150.679688 147.050781 150.519531 147.417969 C 148.296875 152.636719 145.507812 157.613281 143.734375 163.011719 C 143.714844 163.089844 143.746094 163.148438 143.820312 163.179688 C 143.898438 163.210938 143.957031 163.191406 144 163.121094 Z M 144 163.121094 " fill-opacity="1" fill-rule="nonzero"/><path fill="#a9a0f0" d="M 134.730469 171.925781 C 139.148438 162.59375 143.492188 153.253906 148.445312 144.1875 C 148.621094 143.867188 148.136719 143.582031 147.957031 143.90625 C 142.964844 152.9375 138.179688 162.175781 134.46875 171.816406 C 134.40625 171.96875 134.660156 172.074219 134.730469 171.925781 Z M 134.730469 171.925781 " fill-opacity="1" fill-rule="nonzero"/><path fill="#a9a0f0" d="M 104.335938 156.191406 C 109.203125 148.984375 113.949219 141.671875 118.289062 134.128906 C 118.363281 133.988281 118.332031 133.878906 118.195312 133.796875 C 118.058594 133.71875 117.945312 133.746094 117.859375 133.878906 C 113.386719 141.34375 108.378906 148.476562 104.007812 156.003906 C 103.886719 156.214844 104.199219 156.390625 104.335938 156.191406 Z M 104.335938 156.191406 " fill-opacity="1" fill-rule="nonzero"/><path fill="#a9a0f0" d="M 96.707031 157.238281 C 101.082031 149.621094 105.464844 142.019531 110.402344 134.742188 C 110.578125 134.484375 110.164062 134.25 109.992188 134.503906 C 104.847656 141.65625 100.351562 149.195312 96.492188 157.117188 C 96.425781 157.257812 96.625 157.378906 96.707031 157.238281 Z M 96.707031 157.238281 " fill-opacity="1" fill-rule="nonzero"/><path fill="#a9a0f0" d="M 103.355469 152.453125 C 106.777344 147.109375 110.246094 141.765625 112.835938 135.957031 C 112.9375 135.730469 112.613281 135.53125 112.496094 135.757812 C 109.679688 141.457031 106.265625 146.800781 103.128906 152.324219 C 103.089844 152.398438 103.109375 152.457031 103.179688 152.496094 C 103.253906 152.539062 103.3125 152.527344 103.355469 152.453125 Z M 103.355469 152.453125 " fill-opacity="1" fill-rule="nonzero"/><path fill="#a9a0f0" d="M 119.28125 160.804688 C 123.441406 151.875 127.011719 142.714844 129.984375 133.320312 C 130.113281 132.902344 129.496094 132.75 129.339844 133.144531 C 125.789062 142.253906 121.984375 151.375 119.015625 160.691406 C 118.96875 160.847656 119.210938 160.957031 119.28125 160.804688 Z M 119.28125 160.804688 " fill-opacity="1" fill-rule="nonzero"/><path fill="#a9a0f0" d="M 107.417969 160.800781 C 107.289062 161.152344 107.8125 161.34375 108 161.046875 C 110.738281 156.644531 113.523438 152.269531 116.234375 147.847656 C 118.816406 143.640625 121.84375 138.867188 122.785156 133.957031 C 122.839844 133.734375 122.761719 133.582031 122.550781 133.492188 C 122.34375 133.402344 122.179688 133.457031 122.058594 133.648438 C 119.414062 137.957031 117.238281 142.5625 114.585938 146.886719 C 111.855469 151.339844 109.203125 155.875 107.417969 160.800781 Z M 107.417969 160.800781 " fill-opacity="1" fill-rule="nonzero"/><path fill="#a9a0f0" d="M 125.96875 155.886719 C 128.484375 150.699219 131.105469 145.394531 132.632812 139.8125 C 132.753906 139.363281 132.109375 139.207031 131.945312 139.628906 C 129.878906 145.003906 127.183594 150.183594 125.613281 155.734375 C 125.550781 155.945312 125.871094 156.089844 125.96875 155.886719 Z M 125.96875 155.886719 " fill-opacity="1" fill-rule="nonzero"/><path fill="#a9a0f0" d="M 193.972656 146.648438 C 194.339844 150.4375 193.410156 154.050781 193.132812 157.796875 C 193.09375 158.265625 193.730469 158.355469 193.953125 158.019531 C 198.167969 151.761719 196.132812 141.589844 192.042969 135.769531 C 191.8125 135.441406 191.210938 135.632812 191.355469 136.058594 C 192.648438 139.484375 193.519531 143.015625 193.972656 146.648438 Z M 193.972656 146.648438 " fill-opacity="1" fill-rule="nonzero"/><path fill="#a9a0f0" d="M 133.652344 88.304688 C 136.609375 82.253906 140.480469 76.207031 142.359375 69.710938 C 142.398438 69.546875 142.34375 69.429688 142.1875 69.363281 C 142.03125 69.296875 141.90625 69.335938 141.816406 69.480469 C 138.710938 75.46875 135.199219 81.648438 133.164062 88.097656 C 133.074219 88.386719 133.519531 88.582031 133.652344 88.304688 Z M 133.652344 88.304688 " fill-opacity="1" fill-rule="nonzero"/><path fill="#a9a0f0" d="M 190.597656 152.441406 C 190.601562 152.609375 190.6875 152.703125 190.855469 152.726562 C 191.023438 152.75 191.132812 152.679688 191.179688 152.519531 C 191.585938 151.273438 191.683594 150.003906 191.476562 148.710938 C 191.273438 147.632812 190.960938 146.136719 189.910156 145.566406 C 189.878906 145.550781 189.851562 145.550781 189.824219 145.566406 C 189.792969 145.585938 189.777344 145.609375 189.777344 145.640625 C 189.648438 146.683594 190.070312 147.839844 190.183594 148.886719 C 190.3125 150.074219 190.460938 151.257812 190.597656 152.441406 Z M 190.597656 152.441406 " fill-opacity="1" fill-rule="nonzero"/><path fill="#a9a0f0" d="M 221.941406 102.246094 C 222.160156 102.480469 222.417969 102.652344 222.71875 102.753906 C 222.785156 102.773438 222.851562 102.773438 222.917969 102.753906 C 222.984375 102.738281 223.042969 102.703125 223.09375 102.65625 C 223.140625 102.605469 223.175781 102.546875 223.191406 102.480469 C 223.210938 102.414062 223.210938 102.347656 223.191406 102.28125 C 223.050781 101.765625 222.789062 101.320312 222.410156 100.945312 C 222.195312 100.738281 221.964844 100.710938 221.707031 100.851562 C 221.566406 100.933594 221.480469 101.050781 221.4375 101.207031 C 221.398438 101.363281 221.417969 101.507812 221.5 101.648438 C 221.652344 101.84375 221.773438 102.054688 221.941406 102.246094 Z M 221.941406 102.246094 " fill-opacity="1" fill-rule="nonzero"/><path fill="#a9a0f0" d="M 210.738281 147.65625 C 215.542969 140.980469 217.75 131.347656 213.621094 123.851562 C 213.527344 123.695312 213.394531 123.65625 213.226562 123.726562 C 213.058594 123.796875 212.996094 123.921875 213.039062 124.097656 C 214.417969 128.0625 214.71875 132.101562 213.941406 136.226562 C 213.234375 140.117188 211.433594 143.699219 210.15625 147.410156 C 210.03125 147.777344 210.542969 147.933594 210.738281 147.65625 Z M 210.738281 147.65625 " fill-opacity="1" fill-rule="nonzero"/><path fill="#a9a0f0" d="M 207.964844 141.933594 C 207.96875 142.050781 208.027344 142.125 208.136719 142.152344 C 208.25 142.183594 208.335938 142.152344 208.398438 142.050781 C 209.183594 140.644531 209.5 139.136719 209.347656 137.527344 C 209.328125 136.617188 209.445312 134.679688 208.511719 134.125 C 208.417969 134.070312 208.328125 134.082031 208.25 134.160156 C 207.621094 134.855469 207.878906 136.261719 207.875 137.117188 C 207.863281 138.746094 207.867188 140.316406 207.964844 141.933594 Z M 207.964844 141.933594 " fill-opacity="1" fill-rule="nonzero"/><path fill="#a9a0f0" d="M 223.023438 98.851562 C 223.375 99.992188 223.8125 101.101562 224.335938 102.171875 C 224.371094 102.234375 224.417969 102.28125 224.480469 102.316406 C 224.542969 102.351562 224.609375 102.367188 224.679688 102.367188 C 224.75 102.367188 224.8125 102.351562 224.875 102.316406 C 224.9375 102.28125 224.984375 102.234375 225.019531 102.171875 C 225.71875 100.871094 225.320312 99.402344 224.734375 98.128906 C 224.3125 97.210938 223.503906 95.789062 222.3125 95.84375 C 222.039062 95.859375 221.734375 96.144531 221.859375 96.441406 C 222.199219 97.265625 222.683594 98.023438 223.023438 98.851562 Z M 223.023438 98.851562 " fill-opacity="1" fill-rule="nonzero"/><path fill="#a9a0f0" d="M 227.421875 130.464844 C 229.675781 127.679688 229.8125 124.546875 229.511719 121.082031 C 229.371094 119.480469 229.0625 117.890625 228.804688 116.304688 C 228.519531 114.578125 228.613281 112.601562 228.011719 110.96875 C 227.980469 110.863281 227.90625 110.804688 227.800781 110.789062 C 227.691406 110.773438 227.605469 110.816406 227.546875 110.90625 C 226.21875 112.851562 227.078125 116.140625 227.328125 118.316406 C 227.902344 122.277344 227.71875 126.203125 226.777344 130.089844 C 226.6875 130.4375 227.167969 130.777344 227.421875 130.464844 Z M 227.421875 130.464844 " fill-opacity="1" fill-rule="nonzero"/><path fill="#a9a0f0" d="M 206.058594 143.882812 C 206.105469 143.015625 206.019531 142.160156 205.808594 141.316406 C 205.804688 141.183594 205.753906 141.074219 205.65625 140.980469 C 205.5625 140.886719 205.449219 140.84375 205.316406 140.84375 C 205.183594 140.84375 205.066406 140.886719 204.972656 140.980469 C 204.875 141.074219 204.824219 141.183594 204.820312 141.316406 C 204.675781 142.277344 204.878906 143.160156 205.425781 143.964844 C 205.582031 144.171875 206.007812 144.214844 206.058594 143.882812 Z M 206.058594 143.882812 " fill-opacity="1" fill-rule="nonzero"/><path fill="#a9a0f0" d="M 224.078125 118.65625 C 224.269531 121.375 224.074219 124.339844 224.789062 126.980469 C 224.835938 127.128906 224.933594 127.203125 225.089844 127.203125 C 225.246094 127.203125 225.34375 127.128906 225.390625 126.980469 C 226.074219 124.339844 225.496094 121.339844 225.277344 118.65625 C 225.214844 117.890625 224.019531 117.882812 224.078125 118.65625 Z M 224.078125 118.65625 " fill-opacity="1" fill-rule="nonzero"/><path fill="#a9a0f0" d="M 197.789062 110.75 C 198.367188 111.066406 198.871094 111.476562 199.296875 111.980469 C 199.726562 112.480469 200.15625 113.003906 200.578125 113.507812 C 200.746094 113.710938 201.070312 113.535156 201.070312 113.300781 C 201.101562 112.507812 200.855469 111.8125 200.335938 111.214844 C 199.804688 110.566406 199.167969 110.050781 198.417969 109.671875 C 197.707031 109.308594 197.082031 110.367188 197.789062 110.75 Z M 197.789062 110.75 " fill-opacity="1" fill-rule="nonzero"/><path fill="#a9a0f0" d="M 167.667969 64.835938 C 169.046875 62.195312 170.28125 59.488281 171.367188 56.714844 C 171.632812 56.09375 170.722656 55.554688 170.457031 56.179688 C 169.269531 58.96875 168.15625 61.761719 167.125 64.609375 C 167.007812 64.929688 167.507812 65.125 167.667969 64.835938 Z M 167.667969 64.835938 " fill-opacity="1" fill-rule="nonzero"/><path fill="#a9a0f0" d="M 198.722656 115.046875 C 198.214844 115.007812 198.101562 115.617188 198.351562 115.933594 C 198.609375 116.257812 199.035156 116.417969 199.265625 116.761719 C 199.292969 116.8125 199.335938 116.851562 199.382812 116.878906 C 199.433594 116.90625 199.488281 116.921875 199.546875 116.921875 C 199.601562 116.921875 199.65625 116.90625 199.707031 116.878906 C 199.757812 116.851562 199.796875 116.8125 199.828125 116.761719 C 199.898438 116.574219 199.925781 116.378906 199.902344 116.179688 C 199.882812 115.980469 199.816406 115.792969 199.707031 115.625 C 199.597656 115.457031 199.457031 115.320312 199.285156 115.21875 C 199.109375 115.117188 198.921875 115.058594 198.722656 115.046875 Z M 198.722656 115.046875 " fill-opacity="1" fill-rule="nonzero"/><path fill="#a9a0f0" d="M 159.4375 53.632812 C 160.558594 49.410156 163.410156 43.722656 162.289062 39.285156 C 162.253906 39.171875 162.175781 39.113281 162.054688 39.113281 C 161.9375 39.113281 161.859375 39.171875 161.824219 39.285156 C 161.359375 41.421875 161.167969 43.589844 160.628906 45.726562 C 159.921875 48.285156 159.347656 50.871094 158.90625 53.488281 C 158.855469 53.828125 159.34375 53.988281 159.4375 53.632812 Z M 159.4375 53.632812 " fill-opacity="1" fill-rule="nonzero"/><path fill="#a9a0f0" d="M 157 62.746094 C 155.160156 68 155.28125 74.125 156.035156 79.589844 C 156.078125 79.90625 156.515625 79.78125 156.546875 79.519531 C 157.242188 73.964844 156.355469 68.453125 157.632812 62.917969 C 157.652344 62.832031 157.640625 62.753906 157.59375 62.679688 C 157.550781 62.601562 157.484375 62.554688 157.402344 62.53125 C 157.316406 62.507812 157.234375 62.515625 157.15625 62.558594 C 157.082031 62.597656 157.027344 62.660156 157 62.746094 Z M 157 62.746094 " fill-opacity="1" fill-rule="nonzero"/><path fill="#a9a0f0" d="M 181.347656 90.894531 C 187.71875 92.582031 193.46875 94.570312 198.304688 99.296875 C 198.539062 99.523438 198.980469 99.214844 198.773438 98.9375 C 195.035156 93.886719 187.84375 89.882812 181.417969 90.382812 C 181.269531 90.386719 181.1875 90.460938 181.167969 90.609375 C 181.148438 90.753906 181.207031 90.851562 181.347656 90.894531 Z M 181.347656 90.894531 " fill-opacity="1" fill-rule="nonzero"/><path fill="#a9a0f0" d="M 149.574219 60.15625 C 149.300781 56.414062 149.496094 52.621094 148.898438 48.910156 C 148.816406 48.394531 147.988281 48.527344 148.003906 49.03125 C 148.113281 52.78125 147.816406 56.617188 149.003906 60.230469 C 149.101562 60.53125 149.597656 60.496094 149.574219 60.15625 Z M 149.574219 60.15625 " fill-opacity="1" fill-rule="nonzero"/><path fill="#a9a0f0" d="M 222.898438 159.835938 C 221.71875 160.558594 220.464844 161.1875 219.265625 161.878906 C 219.15625 161.949219 219.082031 162.042969 219.042969 162.164062 C 219.003906 162.289062 219.011719 162.40625 219.058594 162.527344 C 219.109375 162.644531 219.191406 162.734375 219.308594 162.789062 C 219.421875 162.847656 219.542969 162.859375 219.667969 162.832031 C 221.199219 162.40625 222.394531 161.527344 223.253906 160.195312 C 223.320312 160.078125 223.304688 159.976562 223.210938 159.882812 C 223.117188 159.789062 223.015625 159.773438 222.898438 159.835938 Z M 222.898438 159.835938 " fill-opacity="1" fill-rule="nonzero"/><path fill="#a9a0f0" d="M 81.070312 170.019531 C 81.207031 170.339844 81.414062 170.613281 81.691406 170.828125 C 81.878906 171.007812 82.089844 171.03125 82.316406 170.902344 C 82.539062 170.769531 82.621094 170.578125 82.558594 170.324219 C 82.441406 169.808594 82.210938 169.351562 81.859375 168.957031 C 81.800781 168.871094 81.75 168.78125 81.703125 168.683594 C 81.457031 168.1875 80.765625 168.554688 80.859375 169.042969 C 80.886719 169.375 80.957031 169.703125 81.070312 170.019531 Z M 81.070312 170.019531 " fill-opacity="1" fill-rule="nonzero"/><path fill="#a9a0f0" d="M 65.824219 125.28125 C 62.246094 121.632812 56.246094 120.257812 53.964844 115.414062 C 53.820312 115.105469 53.277344 115.328125 53.410156 115.648438 C 55.53125 120.855469 61.378906 122.402344 65.476562 125.628906 C 65.71875 125.820312 66.050781 125.511719 65.824219 125.28125 Z M 65.824219 125.28125 " fill-opacity="1" fill-rule="nonzero"/><path fill="#a9a0f0" d="M 77.105469 91.132812 C 79.519531 98.507812 80.386719 106.15625 81.777344 113.753906 C 81.804688 113.921875 82.089844 113.882812 82.078125 113.714844 C 81.507812 105.960938 80.042969 98.378906 77.679688 90.972656 C 77.554688 90.613281 76.984375 90.765625 77.105469 91.132812 Z M 77.105469 91.132812 " fill-opacity="1" fill-rule="nonzero"/><path fill="#a9a0f0" d="M 88.128906 130.460938 C 89.488281 125.15625 90.832031 119.792969 91.386719 114.332031 C 91.429688 113.886719 90.671875 113.78125 90.601562 114.226562 C 89.757812 119.636719 88.070312 124.925781 87.65625 130.398438 C 87.636719 130.671875 88.058594 130.71875 88.128906 130.460938 Z M 88.128906 130.460938 " fill-opacity="1" fill-rule="nonzero"/><path fill="#a9a0f0" d="M 72.882812 171.976562 C 73.160156 172.167969 73.449219 172.183594 73.746094 172.027344 C 73.910156 171.964844 74.003906 171.695312 73.800781 171.605469 C 73.65625 171.542969 73.292969 171.355469 73.285156 171.1875 C 73.273438 170.625 72.375 170.648438 72.433594 171.1875 C 72.457031 171.523438 72.605469 171.785156 72.882812 171.976562 Z M 72.882812 171.976562 " fill-opacity="1" fill-rule="nonzero"/><path fill="#a9a0f0" d="M 226.542969 151.832031 C 225.078125 152.996094 223.777344 154.359375 222.335938 155.550781 C 220.585938 156.917969 218.753906 158.164062 216.84375 159.289062 C 216.75 159.347656 216.6875 159.433594 216.660156 159.542969 C 216.632812 159.652344 216.648438 159.757812 216.707031 159.855469 C 216.761719 159.953125 216.84375 160.019531 216.953125 160.046875 C 217.0625 160.078125 217.167969 160.066406 217.269531 160.011719 C 220.8125 158.402344 225.304688 155.890625 226.972656 152.167969 C 227.046875 152.03125 227.023438 151.914062 226.898438 151.816406 C 226.777344 151.722656 226.65625 151.726562 226.542969 151.832031 Z M 226.542969 151.832031 " fill-opacity="1" fill-rule="nonzero"/><path fill="#a9a0f0" d="M 188.753906 154.691406 C 188.847656 154.980469 188.992188 155.246094 189.175781 155.484375 C 189.332031 155.742188 189.796875 155.648438 189.769531 155.324219 C 189.785156 155.019531 189.78125 154.714844 189.761719 154.414062 C 189.703125 154.117188 189.628906 153.824219 189.542969 153.539062 C 189.339844 152.898438 188.332031 153.171875 188.535156 153.816406 C 188.625 154.101562 188.699219 154.394531 188.753906 154.691406 Z M 188.753906 154.691406 " fill-opacity="1" fill-rule="nonzero"/><path fill="#a9a0f0" d="M 109.378906 89.195312 C 102.277344 86.792969 96.832031 82.429688 91.058594 77.800781 C 90.671875 77.488281 90.117188 78.023438 90.503906 78.351562 C 96.0625 83.070312 101.78125 88.445312 109.265625 89.613281 C 109.398438 89.644531 109.484375 89.59375 109.523438 89.460938 C 109.558594 89.324219 109.511719 89.238281 109.378906 89.195312 Z M 109.378906 89.195312 " fill-opacity="1" fill-rule="nonzero"/><path fill="#a9a0f0" d="M 180.402344 198.183594 C 179.789062 198.832031 179.050781 199.269531 178.1875 199.5 C 177.503906 199.628906 177.789062 200.726562 178.472656 200.546875 C 178.992188 200.425781 179.457031 200.195312 179.871094 199.863281 C 180.289062 199.480469 180.609375 199.035156 180.832031 198.515625 C 180.90625 198.378906 180.882812 198.261719 180.757812 198.164062 C 180.636719 198.070312 180.515625 198.074219 180.402344 198.183594 Z M 180.402344 198.183594 " fill-opacity="1" fill-rule="nonzero"/><path fill="#a9a0f0" d="M 187.695312 184.390625 C 180.75 188.835938 174.539062 193.632812 166.515625 196.058594 C 166.351562 196.109375 166.289062 196.21875 166.335938 196.386719 C 166.382812 196.554688 166.492188 196.617188 166.660156 196.574219 C 174.78125 195.359375 182.054688 190.191406 187.960938 184.730469 C 188.042969 184.640625 188.050781 184.546875 187.972656 184.445312 C 187.898438 184.347656 187.804688 184.328125 187.695312 184.390625 Z M 187.695312 184.390625 " fill-opacity="1" fill-rule="nonzero"/><path fill="#a9a0f0" d="M 179.964844 195.8125 C 180.011719 195.726562 180.007812 195.644531 179.945312 195.566406 C 179.886719 195.488281 179.808594 195.460938 179.710938 195.484375 C 179.050781 195.691406 178.4375 195.996094 177.875 196.398438 C 177.253906 196.667969 176.6875 197.019531 176.175781 197.460938 C 176.136719 197.5 176.128906 197.546875 176.152344 197.601562 C 176.171875 197.65625 176.210938 197.683594 176.269531 197.683594 C 177.003906 197.71875 177.6875 197.542969 178.320312 197.164062 C 179.019531 196.898438 179.566406 196.445312 179.964844 195.8125 Z M 179.964844 195.8125 " fill-opacity="1" fill-rule="nonzero"/><path fill="#a9a0f0" d="M 263.609375 134.019531 C 263.289062 132.398438 262.066406 130.902344 260.167969 129.8125 C 256.695312 127.8125 252.59375 127 248.628906 126.214844 L 244.988281 125.484375 C 243.644531 125.21875 242.304688 124.953125 240.96875 124.664062 L 240.433594 124.546875 C 239.664062 124.398438 238.902344 124.210938 238.152344 123.984375 C 238.582031 121.335938 238.769531 118.671875 238.707031 115.992188 C 238.644531 113.3125 238.339844 110.660156 237.789062 108.035156 C 237.238281 105.410156 236.453125 102.859375 235.429688 100.378906 C 234.40625 97.902344 233.167969 95.535156 231.707031 93.285156 C 223.855469 81.464844 210.460938 76.179688 200.605469 73.824219 C 196.429688 72.796875 192.191406 72.269531 187.890625 72.238281 C 180.726562 72.238281 174.78125 73.90625 170.179688 77.199219 C 170.574219 75.8125 170.757812 74.398438 170.726562 72.957031 C 170.710938 72.230469 170.410156 71.648438 169.832031 71.210938 L 170.246094 70.71875 C 175.003906 65.054688 180.925781 58.007812 177.542969 51.558594 C 177.371094 51.175781 177.148438 50.820312 176.875 50.5 C 176.601562 50.179688 176.289062 49.90625 175.9375 49.675781 C 175.582031 49.445312 175.207031 49.273438 174.800781 49.152344 C 174.398438 49.03125 173.984375 48.972656 173.566406 48.972656 C 171.378906 48.972656 168.914062 50.421875 166.886719 51.996094 C 167.191406 50.78125 167.546875 49.5625 167.890625 48.375 C 168.835938 45.492188 169.480469 42.539062 169.828125 39.527344 C 169.921875 38.128906 169.753906 36.769531 169.324219 35.4375 C 168.894531 34.105469 168.234375 32.902344 167.34375 31.824219 C 166.847656 31.253906 166.253906 30.808594 165.566406 30.488281 C 164.878906 30.171875 164.160156 30.007812 163.402344 30 C 163.046875 30 162.695312 30.035156 162.347656 30.101562 C 158.144531 30.886719 156.410156 36.09375 155.261719 39.535156 L 155.140625 39.902344 C 154.710938 41.203125 154.304688 42.597656 153.90625 44.125 C 153.757812 43.792969 153.59375 43.472656 153.417969 43.160156 C 153.1875 42.746094 152.90625 42.371094 152.574219 42.035156 C 152.242188 41.695312 151.871094 41.410156 151.460938 41.175781 C 151.050781 40.941406 150.617188 40.765625 150.160156 40.648438 C 149.699219 40.53125 149.234375 40.476562 148.761719 40.488281 C 147.175781 40.503906 145.777344 41.023438 144.566406 42.046875 C 141.46875 44.675781 141.480469 50.066406 141.484375 52.960938 C 141.488281 56.089844 141.867188 59.171875 142.628906 62.207031 C 136.324219 65.601562 132.832031 72.445312 130.742188 77.351562 C 130.582031 77.722656 130.421875 78.105469 130.265625 78.5 C 129.847656 76.078125 128.777344 73.988281 127.050781 72.234375 C 127.296875 71.820312 127.574219 71.378906 127.863281 70.921875 C 130.054688 67.417969 133.371094 62.121094 129.003906 59.265625 C 128.152344 58.699219 127.21875 58.417969 126.195312 58.417969 C 124.894531 58.464844 123.679688 58.816406 122.558594 59.472656 C 124.125 55.664062 125.902344 49.882812 121.953125 47.828125 C 121.285156 47.46875 120.566406 47.292969 119.808594 47.289062 C 116.609375 47.289062 113.828125 50.632812 112.457031 52.628906 C 110.625 55.40625 109.203125 58.382812 108.183594 61.550781 C 106.65625 59.148438 104.625 56.472656 101.914062 54.703125 C 100.929688 54.066406 99.847656 53.746094 98.675781 53.742188 C 97.53125 53.722656 96.503906 54.0625 95.597656 54.761719 C 93.167969 56.691406 93.226562 59.886719 93.484375 62.125 C 94.019531 66.75 95.957031 71.015625 97.941406 74.878906 C 96.589844 74.003906 95.316406 73.21875 94.003906 72.472656 L 93.339844 72.089844 C 91.320312 70.914062 88.265625 69.132812 85.601562 69.132812 C 84.464844 69.101562 83.460938 69.449219 82.589844 70.175781 C 82.167969 70.53125 81.84375 70.957031 81.613281 71.457031 C 81.382812 71.957031 81.273438 72.480469 81.277344 73.03125 C 81.195312 77.796875 88.308594 84.363281 88.382812 84.429688 C 89.109375 85.09375 89.886719 85.742188 90.753906 86.40625 C 88.332031 90.054688 86.683594 94.027344 85.8125 98.320312 C 85.765625 98.089844 85.71875 97.859375 85.671875 97.632812 C 84.453125 91.699219 82.390625 84.363281 77.203125 80.285156 C 76.765625 79.914062 76.265625 79.726562 75.695312 79.710938 C 75.125 79.722656 74.621094 79.914062 74.191406 80.289062 C 68.808594 84.589844 70.671875 93.175781 71.570312 97.300781 C 72 99.28125 72.558594 101.234375 73.164062 103.132812 C 71.71875 101.359375 69.640625 99.210938 67.484375 99.210938 C 66.9375 99.210938 66.425781 99.339844 65.949219 99.597656 C 62.066406 101.675781 64.023438 108.699219 65.789062 112.527344 C 67.757812 116.765625 71.101562 120.238281 74.617188 123.167969 C 72.796875 121.679688 70.9375 120.230469 69.117188 118.8125 C 67.472656 117.53125 65.832031 116.253906 64.222656 114.949219 L 63.824219 114.625 C 60.019531 111.539062 55.703125 108.039062 50.824219 106.496094 C 50.128906 106.269531 49.414062 106.148438 48.679688 106.140625 C 48.027344 106.125 47.402344 106.246094 46.800781 106.5 C 46.203125 106.757812 45.683594 107.128906 45.242188 107.609375 C 44.070312 108.90625 43.523438 110.988281 43.753906 113.324219 C 44.179688 117.640625 47.355469 122.136719 52.519531 125.789062 C 52.085938 126.027344 51.699219 126.328125 51.355469 126.683594 C 51.015625 127.042969 50.734375 127.445312 50.519531 127.886719 C 50.300781 128.332031 50.152344 128.796875 50.078125 129.285156 C 50.003906 129.777344 50.007812 130.265625 50.082031 130.753906 C 50.664062 136.402344 57.414062 139.882812 61.386719 141.453125 C 67.9375 143.960938 74.714844 145.359375 81.722656 145.648438 C 81.511719 146.15625 81.320312 146.667969 81.144531 147.183594 C 80.898438 147.171875 80.644531 147.167969 80.390625 147.164062 C 77.109375 147.164062 72.441406 148.175781 70.085938 151.027344 C 69.457031 151.78125 69.027344 152.636719 68.796875 153.589844 C 68.566406 154.546875 68.5625 155.503906 68.78125 156.460938 C 69.339844 159.425781 72.019531 160.859375 74.570312 161.871094 C 75.308594 162.164062 76.070312 162.414062 76.828125 162.660156 C 77.234375 162.792969 77.640625 162.925781 78.046875 163.066406 C 77.90625 163.144531 77.257812 163.5 77.257812 163.5 C 73.097656 165.894531 68.015625 166.3125 63.101562 166.71875 C 62.171875 166.792969 61.253906 166.871094 60.351562 166.957031 C 55.636719 167.421875 50.144531 168.285156 45.167969 171.179688 C 41.535156 173.285156 39.917969 176.121094 40.730469 178.957031 C 41.453125 181.476562 43.996094 183.152344 46.414062 184.351562 C 45.855469 184.792969 45.285156 185.226562 44.707031 185.664062 C 42.121094 187.625 39.449219 189.648438 38.054688 192.542969 C 36.195312 196.425781 38.265625 201.042969 44.210938 206.261719 C 43.890625 207.0625 43.601562 207.894531 43.332031 208.792969 C 43.152344 209.238281 42.910156 209.652344 42.613281 210.03125 C 41.992188 210.910156 41.226562 212.007812 41.621094 213.214844 C 42.175781 214.949219 43.84375 215.820312 45.3125 216.585938 C 45.71875 216.800781 46.109375 217.003906 46.457031 217.21875 C 47.730469 217.960938 49.09375 218.457031 50.542969 218.714844 C 47.632812 220.042969 44.734375 221.839844 43.183594 225.507812 C 42.285156 227.652344 42.007812 229.875 42.355469 232.175781 C 42.296875 232.507812 42.3125 232.832031 42.398438 233.152344 C 42.914062 235.132812 43.316406 237.230469 43.707031 239.257812 C 45.066406 246.324219 46.472656 253.632812 52.84375 258.285156 C 58.335938 262.300781 65.246094 264.535156 71.898438 266.347656 C 79.46875 268.324219 87.164062 269.480469 94.980469 269.816406 C 97.140625 269.933594 99.386719 269.992188 101.652344 269.992188 C 107.449219 269.972656 113.230469 269.640625 118.992188 268.996094 C 125.433594 268.316406 132.09375 267.613281 138.238281 265.070312 C 142.597656 263.347656 146.261719 260.671875 149.222656 257.035156 C 150.703125 257.484375 152.21875 257.683594 153.761719 257.628906 C 154.363281 257.628906 154.957031 257.613281 155.527344 257.601562 C 155.933594 257.589844 156.328125 257.578125 156.695312 257.574219 C 160.546875 257.546875 164.566406 257.367188 167.703125 255.492188 C 168.242188 255.171875 168.585938 254.707031 168.734375 254.097656 C 168.886719 253.511719 168.804688 252.964844 168.488281 252.449219 C 168.289062 252.132812 168.042969 251.769531 167.773438 251.375 C 166.765625 249.90625 165.246094 247.683594 165.453125 246.242188 C 165.5 245.921875 166.183594 245.152344 171.488281 245.003906 C 171.789062 244.996094 172.03125 244.992188 172.191406 244.980469 C 172.792969 244.941406 173.390625 244.925781 173.992188 244.925781 C 175.671875 244.925781 177.390625 245.054688 179.054688 245.183594 C 180.75 245.3125 182.5 245.445312 184.242188 245.445312 C 185.324219 245.453125 186.402344 245.390625 187.472656 245.265625 C 189.921875 244.972656 193.257812 243.851562 194.613281 241.644531 C 194.957031 241.082031 195.15625 240.46875 195.207031 239.808594 C 195.261719 239.152344 195.160156 238.515625 194.90625 237.90625 C 193.679688 234.558594 188.980469 233.972656 185.546875 233.546875 C 184.886719 233.464844 184.28125 233.386719 183.769531 233.300781 L 183.101562 233.191406 C 181.515625 232.949219 179.878906 232.695312 179.410156 231.355469 C 179.332031 231.167969 179.34375 230.988281 179.445312 230.8125 C 180.027344 229.769531 182.953125 229.117188 183.914062 228.90625 L 184.175781 228.847656 C 189.925781 227.523438 196.050781 227.523438 201.972656 227.523438 C 202.875 227.523438 203.773438 227.523438 204.664062 227.515625 L 207.238281 227.527344 C 213.359375 227.527344 221.578125 226.933594 222.257812 221.789062 C 222.851562 217.226562 216.273438 214.992188 211.917969 213.515625 C 210.839844 213.148438 209.90625 212.832031 209.269531 212.546875 C 207.945312 211.996094 206.710938 211.285156 205.570312 210.417969 C 205.28125 210.183594 205.113281 209.957031 205.125 209.816406 C 205.15625 209.414062 206.167969 208.824219 206.773438 208.472656 L 206.917969 208.386719 C 210.359375 206.390625 214.542969 206.113281 218.585938 205.851562 L 219.242188 205.808594 C 221.410156 205.664062 223.65625 205.621094 225.824219 205.578125 C 229.789062 205.597656 233.734375 205.328125 237.660156 204.777344 C 240.097656 204.371094 243.121094 202.84375 244.390625 200.351562 C 244.785156 199.574219 244.980469 198.75 244.96875 197.878906 C 244.957031 197.007812 244.742188 196.191406 244.324219 195.425781 C 242.980469 192.722656 240.082031 191.335938 237.28125 189.992188 C 237.164062 189.9375 237.050781 189.878906 236.933594 189.824219 C 239.5625 188.503906 242.058594 186.730469 241.742188 184.292969 C 241.332031 181.238281 238.613281 179.070312 233.875 178.019531 C 233.1875 177.867188 232.433594 177.742188 231.65625 177.609375 C 229.125 177.179688 226.253906 176.695312 224.578125 175.128906 C 224.484375 175.042969 224.421875 174.957031 224.433594 174.925781 C 224.679688 174.085938 228.683594 172.710938 233.363281 171.855469 L 236.058594 171.367188 C 238.457031 170.9375 240.839844 170.503906 243.234375 170.019531 L 243.835938 169.894531 C 247.453125 169.15625 251.550781 168.320312 254.527344 165.652344 C 254.820312 165.367188 255.085938 165.058594 255.324219 164.722656 C 255.5625 164.390625 255.765625 164.039062 255.9375 163.664062 C 256.109375 163.292969 256.246094 162.910156 256.347656 162.511719 C 256.449219 162.113281 256.511719 161.710938 256.539062 161.300781 C 256.566406 160.894531 256.554688 160.484375 256.503906 160.078125 C 256.457031 159.671875 256.371094 159.273438 256.246094 158.878906 C 256.125 158.488281 255.964844 158.113281 255.773438 157.75 C 255.582031 157.390625 255.355469 157.046875 255.101562 156.726562 C 254.007812 155.335938 252.207031 154.757812 250.46875 154.199219 C 249.601562 153.949219 248.757812 153.628906 247.941406 153.238281 C 248.859375 152.9375 249.78125 152.644531 250.703125 152.351562 C 252.132812 151.902344 253.5625 151.453125 254.976562 150.957031 C 255.683594 150.710938 256.167969 150.238281 256.429688 149.539062 C 256.664062 148.902344 256.605469 148.296875 256.25 147.71875 C 255.898438 147.125 255.53125 146.539062 255.160156 145.953125 C 254.738281 145.28125 254.3125 144.609375 253.917969 143.921875 C 254.367188 143.632812 254.828125 143.371094 255.304688 143.132812 L 255.949219 142.792969 C 258.238281 141.566406 260.835938 140.179688 262.539062 137.972656 C 263 137.425781 263.324219 136.804688 263.511719 136.113281 C 263.699219 135.421875 263.730469 134.722656 263.609375 134.019531 Z M 200.402344 77.636719 C 211.675781 80.332031 222.378906 86.023438 228.917969 95.859375 C 235.363281 105.566406 236.3125 117.800781 233.191406 128.820312 C 229.949219 140.289062 222.328125 149.398438 212.601562 155.777344 C 214.65625 152.191406 216.257812 148.414062 217.410156 144.449219 C 221.203125 131.429688 218.773438 117.347656 211.550781 105.984375 C 202.382812 91.546875 186.417969 83.335938 169.949219 82.335938 C 177.773438 74.542969 190.304688 75.21875 200.402344 77.636719 Z M 204.128906 101.40625 C 205.292969 102.660156 206.378906 103.976562 207.394531 105.359375 C 208.40625 106.738281 209.335938 108.171875 210.183594 109.660156 C 211.03125 111.144531 211.792969 112.675781 212.464844 114.25 C 213.136719 115.824219 213.71875 117.429688 214.203125 119.070312 C 214.691406 120.710938 215.085938 122.375 215.382812 124.0625 C 215.679688 125.746094 215.878906 127.445312 215.980469 129.152344 C 216.082031 130.859375 216.085938 132.570312 215.992188 134.277344 C 215.898438 135.988281 215.707031 137.6875 215.417969 139.375 C 213.132812 152.511719 205.371094 162.933594 195.191406 170.742188 C 196.773438 168.191406 198.070312 165.503906 199.085938 162.679688 C 199.632812 161.164062 200.085938 159.621094 200.449219 158.050781 C 200.808594 156.480469 201.074219 154.894531 201.242188 153.292969 C 201.414062 151.691406 201.484375 150.085938 201.460938 148.472656 C 201.4375 146.863281 201.316406 145.261719 201.101562 143.664062 C 200.882812 142.070312 200.570312 140.492188 200.164062 138.933594 C 199.753906 137.375 199.253906 135.847656 198.664062 134.347656 C 198.070312 132.851562 197.390625 131.394531 196.625 129.976562 C 195.855469 128.558594 195.007812 127.195312 194.074219 125.882812 C 180.589844 106.511719 154.011719 97.34375 130.886719 100.96875 C 132.636719 98.78125 134.609375 96.824219 136.804688 95.089844 C 136.949219 95.019531 137.070312 94.925781 137.171875 94.804688 C 145.4375 88.402344 156.1875 85.394531 166.679688 85.25 C 170.1875 85.222656 173.664062 85.558594 177.105469 86.253906 C 180.546875 86.949219 183.878906 87.996094 187.105469 89.386719 C 190.328125 90.777344 193.375 92.484375 196.242188 94.507812 C 199.109375 96.535156 201.738281 98.832031 204.128906 101.40625 Z M 153.3125 69.894531 C 153.515625 66.957031 153.894531 61.210938 156.515625 59.210938 C 158.238281 57.894531 159.414062 61.722656 159.617188 62.714844 C 160.042969 64.746094 159.8125 66.984375 159.660156 69.035156 C 159.300781 73.628906 158.964844 78.269531 158.324219 82.835938 C 156.773438 83.070312 155.226562 83.367188 153.703125 83.730469 C 153.148438 79.132812 153.019531 74.519531 153.3125 69.894531 Z M 145.820312 47.339844 C 146.386719 45.136719 148.78125 42.578125 150.445312 45.535156 C 152.007812 48.328125 151.867188 52.234375 152.136719 55.339844 C 152.273438 56.984375 154.765625 57.558594 155.171875 55.753906 C 155.980469 52.113281 156.6875 48.457031 157.621094 44.839844 C 158.464844 41.554688 159.460938 36.257812 162.378906 34.082031 C 163.761719 33.050781 165.28125 34.996094 165.742188 36.152344 C 166.625 38.398438 165.925781 41.1875 165.425781 43.429688 C 164.324219 48.289062 162.320312 53.003906 162.191406 58.035156 C 162.160156 59.328125 163.941406 60.15625 164.832031 59.128906 C 166.441406 57.246094 168.269531 55.597656 170.3125 54.191406 C 171.1875 53.574219 172.140625 53.125 173.171875 52.835938 C 174.671875 52.449219 174.492188 54.824219 174.492188 55.6875 C 174.476562 59.449219 171.320312 63.050781 169.132812 65.851562 C 167.042969 68.519531 164.78125 71.085938 163.003906 73.984375 C 162.835938 74.289062 162.773438 74.613281 162.824219 74.957031 C 162.871094 75.296875 163.019531 75.59375 163.261719 75.839844 C 163.507812 76.082031 163.800781 76.230469 164.144531 76.277344 C 164.488281 76.328125 164.8125 76.265625 165.117188 76.097656 C 165.644531 75.808594 166.191406 75.5625 166.761719 75.363281 C 166.285156 77.804688 165.070312 80.03125 163.929688 82.292969 C 163.109375 82.328125 162.292969 82.382812 161.46875 82.460938 C 162.253906 77.003906 162.730469 71.519531 162.902344 66.007812 C 162.996094 62.332031 162.167969 56.578125 157.574219 55.996094 C 153.421875 55.472656 151.804688 60.722656 151.082031 63.851562 C 149.53125 70.574219 149.871094 77.75 150.703125 84.546875 C 150.308594 84.667969 149.914062 84.792969 149.523438 84.921875 C 150.667969 78.671875 149.34375 71.761719 147.128906 65.824219 C 147.289062 65.636719 147.382812 65.425781 147.414062 65.183594 C 147.445312 64.941406 147.410156 64.714844 147.304688 64.492188 C 145.277344 59.320312 144.445312 52.757812 145.820312 47.339844 Z M 144.199219 78.699219 C 144.9375 76.984375 145.585938 75.234375 146.144531 73.449219 C 147.011719 77.625 147.207031 81.945312 146.144531 85.90625 C 146.121094 85.996094 146.105469 86.089844 146.097656 86.179688 C 143.675781 87.171875 141.347656 88.339844 139.105469 89.6875 C 140.65625 85.96875 142.652344 82.394531 144.199219 78.699219 Z M 133.304688 81.03125 C 135.265625 75.585938 138.5 68.820312 143.820312 65.773438 C 144.667969 70.222656 142.433594 75.109375 140.699219 79.058594 C 138.691406 83.601562 136.125 87.992188 134.703125 92.769531 C 132.953125 94.191406 131.328125 95.75 129.835938 97.4375 C 129.984375 91.839844 131.410156 86.269531 133.304688 81.03125 Z M 158.578125 105.71875 C 171.542969 109.320312 184.078125 116.910156 191.84375 128.066406 C 200.171875 140.035156 200.257812 155.285156 193.351562 167.957031 C 189.953125 174.179688 184.828125 179.183594 178.933594 183.046875 C 179.707031 182.070312 180.429688 181.058594 181.105469 180.011719 C 188.816406 168.140625 186.058594 153.769531 178.121094 142.839844 C 169.402344 130.851562 155.605469 123.261719 141.3125 120.15625 C 137.714844 119.382812 134.078125 118.972656 130.402344 118.929688 C 126.726562 118.882812 123.082031 119.203125 119.46875 119.886719 C 115.855469 120.574219 112.347656 121.609375 108.941406 122.996094 C 105.535156 124.382812 102.300781 126.09375 99.238281 128.128906 C 96.203125 130.132812 93.371094 132.390625 90.734375 134.898438 C 92.054688 132.03125 93.613281 129.296875 95.40625 126.695312 C 97.203125 124.097656 99.207031 121.671875 101.417969 119.417969 C 103.632812 117.167969 106.023438 115.121094 108.589844 113.28125 C 111.160156 111.445312 113.863281 109.839844 116.710938 108.46875 C 129.707031 102.210938 144.851562 101.914062 158.578125 105.71875 Z M 135.769531 240.339844 C 133.613281 241.128906 131.402344 241.71875 129.140625 242.109375 C 129.363281 239.960938 129.367188 237.8125 129.15625 235.664062 C 129.152344 235.492188 129.0625 235.40625 128.890625 235.40625 C 128.71875 235.40625 128.628906 235.492188 128.621094 235.664062 C 128.34375 237.972656 127.820312 240.230469 127.054688 242.429688 C 119.796875 243.375 112.054688 242.699219 104.988281 241.394531 C 104.785156 239.625 104.714844 237.851562 104.777344 236.074219 C 104.792969 235.398438 103.691406 235.226562 103.585938 235.914062 C 103.265625 237.59375 103.054688 239.289062 102.953125 240.996094 C 102.269531 240.855469 101.589844 240.710938 100.917969 240.5625 C 97.015625 239.6875 93.191406 238.535156 89.453125 237.113281 C 89.074219 236.101562 88.792969 235.0625 88.605469 233.996094 C 88.5 233.003906 88.488281 232.003906 88.308594 231.015625 C 88.230469 230.570312 87.609375 230.648438 87.484375 231.015625 C 87.15625 232.140625 87.027344 233.289062 87.101562 234.457031 C 87.113281 235.027344 87.101562 235.609375 87.125 236.183594 C 84.550781 235.117188 82.039062 233.917969 79.59375 232.589844 C 79.707031 231.160156 79.355469 229.855469 78.539062 228.675781 C 78.425781 228.492188 78.269531 228.441406 78.074219 228.527344 C 77.875 228.609375 77.800781 228.757812 77.851562 228.964844 C 78.113281 229.957031 78.238281 230.996094 78.511719 231.988281 C 76.800781 231.023438 75.128906 229.992188 73.5 228.898438 C 73.441406 228.625 73.382812 228.351562 73.332031 228.082031 C 73.050781 226.625 73.113281 225.121094 72.847656 223.660156 C 72.820312 223.5625 72.753906 223.515625 72.652344 223.515625 C 72.550781 223.515625 72.484375 223.5625 72.457031 223.660156 C 72.222656 225.152344 72.199219 226.648438 72.390625 228.144531 C 71.585938 227.585938 70.796875 227.007812 70.019531 226.414062 C 69.699219 225.484375 69.460938 224.53125 69.3125 223.558594 C 69.15625 221.96875 69.230469 220.363281 69.132812 218.769531 C 69.128906 218.664062 69.085938 218.578125 69.011719 218.503906 C 68.933594 218.429688 68.84375 218.394531 68.738281 218.394531 C 68.632812 218.394531 68.542969 218.429688 68.46875 218.503906 C 68.390625 218.578125 68.351562 218.664062 68.347656 218.769531 C 68.078125 220.777344 67.960938 222.796875 67.996094 224.820312 C 63.96875 221.648438 60.542969 217.921875 57.722656 213.636719 C 55.917969 210.742188 55.007812 207.585938 54.984375 204.175781 C 56.171875 205.730469 57.558594 207.082031 59.144531 208.230469 C 59.230469 208.511719 59.390625 208.738281 59.625 208.914062 C 62.53125 211.25 65.070312 213.828125 68.152344 215.96875 C 71.773438 218.40625 75.578125 220.515625 79.566406 222.289062 C 87.035156 225.71875 94.9375 228.128906 102.847656 230.292969 C 114.816406 233.5625 127.277344 235.613281 139.378906 231.589844 C 141.804688 230.777344 144.078125 229.648438 146.191406 228.203125 C 148.304688 226.757812 150.179688 225.046875 151.816406 223.078125 C 149.785156 231.03125 143.839844 237.335938 135.769531 240.339844 Z M 60.066406 236.980469 C 61.574219 235.316406 63.183594 233.757812 64.890625 232.308594 C 66.074219 231.285156 67.460938 230.351562 68.71875 229.324219 C 68.9375 229.492188 69.164062 229.652344 69.382812 229.8125 C 68.238281 231.179688 67.171875 232.601562 66.1875 234.085938 C 65.738281 234.695312 65.351562 235.351562 64.949219 235.992188 C 64.726562 236.355469 64.507812 236.710938 64.292969 237.074219 C 64.050781 237.480469 64.226562 237.515625 64.183594 237.71875 C 64.210938 237.601562 64.167969 237.527344 64.050781 237.496094 C 63.933594 237.464844 63.855469 237.503906 63.820312 237.621094 C 63.746094 237.777344 63.734375 237.9375 63.792969 238.101562 C 63.847656 238.191406 63.925781 238.222656 64.027344 238.199219 C 65.097656 238.03125 66.082031 236.0625 66.664062 235.308594 C 67.878906 233.738281 69.476562 232.355469 70.757812 230.804688 C 73.484375 232.703125 76.320312 234.414062 79.273438 235.9375 C 79.277344 235.949219 79.285156 235.960938 79.292969 235.972656 C 79.269531 235.992188 79.253906 236.003906 79.226562 236.03125 C 78.988281 236.226562 78.738281 236.414062 78.496094 236.601562 C 77.792969 237.160156 77.195312 237.886719 76.550781 238.507812 C 75.164062 239.839844 73.777344 241.234375 73.34375 243.167969 C 73.308594 243.300781 73.359375 243.398438 73.488281 243.453125 C 73.617188 243.507812 73.71875 243.476562 73.792969 243.359375 C 75.039062 241.644531 76.410156 240.039062 77.90625 238.539062 C 78.695312 237.875 79.398438 237.132812 80.019531 236.308594 C 82.726562 237.675781 85.5 238.894531 88.335938 239.96875 C 87.171875 240.933594 86.15625 242.035156 85.289062 243.277344 C 85.167969 243.453125 85.410156 243.699219 85.585938 243.574219 C 86.816406 242.535156 87.972656 241.421875 89.058594 240.230469 C 92.671875 241.558594 96.351562 242.664062 100.097656 243.546875 C 106.242188 245.027344 112.472656 245.828125 118.789062 245.945312 C 117.757812 246.972656 116.8125 248.078125 115.957031 249.257812 C 115.757812 249.539062 116.21875 249.898438 116.433594 249.628906 C 117.519531 248.277344 119.019531 247.183594 120.300781 245.945312 C 126.449219 245.984375 132.402344 244.90625 138.148438 242.714844 C 140.292969 241.851562 142.300781 240.742188 144.171875 239.386719 C 143.574219 247.519531 129.027344 249.832031 122.960938 250.585938 C 110.515625 252.136719 97.730469 251.078125 85.515625 248.417969 C 80.421875 247.308594 75.539062 245.65625 70.585938 244.078125 C 66.570312 242.925781 62.675781 241.457031 58.898438 239.671875 C 55.027344 237.703125 50.960938 234.40625 51.703125 229.570312 C 52.3125 225.589844 57.53125 224.054688 60.941406 222.542969 C 62.257812 223.871094 63.636719 225.132812 65.019531 226.335938 C 65.96875 227.164062 66.949219 227.953125 67.945312 228.722656 C 66.910156 229.550781 65.925781 230.480469 64.964844 231.289062 C 63.042969 232.894531 61.253906 234.636719 59.597656 236.511719 C 59.3125 236.828125 59.777344 237.300781 60.066406 236.980469 Z M 150.078125 220.316406 C 146.570312 225.683594 140.328125 228.4375 134.289062 229.792969 C 122.9375 232.335938 111.714844 229.582031 100.796875 226.515625 C 93.742188 224.617188 86.882812 222.175781 80.210938 219.199219 C 76.859375 217.652344 73.636719 215.871094 70.546875 213.855469 C 67.460938 211.859375 64.984375 209.335938 62.179688 207.035156 C 62.070312 206.679688 61.863281 206.398438 61.554688 206.191406 C 58.613281 204.121094 56.121094 201.523438 55.710938 197.914062 C 55.757812 197.679688 55.8125 197.453125 55.875 197.222656 C 56 196.789062 55.941406 196.386719 55.691406 196.011719 C 56.023438 192.902344 58.082031 190.023438 60.0625 187.761719 C 65.332031 181.773438 73.023438 177.949219 80.679688 176.167969 C 95.828125 172.648438 110.628906 180.898438 124.15625 186.613281 C 133.816406 190.699219 145.859375 195.683594 151.421875 205.152344 C 154.375 210.175781 153.128906 215.671875 150.078125 220.316406 Z M 93.617188 143.742188 C 97.832031 137.550781 105.117188 134.300781 112.011719 132.035156 C 119.441406 129.585938 127.269531 128.046875 135.101562 128.792969 C 144.390625 129.679688 153.121094 133.921875 160.84375 138.921875 C 167.84375 143.445312 172.941406 149.4375 174.875 157.65625 C 174.890625 157.726562 174.914062 157.796875 174.949219 157.863281 C 175.464844 160.820312 176.03125 163.511719 175.804688 166.550781 C 175.554688 169.515625 174.8125 172.347656 173.570312 175.050781 C 171.035156 180.726562 166.097656 184.828125 159.789062 185.203125 C 159.570312 185.214844 159.375 185.289062 159.203125 185.425781 C 151.1875 186.234375 143.160156 187.152344 135.132812 185.859375 C 127.578125 184.640625 120.25 181.808594 113.476562 178.332031 C 102.1875 172.542969 80.390625 158.851562 93.355469 144.511719 C 93.5625 144.292969 93.648438 144.039062 93.617188 143.742188 Z M 143.511719 192.765625 C 143.40625 192.753906 143.300781 192.75 143.195312 192.753906 C 140.210938 190.886719 137.128906 189.195312 133.949219 187.679688 C 142.386719 189.132812 150.835938 188.3125 159.375 187.449219 C 159.582031 187.429688 159.761719 187.355469 159.925781 187.230469 C 166.4375 186.796875 171.453125 183.066406 174.632812 177.460938 C 176.253906 174.539062 177.265625 171.417969 177.667969 168.097656 C 178.1875 164.113281 177.515625 160.804688 176.839844 156.90625 C 176.820312 156.765625 176.769531 156.640625 176.691406 156.523438 C 174.714844 148.761719 170.023438 142.933594 163.546875 138.289062 C 155.574219 132.582031 145.933594 128.039062 136.132812 126.878906 C 127.449219 125.839844 118.886719 127.621094 110.660156 130.332031 C 103.449219 132.707031 96.082031 136.382812 91.753906 142.859375 C 91.628906 143.035156 91.570312 143.230469 91.585938 143.445312 C 87 148.742188 85.953125 154.914062 89.269531 161.277344 C 92.335938 167.152344 98.460938 171.566406 104.140625 175.203125 C 101.714844 174.421875 99.253906 173.78125 96.753906 173.28125 C 96.550781 172.980469 96.277344 172.78125 95.925781 172.683594 C 89.8125 170.78125 85.441406 164.976562 83.957031 158.953125 C 82.503906 153.023438 84.53125 146.925781 88.023438 142.136719 C 98.003906 130.957031 111 123.109375 126.164062 122.058594 C 141.089844 121.03125 156.703125 126.78125 167.988281 136.445312 C 178.273438 145.246094 185.71875 158.800781 181.332031 172.457031 C 178.964844 179.820312 173.09375 186.132812 166.40625 189.820312 C 159.480469 193.640625 151.167969 193.886719 143.511719 192.765625 Z M 110.558594 66.515625 C 111.417969 63.507812 112.519531 60.59375 113.859375 57.769531 C 114.410156 56.632812 118.191406 49.476562 120.292969 51.1875 C 121.554688 52.214844 118.871094 57.863281 118.445312 58.949219 C 117.4375 61.496094 116.152344 63.96875 115.347656 66.585938 C 114.871094 68.152344 116.828125 69.058594 117.933594 68.089844 C 120.226562 66.074219 123 62.644531 126.195312 62.21875 C 129.242188 61.804688 123.441406 70.808594 122.972656 71.890625 C 122.917969 72.019531 122.878906 72.15625 122.855469 72.296875 C 119.917969 75.589844 118.953125 79.570312 118.414062 83.71875 C 116.671875 78.605469 114.441406 73.714844 111.722656 69.046875 C 111.300781 68.320312 110.886719 67.558594 110.457031 66.785156 C 110.5 66.699219 110.535156 66.609375 110.558594 66.515625 Z M 87.078125 77.292969 C 86.367188 76.214844 85.828125 75.054688 85.460938 73.816406 C 85.292969 73.285156 85.46875 72.902344 85.242188 72.902344 C 86.3125 72.671875 88.078125 73.671875 88.925781 74.054688 C 90.828125 74.964844 92.675781 75.980469 94.460938 77.105469 C 97.386719 78.875 100.15625 80.871094 103.019531 82.71875 C 104.421875 83.625 105.757812 81.902344 105.136719 80.605469 C 102.582031 75.277344 99.363281 70.1875 97.769531 64.449219 C 97.253906 62.613281 96.359375 59.457031 97.769531 57.8125 C 99.320312 55.996094 102.582031 60.304688 103.300781 61.253906 C 106.078125 64.964844 108.378906 69.300781 110.585938 73.347656 C 113.871094 79.332031 116.183594 85.671875 117.523438 92.363281 C 117.808594 93.8125 120.28125 93.882812 120.503906 92.363281 C 121.355469 86.566406 120.855469 79.875 124.582031 75.054688 C 127.605469 78.378906 126.664062 84.496094 126.238281 88.503906 C 125.761719 92.945312 124.683594 97.617188 125.324219 102.097656 C 124.6875 102.265625 124.054688 102.4375 123.425781 102.621094 C 123.0625 102.347656 122.65625 102.25 122.207031 102.324219 C 116.054688 103.246094 107.636719 105.207031 101.808594 102.089844 C 100.546875 101.417969 104.363281 99.625 104.992188 99.324219 C 107.207031 98.300781 109.523438 97.628906 111.945312 97.3125 C 113.335938 97.121094 113.359375 95.101562 112.316406 94.488281 C 106.507812 91.089844 100.339844 88.367188 94.734375 84.613281 C 91.699219 82.679688 89.148438 80.238281 87.078125 77.292969 Z M 94.191406 88.019531 C 98.3125 90.707031 102.816406 92.84375 107.167969 95.164062 C 102.855469 96.34375 97.546875 98.722656 98.441406 102.679688 C 99.113281 105.652344 104.238281 106.21875 106.53125 106.511719 C 108.859375 106.777344 111.191406 106.800781 113.527344 106.589844 C 107.765625 109.601562 102.679688 113.5 98.273438 118.277344 C 99.246094 115.261719 100.394531 112.3125 101.710938 109.429688 C 101.914062 108.960938 101.328125 108.363281 100.9375 108.832031 C 98.976562 111.199219 97.78125 114.003906 96.699219 116.855469 C 95.996094 118.550781 95.4375 120.296875 95.035156 122.085938 C 94.902344 122.253906 94.769531 122.417969 94.640625 122.589844 C 96.59375 116.441406 97.621094 110.203125 94.199219 105.414062 C 94.144531 103.570312 94.242188 101.738281 94.496094 99.914062 C 95.023438 97.058594 95.90625 94.191406 95.773438 91.261719 C 95.769531 91.117188 95.695312 91.035156 95.554688 91.015625 C 95.410156 90.996094 95.316406 91.054688 95.277344 91.191406 C 94.515625 94.113281 92.289062 99.175781 92.058594 103.359375 C 91.503906 103.242188 91.015625 103.371094 90.59375 103.753906 C 89.839844 104.394531 89.164062 105.109375 88.574219 105.902344 C 88.9375 99.613281 90.59375 93.085938 94.191406 88.019531 Z M 70.355469 112.933594 C 68.742188 110.613281 67.84375 108.039062 67.660156 105.21875 C 67.601562 104.542969 67.628906 103.867188 67.75 103.195312 C 67.785156 103.21875 67.832031 103.246094 67.882812 103.277344 C 70.335938 104.78125 72.191406 107.914062 73.828125 110.195312 C 75.386719 112.367188 76.804688 114.667969 78.476562 116.769531 C 79.480469 118.042969 81.414062 116.652344 81.058594 115.265625 C 79.640625 109.847656 77.425781 104.660156 75.929688 99.261719 C 74.761719 95.054688 72.695312 87.957031 75.769531 84.027344 C 79.527344 87.769531 80.953125 93.574219 82.039062 98.585938 C 83.246094 104.65625 83.96875 110.78125 84.210938 116.964844 C 84.300781 118.636719 86.867188 119.160156 87.242188 117.375 C 88.003906 113.765625 89.105469 109.917969 91.582031 107.109375 C 94.335938 111.0625 92.898438 116.726562 91.675781 121.070312 C 90.253906 126.140625 87.921875 130.980469 86.84375 136.148438 L 86.84375 136.167969 C 86.425781 137.15625 86.042969 138.144531 85.6875 139.15625 C 85.554688 139.484375 85.550781 139.808594 85.671875 140.140625 C 85.644531 140.179688 85.613281 140.222656 85.589844 140.261719 L 85.589844 140.269531 C 85.566406 140.289062 85.546875 140.3125 85.53125 140.332031 C 85.519531 140.347656 85.507812 140.363281 85.496094 140.382812 C 83.832031 138.523438 82.003906 136.816406 80.335938 134.957031 C 79.308594 133.910156 78.574219 132.691406 78.136719 131.292969 C 77.546875 129.113281 80.953125 127.734375 82.40625 127.0625 C 83.558594 126.53125 83.25 125 82.40625 124.394531 C 77.886719 121.167969 73.503906 117.570312 70.355469 112.933594 Z M 77.597656 125.515625 C 77.5625 125.542969 77.527344 125.570312 77.492188 125.59375 C 76.753906 124.949219 76.003906 124.3125 75.238281 123.683594 C 76.023438 124.320312 76.8125 124.929688 77.597656 125.515625 Z M 47.453125 112.6875 C 46.988281 107.980469 51.265625 110.539062 53.667969 111.949219 C 57.320312 114.21875 60.757812 116.769531 63.992188 119.605469 C 67.769531 122.769531 71.859375 125.597656 75.539062 128.875 C 75.09375 129.828125 74.957031 130.824219 75.136719 131.859375 C 71.066406 129.308594 66.84375 126.996094 62.203125 125.714844 C 61.128906 125.429688 60.035156 125.265625 58.921875 125.222656 C 54.039062 122.835938 48.003906 118.203125 47.453125 112.6875 Z M 68.191406 139.648438 C 63.230469 138.386719 57.90625 136.703125 54.753906 132.398438 C 52.96875 129.972656 54.257812 128.53125 57.09375 128.234375 C 57.390625 128.199219 57.6875 128.183594 57.988281 128.183594 C 58.128906 128.25 58.273438 128.3125 58.410156 128.375 C 58.886719 128.59375 59.355469 128.578125 59.820312 128.332031 C 61.492188 128.652344 63.117188 129.140625 64.691406 129.796875 C 69.59375 131.675781 74.039062 134.777344 78.40625 137.644531 C 78.476562 137.71875 78.550781 137.796875 78.621094 137.871094 C 77.671875 137.582031 76.738281 137.320312 75.910156 137.035156 C 71.953125 135.664062 67.929688 134.457031 63.929688 133.214844 C 63.304688 133.019531 63.0625 133.960938 63.660156 134.175781 C 67.261719 135.464844 70.851562 136.785156 74.398438 138.207031 C 76.640625 139.105469 79.429688 140.71875 82.03125 141.296875 C 82.242188 141.507812 82.457031 141.71875 82.664062 141.925781 C 77.761719 141.671875 72.9375 140.914062 68.191406 139.648438 Z M 76.625 158.628906 C 74.359375 157.859375 70.546875 155.910156 73.203125 153.128906 C 74.964844 151.289062 78.257812 150.820312 80.859375 150.925781 C 80.28125 154.140625 80.382812 157.335938 81.164062 160.507812 C 79.71875 159.71875 78.207031 159.09375 76.625 158.628906 Z M 49.386719 214.421875 C 48.226562 213.960938 47.128906 213.382812 46.09375 212.6875 C 45.917969 212.574219 45.726562 212.535156 45.523438 212.5625 C 45.589844 212.488281 45.671875 212.394531 45.773438 212.277344 C 46.839844 210.949219 47.0625 209.257812 47.652344 207.699219 C 48.058594 206.609375 48.550781 205.882812 48.003906 204.730469 C 47.433594 203.527344 45.597656 202.441406 44.703125 201.503906 C 42.941406 199.671875 40.234375 196.671875 41.550781 193.917969 C 42.398438 192.164062 44.40625 190.859375 45.894531 189.710938 C 47.890625 188.234375 49.757812 186.613281 51.5 184.84375 C 52.125 184.183594 52.128906 182.835938 51.183594 182.417969 C 49.640625 181.730469 43.292969 179.386719 44.363281 176.871094 C 45.265625 174.765625 48.664062 173.449219 50.597656 172.695312 C 53.105469 171.808594 55.683594 171.226562 58.328125 170.945312 C 65.945312 169.9375 75.910156 170.558594 81.898438 164.804688 C 82.105469 164.613281 82.289062 164.402344 82.453125 164.171875 C 83.988281 167.4375 86.171875 170.183594 89.011719 172.410156 C 85.933594 172.316406 82.878906 172.578125 79.859375 173.191406 C 70.53125 175.085938 61.269531 180.625 55.660156 188.367188 C 53.730469 191.019531 52.363281 194.449219 52.570312 197.785156 C 51.496094 202.710938 51.5 207.777344 53.636719 212.46875 C 54.148438 213.582031 54.730469 214.660156 55.386719 215.695312 C 53.359375 215.386719 51.363281 214.964844 49.386719 214.421875 Z M 46.160156 228.519531 C 47.191406 222.683594 53.550781 221.664062 58.136719 219.464844 C 58.5625 219.984375 59.011719 220.496094 59.464844 220.996094 C 55.96875 222.585938 52.089844 223.925781 50.246094 227.523438 C 48.335938 231.242188 50.355469 235.515625 53.074219 238.152344 C 56.429688 241.417969 61.257812 243.128906 65.597656 244.613281 C 71.304688 246.5625 77.074219 248.472656 82.9375 249.914062 C 89.851562 251.636719 96.867188 252.699219 103.980469 253.105469 C 111.09375 253.511719 118.183594 253.253906 125.25 252.328125 C 132.417969 251.351562 147.390625 247.832031 146.179688 237.929688 C 146.175781 237.890625 146.167969 237.855469 146.15625 237.816406 C 146.441406 237.570312 146.71875 237.324219 146.992188 237.070312 C 151.65625 248.40625 134.78125 254.21875 126.546875 255.628906 C 113.582031 257.855469 100.03125 257.136719 87.121094 254.945312 C 80.964844 253.886719 74.914062 252.390625 68.96875 250.464844 C 63.582031 248.71875 57.976562 246.773438 53.5 243.1875 C 49.207031 239.75 45.132812 234.320312 46.160156 228.519531 Z M 132.003906 263.226562 C 129.109375 263.972656 126.175781 264.519531 123.203125 264.863281 C 123.316406 264.113281 123.234375 263.386719 122.957031 262.683594 C 122.835938 262.273438 122.664062 261.882812 122.4375 261.515625 C 122.351562 261.382812 122.234375 261.292969 122.082031 261.242188 C 122.023438 261.21875 121.648438 261.140625 121.792969 261.21875 C 121.71875 261.175781 121.644531 261.179688 121.570312 261.226562 C 121.5 261.269531 121.460938 261.335938 121.464844 261.421875 C 121.429688 261.460938 121.402344 261.507812 121.382812 261.554688 C 121.332031 261.691406 121.320312 261.832031 121.347656 261.976562 C 121.421875 262.34375 121.496094 262.714844 121.535156 263.09375 C 121.539062 263.753906 121.644531 264.398438 121.851562 265.027344 C 118.703125 265.378906 115.539062 265.601562 112.453125 265.832031 C 106.132812 266.296875 99.8125 266.339844 93.488281 265.964844 C 93.203125 264.4375 92.617188 263.03125 91.734375 261.746094 C 91.65625 261.636719 91.433594 261.660156 91.453125 261.824219 C 91.566406 262.71875 91.742188 263.597656 91.984375 264.464844 C 92.105469 264.941406 92.207031 265.421875 92.335938 265.890625 C 92.140625 265.878906 91.945312 265.871094 91.75 265.855469 C 89.804688 265.71875 87.871094 265.515625 85.941406 265.265625 C 85.746094 264.925781 85.574219 264.570312 85.425781 264.207031 C 84.949219 262.765625 84.667969 261.28125 84.585938 259.761719 C 84.582031 259.65625 84.542969 259.566406 84.464844 259.488281 C 84.390625 259.414062 84.296875 259.378906 84.1875 259.378906 C 84.082031 259.378906 83.988281 259.414062 83.914062 259.488281 C 83.835938 259.566406 83.792969 259.65625 83.792969 259.761719 C 83.675781 261.378906 83.785156 262.980469 84.121094 264.566406 C 84.15625 264.710938 84.191406 264.871094 84.230469 265.035156 C 80.050781 264.417969 75.925781 263.550781 71.851562 262.433594 C 70.550781 262.082031 69.230469 261.703125 67.902344 261.292969 C 67.75 261.035156 67.601562 260.78125 67.472656 260.523438 C 66.863281 259.375 66.457031 258.160156 66.246094 256.878906 C 66.242188 256.773438 66.203125 256.6875 66.128906 256.613281 C 66.050781 256.539062 65.960938 256.503906 65.855469 256.503906 C 65.75 256.503906 65.660156 256.539062 65.582031 256.613281 C 65.507812 256.6875 65.46875 256.773438 65.464844 256.878906 C 65.433594 258.179688 65.683594 259.421875 66.214844 260.609375 C 66.238281 260.660156 66.261719 260.714844 66.28125 260.769531 C 64.960938 260.328125 63.644531 259.84375 62.359375 259.304688 C 62.066406 258.789062 61.664062 258.304688 61.386719 257.835938 C 60.65625 256.492188 60.0625 255.09375 59.601562 253.640625 C 59.5625 253.507812 59.484375 253.402344 59.367188 253.328125 C 59.25 253.253906 59.121094 253.226562 58.984375 253.242188 C 58.847656 253.261719 58.730469 253.324219 58.636719 253.425781 C 58.546875 253.53125 58.496094 253.648438 58.492188 253.789062 C 58.554688 255.273438 58.910156 256.6875 59.558594 258.023438 C 57.796875 257.148438 56.136719 256.109375 54.578125 254.90625 C 50.585938 251.792969 49.019531 247.070312 47.988281 242.15625 C 52.128906 247.050781 57.832031 249.644531 63.710938 251.882812 C 71.050781 254.609375 78.578125 256.621094 86.296875 257.921875 C 100.976562 260.523438 116.308594 260.949219 130.945312 257.933594 C 136.445312 256.804688 142.984375 253.757812 146.996094 249.308594 C 146.667969 251.40625 145.976562 253.378906 144.925781 255.222656 C 144.234375 256.332031 143.441406 257.363281 142.539062 258.308594 C 139.328125 260.585938 135.816406 262.226562 132.003906 263.226562 Z M 256.003906 138.476562 C 254.316406 139.5 250.625 140.566406 250.0625 142.816406 C 249.625 144.589844 250.828125 146.425781 251.9375 148.019531 C 249.199219 148.914062 246.425781 149.714844 243.730469 150.746094 C 243.023438 151.015625 242.308594 151.816406 242.652344 152.644531 C 243.878906 155.601562 246.554688 156.59375 249.371094 157.644531 C 250.804688 158.171875 252.675781 158.804688 252.824219 160.570312 C 253.019531 162.863281 250.65625 164.007812 248.871094 164.707031 C 242.113281 167.339844 234.503906 167.476562 227.527344 169.273438 C 224.777344 169.984375 221.984375 170.929688 220.917969 173.765625 C 219.972656 176.285156 222.136719 178.320312 224.171875 179.308594 C 227.039062 180.691406 230.324219 181.082031 233.402344 181.761719 C 234.625 182.027344 238.910156 183.46875 237.566406 184.851562 C 236.015625 186.453125 233.253906 187.28125 231.3125 188.285156 C 230.179688 188.878906 230.460938 190.304688 231.3125 190.957031 C 233.125 192.34375 235.28125 193.242188 237.269531 194.332031 C 239.695312 195.652344 242.667969 197.328125 239.960938 199.960938 C 237.988281 201.882812 233.398438 201.523438 230.886719 201.578125 C 227.628906 201.648438 224.4375 201.679688 221.191406 201.921875 C 215.007812 202.378906 205.710938 202.191406 201.71875 207.976562 C 198.625 212.457031 207.304688 215.808594 209.96875 216.917969 C 211.769531 217.667969 218.292969 219.128906 218.546875 221.347656 C 218.789062 223.445312 207.082031 223.71875 205.8125 223.742188 C 198.828125 223.902344 191.894531 223.804688 184.972656 224.882812 C 181.34375 225.449219 176 226.675781 175.621094 231.101562 C 175.226562 235.710938 180.707031 236.585938 183.96875 237.125 C 185.984375 237.402344 187.96875 237.816406 189.925781 238.363281 C 192.308594 239.117188 191.050781 240.5 189.261719 241.097656 C 184.660156 242.636719 179.015625 241.644531 174.28125 241.320312 C 170.851562 241.085938 165.152344 240.953125 162.613281 243.777344 C 160.355469 246.296875 162.605469 250.222656 164.335938 252.9375 C 162.160156 253.707031 159.617188 253.734375 157.402344 253.804688 C 155.605469 253.875 152.261719 254.207031 150.59375 253.570312 C 151.078125 252.570312 151.445312 251.527344 151.699219 250.445312 C 151.953125 249.359375 152.085938 248.261719 152.097656 247.148438 C 152.109375 246.039062 152 244.9375 151.769531 243.847656 C 151.539062 242.761719 151.191406 241.710938 150.726562 240.699219 C 150.738281 238.652344 150.289062 236.714844 149.382812 234.882812 C 149.34375 234.804688 149.304688 234.730469 149.257812 234.660156 C 151.390625 232.117188 153.007812 229.28125 154.113281 226.148438 C 155.214844 223.019531 155.734375 219.792969 155.667969 216.472656 C 155.667969 216.316406 155.640625 216.164062 155.59375 216.015625 C 156.410156 213.21875 156.464844 210.402344 155.753906 207.574219 C 154.640625 203.085938 151.710938 199.390625 148.054688 196.296875 C 153.621094 196.726562 159.039062 196.007812 164.304688 194.148438 C 166.558594 193.308594 168.675781 192.214844 170.664062 190.867188 C 177.65625 187.976562 183.816406 183.847656 189.148438 178.480469 C 189.257812 178.445312 189.359375 178.398438 189.460938 178.339844 C 197.027344 173.828125 203.640625 168.3125 208.734375 161.609375 C 208.792969 161.589844 208.847656 161.566406 208.898438 161.535156 C 221.957031 154.714844 231.878906 143.875 236.171875 129.640625 C 236.382812 128.9375 236.578125 128.226562 236.753906 127.507812 C 238.945312 128.46875 241.808594 128.675781 243.882812 129.089844 C 248.359375 129.972656 253.085938 130.703125 257.28125 132.5625 C 258.078125 132.917969 259.945312 133.671875 260.007812 134.746094 C 260.089844 136.316406 257.039062 137.855469 256.003906 138.476562 Z M 256.003906 138.476562 " fill-opacity="1" fill-rule="nonzero"/><path fill="#a9a0f0" d="M 106.230469 246.226562 C 106.9375 246.320312 107.640625 246.289062 108.339844 246.128906 C 108.421875 246.105469 108.460938 246.046875 108.460938 245.960938 C 108.460938 245.875 108.421875 245.820312 108.339844 245.792969 C 107.640625 245.636719 106.9375 245.605469 106.230469 245.695312 C 106.058594 245.699219 105.972656 245.789062 105.972656 245.960938 C 105.972656 246.132812 106.058594 246.222656 106.230469 246.226562 Z M 106.230469 246.226562 " fill-opacity="1" fill-rule="nonzero"/><path fill="#a9a0f0" d="M 91.8125 247.128906 C 99.085938 248.007812 106.3125 248.636719 113.648438 248.226562 C 113.777344 248.21875 113.84375 248.152344 113.84375 248.023438 C 113.84375 247.890625 113.777344 247.824219 113.648438 247.820312 C 106.359375 247.34375 99.082031 246.746094 91.8125 246.027344 C 91.101562 245.957031 91.121094 247.046875 91.8125 247.128906 Z M 91.8125 247.128906 " fill-opacity="1" fill-rule="nonzero"/><path fill="#a9a0f0" d="M 178.609375 129.703125 C 178.457031 129.621094 178.296875 129.597656 178.125 129.644531 C 177.957031 129.6875 177.828125 129.785156 177.738281 129.933594 C 177.648438 130.085938 177.625 130.246094 177.671875 130.417969 C 177.714844 130.585938 177.816406 130.714844 177.964844 130.804688 C 178.417969 131.003906 178.796875 131.296875 179.109375 131.679688 C 179.3125 131.929688 179.707031 131.714844 179.714844 131.429688 C 179.722656 131.058594 179.625 130.714844 179.425781 130.398438 C 179.222656 130.082031 178.953125 129.851562 178.609375 129.703125 Z M 178.609375 129.703125 " fill-opacity="1" fill-rule="nonzero"/><path fill="#a9a0f0" d="M 136.421875 217.734375 C 137.34375 217.097656 138.023438 216.269531 138.464844 215.242188 C 138.511719 215.15625 138.519531 215.070312 138.496094 214.976562 C 138.46875 214.886719 138.414062 214.816406 138.332031 214.769531 C 138.25 214.71875 138.160156 214.707031 138.070312 214.730469 C 137.976562 214.753906 137.90625 214.804688 137.851562 214.882812 C 137.578125 215.316406 137.28125 215.734375 136.960938 216.136719 C 136.644531 216.546875 136.40625 217 136.105469 217.417969 C 135.972656 217.601562 136.238281 217.871094 136.421875 217.734375 Z M 136.421875 217.734375 " fill-opacity="1" fill-rule="nonzero"/><path fill="#a9a0f0" d="M 178.851562 125.140625 C 179.128906 125.339844 179.382812 125.578125 179.65625 125.78125 C 179.96875 126.019531 180.316406 126.148438 180.632812 126.359375 C 180.941406 126.566406 181.207031 126.179688 181.089844 125.90625 C 180.988281 125.558594 180.828125 125.238281 180.605469 124.949219 C 180.335938 124.660156 180.039062 124.402344 179.71875 124.171875 C 178.976562 123.574219 178.144531 123.167969 177.21875 122.949219 C 177.105469 122.921875 177 122.933594 176.898438 122.984375 C 176.796875 123.035156 176.722656 123.113281 176.679688 123.21875 C 176.632812 123.324219 176.628906 123.433594 176.664062 123.539062 C 176.695312 123.648438 176.761719 123.734375 176.859375 123.796875 C 177.492188 124.277344 178.199219 124.675781 178.851562 125.140625 Z M 178.851562 125.140625 " fill-opacity="1" fill-rule="nonzero"/><path fill="#a9a0f0" d="M 108.988281 80.882812 C 106.953125 75.050781 103.867188 69.652344 101.527344 63.945312 C 101.304688 63.402344 100.414062 63.632812 100.632812 64.191406 C 102.925781 69.976562 105.53125 75.613281 108.445312 81.109375 C 108.601562 81.40625 109.101562 81.199219 108.988281 80.882812 Z M 108.988281 80.882812 " fill-opacity="1" fill-rule="nonzero"/><path fill="#a9a0f0" d="M 121.910156 97.644531 C 122.457031 92.503906 123.175781 87.160156 123.015625 81.992188 C 123.011719 81.910156 122.980469 81.839844 122.921875 81.78125 C 122.863281 81.726562 122.792969 81.699219 122.710938 81.699219 C 122.628906 81.699219 122.558594 81.726562 122.5 81.78125 C 122.441406 81.839844 122.410156 81.910156 122.40625 81.992188 C 121.769531 87.09375 121.015625 92.503906 121.449219 97.644531 C 121.453125 97.792969 121.53125 97.867188 121.679688 97.867188 C 121.828125 97.867188 121.90625 97.792969 121.910156 97.644531 Z M 121.910156 97.644531 " fill-opacity="1" fill-rule="nonzero"/><path fill="#a9a0f0" d="M 143.304688 212.269531 C 141.839844 216.167969 138.707031 218.261719 135.648438 220.792969 C 135.539062 220.902344 135.515625 221.027344 135.574219 221.167969 C 135.632812 221.3125 135.742188 221.382812 135.894531 221.382812 C 140.382812 220.964844 142.992188 216.371094 144.140625 212.5 C 144.300781 211.953125 143.496094 211.753906 143.304688 212.269531 Z M 143.304688 212.269531 " fill-opacity="1" fill-rule="nonzero"/><path fill="#a9a0f0" d="M 117.953125 78.804688 C 119.957031 74.945312 121.652344 70.957031 123.035156 66.835938 C 123.152344 66.472656 122.578125 66.21875 122.414062 66.574219 C 120.625 70.53125 118.71875 74.445312 117.554688 78.636719 C 117.492188 78.871094 117.84375 79.03125 117.953125 78.804688 Z M 117.953125 78.804688 " fill-opacity="1" fill-rule="nonzero"/><path fill="#a9a0f0" d="M 132.902344 196.402344 C 120.933594 189.929688 109.476562 182.214844 95.996094 179.265625 C 83.691406 176.570312 57.257812 182.757812 59.929688 199.675781 C 59.953125 199.921875 60.0625 200.113281 60.261719 200.257812 C 62.464844 206.589844 68.308594 210.214844 74.199219 212.796875 C 81.058594 215.800781 88.425781 217.789062 95.480469 220.289062 C 106.179688 224.070312 117.253906 227.101562 128.683594 226.824219 C 135.414062 226.664062 145.136719 225.625 148.246094 218.601562 C 148.363281 218.503906 148.453125 218.390625 148.515625 218.253906 C 150.558594 214.0625 150.785156 209.417969 147.695312 205.648438 C 143.9375 201.0625 137.972656 199.140625 132.902344 196.402344 Z M 146.835938 217.054688 C 146.707031 217.152344 146.609375 217.28125 146.550781 217.433594 C 143.511719 224.574219 132.90625 224.796875 126.363281 224.824219 C 115.960938 224.847656 105.753906 221.714844 96.023438 218.320312 C 89.734375 216.128906 83.320312 214.1875 77.105469 211.800781 C 71.027344 209.464844 64.21875 205.964844 62.097656 199.34375 C 62.054688 199.191406 61.976562 199.054688 61.867188 198.941406 C 60.789062 191.289062 67.914062 186.433594 74.144531 183.847656 C 80.75 181.105469 88.390625 179.832031 95.449219 181.230469 C 106.976562 183.507812 117.226562 189.894531 127.308594 195.617188 C 131.980469 198.273438 136.890625 200.488281 141.570312 203.113281 C 146.917969 206.117188 149.535156 211.300781 146.835938 217.054688 Z M 146.835938 217.054688 " fill-opacity="1" fill-rule="nonzero"/></svg>