<svg xmlns="http://www.w3.org/2000/svg" xmlns:xlink="http://www.w3.org/1999/xlink" width="400" zoomAndPan="magnify" viewBox="0 0 300 299.999988" height="400" preserveAspectRatio="xMidYMid meet" version="1.0"><path fill="currentColor" d="M 150 266.191406 C 106.242188 266.191406 65.664062 241.035156 46.0625 201.972656 L 93.550781 179.1875 L 111.050781 184.859375 C 111.25 184.925781 111.445312 184.957031 111.636719 184.957031 C 112.441406 184.957031 113.191406 184.441406 113.453125 183.632812 C 113.773438 182.632812 113.230469 181.5625 112.226562 181.234375 L 98.535156 176.800781 L 143.191406 155.378906 C 144.8125 157.449219 147.277344 158.683594 150 158.683594 C 154.792969 158.683594 158.683594 154.792969 158.683594 150 C 158.683594 145.871094 155.773438 142.410156 151.90625 141.539062 L 151.90625 50.535156 L 162.507812 64.433594 C 162.878906 64.925781 163.445312 65.179688 164.019531 65.179688 C 164.425781 65.179688 164.828125 65.050781 165.179688 64.792969 C 166.011719 64.152344 166.167969 62.960938 165.535156 62.121094 L 151.90625 44.25 L 151.90625 33.855469 C 215.097656 34.882812 266.191406 86.570312 266.191406 150 C 266.191406 214.070312 214.070312 266.191406 150 266.191406 Z M 148.09375 33.855469 L 148.09375 44.25 L 134.464844 62.121094 C 133.832031 62.960938 133.988281 64.152344 134.820312 64.792969 C 135.664062 65.429688 136.859375 65.269531 137.492188 64.433594 L 148.09375 50.535156 L 148.09375 141.539062 C 144.226562 142.410156 141.316406 145.871094 141.316406 150 C 141.316406 150.65625 141.390625 151.300781 141.539062 151.941406 L 98.296875 172.6875 L 104.910156 161.644531 C 105.445312 160.742188 105.15625 159.574219 104.257812 159.03125 C 103.355469 158.496094 102.179688 158.789062 101.636719 159.6875 L 92.070312 175.675781 L 44.433594 198.527344 C 37.402344 183.242188 33.808594 166.933594 33.808594 150 C 33.808594 86.570312 84.902344 34.882812 148.09375 33.855469 Z M 150 30 C 83.832031 30 30 83.832031 30 150 C 30 168.148438 33.957031 185.609375 41.769531 201.914062 C 61.667969 243.273438 104.144531 270 150 270 C 216.167969 270 270 216.167969 270 150 C 270 83.832031 216.167969 30 150 30 " fill-opacity="1" fill-rule="nonzero"/><path fill="currentColor" d="M 102.625 76.191406 C 105.945312 76.191406 108.644531 78.890625 108.644531 82.210938 C 108.644531 85.527344 105.945312 88.230469 102.625 88.230469 C 99.308594 88.230469 96.605469 85.527344 96.605469 82.210938 C 96.605469 78.890625 99.308594 76.191406 102.625 76.191406 Z M 97.828125 67.597656 C 97.828125 64.957031 99.976562 62.796875 102.625 62.796875 C 105.273438 62.796875 107.433594 64.957031 107.433594 67.597656 C 107.433594 70.238281 105.273438 72.382812 102.625 72.382812 C 99.976562 72.382812 97.828125 70.238281 97.828125 67.597656 Z M 92.796875 82.210938 C 92.796875 87.625 97.210938 92.039062 102.625 92.039062 C 108.050781 92.039062 112.457031 87.625 112.457031 82.210938 C 112.457031 78.847656 110.757812 75.886719 108.175781 74.105469 C 110.039062 72.53125 111.242188 70.214844 111.242188 67.597656 C 111.242188 62.851562 107.375 58.988281 102.625 58.988281 C 97.878906 58.988281 94.019531 62.851562 94.019531 67.597656 C 94.019531 70.214844 95.222656 72.53125 97.074219 74.105469 C 94.492188 75.886719 92.796875 78.847656 92.796875 82.210938 " fill-opacity="1" fill-rule="nonzero"/><path fill="currentColor" d="M 55.3125 141.429688 L 75.3125 141.429688 C 76.367188 141.429688 77.21875 140.574219 77.21875 139.523438 C 77.21875 138.476562 76.367188 137.617188 75.3125 137.617188 L 57.21875 137.617188 L 57.21875 122.304688 L 75.3125 122.304688 C 76.367188 122.304688 77.21875 121.449219 77.21875 120.402344 C 77.21875 119.34375 76.367188 118.496094 75.3125 118.496094 L 57.21875 118.496094 L 57.21875 103.175781 L 75.3125 103.175781 C 76.367188 103.175781 77.21875 102.328125 77.21875 101.273438 C 77.21875 100.222656 76.367188 99.367188 75.3125 99.367188 L 55.3125 99.367188 C 54.261719 99.367188 53.40625 100.222656 53.40625 101.273438 L 53.40625 139.523438 C 53.40625 140.574219 54.261719 141.429688 55.3125 141.429688 " fill-opacity="1" fill-rule="nonzero"/><path fill="currentColor" d="M 99.292969 107.441406 L 102.894531 118.496094 L 95.707031 118.496094 Z M 86.265625 141.339844 C 86.464844 141.398438 86.660156 141.429688 86.851562 141.429688 C 87.664062 141.429688 88.40625 140.914062 88.667969 140.113281 L 94.449219 122.304688 L 104.128906 122.304688 L 109.925781 140.113281 C 110.1875 140.914062 110.929688 141.429688 111.734375 141.429688 C 111.925781 141.429688 112.128906 141.398438 112.320312 141.332031 C 113.324219 141.011719 113.867188 139.933594 113.542969 138.9375 L 101.109375 100.683594 C 100.855469 99.902344 100.117188 99.367188 99.292969 99.367188 C 98.46875 99.367188 97.738281 99.902344 97.484375 100.683594 L 91.332031 119.648438 C 91.324219 119.664062 91.316406 119.679688 91.316406 119.695312 L 91.300781 119.730469 C 91.289062 119.761719 91.265625 119.785156 91.257812 119.8125 L 85.042969 138.9375 C 84.71875 139.933594 85.269531 141.011719 86.265625 141.339844 " fill-opacity="1" fill-rule="nonzero"/><path fill="currentColor" d="M 183.867188 155.847656 C 183.867188 154.800781 183.011719 153.945312 181.964844 153.945312 L 166.511719 153.945312 L 166.511719 138.632812 L 181.964844 138.632812 C 183.011719 138.632812 183.867188 137.773438 183.867188 136.726562 C 183.867188 135.667969 183.011719 134.820312 181.964844 134.820312 L 164.605469 134.820312 C 163.554688 134.820312 162.699219 135.667969 162.699219 136.726562 L 162.699219 174.957031 C 162.699219 176.003906 163.554688 176.859375 164.605469 176.859375 C 165.664062 176.859375 166.511719 176.003906 166.511719 174.957031 L 166.511719 157.753906 L 181.964844 157.753906 C 183.011719 157.753906 183.867188 156.898438 183.867188 155.847656 " fill-opacity="1" fill-rule="nonzero"/><path fill="currentColor" d="M 193.148438 153.945312 L 196.742188 142.886719 L 200.34375 153.945312 Z M 198.554688 136.132812 C 198.296875 135.351562 197.566406 134.820312 196.742188 134.820312 C 195.914062 134.820312 195.1875 135.351562 194.933594 136.136719 L 182.492188 174.359375 C 182.164062 175.363281 182.714844 176.4375 183.710938 176.761719 C 184.710938 177.089844 185.789062 176.539062 186.117188 175.542969 L 191.90625 157.753906 L 201.585938 157.753906 L 207.367188 175.542969 C 207.632812 176.347656 208.378906 176.859375 209.179688 176.859375 C 209.375 176.859375 209.574219 176.832031 209.769531 176.761719 C 210.773438 176.4375 211.316406 175.363281 210.996094 174.359375 L 198.554688 136.132812 " fill-opacity="1" fill-rule="nonzero"/><path fill="currentColor" d="M 109.828125 100.585938 C 109.828125 101.644531 110.675781 102.492188 111.734375 102.492188 L 123.066406 102.492188 L 123.066406 139.523438 C 123.066406 140.574219 123.921875 141.429688 124.96875 141.429688 C 126.027344 141.429688 126.875 140.574219 126.875 139.523438 L 126.875 102.492188 L 138.230469 102.492188 C 139.277344 102.492188 140.132812 101.644531 140.132812 100.585938 C 140.132812 99.539062 139.277344 98.683594 138.230469 98.683594 L 111.734375 98.683594 C 110.675781 98.683594 109.828125 99.539062 109.828125 100.585938 " fill-opacity="1" fill-rule="nonzero"/><path fill="currentColor" d="M 259.144531 134.875 L 238.898438 134.875 C 237.84375 134.875 236.992188 135.730469 236.992188 136.777344 C 236.992188 137.835938 237.84375 138.683594 238.898438 138.683594 L 247.121094 138.683594 L 247.121094 175.714844 C 247.121094 176.761719 247.976562 177.617188 249.023438 177.617188 C 250.082031 177.617188 250.929688 176.761719 250.929688 175.714844 L 250.929688 138.683594 L 259.144531 138.683594 C 260.195312 138.683594 261.050781 137.835938 261.050781 136.777344 C 261.050781 135.730469 260.195312 134.875 259.144531 134.875 " fill-opacity="1" fill-rule="nonzero"/><path fill="currentColor" d="M 224.210938 138.632812 C 228.429688 138.632812 231.867188 142.0625 231.867188 146.289062 C 231.867188 147.335938 232.722656 148.191406 233.773438 148.191406 C 234.820312 148.191406 235.675781 147.335938 235.675781 146.289062 C 235.675781 139.960938 230.527344 134.820312 224.210938 134.820312 C 217.886719 134.820312 212.746094 139.960938 212.746094 146.289062 C 212.746094 152.605469 217.886719 157.753906 224.210938 157.753906 C 228.429688 157.753906 231.867188 161.183594 231.867188 165.410156 C 231.867188 169.621094 228.429688 173.050781 224.210938 173.050781 C 219.984375 173.050781 216.554688 169.621094 216.554688 165.410156 C 216.554688 164.359375 215.699219 163.503906 214.648438 163.503906 C 213.59375 163.503906 212.746094 164.359375 212.746094 165.410156 C 212.746094 171.71875 217.886719 176.859375 224.210938 176.859375 C 230.527344 176.859375 235.675781 171.71875 235.675781 165.410156 C 235.675781 159.085938 230.527344 153.945312 224.210938 153.945312 C 219.984375 153.945312 216.554688 150.507812 216.554688 146.289062 C 216.554688 142.0625 219.984375 138.632812 224.210938 138.632812 " fill-opacity="1" fill-rule="nonzero"/><path fill="currentColor" d="M 178.25 189.5 C 177.195312 189.5 176.347656 190.355469 176.347656 191.40625 L 176.347656 220.988281 C 176.347656 222.039062 177.195312 222.894531 178.25 222.894531 C 179.300781 222.894531 180.15625 222.039062 180.15625 220.988281 L 180.15625 191.40625 C 180.15625 190.355469 179.300781 189.5 178.25 189.5 " fill-opacity="1" fill-rule="nonzero"/><path fill="currentColor" d="M 194.664062 218.839844 C 192.054688 218.839844 189.925781 216.710938 189.925781 214.09375 C 189.925781 211.480469 192.054688 209.351562 194.664062 209.351562 C 197.285156 209.351562 199.414062 211.480469 199.414062 214.09375 C 199.414062 216.710938 197.285156 218.839844 194.664062 218.839844 Z M 194.664062 205.542969 C 193.019531 205.542969 191.488281 206.035156 190.179688 206.84375 C 190.582031 201.84375 191.5625 196.859375 193.9375 192.292969 C 194.417969 191.355469 194.0625 190.199219 193.125 189.71875 C 192.1875 189.234375 191.042969 189.597656 190.558594 190.535156 C 186.644531 198.074219 186.117188 206.675781 186.117188 214.09375 C 186.117188 218.808594 189.949219 222.648438 194.664062 222.648438 C 199.382812 222.648438 203.222656 218.808594 203.222656 214.09375 C 203.222656 209.382812 199.382812 205.542969 194.664062 205.542969 " fill-opacity="1" fill-rule="nonzero"/></svg>