<svg xmlns="http://www.w3.org/2000/svg" xmlns:xlink="http://www.w3.org/1999/xlink" width="400" zoomAndPan="magnify" viewBox="0 0 300 299.999988" height="400" preserveAspectRatio="xMidYMid meet" version="1.0"><defs><clipPath id="a505d73712"><path d="M 45 52.148438 L 228 52.148438 L 228 133 L 45 133 Z M 45 52.148438 " clip-rule="nonzero"/></clipPath></defs><g clip-path="url(#a505d73712)"><path fill="currentColor" d="M 49.5625 132.285156 C 45.90625 123.484375 45.703125 113.960938 48.171875 104.796875 C 50.128906 97.742188 53.9375 91.359375 59.34375 86.160156 C 64.492188 81.117188 70.515625 77.203125 76.898438 73.652344 C 82.507812 70.5625 88.429688 67.832031 94.554688 65.878906 C 98.367188 64.640625 102.277344 63.714844 106.191406 62.789062 C 110.566406 61.757812 114.941406 60.730469 119.316406 59.800781 C 128.277344 57.847656 137.386719 56.351562 146.601562 55.375 C 155.609375 54.449219 164.722656 53.882812 173.835938 53.523438 C 182.792969 53.160156 191.851562 53.109375 200.707031 54.65625 C 204.878906 55.375 208.996094 56.351562 212.804688 58.105469 C 216.410156 59.75 219.445312 62.171875 221.660156 65.257812 C 223.769531 68.140625 225.160156 71.4375 226.035156 74.785156 C 227.015625 78.644531 227.527344 82.761719 226.859375 86.726562 C 225.625 94.191406 219.808594 100.058594 213.785156 104.640625 C 203.074219 112.828125 189.792969 117.71875 176.304688 120.394531 C 170.28125 121.578125 164.15625 122.453125 158.03125 123.277344 C 154.324219 123.792969 150.359375 124.359375 146.757812 124.769531 C 138.261719 125.75 129.664062 126.316406 121.171875 126.828125 C 113.605469 127.292969 105.933594 127.808594 98.3125 127.910156 C 90.4375 128.015625 82.820312 126.46875 75.867188 122.8125 C 73.089844 121.371094 70.515625 119.621094 68.09375 117.613281 C 67.785156 117.355469 67.273438 117.769531 67.582031 118.078125 C 73.191406 122.761719 79.988281 126.160156 87.347656 127.601562 C 94.609375 129.042969 102.070312 128.425781 109.484375 128.066406 C 120.914062 127.550781 132.394531 126.828125 143.71875 125.695312 C 152.367188 124.820312 160.964844 123.585938 169.5625 122.195312 C 182.433594 120.136719 195.046875 116.6875 206.320312 110.253906 C 212.910156 106.445312 219.445312 101.65625 223.71875 95.53125 C 225.882812 92.441406 227.273438 88.992188 227.582031 85.335938 C 227.890625 81.527344 227.425781 77.613281 226.34375 73.90625 C 224.390625 67.011719 220.117188 60.882812 213.21875 57.589844 C 209.511719 55.839844 205.390625 54.808594 201.378906 54.035156 C 197 53.214844 192.574219 52.800781 188.148438 52.648438 C 178.878906 52.285156 169.511719 52.851562 160.296875 53.46875 C 151.03125 54.089844 141.761719 54.910156 132.601562 56.40625 C 123.332031 57.898438 114.273438 60.007812 105.160156 62.222656 C 98.519531 63.816406 91.980469 65.671875 85.753906 68.398438 C 79.007812 71.335938 72.265625 74.9375 66.34375 79.210938 C 60.269531 83.6875 54.8125 88.992188 51.210938 95.375 C 48.070312 100.988281 46.320312 107.164062 45.855469 113.445312 C 45.597656 116.636719 45.597656 119.929688 46.0625 123.125 C 46.578125 126.316406 47.503906 129.457031 48.738281 132.441406 C 49.046875 132.851562 49.71875 132.699219 49.5625 132.285156 Z M 49.5625 132.285156 " fill-opacity="1" fill-rule="nonzero"/></g><path fill="currentColor" d="M 60.886719 126.570312 C 64.335938 134.191406 72.058594 138.980469 80.246094 141.449219 C 84.878906 142.839844 89.769531 143.664062 94.609375 144.230469 C 99.703125 144.847656 104.851562 145.15625 110 145.207031 C 130.746094 145.363281 151.183594 141.191406 171.160156 136.40625 C 180.683594 134.089844 190.257812 131.71875 199.523438 128.527344 C 204.054688 126.933594 208.53125 125.128906 212.804688 122.917969 C 216.5625 121.011719 220.269531 118.851562 223.566406 116.328125 C 226.449219 114.113281 228.96875 111.28125 230.101562 107.9375 C 230.617188 106.390625 230.875 104.796875 231.03125 103.148438 C 231.597656 98.308594 231.542969 93.417969 231.03125 88.527344 C 230.464844 82.96875 229.332031 77.460938 227.21875 72.261719 C 225.316406 67.679688 222.585938 63.148438 218.3125 60.164062 C 217.335938 59.492188 216.203125 58.875 215.019531 58.414062 C 214.609375 58.257812 214.246094 58.824219 214.710938 58.980469 C 219.550781 60.933594 222.84375 64.949219 225.109375 69.222656 C 227.683594 74.113281 229.023438 79.417969 229.898438 84.769531 C 230.667969 89.816406 230.925781 94.859375 230.667969 99.957031 C 230.410156 104.4375 229.84375 108.761719 226.808594 112.363281 C 224.234375 115.347656 220.886719 117.5625 217.4375 119.570312 C 213.527344 121.886719 209.40625 123.945312 205.136719 125.695312 C 196.433594 129.25 187.273438 131.667969 178.109375 133.984375 C 158.546875 138.925781 138.675781 143.457031 118.289062 144.382812 C 108.25 144.847656 98.160156 144.382812 88.378906 142.683594 C 79.625 141.140625 70.566406 138.15625 64.851562 131.515625 C 63.511719 129.96875 62.433594 128.269531 61.558594 126.417969 C 61.402344 126.007812 60.734375 126.210938 60.886719 126.570312 Z M 60.886719 126.570312 " fill-opacity="1" fill-rule="nonzero"/><path fill="currentColor" d="M 52.035156 116.6875 C 55.636719 111.4375 59.292969 106.238281 63.667969 101.449219 C 67.785156 97.023438 72.523438 93.265625 77.722656 90.125 C 88.121094 83.84375 100.011719 79.984375 111.90625 77.046875 C 124.15625 74.113281 136.769531 72.414062 149.484375 72.261719 C 161.996094 72.105469 174.660156 73.445312 186.652344 76.738281 C 192.675781 78.335938 198.546875 80.394531 204.207031 82.96875 C 209.871094 85.492188 215.328125 88.527344 220.0625 92.492188 C 221.25 93.46875 222.328125 94.5 223.410156 95.582031 C 223.667969 95.890625 224.183594 95.425781 223.925781 95.117188 C 219.703125 90.691406 214.503906 87.292969 208.945312 84.460938 C 203.386719 81.679688 197.617188 79.3125 191.648438 77.460938 C 179.601562 73.703125 166.9375 71.847656 154.222656 71.644531 C 141.453125 71.386719 128.6875 72.777344 116.230469 75.402344 C 104.027344 77.976562 91.828125 81.679688 80.964844 87.5 C 75.664062 90.332031 70.667969 93.78125 66.34375 97.792969 C 61.660156 102.222656 57.800781 107.265625 54.144531 112.414062 C 53.269531 113.703125 52.289062 114.988281 51.414062 116.328125 C 51.160156 116.6875 51.777344 116.996094 52.035156 116.6875 Z M 52.035156 116.6875 " fill-opacity="1" fill-rule="nonzero"/><path fill="currentColor" d="M 57.902344 131.101562 C 62.484375 124.71875 67.324219 118.386719 73.191406 113.03125 C 79.214844 107.523438 86.320312 103.507812 94.09375 100.421875 C 97.953125 98.925781 101.917969 97.640625 105.882812 96.351562 C 110.101562 95.066406 114.324219 93.78125 118.597656 92.648438 C 122.972656 91.460938 127.347656 90.484375 131.828125 89.867188 C 136.460938 89.199219 141.144531 89.042969 145.777344 88.992188 C 155.199219 88.890625 164.621094 88.890625 174.042969 88.890625 C 175.277344 88.890625 176.410156 88.890625 177.644531 88.890625 C 178.109375 88.890625 178.109375 88.21875 177.644531 88.269531 C 168.019531 88.269531 158.390625 88.324219 148.765625 88.375 C 144.132812 88.425781 139.394531 88.476562 134.761719 88.941406 C 130.230469 89.402344 125.753906 90.277344 121.273438 91.359375 C 116.898438 92.441406 112.523438 93.726562 108.199219 95.015625 C 104.132812 96.199219 100.167969 97.484375 96.152344 98.980469 C 88.378906 101.808594 81.015625 105.515625 74.734375 110.769531 C 68.609375 115.914062 63.566406 122.144531 58.878906 128.476562 C 58.261719 129.25 57.695312 130.074219 57.179688 130.84375 C 57.078125 131.101562 57.695312 131.410156 57.902344 131.101562 Z M 57.902344 131.101562 " fill-opacity="1" fill-rule="nonzero"/><path fill="currentColor" d="M 108.09375 127.859375 C 119.214844 119.160156 130.746094 110.871094 143.203125 103.871094 C 155.558594 96.867188 168.789062 91.207031 182.84375 87.960938 C 190.71875 86.160156 198.804688 85.078125 206.886719 84.976562 C 207.347656 84.976562 207.347656 84.308594 206.886719 84.359375 C 192.367188 84.511719 178.003906 87.757812 164.671875 92.957031 C 151.183594 98.207031 138.675781 105.3125 126.9375 113.34375 C 120.296875 117.871094 113.914062 122.609375 107.582031 127.550781 C 107.273438 127.703125 107.785156 128.117188 108.09375 127.859375 Z M 108.09375 127.859375 " fill-opacity="1" fill-rule="nonzero"/><path fill="currentColor" d="M 135.019531 126.828125 C 144.132812 120.035156 154.324219 114.472656 165.03125 110.355469 C 175.6875 106.238281 186.960938 103.5625 198.390625 102.324219 C 204.878906 101.65625 211.414062 101.449219 217.902344 101.707031 C 218.367188 101.707031 218.367188 101.089844 217.902344 101.089844 C 206.269531 100.574219 194.53125 101.65625 183.203125 104.179688 C 171.828125 106.699219 160.914062 110.769531 150.71875 116.121094 C 145.007812 119.109375 139.601562 122.558594 134.503906 126.367188 C 134.144531 126.625 134.660156 127.085938 135.019531 126.828125 Z M 135.019531 126.828125 " fill-opacity="1" fill-rule="nonzero"/><path fill="currentColor" d="M 71.851562 120.910156 C 73.039062 116.6875 75.046875 112.777344 77.875 109.273438 C 78.132812 108.964844 77.566406 108.605469 77.257812 108.964844 C 74.425781 112.464844 72.367188 116.480469 71.183594 120.753906 C 71.082031 121.167969 71.75 121.320312 71.851562 120.910156 Z M 71.851562 120.910156 " fill-opacity="1" fill-rule="nonzero"/><path fill="currentColor" d="M 81.839844 125.644531 C 82.253906 123.636719 83.332031 121.835938 84.722656 120.238281 C 86.0625 118.695312 87.503906 117.304688 88.945312 115.8125 C 91.828125 113.03125 94.863281 110.355469 98.109375 107.886719 C 104.59375 102.890625 111.699219 98.617188 119.214844 95.117188 C 123.488281 93.160156 127.914062 91.460938 132.445312 90.019531 C 132.910156 89.867188 132.652344 89.25 132.289062 89.402344 C 124.15625 91.925781 116.332031 95.375 109.074219 99.597656 C 101.867188 103.871094 95.171875 108.863281 89.203125 114.578125 C 87.554688 116.171875 85.855469 117.820312 84.363281 119.570312 C 82.921875 121.269531 81.632812 123.125 81.273438 125.335938 C 81.121094 125.851562 81.789062 126.058594 81.839844 125.644531 Z M 81.839844 125.644531 " fill-opacity="1" fill-rule="nonzero"/><path fill="currentColor" d="M 82.457031 125.59375 C 90.847656 117.511719 100.578125 110.769531 111.234375 105.515625 C 121.839844 100.316406 133.21875 96.714844 145.058594 94.808594 C 151.699219 93.726562 158.546875 93.214844 165.289062 93.316406 C 165.753906 93.316406 165.753906 92.699219 165.289062 92.699219 C 153.191406 92.542969 141.144531 94.292969 129.664062 97.742188 C 118.132812 101.140625 107.21875 106.238281 97.386719 112.828125 C 91.878906 116.480469 86.730469 120.652344 82.046875 125.183594 C 81.632812 125.441406 82.148438 125.902344 82.457031 125.59375 Z M 82.457031 125.59375 " fill-opacity="1" fill-rule="nonzero"/><path fill="currentColor" d="M 100.578125 128.269531 C 102.792969 125.75 106.191406 124.308594 109.277344 122.917969 C 112.726562 121.371094 116.28125 119.984375 119.882812 118.746094 C 120.347656 118.59375 120.089844 117.976562 119.730469 118.128906 C 116.074219 119.363281 112.472656 120.753906 108.96875 122.351562 C 105.832031 123.742188 102.382812 125.234375 100.117188 127.808594 C 99.808594 128.167969 100.320312 128.632812 100.578125 128.269531 Z M 100.578125 128.269531 " fill-opacity="1" fill-rule="nonzero"/><path fill="currentColor" d="M 65.519531 98.207031 C 61.710938 99.648438 58.417969 102.273438 55.945312 105.257812 C 53.269531 108.453125 51.722656 112.519531 51.363281 116.535156 C 51.160156 118.695312 51.46875 120.910156 52.34375 122.96875 C 53.167969 124.875 54.402344 126.570312 55.738281 128.269531 C 58.570312 131.824219 61.660156 135.222656 64.902344 138.515625 C 68.558594 142.324219 72.417969 145.878906 76.539062 149.273438 C 76.847656 149.53125 77.363281 149.121094 77.054688 148.8125 C 70.257812 143.097656 63.925781 136.816406 58.210938 130.125 C 55.484375 126.933594 52.546875 123.433594 52.136719 119.210938 C 51.929688 116.996094 52.34375 114.679688 52.960938 112.570312 C 53.578125 110.664062 54.296875 108.863281 55.429688 107.113281 C 57.851562 103.5625 61.503906 100.367188 65.726562 98.773438 C 66.085938 98.671875 65.882812 98.050781 65.519531 98.207031 Z M 65.519531 98.207031 " fill-opacity="1" fill-rule="nonzero"/><path fill="currentColor" d="M 123.488281 74.527344 C 130.128906 70.664062 137.234375 67.574219 144.699219 65.464844 C 152.214844 63.304688 160.039062 62.121094 167.964844 61.863281 C 173.476562 61.65625 178.933594 61.964844 184.441406 62.375 C 192.265625 62.996094 199.882812 64.488281 207.195312 67.214844 C 213.527344 69.582031 219.550781 72.777344 225.007812 76.585938 C 225.519531 76.945312 225.984375 77.304688 226.5 77.667969 C 226.808594 77.921875 227.324219 77.460938 227.015625 77.203125 C 221.96875 73.496094 216.410156 70.304688 210.539062 67.832031 C 203.128906 64.746094 195.300781 62.789062 187.21875 61.964844 C 181.660156 61.398438 176.050781 61.089844 170.4375 61.140625 C 162.765625 61.242188 155.148438 62.171875 147.734375 63.972656 C 140.21875 65.824219 132.960938 68.707031 126.113281 72.261719 C 125.136719 72.777344 124.105469 73.34375 123.128906 73.90625 C 122.765625 74.21875 123.074219 74.785156 123.488281 74.527344 Z M 123.488281 74.527344 " fill-opacity="1" fill-rule="nonzero"/><path fill="currentColor" d="M 190.71875 77.613281 C 200.863281 76.738281 210.335938 81.0625 218.519531 86.210938 C 220.886719 87.652344 223.152344 89.199219 225.519531 90.792969 C 225.933594 91.050781 226.242188 90.484375 225.832031 90.226562 C 217.695312 84.769531 209.152344 79.160156 199.058594 77.355469 C 196.28125 76.894531 193.449219 76.738281 190.617188 76.945312 C 190.308594 77.046875 190.308594 77.667969 190.71875 77.613281 Z M 190.71875 77.613281 " fill-opacity="1" fill-rule="nonzero"/><path fill="currentColor" d="M 157.773438 113.445312 C 168.171875 113.394531 178.519531 114.835938 188.457031 117.71875 C 188.917969 117.820312 189.074219 117.203125 188.609375 117.101562 C 178.621094 114.269531 168.171875 112.777344 157.722656 112.828125 C 157.308594 112.828125 157.308594 113.445312 157.773438 113.445312 Z M 157.773438 113.445312 " fill-opacity="1" fill-rule="nonzero"/><path fill="currentColor" d="M 160.039062 112.671875 C 160.140625 112.261719 161.222656 112.363281 161.480469 112.363281 C 162.097656 112.363281 162.765625 112.363281 163.386719 112.3125 C 164.515625 112.3125 165.597656 112.3125 166.78125 112.3125 C 169.097656 112.363281 171.414062 112.414062 173.785156 112.570312 C 178.367188 112.828125 183.050781 113.34375 187.582031 114.0625 C 190.207031 114.472656 192.78125 114.9375 195.40625 115.503906 C 195.867188 115.605469 196.023438 114.988281 195.558594 114.886719 C 185.832031 112.828125 175.84375 111.796875 165.855469 111.695312 C 164.414062 111.695312 162.972656 111.695312 161.53125 111.746094 C 160.8125 111.746094 159.625 111.644531 159.371094 112.519531 C 159.265625 112.878906 159.9375 113.085938 160.039062 112.671875 Z M 160.039062 112.671875 " fill-opacity="1" fill-rule="nonzero"/><path fill="currentColor" d="M 202.5625 102.066406 C 206.421875 102.632812 210.128906 103.816406 213.527344 105.671875 C 213.9375 105.878906 214.246094 105.3125 213.835938 105.105469 C 210.386719 103.25 206.628906 102.015625 202.714844 101.449219 C 202.304688 101.347656 202.097656 101.964844 202.5625 102.066406 Z M 202.5625 102.066406 " fill-opacity="1" fill-rule="nonzero"/><path fill="currentColor" d="M 144.285156 125.386719 C 150.773438 120.859375 157.363281 116.277344 165.03125 113.753906 C 165.496094 113.597656 165.238281 112.980469 164.878906 113.136719 C 157.105469 115.660156 150.464844 120.238281 143.976562 124.820312 C 143.617188 125.078125 143.976562 125.59375 144.285156 125.386719 Z M 144.285156 125.386719 " fill-opacity="1" fill-rule="nonzero"/><path fill="currentColor" d="M 52.035156 93.214844 C 44.929688 96.867188 40.398438 103.972656 39.523438 111.4375 C 39.058594 115.246094 39.625 119.109375 41.222656 122.609375 C 43.128906 126.726562 46.164062 130.175781 49.664062 133.160156 C 53.371094 136.351562 57.59375 139.082031 61.816406 141.65625 C 66.242188 144.382812 70.925781 146.855469 75.972656 148.503906 C 81.273438 150.203125 86.832031 150.972656 92.445312 151.539062 C 98.261719 152.105469 104.078125 152.464844 109.949219 152.722656 C 133.269531 153.597656 156.796875 151.796875 179.601562 147.265625 C 190.515625 145.15625 201.378906 142.480469 211.777344 138.671875 C 221.144531 135.273438 230.515625 130.792969 237.929688 124.359375 C 244.980469 118.285156 249.769531 110.148438 249.203125 100.988281 C 248.585938 92.027344 242.921875 84 234.480469 79.828125 C 232.472656 78.851562 230.359375 78.128906 228.199219 77.613281 C 227.734375 77.511719 227.582031 78.128906 228.042969 78.234375 C 237.308594 80.34375 244.929688 87.035156 247.554688 95.683594 C 248.945312 100.265625 248.945312 105.15625 247.554688 109.6875 C 246.214844 113.90625 243.796875 117.667969 240.707031 120.859375 C 234.222656 127.703125 225.417969 132.441406 216.5625 136.097656 C 206.886719 140.164062 196.539062 142.890625 186.242188 145.15625 C 164.414062 149.996094 141.917969 152.3125 119.472656 152.210938 C 113.914062 152.15625 108.402344 152.003906 102.84375 151.644531 C 97.179688 151.28125 91.46875 150.871094 85.90625 150.046875 C 80.605469 149.222656 75.457031 147.832031 70.566406 145.570312 C 65.933594 143.40625 61.558594 140.679688 57.285156 137.847656 C 49.921875 132.851562 42.355469 126.726562 40.605469 117.976562 C 39.113281 110.457031 41.945312 102.324219 47.761719 96.972656 C 49.203125 95.632812 50.796875 94.550781 52.601562 93.625 C 52.804688 93.574219 52.445312 93.007812 52.035156 93.214844 Z M 52.035156 93.214844 " fill-opacity="1" fill-rule="nonzero"/><path fill="currentColor" d="M 40.191406 107.0625 C 38.496094 113.289062 36.742188 119.726562 36.898438 126.210938 C 37 131.824219 38.855469 137.125 42.148438 141.757812 C 48.789062 150.871094 59.808594 156.894531 70.410156 161.21875 C 82.871094 166.316406 96.304688 168.890625 109.84375 169.402344 C 123.847656 169.96875 137.953125 168.527344 151.75 166.417969 C 157.875 165.492188 164.054688 164.460938 170.128906 163.226562 C 176.101562 162.042969 182.125 160.703125 187.992188 159.109375 C 196.488281 156.894531 204.878906 154.320312 213.0625 151.230469 C 221.351562 148.089844 229.589844 144.382812 236.949219 139.546875 C 240.5 137.230469 244.054688 134.601562 246.78125 131.410156 C 249.355469 128.425781 251.054688 124.925781 251.878906 121.167969 C 252.910156 116.277344 252.601562 111.230469 251.777344 106.289062 C 251.261719 103.355469 250.488281 100.472656 249.40625 97.640625 C 248.378906 94.964844 247.039062 92.339844 245.546875 89.867188 C 245.339844 89.507812 244.722656 89.816406 244.929688 90.175781 C 249.304688 97.433594 251.671875 105.363281 251.878906 113.652344 C 251.980469 118.644531 251.160156 123.636719 248.480469 128.015625 C 246.523438 131.257812 243.589844 133.882812 240.554688 136.199219 C 233.808594 141.398438 225.984375 145.207031 218.054688 148.554688 C 209.972656 151.902344 201.632812 154.679688 193.191406 156.996094 C 186.707031 158.796875 180.117188 160.394531 173.476562 161.835938 C 170.128906 162.503906 166.832031 163.125 163.488281 163.742188 C 149.792969 166.160156 135.996094 168.269531 122.046875 168.734375 C 108.402344 169.199219 94.660156 168.066406 81.53125 164.308594 C 75.25 162.503906 69.175781 160.085938 63.359375 157.203125 C 58.210938 154.628906 53.21875 151.644531 48.894531 147.9375 C 44.722656 144.382812 41.171875 140.058594 39.265625 135.066406 C 36.949219 129.042969 37.308594 122.558594 38.546875 116.429688 C 39.164062 113.34375 39.988281 110.253906 40.8125 107.265625 C 40.964844 106.804688 40.296875 106.648438 40.191406 107.0625 Z M 40.191406 107.0625 " fill-opacity="1" fill-rule="nonzero"/><path fill="currentColor" d="M 36.898438 126.933594 C 33.5 133.523438 33.757812 141.449219 35.613281 148.398438 C 37.464844 155.246094 41.015625 161.628906 45.753906 167.136719 C 50.59375 172.851562 56.613281 177.589844 63.152344 181.554688 C 69.84375 185.621094 77.105469 188.964844 84.570312 191.589844 C 88.480469 192.980469 92.601562 193.960938 96.820312 194.472656 C 100.734375 194.9375 104.699219 194.988281 108.609375 194.835938 C 109.640625 194.785156 110.773438 194.730469 111.800781 194.679688 C 112.265625 194.679688 112.265625 194.011719 111.800781 194.0625 C 107.890625 194.269531 103.925781 194.421875 100.011719 194.164062 C 95.894531 193.90625 91.878906 193.1875 87.964844 192.054688 C 84.105469 190.921875 80.296875 189.378906 76.640625 187.730469 C 73.140625 186.1875 69.691406 184.539062 66.394531 182.632812 C 53.371094 175.375 41.945312 164.875 37.207031 151.128906 C 34.582031 143.613281 33.707031 134.550781 37.515625 127.242188 C 37.722656 126.882812 37.105469 126.519531 36.898438 126.933594 Z M 36.898438 126.933594 " fill-opacity="1" fill-rule="nonzero"/><path fill="currentColor" d="M 36.488281 125.800781 C 32.265625 133.523438 30 142.324219 30.515625 150.972656 C 31.082031 159.984375 34.222656 169.09375 39.472656 176.664062 C 45.390625 185.257812 54.195312 191.488281 64.132812 195.710938 C 68.96875 197.71875 73.964844 199.3125 78.957031 200.804688 C 84.570312 202.351562 90.230469 203.792969 95.945312 205.027344 C 109.023438 207.601562 122.457031 208.425781 135.792969 207.859375 C 149.074219 207.292969 162.355469 205.492188 175.484375 203.585938 C 183.308594 202.453125 190.976562 201.117188 198.648438 199.210938 C 210.953125 196.226562 223.257812 192.363281 234.632812 187.011719 C 240.246094 184.4375 246.0625 181.296875 250.128906 176.816406 C 255.535156 170.792969 257.644531 162.453125 257.644531 154.730469 C 257.644531 152.777344 257.492188 150.820312 257.234375 148.914062 C 257.179688 148.503906 256.511719 148.503906 256.5625 148.914062 C 257.746094 157.820312 256.410156 167.34375 250.796875 174.859375 C 247.914062 178.722656 243.640625 181.5 239.371094 183.816406 C 229.074219 189.480469 217.542969 193.289062 206.164062 196.535156 C 198.082031 198.796875 189.792969 200.753906 181.503906 202.042969 C 157.054688 205.800781 132.035156 209.25 107.273438 206.160156 C 95.585938 204.71875 83.898438 201.886719 72.726562 198.285156 C 62.691406 195.039062 53.0625 190.40625 45.648438 183.097656 C 37.980469 175.425781 33.242188 165.335938 31.648438 154.9375 C 30.359375 146.804688 31.699219 138.414062 34.839844 130.742188 C 35.507812 129.199219 36.230469 127.703125 37.054688 126.160156 C 37.308594 125.75 36.691406 125.441406 36.488281 125.800781 Z M 36.488281 125.800781 " fill-opacity="1" fill-rule="nonzero"/><path fill="currentColor" d="M 138.109375 188.554688 C 148.660156 188.503906 159.164062 187.9375 169.5625 186.753906 C 178.933594 185.722656 188.25 184.230469 197.363281 182.121094 C 205.753906 180.265625 213.9375 177.847656 221.917969 174.910156 C 228.042969 172.648438 234.167969 170.019531 239.523438 166.417969 C 244.515625 163.125 248.839844 158.796875 252.085938 154.011719 C 252.546875 153.34375 252.960938 152.671875 253.421875 152.003906 C 253.628906 151.644531 253.011719 151.335938 252.804688 151.695312 C 249.460938 156.945312 245.238281 161.578125 239.988281 165.285156 C 235.199219 168.632812 229.792969 171.152344 224.285156 173.316406 C 216.410156 176.40625 208.222656 178.925781 199.882812 180.882812 C 190.773438 183.046875 181.558594 184.640625 172.238281 185.824219 C 162.253906 187.0625 152.214844 187.730469 142.125 187.886719 C 140.683594 187.886719 139.242188 187.9375 137.800781 187.9375 C 137.644531 187.9375 137.644531 188.554688 138.109375 188.554688 Z M 138.109375 188.554688 " fill-opacity="1" fill-rule="nonzero"/><path fill="currentColor" d="M 40.296875 138.671875 C 39.007812 146.339844 40.449219 154.527344 45.238281 160.960938 C 47.554688 164.050781 50.4375 166.777344 53.21875 169.507812 C 55.378906 171.617188 57.644531 173.675781 60.0625 175.53125 C 66.652344 180.730469 74.167969 184.949219 82.355469 187.523438 C 86.164062 188.707031 90.179688 189.53125 94.09375 190.40625 C 97.746094 191.230469 101.453125 192.054688 105.109375 192.980469 C 113.914062 195.195312 122.613281 197.71875 131.261719 200.496094 C 132.546875 200.910156 133.835938 201.320312 135.070312 201.734375 C 135.226562 201.785156 135.484375 201.679688 135.535156 201.527344 C 136.769531 195.914062 137.953125 190.304688 139.1875 184.691406 C 139.1875 184.589844 139.1875 184.382812 139.035156 184.332031 C 129.046875 180.316406 118.75 177.175781 108.148438 175.066406 C 104.027344 174.242188 99.960938 173.523438 95.894531 172.492188 C 91.671875 171.410156 87.503906 170.019531 83.539062 168.269531 C 77.414062 165.695312 71.648438 162.402344 66.191406 158.695312 C 65.777344 158.4375 65.46875 159.003906 65.882812 159.261719 C 74.480469 165.128906 83.949219 169.816406 94.144531 172.699219 C 98.054688 173.78125 102.070312 174.550781 106.035156 175.324219 C 111.390625 176.351562 116.691406 177.589844 121.945312 179.183594 C 127.65625 180.832031 133.269531 182.738281 138.726562 185.003906 C 138.675781 184.898438 138.621094 184.746094 138.570312 184.640625 C 137.335938 190.253906 136.152344 195.863281 134.917969 201.476562 C 135.070312 201.425781 135.171875 201.320312 135.378906 201.269531 C 126.523438 198.335938 117.566406 195.605469 108.558594 193.289062 C 105.210938 192.414062 101.867188 191.589844 98.46875 190.820312 C 94.351562 189.894531 90.230469 189.070312 86.164062 187.988281 C 77.980469 185.878906 70.308594 182.171875 63.566406 177.382812 C 60.734375 175.425781 58.054688 173.160156 55.585938 170.84375 C 53.011719 168.527344 50.539062 166.058594 48.222656 163.535156 C 45.445312 160.496094 43.332031 157.101562 42.097656 153.34375 C 40.757812 149.378906 40.398438 145.257812 40.757812 141.089844 C 40.8125 140.367188 40.914062 139.648438 41.015625 138.980469 C 41.015625 138.359375 40.347656 138.207031 40.296875 138.671875 Z M 40.296875 138.671875 " fill-opacity="1" fill-rule="nonzero"/><path fill="currentColor" d="M 86.886719 166.417969 C 97.800781 167.960938 108.816406 168.992188 119.832031 169.402344 C 129.203125 169.765625 138.621094 169.660156 147.992188 169.09375 C 155.40625 168.683594 162.765625 167.960938 170.179688 166.984375 C 172.804688 166.625 175.378906 166.109375 177.953125 165.59375 C 184.800781 164.203125 191.597656 162.558594 198.238281 160.550781 C 207.761719 157.769531 217.128906 154.472656 226.292969 150.664062 C 231.285156 148.554688 236.28125 146.289062 241.066406 143.871094 C 244.261719 142.222656 247.453125 140.472656 250.386719 138.359375 C 256.769531 133.78125 261.816406 127.703125 263.617188 120.292969 C 265.574219 112.261719 263.617188 103.816406 258.210938 97.332031 C 254.710938 93.109375 250.027344 89.816406 244.929688 87.550781 C 244.414062 87.34375 243.949219 87.136719 243.4375 86.933594 C 243.023438 86.777344 242.820312 87.394531 243.28125 87.550781 C 247.453125 89.144531 251.3125 91.566406 254.554688 94.449219 C 260.941406 100.113281 264.441406 107.886719 263.71875 116.121094 C 263.050781 123.84375 258.933594 130.691406 252.804688 135.789062 C 246.421875 141.089844 238.496094 144.640625 230.875 148.039062 C 214.917969 155.144531 198.082031 160.652344 180.835938 164.359375 C 171.828125 166.316406 162.664062 167.394531 153.449219 168.066406 C 134.195312 169.507812 114.839844 169.09375 95.636719 166.882812 C 92.804688 166.570312 89.972656 166.160156 87.144531 165.800781 C 86.628906 165.695312 86.472656 166.316406 86.886719 166.417969 Z M 86.886719 166.417969 " fill-opacity="1" fill-rule="nonzero"/><path fill="currentColor" d="M 138.933594 184.949219 C 146.859375 184.4375 154.734375 183.664062 162.613281 182.582031 C 170.179688 181.554688 177.746094 180.214844 185.210938 178.566406 C 191.441406 177.230469 197.566406 175.683594 203.589844 173.933594 C 211.878906 171.566406 220.117188 168.835938 228.09375 165.695312 C 234.375 163.277344 240.449219 160.445312 246.164062 157.046875 C 250.953125 154.21875 255.277344 150.871094 259.292969 147.265625 C 263.667969 143.304688 266.5 138 268.042969 132.492188 C 269.742188 126.46875 270 120.085938 268.816406 114.011719 C 267.632812 107.730469 264.953125 101.707031 260.734375 96.714844 C 256.359375 91.460938 250.488281 87.601562 243.949219 85.027344 C 242.714844 84.566406 241.480469 84.101562 240.191406 83.742188 C 239.730469 83.636719 239.574219 84.253906 240.039062 84.359375 C 246.113281 86.210938 251.878906 89.199219 256.5625 93.316406 C 261.710938 97.949219 265.316406 103.871094 267.273438 110.304688 C 269.023438 116.328125 269.382812 122.761719 268.25 128.835938 C 267.21875 134.601562 264.800781 140.265625 260.835938 144.746094 C 258.984375 146.804688 256.71875 148.65625 254.554688 150.40625 C 252.546875 152.003906 250.488281 153.496094 248.328125 154.9375 C 243.179688 158.285156 237.566406 161.0625 231.800781 163.484375 C 224.027344 166.726562 216.050781 169.507812 207.964844 171.925781 C 201.429688 173.882812 194.839844 175.683594 188.199219 177.175781 C 181.660156 178.671875 175.070312 179.90625 168.480469 181.039062 C 160.449219 182.324219 152.417969 183.25 144.335938 183.921875 C 142.585938 184.074219 140.785156 184.179688 138.984375 184.28125 C 138.46875 184.332031 138.46875 185.003906 138.933594 184.949219 Z M 138.933594 184.949219 " fill-opacity="1" fill-rule="nonzero"/><path fill="currentColor" d="M 231.390625 93.214844 C 235.816406 94.859375 240.347656 96.867188 243.539062 100.367188 C 246.421875 103.507812 247.964844 108.195312 246.113281 112.210938 C 245.957031 112.570312 246.578125 112.929688 246.730469 112.519531 C 248.171875 109.378906 247.710938 105.824219 246.113281 102.839844 C 244.363281 99.597656 241.273438 97.125 237.929688 95.375 C 235.921875 94.292969 233.757812 93.46875 231.597656 92.648438 C 231.132812 92.390625 230.925781 93.058594 231.390625 93.214844 Z M 231.390625 93.214844 " fill-opacity="1" fill-rule="nonzero"/><path fill="currentColor" d="M 250.488281 102.375 C 251.46875 103.507812 252.960938 104.28125 254.195312 105.15625 C 255.429688 106.03125 256.5625 106.957031 257.695312 107.988281 C 259.960938 110.046875 261.96875 112.363281 263.71875 114.835938 C 263.925781 115.195312 264.542969 114.835938 264.335938 114.527344 C 262.636719 112.054688 260.628906 109.738281 258.367188 107.679688 C 257.234375 106.648438 256.050781 105.671875 254.8125 104.796875 C 253.527344 103.871094 252.035156 103.148438 251.054688 101.964844 C 250.695312 101.605469 250.230469 102.066406 250.488281 102.375 Z M 250.488281 102.375 " fill-opacity="1" fill-rule="nonzero"/><path fill="currentColor" d="M 230.875 104.796875 C 236.023438 110.921875 236.28125 119.160156 234.632812 126.46875 C 234.53125 126.882812 235.199219 127.035156 235.300781 126.625 C 237 119.054688 236.691406 110.664062 231.390625 104.28125 C 231.03125 104.023438 230.566406 104.488281 230.875 104.796875 Z M 230.875 104.796875 " fill-opacity="1" fill-rule="nonzero"/><path fill="currentColor" d="M 225.265625 115.144531 C 228.558594 119.054688 232.265625 123.636719 230.875 128.890625 C 230.773438 129.300781 231.441406 129.457031 231.542969 129.042969 C 232.933594 123.535156 229.175781 118.746094 225.726562 114.679688 C 225.46875 114.371094 225.007812 114.835938 225.265625 115.144531 Z M 225.265625 115.144531 " fill-opacity="1" fill-rule="nonzero"/><path fill="currentColor" d="M 220.941406 118.285156 C 221.867188 120.496094 222.84375 122.8125 223.769531 125.027344 C 224.699219 127.191406 225.726562 129.507812 225.519531 131.875 C 225.519531 132.285156 226.191406 132.285156 226.191406 131.875 C 226.34375 129.507812 225.417969 127.242188 224.492188 125.078125 C 223.566406 122.761719 222.535156 120.394531 221.609375 118.078125 C 221.453125 117.769531 220.785156 117.921875 220.941406 118.285156 Z M 220.941406 118.285156 " fill-opacity="1" fill-rule="nonzero"/><path fill="currentColor" d="M 212.136719 123.433594 C 213.988281 124.820312 215.585938 126.417969 216.871094 128.324219 C 218.261719 130.277344 219.136719 132.492188 219.859375 134.757812 C 219.960938 135.167969 220.628906 134.964844 220.527344 134.601562 C 219.753906 132.285156 218.878906 130.074219 217.4375 128.015625 C 216.101562 126.160156 214.503906 124.460938 212.601562 123.019531 C 212.289062 122.660156 211.828125 123.125 212.136719 123.433594 Z M 212.136719 123.433594 " fill-opacity="1" fill-rule="nonzero"/><path fill="currentColor" d="M 183.925781 133.007812 C 184.59375 134.398438 186.550781 134.398438 187.992188 134.398438 C 190.207031 134.449219 192.472656 134.347656 194.683594 133.984375 C 198.546875 133.417969 202.253906 131.976562 205.136719 129.402344 C 206.628906 128.117188 207.8125 126.570312 208.585938 124.769531 C 208.738281 124.410156 208.070312 124.203125 207.914062 124.617188 C 206.214844 128.425781 202.507812 131.101562 198.390625 132.390625 C 195.972656 133.160156 193.398438 133.523438 190.875 133.625 C 189.589844 133.675781 188.300781 133.675781 187.066406 133.625 C 186.140625 133.574219 184.953125 133.46875 184.492188 132.542969 C 184.335938 132.285156 183.71875 132.648438 183.925781 133.007812 Z M 183.925781 133.007812 " fill-opacity="1" fill-rule="nonzero"/><path fill="currentColor" d="M 214.09375 125.59375 C 213.371094 131.410156 209.972656 136.816406 204.878906 140.265625 C 204.570312 140.523438 204.878906 141.089844 205.1875 140.832031 C 210.488281 137.28125 213.988281 131.667969 214.710938 125.59375 C 214.8125 125.183594 214.144531 125.183594 214.09375 125.59375 Z M 214.09375 125.59375 " fill-opacity="1" fill-rule="nonzero"/><path fill="currentColor" d="M 95.585938 144.382812 C 94.453125 146.597656 93.628906 148.914062 93.167969 151.335938 C 93.0625 151.746094 93.730469 151.902344 93.835938 151.488281 C 94.351562 149.171875 95.171875 146.855469 96.203125 144.691406 C 96.359375 144.332031 95.738281 144.023438 95.585938 144.382812 Z M 95.585938 144.382812 " fill-opacity="1" fill-rule="nonzero"/><path fill="currentColor" d="M 111.441406 144.949219 C 110.050781 147.320312 109.175781 149.945312 108.816406 152.621094 C 108.765625 153.03125 109.484375 153.03125 109.484375 152.621094 C 109.792969 150.046875 110.667969 147.523438 111.957031 145.257812 C 112.265625 144.898438 111.648438 144.589844 111.441406 144.949219 Z M 111.441406 144.949219 " fill-opacity="1" fill-rule="nonzero"/><path fill="currentColor" d="M 82.972656 142.121094 C 82.097656 144.589844 81.738281 147.265625 82.046875 149.839844 C 82.097656 150.253906 82.765625 150.253906 82.714844 149.839844 C 82.457031 147.320312 82.765625 144.691406 83.589844 142.273438 C 83.796875 141.863281 83.128906 141.707031 82.972656 142.121094 Z M 82.972656 142.121094 " fill-opacity="1" fill-rule="nonzero"/><path fill="currentColor" d="M 71.03125 137.691406 C 71.441406 140.421875 71.851562 143.199219 72.265625 145.980469 C 72.316406 146.390625 72.984375 146.238281 72.933594 145.824219 C 72.523438 143.097656 72.109375 140.316406 71.699219 137.539062 C 71.648438 137.125 70.976562 137.28125 71.03125 137.691406 Z M 71.03125 137.691406 " fill-opacity="1" fill-rule="nonzero"/><path fill="currentColor" d="M 234.941406 112.261719 C 235.765625 113.753906 237.617188 114.320312 238.855469 115.453125 C 240.296875 116.738281 240.8125 118.644531 241.273438 120.445312 C 241.378906 120.859375 242.046875 120.652344 241.941406 120.292969 C 241.429688 118.542969 240.914062 116.6875 239.625 115.246094 C 238.390625 113.960938 236.433594 113.445312 235.507812 111.902344 C 235.355469 111.589844 234.734375 111.902344 234.941406 112.261719 Z M 234.941406 112.261719 " fill-opacity="1" fill-rule="nonzero"/><path fill="currentColor" d="M 235.816406 116.378906 C 236.640625 117.253906 237.671875 117.921875 238.289062 118.902344 C 238.90625 119.828125 239.265625 120.910156 239.316406 122.042969 C 239.316406 122.453125 240.039062 122.453125 239.988281 122.042969 C 239.9375 120.859375 239.523438 119.675781 238.855469 118.695312 C 238.546875 118.179688 238.132812 117.71875 237.671875 117.304688 C 237.15625 116.84375 236.640625 116.429688 236.175781 115.914062 C 236.023438 115.554688 235.507812 116.070312 235.816406 116.378906 Z M 235.816406 116.378906 " fill-opacity="1" fill-rule="nonzero"/><path fill="currentColor" d="M 235.664062 121.578125 C 236.332031 122.609375 236.589844 123.742188 236.539062 124.925781 C 236.539062 125.335938 237.207031 125.335938 237.207031 124.925781 C 237.257812 123.636719 236.898438 122.351562 236.230469 121.269531 C 236.074219 120.910156 235.457031 121.21875 235.664062 121.578125 Z M 235.664062 121.578125 " fill-opacity="1" fill-rule="nonzero"/><path fill="currentColor" d="M 250.386719 126.007812 C 252.394531 128.066406 254.453125 130.125 256.410156 132.183594 C 256.667969 132.492188 257.179688 132.027344 256.925781 131.71875 C 254.917969 129.660156 252.855469 127.601562 250.902344 125.542969 C 250.539062 125.234375 250.078125 125.695312 250.386719 126.007812 Z M 250.386719 126.007812 " fill-opacity="1" fill-rule="nonzero"/><path fill="currentColor" d="M 248.789062 128.324219 C 251.054688 130.019531 253.0625 131.976562 254.710938 134.242188 C 254.96875 134.601562 255.535156 134.242188 255.328125 133.933594 C 253.628906 131.667969 251.621094 129.609375 249.304688 127.859375 C 248.945312 127.601562 248.429688 128.066406 248.789062 128.324219 Z M 248.789062 128.324219 " fill-opacity="1" fill-rule="nonzero"/><path fill="currentColor" d="M 241.6875 135.683594 C 242.820312 137.539062 244.261719 139.289062 245.90625 140.78125 C 246.214844 141.089844 246.730469 140.625 246.421875 140.316406 C 244.773438 138.875 243.386719 137.230469 242.304688 135.324219 C 242.046875 135.015625 241.429688 135.324219 241.6875 135.683594 Z M 241.6875 135.683594 " fill-opacity="1" fill-rule="nonzero"/><path fill="currentColor" d="M 239.9375 137.792969 C 241.378906 139.03125 242.40625 140.625 242.921875 142.429688 C 243.023438 142.839844 243.695312 142.632812 243.589844 142.273438 C 243.023438 140.421875 241.941406 138.722656 240.398438 137.332031 C 240.140625 137.074219 239.625 137.539062 239.9375 137.792969 Z M 239.9375 137.792969 " fill-opacity="1" fill-rule="nonzero"/><path fill="currentColor" d="M 237.054688 139.648438 C 238.441406 140.625 239.316406 142.121094 239.625 143.765625 C 239.679688 143.921875 239.882812 144.023438 240.089844 143.972656 C 240.296875 143.921875 240.347656 143.765625 240.296875 143.5625 C 240.039062 141.808594 238.957031 140.214844 237.414062 139.082031 C 237.257812 138.980469 237 139.082031 236.898438 139.183594 C 236.847656 139.339844 236.898438 139.546875 237.054688 139.648438 Z M 237.054688 139.648438 " fill-opacity="1" fill-rule="nonzero"/><path fill="currentColor" d="M 178.3125 180.113281 C 182.894531 181.964844 187.890625 182.996094 192.933594 182.996094 C 193.398438 182.996094 193.398438 182.375 192.933594 182.375 C 187.992188 182.324219 183.203125 181.398438 178.675781 179.546875 C 178.261719 179.390625 177.953125 179.957031 178.3125 180.113281 Z M 178.3125 180.113281 " fill-opacity="1" fill-rule="nonzero"/><path fill="currentColor" d="M 170.179688 181.554688 C 174.351562 183.457031 178.828125 184.589844 183.410156 184.898438 C 183.875 184.949219 183.875 184.28125 183.410156 184.28125 C 178.933594 183.972656 174.554688 182.890625 170.488281 181.039062 C 170.128906 180.832031 169.71875 181.347656 170.179688 181.554688 Z M 170.179688 181.554688 " fill-opacity="1" fill-rule="nonzero"/><path fill="currentColor" d="M 243.332031 158.335938 C 242.664062 160.960938 241.378906 163.484375 239.523438 165.542969 C 239.265625 165.851562 239.730469 166.316406 240.039062 166.007812 C 241.996094 163.84375 243.332031 161.21875 244.054688 158.488281 C 244.105469 158.128906 243.4375 157.921875 243.332031 158.335938 Z M 243.332031 158.335938 " fill-opacity="1" fill-rule="nonzero"/><path fill="currentColor" d="M 62.535156 134.5 C 63.410156 134.035156 64.234375 133.625 65.160156 133.160156 C 65.574219 132.957031 65.210938 132.390625 64.851562 132.59375 C 63.976562 133.058594 63.152344 133.46875 62.226562 133.933594 C 61.816406 134.140625 62.125 134.707031 62.535156 134.5 Z M 62.535156 134.5 " fill-opacity="1" fill-rule="nonzero"/><path fill="currentColor" d="M 63.71875 135.839844 C 64.441406 135.222656 65.160156 134.65625 65.882812 134.035156 C 65.984375 133.933594 65.984375 133.675781 65.882812 133.574219 C 65.726562 133.46875 65.574219 133.46875 65.367188 133.574219 C 64.644531 134.191406 63.925781 134.757812 63.203125 135.375 C 63.101562 135.476562 63.101562 135.734375 63.203125 135.839844 C 63.410156 135.992188 63.566406 135.992188 63.71875 135.839844 Z M 63.71875 135.839844 " fill-opacity="1" fill-rule="nonzero"/><path fill="currentColor" d="M 41.582031 121.476562 C 42.253906 119.417969 43.949219 117.613281 46.164062 116.894531 C 46.628906 116.738281 46.371094 116.121094 46.011719 116.277344 C 43.589844 117.101562 41.6875 118.953125 40.914062 121.320312 C 40.8125 121.734375 41.429688 121.886719 41.582031 121.476562 Z M 41.582031 121.476562 " fill-opacity="1" fill-rule="nonzero"/><path fill="currentColor" d="M 42.507812 123.328125 C 43.230469 121.320312 44.773438 119.675781 46.78125 118.695312 C 47.195312 118.488281 46.832031 117.976562 46.472656 118.128906 C 44.3125 119.160156 42.664062 120.960938 41.890625 123.175781 C 41.6875 123.585938 42.355469 123.792969 42.507812 123.328125 Z M 42.507812 123.328125 " fill-opacity="1" fill-rule="nonzero"/><path fill="currentColor" d="M 41.121094 159.109375 C 41.121094 159.054688 41.066406 159.160156 41.121094 159.109375 C 41.171875 159.054688 41.171875 159.003906 41.171875 159.003906 C 41.171875 158.953125 41.222656 158.902344 41.222656 158.851562 C 41.273438 158.746094 41.324219 158.644531 41.429688 158.542969 C 41.480469 158.488281 41.480469 158.4375 41.53125 158.386719 L 41.582031 158.335938 C 41.53125 158.386719 41.582031 158.335938 41.632812 158.285156 C 41.6875 158.179688 41.789062 158.078125 41.890625 158.027344 C 41.996094 157.921875 42.046875 157.871094 42.148438 157.769531 L 42.199219 157.71875 C 42.199219 157.71875 42.253906 157.667969 42.199219 157.71875 C 42.253906 157.667969 42.304688 157.667969 42.355469 157.613281 C 42.457031 157.5625 42.5625 157.511719 42.664062 157.460938 C 42.714844 157.410156 42.765625 157.410156 42.820312 157.355469 C 42.871094 157.355469 42.871094 157.304688 42.921875 157.304688 C 42.921875 157.304688 43.023438 157.253906 42.972656 157.304688 C 43.128906 157.253906 43.230469 157.101562 43.179688 156.894531 C 43.128906 156.738281 42.972656 156.585938 42.714844 156.6875 C 41.582031 157.101562 40.707031 157.921875 40.296875 158.953125 C 40.246094 159.109375 40.347656 159.3125 40.5 159.363281 C 40.914062 159.417969 41.015625 159.3125 41.121094 159.109375 Z M 41.121094 159.109375 " fill-opacity="1" fill-rule="nonzero"/><path fill="currentColor" d="M 45.339844 165.128906 C 45.445312 164.925781 45.496094 164.769531 45.648438 164.566406 C 45.703125 164.511719 45.703125 164.460938 45.753906 164.460938 L 45.804688 164.410156 C 45.804688 164.410156 45.855469 164.308594 45.804688 164.410156 C 45.855469 164.308594 45.957031 164.253906 46.011719 164.152344 C 46.0625 164.101562 46.164062 164 46.214844 163.945312 C 46.269531 163.894531 46.269531 163.894531 46.320312 163.84375 L 46.371094 163.792969 C 46.421875 163.742188 46.320312 163.792969 46.371094 163.792969 C 46.523438 163.6875 46.78125 163.535156 46.9375 163.484375 C 47.089844 163.433594 47.144531 163.175781 47.039062 163.019531 C 46.9375 162.867188 46.78125 162.8125 46.523438 162.917969 C 45.648438 163.328125 44.980469 164.050781 44.570312 164.875 C 44.515625 165.027344 44.515625 165.234375 44.671875 165.335938 C 45.03125 165.335938 45.289062 165.335938 45.339844 165.128906 Z M 45.339844 165.128906 " fill-opacity="1" fill-rule="nonzero"/><path fill="currentColor" d="M 40.605469 178.050781 C 40.707031 186.597656 42.613281 195.195312 46.628906 202.867188 C 48.6875 206.726562 51.210938 210.226562 54.402344 213.316406 C 57.542969 216.40625 61.195312 219.082031 65.160156 221.296875 C 73.449219 226.082031 82.820312 229.070312 92.136719 231.539062 C 102.382812 234.269531 112.832031 236.019531 123.28125 237.667969 C 133.578125 239.261719 143.875 240.859375 153.859375 243.6875 C 156.332031 244.359375 158.804688 245.128906 161.222656 246.007812 C 162.765625 246.519531 165.136719 247.703125 166.628906 246.367188 C 167.347656 245.695312 167.554688 244.566406 167.863281 243.6875 C 168.328125 242.402344 168.6875 241.167969 169.152344 239.828125 C 169.871094 237.667969 171.003906 235.296875 170.695312 233.03125 C 170.230469 228.707031 164.929688 227.886719 161.273438 227.113281 C 155.921875 225.980469 150.515625 225.054688 145.109375 224.230469 C 134.246094 222.480469 123.28125 221.039062 112.472656 218.773438 C 102.894531 216.816406 93.421875 214.242188 84.414062 210.585938 C 75.507812 206.933594 66.910156 202.042969 59.910156 195.554688 C 58.160156 193.90625 56.460938 192.210938 54.96875 190.304688 C 54.710938 189.996094 54.09375 190.304688 54.351562 190.613281 C 60.167969 197.769531 67.992188 203.328125 76.332031 207.601562 C 84.570312 211.875 93.578125 214.910156 102.636719 217.230469 C 112.675781 219.75 122.921875 221.5 133.113281 223.046875 C 138.417969 223.871094 143.71875 224.640625 148.96875 225.515625 C 154.117188 226.390625 159.316406 227.214844 164.414062 228.503906 C 166.320312 228.964844 168.429688 229.738281 169.40625 231.386719 C 170.695312 233.496094 169.5625 236.171875 168.839844 238.285156 C 168.429688 239.519531 168.019531 240.753906 167.605469 241.992188 C 167.453125 242.558594 167.195312 243.125 167.039062 243.6875 C 166.832031 244.253906 166.730469 244.925781 166.371094 245.492188 C 165.753906 246.46875 164.414062 246.316406 163.4375 246.058594 C 162.304688 245.75 161.222656 245.285156 160.089844 244.925781 C 150.515625 241.734375 140.527344 239.777344 130.488281 238.179688 C 120.347656 236.535156 110.207031 235.195312 100.167969 232.929688 C 90.488281 230.769531 80.707031 227.988281 71.75 224.023438 C 63.460938 220.316406 55.738281 215.167969 50.488281 208.011719 C 45.289062 200.960938 42.457031 192.621094 41.480469 184.179688 C 41.273438 182.171875 41.066406 180.058594 41.066406 178.050781 C 41.324219 177.640625 40.605469 177.640625 40.605469 178.050781 Z M 40.605469 178.050781 " fill-opacity="1" fill-rule="nonzero"/><path fill="currentColor" d="M 263.71875 142.273438 C 266.859375 152.464844 266.394531 163.636719 260.886719 173.109375 C 255.84375 181.808594 247.296875 188.140625 239.007812 194.011719 C 233.757812 197.667969 228.351562 201.0625 222.636719 204.050781 C 217.492188 206.726562 212.085938 209.09375 206.628906 211.101562 C 197.671875 214.398438 188.300781 216.917969 178.878906 218.980469 C 167.761719 221.449219 156.382812 223.097656 144.902344 223.714844 C 143.875 223.765625 142.792969 223.816406 141.761719 223.871094 C 141.300781 223.871094 141.300781 224.539062 141.761719 224.488281 C 152.726562 224.023438 163.640625 222.683594 174.402344 220.523438 C 184.335938 218.566406 194.222656 216.042969 203.695312 212.75 C 215.378906 208.683594 226.5 203.277344 236.640625 196.378906 C 245.238281 190.511719 254.09375 184.332031 259.910156 175.890625 C 266.191406 166.726562 267.734375 155.554688 265.160156 145.054688 C 264.953125 144.074219 264.644531 143.097656 264.335938 142.121094 C 264.285156 141.707031 263.617188 141.863281 263.71875 142.273438 Z M 263.71875 142.273438 " fill-opacity="1" fill-rule="nonzero"/><path fill="currentColor" d="M 260.992188 145.3125 C 262.175781 149.789062 263.410156 154.472656 262.382812 159.109375 C 261.917969 161.167969 260.992188 163.226562 259.5 164.820312 C 257.953125 166.46875 255.945312 167.652344 253.9375 168.785156 C 253.527344 168.992188 253.886719 169.558594 254.246094 169.351562 C 256.410156 168.21875 258.519531 166.984375 260.117188 165.128906 C 261.558594 163.535156 262.484375 161.578125 262.945312 159.519531 C 264.132812 154.679688 262.84375 149.839844 261.609375 145.15625 C 261.558594 144.746094 260.886719 144.898438 260.992188 145.3125 Z M 260.992188 145.3125 " fill-opacity="1" fill-rule="nonzero"/></svg>