<svg xmlns="http://www.w3.org/2000/svg" xmlns:xlink="http://www.w3.org/1999/xlink" width="400" zoomAndPan="magnify" viewBox="0 0 300 299.999988" height="400" preserveAspectRatio="xMidYMid meet" version="1.0"><defs><clipPath id="be06d4f8f7"><path d="M 123 76 L 262.351562 76 L 262.351562 201 L 123 201 Z M 123 76 " clip-rule="nonzero"/></clipPath></defs><g clip-path="url(#be06d4f8f7)"><path fill="currentColor" d="M 262.542969 113.691406 C 261.523438 144.179688 250.421875 169.710938 224.917969 187.648438 C 193.8125 209.53125 152.8125 203.632812 128.492188 174.320312 C 122.296875 166.867188 121.519531 158.984375 125.835938 150.484375 C 129.320312 143.617188 134.445312 138.28125 141.199219 134.582031 C 151.257812 129.082031 159.355469 129.96875 168.070312 137.34375 C 173.246094 141.742188 178.824219 145.46875 185.5 147.265625 C 195.101562 149.839844 202.449219 146.300781 206.253906 137.101562 C 209.609375 129.058594 209.5 120.609375 208.722656 112.136719 C 208.480469 109.375 208.105469 106.585938 207.460938 103.902344 C 205.71875 96.53125 208.027344 90.578125 213.738281 85.882812 C 222.640625 78.589844 232.910156 75.71875 244.308594 77.328125 C 252.726562 78.507812 257.527344 83.871094 259.671875 91.757812 C 261.683594 98.890625 262.488281 106.238281 262.542969 113.691406 Z M 256.667969 96.609375 C 255.570312 96.691406 255.355469 97.253906 255.058594 97.65625 C 246.613281 109.1875 228.269531 114.550781 214.945312 109.214844 C 212.261719 108.140625 212.449219 109.1875 212.636719 111.222656 C 213.523438 120.34375 213.65625 129.433594 210.117188 138.121094 C 207.058594 145.601562 202.019531 151.019531 193.492188 151.902344 C 186.222656 152.679688 179.867188 149.945312 173.753906 146.351562 C 172.144531 145.414062 170.777344 143.992188 168.660156 143.589844 C 168.765625 152.679688 164.933594 159.867188 158.738281 165.957031 C 152.515625 172.070312 145.117188 175.714844 136.347656 175.957031 C 136.214844 177.246094 137.019531 177.539062 137.527344 178.023438 C 160.695312 199.957031 194.324219 203.230469 220.898438 185.585938 C 245.191406 169.496094 256.640625 146.003906 258.386719 117.390625 C 258.8125 110.445312 258.222656 103.527344 256.667969 96.609375 Z M 153.722656 134.984375 C 142.300781 135.0625 129.214844 146.835938 127.285156 158.796875 C 125.96875 166.867188 130.6875 172.148438 138.867188 171.71875 C 150.640625 171.105469 163.59375 158.632812 164.636719 146.863281 C 165.253906 139.59375 160.964844 134.902344 153.722656 134.984375 Z M 225.882812 107.390625 C 234.492188 107.066406 242.324219 104.601562 248.839844 98.835938 C 252.082031 95.964844 254.578125 92.453125 253.289062 87.839844 C 252.109375 83.578125 248.328125 82.074219 244.441406 81.378906 C 234.171875 79.527344 224.945312 82.210938 216.714844 88.511719 C 214.570312 90.148438 212.796875 92.132812 211.726562 94.679688 C 209.957031 98.863281 211.082031 102.535156 214.996094 104.871094 C 218.375 106.878906 222.078125 107.363281 225.882812 107.390625 Z M 225.882812 107.390625 " fill-opacity="1" fill-rule="nonzero"/></g><path fill="currentColor" d="M 128.679688 269.945312 C 95.023438 268.148438 68.15625 254.742188 52.46875 223.664062 C 37.371094 193.761719 47.265625 157.5625 74.859375 138.578125 C 81.882812 133.75 88.964844 133.507812 96.257812 137.609375 C 102.988281 141.390625 107.976562 146.863281 111.140625 153.914062 C 115.429688 163.40625 114.089844 171.050781 106.902344 178.558594 C 103.042969 182.582031 99.53125 186.871094 97.195312 192.019531 C 92.183594 203.148438 95.695312 211.863281 107.117188 216.152344 C 116.046875 219.507812 125.378906 219.746094 134.65625 218.328125 C 143.988281 216.90625 150.105469 220.902344 154.449219 228.625 C 157.988281 234.925781 159.597656 241.761719 159.222656 248.976562 C 158.578125 261.367188 152.839844 267.453125 140.558594 269.035156 C 136.667969 269.515625 132.726562 269.867188 128.679688 269.945312 Z M 71.910156 145.898438 C 71.183594 146.460938 70.757812 146.753906 70.378906 147.105469 C 47.910156 167.5625 42.519531 199.476562 57.777344 225.886719 C 72.445312 251.253906 95.425781 263.589844 124.199219 265.816406 C 129.242188 266.21875 134.335938 266.191406 139.644531 265.121094 C 127.335938 252.730469 124.253906 238.839844 130.824219 222.722656 C 128.597656 222.722656 126.480469 222.777344 124.359375 222.722656 C 116.046875 222.507812 107.894531 221.570312 100.601562 217.066406 C 92.71875 212.183594 89.660156 204.488281 91.996094 195.507812 C 93.175781 190.972656 95.371094 186.980469 98.082031 183.199219 C 99.019531 181.882812 100.359375 180.757812 100.710938 178.988281 C 83.949219 176.734375 75.128906 166.597656 71.910156 145.898438 Z M 76.09375 149.277344 C 76.09375 160.191406 86.605469 172.738281 97.410156 174.804688 C 104.8125 176.199219 109.746094 172.148438 109.878906 164.585938 C 110.066406 153.753906 99.152344 140.535156 88.535156 138.710938 C 80.867188 137.398438 76.09375 141.445312 76.09375 149.277344 Z M 131.144531 237.875 C 131.226562 238.867188 131.199219 240.367188 131.441406 241.84375 C 132.566406 248.949219 134.820312 255.574219 140.503906 260.425781 C 145.035156 264.289062 150.023438 263.484375 152.972656 258.550781 C 158.46875 249.324219 154.714844 230.472656 146.109375 224.144531 C 145.519531 223.714844 144.875 223.3125 144.203125 222.964844 C 140.261719 220.875 136.667969 221.757812 134.175781 225.460938 C 131.761719 229.078125 131.226562 233.15625 131.144531 237.875 Z M 131.144531 237.875 " fill-opacity="1" fill-rule="nonzero"/><path fill="currentColor" d="M 145.382812 104.601562 C 137.179688 105.03125 131.894531 100.765625 128.035156 94.0625 C 125.246094 89.207031 121.972656 84.730469 117.441406 81.324219 C 109.691406 75.480469 101.835938 76.285156 95.667969 83.792969 C 89.769531 90.980469 87.167969 99.585938 85.851562 108.542969 C 84.59375 117.152344 81.75 121.734375 70.460938 124.390625 C 64.402344 125.8125 58.3125 125.277344 52.414062 123.34375 C 41.632812 119.777344 37.371094 112.914062 39.113281 101.730469 C 42.789062 78.105469 54.15625 59.066406 74 45.660156 C 91.269531 33.996094 110.28125 30 130.582031 35.980469 C 151.257812 42.09375 164.609375 56.199219 171.957031 76.203125 C 174.398438 82.855469 173.03125 88.886719 168.3125 94.0625 C 162.171875 100.792969 154.421875 104.199219 145.382812 104.601562 Z M 165.953125 71.296875 C 165.816406 70.707031 165.789062 70.382812 165.65625 70.117188 C 153.617188 45.230469 126.53125 31.742188 99.609375 38.394531 C 68.421875 46.089844 50.671875 67.21875 43.378906 97.84375 C 43.109375 99.023438 42.464844 100.257812 43.191406 101.730469 C 43.859375 101.328125 44.476562 100.980469 45.09375 100.578125 C 54.855469 94.332031 71.585938 95.214844 80.140625 102.671875 C 82.394531 104.628906 83.144531 104.601562 83.707031 101.625 C 84.40625 98.058594 85.640625 94.625 87.113281 91.273438 C 89.179688 86.527344 91.804688 82.15625 95.75 78.671875 C 101.675781 73.441406 108.648438 72.554688 115.671875 76.121094 C 119.855469 78.242188 123.152344 81.433594 126.050781 85.050781 C 127.015625 86.230469 127.953125 87.464844 129.027344 88.808594 C 136.777344 73.683594 147.074219 68.828125 165.953125 71.296875 Z M 156.621094 73.546875 C 148.011719 74.085938 140.234375 77.410156 134.953125 85.132812 C 129.832031 92.640625 133.210938 99.882812 142.21875 100.902344 C 151.230469 101.917969 158.871094 98.78125 165.148438 92.398438 C 168.554688 88.914062 171.128906 84.675781 169.007812 79.664062 C 166.890625 74.648438 162.0625 73.789062 156.621094 73.546875 Z M 60.835938 99.988281 C 57.484375 99.960938 54.183594 100.335938 51.046875 101.515625 C 47.105469 103.019531 43.296875 105.003906 42.976562 109.695312 C 42.679688 114.308594 46.21875 116.777344 49.839844 118.519531 C 58.074219 122.433594 66.574219 122.726562 75.046875 119.269531 C 78.210938 117.980469 80.890625 115.890625 81.320312 112.164062 C 81.75 108.328125 79.285156 105.996094 76.414062 104.117188 C 71.695312 101.0625 66.386719 99.960938 60.835938 99.988281 Z M 60.835938 99.988281 " fill-opacity="1" fill-rule="nonzero"/><path fill="currentColor" d="M 188.371094 182.957031 C 181.878906 183.386719 175.605469 182.097656 169.4375 180.273438 C 167.75 179.792969 165.414062 179.308594 166.140625 176.84375 C 166.890625 174.296875 168.980469 175.339844 170.699219 175.851562 C 182.253906 179.257812 193.839844 180.007812 205.34375 175.851562 C 221.753906 169.925781 231.4375 157.5625 237.28125 141.6875 C 239.210938 136.457031 240.472656 131.042969 241.167969 125.515625 C 241.382812 123.910156 241.894531 122.488281 243.878906 122.621094 C 245.890625 122.753906 245.890625 124.335938 245.726562 125.730469 C 243.074219 148.605469 230.042969 174.105469 203.277344 181.320312 C 200.597656 182.042969 197.863281 182.582031 195.128906 182.902344 C 192.875 183.171875 190.621094 182.957031 188.371094 182.957031 Z M 188.371094 182.957031 " fill-opacity="1" fill-rule="nonzero"/><path fill="currentColor" d="M 191.507812 163.140625 C 188.609375 162.953125 185.847656 162.65625 183.167969 161.960938 C 181.425781 161.503906 179.117188 161.15625 179.761719 158.6875 C 180.40625 156.246094 182.738281 157.050781 184.402344 157.507812 C 191.5625 159.464844 198.398438 158.445312 204.859375 155.09375 C 212.960938 150.886719 217.972656 144.367188 218.617188 134.957031 C 218.726562 133.320312 219.101562 131.765625 220.976562 131.738281 C 223.230469 131.683594 223.257812 133.480469 223.285156 135.171875 C 223.363281 145.414062 215.292969 156.140625 204.21875 160.566406 C 200.0625 162.226562 195.769531 162.816406 191.507812 163.140625 Z M 191.507812 163.140625 " fill-opacity="1" fill-rule="nonzero"/><path fill="currentColor" d="M 111.730469 253.050781 C 91.804688 250.128906 68.53125 239.75 62.980469 215.375 C 59.949219 202.050781 62.632812 189.285156 68.101562 177.003906 C 68.960938 175.046875 69.898438 173.140625 70.917969 171.265625 C 71.640625 169.976562 72.742188 168.957031 74.324219 169.871094 C 75.878906 170.753906 75.609375 172.148438 74.914062 173.515625 C 71.75 179.710938 69.175781 186.121094 67.699219 192.957031 C 62.738281 216.046875 72.417969 234.414062 94.300781 243.53125 C 100.039062 245.917969 106.019531 247.476562 112.132812 248.492188 C 113.714844 248.761719 114.8125 249.484375 114.625 251.203125 C 114.386719 252.785156 113.152344 253.132812 111.730469 253.050781 Z M 111.730469 253.050781 " fill-opacity="1" fill-rule="nonzero"/><path fill="currentColor" d="M 107.761719 234.441406 C 86.980469 232.457031 72.070312 215.804688 79.738281 192.289062 C 80.597656 189.660156 81.964844 187.21875 83.199219 184.726562 C 84.058594 183.035156 85.261719 181.292969 87.410156 182.632812 C 89.285156 183.816406 88.078125 185.476562 87.300781 186.84375 C 84.109375 192.421875 82.074219 198.320312 82.339844 204.8125 C 82.875 217.28125 90.949219 226.371094 103.875 229.1875 C 105.214844 229.480469 106.609375 229.695312 107.976562 229.832031 C 109.691406 230.019531 111.410156 230.394531 111.222656 232.511719 C 111.058594 234.496094 109.34375 234.550781 107.761719 234.441406 Z M 107.761719 234.441406 " fill-opacity="1" fill-rule="nonzero"/><path fill="currentColor" d="M 143.5625 59.46875 C 143.480469 60.8125 142.488281 61.480469 141.011719 61.214844 C 140.101562 61.027344 139.269531 60.460938 138.4375 59.980469 C 118.621094 48.261719 95.292969 50.703125 78.265625 66.199219 C 72.605469 71.351562 67.886719 77.222656 64.292969 84.007812 C 63.890625 84.757812 63.382812 85.453125 62.84375 86.097656 C 62.203125 86.824219 61.316406 86.847656 60.484375 86.527344 C 59.574219 86.179688 59.226562 85.320312 59.359375 84.4375 C 59.46875 83.605469 59.707031 82.746094 60.109375 82.023438 C 69.363281 65.234375 82.609375 53.328125 101.703125 49.171875 C 115.78125 46.117188 129.054688 48.582031 141.28125 56.332031 C 143.238281 57.566406 143.5625 58.023438 143.5625 59.46875 Z M 143.5625 59.46875 " fill-opacity="1" fill-rule="nonzero"/><path fill="currentColor" d="M 109.101562 61.507812 C 113.609375 61.429688 117.789062 62.5 121.570312 64.941406 C 122.859375 65.773438 124.199219 66.816406 123.152344 68.5625 C 122.136719 70.25 120.554688 69.820312 119.238281 68.9375 C 110.710938 63.171875 95.695312 66.496094 89.152344 76.230469 C 88.132812 77.730469 86.953125 79.367188 85.101562 77.945312 C 83.359375 76.632812 84.378906 74.78125 85.425781 73.386719 C 91.324219 65.421875 99.367188 61.75 109.101562 61.507812 Z M 109.101562 61.507812 " fill-opacity="1" fill-rule="nonzero"/></svg>