<svg xmlns="http://www.w3.org/2000/svg" xmlns:xlink="http://www.w3.org/1999/xlink" width="400" zoomAndPan="magnify" viewBox="0 0 300 299.999988" height="400" preserveAspectRatio="xMidYMid meet" version="1.0"><path fill="#a9a0f0" d="M 163.671875 44.753906 C 163.601562 43.164062 162.519531 41.214844 162.050781 40.085938 C 161.980469 39.953125 161.933594 39.820312 161.886719 39.695312 C 159.253906 40.046875 156.953125 40.386719 154.976562 40.519531 C 152.574219 40.691406 150.679688 40.628906 149.238281 40.402344 C 148.523438 40.269531 147.90625 40.175781 147.425781 40.03125 C 146.933594 39.867188 146.542969 39.710938 146.253906 39.578125 C 145.671875 39.296875 145.460938 39.09375 145.492188 38.929688 C 145.539062 38.765625 145.851562 38.664062 146.464844 38.648438 C 146.769531 38.632812 147.160156 38.648438 147.632812 38.6875 C 148.117188 38.6875 148.6875 38.6875 149.363281 38.6875 C 150.710938 38.6875 152.480469 38.574219 154.75 38.277344 C 156.503906 38.089844 158.574219 37.714844 161.023438 37.355469 C 160.796875 36.679688 160.617188 35.992188 160.492188 35.277344 C 153.730469 35.71875 146.824219 35.277344 140.042969 35.167969 C 139.761719 36.867188 139.132812 38.472656 138.46875 40.085938 C 138.375 40.300781 138.257812 40.566406 138.125 40.839844 C 141.160156 41.558594 143.855469 41.8125 146.089844 41.960938 C 148.625 42.09375 150.597656 42.203125 152.109375 42.28125 C 155.140625 42.476562 156.308594 42.789062 156.308594 43.117188 C 156.308594 43.449219 155.15625 43.761719 152.125 44.003906 C 150.597656 44.136719 148.59375 44.230469 145.996094 44.199219 C 143.597656 44.167969 140.628906 43.957031 137.167969 43.117188 C 136.972656 43.707031 136.832031 44.316406 136.832031 44.859375 C 145.132812 48.429688 155.15625 46.660156 163.671875 44.753906 Z M 165.972656 52.5 C 166.183594 50.863281 162.472656 50.183594 161.4375 50.230469 C 154.976562 50.472656 149 52.015625 142.414062 51.320312 C 140.675781 51.125 132.484375 49.03125 134.347656 53.152344 C 134.371094 53.214844 134.417969 53.292969 134.449219 53.363281 C 135.664062 55.757812 139.683594 55.289062 141.859375 55.515625 C 148.703125 56.261719 155.007812 55.359375 161.652344 53.878906 C 162.519531 53.683594 165.824219 53.574219 165.972656 52.5 Z M 177.855469 253.527344 C 177.855469 252.53125 177.871094 251.515625 177.871094 250.511719 C 168.371094 254.710938 159.191406 255.234375 148.492188 255.367188 C 139.21875 255.476562 130.054688 254.828125 122.640625 249.296875 C 122.640625 250.613281 122.65625 251.945312 122.65625 253.269531 C 126.09375 262.535156 143.527344 264.476562 151.28125 264.523438 C 161.25 264.578125 171.730469 262.058594 177.855469 253.527344 Z M 177.894531 246.769531 C 178.121094 213.183594 179.515625 179.585938 178.75 146.007812 C 178.527344 135.960938 173.851562 130.601562 169.585938 122.183594 C 166.8125 116.71875 165.714844 111.367188 165.355469 105.25 C 164.429688 89.671875 165.222656 73.828125 164.046875 58.273438 C 163.507812 58.4375 162.972656 58.601562 162.433594 58.742188 C 162.699219 64.664062 162.277344 70.078125 161.902344 74.957031 C 161.46875 80.195312 161.15625 84.886719 161.140625 89.101562 C 161.1875 93.257812 161.515625 97.144531 161.546875 100.503906 C 161.621094 103.855469 161.707031 106.777344 161.902344 109.285156 C 162.050781 110.523438 162.082031 111.710938 162.253906 112.746094 C 162.417969 113.796875 162.566406 114.757812 162.699219 115.613281 C 163.121094 117.320312 163.390625 118.714844 163.75 119.753906 C 164.515625 121.808594 164.769531 122.769531 164.609375 122.847656 C 164.46875 122.933594 163.929688 122.128906 162.855469 120.085938 C 162.355469 119.066406 161.933594 117.671875 161.367188 115.925781 C 161.171875 115.03125 160.960938 114.054688 160.71875 112.988281 C 160.476562 111.914062 160.375 110.734375 160.195312 109.449219 C 159.878906 106.910156 159.699219 103.941406 159.519531 100.582031 C 159.402344 97.191406 159.011719 93.511719 158.886719 89.117188 C 158.855469 84.785156 159.113281 80.023438 159.519531 74.777344 C 159.863281 70.03125 160.226562 64.875 160 59.363281 C 153.746094 60.820312 146.753906 61.46875 140.496094 60.074219 C 140.511719 62.863281 140.511719 65.550781 140.527344 68.132812 C 140.558594 69.675781 140.449219 71.15625 140.363281 72.613281 C 140.269531 74.054688 140.183594 75.464844 140.105469 76.859375 C 139.714844 82.40625 139.585938 87.316406 139.34375 91.789062 C 139.21875 96.289062 139.085938 100.277344 138.96875 103.824219 C 138.84375 107.332031 138.859375 110.425781 138.664062 113.136719 C 138.335938 118.566406 136.957031 122.277344 135.679688 124.328125 C 134.386719 126.382812 133.488281 126.984375 133.398438 126.898438 C 133.234375 126.773438 133.863281 125.949219 134.839844 123.867188 C 135.8125 121.792969 136.832031 118.324219 136.941406 113.050781 C 137.027344 110.410156 136.910156 107.34375 136.957031 103.761719 C 136.996094 100.222656 137.058594 96.21875 137.105469 91.742188 C 137.285156 87.238281 137.386719 82.175781 137.722656 76.710938 C 137.808594 75.347656 137.871094 73.9375 137.949219 72.496094 C 138.035156 71.054688 138.140625 69.582031 138.097656 68.085938 C 138.097656 65.308594 138.082031 62.425781 138.066406 59.410156 C 137.511719 59.230469 136.972656 59.035156 136.445312 58.828125 C 135.304688 75.253906 136.714844 91.820312 134.902344 108.28125 C 134.152344 115.132812 132.078125 120.65625 128.332031 126.445312 C 123.679688 133.632812 121.699219 139.890625 121.769531 148.484375 C 122.027344 180.59375 122.496094 212.730469 122.609375 244.835938 C 130.296875 252.15625 140.824219 252.21875 150.804688 251.90625 C 160.703125 251.585938 169.003906 251.066406 177.894531 246.769531 Z M 181.441406 132.625 C 183.730469 137.410156 183.644531 143.339844 183.597656 148.484375 C 183.328125 183.578125 182.757812 218.699219 182.726562 253.792969 C 182.726562 253.839844 182.703125 253.886719 182.703125 253.933594 C 182.820312 254.453125 182.742188 255.039062 182.335938 255.625 C 174.699219 266.699219 161.320312 270.023438 148.492188 269.308594 C 138.8125 268.777344 122.144531 265.613281 118.097656 254.992188 C 117.988281 254.78125 117.886719 254.53125 117.839844 254.273438 C 117.796875 254.136719 117.734375 253.988281 117.679688 253.824219 C 117.5 253.207031 117.570312 252.667969 117.78125 252.21875 C 117.695312 216.820312 116.097656 181.402344 116.898438 146.007812 C 117.046875 139.546875 117.902344 133.765625 121.425781 128.214844 C 126.210938 120.6875 129.742188 114.445312 130.28125 105.25 C 131.238281 89.179688 130.355469 72.855469 131.707031 56.863281 C 127.847656 54.28125 128.914062 49.296875 132.257812 46.957031 C 131.058594 42.5 135.351562 37.957031 135.351562 33.257812 C 135.351562 32.601562 135.5625 32.105469 135.890625 31.730469 C 136.21875 30.917969 136.925781 30.273438 138.066406 30.289062 C 143.613281 30.304688 149.269531 30.640625 154.882812 30.609375 C 155.316406 30.203125 155.871094 29.945312 156.472656 30.007812 C 158.449219 30.234375 162.386719 30.289062 162.386719 30.289062 C 162.402344 30.289062 162.402344 30.289062 162.417969 30.289062 C 162.417969 30.289062 162.433594 30.289062 162.457031 30.289062 C 163.703125 30.15625 164.429688 30.886719 164.679688 31.792969 C 164.964844 32.167969 165.144531 32.648438 165.144531 33.257812 C 165.144531 37.957031 169.453125 42.5 168.253906 46.957031 C 171.582031 49.296875 172.664062 54.28125 168.792969 56.863281 C 170.203125 73.9375 168.582031 91.175781 170.460938 108.28125 C 171.535156 117.984375 177.417969 124.210938 181.441406 132.625 " fill-opacity="1" fill-rule="nonzero"/></svg>