<svg xmlns="http://www.w3.org/2000/svg" xmlns:xlink="http://www.w3.org/1999/xlink" width="400" zoomAndPan="magnify" viewBox="0 0 300 299.999988" height="400" preserveAspectRatio="xMidYMid meet" version="1.0"><path fill="currentColor" d="M 255.695312 184.246094 C 251.679688 179.847656 243.652344 186.484375 241.539062 190.175781 C 241.363281 190.480469 241.03125 190.660156 240.6875 190.660156 C 236.171875 190.660156 234.539062 196.761719 230.71875 197.808594 C 228.628906 198.386719 226.03125 199.128906 223.96875 199.554688 C 222.675781 199.820312 221.105469 200.253906 219.773438 200.070312 C 216.898438 199.675781 213.320312 198.242188 212.429688 195.082031 C 211.792969 192.820312 211.816406 190.410156 211.003906 188.207031 C 209.972656 185.398438 206.992188 185.894531 204.488281 185.65625 C 201.5625 185.367188 196.035156 184.101562 193.40625 186.089844 C 191.230469 187.746094 190.144531 190.375 188.859375 192.675781 C 186.839844 196.34375 185.136719 199.039062 188.34375 202.667969 C 188.90625 203.304688 189.890625 204.261719 190.144531 205.113281 C 191.136719 208.441406 188.054688 209.8125 187.042969 212.828125 C 186.496094 214.476562 185.921875 215.730469 185.046875 216.761719 C 193.675781 218.660156 203.167969 216.398438 211.597656 214.546875 C 221.679688 212.320312 231.554688 210.269531 240.003906 203.867188 C 247 198.566406 252.285156 191.769531 255.695312 184.246094 Z M 260.183594 161.203125 C 259.878906 154.371094 258.195312 147.511719 255.003906 141.035156 C 252.953125 136.742188 251.753906 132.074219 249.46875 127.902344 C 247.988281 125.199219 245.882812 121.136719 242.070312 122.480469 C 239.292969 123.476562 236.847656 125.078125 234.492188 126.832031 C 231.855469 128.777344 229.207031 130.476562 226.511719 132.117188 C 231.570312 137.304688 244.53125 136.394531 245.277344 145.171875 C 245.496094 147.839844 242.664062 147.550781 244.046875 151.484375 C 245.011719 154.242188 247.023438 156.359375 249.574219 157.777344 C 252.863281 159.609375 256.417969 160.914062 260.183594 161.203125 Z M 256.539062 182.316406 C 258.992188 176.242188 260.242188 169.746094 260.222656 163.164062 C 253.621094 162.675781 243.414062 159.085938 242.148438 152.007812 C 241.875 150.449219 241.667969 148.949219 242.320312 147.445312 C 244.554688 142.378906 238.890625 139.75 235.109375 138.605469 C 231.042969 137.390625 227.445312 136.324219 224.800781 133.152344 C 223.285156 134.070312 221.773438 134.980469 220.214844 135.9375 C 213.722656 139.933594 207.714844 144.679688 201.183594 148.597656 C 195.496094 151.976562 189.050781 155.730469 185.503906 161.546875 C 181.796875 167.605469 180.894531 175.027344 179.714844 181.9375 C 178.410156 189.605469 177.238281 197.449219 177.46875 205.25 C 177.613281 209.996094 178.082031 214.4375 182.890625 216.179688 C 185.496094 214.042969 184.484375 210.519531 187.089844 208.324219 C 189.597656 206.222656 185.496094 202.667969 184.484375 200.496094 C 182.851562 196.988281 187.1875 191.953125 188.601562 189.121094 C 190.652344 185.019531 193.628906 183.058594 198.269531 183.203125 C 202.035156 183.316406 205.757812 183.878906 209.53125 184 C 210.273438 184.023438 211.164062 184.207031 211.632812 184.84375 C 212.8125 186.523438 213.371094 188.832031 213.609375 190.828125 C 214.285156 196.320312 219 200.328125 224.65625 196.972656 C 224.621094 196.996094 226.125 195.863281 226.746094 195.886719 C 230.785156 196.070312 232.890625 192.402344 235.867188 190.265625 C 237.042969 189.429688 239.496094 189.484375 240.242188 188.480469 C 243.558594 184.039062 251.632812 178.109375 256.539062 182.316406 Z M 261.890625 147.511719 C 269.257812 171.980469 258.324219 200.054688 234.992188 211.574219 C 224.960938 216.527344 212.957031 218.789062 201.898438 220.371094 C 193.765625 221.53125 181.742188 223.242188 175.925781 215.769531 C 172.492188 211.355469 173.359375 204.050781 173.695312 198.933594 C 174.253906 190.730469 175.5 182.605469 177.132812 174.554688 C 178.605469 167.265625 180.269531 160.414062 185.769531 155.039062 C 190.917969 150.011719 197.121094 146.699219 203.039062 142.691406 C 210.585938 137.554688 218.855469 133.242188 226.289062 128.03125 C 230.769531 124.898438 235.515625 119.921875 241.03125 118.707031 C 252.226562 116.246094 254.859375 131.664062 258.390625 139.042969 C 259.734375 141.785156 261.003906 144.589844 261.890625 147.511719 " fill-opacity="1" fill-rule="nonzero"/><path fill="currentColor" d="M 229.585938 143.304688 C 229.9375 143.867188 221.082031 149.691406 211.398438 158.324219 C 206.5625 162.65625 202.503906 166.882812 199.886719 170.203125 C 197.25 173.453125 195.914062 175.808594 195.617188 175.640625 C 195.382812 175.519531 196.195312 172.960938 198.632812 169.292969 C 201.003906 165.617188 205.011719 161.097656 209.925781 156.691406 C 219.8125 147.875 229.3125 142.820312 229.585938 143.304688 " fill-opacity="1" fill-rule="nonzero"/><path fill="currentColor" d="M 119.585938 82.960938 C 118.613281 82.976562 117.632812 82.984375 116.652344 83.015625 C 106.128906 83.289062 95.035156 82.582031 84.5625 83.757812 C 79.972656 84.269531 73.464844 85.324219 71.179688 89.992188 C 70.269531 91.847656 69.835938 93.8125 69.8125 95.820312 C 74.902344 95.097656 80.261719 91.214844 85.457031 90.238281 C 91.0625 89.195312 92.9375 94.332031 98.148438 94.1875 C 104.277344 94.011719 103.8125 88.355469 107.996094 85.808594 C 111.316406 83.796875 117.285156 86.425781 119.585938 82.960938 Z M 163.375 100.859375 C 169.097656 98.4375 167.382812 90.09375 161.914062 88.316406 C 161.101562 88.074219 160.289062 87.800781 159.484375 87.535156 C 156.933594 86.683594 155.367188 84.554688 153.734375 82.542969 C 143.097656 82.6875 132.464844 82.710938 121.832031 82.910156 C 120.632812 86.28125 118.660156 87.496094 114.816406 86.917969 C 107.328125 85.808594 107.359375 92.050781 102.277344 95.308594 C 96.042969 99.28125 91.585938 90.265625 85.972656 92.136719 C 82.417969 93.3125 78.972656 93.859375 75.699219 95.820312 C 73.753906 96.980469 71.976562 97.601562 69.90625 97.816406 C 70.464844 103.207031 73.535156 108.59375 77.058594 112.304688 C 88.085938 123.941406 102.339844 133.636719 117.300781 139.4375 C 118.097656 139.75 118.902344 140.0625 119.730469 140.367188 C 121.675781 139.910156 123.578125 139.296875 123.6875 138.460938 C 123.867188 137.023438 123.375 134.511719 123.898438 133.21875 C 124.878906 130.789062 127.097656 129.117188 129.851562 129.652344 C 135.199219 130.667969 145.292969 135.066406 149.660156 130.03125 C 151.472656 127.925781 152.582031 125.183594 154.570312 123.242188 C 154.988281 122.832031 160.511719 118.289062 160.109375 118.007812 C 154.554688 114.210938 150.417969 106.800781 157.988281 102.910156 C 159.707031 102.023438 161.613281 101.605469 163.375 100.859375 Z M 195.222656 119.671875 C 199.300781 111.804688 207.28125 100.125 204.875 90.800781 C 201.277344 76.757812 176.542969 81.960938 166.078125 82.277344 C 162.757812 82.378906 159.433594 82.4375 156.113281 82.492188 C 157.023438 83.652344 158.019531 84.761719 159.25 85.300781 C 161.398438 86.257812 164.058594 86.585938 165.976562 88.074219 C 168.679688 90.144531 170.335938 92.1875 170.609375 95.660156 C 170.859375 98.675781 167.566406 101.203125 165.148438 102.21875 C 162.839844 103.199219 159.941406 103.746094 157.859375 105.175781 C 151.289062 109.664062 159.675781 115.480469 162.574219 117.203125 C 163.039062 117.460938 163.222656 118.078125 162.933594 118.546875 C 161.375 121.101562 159.179688 121.472656 157.039062 123.550781 C 154.6875 125.859375 153.523438 129.300781 151.039062 131.421875 C 148.039062 133.949219 144.8125 134.671875 140.902344 133.964844 C 137.613281 133.378906 134.371094 132.511719 131.082031 131.875 C 123.921875 130.5 126.414062 136.394531 125.644531 139.4375 C 125.386719 140.417969 124.316406 141.09375 122.964844 141.582031 C 128.714844 143.652344 134.714844 145.386719 140.804688 145.292969 C 148.574219 145.1875 156.347656 143.214844 163.769531 140.980469 C 175.875 137.34375 189.003906 131.328125 195.222656 119.671875 Z M 208.855469 90.957031 C 210.546875 101.460938 203.203125 112.761719 198.625 121.644531 C 196.664062 125.3125 194.097656 128.671875 190.902344 131.367188 C 179.640625 140.851562 164.640625 145.984375 150.242188 148.292969 C 133.300781 151.011719 115.941406 144.808594 101.433594 136.160156 C 93.363281 131.335938 85.738281 125.730469 78.757812 119.421875 C 73.730469 114.878906 68.476562 109.230469 66.867188 102.402344 C 64.300781 91.519531 68.515625 82.527344 79.988281 80.492188 C 92.558594 78.246094 106.441406 79.292969 119.152344 79.027344 C 139.164062 78.625 159.160156 78.269531 179.144531 77.699219 C 189.921875 77.378906 206.660156 77.234375 208.855469 90.957031 " fill-opacity="1" fill-rule="nonzero"/><path fill="currentColor" d="M 194.964844 103.457031 C 195.109375 103.496094 195.09375 103.996094 194.933594 104.9375 C 194.714844 105.835938 194.242188 107.105469 193.421875 108.539062 C 191.8125 111.441406 188.835938 114.902344 185.078125 118.144531 C 181.273438 121.34375 177.40625 123.71875 174.363281 124.949219 C 172.859375 125.582031 171.5 125.929688 170.609375 126.058594 C 169.714844 126.164062 169.207031 126.132812 169.160156 125.996094 C 169.121094 125.855469 169.570312 125.582031 170.40625 125.238281 C 171.226562 124.84375 172.296875 124.320312 173.679688 123.539062 C 176.414062 122.035156 179.980469 119.542969 183.648438 116.460938 C 187.273438 113.339844 190.285156 110.203125 192.117188 107.6875 C 193.042969 106.449219 193.695312 105.378906 194.128906 104.621094 C 194.515625 103.851562 194.820312 103.421875 194.964844 103.457031 " fill-opacity="1" fill-rule="nonzero"/><path fill="currentColor" d="M 128.296875 164.363281 C 138.972656 166.726562 149.40625 170.1875 160.328125 169.992188 C 157.785156 169.148438 154.753906 168.296875 151.304688 167.5 C 149.515625 167.066406 147.621094 166.625 145.671875 166.171875 C 143.726562 165.699219 141.675781 165.328125 139.597656 164.871094 C 131.265625 163.125 123.738281 161.425781 118.300781 160.082031 C 112.871094 158.734375 109.554688 157.757812 109.613281 157.453125 C 109.683594 157.164062 113.117188 157.597656 118.628906 158.554688 C 124.140625 159.503906 131.734375 160.96875 140.097656 162.730469 C 142.1875 163.1875 144.222656 163.566406 146.179688 164.058594 C 148.140625 164.574219 150.023438 165.054688 151.816406 165.523438 C 152.382812 165.683594 152.9375 165.84375 153.5 165.996094 C 146.597656 162.246094 139.742188 158.652344 131.957031 156.078125 C 120.601562 152.34375 108.90625 148.277344 96.863281 147.890625 C 85.398438 147.496094 74.203125 149.015625 62.851562 150.449219 C 60.046875 150.792969 57.152344 151.195312 54.292969 151.78125 C 58.992188 151.453125 63.199219 151.796875 66.320312 152.207031 C 69.957031 152.683594 72.160156 153.230469 72.160156 153.535156 C 72.136719 153.84375 69.835938 153.832031 66.207031 153.753906 C 62.5625 153.679688 57.527344 153.558594 52.097656 154.1875 C 49.378906 154.527344 46.839844 155.0625 44.570312 155.699219 C 43.097656 156.148438 41.761719 156.632812 40.546875 157.125 C 40.058594 157.46875 39.597656 157.832031 39.132812 158.210938 C 45.71875 156.238281 52.773438 155.804688 59.621094 155.835938 C 70.125 155.886719 80.71875 156.367188 91.128906 157.6875 C 103.628906 159.28125 116.007812 161.644531 128.296875 164.363281 Z M 166.070312 177.609375 C 166.039062 177.242188 166.015625 176.878906 165.960938 176.5 C 165.46875 176.75 164.945312 176.933594 164.40625 177.046875 C 163.335938 177.28125 162.25 177.296875 161.195312 177.234375 C 159.050781 177.097656 156.933594 176.574219 154.859375 176.40625 C 148.375 175.792969 142.589844 174.972656 138.433594 174.515625 C 134.242188 174.121094 131.597656 173.902344 131.597656 173.574219 C 131.613281 173.300781 134.226562 172.960938 138.488281 172.960938 C 142.785156 173.027344 148.648438 173.597656 155.042969 174.214844 C 157.382812 174.425781 159.433594 174.957031 161.351562 175.117188 C 162.992188 175.277344 164.488281 175.117188 165.546875 174.480469 C 165.417969 174.160156 165.257812 173.863281 165.074219 173.589844 C 153.59375 174.988281 142.855469 171.8125 131.796875 169.1875 C 120.640625 166.542969 109.355469 164.21875 98.027344 162.5625 C 86.625 160.886719 75.128906 159.988281 63.59375 159.808594 C 54.542969 159.648438 44.898438 159.664062 36.445312 163.308594 C 36.75 163.824219 37.074219 164.417969 37.449219 165.070312 C 39.042969 164.289062 41.03125 163.695312 43.316406 163.214844 C 44.769531 162.914062 46.363281 162.65625 48.046875 162.433594 C 48.882812 162.328125 49.742188 162.207031 50.628906 162.101562 L 51.300781 162.007812 L 52.027344 161.964844 C 52.492188 161.933594 52.953125 161.910156 53.417969 161.863281 C 55.292969 161.734375 57.253906 161.605469 59.332031 161.628906 C 60.382812 161.628906 61.4375 161.628906 62.507812 161.621094 C 63.5625 161.644531 64.648438 161.675781 65.734375 161.683594 C 70.125 161.789062 74.710938 161.828125 79.519531 161.75 C 82.859375 161.734375 86.140625 161.773438 89.316406 162.007812 C 92.472656 162.199219 95.589844 162.785156 98.398438 163.421875 C 104.011719 164.726562 109.066406 165.890625 113.328125 166.871094 C 121.796875 168.699219 127.027344 169.992188 127.027344 170.308594 C 126.972656 170.605469 121.636719 169.855469 113 168.402344 C 108.703125 167.628906 103.621094 166.574219 97.964844 165.410156 C 92.414062 164.105469 86.179688 163.890625 79.535156 163.960938 C 74.75 164.035156 70.054688 163.960938 65.683594 163.800781 C 64.597656 163.761719 63.511719 163.726562 62.453125 163.6875 C 61.40625 163.671875 60.390625 163.65625 59.371094 163.648438 C 57.375 163.566406 55.398438 163.648438 53.515625 163.726562 C 47.015625 164.074219 41.464844 164.675781 38 165.996094 C 38.390625 166.648438 38.820312 167.339844 39.324219 168.078125 C 40.050781 169.238281 40.863281 170.507812 41.738281 171.875 C 42.632812 173.234375 43.605469 174.683594 44.609375 176.210938 C 45.601562 177.75 46.652344 179.378906 47.730469 181.046875 C 48.816406 182.773438 49.832031 184.417969 51.171875 186.015625 C 56.417969 192.421875 62.324219 197.375 66.988281 200.070312 C 69.328125 201.414062 71.394531 202.144531 72.851562 202.417969 C 74.292969 202.683594 75.191406 202.578125 75.207031 202.746094 C 75.226562 202.867188 74.4375 203.285156 72.773438 203.269531 C 71.140625 203.253906 68.832031 202.691406 66.265625 201.453125 C 61.132812 198.945312 54.929688 194.070312 49.445312 187.394531 C 48.761719 186.5625 48.125 185.679688 47.523438 184.800781 C 46.925781 183.878906 46.4375 183.046875 45.90625 182.179688 C 44.859375 180.484375 43.847656 178.851562 42.882812 177.28125 C 41.933594 175.714844 41.03125 174.226562 40.179688 172.847656 C 39.550781 171.761719 38.988281 170.726562 38.457031 169.746094 C 39.253906 172.703125 39.785156 175.753906 40.949219 178.800781 C 43.566406 185.640625 48.148438 191.519531 54.109375 195.796875 C 65.699219 204.089844 79.59375 209.238281 93.667969 211.304688 C 108.742188 213.535156 125.023438 213.203125 139.375 207.582031 C 147.304688 204.484375 154.84375 199.492188 159.726562 192.347656 C 159.820312 192.226562 159.910156 192.089844 160 191.953125 C 159.289062 192.710938 158.558594 193.457031 157.769531 194.199219 C 153.601562 198.082031 148.574219 201.839844 142.535156 204.664062 C 141.769531 205.03125 141.007812 205.347656 140.265625 205.621094 C 139.871094 205.765625 139.589844 205.894531 139.101562 206.054688 L 137.976562 206.417969 C 136.488281 206.914062 135.007812 207.398438 133.558594 207.878906 C 130.664062 208.820312 127.800781 209.683594 124.976562 210.195312 C 119.273438 211.324219 114.09375 210.769531 109.902344 210.230469 C 105.695312 209.683594 102.324219 209.183594 100 209.03125 C 97.660156 208.835938 96.332031 208.8125 96.332031 208.621094 C 96.332031 208.492188 97.625 208.25 100 208.167969 C 102.414062 208.058594 105.855469 208.339844 110.0625 208.675781 C 114.238281 209.015625 119.28125 209.382812 124.574219 208.203125 C 127.253906 207.65625 130.019531 206.800781 132.898438 205.828125 C 134.332031 205.332031 135.800781 204.839844 137.289062 204.339844 L 138.417969 203.960938 C 138.683594 203.882812 139.125 203.6875 139.480469 203.558594 C 140.242188 203.285156 140.957031 202.980469 141.644531 202.644531 C 147.335938 199.988281 152.308594 196.371094 156.402344 192.710938 C 158.421875 190.859375 160.230469 188.960938 161.769531 187.085938 C 163.175781 185.332031 164.316406 183.585938 165.234375 181.882812 C 165.710938 180.417969 166.015625 178.96875 166.070312 177.609375 Z M 167.992188 170.871094 C 175.941406 180.773438 160.8125 198.257812 153.902344 203.921875 C 141.039062 214.460938 121.742188 217.195312 105.621094 216.382812 C 88.699219 215.53125 71.285156 211.417969 56.796875 202.304688 C 50.941406 198.628906 45.222656 194.199219 41.417969 188.308594 C 39.40625 185.1875 37.492188 181.714844 36.605469 178.070312 C 35.464844 173.402344 35.0625 168.425781 31.910156 164.546875 C 31.636719 164.203125 31.507812 163.855469 31.472656 163.503906 C 30.960938 162.949219 30.765625 162.152344 31.273438 161.316406 C 36.824219 152.371094 46.75 148.910156 56.742188 147.367188 C 69.167969 145.460938 81.972656 143.464844 94.578125 143.890625 C 107.882812 144.335938 120.445312 148.058594 132.988281 152.304688 C 138.851562 154.292969 144.875 156.183594 150.3125 159.199219 C 155.953125 162.3125 161.324219 165.890625 167.085938 168.789062 C 168.011719 169.261719 168.21875 170.113281 167.992188 170.871094 " fill-opacity="1" fill-rule="nonzero"/><path fill="currentColor" d="M 163.28125 180.039062 C 163.84375 180.121094 164.445312 180.917969 164.019531 182.390625 C 163.769531 183.03125 163.402344 183.539062 162.957031 183.75 C 162.554688 183.988281 162.210938 184 161.976562 183.804688 C 161.503906 183.355469 161.648438 182.5 161.921875 181.699219 C 162.171875 181.015625 162.667969 179.960938 163.28125 180.039062 " fill-opacity="1" fill-rule="nonzero"/><path fill="currentColor" d="M 158.542969 180.378906 C 159.160156 180.378906 159.652344 182.050781 159.652344 184.132812 C 159.652344 186.203125 159.160156 187.882812 158.542969 187.882812 C 157.945312 187.882812 157.441406 186.203125 157.441406 184.132812 C 157.441406 182.050781 157.945312 180.378906 158.542969 180.378906 " fill-opacity="1" fill-rule="nonzero"/><path fill="currentColor" d="M 153.484375 181.34375 C 154.046875 181.398438 154.59375 183.894531 154.0625 187.214844 C 153.484375 190.375 152.4375 192.734375 151.851562 192.621094 C 151.253906 192.5 151.328125 189.878906 151.875 186.851562 C 152.378906 183.933594 152.847656 181.289062 153.484375 181.34375 " fill-opacity="1" fill-rule="nonzero"/><path fill="currentColor" d="M 149.953125 183.53125 C 150.054688 184.949219 149.863281 186.886719 149.277344 188.914062 C 148.0625 192.949219 145.984375 195.667969 145.472656 195.394531 C 144.917969 195.105469 146.035156 192.019531 147.160156 188.285156 C 147.714844 186.402344 148.101562 184.691406 148.40625 183.476562 C 148.679688 182.179688 148.929688 181.34375 149.242188 181.34375 C 149.527344 181.359375 149.839844 182.171875 149.953125 183.53125 " fill-opacity="1" fill-rule="nonzero"/><path fill="currentColor" d="M 142.054688 184.609375 C 142.625 184.691406 142.785156 188.375 141.84375 192.871094 C 141.335938 195.121094 140.589844 197.085938 139.824219 198.445312 C 139.0625 199.746094 138.394531 200.40625 138.136719 200.292969 C 137.847656 200.167969 138.03125 199.21875 138.394531 197.808594 C 138.738281 196.449219 139.207031 194.527344 139.6875 192.402344 C 140.589844 188.109375 141.425781 184.535156 142.054688 184.609375 " fill-opacity="1" fill-rule="nonzero"/><path fill="currentColor" d="M 133.894531 187.882812 C 134.171875 187.921875 134.347656 188.9375 134.242188 190.59375 C 134.128906 192.242188 133.65625 194.488281 132.808594 196.84375 C 131.03125 201.527344 128.691406 204.808594 128.183594 204.550781 C 127.605469 204.261719 129.039062 200.535156 130.726562 196.085938 C 131.554688 193.835938 132.214844 191.785156 132.714844 190.296875 C 133.195312 188.792969 133.574219 187.851562 133.894531 187.882812 " fill-opacity="1" fill-rule="nonzero"/><path fill="currentColor" d="M 125.722656 192.453125 C 126.296875 192.5 126.585938 195.652344 125.515625 199.441406 C 124.9375 201.324219 124.082031 202.917969 123.230469 203.960938 C 122.402344 204.929688 121.726562 205.355469 121.476562 205.203125 C 121.21875 205.023438 121.46875 204.234375 121.925781 203.109375 C 122.3125 202.039062 122.875 200.527344 123.398438 198.808594 C 124.390625 195.363281 125.082031 192.386719 125.722656 192.453125 " fill-opacity="1" fill-rule="nonzero"/><path fill="currentColor" d="M 121.234375 119.582031 C 124.574219 120.144531 126.703125 120.429688 126.703125 120.773438 C 126.703125 120.925781 126.167969 121.03125 125.191406 121.105469 C 124.6875 121.144531 124.089844 121.175781 123.398438 121.183594 C 122.691406 121.175781 121.886719 121.28125 121.019531 121.121094 C 117.496094 120.832031 112.675781 119.761719 107.722656 117.636719 C 102.808594 115.441406 98.695312 112.90625 95.808594 110.960938 C 92.945312 108.996094 91.273438 107.644531 91.433594 107.378906 C 91.585938 107.117188 93.558594 108.015625 96.621094 109.625 C 99.6875 111.203125 103.859375 113.492188 108.597656 115.609375 C 113.382812 117.660156 117.882812 118.90625 121.234375 119.582031 " fill-opacity="1" fill-rule="nonzero"/><path fill="currentColor" d="M 118.386719 196.214844 C 118.96875 196.359375 118.734375 198.71875 117.863281 201.492188 C 117.027344 204.246094 115.863281 206.351562 115.273438 206.167969 C 114.6875 206.003906 114.90625 203.632812 115.742188 200.875 C 116.609375 198.15625 117.777344 196.070312 118.386719 196.214844 " fill-opacity="1" fill-rule="nonzero"/><path fill="currentColor" d="M 113.152344 194.414062 C 113.707031 194.582031 113.617188 197.117188 112.515625 200.132812 C 111.9375 201.621094 111.132812 202.886719 110.351562 203.699219 C 109.589844 204.445312 108.976562 204.71875 108.742188 204.550781 C 108.484375 204.355469 108.703125 203.6875 109.097656 202.773438 C 109.449219 201.886719 109.933594 200.671875 110.464844 199.335938 C 111.46875 196.570312 112.546875 194.238281 113.152344 194.414062 " fill-opacity="1" fill-rule="nonzero"/><path fill="currentColor" d="M 87.1875 169.929688 C 87.757812 170.113281 87.539062 172.488281 86.671875 175.246094 C 85.828125 177.988281 84.667969 180.074219 84.074219 179.902344 C 83.5 179.710938 83.726562 177.335938 84.570312 174.59375 C 85.433594 171.835938 86.597656 169.753906 87.1875 169.929688 " fill-opacity="1" fill-rule="nonzero"/><path fill="currentColor" d="M 76.90625 167.289062 C 77.492188 167.429688 77.203125 170.796875 76.261719 174.8125 C 75.3125 178.824219 74.066406 181.960938 73.464844 181.816406 C 72.882812 181.6875 73.171875 178.3125 74.113281 174.304688 C 75.0625 170.292969 76.3125 167.152344 76.90625 167.289062 " fill-opacity="1" fill-rule="nonzero"/><path fill="currentColor" d="M 71.339844 167.152344 C 71.941406 167.300781 71.453125 170.855469 70.292969 175.101562 C 69.113281 179.308594 67.695312 182.628906 67.09375 182.5 C 66.503906 182.367188 66.972656 178.816406 68.152344 174.539062 C 69.328125 170.308594 70.746094 166.992188 71.339844 167.152344 " fill-opacity="1" fill-rule="nonzero"/><path fill="currentColor" d="M 63.34375 167.316406 C 63.972656 167.484375 63.015625 171.8125 61.785156 176.953125 C 61.222656 179.527344 60.835938 181.859375 60.601562 183.570312 C 60.40625 185.277344 60.238281 186.378906 59.910156 186.417969 C 59.636719 186.453125 59.242188 185.367188 59.046875 183.539062 C 58.878906 181.714844 59.058594 179.179688 59.636719 176.476562 C 60.929688 171.113281 62.796875 167.15625 63.34375 167.316406 " fill-opacity="1" fill-rule="nonzero"/><path fill="currentColor" d="M 52.726562 165.84375 C 53.289062 165.933594 53.675781 168.207031 52.773438 171.207031 C 51.882812 173.992188 50.699219 175.96875 50.105469 175.808594 C 49.539062 175.625 49.824219 173.234375 50.667969 170.582031 C 51.441406 168.113281 52.097656 165.722656 52.726562 165.84375 " fill-opacity="1" fill-rule="nonzero"/><path fill="currentColor" d="M 48.976562 166.011719 C 49.507812 166.179688 49.726562 167.8125 48.761719 169.890625 C 47.851562 171.730469 46.78125 172.921875 46.1875 172.703125 C 45.625 172.488281 45.890625 170.710938 46.765625 168.949219 C 47.53125 167.394531 48.375 165.796875 48.976562 166.011719 " fill-opacity="1" fill-rule="nonzero"/></svg>