<svg xmlns="http://www.w3.org/2000/svg" xmlns:xlink="http://www.w3.org/1999/xlink" width="400" zoomAndPan="magnify" viewBox="0 0 300 299.999988" height="400" preserveAspectRatio="xMidYMid meet" version="1.0"><defs><clipPath id="cd31235423"><path d="M 32 33 L 270 33 L 270 267.898438 L 32 267.898438 Z M 32 33 " clip-rule="nonzero"/></clipPath></defs><g clip-path="url(#cd31235423)"><path fill="currentColor" d="M 229.375 142.390625 C 220.746094 138.296875 213.160156 132.28125 207.433594 124.988281 C 203.347656 119.789062 197.375 116.6875 190.914062 116.367188 C 189.347656 98.769531 179.609375 81.523438 163.992188 68.800781 C 156.59375 62.777344 150.667969 55.128906 146.851562 46.6875 C 143.972656 40.316406 138.484375 35.722656 131.792969 34.085938 C 125.105469 32.445312 118.105469 33.980469 112.597656 38.292969 C 105.289062 44.011719 96.480469 48.050781 87.121094 49.972656 C 59.953125 55.550781 39.503906 73.515625 33.753906 96.855469 C 30.003906 112.0625 32.777344 128.425781 41.554688 142.925781 C 52.746094 161.40625 72.445312 175.261719 95.605469 180.933594 C 101.113281 182.28125 106.714844 183.144531 112.292969 183.5 C 110.539062 189.019531 109.609375 194.765625 109.609375 200.617188 C 109.609375 232.582031 136.597656 259.382812 172.550781 265.988281 C 172.625 266.007812 172.699219 266.015625 172.773438 266.027344 C 178.261719 267.023438 183.953125 267.550781 189.796875 267.550781 C 195.632812 267.550781 201.554688 266.980469 207.039062 265.988281 C 242.992188 259.382812 269.980469 232.582031 269.980469 200.617188 C 269.980469 176.582031 254.421875 154.269531 229.375 142.390625 Z M 130.4375 59.527344 C 131.050781 58.683594 132.230469 58.492188 133.074219 59.101562 C 141.878906 65.449219 157.539062 79.613281 163.515625 103.171875 C 165.117188 109.480469 165.890625 116.011719 165.8125 122.582031 C 165.800781 123.617188 164.957031 124.449219 163.921875 124.449219 C 163.917969 124.449219 163.910156 124.449219 163.902344 124.449219 C 162.859375 124.433594 162.023438 123.582031 162.035156 122.539062 C 162.109375 116.292969 161.375 110.089844 159.855469 104.097656 C 154.171875 81.699219 139.253906 68.210938 130.867188 62.164062 C 130.019531 61.554688 129.828125 60.375 130.4375 59.527344 Z M 56.746094 134.566406 C 56.484375 134.691406 56.210938 134.75 55.9375 134.75 C 55.230469 134.75 54.554688 134.347656 54.230469 133.667969 C 49.226562 123.09375 47.988281 111.796875 50.648438 100.992188 C 51.191406 98.792969 51.898438 96.621094 52.75 94.527344 C 53.140625 93.5625 54.242188 93.097656 55.210938 93.492188 C 56.175781 93.886719 56.640625 94.988281 56.246094 95.953125 C 55.464844 97.875 54.8125 99.875 54.316406 101.898438 C 51.863281 111.84375 53.015625 122.273438 57.644531 132.050781 C 58.089844 132.996094 57.6875 134.121094 56.746094 134.566406 Z M 96.503906 177.265625 C 85.589844 174.59375 75.484375 170.03125 66.761719 163.992188 C 75.179688 153.191406 89.445312 148.167969 102.871094 151.453125 C 110.710938 153.375 117.621094 157.921875 122.46875 164.3125 C 118.746094 169.125 115.765625 174.324219 113.617188 179.789062 C 107.902344 179.492188 102.152344 178.648438 96.503906 177.265625 Z M 210.789062 261.351562 C 217.835938 250.09375 223.035156 233.136719 225.25 213.839844 C 225.371094 212.804688 224.628906 211.867188 223.59375 211.75 C 222.554688 211.628906 221.621094 212.375 221.5 213.410156 C 219.125 234.082031 213.304688 251.882812 205.492188 262.433594 C 200.425781 263.308594 195.175781 263.773438 189.792969 263.773438 C 184.417969 263.773438 179.167969 263.3125 174.101562 262.433594 C 168.566406 254.964844 164.035156 243.96875 160.980469 230.550781 C 160.75 229.535156 159.738281 228.902344 158.722656 229.128906 C 157.703125 229.363281 157.066406 230.375 157.296875 231.390625 C 160.046875 243.460938 163.988281 253.695312 168.796875 261.347656 C 136.84375 253.789062 113.382812 229.425781 113.382812 200.617188 C 113.382812 178.054688 128.117188 157.050781 151.835938 145.800781 C 154.855469 144.367188 157.757812 142.707031 160.507812 140.847656 C 159.546875 143.78125 158.664062 146.855469 157.878906 150.050781 C 154.757812 162.722656 153.109375 177.207031 153.109375 191.941406 C 153.109375 194.125 153.144531 196.335938 153.214844 198.507812 C 153.25 199.53125 154.089844 200.335938 155.101562 200.335938 C 155.121094 200.335938 155.144531 200.335938 155.164062 200.332031 C 156.207031 200.300781 157.023438 199.425781 156.988281 198.382812 C 156.917969 196.253906 156.882812 194.085938 156.882812 191.941406 C 156.882812 177.507812 158.496094 163.335938 161.542969 150.953125 C 162.800781 145.847656 164.300781 141.066406 165.992188 136.722656 C 169.371094 133.894531 172.441406 130.738281 175.128906 127.320312 C 178.726562 122.738281 184.074219 120.109375 189.796875 120.109375 C 195.515625 120.109375 200.863281 122.738281 204.460938 127.320312 C 207.148438 130.738281 210.21875 133.890625 213.59375 136.722656 C 215.695312 142.101562 217.480469 148.117188 218.894531 154.621094 C 220.855469 163.605469 222.070312 173.273438 222.519531 183.351562 C 222.5625 184.367188 223.398438 185.15625 224.402344 185.15625 C 224.429688 185.15625 224.460938 185.15625 224.488281 185.15625 C 225.527344 185.109375 226.335938 184.226562 226.289062 183.1875 C 225.835938 172.890625 224.589844 163.011719 222.585938 153.816406 C 221.589844 149.25 220.414062 144.914062 219.078125 140.847656 C 221.832031 142.703125 224.730469 144.367188 227.753906 145.800781 C 251.472656 157.050781 266.203125 178.054688 266.203125 200.613281 C 266.207031 229.425781 242.746094 253.792969 210.789062 261.351562 Z M 210.789062 261.351562 " fill-opacity="1" fill-rule="nonzero"/></g></svg>