<svg xmlns="http://www.w3.org/2000/svg" xmlns:xlink="http://www.w3.org/1999/xlink" width="400" zoomAndPan="magnify" viewBox="0 0 300 299.999988" height="400" preserveAspectRatio="xMidYMid meet" version="1.0"><path fill="currentColor" d="M 145.828125 211.484375 C 145.828125 211.484375 145.839844 211.492188 145.847656 211.496094 C 145.839844 211.484375 145.832031 211.476562 145.828125 211.484375 " fill-opacity="1" fill-rule="nonzero"/><path fill="currentColor" d="M 265.1875 171.128906 L 265.15625 170.859375 C 262.894531 171.148438 260.007812 171.484375 253.269531 172.1875 C 253.351562 172.199219 257.675781 173.597656 264.246094 173.078125 C 263.820312 173.65625 263.285156 174.167969 262.660156 174.5625 C 260.171875 176.140625 244.21875 177.414062 238.886719 177.429688 C 228.6875 177.464844 211.238281 174.148438 207.335938 172.546875 C 204.824219 171.507812 201.472656 170.140625 197.429688 168.433594 C 198.703125 167.964844 199.945312 167.421875 201.171875 166.851562 C 202.101562 166.949219 203.03125 166.992188 203.964844 166.988281 C 219.167969 170.917969 233.804688 171.828125 248.109375 171.894531 C 240.164062 170.648438 222.394531 168.515625 206.171875 164.296875 C 207.132812 163.761719 208.085938 163.207031 209.03125 162.652344 C 218.199219 163.933594 224.75 166.535156 241.636719 167.964844 C 243.273438 168.085938 244.121094 168.148438 244.121094 168.148438 C 244.121094 168.148438 240.789062 167.464844 234.636719 166.203125 C 218.890625 162.84375 218.105469 162.140625 211.855469 160.976562 C 216.738281 158.0625 222.90625 154.140625 225.425781 148.492188 C 233.613281 150.808594 247.316406 157.167969 251.707031 159.117188 C 251.617188 159.066406 238.304688 150.152344 226.109375 146.5 C 226.351562 145.476562 226.433594 144.429688 226.3125 143.367188 C 233.101562 146.367188 248.183594 150.75 264.257812 167.136719 C 265.328125 168.222656 265.558594 169.710938 265.1875 171.128906 Z M 229.949219 186.695312 C 225.535156 184.304688 219.980469 182.714844 214.804688 181.539062 C 200.695312 175.367188 191.722656 176.132812 191.644531 176.117188 C 212.035156 182.03125 202.289062 179.113281 211.1875 181.808594 C 214.875 183.238281 218.515625 184.894531 222.054688 186.351562 C 228.417969 188.972656 236.964844 192.539062 234.792969 201.085938 C 233.464844 206.300781 228.316406 209.855469 223.144531 210.488281 C 208.035156 212.347656 187.707031 194.070312 165.902344 176.707031 C 164.132812 175.296875 163.019531 174.398438 162.320312 173.886719 C 161.621094 173.371094 161.363281 173.214844 161.363281 173.214844 C 171.609375 183.230469 181.003906 192.378906 198.375 203.4375 C 203.972656 207.761719 210.390625 212.15625 214.484375 213.070312 C 196.566406 216.226562 184.257812 196.527344 158.117188 175.421875 C 156.269531 172.683594 155.734375 169.589844 159.859375 168.164062 C 163.800781 166.808594 194.796875 173.171875 196.417969 173.511719 C 208.339844 176.03125 223.289062 179.363281 229.949219 186.695312 Z M 154.367188 170.847656 C 154.324219 171.148438 150.835938 169.601562 150.570312 169.386719 C 150.316406 169.179688 150.113281 168.960938 149.9375 168.734375 C 154.800781 163.828125 158.855469 160.445312 161.039062 158.507812 C 160.964844 158.554688 155.152344 161.144531 149.242188 166.53125 C 149.375 163.804688 150.464844 163.453125 163.855469 149.703125 C 167.921875 145.523438 172.664062 141.96875 177.003906 138.066406 C 186.054688 129.945312 192.570312 123.914062 204.570312 125.777344 C 184.535156 129.84375 164.203125 154.820312 164.753906 154.417969 C 174.0625 147.617188 186.746094 134.796875 200.265625 129.871094 C 218.371094 123.28125 225.667969 132.347656 223.183594 138.546875 C 220.226562 145.921875 187.453125 162.546875 185.121094 165.125 C 181.398438 169.238281 217.355469 149.980469 222.964844 144.5 C 222.035156 153.597656 203.988281 162.613281 195.390625 165.382812 C 191.710938 166.566406 187.839844 167.179688 184.191406 168.421875 C 179.484375 167.667969 174.757812 167.085938 170.015625 166.574219 C 165.441406 166.074219 155.316406 163.453125 154.367188 170.847656 Z M 120.675781 156.089844 C 118.171875 153.382812 115.445312 151.101562 112.570312 149.9375 C 112.667969 149.601562 112.738281 149.253906 112.789062 148.902344 C 112.828125 148.816406 112.867188 148.730469 112.894531 148.648438 C 116.867188 137.761719 106.597656 133.84375 106.519531 133.78125 C 120.070312 128.109375 121.074219 125.890625 138.753906 120.691406 C 145.320312 119.019531 161.992188 112.238281 165.6875 120.226562 C 165.609375 120.25 138.390625 125.398438 114.824219 138.496094 C 114.183594 138.851562 158.242188 122.714844 171.273438 122.402344 C 173.359375 122.355469 174.945312 123.078125 176.726562 123.816406 C 176.917969 123.980469 177.109375 124.15625 177.273438 124.34375 C 177.878906 125.035156 178.207031 125.804688 178.519531 126.609375 C 175.921875 134.660156 165.804688 132.675781 122.195312 148.410156 C 113.578125 151.519531 165.371094 140.03125 176.261719 133.824219 C 176.4375 133.929688 176.765625 134.117188 176.9375 134.214844 C 174.898438 135.972656 173.101562 137.519531 171.382812 139.007812 C 150.585938 146.371094 133.566406 149.460938 131.136719 150.042969 C 131.691406 149.953125 147.324219 148.921875 167.277344 142.605469 C 166.269531 143.496094 165.246094 144.414062 164.183594 145.378906 C 151.941406 149.492188 143.421875 150.757812 138.765625 151.722656 C 139.742188 151.636719 147.875 152.0625 160.675781 148.605469 C 159.960938 149.269531 159.222656 149.957031 158.445312 150.691406 C 131.804688 157.195312 134.90625 154.996094 120.675781 156.089844 Z M 151.859375 207.757812 C 151.839844 208.617188 151.863281 209.445312 151.613281 210.316406 C 151.480469 210.777344 151.292969 211.199219 151.078125 211.605469 C 150.109375 212.164062 148.890625 212.363281 147.753906 212.199219 C 147.128906 212.101562 146.648438 211.90625 146.320312 211.753906 C 146.050781 211.609375 145.894531 211.523438 145.847656 211.496094 C 145.945312 211.640625 146.335938 212.953125 148.449219 213.582031 C 144.765625 214.320312 135.160156 209.902344 129.621094 207.792969 C 121.761719 204.796875 113.960938 201.613281 106.445312 197.816406 C 99.574219 194.34375 92.375 190.480469 86.5625 185.371094 C 81.738281 181.132812 77.597656 172.886719 83.261719 167.957031 C 84.011719 183.246094 110.605469 195.40625 141.066406 209.898438 C 119.519531 196.539062 85.984375 181.757812 86.199219 167.113281 C 86.28125 161.464844 91.214844 156.707031 96.5625 155.703125 C 110.996094 152.992188 124.84375 174.265625 136.53125 188.886719 C 143.007812 196.910156 146.59375 201.1875 146.59375 201.1875 C 128.34375 175.054688 115.542969 157.058594 104.363281 153.5 C 109.199219 151.328125 113.40625 152.910156 117.703125 156.792969 C 127.882812 165.984375 147.800781 197.304688 151.859375 207.757812 Z M 77.28125 178.699219 C 71.128906 179.683594 42.058594 181.101562 36.785156 180.226562 C 45.242188 178.972656 50.011719 176.160156 50.363281 176.023438 C 48.101562 176.425781 42.566406 177.660156 35.117188 178.335938 C 34.582031 177.472656 34.042969 176.605469 33.464844 175.765625 C 36.15625 173.09375 37.320312 171.117188 37.320312 171.117188 C 37.320312 171.117188 35.871094 171.710938 33.667969 173.207031 C 45.304688 157.613281 43.683594 159.988281 60.992188 145.722656 C 69.503906 138.710938 81.710938 128.460938 92.308594 131.492188 C 82.429688 133.808594 60.726562 146.714844 43.792969 164.535156 C 43.222656 165.136719 46.414062 163.28125 47.015625 162.714844 C 58.078125 152.273438 83.632812 134.605469 96.117188 133.324219 C 106.660156 132.246094 113.09375 140.417969 110.402344 149.289062 C 107.265625 148.6875 103.984375 149.550781 100.660156 152.746094 C 93.253906 152.070312 86.992188 156.195312 84.4375 161.921875 C 78.585938 165.382812 63.4375 171.375 57.933594 174.644531 C 57.6875 174.789062 57.90625 175.164062 58.152344 175.027344 C 60.648438 173.632812 75.753906 168.976562 80.066406 167.039062 C 76.773438 170.460938 77.019531 173.480469 77.28125 178.699219 Z M 48.578125 140.554688 C 54.035156 142.210938 62.679688 140.351562 66.28125 135.566406 C 61.289062 136.488281 56.460938 138.804688 51.347656 138.019531 C 48.984375 137.660156 45.019531 136.433594 45.367188 133.371094 C 45.960938 128.09375 54.890625 126.386719 58.683594 124.679688 C 67.441406 120.730469 106.417969 111.109375 114.882812 106.109375 C 115.375 105.820312 109.894531 107.269531 109.277344 107.308594 C 99.675781 107.921875 58.003906 120.855469 48.59375 126.359375 C 48.613281 126.238281 48.636719 126.117188 48.65625 125.996094 C 69.863281 113.578125 88.753906 109.609375 90.464844 109.039062 C 89.335938 109.332031 71.144531 111.085938 49.410156 123.144531 C 49.707031 122.332031 50.085938 121.527344 50.574219 120.710938 C 52.613281 117.308594 56.648438 115.207031 60.148438 113.621094 C 86.007812 101.929688 98.601562 98.550781 122.988281 95.296875 C 122.984375 95.328125 122.980469 95.359375 122.980469 95.386719 C 120.386719 95.085938 115.183594 104.171875 122.226562 112.34375 C 109.640625 120.046875 100.761719 122.558594 95.066406 124.765625 C 95.773438 124.5625 108.558594 123.101562 123.738281 113.90625 C 124.40625 114.53125 125.117188 115.125 125.871094 115.6875 C 123.730469 117.382812 122.726562 118.664062 122.726562 118.664062 C 122.726562 118.664062 124.628906 118.261719 127.496094 116.808594 C 128.160156 117.230469 128.839844 117.628906 129.535156 117.992188 C 115.441406 126.121094 106.617188 128.550781 102.71875 130.492188 C 101.699219 130.625 100.683594 130.800781 99.691406 131.015625 C 99.023438 130.925781 98.347656 130.875 97.671875 130.867188 C 97.164062 130.429688 96.609375 130.050781 96.023438 129.722656 C 109.714844 125.398438 118.539062 120.511719 118.679688 120.449219 C 110.984375 122.929688 103.519531 125.421875 92.78125 128.496094 C 82.691406 126.105469 72.402344 132.859375 64.335938 139.1875 C 64 139.453125 63.636719 139.765625 63.265625 140.101562 C 58.585938 142.40625 54.476562 143.042969 53.78125 143.230469 C 53.921875 143.238281 56.238281 143.804688 59.785156 143.203125 C 58.628906 144.101562 57.441406 144.785156 56.28125 144.886719 C 53.507812 145.121094 50.191406 142.777344 48.578125 140.554688 Z M 180.230469 131.378906 C 180.183594 131.347656 180.144531 131.3125 180.097656 131.285156 C 180.066406 131.175781 180.039062 131.0625 180.003906 130.972656 C 179.996094 130.960938 179.988281 130.953125 179.984375 130.941406 C 180.585938 130.074219 181.152344 129.023438 181.226562 128.71875 C 181.488281 127.6875 181.296875 126.851562 180.910156 125.957031 C 181.679688 126.632812 182.742188 127.488281 184.109375 128.398438 C 182.648438 129.550781 181.257812 130.65625 180.230469 131.378906 Z M 145.128906 113.234375 C 142.417969 112.222656 129.453125 103.890625 129.375 103.828125 C 123.921875 99.289062 125.195312 91.164062 132.3125 88.835938 C 142.457031 85.511719 152.011719 91.789062 159.679688 94.484375 C 153.558594 90.929688 148.191406 86.871094 141.035156 85.675781 C 146.578125 81.957031 152.878906 84.3125 158.71875 87.535156 C 164.226562 90.582031 169.277344 93.894531 174.191406 97.585938 C 174.285156 97.855469 174.457031 97.929688 174.695312 97.972656 C 183.984375 105.058594 191.445312 113.363281 198.988281 122.089844 C 196.726562 122.316406 194.863281 122.75 193.125 123.347656 C 183.296875 111.707031 168.496094 103.398438 169.480469 104.019531 C 177.945312 109.363281 184.902344 116.410156 191.226562 124.082031 C 190.71875 123.46875 188.378906 125.089844 185.847656 127.042969 C 183.351562 125.683594 181.363281 124.984375 180.273438 124.667969 C 177.4375 119.476562 173.550781 118.550781 167.753906 119.730469 C 168.050781 115.855469 161.902344 113.261719 151.175781 114.464844 C 145.585938 115.097656 143.460938 116.230469 138.089844 117.808594 C 133.929688 115.46875 129.15625 114.652344 125.53125 111.152344 C 121.652344 107.410156 120.632812 102.292969 123.101562 97.671875 C 125.304688 109.453125 142.378906 112.203125 145.128906 113.234375 Z M 212.675781 102.03125 C 232.328125 106.03125 238.691406 109.175781 242.023438 115.269531 C 234.738281 110.265625 228.8125 109.472656 192.644531 104.105469 C 191.484375 103.933594 195.148438 105.296875 196.347656 105.589844 C 221.496094 111.667969 239.238281 112.597656 244.746094 122.117188 C 247.898438 127.566406 244.871094 138.234375 226.332031 136.152344 C 226.085938 133.722656 225.105469 131.253906 222.886719 129.472656 C 228.042969 131.144531 233.863281 133.085938 238.257812 130.558594 C 239.820312 129.625 240.671875 128.402344 240.933594 127.566406 C 240.980469 127.425781 241.003906 127.363281 241.003906 127.363281 C 235.667969 133.871094 227.121094 129.015625 204.046875 120.714844 C 204.121094 120.761719 206.625 122.660156 212.09375 125.230469 C 211.621094 125.265625 211.144531 125.328125 210.679688 125.375 C 210.59375 125.378906 210.507812 125.390625 210.421875 125.398438 C 209.019531 123.660156 206.726562 122.179688 202.917969 121.992188 C 197.046875 113.230469 189.109375 105.367188 180.675781 98.609375 C 185.710938 98.929688 196.574219 98.75 212.675781 102.03125 Z M 230.152344 141.183594 C 230.015625 141.132812 229.882812 141.09375 229.746094 141.042969 C 229.710938 140.960938 229.648438 140.886719 229.542969 140.84375 C 228.820312 140.546875 228.078125 140.371094 227.414062 139.929688 C 226.949219 139.625 226.550781 139.238281 226.203125 138.808594 C 226.351562 138.113281 226.410156 137.367188 226.367188 136.601562 C 228.359375 137.539062 232.71875 138.875 236.019531 138.851562 C 235.269531 139.390625 232.953125 140.863281 230.152344 141.183594 Z M 234.796875 143.101562 C 237.058594 142.234375 239.632812 140.761719 240.125 138.289062 C 240.148438 138.179688 244.476562 136.195312 245.0625 135.652344 C 250.390625 130.75 249.527344 122.933594 245.738281 118.445312 C 246.929688 116.910156 244.199219 110.664062 235.710938 106.175781 C 222.492188 99.1875 184.597656 95.246094 177.542969 96.171875 C 170.679688 90.957031 161.398438 85.179688 153.460938 83.066406 C 148.480469 81.742188 141.90625 80.71875 137.695312 85.3125 C 131.65625 85.023438 125.96875 86.878906 123.628906 92.761719 C 103.054688 93.789062 43.214844 109.566406 45.476562 128.539062 C 40.554688 132.726562 41.753906 136.886719 46.230469 139.53125 C 47.015625 144.410156 50.742188 146.964844 54.285156 147.28125 C 52.957031 147.164062 48.488281 152.042969 47.46875 153.015625 C 34.980469 164.863281 30.878906 171.964844 30.488281 174.722656 C 30.242188 176.433594 31.5 179.277344 32.699219 180.488281 C 35.742188 183.558594 42.101562 183.453125 46.132812 183.480469 C 104.835938 183.910156 58.984375 176.746094 100.992188 198.9375 C 110.53125 203.976562 120.597656 207.957031 130.71875 211.636719 C 133.515625 212.65625 136.242188 213.863281 139.089844 214.761719 C 141.847656 215.628906 146.480469 216.839844 149.28125 216.058594 C 151.308594 215.496094 155.160156 213.253906 155.703125 211.058594 C 156.792969 206.691406 126.722656 163.292969 122.582031 158.277344 C 131.433594 158.609375 148.144531 156.324219 154.132812 154.964844 C 151.386719 157.863281 148.675781 161.03125 147.121094 164.703125 C 145.011719 169.6875 150.414062 174.875 154.6875 173.828125 C 153.890625 174.023438 158.636719 179.15625 158.945312 179.417969 C 170.207031 189.015625 175.273438 196.785156 191.246094 209.101562 C 204.449219 219.285156 217.035156 217.929688 222.390625 213.496094 C 237.109375 211.992188 242.53125 197.496094 234.582031 189.960938 C 235.125 187.449219 234.535156 182.523438 222.292969 177.464844 C 235.667969 180.136719 244.039062 181.511719 257.589844 178.835938 C 259.34375 178.488281 263.449219 178.09375 265.65625 176.929688 C 266.734375 174.476562 267.71875 171.996094 268.703125 169.492188 C 269.757812 161.722656 242.519531 146.503906 234.796875 143.101562 " fill-opacity="1" fill-rule="nonzero"/><path fill="currentColor" d="M 116.347656 191.683594 C 108.90625 186.949219 96.460938 178.542969 91.140625 171.503906 C 88.945312 168.597656 88.949219 166.730469 89.324219 164.011719 C 89.296875 164.089844 87.792969 166.074219 88.902344 169.578125 C 91.429688 177.5 108.132812 188.714844 115.683594 193.050781 C 118.949219 194.902344 121.5 196.195312 123.425781 197.136719 C 127.28125 199.007812 128.652344 199.472656 128.652344 199.472656 C 128.652344 199.472656 127.472656 198.601562 123.808594 196.320312 C 121.972656 195.183594 119.535156 193.667969 116.347656 191.683594 " fill-opacity="1" fill-rule="nonzero"/><path fill="currentColor" d="M 109.964844 162.914062 C 103.867188 156.800781 100 157.066406 99.820312 156.980469 C 100.417969 157.390625 103.667969 157.941406 109.371094 164.492188 C 111.425781 166.863281 113.921875 169.902344 117.050781 173.5 C 130.398438 188.941406 134.507812 192.125 134.507812 192.125 C 134.507812 192.125 131.691406 187.691406 118.277344 172.183594 C 114.90625 168.320312 112.265625 165.25 109.964844 162.914062 " fill-opacity="1" fill-rule="nonzero"/><path fill="currentColor" d="M 170.429688 177.765625 C 178.792969 184.695312 211.765625 207.476562 222.03125 207.402344 C 224.707031 207.386719 226.367188 206.550781 227.257812 205.960938 C 227.707031 205.65625 227.992188 205.402344 228.164062 205.230469 C 228.332031 205.058594 228.410156 204.984375 228.410156 204.984375 C 228.410156 204.984375 228.320312 205.042969 228.113281 205.175781 C 227.914062 205.308594 227.585938 205.5 227.105469 205.726562 C 226.152344 206.15625 224.488281 206.726562 221.992188 206.5 C 215.167969 205.910156 196.640625 193.714844 175.460938 180.734375 C 171.417969 178.214844 170.515625 177.816406 170.429688 177.765625 " fill-opacity="1" fill-rule="nonzero"/><path fill="currentColor" d="M 188 160.394531 C 191.839844 158.320312 194.832031 156.390625 200.035156 153.164062 C 210.585938 146.664062 220.277344 140.90625 219.203125 135.019531 C 218.777344 132.589844 217.332031 132.4375 217.46875 132.3125 C 217.390625 132.359375 219.796875 134.214844 218.082031 137.738281 C 216.929688 140.101562 213.90625 142.019531 211.449219 143.738281 C 208.207031 146 204.050781 148.585938 198.894531 151.765625 C 196.316406 153.351562 194.03125 154.847656 191.992188 156.140625 C 187.539062 158.960938 183.523438 161.335938 178.964844 163.664062 C 171.039062 167.65625 177.613281 164.339844 174.363281 166.015625 C 174.363281 166.015625 174.738281 165.933594 175.640625 165.6875 C 178.894531 164.726562 182.726562 163.25 188 160.394531 " fill-opacity="1" fill-rule="nonzero"/><path fill="currentColor" d="M 154.652344 113.386719 C 151.085938 111.246094 138.601562 104.039062 134.550781 100.460938 C 127.984375 94.800781 134.566406 91.03125 134.601562 90.921875 C 130.605469 91.808594 128.058594 96.917969 133.742188 102.03125 C 142.917969 110.183594 154.574219 113.347656 154.652344 113.386719 " fill-opacity="1" fill-rule="nonzero"/><path fill="currentColor" d="M 102.882812 143.957031 C 103.03125 142.960938 102.964844 142.328125 102.714844 141.5 C 102.65625 141.328125 102.632812 141.253906 102.632812 141.253906 C 102.898438 146.976562 99.082031 148.589844 67.28125 165.601562 C 65.769531 166.394531 64.828125 166.921875 64.261719 167.257812 C 63.699219 167.589844 63.515625 167.730469 63.515625 167.730469 C 63.515625 167.730469 64.78125 167.445312 68.195312 166.179688 C 75.183594 163.511719 101.578125 151.152344 102.882812 143.957031 " fill-opacity="1" fill-rule="nonzero"/><path fill="currentColor" d="M 156.828125 120.226562 C 137.492188 123.730469 130.652344 126.410156 118.933594 131.863281 C 136.085938 126.976562 143.722656 124.648438 156.828125 120.226562 " fill-opacity="1" fill-rule="nonzero"/><path fill="currentColor" d="M 236.226562 126.300781 C 236.789062 126.320312 237.015625 126.304688 237.015625 126.304688 C 236.6875 126.105469 235.046875 125.628906 204.175781 115.9375 C 204.253906 115.964844 221.179688 125.769531 236.226562 126.300781 " fill-opacity="1" fill-rule="nonzero"/></svg>