<svg xmlns="http://www.w3.org/2000/svg" xmlns:xlink="http://www.w3.org/1999/xlink" width="400" zoomAndPan="magnify" viewBox="0 0 300 299.999988" height="400" preserveAspectRatio="xMidYMid meet" version="1.0"><path fill="#a9a0f0" d="M 268.367188 114.578125 C 268.4375 108.007812 264.328125 98.753906 244.5625 90.148438 C 242.566406 89.285156 240.246094 90.207031 239.382812 92.199219 C 238.519531 94.199219 239.4375 96.515625 241.433594 97.382812 C 259.035156 105.332031 267.53125 114.230469 253.207031 124.871094 C 235.910156 137.523438 195.476562 145.703125 150.195312 145.703125 C 108.394531 145.703125 70.425781 138.675781 51.109375 127.363281 C 36.617188 119.34375 35.667969 109.40625 52.652344 100.457031 C 56.246094 98.714844 54.816406 92.878906 50.8125 93.015625 C 39.414062 97.144531 31.597656 106.875 32.027344 114.578125 C 31.925781 116.382812 29.929688 159.207031 60.023438 191.003906 C 70.28125 201.84375 82.976562 210.011719 97.996094 215.484375 C 100.019531 234.300781 123.308594 239.40625 150.195312 239.644531 C 177.082031 239.425781 200.382812 234.269531 202.398438 215.484375 C 256.945312 197.058594 270.109375 139.195312 268.367188 114.578125 Z M 191.589844 221.507812 C 181.007812 235.242188 119.285156 235.183594 108.800781 221.503906 C 107.675781 220.308594 106.980469 219.167969 106.550781 218.199219 C 119.574219 221.867188 134.125 223.746094 150.195312 223.746094 C 166.269531 223.746094 180.816406 221.871094 193.839844 218.199219 C 193.410156 219.167969 192.71875 220.308594 191.589844 221.507812 Z M 150.195312 215.863281 C 87.515625 217.035156 46.921875 182.746094 40.761719 129.792969 C 81.878906 162.070312 221.242188 160.933594 259.640625 129.742188 C 253.457031 182.761719 212.941406 217.011719 150.195312 215.863281 Z M 150.195312 215.863281 " fill-opacity="1" fill-rule="nonzero"/><path fill="#a9a0f0" d="M 50.019531 116.929688 C 48.003906 119.390625 49.96875 123.378906 53.136719 123.277344 C 56.222656 123.296875 57.378906 119.296875 60.433594 118.925781 C 61.441406 118.65625 62.296875 117.984375 62.820312 117.074219 C 64.308594 113.773438 61.59375 112.410156 63.4375 106.71875 C 64.597656 103.847656 66.851562 102.707031 70.15625 102.15625 C 71.878906 101.894531 73.234375 100.515625 73.476562 98.785156 C 73.523438 98.4375 74.75 90.226562 80.820312 89.769531 C 81.984375 89.683594 83.058594 89.070312 83.738281 88.125 C 83.96875 87.804688 89.375 80.414062 97.007812 82.617188 C 98.625 83.089844 100.355469 82.457031 101.324219 81.097656 C 101.671875 80.609375 109.976562 69.25 126.058594 73.496094 C 127.179688 73.796875 128.359375 73.585938 129.300781 72.929688 C 129.394531 72.859375 138.554688 66.640625 144.570312 72.347656 C 145.976562 73.683594 148.175781 73.78125 149.714844 72.585938 C 150.757812 71.785156 156.164062 67.972656 160.226562 72.515625 C 161.332031 73.746094 163.089844 74.160156 164.628906 73.539062 C 168.105469 72.15625 178.183594 69.457031 183.027344 73.59375 C 183.800781 74.253906 184.785156 74.5625 185.839844 74.527344 C 187.878906 74.414062 194.003906 74.792969 195.527344 78.082031 C 196.238281 79.613281 197.875 80.515625 199.550781 80.339844 C 199.929688 80.304688 208.929688 79.402344 212.046875 86.449219 C 214.636719 91.382812 217.398438 85.425781 219.480469 94.03125 C 219.914062 96.0625 221.929688 97.386719 223.984375 97.097656 C 224.007812 97.101562 225.738281 96.855469 227.035156 97.863281 C 228.410156 98.9375 228.902344 101.117188 229.070312 102.757812 C 229.238281 104.398438 230.445312 105.773438 232.042969 106.179688 C 232.335938 106.257812 239.277344 108.113281 240.496094 115.160156 C 241.628906 118.835938 243.078125 117.441406 247.03125 120.832031 C 248.726562 122.199219 251.207031 121.933594 252.570312 120.234375 C 255.570312 116.347656 250.441406 113.324219 247.820312 111.855469 C 245.746094 104.402344 239.929688 100.890625 236.503906 99.425781 C 235.507812 94.035156 231.207031 89.867188 226.304688 89.320312 C 224.390625 84.210938 221.011719 81.976562 218.203125 81.222656 C 213.691406 73.667969 205.4375 72.488281 201.230469 72.410156 C 197.277344 67.40625 190.074219 66.691406 186.890625 66.636719 C 179.488281 61.554688 168.878906 63.914062 164.128906 65.382812 C 158.449219 60.839844 151.824219 62.335938 147.496094 64.664062 C 140.1875 59.957031 131.378906 62.613281 126.382812 65.46875 C 110.398438 61.980469 100.398438 70.363281 96.59375 74.480469 C 87.484375 73.179688 80.957031 79.273438 78.4375 82.15625 C 71.265625 83.585938 67.644531 90.03125 66.253906 94.945312 C 58.339844 96.625 53.902344 105.445312 55.003906 112.664062 C 53.085938 113.707031 51.398438 115.144531 50.019531 116.929688 Z M 50.019531 116.929688 " fill-opacity="1" fill-rule="nonzero"/><path fill="#a9a0f0" d="M 80.582031 101.769531 C 78.683594 106.4375 85.695312 109.429688 87.832031 104.855469 C 87.890625 104.730469 89.316406 101.773438 93.800781 100.914062 C 98.859375 99.847656 97.429688 92.300781 92.3125 93.171875 C 85.300781 94.519531 81.640625 99.210938 80.582031 101.769531 Z M 80.582031 101.769531 " fill-opacity="1" fill-rule="nonzero"/><path fill="#a9a0f0" d="M 114.070312 137.617188 C 122.117188 136.800781 131.207031 127.699219 124.476562 123.882812 C 117.964844 122.308594 121.375 128.113281 113.328125 129.804688 C 108.703125 130.664062 109.40625 137.660156 114.070312 137.617188 Z M 114.070312 137.617188 " fill-opacity="1" fill-rule="nonzero"/><path fill="#a9a0f0" d="M 163.019531 95.042969 C 156.292969 90.277344 144.652344 90.5 146.566406 97.726562 C 150.046875 103.4375 151.699219 96.933594 158.519531 101.515625 C 162.804688 104.398438 167.230469 98.082031 163.019531 95.042969 Z M 163.019531 95.042969 " fill-opacity="1" fill-rule="nonzero"/><path fill="#a9a0f0" d="M 110.667969 111.679688 C 112.453125 112.878906 114.914062 112.421875 116.132812 110.597656 C 120.734375 103.816406 120.65625 92.144531 113.421875 93.988281 C 107.640625 97.429688 114.164062 99.214844 109.585938 106.210938 C 108.375 108.019531 108.859375 110.464844 110.667969 111.679688 Z M 110.667969 111.679688 " fill-opacity="1" fill-rule="nonzero"/><path fill="#a9a0f0" d="M 171.84375 133.027344 C 175.828125 133.136719 179.941406 131.425781 178.578125 127.171875 C 177.808594 125.179688 175.542969 124.175781 173.523438 124.90625 C 173.398438 124.953125 170.378906 125.996094 166.625 123.382812 C 162.382812 120.460938 157.90625 126.894531 162.128906 129.855469 C 165.601562 132.269531 169.0625 133.027344 171.84375 133.027344 Z M 171.84375 133.027344 " fill-opacity="1" fill-rule="nonzero"/><path fill="#a9a0f0" d="M 208.890625 114.976562 C 204.234375 113.023438 201.183594 119.996094 205.703125 122.183594 C 205.828125 122.242188 208.722656 123.703125 209.578125 128.3125 C 210.617188 133.402344 218.1875 131.972656 217.328125 126.878906 C 216.011719 119.777344 211.40625 116.054688 208.890625 114.976562 Z M 208.890625 114.976562 " fill-opacity="1" fill-rule="nonzero"/><path fill="#a9a0f0" d="M 197.050781 96.460938 C 189.019531 97.941406 180.917969 106.398438 187.386719 110.125 C 193.867188 111.707031 190.511719 105.886719 198.539062 104.207031 C 203.601562 103.132812 202.164062 95.601562 197.050781 96.460938 Z M 197.050781 96.460938 " fill-opacity="1" fill-rule="nonzero"/></svg>