<svg xmlns="http://www.w3.org/2000/svg" xmlns:xlink="http://www.w3.org/1999/xlink" width="400" zoomAndPan="magnify" viewBox="0 0 300 299.999988" height="400" preserveAspectRatio="xMidYMid meet" version="1.0"><defs><clipPath id="cc9a57ffe9"><path d="M 30 50.699219 L 270 50.699219 L 270 249.449219 L 30 249.449219 Z M 30 50.699219 " clip-rule="nonzero"/></clipPath></defs><g clip-path="url(#cc9a57ffe9)"><path fill="#a9a0f0" d="M 150 50.703125 C 216.292969 50.703125 269.9375 95.3125 269.9375 150.003906 C 269.9375 204.695312 216.292969 249.304688 150 249.304688 C 83.710938 249.304688 30.0625 204.695312 30.0625 150.003906 C 30.0625 95.3125 83.710938 50.703125 150 50.703125 Z M 150 54.6875 C 86.097656 54.6875 34.046875 97.28125 34.046875 150.003906 C 34.046875 202.726562 86.097656 245.324219 150 245.324219 C 213.902344 245.324219 265.957031 202.726562 265.957031 150.003906 C 265.957031 97.28125 213.902344 54.6875 150 54.6875 Z M 176.445312 83.710938 C 210.117188 92.90625 234.382812 119.15625 234.382812 150.003906 C 234.382812 188.464844 196.617188 219.792969 150 219.792969 C 103.382812 219.792969 65.621094 188.464844 65.621094 150.003906 C 65.621094 129.757812 76.058594 111.503906 92.761719 98.738281 C 98.6875 94.210938 105.304688 90.28125 112.578125 87.25 C 112.605469 85.859375 113.242188 84.652344 114.203125 83.625 C 115.625 82.109375 117.785156 81.003906 119.285156 80.230469 C 120.957031 79.375 122.011719 78.53125 124.027344 78.480469 C 124.65625 78.464844 125.1875 78.21875 125.722656 77.980469 C 126.46875 77.648438 127.214844 77.3125 128.070312 77.222656 C 128.660156 77.164062 129.210938 77.285156 129.742188 77.46875 C 130.214844 77.625 130.660156 77.882812 131.171875 77.839844 C 131.683594 77.796875 132.089844 77.535156 132.519531 77.335938 C 133.230469 77.007812 133.96875 76.773438 134.917969 76.953125 C 135.375 77.039062 135.8125 77.21875 136.246094 77.410156 C 136.660156 77.589844 137.066406 77.808594 137.523438 77.796875 C 138.03125 77.785156 138.496094 77.570312 138.976562 77.386719 C 139.691406 77.113281 140.429688 76.878906 141.238281 76.929688 C 142.355469 76.996094 143.261719 77.589844 144.132812 78.253906 C 144.707031 78.695312 145.253906 79.1875 145.96875 79.285156 C 146.289062 79.328125 146.605469 79.15625 146.9375 79.011719 C 147.546875 78.75 148.167969 78.480469 148.769531 78.433594 C 150.714844 78.28125 152.367188 79.140625 153.824219 80.285156 C 155.609375 80.351562 157.378906 80.460938 159.136719 80.617188 C 161.941406 80.304688 164.804688 80.421875 166.492188 80.726562 C 167.3125 80.875 168.109375 80.765625 168.910156 80.699219 C 169.925781 80.613281 170.949219 80.585938 172.011719 80.9375 C 172.257812 81.019531 174.359375 82.34375 176.445312 83.710938 Z M 110.828125 90.183594 C 109.535156 90.773438 108.261719 91.394531 107.011719 92.039062 C 108.085938 91.53125 109.269531 91.246094 110.296875 90.644531 C 110.503906 90.523438 110.671875 90.363281 110.828125 90.183594 Z M 106.511719 92.296875 C 103.488281 93.886719 100.601562 95.636719 97.847656 97.519531 C 99.980469 96.40625 102.222656 95.460938 104.246094 94.199219 C 104.628906 93.960938 104.929688 93.644531 105.238281 93.339844 C 105.625 92.957031 106.027344 92.585938 106.511719 92.296875 Z M 91.652344 102.160156 C 76.8125 114.417969 67.613281 131.328125 67.613281 150.003906 C 67.613281 187.480469 104.578125 217.804688 150 217.804688 C 195.425781 217.804688 232.386719 187.480469 232.386719 150.003906 C 232.386719 121.652344 211.210938 97.390625 181.246094 87.257812 C 181.664062 87.796875 182.015625 88.390625 182.539062 88.835938 C 183.15625 89.355469 183.9375 89.597656 184.710938 89.859375 C 185.71875 90.207031 186.726562 90.570312 187.542969 91.265625 C 188.578125 92.140625 189.074219 93.421875 189.921875 94.441406 C 190.238281 94.824219 190.683594 95.039062 191.128906 95.25 C 191.773438 95.554688 192.4375 95.835938 192.992188 96.257812 C 193.640625 96.753906 194.078125 97.394531 194.492188 98.058594 C 194.789062 98.539062 195.066406 99.03125 195.496094 99.414062 C 195.949219 99.816406 196.53125 100.011719 197.117188 100.21875 C 197.914062 100.503906 198.722656 100.789062 199.398438 101.296875 C 200.371094 102.023438 200.894531 102.847656 201.308594 103.742188 C 201.640625 104.46875 201.886719 105.246094 202.339844 106.035156 C 202.585938 106.472656 203.054688 106.691406 203.484375 106.960938 C 203.945312 107.25 204.394531 107.558594 204.746094 107.960938 C 205.683594 109.027344 206.039062 110.132812 206.019531 111.238281 C 209.65625 112.003906 213.3125 115.449219 215.667969 118.136719 C 216.539062 119.128906 217.773438 119.667969 218.757812 120.535156 C 220.441406 122.023438 222.484375 125.792969 223.417969 127.960938 C 223.941406 129.183594 223.875 130.160156 223.675781 131.125 C 223.527344 131.832031 223.277344 132.519531 223.3125 133.359375 C 223.410156 135.542969 223.957031 137.492188 223.246094 139.660156 C 222.992188 140.441406 222.566406 141.140625 222.15625 141.847656 C 221.835938 142.402344 221.515625 142.957031 221.375 143.589844 C 220.96875 145.464844 221.328125 147.445312 220.804688 149.300781 C 220.582031 150.097656 220.144531 150.726562 219.65625 151.324219 C 219.289062 151.765625 218.890625 152.1875 218.613281 152.710938 C 218.289062 153.3125 218.390625 154.101562 218.335938 154.757812 C 218.132812 157.101562 217.597656 158.671875 216.625 159.914062 C 215.78125 160.996094 214.585938 161.832031 212.902344 162.675781 C 212.925781 162.933594 212.941406 163.195312 212.925781 163.453125 C 212.847656 165.003906 211.949219 166.421875 211.515625 167.886719 C 210.902344 169.957031 210.117188 172.125 209.628906 174.21875 C 209.515625 174.695312 209.605469 175.183594 209.660156 175.671875 C 209.746094 176.417969 209.78125 177.171875 209.523438 177.933594 C 209.070312 179.261719 205.394531 186.121094 204.535156 187.242188 C 204.265625 187.59375 203.375 188.339844 202.199219 189.203125 C 199.632812 191.089844 195.683594 193.636719 194.777344 193.972656 C 194.074219 194.230469 193.359375 194.285156 192.640625 194.308594 C 192.101562 194.324219 191.566406 194.320312 191.039062 194.46875 C 190.492188 194.621094 190.019531 194.941406 189.539062 195.253906 C 188.890625 195.671875 188.234375 196.082031 187.488281 196.296875 C 186.175781 196.679688 184.910156 196.390625 183.582031 196.539062 C 182.398438 196.667969 181.285156 197.226562 180.167969 197.796875 C 178.859375 198.464844 177.546875 199.152344 176.164062 199.441406 C 174.960938 199.699219 174 199.535156 173.058594 199.257812 C 172.316406 199.039062 171.59375 198.734375 170.71875 198.621094 C 170.25 198.558594 169.742188 198.660156 169.234375 198.765625 C 168.5625 198.90625 167.890625 199.070312 167.273438 199.109375 C 166.917969 199.132812 166.558594 199.148438 166.207031 199.140625 C 165.964844 200.636719 165.390625 201.617188 164.621094 202.285156 C 163.449219 203.300781 161.734375 203.578125 159.726562 203.65625 C 159.140625 203.675781 158.601562 203.835938 158.054688 203.9375 C 157.320312 204.078125 156.574219 204.136719 155.746094 203.90625 C 154.234375 203.492188 153.027344 202.464844 151.582031 201.914062 C 151.207031 201.769531 150.804688 201.800781 150.402344 201.835938 C 149.789062 201.890625 149.175781 201.980469 148.585938 201.941406 C 147.804688 201.886719 147.082031 201.597656 146.371094 201.292969 C 145.863281 201.078125 145.363281 200.84375 144.820312 200.8125 C 143.0625 200.707031 140.289062 201.84375 138.519531 202.285156 C 137.820312 202.457031 129.097656 202.910156 128.132812 202.808594 C 124.667969 202.445312 121.304688 200.863281 117.980469 200.007812 C 117.425781 199.863281 116.90625 199.929688 116.382812 199.933594 C 115.617188 199.9375 114.847656 199.859375 114.03125 199.394531 C 113.136719 198.886719 112.414062 198.132812 111.703125 197.378906 C 111.136719 196.78125 110.578125 196.175781 109.859375 195.808594 C 109.335938 195.539062 108.75 195.460938 108.167969 195.355469 C 107.371094 195.21875 106.582031 195.050781 105.863281 194.648438 C 105.175781 194.261719 104.625 193.664062 104.078125 193.070312 C 103.699219 192.664062 103.335938 192.25 102.847656 192.046875 C 101.855469 191.632812 100.773438 191.457031 99.691406 191.257812 C 98.453125 191.03125 97.214844 190.773438 96.0625 190.238281 C 96.058594 190.234375 95.941406 190.175781 95.761719 190.035156 C 95.167969 189.5625 92.175781 187.160156 90.253906 185.585938 C 89.226562 184.746094 88.496094 184.085938 88.429688 183.996094 C 87.546875 182.734375 87.375 181.546875 87.1875 180.09375 C 86.714844 179.875 86.257812 179.625 85.839844 179.453125 C 85.433594 179.285156 84.792969 179.367188 84.234375 179.359375 C 83.578125 179.351562 82.992188 179.253906 82.625 179.042969 C 80.941406 178.089844 79.648438 175.910156 78.257812 174.480469 C 77.828125 174.039062 77.367188 173.773438 76.910156 173.515625 C 76.320312 173.183594 75.730469 172.871094 75.171875 172.394531 C 71.484375 169.261719 70.980469 165.1875 70.015625 160.734375 C 69.855469 160 69.558594 159.375 69.308594 158.734375 C 68.996094 157.9375 68.738281 157.125 68.730469 156.148438 C 68.71875 155.054688 69 154.125 69.355469 153.21875 C 69.652344 152.472656 70.007812 151.746094 70.210938 150.917969 C 70.304688 150.527344 70.261719 150.105469 70.246094 149.671875 C 70.214844 149.03125 70.21875 148.378906 70.414062 147.734375 C 70.640625 146.996094 71.046875 146.351562 71.457031 145.710938 C 71.769531 145.226562 72.089844 144.753906 72.253906 144.199219 C 73.429688 140.171875 75.082031 136.675781 76.746094 132.800781 C 77.007812 132.183594 77.046875 131.558594 77.136719 130.945312 C 77.257812 130.101562 77.449219 129.277344 78.007812 128.488281 C 78.804688 127.359375 79.792969 126.617188 80.957031 126.015625 C 81.027344 125.390625 81.160156 124.8125 81.367188 124.296875 C 81.605469 123.695312 81.941406 123.179688 82.371094 122.773438 C 82.238281 122.664062 82.113281 122.558594 81.992188 122.445312 C 80.96875 121.492188 80.296875 120.328125 80.554688 118.546875 C 81.113281 114.652344 84.226562 111.699219 86.457031 108.773438 C 87.371094 107.574219 87.789062 106.089844 88.851562 104.957031 C 89.40625 104.363281 90.488281 103.273438 91.652344 102.160156 Z M 152.730469 81.9375 C 151.636719 81.027344 150.410156 80.300781 148.925781 80.417969 C 148.417969 80.457031 147.90625 80.777344 147.394531 80.980469 C 146.824219 81.207031 146.253906 81.332031 145.699219 81.257812 C 144.640625 81.113281 143.777344 80.488281 142.925781 79.839844 C 142.371094 79.417969 141.832031 78.957031 141.121094 78.917969 C 140.46875 78.878906 139.902344 79.167969 139.328125 79.382812 C 138.753906 79.601562 138.175781 79.773438 137.570312 79.789062 C 136.917969 79.804688 136.320312 79.605469 135.730469 79.355469 C 135.339844 79.1875 134.960938 78.988281 134.546875 78.910156 C 133.933594 78.792969 133.5 79.070312 133.046875 79.289062 C 132.515625 79.542969 131.976562 79.769531 131.34375 79.824219 C 130.765625 79.875 130.226562 79.746094 129.695312 79.5625 C 129.234375 79.402344 128.789062 79.152344 128.28125 79.203125 C 127.640625 79.273438 127.089844 79.550781 126.535156 79.796875 C 125.765625 80.144531 124.984375 80.449219 124.078125 80.46875 C 122.414062 80.511719 121.574219 81.296875 120.195312 82.003906 C 119.070312 82.582031 117.523438 83.351562 116.296875 84.382812 C 115.453125 85.097656 114.746094 85.933594 114.597656 86.957031 C 114.660156 87.003906 114.722656 87.0625 114.773438 87.128906 C 114.9375 87.082031 115.105469 87.042969 115.269531 87.003906 C 115.992188 86.832031 116.730469 86.703125 117.382812 86.355469 C 117.777344 86.152344 118.058594 85.824219 118.359375 85.519531 C 118.820312 85.054688 119.304688 84.609375 119.960938 84.324219 C 121.179688 83.792969 122.53125 83.777344 123.832031 83.800781 C 124.378906 83.8125 124.816406 84.265625 124.808594 84.816406 C 124.796875 85.367188 124.34375 85.804688 123.796875 85.792969 C 122.777344 85.773438 121.710938 85.738281 120.753906 86.152344 C 120.238281 86.375 119.914062 86.785156 119.550781 87.148438 C 119.179688 87.519531 118.792969 87.863281 118.3125 88.117188 C 117.511719 88.542969 116.613281 88.730469 115.730469 88.941406 C 115.0625 89.097656 114.394531 89.265625 113.832031 89.691406 C 113.320312 90.078125 112.992188 90.652344 112.605469 91.148438 C 112.234375 91.628906 111.824219 92.058594 111.304688 92.363281 C 110.144531 93.042969 108.792969 93.332031 107.605469 93.96875 C 107.222656 94.175781 106.929688 94.46875 106.636719 94.757812 C 106.222656 95.164062 105.808594 95.570312 105.300781 95.886719 C 102.492188 97.636719 99.257812 98.773438 96.488281 100.605469 C 94.929688 101.636719 91.445312 105.097656 90.304688 106.316406 C 89.289062 107.402344 88.914062 108.835938 88.042969 109.980469 C 86.980469 111.375 85.691406 112.765625 84.601562 114.269531 C 83.601562 115.648438 82.769531 117.128906 82.527344 118.832031 C 82.347656 120.058594 83.007812 120.746094 83.789062 121.359375 C 84.511719 121.921875 85.339844 122.425781 86.035156 123.03125 C 90.003906 126.503906 95.773438 126.4375 100.035156 123.144531 C 100.46875 122.808594 101.09375 122.890625 101.433594 123.324219 C 101.769531 123.761719 101.6875 124.386719 101.25 124.722656 C 96.21875 128.609375 89.414062 128.628906 84.722656 124.53125 C 84.507812 124.339844 84.277344 124.164062 84.042969 123.988281 C 83.53125 124.285156 83.234375 124.839844 83.0625 125.503906 C 83.015625 125.6875 82.980469 125.875 82.953125 126.074219 C 82.96875 126.105469 82.988281 126.136719 83 126.167969 C 83.152344 126.507812 83.101562 126.886719 82.894531 127.164062 C 82.917969 128.191406 83.144531 129.3125 83.527344 130.371094 C 84.03125 131.757812 84.804688 133.054688 85.808594 133.898438 C 86.679688 134.632812 87.726562 135.003906 88.90625 134.671875 C 89.433594 134.523438 89.984375 134.832031 90.132812 135.363281 C 90.28125 135.890625 89.972656 136.441406 89.445312 136.589844 C 87.652344 137.09375 86.03125 136.621094 84.683594 135.550781 C 82.867188 134.109375 81.558594 131.511719 81.097656 128.984375 C 81.054688 128.757812 81.019531 128.53125 80.992188 128.304688 C 80.480469 128.660156 80.023438 129.085938 79.632812 129.636719 C 79.183594 130.273438 79.144531 130.957031 79.050781 131.640625 C 78.960938 132.285156 78.855469 132.9375 78.574219 133.582031 C 76.945312 137.386719 75.320312 140.808594 74.164062 144.757812 C 73.945312 145.496094 73.546875 146.144531 73.132812 146.789062 C 72.820312 147.273438 72.492188 147.757812 72.320312 148.316406 C 72.160156 148.847656 72.226562 149.386719 72.246094 149.90625 C 72.269531 150.421875 72.261719 150.921875 72.144531 151.394531 C 71.917969 152.3125 71.539062 153.121094 71.210938 153.953125 C 70.941406 154.625 70.710938 155.3125 70.71875 156.128906 C 70.726562 156.839844 70.933594 157.425781 71.160156 158.003906 C 71.449219 158.742188 71.777344 159.464844 71.960938 160.3125 C 72.832031 164.324219 73.140625 168.054688 76.460938 170.875 C 76.914062 171.261719 77.402344 171.507812 77.882812 171.777344 C 78.5 172.121094 79.105469 172.5 79.683594 173.089844 C 80.367188 173.792969 81.019531 174.683594 81.707031 175.519531 C 82.296875 176.234375 82.902344 176.910156 83.609375 177.3125 C 83.667969 177.347656 83.753906 177.339844 83.847656 177.347656 C 84.074219 177.371094 84.332031 177.371094 84.59375 177.371094 C 85.324219 177.371094 86.078125 177.398438 86.589844 177.609375 C 87.046875 177.792969 87.546875 178.074219 88.066406 178.308594 C 88.429688 178.472656 88.800781 178.625 89.164062 178.613281 C 89.363281 178.605469 89.515625 178.492188 89.671875 178.375 C 89.867188 178.226562 90.058594 178.054688 90.25 177.890625 C 90.730469 177.488281 91.242188 177.144531 91.847656 177.023438 C 92.570312 176.871094 93.304688 176.9375 94.035156 177.007812 C 94.546875 177.054688 95.058594 177.113281 95.554688 176.976562 C 97.703125 176.386719 99.765625 175.082031 101.769531 174.15625 C 101.382812 173.757812 101.007812 173.359375 100.621094 173.035156 C 98.222656 171.019531 96.847656 169.496094 96.527344 166.3125 C 95.648438 166.609375 94.964844 166.507812 94.21875 166.292969 C 93.761719 166.160156 93.273438 165.96875 92.636719 165.851562 C 92.335938 165.796875 92.03125 165.910156 91.726562 165.949219 C 91.296875 166 90.867188 165.984375 90.449219 165.820312 C 89.613281 165.496094 87.496094 164.34375 86.140625 163.234375 C 85.421875 162.648438 84.917969 162.042969 84.738281 161.566406 C 84.183594 160.082031 84.363281 158.5625 83.980469 157.066406 C 83.898438 156.753906 83.734375 156.535156 83.566406 156.308594 C 83.386719 156.070312 83.199219 155.828125 83.027344 155.542969 C 81.664062 153.304688 82.316406 149.945312 83.289062 147.746094 C 83.511719 147.242188 84.101562 147.015625 84.601562 147.238281 C 85.105469 147.460938 85.332031 148.050781 85.109375 148.550781 C 84.644531 149.605469 84.234375 150.992188 84.21875 152.320312 C 84.210938 153.105469 84.339844 153.875 84.726562 154.507812 C 85.171875 155.234375 85.6875 155.707031 85.910156 156.574219 C 86.273438 157.996094 86.074219 159.453125 86.605469 160.863281 C 86.65625 161.003906 86.800781 161.144531 86.96875 161.3125 C 87.234375 161.570312 87.570312 161.839844 87.933594 162.101562 C 89.085938 162.933594 90.535156 163.71875 91.164062 163.964844 C 91.394531 164.050781 91.625 163.953125 91.859375 163.914062 C 92.242188 163.855469 92.625 163.824219 93 163.894531 C 93.710938 164.027344 94.257812 164.234375 94.765625 164.378906 C 95.261719 164.519531 95.707031 164.570312 96.375 164.210938 C 96.410156 164.191406 96.445312 164.175781 96.476562 164.164062 C 96.605469 162.074219 97.234375 159.976562 97.808594 158.003906 C 97.960938 157.476562 98.515625 157.171875 99.042969 157.328125 C 99.574219 157.480469 99.875 158.035156 99.722656 158.5625 C 99.113281 160.652344 98.402344 162.890625 98.449219 165.097656 C 98.523438 168.367188 99.71875 169.675781 101.902344 171.507812 C 102.367188 171.894531 102.804688 172.398438 103.265625 172.871094 C 103.617188 173.234375 103.972656 173.582031 104.394531 173.78125 C 105.300781 174.207031 106.695312 174.371094 108.179688 174.371094 C 110.480469 174.367188 113.003906 173.949219 114.363281 173.246094 C 114.78125 173.03125 115.121094 172.703125 115.476562 172.394531 C 115.960938 171.960938 116.464844 171.550781 117.0625 171.277344 C 118.144531 170.789062 119.234375 170.566406 120.230469 169.886719 C 120.683594 169.578125 121.304688 169.695312 121.617188 170.152344 C 121.925781 170.605469 121.808594 171.222656 121.351562 171.535156 C 120.257812 172.28125 119.074219 172.554688 117.882812 173.09375 C 117.46875 173.28125 117.132812 173.589844 116.792969 173.886719 C 116.316406 174.304688 115.839844 174.722656 115.277344 175.015625 C 113.714844 175.824219 110.828125 176.359375 108.179688 176.359375 C 106.363281 176.363281 104.660156 176.109375 103.546875 175.582031 C 103.507812 175.566406 103.46875 175.546875 103.429688 175.523438 C 103.339844 175.613281 103.238281 175.683594 103.117188 175.734375 C 100.859375 176.691406 98.523438 178.226562 96.082031 178.898438 C 95.351562 179.097656 94.601562 179.058594 93.847656 178.988281 C 93.3125 178.9375 92.777344 178.863281 92.25 178.972656 C 92.007812 179.023438 91.820312 179.179688 91.628906 179.335938 C 91.414062 179.515625 91.207031 179.703125 90.992188 179.875 C 90.476562 180.28125 89.917969 180.574219 89.257812 180.601562 C 89.367188 181.367188 89.53125 182.066406 90.015625 182.78125 C 90.164062 182.910156 90.828125 183.480469 91.519531 184.046875 C 93.433594 185.617188 96.40625 188.003906 97 188.472656 L 97.007812 188.476562 C 97.972656 188.914062 99.015625 189.109375 100.050781 189.300781 C 101.273438 189.527344 102.492188 189.742188 103.613281 190.207031 C 104.363281 190.519531 104.964844 191.097656 105.539062 191.71875 C 105.945312 192.15625 106.332031 192.625 106.835938 192.910156 C 107.359375 193.203125 107.9375 193.296875 108.511719 193.394531 C 109.292969 193.535156 110.070312 193.679688 110.769531 194.035156 C 111.683594 194.507812 112.421875 195.246094 113.148438 196.007812 C 113.726562 196.621094 114.292969 197.25 115.015625 197.664062 C 115.609375 198 116.164062 197.949219 116.71875 197.9375 C 117.292969 197.921875 117.867188 197.921875 118.476562 198.078125 C 121.710938 198.910156 124.972656 200.476562 128.34375 200.828125 C 129.242188 200.921875 137.382812 200.515625 138.039062 200.351562 C 139.96875 199.871094 143.015625 198.710938 144.9375 198.824219 C 145.710938 198.867188 146.429688 199.15625 147.152344 199.460938 C 147.660156 199.679688 148.167969 199.914062 148.722656 199.953125 C 149.210938 199.988281 149.71875 199.898438 150.222656 199.851562 C 150.933594 199.789062 151.632812 199.800781 152.292969 200.050781 C 153.675781 200.578125 154.824219 201.589844 156.269531 201.984375 C 156.90625 202.160156 157.460938 202.03125 158.023438 201.914062 C 158.550781 201.800781 159.082031 201.6875 159.652344 201.664062 C 161.140625 201.609375 162.449219 201.535156 163.3125 200.78125 C 163.804688 200.359375 164.109375 199.707031 164.25 198.75 C 164.164062 198.710938 164.074219 198.667969 163.988281 198.621094 C 162.523438 197.816406 161.71875 196.046875 161.050781 194.652344 C 160.8125 194.15625 161.023438 193.558594 161.519531 193.324219 C 162.015625 193.085938 162.609375 193.296875 162.847656 193.792969 C 163.125 194.375 163.417969 195.046875 163.792969 195.65625 C 164.097656 196.148438 164.453125 196.601562 164.945312 196.871094 C 165.632812 197.25 166.394531 197.167969 167.148438 197.121094 C 167.679688 197.085938 168.253906 196.9375 168.828125 196.816406 C 169.566406 196.664062 170.300781 196.558594 170.976562 196.644531 C 171.785156 196.75 172.484375 196.984375 173.171875 197.207031 C 173.964844 197.460938 174.734375 197.710938 175.753906 197.496094 C 176.96875 197.238281 178.113281 196.609375 179.265625 196.023438 C 180.601562 195.339844 181.949219 194.714844 183.363281 194.558594 C 184.574219 194.421875 185.730469 194.734375 186.929688 194.386719 C 187.492188 194.222656 187.972656 193.894531 188.457031 193.582031 C 189.105469 193.160156 189.761719 192.753906 190.503906 192.546875 C 191.1875 192.359375 191.878906 192.339844 192.570312 192.316406 C 193.082031 192.300781 193.589844 192.285156 194.089844 192.101562 C 194.9375 191.789062 198.613281 189.367188 201.019531 187.597656 C 201.980469 186.894531 202.734375 186.320312 202.953125 186.03125 C 203.757812 184.976562 207.210938 178.539062 207.636719 177.289062 C 207.839844 176.695312 207.703125 176.109375 207.640625 175.527344 C 207.578125 174.933594 207.554688 174.347656 207.6875 173.761719 C 208.1875 171.636719 208.980469 169.429688 209.605469 167.320312 C 209.996094 166.003906 210.867188 164.75 210.9375 163.351562 C 210.953125 163.070312 210.9375 162.789062 210.910156 162.503906 C 210.820312 162.3125 210.800781 162.105469 210.835938 161.910156 C 210.757812 161.320312 210.671875 160.730469 210.734375 160.148438 C 210.875 158.871094 211.121094 157.945312 211.328125 157.140625 C 211.738281 155.5625 211.925781 154.554688 210.351562 151.699219 C 210.089844 151.214844 210.265625 150.609375 210.746094 150.34375 C 211.226562 150.082031 211.832031 150.253906 212.097656 150.738281 C 213.820312 153.859375 213.796875 155.269531 213.445312 156.871094 C 213.242188 157.789062 212.886719 158.789062 212.714844 160.363281 C 212.710938 160.421875 212.703125 160.480469 212.703125 160.535156 C 213.71875 159.980469 214.492188 159.414062 215.058594 158.6875 C 215.828125 157.707031 216.191406 156.441406 216.351562 154.585938 C 216.429688 153.675781 216.410156 152.601562 216.855469 151.769531 C 217.195312 151.132812 217.667969 150.605469 218.113281 150.0625 C 218.429688 149.671875 218.742188 149.277344 218.886719 148.761719 C 219.402344 146.941406 219.027344 145 219.429688 143.167969 C 219.613281 142.324219 220.007812 141.578125 220.4375 140.84375 C 220.777344 140.257812 221.140625 139.6875 221.355469 139.042969 C 221.984375 137.113281 221.40625 135.386719 221.324219 133.445312 C 221.289062 132.601562 221.457031 131.875 221.625 131.164062 C 221.800781 130.417969 221.992188 129.691406 221.585938 128.75 C 220.75 126.796875 218.957031 123.367188 217.441406 122.03125 C 216.394531 121.105469 215.097656 120.507812 214.171875 119.449219 C 212.066406 117.050781 208.878906 113.878906 205.636719 113.191406 C 205.179688 114.449219 204.359375 115.664062 203.601562 116.726562 C 203.28125 117.175781 202.660156 117.28125 202.210938 116.960938 C 201.765625 116.640625 201.660156 116.019531 201.980469 115.574219 C 202.5625 114.753906 203.199219 113.84375 203.613281 112.886719 C 204.125 111.707031 204.28125 110.449219 203.25 109.277344 C 202.871094 108.84375 202.3125 108.597656 201.832031 108.269531 C 201.339844 107.933594 200.90625 107.542969 200.609375 107.023438 C 200.214844 106.332031 199.957031 105.652344 199.683594 105 C 199.363281 104.230469 199.023438 103.5 198.207031 102.890625 C 197.6875 102.503906 197.058594 102.3125 196.449219 102.097656 C 195.621094 101.800781 194.816406 101.476562 194.171875 100.90625 C 193.597656 100.394531 193.199219 99.753906 192.800781 99.109375 C 192.515625 98.652344 192.234375 98.1875 191.785156 97.84375 C 191.339844 97.507812 190.796875 97.296875 190.277344 97.050781 C 189.566406 96.714844 188.890625 96.320312 188.386719 95.710938 C 187.617188 94.78125 187.199219 93.585938 186.257812 92.785156 C 185.628906 92.253906 184.84375 92.011719 184.066406 91.746094 C 183.054688 91.402344 182.054688 91.039062 181.25 90.355469 C 180.5 89.714844 180.082031 88.808594 179.367188 88.132812 C 179.03125 87.816406 177.410156 86.695312 175.710938 85.570312 C 175.585938 85.519531 175.480469 85.445312 175.386719 85.355469 C 173.5 84.105469 171.609375 82.902344 171.390625 82.828125 C 170.597656 82.570312 169.832031 82.621094 169.074219 82.683594 C 168.101562 82.765625 167.132812 82.871094 166.136719 82.6875 C 164.570312 82.402344 161.90625 82.304688 159.300781 82.601562 C 159.273438 82.605469 159.25 82.609375 159.21875 82.609375 C 158.640625 82.679688 158.0625 82.765625 157.503906 82.878906 C 155.597656 83.253906 153.871094 83.851562 152.96875 84.902344 C 152.613281 85.316406 151.984375 85.367188 151.566406 85.007812 C 151.148438 84.648438 151.101562 84.019531 151.460938 83.601562 C 151.890625 83.101562 152.464844 82.664062 153.136719 82.285156 C 153.070312 82.226562 153 82.164062 152.929688 82.105469 C 152.855469 82.058594 152.789062 82 152.730469 81.9375 Z M 169.328125 175.105469 C 169.285156 174.558594 169.699219 174.078125 170.246094 174.039062 C 170.792969 173.996094 171.273438 174.410156 171.316406 174.957031 C 171.410156 176.210938 171.398438 176.125 171.40625 177.40625 C 171.410156 177.957031 170.96875 178.40625 170.417969 178.410156 C 169.867188 178.414062 169.417969 177.96875 169.414062 177.421875 C 169.40625 176.210938 169.417969 176.289062 169.328125 175.105469 Z M 194.1875 142.910156 C 193.636719 142.921875 193.179688 142.488281 193.167969 141.9375 C 193.15625 141.390625 193.59375 140.933594 194.140625 140.917969 C 195.589844 140.890625 195.496094 140.914062 197 140.816406 C 197.546875 140.78125 198.019531 141.195312 198.058594 141.742188 C 198.09375 142.292969 197.675781 142.765625 197.128906 142.804688 C 195.582031 142.902344 195.679688 142.878906 194.1875 142.910156 Z M 196.628906 150.28125 C 196.089844 150.175781 195.738281 149.652344 195.839844 149.113281 C 195.945312 148.574219 196.46875 148.222656 197.007812 148.324219 C 198.472656 148.609375 198.378906 148.558594 199.816406 148.652344 C 200.363281 148.6875 200.777344 149.164062 200.742188 149.710938 C 200.707031 150.261719 200.234375 150.675781 199.683594 150.640625 C 198.125 150.539062 198.226562 150.589844 196.628906 150.28125 Z M 160.769531 159.390625 C 160.429688 158.960938 160.503906 158.332031 160.9375 157.992188 C 161.367188 157.652344 161.996094 157.726562 162.335938 158.160156 C 162.648438 158.558594 162.625 158.507812 163.023438 158.957031 C 163.390625 159.363281 163.355469 159.996094 162.945312 160.359375 C 162.535156 160.726562 161.90625 160.691406 161.539062 160.28125 C 161.09375 159.78125 161.121094 159.839844 160.769531 159.390625 Z M 181.261719 173.992188 C 181.210938 173.445312 181.617188 172.960938 182.167969 172.914062 C 182.714844 172.867188 183.199219 173.269531 183.246094 173.820312 C 183.386719 175.441406 183.546875 177.054688 183.546875 178.683594 C 183.546875 179.234375 183.101562 179.679688 182.554688 179.679688 C 182.003906 179.683594 181.558594 179.234375 181.554688 178.6875 C 181.554688 177.117188 181.394531 175.554688 181.261719 173.992188 Z M 179.9375 147.8125 C 180.476562 147.910156 180.832031 148.429688 180.734375 148.972656 C 180.632812 149.511719 180.117188 149.871094 179.574219 149.769531 C 178.902344 149.648438 178.226562 149.519531 177.550781 149.394531 C 177.011719 149.296875 176.652344 148.777344 176.753906 148.234375 C 176.855469 147.695312 177.375 147.339844 177.914062 147.4375 C 178.589844 147.5625 179.261719 147.6875 179.9375 147.8125 Z M 188.363281 183.960938 C 188.5625 183.449219 189.140625 183.195312 189.648438 183.394531 C 190.164062 183.59375 190.417969 184.171875 190.21875 184.683594 C 189.832031 185.671875 189.851562 185.601562 189.46875 186.65625 C 189.28125 187.171875 188.710938 187.441406 188.191406 187.25 C 187.675781 187.066406 187.410156 186.492188 187.597656 185.976562 C 187.988281 184.898438 187.964844 184.96875 188.363281 183.960938 Z M 108.222656 154.308594 C 107.707031 154.113281 107.453125 153.535156 107.648438 153.023438 C 107.847656 152.511719 108.425781 152.253906 108.9375 152.453125 C 110.34375 152.992188 110.25 152.953125 111.71875 153.371094 C 112.246094 153.519531 112.554688 154.074219 112.402344 154.601562 C 112.253906 155.128906 111.703125 155.4375 111.175781 155.285156 C 109.617188 154.84375 109.710938 154.886719 108.222656 154.308594 Z M 97.21875 141.066406 C 97.152344 140.523438 97.539062 140.023438 98.085938 139.957031 C 98.628906 139.886719 99.128906 140.277344 99.195312 140.820312 C 99.488281 143.15625 99.378906 143.105469 100.003906 145.308594 C 100.152344 145.835938 99.847656 146.386719 99.316406 146.535156 C 98.789062 146.6875 98.238281 146.378906 98.089844 145.851562 C 97.421875 143.503906 97.53125 143.558594 97.21875 141.066406 Z M 184.769531 150.3125 C 184.21875 150.304688 183.78125 149.851562 183.789062 149.300781 C 183.800781 148.75 184.253906 148.3125 184.804688 148.320312 C 186.183594 148.34375 186.09375 148.371094 187.457031 148.28125 C 188.007812 148.246094 188.480469 148.660156 188.519531 149.210938 C 188.554688 149.757812 188.140625 150.230469 187.589844 150.269531 C 186.140625 150.363281 186.234375 150.335938 184.769531 150.3125 Z M 165.789062 164.957031 C 165.445312 164.527344 165.507812 163.902344 165.9375 163.554688 C 166.363281 163.207031 166.992188 163.273438 167.335938 163.699219 C 167.929688 164.429688 167.902344 164.375 168.484375 165.15625 C 168.816406 165.597656 168.726562 166.222656 168.285156 166.550781 C 167.84375 166.878906 167.222656 166.789062 166.890625 166.347656 C 166.332031 165.601562 166.359375 165.652344 165.789062 164.957031 Z M 104.347656 135.160156 C 103.898438 135.472656 103.277344 135.359375 102.964844 134.910156 C 102.648438 134.457031 102.761719 133.835938 103.210938 133.523438 C 105.1875 132.148438 105.019531 132.058594 106.933594 131.125 C 107.429688 130.886719 108.027344 131.09375 108.265625 131.585938 C 108.507812 132.078125 108.300781 132.675781 107.808594 132.917969 C 106.023438 133.785156 106.191406 133.878906 104.347656 135.160156 Z M 131.667969 114.839844 C 131.84375 114.320312 132.410156 114.039062 132.929688 114.214844 C 133.449219 114.386719 133.730469 114.953125 133.554688 115.476562 C 133.109375 116.796875 132.621094 117.980469 131.949219 119.210938 C 131.6875 119.691406 131.082031 119.867188 130.597656 119.605469 C 130.117188 119.339844 129.9375 118.734375 130.203125 118.253906 C 130.816406 117.128906 131.261719 116.046875 131.667969 114.839844 Z M 136.984375 90.261719 C 137.515625 90.117188 138.058594 90.4375 138.203125 90.96875 C 138.34375 91.5 138.027344 92.042969 137.496094 92.1875 C 135.679688 92.667969 133.917969 93.050781 132.050781 93.246094 C 131.503906 93.304688 131.011719 92.910156 130.953125 92.363281 C 130.894531 91.816406 131.292969 91.324219 131.839844 91.265625 C 133.601562 91.078125 135.269531 90.71875 136.984375 90.261719 Z M 125.753906 166.164062 C 125.960938 166.496094 125.957031 166.9375 125.714844 167.273438 C 125.390625 167.71875 124.765625 167.816406 124.320312 167.492188 C 123.160156 166.644531 122.054688 165.691406 121.46875 164.328125 C 120.535156 162.15625 120.816406 159.671875 121.859375 157.363281 C 123.347656 154.054688 126.394531 151.125 129.203125 150.066406 C 136.683594 147.246094 146.871094 151.050781 152.875 155.492188 C 160.109375 160.84375 167.03125 168.46875 168.539062 177.675781 C 168.980469 180.355469 168.703125 183.535156 167.320312 185.945312 C 165.792969 188.605469 162.203125 190.414062 159.171875 190.332031 C 155.730469 190.242188 152.902344 188.320312 150.308594 186.3125 C 150.054688 186.113281 149.921875 185.820312 149.921875 185.523438 C 149.867188 185.453125 149.820312 185.378906 149.785156 185.292969 C 149.5625 184.789062 149.796875 184.203125 150.300781 183.984375 C 151.105469 183.632812 152.007812 183.480469 152.851562 183.214844 C 153.445312 183.027344 154.011719 182.78125 154.398438 182.195312 C 154.503906 182.035156 154.496094 181.820312 154.480469 181.609375 C 154.457031 181.253906 154.359375 180.898438 154.269531 180.613281 C 153.730469 178.894531 152.445312 177.359375 150.902344 176.433594 C 149.738281 179.617188 148.105469 182.496094 146 185.328125 C 144.945312 186.742188 143.941406 188.480469 142.34375 189.347656 C 141.75 189.671875 140.972656 189.691406 140.167969 189.480469 C 139.300781 189.257812 138.394531 188.777344 137.855469 188.523438 C 135.027344 187.195312 132.308594 185.550781 129.789062 183.683594 C 129.191406 183.238281 128.449219 182.648438 127.933594 181.957031 C 127.503906 181.382812 127.222656 180.738281 127.199219 180.054688 C 127.171875 179.308594 127.53125 178.460938 128.101562 177.65625 C 128.734375 176.757812 129.621094 175.894531 130.011719 175.300781 C 131.816406 172.554688 133.46875 169.742188 135.074219 166.890625 C 133.242188 165.566406 130.222656 164.054688 128.09375 164.175781 C 127.503906 164.207031 126.859375 164.414062 126.375 164.777344 C 126.007812 165.054688 125.730469 165.433594 125.765625 165.925781 C 125.773438 166.007812 125.769531 166.085938 125.753906 166.164062 Z M 152.394531 185.398438 C 154.417969 186.910156 156.601562 188.269531 159.226562 188.34375 C 161.589844 188.40625 164.402344 187.027344 165.59375 184.953125 C 166.753906 182.929688 166.945312 180.25 166.574219 178 C 165.144531 169.296875 158.523438 162.152344 151.691406 157.09375 C 146.15625 153 136.800781 149.328125 129.90625 151.929688 C 127.511719 152.832031 124.945312 155.359375 123.671875 158.183594 C 122.871094 159.960938 122.578125 161.867188 123.300781 163.542969 C 123.476562 163.960938 123.730469 164.320312 124.023438 164.640625 C 124.660156 163.1875 126.390625 162.273438 127.980469 162.1875 C 130.417969 162.050781 133.875 163.636719 136.050781 165.144531 C 136.203125 164.871094 136.355469 164.597656 136.507812 164.324219 C 136.773438 163.839844 137.378906 163.667969 137.859375 163.933594 C 138.339844 164.199219 138.515625 164.804688 138.25 165.285156 C 136.160156 169.066406 134.046875 172.78125 131.675781 176.394531 C 131.277344 177 130.375 177.886719 129.726562 178.804688 C 129.441406 179.210938 129.175781 179.601562 129.1875 179.980469 C 129.203125 180.363281 129.445312 180.691406 129.71875 180.996094 C 130.101562 181.425781 130.582031 181.789062 130.976562 182.082031 C 133.386719 183.871094 135.992188 185.449219 138.703125 186.722656 C 139.160156 186.9375 139.929688 187.363281 140.667969 187.554688 C 140.9375 187.625 141.195312 187.707031 141.390625 187.597656 C 142.742188 186.867188 143.511719 185.332031 144.402344 184.140625 C 147.046875 180.582031 148.910156 176.941406 149.976562 172.652344 C 150.105469 172.121094 150.648438 171.792969 151.179688 171.925781 C 151.714844 172.058594 152.039062 172.601562 151.90625 173.132812 C 151.792969 173.597656 151.667969 174.054688 151.535156 174.503906 C 153.65625 175.644531 155.445312 177.699219 156.171875 180.015625 C 156.332031 180.523438 156.484375 181.191406 156.476562 181.816406 C 156.46875 182.359375 156.339844 182.871094 156.058594 183.292969 C 155.398438 184.296875 154.472656 184.789062 153.449219 185.113281 C 153.105469 185.222656 152.75 185.308594 152.394531 185.398438 Z M 134.1875 161.648438 C 133.640625 161.703125 133.152344 161.304688 133.097656 160.757812 C 133.039062 160.210938 133.4375 159.71875 133.984375 159.664062 C 140.15625 159.039062 145.925781 162.066406 150.480469 165.957031 C 152.554688 167.726562 154.851562 169.726562 156.035156 172.261719 C 156.269531 172.761719 156.054688 173.351562 155.554688 173.585938 C 155.058594 173.816406 154.464844 173.601562 154.230469 173.105469 C 153.167969 170.820312 151.054688 169.066406 149.1875 167.472656 C 145.035156 163.929688 139.808594 161.078125 134.1875 161.648438 Z M 130.75 153.753906 C 131.199219 153.4375 131.820312 153.542969 132.136719 153.992188 C 132.457031 154.441406 132.351562 155.0625 131.902344 155.378906 C 131.019531 156 131.085938 155.972656 130.308594 156.613281 C 129.882812 156.964844 129.257812 156.902344 128.90625 156.480469 C 128.554688 156.058594 128.613281 155.429688 129.039062 155.078125 C 129.871094 154.386719 129.804688 154.421875 130.75 153.753906 Z M 168.75 145.332031 C 169.230469 145.601562 169.402344 146.207031 169.132812 146.6875 C 168.867188 147.167969 168.257812 147.339844 167.777344 147.070312 C 167.03125 146.652344 167.082031 146.679688 166.351562 146.226562 C 165.882812 145.9375 165.738281 145.324219 166.023438 144.855469 C 166.3125 144.386719 166.925781 144.242188 167.394531 144.53125 C 168.089844 144.960938 168.042969 144.933594 168.75 145.332031 Z M 153.382812 88.226562 C 153.042969 87.792969 153.121094 87.164062 153.554688 86.828125 C 153.988281 86.492188 154.617188 86.570312 154.953125 87.003906 C 156.160156 88.554688 156.21875 88.417969 157.050781 89.890625 C 157.320312 90.367188 157.152344 90.976562 156.671875 91.246094 C 156.195312 91.515625 155.585938 91.347656 155.316406 90.867188 C 154.554688 89.519531 154.488281 89.648438 153.382812 88.226562 Z M 165.414062 92.335938 C 165.859375 92.015625 166.484375 92.121094 166.800781 92.566406 C 167.121094 93.015625 167.015625 93.636719 166.570312 93.957031 C 165.8125 94.496094 165.914062 94.476562 164.933594 95.3125 C 164.511719 95.667969 163.882812 95.613281 163.527344 95.195312 C 163.171875 94.773438 163.226562 94.144531 163.644531 93.789062 C 164.703125 92.894531 164.597656 92.917969 165.414062 92.335938 Z M 170.6875 93.855469 C 170.136719 93.839844 169.703125 93.382812 169.714844 92.832031 C 169.730469 92.285156 170.1875 91.847656 170.734375 91.863281 C 172.792969 91.914062 174.652344 92.0625 176.632812 92.621094 C 177.160156 92.769531 177.46875 93.320312 177.320312 93.851562 C 177.171875 94.378906 176.621094 94.6875 176.089844 94.539062 C 174.277344 94.027344 172.570312 93.902344 170.6875 93.855469 Z M 139.726562 142.308594 C 138.160156 144.109375 136.03125 145.40625 134.003906 146.585938 C 127.707031 150.25 119.890625 152.46875 112.570312 151.722656 C 110.011719 151.464844 106.945312 150.46875 104.703125 148.757812 C 102.296875 146.921875 100.8125 144.296875 101.609375 140.921875 C 102.09375 138.871094 103.148438 136.960938 105.035156 135.90625 C 105.292969 135.761719 105.964844 135.394531 106.484375 135.261719 C 106.972656 135.136719 107.398438 135.207031 107.679688 135.363281 C 107.980469 135.53125 108.105469 135.761719 108.167969 135.964844 C 108.226562 136.164062 108.230469 136.371094 108.160156 136.589844 C 108.117188 136.714844 108.035156 136.871094 107.894531 137.011719 C 107.839844 137.066406 107.683594 137.179688 107.605469 137.234375 C 107.523438 137.328125 107.464844 137.40625 107.40625 137.539062 C 107.316406 137.742188 107.332031 137.964844 107.492188 138.128906 C 108.394531 139.066406 109.527344 138.988281 110.636719 138.527344 C 112.679688 137.675781 114.667969 135.601562 115.734375 134.316406 C 115.6875 134.144531 115.640625 133.972656 115.59375 133.796875 C 114.742188 130.40625 114.300781 127.261719 112.234375 124.351562 C 112.054688 124.097656 112.007812 123.792969 112.082031 123.515625 C 112.046875 123.058594 112.332031 122.621094 112.789062 122.484375 C 115.058594 121.796875 117.359375 121.242188 119.742188 121.117188 C 121.3125 121.035156 122.945312 121.234375 124.527344 121.210938 C 124.964844 121.207031 125.339844 121.484375 125.480469 121.875 C 125.71875 122 125.90625 122.222656 125.980469 122.5 C 126.625 124.941406 126.941406 127.546875 127.820312 129.921875 C 128.074219 130.613281 128.402344 131.246094 128.773438 131.851562 C 128.925781 131.855469 129.078125 131.894531 129.222656 131.96875 C 131.820312 133.351562 134.066406 133.390625 136.785156 132.34375 C 136.804688 132.195312 136.859375 132.050781 136.9375 131.929688 C 136.59375 131.621094 136.5 131.097656 136.742188 130.683594 C 137.019531 130.210938 137.628906 130.050781 138.105469 130.328125 C 139.820312 131.332031 141.875 132.066406 143.878906 131.683594 C 145.378906 127.804688 145.964844 123.664062 147.007812 119.625 C 146.957031 119.484375 146.9375 119.332031 146.957031 119.171875 C 147.023438 118.628906 147.519531 118.238281 148.0625 118.300781 C 153.136719 118.90625 158.398438 121.332031 162.542969 124.347656 C 162.644531 124.421875 162.730469 124.507812 162.792969 124.609375 C 163.132812 123.3125 163.601562 122.027344 164.175781 120.785156 C 165.503906 117.902344 167.421875 115.25 169.703125 113.136719 C 169.511719 110.867188 168.574219 108.355469 167.171875 106.523438 C 166.328125 107.460938 165.585938 108.503906 164.90625 109.566406 C 164.460938 110.261719 164.164062 111.042969 163.851562 111.800781 C 163.84375 111.816406 163.671875 112.304688 163.632812 112.402344 C 163.335938 113.144531 162.585938 113.039062 162.546875 113.035156 C 162.425781 113.015625 162 112.9375 161.761719 112.417969 C 161.632812 112.132812 161.246094 110.738281 161.199219 110.542969 C 160.777344 108.738281 161.121094 106.890625 161.710938 105.167969 C 163.328125 100.445312 167.96875 95.679688 173.074219 94.875 C 178.945312 93.949219 184.652344 96.714844 188.113281 101.457031 C 188.589844 102.109375 189.269531 103.078125 189.734375 104.058594 C 190.097656 104.824219 190.328125 105.597656 190.316406 106.277344 C 190.308594 106.882812 189.984375 107.15625 189.570312 107.285156 C 189.417969 107.332031 189.210938 107.355469 188.976562 107.300781 C 188.816406 107.265625 188.566406 107.132812 188.417969 107.085938 C 187.335938 106.730469 186.523438 105.960938 185.605469 105.324219 C 184.851562 104.800781 183.953125 104.277344 183.011719 103.835938 C 182.921875 105.386719 182.886719 107.03125 183.441406 108.472656 C 183.449219 108.492188 183.453125 108.511719 183.460938 108.53125 C 183.679688 108.578125 183.898438 108.628906 184.117188 108.6875 C 184.261719 108.726562 184.386719 108.792969 184.496094 108.878906 C 184.777344 108.910156 185.046875 109.0625 185.214844 109.316406 C 185.519531 109.769531 185.398438 110.390625 184.941406 110.699219 C 183.066406 111.957031 181.363281 113.824219 180.511719 115.847656 C 179.761719 117.636719 179.695312 119.550781 180.9375 121.199219 C 184.996094 123.125 190.191406 125.070312 194.121094 124.980469 C 194.257812 124.976562 194.394531 125.003906 194.515625 125.050781 C 194.863281 125.027344 195.214844 125.1875 195.417969 125.503906 C 197.054688 128.027344 197.433594 133.730469 196.492188 136.476562 C 196.320312 136.980469 195.78125 137.257812 195.273438 137.109375 C 195.035156 137.199219 194.761719 137.195312 194.511719 137.082031 C 191.597656 135.75 188.359375 134.261719 185.105469 133.410156 C 183.320312 132.945312 181.535156 132.667969 179.796875 132.738281 C 179.515625 134.644531 180.082031 136.386719 180.941406 137.863281 C 182.476562 140.492188 184.941406 142.316406 185.664062 142.828125 C 185.820312 142.9375 185.914062 143.003906 185.929688 143.015625 C 186.871094 143.765625 185.835938 144.65625 185.695312 144.714844 C 184.617188 145.167969 182.960938 145.28125 181.121094 145.152344 C 177.117188 144.867188 172.203125 143.5 171.082031 142.988281 C 163.59375 139.5625 161.34375 133.097656 162.363281 126.648438 C 162.125 127.351562 161.832031 128.035156 161.605469 128.738281 C 160.703125 131.515625 159.96875 134.367188 159.839844 137.269531 C 160.148438 137.203125 160.484375 137.285156 160.734375 137.519531 C 161.902344 138.621094 163.320312 139.199219 164.941406 139.171875 C 165.382812 139.164062 165.761719 139.445312 165.898438 139.84375 C 165.910156 139.847656 165.921875 139.855469 165.933594 139.859375 C 166.421875 140.105469 166.617188 140.707031 166.371094 141.199219 C 164.5625 144.761719 161.972656 147.667969 157.957031 148.855469 C 155.699219 149.523438 152.996094 149.210938 150.757812 148.597656 C 146.714844 147.484375 142.542969 145.679688 139.78125 142.375 C 139.761719 142.351562 139.746094 142.332031 139.726562 142.308594 Z M 116.304688 136.671875 C 115.019531 138.027344 113.21875 139.609375 111.398438 140.367188 C 109.507812 141.152344 107.605469 141.113281 106.058594 139.511719 C 105.660156 139.097656 105.429688 138.605469 105.367188 138.085938 C 104.390625 138.902344 103.84375 140.121094 103.546875 141.378906 C 102.957031 143.886719 104.121094 145.8125 105.910156 147.171875 C 107.863281 148.664062 110.542969 149.515625 112.773438 149.742188 C 119.679688 150.445312 127.054688 148.324219 133 144.863281 C 135.007812 143.695312 137.160156 142.4375 138.59375 140.550781 C 137.648438 138.671875 137.238281 136.492188 136.980469 134.394531 C 134.789062 135.15625 132.835938 135.304688 130.8125 134.753906 C 130.832031 134.78125 130.851562 134.808594 130.867188 134.832031 C 131.1875 135.28125 131.082031 135.902344 130.632812 136.222656 C 130.1875 136.539062 129.5625 136.433594 129.246094 135.984375 C 128.015625 134.253906 126.699219 132.644531 125.953125 130.613281 C 125.074219 128.238281 124.734375 125.648438 124.105469 123.203125 C 122.691406 123.1875 121.246094 123.03125 119.847656 123.105469 C 118 123.203125 116.207031 123.582031 114.433594 124.078125 C 116.179688 126.949219 116.695312 130.011719 117.527344 133.308594 C 117.867188 134.65625 118.308594 135.859375 118.347656 137.269531 C 118.363281 137.820312 117.929688 138.277344 117.378906 138.292969 C 116.832031 138.308594 116.371094 137.875 116.355469 137.324219 C 116.351562 137.101562 116.332031 136.882812 116.304688 136.671875 Z M 138.816406 132.910156 C 139.09375 135.71875 139.449219 138.871094 141.308594 141.097656 C 143.808594 144.089844 147.621094 145.667969 151.289062 146.675781 C 153.1875 147.199219 155.476562 147.511719 157.390625 146.945312 C 160.53125 146.019531 162.617188 143.828125 164.144531 141.136719 C 162.542969 141.003906 161.105469 140.410156 159.855469 139.398438 C 159.863281 139.464844 159.867188 139.527344 159.871094 139.59375 C 159.914062 140.140625 159.5 140.617188 158.953125 140.660156 C 158.40625 140.699219 157.925781 140.289062 157.882812 139.742188 C 157.585938 135.777344 158.488281 131.882812 159.710938 128.121094 C 160.003906 127.226562 160.421875 126.363281 160.648438 125.445312 C 157.179688 123.058594 152.988281 121.128906 148.859375 120.429688 C 147.59375 125.410156 146.929688 130.523438 144.5 135.140625 C 144.246094 135.628906 143.644531 135.816406 143.15625 135.5625 C 142.667969 135.304688 142.484375 134.703125 142.738281 134.214844 C 142.816406 134.070312 142.890625 133.921875 142.964844 133.773438 C 141.546875 133.800781 140.132812 133.457031 138.816406 132.910156 Z M 171.507812 111.640625 C 174.449219 109.457031 177.835938 108.15625 181.292969 108.273438 C 180.882812 106.601562 180.964844 104.769531 181.066406 103.085938 C 180.738281 102.988281 180.414062 102.910156 180.101562 102.851562 C 179.558594 102.753906 179.199219 102.238281 179.296875 101.695312 C 179.394531 101.15625 179.910156 100.796875 180.453125 100.890625 C 182.570312 101.273438 184.996094 102.480469 186.742188 103.691406 C 187.0625 103.914062 187.363281 104.164062 187.671875 104.402344 C 187.292969 103.722656 186.839844 103.089844 186.507812 102.632812 C 183.480469 98.492188 178.511719 96.035156 173.382812 96.84375 C 168.964844 97.539062 164.996094 101.722656 163.597656 105.8125 C 163.261719 106.800781 162.996094 107.832031 163.003906 108.871094 C 163.074219 108.742188 163.148438 108.617188 163.226562 108.496094 C 164.8125 106.011719 166.734375 103.683594 169.304688 102.207031 C 169.78125 101.933594 170.390625 102.097656 170.664062 102.578125 C 170.9375 103.050781 170.773438 103.660156 170.296875 103.9375 C 169.691406 104.28125 169.132812 104.683594 168.605469 105.125 C 170.03125 106.921875 171.070312 109.316406 171.507812 111.640625 Z M 182.175781 110.332031 C 175.507812 109.492188 169.054688 114.96875 165.980469 121.617188 C 162.714844 128.691406 163.304688 137.242188 171.910156 141.175781 C 172.804688 141.585938 176.296875 142.554688 179.625 142.996094 C 180.796875 143.152344 181.953125 143.25 182.945312 143.222656 C 181.785156 142.21875 180.300781 140.71875 179.222656 138.867188 C 178.226562 137.160156 177.574219 135.171875 177.761719 132.996094 C 177.191406 133.121094 176.625 133.292969 176.070312 133.515625 C 175.5625 133.722656 174.980469 133.480469 174.773438 132.96875 C 174.566406 132.460938 174.8125 131.878906 175.320312 131.671875 C 176.449219 131.210938 177.617188 130.9375 178.8125 130.816406 C 178.851562 130.8125 178.894531 130.804688 178.933594 130.804688 C 181.109375 130.601562 183.359375 130.898438 185.609375 131.484375 C 188.785156 132.3125 191.945312 133.722656 194.820312 135.035156 C 195.300781 132.707031 195.023438 129 193.972656 126.976562 C 189.753906 127.003906 184.207031 124.949219 179.929688 122.917969 C 179.886719 122.902344 179.84375 122.882812 179.804688 122.859375 C 178.90625 122.429688 178.0625 122.003906 177.308594 121.601562 C 176.820312 121.339844 176.636719 120.738281 176.894531 120.253906 C 177.132812 119.808594 177.664062 119.617188 178.125 119.789062 C 177.78125 118.242188 178.023438 116.625 178.675781 115.074219 C 179.410156 113.328125 180.679688 111.671875 182.175781 110.332031 Z M 178.042969 98.089844 C 178.585938 98.179688 178.953125 98.691406 178.863281 99.234375 C 178.773438 99.777344 178.257812 100.144531 177.714844 100.054688 C 176.117188 99.785156 174.019531 100.148438 172.625 101 C 172.15625 101.285156 171.542969 101.136719 171.257812 100.667969 C 170.96875 100.199219 171.117188 99.585938 171.589844 99.296875 C 173.355469 98.21875 176.015625 97.75 178.042969 98.089844 Z M 142.675781 139.039062 C 142.210938 138.746094 142.070312 138.132812 142.363281 137.667969 C 142.65625 137.203125 143.269531 137.0625 143.738281 137.355469 C 147.777344 139.898438 150.863281 140.535156 155.480469 141.167969 C 156.027344 141.242188 156.40625 141.742188 156.332031 142.285156 C 156.257812 142.832031 155.757812 143.214844 155.210938 143.140625 C 150.277344 142.464844 146.992188 141.757812 142.675781 139.039062 Z M 129.921875 138.523438 C 130.382812 138.222656 131 138.351562 131.300781 138.8125 C 131.601562 139.273438 131.472656 139.890625 131.011719 140.191406 C 126.289062 143.269531 120.199219 144.898438 114.554688 144.460938 C 114.007812 144.417969 113.597656 143.9375 113.640625 143.390625 C 113.679688 142.84375 114.160156 142.433594 114.710938 142.476562 C 119.925781 142.878906 125.558594 141.367188 129.921875 138.523438 Z M 174.328125 134.972656 C 174.699219 135.378906 174.679688 136.007812 174.273438 136.382812 C 173.871094 136.753906 173.242188 136.730469 172.867188 136.328125 C 169.324219 132.511719 169.371094 126.054688 170.925781 121.351562 C 171.441406 119.800781 172.0625 118.019531 173.289062 116.878906 C 173.691406 116.503906 174.320312 116.527344 174.695312 116.929688 C 175.070312 117.332031 175.046875 117.964844 174.644531 118.339844 C 173.65625 119.257812 173.230469 120.726562 172.816406 121.976562 C 171.46875 126.050781 171.257812 131.667969 174.328125 134.972656 Z M 121.023438 112.945312 C 117.882812 113.417969 114.792969 114.371094 111.871094 115.582031 C 110.6875 116.074219 109.355469 117.058594 107.980469 117.636719 C 106.851562 118.109375 105.691406 118.324219 104.550781 118.015625 C 102.902344 117.570312 101.8125 116.144531 101.351562 114.367188 C 100.707031 111.890625 101.355469 108.804688 103.003906 107.386719 C 103.300781 107.128906 103.703125 107.078125 104.042969 107.222656 C 108.410156 106.839844 113.921875 104.632812 117.960938 102.171875 C 117.433594 100.890625 116.699219 99.792969 115.328125 99.195312 C 114.921875 99.019531 114.449219 99.023438 114.015625 99.074219 C 113.878906 99.089844 113.820312 99.101562 113.695312 99.128906 C 113.738281 99.121094 113.84375 99.078125 113.84375 99.078125 C 113.84375 99.078125 113.160156 99.292969 113 99.265625 C 112.785156 99.226562 112.609375 99.128906 112.46875 98.988281 C 112.320312 98.839844 112.175781 98.632812 112.160156 98.292969 C 112.132812 97.648438 112.402344 97.042969 112.859375 96.523438 C 113.363281 95.960938 114.105469 95.507812 114.640625 95.238281 C 117.34375 93.878906 120.886719 94.242188 123.507812 95.589844 C 125.117188 96.417969 126.574219 97.636719 127.800781 99.101562 C 128.039062 97.4375 128.519531 95.855469 129.402344 94.324219 C 129.609375 93.96875 130 93.785156 130.382812 93.828125 C 130.554688 93.753906 130.746094 93.730469 130.945312 93.761719 C 135.125 94.472656 139.9375 92.882812 143.554688 90.945312 C 143.554688 90.941406 143.554688 90.941406 143.558594 90.941406 C 143.59375 89.296875 143.277344 87.65625 142.65625 86.132812 C 142.484375 85.710938 142.621094 85.238281 142.964844 84.972656 C 143.152344 84.65625 143.511719 84.457031 143.902344 84.488281 C 146.132812 84.671875 147.9375 85.867188 149.375 87.503906 C 150.707031 89.023438 151.71875 90.929688 152.464844 92.652344 C 153.570312 95.195312 154.1875 97.6875 154.128906 100.464844 C 154.054688 104.160156 152.59375 108.738281 149.980469 112.058594 C 148.171875 114.355469 145.820312 116.054688 143.023438 116.535156 C 141.867188 116.738281 140.757812 116.496094 139.617188 116.332031 C 139.597656 116.328125 139.578125 116.324219 139.558594 116.320312 C 139.335938 116.300781 139.121094 116.210938 138.949219 116.042969 C 138.558594 115.65625 138.550781 115.027344 138.9375 114.632812 C 140.167969 113.371094 141.203125 112.140625 141.609375 110.636719 C 140.277344 109.933594 138.726562 109.195312 137.265625 108.957031 C 135.394531 108.65625 133.585938 108.863281 131.730469 109.019531 C 131.785156 110.4375 131.621094 111.84375 131.207031 113.164062 C 130.910156 114.105469 130.691406 115.105469 130.257812 115.996094 C 129.050781 118.484375 126.335938 120.171875 123.570312 120.257812 C 123.128906 120.273438 122.746094 120 122.601562 119.609375 C 122.574219 119.570312 122.546875 119.535156 122.523438 119.492188 C 122.242188 119.023438 122.398438 118.410156 122.867188 118.128906 C 123.128906 117.972656 123.300781 117.777344 123.464844 117.519531 C 124.027344 116.648438 123.835938 115.78125 123.355469 115.035156 C 122.796875 114.164062 121.878906 113.433594 121.023438 112.945312 Z M 103.984375 109.226562 C 103.082031 110.332031 102.867188 112.285156 103.277344 113.867188 C 103.546875 114.914062 104.097656 115.832031 105.070312 116.09375 C 105.996094 116.34375 106.925781 115.96875 107.828125 115.511719 C 108.984375 114.925781 110.101562 114.160156 111.109375 113.742188 C 114.785156 112.214844 118.71875 111.09375 122.6875 110.734375 C 123.234375 110.6875 123.722656 111.089844 123.769531 111.636719 C 123.792969 111.894531 123.71875 112.132812 123.578125 112.324219 C 124.136719 112.804688 124.644531 113.359375 125.03125 113.957031 C 125.78125 115.128906 126.085938 116.457031 125.546875 117.820312 C 126.796875 117.292969 127.875 116.34375 128.464844 115.128906 C 128.855469 114.324219 129.039062 113.417969 129.304688 112.566406 C 131.03125 107.074219 127.683594 99.976562 122.597656 97.359375 C 120.507812 96.289062 117.6875 95.9375 115.535156 97.015625 C 115.46875 97.050781 115.394531 97.089844 115.320312 97.128906 C 115.597656 97.179688 115.867188 97.257812 116.125 97.371094 C 117.882812 98.136719 118.925781 99.464844 119.648438 101.066406 C 119.730469 101.011719 119.8125 100.949219 119.894531 100.894531 C 120.339844 100.570312 120.960938 100.671875 121.28125 101.117188 C 121.605469 101.5625 121.503906 102.183594 121.058594 102.507812 C 120.730469 102.746094 120.386719 102.984375 120.027344 103.21875 C 119.910156 103.390625 119.738281 103.53125 119.523438 103.601562 C 119.472656 103.621094 119.417969 103.632812 119.367188 103.640625 C 114.988281 106.375 108.824219 108.855469 104.023438 109.222656 C 104.007812 109.222656 103.996094 109.222656 103.984375 109.226562 Z M 129.535156 101.609375 C 130.496094 103.296875 131.183594 105.15625 131.515625 107.039062 C 133.550781 106.871094 135.53125 106.664062 137.582031 106.992188 C 138.964844 107.214844 140.421875 107.816406 141.742188 108.472656 C 141.730469 108.363281 141.710938 108.25 141.691406 108.140625 C 141.59375 107.597656 141.953125 107.078125 142.496094 106.980469 C 143.035156 106.886719 143.554688 107.246094 143.652344 107.785156 C 144.15625 110.589844 143.226562 112.667969 141.632812 114.613281 C 141.980469 114.640625 142.328125 114.636719 142.683594 114.574219 C 144.996094 114.171875 146.917969 112.730469 148.417969 110.824219 C 150.757812 107.847656 152.074219 103.742188 152.140625 100.425781 C 152.191406 97.941406 151.625 95.71875 150.640625 93.445312 C 149.96875 91.898438 149.074219 90.183594 147.878906 88.816406 C 147.0625 87.890625 146.109375 87.125 144.972656 86.734375 C 145.691406 89.160156 145.761719 91.769531 145.066406 94.242188 C 144.917969 94.769531 144.367188 95.078125 143.835938 94.929688 C 143.308594 94.78125 143 94.230469 143.148438 93.703125 C 143.183594 93.578125 143.214844 93.457031 143.246094 93.332031 C 139.53125 95.109375 134.949219 96.371094 130.882812 95.769531 C 129.996094 97.503906 129.683594 99.320312 129.609375 101.265625 C 129.605469 101.386719 129.578125 101.503906 129.535156 101.609375 Z M 123.121094 102 C 122.941406 101.476562 123.21875 100.910156 123.738281 100.734375 C 124.257812 100.554688 124.824219 100.832031 125.003906 101.351562 C 125.34375 102.34375 125.902344 103.207031 126.304688 104.167969 C 127 105.820312 127.238281 107.644531 127.144531 109.425781 C 127.117188 109.972656 126.648438 110.394531 126.097656 110.363281 C 125.546875 110.335938 125.125 109.867188 125.15625 109.316406 C 125.234375 107.839844 125.046875 106.316406 124.46875 104.941406 C 124.046875 103.9375 123.476562 103.035156 123.121094 102 Z M 146.148438 95.230469 C 146.054688 94.6875 146.421875 94.171875 146.960938 94.078125 C 147.503906 93.988281 148.015625 94.351562 148.109375 94.894531 C 148.78125 98.832031 148.527344 103.167969 147.160156 106.933594 C 146.972656 107.449219 146.402344 107.71875 145.882812 107.527344 C 145.367188 107.34375 145.101562 106.769531 145.289062 106.253906 C 146.539062 102.804688 146.761719 98.835938 146.148438 95.230469 Z M 146.148438 95.230469 " fill-opacity="1" fill-rule="evenodd"/></g></svg>