<svg xmlns="http://www.w3.org/2000/svg" xmlns:xlink="http://www.w3.org/1999/xlink" width="400" zoomAndPan="magnify" viewBox="0 0 300 299.999988" height="400" preserveAspectRatio="xMidYMid meet" version="1.0"><path fill="#a9a0f0" d="M 211.167969 66.832031 C 210.640625 66.402344 210.066406 66.046875 209.441406 65.773438 C 208.820312 65.5 208.171875 65.3125 207.5 65.214844 C 206.828125 65.113281 206.152344 65.105469 205.476562 65.1875 C 204.804688 65.273438 204.152344 65.441406 203.523438 65.703125 C 202.964844 65.796875 202.410156 65.902344 201.855469 66.007812 C 201.960938 65.152344 201.953125 64.296875 201.835938 63.4375 C 201.675781 61.832031 201.386719 60.253906 200.96875 58.695312 C 200.453125 56.136719 199.351562 53.867188 197.660156 51.886719 C 196.726562 50.984375 195.652344 50.3125 194.433594 49.871094 C 193.214844 49.429688 191.960938 49.253906 190.667969 49.347656 C 187.921875 47.167969 184.957031 45.351562 181.761719 43.90625 C 178.644531 42.519531 175.140625 41.175781 171.710938 40.902344 C 171.773438 39.328125 171.929688 37.585938 171.207031 36.167969 C 170.453125 34.683594 168.902344 33.929688 167.472656 33.230469 C 165.835938 32.300781 164.078125 31.839844 162.199219 31.847656 C 160.734375 32 159.445312 32.5625 158.34375 33.539062 C 157.015625 34.609375 155.519531 36.578125 153.585938 36.402344 C 151.964844 36.257812 151.898438 34.027344 151.042969 32.902344 C 150.578125 32.296875 150.019531 31.796875 149.367188 31.40625 C 148.714844 31.011719 148.011719 30.75 147.257812 30.621094 C 143.730469 30.03125 141.367188 32.800781 138.574219 34.359375 C 136.878906 35.304688 135.03125 35.746094 133.5625 34.234375 C 132.550781 33.195312 131.601562 32.339844 130.046875 32.554688 C 128.4375 32.773438 126.882812 33.941406 125.601562 34.859375 C 124.242188 35.75 123.128906 36.882812 122.265625 38.261719 C 120.988281 40.503906 121.109375 43.738281 123.179688 45.488281 C 123.503906 45.757812 123.859375 45.96875 124.25 46.125 C 123.933594 46.222656 123.621094 46.324219 123.320312 46.441406 C 123.074219 46.382812 122.835938 46.40625 122.605469 46.503906 C 110.289062 51.703125 106.496094 65.941406 103.976562 77.773438 C 100.816406 92.585938 98.039062 107.476562 95.632812 122.441406 C 90.796875 152.308594 87 182.457031 84.6875 212.628906 C 84.101562 220.257812 83.960938 228.28125 86.785156 235.527344 C 89.023438 241.285156 92.976562 246.691406 98.765625 249.179688 C 98.480469 250.929688 98.191406 252.679688 97.914062 254.429688 C 97.375 257.847656 96.625 261.722656 98.785156 264.761719 C 100.8125 267.609375 104.425781 268.40625 107.679688 268.851562 C 116.238281 270.007812 124.742188 269.683594 133.1875 267.878906 C 141.054688 266.203125 149.027344 263.378906 155.394531 258.34375 C 166.613281 249.476562 171.613281 235.191406 175.761719 222.027344 C 181.339844 204.335938 186.804688 186.605469 192.324219 168.894531 C 197.902344 150.992188 203.472656 133.085938 209.027344 115.175781 C 211.664062 106.726562 214.296875 98.234375 215.371094 89.417969 C 215.957031 84.984375 215.996094 80.542969 215.484375 76.097656 C 215.054688 72.675781 214.035156 69.019531 211.167969 66.832031 Z M 196.347656 54.167969 C 197.480469 55.894531 198.230469 57.769531 198.601562 59.800781 C 198.96875 61.183594 199.199219 62.585938 199.292969 64.011719 C 199.226562 64.859375 199.230469 65.707031 199.300781 66.554688 C 194.050781 67.804688 188.964844 69.53125 184.035156 71.730469 C 184.042969 71.191406 184.164062 70.679688 184.386719 70.1875 C 184.625 69.757812 185.023438 69.492188 185.296875 69.089844 C 185.53125 68.695312 185.660156 68.269531 185.675781 67.8125 C 185.691406 67.355469 185.597656 66.921875 185.390625 66.515625 C 184.554688 64.507812 183.214844 62.929688 181.367188 61.78125 C 180.484375 61.214844 178.90625 60.667969 178.898438 59.414062 C 178.894531 57.984375 180.523438 56.875 181.398438 55.933594 C 182.300781 55.054688 182.882812 53.996094 183.144531 52.765625 C 185.273438 51.84375 187.851562 51.757812 190.121094 51.710938 C 192.554688 51.664062 194.820312 52.117188 196.347656 54.167969 Z M 182.414062 72.335938 C 182.433594 72.367188 182.457031 72.398438 182.480469 72.429688 C 175.453125 75.746094 168.6875 79.527344 162.179688 83.777344 C 162.425781 81.78125 162.476562 79.714844 162.667969 77.773438 C 162.949219 74.902344 163.308594 72.019531 163.453125 69.136719 C 163.699219 66.492188 163.257812 63.96875 162.132812 61.558594 C 161.011719 59.382812 159.214844 57.554688 157.609375 55.730469 C 157.441406 55.535156 157.269531 55.34375 157.097656 55.148438 C 159.84375 53.457031 159.351562 48.601562 162.503906 47.003906 C 162.71875 46.875 162.949219 46.773438 163.191406 46.703125 C 163.433594 46.632812 163.679688 46.589844 163.933594 46.582031 C 164.1875 46.574219 164.4375 46.597656 164.683594 46.652344 C 164.929688 46.703125 165.167969 46.789062 165.390625 46.902344 C 165.617188 47.015625 165.824219 47.15625 166.015625 47.324219 C 166.203125 47.492188 166.371094 47.679688 166.511719 47.886719 C 166.65625 48.097656 166.769531 48.320312 166.855469 48.558594 C 166.941406 48.796875 166.996094 49.039062 167.019531 49.292969 C 167.375 51.40625 169.300781 51.617188 171.152344 51.363281 C 173.191406 51.082031 174.371094 49.960938 175.972656 48.851562 C 177.179688 48.015625 178.191406 48.867188 179.1875 49.632812 C 180.160156 50.375 181.203125 51.363281 180.871094 52.6875 C 180.367188 54.675781 177.964844 55.777344 177.113281 57.667969 C 176.972656 57.972656 176.867188 58.292969 176.800781 58.625 C 176.558594 58.570312 176.382812 58.65625 176.273438 58.878906 C 175.207031 61.253906 174.558594 63.808594 173.601562 66.230469 C 172.546875 68.894531 171.394531 71.546875 170.207031 74.15625 C 170.144531 74.269531 170.132812 74.390625 170.167969 74.515625 C 170.203125 74.640625 170.277344 74.734375 170.386719 74.800781 C 170.5 74.867188 170.621094 74.882812 170.746094 74.855469 C 170.871094 74.824219 170.972656 74.753906 171.039062 74.644531 C 172.597656 72.289062 173.894531 69.804688 174.9375 67.183594 C 175.816406 65.136719 176.511719 63.03125 177.019531 60.867188 C 177.289062 61.460938 177.675781 61.960938 178.183594 62.367188 C 179.023438 63.058594 180.042969 63.480469 180.898438 64.144531 C 181.851562 64.878906 182.597656 65.785156 183.144531 66.855469 C 183.78125 68.113281 182.746094 68.433594 182.292969 69.53125 C 182.078125 69.980469 181.976562 70.453125 182 70.949219 C 182.019531 71.445312 182.160156 71.90625 182.414062 72.335938 Z M 159.519531 85.496094 C 158.71875 86.015625 157.917969 86.542969 157.121094 87.078125 C 155.535156 86.269531 153.777344 85.8125 152.191406 84.957031 C 151.515625 84.589844 150.859375 84.191406 150.214844 83.773438 C 151.34375 81.910156 150.101562 78.335938 149.351562 76.496094 C 148.351562 73.980469 146.789062 71.882812 144.664062 70.203125 C 142.835938 68.800781 140.488281 68.117188 138.378906 69.339844 C 137.230469 69.980469 136.449219 70.925781 136.027344 72.171875 C 134.863281 71.171875 133.695312 70.171875 132.53125 69.175781 C 133.171875 66.128906 133.515625 63.003906 134.050781 59.9375 C 134.515625 57.257812 134.609375 53.800781 136.457031 51.636719 C 137.425781 50.640625 138.527344 49.832031 139.769531 49.210938 C 141.101562 48.441406 142.601562 47.511719 144.203125 47.886719 C 146.867188 48.507812 149.488281 51.066406 151.40625 52.890625 C 153.46875 54.847656 155.34375 56.996094 157.203125 59.144531 C 159.304688 61.574219 160.8125 63.878906 160.925781 67.191406 C 160.894531 70.320312 160.675781 73.441406 160.269531 76.546875 C 160.019531 79.4375 159.421875 82.558594 159.519531 85.496094 Z M 148.492188 82.601562 C 148.148438 82.351562 147.808594 82.097656 147.472656 81.839844 C 144.050781 79.210938 140.84375 76.296875 137.570312 73.492188 L 137.453125 73.390625 C 137.535156 73.023438 137.671875 72.675781 137.863281 72.347656 C 138.054688 72.023438 138.292969 71.734375 138.578125 71.484375 C 138.863281 71.234375 139.179688 71.035156 139.527344 70.886719 C 139.875 70.738281 140.234375 70.644531 140.613281 70.613281 C 142.5625 70.550781 144.273438 72.363281 145.386719 73.769531 C 146.589844 75.300781 147.449219 77.003906 147.96875 78.882812 C 148.207031 79.726562 148.363281 80.589844 148.4375 81.464844 C 148.46875 81.871094 148.464844 82.238281 148.492188 82.601562 Z M 123.824219 40.640625 C 124.234375 39.222656 125.046875 38.097656 126.261719 37.265625 C 127.203125 36.515625 129.730469 34.347656 131.011719 34.96875 C 131.527344 35.21875 131.921875 35.9375 132.335938 36.3125 C 132.746094 36.695312 133.210938 36.996094 133.730469 37.210938 C 135.070312 37.703125 136.414062 37.710938 137.761719 37.234375 C 140.527344 36.367188 142.410156 33.816406 145.164062 33.03125 C 145.535156 32.917969 145.921875 32.859375 146.3125 32.863281 C 146.703125 32.867188 147.085938 32.933594 147.457031 33.058594 C 147.828125 33.183594 148.171875 33.359375 148.488281 33.59375 C 148.804688 33.824219 149.074219 34.101562 149.304688 34.417969 C 150.125 35.589844 150.113281 37.046875 151.335938 37.96875 C 153.34375 39.492188 156.089844 38.453125 157.835938 37.03125 C 159.105469 35.996094 160.277344 34.484375 161.980469 34.179688 C 164 33.820312 166.207031 35.058594 167.886719 36.042969 C 169.886719 37.210938 169.449219 39.382812 169.410156 41.394531 C 169.363281 43.609375 169.28125 45.824219 169.304688 48.039062 C 169.308594 48.183594 169.34375 48.320312 169.402344 48.453125 C 169.460938 48.582031 169.539062 48.699219 169.644531 48.800781 C 169.746094 48.898438 169.867188 48.976562 170 49.03125 C 170.132812 49.085938 170.273438 49.113281 170.417969 49.113281 C 170.5625 49.113281 170.699219 49.085938 170.832031 49.03125 C 170.96875 48.976562 171.085938 48.898438 171.191406 48.800781 C 171.292969 48.699219 171.375 48.582031 171.433594 48.453125 C 171.492188 48.320312 171.523438 48.183594 171.527344 48.039062 C 171.621094 46.265625 171.644531 44.492188 171.671875 42.71875 C 174.832031 43.667969 177.945312 44.363281 180.96875 45.777344 C 183.269531 46.851562 185.460938 48.125 187.53125 49.597656 C 185.949219 49.773438 184.429688 50.179688 182.972656 50.816406 C 182.953125 50.753906 182.933594 50.691406 182.910156 50.632812 C 182.195312 48.820312 180.207031 47.300781 178.492188 46.488281 C 176.390625 45.492188 175.054688 46.777344 173.464844 47.984375 C 172.601562 48.636719 171.089844 49.417969 169.957031 49.144531 C 169.042969 48.921875 169.074219 47.40625 168.582031 46.632812 C 168.039062 45.835938 167.339844 45.226562 166.476562 44.800781 C 165.609375 44.378906 164.699219 44.199219 163.738281 44.257812 C 162.664062 44.382812 161.671875 44.746094 160.765625 45.339844 C 159.859375 45.933594 159.132812 46.699219 158.589844 47.636719 C 157.371094 49.578125 157.050781 51.769531 155.765625 53.660156 C 152.917969 50.527344 149.695312 47.394531 145.859375 45.769531 C 143.511719 44.777344 141.3125 45.421875 139.167969 46.601562 C 137.105469 47.734375 134.960938 49.007812 133.714844 51.078125 C 132.457031 53.160156 132.097656 55.71875 131.757812 58.132812 C 130.304688 56.683594 129.441406 54.945312 129.175781 52.910156 C 128.957031 51.632812 128.867188 50.347656 128.90625 49.050781 C 128.929688 47.796875 129.105469 46.449219 128.234375 45.414062 C 127.363281 44.382812 126.101562 44.605469 125.015625 44.035156 C 123.839844 43.410156 123.582031 41.835938 123.824219 40.640625 Z M 131.460938 60.164062 C 131.085938 62.578125 130.675781 65.019531 130.453125 67.453125 C 129.601562 66.769531 128.890625 65.957031 128.328125 65.023438 C 127.511719 63.300781 127.308594 61.511719 127.726562 59.652344 C 127.917969 58.511719 128.105469 57.421875 128.238281 56.3125 C 128.925781 57.921875 130 59.203125 131.460938 60.164062 Z M 99.234375 246.359375 C 96.988281 245 95.027344 243.304688 93.355469 241.277344 C 91.683594 239.253906 90.394531 237.007812 89.484375 234.542969 C 87.074219 228.21875 87.003906 221.339844 87.429688 214.675781 C 88.355469 200.242188 90.074219 185.8125 91.734375 171.449219 C 95.058594 142.675781 99.382812 114.007812 105.089844 85.609375 C 106.871094 76.738281 108.460938 66.28125 113.289062 58.246094 C 113.578125 61.316406 114.207031 64.320312 115.179688 67.25 C 116.125 70.257812 117.496094 73.058594 119.296875 75.652344 C 120.152344 76.953125 121.179688 78.097656 122.375 79.09375 C 123.574219 80.085938 124.890625 80.886719 126.324219 81.488281 C 126.988281 81.757812 127.539062 80.742188 127.019531 80.292969 C 123.054688 76.832031 119.742188 72.898438 117.789062 67.960938 C 116.859375 65.582031 116.164062 63.140625 115.703125 60.632812 C 115.261719 58.949219 115.078125 57.238281 115.148438 55.5 C 117.410156 52.484375 120.21875 50.121094 123.578125 48.414062 C 124.679688 48.214844 125.757812 47.949219 126.824219 47.613281 C 126.855469 47.914062 126.820312 48.257812 126.824219 48.648438 C 126.828125 50.253906 126.988281 51.847656 127.304688 53.425781 C 127.332031 53.542969 127.359375 53.660156 127.386719 53.777344 C 127.332031 53.820312 127.28125 53.867188 127.238281 53.925781 C 124.96875 57.011719 123.9375 61.320312 125.246094 65.054688 C 126.007812 66.929688 127.203125 68.472656 128.828125 69.679688 C 130.78125 71.335938 132.746094 72.980469 134.703125 74.628906 C 138.289062 77.644531 141.800781 80.78125 145.546875 83.597656 C 147.25 84.910156 149.050781 86.070312 150.953125 87.074219 C 152.171875 87.742188 153.445312 88.28125 154.769531 88.6875 C 149.847656 92.003906 145.417969 95.878906 141.472656 100.308594 C 136.144531 106.527344 133.082031 113.933594 130.554688 121.640625 C 119.039062 156.261719 109.75 191.472656 102.683594 227.265625 C 101.453125 233.617188 100.304688 239.980469 99.234375 246.359375 Z M 213.003906 84.140625 C 212.695312 92.734375 210.425781 101.117188 207.941406 109.300781 C 202.789062 126.300781 197.332031 143.207031 192.039062 160.164062 C 186.753906 177.078125 181.472656 193.996094 176.191406 210.910156 C 172.039062 224.207031 168.539062 238.910156 159.609375 249.972656 C 149.761719 262.179688 132.882812 266.5 117.761719 266.539062 C 113.859375 266.625 109.984375 266.308594 106.148438 265.585938 C 104.550781 265.351562 103.121094 264.738281 101.855469 263.738281 C 100.355469 262.382812 100.222656 260.375 100.359375 258.484375 C 100.652344 254.433594 101.574219 250.351562 102.25 246.347656 C 102.984375 242.015625 103.753906 237.683594 104.558594 233.363281 C 110.996094 199.453125 119.457031 166.050781 129.9375 133.164062 C 132.398438 125.34375 134.492188 117.152344 138.363281 109.875 C 141.957031 103.121094 147.398438 97.699219 153.460938 93.125 C 159.621094 88.566406 166.039062 84.402344 172.710938 80.628906 C 179.515625 76.578125 186.65625 73.257812 194.140625 70.667969 C 196.9375 69.738281 199.773438 68.953125 202.648438 68.316406 C 202.859375 68.527344 203.113281 68.648438 203.410156 68.679688 C 203.707031 68.707031 203.980469 68.640625 204.226562 68.472656 C 206.980469 66.792969 209.734375 68.753906 211.183594 71.175781 C 193.746094 76.066406 177.066406 84.152344 161.9375 94.039062 C 157.554688 96.871094 153.433594 100.035156 149.566406 103.539062 C 149.46875 103.640625 149.417969 103.761719 149.410156 103.902344 C 149.402344 104.042969 149.441406 104.171875 149.527344 104.28125 C 149.613281 104.394531 149.726562 104.464844 149.863281 104.492188 C 150.003906 104.519531 150.132812 104.503906 150.257812 104.433594 C 157.871094 99.488281 165.316406 94.273438 173.210938 89.777344 C 181.207031 85.242188 189.476562 81.277344 198.023438 77.878906 C 202.605469 76.050781 207.269531 74.417969 211.953125 72.855469 C 213.160156 76.390625 213.140625 80.457031 213.003906 84.140625 Z M 144.789062 113.46875 C 143.953125 115.671875 142.914062 117.773438 141.671875 119.777344 C 141.613281 119.875 141.527344 119.941406 141.417969 119.976562 C 141.308594 120.007812 141.203125 120.003906 141.097656 119.960938 C 140.992188 119.914062 140.914062 119.84375 140.859375 119.738281 C 140.808594 119.636719 140.796875 119.53125 140.824219 119.421875 C 141.597656 117.144531 142.578125 114.960938 143.773438 112.875 C 144.128906 112.183594 145.082031 112.792969 144.789062 113.46875 Z M 167.960938 150.449219 C 166.460938 152.136719 164.921875 153.78125 163.339844 155.390625 C 161.847656 156.902344 160.386719 158.550781 158.484375 159.546875 C 157.84375 159.886719 157.007812 159.179688 157.441406 158.503906 C 158.59375 156.703125 160.28125 155.335938 161.78125 153.835938 C 163.375 152.238281 164.921875 150.597656 166.429688 148.917969 C 167.363281 147.875 168.882812 149.410156 167.960938 150.449219 Z M 158.574219 167.714844 C 158.46875 166.359375 159.675781 165.269531 160.460938 164.257812 C 161.542969 162.863281 162.699219 161.527344 163.761719 160.121094 C 164.371094 159.316406 165.742188 160.0625 165.148438 160.929688 C 164.160156 162.371094 163.269531 163.871094 162.300781 165.328125 C 161.5625 166.441406 160.851562 168.050781 159.46875 168.394531 C 159.359375 168.421875 159.253906 168.421875 159.148438 168.402344 C 159.039062 168.378906 158.941406 168.335938 158.855469 168.269531 C 158.769531 168.203125 158.699219 168.121094 158.652344 168.023438 C 158.601562 167.925781 158.574219 167.824219 158.574219 167.714844 Z M 165.632812 171.605469 C 163.199219 174.761719 160.84375 177.964844 157.476562 180.183594 C 156.984375 180.507812 156.285156 179.847656 156.640625 179.351562 C 158.914062 176.183594 161.789062 173.558594 164.203125 170.503906 C 164.84375 169.695312 166.257812 170.796875 165.632812 171.605469 Z M 136.773438 212.832031 C 136.109375 213.78125 135.589844 215.0625 134.570312 215.671875 C 134.441406 215.746094 134.304688 215.785156 134.15625 215.78125 C 134.007812 215.78125 133.871094 215.746094 133.742188 215.671875 C 133.613281 215.597656 133.511719 215.496094 133.433594 215.371094 C 133.359375 215.242188 133.320312 215.105469 133.320312 214.957031 C 133.414062 213.65625 134.441406 212.617188 135.226562 211.636719 C 136.152344 210.484375 137.144531 209.394531 138.203125 208.367188 C 138.371094 208.210938 138.574219 208.132812 138.804688 208.136719 C 139.035156 208.140625 139.234375 208.226562 139.398438 208.390625 C 139.5625 208.554688 139.648438 208.75 139.652344 208.984375 C 139.65625 209.214844 139.578125 209.414062 139.417969 209.585938 C 138.464844 210.605469 137.582031 211.6875 136.773438 212.832031 Z M 138.214844 218.878906 C 138.808594 217.890625 139.335938 216.859375 139.878906 215.84375 C 140.386719 214.898438 141.742188 215.730469 141.300781 216.671875 C 140.785156 217.769531 140.261719 218.863281 139.796875 219.984375 C 139.433594 220.855469 139.125 221.652344 138.203125 221.996094 C 138.027344 222.042969 137.863281 222.023438 137.703125 221.933594 C 137.546875 221.84375 137.445312 221.710938 137.394531 221.539062 C 137.105469 220.558594 137.722656 219.695312 138.214844 218.878906 Z M 142.304688 226.9375 C 141.492188 227.949219 140.722656 228.96875 139.960938 230.015625 C 139.378906 230.96875 138.597656 231.714844 137.613281 232.246094 C 137.371094 232.375 137.136719 232.359375 136.917969 232.191406 C 136.699219 232.023438 136.625 231.804688 136.6875 231.535156 C 137.085938 230.425781 137.746094 229.5 138.664062 228.761719 C 139.609375 227.878906 140.488281 226.949219 141.375 226.007812 C 141.964844 225.378906 142.820312 226.292969 142.304688 226.9375 Z M 184.253906 104.695312 C 182.722656 107.253906 180.929688 110.449219 178.40625 112.164062 C 178.128906 112.320312 177.863281 112.296875 177.613281 112.105469 C 177.363281 111.914062 177.277344 111.664062 177.351562 111.355469 C 178.308594 108.445312 180.882812 105.867188 182.933594 103.675781 C 183.082031 103.535156 183.261719 103.457031 183.46875 103.449219 C 183.675781 103.4375 183.863281 103.496094 184.027344 103.621094 C 184.191406 103.75 184.296875 103.914062 184.339844 104.117188 C 184.382812 104.320312 184.351562 104.515625 184.253906 104.695312 Z M 186.953125 112.476562 C 186.363281 114.582031 184.59375 118.121094 181.910156 117.828125 C 181.515625 117.785156 181.128906 117.355469 181.410156 116.957031 C 182.082031 116.175781 182.847656 115.5 183.703125 114.929688 C 184.652344 114.195312 185.34375 113.269531 185.777344 112.152344 C 186.054688 111.433594 187.167969 111.707031 186.953125 112.476562 Z M 133.40625 88.40625 C 132.496094 87.390625 134.019531 85.886719 134.894531 86.914062 C 135.480469 87.605469 136.074219 88.289062 136.652344 88.984375 C 137.183594 89.6875 137.625 90.445312 137.976562 91.257812 C 138.195312 91.695312 137.722656 92.304688 137.25 91.984375 C 136.515625 91.539062 135.835938 91.019531 135.210938 90.425781 C 134.589844 89.769531 134.007812 89.078125 133.40625 88.40625 Z M 113.582031 116.898438 C 114.0625 115.421875 114.808594 114.097656 115.820312 112.921875 C 116.707031 111.636719 117.664062 110.40625 118.691406 109.230469 C 119.386719 108.46875 120.539062 109.449219 120.074219 110.296875 C 119.246094 111.738281 118.332031 113.117188 117.328125 114.441406 C 116.578125 115.675781 115.625 116.71875 114.460938 117.574219 C 114.230469 117.703125 114.011719 117.6875 113.800781 117.523438 C 113.59375 117.363281 113.519531 117.15625 113.582031 116.898438 Z M 119.585938 120.648438 C 118.851562 122.257812 118.550781 124.203125 117.019531 125.296875 C 116.910156 125.359375 116.792969 125.390625 116.667969 125.390625 C 116.542969 125.390625 116.425781 125.359375 116.316406 125.296875 C 116.207031 125.234375 116.121094 125.148438 116.054688 125.039062 C 115.992188 124.933594 115.960938 124.816406 115.957031 124.6875 C 116.101562 122.820312 117.621094 121.539062 118.617188 120.082031 C 118.695312 119.953125 118.808594 119.871094 118.957031 119.835938 C 119.105469 119.800781 119.242188 119.820312 119.375 119.898438 C 119.503906 119.972656 119.589844 120.085938 119.628906 120.230469 C 119.671875 120.375 119.65625 120.515625 119.585938 120.648438 Z M 149.789062 64.042969 C 149.839844 65.253906 149.644531 66.449219 149.640625 67.65625 C 149.640625 68.28125 148.613281 68.457031 148.519531 67.808594 C 148.347656 66.636719 147.996094 65.5 147.863281 64.320312 C 147.71875 63.027344 147.652344 61.722656 147.558594 60.425781 C 147.460938 59.148438 149.460938 59.152344 149.550781 60.425781 C 149.632812 61.628906 149.738281 62.835938 149.789062 64.042969 Z M 153.132812 67.039062 C 153.785156 69.257812 153.875 71.5 153.40625 73.761719 C 153.300781 74.265625 152.449219 74.292969 152.363281 73.761719 C 152.015625 71.589844 151.816406 69.429688 151.578125 67.25 C 151.476562 66.335938 152.910156 66.203125 153.132812 67.039062 Z M 187.351562 61.363281 C 187.144531 60.386719 187.671875 59.589844 188.070312 58.71875 C 188.53125 57.699219 188.996094 56.679688 189.460938 55.664062 C 189.96875 54.550781 191.589844 55.515625 191.097656 56.617188 C 190.667969 57.582031 190.238281 58.542969 189.808594 59.507812 C 189.433594 60.347656 189.1875 61.292969 188.347656 61.769531 C 188.257812 61.820312 188.160156 61.847656 188.054688 61.855469 C 187.949219 61.863281 187.847656 61.847656 187.753906 61.808594 C 187.65625 61.769531 187.570312 61.710938 187.5 61.632812 C 187.433594 61.554688 187.382812 61.464844 187.351562 61.363281 Z M 191 62.09375 C 191.070312 61.832031 191.160156 61.582031 191.273438 61.335938 C 191.480469 60.796875 191.6875 60.261719 191.894531 59.722656 C 191.9375 59.585938 192.007812 59.464844 192.105469 59.355469 C 192.199219 59.25 192.3125 59.164062 192.441406 59.105469 C 192.570312 59.046875 192.707031 59.015625 192.851562 59.011719 C 192.996094 59.011719 193.132812 59.035156 193.265625 59.09375 C 193.398438 59.148438 193.511719 59.226562 193.609375 59.332031 C 193.707031 59.4375 193.78125 59.554688 193.828125 59.691406 C 193.878906 59.828125 193.894531 59.964844 193.886719 60.109375 C 193.875 60.25 193.835938 60.386719 193.769531 60.511719 C 193.523438 61.035156 193.277344 61.554688 193.03125 62.078125 C 192.929688 62.328125 192.808594 62.566406 192.667969 62.796875 C 192.472656 63.015625 192.257812 63.214844 192.03125 63.398438 C 191.839844 63.582031 191.625 63.621094 191.378906 63.519531 C 191.136719 63.417969 191.011719 63.238281 191.007812 62.976562 C 190.980469 62.679688 190.976562 62.386719 191 62.09375 Z M 136.757812 39.34375 C 137.015625 38.640625 138.160156 38.488281 138.34375 39.34375 C 138.507812 40.101562 138.472656 40.882812 138.621094 41.644531 C 138.855469 42.363281 138.972656 43.097656 138.972656 43.851562 C 138.972656 43.964844 138.941406 44.070312 138.882812 44.167969 C 138.824219 44.265625 138.746094 44.339844 138.648438 44.398438 C 138.550781 44.453125 138.445312 44.484375 138.332031 44.484375 C 138.21875 44.484375 138.113281 44.457031 138.011719 44.402344 C 136.640625 43.515625 136.230469 40.796875 136.757812 39.34375 Z M 142.894531 42.03125 C 142.867188 41.441406 142.90625 40.859375 143.011719 40.277344 C 143.113281 39.695312 144.074219 39.835938 144.039062 40.417969 C 144 40.90625 144.039062 41.386719 144.160156 41.859375 C 144.285156 42.328125 144.355469 42.785156 144.441406 43.25 C 144.472656 43.375 144.457031 43.492188 144.402344 43.605469 C 144.34375 43.71875 144.257812 43.796875 144.140625 43.847656 C 144.023438 43.894531 143.90625 43.902344 143.785156 43.863281 C 143.667969 43.824219 143.574219 43.753906 143.503906 43.648438 C 143.289062 43.398438 143.128906 43.117188 143.027344 42.804688 C 142.953125 42.550781 142.910156 42.292969 142.894531 42.03125 Z M 100.234375 190.40625 C 101.347656 189.101562 102.46875 187.8125 103.640625 186.558594 C 104.625 185.507812 105.59375 184.078125 107.015625 183.640625 C 107.136719 183.609375 107.257812 183.609375 107.378906 183.640625 C 107.503906 183.675781 107.609375 183.734375 107.695312 183.824219 C 107.785156 183.914062 107.847656 184.019531 107.878906 184.140625 C 107.914062 184.261719 107.914062 184.386719 107.882812 184.507812 C 107.472656 185.929688 106.042969 186.9375 105.019531 187.9375 C 103.789062 189.132812 102.523438 190.277344 101.246094 191.417969 C 101.105469 191.546875 100.9375 191.613281 100.742188 191.609375 C 100.550781 191.605469 100.386719 191.535156 100.25 191.398438 C 100.113281 191.261719 100.042969 191.097656 100.039062 190.90625 C 100.039062 190.710938 100.101562 190.546875 100.234375 190.40625 Z M 102.742188 198.167969 C 102.246094 198.757812 101.71875 199.320312 101.160156 199.851562 C 100.429688 200.609375 99.3125 199.476562 100.011719 198.703125 C 100.503906 198.109375 101.03125 197.546875 101.589844 197.015625 C 102.179688 196.511719 102.796875 196.070312 103.371094 195.53125 C 103.476562 195.433594 103.597656 195.386719 103.742188 195.390625 C 103.886719 195.390625 104.007812 195.445312 104.109375 195.546875 C 104.210938 195.644531 104.261719 195.769531 104.265625 195.910156 C 104.269531 196.054688 104.21875 196.179688 104.121094 196.285156 C 103.621094 196.890625 103.222656 197.554688 102.742188 198.167969 Z M 102.742188 198.167969 " fill-opacity="1" fill-rule="nonzero"/></svg>