<svg xmlns="http://www.w3.org/2000/svg" xmlns:xlink="http://www.w3.org/1999/xlink" width="400" zoomAndPan="magnify" viewBox="0 0 300 299.999988" height="400" preserveAspectRatio="xMidYMid meet" version="1.0"><path fill="#a9a0f0" d="M 181.894531 66.367188 L 179.414062 67.867188 C 174.210938 71.019531 169.21875 72.839844 165.359375 76.636719 C 162.035156 79.90625 159.824219 84.613281 159.28125 92.351562 C 157.09375 93.726562 154.945312 94.925781 152.878906 96.089844 C 153.234375 91.371094 151.820312 85.796875 149.625 77.683594 L 148.867188 74.886719 L 147.046875 77.140625 C 143.230469 81.859375 139.183594 85.332031 136.652344 90 C 134.386719 86.457031 131.269531 83.464844 128.328125 79.644531 L 126.5625 77.347656 L 125.734375 80.128906 C 123.261719 88.449219 121.746094 93.910156 122.394531 98.664062 C 119.371094 96.878906 116.109375 95.1875 112.773438 93.050781 L 110.328125 91.488281 L 110.492188 94.382812 C 111.1875 106.550781 111.792969 114.070312 115.28125 119.582031 C 115.65625 120.175781 116.0625 120.734375 116.5 121.269531 C 112.371094 121.8125 108.332031 122.453125 104.394531 123.183594 C 103.582031 123.222656 102.757812 123.273438 101.902344 123.34375 C 100.167969 123.480469 95.078125 124.050781 89.894531 124.707031 C 84.710938 125.363281 79.640625 126.058594 77.574219 126.585938 C 68.929688 128.78125 62.085938 129.289062 56.800781 132.371094 C 54.15625 133.914062 51.96875 136.15625 50.402344 139.410156 C 49.691406 140.886719 49.105469 142.578125 48.625 144.507812 C 45.308594 146.898438 42.367188 149.429688 39.855469 152.089844 C 33.621094 158.707031 30 166.21875 30 174.183594 C 30 174.925781 30.042969 175.664062 30.105469 176.402344 C 30.042969 177.140625 30 177.878906 30 178.625 C 30 186.589844 33.621094 194.097656 39.855469 200.714844 C 46.09375 207.328125 54.957031 213.148438 65.804688 218.015625 C 87.496094 227.75 117.1875 233.683594 149.972656 233.683594 C 182.757812 233.683594 212.453125 227.75 234.148438 218.015625 C 244.992188 213.148438 253.851562 207.328125 260.089844 200.714844 C 266.324219 194.097656 269.945312 186.589844 269.945312 178.625 C 269.945312 177.878906 269.902344 177.140625 269.839844 176.402344 C 269.902344 175.667969 269.945312 174.929688 269.945312 174.183594 C 269.945312 166.21875 266.324219 158.707031 260.089844 152.089844 C 253.851562 145.476562 244.992188 139.660156 234.148438 134.792969 C 229.84375 132.863281 225.222656 131.082031 220.328125 129.46875 C 219.882812 127.464844 219.292969 125.804688 218.40625 124.460938 L 218.257812 124.242188 L 218.144531 124.15625 C 216.851562 121.519531 214.316406 119.34375 210.703125 117.996094 C 208.078125 117.011719 205.410156 116.5 202.78125 116.355469 C 202.460938 116.339844 202.140625 116.335938 201.820312 116.328125 C 204.101562 114.511719 206.582031 112.40625 209.378906 110.003906 L 211.574219 108.117188 L 208.761719 107.4375 C 201.117188 105.609375 194.929688 102.78125 188.097656 102.761719 C 186.855469 102.757812 185.597656 102.859375 184.324219 103.074219 C 186.480469 99.347656 188.550781 94.636719 191.09375 88.671875 L 192.230469 86.007812 L 189.402344 86.648438 C 185.15625 87.609375 181.1875 88.113281 177.441406 88.871094 C 180.296875 84.550781 180.890625 78.671875 181.660156 69.253906 Z M 180.183594 69.132812 L 180.191406 69.132812 C 179.332031 79.652344 178.601562 85.480469 175.199219 89.359375 C 172.992188 89.902344 170.863281 90.589844 168.8125 91.597656 C 166.820312 92.574219 164.9375 93.867188 163.160156 95.574219 C 162.753906 95.691406 162.347656 95.8125 161.917969 95.929688 C 161.933594 95.671875 161.945312 95.40625 161.964844 95.144531 C 162.984375 93.75 164 92.359375 165.019531 90.980469 L 171.441406 89.039062 L 165.59375 90.210938 C 167.234375 87.988281 168.875 85.804688 170.511719 83.644531 L 176.429688 80.738281 L 171.230469 82.695312 C 172.878906 80.535156 174.527344 78.398438 176.175781 76.324219 C 173.230469 79.425781 170.308594 82.882812 167.398438 86.558594 L 167.894531 80.984375 L 166.683594 87.457031 C 165.140625 89.421875 163.601562 91.460938 162.066406 93.53125 L 162.066406 93.367188 L 162.234375 90.472656 L 160.851562 91.359375 C 162.261719 76.257812 170.484375 75.011719 180.183594 69.132812 Z M 148.195312 78.070312 C 150.5625 86.816406 151.90625 92.46875 151.273438 97.007812 C 147.875 98.960938 144.730469 100.945312 142.085938 103.675781 C 141.976562 103.789062 141.875 103.914062 141.765625 104.03125 L 141.199219 104.375 C 142.039062 101.566406 142.890625 98.792969 143.75 96.042969 L 148.617188 91.015625 L 144.125 94.84375 C 144.996094 92.089844 145.871094 89.359375 146.769531 86.695312 C 144.945312 90.851562 143.269531 95.359375 141.683594 100.078125 L 140.179688 94.332031 L 141.296875 101.234375 C 140.679688 103.101562 140.078125 105.007812 139.484375 106.933594 C 138.839844 107.914062 138.253906 108.980469 137.730469 110.140625 C 131.929688 92.113281 140.171875 87.988281 148.195312 78.070312 Z M 127.15625 80.546875 C 130.40625 84.773438 133.722656 87.914062 135.882812 91.589844 C 133.855469 96.25 133.582031 102.050781 136.296875 110.535156 C 136.140625 110.992188 135.976562 111.453125 135.800781 111.929688 C 134.921875 108.675781 134.023438 105.476562 133.078125 102.371094 L 134.28125 95.941406 L 132.742188 101.277344 C 131.367188 96.828125 129.902344 92.578125 128.292969 88.648438 C 129.070312 91.160156 129.828125 93.730469 130.578125 96.328125 L 126.46875 92.644531 L 130.902344 97.457031 C 131.644531 100.050781 132.378906 102.664062 133.097656 105.308594 L 128.105469 102.125 L 133.351562 106.230469 C 133.730469 107.613281 134.101562 109.011719 134.472656 110.40625 C 133.375 108.167969 132.027344 106.300781 130.472656 104.691406 C 128.578125 102.734375 126.421875 101.164062 124.109375 99.710938 C 123.035156 95.171875 124.445312 89.667969 127.15625 80.546875 Z M 189.730469 88.089844 C 186.40625 95.886719 183.890625 101.464844 181.074219 105.375 C 174.898438 105.789062 169.339844 105.742188 164.023438 107.640625 C 163.828125 107.710938 163.632812 107.789062 163.4375 107.863281 L 163.375 107.855469 C 166.277344 105.816406 169.164062 103.8125 172.039062 101.847656 L 180.4375 100.707031 L 173.296875 100.984375 C 176.1875 99.015625 179.0625 97.082031 181.914062 95.222656 C 177.066406 97.808594 172.101562 100.835938 167.058594 104.132812 L 169.929688 97.542969 L 165.820312 104.945312 C 164.128906 106.0625 162.429688 107.210938 160.722656 108.386719 C 161.148438 105.777344 161.433594 102.792969 161.675781 99.421875 C 168.925781 89.988281 178.09375 90.730469 189.730469 88.089844 Z M 160.589844 93.285156 L 160.597656 93.285156 C 159.890625 105.601562 159.199219 112.925781 155.882812 117.980469 C 154.667969 117.636719 153.335938 117.464844 151.902344 117.484375 C 151.214844 117.496094 150.507812 117.546875 149.777344 117.644531 C 147.597656 117.933594 145.535156 118.496094 143.59375 119.257812 C 145.265625 116.886719 146.9375 114.539062 148.609375 112.222656 L 156.121094 108.304688 L 149.503906 110.984375 C 151.554688 108.15625 153.601562 105.355469 155.652344 102.644531 C 151.96875 106.71875 148.324219 111.25 144.699219 116.0625 L 145.164062 108.890625 L 143.808594 117.242188 C 143.121094 118.167969 142.433594 119.117188 141.746094 120.0625 C 140.253906 120.777344 138.84375 121.609375 137.519531 122.53125 C 137.382812 120.957031 137.191406 119.480469 136.9375 118.113281 C 139.472656 102.65625 149.289062 100.511719 160.589844 93.285156 Z M 111.972656 94.300781 C 124.273438 102.167969 134.8125 104.015625 136.117188 123.574219 C 135.359375 124.160156 134.625 124.773438 133.929688 125.410156 C 132.207031 122.980469 130.484375 120.582031 128.753906 118.261719 L 127.398438 109.90625 L 127.863281 117.078125 C 124.238281 112.265625 120.59375 107.734375 116.910156 103.660156 C 118.960938 106.375 121.007812 109.171875 123.058594 112 L 116.441406 109.320312 L 123.953125 113.238281 C 125.992188 116.0625 128.027344 118.925781 130.066406 121.828125 L 122.589844 120.140625 L 130.777344 122.835938 C 131.558594 123.949219 132.335938 125.074219 133.113281 126.191406 C 132.441406 126.851562 131.800781 127.523438 131.195312 128.210938 C 114.453125 122.511719 113.246094 116.53125 111.972656 94.300781 Z M 188.09375 104.242188 C 194.503906 104.257812 200.621094 107.011719 208.414062 108.878906 C 204.949219 111.851562 201.984375 114.347656 199.316406 116.378906 C 192.945312 116.777344 186.992188 119.128906 182.558594 121.894531 C 182.117188 121.851562 181.679688 121.8125 181.242188 121.789062 C 180.75 121.761719 180.257812 121.746094 179.765625 121.746094 C 179.21875 121.746094 178.675781 121.761719 178.132812 121.789062 C 177.941406 121.726562 177.75 121.667969 177.550781 121.601562 C 178.40625 120.496094 179.265625 119.273438 180.136719 117.941406 L 182.4375 119.15625 L 180.273438 117.734375 C 181.035156 116.566406 181.816406 115.292969 182.621094 113.945312 C 183.902344 113.757812 185.1875 113.570312 186.464844 113.386719 L 194.496094 116.082031 L 187.972656 113.171875 C 191.433594 112.6875 194.871094 112.222656 198.25 111.816406 C 193.4375 111.96875 188.382812 112.394531 183.1875 112.984375 C 183.78125 111.976562 184.394531 110.921875 185.027344 109.816406 L 186.472656 108.59375 L 185.234375 109.453125 C 185.652344 108.71875 186.058594 108.011719 186.5 107.238281 L 187.929688 104.71875 L 185.046875 105.039062 C 184.355469 105.113281 183.679688 105.167969 183.003906 105.226562 C 183.097656 105.085938 183.1875 104.929688 183.28125 104.785156 C 184.921875 104.402344 186.515625 104.234375 188.09375 104.242188 Z M 185.210938 106.507812 C 181.273438 113.457031 178.269531 118.523438 175.230469 122.074219 C 171.613281 122.59375 168.183594 123.703125 165.160156 125.097656 C 163.804688 123.308594 162.53125 121.863281 161.207031 120.800781 C 162.835938 119.921875 164.464844 119.050781 166.085938 118.1875 L 174.558594 118 L 167.4375 117.472656 C 170.523438 115.847656 173.597656 114.246094 176.632812 112.722656 C 171.53125 114.746094 166.257812 117.195312 160.882812 119.902344 L 164.472656 113.675781 L 159.996094 119.953125 C 159.871094 119.878906 159.746094 119.796875 159.617188 119.726562 L 159.378906 119.601562 L 159.242188 119.578125 C 158.65625 119.15625 158.011719 118.800781 157.320312 118.5 C 158.636719 116.402344 159.539062 114.011719 160.1875 111.1875 C 167.355469 106.554688 175.292969 107.609375 185.210938 106.507812 Z M 200.8125 117.816406 C 203.917969 117.769531 207.089844 118.230469 210.183594 119.386719 C 223.394531 124.324219 218.566406 139.953125 199.636719 143.089844 C 199.710938 142.710938 199.769531 142.328125 199.808594 141.941406 L 199.832031 141.777344 L 199.808594 141.613281 C 199.519531 139.054688 199.222656 136.835938 198.800781 134.921875 C 200.074219 135.566406 201.320312 135.839844 201.925781 135.539062 C 202.757812 135.125 202.355469 134.078125 200.792969 132.773438 C 200.207031 132.285156 198.859375 131.433594 197.496094 130.988281 C 197.320312 130.632812 197.128906 130.292969 196.921875 129.972656 C 197.433594 129.855469 197.84375 129.628906 198.035156 129.296875 C 198.457031 128.574219 197.949219 127.796875 196.652344 127.273438 C 196.296875 127.128906 195.625 126.976562 194.914062 126.976562 C 194.871094 126.976562 194.824219 126.984375 194.78125 126.984375 C 194.316406 126.492188 193.796875 126.03125 193.222656 125.597656 C 194.539062 126.015625 195.902344 125.839844 196.277344 125.199219 C 196.660156 124.550781 196.128906 123.816406 194.839844 123.277344 C 194.484375 123.128906 193.824219 122.960938 193.128906 122.929688 C 192.433594 122.898438 191.699219 123.003906 191.195312 123.40625 C 192.054688 123.09375 192.996094 123.003906 193.839844 123.269531 C 194.929688 123.625 195.5625 124.34375 195.25 124.878906 C 194.9375 125.410156 193.976562 125.519531 192.886719 125.167969 C 192.464844 125.027344 191.683594 124.683594 191.261719 123.9375 C 191.328125 124.160156 191.429688 124.351562 191.546875 124.519531 C 190.816406 124.113281 190.023438 123.746094 189.167969 123.425781 C 187.757812 122.898438 186.335938 122.507812 184.914062 122.238281 C 189.308594 119.808594 194.9375 117.90625 200.8125 117.820312 Z M 152.535156 118.980469 C 164.664062 119.320312 166.183594 135.058594 150.378906 146.0625 C 147.722656 147.914062 137.59375 153.023438 131.894531 151.261719 C 124.042969 148.839844 123.320312 143.65625 127.796875 135.574219 C 131.664062 128.589844 139.5 120.519531 149.972656 119.125 C 150.871094 119.003906 151.726562 118.957031 152.535156 118.980469 Z M 179.269531 123.257812 C 182.375 123.210938 185.546875 123.671875 188.640625 124.824219 C 202.257812 129.914062 196.710938 146.363281 176.316406 148.785156 C 174.023438 149.054688 167.609375 148.992188 162.585938 147.402344 C 165.144531 144.855469 166.902344 142.238281 167.90625 139.605469 C 168.082031 139.148438 168.230469 138.6875 168.359375 138.226562 C 168.6875 138.371094 168.984375 138.492188 169.199219 138.5625 C 171.015625 139.167969 171.992188 139.042969 171.8125 138.285156 C 171.65625 137.609375 170.371094 136.601562 168.816406 135.890625 C 168.851562 135.601562 168.871094 135.3125 168.890625 135.023438 C 169.761719 135.042969 170.519531 134.789062 170.8125 134.304688 C 171.25 133.589844 170.761719 132.800781 169.476562 132.25 C 169.296875 132.171875 169.039062 132.09375 168.734375 132.027344 C 168.5625 130.980469 168.28125 129.960938 167.882812 128.972656 L 167.824219 128.824219 L 167.730469 128.683594 C 167.152344 127.84375 166.601562 127.070312 166.066406 126.328125 C 169.964844 124.574219 174.539062 123.328125 179.269531 123.257812 Z M 118.421875 123.269531 C 121.203125 125.746094 124.996094 127.632812 130.160156 129.429688 C 129.847656 129.8125 129.546875 130.199219 129.257812 130.585938 C 124.421875 126.78125 119.882812 124.6875 114.84375 123.738281 C 116.027344 123.574219 117.21875 123.417969 118.421875 123.269531 Z M 198.742188 124.472656 C 198.40625 124.449219 198.089844 124.480469 197.816406 124.574219 C 198.695312 124.535156 199.621094 124.695312 200.40625 125.117188 C 201.414062 125.671875 201.921875 126.40625 201.539062 126.761719 C 201.160156 127.113281 200.210938 126.96875 199.203125 126.414062 C 198.808594 126.199219 198.105469 125.730469 197.800781 125.019531 C 197.957031 125.9375 198.8125 126.488281 199.441406 126.832031 C 200.664062 127.503906 202.03125 127.703125 202.496094 127.273438 C 202.957031 126.84375 202.550781 126.117188 201.375 125.371094 C 200.886719 125.058594 199.742188 124.542969 198.742188 124.472656 Z M 107.871094 124.574219 C 115.742188 124.613281 121.625 126.445312 128.398438 131.789062 C 127.6875 132.816406 127.046875 133.84375 126.488281 134.847656 C 124.589844 138.277344 123.480469 141.332031 123.546875 144.085938 C 117.085938 151.1875 110.84375 157.761719 115.183594 170.371094 C 112.691406 170.382812 95.539062 172.015625 86.316406 176.695312 C 85.152344 177.285156 86.136719 179.519531 88.382812 180.695312 C 87.785156 179.207031 86.433594 178.046875 88.59375 176.996094 C 97.460938 172.6875 111.734375 171.304688 115.660156 171.160156 C 119.433594 172.855469 124.492188 173.21875 128.457031 174.519531 C 132.113281 175.71875 136.421875 176.839844 139.890625 177.839844 C 145.046875 179.328125 149.296875 180.460938 154.507812 180.484375 C 161.210938 180.511719 166.09375 179.097656 173.007812 177.71875 C 176.050781 177.113281 178.410156 176.25 180.171875 176.503906 C 184.128906 177.070312 186.519531 180.050781 186.203125 183.457031 C 186.09375 184.664062 184.226562 184.851562 184.28125 186.246094 C 184.332031 187.511719 185.808594 188.953125 185.765625 190.367188 C 185.71875 191.945312 184.152344 194.347656 181.558594 194.15625 C 173.878906 193.589844 168.367188 192.011719 160.277344 193.242188 C 151.9375 194.515625 141.203125 199.835938 132.265625 204.550781 C 122.8125 209.535156 119.042969 210 109.261719 208.578125 C 105.691406 208.058594 100.953125 207.425781 96.195312 205.144531 C 93.859375 204.027344 91.503906 200.007812 89.242188 198.582031 C 84.574219 195.640625 80.28125 195.054688 77.308594 192.917969 C 74.5625 190.945312 74.714844 184.992188 72.484375 181.253906 C 69.972656 177.042969 64.746094 173.894531 61.816406 169.960938 C 59.089844 166.300781 58.652344 161.824219 56.386719 158.707031 C 52.894531 158.414062 49.601562 157.769531 48.824219 152.730469 C 50.785156 130.34375 60.417969 132.472656 77.9375 128.019531 C 81.472656 127.121094 98.75 125.074219 102.019531 124.816406 C 104.101562 124.652344 106.039062 124.566406 107.871094 124.574219 Z M 56.386719 158.707031 C 51.199219 150.695312 55.625 147.085938 59.0625 143.023438 C 54.972656 146.386719 50.496094 149.484375 54.460938 158.417969 Z M 162.855469 124.648438 L 162.863281 124.648438 C 162.882812 124.660156 162.882812 124.671875 162.882812 124.683594 C 162.875 124.671875 162.855469 124.660156 162.855469 124.648438 Z M 162.890625 124.6875 C 164 126.023438 165.179688 127.636719 166.484375 129.53125 C 168.609375 134.800781 167.246094 140.980469 160.84375 146.992188 L 157.109375 143.582031 L 159.96875 147.796875 C 159.433594 148.261719 158.875 148.726562 158.277344 149.191406 C 151.46875 154.484375 144.054688 158.027344 136.808594 156.722656 L 134.652344 153.359375 L 135.492188 156.433594 C 134.027344 156.050781 132.570312 155.460938 131.128906 154.632812 L 128.835938 151.65625 C 128.855469 151.667969 128.871094 151.675781 128.894531 151.6875 C 129.070312 151.773438 129.246094 151.855469 129.433594 151.9375 C 129.449219 151.945312 129.457031 151.953125 129.480469 151.960938 C 129.667969 152.042969 129.863281 152.125 130.0625 152.203125 C 130.128906 152.230469 130.199219 152.253906 130.265625 152.28125 C 130.414062 152.339844 130.5625 152.394531 130.71875 152.449219 C 130.953125 152.535156 131.195312 152.613281 131.441406 152.691406 L 131.464844 152.699219 C 131.722656 152.777344 131.984375 152.839844 132.25 152.898438 C 132.324219 152.914062 132.398438 152.929688 132.476562 152.941406 C 132.710938 152.988281 132.953125 153.023438 133.191406 153.054688 C 133.226562 153.058594 133.261719 153.058594 133.296875 153.066406 C 134.839844 153.238281 136.46875 153.089844 138.097656 152.765625 C 138.429688 152.699219 138.757812 152.625 139.085938 152.546875 L 141.277344 156.105469 L 140.027344 152.308594 C 140.066406 152.296875 140.105469 152.285156 140.148438 152.273438 C 140.574219 152.152344 140.996094 152.027344 141.414062 151.890625 C 141.875 151.742188 142.328125 151.585938 142.773438 151.425781 C 142.839844 151.402344 142.902344 151.375 142.964844 151.351562 C 143.324219 151.222656 143.679688 151.085938 144.027344 150.949219 C 144.21875 150.875 144.398438 150.796875 144.585938 150.722656 C 144.808594 150.628906 145.03125 150.539062 145.25 150.445312 C 145.4375 150.367188 145.621094 150.285156 145.808594 150.203125 C 146.019531 150.109375 146.226562 150.015625 146.429688 149.921875 C 146.605469 149.839844 146.773438 149.761719 146.941406 149.679688 C 147.074219 149.617188 147.203125 149.554688 147.332031 149.492188 C 147.929688 149.199219 148.492188 148.910156 148.996094 148.632812 C 149.019531 148.632812 149.019531 148.628906 149.019531 148.628906 C 149.027344 148.621094 149.042969 148.621094 149.042969 148.613281 C 149.582031 148.320312 150.070312 148.035156 150.484375 147.777344 L 150.484375 147.769531 L 153.566406 151.355469 L 151.535156 147.058594 C 155.113281 144.519531 157.855469 141.722656 159.796875 138.875 C 160.066406 138.484375 160.3125 138.09375 160.550781 137.703125 C 160.5625 137.6875 160.582031 137.667969 160.582031 137.652344 L 163.964844 140.746094 L 161.167969 136.613281 C 161.375 136.222656 161.566406 135.835938 161.746094 135.445312 C 161.746094 135.425781 161.769531 135.40625 161.769531 135.390625 C 161.9375 135.019531 162.09375 134.648438 162.238281 134.28125 C 162.253906 134.238281 162.265625 134.195312 162.285156 134.152344 C 162.417969 133.804688 162.539062 133.457031 162.648438 133.109375 C 162.667969 133.046875 162.683594 132.980469 162.707031 132.917969 C 162.804688 132.585938 162.898438 132.253906 162.976562 131.921875 C 162.992188 131.851562 163.003906 131.785156 163.023438 131.714844 C 163.09375 131.402344 163.160156 131.089844 163.210938 130.78125 C 163.230469 130.652344 163.242188 130.523438 163.261719 130.398438 C 163.296875 130.140625 163.332031 129.886719 163.355469 129.632812 C 163.367188 129.4375 163.386719 129.246094 163.386719 129.054688 C 163.394531 128.863281 163.417969 128.675781 163.417969 128.488281 C 163.421875 128.214844 163.410156 127.949219 163.390625 127.679688 L 163.390625 127.300781 C 163.367188 126.980469 163.328125 126.664062 163.277344 126.351562 C 163.261719 126.25 163.25 126.148438 163.230469 126.046875 C 163.21875 125.992188 163.195312 125.9375 163.195312 125.882812 C 163.160156 125.707031 163.121094 125.535156 163.078125 125.363281 C 163.078125 125.332031 163.054688 125.296875 163.054688 125.265625 C 163.003906 125.070312 162.949219 124.878906 162.890625 124.6875 Z M 194.976562 127.199219 C 195.199219 127.214844 195.414062 127.253906 195.625 127.316406 C 196.726562 127.648438 197.335938 128.402344 196.992188 129 C 196.886719 129.179688 196.71875 129.3125 196.511719 129.414062 C 196.109375 128.628906 195.597656 127.890625 194.976562 127.199219 Z M 202.535156 128.089844 C 201.824219 128.089844 201.066406 128.242188 200.53125 128.703125 C 201.425781 128.324219 202.398438 128.179688 203.25 128.429688 C 204.351562 128.761719 204.964844 129.515625 204.617188 130.113281 C 204.273438 130.707031 203.285156 130.875 202.183594 130.542969 C 201.753906 130.414062 200.972656 130.074219 200.570312 129.277344 C 200.84375 130.398438 201.789062 130.78125 202.476562 130.992188 C 203.8125 131.394531 205.238281 131.136719 205.660156 130.414062 C 206.082031 129.6875 205.574219 128.910156 204.277344 128.390625 C 203.917969 128.246094 203.25 128.089844 202.535156 128.089844 Z M 171.585938 128.363281 C 170.890625 128.332031 170.160156 128.4375 169.65625 128.835938 C 170.515625 128.527344 171.457031 128.4375 172.300781 128.703125 C 173.390625 129.058594 174.019531 129.777344 173.707031 130.308594 C 173.394531 130.84375 172.4375 130.953125 171.347656 130.601562 C 170.921875 130.460938 170.144531 130.117188 169.71875 129.367188 C 170.035156 130.410156 170.976562 130.804688 171.652344 131.023438 C 172.976562 131.457031 174.359375 131.28125 174.738281 130.632812 C 175.117188 129.984375 174.589844 129.25 173.300781 128.714844 C 172.941406 128.566406 172.285156 128.394531 171.585938 128.363281 Z M 144.679688 128.527344 C 143.777344 128.535156 142.183594 128.753906 141.503906 129.515625 C 142.261719 129.066406 143.15625 128.765625 144.046875 128.773438 C 145.199219 128.789062 145.992188 129.195312 145.824219 129.6875 C 145.652344 130.179688 144.746094 130.496094 143.597656 130.484375 C 143.148438 130.476562 142.304688 130.394531 141.703125 129.914062 C 142.273438 130.652344 143.289062 130.734375 144.003906 130.742188 C 145.398438 130.757812 146.699219 130.289062 146.90625 129.691406 C 147.113281 129.09375 146.410156 128.648438 145.019531 128.539062 C 144.925781 128.535156 144.8125 128.527344 144.679688 128.527344 Z M 138.765625 129.753906 C 138.609375 129.753906 138.445312 129.761719 138.269531 129.777344 C 137.5 129.851562 135.625 130.425781 135.113281 131.605469 C 135.726562 130.929688 136.515625 130.40625 137.386719 130.242188 C 138.511719 130.042969 139.40625 130.378906 139.382812 130.996094 C 139.359375 131.613281 138.5625 132.164062 137.4375 132.363281 C 136.996094 132.441406 136.148438 132.503906 135.421875 132.042969 C 136.191406 132.8125 137.203125 132.71875 137.90625 132.59375 C 139.277344 132.351562 140.410156 131.542969 140.441406 130.796875 C 140.472656 130.140625 139.851562 129.746094 138.765625 129.753906 Z M 149.496094 129.8125 C 149.339844 129.8125 149.175781 129.820312 149.003906 129.839844 C 148.234375 129.921875 146.355469 130.5625 145.847656 131.878906 C 146.457031 131.125 147.246094 130.539062 148.117188 130.359375 C 149.246094 130.132812 150.140625 130.507812 150.117188 131.199219 C 150.089844 131.886719 149.296875 132.503906 148.167969 132.726562 C 147.730469 132.8125 146.882812 132.882812 146.152344 132.371094 C 146.921875 133.230469 147.9375 133.121094 148.640625 132.984375 C 150.007812 132.710938 151.144531 131.8125 151.175781 130.976562 C 151.203125 130.242188 150.582031 129.804688 149.496094 129.8125 Z M 177.203125 129.90625 C 176.871094 129.882812 176.550781 129.910156 176.277344 130.007812 C 177.160156 129.96875 178.085938 130.125 178.867188 130.550781 C 179.875 131.105469 180.386719 131.839844 180.003906 132.191406 C 179.625 132.546875 178.675781 132.398438 177.667969 131.847656 C 177.273438 131.632812 176.570312 131.160156 176.265625 130.453125 C 176.417969 131.371094 177.277344 131.917969 177.902344 132.261719 C 179.128906 132.9375 180.496094 133.132812 180.957031 132.703125 C 181.421875 132.277344 181.015625 131.550781 179.839844 130.800781 C 179.351562 130.492188 178.207031 129.976562 177.203125 129.90625 Z M 218.960938 130.339844 C 219.316406 132.050781 219.601562 134.042969 219.859375 136.347656 C 219.253906 141.996094 215.144531 146.804688 206.664062 149.097656 L 204.972656 144.328125 L 205.511719 149.390625 C 204.820312 149.550781 204.109375 149.699219 203.363281 149.828125 C 200.734375 150.28125 198.132812 150.558594 195.621094 150.589844 C 196.480469 149.734375 197.210938 148.808594 197.808594 147.832031 L 198.183594 149.519531 L 198.308594 146.953125 C 198.695312 146.207031 199.007812 145.4375 199.253906 144.648438 C 203.859375 143.960938 207.75 142.578125 210.828125 140.734375 L 212.359375 145.054688 L 211.835938 140.09375 C 214.835938 138.078125 216.976562 135.617188 218.148438 132.96875 C 218.527344 132.109375 218.800781 131.226562 218.960938 130.339844 Z M 197.605469 131.230469 C 198.25 131.472656 198.855469 131.785156 199.390625 132.171875 C 200.757812 133.175781 201.308594 134.265625 200.625 134.605469 C 200.191406 134.820312 199.472656 134.710938 198.65625 134.347656 C 198.371094 133.191406 198.035156 132.148438 197.605469 131.230469 Z M 220.789062 131.964844 C 249.292969 141.605469 267.726562 156.925781 267.726562 174.179688 C 267.726562 203.363281 215.003906 227.019531 149.972656 227.019531 C 84.941406 227.019531 32.222656 203.363281 32.222656 174.179688 C 32.222656 164.5625 37.949219 155.546875 47.953125 147.777344 C 47.707031 149.261719 47.503906 150.855469 47.347656 152.601562 L 47.328125 152.777344 L 47.359375 152.957031 C 47.792969 155.777344 49.097656 157.714844 50.816406 158.761719 C 52.25 159.636719 53.832031 159.785156 55.359375 159.945312 C 57.113281 162.625 57.710938 166.925781 60.625 170.839844 C 63.832031 175.148438 68.992188 178.296875 71.207031 182.011719 C 72.136719 183.570312 72.671875 185.871094 73.269531 188.121094 C 73.867188 190.371094 74.488281 192.710938 76.445312 194.117188 C 79.863281 196.574219 84.058594 197.0625 88.453125 199.832031 C 89.25 200.335938 90.40625 201.617188 91.578125 202.953125 C 92.753906 204.289062 93.9375 205.703125 95.550781 206.476562 C 100.5625 208.878906 105.488281 209.519531 109.046875 210.039062 C 118.929688 211.472656 123.390625 210.898438 132.953125 205.855469 C 136.363281 204.058594 140.039062 202.179688 143.71875 200.480469 C 144.65625 201.039062 145.691406 201.542969 146.851562 201.96875 C 149.777344 203.042969 153.035156 202.25 156.597656 201.433594 C 160.164062 200.617188 164.023438 199.621094 167.613281 199.457031 C 171.796875 199.269531 176.003906 199.871094 179.835938 200.488281 C 183.667969 201.105469 187.070312 201.777344 190.007812 201.496094 C 193.273438 201.183594 195.5 199.238281 197.277344 197.519531 C 199.050781 195.800781 200.496094 194.308594 202.183594 193.761719 C 205.246094 192.773438 208.929688 192.644531 212.546875 192.484375 C 216.167969 192.324219 219.75 192.1875 222.738281 190.554688 C 226.132812 188.703125 228.207031 185.515625 229.308594 182.195312 C 230.410156 178.875 230.609375 175.371094 230.199219 172.445312 C 229.722656 169.054688 227.4375 167.101562 225.265625 166.007812 C 223.097656 164.914062 220.988281 164.25 219.4375 162.875 C 218.574219 162.113281 218.21875 160.449219 217.75 158.433594 C 217.511719 157.425781 217.242188 156.34375 216.542969 155.3125 C 215.847656 154.285156 214.574219 153.425781 213.089844 153.25 C 212.421875 153.167969 211.78125 153.125 211.167969 153.113281 C 206.882812 153.027344 203.941406 154.492188 201.886719 156.003906 C 200.714844 156.867188 199.796875 157.703125 199.019531 158.25 C 198.242188 158.792969 197.691406 159.035156 197.027344 159.0625 C 194.574219 159.152344 192.511719 158.382812 190.066406 157.519531 C 188.515625 156.972656 186.804688 156.402344 184.859375 156.144531 C 188.570312 155.21875 191.585938 153.839844 193.917969 152.066406 C 197.0625 152.167969 200.324219 151.867188 203.613281 151.304688 C 209.175781 150.34375 213.398438 148.476562 216.359375 145.902344 C 219.320312 143.328125 220.964844 140.027344 221.34375 136.511719 L 221.363281 136.347656 L 221.34375 136.183594 C 221.171875 134.652344 220.992188 133.257812 220.789062 131.964844 Z M 168.789062 132.398438 C 169.660156 132.789062 170.097656 133.453125 169.777344 133.976562 C 169.609375 134.253906 169.300781 134.425781 168.910156 134.503906 C 168.921875 133.792969 168.878906 133.089844 168.789062 132.398438 Z M 173.371094 132.410156 C 172.660156 132.410156 171.902344 132.5625 171.367188 133.023438 C 172.261719 132.644531 173.234375 132.496094 174.085938 132.75 C 175.1875 133.082031 175.800781 133.835938 175.453125 134.433594 C 175.109375 135.027344 174.117188 135.195312 173.015625 134.863281 C 172.589844 134.730469 171.808594 134.394531 171.40625 133.597656 C 171.679688 134.71875 172.625 135.101562 173.3125 135.308594 C 174.648438 135.714844 176.074219 135.457031 176.492188 134.734375 C 176.914062 134.007812 176.40625 133.230469 175.113281 132.710938 C 174.753906 132.566406 174.085938 132.410156 173.371094 132.410156 Z M 142.242188 132.421875 C 142.089844 132.421875 141.925781 132.425781 141.75 132.449219 C 140.980469 132.53125 139.105469 133.167969 138.59375 134.488281 C 139.207031 133.730469 139.992188 133.144531 140.863281 132.964844 C 141.992188 132.742188 142.886719 133.117188 142.863281 133.808594 C 142.839844 134.496094 142.042969 135.109375 140.917969 135.335938 C 140.476562 135.421875 139.628906 135.492188 138.898438 134.976562 C 139.667969 135.835938 140.683594 135.730469 141.386719 135.589844 C 142.757812 135.320312 143.894531 134.417969 143.921875 133.582031 C 143.949219 132.851562 143.328125 132.414062 142.242188 132.421875 Z M 181 133.523438 C 180.285156 133.523438 179.53125 133.675781 178.992188 134.136719 C 179.890625 133.757812 180.859375 133.609375 181.714844 133.863281 C 182.816406 134.195312 183.429688 134.949219 183.082031 135.542969 C 182.734375 136.140625 181.746094 136.308594 180.644531 135.976562 C 180.214844 135.84375 179.433594 135.507812 179.035156 134.710938 C 179.308594 135.832031 180.253906 136.214844 180.9375 136.421875 C 182.273438 136.828125 183.703125 136.570312 184.121094 135.847656 C 184.542969 135.121094 184.035156 134.34375 182.738281 133.824219 C 182.378906 133.675781 181.710938 133.523438 181 133.523438 Z M 137.054688 134.675781 C 136.898438 134.667969 136.734375 134.675781 136.5625 134.691406 C 135.789062 134.757812 133.902344 135.355469 133.359375 136.664062 C 133.988281 135.917969 134.789062 135.351562 135.664062 135.191406 C 136.796875 134.988281 137.683594 135.386719 137.644531 136.074219 C 137.605469 136.761719 136.796875 137.359375 135.664062 137.558594 C 135.222656 137.636719 134.371094 137.6875 133.65625 137.15625 C 134.40625 138.035156 135.421875 137.949219 136.128906 137.824219 C 137.503906 137.585938 138.660156 136.710938 138.707031 135.875 C 138.75 135.140625 138.140625 134.695312 137.054688 134.675781 Z M 146.148438 135.183594 C 144.886719 135.167969 143.386719 135.339844 142.460938 135.972656 C 143.75 135.519531 145.171875 135.296875 146.472656 135.476562 C 148.152344 135.71875 149.152344 136.417969 148.710938 137.042969 C 148.269531 137.664062 146.816406 137.914062 145.140625 137.671875 C 144.484375 137.574219 143.285156 137.300781 142.589844 136.542969 C 143.132812 137.636719 144.585938 137.941406 145.628906 138.09375 C 147.667969 138.386719 149.753906 138.011719 150.292969 137.257812 C 150.832031 136.5 149.980469 135.765625 147.992188 135.351562 C 147.578125 135.265625 146.90625 135.191406 146.148438 135.183594 Z M 197.425781 135.773438 C 197.777344 137.484375 198.0625 139.472656 198.324219 141.777344 C 197.714844 147.425781 193.605469 152.234375 185.125 154.527344 L 183.4375 149.757812 L 183.972656 154.820312 C 183.28125 154.980469 182.570312 155.128906 181.828125 155.257812 C 173.324219 156.722656 165.121094 156.355469 159.339844 151.792969 L 159.226562 150.351562 C 159.980469 149.765625 160.671875 149.171875 161.335938 148.574219 C 161.980469 148.804688 162.640625 149.003906 163.316406 149.175781 L 163.574219 153.351562 L 164.261719 149.410156 C 165.203125 149.621094 166.160156 149.789062 167.101562 149.925781 C 170.460938 150.414062 173.621094 150.46875 175.617188 150.335938 L 176.648438 154.949219 L 176.878906 150.207031 C 181.855469 149.570312 186.023438 148.121094 189.292969 146.164062 L 190.824219 150.484375 L 190.296875 145.523438 C 193.300781 143.511719 195.441406 141.046875 196.613281 138.398438 C 196.992188 137.539062 197.261719 136.660156 197.425781 135.773438 Z M 174.421875 136.132812 C 174.304688 136.132812 174.191406 136.136719 174.082031 136.148438 C 175.429688 136.355469 176.789062 136.828125 177.851562 137.601562 C 179.21875 138.605469 179.773438 139.695312 179.089844 140.035156 C 178.40625 140.375 177.011719 139.910156 175.644531 138.910156 C 175.109375 138.515625 174.179688 137.710938 173.925781 136.714844 C 173.890625 137.933594 175.027344 138.886719 175.875 139.511719 C 177.535156 140.730469 179.554688 141.382812 180.382812 140.96875 C 181.214844 140.554688 180.8125 139.511719 179.25 138.207031 C 178.441406 137.53125 176.171875 136.144531 174.421875 136.132812 Z M 168.78125 136.222656 C 169.683594 136.714844 170.308594 137.269531 170.414062 137.722656 C 170.542969 138.28125 169.679688 138.363281 168.429688 137.960938 C 168.582031 137.378906 168.699219 136.800781 168.78125 136.222656 Z M 78.414062 137.773438 C 74.386719 137.792969 70.355469 138.496094 66.328125 141.152344 C 73.511719 139.199219 80.308594 138.578125 87.8125 138.375 C 84.679688 138.160156 81.546875 137.761719 78.414062 137.773438 Z M 138.480469 138.195312 C 138.015625 138.1875 137.527344 138.214844 137.046875 138.273438 C 136.058594 138.390625 134.683594 138.628906 134.175781 139.476562 C 134.828125 138.886719 135.964844 138.675781 136.582031 138.601562 C 138.171875 138.410156 139.546875 138.601562 139.96875 139.085938 C 140.390625 139.566406 139.441406 140.109375 137.855469 140.300781 C 136.621094 140.441406 135.273438 140.269531 134.050781 139.921875 C 135.457031 140.699219 138.25 140.574219 139.292969 140.394531 C 141.175781 140.070312 141.980469 139.5 141.46875 138.914062 C 141.082031 138.476562 139.875 138.203125 138.480469 138.195312 Z M 170.164062 139.589844 C 169.449219 139.589844 168.695312 139.738281 168.160156 140.203125 C 169.054688 139.820312 170.027344 139.675781 170.878906 139.925781 C 171.980469 140.261719 172.59375 141.015625 172.246094 141.609375 C 171.898438 142.207031 170.910156 142.375 169.808594 142.039062 C 169.378906 141.910156 168.597656 141.574219 168.199219 140.777344 C 168.472656 141.898438 169.417969 142.28125 170.101562 142.488281 C 171.4375 142.894531 172.863281 142.636719 173.285156 141.910156 C 173.707031 141.1875 173.199219 140.410156 171.902344 139.886719 C 171.546875 139.742188 170.875 139.589844 170.164062 139.589844 Z M 142.792969 140.265625 C 142.636719 140.265625 142.472656 140.273438 142.300781 140.292969 C 141.53125 140.375 139.652344 141.011719 139.144531 142.332031 C 139.753906 141.574219 140.542969 140.992188 141.414062 140.808594 C 142.542969 140.585938 143.4375 140.960938 143.414062 141.648438 C 143.390625 142.339844 142.59375 142.953125 141.464844 143.179688 C 141.027344 143.265625 140.179688 143.335938 139.449219 142.820312 C 140.21875 143.679688 141.234375 143.574219 141.933594 143.433594 C 143.304688 143.164062 144.441406 142.265625 144.472656 141.425781 C 144.5 140.695312 143.878906 140.257812 142.792969 140.265625 Z M 123.8125 146.011719 C 123.871094 146.238281 123.9375 146.464844 124.011719 146.6875 C 124.058594 147.1875 124.171875 147.6875 124.363281 148.1875 L 124.441406 148.386719 L 130.144531 155.78125 L 130.402344 155.929688 C 135.230469 158.695312 140.34375 159.039062 145.226562 157.792969 C 149.363281 156.742188 153.359375 154.59375 157.160156 151.886719 C 159.144531 153.757812 161.449219 155.101562 163.941406 156.003906 C 163.785156 156.003906 163.625 155.996094 163.46875 155.996094 C 157.371094 155.925781 151.574219 156.175781 147.433594 158.957031 C 146.257812 159.75 145.453125 160.9375 145.351562 162.136719 C 145.25 163.332031 145.683594 164.230469 146.019531 164.910156 C 146.351562 165.589844 146.625 166.128906 146.6875 166.355469 C 146.6875 166.386719 146.707031 166.386719 146.707031 166.398438 L 146.707031 166.394531 C 146.785156 166.300781 146.75 166.496094 146.707031 166.398438 C 146.527344 166.609375 145.742188 167.183594 144.710938 167.734375 C 143.671875 168.289062 142.390625 168.886719 141.136719 169.542969 C 139.882812 170.195312 138.648438 170.894531 137.621094 171.804688 C 136.710938 172.605469 135.859375 173.75 135.785156 175.144531 C 133.441406 174.488281 131.070312 173.8125 128.914062 173.109375 C 124.777344 171.75 120.007812 171.292969 116.621094 169.863281 C 114.265625 162.992188 115.128906 158.3125 117.484375 154.109375 C 119.058594 151.300781 121.367188 148.703125 123.8125 146.011719 Z M 210.304688 154.953125 L 210.3125 154.953125 C 211.097656 154.9375 211.941406 154.976562 212.859375 155.085938 C 216.976562 155.578125 215.175781 161.585938 218.203125 164.261719 C 222.039062 167.65625 227.574219 167.121094 228.355469 172.707031 C 229.09375 177.972656 227.625 185.773438 221.84375 188.929688 C 216.972656 191.589844 208.4375 189.792969 201.609375 192 C 197.050781 193.472656 195.082031 199.148438 189.824219 199.652344 C 184.863281 200.128906 176.351562 197.210938 167.523438 197.609375 C 159.796875 197.957031 151.679688 201.777344 147.480469 200.230469 C 146.890625 200.015625 146.347656 199.773438 145.824219 199.527344 C 151.046875 197.214844 156.183594 195.359375 160.492188 194.703125 C 168.292969 193.515625 173.613281 195.054688 181.441406 195.628906 C 183.210938 195.761719 184.726562 194.96875 185.691406 193.933594 C 186.65625 192.898438 187.199219 191.664062 187.238281 190.410156 C 187.273438 189.171875 186.738281 188.269531 186.355469 187.550781 C 185.984375 186.855469 185.789062 186.335938 185.769531 186.226562 C 185.804688 186.1875 185.890625 186.09375 186.085938 185.941406 C 186.300781 185.769531 186.609375 185.558594 186.9375 185.199219 C 187.261719 184.839844 187.605469 184.261719 187.671875 183.589844 C 188.054688 179.421875 184.96875 175.691406 180.375 175.035156 C 177.960938 174.6875 175.632812 175.679688 172.710938 176.265625 C 165.734375 177.65625 160.996094 179.023438 154.503906 178.996094 C 149.503906 178.976562 145.433594 177.894531 140.292969 176.410156 C 139.46875 176.175781 138.523438 175.914062 137.632812 175.664062 L 137.632812 175.535156 C 137.308594 172.117188 146.089844 169.996094 148.128906 167.589844 C 150 165.378906 144.953125 162.855469 148.46875 160.492188 C 155.40625 155.832031 170.492188 158.957031 181.417969 157.914062 C 187.6875 157.3125 191.34375 161.121094 197.09375 160.910156 C 201.179688 160.761719 202.738281 155.132812 210.304688 154.953125 Z M 85.6875 157.585938 C 79.671875 157.605469 73.65625 158.300781 67.636719 160.933594 C 78.367188 158.996094 88.523438 158.382812 99.726562 158.183594 C 95.046875 157.96875 90.367188 157.570312 85.6875 157.585938 Z M 115.335938 178.792969 C 123.363281 184.921875 130.175781 191.257812 137.386719 198.460938 C 130.941406 191.285156 125.109375 183.691406 115.335938 178.792969 Z M 173.445312 181.980469 C 168.820312 181.992188 161.800781 183.878906 156.101562 184.851562 C 161.730469 184.347656 168.800781 183.105469 173.5625 183.507812 C 173.148438 183.757812 172.871094 184.300781 172.617188 184.890625 C 175.128906 184.242188 176.664062 182.136719 174.335938 182.003906 C 174.050781 181.988281 173.753906 181.980469 173.445312 181.980469 Z M 100.722656 182.308594 C 109.34375 187.832031 116.785156 193.65625 124.703125 200.308594 C 117.550781 193.625 110.957031 186.484375 100.722656 182.308594 Z M 181.675781 186.078125 L 180.976562 189.644531 C 180.027344 190.335938 178.667969 190.460938 177.390625 190.695312 C 178.476562 191.019531 179.824219 191.378906 180.679688 191.261719 C 181.601562 191.132812 182.324219 191.144531 182.496094 189.863281 C 182.679688 188.480469 182.066406 187.316406 181.675781 186.078125 Z M 163.242188 189.90625 C 156.609375 189.816406 148.164062 192.792969 143.601562 196.054688 C 150.882812 193.363281 158.304688 191.585938 165.957031 190.140625 C 165.101562 189.996094 164.191406 189.917969 163.242188 189.90625 Z M 264.878906 190.21875 C 253.09375 213.820312 206.132812 231.457031 149.980469 231.457031 C 93.835938 231.457031 46.871094 213.820312 35.085938 190.222656 C 36.441406 192.304688 38.039062 194.324219 39.867188 196.265625 C 46.101562 202.878906 54.964844 208.699219 65.8125 213.566406 C 87.507812 223.300781 117.195312 229.234375 149.980469 229.234375 C 182.769531 229.234375 212.464844 223.300781 234.15625 213.566406 C 245.003906 208.699219 253.863281 202.878906 260.097656 196.265625 C 261.925781 194.324219 263.523438 192.304688 264.878906 190.21875 Z M 264.878906 190.21875 " fill-opacity="1" fill-rule="evenodd"/></svg>