<svg xmlns="http://www.w3.org/2000/svg" xmlns:xlink="http://www.w3.org/1999/xlink" width="400" zoomAndPan="magnify" viewBox="0 0 300 299.999988" height="400" preserveAspectRatio="xMidYMid meet" version="1.0"><defs><clipPath id="be1fb4af87"><path d="M 45.539062 30 L 240.539062 30 L 240.539062 270 L 45.539062 270 Z M 45.539062 30 " clip-rule="nonzero"/></clipPath></defs><g clip-path="url(#be1fb4af87)"><path fill="#a9a0f0" d="M 154.664062 130.808594 C 154.179688 131.589844 154.054688 132.328125 154.015625 133.097656 C 153.898438 135.535156 154.324219 137.90625 154.824219 140.269531 C 155.335938 142.691406 156.050781 145.050781 156.9375 147.363281 C 158.96875 152.664062 160.808594 158.035156 162.535156 163.445312 C 163.152344 165.363281 163.433594 167.335938 163.84375 169.289062 C 164.535156 172.570312 165.347656 175.824219 165.949219 179.125 C 166.257812 180.804688 166.523438 182.488281 166.703125 184.183594 C 166.75 184.621094 166.777344 185.066406 166.601562 185.488281 C 166.523438 185.691406 166.386719 185.84375 166.144531 185.835938 C 165.902344 185.828125 165.773438 185.667969 165.710938 185.460938 C 165.667969 185.324219 165.644531 185.171875 165.644531 185.027344 C 165.613281 182.691406 165.070312 180.421875 164.671875 178.136719 C 164.1875 175.351562 163.367188 172.640625 162.910156 169.855469 C 161.980469 164.179688 159.882812 158.867188 158.054688 153.46875 C 156.863281 149.957031 155.34375 146.566406 154.378906 142.976562 C 153.910156 141.210938 153.550781 139.425781 153.25 137.628906 C 153.027344 136.289062 152.214844 135.355469 151.152344 134.597656 C 150.996094 134.484375 150.796875 134.316406 150.601562 134.488281 C 150.453125 134.613281 150.519531 134.820312 150.558594 134.988281 C 150.847656 136.3125 151.066406 137.648438 151.105469 139.003906 C 151.136719 140.21875 151.097656 141.421875 150.359375 142.472656 C 150.234375 142.648438 150.175781 142.839844 150.171875 143.050781 C 150.089844 145.855469 149.472656 148.585938 149.050781 151.34375 C 148.679688 153.785156 148.835938 156.183594 149.707031 158.554688 C 151.203125 162.613281 152.867188 166.605469 154.476562 170.617188 C 155.132812 172.253906 155.75 173.910156 156.347656 175.570312 C 157.136719 177.757812 158.027344 179.90625 159.042969 181.996094 C 160.449219 184.878906 161.707031 187.828125 163.011719 190.757812 C 164.003906 192.988281 165.144531 195.148438 166.164062 197.367188 C 167.339844 199.933594 168.386719 202.5625 169.824219 205 C 171.351562 207.585938 172.644531 210.296875 174.027344 212.957031 C 176.148438 217.039062 177.726562 221.355469 179.292969 225.667969 C 181.347656 231.3125 182.914062 237.109375 184.542969 242.882812 C 185.695312 246.964844 187.1875 250.929688 188.605469 254.921875 C 190.203125 259.414062 191.628906 263.960938 192.832031 268.574219 C 192.902344 268.859375 192.960938 269.148438 192.984375 269.4375 C 193 269.65625 192.886719 269.839844 192.652344 269.902344 C 192.425781 269.96875 192.25 269.863281 192.121094 269.683594 C 191.917969 269.417969 191.878906 269.085938 191.796875 268.777344 C 190.75 264.789062 189.539062 260.855469 188.199219 256.960938 C 187.222656 254.125 186.164062 251.316406 185.175781 248.484375 C 183.898438 244.8125 182.929688 241.050781 181.871094 237.316406 C 179.914062 230.433594 177.636719 223.660156 174.800781 217.085938 C 173.167969 213.300781 171.175781 209.695312 169.207031 206.074219 C 168.296875 204.394531 167.515625 202.648438 166.648438 200.949219 C 165.765625 199.21875 165.09375 197.398438 164.207031 195.679688 C 162.398438 192.171875 160.914062 188.519531 159.261719 184.9375 C 158.136719 182.511719 156.894531 180.128906 155.988281 177.609375 C 154.1875 172.59375 152.109375 167.691406 150.148438 162.742188 C 149.617188 161.402344 149.152344 160.039062 148.636719 158.691406 C 147.558594 155.871094 147.589844 152.988281 148.171875 150.085938 C 148.589844 148.007812 148.957031 145.925781 149.148438 143.816406 C 149.21875 143.046875 149.1875 142.308594 148.933594 141.558594 C 148.132812 139.207031 147.992188 136.78125 148.261719 134.324219 C 148.332031 133.652344 148.382812 132.976562 148.476562 132.308594 C 148.546875 131.820312 148.324219 131.460938 148.0625 131.097656 C 146.882812 129.480469 145.710938 127.859375 144.535156 126.242188 C 143 124.125 141.464844 122.003906 139.917969 119.886719 C 139.257812 118.976562 139.269531 119 138.582031 119.855469 C 135.097656 124.195312 131.902344 128.75 128.539062 133.175781 C 127.507812 134.535156 126.449219 135.875 125.328125 137.160156 C 123.027344 139.804688 121.554688 142.898438 120.375 146.152344 C 119.613281 148.253906 118.960938 150.394531 118.171875 152.484375 C 117.644531 153.886719 116.960938 155.226562 116.359375 156.601562 C 112.207031 166.125 108.398438 175.78125 105.253906 185.691406 C 102.453125 194.523438 99.722656 203.375 96.960938 212.21875 C 96.722656 212.976562 96.472656 213.730469 96.21875 214.484375 C 96.15625 214.679688 96.078125 214.871094 95.980469 215.050781 C 95.855469 215.28125 95.648438 215.398438 95.390625 215.300781 C 95.136719 215.207031 95.039062 214.984375 95.078125 214.730469 C 95.117188 214.5 95.191406 214.273438 95.261719 214.050781 C 96.570312 209.898438 97.890625 205.75 99.191406 201.597656 C 101.070312 195.589844 102.863281 189.554688 104.824219 183.570312 C 107.785156 174.535156 111.21875 165.679688 115.070312 156.984375 C 116.621094 153.488281 118.070312 149.953125 119.21875 146.296875 C 119.960938 143.933594 121.007812 141.695312 122.265625 139.554688 C 123.105469 138.128906 124.183594 136.875 125.238281 135.613281 C 127.636719 132.742188 129.835938 129.722656 132.023438 126.695312 C 133.578125 124.546875 135.222656 122.472656 136.84375 120.382812 C 137.277344 119.824219 137.707031 119.265625 138.125 118.695312 C 138.601562 118.050781 138.597656 118.042969 138.128906 117.398438 C 132.222656 109.253906 126.316406 101.109375 120.410156 92.964844 C 120.324219 92.847656 120.230469 92.742188 120.132812 92.621094 C 119.867188 92.796875 119.992188 93.015625 120.023438 93.191406 C 120.601562 96.390625 120.8125 99.613281 120.652344 102.855469 C 120.523438 105.453125 119.988281 107.984375 119.085938 110.429688 C 119.015625 110.625 118.933594 110.816406 118.820312 110.984375 C 118.683594 111.195312 118.488281 111.332031 118.222656 111.234375 C 117.953125 111.136719 117.882812 110.910156 117.933594 110.660156 C 117.996094 110.375 118.089844 110.09375 118.191406 109.820312 C 119.195312 107.019531 119.644531 104.113281 119.664062 101.160156 C 119.679688 99.167969 119.511719 97.167969 119.265625 95.179688 C 119.066406 93.570312 118.792969 91.980469 118.238281 90.449219 C 118.019531 89.835938 117.734375 89.261719 117.347656 88.734375 C 111.195312 80.257812 105.046875 71.777344 98.894531 63.300781 C 98.238281 62.394531 97.59375 61.484375 96.933594 60.582031 C 96.710938 60.28125 96.527344 59.941406 96.214844 59.726562 C 95.882812 59.878906 95.902344 60.1875 95.859375 60.425781 C 95.042969 64.65625 93.609375 68.710938 92.296875 72.796875 C 91.898438 74.039062 91.722656 75.296875 91.679688 76.609375 C 91.558594 80.371094 91.460938 84.136719 91.570312 87.902344 C 91.683594 91.867188 91.851562 95.835938 92.023438 99.800781 C 92.105469 101.6875 91.960938 103.566406 91.847656 105.441406 C 91.695312 107.933594 91.394531 110.417969 91.027344 112.890625 C 90.183594 118.566406 88.351562 123.90625 85.585938 128.929688 C 84.648438 130.632812 83.726562 132.34375 82.875 134.085938 C 82.179688 135.515625 81.230469 136.796875 80.585938 138.257812 C 79.339844 141.082031 78.046875 143.886719 76.761719 146.695312 C 75.90625 148.570312 75.074219 150.453125 74.160156 152.300781 C 71.917969 156.835938 69.894531 161.472656 67.710938 166.039062 C 65.808594 170.023438 63.765625 173.933594 61.671875 177.816406 C 58.082031 184.480469 54.105469 190.90625 49.859375 197.171875 C 48.902344 198.582031 47.910156 199.96875 46.914062 201.359375 C 46.4375 202.023438 46.101562 202.175781 45.8125 201.929688 C 45.539062 201.703125 45.605469 201.378906 46.046875 200.761719 C 49.777344 195.578125 53.25 190.21875 56.523438 184.738281 C 58.835938 180.875 60.960938 176.910156 63.070312 172.929688 C 66.167969 167.074219 68.84375 161.019531 71.671875 155.039062 C 73.5 151.179688 75.34375 147.335938 77.085938 143.441406 C 77.652344 142.179688 78.226562 140.925781 78.789062 139.660156 C 80.449219 135.917969 82.535156 132.390625 84.480469 128.796875 C 87.339844 123.511719 89.265625 117.945312 90.089844 111.988281 C 90.730469 107.34375 91.082031 102.691406 90.914062 98.003906 C 90.785156 94.417969 90.597656 90.835938 90.472656 87.253906 C 90.402344 85.164062 90.390625 83.078125 90.523438 80.988281 C 90.601562 79.726562 90.59375 78.460938 90.601562 77.195312 C 90.617188 75.296875 90.917969 73.457031 91.539062 71.65625 C 92.957031 67.539062 94.210938 63.375 95.097656 59.101562 C 95.230469 58.445312 95.050781 57.96875 94.6875 57.472656 C 92.777344 54.859375 90.886719 52.234375 88.976562 49.621094 C 88.558594 49.046875 88.179688 48.453125 87.839844 47.835938 C 87.367188 46.976562 87.101562 46.058594 87.042969 45.0625 C 86.929688 43.128906 87.949219 41.867188 89.628906 41.027344 C 90.578125 40.550781 91.523438 40.742188 92.359375 41.394531 C 93.738281 42.46875 94.925781 43.730469 95.972656 45.121094 C 96.699219 46.085938 97.394531 47.070312 98.105469 48.046875 C 98.378906 48.421875 98.65625 48.792969 98.917969 49.144531 C 99.300781 49.011719 99.351562 48.726562 99.453125 48.496094 C 100.203125 46.792969 100.820312 45.050781 101.070312 43.199219 C 101.109375 42.902344 101.164062 42.621094 101.054688 42.328125 C 100.492188 40.773438 100.394531 39.1875 100.625 37.550781 C 100.90625 35.589844 101.289062 33.664062 102.160156 31.867188 C 102.378906 31.417969 102.597656 30.960938 102.917969 30.574219 C 103.328125 30.078125 103.886719 30.035156 104.140625 30.585938 C 104.550781 31.488281 105.289062 31.808594 106.101562 32.179688 C 107.164062 32.664062 107.910156 33.578125 108.644531 34.464844 C 109.867188 35.941406 110.605469 37.667969 111.152344 39.480469 C 111.828125 41.707031 112.453125 43.945312 112.585938 46.285156 C 112.597656 46.480469 112.566406 46.734375 112.828125 46.792969 C 113.023438 46.835938 113.140625 46.648438 113.25 46.519531 C 114.175781 45.457031 115.113281 44.398438 116.011719 43.308594 C 118.03125 40.867188 120.675781 39.488281 123.703125 38.789062 C 125.054688 38.476562 126.394531 38.675781 127.691406 39.160156 C 130.117188 40.0625 131.050781 42.046875 131.433594 44.402344 C 131.53125 45.007812 131.601562 45.621094 131.511719 46.246094 C 131.445312 46.699219 131.59375 46.824219 132 46.664062 C 133.363281 46.121094 134.722656 46.332031 136.074219 46.679688 C 138.78125 47.375 140.09375 49.367188 140.789062 51.890625 C 141.121094 53.085938 140.917969 54.289062 140.742188 55.480469 C 140.703125 55.738281 140.585938 55.992188 140.6875 56.257812 C 140.925781 56.414062 141.0625 56.191406 141.234375 56.113281 C 141.367188 56.054688 141.488281 55.964844 141.613281 55.890625 C 143.941406 54.488281 145.429688 54.539062 147.632812 56.457031 C 149.691406 58.253906 150.800781 60.59375 150.515625 63.4375 C 150.402344 64.589844 149.898438 65.570312 149.257812 66.503906 C 149.058594 66.792969 148.835938 67.070312 148.632812 67.359375 C 148.441406 67.636719 148.527344 67.796875 148.859375 67.824219 C 149.535156 67.871094 150.207031 67.933594 150.882812 67.960938 C 151.621094 67.992188 152.34375 68.121094 153.054688 68.3125 C 155.671875 69.03125 157.511719 71.253906 157.734375 73.960938 C 157.878906 75.71875 157.679688 77.414062 156.941406 79.046875 C 156.207031 80.65625 155.449219 82.246094 154.582031 83.785156 C 153.257812 86.128906 152.152344 88.554688 151.582031 91.199219 C 151.378906 92.152344 151.023438 93.058594 150.683594 93.964844 C 149.75 96.449219 148.976562 98.96875 148.53125 101.59375 C 148.234375 103.332031 147.570312 104.988281 146.828125 106.59375 C 146.234375 107.875 145.636719 109.160156 144.878906 110.351562 C 144.464844 111 144.53125 111.5 144.976562 112.101562 C 147.671875 115.742188 150.339844 119.402344 153.015625 123.058594 C 153.746094 124.054688 154.476562 125.054688 155.214844 126.042969 C 155.589844 126.550781 155.601562 126.542969 156.101562 126.1875 C 156.269531 126.066406 156.4375 125.945312 156.609375 125.839844 C 159.082031 124.335938 161.414062 125.867188 162.359375 127.507812 C 162.761719 128.203125 163.191406 128.847656 163.699219 129.457031 C 164.074219 129.90625 164.457031 130.359375 164.78125 130.847656 C 165.050781 131.242188 165.378906 131.375 165.828125 131.324219 C 167.855469 131.097656 169.886719 131.222656 171.914062 131.199219 C 173.445312 131.179688 174.820312 131.664062 175.980469 132.65625 C 178.238281 134.59375 180.574219 136.421875 183.085938 138.023438 C 183.707031 138.417969 184.289062 138.886719 184.710938 139.5 C 185.046875 139.988281 185.472656 140.085938 186.011719 139.976562 C 186.734375 139.832031 187.453125 139.679688 188.179688 139.574219 C 190.1875 139.292969 191.890625 139.804688 193.199219 141.457031 C 194.09375 142.589844 195.003906 143.707031 195.851562 144.871094 C 196.167969 145.308594 196.527344 145.660156 197.019531 145.910156 C 198.238281 146.519531 199.289062 147.378906 200.363281 148.199219 C 200.714844 148.46875 201.054688 148.761719 201.433594 148.980469 C 203.578125 150.210938 205.609375 151.621094 207.730469 152.890625 C 211.492188 155.148438 214.890625 157.878906 217.480469 161.453125 C 219.242188 163.886719 220.726562 166.507812 221.363281 169.507812 C 221.59375 170.601562 221.726562 171.710938 221.816406 172.824219 C 221.996094 175.144531 222.0625 177.46875 221.972656 179.792969 C 221.734375 185.878906 221.957031 191.96875 221.808594 198.058594 C 221.726562 201.617188 221.546875 205.175781 220.773438 208.664062 C 220.492188 209.953125 220.65625 211.1875 220.992188 212.410156 C 222.132812 216.582031 223.175781 220.78125 224.535156 224.886719 C 226.394531 230.515625 228.816406 235.90625 231.503906 241.179688 C 233.492188 245.085938 235.632812 248.914062 237.710938 252.773438 C 238.417969 254.09375 239.03125 255.46875 239.933594 256.683594 C 240.132812 256.953125 240.234375 257.296875 239.863281 257.527344 C 239.550781 257.726562 239.289062 257.546875 239.109375 257.289062 C 238.734375 256.761719 238.335938 256.242188 238.039062 255.671875 C 235.5 250.792969 232.753906 246.023438 230.277344 241.109375 C 227.546875 235.691406 225.09375 230.152344 223.25 224.363281 C 221.964844 220.324219 220.917969 216.21875 219.835938 212.125 C 219.46875 210.734375 219.546875 209.320312 219.820312 207.925781 C 220.171875 206.132812 220.414062 204.328125 220.527344 202.507812 C 220.847656 197.308594 220.851562 192.101562 220.851562 186.894531 C 220.847656 182.746094 220.90625 178.597656 220.832031 174.449219 C 220.792969 172.070312 220.589844 169.675781 219.625 167.449219 C 218.0625 163.84375 215.957031 160.632812 212.921875 158.050781 C 210.832031 156.273438 208.640625 154.671875 206.292969 153.242188 C 203.65625 151.644531 200.960938 150.117188 198.578125 148.128906 C 198.421875 148 198.25 147.886719 198.011719 147.714844 C 198.039062 148.117188 198.261719 148.320312 198.417969 148.546875 C 201.847656 153.507812 205.285156 158.460938 208.710938 163.425781 C 209.894531 165.144531 211.148438 166.824219 211.925781 168.789062 C 212.128906 169.308594 212.316406 169.835938 212.425781 170.386719 C 212.492188 170.703125 212.523438 171.027344 212.449219 171.347656 C 212.402344 171.570312 212.265625 171.722656 212.035156 171.742188 C 211.800781 171.765625 211.644531 171.628906 211.5625 171.421875 C 211.519531 171.3125 211.496094 171.195312 211.480469 171.082031 C 211.195312 169.324219 210.382812 167.796875 209.40625 166.347656 C 206.808594 162.496094 204.210938 158.640625 201.488281 154.871094 C 199.417969 152.007812 197.527344 149.023438 195.472656 146.152344 C 194.550781 144.859375 193.554688 143.621094 192.585938 142.363281 C 191.496094 140.941406 190.105469 140.375 188.339844 140.589844 C 187.667969 140.675781 187.007812 140.804688 186.34375 140.929688 C 185.957031 141.003906 185.839844 141.167969 186.035156 141.535156 C 188.957031 147.027344 190.871094 152.964844 193.632812 158.527344 C 194.390625 160.933594 195.816406 162.933594 197.378906 164.867188 C 198.589844 166.363281 199.609375 167.980469 200.175781 169.84375 C 200.234375 170.039062 200.300781 170.238281 200.328125 170.4375 C 200.371094 170.730469 200.277344 170.972656 199.964844 171.054688 C 199.691406 171.128906 199.515625 170.976562 199.394531 170.753906 C 199.339844 170.648438 199.296875 170.539062 199.265625 170.425781 C 198.664062 168.410156 197.523438 166.699219 196.21875 165.09375 C 194.546875 163.042969 193.304688 160.769531 192.359375 158.300781 C 191.832031 156.929688 191.121094 155.632812 190.542969 154.28125 C 189.238281 151.253906 187.972656 148.214844 186.679688 145.183594 C 186.117188 143.855469 185.429688 142.585938 184.707031 141.339844 C 184.074219 140.25 183.242188 139.347656 182.175781 138.675781 C 179.832031 137.199219 177.65625 135.492188 175.566406 133.675781 C 174.511719 132.757812 173.300781 132.25 171.863281 132.285156 C 170.097656 132.328125 168.332031 132.289062 166.566406 132.304688 C 165.699219 132.316406 165.652344 132.386719 165.960938 133.152344 C 166.269531 133.917969 166.507812 134.707031 166.714844 135.503906 C 166.902344 136.199219 167.230469 136.808594 167.691406 137.363281 C 169.5 139.539062 170.777344 142.007812 171.71875 144.664062 C 172.121094 145.800781 172.523438 146.9375 172.917969 148.074219 C 173.066406 148.492188 173.25 148.890625 173.464844 149.277344 C 175.867188 153.632812 178.230469 158.007812 180.277344 162.539062 C 181.015625 164.175781 181.695312 165.839844 182.210938 167.5625 C 182.289062 167.8125 182.347656 168.074219 182.375 168.335938 C 182.394531 168.554688 182.277344 168.730469 182.054688 168.808594 C 181.828125 168.886719 181.648438 168.792969 181.507812 168.625 C 181.316406 168.386719 181.261719 168.089844 181.183594 167.808594 C 180.898438 166.789062 180.5 165.804688 180.101562 164.824219 C 180.023438 164.636719 179.949219 164.421875 179.804688 164.292969 C 179.5625 164.070312 179.203125 163.898438 178.925781 164.066406 C 178.636719 164.238281 178.90625 164.550781 179 164.769531 C 179.328125 165.527344 179.6875 166.265625 180.03125 167.015625 C 180.121094 167.199219 180.21875 167.382812 180.28125 167.578125 C 180.351562 167.792969 180.285156 167.996094 180.09375 168.121094 C 179.871094 168.265625 179.640625 168.222656 179.453125 168.035156 C 179.21875 167.800781 179.089844 167.5 178.945312 167.214844 C 178.203125 165.738281 177.621094 164.195312 176.988281 162.675781 C 175.46875 159.003906 174.183594 155.25 172.964844 151.46875 C 172.089844 148.753906 171.1875 146.042969 170.082031 143.410156 C 169.273438 141.476562 168.273438 139.640625 166.890625 138.046875 C 166.304688 137.363281 165.890625 136.601562 165.675781 135.722656 C 165.390625 134.550781 164.992188 133.414062 164.460938 132.324219 C 164.109375 131.605469 163.667969 130.953125 163.160156 130.335938 C 162.941406 130.066406 162.761719 129.910156 162.476562 130.261719 C 162.265625 130.519531 161.964844 130.671875 161.648438 130.75 C 160.117188 131.148438 158.589844 131.601562 156.984375 131.644531 C 156.136719 131.671875 155.339844 131.59375 154.664062 130.808594 Z M 139.097656 81.085938 C 139.980469 81.300781 140.773438 81.097656 141.539062 80.828125 C 144.644531 79.734375 147.773438 78.691406 150.640625 77.019531 C 150.945312 76.84375 151.25 76.652344 151.605469 76.601562 C 151.863281 76.5625 152.074219 76.636719 152.179688 76.898438 C 152.269531 77.125 152.183594 77.320312 152.011719 77.445312 C 151.800781 77.601562 151.554688 77.714844 151.332031 77.851562 C 150.746094 78.207031 150.085938 78.457031 149.523438 78.988281 C 150.085938 79.324219 150.617188 79.453125 151.175781 79.472656 C 151.648438 79.488281 152.121094 79.472656 152.589844 79.484375 C 152.917969 79.488281 153.296875 79.492188 153.347656 79.910156 C 153.410156 80.40625 152.972656 80.429688 152.636719 80.511719 C 152.261719 80.601562 151.875 80.601562 151.496094 80.558594 C 150.554688 80.457031 149.625 80.28125 148.796875 79.796875 C 148.335938 79.527344 147.929688 79.539062 147.464844 79.734375 C 146.734375 80.042969 145.992188 80.332031 145.25 80.617188 C 143.792969 81.175781 142.34375 81.742188 140.8125 82.070312 C 139.996094 82.246094 139.167969 82.324219 138.363281 82.082031 C 137.121094 81.710938 135.992188 81.957031 134.992188 82.710938 C 133.148438 84.109375 131.226562 85.175781 128.785156 85.042969 C 127.253906 84.957031 126.605469 84.566406 126.222656 83.050781 C 126.171875 82.851562 126.109375 82.648438 126.09375 82.445312 C 126.054688 81.957031 125.78125 81.5625 125.597656 81.132812 C 125.417969 80.710938 125.484375 80.210938 125.195312 79.789062 C 124.71875 80.050781 124.292969 80.320312 123.84375 80.523438 C 123.375 80.738281 122.882812 80.894531 122.3125 81.113281 C 129.449219 90.863281 136.527344 100.535156 143.683594 110.3125 C 144.394531 109.179688 144.894531 108.121094 145.421875 107.074219 C 146.40625 105.125 147.214844 103.109375 147.570312 100.9375 C 147.921875 98.78125 148.53125 96.695312 149.292969 94.652344 C 149.746094 93.4375 150.261719 92.246094 150.542969 90.976562 C 151.132812 88.308594 152.203125 85.835938 153.546875 83.46875 C 154.433594 81.90625 155.214844 80.292969 155.949219 78.65625 C 156.683594 77.019531 156.953125 75.320312 156.589844 73.574219 C 156.175781 71.59375 155.167969 70.058594 153.097656 69.417969 C 151.554688 68.9375 149.976562 68.902344 148.382812 68.914062 C 147.671875 68.917969 147.167969 69.164062 146.75 69.75 C 145.933594 70.898438 145.078125 72.023438 144.199219 73.128906 C 143.90625 73.496094 143.828125 73.8125 143.996094 74.25 C 144.582031 75.78125 144.109375 77.078125 143.046875 78.210938 C 142.296875 79.007812 141.386719 79.617188 140.472656 80.207031 C 140.019531 80.503906 139.558594 80.792969 139.097656 81.085938 Z M 153.15625 131.652344 C 153.53125 130.488281 154.195312 129.554688 154.574219 128.460938 C 154.847656 127.675781 154.726562 127.15625 154.269531 126.535156 C 151.015625 122.132812 147.792969 117.714844 144.558594 113.300781 C 136.84375 102.761719 129.132812 92.222656 121.417969 81.683594 C 121.054688 81.183594 120.707031 80.675781 120.179688 80.320312 C 119.882812 80.117188 119.675781 79.8125 119.539062 79.488281 C 118.898438 77.941406 117.71875 76.753906 116.808594 75.386719 C 116.613281 75.089844 116.359375 74.980469 116 74.953125 C 114.003906 74.808594 112.644531 73.433594 112.503906 71.4375 C 112.476562 71.058594 112.472656 70.671875 112.496094 70.292969 C 112.53125 69.765625 112.382812 69.324219 112.066406 68.898438 C 111.25 67.820312 110.464844 66.714844 109.667969 65.625 C 106.070312 60.710938 102.5 55.777344 98.867188 50.890625 C 97.375 48.886719 96.070312 46.746094 94.441406 44.84375 C 93.597656 43.855469 92.679688 42.945312 91.628906 42.179688 C 91.253906 41.90625 90.808594 41.769531 90.386719 42.019531 C 89.984375 42.257812 89.972656 42.707031 90.03125 43.125 C 90.238281 44.589844 90.542969 46.03125 91.335938 47.304688 C 92.070312 48.476562 92.800781 49.652344 93.617188 50.765625 C 99.402344 58.671875 105.207031 66.5625 111.003906 74.457031 C 119.585938 86.148438 128.164062 97.839844 136.746094 109.53125 C 141.949219 116.625 147.148438 123.714844 152.359375 130.804688 C 152.5625 131.082031 152.71875 131.414062 153.15625 131.652344 Z M 123.253906 64.519531 C 123.492188 64.058594 123.636719 63.773438 123.785156 63.488281 C 125.484375 60.257812 126.839844 56.867188 128.285156 53.523438 C 129.054688 51.738281 129.78125 49.941406 130.203125 48.039062 C 130.566406 46.402344 130.636719 44.773438 130.074219 43.167969 C 129.800781 42.386719 129.464844 41.601562 128.828125 41.0625 C 127.609375 40.027344 126.132812 39.539062 124.566406 39.757812 C 121.554688 40.175781 118.984375 41.511719 116.960938 43.832031 C 115.785156 45.183594 114.609375 46.539062 113.386719 47.851562 C 112.847656 48.429688 112.589844 49.0625 112.574219 49.832031 C 112.5625 50.714844 112.402344 51.582031 112.273438 52.457031 C 111.773438 55.773438 110.949219 59.023438 110.164062 62.28125 C 110.085938 62.621094 110.039062 63 109.722656 63.214844 C 109.386719 63.441406 109.519531 63.636719 109.691406 63.867188 C 110.511719 64.980469 111.328125 66.09375 112.148438 67.207031 C 112.214844 67.292969 112.28125 67.417969 112.5 67.308594 C 112.40625 65.988281 112.53125 64.652344 112.808594 63.320312 C 113.4375 60.296875 114.304688 57.332031 114.992188 54.324219 C 115.335938 52.804688 115.632812 51.28125 115.699219 49.714844 C 115.757812 48.335938 115.929688 46.957031 116.464844 45.660156 C 116.578125 45.390625 116.703125 45.121094 116.855469 44.875 C 116.992188 44.65625 117.21875 44.570312 117.46875 44.6875 C 117.6875 44.789062 117.753906 44.992188 117.710938 45.207031 C 117.65625 45.460938 117.574219 45.714844 117.476562 45.960938 C 117.074219 46.984375 116.847656 48.046875 116.808594 49.140625 C 116.742188 51.03125 116.441406 52.878906 115.992188 54.710938 C 115.242188 57.765625 114.496094 60.824219 113.757812 63.878906 C 113.59375 64.546875 113.496094 65.230469 113.476562 66.121094 C 113.863281 65.476562 114.140625 65 114.433594 64.53125 C 115.167969 63.34375 116.066406 62.304688 117.191406 61.46875 C 119.339844 59.878906 122.234375 60.859375 122.976562 63.429688 C 123.070312 63.734375 123.136719 64.042969 123.253906 64.519531 Z M 120.3125 73.019531 C 120.40625 72.839844 120.5 72.660156 120.59375 72.480469 C 121.558594 70.65625 122.710938 68.949219 123.972656 67.320312 C 124.726562 66.347656 125.691406 65.828125 126.964844 66 C 130.316406 66.453125 131.964844 69.835938 130.722656 72.578125 C 130.394531 73.304688 129.941406 73.960938 129.515625 74.628906 C 129.292969 74.976562 129.085938 75.328125 128.875 75.679688 C 129.648438 74.953125 130.292969 74.15625 130.910156 73.335938 C 132.25 71.550781 133.824219 69.945312 134.90625 67.960938 C 135.683594 66.542969 136.449219 65.121094 137.117188 63.644531 C 138.410156 60.785156 139.320312 57.816406 139.789062 54.714844 C 140.101562 52.652344 139.664062 50.789062 138.257812 49.210938 C 136.78125 47.554688 134.867188 47.230469 132.785156 47.492188 C 132.527344 47.523438 132.285156 47.664062 132.042969 47.769531 C 131.53125 48 131.207031 48.367188 131.074219 48.9375 C 130.917969 49.59375 130.691406 50.238281 130.476562 50.878906 C 129.753906 53.027344 128.71875 55.050781 127.886719 57.160156 C 127.015625 59.375 125.910156 61.492188 124.914062 63.65625 C 123.902344 65.855469 122.359375 67.738281 121.335938 69.921875 C 121.238281 70.132812 121.089844 70.324219 120.949219 70.511719 C 120.398438 71.25 120.269531 72.113281 120.3125 73.019531 Z M 108.875 62.617188 C 109.03125 62.539062 109.054688 62.386719 109.089844 62.25 C 109.566406 60.214844 110.058594 58.1875 110.507812 56.148438 C 111.003906 53.910156 111.433594 51.652344 111.574219 49.359375 C 111.832031 45.125 110.789062 41.128906 109.167969 37.269531 C 108.542969 35.78125 107.523438 34.558594 106.300781 33.511719 C 105.957031 33.222656 105.609375 32.878906 105.019531 32.921875 C 105.152344 33.75 105.039062 34.535156 104.964844 35.316406 C 104.8125 36.984375 104.605469 38.648438 104.289062 40.292969 C 104.121094 41.179688 103.671875 41.898438 102.882812 42.335938 C 102.304688 42.660156 102.074219 43.117188 101.984375 43.738281 C 101.699219 45.734375 101.070312 47.640625 100.15625 49.425781 C 99.8125 50.101562 99.910156 50.539062 100.320312 51.09375 C 103.03125 54.757812 105.71875 58.441406 108.417969 62.113281 C 108.550781 62.296875 108.628906 62.539062 108.875 62.617188 Z M 135.207031 81.074219 C 137.488281 79.054688 139.566406 76.859375 141.589844 74.605469 C 143.695312 72.257812 145.460938 69.644531 147.417969 67.183594 C 147.859375 66.632812 148.269531 66.058594 148.667969 65.476562 C 149.269531 64.601562 149.589844 63.605469 149.519531 62.558594 C 149.332031 59.855469 148.097656 57.761719 145.703125 56.40625 C 144.878906 55.933594 144.023438 55.914062 143.15625 56.25 C 142.414062 56.535156 141.742188 56.960938 141.097656 57.429688 C 140.480469 57.875 140.117188 58.449219 139.886719 59.199219 C 138.5 63.699219 136.546875 67.925781 133.640625 71.667969 C 133.546875 71.792969 133.351562 71.894531 133.46875 72.164062 C 134.40625 71.894531 135.3125 72.078125 136.199219 72.453125 C 138.183594 73.292969 139.128906 75.90625 137.847656 77.777344 C 137.042969 78.945312 136.113281 80 135.207031 81.074219 Z M 88.941406 42.929688 C 88.4375 43.238281 88.28125 43.609375 88.191406 44.015625 C 87.855469 45.5625 88.3125 46.925781 89.210938 48.164062 C 93.804688 54.496094 98.414062 60.824219 103.007812 67.160156 C 110.777344 77.875 118.539062 88.597656 126.308594 99.316406 C 133.078125 108.65625 139.835938 118 146.628906 127.320312 C 147.59375 128.640625 148.355469 130.132812 149.679688 131.171875 C 149.765625 131.238281 149.835938 131.359375 149.863281 131.464844 C 150.28125 133.042969 151.621094 133.699219 152.847656 134.550781 C 153.019531 133.839844 152.894531 133.296875 152.488281 132.753906 C 150.644531 130.277344 148.832031 127.773438 147.003906 125.285156 C 139.378906 114.898438 131.75 104.511719 124.125 94.125 C 114.390625 80.871094 104.65625 67.617188 94.925781 54.355469 C 93.433594 52.316406 91.878906 50.316406 90.589844 48.132812 C 90.167969 47.421875 89.796875 46.691406 89.554688 45.898438 C 89.269531 44.96875 89.035156 44.03125 88.941406 42.929688 Z M 120.144531 77.523438 C 120.144531 77.671875 120.136719 77.820312 120.148438 77.964844 C 120.242188 79.195312 121.222656 80.386719 122.871094 79.78125 C 123.742188 79.460938 124.480469 78.949219 125.183594 78.359375 C 127.117188 76.734375 128.3125 74.566406 129.605469 72.464844 C 130.613281 70.832031 130 68.472656 128.148438 67.46875 C 126.753906 66.714844 125.640625 66.882812 124.652344 68.125 C 123.554688 69.507812 122.566406 70.972656 121.710938 72.511719 C 120.84375 74.070312 120.34375 75.753906 120.144531 77.523438 Z M 113.605469 70.554688 C 113.605469 70.878906 113.585938 71.203125 113.609375 71.523438 C 113.664062 72.300781 114.039062 72.925781 114.609375 73.425781 C 115.335938 74.058594 116.097656 74.070312 116.832031 73.445312 C 119.019531 71.597656 120.71875 69.382812 121.785156 66.699219 C 122.191406 65.675781 122.257812 64.65625 121.9375 63.597656 C 121.429688 61.9375 119.304688 61.167969 117.925781 62.25 C 115.25 64.355469 113.746094 67.113281 113.605469 70.554688 Z M 137.371094 75.882812 C 137.410156 73.777344 134.882812 72.519531 133.328125 73.339844 C 132.132812 73.96875 131.121094 74.792969 130.296875 75.847656 C 129.605469 76.726562 128.894531 77.585938 128.183594 78.445312 C 127.101562 79.746094 126.78125 81.269531 127.257812 82.914062 C 127.527344 83.832031 127.96875 84.09375 128.902344 83.949219 C 130.183594 83.75 131.335938 83.234375 132.292969 82.371094 C 133.933594 80.894531 135.421875 79.265625 136.753906 77.5 C 137.109375 77.03125 137.398438 76.511719 137.371094 75.882812 Z M 157.292969 130.65625 C 158.417969 130.570312 159.796875 130.152344 161.183594 129.78125 C 161.628906 129.664062 161.78125 129.355469 161.742188 128.914062 C 161.71875 128.648438 161.660156 128.390625 161.527344 128.160156 C 160.652344 126.597656 158.554688 125.4375 156.5625 127.1875 C 156.089844 127.605469 155.773438 128.136719 155.566406 128.726562 C 155.109375 130.050781 155.589844 130.707031 157.292969 130.65625 Z M 103.582031 31.832031 C 103.457031 31.886719 103.382812 31.890625 103.359375 31.929688 C 103.25 32.101562 103.132812 32.277344 103.054688 32.460938 C 101.941406 35.039062 101.417969 37.722656 101.617188 40.53125 C 101.632812 40.738281 101.671875 40.941406 101.726562 41.140625 C 101.871094 41.648438 102.019531 41.6875 102.464844 41.371094 C 102.949219 41.019531 103.183594 40.511719 103.277344 39.953125 C 103.476562 38.707031 103.65625 37.457031 103.8125 36.207031 C 103.925781 35.304688 104.058594 34.402344 103.996094 33.488281 C 103.957031 32.910156 103.875 32.34375 103.582031 31.832031 Z M 137.511719 80.558594 C 139.214844 79.84375 140.75 78.886719 142.121094 77.683594 C 142.523438 77.332031 142.867188 76.925781 143.050781 76.417969 C 143.25 75.867188 143.34375 75.308594 142.980469 74.640625 C 141.171875 76.707031 139.332031 78.617188 137.511719 80.558594 Z M 119.035156 76.492188 C 119.292969 76.257812 119.3125 75.992188 119.246094 75.742188 C 119 74.800781 118.980469 73.847656 119.121094 72.738281 C 118.542969 73.253906 118.074219 73.675781 117.605469 74.097656 C 117.449219 74.238281 117.4375 74.402344 117.550781 74.570312 C 118.011719 75.230469 118.429688 75.925781 119.035156 76.492188 Z M 149.335938 134.492188 C 149.257812 136.617188 149.0625 138.75 149.851562 140.800781 C 150.316406 138.644531 149.75 136.574219 149.335938 134.492188 Z M 175.582031 155.488281 C 175.523438 155.527344 175.460938 155.566406 175.402344 155.601562 C 175.875 156.859375 176.351562 158.121094 176.828125 159.378906 C 176.859375 159.460938 176.894531 159.539062 176.9375 159.617188 C 176.988281 159.722656 177.046875 159.847656 177.179688 159.84375 C 177.34375 159.832031 177.421875 159.695312 177.484375 159.5625 C 177.554688 159.417969 177.539062 159.269531 177.472656 159.136719 C 176.878906 157.902344 176.277344 156.667969 175.582031 155.488281 Z M 179.21875 162.890625 C 178.914062 162.054688 178.609375 161.386719 178.261719 160.738281 C 178.152344 160.535156 177.996094 160.570312 177.832031 160.707031 C 177.578125 160.921875 177.523438 161.15625 177.644531 161.476562 C 177.894531 162.160156 178.394531 162.550781 179.21875 162.890625 Z M 179.21875 162.890625 " fill-opacity="1" fill-rule="nonzero"/></g><path fill="#a9a0f0" d="M 147.941406 88.710938 C 147.640625 88.699219 147.375 88.507812 147.105469 88.335938 C 146.191406 87.769531 145.523438 86.949219 144.839844 86.148438 C 144.121094 85.300781 143.445312 84.414062 142.761719 83.539062 C 142.636719 83.378906 142.527344 83.199219 142.4375 83.015625 C 142.339844 82.8125 142.378906 82.605469 142.566406 82.46875 C 142.757812 82.328125 142.976562 82.355469 143.132812 82.503906 C 143.34375 82.703125 143.527344 82.933594 143.707031 83.164062 C 144.785156 84.515625 145.828125 85.894531 147.144531 87.027344 C 147.5 87.332031 147.902344 87.574219 148.277344 87.859375 C 148.449219 87.992188 148.539062 88.179688 148.460938 88.402344 C 148.382812 88.617188 148.207031 88.710938 147.941406 88.710938 Z M 147.941406 88.710938 " fill-opacity="1" fill-rule="nonzero"/></svg>