<svg xmlns="http://www.w3.org/2000/svg" xmlns:xlink="http://www.w3.org/1999/xlink" width="400" zoomAndPan="magnify" viewBox="0 0 300 299.999988" height="400" preserveAspectRatio="xMidYMid meet" version="1.0"><defs><clipPath id="a542ab7319"><path d="M 124 30 L 253.949219 30 L 253.949219 149 L 124 149 Z M 124 30 " clip-rule="nonzero"/></clipPath><clipPath id="e9b985044d"><path d="M 46.199219 203 L 97 203 L 97 215 L 46.199219 215 Z M 46.199219 203 " clip-rule="nonzero"/></clipPath></defs><g clip-path="url(#a542ab7319)"><path fill="currentColor" d="M 207.804688 148.398438 C 207.746094 148.398438 207.683594 148.394531 207.621094 148.382812 C 206.941406 148.285156 206.46875 147.652344 206.566406 146.96875 C 207.574219 140.074219 209.199219 134.554688 211.832031 129.074219 C 214.34375 123.851562 217.710938 118.867188 221.53125 113.363281 C 227.0625 105.398438 240.832031 85.035156 249.191406 68.066406 C 252.175781 62.007812 251.257812 56.722656 248.644531 55.113281 C 246.417969 53.746094 243.226562 55.292969 240.3125 59.15625 C 235.132812 66.027344 209.585938 98.851562 205.078125 104.28125 C 203.625 106.027344 202.285156 107.289062 201.097656 108.03125 C 199.308594 109.144531 198.1875 108.847656 197.558594 108.40625 C 197.070312 108.058594 196.304688 107.1875 196.675781 105.222656 C 196.894531 104.054688 197.480469 102.648438 198.375 101.148438 C 199.3125 99.574219 200.246094 98.007812 201.175781 96.453125 C 211.613281 78.96875 221.46875 62.457031 229.445312 45.109375 C 230.800781 42.167969 231.351562 39.550781 231.042969 37.539062 C 230.800781 35.953125 230.023438 34.777344 228.796875 34.132812 C 225.839844 32.582031 220.703125 34.261719 217.765625 39.226562 C 213.214844 46.917969 208.800781 53.710938 204.128906 60.90625 C 197.710938 70.789062 191.074219 81.007812 183.910156 93.929688 C 183.054688 95.476562 182.148438 96.621094 181.214844 97.339844 C 179.757812 98.464844 178.667969 98.199219 178.152344 97.941406 C 177.089844 97.410156 176.277344 95.835938 177.476562 93.136719 C 182.238281 82.382812 185.8125 74.808594 188.683594 68.722656 C 193.386719 58.757812 196.492188 52.175781 200.453125 40.882812 C 201.132812 38.953125 201.253906 37.183594 200.804688 35.769531 C 200.429688 34.582031 199.667969 33.695312 198.605469 33.207031 C 195.9375 31.976562 191.671875 33.441406 188.675781 38.617188 C 184.527344 45.777344 171.972656 70.511719 161.378906 92.894531 C 160.5 94.753906 159.429688 96.246094 158.292969 97.210938 C 156.996094 98.316406 155.644531 98.683594 154.492188 98.253906 C 153.800781 98 152.605469 97.210938 152.335938 94.816406 C 152.152344 93.183594 152.417969 91.066406 153.121094 88.53125 C 157.078125 74.296875 159.746094 65.671875 163.695312 54.339844 C 164.976562 50.65625 163.683594 47.855469 161.835938 46.714844 C 160.09375 45.644531 158.046875 46.050781 156.347656 47.800781 C 149.46875 54.898438 146.261719 65.53125 143.15625 75.8125 C 141.609375 80.933594 140.011719 86.230469 137.988281 90.886719 C 137.285156 92.511719 133.535156 101.246094 128.828125 113.632812 C 128.421875 114.703125 127.882812 116.117188 127.34375 117.582031 C 127.101562 118.230469 126.382812 118.558594 125.738281 118.320312 C 125.09375 118.082031 124.761719 117.363281 125 116.71875 C 125.546875 115.238281 126.085938 113.820312 126.496094 112.746094 C 130.15625 103.113281 133.648438 94.625 135.699219 89.894531 C 137.664062 85.367188 139.171875 80.378906 140.765625 75.09375 C 143.957031 64.523438 147.253906 53.597656 154.554688 46.0625 C 155.828125 44.75 157.324219 43.933594 158.886719 43.703125 C 160.375 43.484375 161.847656 43.792969 163.144531 44.59375 C 164.640625 45.515625 165.765625 47.023438 166.316406 48.839844 C 166.90625 50.785156 166.8125 52.96875 166.050781 55.160156 C 162.125 66.4375 159.46875 75.027344 155.527344 89.199219 C 154.125 94.25 155.058594 95.800781 155.363281 95.917969 C 155.820312 96.085938 157.546875 95.148438 159.121094 91.828125 C 169.742188 69.390625 182.339844 44.566406 186.515625 37.363281 C 188.21875 34.421875 190.433594 32.269531 192.914062 31.144531 C 195.25 30.085938 197.640625 30.011719 199.648438 30.9375 C 201.34375 31.714844 202.601562 33.164062 203.1875 35.015625 C 203.796875 36.949219 203.667969 39.261719 202.808594 41.710938 C 198.804688 53.125 195.675781 59.753906 190.941406 69.785156 C 188.074219 75.859375 184.507812 83.417969 179.757812 94.144531 C 179.457031 94.820312 179.378906 95.292969 179.378906 95.570312 C 179.8125 95.332031 180.6875 94.59375 181.726562 92.71875 C 188.933594 79.722656 195.59375 69.464844 202.035156 59.546875 C 206.691406 52.375 211.089844 45.597656 215.617188 37.953125 C 217.289062 35.128906 219.722656 32.964844 222.472656 31.863281 C 225.128906 30.800781 227.855469 30.820312 229.953125 31.917969 C 231.886719 32.929688 233.148438 34.792969 233.511719 37.160156 C 233.898438 39.691406 233.292969 42.714844 231.714844 46.152344 C 223.679688 63.621094 213.789062 80.191406 203.320312 97.730469 C 202.390625 99.285156 201.457031 100.851562 200.519531 102.425781 C 199.265625 104.523438 199.058594 105.769531 199.070312 106.261719 C 199.632812 106.085938 201.019531 105.253906 203.15625 102.683594 C 207.652344 97.269531 233.148438 64.511719 238.320312 57.652344 C 240.230469 55.113281 242.25 53.421875 244.320312 52.625 C 246.324219 51.855469 248.324219 51.980469 249.953125 52.988281 C 251.882812 54.171875 253.167969 56.511719 253.476562 59.398438 C 253.796875 62.417969 253.089844 65.796875 251.429688 69.167969 C 242.996094 86.289062 229.144531 106.773438 223.582031 114.789062 C 215.660156 126.195312 211.082031 133.332031 209.039062 147.328125 C 208.949219 147.949219 208.414062 148.398438 207.804688 148.398438 Z M 207.804688 148.398438 " fill-opacity="1" fill-rule="nonzero"/></g><path fill="currentColor" d="M 102.527344 206.878906 C 102.457031 206.878906 102.386719 206.871094 102.316406 206.859375 C 101.636719 206.742188 101.179688 206.097656 101.296875 205.417969 C 103.128906 194.765625 106.621094 179.492188 108.496094 171.289062 C 108.96875 169.222656 109.339844 167.585938 109.574219 166.53125 C 109.6875 165.957031 110.191406 165.523438 110.796875 165.523438 C 111.488281 165.523438 112.046875 166.078125 112.046875 166.769531 L 112.046875 166.902344 L 112.015625 167.042969 C 111.78125 168.109375 111.40625 169.757812 110.929688 171.84375 C 109.058594 180.027344 105.578125 195.257812 103.757812 205.839844 C 103.652344 206.449219 103.125 206.878906 102.527344 206.878906 Z M 102.527344 206.878906 " fill-opacity="1" fill-rule="nonzero"/><path fill="currentColor" d="M 220.453125 170.039062 C 220.140625 170.039062 219.828125 169.921875 219.585938 169.6875 C 219.089844 169.210938 219.078125 168.417969 219.554688 167.921875 C 226.734375 160.488281 233.683594 151.039062 234.730469 147.289062 C 235.753906 143.605469 236.355469 140.347656 236.9375 137.195312 C 237.929688 131.816406 238.957031 126.253906 242.066406 118.351562 C 242.796875 116.507812 241.964844 115.945312 241.691406 115.761719 C 240.769531 115.136719 239.023438 115.019531 237.136719 115.449219 C 234.917969 115.953125 232.777344 117.101562 231.105469 118.691406 C 226.457031 123.089844 223.855469 127.90625 221.335938 132.5625 C 219.882812 135.253906 218.378906 138.035156 216.527344 140.613281 C 214.429688 143.53125 212.085938 145.902344 209.351562 147.867188 C 204.984375 151.007812 200.539062 150.957031 197.152344 150.5625 C 196.46875 150.484375 195.976562 149.863281 196.058594 149.179688 C 196.136719 148.496094 196.757812 148.003906 197.441406 148.082031 C 200.5625 148.445312 204.246094 148.464844 207.894531 145.839844 C 213.492188 141.816406 216.234375 136.742188 219.136719 131.375 C 221.75 126.542969 224.449219 121.550781 229.386719 116.875 C 231.378906 114.988281 233.933594 113.613281 236.582031 113.011719 C 239.195312 112.417969 241.566406 112.664062 243.089844 113.691406 C 244.84375 114.878906 245.320312 116.910156 244.390625 119.269531 C 241.367188 126.945312 240.363281 132.386719 239.390625 137.644531 C 238.800781 140.851562 238.1875 144.167969 237.132812 147.957031 C 236.367188 150.710938 233.535156 154.894531 231.292969 157.917969 C 228.382812 161.847656 224.757812 166.125 221.351562 169.65625 C 221.105469 169.910156 220.78125 170.039062 220.453125 170.039062 Z M 220.453125 170.039062 " fill-opacity="1" fill-rule="nonzero"/><path fill="currentColor" d="M 144.457031 269.988281 C 144.414062 269.988281 144.371094 269.984375 144.328125 269.980469 C 143.640625 269.910156 143.140625 269.296875 143.210938 268.613281 C 143.914062 261.769531 144.773438 255.738281 145.847656 250.175781 C 147.132812 243.519531 148.757812 237.433594 150.679688 232.078125 C 150.910156 231.429688 151.625 231.09375 152.273438 231.328125 C 152.921875 231.558594 153.261719 232.273438 153.027344 232.921875 C 149.539062 242.648438 147.210938 254.066406 145.695312 268.867188 C 145.628906 269.507812 145.089844 269.988281 144.457031 269.988281 Z M 144.457031 269.988281 " fill-opacity="1" fill-rule="nonzero"/><path fill="currentColor" d="M 53.242188 147.503906 C 52.570312 147.503906 52.015625 146.96875 51.996094 146.292969 C 51.972656 145.601562 52.515625 145.027344 53.203125 145.007812 C 68.304688 144.542969 75.179688 136.4375 82.453125 127.855469 C 85.636719 124.105469 88.925781 120.222656 92.992188 116.878906 C 97.613281 113.078125 102.636719 110.503906 108.347656 109.011719 L 108.761719 108.90625 C 112.738281 107.867188 118.746094 106.296875 126.105469 105.902344 C 126.796875 105.863281 127.382812 106.390625 127.421875 107.082031 C 127.457031 107.769531 126.929688 108.355469 126.242188 108.394531 C 119.132812 108.777344 113.503906 110.25 109.394531 111.320312 L 108.980469 111.429688 C 97.011719 114.550781 90.578125 122.136719 84.359375 129.472656 C 80.703125 133.78125 76.925781 138.238281 72.136719 141.578125 C 69.53125 143.390625 66.84375 144.742188 63.914062 145.714844 C 60.648438 146.800781 57.171875 147.382812 53.28125 147.503906 C 53.269531 147.503906 53.253906 147.503906 53.242188 147.503906 Z M 53.242188 147.503906 " fill-opacity="1" fill-rule="nonzero"/><path fill="currentColor" d="M 89.648438 170.039062 C 89.324219 170.039062 89 170.035156 88.671875 170.035156 C 87.980469 170.03125 87.425781 169.46875 87.429688 168.777344 C 87.433594 168.089844 87.992188 167.539062 88.679688 167.539062 C 88.683594 167.539062 88.683594 167.539062 88.6875 167.539062 C 97.445312 167.589844 104.757812 166.929688 110.421875 165.578125 C 115.257812 164.421875 119.054688 162.722656 121.710938 160.519531 C 126.523438 156.527344 127.109375 151.34375 127.621094 146.773438 C 127.980469 143.589844 128.320312 140.582031 130.0625 138.441406 C 132.003906 136.058594 135.3125 135.164062 140.476562 135.632812 C 140.5 135.632812 140.523438 135.632812 140.542969 135.632812 C 145.726562 135.632812 150.738281 133.207031 154.316406 128.960938 C 157.925781 124.679688 159.460938 119.273438 158.539062 114.128906 L 158.535156 114.105469 C 158.304688 112.660156 157.800781 111.308594 157.113281 110.292969 C 156.375 109.207031 155.484375 108.578125 154.46875 108.421875 C 151.832031 108.121094 149.910156 110.421875 148.050781 112.648438 C 147.632812 113.148438 147.199219 113.667969 146.769531 114.140625 C 144.183594 117.121094 140.910156 118.769531 136.765625 119.175781 C 133.214844 119.523438 129.46875 118.933594 125.84375 118.363281 C 124.238281 118.109375 122.578125 117.847656 121.003906 117.679688 C 118.417969 117.410156 116.125 119.035156 113.691406 120.757812 C 111.003906 122.660156 107.953125 124.816406 104.167969 124.355469 C 103.480469 124.273438 102.996094 123.652344 103.078125 122.964844 C 103.160156 122.28125 103.785156 121.792969 104.46875 121.878906 C 107.300781 122.222656 109.703125 120.519531 112.25 118.71875 C 114.953125 116.804688 117.746094 114.828125 121.261719 115.199219 C 122.902344 115.371094 124.597656 115.636719 126.234375 115.894531 C 133.34375 117.015625 140.0625 118.074219 144.894531 112.492188 L 144.917969 112.46875 C 145.3125 112.03125 145.710938 111.554688 146.136719 111.046875 C 148.210938 108.5625 150.789062 105.472656 154.777344 105.945312 L 154.8125 105.949219 C 156.53125 106.199219 158.042969 107.21875 159.179688 108.890625 C 160.066406 110.199219 160.714844 111.90625 161 113.699219 C 161.535156 116.695312 161.359375 119.738281 160.46875 122.742188 C 159.636719 125.558594 158.167969 128.261719 156.226562 130.566406 C 154.285156 132.871094 151.871094 134.773438 149.238281 136.074219 C 146.425781 137.460938 143.453125 138.152344 140.410156 138.128906 L 140.355469 138.128906 L 140.304688 138.125 C 134.664062 137.601562 132.863281 138.953125 132 140.015625 C 130.71875 141.585938 130.433594 144.117188 130.105469 147.050781 C 129.566406 151.839844 128.894531 157.804688 123.304688 162.4375 C 117.144531 167.550781 106.128906 170.039062 89.648438 170.039062 Z M 89.648438 170.039062 " fill-opacity="1" fill-rule="nonzero"/><g clip-path="url(#e9b985044d)"><path fill="currentColor" d="M 47.601562 214.785156 C 47.078125 214.785156 46.589844 214.453125 46.417969 213.929688 C 46.199219 213.273438 46.554688 212.566406 47.210938 212.351562 C 57.925781 208.800781 65.871094 207.933594 74.285156 207.015625 C 80.5625 206.332031 87.054688 205.625 94.867188 203.691406 C 95.535156 203.523438 96.214844 203.933594 96.378906 204.601562 C 96.546875 205.269531 96.136719 205.949219 95.46875 206.113281 C 87.492188 208.089844 80.914062 208.804688 74.558594 209.496094 C 66.277344 210.398438 58.457031 211.25 47.996094 214.71875 C 47.863281 214.765625 47.730469 214.785156 47.601562 214.785156 Z M 47.601562 214.785156 " fill-opacity="1" fill-rule="nonzero"/></g><path fill="currentColor" d="M 73.761719 237.5625 C 73.417969 237.5625 73.078125 237.421875 72.832031 237.148438 C 72.371094 236.636719 72.410156 235.847656 72.925781 235.386719 C 91.351562 218.8125 105.640625 200.011719 118.246094 183.429688 C 128.710938 169.664062 137.746094 157.777344 147.421875 149.097656 C 152.621094 144.4375 157.582031 141.101562 162.601562 138.890625 C 168.171875 136.441406 173.746094 135.394531 179.636719 135.695312 L 179.679688 135.699219 C 184.128906 136.085938 185.886719 133.246094 187.921875 129.957031 C 188.84375 128.46875 189.796875 126.929688 191.035156 125.738281 C 192.53125 124.300781 194.226562 123.582031 196.21875 123.539062 L 196.328125 123.535156 L 196.433594 123.550781 C 198.382812 123.847656 200.164062 125.285156 201.453125 127.597656 L 201.472656 127.636719 C 203.125 130.855469 203.789062 134.25 203.457031 137.734375 C 203.160156 140.804688 202.085938 143.949219 200.265625 147.082031 C 196.285156 153.925781 189.8125 158.953125 186.3125 161.339844 C 185.742188 161.726562 184.964844 161.578125 184.578125 161.011719 C 184.1875 160.441406 184.335938 159.664062 184.90625 159.277344 C 195.640625 151.957031 205.046875 140.109375 199.261719 128.796875 C 198.746094 127.871094 197.671875 126.328125 196.160156 126.039062 C 193.207031 126.164062 191.738281 128.53125 190.042969 131.273438 C 188.96875 133.007812 187.855469 134.804688 186.261719 136.152344 C 184.617188 137.546875 182.71875 138.234375 180.484375 138.234375 C 180.160156 138.234375 179.828125 138.21875 179.488281 138.1875 C 169.050781 137.660156 159.390625 141.71875 149.089844 150.957031 C 139.589844 159.476562 130.621094 171.277344 120.234375 184.9375 C 107.5625 201.613281 93.195312 220.507812 74.59375 237.242188 C 74.355469 237.457031 74.058594 237.5625 73.761719 237.5625 Z M 73.761719 237.5625 " fill-opacity="1" fill-rule="nonzero"/><path fill="currentColor" d="M 124.363281 265.964844 C 124.203125 265.964844 124.039062 265.933594 123.882812 265.871094 C 123.246094 265.605469 122.945312 264.875 123.210938 264.238281 C 127.3125 254.40625 130.945312 245.800781 133.890625 240.027344 C 136.707031 234.503906 139.148438 231.3125 141.5625 229.980469 C 143.949219 228.664062 145.894531 229.390625 147.316406 229.921875 C 147.636719 230.039062 147.9375 230.152344 148.21875 230.234375 C 156.542969 232.664062 174.523438 236.351562 183.121094 232.988281 C 184.445312 232.253906 185.585938 231.148438 186.789062 229.980469 C 188.5 228.320312 190.265625 226.605469 192.710938 225.882812 C 194.050781 225.488281 195.441406 225.445312 196.78125 225.398438 C 198.710938 225.335938 200.375 225.28125 201.515625 224.269531 C 202.335938 223.542969 202.761719 222.378906 203.210938 221.144531 C 203.660156 219.90625 204.128906 218.621094 205.050781 217.53125 L 205.132812 217.4375 L 205.230469 217.359375 C 206.660156 216.230469 208.136719 215.390625 209.4375 214.648438 C 213.050781 212.589844 215.4375 211.230469 215.34375 205.625 L 215.34375 205.558594 L 215.347656 205.488281 C 215.839844 200.179688 217.410156 195.9375 220.144531 192.527344 C 222.515625 189.566406 225.386719 187.691406 227.917969 186.035156 C 231.710938 183.554688 234.449219 181.765625 234.460938 177.585938 C 234.480469 171.585938 231.261719 167.285156 229.53125 164.972656 L 229.398438 164.800781 C 228.988281 164.246094 229.101562 163.464844 229.652344 163.054688 C 230.207031 162.640625 230.988281 162.753906 231.398438 163.304688 L 231.527344 163.476562 C 233.296875 165.839844 236.980469 170.757812 236.960938 177.59375 C 236.941406 183.117188 233.222656 185.550781 229.285156 188.125 C 224.394531 191.320312 218.855469 194.945312 217.839844 205.652344 C 217.882812 208.835938 217.203125 211.1875 215.699219 213.054688 C 214.359375 214.71875 212.570312 215.738281 210.671875 216.816406 C 209.421875 217.53125 208.132812 218.265625 206.882812 219.238281 C 206.292969 219.976562 205.933594 220.960938 205.554688 221.996094 C 205.019531 223.46875 204.464844 224.992188 203.171875 226.140625 C 201.355469 227.746094 199.074219 227.820312 196.863281 227.894531 C 195.621094 227.933594 194.449219 227.972656 193.414062 228.277344 C 191.5625 228.824219 190.089844 230.253906 188.527344 231.769531 C 187.238281 233.023438 185.902344 234.320312 184.246094 235.214844 L 184.183594 235.25 L 184.113281 235.277344 C 174.929688 238.933594 156.789062 235.332031 147.519531 232.628906 C 147.152344 232.523438 146.792969 232.386719 146.441406 232.257812 C 145.164062 231.777344 144.152344 231.402344 142.769531 232.164062 C 140.863281 233.214844 138.625 236.242188 136.113281 241.160156 C 133.207031 246.851562 129.597656 255.414062 125.515625 265.195312 C 125.316406 265.675781 124.851562 265.964844 124.363281 265.964844 Z M 124.363281 265.964844 " fill-opacity="1" fill-rule="nonzero"/><path fill="currentColor" d="M 218.464844 170.609375 C 214.3125 170.609375 209.359375 170.058594 204.21875 168.980469 C 195.980469 167.253906 188.902344 164.523438 185.289062 161.679688 C 182.726562 159.660156 181.96875 156.96875 183.09375 153.898438 C 183.332031 153.25 184.050781 152.917969 184.699219 153.15625 C 185.34375 153.394531 185.675781 154.109375 185.4375 154.757812 C 184.679688 156.828125 185.109375 158.359375 186.835938 159.714844 C 192.683594 164.320312 208.003906 168.121094 218.46875 168.121094 C 220.707031 168.121094 222.722656 167.949219 224.378906 167.570312 C 225.050781 167.417969 225.71875 167.839844 225.871094 168.511719 C 226.023438 169.183594 225.605469 169.851562 224.929688 170.007812 C 223.152344 170.410156 220.953125 170.609375 218.464844 170.609375 Z M 218.464844 170.609375 " fill-opacity="1" fill-rule="nonzero"/></svg>