<svg xmlns="http://www.w3.org/2000/svg" xmlns:xlink="http://www.w3.org/1999/xlink" width="400" zoomAndPan="magnify" viewBox="0 0 300 299.999988" height="400" preserveAspectRatio="xMidYMid meet" version="1.0"><path fill="#a9a0f0" d="M 39.359375 112.203125 C 39.363281 111.578125 39.070312 111.226562 38.886719 110.835938 C 36.574219 105.957031 34.140625 101.136719 32.136719 96.121094 C 31.515625 94.5625 30.894531 92.996094 30.5 91.359375 C 30.367188 90.816406 30.238281 90.265625 30.191406 89.710938 C 30.070312 88.199219 30.683594 87.285156 32.109375 86.777344 C 33.464844 86.292969 34.863281 86.355469 36.265625 86.464844 C 36.421875 86.476562 36.578125 86.53125 36.734375 86.550781 C 37.046875 86.589844 37.402344 86.742188 37.644531 86.46875 C 37.914062 86.167969 37.65625 85.855469 37.523438 85.582031 C 36.363281 83.207031 35.535156 80.695312 34.53125 78.253906 C 34.394531 77.921875 34.265625 77.585938 34.15625 77.242188 C 33.722656 75.863281 33.988281 75.175781 35.230469 74.433594 C 38.707031 72.363281 43.246094 72.871094 46.246094 75.667969 C 47.277344 76.628906 48.109375 77.75 48.898438 78.910156 C 51.136719 82.222656 53.152344 85.691406 55.625 88.839844 C 62.300781 97.328125 68.753906 105.988281 75.359375 114.527344 C 76.289062 115.730469 77.265625 116.898438 78.371094 117.945312 C 78.605469 118.164062 78.832031 118.394531 79.085938 118.582031 C 79.4375 118.835938 79.90625 119.25 80.257812 118.929688 C 80.707031 118.515625 80.097656 118.15625 79.878906 117.84375 C 78.117188 115.320312 76.265625 112.859375 74.546875 110.304688 C 68.882812 101.867188 62.632812 93.851562 56.804688 85.53125 C 54.394531 82.089844 52.136719 78.550781 50.105469 74.867188 C 49.371094 73.53125 48.746094 72.152344 48.546875 70.613281 C 48.34375 69.066406 48.882812 68.144531 50.34375 67.667969 C 52.117188 67.09375 53.84375 67.160156 55.605469 67.886719 C 59.722656 69.585938 63.078125 72.265625 66.09375 75.503906 C 70.183594 79.898438 73.960938 84.558594 77.816406 89.148438 C 80.519531 92.363281 83.394531 95.425781 86.269531 98.484375 C 86.375 98.597656 86.46875 98.734375 86.738281 98.742188 C 86.789062 97.445312 86.941406 96.15625 87.292969 94.894531 C 87.648438 93.613281 88.113281 92.382812 88.890625 91.296875 C 89.757812 90.078125 90.484375 89.988281 91.707031 90.847656 C 96.425781 94.152344 100.90625 97.769531 105.355469 101.425781 C 107.269531 102.996094 109.320312 104.402344 111.300781 105.890625 C 111.636719 106.140625 111.941406 106.242188 112.214844 105.835938 C 113.5625 103.816406 114.90625 101.796875 116.210938 99.835938 C 115.953125 99.371094 115.640625 99.476562 115.378906 99.46875 C 114.933594 99.453125 114.5 99.402344 114.09375 99.21875 C 113.125 98.777344 112.875 98.207031 113.25 97.195312 C 113.957031 95.28125 114.785156 93.417969 115.636719 91.5625 C 116.859375 88.914062 118.191406 86.316406 119.542969 83.726562 C 120.984375 80.96875 123.082031 78.8125 125.441406 76.863281 C 128.621094 74.230469 132.0625 71.960938 135.5625 69.789062 C 136.195312 69.394531 136.675781 68.917969 137.082031 68.304688 C 143.074219 59.226562 149.078125 50.152344 155.078125 41.082031 C 155.386719 40.613281 155.683594 40.132812 156.027344 39.695312 C 156.539062 39.054688 156.878906 39.003906 157.570312 39.414062 C 157.808594 39.554688 158.03125 39.730469 158.253906 39.898438 C 168.488281 47.515625 178.722656 55.132812 188.957031 62.753906 C 190.675781 64.03125 190.660156 64.046875 189.191406 65.636719 C 184.488281 70.710938 179.796875 75.792969 175.105469 80.875 C 174.417969 81.621094 174.433594 81.703125 175.386719 82.082031 C 177.980469 83.105469 180.339844 84.488281 182.351562 86.449219 C 183.601562 87.671875 184.605469 89.0625 185.261719 90.664062 C 187.855469 96.972656 191.300781 102.839844 194.570312 108.800781 C 196.917969 113.078125 199.234375 117.367188 201.929688 121.445312 C 205.519531 126.871094 209.601562 131.878906 214.378906 136.308594 C 219.796875 141.339844 225.988281 145.019531 233.09375 147.171875 C 242.933594 150.15625 252.867188 152.769531 262.984375 154.648438 C 264.871094 154.996094 266.773438 155.242188 268.675781 155.472656 C 269.597656 155.582031 269.9375 155.835938 269.90625 156.316406 C 269.875 156.800781 269.445312 157.078125 268.582031 157.023438 C 266.386719 156.878906 264.21875 156.511719 262.058594 156.101562 C 251.359375 154.070312 240.835938 151.351562 230.484375 147.972656 C 224.855469 146.140625 219.886719 143.109375 215.386719 139.300781 C 208.820312 133.742188 203.523438 127.113281 199.007812 119.824219 C 195.972656 114.925781 193.382812 109.777344 190.53125 104.773438 C 188.195312 100.667969 186.003906 96.492188 184.207031 92.121094 C 182.296875 87.472656 178.582031 84.90625 174.09375 83.183594 C 173.480469 82.949219 173.074219 83.054688 172.625 83.542969 C 169.921875 86.488281 167.179688 89.398438 164.460938 92.332031 C 161.902344 95.085938 159.363281 97.855469 156.8125 100.617188 C 155.238281 102.320312 153.648438 104.007812 152.09375 105.730469 C 151.296875 106.617188 151.320312 106.660156 152.152344 107.480469 C 154.691406 109.980469 157.328125 112.367188 160.199219 114.484375 C 161.300781 115.296875 161.339844 115.292969 161.914062 114.09375 C 163.058594 111.707031 163.996094 109.246094 164.621094 106.667969 C 165.128906 104.574219 165.195312 102.480469 164.894531 100.359375 C 164.828125 99.886719 164.792969 99.402344 164.820312 98.925781 C 164.839844 98.539062 165.078125 98.25 165.507812 98.230469 C 165.875 98.210938 166.105469 98.4375 166.222656 98.761719 C 166.300781 98.984375 166.328125 99.226562 166.378906 99.460938 C 167.011719 102.34375 166.734375 105.179688 165.933594 107.992188 C 165.230469 110.464844 164.230469 112.816406 163.09375 115.113281 C 162.636719 116.042969 162.644531 116.117188 163.519531 116.613281 C 164.738281 117.308594 166.015625 117.878906 167.324219 118.378906 C 168.273438 118.742188 168.550781 119.085938 168.386719 119.574219 C 168.207031 120.105469 167.695312 120.199219 166.714844 119.851562 C 163.976562 118.875 161.507812 117.410156 159.171875 115.703125 C 156.742188 113.933594 154.527344 111.914062 152.332031 109.871094 C 149.753906 107.476562 147.300781 104.9375 144.511719 102.785156 C 140.335938 99.5625 135.753906 97.195312 130.449219 96.464844 C 128.375 96.179688 126.300781 96.1875 124.25 96.652344 C 122.570312 97.027344 121.246094 97.949219 120.367188 99.445312 C 119.601562 100.75 119.636719 101.824219 120.53125 102.894531 C 123.691406 106.675781 127.15625 110.160156 130.75 113.527344 C 135.488281 117.96875 140.773438 121.726562 145.847656 125.753906 C 150.273438 129.273438 154.191406 133.328125 158.027344 137.464844 C 161.210938 140.898438 164.003906 144.664062 167.117188 148.15625 C 170.722656 152.199219 174.652344 155.882812 178.925781 159.207031 C 184.308594 163.390625 190.003906 167.105469 196.148438 170.066406 C 201.519531 172.65625 207.121094 174.699219 212.765625 176.621094 C 218.554688 178.59375 224.421875 180.351562 230.160156 182.46875 C 232.5625 183.355469 234.949219 184.285156 237.386719 185.066406 C 237.722656 185.171875 238.046875 185.347656 238.347656 185.539062 C 238.59375 185.699219 238.710938 185.96875 238.628906 186.273438 C 238.53125 186.636719 238.25 186.769531 237.90625 186.792969 C 237.496094 186.824219 237.113281 186.679688 236.742188 186.546875 C 234.894531 185.890625 233.042969 185.25 231.210938 184.554688 C 224.515625 182.003906 217.625 180.046875 210.871094 177.671875 C 205.101562 175.640625 199.339844 173.554688 193.902344 170.71875 C 186.53125 166.878906 179.710938 162.226562 173.460938 156.722656 C 168.484375 152.34375 164.203125 147.339844 160.050781 142.203125 C 159.523438 141.550781 158.972656 140.910156 158.414062 140.285156 C 157.996094 139.816406 157.980469 139.828125 157.203125 139.949219 C 157.140625 140.277344 157.394531 140.457031 157.546875 140.679688 C 158.207031 141.644531 158.695312 142.695312 159.0625 143.800781 C 159.1875 144.175781 159.289062 144.570312 159.332031 144.964844 C 159.585938 147.175781 158.492188 148.21875 156.292969 147.855469 C 155.582031 147.742188 154.875 147.589844 154.179688 147.417969 C 151.34375 146.714844 148.511719 146.011719 145.683594 145.28125 C 144.871094 145.074219 144.082031 144.785156 143.28125 144.53125 C 140.535156 143.660156 138.746094 141.804688 137.691406 139.15625 C 136.980469 137.367188 136.464844 135.519531 136.003906 133.65625 C 135.742188 132.609375 135.429688 131.5625 135.316406 130.492188 C 135.15625 128.996094 134.394531 127.796875 133.664062 126.5625 C 133.4375 126.175781 133.207031 126.167969 132.90625 126.445312 C 132.847656 126.5 132.792969 126.558594 132.738281 126.613281 C 130.875 128.339844 130.859375 128.347656 132.015625 130.621094 C 135.742188 137.929688 139.0625 145.421875 142.214844 152.992188 C 144.21875 157.796875 145.65625 162.800781 147.117188 167.789062 C 151.082031 181.335938 155.234375 194.824219 159.785156 208.191406 C 161.976562 214.625 163.648438 221.222656 165.566406 227.746094 C 166.789062 231.886719 167.945312 236.046875 169.121094 240.203125 C 169.230469 240.585938 169.335938 240.976562 169.367188 241.371094 C 169.394531 241.761719 169.191406 242.078125 168.777344 242.164062 C 168.421875 242.234375 168.140625 242.046875 167.988281 241.742188 C 167.832031 241.421875 167.722656 241.074219 167.625 240.730469 C 164.925781 231.394531 162.238281 222.058594 159.535156 212.726562 C 158.367188 208.695312 157.011719 204.722656 155.648438 200.753906 C 153.226562 193.71875 151.039062 186.613281 148.933594 179.476562 C 147.179688 173.53125 145.378906 167.601562 143.601562 161.664062 C 141.839844 155.789062 139.355469 150.195312 136.875 144.601562 C 134.894531 140.140625 132.835938 135.71875 130.628906 131.367188 C 130.519531 131.152344 130.417969 130.933594 130.300781 130.726562 C 129.855469 129.902344 129.738281 129.871094 129.117188 130.511719 C 128.589844 131.058594 128.117188 131.628906 127.277344 131.742188 C 126.929688 131.789062 126.738281 132.195312 126.511719 132.472656 C 124.621094 134.75 122.710938 137.011719 120.851562 139.3125 C 120.25 140.0625 119.585938 140.300781 118.652344 140.09375 C 117.632812 139.871094 116.628906 139.605469 115.683594 139.160156 C 109.476562 136.230469 104.5625 131.851562 100.996094 125.976562 C 100.832031 125.703125 100.691406 125.414062 100.535156 125.136719 C 100.132812 124.433594 100.207031 123.832031 100.710938 123.15625 C 102.652344 120.5625 104.535156 117.929688 106.445312 115.308594 C 106.796875 114.824219 107.160156 114.363281 107.207031 113.714844 C 107.238281 113.269531 107.554688 112.914062 107.796875 112.550781 C 108.65625 111.25 109.523438 109.953125 110.382812 108.648438 C 110.996094 107.714844 111.015625 107.679688 110.15625 107.019531 C 108.570312 105.804688 106.933594 104.652344 105.347656 103.4375 C 101.789062 100.714844 98.480469 97.683594 94.851562 95.050781 C 93.554688 94.113281 92.269531 93.164062 91.003906 92.183594 C 90.527344 91.8125 90.210938 91.890625 89.949219 92.378906 C 88.414062 95.289062 87.757812 98.292969 89.066406 101.476562 C 89.183594 101.765625 89.402344 102.019531 89.613281 102.253906 C 92.515625 105.507812 95.460938 108.71875 98.582031 111.769531 C 99.8125 112.96875 101.109375 114.097656 102.394531 115.238281 C 103.074219 115.839844 103.234375 116.253906 102.957031 116.640625 C 102.652344 117.074219 102.089844 117.039062 101.386719 116.445312 C 99.34375 114.710938 97.363281 112.910156 95.507812 110.972656 C 93.128906 108.488281 90.8125 105.949219 88.503906 103.398438 C 82.472656 96.726562 76.371094 90.117188 70.703125 83.117188 C 67.964844 79.734375 65.058594 76.480469 61.820312 73.542969 C 59.652344 71.578125 57.222656 70.089844 54.449219 69.164062 C 53.355469 68.800781 52.234375 68.851562 51.132812 69.089844 C 50.292969 69.273438 50.113281 69.578125 50.152344 70.46875 C 50.1875 71.332031 50.53125 72.097656 50.894531 72.855469 C 52.296875 75.789062 54.035156 78.523438 55.8125 81.230469 C 58.640625 85.546875 61.691406 89.707031 64.773438 93.847656 C 69.476562 100.171875 73.957031 106.648438 78.429688 113.136719 C 79.382812 114.519531 80.339844 115.898438 81.429688 117.183594 C 82.207031 118.09375 82.402344 119.28125 81.949219 119.941406 C 81.453125 120.652344 80.226562 120.832031 79.074219 120.363281 C 78.429688 120.101562 77.910156 119.671875 77.410156 119.207031 C 75.902344 117.816406 74.625 116.226562 73.382812 114.605469 C 66.640625 105.816406 59.902344 97.023438 53.183594 88.214844 C 51.484375 85.988281 50.078125 83.5625 48.523438 81.230469 C 47.792969 80.132812 47.066406 79.023438 46.242188 77.996094 C 44.546875 75.882812 42.339844 74.75 39.589844 74.738281 C 38.523438 74.738281 37.546875 75.078125 36.59375 75.511719 C 35.550781 75.984375 35.4375 76.191406 35.851562 77.253906 C 36.882812 79.898438 37.8125 82.589844 39.066406 85.140625 C 41.769531 90.632812 44.6875 96.007812 47.679688 101.34375 C 48.542969 102.878906 49.429688 104.398438 50.253906 105.953125 C 52.082031 109.410156 54.511719 112.425781 57.089844 115.332031 C 61.34375 120.121094 65.433594 125.035156 69.21875 130.203125 C 69.429688 130.492188 69.640625 130.789062 69.824219 131.09375 C 70.066406 131.496094 70.230469 131.949219 69.742188 132.257812 C 69.273438 132.558594 68.917969 132.238281 68.621094 131.875 C 68.546875 131.785156 68.476562 131.683594 68.40625 131.589844 C 64.097656 125.867188 59.484375 120.394531 54.734375 115.039062 C 51.953125 111.902344 49.765625 108.390625 47.738281 104.746094 C 45.230469 100.234375 42.710938 95.734375 40.359375 91.144531 C 39.410156 89.289062 38 88.300781 35.988281 88.03125 C 34.9375 87.890625 33.910156 87.953125 32.894531 88.207031 C 31.925781 88.453125 31.628906 88.898438 31.804688 89.863281 C 31.9375 90.570312 32.117188 91.269531 32.335938 91.953125 C 33.269531 94.894531 34.441406 97.742188 35.75 100.53125 C 38.667969 106.757812 41.585938 112.984375 44.9375 119 C 46.816406 122.375 49.046875 125.484375 51.632812 128.335938 C 54.855469 131.894531 58.097656 135.429688 61.332031 138.972656 C 61.414062 139.0625 61.503906 139.140625 61.578125 139.238281 C 61.792969 139.523438 61.839844 139.832031 61.589844 140.113281 C 61.34375 140.390625 61.019531 140.378906 60.707031 140.238281 C 60.335938 140.070312 60.0625 139.769531 59.789062 139.476562 C 58.25 137.847656 56.699219 136.234375 55.191406 134.582031 C 53.007812 132.1875 50.769531 129.84375 48.691406 127.355469 C 46.425781 124.644531 44.554688 121.671875 42.882812 118.5625 C 42.429688 117.71875 41.90625 116.902344 41.527344 116.027344 C 41 114.808594 40.046875 114.160156 38.855469 113.816406 C 37.445312 113.40625 35.996094 113.460938 34.574219 113.71875 C 33.554688 113.90625 33.371094 114.253906 33.648438 115.238281 C 34.097656 116.816406 34.554688 118.394531 35.222656 119.894531 C 37.511719 125.035156 40.363281 129.832031 43.984375 134.160156 C 47.785156 138.699219 51.8125 143.03125 55.796875 147.40625 C 57.949219 149.765625 59.839844 152.363281 61.90625 154.804688 C 65.003906 158.46875 67.871094 162.320312 71.0625 165.910156 C 73.550781 168.707031 76.34375 171.144531 79.285156 173.421875 C 81.503906 175.136719 83.609375 176.964844 85.613281 178.921875 C 87.308594 180.570312 89.175781 182.023438 91.105469 183.378906 C 97.113281 187.601562 101.054688 193.328125 103.539062 200.167969 C 105.304688 205.039062 106.433594 210.058594 107.28125 215.15625 C 108.207031 220.71875 108.859375 226.3125 109.253906 231.941406 C 109.449219 234.730469 109.605469 237.523438 109.722656 240.316406 C 109.941406 245.429688 110.113281 250.542969 110.210938 255.660156 C 110.238281 256.976562 110.382812 258.289062 110.472656 259.605469 C 110.480469 259.6875 110.5 259.765625 110.507812 259.84375 C 110.554688 260.320312 110.464844 260.742188 109.9375 260.890625 C 109.519531 261.011719 109.078125 260.671875 108.96875 260.050781 C 108.820312 259.1875 108.707031 258.304688 108.679688 257.429688 C 108.5625 254.152344 108.496094 250.878906 108.394531 247.601562 C 108.214844 241.648438 107.992188 235.699219 107.476562 229.761719 C 106.910156 223.265625 106.097656 216.804688 104.765625 210.417969 C 103.960938 206.578125 102.894531 202.816406 101.429688 199.164062 C 99.121094 193.417969 95.640625 188.601562 90.574219 184.976562 C 87.445312 182.738281 84.59375 180.179688 81.789062 177.546875 C 79.984375 175.855469 78.019531 174.328125 76.0625 172.808594 C 72.207031 169.816406 69.050781 166.164062 66.011719 162.390625 C 62.625 158.1875 59.261719 153.964844 55.863281 149.769531 C 55.085938 148.808594 54.226562 147.910156 53.375 147.007812 C 48.535156 141.894531 43.679688 136.789062 39.621094 131.015625 C 36.269531 126.242188 33.578125 121.125 32.046875 115.453125 C 31.59375 113.785156 32.042969 112.875 33.710938 112.320312 C 35.011719 111.890625 36.359375 111.742188 37.734375 111.953125 C 38.25 112.039062 38.757812 112.113281 39.359375 112.203125 Z M 120.140625 96.871094 C 121.269531 96.027344 122.46875 95.4375 123.800781 95.113281 C 126.128906 94.554688 128.46875 94.535156 130.824219 94.894531 C 136.304688 95.722656 141.078125 98.136719 145.429688 101.46875 C 146.828125 102.535156 148.132812 103.71875 149.410156 104.929688 C 150.066406 105.546875 150.085938 105.53125 150.640625 104.933594 C 153.582031 101.769531 156.523438 98.613281 159.460938 95.441406 C 165 89.457031 170.53125 83.460938 176.070312 77.476562 C 178.40625 74.949219 180.757812 72.4375 183.089844 69.914062 C 183.796875 69.148438 183.773438 69.066406 182.933594 68.449219 C 182.835938 68.378906 182.738281 68.3125 182.640625 68.242188 C 176.75 64.035156 170.863281 59.824219 164.96875 55.617188 C 161.292969 52.992188 157.609375 50.371094 153.925781 47.753906 C 153.03125 47.113281 153.023438 47.125 152.382812 48.0625 C 152.292969 48.195312 152.203125 48.328125 152.117188 48.460938 C 149.84375 51.898438 147.578125 55.339844 145.304688 58.773438 C 137.113281 71.144531 128.921875 83.519531 120.734375 95.890625 C 120.523438 96.210938 120.335938 96.546875 120.140625 96.871094 Z M 118.292969 99.648438 C 118.15625 99.816406 118.078125 99.902344 118.011719 100 C 115.054688 104.46875 112.105469 108.9375 109.136719 113.398438 C 108.785156 113.921875 108.753906 114.414062 108.972656 114.980469 C 109.40625 116.109375 109.988281 117.15625 110.738281 118.097656 C 113.019531 120.960938 115.664062 123.449219 118.671875 125.535156 C 121.074219 127.207031 123.570312 128.699219 126.363281 129.65625 C 127.105469 129.910156 127.648438 129.796875 128.179688 129.210938 C 129.40625 127.84375 130.679688 126.515625 131.929688 125.167969 C 133.125 123.875 134.328125 122.59375 135.496094 121.28125 C 136.300781 120.375 136.277344 120.351562 135.355469 119.613281 C 130.085938 115.355469 125.285156 110.613281 120.769531 105.574219 C 120.160156 104.886719 119.574219 104.175781 119.035156 103.433594 C 118.375 102.519531 118.105469 101.496094 118.375 100.367188 C 118.421875 100.179688 118.5 99.980469 118.292969 99.648438 Z M 118.808594 138.5 C 119.4375 138.550781 119.773438 138.128906 120.109375 137.730469 C 121.722656 135.800781 123.332031 133.867188 124.925781 131.921875 C 125.484375 131.238281 125.4375 131.054688 124.613281 130.710938 C 122.121094 129.6875 119.824219 128.320312 117.648438 126.753906 C 113.964844 124.101562 110.601562 121.117188 108.214844 117.179688 C 108.132812 117.046875 108.050781 116.90625 107.949219 116.785156 C 107.792969 116.601562 107.597656 116.582031 107.433594 116.761719 C 107.222656 116.996094 107.023438 117.25 106.835938 117.503906 C 105.589844 119.214844 104.351562 120.933594 103.101562 122.640625 C 101.828125 124.382812 101.808594 124.386719 102.972656 126.171875 C 104.796875 128.96875 107.042969 131.398438 109.640625 133.488281 C 112.046875 135.421875 114.566406 137.179688 117.542969 138.148438 C 117.957031 138.28125 118.386719 138.382812 118.808594 138.5 Z M 188.097656 64.277344 C 188.019531 63.890625 187.640625 63.773438 187.363281 63.566406 C 179.453125 57.660156 171.535156 51.757812 163.617188 45.855469 C 161.789062 44.496094 159.960938 43.136719 158.128906 41.78125 C 157.074219 41.003906 157.070312 41.011719 156.3125 42.144531 C 155.820312 42.875 155.328125 43.601562 154.855469 44.34375 C 153.878906 45.867188 153.621094 45.578125 155.308594 46.78125 C 162.632812 52.003906 169.953125 57.226562 177.277344 62.453125 C 179.558594 64.078125 181.828125 65.707031 184.113281 67.328125 C 184.90625 67.890625 184.925781 67.894531 185.601562 67.1875 C 186.347656 66.40625 187.0625 65.597656 187.789062 64.800781 C 187.921875 64.652344 188.078125 64.519531 188.097656 64.277344 Z M 137.140625 130.652344 C 137.066406 130.691406 136.992188 130.734375 136.917969 130.773438 C 137.652344 133.835938 138.304688 136.921875 139.777344 139.757812 C 140.429688 141.007812 141.359375 141.960938 142.65625 142.527344 C 143.242188 142.785156 143.824219 143.0625 144.433594 143.238281 C 148.386719 144.394531 152.378906 145.402344 156.410156 146.234375 C 157.605469 146.484375 157.992188 146.089844 157.707031 144.902344 C 157.246094 142.992188 156.335938 141.332031 154.816406 140.035156 C 154.285156 139.585938 153.71875 139.285156 153.003906 139.207031 C 151.257812 139.019531 149.519531 138.71875 147.769531 138.570312 C 144.582031 138.300781 141.902344 137.082031 139.894531 134.542969 C 139.277344 133.761719 138.714844 132.933594 138.132812 132.121094 C 137.792969 131.636719 137.46875 131.140625 137.140625 130.652344 Z M 133.996094 72.894531 C 133.675781 72.734375 133.523438 72.890625 133.367188 72.996094 C 130.613281 74.847656 127.929688 76.796875 125.425781 78.984375 C 123.507812 80.65625 121.945312 82.589844 120.742188 84.851562 C 119.175781 87.78125 117.75 90.773438 116.386719 93.800781 C 115.914062 94.859375 115.46875 95.929688 115.058594 97.011719 C 114.78125 97.746094 114.996094 97.988281 115.773438 97.828125 C 117.164062 97.539062 118.234375 96.832031 119.042969 95.605469 C 123.5625 88.71875 128.125 81.859375 132.667969 74.992188 C 133.121094 74.304688 133.550781 73.597656 133.996094 72.894531 Z M 153.089844 134.828125 C 152.886719 134.238281 152.535156 134.019531 152.261719 133.742188 C 150.617188 132.054688 148.910156 130.433594 147.136719 128.882812 C 144.28125 126.382812 141.1875 124.183594 138.199219 121.851562 C 137.78125 121.527344 137.433594 121.519531 137.0625 121.9375 C 136.425781 122.652344 135.777344 123.355469 135.105469 124.039062 C 134.675781 124.472656 134.667969 124.914062 134.855469 125.457031 C 135.242188 126.558594 135.921875 127.425781 136.902344 128.03125 C 139.417969 129.582031 141.964844 131.074219 144.785156 132.027344 C 147.128906 132.816406 149.46875 133.625 151.808594 134.421875 C 152.179688 134.550781 152.558594 134.660156 153.089844 134.828125 Z M 139.738281 131.804688 C 141.535156 134.316406 143.476562 136.351562 146.59375 136.773438 C 148.609375 137.042969 150.632812 137.28125 152.652344 137.53125 C 153.769531 137.671875 154.886719 137.804688 156.007812 137.9375 C 155.460938 137.277344 154.722656 137.101562 154.023438 136.84375 C 149.382812 135.140625 144.546875 133.960938 140.089844 131.753906 C 140.066406 131.742188 140.019531 131.761719 139.738281 131.804688 Z M 139.738281 131.804688 " fill-opacity="1" fill-rule="nonzero"/><path fill="#dde0fc" d="M 110.453125 143.777344 C 109.566406 150.902344 101.457031 155.988281 97.261719 154.269531 C 93.925781 152.898438 93.417969 147.375 92.863281 141.308594 C 92.433594 136.601562 92.035156 132.253906 94.636719 130.433594 C 97.40625 128.496094 101.777344 130.652344 102.738281 131.128906 C 106.691406 133.074219 111.183594 137.894531 110.453125 143.777344 Z M 110.453125 143.777344 " fill-opacity="1" fill-rule="nonzero"/></svg>