<svg width="141" height="138" viewBox="0 0 141 138" fill="none" xmlns="http://www.w3.org/2000/svg">
<path d="M117.573 87.5916C118.149 86.6515 119.253 86.3497 119.999 85.5832C120.607 84.9558 120.745 84.4271 120.4 83.6596C120.018 82.8122 119.679 81.9422 119.38 81.0622C119.17 80.4418 118.951 79.9436 118.158 79.9505C117.711 79.9505 117.635 79.5165 117.503 79.1702C116.779 77.2821 116.174 75.3437 115.15 73.5809C115.429 73.2446 115.169 72.9388 115.095 72.6221C114.963 72.3193 114.718 72.0736 114.645 71.7392C114.492 71.3679 114.293 71.0173 114.052 70.6955C112.537 68.5362 110.808 66.6027 108.413 65.3736C107.797 65.0569 107.192 64.692 106.448 64.8606C105.943 65.0905 105.855 65.6064 105.631 66.0335C104.154 68.8943 102.476 71.5735 99.4353 73.0621C95.8782 74.8041 91.7104 74.0209 89 71.1158C87.6424 69.6608 86.6869 67.967 85.9191 66.1519C85.7462 65.7416 85.6227 65.2976 85.271 64.9869C84.6514 64.6564 84.1732 65.0313 83.7019 65.3312C80.7702 67.1907 78.3464 69.5345 76.7536 72.6606C76.3475 73.2276 76.0111 73.8413 75.7517 74.4885C75.472 75.0744 75.1213 75.6308 74.9612 76.2641C74.6746 76.9822 74.3248 77.6718 74.0966 78.4166C73.9276 78.968 73.6628 79.4849 72.9721 79.5618C72.7192 79.5904 72.4662 79.7108 72.3664 79.9347C71.7212 81.3769 70.9466 82.7875 70.8389 84.4004C70.7786 85.306 71.4752 85.8525 72.0473 86.4355C72.5087 86.905 73.0878 87.2177 73.5907 87.6311C76.2052 89.7026 78.9956 91.4536 82.2859 92.2674C83.0428 92.3296 82.9776 92.9994 83.106 93.4591C84.2977 97.5765 85.2393 101.752 86.014 105.966C86.1128 106.528 86.1988 107.095 86.4488 107.62C87.1948 108.759 88.418 108.99 89.6107 109.235C91.5384 109.629 93.4919 109.565 95.4404 109.469C96.8722 109.04 98.3632 109.447 99.8187 109.134C101.254 108.826 102.721 108.661 104.129 108.212C104.958 107.947 105.597 107.505 105.809 106.608C106.64 102.137 107.748 97.7294 108.727 93.2845C108.811 92.9027 108.797 92.4479 109.298 92.298C112.154 91.4684 114.72 90.0607 117.143 88.3749C117.396 88.2072 117.692 87.998 117.573 87.5916Z" fill="#FEFEFE"/>
<path d="M77.0095 72.8273C78.6647 69.8101 81.0982 67.2897 84.0576 65.5275C84.4034 65.3194 84.7186 65.0343 85.1622 65.054C85.4923 65.2227 85.8045 65.1112 86.1 64.9682C89.1265 63.4944 91.5345 61.4909 92.1145 57.9288C92.2261 57.2462 92.4208 56.5774 92.4386 55.8789C92.8062 54.8175 92.735 53.7364 92.5937 52.6522C92.4643 52.0959 92.0305 51.7733 91.6392 51.4152C91.0958 50.922 90.4792 50.5047 89.9782 49.9631C88.6799 48.5594 87.7273 47.0521 87.592 45.0161C87.2728 40.2327 88.4072 36.0393 91.9979 32.6755C92.816 31.91 93.7231 31.2342 94.8278 31.033C95.9967 30.8199 96.3623 30.083 96.4285 29.0719C96.4631 28.5461 96.5273 28.0253 96.5915 27.4255C96.6074 27.3407 96.8603 27.5291 96.7002 27.4946C96.6951 27.4928 96.6895 27.4921 96.6841 27.4925C96.6786 27.4929 96.6733 27.4945 96.6684 27.4971C96.6636 27.4997 96.6594 27.5033 96.656 27.5076C96.6526 27.5119 96.6502 27.5169 96.6489 27.5222C96.3376 28.3212 96.5006 29.1923 96.2605 30.013C96.1133 30.5181 96.5194 30.8545 96.9641 31.0261C100.391 32.344 102.131 35.1623 103.382 38.3476C104.303 40.6944 104.554 43.1714 104.37 45.6938C104.219 47.8186 103.035 49.3091 101.51 50.6369C100.78 51.2742 99.8216 51.6658 99.3523 52.5921C99.1211 53.6042 99.1942 54.6044 99.4728 55.5958C99.6395 57.0494 100.014 58.4715 100.585 59.8189C101.731 62.4626 103.705 64.1908 106.495 64.9692C109.221 65.8905 111.3 67.6642 113.017 69.9103C113.286 70.2625 113.566 70.6078 113.842 70.956C114.336 70.7725 114.261 70.3542 114.237 69.9695C114.197 69.4198 114.261 68.8675 114.428 68.3419C113.987 64.4335 113.407 60.5429 112.847 56.6504C112.166 51.9154 111.33 47.1991 110.289 42.5262C109.947 41.1916 109.511 39.8776 109.279 38.5183C109.332 38.4558 109.381 38.3899 109.426 38.321C108.255 34.8102 106.56 31.5479 104.219 28.706C100.275 23.9236 92.4494 23.8723 88.2451 28.4593C86.8645 29.9693 85.7907 31.7325 85.0832 33.6511C83.3777 38.2302 82.0537 42.9317 80.7494 47.6371C80.8245 47.7959 80.8887 47.9666 81.117 47.938C81.4905 47.5374 81.2879 46.9584 81.5488 46.7069C81.3828 47.6548 80.9036 48.6995 80.6289 49.8043C79.2969 55.6481 78.2229 61.5432 77.2417 67.4481C76.9976 68.9189 76.6696 70.3898 76.6271 71.8931C76.633 72.265 76.3554 72.7286 77.0095 72.8273Z" fill="#6A3326"/>
<path d="M129.714 50.0342C130.17 49.7955 130.495 50.1841 130.703 50.5363C131.156 51.3166 131.732 52.0091 132.229 52.7578C136.682 59.4657 139.499 66.9007 141.872 74.527C142.235 75.6939 142.485 76.8945 142.85 78.0693C142.933 78.3357 142.99 78.6888 143.306 78.7421C143.68 78.8052 143.883 78.4738 144.052 78.1996C144.495 77.506 144.766 76.7166 144.842 75.8972C145.162 71.6554 144.764 67.5675 142.221 63.9511C141.911 63.5112 141.6 63.0742 141.83 62.4922C141.916 60.9069 142.307 59.3927 142.889 57.9219C142.888 57.7865 142.896 57.6511 142.91 57.5165C143.027 56.4008 143.626 55.5238 144.462 54.7652C144.502 54.7473 144.542 54.7265 144.579 54.7031C144.747 54.6066 144.873 54.4522 144.934 54.269C144.999 54.0322 144.997 53.7819 144.929 53.546L144.917 53.4937C144.834 53.1229 144.807 52.742 144.836 52.3632V52.3583C144.883 51.8039 144.998 51.2574 145.177 50.7306C145.184 50.7079 145.192 50.6843 145.2 50.6616C145.257 50.4814 145.318 50.3035 145.383 50.1279C146.157 48.0149 147.413 46.1633 148.67 44.3078C148.776 44.1255 148.894 43.9508 149.024 43.785C149.146 43.6232 149.279 43.4693 149.413 43.3174C149.681 43.0214 149.96 42.7324 150.218 42.4296C150.363 42.2548 150.493 42.0687 150.608 41.8732C150.7 41.7196 150.806 41.5747 150.924 41.4402C151.359 40.9667 151.748 40.288 152.478 40.4142C153.208 40.5405 153.348 41.2961 153.532 41.9196C153.579 42.0764 153.511 41.8831 153.555 42.0409C153.57 42.0646 153.584 42.0892 153.597 42.1139C154.084 42.9741 154.181 43.9882 154.603 45.092C154.955 44.4824 155.254 43.8434 155.497 43.1822C156.097 41.6749 156.676 40.1439 157.473 38.7432C158.56 36.8383 159.827 35.0361 161.013 33.1884C161.724 32.0865 162.578 31.1001 163.476 30.158C163.905 29.7092 164.489 29.2465 164.824 30.1669C164.843 30.2192 164.862 30.2754 164.879 30.3366C164.814 30.8051 164.532 31.1672 164.243 31.5055C161.942 34.2064 160.228 37.2714 158.809 40.4922C157.075 44.438 154.979 48.2941 155.261 52.8229C155.294 53.3724 155.099 53.8883 154.617 54.2099C153.775 54.7721 153.862 55.4715 154.26 56.238C154.276 56.2607 154.29 56.2834 154.303 56.3051C154.576 56.751 154.46 57.1929 154.234 57.624C153.814 58.4289 153.567 59.2891 153.387 60.174C152.86 62.7723 151.871 65.2444 151.306 67.8417C151.078 68.8894 150.687 69.9301 150.466 71.0083C150.251 72.0588 150.092 73.1015 150.132 74.3366C150.886 70.9826 151.927 67.8792 153.123 64.8488C155.916 57.7864 158.989 50.8444 162.342 44.0227C163.026 42.6288 163.601 41.1847 164.353 39.8263C164.51 39.5422 164.741 39.2009 165.105 39.3163C165.545 39.4564 165.471 39.8894 165.425 40.2554C165.398 40.417 165.351 40.5745 165.284 40.724C163.209 45.8772 161.092 51.0078 158.845 56.0881C158.437 57.0094 157.928 57.8953 157.689 58.8837C157.662 58.9952 157.638 59.1086 157.619 59.224L157.613 59.2586C156.732 61.3587 156.11 63.5694 155.183 65.635C153.636 69.0748 151.913 72.4258 151.609 76.2681C151.497 76.1963 151.374 76.1452 151.244 76.1171C151.213 77.906 151.024 79.6887 150.677 81.444L150.665 81.4864C150.424 82.3545 150.183 83.2226 149.943 84.0907C150.536 83.3775 150.733 82.5331 150.931 81.6857C151.368 80.3836 151.805 79.0814 152.242 77.7793C152.184 77.6102 152.14 77.4367 152.11 77.2604C152.302 76.7386 152.382 76.1753 152.59 75.6624C156.097 66.9085 160.371 58.5868 166.267 51.1656C166.572 50.7809 166.887 50.4021 167.325 50.1604C167.502 50.0618 167.706 49.971 167.895 50.1131C167.91 50.1235 167.923 50.1347 167.936 50.1466C167.953 50.1627 167.968 50.1806 167.981 50.1999C168.08 50.335 168.054 50.5067 168.009 50.6714C167.924 50.993 167.738 51.2633 167.559 51.5366C166.352 53.3852 165.019 55.149 163.829 57.0104C163.812 57.037 163.795 57.0637 163.778 57.0903L163.702 57.2126C162.472 59.1856 161.194 61.1348 160.169 63.23C160.154 63.2586 160.139 63.2873 160.126 63.3168C160.113 63.3464 160.089 63.3898 160.072 63.4273C159.824 64.0744 159.479 64.6732 159.166 65.2888C157.611 68.331 155.938 71.3249 155.059 74.6601C155.02 74.8051 154.983 74.9502 154.947 75.0971C154.465 75.8587 154.149 76.6932 153.827 77.5327C152.938 79.8558 152.17 82.2213 151.483 84.6096C149.615 91.1152 147.975 97.6663 147.386 104.445C147.255 105.947 147.409 107.469 147.089 108.95C147.073 109.026 147.056 109.102 147.037 109.178C146.027 110.113 145.076 110.111 144.296 109.17C144.584 103.514 144.482 97.8453 143.99 92.2033C143.921 91.5173 143.713 90.8524 143.379 90.2491C141.776 87.1911 140.831 83.921 140.388 80.5019C140.304 80.315 140.255 80.1145 140.244 79.9101C140.239 79.7207 140.292 79.5589 140.449 79.4938C141.466 79.0726 141.023 78.3455 140.874 77.7468C140.439 76.0047 139.821 74.3149 139.285 72.6014C137.363 66.4538 134.731 60.6228 131.706 54.9517C131.033 53.689 130.27 52.4786 129.595 51.2189C129.385 50.8233 129.181 50.3143 129.714 50.0342ZM148.801 88.8513C149.186 87.9476 149.429 86.9905 149.523 86.0133C148.956 86.9218 148.795 87.6627 148.565 88.3749C147.353 90.9002 146.589 93.5183 147.058 96.3958L148.801 88.8513Z" fill="#214F14"/>
<path d="M145.552 50.7917C146.265 48.438 147.697 46.475 149.01 44.4478C149.139 43.9965 149.302 43.5553 149.496 43.1279C149.854 42.3387 150.188 41.4933 149.447 40.7022C149.382 40.8009 149.341 40.9607 149.249 40.9981C148.882 41.1619 149.094 40.8206 149.093 40.7624C149.072 38.4314 148.974 36.1073 148.343 33.8463C148.052 32.8026 147.895 31.6505 146.627 31.2213C146.203 31.0783 146.47 30.74 146.49 30.4894C146.82 26.4637 145.88 22.7151 143.898 19.2191C143.197 17.988 142.331 16.9019 140.743 16.8003C140.295 16.7717 140.284 16.4343 140.18 16.1246C138.655 11.5918 135.486 8.3651 131.745 5.60301C131.378 5.33272 130.874 4.87205 130.828 5.87922C130.698 8.73995 130.623 11.6007 131.322 14.4052C131.567 15.3916 131.847 16.4038 132.888 16.9049C133.4 17.1505 133.048 17.4405 132.949 17.7049C132.449 19.0127 132.39 20.4478 132.783 21.7918C132.949 22.3837 133.16 23.16 133.691 23.3277C134.876 23.7016 134.499 24.4375 134.408 25.2109C133.992 28.7473 134.593 32.2147 135.261 35.6614C136.497 42.0428 138.121 48.3137 140.962 54.2068C141.395 55.132 141.931 56.0053 142.561 56.8101C142.837 57.1544 142.995 57.4838 142.89 57.9179C143.186 56.7805 143.977 55.9341 144.6 54.9891C144.901 54.6665 144.974 54.2759 144.945 53.8537C144.279 44.1933 143.133 34.6019 140.119 25.3529C138.242 19.6028 135.641 14.1457 133.012 9.3338C133.576 10.123 134.267 11.4981 135.05 12.818C135.841 14.1556 136.511 15.5515 137.175 16.9542C139.033 20.8813 140.351 24.9869 141.423 29.1863C143.132 35.8843 144.215 42.683 144.914 49.5517C144.958 50.0282 144.793 50.6654 145.552 50.7917Z" fill="#568F34"/>
<path d="M146.837 108.945C146.078 110.023 145.184 109.551 144.298 109.166C143.34 109.548 142.385 109.544 141.341 109.516C138.264 109.432 135.153 109.022 132.108 109.883C131.817 110.491 132.254 110.894 132.563 111.283C134.189 113.329 135.69 115.466 137.233 117.573C138.017 118.644 139.125 119.37 140.217 120.084C141.242 120.754 142.233 121.486 143.299 122.083C144.965 123.014 145.893 124.407 146.176 126.252C146.502 128.383 147.057 130.488 146.893 132.675C146.85 133.244 146.866 133.819 146.558 134.333C146.336 134.903 146.022 135.426 145.741 135.967C145.583 136.271 145.156 136.649 145.741 136.985C147.897 137.059 150.027 136.706 152.164 136.563C153.782 136.455 154.123 136.086 154.513 134.486C154.599 134.132 154.86 133.951 155.026 133.683C155.291 133.24 155.371 132.731 155.543 132.255C155.321 131.118 155.885 130.312 156.669 129.597C156.055 128.917 156.097 128.163 156.263 127.31C156.871 124.187 157.339 121.038 157.868 117.902C158.096 116.554 158.347 115.292 160.136 115.33C160.334 115.33 160.499 115.157 160.589 114.959C160.594 114.749 160.448 114.629 160.32 114.501C159.968 113.361 160.254 112.194 160.164 111.049C160.12 110.497 160.282 109.914 159.902 109.415C159.8 109.327 159.674 109.271 159.54 109.255C158.316 109.502 157.094 109.217 155.891 109.122C153.313 108.925 150.743 108.993 148.169 109.03C147.719 109.03 147.284 108.926 146.837 108.945Z" fill="#F8DCC6"/>
<path d="M146.822 134.438C147.345 134.133 147.262 133.615 147.288 133.131C147.436 130.333 146.897 127.616 146.246 124.924C146.131 124.405 145.912 123.914 145.603 123.482C145.293 123.049 144.899 122.683 144.444 122.407C142.985 121.512 141.579 120.527 140.147 119.594C138.829 118.74 137.667 117.687 136.768 116.296C135.339 114.078 133.673 112.012 132.108 109.884C128.649 105.875 125.336 101.733 121.668 97.8991C120.437 96.6167 120.365 94.7711 119.799 93.173C119.242 91.5947 118.811 89.9808 118.33 88.3798C118.21 87.9852 118.132 87.561 117.573 87.5906C115.061 89.5251 112.267 90.9347 109.299 92.0218C108.983 92.4558 109.324 92.7991 109.486 93.1405C110.452 95.1765 111.265 97.2836 111.799 99.4538C112.508 102.34 114.278 104.453 116.318 106.445C117.925 108.013 119.747 109.34 121.315 110.949C122.762 111.398 123.772 112.533 124.956 113.372C127.489 115.164 130.003 116.984 132.594 118.699C133.779 119.488 134.754 120.439 135.228 121.821C136.382 123.567 136.898 125.511 137.031 127.574C137.049 127.859 137.031 128.145 137.053 128.43C137.104 129.179 137.282 129.846 138.223 129.824C139.164 129.802 139.296 129.105 139.343 128.372C139.383 127.762 139.322 127.147 139.41 126.54C139.501 125.914 139.698 125.31 140.389 125.13C141.08 124.951 141.661 125.156 142.142 125.713C143.619 127.427 144.23 129.462 144.386 131.663C144.414 132.069 144.393 132.478 144.404 132.886C144.458 134.718 145.016 135.073 146.822 134.438Z" fill="#F7A9A0"/>
<path d="M70.1432 55.9588C70.744 54.8974 71.4564 53.8695 71.6254 52.6364C71.7025 52.0899 71.9781 51.3669 71.2173 51.0147C70.4565 50.6625 69.6946 50.7592 69.0583 51.3402C68.0949 52.2211 67.6038 53.3773 67.2254 54.5955C67.1888 54.711 67.1582 54.8264 67.1266 54.9457C66.3499 55.0355 66.3618 54.2424 66.1523 53.907C65.4952 52.8584 64.357 52.1314 64.0655 50.849C62.9707 50.2147 62.0675 49.2815 60.869 48.804C59.9036 48.6324 58.9382 48.7251 57.9748 48.804C57.4956 48.8445 57.0134 48.9717 56.5698 48.6719C56.0461 48.3335 55.7418 48.7823 55.4186 49.0319C54.6104 49.6544 53.98 50.4495 53.3436 51.3412C53.146 50.7168 53.3002 50.1466 53.3239 49.5784C53.3456 49.0674 53.4721 48.5121 52.9366 48.1441C52.8377 48.5643 52.7468 48.9846 52.6194 49.5538C51.3793 46.914 50.0414 44.4932 47.3597 43.2158C46.9536 42.9977 46.51 42.8212 46.1424 43.2069C45.7748 43.5926 46.1582 43.926 46.263 44.2979C46.4013 44.7911 46.5525 45.3031 46.3894 45.8269C46.5782 47.1202 47.5376 48.0119 48.0079 49.0428C46.921 48.6354 46.0545 47.5335 44.6988 47.4013C44.3214 47.7959 43.851 47.5463 43.4251 47.5739C42.859 47.6104 42.2631 47.497 41.7454 47.7604C41.0626 48.1037 40.204 48.4272 40.1644 49.2973C40.1219 50.2157 41.0745 50.2729 41.696 50.5797C42.1406 50.8865 42.7562 50.6724 43.1781 51.063C44.6869 51.7999 46.3875 52.1422 47.8004 53.2737C46.9724 53.8143 46.344 54.1378 45.4636 53.3122C44.9933 52.8702 44.0803 52.2211 43.3955 52.8298C42.8027 53.3575 43.3303 54.1832 43.5279 54.8658C43.687 55.4133 44.2749 55.8572 43.939 56.526C44.1089 57.4227 44.7205 58.1044 45.0792 58.8225C44.354 58.0136 43.9271 56.817 42.689 56.4126C41.4154 55.0907 40.1071 53.8231 38.2199 53.4029C36.7506 53.0754 35.723 53.4947 35.142 54.6853C34.561 55.876 34.8752 56.8782 36.0767 57.8607C36.9344 58.5611 37.9541 58.9162 38.9748 59.3227C37.2466 59.4913 35.5342 59.4647 33.8752 59.9619C31.8338 60.5725 30.4465 62.1321 30.3497 64.0064C30.2845 65.2641 30.7677 65.6172 32.0127 65.1211C33.6381 64.473 35.2101 63.6858 36.8543 63.0909C38.3641 62.5454 39.8641 61.8736 41.696 61.8579C41.0389 62.7565 40.4628 63.5181 39.9174 64.3023C39.6921 64.6278 39.3591 65.0293 39.6526 65.4061C39.9253 65.7573 40.4055 65.5886 40.8087 65.5354C41.3373 65.4653 41.8808 64.9928 42.3896 65.5817C44.101 64.8813 45.8272 64.2135 47.3746 63.1728C47.6068 62.7259 47.4082 62.1982 47.6463 61.7513C47.7614 61.0758 47.8048 60.39 47.7757 59.7054C47.7323 59.4262 47.5781 59.1727 47.5653 58.8847C47.5356 58.2928 47.2026 57.5263 47.7757 57.1889C48.3488 56.8516 49.1373 56.9482 49.7628 57.2876C50.2697 57.5648 50.7509 57.8509 51.3497 57.8075C51.7272 57.8652 52.1117 57.8612 52.488 57.7956C53.0808 57.7493 53.6618 57.6082 54.2468 57.4997C55.47 57.0617 56.8158 57.1347 58.0134 56.5823C58.5983 56.312 59.3394 56.1512 59.3226 55.3383C59.3058 54.4831 58.6309 54.2345 57.9047 54.1092C57.708 54.0583 57.5208 53.976 57.3504 53.8656C57.1744 53.7937 56.9851 53.7601 56.7951 53.7669C56.3593 53.7817 55.9621 53.978 55.554 54.0629C56.4048 53.1001 57.6369 52.7331 58.6972 52.0899C59.1102 51.8394 59.536 51.7693 59.7534 52.3681C60.3519 53.0084 60.8589 53.7281 61.2603 54.5068C61.6081 54.9882 62.527 55.2091 62.3827 55.8099C62.2385 56.4106 61.3393 56.1689 60.7949 56.3712C60.038 56.6533 59.2989 56.963 58.6408 57.4415C57.4166 58.6006 57.3059 60.028 57.634 61.5629C58.0717 62.5563 58.8296 62.7575 59.8078 62.4507C60.4994 62.2376 61.1753 62.0048 61.8511 61.7602C62.1605 61.7602 62.4673 61.705 62.7572 61.5974C64.2394 61.0273 64.3115 61.0657 65.3115 63.0209C65.5041 63.3323 65.7283 63.6232 65.9804 63.889C66.3677 64.3003 66.4982 65.126 67.3242 64.8754C68.0692 64.6466 68.7945 64.3289 68.9279 63.4036C69.0198 62.3777 68.4921 61.411 68.6394 60.3801C68.8083 58.9744 74.9236 58.9991 73.5403 58.6736C74.3219 58.348 67.7105 57.6102 68.2115 57.403C68.3884 56.7224 68.6888 57.5855 69.0672 56.818C69.4792 57.2856 69.3804 56.605 70.1432 55.9588Z" fill="#FFC727"/>
<path d="M140.39 80.497C140.561 80.2306 140.031 79.4878 141.009 79.7483C141.664 79.9229 141.66 79.333 141.544 78.8535C141.04 76.7652 140.363 74.7282 139.742 72.6744C138.821 69.6311 137.654 66.6945 136.429 63.7844C134.616 59.4368 132.48 55.2309 130.039 51.2021C129.865 50.918 129.364 50.5511 129.783 50.2808C130.218 49.9996 130.324 50.6093 130.488 50.8904C131.516 52.6433 132.704 54.2927 133.787 56.0091C135.143 58.1557 136.06 60.5054 137.198 62.7397C138.442 65.1802 139.156 67.8881 140.131 70.4677C141.153 73.1725 141.811 75.9849 142.608 78.7539C142.874 79.6753 143.312 79.6417 143.904 79.0676C144.877 78.1305 145.196 76.8826 145.293 75.6318C145.553 72.262 145.144 68.9742 143.836 65.8155C143.331 64.5953 142.276 63.7282 141.828 62.4872C141.31 63.1649 140.803 62.2209 140.252 62.5937C140.299 61.8361 141.283 61.557 140.918 60.7806C140.314 59.4982 139.849 58.128 138.766 57.1189C138.23 56.6188 137.786 57.1297 137.298 57.2116C136.944 57.2708 136.508 57.473 136.238 57.2116C135.941 56.9246 136.221 56.5132 136.384 56.2252C136.863 55.3748 136.698 54.635 136.255 53.8123C135.335 52.1116 134.094 50.6517 132.936 49.1227C132.54 48.6048 132.113 48.6156 131.345 49.1463C131.957 47.9527 131.574 47.3766 130.957 46.7897C129.945 45.8269 128.882 44.9351 127.666 44.2535C126.579 43.6458 126.26 43.8076 126.246 45.015C126.22 47.278 126.668 49.4659 127.322 51.6292C127.611 52.5802 128.361 52.4894 129.16 52.6157C128.331 53.5489 128.59 54.49 128.864 55.4528C129.46 57.5737 130.193 59.6539 131.058 61.6803C131.552 62.8423 132.015 63.8219 133.721 63.0722C131.89 64.5065 132.805 66.0434 133.227 67.5615C133.721 69.3322 134.236 71.0941 135.086 72.7326C135.838 74.1827 136.849 75.3851 138.495 75.8517C138.474 75.9849 138.488 76.0786 138.447 76.125C137.146 77.6303 137.125 77.6629 138.862 78.6572C139.631 79.0942 140.309 79.5263 140.39 80.497Z" fill="#2C6D14"/>
<path d="M62.771 105.983C61.7138 105.983 60.6565 105.983 59.5992 105.983C59.204 105.983 58.7515 106.072 58.627 105.508C57.1448 105.606 55.6014 105.197 54.1875 105.974C50.6303 105.974 47.0732 106.004 43.516 105.967C42.6653 105.958 42.3303 106.214 42.3945 107.078C42.4538 107.849 42.4044 108.629 42.4084 109.405C42.4084 110.271 42.1436 111.328 43.6524 111.135C43.9281 111.101 44.0802 111.333 44.1138 111.608C44.3678 113.668 45.0693 115.652 45.1414 117.743C45.6355 119.665 46.1552 121.59 46.094 123.6C47.1186 123.214 47.836 122.378 48.7332 121.805C49.3764 120.755 50.4949 120.28 51.4712 119.681C52.4296 119.089 53.2379 118.411 53.7952 117.463C54.1035 116.937 54.6074 116.699 55.0461 116.356C56.7357 114.501 57.9896 112.311 59.5805 110.397C60.5004 109.287 61.614 108.325 62.4519 107.121C62.6821 106.781 63.1762 106.505 62.771 105.983Z" fill="#F8DCC6"/>
<path d="M37.2663 83.4208C37.5756 83.2798 37.8839 82.7372 38.1942 83.4208C39.1398 82.1227 40.3087 81.0297 41.44 79.9011C41.8126 79.5293 42.2147 79.2008 42.7127 79.0064C42.9247 78.9069 43.111 78.7601 43.2571 78.5773C43.3688 78.4067 43.3965 78.1965 43.5052 78.0269C43.854 77.4853 44.2195 76.7672 44.8569 76.7741C45.3252 76.78 45.3776 77.5958 45.6177 78.0466C46.2412 79.2195 46.7352 80.4989 48.1868 80.9448C48.6346 80.9889 49.0817 80.8545 49.4308 80.571C49.6066 80.389 49.7328 80.165 49.7974 79.9205C49.8619 79.676 49.8626 79.419 49.7993 79.1741C49.5493 78.6326 49.3339 78.089 49.6748 77.4971C49.664 76.9053 49.3191 76.4268 49.0918 75.9188C48.7608 75.179 48.9604 74.6926 49.6422 74.3119C50.4198 73.8788 51.1846 73.4241 51.981 73.0236C52.4247 72.2245 53.1994 71.6632 53.5798 70.8149C53.3268 69.4644 52.482 68.8045 51.1372 68.7265C49.495 68.8942 48.5267 70.0711 47.5395 71.2578C46.9981 70.5673 47.083 69.7781 46.7925 69.1182C46.2869 68.2415 45.7123 67.4063 45.0743 66.6205C44.8087 66.2613 44.4691 65.9633 44.0782 65.7464C43.7433 65.5748 43.3866 65.4505 43.0378 65.6646C42.5931 65.9339 42.9044 66.2969 42.9518 66.6362C43.0299 67.2054 43.4301 67.6592 43.4854 68.2304C43.5279 69.2474 44.4429 69.9073 44.6059 71.0358C43.101 70.1757 41.8521 69.0629 40.2909 68.5076C39.1951 68.113 38.0953 67.8249 36.9482 68.2234C36.0697 68.5283 35.4759 69.1764 35.3781 70.0879C35.2684 71.1009 36.2002 71.1789 36.8602 71.4028C38.287 71.8852 39.8127 72.0341 41.2078 72.6487C41.4381 72.8726 41.6406 73.134 42.1179 73.2554C41.3798 73.1942 40.779 73.3668 40.1931 73.1567C39.3561 72.994 38.5242 72.8065 37.6823 72.6793C37.3424 72.628 36.9383 72.551 36.7031 72.9644C36.4502 73.4112 36.713 73.7585 36.9571 74.0682C37.5153 74.7765 38.3226 75.1721 39.3127 75.7008C37.3879 76.1881 35.5836 76.0175 33.9009 76.5709C32.4918 77.0345 31.1243 77.5327 30.3744 78.9384C30.2103 79.2461 29.908 79.6654 30.153 79.9446C30.4396 80.2691 30.9435 80.0817 31.2844 79.9061C32.8082 79.1231 34.4881 78.6903 36.2012 78.6395C36.5628 78.6286 36.9254 78.602 37.2881 78.5832C37.4175 79.0913 36.8167 79.1376 36.7831 79.5066C36.5164 80.0383 36.2664 80.5808 35.7565 80.9399C35.3692 81.6176 35.5026 82.4018 35.633 83.045C35.8247 83.9644 36.5964 83.7937 37.2663 83.4208Z" fill="#FFC727"/>
<path d="M54.1845 105.972C55.2338 105.972 56.2842 105.96 57.3335 105.989C57.8453 106.004 58.292 105.928 58.624 105.506C58.704 102.983 58.535 100.462 58.5252 97.9454C58.5064 90.7088 58.5252 83.4445 61.4351 76.5975C61.5112 76.4179 61.6564 76.268 61.7691 76.1043C61.8288 76.1438 61.9012 76.1595 61.972 76.1484C62.0428 76.1372 62.1068 76.1 62.1515 76.0441C62.3313 74.6887 62.0724 74.374 60.777 74.3612C60.3917 74.4766 60.2267 74.8278 59.9964 75.1069C59.364 75.8784 59.1071 75.8833 58.623 74.9748C56.9244 71.7984 55.6182 68.4464 54.2892 65.1102C54.0106 64.4118 54.06 63.665 54.2368 62.94C54.5026 61.8371 55.1409 60.9749 55.9838 60.244C56.2071 59.2703 57.0124 58.5374 57.1181 57.5135C56.8701 56.2981 56.2684 57.0054 55.7466 57.2599C55.2062 57.841 54.7892 58.5177 54.2902 59.1342C54.0639 59.4301 54.0926 59.9175 53.6064 60.0536C53.1934 59.6393 53.4286 59.074 53.2665 58.6084C53.1677 58.1063 52.8535 57.7492 52.4691 57.4414L51.2133 57.5006C50.9988 57.9268 50.1264 57.7541 50.2844 58.5236C51.5779 59.7073 51.6243 61.2255 51.4306 62.8068C52.1361 63.4667 52.5304 64.2707 52.5551 65.2364C52.0541 65.1506 52.0551 65.1496 51.6984 64.8537C50.3368 63.7252 49.0019 62.5562 47.3389 61.8657C46.9437 62.2672 47.171 62.6746 47.3261 63.081C48.1877 64.3861 49.3961 65.3371 50.5868 66.3176C52.1183 67.5813 53.727 68.7916 54.4582 70.7567C54.89 71.75 55.2546 72.7602 55.2714 73.862C55.634 75.0063 56.2249 76.1121 55.8642 77.3807C56.1794 78.017 56.2466 78.6937 56.2456 79.3921C56.2456 82.1897 56.3227 84.9903 55.8879 87.7701C55.8277 88.1568 55.719 88.5662 55.961 88.8552C55.4265 87.6813 54.9492 86.3802 54.0264 85.3257C53.3347 85.1432 53.2132 85.6137 53.1242 86.1148C53.0985 86.3841 53.0373 86.6594 53.2527 86.8882C54.4641 88.3995 54.6657 90.2807 55.1755 92.0553C55.8119 94.2738 55.1024 96.4184 54.8653 98.5797C54.6014 101.034 54.2586 103.488 54.1845 105.972Z" fill="#BC9A5F"/>
<path d="M52.9385 48.1421C53.2349 49.3584 52.4049 50.629 52.9168 51.4872L56.3583 48.6048C56.7931 48.1914 56.3583 47.6065 56.6449 47.1636C57.0757 43.2621 55.4592 39.7779 52.8565 39.1229C53.1411 42.1415 52.983 45.1423 52.9385 48.1421Z" fill="#789608"/>
<path d="M54.7566 70.7221C54.7289 69.2188 53.4899 68.5233 52.6035 67.6395C50.9554 65.998 49.1699 64.5006 47.332 63.0702C45.6711 63.4016 44.3786 64.6288 42.7166 64.976C42.5724 65.0066 42.4973 65.3706 42.3896 65.5768C42.5952 66.5169 42.9629 67.4141 43.4765 68.2284C43.7215 67.5832 43.0546 67.1324 43.1119 66.5179C43.1316 66.2999 42.8836 66.0375 43.1633 65.8668C43.3965 65.7238 43.6296 65.8865 43.8421 65.999C44.6701 66.435 45.0426 67.2814 45.6029 67.9601C45.9359 68.3606 46.2234 68.7986 46.5317 69.2188C47.421 68.331 47.5801 66.9055 46.8874 65.5176C47.7126 66.1767 48.4735 66.9123 49.16 67.7144C49.6541 68.2718 50.077 68.9968 50.9919 68.9781C52.2587 69.0215 52.896 69.8915 53.4622 70.8524C53.9869 71.6435 54.4029 71.4955 54.7566 70.7221Z" fill="#7A9507"/>
<path d="M68.6394 60.3762C68.0623 60.5567 68.1838 60.9868 68.3429 61.3567C68.6186 61.9949 68.2125 62.7466 68.7065 63.3355C68.9506 63.5693 69.2332 63.4924 69.497 63.3987C70.0405 63.2014 70.1995 63.5654 70.3586 63.9491C71.6649 64.8182 73.0581 65.4761 74.6341 65.6823L76.304 66.3166C76.469 64.8369 75.555 63.9491 74.7962 63.0041C74.2428 62.3136 73.3822 61.9249 72.9188 61.1426C72.0858 60.2371 70.9634 60.4117 69.912 60.3692C69.4822 60.3515 69.3419 60.7352 69.2441 61.0943C68.7826 61.0677 68.8281 60.6238 68.6394 60.3762Z" fill="#7B9409"/>
<path d="M53.4731 86.3762C53.5235 85.9817 53.3515 85.4727 53.9958 85.3957C54.061 85.2931 54.0953 85.1739 54.0946 85.0524C53.2814 82.7076 52.0275 80.5867 50.7143 78.5004C50.4426 78.0693 50.1303 77.6125 49.5355 77.5336C48.8162 78.0495 48.829 78.5517 49.5622 79.0419C49.822 79.6525 49.907 80.3145 50.2094 80.9231C50.4505 81.4104 49.9485 81.007 49.8369 81.1145C49.1669 81.3335 48.5899 80.9843 47.9832 80.8185C46.7975 80.0984 45.591 79.4375 44.3796 78.7677C44.0091 78.5645 43.6534 78.1896 43.1564 78.4816L42.6188 78.7776C42.3926 79.3398 42.7433 79.5746 43.1791 79.764C43.8707 79.5914 44.1069 79.8804 44.1237 80.567C44.1435 81.3453 43.9607 82.1621 44.4063 82.894C44.7383 82.6435 44.7739 82.2676 44.7521 81.9135C44.6978 81.0257 44.9349 80.8807 45.762 81.294C46.5111 81.6608 47.1436 82.2281 47.5889 82.9325C48.0346 81.8888 49.413 81.9352 50.5779 83.0312C50.6362 83.0864 50.6846 83.1505 50.738 83.2107C51.5779 83.2551 51.8378 83.8746 52.1609 84.5187C52.5047 85.1935 52.4662 86.1661 53.4731 86.3762Z" fill="#AFA04D"/>
<path d="M109.442 38.3209L109.115 38.3475C109.234 39.6062 109.766 40.7653 110.004 41.9974C111.395 47.1063 112.254 52.3197 113.016 57.5499C113.466 60.6454 113.84 63.7518 114.246 66.8532C114.415 68.1435 114.316 69.4476 114.5 70.7369C114.591 71.3781 114.524 72.0449 114.879 72.6309L115.15 73.5808C115.52 73.5907 115.494 73.3599 115.474 73.0935C114.675 62.2425 113.597 51.4319 110.395 40.9587C110.121 40.0659 109.761 39.1998 109.442 38.3209Z" fill="#513327"/>
<path d="M70.3803 69.718L70.6768 68.4721C70.659 68.0677 70.6415 67.6632 70.6244 67.2588C70.8734 66.2052 70.5374 65.3283 69.8112 64.5667C68.329 64.326 66.5781 65.4851 66.3894 66.8218C66.6611 67.8635 66.5712 69.0304 67.4398 69.8689C68.4318 70.0652 69.4436 70.6167 70.3803 69.718Z" fill="#7B950A"/>
<path d="M47.5929 82.9344C47.4655 82.4896 47.7905 81.8888 47.2392 81.6047C46.4213 81.1747 45.5782 80.7943 44.7146 80.4653C44.3747 80.3371 44.3945 80.7346 44.3925 80.9586C44.3856 81.6047 44.4024 82.2518 44.4103 82.8989C44.7185 83.9219 44.6326 85.0474 45.2235 85.9974C45.5377 86.5025 45.7679 87.0717 46.4092 87.4771C47.0337 85.9925 47.2599 84.4477 47.5929 82.9344Z" fill="#78950B"/>
<path d="M69.2401 61.0883C70.0978 60.1374 71.0612 61.0883 71.9692 60.9522C72.2657 60.9058 72.5986 61.0696 72.9148 61.1367L73.1737 60.9394C73.2992 60.6908 73.5324 60.6671 73.7755 60.6257C74.9414 60.4284 75.1716 59.9352 74.6312 58.8431C74.5096 58.2986 74.1588 58.0066 73.6193 57.9218C72.7883 57.7679 71.8833 56.9679 71.2104 58.197C69.3419 58.8195 69.329 58.8362 69.2401 61.0883Z" fill="#FFC727"/>
<path d="M43.183 79.7661L42.6238 78.7796C42.1683 78.7194 41.857 78.9562 41.5596 79.259C40.6703 80.1567 39.7988 81.0652 38.8779 81.9225C38.6648 82.1089 38.4936 82.3383 38.3758 82.5955C38.2579 82.8528 38.196 83.1321 38.1942 83.415C38.2011 84.3235 38.3473 85.1837 39.1338 85.9512C40.3838 83.7859 40.863 81.154 43.183 79.7661Z" fill="#7A950E"/>
<path d="M44.6988 47.3993C45.9833 48.4272 47.4753 49.102 48.9328 49.8773C48.0069 48.6867 47.5949 47.209 46.5702 46.1189C46.4467 45.7944 46.1048 45.8348 45.8677 45.6997C44.9784 45.3189 44.0684 45.0259 42.9785 45.0092C43.3649 45.9956 44.1346 46.6279 44.6988 47.3993Z" fill="#7D950D"/>
<path d="M61.0804 49.0861C61.9815 49.8329 62.7661 50.7759 64.0664 50.8459C64.768 50.5766 65.7966 50.3409 65.7857 49.6109C65.7768 48.9904 64.7314 48.7556 64.0674 48.4735C62.8679 47.9635 61.6209 48.0099 60.365 48.1588C60.1882 48.7872 60.7573 48.8425 61.0804 49.0861Z" fill="#7A950F"/>
<path d="M76.3307 67.7717C75.9424 70.2516 75.5402 72.7306 75.1776 75.2145C75.1252 75.5647 74.806 76.0037 75.3189 76.2947C75.4745 75.6898 75.73 75.1151 76.0748 74.594C76.9176 71.0694 77.2743 67.4649 77.8612 63.8969C77.7861 63.6068 77.7199 63.305 77.3208 63.3277L76.3307 67.7717Z" fill="#502D25"/>
<path d="M77.3207 63.3277C77.4057 63.5122 77.4907 63.6976 77.5766 63.8821C78.3128 63.5763 78.132 62.8463 78.2209 62.3038C78.9511 57.9219 79.9244 53.5913 80.9619 49.2697C80.8976 48.8179 81.3976 48.3819 81.0073 47.9232L80.7642 47.6371C79.2643 52.7894 78.1952 58.0373 77.3207 63.3277Z" fill="#4E3027"/>
<path d="M53.4731 86.3762C52.7814 85.5249 52.5838 84.4339 52.0898 83.4849C51.7034 82.752 51.3418 82.5882 50.7469 83.2146C51.1708 84.4645 51.5987 85.7084 52.3042 86.8418C52.647 87.3923 52.9237 87.3844 53.2626 86.8783C53.3298 86.7106 53.4019 86.5439 53.4731 86.3762Z" fill="#828F1B"/>
<path d="M90.0227 17.992C91.0306 17.9555 91.5493 17.6635 91.495 16.9069C91.4525 16.3042 91.2973 15.7281 90.4219 15.7488C89.6067 15.7676 89.1542 16.1434 89.1561 16.8852C89.1581 17.5442 89.5494 18.0246 90.0227 17.992Z" fill="#FCFCF8"/>
<path d="M61.0804 49.0862L60.3651 48.1589C59.6418 48.2428 58.9175 48.3128 58.1913 48.4124C56.6814 48.6216 56.6814 48.6285 56.6419 47.1636C56.2338 47.5828 56.4897 48.1323 56.3554 48.6048C56.5293 49.1829 57.0085 49.1079 57.4423 49.1069C58.6616 49.1029 59.871 49.0931 61.0804 49.0862Z" fill="#A2B12D"/>
<path d="M42.6831 56.4116L45.5298 59.8346L45.8005 59.6679C45.2344 58.5917 44.9942 57.3468 43.933 56.5251L42.6831 56.4116Z" fill="#7F9607"/>
<path d="M37.2663 83.4209C36.548 83.3114 35.3237 83.7168 36.0806 82.1483C36.1794 81.9363 35.7595 81.3838 35.7605 80.935C34.9898 81.8721 35.1459 82.9701 35.6804 83.8115C36.215 84.653 36.8345 83.9989 37.2663 83.4209Z" fill="#ACB337"/>
<path d="M45.8697 45.6996C46.0317 45.961 46.3153 46.0183 46.5732 46.1189C46.5663 45.5162 46.7777 44.7862 46.5129 44.3344C45.7738 43.0717 46.6177 43.2305 47.3617 43.2138C47.0248 42.7698 46.5712 42.5617 46.0979 42.8951C45.6651 43.199 45.9003 43.6912 45.9201 44.1331C45.9448 44.65 46.7007 45.2133 45.8697 45.6996Z" fill="#B2B348"/>
<path d="M40.1871 73.1568C41.0764 73.6698 42.0339 73.6875 43.184 73.5514C42.638 73.0456 41.9426 72.73 41.2019 72.6517C41.109 73.3058 40.5438 73.0246 40.1871 73.1568Z" fill="#DFE186"/>
<path d="M35.7565 80.9399C36.547 80.78 36.8493 80.276 36.7831 79.5065C36.5194 79.6584 36.2913 79.8649 36.1142 80.1121C35.9371 80.3594 35.8151 80.6416 35.7565 80.9399Z" fill="#ACB337"/>
<path d="M43.1722 51.062C42.8827 50.2807 42.1979 50.7049 41.69 50.5786C42.0803 51.063 42.6238 51.0837 43.1722 51.062Z" fill="#C3C868"/>
<path d="M45.0821 134.481C46.3667 136.411 48.2757 137.675 50.0631 139.066C50.1975 139.544 50.6165 139.741 50.984 139.983C53.3861 141.571 56.0312 142.457 58.8888 142.723C63.3649 143.256 67.8538 143.06 72.3417 142.974C74.6519 142.777 76.9719 142.777 79.286 142.668C81.4046 142.578 83.5086 142.274 85.5654 141.759C88.8459 140.916 92.1194 140.042 95.3732 139.096C96.5471 138.518 97.8434 138.313 99.0756 137.912C103.727 136.405 108.418 135.012 112.901 133.038C113.62 132.721 114.611 132.545 114.651 131.427C114.572 131.335 114.475 131.261 114.365 131.209C114.256 131.156 114.137 131.128 114.016 131.124C112.361 131.105 111.775 129.965 111.361 128.634C111.245 128.263 111.239 127.821 110.768 127.668C105.907 128.196 101.019 128.329 96.1499 128.726C92.5809 129.022 88.9901 129.08 85.4053 129.149C84.0615 129.175 82.7246 129.33 81.3818 129.363C74.4355 129.198 67.5178 129.503 60.6506 130.609C61.7375 130.263 62.8777 130.232 64.0101 130.072C65.1859 129.906 66.3687 129.894 67.5406 129.743C68.2322 129.654 69.2361 129.948 69.4752 129.1C69.7242 128.212 68.7164 127.963 68.1206 127.605C66.3074 126.52 64.6395 125.163 62.5072 124.646C61.6179 124.431 60.7998 124.173 59.8749 124.449C59.4797 124.565 58.9649 124.64 58.6655 124.147C58.5005 123.752 58.62 123.418 58.9036 123.142C60.5597 121.524 63.1287 120.312 65.7047 121.596C66.8726 122.177 68.1324 122.582 69.3883 122.913C71.2716 123.406 73.1223 123.037 74.5817 121.775C76.1054 120.457 78.5954 121.172 79.4313 122.95C79.7277 123.583 80.0241 124.204 80.1299 124.9C80.2227 125.492 80.5251 125.877 81.1901 125.859C83.2275 125.814 85.0437 126.868 87.0366 127.043C87.4793 127.082 87.9062 127.272 88.3528 127.33C88.8468 127.394 89.3685 127.464 89.6788 126.962C89.9486 126.525 89.75 126.086 89.5207 125.692C88.9852 124.769 88.2737 123.976 87.586 123.168C87.3212 122.858 86.9932 122.599 86.761 122.264C84.9202 119.566 82.2157 118.544 79.1052 118.306C76.8672 118.245 74.6331 118.235 72.404 118.503C71.8756 118.556 71.3424 118.526 70.823 118.416C70.1659 118.162 69.6284 118.952 68.9595 118.634C68.7332 118.58 68.5148 119.071 68.2806 118.634C67.5221 118.769 66.7719 118.948 66.0337 119.169C64.8599 119.482 63.6445 119.34 62.443 119.548C60.6219 119.862 58.8394 120.442 56.9748 120.502C55.4769 121.124 54.7823 122.376 54.5906 123.869C54.4157 125.236 53.9523 126.555 53.975 127.958C53.9859 128.614 53.6213 128.956 52.9484 128.483C52.3555 127.946 52.4237 127.201 52.3743 126.51C52.313 125.664 52.0591 124.938 51.1886 124.718C50.2815 124.487 49.8112 125.121 49.3715 125.825C48.6284 127.009 48.1699 128.323 47.7609 129.633C47.3864 130.827 47.0563 132.042 46.7323 133.255C46.6532 133.792 46.2866 133.784 45.8558 133.763C45.3993 133.743 44.9754 133.852 45.0821 134.481Z" fill="#37474F"/>
<path d="M146.822 134.437C146.633 134.363 146.407 134.183 146.261 134.233C144.773 134.743 144.779 133.839 144.819 132.802C144.917 129.999 144.226 127.459 142.366 125.261C141.665 124.436 140.825 124.48 140.038 124.683C139.304 124.873 138.982 125.627 138.951 126.4C138.921 127.172 138.928 127.948 138.932 128.721C138.932 129.195 138.794 129.494 138.241 129.51C137.643 129.523 137.418 129.228 137.47 128.686C137.66 126.745 137.075 124.944 136.476 123.147C136.246 122.457 135.997 121.766 135.248 121.453C133.864 120.481 132.284 120.542 130.708 120.544C130.105 121.39 130.934 121.467 131.367 121.673C132.267 122.101 133.216 122.445 133.145 123.7C132.344 124.305 131.411 124.327 130.496 124.215C128.278 123.943 127.174 125.487 126.039 126.919C125.525 127.567 126.056 127.983 126.678 128.149C127.703 128.422 128.735 128.667 129.766 128.92C130.718 129.154 131.653 129.452 132.226 129.781C130.282 128.942 127.977 128.289 125.501 128.4C124.804 128.436 124.123 128.623 123.505 128.949C118.999 131.27 114.231 132.993 109.594 135.022C106.674 136.299 103.646 137.313 100.753 138.654C100.214 138.904 99.4284 138.95 99.3899 139.816C99.8048 140.296 100.409 140.3 100.957 140.416C104.997 141.275 109.102 141.644 113.209 141.982C116.053 142.217 118.899 142.636 121.745 142.587C125.417 142.522 129.095 142.666 132.759 142.469C135.563 142.318 138.364 141.904 140.875 140.448C141.369 140.161 141.904 139.931 142.127 139.343L145.34 137.118C145.403 137.019 145.585 136.995 145.531 136.822C146.052 136.073 146.769 135.433 146.822 134.437Z" fill="#37474F"/>
<path d="M11.734 146.199C13.7546 146.223 15.7071 145.817 17.6339 145.257C18.8542 144.692 20.0399 144.066 21.1278 143.269C21.6969 142.486 22.85 142.316 23.2028 141.305C25.338 138.064 24.8993 133.976 22.1584 131.656C21.1347 130.789 20.0112 130.289 18.6714 130.921C17.536 131.456 16.9768 132.663 17.1023 134.233C17.3256 137.016 16.1142 138.779 13.4029 139.533C11.4267 140.079 9.43663 140.032 7.46736 139.514C6.28165 139.202 5.06136 139.033 3.92801 138.539C2.82431 138.057 1.68405 137.651 0.81749 136.728C0.460787 137.202 0.554655 137.553 0.642595 137.904C1.07242 141.905 3.96753 143.656 7.22133 145.073C7.73514 145.297 8.26574 145.482 8.78844 145.685C9.56509 146.144 10.4682 145.964 11.2903 146.161L11.734 146.199Z" fill="#BE590F"/>
<path d="M22.8006 141.295C22.4588 142.136 21.5418 142.49 21.1278 143.268C22.0368 142.578 23.0368 142.459 24.1909 142.452C28.9555 142.418 33.7082 142.072 38.4609 141.704C40.1783 141.571 41.943 141.842 43.6692 142.062C46.0189 142.358 48.3844 142.312 50.739 142.472C53.4523 142.656 56.1735 142.649 58.8977 142.725C55.7826 141.97 52.8039 140.736 50.0681 139.068C49.0869 139.226 48.1067 139.39 47.1236 139.536C46.8854 139.571 46.5781 139.587 46.4803 139.324C45.843 137.622 44.2443 137.733 42.8837 137.39C42.5191 137.974 42.0665 138.563 42.1001 139.264C42.1396 140.119 41.7385 140.338 41.0132 140.329C40.6466 140.329 40.279 140.35 39.9125 140.339C35.0995 140.177 30.2983 140.614 25.4863 140.598C24.5318 140.597 23.6109 140.744 22.8006 141.295Z" fill="#D6D4CD"/>
<path d="M22.8006 141.295C28.8774 140.901 34.9621 140.791 41.0507 140.781C42.5931 140.781 42.601 140.753 42.4163 139.211C42.3955 139.033 42.3421 138.908 42.5457 138.833C43.3955 138.523 42.9281 137.909 42.8787 137.391C41.7918 136.322 40.444 135.73 38.9856 135.359C38.2426 135.26 37.6833 135.07 38.3641 134.202C38.5874 133.918 38.619 133.545 38.7652 133.223C39.0291 132.704 39.2702 132.178 39.2593 131.576C39.7533 129.841 40.4845 128.191 41.1317 126.512C41.3096 126.05 41.4845 125.606 41.4163 125.123C41.3709 124.804 41.5823 124.899 41.7127 124.848C42.3056 122.24 41.2365 120.014 40.0685 117.824C39.863 117.438 39.5626 117.103 39.3057 116.745C38.6141 116.449 38.2297 115.878 38.0439 115.189C37.9451 114.821 37.9155 114.459 37.4629 114.361C36.9136 114.293 36.4294 114.012 35.8978 113.883C35.137 113.674 34.5382 114.396 33.7872 114.247C33.4542 115.247 33.4493 116.309 33.1588 117.263C32.7843 116.324 33.0669 115.131 32.3466 114.211C31.5769 114.388 30.898 113.799 30.1323 113.95C29.4485 114.12 28.8645 114.476 28.328 114.921C27.7964 115.659 27.7569 116.704 26.8883 117.236C25.092 119.35 23.9033 121.753 23.4093 124.542C22.273 124.264 21.3283 123.435 20.1219 123.392C19.8867 123.885 20.2582 124.246 20.447 124.619C21.2197 126.148 21.5546 127.821 22.266 129.596C20.7839 127.172 19.2771 125.08 17.3256 123.314C16.5094 122.577 15.5421 122.952 14.6824 122.67C13.9403 122.619 13.2003 122.582 12.4898 122.879C13.6123 124.267 14.8613 125.56 15.462 127.31C15.715 128.043 15.9452 128.781 16.125 129.358C14.8583 127.538 13.4651 125.621 11.4523 124.253C10.8595 123.853 10.2399 123.608 9.51962 123.653C8.59772 123.934 7.73314 124.317 7.06321 125.042C6.74109 125.585 7.12645 125.959 7.37249 126.372C8.45939 128.2 9.53444 130.031 9.76565 132.269C8.39417 130.205 6.98219 128.214 4.85779 126.885C2.17906 129.623 0.548702 132.828 0.46669 136.72C0.457794 137.121 0.426174 137.534 0.649483 137.904C0.683079 137.663 0.716686 137.423 0.759174 137.126C1.54174 138.338 2.87072 138.594 4.03667 138.992C6.97033 139.994 9.95734 140.753 13.1271 140.07C14.9176 139.684 16.2229 138.654 17.2771 137.267C17.9184 136.421 17.6971 135.372 17.5736 134.418C17.376 132.884 17.7287 131.819 18.781 131.275C19.8333 130.73 20.8373 131.011 21.9933 132.006C24.3539 134.045 24.9961 138.278 22.8006 141.295Z" fill="#D76E25"/>
<path d="M45.0822 134.481C45.2946 134.054 45.5901 133.873 46.0515 134.142C46.8627 134.614 47.1493 134.286 47.0949 133.451C47.254 130.417 47.8073 127.512 49.9258 125.148C50.2934 124.738 50.8042 124.472 51.3516 124.709C51.9633 124.974 52.2409 125.548 52.2409 126.189C52.2409 127.016 52.3714 127.798 52.7429 128.536C53.1233 128.748 52.8417 129.54 53.5205 129.463C54.1331 129.393 54.311 128.805 54.3505 128.384C54.4612 127.101 54.8534 125.837 54.8732 124.602C54.9019 122.85 55.9453 121.846 56.8939 120.691C58.3108 118.929 60.366 117.96 62.0586 116.541C63.4627 115.364 65.0466 114.476 66.6552 113.623C67.841 112.356 69.3063 111.432 70.7064 110.435C71.0246 110.252 71.2548 109.955 71.577 109.776C71.8734 109.661 71.7489 109.085 72.237 109.169C73.9998 107.826 75.5343 106.242 77.051 104.643C78.2496 103.38 79.0667 101.881 79.5608 100.204C80.2524 97.8556 80.9886 95.5217 82.0814 93.316C82.2701 92.9362 82.5665 92.5268 82.1901 92.074C79.2564 90.7788 76.3406 89.45 73.8278 87.4041C73.2814 87.6941 73.2804 88.2771 73.1362 88.7605C72.2913 91.5107 71.4683 94.2679 70.6481 97.025C70.5365 97.4019 70.2529 97.6327 70.0039 97.8931C67.4862 100.49 65.1365 103.236 62.777 105.973C61.7197 107.394 60.6812 108.792 59.3275 110.003C58.4788 110.762 57.8879 111.94 57.1448 112.907C56.4611 113.795 56.1567 114.979 55.0629 115.565C54.9364 115.633 54.9829 116.019 54.9493 116.255C53.4059 118.742 50.8082 119.986 48.5682 121.652C47.5624 122.022 46.6984 122.698 46.0979 123.584C45.183 124.778 45.1899 126.248 44.9004 127.629C44.5229 129.424 44.2798 131.241 44.3777 133.084C44.4024 133.647 44.347 134.275 45.0822 134.481Z" fill="#F7A9A0"/>
<path d="M4.85289 126.885C4.88649 127.123 4.87463 127.378 5.11375 127.534C7.27965 128.993 8.57801 131.191 10.0898 133.266C10.1886 131.49 9.73309 129.843 8.88136 128.291C8.2885 127.206 7.66699 126.121 7.05833 125.042C6.30639 125.637 5.37955 126.021 4.85289 126.885Z" fill="#C05910"/>
<path d="M9.51471 123.653C12.8456 124.996 14.6755 127.873 16.6744 130.615C15.9828 127.645 15.4077 124.631 12.4849 122.879C11.4475 122.899 10.4295 123.164 9.51471 123.653Z" fill="#BF5A11"/>
<path d="M14.6775 122.67C18.3819 123.408 19.7316 126.616 21.5744 129.279C21.9874 129.879 21.8867 129.948 22.771 130.463C22.0951 127.913 21.5349 125.501 20.1209 123.389C18.3809 122.593 16.544 122.523 14.6775 122.67Z" fill="#BF5A11"/>
<path d="M37.3088 114.561C38.0765 114.874 37.7445 115.745 38.1724 116.276C38.5271 116.72 38.7494 116.997 39.3057 116.745C38.2929 115.429 38.0568 113.765 37.3295 112.322C37.1319 111.939 37.1072 111.42 36.5114 111.402C35.8948 111.384 35.7209 111.906 35.467 112.299C35.3667 112.477 35.3051 112.674 35.2861 112.877C35.1607 113.747 34.7783 114.204 33.8159 113.909C33.5383 113.833 33.2461 113.826 32.9651 113.889C31.6539 114.178 30.6925 113.941 30.3279 112.447C30.2291 112.053 29.8724 111.608 29.3398 111.684C28.8833 111.749 28.7183 112.212 28.5898 112.578C28.2806 113.465 27.9446 114.353 27.7994 115.27C27.6788 116.045 27.1324 116.552 26.8903 117.236C28.0355 116.94 28.0948 115.871 28.4525 115.018C28.9633 114.624 29.0977 114.032 29.2291 113.453C29.2864 113.314 29.2351 113.058 29.407 113.058C29.6046 113.051 29.5335 113.303 29.5799 113.444C29.654 113.805 29.7993 114.119 30.1332 114.311C30.8733 113.986 31.6055 114.476 32.3446 114.334C32.8416 114.488 33.3742 114.488 33.8712 114.334C34.5145 114.592 35.1478 113.849 35.793 114.315C36.5292 112.994 36.8325 114.3 37.3088 114.561Z" fill="#C4753D"/>
<path d="M105.488 106.512C105.291 107.476 104.5 107.696 103.716 107.905C101.437 108.499 99.1036 108.857 96.7516 108.972C96.3119 108.995 95.8534 108.909 95.4404 109.144C95.7161 109.411 96.0659 109.225 96.4334 109.312C94.1766 109.197 91.9682 109.48 89.7806 109.09C89.1877 108.985 88.9714 109.379 88.8103 109.814C86.7057 115.489 90.2104 123.219 97.6449 123.328C101.619 123.386 105.154 121.995 108.586 120.52C106.527 121.656 104.634 123.197 102.954 125.012C102.676 125.308 102.381 125.598 102.15 125.936C101.853 126.375 101.472 126.833 101.747 127.39C102.023 127.948 102.598 127.744 103.07 127.746C105.983 127.759 108.846 127.207 111.737 126.957C112.282 126.708 112.285 126.18 112.348 125.705C112.693 123.105 115.411 121.987 117.413 123.159C119.932 124.639 122.353 124.146 124.677 122.61C125.673 121.955 126.841 121.666 127.917 121.179C128.3 121.005 128.852 121.052 128.905 120.441C128.411 119.919 127.733 119.915 127.103 119.849C126.258 119.752 125.423 119.59 124.603 119.365C124.338 119.35 124.068 119.347 123.813 119.238C123.466 119.139 123.196 118.766 122.77 118.942C122.461 119.054 122.13 119.091 121.804 119.05C119.383 118.676 116.931 118.602 114.503 118.301C113.633 118.193 112.995 117.808 112.499 117.076C110.22 113.698 107.756 110.443 105.825 106.839C105.754 106.695 105.635 106.579 105.488 106.512Z" fill="#37474F"/>
<path d="M106.501 64.9692C106.382 64.8633 106.252 64.7704 106.113 64.692C102.196 62.9814 100.403 59.7922 99.8434 55.7408C99.3799 55.3946 99.0894 55.804 98.7723 56.0062C96.9542 57.1623 95.144 57.3715 93.2923 56.0664C92.9455 55.8217 92.5364 55.2999 92.0799 55.9677C91.8635 56.9621 91.6945 57.9702 91.4218 58.9498C90.8616 60.9641 89.7114 62.5326 87.8192 63.525C86.9161 63.9985 86.0486 64.541 85.1652 65.052C86.2314 68.4336 87.8815 71.4176 91.1125 73.1933C94.7932 75.2165 99.0914 74.5852 102.146 71.6583C104.117 69.7693 105.498 67.4905 106.501 64.9692Z" fill="#F7A9A0"/>
<path d="M123.765 119.468C123.932 119.612 124.095 119.837 124.287 119.494C124.517 119.145 124.421 118.784 124.3 118.44C123.529 116.258 122.857 114.042 122.118 111.85C121.99 111.47 121.871 111.066 121.454 110.874C121.223 110.249 120.795 109.806 120.273 109.382C117.803 107.377 115.333 105.356 113.541 102.663C112.988 101.832 112.639 100.937 112.371 99.9874C111.597 97.2372 110.712 94.5274 109.298 92.0218C109.134 91.8501 108.987 91.5591 108.804 91.5285C108.454 91.4743 108.54 91.8452 108.495 92.0543C107.549 96.4691 106.608 100.885 105.671 105.301C105.586 105.696 105.552 106.105 105.493 106.509C105.457 107.058 105.637 107.527 105.945 107.989C108.086 111.164 110.224 114.341 112.328 117.541C112.794 118.251 113.376 118.61 114.205 118.69C116.884 118.945 119.561 119.228 122.238 119.498C122.613 119.535 123.109 119.753 123.038 119.026C123.302 117.856 122.584 116.912 122.37 115.897C122.956 116.998 122.797 118.462 123.765 119.468Z" fill="#6A3326"/>
<path d="M111.678 126.804C110.645 126.349 109.59 126.755 108.596 126.877C106.574 127.125 104.557 127.304 102.524 127.378C102.326 127.385 102.107 127.534 101.97 127.327C101.808 127.083 101.97 126.864 102.125 126.667C103.473 124.874 105.105 123.313 106.958 122.045C107.94 121.376 108.921 120.706 109.841 119.912C108.213 120.109 106.791 120.871 105.304 121.426C102.176 122.596 98.9956 123.351 95.64 122.673C90.249 121.588 87.8103 115.485 88.8221 111.492C89.3468 109.413 89.3251 109.41 91.4317 109.412C93.3279 109.412 95.225 109.412 97.1231 109.215L95.4434 109.14C93.2449 109.05 91.0177 109.33 88.8666 108.633C88.0653 108.372 87.2145 108.205 86.6641 107.47C85.7423 108.07 85.3371 109.08 84.7453 109.936C83.0803 112.333 81.3857 114.713 79.7929 117.158C79.4916 117.618 79.0489 118.046 79.2119 118.691C82.0982 119.013 84.6336 119.89 86.4053 122.458C87.2017 123.611 88.2994 124.579 89.1117 125.753C89.3379 126.078 89.7104 126.45 89.4407 126.846C89.1709 127.241 88.7075 127.019 88.3123 126.927C86.2146 126.44 84.1139 125.969 82.0181 125.476C81.7217 125.407 81.4658 125.313 81.2336 125.574C81.2371 125.667 81.2591 125.759 81.2983 125.844C81.3375 125.928 81.3931 126.004 81.4618 126.067C83.1564 127.096 85.0891 127.486 86.9309 128.096C85.3025 128.285 83.6287 127.883 81.9984 128.345C81.6031 128.74 81.0735 129.06 81.2316 129.754C86.182 129.588 91.1373 129.521 96.0797 129.227C99.7702 129.007 103.455 128.681 107.146 128.485C108.406 128.418 109.774 128.536 110.946 127.803C111.656 127.811 111.838 127.433 111.678 126.804Z" fill="#323C3F"/>
<path d="M79.209 118.698C81.5145 115.316 83.8181 111.934 86.1197 108.551C86.342 108.221 86.4823 107.837 86.6612 107.478C86.095 103.473 85.1217 99.5534 84.1406 95.6401C83.7947 94.2591 83.3876 92.8948 83.0141 91.5414C82.5201 91.5256 82.5043 92.005 82.1901 92.0938C80.8953 94.8569 79.8376 97.7246 79.0282 100.666C78.4985 102.556 77.1804 103.977 75.8663 105.392C74.6242 106.731 73.0304 107.706 71.9583 109.212C71.2074 110.384 71.2835 111.777 70.9584 113.059C70.6086 114.44 70.4841 115.87 70.1748 117.264C70.076 117.701 70.0049 118.152 70.331 118.547C70.4841 119.213 71.0226 118.989 71.4179 118.977C74.0185 118.895 76.6142 118.786 79.209 118.698Z" fill="#6A3326"/>
<path d="M114.879 72.63C114.65 66.1046 113.816 59.6433 112.771 53.2066C112.159 49.3441 111.286 45.5275 110.155 41.7834C109.689 41.7657 109.865 42.0498 109.921 42.2767C111.756 50.6527 112.748 59.1648 114.053 67.6287C114.096 67.9088 114.097 68.1959 114.117 68.48C113.867 69.6578 114.432 70.7755 114.374 71.9385C114.347 72.3124 114.557 72.5136 114.879 72.63Z" fill="#FADCD1"/>
<path d="M80.7959 49.1365C79.5716 53.7729 78.5974 58.4635 77.7753 63.1866C77.7218 63.4218 77.6559 63.6539 77.5776 63.8821C77.1192 66.9293 76.6567 69.9754 76.2081 73.0226C76.1321 73.5425 76.1182 74.0702 76.0757 74.594L77.0095 72.8273C76.8553 70.9866 77.3909 69.2238 77.6587 67.4343C78.5479 61.4643 79.7653 55.5534 81.032 49.6524C81.0607 49.4314 81.2583 49.1335 80.7959 49.1365Z" fill="#F6DACF"/>
<path d="M114.374 71.9395C114.98 70.735 114.187 69.6351 114.117 68.481C113.525 69.2524 114.205 70.1579 113.852 70.957L114.374 71.9395Z" fill="#513327"/>
<path d="M99.6369 52.5368C99.7001 52.4855 99.7604 52.4303 99.8266 52.3839C104.612 48.9935 105.417 47.4339 104.558 41.3001C104.083 37.9126 102.601 34.9285 100.14 32.4811C99.2891 31.6348 98.3494 30.9028 97.135 30.6966C96.4947 30.5881 96.4434 30.2271 96.5293 29.7417C96.6839 28.9346 96.7255 28.1099 96.6528 27.2914C96.5768 27.3516 96.478 27.39 96.477 27.4344C96.4226 29.3541 95.5808 30.2853 93.6579 31.1474C89.8587 32.853 88.1849 36.4526 87.3786 40.4083C86.9665 42.4296 87.0426 44.4725 87.4023 46.4928C87.7205 48.2793 88.9833 49.4916 90.2016 50.7C90.8636 51.357 91.6165 51.9233 92.328 52.5309C94.1609 54.783 97.9571 55.071 99.6369 52.5368Z" fill="#F7A9A0"/>
<path d="M99.6369 52.5367C99.4876 52.5986 99.3449 52.6752 99.211 52.7656C96.8396 54.7385 94.5749 53.898 92.323 52.5318C92.24 53.6781 92.1573 54.824 92.075 55.9696C92.3131 55.8167 92.4989 55.871 92.7281 56.0436C95.1657 57.8863 97.0283 57.8537 99.4136 55.9538C99.5474 55.8682 99.6898 55.7968 99.8384 55.7407L99.6369 52.5367Z" fill="#F28B83"/>
<path d="M109.921 42.2786L110.155 41.7854L109.115 38.3485C108.976 38.4472 108.775 37.948 108.84 38.2598C109.123 39.6152 109.547 40.941 109.921 42.2786Z" fill="#CEA096"/>
<path d="M80.7958 49.1365C80.8759 49.3081 80.9549 49.4808 81.035 49.6524C81.4934 48.3927 81.5942 47.059 81.9401 45.5813C81.3373 46.3912 81.3936 47.2415 81.0093 47.9232L80.7958 49.1365Z" fill="#CFA79C"/>
<path d="M145.552 50.7918C145.063 49.1148 145.063 47.357 144.881 45.6415C144.474 41.7943 143.728 38.0132 143.008 34.2232C141.975 28.7731 140.468 23.4442 138.308 18.3413C136.739 14.6381 134.834 11.075 132.343 7.86605C132.233 7.74459 132.081 7.66803 131.918 7.651C135.439 15.1096 139.23 22.4311 141.171 30.5201C143.104 38.5755 144.052 46.7503 144.595 54.9912C145.561 54.8205 145.4 54.0373 145.27 53.475C145.049 52.5191 145.305 51.6688 145.552 50.7918Z" fill="#2F6D14"/>
<path d="M139.5 30.7321C138.808 30.8238 138.36 31.1266 138.368 31.8073C138.376 32.4426 138.712 32.8875 139.401 32.8924C140.089 32.8973 140.445 32.4909 140.479 31.8487C140.52 31.1562 140.05 30.8731 139.5 30.7321Z" fill="#EEF8E8"/>
<path d="M70.3804 69.7179C69.4031 69.9507 68.4338 69.5659 67.4576 69.6823C66.3509 69.3667 65.4863 70.2673 64.4469 70.2811C63.7552 70.1302 63.4291 69.4397 62.8135 69.1763C62.4887 69.0031 62.1327 68.8958 61.7662 68.8606C61.0745 68.7788 60.3828 68.7521 59.707 68.8961C58.3454 69.1842 57.8444 70.3334 58.6793 71.4323C59.1517 72.0558 59.2564 72.5332 58.7317 73.1211C58.627 73.2395 58.7317 73.0738 58.6714 73.2198C58.4047 73.862 58.046 74.6077 58.6803 75.1286C59.3819 75.7057 60.038 75.244 60.5577 74.6571C61.8729 74.2753 61.9203 75.2055 62.028 76.0726C61.8304 76.7701 62.028 77.4004 62.364 78.0061C62.7958 78.377 62.7187 79.4118 63.5032 79.2076C64.2878 79.0034 64.2156 78.1225 64.2374 77.4399C64.2591 76.7572 64.2374 76.0647 64.2374 75.0605C65.2008 75.9227 65.9478 76.5688 66.6681 77.2426C67.4586 77.9785 68.3073 78.5911 69.3883 78.7824C70.2302 78.9314 70.9327 78.667 71.3408 77.8828C71.736 77.1222 71.5957 76.5146 70.9624 75.8388C69.8992 74.7044 68.5465 74.079 67.2392 73.352C67.8884 72.5628 68.7787 72.7542 69.6106 72.7976C70.7835 72.8587 71.9574 73.059 73.1105 72.6595C73.7844 72.4553 73.8871 72.1465 73.3081 71.6809C72.7291 71.2153 72.0888 70.8917 71.4189 70.6126C70.9821 70.4271 70.5059 70.2801 70.3804 69.7179Z" fill="#FFC727"/>
<path d="M73.1253 72.6645C71.575 72.6645 70.0237 72.6369 68.4743 72.6645C67.9931 72.6744 67.4615 72.7336 67.0505 72.9525C66.6394 73.1715 66.8262 73.3846 67.2481 73.353C68.1018 72.9249 68.9605 72.9121 69.9159 73.0255C70.9742 73.1528 72.152 73.5553 73.1253 72.6645Z" fill="#DFDC95"/>
<path d="M62.3689 78.0111C62.2575 77.3673 62.1456 76.7228 62.0329 76.0776L61.776 76.1033C61.8916 76.7652 61.6317 77.5425 62.3689 78.0111Z" fill="#E8DE9C"/>
<path d="M61.8541 69.205L62.8422 69.4723C63.3935 69.3974 63.4479 68.9377 63.4508 68.553C63.4736 66.0296 62.8521 63.6463 61.8027 61.3646C61.1545 61.5728 60.451 61.6833 59.8729 62.0137C59.0163 62.507 58.4343 62.2298 57.875 61.5905C57.4561 60.8103 56.9749 60.1109 55.9472 60.1355C54.6252 60.5301 54.2141 61.5856 53.9958 62.7861C54.0448 62.8988 54.1309 62.9913 54.2398 63.0485C55.7546 63.7292 55.7546 63.7282 55.5836 65.3174C55.4577 66.5388 55.6 67.7729 56.0006 68.9337C56.5085 70.444 57.3573 70.6107 58.4867 69.4931C59.2771 68.7138 59.87 67.7806 60.5528 66.9224C60.8808 66.513 61.2039 66.1006 61.6555 65.7485C61.6802 66.948 60.9816 68.1239 61.8541 69.205Z" fill="#779605"/>
<path d="M61.7987 61.3647C61.8086 63.2389 62.7315 64.9228 62.9222 66.7616C63.021 67.6711 63.2532 68.5796 62.8372 69.4724C63.3313 69.8492 63.607 70.4815 64.2769 70.6344C64.9685 70.011 65.0436 69.065 65.4922 68.3123C65.842 67.7273 66.0989 67.0861 66.7382 66.734C66.7036 66.1924 66.8222 65.7781 67.4803 65.7317C68.3231 65.6725 68.6532 64.3951 69.6956 64.7887C69.6669 64.2402 70.0493 64.0044 70.4574 63.7864C70.9277 62.8365 70.3803 62.7566 69.6669 62.9095C69.332 62.9815 69.0257 63.1877 68.7075 63.3336C68.5454 64.1485 67.751 64.1948 67.2165 64.5549C67.0109 64.694 66.837 64.6752 66.7718 64.4089C66.5979 63.6976 65.9477 63.3662 65.5337 62.8483C64.7738 63.7211 64.3349 64.8267 64.2897 65.9823C63.9696 64.6634 63.8401 62.8671 62.7957 61.3597L61.7987 61.3647Z" fill="#B69E56"/>
<path d="M51.4998 62.7703C52.1519 62.43 52.061 61.842 51.9563 61.2906C51.8229 60.5754 51.6154 59.875 51.4692 59.1628C51.3299 58.4841 50.8111 58.4269 50.2726 58.3736C49.0029 58.0708 48.0494 58.5551 47.5771 59.7428C47.1403 60.4067 47.4219 61.1495 47.3449 61.8539C48.3014 63.0751 49.825 63.5654 50.9159 64.6159C51.5423 65.2197 52.1786 65.8392 53.0897 66.0651C53.2655 65.6912 52.7853 65.5422 52.7932 65.2315C52.6855 64.4147 52.1016 63.9491 51.4544 63.6147C50.7093 63.231 51.4306 63.0445 51.4998 62.7703Z" fill="#7A9409"/>
<path d="M55.8968 57.473C56.2328 57.4611 56.5342 56.6157 56.9037 57.4325C57.542 57.9524 58.1882 57.9909 58.8433 57.4621C60.195 57.1228 61.4331 56.377 62.8945 56.4066C63.351 56.4155 63.1593 56.0505 63.017 55.7871C62.6386 55.0838 62.104 54.5669 61.3373 54.3015C60.1516 53.3427 58.373 53.2361 57.1557 54.05C57.4145 54.5353 57.9036 54.4524 58.3315 54.5432C58.7149 54.6251 59.0024 54.8796 59.0597 55.2742C59.1289 55.7447 58.7455 55.8404 58.4017 56.0041C57.0667 56.6404 55.5925 56.7312 54.1943 57.1178C54.6597 57.7344 55.2506 57.7344 55.8968 57.473Z" fill="#7F960D"/>
<path d="M62.7947 61.3616C62.9825 63.1372 63.8046 64.7511 64.1109 66.8266C64.8144 65.3627 65.2541 64.1375 65.5327 62.8502C64.8964 60.9897 64.5664 60.6977 63.3767 60.8773C63.0566 60.9197 62.858 61.042 62.7947 61.3616Z" fill="#7A9509"/>
<path d="M56.6725 54.0057C57.4511 52.8703 58.8167 52.7726 59.9046 52.1837C60.031 51.5435 59.785 51.0986 59.1516 51.4626C57.628 52.3267 55.7793 52.7588 54.7823 54.5926C55.4957 54.4368 56.1182 54.35 56.6725 54.0057Z" fill="#7F960D"/>
<path d="M49.5404 77.5336C51.2202 79.6417 52.3624 82.0546 53.5274 84.4556C53.6489 84.7052 53.8406 84.9202 53.9997 85.1461C54.7111 84.7821 54.5748 84.136 54.5046 83.5402C54.2458 81.3394 53.3011 79.4217 52.0156 77.648C51.7834 77.3274 51.4228 77.0858 51.3338 76.5629C52.4207 76.484 53.4088 76.8589 54.4147 77.0808C54.9088 77.1903 55.4206 77.502 55.9166 77.068C56.6409 76.2838 56.4561 75.0714 55.4354 73.9113C55.0653 73.3899 54.5349 73.0031 53.9247 72.8098C53.3145 72.6165 52.6578 72.6271 52.0542 72.84C50.6639 72.9752 49.6669 73.8817 48.5859 74.6157C48.2332 74.8554 48.3943 75.1789 48.5247 75.4818C48.8241 76.192 49.0415 76.9319 49.5404 77.5336Z" fill="#799509"/>
<path d="M43.1603 78.4826C44.7897 79.3043 46.2461 80.4693 48.0484 80.9488C48.1255 80.9054 48.1571 80.856 48.1413 80.7998C48.1255 80.7436 48.1067 80.7091 48.084 80.7091C46.587 79.6989 45.9398 78.1216 45.4161 76.5156C45.1948 75.8359 44.9656 75.7353 44.6059 76.2572C44.1059 76.9852 42.8036 77.2081 43.1603 78.4826Z" fill="#7B9506"/>
<path d="M49.8201 81.2121C49.9837 81.3881 50.159 81.5528 50.3447 81.7053C50.4989 81.8188 50.7024 81.9579 50.8882 81.7764C51.074 81.5949 50.9791 81.3946 50.8744 81.218C50.4436 80.4881 50.0029 79.764 49.5661 79.038L49.2904 80.4299C49.2796 80.8175 49.3833 81.1302 49.8201 81.2121Z" fill="#858A1A"/>
<path d="M49.8201 81.2122L49.2905 80.4299L48.084 80.7091L48.0484 80.9478C49.1452 81.7607 49.2737 81.7794 49.8201 81.2122Z" fill="#E7E3AF"/>
<path d="M54.4473 59.1944C53.9869 58.9636 53.5314 58.717 53.0037 58.6696C52.9795 58.8679 52.9699 59.0677 52.9751 59.2674C53.0274 59.8267 52.8318 60.7096 53.6005 60.6909C54.2299 60.6761 54.561 59.9283 54.4473 59.1944Z" fill="#81901A"/>
<path d="M130.59 120.769L128.817 120.531C127.113 121.016 125.481 121.606 123.967 122.603C121.672 124.108 119.323 123.821 116.931 122.576C114.671 121.401 112.131 123.344 111.925 125.654C111.889 126.049 112.037 126.484 111.678 126.808C111.497 127.188 111.367 127.604 110.946 127.809C110.946 130.428 111.961 131.452 114.621 131.505C115.143 131.937 115.63 131.628 116.092 131.406C118.722 130.113 121.365 128.841 123.76 127.131C125.194 126.109 126.798 125.398 128.315 124.531C129.05 124.11 129.879 124.16 130.693 124.2C131.658 124.248 132.621 124.287 133.536 123.883C133.896 122.255 132.673 121.841 131.578 121.309C131.243 121.138 130.715 121.319 130.59 120.769Z" fill="#F7A9A0"/>
<path d="M81.4994 125.832L81.2306 125.579C80.7129 125.618 80.5152 125.375 80.4915 124.861C80.4125 123.128 79.37 121.949 78.1073 120.928C77.5944 120.513 75.2665 120.576 74.81 121.007C72.6945 123.004 70.4337 122.995 67.7945 121.983C66.4606 121.473 65.2255 120.602 63.5971 120.628C61.3936 120.659 59.8522 121.74 58.3404 123.069C57.8138 123.53 57.8394 123.95 58.378 124.368C58.8888 124.777 59.455 124.609 60.0093 124.519C62.0161 124.19 63.9123 124.321 65.8391 125.194C68.0623 126.202 70.2104 127.358 72.4465 128.339C73.9454 128.997 75.4661 129.335 77.0757 129.187C78.4491 129.06 79.8423 129.068 81.1941 128.755C82.4776 127.595 82.5576 126.835 81.4994 125.832Z" fill="#F7A9A0"/>
<path d="M133.536 123.875C132.28 123.843 131.013 123.7 129.768 123.806C127.749 123.978 126.097 125.141 124.488 126.219C121.569 128.177 118.47 129.787 115.333 131.34C115.121 131.446 114.859 131.45 114.621 131.501C112.956 132.975 110.842 133.528 108.826 134.235C104.542 135.74 100.27 137.293 95.8455 138.371C95.6113 138.428 95.5234 138.594 95.4779 138.803C96.7783 139.057 98.0341 139.53 99.374 139.592C103.326 137.984 107.265 136.35 111.231 134.777C113.984 133.683 116.687 132.471 119.444 131.383C120.582 130.933 121.805 130.513 122.838 129.775C124.419 128.648 126.168 128.591 127.99 128.94C129.827 129.294 131.672 129.617 133.425 130.716C132.943 129.852 132.397 129.453 131.231 129.039C129.77 128.522 128.29 128.061 126.757 127.813C126.029 127.694 125.868 127.471 126.432 126.925C127.017 126.355 127.605 125.787 128.161 125.19C128.556 124.768 128.999 124.558 129.572 124.619C130.844 124.755 132.085 124.422 133.344 124.363C133.663 124.341 134.274 124.352 133.536 123.875Z" fill="#323C3F"/>
<path d="M81.2237 128.534C79.4738 128.615 77.7239 128.686 75.9749 128.782C74.0412 128.889 72.3951 127.955 70.8112 127.125C68.6858 126.01 66.4823 125.101 64.2976 124.136C62.9034 123.519 61.4756 124.048 60.0755 124.208C59.5103 124.273 58.9491 124.358 58.378 124.368C58.2218 124.404 58.0064 124.466 58.1576 124.655C58.3878 124.951 58.7722 124.902 59.0765 124.845C62.0576 124.288 64.3984 125.757 66.7481 127.219C67.4398 127.65 68.1413 128.065 68.8419 128.483C69.0504 128.607 69.3359 128.708 69.2994 128.989C69.2598 129.309 68.9338 129.224 68.7065 129.285C67.0732 129.708 65.3806 129.442 63.7285 129.744C62.2218 130.025 60.7375 130.414 59.287 130.909C66.5703 129.789 73.898 129.773 81.2227 129.759C81.4124 129.318 81.9628 129.095 81.9588 128.538C81.7187 128.306 81.4717 128.365 81.2237 128.534Z" fill="#323C3F"/>
<path d="M66.4912 113.371C65.9557 114.042 65.0437 113.835 64.3619 114.375C63.025 115.435 61.7059 116.593 60.2553 117.427C59.3384 117.954 58.7238 118.808 57.7555 119.222C57.1794 119.467 56.8375 120.004 56.8909 120.694C56.9739 121.014 57.2061 121.266 57.5015 121.115C59.2801 120.209 61.3195 120.449 63.1584 119.784C64.1316 119.433 65.2571 120 66.2363 119.433C65.8707 118.109 66.4339 116.869 66.5683 115.586C66.6473 114.85 67.09 114.09 66.4912 113.371Z" fill="#F8DCC6"/>
<path d="M68.8735 118.753C69.583 115.704 70.497 112.713 71.4426 109.734C70.8299 109.24 71.0187 110.008 70.8042 110.139L68.3765 118.76C68.4486 118.871 68.5218 118.982 68.5949 119.093L68.8735 118.753Z" fill="#553629"/>
<path d="M23.93 123.787C22.8985 125.997 24.8055 126.765 25.8716 127.718C27.3745 129.06 29.1561 130.092 30.819 131.256C31.0245 131.4 31.2775 131.563 31.4613 131.313C31.6451 131.064 31.3803 130.874 31.2202 130.705C30.4416 129.88 29.6867 129.056 28.6511 128.492C26.6562 127.403 25.1997 125.713 23.93 123.787Z" fill="#C25911"/>
<path d="M31.7982 122.67C31.6737 124.045 32.3288 125.121 33.3278 125.183C34.1459 125.234 34.9344 124.361 35.0431 123.286C35.1735 122.003 34.5263 120.982 33.5373 120.918C32.1104 120.819 31.9523 120.98 31.7982 122.67Z" fill="#F8B27B"/>
<path d="M33.8692 114.33C33.3604 113.995 32.8515 113.983 32.3426 114.33C32.3743 115.769 32.7379 117.151 33.1094 118.562C33.5501 117.176 34.0511 115.818 33.8692 114.33Z" fill="#BF5915"/>
<path d="M30.8872 120.656C31.3941 120.718 31.6441 120.57 31.6125 120.148C31.5769 119.677 31.4326 119.228 30.8477 119.266C30.324 119.299 29.7875 119.66 29.8201 120.116C29.8606 120.683 30.569 120.541 30.8872 120.656Z" fill="#712B08"/>
<path d="M34.5916 119.914C34.5995 120.407 34.9097 120.552 35.3149 120.448C35.72 120.343 36.3652 120.388 36.3741 119.889C36.383 119.39 35.8455 119.119 35.3208 119.132C34.8514 119.143 34.6103 119.445 34.5916 119.914Z" fill="#6B2805"/>
<path d="M28.9426 113.347L28.4486 115.018L30.1284 114.307C30.0493 113.993 29.9706 113.679 29.8922 113.364C29.5869 112.83 29.2707 112.779 28.9426 113.347Z" fill="#F7A76C"/>
<path d="M37.3088 114.561C37.2811 114.404 37.2831 114.232 37.2199 114.09C37.0153 113.628 36.8997 112.898 36.2999 112.994C35.7002 113.09 35.7802 113.791 35.7911 114.311C36.3325 114.182 36.7545 114.768 37.3088 114.561Z" fill="#F8AF67"/>
<path d="M28.9426 113.347C29.2648 113.076 29.5819 113.111 29.8952 113.364C29.8566 112.969 30.0671 112.369 29.3665 112.409C28.7766 112.442 28.9772 112.981 28.9426 113.347Z" fill="#D76E25"/>
<path d="M123.765 119.468C123.304 118.136 122.845 116.803 122.388 115.47L122.19 115.521L123.035 119.023C123.323 119.099 123.087 120.032 123.765 119.468Z" fill="#E3BCB3"/>
<path d="M81.2237 128.534H81.9648C83.6771 128.534 85.3885 128.54 87.1028 128.523C87.4783 128.523 88.0712 128.697 88.1245 128.17C88.172 127.701 87.5742 127.808 87.2491 127.732C85.2729 127.266 83.3886 126.548 81.5003 125.83C82.4114 126.835 81.6179 127.664 81.2237 128.534Z" fill="#37474F"/>
<path d="M98.4996 48.5663C97.0431 47.7821 95.644 47.8206 94.1757 48.3108C93.4623 48.5496 93.5719 48.7242 93.9375 49.1868C95.0808 50.632 97.2654 51.1361 98.4996 48.5663Z" fill="#DA4650"/>
<path d="M98.3365 43.195C100.115 44.3522 101.733 43.8175 103.297 43.345C103.774 43.201 102.923 42.5499 103.467 42.1385C101.823 42.762 100.044 42.4355 98.3365 43.195Z" fill="#743619"/>
<path d="M88.9783 42.103C89.5316 42.4975 88.6265 43.2236 89.2955 43.409C90.8152 43.8283 92.3734 44.3353 94.0057 43.2453C92.4238 42.321 90.5731 42.8842 88.9783 42.103Z" fill="#713317"/>
<path d="M88.9753 38.9473C90.3231 38.091 91.7331 38.1759 93.1846 38.533C93.5107 38.6129 94.0067 38.6809 94.0986 38.1976C94.1974 37.6688 93.7034 37.507 93.321 37.4449C91.6205 37.1628 90.2055 37.7694 88.9753 38.9473Z" fill="#7A3416"/>
<path d="M103.392 38.9108C102.292 37.6846 100.851 37.2999 99.2535 37.4222C98.8147 37.4558 98.2654 37.6195 98.4165 38.2222C98.5529 38.7598 99.0983 38.5971 99.459 38.5024C100.823 38.1453 102.118 38.1601 103.392 38.9108Z" fill="#7A3414"/>
<path d="M33.1509 124.136C33.5551 123.231 32.9889 122.11 34.0491 121.408C33.5333 121.088 33.0501 121.054 32.7399 121.37C32.4296 121.686 33.0452 121.856 33.062 122.166C33.0976 122.822 33.1223 123.48 33.1509 124.136Z" fill="#915129"/>
</svg>
