<svg width="161" height="151" viewBox="0 0 161 151" fill="none" xmlns="http://www.w3.org/2000/svg">
<path d="M158.499 72.746C158.082 75.38 158.337 78.0353 158.249 80.6786C158.239 80.9506 158.523 81.5138 157.767 81.305C157.603 81.2581 157.57 81.6033 157.586 81.7914C157.671 82.8524 157.379 83.8758 157.309 84.9226C157.238 84.9226 157.167 84.9226 157.091 84.9226C157.098 83.0932 157.26 81.2645 157.289 79.4408C157.37 74.2665 156.877 69.1277 156 64.0173C155.394 60.4913 154.765 56.9816 153.661 53.5706C153.556 53.2468 153.596 52.8761 153.569 52.526C153.64 52.526 153.715 52.526 153.79 52.5309C155.117 55.6855 156.291 58.8905 157.171 62.2099C157.938 65.1088 158.1 68.1043 158.713 71.0245C158.826 71.5628 158.591 72.1729 158.499 72.746Z" fill="#FCFCFD"/>
<path d="M153.79 52.5338C153.715 52.5338 153.642 52.5338 153.569 52.5288C153.114 52.0615 153.049 51.4557 152.983 50.8478C153.391 51.3318 153.669 51.9122 153.79 52.5338Z" fill="#F3F4F5"/>
<path d="M152.788 50.1199C152.776 50.1625 152.765 50.2023 152.743 50.2684C152.729 50.2288 152.719 50.1879 152.713 50.1462C152.715 50.137 152.762 50.1327 152.788 50.1199Z" fill="#F3F4F5"/>
<path d="M149.816 116.397C149.793 116.493 149.766 116.591 149.745 116.688C149.534 116.523 149.712 116.471 149.816 116.397Z" fill="#FEFEFE"/>
<path d="M149.83 116.385C149.825 116.39 149.82 116.392 149.816 116.397C149.816 116.39 149.816 116.385 149.82 116.378L149.83 116.385Z" fill="#FEFEFE"/>
<path d="M116.173 9.75446H116.168C116.168 9.75446 116.168 9.75872 116.173 9.76085H116.177C116.177 9.76085 116.175 9.75659 116.173 9.75446ZM130.495 19.3823C130.467 19.3567 130.439 19.3304 130.411 19.302L130.491 19.3894H130.504C130.5 19.3886 130.497 19.3823 130.495 19.3823ZM146.217 115.864C146.217 115.87 146.217 115.875 146.212 115.883C146.217 115.878 146.222 115.875 146.226 115.87C146.229 115.866 146.231 115.862 146.233 115.857L146.217 115.864Z" fill="#FECCBD"/>
<path d="M48.084 148.298C58.4063 150.249 69.1178 150.216 79.671 149.802C88.4821 149.459 98.112 149.202 107.241 147.494C112.993 146.418 118.549 144.765 123.575 142.15C137.429 134.938 147.83 122.403 153.856 108.133C161.141 90.876 162.875 71.1538 157.701 53.1523C152.527 35.1509 140.278 19.0932 123.779 10.2288L133.633 19.2672C128.399 14.4636 122.37 10.5051 115.961 7.45137C109.489 4.37481 102.62 2.21684 95.5518 1.03993C88.5013 -0.136111 81.2824 -0.329278 74.1849 0.535002C72.8935 0.680482 71.6104 0.892155 70.3407 1.16919C68.4851 1.59529 66.4582 1.47527 64.6636 2.09809C62.7788 2.75216 58.9439 3.85435 56.9938 4.27406C53.0623 5.12129 51.3358 6.09991 47.4562 7.18221C45.9513 7.60192 44.4635 8.12461 42.9984 8.66789C42.622 8.80993 41.7911 9.11814 41.5972 9.19484C35.5054 11.6556 29.9618 15.7653 25.1184 20.1414C20.1422 24.6432 15.8223 29.8608 12.2501 35.5401C8.65359 41.2629 5.81499 47.4282 3.80545 53.8817C2.47795 58.1325 1.52529 62.4914 0.95837 66.9084C-0.751014 80.3086 -0.356868 94.1598 3.63927 107.14C5.67959 113.764 8.65805 120.098 12.5484 125.841C16.9664 132.359 23.6682 139.166 30.7842 142.665C36.3548 145.402 42.1554 147.178 48.084 148.298Z" fill="#A4DFFF"/>
<path d="M116.177 9.76048H116.173C116.173 9.76048 116.173 9.75646 116.168 9.75446L116.177 9.76048Z" fill="#FEF8F6"/>
<path d="M116.835 10.4817C116.48 10.508 116.163 10.3666 115.877 10.1834C115.771 10.1181 115.717 9.97036 115.64 9.86455C115.816 9.82904 115.995 9.79353 116.173 9.76086C116.326 9.9938 116.481 10.0215 116.638 9.76086C116.858 9.88088 117.175 9.92349 117.227 10.2047C117.276 10.4611 116.999 10.4341 116.835 10.4817Z" fill="#FEF8F6"/>
<path d="M116.638 9.76085C116.481 10.0215 116.326 9.99378 116.173 9.76085C116.173 9.76085 116.173 9.75659 116.168 9.75446H116.173L116.638 9.76085Z" fill="#FECCBD"/>
<path d="M118.758 9.75516L118.441 9.67633C118.615 9.4512 118.669 9.6607 118.752 9.76226L118.758 9.75516Z" fill="#FECCBD"/>
<path d="M118.752 9.76226C118.783 9.77012 118.813 9.78206 118.841 9.79777C118.855 9.80913 118.854 9.84038 118.86 9.86239L118.758 9.75516L118.752 9.76226Z" fill="#FECCBD"/>
<path d="M119.464 10.221L119.455 10.2303C119.422 10.1926 119.384 10.1592 119.351 10.1202C119.377 10.1244 119.41 10.1202 119.422 10.1337C119.437 10.1537 119.448 10.176 119.455 10.1997C119.457 10.2072 119.46 10.2143 119.464 10.221Z" fill="#FECCBD"/>
<path d="M32.3274 52.602C32.2195 49.9743 30.3531 48.233 27.94 48.2543C25.421 48.2493 23.6789 49.9864 23.6697 52.5153C23.6626 55.018 25.4913 56.9006 27.9655 56.9383C30.182 56.9681 32.419 54.8248 32.3274 52.602ZM27.8789 56.2288C26.0104 56.2075 24.3763 54.4917 24.3713 52.5451C24.365 50.4018 25.808 48.9652 27.9776 48.9559C29.959 48.9488 31.6534 50.6319 31.6471 52.6041C31.6371 54.4491 29.7665 56.2522 27.8789 56.2288Z" fill="#FEF8F6"/>
<path d="M132.972 66.1521C130.589 66.2941 128.652 67.6434 128.618 70.5232C128.589 73.0088 130.383 74.7842 132.874 74.7956C135.411 74.8048 137.245 73.0301 137.292 70.5182C137.333 68.2975 135.204 66.0228 132.972 66.1521ZM132.852 74.0939C130.776 74.0939 129.321 72.643 129.316 70.5793C129.312 68.5155 130.976 66.7976 132.976 66.821C134.822 66.8423 136.61 68.7087 136.586 70.5849C136.561 72.6402 135.01 74.096 132.852 74.0939Z" fill="#FEF8F6"/>
<path d="M146.379 42.2498C145.843 41.9707 145.882 41.3976 145.669 40.9892C144.695 39.1272 143.893 37.1792 142.744 35.4066C142.554 35.1111 142.413 34.7845 142.46 34.4123L142.467 34.4052L142.934 34.6446C142.965 34.7454 142.993 34.8463 143.023 34.9471C143.052 34.9265 143.082 34.9073 143.111 34.8867C143.052 34.8044 142.993 34.7269 142.934 34.6446C142.915 33.536 142.035 32.698 141.989 31.5993L142 31.588C142.861 32.1959 143.341 33.0318 143.662 34.0338C144.073 35.2993 144.94 36.339 145.618 37.4682C146.7 39.2671 146.715 39.2557 146.379 42.2498Z" fill="#FEF8F6"/>
<path d="M105.104 47.3339C103.597 47.3644 102.057 49.012 102.104 50.5453C102.154 52.1254 103.677 53.6161 105.245 53.6132C106.902 53.6132 108.205 52.2192 108.201 50.4516C108.196 48.6577 106.846 47.2984 105.104 47.3339ZM105.306 52.7312C103.806 52.7475 102.82 51.8229 102.813 50.3876C102.805 49.2279 103.999 48.0377 105.156 48.0441C106.535 48.0512 107.486 49.0156 107.5 50.4217C107.51 51.8108 106.646 52.717 105.306 52.7333V52.7312Z" fill="#FEF8F6"/>
<path d="M125.424 43.9606C125.246 43.8548 125.014 43.7703 124.852 43.6126C124.603 43.369 124.41 43.0707 124.185 42.803C123.107 41.5375 122.81 41.5474 121.629 42.6461C121.258 42.9912 120.884 43.9244 120.311 43.3562C119.828 42.8826 120.746 42.5893 121.055 42.2817C121.924 41.4153 122.218 40.6384 121.093 39.7599C120.76 39.4993 120.509 39.1336 120.222 38.8161C120.091 38.6705 119.919 38.4994 120.072 38.314C120.264 38.0839 120.507 38.199 120.685 38.368C121.192 38.8537 121.711 39.3331 122.18 39.8537C122.596 40.3139 122.927 40.2975 123.33 39.8444C123.692 39.4411 124.119 39.0909 124.5 38.7039C124.739 38.4617 125.051 38.2551 125.319 38.4809C125.699 38.7998 125.225 38.9851 125.081 39.2181C125.056 39.2472 125.029 39.2745 125 39.2997C123.387 41.0276 123.387 41.0255 125.094 42.7583C125.312 42.9813 125.542 43.2014 125.706 43.4621C125.849 43.6907 125.798 43.918 125.424 43.9606Z" fill="#FEF8F6"/>
<path d="M27.8668 99.6629C26.2874 99.6423 24.8926 100.952 24.8841 102.469C24.877 103.762 26.4024 105.285 27.6985 105.276C29.2033 105.267 30.4902 103.962 30.5015 102.435C30.5157 100.768 29.4796 99.6842 27.8668 99.6629ZM27.7872 104.555C26.7639 104.614 25.5758 103.37 25.5949 102.349C25.6155 101.276 26.6254 100.36 27.7894 100.36C29.0457 100.365 29.7068 101.127 29.8176 102.42C29.9142 103.538 28.8511 104.492 27.7872 104.555Z" fill="#FEF8F6"/>
<path d="M28.8439 16.5664C27.9207 17.5806 26.7425 18.2808 25.6957 19.1394C22.5355 21.7315 19.2949 24.2292 16.6673 27.4072C16.3243 27.8234 15.977 28.3112 15.259 28.3347C15.7498 27.7175 16.1957 27.0564 16.7405 26.4918C19.0386 24.1042 21.3765 21.7613 24.041 19.7665C25.2874 18.834 26.4847 17.8391 27.79 16.9847C28.116 16.7688 28.4114 16.5032 28.8439 16.5664Z" fill="#FEF8F6"/>
<path d="M35.4804 36.0422C35.6353 36.2396 35.7198 36.4683 35.4875 36.6572C35.3135 36.7935 35.119 36.7111 34.9521 36.5862C34.9166 36.5678 34.8854 36.5421 34.8605 36.5109C33.9024 34.903 33.1042 35.7105 32.3038 36.6707C32.1277 36.8795 31.8621 37.1096 31.6015 36.8837C31.2613 36.5897 31.5617 36.3269 31.7662 36.0968C31.917 35.9169 32.0834 35.7505 32.2634 35.5997C33.1042 34.9521 33.2825 34.3676 32.1789 33.7902C31.8948 33.6397 31.5056 33.3137 31.7826 32.9522C32.0993 32.5318 32.4487 32.9188 32.6298 33.1773C33.3833 34.2476 34.0544 34.0764 34.7447 33.1255C34.8813 32.9338 35.0605 32.7763 35.2681 32.6653C35.6395 32.4799 35.7098 32.8017 35.8859 33.0438C35.609 33.3414 35.4045 33.6354 35.1325 33.8442C34.3719 34.4287 34.1276 34.9897 35.0827 35.6196C35.2361 35.7226 35.3604 35.8895 35.4804 36.0422Z" fill="#FEF8F6"/>
<path d="M15.627 71.565C15.7796 71.6867 15.9133 71.8303 16.024 71.9911C16.1433 72.1509 16.2278 72.3461 16.0709 72.5194C15.8855 72.7211 15.7279 72.5429 15.5738 72.4392C15.0433 72.0841 14.7755 71.1609 14.0497 71.3597C13.5171 71.5074 13.1265 72.1409 12.6599 72.5542C12.4348 72.7517 12.1628 73.1082 11.8858 72.7822C11.6089 72.4562 12.0755 72.2773 12.2331 72.045C12.3071 71.9541 12.3888 71.8697 12.4774 71.7929C13.6137 70.6453 13.6137 70.6453 12.5591 69.4266C12.383 69.2249 12.1294 69.0559 12.2189 68.7371C12.2445 68.6476 12.3553 68.5815 12.7047 68.2158C12.9887 68.6476 13.2401 69.0446 13.5079 69.4316C13.9517 70.0771 14.3999 70.0516 14.8458 69.4266C14.9149 69.3316 14.9988 69.2484 15.0944 69.1802C15.4495 68.9316 15.7755 68.186 16.1746 68.5652C16.6277 68.997 15.8905 69.3542 15.5922 69.5843C14.669 70.3072 14.7088 70.9152 15.627 71.565Z" fill="#FEF8F6"/>
<path d="M101.111 16.0444C101.083 16.1545 101.034 16.2745 100.752 16.2177C100.667 16.1467 100.456 16.0274 100.326 15.852C99.7013 15.0182 99.1239 15.0253 98.4592 15.8378C98.2384 16.1076 97.9309 16.7511 97.504 16.3285C97.1752 16.004 97.7128 15.629 97.9948 15.4152C98.8605 14.7555 98.8839 14.1589 97.9948 13.5155C97.8215 13.3891 97.5722 13.1682 97.7696 12.941C98.0111 12.6612 98.3051 12.8629 98.4642 13.0766C99.1744 14.0347 99.7865 13.7627 100.418 12.9879C100.56 12.8089 100.784 12.4524 101.068 12.7691C101.301 13.0276 101.068 13.3096 100.855 13.4644C99.9314 14.1284 99.8902 14.7647 100.838 15.4408C101.014 15.5757 101.178 15.7781 101.111 16.0444Z" fill="#FEF8F6"/>
<path d="M14.2912 29.7181C14.2138 30.1804 14.0824 30.6072 13.4717 30.8543C13.498 30.2209 13.8978 29.9716 14.287 29.7138L14.2912 29.7181Z" fill="#FEF8F6"/>
<path d="M14.2911 29.7181L14.2869 29.711C14.3124 29.3325 14.4999 29.0718 14.904 28.8936C15.034 29.4546 14.7442 29.6428 14.2911 29.7181Z" fill="#FEF8F6"/>
<path d="M115.192 9.61101C115.004 9.67208 114.908 9.73032 114.825 9.72108C114.642 9.69765 114.47 9.62024 114.483 9.39724C114.483 9.37168 114.685 9.31487 114.767 9.34327C114.896 9.38304 115.001 9.48389 115.192 9.61101Z" fill="#FEF8F6"/>
<path d="M29.5407 16.102C29.4072 16.4045 29.1721 16.5529 28.844 16.5664C28.8745 16.102 29.2026 16.0949 29.5407 16.102Z" fill="#FEF8F6"/>
<path d="M29.552 16.1016H29.5406C29.5406 16.1016 29.5406 16.0969 29.5406 16.0949L29.552 16.1016Z" fill="#FEF8F6"/>
<path d="M44.1095 9.04996C44.1095 9.04996 44.1095 9.05397 44.1049 9.05665L44.1095 9.04996Z" fill="#FEFEFE"/>
<path d="M130.507 19.3904H130.495L130.499 19.3837C130.499 19.3837 130.5 19.3884 130.507 19.3904Z" fill="#FEFEFE"/>
<path d="M130.806 19.4661C130.636 19.6912 130.583 19.4945 130.504 19.3908L130.806 19.4661Z" fill="#FEFEFE"/>
<path d="M142.468 34.406L142.461 34.4131L142.357 34.3023C142.381 34.3072 142.411 34.3023 142.428 34.3165C142.446 34.3443 142.459 34.3744 142.468 34.406Z" fill="#FEF8F6"/>
<path d="M142.092 33.8122C142.071 33.8051 142.04 33.8051 142.029 33.7909C142.013 33.7645 142.002 33.7361 141.994 33.7064H141.999C142.029 33.7391 142.062 33.7746 142.092 33.8122Z" fill="#FEF8F6"/>
<path d="M29.787 15.8669L29.5527 16.102L29.5435 16.0949C29.6209 16.0153 29.7004 15.9379 29.7778 15.8598L29.787 15.8669Z" fill="#FEF8F6"/>
<path d="M29.8014 15.8534L29.7872 15.8669L29.778 15.8598C29.7855 15.8567 29.7933 15.8546 29.8014 15.8534Z" fill="#FEF8F6"/>
<path d="M29.8815 15.771C29.8744 15.7895 29.8744 15.8158 29.8602 15.8271C29.842 15.8388 29.8221 15.8477 29.8013 15.8534C29.8275 15.825 29.8531 15.7966 29.8815 15.771Z" fill="#FEF8F6"/>
<path d="M130.411 19.3013C130.359 19.2544 130.308 19.2033 130.254 19.1536L130.265 19.1443C130.315 19.1983 130.362 19.2502 130.411 19.3013Z" fill="#FEFEFE"/>
<path d="M130.495 19.3823L130.491 19.3894L130.411 19.302C130.437 19.3297 130.467 19.356 130.495 19.3823Z" fill="#FEFEFE"/>
<path d="M142.001 31.5865L141.989 31.5979C141.956 31.5631 141.925 31.5269 141.893 31.49C141.93 31.5262 141.965 31.5539 142.001 31.5865Z" fill="#FEF8F6"/>
<path d="M141.999 33.7036H141.994C141.961 33.6681 141.923 33.6326 141.893 33.5999C141.914 33.6049 141.945 33.5999 141.956 33.6162C141.975 33.6428 141.989 33.6723 141.999 33.7036Z" fill="#FEF8F6"/>
<path d="M24.3714 52.5473C24.365 50.4026 25.8087 48.9659 27.9783 48.9581C29.9597 48.9503 31.6535 50.6341 31.6456 52.6055C31.6385 54.452 29.7665 56.2529 27.8817 56.2309C26.0111 56.2082 24.377 54.4924 24.3714 52.5473Z" fill="#A4DFFF"/>
<path d="M132.851 74.0939C130.777 74.0939 129.32 72.6438 129.315 70.5793C129.31 68.5148 130.977 66.7983 132.976 66.8203C134.822 66.8409 136.609 68.7073 136.586 70.5885C136.561 72.6409 135.01 74.0968 132.851 74.0939Z" fill="#A4DFFF"/>
<path d="M143.111 34.8874C143.083 34.908 143.052 34.9272 143.024 34.9478C142.994 34.847 142.966 34.7461 142.935 34.6453C142.994 34.7276 143.052 34.8051 143.111 34.8874Z" fill="#FECCBD"/>
<path d="M107.498 50.4246C107.511 51.8108 106.646 52.7177 105.307 52.7326C103.807 52.7497 102.821 51.8257 102.814 50.3891C102.807 49.2308 103.997 48.0391 105.158 48.0455C106.535 48.0547 107.486 49.0199 107.498 50.4246Z" fill="#A4DFFF"/>
<path d="M27.7886 100.363C29.0463 100.363 29.706 101.132 29.819 102.423C29.9155 103.539 28.8503 104.493 27.7864 104.553C26.7638 104.614 25.5764 103.369 25.5956 102.347C25.6155 101.276 26.626 100.36 27.7886 100.363Z" fill="#A4DFFF"/>
<path d="M47.2251 65.4927L27.9492 68.1229L29.6173 80.3474L48.8931 77.7172L47.2251 65.4927Z" fill="#EBEBEB"/>
<path d="M47.2196 65.498C46.5428 66.3502 45.8469 67.1697 45.1601 68.0092C44.4677 68.8344 43.7724 69.6596 43.0729 70.477C42.3429 71.3292 41.609 72.1769 40.8714 73.0201C40.8487 73.0471 40.8288 73.0741 40.8061 73.1011C40.1555 73.8439 39.5029 74.587 38.8481 75.3303L38.7508 75.4354L38.6315 75.3594C37.803 74.8188 36.9761 74.2762 36.1509 73.7317C36.1218 73.7154 36.0926 73.6955 36.0635 73.6756C35.1275 73.0606 34.1936 72.442 33.2612 71.8107C32.3721 71.2135 31.4815 70.6034 30.5931 69.9955C29.7089 69.3698 28.8176 68.7648 27.9377 68.1263C28.8532 68.6519 29.7579 69.2108 30.6662 69.7526C31.5731 70.3073 32.48 70.8619 33.3833 71.4286C34.388 72.0545 35.3936 72.6906 36.4002 73.3369C36.4002 73.3369 36.4002 73.3369 36.4065 73.3369C37.1593 73.8165 37.9121 74.2984 38.6649 74.7828C39.2579 74.1159 39.8537 73.4448 40.451 72.7858C40.451 72.7772 40.451 72.7772 40.4552 72.7765C41.2516 71.8898 42.0503 71.0077 42.8514 70.1304C43.57 69.3464 44.2923 68.5671 45.0181 67.7926C45.7567 67.0291 46.4789 66.2486 47.2196 65.498Z" fill="white"/>
<path d="M36.4734 73.611C36.4649 73.6181 36.4606 73.6273 36.4528 73.6344C36.3633 73.7352 36.2738 73.8361 36.1836 73.9334C35.7575 74.4078 35.3144 74.8658 34.8627 75.314C34.3123 75.8665 33.7456 76.4012 33.1753 76.9324C32.6051 77.4636 32.0234 77.9771 31.429 78.4827C30.8346 78.9884 30.2331 79.4862 29.6039 79.9528C30.1188 79.3605 30.6613 78.8002 31.2117 78.2484C31.7621 77.6966 32.3309 77.1604 32.8984 76.6292C33.4658 76.098 34.0531 75.5817 34.6475 75.076C35.1205 74.672 35.6027 74.2728 36.0991 73.8929C36.2135 73.8034 36.3285 73.7175 36.4464 73.6301C36.4542 73.6252 36.4649 73.6181 36.4734 73.611Z" fill="white"/>
<path d="M48.787 77.3365C48.0563 77.0525 47.3404 76.7379 46.6352 76.4091C45.93 76.0803 45.2312 75.7337 44.5345 75.3836C43.8378 75.0335 43.1532 74.6613 42.475 74.2757C41.9225 73.9646 41.3743 73.6444 40.8416 73.3021C40.7259 73.231 40.613 73.16 40.4993 73.0833C40.4901 73.0784 40.483 73.0705 40.4738 73.0663C40.4835 73.0709 40.4937 73.0742 40.5043 73.0762C40.6421 73.1316 40.7756 73.1842 40.9098 73.2396C41.49 73.4725 42.0589 73.7282 42.6256 73.9902C43.3358 74.3183 44.0296 74.6656 44.7234 75.0193C45.4173 75.3729 46.1047 75.7422 46.7829 76.1271C47.4611 76.512 48.133 76.9062 48.787 77.3365Z" fill="white"/>
<path d="M131.467 33.1198H107.61V48.2493H131.467V33.1198Z" fill="#EBEBEB"/>
<path d="M131.467 33.1198C130.503 34.043 129.521 34.9236 128.551 35.8305C127.573 36.7183 126.592 37.6034 125.608 38.4859C124.579 39.4029 123.549 40.3115 122.516 41.2115C122.484 41.2406 122.455 41.2697 122.423 41.2989C121.509 42.0933 120.593 42.888 119.675 43.6829L119.539 43.7951L119.406 43.6829C118.489 42.8885 117.574 42.0921 116.662 41.2939C116.63 41.2697 116.597 41.2406 116.565 41.2115C115.53 40.3096 114.498 39.4027 113.469 38.4809C112.488 37.6081 111.507 36.7211 110.528 35.8334C109.557 34.9265 108.576 34.0437 107.612 33.1227C108.637 33.9124 109.643 34.7411 110.657 35.5507C111.668 36.3745 112.678 37.1983 113.681 38.0363C114.799 38.9633 115.916 39.9027 117.031 40.8543C117.031 40.8543 117.031 40.8543 117.038 40.8593C117.873 41.5666 118.707 42.2768 119.542 42.9898C120.374 42.2796 121.208 41.5609 122.043 40.8593C122.047 40.85 122.047 40.85 122.05 40.85C123.164 39.9031 124.281 38.9636 125.4 38.0314C126.403 37.1976 127.41 36.3705 128.42 35.55C129.436 34.7383 130.443 33.9095 131.467 33.1198Z" fill="white"/>
<path d="M117.064 41.1973C117.054 41.2044 117.047 41.2151 117.036 41.2222C116.91 41.3294 116.785 41.4352 116.66 41.5411C116.062 42.0457 115.45 42.5317 114.825 42.999C114.066 43.58 113.288 44.1353 112.507 44.6871C111.726 45.2276 110.934 45.7652 110.128 46.2807C109.322 46.7963 108.509 47.302 107.667 47.7643C108.391 47.1301 109.143 46.5392 109.903 45.9619C110.663 45.3845 111.443 44.8256 112.221 44.2745C112.999 43.7234 113.797 43.1929 114.603 42.6766C115.242 42.2647 115.897 41.8599 116.563 41.48C116.717 41.3905 116.871 41.3046 117.029 41.2186C117.039 41.2115 117.054 41.2044 117.064 41.1973Z" fill="white"/>
<path d="M131.41 47.7643C130.568 47.302 129.751 46.797 128.948 46.2807C128.146 45.7644 127.354 45.2276 126.566 44.6871C125.785 44.1353 125.008 43.58 124.248 42.999C123.628 42.5303 123.016 42.0495 122.42 41.5446C122.292 41.4374 122.166 41.3316 122.04 41.2222C122.03 41.2151 122.023 41.2044 122.012 41.1973C122.023 41.2048 122.036 41.2108 122.048 41.2151C122.206 41.3046 122.359 41.3905 122.513 41.48C123.18 41.8599 123.829 42.2647 124.474 42.6766C125.28 43.1929 126.068 43.7298 126.853 44.2745C127.637 44.8192 128.411 45.3817 129.171 45.9619C129.931 46.5421 130.686 47.1301 131.41 47.7643Z" fill="white"/>
<path d="M76.2785 147.536C99.3813 147.536 118.11 146.086 118.11 144.297C118.11 142.508 99.3813 141.058 76.2785 141.058C53.1758 141.058 34.4473 142.508 34.4473 144.297C34.4473 146.086 53.1758 147.536 76.2785 147.536Z" fill="#EBEBEB"/>
<path d="M90.2931 55.1245V14.9373" stroke="#C8C8C8" stroke-miterlimit="10"/>
<path d="M78.3671 66.6208L79.3265 68.7293H101.262L102.218 66.6208L92.8794 60.1561H87.7058L78.3671 66.6208Z" fill="#FFC800"/>
<path d="M87.0575 53.9286L87.7059 60.1561H92.8795L93.5279 53.9286H87.0575Z" fill="#FFC800"/>
<path opacity="0.1" d="M78.3678 66.6215L79.3272 68.73H101.263L102.22 66.6215H78.3678Z" fill="black"/>
<path opacity="0.1" d="M87.7058 60.1561L87.6362 59.4878L92.9895 59.1007L92.8794 60.1561H87.7058Z" fill="black"/>
<path d="M70.3883 42.4792V14.9373" stroke="#C8C8C8" stroke-miterlimit="10"/>
<path d="M58.4624 53.9748L59.4218 56.0833H81.3576L82.3142 53.9748L72.9755 47.5108H67.8019L58.4624 53.9748Z" fill="#FFC800"/>
<path d="M67.1536 41.2826L67.802 47.5108H72.9756L73.6232 41.2826H67.1536Z" fill="#FFC800"/>
<path opacity="0.1" d="M58.4639 53.9761L59.4226 56.0846H81.3591L82.315 53.9761H58.4639Z" fill="black"/>
<path opacity="0.1" d="M67.8018 47.5108L67.7266 46.7906L73.0862 46.4427L72.9754 47.5108H67.8018Z" fill="black"/>
<path d="M31.6747 139.764L80.3435 139.977C92.1729 130.688 93.3944 116.926 84.9554 108.588C79.8478 103.545 73.3625 104.56 67.1862 103.758C67.1805 103.758 67.1748 103.758 67.1684 103.758C65.0173 103.474 62.9074 102.977 60.904 101.921C54.5458 98.565 50.9616 90.6515 45.6112 83.9951C44.9441 83.1599 44.2457 82.3503 43.5161 81.5663C39.1166 76.8685 30.3602 76.7158 25.7803 83.3197C14.1434 100.09 19.474 125.066 31.6747 139.764Z" fill="#FFC800"/>
<path opacity="0.1" d="M30.5946 101.369C31.8693 121.337 54.9293 128.791 69.3316 122.81C81.8541 117.608 77.7557 105.737 67.1862 103.751C67.1805 103.751 67.1748 103.751 67.1684 103.751C65.0173 103.467 62.9074 102.97 60.904 101.913C54.5458 98.5572 50.9616 90.6438 45.6112 83.9873C37.6409 79.8442 29.6593 86.7492 30.5946 101.369Z" fill="black"/>
<path d="M120.453 106.584C120.553 105.109 120.737 103.631 121.077 102.19C121.387 100.889 121.827 99.5621 122.647 98.484C123.396 97.5019 124.473 96.72 125.724 96.5666C126.932 96.4189 128.061 96.9557 128.963 97.7156C130.08 98.6559 130.935 99.9015 131.738 101.109C132.636 102.458 133.4 103.862 134.135 105.305C134.16 105.352 134.086 105.393 134.064 105.345C133.443 104.12 132.726 102.946 131.92 101.834C131.173 100.788 130.374 99.7453 129.452 98.8448C128.625 98.0373 127.574 97.2824 126.374 97.2441C125.175 97.2057 124.081 97.8754 123.363 98.7944C122.56 99.8227 122.156 101.106 121.846 102.357C121.51 103.729 121.342 105.133 121.227 106.54C120.992 109.435 120.928 112.347 120.863 115.248C120.825 116.891 120.803 118.534 120.789 120.177C120.781 121.009 120.775 121.842 120.769 122.674C120.762 123.476 120.804 124.289 120.672 125.081C120.645 125.243 120.38 125.228 120.353 125.074C120.221 124.324 120.254 123.552 120.243 122.793C120.232 122.003 120.223 121.214 120.215 120.426C120.201 118.892 120.195 117.358 120.198 115.824C120.205 112.746 120.242 109.656 120.453 106.584Z" fill="#1A2E35"/>
<path d="M124.589 104.402C124.742 103.583 125.015 102.516 125.485 101.882C126.323 100.746 127.228 101.238 126.391 102.5C125.478 103.878 125.346 104.966 125.215 105.611C125.215 105.611 126.623 107.624 128.324 108.615C128.253 107.841 128.032 106.651 128.182 105.503C128.509 103.018 130.012 103.16 129.64 105.132C129.342 106.716 129.219 108.399 129.3 109.125C129.811 109.512 130.681 109.845 131.117 110.016C131.019 109.727 130.916 109.382 130.801 108.963C130.198 106.734 131.684 106.038 131.732 107.292C131.768 108.323 132.167 109.92 132.31 110.454C133.125 110.727 133.801 110.915 134.214 111.06C135.932 111.663 137.002 112.965 137.002 112.965C137.776 112.265 138.419 111.433 138.901 110.507C138.382 110.06 137.561 109.395 136.421 108.59C134.284 107.081 135.028 105.177 136.723 106.361C137.946 107.213 138.893 108.799 139.323 109.612C139.912 108.204 140.222 106.66 140.292 105.162C138.613 103.587 134.463 101.392 135.714 101.392C136.84 101.392 139.359 103.043 140.284 103.68C140.26 103.246 140.212 102.815 140.142 102.386C138.561 101.35 133.424 99.7389 134.242 99.2752C135.142 98.7667 138.725 100.426 139.809 100.951C139.571 100.18 139.25 99.5095 138.859 98.9847C136.675 96.0602 132.737 95.0532 131.019 95.61C129.802 96.0048 130.157 99.0898 129.897 98.9847C125.013 97.0204 122.792 98.4095 124.589 104.402ZM136.562 104.064C136.908 103.645 138.512 104.876 138.048 105.55C137.584 106.223 136.118 104.603 136.562 104.064ZM128.182 101.433C128.604 101.701 127.981 103.259 127.33 102.787C126.781 102.385 127.761 101.162 128.186 101.433H128.182Z" fill="#FFC800"/>
<path d="M128.826 101.91C129.046 101.475 129.276 101.041 129.527 100.622C129.767 100.223 130.024 99.7986 130.335 99.4513C130.264 99.3661 130.198 99.2787 130.126 99.1949C130.097 99.1601 130.146 99.1119 130.176 99.1459C130.259 99.2397 130.336 99.3348 130.416 99.43C130.432 99.4384 130.444 99.4527 130.45 99.4698C130.752 99.8313 131.036 100.204 131.308 100.584C131.789 100.694 132.263 100.831 132.728 100.995C133.207 101.156 133.682 101.322 134.148 101.519C134.197 101.539 134.173 101.619 134.125 101.598C133.663 101.394 133.195 101.196 132.717 101.035C132.265 100.882 131.805 100.764 131.346 100.634C131.495 100.848 131.642 101.061 131.782 101.274C132.643 101.521 133.486 101.913 134.291 102.297C135.138 102.7 135.954 103.168 136.766 103.637C136.812 103.663 136.766 103.735 136.723 103.708C135.924 103.242 135.102 102.816 134.261 102.434C133.475 102.066 132.662 101.764 131.869 101.414C133.864 104.526 135.061 108.118 136.659 111.444C136.683 111.492 136.608 111.532 136.588 111.484C136.101 110.318 135.538 109.181 135.006 108.034C134.529 107.004 134.063 105.969 133.586 104.939C133.444 104.637 133.302 104.336 133.16 104.036C133.246 105.699 133.212 107.39 133.484 109.034C133.485 109.039 133.485 109.045 133.484 109.051C133.483 109.057 133.481 109.063 133.478 109.068C133.474 109.072 133.47 109.077 133.465 109.08C133.46 109.083 133.454 109.085 133.448 109.085C133.442 109.086 133.436 109.085 133.431 109.083C133.425 109.081 133.42 109.078 133.415 109.074C133.411 109.07 133.408 109.065 133.406 109.06C133.403 109.054 133.402 109.048 133.403 109.042C133.287 107.267 132.977 105.517 132.986 103.73C132.986 103.72 132.994 103.715 132.996 103.707C132.658 103.028 132.298 102.358 131.908 101.705C131.247 103.261 130.552 104.841 130.244 106.512C130.235 106.563 130.151 106.54 130.165 106.488C130.614 104.813 131.031 103.136 131.837 101.588C131.414 100.883 130.945 100.206 130.433 99.5628C130.211 99.9761 129.926 100.367 129.675 100.762C129.424 101.157 129.186 101.537 128.959 101.935C128.468 102.776 128.05 103.658 127.711 104.572C127.693 104.622 127.612 104.596 127.632 104.548C128.004 103.661 128.39 102.771 128.826 101.91Z" fill="#1A2E35"/>
<path d="M113.102 105.695C114.381 104.411 115.872 102.727 117.848 102.73C119.757 102.73 121.163 104.271 121.967 105.855C122.811 107.513 123.114 109.392 123.353 111.218C123.633 113.406 123.802 115.607 123.859 117.812C123.893 119.036 123.888 120.262 123.859 121.487C123.828 122.722 123.798 123.972 123.574 125.194C123.539 125.391 123.219 125.398 123.21 125.185C123.152 124.154 123.194 123.118 123.199 122.087C123.205 121.071 123.189 120.055 123.152 119.039C123.077 116.985 122.927 114.933 122.685 112.892C122.472 111.109 122.308 109.275 121.774 107.552C121.293 105.999 120.39 104.222 118.815 103.539C116.666 102.608 114.566 104.309 113.16 105.746C113.129 105.785 113.065 105.733 113.102 105.695Z" fill="#1A2E35"/>
<path d="M106.575 108.563C106.585 108.826 106.6 109.085 106.618 109.339C107.202 108.928 107.936 108.558 108.715 108.47C110.532 108.277 110.42 109.658 109.203 109.716C108.045 109.771 107.269 109.968 106.71 110.213C107.006 112.612 107.666 114.54 107.765 114.567C107.865 114.593 110.085 114.431 112.565 113.96C112.114 112.997 111.085 111.718 111.609 111.617C112.146 111.509 112.707 112.651 112.997 113.873C114.194 113.632 115.426 113.316 116.488 112.913C115.689 112.221 114.454 111.36 114.926 110.995C115.397 110.63 116.378 111.84 116.966 112.721C117.501 112.504 118.008 112.221 118.475 111.88C117.398 110.298 114.774 109.976 115.116 108.833C115.466 107.667 117.914 109.275 119.016 111.39C120.311 110.047 120.69 108.147 120.554 106.524C119.426 106.393 117.257 106.631 117.414 105.821C117.561 105.05 119.139 105.165 120.422 105.638C120.264 104.902 119.996 104.274 119.668 103.854C118.48 102.328 114.854 104.268 114.854 104.268C114.854 104.268 115.242 100.623 113.859 99.9931C113.062 99.6309 111.658 99.6338 110.244 100.465C111.036 100.53 111.992 100.781 112.374 101.33C112.866 102.031 112.09 102.412 111.593 102.089C111.247 101.859 110.599 101.138 109.427 101.043C108.927 101.464 108.486 101.952 108.118 102.492C107.984 102.68 107.859 102.879 107.735 103.095C108.876 102.621 110.385 102.379 111.981 103.172C113.553 103.953 112.675 105.586 111.322 104.947C109.983 104.321 108.681 103.69 107.247 104.049C106.721 105.263 106.546 106.699 106.557 108.114C107.259 107.602 108.048 107.223 108.887 106.996C110.449 106.586 110.922 107.52 109.205 107.694C108.278 107.802 107.383 108.098 106.575 108.563ZM108.477 106.054C108.369 105.547 109.478 105.403 109.662 105.813C109.812 106.165 108.578 106.561 108.473 106.054H108.477ZM117.961 108.859C118.066 108.583 118.808 108.897 118.742 109.241C118.644 109.701 117.856 109.134 117.958 108.859H117.961ZM112.725 110.634C113.266 110.421 114.11 111.763 113.521 112.07C112.931 112.378 112.28 110.813 112.722 110.635L112.725 110.634Z" fill="#FFC800"/>
<path d="M107.973 114.295C108.788 112.932 109.593 111.563 110.448 110.226C110.847 109.603 111.263 108.993 111.697 108.394C111.632 108.381 111.567 108.362 111.504 108.348C111.396 108.326 111.291 108.305 111.179 108.286C110.929 108.243 110.677 108.206 110.424 108.181C110.186 108.157 109.948 108.144 109.709 108.141C109.453 108.127 109.197 108.141 108.944 108.181C108.914 108.188 108.909 108.14 108.938 108.141C109.193 108.151 109.453 108.118 109.708 108.114C109.964 108.11 110.205 108.114 110.45 108.132C110.683 108.145 110.913 108.168 111.144 108.203C111.27 108.223 111.397 108.245 111.524 108.269C111.595 108.284 111.678 108.295 111.752 108.318C112.193 107.711 112.651 107.117 113.125 106.534C111.696 105.878 110.227 105.337 108.665 105.113C108.639 105.11 108.649 105.069 108.675 105.074C110.231 105.322 111.791 105.724 113.2 106.446C113.459 106.126 113.721 105.808 113.985 105.491C114.28 105.136 114.595 104.79 114.861 104.414C114.879 104.389 114.915 104.414 114.895 104.438C114.528 104.842 114.183 105.264 113.861 105.704C113.861 105.704 113.866 105.704 113.868 105.704C114.457 106.097 114.998 106.567 115.526 107.035C116.068 107.516 116.596 108.013 117.111 108.527C117.13 108.545 117.101 108.575 117.083 108.556C116.574 108.051 116.048 107.569 115.497 107.112C114.946 106.655 114.367 106.234 113.814 105.782C113.814 105.782 113.814 105.776 113.81 105.773C113.683 105.941 113.557 106.107 113.43 106.27C113.366 106.353 113.302 106.437 113.239 106.52C113.235 106.527 113.231 106.533 113.225 106.538C113.013 106.814 112.802 107.091 112.592 107.368C112.849 107.712 113.038 108.118 113.222 108.505C113.405 108.892 113.563 109.286 113.709 109.685C114.013 110.512 114.216 111.375 114.389 112.237C114.394 112.264 114.354 112.275 114.349 112.249C114.175 111.395 113.927 110.558 113.608 109.747C113.449 109.33 113.269 108.924 113.083 108.519C112.914 108.151 112.709 107.797 112.55 107.424C112.368 107.667 112.186 107.912 112.007 108.157C111.955 108.228 111.906 108.299 111.854 108.37C111.862 108.387 111.854 108.407 111.837 108.408H111.83C111.27 109.189 110.737 109.99 110.22 110.798C110.251 110.854 110.275 110.914 110.291 110.976C110.324 111.074 110.355 111.173 110.384 111.273C110.442 111.472 110.489 111.674 110.526 111.879C110.561 112.071 110.588 112.265 110.607 112.459C110.629 112.672 110.607 112.91 110.656 113.119C110.657 113.122 110.657 113.125 110.656 113.128C110.655 113.13 110.654 113.133 110.652 113.136C110.65 113.138 110.648 113.14 110.645 113.141C110.642 113.142 110.639 113.143 110.636 113.143C110.633 113.143 110.63 113.142 110.627 113.141C110.625 113.14 110.622 113.138 110.62 113.136C110.618 113.133 110.617 113.13 110.616 113.128C110.615 113.125 110.615 113.122 110.616 113.119C110.648 112.924 110.598 112.697 110.571 112.504C110.541 112.292 110.502 112.084 110.454 111.877C110.41 111.688 110.36 111.502 110.303 111.32C110.276 111.227 110.246 111.136 110.215 111.044C110.198 110.997 110.174 110.945 110.158 110.894C109.915 111.273 109.676 111.655 109.438 112.04C108.97 112.802 108.503 113.565 108.037 114.328C108.012 114.367 107.95 114.332 107.973 114.295Z" fill="#1A2E35"/>
<path d="M120.537 124.755C120.558 123.983 120.679 123.205 120.764 122.437C120.848 121.67 120.935 120.896 121.017 120.124C121.176 118.638 121.264 117.118 121.615 115.661C121.915 114.408 122.467 113.207 123.43 112.323C123.918 111.876 124.537 111.509 125.211 111.471C125.9 111.433 126.537 111.672 127.102 112.054C127.746 112.489 128.243 113.104 128.692 113.729C129.153 114.37 129.568 115.042 129.932 115.743C129.946 115.77 129.904 115.786 129.889 115.761C129.202 114.592 128.29 113.571 127.207 112.755C126.71 112.377 126.142 112.093 125.516 112.05C124.891 112.008 124.335 112.305 123.876 112.705C122.977 113.486 122.456 114.638 122.145 115.768C121.777 117.108 121.659 118.518 121.475 119.891C121.365 120.708 121.262 121.525 121.154 122.342C121.046 123.16 120.978 123.988 120.806 124.789C120.799 124.822 120.78 124.852 120.752 124.872C120.724 124.892 120.69 124.901 120.656 124.897C120.622 124.892 120.59 124.875 120.568 124.849C120.546 124.823 120.535 124.789 120.537 124.755Z" fill="#1A2E35"/>
<path d="M124.334 118.76C124.573 119.083 124.856 119.372 125.174 119.617C125.047 118.864 124.89 117.526 125.274 116.813C125.864 115.706 126.564 116.258 126.211 117.221C125.704 118.594 125.638 119.521 125.643 119.948C126.392 120.44 127.295 120.839 128.208 121.156C128.112 120.723 128.083 120.278 128.123 119.836C128.241 118.653 129.147 118.675 128.911 119.907C128.824 120.384 128.782 120.868 128.788 121.352C130.095 121.755 131.431 122.056 132.784 122.254C133.553 121.229 134.093 120.244 134.438 119.309C133.475 119.068 131.526 119.013 131.567 118.325C131.622 117.402 133.511 118.112 134.616 118.784C134.869 117.978 134.981 117.136 134.949 116.292C134.518 116.15 133.72 115.976 132.293 115.852C130.311 115.681 130.409 114.557 131.845 114.583C132.905 114.602 134.246 115.251 134.882 115.589C134.468 112.89 132.41 111.163 130.763 111.097C127.993 110.985 128.987 114.435 128.987 114.435C128.987 114.435 127.108 113.113 125.335 113.148C123.562 113.182 122.438 116.122 124.334 118.76ZM131.741 113.771C131.68 113.383 132.917 113.29 132.981 113.788C133.055 114.347 131.804 114.166 131.741 113.771ZM133.73 117.819C133.704 117.565 134.239 117.521 134.36 117.84C134.443 118.049 133.754 118.071 133.732 117.82L133.73 117.819ZM127.071 118.055C127.49 118.114 127.727 119.609 127.007 119.579C126.46 119.557 126.719 118.005 127.074 118.056L127.071 118.055Z" fill="#FFC800"/>
<path d="M127.652 119.715C127.723 119.529 127.782 119.34 127.841 119.147C127.787 119.339 127.739 119.532 127.704 119.726C127.703 119.73 127.703 119.734 127.701 119.738C127.699 119.741 127.697 119.744 127.694 119.747C127.69 119.749 127.687 119.751 127.683 119.752C127.679 119.753 127.675 119.753 127.671 119.752C127.667 119.751 127.663 119.75 127.66 119.747C127.657 119.745 127.654 119.742 127.653 119.738C127.651 119.735 127.65 119.731 127.65 119.727C127.649 119.723 127.65 119.719 127.652 119.715Z" fill="#1A2E35"/>
<path d="M128.384 117.315C128.514 116.931 128.66 116.554 128.81 116.179C128.889 115.978 128.972 115.779 129.06 115.581C129.131 115.415 129.196 115.226 129.307 115.084C129.221 114.929 129.146 114.767 129.083 114.601C129.081 114.597 129.081 114.594 129.082 114.59C129.083 114.587 129.086 114.584 129.089 114.582C129.092 114.58 129.096 114.579 129.099 114.58C129.103 114.581 129.106 114.583 129.108 114.586C129.321 114.833 129.483 115.143 129.649 115.424C129.725 115.554 129.798 115.687 129.874 115.819C130.031 115.833 130.187 115.857 130.341 115.89C130.507 115.919 130.673 115.954 130.838 115.99C131.004 116.027 131.168 116.066 131.335 116.106C131.502 116.145 131.661 116.199 131.827 116.224C131.831 116.224 131.835 116.226 131.839 116.228C131.842 116.23 131.845 116.232 131.847 116.236C131.85 116.239 131.851 116.243 131.852 116.247C131.852 116.25 131.852 116.254 131.851 116.258C131.85 116.262 131.848 116.266 131.846 116.269C131.843 116.272 131.84 116.274 131.836 116.276C131.833 116.277 131.829 116.278 131.825 116.278C131.821 116.278 131.817 116.277 131.813 116.275C131.644 116.216 131.471 116.171 131.294 116.141C131.135 116.106 130.975 116.078 130.814 116.055C130.653 116.032 130.492 116.012 130.33 115.995C130.208 115.983 130.085 115.978 129.963 115.966C130.029 116.082 130.097 116.197 130.162 116.315L130.191 116.371C130.325 116.369 130.459 116.385 130.59 116.418C130.732 116.444 130.874 116.471 131.016 116.502C131.305 116.566 131.594 116.635 131.879 116.715C132.479 116.882 133.072 117.074 133.664 117.267C133.697 117.278 133.676 117.328 133.643 117.317C133.055 117.119 132.456 116.953 131.85 116.82C131.566 116.756 131.282 116.691 130.998 116.632L130.572 116.541C130.46 116.524 130.349 116.5 130.24 116.47C130.546 117.033 130.833 117.606 131.097 118.191C131.672 119.463 132.156 120.773 132.649 122.079C132.662 122.112 132.611 122.133 132.6 122.101C132.139 120.796 131.557 119.54 130.948 118.299C130.837 118.073 130.723 117.848 130.611 117.623C130.602 117.669 130.59 117.715 130.582 117.761C130.553 117.916 130.526 118.07 130.5 118.225C130.448 118.534 130.395 118.843 130.349 119.154C130.256 119.781 130.104 120.444 130.125 121.08C130.125 121.121 130.066 121.119 130.072 121.08C130.122 120.773 130.122 120.452 130.143 120.142C130.164 119.818 130.188 119.493 130.225 119.17C130.262 118.858 130.301 118.547 130.352 118.238C130.378 118.083 130.406 117.929 130.434 117.774C130.455 117.662 130.46 117.535 130.521 117.439C130.358 117.113 130.198 116.787 130.034 116.461C129.879 116.156 129.722 115.853 129.565 115.55C129.498 115.422 129.423 115.293 129.352 115.162C129.301 115.322 129.24 115.478 129.168 115.63C129.097 115.805 129.026 115.98 128.955 116.155C128.796 116.541 128.648 116.936 128.5 117.323C128.287 117.878 128.059 118.446 127.886 119.024C128.051 118.451 128.194 117.872 128.384 117.315Z" fill="#1A2E35"/>
<path d="M127.841 119.151C127.853 119.105 127.868 119.061 127.881 119.017C127.868 119.061 127.855 119.106 127.841 119.151Z" fill="#1A2E35"/>
<path d="M115.9 123.253L116.096 127.382L116.598 138.021H127.575L128.076 127.382L128.272 123.253H115.9Z" fill="#2B454E"/>
<path d="M115.9 123.253L116.096 127.382H128.076L128.272 123.253H115.9Z" fill="#1A2E35"/>
<path d="M115.12 124.922H129.052V121.584H115.12V124.922Z" fill="#2B454E"/>
<path d="M126.687 138.021H124.759V139.769H126.687V138.021Z" fill="#2B454E"/>
<path d="M126.687 138.021H124.759V138.895H126.687V138.021Z" fill="#1A2E35"/>
<path d="M119.411 138.021H117.486V139.769H119.411V138.021Z" fill="#2B454E"/>
<path d="M119.411 138.021H117.486V138.895H119.411V138.021Z" fill="#1A2E35"/>
<path d="M19.1736 139.813L80.3414 139.778L141.509 139.813L80.3414 139.849L19.1736 139.813Z" fill="#1A2E35"/>
<path d="M69.149 99.4896C69.149 99.4896 82.0827 104.754 90.7759 98.7305C102.926 90.3128 100.56 75.5228 97.0631 72.9321C93.5662 70.3414 89.3328 74.7785 93.8673 79.009C98.2917 83.1365 106.23 83.0357 110.098 76.5589C113.965 70.0821 110.791 62.168 119.891 59.0652" stroke="#1A2E35" stroke-width="0.75" stroke-miterlimit="10" stroke-dasharray="4 5"/>
<path d="M119.259 54.5059L117.023 60.6461L121.716 56.9809L139.661 50.4728L119.259 54.5059Z" fill="#FFC800"/>
<path opacity="0.1" d="M119.259 54.5059L117.023 60.6461L121.716 56.9809L139.661 50.4728L119.259 54.5059Z" fill="black"/>
<path d="M122.318 58.4112L117.023 60.6461L121.716 56.9809L122.318 58.4112Z" fill="#1A2E35"/>
<path d="M121.716 56.9809L139.661 50.4728L124.942 64.8361L121.716 56.9809Z" fill="#FFC800"/>
<path d="M119.259 54.5059L111.801 49.6917L139.661 50.4729L119.259 54.5059Z" fill="#FFC800"/>
<path d="M76.4119 142.909C75.6606 142.633 58.7002 129.078 58.3799 128.153C58.2564 127.802 60.0844 125.217 62.3867 122.156C62.8839 121.495 63.4001 120.815 63.9292 120.128C67.3565 115.662 71.0977 111.004 71.0977 111.004L82.4697 120.038L74.988 128.915L73.3468 130.865C73.3468 130.865 77.5198 138.961 77.762 140.012C78.0041 141.063 77.1626 143.184 76.4119 142.909Z" fill="#ED776A"/>
<path d="M76.4106 142.908C75.6614 142.633 58.7011 129.08 58.3808 128.153C58.2792 127.869 59.4709 126.1 61.1576 123.808C63.624 126.756 72.2227 135.532 74.5706 136.706C76.0619 137.452 75.7658 135.988 75.2097 134.532C76.3559 136.821 77.6314 139.441 77.7663 140.009C77.9993 141.061 77.1627 143.183 76.4106 142.908Z" fill="#1A2E35"/>
<path d="M93.9561 102.666C93.1749 108.573 78.6164 125.629 76.934 127.585L76.5505 128.031L64.5067 118.775L64.6487 118.596L75.2544 104.709C75.2544 104.709 57.7132 114.943 48.9411 110.297C45.0018 108.212 42.0795 104.504 42.0795 104.504L53.5324 98.3967C53.5324 98.3967 56.7012 99.4215 58.7273 99.126C65.709 98.1041 81.3534 92.1663 85.0648 92.314C89.8499 92.5115 94.6705 97.2441 93.9561 102.666Z" fill="#2B454E"/>
<path d="M79.0602 99.5465C78.6491 99.9633 78.3202 100.484 77.9659 100.949C77.5916 101.44 77.2102 101.927 76.836 102.419L76.8246 102.434C76.8914 102.292 76.9567 102.145 77.0256 102.002C77.2614 101.513 77.4517 101.008 77.7301 100.539C77.7337 100.533 77.7348 100.526 77.7332 100.52C77.7316 100.513 77.7274 100.507 77.7216 100.504C77.7157 100.5 77.7087 100.499 77.7021 100.501C77.6954 100.502 77.6896 100.506 77.6861 100.512C77.402 100.977 77.0654 101.418 76.8197 101.908C76.7041 102.138 76.595 102.371 76.4923 102.607C76.4369 102.737 76.3793 102.867 76.3289 102.999C76.3019 103.06 76.2782 103.123 76.2579 103.188C76.0903 103.415 75.9248 103.645 75.7608 103.879C75.4057 104.396 75.0883 104.944 74.7268 105.456C74.7076 105.483 74.7516 105.508 74.7708 105.483C75.1373 105 75.5477 104.55 75.9192 104.071C76.2906 103.592 76.657 103.082 77.0114 102.58C77.3572 102.087 77.6967 101.59 78.0419 101.097C78.387 100.604 78.8025 100.11 79.0851 99.5727C79.1 99.5521 79.0766 99.5301 79.0602 99.5465Z" fill="#1A2E35"/>
<path d="M40.1669 82.5073C40.0078 86.0312 39.223 90.234 40.7165 93.5711C41.8904 96.1845 44.3533 97.9443 46.9028 99.0749C52.5132 101.556 60.3627 101.879 64.2914 96.3124C65.8595 94.0881 66.1279 89.4564 63.5258 87.7612C62.1893 86.8933 60.6006 86.6959 59.0908 86.2833C57.1023 85.7507 55.6614 84.6322 54.7396 82.7765C52.9386 79.1638 53.2987 76.5177 52.9542 72.609C52.8882 71.8846 52.7184 71.1694 52.0019 70.558C51.3975 69.933 50.5744 69.5048 49.6832 69.2711C48.9261 68.9672 48.1293 68.7896 47.3084 68.8784C45.577 69.0595 43.9159 70.6538 42.5765 71.6481C41.2215 72.6558 40.5986 73.7076 40.4935 75.4077C40.3501 77.7733 40.2755 80.141 40.1669 82.5073Z" fill="#1A2E35"/>
<path d="M39.7309 84.1677C40.086 80.947 40.5015 77.7385 40.8977 74.5242C40.8977 74.5051 40.9304 74.5051 40.9283 74.5242C40.6797 77.1782 40.4674 79.8328 40.1833 82.4853C39.9056 85.0838 39.4412 87.7405 39.3915 90.3511C39.2807 96.2193 45.315 98.6083 50.3054 98.3214C50.5319 98.3086 50.5277 98.6715 50.2976 98.6765C45.9087 98.7908 40.6705 97.2916 39.3453 92.5221C38.6209 89.9144 39.4419 86.801 39.7309 84.1677Z" fill="#1A2E35"/>
<path d="M52.673 72.3007C52.6745 72.2888 52.6802 72.2779 52.6892 72.2699C52.6981 72.262 52.7097 72.2576 52.7217 72.2576C52.7337 72.2576 52.7452 72.262 52.7542 72.2699C52.7631 72.2779 52.7689 72.2888 52.7703 72.3007C52.9173 75.5284 52.7859 79.3044 54.6239 82.1153C55.5296 83.4992 56.8332 84.5765 58.3629 85.2052C59.5702 85.6988 60.8585 85.7414 62.1268 85.9907C67.0817 86.9636 67.1293 93.6542 63.5287 96.2633C63.4534 96.3187 63.3561 96.1923 63.43 96.1319C65.9639 94.1122 66.7998 90.4421 64.7332 87.747C63.0749 85.5845 59.8905 86.2705 57.6315 85.103C52.9393 82.6863 52.5722 76.9871 52.673 72.3007Z" fill="#1A2E35"/>
<path d="M47.6003 86.3167C49.7443 89.3953 57.069 97.8563 62.1517 99.0146C64.9526 99.6537 78.4857 101.546 80.342 99.8582C82.5145 97.8818 81.5067 90.43 79.7796 90.3625C74.508 90.1552 64.7523 91.1863 62.3157 90.6466C61.2129 90.403 55.3703 86.6348 49.1307 83.6202C46.7715 82.4825 46.2161 84.3303 47.6003 86.3167Z" fill="#ED776A"/>
<path d="M52.8358 93.6982L54.8825 86.1619C54.8825 86.1619 51.4503 84.2572 49.4021 83.4717C46.6921 82.4313 45.6709 83.194 47.3327 86.3408C48.4448 88.4465 52.8358 93.6982 52.8358 93.6982Z" fill="#EBEBEB"/>
<path d="M52.3287 92.743C52.551 91.6259 52.7882 90.5145 53.0758 89.4116C53.2179 88.8614 53.3694 88.3136 53.5304 87.7682C53.6901 87.2242 53.9067 86.6937 54.058 86.1476C54.0665 86.1178 54.1141 86.1334 54.1042 86.1632C53.9245 86.6994 53.8158 87.2668 53.6653 87.8123C53.5147 88.3577 53.3663 88.9095 53.2214 89.4592C52.9317 90.5564 52.6398 91.6543 52.3749 92.7579C52.3678 92.7856 52.3231 92.7693 52.3287 92.743Z" fill="#1A2E35"/>
<path d="M54.5607 87.3457L52.8364 93.6968C52.8364 93.6968 48.4461 88.4415 47.3311 86.3387C46.8191 85.3665 46.5613 84.6208 46.53 84.0875L54.5607 87.3457Z" fill="#1A2E35"/>
<path d="M36.5778 107.172C37.251 107.389 56.3979 101.845 56.3979 101.845L54.1368 95.1974C54.1368 95.1974 55.2532 93.0597 54.7347 91.0031C54.0423 88.2561 48.9575 83.7394 48.5562 83.4753C46.952 82.41 45.4485 82.4306 44.1191 83.1365C38.5847 86.0794 36.5778 107.172 36.5778 107.172Z" fill="#EBEBEB"/>
<path d="M51.1818 85.8714C51.6747 86.4452 52.2045 86.9906 52.7137 87.5531C52.4757 87.1341 52.2407 86.7137 51.9871 86.3039C51.9822 86.2954 51.9935 86.2861 51.9992 86.294C52.3738 86.7772 52.7001 87.296 52.9736 87.8428C53.3548 88.2688 53.7074 88.7195 54.0289 89.1922C54.4103 89.7603 54.7298 90.376 54.8989 91.0457C55.0569 91.7181 55.0767 92.4157 54.9571 93.096C54.8293 93.8821 54.5764 94.6385 54.3101 95.3863C54.2746 95.4857 54.1347 95.4232 54.1617 95.3266C54.521 94.0284 54.9287 92.6571 54.6404 91.3042C54.3563 89.967 53.5169 88.8307 52.7023 87.7662C52.2116 87.127 51.7137 86.4814 51.1449 85.9076C51.1214 85.8806 51.1633 85.8458 51.1818 85.8714Z" fill="#1A2E35"/>
<path d="M47.9944 94.7223C48.8178 94.5689 49.6515 94.4766 50.4885 94.446C50.9047 94.4368 51.3187 94.446 51.7341 94.4652C51.9415 94.4751 52.1482 94.4773 52.3555 94.4787C52.5724 94.4863 52.7895 94.4675 53.0018 94.4226C53.0053 94.4222 53.0089 94.4231 53.0118 94.425C53.0148 94.427 53.0169 94.43 53.0178 94.4334C53.0188 94.4369 53.0185 94.4405 53.017 94.4437C53.0155 94.4469 53.0128 94.4495 53.0096 94.451C52.8152 94.516 52.6166 94.5677 52.4152 94.6058C52.2187 94.6365 52.0203 94.6538 51.8215 94.6576C51.3954 94.6711 50.9764 94.6647 50.5545 94.674C49.7023 94.6924 48.8501 94.7116 48.0029 94.7912C47.9638 94.7947 47.9553 94.7315 47.9944 94.7223Z" fill="#1A2E35"/>
<path d="M46.2106 95.9899C46.8528 95.7351 47.5088 95.5167 48.1756 95.3358C48.5094 95.2464 48.846 95.1775 49.1869 95.1164C49.3488 95.0873 49.5122 95.0617 49.6755 95.0376C49.8552 95.0106 50.0384 95.0085 50.2174 94.9793C50.2365 94.9793 50.2444 95.0042 50.2252 95.0085C50.0569 95.0404 49.8935 95.1015 49.7281 95.1434L49.2309 95.2698C48.8972 95.3543 48.5641 95.4431 48.2296 95.5248C47.5592 95.6881 46.8938 95.8578 46.229 96.0446C46.1879 96.0552 46.1758 96.0027 46.2106 95.9899Z" fill="#1A2E35"/>
<path d="M45.3171 83.5108C45.3931 83.858 47.0123 86.1284 48.5959 86.0766C49.1115 86.0589 49.1406 83.2409 49.1406 83.2409L49.1904 83.0335L49.8842 80.1275L45.9974 77.5851C45.9974 77.5851 45.2872 83.3687 45.3171 83.5108Z" fill="#ED776A"/>
<path d="M49.8842 80.1282L49.1932 83.0343C48.3666 82.7104 46.5947 81.7751 45.7645 79.5594C45.8838 78.5573 45.9861 77.7243 45.9996 77.6022C46.0003 77.5967 46.0003 77.5912 45.9996 77.5858L46.4925 77.8834L49.8842 80.1282Z" fill="#1A2E35"/>
<path d="M53.6517 74.7757C54.945 79.8569 52.0474 81.2048 50.9531 81.4825C49.9588 81.7346 46.5386 82.4668 44.727 77.546C42.9153 72.6253 44.869 70.418 47.1146 69.7214C49.3602 69.0247 52.3578 69.6937 53.6517 74.7757Z" fill="#ED776A"/>
<path d="M52.6731 74.1443C52.5523 74.1474 52.4314 74.1441 52.3109 74.1344C52.1724 74.1287 52.0609 74.1386 51.9438 74.0534C51.9133 74.0256 51.8929 73.9886 51.8857 73.948C51.8785 73.9074 51.8849 73.8655 51.904 73.829C51.9942 73.677 52.1653 73.6415 52.3301 73.6415C52.4988 73.6357 52.6636 73.693 52.7924 73.802C52.9337 73.9128 52.8379 74.1365 52.6731 74.1443Z" fill="#1A2E35"/>
<path d="M49.2571 75.2117C49.3712 75.1721 49.4831 75.1263 49.5923 75.0746C49.7201 75.0207 49.8281 74.9916 49.9076 74.8701C49.9266 74.8336 49.9328 74.7917 49.9254 74.7512C49.9179 74.7107 49.8972 74.6738 49.8664 74.6464C49.7287 74.5356 49.5554 74.5626 49.3984 74.6208C49.2385 74.6749 49.1043 74.7865 49.0221 74.934C48.9333 75.0853 49.1002 75.2593 49.2571 75.2117Z" fill="#1A2E35"/>
<path d="M50.1278 75.8516C50.1228 75.8388 50.1036 75.8736 50.1072 75.8878C50.1903 76.2358 50.2265 76.6477 49.9346 76.8288C49.9254 76.8337 49.9296 76.8515 49.941 76.8472C50.316 76.7137 50.262 76.1676 50.1278 75.8516Z" fill="#1A2E35"/>
<path d="M49.7407 75.5505C49.169 75.6215 49.3572 76.7578 49.8827 76.6931C50.4083 76.6285 50.2194 75.4894 49.7407 75.5505Z" fill="#1A2E35"/>
<path d="M49.5271 75.6478C49.4383 75.728 49.3602 75.8608 49.243 75.8892C49.1066 75.9261 48.9824 75.8246 48.873 75.7244C48.8616 75.7145 48.8538 75.7244 48.8559 75.7408C48.8886 75.9595 49.0093 76.1669 49.248 76.1669C49.466 76.1612 49.5874 75.9432 49.603 75.7152C49.608 75.6691 49.5633 75.6151 49.5271 75.6478Z" fill="#1A2E35"/>
<path d="M52.1483 75.3978C52.1483 75.3843 52.1788 75.4106 52.1809 75.4248C52.225 75.7799 52.335 76.1775 52.6724 76.245C52.683 76.245 52.6852 76.2649 52.6724 76.2649C52.2747 76.2713 52.1334 75.7408 52.1483 75.3978Z" fill="#1A2E35"/>
<path d="M52.4053 74.9802C52.9664 74.8481 53.1865 75.9787 52.6702 76.1015C52.1539 76.2244 51.9359 75.091 52.4053 74.9802Z" fill="#1A2E35"/>
<path d="M52.656 75.0079C52.7568 75.0505 52.869 75.1414 52.9748 75.1279C53.1005 75.1116 53.168 74.971 53.2234 74.8382C53.2298 74.8247 53.2404 74.8325 53.2433 74.8467C53.2923 75.0597 53.2653 75.3012 53.0657 75.3836C52.8839 75.4589 52.7106 75.3012 52.6141 75.0995C52.5963 75.0597 52.6155 74.9887 52.656 75.0079Z" fill="#1A2E35"/>
<path d="M50.5973 78.9778C50.6904 79.053 50.7855 79.1603 50.9155 79.1596C51.0477 79.1451 51.1752 79.1028 51.2898 79.0353C51.2921 79.0341 51.2948 79.0338 51.2974 79.0342C51.3 79.0347 51.3024 79.0359 51.3043 79.0378C51.3062 79.0397 51.3074 79.0421 51.3079 79.0447C51.3083 79.0473 51.3079 79.0499 51.3068 79.0523C51.2623 79.1268 51.1984 79.1878 51.1221 79.229C51.0457 79.2701 50.9596 79.2898 50.8729 79.286C50.7095 79.2725 50.6172 79.1439 50.5647 78.9969C50.5576 78.977 50.5838 78.9657 50.5973 78.9778Z" fill="#1A2E35"/>
<path d="M51.8919 77.3671C51.8919 77.3671 52.0431 77.8841 52.0801 78.1326C52.0801 78.1561 52.0247 78.176 51.938 78.1937C51.9345 78.1937 51.9323 78.1937 51.9281 78.1937C51.7204 78.2642 51.4973 78.2762 51.2832 78.2284C51.0691 78.1805 50.8723 78.0747 50.7144 77.9224C50.6931 77.9004 50.7215 77.8699 50.7464 77.8827C51.11 78.0744 51.4814 78.0829 51.872 78.0318C51.8791 77.9608 51.5837 77.1554 51.6227 77.1469C51.7569 77.115 52.0389 77.1675 52.2065 77.191C51.9224 76.1058 51.4679 75.0746 51.2016 73.9895C51.1995 73.9815 51.2005 73.9731 51.2042 73.9658C51.2079 73.9584 51.2141 73.9526 51.2217 73.9495C51.2293 73.9464 51.2378 73.9462 51.2456 73.9488C51.2534 73.9515 51.2599 73.9568 51.2641 73.9639C51.818 75.0107 52.1717 76.2528 52.4934 77.3657C52.5403 77.5056 52.0005 77.3948 51.8919 77.3671Z" fill="#1A2E35"/>
<path d="M51.9168 78.0964C51.9168 78.0964 51.7584 78.4799 51.4588 78.6788C51.3471 78.7579 51.2136 78.8004 51.0767 78.8002C50.7777 78.7967 50.706 78.541 50.7024 78.3074C50.7017 78.1833 50.7157 78.0595 50.7443 77.9388C51.1083 78.1152 51.5192 78.1704 51.9168 78.0964Z" fill="#1A2E35"/>
<path d="M51.4587 78.6816C51.3471 78.7607 51.2135 78.8032 51.0767 78.803C50.7777 78.7995 50.7059 78.5438 50.7024 78.3102C51.0113 78.2633 51.36 78.3933 51.4587 78.6816Z" fill="#FF9CBF"/>
<path d="M45.0892 77.9267C45.636 77.7449 46.6736 75.8288 45.9996 73.133C45.9996 73.133 46.4378 75.5959 46.3547 75.9972C46.2716 76.3984 46.9328 74.9205 46.42 72.7382C46.42 72.7382 47.8503 73.2829 48.949 73.2957C50.0476 73.3084 50.6704 73.1316 50.7244 73.0379C50.7784 72.9441 49.1464 72.8731 48.6145 72.5131C48.6145 72.5131 51.6718 73.0492 52.9508 72.8099C53.0985 72.7815 52.4735 69.7562 50.1974 69.0076C47.9213 68.2591 45.2177 70.4493 44.6063 71.467C44.6063 71.467 43.6738 71.864 43.0041 73.5797C42.3344 75.2955 44.4997 78.1227 45.0892 77.9267Z" fill="#1A2E35"/>
<path d="M45.6317 77.7307C45.6317 77.7307 44.2377 76.3011 43.5722 76.8245C42.9068 77.3479 44.1404 79.5487 45.0515 79.7277C45.9627 79.9067 46.1466 79.0651 46.1466 79.0651L45.6317 77.7307Z" fill="#ED776A"/>
<path d="M43.9379 77.4466C43.9237 77.4466 43.9244 77.4672 43.9379 77.4701C44.5813 77.6121 44.9904 78.1227 45.3078 78.6667C45.0947 78.4728 44.8277 78.3905 44.5635 78.6532C44.55 78.6667 44.5692 78.6887 44.5856 78.6823C44.8235 78.5893 45.0117 78.6028 45.2084 78.7732C45.3444 78.9039 45.4658 79.0489 45.5706 79.2057C45.6075 79.2547 45.7005 79.21 45.67 79.1518L45.6622 79.1383C45.5528 78.367 44.7787 77.3884 43.9379 77.4466Z" fill="#1A2E35"/>
<path d="M41.3814 87.8223C39.8424 96.5574 41.3302 103.097 42.8138 103.907C46.8078 106.087 56.3965 101.664 59.1016 100.782C60.1959 100.427 55.2112 92.0648 54.0956 92.5804C51.4679 93.7948 47.7814 95.8579 47.633 95.8429C47.3369 95.8117 46.9938 93.5832 45.4641 87.0872C44.2291 81.8341 42.0106 84.2515 41.3814 87.8223Z" fill="#ED776A"/>
<path d="M67.8195 88.445C68.0937 89.5423 65.3339 89.9882 65.3339 89.9882C65.3339 89.9882 66.0768 90.2276 66.4283 90.8909C66.8303 91.6508 65.8154 92.6145 65.8154 92.6145C65.8154 92.6145 66.5171 93.0129 66.8175 93.7507C67.1293 94.5163 66.2437 95.6341 66.2437 95.6341C66.2437 95.6341 66.6939 96.3649 66.4958 97.1887C66.1577 98.5977 63.9988 99.1523 62.7319 99.7595C61.3726 100.41 59.1242 100.649 58.1037 101.109L53.6829 93.0129C53.6829 93.0129 57.9538 88.4912 60.3919 87.7896C61.7398 87.3983 67.4013 86.7683 67.8195 88.445Z" fill="#ED776A"/>
<path d="M65.3014 89.962C63.7639 89.8952 62.2136 90.1963 60.7208 90.5031C60.7139 90.5046 60.7079 90.5088 60.7041 90.5147C60.7003 90.5206 60.6991 90.5278 60.7006 90.5347C60.7021 90.5416 60.7063 90.5476 60.7122 90.5514C60.7181 90.5552 60.7253 90.5565 60.7322 90.5549C62.2129 90.2325 63.8164 90.2979 65.3071 90.0351C65.316 90.0334 65.3239 90.0284 65.3294 90.0212C65.3349 90.014 65.3375 90.005 65.3368 89.996C65.3361 89.987 65.3321 89.9785 65.3256 89.9722C65.3191 89.966 65.3105 89.9623 65.3014 89.962Z" fill="#1A2E35"/>
<path d="M65.7466 92.5122C65.3979 92.5079 65.0492 92.618 64.7154 92.7047C64.3551 92.797 63.9967 92.8959 63.6402 93.0015C62.9258 93.211 62.2198 93.4368 61.5146 93.684C61.4834 93.6946 61.4926 93.7451 61.526 93.7351C62.2362 93.5277 62.9527 93.3303 63.6729 93.1528C64.0336 93.0642 64.3949 92.9783 64.7566 92.895C65.0925 92.8169 65.454 92.7636 65.7672 92.6109C65.7767 92.6053 65.7843 92.5968 65.7888 92.5866C65.7933 92.5764 65.7945 92.5651 65.7922 92.5542C65.7899 92.5433 65.7843 92.5334 65.7761 92.5259C65.7679 92.5183 65.7576 92.5136 65.7466 92.5122Z" fill="#1A2E35"/>
<path d="M66.2118 95.6427C65.9093 95.6263 65.5776 95.7748 65.2922 95.8649C64.9688 95.9672 64.6449 96.0676 64.3206 96.1661C63.6715 96.3635 63.0232 96.5609 62.3677 96.7342C62.335 96.7427 62.3456 96.7939 62.379 96.7853C63.0459 96.6113 63.7142 96.4466 64.3796 96.2662C64.7063 96.1781 65.0325 96.0879 65.3582 95.9956C65.6352 95.9175 65.9902 95.8536 66.2232 95.6732C66.2254 95.6707 66.2269 95.6676 66.2275 95.6643C66.2281 95.6611 66.2278 95.6577 66.2267 95.6545C66.2255 95.6514 66.2235 95.6486 66.2209 95.6465C66.2183 95.6444 66.2151 95.6431 66.2118 95.6427Z" fill="#1A2E35"/>
<path d="M47.6309 95.8458L49.2287 94.9936L50.8344 94.157C51.3704 93.8791 51.9075 93.604 52.4458 93.3318C52.7157 93.1954 52.9858 93.0607 53.2561 92.9277C53.5264 92.7891 53.804 92.6653 54.0877 92.557L54.0757 92.5634C54.7816 91.8674 55.5038 91.1885 56.2424 90.5266C56.6124 90.1964 56.9881 89.8732 57.3737 89.5622C57.7558 89.247 58.1618 88.9621 58.5881 88.71C58.166 88.9695 57.7649 89.2618 57.3886 89.5842C57.0073 89.9002 56.6316 90.2233 56.2651 90.555C55.5294 91.2178 54.8112 91.9003 54.1105 92.6024H54.1019C53.8264 92.7011 53.5544 92.8446 53.2824 92.971C53.0104 93.0974 52.7405 93.2359 52.4707 93.3708C51.931 93.6407 51.3924 93.9129 50.855 94.1875L47.6309 95.8458Z" fill="#1A2E35"/>
<path d="M39.8964 95.4168L46.8745 91.9114C46.8745 91.9114 46.0024 88.0843 45.2205 86.0348C44.1858 83.3219 42.9366 83.0705 41.7023 86.4083C40.8764 88.6418 39.8964 95.4168 39.8964 95.4168Z" fill="#EBEBEB"/>
<path d="M40.2721 94.3998C41.2521 93.8189 42.2385 93.2543 43.2548 92.7324C43.7604 92.472 44.2694 92.2191 44.7817 91.9739C45.2944 91.7296 45.8334 91.5371 46.344 91.2857C46.3717 91.2715 46.3923 91.3177 46.3632 91.3298C45.8434 91.5542 45.3491 91.8517 44.842 92.1039C44.335 92.356 43.8258 92.613 43.3194 92.8723C42.3088 93.3886 41.2968 93.9041 40.2983 94.4439C40.2635 94.4588 40.2451 94.4148 40.2721 94.3998Z" fill="#1A2E35"/>
<path d="M40.7309 94.9978L39.9028 95.4296L39.8787 95.4417V95.4147C39.9497 94.9353 40.0207 94.4552 40.0917 93.9766C40.1627 93.4979 40.243 93.0193 40.3268 92.5413C40.4106 92.0634 40.4922 91.5861 40.5832 91.1103C40.6741 90.6345 40.7699 90.1587 40.8715 89.685L40.6194 91.1167L40.3765 92.5498L39.9035 95.4189L39.8836 95.4047L40.7309 94.9978Z" fill="#1A2E35"/>
<path d="M40.495 90.6473C40.495 90.871 40.4865 91.0947 40.483 91.3184C40.4794 91.5421 40.468 91.7658 40.4531 91.9888C40.4531 91.7651 40.4616 91.5414 40.4652 91.3177C40.4687 91.094 40.4801 90.871 40.495 90.6473Z" fill="#1A2E35"/>
<path d="M46.0244 92.341C46.0955 92.2899 46.7978 91.9057 46.856 91.8929C46.7424 91.4455 46.6224 90.9995 46.5137 90.5507C46.4591 90.3263 46.4086 90.1005 46.3611 89.8746C46.3092 89.6261 46.2368 89.3455 46.1906 89.1254C46.1835 89.0906 46.2261 89.0778 46.2368 89.1119C46.3255 89.3917 46.3788 89.604 46.4569 89.8469C46.5244 90.0642 46.5869 90.2837 46.6437 90.5031C46.7644 90.969 46.9143 91.4597 47.0123 91.9306C47.0194 91.9668 46.1175 92.3432 46.0365 92.3666C46.0223 92.3709 46.0138 92.3489 46.0244 92.341Z" fill="#1A2E35"/>
<path d="M46.5819 89.44C46.5897 89.582 46.5897 89.7177 46.5911 89.8569C46.5925 89.9961 46.5911 90.1353 46.5819 90.2745C46.5748 90.1324 46.5741 89.9961 46.5734 89.8569C46.5727 89.7177 46.5748 89.5785 46.5819 89.44Z" fill="#1A2E35"/>
<path d="M74.0287 100.357H53.7128V101.269H74.0287V100.357Z" fill="#C8C8C8"/>
<path d="M58.0596 100.357L57.3644 101.269H74.0286V100.357H58.0596Z" fill="#A8A8A8"/>
<path d="M58.929 101.268H78.7278L80.3761 87.8208H60.5773L58.929 101.268Z" fill="#C8C8C8"/>
<path d="M68.4473 94.544C68.4436 94.7016 68.4716 94.8583 68.5295 95.0049C68.5873 95.1516 68.674 95.2851 68.7844 95.3976C68.8947 95.5102 69.0265 95.5995 69.172 95.6602C69.3174 95.721 69.4736 95.7519 69.6312 95.7513C69.9528 95.7501 70.2612 95.6231 70.4903 95.3975C70.7195 95.1719 70.8514 94.8656 70.8577 94.544C70.8613 94.3865 70.8333 94.2298 70.7754 94.0832C70.7174 93.9367 70.6308 93.8032 70.5204 93.6907C70.4101 93.5781 70.2783 93.4888 70.1329 93.4281C69.9875 93.3673 69.8314 93.3362 69.6738 93.3367C69.3522 93.3378 69.0437 93.4647 68.8145 93.6904C68.5853 93.916 68.4535 94.2224 68.4473 94.544Z" fill="white"/>
<path d="M80.2157 89.1212C80.9614 90.2731 82.8036 91.6202 83.0564 92.6088C83.1275 92.85 83.1189 93.1077 83.0321 93.3437C82.9452 93.5797 82.7847 93.7815 82.5742 93.9191C82.5742 93.9191 83.6395 94.2862 83.724 95.2208C83.7659 95.7016 83.0351 96.1916 83.0351 96.1916C83.0351 96.1916 83.8774 96.5233 83.8994 97.3584C83.9164 98.0246 83.1814 98.4159 83.1814 98.4159C83.1814 98.4159 83.8419 99.1104 83.6416 99.7943C83.2361 101.181 77.5689 101.931 76.417 99.9584C75.8801 99.0394 77.2749 98.9315 77.2749 98.9315C77.2749 98.9315 75.2325 98.602 75.0478 97.4401C74.8632 96.2783 76.6812 96.2449 76.6812 96.2449C76.6812 96.2449 74.7041 95.9083 74.6352 94.6825C74.5642 93.4042 76.3886 93.6883 76.3886 93.6883C76.3886 93.6883 75.0158 93.0001 75.1813 92.0492C75.4483 90.4783 78.681 92.1479 79.8876 91.6877L80.2157 89.1212Z" fill="#ED776A"/>
<path d="M83.0748 98.4954C83.0783 98.4951 83.0819 98.496 83.0849 98.4979C83.0879 98.4999 83.0901 98.5028 83.0912 98.5062C83.0922 98.5096 83.0921 98.5133 83.0908 98.5166C83.0895 98.52 83.0871 98.5227 83.084 98.5245C81.2802 99.2247 79.0829 99.4421 77.1995 98.9506C77.1378 98.9343 77.1378 98.8271 77.2088 98.832C79.2477 98.9655 81.0671 98.9251 83.0748 98.4954Z" fill="#1A2E35"/>
<path d="M83.0685 96.1994C83.0898 96.1951 83.0984 96.2306 83.0756 96.2392C81.2129 96.9493 78.7315 97.1276 76.628 96.3024C76.557 96.2747 76.5193 96.1767 76.6053 96.2029C78.0419 96.6489 81.2597 96.5971 83.0685 96.1994Z" fill="#1A2E35"/>
<path d="M76.2579 93.5753C78.3053 94.2855 80.3769 94.2734 82.4996 93.9517C82.5273 93.9475 82.5308 93.9872 82.5081 93.9972C81.5139 94.4375 80.1368 94.5014 79.0623 94.4602C78.0333 94.4211 77.1129 94.1761 76.233 93.6471C76.1982 93.6265 76.2139 93.5604 76.2579 93.5753Z" fill="#1A2E35"/>
<path d="M120.381 127.546C120.103 128.296 106.494 145.213 105.567 145.53C105.216 145.652 102.637 143.814 99.5836 141.504C98.9238 141.007 98.2456 140.486 97.5603 139.955C93.1054 136.514 88.4587 132.757 88.4587 132.757L97.5298 121.415L106.381 128.925L108.326 130.572C108.326 130.572 116.434 126.426 117.487 126.186C118.54 125.947 120.659 126.796 120.381 127.546Z" fill="#ED776A"/>
<path d="M120.382 127.546C120.104 128.296 106.495 145.214 105.568 145.531C105.261 145.639 103.251 144.245 100.708 142.351C103.303 140.462 113.16 131.581 114.485 129.177C115.182 127.913 114.165 127.923 112.923 128.271C114.954 127.272 116.995 126.299 117.49 126.188C118.539 125.951 120.658 126.798 120.382 127.546Z" fill="#1A2E35"/>
<path d="M105.908 127.213L96.468 139.95L64.6132 117.846L61.5417 115.716C61.5417 115.716 60.6725 116.301 59.3629 117.025C57.5442 118.03 54.8796 119.303 52.5219 119.653C48.5676 120.239 41.9644 120.176 38.6316 115.719C35.8243 111.966 37.349 107.069 37.349 107.069L41.691 105.204C41.691 105.204 51.9665 96.6433 58.6222 96.3855C61.4494 96.2733 65.5656 98.4159 69.3785 100.654C73.1914 102.893 105.908 127.213 105.908 127.213Z" fill="#2B454E"/>
<path d="M61.5417 115.713C61.5417 115.713 60.6725 116.299 59.3629 117.023C57.0485 114.253 52.1483 109.22 51.9991 109.041L61.5417 115.713Z" fill="#1A2E35"/>
<path d="M45.4563 102.334C44.842 102.76 44.249 103.214 43.6418 103.651C43.0346 104.089 42.4303 104.486 41.8664 104.957C41.3025 105.427 40.7443 105.946 40.201 106.461C39.9397 106.709 39.6798 106.958 39.4262 107.218C39.1727 107.478 38.8957 107.728 38.6827 108.02C38.6628 108.047 38.7019 108.08 38.7274 108.064C39.0214 107.875 39.2849 107.618 39.5512 107.393C39.8353 107.152 40.1194 106.906 40.4091 106.662C40.9616 106.193 41.5241 105.739 42.0752 105.266C42.6263 104.793 43.1298 104.286 43.6724 103.812C44.2526 103.305 44.864 102.834 45.467 102.354C45.4798 102.345 45.4684 102.325 45.4563 102.334Z" fill="#1A2E35"/>
<path d="M103.691 126.76C103.078 127.421 102.511 128.133 101.94 128.83C101.368 129.528 100.797 130.235 100.231 130.942C99.0991 132.356 97.9585 133.764 96.8443 135.194C96.2328 135.979 95.6299 136.77 95.0617 137.588C95.0362 137.624 95.0944 137.665 95.1235 137.633C96.3415 136.294 97.455 134.863 98.5849 133.452C99.7148 132.041 100.844 130.617 101.955 129.184C102.563 128.403 103.188 127.622 103.747 126.801C103.77 126.764 103.718 126.728 103.691 126.76Z" fill="#1A2E35"/>
<path d="M77.5489 126.886C75.9638 125.637 74.3205 124.459 72.6772 123.287C71.0338 122.115 69.4104 120.952 67.7493 119.822C67.2727 119.497 66.792 119.183 66.3119 118.86C65.8318 118.538 65.334 118.247 64.8645 117.916C64.8376 117.897 64.8134 117.943 64.8397 117.962C65.2708 118.271 65.6777 118.617 66.1017 118.938C66.5058 119.245 66.9077 119.555 67.3153 119.857C68.1107 120.445 68.9147 121.023 69.7172 121.604C71.3449 122.78 72.9861 123.938 74.6408 125.078C75.581 125.723 76.5163 126.37 77.4815 126.983C77.5347 127.02 77.6036 126.929 77.5489 126.886Z" fill="#1A2E35"/>
<path d="M87.7357 113.745C86.2713 112.531 84.7012 111.44 83.1665 110.318C81.614 109.181 80.0694 108.037 78.5099 106.909L73.871 103.555C72.3719 102.472 70.8798 101.37 69.2961 100.411C68.4297 99.8859 67.5413 99.3987 66.628 98.9606C65.7403 98.5345 64.8185 98.1012 63.8697 97.8342C63.8638 97.8332 63.8577 97.8343 63.8525 97.8372C63.8473 97.8402 63.8432 97.8448 63.841 97.8503C63.8388 97.8559 63.8385 97.862 63.8402 97.8677C63.842 97.8735 63.8456 97.8784 63.8505 97.8818C64.6317 98.3171 65.4512 98.6843 66.2409 99.1047C67.0307 99.5251 67.7905 99.9569 68.5469 100.416C70.1185 101.369 71.6006 102.452 73.092 103.524C76.1883 105.751 79.2783 107.988 82.3952 110.183C84.1401 111.413 85.8495 112.709 87.6619 113.839C87.7229 113.875 87.7883 113.788 87.7357 113.745Z" fill="#1A2E35"/>
<path d="M83.4576 82.9987C84.272 78.0309 80.905 73.3435 75.9372 72.5291C70.9694 71.7147 66.282 75.0817 65.4676 80.0495C64.6532 85.0173 68.0202 89.7047 72.988 90.5191C77.9558 91.3335 82.6432 87.9665 83.4576 82.9987Z" fill="#FFC800"/>
<path d="M79.7726 87.4089H69.1505V78.4238L74.4605 75.0512L79.7726 78.4238V87.4089Z" fill="#A8A8A8"/>
<path d="M79.1732 87.3201H69.7499V75.515H76.7465L79.1732 77.8202V87.3201Z" fill="white"/>
<path d="M76.7466 75.515L79.1732 77.8202H76.7466V75.515Z" fill="#EBEBEB"/>
<path d="M70.6688 77.8557H75.9084V77.5453H70.6688V77.8557Z" fill="#DBDBDB"/>
<path d="M70.6688 78.6397H75.9084V78.3294H70.6688V78.6397Z" fill="#DBDBDB"/>
<path d="M70.6688 79.4237H75.9084V79.1134H70.6688V79.4237Z" fill="#DBDBDB"/>
<path d="M70.6689 80.2078H78.3458V79.8974H70.6689V80.2078Z" fill="#DBDBDB"/>
<path d="M70.6689 80.9918H78.3458V80.6814H70.6689V80.9918Z" fill="#DBDBDB"/>
<path d="M70.6689 81.7758H78.3458V81.4655H70.6689V81.7758Z" fill="#DBDBDB"/>
<path d="M70.6689 82.5598H78.3458V82.2495H70.6689V82.5598Z" fill="#DBDBDB"/>
<path d="M70.6689 83.3446H78.3458V83.0342H70.6689V83.3446Z" fill="#DBDBDB"/>
<path d="M70.6689 84.1286H78.3458V83.8183H70.6689V84.1286Z" fill="#DBDBDB"/>
<path d="M70.6689 84.9127H78.3458V84.6023H70.6689V84.9127Z" fill="#DBDBDB"/>
<path d="M70.6689 85.6967H78.3458V85.3864H70.6689V85.6967Z" fill="#DBDBDB"/>
<path d="M70.6689 86.4807H78.3458V86.1704H70.6689V86.4807Z" fill="#DBDBDB"/>
<path d="M79.7725 80.6701V87.4061H69.149V80.6701C69.6057 80.9286 70.0538 81.1999 70.5048 81.4641C70.9557 81.7283 71.4046 82.0038 71.8541 82.2779C72.3522 82.5809 72.8493 82.8887 73.3455 83.2012L73.3618 83.1919C73.3568 83.1919 73.3533 83.1997 73.349 83.2026C73.7207 83.4341 74.0923 83.6666 74.464 83.9C74.834 83.667 75.2054 83.4327 75.5768 83.2026C75.5726 83.2026 75.569 83.1948 75.564 83.1919C75.5692 83.1951 75.5747 83.1977 75.5804 83.1997C76.0761 82.8901 76.5732 82.5824 77.0717 82.2765C77.5182 82.0038 77.9665 81.733 78.4168 81.4641C78.8678 81.2027 79.3166 80.9314 79.7725 80.6701Z" fill="#EBEBEB"/>
<path d="M79.7726 80.6701C79.3464 80.9712 78.9061 81.2603 78.4744 81.5571C78.0426 81.854 77.6016 82.1373 77.1627 82.4249C76.7053 82.7246 76.2465 83.0217 75.7864 83.3162L75.7452 83.3453L74.5215 84.1265L74.4605 84.1634L74.4015 84.1265C73.9934 83.8666 73.5862 83.6062 73.18 83.3453C73.1651 83.3371 73.1507 83.3281 73.1367 83.3183C72.6756 83.0239 72.2161 82.726 71.7583 82.4249C71.3215 82.1409 70.8848 81.849 70.4487 81.5592C70.0127 81.2695 69.5795 80.9734 69.1505 80.6722C69.6072 80.9307 70.0553 81.202 70.5062 81.4662C70.9572 81.7304 71.406 82.0059 71.8556 82.2801C72.3536 82.5831 72.8507 82.8908 73.3469 83.2033C73.7186 83.4348 74.0902 83.6673 74.4619 83.9007C74.8319 83.6677 75.2033 83.4334 75.5747 83.2033C76.0704 82.8937 76.5675 82.5859 77.0661 82.2801C77.5125 82.0074 77.9609 81.7365 78.4112 81.4676C78.8678 81.2027 79.3166 80.9314 79.7726 80.6701Z" fill="#DBDBDB"/>
<path d="M73.3604 83.1934C73.3554 83.1934 73.3518 83.2012 73.3476 83.204C73.2915 83.2523 73.2354 83.2999 73.18 83.346C72.9137 83.5712 72.641 83.7863 72.3633 83.9958C72.0252 84.2536 71.6787 84.5015 71.3314 84.7465C70.9841 84.9915 70.6305 85.2266 70.2718 85.4567C69.9132 85.6868 69.551 85.9112 69.176 86.1171C69.4984 85.8331 69.8329 85.5717 70.1703 85.3146C70.5076 85.0576 70.8556 84.809 71.2021 84.5633C71.5487 84.3176 71.9038 84.0818 72.2631 83.8531C72.5472 83.6699 72.8384 83.4895 73.1352 83.3205C73.2063 83.2807 73.2723 83.2424 73.3426 83.204L73.3604 83.1934Z" fill="#DBDBDB"/>
<path d="M79.7469 86.1171C79.372 85.9112 79.0084 85.686 78.6512 85.4567C78.2939 85.2273 77.941 84.9879 77.5902 84.7465C77.2393 84.505 76.8963 84.2536 76.5583 83.9958C76.282 83.7863 76.0093 83.5697 75.7451 83.3481L75.5754 83.2061C75.5711 83.2061 75.5676 83.1983 75.5626 83.1955C75.5678 83.1986 75.5732 83.2013 75.579 83.2033L75.7863 83.3212C76.0832 83.4902 76.3715 83.6706 76.6591 83.8538C77.0142 84.0839 77.3693 84.3232 77.718 84.564C78.0667 84.8047 78.4118 85.0568 78.7499 85.3153C79.0879 85.5738 79.4245 85.8345 79.7469 86.1171Z" fill="#DBDBDB"/>
<path d="M76.6389 80.0622C76.9234 78.8616 76.1807 77.6576 74.98 77.3731C73.7793 77.0886 72.5754 77.8313 72.2909 79.032C72.0064 80.2327 72.7491 81.4366 73.9498 81.7211C75.1504 82.0056 76.3544 81.2629 76.6389 80.0622Z" fill="#FFC800"/>
<path d="M73.3228 79.7334C73.6426 79.9979 73.9453 80.2825 74.2289 80.5856L74.0244 80.5998C74.1373 80.4045 74.2573 80.2149 74.3795 80.0245C74.5016 79.8342 74.6252 79.6481 74.7573 79.4663C75.0145 79.0945 75.2969 78.7407 75.6024 78.4075C75.423 78.8223 75.2151 79.2243 74.9803 79.6105C74.8674 79.8058 74.7438 79.9933 74.6252 80.1829C74.5066 80.3725 74.3759 80.5572 74.2438 80.739L74.1395 80.881L74.0393 80.7517C73.7786 80.4282 73.5393 80.088 73.3228 79.7334Z" fill="white"/>
</svg>
