<svg width="41" height="41" viewBox="0 0 41 41" fill="none" xmlns="http://www.w3.org/2000/svg">
<g filter="url(#filter0_d_4285_3656)">
<rect x="4" y="3" width="32" height="32" rx="16" fill="white"/>
</g>
<mask id="mask0_4285_3656" style="mask-type:luminance" maskUnits="userSpaceOnUse" x="11" y="10" width="14" height="14">
<path d="M11.9736 10.9938H24.9341V23.9334H11.9736V10.9938Z" fill="white"/>
</mask>
<g mask="url(#mask0_4285_3656)">
<path d="M18.2318 23.5375C16.561 23.5375 14.9902 22.8854 13.8089 21.7C12.6256 20.5167 11.9756 18.9396 11.9756 17.2646C11.9756 15.5896 12.6256 14.0146 13.8089 12.8292C14.9902 11.6438 16.561 10.9917 18.2318 10.9917C19.9027 10.9917 21.4735 11.6438 22.6548 12.8292C23.836 14.0146 24.4881 15.5896 24.4881 17.2646C24.4881 18.9396 23.836 20.5167 22.6548 21.7C21.4735 22.8854 19.9027 23.5375 18.2318 23.5375ZM18.2318 11.7292C16.7568 11.7292 15.3714 12.3063 14.3277 13.35C13.286 14.3959 12.711 15.7854 12.711 17.2646C12.711 18.7438 13.286 20.1334 14.3277 21.1792C15.3714 22.225 16.7568 22.8 18.2318 22.8C19.7068 22.8 21.0923 22.225 22.1339 21.1792C23.1777 20.1334 23.7506 18.7438 23.7506 17.2646C23.7506 15.7854 23.1777 14.3959 22.1339 13.35C21.0923 12.3063 19.7068 11.7292 18.2318 11.7292Z" fill="#6C6C6C"/>
</g>
<mask id="mask1_4285_3656" style="mask-type:luminance" maskUnits="userSpaceOnUse" x="21" y="20" width="7" height="7">
<path d="M21.7334 20.7333H27.7626V26.7833H21.7334V20.7333Z" fill="white"/>
</mask>
<g mask="url(#mask1_4285_3656)">
<path d="M27.352 26.7812C27.2582 26.7812 27.1645 26.7437 27.0936 26.6729L22.1332 21.6999C21.9895 21.5562 21.9895 21.3229 22.1332 21.1791C22.277 21.0354 22.5103 21.0354 22.654 21.1791L27.6124 26.1499C27.7561 26.2958 27.7561 26.5291 27.6124 26.6729C27.5415 26.7458 27.4478 26.7812 27.352 26.7812Z" fill="#6C6C6C"/>
</g>
<defs>
<filter id="filter0_d_4285_3656" x="0.5" y="0.5" width="40" height="40" filterUnits="userSpaceOnUse" color-interpolation-filters="sRGB">
<feFlood flood-opacity="0" result="BackgroundImageFix"/>
<feColorMatrix in="SourceAlpha" type="matrix" values="0 0 0 0 0 0 0 0 0 0 0 0 0 0 0 0 0 0 127 0" result="hardAlpha"/>
<feOffset dx="0.5" dy="1.5"/>
<feGaussianBlur stdDeviation="2"/>
<feComposite in2="hardAlpha" operator="out"/>
<feColorMatrix type="matrix" values="0 0 0 0 1 0 0 0 0 1 0 0 0 0 1 0 0 0 1 0"/>
<feBlend mode="normal" in2="BackgroundImageFix" result="effect1_dropShadow_4285_3656"/>
<feBlend mode="normal" in="SourceGraphic" in2="effect1_dropShadow_4285_3656" result="shape"/>
</filter>
</defs>
</svg>
