<svg width="158" height="151" viewBox="0 0 158 151" fill="none" xmlns="http://www.w3.org/2000/svg">
<path d="M116.022 13.45H116.018C116.018 13.45 116.018 13.4547 116.022 13.4567H116.027C116.027 13.4567 116.025 13.45 116.022 13.45ZM129.517 22.5211C129.491 22.497 129.465 22.4729 129.438 22.4461L129.513 22.5278C129.517 22.5278 129.522 22.5278 129.526 22.5278C129.523 22.5254 129.52 22.5224 129.517 22.5191V22.5211ZM144.331 113.431C144.329 113.437 144.328 113.443 144.327 113.448L144.34 113.438C144.342 113.433 144.344 113.429 144.347 113.424C144.342 113.426 144.336 113.428 144.331 113.429V113.431Z" fill="#FECCBD"/>
<path d="M20.0204 32.2532C20.0452 31.8972 20.2212 31.651 20.6026 31.4837C20.7264 32.0123 20.452 32.189 20.0251 32.2599C19.9522 32.6955 19.8284 33.0984 19.2529 33.3306C19.277 32.7297 19.6557 32.4955 20.0204 32.2532ZM21.2483 69.8256C20.3784 70.5047 20.4186 71.0775 21.2838 71.6905C21.4277 71.8049 21.5535 71.9402 21.6572 72.092C21.7703 72.2425 21.8499 72.4266 21.7013 72.5898C21.5267 72.7799 21.3788 72.6119 21.2329 72.5149C20.7331 72.1803 20.4808 71.3071 19.7976 71.4971C19.2957 71.6363 18.9237 72.2332 18.4881 72.6233C18.2759 72.8086 18.0197 73.1452 17.758 72.8374C17.4964 72.5296 17.9374 72.3623 18.0852 72.1428C18.1554 72.0586 18.2324 71.9803 18.3154 71.9086C19.3861 70.8266 19.3861 70.8266 18.3931 69.679C18.2271 69.489 17.9882 69.3297 18.0725 69.0286C18.0966 68.9443 18.2003 68.8827 18.5302 68.5374C18.7979 68.9443 19.0348 69.3183 19.2864 69.683C19.7046 70.2913 20.1275 70.2672 20.5477 69.679C20.6125 69.5892 20.6916 69.5108 20.7819 69.4468C21.1165 69.2119 21.4236 68.51 21.7997 68.8673C22.224 69.2715 21.5267 69.6074 21.2483 69.8242V69.8256ZM22.2614 30.0811C21.9382 30.4726 21.611 30.933 20.9338 30.9551C21.3962 30.3729 21.8164 29.7506 22.3297 29.2186C24.4951 26.9669 26.6993 24.7587 29.2093 22.8797C30.3836 22.0018 31.5118 21.0636 32.7417 20.2586C33.0515 20.0579 33.3299 19.8076 33.7368 19.8672C33.7655 19.4289 34.0753 19.4222 34.3939 19.4289C34.3939 19.4289 34.3939 19.4249 34.3939 19.4222C34.4668 19.3472 34.5424 19.2743 34.6154 19.2014C34.6224 19.1982 34.6298 19.196 34.6374 19.1947C34.6615 19.1679 34.6863 19.1418 34.7124 19.1171C34.7057 19.1351 34.7057 19.1592 34.693 19.1706C34.6757 19.1811 34.657 19.1892 34.6374 19.1947L34.6241 19.2081L34.4032 19.4289H34.3945C34.2687 19.7146 34.0472 19.8538 33.7374 19.8672C32.8675 20.8227 31.7581 21.4818 30.7711 22.2915C27.7933 24.7333 24.7366 27.0867 22.2614 30.0798V30.0811ZM32.6547 103.451C31.4335 103.46 29.9955 102.024 30.0022 100.805C30.0136 99.3767 31.3271 98.1422 32.816 98.1622C34.3356 98.1823 35.3093 99.2041 35.2959 100.772C35.2852 102.214 34.0733 103.444 32.6547 103.451ZM32.909 57.9019C30.5777 57.8664 28.8546 56.0952 28.8613 53.7351C28.87 51.3549 30.5114 49.7202 32.8849 49.7202C35.16 49.7001 36.9172 51.3415 37.019 53.8167C37.1059 55.9158 34.9968 57.9354 32.9097 57.9039L32.909 57.9019ZM39.6139 37.8172C39.7625 37.9169 39.8816 38.0735 39.992 38.2187C40.1379 38.4048 40.2175 38.6202 39.9987 38.7982C39.8354 38.9267 39.6514 38.8491 39.4942 38.7346C39.4612 38.7169 39.4321 38.6928 39.4085 38.6637C38.5058 37.1481 37.7537 37.9096 36.9995 38.8136C36.8336 39.0144 36.5833 39.2278 36.3378 39.0144C36.0172 38.738 36.3003 38.4904 36.493 38.2736C36.6347 38.1037 36.7915 37.9469 36.9614 37.8052C37.753 37.1943 37.9216 36.6435 36.8818 36.0995C36.6141 35.9583 36.2468 35.6505 36.5077 35.3099C36.8068 34.9138 37.1361 35.2791 37.3067 35.522C38.0167 36.5311 38.649 36.3692 39.2994 35.4739C39.4278 35.2929 39.5967 35.1444 39.7926 35.0403C40.1419 34.8656 40.2088 35.1687 40.3748 35.3962C40.1138 35.6773 39.9211 35.9536 39.6641 36.1504C38.9448 36.6977 38.7119 37.2264 39.6139 37.8172ZM59.9489 34.4929C59.9328 35.2624 59.6056 35.9041 59.0462 36.4334C57.1812 38.214 53.5892 38.1324 51.8441 36.2327C51.2686 35.6043 50.7935 34.8944 51.2358 33.9676C51.2244 32.9987 51.2157 32.0324 51.207 31.0635C50.7734 30.5723 51.0732 30.413 51.5363 30.411C54.146 30.3977 56.7503 30.411 59.356 30.3956C59.8625 30.3956 59.9683 30.6432 59.9643 31.0789C59.9442 32.2164 59.9689 33.356 59.9469 34.4929H59.9489ZM92.898 7.23221C92.8779 6.97793 93.1235 6.89161 93.3142 6.78521C93.6746 6.59106 94.0918 6.53017 94.4926 6.61324C96.6473 7.01473 98.7953 7.44701 100.854 8.21921C101.04 8.29014 101.299 8.32761 101.315 8.701C100.439 8.88903 99.6418 8.4581 98.8127 8.3497C97.006 8.11282 95.2119 7.7943 93.4133 7.50455C93.2132 7.4731 92.9181 7.53534 92.896 7.23221H92.898ZM101.567 18.8086C101.742 18.935 101.892 19.1251 101.835 19.3774C101.808 19.4811 101.762 19.5942 101.5 19.5413C101.42 19.4744 101.221 19.362 101.098 19.196C100.51 18.4104 99.9656 18.4171 99.34 19.1826C99.1319 19.4369 98.8421 20.0432 98.4393 19.645C98.1301 19.3399 98.64 18.9859 98.9017 18.7845C99.718 18.1628 99.7401 17.6014 98.9017 16.9952C98.7377 16.8754 98.5002 16.668 98.6895 16.4532C98.9171 16.1902 99.1934 16.3802 99.344 16.5816C100.013 17.4837 100.589 17.2274 101.184 16.4973C101.318 16.3294 101.529 15.9928 101.797 16.2919C102.016 16.5348 101.797 16.8004 101.596 16.9463C100.713 17.5713 100.671 18.1702 101.565 18.8072L101.567 18.8086ZM105.726 54.7743C104.248 54.7743 102.813 53.369 102.767 51.8829C102.723 50.4388 104.172 48.8857 105.593 48.8569C107.235 48.8242 108.507 50.1049 108.511 51.7945C108.515 53.4601 107.287 54.7743 105.726 54.7743ZM114.753 13.4205C114.581 13.3985 114.419 13.3255 114.43 13.1154C114.43 13.0907 114.621 13.0378 114.698 13.0639C114.817 13.102 114.917 13.1977 115.099 13.3162C114.921 13.3704 114.832 13.4259 114.753 13.4172L114.753 13.4205ZM124.74 45.6818C124.572 45.5821 124.353 45.5025 124.2 45.3546C123.966 45.1244 123.785 44.8434 123.572 44.5911C122.557 43.3993 122.276 43.408 121.163 44.4432C120.813 44.7684 120.462 45.6477 119.922 45.1124C119.466 44.6654 120.331 44.389 120.623 44.0993C121.441 43.2829 121.718 42.5508 120.659 41.7238C120.344 41.4782 120.108 41.1329 119.838 40.8345C119.714 40.7006 119.552 40.536 119.696 40.3607C119.878 40.1439 120.106 40.2523 120.274 40.4115C120.752 40.8699 121.24 41.3209 121.679 41.8121C122.07 42.2457 122.383 42.2303 122.763 41.8034C123.104 41.4226 123.506 41.0934 123.864 40.7281C124.091 40.5005 124.384 40.3058 124.637 40.5179C124.995 40.8191 124.548 40.9937 124.413 41.2125C124.389 41.24 124.363 41.266 124.336 41.2901C122.817 42.9182 122.817 42.9155 124.425 44.5483C124.63 44.7584 124.847 44.9665 125.001 45.2121C125.14 45.4242 125.091 45.6363 124.74 45.6785L124.74 45.6818ZM131.756 74.7325C129.409 74.7238 127.719 73.0475 127.746 70.7068C127.779 67.9954 129.604 66.7207 131.849 66.5882C133.953 66.4664 135.959 68.6097 135.919 70.7028C135.877 73.0716 134.149 74.7445 131.756 74.7325ZM140.383 36.0962C140.368 36.0713 140.357 36.0445 140.35 36.0165C140.319 35.9838 140.283 35.9496 140.255 35.9195C140.274 35.9235 140.303 35.9195 140.314 35.9349C140.332 35.9589 140.345 35.9859 140.354 36.0145C140.383 36.0473 140.414 36.0815 140.443 36.1162C140.425 36.1096 140.396 36.1096 140.385 36.0962H140.383ZM144.482 44.0658C143.977 43.8028 144.013 43.2628 143.813 42.8781C142.895 41.1242 142.14 39.288 141.056 37.6178C140.878 37.3395 140.745 37.0317 140.789 36.681L140.691 36.5773C140.713 36.5813 140.742 36.5773 140.758 36.5907C140.775 36.6165 140.789 36.6447 140.798 36.6743C140.944 36.7499 141.092 36.8249 141.238 36.8998C141.22 35.8559 140.391 35.0663 140.346 34.0312C140.316 33.9977 140.287 33.9642 140.256 33.9295C140.292 33.9602 140.323 33.989 140.358 34.0198C141.169 34.5926 141.62 35.3802 141.924 36.325C142.311 37.5168 143.128 38.4971 143.766 39.5611C144.784 41.2547 144.8 41.246 144.484 44.0658H144.482ZM147.083 51.1374C147.069 51.1004 147.06 51.062 147.054 51.023C147.054 51.0136 147.101 51.0069 147.125 50.9982C147.116 51.0384 147.105 51.0759 147.085 51.1374H147.083ZM152.507 72.3175C152.113 74.7994 152.354 77.3007 152.27 79.7913C152.261 80.0482 152.529 80.5789 151.816 80.3821C151.662 80.338 151.631 80.6632 151.646 80.8398C151.726 81.8395 151.452 82.8045 151.385 83.7908C151.401 84.7129 151.091 85.5694 150.817 86.7485C150.708 85.5226 150.898 84.6513 151.179 83.7928C151.186 82.0697 151.339 80.3467 151.365 78.6283C151.443 73.7528 150.978 68.9108 150.151 64.0956C149.58 60.7732 148.987 57.4663 147.948 54.2523C147.848 53.9472 147.886 53.5972 147.862 53.268C147.432 52.8277 147.37 52.2569 147.308 51.6841C147.693 52.1398 147.955 52.6865 148.069 53.272C149.319 56.2451 150.425 59.2643 151.254 62.3919C151.978 65.1241 152.131 67.9459 152.708 70.6981C152.816 71.2027 152.595 71.7775 152.509 72.3175H152.507Z" fill="#A4DFFF"/>
<path d="M48.4628 143.99C58.189 145.829 68.2818 145.797 78.2255 145.408C86.5277 145.085 95.6014 144.842 104.203 143.233C109.623 142.219 114.858 140.661 119.593 138.198C132.647 131.402 142.448 119.591 148.126 106.142C154.99 89.8815 156.624 71.2984 151.749 54.3367C146.873 37.3749 135.332 22.2447 119.786 13.8923L129.072 22.412C124.139 17.8858 118.458 14.1546 112.419 11.2779C106.322 8.37907 99.849 6.34573 93.1891 5.23681C86.5457 4.12869 79.7438 3.94802 73.0562 4.76104C71.8394 4.89812 70.6305 5.09756 69.4341 5.35859C67.6856 5.76009 65.7758 5.647 64.0849 6.23385C62.309 6.85014 58.6955 7.88866 56.858 8.28413C53.1536 9.08244 51.5269 10.0045 47.8713 11.0277C46.4533 11.4231 45.0515 11.9156 43.671 12.4275C43.3163 12.5614 42.5334 12.8518 42.3508 12.924C36.6108 15.2433 31.3873 19.1157 26.8264 23.2391C22.1349 27.4775 18.0672 32.3938 14.6986 37.745C11.3098 43.1372 8.6352 48.9465 6.74172 55.0272C5.4909 59.0325 4.59326 63.1396 4.05908 67.3015C2.44843 79.9271 2.81981 92.979 6.58514 105.208C8.50762 111.453 11.3141 117.418 14.9817 122.83C19.1445 128.971 25.4593 135.386 32.1642 138.682C37.4111 141.258 42.8767 142.931 48.4628 143.99Z" fill="#A4DFFF"/>
<path d="M116.027 13.4547H116.022C116.022 13.4547 116.022 13.45 116.018 13.448L116.027 13.4547Z" fill="#FEF8F6"/>
<path d="M116.646 14.1339C116.311 14.158 116.013 14.0255 115.744 13.8528C115.644 13.7906 115.593 13.6521 115.52 13.5517C115.686 13.5189 115.855 13.4848 116.022 13.4547C116.166 13.6735 116.312 13.7003 116.46 13.4547C116.668 13.5671 116.967 13.6072 117.016 13.8729C117.062 14.1138 116.801 14.085 116.646 14.1339Z" fill="#FEF8F6"/>
<path d="M116.46 13.4547C116.312 13.7003 116.166 13.6735 116.022 13.4547C116.022 13.4547 116.022 13.45 116.018 13.448H116.022L116.46 13.4547Z" fill="#FECCBD"/>
<path d="M118.458 13.45L118.159 13.3751C118.323 13.1636 118.373 13.3603 118.452 13.456L118.458 13.45Z" fill="#FECCBD"/>
<path d="M118.452 13.4554C118.482 13.4629 118.51 13.4744 118.536 13.4895C118.55 13.4995 118.549 13.529 118.554 13.5497L118.458 13.4493L118.452 13.4554Z" fill="#FECCBD"/>
<path d="M119.123 13.8903L119.115 13.899C119.083 13.8635 119.048 13.8321 119.017 13.7953C119.042 13.8 119.073 13.7953 119.084 13.8087C119.098 13.8274 119.108 13.8481 119.115 13.8702C119.117 13.8773 119.12 13.8841 119.123 13.8903Z" fill="#FECCBD"/>
<path d="M152.509 72.3175C152.115 74.7994 152.356 77.3007 152.272 79.7913C152.263 80.0482 152.531 80.5789 151.818 80.3822C151.664 80.338 151.633 80.6632 151.648 80.8399C151.728 81.8396 151.454 82.8045 151.387 83.7908C151.321 83.7908 151.254 83.7908 151.181 83.7908C151.188 82.0677 151.341 80.3447 151.367 78.6263C151.445 73.7508 150.98 68.9088 150.153 64.0936C149.582 60.7713 148.989 57.4643 147.95 54.2503C147.85 53.9452 147.888 53.5952 147.864 53.266C147.931 53.266 148.001 53.266 148.071 53.27C149.321 56.2431 150.427 59.2623 151.256 62.3899C151.98 65.1221 152.133 67.9439 152.71 70.6961C152.816 71.2027 152.595 71.7775 152.509 72.3175Z" fill="#FCFCFD"/>
<path d="M37.0196 53.8207C36.9179 51.3449 35.1594 49.7041 32.8856 49.7242C30.5121 49.7202 28.8707 51.3569 28.862 53.7391C28.8553 56.0965 30.5783 57.8705 32.9097 57.9059C34.9968 57.9354 37.1059 55.9159 37.0196 53.8207ZM32.828 57.2381C31.0668 57.2187 29.5278 55.6014 29.5231 53.7679C29.5164 51.7484 30.8768 50.3947 32.921 50.3853C34.788 50.3793 36.3846 51.9652 36.3779 53.8228C36.3692 55.5619 34.606 57.2602 32.828 57.2381Z" fill="#FEF8F6"/>
<path d="M131.851 66.5882C129.606 66.722 127.781 67.9934 127.748 70.7069C127.721 73.0489 129.411 74.7218 131.758 74.7325C134.149 74.7419 135.877 73.0696 135.921 70.7028C135.961 68.6097 133.955 66.4664 131.851 66.5882ZM131.736 74.0714C129.78 74.0714 128.409 72.7043 128.405 70.7604C128.4 68.8165 129.968 67.1965 131.853 67.2186C133.593 67.2386 135.278 68.9972 135.255 70.7691C135.236 72.7023 133.771 74.0754 131.736 74.0714Z" fill="#FEF8F6"/>
<path d="M144.484 44.0658C143.979 43.8028 144.015 43.2628 143.815 42.8781C142.897 41.1242 142.142 39.2881 141.058 37.6178C140.88 37.3395 140.747 37.0317 140.791 36.681L140.797 36.6743C140.943 36.75 141.091 36.8249 141.237 36.8998C141.266 36.9955 141.293 37.0906 141.321 37.1856C141.348 37.1655 141.377 37.1481 141.403 37.128C141.348 37.0504 141.293 36.9775 141.237 36.8998C141.22 35.856 140.39 35.0664 140.346 34.0312L140.357 34.0198C141.169 34.5926 141.62 35.3802 141.923 36.325C142.31 37.5168 143.127 38.4971 143.766 39.5611C144.784 41.2547 144.8 41.246 144.484 44.0658Z" fill="#FEF8F6"/>
<path d="M105.593 48.8569C104.173 48.8857 102.722 50.4388 102.766 51.8829C102.812 53.3717 104.248 54.7763 105.726 54.7743C107.287 54.7743 108.515 53.4601 108.51 51.7945C108.506 50.1049 107.234 48.8242 105.593 48.8569ZM105.783 53.9425C104.369 53.9579 103.441 53.0867 103.434 51.7376C103.427 50.6449 104.551 49.5234 105.642 49.5294C106.94 49.5361 107.836 50.4455 107.85 51.7704C107.86 53.0753 107.048 53.9291 105.783 53.9445V53.9425Z" fill="#FEF8F6"/>
<path d="M124.74 45.6785C124.572 45.5788 124.352 45.4991 124.2 45.3512C123.965 45.1211 123.784 44.84 123.571 44.5877C122.556 43.396 122.275 43.4047 121.162 44.4399C120.812 44.7651 120.461 45.6443 119.921 45.109C119.465 44.662 120.331 44.3857 120.622 44.0959C121.441 43.2795 121.717 42.5475 120.658 41.7204C120.343 41.4748 120.107 41.1295 119.837 40.8311C119.713 40.6973 119.552 40.5327 119.696 40.3573C119.877 40.1405 120.105 40.2489 120.273 40.4082C120.751 40.8666 121.239 41.3176 121.678 41.8087C122.07 42.2424 122.382 42.227 122.762 41.8C123.103 41.4193 123.506 41.0901 123.864 40.7247C124.09 40.4972 124.384 40.3025 124.636 40.5146C124.995 40.8157 124.548 40.9904 124.412 41.2092C124.388 41.2367 124.362 41.2626 124.335 41.2868C122.816 42.9149 122.816 42.9122 124.424 44.5449C124.629 44.755 124.846 44.9631 125.001 45.2087C125.14 45.4242 125.091 45.6363 124.74 45.6785Z" fill="#FEF8F6"/>
<path d="M32.8167 98.1649C31.3278 98.1448 30.0142 99.3794 30.0029 100.808C29.9962 102.027 31.4342 103.463 32.6554 103.454C34.0733 103.445 35.2852 102.215 35.2965 100.777C35.3099 99.2061 34.3363 98.1843 32.8167 98.1649ZM32.7417 102.775C31.7775 102.83 30.658 101.657 30.6754 100.695C30.6954 99.6846 31.647 98.8214 32.7437 98.8214C33.9274 98.826 34.5504 99.5447 34.6548 100.762C34.7458 101.814 33.7434 102.715 32.7417 102.774V102.775Z" fill="#FEF8F6"/>
<path d="M33.7367 19.8672C32.8668 20.8227 31.7574 21.4819 30.7704 22.2915C27.7933 24.7333 24.7366 27.0867 22.2614 30.0798C21.9382 30.4713 21.611 30.9316 20.9338 30.9537C21.3962 30.3716 21.8164 29.7493 22.3297 29.2173C24.495 26.9669 26.6992 24.7587 29.2092 22.8797C30.3836 22.0018 31.5118 21.0636 32.7417 20.2586C33.0515 20.0572 33.3299 19.807 33.7367 19.8672Z" fill="#FEF8F6"/>
<path d="M101.31 8.70301C100.434 8.89104 99.637 8.46011 98.808 8.3517C97.0012 8.11482 95.2072 7.79631 93.4086 7.50656C93.2118 7.4731 92.9154 7.53534 92.8933 7.23221C92.8732 6.97793 93.1188 6.89161 93.3095 6.78521C93.6699 6.59106 94.0871 6.53017 94.4879 6.61324C96.6426 7.01473 98.7906 7.44701 100.85 8.21921C101.038 8.29215 101.297 8.32962 101.31 8.70301Z" fill="#FEF8F6"/>
<path d="M39.99 38.2174C40.1359 38.4034 40.2155 38.6189 39.9967 38.7969C39.8334 38.9254 39.6494 38.8477 39.4922 38.7333C39.4592 38.7156 39.4301 38.6915 39.4065 38.6624C38.5038 37.1468 37.7517 37.9083 36.9975 38.8123C36.8316 39.013 36.5813 39.2265 36.3358 39.013C36.0152 38.7367 36.2983 38.4891 36.491 38.2723C36.6327 38.1024 36.7895 37.9456 36.9594 37.8039C37.751 37.1929 37.9196 36.6422 36.8798 36.0982C36.6121 35.957 36.2447 35.6492 36.5057 35.3086C36.8048 34.9124 37.1341 35.2778 37.3047 35.5207C38.0147 36.5298 38.647 36.3679 39.2974 35.4725C39.4258 35.2916 39.5947 35.1431 39.7906 35.0389C40.1399 34.8643 40.2068 35.1674 40.3728 35.3949C40.1118 35.676 39.9191 35.9523 39.6621 36.149C38.9455 36.6998 38.7159 37.2284 39.6159 37.8219C39.7605 37.9169 39.8776 38.0749 39.99 38.2174Z" fill="#FEF8F6"/>
<path d="M21.2838 71.6892C21.4277 71.8035 21.5535 71.9389 21.6572 72.0906C21.7703 72.2412 21.8499 72.4252 21.7013 72.5885C21.5267 72.7785 21.3788 72.6106 21.2329 72.5136C20.7331 72.179 20.4808 71.3057 19.7976 71.4958C19.2957 71.635 18.9237 72.2318 18.4881 72.622C18.2759 72.8073 18.0197 73.1439 17.758 72.8361C17.4964 72.5283 17.9374 72.361 18.0852 72.1415C18.1554 72.0573 18.2324 71.9789 18.3154 71.9073C19.3861 70.8253 19.3861 70.8253 18.3931 69.6777C18.2271 69.4876 17.9882 69.3284 18.0725 69.0273C18.0966 68.943 18.2003 68.8814 18.5302 68.5361C18.7979 68.9429 19.0348 69.317 19.2864 69.6817C19.7046 70.29 20.1275 70.2659 20.5477 69.6777C20.6125 69.5879 20.6916 69.5094 20.7819 69.4455C21.1165 69.2106 21.4236 68.5087 21.7997 68.866C22.2266 69.2728 21.5321 69.6088 21.251 69.8256C20.3811 70.5034 20.4186 71.0762 21.2838 71.6892Z" fill="#FEF8F6"/>
<path d="M101.83 19.376C101.804 19.4797 101.757 19.5928 101.495 19.54C101.416 19.473 101.216 19.3606 101.094 19.1947C100.505 18.4091 99.9609 18.4158 99.3353 19.1813C99.1272 19.4356 98.8374 20.0418 98.4346 19.6437C98.1254 19.3385 98.6353 18.9846 98.897 18.7831C99.7133 18.1615 99.7354 17.6001 98.897 16.9938C98.733 16.874 98.4955 16.6666 98.6848 16.4518C98.9124 16.1888 99.1887 16.3789 99.3393 16.5803C100.008 17.4823 100.585 17.226 101.179 16.496C101.313 16.328 101.525 15.9914 101.792 16.2905C102.011 16.5334 101.792 16.7991 101.592 16.945C100.722 17.5713 100.682 18.1702 101.576 18.8072C101.74 18.9371 101.89 19.1237 101.83 19.376Z" fill="#FEF8F6"/>
<path d="M151.387 83.7908C151.403 84.7129 151.093 85.5694 150.819 86.7485C150.71 85.5226 150.9 84.6513 151.181 83.7928C151.25 83.7928 151.318 83.7908 151.387 83.7908Z" fill="#F3F4F5"/>
<path d="M148.071 53.272C148.004 53.272 147.932 53.272 147.864 53.268C147.434 52.8277 147.372 52.2569 147.31 51.6841C147.695 52.1398 147.957 52.6865 148.071 53.272Z" fill="#F3F4F5"/>
<path d="M20.0251 32.2586C19.9522 32.6942 19.8284 33.097 19.2529 33.3292C19.277 32.7317 19.6544 32.4975 20.0204 32.2539L20.0251 32.2586Z" fill="#FEF8F6"/>
<path d="M20.0251 32.2586L20.0204 32.2519C20.0452 31.8959 20.2212 31.6496 20.6026 31.4824C20.7264 32.011 20.452 32.1863 20.0251 32.2586Z" fill="#FEF8F6"/>
<path d="M115.098 13.3162C114.921 13.3737 114.83 13.4292 114.753 13.4205C114.58 13.3985 114.418 13.3255 114.429 13.1154C114.429 13.0906 114.62 13.0378 114.697 13.0639C114.819 13.0987 114.919 13.1937 115.098 13.3162Z" fill="#FEF8F6"/>
<path d="M34.3945 19.4289C34.2687 19.7146 34.0472 19.8538 33.7374 19.8672C33.7655 19.4289 34.0754 19.4222 34.3945 19.4289Z" fill="#FEF8F6"/>
<path d="M34.4052 19.4289H34.3945C34.3945 19.4289 34.3945 19.4249 34.3945 19.4222L34.4052 19.4289Z" fill="#FEF8F6"/>
<path d="M48.1216 12.7842C48.1216 12.7842 48.1216 12.7889 48.1169 12.7909L48.1216 12.7842Z" fill="#FEFEFE"/>
<path d="M129.526 22.5284C129.522 22.5284 129.517 22.5284 129.513 22.5284L129.517 22.5217C129.52 22.5244 129.523 22.5266 129.526 22.5284Z" fill="#FEFEFE"/>
<path d="M129.809 22.5987C129.65 22.8115 129.599 22.6254 129.526 22.5284L129.809 22.5987Z" fill="#FEFEFE"/>
<path d="M147.127 50.9982C147.116 51.0384 147.105 51.0759 147.085 51.1374C147.071 51.1004 147.062 51.062 147.056 51.023C147.058 51.0136 147.103 51.0069 147.127 50.9982Z" fill="#F3F4F5"/>
<path d="M144.327 113.446C144.304 113.537 144.28 113.63 144.26 113.721C144.061 113.566 144.23 113.517 144.327 113.446Z" fill="#FEFEFE"/>
<path d="M144.34 113.436L144.327 113.446C144.328 113.441 144.329 113.435 144.331 113.429L144.34 113.436Z" fill="#FEFEFE"/>
<path d="M140.799 36.6757L140.792 36.6824L140.694 36.5786C140.716 36.5827 140.745 36.5786 140.761 36.592C140.778 36.618 140.79 36.6461 140.799 36.6757Z" fill="#FEF8F6"/>
<path d="M140.445 36.1162C140.425 36.1096 140.396 36.1096 140.385 36.0962C140.37 36.0713 140.359 36.0445 140.352 36.0165H140.356C140.385 36.0473 140.416 36.0808 140.445 36.1162Z" fill="#FEF8F6"/>
<path d="M34.6261 19.2081L34.4052 19.4289L34.3959 19.4222C34.4688 19.3473 34.5444 19.2743 34.6174 19.2014L34.6261 19.2081Z" fill="#FEF8F6"/>
<path d="M34.6394 19.1947L34.626 19.2081L34.6173 19.2014C34.6244 19.1983 34.6318 19.196 34.6394 19.1947Z" fill="#FEF8F6"/>
<path d="M34.7144 19.1171C34.7077 19.1351 34.7077 19.1592 34.695 19.1706C34.6777 19.1811 34.659 19.1892 34.6394 19.1947C34.6622 19.1679 34.6883 19.1418 34.7144 19.1171Z" fill="#FEF8F6"/>
<path d="M129.438 22.4441C129.389 22.3999 129.34 22.3511 129.289 22.3049L129.301 22.2955C129.347 22.3497 129.392 22.3952 129.438 22.4441Z" fill="#FEFEFE"/>
<path d="M129.517 22.519L129.513 22.5257L129.438 22.4441C129.465 22.4709 129.491 22.4949 129.517 22.519Z" fill="#FEFEFE"/>
<path d="M140.358 34.0191L140.347 34.0305C140.316 33.9971 140.287 33.9636 140.257 33.9288C140.292 33.9596 140.325 33.9884 140.358 34.0191Z" fill="#FEF8F6"/>
<path d="M140.356 36.0145H140.352C140.321 35.9818 140.285 35.9476 140.257 35.9175C140.276 35.9215 140.305 35.9175 140.316 35.9329C140.334 35.9575 140.348 35.9852 140.356 36.0145Z" fill="#FEF8F6"/>
<path d="M29.5231 53.7679C29.5171 51.747 30.8775 50.3933 32.9217 50.386C34.7887 50.3793 36.3839 51.9659 36.3772 53.8228C36.3705 55.5626 34.6067 57.2595 32.8307 57.2395C31.0675 57.2187 29.5284 55.6027 29.5231 53.7679Z" fill="#A4DFFF"/>
<path d="M131.736 74.0754C129.782 74.0754 128.409 72.7083 128.405 70.7631C128.4 68.8178 129.969 67.2005 131.853 67.2219C133.593 67.2413 135.276 68.9992 135.255 70.7724C135.236 72.7023 133.771 74.0754 131.736 74.0754Z" fill="#A4DFFF"/>
<path d="M141.404 37.1294C141.378 37.1494 141.349 37.1668 141.323 37.1869C141.294 37.0919 141.267 36.9969 141.238 36.9012C141.294 36.9788 141.349 37.0517 141.404 37.1294Z" fill="#FECCBD"/>
<path d="M107.849 51.7698C107.861 53.0753 107.046 53.9305 105.784 53.9445C104.37 53.9599 103.442 53.0893 103.434 51.7363C103.428 50.6449 104.55 49.5221 105.643 49.5281C106.941 49.5361 107.837 50.4455 107.849 51.7698Z" fill="#A4DFFF"/>
<path d="M32.7431 98.824C33.9275 98.824 34.5498 99.5474 34.6562 100.765C34.7465 101.817 33.7434 102.716 32.7411 102.772C31.7768 102.83 30.6586 101.657 30.676 100.694C30.6954 99.6832 31.651 98.8214 32.7431 98.824Z" fill="#A4DFFF"/>
<path d="M79.0003 137.976C111.285 137.976 137.456 135.137 137.456 131.635C137.456 128.133 111.285 125.294 79.0003 125.294C46.716 125.294 20.5444 128.133 20.5444 131.635C20.5444 135.137 46.716 137.976 79.0003 137.976Z" fill="#EBEBEB"/>
<path d="M15.7713 123.28L31.1766 123.209L46.5825 123.184L77.3944 123.135L108.206 123.183L123.612 123.209L139.017 123.28L123.612 123.351L108.206 123.376L77.3944 123.423L46.5825 123.375L31.1766 123.35L15.7713 123.28Z" fill="#1A2E35"/>
<path d="M46.0258 66.6277V52.8358H32.2338V66.6277H46.0258Z" fill="#DBDBDB"/>
<path d="M43.8871 64.4891V54.9744H34.3724V64.4891H43.8871Z" fill="white"/>
<path d="M43.8865 54.9744H34.3718V64.4891L43.8865 54.9744Z" fill="#EBEBEB"/>
<path d="M30.8855 66.6284H32.2332V52.8364H30.8855V66.6284Z" fill="#C8C8C8"/>
<path d="M63.0992 66.6284V52.8364H49.3073V66.6284H63.0992Z" fill="#DBDBDB"/>
<path d="M60.9606 64.4891V54.9744H51.4459V64.4891H60.9606Z" fill="white"/>
<path d="M58.1669 54.9744H51.4453V61.6953L58.1669 54.9744Z" fill="#EBEBEB"/>
<path d="M47.9596 66.6284H49.3073V52.8364H47.9596V66.6284Z" fill="#C8C8C8"/>
<path d="M63.0986 87.9543V69.9293H32.2332V87.9543H63.0986Z" fill="#DBDBDB"/>
<path d="M60.8455 85.726V72.1582H34.4862V85.726H60.8455Z" fill="white"/>
<path d="M51.7658 72.1582H34.4862V81.052L51.7658 72.1582Z" fill="#EBEBEB"/>
<path d="M30.8855 87.9543H32.2332V69.9293H30.8855L30.8855 87.9543Z" fill="#C8C8C8"/>
<g opacity="0.2">
<path opacity="0.4" d="M102.409 39.0659C103.662 41.0934 102.975 43.5051 101.673 44.2492C100.37 44.9933 98.0732 46.4707 97.7347 47.3828C97.3961 48.2949 95.2548 50.6001 92.5587 49.2725C89.8627 47.9449 90.1638 43.3023 91.3543 40.4584C92.9234 36.7078 98.9679 33.4932 102.409 39.0659Z" fill="#FFC800"/>
<path d="M93.889 50.0929C93.208 50.0884 92.5407 49.9007 91.9572 49.5495C89.2137 47.9389 89.9832 43.2046 91.371 40.5119C92.5373 38.2482 95.2655 36.5365 97.7159 36.5311H97.7293C99.2296 36.5311 101.322 37.1287 102.8 39.9646C103.078 40.4901 103.246 41.0661 103.297 41.6583C103.347 42.2504 103.277 42.8466 103.093 43.4114C102.801 44.2732 102.257 44.9457 101.598 45.2549C99.8619 46.0699 97.8852 47.2035 97.5433 47.9415C97.2843 48.501 96.3013 49.5154 95.0159 49.9169C94.6514 50.0327 94.2714 50.0921 93.889 50.0929ZM97.7286 36.8202H97.7166C95.3665 36.8256 92.7488 38.4697 91.6273 40.6444C90.2375 43.3418 89.6299 47.8499 92.1037 49.3006C93.0078 49.8306 93.9586 49.945 94.9302 49.6412C96.1347 49.2651 97.0434 48.3323 97.281 47.8198C97.7393 46.8307 100.366 45.5139 101.475 44.9933C102.063 44.7176 102.553 44.1066 102.819 43.3204C102.991 42.7925 103.056 42.2354 103.008 41.6821C102.961 41.1288 102.803 40.5907 102.544 40.0997C101.133 37.391 99.1493 36.8202 97.7286 36.8202Z" fill="#1A2E35"/>
<path d="M121.244 53.0472C115.824 54.0556 113.41 58.371 115.144 60.6876C116.878 63.0042 122.915 62.9627 124.03 66.3025C125.145 69.6422 129.304 74.6114 133.641 71.2542C137.979 67.8971 132.837 50.8905 121.244 53.0472Z" fill="#DBDBDB"/>
<path d="M128.89 73.7816C128.265 73.7788 127.646 73.6455 127.075 73.3902C124.671 72.3369 122.896 69.2923 122.386 66.8324C121.993 64.9407 119.924 63.9022 117.924 62.8985C116.361 62.1136 114.884 61.3728 114.237 60.2553C113.689 59.3078 113.725 58.1067 114.336 56.9591C115.226 55.2915 117.524 53.4192 121.308 53.1683C129.271 52.643 132.227 60.074 132.944 62.3652C134.39 66.9823 133.783 71.643 131.564 72.9759C130.665 73.5119 129.771 73.7816 128.89 73.7816ZM121.329 53.4534C117.663 53.6963 115.446 55.4923 114.593 57.0922C114.021 58.1629 113.984 59.2335 114.49 60.1074C115.092 61.15 116.532 61.872 118.055 62.6368C120.117 63.6714 122.25 64.742 122.672 66.7709C123.168 69.1611 124.88 72.1121 127.195 73.1278C128.56 73.7254 129.981 73.5909 131.419 72.7264C133.53 71.4596 134.08 66.9455 132.673 62.4502C131.971 60.2098 129.086 52.9415 121.331 53.4554L121.329 53.4534Z" fill="#1A2E35"/>
</g>
<path d="M105.358 68.5977V66.4363C105.358 66.383 105.379 66.332 105.416 66.2943C105.454 66.2567 105.505 66.2355 105.558 66.2355C105.612 66.2352 105.664 66.2561 105.702 66.2937C105.741 66.3312 105.763 66.3825 105.764 66.4363V68.3929H106.757C106.811 68.3929 106.863 68.4143 106.901 68.4525C106.939 68.4906 106.96 68.5424 106.96 68.5963C106.96 68.6503 106.939 68.702 106.901 68.7402C106.863 68.7783 106.811 68.7997 106.757 68.7997H105.559C105.533 68.7998 105.506 68.7947 105.482 68.7845C105.457 68.7744 105.435 68.7595 105.416 68.7407C105.397 68.7219 105.383 68.6996 105.373 68.675C105.363 68.6505 105.357 68.6242 105.358 68.5977Z" fill="#FFC800"/>
<path d="M109.297 66.5534C109.535 66.8036 109.667 67.1355 109.667 67.4805C109.667 67.8256 109.535 68.1574 109.297 68.4076C109.186 68.5297 109.051 68.6276 108.9 68.6951C108.75 68.7625 108.587 68.7982 108.422 68.7998C108.253 68.7991 108.087 68.764 107.932 68.6965C107.778 68.6291 107.639 68.5308 107.524 68.4076C107.291 68.1554 107.161 67.8243 107.161 67.4805C107.161 67.1367 107.291 66.8056 107.524 66.5534C107.639 66.4298 107.778 66.3312 107.932 66.2638C108.087 66.1965 108.253 66.1618 108.422 66.162C108.587 66.1627 108.75 66.1979 108.901 66.2653C109.051 66.3327 109.186 66.4308 109.297 66.5534ZM109.249 67.4809C109.25 67.2436 109.161 67.0148 109.001 66.8398C108.926 66.7579 108.836 66.6924 108.735 66.6475C108.634 66.6027 108.525 66.5796 108.414 66.5796C108.304 66.5796 108.195 66.6027 108.094 66.6475C107.993 66.6924 107.902 66.7579 107.828 66.8398C107.666 67.0137 107.577 67.2431 107.579 67.4809C107.576 67.7175 107.666 67.9458 107.828 68.1179C107.902 68.2008 107.992 68.2671 108.093 68.3126C108.194 68.358 108.304 68.3815 108.414 68.3815C108.525 68.3815 108.635 68.358 108.736 68.3126C108.837 68.2671 108.927 68.2008 109.001 68.1179C109.161 67.9447 109.25 67.7171 109.249 67.4809Z" fill="#FFC800"/>
<path d="M110.277 67.4842C110.281 67.1296 110.426 66.7912 110.679 66.5433C110.933 66.2953 111.274 66.1582 111.629 66.1619C111.931 66.161 112.226 66.2616 112.464 66.4477C112.486 66.4645 112.504 66.4854 112.517 66.5093C112.531 66.5331 112.54 66.5594 112.543 66.5866C112.547 66.6138 112.545 66.6414 112.537 66.6679C112.53 66.6943 112.518 66.7191 112.501 66.7408C112.484 66.7624 112.463 66.7806 112.439 66.7941C112.415 66.8077 112.389 66.8164 112.362 66.8199C112.335 66.8233 112.307 66.8213 112.281 66.814C112.254 66.8068 112.229 66.7944 112.208 66.7776C112.042 66.6487 111.839 66.5781 111.629 66.5768C111.507 66.5748 111.385 66.5974 111.272 66.6434C111.158 66.6894 111.055 66.7578 110.969 66.8445C110.883 66.9258 110.814 67.0241 110.766 67.1331C110.719 67.2421 110.695 67.3597 110.695 67.4785C110.695 67.5973 110.719 67.7149 110.766 67.8239C110.814 67.933 110.883 68.0312 110.969 68.1125C111.055 68.1992 111.158 68.2676 111.272 68.3136C111.385 68.3596 111.507 68.3822 111.629 68.3802C111.806 68.3785 111.979 68.3305 112.131 68.241V67.7391H111.607C111.552 67.7386 111.499 67.7164 111.46 67.6774C111.421 67.6384 111.399 67.5856 111.398 67.5304C111.398 67.5032 111.404 67.4762 111.414 67.4512C111.425 67.4261 111.44 67.4034 111.46 67.3843C111.479 67.3653 111.502 67.3503 111.527 67.3402C111.553 67.3301 111.58 67.3252 111.607 67.3256H112.336C112.363 67.3247 112.391 67.3293 112.416 67.3392C112.442 67.3491 112.465 67.364 112.485 67.3831C112.505 67.4022 112.521 67.425 112.532 67.4503C112.543 67.4756 112.548 67.5028 112.548 67.5304V68.34C112.547 68.3611 112.543 68.3819 112.538 68.4023C112.534 68.4096 112.534 68.4136 112.53 68.421V68.4244C112.517 68.4602 112.494 68.4912 112.463 68.5127C112.225 68.6978 111.932 68.7984 111.631 68.7984C110.885 68.7997 110.277 68.2169 110.277 67.4842Z" fill="#FFC800"/>
<path d="M113.4 66.4363C113.4 66.383 113.421 66.332 113.458 66.2943C113.496 66.2567 113.547 66.2355 113.6 66.2355C113.654 66.2352 113.706 66.2561 113.744 66.2937C113.783 66.3312 113.805 66.3825 113.806 66.4363V68.5977C113.805 68.6514 113.783 68.7027 113.744 68.7403C113.706 68.7779 113.654 68.7988 113.6 68.7984C113.547 68.7984 113.496 68.7773 113.458 68.7396C113.421 68.702 113.4 68.6509 113.4 68.5977V66.4363Z" fill="#FFC800"/>
<path d="M114.894 68.5977C114.894 68.6509 114.873 68.702 114.835 68.7396C114.797 68.7773 114.746 68.7984 114.693 68.7984C114.64 68.7984 114.589 68.7773 114.551 68.7396C114.513 68.702 114.492 68.6509 114.492 68.5977V66.4657C114.491 66.4331 114.497 66.4006 114.511 66.3711C114.525 66.3417 114.547 66.3162 114.573 66.2971C114.616 66.2664 114.669 66.2539 114.721 66.2621C114.774 66.2704 114.82 66.2988 114.852 66.3413L116.035 67.9787V66.4698C116.035 66.4165 116.056 66.3654 116.093 66.3278C116.131 66.2902 116.182 66.269 116.235 66.269C116.289 66.269 116.34 66.2902 116.377 66.3278C116.415 66.3654 116.436 66.4165 116.436 66.4698V68.5977C116.436 68.6509 116.415 68.702 116.377 68.7396C116.34 68.7773 116.289 68.7984 116.235 68.7984C116.207 68.7977 116.178 68.7908 116.152 68.7781C116.126 68.7654 116.103 68.7472 116.085 68.7248C116.078 68.7185 116.072 68.711 116.067 68.7027L114.894 67.0773V68.5977Z" fill="#FFC800"/>
<path d="M116.738 62.054C115.042 63.1018 113.088 63.6564 111.094 63.6556C109.101 63.6548 107.147 63.0985 105.452 62.0493C103.056 60.5709 101.338 58.2083 100.671 55.4729C99.2657 49.7121 102.791 43.9045 108.552 42.5006C114.312 41.0968 120.113 44.6212 121.524 50.3819C122.061 52.5836 121.887 54.8987 121.027 56.9955C120.167 59.0922 118.666 60.863 116.738 62.054Z" fill="#FFC800"/>
<path d="M111.362 54.9576C113.159 54.8092 114.496 53.2319 114.348 51.4345C114.199 49.6372 112.622 48.3004 110.825 48.4488C109.027 48.5972 107.69 50.1746 107.839 51.9719C107.987 53.7693 109.565 55.106 111.362 54.9576Z" fill="white"/>
<path d="M116.738 60.707V62.054C115.042 63.1018 113.088 63.6564 111.094 63.6556C109.101 63.6548 107.147 63.0986 105.452 62.0493V60.707C105.452 59.2104 106.047 57.7751 107.105 56.7168C108.163 55.6585 109.598 55.064 111.095 55.064C112.592 55.064 114.027 55.6585 115.085 56.7168C116.143 57.7751 116.738 59.2104 116.738 60.707Z" fill="white"/>
<path d="M104.527 106.187C108.669 110.242 109.365 116.515 108.492 122.01C108.469 122.135 108.277 122.101 108.277 121.984C108.277 120.733 108.314 119.494 108.31 118.258C108.288 118.201 108.268 118.148 108.243 118.092C107.162 117.305 106.169 116.419 105.552 115.2C104.861 113.84 104.589 112.305 104.059 110.884C104.011 110.75 104.156 110.789 104.251 110.858C106.77 112.716 107.573 114.716 108.296 117.388C108.262 116.001 108.156 114.615 107.858 113.228C107.314 110.691 106.236 108.178 104.415 106.296C104.35 106.225 104.455 106.115 104.527 106.187Z" fill="#1A2E35"/>
<path d="M103.749 106.663C103.036 106.687 102.589 107.826 102.034 108.158C101.74 108.335 101.454 108.324 101.248 108.035C100.698 107.267 101.452 106.319 102.162 105.789C101.655 105.998 101.234 106.365 100.686 106.468C100.352 106.529 100.097 106.407 100.017 106.067C99.7756 105.02 101.088 104.554 101.99 104.532C101.554 104.228 100.302 103.402 100.967 102.993C101.632 102.583 103.108 103.766 103.589 104.155C104.294 104.727 105.133 105.58 105.166 106.474C105.209 107.52 104.297 106.879 103.749 106.663Z" fill="#FFC800"/>
<path opacity="0.1" d="M103.749 106.663C103.036 106.687 102.589 107.826 102.034 108.158C101.74 108.335 101.454 108.324 101.248 108.035C100.698 107.267 101.452 106.319 102.162 105.789C101.655 105.998 101.234 106.365 100.686 106.468C100.352 106.529 100.097 106.407 100.017 106.067C99.7756 105.02 101.088 104.554 101.99 104.532C101.554 104.228 100.302 103.402 100.967 102.993C101.632 102.583 103.108 103.766 103.589 104.155C104.294 104.727 105.133 105.58 105.166 106.474C105.209 107.52 104.297 106.879 103.749 106.663Z" fill="black"/>
<path d="M103.955 106.835C103.044 106.421 101.294 107.017 101.145 106.673C100.844 105.971 102.242 105.489 102.997 105.396C102.302 105.208 100.969 104.907 101.01 104.237C101.06 103.418 103.054 104.122 104.062 104.896C105.334 105.87 105.325 106.811 105.115 106.999C104.827 107.257 104.106 106.903 103.955 106.835Z" fill="#FFC800"/>
<path d="M113.96 105.785C109.667 109.68 108.734 115.922 109.397 121.443C109.415 121.569 109.609 121.542 109.613 121.425C109.661 120.175 109.67 118.935 109.721 117.7C109.746 117.645 109.767 117.592 109.788 117.536C110.898 116.792 111.925 115.942 112.587 114.75C113.33 113.417 113.658 111.894 114.243 110.494C114.297 110.36 114.151 110.394 114.053 110.461C111.465 112.222 110.586 114.189 109.762 116.832C109.849 115.447 110.008 114.065 110.358 112.691C110.999 110.178 112.17 107.707 114.063 105.896C114.136 105.83 114.035 105.716 113.96 105.785Z" fill="#1A2E35"/>
<path d="M114.72 106.287C115.431 106.339 115.835 107.492 116.377 107.847C116.664 108.035 116.95 108.035 117.167 107.753C117.746 107.006 117.028 106.031 116.338 105.478C116.838 105.706 117.245 106.088 117.788 106.214C118.117 106.288 118.379 106.175 118.469 105.841C118.75 104.804 117.455 104.288 116.556 104.235C117.004 103.948 118.286 103.17 117.637 102.739C116.988 102.308 115.466 103.43 114.972 103.801C114.247 104.345 113.375 105.166 113.309 106.058C113.228 107.092 114.164 106.485 114.72 106.287Z" fill="#FFC800"/>
<path opacity="0.1" d="M114.72 106.287C115.431 106.339 115.835 107.492 116.377 107.847C116.664 108.035 116.95 108.035 117.167 107.753C117.746 107.006 117.028 106.031 116.338 105.478C116.838 105.706 117.245 106.088 117.788 106.214C118.117 106.288 118.379 106.175 118.469 105.841C118.75 104.804 117.455 104.288 116.556 104.235C117.004 103.948 118.286 103.17 117.637 102.739C116.988 102.308 115.466 103.43 114.972 103.801C114.247 104.345 113.375 105.166 113.309 106.058C113.228 107.092 114.164 106.485 114.72 106.287Z" fill="black"/>
<path d="M114.508 106.455C115.434 106.076 117.16 106.738 117.322 106.4C117.65 105.71 116.271 105.175 115.52 105.053C116.222 104.891 117.564 104.642 117.549 103.97C117.53 103.151 115.511 103.778 114.471 104.513C113.163 105.439 113.133 106.379 113.339 106.575C113.622 106.844 114.354 106.518 114.508 106.455Z" fill="#FFC800"/>
<path d="M109.57 116.071C109.253 118.124 108.86 120.246 108.237 122.228C108.177 122.408 107.909 122.362 107.937 122.167C108.219 120.27 108.733 118.407 109.015 116.509C109.302 114.589 109.455 112.643 109.344 110.701C109.164 107.503 108.296 104.101 106.209 101.6C106.163 101.541 106.26 101.457 106.308 101.513C110.485 106.383 109.821 112.353 109.817 112.888C110.408 110.871 111.018 108.56 113.255 106.507C113.351 106.418 113.426 106.46 113.411 106.611C113.009 110.351 111.971 112.304 109.802 114.306C109.741 114.899 109.664 115.489 109.57 116.071Z" fill="#1A2E35"/>
<path d="M106.171 102.161C105.42 101.827 104.383 102.784 103.639 102.849C103.246 102.885 102.955 102.729 102.886 102.325C102.702 101.251 103.962 100.648 104.966 100.455C104.333 100.417 103.712 100.585 103.092 100.418C102.717 100.314 102.512 100.057 102.601 99.6678C102.878 98.4634 104.475 98.638 105.421 99.0656C105.121 98.5303 104.237 97.0434 105.132 96.9571C106.037 96.8734 106.967 98.8374 107.269 99.4825C107.712 100.43 108.153 101.739 107.737 102.682C107.253 103.789 106.63 102.664 106.171 102.161Z" fill="#FFC800"/>
<path opacity="0.1" d="M106.171 102.161C105.42 101.827 104.383 102.784 103.639 102.849C103.246 102.885 102.955 102.729 102.886 102.325C102.702 101.251 103.962 100.648 104.966 100.455C104.333 100.417 103.712 100.585 103.092 100.418C102.717 100.314 102.512 100.057 102.601 99.6678C102.878 98.4634 104.475 98.638 105.421 99.0656C105.121 98.5303 104.237 97.0434 105.132 96.9571C106.037 96.8734 106.967 98.8374 107.269 99.4825C107.712 100.43 108.153 101.739 107.737 102.682C107.253 103.789 106.63 102.664 106.171 102.161Z" fill="black"/>
<path d="M106.296 102.448C105.56 101.559 103.444 101.297 103.463 100.864C103.503 99.9837 105.197 100.188 106.027 100.472C105.4 99.9261 104.169 98.9445 104.549 98.2693C105.014 97.4449 106.727 99.1787 107.385 100.49C108.213 102.14 107.73 103.112 107.418 103.202C106.989 103.323 106.418 102.593 106.296 102.448Z" fill="#FFC800"/>
<path d="M112.319 117.197L114.161 131.275H102.949C103.18 130.027 105.267 117.181 105.267 117.181L112.319 117.197Z" fill="#FFC800"/>
<path d="M73.5956 90.4382C73.5926 90.5126 73.5626 90.5834 73.5113 90.6373C73.4599 90.6913 73.3907 90.7247 73.3165 90.7313C72.9639 90.7206 72.5403 90.7012 72.0645 90.6811C71.2616 87.6625 70.302 85.2315 70.5208 86.1643C70.8386 87.5147 70.9758 89.4237 70.8353 90.6255C70.2832 90.5988 69.0065 90.5245 68.3675 90.4877C67.9419 85.2783 67.1034 81.3598 67.0566 82.5368C66.8686 87.2831 66.4289 88.7686 65.9304 90.3525C59.9749 90.0012 52.1753 89.4559 46.5443 88.9406C46.1944 86.0485 45.9501 82.933 45.829 83.1357C44.8922 84.6513 44.4398 86.9425 44.2337 88.7231C42.4424 88.5465 41.0138 88.3725 40.1479 88.2226C40.1479 88.2226 39.9813 85.8043 40.004 85.0174C40.0572 82.9962 40.4837 81.0023 41.262 79.1362C42.065 77.2204 43.2809 75.5816 44.4465 73.8927C44.4541 73.8792 44.4636 73.8668 44.4746 73.8559C44.4746 73.8505 44.4793 73.8492 44.484 73.8418C45.2823 72.6728 45.9026 71.5386 46.3697 70.3174C46.3755 70.309 46.3798 70.2998 46.3824 70.29C46.718 69.3877 46.9733 68.4575 47.1452 67.5103C47.7756 64.0508 50.0587 61.243 53.4353 60.6675C59.5768 56.6526 66.1827 58.5972 67.5812 63.2652C67.715 63.7195 67.8375 64.2375 67.9499 64.8002V64.8176C68.3708 66.8993 68.6612 69.5746 68.9717 71.651C68.971 71.6518 68.9704 71.6526 68.97 71.6536C68.9696 71.6546 68.9693 71.6556 68.9693 71.6567C68.9693 71.6578 68.9696 71.6588 68.97 71.6598C68.9704 71.6608 68.971 71.6616 68.9717 71.6624C68.967 71.6691 68.9677 71.6751 68.9757 71.6858V71.6918C69.1316 72.6808 69.2855 73.5253 69.4635 74.1008C70.6439 77.9056 73.9984 80.3487 73.5956 90.4382Z" fill="#1A2E35"/>
<path d="M51.9029 61.4779C49.6338 62.3719 48.1416 63.8708 47.5387 66.3801C47.1874 67.8429 46.9365 69.2802 46.2178 70.6205C45.477 72.0037 44.4204 73.0904 43.3404 74.1737C41.6214 75.8948 40.3627 77.6533 39.8608 80.1292C39.3523 82.6405 39.1569 85.6464 39.7618 88.1029C39.7627 88.1055 39.7645 88.1077 39.767 88.109C39.7694 88.1104 39.7722 88.1108 39.7749 88.1103C39.7776 88.1097 39.78 88.1081 39.7817 88.1059C39.7833 88.1037 39.7841 88.1009 39.7839 88.0982C39.3442 85.6223 39.6775 82.302 40.3714 79.8334C41.1336 77.122 42.8807 75.5509 44.7022 73.6183C46.1495 72.0853 47.1546 70.3274 47.6498 68.231C47.9435 66.9897 48.0633 65.6795 48.695 64.5506C49.4491 63.2003 50.7493 62.4267 52.0287 61.7542C52.0654 61.7376 52.0939 61.707 52.108 61.6693C52.1221 61.6316 52.1207 61.5898 52.104 61.5532C52.0873 61.5165 52.0568 61.488 52.0191 61.4739C51.9813 61.4598 51.9396 61.4612 51.9029 61.4779Z" fill="#1A2E35"/>
<path d="M72.6568 78.3827C71.3492 76.2468 69.9474 74.3959 69.3184 71.8491C68.7456 69.5298 68.5321 67.1189 67.9446 64.8002C67.9431 64.7927 67.9386 64.7861 67.9322 64.7818C67.9258 64.7775 67.918 64.776 67.9105 64.7775C67.9029 64.779 67.8963 64.7834 67.892 64.7898C67.8877 64.7962 67.8862 64.8041 67.8877 64.8116C68.7382 68.9088 68.5609 72.9345 70.7651 76.5365C71.9642 78.4945 73.174 80.3186 73.8639 82.5877C74.5859 84.9712 74.7492 87.3909 74.5458 89.9076C74.5384 89.9952 74.6515 90.0019 74.6682 89.9189C75.4806 85.8973 74.7111 81.7372 72.6568 78.3827Z" fill="#1A2E35"/>
<path d="M88.5853 72.4855L80.5554 87.6083C80.267 88.0393 80.4096 88.4823 80.8746 88.596L89.1929 90.6436C89.6573 90.7581 90.2689 90.5011 90.5573 90.0702L98.5871 74.9473C98.8762 74.5157 98.733 74.0734 98.2686 73.9596L89.9504 71.912C89.486 71.8002 88.8744 72.0539 88.5853 72.4855Z" fill="#2B454E"/>
<path d="M89.5743 72.7203L81.5445 87.8432C81.2561 88.2741 81.3986 88.7171 81.8636 88.8315L90.1819 90.8792C90.6463 90.9929 91.2579 90.736 91.5463 90.3057L99.5762 75.1828C99.8652 74.7512 99.722 74.3129 99.2576 74.1951L90.938 72.1469C90.475 72.0324 89.8674 72.2887 89.5743 72.7203Z" fill="#375A64"/>
<path d="M91.6741 74.0178C91.6367 74.1569 91.5589 74.2817 91.4505 74.3766C91.3421 74.4714 91.208 74.532 91.0652 74.5506C90.9224 74.5692 90.7773 74.5451 90.6482 74.4812C90.5191 74.4173 90.4119 74.3166 90.34 74.1918C90.2682 74.0669 90.235 73.9236 90.2447 73.7799C90.2543 73.6362 90.3064 73.4986 90.3942 73.3845C90.4821 73.2704 90.6019 73.1849 90.7383 73.1389C90.8748 73.0928 91.0218 73.0883 91.1609 73.1258C91.3472 73.1761 91.5059 73.2983 91.6021 73.4656C91.6984 73.6328 91.7243 73.8315 91.6741 74.0178Z" fill="#1A2E35"/>
<path d="M54.603 93.3597C58.0678 104.226 67.1161 118.933 71.5747 119.577C73.6953 119.884 77.4225 120.889 80.53 118.813C87.3112 114.283 94.0717 105.229 96.1695 99.9623C96.9557 97.9883 86.6675 91.2238 84.9591 92.7173C80.9516 96.2157 75.8774 103.446 75.2658 103.318C73.0047 102.845 65.0418 94.2323 59.4878 88.1738C52.7514 80.8191 53.2212 89.0296 54.603 93.3597Z" fill="#C36358"/>
<path d="M98.6387 90.4429C98.6467 86.0606 97.9762 84.9344 99.9469 81.24C101.24 78.8157 100.247 76.9501 97.8839 78.556C94.0182 81.1838 92.8204 86.8348 92.9696 88.9139L98.6387 90.4429Z" fill="#C36358"/>
<path d="M94.785 102.498C94.785 102.498 98.0873 97.2321 98.5584 92.5634C98.8836 89.3348 98.8086 82.2324 91.0023 76.499C89.1507 75.1393 85.548 74.5143 87.7656 77.8373C89.3408 80.1948 91.0518 81.2139 91.7183 82.7523C91.7183 82.7523 87.0416 82.502 85.7514 84.4098C85.1753 85.2623 83.6563 87.6271 82.7356 89.6359C83.0307 89.8728 83.3407 90.0905 83.6637 90.2876C83.6637 90.2876 82.5121 92.1124 83.2622 95.3103L94.785 102.498Z" fill="#C36358"/>
<path d="M98.3764 89.4324C97.392 88.046 95.2568 85.1412 92.6839 83.3726C89.8259 81.4086 83.7901 78.3948 82.3622 80.5193C81.3149 82.0778 83.5178 83.4308 83.5178 83.4308C83.5178 83.4308 80.7609 82.7108 80.1225 84.3255C79.541 85.7976 81.3082 86.7411 81.3082 86.7411C81.3082 86.7411 79.5604 86.5919 79.2734 88.1169C78.9281 89.951 82.6466 89.9624 83.9019 92.1224C84.1843 92.6109 98.3764 89.4324 98.3764 89.4324Z" fill="#C36358"/>
<path d="M91.112 86.7391C89.9745 85.5862 86.713 83.6322 83.582 83.398C83.5111 83.3927 83.4696 83.4435 83.5332 83.465C86.9251 84.4553 89.8794 86.0265 91.0946 86.7686C91.11 86.7759 91.1247 86.7518 91.112 86.7391Z" fill="#1A2E35"/>
<path d="M89.045 89.5663C87.9596 88.673 84.5101 86.8094 81.3297 86.6809C81.2587 86.6809 81.2199 86.7318 81.2842 86.7478C84.8708 87.6358 87.7749 88.9259 89.0283 89.5944C89.045 89.6031 89.0591 89.5777 89.045 89.5663Z" fill="#1A2E35"/>
<path d="M59.4717 107.246L68.3046 96.1849C68.3046 96.1849 61.2785 88.4321 56.7831 85.2195C54.2657 83.4188 52.8351 85.3486 53.1897 88.1223C54.433 97.8304 59.4717 107.246 59.4717 107.246Z" fill="#FFC800"/>
<path d="M59.4717 107.246L68.3046 96.1849C68.3046 96.1849 61.2785 88.4321 56.7831 85.2195C54.2657 83.4188 52.8351 85.3486 53.1897 88.1223C54.433 97.8304 59.4717 107.246 59.4717 107.246Z" fill="#FFC800"/>
<path d="M65.4921 93.701C65.3883 93.6979 65.285 93.7157 65.1882 93.7534C65.0914 93.791 65.0031 93.8476 64.9286 93.92C64.8541 93.9923 64.7949 94.0789 64.7544 94.1746C64.714 94.2702 64.6931 94.373 64.6931 94.4769C64.6931 94.5807 64.714 94.6835 64.7544 94.7792C64.7949 94.8748 64.8541 94.9614 64.9286 95.0337C65.0031 95.1061 65.0914 95.1627 65.1882 95.2004C65.285 95.238 65.3883 95.2558 65.4921 95.2527C65.694 95.2468 65.8855 95.1625 66.0262 95.0176C66.1669 94.8728 66.2456 94.6788 66.2456 94.4769C66.2456 94.2749 66.1669 94.081 66.0262 93.9361C65.8855 93.7912 65.694 93.7069 65.4921 93.701ZM65.4921 95.1196C65.3649 95.1202 65.2404 95.0831 65.1344 95.0128C65.0283 94.9426 64.9455 94.8424 64.8966 94.725C64.8476 94.6076 64.8346 94.4783 64.8592 94.3535C64.8839 94.2287 64.9451 94.1141 65.035 94.0241C65.125 93.9342 65.2396 93.873 65.3644 93.8483C65.4892 93.8237 65.6185 93.8367 65.7359 93.8856C65.8533 93.9346 65.9535 94.0174 66.0237 94.1234C66.094 94.2295 66.1312 94.354 66.1305 94.4812C66.1301 94.6504 66.0628 94.8126 65.9431 94.9322C65.8235 95.0519 65.6613 95.1192 65.4921 95.1196ZM58.3502 96.0845C58.1975 96.0848 58.0483 96.1303 57.9214 96.2153C57.7945 96.3003 57.6956 96.4211 57.6373 96.5622C57.579 96.7034 57.5638 96.8587 57.5936 97.0085C57.6235 97.1583 57.6971 97.2959 57.8051 97.4039C57.9131 97.5119 58.0507 97.5855 58.2005 97.6153C58.3503 97.6452 58.5056 97.63 58.6467 97.5717C58.7879 97.5133 58.9086 97.4145 58.9936 97.2876C59.0787 97.1607 59.1242 97.0115 59.1245 96.8587C59.1245 96.757 59.1046 96.6563 59.0657 96.5623C59.0268 96.4684 58.9698 96.383 58.8979 96.3111C58.826 96.2392 58.7406 96.1821 58.6466 96.1433C58.5527 96.1044 58.4519 96.0844 58.3502 96.0845ZM58.3502 97.4978C58.2236 97.4975 58.0999 97.4597 57.9947 97.3891C57.8895 97.3185 57.8077 97.2183 57.7594 97.1012C57.7112 96.9841 57.6988 96.8553 57.7238 96.7311C57.7487 96.607 57.81 96.493 57.8997 96.4036C57.9895 96.3142 58.1037 96.2535 58.228 96.229C58.3522 96.2046 58.481 96.2175 58.5979 96.2663C58.7148 96.315 58.8146 96.3973 58.8848 96.5027C58.9549 96.6082 58.9922 96.7321 58.992 96.8587C58.9917 96.9427 58.9749 97.0258 58.9425 97.1033C58.9101 97.1807 58.8627 97.2511 58.8031 97.3102C58.7435 97.3694 58.6729 97.4162 58.5952 97.4481C58.5174 97.4799 58.4342 97.4961 58.3502 97.4957V97.4978ZM58.9137 89.8935C58.7601 89.8934 58.6099 89.9389 58.4821 90.0242C58.3544 90.1095 58.2549 90.2309 58.1962 90.3729C58.1376 90.5148 58.1224 90.671 58.1526 90.8217C58.1829 90.9723 58.2571 91.1105 58.366 91.2189C58.4749 91.3272 58.6136 91.4008 58.7643 91.4302C58.9151 91.4597 59.0712 91.4437 59.2129 91.3843C59.3546 91.3249 59.4754 91.2247 59.5601 91.0966C59.6448 90.9684 59.6895 90.818 59.6886 90.6644C59.6873 90.4601 59.6055 90.2645 59.4609 90.1202C59.3163 89.9758 59.1206 89.8944 58.9163 89.8935H58.9137ZM58.9137 91.3121C58.7865 91.313 58.6619 91.2762 58.5556 91.2063C58.4494 91.1364 58.3662 91.0366 58.3167 90.9195C58.2672 90.8023 58.2535 90.6731 58.2774 90.5482C58.3013 90.4233 58.3617 90.3083 58.451 90.2177C58.5403 90.1271 58.6544 90.065 58.779 90.0393C58.9035 90.0136 59.0329 90.0254 59.1507 90.0732C59.2686 90.121 59.3696 90.2027 59.4411 90.3079C59.5125 90.4131 59.5511 90.5372 59.552 90.6644C59.5529 90.8343 59.4866 90.9978 59.3676 91.1191C59.2485 91.2404 59.0863 91.3098 58.9163 91.3121H58.9137ZM53.167 86.6715C53.1616 86.715 53.1583 86.7585 53.1529 86.8053C53.2817 86.8457 53.3945 86.9257 53.4753 87.0338C53.556 87.1419 53.6007 87.2727 53.6029 87.4077C53.6052 87.5426 53.5648 87.6749 53.4876 87.7856C53.4105 87.8963 53.3004 87.9799 53.173 88.0245C53.173 88.0567 53.1817 88.0915 53.1844 88.1229C53.1844 88.1343 53.1844 88.1457 53.1904 88.1577C53.3505 88.1084 53.4903 88.0086 53.5888 87.873C53.6873 87.7375 53.7391 87.5737 53.7364 87.4061C53.7338 87.2386 53.6768 87.0765 53.5742 86.9442C53.4715 86.8118 53.3286 86.7164 53.167 86.6722V86.6715ZM63.7851 101.84C63.7739 101.685 63.7162 101.537 63.6195 101.415C63.5228 101.293 63.3916 101.203 63.2431 101.157C63.0945 101.111 62.9355 101.11 62.7867 101.156C62.638 101.202 62.5065 101.291 62.4093 101.412C62.3122 101.534 62.254 101.682 62.2422 101.837C62.2305 101.992 62.2658 102.147 62.3436 102.282C62.4213 102.417 62.5379 102.525 62.6781 102.592C62.8182 102.66 62.9755 102.684 63.1293 102.66L63.2766 102.478C63.1927 102.517 63.1013 102.537 63.0089 102.536C62.8818 102.536 62.7577 102.498 62.6521 102.428C62.5466 102.357 62.4644 102.256 62.4159 102.139C62.3674 102.021 62.3547 101.892 62.3796 101.768C62.4045 101.643 62.4657 101.529 62.5555 101.439C62.6454 101.349 62.7598 101.288 62.8845 101.263C63.0091 101.238 63.1383 101.251 63.2557 101.299C63.3731 101.348 63.4736 101.43 63.5444 101.535C63.6151 101.641 63.653 101.765 63.6533 101.892C63.6529 101.936 63.6482 101.979 63.6392 102.022L63.7851 101.84Z" fill="white"/>
<path opacity="0.1" d="M67.2922 97.4449L59.4738 107.248C59.4738 107.248 54.4344 97.8303 53.1877 88.1276C52.9428 86.2212 53.5444 84.7149 54.7602 84.5456L67.2922 97.4449Z" fill="black"/>
<path d="M66.253 95.1812C64.7534 96.7704 60.8107 101.198 58.6246 104.411C58.6112 104.43 58.6788 104.489 58.6915 104.472C60.9131 102.073 64.9943 96.9812 66.35 95.2682C66.3801 95.236 66.2811 95.1537 66.253 95.1812Z" fill="#1A2E35"/>
<path d="M27.343 122.804L65.4312 122.715L63.3261 109.619C63.3261 109.619 66.3373 105.963 65.7678 101.998C65.1435 97.6523 57.309 86.6407 56.6499 86.0204C53.9994 83.5318 51.191 83.0848 48.4943 83.9828H48.4876C36.0346 91.8113 27.343 122.804 27.343 122.804Z" fill="#FFC800"/>
<path d="M64.6282 117.722C64.5443 117.824 64.4308 117.898 64.3033 117.933C64.1758 117.968 64.0405 117.963 63.916 117.918C63.7915 117.874 63.6838 117.792 63.6076 117.684C63.5315 117.575 63.4907 117.446 63.4907 117.314C63.4905 117.229 63.507 117.145 63.5393 117.067C63.5716 116.988 63.619 116.917 63.6789 116.857C63.7387 116.797 63.8098 116.749 63.8881 116.717C63.9663 116.684 64.0503 116.667 64.1351 116.667C64.2537 116.667 64.3699 116.701 64.4697 116.765L64.4436 116.601C64.3457 116.556 64.2393 116.533 64.1317 116.534C64.0062 116.534 63.8826 116.565 63.7716 116.624C63.6605 116.682 63.5654 116.767 63.4943 116.87C63.4232 116.974 63.3783 117.093 63.3635 117.218C63.3486 117.342 63.3642 117.469 63.409 117.586C63.4538 117.703 63.5264 117.808 63.6205 117.891C63.7147 117.974 63.8276 118.033 63.9495 118.063C64.0715 118.093 64.1988 118.092 64.3207 118.062C64.4425 118.032 64.5552 117.972 64.649 117.889L64.6282 117.722ZM56.9403 113.72C56.7868 113.72 56.6366 113.765 56.5087 113.85C56.3808 113.935 56.281 114.056 56.2219 114.198C56.1628 114.339 56.1471 114.495 56.1767 114.646C56.2063 114.797 56.2799 114.935 56.3883 115.044C56.4966 115.153 56.6348 115.227 56.7853 115.257C56.9359 115.288 57.092 115.272 57.234 115.214C57.376 115.156 57.4974 115.056 57.5829 114.929C57.6685 114.801 57.7143 114.651 57.7145 114.498C57.7144 114.292 57.6329 114.095 57.4878 113.949C57.3427 113.804 57.1459 113.721 56.9403 113.72ZM56.9403 115.139C56.813 115.139 56.6884 115.102 56.5823 115.031C56.4763 114.961 56.3935 114.86 56.3446 114.743C56.2957 114.625 56.2828 114.496 56.3075 114.371C56.3323 114.246 56.3936 114.131 56.4836 114.041C56.5737 113.951 56.6884 113.89 56.8134 113.865C56.9383 113.84 57.0678 113.853 57.1853 113.902C57.3029 113.951 57.4033 114.034 57.4738 114.14C57.5444 114.246 57.5818 114.37 57.5814 114.498C57.5809 114.667 57.5131 114.83 57.393 114.95C57.2729 115.07 57.1102 115.138 56.9403 115.139ZM63.0129 101.118C62.8595 101.118 62.7097 101.164 62.5824 101.25C62.4551 101.335 62.3561 101.457 62.2977 101.598C62.2393 101.74 62.2244 101.896 62.2546 102.046C62.2849 102.197 62.359 102.335 62.4677 102.443C62.5764 102.551 62.7147 102.625 62.8652 102.654C63.0156 102.684 63.1715 102.668 63.3131 102.609C63.4547 102.55 63.5756 102.451 63.6605 102.323C63.7455 102.195 63.7907 102.045 63.7905 101.892C63.7905 101.79 63.7703 101.689 63.7312 101.595C63.6921 101.501 63.6348 101.415 63.5625 101.343C63.4903 101.272 63.4045 101.215 63.3102 101.176C63.2159 101.137 63.1149 101.117 63.0129 101.118ZM63.0129 102.537C62.8858 102.536 62.7617 102.498 62.6562 102.428C62.5506 102.357 62.4684 102.256 62.4199 102.139C62.3714 102.021 62.3588 101.892 62.3836 101.768C62.4085 101.643 62.4697 101.529 62.5595 101.439C62.6494 101.349 62.7639 101.288 62.8885 101.263C63.0131 101.238 63.1423 101.251 63.2597 101.299C63.3772 101.348 63.4776 101.43 63.5484 101.535C63.6191 101.641 63.657 101.765 63.6573 101.892C63.6576 101.977 63.6411 102.061 63.6088 102.139C63.5765 102.217 63.529 102.288 63.4692 102.348C63.4093 102.408 63.3381 102.456 63.2598 102.488C63.1815 102.52 63.0976 102.537 63.0129 102.537ZM35.0925 120.727C34.8868 120.727 34.6895 120.809 34.5441 120.954C34.3986 121.099 34.3169 121.297 34.3169 121.502C34.3169 121.708 34.3986 121.905 34.5441 122.051C34.6895 122.196 34.8868 122.278 35.0925 122.278C35.2981 122.278 35.4954 122.196 35.6408 122.051C35.7863 121.905 35.868 121.708 35.868 121.502C35.868 121.297 35.7863 121.099 35.6408 120.954C35.4954 120.809 35.2981 120.727 35.0925 120.727ZM35.0925 122.145C34.9653 122.146 34.8408 122.109 34.7347 122.039C34.6287 121.968 34.546 121.868 34.4969 121.751C34.4479 121.634 34.4349 121.504 34.4595 121.38C34.4841 121.255 34.5452 121.14 34.6351 121.05C34.725 120.96 34.8396 120.899 34.9643 120.874C35.0891 120.849 35.2184 120.862 35.3358 120.911C35.4532 120.96 35.5534 121.043 35.6237 121.149C35.6941 121.255 35.7314 121.379 35.7308 121.506C35.7305 121.676 35.6631 121.838 35.5435 121.958C35.4239 122.077 35.2617 122.145 35.0925 122.145ZM42.9885 118.178C42.8348 118.177 42.6843 118.222 42.5561 118.306C42.4279 118.391 42.3276 118.512 42.2681 118.654C42.2086 118.795 42.1925 118.951 42.2218 119.102C42.2511 119.253 42.3246 119.392 42.4328 119.501C42.541 119.61 42.6792 119.684 42.8298 119.715C42.9804 119.745 43.1367 119.731 43.2788 119.672C43.4209 119.614 43.5425 119.514 43.6282 119.387C43.7139 119.259 43.7597 119.109 43.76 118.956C43.7598 118.75 43.6782 118.553 43.533 118.407C43.3878 118.261 43.1908 118.179 42.9851 118.178H42.9885ZM42.9885 119.594C42.8613 119.594 42.7368 119.557 42.6309 119.487C42.5249 119.417 42.4423 119.316 42.3934 119.199C42.3445 119.081 42.3316 118.952 42.3563 118.827C42.3811 118.703 42.4423 118.588 42.5323 118.498C42.6223 118.408 42.7369 118.347 42.8617 118.323C42.9865 118.298 43.1157 118.311 43.2331 118.36C43.3504 118.409 43.4506 118.492 43.5208 118.598C43.591 118.704 43.6282 118.828 43.6275 118.956C43.6265 119.125 43.5583 119.288 43.4379 119.407C43.3176 119.527 43.1548 119.594 42.9851 119.594H42.9885ZM37.0196 98.5664C36.9826 98.5665 36.9457 98.5694 36.9092 98.5751C36.8804 98.6273 36.8543 98.6768 36.8289 98.7284C36.8908 98.7098 36.955 98.7001 37.0196 98.6996C37.138 98.699 37.2542 98.7312 37.3554 98.7927C37.4565 98.8542 37.5386 98.9425 37.5926 99.0479C37.6466 99.1532 37.6704 99.2715 37.6612 99.3895C37.6521 99.5075 37.6104 99.6207 37.5408 99.7164C37.4712 99.8122 37.3764 99.8868 37.267 99.9319C37.1576 99.9771 37.0378 99.991 36.9209 99.9722C36.804 99.9534 36.6947 99.9025 36.6049 99.8253C36.5152 99.748 36.4487 99.6475 36.4127 99.5347C36.3839 99.5896 36.3578 99.6417 36.3317 99.6933C36.3945 99.8155 36.4887 99.9188 36.6046 99.9926C36.7205 100.066 36.854 100.108 36.9914 100.113C37.1287 100.118 37.2649 100.086 37.3859 100.021C37.507 99.9564 37.6085 99.8603 37.6801 99.743C37.7517 99.6257 37.7908 99.4915 37.7933 99.3541C37.7958 99.2167 37.7617 99.0811 37.6944 98.9613C37.6271 98.8415 37.5292 98.7417 37.4106 98.6723C37.292 98.6029 37.157 98.5664 37.0196 98.5664ZM39.2004 104.501C39.0474 104.501 38.8978 104.546 38.7705 104.631C38.6432 104.716 38.5439 104.836 38.4853 104.978C38.4266 105.119 38.4112 105.274 38.441 105.424C38.4707 105.575 38.5444 105.712 38.6525 105.821C38.7607 105.929 38.8986 106.002 39.0486 106.032C39.1986 106.062 39.3542 106.046 39.4954 105.988C39.6367 105.929 39.7574 105.83 39.8422 105.703C39.9271 105.575 39.9722 105.426 39.9719 105.273C39.9707 105.069 39.8889 104.873 39.7444 104.729C39.5999 104.585 39.4044 104.504 39.2004 104.504V104.501ZM39.2004 105.914C39.0739 105.914 38.9502 105.876 38.8449 105.806C38.7397 105.736 38.6576 105.636 38.609 105.52C38.5605 105.403 38.5476 105.274 38.5721 105.15C38.5966 105.026 38.6574 104.912 38.7467 104.822C38.836 104.733 38.9498 104.672 39.0739 104.647C39.1979 104.622 39.3265 104.634 39.4434 104.683C39.5604 104.731 39.6604 104.813 39.7309 104.918C39.8014 105.023 39.8392 105.146 39.8394 105.273C39.8396 105.443 39.7725 105.606 39.6527 105.726C39.533 105.847 39.3704 105.915 39.2004 105.916V105.914ZM45.5768 88.3765C45.3749 88.3825 45.1833 88.4668 45.0427 88.6117C44.902 88.7565 44.8233 88.9505 44.8233 89.1524C44.8233 89.3543 44.902 89.5483 45.0427 89.6932C45.1833 89.838 45.3749 89.9224 45.5768 89.9283C45.6806 89.9314 45.7839 89.9135 45.8807 89.8759C45.9775 89.8383 46.0658 89.7816 46.1403 89.7093C46.2148 89.6369 46.274 89.5504 46.3145 89.4547C46.3549 89.3591 46.3758 89.2563 46.3758 89.1524C46.3758 89.0486 46.3549 88.9458 46.3145 88.8501C46.274 88.7545 46.2148 88.6679 46.1403 88.5956C46.0658 88.5232 45.9775 88.4665 45.8807 88.4289C45.7839 88.3913 45.6806 88.3735 45.5768 88.3765ZM45.5768 89.7951C45.4498 89.7942 45.326 89.7558 45.2209 89.6846C45.1158 89.6134 45.0341 89.5128 44.9861 89.3953C44.9381 89.2778 44.926 89.1487 44.9512 89.0243C44.9764 88.8999 45.0379 88.7857 45.1279 88.6962C45.2179 88.6067 45.3324 88.5458 45.4569 88.5212C45.5814 88.4966 45.7104 88.5095 45.8277 88.5581C45.9449 88.6067 46.0452 88.6889 46.1158 88.7943C46.1864 88.8998 46.2242 89.0238 46.2245 89.1508C46.2253 89.2361 46.2091 89.3208 46.1769 89.3999C46.1446 89.4789 46.097 89.5508 46.0367 89.6113C45.9764 89.6717 45.9047 89.7196 45.8257 89.7521C45.7468 89.7846 45.6621 89.801 45.5768 89.8005V89.7951ZM46.3543 101.823C46.2008 101.823 46.0507 101.868 45.9231 101.954C45.7955 102.039 45.6961 102.161 45.6375 102.302C45.5789 102.444 45.5637 102.601 45.5939 102.751C45.624 102.902 45.6981 103.04 45.8068 103.148C45.9155 103.257 46.054 103.331 46.2046 103.36C46.3553 103.39 46.5113 103.374 46.6531 103.315C46.7949 103.256 46.916 103.157 47.0011 103.029C47.0862 102.901 47.1315 102.751 47.1312 102.597C47.1305 102.392 47.0483 102.195 46.9026 102.05C46.7569 101.906 46.5597 101.825 46.3543 101.825V101.823ZM46.3543 103.241C46.2276 103.241 46.1039 103.203 45.9987 103.132C45.8936 103.061 45.8118 102.961 45.7635 102.844C45.7153 102.726 45.7029 102.598 45.7278 102.473C45.7527 102.349 45.8138 102.235 45.9035 102.145C45.9931 102.056 46.1073 101.995 46.2316 101.97C46.3558 101.945 46.4847 101.958 46.6018 102.006C46.7189 102.055 46.8191 102.137 46.8898 102.242C46.9604 102.347 46.9983 102.471 46.9987 102.597C46.9992 102.682 46.983 102.766 46.9508 102.845C46.9186 102.923 46.8712 102.995 46.8113 103.055C46.7514 103.115 46.6801 103.163 46.6017 103.195C46.5233 103.228 46.4392 103.244 46.3543 103.244V103.241ZM52.9676 86.6401C52.8145 86.6396 52.6647 86.6844 52.5371 86.769C52.4095 86.8536 52.3098 86.9742 52.2507 87.1154C52.1916 87.2566 52.1757 87.4122 52.205 87.5625C52.2343 87.7127 52.3075 87.8509 52.4153 87.9596C52.5232 88.0683 52.6608 88.1425 52.8108 88.173C52.9609 88.2035 53.1166 88.1888 53.2582 88.1308C53.3999 88.0728 53.5212 87.9741 53.6068 87.8471C53.6924 87.7202 53.7384 87.5707 53.7391 87.4176C53.7386 87.2129 53.6572 87.0166 53.5127 86.8715C53.3683 86.7264 53.1723 86.6442 52.9676 86.6428V86.6401ZM52.9676 88.056C52.8404 88.0567 52.7158 88.0195 52.6098 87.9493C52.5038 87.879 52.421 87.7788 52.372 87.6614C52.323 87.544 52.31 87.4147 52.3347 87.2899C52.3593 87.1651 52.4205 87.0505 52.5105 86.9605C52.6004 86.8706 52.7151 86.8094 52.8399 86.7848C52.9646 86.7601 53.0939 86.7731 53.2113 86.8221C53.3287 86.8711 53.4289 86.9538 53.4992 87.0599C53.5694 87.1659 53.6066 87.2904 53.6059 87.4176C53.6063 87.5875 53.5393 87.7506 53.4196 87.8711C53.3 87.9916 53.1374 88.0598 52.9676 88.0607V88.056ZM58.9163 89.8908C58.7627 89.8902 58.6124 89.9351 58.4844 90.02C58.3563 90.105 58.2564 90.226 58.1973 90.3677C58.1381 90.5095 58.1224 90.6656 58.1521 90.8164C58.1818 90.9671 58.2556 91.1056 58.3641 91.2143C58.4727 91.323 58.611 91.397 58.7617 91.427C58.9124 91.457 59.0685 91.4415 59.2104 91.3826C59.3523 91.3237 59.4735 91.224 59.5586 91.0961C59.6437 90.9683 59.6889 90.818 59.6886 90.6644C59.6873 90.4601 59.6055 90.2645 59.4609 90.1202C59.3163 89.9758 59.1206 89.8944 58.9163 89.8935V89.8908ZM58.9163 91.3094C58.7892 91.3104 58.6646 91.2736 58.5583 91.2037C58.4521 91.1338 58.3689 91.0339 58.3194 90.9168C58.2699 90.7997 58.2562 90.6705 58.2801 90.5455C58.304 90.4206 58.3644 90.3056 58.4537 90.215C58.5429 90.1244 58.6571 90.0623 58.7816 90.0366C58.9062 90.0109 59.0356 90.0227 59.1534 90.0705C59.2713 90.1183 59.3723 90.2 59.4437 90.3052C59.5152 90.4105 59.5538 90.5345 59.5547 90.6617C59.5555 90.7463 59.5396 90.8303 59.508 90.9088C59.4763 90.9872 59.4295 91.0587 59.3702 91.1191C59.311 91.1795 59.2404 91.2277 59.1625 91.2608C59.0846 91.2939 59.001 91.3113 58.9163 91.3121V91.3094ZM56.302 119.949C56.1485 119.949 55.9986 119.995 55.871 120.08C55.7435 120.166 55.6441 120.287 55.5854 120.429C55.5267 120.57 55.5114 120.726 55.5413 120.877C55.5712 121.027 55.6451 121.166 55.7535 121.274C55.862 121.383 56.0002 121.457 56.1506 121.487C56.3011 121.517 56.4571 121.501 56.5989 121.443C56.7407 121.384 56.862 121.285 56.9474 121.158C57.0329 121.03 57.0786 120.88 57.0788 120.727C57.0788 120.625 57.0586 120.524 57.0195 120.43C56.9804 120.336 56.9231 120.25 56.851 120.178C56.7788 120.106 56.6932 120.049 56.599 120.011C56.5048 119.972 56.4039 119.952 56.302 119.952V119.949ZM56.302 121.368C56.1746 121.369 56.0499 121.332 55.9435 121.262C55.8372 121.192 55.754 121.092 55.7046 120.974C55.6552 120.857 55.6417 120.728 55.666 120.602C55.6902 120.477 55.751 120.362 55.8407 120.272C55.9303 120.182 56.0449 120.12 56.1697 120.095C56.2945 120.069 56.424 120.082 56.5418 120.13C56.6596 120.178 56.7604 120.261 56.8313 120.367C56.9023 120.472 56.9402 120.597 56.9403 120.724C56.941 120.809 56.9249 120.892 56.8932 120.97C56.8614 121.049 56.8145 121.12 56.7552 121.18C56.6959 121.24 56.6254 121.288 56.5476 121.32C56.4698 121.353 56.3863 121.37 56.302 121.371V121.368ZM49.2176 114.896C49.0646 114.896 48.9148 114.94 48.7871 115.024C48.6594 115.109 48.5596 115.229 48.5004 115.37C48.4411 115.511 48.4251 115.667 48.4543 115.817C48.4834 115.967 48.5565 116.105 48.6643 116.214C48.7721 116.322 48.9097 116.396 49.0596 116.427C49.2096 116.457 49.3652 116.442 49.5067 116.384C49.6482 116.326 49.7693 116.227 49.8546 116.1C49.9399 115.973 49.9855 115.824 49.9858 115.671C49.9853 115.467 49.9043 115.271 49.7604 115.127C49.6166 114.982 49.4215 114.901 49.2176 114.899V114.896ZM49.2176 116.309C49.0909 116.309 48.9669 116.272 48.8614 116.202C48.7558 116.132 48.6734 116.032 48.6246 115.915C48.5758 115.798 48.5628 115.67 48.5873 115.545C48.6117 115.421 48.6724 115.307 48.7619 115.217C48.8513 115.127 48.9653 115.066 49.0895 115.041C49.2138 115.016 49.3426 115.028 49.4598 115.077C49.5769 115.125 49.6771 115.207 49.7476 115.312C49.8181 115.417 49.8559 115.541 49.856 115.668C49.856 115.838 49.7889 116.001 49.6694 116.121C49.5498 116.242 49.3874 116.31 49.2176 116.312V116.309ZM57.5821 105.573C57.4283 105.572 57.2776 105.616 57.1491 105.7C57.0205 105.785 56.92 105.905 56.8602 106.047C56.8004 106.189 56.7841 106.345 56.8133 106.496C56.8425 106.647 56.9159 106.786 57.0242 106.895C57.1325 107.004 57.2708 107.079 57.4215 107.109C57.5722 107.139 57.7286 107.124 57.8707 107.065C58.0128 107.007 58.1343 106.907 58.2197 106.779C58.305 106.651 58.3505 106.501 58.3502 106.347C58.3497 106.143 58.2686 105.948 58.1246 105.803C57.9806 105.659 57.7854 105.577 57.5814 105.576L57.5821 105.573ZM57.5821 106.988C57.4551 106.989 57.3308 106.952 57.2248 106.882C57.1189 106.812 57.0361 106.712 56.987 106.595C56.9379 106.478 56.9246 106.349 56.9488 106.224C56.973 106.1 57.0336 105.985 57.1231 105.895C57.2125 105.805 57.3266 105.743 57.4511 105.718C57.5755 105.693 57.7046 105.705 57.8221 105.753C57.9396 105.801 58.0402 105.883 58.1111 105.988C58.182 106.094 58.22 106.218 58.2204 106.345C58.221 106.429 58.2048 106.513 58.173 106.591C58.1412 106.669 58.0942 106.74 58.0349 106.8C57.9755 106.86 57.9049 106.908 57.8271 106.941C57.7493 106.974 57.6658 106.991 57.5814 106.991L57.5821 106.988ZM58.3536 96.0812C58.2008 96.0814 58.0516 96.127 57.9247 96.212C57.7978 96.297 57.699 96.4177 57.6406 96.5589C57.5823 96.7001 57.5671 96.8554 57.597 97.0052C57.6268 97.155 57.7004 97.2925 57.8084 97.4006C57.9164 97.5086 58.054 97.5821 58.2038 97.612C58.3536 97.6419 58.5089 97.6267 58.6501 97.5683C58.7912 97.51 58.912 97.4112 58.997 97.2843C59.082 97.1574 59.1275 97.0081 59.1278 96.8554C59.1274 96.7537 59.107 96.6531 59.0678 96.5593C59.0285 96.4655 58.9711 96.3803 58.8989 96.3087C58.8267 96.2371 58.741 96.1805 58.6469 96.142C58.5527 96.1035 58.4519 96.084 58.3502 96.0845L58.3536 96.0812ZM58.3536 97.4944C58.2269 97.4942 58.1032 97.4564 57.998 97.3858C57.8929 97.3152 57.811 97.215 57.7628 97.0979C57.7146 96.9808 57.7021 96.852 57.7271 96.7278C57.7521 96.6036 57.8133 96.4897 57.9031 96.4003C57.9928 96.3109 58.107 96.2502 58.2313 96.2257C58.3556 96.2013 58.4843 96.2142 58.6012 96.2629C58.7181 96.3116 58.818 96.3939 58.8881 96.4994C58.9583 96.6048 58.9956 96.7287 58.9953 96.8554C58.9955 96.9399 58.9789 97.0237 58.9465 97.1018C58.9141 97.1798 58.8665 97.2507 58.8065 97.3103C58.7465 97.3698 58.6753 97.4169 58.597 97.4487C58.5186 97.4806 58.4348 97.4966 58.3502 97.4958L58.3536 97.4944ZM63.7215 108.695C63.5439 108.696 63.3717 108.757 63.2341 108.869C63.0964 108.982 63.0017 109.138 62.9658 109.312C62.9299 109.486 62.955 109.667 63.037 109.825C63.1189 109.982 63.2527 110.107 63.4157 110.178L63.3896 110.013C63.2706 109.94 63.1787 109.831 63.1278 109.701C63.0769 109.571 63.0699 109.428 63.1078 109.294C63.1457 109.16 63.2264 109.042 63.3377 108.958C63.449 108.874 63.5848 108.828 63.7242 108.829C63.7769 108.828 63.8294 108.834 63.8801 108.849C63.9036 108.811 63.9296 108.774 63.9557 108.73C63.8796 108.707 63.8003 108.697 63.7209 108.699L63.7215 108.695ZM53.612 100.41C53.4586 100.41 53.3085 100.455 53.1809 100.54C53.0532 100.625 52.9536 100.746 52.8946 100.887C52.8357 101.029 52.8201 101.185 52.8497 101.335C52.8794 101.486 52.953 101.624 53.0613 101.733C53.1696 101.842 53.3076 101.916 53.458 101.946C53.6084 101.976 53.7644 101.961 53.9062 101.903C54.048 101.844 54.1693 101.745 54.2547 101.617C54.3402 101.49 54.3859 101.34 54.3862 101.187C54.3855 100.981 54.3038 100.785 54.1588 100.639C54.0138 100.494 53.8173 100.411 53.612 100.41ZM53.612 101.825C53.4848 101.826 53.3602 101.789 53.2542 101.718C53.1481 101.648 53.0654 101.548 53.0164 101.431C52.9674 101.313 52.9544 101.184 52.9791 101.059C53.0037 100.934 53.0649 100.82 53.1549 100.73C53.2448 100.64 53.3595 100.579 53.4842 100.554C53.609 100.529 53.7383 100.542 53.8557 100.591C53.9731 100.64 54.0733 100.723 54.1436 100.829C54.2138 100.935 54.251 101.06 54.2503 101.187C54.25 101.356 54.1826 101.518 54.063 101.638C53.9433 101.757 53.7812 101.825 53.612 101.825ZM33.714 108.699C33.5613 108.699 33.4121 108.745 33.2852 108.83C33.1583 108.915 33.0595 109.035 33.0011 109.176C32.9428 109.317 32.9275 109.473 32.9573 109.622C32.9871 109.772 33.0607 109.91 33.1686 110.018C33.2765 110.126 33.4141 110.2 33.5638 110.23C33.7136 110.259 33.8688 110.244 34.01 110.186C34.1512 110.128 34.272 110.029 34.3571 109.902C34.4422 109.776 34.4878 109.626 34.4882 109.474C34.4884 109.372 34.4685 109.271 34.4296 109.177C34.3908 109.083 34.3338 108.998 34.2619 108.926C34.19 108.854 34.1045 108.796 34.0105 108.758C33.9165 108.719 33.8157 108.699 33.714 108.699ZM33.714 110.112C33.5873 110.112 33.4634 110.075 33.3578 110.005C33.2523 109.935 33.1699 109.835 33.1211 109.718C33.0722 109.601 33.0592 109.473 33.0836 109.348C33.1079 109.224 33.1686 109.11 33.258 109.02C33.3473 108.93 33.4613 108.869 33.5855 108.844C33.7097 108.819 33.8385 108.831 33.9557 108.879C34.0728 108.928 34.173 109.009 34.2437 109.115C34.3143 109.22 34.3521 109.344 34.3524 109.47C34.3525 109.64 34.2855 109.803 34.1658 109.923C34.0461 110.043 33.8837 110.111 33.714 110.112ZM49.2176 122.015C49.0187 122.016 48.8277 122.093 48.6842 122.231C48.5407 122.369 48.4557 122.556 48.4468 122.755H48.5806C48.5898 122.591 48.661 122.438 48.7798 122.325C48.8985 122.212 49.0559 122.149 49.2196 122.148C49.3826 122.148 49.5394 122.21 49.6577 122.322C49.776 122.434 49.8468 122.588 49.8553 122.75H49.9892C49.9794 122.552 49.8939 122.365 49.7503 122.229C49.6067 122.092 49.416 122.015 49.2176 122.015ZM43.234 109.903C43.0813 109.903 42.9321 109.949 42.8052 110.034C42.6784 110.119 42.5795 110.24 42.5212 110.381C42.4628 110.522 42.4476 110.677 42.4774 110.827C42.5072 110.977 42.5807 111.114 42.6886 111.222C42.7966 111.33 42.9341 111.404 43.0839 111.434C43.2336 111.464 43.3889 111.449 43.5301 111.391C43.6713 111.332 43.792 111.234 43.8771 111.107C43.9622 110.98 44.0079 110.831 44.0083 110.678C44.0084 110.576 43.9885 110.476 43.9497 110.382C43.9108 110.288 43.8538 110.202 43.7819 110.13C43.71 110.058 43.6245 110.001 43.5305 109.962C43.4365 109.924 43.3358 109.904 43.234 109.904V109.903ZM43.234 111.316C43.1075 111.316 42.9838 111.278 42.8786 111.208C42.7734 111.137 42.6914 111.037 42.643 110.92C42.5946 110.803 42.582 110.675 42.6066 110.551C42.6313 110.426 42.6922 110.312 42.7817 110.223C42.8711 110.133 42.9851 110.072 43.1092 110.047C43.2333 110.023 43.362 110.035 43.479 110.083C43.596 110.132 43.6961 110.214 43.7666 110.319C43.8371 110.424 43.8748 110.548 43.8751 110.674C43.8755 110.758 43.8593 110.842 43.8272 110.92C43.7952 110.998 43.748 111.069 43.6884 111.129C43.6288 111.189 43.558 111.236 43.48 111.268C43.402 111.3 43.3184 111.317 43.234 111.316V111.316ZM43.6181 95.6911C43.4657 95.6925 43.317 95.739 43.1909 95.8248C43.0648 95.9105 42.9669 96.0317 42.9095 96.1729C42.8521 96.3142 42.8378 96.4693 42.8683 96.6187C42.8988 96.7681 42.9729 96.9051 43.0811 97.0125C43.1894 97.1199 43.327 97.1929 43.4766 97.2223C43.6262 97.2517 43.7812 97.2361 43.922 97.1776C44.0628 97.1191 44.1832 97.0203 44.268 96.8935C44.3527 96.7668 44.3981 96.6178 44.3984 96.4653C44.3987 96.3629 44.3788 96.2615 44.3396 96.1669C44.3005 96.0723 44.243 95.9864 44.1704 95.9142C44.0978 95.842 44.0116 95.7849 43.9168 95.7463C43.822 95.7076 43.7205 95.6882 43.6181 95.6891V95.6911ZM43.6181 97.1036C43.4485 97.1036 43.2858 97.0363 43.1658 96.9163C43.0458 96.7963 42.9784 96.6336 42.9784 96.4639C42.9784 96.2943 43.0458 96.1316 43.1658 96.0116C43.2858 95.8916 43.4485 95.8242 43.6181 95.8242C43.7878 95.8242 43.9505 95.8916 44.0705 96.0116C44.1905 96.1316 44.2579 96.2943 44.2579 96.4639C44.2579 96.6336 44.1905 96.7963 44.0705 96.9163C43.9505 97.0363 43.7878 97.1036 43.6181 97.1036ZM29.8744 115.398C29.825 115.398 29.7757 115.403 29.7272 115.412C29.7098 115.465 29.6924 115.514 29.675 115.563C29.7398 115.542 29.8076 115.531 29.8757 115.531C30.0463 115.531 30.2098 115.599 30.3304 115.719C30.451 115.84 30.5188 116.003 30.5188 116.174C30.5188 116.344 30.451 116.508 30.3304 116.629C30.2098 116.749 30.0463 116.817 29.8757 116.817C29.7691 116.817 29.6642 116.791 29.5706 116.74C29.477 116.689 29.3978 116.615 29.3404 116.525C29.323 116.577 29.3056 116.626 29.2882 116.675C29.3601 116.761 29.4499 116.83 29.5512 116.877C29.6526 116.925 29.7631 116.949 29.8751 116.949C30.0807 116.949 30.278 116.868 30.4235 116.722C30.5689 116.577 30.6506 116.38 30.6506 116.174C30.6506 115.968 30.5689 115.771 30.4235 115.625C30.278 115.48 30.0807 115.398 29.8751 115.398H29.8744ZM38.3057 114.116C38.1521 114.115 38.0017 114.16 37.8738 114.245C37.7458 114.33 37.646 114.451 37.587 114.593C37.528 114.735 37.5124 114.891 37.5423 115.042C37.5722 115.193 37.6462 115.331 37.7549 115.44C37.8636 115.548 38.0021 115.622 38.1528 115.652C38.3036 115.682 38.4597 115.666 38.6015 115.607C38.7434 115.548 38.8644 115.448 38.9493 115.32C39.0343 115.192 39.0793 115.041 39.0786 114.888C39.0779 114.683 38.9957 114.486 38.8502 114.341C38.7046 114.197 38.5076 114.116 38.3024 114.116L38.3057 114.116ZM38.3057 115.531C38.179 115.53 38.0552 115.493 37.95 115.422C37.8447 115.351 37.7628 115.251 37.7145 115.134C37.6662 115.017 37.6536 114.888 37.6785 114.763C37.7033 114.639 37.7644 114.525 37.854 114.435C37.9436 114.346 38.0578 114.285 38.1821 114.26C38.3063 114.235 38.4352 114.248 38.5524 114.296C38.6696 114.344 38.7698 114.426 38.8405 114.531C38.9111 114.637 38.9491 114.76 38.9495 114.887C38.9497 114.972 38.9331 115.056 38.9007 115.135C38.8682 115.213 38.8205 115.284 38.7604 115.344C38.7002 115.404 38.6287 115.452 38.5501 115.484C38.4715 115.516 38.3873 115.532 38.3024 115.531L38.3057 115.531ZM50.6362 108.057C50.483 108.056 50.333 108.101 50.2054 108.186C50.0777 108.271 49.9781 108.392 49.9191 108.533C49.86 108.675 49.8443 108.83 49.8739 108.981C49.9035 109.131 49.977 109.269 50.0852 109.378C50.1933 109.486 50.3313 109.56 50.4815 109.59C50.6318 109.62 50.7876 109.605 50.9292 109.547C51.0708 109.488 51.1919 109.389 51.2771 109.262C51.3623 109.134 51.4078 108.984 51.4078 108.831C51.4064 108.626 51.3242 108.43 51.1792 108.285C51.0341 108.141 50.8378 108.059 50.6329 108.058L50.6362 108.057ZM50.6362 109.47C50.51 109.469 50.3866 109.432 50.2818 109.362C50.1769 109.291 50.0951 109.192 50.0469 109.075C49.9987 108.958 49.9862 108.83 50.0109 108.706C50.0356 108.583 50.0964 108.469 50.1857 108.38C50.275 108.29 50.3888 108.23 50.5126 108.205C50.6364 108.181 50.7647 108.193 50.8814 108.242C50.998 108.29 51.0976 108.372 51.1677 108.477C51.2379 108.582 51.2753 108.705 51.2753 108.831C51.2753 108.916 51.2587 108.999 51.2264 109.077C51.1941 109.155 51.1468 109.226 51.0871 109.285C51.0275 109.345 50.9567 109.392 50.8787 109.425C50.8008 109.457 50.7172 109.474 50.6329 109.474L50.6362 109.47ZM48.6288 83.9407C48.5744 84.0152 48.5042 84.0766 48.4232 84.1206C48.3422 84.1646 48.2524 84.19 48.1604 84.195C48.0995 84.2358 48.0419 84.276 47.981 84.3195C48.0251 84.3277 48.07 84.3315 48.1149 84.3308C48.2632 84.3306 48.4083 84.288 48.5332 84.2081C48.6582 84.1282 48.7577 84.0143 48.8202 83.8798C48.7526 83.9012 48.689 83.9186 48.6254 83.9414L48.6288 83.9407ZM51.021 92.5507C50.8676 92.5515 50.7179 92.5978 50.5908 92.6837C50.4637 92.7695 50.3649 92.8912 50.307 93.0332C50.249 93.1752 50.2345 93.3312 50.2652 93.4815C50.2959 93.6318 50.3704 93.7696 50.4795 93.8775C50.5885 93.9854 50.7271 94.0585 50.8777 94.0877C51.0282 94.1168 51.1841 94.1007 51.3255 94.0412C51.4669 93.9818 51.5875 93.8818 51.6721 93.7538C51.7566 93.6258 51.8014 93.4756 51.8006 93.3223C51.8003 93.2201 51.7798 93.119 51.7402 93.0248C51.7006 92.9306 51.6427 92.8452 51.5699 92.7735C51.4971 92.7018 51.4108 92.6453 51.316 92.6071C51.2212 92.569 51.1198 92.5501 51.0176 92.5514L51.021 92.5507ZM51.021 93.9693C50.8942 93.9685 50.7704 93.9302 50.6653 93.8593C50.5601 93.7883 50.4783 93.6878 50.4302 93.5705C50.382 93.4532 50.3696 93.3242 50.3945 93.1998C50.4195 93.0755 50.4806 92.9613 50.5703 92.8716C50.66 92.7819 50.7742 92.7207 50.8986 92.6958C51.0229 92.6708 51.1519 92.6832 51.2692 92.7314C51.3866 92.7796 51.4871 92.8614 51.558 92.9665C51.629 93.0716 51.6673 93.1954 51.6681 93.3223C51.6685 93.4077 51.652 93.4923 51.6194 93.5713C51.5869 93.6503 51.5389 93.722 51.4784 93.7822C51.4179 93.8425 51.346 93.8901 51.2669 93.9224C51.1878 93.9546 51.1031 93.9708 51.0176 93.97L51.021 93.9693Z" fill="white"/>
<path d="M60.7839 91.3094C61.52 92.5346 62.333 93.7184 63.1032 94.9229C62.7927 94.0677 62.4876 93.2105 62.1463 92.3667C62.1396 92.35 62.1631 92.3352 62.1718 92.3526C62.7024 93.3811 63.1701 94.431 63.4907 95.5391C64.0661 96.452 64.5802 97.402 65.0297 98.3831C65.559 99.5688 65.9599 100.809 66.0622 102.11C66.1646 103.411 65.9411 104.72 65.5216 105.947C65.0351 107.37 64.3251 108.7 63.5917 110.008C63.4947 110.182 63.2538 110.022 63.3348 109.849C64.4154 107.546 65.6099 105.122 65.5001 102.51C65.3931 99.9301 64.1906 97.5473 63.0116 95.3076C62.3009 93.9579 61.5776 92.6029 60.699 91.3536C60.6628 91.3061 60.7512 91.2552 60.7839 91.3094Z" fill="#1A2E35"/>
<path d="M57.2977 108.617C55.7446 108.776 54.1868 108.99 52.6725 109.377C51.919 109.571 51.1796 109.797 50.4415 110.04C50.0735 110.162 49.7054 110.27 49.3314 110.375C48.9493 110.485 48.5391 110.587 48.1396 110.6C48.133 110.601 48.127 110.604 48.1226 110.609C48.1182 110.614 48.1158 110.621 48.1158 110.628C48.1158 110.634 48.1182 110.641 48.1226 110.646C48.127 110.651 48.133 110.654 48.1396 110.655C48.5224 110.674 48.9061 110.667 49.2879 110.634C49.6566 110.59 50.0219 110.521 50.3813 110.428C51.1475 110.239 51.9043 110.016 52.6678 109.819C54.2068 109.423 55.7499 109.027 57.3164 108.744C57.3893 108.732 57.3713 108.609 57.2977 108.617Z" fill="#1A2E35"/>
<path d="M61.148 109.997C59.8644 109.862 58.5742 109.8 57.2836 109.812C56.6379 109.819 55.9975 109.864 55.3544 109.926C55.048 109.956 54.7415 109.993 54.4357 110.03C54.1011 110.073 53.7665 110.164 53.432 110.199C53.3965 110.203 53.3965 110.258 53.432 110.255C53.7512 110.228 54.0757 110.255 54.3955 110.247C54.7154 110.24 55.0379 110.23 55.3591 110.222C56.0029 110.206 56.6459 110.198 57.2896 110.176C58.5778 110.132 59.8605 110.102 61.1493 110.103C61.2189 110.103 61.2136 110.004 61.148 109.997Z" fill="#1A2E35"/>
<path d="M43.9219 87.4143C34.2192 97.5854 22.1584 118.832 24.5439 123.059C27.2011 127.768 41.0807 113.377 40.6417 112.688C40.269 112.099 45.2121 99.2195 48.7238 89.862C52.2355 80.5046 46.3209 84.8996 43.9219 87.4143Z" fill="#C36358"/>
<path d="M32.0351 99.6049L45.9649 102.113C45.9649 102.113 49.4445 92.2429 50.1317 86.7625C50.5185 83.6918 48.7138 83.5653 46.4427 85.1974C38.4951 90.9099 32.0351 99.6049 32.0351 99.6049Z" fill="#FFC800"/>
<path d="M37.0196 98.5664C36.8668 98.5667 36.7174 98.6123 36.5905 98.6974C36.4635 98.7826 36.3647 98.9034 36.3064 99.0448C36.2481 99.1861 36.2331 99.3415 36.2632 99.4914C36.2933 99.6413 36.3671 99.7788 36.4754 99.8867C36.5837 99.9946 36.7215 100.068 36.8715 100.098C37.0215 100.127 37.1768 100.112 37.318 100.053C37.4591 99.9941 37.5796 99.8948 37.6643 99.7676C37.749 99.6403 37.7941 99.4908 37.7938 99.338C37.7931 99.1331 37.7112 98.9368 37.5661 98.7922C37.421 98.6476 37.2245 98.5664 37.0196 98.5664ZM37.0196 99.9797C36.8929 99.9801 36.769 99.9429 36.6634 99.8728C36.5579 99.8028 36.4755 99.703 36.4267 99.5861C36.3779 99.4692 36.3648 99.3404 36.3892 99.2161C36.4136 99.0918 36.4743 98.9775 36.5636 98.8877C36.653 98.7979 36.7669 98.7366 36.8911 98.7115C37.0153 98.6865 37.1441 98.6989 37.2613 98.7471C37.3784 98.7953 37.4787 98.8772 37.5493 98.9823C37.6199 99.0875 37.6577 99.2113 37.658 99.338C37.6587 99.508 37.5919 99.6714 37.4722 99.7923C37.3525 99.9131 37.1897 99.9815 37.0196 99.9823V99.9797ZM45.5768 88.3765C45.3749 88.3825 45.1833 88.4668 45.0427 88.6117C44.902 88.7565 44.8233 88.9505 44.8233 89.1524C44.8233 89.3543 44.902 89.5483 45.0427 89.6932C45.1833 89.838 45.3749 89.9224 45.5768 89.9283C45.6806 89.9314 45.7839 89.9135 45.8807 89.8759C45.9775 89.8383 46.0658 89.7816 46.1403 89.7093C46.2148 89.6369 46.274 89.5504 46.3145 89.4547C46.3549 89.3591 46.3758 89.2563 46.3758 89.1524C46.3758 89.0486 46.3549 88.9458 46.3145 88.8501C46.274 88.7545 46.2148 88.6679 46.1403 88.5956C46.0658 88.5232 45.9775 88.4665 45.8807 88.4289C45.7839 88.3913 45.6806 88.3735 45.5768 88.3765ZM45.5768 89.7951C45.4498 89.7942 45.326 89.7558 45.2209 89.6846C45.1158 89.6134 45.0341 89.5128 44.9861 89.3953C44.9381 89.2778 44.926 89.1487 44.9512 89.0243C44.9764 88.8999 45.0379 88.7857 45.1279 88.6962C45.2179 88.6067 45.3324 88.5458 45.4569 88.5212C45.5814 88.4966 45.7104 88.5095 45.8277 88.5581C45.9449 88.6067 46.0452 88.6889 46.1158 88.7943C46.1864 88.8998 46.2242 89.0238 46.2245 89.1508C46.2253 89.2361 46.2091 89.3208 46.1769 89.3999C46.1446 89.4789 46.097 89.5508 46.0367 89.6113C45.9764 89.6717 45.9047 89.7196 45.8257 89.7521C45.7468 89.7846 45.6621 89.801 45.5768 89.8005V89.7951ZM39.4875 91.4192C39.3716 91.4201 39.2573 91.4466 39.1529 91.4968C39.0311 91.6179 38.9126 91.737 38.7942 91.8581C38.7438 91.9624 38.7181 92.0769 38.7193 92.1927C38.7189 92.3464 38.7641 92.4968 38.8492 92.6247C38.9344 92.7527 39.0556 92.8525 39.1975 92.9115C39.3394 92.9705 39.4957 92.986 39.6464 92.9561C39.7972 92.9262 39.9357 92.8523 40.0443 92.7436C40.153 92.6349 40.227 92.4964 40.2569 92.3457C40.2868 92.1949 40.2712 92.0387 40.2122 91.8968C40.1532 91.7548 40.0534 91.6336 39.9255 91.5485C39.7975 91.4634 39.6472 91.4181 39.4935 91.4185L39.4875 91.4192ZM39.4875 92.8378C39.3604 92.8375 39.2362 92.7996 39.1307 92.7289C39.0251 92.6581 38.9429 92.5576 38.8944 92.4402C38.8459 92.3228 38.8333 92.1936 38.8582 92.0689C38.883 91.9443 38.9442 91.8299 39.0341 91.74C39.1239 91.6502 39.2384 91.589 39.363 91.5641C39.4876 91.5392 39.6168 91.5519 39.7343 91.6004C39.8517 91.6489 39.9522 91.7311 40.0229 91.8366C40.0937 91.9422 40.1316 92.0663 40.1318 92.1934C40.1325 92.2781 40.1163 92.3622 40.0843 92.4407C40.0523 92.5191 40.0051 92.5905 39.9454 92.6507C39.8856 92.7108 39.8146 92.7585 39.7364 92.7911C39.6581 92.8237 39.5742 92.8405 39.4895 92.8405L39.4875 92.8378ZM45.7775 102.08L45.9394 102.109C45.9478 102.1 45.9575 102.092 45.9682 102.085L46.0351 101.889C45.9373 101.934 45.8509 102 45.7822 102.083L45.7775 102.08ZM43.6181 95.6891C43.4657 95.6905 43.317 95.737 43.1909 95.8228C43.0648 95.9085 42.9669 96.0296 42.9095 96.1709C42.8521 96.3122 42.8377 96.4673 42.8683 96.6167C42.8988 96.7661 42.9729 96.9031 43.0811 97.0105C43.1894 97.1179 43.327 97.1909 43.4766 97.2203C43.6262 97.2497 43.7812 97.2341 43.922 97.1756C44.0628 97.1171 44.1832 97.0183 44.268 96.8915C44.3527 96.7648 44.3981 96.6157 44.3984 96.4633C44.3985 96.3611 44.3783 96.2598 44.3391 96.1655C44.2998 96.0711 44.2422 95.9855 44.1697 95.9135C44.0971 95.8415 44.011 95.7846 43.9164 95.7461C43.8217 95.7075 43.7203 95.6882 43.6181 95.6891ZM43.6181 97.1016C43.4485 97.1016 43.2858 97.0342 43.1658 96.9143C43.0458 96.7943 42.9784 96.6316 42.9784 96.4619C42.9784 96.2923 43.0458 96.1295 43.1658 96.0096C43.2858 95.8896 43.4485 95.8222 43.6181 95.8222C43.7878 95.8222 43.9505 95.8896 44.0705 96.0096C44.1905 96.1295 44.2579 96.2923 44.2579 96.4619C44.2579 96.6316 44.1905 96.7943 44.0705 96.9143C43.9505 97.0342 43.7878 97.1016 43.6181 97.1016ZM48.0212 84.3208C48.0509 84.3246 48.0809 84.3266 48.1108 84.3268C48.2715 84.3268 48.4282 84.2763 48.5585 84.1823C48.375 84.2119 48.195 84.2598 48.0212 84.3255V84.3208Z" fill="white"/>
<path d="M45.8732 99.8325C43.7627 99.269 37.9919 97.9066 34.1269 97.5112C34.1034 97.5112 34.084 97.5962 34.1068 97.6022C37.2719 98.4159 43.6958 99.5835 45.8451 99.9616C45.8852 99.9716 45.9133 99.8432 45.8732 99.8325Z" fill="#1A2E35"/>
<path d="M44.2672 101.807C44.8413 101.863 45.4135 101.931 45.9836 102.008L45.8645 102.079C46.278 100.561 46.7391 99.0589 47.2342 97.5674C47.7294 96.0758 48.256 94.595 48.8556 93.1356C48.4916 94.6679 48.0526 96.1782 47.5842 97.6805C47.1158 99.1827 46.6126 100.672 46.0632 102.146L46.0291 102.236L45.9434 102.217C45.3818 102.091 44.8231 101.955 44.2672 101.807Z" fill="#1A2E35"/>
<path d="M47.9335 96.1394C48.0572 95.8289 48.2167 95.5338 48.4086 95.2601C48.5978 94.9831 48.8085 94.7216 49.039 94.4779C49.0065 94.6443 48.9508 94.8053 48.8737 94.9563C48.8013 95.1078 48.7172 95.2535 48.6221 95.3919C48.4325 95.6751 48.2002 95.9272 47.9335 96.1394Z" fill="#1A2E35"/>
<path d="M24.8571 123.492C27.4888 126.34 33.5621 126.121 48.9071 127.005C51.0304 127.127 55.9252 112.374 53.6648 112.127C50.8169 111.816 39.6989 111.225 38.8765 111.284C31.9762 111.786 23.0724 121.561 24.8571 123.492Z" fill="#C36358"/>
<path d="M50.582 111.854C50.582 111.854 57.044 111.945 60.4246 113.044C64.9508 114.516 68.2537 117.649 69.5572 119.047C72.28 121.962 76.851 130.895 74.505 132.659C72.3837 134.256 68.1761 124.89 68.1761 124.89C68.1761 124.89 74.0419 133.732 71.1344 135.186C68.2269 136.64 63.9611 125.488 63.9611 125.488C63.9611 125.488 69.7827 134.708 66.5487 135.733C64.105 136.507 59.6711 126.625 59.6711 126.625C59.6711 126.625 64.6229 134.588 62.1417 135.49C59.4008 136.489 54.7368 127.624 54.7368 127.624C48.0453 128.863 44.3522 126.715 41.9071 124.875C41.3149 124.429 50.582 111.854 50.582 111.854Z" fill="#C36358"/>
<path d="M66.3426 121.702C67.0693 122.716 67.8148 123.737 68.4458 124.812C69.0768 125.887 69.677 126.984 70.2083 128.113C71.5112 130.883 71.8939 132.82 71.8571 132.703C70.9872 129.933 68.779 126.051 68.1453 124.975C67.5116 123.9 66.9335 122.798 66.3011 121.724C66.2851 121.698 66.3259 121.678 66.3426 121.702Z" fill="#1A2E35"/>
<path d="M62.42 123.921C63.2899 125.256 64.2067 126.548 65.0197 127.922C65.8327 129.296 66.4771 130.656 67.1904 132.075C67.2453 132.184 67.1684 132.178 67.1088 132.07C66.34 130.681 65.5216 129.456 64.736 128.076C63.9504 126.696 63.219 125.284 62.3873 123.939C62.3739 123.918 62.4073 123.901 62.42 123.921Z" fill="#1A2E35"/>
<path d="M58.7109 125.22C60.1483 127.191 61.2196 129.425 62.218 131.644C62.2675 131.754 62.1698 131.735 62.1122 131.625C60.9867 129.469 60.1188 127.768 58.6427 125.268C58.6179 125.231 58.6808 125.179 58.7109 125.22Z" fill="#1A2E35"/>
<path d="M33.1981 113.726C34.1222 112.974 36.772 111.15 39.6032 111.228C39.6098 111.228 39.6163 111.23 39.6214 111.234C39.6265 111.238 39.6297 111.244 39.6303 111.251C39.6309 111.257 39.6289 111.264 39.6247 111.269C39.6205 111.274 39.6145 111.277 39.6079 111.278C37.314 111.541 34.1804 113.108 33.2255 113.764C33.2204 113.768 33.2141 113.769 33.208 113.768C33.2019 113.767 33.1964 113.764 33.1927 113.759C33.1891 113.754 33.1876 113.748 33.1886 113.741C33.1896 113.735 33.193 113.73 33.1981 113.726Z" fill="#1A2E35"/>
<path d="M50.4047 83.7881C50.4562 84.4573 52.8946 89.1286 55.8697 89.4452C56.8393 89.5462 57.6289 84.2813 57.6289 84.2813L57.7761 83.9059L59.8324 78.6497L54.0703 73.5641L53.2299 72.8789C53.2299 72.8789 52.7615 74.351 52.198 76.1966C52.1719 76.2816 52.1452 76.3672 52.1177 76.4589C52.0829 76.5619 52.0508 76.6596 52.0214 76.7573C51.9337 77.031 51.8454 77.3114 51.7631 77.5924C51.6995 77.8066 51.6366 78.014 51.5784 78.2408C51.5202 78.4677 51.4559 78.6872 51.391 78.91C50.8028 81.153 50.3873 83.5044 50.4047 83.7881Z" fill="#C36358"/>
<path d="M52.198 76.1946C53.09 80.7669 56.2799 83.0661 57.7761 83.9059L59.8324 78.6497L54.0703 73.5641L53.2299 72.8789C53.2299 72.8789 52.7621 74.3517 52.198 76.1946Z" fill="#1A2E35"/>
<path d="M69.0085 72.3904C67.7044 82.2089 61.6759 82.5361 59.5594 82.2524C57.6376 81.9948 51.1281 80.874 51.4098 70.9732C51.6915 61.0723 56.6707 58.5751 61.0971 58.9284C65.5236 59.2817 70.3134 62.5719 69.0085 72.3904Z" fill="#C36358"/>
<path d="M67.5966 71.3359C67.3829 71.2563 67.1736 71.1653 66.9696 71.0635C66.7301 70.9564 66.528 70.8955 66.3828 70.662C66.3045 70.5375 66.356 70.3274 66.4698 70.2404C66.7374 70.0397 67.0606 70.0959 67.3544 70.2137C67.6543 70.3219 67.9032 70.5381 68.0523 70.8199C68.2136 71.1117 67.8904 71.4322 67.5966 71.3359Z" fill="#1A2E35"/>
<path d="M60.9599 69.6502C61.1878 69.661 61.4161 69.6596 61.6438 69.6462C61.9068 69.6416 62.1162 69.6656 62.3411 69.5124C62.4615 69.4288 62.497 69.216 62.4267 69.0908C62.2628 68.8004 61.9403 68.7255 61.6237 68.7181C61.3054 68.6998 60.9918 68.8008 60.7438 69.0012C60.4802 69.2013 60.6515 69.6235 60.9599 69.6502Z" fill="#1A2E35"/>
<path d="M62.0065 71.8096C62.0065 71.7835 61.949 71.8317 61.9449 71.8591C61.8459 72.5283 61.6204 73.2744 60.98 73.3861C60.9606 73.3861 60.9566 73.4236 60.98 73.4243C61.7301 73.4537 62.0199 72.458 62.0065 71.8096Z" fill="#1A2E35"/>
<path d="M61.5388 71.0093C60.4862 70.7356 60.0158 72.8615 60.9914 73.1151C61.9509 73.3647 62.4214 71.2388 61.5388 71.0093Z" fill="#1A2E35"/>
<path d="M61.0938 71.0294C60.8816 71.1083 60.6528 71.281 60.4246 71.2535C60.1569 71.2214 60.0131 70.9558 59.8893 70.7041C59.8766 70.6781 59.8545 70.6928 59.8478 70.7209C59.7514 71.1271 59.8157 71.5794 60.2386 71.7367C60.6247 71.8799 60.9907 71.5827 61.1828 71.196C61.2236 71.1244 61.1821 70.9972 61.0938 71.0294Z" fill="#1A2E35"/>
<path d="M65.9364 72.4252C65.9471 72.4018 65.9806 72.468 65.9732 72.4921C65.8019 73.1446 65.7149 73.9215 66.2596 74.2761C66.2764 74.2868 66.267 74.3196 66.2456 74.3109C65.5436 74.0452 65.6688 73.0161 65.9364 72.4252Z" fill="#1A2E35"/>
<path d="M66.6805 71.8732C67.7565 72.0358 67.3497 74.1751 66.356 74.0252C65.3763 73.8746 65.7778 71.7373 66.6805 71.8732Z" fill="#1A2E35"/>
<path d="M67.1001 72.0987C67.248 72.2439 67.3765 72.4814 67.5759 72.5323C67.8067 72.5919 68.0235 72.3931 68.2149 72.1977C68.235 72.1777 68.2484 72.1977 68.2437 72.2272C68.1768 72.638 67.962 73.0389 67.5545 73.0429C67.1831 73.0469 66.9857 72.6467 66.9649 72.2212C66.9609 72.1442 67.0405 72.0398 67.1001 72.0987Z" fill="#1A2E35"/>
<path d="M60.9599 77.4881C61.0744 77.6821 61.1741 77.9344 61.4049 78.018C61.6358 78.1017 61.9195 78.0669 62.149 78.0428C62.154 78.0421 62.1591 78.043 62.1636 78.0454C62.168 78.0478 62.1715 78.0516 62.1736 78.0562C62.1757 78.0608 62.1763 78.0659 62.1753 78.0709C62.1742 78.0758 62.1716 78.0803 62.1678 78.0836C62.0405 78.1869 61.8877 78.2539 61.7255 78.2775C61.5633 78.3011 61.3977 78.2803 61.2463 78.2174C60.9653 78.0836 60.8883 77.7918 60.889 77.5034C60.8863 77.4586 60.9399 77.4586 60.9599 77.4881Z" fill="#1A2E35"/>
<path d="M64.2147 75.6773C64.2147 75.6773 64.1478 76.6918 64.0481 77.1568C64.0387 77.2003 63.9223 77.197 63.7624 77.1736C63.7543 77.1736 63.7496 77.1736 63.7436 77.1736C62.8958 77.1301 62.1283 76.6737 61.7689 75.9022C61.7651 75.8914 61.7652 75.8797 61.769 75.869C61.7728 75.8583 61.7803 75.8492 61.79 75.8433C61.7997 75.8374 61.8112 75.8351 61.8225 75.8366C61.8338 75.8382 61.8442 75.8436 61.8519 75.852C62.3712 76.4301 63.0243 76.6878 63.7496 76.8557C63.8099 76.7339 63.8112 75.1159 63.8835 75.1239C64.1424 75.1554 64.6068 75.4331 64.8872 75.5837C65.094 73.4751 64.9601 71.3506 65.1977 69.2534C65.2014 69.2396 65.2094 69.2274 65.2206 69.2185C65.2318 69.2096 65.2456 69.2045 65.2599 69.2039C65.2742 69.2034 65.2882 69.2075 65.3001 69.2155C65.3119 69.2236 65.3208 69.2353 65.3255 69.2488C65.6226 71.4657 65.4379 73.8981 65.2807 76.0815C65.2693 76.3445 64.3847 75.7951 64.2147 75.6773Z" fill="#1A2E35"/>
<path d="M54.0891 60.5016C53.7545 61.2798 49.2906 61.8138 47.3253 58.7993C45.3894 55.8295 47.9529 52.1746 51.5035 53.9144C53.7478 55.0192 54.797 58.8555 54.0891 60.5016Z" fill="#1A2E35"/>
<path d="M47.2644 54.7181C48.0254 53.8926 49.0441 53.35 50.1538 53.179C51.2244 53.0104 52.2951 53.3798 52.9642 54.2028C53.6735 55.0058 54.0396 56.0765 54.2356 57.1645C54.327 57.7173 54.3677 58.2772 54.3574 58.8374C54.3574 59.4008 54.2999 59.9683 54.0897 60.5042C54.431 60.0285 54.5582 59.4336 54.6659 58.8648C54.7548 58.2826 54.7745 57.6918 54.7248 57.1049C54.6177 55.9366 54.2564 54.7301 53.4413 53.7906C53.0338 53.3289 52.5045 52.9415 51.9023 52.7534C51.3064 52.5727 50.6733 52.5533 50.0675 52.6972C48.8851 52.9662 47.8445 53.7137 47.2644 54.7181Z" fill="#1A2E35"/>
<path d="M51.8982 71.4061C53.6327 72.1181 55.2039 68.1272 55.2039 68.1272C55.2039 68.1272 63.2069 68.8948 65.5369 62.8409C65.5369 62.8409 65.7772 67.167 69.3003 70.0464C69.3003 70.0464 70.8761 63.142 65.8207 60.3544C65.8207 60.3544 59.7595 56.0945 54.5421 60.4086C49.3247 64.7226 50.7339 70.9303 51.8982 71.4061Z" fill="#1A2E35"/>
<path d="M65.6882 62.3846C65.5343 63.3629 65.1321 64.3017 64.5794 65.1375C64.0264 65.9858 63.3031 66.71 62.4555 67.2641C62.2548 67.418 62.0172 67.5143 61.7997 67.6415L61.4652 67.8215C61.3501 67.8716 61.2323 67.9165 61.1145 67.9613C60.8776 68.0483 60.6461 68.1453 60.4066 68.2223C60.163 68.2845 59.9181 68.3407 59.6705 68.3949C59.548 68.421 59.4269 68.4525 59.3045 68.4739L58.9317 68.5134L58.1943 68.5883C57.6971 68.5923 57.2006 68.5709 56.7101 68.5421C57.2013 68.4685 57.6905 68.4465 58.1722 68.3695L58.8889 68.2317L59.2462 68.1647C59.3627 68.134 59.4778 68.0931 59.5929 68.0583C59.8231 67.9841 60.0532 67.9131 60.2848 67.8476C60.5096 67.7639 60.7277 67.6609 60.9486 67.5692L61.2798 67.4293L61.593 67.254C61.7937 67.1302 62.0206 67.0365 62.2086 66.8887C63.0209 66.3801 63.7035 65.6922 64.299 64.9387C64.595 64.5555 64.8587 64.1484 65.0873 63.7216C65.3259 63.2941 65.5269 62.8468 65.6882 62.3846Z" fill="#1A2E35"/>
<path d="M51.391 64.8638L50.588 65.5524L52.56 68.8847L54.3233 67.3169L51.391 64.8638ZM52.7481 67.8991L51.3094 65.7625L51.4921 65.5979L53.3798 67.3571L52.7481 67.8991Z" fill="#FFC800"/>
<path d="M52.1686 63.3743L51.6855 64.3111L54.7676 66.6531L55.8115 64.5366L52.1686 63.3743ZM54.5695 65.6748L52.4282 64.2375L52.5359 64.016L54.9449 64.9341L54.5695 65.6748Z" fill="#FFC800"/>
<path d="M52.8699 71.9341C52.8699 71.9341 51.4305 68.4471 49.8941 68.8955C48.3578 69.3438 48.972 74.0714 50.4469 75.0269C51.9217 75.9825 52.8331 74.6348 52.8331 74.6348L52.8699 71.9341Z" fill="#C36358"/>
<path d="M50.1036 70.2465C50.0782 70.2385 50.0654 70.2733 50.0855 70.2873C51.1113 70.9946 51.4727 72.1716 51.6473 73.348C51.4051 72.8562 50.9996 72.5263 50.3518 72.8013C50.3177 72.8154 50.3358 72.8682 50.3692 72.8682C50.853 72.8682 51.1682 73.0262 51.3977 73.4651C51.5603 73.7763 51.638 74.141 51.729 74.4782C51.7591 74.5906 51.9531 74.5773 51.9404 74.4528C51.9404 74.4434 51.9404 74.4341 51.9371 74.4247C52.285 72.9934 51.6152 70.7343 50.1036 70.2465Z" fill="#1A2E35"/>
<path d="M96.5817 40.6177V48.701H94.2972V40.6177C94.2972 37.5436 91.9625 35.0443 89.0905 35.0443C86.2185 35.0443 83.8831 37.5436 83.8831 40.6177V48.701H81.5987V40.6177C81.5987 36.2153 84.9592 32.6353 89.0932 32.6353C93.2272 32.6353 96.5817 36.2173 96.5817 40.6177Z" fill="#C8C8C8"/>
<path d="M81.5987 42.7215L83.8831 42.8131V48.703H81.5987V42.7215Z" fill="#A8A8A8"/>
<path d="M96.5817 43.3318V48.7031H94.2972V43.2381L96.5817 43.3318Z" fill="#A8A8A8"/>
<path d="M99.5092 44.1006H78.6711V63.0056H99.5092V44.1006Z" fill="#FFC800"/>
<path opacity="0.1" d="M99.5092 44.1006H89.0905V63.0056H99.5092V44.1006Z" fill="black"/>
<path d="M89.9718 54.245L90.8417 58.383H87.1399L88.0098 54.245C87.6685 54.0324 87.4057 53.7144 87.2612 53.3391C87.1167 52.9638 87.0983 52.5517 87.2089 52.1651C87.3195 51.7784 87.553 51.4383 87.8741 51.1962C88.1951 50.9541 88.5863 50.8231 88.9885 50.8231C89.3906 50.8231 89.7818 50.9541 90.1029 51.1962C90.4239 51.4383 90.6574 51.7784 90.768 52.1651C90.8786 52.5517 90.8602 52.9638 90.7157 53.3391C90.5712 53.7144 90.3084 54.0324 89.9671 54.245H89.9718Z" fill="#1A2E35"/>
</svg>
