<svg width="161" height="151" viewBox="0 0 161 151" fill="none" xmlns="http://www.w3.org/2000/svg">
<path d="M116.204 9.75702H116.199C116.199 9.75702 116.199 9.76128 116.204 9.76341H116.208C116.208 9.76341 116.206 9.75915 116.204 9.75702ZM130.53 19.3874C130.502 19.3618 130.474 19.3355 130.445 19.3071L130.526 19.3945H130.539C130.535 19.3938 130.532 19.3874 130.53 19.3874ZM146.256 115.895C146.256 115.901 146.256 115.906 146.251 115.913C146.256 115.908 146.261 115.906 146.265 115.901C146.268 115.897 146.27 115.892 146.272 115.888L146.256 115.895Z" fill="#FECCBD"/>
<path d="M14.2907 29.719C14.3162 29.3404 14.5038 29.0797 14.908 28.9014C15.0394 29.4625 14.7481 29.6508 14.2949 29.7261C14.2175 30.1885 14.0861 30.6155 13.4752 30.8627C13.5014 30.2262 13.9014 29.9768 14.2907 29.719ZM15.5935 69.6051C14.67 70.3261 14.7126 70.9342 15.6311 71.5841C15.7837 71.7059 15.9175 71.8496 16.0282 72.0103C16.1475 72.1702 16.2321 72.3655 16.0751 72.5388C15.8897 72.7406 15.732 72.5623 15.5778 72.4586C15.0472 72.1034 14.7794 71.1799 14.0534 71.3788C13.5206 71.5266 13.1299 72.1602 12.6632 72.5737C12.438 72.7711 12.166 73.1277 11.8889 72.8017C11.6119 72.4756 12.0786 72.2966 12.2363 72.0643C12.3103 71.9734 12.392 71.889 12.4807 71.8122C13.6172 70.6642 13.6172 70.6642 12.5623 69.4452C12.3862 69.2435 12.1326 69.0744 12.2221 68.7555C12.2477 68.666 12.3585 68.5999 12.708 68.2341C12.9921 68.666 13.2436 69.0631 13.5114 69.4502C13.9554 70.0959 14.4036 70.0704 14.8497 69.4452C14.9188 69.3502 15.0027 69.267 15.0983 69.1987C15.4535 68.9501 15.7796 68.2042 16.1788 68.5836C16.6292 69.0176 15.8904 69.3749 15.5935 69.6051ZM16.6718 27.4146C16.3287 27.8308 15.9813 28.3189 15.2631 28.3423C15.754 27.725 16.2001 27.0637 16.745 26.4989C19.0437 24.1107 21.3822 21.7672 24.0475 19.7718C25.2941 18.8391 26.4918 17.8439 27.7975 16.9893C28.1264 16.7762 28.4219 16.5098 28.8545 16.573C28.885 16.1085 29.2132 16.1014 29.5513 16.1085C29.5513 16.1085 29.5513 16.1035 29.5513 16.1014C29.6288 16.0218 29.7083 15.9444 29.7858 15.8662C29.7933 15.8631 29.8011 15.861 29.8092 15.8598C29.8355 15.8314 29.8611 15.803 29.8895 15.7774C29.8824 15.7959 29.8824 15.8222 29.8682 15.8336C29.85 15.8453 29.8301 15.8541 29.8092 15.8598L29.795 15.8733L29.5606 16.1085H29.5485C29.415 16.4111 29.1798 16.5595 28.8516 16.573C27.9282 17.5874 26.7497 18.2879 25.7026 19.1467C22.5415 21.7374 19.3001 24.2357 16.6718 27.4146ZM27.703 105.304C26.4066 105.313 24.8807 103.79 24.8878 102.496C24.8992 100.979 26.2943 99.669 27.8713 99.6896C29.4846 99.7109 30.5181 100.796 30.5039 102.46C30.4954 103.992 29.2082 105.295 27.703 105.304ZM27.9729 56.9507C25.498 56.913 23.6688 55.0327 23.6759 52.5266C23.6852 49.9998 25.4277 48.2644 27.9473 48.2644C30.3626 48.2431 32.228 49.9856 32.336 52.6132C32.4276 54.8395 30.19 56.9834 27.9729 56.9507ZM35.0879 35.6271C35.2456 35.7322 35.372 35.8991 35.49 36.0533C35.6448 36.2508 35.7294 36.4795 35.4971 36.6685C35.323 36.8048 35.1284 36.7224 34.9614 36.5974C34.9259 36.579 34.8947 36.5534 34.8698 36.5221C33.9115 34.9139 33.1131 35.7215 32.3125 36.6819C32.1363 36.8908 31.8707 37.121 31.61 36.8951C31.2697 36.601 31.5702 36.3381 31.7748 36.108C31.9256 35.9279 32.092 35.7616 32.272 35.6107C33.1131 34.9629 33.2914 34.3782 32.1875 33.8007C31.9033 33.6501 31.5141 33.3241 31.7911 32.9625C32.1079 32.542 32.4574 32.9291 32.6386 33.1877C33.3923 34.2582 34.0636 34.087 34.754 33.1358C34.8907 32.9441 35.0699 32.7865 35.2776 32.6755C35.6491 32.4901 35.7194 32.8119 35.8956 33.0541C35.6185 33.3518 35.414 33.6459 35.1419 33.8547C34.3768 34.4386 34.1325 34.9998 35.0879 35.6271ZM56.6751 32.0973C56.6587 32.9149 56.3099 33.5947 55.7168 34.163C53.7377 36.0533 49.9238 35.9666 48.0712 33.9499C47.461 33.2829 46.9559 32.5292 47.4254 31.5453C47.4141 30.5167 47.4039 29.4891 47.3949 28.4624C46.9346 27.941 47.2528 27.7719 47.7451 27.769C50.5155 27.7555 53.2795 27.769 56.0457 27.7527C56.5834 27.7527 56.6964 28.0155 56.6914 28.4787C56.6729 29.6813 56.6985 30.8904 56.6751 32.0973ZM91.6533 3.15858C91.6327 2.88864 91.8933 2.79701 92.0951 2.68406C92.4777 2.47754 92.921 2.41264 93.3467 2.50079C95.6334 2.927 97.9137 3.3859 100.1 4.20565C100.297 4.28095 100.572 4.32073 100.588 4.71782C99.6583 4.91744 98.8123 4.45925 97.9328 4.34417C96.0149 4.09342 94.1097 3.75529 92.2009 3.4477C91.9914 3.41431 91.6767 3.48038 91.6533 3.15858ZM100.856 15.4478C101.041 15.5814 101.201 15.7838 101.14 16.0516C101.112 16.1617 101.063 16.2818 100.781 16.225C100.696 16.1539 100.485 16.0346 100.354 15.8591C99.7301 15.0252 99.1525 15.0323 98.4876 15.8449C98.2667 16.1149 97.9591 16.7584 97.5322 16.3358C97.2033 16.0111 97.741 15.6361 98.0231 15.4223C98.889 14.7623 98.9124 14.1656 98.0231 13.522C97.8497 13.3956 97.6004 13.1747 97.7979 12.9474C98.0394 12.6675 98.3335 12.8692 98.4926 13.083C99.203 14.0413 99.8153 13.7692 100.447 12.9942C100.589 12.8152 100.813 12.4586 101.097 12.7755C101.33 13.034 101.097 13.316 100.884 13.4709C99.9517 14.1308 99.9076 14.7701 100.856 15.4464V15.4478ZM105.273 53.6269C103.705 53.6269 102.181 52.1351 102.131 50.5581C102.084 49.0245 103.623 47.3764 105.132 47.3459C106.874 47.3104 108.225 48.67 108.23 50.4644C108.237 52.2332 106.931 53.6269 105.273 53.6269ZM114.856 9.72658C114.673 9.70314 114.501 9.62571 114.513 9.40266C114.513 9.37708 114.715 9.32025 114.798 9.34867C114.924 9.38845 115.03 9.49074 115.22 9.61648C115.034 9.67473 114.94 9.73297 114.856 9.72658ZM125.458 43.9752C125.28 43.8694 125.047 43.7849 124.885 43.6272C124.636 43.3835 124.444 43.0851 124.218 42.8173C123.14 41.5515 122.842 41.5614 121.661 42.6604C121.29 43.0056 120.917 43.939 120.343 43.3707C119.86 42.8969 120.778 42.6035 121.088 42.2959C121.957 41.4293 122.251 40.6522 121.125 39.7734C120.792 39.5127 120.541 39.1469 120.255 38.8294C120.123 38.6837 119.951 38.5126 120.104 38.3271C120.296 38.097 120.539 38.2121 120.717 38.3811C121.224 38.867 121.743 39.3465 122.213 39.8672C122.629 40.3275 122.96 40.3112 123.363 39.858C123.725 39.4545 124.152 39.1043 124.533 38.7171C124.772 38.4749 125.084 38.2682 125.352 38.4941C125.733 38.813 125.258 38.9984 125.115 39.2314C125.09 39.2606 125.062 39.2879 125.033 39.3131C123.42 41.0414 123.42 41.0393 125.127 42.7726C125.345 42.9956 125.575 43.2159 125.74 43.4766C125.883 43.7024 125.832 43.9298 125.458 43.9724V43.9752ZM132.909 74.8184C130.418 74.8092 128.623 73.029 128.652 70.5449C128.687 67.6658 130.624 66.3132 133.008 66.1726C135.24 66.0433 137.37 68.3186 137.328 70.5399C137.281 73.0496 135.444 74.8248 132.909 74.8156V74.8184ZM142.067 33.8029C142.051 33.7764 142.039 33.748 142.031 33.7183C141.999 33.6828 141.96 33.6473 141.93 33.6146C141.952 33.6196 141.982 33.6146 141.994 33.6309C142.012 33.6566 142.027 33.6852 142.036 33.7155C142.067 33.751 142.1 33.7865 142.13 33.8242C142.109 33.8142 142.078 33.8142 142.067 33.8V33.8029ZM146.418 42.2611C145.882 41.982 145.921 41.4087 145.707 41.0002C144.734 39.1377 143.932 37.1891 142.782 35.4161C142.592 35.1206 142.45 34.7938 142.498 34.4216L142.394 34.3108C142.419 34.3157 142.448 34.3108 142.465 34.325C142.484 34.3526 142.498 34.3828 142.508 34.4145L142.975 34.6539C142.956 33.545 142.076 32.7068 142.029 31.6078C141.996 31.573 141.965 31.5368 141.933 31.4999C141.97 31.5333 142.004 31.5638 142.041 31.5965C142.902 32.2045 143.382 33.0406 143.703 34.043C144.114 35.3088 144.981 36.3488 145.659 37.4783C146.739 39.2776 146.754 39.2662 146.418 42.2611ZM149.179 49.7682C149.165 49.7287 149.155 49.6877 149.149 49.646C149.149 49.6368 149.198 49.6297 149.224 49.6205C149.212 49.6617 149.2 49.7015 149.179 49.7675V49.7682ZM154.937 72.2519C154.519 74.8866 154.775 77.5426 154.686 80.1866C154.676 80.4587 154.961 81.0227 154.204 80.8138C154.04 80.7663 154.007 81.1115 154.024 81.2997C154.108 82.361 153.817 83.3846 153.747 84.4324C153.763 85.4113 153.434 86.3199 153.143 87.5715C153.028 86.2708 153.23 85.3452 153.528 84.4346C153.535 82.6054 153.697 80.7762 153.725 78.9513C153.808 73.7763 153.315 68.6361 152.436 63.5237C151.831 59.9967 151.201 56.4861 150.098 53.0742C149.992 52.7503 150.031 52.3795 150.006 52.0293C149.551 51.5619 149.484 50.9567 149.419 50.3479C149.827 50.8322 150.105 51.4126 150.227 52.0343C151.553 55.1904 152.727 58.3956 153.608 61.7158C154.376 64.6155 154.538 67.6118 155.151 70.5335C155.263 71.0677 155.029 71.6786 154.937 72.2512V72.2519Z" fill="#A4DFFF"/>
<path d="M48.0968 148.338C58.4219 150.289 69.1363 150.256 79.6922 149.842C88.5057 149.499 98.1382 149.242 107.269 147.534C113.023 146.457 118.581 144.803 123.607 142.188C137.465 134.974 147.87 122.436 153.897 108.162C161.184 90.9002 162.919 71.1728 157.743 53.1665C152.567 35.1603 140.316 19.0983 123.812 10.2316L133.668 19.2723C128.433 14.4675 122.403 10.5079 115.992 7.45335C109.519 4.37598 102.647 2.21743 95.5773 1.04021C88.5248 -0.136147 81.304 -0.329365 74.2047 0.535144C72.9129 0.680663 71.6295 0.892392 70.3595 1.1695C68.5033 1.59571 66.4759 1.47566 64.6809 2.09865C62.7956 2.75289 58.9596 3.85537 57.009 4.2752C53.0764 5.12266 51.3495 6.10154 47.4688 7.18413C45.9636 7.60395 44.4753 8.12677 43.0099 8.6702C42.6334 8.81227 41.8023 9.12057 41.6083 9.19729C35.5149 11.6587 29.9698 15.7696 25.1251 20.1468C20.1476 24.6498 15.8265 29.8688 12.2534 35.5496C8.65589 41.2739 5.81654 47.4409 3.80646 53.8961C2.47861 58.148 1.52569 62.508 0.958625 66.9262C-0.751214 80.33 -0.356963 94.1849 3.64024 107.168C5.68111 113.794 8.66036 120.13 12.5517 125.875C16.9709 132.395 23.6746 139.203 30.7924 142.703C36.3644 145.44 42.1667 147.217 48.0968 148.338Z" fill="#A4DFFF"/>
<path d="M116.208 9.76304H116.204C116.204 9.76304 116.204 9.75903 116.199 9.75702L116.208 9.76304Z" fill="#FEF8F6"/>
<path d="M116.866 10.4845C116.511 10.5108 116.194 10.3695 115.908 10.1862C115.802 10.1208 115.748 9.97308 115.671 9.86723C115.847 9.83171 116.026 9.7962 116.204 9.76352C116.357 9.99652 116.512 10.0242 116.669 9.76352C116.89 9.88357 117.206 9.92619 117.258 10.2075C117.307 10.4639 117.03 10.4369 116.866 10.4845Z" fill="#FEF8F6"/>
<path d="M116.669 9.76341C116.512 10.0241 116.357 9.99641 116.204 9.76341C116.204 9.76341 116.204 9.75915 116.199 9.75702H116.204L116.669 9.76341Z" fill="#FECCBD"/>
<path d="M118.79 9.75774L118.473 9.67889C118.646 9.4537 118.7 9.66326 118.783 9.76484L118.79 9.75774Z" fill="#FECCBD"/>
<path d="M118.783 9.76492C118.815 9.77278 118.845 9.78472 118.873 9.80043C118.887 9.8118 118.886 9.84306 118.892 9.86508L118.79 9.75781L118.783 9.76492Z" fill="#FECCBD"/>
<path d="M119.496 10.2237L119.487 10.233C119.454 10.1953 119.416 10.1619 119.383 10.1229C119.409 10.1271 119.442 10.1229 119.454 10.1364C119.468 10.1564 119.479 10.1787 119.487 10.2024C119.489 10.2099 119.492 10.217 119.496 10.2237Z" fill="#FECCBD"/>
<path d="M154.937 72.2511C154.519 74.8858 154.775 77.5419 154.686 80.1858C154.676 80.4579 154.961 81.0219 154.204 80.8131C154.04 80.7655 154.007 81.1107 154.024 81.299C154.108 82.3602 153.817 83.3839 153.747 84.4317C153.676 84.4317 153.601 84.4317 153.528 84.4317C153.535 82.6025 153.697 80.7733 153.725 78.9484C153.808 73.7734 153.315 68.6332 152.436 63.5208C151.831 59.9938 151.201 56.4832 150.097 53.0713C149.992 52.7474 150.031 52.3766 150.006 52.0264C150.077 52.0264 150.151 52.0264 150.227 52.0314C151.553 55.1875 152.727 58.3927 153.608 61.7129C154.376 64.6126 154.538 67.6089 155.151 70.5306C155.263 71.0676 155.029 71.6785 154.937 72.2511Z" fill="#FCFCFD"/>
<path d="M32.3359 52.616C32.228 49.9876 30.3611 48.2458 27.9473 48.2671C25.4277 48.2622 23.6852 49.9997 23.6759 52.5293C23.6688 55.0326 25.498 56.9158 27.9729 56.9534C30.1899 56.9833 32.4276 54.8394 32.3359 52.616ZM27.8862 56.2438C26.0173 56.2225 24.3827 54.5062 24.3778 52.5591C24.3714 50.4153 25.8148 48.9782 27.985 48.969C29.9669 48.9619 31.6618 50.6454 31.6554 52.6181C31.6455 54.4636 29.7744 56.2672 27.8862 56.2438Z" fill="#FEF8F6"/>
<path d="M133.008 66.1697C130.624 66.3117 128.687 67.6614 128.652 70.5419C128.623 73.0282 130.418 74.8041 132.909 74.8155C135.447 74.8247 137.281 73.0495 137.328 70.537C137.37 68.3157 135.24 66.0404 133.008 66.1697ZM132.887 74.1136C130.811 74.1136 129.355 72.6624 129.351 70.5981C129.346 68.5337 131.011 66.8154 133.011 66.8388C134.858 66.8601 136.646 68.727 136.623 70.6037C136.598 72.6595 135.046 74.1158 132.887 74.1136Z" fill="#FEF8F6"/>
<path d="M146.418 42.2611C145.882 41.9819 145.921 41.4086 145.707 41.0002C144.734 39.1376 143.932 37.1891 142.782 35.416C142.592 35.1205 142.45 34.7937 142.498 34.4215L142.505 34.4144L142.973 34.6538C143.003 34.7547 143.031 34.8555 143.061 34.9564C143.09 34.9358 143.12 34.9166 143.149 34.896C143.09 34.8136 143.031 34.7362 142.973 34.6538C142.953 33.5449 142.073 32.7067 142.026 31.6078L142.038 31.5964C142.899 32.2045 143.379 33.0406 143.7 34.0429C144.111 35.3088 144.979 36.3487 145.656 37.4782C146.739 39.2775 146.754 39.2662 146.418 42.2611Z" fill="#FEF8F6"/>
<path d="M105.132 47.3465C103.624 47.3771 102.084 49.0251 102.131 50.5588C102.181 52.1393 103.704 53.6304 105.273 53.6275C106.931 53.6275 108.234 52.2331 108.229 50.465C108.225 48.6706 106.874 47.311 105.132 47.3465ZM105.334 52.7453C103.834 52.7616 102.848 51.8367 102.84 50.4011C102.833 49.241 104.026 48.0505 105.184 48.0569C106.563 48.064 107.514 49.0286 107.528 50.4352C107.539 51.8246 106.675 52.731 105.334 52.7474V52.7453Z" fill="#FEF8F6"/>
<path d="M125.458 43.9723C125.28 43.8665 125.047 43.7819 124.885 43.6242C124.636 43.3806 124.443 43.0822 124.218 42.8144C123.14 41.5486 122.842 41.5585 121.661 42.6574C121.29 43.0027 120.916 43.9361 120.343 43.3678C119.859 42.894 120.778 42.6006 121.088 42.293C121.956 41.4264 122.251 40.6493 121.125 39.7705C120.792 39.5098 120.541 39.144 120.254 38.8265C120.123 38.6808 119.951 38.5096 120.104 38.3242C120.296 38.0941 120.539 38.2092 120.717 38.3782C121.224 38.8641 121.743 39.3436 122.213 39.8643C122.628 40.3246 122.959 40.3083 123.363 39.8551C123.725 39.4516 124.152 39.1014 124.533 38.7142C124.772 38.472 125.084 38.2653 125.352 38.4912C125.733 38.8101 125.258 38.9955 125.115 39.2285C125.089 39.2577 125.062 39.285 125.033 39.3102C123.42 41.0385 123.42 41.0364 125.127 42.7697C125.345 42.9927 125.575 43.213 125.74 43.4737C125.883 43.7024 125.831 43.9297 125.458 43.9723Z" fill="#FEF8F6"/>
<path d="M27.8742 99.6895C26.2943 99.6689 24.8992 100.979 24.8906 102.496C24.8835 103.79 26.4094 105.313 27.7058 105.304C29.2111 105.295 30.4982 103.989 30.5096 102.463C30.5238 100.795 29.4874 99.7108 27.8742 99.6895ZM27.7946 104.583C26.771 104.642 25.5825 103.398 25.6017 102.376C25.6223 101.303 26.6325 100.387 27.7967 100.387C29.0534 100.391 29.7147 101.154 29.8255 102.447C29.9221 103.565 28.8587 104.52 27.7946 104.583Z" fill="#FEF8F6"/>
<path d="M28.8516 16.5709C27.9281 17.5853 26.7496 18.2857 25.7025 19.1445C22.5414 21.7373 19.3 24.2357 16.6717 27.4145C16.3286 27.8308 15.9812 28.3188 15.2631 28.3423C15.7539 27.725 16.2 27.0636 16.7449 26.4989C19.0436 24.1107 21.3821 21.7672 24.0474 19.7718C25.2941 18.8391 26.4917 17.8438 27.7974 16.9893C28.1234 16.7733 28.4189 16.5077 28.8516 16.5709Z" fill="#FEF8F6"/>
<path d="M35.4899 36.0518C35.6448 36.2493 35.7293 36.478 35.497 36.667C35.323 36.8033 35.1284 36.7209 34.9614 36.5959C34.9259 36.5775 34.8947 36.5519 34.8698 36.5206C33.9115 34.9124 33.1131 35.72 32.3125 36.6804C32.1363 36.8893 31.8706 37.1195 31.6099 36.8936C31.2697 36.5995 31.5702 36.3366 31.7747 36.1065C31.9256 35.9264 32.092 35.76 32.272 35.6092C33.1131 34.9614 33.2914 34.3767 32.1875 33.7992C31.9033 33.6486 31.514 33.3226 31.7911 32.961C32.1079 32.5405 32.4574 32.9276 32.6385 33.1862C33.3922 34.2567 34.0635 34.0855 34.754 33.1343C34.8907 32.9426 35.0699 32.785 35.2775 32.674C35.6491 32.4886 35.7194 32.8104 35.8956 33.0526C35.6185 33.3503 35.4139 33.6444 35.1419 33.8532C34.3811 34.4378 34.1367 34.999 35.0921 35.6291C35.2456 35.7321 35.3699 35.8991 35.4899 36.0518Z" fill="#FEF8F6"/>
<path d="M15.6311 71.584C15.7837 71.7059 15.9175 71.8495 16.0282 72.0103C16.1475 72.1701 16.2321 72.3654 16.0751 72.5388C15.8897 72.7405 15.732 72.5622 15.5778 72.4585C15.0472 72.1033 14.7794 71.1798 14.0534 71.3787C13.5206 71.5265 13.1299 72.1601 12.6632 72.5736C12.438 72.7711 12.166 73.1277 11.8889 72.8016C11.6119 72.4755 12.0786 72.2965 12.2363 72.0642C12.3103 71.9733 12.392 71.8889 12.4807 71.8121C13.6172 70.6641 13.6172 70.6641 12.5623 69.4451C12.3862 69.2434 12.1326 69.0743 12.2221 68.7554C12.2477 68.6659 12.3585 68.5998 12.708 68.234C12.9921 68.6659 13.2436 69.063 13.5114 69.4501C13.9554 70.0958 14.4036 70.0703 14.8497 69.4451C14.9188 69.3501 15.0027 69.2669 15.0983 69.1986C15.4535 68.95 15.7796 68.2041 16.1788 68.5835C16.632 69.0154 15.8946 69.3727 15.5963 69.6028C14.6728 70.326 14.7126 70.9341 15.6311 71.584Z" fill="#FEF8F6"/>
<path d="M101.138 16.0487C101.11 16.1588 101.061 16.2789 100.779 16.2221C100.694 16.151 100.483 16.0317 100.352 15.8562C99.7279 15.0223 99.1504 15.0294 98.4855 15.842C98.2646 16.112 97.957 16.7555 97.5301 16.3329C97.2012 16.0082 97.7389 15.6332 98.0209 15.4194C98.8869 14.7594 98.9103 14.1627 98.0209 13.5191C97.8476 13.3927 97.5983 13.1718 97.7957 12.9445C98.0373 12.6646 98.3314 12.8663 98.4905 13.0801C99.2008 14.0384 99.8132 13.7663 100.445 12.9913C100.587 12.8123 100.811 12.4557 101.095 12.7726C101.328 13.0311 101.095 13.3131 100.882 13.468C99.9581 14.1322 99.9169 14.7687 100.865 15.4449C101.041 15.5799 101.205 15.7824 101.138 16.0487Z" fill="#FEF8F6"/>
<path d="M150.227 52.0335C150.151 52.0335 150.079 52.0335 150.006 52.0285C149.55 51.5611 149.484 50.9559 149.419 50.3471C149.827 50.8314 150.105 51.4118 150.227 52.0335Z" fill="#F3F4F5"/>
<path d="M14.2949 29.7261C14.2175 30.1885 14.0861 30.6154 13.4752 30.8626C13.5014 30.229 13.9014 29.9797 14.2907 29.7218L14.2949 29.7261Z" fill="#FEF8F6"/>
<path d="M14.2949 29.726L14.2906 29.7189C14.3162 29.3402 14.5038 29.0795 14.908 28.9012C15.038 29.4624 14.7481 29.6507 14.2949 29.726Z" fill="#FEF8F6"/>
<path d="M115.222 9.61352C115.034 9.67461 114.938 9.73286 114.856 9.72363C114.672 9.70019 114.501 9.62276 114.513 9.3997C114.513 9.37413 114.715 9.3173 114.798 9.34572C114.926 9.3855 115.032 9.48637 115.222 9.61352Z" fill="#FEF8F6"/>
<path d="M29.5485 16.1063C29.4149 16.4089 29.1798 16.5574 28.8516 16.5708C28.8822 16.1063 29.2104 16.0992 29.5485 16.1063Z" fill="#FEF8F6"/>
<path d="M29.5599 16.1059H29.5485C29.5485 16.1059 29.5485 16.1012 29.5485 16.0992L29.5599 16.1059Z" fill="#FEF8F6"/>
<path d="M44.1212 9.05234C44.1212 9.05234 44.1212 9.05635 44.1165 9.05903L44.1212 9.05234Z" fill="#FEFEFE"/>
<path d="M130.542 19.3956H130.529L130.533 19.3889C130.533 19.3889 130.535 19.3936 130.542 19.3956Z" fill="#FEFEFE"/>
<path d="M130.84 19.4713C130.671 19.6965 130.617 19.4997 130.539 19.396L130.84 19.4713Z" fill="#FEFEFE"/>
<path d="M149.225 49.6197C149.214 49.6616 149.202 49.7014 149.18 49.7674C149.166 49.7279 149.156 49.6869 149.151 49.6453C149.154 49.636 149.198 49.6289 149.225 49.6197Z" fill="#F3F4F5"/>
<path d="M146.251 115.913C146.227 116.009 146.202 116.108 146.18 116.205C145.97 116.04 146.148 115.989 146.251 115.913Z" fill="#FEFEFE"/>
<path d="M146.265 115.901C146.261 115.906 146.256 115.908 146.251 115.913C146.251 115.906 146.251 115.901 146.256 115.895L146.265 115.901Z" fill="#FEFEFE"/>
<path d="M142.506 34.4151L142.499 34.4222L142.395 34.3114C142.419 34.3164 142.449 34.3114 142.466 34.3256C142.483 34.3534 142.497 34.3835 142.506 34.4151Z" fill="#FEF8F6"/>
<path d="M142.13 33.8213C142.109 33.8142 142.078 33.8142 142.067 33.8C142.051 33.7735 142.039 33.7451 142.031 33.7154H142.036C142.067 33.7481 142.099 33.7836 142.13 33.8213Z" fill="#FEF8F6"/>
<path d="M29.7949 15.8712L29.5605 16.1063L29.5513 16.0992C29.6287 16.0197 29.7083 15.9422 29.7857 15.8641L29.7949 15.8712Z" fill="#FEF8F6"/>
<path d="M29.8091 15.8576L29.7949 15.8711L29.7857 15.864C29.7932 15.8609 29.8011 15.8588 29.8091 15.8576Z" fill="#FEF8F6"/>
<path d="M29.8894 15.7752C29.8823 15.7937 29.8823 15.82 29.8681 15.8313C29.8499 15.843 29.83 15.8519 29.8091 15.8576C29.8354 15.8292 29.861 15.8008 29.8894 15.7752Z" fill="#FEF8F6"/>
<path d="M130.445 19.3064C130.394 19.2595 130.342 19.2084 130.288 19.1586L130.3 19.1494C130.349 19.2034 130.396 19.2553 130.445 19.3064Z" fill="#FEFEFE"/>
<path d="M130.53 19.3874L130.526 19.3945L130.445 19.3071C130.472 19.3348 130.502 19.3611 130.53 19.3874Z" fill="#FEFEFE"/>
<path d="M142.038 31.5951L142.027 31.6064C141.994 31.5716 141.963 31.5354 141.93 31.4984C141.968 31.5347 142.003 31.5624 142.038 31.5951Z" fill="#FEF8F6"/>
<path d="M142.036 33.7126H142.031C141.999 33.6771 141.96 33.6416 141.93 33.6089C141.952 33.6139 141.982 33.6089 141.994 33.6253C142.013 33.6518 142.027 33.6813 142.036 33.7126Z" fill="#FEF8F6"/>
<path d="M24.3778 52.5613C24.3714 50.416 25.8155 48.979 27.9857 48.9712C29.9676 48.9633 31.6618 50.6476 31.654 52.6196C31.6469 54.4665 29.7744 56.268 27.8891 56.246C26.018 56.2232 24.3835 54.507 24.3778 52.5613Z" fill="#A4DFFF"/>
<path d="M132.887 74.1137C130.812 74.1137 129.355 72.6631 129.35 70.5981C129.345 68.5331 131.012 66.8161 133.011 66.8381C134.858 66.8587 136.645 68.7256 136.623 70.6073C136.597 72.6603 135.046 74.1165 132.887 74.1137Z" fill="#A4DFFF"/>
<path d="M143.149 34.8968C143.121 34.9174 143.09 34.9366 143.062 34.9572C143.032 34.8563 143.004 34.7554 142.973 34.6545C143.032 34.7369 143.09 34.8144 143.149 34.8968Z" fill="#FECCBD"/>
<path d="M107.527 50.438C107.54 51.8246 106.675 52.7318 105.335 52.7467C103.835 52.7637 102.849 51.8396 102.841 50.4025C102.834 49.2439 104.025 48.0519 105.186 48.0583C106.563 48.0675 107.514 49.0329 107.527 50.438Z" fill="#A4DFFF"/>
<path d="M27.7961 100.39C29.0541 100.39 29.714 101.159 29.827 102.45C29.9236 103.567 28.858 104.521 27.7939 104.581C26.771 104.641 25.5833 103.396 25.6025 102.375C25.6224 101.303 26.6332 100.387 27.7961 100.39Z" fill="#A4DFFF"/>
<path d="M91.3186 9.04312V69.5659H130.658V9.04312H91.3186ZM129.206 68.1182H92.7706V10.4951H129.206V68.1182Z" fill="#EBEBEB"/>
<path d="M129.206 10.4951H92.7706V68.1168H129.206V10.4951Z" fill="white"/>
<path d="M92.7692 40.0305L129.206 40.0305V38.5792L92.7692 38.5792V40.0305Z" fill="#EBEBEB"/>
<path d="M88.6448 73.7329H133.33V69.5674H88.6448V73.7329Z" fill="#DBDBDB"/>
<path d="M92.7692 10.493H129.206V47.7741H92.7692V10.493ZM127.861 11.8377H94.1132V46.4323H127.862L127.861 11.8377Z" fill="#DBDBDB"/>
<path d="M117.576 10.493H116.851V46.4294H117.576V10.493Z" fill="#DBDBDB"/>
<path d="M105.123 10.493H104.398V46.4294H105.123V10.493Z" fill="#DBDBDB"/>
<path d="M79.3072 87.5857H29.5265V90.6253H79.3072V87.5857Z" fill="#EBEBEB"/>
<path d="M74.8688 90.626H33.9655V99.0118H74.8688V90.626Z" fill="#EBEBEB"/>
<path d="M74.8681 92.2825L33.9655 93.0938V90.626H74.8681V92.2825Z" fill="#C8C8C8"/>
<path d="M68.5359 92.382H40.2983V97.2551H68.5359V92.382Z" stroke="#DBDBDB" stroke-miterlimit="10"/>
<path d="M59.0718 94.1153H49.7618V95.5218H59.0718V94.1153Z" fill="#DBDBDB"/>
<path d="M33.6345 147.235H32.2805L36.2209 99.0118H39.6761L33.6345 147.235Z" fill="#EBEBEB"/>
<path d="M39.6754 99.0126L39.2705 102.239H35.9581L36.2209 99.0126H39.6754Z" fill="#C8C8C8"/>
<path d="M75.1991 147.235H76.553L72.6127 99.0118H69.1575L75.1991 147.235Z" fill="#EBEBEB"/>
<path d="M69.1583 99.0126L69.5625 102.239H72.8749L72.6128 99.0126H69.1583Z" fill="#C8C8C8"/>
<path d="M24.1505 147.235L80.3627 147.2L136.574 147.235L80.3627 147.271L24.1505 147.235Z" fill="#1A2E35"/>
<path d="M41.9401 137.316H41.6367V138.707H41.0713V137.998H40.069V138.707H39.5028V137.316H39.2002L40.5698 135.9L41.9401 137.316Z" fill="#EBEBEB"/>
<path d="M90.9905 135.9H87.6887V136.372H90.9905V135.9Z" fill="#EBEBEB"/>
<path d="M90.9905 137.067H87.6887V137.539H90.9905V137.067Z" fill="#EBEBEB"/>
<path d="M90.9905 138.235H87.6887V138.707H90.9905V138.235Z" fill="#EBEBEB"/>
<path d="M66.0661 137.352L65.127 138.354L64.1886 137.352L64.3541 137.197L65.127 138.021L65.9006 137.197L66.0661 137.352Z" fill="#EBEBEB"/>
<path d="M65.1276 139.389C64.7904 139.389 64.4608 139.289 64.1804 139.101C63.9001 138.914 63.6815 138.648 63.5525 138.336C63.4235 138.025 63.3897 137.682 63.4555 137.351C63.5213 137.021 63.6836 136.717 63.9221 136.478C64.1605 136.24 64.4643 136.078 64.795 136.012C65.1257 135.946 65.4685 135.98 65.78 136.109C66.0915 136.238 66.3578 136.456 66.5451 136.737C66.7325 137.017 66.8325 137.347 66.8325 137.684C66.8325 138.136 66.6528 138.57 66.3331 138.889C66.0134 139.209 65.5798 139.389 65.1276 139.389ZM65.1276 136.203C64.8349 136.204 64.5489 136.291 64.3057 136.454C64.0626 136.617 63.8731 136.848 63.7614 137.119C63.6497 137.389 63.6207 137.687 63.678 137.974C63.7354 138.261 63.8766 138.525 64.0837 138.731C64.2908 138.938 64.5546 139.079 64.8417 139.136C65.1288 139.193 65.4264 139.164 65.6967 139.051C65.9671 138.939 66.1982 138.75 66.3608 138.506C66.5234 138.263 66.6101 137.977 66.6101 137.684C66.6097 137.291 66.4534 136.914 66.1754 136.637C65.8973 136.359 65.5205 136.203 65.1276 136.203Z" fill="#EBEBEB"/>
<path d="M80.8671 68.5615H61.1468V74.5108H80.8671V68.5615Z" fill="#FFC800"/>
<path d="M64.7718 72.0145C64.7986 71.9823 64.8371 71.9619 64.8789 71.958C64.9207 71.954 64.9624 71.9666 64.9948 71.9932C65.1284 72.1033 65.3607 72.2312 65.5773 72.2283C65.7131 72.2308 65.8463 72.1914 65.9588 72.1154C65.9969 72.0921 66.0288 72.0599 66.0517 72.0215C66.0746 71.9831 66.0878 71.9398 66.0902 71.8952C66.0909 71.8607 66.0812 71.8268 66.0625 71.7979C66.0394 71.7607 66.0081 71.7293 65.9709 71.7062C65.8414 71.634 65.6999 71.5858 65.5532 71.5642H65.5446C65.409 71.5413 65.2768 71.5015 65.1511 71.4455C65.0358 71.3947 64.9372 71.3122 64.867 71.2076C64.8203 71.1323 64.7957 71.0454 64.7959 70.9568C64.7992 70.8687 64.823 70.7827 64.8653 70.7054C64.9075 70.6281 64.9672 70.5617 65.0396 70.5114C65.1943 70.4036 65.3788 70.347 65.5674 70.3494C65.8608 70.3494 66.0774 70.4915 66.233 70.5938C66.2672 70.617 66.2908 70.6528 66.2988 70.6934C66.3068 70.7339 66.2985 70.776 66.2756 70.8105C66.2646 70.828 66.2503 70.8431 66.2333 70.855C66.2164 70.8668 66.1973 70.8752 66.1771 70.8795C66.1568 70.8838 66.136 70.884 66.1157 70.88C66.0954 70.8761 66.0761 70.8682 66.0589 70.8566C65.9034 70.7529 65.7535 70.6613 65.5674 70.6613C65.4454 70.6592 65.3259 70.6955 65.2257 70.765C65.1924 70.7853 65.1645 70.8133 65.1443 70.8467C65.1241 70.8801 65.1123 70.9179 65.1099 70.9568C65.1084 70.9869 65.1158 71.0168 65.1312 71.0428C65.1534 71.0742 65.1814 71.1012 65.2136 71.1223C65.3309 71.1912 65.4605 71.2366 65.5951 71.2559H65.6015C65.7464 71.2811 65.8877 71.3243 66.022 71.3844C66.1458 71.438 66.2517 71.5257 66.3275 71.6373C66.3745 71.7156 66.3991 71.8053 66.3985 71.8966C66.3957 71.9907 66.3705 72.0827 66.3249 72.165C66.2793 72.2473 66.2147 72.3175 66.1364 72.3697C65.9713 72.486 65.7736 72.547 65.5716 72.5437C65.2849 72.5301 65.0105 72.4231 64.7902 72.239C64.759 72.2111 64.7396 72.1722 64.7361 72.1305C64.7327 72.0887 64.7455 72.0472 64.7718 72.0145Z" fill="white"/>
<path d="M66.8942 70.5775C66.894 70.5554 66.8981 70.5335 66.9064 70.513C66.9147 70.4925 66.9271 70.4739 66.9427 70.4583C66.9583 70.4427 66.9769 70.4303 66.9974 70.422C67.0179 70.4137 67.0398 70.4095 67.0619 70.4098C67.1068 70.4095 67.15 70.4269 67.1821 70.4583C67.2142 70.4897 67.2325 70.5326 67.2331 70.5775V72.3804C67.2325 72.4253 67.2142 72.4681 67.1821 72.4996C67.15 72.531 67.1068 72.5484 67.0619 72.548C67.0398 72.5483 67.0179 72.5442 66.9974 72.5358C66.9769 72.5275 66.9583 72.5152 66.9427 72.4996C66.9271 72.4839 66.9147 72.4653 66.9064 72.4449C66.8981 72.4244 66.894 72.4025 66.8942 72.3804V70.5775Z" fill="white"/>
<path d="M67.7084 71.4498C67.7098 71.3035 67.7401 71.1588 67.7974 71.0242C67.8548 70.8896 67.9382 70.7676 68.0428 70.6653C68.1474 70.5629 68.2711 70.4822 68.407 70.4278C68.5428 70.3733 68.688 70.3462 68.8344 70.348C69.0864 70.3475 69.3313 70.4315 69.5298 70.5867C69.5496 70.6 69.5664 70.6173 69.5792 70.6374C69.5921 70.6575 69.6006 70.68 69.6044 70.7035C69.6082 70.7271 69.6071 70.7512 69.6011 70.7743C69.5952 70.7974 69.5846 70.819 69.57 70.8378C69.5553 70.8567 69.537 70.8723 69.5161 70.8837C69.4951 70.8952 69.4721 70.9022 69.4483 70.9044C69.4246 70.9065 69.4007 70.9038 69.378 70.8963C69.3554 70.8888 69.3345 70.8768 69.3167 70.8609C69.1785 70.7543 69.0089 70.6964 68.8344 70.6961C68.7325 70.6944 68.6314 70.7132 68.537 70.7515C68.4427 70.7899 68.357 70.8469 68.2852 70.9191C68.2128 70.9867 68.1551 71.0684 68.1156 71.1592C68.0762 71.25 68.0558 71.3479 68.0558 71.4469C68.0558 71.546 68.0762 71.6439 68.1156 71.7347C68.1551 71.8255 68.2128 71.9072 68.2852 71.9747C68.357 72.047 68.4427 72.104 68.537 72.1423C68.6314 72.1807 68.7325 72.1995 68.8344 72.1978C68.9813 72.1961 69.1252 72.1562 69.252 72.082V71.6636H68.8159C68.7699 71.6631 68.726 71.6445 68.6934 71.612C68.6609 71.5795 68.6424 71.5355 68.6418 71.4896C68.6419 71.4669 68.6465 71.4445 68.6554 71.4236C68.6642 71.4027 68.6771 71.3838 68.6932 71.368C68.7094 71.3521 68.7286 71.3396 68.7497 71.3312C68.7707 71.3228 68.7932 71.3187 68.8159 71.3191H69.4232C69.4461 71.3184 69.4689 71.3223 69.4902 71.3306C69.5116 71.3388 69.531 71.3513 69.5475 71.3671C69.564 71.383 69.5771 71.402 69.5862 71.4231C69.5952 71.4441 69.5999 71.4667 69.6001 71.4896V72.1644C69.5991 72.1818 69.596 72.1989 69.5909 72.2156C69.5909 72.2219 69.5909 72.2248 69.5852 72.2312C69.5738 72.2604 69.5534 72.2853 69.527 72.3022C69.3289 72.4561 69.0852 72.5396 68.8344 72.5395C68.5406 72.544 68.2571 72.4318 68.046 72.2275C67.8349 72.0232 67.7135 71.7435 67.7084 71.4498Z" fill="white"/>
<path d="M70.6209 72.3804C70.6224 72.4032 70.6192 72.426 70.6115 72.4476C70.6038 72.4691 70.5917 72.4888 70.5761 72.5054C70.5605 72.5221 70.5416 72.5354 70.5207 72.5445C70.4997 72.5535 70.4771 72.5582 70.4543 72.5582C70.4314 72.5582 70.4089 72.5535 70.3879 72.5445C70.3669 72.5354 70.3481 72.5221 70.3325 72.5054C70.3168 72.4888 70.3048 72.4691 70.2971 72.4476C70.2894 72.426 70.2862 72.4032 70.2877 72.3804V70.6045C70.2866 70.5767 70.2925 70.5492 70.3049 70.5243C70.3173 70.4995 70.3358 70.4782 70.3587 70.4624C70.3944 70.437 70.4386 70.4266 70.4819 70.4334C70.5252 70.4401 70.5641 70.4636 70.5903 70.4987L71.5763 71.8626V70.6045C71.5765 70.5608 71.5939 70.5189 71.6247 70.4879C71.6556 70.4569 71.6974 70.4394 71.7411 70.439C71.7851 70.4394 71.8272 70.4568 71.8585 70.4877C71.8898 70.5186 71.9078 70.5605 71.9087 70.6045V72.3804C71.9084 72.4248 71.8906 72.4672 71.8592 72.4985C71.8279 72.5299 71.7855 72.5477 71.7411 72.5481C71.7171 72.5477 71.6935 72.5421 71.6719 72.5317C71.6503 72.5212 71.6313 72.5062 71.6161 72.4877C71.61 72.4823 71.6048 72.4761 71.6005 72.4692L70.6244 71.1138L70.6209 72.3804Z" fill="white"/>
<path d="M74.4361 72.5452C74.3202 72.5455 74.2054 72.5229 74.0983 72.4787C73.9912 72.4345 73.8939 72.3696 73.8119 72.2877C73.7299 72.2057 73.6649 72.1085 73.6206 72.0014C73.5764 71.8943 73.5537 71.7795 73.5538 71.6636V70.5775C73.5536 70.5553 73.5577 70.5333 73.5661 70.5128C73.5745 70.4923 73.5869 70.4737 73.6026 70.458C73.6183 70.4424 73.6369 70.4301 73.6575 70.4218C73.678 70.4135 73.7 70.4095 73.7222 70.4098C73.767 70.4097 73.81 70.4272 73.842 70.4586C73.8739 70.49 73.8921 70.5327 73.8927 70.5775V71.6636C73.8901 71.7366 73.9021 71.8094 73.9282 71.8775C73.9543 71.9457 73.9939 72.008 74.0446 72.0605C74.0953 72.1131 74.1561 72.1549 74.2233 72.1834C74.2905 72.212 74.3627 72.2267 74.4358 72.2267C74.5088 72.2267 74.581 72.212 74.6482 72.1834C74.7155 72.1549 74.7762 72.1131 74.8269 72.0605C74.8776 72.008 74.9172 71.9457 74.9433 71.8775C74.9694 71.8094 74.9815 71.7366 74.9788 71.6636V70.5775C74.9789 70.5552 74.9834 70.5331 74.9921 70.5126C75.0008 70.4921 75.0135 70.4735 75.0294 70.4579C75.0453 70.4423 75.0642 70.43 75.0849 70.4218C75.1056 70.4135 75.1277 70.4095 75.15 70.4098C75.1721 70.4096 75.1941 70.4137 75.2145 70.422C75.235 70.4303 75.2536 70.4427 75.2692 70.4583C75.2848 70.4739 75.2972 70.4925 75.3055 70.513C75.3138 70.5335 75.318 70.5554 75.3177 70.5775V71.6636C75.3177 71.8974 75.2248 72.1217 75.0595 72.287C74.8941 72.4523 74.6699 72.5452 74.4361 72.5452Z" fill="white"/>
<path d="M76.7471 71.7155H76.372V72.3804C76.3692 72.4234 76.3501 72.4638 76.3187 72.4933C76.2872 72.5227 76.2457 72.5392 76.2026 72.5392C76.1594 72.5392 76.1179 72.5227 76.0865 72.4933C76.055 72.4638 76.0359 72.4234 76.0331 72.3804V70.5803C76.033 70.5583 76.0373 70.5364 76.0457 70.516C76.0541 70.4956 76.0664 70.4771 76.082 70.4615C76.0976 70.446 76.1161 70.4336 76.1365 70.4252C76.1569 70.4168 76.1787 70.4126 76.2008 70.4127H76.7471C76.9202 70.4127 77.0862 70.4814 77.2087 70.6039C77.3311 70.7263 77.3999 70.8923 77.3999 71.0655C77.3999 71.2386 77.3311 71.4047 77.2087 71.5271C77.0862 71.6495 76.9202 71.7183 76.7471 71.7183V71.7155ZM76.372 71.3766H76.7471C76.7896 71.3786 76.8321 71.372 76.872 71.3571C76.9119 71.3422 76.9484 71.3194 76.9792 71.29C77.01 71.2606 77.0345 71.2253 77.0513 71.1862C77.068 71.147 77.0767 71.1049 77.0767 71.0623C77.0767 71.0197 77.068 70.9776 77.0513 70.9384C77.0345 70.8993 77.01 70.8639 76.9792 70.8345C76.9484 70.8052 76.9119 70.7823 76.872 70.7674C76.8321 70.7526 76.7896 70.7459 76.7471 70.7479H76.372V71.3766Z" fill="white"/>
<path d="M73.8153 45.8413C75.9833 45.8413 77.7408 44.0838 77.7408 41.9158C77.7408 39.7479 75.9833 37.9904 73.8153 37.9904C71.6474 37.9904 69.8899 39.7479 69.8899 41.9158C69.8899 44.0838 71.6474 45.8413 73.8153 45.8413Z" fill="#375A64"/>
<path d="M55.6636 59.206C57.1834 59.206 58.4155 57.9739 58.4155 56.454C58.4155 54.9342 57.1834 53.7021 55.6636 53.7021C54.1437 53.7021 52.9116 54.9342 52.9116 56.454C52.9116 57.9739 54.1437 59.206 55.6636 59.206Z" fill="#EBEBEB"/>
<path d="M70.6265 58.0225C68.9478 59.0597 67.0132 59.6087 65.0399 59.6078C63.0666 59.6069 61.1325 59.0562 59.4547 58.0175C57.4897 56.8014 55.9749 54.9777 55.14 52.8229C54.3052 50.6681 54.1958 48.2999 54.8285 46.0773C55.4611 43.8547 56.8013 41.8991 58.6458 40.507C60.4903 39.1149 62.7385 38.3623 65.0494 38.3633C67.3602 38.3644 69.6077 39.119 71.451 40.5127C73.2943 41.9064 74.6327 43.8632 75.2634 46.0864C75.8941 48.3095 75.7826 50.6777 74.9458 52.8317C74.109 54.9858 72.5926 56.8081 70.6265 58.0225Z" fill="#FFC800"/>
<path d="M68.2731 47.7721C68.2731 48.4115 68.0835 49.0365 67.7282 49.5681C67.373 50.0998 66.8681 50.5141 66.2774 50.7588C65.6867 51.0035 65.0366 51.0675 64.4095 50.9428C63.7824 50.8181 63.2064 50.5102 62.7543 50.058C62.3021 49.6059 61.9942 49.0299 61.8695 48.4028C61.7448 47.7757 61.8088 47.1256 62.0535 46.5349C62.2981 45.9442 62.7125 45.4393 63.2442 45.084C63.7758 44.7288 64.4008 44.5392 65.0402 44.5392C65.4648 44.5391 65.8852 44.6227 66.2775 44.7851C66.6698 44.9475 67.0262 45.1857 67.3264 45.4859C67.6266 45.7861 67.8648 46.1425 68.0272 46.5348C68.1896 46.9271 68.2732 47.3475 68.2731 47.7721Z" fill="white"/>
<path d="M70.6266 56.6884V58.0225C68.9478 59.0597 67.0133 59.6087 65.0399 59.6078C63.0666 59.6069 61.1325 59.0562 59.4547 58.0175V56.6884C59.4713 55.2179 60.0671 53.8132 61.1129 52.7791C62.1586 51.7451 63.57 51.1652 65.0406 51.1652C66.5113 51.1652 67.9226 51.7451 68.9684 52.7791C70.0142 53.8132 70.61 55.2179 70.6266 56.6884Z" fill="white"/>
<path d="M77.6854 66.961C77.6741 66.7209 77.6691 66.4808 77.6648 66.2407C77.6606 66.0006 77.6606 65.7605 77.6585 65.5204C77.6563 65.2803 77.6585 65.0409 77.6648 64.8008C77.6712 64.5607 77.6741 64.3206 77.6854 64.0805C77.6961 64.3206 77.7018 64.5607 77.706 64.8008C77.7103 65.0409 77.706 65.281 77.7117 65.5204C77.7174 65.7598 77.7117 66.0006 77.7053 66.2407C77.6989 66.4808 77.6961 66.7209 77.6854 66.961Z" fill="#1A2E35"/>
<path d="M75.6381 67.871C75.4605 67.7091 75.2872 67.5435 75.1146 67.3738C74.942 67.204 74.7722 67.037 74.601 66.8687C74.4298 66.7003 74.2629 66.5284 74.0959 66.3558C73.929 66.1832 73.7635 66.0099 73.5987 65.8323C73.7763 65.9935 73.9496 66.1598 74.1222 66.3295C74.2948 66.4993 74.4646 66.6662 74.6358 66.8346C74.807 67.0029 74.9739 67.1749 75.1402 67.3475C75.3064 67.5201 75.4762 67.692 75.6381 67.871Z" fill="#1A2E35"/>
<path d="M74.834 69.9651C74.5939 69.9758 74.3545 69.9808 74.1144 69.985C73.8743 69.9893 73.6342 69.9893 73.3941 69.9914C73.154 69.9936 72.9139 69.9914 72.6745 69.985C72.4351 69.9786 72.1943 69.9758 71.9542 69.9651C72.1943 69.9538 72.4344 69.9488 72.6745 69.9445C72.9146 69.9403 73.154 69.9403 73.3941 69.9381C73.6342 69.936 73.8743 69.9381 74.1144 69.9445C74.3545 69.9509 74.5939 69.9516 74.834 69.9651Z" fill="#1A2E35"/>
<path d="M75.7446 72.0103C75.5827 72.1872 75.4165 72.3612 75.2474 72.5338C75.0783 72.7064 74.9107 72.8755 74.7423 73.0474C74.574 73.2193 74.4021 73.3848 74.2287 73.5518C74.0554 73.7187 73.8828 73.8849 73.7052 74.049C73.8672 73.8721 74.0334 73.6988 74.2025 73.5255C74.3715 73.3522 74.5385 73.1838 74.7068 73.0126C74.8752 72.8414 75.0478 72.6745 75.2204 72.5075C75.393 72.3406 75.5671 72.1722 75.7446 72.0103Z" fill="#1A2E35"/>
<path d="M77.8338 72.8137C77.8452 73.0538 77.8502 73.2939 77.8544 73.534C77.8587 73.7741 77.8587 74.0135 77.8608 74.2536C77.863 74.4937 77.8608 74.7338 77.8544 74.9739C77.8481 75.214 77.8452 75.4541 77.8338 75.6935C77.8232 75.4541 77.8182 75.214 77.814 74.9739C77.8097 74.7338 77.8097 74.4937 77.8076 74.2536C77.8054 74.0135 77.8076 73.7741 77.814 73.534C77.8203 73.2939 77.8253 73.0538 77.8338 72.8137Z" fill="#1A2E35"/>
<path d="M79.8833 71.903C80.0609 72.065 80.2342 72.2312 80.4068 72.4003C80.5795 72.5694 80.7492 72.7363 80.9204 72.9047C81.0916 73.073 81.2586 73.2456 81.4255 73.4182C81.5924 73.5909 81.7579 73.7642 81.9228 73.9418C81.7452 73.7798 81.5718 73.6136 81.3992 73.4445C81.2266 73.2755 81.0568 73.1078 80.8856 72.9395C80.7144 72.7711 80.5475 72.5992 80.3813 72.4259C80.215 72.2525 80.0453 72.0806 79.8833 71.903Z" fill="#1A2E35"/>
<path d="M80.6874 69.8117C80.9275 69.8011 81.1676 69.7954 81.407 69.7911C81.6464 69.7869 81.8872 69.7911 82.1273 69.7854C82.3674 69.7798 82.6075 69.7854 82.8476 69.7911C83.0877 69.7968 83.3271 69.8004 83.5672 69.8117C83.3271 69.8231 83.087 69.8281 82.8476 69.8323C82.6082 69.8366 82.3674 69.8366 82.1273 69.838C81.8872 69.8394 81.6471 69.838 81.407 69.8323C81.1669 69.8266 80.9275 69.8231 80.6874 69.8117Z" fill="#1A2E35"/>
<path d="M79.7767 67.763C79.9386 67.5855 80.1049 67.4121 80.2739 67.2395C80.443 67.0669 80.6106 66.8971 80.779 66.7259C80.9473 66.5547 81.12 66.3878 81.2926 66.2216C81.4652 66.0553 81.6385 65.8884 81.8161 65.7243C81.6542 65.9019 81.4879 66.0752 81.3189 66.2478C81.1498 66.4205 80.9822 66.5902 80.8138 66.7614C80.6454 66.9326 80.4728 67.0996 80.3002 67.2665C80.1276 67.4334 79.9543 67.6025 79.7767 67.763Z" fill="#1A2E35"/>
<path d="M95.1425 37.5386C95.1425 37.5386 97.5251 54.1241 97.3688 55.7033C97.2125 57.2824 95.2626 72.5687 95.2626 72.5687C95.2626 72.5687 90.896 71.6296 89.6344 70.8759C88.7287 70.3346 85.52 67.567 85.52 67.567C85.52 67.567 90.9826 56.9031 91.4216 54.7415C91.8606 52.5798 92.1682 42.0885 92.6868 39.978C93.2054 37.8675 95.1922 37.1465 95.1922 37.1465" fill="#FFC800"/>
<path d="M90.0087 60.5393C90.285 61.158 90.7993 61.6269 91.3513 61.9991C91.6489 62.2016 92.2207 62.6328 92.4019 62.0772C92.4623 61.8933 92.4168 61.6631 92.3308 61.4315C92.2023 61.0323 91.9188 60.6366 91.7093 60.3795C91.3917 59.9888 90.8568 59.4716 90.3006 59.5683C89.7806 59.6592 89.8446 60.1621 90.0087 60.5393Z" fill="#1A2E35"/>
<path d="M93.5044 63.2168C93.6003 63.9236 93.7928 64.6645 94.305 65.1908C94.5422 65.4352 94.8143 65.5155 95.0238 65.3443C95.2632 65.2093 95.3499 64.8037 95.379 64.5117C95.4517 63.8126 95.3217 63.1074 95.0047 62.4801C94.8036 62.0901 94.4506 61.5453 93.9292 61.6653C93.2593 61.8173 93.4383 62.7337 93.5044 63.2168Z" fill="#1A2E35"/>
<path d="M90.8392 62.944C90.5415 63.1784 90.8392 64.0685 91.1134 64.4911C91.4636 65.031 92.0453 65.6412 92.5341 65.4103C92.7792 65.2924 92.8182 64.6289 92.2748 63.7921C91.7697 63.0171 91.0849 62.7522 90.8392 62.944Z" fill="#1A2E35"/>
<path d="M89.3467 67.8547C89.4625 68.0827 89.7125 68.4855 90.0116 68.4997C90.2958 68.5125 90.3547 68.2155 90.3526 67.9953C90.3424 67.6542 90.2782 67.3168 90.1622 66.9959C90.0251 66.559 89.7665 66.1804 89.3474 66.1583C88.5177 66.1129 89.1997 67.5613 89.3467 67.8547Z" fill="#1A2E35"/>
<path d="M115.554 114.855C115.554 114.855 122.981 127.988 122.985 127.997C124.179 130.645 125.177 132.988 125.581 134.248C125.585 134.254 125.586 134.261 125.586 134.268C125.739 134.744 125.806 135.061 125.76 135.175C125.759 135.183 125.756 135.191 125.752 135.198C125.204 136.088 104.316 146.239 103.469 146.351C102.621 146.463 102.245 144.052 102.741 143.012C103.236 141.972 109.5 134.507 109.5 134.507L102.207 121.321L115.554 114.855Z" fill="#FF9581"/>
<path d="M103.803 146.273C104.649 146.163 125.204 136.088 125.753 135.201C125.758 135.194 125.761 135.186 125.763 135.177C125.81 135.063 125.741 134.744 125.591 134.271C125.59 134.264 125.587 134.257 125.583 134.251C125.179 132.991 124.18 130.646 122.989 128C122.989 128 121.738 125.704 121.24 124.907L107.956 131.774L109.502 134.507C109.502 134.507 103.579 141.895 103.079 142.935C102.58 143.975 102.953 146.384 103.803 146.273Z" fill="#EBEBEB"/>
<path d="M103.421 145.989C104.274 145.859 125.087 135.138 125.618 134.227C125.827 133.883 124.441 130.76 122.658 127.034L122.602 126.918L109.098 133.685L109.22 133.91C109.22 133.91 103.09 141.577 102.61 142.642C102.13 143.706 102.569 146.122 103.421 145.989Z" fill="#FFC800"/>
<path d="M103.241 145.06C106.705 143.167 120.854 135.858 124.422 134.249C124.451 134.236 124.461 134.255 124.434 134.271C121.041 136.223 106.833 143.417 103.27 145.118C103.194 145.154 103.168 145.101 103.241 145.06Z" fill="white"/>
<path d="M108.113 134.531C109.361 133.563 111.158 132.905 112.72 133.345C112.781 133.362 112.755 133.448 112.703 133.457C111.165 133.711 109.658 134.128 108.208 134.703C108.186 134.711 108.162 134.711 108.139 134.703C108.117 134.695 108.099 134.679 108.087 134.658C108.076 134.637 108.072 134.613 108.077 134.59C108.081 134.567 108.094 134.546 108.113 134.531Z" fill="#1A2E35"/>
<path d="M107.426 135.646C108.673 134.677 110.471 134.019 112.033 134.459C112.093 134.476 112.068 134.562 112.016 134.57C110.478 134.824 108.971 135.242 107.521 135.817C107.499 135.826 107.474 135.826 107.452 135.818C107.429 135.81 107.41 135.794 107.398 135.773C107.387 135.752 107.383 135.728 107.388 135.704C107.393 135.681 107.407 135.66 107.426 135.646Z" fill="#1A2E35"/>
<path d="M106.738 136.76C107.987 135.791 109.785 135.132 111.346 135.573C111.406 135.59 111.381 135.676 111.329 135.684C109.791 135.938 108.284 136.356 106.834 136.931C106.812 136.939 106.788 136.939 106.766 136.931C106.744 136.922 106.725 136.907 106.714 136.886C106.702 136.865 106.699 136.841 106.703 136.818C106.708 136.795 106.72 136.774 106.738 136.76Z" fill="#1A2E35"/>
<path d="M120.366 131.019C121.486 129.487 123.869 131.225 122.746 132.76C121.624 134.294 119.248 132.553 120.366 131.019Z" fill="white"/>
<path opacity="0.1" d="M108.308 135.06L106.812 144.405C104.928 145.342 103.627 145.958 103.426 145.989C102.574 146.122 102.139 143.699 102.612 142.64C102.973 141.836 106.577 137.24 108.308 135.06Z" fill="black"/>
<path d="M102.719 145.406C102.42 145.742 103.145 146.951 103.466 146.912C103.786 146.874 126.426 135.084 126.766 134.799C127.105 134.514 126.252 133.203 125.771 133.363C125.29 133.523 102.719 145.406 102.719 145.406Z" fill="#1A2E35"/>
<path d="M121.268 123.677L106.299 131.669C106.299 131.669 87.4038 104.747 87.028 97.6686C86.5059 87.8983 94.8484 56.881 94.8484 56.881L108.155 56.7908C108.155 56.7908 102.745 88.6896 103.182 94.1317C103.415 96.9788 121.268 123.677 121.268 123.677Z" fill="#2B454E"/>
<path d="M104.993 128.576C105.764 128.02 112.86 123.909 118.262 121.283C118.269 121.279 118.278 121.279 118.285 121.281C118.293 121.284 118.299 121.289 118.303 121.297C118.307 121.304 118.307 121.312 118.305 121.32C118.302 121.328 118.297 121.334 118.29 121.338C116.651 122.42 106.061 128.222 105.033 128.633C104.999 128.647 104.958 128.601 104.993 128.576Z" fill="#1A2E35"/>
<path d="M101.338 87.3157C101.956 82.6479 102.635 77.9873 103.411 73.3429C104.193 68.678 105.012 64.0152 105.987 59.3865C106.106 58.8182 106.231 58.2577 106.354 57.693C106.361 57.678 106.372 57.6657 106.386 57.658C106.4 57.6504 106.417 57.6479 106.433 57.651C106.449 57.6541 106.463 57.6625 106.474 57.6749C106.484 57.6874 106.49 57.703 106.491 57.7192C105.67 62.3117 104.827 66.8999 104.075 71.5038C103.324 76.1076 102.618 80.7186 101.985 85.3402C101.829 86.4844 101.677 87.6295 101.529 88.7755C101.377 89.9583 101.203 91.1453 101.19 92.3401C101.169 93.4787 101.362 94.6112 101.758 95.6788C102.154 96.7344 102.719 97.714 103.291 98.6822C105.698 102.755 116.48 120.553 116.76 121.071C116.778 121.105 116.731 121.142 116.709 121.105C114.122 117.091 106.096 104.27 103.654 100.13C102.553 98.2631 101.291 96.3728 100.931 94.1941C100.558 91.9309 101.04 89.5633 101.338 87.3157Z" fill="#1A2E35"/>
<path d="M105.172 123.677C105.172 123.677 105.325 138.858 105.325 138.87C105.245 141.774 105.122 144.318 104.936 145.629C104.938 145.636 104.938 145.643 104.936 145.65C104.865 146.147 104.788 146.459 104.698 146.541C104.69 146.548 104.687 146.555 104.68 146.558C103.8 147.12 80.5758 147.155 79.7653 146.883C78.9547 146.611 79.6651 144.281 80.5651 143.561C81.4652 142.84 90.3546 138.85 90.3546 138.85L90.3482 123.68L105.172 123.677Z" fill="#FF9581"/>
<path d="M105.291 135.752C105.291 135.752 105.322 138.858 105.322 138.869C105.242 141.773 105.12 144.317 104.933 145.627C104.935 145.634 104.935 145.641 104.933 145.648C104.835 146.136 104.75 146.458 104.695 146.539C104.688 146.546 104.684 146.553 104.677 146.557C103.797 147.118 80.573 147.154 79.7625 146.882C78.9519 146.61 79.6623 144.28 80.5623 143.559C81.4624 142.839 90.3518 138.849 90.3518 138.849V135.684L105.291 135.752Z" fill="#EBEBEB"/>
<path d="M79.7476 146.853C80.5702 147.115 103.977 146.703 104.857 146.121C105.196 145.908 105.335 142.491 105.385 138.361V138.231L90.2801 138.327L90.2908 138.584C90.2908 138.584 81.402 142.749 80.5006 143.491C79.5992 144.233 78.925 146.595 79.7476 146.853Z" fill="#FFC800"/>
<path d="M79.9969 145.941C83.9408 145.775 99.8635 145.476 103.776 145.612C103.807 145.612 103.807 145.634 103.776 145.636C99.8685 145.886 83.9451 146.056 79.9976 146.006C79.9145 146.004 79.9131 145.945 79.9969 145.941Z" fill="white"/>
<path d="M89.0227 138.652C90.5706 138.335 92.4737 138.54 93.6791 139.625C93.726 139.668 93.6656 139.733 93.6152 139.718C92.1232 139.265 90.5869 138.974 89.0327 138.848C89.0092 138.846 88.9874 138.835 88.9713 138.817C88.9551 138.8 88.9455 138.778 88.9443 138.754C88.9431 138.731 88.9504 138.708 88.9647 138.689C88.9791 138.67 88.9996 138.657 89.0227 138.652Z" fill="#1A2E35"/>
<path d="M87.914 139.348C89.4618 139.03 91.3649 139.235 92.5704 140.321C92.6173 140.363 92.5569 140.429 92.5064 140.414C91.0144 139.961 89.4781 139.669 87.9239 139.544C87.9004 139.541 87.8787 139.53 87.8625 139.513C87.8463 139.496 87.8368 139.473 87.8356 139.45C87.8344 139.426 87.8416 139.403 87.856 139.384C87.8703 139.366 87.8909 139.353 87.914 139.348Z" fill="#1A2E35"/>
<path d="M86.8051 140.043C88.3522 139.725 90.256 139.931 91.4615 141.016C91.5084 141.058 91.448 141.123 91.3975 141.109C89.9054 140.656 88.3692 140.365 86.815 140.239C86.7916 140.236 86.7698 140.226 86.7536 140.208C86.7374 140.191 86.7279 140.169 86.7267 140.145C86.7255 140.122 86.7327 140.098 86.7471 140.08C86.7614 140.061 86.782 140.048 86.8051 140.043Z" fill="#1A2E35"/>
<path d="M79.3754 146.021C78.9591 146.189 79.0749 147.595 79.3754 147.702C79.6759 147.809 105.2 147.248 105.632 147.143C106.064 147.038 105.877 145.484 105.372 145.413C104.867 145.342 79.3754 146.021 79.3754 146.021Z" fill="#1A2E35"/>
<path d="M101.566 140.921C103.248 140.042 104.616 142.655 102.931 143.535C101.246 144.415 99.8814 141.8 101.566 140.921Z" fill="white"/>
<path d="M95.0161 56.8512C95.017 56.856 95.0187 56.8605 95.0211 56.8647C95.1091 57.1389 99.8913 70.2429 100.342 70.4525C100.852 70.6876 89.7779 89.2892 89.1229 97.9307C88.7038 103.458 89.525 134.737 89.525 134.737H105.715C105.715 134.737 104.933 106.616 104.567 97.7055C104.425 94.251 115.683 77.0482 115.821 66.336C115.864 62.9596 113.439 56.7908 113.439 56.7908L95.0161 56.8512Z" fill="#2B454E"/>
<path d="M104.472 97.4646C104.472 97.3226 104.585 97.2764 104.595 97.422C104.961 102.244 105.046 107.04 105.277 111.87C105.507 116.686 105.376 117.848 105.591 122.664C105.713 125.39 105.598 128.122 105.662 130.849C105.663 130.858 105.66 130.867 105.654 130.874C105.649 130.881 105.641 130.885 105.632 130.886C105.623 130.886 105.614 130.884 105.607 130.878C105.6 130.872 105.596 130.864 105.595 130.855C105.092 126.048 104.477 100.195 104.472 97.4646Z" fill="#1A2E35"/>
<path d="M89.1222 98.121C89.1585 96.9333 89.2366 95.7413 89.4497 94.5692C89.6585 93.4241 90.018 92.3159 90.4492 91.2362C91.3442 88.9801 92.402 86.7808 93.4121 84.5751C94.436 82.3413 95.4854 80.1195 96.5604 77.9098C97.1671 76.6691 97.7777 75.43 98.3924 74.1925C99.0147 72.9416 99.6846 71.7126 100.336 70.4766C100.342 70.4676 100.351 70.4611 100.361 70.4582C100.371 70.4553 100.382 70.4563 100.391 70.4609C100.401 70.4656 100.409 70.4736 100.413 70.4834C100.417 70.4932 100.417 70.5042 100.413 70.5142C99.3763 72.7419 98.3534 74.976 97.3141 77.2044C96.2748 79.4328 95.2541 81.6691 94.2382 83.9053C93.2359 86.1074 92.2308 88.3095 91.286 90.5315C90.8328 91.5971 90.4101 92.6797 90.1309 93.8063C89.8468 94.9613 89.7239 96.1469 89.6564 97.3325C89.5001 100.098 89.4234 102.873 89.1513 105.63C89.1513 105.664 89.0917 105.661 89.091 105.63C89.0079 103.131 89.0469 100.618 89.1222 98.121Z" fill="#1A2E35"/>
<path d="M90.6978 131.536C91.6397 131.414 98.8122 131.166 104.813 131.423C104.821 131.423 104.829 131.426 104.835 131.432C104.841 131.437 104.844 131.445 104.844 131.453C104.844 131.461 104.841 131.469 104.835 131.475C104.829 131.481 104.821 131.484 104.813 131.484C102.858 131.658 91.8067 131.732 90.707 131.606C90.6687 131.602 90.6552 131.542 90.6978 131.536Z" fill="#1A2E35"/>
<path d="M98.104 69.725C99.8359 70.1292 101.534 70.7813 103.166 71.4796C103.178 71.4854 103.188 71.4955 103.194 71.5079C103.199 71.5204 103.199 71.5344 103.195 71.5473C103.191 71.5602 103.182 71.5711 103.17 71.5779C103.158 71.5846 103.145 71.5868 103.131 71.5841C101.432 71.052 99.7038 70.5533 98.0358 69.9282C98.0101 69.9182 97.9892 69.8987 97.9775 69.8737C97.9658 69.8487 97.9641 69.8202 97.9729 69.794C97.9817 69.7679 98.0002 69.7461 98.0247 69.7333C98.0491 69.7204 98.0775 69.7175 98.104 69.725Z" fill="#1A2E35"/>
<path d="M96.4717 58.6264C96.4717 58.5695 96.5676 58.5468 96.5733 58.6079C96.758 60.5415 97.0556 62.2307 97.4037 64.018C97.5649 64.8491 98.7143 69.4168 100.134 68.9266C100.372 68.8449 100.471 68.5927 100.472 68.2219C100.472 67.7758 100.251 67.2516 100.133 66.8204C99.8722 65.8671 99.6427 64.9074 99.4595 63.9356C99.1164 62.1228 98.921 60.295 98.9565 58.4488C98.9573 58.4371 98.9624 58.4262 98.9708 58.418C98.9791 58.4098 98.9902 58.405 99.0019 58.4045C99.0135 58.404 99.025 58.4078 99.0341 58.4151C99.0431 58.4225 99.0492 58.433 99.051 58.4445C99.3082 60.9762 99.6335 63.4966 100.269 65.9658C100.574 67.1521 101.367 68.9046 100.127 69.2193C98.8628 69.5397 97.7212 66.5853 97.479 65.7698C96.8006 63.4952 96.5285 60.9926 96.4717 58.6264Z" fill="#1A2E35"/>
<path d="M100.108 69.0552C100.27 69.3536 100.412 69.662 100.534 69.9787C100.63 70.2237 100.753 70.4873 100.752 70.7537C100.752 70.8055 100.684 70.8176 100.653 70.7856C100.46 70.5867 100.358 70.2983 100.236 70.0518C100.094 69.7677 99.9481 69.4835 99.8152 69.1937C99.7257 69.0055 100.007 68.8712 100.108 69.0552Z" fill="#1A2E35"/>
<path d="M102.816 102.223C102.733 99.9211 102.478 97.5073 103.233 95.286C103.607 94.1842 104.175 93.1642 104.71 92.1349C105.271 91.0527 105.822 89.9652 106.362 88.8722C108.525 84.5035 110.564 80.0637 112.384 75.5415C113.261 73.3636 114.045 71.1273 114.358 68.7931C114.686 66.3473 114.453 63.8454 113.906 61.4487C113.77 60.8498 113.622 60.2538 113.461 59.6614C113.448 59.6181 113.513 59.5904 113.527 59.6372C114.255 61.9104 114.758 64.2681 114.79 66.6606C114.821 68.9657 114.316 71.2069 113.571 73.3735C112.796 75.6332 111.823 77.8303 110.866 80.0175C109.879 82.2722 108.854 84.5098 107.79 86.7304C106.731 88.9382 105.601 91.1084 104.484 93.2871C103.942 94.3412 103.449 95.4181 103.241 96.5952C103.027 97.7908 103.062 99.0104 103.107 100.218C103.298 105.311 103.737 122.256 103.802 127.335C103.81 127.98 103.817 128.625 103.825 129.27C103.825 129.327 103.739 129.334 103.736 129.277C103.413 124.207 102.999 107.299 102.816 102.223Z" fill="#1A2E35"/>
<path d="M106.448 60.1487C106.448 60.1124 106.505 60.1195 106.509 60.1522C106.7 61.5531 106.809 63.0072 107.486 64.278C108.107 65.4451 109.191 66.196 110.37 66.7231C111.056 67.0182 111.757 67.2769 112.471 67.4981C112.522 67.5151 112.511 67.5947 112.455 67.5833C111.116 67.3048 109.755 66.993 108.591 66.2407C107.344 65.4352 106.704 64.1473 106.499 62.7045C106.378 61.8571 106.39 61.0004 106.448 60.1487Z" fill="#1A2E35"/>
<path d="M114.261 57.8748C114.229 57.9395 92.9347 63.7417 92.6946 63.5875C92.6725 63.5733 91.7903 63.0995 91.6006 61.4515C91.5488 60.999 92.1547 59.0526 92.1689 57.6155C92.2193 52.572 92.0219 43.2023 93.3936 38.1687C93.7622 36.819 96.6733 35.2669 98.273 36.2507C105.472 40.6748 114.301 57.791 114.261 57.8748Z" fill="#EBEBEB"/>
<path d="M97.2011 35.8535C97.2011 35.8535 97.9939 46.5942 98.2773 47.843C98.4755 48.7161 100.887 57.484 102.129 63.8219C102.66 66.5348 102.413 70.8069 102.413 70.8069C102.413 70.8069 109.828 68.398 112.1 66.853C113.417 65.9565 116.347 62.0978 116.347 62.0978C116.347 62.0978 111.656 51.6669 108.993 47.7585C106.331 43.8501 101.235 37.0754 98.8527 36.0901C97.7673 35.6397 97.2011 35.8535 97.2011 35.8535Z" fill="#FFC800"/>
<path d="M110.477 53.9294C110.122 54.08 109.93 54.443 109.845 54.8692C109.664 55.4119 109.609 55.9887 109.685 56.5556C109.728 56.8646 109.864 57.3179 110.265 57.2419C110.692 57.1609 110.885 56.4803 110.989 56.1337C111.096 55.7742 111.407 53.5366 110.477 53.9294ZM107.32 56.5393C106.884 56.9009 106.932 57.6418 107.023 58.1376C107.083 58.4637 107.2 58.9361 107.42 59.2927C107.538 59.5115 107.684 59.6947 107.863 59.7686C108.404 59.9917 108.446 59.2763 108.486 58.9162C108.557 58.2541 108.537 57.5594 108.245 56.9478C108.065 56.5812 107.724 56.2069 107.32 56.5393ZM108.849 52.3908C108.517 52.3489 108.33 52.6039 108.234 52.942C108.11 53.3338 108.065 53.7461 108.1 54.1553C108.129 54.4018 108.18 54.828 108.455 54.9367C108.73 55.0454 108.953 54.7563 109.051 54.5354C109.232 54.1298 109.587 52.4902 108.849 52.3922V52.3908ZM103.685 69.752C103.423 70.2869 102.888 69.8437 102.459 69.3258C102.473 68.7085 102.476 67.9562 102.449 67.1585C102.49 67.1926 102.53 67.2231 102.564 67.2544C102.992 67.6342 103.329 68.1058 103.549 68.6339C103.762 69.0019 103.856 69.4039 103.685 69.752ZM106.135 69.5133L105.353 69.7975C104.887 69.4878 104.454 68.6609 104.359 68.3633C104.288 68.1317 104.26 67.7673 104.546 67.6685C104.833 67.5698 105.146 67.8589 105.328 68.0237C105.624 68.3094 105.86 68.651 106.023 69.0289C106.103 69.1763 106.141 69.3424 106.135 69.5098V69.5133ZM104.129 51.115C104.453 51.0958 104.756 51.5568 104.897 51.7941C105.126 52.1927 105.271 52.6335 105.323 53.0898C105.356 53.3533 105.453 53.906 105.206 54.1056C104.909 54.345 104.624 54.0701 104.413 53.6943C103.979 53.1871 103.778 52.4363 103.783 51.8012C103.784 51.5668 103.812 51.1349 104.129 51.1143V51.115ZM106.554 60.6658C106.128 60.984 106.31 61.6063 106.476 62.0155C106.748 62.6636 107.201 63.2199 107.78 63.6181C108.023 63.7829 108.387 63.981 108.646 63.8866C108.911 63.8376 109.027 63.5783 108.995 63.2394C108.924 62.5085 108.488 61.8805 108.012 61.3492C107.69 60.9847 107.109 60.2538 106.554 60.6651V60.6658ZM109.253 60.7837C109.537 61.7377 110.067 62.1405 110.319 62.0311C110.81 61.8116 110.723 60.9727 110.539 60.3561C110.397 59.8744 109.91 59.0696 109.539 59.1442C109.232 59.2053 108.989 59.8986 109.253 60.783V60.7837ZM99.3997 44.0902C99.2938 44.4958 99.0317 44.9078 98.8378 45.1735C98.6439 45.4392 98.3675 45.7631 98.0401 45.94C97.9825 45.3781 97.9207 44.7274 97.8632 44.0391C98.0305 43.876 98.208 43.7237 98.3945 43.583C98.6787 43.3614 99.2257 42.9018 99.4402 43.4466C99.5084 43.6214 99.4778 43.853 99.3997 44.0881V44.0902ZM100.99 43.7713C101.517 43.8622 101.843 43.2989 102.018 42.8982C102.3 42.2543 102.39 41.5428 102.279 40.8488C102.23 40.559 102.122 40.1591 101.875 40.0369C101.657 39.8785 101.389 39.973 101.165 40.2308C100.683 40.7842 100.531 41.5351 100.474 42.2461C100.438 42.727 100.31 43.6512 100.992 43.7691L100.99 43.7713ZM99.2143 41.7361C98.7575 42.5367 98.0869 42.84 97.8312 42.6596C97.785 42.6254 97.7505 42.5778 97.7325 42.5232C97.7325 42.5232 97.7325 42.5232 97.7325 42.5196C97.719 42.3868 97.7083 42.2504 97.6948 42.114V42.1041C97.7405 41.752 97.8503 41.4113 98.0188 41.0989C98.3391 40.5405 98.8875 39.8998 99.3848 40.1044C99.6348 40.2081 99.7059 40.8687 99.2157 41.734L99.2143 41.7361ZM113.583 60.5102C113.328 60.8434 113.449 61.2859 113.691 61.6731C113.861 61.9694 114.077 62.2369 114.331 62.4658C114.496 62.6079 114.763 62.7571 114.936 62.5369C115.119 62.3003 114.974 61.8493 114.877 61.6134C114.746 61.3037 114.085 59.8467 113.581 60.5081L113.583 60.5102ZM106.905 49.0734C106.621 49.2624 106.592 49.6367 106.676 50.0018C106.727 50.2754 106.821 50.5391 106.954 50.7832C107.042 50.9381 107.209 51.1242 107.403 50.9964C107.609 50.8628 107.616 50.475 107.606 50.2661C107.592 49.9976 107.474 48.6934 106.906 49.0677L106.905 49.0734Z" fill="#1A2E35"/>
<path d="M94.9258 41.3661C96.1292 41.0819 97.1421 37.9194 97.199 36.2216C97.199 36.1051 96.7507 35.5475 96.0439 34.428C95.6177 33.7474 95.1588 32.9788 94.7908 32.2479L90.7659 35.6704C90.7659 35.6704 91.9878 36.976 92.6214 38.2547C92.6712 38.356 92.7111 38.4618 92.7407 38.5708C92.7464 38.585 92.7507 38.6035 92.7592 38.6234C92.9553 39.2399 93.7636 41.6424 94.9258 41.3661Z" fill="#FF9581"/>
<path d="M93.2778 39.2882C93.1961 39.3329 93.1144 39.3706 93.0362 39.4075C92.9069 39.0772 92.811 38.7874 92.7606 38.6261C92.7535 38.6055 92.75 38.5856 92.7436 38.5721C92.713 38.4631 92.673 38.3568 92.6242 38.2546C91.9906 36.976 90.7673 35.6724 90.7673 35.6724L94.7944 32.2485C94.8725 32.4019 94.9507 32.5554 95.0359 32.7124C95.5026 34.3895 96.0375 37.8234 93.2778 39.2882Z" fill="#1A2E35"/>
<path d="M92.8523 27.3137C94.1743 28.6826 95.7087 33.8036 95.0885 35.4367C94.1899 37.8036 91.5268 39.3437 89.2145 37.994C86.9734 36.6819 85.0944 29.9733 85.8957 28.3672C87.0792 25.9995 90.8988 25.292 92.8523 27.3137Z" fill="#FF9581"/>
<path d="M89.7516 32.6528C89.7516 32.6393 89.7836 32.6592 89.7886 32.6734C89.9022 33.0151 90.0905 33.3873 90.4371 33.3837C90.4478 33.3837 90.4535 33.4015 90.4414 33.4036C90.0521 33.4917 89.8049 32.9952 89.7516 32.6528Z" fill="#1A2E35"/>
<path d="M89.9235 32.1888C90.4513 31.9473 90.896 33.0213 90.4065 33.2451C89.9171 33.4689 89.4838 32.3912 89.9235 32.1888Z" fill="#1A2E35"/>
<path d="M87.8422 33.4604C87.8344 33.4483 87.8223 33.4867 87.8287 33.5002C87.9765 33.8284 88.0915 34.2297 87.8358 34.4641C87.828 34.4719 87.8358 34.4883 87.8465 34.4819C88.1924 34.278 88.0354 33.7474 87.8422 33.4604Z" fill="#1A2E35"/>
<path d="M87.401 33.2394C86.8491 33.4199 87.2511 34.5103 87.7626 34.3426C88.274 34.175 87.8642 33.0839 87.401 33.2394Z" fill="#1A2E35"/>
<path d="M90.0748 31.3215C89.917 31.3429 89.7581 31.3562 89.5989 31.3613C89.4163 31.3741 89.2721 31.4032 89.1059 31.3088C89.0628 31.2771 89.0311 31.2322 89.0158 31.1809C89.0004 31.1297 89.0021 31.0748 89.0207 31.0246C89.1166 30.8115 89.3361 30.7405 89.5556 30.7163C89.7757 30.6837 90.0002 30.7344 90.185 30.8584C90.3796 30.977 90.2865 31.2811 90.0748 31.3215Z" fill="#1A2E35"/>
<path d="M86.6153 32.5035C86.7471 32.4155 86.8742 32.3207 86.9961 32.2194C87.1381 32.1079 87.2681 32.0333 87.3292 31.8521C87.341 31.7991 87.3348 31.7437 87.3117 31.6946C87.2885 31.6455 87.2497 31.6055 87.2014 31.5808C86.9882 31.4863 86.7751 31.5808 86.5968 31.7065C86.4111 31.8292 86.2777 32.0166 86.2225 32.2322C86.16 32.4517 86.4292 32.6165 86.6153 32.5035Z" fill="#1A2E35"/>
<path d="M91.4124 35.4345C91.3649 35.5453 91.33 35.686 91.2135 35.7457C91.0886 35.7945 90.9547 35.8165 90.8207 35.8103C90.8179 35.8099 90.815 35.8106 90.8126 35.8121C90.8102 35.8136 90.8084 35.8159 90.8076 35.8187C90.8067 35.8214 90.8068 35.8243 90.808 35.827C90.8091 35.8296 90.8111 35.8317 90.8136 35.833C90.8883 35.8787 90.9739 35.9033 91.0615 35.9043C91.149 35.9053 91.2352 35.8827 91.3109 35.8387C91.4529 35.7499 91.4714 35.5894 91.4529 35.4367C91.448 35.4146 91.4196 35.4182 91.4124 35.4345Z" fill="#1A2E35"/>
<path d="M90.6509 34.5828C90.6209 34.7494 90.5568 34.908 90.4625 35.0486C90.3682 35.1892 90.2459 35.3087 90.1032 35.3998C89.9796 35.4812 89.8449 35.5444 89.7033 35.5873C89.6768 35.5976 89.6495 35.6055 89.6216 35.6107C89.596 35.6178 89.5733 35.6235 89.5442 35.6292C89.525 35.6332 89.5051 35.6307 89.4875 35.6223C89.47 35.6138 89.4556 35.5997 89.4468 35.5823C89.4418 35.571 89.4382 35.559 89.4362 35.5468L89.4248 35.517C89.3119 35.2641 89.1755 34.8641 89.1755 34.8641C89.1044 34.9494 88.713 35.3614 88.6654 35.2243C88.2733 34.0877 87.8372 32.8268 87.6866 31.6142C87.6858 31.6063 87.6879 31.5984 87.6925 31.5918C87.697 31.5853 87.7038 31.5806 87.7115 31.5787C87.7192 31.5767 87.7274 31.5776 87.7346 31.5811C87.7417 31.5846 87.7474 31.5906 87.7505 31.5979C88.171 32.6741 88.3991 33.8164 88.8033 34.9046C88.9318 34.7839 89.1357 34.5736 89.2714 34.521C89.3119 34.5161 89.5207 35.2982 89.5804 35.4083C89.5824 35.4124 89.5851 35.4163 89.5882 35.4196C90.0407 35.2968 90.3113 35.0325 90.6097 34.5672C90.6239 34.5367 90.6594 34.5487 90.6509 34.5828Z" fill="#1A2E35"/>
<path d="M94.7333 32.245C93.7494 32.4261 92.9446 30.0486 92.9446 30.0486C92.9446 30.0486 91.6262 29.9939 90.54 27.9494C90.54 27.9494 90.442 30.3483 86.3752 31.161C86.3752 31.161 85.8431 30.3121 85.9902 29.0299C85.9902 29.0299 85.7728 29.9477 85.6961 31.4622C85.6961 31.4622 83.6921 28.517 86.0903 26.4584C87.0443 25.6394 88.7542 25.1797 91.7199 25.6017C91.7199 25.6017 91.7071 23.9132 92.0666 24.0169C92.426 24.1206 92.3294 25.7345 92.3294 25.7345C92.3294 25.7345 93.336 25.0192 93.6024 25.1911C93.8304 25.3396 92.8444 25.9782 92.8444 25.9782C92.8444 25.9782 94.739 25.9604 95.1041 28.0318C95.4387 29.9335 95.2192 32.1569 94.7333 32.245Z" fill="#1A2E35"/>
<path d="M92.5255 26.0542C93.0145 25.8745 93.5523 25.8802 94.0374 26.0701C94.5224 26.2601 94.9211 26.621 95.1581 27.0849C95.4238 27.617 95.482 28.2662 95.4778 28.853C95.4728 29.4959 95.3357 30.1032 95.1737 30.7213C95.1645 30.7546 95.1127 30.7347 95.1226 30.7007C95.2796 30.1473 95.3137 29.5513 95.2938 28.9773C95.2753 28.4382 95.2228 27.8507 95.031 27.3435C94.6495 26.3348 93.569 25.8304 92.5447 26.1138C92.5099 26.121 92.4936 26.0648 92.5255 26.0542Z" fill="#1A2E35"/>
<path d="M88.1469 25.1833C88.863 25.1152 89.5848 25.1406 90.2944 25.2586C90.9664 25.3623 91.6441 25.5186 92.245 25.8418C92.2484 25.8431 92.2515 25.8451 92.2542 25.8476C92.2568 25.8501 92.259 25.8531 92.2604 25.8564C92.2619 25.8597 92.2627 25.8633 92.2628 25.867C92.2629 25.8706 92.2623 25.8743 92.261 25.8777C92.2597 25.8811 92.2577 25.8842 92.2552 25.8868C92.2527 25.8895 92.2497 25.8916 92.2464 25.8931C92.243 25.8946 92.2395 25.8954 92.2358 25.8955C92.2322 25.8956 92.2285 25.895 92.2251 25.8936C90.9976 25.4788 89.6444 25.3964 88.3558 25.4454C87.1482 25.4937 85.8468 25.9235 85.3012 27.0956C85.3005 27.0976 85.2993 27.0995 85.2979 27.1011C85.2964 27.1027 85.2946 27.104 85.2926 27.105C85.2907 27.1059 85.2885 27.1064 85.2863 27.1065C85.2842 27.1066 85.282 27.1063 85.2799 27.1055C85.2779 27.1048 85.276 27.1036 85.2744 27.1022C85.2728 27.1007 85.2715 27.0989 85.2705 27.0969C85.2696 27.0949 85.2691 27.0928 85.269 27.0906C85.2689 27.0884 85.2692 27.0863 85.27 27.0842C85.7111 25.8979 86.9606 25.3154 88.1469 25.1833Z" fill="#1A2E35"/>
<path d="M93.8085 31.8096C93.8085 31.8096 94.136 29.7602 95.0161 29.805C95.8963 29.8497 96.1669 32.4574 95.4992 33.1564C94.8315 33.8554 94.1722 33.2502 94.1722 33.2502L93.8085 31.8096Z" fill="#FF9581"/>
<path d="M95.0743 30.5543C95.0769 30.5531 95.0799 30.5529 95.0827 30.5537C95.0854 30.5544 95.0879 30.556 95.0896 30.5583C95.0913 30.5606 95.0922 30.5634 95.0922 30.5663C95.0921 30.5692 95.0911 30.5719 95.0892 30.5742C94.6303 31.0828 94.5863 31.759 94.6424 32.4104C94.7134 32.1164 94.8846 31.8883 95.2661 31.953C95.2867 31.9565 95.2839 31.9871 95.2661 31.9913C95.0075 32.0546 94.8584 32.1774 94.7909 32.4417C94.753 32.6342 94.7361 32.8302 94.7404 33.0263C94.7404 33.0903 94.6332 33.108 94.6239 33.0398V33.0242C94.256 32.3018 94.3277 31.0075 95.0743 30.5543Z" fill="#1A2E35"/>
<path d="M101.533 41.0627C103.258 47.1136 104.355 58.5106 103.48 60.5799C102.705 62.4119 96.8687 66.6727 93.513 68.9487C92.4205 69.6896 87.1261 61.3222 88.3359 60.5955C89.9825 59.6053 95.8934 55.6983 96.0383 55.2771C96.1968 54.8132 96.7224 46.2903 97.6267 41.3803C98.4465 36.9291 100.88 38.7739 101.533 41.0627Z" fill="#FF9581"/>
<path d="M77.1682 70.4624C77.9937 71.3063 79.901 69.0943 79.901 69.0943C79.901 69.0943 79.7071 69.8863 80.1049 70.5612C80.5602 71.334 81.9717 70.959 81.9717 70.959C81.9717 70.959 81.9418 71.8015 82.4334 72.472C82.9442 73.1682 84.4224 72.9927 84.4224 72.9927C84.4224 72.9927 84.8252 73.7926 85.6663 74.0675C87.104 74.537 88.7777 72.921 90.0116 72.1254C91.3335 71.2729 93.1698 69.4821 93.829 68.5402L88.8636 60.4612C88.8636 60.4612 81.831 62.2123 80.6497 63.4952C79.6552 64.5742 75.9066 69.171 77.1682 70.4624Z" fill="#FF9581"/>
<path d="M79.8939 69.0517C80.6753 67.648 81.7913 66.4347 82.8774 65.2754C82.8826 65.2707 82.8894 65.2682 82.8964 65.2683C82.9034 65.2684 82.9101 65.2712 82.9151 65.2761C82.9202 65.2809 82.9232 65.2875 82.9236 65.2945C82.924 65.3015 82.9217 65.3084 82.9172 65.3137C81.8204 66.4539 80.9992 67.9151 79.9529 69.0964C79.9462 69.1016 79.938 69.1043 79.9296 69.1044C79.9212 69.1044 79.913 69.1017 79.9063 69.0966C79.8996 69.0915 79.8947 69.0843 79.8925 69.0762C79.8903 69.0681 79.8908 69.0595 79.8939 69.0517Z" fill="#1A2E35"/>
<path d="M81.9185 70.8417C82.1046 70.5299 82.393 70.2805 82.653 70.0305C82.9324 69.7615 83.2166 69.497 83.5055 69.237C84.0832 68.7161 84.6731 68.2108 85.275 67.7211C85.302 67.6991 85.3417 67.7346 85.3148 67.7595C84.7408 68.2787 84.1739 68.8065 83.6227 69.3493C83.3461 69.6216 83.0719 69.8955 82.8001 70.1711C82.5472 70.4276 82.3028 70.7195 81.9959 70.9156C81.9855 70.9219 81.9733 70.9247 81.9612 70.9233C81.9491 70.922 81.9377 70.9168 81.9289 70.9083C81.9201 70.8999 81.9143 70.8888 81.9124 70.8768C81.9105 70.8648 81.9127 70.8524 81.9185 70.8417Z" fill="#1A2E35"/>
<path d="M84.446 72.9678C84.5973 72.6901 84.9106 72.4763 85.1464 72.2724C85.414 72.0408 85.6806 71.8078 85.9463 71.5734C86.4769 71.1046 87.0068 70.6357 87.5204 70.1484C87.546 70.1243 87.5858 70.1619 87.5602 70.1868C87.0409 70.684 86.5281 71.1891 86.0045 71.6785C85.7469 71.9205 85.4883 72.1614 85.2288 72.401C85.0072 72.6041 84.7543 72.8833 84.4687 72.9927C84.4654 72.9935 84.4619 72.9934 84.4586 72.9925C84.4553 72.9915 84.4523 72.9896 84.45 72.987C84.4476 72.9845 84.446 72.9814 84.4453 72.978C84.4446 72.9746 84.4449 72.9711 84.446 72.9678Z" fill="#1A2E35"/>
<path d="M104.614 55.0313L95.2235 55.1471C95.2235 55.1471 96.4311 44.7928 97.7268 40.2863C98.8165 36.4994 101.086 36.846 102.332 41.7362C103.508 46.3649 104.614 55.0313 104.614 55.0313Z" fill="#FFC800"/>
<path d="M104.442 53.7434L104.411 53.6922C103.978 53.1879 103.778 52.4349 103.781 51.8012C103.781 51.5881 103.808 51.1981 104.065 51.1235C104.22 52.1557 104.346 53.065 104.442 53.7434ZM97.1351 45.1082C97.3766 44.4746 97.8632 43.978 98.3939 43.5752C98.678 43.3572 99.2271 42.8947 99.4388 43.4396C99.5098 43.62 99.4772 43.8523 99.4004 44.0888C99.2939 44.4937 99.0332 44.905 98.8385 45.1729C98.5423 45.5813 98.0387 46.1269 97.4768 46.0615C96.9561 45.999 96.9916 45.4939 97.1351 45.1082ZM100.474 42.244C100.531 41.5337 100.682 40.7821 101.164 40.2287C101.387 39.9709 101.654 39.8736 101.875 40.0348C102.121 40.157 102.23 40.5569 102.278 40.8468C102.39 41.5407 102.299 42.2522 102.017 42.8961C101.838 43.2968 101.516 43.8601 100.99 43.7692C100.31 43.6513 100.438 42.7271 100.476 42.244H100.474ZM97.8284 42.661C97.518 42.4436 97.7666 41.5379 98.0159 41.0982C98.3356 40.5392 98.8826 39.8977 99.3798 40.1037C99.6313 40.2081 99.7045 40.8688 99.2108 41.7375C98.7547 42.5367 98.0863 42.8393 97.8305 42.661H97.8284ZM97.275 52.2772C97.2211 52.5272 97.0832 52.9804 96.7977 53.0706C96.5284 53.1559 96.3928 52.8824 96.3388 52.6707C96.262 52.3384 96.238 51.9961 96.2677 51.6563C96.2883 51.1996 96.4404 50.7669 96.8403 50.6377C97.6288 50.3784 97.3439 51.9525 97.275 52.2772Z" fill="#1A2E35"/>
<path d="M96.4715 53.1907C97.0682 53.087 97.6791 53.087 98.2723 53.0543C98.8931 53.0209 99.5119 53.0102 100.131 52.996C100.751 52.9818 103.219 53.0237 103.834 53.0344C103.862 53.0344 103.857 53.0834 103.829 53.0855C103.209 53.1204 100.747 53.2596 100.14 53.2695C99.5325 53.2795 98.9251 53.2958 98.3192 53.2866C97.7132 53.2773 97.0739 53.3043 96.4722 53.2205C96.4587 53.2191 96.4552 53.1935 96.4715 53.1907Z" fill="#1A2E35"/>
<path d="M102.721 43.4318L102.999 44.8745L103.265 46.3201C103.44 47.2843 103.611 48.2487 103.78 49.2134C103.948 50.1781 104.106 51.1451 104.252 52.1145L104.361 52.8419C104.397 53.0844 104.431 53.3269 104.463 53.5693L104.512 53.9337L104.554 54.2989C104.585 54.5418 104.6 54.7869 104.619 55.0313V55.0391H104.615L103.67 55.0433L104.614 55.0234L104.607 55.032C104.521 54.0566 104.367 53.0884 104.217 52.1195C104.066 51.1506 103.896 50.1866 103.734 49.2205C103.572 48.2544 103.404 47.2897 103.236 46.3244L102.721 43.4318Z" fill="#1A2E35"/>
<path d="M103.143 43.9488C103.16 44.0966 103.174 44.2458 103.182 44.3942C103.191 44.5427 103.194 44.6926 103.197 44.8417C103.2 44.9909 103.197 45.1401 103.187 45.2893C103.177 45.4384 103.164 45.5869 103.143 45.7347C103.151 45.5862 103.156 45.437 103.16 45.2886C103.163 45.1401 103.165 44.9909 103.16 44.8417C103.155 44.6926 103.16 44.5441 103.153 44.3956L103.143 43.9488Z" fill="#1A2E35"/>
<path d="M49.5984 125.855C49.5984 125.855 55.4234 124.534 58.62 121.593C61.8167 118.651 63.5926 113.38 63.5926 113.38C63.5926 113.38 60.1637 114.008 57.0572 115.096C56.5365 115.653 55.5435 116.801 55.081 117.89C55.081 117.89 54.983 116.742 55.0654 115.893C54.235 116.276 53.5118 116.698 52.9911 117.152C50.3465 119.469 49.5984 125.855 49.5984 125.855Z" fill="#FFC800"/>
<path d="M59.9562 115.942C60.7504 115.392 61.5588 114.862 62.3494 114.308C62.3597 114.302 62.367 114.291 62.3697 114.28C62.3725 114.268 62.3704 114.255 62.364 114.245C62.3576 114.235 62.3474 114.228 62.3356 114.225C62.3238 114.222 62.3114 114.224 62.3011 114.231C60.8001 115.127 59.3176 116.085 57.8884 117.089C57.3911 117.439 56.8996 117.803 56.4144 118.175L56.516 118.002C56.6907 117.709 56.8754 117.422 57.0594 117.135C57.4261 116.551 57.8408 115.999 58.299 115.484C58.316 115.465 58.2869 115.437 58.2705 115.457C57.8173 115.979 57.3641 116.497 56.95 117.052C56.7532 117.316 56.5707 117.589 56.3966 117.868C56.3057 118.01 56.2183 118.16 56.1345 118.309C56.1068 118.358 56.0755 118.408 56.0471 118.459C55.2941 119.05 54.5603 119.666 53.8606 120.32C53.4287 120.722 53.0115 121.138 52.609 121.569C52.8342 120.865 53.0309 120.149 53.2923 119.457C53.3016 119.434 53.2625 119.424 53.254 119.448C53.0004 120.176 52.7226 120.907 52.5266 121.656C52.0805 122.138 51.6535 122.637 51.2479 123.157C51.255 123.126 51.2614 123.094 51.2692 123.062C51.3355 122.787 51.4049 122.514 51.4774 122.241C51.6194 121.714 51.7736 121.191 51.9519 120.674C52.3163 119.616 52.7894 118.58 53.5147 117.718C53.531 117.699 53.5019 117.672 53.4856 117.691C52.349 119.041 51.6805 120.654 51.2543 122.35C51.1927 122.598 51.1336 122.847 51.0767 123.097C51.0469 123.229 51.0121 123.364 50.9893 123.499C50.8139 123.737 50.6406 123.977 50.475 124.224C49.4642 125.729 48.6757 127.374 48.0108 129.054C47.2621 130.95 46.6796 132.909 46.1433 134.874C46.1326 134.913 46.1909 134.926 46.2029 134.889C47.3395 131.48 48.5059 128.023 50.4566 124.976C50.8679 124.333 51.314 123.713 51.7864 123.115C52.7515 123.051 53.7041 122.86 54.6193 122.547C55.6203 122.211 56.575 121.75 57.4607 121.176C57.9736 120.845 58.441 120.458 58.9156 120.077C58.9182 120.076 58.9205 120.074 58.9223 120.071C58.9242 120.069 58.9254 120.066 58.9261 120.063C58.9267 120.06 58.9267 120.058 58.9261 120.055C58.9254 120.052 58.9241 120.049 58.9223 120.047C58.9204 120.044 58.9181 120.043 58.9155 120.041C58.9128 120.04 58.9099 120.039 58.9069 120.039C58.904 120.039 58.9011 120.04 58.8984 120.041C58.8957 120.042 58.8933 120.044 58.8914 120.046C58.1036 120.713 57.1567 121.234 56.2212 121.662C55.2794 122.094 54.2942 122.424 53.2824 122.648C52.8519 122.741 52.4158 122.81 51.9796 122.87C52.5189 122.206 53.0922 121.571 53.6972 120.966C53.894 120.77 54.0979 120.583 54.2996 120.393C54.9688 119.904 55.7104 119.519 56.4534 119.159C57.4075 118.698 58.3473 118.209 59.2949 117.728C59.8277 117.458 60.3604 117.18 60.8946 116.918C60.9174 116.907 60.8946 116.873 60.874 116.884C59.9165 117.346 58.944 117.779 57.9772 118.221C57.0679 118.638 56.1473 119.056 55.2778 119.547C55.2401 119.568 55.2068 119.591 55.1677 119.612C55.9562 118.925 56.7731 118.27 57.6092 117.64C58.3764 117.062 59.1599 116.494 59.9562 115.942Z" fill="#1A2E35"/>
<path d="M59.6245 118.945C59.1514 119.153 58.6683 119.337 58.1995 119.556C57.7171 119.781 57.2604 120.046 56.8029 120.316C56.7823 120.328 56.8029 120.357 56.8214 120.347C57.2859 120.125 57.7562 119.916 58.2165 119.685C58.6768 119.453 59.1535 119.195 59.6372 118.983C59.6593 118.973 59.6486 118.935 59.6245 118.945Z" fill="#1A2E35"/>
<path d="M30.6744 96.4979C30.6744 96.4979 32.3082 98.3704 32.4155 101.335C32.4339 101.858 32.3515 102.586 32.2912 103.442C34.4634 104.602 36.093 106.691 36.093 106.691C34.8591 105.949 33.1649 105.65 32.2514 105.767C32.2811 106.353 32.3554 106.935 32.4737 107.508C32.8772 107.485 33.6565 107.539 34.9444 107.997C34.9444 107.997 33.6799 107.965 32.7167 108.44C33.7552 111.743 36.8417 115.138 45.3654 116.578C45.3654 116.578 47.0098 110.792 43.8558 104.584C41.3014 99.5645 30.6744 96.4979 30.6744 96.4979Z" fill="#FFC800"/>
<path d="M48.3155 130.72C48.1678 129.308 47.9838 127.901 47.7636 126.498C47.3316 123.69 46.7578 120.905 46.0445 118.155C45.7107 116.864 45.2998 115.594 44.8141 114.353C44.8383 114.126 44.8489 113.898 44.8461 113.67C44.8518 113.397 44.8518 113.124 44.8461 112.851C44.8404 112.306 44.8144 111.761 44.768 111.217C44.6823 110.139 44.5072 109.07 44.2444 108.021C44.0889 107.413 43.9077 106.813 43.7294 106.215C43.7287 106.212 43.7274 106.21 43.7258 106.208C43.7241 106.206 43.7221 106.204 43.7198 106.203C43.7175 106.202 43.7149 106.201 43.7123 106.201C43.7097 106.2 43.7071 106.201 43.7046 106.201C43.702 106.202 43.6997 106.203 43.6976 106.205C43.6956 106.207 43.6939 106.209 43.6927 106.211C43.6914 106.213 43.6906 106.216 43.6903 106.218C43.6901 106.221 43.6903 106.224 43.6911 106.226C43.993 107.265 44.1663 108.346 44.3204 109.416C44.4725 110.475 44.5674 111.543 44.6046 112.612C44.6155 112.905 44.6212 113.198 44.6216 113.492C44.6216 113.615 44.616 113.742 44.6117 113.868C44.193 112.849 43.7134 111.857 43.1753 110.895C42.3099 109.372 41.3349 107.913 40.2579 106.531C40.2553 106.37 40.2314 106.209 40.1869 106.054C40.1471 105.863 40.1059 105.674 40.0632 105.486C39.9759 105.096 39.8778 104.709 39.7727 104.324C39.5596 103.552 39.2811 102.805 39.0396 102.043C39.0381 102.038 39.0346 102.034 39.03 102.031C39.0253 102.029 39.0198 102.028 39.0148 102.029C39.0097 102.031 39.0054 102.034 39.0029 102.039C39.0003 102.044 38.9998 102.049 39.0013 102.054C39.2264 102.809 39.3756 103.592 39.5489 104.359C39.6342 104.74 39.7173 105.12 39.8011 105.501C39.843 105.691 39.8835 105.881 39.9226 106.069C39.9226 106.083 39.9283 106.098 39.9304 106.112C39.5856 105.677 39.234 105.249 38.8755 104.827C37.2474 102.918 35.4658 101.157 33.6672 99.4089C33.4462 99.1958 33.2196 98.9827 32.9959 98.7696C32.9774 98.7518 32.9511 98.7795 32.9682 98.798C34.6851 100.589 36.3779 102.4 37.9755 104.296C38.3544 104.747 38.7287 105.203 39.0986 105.664C38.9046 105.533 38.7093 105.405 38.5168 105.279C38.0195 104.954 37.5187 104.64 37.0016 104.349C36.4844 104.058 35.963 103.776 35.4317 103.513C34.8854 103.242 34.3008 103.021 33.7737 102.714C33.751 102.701 33.7311 102.74 33.7545 102.749C34.298 102.972 34.8059 103.312 35.3095 103.611C35.8288 103.918 36.3466 104.228 36.856 104.551C37.3653 104.874 37.8604 105.183 38.3577 105.506C38.7725 105.775 39.181 106.069 39.6107 106.318C40.5997 107.588 41.5116 108.916 42.3414 110.296C42.8579 111.163 43.329 112.057 43.7529 112.973C43.6506 112.929 43.5483 112.885 43.4474 112.84L42.666 112.494C42.1688 112.271 41.6616 112.054 41.1586 111.835C40.2025 111.42 39.2314 111.038 38.2937 110.581C37.7649 110.332 37.2537 110.048 36.7636 109.729C36.7423 109.715 36.7238 109.75 36.7444 109.764C38.4919 110.971 40.4518 111.818 42.3854 112.676L43.2244 113.047C43.4545 113.149 43.6854 113.26 43.9233 113.353C44.4959 114.634 44.9775 115.953 45.3647 117.302C46.1404 120.009 46.7321 122.772 47.2187 125.548C47.7082 128.332 48.0378 131.135 48.2942 133.949C48.3262 134.304 48.3574 134.651 48.3972 135.002C48.4135 135.144 48.621 135.144 48.6195 134.997C48.611 133.57 48.4647 132.14 48.3155 130.72Z" fill="#1A2E35"/>
<path d="M43.1298 107.18C42.9735 106.314 42.7426 105.467 42.5096 104.619C42.5081 104.614 42.5047 104.609 42.5 104.607C42.4953 104.604 42.4899 104.604 42.4848 104.605C42.4797 104.607 42.4754 104.61 42.4729 104.615C42.4704 104.62 42.4698 104.625 42.4713 104.63C42.6844 105.463 42.8414 106.312 42.9977 107.157C43.1577 108.018 43.2984 108.883 43.4196 109.751C43.4196 109.766 43.4445 109.766 43.4431 109.751C43.3874 108.889 43.2828 108.031 43.1298 107.18Z" fill="#1A2E35"/>
<path d="M39.4565 109.532C38.879 109.124 38.2304 108.814 37.6025 108.489C37.2921 108.329 36.9774 108.176 36.6627 108.024C36.348 107.872 36.0013 107.736 35.6795 107.574C35.6568 107.562 35.6376 107.597 35.6604 107.609C35.9722 107.765 36.2677 107.955 36.5739 108.121C36.88 108.288 37.204 108.469 37.5201 108.639C38.1438 108.973 38.7561 109.345 39.4103 109.616C39.4215 109.622 39.4346 109.624 39.4467 109.62C39.4589 109.617 39.4692 109.608 39.4753 109.597C39.4815 109.586 39.4829 109.573 39.4794 109.561C39.4759 109.549 39.4676 109.538 39.4565 109.532Z" fill="#1A2E35"/>
<path opacity="0.1" d="M49.7036 115.764C49.7036 115.764 55.0938 114.476 57.5694 110.863C59.9328 107.41 60.695 101.522 60.7575 101.005C60.6602 101.48 59.5499 106.625 55.878 109.022C53.0692 110.855 50.3542 112.364 49.7036 115.764Z" fill="#1A2E35"/>
<path d="M54.6797 106.45C53.7314 107.364 53.0196 108.439 52.6907 109.723C52.6907 109.735 52.7042 109.74 52.7077 109.729C53.1126 108.532 53.7811 107.353 54.7046 106.48C54.7244 106.462 54.6982 106.432 54.6797 106.45Z" fill="#1A2E35"/>
<path d="M49.7036 115.764C49.7036 115.764 55.0938 114.476 57.5694 110.863C59.9328 107.41 60.695 101.522 60.7575 101.005C60.7625 100.981 60.7639 100.968 60.7639 100.968C60.7639 100.968 58.1789 104.644 55.4611 105.581C52.7432 106.518 48.9222 109.757 49.7036 115.764Z" fill="#FFC800"/>
<path d="M59.8092 102.993C59.3119 103.973 58.7855 104.946 58.1427 105.842C57.5137 106.702 56.7675 107.47 55.9256 108.124C55.1932 108.705 54.4189 109.233 53.678 109.803C53.6837 109.794 53.6887 109.784 53.6944 109.776C53.8365 109.569 53.9821 109.369 54.1355 109.173C54.4445 108.778 54.7819 108.406 55.1215 108.036C55.7914 107.31 56.4747 106.597 57.075 105.81C57.4089 105.376 57.6985 104.909 57.9395 104.418C57.9509 104.395 57.9132 104.382 57.9018 104.405C57.0281 106.227 55.2813 107.393 54.0354 108.931C53.8579 109.15 53.6919 109.377 53.5381 109.613C53.4145 109.783 53.3103 109.967 53.2277 110.16C52.5447 110.707 51.9273 111.33 51.3878 112.019C51.4339 111.665 51.5051 111.315 51.6009 110.972C51.7253 110.493 51.9166 110.033 52.1692 109.607C52.1827 109.585 52.1493 109.563 52.1366 109.585C51.8751 110.011 51.6641 110.467 51.5079 110.942C51.394 111.32 51.3281 111.711 51.3118 112.105C51.0451 112.468 50.8017 112.848 50.583 113.242C50.6057 113.127 50.627 113.011 50.654 112.896C50.7606 112.359 50.8792 111.823 51.0184 111.294C51.3026 110.22 51.6826 109.178 52.3149 108.256C52.3298 108.236 52.2964 108.214 52.2822 108.234C51.6637 109.151 51.18 110.152 50.8458 111.206C50.6739 111.735 50.5361 112.271 50.4146 112.816C50.3557 113.081 50.3024 113.347 50.252 113.614C50.2257 113.752 50.1951 113.893 50.1731 114.035C49.6226 115.2 49.2354 116.45 48.93 117.689C48.3802 119.923 48.0371 122.221 47.7806 124.509C47.5022 126.911 47.3778 129.328 47.4084 131.746C47.4134 132.049 47.4311 132.352 47.4482 132.655C47.4524 132.733 47.5696 132.744 47.5732 132.662C47.6258 131.465 47.657 130.268 47.7281 129.074C47.7991 127.879 47.9028 126.684 48.0307 125.492C48.2762 123.15 48.6511 120.823 49.1538 118.523C49.5913 116.552 50.1582 114.568 51.2351 112.84C51.7703 111.981 52.425 111.202 53.1794 110.527C53.9352 109.848 54.7621 109.254 55.5584 108.625C56.3547 107.996 57.1133 107.32 57.7413 106.527C58.4197 105.674 58.9539 104.711 59.4561 103.744C59.5833 103.5 59.7133 103.258 59.8426 103.014C59.8539 102.992 59.8205 102.97 59.8092 102.993Z" fill="#1A2E35"/>
<path d="M58.8785 103.783C58.5254 104.509 58.1244 105.211 57.678 105.883C57.6674 105.899 57.6915 105.915 57.7029 105.9C58.1648 105.233 58.5706 104.53 58.9162 103.796C58.9275 103.773 58.8892 103.761 58.8785 103.783Z" fill="#1A2E35"/>
<path d="M29.9229 113.38C29.9229 113.38 29.8369 121.041 34.4181 123.254C38.9992 125.466 41.4506 123.623 44.5663 124.365C44.564 124.364 44.562 124.362 44.5606 124.36C44.4398 124.178 42.2164 120.985 38.6859 120.105C35.0517 119.197 31.0247 116.572 29.9229 113.38Z" fill="#FFC800"/>
<path opacity="0.1" d="M29.9229 113.38C29.9229 113.38 29.8369 121.041 34.4181 123.254C38.9992 125.466 41.4506 123.623 44.5663 124.365C44.564 124.364 44.562 124.362 44.5606 124.36C44.432 124.298 42.1596 123.161 39.3529 122.824C36.4653 122.474 30.9501 120.592 29.9229 113.38Z" fill="black"/>
<path d="M44.8681 124.498C44.3227 124.002 43.7092 123.587 43.0461 123.265C42.948 123.218 42.8464 123.18 42.747 123.137C42.6987 123.076 42.6468 123.018 42.5928 122.961C42.4557 122.819 42.313 122.681 42.1617 122.552C41.8743 122.303 41.5652 122.081 41.2382 121.887C40.4795 121.441 39.6484 121.129 38.872 120.714C38.85 120.702 38.8301 120.738 38.8528 120.749C39.2364 120.948 39.6079 121.168 39.9808 121.388C40.3538 121.608 40.7154 121.802 41.0684 122.028C41.3866 122.232 41.6895 122.459 41.9748 122.707C42.0551 122.778 42.1325 122.854 42.21 122.932C41.7034 122.761 41.1864 122.624 40.6621 122.521C39.8239 122.351 38.9757 122.231 38.1389 122.053C37.7282 121.965 37.3225 121.856 36.9235 121.725C36.5434 121.419 36.1641 121.115 35.8039 120.783C35.3679 120.385 34.9713 119.945 34.6197 119.47C34.6048 119.45 34.5707 119.47 34.5864 119.491C35.1547 120.22 35.7577 120.956 36.4638 121.563C36.2671 121.492 36.071 121.408 35.8785 121.32C34.3221 120.61 32.9369 119.49 31.9751 118.073C31.9609 118.052 31.9268 118.073 31.9417 118.094C32.7742 119.311 33.8492 120.343 35.0992 121.125C35.7253 121.516 36.3947 121.833 37.0939 122.069C37.9016 122.339 38.7384 122.496 39.5731 122.656C40.3907 122.808 41.2119 122.965 42.0011 123.233C42.7319 123.481 43.4189 123.842 44.037 124.304C45.2155 125.187 46.1276 126.395 46.7811 127.708C47.6485 129.447 48.0598 131.391 48.2928 133.308C48.3027 133.391 48.4292 133.391 48.4235 133.308C48.2118 130.085 47.3501 126.734 44.8681 124.498Z" fill="#1A2E35"/>
<path d="M39.5526 122.001C39.3238 121.635 38.9807 121.361 38.6106 121.148C38.178 120.898 37.7902 120.629 37.4911 120.225C37.4755 120.204 37.4414 120.225 37.457 120.245C37.7318 120.597 38.0666 120.896 38.4458 121.131C38.8458 121.382 39.2492 121.628 39.5234 122.023C39.5362 122.035 39.5639 122.019 39.5526 122.001Z" fill="#1A2E35"/>
<path d="M41.9826 130.153L42.1907 134.365L42.8301 147.235H52.4384L53.0777 134.365L53.2859 130.153H41.9826Z" fill="#375A64"/>
<path d="M41.9826 130.153L42.1907 134.365H53.0777L53.2859 130.153H41.9826Z" fill="#1A2E35"/>
<path d="M41.3085 132.413H53.9594V128.395H41.3085V132.413Z" fill="#375A64"/>
</svg>
