<svg width="160" height="132" viewBox="0 0 160 132" fill="none" xmlns="http://www.w3.org/2000/svg">
<path d="M108.097 77.8968C108.625 77.0352 109.636 76.7586 110.32 76.0561C110.878 75.4812 111.003 74.9966 110.687 74.2932C110.338 73.5166 110.027 72.7192 109.753 71.9128C109.56 71.3442 109.36 70.8876 108.633 70.8939C108.223 70.8939 108.154 70.4962 108.032 70.1788C107.369 68.4484 106.814 66.672 105.876 65.0564C106.132 64.7481 105.893 64.4679 105.825 64.1776C105.705 63.9001 105.48 63.675 105.413 63.3685C105.273 63.0282 105.091 62.7069 104.87 62.412C103.482 60.433 101.897 58.6611 99.7021 57.5346C99.137 57.2444 98.5828 56.9099 97.9009 57.0645C97.4382 57.2751 97.3576 57.7479 97.152 58.1394C95.7991 60.7612 94.2605 63.2166 91.4741 64.5809C88.2141 66.1774 84.3944 65.4596 81.9105 62.7971C80.6662 61.4637 79.7905 59.9114 79.0869 58.2479C78.9284 57.8718 78.8152 57.465 78.4929 57.1802C77.9251 56.8773 77.4868 57.2209 77.0548 57.4957C74.368 59.1999 72.1467 61.3479 70.6869 64.2129C70.3147 64.7326 70.0064 65.295 69.7687 65.8881C69.5124 66.4252 69.1909 66.935 69.0442 67.5155C68.7816 68.1736 68.461 68.8055 68.2519 69.4881C68.097 69.9935 67.8543 70.4672 67.2213 70.5377C66.9895 70.564 66.7577 70.6743 66.6662 70.8795C66.0749 72.2012 65.3649 73.494 65.2662 74.9722C65.211 75.8021 65.8494 76.3029 66.3737 76.8372C66.7966 77.2676 67.3273 77.5542 67.7882 77.933C70.1843 79.8315 72.7416 81.4362 75.7572 82.1821C76.4508 82.239 76.3911 82.8529 76.5088 83.2742C77.6009 87.0478 78.4639 90.8746 79.1739 94.7368C79.2644 95.2512 79.3432 95.7711 79.5723 96.252C80.256 97.2962 81.3771 97.5078 82.4701 97.732C84.2369 98.0936 86.0272 98.0348 87.8129 97.9471C89.1251 97.5539 90.4916 97.9264 91.8255 97.6398C93.1413 97.3577 94.4851 97.2067 95.7755 96.7945C96.5353 96.5522 97.1212 96.1471 97.315 95.3244C98.0766 91.2272 99.0926 87.1879 99.99 83.1142C100.067 82.7643 100.053 82.3475 100.513 82.2101C103.131 81.4498 105.482 80.1597 107.703 78.6146C107.935 78.461 108.206 78.2693 108.097 77.8968Z" fill="#FEFEFE"/>
<path d="M70.9215 64.3657C72.4385 61.6005 74.6686 59.2907 77.3808 57.6756C77.6978 57.4849 77.9867 57.2236 78.3933 57.2417C78.6957 57.3963 78.9819 57.2941 79.2526 57.163C82.0264 55.8123 84.2332 53.9762 84.7648 50.7116C84.8671 50.086 85.0455 49.4731 85.0618 48.833C85.3987 47.8602 85.3335 46.8693 85.204 45.8758C85.0854 45.3659 84.6878 45.0703 84.3292 44.7421C83.8312 44.2901 83.2661 43.9076 82.807 43.4113C81.6171 42.1248 80.7441 40.7434 80.62 38.8774C80.3275 34.4936 81.3671 30.6504 84.6579 27.5676C85.4078 26.866 86.2391 26.2468 87.2515 26.0623C88.3228 25.867 88.6578 25.1917 88.7185 24.265C88.7502 23.7832 88.809 23.3058 88.8679 22.7562C88.8824 22.6784 89.1142 22.8511 88.9675 22.8194C88.9628 22.8178 88.9577 22.8171 88.9527 22.8175C88.9477 22.8179 88.9428 22.8194 88.9384 22.8217C88.934 22.8241 88.9301 22.8274 88.927 22.8314C88.9239 22.8353 88.9217 22.8399 88.9204 22.8448C88.6352 23.5771 88.7846 24.3753 88.5645 25.1275C88.4296 25.5904 88.8018 25.8987 89.2093 26.056C92.3498 27.2638 93.9445 29.8467 95.0909 32.766C95.9349 34.9167 96.1649 37.1868 95.9965 39.4985C95.858 41.4459 94.7731 42.8119 93.3758 44.0288C92.7066 44.6128 91.8282 44.9717 91.3981 45.8206C91.1862 46.7482 91.2532 47.6649 91.5085 48.5735C91.6613 49.9056 92.0047 51.209 92.5282 52.4438C93.5777 54.8667 95.3871 56.4506 97.9444 57.1639C100.443 58.0083 102.348 59.6338 103.921 61.6924C104.168 62.0151 104.425 62.3316 104.677 62.6507C105.13 62.4825 105.061 62.0992 105.039 61.7466C105.003 61.2428 105.062 60.7366 105.214 60.2549C104.81 56.673 104.279 53.1074 103.765 49.54C103.141 45.2004 102.375 40.8781 101.421 36.5956C101.108 35.3724 100.708 34.1682 100.495 32.9224C100.544 32.8651 100.589 32.8047 100.63 32.7415C99.5572 29.524 98.0041 26.5342 95.858 23.9296C92.2439 19.5467 85.0718 19.4997 81.2186 23.7036C79.9534 25.0875 78.9692 26.7034 78.3208 28.4617C76.7578 32.6584 75.5444 36.9671 74.349 41.2795C74.4178 41.4251 74.4767 41.5815 74.6859 41.5553C75.0282 41.1882 74.8425 40.6575 75.0816 40.427C74.9295 41.2958 74.4903 42.2532 74.2385 43.2658C73.0178 48.6214 72.0335 54.0241 71.1343 59.4358C70.9106 60.7838 70.6099 62.1318 70.571 63.5095C70.5764 63.8504 70.322 64.2753 70.9215 64.3657Z" fill="#6A3326"/>
<path d="M125.443 51.8964C125.789 51.7118 126.036 52.0124 126.193 52.2849C126.537 52.8885 126.974 53.4242 127.352 54.0034C130.73 59.1926 132.867 64.9442 134.668 70.8439C134.943 71.7467 135.133 72.6754 135.41 73.5842C135.473 73.7903 135.516 74.0635 135.756 74.1047C136.04 74.1535 136.194 73.8971 136.322 73.685C136.659 73.1485 136.864 72.5378 136.922 71.9039C137.165 68.6225 136.863 65.4601 134.933 62.6625C134.697 62.3222 134.462 61.9841 134.637 61.5339C134.702 60.3075 134.998 59.1361 135.44 57.9983C135.439 57.8936 135.445 57.7888 135.456 57.6847C135.545 56.8216 135.999 56.1432 136.633 55.5564C136.664 55.5425 136.694 55.5264 136.723 55.5083C136.85 55.4336 136.945 55.3142 136.992 55.1725C137.041 54.9893 137.04 54.7957 136.988 54.6131L136.979 54.5727C136.916 54.2859 136.895 53.9912 136.917 53.6982V53.6944C136.953 53.2655 137.04 52.8427 137.176 52.4352C137.181 52.4177 137.187 52.3993 137.193 52.3818C137.237 52.2424 137.283 52.1048 137.332 51.9689C137.92 50.3343 138.873 48.902 139.826 47.4666C139.907 47.3256 139.996 47.1904 140.095 47.0621C140.188 46.937 140.288 46.8179 140.39 46.7004C140.593 46.4714 140.805 46.2479 141.001 46.0136C141.111 45.8783 141.21 45.7344 141.297 45.5832C141.367 45.4644 141.447 45.3522 141.537 45.2482C141.866 44.8819 142.162 44.3568 142.716 44.4545C143.27 44.5522 143.376 45.1368 143.516 45.619C143.551 45.7404 143.499 45.5908 143.533 45.7129C143.544 45.7312 143.555 45.7503 143.565 45.7694C143.934 46.4348 144.008 47.2193 144.328 48.0732C144.595 47.6016 144.822 47.1073 145.006 46.5958C145.461 45.4298 145.901 44.2454 146.506 43.1618C147.331 41.6882 148.292 40.294 149.192 38.8647C149.731 38.0123 150.38 37.2492 151.06 36.5204C151.386 36.1732 151.83 35.8153 152.084 36.5273C152.098 36.5677 152.112 36.6112 152.125 36.6585C152.076 37.021 151.862 37.3011 151.643 37.5628C149.897 39.6522 148.596 42.0232 147.519 44.5148C146.204 47.5673 144.613 50.5503 144.827 54.0538C144.853 54.4788 144.704 54.8779 144.339 55.1267C143.7 55.5617 143.766 56.1028 144.068 56.6957C144.08 56.7132 144.091 56.7308 144.101 56.7476C144.308 57.0925 144.22 57.4344 144.048 57.7679C143.73 58.3906 143.542 59.056 143.406 59.7405C143.005 61.7506 142.256 63.663 141.827 65.6722C141.654 66.4827 141.357 67.2878 141.189 68.1218C141.026 68.9346 140.905 69.7412 140.936 70.6966C141.508 68.102 142.298 65.7012 143.205 63.3569C145.324 57.8935 147.656 52.5232 150.201 47.246C150.719 46.1677 151.156 45.0505 151.726 43.9997C151.845 43.7799 152.021 43.5159 152.297 43.6052C152.63 43.7135 152.574 44.0485 152.54 44.3317C152.519 44.4567 152.483 44.5785 152.432 44.6941C150.858 48.6807 149.252 52.6496 147.547 56.5797C147.238 57.2924 146.851 57.9777 146.67 58.7424C146.649 58.8286 146.631 58.9164 146.617 59.0056L146.612 59.0324C145.944 60.657 145.472 62.3672 144.768 63.9651C143.595 66.6261 142.287 69.2184 142.056 72.1908C141.972 72.1353 141.878 72.0957 141.779 72.074C141.756 73.4579 141.612 74.8369 141.349 76.1949L141.34 76.2277C141.157 76.8992 140.975 77.5708 140.792 78.2423C141.242 77.6906 141.392 77.0373 141.542 76.3818C141.873 75.3745 142.205 74.3672 142.537 73.3599C142.493 73.229 142.459 73.0948 142.436 72.9585C142.582 72.5548 142.643 72.1191 142.801 71.7222C145.461 64.9503 148.705 58.5127 153.178 52.7717C153.41 52.4741 153.649 52.1811 153.981 51.9941C154.116 51.9178 154.27 51.8476 154.414 51.9575C154.425 51.9656 154.435 51.9742 154.445 51.9834C154.458 51.9959 154.469 52.0097 154.479 52.0247C154.554 52.1292 154.534 52.262 154.5 52.3894C154.436 52.6382 154.295 52.8473 154.159 53.0587C153.243 54.4888 152.232 55.8532 151.329 57.2932C151.315 57.3138 151.303 57.3344 151.29 57.355L151.232 57.4497C150.299 58.9759 149.329 60.4838 148.551 62.1047C148.54 62.1268 148.529 62.1489 148.519 62.1718C148.509 62.1947 148.491 62.2283 148.478 62.2573C148.289 62.7579 148.028 63.2211 147.79 63.6973C146.611 66.0507 145.341 68.3668 144.674 70.9469C144.644 71.0591 144.616 71.1713 144.589 71.285C144.224 71.8741 143.984 72.5197 143.739 73.1691C143.065 74.9662 142.482 76.7962 141.961 78.6437C140.543 83.6765 139.299 88.7443 138.852 93.9885C138.753 95.1499 138.87 96.3274 138.627 97.4736C138.615 97.5324 138.601 97.5911 138.587 97.6499C137.821 98.3733 137.1 98.3718 136.507 97.6438C136.726 93.2684 136.649 88.8828 136.276 84.5182C136.223 83.9874 136.065 83.4731 135.812 83.0064C134.596 80.6408 133.878 78.1111 133.542 75.4661C133.479 75.3215 133.442 75.1663 133.433 75.0082C133.429 74.8617 133.469 74.7365 133.589 74.6862C134.36 74.3603 134.024 73.7979 133.911 73.3347C133.581 71.987 133.112 70.6798 132.705 69.3543C131.247 64.5985 129.25 60.0877 126.955 55.7006C126.444 54.7238 125.865 53.7875 125.353 52.813C125.194 52.5069 125.039 52.1132 125.443 51.8964ZM139.926 81.9251C140.218 81.226 140.402 80.4856 140.473 79.7296C140.043 80.4325 139.921 81.0056 139.747 81.5565C138.827 83.5101 138.247 85.5354 138.604 87.7614L139.926 81.9251Z" fill="#214F14"/>
<path d="M137.663 52.0618C138.209 50.2457 139.306 48.731 140.313 47.1669C140.412 46.8187 140.536 46.4783 140.685 46.1485C140.959 45.5395 141.215 44.8872 140.647 44.2768C140.598 44.3529 140.566 44.4762 140.496 44.5052C140.214 44.6315 140.377 44.3681 140.376 44.3232C140.36 42.5246 140.285 40.7314 139.801 38.9868C139.578 38.1815 139.458 37.2925 138.486 36.9614C138.162 36.8511 138.366 36.59 138.382 36.3967C138.635 33.2904 137.914 30.3981 136.395 27.7006C135.858 26.7506 135.195 25.9126 133.978 25.8342C133.635 25.8121 133.626 25.5518 133.547 25.3128C132.378 21.8154 129.95 19.3257 127.083 17.1944C126.802 16.9859 126.415 16.6304 126.38 17.4076C126.281 19.6149 126.223 21.8222 126.759 23.9862C126.947 24.7473 127.161 25.5282 127.959 25.9149C128.351 26.1044 128.082 26.3282 128.005 26.5322C127.622 27.5413 127.578 28.6486 127.878 29.6856C128.005 30.1423 128.167 30.7413 128.574 30.8707C129.482 31.1592 129.193 31.727 129.124 32.3238C128.805 35.0525 129.265 37.7279 129.777 40.3873C130.724 45.3112 131.969 50.1498 134.146 54.6969C134.477 55.4108 134.888 56.0846 135.371 56.7056C135.583 56.9712 135.704 57.2254 135.623 57.5603C135.85 56.6827 136.456 56.0297 136.933 55.3005C137.164 55.0516 137.22 54.7502 137.198 54.4244C136.687 46.9705 135.809 39.5699 133.5 32.4334C132.061 27.9966 130.068 23.786 128.054 20.0731C128.486 20.682 129.015 21.7431 129.616 22.7615C130.221 23.7936 130.735 24.8706 131.244 25.953C132.668 28.9831 133.678 32.151 134.499 35.3912C135.808 40.5594 136.638 45.8052 137.174 51.105C137.208 51.4727 137.081 51.9644 137.663 52.0618Z" fill="#568F34"/>
<path d="M151.858 14.4352C152.836 12.0103 154.176 9.77347 155.372 7.46709C156.551 5.21344 157.825 3.01251 158.867 0.687788C158.95 0.501321 159.133 0.333195 158.995 0C157.881 0.615189 156.786 1.23267 155.679 1.8257C155.068 2.15278 155.604 2.52877 155.612 2.87725C155.617 3.20509 155.947 3.59255 155.601 3.84015C155.255 4.08776 154.928 3.74539 154.729 3.51078C154.092 2.75574 153.492 2.96819 152.82 3.44123C151.651 4.26352 150.477 5.08199 149.269 5.83932C148.662 6.22143 148.64 6.54851 149.054 7.09033C149.279 7.3815 149.721 7.81633 149.404 8.1266C149.087 8.43687 148.586 8.09909 148.208 7.89734C147.708 7.62375 147.236 7.12625 146.705 7.83238C145.474 9.06276 144.11 10.1502 142.999 11.5105C142.634 11.9568 142.496 12.2656 142.9 12.7952C143.274 13.2904 143.991 14.0003 143.555 14.4932C143.152 14.9518 142.495 14.1875 141.991 13.8765C141.706 13.7015 141.505 13.6113 141.333 13.9812C139.009 18.9891 137.497 24.0688 140.086 29.4847C140.605 30.5707 141.334 31.5106 142.379 32.1457C142.865 31.7926 142.88 31.2195 142.983 30.709C143.725 27.0171 144.736 23.4138 146.134 19.9184C147.662 16.0973 149.623 12.5262 151.886 9.11931C152.492 8.20761 153.094 7.29209 153.51 6.71587C150.811 10.624 148.419 15.1673 146.339 19.8671C144.707 23.559 143.698 27.4856 142.948 31.4686C142.878 31.8423 142.829 32.2244 143.098 32.5561C144.057 33.0398 144.701 32.4246 145.295 31.8324C146.149 30.9826 146.696 29.9073 147.174 28.8046C148.279 26.2529 148.999 23.5644 149.818 20.9111C150.348 19.1924 150.848 17.4622 151.552 15.8069C151.74 15.3614 151.811 14.9044 151.858 14.4352Z" fill="#568F34"/>
<path d="M134.917 97.4662C134.221 98.4543 133.402 98.0222 132.589 97.6696C131.712 98.0195 130.836 98.0158 129.88 97.9896C127.06 97.9128 124.208 97.5376 121.417 98.3259C121.151 98.8837 121.551 99.2526 121.835 99.6097C123.325 101.485 124.701 103.443 126.115 105.374C126.834 106.356 127.849 107.021 128.849 107.675C129.788 108.29 130.697 108.96 131.674 109.507C133.201 110.361 134.052 111.637 134.311 113.328C134.61 115.281 135.119 117.21 134.968 119.214C134.928 119.736 134.943 120.263 134.661 120.734C134.458 121.257 134.17 121.736 133.912 122.231C133.767 122.511 133.376 122.857 133.912 123.164C135.888 123.232 137.84 122.909 139.799 122.778C141.282 122.679 141.594 122.341 141.951 120.874C142.03 120.55 142.27 120.384 142.422 120.138C142.665 119.732 142.738 119.266 142.896 118.829C142.692 117.788 143.209 117.049 143.927 116.394C143.365 115.771 143.403 115.079 143.555 114.298C144.113 111.436 144.541 108.55 145.026 105.675C145.236 104.44 145.466 103.284 147.105 103.318C147.286 103.318 147.437 103.16 147.52 102.978C147.525 102.786 147.391 102.676 147.273 102.559C146.951 101.514 147.213 100.444 147.13 99.3945C147.09 98.8892 147.239 98.3549 146.89 97.8974C146.797 97.8164 146.681 97.7653 146.559 97.751C145.437 97.977 144.316 97.7157 143.214 97.6289C140.852 97.4481 138.496 97.5105 136.137 97.5448C135.725 97.5448 135.326 97.449 134.917 97.4662Z" fill="#F8DCC6"/>
<path d="M134.903 120.83C135.382 120.551 135.306 120.076 135.329 119.632C135.465 117.068 134.972 114.578 134.375 112.111C134.27 111.635 134.069 111.186 133.785 110.789C133.501 110.393 133.14 110.058 132.723 109.804C131.386 108.984 130.097 108.081 128.785 107.227C127.577 106.444 126.512 105.479 125.689 104.203C124.378 102.171 122.852 100.278 121.417 98.3269C118.248 94.6528 115.211 90.8567 111.85 87.3435C110.722 86.1682 110.656 84.4767 110.137 83.0121C109.626 81.5656 109.231 80.0865 108.79 78.6192C108.681 78.2576 108.609 77.8689 108.096 77.896C105.795 79.6689 103.234 80.9608 100.514 81.957C100.224 82.3548 100.537 82.6695 100.685 82.9823C101.57 84.8482 102.315 86.7793 102.805 88.7683C103.455 91.4136 105.077 93.3501 106.946 95.1754C108.419 96.6128 110.089 97.8288 111.526 99.3033C112.852 99.7147 113.778 100.755 114.863 101.524C117.185 103.166 119.488 104.834 121.863 106.406C122.95 107.129 123.842 108 124.277 109.267C125.335 110.867 125.807 112.649 125.93 114.54C125.946 114.801 125.93 115.063 125.95 115.324C125.997 116.01 126.16 116.622 127.022 116.602C127.884 116.582 128.005 115.943 128.049 115.271C128.085 114.712 128.029 114.148 128.109 113.592C128.193 113.018 128.374 112.465 129.007 112.3C129.64 112.136 130.172 112.324 130.613 112.834C131.967 114.405 132.527 116.27 132.67 118.287C132.696 118.659 132.676 119.035 132.687 119.408C132.736 121.087 133.248 121.412 134.903 120.83Z" fill="#F7A9A0"/>
<path d="M64.6287 48.9062C65.1793 47.9335 65.8322 46.9914 65.9871 45.8614C66.0577 45.3605 66.3104 44.6978 65.6131 44.3751C64.9158 44.0523 64.2176 44.1409 63.6344 44.6734C62.7515 45.4807 62.3014 46.5403 61.9546 47.6568C61.9211 47.7626 61.893 47.8684 61.864 47.9778C61.1523 48.06 61.1631 47.3332 60.9712 47.0258C60.369 46.0648 59.3258 45.3985 59.0586 44.2232C58.0553 43.6419 57.2276 42.7866 56.1291 42.3491C55.2444 42.1918 54.3596 42.2767 53.4767 42.3491C53.0375 42.3861 52.5956 42.5028 52.189 42.2279C51.7091 41.9178 51.4301 42.3292 51.134 42.5579C50.3933 43.1284 49.8155 43.857 49.2323 44.6743C49.0512 44.102 49.1925 43.5795 49.2142 43.0588C49.2342 42.5904 49.3501 42.0815 48.8593 41.7442C48.7687 42.1294 48.6854 42.5145 48.5686 43.0362C47.4321 40.6169 46.206 38.3983 43.7483 37.2275C43.3761 37.0277 42.9695 36.8659 42.6326 37.2194C42.2957 37.5729 42.6471 37.8785 42.7431 38.2193C42.8699 38.6713 43.0084 39.1405 42.859 39.6206C43.032 40.8058 43.9113 41.6231 44.3423 42.5678C43.3462 42.1945 42.552 41.1846 41.3096 41.0635C40.9636 41.4251 40.5326 41.1964 40.1423 41.2217C39.6234 41.2551 39.0774 41.1512 38.6028 41.3926C37.9771 41.7072 37.1902 42.0037 37.1539 42.8011C37.115 43.6428 37.988 43.6952 38.5576 43.9764C38.9651 44.2575 39.5292 44.0614 39.9159 44.4194C41.2987 45.0947 42.8572 45.4084 44.1521 46.4454C43.3933 46.9408 42.8173 47.2373 42.0105 46.4806C41.5794 46.0756 40.7427 45.4807 40.1151 46.0385C39.5718 46.5222 40.0554 47.2789 40.2365 47.9045C40.3823 48.4063 40.9211 48.8131 40.6132 49.4261C40.769 50.2479 41.3295 50.8726 41.6582 51.5307C40.9935 50.7894 40.6023 49.6928 39.4677 49.3221C38.3004 48.1107 37.1014 46.9489 35.3718 46.5638C34.0252 46.2637 33.0834 46.6479 32.551 47.7391C32.0185 48.8303 32.3065 49.7488 33.4076 50.6493C34.1937 51.2912 35.1282 51.6166 36.0636 51.9891C34.4798 52.1437 32.9105 52.1193 31.39 52.5749C29.5191 53.1345 28.2477 54.5639 28.159 56.2816C28.0992 57.4343 28.542 57.7579 29.683 57.3032C31.1727 56.7092 32.6134 55.9878 34.1203 55.4426C35.504 54.9427 36.8787 54.327 38.5576 54.3125C37.9554 55.1361 37.4274 55.8341 36.9276 56.5528C36.7211 56.8512 36.4159 57.2191 36.6849 57.5645C36.9348 57.8863 37.3749 57.7317 37.7444 57.6829C38.2288 57.6187 38.7269 57.1857 39.1933 57.7254C40.7617 57.0835 42.3437 56.4714 43.7618 55.5177C43.9746 55.1081 43.7926 54.6244 44.0109 54.2149C44.1164 53.5958 44.1561 52.9673 44.1295 52.3399C44.0897 52.084 43.9484 51.8517 43.9366 51.5877C43.9094 51.0452 43.6043 50.3428 44.1295 50.0336C44.6547 49.7244 45.3774 49.813 45.9506 50.124C46.4151 50.378 46.8562 50.6402 47.4049 50.6005C47.7509 50.6534 48.1033 50.6497 48.4481 50.5896C48.9915 50.5471 49.5239 50.4178 50.06 50.3184C51.1811 49.917 52.4145 49.9839 53.512 49.4776C54.0481 49.2299 54.7273 49.0825 54.7119 48.3376C54.6965 47.5538 54.078 47.3259 53.4124 47.2111C53.2322 47.1645 53.0606 47.0891 52.9044 46.9878C52.7431 46.922 52.5696 46.8912 52.3955 46.8974C51.9961 46.911 51.6321 47.0909 51.2581 47.1686C52.0378 46.2863 53.167 45.95 54.1387 45.3605C54.5172 45.1309 54.9075 45.0667 55.1067 45.6154C55.6552 46.2022 56.1199 46.8618 56.4877 47.5755C56.8065 48.0166 57.6487 48.2191 57.5164 48.7697C57.3842 49.3203 56.5602 49.0988 56.0612 49.2841C55.3675 49.5427 54.6902 49.8266 54.0871 50.265C52.9651 51.3273 52.8637 52.6355 53.1643 54.0422C53.5655 54.9526 54.26 55.137 55.1565 54.8559C55.7904 54.6606 56.4098 54.4472 57.0292 54.223C57.3127 54.223 57.5939 54.1725 57.8597 54.0739C59.218 53.5513 59.2841 53.5866 60.2005 55.3784C60.3771 55.6638 60.5826 55.9304 60.8136 56.174C61.1686 56.551 61.2881 57.3077 62.0452 57.0781C62.728 56.8683 63.3926 56.5772 63.5149 55.7292C63.5991 54.789 63.1155 53.903 63.2505 52.9583C63.4053 51.67 69.0099 51.6926 67.7421 51.3942C68.4584 51.0959 62.3992 50.4196 62.8584 50.2298C63.0205 49.606 63.2957 50.397 63.6426 49.6937C64.0202 50.1222 63.9296 49.4984 64.6287 48.9062Z" fill="#FFC727"/>
<path d="M133.782 75.6185C133.913 75.4049 133.507 74.8091 134.258 75.018C134.76 75.158 134.756 74.6849 134.668 74.3004C134.281 72.6255 133.762 70.9917 133.285 69.3445C132.578 66.9038 131.683 64.5485 130.743 62.2146C129.352 58.7277 127.713 55.3545 125.84 52.1233C125.706 51.8954 125.322 51.6011 125.643 51.3843C125.978 51.1588 126.059 51.6478 126.185 51.8732C126.973 53.2791 127.885 54.602 128.716 55.9786C129.756 57.7002 130.46 59.5847 131.333 61.3767C132.288 63.3341 132.835 65.5058 133.584 67.5747C134.367 69.7441 134.872 71.9997 135.484 74.2205C135.688 74.9594 136.024 74.9325 136.479 74.4721C137.225 73.7205 137.47 72.7196 137.544 71.7164C137.744 69.0138 137.43 66.3769 136.427 63.8436C136.039 62.8649 135.23 62.1695 134.885 61.1742C134.488 61.7177 134.099 60.9606 133.677 61.2596C133.712 60.652 134.468 60.4281 134.188 59.8055C133.724 58.7769 133.367 57.678 132.536 56.8687C132.125 56.4675 131.784 56.8774 131.41 56.943C131.138 56.9905 130.803 57.1527 130.596 56.943C130.369 56.7128 130.583 56.3829 130.709 56.1519C131.076 55.4699 130.95 54.8765 130.609 54.2167C129.903 52.8527 128.951 51.6818 128.063 50.4555C127.759 50.0401 127.431 50.0488 126.842 50.4745C127.312 49.5172 127.018 49.0551 126.545 48.5844C125.768 47.8122 124.952 47.097 124.019 46.5503C123.185 46.0629 122.94 46.1927 122.93 47.1611C122.909 48.976 123.253 50.7308 123.755 52.4658C123.977 53.2285 124.552 53.1557 125.166 53.257C124.529 54.0054 124.728 54.7602 124.938 55.5324C125.396 57.2334 125.958 58.9018 126.622 60.527C127.001 61.459 127.356 62.2446 128.665 61.6433C127.26 62.7937 127.962 64.0263 128.286 65.2439C128.665 66.6641 129.06 68.0771 129.712 69.3912C130.289 70.5542 131.065 71.5187 132.328 71.8929C132.312 71.9997 132.323 72.0748 132.292 72.112C131.293 73.3193 131.277 73.3455 132.61 74.143C133.2 74.4934 133.72 74.84 133.782 75.6185Z" fill="#2C6D14"/>
<path d="M57.8722 94.7521C56.9032 94.7521 55.9343 94.7521 54.9653 94.7521C54.6031 94.7521 54.1883 94.8335 54.0742 94.3164C52.7159 94.4068 51.3014 94.0316 50.0055 94.744C46.7455 94.744 43.4855 94.7711 40.2254 94.7377C39.4458 94.7295 39.1388 94.9637 39.1976 95.7556C39.252 96.4626 39.2067 97.1768 39.2103 97.8883C39.2103 98.6821 38.9676 99.6503 40.3504 99.4741C40.6031 99.4424 40.7425 99.6549 40.7733 99.9071C41.006 101.795 41.649 103.614 41.7151 105.529C42.1679 107.291 42.6442 109.055 42.5881 110.898C43.5271 110.543 44.1846 109.778 45.0068 109.252C45.5963 108.29 46.6214 107.855 47.5161 107.306C48.3945 106.764 49.1353 106.142 49.646 105.273C49.9286 104.791 50.3904 104.573 50.7925 104.258C52.341 102.559 53.4901 100.552 54.9481 98.7969C55.7912 97.7798 56.8117 96.8984 57.5797 95.7954C57.7907 95.4835 58.2434 95.2304 57.8722 94.7521Z" fill="#F8DCC6"/>
<path d="M34.4979 74.0745C34.7813 73.9452 35.0639 73.448 35.3482 74.0745C36.2148 72.8847 37.2861 71.883 38.323 70.8488C38.6644 70.508 39.0329 70.2069 39.4893 70.0288C39.6836 69.9376 39.8543 69.803 39.9883 69.6355C40.0906 69.4791 40.116 69.2866 40.2156 69.1311C40.5353 68.6347 40.8703 67.9766 41.4544 67.9829C41.8837 67.9883 41.9317 68.736 42.1517 69.1491C42.7231 70.2241 43.1759 71.3966 44.5062 71.8053C44.9166 71.8457 45.3264 71.7226 45.6463 71.4626C45.8075 71.2959 45.9231 71.0906 45.9823 70.8665C46.0414 70.6424 46.042 70.4069 45.984 70.1825C45.7549 69.6862 45.5575 69.188 45.8699 68.6456C45.86 68.1031 45.5439 67.6647 45.3357 67.1991C45.0323 66.521 45.2152 66.0753 45.8401 65.7264C46.5527 65.3295 47.2536 64.9127 47.9835 64.5457C48.3901 63.8134 49.1001 63.2989 49.4487 62.5215C49.2169 61.2838 48.4427 60.679 47.2102 60.6076C45.7051 60.7612 44.8177 61.8398 43.913 62.9274C43.4168 62.2945 43.4946 61.5713 43.2284 60.9665C42.765 60.163 42.2384 59.3976 41.6536 58.6774C41.4103 58.3482 41.099 58.0751 40.7408 57.8764C40.4338 57.7191 40.1069 57.6052 39.7873 57.8013C39.3798 58.0482 39.665 58.3808 39.7085 58.6918C39.78 59.2135 40.1468 59.6294 40.1975 60.1528C40.2364 61.0849 41.075 61.6897 41.2244 62.724C39.8452 61.9356 38.7006 60.9158 37.2698 60.4069C36.2655 60.0452 35.2577 59.7812 34.2063 60.1465C33.4013 60.4258 32.857 61.0198 32.7674 61.8552C32.6668 62.7836 33.5208 62.8551 34.1257 63.0603C35.4333 63.5024 36.8315 63.6389 38.1102 64.2021C38.3212 64.4073 38.5068 64.6469 38.9442 64.7581C38.2677 64.7021 37.7172 64.8603 37.1802 64.6677C36.4132 64.5185 35.6507 64.3468 34.8791 64.2301C34.5676 64.1831 34.1972 64.1126 33.9817 64.4914C33.7499 64.901 33.9908 65.2192 34.2144 65.5031C34.7261 66.1522 35.4659 66.5147 36.3733 66.9993C34.6093 67.4459 32.9557 67.2895 31.4135 67.7967C30.1222 68.2216 28.8689 68.6781 28.1816 69.9664C28.0313 70.2485 27.7542 70.6327 27.9787 70.8886C28.2414 71.186 28.7032 71.0142 29.0156 70.8533C30.4121 70.1357 31.9517 69.7391 33.5217 69.6925C33.8531 69.6825 34.1855 69.6581 34.5178 69.641C34.6364 70.1065 34.0859 70.149 34.0551 70.4872C33.8106 70.9745 33.5815 71.4717 33.1142 71.8008C32.7592 72.4219 32.8815 73.1406 33.001 73.73C33.1767 74.5726 33.8839 74.4162 34.4979 74.0745Z" fill="#FFC727"/>
<path d="M50.0029 94.7422C50.9646 94.7422 51.9272 94.7314 52.8889 94.7576C53.358 94.7712 53.7673 94.7015 54.0716 94.3146C54.145 92.0029 53.9901 89.6921 53.9811 87.3859C53.9638 80.7536 53.981 74.0961 56.6479 67.821C56.7177 67.6565 56.8508 67.519 56.954 67.369C57.0088 67.4052 57.0751 67.4196 57.14 67.4094C57.2049 67.3992 57.2635 67.3651 57.3045 67.3138C57.4693 66.0716 57.232 65.7832 56.0448 65.7715C55.6917 65.8773 55.5404 66.1991 55.3294 66.455C54.7499 67.1619 54.5144 67.1665 54.0707 66.3338C52.514 63.4227 51.3169 60.3507 50.0989 57.2932C49.8435 56.6531 49.8888 55.9687 50.0509 55.3042C50.2945 54.2935 50.8795 53.5034 51.6519 52.8334C51.8566 51.9411 52.5946 51.2694 52.6915 50.331C52.4642 49.2172 51.9127 49.8654 51.4346 50.0986C50.9393 50.6311 50.5571 51.2513 50.0998 51.8164C49.8924 52.0876 49.9187 52.5342 49.4732 52.659C49.0946 52.2792 49.3102 51.7612 49.1616 51.3345C49.0711 50.8743 48.7831 50.5471 48.4309 50.265L47.2799 50.3192C47.0834 50.7098 46.2838 50.5516 46.4287 51.2568C47.614 52.3416 47.6566 53.733 47.4791 55.1822C48.1257 55.787 48.487 56.5238 48.5096 57.4089C48.0505 57.3303 48.0514 57.3293 47.7245 57.0581C46.4766 56.0239 45.2532 54.9526 43.7292 54.3197C43.3669 54.6877 43.5752 55.0611 43.7174 55.4335C44.507 56.6296 45.6145 57.5011 46.7058 58.3998C48.1094 59.5579 49.5836 60.6672 50.2538 62.468C50.6495 63.3784 50.9836 64.3042 50.999 65.314C51.3314 66.3628 51.8729 67.3762 51.5424 68.5388C51.8312 69.122 51.8928 69.7421 51.8919 70.3822C51.8919 72.9461 51.9625 75.5128 51.5641 78.0604C51.5089 78.4148 51.4092 78.79 51.6311 79.0549C51.1412 77.9791 50.7038 76.7866 49.858 75.8202C49.2241 75.6529 49.1127 76.0841 49.0312 76.5434C49.0077 76.7902 48.9515 77.0425 49.149 77.2522C50.2592 78.6372 50.4439 80.3613 50.9112 81.9877C51.4944 84.0209 50.8442 85.9864 50.6268 87.9672C50.3851 90.2165 50.0708 92.4658 50.0029 94.7422Z" fill="#BC9A5F"/>
<path d="M142.662 32.9191C142.572 32.3282 142.774 31.7637 142.903 31.2085C144.034 26.4887 145.363 21.8498 147.744 17.518C149.328 14.6341 150.888 11.7493 152.651 8.95791C153.322 7.89111 154.145 6.87095 154.531 5.64319C147.77 13.4965 143.725 22.5465 141.844 32.5513C141.353 36.0068 140.863 39.463 140.376 42.92C140.305 43.427 140.273 43.9386 140.224 44.4479C140.466 45.472 139.765 46.3918 139.869 47.4027C140.105 46.8172 140.715 46.5287 141.044 46.017C141.865 41.9636 141.992 37.8193 142.774 33.7604C142.83 33.4719 142.824 33.1835 142.662 32.9191Z" fill="#306B16"/>
<path d="M48.861 41.7424C49.1327 42.8571 48.372 44.0216 48.8411 44.8081L51.9952 42.1664C52.3936 41.7876 51.9952 41.2515 52.2578 40.8456C52.6526 37.27 51.1711 34.0769 48.7859 33.4766C49.0467 36.243 48.9018 38.9932 48.861 41.7424Z" fill="#789608"/>
<path d="M50.5271 62.4364C50.5017 61.0586 49.3662 60.4212 48.5539 59.6112C47.0434 58.1068 45.407 56.7345 43.7227 55.4236C42.2004 55.7273 41.016 56.852 39.4928 57.1702C39.3606 57.1983 39.2918 57.5319 39.1931 57.7208C39.3815 58.5824 39.7185 59.4047 40.1892 60.1509C40.4138 59.5597 39.8025 59.1465 39.855 58.5833C39.8731 58.3835 39.6458 58.143 39.9021 57.9866C40.1158 57.8555 40.3295 58.0047 40.5242 58.1077C41.2831 58.5073 41.6245 59.283 42.138 59.905C42.4431 60.2721 42.7067 60.6735 42.9892 61.0586C43.8042 60.245 43.95 58.9386 43.3152 57.6666C44.0715 58.2706 44.7689 58.9447 45.398 59.6799C45.8508 60.1907 46.2383 60.8552 47.0769 60.838C48.2378 60.8778 48.8219 61.6752 49.3408 62.5557C49.8217 63.2808 50.2029 63.1452 50.5271 62.4364Z" fill="#7A9507"/>
<path d="M63.2504 52.9546C62.7215 53.12 62.8329 53.5142 62.9787 53.8532C63.2314 54.4381 62.8592 55.127 63.312 55.6668C63.5356 55.881 63.7946 55.8105 64.0364 55.7246C64.5345 55.5438 64.6803 55.8774 64.8261 56.2291C66.0232 57.0256 67.3001 57.6286 68.7444 57.8175L70.2748 58.3988C70.4261 57.0427 69.5884 56.2291 68.8929 55.363C68.3858 54.7301 67.5971 54.3739 67.1724 53.657C66.409 52.8271 65.3803 52.9871 64.4168 52.9482C64.0228 52.932 63.8942 53.2836 63.8046 53.6127C63.3817 53.5883 63.4234 53.1815 63.2504 52.9546Z" fill="#7B9409"/>
<path d="M49.3508 76.783C49.397 76.4214 49.2394 75.9549 49.8298 75.8843C49.8896 75.7903 49.9211 75.6811 49.9204 75.5697C49.1751 73.4208 48.026 71.477 46.8225 69.5649C46.5734 69.1699 46.2873 68.7513 45.7421 68.679C45.0829 69.1518 45.0947 69.6119 45.7666 70.0613C46.0047 70.6209 46.0826 71.2275 46.3597 71.7853C46.5807 72.2319 46.1207 71.8622 46.0183 71.9607C45.4044 72.1614 44.8755 71.8414 44.3195 71.6895C43.2328 71.0295 42.1271 70.4238 41.0169 69.8099C40.6773 69.6237 40.3513 69.2802 39.8958 69.5478L39.4032 69.819C39.1958 70.3343 39.5173 70.5495 39.9166 70.723C40.5505 70.5648 40.767 70.8297 40.7824 71.459C40.8005 72.1723 40.6329 72.9208 41.0414 73.5916C41.3456 73.362 41.3782 73.0176 41.3583 72.693C41.3085 71.8793 41.5258 71.7464 42.2838 72.1252C42.9704 72.4614 43.55 72.9813 43.9582 73.6269C44.3666 72.6704 45.6298 72.7129 46.6975 73.7173C46.7509 73.7679 46.7953 73.8267 46.8442 73.8818C47.6139 73.9225 47.8521 74.4903 48.1482 75.0806C48.4634 75.699 48.428 76.5904 49.3508 76.783Z" fill="#AFA04D"/>
<path d="M100.645 32.7415L100.345 32.7659C100.454 33.9194 100.942 34.9817 101.16 36.1109C102.435 40.793 103.222 45.571 103.92 50.3644C104.333 53.2013 104.675 56.0482 105.047 58.8906C105.202 60.0731 105.112 61.2683 105.28 62.4499C105.364 63.0375 105.302 63.6487 105.628 64.1857L105.876 65.0563C106.216 65.0654 106.191 64.8538 106.173 64.6097C105.441 54.665 104.453 44.7574 101.519 35.1589C101.267 34.3407 100.937 33.547 100.645 32.7415Z" fill="#513327"/>
<path d="M64.8459 61.5161L65.1176 60.3743C65.1013 60.0036 65.0853 59.6329 65.0696 59.2623C65.2978 58.2967 64.9899 57.493 64.3243 56.7951C62.966 56.5745 61.3613 57.6368 61.1884 58.8618C61.4374 59.8165 61.355 60.886 62.151 61.6544C63.0602 61.8343 63.9875 62.3397 64.8459 61.5161Z" fill="#7B950A"/>
<path d="M43.9619 73.6287C43.8451 73.221 44.143 72.6704 43.6377 72.41C42.8881 72.016 42.1155 71.6673 41.324 71.3658C41.0125 71.2483 41.0306 71.6127 41.0288 71.8179C41.0225 72.41 41.0378 73.0031 41.0451 73.5962C41.3276 74.5337 41.2488 75.5652 41.7904 76.4358C42.0783 76.8987 42.2893 77.4204 42.8771 77.7919C43.4494 76.4313 43.6567 75.0156 43.9619 73.6287Z" fill="#78950B"/>
<path d="M63.8009 53.6073C64.5869 52.7358 65.4698 53.6073 66.302 53.4826C66.5737 53.4401 66.8789 53.5901 67.1687 53.6516L67.4059 53.4708C67.5209 53.243 67.7346 53.2213 67.9574 53.1833C69.026 53.0025 69.237 52.5505 68.7416 51.5497C68.6302 51.0506 68.3087 50.783 67.8143 50.7053C67.0527 50.5642 66.2232 49.831 65.6066 50.9575C63.8941 51.528 63.8824 51.5433 63.8009 53.6073Z" fill="#FFC727"/>
<path d="M39.9204 70.7249L39.4079 69.8208C38.9904 69.7657 38.7051 69.9826 38.4326 70.2602C37.6176 71.0829 36.8189 71.9155 35.9749 72.7012C35.7795 72.872 35.6227 73.0822 35.5147 73.318C35.4066 73.5538 35.3499 73.8097 35.3482 74.069C35.3546 74.9016 35.4886 75.69 36.2094 76.3934C37.355 74.4089 37.7941 71.9969 39.9204 70.7249Z" fill="#7A950E"/>
<path d="M41.3095 41.0618C42.4867 42.0038 43.8541 42.6222 45.1898 43.3328C44.3413 42.2416 43.9637 40.8873 43.0246 39.8883C42.9114 39.5909 42.5981 39.6279 42.3808 39.5041C41.5658 39.1551 40.7317 38.8866 39.7329 38.8712C40.087 39.7753 40.7924 40.3548 41.3095 41.0618Z" fill="#7D950D"/>
<path d="M56.3229 42.6076C57.1488 43.2919 57.8678 44.1562 59.0595 44.2204C59.7024 43.9736 60.6451 43.7575 60.6352 43.0885C60.627 42.5199 59.6689 42.3047 59.0604 42.0461C57.961 41.5787 56.8182 41.6212 55.6673 41.7577C55.5052 42.3336 56.0268 42.3843 56.3229 42.6076Z" fill="#7A950F"/>
<path d="M70.2993 59.7324C69.9434 62.0052 69.5749 64.2771 69.2425 66.5536C69.1945 66.8745 68.902 67.2768 69.372 67.5435C69.5146 66.9892 69.7488 66.4624 70.0648 65.9849C70.8372 62.7547 71.1641 59.4513 71.702 56.1813C71.6332 55.9155 71.5725 55.6388 71.2067 55.6596L70.2993 59.7324Z" fill="#502D25"/>
<path d="M71.2067 55.6596C71.2846 55.8286 71.3625 55.9986 71.4413 56.1677C72.1159 55.8874 71.9502 55.2184 72.0317 54.7212C72.7009 50.7053 73.5929 46.7365 74.5437 42.7758C74.4849 42.3617 74.9431 41.9621 74.5854 41.5417L74.3626 41.2795C72.988 46.0015 72.0082 50.8111 71.2067 55.6596Z" fill="#4E3027"/>
<path d="M49.3508 76.783C48.7169 76.0028 48.5358 75.0029 48.083 74.1332C47.729 73.4615 47.3975 73.3114 46.8524 73.8855C47.2409 75.0309 47.633 76.1709 48.2795 77.2097C48.5938 77.7142 48.8473 77.7069 49.1579 77.2431C49.2195 77.0895 49.2856 76.9367 49.3508 76.783Z" fill="#828F1B"/>
<path d="M82.8476 14.1107C83.7713 14.0773 84.2467 13.8097 84.1969 13.1162C84.1579 12.5639 84.0158 12.0359 83.2134 12.0549C82.4664 12.0721 82.0516 12.4165 82.0534 13.0964C82.0552 13.7003 82.4138 14.1406 82.8476 14.1107Z" fill="#FCFCF8"/>
<path d="M56.3229 42.6077L55.6672 41.7578C55.0044 41.8347 54.3406 41.8989 53.675 41.9902C52.2913 42.1818 52.2913 42.1882 52.2551 40.8456C51.8811 41.2299 52.1156 41.7334 51.9925 42.1665C52.1518 42.6963 52.591 42.6275 52.9886 42.6266C54.1061 42.623 55.2145 42.614 56.3229 42.6077Z" fill="#A2B12D"/>
<path d="M39.4622 49.3212L42.0711 52.4583L42.3192 52.3055C41.8003 51.3191 41.5803 50.1782 40.6077 49.4251L39.4622 49.3212Z" fill="#7F9607"/>
<path d="M34.4978 74.0744C33.8395 73.9741 32.7175 74.3457 33.4111 72.9082C33.5017 72.7138 33.1168 72.2076 33.1177 71.7962C32.4114 72.6551 32.5545 73.6613 33.0444 74.4325C33.5343 75.2036 34.1021 74.6042 34.4978 74.0744Z" fill="#ACB337"/>
<path d="M42.3826 39.5039C42.5311 39.7435 42.791 39.7959 43.0274 39.8881C43.021 39.3358 43.2148 38.6667 42.9721 38.2527C42.2948 37.0955 43.0681 37.241 43.75 37.2257C43.4412 36.8188 43.0256 36.6281 42.5918 36.9337C42.1952 37.2121 42.4107 37.6632 42.4288 38.0683C42.4514 38.542 43.1442 39.0582 42.3826 39.5039Z" fill="#B2B348"/>
<path d="M37.1747 64.6677C37.9897 65.1378 38.8672 65.1541 39.9213 65.0293C39.4209 64.5658 38.7835 64.2765 38.1047 64.2048C38.0196 64.8042 37.5016 64.5466 37.1747 64.6677Z" fill="#DFE186"/>
<path d="M33.1143 71.8007C33.8387 71.6542 34.1158 71.1922 34.0551 70.4871C33.8134 70.6262 33.6044 70.8155 33.4421 71.0421C33.2798 71.2686 33.168 71.5273 33.1143 71.8007Z" fill="#ACB337"/>
<path d="M39.9104 44.4184C39.6451 43.7024 39.0175 44.0911 38.5521 43.9754C38.9098 44.4193 39.4078 44.4383 39.9104 44.4184Z" fill="#C3C868"/>
<path d="M41.6608 120.87C42.8381 122.639 44.5876 123.797 46.2258 125.072C46.3489 125.51 46.7329 125.69 47.0698 125.913C49.2712 127.367 51.6954 128.18 54.3143 128.423C58.4165 128.911 62.5304 128.732 66.6435 128.654C68.7607 128.473 70.887 128.473 73.0078 128.373C74.9494 128.291 76.8776 128.012 78.7627 127.54C81.7691 126.767 84.7693 125.966 87.7513 125.099C88.8271 124.569 90.0152 124.382 91.1444 124.014C95.4069 122.633 99.7065 121.356 103.815 119.547C104.474 119.257 105.383 119.095 105.419 118.071C105.346 117.987 105.257 117.918 105.157 117.871C105.057 117.823 104.948 117.796 104.837 117.793C103.32 117.776 102.783 116.731 102.403 115.511C102.297 115.171 102.292 114.766 101.86 114.626C97.4055 115.11 92.9257 115.232 88.4631 115.595C85.1922 115.867 81.9013 115.92 78.616 115.983C77.3844 116.007 76.1592 116.149 74.9285 116.179C68.5624 116.028 62.2225 116.308 55.9289 117.321C56.925 117.004 57.97 116.976 59.0078 116.829C60.0854 116.677 61.1694 116.666 62.2434 116.527C62.8773 116.446 63.7973 116.716 64.0165 115.938C64.2447 115.124 63.321 114.897 62.7749 114.568C61.1132 113.574 59.5846 112.33 57.6304 111.856C56.8154 111.659 56.0656 111.423 55.218 111.675C54.8558 111.782 54.384 111.851 54.1096 111.399C53.9584 111.037 54.068 110.731 54.3279 110.477C55.8456 108.995 58.2 107.885 60.5608 109.061C61.6312 109.593 62.7858 109.965 63.9368 110.268C65.6628 110.72 67.3589 110.382 68.6964 109.225C70.0928 108.018 72.3748 108.672 73.1409 110.302C73.4126 110.882 73.6843 111.451 73.7812 112.089C73.8663 112.632 74.1434 112.984 74.7528 112.968C76.6201 112.927 78.2845 113.893 80.111 114.053C80.5167 114.088 80.9079 114.263 81.3173 114.316C81.77 114.375 82.2482 114.439 82.5325 113.979C82.7797 113.578 82.5977 113.176 82.3876 112.814C81.8968 111.969 81.2448 111.242 80.6145 110.502C80.3718 110.217 80.0712 109.98 79.8584 109.673C78.1713 107.2 75.6928 106.264 72.8421 106.046C70.791 105.99 68.7435 105.981 66.7006 106.227C66.2164 106.275 65.7277 106.248 65.2517 106.147C64.6495 105.914 64.1568 106.638 63.5438 106.346C63.3364 106.297 63.1363 106.747 62.9216 106.346C62.2265 106.47 61.539 106.634 60.8624 106.837C59.7866 107.123 58.6727 106.993 57.5716 107.184C55.9026 107.471 54.269 108.003 52.5602 108.058C51.1874 108.629 50.5507 109.776 50.3751 111.144C50.2148 112.397 49.7901 113.606 49.8109 114.892C49.8209 115.492 49.4867 115.806 48.87 115.373C48.3267 114.88 48.3892 114.198 48.3439 113.565C48.2877 112.789 48.055 112.124 47.2572 111.922C46.4259 111.711 45.9949 112.292 45.5919 112.937C44.9109 114.021 44.4907 115.227 44.1158 116.426C43.7726 117.521 43.4701 118.635 43.1731 119.746C43.1007 120.239 42.7647 120.231 42.3699 120.212C41.9515 120.193 41.563 120.293 41.6608 120.87Z" fill="#37474F"/>
<path d="M134.903 120.83C134.729 120.762 134.523 120.597 134.389 120.643C133.025 121.11 133.03 120.281 133.067 119.331C133.157 116.762 132.523 114.435 130.819 112.42C130.177 111.664 129.406 111.704 128.685 111.89C128.013 112.064 127.717 112.756 127.689 113.464C127.661 114.171 127.669 114.882 127.672 115.591C127.672 116.026 127.545 116.3 127.038 116.314C126.49 116.326 126.284 116.056 126.332 115.559C126.506 113.78 125.97 112.129 125.421 110.483C125.21 109.85 124.982 109.217 124.295 108.93C123.028 108.039 121.579 108.095 120.134 108.097C119.582 108.872 120.342 108.943 120.738 109.131C121.563 109.524 122.433 109.839 122.368 110.989C121.634 111.543 120.779 111.564 119.94 111.461C117.907 111.212 116.896 112.627 115.855 113.939C115.385 114.533 115.871 114.915 116.441 115.066C117.38 115.317 118.327 115.541 119.271 115.773C120.144 115.988 121.001 116.261 121.526 116.563C119.744 115.793 117.632 115.195 115.363 115.297C114.724 115.33 114.099 115.501 113.534 115.8C109.403 117.927 105.034 119.506 100.784 121.366C98.1082 122.536 95.3327 123.465 92.6821 124.694C92.1877 124.923 91.4677 124.965 91.4324 125.759C91.8128 126.199 92.3661 126.203 92.8686 126.309C96.5715 127.096 100.333 127.434 104.098 127.744C106.704 127.959 109.312 128.344 111.921 128.298C115.286 128.24 118.656 128.372 122.014 128.191C124.584 128.052 127.151 127.673 129.452 126.338C129.905 126.075 130.395 125.865 130.6 125.326L133.545 123.286C133.603 123.196 133.769 123.174 133.72 123.015C134.197 122.329 134.854 121.742 134.903 120.83Z" fill="#37474F"/>
<path d="M142.744 118.76C142.243 119.009 142.291 119.483 142.266 119.927C142.447 120.379 142.843 120.446 143.27 120.483C146.653 120.776 150.033 120.898 153.405 120.381C155.043 120.129 155.058 120.089 155.126 118.559C155.89 114.956 156.655 111.353 157.42 107.749C157.585 106.972 157.701 106.149 158.824 106.279C159.111 106.313 159.226 106.135 159.227 105.875C159.227 105.055 159.248 104.233 159.218 103.414C159.192 102.706 158.617 102.883 158.207 102.88C155.369 102.855 152.53 102.847 149.694 102.834C149.282 102.538 148.965 102.121 148.504 101.884C148.401 101.922 148.268 101.975 148.256 102.065C148.197 102.537 148.054 102.911 147.481 102.901C147.345 102.958 147.202 103 147.057 103.027C145.134 103.179 145.125 103.175 144.763 105.164C144.176 108.388 143.597 111.612 143.027 114.838C142.895 115.591 142.846 116.344 143.884 116.525C143.873 116.721 143.975 116.878 144.056 117.047C144.515 118.006 144.327 118.391 143.286 118.612C143.095 118.654 142.907 118.655 142.744 118.76Z" fill="#455A64"/>
<path d="M11.0979 131.609C12.9498 131.631 14.7392 131.259 16.5051 130.746C17.6234 130.228 18.7101 129.654 19.7071 128.924C20.2287 128.206 21.2855 128.051 21.6088 127.124C23.5657 124.153 23.1637 120.407 20.6516 118.28C19.7135 117.486 18.6838 117.027 17.4559 117.607C16.4154 118.097 15.9029 119.204 16.0179 120.643C16.2225 123.193 15.1123 124.809 12.6274 125.499C10.8163 126 8.9925 125.957 7.18771 125.482C6.10104 125.197 4.98267 125.042 3.94399 124.589C2.93248 124.147 1.88746 123.775 1.09328 122.929C0.766373 123.363 0.8524 123.685 0.932995 124.007C1.32691 127.674 3.98021 129.278 6.96223 130.577C7.43312 130.782 7.91941 130.952 8.39845 131.138C9.11022 131.558 9.93791 131.394 10.6913 131.574L11.0979 131.609Z" fill="#BE590F"/>
<path d="M130.605 125.327C126.704 127.539 122.455 128.063 118.05 128.065C112.875 128.065 107.74 127.587 102.593 127.179C99.0065 126.895 95.4639 126.381 91.9331 125.741C91.7561 125.693 91.5836 125.63 91.4179 125.551C90.3212 124.847 89.1404 124.557 87.8472 124.828C85.3497 125.141 82.9907 126.017 80.5828 126.676C77.5754 127.499 74.5155 127.912 71.4366 128.264C69.841 128.445 68.2219 128.27 66.648 128.654C68.7471 128.662 70.8471 128.676 72.9462 128.676C77.2848 128.676 81.6224 128.84 85.9582 128.846C94.6516 128.858 103.345 128.716 112.038 128.602C115.594 128.555 119.158 128.602 122.709 128.412C127.599 128.149 132.499 128.103 137.37 127.548C137.732 127.506 138.12 127.524 138.398 127.05C136.838 126.453 135.228 126.244 133.638 125.958C132.626 125.778 131.533 125.933 130.605 125.327Z" fill="#D5D5CF"/>
<path d="M156.166 20.8649C155.909 22.3038 155.622 23.7357 155.065 25.0943C154.921 25.4438 154.778 25.8659 154.499 26.0734C153.548 26.7677 152.943 27.5007 153.763 28.678C153.898 28.8717 153.763 28.9797 153.594 29.009C152.242 29.2404 151.784 30.3892 151.175 31.3837C151.009 31.6553 150.868 31.9446 150.668 32.1915C150.233 32.7362 150.859 32.9375 151.052 33.3487C149.779 33.8842 148.92 34.8262 148.311 36.012C147.988 36.6423 147.72 37.3182 147.88 38.0272C147.991 38.5179 147.861 38.7316 147.425 38.8758C147.175 38.953 146.911 39.1165 147.118 39.4282C147.568 40.1226 147.051 40.4011 146.637 40.7884C145.388 41.9565 144.552 43.4162 143.787 44.9276C143.674 45.1513 143.75 45.6312 143.244 45.5224C143.773 46.3973 143.717 47.4905 144.344 48.5313C144.671 47.8585 144.998 47.3285 145.198 46.7568C146.54 42.8993 148.813 39.6049 151.313 36.4479C151.479 36.238 151.725 35.512 152.205 36.228C155.062 33.2384 156.939 29.7473 157.594 25.629C157.625 25.5071 157.669 25.3887 157.724 25.2756C157.821 23.5606 158.084 21.8478 157.758 20.1289C157.631 19.4561 157.528 18.7788 157.207 18.0582C156.534 18.9493 156.537 19.9792 156.166 20.8649Z" fill="#2B6E14"/>
<path d="M148.547 101.943C148.43 102.875 148.981 102.954 149.688 102.834C151.104 98.3015 152.275 93.7233 152.242 88.9282C152.242 88.4635 152.491 88.1489 152.739 87.8433C153.465 86.9427 154.05 85.9367 154.471 84.8599C154.428 84.4639 154.505 83.9956 153.913 83.9269C152.866 83.8049 152.499 84.5697 152.08 85.3797C151.64 84.3265 151.243 83.3149 150.794 82.3267C150.454 81.5773 150.032 80.8639 149.408 80.3079C148.542 79.5368 147.896 79.6525 147.351 80.6696C146.698 81.8828 146.717 83.1792 146.898 84.492C147.17 86.4574 147.811 88.3369 148.251 90.2626C148.549 91.5671 148.728 92.8726 148.604 94.3869C147.67 93.4991 146.86 92.6936 146.006 91.9378C145.695 91.6621 145.319 91.2082 144.851 91.5048C144.412 91.7823 144.572 92.3184 144.647 92.7497C144.894 94.1555 146.005 95.0216 146.79 96.0947C146.808 96.5467 147.105 96.8613 147.416 97.1136C148.412 97.9209 148.583 98.9425 148.351 100.132C148.233 100.733 148.075 101.383 148.547 101.943Z" fill="#FFC727"/>
<path d="M21.2404 127.115C20.927 127.885 20.0867 128.21 19.7072 128.923C20.5404 128.29 21.4568 128.182 22.5145 128.175C26.8811 128.144 31.2369 127.826 35.5926 127.489C37.1665 127.367 38.7838 127.616 40.3658 127.817C42.5193 128.089 44.6872 128.047 46.8452 128.194C49.3318 128.362 51.8258 128.355 54.3224 128.425C51.4675 127.733 48.7375 126.602 46.2303 125.074C45.3311 125.218 44.4327 125.368 43.5317 125.502C43.3135 125.535 43.0318 125.549 42.9422 125.309C42.3581 123.748 40.8929 123.85 39.6459 123.536C39.3118 124.071 38.897 124.611 38.9278 125.253C38.964 126.036 38.5964 126.237 37.9317 126.229C37.5957 126.229 37.2589 126.249 36.9229 126.238C32.5119 126.09 28.1118 126.49 23.7017 126.476C22.8269 126.475 21.9829 126.61 21.2404 127.115Z" fill="#D6D4CD"/>
<path d="M155.122 118.559C154.964 119.727 154.139 119.992 153.124 120.174C149.482 120.825 145.868 120.814 142.266 119.927C142.165 120.08 142.029 120.222 141.966 120.391C141.295 122.199 140.789 122.688 138.888 122.569C137.123 122.46 135.482 123.342 133.726 123.015L133.55 123.286C136.621 123.363 139.676 123.215 142.702 122.653C143.089 122.582 143.673 122.626 143.729 122.155C143.795 121.604 143.146 121.709 142.81 121.542C142.529 121.403 142.045 121.487 142.123 120.994C142.214 120.41 142.651 120.796 142.932 120.792C147.108 120.73 151.3 121.107 155.453 120.353C155.563 120.333 155.688 120.353 155.786 120.312C156.184 120.137 156.802 120.112 156.838 119.612C156.878 119.037 156.204 119.264 155.876 119.079C155.602 118.93 155.181 119.02 155.122 118.559Z" fill="#E7DDD7"/>
<path d="M21.2403 127.115C26.8095 126.753 32.386 126.653 37.9661 126.644C39.3796 126.644 39.3869 126.618 39.2176 125.205C39.1985 125.042 39.1496 124.927 39.3362 124.858C40.115 124.574 39.6866 124.011 39.6414 123.537C38.6452 122.557 37.4101 122.014 36.0734 121.674C35.3925 121.584 34.8799 121.409 35.5038 120.614C35.7085 120.353 35.7375 120.012 35.8715 119.717C36.1133 119.241 36.3342 118.76 36.3243 118.207C36.7771 116.617 37.4472 115.105 38.0403 113.567C38.2033 113.143 38.3636 112.736 38.3011 112.294C38.2595 112.001 38.4533 112.088 38.5728 112.041C39.1161 109.651 38.1363 107.612 37.0659 105.604C36.8776 105.25 36.6023 104.944 36.3668 104.615C35.7329 104.344 35.3807 103.821 35.2104 103.189C35.1199 102.852 35.0927 102.52 34.678 102.43C34.1745 102.368 33.7308 102.11 33.2436 101.992C32.5463 101.801 31.9975 102.462 31.3093 102.325C31.0041 103.242 30.9996 104.216 30.7333 105.09C30.3901 104.229 30.6491 103.136 29.989 102.293C29.2835 102.455 28.6614 101.915 27.9596 102.053C27.3329 102.21 26.7977 102.536 26.306 102.944C25.8188 103.62 25.7826 104.578 24.9866 105.065C23.3403 107.002 22.2509 109.205 21.7981 111.761C20.7567 111.506 19.891 110.747 18.7853 110.707C18.5698 111.159 18.9103 111.49 19.0833 111.832C19.7914 113.233 20.0984 114.766 20.7504 116.393C19.3921 114.171 18.0111 112.254 16.2226 110.636C15.4746 109.96 14.588 110.304 13.8002 110.045C13.1201 109.998 12.4419 109.965 11.7908 110.237C12.8195 111.509 13.9641 112.694 14.5147 114.298C14.7465 114.97 14.9575 115.646 15.1223 116.175C13.9614 114.507 12.6846 112.749 10.8399 111.496C10.2966 111.129 9.72879 110.905 9.06864 110.946C8.22375 111.203 7.43138 111.555 6.81741 112.22C6.52219 112.717 6.87536 113.059 7.10085 113.438C8.09697 115.113 9.08222 116.791 9.29412 118.843C8.0372 116.951 6.74316 115.126 4.7962 113.908C2.34121 116.417 0.847027 119.354 0.771866 122.922C0.763718 123.289 0.734737 123.668 0.939392 124.007C0.970181 123.786 1.00098 123.566 1.03992 123.293C1.75713 124.405 2.9751 124.64 4.04367 125.004C6.73228 125.922 9.4698 126.618 12.3748 125.992C14.0157 125.639 15.212 124.694 16.1782 123.423C16.7659 122.648 16.5631 121.686 16.4499 120.812C16.2688 119.406 16.5921 118.43 17.5565 117.931C18.5209 117.432 19.441 117.689 20.5005 118.601C22.6639 120.47 23.2525 124.349 21.2403 127.115Z" fill="#D76E25"/>
<path d="M41.6608 120.87C41.8555 120.478 42.1263 120.313 42.5492 120.559C43.2927 120.992 43.5553 120.691 43.5055 119.926C43.6513 117.145 44.1584 114.482 46.0999 112.316C46.4368 111.94 46.9049 111.697 47.4066 111.914C47.9672 112.157 48.2216 112.683 48.2216 113.27C48.2216 114.029 48.3412 114.745 48.6817 115.422C49.0303 115.615 48.7722 116.341 49.3943 116.271C49.9558 116.207 50.1188 115.668 50.155 115.282C50.2564 114.106 50.6159 112.947 50.6341 111.816C50.6603 110.21 51.6166 109.29 52.4859 108.232C53.7845 106.617 55.6681 105.728 57.2193 104.428C58.5061 103.35 59.9577 102.535 61.432 101.754C62.5187 100.592 63.8616 99.7462 65.1448 98.8322C65.4364 98.665 65.6474 98.3919 65.9426 98.2283C66.2143 98.1225 66.1002 97.5955 66.5475 97.6723C68.163 96.441 69.5694 94.989 70.9594 93.5245C72.0579 92.3664 72.8068 90.9931 73.2595 89.4562C73.8934 87.3036 74.5681 85.1646 75.5696 83.1431C75.7426 82.795 76.0143 82.4198 75.6693 82.0049C72.9806 80.8178 70.3083 79.6001 68.0055 77.725C67.5047 77.9908 67.5038 78.5251 67.3716 78.9681C66.5973 81.4887 65.843 84.0155 65.0914 86.5424C64.989 86.8877 64.7291 87.0993 64.5009 87.3379C62.1936 89.7183 60.0401 92.2344 57.8777 94.7431C56.9087 96.045 55.957 97.326 54.7163 98.4362C53.9385 99.1324 53.3969 100.212 52.7159 101.098C52.0893 101.911 51.8104 102.996 50.8079 103.533C50.692 103.596 50.7346 103.95 50.7038 104.166C49.2893 106.445 46.9086 107.585 44.8557 109.112C43.9339 109.451 43.1421 110.071 42.5918 110.883C41.7532 111.977 41.7595 113.324 41.4942 114.59C41.1483 116.235 40.9255 117.901 41.0152 119.59C41.0378 120.106 40.9871 120.681 41.6608 120.87Z" fill="#F7A9A0"/>
<path d="M4.7917 113.908C4.82249 114.126 4.81162 114.36 5.03077 114.503C7.01576 115.84 8.20567 117.855 9.59118 119.756C9.68174 118.129 9.26428 116.619 8.48368 115.197C7.94034 114.202 7.37075 113.208 6.81292 112.22C6.12379 112.765 5.27436 113.116 4.7917 113.908Z" fill="#C05910"/>
<path d="M9.06415 110.946C12.1168 112.177 13.7939 114.813 15.6259 117.327C14.992 114.605 14.4649 111.843 11.7863 110.237C10.8355 110.255 9.90252 110.498 9.06415 110.946Z" fill="#BF5A11"/>
<path d="M13.7958 110.045C17.1908 110.722 18.4277 113.662 20.1166 116.103C20.4951 116.652 20.4028 116.716 21.2133 117.187C20.5939 114.85 20.0804 112.64 18.7845 110.704C17.1898 109.975 15.5064 109.911 13.7958 110.045Z" fill="#BF5A11"/>
<path d="M34.5367 102.614C35.2403 102.901 34.936 103.699 35.3281 104.185C35.6532 104.592 35.857 104.846 36.3668 104.616C35.4386 103.409 35.2222 101.884 34.5557 100.562C34.3746 100.211 34.3519 99.7345 33.8059 99.7182C33.2408 99.702 33.0814 100.18 32.8487 100.541C32.7568 100.704 32.7004 100.884 32.683 101.07C32.568 101.867 32.2175 102.287 31.3355 102.016C31.0811 101.946 30.8133 101.94 30.5558 101.997C29.3541 102.262 28.473 102.045 28.1389 100.677C28.0483 100.315 27.7214 99.9072 27.2333 99.9768C26.8149 100.036 26.6637 100.46 26.546 100.796C26.2625 101.61 25.9546 102.423 25.8215 103.263C25.7111 103.974 25.2103 104.438 24.9884 105.065C26.038 104.794 26.0923 103.815 26.4201 103.033C26.8883 102.671 27.0114 102.128 27.1319 101.598C27.1844 101.47 27.1373 101.236 27.2949 101.236C27.476 101.23 27.4108 101.46 27.4534 101.59C27.5213 101.921 27.6544 102.208 27.9605 102.384C28.6387 102.087 29.3098 102.535 29.9871 102.405C30.4427 102.547 30.9307 102.547 31.3862 102.405C31.9757 102.642 32.5562 101.961 33.1475 102.388C33.8222 101.177 34.1002 102.374 34.5367 102.614Z" fill="#C4753D"/>
<path d="M97.0215 95.2367C96.8404 96.12 96.1159 96.3216 95.3969 96.5132C93.3088 97.0578 91.17 97.3856 89.0145 97.4914C88.6115 97.5122 88.1913 97.4336 87.8128 97.6487C88.0655 97.8937 88.386 97.7229 88.7229 97.8033C86.6546 97.6976 84.6307 97.957 82.6257 97.5999C82.0824 97.5032 81.8841 97.8648 81.7365 98.2626C79.8076 103.464 83.0197 110.548 89.8331 110.648C93.4753 110.702 96.7154 109.427 99.8604 108.074C97.9732 109.116 96.2382 110.528 94.6987 112.192C94.4442 112.463 94.1735 112.729 93.9616 113.039C93.6899 113.441 93.3404 113.86 93.593 114.371C93.8457 114.882 94.3727 114.696 94.8056 114.698C97.4752 114.709 100.099 114.203 102.748 113.974C103.247 113.746 103.251 113.262 103.308 112.827C103.624 110.444 106.115 109.42 107.95 110.494C110.259 111.85 112.478 111.398 114.608 109.99C115.52 109.39 116.591 109.125 117.577 108.678C117.928 108.519 118.434 108.563 118.482 108.002C118.03 107.524 117.408 107.52 116.831 107.46C116.057 107.371 115.291 107.223 114.54 107.017C114.297 107.002 114.05 106.999 113.815 106.9C113.497 106.81 113.25 106.467 112.86 106.629C112.577 106.731 112.273 106.765 111.974 106.727C109.756 106.385 107.509 106.317 105.283 106.041C104.486 105.943 103.901 105.589 103.446 104.918C101.358 101.823 99.0997 98.8394 97.3303 95.5368C97.2652 95.4042 97.1561 95.2981 97.0215 95.2367Z" fill="#37474F"/>
<path d="M97.9497 57.164C97.8404 57.067 97.7211 56.9818 97.5938 56.91C94.0042 55.3423 92.3606 52.4195 91.848 48.7065C91.4233 48.3892 91.1571 48.7643 90.8664 48.9497C89.2002 50.0092 87.5412 50.2009 85.8441 49.0048C85.5263 48.7806 85.1514 48.3024 84.733 48.9144C84.5347 49.8257 84.3798 50.7497 84.1299 51.6474C83.6165 53.4935 82.5624 54.931 80.8282 55.8405C80.0005 56.2744 79.2055 56.7716 78.3959 57.2399C79.373 60.3391 80.8853 63.0739 83.8465 64.7012C87.2197 66.5554 91.1589 65.9768 93.958 63.2945C95.7646 61.5632 97.0306 59.4748 97.9497 57.164Z" fill="#F7A9A0"/>
<path d="M113.772 107.111C113.925 107.243 114.074 107.449 114.25 107.134C114.461 106.815 114.373 106.484 114.262 106.169C113.555 104.169 112.94 102.138 112.262 100.129C112.144 99.7806 112.036 99.4109 111.654 99.2346C111.442 98.6614 111.05 98.2555 110.571 97.8676C108.308 96.0297 106.044 94.1772 104.402 91.7091C103.895 90.9479 103.575 90.1279 103.33 89.2573C102.62 86.7368 101.809 84.2533 100.513 81.957C100.363 81.7997 100.228 81.533 100.061 81.505C99.7391 81.4552 99.8179 81.7952 99.7772 81.9868C98.9103 86.0328 98.0476 90.0797 97.1891 94.1275C97.1112 94.4891 97.0795 94.8643 97.0261 95.2341C96.9926 95.7376 97.1574 96.1671 97.4399 96.5902C99.4023 99.5004 101.362 102.412 103.29 105.345C103.717 105.995 104.251 106.324 105.01 106.397C107.465 106.632 109.919 106.891 112.372 107.138C112.716 107.172 113.17 107.372 113.105 106.706C113.347 105.634 112.69 104.768 112.493 103.838C113.03 104.847 112.884 106.189 113.772 107.111Z" fill="#6A3326"/>
<path d="M102.694 113.834C101.748 113.417 100.781 113.789 99.8696 113.901C98.0168 114.128 96.1676 114.293 94.3049 114.36C94.1238 114.367 93.9227 114.503 93.7969 114.313C93.6484 114.09 93.7969 113.889 93.939 113.709C95.1745 112.065 96.6706 110.634 98.3682 109.472C99.2683 108.859 100.168 108.245 101.011 107.518C99.5182 107.698 98.2151 108.396 96.8522 108.905C93.9861 109.978 91.0711 110.669 87.9958 110.048C83.0551 109.054 80.8202 103.46 81.7474 99.8014C82.2283 97.8956 82.2084 97.8929 84.139 97.8947C85.8768 97.8947 87.6155 97.8947 89.3551 97.7139L87.8156 97.6452C85.8007 97.5629 83.7596 97.8197 81.7882 97.1805C81.0538 96.9418 80.2741 96.7882 79.7697 96.1146C78.9248 96.6652 78.5535 97.5901 78.0111 98.3748C76.4852 100.572 74.9322 102.753 73.4724 104.993C73.1962 105.416 72.7905 105.807 72.9399 106.398C75.5851 106.694 77.9088 107.498 79.5324 109.851C80.2623 110.908 81.2684 111.795 82.0128 112.871C82.2201 113.169 82.5615 113.51 82.3143 113.872C82.0671 114.235 81.6424 114.031 81.2802 113.946C79.3577 113.501 77.4324 113.069 75.5117 112.616C75.2401 112.554 75.0055 112.467 74.7927 112.707C74.796 112.792 74.8161 112.876 74.852 112.954C74.8879 113.031 74.9389 113.101 75.0019 113.159C76.555 114.102 78.3262 114.459 80.0142 115.018C78.5218 115.191 76.9878 114.822 75.4936 115.246C75.1314 115.608 74.646 115.902 74.7909 116.537C79.3278 116.386 83.8692 116.324 88.3988 116.055C91.7811 115.853 95.1579 115.554 98.5411 115.375C99.6957 115.313 100.949 115.421 102.023 114.749C102.674 114.757 102.841 114.41 102.694 113.834Z" fill="#323C3F"/>
<path d="M72.9372 106.405C75.0502 103.306 77.1614 100.206 79.2707 97.1055C79.4745 96.8036 79.6031 96.451 79.767 96.1219C79.2481 92.4514 78.3561 88.8596 77.4569 85.2732C77.1399 84.0075 76.7668 82.7571 76.4245 81.5168C75.9718 81.5023 75.9573 81.9417 75.6693 82.0231C74.4827 84.5554 73.5133 87.1835 72.7715 89.8794C72.2861 91.6115 71.0781 92.9134 69.8737 94.2107C68.7354 95.4375 67.2747 96.3308 66.2922 97.7113C65.604 98.7853 65.6737 100.062 65.3758 101.237C65.0552 102.503 64.9411 103.814 64.6576 105.091C64.5671 105.492 64.5019 105.905 64.8007 106.266C64.9411 106.877 65.4346 106.671 65.7968 106.661C68.1803 106.586 70.5592 106.486 72.9372 106.405Z" fill="#6A3326"/>
<path d="M105.628 64.1849C105.418 58.2045 104.654 52.2829 103.695 46.3839C103.135 42.844 102.334 39.3462 101.298 35.9149C100.871 35.8986 101.032 36.1589 101.084 36.3669C102.765 44.0433 103.675 51.8445 104.871 59.6013C104.91 59.8581 104.911 60.1212 104.93 60.3815C104.701 61.461 105.218 62.4853 105.165 63.5512C105.14 63.8938 105.333 64.0782 105.628 64.1849Z" fill="#FADCD1"/>
<path d="M74.3914 42.6538C73.2695 46.9029 72.3766 51.2017 71.6231 55.5303C71.5742 55.7459 71.5137 55.9586 71.442 56.1677C71.0218 58.9604 70.598 61.7521 70.1869 64.5448C70.1172 65.0212 70.1045 65.5049 70.0656 65.9849L70.9213 64.3658C70.7801 62.6788 71.2709 61.0632 71.5163 59.4232C72.3313 53.9519 73.4469 48.5347 74.6079 43.1266C74.6341 42.9241 74.8152 42.6511 74.3914 42.6538Z" fill="#F6DACF"/>
<path d="M105.165 63.552C105.72 62.4482 104.993 61.4401 104.93 60.3824C104.386 61.0894 105.01 61.9193 104.686 62.6516L105.165 63.552Z" fill="#513327"/>
<path d="M91.6587 45.77C91.7167 45.723 91.7719 45.6724 91.8326 45.6299C96.2182 42.5226 96.9563 41.0933 96.1684 35.4718C95.7338 32.3673 94.3754 29.6325 92.1197 27.3895C91.34 26.6138 90.4788 25.943 89.3658 25.7541C88.779 25.6546 88.732 25.3237 88.8107 24.8789C88.9524 24.1392 88.9905 23.3834 88.9239 22.6332C88.8542 22.6884 88.7637 22.7236 88.7627 22.7643C88.7129 24.5236 87.9414 25.3771 86.1792 26.1672C82.6973 27.7304 81.1633 31.0293 80.4243 34.6546C80.0467 36.507 80.1164 38.3793 80.4461 40.2308C80.7376 41.8681 81.895 42.9792 83.0115 44.0867C83.6182 44.6888 84.3083 45.2077 84.9603 45.7646C86.6401 47.8286 90.1193 48.0926 91.6587 45.77Z" fill="#F7A9A0"/>
<path d="M91.6588 45.77C91.522 45.8267 91.3912 45.897 91.2685 45.9798C89.0951 47.7879 87.0196 47.0176 84.9558 45.7655C84.8797 46.816 84.804 47.8662 84.7285 48.9162C84.9467 48.776 85.117 48.8258 85.3271 48.984C87.5611 50.6728 89.2681 50.6429 91.4541 48.9017C91.5767 48.8232 91.7072 48.7578 91.8435 48.7064L91.6588 45.77Z" fill="#F28B83"/>
<path d="M101.084 36.3686L101.298 35.9166L100.345 32.7668C100.218 32.8572 100.033 32.3998 100.093 32.6855C100.352 33.9277 100.742 35.1427 101.084 36.3686Z" fill="#CEA096"/>
<path d="M74.3915 42.6538C74.4649 42.8111 74.5373 42.9693 74.6107 43.1266C75.0309 41.9721 75.1232 40.7498 75.4402 39.3955C74.8878 40.1377 74.9394 40.917 74.5871 41.5418L74.3915 42.6538Z" fill="#CFA79C"/>
<path d="M152.584 52.067C152.433 51.761 152.222 51.5063 152.599 51.1504C153.127 50.6551 153.458 50.0438 153.284 49.2456C153.18 48.7682 153.84 48.6568 153.902 48.1646C154.059 46.9459 154.216 45.738 153.884 44.5278C153.811 44.2599 153.689 44.1003 154.042 43.8394C154.562 43.4554 154.662 41.4898 154.365 40.905C154.159 40.5008 153.91 40.6207 153.657 40.7773C152.314 41.6028 151.47 42.8542 150.721 44.1851C150.525 44.5325 150.895 44.7786 150.87 45.0924C149.897 45.2053 148.833 46.6125 148.88 47.7324C148.885 47.8601 149.1 47.966 148.846 48.1015C147.718 48.7012 147.51 49.7961 147.37 50.9051C147.352 51.0476 147.328 51.1185 147.225 51.201C146.188 52.0195 146.041 53.2001 145.878 54.3893C145.755 55.2864 145.226 55.8985 144.347 56.1929C144.381 56.3486 144.618 56.3837 144.476 56.6656C143.56 58.4895 143.437 60.5711 142.696 62.4246C142.264 63.5063 142.1 64.6401 141.719 65.7211C141.164 67.2988 140.87 69.0199 141.031 70.748C141.045 70.9037 141.016 71.1093 141.243 71.1039C141.47 71.0984 141.562 70.9255 141.601 70.7145C141.927 68.9436 142.534 67.2544 143.102 65.5513C143.652 63.8941 144.27 62.2626 144.936 60.6505C145.818 58.5206 146.682 56.3681 147.678 54.2841C148.726 52.0935 149.643 49.8452 150.809 47.7036C151.674 46.1149 152.341 44.4211 153.104 42.7577C153.418 42.9602 153.33 43.1626 153.261 43.3231C152.199 45.8408 151.08 48.336 150.073 50.8771C149.136 53.2375 148.065 55.5372 147.044 57.8602C146.99 57.9841 147.065 58.1655 147.08 58.3197C147.151 58.36 147.232 58.3781 147.313 58.3714C147.394 58.3647 147.471 58.3336 147.534 58.2823C148.772 57.3276 150.193 56.569 150.961 55.112C151.05 54.943 151.124 54.7335 151.311 54.6681C152.498 54.2538 152.229 53.0592 152.655 52.2399C152.676 52.1994 152.616 52.1231 152.584 52.067Z" fill="#2C6C15"/>
<path d="M138.955 67.3771C139.074 67.4028 139.187 67.4497 139.29 67.5155C139.606 67.7216 139.678 68.0751 139.749 68.4286C139.776 68.5901 139.817 68.7491 139.87 68.9041C141.384 64.5646 143.324 60.4059 145.457 56.3376C147.633 52.2145 150.179 48.2968 153.064 44.6327C153.336 44.2828 153.607 43.8986 154.258 43.5749C154.293 43.5569 154.329 43.5397 154.366 43.5225L154.299 43.6238C152.829 45.8324 151.502 47.8213 150.176 49.8103C150.133 49.907 150.115 50.0191 150.235 50.0508C150.28 50.0625 150.328 50.0625 150.373 50.0508C150.487 50.0209 150.561 49.9106 150.634 49.8085C151.827 47.9018 153.432 46.3152 154.754 44.5107C155.438 43.5777 156.112 42.6302 156.512 41.5272C156.637 41.1846 156.901 40.7904 156.557 40.4903C156.195 40.1766 155.748 40.38 155.411 40.6015C154.876 40.9409 154.374 41.3312 153.913 41.7668C153.168 42.4991 152.491 43.3037 151.766 44.0568C151.531 44.3027 151.384 44.7448 150.891 44.5712C150.724 45.3668 149.698 45.8695 150.106 46.863C150.115 46.8874 150.079 46.9589 150.063 46.9598C148.443 47.0267 148.588 48.8402 147.527 49.5074C146.58 50.1014 145.738 50.8635 144.866 51.5759C144.763 51.6597 144.659 51.7435 144.554 51.8272C142.81 56.1722 140.83 60.4204 139.263 64.8376C138.966 65.6712 139.33 66.5671 138.955 67.3771Z" fill="#568E35"/>
<path d="M137.601 86.9048C138.097 83.9019 138.507 80.9012 138.531 77.8256C138.555 74.718 138.964 71.6172 139.137 68.5088C139.376 64.2298 140.006 60.0119 140.526 55.7772C140.866 53.0112 141.406 50.2756 141.847 47.5248C141.905 47.1688 142.305 46.9235 142.005 46.274C138.346 59.6452 137.605 73.2234 137.601 86.9048Z" fill="#2F6A18"/>
<path d="M137.601 51.9992C137.196 50.6799 137.196 49.2969 137.046 47.9472C136.709 44.9205 136.091 41.9457 135.496 38.9639C134.64 34.676 133.393 30.4835 131.605 26.4687C130.306 23.5553 128.729 20.752 126.666 18.2274C126.575 18.1318 126.45 18.0716 126.315 18.0582C129.23 23.9262 132.368 29.6864 133.975 36.0504C135.575 42.3881 136.359 48.8196 136.809 55.3031C137.608 55.1688 137.476 54.5526 137.368 54.1102C137.185 53.3582 137.397 52.6892 137.601 51.9992Z" fill="#2F6D14"/>
<path d="M142.291 66.1222C144.663 64.9858 145.921 62.8975 146.938 60.6273C147.346 59.7142 147.567 58.7171 147.981 57.8067C148.486 56.6965 148.082 56.0609 147.067 55.6369C146.969 55.5266 146.882 55.5335 146.804 55.6577C145.283 58.1891 144.067 60.8606 142.937 63.5755C142.599 64.3855 141.71 65.0735 142.291 66.1222Z" fill="#2C6D15"/>
<path d="M146.808 55.6569L147.07 55.6361C148.756 53.9988 150.081 52.14 150.638 49.813C150.485 49.8446 150.332 50.0263 150.18 49.813C148.924 51.6862 147.662 53.5558 146.808 55.6569Z" fill="#3F6B2C"/>
<path d="M138.632 72.0005C138.716 71.6732 138.792 71.3433 138.87 71.0151C138.787 71.3423 138.705 71.6705 138.632 72.0005Z" fill="#C9CED8"/>
<path d="M138.485 72.495C138.489 72.4958 138.493 72.4958 138.496 72.495C138.505 72.467 138.513 72.4389 138.522 72.4109C138.531 72.3829 138.533 72.372 138.537 72.3531L138.529 72.3458C138.514 72.3974 138.5 72.4462 138.485 72.495Z" fill="#C9CED8"/>
<path d="M138.485 72.495C138.489 72.4958 138.493 72.4958 138.496 72.495C138.505 72.467 138.513 72.4389 138.522 72.4109C138.531 72.3829 138.533 72.372 138.537 72.3531L138.529 72.3458C138.514 72.3974 138.5 72.4462 138.485 72.495Z" fill="#82A676"/>
<path d="M128.192 25.7866C127.558 25.8706 127.148 26.1482 127.155 26.772C127.162 27.3542 127.47 27.7619 128.101 27.7665C128.733 27.771 129.059 27.3985 129.089 26.81C129.127 26.1753 128.696 25.9158 128.192 25.7866Z" fill="#EEF8E8"/>
<path d="M142.744 118.76C143.481 119.176 144.117 119.036 144.547 118.326C145.053 117.489 144.588 116.947 143.878 116.527C142.583 116.68 142.272 117.294 142.744 118.76Z" fill="#F7DCC6"/>
<path d="M147.042 102.816C147.042 101.523 147.042 100.228 147.028 98.929C147.023 98.5755 147.147 98.1768 146.783 97.9029C146.7 99.4823 147.055 101.076 146.602 102.648C146.536 102.861 146.872 102.804 147.042 102.816Z" fill="#F7E1D3"/>
<path d="M64.8459 61.516C63.9503 61.7293 63.0619 61.3767 62.1672 61.4834C61.153 61.1941 60.3606 62.0195 59.4079 62.0322C58.7741 61.8939 58.4752 61.261 57.911 61.0196C57.6133 60.8609 57.2871 60.7626 56.9512 60.7303C56.3173 60.6553 55.6834 60.6309 55.064 60.7629C53.8161 61.0269 53.357 62.0801 54.1222 63.0872C54.555 63.6586 54.651 64.0962 54.1702 64.635C54.0742 64.7435 54.1702 64.5916 54.1149 64.7254C53.8704 65.3139 53.5417 65.9974 54.1231 66.4748C54.766 67.0036 55.3673 66.5805 55.8436 66.0426C57.049 65.6927 57.0924 66.5453 57.1911 67.34C57.01 67.9791 57.1911 68.5568 57.499 69.1119C57.8948 69.4518 57.8241 70.4002 58.5431 70.2131C59.2622 70.0259 59.196 69.2186 59.216 68.593C59.2359 67.9674 59.216 67.3327 59.216 66.4124C60.0989 67.2025 60.7835 67.7947 61.4436 68.4122C62.1681 69.0866 62.946 69.648 63.9367 69.8234C64.7082 69.9599 65.3521 69.7176 65.7261 68.9989C66.0883 68.3019 65.9597 67.745 65.3792 67.1257C64.4048 66.086 63.1651 65.5128 61.9671 64.8465C62.562 64.1233 63.3779 64.2987 64.1404 64.3385C65.2153 64.3945 66.2911 64.578 67.3479 64.2119C67.9655 64.0247 68.0597 63.7418 67.529 63.3151C66.9984 62.8883 66.4116 62.5918 65.7976 62.336C65.3973 62.166 64.9609 62.0313 64.8459 61.516Z" fill="#FFC727"/>
<path d="M67.3616 64.2165C65.9407 64.2165 64.519 64.1912 63.0991 64.2165C62.6581 64.2256 62.1709 64.2798 61.7942 64.4805C61.4175 64.6812 61.5886 64.8765 61.9753 64.8476C62.7577 64.4552 63.5446 64.4434 64.4203 64.5474C65.3902 64.664 66.4696 65.0329 67.3616 64.2165Z" fill="#DFDC95"/>
<path d="M57.5037 69.1166C57.4016 68.5265 57.299 67.9359 57.1958 67.3446L56.9603 67.3681C57.0663 67.9747 56.8281 68.6871 57.5037 69.1166Z" fill="#E8DE9C"/>
<path d="M57.0319 61.046L57.9375 61.291C58.4428 61.2223 58.4926 60.801 58.4953 60.4484C58.5161 58.1358 57.9465 55.9516 56.9848 53.8605C56.3908 54.0513 55.746 54.1525 55.2162 54.4554C54.4311 54.9074 53.8977 54.6534 53.3852 54.0675C53.0012 53.3524 52.5602 52.7114 51.6184 52.734C50.4068 53.0957 50.0301 54.063 49.83 55.1633C49.8749 55.2665 49.9538 55.3513 50.0536 55.4037C51.4419 56.0275 51.4419 56.0266 51.2852 57.4831C51.1698 58.6024 51.3002 59.7335 51.6673 60.7974C52.1328 62.1815 52.9107 62.3343 53.9457 61.31C54.6702 60.5958 55.2135 59.7405 55.8393 58.954C56.1399 58.5788 56.436 58.2009 56.8499 57.8782C56.8725 58.9775 56.2323 60.0551 57.0319 61.046Z" fill="#779605"/>
<path d="M56.9812 53.8605C56.9902 55.5782 57.836 57.1214 58.0108 58.8066C58.1014 59.6402 58.3142 60.4728 57.9329 61.291C58.3857 61.6363 58.6383 62.2158 59.2523 62.356C59.8862 61.7846 59.955 60.9176 60.3662 60.2278C60.6867 59.6917 60.9222 59.104 61.5081 58.7813C61.4764 58.285 61.5851 57.9053 62.1882 57.8628C62.9606 57.8085 63.2631 56.6378 64.2184 56.9985C64.1922 56.4958 64.5426 56.2798 64.9166 56.08C65.3477 55.2093 64.846 55.1361 64.1922 55.2762C63.8852 55.3422 63.6045 55.5312 63.3129 55.665C63.1644 56.4117 62.4363 56.4542 61.9464 56.7842C61.758 56.9117 61.5986 56.8945 61.5389 56.6504C61.3795 55.9986 60.7836 55.6948 60.4042 55.2202C59.7077 56.0201 59.3055 57.0333 59.2641 58.0924C58.9707 56.8837 58.8521 55.2374 57.8949 53.856L56.9812 53.8605Z" fill="#B69E56"/>
<path d="M47.5425 55.1488C48.1401 54.8369 48.0568 54.2981 47.9608 53.7927C47.8386 53.1373 47.6484 52.4954 47.5144 51.8426C47.3867 51.2206 46.9113 51.1682 46.4178 51.1194C45.2541 50.8418 44.3802 51.2857 43.9474 52.3742C43.5471 52.9827 43.8052 53.6634 43.7346 54.3089C44.6112 55.4282 46.0075 55.8775 47.0073 56.8403C47.5814 57.3936 48.1646 57.9614 48.9995 58.1684C49.1607 57.8257 48.7206 57.6892 48.7278 57.4044C48.6291 56.6559 48.0939 56.2292 47.5008 55.9227C46.818 55.571 47.4791 55.4001 47.5425 55.1488Z" fill="#7A9409"/>
<path d="M51.5721 50.2939C51.88 50.2831 52.1562 49.5083 52.4949 50.2569C53.0799 50.7333 53.6721 50.7686 54.2725 50.284C55.5113 49.973 56.646 49.2895 57.9853 49.3166C58.4037 49.3248 58.228 48.9903 58.0976 48.7489C57.7508 48.1043 57.2609 47.6306 56.5582 47.3874C55.4715 46.5086 53.8415 46.411 52.7258 47.1568C52.9631 47.6016 53.4113 47.5257 53.8034 47.6089C54.1548 47.6839 54.4183 47.9172 54.4708 48.2788C54.5342 48.71 54.1829 48.7977 53.8677 48.9478C52.6443 49.5309 51.2932 49.6141 50.0118 49.9685C50.4384 50.5335 50.9799 50.5335 51.5721 50.2939Z" fill="#7F960D"/>
<path d="M57.8939 53.8578C58.0659 55.4851 58.8194 56.9641 59.1001 58.8663C59.7449 57.5246 60.1478 56.4018 60.4032 55.222C59.82 53.5169 59.5176 53.2493 58.4273 53.4139C58.1339 53.4527 57.9518 53.5648 57.8939 53.8578Z" fill="#7A9509"/>
<path d="M52.2831 47.1163C52.9967 46.0757 54.2482 45.9862 55.2452 45.4464C55.3611 44.8597 55.1356 44.452 54.5552 44.7856C53.1588 45.5775 51.4645 45.9735 50.5508 47.6542C51.2046 47.5113 51.7751 47.4318 52.2831 47.1163Z" fill="#7F960D"/>
<path d="M45.7466 68.6789C47.2861 70.6109 48.3329 72.8223 49.4006 75.0228C49.512 75.2515 49.6876 75.4486 49.8334 75.6556C50.4854 75.322 50.3605 74.7298 50.2962 74.1838C50.0589 72.1668 49.1932 70.4093 48.0151 68.7838C47.8023 68.49 47.4717 68.2685 47.3902 67.7893C48.3863 67.717 49.2919 68.0606 50.2138 68.264C50.6665 68.3643 51.1356 68.65 51.5902 68.2522C52.254 67.5335 52.0847 66.4224 51.1492 65.3592C50.81 64.8813 50.3239 64.5269 49.7647 64.3497C49.2054 64.1725 48.6036 64.1822 48.0504 64.3774C46.7762 64.5013 45.8625 65.3321 44.8718 66.0047C44.5486 66.2244 44.6962 66.5209 44.8157 66.7985C45.0901 67.4494 45.2893 68.1275 45.7466 68.6789Z" fill="#799509"/>
<path d="M39.8995 69.5487C41.3927 70.3018 42.7275 71.3695 44.3793 71.8089C44.4499 71.7691 44.4789 71.7239 44.4644 71.6724C44.4499 71.6208 44.4327 71.5892 44.4119 71.5892C43.0399 70.6634 42.4468 69.2178 41.9668 67.746C41.764 67.1231 41.5539 67.0309 41.2243 67.5091C40.7661 68.1763 39.5725 68.3807 39.8995 69.5487Z" fill="#7B9506"/>
<path d="M46.003 72.0502C46.153 72.2115 46.3136 72.3625 46.4839 72.5023C46.6251 72.6062 46.8117 72.7337 46.9819 72.5674C47.1522 72.401 47.0652 72.2175 46.9692 72.0557C46.5744 71.3866 46.1705 70.7231 45.7703 70.0577L45.5176 71.3333C45.5077 71.6886 45.6027 71.9752 46.003 72.0502Z" fill="#858A1A"/>
<path d="M46.0029 72.0503L45.5175 71.3334L44.4119 71.5892L44.3793 71.808C45.3844 72.553 45.5022 72.5701 46.0029 72.0503Z" fill="#E7E3AF"/>
<path d="M50.2437 51.8716C49.8217 51.66 49.4042 51.434 48.9206 51.3906C48.8984 51.5724 48.8896 51.7555 48.8944 51.9385C48.9424 52.4511 48.7631 53.2602 49.4676 53.2431C50.0444 53.2295 50.3478 52.5442 50.2437 51.8716Z" fill="#81901A"/>
<path d="M120.026 108.303L118.402 108.085C116.84 108.529 115.345 109.07 113.956 109.984C111.854 111.363 109.7 111.1 107.509 109.959C105.437 108.883 103.11 110.663 102.92 112.78C102.888 113.142 103.024 113.54 102.694 113.838C102.528 114.186 102.409 114.567 102.023 114.755C102.023 117.155 102.954 118.093 105.392 118.142C105.87 118.538 106.316 118.255 106.739 118.052C109.15 116.866 111.572 115.701 113.767 114.134C115.081 113.197 116.551 112.545 117.942 111.75C118.616 111.365 119.375 111.41 120.121 111.448C121.005 111.492 121.888 111.527 122.727 111.157C123.056 109.665 121.935 109.286 120.932 108.798C120.625 108.641 120.141 108.807 120.026 108.303Z" fill="#F7A9A0"/>
<path d="M75.0363 112.943L74.79 112.711C74.3155 112.747 74.1344 112.524 74.1126 112.053C74.0402 110.465 73.0848 109.384 71.9275 108.449C71.4575 108.068 69.324 108.126 68.9056 108.521C66.9668 110.352 64.8949 110.343 62.4761 109.416C61.2536 108.949 60.1217 108.15 58.6293 108.174C56.6099 108.202 55.1972 109.193 53.8117 110.411C53.3291 110.834 53.3526 111.219 53.8461 111.601C54.3143 111.976 54.8332 111.823 55.3412 111.74C57.1804 111.438 58.9182 111.559 60.684 112.359C62.7215 113.282 64.6902 114.341 66.7395 115.241C68.1133 115.844 69.5069 116.153 70.9821 116.018C72.2408 115.902 73.5177 115.909 74.7565 115.622C75.9328 114.559 76.0062 113.862 75.0363 112.943Z" fill="#F7A9A0"/>
<path d="M122.727 111.149C121.575 111.12 120.414 110.989 119.273 111.086C117.423 111.244 115.909 112.31 114.435 113.298C111.759 115.092 108.919 116.568 106.044 117.991C105.85 118.088 105.61 118.092 105.392 118.139C103.866 119.489 101.928 119.996 100.081 120.645C96.1541 122.023 92.2393 123.447 88.1842 124.434C87.9696 124.487 87.889 124.639 87.8473 124.83C89.0391 125.064 90.19 125.497 91.418 125.554C95.0402 124.08 98.6498 122.583 102.285 121.141C104.808 120.138 107.285 119.027 109.812 118.03C110.855 117.618 111.975 117.234 112.922 116.556C114.371 115.524 115.974 115.472 117.644 115.792C119.327 116.116 121.018 116.412 122.625 117.419C122.183 116.627 121.683 116.262 120.614 115.882C119.275 115.408 117.918 114.986 116.514 114.758C115.846 114.65 115.699 114.445 116.216 113.945C116.752 113.422 117.291 112.902 117.801 112.354C118.163 111.968 118.569 111.776 119.094 111.832C120.259 111.957 121.397 111.651 122.55 111.597C122.843 111.577 123.402 111.587 122.727 111.149Z" fill="#323C3F"/>
<path d="M74.7836 115.419C73.1799 115.494 71.5761 115.559 69.9733 115.647C68.2011 115.744 66.6924 114.889 65.2408 114.128C63.293 113.106 61.2735 112.273 59.2713 111.389C57.9936 110.824 56.6851 111.308 55.4019 111.455C54.8839 111.514 54.3695 111.592 53.8461 111.601C53.703 111.635 53.5056 111.692 53.6442 111.864C53.8552 112.135 54.2074 112.091 54.4864 112.039C57.2184 111.528 59.3637 112.874 61.5171 114.214C62.151 114.609 62.794 114.99 63.436 115.373C63.6271 115.487 63.8888 115.579 63.8553 115.837C63.8191 116.13 63.5202 116.052 63.312 116.108C61.8151 116.496 60.2638 116.252 58.7497 116.528C57.3689 116.786 56.0086 117.143 54.6792 117.596C61.3541 116.57 68.0698 116.555 74.7827 116.542C74.9566 116.138 75.461 115.933 75.4574 115.424C75.2373 115.21 75.0109 115.264 74.7836 115.419Z" fill="#323C3F"/>
<path d="M61.2817 101.523C60.7908 102.137 59.955 101.949 59.3302 102.443C58.1049 103.415 56.896 104.476 55.5666 105.24C54.7263 105.723 54.163 106.506 53.2756 106.886C52.7476 107.11 52.4343 107.602 52.4832 108.234C52.5593 108.527 52.7721 108.759 53.0428 108.621C54.6728 107.79 56.5419 108.009 58.2272 107.4C59.1192 107.078 60.1506 107.598 61.048 107.079C60.713 105.865 61.2291 104.729 61.3523 103.553C61.4247 102.879 61.8304 102.182 61.2817 101.523Z" fill="#F8DCC6"/>
<path d="M63.465 106.455C64.1152 103.661 64.9528 100.92 65.8195 98.1894C65.258 97.7374 65.431 98.4407 65.2345 98.561L63.0095 106.462C63.0756 106.564 63.1426 106.665 63.2096 106.767L63.465 106.455Z" fill="#553629"/>
<path d="M152.317 119.709C153.023 119.618 153.569 119.231 153.512 118.438C153.459 117.714 153.037 117.191 152.199 117.215C151.335 117.241 151.047 117.765 151.067 118.543C151.088 119.32 151.502 119.685 152.317 119.709Z" fill="#F7DCC7"/>
<path d="M146.06 109.035C146.141 109.549 146.679 109.958 147.319 109.94C148.034 109.918 148.563 109.384 148.556 108.628C148.55 107.833 147.972 107.391 147.23 107.43C146.465 107.469 146.073 108.019 146.06 109.035Z" fill="#F7DBC8"/>
<path d="M154.686 110.716C155.631 110.684 156.062 110.307 156.031 109.526C155.999 108.745 155.565 108.246 154.772 108.253C154.034 108.258 153.595 108.736 153.577 109.465C153.559 110.286 154.12 110.614 154.686 110.716Z" fill="#F8DCC6"/>
<path d="M149.292 114.541C150.074 114.505 150.442 114.089 150.421 113.324C150.4 112.582 150.029 112.088 149.272 112.092C148.591 112.092 147.977 112.43 147.974 113.194C147.97 113.988 148.424 114.509 149.292 114.541Z" fill="#F8DCC8"/>
<path d="M22.2754 111.069C21.33 113.095 23.0777 113.798 24.0548 114.671C25.4322 115.902 27.0649 116.848 28.589 117.914C28.7774 118.046 29.0092 118.196 29.1776 117.967C29.3461 117.738 29.1034 117.564 28.9567 117.409C28.2431 116.653 27.5512 115.898 26.6022 115.381C24.7739 114.383 23.4391 112.834 22.2754 111.069Z" fill="#C25911"/>
<path d="M29.4864 110.045C29.3723 111.306 29.9727 112.292 30.8882 112.348C31.6381 112.395 32.3607 111.595 32.4603 110.609C32.5798 109.434 31.9867 108.499 31.0802 108.44C29.7726 108.349 29.6277 108.497 29.4864 110.045Z" fill="#F8B27B"/>
<path d="M31.3843 102.401C30.918 102.095 30.4516 102.084 29.9852 102.401C30.0142 103.721 30.3475 104.987 30.688 106.281C31.0918 105.011 31.551 103.766 31.3843 102.401Z" fill="#BF5915"/>
<path d="M28.6515 108.199C29.116 108.256 29.3451 108.121 29.3162 107.734C29.2836 107.302 29.1513 106.891 28.6152 106.925C28.1353 106.956 27.6436 107.287 27.6735 107.705C27.7106 108.225 28.3599 108.094 28.6515 108.199Z" fill="#712B08"/>
<path d="M32.0464 107.519C32.0537 107.971 32.338 108.104 32.7093 108.008C33.0806 107.913 33.6719 107.954 33.6801 107.497C33.6882 107.039 33.1956 106.791 32.7147 106.802C32.2846 106.813 32.0636 107.09 32.0464 107.519Z" fill="#6B2805"/>
<path d="M26.8693 101.501L26.4165 103.032L27.9559 102.381C27.8835 102.093 27.8113 101.805 27.7395 101.516C27.4597 101.027 27.1699 100.98 26.8693 101.501Z" fill="#F7A76C"/>
<path d="M34.5369 102.614C34.5115 102.469 34.5133 102.312 34.4554 102.182C34.2679 101.759 34.162 101.09 33.6123 101.177C33.0626 101.265 33.136 101.908 33.1459 102.384C33.6422 102.266 34.0288 102.803 34.5369 102.614Z" fill="#F8AF67"/>
<path d="M26.8694 101.501C27.1646 101.252 27.4553 101.285 27.7424 101.516C27.7071 101.155 27.9 100.605 27.2579 100.641C26.7173 100.672 26.9011 101.166 26.8694 101.501Z" fill="#D76E25"/>
<path d="M113.772 107.111C113.349 105.89 112.928 104.668 112.509 103.447L112.328 103.494L113.103 106.703C113.367 106.773 113.151 107.628 113.772 107.111Z" fill="#E3BCB3"/>
<path d="M74.7836 115.419H75.4628C77.0321 115.419 78.6005 115.425 80.1717 115.409C80.5158 115.409 81.0591 115.569 81.108 115.086C81.1515 114.656 80.6036 114.754 80.3057 114.684C78.4946 114.257 76.7677 113.599 75.0371 112.941C75.8721 113.862 75.1449 114.622 74.7836 115.419Z" fill="#37474F"/>
<path d="M90.6165 42.1312C89.2817 41.4124 87.9994 41.4477 86.6537 41.897C85.9999 42.1158 86.1004 42.2758 86.4355 42.6998C87.4832 44.0243 89.4854 44.4863 90.6165 42.1312Z" fill="#DA4650"/>
<path d="M90.467 37.2085C92.097 38.269 93.5794 37.779 95.0129 37.346C95.4503 37.214 94.6706 36.6173 95.1687 36.2403C93.6618 36.8117 92.0318 36.5124 90.467 37.2085Z" fill="#743619"/>
<path d="M81.8904 36.2076C82.3975 36.5693 81.568 37.2347 82.1811 37.4046C83.5739 37.7889 85.0019 38.2535 86.4979 37.2545C85.0481 36.4074 83.352 36.9237 81.8904 36.2076Z" fill="#713317"/>
<path d="M81.8878 33.3156C83.123 32.5308 84.4152 32.6086 85.7455 32.9359C86.0443 33.0091 86.4989 33.0715 86.5831 32.6285C86.6737 32.1439 86.2209 31.9956 85.8704 31.9387C84.312 31.6801 83.0152 32.2361 81.8878 33.3156Z" fill="#7A3416"/>
<path d="M95.1 33.2821C94.0921 32.1584 92.7718 31.8058 91.3075 31.9179C90.9054 31.9486 90.4019 32.0987 90.5405 32.6511C90.6654 33.1438 91.1653 32.9946 91.4958 32.9079C92.7455 32.5806 93.9327 32.5941 95.1 33.2821Z" fill="#7A3414"/>
<path d="M30.726 111.389C31.0964 110.56 30.5775 109.532 31.5492 108.889C31.0765 108.595 30.6337 108.564 30.3493 108.854C30.065 109.143 30.6291 109.299 30.6445 109.583C30.6771 110.185 30.6998 110.788 30.726 111.389Z" fill="#915129"/>
</svg>
