<svg xmlns="http://www.w3.org/2000/svg" xmlns:xlink="http://www.w3.org/1999/xlink" width="400" zoomAndPan="magnify" viewBox="0 0 300 299.999988" height="400" preserveAspectRatio="xMidYMid meet" version="1.0"><path fill="currentColor" d="M 134.402344 86.277344 L 134.402344 84.867188 C 134.402344 83.613281 135.5 82.515625 136.753906 82.515625 C 138.007812 82.515625 139.105469 83.613281 139.105469 84.867188 L 139.105469 86.277344 C 139.105469 87.53125 138.007812 88.628906 136.753906 88.628906 C 135.5 88.628906 134.402344 87.53125 134.402344 86.277344 Z M 141.140625 93.332031 L 142.394531 93.332031 C 143.648438 93.332031 144.746094 92.234375 144.746094 90.980469 C 144.746094 89.726562 143.648438 88.628906 142.394531 88.628906 L 141.140625 88.628906 C 139.886719 88.628906 138.789062 89.726562 138.789062 90.980469 C 138.789062 92.234375 139.886719 93.332031 141.140625 93.332031 Z M 136.753906 93.488281 C 135.5 93.488281 134.402344 94.585938 134.402344 95.839844 L 134.402344 97.25 C 134.402344 98.503906 135.5 99.601562 136.753906 99.601562 C 138.007812 99.601562 139.105469 98.503906 139.105469 97.25 L 139.105469 95.839844 C 139.105469 94.585938 138.007812 93.488281 136.753906 93.488281 Z M 130.953125 93.332031 L 132.207031 93.332031 C 133.460938 93.332031 134.558594 92.234375 134.558594 90.980469 C 134.558594 89.726562 133.460938 88.628906 132.207031 88.628906 L 130.953125 88.628906 C 129.699219 88.628906 128.601562 89.726562 128.601562 90.980469 C 128.601562 92.234375 129.699219 93.332031 130.953125 93.332031 Z M 91.605469 196.007812 L 91.605469 194.597656 C 91.605469 193.34375 90.507812 192.246094 89.253906 192.246094 C 88 192.246094 86.902344 193.34375 86.902344 194.597656 L 86.902344 196.007812 C 86.902344 197.261719 88 198.359375 89.253906 198.359375 C 90.507812 198.359375 91.605469 197.261719 91.605469 196.007812 Z M 94.898438 198.515625 L 93.644531 198.515625 C 92.390625 198.515625 91.292969 199.613281 91.292969 200.867188 C 91.292969 202.121094 92.390625 203.21875 93.644531 203.21875 L 94.898438 203.21875 C 96.152344 203.21875 97.25 202.121094 97.25 200.867188 C 97.25 199.613281 96.308594 198.515625 94.898438 198.515625 Z M 89.253906 203.21875 C 88 203.21875 86.902344 204.316406 86.902344 205.570312 L 86.902344 206.980469 C 86.902344 208.238281 88 209.332031 89.253906 209.332031 C 90.507812 209.332031 91.605469 208.238281 91.605469 206.980469 L 91.605469 205.570312 C 91.605469 204.316406 90.507812 203.21875 89.253906 203.21875 Z M 87.058594 200.867188 C 87.058594 199.613281 85.960938 198.515625 84.707031 198.515625 L 83.453125 198.515625 C 82.199219 198.515625 81.101562 199.613281 81.101562 200.867188 C 81.101562 202.121094 82.199219 203.21875 83.453125 203.21875 L 84.707031 203.21875 C 86.117188 203.21875 87.058594 202.121094 87.058594 200.867188 Z M 167.949219 115.433594 C 167.164062 116.53125 167.476562 117.941406 168.417969 118.726562 C 173.433594 122.332031 170.457031 129.230469 169.515625 131.265625 C 169.515625 131.265625 169.515625 131.425781 169.515625 131.425781 C 167.320312 136.125 164.5 141.613281 160.265625 145.847656 C 159.953125 146.160156 159.484375 146.316406 159.167969 146.316406 C 157.914062 146.472656 156.816406 147.570312 156.976562 148.824219 C 157.132812 150.078125 158.230469 151.175781 159.484375 151.019531 C 161.050781 150.863281 162.460938 150.234375 163.714844 149.136719 C 168.261719 144.433594 171.398438 138.476562 173.746094 133.460938 C 175.785156 129.386719 176.882812 124.527344 175.316406 120.136719 C 177.511719 120.136719 179.703125 119.667969 180.800781 118.882812 C 185.976562 115.746094 190.207031 104.929688 192.402344 99.132812 L 192.714844 98.191406 C 193.65625 95.839844 194.753906 90.195312 193.8125 85.179688 C 194.597656 85.335938 195.382812 85.335938 196.164062 85.179688 C 197.574219 84.867188 198.828125 83.769531 199.457031 82.515625 C 203.6875 73.578125 208.546875 63.859375 213.878906 53.984375 C 211.058594 66.996094 210.429688 79.378906 210.117188 88.628906 C 210.117188 90.195312 210.585938 91.605469 211.683594 92.546875 C 212.3125 93.019531 212.9375 93.488281 213.566406 93.644531 C 210.273438 97.09375 209.332031 102.265625 209.175781 103.519531 C 209.175781 103.835938 209.175781 103.992188 209.175781 103.992188 C 208.863281 107.910156 208.390625 111.515625 207.921875 114.808594 C 207.765625 116.21875 208.078125 117.628906 209.019531 118.882812 C 209.488281 119.351562 209.960938 119.824219 210.585938 120.136719 C 207.921875 122.644531 206.039062 126.25 205.257812 127.820312 C 205.257812 127.976562 205.101562 128.132812 205.101562 128.289062 C 203.6875 133.773438 201.964844 139.574219 200.082031 145.375 C 199.613281 146.628906 199.925781 147.882812 200.710938 148.980469 C 201.335938 149.765625 202.121094 150.234375 203.0625 150.390625 C 197.890625 153.058594 195.222656 158.855469 194.910156 159.171875 C 192.714844 164.5 188.328125 173.277344 185.976562 178.136719 C 184.722656 180.804688 185.191406 183.625 186.757812 185.507812 C 185.503906 185.976562 184.40625 186.601562 183.308594 187.386719 C 178.609375 190.679688 175.785156 195.539062 172.964844 200.242188 L 172.808594 200.554688 C 169.828125 205.570312 166.378906 210.429688 162.617188 215.605469 C 161.835938 216.703125 161.675781 217.957031 161.992188 219.210938 C 162.148438 219.835938 162.460938 220.308594 162.929688 220.777344 C 156.660156 222.5 152.273438 227.203125 147.882812 231.90625 C 144.121094 235.984375 140.515625 239.746094 135.96875 241.46875 C 134.714844 241.941406 134.085938 243.351562 134.558594 244.449219 C 134.871094 245.386719 135.8125 246.015625 136.753906 246.015625 C 137.066406 246.015625 137.378906 246.015625 137.535156 245.859375 C 143.023438 243.664062 147.097656 239.273438 151.175781 235.042969 C 156.347656 229.554688 161.207031 224.382812 168.261719 224.695312 C 169.359375 224.695312 170.457031 223.914062 170.613281 222.816406 C 170.925781 221.246094 169.359375 218.894531 166.695312 217.640625 C 170.300781 212.46875 173.589844 207.765625 176.726562 202.75 L 176.882812 202.4375 C 179.390625 198.203125 182.054688 193.816406 185.976562 190.992188 C 186.914062 190.367188 187.855469 189.894531 188.796875 189.582031 C 189.109375 189.582031 189.894531 189.425781 190.519531 189.425781 C 192.871094 189.113281 193.65625 189.113281 194.285156 188.015625 C 194.441406 187.699219 194.597656 187.230469 194.597656 186.917969 C 194.597656 184.878906 190.835938 182.683594 190.835938 182.683594 C 190.050781 182.214844 189.738281 181.117188 190.207031 180.332031 C 192.558594 175.472656 196.949219 166.539062 199.144531 161.207031 C 199.144531 161.050781 203.21875 152.742188 209.644531 153.996094 C 210.585938 154.152344 211.527344 153.839844 211.996094 153.058594 C 212.46875 152.273438 212.46875 151.332031 211.996094 150.546875 C 211.839844 150.390625 209.332031 146.472656 204.941406 146.003906 C 206.824219 140.515625 208.390625 135.03125 209.644531 129.855469 C 211.527344 125.9375 214.503906 122.019531 217.015625 122.332031 C 218.109375 122.488281 219.207031 121.863281 219.523438 120.765625 C 219.835938 119.667969 219.523438 118.570312 218.582031 117.941406 C 218.269531 117.785156 216.074219 116.375 213.09375 116.375 C 212.78125 116.375 212.78125 116.21875 212.625 116.21875 C 212.46875 116.0625 212.46875 116.0625 212.625 115.90625 C 213.09375 112.457031 213.566406 108.851562 213.878906 104.773438 L 213.878906 104.617188 C 214.035156 103.835938 215.289062 96.308594 220.304688 95.210938 C 221.089844 95.054688 221.875 94.429688 222.03125 93.644531 C 222.34375 92.859375 222.03125 91.921875 221.402344 91.292969 C 221.246094 91.136719 219.050781 89.097656 215.132812 89.570312 C 214.976562 89.570312 214.976562 89.570312 214.820312 89.414062 C 214.820312 89.414062 214.664062 89.253906 214.664062 89.097656 C 215.289062 74.832031 216.230469 53.199219 225.792969 33.761719 C 226.417969 32.664062 225.949219 31.253906 224.851562 30.628906 C 223.753906 30 222.34375 30.3125 221.714844 31.410156 C 211.058594 48.183594 202.433594 65.585938 195.222656 80.632812 C 195.222656 80.632812 195.066406 80.789062 195.066406 80.789062 C 195.066406 80.789062 194.753906 80.789062 194.597656 80.632812 C 192.089844 78.753906 189.582031 78.753906 189.265625 78.753906 C 188.328125 78.753906 187.386719 79.378906 187.074219 80.320312 C 186.757812 81.261719 186.914062 82.203125 187.699219 82.984375 C 190.679688 85.648438 189.582031 93.957031 188.484375 96.78125 L 188.171875 97.71875 C 186.445312 102.265625 182.371094 112.769531 178.449219 115.121094 C 177.351562 115.746094 172.335938 115.746094 171.398438 115.121094 C 170.140625 114.179688 168.730469 114.492188 167.949219 115.433594 Z M 256.832031 167.320312 C 246.484375 174.21875 234.882812 192.246094 232.21875 197.578125 C 233.160156 198.359375 233.789062 199.457031 233.945312 200.242188 C 234.257812 201.027344 233.945312 201.964844 233.316406 202.59375 C 232.691406 203.21875 231.75 203.375 230.964844 203.0625 C 229.085938 202.90625 222.972656 209.804688 221.089844 213.253906 C 222.03125 214.191406 222.5 215.132812 222.65625 215.289062 C 223.128906 216.230469 222.972656 217.484375 222.1875 218.269531 C 221.558594 218.894531 220.621094 219.054688 219.835938 218.738281 C 217.640625 219.367188 210.585938 226.265625 206.980469 231.4375 C 206.824219 231.75 206.824219 231.90625 206.824219 231.90625 C 207.453125 232.847656 207.453125 234.257812 206.511719 235.042969 C 205.570312 235.828125 204.316406 235.828125 203.375 235.042969 C 200.554688 234.101562 186.601562 244.761719 183.308594 248.835938 C 183.78125 249.933594 183.78125 250.71875 183.78125 250.875 C 183.78125 251.816406 183.46875 252.597656 182.683594 253.070312 C 181.898438 253.539062 181.117188 253.539062 180.332031 253.070312 C 177.039062 252.441406 161.207031 260.75 156.347656 264.042969 C 156.816406 265.453125 156.660156 266.550781 156.660156 266.863281 C 156.503906 267.648438 156.035156 268.277344 155.25 268.589844 C 154.464844 268.902344 153.683594 268.746094 153.054688 268.433594 C 152.113281 267.804688 151.175781 267.492188 150.078125 267.179688 C 148.507812 266.863281 146.785156 267.023438 145.0625 267.492188 C 143.808594 267.960938 140.359375 268.902344 136.125 269.6875 C 134.871094 269.84375 133.304688 270 131.734375 270 C 130.167969 270 128.601562 269.84375 127.347656 269.53125 C 127.191406 269.53125 127.191406 269.53125 127.035156 269.53125 L 86.746094 269.53125 C 82.828125 269.53125 79.691406 266.394531 79.691406 262.476562 L 79.691406 231.90625 C 71.855469 227.832031 65.269531 218.113281 64.171875 207.609375 C 57.273438 159.796875 53.355469 116.53125 52.257812 75.460938 C 49.4375 74.832031 47.242188 72.480469 46.773438 69.347656 L 42.070312 47.398438 C 41.914062 46.773438 42.070312 45.988281 42.539062 45.363281 C 43.011719 44.890625 43.636719 44.578125 44.421875 44.578125 L 169.515625 44.578125 C 170.300781 44.578125 170.925781 44.890625 171.398438 45.519531 C 171.867188 46.144531 172.023438 46.773438 171.867188 47.558594 L 167.164062 69.503906 C 166.695312 72.640625 164.5 74.988281 161.675781 75.617188 C 160.582031 116.6875 156.660156 159.953125 149.921875 207.921875 C 148.667969 218.269531 142.082031 227.988281 134.402344 232.222656 L 134.402344 262.789062 C 134.402344 263.730469 134.246094 264.671875 133.773438 265.609375 C 134.402344 265.609375 134.871094 265.453125 135.339844 265.453125 C 139.417969 264.671875 142.550781 263.730469 143.808594 263.417969 C 146.316406 262.632812 148.824219 262.476562 151.175781 262.945312 C 151.332031 262.945312 151.332031 262.945312 151.488281 262.945312 C 151.644531 262.632812 151.800781 262.476562 151.957031 262.160156 C 152.742188 261.378906 169.359375 250.71875 178.449219 248.992188 C 178.449219 247.582031 179.863281 245.546875 185.191406 241 C 189.738281 237.082031 197.105469 231.4375 202.433594 230.652344 C 202.59375 230.027344 202.90625 229.398438 203.21875 228.773438 C 205.570312 225.480469 211.683594 218.269531 216.386719 215.289062 C 216.074219 214.664062 215.917969 213.566406 216.699219 212.15625 C 217.328125 210.902344 222.34375 202.90625 227.515625 199.769531 C 227.359375 199.457031 227.203125 199.144531 227.203125 198.832031 C 227.046875 196.636719 233.472656 185.664062 241.3125 176.101562 C 240.683594 176.414062 240.058594 176.882812 239.273438 177.199219 C 220.933594 187.699219 219.992188 187.859375 218.425781 187.386719 C 217.953125 187.230469 217.484375 186.917969 217.171875 186.445312 C 209.332031 195.382812 198.671875 197.890625 193.8125 198.046875 C 192.558594 200.867188 188.796875 202.75 185.820312 203.691406 C 184.5625 204.160156 183.308594 203.535156 182.839844 202.28125 C 182.371094 201.027344 182.996094 199.769531 184.25 199.300781 C 187.855469 198.046875 189.425781 196.480469 189.425781 196.164062 C 188.953125 194.910156 189.425781 193.65625 190.679688 193.1875 C 191.460938 192.875 192.402344 193.03125 193.03125 193.5 C 195.539062 193.816406 207.609375 191.933594 215.132812 181.429688 C 215.917969 180.488281 217.171875 180.175781 218.269531 180.804688 C 218.425781 180.804688 219.207031 181.429688 219.992188 182.371094 C 223.128906 180.960938 230.496094 176.726562 236.765625 173.121094 C 243.035156 169.515625 249.621094 165.753906 254.324219 163.402344 C 255.421875 162.777344 256.832031 163.246094 257.457031 164.34375 C 258.085938 165.441406 257.929688 166.695312 256.832031 167.320312 Z M 51.476562 68.71875 C 51.632812 69.972656 52.574219 70.914062 53.667969 70.914062 L 54.296875 70.914062 C 89.253906 63.546875 124.683594 63.546875 159.484375 70.914062 L 160.109375 70.914062 C 161.207031 70.914062 162.148438 69.972656 162.304688 68.71875 C 162.304688 68.71875 162.304688 68.5625 162.304688 68.5625 L 166.378906 49.4375 L 159.796875 49.4375 L 156.816406 61.664062 C 156.503906 62.761719 155.5625 63.390625 154.625 63.390625 C 154.464844 63.390625 154.152344 63.390625 153.996094 63.234375 C 152.742188 62.917969 151.957031 61.664062 152.273438 60.410156 L 155.25 49.28125 L 149.292969 49.28125 L 147.882812 54.925781 C 147.570312 56.023438 146.628906 56.648438 145.53125 56.648438 C 145.375 56.648438 145.0625 56.648438 144.902344 56.648438 C 143.648438 56.335938 142.867188 55.082031 143.179688 53.828125 L 144.277344 49.4375 L 138.320312 49.4375 L 136.4375 56.804688 C 136.125 57.902344 135.183594 58.53125 134.085938 58.53125 C 133.929688 58.53125 133.773438 58.53125 133.460938 58.53125 C 132.207031 58.21875 131.421875 56.960938 131.734375 55.707031 L 133.304688 49.4375 L 84.238281 49.4375 L 85.023438 54.140625 C 85.179688 55.394531 84.394531 56.648438 82.984375 56.804688 C 82.828125 56.804688 82.671875 56.804688 82.671875 56.804688 C 81.574219 56.804688 80.476562 56.023438 80.320312 54.769531 L 79.535156 49.4375 L 71.382812 49.4375 L 72.949219 58.53125 C 73.109375 59.785156 72.324219 61.039062 71.070312 61.195312 C 70.914062 61.195312 70.757812 61.195312 70.601562 61.195312 C 69.503906 61.195312 68.40625 60.410156 68.25 59.3125 L 66.523438 49.4375 L 59.625 49.4375 L 60.878906 56.804688 C 61.039062 58.058594 60.253906 59.3125 59 59.472656 C 58.84375 59.472656 58.6875 59.472656 58.527344 59.472656 C 57.433594 59.472656 56.492188 58.6875 56.179688 57.589844 L 54.765625 49.4375 L 47.242188 49.4375 L 51.316406 68.5625 C 51.316406 68.5625 51.476562 68.5625 51.476562 68.71875 Z M 86.277344 229.242188 C 100.070312 230.652344 113.867188 230.652344 127.660156 229.242188 C 135.65625 228.300781 143.964844 217.957031 145.21875 207.140625 C 151.957031 159.328125 155.878906 116.21875 156.976562 75.148438 C 123.742188 68.40625 90.195312 68.40625 56.960938 75.148438 C 58.058594 116.0625 61.976562 159.171875 68.71875 206.980469 C 69.972656 217.957031 78.125 228.300781 86.277344 229.242188 Z M 84.238281 233.632812 L 84.238281 248.054688 L 99.128906 248.054688 C 100.070312 248.054688 100.855469 248.679688 101.324219 249.464844 C 102.265625 251.660156 104.304688 253.226562 106.496094 253.539062 C 109.320312 253.855469 111.984375 252.128906 113.238281 249.464844 C 113.550781 248.679688 114.492188 248.054688 115.433594 248.054688 L 129.542969 248.054688 L 129.542969 233.632812 C 129.070312 233.789062 128.601562 233.789062 128.128906 233.945312 C 121.078125 234.730469 114.023438 235.042969 106.96875 235.042969 C 99.914062 235.042969 92.859375 234.730469 85.804688 233.945312 C 85.179688 233.789062 84.707031 233.789062 84.238281 233.632812 Z M 86.746094 264.984375 L 127.191406 264.984375 C 128.601562 264.984375 129.699219 263.886719 129.699219 262.632812 L 129.699219 252.914062 L 117 252.914062 C 114.964844 256.203125 111.199219 258.398438 107.4375 258.398438 C 107.125 258.398438 106.65625 258.398438 106.339844 258.398438 C 102.890625 258.085938 99.914062 256.046875 98.03125 252.914062 L 84.550781 252.914062 L 84.550781 262.632812 C 84.238281 263.886719 85.335938 264.984375 86.746094 264.984375 Z M 163.558594 198.203125 C 164.96875 198.203125 166.222656 196.949219 166.222656 195.539062 C 166.222656 194.128906 164.96875 192.875 163.558594 192.875 C 162.148438 192.875 160.894531 194.128906 160.894531 195.539062 C 160.894531 196.949219 162.148438 198.203125 163.558594 198.203125 Z M 163.871094 175.003906 C 165.28125 175.003906 166.535156 173.75 166.535156 172.339844 C 166.535156 170.925781 165.28125 169.671875 163.871094 169.671875 C 162.460938 169.671875 161.207031 170.925781 161.207031 172.339844 C 161.207031 173.75 162.460938 175.003906 163.871094 175.003906 Z M 182.996094 162.777344 C 184.40625 162.777344 185.660156 161.523438 185.660156 160.109375 C 185.660156 158.699219 184.40625 157.289062 182.996094 157.289062 C 181.585938 157.289062 180.332031 158.542969 180.332031 159.953125 C 180.332031 161.363281 181.429688 162.777344 182.996094 162.777344 Z M 222.1875 197.105469 C 222.1875 195.695312 220.933594 194.441406 219.523438 194.441406 C 218.109375 194.441406 216.855469 195.695312 216.855469 197.105469 C 216.855469 198.515625 218.109375 199.769531 219.523438 199.769531 C 220.933594 199.769531 222.1875 198.675781 222.1875 197.105469 Z M 201.023438 208.394531 C 202.433594 208.394531 203.6875 207.140625 203.6875 205.726562 C 203.6875 204.316406 202.433594 203.0625 201.023438 203.0625 C 199.613281 203.0625 198.359375 204.316406 198.359375 205.726562 C 198.359375 207.140625 199.457031 208.394531 201.023438 208.394531 Z M 177.667969 217.328125 C 177.667969 218.738281 178.921875 219.992188 180.332031 219.992188 C 181.742188 219.992188 182.996094 218.738281 182.996094 217.328125 C 182.996094 215.917969 181.742188 214.664062 180.332031 214.664062 C 178.921875 214.664062 177.667969 215.761719 177.667969 217.328125 Z M 195.695312 221.5625 C 194.285156 221.5625 193.03125 222.816406 193.03125 224.226562 C 193.03125 225.636719 194.285156 226.890625 195.695312 226.890625 C 197.105469 226.890625 198.359375 225.636719 198.359375 224.226562 C 198.359375 222.816406 197.261719 221.5625 195.695312 221.5625 Z M 166.222656 240.058594 C 164.8125 240.058594 163.558594 241.3125 163.558594 242.722656 C 163.558594 244.132812 164.8125 245.386719 166.222656 245.386719 C 167.632812 245.386719 168.886719 244.132812 168.886719 242.722656 C 168.886719 241.3125 167.632812 240.058594 166.222656 240.058594 Z M 140.984375 253.226562 C 140.984375 254.636719 142.238281 255.890625 143.648438 255.890625 C 145.0625 255.890625 146.316406 254.636719 146.316406 253.226562 C 146.316406 251.816406 145.0625 250.5625 143.648438 250.5625 C 142.238281 250.40625 140.984375 251.660156 140.984375 253.226562 Z M 182.996094 140.984375 C 184.40625 140.984375 185.660156 139.730469 185.660156 138.320312 C 185.660156 136.910156 184.40625 135.65625 182.996094 135.65625 C 181.585938 135.65625 180.332031 136.910156 180.332031 138.320312 C 180.332031 139.730469 181.429688 140.984375 182.996094 140.984375 Z M 199.457031 123.742188 C 200.867188 123.742188 202.121094 122.488281 202.121094 121.078125 C 202.121094 119.667969 200.867188 118.414062 199.457031 118.414062 C 198.046875 118.414062 196.792969 119.667969 196.792969 121.078125 C 196.792969 122.488281 198.046875 123.742188 199.457031 123.742188 Z M 199.769531 106.34375 C 201.179688 106.34375 202.433594 105.089844 202.433594 103.675781 C 202.433594 102.265625 201.179688 101.011719 199.769531 101.011719 C 198.359375 101.011719 197.105469 102.265625 197.105469 103.675781 C 197.105469 105.089844 198.359375 106.34375 199.769531 106.34375 Z M 89.253906 138.636719 L 125.308594 138.636719 C 126.5625 138.636719 127.660156 137.539062 127.660156 136.285156 C 127.660156 135.03125 126.5625 133.933594 125.308594 133.933594 L 89.253906 133.933594 C 88 133.933594 86.902344 135.03125 86.902344 136.285156 C 86.902344 137.539062 87.84375 138.636719 89.253906 138.636719 Z M 137.691406 146.160156 C 137.691406 144.90625 136.597656 143.808594 135.339844 143.808594 L 79.066406 143.808594 C 77.8125 143.808594 76.714844 144.90625 76.714844 146.160156 C 76.714844 147.414062 77.8125 148.511719 79.066406 148.511719 L 135.339844 148.511719 C 136.753906 148.511719 137.691406 147.414062 137.691406 146.160156 Z M 137.691406 146.160156 " fill-opacity="1" fill-rule="nonzero"/></svg>