<svg xmlns="http://www.w3.org/2000/svg" xmlns:xlink="http://www.w3.org/1999/xlink" width="400" zoomAndPan="magnify" viewBox="0 0 300 299.999988" height="400" preserveAspectRatio="xMidYMid meet" version="1.0"><defs><clipPath id="94a292641f"><path d="M 118.429688 30 L 185 30 L 185 270 L 118.429688 270 Z M 118.429688 30 " clip-rule="nonzero"/></clipPath></defs><g clip-path="url(#94a292641f)"><path fill="currentColor" d="M 182.28125 83.15625 L 182.726562 83.070312 L 182.808594 82.078125 C 182.828125 81.964844 182.828125 81.832031 182.828125 81.714844 L 182.828125 42.195312 C 182.828125 35.472656 177.363281 30.03125 170.644531 30.011719 L 132.449219 30.011719 C 125.710938 30.011719 120.265625 35.472656 120.265625 42.195312 L 120.265625 81.730469 C 120.265625 81.863281 120.285156 81.980469 120.300781 82.226562 L 120.351562 83.253906 L 120.863281 83.253906 C 119.308594 84.742188 118.429688 86.8125 118.429688 88.964844 L 118.429688 261.992188 C 118.429688 266.394531 122.003906 269.96875 126.425781 269.988281 L 176.835938 269.988281 C 181.238281 269.988281 184.8125 266.414062 184.828125 261.992188 L 184.828125 88.964844 C 184.8125 86.761719 183.902344 84.660156 182.28125 83.15625 Z M 122.402344 81.117188 L 122.402344 42.195312 C 122.417969 36.648438 126.902344 32.164062 132.449219 32.164062 L 170.660156 32.164062 C 176.207031 32.164062 180.691406 36.664062 180.691406 42.195312 L 180.675781 81.117188 L 178.109375 81.117188 C 177.679688 81.035156 177.265625 81.003906 176.820312 80.988281 L 126.425781 80.988281 C 125.992188 80.988281 125.5625 81.035156 125.132812 81.117188 Z M 182.414062 262.011719 C 182.414062 265.089844 179.914062 267.585938 176.835938 267.585938 L 126.425781 267.585938 C 123.347656 267.585938 120.847656 265.089844 120.847656 262.011719 L 120.847656 88.964844 C 120.847656 85.886719 123.347656 83.386719 126.425781 83.386719 L 176.835938 83.386719 C 179.914062 83.386719 182.414062 85.886719 182.414062 88.964844 Z M 182.414062 262.011719 " fill-opacity="1" fill-rule="nonzero"/></g><path fill="currentColor" d="M 149.742188 143.808594 C 150.089844 143.808594 150.371094 143.527344 150.371094 143.179688 C 150.371094 142.832031 150.089844 142.550781 149.742188 142.550781 C 148.484375 142.550781 147.242188 140.75 147.242188 139.390625 C 147.242188 139.042969 146.960938 138.761719 146.613281 138.761719 C 146.265625 138.761719 145.984375 139.042969 145.984375 139.390625 C 146.003906 141.394531 147.742188 143.808594 149.742188 143.808594 Z M 149.742188 143.808594 " fill-opacity="1" fill-rule="nonzero"/><path fill="currentColor" d="M 151.84375 146.257812 C 156.164062 146.257812 159.671875 142.75 159.691406 138.414062 C 159.691406 134.558594 157.089844 131.214844 155.003906 128.519531 C 153.699219 126.828125 152.472656 125.242188 152.472656 124.199219 C 152.472656 123.851562 152.191406 123.570312 151.84375 123.570312 C 151.496094 123.570312 151.214844 123.851562 151.214844 124.199219 C 151.214844 125.242188 149.992188 126.828125 148.683594 128.519531 C 146.597656 131.214844 144 134.574219 144 138.414062 C 144.015625 142.75 147.523438 146.257812 151.84375 146.257812 Z M 149.675781 129.28125 C 150.570312 128.136719 151.332031 127.128906 151.84375 126.199219 C 152.359375 127.128906 153.136719 128.136719 154.011719 129.28125 C 155.980469 131.828125 158.433594 135.003906 158.433594 138.429688 C 158.433594 142.074219 155.484375 145.035156 151.828125 145.035156 C 148.171875 145.035156 145.226562 142.089844 145.226562 138.429688 C 145.257812 135.003906 147.707031 131.828125 149.675781 129.28125 Z M 149.675781 129.28125 " fill-opacity="1" fill-rule="nonzero"/></svg>