<svg xmlns="http://www.w3.org/2000/svg" xmlns:xlink="http://www.w3.org/1999/xlink" width="400" zoomAndPan="magnify" viewBox="0 0 300 299.999988" height="400" preserveAspectRatio="xMidYMid meet" version="1.0"><path fill="#a9a0f0" d="M 96.761719 78.921875 C 99.292969 78.160156 100.46875 76.726562 100.527344 74.238281 C 100.566406 72.550781 100.367188 70.859375 100.265625 69.007812 C 99.484375 68.953125 98.824219 68.847656 98.164062 68.867188 C 96.449219 68.917969 95.757812 69.570312 95.453125 71.277344 C 94.972656 73.941406 95.675781 76.382812 96.761719 78.921875 Z M 37.917969 172.960938 C 39.789062 168.242188 38.640625 164.207031 36.28125 160.371094 C 35.785156 159.558594 35.117188 158.742188 33.949219 159.105469 C 32.898438 159.433594 32.511719 160.3125 32.351562 161.308594 C 32.285156 161.710938 32.238281 162.136719 32.308594 162.53125 C 32.945312 166.179688 34.253906 169.53125 36.769531 172.320312 C 37.007812 172.582031 37.421875 172.691406 37.917969 172.960938 Z M 155.03125 112.554688 C 155.070312 112.421875 155.105469 112.289062 155.144531 112.15625 C 154.492188 111.710938 153.898438 111.03125 153.179688 110.855469 C 148.308594 109.644531 143.605469 107.613281 138.191406 107.570312 C 138.980469 108.851562 140.46875 109.296875 140.605469 110.734375 C 137.410156 110.863281 133.992188 108.519531 132.5 105.265625 C 130.171875 100.191406 127.234375 95.476562 123.828125 91.066406 C 119.15625 85.015625 113.941406 79.472656 108.054688 74.578125 C 106.492188 73.277344 104.847656 72.078125 103.179688 70.785156 C 102.664062 72.480469 102.277344 73.945312 101.773438 75.363281 C 101.253906 76.824219 100.621094 78.242188 99.984375 79.8125 C 104.085938 81.886719 107.523438 85.117188 110.824219 88.511719 C 111.921875 89.644531 112.925781 90.886719 114.105469 91.925781 C 117.613281 95.019531 120.296875 98.703125 122.277344 102.917969 C 123.386719 105.277344 124.535156 107.617188 125.570312 110.007812 C 126.140625 111.324219 126.589844 112.710938 126.941406 114.101562 C 127.453125 116.121094 127.035156 116.566406 124.875 116.59375 C 123.902344 117.703125 122.9375 118.804688 121.96875 119.90625 C 121.894531 117.988281 122.613281 116.597656 124.0625 115.613281 C 124.800781 115.105469 124.789062 115.089844 124.507812 114.117188 C 122.980469 115.40625 121.398438 116.707031 119.863281 118.054688 C 118.886719 118.917969 117.910156 119.796875 117.0625 120.777344 C 116.0625 121.925781 115.445312 123.257812 115.875 124.730469 C 117.988281 124.21875 119.964844 123.6875 121.96875 123.269531 C 124.621094 122.722656 127.003906 123.355469 129.070312 125.128906 C 129.640625 125.617188 130.207031 126.136719 130.84375 126.53125 C 132.277344 127.414062 133.414062 127.097656 133.921875 125.542969 C 134.429688 124 134.824219 122.390625 135.027344 120.78125 C 135.285156 118.746094 136.105469 117.84375 138.203125 117.84375 C 139.234375 117.839844 140.261719 117.941406 141.292969 117.960938 C 142.601562 117.988281 143.871094 117.828125 144.949219 117.082031 C 145.101562 114.285156 145.285156 114.027344 147.9375 113.441406 C 148.867188 113.234375 149.835938 113.195312 150.789062 113.078125 C 152.203125 112.90625 153.617188 112.730469 155.03125 112.554688 Z M 99.726562 186.035156 C 99.335938 184.554688 99.066406 183.222656 98.625 181.949219 C 98.242188 180.847656 98.066406 179.761719 98.675781 178.769531 C 99.886719 176.808594 100.84375 174.628906 103.234375 173.648438 C 104.449219 173.152344 104.480469 172.519531 103.816406 171.363281 C 103.1875 170.269531 102.050781 170.144531 101.039062 169.769531 C 98.679688 168.890625 98.074219 167.464844 99.292969 165.285156 C 100.738281 162.703125 102.390625 160.277344 104.621094 158.253906 C 105.558594 157.398438 106.308594 156.265625 106.90625 155.132812 C 107.457031 154.097656 107.046875 153.523438 106.042969 152.816406 C 104.488281 151.714844 102.949219 152.285156 101.636719 153.027344 C 98.945312 154.539062 96.894531 156.753906 95.605469 159.601562 C 95.398438 160.058594 95.308594 160.558594 95.125 161.167969 C 96.109375 160.824219 96.449219 159.660156 97.761719 160.019531 C 95.433594 164.226562 92.074219 167.765625 91.351562 172.789062 C 92.179688 172.6875 92.851562 172.492188 93.496094 172.570312 C 93.875 172.613281 94.34375 173.015625 94.507812 173.378906 C 94.609375 173.601562 94.265625 174.09375 94.023438 174.386719 C 93.871094 174.578125 93.554688 174.65625 93.296875 174.730469 C 91.308594 175.328125 89.328125 175.703125 87.210938 175.4375 C 84.625 175.109375 82.007812 174.851562 79.40625 174.851562 C 75.667969 174.859375 71.964844 174.535156 68.371094 173.632812 C 61.851562 171.996094 55.378906 170.144531 48.921875 168.261719 C 47.371094 167.808594 45.910156 166.964844 44.496094 166.148438 C 43.058594 165.316406 41.730469 164.296875 40.355469 163.359375 C 41.289062 167.078125 41.414062 170.660156 40.433594 174.21875 C 42.734375 175.355469 44.828125 176.5625 47.050781 177.449219 C 52.027344 179.433594 57.082031 181.125 62.523438 181.4375 C 69.542969 181.84375 76.519531 181.449219 83.484375 180.632812 C 86.246094 180.3125 88.605469 181.300781 90.90625 182.585938 C 91.773438 183.074219 92.292969 183.910156 91.820312 184.832031 C 91.257812 185.9375 91.496094 186.957031 91.703125 188.03125 C 91.957031 189.308594 92.199219 190.589844 92.449219 191.867188 C 92.28125 191.9375 92.113281 192.003906 91.945312 192.066406 C 91.207031 190.820312 90.464844 189.566406 89.71875 188.320312 C 89.933594 192.175781 89.894531 196.054688 91.261719 199.761719 C 92.027344 201.839844 93.496094 203.144531 95.546875 204.167969 C 95.949219 203.695312 96.519531 203.3125 96.6875 202.792969 C 97.59375 200 98.371094 197.175781 98.351562 194.199219 C 98.347656 193.367188 98.375 192.644531 97.535156 192.039062 C 96.316406 191.167969 96.277344 189.894531 96.707031 188.511719 C 97.125 187.167969 98.144531 186.574219 99.726562 186.035156 Z M 267.90625 165.644531 C 266.289062 163.660156 265.929688 163.484375 263.5 163.511719 C 259.796875 163.550781 256.335938 164.636719 252.894531 165.878906 C 251.285156 166.460938 249.636719 167.050781 247.957031 167.277344 C 243.945312 167.824219 239.914062 168.253906 235.875 168.546875 C 230.398438 168.949219 224.90625 169.175781 219.421875 169.480469 C 219.078125 169.5 218.738281 169.542969 218.398438 169.59375 C 212.582031 170.472656 206.777344 170.621094 200.957031 169.59375 C 199.585938 169.355469 198.15625 169.441406 196.449219 169.367188 C 198.230469 174.371094 199.863281 179.019531 201.550781 183.652344 C 201.777344 184.273438 202.226562 184.835938 202.65625 185.359375 C 204.832031 188.015625 207.132812 190.578125 209.1875 193.320312 C 210.140625 194.582031 210.972656 195.078125 212.589844 194.746094 C 222.535156 192.699219 231.773438 188.976562 240.226562 183.332031 C 241.769531 182.304688 243.324219 181.296875 244.894531 180.304688 C 245.449219 179.953125 246.058594 179.691406 246.644531 179.386719 C 236.851562 188.765625 224.898438 193.765625 211.640625 196.589844 C 212.613281 197.859375 213.390625 198.871094 214.160156 199.875 C 215.636719 199.375 216.972656 199.019531 218.222656 198.480469 C 226.367188 194.953125 234.421875 191.269531 241.582031 185.90625 C 243.285156 184.628906 244.988281 183.339844 246.765625 182.175781 C 250.140625 179.96875 252.910156 177.097656 255.621094 174.1875 C 259.074219 170.484375 262.683594 167.0625 267.90625 165.644531 Z M 197.546875 180.359375 C 197.621094 180.277344 197.699219 180.195312 197.777344 180.113281 C 196.582031 176.253906 195.347656 172.40625 194.203125 168.535156 C 193.085938 164.761719 191.664062 161.144531 189.605469 157.773438 C 188.351562 155.722656 187.207031 153.601562 186.160156 151.441406 C 183.667969 146.316406 181.367188 141.097656 178.796875 136.019531 C 175.585938 129.683594 171.386719 124.136719 165.257812 120.277344 C 164.445312 119.765625 163.695312 119.152344 162.933594 118.5625 C 160.820312 116.929688 158.671875 115.492188 155.898438 115.03125 C 153.894531 114.699219 151.960938 114.578125 149.976562 114.902344 C 149.105469 115.042969 148.417969 115.34375 148.175781 116.316406 C 147.882812 117.507812 147.054688 118.121094 145.855469 118.363281 C 144.109375 118.714844 142.378906 119.164062 140.632812 119.527344 C 139.574219 119.75 138.714844 120.066406 138.359375 121.28125 C 138.15625 121.972656 137.597656 122.566406 137.167969 123.183594 C 136.390625 124.304688 135.515625 125.363281 134.8125 126.53125 C 133.402344 128.863281 131.3125 129.359375 129.085938 127.769531 C 128.640625 127.449219 128.230469 127.078125 127.832031 126.699219 C 127.128906 126.023438 126.398438 125.777344 125.402344 126.125 C 124.789062 126.339844 124.058594 126.242188 123.382812 126.230469 C 121.941406 126.207031 120.5 126.074219 119.0625 126.125 C 117.386719 126.1875 116.5 126.847656 116.132812 128.503906 C 115.167969 132.867188 114.355469 137.238281 115.183594 141.753906 C 116.253906 147.546875 118.328125 152.972656 120.832031 158.269531 C 122.179688 161.128906 123.597656 163.957031 124.789062 166.878906 C 126.148438 170.21875 127.90625 173.292969 130.046875 176.175781 C 133.78125 181.203125 137.566406 186.164062 142.5625 190.066406 C 146.296875 192.980469 149.910156 196.054688 153.628906 198.988281 C 155.40625 200.394531 157.304688 201.636719 159.152344 202.953125 C 163.5625 206.105469 167.976562 209.261719 172.390625 212.40625 C 172.558594 212.527344 172.773438 212.574219 172.964844 212.652344 C 172.453125 211.464844 171.75 210.542969 171.070312 209.601562 C 170.414062 208.691406 169.648438 207.828125 169.464844 206.414062 C 170.53125 206.464844 171.050781 207.003906 171.503906 207.574219 C 172.746094 209.132812 173.921875 210.742188 175.179688 212.28125 C 176.046875 213.339844 176.921875 214.425781 177.949219 215.316406 C 182.839844 219.5625 188.621094 222.027344 194.878906 223.363281 C 200.382812 224.535156 205.910156 225.652344 211.476562 226.457031 C 215.054688 226.972656 218.734375 227.113281 222.351562 226.996094 C 226.113281 226.878906 229.863281 226.261719 233.613281 225.835938 C 234.21875 225.769531 234.808594 225.5625 235.671875 225.355469 C 233.417969 224.039062 231 224.414062 228.726562 223.28125 C 230.558594 222.296875 232.140625 222.523438 233.660156 222.808594 C 237.296875 223.5 240.96875 224.101562 244.269531 225.960938 C 244.859375 226.296875 245.511719 226.574219 246.167969 226.75 C 249.113281 227.53125 251.949219 228.503906 254.066406 230.78125 C 255.644531 229.804688 255.886719 229.457031 255.429688 227.917969 C 254.269531 224.03125 251.742188 221.085938 248.191406 219.355469 C 245.386719 217.988281 242.28125 217.167969 239.238281 216.378906 C 235.710938 215.464844 232.175781 214.644531 228.878906 213.03125 C 226.65625 211.945312 224.5 210.703125 222.199219 209.824219 C 218.503906 208.410156 215.6875 206.039062 213.652344 202.71875 C 211.273438 198.84375 208.148438 195.5625 205.316406 192.046875 C 202.773438 188.890625 200.25 185.71875 197.789062 182.5 C 194.625 178.351562 191.511719 174.164062 188.410156 169.96875 C 187.144531 168.257812 185.9375 166.496094 184.777344 164.714844 C 184.40625 164.144531 184.269531 163.421875 183.878906 162.375 C 185.359375 162.773438 185.976562 163.507812 186.507812 164.269531 C 188.902344 167.707031 191.261719 171.167969 193.628906 174.621094 C 194.941406 176.53125 196.238281 178.445312 197.546875 180.359375 Z M 161.214844 207.042969 C 161.214844 207.042969 161.257812 207.089844 161.257812 207.089844 C 160.601562 206.511719 159.972656 205.894531 159.277344 205.363281 C 154.140625 201.457031 148.910156 197.671875 143.875 193.636719 C 139.75 190.328125 136.09375 186.503906 132.636719 182.472656 C 129.382812 178.6875 126.6875 174.574219 124.503906 170.121094 C 122.179688 165.371094 119.984375 160.558594 117.785156 155.75 C 117.378906 154.863281 116.84375 154.289062 115.90625 154.058594 C 113.441406 153.457031 110.964844 153.046875 108.386719 153.457031 C 107.675781 156.152344 106.472656 158.511719 104.742188 160.617188 C 104.183594 161.300781 103.839844 162.152344 103.359375 162.90625 C 101.886719 165.199219 101.667969 167.09375 103.75 169.484375 C 106.679688 172.84375 105.785156 175 103.070312 177 C 102.007812 177.785156 101.132812 178.84375 101.003906 180.203125 C 100.828125 182.101562 100.867188 184.015625 100.773438 185.921875 C 100.742188 186.519531 100.777344 187.304688 100.429688 187.667969 C 99.539062 188.601562 99.625 189.632812 99.664062 190.746094 C 99.6875 191.492188 99.507812 192.246094 99.464844 192.996094 C 99.410156 194.019531 99.167969 195.105469 99.421875 196.054688 C 99.894531 197.847656 99.765625 199.53125 99.449219 201.332031 C 99.109375 203.265625 99.5625 205.058594 101.394531 206.339844 C 103.71875 207.96875 106.105469 209.460938 108.847656 210.222656 C 112.214844 211.152344 115.582031 212.171875 119.023438 212.71875 C 127.539062 214.074219 136.128906 214 144.71875 213.4375 C 145.179688 213.40625 145.628906 213.214844 146.503906 212.996094 C 143.921875 212.570312 141.832031 212.222656 139.742188 211.878906 C 140.546875 211.5 141.300781 211.476562 142.046875 211.503906 C 145.273438 211.632812 148.496094 211.800781 151.722656 211.910156 C 154.742188 212.007812 157.765625 212.074219 160.785156 212.109375 C 162.992188 212.132812 165.15625 211.800781 167.59375 211.277344 C 166.265625 210.34375 165.21875 209.570312 164.140625 208.855469 C 163.183594 208.222656 162.191406 207.644531 161.214844 207.042969 Z M 86.339844 182.34375 C 85.628906 182.34375 85.148438 182.273438 84.699219 182.355469 C 77.394531 183.664062 70.03125 182.921875 62.691406 182.984375 C 57.046875 183.03125 52.019531 180.675781 46.769531 179.167969 C 44.273438 178.449219 41.777344 177.730469 39.261719 177.082031 C 38.335938 176.84375 37.683594 176.414062 37.15625 175.597656 C 36.191406 174.105469 35.195312 172.621094 34.070312 171.246094 C 32.085938 168.820312 31.148438 165.972656 30.5625 162.988281 C 30.21875 161.242188 30.90625 159.726562 32.144531 158.507812 C 33.378906 157.300781 34.746094 157.105469 36.277344 157.964844 C 37.46875 158.632812 38.582031 159.441406 39.703125 160.222656 C 40.207031 160.570312 40.660156 161.003906 41.121094 161.414062 C 44.714844 164.632812 48.714844 166.953125 53.578125 167.8125 C 56.535156 168.332031 59.40625 169.394531 62.292969 170.277344 C 65.125 171.148438 67.964844 171.875 70.945312 172.070312 C 76.085938 172.402344 81.21875 172.855469 86.351562 173.257812 C 87.769531 173.367188 89.660156 172.285156 90.222656 170.820312 C 90.980469 168.839844 91.601562 166.796875 92.238281 164.769531 C 92.710938 163.261719 93.128906 161.738281 93.539062 160.214844 C 94.699219 155.882812 97.863281 153.273438 101.527344 151.230469 C 102.796875 150.527344 104.417969 150.4375 105.894531 150.140625 C 106.257812 150.066406 106.84375 150.140625 107.050781 150.382812 C 107.960938 151.457031 109.117188 151.179688 110.273438 151.199219 C 111.5 151.21875 112.726562 151.410156 113.953125 151.539062 C 114.617188 151.613281 115.277344 151.714844 116.214844 151.84375 C 115.691406 150.203125 115.273438 148.78125 114.78125 147.390625 C 113.242188 143.054688 112.582031 138.597656 112.914062 134.011719 C 112.992188 132.925781 113.1875 131.832031 113.445312 130.769531 C 113.847656 129.121094 113.902344 127.5625 113.171875 125.949219 C 112.902344 125.359375 112.90625 124.363281 113.238281 123.839844 C 114.289062 122.171875 115.46875 120.558594 116.769531 119.074219 C 117.804688 117.894531 119.101562 116.949219 120.265625 115.875 C 120.820312 115.367188 121.386719 114.847656 121.859375 114.261719 C 123.546875 112.160156 124.359375 110.015625 122.945312 107.292969 C 121.351562 104.230469 119.742188 101.242188 117.335938 98.707031 C 115.253906 96.515625 113.300781 94.203125 111.359375 91.886719 C 107.859375 87.710938 103.703125 84.402344 98.71875 82.179688 C 98.097656 81.902344 97.441406 81.578125 96.789062 81.546875 C 95.625 81.484375 95.023438 80.871094 94.714844 79.875 C 93.691406 76.539062 93.316406 73.140625 93.988281 69.695312 C 94.421875 67.496094 96.605469 65.996094 98.78125 66.5 C 101.175781 67.054688 103.507812 67.832031 105.425781 69.527344 C 110.785156 74.265625 115.847656 79.28125 120.402344 84.824219 C 123.058594 88.054688 125.996094 91.058594 128.765625 94.203125 C 129.4375 94.964844 130.054688 95.8125 130.527344 96.710938 C 131.527344 98.589844 132.402344 100.535156 133.347656 102.441406 C 133.742188 103.230469 134.183594 103.992188 134.410156 104.414062 C 135.292969 104.542969 135.816406 104.558594 136.304688 104.703125 C 137.34375 105.011719 138.363281 105.699219 139.390625 105.6875 C 143.265625 105.660156 146.792969 107.054688 150.417969 108.074219 C 151.210938 108.296875 151.980469 108.59375 152.769531 108.832031 C 155.289062 109.601562 157.195312 111.1875 158.742188 113.265625 C 158.972656 113.578125 159.292969 113.863281 159.628906 114.054688 C 168.523438 119.167969 175.753906 125.894531 180.390625 135.199219 C 183.359375 141.164062 186.488281 147.046875 189.398438 153.039062 C 190.625 155.5625 191.441406 158.28125 192.492188 160.890625 C 193.207031 162.675781 194.035156 164.410156 194.753906 166.1875 C 195.171875 167.222656 195.914062 167.570312 196.976562 167.683594 C 204.253906 168.460938 211.511719 168.507812 218.742188 167.207031 C 219.285156 167.113281 219.832031 167.003906 220.378906 167 C 225.59375 166.941406 230.8125 166.835938 236.03125 166.882812 C 241.785156 166.929688 247.410156 166.367188 252.75 164.023438 C 255.539062 162.796875 258.453125 161.964844 261.484375 161.746094 C 263.101562 161.628906 264.78125 161.773438 266.371094 162.09375 C 268.035156 162.429688 269.476562 164.417969 269.65625 165.921875 C 269.757812 166.78125 269.4375 167.292969 268.699219 167.492188 C 263.964844 168.773438 260.785156 172.3125 257.269531 175.351562 C 253.582031 178.539062 250.007812 181.855469 246.296875 185.015625 C 242.035156 188.648438 237.207031 191.40625 232.183594 193.859375 C 227.003906 196.394531 221.875 199.039062 216.726562 201.640625 C 216.546875 201.730469 216.40625 201.890625 216.058594 202.171875 C 217.265625 203.746094 218.523438 205.238281 220.144531 206.367188 C 221.496094 207.308594 222.929688 208.132812 224.351562 208.964844 C 225.355469 209.554688 226.484375 209.964844 227.421875 210.644531 C 230.390625 212.785156 233.796875 213.824219 237.289062 214.628906 C 239.621094 215.167969 241.996094 215.53125 244.347656 216 C 251.050781 217.339844 255.035156 221.8125 257.695312 227.734375 C 258.613281 229.78125 257.957031 231.972656 256.230469 233.285156 C 255.289062 234 253.832031 233.875 252.832031 232.953125 C 249.761719 230.117188 246.101562 228.3125 242.144531 227.171875 C 240.105469 226.582031 238.011719 226.628906 235.859375 227.257812 C 233.910156 227.824219 231.800781 227.933594 229.753906 228.039062 C 225.777344 228.242188 221.78125 228.140625 217.816406 228.464844 C 213.4375 228.816406 209.164062 228.15625 204.902344 227.488281 C 200.160156 226.738281 195.445312 225.769531 190.761719 224.699219 C 186.875 223.808594 183.140625 222.515625 179.898438 219.972656 C 177.417969 218.027344 174.707031 216.367188 172.050781 214.65625 C 171.398438 214.234375 170.574219 213.992188 169.796875 213.878906 C 166.707031 213.425781 163.644531 213.859375 160.5625 214.1875 C 157.082031 214.558594 153.566406 214.589844 150.070312 214.800781 C 143.480469 215.195312 136.886719 215.652344 130.289062 215.136719 C 124.203125 214.664062 118.058594 214.523438 112.144531 212.765625 C 108.253906 211.609375 104.472656 210.207031 100.957031 208.09375 C 99.289062 207.089844 97.332031 206.5625 95.527344 205.773438 C 92.75 204.5625 90.960938 202.597656 89.863281 199.644531 C 88.488281 195.957031 88.160156 192.1875 87.777344 188.359375 C 87.578125 186.414062 86.875 184.519531 86.339844 182.34375 " fill-opacity="1" fill-rule="nonzero"/><path fill="#a9a0f0" d="M 144.273438 185.445312 C 143.828125 185.078125 143.363281 184.738281 142.945312 184.34375 C 136.65625 178.417969 131.390625 171.65625 126.949219 164.269531 C 123.816406 159.054688 121.960938 153.285156 120.363281 147.453125 C 119.582031 144.617188 118.976562 141.71875 118.464844 138.820312 C 117.945312 135.894531 118.015625 132.9375 118.65625 130.023438 C 118.742188 129.628906 119.042969 129.285156 119.613281 128.996094 C 119.671875 129.425781 119.832031 129.867188 119.777344 130.277344 C 118.742188 137.996094 120.65625 145.25 123.097656 152.453125 C 126.714844 163.128906 133.035156 172.113281 140.359375 180.492188 C 141.734375 182.0625 143.117188 183.628906 144.496094 185.199219 C 144.421875 185.28125 144.347656 185.363281 144.273438 185.445312 " fill-opacity="1" fill-rule="nonzero"/><path fill="#a9a0f0" d="M 217.550781 210.925781 C 215.785156 210.902344 214.339844 210.128906 212.933594 209.292969 C 209.296875 207.128906 206.09375 204.429688 203.503906 201.089844 C 200.476562 197.191406 197.539062 193.214844 194.695312 189.179688 C 192.167969 185.589844 189.945312 181.78125 186.835938 178.625 C 186.136719 177.914062 185.445312 177.191406 184.75 176.476562 C 184.84375 176.351562 184.9375 176.226562 185.03125 176.105469 C 185.722656 176.574219 186.519531 176.9375 187.082031 177.527344 C 188.636719 179.164062 190.222656 180.800781 191.566406 182.613281 C 193.445312 185.144531 195.023438 187.902344 196.898438 190.441406 C 199.703125 194.25 202.535156 198.050781 205.574219 201.671875 C 208.871094 205.601562 212.949219 208.625 217.550781 210.925781 " fill-opacity="1" fill-rule="nonzero"/><path fill="#a9a0f0" d="M 176.800781 208.742188 C 177.308594 209.15625 177.84375 209.53125 178.3125 209.980469 C 184.175781 215.613281 191.242188 218.683594 199.074219 220.683594 C 205.980469 222.449219 212.96875 223.097656 219.980469 223.859375 C 220.179688 223.878906 220.375 223.929688 220.585938 224.191406 C 219.648438 224.242188 218.707031 224.320312 217.769531 224.335938 C 216.742188 224.351562 215.710938 224.335938 214.679688 224.296875 C 213.652344 224.257812 212.625 224.136719 211.59375 224.125 C 206.246094 224.0625 201.179688 222.359375 196.0625 221.179688 C 189.4375 219.652344 183.5 216.425781 178.546875 211.632812 C 177.773438 210.882812 177.113281 210.011719 176.398438 209.195312 C 176.535156 209.042969 176.667969 208.894531 176.800781 208.742188 " fill-opacity="1" fill-rule="nonzero"/><path fill="#a9a0f0" d="M 124.332031 137.636719 C 126.652344 149.171875 132.25 159.167969 138.605469 168.910156 C 138.320312 168.621094 138.007812 168.355469 137.75 168.042969 C 132.3125 161.296875 128.0625 153.875 125.234375 145.679688 C 124.546875 143.675781 124.171875 141.5625 123.710938 139.488281 C 123.589844 138.941406 123.695312 138.34375 123.695312 137.773438 C 123.90625 137.726562 124.117188 137.683594 124.332031 137.636719 " fill-opacity="1" fill-rule="nonzero"/><path fill="#a9a0f0" d="M 154.089844 117.976562 C 154.515625 118.113281 154.953125 118.226562 155.371094 118.394531 C 160.90625 120.664062 165.339844 124.425781 169.101562 128.953125 C 171.191406 131.472656 173.039062 134.234375 174.707031 137.058594 C 176.902344 140.761719 178.816406 144.632812 180.648438 148.585938 C 180.410156 148.292969 180.125 148.027344 179.9375 147.703125 C 178.1875 144.671875 176.402344 141.664062 174.730469 138.597656 C 171.597656 132.859375 167.570312 127.867188 162.386719 123.882812 C 160.441406 122.386719 158.234375 121.230469 156.144531 119.925781 C 155.367188 119.4375 154.582031 118.964844 153.796875 118.488281 C 153.894531 118.316406 153.992188 118.144531 154.089844 117.976562 " fill-opacity="1" fill-rule="nonzero"/><path fill="#a9a0f0" d="M 191.894531 213.902344 C 198.304688 215.972656 204.300781 217.914062 210.398438 219.890625 C 205.5 220.089844 194.386719 216.601562 191.894531 213.902344 " fill-opacity="1" fill-rule="nonzero"/><path fill="#a9a0f0" d="M 169.988281 141.964844 C 166.296875 137.324219 163.324219 132.1875 159.121094 127.871094 C 159.476562 127.964844 159.914062 127.953125 160.175781 128.160156 C 161.082031 128.878906 162.03125 129.585938 162.765625 130.457031 C 165.472656 133.65625 167.652344 137.207031 169.554688 140.933594 C 169.722656 141.261719 169.84375 141.621094 169.988281 141.964844 " fill-opacity="1" fill-rule="nonzero"/><path fill="#a9a0f0" d="M 162.761719 200.792969 C 158.570312 197.839844 154.03125 195.378906 150.011719 191.449219 C 150.683594 191.390625 150.988281 191.265625 151.125 191.367188 C 155.117188 194.351562 159.09375 197.363281 163.074219 200.371094 C 162.96875 200.511719 162.863281 200.652344 162.761719 200.792969 " fill-opacity="1" fill-rule="nonzero"/><path fill="#a9a0f0" d="M 189.941406 193.820312 C 192.148438 195.339844 193.78125 197.359375 195.03125 199.714844 C 192.824219 198.199219 191.03125 196.316406 189.941406 193.820312 " fill-opacity="1" fill-rule="nonzero"/><path fill="#a9a0f0" d="M 161.214844 207.042969 C 159.902344 207.382812 158.601562 207.902344 157.265625 208.03125 C 149.886719 208.734375 142.527344 209.933594 135.089844 209.703125 C 125.910156 209.417969 116.90625 207.96875 108.308594 204.582031 C 106.78125 203.980469 105.332031 203.171875 103.90625 202.351562 C 103.039062 201.847656 103.09375 201.753906 103.148438 200.550781 C 103.28125 200.53125 103.449219 200.449219 103.53125 200.5 C 109.0625 204.085938 115.285156 205.722656 121.65625 206.945312 C 130.292969 208.601562 138.984375 208.773438 147.722656 207.917969 C 151.753906 207.523438 155.796875 207.242188 159.835938 206.9375 C 160.304688 206.902344 160.78125 207.03125 161.257812 207.085938 C 161.257812 207.089844 161.214844 207.042969 161.214844 207.042969 " fill-opacity="1" fill-rule="nonzero"/><path fill="#a9a0f0" d="M 130.027344 202.257812 C 123.625 203.019531 113.582031 201.332031 111.832031 199.1875 C 112.21875 199.132812 112.535156 199.003906 112.820312 199.054688 C 118.449219 200.089844 124.070312 201.144531 130.027344 202.257812 " fill-opacity="1" fill-rule="nonzero"/><path fill="#a9a0f0" d="M 116.0625 160.714844 C 114.304688 160.828125 112.546875 160.964844 110.390625 160.40625 C 111.015625 159.96875 111.273438 159.636719 111.503906 159.65625 C 113.027344 159.769531 114.546875 159.957031 116.070312 160.125 C 116.066406 160.320312 116.0625 160.515625 116.0625 160.714844 " fill-opacity="1" fill-rule="nonzero"/><path fill="#a9a0f0" d="M 240.890625 179.347656 C 237.308594 183.070312 225.703125 188.082031 222.945312 187.222656 C 222.832031 186.300781 223.640625 186.339844 224.144531 186.144531 C 227.71875 184.746094 231.316406 183.410156 234.878906 181.988281 C 236.820312 181.214844 238.707031 180.3125 240.890625 179.347656 " fill-opacity="1" fill-rule="nonzero"/><path fill="#a9a0f0" d="M 230.351562 172.976562 C 225.023438 174.574219 219.574219 175.183594 214.042969 175.136719 C 213.570312 175.132812 213.101562 174.859375 212.644531 174.445312 C 214.515625 173.667969 216.480469 173.910156 218.371094 173.71875 C 220.410156 173.511719 222.476562 173.570312 224.527344 173.449219 C 226.472656 173.335938 228.410156 173.140625 230.351562 172.976562 " fill-opacity="1" fill-rule="nonzero"/><path fill="#a9a0f0" d="M 96.109375 181.625 C 94.925781 181.050781 93.699219 180.503906 92.523438 179.859375 C 92.242188 179.707031 91.917969 179.179688 91.992188 178.945312 C 92.074219 178.667969 92.566406 178.363281 92.902344 178.339844 C 94.640625 178.214844 95.996094 179.660156 96.109375 181.625 " fill-opacity="1" fill-rule="nonzero"/><path fill="#a9a0f0" d="M 95.429688 174.601562 C 95.484375 173.007812 96.121094 172.722656 99.382812 172.859375 C 98.457031 173.863281 97.394531 174.328125 95.429688 174.601562 " fill-opacity="1" fill-rule="nonzero"/><path fill="#a9a0f0" d="M 140.828125 114.777344 C 139.359375 114.519531 137.882812 114.304688 136.433594 113.96875 C 136.066406 113.882812 135.792969 113.402344 135.472656 113.101562 C 135.789062 112.777344 136.101562 112.1875 136.421875 112.183594 C 137.277344 112.167969 138.230469 112.226562 138.972656 112.597656 C 139.777344 112.996094 140.390625 113.785156 141.089844 114.402344 C 141 114.527344 140.914062 114.652344 140.828125 114.777344 " fill-opacity="1" fill-rule="nonzero"/><path fill="#a9a0f0" d="M 131.535156 122.742188 C 128.839844 119.914062 128.457031 118.867188 129.445312 117.011719 C 130.792969 118.796875 131.734375 120.535156 131.535156 122.742188 " fill-opacity="1" fill-rule="nonzero"/></svg>