<svg xmlns="http://www.w3.org/2000/svg" xmlns:xlink="http://www.w3.org/1999/xlink" width="400" zoomAndPan="magnify" viewBox="0 0 300 299.999988" height="400" preserveAspectRatio="xMidYMid meet" version="1.0"><defs><clipPath id="25e4cab063"><path d="M 91.5 30 L 208.5 30 L 208.5 270 L 91.5 270 Z M 91.5 30 " clip-rule="nonzero"/></clipPath></defs><g clip-path="url(#25e4cab063)"><path fill="#a9a0f0" d="M 147.890625 42.898438 C 148.890625 43.332031 149.511719 42.816406 149.964844 42.011719 C 150.964844 40.25 152.019531 38.511719 152.890625 36.695312 C 153.546875 35.324219 154.390625 35.75 155.203125 36.289062 C 156.011719 36.832031 157.007812 37.390625 156.15625 38.695312 C 154.824219 40.742188 153.554688 42.824219 152.414062 45.109375 C 155.511719 43.863281 158.785156 43.613281 161.835938 42.527344 C 163.574219 41.914062 165.277344 41.695312 167.121094 42.0625 C 171.351562 42.898438 175.757812 43.257812 179.675781 45.101562 C 184.582031 47.414062 189.363281 49.917969 193.113281 54.136719 C 195.980469 57.359375 197.417969 61.167969 199.09375 64.964844 C 200.390625 67.90625 200.886719 70.933594 201.3125 74.074219 C 201.796875 77.695312 203.914062 80.730469 205.6875 83.859375 C 207.214844 86.546875 208.445312 89.332031 208.082031 92.585938 C 207.203125 92.554688 207.136719 91.851562 207.027344 91.390625 C 206.621094 89.695312 205.472656 88.648438 204.039062 87.945312 C 200.4375 86.183594 196.667969 85.082031 192.628906 84.710938 C 188.4375 84.324219 184.277344 83.582031 180.113281 82.925781 C 178.5 82.667969 176.898438 82.453125 175.261719 82.386719 C 173 82.296875 170.878906 81.527344 168.886719 80.527344 C 168.742188 80.65625 168.574219 80.75 168.585938 80.796875 C 169.335938 83.621094 169.460938 86.6875 171.8125 88.890625 C 172.636719 89.664062 173.601562 90.039062 174.664062 90.25 C 176.40625 90.585938 177.085938 90.121094 177.507812 88.378906 C 177.574219 88.101562 177.636719 87.832031 177.933594 87.710938 C 179.445312 88.710938 179.15625 91.511719 177.40625 92.324219 C 176.757812 92.628906 176.011719 92.777344 175.296875 92.886719 C 173.769531 93.113281 173.769531 93.082031 172.9375 93.988281 C 171.238281 92.785156 172.621094 89.898438 170.1875 88.9375 C 170.113281 89.25 169.945312 89.527344 170.027344 89.65625 C 170.914062 91.082031 170.335938 92.386719 169.664062 93.628906 C 169.148438 94.574219 169.214844 95.277344 170.027344 96 C 170.796875 96.683594 171.359375 97.585938 171.585938 98.566406 C 172.0625 100.601562 173.566406 101.386719 175.332031 101.730469 C 178.789062 102.40625 182.109375 103.304688 184.714844 105.90625 C 185.230469 106.417969 186.039062 106.824219 186.195312 107.472656 C 186.613281 109.242188 187.980469 109.5 189.378906 110.011719 C 190.761719 110.519531 192.011719 111.417969 193.296875 112.128906 C 193.019531 113.40625 191.574219 112.769531 191.101562 113.863281 C 191.878906 115.074219 193.195312 115.972656 194.074219 117.269531 C 197.332031 122.082031 199.210938 127.414062 200.148438 133.046875 C 202.203125 145.304688 204.019531 157.601562 205.554688 169.9375 C 206.898438 180.75 207.039062 191.585938 206.84375 202.453125 C 206.738281 208.414062 206.738281 214.398438 206.085938 220.316406 C 204.988281 230.324219 202.664062 239.960938 195.695312 247.789062 C 195.511719 248 195.351562 248.296875 195.121094 248.390625 C 192.710938 249.351562 191.648438 251.824219 189.636719 253.277344 C 188.109375 254.378906 187.5625 256.296875 187.480469 258.238281 C 187.460938 258.757812 187.695312 259.378906 187.101562 259.804688 C 186.25 259.460938 186.277344 258.65625 186.175781 257.964844 C 185.695312 254.65625 186.5 251.539062 188.054688 248.695312 C 189.6875 245.710938 189.777344 242.539062 189.585938 239.34375 C 189.34375 235.1875 189.269531 231.039062 189.210938 226.878906 C 189.109375 219.964844 188.859375 213.066406 188.214844 206.175781 C 187.675781 200.417969 187.433594 194.636719 186.933594 188.871094 C 185.777344 175.535156 185.242188 162.121094 182.492188 148.972656 C 181.183594 142.738281 180.019531 136.507812 180.128906 130.109375 C 180.1875 126.445312 180.5625 122.816406 181.335938 119.238281 C 181.433594 118.8125 181.6875 118.390625 181.414062 117.917969 C 180.664062 117.359375 180.164062 118.648438 179.40625 118.1875 C 179.101562 117.917969 179.167969 117.585938 179.371094 117.296875 C 180.6875 115.417969 181.261719 113.230469 181.953125 111.09375 C 182.464844 109.519531 182.222656 108.277344 180.859375 107.121094 C 179.351562 105.84375 177.675781 105.019531 175.859375 104.425781 C 174.664062 104.035156 174.027344 104.40625 174.1875 105.804688 C 174.613281 109.585938 175.195312 113.351562 175.683594 117.128906 C 176.582031 124.164062 176.933594 131.222656 176.464844 138.332031 C 176.0625 144.507812 176.085938 150.710938 175.65625 156.878906 C 175.242188 162.742188 175.9375 168.574219 175.742188 174.417969 C 175.464844 182.851562 174.703125 191.238281 173.222656 199.554688 C 172.488281 203.703125 172.175781 207.925781 171.332031 212.0625 C 170.148438 217.84375 169.289062 223.703125 167.59375 229.363281 C 166.742188 232.203125 165.386719 234.890625 164.25 237.648438 C 163.601562 239.230469 163.167969 240.796875 163.601562 242.5625 C 163.917969 243.863281 163.851562 245.257812 163.554688 246.585938 C 162.6875 250.460938 161.121094 254.238281 162.167969 258.40625 C 160.878906 257.621094 160.351562 256.4375 159.964844 255.183594 C 159.261719 252.859375 159.34375 250.511719 159.972656 248.183594 C 160.738281 245.34375 160.460938 242.917969 158.175781 240.648438 C 153.34375 235.859375 151.714844 229.789062 151.761719 223.109375 C 151.804688 217.769531 153.203125 212.640625 153.832031 207.40625 C 154.519531 201.664062 156.148438 196.09375 156.832031 190.351562 C 157.425781 185.332031 157.898438 180.304688 158.1875 175.257812 C 158.214844 174.785156 158.398438 174.277344 157.988281 173.703125 C 157.4375 174.761719 157.054688 175.777344 156.777344 176.859375 C 154.945312 183.992188 152.84375 191.046875 150.675781 198.085938 C 149.019531 203.460938 147.648438 208.917969 146.027344 214.296875 C 144.296875 220.046875 143.027344 225.917969 141.074219 231.613281 C 140.011719 234.703125 138.960938 237.824219 137.507812 240.6875 C 135.640625 244.371094 133.257812 247.8125 130.425781 250.898438 C 128.796875 252.667969 127.214844 254.472656 126.238281 256.761719 C 124.554688 260.664062 124.535156 264.488281 126.289062 268.332031 C 126.539062 268.871094 126.546875 268.871094 126.203125 269.992188 C 123.464844 268.59375 121.9375 266.148438 121.351562 263.445312 C 120.027344 257.386719 118.777344 251.3125 120.15625 244.972656 C 121.335938 239.554688 122.34375 234.085938 123.378906 228.636719 C 124.25 224.035156 125.832031 219.664062 126.964844 215.148438 C 127.796875 211.824219 128.433594 208.453125 129.359375 205.15625 C 131.433594 197.796875 133.964844 190.582031 136.285156 183.296875 C 138.890625 175.09375 141.554688 166.925781 144.554688 158.859375 C 146.472656 153.683594 148.3125 148.488281 150.898438 143.613281 C 152.761719 140.09375 154.613281 136.527344 157.4375 133.621094 C 158.136719 132.90625 158.453125 132.082031 158.519531 131.054688 C 158.703125 128.378906 159 125.703125 159.257812 122.945312 C 158.5 123.019531 158.34375 123.710938 158.085938 124.183594 C 154.390625 131.011719 150.363281 137.648438 146.277344 144.242188 C 142.1875 150.84375 138.304688 157.554688 134.667969 164.414062 C 132.316406 168.835938 130.296875 173.417969 128.140625 177.9375 C 124.601562 185.34375 120.9375 192.695312 117.5 200.15625 C 115.667969 204.136719 114.214844 208.289062 112.566406 212.359375 C 111.230469 215.667969 109.445312 218.75 106.988281 221.332031 C 104.242188 224.214844 102.175781 227.566406 100.222656 230.964844 C 99.359375 232.472656 99.167969 234.371094 98.714844 236.109375 C 98.566406 236.683594 98.785156 237.5 97.960938 237.601562 C 97.019531 237.714844 96.628906 236.8125 96.5625 236.183594 C 96.289062 233.664062 96.203125 231.140625 97.59375 228.824219 C 99.664062 225.378906 100.621094 221.789062 99.445312 217.742188 C 97.335938 210.488281 98.414062 203.414062 100.960938 196.445312 C 102.09375 193.332031 102.960938 190.113281 104.148438 187.027344 C 106.640625 180.574219 109.757812 174.390625 112.714844 168.140625 C 114.789062 163.769531 116.738281 159.351562 118.878906 155.011719 C 121.601562 149.507812 124.824219 144.304688 127.757812 138.925781 C 132.289062 130.609375 137.675781 122.878906 143.074219 115.128906 C 146.433594 110.3125 149.816406 105.585938 154.085938 101.527344 C 156.074219 99.640625 158.257812 98.128906 160.65625 97.230469 C 161.054688 96.398438 160.09375 96.304688 160.203125 95.640625 C 161.0625 94.648438 162.296875 94.953125 163.433594 94.964844 C 166.167969 95.007812 168.121094 92.074219 167.109375 89.511719 C 166.269531 87.386719 166.371094 85 165.363281 82.890625 C 164.8125 81.738281 164.453125 80.492188 164.039062 79.386719 C 164.164062 78.65625 164.953125 79.261719 165.136719 78.539062 C 162.574219 77.046875 160.59375 74.90625 158.769531 72.5 C 156.464844 69.460938 155.113281 66.035156 154.25 62.433594 C 153.214844 58.113281 152.378906 53.757812 150.914062 49.554688 C 150.835938 49.34375 150.789062 49.121094 150.714844 48.90625 C 150.414062 47.988281 149.878906 47.359375 148.84375 47.816406 C 147.914062 48.230469 147.851562 48.890625 148.175781 49.898438 C 150.535156 57.175781 151.046875 64.5625 148.65625 71.914062 C 147.386719 75.832031 144.640625 78.832031 141.8125 81.777344 C 138.824219 84.886719 135.460938 87.285156 131.378906 88.648438 C 127.019531 90.113281 122.609375 91.082031 117.960938 90.277344 C 116.222656 89.972656 114.4375 90.0625 112.769531 90.609375 C 107.683594 92.261719 102.519531 92.386719 97.269531 91.714844 C 95.511719 91.492188 93.730469 91.519531 91.511719 91.40625 C 92.796875 89.714844 93.738281 88.203125 94.945312 86.953125 C 98.027344 83.785156 99.8125 79.898438 101.035156 75.804688 C 102.609375 70.539062 104.878906 65.59375 107.359375 60.738281 C 110.378906 54.804688 115.628906 51.527344 121.796875 49.613281 C 126.886719 48.035156 132.164062 47.703125 137.445312 47.527344 C 139.628906 47.453125 141.796875 47.214844 143.992188 47.582031 C 145.222656 47.785156 146.433594 47.359375 147.433594 46.140625 C 145.175781 44.925781 143.304688 43.3125 141.359375 41.804688 C 138.460938 39.554688 135.898438 36.945312 134.175781 33.636719 C 133.363281 32.082031 134.128906 30.5625 135.824219 30.164062 C 136.5625 29.992188 136.878906 30.519531 137.109375 31.011719 C 138.730469 34.539062 141.816406 36.832031 144.296875 39.640625 C 143.492188 39.460938 142.832031 38.964844 142.371094 38.34375 C 140.710938 36.085938 138.121094 34.648438 136.90625 32.011719 C 136.640625 31.4375 136.1875 31.121094 135.546875 31.546875 C 135.007812 31.90625 134.832031 32.40625 135.101562 33.007812 C 135.242188 33.3125 135.417969 33.601562 135.609375 33.878906 C 138.667969 38.289062 142.890625 41.4375 147.1875 44.507812 C 149.136719 45.890625 151.304688 47.164062 152.238281 49.464844 C 153.175781 51.796875 154.082031 54.183594 154.386719 56.714844 C 154.75 59.742188 155.445312 62.683594 156.539062 65.527344 C 156.835938 66.289062 157.082031 67.175781 158.046875 67.609375 C 158.019531 63.363281 159.511719 59.4375 159.519531 55.335938 C 159.519531 54.535156 159.859375 53.816406 160.203125 53.101562 C 161.019531 51.417969 160.761719 50.710938 159 49.992188 C 157.488281 49.386719 155.972656 48.796875 154.464844 47.890625 C 155.101562 47.59375 155.816406 48.222656 156.039062 47.738281 C 156.859375 45.960938 158.90625 45.960938 160.113281 44.628906 C 155.742188 45.890625 151.335938 47.519531 147.886719 42.890625 Z M 117.261719 52.980469 C 120.6875 53.546875 124.1875 53.613281 127.527344 54.777344 C 126.960938 53.898438 125.84375 54.109375 125.324219 53.296875 C 126.621094 53.238281 127.675781 53.960938 128.816406 54.40625 C 129.886719 54.816406 130.953125 55.230469 132.175781 54.730469 C 128.230469 53.210938 124.363281 51.390625 119.925781 51.871094 C 121.863281 51.90625 123.5625 52.824219 125.371094 53.335938 C 123.109375 53.464844 120.980469 52.527344 118.722656 52.527344 C 118.148438 52.527344 117.59375 52.335938 117.304688 53.027344 C 116.738281 53.082031 116.054688 52.964844 115.933594 53.925781 L 123.722656 54.8125 C 122.535156 54.019531 121.257812 53.933594 119.964844 53.992188 C 118.917969 54.039062 117.980469 53.8125 117.257812 52.988281 Z M 128.242188 51.730469 C 127.851562 51.824219 127.398438 51.507812 126.964844 51.9375 C 127.464844 52.183594 127.890625 52.464844 128.359375 52.613281 C 131.648438 53.667969 134.742188 55.183594 137.886719 56.585938 C 139.214844 57.183594 140.238281 56.945312 141.019531 55.710938 C 141.3125 55.25 141.960938 54.84375 141.636719 54.261719 C 141.316406 53.6875 140.742188 53.242188 139.832031 53.683594 C 140.261719 54.527344 139.972656 55.285156 139.511719 56.046875 C 138.761719 55.714844 138.082031 55.460938 137.4375 55.128906 C 134.5 53.601562 131.261719 52.871094 128.195312 51.683594 C 128.933594 51.546875 129.675781 51.601562 130.351562 51.859375 C 132.335938 52.613281 134.433594 53.066406 136.363281 53.980469 C 137.214844 54.378906 138.054688 54.992188 139.140625 54.613281 C 135.09375 52.789062 131 51.140625 126.386719 50.296875 C 126.824219 51.34375 127.796875 51.164062 128.242188 51.722656 Z M 122.953125 59.730469 C 126.84375 59.917969 130.257812 62.054688 134.039062 62.683594 C 131.3125 59.925781 114.390625 55.730469 111.796875 57.113281 C 115.683594 57.835938 119.519531 58.09375 123.007812 59.769531 C 120.472656 59.628906 118.164062 58.40625 115.636719 58.214844 C 113.988281 58.09375 112.324219 57.742188 110.703125 58.5 C 117.25 59.257812 123.511719 61.25 130.214844 62.546875 C 129.511719 61.738281 128.835938 61.648438 128.210938 61.433594 C 126.472656 60.816406 124.609375 60.609375 122.953125 59.738281 Z M 143.398438 50.335938 C 140.5625 49.796875 137.886719 48.378906 134.886719 48.636719 C 135 49.15625 135.59375 48.761719 135.683594 49.332031 C 134.175781 49.34375 132.703125 48.601562 130.8125 49.074219 C 132.222656 49.75 133.371094 49.945312 134.519531 50.101562 C 135.585938 50.242188 136.4375 50.640625 136.914062 51.667969 L 130.277344 50.25 L 130.136719 50.777344 C 132.195312 51.359375 134.25 51.972656 136.324219 52.492188 C 137 52.664062 137.007812 52.128906 136.871094 51.628906 L 142.203125 53.519531 C 142.546875 53.09375 142.832031 52.742188 143.261719 52.453125 C 144.140625 51.871094 144.390625 51.074219 143.359375 50.3125 C 144.925781 50.601562 145.238281 49.296875 145.890625 48.304688 C 144.214844 48.351562 142.886719 50.035156 141.066406 49.25 L 143.40625 50.34375 Z M 195.277344 62.445312 C 195.859375 61.832031 195.859375 61.039062 195.566406 60.398438 C 194.925781 58.980469 194.378906 57.5 193.210938 56.359375 C 191.988281 55.167969 190.757812 53.964844 189.703125 52.628906 C 188.761719 51.445312 187.609375 50.601562 186.316406 49.933594 C 184.628906 49.0625 182.898438 48.289062 181.433594 47.011719 C 180.804688 46.464844 179.945312 45.972656 179.109375 46.257812 C 177.601562 46.769531 176.101562 46.316406 174.203125 46.574219 C 175.488281 46.203125 176.492188 46.628906 177.371094 45.9375 C 175.613281 45.664062 173.953125 45.277344 172.566406 44.164062 C 172.453125 44.066406 172.238281 44.035156 172.082031 44.066406 C 169.945312 44.464844 168 43.535156 165.972656 43.203125 C 165.164062 43.066406 163.898438 43.035156 163.789062 43.539062 C 163.492188 44.890625 162.257812 44.730469 161.425781 45.324219 C 162.535156 45.574219 163.539062 44.695312 164.703125 45.480469 C 162.230469 46.664062 159.546875 46.695312 156.890625 48.257812 C 158.296875 48.203125 158.648438 49.945312 159.859375 48.933594 L 159.824219 48.898438 C 160.054688 49.332031 160.195312 49.730469 160.871094 49.804688 C 162.480469 49.988281 163.703125 49.074219 165.019531 48.492188 C 167.433594 47.433594 169.914062 46.816406 172.601562 46.714844 C 172.488281 47.316406 171.9375 47.128906 171.714844 47.472656 C 172.507812 47.582031 173.203125 47.335938 173.859375 47.75 C 173.34375 48.25 172.703125 48.136719 172.109375 48.222656 C 169.4375 48.609375 166.761719 48.933594 164.257812 50.011719 C 163.492188 50.34375 162.8125 50.6875 162.964844 51.695312 C 162.511719 51.804688 161.945312 51.203125 161.601562 51.863281 C 160.871094 53.261719 159.972656 54.789062 160.363281 56.324219 C 160.898438 58.40625 160.738281 60.613281 161.65625 62.621094 C 162.035156 63.4375 162.289062 64.40625 162.148438 65.742188 C 161.359375 63.980469 161.488281 62.203125 160.210938 60.683594 C 159.878906 61.621094 159.636719 62.242188 159.4375 62.871094 C 158.742188 65.046875 158.683594 67.378906 158.898438 69.539062 C 159.109375 71.695312 160.914062 73.359375 162.511719 74.851562 C 165.140625 77.304688 168.445312 78.667969 171.628906 80.195312 C 173.136719 80.917969 174.898438 80.953125 176.574219 81.148438 C 177.386719 81.242188 177.871094 80.964844 177.6875 79.992188 C 177.035156 76.425781 177 72.8125 177 68.917969 L 175.417969 70.785156 C 175.453125 69.644531 175.800781 68.722656 176.460938 68.011719 C 178.925781 65.359375 179 62.535156 176.675781 60.210938 C 177.445312 60.640625 178.242188 60.648438 179.113281 60.5625 C 181.175781 60.359375 183.285156 60.472656 185.304688 60.101562 C 187.863281 59.636719 190.074219 61.136719 192.519531 61.039062 C 193.757812 60.992188 194.703125 61.414062 195.359375 62.480469 C 192.128906 62.480469 188.914062 61.890625 185.507812 62.414062 C 185.917969 62.039062 186.238281 61.785156 185.675781 61.5625 C 184.574219 61.136719 181.011719 61.871094 180.507812 62.546875 C 182.785156 64.769531 185.574219 66.398438 187.628906 68.878906 C 188.027344 69.359375 188.5 69.488281 189.230469 69.464844 C 192.59375 69.378906 195.992188 69.363281 198.648438 72.007812 C 198.796875 72.148438 199.0625 72.195312 199.296875 71.953125 C 199.296875 71.5625 199.285156 71.136719 199.296875 70.703125 C 199.390625 68.085938 197.980469 66.390625 195.425781 66.027344 C 192.585938 65.613281 189.714844 65.695312 186.871094 65.554688 C 186.835938 64.460938 187.582031 64.417969 188.277344 64.34375 C 190.90625 64.066406 193.527344 64.398438 195.945312 64.59375 C 196.324219 63.640625 196.453125 62.789062 195.324219 62.4375 Z M 187.960938 253.417969 C 188.871094 252.085938 190.65625 251.738281 191.359375 250.222656 C 191.695312 249.492188 192.359375 249.019531 193.074219 248.648438 C 194.683594 247.824219 195.789062 246.5 196.777344 245.035156 C 201.886719 237.433594 204.074219 228.796875 204.695312 219.890625 C 205.242188 212.066406 205.554688 204.195312 205.566406 196.332031 C 205.582031 189.75 205.722656 183.164062 204.804688 176.636719 C 203.332031 166.167969 202.332031 155.640625 200.5625 145.210938 C 199.332031 137.953125 198.601562 130.585938 195.628906 123.75 C 194.1875 120.4375 193.363281 116.539062 189.007812 115.539062 C 188.953125 115.527344 188.90625 115.492188 188.863281 115.453125 C 187.4375 114.074219 186.980469 115.128906 186.640625 116.359375 C 186.414062 117.195312 185.9375 118.425781 185.335938 118.359375 C 183.609375 118.164062 183.628906 119.480469 183.140625 120.363281 C 182.128906 122.222656 181.871094 124.222656 181.648438 126.332031 C 181.011719 132.183594 181.871094 137.898438 182.859375 143.585938 C 183.914062 149.683594 185.1875 155.75 185.757812 161.90625 C 186.554688 170.640625 187.582031 179.359375 188 188.121094 C 188.433594 197.109375 189.621094 206.027344 190.0625 215.019531 C 190.371094 221.480469 190.1875 227.9375 190.636719 234.386719 C 190.785156 236.554688 190.519531 238.777344 190.863281 240.914062 C 191.332031 243.789062 190.960938 246.34375 189.324219 248.769531 C 188.40625 250.128906 187.980469 251.695312 187.960938 253.414062 Z M 163.222656 98.351562 C 159.613281 98.113281 157.261719 100.289062 155.0625 102.507812 C 148.480469 109.109375 143.210938 116.757812 138.09375 124.492188 C 134.5 129.933594 131.285156 135.609375 127.917969 141.1875 C 124.082031 147.554688 120.574219 154.082031 117.390625 160.789062 C 114.667969 166.519531 112.203125 172.371094 109.378906 178.0625 C 107.730469 181.378906 106.296875 184.816406 104.988281 188.285156 C 104.238281 190.269531 103.851562 192.390625 102.992188 194.359375 C 100.007812 201.214844 99.039062 208.363281 99.988281 215.777344 C 100.085938 216.566406 100.15625 217.414062 100.777344 218.0625 C 101.324219 217.628906 101.230469 217.175781 101.167969 216.742188 C 100.628906 213.140625 100.4375 209.566406 101.445312 205.980469 C 101.703125 205.0625 102.203125 204.238281 102.304688 203.261719 C 102.582031 200.585938 103.566406 198.0625 104.460938 195.585938 C 105.4375 192.851562 106.757812 190.214844 107.789062 187.460938 C 109.101562 183.945312 111.238281 180.757812 112.1875 177.074219 C 112.230469 176.914062 112.277344 176.738281 112.378906 176.609375 C 114.09375 174.40625 115.09375 171.769531 116.183594 169.289062 C 117.378906 166.554688 118.609375 163.789062 119.695312 160.992188 C 120.167969 159.777344 120.535156 158.351562 121.378906 157.390625 C 122.59375 156.011719 123.277344 154.390625 124.066406 152.832031 C 125.65625 149.714844 127.25 146.609375 129 143.574219 C 129.714844 142.335938 130.796875 141.378906 131.34375 140.140625 C 132.046875 138.5625 132.960938 137.085938 133.742188 135.566406 C 135.332031 132.464844 137.316406 129.566406 139.222656 126.636719 C 141.609375 122.964844 143.972656 119.269531 146.566406 115.75 C 147.554688 114.414062 148.488281 113.011719 149.519531 111.695312 C 150.90625 109.933594 152.566406 108.425781 153.890625 106.65625 C 155.574219 104.40625 157.214844 102.1875 159.65625 100.683594 C 160.3125 100.277344 160.742188 99.414062 162 99.722656 C 161.425781 100.425781 161.066406 101.113281 160.5 101.507812 C 157.90625 103.324219 155.917969 105.714844 153.824219 108.046875 C 150.027344 112.269531 146.917969 116.992188 143.886719 121.730469 C 142.425781 124.007812 140.65625 126.074219 139.425781 128.539062 C 138.871094 129.65625 138.148438 130.863281 137.480469 131.972656 C 136.546875 133.507812 135.261719 134.796875 134.582031 136.574219 C 133.667969 138.945312 132.304688 141.230469 130.742188 143.242188 C 128.890625 145.640625 127.460938 148.285156 126.175781 150.9375 C 124.414062 154.566406 122.039062 157.886719 120.742188 161.738281 C 120.101562 163.636719 118.992188 165.316406 118.332031 167.222656 C 117.390625 169.914062 116.304688 172.5625 115.054688 175.113281 C 114.511719 176.210938 114.378906 177.519531 113.453125 178.425781 C 112.175781 179.675781 111.75 181.480469 111.066406 182.988281 C 109.9375 185.488281 109.011719 188.148438 108.136719 190.789062 C 106.789062 194.8125 104.742188 198.566406 103.5625 202.683594 C 102.304688 207.035156 101.621094 211.363281 101.925781 215.933594 C 102.183594 219.75 101.539062 223.519531 99.761719 227.046875 C 98.683594 229.203125 96.683594 231.164062 97.84375 234.027344 C 97.953125 233.769531 98.082031 233.535156 98.15625 233.277344 C 99.363281 229.101562 101.683594 225.566406 104.566406 222.390625 C 106.769531 219.960938 108.742188 217.40625 110.128906 214.398438 C 110.90625 212.703125 111.433594 210.925781 112.136719 209.214844 C 115.386719 201.257812 119.425781 193.664062 122.992188 185.84375 C 128.453125 173.871094 134.554688 162.222656 140.90625 150.6875 C 146.113281 141.230469 151.574219 131.925781 157.269531 122.761719 C 159.277344 119.535156 161.425781 116.4375 162.414062 112.65625 C 162.851562 110.964844 163.554688 109.230469 164.386719 107.703125 C 165.667969 105.351562 165.257812 103.066406 165.128906 100.710938 C 164.40625 100.601562 164.109375 101.507812 163.398438 101.035156 C 162.835938 100.269531 163.582031 99.335938 163.222656 98.351562 Z M 160.824219 253.066406 C 161.390625 250.835938 161.84375 249.066406 162.289062 247.296875 C 162.621094 245.980469 163.136719 244.554688 162.722656 243.3125 C 161.878906 240.761719 162.695312 238.511719 163.628906 236.324219 C 166.222656 230.242188 168.164062 223.992188 169.210938 217.453125 C 170.121094 211.738281 171.148438 206.035156 172.027344 200.304688 C 173.8125 188.664062 174.980469 176.992188 174.613281 165.210938 C 174.371094 157.269531 174.695312 149.335938 175.113281 141.433594 C 175.640625 131.507812 175.203125 121.675781 173.898438 111.851562 C 173.757812 110.777344 173.386719 109.785156 172.738281 108.898438 C 171.386719 107.0625 171.351562 107.054688 169.722656 108.6875 C 169.519531 108.898438 169.285156 109.035156 168.960938 108.964844 C 168.261719 108.640625 168.789062 107.609375 168.035156 107.3125 C 165.445312 108.25 163.742188 110.953125 163.710938 114.425781 C 164.992188 112.507812 165.480469 110.335938 167.238281 108.507812 C 166.554688 111.09375 165.335938 113.066406 164.90625 115.359375 C 164.675781 116.582031 164.816406 117.824219 164.460938 119.007812 C 163.136719 123.386719 162.796875 127.933594 162.257812 132.433594 C 161.757812 136.621094 161.8125 140.851562 161.9375 145.0625 C 162.085938 149.714844 162.585938 154.359375 162.789062 159.011719 C 162.917969 162.09375 162.621094 165.203125 162.824219 168.277344 C 163.007812 171.085938 163.472656 173.914062 163.0625 176.6875 C 162.046875 183.480469 162.066406 190.371094 160.1875 197.101562 C 158.972656 201.464844 158.683594 206.136719 157.851562 210.65625 C 157.109375 214.742188 156.492188 218.90625 156.414062 223.121094 C 156.3125 228.335938 156.1875 233.492188 159 238.257812 C 158.148438 238.1875 157.964844 237.511719 157.675781 237.035156 C 155.433594 233.324219 155.101562 229.0625 155.304688 225.011719 C 155.527344 220.5 155.785156 215.917969 156.859375 211.4375 C 157.507812 208.714844 157.378906 205.8125 158.066406 203.101562 C 158.75 200.386719 159.128906 197.628906 159.683594 194.898438 C 160.109375 192.8125 160.289062 190.667969 160.722656 188.585938 C 161.703125 183.890625 161.730469 179.101562 162.074219 174.359375 C 162.378906 170.257812 161.507812 166.128906 162.039062 161.953125 C 162.714844 156.628906 161.460938 151.3125 161.324219 145.972656 C 161.183594 140.183594 160.980469 134.398438 161.851562 128.65625 C 162.238281 126.113281 161.636719 123.546875 162.230469 121.027344 C 162.242188 120.972656 162.113281 120.886719 162.027344 120.777344 C 161.386719 121.59375 161.445312 122.585938 161.269531 123.5 C 159.648438 132.046875 160.304688 140.710938 159.980469 149.316406 C 159.785156 154.535156 160 159.761719 159.84375 164.980469 C 159.6875 170.371094 159.378906 175.761719 159.011719 181.148438 C 158.285156 191.890625 155.714844 202.378906 154.519531 213.054688 C 153.695312 220.425781 153.007812 227.824219 155.804688 235.039062 C 156.535156 236.917969 157.261719 238.804688 158.835938 240.011719 C 161.714844 242.238281 161.777344 245.046875 161.15625 248.210938 C 160.878906 249.621094 160.183594 251.046875 160.824219 253.066406 Z M 158.027344 142.296875 C 157.140625 142.917969 156.371094 143.714844 156.886719 144.683594 C 157.390625 145.636719 157.046875 146.25 156.636719 146.992188 C 156.0625 148.027344 155.539062 149.085938 154.988281 150.128906 C 152.445312 154.871094 149.886719 159.667969 148.5625 164.878906 C 147.445312 169.296875 145.324219 173.316406 144.269531 177.769531 C 143.324219 181.777344 141.324219 185.535156 139.761719 189.390625 C 139.574219 189.859375 139.34375 190.261719 139.398438 190.816406 C 139.546875 192.285156 139.242188 193.761719 138.722656 195.066406 C 136.007812 201.835938 133.714844 208.722656 131.898438 215.804688 C 129.988281 223.269531 126.898438 230.390625 125.757812 238.113281 C 125.136719 242.285156 123.34375 246.25 122.84375 250.511719 C 122.664062 252.085938 122.917969 253.714844 122.414062 255.511719 C 121.898438 254.832031 122.007812 254.269531 122.007812 253.75 C 122.082031 247.101562 124.007812 240.769531 125.535156 234.398438 C 127.445312 226.417969 129.5 218.472656 131.964844 210.636719 C 134.445312 202.757812 136.886719 194.871094 139.65625 187.09375 C 141.183594 182.804688 142.316406 178.378906 143.554688 174.007812 C 144.335938 171.230469 145.046875 168.324219 146.085938 165.722656 C 147.75 161.566406 149.101562 157.285156 150.925781 153.195312 C 153.066406 148.390625 154.351562 143.183594 157.730469 138.945312 C 158.582031 137.878906 158.433594 136.527344 158.046875 135.0625 C 155.6875 137.527344 154.074219 140.164062 152.628906 142.859375 C 148.398438 150.777344 145.628906 159.304688 142.554688 167.6875 C 140.445312 173.4375 138.398438 179.214844 136.925781 185.175781 C 135.785156 189.8125 134.613281 194.460938 133.140625 199 C 130.90625 205.90625 129.054688 212.917969 126.992188 219.871094 C 124.917969 226.886719 123.3125 234.011719 121.886719 241.183594 C 121.351562 243.871094 120.988281 246.59375 120.722656 249.34375 C 120.460938 252.121094 121.230469 254.6875 121.613281 257.332031 C 121.914062 259.390625 122.277344 261.4375 122.683594 263.480469 C 122.824219 264.1875 122.972656 264.980469 123.75 265.40625 C 123.871094 265.1875 123.964844 265.09375 123.972656 265 C 123.988281 264.722656 123.992188 264.4375 123.953125 264.164062 C 123.527344 261.34375 124.011719 258.695312 125.289062 256.148438 C 126.6875 253.335938 128.953125 251.203125 130.832031 248.769531 C 135.453125 242.769531 138.378906 235.917969 140.613281 228.757812 C 141.816406 224.90625 142.851562 221 143.851562 217.085938 C 145.25 211.59375 146.960938 206.167969 148.585938 200.738281 C 151.1875 192.074219 153.84375 183.417969 156.464844 174.761719 C 157.554688 171.164062 158.6875 167.585938 158.535156 163.722656 C 158.4375 161.378906 158.5625 159.039062 158.210938 156.6875 C 158.101562 155.960938 158.824219 155.027344 157.914062 154.445312 C 157.242188 154.019531 156.417969 153.816406 155.546875 154.25 C 155.796875 153.75 155.640625 152.914062 156.582031 153.304688 C 157.183594 153.5625 157.738281 153.5625 158.332031 153.039062 L 157.34375 152.109375 C 157.574219 151.582031 158.34375 151.703125 158.332031 151 C 158.304688 149.980469 157.175781 150.878906 157.019531 150.3125 C 159.113281 147.785156 157.785156 144.953125 158.007812 142.296875 Z M 132.535156 86.609375 C 137.945312 84.609375 142.128906 81.546875 142.703125 75.214844 C 143.109375 76.664062 142.164062 77.816406 142.351562 79.082031 C 142.714844 79.210938 142.878906 79.039062 143.035156 78.886719 C 147.0625 74.933594 148.863281 70.085938 149.027344 64.492188 C 149.109375 61.613281 148.796875 58.769531 148.832031 55.898438 C 148.863281 53.492188 147.992188 51.34375 146.363281 49.238281 C 143.871094 52.25 142.285156 55.628906 139.8125 58.214844 C 143.785156 62.925781 143.664062 68.222656 142.953125 73.640625 C 142.75 68.59375 143.351562 63.359375 139.25 59.183594 C 137.554688 60.710938 135.988281 62.15625 134.386719 63.546875 C 133.742188 64.109375 133.695312 64.722656 133.789062 65.507812 C 134.164062 68.460938 135.082031 71.519531 134.628906 74.359375 C 133.980469 78.417969 134.453125 82.710938 132.535156 86.621094 Z M 124.242188 71.789062 C 123.585938 71.835938 123.390625 71.796875 123.269531 71.871094 C 120.890625 73.261719 118.527344 74.675781 116.15625 76.074219 C 115.664062 76.363281 115.636719 76.789062 115.8125 77.242188 C 116.269531 78.445312 115.859375 79.527344 115.527344 80.683594 C 114.757812 83.414062 114.316406 86.230469 112.871094 89.113281 C 115.863281 88.742188 118.488281 88.933594 121.109375 89.140625 C 124.019531 89.371094 126.8125 88.742188 129.585938 87.972656 C 130.9375 87.59375 131.730469 86.859375 132.15625 85.417969 C 132.898438 82.917969 132.785156 80.261719 133.433594 77.84375 C 134.5 73.859375 133.464844 70.164062 132.992188 66.359375 C 132.898438 65.59375 132.242188 65.210938 131.628906 65.636719 C 129.363281 67.1875 127.085938 68.742188 125.183594 70.75 C 125.019531 70.917969 125 71.289062 125.019531 71.5625 C 125.183594 74.332031 124.34375 77.019531 124.34375 79.789062 C 124.34375 82.261719 123.546875 84.609375 122.242188 86.789062 C 124.09375 81.964844 123.695312 76.917969 124.238281 71.789062 Z M 107.566406 81.574219 C 105.554688 81.945312 95.1875 88.972656 94.585938 90.34375 C 95.601562 90.425781 96.59375 90.507812 97.585938 90.59375 C 101.90625 90.980469 106.214844 91.398438 110.453125 89.933594 C 111.359375 89.621094 112.007812 89.257812 112.492188 88.386719 C 114.15625 85.425781 113.878906 81.90625 115.296875 78.878906 C 115.539062 78.359375 115.121094 77.785156 114.675781 77.40625 C 114.230469 77.035156 113.835938 77.359375 113.453125 77.585938 C 112.296875 78.285156 111.167969 79.027344 109.980469 79.648438 C 109.035156 80.140625 108.628906 80.796875 108.519531 81.878906 C 108.40625 83.09375 108.335938 84.398438 107.40625 85.65625 C 107.0625 84.15625 108.128906 82.953125 107.566406 81.574219 Z M 178.195312 69.710938 C 177.519531 70.285156 177.566406 70.964844 177.585938 71.628906 C 177.648438 73.417969 177.710938 75.203125 177.917969 77 C 178.4375 81.414062 178.34375 81.417969 182.6875 82 C 182.804688 82.011719 182.914062 82.035156 183.027344 82.046875 C 184.101562 82.175781 184.511719 81.832031 184.4375 80.628906 C 184.304688 78.5 184.863281 76.519531 186.296875 74.851562 C 187.039062 73.988281 187.164062 69.011719 186.269531 68.285156 C 184.128906 66.535156 182.011719 64.703125 179.566406 63.324219 C 178.007812 66.859375 178.835938 69.953125 180.714844 72.953125 C 179.582031 72.035156 179.289062 70.613281 178.203125 69.710938 Z M 97.230469 86.195312 C 98.59375 86.230469 99.316406 85.730469 100.113281 85.0625 C 101.148438 84.1875 101.777344 82.667969 103.492188 82.730469 C 103.851562 82.742188 104.277344 82.527344 104.15625 82.035156 C 103.871094 81.480469 103.203125 82.011719 102.933594 81.480469 C 104.546875 81.371094 106.164062 81.613281 107.621094 80.5 C 110.261719 78.492188 113.214844 76.953125 116.0625 75.257812 C 117.945312 74.128906 119.898438 73.0625 121.871094 71.425781 C 120.242188 70.933594 119 70.871094 117.609375 71.183594 C 118.203125 71.84375 119.09375 71.425781 119.59375 72.210938 C 116.183594 71.824219 112.851562 72.035156 109.128906 71.90625 C 109.636719 71.65625 109.757812 71.5625 109.890625 71.527344 C 110.585938 71.371094 110.761719 71.167969 109.972656 70.84375 L 110.121094 70.511719 L 117.832031 70.511719 L 117.878906 70.035156 C 115.9375 70.203125 114.238281 69.25 112.359375 69.136719 C 110.695312 69.035156 109.011719 68.925781 107.742188 70.277344 C 107.066406 70.992188 106.277344 71.164062 105.359375 71.289062 C 103.683594 71.519531 103.210938 72.3125 103.492188 74.183594 C 103.804688 74.210938 104.128906 74.242188 104.453125 74.277344 C 104.789062 74.316406 105.128906 74.359375 105.871094 74.453125 C 102.789062 74.816406 102.65625 74.914062 102.703125 76.390625 C 106.082031 74.4375 109.683594 75.3125 113.214844 75.261719 C 112.109375 75.964844 110.863281 75.621094 109.4375 75.84375 C 110.25 76.007812 110.886719 75.683594 111.585938 76.351562 C 108.710938 76.324219 106.09375 76.648438 103.464844 76.871094 C 102.636719 76.9375 102.140625 77.019531 101.84375 78.09375 C 101.5625 79.128906 101.074219 80.214844 100.609375 81.238281 C 99.796875 83.035156 98.535156 84.460938 97.230469 86.195312 Z M 187.824219 70.113281 C 186.832031 73.113281 188.164062 75 190.539062 76.816406 C 189.074219 76.714844 188.8125 75.621094 187.710938 75.675781 C 187.804688 78.121094 188.425781 80.390625 189.40625 82.574219 C 189.65625 83.136719 190.335938 83.128906 190.890625 83.214844 C 193.648438 83.648438 196.433594 83.796875 199.195312 84.433594 C 200.871094 84.816406 202.601562 85.582031 204.574219 85.296875 C 199.738281 84.519531 197.289062 80.714844 194.507812 77.433594 C 193.863281 77.871094 194 78.332031 194.019531 78.769531 C 194.039062 79.195312 194.414062 79.613281 193.84375 80.398438 C 193.789062 75.664062 191.40625 72.648438 187.832031 70.121094 Z M 118.15625 65.488281 C 114.195312 65.785156 110.703125 64.535156 107.257812 65.363281 L 107.257812 65.851562 C 112.378906 66.109375 117.5 66.363281 122.621094 66.613281 C 121.609375 65.8125 120.414062 66.316406 119.40625 65.601562 C 122.007812 65.714844 124.601562 65.832031 127.203125 65.945312 C 125.585938 65.683594 124.09375 64.898438 122.464844 64.953125 C 125.011719 64.84375 127.511719 65.351562 130.039062 65.5 C 123.964844 63.59375 115.535156 62.480469 113.109375 63.195312 C 113.332031 63.667969 114.035156 63.230469 114.195312 63.695312 L 109.980469 63.695312 C 109.351562 63.269531 110.175781 62.167969 109.113281 62.230469 C 107.6875 62.316406 108.222656 63.960938 107.296875 64.648438 C 110.816406 64.789062 114.261719 64.714844 118.164062 65.488281 Z M 104.335938 70.816406 C 104.964844 70.898438 105.386719 71.378906 105.914062 70.242188 C 106.34375 69.304688 107.046875 68.148438 108.738281 68.066406 C 113.464844 67.835938 118.195312 68.085938 122.917969 68.007812 C 123.914062 67.988281 124.90625 67.824219 125.886719 68.363281 C 126.667969 68.796875 127.238281 68.085938 127.785156 67.628906 C 128.019531 67.433594 128.066406 67.136719 127.84375 66.878906 C 127.636719 66.628906 127.238281 66.554688 127.109375 66.785156 C 126.480469 67.859375 125.5 67.414062 124.6875 67.324219 C 119.488281 66.761719 114.269531 66.464844 109.035156 66.472656 C 105.84375 66.472656 104.777344 67.4375 104.34375 70.832031 Z M 183.222656 113.871094 C 184.074219 113.785156 184.0625 112.886719 184.914062 112.917969 C 183.988281 114.371094 184.175781 115.511719 185.640625 116.351562 C 186.3125 115.621094 186.054688 114.445312 187.222656 114.035156 C 188.289062 113.664062 188.90625 114.769531 189.789062 114.648438 C 190.140625 113.871094 189.15625 113.492188 189.460938 112.835938 C 189.824219 112.4375 190.5 112.769531 190.789062 112.238281 C 190.148438 111.054688 187.445312 109.980469 185.628906 110.417969 C 183.945312 110.816406 183.9375 112.5 183.214844 113.871094 Z M 172.863281 107.109375 C 172.710938 104.285156 170.824219 102.371094 170.609375 99.863281 C 171.082031 102.0625 169.554688 102.992188 168.195312 103.980469 C 167.15625 104.738281 166.257812 105.535156 166.082031 107.054688 C 167.4375 106.714844 168.667969 105.398438 169.816406 107.15625 C 170.757812 106.183594 171.710938 106.109375 172.863281 107.101562 Z M 129.335938 63.34375 C 128.488281 62.269531 127.261719 62.492188 126.214844 62.238281 C 121.371094 61.039062 116.519531 59.835938 111.5 59.574219 C 110.785156 59.535156 110.085938 59.425781 109.257812 60.417969 C 116.269531 60.730469 122.796875 62.109375 129.335938 63.34375 Z M 186.738281 75.667969 L 186.304688 75.585938 C 185.277344 77.359375 184.492188 79.195312 185.113281 81.363281 C 185.351562 82.1875 187.121094 82.917969 187.9375 82.527344 C 188.980469 82.035156 188.269531 81.289062 188.101562 80.65625 C 187.664062 78.988281 187.1875 77.332031 186.730469 75.667969 Z M 135.871094 61.109375 C 134.433594 59.5625 123.851562 56.121094 121.824219 56.566406 C 123.296875 56.953125 124.554688 58.257812 125.675781 58.316406 C 127.832031 58.4375 129.636719 58.878906 131.4375 60.046875 C 132.386719 60.664062 133.628906 60.84375 134.636719 61.488281 C 135.019531 61.738281 135.507812 61.742188 135.863281 61.109375 Z M 166.101562 101.433594 C 166.039062 102.257812 165.925781 103.183594 166.371094 104.082031 C 169.742188 102.582031 170.59375 100.269531 168.507812 98.242188 C 167.398438 98.898438 167.925781 100.1875 167.527344 100.972656 C 167.066406 101.371094 166.527344 100.886719 166.101562 101.433594 Z M 150.972656 44.359375 C 151.351562 44.460938 151.585938 44.304688 151.777344 44.101562 C 153.371094 42.34375 154.238281 40.121094 155.574219 38.203125 C 155.851562 37.804688 155.789062 37.277344 155.359375 37.011719 C 154.796875 36.667969 154.433594 37.046875 154.164062 37.535156 C 153.066406 39.480469 151.964844 41.417969 150.871094 43.363281 C 150.695312 43.675781 150.613281 43.988281 150.964844 44.363281 Z M 117.65625 68.527344 C 119.566406 69.664062 121.6875 69.933594 123.777344 70.230469 C 124.5625 70.335938 125.121094 69.640625 125.757812 68.609375 C 122.863281 68.046875 120.277344 68.113281 117.648438 68.535156 Z M 164.539062 99.25 C 165.492188 98.621094 166.289062 98.992188 167.007812 98.722656 C 167.066406 95.980469 166.507812 95.601562 163.0625 96.214844 C 164.351562 96.738281 164.628906 97.6875 164.539062 99.25 Z M 113.109375 55.84375 C 114.425781 56.386719 115.75 55.953125 116.980469 56.472656 C 117.769531 56.8125 118.75 57.1875 119.6875 56.730469 C 119.769531 56.6875 119.824219 56.351562 119.757812 56.285156 C 118.988281 55.527344 117.980469 55.871094 117.074219 55.757812 C 116.054688 55.628906 114.75 56.175781 114.636719 54.445312 C 113.871094 54.695312 113.398438 55.046875 113.109375 55.835938 Z M 197.75 75.085938 C 195.203125 75.113281 193.835938 72.722656 191.285156 71.804688 C 192.480469 74.296875 193.332031 74.714844 197.75 75.085938 Z M 181.621094 104.714844 C 182.296875 105.890625 182.34375 107.851562 184.835938 107.554688 C 183.566406 106.433594 182.59375 105.574219 181.621094 104.714844 Z M 110.136719 61.316406 C 111.777344 61.742188 113.445312 62.074219 115.15625 61.566406 C 113.519531 61.019531 111.835938 61.148438 110.136719 61.316406 Z M 154.59375 148.554688 C 153.695312 149.75 152.714844 150.9375 152.460938 152.964844 C 153.519531 151.359375 154.277344 150.085938 154.59375 148.554688 Z M 127.628906 56.945312 C 126.425781 56.183594 125.460938 55.757812 123.988281 55.859375 C 125.167969 56.675781 126.136719 57.101562 127.628906 56.945312 Z M 138.59375 57.945312 L 138.8125 57.527344 L 136.066406 56.289062 C 136.703125 57.277344 137.585938 57.730469 138.59375 57.945312 Z M 138.59375 57.945312 " fill-opacity="1" fill-rule="nonzero"/></g><path fill="#a9a0f0" d="M 156.714844 51.363281 C 156.925781 54.640625 156.75 55.121094 155.121094 55.761719 C 154.890625 54.714844 154.796875 53.695312 154.914062 52.636719 C 155.046875 51.390625 156.472656 52.554688 156.714844 51.363281 Z M 156.714844 51.363281 " fill-opacity="1" fill-rule="nonzero"/><path fill="#a9a0f0" d="M 162.90625 51.65625 C 164.769531 52.613281 167.046875 52.757812 168.492188 54.527344 C 169.167969 55.351562 170.101562 55.472656 171.082031 55.433594 L 171.039062 55.398438 C 171.460938 57.113281 173.027344 57.609375 174.277344 58.4375 C 173 58.417969 172.066406 57.675781 171.175781 56.914062 C 170.3125 56.167969 169.75 56.128906 169.363281 57.359375 C 168.945312 58.695312 168.414062 60 167.960938 61.332031 C 167.167969 63.65625 168.363281 65.582031 169.214844 67.585938 C 170.039062 69.539062 170.816406 71.511719 171.554688 73.5 C 171.816406 74.214844 171.824219 75 171.628906 76.019531 C 170.433594 72.359375 169.664062 68.804688 167.25 65.453125 C 166.5 69.695312 167.128906 73.363281 168.710938 77.378906 C 167.433594 75.980469 166.5625 73.304688 166.40625 71.203125 C 166.25 69.074219 165.960938 66.933594 166.433594 64.824219 C 166.886719 62.777344 166.90625 60.648438 168.09375 58.316406 C 166.101562 59.261719 165.878906 60.890625 164.914062 62.351562 C 164.574219 60.871094 165.371094 60.085938 165.859375 59.277344 C 166.25 58.621094 166.914062 58.121094 167.492188 57.59375 C 168.980469 56.25 168.917969 55.34375 167.261719 54.175781 C 165.886719 53.203125 164.175781 52.8125 162.898438 51.664062 Z M 162.90625 51.65625 " fill-opacity="1" fill-rule="nonzero"/><path fill="#a9a0f0" d="M 171.085938 55.425781 C 170.9375 53.742188 170.722656 53.546875 168.164062 52.835938 C 169.238281 51.980469 170.269531 51.175781 171.628906 51.316406 C 175.148438 51.703125 178.664062 51.4375 182.433594 51.378906 L 181.445312 51.925781 C 183.640625 52.710938 186.136719 51.472656 188.046875 53.398438 C 182.351562 53.90625 176.582031 53.722656 171.054688 55.386719 L 171.09375 55.425781 Z M 171.085938 55.425781 " fill-opacity="1" fill-rule="nonzero"/><path fill="#a9a0f0" d="M 159.84375 48.925781 C 159.785156 47.6875 160.585938 47.417969 161.601562 47.109375 C 164.183594 46.304688 166.777344 45.609375 169.460938 45.304688 C 170.386719 45.203125 171.324219 45.011719 172.351562 45.585938 C 171.371094 46.175781 170.371094 46.304688 169.417969 46.5 C 166.5625 47.101562 163.6875 47.636719 160.960938 48.742188 C 160.613281 48.886719 160.195312 48.84375 159.8125 48.886719 L 159.84375 48.917969 Z M 159.84375 48.925781 " fill-opacity="1" fill-rule="nonzero"/><path fill="#a9a0f0" d="M 108.261719 73.15625 C 111.1875 72.953125 114.054688 72.757812 116.914062 73.15625 Z M 108.261719 73.15625 " fill-opacity="1" fill-rule="nonzero"/><path fill="#a9a0f0" d="M 184.359375 63.5625 L 193.898438 63.5625 L 193.898438 63.683594 L 184.433594 63.683594 Z M 184.359375 63.5625 " fill-opacity="1" fill-rule="nonzero"/></svg>