<svg xmlns="http://www.w3.org/2000/svg" xmlns:xlink="http://www.w3.org/1999/xlink" width="400" zoomAndPan="magnify" viewBox="0 0 300 299.999988" height="400" preserveAspectRatio="xMidYMid meet" version="1.0"><path fill="#a9a0f0" d="M 168.382812 162.003906 C 166.273438 160.929688 163.160156 161.136719 160.855469 161.359375 C 159.804688 161.457031 158.785156 161.632812 157.78125 161.867188 C 157.730469 160.640625 158.328125 159.261719 158.640625 158.097656 C 159.382812 155.351562 160.261719 152.628906 161.671875 150.148438 C 162.410156 148.847656 163.28125 147.636719 164.359375 146.597656 C 164.863281 146.117188 165.4375 145.558594 165.988281 145.144531 C 166.644531 144.648438 168.226562 144.378906 168.441406 143.527344 C 168.609375 142.859375 168.113281 142.097656 167.496094 141.933594 C 166.351562 141.636719 164.621094 142.734375 163.753906 143.386719 C 162.066406 144.65625 160.722656 146.390625 159.628906 148.179688 C 157.828125 151.117188 156.722656 154.453125 155.882812 157.773438 C 155.539062 159.132812 155.019531 160.589844 155.089844 162.015625 C 155.097656 162.222656 155.128906 162.433594 155.164062 162.636719 C 154.59375 162.84375 154.027344 163.066406 153.460938 163.316406 C 152.085938 163.917969 153.277344 165.90625 154.636719 165.328125 C 155.066406 165.144531 155.503906 164.984375 155.941406 164.832031 C 156.121094 165.203125 156.308594 165.570312 156.488281 165.929688 C 157.296875 167.554688 158.058594 169.265625 159.15625 170.722656 C 159.984375 171.816406 161.25 172.984375 162.453125 173.640625 C 163.074219 173.976562 163.933594 174.277344 164.332031 173.457031 C 164.851562 172.398438 163.570312 171.351562 162.917969 170.746094 C 162.261719 170.132812 161.667969 169.445312 161.128906 168.734375 C 160.058594 167.316406 159.152344 165.828125 158.398438 164.226562 C 159.253906 163.738281 160.726562 163.761719 161.71875 163.707031 C 163.828125 163.601562 166.105469 164.164062 168.152344 163.769531 C 168.957031 163.613281 169.101562 162.367188 168.382812 162.003906 Z M 168.382812 162.003906 " fill-opacity="1" fill-rule="nonzero"/><path fill="#a9a0f0" d="M 219.597656 153.453125 C 219.679688 152.78125 219.132812 152.128906 218.382812 152.144531 C 217.355469 152.164062 216.148438 153.304688 215.355469 153.871094 C 213.597656 151.195312 211.746094 148.503906 209.667969 146.121094 C 207.835938 144.015625 204.59375 142.226562 201.855469 141.722656 C 201.328125 141.625 200.453125 141.484375 199.976562 141.839844 C 199.453125 142.234375 199.4375 143.039062 200.046875 143.398438 C 201.253906 144.101562 202.777344 144.265625 204.046875 144.914062 C 205.949219 145.886719 207.550781 147.273438 208.882812 148.929688 C 209.289062 149.433594 213.402344 155.21875 213.300781 155.28125 C 213.214844 155.335938 213.128906 155.390625 213.042969 155.441406 C 211.167969 156.546875 209.238281 157.554688 207.332031 158.605469 C 203.539062 160.695312 199.90625 162.972656 196.847656 166.074219 C 195.925781 167.007812 197.332031 168.410156 198.285156 167.511719 C 201.574219 164.425781 205.441406 162.175781 209.402344 160.066406 C 211.132812 159.140625 212.875 158.230469 214.570312 157.234375 C 216.554688 160.359375 217.703125 163.375 217.25 167.195312 C 216.808594 170.894531 215.175781 174.28125 214.449219 177.914062 C 214.25 178.910156 215.683594 179.675781 216.191406 178.648438 C 217.933594 175.140625 219.257812 171.261719 219.714844 167.359375 C 220.214844 163.101562 219.019531 159.507812 216.722656 155.964844 C 217.515625 155.476562 219.011719 154.703125 219.46875 153.859375 C 219.539062 153.726562 219.582031 153.589844 219.597656 153.453125 Z M 219.597656 153.453125 " fill-opacity="1" fill-rule="nonzero"/><path fill="#a9a0f0" d="M 220.113281 115.070312 C 214.5625 109.613281 205.3125 109.578125 198.054688 109.667969 C 196.921875 109.683594 195.792969 109.722656 194.660156 109.777344 C 195.046875 108.246094 195.527344 106.746094 196 105.230469 C 196.316406 104.210938 194.804688 103.578125 194.28125 104.503906 C 193.34375 106.167969 192.695312 108.011719 192.261719 109.925781 C 189.453125 110.132812 186.652344 110.441406 183.863281 110.804688 C 179.730469 111.347656 175.328125 111.65625 171.402344 113.117188 C 167.628906 114.523438 164.316406 116.8125 161.015625 119.066406 C 157.976562 121.144531 154.839844 122.890625 151.621094 124.660156 C 145.9375 127.785156 140.320312 131.417969 135.847656 136.167969 C 130.910156 141.410156 127.519531 148.464844 129.789062 155.699219 C 130.199219 157.011719 132.078125 156.464844 131.828125 155.140625 C 129.3125 141.917969 141.765625 133.039062 151.851562 127.359375 C 154.632812 125.796875 157.480469 124.398438 160.148438 122.640625 C 163.261719 120.585938 166.257812 118.316406 169.589844 116.621094 C 173.261719 114.75 177.175781 114.238281 181.207031 113.65625 C 184.730469 113.148438 188.269531 112.710938 191.820312 112.4375 C 191.488281 114.917969 191.445312 117.449219 191.554688 119.816406 C 191.613281 121.183594 193.699219 121.199219 193.691406 119.816406 C 193.671875 117.292969 193.742188 114.773438 194.140625 112.28125 C 194.222656 112.273438 194.304688 112.269531 194.390625 112.265625 C 202.761719 111.820312 211.65625 111.804688 218.761719 116.820312 C 219.808594 117.558594 221 115.941406 220.113281 115.070312 Z M 220.113281 115.070312 " fill-opacity="1" fill-rule="nonzero"/><path fill="#a9a0f0" d="M 262.3125 148.007812 C 261.234375 141.675781 259.34375 135.210938 256.089844 129.636719 C 253.296875 124.847656 249.914062 120.304688 246.296875 116.105469 C 244.011719 113.449219 241.539062 110.738281 238.40625 109.074219 C 237.542969 108.613281 235.664062 107.292969 234.628906 107.714844 C 232.128906 108.722656 238.109375 111.546875 238.691406 111.957031 C 240.847656 113.480469 242.609375 115.488281 244.328125 117.46875 C 247.695312 121.355469 250.792969 125.578125 253.441406 129.984375 C 259.855469 140.660156 261.792969 154.484375 260.035156 166.695312 C 258.976562 174.039062 255.921875 180.707031 253.917969 187.777344 C 253.605469 188.886719 255.34375 189.699219 255.835938 188.585938 C 258.640625 182.230469 261.167969 175.496094 262.320312 168.609375 C 263.460938 161.773438 263.480469 154.84375 262.3125 148.007812 Z M 262.3125 148.007812 " fill-opacity="1" fill-rule="nonzero"/><path fill="#a9a0f0" d="M 250.304688 196.785156 C 249.15625 196.769531 247.847656 199.925781 247.582031 200.421875 C 246.097656 203.203125 245.089844 206.382812 242.539062 208.417969 C 240.109375 210.355469 237.039062 211.691406 234.238281 212.988281 C 231.539062 214.242188 228.792969 215.390625 226.054688 216.546875 C 220.589844 218.851562 214.921875 220.089844 208.964844 219.492188 C 203.535156 218.949219 199.46875 215.25 194.40625 213.675781 C 193.207031 213.300781 192.375 215.167969 193.535156 215.734375 C 197.308594 217.578125 201 219.96875 205.03125 221.199219 C 209.347656 222.523438 214.285156 222.324219 218.675781 221.472656 C 223.394531 220.558594 227.800781 218.476562 232.179688 216.5625 C 236.535156 214.664062 241.761719 212.734375 245.164062 209.292969 C 246.65625 207.785156 247.636719 205.9375 248.515625 204.023438 C 249.078125 202.796875 251.914062 198.796875 251.027344 197.316406 C 250.804688 196.945312 250.558594 196.785156 250.304688 196.785156 Z M 250.304688 196.785156 " fill-opacity="1" fill-rule="nonzero"/><path fill="#a9a0f0" d="M 218.855469 104.941406 C 219.09375 103.046875 215.632812 103.074219 214.507812 103.03125 C 213.132812 102.980469 211.824219 102.761719 210.429688 102.753906 C 208.589844 102.738281 206.75 102.785156 204.917969 102.910156 C 204.0625 102.964844 202.136719 103.226562 202.90625 104.582031 C 203.316406 105.3125 204.351562 105.160156 205.035156 105.214844 C 206.972656 105.367188 208.917969 105.152344 210.855469 105.234375 C 212.273438 105.296875 213.679688 105.449219 215.09375 105.539062 C 215.984375 105.59375 218.679688 106.363281 218.855469 104.941406 Z M 218.855469 104.941406 " fill-opacity="1" fill-rule="nonzero"/><path fill="#a9a0f0" d="M 150.085938 114.90625 C 149.777344 114.882812 149.449219 114.941406 149.191406 115.070312 C 148.175781 115.566406 147.183594 116.113281 146.171875 116.617188 C 144.160156 117.625 142.128906 118.679688 140.46875 120.222656 C 137.6875 122.804688 136.796875 126.777344 133.953125 129.277344 C 131.058594 131.816406 127.265625 132.863281 124.785156 135.957031 C 122.515625 138.792969 120.640625 142.863281 120.382812 146.519531 C 120.296875 147.726562 122.054688 147.847656 122.40625 146.792969 C 123.679688 142.988281 124.601562 139.066406 127.667969 136.207031 C 130.253906 133.800781 133.839844 132.800781 136.296875 130.203125 C 138.652344 127.714844 139.550781 124.171875 142.089844 121.839844 C 143.945312 120.140625 146.402344 119.386719 148.554688 118.164062 C 149.296875 117.742188 150.992188 116.902344 151.097656 115.972656 C 151.171875 115.269531 150.660156 114.949219 150.085938 114.90625 Z M 150.085938 114.90625 " fill-opacity="1" fill-rule="nonzero"/><path fill="#a9a0f0" d="M 230.308594 142.039062 C 224.960938 135.21875 217.683594 129.710938 209.964844 125.832031 C 208.765625 125.230469 207.738281 126.941406 208.90625 127.644531 C 215.976562 131.902344 222.804688 136.542969 228.082031 142.992188 C 230.621094 146.097656 232.726562 149.597656 234.171875 153.34375 C 235.105469 155.761719 235.675781 158.292969 236.070312 160.851562 C 236.269531 162.164062 236.375 163.484375 236.5625 164.796875 C 236.648438 165.40625 236.578125 165.699219 237.1875 165.933594 C 239.394531 166.792969 238.640625 162.207031 238.546875 161.226562 C 238.324219 158.902344 237.804688 156.613281 237.070312 154.402344 C 235.578125 149.929688 233.214844 145.746094 230.308594 142.039062 Z M 230.308594 142.039062 " fill-opacity="1" fill-rule="nonzero"/><path fill="#a9a0f0" d="M 184.289062 150.96875 C 184.125 149.625 182.289062 149.585938 182.164062 150.96875 C 181.910156 153.738281 182.46875 156.617188 182.695312 159.375 C 182.808594 160.710938 184.589844 160.671875 184.746094 159.375 C 185.078125 156.609375 184.628906 153.726562 184.289062 150.96875 Z M 184.289062 150.96875 " fill-opacity="1" fill-rule="nonzero"/><path fill="#a9a0f0" d="M 102.070312 99.09375 C 96.113281 102.773438 90.332031 107.132812 85.667969 112.386719 C 81.023438 117.613281 77.785156 123.929688 75.242188 130.40625 C 72.625 137.078125 70.84375 144.105469 70.132812 151.242188 C 69.765625 154.941406 69.8125 158.664062 69.8125 162.378906 C 69.816406 165.78125 69.933594 169.179688 70.492188 172.542969 C 70.835938 174.625 71.460938 176.601562 71.96875 178.644531 C 72.449219 180.589844 72.554688 182.609375 73.03125 184.558594 C 73.984375 188.484375 76.917969 191.195312 79.113281 194.4375 C 79.632812 195.207031 81.128906 194.738281 80.722656 193.757812 C 79.449219 190.660156 76.664062 188.46875 75.554688 185.289062 C 75.011719 183.730469 74.828125 182.078125 74.578125 180.453125 C 74.308594 178.667969 73.800781 176.988281 73.363281 175.242188 C 71.699219 168.632812 71.871094 161.488281 72.160156 154.722656 C 72.460938 147.71875 73.992188 140.777344 76.28125 134.167969 C 78.507812 127.75 81.46875 121.222656 85.71875 115.871094 C 90.546875 109.789062 96.851562 105.359375 103.171875 100.972656 C 104.304688 100.1875 103.28125 98.347656 102.070312 99.09375 Z M 102.070312 99.09375 " fill-opacity="1" fill-rule="nonzero"/><path fill="#a9a0f0" d="M 164.371094 90.890625 C 157.683594 87.347656 150.015625 88.285156 142.757812 88.761719 C 142.597656 87.960938 142.414062 87.171875 142.199219 86.40625 C 141.832031 85.101562 139.917969 85.652344 140.1875 86.960938 C 140.316406 87.59375 140.414062 88.242188 140.492188 88.898438 C 134.15625 89.25 127.199219 89.589844 121.871094 93.195312 C 120.761719 93.945312 121.800781 95.757812 122.929688 95.007812 C 128.007812 91.628906 134.6875 91.378906 140.703125 91.050781 C 140.882812 93.027344 141.070312 95.007812 141.71875 96.835938 C 142.074219 97.828125 143.734375 97.757812 143.667969 96.574219 C 143.5625 94.734375 143.398438 92.804688 143.121094 90.902344 C 149.808594 90.433594 157.253906 89.46875 163.507812 92.367188 C 164.492188 92.824219 165.359375 91.410156 164.371094 90.890625 Z M 164.371094 90.890625 " fill-opacity="1" fill-rule="nonzero"/><path fill="#a9a0f0" d="M 112.285156 206.863281 C 104.332031 204.191406 98.40625 197.113281 95.519531 189.410156 C 92.089844 180.246094 90.464844 170.5625 89.742188 160.859375 C 89.648438 159.621094 87.890625 159.613281 87.808594 160.859375 C 87.460938 166.304688 88.472656 171.890625 89.71875 177.175781 C 90.828125 181.90625 92.019531 186.8125 93.902344 191.300781 C 97.199219 199.15625 103.390625 206.308594 111.75 208.8125 C 113.003906 209.1875 113.511719 207.273438 112.285156 206.863281 Z M 112.285156 206.863281 " fill-opacity="1" fill-rule="nonzero"/><path fill="#a9a0f0" d="M 264.875 132.796875 C 261.167969 123.359375 255.570312 114.503906 247.464844 108.277344 C 239.988281 102.53125 230.921875 99 221.710938 97.226562 C 211.949219 95.351562 201.820312 95.207031 192.109375 97.417969 C 191.109375 97.648438 190.113281 97.902344 189.125 98.164062 C 189.386719 96.402344 189.351562 94.519531 189.324219 92.976562 C 189.261719 89.644531 188.953125 86.3125 188.34375 83.035156 C 187.171875 76.707031 184.707031 70.632812 180.636719 65.613281 C 175.9375 59.820312 169.21875 56.019531 162.019531 54.273438 C 158.027344 53.304688 153.917969 52.878906 149.832031 52.515625 C 145.335938 52.113281 141.054688 50.972656 136.667969 49.992188 C 122.679688 46.863281 107.847656 49.128906 94.890625 55.027344 C 82.339844 60.738281 71.484375 69.820312 62.542969 80.230469 C 52.535156 91.878906 44.535156 105.414062 38.550781 119.53125 C 35.207031 127.414062 32.535156 135.632812 31.25 144.113281 C 30.003906 152.3125 31.402344 160.355469 33.160156 168.367188 C 34.058594 172.441406 35.015625 176.515625 35.601562 180.648438 C 36.179688 184.738281 36.195312 188.792969 35.847656 192.902344 C 35.480469 197.242188 35.179688 201.507812 36.238281 205.785156 C 37.164062 209.519531 38.550781 213.160156 40.144531 216.660156 C 43.40625 223.820312 47.960938 229.765625 54.21875 234.550781 C 57.226562 236.851562 60.453125 238.78125 63.628906 240.824219 C 66.890625 242.921875 69.910156 245.367188 73.144531 247.503906 C 76.390625 249.648438 79.921875 251.480469 83.753906 252.269531 C 87.886719 253.121094 92.074219 252.761719 96.132812 251.6875 C 99.847656 250.703125 103.808594 249.453125 107.144531 247.507812 C 110.214844 245.710938 112.808594 243.214844 115.195312 240.605469 C 117.558594 238.023438 119.777344 235.308594 122.300781 232.878906 C 124.972656 230.304688 127.695312 227.796875 130.191406 225.046875 C 134.636719 220.144531 138.558594 214.453125 139.578125 207.777344 C 140.011719 204.945312 139.890625 202.125 139.378906 199.335938 C 142.085938 200.003906 144.855469 200.375 147.582031 200.453125 C 154.484375 200.65625 162.046875 198.734375 166.542969 193.140625 C 169.152344 189.898438 170.09375 186.03125 170.710938 181.992188 C 170.753906 181.71875 170.792969 181.445312 170.832031 181.167969 C 170.914062 181.816406 170.964844 182.476562 170.945312 183.152344 C 170.894531 184.875 170.6875 186.601562 170.90625 188.316406 C 171.160156 190.316406 172.058594 192.046875 173.199219 193.683594 C 173.566406 194.214844 174.136719 194.484375 174.78125 194.328125 C 178.097656 193.519531 180.300781 190.574219 182.859375 188.542969 C 184.054688 187.59375 185.414062 186.996094 186.816406 186.503906 C 185.660156 187.75 184.683594 189.207031 183.90625 190.6875 C 181.585938 195.132812 181.144531 200.191406 182.152344 205.0625 C 183.914062 213.554688 189.574219 221.101562 197.171875 225.242188 C 204.339844 229.148438 212.828125 230.21875 220.878906 229.5 C 229.769531 228.707031 238.648438 225.839844 246.300781 221.230469 C 255.300781 215.8125 261.386719 207.585938 264.171875 197.46875 C 265.695312 191.925781 266.375 186.195312 267.195312 180.519531 C 267.996094 174.96875 269.019531 169.476562 269.363281 163.871094 C 270.007812 153.34375 268.742188 142.648438 264.875 132.796875 Z M 136.152344 208.984375 C 136.105469 209.015625 136.058594 209.046875 136.015625 209.085938 C 132.574219 212.191406 129.164062 215.289062 124.890625 217.210938 C 120.449219 219.203125 115.664062 219.519531 110.898438 218.769531 C 101.746094 217.324219 92.824219 212.769531 87.636719 204.875 C 86.953125 203.835938 85.3125 204.769531 85.957031 205.855469 C 91.160156 214.597656 100.921875 219.558594 110.769531 221.007812 C 115.753906 221.742188 120.652344 221.429688 125.324219 219.453125 C 128.675781 218.03125 131.789062 215.929688 134.53125 213.46875 C 133.945312 214.714844 133.261719 215.9375 132.476562 217.128906 C 130.445312 220.207031 127.933594 222.921875 125.324219 225.511719 C 123.433594 227.386719 121.625 229.367188 119.652344 231.144531 C 119.316406 231.449219 118.746094 232.230469 118.339844 232.386719 C 117.472656 232.722656 116.207031 232.371094 115.285156 232.402344 C 113.992188 232.449219 112.691406 232.378906 111.394531 232.433594 C 108.917969 232.535156 106.449219 232.78125 103.984375 233.066406 C 99.363281 233.597656 94.898438 233.816406 90.320312 232.832031 C 82.6875 231.1875 76.417969 226.941406 70.222656 222.398438 C 67.855469 220.664062 65.414062 218.964844 63.929688 216.367188 C 63.042969 214.820312 62.550781 213.136719 61.972656 211.464844 C 61.28125 209.46875 60.453125 207.519531 59.492188 205.636719 C 57.527344 201.78125 54.753906 198.433594 53.644531 194.183594 C 52.59375 190.167969 52.539062 185.886719 52.359375 181.765625 C 52.136719 176.6875 51.183594 171.6875 50.773438 166.621094 C 50.492188 163.136719 50.542969 159.640625 50.460938 156.148438 C 50.425781 154.617188 50.691406 152.449219 50.1875 150.996094 C 49.839844 150 48.644531 149.972656 48.210938 150.984375 C 47.707031 152.175781 47.917969 154.179688 47.894531 155.460938 C 47.835938 158.570312 48.0625 161.679688 48.273438 164.78125 C 48.609375 169.640625 49.523438 174.417969 49.945312 179.261719 C 50.324219 183.570312 50.144531 187.894531 50.828125 192.171875 C 51.160156 194.238281 51.699219 196.257812 52.535156 198.175781 C 53.4375 200.246094 54.757812 202.058594 55.902344 203.996094 C 57.039062 205.921875 58.074219 207.914062 58.917969 209.988281 C 59.6875 211.875 60.210938 213.851562 61.011719 215.726562 C 62.222656 218.550781 64.085938 220.65625 66.496094 222.523438 C 72.515625 227.191406 78.914062 231.863281 86.261719 234.171875 C 91.070312 235.683594 96 236.160156 101.015625 235.703125 C 106.074219 235.242188 110.96875 234.5 116.035156 234.914062 C 112.507812 238.90625 109.0625 243.078125 104.222656 245.453125 C 100.78125 247.144531 96.78125 248.386719 93.023438 249.117188 C 89.050781 249.886719 85.039062 249.609375 81.242188 248.1875 C 77.851562 246.917969 74.808594 244.8125 71.886719 242.707031 C 68.890625 240.550781 65.90625 238.4375 62.773438 236.472656 C 56.730469 232.683594 50.886719 228.363281 46.953125 222.296875 C 44.902344 219.140625 43.21875 215.726562 41.84375 212.226562 C 40.453125 208.683594 39.105469 204.886719 38.867188 201.0625 C 38.609375 196.921875 39.371094 192.808594 39.46875 188.671875 C 39.554688 184.933594 39.117188 181.203125 38.484375 177.523438 C 37.179688 169.984375 34.898438 162.59375 34.242188 154.945312 C 33.546875 146.808594 35.339844 138.78125 37.796875 131.0625 C 42.394531 116.628906 49.792969 102.746094 58.664062 90.484375 C 73.796875 69.582031 96.429688 52.132812 123.238281 51.921875 C 126.953125 51.894531 130.675781 52.136719 134.320312 52.878906 C 138.351562 53.703125 142.300781 54.890625 146.382812 55.46875 C 154.320312 56.59375 162.25 56.664062 169.476562 60.632812 C 179.933594 66.378906 184.652344 77.203125 185.75 88.535156 C 183.0625 82.363281 177.214844 77.5 171.414062 74.324219 C 166.828125 71.8125 161.9375 70.335938 156.929688 68.914062 C 150.851562 67.1875 144.648438 65.730469 138.308594 65.605469 C 138.117188 65.101562 137.925781 64.597656 137.726562 64.097656 C 137.117188 62.578125 136.574219 60.816406 135.585938 59.5 C 134.945312 58.640625 133.632812 59.128906 133.84375 60.234375 C 134.144531 61.777344 134.964844 63.242188 135.542969 64.699219 C 135.664062 65.011719 135.785156 65.320312 135.902344 65.632812 C 129.476562 65.914062 123.371094 67.917969 117.378906 70.195312 C 114.363281 71.339844 111.398438 72.601562 108.242188 73.304688 C 105.550781 73.902344 102.800781 74.261719 100.21875 75.269531 C 97.21875 76.4375 94.789062 78.464844 92.222656 80.355469 C 89.535156 82.335938 86.839844 84.304688 84.226562 86.382812 C 83.664062 86.832031 83.105469 87.285156 82.546875 87.746094 C 81.457031 86.414062 80.316406 85.132812 79.171875 83.921875 C 78.191406 82.882812 76.644531 84.441406 77.605469 85.488281 C 78.722656 86.699219 79.726562 88 80.703125 89.324219 C 79.292969 90.570312 77.945312 91.886719 76.734375 93.324219 C 74.75 95.683594 73.066406 98.261719 71.3125 100.789062 C 67.558594 106.191406 63.164062 111.089844 59.621094 116.648438 C 56.179688 122.042969 53.003906 128.140625 52.667969 134.648438 C 52.597656 135.957031 54.515625 135.894531 54.664062 134.648438 C 55.953125 123.613281 63.722656 114.148438 70.402344 105.757812 C 74.109375 101.09375 76.941406 95.785156 81.378906 91.726562 C 81.59375 91.53125 81.8125 91.34375 82.03125 91.148438 C 82.726562 92.113281 83.425781 93.074219 84.160156 94.011719 C 84.746094 94.753906 85.289062 96.101562 86.199219 96.492188 C 87.066406 96.863281 88.171875 96.011719 87.652344 95.082031 C 86.578125 93.171875 85.3125 91.296875 83.9375 89.496094 C 88.046875 86.035156 92.460938 82.914062 96.785156 79.738281 C 101.5 76.273438 107.058594 76.328125 112.390625 74.476562 C 118.492188 72.359375 124.371094 69.617188 130.761719 68.425781 C 132.734375 68.0625 134.714844 67.867188 136.699219 67.816406 C 136.882812 68.347656 137.058594 68.878906 137.230469 69.414062 C 138.246094 72.640625 138.828125 75.910156 139.230469 79.265625 C 139.378906 80.488281 141.085938 80.539062 141.175781 79.265625 C 141.421875 75.828125 140.539062 72.347656 139.515625 69.089844 C 139.382812 68.667969 139.246094 68.242188 139.105469 67.824219 C 142.761719 67.933594 146.410156 68.492188 150 69.3125 C 155.394531 70.550781 160.984375 71.957031 166.078125 74.164062 C 174.808594 77.949219 183.707031 84.625 185.140625 94.664062 C 185.355469 96.183594 185.09375 97.9375 185.058594 99.273438 C 185.058594 99.277344 176.84375 102.027344 176.101562 102.277344 C 175.238281 99.039062 172.394531 95.816406 169.894531 94.210938 C 168.785156 93.5 167.789062 95.242188 168.867188 95.96875 C 171.351562 97.640625 172.957031 100.242188 173.847656 103.039062 C 168.90625 104.695312 163.941406 106.253906 158.796875 107.214844 C 155.773438 104.734375 151.40625 103.445312 147.824219 102.886719 C 143.125 102.152344 137.519531 102.171875 133.304688 104.667969 C 132.242188 105.296875 133.171875 106.742188 134.246094 106.28125 C 138.398438 104.492188 143.050781 104.246094 147.472656 104.972656 C 149.746094 105.34375 152.011719 105.960938 154.101562 106.933594 C 154.597656 107.167969 155.0625 107.417969 155.511719 107.6875 C 155.121094 107.734375 153.386719 108.085938 152.929688 108.214844 C 152.097656 108.441406 151.285156 108.730469 150.480469 109.035156 C 148.882812 109.640625 147.371094 110.21875 145.8125 110.976562 C 141.042969 113.296875 136.472656 115.621094 132.183594 118.839844 C 128.078125 121.925781 124.324219 125.546875 121.503906 129.769531 C 121.472656 129.761719 121.441406 129.75 121.414062 129.746094 C 119.855469 129.539062 118.371094 128.433594 117.15625 127.519531 C 115.007812 125.902344 113.035156 124.03125 111.113281 122.15625 C 109.921875 120.996094 108.757812 119.804688 107.605469 118.605469 C 108.757812 117.621094 109.945312 116.683594 111.175781 115.808594 C 112.816406 114.644531 114.710938 113.25 116.746094 112.910156 C 117.890625 112.71875 117.636719 110.722656 116.46875 110.859375 C 114.238281 111.121094 112.246094 112.453125 110.445312 113.710938 C 108.957031 114.75 107.519531 115.878906 106.132812 117.0625 C 104.398438 115.246094 102.667969 113.425781 100.867188 111.679688 C 99.925781 110.765625 98.519531 112.171875 99.429688 113.117188 C 101.140625 114.898438 102.8125 116.714844 104.492188 118.523438 C 104.359375 118.644531 104.222656 118.761719 104.09375 118.882812 C 99.703125 123.015625 96.191406 128.886719 95.304688 134.898438 C 95.136719 136.039062 96.824219 136.574219 97.082031 135.390625 C 98.28125 129.839844 101.351562 124.40625 105.472656 120.507812 C 105.628906 120.363281 105.789062 120.222656 105.945312 120.074219 C 107.476562 121.699219 109.023438 123.308594 110.636719 124.855469 C 111.984375 126.15625 113.359375 127.4375 114.824219 128.609375 C 115.519531 129.164062 116.257812 129.660156 116.960938 130.199219 C 117.445312 130.566406 117.945312 130.917969 118.488281 131.191406 C 119.007812 131.453125 119.570312 131.773438 120.117188 131.96875 C 120.003906 131.929688 119.480469 133.257812 119.390625 133.394531 C 119.078125 133.855469 118.925781 134.351562 118.691406 134.863281 C 118.554688 135.164062 118.40625 135.5 118.300781 135.808594 C 117.722656 135.65625 117.210938 135.398438 116.65625 135.207031 C 116.242188 135.0625 115.828125 135.007812 115.421875 135.207031 C 114.792969 135.511719 114.585938 136.125 114.957031 136.726562 C 115.386719 137.425781 116.097656 137.5 116.78125 137.816406 C 117.011719 137.925781 117.230469 138.042969 117.449219 138.152344 C 116.882812 140.703125 116.3125 143.277344 115.890625 145.859375 C 115.621094 147.507812 115.398438 149.164062 115.222656 150.824219 C 115.210938 150.910156 115.203125 151.535156 115.144531 151.5625 C 115.117188 151.574219 115.089844 151.585938 115.0625 151.601562 C 115.015625 151.597656 114.96875 151.59375 114.9375 151.578125 C 114.542969 151.410156 113.988281 151.414062 113.5625 151.328125 C 112.621094 151.136719 111.683594 150.914062 110.742188 150.71875 C 107.773438 150.101562 104.722656 149.859375 101.726562 149.390625 C 95.449219 148.40625 89.285156 145.90625 82.839844 146.464844 C 81.519531 146.578125 81.492188 148.640625 82.839844 148.550781 C 85.378906 148.378906 87.867188 148.714844 90.332031 149.222656 C 90.328125 149.53125 90.332031 149.828125 90.394531 150.132812 C 90.574219 150.992188 91.851562 151.007812 92.035156 150.148438 C 92.074219 149.964844 92.089844 149.789062 92.097656 149.609375 C 92.191406 149.632812 92.289062 149.65625 92.382812 149.679688 C 92.363281 149.84375 92.351562 150.003906 92.347656 150.175781 C 92.34375 150.554688 92.292969 150.945312 92.574219 151.261719 C 92.871094 151.597656 93.433594 151.605469 93.667969 151.199219 C 93.859375 150.863281 93.785156 150.417969 93.875 150.054688 C 94.023438 150.109375 94.1875 150.132812 94.34375 150.15625 C 94.386719 150.808594 94.328125 151.453125 94.46875 152.078125 C 94.578125 152.550781 95.296875 152.792969 95.664062 152.441406 C 95.882812 152.234375 95.867188 152.007812 95.851562 151.746094 C 95.828125 151.371094 95.945312 151.027344 95.972656 150.652344 C 95.980469 150.574219 96.515625 150.757812 96.554688 150.832031 C 96.644531 151.011719 96.46875 151.597656 96.441406 151.800781 C 96.375 152.289062 96.21875 153.214844 96.527344 153.628906 C 96.832031 154.039062 97.519531 154.050781 97.789062 153.578125 C 98.042969 153.132812 98.046875 152.671875 98.089844 152.175781 C 98.128906 151.785156 98.1875 151.386719 98.191406 150.988281 C 98.519531 151.054688 98.851562 151.113281 99.183594 151.171875 C 99.136719 151.625 99.105469 152.078125 99.050781 152.53125 C 98.988281 153.046875 98.886719 153.5625 99.054688 154.0625 C 99.308594 154.820312 100.242188 154.742188 100.519531 154.0625 C 100.714844 153.597656 100.691406 153.03125 100.742188 152.53125 C 100.777344 152.179688 100.820312 151.824219 100.828125 151.46875 C 101.09375 151.511719 101.355469 151.550781 101.621094 151.59375 C 101.410156 152.277344 101.21875 152.988281 101.207031 153.710938 C 101.199219 154.027344 101.207031 154.425781 101.351562 154.71875 C 101.484375 154.992188 101.714844 155.019531 102.027344 155.015625 C 102.628906 155.007812 102.824219 154.664062 102.84375 154.113281 C 102.867188 153.359375 103.074219 152.597656 103.195312 151.847656 C 103.410156 151.890625 103.601562 151.960938 103.824219 151.996094 C 103.859375 152.664062 103.800781 153.421875 103.710938 154.082031 C 103.636719 154.636719 103.46875 155.183594 103.988281 155.5625 C 104.347656 155.828125 104.855469 155.769531 105.074219 155.351562 C 105.550781 154.441406 105.402344 153.210938 105.453125 152.21875 C 105.71875 152.144531 105.988281 152.230469 106.242188 152.273438 C 106.273438 152.566406 106.203125 152.886719 106.191406 153.183594 C 106.167969 153.671875 106.117188 154.238281 106.363281 154.6875 C 106.683594 155.273438 107.320312 155.042969 107.566406 154.507812 C 107.738281 154.125 107.667969 153.722656 107.726562 153.320312 C 107.765625 153.050781 107.855469 152.792969 107.84375 152.519531 C 108.160156 152.601562 108.519531 152.621094 108.824219 152.710938 C 108.730469 153.097656 108.574219 153.980469 108.847656 154.3125 C 109.117188 154.640625 109.679688 154.722656 109.929688 154.351562 C 110.175781 153.984375 110.171875 153.460938 110.261719 153.039062 C 110.503906 153.148438 110.839844 153.15625 111.105469 153.234375 C 110.980469 153.660156 110.773438 154.523438 111.042969 154.914062 C 111.234375 155.191406 111.839844 155.4375 112.101562 155.101562 C 112.210938 154.960938 112.210938 154.605469 112.253906 154.433594 C 112.324219 154.136719 112.40625 153.839844 112.480469 153.542969 C 112.714844 153.589844 112.980469 153.652344 113.21875 153.675781 C 113.203125 154.328125 112.75 156.007812 113.898438 155.945312 C 114.242188 155.929688 114.46875 155.6875 114.59375 155.382812 C 114.664062 155.21875 114.710938 155.042969 114.75 154.859375 C 114.800781 154.871094 114.847656 154.878906 114.898438 154.878906 C 114.59375 160.148438 114.792969 165.441406 115.625 170.648438 C 116.089844 173.539062 116.753906 176.527344 117.710938 179.421875 C 114.28125 179.515625 110.984375 180.992188 107.78125 182.101562 C 106.519531 182.535156 107.027344 184.507812 108.339844 184.125 C 111.785156 183.117188 114.988281 181.859375 118.574219 181.78125 C 118.949219 182.726562 119.359375 183.65625 119.8125 184.5625 C 114.386719 185.175781 108.820312 187.792969 104.882812 191.308594 C 103.902344 192.179688 105.308594 193.492188 106.292969 192.71875 C 110.570312 189.355469 115.75 187.527344 121.09375 186.886719 C 122.644531 189.429688 124.570312 191.710938 126.960938 193.53125 C 128.144531 194.4375 129.40625 195.246094 130.71875 195.96875 C 130.328125 196.308594 129.933594 196.648438 129.492188 196.933594 C 127.417969 198.277344 125.234375 199.429688 123.15625 200.78125 C 122.402344 201.273438 121.25 201.929688 121 202.855469 C 120.8125 203.566406 121.488281 204.15625 122.148438 204.035156 C 122.8125 203.917969 123.222656 203.464844 123.773438 203.128906 C 124.289062 202.8125 124.789062 202.480469 125.296875 202.144531 C 126.457031 201.367188 127.679688 200.695312 128.902344 200.019531 C 130.261719 199.273438 131.953125 198.394531 132.988281 197.113281 C 134.125 197.628906 135.289062 198.089844 136.476562 198.488281 C 137.164062 202.109375 137.015625 205.625 136.152344 208.984375 Z M 169.292969 173.324219 C 168.9375 174.191406 168.574219 175.054688 168.113281 175.882812 C 166.609375 178.597656 164.949219 180.078125 161.710938 179.40625 C 159.195312 178.878906 156.785156 177.574219 154.675781 176.136719 C 152.300781 174.515625 150.070312 172.183594 149.195312 169.394531 C 148.222656 166.285156 148.980469 162.992188 149.953125 159.984375 C 151.960938 153.742188 155.132812 147.792969 159.957031 143.277344 C 164.609375 138.921875 170.5 136.21875 176.570312 134.480469 C 177.476562 134.21875 178.394531 133.980469 179.316406 133.761719 C 179.613281 135.328125 179.917969 136.890625 180.199219 138.460938 C 180.574219 140.550781 180.710938 142.761719 181.316406 144.792969 C 181.636719 145.859375 183.105469 145.59375 183.191406 144.539062 C 183.34375 142.632812 182.890625 140.644531 182.574219 138.765625 C 182.261719 136.933594 181.902344 135.105469 181.554688 133.277344 C 183.710938 132.847656 185.890625 132.523438 188.070312 132.304688 C 192.058594 131.90625 196.09375 131.671875 199.832031 133.355469 C 203.3125 134.921875 206.316406 137.355469 209.40625 139.550781 C 212.398438 141.679688 215.394531 143.636719 217.953125 146.304688 C 222.695312 151.242188 225.609375 157.570312 226.527344 164.335938 C 227.269531 169.832031 227.546875 176.757812 223.515625 181.136719 C 221 183.863281 217.484375 185.195312 213.851562 185.75 C 213.605469 185.375 213.355469 185 213.097656 184.632812 C 212.140625 183.253906 211.140625 181.90625 210.160156 180.542969 C 209.191406 179.195312 208.339844 177.664062 207.148438 176.5 C 206.492188 175.859375 205.222656 176.496094 205.542969 177.433594 C 206.554688 180.414062 209.113281 183.046875 210.878906 185.625 C 210.972656 185.757812 211.0625 185.890625 211.152344 186.027344 C 210.390625 186.070312 209.632812 186.089844 208.886719 186.085938 C 204.25 186.058594 199.472656 185.257812 195.078125 183.667969 C 196.925781 182.078125 198.578125 180.1875 198.753906 177.882812 C 198.804688 177.230469 198.757812 176.628906 198.636719 176.078125 C 199.609375 175.257812 200.484375 174.457031 201.644531 173.855469 C 202.570312 173.378906 204.210938 172.972656 204.921875 172.238281 C 205.511719 171.632812 205.226562 170.628906 204.421875 170.382812 C 203.367188 170.0625 201.339844 171.160156 200.414062 171.632812 C 200.082031 171.804688 197.214844 173.695312 197.210938 173.691406 C 195.804688 172.992188 194.773438 172.558594 193.144531 172.949219 C 191.882812 173.25 190.601562 174.140625 189.308594 174.222656 C 188.253906 174.289062 188.585938 173.761719 188.917969 172.914062 C 189.460938 171.53125 190.046875 170.183594 189.875 168.664062 C 189.675781 166.859375 188.355469 165.402344 186.742188 164.664062 C 183.375 163.121094 178.664062 164.078125 175.457031 165.613281 C 173.5625 166.515625 172.058594 168.042969 170.960938 169.8125 C 170.261719 170.929688 169.785156 172.132812 169.292969 173.324219 Z M 187.472656 191.925781 C 187.519531 191.550781 187.601562 191.175781 187.726562 190.808594 C 188.371094 188.925781 190.382812 187.34375 191.910156 186.15625 C 192.164062 185.957031 192.433594 185.753906 192.707031 185.542969 C 197.539062 187.511719 202.832031 188.542969 208.03125 188.683594 C 209.589844 188.726562 211.183594 188.679688 212.773438 188.511719 C 214.03125 190.558594 215.144531 192.6875 215.886719 194.980469 C 217.230469 199.117188 217.796875 203.691406 219.242188 207.859375 C 216.113281 208.660156 212.902344 209.226562 209.695312 209.4375 C 201.019531 210.011719 191.019531 205.386719 188.214844 196.65625 C 187.726562 195.140625 187.277344 193.511719 187.472656 191.925781 Z M 182.292969 185.472656 C 182.136719 185.394531 181.96875 185.324219 181.800781 185.269531 C 181.355469 185.128906 180.871094 185.402344 180.699219 185.8125 C 180.578125 186.09375 180.613281 186.410156 180.765625 186.664062 C 180.753906 186.675781 180.738281 186.683594 180.726562 186.695312 C 180.660156 186.609375 180.597656 186.515625 180.53125 186.402344 C 180.296875 186.003906 179.761719 185.863281 179.363281 186.09375 C 178.921875 186.351562 178.878906 186.835938 179.058594 187.261719 C 179.15625 187.496094 179.269531 187.722656 179.398438 187.9375 C 179.289062 188.039062 179.183594 188.144531 179.074219 188.246094 C 179.058594 188.230469 179.042969 188.210938 179.027344 188.195312 C 178.824219 187.976562 178.628906 187.753906 178.445312 187.519531 C 178.171875 187.171875 177.589844 187.207031 177.273438 187.449219 C 176.894531 187.742188 176.867188 188.183594 177.046875 188.597656 C 177.191406 188.941406 177.386719 189.277344 177.628906 189.570312 C 177.605469 189.589844 177.582031 189.613281 177.558594 189.632812 C 177.472656 189.535156 177.382812 189.441406 177.289062 189.34375 C 177.035156 189.082031 176.757812 188.84375 176.476562 188.609375 C 176.128906 188.316406 175.664062 188.25 175.289062 188.539062 C 174.972656 188.785156 174.78125 189.347656 175.058594 189.703125 C 175.320312 190.042969 175.578125 190.382812 175.886719 190.683594 C 175.917969 190.714844 175.953125 190.75 175.988281 190.785156 C 175.660156 190.980469 175.324219 191.15625 174.980469 191.304688 C 174.277344 190.171875 173.734375 188.980469 173.621094 187.613281 C 173.488281 186.054688 173.691406 184.464844 173.722656 182.902344 C 173.785156 179.804688 172.496094 176.929688 172.347656 173.878906 C 172.882812 172.425781 173.621094 171.074219 174.710938 169.941406 C 176.144531 168.457031 177.933594 167.78125 179.917969 167.355469 C 181.679688 166.980469 184.175781 166.617188 185.800781 167.628906 C 188.671875 169.414062 184.347656 173.214844 185.761719 175.800781 C 187.421875 178.835938 191.1875 176.707031 193.539062 176.03125 C 194.910156 175.636719 195.734375 175.710938 195.695312 177.4375 C 195.65625 179.011719 194.109375 180.367188 192.949219 181.371094 C 192.894531 181.382812 192.839844 181.394531 192.785156 181.414062 C 189.367188 182.59375 185.34375 183.445312 182.292969 185.472656 Z M 263.6875 182.8125 C 262.203125 193.335938 260.324219 204.136719 252.726562 212.132812 C 246.46875 218.722656 237.636719 222.796875 228.910156 224.96875 C 213.9375 228.691406 195.382812 226.199219 187.617188 211.183594 C 185.371094 206.84375 184.054688 201.710938 184.992188 196.832031 C 185.058594 196.488281 185.136719 196.152344 185.222656 195.820312 C 187.09375 204.78125 196.0625 210.894531 204.917969 211.984375 C 209.300781 212.523438 213.847656 211.777344 218.121094 210.828125 C 218.820312 210.671875 219.53125 210.503906 220.238281 210.328125 C 220.851562 211.632812 221.59375 212.878906 222.53125 214.027344 C 223.292969 214.964844 224.84375 213.75 224.199219 212.742188 C 223.5625 211.746094 223.003906 210.742188 222.5 209.722656 C 225.6875 208.804688 228.824219 207.585938 231.566406 205.824219 C 235.914062 203.03125 239.089844 198.03125 241.578125 193.617188 C 241.90625 193.035156 242.21875 192.445312 242.527344 191.851562 C 243.414062 192.449219 244.3125 193.019531 245.28125 193.421875 C 246.226562 193.8125 246.773438 192.46875 246.203125 191.839844 C 245.484375 191.042969 244.578125 190.328125 243.609375 189.6875 C 245.523438 185.671875 247.058594 181.472656 248.429688 177.246094 C 251.8125 166.8125 251.78125 155.117188 248.28125 144.710938 C 247.839844 143.394531 247.347656 141.976562 246.789062 140.515625 C 248.15625 139.550781 249.558594 138.515625 250.695312 137.339844 C 251.507812 136.496094 250.484375 135.253906 249.476562 135.761719 C 248.191406 136.40625 247.046875 137.371094 245.902344 138.289062 C 246.238281 138.019531 243.320312 132.941406 243.011719 132.417969 C 241.929688 130.578125 240.6875 128.816406 239.203125 127.28125 C 237.753906 125.78125 236.070312 124.5 234.152344 123.667969 C 232.941406 123.140625 229.941406 121.667969 228.84375 122.992188 C 228.328125 123.617188 228.585938 124.691406 229.402344 124.890625 C 236.859375 126.710938 240.910156 133.207031 243.691406 139.910156 C 242.382812 140.769531 241.019531 141.507812 239.601562 142.210938 C 238.574219 142.722656 239.3125 144.246094 240.355469 144 C 241.863281 143.648438 243.246094 142.910156 244.546875 142.066406 C 244.683594 142.429688 244.820312 142.792969 244.949219 143.152344 C 248.328125 152.417969 249.542969 162.59375 247.285156 172.296875 C 246.082031 177.46875 244.113281 182.671875 241.910156 187.496094 C 241.769531 187.804688 241.625 188.113281 241.476562 188.417969 C 241.011719 188.164062 240.550781 187.925781 240.105469 187.699219 C 238.046875 186.652344 235.515625 185.558594 233.171875 185.613281 C 232.019531 185.640625 231.960938 187.101562 232.917969 187.5 C 235.132812 188.421875 237.441406 188.765625 239.585938 189.941406 C 239.882812 190.105469 240.171875 190.28125 240.457031 190.460938 C 238.410156 194.367188 235.929688 198.039062 232.929688 201.292969 C 230.167969 204.289062 226.191406 205.792969 222.375 206.972656 C 222.058594 207.070312 221.734375 207.164062 221.414062 207.257812 C 220.894531 205.917969 220.457031 204.535156 220.09375 203.074219 C 219.265625 199.753906 218.722656 196.339844 217.585938 193.101562 C 216.980469 191.371094 216.199219 189.726562 215.304688 188.140625 C 218.285156 187.558594 221.140625 186.472656 223.550781 184.628906 C 228.761719 180.640625 229.738281 174.332031 229.527344 168.132812 C 229.265625 160.5625 226.929688 153.1875 222.261719 147.175781 C 219.847656 144.070312 216.921875 141.425781 213.683594 139.199219 C 210.15625 136.777344 206.765625 134.027344 203.027344 131.945312 C 199.179688 129.800781 195.355469 129.152344 190.996094 129.367188 C 187.679688 129.53125 184.355469 129.957031 181.085938 130.605469 C 180.5625 127.347656 180.191406 124.089844 179.773438 120.804688 C 179.613281 119.550781 177.871094 119.492188 177.777344 120.804688 C 177.535156 124.203125 178.167969 127.722656 178.8125 131.097656 C 178.515625 131.167969 178.21875 131.230469 177.925781 131.304688 C 170.917969 133.015625 164.046875 135.96875 158.617188 140.804688 C 157.390625 141.898438 156.210938 143.054688 155.191406 144.339844 C 155.027344 144.550781 154.835938 144.742188 154.675781 144.957031 C 153.824219 144.316406 152.972656 143.703125 152.097656 143.097656 C 151.152344 142.441406 150.164062 141.847656 149.171875 141.265625 C 147.378906 140.210938 145.574219 139.089844 143.6875 138.21875 C 142.476562 137.65625 141.601562 139.195312 142.652344 139.984375 C 143.125 140.339844 143.617188 140.664062 144.121094 140.976562 C 144.101562 141.019531 144.085938 141.0625 144.066406 141.105469 C 143.953125 141.339844 143.828125 141.570312 143.6875 141.792969 C 143.457031 142.164062 143.597656 142.726562 143.984375 142.933594 C 144.40625 143.152344 144.867188 143.023438 145.125 142.632812 C 145.289062 142.390625 145.4375 142.136719 145.566406 141.871094 C 145.570312 141.859375 145.574219 141.851562 145.578125 141.839844 C 145.707031 141.914062 145.839844 141.984375 145.96875 142.058594 C 145.898438 142.199219 145.832031 142.339844 145.757812 142.46875 C 145.535156 142.847656 145.285156 143.207031 145.039062 143.570312 C 144.535156 144.316406 145.679688 145.195312 146.289062 144.53125 C 146.632812 144.160156 146.921875 143.738281 147.1875 143.304688 C 147.265625 143.175781 147.351562 143.039062 147.433594 142.898438 C 147.535156 142.960938 147.640625 143.019531 147.746094 143.078125 C 147.355469 143.683594 147.007812 144.320312 146.605469 144.902344 C 146.113281 145.613281 147.230469 146.476562 147.804688 145.828125 C 148.304688 145.265625 148.746094 144.609375 149.15625 143.949219 C 149.304688 144.042969 149.453125 144.140625 149.605469 144.238281 C 149.160156 144.917969 148.804688 145.679688 148.257812 146.28125 C 147.589844 147.015625 148.628906 148.066406 149.347656 147.375 C 149.800781 146.941406 150.167969 146.4375 150.507812 145.914062 C 150.671875 145.660156 150.847656 145.402344 151.015625 145.136719 C 151.097656 145.191406 151.179688 145.242188 151.261719 145.292969 C 150.699219 146.0625 150.191406 146.886719 149.59375 147.621094 C 149 148.355469 150.019531 149.410156 150.648438 148.671875 C 151.3125 147.890625 152.078125 147.058594 152.65625 146.152344 C 152.703125 146.179688 152.75 146.210938 152.796875 146.238281 C 152.824219 146.253906 151.972656 147.601562 151.882812 147.71875 C 151.632812 148.054688 151.15625 148.519531 151.207031 148.992188 C 151.21875 149.082031 151.601562 149.535156 151.652344 149.449219 C 149.886719 152.457031 148.492188 155.695312 147.398438 159.011719 C 146.289062 162.378906 145.519531 166.039062 146.4375 169.546875 C 147.316406 172.910156 149.726562 175.71875 152.453125 177.773438 C 156.113281 180.527344 163.160156 184.253906 167.464844 180.875 C 167.601562 180.765625 167.734375 180.652344 167.855469 180.535156 C 167.546875 182.65625 167.214844 184.773438 166.554688 186.820312 C 165.542969 189.941406 162.835938 190.152344 159.96875 190.304688 C 157.894531 190.414062 155.804688 190.230469 153.761719 189.875 C 149.765625 189.175781 145.699219 187.976562 142.078125 186.128906 C 137.28125 183.675781 133.886719 179.714844 132.421875 174.523438 C 132.203125 173.757812 132.023438 172.984375 131.871094 172.203125 C 131.703125 171.332031 131.554688 170.449219 131.457031 169.5625 C 131.363281 168.71875 131.410156 167.863281 131.269531 167.023438 C 131.074219 165.84375 129.417969 166.257812 129.320312 167.289062 C 128.492188 176.105469 132.976562 184.574219 140.941406 188.535156 C 145.003906 190.558594 149.53125 191.910156 154.011719 192.578125 C 156.273438 192.914062 158.574219 193.097656 160.855469 192.867188 C 161.484375 192.800781 162.1875 192.71875 162.890625 192.582031 C 162.101562 193.328125 161.226562 193.988281 160.277344 194.554688 C 154.347656 198.089844 146.6875 197.984375 140.179688 196.355469 C 133.847656 194.769531 127.3125 191.496094 123.9375 185.667969 C 118.875 176.933594 117.492188 166.496094 117.878906 156.546875 C 118.230469 147.597656 119.351562 137.757812 124.769531 130.335938 C 131.632812 120.941406 142.136719 114.867188 153.140625 111.652344 C 155.699219 110.90625 158.265625 110.164062 160.871094 109.609375 C 166.253906 108.460938 171.777344 107.277344 177.0625 105.558594 C 182.53125 103.78125 187.941406 101.8125 193.566406 100.574219 C 198.457031 99.496094 203.394531 99.09375 208.390625 99.199219 C 226.546875 99.585938 245.429688 106.347656 255.652344 122.109375 C 261.300781 130.816406 264.925781 140.710938 265.980469 151.046875 C 267.074219 161.804688 265.1875 172.203125 263.6875 182.8125 Z M 263.6875 182.8125 " fill-opacity="1" fill-rule="nonzero"/><path fill="#a9a0f0" d="M 143.070312 106.464844 C 143.054688 107.398438 143.101562 108.265625 143.246094 109.1875 C 143.390625 110.089844 144.929688 110.09375 145.074219 109.1875 C 145.21875 108.265625 145.265625 107.398438 145.25 106.464844 C 145.222656 105.0625 143.09375 105.0625 143.070312 106.464844 Z M 143.070312 106.464844 " fill-opacity="1" fill-rule="nonzero"/><path fill="#a9a0f0" d="M 168.273438 83.207031 C 167.796875 82.136719 166.152344 82.910156 166.425781 83.984375 C 168.09375 90.484375 164.910156 96.84375 160.820312 101.859375 C 160.09375 102.753906 161.289062 104.027344 162.113281 103.152344 C 166.695312 98.300781 171.285156 89.945312 168.273438 83.207031 Z M 168.273438 83.207031 " fill-opacity="1" fill-rule="nonzero"/><path fill="#a9a0f0" d="M 81.183594 212.25 C 78.507812 209.949219 75.992188 207.75 73.921875 204.855469 C 71.878906 202.003906 70.226562 198.886719 68.832031 195.675781 C 66.050781 189.265625 64.332031 182.464844 62.933594 175.640625 C 62.734375 174.679688 61.316406 175.097656 61.476562 176.042969 C 62.679688 183.125 64.578125 190.15625 67.464844 196.75 C 68.957031 200.160156 70.75 203.460938 72.992188 206.445312 C 74.96875 209.082031 77.351562 211.828125 80.296875 213.398438 C 81 213.773438 81.84375 212.8125 81.183594 212.25 Z M 81.183594 212.25 " fill-opacity="1" fill-rule="nonzero"/><path fill="#a9a0f0" d="M 113.296875 98.644531 C 111.621094 96.101562 109.84375 93.730469 108.359375 91.054688 C 107.875 90.179688 106.648438 90.949219 107.042969 91.828125 C 108.246094 94.511719 109.96875 97.503906 112.113281 99.554688 C 112.710938 100.125 113.78125 99.378906 113.296875 98.644531 Z M 113.296875 98.644531 " fill-opacity="1" fill-rule="nonzero"/><path fill="#a9a0f0" d="M 115.664062 98.828125 C 115.285156 97.535156 114.328125 96.472656 113.621094 95.351562 C 113.105469 94.542969 111.875 95.257812 112.332031 96.101562 C 112.9375 97.21875 113.59375 98.351562 114.320312 99.394531 C 114.773438 100.050781 115.914062 99.671875 115.664062 98.828125 Z M 115.664062 98.828125 " fill-opacity="1" fill-rule="nonzero"/><path fill="#a9a0f0" d="M 173.421875 81.996094 C 173.195312 81.15625 171.753906 81.292969 171.851562 82.210938 C 172.070312 84.246094 172.074219 86.101562 171.871094 88.144531 C 171.785156 89.019531 173.203125 89.199219 173.402344 88.351562 C 173.878906 86.308594 173.964844 84.039062 173.421875 81.996094 Z M 173.421875 81.996094 " fill-opacity="1" fill-rule="nonzero"/><path fill="#a9a0f0" d="M 258.902344 191.78125 C 258.277344 194.136719 257.363281 196.285156 256.183594 198.421875 C 255.164062 200.269531 253.992188 202.085938 253.25 204.070312 C 252.5 206.066406 252.246094 208.375 250.695312 209.957031 C 249.78125 210.890625 248.664062 211.574219 247.679688 212.429688 C 247.355469 212.710938 246.480469 213.226562 246.476562 213.71875 C 246.46875 214.679688 247.632812 214.414062 248.140625 214.09375 C 249.558594 213.199219 251.410156 211.757812 252.453125 210.441406 C 253.695312 208.871094 254.023438 206.828125 254.679688 204.992188 C 256.257812 200.5625 259.707031 196.972656 260.472656 192.210938 C 260.636719 191.203125 259.175781 190.742188 258.902344 191.78125 Z M 258.902344 191.78125 " fill-opacity="1" fill-rule="nonzero"/><path fill="#a9a0f0" d="M 135.253906 189.5 C 131.402344 185.875 128.117188 182.261719 125.996094 177.34375 C 123.886719 172.460938 123.113281 167.25 122.628906 161.996094 C 122.542969 161.046875 121.097656 161.011719 121.125 161.996094 C 121.410156 172.4375 125.257812 184.566406 134.367188 190.652344 C 135.058594 191.113281 135.855469 190.066406 135.253906 189.5 Z M 135.253906 189.5 " fill-opacity="1" fill-rule="nonzero"/><path fill="#a9a0f0" d="M 145.804688 194.277344 C 143.71875 193.519531 141.597656 192.921875 139.730469 191.679688 C 138.921875 191.140625 138.191406 192.425781 138.972656 192.972656 C 140.875 194.292969 143.175781 195.144531 145.425781 195.648438 C 146.328125 195.847656 146.65625 194.589844 145.804688 194.277344 Z M 145.804688 194.277344 " fill-opacity="1" fill-rule="nonzero"/><path fill="#a9a0f0" d="M 143.65625 150.082031 C 141.152344 154.796875 138.765625 159.464844 139 164.960938 C 139.035156 165.84375 140.304688 165.835938 140.363281 164.960938 C 140.539062 162.394531 140.804688 159.957031 141.691406 157.523438 C 142.542969 155.195312 143.777344 153.015625 144.9375 150.828125 C 145.382812 149.988281 144.105469 149.238281 143.65625 150.082031 Z M 143.65625 150.082031 " fill-opacity="1" fill-rule="nonzero"/><path fill="#a9a0f0" d="M 196.847656 115.179688 C 196.832031 114.160156 195.28125 114.160156 195.265625 115.179688 C 195.246094 116.667969 195.152344 118.175781 195.371094 119.652344 C 195.46875 120.335938 196.644531 120.335938 196.746094 119.652344 C 196.964844 118.175781 196.871094 116.667969 196.847656 115.179688 Z M 196.847656 115.179688 " fill-opacity="1" fill-rule="nonzero"/><path fill="#a9a0f0" d="M 198.148438 117.859375 C 197.574219 118.4375 197.714844 119.757812 197.605469 120.476562 C 197.332031 122.320312 197.421875 124.214844 197.648438 126.058594 C 197.761719 126.972656 198.984375 126.988281 199.082031 126.058594 C 199.3125 123.898438 199.363281 121.710938 199.664062 119.585938 C 199.785156 118.734375 199.519531 116.71875 198.214844 117.796875 C 198.191406 117.816406 198.171875 117.839844 198.148438 117.859375 Z M 198.148438 117.859375 " fill-opacity="1" fill-rule="nonzero"/><path fill="#a9a0f0" d="M 199.179688 156.875 C 196.789062 158.910156 194.234375 162.027344 193.40625 165.105469 C 193.167969 166 194.417969 166.28125 194.753906 165.476562 C 195.976562 162.527344 198.183594 160.296875 200.1875 157.882812 C 200.773438 157.175781 199.886719 156.273438 199.179688 156.875 Z M 199.179688 156.875 " fill-opacity="1" fill-rule="nonzero"/><path fill="#a9a0f0" d="M 199.152344 153.21875 C 197.609375 154.445312 196.265625 156.09375 195.085938 157.664062 C 194.582031 158.332031 195.710938 159.210938 196.253906 158.5625 C 197.507812 157.078125 198.980469 155.773438 200.214844 154.285156 C 200.84375 153.53125 199.910156 152.621094 199.152344 153.21875 Z M 199.152344 153.21875 " fill-opacity="1" fill-rule="nonzero"/><path fill="#a9a0f0" d="M 181.042969 174.328125 C 180.722656 174.089844 180.269531 173.941406 179.996094 173.757812 C 179.972656 173.742188 179.835938 173.636719 179.9375 173.71875 C 179.839844 173.636719 179.722656 173.578125 179.601562 173.535156 C 179.773438 173.285156 179.953125 173.035156 180.152344 172.792969 C 180.808594 171.992188 179.710938 170.84375 178.996094 171.636719 C 175.921875 175.03125 174.867188 180.832031 175.539062 185.273438 C 175.679688 186.191406 176.957031 185.855469 177.039062 185.074219 C 177.21875 183.367188 177.09375 181.664062 177.324219 179.949219 C 177.355469 179.714844 177.828125 176.9375 178.039062 176.988281 C 178.046875 176.992188 178.050781 176.992188 178.058594 176.996094 C 178.066406 176.996094 178.070312 176.996094 178.078125 177 C 178.152344 177.046875 178.230469 177.085938 178.316406 177.113281 C 178.785156 177.242188 179.449219 177.765625 179.90625 177.273438 C 180.808594 176.289062 179.03125 175.714844 178.382812 175.460938 C 178.503906 175.285156 178.578125 175.085938 178.675781 174.898438 C 179.289062 175.265625 180.113281 175.835938 180.871094 175.679688 C 181.152344 175.621094 181.371094 175.332031 181.402344 175.0625 C 181.441406 174.734375 181.277344 174.507812 181.042969 174.328125 Z M 181.042969 174.328125 " fill-opacity="1" fill-rule="nonzero"/><path fill="#a9a0f0" d="M 179.648438 178.539062 C 179.082031 178.929688 178.722656 180.109375 178.601562 180.554688 C 178.261719 181.808594 178.234375 183.121094 178.164062 184.414062 C 178.117188 185.316406 179.347656 185.34375 179.636719 184.613281 C 180.003906 183.675781 180.074219 182.671875 180.238281 181.6875 C 180.351562 180.996094 181.164062 178.9375 180.332031 178.496094 C 180.082031 178.359375 179.851562 178.398438 179.648438 178.539062 Z M 179.648438 178.539062 " fill-opacity="1" fill-rule="nonzero"/><path fill="#a9a0f0" d="M 122.867188 64.011719 C 117.316406 64.636719 110.917969 65.566406 106.03125 68.421875 C 105.238281 68.886719 105.933594 69.960938 106.734375 69.621094 C 109.410156 68.480469 112.117188 67.628906 114.964844 67.03125 C 117.648438 66.46875 120.421875 66.191406 123.058594 65.433594 C 123.8125 65.21875 123.707031 63.917969 122.867188 64.011719 Z M 122.867188 64.011719 " fill-opacity="1" fill-rule="nonzero"/><path fill="#a9a0f0" d="M 119.898438 61.289062 C 118.066406 61.179688 116.167969 61.945312 114.535156 62.699219 C 113.558594 63.152344 114.410156 64.542969 115.375 64.132812 C 116.921875 63.472656 118.480469 63.210938 120.113281 62.878906 C 121.050781 62.6875 120.769531 61.339844 119.898438 61.289062 Z M 119.898438 61.289062 " fill-opacity="1" fill-rule="nonzero"/><path fill="#a9a0f0" d="M 83.183594 207.609375 C 79.554688 204.441406 76.273438 201.6875 74.4375 197.078125 C 74.105469 196.238281 72.816406 196.539062 73.046875 197.460938 C 74.246094 202.222656 78.277344 206.183594 82.257812 208.808594 C 82.976562 209.28125 83.839844 208.183594 83.183594 207.609375 Z M 83.183594 207.609375 " fill-opacity="1" fill-rule="nonzero"/><path fill="#a9a0f0" d="M 82.660156 202.480469 C 82.070312 201.691406 81.191406 201.105469 80.5 200.402344 C 79.953125 199.84375 78.976562 200.570312 79.40625 201.25 C 79.980469 202.171875 80.742188 203.191406 81.777344 203.625 C 82.386719 203.882812 83.046875 203.007812 82.660156 202.480469 Z M 82.660156 202.480469 " fill-opacity="1" fill-rule="nonzero"/><path fill="#a9a0f0" d="M 119.660156 205.835938 C 119.679688 205.421875 119.449219 205.042969 118.867188 204.976562 C 118.210938 204.902344 117.640625 205.871094 117.859375 206.457031 C 118.253906 207.511719 119.621094 206.726562 119.660156 205.835938 Z M 119.660156 205.835938 " fill-opacity="1" fill-rule="nonzero"/><path fill="#a9a0f0" d="M 116.34375 208.789062 C 116.285156 208.75 116.222656 208.714844 116.152344 208.6875 C 115.558594 208.457031 114.757812 208.75 114.789062 209.46875 C 114.808594 209.941406 115.566406 210.578125 116.042969 210.449219 C 116.824219 210.242188 116.9375 209.207031 116.34375 208.789062 Z M 116.34375 208.789062 " fill-opacity="1" fill-rule="nonzero"/><path fill="#a9a0f0" d="M 64.707031 144.800781 C 64.101562 144.703125 63.476562 144.730469 62.863281 144.726562 C 61.855469 144.71875 61.855469 146.300781 62.863281 146.292969 C 63.476562 146.289062 64.101562 146.316406 64.707031 146.21875 C 65.410156 146.109375 65.410156 144.910156 64.707031 144.800781 Z M 64.707031 144.800781 " fill-opacity="1" fill-rule="nonzero"/><path fill="#a9a0f0" d="M 59.09375 145.300781 C 59.097656 145.054688 58.9375 144.804688 58.527344 144.628906 C 57.675781 144.253906 56.339844 145.285156 57.261719 146.0625 C 57.929688 146.625 59.085938 145.957031 59.09375 145.300781 Z M 59.09375 145.300781 " fill-opacity="1" fill-rule="nonzero"/><path fill="#a9a0f0" d="M 115.242188 116.191406 C 114.097656 116.855469 113.136719 117.769531 112.109375 118.597656 C 111.441406 119.136719 112.316406 120.269531 113.03125 119.789062 C 114.125 119.058594 115.15625 118.230469 116.136719 117.347656 C 116.765625 116.78125 115.957031 115.773438 115.242188 116.191406 Z M 115.242188 116.191406 " fill-opacity="1" fill-rule="nonzero"/><path fill="#a9a0f0" d="M 116.734375 118.535156 C 116.148438 118.09375 115.480469 118.773438 115.054688 119.132812 C 114.574219 119.53125 113.703125 119.976562 114.179688 120.699219 C 114.898438 121.785156 116.476562 120.175781 116.933594 119.519531 C 117.148438 119.210938 117.019531 118.746094 116.734375 118.535156 Z M 116.734375 118.535156 " fill-opacity="1" fill-rule="nonzero"/><path fill="#a9a0f0" d="M 117.800781 120.355469 C 117.183594 120.214844 116.386719 121.148438 116.195312 121.6875 C 115.925781 122.441406 116.882812 122.566406 117.3125 122.257812 C 117.796875 121.90625 118.957031 120.617188 117.800781 120.355469 Z M 117.800781 120.355469 " fill-opacity="1" fill-rule="nonzero"/><path fill="#a9a0f0" d="M 119.914062 122.367188 C 119.382812 121.304688 118.144531 122.59375 117.867188 123.179688 C 117.65625 123.625 118.054688 124.273438 118.582031 124.210938 C 119.175781 124.144531 120.191406 122.988281 119.945312 122.429688 C 119.9375 122.40625 119.925781 122.386719 119.914062 122.367188 Z M 119.914062 122.367188 " fill-opacity="1" fill-rule="nonzero"/><path fill="#a9a0f0" d="M 121.292969 124.859375 C 121.296875 124.558594 121.152344 124.320312 120.757812 124.289062 C 120.167969 124.238281 119.5 125.042969 119.523438 125.582031 C 119.539062 125.976562 120.164062 126.320312 120.488281 126.1875 C 120.855469 126.042969 121.285156 125.363281 121.292969 124.859375 Z M 121.292969 124.859375 " fill-opacity="1" fill-rule="nonzero"/><path fill="#a9a0f0" d="M 180.191406 89.597656 C 179.484375 91.816406 178.472656 93.691406 177.296875 95.6875 C 176.878906 96.398438 177.859375 97.171875 178.441406 96.570312 C 180.121094 94.839844 181.601562 92.261719 181.621094 89.792969 C 181.628906 88.953125 180.433594 88.824219 180.191406 89.597656 Z M 180.191406 89.597656 " fill-opacity="1" fill-rule="nonzero"/><path fill="#a9a0f0" d="M 181.980469 93.882812 C 181.527344 93.644531 181.132812 93.945312 181.007812 94.371094 C 180.847656 94.910156 181.179688 95.097656 181.546875 95.449219 C 181.882812 95.769531 182.542969 96.585938 183.054688 96.5 C 183.632812 96.402344 183.59375 95.589844 183.402344 95.207031 C 183.117188 94.625 182.546875 94.179688 181.980469 93.882812 Z M 181.980469 93.882812 " fill-opacity="1" fill-rule="nonzero"/><path fill="#a9a0f0" d="M 181.707031 97.09375 C 181.527344 96.863281 181.292969 96.664062 181.097656 96.527344 C 180.839844 96.355469 180.367188 96.078125 180.054688 96.277344 C 179.441406 96.664062 180.027344 97.539062 180.359375 97.867188 C 180.777344 98.28125 181.597656 98.996094 181.949219 98.070312 C 182.078125 97.738281 181.933594 97.386719 181.707031 97.09375 Z M 181.707031 97.09375 " fill-opacity="1" fill-rule="nonzero"/><path fill="#a9a0f0" d="M 180.546875 98.839844 C 180.136719 98.109375 178.738281 97.5 178.609375 98.515625 C 178.542969 99.042969 179.273438 99.460938 179.644531 99.691406 C 179.957031 99.882812 180.203125 99.929688 180.488281 99.621094 C 180.703125 99.390625 180.695312 99.105469 180.546875 98.839844 Z M 180.546875 98.839844 " fill-opacity="1" fill-rule="nonzero"/><path fill="#a9a0f0" d="M 117.640625 229.589844 C 116.457031 229.019531 114.957031 228.664062 113.636719 228.769531 C 112.796875 228.835938 112.453125 230.210938 113.421875 230.363281 C 114.6875 230.558594 115.984375 230.921875 117.261719 230.992188 C 117.988281 231.03125 118.3125 229.914062 117.640625 229.589844 Z M 117.640625 229.589844 " fill-opacity="1" fill-rule="nonzero"/><path fill="#a9a0f0" d="M 118.957031 227.617188 C 118.265625 227.238281 116.140625 226.179688 115.554688 227.183594 C 115.34375 227.542969 115.445312 228.128906 115.851562 228.320312 C 116.722656 228.730469 117.808594 229.207031 118.777344 228.980469 C 119.398438 228.835938 119.507812 227.921875 118.957031 227.617188 Z M 118.957031 227.617188 " fill-opacity="1" fill-rule="nonzero"/><path fill="#a9a0f0" d="M 121.152344 226.273438 C 120.503906 225.347656 118.046875 224.578125 118.046875 225.953125 C 118.046875 226.777344 119.195312 227.039062 119.816406 227.1875 C 120.160156 227.269531 120.554688 227.46875 120.890625 227.273438 C 121.382812 226.988281 121.394531 226.617188 121.152344 226.273438 Z M 121.152344 226.273438 " fill-opacity="1" fill-rule="nonzero"/><path fill="#a9a0f0" d="M 123.203125 223.9375 C 122.90625 223.625 122.289062 223.464844 121.902344 223.359375 C 121.296875 223.1875 120.4375 223.117188 120.4375 223.976562 C 120.4375 224.800781 121.890625 225.1875 122.539062 225.132812 C 122.835938 225.109375 123.097656 224.992188 123.253906 224.722656 C 123.453125 224.386719 123.390625 224.132812 123.203125 223.9375 Z M 123.203125 223.9375 " fill-opacity="1" fill-rule="nonzero"/><path fill="#a9a0f0" d="M 124.976562 221.699219 C 124.726562 221.542969 124.4375 221.445312 124.1875 221.460938 C 123.734375 221.480469 123.296875 221.84375 123.316406 222.328125 C 123.347656 223.035156 124.519531 223.292969 125.050781 223.070312 C 125.910156 222.710938 125.554688 222.050781 124.976562 221.699219 Z M 124.976562 221.699219 " fill-opacity="1" fill-rule="nonzero"/><path fill="#a9a0f0" d="M 48.222656 214.625 C 48.066406 214.355469 47.886719 214.109375 47.75 214.003906 C 47.332031 213.679688 46.648438 214.042969 46.542969 214.515625 C 46.433594 215 46.988281 216.085938 47.480469 216.195312 C 47.933594 216.300781 48.589844 216.003906 48.558594 215.460938 C 48.546875 215.269531 48.402344 214.933594 48.222656 214.625 Z M 48.222656 214.625 " fill-opacity="1" fill-rule="nonzero"/><path fill="#a9a0f0" d="M 50.59375 214.390625 C 50.429688 214.011719 50.128906 213.632812 49.964844 213.394531 C 49.742188 213.070312 49.519531 212.734375 49.328125 212.390625 C 49.132812 212.042969 48.652344 211.929688 48.3125 212.125 C 47.9375 212.347656 47.882812 212.773438 48.046875 213.140625 C 48.402344 213.933594 48.875 214.910156 49.628906 215.390625 C 49.90625 215.566406 50.308594 215.5 50.535156 215.273438 C 50.769531 215.039062 50.730469 214.714844 50.59375 214.390625 Z M 50.59375 214.390625 " fill-opacity="1" fill-rule="nonzero"/><path fill="#a9a0f0" d="M 52.753906 214.203125 C 52.3125 213 51.675781 211.816406 51.046875 210.703125 C 50.527344 209.773438 49.113281 210.601562 49.621094 211.535156 C 50.207031 212.601562 50.613281 213.8125 51.292969 214.816406 C 51.769531 215.519531 53.082031 215.105469 52.753906 214.203125 Z M 52.753906 214.203125 " fill-opacity="1" fill-rule="nonzero"/><path fill="#a9a0f0" d="M 55.023438 213.5625 C 54.976562 212.671875 54.515625 211.859375 54.09375 211.09375 C 53.664062 210.308594 53.195312 209.5 52.601562 208.820312 C 52.074219 208.222656 50.925781 208.691406 51.289062 209.535156 C 51.625 210.308594 52.113281 211.003906 52.523438 211.738281 C 52.949219 212.5 53.230469 213.335938 53.691406 214.074219 C 54.109375 214.738281 55.054688 214.242188 55.023438 213.5625 Z M 55.023438 213.5625 " fill-opacity="1" fill-rule="nonzero"/><path fill="#a9a0f0" d="M 57.324219 212.566406 C 57.070312 211.554688 56.535156 210.664062 55.996094 209.78125 C 55.445312 208.886719 54.917969 207.949219 54.292969 207.105469 C 53.824219 206.476562 52.566406 206.8125 52.894531 207.695312 C 53.25 208.640625 53.816406 209.476562 54.335938 210.335938 C 54.894531 211.261719 55.371094 212.234375 55.949219 213.144531 C 56.40625 213.859375 57.535156 213.410156 57.324219 212.566406 Z M 57.324219 212.566406 " fill-opacity="1" fill-rule="nonzero"/><path fill="#a9a0f0" d="M 205.4375 165.207031 C 205.367188 165.039062 205.253906 164.917969 205.140625 164.78125 C 204.945312 164.546875 204.515625 164.507812 204.265625 164.667969 C 203.988281 164.847656 203.859375 165.160156 203.933594 165.484375 C 203.949219 165.558594 203.953125 165.566406 203.945312 165.5 C 203.9375 165.390625 203.945312 165.441406 203.96875 165.664062 C 203.996094 165.761719 204.054688 165.859375 204.105469 165.949219 C 204.230469 166.160156 204.414062 166.359375 204.664062 166.398438 C 204.960938 166.449219 205.296875 166.371094 205.449219 166.082031 C 205.613281 165.773438 205.570312 165.511719 205.4375 165.207031 Z M 205.4375 165.207031 " fill-opacity="1" fill-rule="nonzero"/><path fill="#a9a0f0" d="M 207.800781 164.425781 C 207.757812 164.210938 207.613281 164.019531 207.515625 163.824219 C 207.4375 163.667969 207.359375 163.515625 207.269531 163.363281 C 207.078125 163.035156 206.660156 162.902344 206.3125 163.050781 C 205.957031 163.199219 205.777344 163.582031 205.867188 163.957031 C 205.925781 164.183594 206.011719 164.394531 206.117188 164.605469 C 206.214844 164.804688 206.320312 165.042969 206.496094 165.183594 C 206.761719 165.394531 207.128906 165.503906 207.441406 165.304688 C 207.75 165.105469 207.863281 164.78125 207.800781 164.425781 Z M 207.800781 164.425781 " fill-opacity="1" fill-rule="nonzero"/><path fill="#a9a0f0" d="M 209.097656 162.363281 C 208.613281 161.847656 207.664062 162.378906 207.890625 163.066406 C 207.96875 163.304688 208.105469 163.691406 208.242188 163.984375 C 208.402344 164.324219 208.554688 164.617188 208.867188 164.839844 C 209.234375 165.105469 209.898438 164.847656 209.972656 164.390625 C 210.097656 163.617188 209.570312 162.871094 209.097656 162.363281 Z M 209.097656 162.363281 " fill-opacity="1" fill-rule="nonzero"/><path fill="#a9a0f0" d="M 210.46875 161.40625 C 210.191406 161.21875 209.78125 161.324219 209.589844 161.582031 C 209.371094 161.871094 209.421875 162.207031 209.640625 162.476562 C 209.84375 162.726562 210.007812 163.035156 210.15625 163.324219 C 210.324219 163.65625 210.402344 164.019531 210.585938 164.347656 C 210.949219 165 211.953125 164.691406 211.964844 163.972656 C 211.980469 162.960938 211.277344 161.945312 210.46875 161.40625 Z M 210.46875 161.40625 " fill-opacity="1" fill-rule="nonzero"/><path fill="#a9a0f0" d="M 212.640625 160.796875 C 212.0625 160.1875 210.910156 161.023438 211.445312 161.71875 C 211.914062 162.328125 212.238281 163.007812 212.507812 163.722656 C 212.632812 164.058594 212.921875 164.296875 213.296875 164.242188 C 213.628906 164.191406 213.949219 163.894531 213.921875 163.53125 C 213.851562 162.464844 213.371094 161.566406 212.640625 160.796875 Z M 212.640625 160.796875 " fill-opacity="1" fill-rule="nonzero"/><path fill="#a9a0f0" d="M 214.394531 159.703125 C 213.832031 159.027344 212.8125 159.890625 213.210938 160.617188 C 213.488281 161.117188 213.824219 161.554688 214.152344 162.023438 C 214.472656 162.484375 214.691406 162.988281 214.96875 163.472656 C 215.332031 164.101562 216.40625 163.847656 216.371094 163.09375 C 216.3125 161.746094 215.203125 160.679688 214.394531 159.703125 Z M 214.394531 159.703125 " fill-opacity="1" fill-rule="nonzero"/><path fill="#a9a0f0" d="M 154.382812 183.660156 C 153.589844 184.363281 152.992188 185.316406 152.1875 186.039062 C 151.519531 186.644531 152.417969 187.851562 153.164062 187.308594 C 154.148438 186.589844 155.476562 185.449219 155.671875 184.171875 C 155.804688 183.296875 154.917969 183.183594 154.382812 183.660156 Z M 154.382812 183.660156 " fill-opacity="1" fill-rule="nonzero"/><path fill="#a9a0f0" d="M 157.769531 184.492188 C 157.574219 184.167969 157.167969 184.042969 156.789062 184.230469 C 156.261719 184.492188 155.558594 185.566406 155.742188 186.167969 C 156.066406 187.265625 156.960938 186.257812 157.347656 185.800781 C 157.625 185.46875 157.96875 185.238281 157.875 184.761719 C 157.855469 184.660156 157.820312 184.570312 157.769531 184.492188 Z M 157.769531 184.492188 " fill-opacity="1" fill-rule="nonzero"/><path fill="#a9a0f0" d="M 160.058594 184.800781 C 160.023438 184.558594 159.917969 184.34375 159.726562 184.210938 C 158.863281 183.597656 158.214844 185.367188 158.464844 185.957031 C 158.628906 186.339844 159.246094 186.433594 159.558594 186.1875 C 159.917969 185.90625 160.128906 185.296875 160.058594 184.800781 Z M 160.058594 184.800781 " fill-opacity="1" fill-rule="nonzero"/><path fill="#a9a0f0" d="M 221.789062 189.167969 C 221.503906 189.234375 221.273438 189.359375 221.027344 189.515625 C 220.902344 189.597656 220.777344 189.683594 220.667969 189.78125 C 220.632812 189.8125 220.46875 189.976562 220.472656 189.988281 C 220.4375 190.011719 220.378906 190.054688 220.382812 190.054688 C 220.105469 190.285156 220.125 190.746094 220.324219 191.007812 C 220.554688 191.304688 220.933594 191.355469 221.261719 191.191406 C 221.285156 191.183594 221.308594 191.171875 221.328125 191.160156 C 221.773438 191.0625 222.238281 190.746094 222.535156 190.449219 C 223.097656 189.898438 222.519531 188.992188 221.789062 189.167969 Z M 221.789062 189.167969 " fill-opacity="1" fill-rule="nonzero"/><path fill="#a9a0f0" d="M 223.542969 191.355469 C 223.203125 191.453125 222.914062 191.664062 222.601562 191.828125 C 222.332031 191.96875 222.0625 192.101562 221.78125 192.214844 C 221.382812 192.378906 221.101562 192.746094 221.222656 193.195312 C 221.328125 193.582031 221.800781 193.914062 222.207031 193.753906 C 222.574219 193.609375 222.941406 193.457031 223.296875 193.28125 C 223.644531 193.109375 224.035156 192.941406 224.304688 192.65625 C 224.824219 192.105469 224.3125 191.132812 223.542969 191.355469 Z M 223.542969 191.355469 " fill-opacity="1" fill-rule="nonzero"/><path fill="#a9a0f0" d="M 225.289062 192.894531 C 224.625 192.925781 224.058594 193.351562 223.492188 193.664062 C 222.9375 193.96875 222.363281 194.257812 222.050781 194.832031 C 221.738281 195.402344 222.25 195.953125 222.839844 195.855469 C 223.421875 195.761719 223.929688 195.394531 224.445312 195.113281 C 224.988281 194.820312 225.613281 194.578125 225.9375 194.023438 C 226.210938 193.550781 225.867188 192.867188 225.289062 192.894531 Z M 225.289062 192.894531 " fill-opacity="1" fill-rule="nonzero"/><path fill="#a9a0f0" d="M 227.003906 195.585938 C 226.746094 195.253906 226.359375 195.230469 225.996094 195.386719 C 225.003906 195.8125 224.011719 196.527344 223.15625 197.175781 C 222.40625 197.738281 223.042969 198.945312 223.910156 198.464844 C 224.921875 197.910156 226.066406 197.371094 226.941406 196.617188 C 227.238281 196.363281 227.226562 195.875 227.003906 195.585938 Z M 227.003906 195.585938 " fill-opacity="1" fill-rule="nonzero"/><path fill="#a9a0f0" d="M 226.898438 197.84375 C 226.351562 198.132812 225.832031 198.46875 225.285156 198.75 C 224.722656 199.042969 224.117188 199.238281 223.554688 199.523438 C 222.679688 199.960938 223.308594 201.234375 224.191406 201.039062 C 225.511719 200.746094 227.09375 199.9375 227.90625 198.851562 C 228.375 198.21875 227.488281 197.527344 226.898438 197.84375 Z M 226.898438 197.84375 " fill-opacity="1" fill-rule="nonzero"/><path fill="#a9a0f0" d="M 226.695312 202.339844 C 226.375 201.339844 224.175781 202.023438 224.519531 203.089844 C 224.835938 204.058594 226.578125 203.722656 226.71875 202.796875 C 226.746094 202.617188 226.738281 202.464844 226.695312 202.339844 Z M 226.695312 202.339844 " fill-opacity="1" fill-rule="nonzero"/><path fill="#a9a0f0" d="M 232.578125 128.160156 C 232.441406 127.6875 232.023438 127.425781 231.636719 127.160156 C 231.308594 126.9375 230.957031 126.671875 230.5625 126.585938 C 229.792969 126.414062 229.144531 127.363281 229.765625 127.957031 C 230.042969 128.226562 230.398438 128.410156 230.710938 128.632812 C 231.046875 128.875 231.390625 129.167969 231.828125 129.140625 C 232.320312 129.109375 232.722656 128.667969 232.578125 128.160156 Z M 232.578125 128.160156 " fill-opacity="1" fill-rule="nonzero"/><path fill="#a9a0f0" d="M 230.488281 129.476562 C 230.480469 129.464844 230.480469 129.464844 230.476562 129.457031 C 230.46875 129.4375 230.460938 129.421875 230.449219 129.394531 C 230.398438 129.269531 230.324219 129.167969 230.230469 129.074219 C 230.113281 128.957031 229.976562 128.863281 229.835938 128.773438 C 229.597656 128.621094 229.347656 128.488281 229.078125 128.414062 C 228.6875 128.308594 228.28125 128.511719 228.125 128.878906 C 227.957031 129.277344 228.128906 129.640625 228.457031 129.886719 C 228.304688 129.773438 228.539062 129.953125 228.566406 129.972656 C 228.617188 130.003906 228.667969 130.03125 228.71875 130.0625 C 228.808594 130.117188 228.894531 130.175781 228.980469 130.234375 C 229.050781 130.285156 229.035156 130.273438 228.976562 130.230469 C 229.054688 130.289062 229.125 130.347656 229.210938 130.398438 C 229.328125 130.464844 229.445312 130.511719 229.578125 130.527344 C 229.707031 130.542969 229.726562 130.546875 229.644531 130.539062 C 229.574219 130.53125 229.578125 130.539062 229.65625 130.558594 C 229.929688 130.660156 230.265625 130.507812 230.429688 130.296875 C 230.613281 130.058594 230.628906 129.742188 230.488281 129.476562 Z M 230.488281 129.476562 " fill-opacity="1" fill-rule="nonzero"/><path fill="#a9a0f0" d="M 228.503906 130.46875 C 228.390625 130.285156 228.230469 130.148438 228.035156 130.054688 C 227.84375 129.964844 227.664062 129.929688 227.480469 129.949219 C 227.449219 129.945312 227.414062 129.945312 227.378906 129.941406 C 227.074219 129.917969 226.738281 130.183594 226.671875 130.480469 C 226.601562 130.796875 226.71875 131.101562 226.980469 131.285156 C 227.25 131.550781 227.730469 131.675781 228.066406 131.546875 C 228.289062 131.460938 228.449219 131.34375 228.542969 131.121094 C 228.632812 130.910156 228.628906 130.667969 228.503906 130.46875 Z M 228.503906 130.46875 " fill-opacity="1" fill-rule="nonzero"/><path fill="#a9a0f0" d="M 156.5 116.503906 C 156.339844 116.257812 156.199219 116.003906 156.03125 115.765625 C 155.804688 115.4375 155.417969 115.269531 155.035156 115.4375 C 154.707031 115.582031 154.414062 116.007812 154.570312 116.378906 C 154.707031 116.703125 154.859375 116.996094 155.046875 117.296875 C 155.230469 117.59375 155.460938 117.996094 155.785156 118.140625 C 156.039062 118.253906 156.292969 118.285156 156.546875 118.140625 C 156.765625 118.011719 156.941406 117.746094 156.921875 117.484375 C 156.894531 117.101562 156.703125 116.816406 156.5 116.503906 Z M 156.5 116.503906 " fill-opacity="1" fill-rule="nonzero"/><path fill="#a9a0f0" d="M 160.402344 117.128906 C 160.011719 116.320312 159.484375 115.441406 158.800781 114.851562 C 158.105469 114.257812 157.273438 115.136719 157.816406 115.835938 C 158.351562 116.519531 158.679688 117.363281 159.292969 117.984375 C 159.878906 118.578125 160.742188 117.828125 160.402344 117.128906 Z M 160.402344 117.128906 " fill-opacity="1" fill-rule="nonzero"/><path fill="#a9a0f0" d="M 251.382812 142.308594 C 251.082031 141.5625 250.816406 140.917969 250.1875 140.390625 C 249.652344 139.945312 248.835938 140.359375 249.003906 141.082031 C 249.160156 141.773438 249.457031 142.367188 249.707031 143.027344 C 249.957031 143.6875 250.125 144.457031 250.558594 145.023438 C 251.007812 145.613281 251.972656 145.457031 252 144.628906 C 252.03125 143.832031 251.679688 143.035156 251.382812 142.308594 Z M 251.382812 142.308594 " fill-opacity="1" fill-rule="nonzero"/><path fill="#a9a0f0" d="M 253.246094 140.902344 C 253.058594 140.5 252.832031 140.136719 252.5 139.839844 C 251.769531 139.1875 250.660156 140.003906 251.136719 140.894531 C 251.304688 141.207031 251.488281 141.515625 251.640625 141.839844 C 251.84375 142.269531 251.964844 142.609375 252.355469 142.914062 C 252.800781 143.253906 253.394531 142.863281 253.546875 142.429688 C 253.722656 141.917969 253.464844 141.359375 253.246094 140.902344 Z M 253.246094 140.902344 " fill-opacity="1" fill-rule="nonzero"/><path fill="#a9a0f0" d="M 255.695312 140.417969 C 255.503906 139.585938 254.824219 138.6875 254.066406 138.933594 C 253.574219 139.089844 253.34375 139.539062 253.441406 140.03125 C 253.613281 140.914062 255.050781 142.917969 255.683594 141.269531 C 255.773438 141.039062 255.769531 140.734375 255.695312 140.417969 Z M 255.695312 140.417969 " fill-opacity="1" fill-rule="nonzero"/><path fill="#a9a0f0" d="M 254.421875 133.867188 C 253.890625 132.886719 252.203125 133.308594 252.378906 134.5 C 252.585938 135.894531 255.007812 135.347656 254.480469 134 C 254.464844 133.953125 254.445312 133.910156 254.421875 133.867188 Z M 254.421875 133.867188 " fill-opacity="1" fill-rule="nonzero"/><path fill="#a9a0f0" d="M 248.535156 194.011719 C 248.394531 193.441406 247.921875 192.976562 247.246094 193.195312 C 247.050781 193.257812 246.890625 193.363281 246.765625 193.523438 C 245.882812 194.667969 247.863281 196.199219 248.460938 194.917969 C 248.589844 194.644531 248.605469 194.3125 248.535156 194.011719 Z M 248.535156 194.011719 " fill-opacity="1" fill-rule="nonzero"/><path fill="#a9a0f0" d="M 249.601562 194.464844 C 248.378906 194.320312 248.371094 196.523438 249.46875 196.386719 C 250.476562 196.261719 250.945312 194.917969 249.878906 194.535156 C 249.78125 194.5 249.6875 194.476562 249.601562 194.464844 Z M 249.601562 194.464844 " fill-opacity="1" fill-rule="nonzero"/></svg>