<svg xmlns="http://www.w3.org/2000/svg" xmlns:xlink="http://www.w3.org/1999/xlink" width="400" zoomAndPan="magnify" viewBox="0 0 300 299.999988" height="400" preserveAspectRatio="xMidYMid meet" version="1.0"><defs><clipPath id="68caffe774"><path d="M 30.09375 30 L 269.84375 30 L 269.84375 269.945312 L 30.09375 269.945312 Z M 30.09375 30 " clip-rule="nonzero"/></clipPath></defs><g clip-path="url(#68caffe774)"><path fill="#a9a0f0" d="M 266.007812 204.949219 C 265.234375 214.617188 259.074219 232.398438 242.019531 246.316406 C 242.6875 238.496094 241.320312 228.207031 241.246094 227.683594 C 241.101562 226.644531 240.144531 225.921875 239.101562 226.058594 C 238.0625 226.207031 237.332031 227.164062 237.476562 228.199219 C 237.496094 228.347656 239.414062 242.652344 237.683594 249.585938 C 223.050781 259.847656 201.589844 267.199219 170.644531 266.011719 L 169.128906 266.011719 C 173.984375 254.121094 172.792969 236.21875 172.742188 235.425781 C 172.667969 234.375 171.789062 233.558594 170.710938 233.664062 C 169.664062 233.738281 168.867188 234.644531 168.941406 235.691406 C 168.957031 235.886719 170.238281 255.117188 164.957031 266.011719 L 150.164062 266.011719 C 156.863281 259.089844 161.332031 243.363281 161.332031 224.140625 C 161.332031 204.898438 156.855469 189.160156 150.148438 182.253906 C 157.359375 182.230469 166.460938 182.261719 176.710938 182.878906 C 177.121094 186.988281 178.109375 199.113281 176.585938 206.628906 C 176.378906 207.664062 177.046875 208.667969 178.082031 208.875 C 178.207031 208.898438 178.332031 208.914062 178.460938 208.914062 C 179.34375 208.914062 180.140625 208.289062 180.316406 207.390625 C 181.886719 199.648438 181.023438 187.933594 180.570312 183.152344 C 191.765625 183.976562 204.085938 185.570312 216.5625 188.550781 C 216.800781 191.671875 218.273438 212.042969 216.539062 225.804688 C 216.40625 226.84375 217.140625 227.796875 218.191406 227.929688 C 218.265625 227.9375 218.347656 227.945312 218.429688 227.945312 C 219.371094 227.945312 220.191406 227.238281 220.316406 226.28125 C 221.960938 213.253906 220.859375 195.121094 220.449219 189.515625 C 226.574219 191.128906 232.71875 193.085938 238.738281 195.484375 C 239.222656 195.648438 250.6875 199.53125 260.679688 197.457031 C 261.882812 197.203125 262.910156 197.472656 263.816406 198.265625 C 265.339844 199.621094 266.226562 202.304688 266.007812 204.949219 Z M 127.070312 224.140625 C 127.070312 199.09375 134.945312 182.265625 142.296875 182.265625 C 149.652344 182.265625 157.523438 199.09375 157.523438 224.140625 C 157.523438 249.1875 149.652344 266.011719 142.296875 266.011719 C 134.945312 266.011719 127.070312 249.1875 127.070312 224.140625 Z M 39.457031 212.816406 C 36.765625 212.859375 34.882812 211.78125 34.175781 209.796875 C 33.359375 207.507812 34.414062 204.792969 36.859375 202.90625 C 47.929688 194.332031 59.230469 180.246094 69.195312 162.894531 C 70.941406 169.5625 75.253906 182.625 83.847656 191.226562 C 84.226562 191.597656 84.710938 191.785156 85.199219 191.785156 C 85.683594 191.785156 86.175781 191.597656 86.539062 191.226562 C 87.28125 190.484375 87.28125 189.277344 86.539062 188.535156 C 75.691406 177.679688 72.003906 158.1875 71.960938 157.984375 C 71.960938 157.972656 71.953125 157.964844 71.945312 157.949219 C 74.515625 153.191406 76.984375 148.230469 79.320312 143.085938 C 79.640625 142.375 80.203125 141.316406 80.800781 140.195312 C 81.742188 138.410156 82.71875 136.566406 83.179688 135.347656 C 85.371094 129.453125 89.601562 119.59375 96.5 108.710938 C 98.351562 114.367188 103.007812 126.632812 110.492188 134.128906 C 110.871094 134.5 111.355469 134.6875 111.847656 134.6875 C 112.328125 134.6875 112.820312 134.5 113.183594 134.128906 C 113.925781 133.386719 113.925781 132.179688 113.183594 131.4375 C 104.144531 122.398438 99.296875 104.867188 99.246094 104.695312 C 99.238281 104.65625 99.214844 104.636719 99.199219 104.605469 C 110.144531 88.59375 126.871094 71.226562 151.382812 61.21875 C 152.921875 66.859375 158.957031 87.15625 169.375 99.734375 C 169.753906 100.191406 170.296875 100.425781 170.847656 100.425781 C 171.269531 100.425781 171.703125 100.285156 172.058594 99.988281 C 172.867188 99.320312 172.980469 98.117188 172.3125 97.3125 C 162.214844 85.128906 156.222656 64.496094 154.953125 59.804688 C 167.664062 55.136719 182.371094 52.4375 199.34375 52.847656 C 206.898438 53.03125 213.691406 52.414062 220.726562 50.898438 C 223.929688 50.207031 227.855469 48.453125 230.917969 46.996094 C 233.914062 45.574219 237.847656 43.597656 242.21875 41.179688 C 244.085938 43.621094 248.484375 49.070312 251.832031 50.742188 C 252.105469 50.875 252.394531 50.941406 252.679688 50.941406 C 253.378906 50.941406 254.054688 50.554688 254.390625 49.886719 C 254.855469 48.949219 254.476562 47.804688 253.535156 47.335938 C 251.238281 46.191406 247.652344 41.960938 245.570312 39.285156 C 247.59375 38.109375 249.675781 36.855469 251.785156 35.515625 C 256.34375 32.625 260.089844 34.042969 261.925781 35.144531 C 264.457031 36.675781 266.164062 39.292969 265.996094 41.367188 C 264.894531 54.832031 251.007812 129.90625 211.5 161.851562 C 211.4375 161.902344 211.378906 161.957031 211.328125 162.007812 C 205.007812 168.558594 197.269531 174.601562 188.339844 179.992188 C 172.304688 178.363281 158.015625 178.410156 148.015625 178.453125 L 142.296875 178.460938 C 135.671875 178.460938 130.046875 185.785156 126.664062 197.40625 C 122.1875 190 119.347656 178.058594 119.316406 177.925781 C 119.070312 176.898438 118.046875 176.269531 117.027344 176.503906 C 116 176.742188 115.371094 177.769531 115.609375 178.796875 C 115.765625 179.449219 119.421875 194.824219 125.429688 202.289062 C 125.347656 202.667969 125.273438 203.0625 125.191406 203.449219 C 100.492188 208.832031 71.667969 211.992188 39.457031 212.816406 Z M 266.328125 195.410156 C 264.542969 193.835938 262.253906 193.25 259.90625 193.722656 C 250.9375 195.597656 240.085938 191.925781 240.0625 191.917969 C 224.902344 185.867188 209.074219 182.527344 194.390625 180.675781 C 201.855469 175.808594 208.441406 170.46875 213.980469 164.738281 C 235.386719 147.382812 248.917969 118.234375 256.5 96.816406 C 264.820312 73.3125 269.066406 50.527344 269.792969 41.679688 C 270.082031 38.125 267.710938 34.191406 263.890625 31.886719 C 259.488281 29.234375 254.328125 29.382812 249.742188 32.304688 C 241.855469 37.316406 234.261719 41.1875 229.28125 43.554688 C 226.414062 44.921875 222.746094 46.570312 219.929688 47.179688 C 213.195312 48.625 206.667969 49.21875 199.441406 49.039062 C 198.25 49.011719 197.082031 48.996094 195.921875 48.996094 C 117.4375 48.996094 87.101562 113.882812 79.609375 134.015625 C 79.238281 135.007812 78.277344 136.8125 77.429688 138.410156 C 76.792969 139.617188 76.195312 140.746094 75.847656 141.511719 C 64.152344 167.339844 49.089844 188.617188 34.535156 199.894531 C 30.757812 202.808594 29.210938 207.203125 30.59375 211.078125 C 31.820312 214.519531 35.113281 216.628906 39.238281 216.628906 C 39.34375 216.628906 39.449219 216.621094 39.550781 216.621094 C 71.355469 215.8125 99.882812 212.71875 124.476562 207.484375 C 123.6875 212.601562 123.265625 218.199219 123.265625 224.140625 C 123.265625 250.183594 131.441406 269.816406 142.296875 269.816406 C 142.351562 269.816406 142.402344 269.808594 142.453125 269.808594 L 142.453125 269.816406 L 170.578125 269.816406 C 172.832031 269.90625 175.03125 269.945312 177.1875 269.945312 C 248.65625 269.9375 268.320312 223.664062 269.808594 205.253906 C 270.121094 201.351562 268.789062 197.582031 266.328125 195.410156 " fill-opacity="1" fill-rule="nonzero"/></g><path fill="#a9a0f0" d="M 145.835938 194.625 C 145.300781 193.714844 144.132812 193.417969 143.234375 193.945312 C 142.328125 194.484375 142.023438 195.640625 142.558594 196.550781 C 142.683594 196.773438 155.414062 219.179688 144.289062 254.011719 C 143.96875 255.015625 144.519531 256.085938 145.523438 256.40625 C 145.710938 256.464844 145.910156 256.496094 146.105469 256.496094 C 146.90625 256.496094 147.65625 255.980469 147.910156 255.171875 C 159.582031 218.613281 146.402344 195.582031 145.835938 194.625 " fill-opacity="1" fill-rule="nonzero"/><path fill="#a9a0f0" d="M 135.144531 203.261719 C 134.121094 203.003906 133.09375 203.621094 132.832031 204.636719 C 132.675781 205.277344 128.921875 220.503906 132.8125 239.746094 C 132.996094 240.644531 133.792969 241.269531 134.675781 241.269531 C 134.804688 241.269531 134.929688 241.261719 135.054688 241.230469 C 136.089844 241.023438 136.75 240.019531 136.542969 238.984375 C 132.832031 220.644531 136.492188 205.714844 136.527344 205.566406 C 136.78125 204.550781 136.164062 203.515625 135.144531 203.261719 " fill-opacity="1" fill-rule="nonzero"/><path fill="#a9a0f0" d="M 175.316406 155.160156 C 175.671875 155.472656 176.109375 155.621094 176.554688 155.621094 C 177.089844 155.621094 177.625 155.390625 178 154.953125 C 178.683594 154.15625 178.585938 152.953125 177.789062 152.269531 C 169.160156 144.894531 161.160156 129.859375 159.382812 120.992188 C 159.183594 119.957031 158.183594 119.28125 157.144531 119.496094 C 156.117188 119.707031 155.449219 120.703125 155.648438 121.734375 C 157.589844 131.421875 165.953125 147.160156 175.316406 155.160156 " fill-opacity="1" fill-rule="nonzero"/><path fill="#a9a0f0" d="M 236.835938 117.640625 C 237.214844 118.113281 237.773438 118.367188 238.335938 118.367188 C 238.746094 118.367188 239.164062 118.234375 239.511719 117.957031 C 240.335938 117.3125 240.480469 116.113281 239.832031 115.289062 C 227.4375 99.476562 220.292969 79.074219 220.226562 78.867188 C 219.878906 77.878906 218.792969 77.351562 217.804688 77.691406 C 216.808594 78.035156 216.277344 79.121094 216.628906 80.117188 C 216.917969 80.972656 224.035156 101.304688 236.835938 117.640625 " fill-opacity="1" fill-rule="nonzero"/></svg>