<svg xmlns="http://www.w3.org/2000/svg" xmlns:xlink="http://www.w3.org/1999/xlink" width="400" zoomAndPan="magnify" viewBox="0 0 300 299.999988" height="400" preserveAspectRatio="xMidYMid meet" version="1.0"><defs><clipPath id="d395281738"><path d="M 169 30 L 261.449219 30 L 261.449219 270 L 169 270 Z M 169 30 " clip-rule="nonzero"/></clipPath></defs><path fill="#a9a0f0" d="M 181.058594 269.992188 C 156.859375 269.992188 137.261719 269.316406 119.390625 267.863281 C 102.574219 266.488281 86.320312 264.578125 72.332031 256.445312 C 58.316406 248.300781 47.609375 234.03125 42.953125 217.304688 C 38.722656 202.105469 39.460938 184.707031 45.027344 168.304688 C 48.742188 157.402344 54.34375 147.316406 59.761719 137.5625 C 64.472656 129.066406 69.339844 120.289062 72.847656 111.1875 C 82.261719 86.765625 83.367188 66.558594 76.425781 45.65625 C 75.898438 44.066406 76.179688 42.304688 77.179688 40.9375 C 78.171875 39.582031 79.777344 38.789062 81.464844 38.820312 C 125.832031 39.714844 164.339844 37.019531 199.1875 30.589844 L 200.238281 30.394531 L 200.53125 31.425781 C 200.75 32.199219 200.960938 32.960938 201.152344 33.75 C 206.957031 56.347656 205.855469 84.609375 198.042969 113.308594 C 195.089844 124.121094 191.472656 135.167969 188.277344 144.917969 C 182.863281 161.480469 177.292969 178.519531 174.023438 195.835938 C 171.925781 206.898438 170.226562 221.199219 175.707031 233.652344 C 180.75 245.105469 191.746094 254.617188 208.394531 261.921875 C 211.378906 263.230469 214.078125 264.25 216.648438 265.039062 C 221.078125 266.417969 225.015625 267.113281 228.6875 267.171875 L 228.683594 269.523438 C 224.925781 269.570312 221.175781 269.617188 217.425781 269.675781 L 215.355469 269.703125 C 204.15625 269.84375 192.578125 269.992188 181.058594 269.992188 Z M 81.367188 41.171875 C 80.460938 41.171875 79.609375 41.601562 79.078125 42.324219 C 78.523438 43.078125 78.367188 44.046875 78.65625 44.914062 C 85.78125 66.367188 84.664062 87.070312 75.042969 112.035156 C 71.476562 121.289062 66.566406 130.136719 61.824219 138.691406 C 56.449219 148.367188 50.898438 158.359375 47.253906 169.0625 C 41.835938 185.019531 41.113281 201.925781 45.21875 216.671875 C 49.710938 232.816406 60.023438 246.570312 73.511719 254.410156 C 87.078125 262.300781 103.042969 264.167969 119.582031 265.519531 C 137.386719 266.96875 156.925781 267.640625 181.058594 267.640625 C 192.566406 267.640625 204.136719 267.496094 215.324219 267.351562 L 216.136719 267.339844 C 216.078125 267.320312 216.015625 267.304688 215.953125 267.285156 C 213.300781 266.46875 210.519531 265.417969 207.449219 264.074219 C 190.246094 256.523438 178.839844 246.609375 173.554688 234.601562 C 167.8125 221.554688 169.554688 206.796875 171.710938 195.398438 C 175.011719 177.933594 180.605469 160.820312 186.015625 144.269531 C 189.230469 134.464844 192.839844 123.445312 195.773438 112.6875 C 203.480469 84.378906 204.582031 56.546875 198.871094 34.316406 C 198.769531 33.898438 198.664062 33.496094 198.554688 33.09375 C 163.828125 39.414062 125.5 42.058594 81.421875 41.171875 C 81.402344 41.171875 81.386719 41.171875 81.367188 41.171875 Z M 81.367188 41.171875 " fill-opacity="1" fill-rule="nonzero"/><g clip-path="url(#d395281738)"><path fill="#a9a0f0" d="M 229.222656 269.535156 C 229.011719 269.535156 228.8125 269.535156 228.597656 269.519531 C 224.75 269.460938 220.59375 268.730469 215.953125 267.285156 C 213.300781 266.46875 210.519531 265.417969 207.449219 264.074219 C 190.246094 256.523438 178.839844 246.609375 173.554688 234.601562 C 167.8125 221.554688 169.554688 206.796875 171.710938 195.398438 C 175.011719 177.933594 180.605469 160.820312 186.015625 144.269531 C 189.230469 134.464844 192.839844 123.445312 195.773438 112.6875 C 203.480469 84.378906 204.582031 56.546875 198.871094 34.316406 C 198.683594 33.542969 198.476562 32.808594 198.269531 32.074219 L 197.917969 30.824219 L 201.191406 30.222656 C 202.367188 30.003906 203.527344 30.734375 203.871094 31.875 C 203.902344 31.933594 203.933594 31.996094 203.960938 32.0625 C 235.976562 104.039062 261.269531 160.898438 261.269531 219.796875 C 261.269531 221.203125 261.246094 222.609375 261.222656 224.015625 C 261.066406 231.621094 260.472656 240.511719 257.226562 248.78125 C 253.734375 257.699219 247.410156 264.542969 239.875 267.558594 C 236.53125 268.886719 233.046875 269.535156 229.222656 269.535156 Z M 200.875 32.675781 C 200.972656 33.03125 201.066406 33.386719 201.152344 33.75 C 206.957031 56.347656 205.855469 84.609375 198.039062 113.308594 C 195.089844 124.121094 191.472656 135.167969 188.277344 144.917969 C 182.863281 161.480469 177.292969 178.519531 174.023438 195.835938 C 171.925781 206.898438 170.226562 221.199219 175.707031 233.652344 C 180.75 245.105469 191.746094 254.617188 208.394531 261.921875 C 211.378906 263.230469 214.078125 264.25 216.648438 265.039062 C 221.078125 266.417969 225.011719 267.113281 228.6875 267.171875 C 228.90625 267.183594 229.058594 267.183594 229.222656 267.183594 C 232.746094 267.183594 235.945312 266.589844 239.003906 265.375 C 245.933594 262.601562 251.78125 256.242188 255.035156 247.921875 C 258.148438 239.996094 258.71875 231.367188 258.871094 223.96875 C 258.894531 222.582031 258.917969 221.191406 258.917969 219.796875 C 258.917969 161.398438 233.714844 104.742188 201.808594 33.011719 L 201.578125 32.699219 L 201.585938 32.558594 Z M 200.875 32.675781 " fill-opacity="1" fill-rule="nonzero"/></g><path fill="#a9a0f0" d="M 253.660156 254.671875 C 253.46875 254.671875 253.273438 254.625 253.09375 254.527344 C 244.148438 249.585938 235.066406 245.40625 227.511719 242.761719 L 227.207031 242.652344 L 227 242.40625 C 214.296875 227.191406 208.304688 205.5625 209.191406 178.121094 C 209.542969 167.136719 210.867188 156.0625 212.148438 145.347656 C 213.492188 134.125 214.878906 122.523438 215.140625 111.066406 C 215.652344 88.816406 209.140625 56.304688 199.308594 32.007812 C 199.066406 31.40625 199.355469 30.722656 199.957031 30.476562 C 200.558594 30.234375 201.246094 30.523438 201.488281 31.128906 C 209.890625 51.890625 218.097656 84.679688 217.492188 111.121094 C 217.230469 122.6875 215.832031 134.351562 214.484375 145.628906 C 213.210938 156.289062 211.890625 167.316406 211.539062 178.195312 C 210.679688 204.894531 216.417969 225.90625 228.597656 240.652344 C 236.207031 243.34375 245.296875 247.53125 254.230469 252.46875 C 254.796875 252.78125 255.003906 253.496094 254.691406 254.066406 C 254.476562 254.453125 254.074219 254.671875 253.660156 254.671875 Z M 253.660156 254.671875 " fill-opacity="1" fill-rule="nonzero"/><path fill="#a9a0f0" d="M 204.824219 262.757812 C 204.539062 262.757812 204.253906 262.65625 204.027344 262.445312 C 203.550781 262.003906 203.523438 261.257812 203.964844 260.785156 C 211.359375 252.824219 219.414062 245.871094 227.25 240.671875 C 227.792969 240.3125 228.523438 240.460938 228.882812 241 C 229.238281 241.542969 229.09375 242.273438 228.550781 242.632812 C 220.863281 247.730469 212.957031 254.558594 205.6875 262.382812 C 205.457031 262.632812 205.140625 262.757812 204.824219 262.757812 Z M 204.824219 262.757812 " fill-opacity="1" fill-rule="nonzero"/><path fill="#a9a0f0" d="M 110.832031 237.125 C 97.015625 237.125 83.324219 229.695312 75.953125 218.199219 C 68 205.800781 67.46875 188.828125 74.632812 175.964844 C 78.433594 169.144531 90.042969 160.210938 104.882812 156.34375 C 114.148438 153.921875 127.859375 152.683594 140.578125 160.523438 C 147.6875 164.90625 158.660156 178.859375 159.652344 194.886719 C 160.371094 206.613281 155.441406 217.070312 145.402344 225.121094 L 145.398438 225.121094 C 137.355469 231.566406 125.246094 236.117188 113.792969 237.003906 C 112.691406 237.085938 111.722656 237.125 110.832031 237.125 Z M 118.636719 156.855469 C 113.753906 156.855469 109.234375 157.636719 105.476562 158.617188 C 91.273438 162.320312 80.246094 170.722656 76.6875 177.109375 C 69.933594 189.238281 70.433594 205.242188 77.929688 216.929688 C 84.882812 227.769531 97.796875 234.773438 110.832031 234.773438 C 111.664062 234.773438 112.574219 234.738281 113.613281 234.660156 C 124.617188 233.808594 136.234375 229.449219 143.929688 223.289062 C 153.347656 215.734375 157.972656 205.964844 157.304688 195.03125 C 156.367188 179.832031 146.035156 166.648438 139.347656 162.527344 C 132.449219 158.273438 125.214844 156.855469 118.636719 156.855469 Z M 118.636719 156.855469 " fill-opacity="1" fill-rule="nonzero"/><path fill="#a9a0f0" d="M 139.527344 212.226562 C 137.300781 212.226562 135.144531 211.71875 133.117188 210.71875 C 130.320312 209.34375 126.902344 205.996094 125.164062 202.933594 C 124.84375 202.375 124.65625 201.703125 124.621094 200.996094 L 124.621094 200.871094 C 124.621094 200.121094 124.816406 199.375 125.183594 198.71875 C 126.800781 195.820312 129.757812 192.242188 132.71875 190.789062 C 135.949219 189.191406 139.429688 188.855469 143.0625 189.789062 C 144.460938 190.136719 145.347656 191.527344 145.078125 192.953125 C 144.5 195.949219 142.824219 198.890625 140.65625 200.84375 C 142.609375 202.453125 144.660156 204.847656 145.390625 208.140625 C 145.75 209.773438 144.742188 211.414062 143.140625 211.792969 C 141.945312 212.082031 140.726562 212.226562 139.527344 212.226562 Z M 139.132812 191.628906 C 137.265625 191.628906 135.46875 192.050781 133.757812 192.898438 C 131.265625 194.121094 128.628906 197.371094 127.234375 199.867188 C 127.066406 200.171875 126.972656 200.527344 126.972656 200.871094 C 126.988281 201.21875 127.070312 201.53125 127.207031 201.769531 C 128.71875 204.433594 131.769531 207.4375 134.15625 208.609375 C 136.789062 209.910156 139.714844 210.199219 142.59375 209.507812 C 142.957031 209.421875 143.179688 209.035156 143.09375 208.648438 C 142.367188 205.378906 139.957031 203.132812 138.0625 201.828125 L 136.628906 200.839844 L 138.078125 199.878906 C 140.667969 198.164062 142.300781 194.945312 142.769531 192.511719 C 142.804688 192.316406 142.679688 192.113281 142.488281 192.066406 C 141.347656 191.773438 140.226562 191.628906 139.132812 191.628906 Z M 139.132812 191.628906 " fill-opacity="1" fill-rule="nonzero"/><path fill="#a9a0f0" d="M 96.53125 212.78125 C 96.503906 212.78125 96.472656 212.78125 96.441406 212.777344 L 96.355469 212.777344 C 89.882812 212.296875 83.78125 207.292969 81.433594 200.613281 C 80.933594 199.183594 81.164062 197.589844 82.0625 196.351562 C 84.765625 192.601562 88.570312 189.859375 92.769531 188.632812 C 94.152344 188.230469 95.628906 188.441406 96.828125 189.207031 C 100.613281 191.621094 102.664062 194.988281 103.085938 199.503906 C 103.496094 203.898438 101.507812 208.976562 98.140625 212.140625 C 97.703125 212.554688 97.132812 212.78125 96.53125 212.78125 Z M 94.171875 190.785156 C 93.925781 190.785156 93.675781 190.820312 93.429688 190.890625 C 89.726562 191.96875 86.367188 194.398438 83.96875 197.726562 C 83.523438 198.34375 83.40625 199.128906 83.652344 199.832031 C 85.699219 205.660156 90.960938 210.019531 96.445312 210.429688 L 96.488281 210.425781 L 96.527344 210.429688 C 99.394531 207.734375 101.089844 203.433594 100.746094 199.722656 C 100.394531 195.980469 98.699219 193.1875 95.558594 191.1875 C 95.144531 190.921875 94.660156 190.785156 94.171875 190.785156 Z M 94.171875 190.785156 " fill-opacity="1" fill-rule="nonzero"/><path fill="#a9a0f0" d="M 95.175781 200.660156 C 94.738281 200.953125 94.257812 201.09375 93.800781 201.09375 C 93.046875 201.09375 92.316406 200.730469 91.835938 200.023438 C 91.519531 199.554688 91.355469 199.035156 91.355469 198.519531 C 91.355469 198.167969 91.4375 197.816406 91.589844 197.484375 C 91.976562 196.699219 92.742188 196.179688 93.597656 196.132812 C 94.527344 196.085938 95.386719 196.566406 95.960938 197.472656 C 96.644531 198.542969 96.304688 199.90625 95.175781 200.660156 Z M 95.175781 200.660156 " fill-opacity="1" fill-rule="nonzero"/><path fill="#a9a0f0" d="M 125.53125 201.960938 C 125.527344 201.960938 125.523438 201.960938 125.519531 201.960938 C 121.570312 201.917969 117.578125 201.929688 113.714844 201.945312 C 109.84375 201.957031 105.839844 201.972656 101.875 201.925781 C 101.222656 201.917969 100.703125 201.386719 100.710938 200.738281 C 100.71875 200.089844 101.257812 199.5625 101.902344 199.574219 C 105.847656 199.621094 109.84375 199.605469 113.707031 199.59375 C 117.578125 199.578125 121.582031 199.566406 125.546875 199.613281 C 126.195312 199.617188 126.714844 200.152344 126.707031 200.800781 C 126.699219 201.445312 126.175781 201.960938 125.53125 201.960938 Z M 125.53125 201.960938 " fill-opacity="1" fill-rule="nonzero"/><path fill="#a9a0f0" d="M 106.78125 213.871094 C 106.675781 213.871094 106.566406 213.859375 106.457031 213.828125 C 105.832031 213.648438 105.472656 212.996094 105.652344 212.371094 C 107.703125 205.257812 107.445312 197.222656 104.941406 190.324219 C 104.722656 189.714844 105.035156 189.042969 105.648438 188.820312 C 106.257812 188.597656 106.933594 188.914062 107.152344 189.523438 C 109.820312 196.875 110.097656 205.441406 107.910156 213.023438 C 107.761719 213.539062 107.292969 213.871094 106.78125 213.871094 Z M 106.78125 213.871094 " fill-opacity="1" fill-rule="nonzero"/><path fill="#a9a0f0" d="M 114.390625 216.171875 C 114.332031 216.171875 114.269531 216.164062 114.210938 216.15625 C 113.566406 216.054688 113.128906 215.457031 113.230469 214.8125 C 114.613281 205.902344 114.171875 196.601562 111.953125 187.917969 C 111.792969 187.289062 112.171875 186.648438 112.800781 186.488281 C 113.429688 186.328125 114.070312 186.707031 114.230469 187.335938 C 116.527344 196.324219 116.984375 205.953125 115.550781 215.175781 C 115.460938 215.753906 114.960938 216.171875 114.390625 216.171875 Z M 114.390625 216.171875 " fill-opacity="1" fill-rule="nonzero"/><path fill="#a9a0f0" d="M 121.453125 212 C 121.390625 212 121.328125 211.996094 121.261719 211.984375 C 120.621094 211.878906 120.1875 211.277344 120.292969 210.636719 C 121.289062 204.523438 120.820312 197.960938 118.96875 192.152344 C 118.773438 191.535156 119.113281 190.875 119.734375 190.675781 C 120.351562 190.480469 121.011719 190.820312 121.210938 191.441406 C 123.167969 197.59375 123.667969 204.546875 122.613281 211.015625 C 122.519531 211.589844 122.019531 212 121.453125 212 Z M 121.453125 212 " fill-opacity="1" fill-rule="nonzero"/><path fill="#a9a0f0" d="M 122.519531 130.464844 C 121.882812 130.464844 121.359375 129.957031 121.34375 129.316406 C 121.25 125.203125 123.207031 121.285156 126.449219 119.085938 C 129.859375 116.773438 134.5625 116.660156 137.890625 118.808594 C 141.4375 121.101562 143.070312 125.734375 141.683594 129.582031 C 141.464844 130.191406 140.789062 130.511719 140.179688 130.289062 C 139.570312 130.070312 139.25 129.398438 139.472656 128.785156 C 140.480469 125.988281 139.222656 122.472656 136.613281 120.785156 C 134.054688 119.128906 130.417969 119.230469 127.769531 121.03125 C 125.21875 122.757812 123.621094 125.992188 123.695312 129.261719 C 123.707031 129.910156 123.195312 130.449219 122.546875 130.464844 C 122.535156 130.464844 122.527344 130.464844 122.519531 130.464844 Z M 122.519531 130.464844 " fill-opacity="1" fill-rule="nonzero"/><path fill="#a9a0f0" d="M 89.675781 114.757812 C 89.070312 114.757812 88.554688 114.289062 88.507812 113.675781 C 88.457031 113.027344 88.9375 112.460938 89.585938 112.410156 C 117.394531 110.246094 145.609375 110.035156 173.449219 111.78125 C 174.097656 111.824219 174.589844 112.378906 174.546875 113.027344 C 174.507812 113.675781 173.945312 114.167969 173.300781 114.128906 C 145.570312 112.386719 117.46875 112.597656 89.769531 114.753906 C 89.738281 114.757812 89.707031 114.757812 89.675781 114.757812 Z M 89.675781 114.757812 " fill-opacity="1" fill-rule="nonzero"/><path fill="#a9a0f0" d="M 158.03125 112.257812 C 157.96875 112.257812 157.542969 112.285156 157.660156 112.273438 C 157.4375 112.335938 157.214844 112.335938 156.992188 112.273438 C 156.847656 112.25 156.832031 112.246094 156.941406 112.261719 C 157.117188 112.285156 157.035156 112.273438 156.714844 112.230469 L 156.710938 112.230469 C 156.546875 112.230469 156.390625 112.199219 156.238281 112.140625 C 155.933594 111.96875 155.855469 111.945312 156 112.070312 C 155.941406 112.058594 155.894531 112.054688 155.859375 112.054688 C 155.824219 112.058594 155.800781 112.058594 155.792969 112.058594 C 155.527344 112.089844 155.296875 112.089844 155.007812 112.046875 C 155.214844 112.078125 154.683594 112.007812 154.683594 112.007812 C 154.496094 112.003906 154.308594 112.007812 154.117188 112.007812 C 153.980469 112.007812 153.835938 112.015625 153.695312 112.007812 C 153.320312 111.972656 153.242188 111.957031 153.457031 111.960938 C 153.410156 111.957031 153.363281 111.941406 153.3125 111.9375 C 152.988281 111.953125 152.617188 111.90625 152.511719 111.90625 C 152.246094 111.910156 151.945312 111.914062 151.648438 111.898438 C 151.597656 111.894531 151.421875 111.921875 151.570312 111.910156 C 151.234375 111.9375 150.859375 111.992188 150.476562 112.019531 C 149.921875 112.835938 149.601562 113.820312 149.601562 114.878906 C 149.601562 117.695312 151.882812 119.980469 154.699219 119.980469 C 157.515625 119.980469 159.796875 117.695312 159.796875 114.878906 C 159.796875 113.898438 159.515625 112.984375 159.035156 112.203125 C 158.710938 112.265625 158.347656 112.25 158.03125 112.257812 Z M 158.03125 112.257812 " fill-opacity="1" fill-rule="nonzero"/><path fill="#a9a0f0" d="M 114.207031 112.117188 C 114.199219 112.117188 114.191406 112.121094 114.183594 112.121094 C 114.148438 112.128906 114.121094 112.136719 114.101562 112.140625 C 113.910156 112.171875 113.734375 112.160156 113.5625 112.128906 C 113.464844 112.121094 113.367188 112.113281 113.269531 112.097656 C 112.960938 112.144531 112.625 112.117188 112.320312 112.117188 C 112.105469 112.121094 111.890625 112.113281 111.675781 112.121094 C 112.191406 112.101562 111.398438 112.121094 111.246094 112.125 C 110.457031 112.148438 109.625 112.203125 108.835938 112.261719 C 108.75 112.28125 108.664062 112.289062 108.574219 112.28125 C 108.785156 112.242188 108.710938 112.246094 108.347656 112.304688 C 108.203125 112.3125 108.207031 112.308594 108.355469 112.289062 C 108.183594 112.328125 108.015625 112.34375 107.84375 112.328125 C 107.40625 112.328125 106.976562 112.199219 106.546875 112.191406 C 106.675781 112.195312 106.46875 112.214844 106.441406 112.214844 C 106.277344 112.277344 106.257812 112.28125 106.382812 112.222656 C 106.261719 112.277344 106.136719 112.328125 106.011719 112.371094 C 105.867188 112.410156 105.714844 112.425781 105.5625 112.433594 C 105.164062 113.160156 104.9375 113.992188 104.9375 114.878906 C 104.9375 117.695312 107.222656 119.980469 110.039062 119.980469 C 112.855469 119.980469 115.136719 117.695312 115.136719 114.878906 C 115.136719 113.855469 114.832031 112.902344 114.3125 112.105469 C 114.277344 112.109375 114.242188 112.121094 114.207031 112.117188 Z M 114.207031 112.117188 " fill-opacity="1" fill-rule="nonzero"/></svg>