<svg xmlns="http://www.w3.org/2000/svg" xmlns:xlink="http://www.w3.org/1999/xlink" width="400" zoomAndPan="magnify" viewBox="0 0 300 299.999988" height="400" preserveAspectRatio="xMidYMid meet" version="1.0"><path fill="#a9a0f0" d="M 200.023438 224.835938 C 199.449219 224.835938 198.878906 224.828125 198.34375 224.816406 L 181.316406 224.632812 C 177.585938 224.59375 172.476562 224.542969 168.964844 220.695312 C 168.402344 220.078125 167.941406 219.375 167.605469 218.625 C 166.765625 218.738281 165.898438 218.867188 164.996094 219.007812 C 159.328125 219.859375 153.488281 220.738281 149.921875 218.769531 C 147.0625 217.175781 145.449219 214.0625 145.894531 211.023438 C 146.464844 207.167969 149.730469 205.378906 152.359375 203.941406 C 153 203.589844 153.597656 203.265625 154.160156 202.917969 C 159.3125 199.679688 160.15625 192.8125 159.21875 187.34375 C 159 187.109375 158.636719 186.75 158.417969 186.527344 C 154.355469 182.515625 143.558594 171.851562 145.839844 149.847656 C 146.046875 147.859375 143.804688 145.679688 141.492188 144.398438 C 140.171875 143.667969 138.570312 143.34375 136.875 143 C 135.15625 142.664062 133.273438 142.296875 131.5 141.445312 C 127.359375 139.476562 124.5625 134.984375 124.539062 130.265625 C 124.527344 128.113281 125.6875 126.136719 127.570312 125.109375 C 130.039062 123.757812 132.324219 122.617188 134.453125 121.570312 C 134.789062 121.40625 135.03125 121.117188 135.128906 120.765625 C 136.359375 116.007812 138.699219 111.945312 141.890625 109.027344 C 145.65625 105.605469 151.875 104.402344 156.800781 104.023438 C 156.828125 101.753906 156.613281 99.484375 156.164062 97.265625 C 155.917969 96.101562 156.359375 94.917969 157.3125 94.179688 C 158.296875 93.449219 159.554688 93.34375 160.613281 93.890625 C 171.730469 99.625 180.550781 109.628906 184.816406 121.335938 C 186.777344 126.710938 186.296875 131.890625 185.832031 136.902344 C 185.691406 138.386719 185.558594 139.828125 185.484375 141.261719 C 185.40625 142.785156 186.457031 144.125 187.976562 144.445312 C 191.589844 145.207031 196.761719 146.464844 200.871094 148.109375 C 209.726562 151.65625 216.828125 160.339844 219.871094 171.335938 C 222.644531 181.339844 222.035156 191.910156 221.242188 201.03125 C 221.222656 201.273438 221.203125 201.519531 221.171875 201.773438 C 221.117188 202.390625 221.046875 203.046875 220.96875 203.714844 C 220.292969 209.355469 219.070312 213.507812 217.121094 216.792969 C 216.679688 217.542969 216.222656 218.203125 215.726562 218.8125 C 214.441406 220.441406 212.875 221.765625 211.082031 222.726562 C 207.609375 224.585938 203.542969 224.835938 200.023438 224.835938 Z M 169.222656 216.027344 L 169.511719 216.988281 C 169.742188 217.761719 170.15625 218.492188 170.710938 219.101562 C 173.53125 222.1875 177.863281 222.230469 181.339844 222.269531 L 198.378906 222.453125 C 201.972656 222.515625 206.429688 222.535156 209.964844 220.640625 C 211.46875 219.835938 212.785156 218.722656 213.882812 217.328125 C 214.316406 216.800781 214.703125 216.238281 215.085938 215.589844 C 216.835938 212.636719 217.992188 208.660156 218.621094 203.433594 C 218.695312 202.792969 218.761719 202.15625 218.820312 201.527344 C 218.847656 201.269531 218.867188 201.050781 218.886719 200.832031 L 218.886719 200.828125 C 219.660156 191.910156 220.261719 181.59375 217.589844 171.964844 C 214.746094 161.675781 208.164062 153.578125 199.992188 150.304688 C 196.039062 148.722656 191.011719 147.503906 187.488281 146.761719 C 184.820312 146.195312 182.988281 143.832031 183.121094 141.140625 C 183.199219 139.65625 183.332031 138.191406 183.472656 136.695312 C 183.917969 131.933594 184.375 127.019531 182.59375 122.148438 C 178.53125 110.992188 170.125 101.460938 159.53125 95.992188 C 159.273438 95.863281 158.980469 95.890625 158.742188 96.066406 C 158.519531 96.234375 158.417969 96.503906 158.480469 96.785156 C 159.042969 99.546875 159.261719 102.371094 159.132812 105.183594 L 159.082031 106.253906 L 158.015625 106.3125 C 153.335938 106.574219 147.015625 107.5625 143.488281 110.777344 C 140.632812 113.382812 138.535156 117.046875 137.414062 121.371094 C 137.136719 122.402344 136.433594 123.242188 135.484375 123.695312 C 133.394531 124.730469 131.132812 125.851562 128.707031 127.183594 C 127.589844 127.792969 126.898438 128.972656 126.90625 130.253906 C 126.921875 134.082031 129.179688 137.722656 132.519531 139.3125 C 134.023438 140.035156 135.75 140.371094 137.269531 140.667969 C 139.222656 141.0625 141 141.421875 142.636719 142.328125 C 145.542969 143.9375 148.53125 146.820312 148.195312 150.089844 C 146.03125 170.964844 156.238281 181.050781 160.082031 184.851562 C 160.675781 185.441406 161.074219 185.84375 161.265625 186.09375 L 161.4375 186.316406 L 161.488281 186.59375 C 162.65625 192.878906 161.671875 200.992188 155.410156 204.925781 C 154.808594 205.296875 154.167969 205.648438 153.492188 206.015625 C 151.105469 207.324219 148.632812 208.675781 148.234375 211.367188 C 147.929688 213.441406 149.070312 215.585938 151.070312 216.699219 C 153.929688 218.28125 159.367188 217.460938 164.625 216.671875 C 165.890625 216.476562 167.089844 216.300781 168.226562 216.15625 Z M 169.222656 216.027344 " fill-opacity="1" fill-rule="nonzero"/><path fill="#a9a0f0" d="M 216.878906 219.3125 C 216.179688 219.3125 215.460938 219.28125 214.746094 219.242188 L 212.417969 219.113281 L 213.894531 217.3125 C 214.316406 216.800781 214.703125 216.238281 215.085938 215.589844 C 216.835938 212.636719 217.992188 208.660156 218.621094 203.433594 C 218.695312 202.792969 218.761719 202.15625 218.820312 201.527344 L 218.910156 200.546875 L 219.886719 200.457031 C 223.0625 200.164062 225.367188 197.242188 226.464844 194.605469 C 228.125 190.648438 227.652344 185.96875 227.152344 182.792969 C 226.96875 181.613281 226.738281 180.402344 226.519531 179.222656 L 226.425781 178.722656 C 225.878906 175.925781 225.261719 172.746094 225.148438 169.539062 C 224.839844 160.339844 228.796875 151.25 235.734375 145.214844 C 242.671875 139.167969 252.230469 136.503906 261.292969 138.09375 C 265.765625 138.863281 270.019531 141.894531 269.496094 146.191406 L 269.496094 146.195312 C 269.179688 148.714844 267.273438 151.871094 259.957031 152.585938 C 252.871094 153.261719 245.828125 154.582031 242.296875 159.609375 C 239.710938 163.304688 239.328125 168.671875 241.167969 175.566406 C 241.597656 177.175781 242.117188 178.816406 242.617188 180.402344 C 243.996094 184.769531 245.394531 189.203125 245.488281 193.917969 C 245.609375 200.152344 242.742188 206.496094 237.621094 211.324219 C 232.171875 216.472656 224.804688 219.3125 216.878906 219.3125 Z M 221.085938 202.660156 C 221.050781 203.007812 221.011719 203.359375 220.96875 203.714844 C 220.292969 209.355469 219.070312 213.507812 217.121094 216.792969 C 217.089844 216.84375 217.0625 216.894531 217.03125 216.945312 C 224.289062 216.910156 231.019531 214.304688 235.996094 209.601562 C 240.632812 205.230469 243.230469 199.53125 243.121094 193.960938 C 243.039062 189.589844 241.6875 185.320312 240.386719 181.191406 C 239.851562 179.503906 239.328125 177.835938 238.882812 176.175781 C 236.855469 168.574219 237.355469 162.546875 240.359375 158.253906 C 244.441406 152.4375 252.082031 150.960938 259.730469 150.230469 C 262.90625 149.921875 266.773438 148.917969 267.148438 145.902344 C 267.488281 143.101562 264.175781 140.992188 260.886719 140.425781 C 252.515625 138.960938 243.695312 141.414062 237.289062 147 C 230.878906 152.570312 227.226562 160.964844 227.515625 169.457031 C 227.621094 172.480469 228.21875 175.5625 228.746094 178.28125 L 228.84375 178.785156 C 229.070312 179.988281 229.300781 181.222656 229.488281 182.425781 C 230.035156 185.886719 230.539062 191.007812 228.648438 195.515625 C 227.046875 199.363281 224.265625 201.96875 221.085938 202.660156 Z M 221.085938 202.660156 " fill-opacity="1" fill-rule="nonzero"/><path fill="#a9a0f0" d="M 168.378906 218.511719 C 167.796875 218.511719 167.292969 218.085938 167.207031 217.492188 C 167.0625 216.464844 167.316406 214.441406 167.71875 213.40625 C 168.820312 210.601562 173.699219 209.390625 176.511719 208.917969 C 178.640625 208.5625 180.261719 207.71875 180.855469 206.667969 C 181.25 205.960938 181.238281 205.109375 180.820312 204.054688 C 180.632812 203.582031 180.324219 203.113281 180.023438 202.675781 C 175.84375 196.667969 174.988281 188.398438 177.847656 181.609375 C 180.554688 175.175781 186.464844 170.214844 193.273438 168.667969 C 193.910156 168.523438 194.542969 168.921875 194.6875 169.558594 C 194.832031 170.195312 194.433594 170.828125 193.796875 170.972656 C 187.722656 172.355469 182.445312 176.785156 180.027344 182.527344 C 177.476562 188.589844 178.234375 195.96875 181.964844 201.324219 C 182.347656 201.875 182.742188 202.484375 183.019531 203.183594 C 183.710938 204.917969 183.675781 206.480469 182.917969 207.828125 C 181.609375 210.148438 178.589844 210.96875 176.902344 211.25 C 173.25 211.863281 170.378906 213.105469 169.921875 214.265625 C 169.671875 214.914062 169.460938 216.539062 169.550781 217.164062 C 169.640625 217.808594 169.191406 218.40625 168.542969 218.5 C 168.488281 218.507812 168.433594 218.511719 168.378906 218.511719 Z M 168.378906 218.511719 " fill-opacity="1" fill-rule="nonzero"/><path fill="#a9a0f0" d="M 151.824219 187.222656 C 151.324219 187.222656 150.859375 186.902344 150.699219 186.402344 C 150.285156 185.96875 150.246094 185.261719 150.625 184.796875 C 151.007812 184.335938 151.65625 184.199219 152.160156 184.523438 C 152.566406 184.785156 152.828125 185.183594 152.972656 185.753906 C 153.128906 186.371094 152.761719 187.003906 152.148438 187.179688 C 152.039062 187.210938 151.933594 187.222656 151.824219 187.222656 Z M 150.679688 186.328125 C 150.695312 186.339844 150.761719 186.433594 150.878906 186.511719 L 151.058594 186.234375 Z M 150.679688 186.328125 " fill-opacity="1" fill-rule="nonzero"/><path fill="#a9a0f0" d="M 97.257812 213.476562 C 96.792969 213.476562 96.328125 213.414062 95.878906 213.285156 C 73.296875 206.820312 51.472656 198.382812 32.210938 190.9375 L 31.777344 190.769531 C 30.890625 190.433594 30.289062 189.621094 30.21875 188.648438 C 30.203125 188.46875 30.210938 188.289062 30.25 188.113281 C 30.25 188.109375 30.25 188.105469 30.25 188.101562 C 30.359375 187.355469 30.800781 186.710938 31.46875 186.324219 C 41.9375 180.519531 48.5 176.890625 54.34375 173.660156 L 68.21875 165.976562 C 68.585938 165.777344 69.027344 165.777344 69.386719 165.988281 C 69.746094 166.199219 69.972656 166.582031 69.976562 166.996094 C 69.984375 167.507812 69.996094 168.023438 70.011719 168.527344 C 70.351562 185.414062 70.621094 187.777344 70.695312 188.101562 C 71.460938 190.050781 74 190.828125 76.128906 191.273438 C 86.203125 193.382812 96.566406 193.699219 106.609375 192.238281 C 108.75 191.929688 111.335938 191.332031 112.390625 189.414062 C 112.472656 189.136719 112.890625 186.824219 113.171875 171.957031 L 113.191406 170.433594 C 113.195312 170.039062 113.398438 169.675781 113.730469 169.460938 C 114.058594 169.242188 114.476562 169.207031 114.839844 169.363281 C 121.265625 172.113281 127.195312 174.410156 132.933594 176.628906 L 133.105469 176.699219 C 138.941406 178.957031 144.96875 181.292969 151.535156 184.113281 C 151.832031 184.242188 152.085938 184.414062 152.296875 184.625 C 152.328125 184.652344 152.359375 184.683594 152.390625 184.714844 C 152.636719 184.976562 152.832031 185.304688 152.949219 185.679688 C 152.960938 185.707031 152.96875 185.734375 152.976562 185.761719 C 153.003906 185.863281 153.027344 185.976562 153.042969 186.089844 C 153.054688 186.203125 153.0625 186.324219 153.0625 186.429688 C 153.0625 187.429688 152.464844 188.335938 151.539062 188.738281 L 151.082031 188.9375 C 133.28125 196.539062 114.746094 204.695312 99.636719 212.875 C 98.902344 213.269531 98.082031 213.476562 97.257812 213.476562 Z M 32.609375 188.507812 C 32.628906 188.539062 32.648438 188.570312 32.652344 188.570312 L 33.078125 188.734375 C 52.277344 196.160156 74.050781 204.578125 96.527344 211.011719 C 97.191406 211.199219 97.90625 211.121094 98.515625 210.792969 C 113.703125 202.566406 132.296875 194.386719 150.128906 186.773438 L 150.582031 186.578125 C 150.652344 186.546875 150.695312 186.488281 150.699219 186.4375 C 150.691406 186.410156 150.683594 186.382812 150.679688 186.355469 C 150.65625 186.335938 150.636719 186.3125 150.617188 186.289062 C 144.074219 183.484375 138.066406 181.15625 132.253906 178.902344 L 132.078125 178.835938 C 126.808594 176.796875 121.375 174.691406 115.53125 172.226562 C 115.207031 189.1875 114.707031 190.105469 114.464844 190.550781 C 112.90625 193.386719 109.628906 194.191406 106.949219 194.578125 C 96.636719 196.082031 85.988281 195.753906 75.640625 193.589844 C 72.929688 193.019531 69.667969 191.96875 68.464844 188.875 C 68.316406 188.496094 68.039062 187.789062 67.652344 168.996094 L 55.488281 175.730469 C 49.644531 178.960938 43.082031 182.589844 32.632812 188.382812 C 32.628906 188.425781 32.621094 188.464844 32.609375 188.507812 Z M 32.609375 188.507812 " fill-opacity="1" fill-rule="nonzero"/><path fill="#a9a0f0" d="M 97.257812 224.835938 C 96.796875 224.835938 96.335938 224.769531 95.882812 224.640625 C 73.453125 218.226562 52.285156 210.046875 31.8125 202.136719 C 30.476562 201.625 30.390625 200.386719 30.234375 198.136719 C 30.117188 196.378906 30.035156 194 30.027344 192.074219 C 30.011719 189.363281 30.109375 188.523438 30.28125 187.984375 C 30.476562 187.386719 31.097656 187.042969 31.707031 187.203125 C 32.277344 187.355469 32.644531 187.894531 32.585938 188.46875 C 32.601562 188.492188 32.648438 188.570312 32.652344 188.570312 L 33.078125 188.734375 C 52.277344 196.160156 74.050781 204.578125 96.527344 211.011719 C 97.191406 211.199219 97.90625 211.121094 98.515625 210.792969 C 113.703125 202.566406 132.296875 194.386719 150.128906 186.773438 L 150.582031 186.578125 C 150.65625 186.542969 150.699219 186.484375 150.699219 186.429688 C 150.625 185.796875 151.0625 185.1875 151.691406 185.09375 C 152.320312 184.996094 152.910156 185.386719 153.03125 186.011719 C 153.164062 186.722656 153.21875 187.957031 153.21875 190.132812 C 153.210938 198.917969 152.613281 199.613281 151.558594 200.085938 C 133.570312 207.761719 114.84375 215.996094 99.625 224.234375 C 98.890625 224.628906 98.070312 224.835938 97.257812 224.835938 Z M 32.808594 199.984375 C 53.214844 207.871094 74.273438 216 96.535156 222.367188 C 97.207031 222.5625 97.882812 222.484375 98.5 222.152344 C 113.742188 213.902344 132.441406 205.671875 150.398438 198.007812 C 150.554688 197.53125 150.847656 195.863281 150.855469 190.128906 C 150.855469 189.734375 150.851562 189.371094 150.847656 189.035156 C 133.117188 196.613281 114.679688 204.730469 99.636719 212.875 C 98.488281 213.492188 97.128906 213.640625 95.878906 213.285156 C 73.367188 206.84375 51.605469 198.433594 32.394531 191.007812 C 32.390625 191.328125 32.390625 191.679688 32.390625 192.0625 C 32.398438 193.945312 32.480469 196.265625 32.59375 197.976562 C 32.664062 199 32.738281 199.675781 32.808594 199.984375 Z M 152.039062 190.132812 L 152.050781 190.132812 Z M 32.566406 188.582031 Z M 32.566406 188.582031 " fill-opacity="1" fill-rule="nonzero"/><path fill="#a9a0f0" d="M 93.660156 98.390625 C 87.503906 98.390625 81.300781 97.742188 75.222656 96.460938 C 73.175781 96.039062 70.613281 95.304688 69.015625 93.382812 C 68.601562 92.898438 68.273438 92.34375 68.042969 91.753906 C 67.839844 91.222656 67.71875 90.679688 67.683594 90.128906 C 67.53125 88.089844 68.476562 85.871094 70.152344 84.351562 C 71.691406 82.960938 73.601562 82.320312 75.285156 81.753906 C 75.585938 81.65625 75.824219 81.574219 76.066406 81.488281 C 90.5625 76.460938 107.003906 82.621094 110.296875 84.414062 C 112.3125 85.511719 113.671875 86.878906 114.339844 88.476562 C 114.492188 88.851562 114.585938 89.152344 114.644531 89.441406 C 114.945312 90.746094 114.746094 92.132812 114.050781 93.417969 C 114.050781 93.417969 114.046875 93.421875 114.046875 93.421875 C 113.835938 93.808594 113.578125 94.171875 113.261719 94.527344 C 111.519531 96.519531 108.75 97.140625 106.53125 97.457031 C 102.285156 98.078125 97.953125 98.390625 93.660156 98.390625 Z M 88.386719 81.894531 C 84.609375 81.894531 80.667969 82.394531 76.875 83.710938 C 76.582031 83.8125 76.320312 83.90625 76.046875 83.992188 C 74.429688 84.535156 72.910156 85.046875 71.738281 86.105469 C 70.59375 87.140625 69.941406 88.621094 70.042969 89.964844 C 70.066406 90.285156 70.132812 90.597656 70.25 90.902344 C 70.382812 91.246094 70.578125 91.566406 70.828125 91.863281 C 71.976562 93.242188 74.160156 93.824219 75.707031 94.144531 C 85.761719 96.261719 96.128906 96.585938 106.195312 95.117188 C 107.867188 94.878906 110.238281 94.394531 111.488281 92.960938 C 111.691406 92.734375 111.84375 92.519531 111.96875 92.292969 C 112.390625 91.511719 112.511719 90.722656 112.332031 89.945312 C 112.289062 89.730469 112.222656 89.554688 112.152344 89.371094 C 111.703125 88.300781 110.695312 87.324219 109.164062 86.492188 C 106.917969 85.269531 98.199219 81.894531 88.386719 81.894531 Z M 113.007812 92.855469 L 113.019531 92.855469 Z M 113.007812 92.855469 " fill-opacity="1" fill-rule="nonzero"/><path fill="#a9a0f0" d="M 114.777344 89.941406 C 114.757812 89.628906 114.65625 89.316406 114.480469 89.039062 C 114.167969 88.554688 113.554688 88.363281 113.023438 88.585938 C 112.492188 88.8125 112.199219 89.386719 112.332031 89.945312 C 112.511719 90.722656 112.390625 91.511719 111.972656 92.289062 C 111.847656 92.515625 111.691406 92.734375 111.488281 92.960938 C 110.238281 94.394531 107.867188 94.878906 106.195312 95.117188 C 96.125 96.585938 85.761719 96.261719 75.707031 94.144531 C 74.160156 93.824219 71.976562 93.242188 70.828125 91.863281 C 70.578125 91.570312 70.382812 91.246094 70.25 90.902344 C 70.132812 90.597656 70.066406 90.285156 70.042969 89.976562 C 70.007812 89.402344 69.558594 88.9375 68.988281 88.875 C 68.40625 88.828125 67.878906 89.179688 67.726562 89.734375 C 67.277344 91.335938 66.734375 98.1875 67.179688 139.015625 C 67.210938 142.023438 67.257812 145.8125 67.320312 149.96875 C 67.617188 149.710938 67.929688 149.46875 68.253906 149.242188 C 68.375 149.160156 68.503906 149.082031 68.640625 149.019531 C 68.964844 148.867188 69.308594 148.695312 69.664062 148.609375 C 69.613281 144.976562 69.574219 141.671875 69.542969 138.988281 C 69.253906 112.132812 69.394531 99.570312 69.65625 94.050781 C 71.246094 95.484375 73.429688 96.089844 75.222656 96.460938 C 85.539062 98.632812 96.199219 98.964844 106.53125 97.457031 C 108.511719 97.175781 110.933594 96.652344 112.667969 95.121094 C 113.410156 113.078125 113.578125 148.292969 113.191406 170.421875 L 113.191406 170.433594 L 113.171875 171.957031 C 112.890625 186.824219 112.472656 189.136719 112.390625 189.414062 C 111.335938 191.332031 108.75 191.929688 106.609375 192.238281 C 96.566406 193.699219 86.203125 193.382812 76.128906 191.273438 C 74 190.828125 71.460938 190.050781 70.695312 188.101562 C 70.621094 187.777344 70.351562 185.414062 70.011719 168.527344 C 70 168.070312 69.988281 167.597656 69.980469 167.125 C 69.886719 167.082031 69.792969 167.050781 69.703125 166.996094 C 69.121094 166.589844 68.476562 166.28125 67.84375 165.960938 C 67.753906 165.914062 67.675781 165.859375 67.585938 165.8125 C 67.597656 166.214844 67.601562 166.625 67.609375 167.027344 C 67.617188 167.546875 67.632812 168.074219 67.644531 168.628906 C 68.035156 187.777344 68.3125 188.492188 68.464844 188.875 C 69.667969 191.96875 72.929688 193.019531 75.640625 193.589844 C 81.730469 194.863281 87.933594 195.511719 94.078125 195.511719 C 98.375 195.511719 102.707031 195.195312 106.949219 194.578125 C 109.628906 194.191406 112.90625 193.386719 114.464844 190.550781 C 114.707031 190.105469 115.214844 189.179688 115.535156 171.996094 L 115.558594 170.464844 C 115.984375 145.96875 115.734375 105.460938 114.777344 89.941406 Z M 114.777344 89.941406 " fill-opacity="1" fill-rule="nonzero"/><path fill="#a9a0f0" d="M 73.675781 115.804688 C 71.839844 115.804688 69.996094 115.757812 68.140625 115.664062 C 67.488281 115.628906 66.984375 115.074219 67.019531 114.421875 C 67.050781 113.769531 67.597656 113.273438 68.261719 113.300781 C 85.277344 114.164062 102.21875 110.753906 113.578125 104.171875 C 114.144531 103.84375 114.867188 104.035156 115.195312 104.601562 C 115.523438 105.164062 115.328125 105.890625 114.765625 106.21875 C 104.097656 112.398438 89.359375 115.804688 73.675781 115.804688 Z M 73.675781 115.804688 " fill-opacity="1" fill-rule="nonzero"/><path fill="#a9a0f0" d="M 68.558594 147.246094 C 67.9375 147.246094 67.414062 146.757812 67.378906 146.128906 C 67.34375 145.476562 67.84375 144.917969 68.496094 144.878906 C 85.671875 143.925781 103.941406 133.046875 113.644531 123.34375 C 114.105469 122.882812 114.855469 122.882812 115.316406 123.34375 C 115.78125 123.804688 115.78125 124.554688 115.316406 125.015625 C 105.304688 135.027344 86.425781 146.253906 68.625 147.242188 C 68.601562 147.242188 68.582031 147.246094 68.558594 147.246094 Z M 68.558594 147.246094 " fill-opacity="1" fill-rule="nonzero"/><path fill="#a9a0f0" d="M 115.503906 135.953125 C 115.101562 135.441406 114.355469 135.351562 113.84375 135.757812 C 104.535156 143.089844 92.546875 148.640625 81.304688 151.15625 C 82.289062 151.480469 82.964844 152.242188 83.222656 153.160156 C 94.378906 150.476562 105.96875 144.972656 115.308594 137.613281 C 115.820312 137.210938 115.910156 136.46875 115.503906 135.953125 Z M 115.503906 135.953125 " fill-opacity="1" fill-rule="nonzero"/><path fill="#a9a0f0" d="M 115.40625 149.371094 C 114.992188 148.867188 114.246094 148.800781 113.742188 149.214844 C 105.011719 156.4375 93.125 161.859375 81.882812 164.15625 C 81.738281 164.585938 81.515625 164.996094 81.207031 165.234375 C 80.234375 165.992188 79.277344 166.632812 78.226562 167.179688 C 91.011719 165.394531 105.171875 159.371094 115.25 151.039062 C 115.753906 150.621094 115.824219 149.875 115.40625 149.371094 Z M 115.40625 149.371094 " fill-opacity="1" fill-rule="nonzero"/><path fill="#a9a0f0" d="M 69.117188 181.585938 C 68.492188 181.585938 67.96875 181.09375 67.9375 180.464844 C 67.90625 179.808594 68.40625 179.253906 69.058594 179.222656 C 84.199219 178.453125 102.140625 170.921875 113.703125 160.484375 C 114.1875 160.046875 114.9375 160.085938 115.375 160.570312 C 115.8125 161.054688 115.773438 161.800781 115.289062 162.238281 C 103.351562 173.015625 84.824219 180.789062 69.179688 181.582031 C 69.160156 181.585938 69.140625 181.585938 69.117188 181.585938 Z M 69.117188 181.585938 " fill-opacity="1" fill-rule="nonzero"/><path fill="#a9a0f0" d="M 83.988281 194.929688 C 83.457031 194.929688 82.972656 194.566406 82.839844 194.027344 C 82.683594 193.394531 83.070312 192.753906 83.707031 192.597656 C 92.335938 190.472656 107.226562 183.703125 113.308594 175.292969 C 113.691406 174.765625 114.433594 174.644531 114.960938 175.027344 C 115.492188 175.410156 115.609375 176.152344 115.226562 176.679688 C 108.792969 185.574219 93.253906 192.683594 84.269531 194.894531 C 84.175781 194.917969 84.082031 194.929688 83.988281 194.929688 Z M 83.988281 194.929688 " fill-opacity="1" fill-rule="nonzero"/><path fill="#a9a0f0" d="M 73.851562 168.925781 C 70.179688 168.925781 66.679688 167.347656 64.492188 164.699219 C 61.179688 160.683594 61.257812 154.464844 64.667969 150.539062 C 67.46875 147.304688 71.636719 145.996094 74.308594 146.148438 C 79.578125 146.449219 84.320312 150.414062 85.335938 155.371094 C 86.378906 160.394531 83.515625 165.800781 78.667969 167.9375 C 78.667969 167.9375 78.667969 167.9375 78.667969 167.941406 C 77.175781 168.59375 75.558594 168.925781 73.851562 168.925781 Z M 78.191406 166.855469 L 78.203125 166.855469 Z M 73.855469 148.5 C 71.667969 148.5 68.527344 149.695312 66.453125 152.089844 C 63.78125 155.167969 63.71875 160.046875 66.316406 163.195312 C 68.058594 165.300781 70.875 166.5625 73.851562 166.5625 C 75.226562 166.5625 76.527344 166.296875 77.714844 165.773438 C 81.5625 164.074219 83.839844 159.808594 83.019531 155.847656 C 82.210938 151.90625 78.410156 148.75 74.171875 148.507812 C 74.070312 148.503906 73.964844 148.5 73.855469 148.5 Z M 73.855469 148.5 " fill-opacity="1" fill-rule="nonzero"/><path fill="#a9a0f0" d="M 78.5625 159.738281 C 78.480469 159.738281 78.398438 159.730469 78.3125 159.714844 C 77.675781 159.578125 77.265625 158.949219 77.402344 158.3125 C 77.632812 157.230469 77.359375 156.050781 76.679688 155.15625 C 75.980469 154.238281 74.851562 153.609375 73.660156 153.472656 C 73.011719 153.398438 72.546875 152.8125 72.621094 152.164062 C 72.695312 151.515625 73.28125 151.050781 73.929688 151.125 C 75.75 151.332031 77.480469 152.304688 78.558594 153.722656 C 79.65625 155.160156 80.085938 157.058594 79.714844 158.800781 C 79.597656 159.359375 79.105469 159.738281 78.5625 159.738281 Z M 78.5625 159.738281 " fill-opacity="1" fill-rule="nonzero"/><path fill="#a9a0f0" d="M 76.0625 148.78125 C 75.480469 148.78125 74.972656 148.347656 74.894531 147.753906 C 74.886719 147.710938 74.359375 143.777344 72.71875 140.230469 C 70.957031 136.402344 70.589844 133.285156 71.367188 128.730469 C 72.152344 124.144531 75.59375 120.9375 78.921875 117.839844 C 79.316406 117.472656 79.707031 117.109375 80.089844 116.746094 C 83.101562 113.886719 86.433594 109.609375 85.210938 105.445312 C 84.441406 102.832031 82.121094 101.066406 79.660156 99.203125 C 77.40625 97.492188 75.074219 95.726562 73.730469 93.136719 C 71.199219 88.261719 73.378906 81.46875 78.488281 78.304688 C 83.304688 75.324219 91.21875 75.164062 96.125 80.070312 C 96.585938 80.53125 96.585938 81.28125 96.125 81.742188 C 95.664062 82.207031 94.914062 82.207031 94.453125 81.742188 C 90.429688 77.722656 83.679688 77.871094 79.734375 80.316406 C 75.707031 82.8125 73.882812 88.292969 75.832031 92.046875 C 76.925781 94.160156 78.949219 95.695312 81.089844 97.316406 C 83.746094 99.332031 86.492188 101.414062 87.480469 104.78125 C 88.714844 108.980469 86.722656 113.710938 81.71875 118.460938 C 81.332031 118.828125 80.933594 119.199219 80.535156 119.570312 C 77.492188 122.402344 74.347656 125.328125 73.699219 129.128906 C 73 133.207031 73.308594 135.855469 74.867188 139.238281 C 76.660156 143.125 77.214844 147.269531 77.238281 147.445312 C 77.324219 148.09375 76.867188 148.6875 76.21875 148.769531 C 76.167969 148.777344 76.117188 148.78125 76.0625 148.78125 Z M 76.0625 148.78125 " fill-opacity="1" fill-rule="nonzero"/><path fill="#a9a0f0" d="M 131.074219 133.851562 C 130.433594 133.851562 129.910156 133.339844 129.894531 132.695312 C 129.835938 130.1875 131.035156 127.792969 133.019531 126.445312 C 135.121094 125.019531 138.03125 124.953125 140.089844 126.28125 C 142.300781 127.714844 143.316406 130.605469 142.449219 133.011719 C 142.230469 133.625 141.550781 133.949219 140.9375 133.722656 C 140.324219 133.503906 140.003906 132.824219 140.226562 132.210938 C 140.710938 130.859375 140.074219 129.089844 138.804688 128.269531 C 137.542969 127.453125 135.667969 127.507812 134.347656 128.402344 C 133.039062 129.289062 132.21875 130.957031 132.257812 132.644531 C 132.273438 133.296875 131.753906 133.839844 131.101562 133.851562 C 131.09375 133.851562 131.085938 133.851562 131.074219 133.851562 Z M 131.074219 133.851562 " fill-opacity="1" fill-rule="nonzero"/><path fill="#a9a0f0" d="M 159.976562 124.574219 C 159.949219 124.574219 159.925781 124.570312 159.898438 124.570312 C 151.59375 124.046875 143.144531 123.828125 134.796875 123.929688 C 134.792969 123.929688 134.789062 123.929688 134.785156 123.929688 C 134.136719 123.929688 133.609375 123.40625 133.601562 122.761719 C 133.59375 122.105469 134.117188 121.570312 134.769531 121.5625 C 143.179688 121.46875 151.683594 121.683594 160.046875 122.210938 C 160.699219 122.25 161.195312 122.8125 161.152344 123.464844 C 161.113281 124.089844 160.59375 124.574219 159.976562 124.574219 Z M 159.976562 124.574219 " fill-opacity="1" fill-rule="nonzero"/><path fill="#a9a0f0" d="M 151.253906 122.992188 C 151.21875 122.992188 150.976562 123.007812 151.042969 123.003906 C 150.917969 123.035156 150.789062 123.035156 150.664062 123.003906 C 150.582031 122.988281 150.574219 122.988281 150.636719 122.996094 C 150.734375 123.007812 150.6875 123.003906 150.507812 122.976562 L 150.503906 122.976562 C 150.410156 122.976562 150.324219 122.960938 150.238281 122.925781 C 150.0625 122.828125 150.019531 122.816406 150.101562 122.886719 C 150.066406 122.878906 150.039062 122.878906 150.019531 122.878906 C 150 122.878906 149.988281 122.878906 149.984375 122.878906 C 149.832031 122.898438 149.703125 122.898438 149.535156 122.875 C 149.652344 122.890625 149.351562 122.851562 149.355469 122.851562 C 149.246094 122.847656 149.140625 122.851562 149.03125 122.851562 C 148.953125 122.851562 148.871094 122.855469 148.789062 122.851562 C 148.578125 122.832031 148.535156 122.824219 148.65625 122.824219 C 148.628906 122.824219 148.601562 122.8125 148.574219 122.808594 C 148.390625 122.820312 148.179688 122.792969 148.117188 122.792969 C 147.96875 122.792969 147.796875 122.796875 147.628906 122.789062 C 147.597656 122.785156 147.5 122.804688 147.585938 122.796875 C 147.394531 122.8125 147.179688 122.839844 146.960938 122.859375 C 146.648438 123.320312 146.464844 123.878906 146.464844 124.484375 C 146.464844 126.082031 147.761719 127.378906 149.363281 127.378906 C 150.960938 127.378906 152.257812 126.082031 152.257812 124.484375 C 152.257812 123.925781 152.097656 123.40625 151.824219 122.964844 C 151.640625 122.996094 151.433594 122.988281 151.253906 122.992188 Z M 151.253906 122.992188 " fill-opacity="1" fill-rule="nonzero"/></svg>