<svg width="60" height="60" viewBox="0 0 60 60" fill="currentColor" xmlns="http://www.w3.org/2000/svg">
<path d="M36.741 49.6129C35.8582 50.2043 35.0184 50.6363 34.2527 50.9566C32.7168 51.5957 31.4863 51.777 30.5965 51.8473C30.373 51.8738 30.1691 51.866 29.9848 51.873C29.8918 51.8754 29.8043 51.877 29.7207 51.8785C29.6379 51.8754 29.5598 51.8715 29.4855 51.8684C29.1879 51.8559 28.959 51.848 28.7895 51.8238C28.4465 51.7879 28.3262 51.7832 28.3262 51.7832C28.3262 51.7832 28.4926 51.8215 28.8934 51.9145C29.0957 51.9621 29.3621 51.9855 29.6973 52.0348C30.034 52.0543 30.4418 52.084 30.9301 52.0598C31.902 52.0223 33.2043 51.8137 34.7613 51.1621C35.5371 50.8363 36.373 50.3957 37.2371 49.8043C38.1035 49.2152 38.9801 48.4574 39.8621 47.5566C41.748 45.6223 42.9512 43.759 43.7691 42.1949C44.5918 40.6254 45.0059 39.3316 45.2723 38.3613C45.3918 37.8707 45.491 37.4629 45.5426 37.1199C45.5707 36.9488 45.5973 36.7965 45.6199 36.6613C45.6387 36.5246 45.6496 36.4043 45.6605 36.3004C45.7035 35.8832 45.7137 35.7168 45.7137 35.7168C45.7137 35.7168 45.6777 35.884 45.5887 36.2965C45.566 36.3996 45.5449 36.5191 45.5129 36.6535C45.4785 36.7871 45.4395 36.9379 45.3957 37.1059C45.3191 37.4441 45.1887 37.8441 45.0434 38.3254C44.7215 39.2754 44.2535 40.5371 43.3973 42.0652C42.9801 42.834 42.4527 43.6613 41.8113 44.5441C41.1684 45.4254 40.3996 46.359 39.466 47.3051C38.5309 48.2504 37.6277 49.0254 36.741 49.6129Z" fill="currentColor"/>
<path d="M22.4264 50.8432C21.9834 50.7658 21.2678 50.6205 20.299 50.1588C19.8178 49.9236 19.2764 49.6096 18.6982 49.1736C18.1233 48.7369 17.5123 48.1799 16.8873 47.4838C16.2607 46.7877 15.6201 45.9541 14.949 44.9885C14.2709 44.0275 13.5701 42.9338 12.8678 41.6885C11.4678 39.1932 10.6639 37.058 10.1631 35.3369C9.68028 33.6088 9.47325 32.2963 9.37247 31.3338C9.31231 30.8533 9.29981 30.4588 9.267 30.1393C9.24278 29.8197 9.24434 29.5736 9.23184 29.3893C9.21466 29.0189 9.20059 28.8916 9.20059 28.8916C9.20059 28.8916 9.18887 29.0736 9.15841 29.5143C9.14512 29.7346 9.12169 30.0205 9.13106 30.3814C9.13184 30.7424 9.13028 31.1791 9.17637 31.6979C9.24825 32.7346 9.42169 34.1127 9.90841 35.8432C9.97091 36.0596 10.035 36.2814 10.1006 36.5096C10.1756 36.7354 10.2537 36.9658 10.3334 37.2041C10.4857 37.6838 10.692 38.1713 10.8928 38.6908C11.3225 39.7205 11.8568 40.8291 12.5201 42.0049C13.2311 43.2604 13.949 44.3533 14.6389 45.3127C15.3256 46.2729 15.9904 47.1057 16.6467 47.7955C17.9545 49.1861 19.2287 49.9689 20.2342 50.3814C21.2467 50.7955 21.9795 50.8822 22.4264 50.9158C22.6522 50.9275 22.8092 50.9291 22.91 50.9236C23.0107 50.9205 23.0561 50.9197 23.0561 50.9197C23.0561 50.9197 23.0107 50.915 22.9092 50.9041C22.8068 50.8963 22.6498 50.876 22.4264 50.8432Z" fill="currentColor"/>
<path d="M25.0668 21.0766C25.2559 21.343 25.6145 21.7852 26.377 22.2078C27.1973 22.6477 27.8043 22.6844 28.1434 22.6805C28.316 22.6773 28.4316 22.6531 28.5027 22.6359C28.5746 22.6187 28.6035 22.6055 28.6035 22.6055C28.6035 22.6055 28.5754 22.5898 28.5074 22.5648C28.4395 22.5391 28.3309 22.5047 28.1723 22.4516C27.859 22.343 27.3285 22.2016 26.5762 21.7938C25.8324 21.375 25.4465 21.0453 25.1957 20.8781C25.0699 20.7953 24.9902 20.7398 24.934 20.7133C24.8777 20.6852 24.8535 20.6797 24.8535 20.6797C24.8535 20.6797 24.8613 20.7094 24.891 20.7742C24.9215 20.8391 24.9715 20.9406 25.0668 21.0766Z" fill="currentColor"/>
<path d="M25.6215 23.2781C26.0746 23.6078 26.434 23.6789 26.6426 23.6938C26.8551 23.7063 26.9348 23.6594 26.9348 23.6594C26.9348 23.6594 26.8824 23.5938 26.7184 23.4766C26.5567 23.3563 26.2801 23.193 25.8785 22.8961C25.4809 22.5953 25.2512 22.4094 25.0895 22.318C24.9317 22.2234 24.8535 22.2227 24.8535 22.2227C24.8535 22.2227 24.8496 22.307 24.9356 22.4906C25.0223 22.6719 25.202 22.9641 25.6215 23.2781Z" fill="currentColor"/>
<path d="M37.3359 19.6397C37.5953 19.8233 37.7703 19.9467 37.8828 20.0256C37.9945 20.1014 38.0453 20.128 38.0453 20.128C38.0453 20.128 38.0148 20.0811 37.9313 19.9725C37.8477 19.8639 37.7109 19.6905 37.4789 19.4592C37.25 19.2225 36.9219 18.9303 36.4547 18.5928C35.9875 18.2577 35.3711 17.8858 34.5547 17.5577C33.7383 17.2311 33.0508 17.0803 32.5055 17.0006C32.3687 16.9842 32.2406 16.9686 32.1211 16.9545C32.0016 16.9475 31.8898 16.9412 31.7859 16.935C31.5789 16.9217 31.4031 16.9295 31.2555 16.9358C30.9602 16.9428 30.775 16.9858 30.6633 17.0045C30.5523 17.0272 30.5156 17.0428 30.5156 17.0428C30.5156 17.0428 30.5695 17.0561 30.7016 17.0772C30.8328 17.0975 31.0406 17.1209 31.3445 17.1717C31.9477 17.2733 32.9555 17.4131 34.4141 17.9967C35.1906 18.3116 35.7891 18.642 36.2586 18.928C36.7273 19.2178 37.0781 19.4537 37.3359 19.6397Z" fill="currentColor"/>
<path d="M35.7715 17.3324C35.7715 17.3324 35.8684 17.4402 36.1754 17.6792C36.4816 17.9206 36.9996 18.2871 37.7996 18.8753C38.6504 19.5066 39.1801 19.9058 39.5207 20.1253C39.8582 20.3464 39.9988 20.3941 39.9988 20.3941C39.9988 20.3941 39.9371 20.2621 39.6699 19.9488C39.4004 19.6394 38.9285 19.1386 38.0512 18.491C37.1707 17.848 36.5793 17.58 36.234 17.448C35.8848 17.3199 35.7715 17.3324 35.7715 17.3324Z" fill="currentColor"/>
<path d="M36.4916 48.3191C35.7541 48.8652 34.8744 49.3855 33.8361 49.7973C32.8002 50.2137 31.8166 50.441 30.9252 50.5473C30.0338 50.6535 29.2346 50.6605 28.5338 50.6004C27.1291 50.4863 26.1182 50.1949 25.3916 49.9684C25.026 49.8566 24.7354 49.7426 24.4979 49.6543C24.258 49.5723 24.0814 49.4895 23.9447 49.4371C23.6729 49.3277 23.5752 49.2965 23.5752 49.2965C23.5752 49.2965 23.7002 49.3699 24.0025 49.5457C24.1525 49.6371 24.3541 49.7402 24.6127 49.8629C24.8666 49.9957 25.1877 50.123 25.5705 50.2793C26.3424 50.5676 27.4025 50.8957 28.833 51.0113C30.2518 51.1215 32.0721 51.0098 34.0861 50.1918C35.1588 49.7605 36.058 49.2035 36.8096 48.6293C37.5619 48.0535 38.1658 47.4535 38.6619 46.884C39.6377 45.7277 40.2018 44.716 40.5619 43.9387C40.733 43.5449 40.8775 43.2191 40.9705 42.9395C41.0713 42.6629 41.1455 42.4441 41.1908 42.2715C41.2877 41.9285 41.3205 41.791 41.3205 41.791C41.3205 41.791 41.2627 41.9238 41.1205 42.2527C40.983 42.584 40.7463 43.1059 40.3439 43.8566C39.9338 44.6012 39.3268 45.5684 38.3369 46.6652C37.8361 47.2074 37.2307 47.773 36.4916 48.3191Z" fill="currentColor"/>
<path d="M13.0832 38.8902C13.3832 39.7434 13.9168 41.1668 15.2254 43.1402C15.927 44.1895 16.5902 44.977 17.1574 45.5793C17.7277 46.1793 18.1926 46.6051 18.5582 46.9043C18.9199 47.2082 19.1793 47.3879 19.3418 47.4988C19.5051 47.6098 19.5738 47.6488 19.5738 47.6488C19.5738 47.6488 19.5223 47.5871 19.3863 47.4426C19.2488 47.2973 19.0316 47.0691 18.7066 46.7277C18.3816 46.3863 17.9598 45.9223 17.4285 45.2988C16.8996 44.6738 16.2691 43.8793 15.5809 42.8449C14.2145 40.7668 13.6223 39.4168 13.2395 38.6637C13.0465 38.2855 12.9379 38.0418 12.8559 37.8996C12.7785 37.7559 12.7441 37.709 12.7441 37.709C12.7441 37.709 12.759 37.7879 12.8074 37.9762C12.8559 38.1629 12.9324 38.4613 13.0832 38.8902Z" fill="currentColor"/>
<path d="M50.6574 19.4465C50.216 19.1262 49.8441 18.6668 49.4566 18.1887C48.741 17.3059 47.9004 16.5387 47.0222 15.8184C46.3004 15.2278 45.5238 14.7098 44.7082 14.2621C45.2879 14.3223 45.859 14.1911 46.4121 13.9387C46.4746 13.9106 46.43 13.8051 46.3652 13.827C45.7144 14.0465 45.0301 14.0934 44.3519 14.0731C43.5199 13.6442 42.6496 13.2879 41.7511 13.0161C41.166 12.8387 40.5707 12.7004 39.9699 12.5926C41.0644 12.3731 42.1441 12.0231 43.1668 11.595C43.1761 11.5911 43.1722 11.5754 43.1621 11.5793C41.8832 11.9653 40.6129 12.2153 39.2926 12.4067C39.2418 12.4137 39.2113 12.4403 39.1957 12.4739C37.4566 12.2528 36.1121 12.3442 34.6582 12.5903C35.5105 12.0411 35.9785 11.5895 36.6121 10.8121C36.6558 10.759 36.5816 10.6825 36.5363 10.7356C36.0988 11.2457 35.5386 11.6957 34.9715 12.0512C34.5457 12.3184 34.0058 12.459 33.6035 12.7559C32.223 12.9379 30.9746 12.8637 29.9871 11.8832C31.7754 12.6161 33.2441 10.3481 35.3496 9.66605C37.9402 8.82621 40.7636 9.46215 43.0965 10.7379C45.3902 11.9926 47.2465 13.8903 48.6136 16.1059C49.2074 17.0653 49.7394 18.5895 50.673 19.4567C50.6683 19.4536 50.6629 19.4504 50.6574 19.4465ZM41.741 15.0114C38.3543 14.5762 36.4386 15.4371 35.5277 15.7098H35.5254C34.841 15.9145 34.0035 16.1067 33.305 15.9606C32.073 15.2762 31.2605 13.9848 30.5254 12.7692C31.1066 13.0746 31.6324 13.1786 32.2269 13.2067C32.4254 13.6121 33.1254 14.2411 33.4965 14.502C33.7652 14.6918 34.0441 14.7536 34.3324 14.9043C34.3519 14.9153 34.3691 14.8856 34.3496 14.8739C34.109 14.7364 33.9222 14.5106 33.709 14.334C33.1668 13.8848 32.8066 13.4746 32.6254 13.2114C33.9222 13.1871 34.9332 12.8356 36.6058 12.7575C37.2301 13.0965 37.7652 13.0754 38.9738 14.3254C39.0199 14.3731 39.1011 14.3114 39.066 14.2543C38.7136 13.6684 38.2004 13.1496 37.3613 12.7411C38.766 12.7481 40.1777 12.945 41.5816 13.3692C41.9769 13.6856 42.4676 13.9145 42.8636 14.2325C43.2707 14.559 43.6363 14.909 44.0777 15.1856C44.0832 15.1903 44.0933 15.1832 44.0902 15.1754C43.873 14.6434 43.5058 14.284 43.0496 13.9309C43.0215 13.909 42.991 13.8864 42.9621 13.8645C44.6926 14.5832 46.2699 15.6223 47.6855 16.9059C48.0683 17.2543 48.4254 17.6809 48.7879 18.1145C46.916 16.3489 44.2347 15.3348 41.741 15.0114ZM33.9863 16.2645C36.1457 16.2442 39.2465 13.9817 44.4644 16.0325C39.4519 14.727 37.1097 17.2825 33.9863 16.2645ZM38.9191 17.8434L40.3933 18.3926C49.7715 22.9465 49.0246 37.0786 42.1535 46.1981C40.2027 48.7864 37.6871 51.4559 34.5136 52.4418C31.8879 53.2575 28.523 53.1848 26.0105 52.0973C25.4457 51.8528 24.7926 51.7231 24.2113 51.502C24.0418 51.4371 23.9402 51.7012 24.0902 51.7895C24.4621 52.0082 24.8519 52.2067 25.2519 52.3879C19.3199 53.2817 14.4793 47.2989 11.8238 42.5817C10.1386 39.5879 9.06911 36.0403 8.56052 32.6496C7.43083 25.1223 10.966 19.2129 18.6051 17.4481C18.7832 17.1543 19.5824 16.7832 20.6004 16.4286C22.4152 15.9239 24.323 15.5496 26.1988 15.4629C25.9511 16.8379 25.7902 18.4981 26.2386 19.8356C25.2066 19.0332 24.4269 18.0864 23.1558 18.309C23.0691 18.3239 23.1035 18.4371 23.1754 18.4473C24.584 18.6254 25.1363 19.9817 26.2043 20.7168C28.6129 22.3668 32.2972 21.634 34.8347 20.1895C34.9972 20.0981 34.8847 19.8653 34.7113 19.9004C32.4965 20.352 30.4465 21.3582 28.1574 20.8075C27.948 19.8926 27.691 19.0075 27.6027 18.0582C27.5191 17.1832 27.5207 16.2996 27.6004 15.4254C28.6215 15.4121 29.6379 15.4067 29.9926 15.359L29.9886 15.3582C30.6886 15.3903 31.3379 15.4426 31.9418 15.5145C33.2769 16.8934 34.9449 17.0637 36.8597 16.7856C37.5996 17.1059 38.2683 17.4653 38.9191 17.8434ZM26.4433 17.1621C26.6113 13.7176 28.1644 10.9903 28.1527 8.31371C28.1504 7.90746 27.884 7.24887 28.1082 6.87465C28.3285 6.50824 29.2722 7.05902 29.7285 7.8309C29.691 8.10668 29.6621 8.37933 29.5832 8.64965C29.3722 8.91918 29.1761 9.21137 28.9933 9.5184C28.6543 9.33324 28.4082 9.29496 28.4082 9.29496C28.4082 9.29496 28.5043 9.55902 28.7855 9.8809C27.0371 13.0996 26.6543 17.7223 27.6301 20.6528C27.373 20.5614 27.1386 20.4481 26.9191 20.3168C26.673 19.2637 26.3941 18.2973 26.4433 17.1621ZM31.5269 15.0559C30.2347 14.9582 28.5949 14.9371 27.6472 14.9668C27.7496 13.7661 28.1965 12.3161 28.6566 11.1762C28.7566 11.6911 29.0558 12.1567 29.4121 12.5325C29.6472 12.7801 29.9683 12.9434 30.2363 13.1551C30.7582 13.5653 30.9668 14.3637 31.5269 15.0559ZM30.1261 12.5254C30.1691 12.6348 30.2144 12.7434 30.2597 12.8528C29.2793 12.1778 29.0972 11.6161 28.7543 10.9395C28.9097 10.5684 28.9769 10.42 29.1426 10.0543L29.1691 10.0223C28.8097 11.0418 29.3011 11.9457 30.1261 12.5254ZM52.3949 19.8801C52.3168 19.8903 52.2433 19.8973 52.1699 19.9028C52.1597 19.8707 52.1394 19.8426 52.1066 19.8254C51.0105 19.2348 50.4441 18.5989 49.866 17.5004C49.309 16.4418 48.709 15.4129 47.9824 14.4606C46.6199 12.6715 44.8793 11.1653 42.8668 10.1512C41.0199 9.22074 38.9808 8.7223 36.909 8.97387C32.791 9.47465 32.4301 12.095 29.8902 11.6668C29.8605 11.6614 29.8332 11.6739 29.8121 11.6918C29.3363 11.1168 29.1293 10.3746 29.5019 9.58949C29.5121 9.56918 29.5074 9.55121 29.4988 9.53637C29.8386 9.09418 30.0988 8.54496 30.1551 7.99965C30.5379 7.38558 28.7746 5.99808 27.9785 6.38558C27.4597 6.63949 27.6152 8.09105 27.5715 8.57465C27.3019 11.5887 26.766 12.5301 26.2801 15.0309C26.2574 15.0332 26.2332 15.0356 26.2105 15.0364C24.0402 15.0575 19.666 15.8059 17.5957 17.0957C17.5926 17.0973 17.5894 17.0996 17.5871 17.1012C14.9324 17.6059 12.4504 19.0973 10.6886 21.1184C8.32614 23.8278 7.27614 27.3176 7.45505 30.8825C7.64177 34.5973 8.75505 38.5786 10.3988 41.9114C11.9597 45.0746 14.3011 48.1129 17.0527 50.3317C19.5035 52.3075 23.0019 53.9996 26.0738 52.7278C28.3394 53.5801 30.9035 53.8645 33.2207 53.4895C40.6332 52.2903 47.9871 41.5903 48.3043 31.0653C48.5488 22.9543 42.6527 17.7801 39.2129 17.4489C39.1511 17.3567 38.3918 16.8809 37.866 16.6121C40.1011 16.1762 42.1926 15.9192 44.4324 16.4965C45.7465 16.8356 46.9043 17.4207 48.0683 18.1004C49.4176 18.8879 50.7933 20.5332 52.491 20.2239C52.7199 20.1817 52.616 19.8481 52.3949 19.8801Z" fill="currentColor"/>
</svg>
