<svg width="18" height="18" viewBox="0 0 18 18" fill="none" xmlns="http://www.w3.org/2000/svg">
<mask id="mask0_5574_78041" style="mask-type:luminance" maskUnits="userSpaceOnUse" x="0" y="0" width="18" height="18">
<path d="M9.17383 0.828125L17.7973 9.17288L9.45259 17.7964L0.82907 9.45164L9.17383 0.828125Z" fill="white"/>
</mask>
<g mask="url(#mask0_5574_78041)">
<path d="M13.6186 13.1315L9.66696 9.30757L13.492 5.35479C13.5878 5.2558 13.5851 5.09684 13.4862 5.00105C13.3872 4.90526 13.2282 4.90788 13.1324 5.00687L9.30741 8.95964L5.35464 5.13464C5.25565 5.03885 5.09669 5.04146 5.0009 5.14045C4.90511 5.23944 4.90772 5.3984 5.00671 5.49419L8.95949 9.31919L5.13559 13.2708C5.0398 13.3698 5.04241 13.5288 5.1414 13.6246C5.24039 13.7204 5.39935 13.7177 5.49514 13.6188L9.31904 9.66712L13.2707 13.491C13.3697 13.5868 13.5286 13.5842 13.6244 13.4852C13.7202 13.3862 13.7176 13.2273 13.6186 13.1315Z" fill="#B20B1F"/>
</g>
</svg>
