<svg xmlns="http://www.w3.org/2000/svg" xmlns:xlink="http://www.w3.org/1999/xlink" width="400" zoomAndPan="magnify" viewBox="0 0 300 299.999988" height="400" preserveAspectRatio="xMidYMid meet" version="1.0"><defs><clipPath id="ce4aa7fd96"><path d="M 90 30.597656 L 210 30.597656 L 210 269.097656 L 90 269.097656 Z M 90 30.597656 " clip-rule="nonzero"/></clipPath></defs><path fill="currentColor" d="M 177.996094 44.046875 C 177.996094 44.042969 177.996094 44.042969 177.996094 44.042969 C 177.996094 44.042969 177.992188 44.042969 177.992188 44.042969 L 177.996094 44.046875 " fill-opacity="1" fill-rule="nonzero"/><g clip-path="url(#ce4aa7fd96)"><path fill="currentColor" d="M 207.96875 140.742188 C 203.507812 137.191406 201.316406 135.945312 200.144531 135.507812 C 198.769531 134.996094 197.53125 134.160156 196.230469 133.480469 C 195.996094 133.359375 195.785156 133.199219 195.617188 132.90625 C 195.753906 132.921875 195.953125 132.945312 196.195312 132.96875 C 198.222656 133.171875 199.285156 133.148438 200.667969 133.238281 C 201.316406 133.277344 202.496094 133.195312 203.753906 133.59375 C 205.117188 134.023438 206.492188 134.425781 207.863281 134.839844 C 208.320312 136.265625 208.609375 137.574219 208.628906 138.9375 C 208.636719 139.625 208.578125 140.285156 207.96875 140.742188 Z M 204.191406 143.402344 C 203.941406 143.449219 203.601562 143.292969 203.375 143.136719 C 203.273438 143.066406 203.175781 143 203.074219 142.929688 C 199.210938 140.179688 197.582031 137.664062 197.582031 137.664062 C 196.488281 136.355469 193.914062 133.261719 194.273438 132.90625 C 194.425781 132.753906 194.941406 133.25 196.746094 134.253906 C 198.910156 135.460938 199.476562 135.667969 201.367188 136.722656 C 201.898438 137.015625 202.367188 137.421875 202.859375 137.785156 C 203.996094 138.613281 205.140625 139.433594 206.253906 140.289062 C 206.6875 140.621094 207.050781 141.035156 207.507812 141.464844 C 206.546875 142.472656 205.496094 143.167969 204.191406 143.402344 Z M 201.832031 144.128906 C 200.492188 144.445312 199.140625 144.71875 197.800781 145.039062 C 197.414062 145.128906 197.101562 145.085938 196.761719 144.871094 C 194.582031 143.496094 192.480469 142.023438 190.484375 140.378906 C 189.207031 139.328125 187.886719 138.328125 186.890625 136.984375 C 186.109375 135.925781 185.367188 134.839844 184.636719 133.75 C 184.085938 132.933594 183.558594 132.105469 183.070312 131.257812 C 182.476562 130.226562 181.976562 129.140625 181.351562 128.128906 C 180.738281 127.144531 180.019531 126.222656 179.34375 125.277344 C 179.222656 125.109375 179.078125 124.957031 178.996094 124.726562 C 179.765625 124.847656 180.371094 125.304688 181.027344 125.640625 C 181.957031 126.109375 182.871094 126.609375 183.78125 127.113281 C 185.253906 127.921875 186.734375 128.730469 188.195312 129.566406 C 189.441406 130.277344 190.714844 130.960938 191.902344 131.769531 C 192.25 132.011719 193.054688 132.691406 195 135.09375 C 198.238281 139.09375 199 140.234375 200.953125 141.910156 C 201.917969 142.742188 202.765625 143.332031 203.285156 143.671875 C 202.777344 143.832031 202.3125 144.015625 201.832031 144.128906 Z M 189.730469 146.414062 C 186.925781 146.253906 184.488281 145.078125 181.988281 143.980469 C 179.3125 142.804688 177.792969 140.625 176.46875 138.1875 C 175.746094 136.839844 174.917969 135.546875 174.144531 134.230469 C 173.898438 133.808594 173.605469 133.394531 173.445312 132.941406 C 172.550781 130.402344 171.160156 128.132812 169.617188 125.957031 C 168.824219 124.839844 167.867188 123.835938 166.929688 122.832031 C 166.582031 122.460938 166.085938 122.238281 165.652344 121.949219 C 165.335938 121.734375 165.015625 121.523438 164.558594 121.21875 C 165.703125 120.875 166.675781 121.023438 167.628906 121.117188 C 168.90625 121.25 170.179688 121.4375 171.449219 121.644531 C 173.210938 121.9375 174.890625 122.523438 176.488281 123.320312 C 176.964844 123.558594 177.382812 123.96875 177.738281 124.382812 C 178.433594 125.195312 179.101562 126.042969 179.714844 126.917969 C 180.167969 127.566406 180.507812 128.289062 180.910156 128.96875 C 181.484375 129.945312 182.03125 130.941406 182.664062 131.878906 C 183.714844 133.425781 184.804688 134.941406 185.914062 136.449219 C 186.945312 137.855469 187.996094 139.246094 189.511719 140.214844 C 190.121094 140.605469 190.589844 141.210938 191.179688 141.648438 C 192.164062 142.378906 193.199219 143.039062 194.191406 143.753906 C 194.832031 144.214844 195.441406 144.714844 196.21875 145.324219 C 193.976562 146.027344 191.929688 146.539062 189.730469 146.414062 Z M 171.414062 139.8125 C 170.484375 139.222656 169.566406 138.59375 168.761719 137.851562 C 167.664062 136.835938 166.570312 135.78125 165.664062 134.59375 C 164.359375 132.878906 163.589844 130.871094 162.894531 128.832031 C 162.308594 127.09375 161.652344 125.375 160.90625 123.703125 C 160.445312 122.664062 159.511719 121.957031 158.488281 121.183594 C 159.742188 121.097656 160.859375 120.992188 161.980469 120.957031 C 162.324219 120.945312 162.707031 121.070312 163.019531 121.230469 C 163.890625 121.683594 164.75 122.160156 165.582031 122.675781 C 166.640625 123.328125 167.460938 124.257812 168.175781 125.25 C 169.367188 126.914062 170.503906 128.628906 171.621094 130.347656 C 172.050781 131.011719 172.367188 131.746094 172.746094 132.445312 C 173.199219 133.28125 173.65625 134.109375 174.121094 134.9375 C 174.753906 136.054688 175.355469 137.191406 176.03125 138.28125 C 176.722656 139.390625 177.484375 140.457031 178.21875 141.542969 C 178.347656 141.738281 178.480469 141.933594 178.617188 142.125 C 176.074219 141.578125 173.570312 141.179688 171.414062 139.8125 Z M 156.785156 120.492188 C 154.878906 120.898438 154.328125 121.394531 152.242188 122.246094 C 152.121094 122.296875 151.820312 122.425781 151.53125 122.71875 C 151.488281 122.761719 151.453125 122.800781 151.417969 122.847656 C 150.914062 123.488281 151.003906 124.3125 151.054688 124.855469 C 151.222656 126.75 150.773438 124.558594 151.050781 130.476562 C 151.085938 131.28125 151.128906 131.984375 151.160156 132.550781 C 150.777344 132.3125 150.539062 132.152344 150.285156 132.011719 C 150.148438 131.929688 150.050781 131.839844 149.988281 131.730469 C 149.859375 131.511719 149.886719 131.265625 149.902344 131.167969 C 149.992188 130.488281 149.984375 128.890625 149.972656 126.78125 C 149.96875 126.410156 149.941406 126.21875 149.964844 125.6875 C 149.972656 125.488281 149.921875 124.90625 149.988281 124.125 C 150.027344 123.703125 150.101562 123.019531 149.691406 122.472656 C 149.394531 122.078125 148.976562 121.9375 148.828125 121.882812 C 148.136719 121.625 147.0625 121.019531 145.390625 119.472656 C 145.871094 119.4375 146.253906 119.46875 146.605469 119.59375 C 147.007812 119.742188 147.210938 119.953125 147.480469 120.15625 C 147.929688 120.488281 148.910156 121.070312 149.386719 120.949219 C 150.410156 120.683594 149.753906 116.957031 150.230469 111.253906 C 150.367188 109.582031 150.359375 107.742188 150.453125 106.492188 C 150.511719 105.691406 150.625 104.90625 150.390625 104.121094 C 150.355469 103.988281 150.421875 103.832031 150.4375 103.6875 C 151.25 103.730469 151.382812 103.824219 151.425781 104.457031 C 151.460938 104.941406 151.488281 105.4375 151.460938 105.921875 C 151.394531 107.238281 151.324219 108.550781 151.207031 109.859375 C 151.074219 111.378906 150.894531 112.886719 150.730469 114.398438 C 150.496094 116.550781 150.648438 118.671875 151.128906 120.777344 C 151.296875 121.511719 151.707031 121.722656 152.421875 121.464844 C 152.535156 121.425781 152.652344 121.378906 152.757812 121.316406 C 153.644531 120.804688 154.601562 120.507812 155.617188 120.402344 C 156.164062 120.347656 156.589844 120.101562 156.984375 119.730469 C 157.582031 119.164062 158.234375 118.648438 158.820312 118.070312 C 160.390625 116.53125 161.261719 114.921875 162.691406 113.300781 C 165.355469 110.265625 167.042969 109.664062 168.207031 109.484375 C 168.304688 109.472656 168.421875 109.378906 168.640625 109.433594 C 171.714844 110.230469 174.828125 110.589844 178.003906 110.292969 C 178.046875 110.289062 178.097656 110.351562 178.199219 110.417969 C 178.066406 110.546875 177.953125 110.683594 177.816406 110.777344 C 176.761719 111.511719 175.671875 112.199219 174.652344 112.976562 C 173.578125 113.789062 172.582031 114.699219 171.53125 115.539062 C 169.871094 116.867188 169.050781 117.535156 168.394531 117.921875 C 166.3125 119.136719 164.285156 119.40625 160.078125 119.964844 C 159.226562 120.078125 157.824219 120.269531 156.785156 120.492188 Z M 153.039062 134.957031 C 153.808594 135.558594 154.558594 136.1875 155.351562 136.761719 C 156.816406 137.816406 158.277344 138.886719 159.796875 139.867188 C 161.132812 140.730469 162.542969 141.46875 163.914062 142.277344 C 165.019531 142.929688 166.121094 143.601562 167.214844 144.273438 C 167.371094 144.367188 167.519531 144.496094 167.628906 144.636719 C 168.609375 145.917969 169.761719 147.042969 170.488281 148.542969 C 171.109375 149.824219 171.570312 151.136719 171.980469 152.484375 C 172.347656 153.699219 172.476562 154.945312 172.460938 156.207031 C 172.445312 157.769531 172.429688 159.332031 171.941406 160.847656 C 171.8125 161.25 171.828125 161.695312 171.757812 162.121094 C 171.722656 162.34375 171.636719 162.558594 171.550781 162.875 C 171.3125 162.691406 171.15625 162.601562 171.039062 162.472656 C 168.585938 159.929688 166.414062 157.160156 164.4375 154.234375 C 163.667969 153.09375 162.910156 151.941406 162.144531 150.800781 C 161.226562 149.4375 159.980469 148.382812 158.8125 147.257812 C 157.175781 145.691406 155.5 144.15625 153.90625 142.546875 C 152.605469 141.234375 151.523438 139.746094 150.953125 137.949219 C 150.878906 137.714844 150.800781 137.472656 150.800781 137.234375 C 150.78125 136.105469 150.792969 134.980469 150.792969 133.730469 C 151.664062 133.949219 152.363281 134.433594 153.039062 134.957031 Z M 171.386719 172.273438 C 171.164062 173.222656 170.914062 174.195312 170.484375 175.0625 C 169.140625 177.785156 167.679688 180.445312 165.703125 182.785156 C 165.273438 183.300781 164.953125 183.90625 164.574219 184.460938 C 164.40625 184.710938 164.21875 184.949219 163.949219 185.320312 C 163.683594 184.945312 163.480469 184.714844 163.339844 184.449219 C 162.269531 182.421875 161.105469 180.441406 160.445312 178.207031 C 160.09375 177.007812 159.480469 175.886719 159.078125 174.695312 C 158.089844 171.796875 157.152344 168.875 156.199219 165.960938 C 155.054688 162.441406 154.230469 162.515625 152.777344 158.867188 C 151.855469 156.558594 151.707031 155.609375 150.925781 154.585938 C 150.746094 154.351562 150.34375 153.527344 149.859375 152.449219 C 149.742188 152.183594 149.71875 151.855469 149.722656 151.558594 C 149.757812 147.929688 150.316406 144.351562 150.734375 140.757812 C 150.753906 140.589844 150.820312 140.425781 150.921875 140.046875 C 151.078125 140.285156 151.335938 140.667969 151.683594 141.121094 C 153.335938 143.296875 154.6875 144.148438 157.457031 146.671875 C 158.601562 147.714844 159.136719 148.273438 159.878906 148.992188 C 161.234375 150.296875 162.332031 151.800781 163.300781 153.414062 C 164.726562 155.78125 166.351562 158.003906 168.167969 160.089844 C 168.230469 160.15625 168.289062 160.226562 168.339844 160.304688 C 169.058594 161.34375 169.878906 162.292969 170.894531 163.050781 C 171.351562 163.390625 171.539062 163.8125 171.492188 164.402344 C 171.449219 164.945312 171.507812 165.5 171.554688 166.050781 C 171.734375 168.132812 171.863281 170.21875 171.386719 172.273438 Z M 163.089844 187.542969 C 162.109375 189.191406 161.371094 190.984375 160.519531 192.714844 C 160.421875 192.925781 160.269531 193.109375 160.035156 193.472656 C 159.648438 192.605469 159.355469 191.878906 159.007812 191.175781 C 158.378906 189.921875 157.757812 188.65625 157.054688 187.441406 C 156.03125 185.671875 154.9375 183.933594 153.875 182.183594 C 153.523438 181.609375 153.160156 181.042969 152.835938 180.453125 C 151.972656 178.894531 151.695312 177.535156 151.492188 176.664062 C 150.878906 174.027344 149.824219 169.480469 149.636719 163.304688 C 149.625 162.785156 149.613281 162.875 149.609375 161.925781 C 149.597656 159.566406 149.589844 157.207031 149.585938 154.847656 C 149.585938 154.671875 149.625 154.492188 149.660156 154.160156 C 149.851562 154.367188 150.121094 154.675781 150.421875 155.074219 C 151.6875 156.761719 152.105469 158.230469 152.605469 159.492188 C 153.414062 161.519531 153.847656 161.148438 154.894531 163.675781 C 155.972656 166.289062 156.769531 168.988281 157.644531 171.667969 C 158.164062 173.269531 158.796875 174.835938 159.363281 176.421875 C 159.558594 176.96875 159.699219 177.535156 159.890625 178.085938 C 160.109375 178.714844 160.308594 179.363281 160.597656 179.964844 C 161.390625 181.625 162.160156 183.304688 163.074219 184.894531 C 163.621094 185.847656 163.679688 186.550781 163.089844 187.542969 Z M 159.351562 194.242188 C 159.210938 194.304688 159.078125 194.375 158.9375 194.4375 C 157.941406 194.875 157.65625 194.816406 157.199219 193.847656 C 156.417969 192.1875 155.675781 190.511719 154.953125 188.828125 C 154.480469 187.734375 154.035156 186.628906 153.644531 185.507812 C 153.214844 184.269531 152.855469 183.003906 152.476562 181.75 C 152.296875 181.140625 152.140625 180.527344 151.925781 179.734375 C 153.832031 182.789062 155.671875 185.636719 157.410156 188.546875 C 158.113281 189.722656 158.589844 191.03125 159.167969 192.277344 C 159.335938 192.636719 159.496094 193 159.675781 193.355469 C 159.882812 193.773438 159.769531 194.058594 159.351562 194.242188 Z M 155.609375 193.96875 C 155.21875 193.800781 155.171875 193.789062 154.941406 193.6875 C 154.699219 193.578125 154.347656 193.453125 153.789062 193.324219 C 152.992188 193.140625 152.578125 192.667969 152.421875 191.910156 C 152.148438 190.625 152.023438 190.175781 151.945312 189.933594 C 151.894531 189.78125 151.855469 189.675781 151.847656 189.652344 C 151.617188 189.003906 151.40625 186.078125 151.265625 179.066406 C 151.816406 180.75 152.246094 182.109375 152.535156 183.027344 C 153.148438 184.976562 153.574219 186.417969 154.21875 188.078125 C 154.367188 188.460938 154.46875 188.734375 154.5625 188.984375 C 155.113281 190.464844 155.3125 191.101562 155.570312 191.789062 C 155.816406 192.4375 156.207031 193.359375 156.820312 194.449219 C 156.304688 194.257812 155.890625 194.085938 155.609375 193.96875 Z M 153.011719 206.078125 C 153.230469 207.15625 153.382812 208.253906 153.457031 209.351562 C 153.566406 210.957031 154.054688 212.480469 154.4375 214.019531 C 155.007812 216.335938 155.667969 218.628906 156.246094 220.941406 C 156.382812 221.46875 156.347656 222.035156 156.410156 222.582031 C 156.6875 225.101562 156.734375 226.089844 156.960938 227.40625 C 157.242188 229.023438 157.382812 229.832031 157.644531 229.875 C 158.234375 229.972656 158.945312 227.605469 160.925781 222.609375 C 161.460938 221.257812 162.222656 219.332031 163.230469 217.019531 C 164.9375 213.105469 165.726562 211.789062 166.796875 208.683594 C 167.027344 208.019531 167.28125 207.246094 167.535156 206.328125 C 167.726562 205.636719 167.878906 205.011719 167.996094 204.480469 C 168.226562 203.417969 168.351562 202.636719 168.378906 202.480469 C 168.824219 199.84375 172.222656 195.234375 174.28125 192.824219 C 176.539062 190.175781 176.675781 190.550781 177.660156 189.839844 C 178.097656 189.523438 178.109375 189.535156 178.632812 189.554688 C 178.648438 189.609375 178.695312 189.6875 178.671875 189.722656 C 177.585938 191.496094 176.40625 193.222656 175.433594 195.050781 C 174.730469 196.375 174.144531 197.53125 173.261719 200.015625 C 172.742188 201.480469 172.449219 202.585938 172.066406 204.035156 C 170.804688 208.808594 171.074219 209.582031 169.953125 210.960938 C 169.300781 211.773438 168.890625 211.902344 167.71875 213.296875 C 167.207031 213.90625 166.738281 214.445312 165.804688 215.53125 C 165.527344 215.855469 165.320312 216.054688 165.25 216.128906 C 164.246094 217.195312 162.453125 219.804688 160.917969 223.828125 C 160.445312 225.070312 159.875 226.398438 159.535156 228.292969 C 159.226562 230.007812 159.015625 231.753906 158.953125 233.492188 C 158.886719 235.511719 159.023438 237.539062 159.089844 239.558594 C 159.097656 239.859375 159.195312 240.160156 159.257812 240.457031 C 159.644531 242.28125 160.023438 244.109375 160.414062 245.933594 C 160.523438 246.441406 160.644531 246.949219 160.792969 247.449219 C 161.617188 250.246094 162.085938 253.117188 162.582031 255.984375 C 162.964844 258.1875 163.449219 260.371094 163.921875 262.558594 C 164.089844 263.324219 164.140625 264.042969 163.84375 264.804688 C 163.625 265.363281 163.558594 265.984375 163.285156 266.597656 C 163.203125 266.351562 163.101562 266.117188 163.042969 265.867188 C 162.601562 264.019531 162.164062 262.171875 161.730469 260.324219 C 161.351562 258.71875 160.976562 257.109375 160.597656 255.503906 C 160.210938 253.867188 159.785156 252.242188 159.4375 250.597656 C 159.136719 249.164062 158.890625 247.71875 158.660156 246.269531 C 158.304688 244.027344 158.027344 241.773438 157.636719 239.542969 C 157.277344 237.515625 156.894531 236.261719 156.136719 234.730469 C 154.40625 231.230469 151.726562 229.429688 151.867188 229.277344 C 151.964844 229.171875 153.175781 230.074219 154.121094 231.003906 C 155.042969 231.917969 155.671875 232.824219 156.074219 233.507812 C 156.5625 233.140625 156.722656 232.691406 156.652344 232.078125 C 156.398438 229.828125 156.199219 227.570312 155.960938 225.316406 C 155.773438 223.542969 155.28125 221.832031 154.847656 220.109375 C 154.464844 218.566406 154.15625 217.007812 153.824219 215.453125 C 153.382812 213.386719 152.941406 211.320312 152.53125 209.246094 C 152.210938 207.628906 151.9375 206.003906 151.648438 204.378906 C 151.453125 203.296875 151.230469 202.21875 151.085938 201.128906 C 150.898438 199.675781 150.769531 198.210938 150.621094 196.75 C 150.550781 196.050781 150.484375 195.351562 150.433594 194.648438 C 150.421875 194.4375 150.417969 194.203125 150.492188 194.011719 C 150.546875 193.875 150.742188 193.699219 150.867188 193.703125 C 151.046875 193.707031 151.269531 193.828125 151.375 193.972656 C 151.46875 194.097656 151.460938 194.328125 151.429688 194.503906 C 151.082031 196.441406 151.355469 198.363281 151.703125 200.257812 C 152.0625 202.210938 152.613281 204.128906 153.011719 206.078125 Z M 181.203125 188.289062 C 183.082031 187.703125 185.027344 187.558594 186.925781 187.6875 C 189.070312 187.839844 191.285156 187.734375 193.363281 188.558594 C 193.945312 188.789062 194.625 188.769531 195.253906 189.300781 C 194.917969 189.582031 194.664062 189.800781 194.402344 190 C 194.257812 190.113281 194.074219 190.179688 193.941406 190.300781 C 191.371094 192.609375 188.570312 194.707031 186.644531 197.632812 C 185.632812 199.171875 184.613281 200.691406 183.351562 202.039062 C 182.769531 202.664062 182.207031 203.339844 181.519531 203.835938 C 180.738281 204.402344 179.828125 204.804688 178.964844 205.261719 C 176.664062 206.488281 174.453125 207.859375 172.382812 209.445312 C 172.070312 209.6875 171.75 209.910156 171.265625 210.257812 C 171.539062 209.351562 171.773438 208.636719 171.960938 207.910156 C 172.289062 206.636719 172.570312 205.355469 172.90625 204.082031 C 173.449219 202.011719 173.96875 199.933594 174.589844 197.886719 C 175.132812 196.089844 176.050781 194.464844 177.183594 192.953125 C 178.007812 191.851562 178.75 190.691406 179.480469 189.523438 C 179.902344 188.855469 180.453125 188.527344 181.203125 188.289062 Z M 196.46875 189.488281 C 198.878906 190.222656 201.105469 191.265625 202.730469 193.292969 C 202.917969 193.527344 203.050781 193.796875 203.238281 194.097656 C 203.042969 194.234375 202.976562 194.316406 202.894531 194.332031 C 200.363281 194.882812 198.230469 196.320312 195.984375 197.496094 C 194.355469 198.347656 192.789062 199.316406 191.125 200.09375 C 188.847656 201.152344 186.515625 202.085938 184.195312 203.054688 C 183.875 203.1875 183.511719 203.222656 183.019531 203.34375 C 183.15625 203.078125 183.1875 202.957031 183.261719 202.878906 C 184.582031 201.507812 185.664062 199.949219 186.703125 198.363281 C 188.027344 196.347656 189.660156 194.613281 191.527344 193.089844 C 192.855469 192.007812 194.152344 190.882812 195.460938 189.78125 C 195.753906 189.539062 196.058594 189.363281 196.46875 189.488281 Z M 203.375 195.40625 C 203.734375 195.84375 203.273438 196.515625 202.34375 199.410156 C 202.316406 199.5 202.257812 199.730469 202.078125 199.953125 C 201.691406 200.425781 201.066406 200.503906 200.878906 200.53125 C 199.476562 200.730469 198.210938 201.503906 196.832031 201.839844 C 191.714844 203.078125 192.097656 203.019531 191.71875 203.082031 C 188.320312 203.667969 185.078125 203.722656 185.039062 203.457031 C 185.015625 203.28125 185.980469 203.179688 187.882812 202.320312 C 188.769531 201.917969 188.996094 201.742188 191.050781 200.640625 C 192.507812 199.855469 192.703125 199.761719 193.484375 199.355469 C 197.199219 197.425781 198.3125 195.960938 201.316406 195.3125 C 202.847656 194.980469 203.222656 195.222656 203.375 195.40625 Z M 201.320312 201.707031 C 200.164062 204.199219 198.714844 206.125 197.109375 207.789062 C 196.644531 208.269531 196.414062 208.511719 196.226562 208.671875 C 194.367188 210.257812 192.265625 210.585938 190.667969 210.8125 C 185.992188 211.480469 183.652344 211.816406 182.492188 211.789062 C 179.257812 211.710938 177.476562 211.113281 172.78125 211.273438 C 172.289062 211.289062 171.882812 211.3125 171.613281 211.324219 C 171.585938 211.242188 171.554688 211.160156 171.527344 211.082031 C 172.445312 210.382812 173.324219 209.621094 174.292969 208.996094 C 176.089844 207.828125 177.941406 206.742188 179.765625 205.613281 C 181.363281 204.625 183.074219 204.070312 184.96875 204.039062 C 186.804688 204.007812 188.640625 203.859375 190.476562 203.777344 C 191.707031 203.71875 192.90625 203.539062 194.0625 203.078125 C 195.3125 202.582031 195.828125 202.484375 197.113281 202.066406 C 198.132812 201.734375 199.632812 201.296875 201.550781 200.941406 C 201.472656 201.203125 201.425781 201.46875 201.320312 201.707031 Z M 192.941406 212.1875 C 191.714844 212.996094 190.480469 213.796875 189.21875 214.550781 C 188.671875 214.878906 188.050781 215.082031 187.457031 215.328125 C 187.089844 215.480469 186.699219 215.585938 186.34375 215.753906 C 184.738281 216.488281 183.058594 216.648438 181.316406 216.511719 C 179.972656 216.410156 178.621094 216.441406 177.28125 216.34375 C 175.664062 216.226562 174.050781 216.035156 172.4375 215.875 C 172.074219 215.839844 171.707031 215.730469 171.351562 215.753906 C 169.890625 215.832031 168.410156 215.730469 166.984375 216.195312 C 166.851562 216.238281 166.6875 216.199219 166.539062 216.199219 C 167.695312 214.804688 168.609375 213.242188 170.398438 212.574219 C 171.402344 212.203125 172.433594 212.054688 173.453125 212.046875 C 175.441406 212.03125 177.441406 212.09375 179.414062 212.339844 C 180.855469 212.519531 182.28125 212.625 183.71875 212.515625 C 186.074219 212.339844 188.382812 211.871094 190.691406 211.359375 C 192.015625 211.066406 193.25 210.3125 194.765625 210.527344 C 194.265625 211.246094 193.617188 211.738281 192.941406 212.1875 Z M 149.480469 191.59375 C 148.292969 190.363281 141.980469 185.636719 140.792969 183.863281 C 140.769531 183.832031 140.757812 183.789062 140.722656 183.75 C 140.292969 183.292969 140.828125 182.207031 141.070312 181.191406 C 141.316406 180.164062 141.164062 179.613281 141.128906 178.464844 C 141.058594 176.214844 141.417969 171.136719 143.308594 166.015625 C 143.710938 164.925781 144.066406 164.167969 144.777344 162.648438 C 146.355469 159.269531 147.921875 156.59375 149.089844 154.746094 C 149.027344 155.195312 148.949219 155.890625 148.90625 156.742188 C 148.835938 158.105469 148.972656 159.144531 148.933594 159.679688 C 148.808594 161.449219 149.15625 164.789062 149.753906 170.171875 C 150.417969 176.179688 150.449219 175.042969 150.535156 176.71875 C 150.640625 178.84375 150.753906 183.75 150.992188 186.34375 C 151.011719 186.578125 151.039062 186.929688 151.105469 187.402344 C 151.253906 188.4375 151.492188 189.46875 151.664062 190.503906 C 151.777344 191.1875 151.886719 191.871094 152.003906 192.574219 C 151.328125 192.824219 150.863281 192.5625 150.425781 192.316406 C 150.019531 192.089844 149.828125 191.953125 149.480469 191.59375 Z M 139.722656 182.949219 C 137.53125 181.4375 135.523438 179.75 134.25 177.386719 C 133.46875 175.933594 132.867188 174.386719 132.171875 172.886719 C 131.425781 171.265625 131.226562 169.542969 131.1875 167.78125 C 131.167969 167.03125 131.222656 166.332031 131.539062 165.636719 C 131.921875 164.804688 132.222656 163.933594 132.578125 163.085938 C 133.25 161.496094 134.117188 160.023438 135.269531 158.730469 C 136.707031 157.125 137.835938 155.296875 139.050781 153.535156 C 139.414062 153.003906 139.835938 152.519531 140.238281 152.019531 C 141.753906 150.132812 143.253906 148.238281 144.792969 146.371094 C 145.609375 145.375 146.46875 144.417969 147.34375 143.472656 C 148.414062 142.316406 149.25 141.011719 149.886719 139.574219 C 149.96875 139.585938 150.046875 139.597656 150.128906 139.613281 C 150.109375 139.933594 150.121094 140.257812 150.078125 140.574219 C 149.835938 142.453125 149.566406 144.332031 149.339844 146.210938 C 149.253906 146.941406 149.257812 147.683594 149.207031 148.417969 C 149.125 149.699219 149.039062 150.980469 148.949219 152.261719 C 148.949219 152.261719 148.90625 152.527344 148.855469 152.804688 C 148.328125 155.679688 145.375 160.207031 143.523438 164.671875 C 142.691406 166.675781 142.203125 168.371094 141.972656 169.175781 C 141.558594 170.621094 141.253906 172.09375 140.988281 173.566406 C 140.804688 174.589844 140.75 175.636719 140.664062 176.671875 C 140.476562 179.007812 140.953125 180.207031 140.269531 181.890625 C 140.082031 182.355469 139.871094 182.714844 139.722656 182.949219 Z M 130.960938 165.554688 C 130.875 165.339844 130.785156 165.183594 130.75 165.019531 C 130.472656 163.640625 130.179688 162.269531 129.9375 160.882812 C 129.082031 155.953125 129.921875 151.359375 132.835938 147.246094 C 133.441406 146.394531 134.355469 145.75 135.148438 145.039062 C 135.578125 144.648438 136.054688 144.3125 136.507812 143.949219 C 136.9375 143.605469 137.351562 143.242188 137.796875 142.917969 C 139.308594 141.824219 140.820312 140.734375 142.347656 139.667969 C 143.222656 139.054688 144.121094 138.46875 145.023438 137.894531 C 146.40625 137.011719 147.542969 135.855469 148.710938 134.730469 C 149.011719 134.441406 149.328125 134.164062 149.730469 133.792969 C 150.1875 135.515625 149.875 137.023438 149.691406 138.535156 C 149.660156 138.792969 149.46875 139.035156 149.328125 139.269531 C 148.507812 140.632812 147.71875 142.011719 146.847656 143.335938 C 146.382812 144.046875 145.761719 144.65625 145.222656 145.324219 C 142.933594 148.152344 140.648438 150.980469 138.363281 153.8125 C 138.34375 153.835938 138.320312 153.859375 138.308594 153.886719 C 137.1875 156.175781 135.25 157.859375 133.835938 159.929688 C 133.132812 160.960938 132.570312 162.066406 132.128906 163.253906 C 131.84375 164.023438 131.722656 164.921875 130.960938 165.554688 Z M 146.300781 96.503906 C 145.84375 95.441406 145.472656 94.335938 145.144531 93.222656 C 144.84375 92.203125 144.640625 91.148438 144.414062 90.109375 C 144.335938 89.753906 144.261719 89.382812 144.273438 89.023438 C 144.324219 87.25 144.347656 85.472656 144.75 83.726562 C 145.042969 82.445312 145.101562 81.101562 145.488281 79.851562 C 145.941406 78.367188 146.621094 76.945312 147.234375 75.511719 C 147.65625 74.527344 148.039062 73.507812 148.597656 72.597656 C 149.566406 71.011719 150.886719 69.769531 152.769531 69.078125 C 152.890625 70.625 152.941406 72.066406 152.441406 73.488281 C 151.855469 75.167969 151.324219 76.863281 150.773438 78.554688 C 150.601562 79.074219 150.46875 79.609375 150.296875 80.132812 C 149.835938 81.546875 149.859375 83.03125 149.683594 84.480469 C 149.460938 86.273438 149.589844 88.074219 149.691406 89.886719 C 149.78125 91.585938 150.222656 93.199219 150.539062 94.84375 C 150.742188 95.882812 151.179688 96.878906 151.421875 97.917969 C 151.75 99.3125 152.003906 100.722656 152.265625 102.132812 C 152.308594 102.382812 152.226562 102.660156 152.191406 103.007812 C 151.304688 102.964844 150.613281 102.714844 150.078125 102.113281 C 148.574219 100.410156 147.203125 98.605469 146.300781 96.503906 Z M 142.476562 75.015625 C 141.347656 75.550781 140.414062 75.96875 139.792969 76.242188 C 139.816406 76.09375 139.800781 75.992188 139.84375 75.941406 C 141.054688 74.398438 142.277344 72.875 143.851562 71.667969 C 144.101562 71.476562 144.347656 71.347656 144.621094 71.300781 C 144.886719 71.257812 145.09375 71.304688 145.199219 71.328125 C 146.683594 71.652344 147.429688 71.816406 147.46875 71.976562 C 147.613281 72.550781 145.441406 73.601562 142.476562 75.015625 Z M 138.121094 76.898438 C 137.578125 77.347656 136.820312 77.566406 136.125 77.785156 C 134.203125 78.390625 132.195312 78.40625 130.210938 78.484375 C 128.941406 78.535156 127.664062 78.3125 126.355469 78.109375 C 128.746094 76.320312 131.308594 74.808594 133.335938 72.625 C 133.332031 72.628906 133.328125 72.628906 133.324219 72.632812 C 134.246094 71.765625 135.15625 70.886719 136.097656 70.039062 C 137.453125 68.820312 138.929688 67.789062 140.6875 67.226562 C 140.800781 67.191406 140.925781 67.191406 141.140625 67.164062 C 140.628906 68.707031 141.953125 69.167969 142.71875 69.949219 C 143.074219 70.3125 143.507812 70.59375 143.980469 70.976562 C 143.722656 71.222656 143.570312 71.398438 143.382812 71.535156 C 142.332031 72.300781 141.515625 73.285156 140.695312 74.285156 C 139.925781 75.234375 139.0625 76.128906 138.121094 76.898438 Z M 124.335938 77.398438 C 122.703125 76.546875 120.976562 76.105469 119.167969 75.894531 C 118.855469 75.859375 118.546875 75.730469 118.117188 75.613281 C 118.464844 75.226562 118.851562 74.949219 119.246094 74.707031 C 119.296875 74.777344 123.582031 72.179688 125.789062 70.101562 C 125.976562 69.925781 126.472656 69.449219 127.25 69.003906 C 128.0625 68.546875 128.941406 68.265625 129.90625 68.117188 C 131.804688 67.824219 133.691406 67.460938 135.59375 67.191406 C 136.375 67.085938 137.175781 67.140625 137.96875 67.144531 C 138.226562 67.148438 138.488281 67.242188 138.988281 67.339844 C 138.726562 67.523438 138.351562 67.796875 137.902344 68.136719 C 135.675781 69.835938 134.964844 70.789062 132.671875 72.976562 C 132.671875 72.976562 130.414062 75.125 126.683594 77.277344 C 126.441406 77.417969 125.753906 78.140625 124.335938 77.398438 Z M 115.460938 73.359375 C 117.34375 72.261719 119.71875 71.113281 122.566406 70.234375 C 123.863281 69.832031 125.097656 69.539062 126.242188 69.320312 C 122.71875 71.972656 120.839844 73.410156 119.941406 74.117188 C 119.355469 74.382812 118.769531 74.648438 118.195312 74.929688 C 116.683594 75.679688 115.65625 75.097656 115.460938 73.359375 Z M 115.300781 70.945312 C 115.351562 70.515625 115.503906 70.453125 116.410156 68.4375 C 116.679688 67.828125 117.179688 67.53125 117.789062 67.335938 C 118.808594 67.015625 119.851562 67.039062 120.886719 67.117188 C 122.195312 67.210938 123.5 67.394531 124.808594 67.511719 C 125.5625 67.578125 126.324219 67.578125 127.082031 67.621094 C 127.285156 67.632812 127.488281 67.707031 127.871094 67.792969 C 127.722656 67.867188 127.617188 67.929688 127.527344 67.976562 C 127.472656 68.003906 127.394531 68.039062 127.292969 68.085938 C 124.328125 69.46875 122.234375 69.96875 120.265625 70.609375 C 119.121094 70.984375 117.46875 71.582031 115.496094 72.519531 C 115.25 71.820312 115.257812 71.273438 115.300781 70.945312 Z M 118.785156 65.390625 C 119.820312 64.394531 120.898438 63.445312 121.960938 62.476562 C 122.355469 62.113281 122.792969 61.886719 123.351562 61.871094 C 123.359375 61.882812 123.429688 61.882812 123.558594 61.863281 C 124.042969 61.832031 124.527344 61.738281 125.019531 61.582031 C 127.03125 60.828125 130.074219 59.960938 133.851562 59.875 C 137 59.808594 139.328125 60.3125 139.847656 60.429688 C 144.050781 61.382812 146.964844 63.449219 148.414062 64.195312 C 148.75 64.371094 149.046875 64.625 149.453125 64.910156 C 149.222656 65.035156 149.128906 65.132812 149.027344 65.140625 C 147.550781 65.222656 146.136719 65.578125 144.722656 66.003906 C 143.914062 66.25 143.039062 66.335938 142.1875 66.363281 C 141.183594 66.394531 140.171875 66.25 139.164062 66.25 C 138.339844 66.246094 137.515625 66.335938 136.691406 66.402344 C 134.492188 66.578125 132.34375 67.078125 130.171875 67.457031 C 129.625 67.550781 129.101562 67.558594 128.546875 67.371094 C 128.066406 67.203125 127.519531 67.203125 127.003906 67.175781 C 125.660156 67.097656 124.3125 67.050781 122.972656 66.984375 C 121.292969 66.898438 119.613281 66.808594 117.878906 66.71875 C 117.9375 66.152344 118.394531 65.769531 118.785156 65.390625 Z M 123.777344 60.832031 C 124.847656 59.671875 126.136719 58.773438 127.511719 58.039062 C 128.640625 57.4375 129.859375 56.992188 131.070312 56.566406 C 131.695312 56.347656 132.382812 56.296875 133.046875 56.210938 C 133.046875 56.210938 134.085938 56.074219 135.148438 56.039062 C 140.652344 55.855469 144.980469 57.921875 144.980469 57.921875 C 145.894531 58.359375 147.628906 59.054688 149.167969 60.644531 C 150 61.503906 150.882812 62.316406 151.671875 63.210938 C 152.195312 63.800781 152.601562 64.492188 153.046875 65.144531 C 153.101562 65.226562 153.089844 65.359375 153.148438 65.667969 C 152.207031 65.199219 151.402344 64.800781 150.601562 64.386719 C 150.441406 64.304688 150.316406 64.144531 150.15625 64.070312 C 148.636719 63.351562 147.128906 62.601562 145.585938 61.9375 C 144.183594 61.335938 142.753906 60.785156 141.308594 60.292969 C 141.308594 60.292969 139.691406 59.773438 138.128906 59.429688 C 133.835938 58.476562 126.367188 60.703125 124.054688 61.558594 C 123.820312 61.558594 123.566406 61.558594 123.28125 61.558594 C 123.527344 61.195312 123.628906 60.992188 123.777344 60.832031 Z M 148.90625 50.261719 C 149.144531 49.132812 149.550781 48.03125 149.90625 46.929688 C 149.972656 46.714844 150.160156 46.542969 150.410156 46.179688 C 150.496094 46.753906 150.578125 47.132812 150.601562 47.519531 C 150.75 49.910156 151.257812 52.226562 151.886719 54.535156 C 152.507812 56.800781 153.238281 59.050781 153.453125 61.410156 C 153.496094 61.878906 153.429688 62.359375 153.414062 62.914062 C 153.332031 62.875 153.203125 62.808594 153.046875 62.71875 C 150.402344 61.199219 149.503906 58.449219 149.382812 58.054688 C 149.269531 57.6875 149.226562 57.394531 149.101562 56.816406 C 148.640625 54.652344 148.4375 52.449219 148.90625 50.261719 Z M 152.417969 43.070312 C 153.300781 42.175781 154.195312 41.300781 155.066406 40.40625 C 155.726562 39.726562 156.382812 39.039062 157.003906 38.328125 C 158.339844 36.8125 159.589844 35.222656 160.988281 33.769531 C 162.039062 32.675781 163.367188 31.988281 165.144531 31.890625 C 164.933594 32.261719 164.816406 32.492188 164.679688 32.703125 C 163.675781 34.28125 162.734375 35.902344 162.21875 37.710938 C 161.945312 38.675781 161.757812 39.683594 161.679688 40.679688 C 161.46875 43.433594 161.09375 46.15625 160.332031 48.816406 C 159.777344 50.769531 158.941406 52.609375 158.035156 54.417969 C 157.265625 55.945312 156.503906 57.484375 155.742188 59.015625 C 155.65625 59.183594 155.574219 59.347656 155.484375 59.503906 C 154.960938 60.421875 154.441406 61.339844 153.902344 62.277344 C 153.828125 60.335938 153.453125 58.464844 152.851562 56.617188 C 152.320312 54.988281 151.863281 53.328125 151.535156 51.648438 C 151.234375 50.125 151.039062 48.558594 151 47.003906 C 150.964844 45.558594 151.339844 44.160156 152.417969 43.070312 Z M 165.585938 32.1875 C 165.921875 31.773438 166.359375 31.585938 166.878906 31.605469 C 167.917969 31.652344 168.957031 31.695312 169.992188 31.785156 C 171.273438 31.894531 172.554688 32.042969 173.832031 32.191406 C 174.675781 32.292969 175.507812 32.453125 176.332031 32.882812 C 176.207031 33.082031 176.144531 33.253906 176.023438 33.367188 C 174.6875 34.605469 173.875 36.191406 173.132812 37.808594 C 172.359375 39.511719 171.609375 41.222656 170.859375 42.929688 C 170.242188 44.328125 169.296875 45.441406 168.140625 46.449219 C 166.292969 48.0625 164.550781 49.789062 162.789062 51.492188 C 161.640625 52.597656 160.539062 53.746094 159.421875 54.882812 C 159.082031 55.222656 158.769531 55.589844 158.445312 55.945312 C 158.367188 55.886719 158.292969 55.828125 158.21875 55.769531 C 158.5 55.128906 158.777344 54.488281 159.066406 53.851562 C 160.484375 50.699219 161.082031 49.078125 161.429688 47.015625 C 161.648438 45.699219 161.496094 45.660156 161.898438 42.457031 C 162.042969 41.3125 162.148438 40.742188 162.214844 40.191406 C 162.507812 37.648438 163.40625 35.324219 164.769531 33.179688 C 164.996094 32.820312 165.3125 32.519531 165.585938 32.1875 Z M 177.800781 33.113281 C 178.292969 33.28125 178.800781 33.394531 179.300781 33.554688 C 180.667969 33.992188 182.046875 34.167969 183.464844 33.835938 C 183.550781 33.816406 183.648438 33.828125 183.734375 33.84375 C 183.789062 33.855469 183.832031 33.910156 183.992188 34.027344 C 183.820312 34.226562 183.699219 34.394531 183.546875 34.53125 C 181.726562 36.214844 179.871094 37.863281 177.816406 39.265625 C 175.640625 40.75 173.453125 42.207031 171.265625 43.675781 C 171.25 43.6875 171.210938 43.660156 171.128906 43.632812 C 171.164062 43.5 171.183594 43.355469 171.238281 43.226562 C 171.84375 41.757812 172.429688 40.277344 173.070312 38.820312 C 173.546875 37.726562 174.054688 36.648438 174.609375 35.589844 C 175.085938 34.6875 175.789062 33.957031 176.601562 33.332031 C 176.980469 33.039062 177.351562 32.964844 177.800781 33.113281 Z M 184.648438 34.746094 C 185.265625 35.117188 184.78125 36.894531 184.898438 38.683594 C 184.917969 38.898438 184.890625 39.089844 184.832031 39.261719 C 184.734375 39.539062 184.546875 39.816406 184.183594 40.082031 C 180.121094 43.050781 176.109375 44.191406 176.109375 44.191406 C 174.644531 44.605469 172.695312 45.082031 170.359375 45.4375 C 170.714844 45.117188 171.082031 44.796875 171.515625 44.445312 C 172.90625 43.304688 173.695312 42.84375 175.160156 41.8125 C 176.535156 40.847656 177.460938 40.109375 178.90625 38.960938 C 182.851562 35.824219 184.019531 34.367188 184.648438 34.746094 Z M 184.675781 41.476562 C 184.289062 44.355469 183.21875 46.964844 181.5 49.3125 C 180.832031 50.222656 180.175781 51.152344 179.546875 52.09375 C 178.785156 53.238281 177.691406 53.582031 176.859375 54.0625 C 173.074219 56.25 174.03125 55.972656 171.15625 57.550781 C 169.242188 58.601562 166.804688 59.828125 163.886719 61.046875 C 164.136719 60.40625 164.34375 59.820312 164.558594 59.296875 C 164.761719 58.796875 164.8125 58.296875 164.6875 57.765625 C 164.460938 56.792969 163.777344 56.339844 162.792969 56.519531 C 162.492188 56.574219 162.175781 56.660156 161.886719 56.617188 C 160.644531 56.425781 159.613281 56.910156 158.621094 57.554688 C 158.445312 57.671875 158.257812 57.765625 157.949219 57.78125 C 158.023438 57.621094 158.070312 57.4375 158.179688 57.300781 C 160.027344 55.074219 162.191406 53.179688 164.375 51.292969 C 165.066406 50.699219 165.671875 49.992188 166.324219 49.34375 C 168.210938 47.472656 168.667969 47 169.410156 46.3125 C 169.546875 46.183594 169.679688 46.058594 169.8125 45.9375 C 171.582031 45.777344 176.761719 44.761719 179.566406 43.21875 C 179.632812 43.179688 179.828125 43.074219 180.09375 42.925781 C 182.011719 41.863281 183.570312 40.984375 184.683594 40.351562 C 184.683594 40.777344 184.722656 41.132812 184.675781 41.476562 Z M 175.457031 57.804688 C 174.402344 59.335938 173.011719 60.527344 171.585938 61.703125 C 170.777344 62.371094 169.976562 63.042969 168.972656 63.367188 C 167.664062 63.792969 166.371094 64.230469 164.984375 64.402344 C 163.964844 64.527344 162.976562 64.898438 161.972656 65.167969 C 161.480469 65.304688 160.992188 65.457031 160.308594 65.652344 C 160.390625 65.273438 160.367188 65.011719 160.484375 64.867188 C 161.210938 63.996094 161.949219 63.132812 162.730469 62.3125 C 163.085938 61.933594 163.519531 61.875 163.613281 61.835938 C 165.839844 60.839844 171.328125 58.390625 175.582031 55.597656 C 176.019531 55.3125 176.714844 54.84375 177.546875 54.226562 C 177.59375 54.28125 177.640625 54.335938 177.6875 54.390625 C 176.945312 55.53125 176.226562 56.683594 175.457031 57.804688 Z M 156.207031 62.726562 C 156.417969 64.347656 155.144531 65.046875 154.234375 65.992188 C 154.3125 64.367188 154.886719 62.871094 155.421875 61.375 C 155.511719 61.125 155.824219 60.957031 156.167969 60.621094 C 156.230469 61.015625 156.292969 61.234375 156.289062 61.449219 C 156.277344 61.875 156.152344 62.3125 156.207031 62.726562 Z M 158.421875 63.855469 C 159.363281 63.308594 160.320312 62.792969 161.320312 62.335938 C 160.59375 63.679688 159.597656 64.804688 158.351562 65.578125 C 157.585938 66.054688 156.574219 66.472656 155.425781 65.65625 C 156.5 65.007812 157.453125 64.414062 158.421875 63.855469 Z M 156.632812 63.421875 C 156.6875 62.378906 156.714844 61.375 156.804688 60.378906 C 156.828125 60.136719 157.011719 59.851562 157.207031 59.695312 C 157.796875 59.226562 158.429688 58.8125 159.09375 58.34375 C 159.363281 59.910156 157.867188 62.984375 156.632812 63.421875 Z M 159.273438 60.714844 C 159.257812 59.746094 159.574219 58.863281 160.019531 58.054688 C 160.15625 57.804688 160.632812 57.617188 160.953125 57.617188 C 161.710938 57.613281 162.464844 57.703125 163.214844 57.484375 C 163.328125 57.449219 163.484375 57.5625 163.636719 57.613281 C 163.558594 58.230469 163.066406 58.378906 162.683594 58.53125 C 161.417969 59.039062 160.363281 59.839844 159.273438 60.714844 Z M 163.761719 58.519531 C 163.53125 59.609375 163.265625 60.515625 162.535156 60.996094 C 160.863281 62.097656 159.09375 63.046875 157.363281 64.058594 C 158.742188 61.386719 160.824219 59.625 163.761719 58.519531 Z M 161.523438 66.757812 C 164.914062 66.746094 164.65625 66.757812 165.46875 66.742188 C 166.417969 66.722656 167.371094 66.691406 168.3125 66.589844 C 168.921875 66.523438 169.457031 66.699219 170.011719 66.875 C 171.4375 67.324219 172.875 67.757812 174.300781 68.203125 C 174.566406 68.285156 174.824219 68.382812 175.085938 68.464844 C 176.371094 68.867188 177.65625 69.265625 178.941406 69.664062 C 179.875 69.953125 180.683594 70.457031 181.246094 71.253906 C 181.796875 72.023438 182.34375 72.820312 182.71875 73.683594 C 183.746094 76.078125 185.019531 78.34375 186.226562 80.648438 C 186.6875 81.53125 186.921875 82.527344 187.261719 83.476562 C 187.191406 83.539062 187.125 83.609375 187.058594 83.671875 C 186.667969 83.535156 186.261719 83.433594 185.890625 83.25 C 184.140625 82.378906 182.417969 81.433594 180.636719 80.617188 C 178.800781 79.769531 176.925781 79.011719 175.046875 78.269531 C 174.308594 77.980469 173.507812 77.859375 172.746094 77.636719 C 170.390625 76.953125 168.101562 76.050781 165.671875 75.640625 C 165.066406 75.539062 164.460938 75.472656 163.855469 75.367188 C 161.640625 74.984375 159.496094 74.371094 157.46875 73.386719 C 156.671875 73 155.871094 72.621094 155.105469 72.175781 C 154.066406 71.570312 153.601562 70.671875 153.640625 69.421875 C 153.671875 68.484375 153.847656 67.863281 154.253906 67.488281 C 154.78125 67.003906 155.503906 67.035156 156.152344 67.046875 C 158.398438 67.089844 155.242188 66.789062 161.523438 66.757812 Z M 187.679688 85.117188 C 187.828125 85.960938 187.964844 86.816406 187.980469 87.671875 C 188.019531 89.84375 188.011719 92.019531 187.984375 94.195312 C 187.980469 94.671875 187.867188 95.164062 187.726562 95.625 C 187.394531 96.710938 187.023438 97.78125 186.660156 98.855469 C 186.59375 99.050781 186.492188 99.238281 186.398438 99.460938 C 184.957031 98.121094 182.636719 96.214844 179.386719 94.609375 C 178.808594 94.324219 178.835938 94.007812 174.300781 92.539062 C 171.121094 91.511719 167.941406 90.472656 165.230469 88.429688 C 163.964844 87.480469 162.535156 86.691406 161.554688 85.40625 C 160.761719 84.363281 160.070312 83.242188 159.363281 82.132812 C 158.148438 80.226562 156.929688 78.316406 155.765625 76.378906 C 155.449219 75.851562 154.769531 74.925781 154.320312 73.515625 C 154.121094 72.898438 154.019531 72.375 153.96875 72.035156 C 154.691406 72.585938 155.890625 73.410156 157.496094 74.136719 C 160.558594 75.519531 162.074219 75.167969 167.101562 76.390625 C 169.671875 77.011719 171.632812 77.675781 172.765625 78.0625 C 175.191406 78.886719 177.097656 79.59375 179.339844 80.628906 C 180.703125 81.253906 182.097656 81.808594 183.449219 82.453125 C 184.71875 83.058594 185.960938 83.730469 187.191406 84.414062 C 187.417969 84.542969 187.632812 84.859375 187.679688 85.117188 Z M 184.886719 104.699219 C 184.820312 105.210938 184.484375 105.707031 184.203125 106.171875 C 183.964844 106.558594 183.652344 106.90625 183.328125 107.226562 C 183.121094 107.425781 182.835938 107.542969 182.503906 107.753906 C 182.070312 107.09375 181.71875 106.488281 181.296875 105.9375 C 180.089844 104.355469 178.867188 102.789062 177.625 101.234375 C 177.074219 100.539062 176.433594 99.914062 175.886719 99.214844 C 174.765625 97.773438 173.3125 96.6875 171.980469 95.472656 C 170.917969 94.5 169.878906 93.515625 168.617188 92.78125 C 168.222656 92.550781 168.140625 92.335938 167.496094 91.710938 C 166.65625 90.890625 165.433594 89.714844 163.875 88.246094 C 165.285156 89.492188 166.558594 90.21875 167.414062 90.640625 C 169.601562 91.71875 170.660156 91.6875 173.53125 92.644531 C 175.351562 93.25 176.542969 93.824219 178.664062 94.851562 C 178.664062 94.851562 185.625 98.222656 186.027344 100.835938 C 186.039062 100.929688 186.039062 101.019531 186.039062 101.019531 C 185.996094 101.519531 185.257812 101.800781 184.886719 104.699219 Z M 175.730469 105.4375 C 175.34375 104.421875 175.25 103.292969 174.996094 102.226562 C 174.746094 101.15625 174.453125 100.097656 174.179688 99.035156 C 174.121094 98.804688 174.066406 98.570312 173.980469 98.203125 C 175.652344 99.027344 181.019531 105.796875 181.925781 108.132812 C 181.316406 108.613281 180.5625 108.753906 179.824219 108.917969 C 179.40625 109.007812 178.96875 109.027344 178.5625 109.15625 C 178.070312 109.308594 177.703125 109.191406 177.46875 108.765625 C 176.863281 107.667969 176.175781 106.597656 175.730469 105.4375 Z M 166.8125 102.203125 C 166.183594 100.359375 165.855469 99.578125 165.433594 97.902344 C 165.160156 96.820312 165.277344 97.070312 164.964844 95.757812 C 164.425781 93.496094 163.84375 91.242188 163.285156 88.988281 C 163.257812 88.875 163.25 88.757812 163.207031 88.445312 C 163.542969 88.769531 163.746094 88.96875 163.949219 89.171875 C 164.96875 90.191406 165.980469 91.214844 167.007812 92.21875 C 167.195312 92.398438 167.488281 92.46875 167.695312 92.632812 C 169.128906 93.777344 170.5625 94.921875 171.976562 96.09375 C 172.859375 96.824219 173.273438 97.859375 173.625 98.910156 C 173.980469 99.980469 174.320312 101.0625 174.613281 102.152344 C 174.730469 102.585938 174.6875 103.0625 174.753906 103.515625 C 174.980469 105.183594 175.617188 106.695312 176.484375 108.125 C 176.667969 108.429688 176.785156 108.777344 176.96875 109.171875 C 176.058594 109.453125 175.203125 109.4375 174.375 109.390625 C 173.101562 109.3125 171.832031 109.117188 170.5625 108.96875 C 170.25 108.933594 170.109375 108.828125 169.953125 108.757812 C 168.5 108.089844 168.289062 106.511719 166.8125 102.203125 Z M 148.796875 68.675781 C 150.863281 67.703125 152.984375 67.5 153.066406 67.757812 C 153.148438 68.003906 151.246094 68.34375 149.835938 69.910156 C 149.648438 70.117188 149.390625 70.425781 148.929688 70.644531 C 148.363281 70.90625 147.734375 70.910156 147.050781 70.800781 C 146.695312 70.746094 146.347656 70.660156 145.976562 70.585938 C 146.582031 70.027344 147.515625 69.28125 148.796875 68.675781 Z M 147.691406 68.730469 C 147.28125 68.980469 146.960938 69.167969 146.652344 69.359375 C 144.820312 70.503906 144.617188 70.492188 142.984375 69.160156 C 142.855469 69.054688 142.769531 68.894531 142.601562 68.683594 C 144.195312 68.339844 146.394531 68.355469 147.691406 68.730469 Z M 148.136719 66.300781 C 149.117188 66.132812 149.976562 65.941406 150.847656 65.851562 C 151.660156 65.769531 152.324219 66.089844 152.742188 66.816406 C 151.90625 67.886719 149.234375 67.398438 148.136719 66.300781 Z M 149.253906 67.453125 C 149.316406 67.488281 149.332031 67.597656 149.375 67.675781 C 148.25 68.167969 145.800781 68.285156 143.0625 67.949219 C 143.667969 67.324219 144.394531 67.238281 145.003906 66.9375 C 145.164062 66.859375 145.371094 66.867188 145.527344 66.78125 C 146.960938 65.980469 148.089844 66.808594 149.253906 67.453125 Z M 167.125 108.957031 C 166.234375 109.457031 165.535156 109.894531 164.800781 110.253906 C 163.242188 111.023438 162.308594 112.382812 161.371094 113.753906 C 160.15625 115.523438 158.894531 117.25 157.230469 118.648438 C 156.46875 119.289062 155.703125 119.796875 154.652344 119.898438 C 153.917969 119.96875 153.210938 120.339844 152.488281 120.566406 C 152.378906 120.601562 152.257812 120.605469 152.050781 120.636719 C 151.871094 119.652344 151.570312 118.703125 151.546875 117.746094 C 151.511719 116.128906 151.628906 114.503906 151.71875 112.886719 C 151.792969 111.515625 151.933594 110.152344 152.023438 108.78125 C 152.101562 107.472656 152.144531 106.164062 152.210938 104.855469 C 152.21875 104.675781 152.257812 104.496094 152.289062 104.261719 C 153.480469 104.050781 154.527344 104.429688 155.550781 104.929688 C 155.796875 105.046875 156.039062 105.195312 156.246094 105.371094 C 158.210938 107.023438 160.648438 107.433594 163.039062 107.96875 C 164.140625 108.214844 165.253906 108.425781 166.359375 108.660156 C 166.558594 108.707031 166.742188 108.804688 167.125 108.957031 Z M 161.679688 106.765625 C 159.933594 106.363281 158.269531 105.832031 156.855469 104.664062 C 155.992188 103.945312 154.902344 103.652344 153.828125 103.40625 C 152.8125 103.171875 152.878906 103.175781 152.722656 102.183594 C 152.539062 101.007812 152.167969 99.871094 151.933594 98.703125 C 150.582031 91.980469 150.207031 91.542969 150.066406 89.148438 C 149.886719 86.171875 150.296875 84.007812 151.050781 80.015625 C 151.386719 78.21875 152.0625 76.59375 152.699219 74.574219 C 152.808594 74.214844 153.027344 73.890625 153.273438 73.402344 C 153.425781 73.773438 153.484375 73.972656 153.578125 74.152344 C 154.066406 75.101562 154.597656 76.035156 155.050781 77.003906 C 156.222656 79.527344 158.058594 81.597656 159.636719 83.847656 C 160.234375 84.699219 160.910156 85.511719 161.378906 86.429688 C 161.976562 87.59375 162.496094 88.816406 162.878906 90.070312 C 163.464844 92 163.878906 93.980469 164.414062 95.929688 C 164.886719 97.667969 165.40625 99.394531 165.941406 101.121094 C 166.019531 101.363281 166.136719 101.59375 166.257812 101.820312 C 166.542969 102.851562 166.996094 104.238281 167.628906 105.734375 C 168.101562 106.855469 168.5625 107.765625 168.910156 108.410156 C 168.445312 108.34375 168.113281 108.363281 167.835938 108.25 C 165.855469 107.445312 163.738281 107.238281 161.679688 106.765625 Z M 186.015625 107.757812 C 187.324219 108.046875 188.6875 108.09375 190.011719 108.316406 C 192.285156 108.695312 194.5 109.332031 196.476562 110.546875 C 198.074219 111.523438 199.609375 112.648438 200.710938 114.175781 C 201.765625 115.632812 202.613281 117.234375 203.535156 118.785156 C 203.957031 119.496094 204.351562 120.222656 204.730469 120.957031 C 204.933594 121.355469 205.074219 121.785156 205.285156 122.289062 C 204.941406 122.289062 204.722656 122.34375 204.542969 122.28125 C 202.503906 121.59375 200.410156 121.117188 198.289062 120.8125 C 196.246094 120.519531 194.179688 120.507812 192.140625 120.816406 C 190.269531 121.097656 188.421875 121.539062 186.554688 121.878906 C 183.890625 122.363281 181.203125 122.519531 178.503906 122.226562 C 177.445312 122.113281 176.371094 122.09375 175.335938 121.882812 C 173.851562 121.578125 172.828125 121.144531 172.359375 120.964844 C 170.957031 120.425781 168.800781 119.90625 165.519531 120.035156 C 165.515625 119.945312 165.511719 119.859375 165.507812 119.769531 C 165.785156 119.664062 166.054688 119.515625 166.34375 119.464844 C 168.019531 119.179688 169.316406 118.175781 170.597656 117.1875 C 171.929688 116.160156 173.160156 114.996094 174.464844 113.933594 C 175.746094 112.886719 177.066406 111.886719 178.371094 110.871094 C 178.488281 110.78125 178.640625 110.71875 178.78125 110.671875 C 180.445312 110.105469 182.023438 109.332031 183.410156 108.277344 C 184.261719 107.632812 185.015625 107.535156 186.015625 107.757812 Z M 206.019531 124.558594 C 206.265625 126.128906 206.511719 127.703125 206.761719 129.273438 C 206.996094 130.753906 207.242188 132.230469 207.480469 133.710938 C 207.496094 133.796875 207.472656 133.890625 207.460938 134.117188 C 206.683594 133.902344 205.988281 133.652344 205.273438 133.519531 C 203.976562 133.28125 202.675781 133.003906 201.367188 132.941406 C 199.152344 132.835938 197.015625 132.3125 194.84375 131.960938 C 193.234375 131.699219 191.9375 130.871094 190.585938 130.140625 C 188.703125 129.117188 186.890625 127.972656 185.027344 126.917969 C 184.445312 126.585938 183.777344 126.417969 183.191406 126.089844 C 181.34375 125.074219 179.519531 124.019531 177.492188 122.867188 C 177.890625 122.792969 178.070312 122.726562 178.25 122.734375 C 179.78125 122.769531 181.308594 122.824219 182.839844 122.859375 C 183.234375 122.867188 183.640625 122.859375 184.027344 122.789062 C 185.019531 122.609375 186.003906 122.378906 186.996094 122.1875 C 188.558594 121.886719 190.113281 121.546875 191.6875 121.324219 C 193.261719 121.097656 194.851562 120.996094 196.445312 121.191406 C 197.171875 121.277344 197.910156 121.332031 198.636719 121.433594 C 199.148438 121.507812 199.664062 121.601562 200.160156 121.746094 C 201.566406 122.15625 202.945312 122.722656 204.378906 122.972656 C 205.410156 123.152344 205.875 123.605469 206.019531 124.558594 Z M 150.726562 228.023438 C 150.59375 228.109375 150.050781 227.285156 149.160156 226.351562 C 147.867188 225 146.648438 223.597656 145.671875 221.984375 C 144.308594 219.738281 142.511719 217.855469 140.550781 216.125 C 140.164062 215.78125 139.722656 215.496094 139.285156 215.210938 C 137.917969 214.316406 136.988281 213.539062 136.941406 213.503906 C 135.136719 212.183594 129.550781 206.683594 127.507812 204.65625 C 127.507812 204.65625 125.484375 202.761719 121.363281 200.230469 C 121.308594 200.195312 121.132812 200.101562 120.914062 199.945312 C 120.59375 199.710938 119.777344 199.050781 119.847656 198.789062 C 120.023438 198.136719 125.863281 199.203125 130.246094 200.328125 C 131.722656 200.703125 133.566406 201.242188 135.441406 202.636719 C 136.078125 203.113281 136.675781 203.660156 137.234375 204.277344 C 138.371094 205.535156 139.292969 206.917969 140.15625 208.378906 C 141.960938 211.429688 143.636719 214.570312 145.824219 217.398438 C 146.5625 218.351562 147.058594 219.511719 147.574219 220.617188 C 148.460938 222.511719 148.421875 222.667969 149.742188 225.578125 C 150.453125 227.148438 150.859375 227.941406 150.726562 228.023438 Z M 146.195312 225.742188 C 144.511719 225.640625 142.832031 225.539062 141.152344 225.433594 C 139.78125 225.34375 138.476562 225.570312 137.191406 226.066406 C 134.300781 227.179688 131.355469 228.109375 128.304688 228.683594 C 128.121094 228.71875 127.941406 228.746094 127.757812 228.753906 C 127.550781 228.765625 127.335938 228.757812 127.070312 228.757812 C 127.113281 228.605469 127.113281 228.5625 127.128906 228.554688 C 129.144531 227.453125 130.492188 225.53125 132.394531 224.289062 C 133.085938 223.832031 133.761719 223.421875 134.621094 223.3125 C 136.078125 223.125 137.507812 222.746094 138.964844 222.617188 C 140.644531 222.46875 142.332031 222.492188 143.78125 223.632812 C 144.664062 224.324219 145.621094 224.925781 146.492188 225.726562 C 146.394531 225.730469 146.292969 225.75 146.195312 225.742188 Z M 125.1875 228.917969 C 125.050781 228.972656 124.886719 228.988281 124.738281 228.996094 C 123.234375 229.046875 121.730469 229.183594 120.238281 229.113281 C 119.339844 229.066406 118.421875 228.804688 117.585938 228.460938 C 115.070312 227.429688 112.824219 225.941406 110.757812 224.183594 C 110.695312 224.125 110.664062 224.03125 110.601562 223.917969 C 110.902344 223.535156 111.363281 223.53125 111.753906 223.511719 C 114.648438 223.351562 117.222656 222.230469 119.699219 220.851562 C 121.304688 219.960938 122.859375 218.980469 124.472656 218.109375 C 125.902344 217.34375 127.449219 217.222656 129.027344 217.574219 C 130.132812 217.820312 131.265625 218 132.332031 218.367188 C 134.730469 219.191406 137.171875 219.914062 139.410156 221.148438 C 139.566406 221.234375 139.699219 221.355469 139.84375 221.460938 C 139.835938 221.527344 139.824219 221.59375 139.8125 221.664062 C 138.941406 221.761719 138.058594 221.820312 137.195312 221.964844 C 136.167969 222.140625 135.085938 222.234375 134.160156 222.652344 C 133.058594 223.148438 132.054688 223.902344 131.085938 224.636719 C 130.382812 225.171875 129.804688 225.863281 129.164062 226.484375 C 128.019531 227.585938 126.625 228.289062 125.1875 228.917969 Z M 110.015625 223.1875 C 109.695312 223.164062 109.324219 223.136719 109.070312 222.964844 C 107.636719 222.007812 106.082031 221.292969 104.46875 220.691406 C 104.070312 220.542969 103.636719 220.496094 103.230469 220.363281 C 102.234375 220.03125 101.328125 219.554688 100.550781 218.820312 C 100.042969 218.34375 99.433594 217.96875 99.136719 217.300781 C 99.054688 217.117188 98.996094 216.917969 98.894531 216.617188 C 99.3125 216.542969 99.664062 216.464844 100.015625 216.417969 C 101.226562 216.257812 102.441406 216.105469 103.65625 215.953125 C 104.667969 215.828125 105.597656 215.460938 106.546875 215.09375 C 107.328125 214.789062 108.210938 214.703125 109.058594 214.605469 C 110.402344 214.449219 111.511719 214.621094 112.503906 214.746094 C 113.335938 214.851562 113.941406 214.972656 114.222656 215.027344 C 115.304688 215.246094 119.492188 216.085938 123.371094 216.460938 C 124.070312 216.527344 125.125 216.617188 126.421875 216.667969 C 124.539062 217.21875 123.144531 217.917969 122.214844 218.453125 C 120.460938 219.464844 120.058594 220.089844 117.933594 221.214844 C 116.75 221.84375 115.902344 222.269531 114.648438 222.605469 C 113.449219 222.925781 112.171875 222.96875 110.929688 223.128906 C 110.628906 223.164062 110.316406 223.214844 110.015625 223.1875 Z M 98.34375 215.390625 C 97.902344 214.160156 97.824219 212.902344 97.75 211.5 C 98.089844 211.535156 98.246094 211.523438 98.382812 211.570312 C 101.621094 212.652344 104.964844 213.316406 108.320312 213.925781 C 108.316406 213.992188 108.316406 214.058594 108.3125 214.128906 C 108.125 214.175781 107.9375 214.261719 107.746094 214.265625 C 106.636719 214.292969 105.730469 214.957031 104.703125 215.222656 C 102.917969 215.679688 101.121094 216.015625 99.273438 216.042969 C 98.769531 216.050781 98.519531 215.882812 98.34375 215.390625 Z M 97.964844 209.933594 C 98.164062 208.78125 98.492188 208.566406 99.570312 208.980469 C 100.9375 209.511719 102.269531 210.148438 103.644531 210.664062 C 105.210938 211.253906 106.542969 212.21875 107.917969 213.128906 C 107.957031 213.160156 107.96875 213.234375 108.0625 213.425781 C 104.539062 212.914062 101.167969 212.214844 97.957031 210.628906 C 97.957031 210.355469 97.929688 210.136719 97.964844 209.933594 Z M 100.597656 206.398438 C 101.167969 206.035156 101.769531 205.707031 102.269531 205.261719 C 103.125 204.5 104.015625 204.308594 105.039062 204.851562 C 105.035156 204.851562 105.035156 204.847656 105.035156 204.847656 C 105.054688 204.808594 106.617188 205.515625 108.152344 206.097656 C 110.167969 206.867188 113.820312 208.0625 114.042969 208.140625 C 114.152344 208.179688 114.148438 208.199219 114.617188 208.46875 C 119.738281 211.410156 120.617188 211.773438 122.101562 212.820312 C 122.976562 213.429688 124.226562 214.390625 125.601562 215.800781 C 125.136719 215.777344 124.789062 215.777344 124.445312 215.746094 C 123.101562 215.628906 121.761719 215.523438 120.425781 215.375 C 119.121094 215.234375 117.816406 215.074219 116.519531 214.875 C 114.976562 214.632812 113.441406 214.359375 111.910156 214.058594 C 110.3125 213.75 108.777344 213.25 107.410156 212.335938 C 106.878906 211.984375 106.394531 211.546875 105.828125 211.261719 C 104.792969 210.738281 103.714844 210.304688 102.652344 209.832031 C 102.402344 209.722656 102.15625 209.597656 101.910156 209.476562 C 100.960938 209 100.011719 208.523438 99.003906 208.023438 C 99.429688 207.347656 99.949219 206.816406 100.597656 206.398438 Z M 106.070312 203.210938 C 107.753906 202.550781 109.453125 201.949219 111.152344 201.335938 C 112.992188 200.667969 114.816406 199.949219 116.6875 199.375 C 117.417969 199.15625 118.226562 198.863281 119.046875 199.417969 C 120.011719 200.070312 120.933594 200.277344 121.25 200.523438 C 126.214844 204.402344 125.183594 203.097656 127.800781 205.554688 C 131.359375 208.886719 130.84375 209.003906 134.0625 211.902344 C 135.492188 213.195312 136.917969 214.503906 138.453125 215.667969 C 139.703125 216.605469 140.941406 217.542969 142.019531 218.683594 C 143.578125 220.335938 144.945312 222.128906 146.046875 224.105469 C 144.332031 223.082031 142.636719 222.019531 140.890625 221.046875 C 138.589844 219.769531 136.203125 218.664062 133.667969 217.914062 C 131.878906 217.382812 130.09375 216.839844 128.296875 216.339844 C 127.410156 216.09375 126.65625 215.648438 126.035156 214.992188 C 124.480469 213.34375 122.625 212.121094 120.632812 211.070312 C 119.660156 210.558594 118.71875 209.980469 117.753906 209.445312 C 115.363281 208.121094 113.539062 207.660156 111.792969 207.046875 C 110.082031 206.441406 107.609375 205.5 104.59375 204.082031 C 104.929688 203.859375 105.402344 203.472656 106.070312 203.210938 Z M 142.015625 118.464844 C 141.417969 118.433594 140.9375 118.65625 140.519531 119.039062 C 139.378906 120.082031 138.363281 121.207031 137.808594 122.691406 C 137.335938 123.949219 136.765625 125.175781 136.316406 126.441406 C 136.070312 127.128906 135.90625 127.863281 135.828125 128.589844 C 135.621094 130.519531 135.171875 132.382812 134.484375 134.203125 C 134.050781 135.347656 133.769531 136.550781 133.3125 137.683594 C 132.425781 139.863281 131.546875 142.058594 130.105469 143.960938 C 129.46875 144.804688 128.804688 145.628906 128.15625 146.464844 C 128.113281 146.441406 128.070312 146.414062 128.027344 146.386719 C 128.234375 145.632812 128.40625 144.863281 128.65625 144.121094 C 129.441406 141.785156 129.648438 139.859375 129.804688 139.035156 C 130.035156 137.816406 130.316406 136.316406 130.535156 134.335938 C 130.648438 133.320312 130.628906 133.109375 130.699219 132.351562 C 130.914062 130.066406 131.191406 127.066406 132.699219 124.207031 C 133.472656 122.746094 133.898438 122.21875 134.734375 120.824219 C 135.15625 120.117188 135.613281 119.421875 135.960938 118.679688 C 136.324219 117.910156 136.984375 117.75 137.683594 117.707031 C 139.054688 117.621094 140.429688 117.570312 141.777344 118.007812 C 142.152344 118.132812 142.585938 118.082031 142.996094 118.191406 C 142.71875 118.523438 142.34375 118.480469 142.015625 118.464844 Z M 124.28125 150.03125 C 123.007812 150.984375 121.519531 151.320312 120.089844 151.824219 C 118.332031 152.4375 116.503906 152.851562 114.726562 153.414062 C 113.625 153.765625 112.5625 154.234375 111.398438 154.683594 C 111.695312 153.980469 111.984375 153.265625 112.304688 152.5625 C 112.484375 152.175781 112.746094 151.828125 112.921875 151.4375 C 113.457031 150.234375 114.023438 149.046875 114.476562 147.8125 C 115.058594 146.199219 115.421875 144.53125 115.574219 142.816406 C 115.6875 141.566406 115.878906 140.324219 116 139.074219 C 116.128906 137.703125 116.191406 136.328125 116.332031 134.957031 C 116.40625 134.238281 116.5625 133.523438 116.726562 132.816406 C 116.980469 131.714844 117.261719 130.617188 117.554688 129.53125 C 117.886719 128.320312 118.214844 127.109375 118.613281 125.921875 C 118.730469 125.574219 119.03125 125.238281 119.332031 125.007812 C 121.320312 123.464844 123.375 122.039062 125.75 121.121094 C 127.089844 120.605469 128.378906 119.96875 129.703125 119.410156 C 130.066406 119.257812 130.457031 119.15625 130.847656 119.070312 C 132.21875 118.761719 133.59375 118.464844 134.96875 118.167969 C 135.054688 118.152344 135.144531 118.167969 135.417969 118.167969 C 133.792969 120.097656 132.882812 121.839844 132.367188 123.003906 C 131.074219 125.921875 130.695312 129.1875 129.9375 135.714844 C 129.816406 136.734375 129.699219 138.269531 129.238281 140.335938 C 128.855469 142.066406 128.363281 143.78125 127.808594 145.464844 C 127.175781 147.378906 125.902344 148.816406 124.28125 150.03125 Z M 109.972656 155.972656 C 109.703125 156.171875 109.441406 156.398438 109.230469 156.660156 C 107.8125 158.429688 105.738281 158.898438 103.578125 159.605469 C 103.640625 159.105469 103.664062 158.726562 103.734375 158.359375 C 104.046875 156.703125 104.507812 155.074219 104.492188 153.371094 C 104.488281 152.882812 104.496094 152.492188 104.492188 151.90625 C 104.476562 150.550781 104.421875 149.539062 104.414062 149.34375 C 104.390625 148.820312 104.304688 146.765625 104.761719 144.789062 C 105.101562 143.332031 106.0625 141.667969 107.980469 138.332031 C 108.425781 137.558594 108.617188 137.136719 109 136.628906 C 110.015625 135.292969 111.199219 134.066406 112.097656 132.65625 C 113.15625 131 114.335938 129.457031 115.679688 128.039062 C 116.160156 127.539062 116.703125 127.09375 117.308594 126.542969 C 117.527344 127.089844 117.257812 127.4375 117.167969 127.808594 C 116.859375 129.117188 116.519531 130.421875 116.214844 131.730469 C 116.125 132.117188 116.070312 132.519531 116.054688 132.914062 C 115.929688 136.289062 115.550781 139.632812 115.101562 142.976562 C 114.859375 144.773438 114.601562 146.558594 113.875 148.238281 C 113.234375 149.730469 112.582031 151.214844 111.933594 152.703125 C 111.75 153.125 111.574219 153.546875 111.386719 153.96875 C 111.046875 154.730469 110.671875 155.460938 109.972656 155.972656 Z M 103.175781 159.242188 C 103.128906 159.839844 102.839844 160.207031 102.339844 160.460938 C 101.0625 161.109375 99.792969 161.78125 98.496094 162.398438 C 97.617188 162.808594 97.234375 162.71875 96.664062 162.097656 C 97.117188 161.367188 97.589844 160.621094 98.039062 159.863281 C 98.355469 159.335938 98.691406 158.816406 98.929688 158.253906 C 99.546875 156.789062 100.207031 155.332031 100.683594 153.816406 C 101.472656 151.304688 102.558594 148.917969 103.605469 146.515625 C 103.660156 146.394531 103.773438 146.300781 103.929688 146.097656 C 103.984375 146.335938 104.03125 146.445312 104.03125 146.554688 C 104.027344 149.21875 104.070312 151.886719 103.992188 154.546875 C 103.960938 155.542969 103.65625 156.535156 103.476562 157.527344 C 103.371094 158.097656 103.222656 158.667969 103.175781 159.242188 Z M 96.140625 161.824219 C 95.847656 161.488281 95.496094 161.238281 95.359375 160.898438 C 94.742188 159.375 94.171875 157.828125 93.609375 156.28125 C 93.21875 155.203125 93.664062 154.25 94.171875 153.335938 C 95.042969 151.769531 96.203125 150.480469 97.628906 149.355469 C 99.03125 148.257812 100.425781 147.175781 101.992188 146.328125 C 102.246094 146.1875 102.527344 146.089844 102.792969 145.96875 C 102.859375 146.039062 102.925781 146.101562 102.988281 146.167969 C 102.679688 146.925781 102.355469 147.675781 102.070312 148.441406 C 101.761719 149.269531 101.457031 150.101562 101.207031 150.949219 C 100.460938 153.472656 99.636719 155.972656 98.5 158.351562 C 97.917969 159.578125 97.183594 160.75 96.140625 161.824219 Z M 93.28125 153.816406 C 92.539062 153.636719 91.667969 149.523438 91.667969 149.523438 C 91.289062 148.210938 91.109375 146.835938 90.914062 145.476562 C 90.769531 144.453125 90.726562 143.414062 90.65625 142.375 C 90.640625 142.140625 90.710938 141.898438 90.730469 141.65625 C 90.808594 140.707031 90.886719 139.761719 90.957031 138.8125 C 90.996094 138.191406 91.195312 137.679688 91.609375 137.164062 C 92.714844 135.800781 93.953125 134.582031 95.292969 133.460938 C 96.230469 132.675781 97.074219 131.757812 98.082031 131.082031 C 99.523438 130.109375 101.074219 129.292969 102.59375 128.4375 C 103.695312 127.816406 104.847656 127.3125 106.121094 127.183594 C 107.464844 127.046875 108.808594 126.929688 110.15625 126.867188 C 111.746094 126.789062 113.339844 126.773438 114.9375 126.742188 C 115.195312 126.738281 115.457031 126.773438 115.832031 126.800781 C 114.988281 127.734375 114.191406 128.53125 113.492188 129.40625 C 112.824219 130.238281 112.210938 131.121094 111.648438 132.027344 C 110.660156 133.621094 109.566406 135.132812 108.34375 136.550781 C 108.136719 136.789062 108.023438 137.113281 107.863281 137.394531 C 107.65625 137.765625 107.449219 138.140625 107.242188 138.511719 C 106.675781 139.515625 106.246094 140.25 105.832031 140.984375 C 104.128906 144.003906 104.257812 144.644531 103.230469 145.289062 C 102.691406 145.625 102.71875 145.410156 101.566406 145.9375 C 100.207031 146.5625 99.304688 147.28125 98.652344 147.761719 C 97.226562 148.808594 96.375 149.914062 95.730469 150.621094 C 94.941406 151.492188 94.183594 152.355469 93.769531 153.476562 C 93.757812 153.515625 93.730469 153.707031 93.589844 153.792969 C 93.589844 153.792969 93.46875 153.863281 93.28125 153.816406 Z M 91.332031 135.949219 C 91.867188 133.53125 92.214844 131.066406 93.253906 128.785156 C 93.597656 128.035156 93.917969 127.269531 94.222656 126.503906 C 94.636719 125.460938 95.378906 124.640625 96.027344 123.75 C 97.316406 121.980469 99.195312 120.992188 100.984375 119.875 C 101.851562 119.332031 102.785156 118.988281 103.75 118.671875 C 105.484375 118.097656 106.070312 117.589844 106.320312 117.460938 C 107.734375 116.726562 108.234375 116.328125 108.898438 115.964844 C 109.605469 115.574219 110.496094 115.070312 117.398438 114.820312 C 118.503906 114.78125 119.605469 114.699219 120.707031 114.710938 C 122.324219 114.738281 123.921875 114.851562 125.488281 115.429688 C 127.230469 116.070312 129.039062 116.542969 130.839844 117.039062 C 131.660156 117.265625 132.519531 117.367188 133.359375 117.527344 C 133.460938 117.546875 133.5625 117.589844 133.667969 117.757812 C 133.089844 117.914062 132.519531 118.101562 131.929688 118.222656 C 130.824219 118.449219 129.71875 118.644531 128.667969 119.113281 C 127.105469 119.816406 125.476562 120.371094 123.921875 121.097656 C 123.015625 121.519531 122.191406 122.132812 121.351562 122.695312 C 120.488281 123.269531 119.652344 123.886719 118.808594 124.488281 C 118.6875 124.574219 118.566406 124.675781 118.46875 124.792969 C 117.554688 125.90625 116.320312 126.265625 114.949219 126.269531 C 113.054688 126.28125 111.148438 126.175781 109.261719 126.292969 C 107.097656 126.433594 104.925781 126.679688 102.9375 127.679688 C 100.605469 128.855469 98.382812 130.191406 96.414062 131.925781 C 96.210938 132.105469 95.980469 132.261719 95.761719 132.421875 C 94.253906 133.53125 92.847656 134.753906 91.722656 136.265625 C 91.65625 136.351562 91.546875 136.410156 91.371094 136.554688 C 91.351562 136.28125 91.296875 136.105469 91.332031 135.949219 Z M 111.214844 113.90625 C 111.777344 113.535156 112.398438 113.238281 112.902344 112.800781 C 113.90625 111.933594 115.078125 111.460938 116.328125 111.109375 C 116.914062 110.941406 117.507812 110.769531 118.066406 110.53125 C 120.53125 109.480469 123.085938 109.476562 125.664062 109.847656 C 127.269531 110.074219 128.863281 110.394531 130.453125 110.730469 C 132.050781 111.070312 133.433594 111.824219 134.53125 113.0625 C 135.058594 113.65625 135.613281 114.230469 136.144531 114.828125 C 136.882812 115.652344 137.765625 116.195312 138.882812 116.359375 C 139.171875 116.40625 139.433594 116.636719 139.707031 116.78125 C 139.683594 116.855469 139.660156 116.929688 139.636719 117.003906 C 138.4375 116.964844 137.234375 116.929688 136.035156 116.878906 C 135.089844 116.835938 134.140625 116.777344 133.195312 116.703125 C 132.957031 116.683594 132.726562 116.585938 132.496094 116.523438 C 132.023438 116.398438 131.554688 116.257812 131.078125 116.152344 C 129.945312 115.902344 128.792969 115.726562 127.675781 115.421875 C 125.0625 114.699219 122.433594 114.195312 119.699219 114.316406 C 119.464844 114.328125 118.929688 114.339844 117.855469 114.382812 C 115.058594 114.496094 113.808594 114.609375 111.539062 114.632812 C 111.101562 114.640625 110.75 114.640625 110.566406 114.640625 C 110.539062 114.566406 110.515625 114.492188 110.488281 114.421875 C 110.730469 114.246094 110.96875 114.066406 111.214844 113.90625 Z M 209.855469 138.277344 C 209.789062 137.578125 209.679688 136.855469 209.410156 136.21875 C 208.371094 133.75 207.992188 131.144531 207.78125 128.519531 C 207.53125 125.472656 206.65625 122.644531 205.3125 119.917969 C 204.25 117.769531 203.050781 115.703125 201.648438 113.765625 C 201.171875 113.097656 200.644531 112.441406 200.03125 111.890625 C 198.285156 110.324219 196.292969 109.152344 194.074219 108.351562 C 192.011719 107.609375 189.855469 107.332031 187.722656 106.9375 C 186.949219 106.796875 186.160156 106.753906 185.261719 106.65625 C 185.429688 106.132812 185.625 105.765625 185.65625 105.386719 C 185.835938 102.957031 187.167969 100.867188 187.683594 98.53125 C 187.890625 97.585938 188.371094 96.703125 188.679688 95.773438 C 188.820312 95.347656 188.890625 94.878906 188.898438 94.425781 C 188.929688 92.804688 188.960938 91.179688 188.917969 89.558594 C 188.882812 88.214844 188.761719 86.871094 188.636719 85.53125 C 188.589844 85.050781 188.382812 84.585938 188.308594 84.105469 C 188.09375 82.757812 187.570312 81.515625 186.984375 80.308594 C 186.082031 78.429688 185.121094 76.578125 184.1875 74.714844 C 183.53125 73.40625 183.027344 72.019531 182.121094 70.835938 C 181.445312 69.957031 180.648438 69.277344 179.597656 68.929688 C 177.558594 68.261719 175.515625 67.613281 173.472656 66.957031 C 172.773438 66.730469 172.035156 66.585938 171.378906 66.269531 C 170.035156 65.621094 168.660156 65.410156 167.1875 65.621094 C 166.851562 65.667969 166.59375 65.683594 166.503906 65.695312 C 165.304688 65.863281 161.277344 66.351562 161.25 66.179688 C 161.226562 66.070312 163.003906 65.636719 164.402344 65.355469 C 166.664062 64.902344 167.058594 65.027344 168.382812 64.574219 C 169.660156 64.136719 170.574219 63.605469 171.015625 63.300781 C 172.078125 62.578125 173.039062 61.710938 174 60.855469 C 174.546875 60.371094 175.109375 59.851562 175.496094 59.242188 C 177.445312 56.15625 179.75 53.324219 181.886719 50.375 C 182.976562 48.867188 183.820312 47.25 184.519531 45.546875 C 184.695312 45.121094 184.886719 44.695312 184.972656 44.246094 C 185.476562 41.71875 185.757812 39.160156 185.722656 36.582031 C 185.710938 35.757812 185.566406 34.929688 185.382812 34.128906 C 185.132812 33.03125 184.128906 32.480469 183.140625 32.871094 C 182.753906 33.027344 182.304688 33.023438 181.878906 33.074219 C 180.96875 33.179688 180.128906 32.828125 179.273438 32.609375 C 178.207031 32.339844 177.171875 31.925781 176.097656 31.714844 C 174.804688 31.460938 173.488281 31.351562 172.179688 31.195312 C 171.664062 31.132812 171.128906 31.164062 170.625 31.054688 C 168.894531 30.660156 167.164062 30.636719 165.417969 30.890625 C 163.210938 31.210938 161.339844 32.117188 159.914062 33.894531 C 158.628906 35.492188 157.273438 37.035156 155.949219 38.597656 C 155.847656 38.714844 155.742188 38.828125 155.628906 38.933594 C 154.796875 39.695312 153.902344 40.40625 153.140625 41.234375 C 152.105469 42.355469 151.027344 43.484375 150.210938 44.765625 C 148.417969 47.578125 147.648438 50.714844 147.839844 54.050781 C 147.894531 54.996094 148.109375 55.929688 148.265625 56.863281 C 148.367188 57.476562 148.496094 58.078125 148.621094 58.710938 C 147.796875 58.289062 147.089844 57.875 146.34375 57.554688 C 145.246094 57.082031 144.132812 56.660156 143.007812 56.246094 C 141.652344 55.753906 140.285156 55.304688 138.808594 55.335938 C 138.230469 55.347656 137.644531 55.308594 137.066406 55.25 C 134.664062 55 132.300781 55.160156 130.003906 55.953125 C 127.578125 56.792969 125.347656 57.976562 123.429688 59.703125 C 122.273438 60.746094 121.144531 61.828125 119.988281 62.875 C 118.71875 64.019531 117.402344 65.105469 116.339844 66.464844 C 115.300781 67.800781 114.667969 69.347656 114.3125 70.945312 C 114.082031 71.984375 114.222656 73.132812 114.519531 74.21875 C 114.773438 75.140625 115.292969 75.753906 116.203125 75.980469 C 117.480469 76.296875 118.769531 76.539062 120.046875 76.84375 C 120.996094 77.074219 121.996094 77.222656 122.863281 77.636719 C 124.648438 78.5 126.433594 79.132812 128.460938 79.25 C 130.558594 79.371094 132.621094 79.21875 134.6875 78.992188 C 135.785156 78.871094 136.824219 78.53125 137.835938 78.039062 C 138.847656 77.542969 139.949219 77.234375 140.988281 76.785156 C 141.789062 76.441406 142.171875 76.199219 143.109375 75.707031 C 144.03125 75.222656 145.359375 74.546875 147.019531 73.75 C 146.933594 74.066406 146.917969 74.183594 146.871094 74.285156 C 146.714844 74.617188 146.554688 74.949219 146.378906 75.273438 C 145.320312 77.199219 144.574219 79.269531 144.234375 81.410156 C 143.910156 83.429688 143.285156 85.449219 143.398438 88.238281 C 143.523438 91.300781 144.300781 93.617188 144.726562 94.855469 C 145.167969 96.136719 145.460938 97.023438 146.128906 98.132812 C 147.089844 99.734375 148.019531 101.371094 149.421875 102.652344 C 149.796875 102.996094 149.894531 103.417969 149.835938 103.902344 C 149.738281 104.722656 149.609375 105.542969 149.5625 106.367188 C 149.46875 107.988281 149.316406 109.617188 149.382812 111.230469 C 149.480469 113.558594 149.398438 115.878906 149.332031 118.199219 C 149.320312 118.628906 149.320312 119.058594 149.28125 119.484375 C 149.265625 119.671875 149.164062 119.851562 149.085938 120.082031 C 148.753906 119.871094 148.507812 119.6875 148.238281 119.546875 C 147.539062 119.175781 146.835938 118.800781 146.117188 118.472656 C 145.230469 118.0625 144.316406 117.714844 143.429688 117.308594 C 142.59375 116.933594 141.796875 116.472656 140.945312 116.140625 C 140.015625 115.777344 139.039062 115.527344 138.09375 115.207031 C 137.902344 115.140625 137.730469 114.984375 137.578125 114.835938 C 136.699219 113.984375 135.769531 113.171875 134.96875 112.25 C 133.851562 110.964844 132.425781 110.285156 130.828125 109.875 C 128.570312 109.292969 126.28125 108.886719 123.949219 108.785156 C 121.226562 108.664062 119.175781 109.316406 118.433594 109.519531 C 117.933594 109.65625 115.671875 110.296875 113.09375 111.816406 C 111.484375 112.769531 109.828125 114.015625 108.574219 114.957031 C 107.398438 115.84375 107.269531 116.046875 106.578125 116.421875 C 104.898438 117.324219 104.019531 117.511719 102.359375 118.199219 C 102.214844 118.257812 100.171875 119.121094 98.296875 120.519531 C 96.121094 122.140625 94.832031 123.894531 94.226562 124.960938 C 92.082031 128.71875 90.980469 132.832031 90.417969 137.074219 C 90.09375 139.527344 90.03125 142.023438 90.003906 144.5 C 89.980469 146.304688 90.210938 148.101562 90.886719 149.820312 C 91.375 151.070312 91.789062 152.355469 92.167969 153.640625 C 92.394531 154.394531 92.488281 155.191406 92.640625 155.96875 C 92.734375 156.417969 92.785156 156.878906 92.921875 157.3125 C 93.246094 158.335938 93.632812 159.335938 93.953125 160.355469 C 94.378906 161.730469 95.230469 162.6875 96.527344 163.308594 C 97.246094 163.652344 97.945312 163.710938 98.660156 163.441406 C 99.34375 163.179688 100.015625 162.878906 100.667969 162.542969 C 102.84375 161.429688 104.894531 160.070312 107.277344 159.378906 C 107.96875 159.175781 108.617188 158.800781 109.140625 158.242188 C 110.039062 157.277344 111.011719 156.40625 112.121094 155.664062 C 113.1875 154.957031 114.332031 154.492188 115.566406 154.214844 C 116.136719 154.085938 116.710938 153.988281 117.261719 153.8125 C 118.894531 153.277344 120.496094 152.660156 122.140625 152.175781 C 124 151.625 125.441406 150.457031 126.832031 149.203125 C 127.808594 148.320312 128.664062 147.328125 129.519531 146.320312 C 131.355469 144.160156 132.609375 141.699219 133.625 139.09375 C 134.246094 137.5 134.832031 135.886719 135.351562 134.257812 C 135.769531 132.949219 136.15625 131.617188 136.382812 130.265625 C 136.636719 128.753906 136.765625 127.230469 137.449219 125.820312 C 137.835938 125.027344 138.246094 124.230469 138.535156 123.398438 C 138.984375 122.109375 139.835938 121.128906 140.738281 120.164062 C 141.1875 119.683594 141.710938 119.449219 142.347656 119.386719 C 143.015625 119.320312 143.640625 119.421875 144.199219 119.792969 C 145.582031 120.707031 145.777344 120.996094 147.328125 121.886719 C 148.378906 122.488281 148.664062 122.441406 149.015625 122.921875 C 149.488281 123.570312 149.4375 124.289062 149.390625 125.324219 C 149.214844 129.214844 149.507812 128.960938 149.203125 130.707031 C 148.828125 132.859375 148.316406 133.644531 148.089844 133.96875 C 147.753906 134.445312 147.335938 134.878906 146.824219 135.265625 C 145.800781 136.042969 144.777344 136.824219 143.730469 137.574219 C 142.835938 138.21875 141.886719 138.792969 141.003906 139.449219 C 138.839844 141.054688 136.683594 142.675781 134.554688 144.324219 C 133.417969 145.207031 132.320312 146.144531 131.5625 147.40625 C 130.511719 149.152344 129.738281 151.027344 129.25 152.996094 C 128.402344 156.394531 128.585938 159.796875 129.414062 163.183594 C 129.882812 165.085938 130.25 167.015625 130.316406 168.980469 C 130.355469 170.226562 130.578125 171.429688 131.042969 172.566406 C 131.753906 174.292969 132.523438 175.996094 133.324219 177.6875 C 134.332031 179.8125 135.96875 181.429688 137.835938 182.796875 C 139.035156 183.679688 140.234375 185.054688 142.160156 186.464844 C 142.160156 186.464844 148.585938 191.164062 149.363281 192.9375 C 149.503906 193.253906 149.5625 193.578125 149.5625 193.578125 C 149.542969 194.125 149.375 194.679688 149.414062 195.222656 C 149.550781 196.988281 149.65625 198.769531 149.941406 200.515625 C 150.425781 203.449219 151.027344 206.359375 151.601562 209.277344 C 152.035156 211.472656 152.523438 213.65625 152.957031 215.847656 C 153.3125 217.652344 153.570312 219.476562 154.199219 221.21875 C 154.394531 221.761719 154.554688 222.332031 154.640625 222.90625 C 155.003906 225.324219 155.339844 227.75 155.660156 230.175781 C 155.726562 230.664062 155.785156 231.175781 155.65625 231.78125 C 155.445312 231.597656 155.300781 231.523438 155.226562 231.40625 C 154.46875 230.175781 153.558594 229.078125 152.546875 228.042969 C 151.792969 227.273438 151.308594 226.320312 150.878906 225.316406 C 150.050781 223.375 149.152344 221.460938 148.210938 219.570312 C 147.644531 218.417969 146.988281 217.308594 146.300781 216.222656 C 145.644531 215.1875 144.855469 214.238281 144.207031 213.199219 C 142.832031 210.992188 141.515625 208.746094 140.164062 206.519531 C 139.878906 206.050781 139.578125 205.585938 139.234375 205.15625 C 138.0625 203.683594 136.667969 202.453125 135.164062 201.324219 C 134.085938 200.515625 132.957031 199.886719 131.652344 199.582031 C 130.671875 199.355469 129.683594 199.128906 128.6875 198.960938 C 126.722656 198.628906 124.75 198.34375 122.785156 198.027344 C 120.382812 197.644531 118.027344 197.761719 115.71875 198.59375 C 114.710938 198.953125 113.675781 199.234375 112.664062 199.597656 C 110.824219 200.265625 109 200.96875 107.164062 201.65625 C 106.621094 201.859375 106.027344 201.980469 105.542969 202.277344 C 104.03125 203.199219 102.386719 203.882812 100.933594 204.921875 C 100.109375 205.511719 99.335938 206.101562 98.609375 206.816406 C 97.238281 208.167969 96.871094 209.816406 96.824219 211.589844 C 96.765625 213.863281 97.304688 215.996094 98.394531 218.027344 C 99.378906 219.863281 100.851562 220.972656 102.769531 221.550781 C 104.5625 222.089844 106.28125 222.742188 107.847656 223.800781 C 109.117188 224.660156 110.410156 225.457031 111.476562 226.578125 C 111.738281 226.859375 112.136719 227.011719 112.472656 227.214844 C 112.472656 227.214844 113.160156 227.636719 113.808594 228.003906 C 115.382812 228.898438 116.523438 229.546875 118.0625 230 C 118.941406 230.261719 119.628906 230.417969 120.011719 230.417969 C 121.84375 230.414062 123.675781 230.308594 125.503906 230.226562 C 127.5 230.136719 129.488281 229.890625 131.402344 229.363281 C 133.609375 228.75 135.761719 227.933594 137.929688 227.183594 C 139.042969 226.796875 140.167969 226.5625 141.355469 226.675781 C 142.484375 226.78125 143.617188 226.824219 144.742188 226.941406 C 145.683594 227.039062 146.652344 227.09375 147.542969 227.367188 C 148.28125 227.589844 149.027344 228 149.589844 228.519531 C 150.851562 229.683594 151.988281 230.976562 153.195312 232.1875 C 154.925781 233.921875 155.863281 236.09375 156.429688 238.394531 C 156.894531 240.289062 157.113281 242.246094 157.371094 244.1875 C 157.664062 246.4375 158.019531 248.671875 158.574219 250.875 C 158.980469 252.480469 159.273438 254.109375 159.636719 255.726562 C 159.953125 257.128906 160.285156 258.53125 160.617188 259.929688 C 161.0625 261.804688 161.53125 263.675781 161.957031 265.558594 C 162.546875 268.144531 162.335938 269.257812 162.75 269.332031 C 163.195312 269.40625 163.777344 268.085938 164.9375 265.4375 C 165.019531 265.257812 165.179688 264.890625 165.222656 264.386719 C 165.265625 263.925781 165.203125 263.46875 165.054688 263.019531 C 164.617188 261.707031 164.347656 260.359375 164.109375 259 C 163.8125 257.34375 163.476562 255.691406 163.140625 254.042969 C 163.140625 254.042969 162.710938 251.832031 162.160156 249.285156 C 160.90625 243.476562 160.5 243.574219 160.046875 240.832031 C 160.046875 240.832031 158.714844 232.753906 161.804688 224.464844 C 161.855469 224.332031 161.882812 224.273438 162.070312 223.777344 C 162.492188 222.675781 164.160156 218.257812 165.21875 217.648438 C 165.390625 217.546875 165.574219 217.46875 165.574219 217.46875 C 165.894531 217.363281 166.222656 217.277344 166.550781 217.214844 C 168.765625 216.804688 170.984375 216.617188 173.226562 217 C 173.675781 217.082031 174.144531 217.074219 174.601562 217.109375 C 176.523438 217.265625 178.453125 217.179688 180.367188 217.464844 C 182.464844 217.773438 184.53125 217.585938 186.511719 216.75 C 187.042969 216.523438 187.59375 216.328125 188.140625 216.128906 C 189.210938 215.734375 190.210938 215.226562 191.140625 214.550781 C 191.78125 214.082031 192.460938 213.65625 193.164062 213.289062 C 194.671875 212.503906 195.746094 211.242188 196.832031 210.003906 C 197.492188 209.246094 198.0625 208.410156 198.703125 207.628906 C 199.046875 207.203125 199.476562 206.839844 199.820312 206.410156 C 201.054688 204.863281 201.933594 203.113281 202.644531 201.28125 C 203.273438 199.65625 203.769531 197.976562 204.367188 196.335938 C 204.777344 195.210938 204.648438 194.179688 203.980469 193.203125 C 203.410156 192.363281 202.707031 191.664062 201.882812 191.050781 C 200.769531 190.226562 199.652344 189.429688 198.332031 188.996094 C 196.820312 188.5 195.292969 188.050781 193.773438 187.582031 C 193.273438 187.433594 192.78125 187.238281 192.269531 187.167969 C 191.210938 187.023438 190.140625 186.898438 189.074219 186.855469 C 186.417969 186.742188 183.777344 186.546875 181.140625 187.3125 C 179.371094 187.828125 177.734375 188.476562 176.304688 189.644531 C 175.664062 190.164062 174.648438 190.960938 172.984375 193.097656 C 171.4375 195.089844 169.109375 198.136719 167.476562 202.707031 C 166.328125 205.933594 167.09375 205.507812 165.902344 209.3125 C 164.238281 214.617188 162.925781 214.851562 161.023438 220.34375 C 160.71875 221.222656 159.957031 223.519531 158.550781 226.46875 C 158.246094 227.113281 157.984375 227.628906 157.820312 227.945312 C 157.738281 227.386719 157.667969 226.96875 157.617188 226.554688 C 157.433594 224.976562 157.277344 223.394531 157.074219 221.816406 C 156.695312 218.855469 155.625 216.054688 155.054688 213.140625 C 154.742188 211.550781 154.40625 209.960938 154.089844 208.371094 C 153.730469 206.542969 153.449219 204.691406 153.015625 202.878906 C 152.519531 200.816406 152.097656 198.757812 152.109375 196.628906 C 152.113281 195.78125 152.167969 194.933594 152.203125 193.976562 C 152.601562 194.070312 152.863281 194.105469 153.113281 194.191406 C 154.394531 194.613281 155.679688 195.023438 156.945312 195.488281 C 158.65625 196.117188 160.433594 195.1875 161.132812 193.746094 C 161.914062 192.148438 162.664062 190.539062 163.429688 188.9375 C 163.792969 188.164062 164.164062 187.394531 164.53125 186.617188 C 165.0625 185.480469 165.679688 184.402344 166.429688 183.382812 C 167.625 181.761719 168.734375 180.070312 169.847656 178.390625 C 170.132812 177.960938 170.257812 177.429688 170.53125 176.988281 C 171.410156 175.566406 171.917969 174.027344 172.3125 172.398438 C 172.765625 170.53125 172.707031 168.679688 172.601562 166.824219 C 172.480469 164.730469 172.484375 162.65625 172.976562 160.609375 C 173.253906 159.445312 173.382812 158.277344 173.464844 157.078125 C 173.609375 154.941406 173.230469 152.933594 172.546875 150.945312 C 172.371094 150.425781 172.285156 149.867188 172.046875 149.375 C 171.238281 147.726562 170.378906 146.101562 169.074219 144.769531 C 168.691406 144.378906 168.316406 143.949219 167.859375 143.65625 C 166.550781 142.8125 165.195312 142.035156 163.863281 141.222656 C 162.476562 140.378906 161.039062 139.597656 159.71875 138.660156 C 157.226562 136.886719 154.800781 135.015625 152.335938 133.203125 C 152.03125 132.976562 151.886719 132.746094 151.917969 132.359375 C 151.945312 131.964844 151.886719 131.566406 151.871094 131.167969 C 151.839844 130.492188 151.8125 129.839844 151.757812 128.316406 C 151.652344 125.382812 151.601562 123.914062 151.941406 123.449219 C 152.410156 122.804688 153.445312 122.460938 155.511719 121.769531 C 155.890625 121.640625 156.316406 121.464844 156.839844 121.566406 C 157.523438 121.699219 158.175781 121.972656 158.71875 122.476562 C 159.539062 123.242188 160.21875 124.105469 160.597656 125.167969 C 161.117188 126.636719 161.601562 128.125 162.105469 129.601562 C 162.203125 129.886719 162.3125 130.175781 162.433594 130.453125 C 162.691406 131.042969 162.953125 131.628906 163.226562 132.210938 C 163.519531 132.851562 163.765625 133.519531 164.140625 134.109375 C 164.730469 135.039062 165.390625 135.921875 166.234375 136.648438 C 166.910156 137.226562 167.570312 137.824219 168.175781 138.472656 C 170.164062 140.59375 172.707031 141.703125 175.445312 142.359375 C 177.644531 142.886719 179.652344 143.832031 181.683594 144.761719 C 183.046875 145.390625 184.367188 146.136719 185.78125 146.621094 C 188.820312 147.667969 191.914062 147.675781 195.007812 146.777344 C 196.476562 146.351562 197.957031 145.972656 199.429688 145.574219 C 199.546875 145.539062 199.667969 145.53125 199.789062 145.515625 C 201.5625 145.296875 203.285156 144.878906 204.964844 144.277344 C 206.242188 143.820312 207.410156 143.167969 208.386719 142.183594 C 209.46875 141.09375 210 139.800781 209.855469 138.277344 " fill-opacity="1" fill-rule="nonzero"/></g></svg>