<svg xmlns="http://www.w3.org/2000/svg" xmlns:xlink="http://www.w3.org/1999/xlink" width="400" zoomAndPan="magnify" viewBox="0 0 300 299.999988" height="400" preserveAspectRatio="xMidYMid meet" version="1.0"><path fill="currentColor" d="M 203.03125 144.558594 L 202.523438 144.140625 C 184.296875 129.128906 176.019531 116.5 177.914062 106.601562 C 179.644531 97.570312 189.234375 94.398438 189.640625 94.265625 L 189.90625 94.179688 L 190.113281 94.363281 C 202.964844 105.679688 205.867188 118.554688 206.035156 127.367188 C 206.21875 136.90625 203.40625 143.667969 203.289062 143.953125 Z M 189.679688 95.292969 C 188.152344 95.863281 180.339844 99.132812 178.875 106.792969 C 177.101562 116.082031 185.3125 128.578125 202.621094 142.945312 C 203.304688 141.058594 205.210938 135.066406 205.054688 127.34375 C 204.882812 118.792969 202.066406 106.3125 189.679688 95.292969 Z M 189.679688 95.292969 " fill-opacity="1" fill-rule="nonzero"/><path fill="currentColor" d="M 220.683594 116.4375 L 220.269531 116.203125 C 204.058594 106.949219 196.21875 98.664062 196.972656 91.574219 C 197.746094 84.257812 207.332031 81.136719 207.738281 81.007812 L 207.976562 80.933594 L 208.175781 81.082031 C 220.289062 90 223.125 99.011719 223.367188 104.996094 C 223.632812 111.515625 221.039062 115.847656 220.929688 116.03125 Z M 207.800781 82.023438 C 206.347656 82.546875 198.589844 85.601562 197.949219 91.679688 C 197.257812 98.191406 204.992188 106.285156 220.320312 115.101562 C 220.941406 113.878906 222.609375 110.09375 222.386719 104.984375 C 222.03125 96.785156 216.988281 88.851562 207.800781 82.023438 Z M 207.800781 82.023438 " fill-opacity="1" fill-rule="nonzero"/><path fill="currentColor" d="M 236.84375 89.574219 L 236.460938 89.539062 C 224.96875 88.558594 218.398438 85.722656 216.941406 81.105469 C 214.921875 74.722656 223.410156 67.515625 223.773438 67.210938 L 223.957031 67.058594 L 224.195312 67.109375 C 229.785156 68.332031 233.734375 70.914062 235.929688 74.792969 C 239.585938 81.25 237.078125 88.886719 236.96875 89.207031 Z M 224.222656 68.121094 C 223.015625 69.195312 216.207031 75.53125 217.875 80.8125 C 219.1875 84.960938 225.335938 87.554688 236.148438 88.527344 C 236.589844 86.945312 238.078125 80.570312 235.074219 75.269531 C 233.050781 71.707031 229.402344 69.300781 224.222656 68.121094 Z M 224.222656 68.121094 " fill-opacity="1" fill-rule="nonzero"/><path fill="currentColor" d="M 217.449219 62.617188 C 217.292969 62.617188 217.136719 62.609375 216.976562 62.597656 C 212.679688 62.246094 208.679688 57.117188 205.09375 47.347656 L 204.992188 47.070312 L 205.1875 46.851562 C 205.3125 46.714844 208.253906 43.507812 212.640625 44.136719 C 217.070312 44.773438 221.214844 49.054688 224.953125 56.855469 L 225.0625 57.085938 L 224.9375 57.308594 C 224.808594 57.535156 221.878906 62.617188 217.449219 62.617188 Z M 206.121094 47.300781 C 209.492188 56.359375 213.265625 61.308594 217.050781 61.621094 C 220.636719 61.910156 223.339844 58.011719 223.953125 57.039062 C 220.394531 49.703125 216.542969 45.691406 212.5 45.109375 C 209.238281 44.636719 206.820312 46.640625 206.121094 47.300781 Z M 206.121094 47.300781 " fill-opacity="1" fill-rule="nonzero"/><path fill="currentColor" d="M 176.871094 89.765625 C 172.921875 89.765625 168.871094 88.351562 165.621094 84.089844 C 156.136719 71.652344 158.140625 58.386719 158.164062 58.253906 L 158.195312 58.066406 L 158.339844 57.949219 C 158.457031 57.855469 161.242188 55.683594 166.167969 56.65625 C 171.871094 57.777344 181.03125 63.355469 192.277344 83.554688 L 192.484375 83.925781 L 192.144531 84.183594 C 192.035156 84.265625 184.648438 89.765625 176.871094 89.765625 Z M 159.105469 58.609375 C 158.898438 60.292969 157.8125 72.230469 166.402344 83.492188 C 174.726562 94.40625 188.824219 85.308594 191.207031 83.648438 C 180.265625 64.132812 171.480469 58.71875 166.027344 57.625 C 162.160156 56.851562 159.71875 58.207031 159.105469 58.609375 Z M 159.105469 58.609375 " fill-opacity="1" fill-rule="nonzero"/><path fill="currentColor" d="M 198.25 76.03125 C 196.917969 76.03125 195.527344 75.832031 194.132812 75.335938 C 188.511719 73.347656 184.4375 67.183594 182.023438 57.011719 L 181.941406 56.664062 L 182.242188 56.480469 C 182.460938 56.347656 187.671875 53.210938 194.167969 55.296875 C 200.082031 57.195312 205.003906 62.742188 208.800781 71.78125 L 208.949219 72.128906 L 208.648438 72.359375 C 208.414062 72.542969 203.8125 76.03125 198.25 76.03125 Z M 183.0625 57.148438 C 185.40625 66.753906 189.238281 72.5625 194.453125 74.410156 C 200.363281 76.503906 206.34375 72.765625 207.746094 71.800781 C 204.089844 63.261719 199.425781 58.023438 193.882812 56.238281 C 188.679688 54.558594 184.246094 56.535156 183.0625 57.148438 Z M 183.0625 57.148438 " fill-opacity="1" fill-rule="nonzero"/><path fill="currentColor" d="M 182.757812 177.796875 L 182.226562 177.433594 C 182.058594 177.324219 165.4375 165.910156 154.546875 141.867188 C 151.390625 134.902344 151.0625 128.535156 153.574219 122.949219 C 158.195312 112.65625 170.660156 108.683594 171.1875 108.519531 L 171.515625 108.417969 L 171.722656 108.691406 C 183.984375 124.828125 186.390625 142.589844 186.246094 154.648438 C 186.09375 167.707031 182.996094 177.089844 182.964844 177.183594 Z M 171.152344 109.566406 C 169.15625 110.265625 158.5 114.367188 154.464844 123.355469 C 152.078125 128.675781 152.40625 134.765625 155.441406 141.460938 C 165.101562 162.792969 179.292969 174.058594 182.230469 176.230469 C 182.914062 173.921875 185.140625 165.578125 185.265625 154.601562 C 185.402344 142.777344 183.054688 125.394531 171.152344 109.566406 Z M 171.152344 109.566406 " fill-opacity="1" fill-rule="nonzero"/><path fill="currentColor" d="M 153.328125 108.589844 C 152.097656 108.589844 150.84375 108.453125 149.574219 108.148438 C 140.609375 105.996094 133.644531 96.003906 128.875 78.449219 L 128.8125 78.21875 L 128.957031 78.027344 C 129.074219 77.867188 131.945312 74.105469 138.160156 73.988281 C 144.710938 73.859375 155.964844 77.984375 172.335938 98.316406 L 172.597656 98.644531 L 172.316406 98.957031 C 171.917969 99.394531 163.445312 108.589844 153.328125 108.589844 Z M 129.890625 78.4375 C 134.554688 95.464844 141.253906 105.140625 149.804688 107.195312 C 159.90625 109.625 169.527344 100.410156 171.300781 98.597656 C 155.347656 78.890625 144.507812 74.871094 138.210938 74.96875 C 133.226562 75.050781 130.527344 77.71875 129.890625 78.4375 Z M 129.890625 78.4375 " fill-opacity="1" fill-rule="nonzero"/><path fill="currentColor" d="M 134.308594 133.378906 C 133.199219 133.378906 132.09375 133.273438 130.992188 133.0625 C 114.820312 129.9375 105.890625 105.238281 105.519531 104.191406 L 105.417969 103.90625 L 105.625 103.6875 C 105.792969 103.511719 109.804688 99.425781 118.351562 99.046875 C 126.148438 98.703125 139.375 101.5625 158.125 117.132812 L 157.496094 117.886719 C 139.042969 102.5625 126.097656 99.714844 118.488281 100.023438 C 111.378906 100.3125 107.484375 103.339844 106.554688 104.160156 C 107.636719 107.019531 116.496094 129.261719 131.179688 132.097656 C 138.804688 133.570312 146.824219 129.601562 155.023438 120.300781 L 155.757812 120.949219 C 148.476562 129.210938 141.277344 133.378906 134.308594 133.378906 Z M 134.308594 133.378906 " fill-opacity="1" fill-rule="nonzero"/><path fill="currentColor" d="M 186.136719 197.671875 L 185.507812 197.292969 C 185.195312 197.105469 177.621094 192.457031 158.589844 173.671875 C 148.617188 163.832031 144.058594 154.820312 145.039062 146.886719 C 146.035156 138.867188 152.359375 135.054688 152.628906 134.898438 L 153.128906 135.742188 C 153.066406 135.78125 146.9375 139.484375 146.011719 147.023438 C 145.078125 154.632812 149.539062 163.363281 159.277344 172.972656 C 175.160156 188.644531 183.164062 194.515625 185.371094 196.027344 C 185.667969 193.273438 186.382812 183.507812 183.316406 172.21875 L 184.265625 171.960938 C 187.929688 185.460938 186.265625 196.832031 186.246094 196.945312 Z M 186.136719 197.671875 " fill-opacity="1" fill-rule="nonzero"/><path fill="currentColor" d="M 173.570312 223.40625 L 173.046875 223.269531 C 172.898438 223.230469 158.25 219.144531 137.402344 197.210938 C 131.058594 190.535156 128.003906 183.386719 128.324219 175.953125 C 128.855469 163.550781 138.792969 154.609375 138.890625 154.519531 L 139.257812 154.191406 L 139.585938 154.558594 C 139.65625 154.640625 146.878906 162.78125 162.210938 179.195312 C 177.710938 195.789062 173.699219 222.601562 173.65625 222.871094 Z M 139.1875 155.589844 C 137.429688 157.296875 129.757812 165.347656 129.304688 176.003906 C 129 183.15625 131.964844 190.0625 138.113281 196.535156 C 156.515625 215.894531 169.96875 221.203125 172.761719 222.148438 C 173.246094 218.214844 175.425781 194.777344 161.496094 179.867188 C 147.992188 165.410156 140.773438 157.367188 139.1875 155.589844 Z M 139.1875 155.589844 " fill-opacity="1" fill-rule="nonzero"/><path fill="currentColor" d="M 150.945312 264.347656 L 150.375 263.960938 C 150.078125 263.757812 120.386719 243.539062 109.34375 223.953125 C 104.710938 215.734375 105.554688 205.722656 111.785156 195 C 116.460938 186.957031 122.589844 181.261719 122.648438 181.203125 L 123.472656 180.445312 L 123.472656 181.5625 C 123.476562 181.6875 123.839844 189.25 140.785156 212.660156 C 149.847656 225.183594 152.175781 238.382812 152.535156 247.25 C 152.925781 256.859375 151.144531 263.613281 151.125 263.683594 Z M 122.632812 182.589844 C 120.917969 184.296875 116.308594 189.164062 112.621094 195.511719 C 108.414062 202.761719 104.578125 213.5 110.199219 223.472656 C 120.269531 241.332031 146.105469 259.792969 150.339844 262.742188 C 151.28125 258.4375 155.511719 234.683594 139.988281 213.238281 C 125.996094 193.90625 123.191406 185.324219 122.632812 182.589844 Z M 122.632812 182.589844 " fill-opacity="1" fill-rule="nonzero"/><path fill="currentColor" d="M 119.230469 157.066406 C 114.210938 157.066406 108.773438 155.488281 102.976562 152.335938 C 99.601562 150.5 96.660156 147.960938 94.238281 144.792969 C 87.070312 135.410156 81.441406 129.722656 78.800781 129.195312 L 78.023438 129.035156 L 78.511719 128.410156 C 78.671875 128.203125 82.59375 123.308594 92.347656 122.421875 C 101.238281 121.609375 116.910156 124.171875 141.066406 140.960938 L 141.390625 141.183594 L 141.242188 141.546875 C 141.070312 141.976562 136.886719 152.125 126.691406 155.789062 C 124.324219 156.640625 121.832031 157.066406 119.230469 157.066406 Z M 79.785156 128.480469 C 83.664062 130.09375 90.121094 137.785156 95.015625 144.195312 C 97.355469 147.253906 100.191406 149.703125 103.445312 151.472656 C 111.992188 156.121094 119.699219 157.261719 126.359375 154.867188 C 135.09375 151.726562 139.335938 143.367188 140.175781 141.535156 C 116.519531 125.171875 101.222656 122.628906 92.542969 123.390625 C 85.058594 124.042969 81.097656 127.207031 79.785156 128.480469 Z M 79.785156 128.480469 " fill-opacity="1" fill-rule="nonzero"/><path fill="currentColor" d="M 99.601562 179.410156 C 96.492188 179.410156 93.417969 178.929688 90.382812 177.964844 C 80.339844 174.78125 74.011719 167.292969 71.753906 164.222656 C 67.15625 157.964844 59.234375 143.390625 59.15625 143.242188 L 58.816406 142.621094 L 59.519531 142.523438 C 59.71875 142.496094 79.898438 139.8125 96.839844 150.253906 C 113.675781 160.632812 123.121094 169.773438 123.214844 169.863281 L 123.628906 170.269531 L 123.164062 170.609375 C 115.179688 176.46875 107.289062 179.410156 99.601562 179.410156 Z M 60.367188 143.414062 C 61.953125 146.300781 68.539062 158.183594 72.546875 163.640625 C 75.945312 168.269531 94.238281 190.21875 122.105469 170.164062 C 120.101562 168.300781 111.066406 160.175781 96.324219 151.089844 C 81.46875 141.929688 64.070312 143.050781 60.367188 143.414062 Z M 60.367188 143.414062 " fill-opacity="1" fill-rule="nonzero"/><path fill="currentColor" d="M 43.359375 269.953125 L 43.273438 268.101562 C 43.261719 267.839844 42.296875 241.660156 59.164062 212.703125 C 75.410156 184.804688 106.265625 193.894531 109.730469 195.019531 C 109.949219 195.09375 110.113281 195.269531 110.171875 195.492188 C 110.226562 195.714844 110.164062 195.949219 110 196.113281 C 104.851562 201.441406 102.992188 209.625 101.351562 216.84375 C 100.960938 218.558594 100.59375 220.179688 100.1875 221.757812 C 97.695312 231.457031 92.132812 239.8125 84.519531 245.289062 C 80.234375 248.367188 75.691406 249.6875 70.882812 251.085938 C 68.589844 251.75 66.21875 252.441406 63.886719 253.335938 C 58.824219 255.285156 54.691406 257.519531 51.257812 260.171875 C 49.695312 261.378906 45.917969 264.953125 44.203125 268.304688 Z M 94.304688 193.695312 C 83.457031 193.695312 69.289062 197.269531 60.011719 213.195312 C 45.800781 237.59375 44.355469 259.984375 44.25 266.296875 C 46.230469 263.3125 49.277344 260.460938 50.65625 259.394531 C 54.167969 256.683594 58.382812 254.402344 63.535156 252.417969 C 65.90625 251.507812 68.296875 250.8125 70.609375 250.140625 C 75.335938 248.769531 79.800781 247.472656 83.949219 244.492188 C 91.375 239.152344 96.804688 230.992188 99.238281 221.515625 C 99.640625 219.945312 100.007812 218.332031 100.394531 216.625 C 102.027344 209.441406 103.875 201.324219 108.945312 195.800781 C 106.941406 195.191406 101.316406 193.695312 94.304688 193.695312 Z M 94.304688 193.695312 " fill-opacity="1" fill-rule="nonzero"/><path fill="currentColor" d="M 233.214844 50.566406 C 230.0625 50.566406 227.820312 49.742188 226.523438 48.097656 C 223.867188 44.730469 226.238281 39.292969 226.339844 39.0625 L 226.449219 38.8125 L 226.71875 38.777344 C 231.273438 38.132812 234.585938 38.910156 236.566406 41.082031 C 239.542969 44.347656 238.363281 49.496094 238.3125 49.710938 L 238.238281 50.023438 L 237.925781 50.082031 C 236.179688 50.40625 234.605469 50.566406 233.214844 50.566406 Z M 227.136719 39.710938 C 226.726562 40.769531 225.296875 44.960938 227.296875 47.492188 C 228.890625 49.507812 232.296875 50.074219 237.417969 49.175781 C 237.613281 48.058594 238.078125 44.195312 235.839844 41.738281 C 234.125 39.867188 231.199219 39.183594 227.136719 39.710938 Z M 227.136719 39.710938 " fill-opacity="1" fill-rule="nonzero"/><path fill="currentColor" d="M 245.34375 69.003906 L 245.003906 68.941406 C 238.71875 67.75 235.125 65.644531 234.320312 62.691406 C 233.242188 58.734375 237.582031 54.875 237.765625 54.710938 L 237.949219 54.550781 L 238.183594 54.597656 C 242.488281 55.449219 245.273438 57.226562 246.460938 59.875 C 248.28125 63.949219 245.632812 68.515625 245.515625 68.707031 Z M 238.238281 55.609375 C 237.46875 56.347656 234.457031 59.476562 235.265625 62.433594 C 235.953125 64.945312 239.171875 66.785156 244.832031 67.90625 C 245.363281 66.867188 246.933594 63.324219 245.5625 60.269531 C 244.535156 57.980469 242.070312 56.414062 238.238281 55.609375 Z M 238.238281 55.609375 " fill-opacity="1" fill-rule="nonzero"/><path fill="currentColor" d="M 249.402344 40.320312 L 249.226562 40.300781 C 245.746094 39.9375 243.515625 38.78125 242.59375 36.875 C 241.210938 34.019531 243.328125 30.621094 243.417969 30.476562 L 243.683594 30.058594 L 244.097656 30.328125 C 248.460938 33.128906 250.679688 35.664062 250.699219 37.867188 C 250.714844 39.429688 249.597656 40.191406 249.550781 40.222656 Z M 244.007812 31.4375 C 243.53125 32.371094 242.589844 34.617188 243.476562 36.449219 C 244.226562 37.996094 246.128906 38.957031 249.125 39.304688 C 249.335938 39.109375 249.730469 38.632812 249.71875 37.855469 C 249.695312 36.621094 248.671875 34.519531 244.007812 31.4375 Z M 244.007812 31.4375 " fill-opacity="1" fill-rule="nonzero"/><path fill="currentColor" d="M 255.136719 53.453125 L 254.757812 53.28125 C 250.875 51.535156 248.832031 49.59375 248.675781 47.515625 C 248.5 45.132812 250.882812 43.570312 250.984375 43.503906 L 251.144531 43.402344 L 251.335938 43.433594 C 254.019531 43.902344 255.746094 44.984375 256.464844 46.65625 C 257.699219 49.515625 255.464844 52.957031 255.367188 53.105469 Z M 251.367188 44.4375 C 250.902344 44.785156 249.539062 45.941406 249.65625 47.449219 C 249.777344 49.050781 251.539062 50.6875 254.761719 52.203125 C 255.257812 51.3125 256.382812 48.9375 255.5625 47.042969 C 254.996094 45.734375 253.585938 44.859375 251.367188 44.4375 Z M 251.367188 44.4375 " fill-opacity="1" fill-rule="nonzero"/><path fill="currentColor" d="M 243.414062 30.992188 L 244.253906 30.484375 L 249.699219 39.558594 L 248.859375 40.066406 Z M 243.414062 30.992188 " fill-opacity="1" fill-rule="nonzero"/><path fill="currentColor" d="M 164.097656 112.96875 L 163.328125 112.359375 C 163.488281 112.160156 179.554688 92.003906 201.617188 79.632812 C 223.539062 67.335938 253.335938 38.976562 253.632812 38.691406 L 254.3125 39.402344 C 254.011719 39.6875 224.128906 68.128906 202.097656 80.488281 C 180.210938 92.765625 164.257812 112.769531 164.097656 112.96875 Z M 164.097656 112.96875 " fill-opacity="1" fill-rule="nonzero"/><path fill="currentColor" d="M 44.234375 268.226562 L 43.296875 267.933594 C 43.382812 267.648438 52.414062 239.378906 76.496094 220.960938 C 99.527344 203.34375 108.730469 195.851562 109.480469 195.238281 C 110.136719 194.316406 119.269531 181.433594 131.472656 160.320312 C 144.121094 138.429688 151.976562 130.480469 152.054688 130.402344 L 152.746094 131.097656 C 152.667969 131.171875 144.894531 139.058594 132.320312 160.8125 C 119.6875 182.667969 110.335938 195.734375 110.242188 195.863281 L 110.152344 195.957031 C 110.066406 196.027344 101.0625 203.410156 77.09375 221.742188 C 53.265625 239.964844 44.320312 267.945312 44.234375 268.226562 Z M 44.234375 268.226562 " fill-opacity="1" fill-rule="nonzero"/><path fill="currentColor" d="M 244.660156 68.6875 L 237.566406 55.144531 L 238.167969 52.714844 L 239.121094 52.953125 L 238.609375 55.015625 L 245.53125 68.230469 Z M 244.660156 68.6875 " fill-opacity="1" fill-rule="nonzero"/><path fill="currentColor" d="M 254.515625 53.042969 L 250.417969 44.28125 L 250.417969 41.914062 L 251.398438 41.914062 L 251.398438 44.0625 L 255.402344 52.625 Z M 254.515625 53.042969 " fill-opacity="1" fill-rule="nonzero"/><path fill="currentColor" d="M 236.078125 89.296875 L 223.578125 67.691406 L 224.023438 64.398438 L 224.996094 64.53125 L 224.597656 67.488281 L 236.929688 88.804688 Z M 236.078125 89.296875 " fill-opacity="1" fill-rule="nonzero"/><path fill="currentColor" d="M 220.125 116.078125 C 210.261719 103.621094 207.425781 81.757812 207.398438 81.539062 L 207.390625 81.46875 L 208.269531 75.78125 L 209.238281 75.929688 L 208.382812 81.484375 C 208.5625 82.824219 211.46875 103.570312 220.894531 115.472656 Z M 220.125 116.078125 " fill-opacity="1" fill-rule="nonzero"/><path fill="currentColor" d="M 202.402344 143.992188 C 190.035156 120.90625 189.304688 95.003906 189.300781 94.746094 L 189.296875 94.636719 L 193.707031 84.625 L 194.605469 85.023438 L 190.285156 94.828125 C 190.347656 96.667969 191.417969 121.410156 203.269531 143.53125 Z M 202.402344 143.992188 " fill-opacity="1" fill-rule="nonzero"/><path fill="currentColor" d="M 239.816406 51.921875 L 237.519531 49.972656 L 226.453125 39.621094 L 227.125 38.902344 L 238.171875 49.242188 L 240.449219 51.171875 Z M 239.816406 51.921875 " fill-opacity="1" fill-rule="nonzero"/><path fill="currentColor" d="M 230.085938 60.277344 L 224.296875 57.511719 L 205.328125 47.613281 L 205.78125 46.742188 L 224.734375 56.632812 L 230.507812 59.394531 Z M 230.085938 60.277344 " fill-opacity="1" fill-rule="nonzero"/><path fill="currentColor" d="M 208.230469 72.46875 L 208.101562 72.394531 L 182.253906 57.320312 L 182.746094 56.472656 L 208.46875 71.472656 L 215 71.074219 L 215.0625 72.054688 Z M 208.230469 72.46875 " fill-opacity="1" fill-rule="nonzero"/><path fill="currentColor" d="M 191.863281 84.308594 L 191.714844 84.261719 C 165.769531 76.804688 158.265625 58.695312 158.191406 58.511719 L 159.101562 58.148438 C 159.175781 58.324219 166.5 75.929688 191.832031 83.277344 L 200.90625 80.042969 L 201.234375 80.96875 Z M 191.863281 84.308594 " fill-opacity="1" fill-rule="nonzero"/><path fill="currentColor" d="M 169.992188 99.253906 C 155.417969 99.253906 130.164062 79.582031 129.046875 78.707031 L 129.652344 77.933594 C 129.9375 78.15625 158.105469 100.09375 171.820312 98.148438 L 181.109375 94.28125 L 181.488281 95.1875 L 172.023438 99.113281 C 171.375 99.207031 170.695312 99.253906 169.992188 99.253906 Z M 169.992188 99.253906 " fill-opacity="1" fill-rule="nonzero"/><path fill="currentColor" d="M 153.347656 119.492188 C 130.964844 119.492188 105.988281 104.605469 105.726562 104.445312 L 106.234375 103.605469 C 106.507812 103.769531 133.75 120.007812 156.59375 118.402344 L 156.660156 119.378906 C 155.566406 119.457031 154.460938 119.492188 153.347656 119.492188 Z M 153.347656 119.492188 " fill-opacity="1" fill-rule="nonzero"/><path fill="currentColor" d="M 182.132812 177.355469 C 173.160156 167.382812 170.570312 149.292969 169.980469 135.871094 C 169.34375 121.375 170.828125 109.050781 170.84375 108.929688 L 170.863281 108.835938 L 173.222656 101.632812 L 174.15625 101.9375 L 171.8125 109.09375 C 171.605469 110.851562 166.253906 158.246094 182.863281 176.699219 Z M 182.132812 177.355469 " fill-opacity="1" fill-rule="nonzero"/><path fill="currentColor" d="M 185.332031 197.109375 C 181.839844 190.847656 163.46875 157.675781 163.285156 157.339844 L 164.140625 156.867188 C 164.328125 157.199219 182.699219 190.371094 186.191406 196.632812 Z M 185.332031 197.109375 " fill-opacity="1" fill-rule="nonzero"/><path fill="currentColor" d="M 172.792969 223.105469 C 156.539062 203.402344 148.148438 185.929688 143.96875 174.746094 C 139.429688 162.601562 138.734375 155.003906 138.730469 154.929688 L 138.722656 154.863281 L 140.304688 146.042969 L 141.269531 146.21875 L 139.710938 154.90625 C 139.875 156.453125 143.324219 185.832031 173.550781 222.480469 Z M 172.792969 223.105469 " fill-opacity="1" fill-rule="nonzero"/><path fill="currentColor" d="M 123.398438 170.824219 C 123.113281 170.824219 122.910156 170.769531 122.769531 170.714844 C 106.546875 171.746094 90.160156 164.269531 79.261719 157.8125 C 67.4375 150.804688 59.335938 143.445312 59.253906 143.371094 L 59.917969 142.648438 C 59.996094 142.71875 68.039062 150.023438 79.777344 156.976562 C 90.585938 163.378906 106.828125 170.789062 122.839844 169.726562 L 123.011719 169.714844 L 123.15625 169.8125 C 123.152344 169.8125 123.226562 169.84375 123.398438 169.84375 C 123.863281 169.84375 125.03125 169.59375 127.191406 167.648438 L 127.847656 168.378906 C 125.609375 170.394531 124.195312 170.824219 123.398438 170.824219 Z M 123.398438 170.824219 " fill-opacity="1" fill-rule="nonzero"/><path fill="currentColor" d="M 150.179688 263.683594 C 150.132812 263.523438 145.550781 247.15625 128.367188 217.195312 C 115.167969 194.1875 121.816406 182.492188 122.527344 181.367188 L 125.140625 171.0625 L 126.089844 171.304688 L 123.4375 181.765625 L 123.390625 181.835938 C 123.316406 181.949219 115.945312 193.566406 129.21875 216.707031 C 146.476562 246.792969 151.082031 263.261719 151.125 263.425781 Z M 150.179688 263.683594 " fill-opacity="1" fill-rule="nonzero"/><path fill="currentColor" d="M 133.71875 144.445312 C 130.394531 144.445312 125.710938 143.523438 119.214844 140.617188 C 102.171875 133 79.050781 129.234375 78.820312 129.195312 L 78.976562 128.226562 C 79.207031 128.265625 102.453125 132.050781 119.617188 139.722656 C 136.335938 147.195312 140.332031 141.167969 140.371094 141.105469 L 140.421875 141.023438 L 147.441406 135.933594 L 148.019531 136.726562 L 141.144531 141.710938 C 140.789062 142.207031 138.894531 144.445312 133.71875 144.445312 Z M 133.71875 144.445312 " fill-opacity="1" fill-rule="nonzero"/></svg>