<svg xmlns="http://www.w3.org/2000/svg" xmlns:xlink="http://www.w3.org/1999/xlink" width="400" zoomAndPan="magnify" viewBox="0 0 300 299.999988" height="400" preserveAspectRatio="xMidYMid meet" version="1.0"><path fill="currentColor" d="M 210.746094 228.59375 C 201.957031 204.835938 200.625 177.988281 198.488281 152.898438 C 197.535156 141.730469 195.96875 130.707031 194.636719 119.589844 C 193.925781 113.507812 193.925781 106.710938 192.070312 100.820312 C 189.980469 94.214844 181.714844 93.167969 180.667969 87.179688 C 186.226562 86.65625 188.984375 84.804688 189.078125 79.386719 C 188.746094 78.199219 188.082031 77.15625 187.175781 76.25 C 188.03125 75.871094 188.652344 75.253906 189.03125 74.445312 C 189.03125 72.023438 190.503906 69.789062 186.511719 68.886719 C 195.492188 57.007812 184.183594 41.894531 173.160156 36.195312 C 161.183594 30.015625 143.746094 30.777344 131.535156 35.625 C 120.222656 40.089844 108.628906 49.308594 111.910156 62.707031 C 112.289062 63.800781 112.621094 64.941406 113 66.035156 C 115.1875 68.078125 115.09375 69.503906 112.859375 70.453125 C 112.859375 72.878906 112.953125 74.304688 113.050781 76.632812 C 114.855469 77.4375 114.949219 78.578125 113.382812 80.003906 C 113.285156 80.765625 113.144531 81.476562 113.050781 82.238281 C 114.664062 86.085938 117.324219 87.226562 121.414062 88.179688 C 120.792969 92.121094 112.90625 94.449219 110.671875 98.109375 C 107.585938 103.050781 106.585938 110.511719 105.636719 116.167969 C 103.117188 130.613281 102.546875 145.535156 100.503906 160.121094 C 98.269531 175.945312 98.128906 193.480469 93.804688 208.78125 C 90.289062 221.230469 83.351562 235.675781 86.105469 248.933594 C 88.957031 262.761719 103.117188 264.519531 114.996094 266.085938 C 129.585938 267.988281 143.222656 269.984375 157.953125 269.175781 C 172.304688 268.414062 187.558594 267.417969 200.769531 261.335938 C 216.640625 254.019531 216.402344 243.894531 210.746094 228.59375 Z M 119.082031 75.824219 C 109.914062 74.824219 120.605469 71.785156 123.171875 71.691406 C 131.4375 71.453125 139.5625 71.070312 147.832031 70.5 C 155.148438 69.980469 162.800781 69.644531 170.117188 70.550781 C 173.253906 70.929688 183.660156 70.453125 186.132812 72.496094 C 185.65625 77.011719 155.71875 73.636719 151.539062 73.683594 C 140.894531 73.875 129.585938 77.25 119.082031 75.824219 Z M 115.425781 61.851562 C 110.863281 43.796875 137.472656 35.859375 150.777344 35.765625 C 163.894531 35.671875 190.648438 43.75 185.847656 62.089844 C 183.660156 70.5 178.292969 68.03125 171.640625 67.128906 C 166.078125 66.367188 160.519531 66.414062 154.914062 66.558594 C 149.449219 66.699219 144.078125 67.269531 138.613281 67.699219 C 134.148438 68.03125 129.679688 67.984375 125.214844 68.078125 C 118.941406 68.171875 117.183594 68.839844 115.425781 61.851562 Z M 117.945312 79.339844 C 129.824219 81.242188 142.652344 77.25 154.675781 77.296875 C 161.042969 77.34375 167.363281 77.914062 173.730469 78.105469 C 176.675781 78.199219 187.652344 76.25 185.609375 81.859375 C 184.277344 85.515625 172.304688 83.617188 169.214844 83.617188 C 161.421875 83.617188 153.628906 84.519531 145.835938 85.136719 C 142.699219 85.328125 111.527344 87.132812 117.945312 79.339844 Z M 172.589844 94.6875 C 174.0625 99.25 179.667969 101.007812 182.332031 104.714844 C 185.800781 109.46875 186.890625 115.882812 187.605469 121.585938 C 189.125 133.417969 188.9375 145.199219 190.980469 157.03125 C 164.179688 157.792969 137.378906 158.554688 110.53125 159.359375 C 111.574219 146.484375 112.335938 133.558594 113.953125 120.730469 C 114.808594 114.074219 115.898438 106.472656 120.414062 101.152344 C 122.835938 98.300781 126.449219 97.207031 128.96875 94.59375 C 129.917969 93.59375 131.105469 89.9375 131.914062 89.414062 C 133.054688 88.703125 136.808594 89.367188 138.421875 89.273438 C 149.921875 88.652344 161.328125 86.992188 172.875 87.324219 C 172.445312 89.507812 171.875 92.503906 172.589844 94.6875 Z M 109.914062 166.867188 C 110.433594 161.546875 109.390625 162.355469 112.667969 161.070312 C 115.140625 160.121094 119.652344 160.882812 122.316406 160.785156 C 132.152344 160.5 142.035156 160.214844 151.871094 159.929688 C 161.753906 159.644531 171.6875 159.359375 181.570312 159.074219 C 189.554688 158.839844 191.027344 156.746094 192.453125 165.160156 C 195.113281 180.554688 194.828125 196.472656 197.015625 212.011719 C 198.441406 222.132812 206.234375 238.765625 196.492188 246.226562 C 184.089844 255.679688 167.789062 253.636719 153.390625 254.398438 C 138.804688 255.15625 122.03125 257.867188 108.582031 250.167969 C 97.796875 243.992188 101.167969 223.652344 103.210938 213.53125 C 106.347656 198.089844 108.441406 182.644531 109.914062 166.867188 Z M 193.496094 260.289062 C 170.640625 267.894531 145.503906 266.371094 122.125 263.332031 C 112.574219 262.097656 97.035156 262.667969 91.378906 253.019531 C 85.679688 243.324219 91.429688 228.074219 94.421875 218.425781 C 101.738281 194.761719 103.496094 168.628906 106.777344 144.011719 C 108.441406 131.5625 108.25 119.253906 111.433594 107.042969 C 112.8125 101.769531 113.90625 99.296875 118.132812 95.972656 C 119.988281 94.5 122.265625 92.691406 124.074219 91.363281 C 124.546875 90.648438 124.882812 89.792969 124.976562 88.9375 C 126.6875 89.175781 128.398438 89.367188 130.15625 89.414062 C 129.207031 95.117188 120.558594 97.398438 117.375 102.433594 C 111.480469 111.699219 111.765625 124.433594 110.863281 134.9375 C 108.914062 156.84375 107.820312 178.984375 104.257812 200.703125 C 101.976562 214.625 92.1875 242.804688 107.726562 251.832031 C 117.375 257.4375 131.34375 258.105469 142.179688 257.535156 C 153.058594 256.917969 164.75 257.535156 175.488281 255.726562 C 183.898438 254.304688 198.960938 251.261719 202.429688 242.234375 C 205.851562 233.347656 199.863281 219.519531 198.675781 210.394531 C 197.300781 199.800781 196.160156 189.15625 195.777344 178.464844 C 195.351562 166.820312 192.070312 155.65625 190.980469 144.109375 C 190.078125 134.890625 190.597656 125.574219 188.699219 116.40625 C 187.699219 111.511719 186.226562 106.378906 182.902344 102.527344 C 179.90625 99.058594 174.492188 97.539062 174.207031 92.359375 C 174.109375 90.601562 173.777344 85.898438 177.105469 87.5625 C 177.152344 87.5625 179.148438 92.644531 179.148438 92.644531 C 182.472656 97.015625 186.796875 96.257812 188.699219 102.148438 C 191.691406 111.558594 191.40625 122.914062 192.691406 132.75 C 195.398438 153.613281 196.445312 174.613281 199.578125 195.476562 C 201.574219 208.78125 204.332031 220.898438 208.75 233.632812 C 210.839844 239.714844 213.457031 245.84375 209.179688 251.5 C 205.519531 255.964844 198.867188 258.53125 193.496094 260.289062 Z M 193.496094 260.289062 " fill-opacity="1" fill-rule="nonzero"/><path fill="currentColor" d="M 134.953125 100.105469 C 121.078125 103.335938 111.859375 141.683594 127.066406 138.929688 C 134.242188 137.597656 131.484375 123.390625 133.816406 118.304688 C 135.621094 114.21875 150.683594 96.445312 134.953125 100.105469 Z M 140.46875 105.285156 C 139.230469 109.132812 135.621094 111.511719 133.578125 114.835938 C 131.011719 118.96875 130.203125 123.34375 129.917969 128.1875 C 129.777344 130.613281 130.535156 134.082031 128.636719 135.933594 C 125.308594 139.164062 122.886719 135.695312 121.601562 132.65625 C 118.796875 126.050781 121.363281 117.070312 124.691406 111.128906 C 126.589844 107.757812 129.207031 104.289062 132.910156 102.71875 C 135.429688 101.671875 142.082031 100.34375 140.46875 105.285156 Z M 140.46875 105.285156 " fill-opacity="1" fill-rule="nonzero"/><path fill="currentColor" d="M 125.59375 52.207031 C 128.015625 52.207031 128.015625 48.453125 125.59375 48.453125 C 123.171875 48.453125 123.171875 52.207031 125.59375 52.207031 Z M 125.59375 52.207031 " fill-opacity="1" fill-rule="nonzero"/><path fill="currentColor" d="M 136.046875 43.464844 C 138.472656 43.464844 138.472656 39.710938 136.046875 39.710938 C 133.625 39.710938 133.625 43.464844 136.046875 43.464844 Z M 136.046875 43.464844 " fill-opacity="1" fill-rule="nonzero"/><path fill="currentColor" d="M 157.382812 40.851562 C 159.808594 40.851562 159.808594 37.097656 157.382812 37.097656 C 154.960938 37.097656 154.960938 40.851562 157.382812 40.851562 Z M 157.382812 40.851562 " fill-opacity="1" fill-rule="nonzero"/><path fill="currentColor" d="M 120.128906 58.667969 C 117.707031 58.667969 117.707031 62.421875 120.128906 62.421875 C 122.550781 62.421875 122.550781 58.667969 120.128906 58.667969 Z M 120.128906 58.667969 " fill-opacity="1" fill-rule="nonzero"/><path fill="currentColor" d="M 139.753906 54.679688 C 142.179688 54.679688 142.179688 50.925781 139.753906 50.925781 C 137.378906 50.925781 137.378906 54.679688 139.753906 54.679688 Z M 139.753906 54.679688 " fill-opacity="1" fill-rule="nonzero"/><path fill="currentColor" d="M 147.546875 45.316406 C 151.824219 45.316406 147.546875 41.5625 147.546875 41.5625 C 147.546875 41.5625 143.269531 45.316406 147.546875 45.316406 Z M 147.546875 45.316406 " fill-opacity="1" fill-rule="nonzero"/><path fill="currentColor" d="M 156.339844 53.632812 C 158.761719 53.632812 158.761719 49.878906 156.339844 49.878906 C 153.914062 49.878906 153.914062 53.632812 156.339844 53.632812 Z M 156.339844 53.632812 " fill-opacity="1" fill-rule="nonzero"/><path fill="currentColor" d="M 165.273438 45.316406 C 167.695312 45.316406 167.695312 41.5625 165.273438 41.5625 C 162.847656 41.5625 162.847656 45.316406 165.273438 45.316406 Z M 165.273438 45.316406 " fill-opacity="1" fill-rule="nonzero"/><path fill="currentColor" d="M 178.292969 52.207031 C 180.714844 52.207031 180.714844 48.453125 178.292969 48.453125 C 175.867188 48.453125 175.867188 52.207031 178.292969 52.207031 Z M 178.292969 52.207031 " fill-opacity="1" fill-rule="nonzero"/><path fill="currentColor" d="M 166.078125 54.058594 C 166.078125 58.335938 169.832031 54.058594 169.832031 54.058594 C 169.882812 54.058594 166.078125 49.785156 166.078125 54.058594 Z M 166.078125 54.058594 " fill-opacity="1" fill-rule="nonzero"/></svg>