<svg xmlns="http://www.w3.org/2000/svg" xmlns:xlink="http://www.w3.org/1999/xlink" width="400" zoomAndPan="magnify" viewBox="0 0 300 299.999988" height="400" preserveAspectRatio="xMidYMid meet" version="1.0"><path fill="#a9a0f0" d="M 257.742188 183.796875 C 257.742188 183.785156 257.734375 183.785156 257.734375 183.777344 C 257.667969 183.578125 257.582031 183.386719 257.484375 183.214844 C 257.457031 183.167969 257.417969 183.121094 257.378906 183.070312 C 257.304688 182.949219 257.21875 182.832031 257.121094 182.726562 C 257.101562 182.710938 257.085938 182.679688 257.066406 182.660156 L 226.664062 151.375 C 225.902344 150.589844 224.765625 150.316406 223.734375 150.648438 L 191.359375 161.101562 C 190.789062 161.285156 190.28125 161.648438 189.929688 162.132812 L 181.574219 173.550781 L 159.578125 152.890625 C 159.175781 152.519531 158.679688 152.269531 158.144531 152.164062 L 126.621094 146.203125 L 108.363281 128.058594 C 107.828125 127.527344 107.101562 127.230469 106.339844 127.230469 C 106.339844 127.230469 106.339844 127.230469 106.332031 127.230469 L 102.609375 127.238281 L 102.609375 77.675781 C 102.609375 76.960938 102.34375 76.273438 101.855469 75.738281 L 81.214844 53.226562 C 80.128906 52.042969 78.078125 52.042969 77 53.226562 L 56.355469 75.75 C 55.871094 76.273438 55.601562 76.96875 55.601562 77.683594 L 55.601562 127.335938 L 50.070312 127.34375 C 49.164062 127.34375 48.304688 127.785156 47.769531 128.507812 L 31.125 151.136719 C 30.761719 151.632812 30.574219 152.222656 30.574219 152.832031 L 30.574219 267.136719 C 30.574219 268.722656 31.851562 270 33.433594 270 L 267.136719 270 C 268.722656 270 270 268.722656 270 267.136719 L 270 223.574219 C 270 223.289062 269.953125 223 269.867188 222.726562 Z M 61.324219 80.539062 L 96.886719 80.539062 L 96.886719 127.222656 L 61.324219 127.222656 Z M 93.242188 74.8125 L 64.96875 74.8125 L 79.105469 59.390625 Z M 36.296875 188.058594 L 67.554688 193.527344 L 82.292969 216.828125 C 82.683594 217.449219 83.292969 217.890625 84 218.070312 L 104.453125 223.316406 C 104.691406 223.375 104.929688 223.402344 105.167969 223.402344 C 106.445312 223.402344 107.609375 222.542969 107.933594 221.246094 C 108.324219 219.710938 107.398438 218.15625 105.871094 217.765625 L 86.519531 212.804688 L 71.714844 189.394531 C 71.285156 188.71875 70.578125 188.242188 69.785156 188.109375 L 36.296875 182.242188 L 36.296875 153.757812 L 51.53125 133.050781 L 105.167969 132.945312 L 121.136719 148.828125 L 101.886719 167.53125 C 100.75 168.628906 100.722656 170.441406 101.828125 171.578125 C 102.390625 172.160156 103.136719 172.445312 103.878906 172.445312 C 104.59375 172.445312 105.320312 172.179688 105.871094 171.632812 L 126.152344 151.925781 L 156.257812 157.613281 L 176.261719 176.394531 L 155.894531 181.871094 C 154.914062 182.136719 154.140625 182.898438 153.871094 183.882812 L 145.078125 216.210938 L 119.085938 225.988281 C 118.1875 226.320312 117.519531 227.09375 117.300781 228.027344 L 109 264.265625 L 36.296875 264.265625 Z M 264.277344 264.277344 L 114.867188 264.277344 L 122.539062 230.8125 L 147.617188 221.378906 L 173.417969 227.992188 L 193.34375 248.316406 C 193.90625 248.890625 194.640625 249.175781 195.386719 249.175781 C 196.109375 249.175781 196.835938 248.898438 197.390625 248.355469 C 198.515625 247.25 198.535156 245.4375 197.425781 244.3125 L 176.9375 223.410156 C 176.574219 223.039062 176.109375 222.773438 175.601562 222.640625 L 150.964844 216.324219 L 158.949219 186.972656 L 182.691406 180.589844 C 182.785156 180.5625 182.871094 180.523438 182.957031 180.496094 C 183.015625 180.476562 183.070312 180.457031 183.128906 180.4375 C 183.28125 180.371094 183.433594 180.285156 183.578125 180.179688 C 183.617188 180.152344 183.652344 180.125 183.683594 180.09375 C 183.785156 180.007812 183.890625 179.921875 183.988281 179.828125 C 184.007812 179.808594 184.015625 179.800781 184.035156 179.789062 C 184.0625 179.761719 184.082031 179.722656 184.109375 179.683594 C 184.160156 179.628906 184.207031 179.582031 184.253906 179.523438 L 193.972656 166.246094 L 223.773438 156.621094 L 248.890625 182.46875 L 223.734375 185.417969 C 222.886719 185.511719 222.125 186 221.65625 186.714844 L 204.257812 213.921875 C 203.410156 215.257812 203.800781 217.019531 205.125 217.871094 C 205.601562 218.175781 206.136719 218.316406 206.660156 218.316406 C 207.605469 218.316406 208.53125 217.851562 209.074219 217 L 225.738281 190.941406 L 252.953125 187.753906 L 264.246094 223.992188 L 264.246094 264.277344 Z M 264.277344 264.277344 " fill-opacity="1" fill-rule="nonzero"/><path fill="#a9a0f0" d="M 32.910156 81.949219 L 38.929688 81.949219 C 40.511719 81.949219 41.789062 80.671875 41.789062 79.085938 C 41.789062 77.503906 40.511719 76.226562 38.929688 76.226562 L 32.910156 76.226562 C 31.324219 76.226562 30.046875 77.503906 30.046875 79.085938 C 30.046875 80.671875 31.324219 81.949219 32.910156 81.949219 Z M 32.910156 81.949219 " fill-opacity="1" fill-rule="nonzero"/><path fill="#a9a0f0" d="M 119.285156 81.949219 L 125.304688 81.949219 C 126.886719 81.949219 128.164062 80.671875 128.164062 79.085938 C 128.164062 77.503906 126.886719 76.226562 125.304688 76.226562 L 119.285156 76.226562 C 117.699219 76.226562 116.421875 77.503906 116.421875 79.085938 C 116.421875 80.671875 117.710938 81.949219 119.285156 81.949219 Z M 119.285156 81.949219 " fill-opacity="1" fill-rule="nonzero"/><path fill="#a9a0f0" d="M 107.523438 53.53125 C 108.257812 53.53125 108.992188 53.257812 109.546875 52.691406 L 113.800781 48.4375 C 114.914062 47.324219 114.914062 45.511719 113.800781 44.394531 C 112.683594 43.277344 110.871094 43.277344 109.753906 44.394531 L 105.5 48.648438 C 104.382812 49.765625 104.382812 51.578125 105.5 52.691406 C 106.054688 53.257812 106.789062 53.53125 107.523438 53.53125 Z M 107.523438 53.53125 " fill-opacity="1" fill-rule="nonzero"/><path fill="#a9a0f0" d="M 79.105469 41.761719 C 80.691406 41.761719 81.96875 40.484375 81.96875 38.898438 L 81.96875 32.878906 C 81.96875 31.296875 80.691406 30.019531 79.105469 30.019531 C 77.523438 30.019531 76.246094 31.296875 76.246094 32.878906 L 76.246094 38.898438 C 76.246094 40.484375 77.523438 41.761719 79.105469 41.761719 Z M 79.105469 41.761719 " fill-opacity="1" fill-rule="nonzero"/><path fill="#a9a0f0" d="M 48.667969 52.691406 C 49.230469 53.257812 49.957031 53.53125 50.691406 53.53125 C 51.425781 53.53125 52.160156 53.257812 52.710938 52.691406 C 53.828125 51.578125 53.828125 49.765625 52.710938 48.648438 L 48.457031 44.394531 C 47.34375 43.277344 45.53125 43.277344 44.414062 44.394531 C 43.296875 45.511719 43.296875 47.324219 44.414062 48.4375 Z M 48.667969 52.691406 " fill-opacity="1" fill-rule="nonzero"/><path fill="#a9a0f0" d="M 195.242188 99.804688 L 255.320312 99.804688 C 263.417969 99.804688 270 93.222656 270 85.125 C 270 77.835938 264.65625 71.769531 257.683594 70.636719 C 256.28125 59.589844 246.78125 50.996094 235.394531 50.996094 C 230.070312 50.996094 225.023438 52.835938 221 56.214844 C 218.785156 55.316406 216.402344 54.847656 213.996094 54.847656 C 204.800781 54.847656 197.085938 61.621094 195.625 70.445312 L 195.253906 70.445312 C 187.152344 70.445312 180.574219 77.027344 180.574219 85.125 C 180.5625 93.222656 187.144531 99.804688 195.242188 99.804688 Z M 195.242188 76.167969 L 198.238281 76.167969 C 199.804688 76.167969 201.082031 74.910156 201.101562 73.335938 C 201.175781 66.296875 206.957031 60.574219 213.996094 60.574219 C 216.144531 60.574219 218.269531 61.105469 220.148438 62.128906 C 221.265625 62.738281 222.648438 62.527344 223.546875 61.632812 C 226.710938 58.464844 230.917969 56.71875 235.402344 56.71875 C 244.558594 56.71875 252.078125 64.167969 252.152344 73.335938 C 252.164062 74.910156 253.441406 76.167969 255.015625 76.167969 L 255.339844 76.167969 C 260.28125 76.167969 264.296875 80.183594 264.296875 85.125 C 264.296875 90.066406 260.28125 94.082031 255.339844 94.082031 L 195.261719 94.082031 C 190.320312 94.082031 186.304688 90.066406 186.304688 85.125 C 186.285156 80.183594 190.300781 76.167969 195.242188 76.167969 Z M 195.242188 76.167969 " fill-opacity="1" fill-rule="nonzero"/></svg>