<svg xmlns="http://www.w3.org/2000/svg" xmlns:xlink="http://www.w3.org/1999/xlink" width="400" zoomAndPan="magnify" viewBox="0 0 300 299.999988" height="400" preserveAspectRatio="xMidYMid meet" version="1.0"><defs><clipPath id="c7fdec286d"><path d="M 30 39.300781 L 206 39.300781 L 206 251 L 30 251 Z M 30 39.300781 " clip-rule="nonzero"/></clipPath><clipPath id="8edaf62094"><path d="M 130.351562 227.933594 L 269.875 227.933594 L 269.875 260.550781 L 130.351562 260.550781 Z M 130.351562 227.933594 " clip-rule="nonzero"/></clipPath></defs><g clip-path="url(#c7fdec286d)"><path fill="#a9a0f0" d="M 87.652344 236.269531 C 87.023438 237.015625 86.785156 238.351562 86.773438 239.441406 C 91.160156 240.425781 95.0625 239.382812 98.050781 238.03125 C 99.785156 237.246094 101.671875 235.960938 100.871094 233.800781 C 97.691406 231.90625 89.542969 234.039062 87.652344 236.269531 Z M 77.433594 226.398438 C 80.625 228.554688 90.234375 228.941406 90.472656 223.929688 C 87.757812 221.726562 76.933594 220.667969 77.433594 226.398438 Z M 42.535156 221.816406 C 45.148438 224.136719 51.25 222.96875 52.582031 226.574219 C 46.773438 229.753906 34.824219 226.796875 31.960938 232.917969 C 36.296875 236.105469 43.691406 236.480469 49.9375 238.03125 C 51.632812 238.453125 54.902344 239.339844 54.695312 241.027344 C 54.480469 242.78125 48.988281 243.027344 47.117188 243.492188 C 44.148438 244.230469 41.914062 245.101562 40.949219 247.371094 C 43.3125 249.480469 47.242188 249.09375 50.996094 249.132812 C 54.253906 249.167969 57.734375 249.675781 60.6875 249.664062 C 71.914062 249.617188 83.472656 247.527344 95.054688 247.019531 C 104.917969 246.585938 114.578125 247.269531 124.136719 245.960938 C 124.578125 245.464844 125.375 245.320312 126.425781 245.433594 C 128.183594 241.84375 136.011719 244.324219 137.707031 240.675781 C 136.359375 240.496094 135.273438 240.402344 134.183594 240.496094 C 132.238281 240.667969 127.945312 242.574219 126.25 242.082031 C 125.453125 241.851562 124.988281 240.332031 124.136719 240.144531 C 122.976562 239.894531 121.921875 240.914062 120.789062 240.675781 C 117.886719 240.0625 119.214844 234.597656 116.910156 232.917969 C 114.734375 233.84375 114.269531 237.410156 111.621094 237.148438 C 109.332031 236.925781 109.265625 233.496094 108.980469 230.628906 C 105.738281 231.265625 105 234.402344 102.457031 235.738281 C 102.257812 236.949219 101.21875 238.109375 100.167969 238.734375 C 96.464844 240.933594 89.59375 242.78125 85.363281 240.144531 C 84.582031 233.136719 92.054688 231.921875 97.875 231.507812 C 97.972656 229.253906 96.011719 230.308594 94.527344 229.746094 C 93.355469 229.304688 92.894531 226.914062 91.355469 226.925781 C 90.429688 226.9375 88.875 228.675781 87.476562 229.042969 C 83.101562 230.191406 78.222656 229.378906 76.023438 227.105469 C 75.570312 226.789062 76.140625 225.457031 75.667969 225.164062 C 70.519531 225.941406 65.019531 224.558594 62.980469 221.109375 C 62.683594 220.484375 63.578125 219.691406 62.804688 219.699219 C 56.574219 220.449219 47.421875 218.925781 42.535156 221.816406 Z M 73.027344 218.117188 C 70.597656 217.535156 64.472656 218.71875 64.566406 220.582031 C 64.632812 221.882812 67.910156 223.257812 70.207031 223.578125 C 73.964844 224.105469 76.710938 223.839844 77.785156 221.640625 C 76.640625 220.230469 75.4375 218.691406 73.027344 218.117188 Z M 181.0625 44.515625 C 178.941406 44.421875 175.621094 45.015625 174.894531 43.636719 C 174.492188 42.871094 175.386719 42.082031 174.894531 41.695312 C 171.058594 42.613281 164.890625 44.976562 160.792969 46.804688 C 158.628906 47.773438 154.972656 50.574219 155.332031 46.457031 C 153.5625 47.367188 152.746094 49.34375 151.628906 50.859375 C 148.871094 54.605469 145.636719 59.855469 144.226562 64.609375 C 143.894531 65.726562 144.03125 67.238281 143.523438 68.132812 C 143.203125 68.691406 142.222656 68.898438 141.9375 69.542969 C 141.785156 77.214844 141.886719 84.632812 143.875 90.164062 C 144.105469 91.15625 143.175781 90.992188 143.171875 91.75 C 145.800781 95.449219 148.714844 98.8125 151.804688 101.792969 C 152.863281 102.816406 154.378906 103.695312 154.625 105.320312 C 153.796875 105.96875 153.058594 105.027344 152.160156 105.847656 C 147.691406 104.488281 141.84375 103.21875 135.769531 102.675781 C 129.125 102.082031 122.21875 100.878906 114.617188 101.265625 C 107.636719 101.625 100.390625 102.601562 94.527344 104.613281 C 88.386719 106.726562 82.585938 109.46875 79.722656 113.25 C 78.625 114.703125 76.792969 118.054688 77.433594 120.652344 C 78.429688 124.714844 85.734375 123.726562 86.242188 128.054688 C 83.703125 127.25 82.203125 125.398438 79.546875 124.707031 C 79.867188 147.703125 79.726562 172.117188 79.722656 195.378906 C 79.722656 203.402344 80.445312 211.542969 79.722656 219.171875 C 79.628906 220.152344 79.035156 220.585938 79.546875 221.289062 C 83.617188 219.953125 93.960938 220.851562 91.707031 225.695312 C 94.578125 225.644531 93.964844 229.074219 97.699219 228.160156 C 98.839844 228.902344 99.238281 230.382812 99.992188 231.507812 C 101.058594 232.148438 102.230469 232.679688 102.632812 233.976562 C 104.496094 231.902344 105.960938 229.429688 109.507812 229.042969 C 111.433594 230.054688 109.78125 234.644531 111.796875 235.5625 C 114.359375 234.960938 114.40625 230.996094 117.261719 231.332031 C 119.933594 231.648438 119.441406 236.863281 120.964844 239.085938 C 122.402344 239.125 122.992188 238.152344 124.488281 238.382812 C 125.683594 238.566406 126.273438 240.152344 127.308594 240.320312 C 128.183594 240.464844 129.832031 239.753906 131.1875 239.441406 C 132.484375 239.140625 133.957031 238.753906 135.238281 238.734375 C 137.058594 238.710938 138.347656 239.476562 139.46875 239.617188 C 142.617188 240.015625 145.117188 238.515625 147.753906 237.855469 C 149.457031 237.425781 151.234375 236.84375 152.863281 236.269531 C 158.253906 234.363281 162.191406 232.570312 165.023438 229.570312 C 165.859375 229.5 166.285156 229.539062 167.140625 229.21875 C 167.460938 228.425781 168.191406 228.039062 168.019531 226.75 C 165.59375 226.46875 166.742188 223.675781 166.433594 221.289062 C 166.316406 220.378906 165.835938 219.6875 165.730469 218.820312 C 165.292969 215.261719 165.730469 211.210938 165.730469 207.1875 C 165.722656 180.632812 165.734375 151.410156 165.730469 125.765625 C 162.996094 127.269531 158.449219 130.339844 154.273438 129.816406 C 160.269531 126.59375 167.53125 124.625 168.726562 116.597656 C 167.09375 116.09375 167.476562 114.707031 166.609375 113.601562 C 165.746094 112.496094 163.265625 111.167969 161.324219 110.253906 C 159.96875 109.617188 155.445312 108.574219 155.507812 107.257812 C 155.554688 106.207031 157.726562 105.878906 158.855469 105.671875 C 161.074219 105.265625 164.574219 104.261719 166.609375 105.144531 C 167.46875 105.515625 167.246094 106.15625 167.84375 106.375 C 173.050781 105.121094 177.234375 102.839844 182.472656 101.617188 C 183.265625 102 182.769531 103.671875 183.179688 104.4375 C 187.476562 101.628906 190.304688 97.351562 193.929688 93.863281 C 194.910156 93.613281 194.980469 94.929688 195.515625 94.570312 C 197.082031 90.789062 197.761719 86.125 199.214844 82.230469 C 199.785156 81.492188 201.03125 82.933594 201.152344 82.054688 C 201.003906 75.15625 200.632812 68.476562 200.273438 61.789062 C 200.785156 61.300781 201.441406 60.960938 202.566406 61.082031 C 201.574219 59.117188 200.082031 57.171875 198.15625 54.738281 C 196.867188 53.105469 193.316406 50.261719 193.398438 48.570312 C 193.457031 47.382812 194.863281 47.289062 195.160156 46.277344 C 191.804688 45.71875 185.75 44.722656 181.0625 44.515625 Z M 177.535156 40.109375 C 177.863281 41.058594 177.238281 41.699219 177.007812 42.578125 C 181.722656 42.460938 186.253906 42.894531 190.402344 43.636719 C 193.347656 44.160156 196.449219 44.078125 198.511719 45.75 C 198.417969 47.597656 196.445312 47.5625 195.691406 48.746094 C 198.242188 51.890625 201.09375 55.054688 203.445312 58.617188 C 204.164062 59.703125 205.292969 60.910156 205.207031 62.316406 C 205.035156 63.375 203.335938 62.914062 202.210938 63.023438 C 202.757812 68.742188 202.847656 75.667969 203.09375 81.527344 C 203.148438 82.871094 203.621094 84.3125 202.738281 85.402344 C 201.71875 85.902344 201.128906 84.90625 200.449219 84.523438 C 200.078125 87.359375 197.929688 92.804688 196.925781 95.800781 C 196.511719 97.027344 196.792969 98.722656 195.515625 98.800781 C 194.265625 98.875 194.355469 97.550781 194.105469 96.683594 C 191.296875 99.429688 189.054688 102.265625 185.820312 104.792969 C 184.628906 105.722656 183.292969 107.109375 181.589844 107.257812 C 180.84375 106.710938 181.097656 105.167969 181.0625 103.910156 C 176.109375 105.597656 171.472656 107.597656 166.082031 108.84375 C 165.226562 108.816406 165.390625 107.773438 165.375 106.90625 C 163.34375 106.8125 161.738281 107.144531 160.089844 107.433594 C 163.429688 109.265625 167.414062 110.445312 168.902344 114.132812 C 169.019531 114.285156 169.996094 113.617188 170.3125 114.308594 C 170.8125 118.191406 168.972656 121.171875 167.492188 123.648438 C 167.496094 145.507812 167.488281 171.289062 167.492188 194.320312 C 167.492188 202.464844 166.730469 210.707031 167.492188 217.761719 C 167.625 219 168.285156 220.226562 168.375 221.464844 C 168.429688 222.269531 168.011719 223.316406 168.195312 224.105469 C 168.46875 225.273438 169.835938 225.386719 169.960938 226.925781 C 170.144531 229.277344 168.265625 231.21875 165.730469 231.332031 C 163.074219 234.5625 158.269531 236.3125 153.214844 238.03125 C 151.496094 238.613281 149.714844 239.347656 147.929688 239.792969 C 145.070312 240.503906 143.207031 241.496094 139.644531 241.378906 C 139.039062 241.714844 138.21875 243.195312 137.179688 243.671875 C 134.980469 244.675781 131.820312 244.171875 129.421875 245.257812 C 128.609375 245.625 128.148438 246.496094 127.484375 246.84375 C 126.007812 247.613281 122.769531 247.539062 120.082031 247.722656 C 113.273438 248.1875 105.183594 248.4375 98.050781 248.429688 C 92.554688 248.421875 87.824219 249.265625 83.070312 249.664062 C 78.148438 250.074219 73.199219 250.394531 67.914062 250.71875 C 63.210938 251.007812 57.925781 250.828125 52.40625 250.71875 C 47.289062 250.617188 35.671875 250.621094 40.246094 245.082031 C 42.75 242.046875 48.859375 241.671875 52.582031 240.851562 C 47.730469 238.464844 40.488281 238.09375 34.605469 236.089844 C 33.078125 235.574219 30.5 234.476562 30.375 232.917969 C 30.128906 229.839844 35.363281 227.976562 38.128906 227.457031 C 42.328125 226.664062 46.1875 226.914062 49.9375 226.222656 C 48.03125 223.800781 40.640625 225.605469 40.949219 221.464844 C 41.21875 217.886719 53.457031 218.128906 58.042969 218.117188 C 59.808594 218.109375 62.238281 218.277344 63.15625 219.171875 C 66.308594 215.636719 75.214844 215.125 78.136719 219.171875 C 77.8125 190.363281 77.964844 160.253906 77.960938 130.523438 C 77.960938 128.554688 78.425781 126.265625 78.136719 124.882812 C 77.78125 123.175781 75.851562 122.636719 75.492188 121.003906 C 74.769531 117.71875 76.875 113.589844 78.3125 111.839844 C 81.757812 107.648438 87.523438 105.035156 93.644531 102.851562 C 102.304688 99.765625 113.363281 98.734375 124.664062 99.503906 C 127.789062 99.714844 130.722656 100.476562 133.828125 100.738281 C 139.902344 101.242188 145.730469 101.949219 150.75 103.382812 C 147.210938 99.695312 142.792969 95.359375 140.351562 89.988281 C 140.472656 89.347656 141.382812 89.492188 141.582031 88.929688 C 139.867188 83.160156 139.582031 74.367188 140.351562 67.25 C 140.460938 66.429688 141.289062 66.601562 141.9375 66.722656 C 143.347656 59.21875 147.558594 53.660156 151.277344 48.21875 C 152.484375 46.453125 153.582031 44.140625 156.035156 43.8125 C 156.765625 44.257812 157.242188 44.953125 157.09375 46.277344 C 161.890625 44.050781 168.933594 41.347656 174.894531 39.757812 C 175.511719 39.59375 176.777344 39.296875 177.535156 40.109375 " fill-opacity="1" fill-rule="evenodd"/></g><path fill="#a9a0f0" d="M 190.757812 64.960938 C 188.316406 60.652344 185.515625 56.246094 181.589844 53.679688 C 178.769531 51.835938 174.863281 51.125 170.136719 52.445312 C 162.296875 54.632812 151.957031 63.832031 150.925781 73.066406 C 150.171875 79.796875 152.03125 87.265625 154.976562 91.042969 C 157.582031 94.382812 159.789062 95.910156 165.90625 95.625 C 167.546875 95.550781 169.3125 95.519531 170.488281 95.273438 C 175.511719 94.234375 181.539062 88.4375 182.472656 82.582031 C 183.148438 78.335938 181.171875 73.015625 178.417969 70.777344 C 171.066406 64.792969 159.304688 71.050781 160.796875 79.941406 C 161.175781 82.199219 162.644531 83.324219 164.144531 85.402344 C 169.4375 86.734375 176.566406 82.9375 172.25 78.53125 C 169.675781 78.480469 167.796875 79.128906 167.667969 81.527344 C 167.683594 82.824219 168.945312 80.625 169.429688 81.878906 C 167.867188 85.953125 164.835938 82.308594 166.433594 79.234375 C 166.96875 78.207031 169.9375 75.96875 172.957031 76.945312 C 177.0625 78.269531 175.203125 84.679688 172.425781 86.109375 C 170.382812 87.160156 165.863281 88.097656 163.4375 86.992188 C 161.738281 86.214844 159.355469 82.175781 159.03125 80.117188 C 158.203125 74.820312 162.054688 69.859375 165.023438 68.132812 C 170.710938 64.828125 178.136719 67.15625 181.238281 71.128906 C 183.027344 73.417969 184.730469 77.957031 184.234375 82.40625 C 184.019531 84.363281 182.929688 87.113281 181.945312 88.753906 C 180.238281 91.59375 175.921875 95.605469 171.542969 96.859375 C 169.285156 97.507812 162.148438 98.0625 159.738281 97.210938 C 157.625 96.46875 155.070312 94.25 153.746094 92.628906 C 150.363281 88.507812 148.605469 81.019531 148.988281 74.125 C 149.34375 67.667969 153.566406 61.625 157.621094 57.910156 C 161.871094 54.023438 167.574219 50.410156 174.1875 49.804688 C 178.746094 49.386719 181.984375 51.425781 184.761719 54.03125 C 187.953125 57.023438 190.726562 59.105469 190.757812 64.960938 " fill-opacity="1" fill-rule="evenodd"/><path fill="#a9a0f0" d="M 191.460938 70.246094 C 191.636719 70.246094 191.8125 70.246094 191.988281 70.246094 C 194.386719 73.691406 193.132812 82.144531 189.875 83.113281 C 191.1875 79.546875 192.394531 74.484375 191.460938 70.246094 " fill-opacity="1" fill-rule="evenodd"/><path fill="#a9a0f0" d="M 104.925781 123.296875 C 104.734375 123.753906 104.289062 123.949219 104.21875 124.527344 C 106.785156 124.667969 108.851562 125.304688 111.269531 125.585938 C 112.101562 124.421875 114.183594 124.503906 115.148438 123.472656 C 111.648438 123.585938 107.699219 124.933594 104.925781 123.296875 Z M 136.648438 124.882812 C 138.839844 124.722656 140.578125 124.109375 142.640625 123.824219 C 142.351562 122.121094 140.660156 121.8125 138.765625 121.710938 C 138.519531 123.226562 137.128906 123.597656 136.648438 124.882812 Z M 121.140625 120.828125 C 119.175781 122.625 116.976562 124.183594 114.796875 125.765625 C 119.089844 125.757812 123.070312 126.0625 127.484375 125.9375 C 127.140625 122.464844 123.875 121.910156 121.140625 120.828125 Z M 126.78125 121.355469 C 127.601562 122.53125 129.867188 123.75 128.71875 125.765625 C 130.878906 125.867188 132.429688 125.363281 134.359375 125.234375 C 134.785156 123.542969 136.433594 123.078125 137.003906 121.53125 C 135.078125 118.929688 129.433594 120.511719 126.78125 121.355469 Z M 105.277344 120.125 C 105.183594 120.804688 105.59375 120.984375 105.453125 121.710938 C 108.472656 122.910156 114.09375 122.332031 116.558594 120.828125 C 114.488281 118.84375 108.242188 119.109375 105.277344 120.125 Z M 95.9375 122.589844 C 98.351562 123.054688 100.472656 123.8125 102.988281 124.175781 C 102.988281 122.769531 103.945312 122.316406 103.867188 120.828125 C 101.921875 117.34375 96.621094 120.332031 95.9375 122.589844 Z M 121.316406 117.832031 C 121.132812 115.175781 115.335938 115.828125 114.445312 118.007812 C 116.246094 118.496094 118.035156 118.996094 118.320312 121.003906 C 119.171875 120 121.417969 119.3125 121.316406 117.832031 Z M 141.410156 118.890625 C 139.949219 118.144531 138.859375 115.539062 137.179688 115.367188 C 135.136719 115.152344 133.363281 117.152344 131.1875 117.304688 C 125.644531 117.6875 123.335938 114.335938 119.554688 111.839844 C 112.886719 111.535156 110.882812 117.800781 103.867188 116.953125 C 101.394531 116.652344 99.042969 114.867188 96.464844 115.367188 C 93.515625 115.9375 92.023438 119.203125 89.417969 120.300781 C 91.175781 120.890625 92.855469 121.558594 94.703125 122.0625 C 95.714844 118.75 101.609375 115.851562 104.574219 119.242188 C 106.382812 117.703125 109.761719 117.734375 113.210938 117.832031 C 114.019531 113.140625 125.128906 113.832031 122.375 119.59375 C 123.503906 120.109375 124.914062 120.34375 125.898438 121.003906 C 127.984375 118.15625 136.417969 117.375 138.589844 120.652344 C 141.472656 119.457031 143.675781 121.558594 144.757812 123.296875 C 146.773438 122.785156 148.628906 122.117188 150.75 121.710938 C 150.414062 120.402344 149.746094 119.421875 148.8125 118.714844 C 146.117188 118.652344 143.945312 120.179688 141.410156 118.890625 Z M 89.0625 120.125 C 89.542969 119.960938 88.59375 119.796875 88.886719 119.242188 C 91.429688 117.257812 93.101562 114.382812 96.113281 113.777344 C 99.703125 113.058594 102.945312 115.675781 105.984375 115.367188 C 110.921875 114.855469 114.050781 109.515625 119.023438 110.078125 C 122.292969 110.445312 124.265625 114.058594 126.957031 115.011719 C 128.375 115.515625 130.253906 115.667969 131.363281 115.542969 C 133.417969 115.308594 135.441406 113.363281 137.53125 113.601562 C 139.78125 113.859375 140.917969 116.46875 142.640625 117.480469 C 145.222656 117.652344 146.816406 116.835938 149.339844 116.953125 C 151.066406 117.632812 151.609375 119.496094 152.6875 120.828125 C 154.5625 120.585938 156.035156 119.945312 157.625 119.417969 C 153.492188 116.320312 146.851562 115.738281 141.9375 113.425781 C 143.035156 112.699219 144.714844 113.042969 145.992188 113.25 C 150.507812 113.980469 156.203125 116.148438 159.210938 118.535156 C 160.136719 118.113281 160.917969 117.542969 162.203125 117.480469 C 163.050781 119.351562 160.828125 119.734375 159.738281 120.300781 C 156.148438 122.160156 151.765625 123.261719 147.226562 124.527344 C 137.265625 127.3125 126.824219 128.257812 114.089844 127.703125 C 103.167969 127.222656 89.308594 123.667969 83.425781 119.242188 C 82.402344 118.476562 81.492188 117.332031 80.957031 116.246094 C 82.59375 115.160156 83.664062 117.316406 84.835938 117.832031 C 87.847656 115.140625 91.96875 112.632812 96.644531 112.191406 C 93.996094 115.066406 89.050781 115.644531 86.421875 118.535156 C 87.050781 119.316406 88.339844 119.4375 89.0625 120.125 " fill-opacity="1" fill-rule="evenodd"/><path fill="#a9a0f0" d="M 137 132.109375 C 129.875 135.410156 118.476562 136.15625 107.570312 135.105469 C 102.683594 134.632812 97.882812 134.136719 94.175781 132.8125 C 95.019531 131.84375 97.164062 132.457031 98.757812 132.636719 C 106.4375 133.511719 115.898438 134.519531 124.3125 133.695312 C 128.683594 133.265625 132.011719 132 137 132.109375 " fill-opacity="1" fill-rule="evenodd"/><path fill="#a9a0f0" d="M 158.328125 146.382812 C 150.941406 149.515625 140.707031 151.671875 130.480469 150.789062 C 131.183594 149.808594 133.394531 150.3125 134.535156 150.261719 C 142.949219 149.890625 150.390625 147.429688 158.328125 146.382812 " fill-opacity="1" fill-rule="evenodd"/><path fill="#a9a0f0" d="M 131.714844 163.480469 C 122.972656 164.394531 113.613281 163.808594 105.101562 162.597656 C 99.5625 161.8125 94.101562 161.242188 89.769531 159.25 C 89.769531 159.074219 89.769531 158.898438 89.769531 158.722656 C 89.910156 158.6875 89.945312 158.542969 90.121094 158.546875 C 100.542969 161.414062 113.394531 162.359375 126.605469 162.773438 C 128.308594 162.828125 130.242188 162.476562 131.714844 163.480469 " fill-opacity="1" fill-rule="evenodd"/><path fill="#a9a0f0" d="M 150.21875 175.992188 C 139.742188 179.664062 123.167969 180.296875 109.15625 178.8125 C 107.402344 178.625 105.394531 178.605469 104.042969 177.578125 C 119.617188 179.023438 136.257812 178.167969 150.21875 175.992188 " fill-opacity="1" fill-rule="evenodd"/><path fill="#a9a0f0" d="M 122.550781 191.855469 C 117.054688 193.90625 108.550781 194.132812 101.046875 193.792969 C 97.707031 193.640625 94.304688 193.984375 91.707031 192.734375 C 93.222656 191.957031 94.757812 192.492188 96.289062 192.558594 C 105.117188 192.960938 114.5 192.207031 122.550781 191.855469 " fill-opacity="1" fill-rule="evenodd"/><path fill="#a9a0f0" d="M 151.804688 205.25 C 144.429688 207.367188 133.820312 208.664062 124.3125 208.246094 C 122.402344 208.160156 120.054688 208.164062 118.496094 207.363281 C 119.421875 206.265625 120.773438 206.964844 121.84375 207.011719 C 131.847656 207.449219 142.28125 205.4375 151.804688 205.25 " fill-opacity="1" fill-rule="evenodd"/><path fill="#a9a0f0" d="M 122.375 220.230469 C 114.578125 220.871094 104.804688 219.984375 98.230469 217.761719 C 98.121094 217.605469 98.015625 217.445312 98.230469 217.410156 C 98.371094 217.375 98.402344 217.234375 98.582031 217.234375 C 105.480469 218.253906 112.511719 218.769531 120.082031 219.523438 C 120.78125 219.59375 121.957031 219.402344 122.375 220.230469 " fill-opacity="1" fill-rule="evenodd"/><path fill="#a9a0f0" d="M 65.800781 229.21875 C 64.214844 229.34375 61.898438 230.339844 62.097656 232.039062 C 62.261719 233.429688 65.542969 234.957031 67.210938 235.386719 C 70.246094 236.171875 74.835938 235.8125 76.023438 233.800781 C 76.023438 233.035156 76.023438 232.273438 76.023438 231.507812 C 73.328125 230.699219 69.640625 228.910156 65.800781 229.21875 Z M 65.449219 227.632812 C 67.210938 227.445312 69.78125 227.664062 72.320312 228.511719 C 74.160156 229.128906 76.867188 229.589844 77.433594 230.980469 C 79.894531 237.039062 71.496094 238.300781 66.679688 236.972656 C 64.984375 236.503906 60.734375 234.457031 60.335938 232.742188 C 59.464844 228.984375 63.144531 227.875 65.449219 227.632812 " fill-opacity="1" fill-rule="evenodd"/><g clip-path="url(#8edaf62094)"><path fill="#a9a0f0" d="M 237.8125 250.542969 C 232.890625 250.128906 228.359375 247.824219 224.066406 247.722656 C 221.066406 247.652344 217.828125 248.117188 214.726562 248.253906 C 210.378906 248.441406 206.003906 248.375 201.507812 248.78125 C 201.15625 248.957031 201.851562 250.160156 201.332031 250.542969 C 199.097656 251.777344 195.613281 251.757812 194.457031 254.070312 C 199.09375 254.828125 204.929688 254.660156 210.140625 254.421875 C 216.4375 254.132812 223.257812 253.109375 227.0625 256.183594 C 227.351562 257.203125 226.484375 257.722656 226.886719 258.296875 C 232.820312 259 241.175781 259.714844 246.273438 257.769531 C 245.726562 256.230469 242.257812 256.316406 242.746094 254.246094 C 243.277344 252.003906 249.460938 253.921875 248.5625 250.191406 C 244.699219 250.523438 241.363281 250.84375 237.8125 250.542969 Z M 177.363281 242.789062 C 167.375 243.886719 155.910156 244.671875 145.8125 246.136719 C 142.449219 246.625 138.386719 246.835938 135.945312 247.898438 C 134.832031 248.382812 131.847656 250.300781 132.066406 251.777344 C 132.382812 253.914062 139.898438 254.253906 142.113281 254.246094 C 154.441406 254.191406 165.40625 251.503906 175.421875 250.015625 C 182.957031 248.894531 190.539062 248.292969 197.980469 247.546875 C 201.703125 247.175781 205.601562 246.746094 209.613281 246.667969 C 213.601562 246.589844 217.832031 246.734375 221.773438 246.3125 C 222.910156 246.195312 224.0625 245.738281 225.121094 245.785156 C 229.066406 245.953125 232.484375 248.070312 236.929688 248.605469 C 245.070312 249.585938 256.289062 248.320312 262.132812 245.609375 C 264.304688 244.601562 268.195312 241.898438 268.125 239.265625 C 268.011719 234.808594 258.261719 231.675781 254.730469 230.804688 C 243.316406 227.984375 230.453125 230.808594 224.242188 236.089844 C 222.9375 237.199219 222.125 238.707031 221.070312 240.144531 C 207.226562 241.683594 191.828125 241.199219 177.363281 242.789062 Z M 250.503906 250.015625 C 251.089844 253.328125 248.046875 254.15625 245.390625 254.773438 C 245.988281 255.769531 248.183594 255.714844 248.035156 257.769531 C 247.765625 261.472656 235.472656 260.722656 230.585938 260.414062 C 227.550781 260.21875 223.554688 259.75 225.476562 256.710938 C 218.066406 254.703125 207.304688 256.609375 197.804688 256.007812 C 195.597656 255.867188 192.886719 255.839844 192.695312 254.246094 C 192.390625 251.6875 197.605469 250.160156 199.921875 249.488281 C 194.109375 249.230469 188.101562 250.253906 182.121094 250.894531 C 169.988281 252.203125 160.367188 254.890625 147.046875 255.65625 C 142.023438 255.941406 128.1875 256.851562 130.65625 250.191406 C 131.171875 248.804688 133.746094 246.976562 135.238281 246.3125 C 137.535156 245.296875 141.648438 244.84375 144.933594 244.375 C 168 241.070312 195.328125 239.828125 219.835938 238.734375 C 224.449219 231.871094 233.636719 227.972656 244.863281 227.984375 C 252.871094 227.992188 261.4375 230.121094 266.363281 233.800781 C 268.566406 235.445312 270.726562 237.03125 269.535156 241.027344 C 269.246094 241.996094 268.207031 243.285156 267.421875 244.023438 C 263.769531 247.464844 256.582031 249.441406 250.503906 250.015625 " fill-opacity="1" fill-rule="evenodd"/></g><path fill="#a9a0f0" d="M 155.859375 229.746094 C 156.332031 232.027344 153.390625 232.746094 151.453125 233.449219 C 148.484375 234.523438 145.417969 235.667969 141.410156 235.035156 C 145.753906 233.214844 151.464844 233.015625 154.980469 230.277344 C 155.238281 230.074219 155.15625 229.417969 155.859375 229.746094 " fill-opacity="1" fill-rule="evenodd"/><path fill="#a9a0f0" d="M 239.929688 235.738281 C 239.183594 237.933594 235.5 237.1875 234.109375 238.734375 C 240.632812 239.902344 248.640625 239.242188 255.085938 238.382812 C 253.476562 237.054688 249.625 237.96875 248.917969 235.738281 C 251.90625 235.414062 255.441406 236.007812 256.847656 237.855469 C 257.660156 237.703125 258.769531 236.859375 259.492188 237.679688 C 259.503906 239.875 256.460938 240.003906 254.378906 240.320312 C 250.652344 240.894531 246.453125 241.367188 242.042969 241.378906 C 238.535156 241.386719 232.363281 241.488281 229.882812 240.144531 C 229.207031 239.78125 228.5 239.050781 228.648438 238.207031 C 229.625 237.265625 230.71875 238.53125 231.644531 238.734375 C 233.378906 236.921875 236.78125 234.976562 239.929688 235.738281 " fill-opacity="1" fill-rule="evenodd"/></svg>