<svg xmlns="http://www.w3.org/2000/svg" xmlns:xlink="http://www.w3.org/1999/xlink" width="400" zoomAndPan="magnify" viewBox="0 0 300 299.999988" height="400" preserveAspectRatio="xMidYMid meet" version="1.0"><defs><clipPath id="3b810cfd5d"><path d="M 30 51.601562 L 270 51.601562 L 270 248.101562 L 30 248.101562 Z M 30 51.601562 " clip-rule="nonzero"/></clipPath></defs><path fill="#a9a0f0" d="M 238.6875 65.035156 C 228.414062 65.035156 217.5 68.1875 217.5 74.027344 C 217.5 79.863281 228.414062 83.015625 238.6875 83.015625 C 248.960938 83.015625 259.878906 79.863281 259.878906 74.027344 C 259.878906 68.1875 248.960938 65.035156 238.6875 65.035156 Z M 238.6875 80.441406 C 228.035156 80.441406 220.074219 77.054688 220.074219 74.027344 C 220.074219 71 228.035156 67.609375 238.6875 67.609375 C 249.34375 67.609375 257.304688 71 257.304688 74.027344 C 257.304688 77.054688 249.34375 80.441406 238.6875 80.441406 Z M 238.6875 80.441406 " fill-opacity="1" fill-rule="nonzero"/><path fill="#a9a0f0" d="M 244.800781 161.859375 C 244.199219 161.3125 243.539062 160.835938 242.84375 160.441406 C 243.539062 160.046875 244.199219 159.570312 244.800781 159.023438 C 246.867188 157.160156 248.007812 154.757812 247.847656 152.59375 C 247.804688 151.949219 247.285156 151.4375 246.640625 151.402344 C 244.335938 151.261719 241.761719 152.277344 239.742188 154.101562 C 238.863281 154.894531 238.136719 155.808594 237.617188 156.761719 C 230.878906 151.742188 221.148438 148.886719 210.59375 148.886719 C 206.054688 148.886719 201.636719 149.417969 197.457031 150.46875 C 190.410156 152.238281 184.339844 155.464844 180.371094 159.550781 C 179.882812 160.050781 179.882812 160.84375 180.367188 161.34375 C 181.609375 162.621094 183.054688 163.816406 184.671875 164.910156 C 188.226562 167.308594 192.609375 169.214844 197.457031 170.429688 C 201.628906 171.480469 206.050781 172.011719 210.59375 172.011719 C 221.15625 172.011719 230.886719 169.15625 237.621094 164.132812 C 238.140625 165.085938 238.863281 165.992188 239.742188 166.78125 C 241.765625 168.609375 244.347656 169.621094 246.644531 169.480469 C 247.285156 169.441406 247.804688 168.933594 247.847656 168.289062 C 248.007812 166.125 246.867188 163.722656 244.800781 161.859375 Z M 184.425781 159.355469 C 184.457031 159.332031 184.488281 159.304688 184.519531 159.28125 C 184.949219 158.941406 185.402344 158.613281 185.867188 158.292969 C 185.917969 158.257812 185.972656 158.21875 186.027344 158.179688 C 186.484375 157.871094 186.957031 157.570312 187.441406 157.277344 C 187.511719 157.234375 187.582031 157.191406 187.652344 157.152344 C 188.136719 156.863281 188.632812 156.589844 189.144531 156.320312 C 189.222656 156.277344 189.304688 156.238281 189.386719 156.195312 C 189.898438 155.933594 190.421875 155.675781 190.960938 155.433594 C 191.042969 155.394531 191.128906 155.359375 191.210938 155.320312 C 191.757812 155.078125 192.3125 154.84375 192.882812 154.621094 C 192.960938 154.589844 193.039062 154.5625 193.121094 154.53125 C 193.703125 154.308594 194.296875 154.09375 194.898438 153.890625 C 194.960938 153.871094 195.027344 153.851562 195.089844 153.832031 C 195.714844 153.625 196.355469 153.429688 197.003906 153.25 C 197.011719 153.246094 197.019531 153.246094 197.027344 153.242188 C 197.941406 155.535156 198.402344 157.953125 198.402344 160.449219 C 198.402344 162.953125 197.941406 165.371094 197.027344 167.65625 C 197.023438 167.652344 197.019531 167.652344 197.015625 167.652344 C 196.359375 167.46875 195.714844 167.273438 195.078125 167.0625 C 195.019531 167.046875 194.960938 167.027344 194.90625 167.007812 C 194.300781 166.808594 193.703125 166.59375 193.121094 166.367188 C 193.042969 166.335938 192.960938 166.308594 192.882812 166.277344 C 192.316406 166.054688 191.761719 165.824219 191.21875 165.582031 C 191.132812 165.542969 191.042969 165.503906 190.957031 165.464844 C 190.421875 165.21875 189.902344 164.96875 189.394531 164.707031 C 189.308594 164.664062 189.222656 164.617188 189.140625 164.574219 C 188.632812 164.308594 188.140625 164.035156 187.660156 163.75 C 187.585938 163.707031 187.511719 163.660156 187.4375 163.617188 C 186.953125 163.324219 186.488281 163.027344 186.035156 162.71875 C 185.976562 162.679688 185.917969 162.640625 185.863281 162.597656 C 185.402344 162.28125 184.953125 161.953125 184.523438 161.617188 C 184.492188 161.589844 184.457031 161.5625 184.425781 161.535156 C 183.980469 161.179688 183.550781 160.820312 183.144531 160.445312 C 183.546875 160.074219 183.980469 159.710938 184.425781 159.355469 Z M 237.324219 161.082031 C 231.128906 166.316406 221.136719 169.4375 210.59375 169.4375 C 206.789062 169.4375 203.078125 169.046875 199.539062 168.277344 C 200.488281 165.785156 200.972656 163.160156 200.972656 160.449219 C 200.972656 157.742188 200.488281 155.117188 199.539062 152.621094 C 203.082031 151.851562 206.792969 151.460938 210.59375 151.460938 C 221.132812 151.460938 231.121094 154.582031 237.324219 159.8125 C 237.640625 160.082031 238.066406 160.179688 238.464844 160.078125 C 238.441406 160.21875 238.441406 160.359375 238.464844 160.496094 C 238.457031 160.601562 238.460938 160.710938 238.480469 160.820312 C 238.078125 160.714844 237.644531 160.8125 237.324219 161.082031 Z M 241.46875 156.011719 C 242.554688 155.027344 243.867188 154.347656 245.121094 154.085938 C 244.808594 155.117188 244.09375 156.199219 243.078125 157.117188 C 242.011719 158.078125 240.726562 158.757812 239.464844 159.03125 C 239.453125 159.035156 239.441406 159.035156 239.429688 159.039062 C 239.75 157.984375 240.46875 156.914062 241.46875 156.011719 Z M 241.46875 164.871094 C 240.464844 163.96875 239.746094 162.898438 239.429688 161.84375 C 239.441406 161.847656 239.457031 161.851562 239.472656 161.851562 C 240.730469 162.128906 242.011719 162.808594 243.078125 163.769531 C 244.09375 164.683594 244.808594 165.769531 245.121094 166.800781 C 243.871094 166.539062 242.558594 165.855469 241.46875 164.871094 Z M 241.46875 164.871094 " fill-opacity="1" fill-rule="nonzero"/><path fill="#a9a0f0" d="M 190.488281 157.296875 C 188.75 157.296875 187.335938 158.710938 187.335938 160.449219 C 187.335938 162.1875 188.75 163.601562 190.488281 163.601562 C 192.226562 163.601562 193.640625 162.1875 193.640625 160.449219 C 193.640625 158.710938 192.226562 157.296875 190.488281 157.296875 Z M 190.488281 161.027344 C 190.171875 161.027344 189.910156 160.769531 189.910156 160.449219 C 189.910156 160.132812 190.171875 159.871094 190.488281 159.871094 C 190.808594 159.871094 191.066406 160.132812 191.066406 160.449219 C 191.066406 160.769531 190.808594 161.027344 190.488281 161.027344 Z M 190.488281 161.027344 " fill-opacity="1" fill-rule="nonzero"/><g clip-path="url(#3b810cfd5d)"><path fill="#a9a0f0" d="M 269.882812 73.964844 C 269.804688 61.410156 245.257812 51.585938 213.933594 51.585938 C 182.558594 51.585938 157.984375 61.441406 157.984375 74.027344 C 157.984375 74.039062 157.984375 74.050781 157.984375 74.0625 L 157.984375 155.121094 C 157.234375 154.992188 156.464844 154.863281 155.65625 154.734375 C 141.867188 152.566406 123.546875 151.375 104.070312 151.375 C 84.597656 151.375 66.277344 152.566406 52.484375 154.734375 C 30.109375 158.25 30.109375 162.640625 30.109375 164.082031 L 30.109375 235.699219 C 30.109375 237.140625 30.109375 241.53125 52.484375 245.046875 C 66.277344 247.214844 84.597656 248.40625 104.070312 248.40625 C 123.546875 248.40625 141.867188 247.214844 155.65625 245.046875 C 178.03125 241.527344 178.03125 237.140625 178.03125 235.699219 L 178.03125 223.972656 C 188.046875 227.292969 200.703125 229.113281 213.933594 229.113281 C 245.3125 229.113281 269.890625 219.257812 269.890625 206.671875 L 269.890625 74.027344 C 269.890625 74.007812 269.882812 73.988281 269.882812 73.964844 Z M 213.933594 54.160156 C 242.867188 54.160156 267.3125 63.257812 267.3125 74.027344 C 267.3125 84.792969 242.867188 93.890625 213.933594 93.890625 C 194.042969 93.890625 176.273438 89.59375 167.109375 83.40625 C 162.945312 80.59375 160.558594 77.390625 160.558594 74.027344 C 160.558594 74.023438 160.558594 74.019531 160.558594 74.015625 C 160.578125 63.25 185.011719 54.160156 213.933594 54.160156 Z M 161.53125 82.03125 C 161.742188 82.261719 161.960938 82.488281 162.191406 82.714844 C 162.3125 82.832031 162.4375 82.949219 162.5625 83.0625 C 162.769531 83.257812 162.984375 83.449219 163.203125 83.644531 C 163.339844 83.761719 163.476562 83.878906 163.617188 83.996094 C 163.859375 84.191406 164.105469 84.390625 164.359375 84.582031 C 164.492188 84.683594 164.617188 84.785156 164.75 84.882812 C 165.136719 85.167969 165.535156 85.453125 165.949219 85.730469 C 166.015625 85.773438 166.089844 85.816406 166.15625 85.859375 C 166.519531 86.097656 166.886719 86.332031 167.269531 86.566406 C 167.429688 86.660156 167.589844 86.753906 167.753906 86.847656 C 168.0625 87.027344 168.375 87.207031 168.695312 87.382812 C 168.875 87.480469 169.054688 87.578125 169.238281 87.675781 C 169.570312 87.851562 169.910156 88.027344 170.257812 88.199219 C 170.425781 88.285156 170.59375 88.371094 170.769531 88.453125 C 171.246094 88.683594 171.730469 88.910156 172.226562 89.132812 C 172.273438 89.152344 172.320312 89.175781 172.371094 89.195312 C 172.917969 89.441406 173.484375 89.675781 174.058594 89.910156 C 174.230469 89.976562 174.40625 90.042969 174.578125 90.113281 C 174.996094 90.277344 175.414062 90.4375 175.84375 90.597656 C 176.050781 90.671875 176.261719 90.75 176.46875 90.824219 C 176.894531 90.976562 177.328125 91.125 177.765625 91.269531 C 177.960938 91.339844 178.160156 91.40625 178.359375 91.472656 C 178.90625 91.648438 179.464844 91.824219 180.027344 91.992188 C 180.117188 92.019531 180.207031 92.050781 180.296875 92.078125 C 180.96875 92.277344 181.648438 92.46875 182.34375 92.65625 C 182.492188 92.695312 182.644531 92.734375 182.792969 92.773438 C 183.335938 92.917969 183.890625 93.058594 184.449219 93.195312 C 184.660156 93.246094 184.875 93.296875 185.089844 93.347656 C 185.609375 93.472656 186.140625 93.59375 186.671875 93.710938 C 186.882812 93.753906 187.09375 93.800781 187.304688 93.847656 C 187.925781 93.980469 188.558594 94.105469 189.191406 94.230469 C 189.308594 94.253906 189.421875 94.277344 189.542969 94.296875 C 190.320312 94.445312 191.109375 94.585938 191.910156 94.722656 C 191.992188 94.734375 192.078125 94.746094 192.164062 94.761719 C 192.859375 94.878906 193.5625 94.984375 194.273438 95.089844 C 194.480469 95.121094 194.691406 95.148438 194.898438 95.179688 C 195.511719 95.265625 196.128906 95.347656 196.75 95.425781 C 196.96875 95.453125 197.1875 95.480469 197.40625 95.503906 C 198.089844 95.585938 198.777344 95.664062 199.472656 95.734375 C 199.613281 95.75 199.753906 95.765625 199.898438 95.78125 C 201.601562 95.949219 203.34375 96.089844 205.113281 96.199219 C 205.304688 96.210938 205.5 96.21875 205.695312 96.230469 C 206.386719 96.269531 207.082031 96.304688 207.78125 96.335938 C 208.007812 96.34375 208.234375 96.351562 208.460938 96.363281 C 209.183594 96.390625 209.910156 96.410156 210.640625 96.425781 C 210.816406 96.429688 210.988281 96.433594 211.164062 96.4375 C 212.082031 96.457031 213.003906 96.464844 213.933594 96.464844 C 214.863281 96.464844 215.785156 96.453125 216.703125 96.4375 C 216.878906 96.433594 217.054688 96.429688 217.230469 96.425781 C 217.960938 96.410156 218.683594 96.386719 219.40625 96.359375 C 219.632812 96.351562 219.859375 96.34375 220.089844 96.335938 C 220.789062 96.304688 221.488281 96.269531 222.179688 96.230469 C 222.371094 96.21875 222.5625 96.210938 222.753906 96.199219 C 224.527344 96.089844 226.269531 95.949219 227.980469 95.777344 C 228.109375 95.765625 228.234375 95.753906 228.359375 95.738281 C 229.074219 95.667969 229.78125 95.585938 230.484375 95.503906 C 230.6875 95.480469 230.886719 95.453125 231.085938 95.429688 C 231.734375 95.347656 232.378906 95.261719 233.015625 95.171875 C 233.199219 95.144531 233.382812 95.121094 233.566406 95.09375 C 234.328125 94.984375 235.082031 94.867188 235.828125 94.742188 C 235.863281 94.738281 235.898438 94.730469 235.933594 94.726562 C 236.753906 94.589844 237.5625 94.445312 238.363281 94.292969 C 238.421875 94.28125 238.476562 94.269531 238.53125 94.257812 C 239.234375 94.125 239.929688 93.980469 240.617188 93.835938 C 240.785156 93.800781 240.945312 93.765625 241.109375 93.726562 C 241.703125 93.597656 242.292969 93.464844 242.871094 93.328125 C 243.035156 93.289062 243.195312 93.25 243.355469 93.210938 C 244 93.054688 244.636719 92.890625 245.261719 92.726562 C 245.332031 92.707031 245.402344 92.6875 245.472656 92.671875 C 246.894531 92.289062 248.265625 91.878906 249.585938 91.445312 C 249.714844 91.402344 249.839844 91.363281 249.964844 91.320312 C 250.488281 91.144531 251.007812 90.964844 251.515625 90.78125 C 251.652344 90.730469 251.792969 90.683594 251.929688 90.632812 C 252.460938 90.4375 252.980469 90.238281 253.492188 90.035156 C 253.574219 90.003906 253.660156 89.972656 253.742188 89.9375 C 254.945312 89.453125 256.09375 88.945312 257.179688 88.417969 C 257.269531 88.375 257.355469 88.328125 257.445312 88.285156 C 257.886719 88.070312 258.316406 87.847656 258.738281 87.621094 C 258.851562 87.5625 258.964844 87.5 259.074219 87.441406 C 259.488281 87.214844 259.890625 86.988281 260.28125 86.753906 C 260.363281 86.707031 260.449219 86.660156 260.53125 86.609375 C 261.480469 86.039062 262.363281 85.449219 263.183594 84.839844 C 263.238281 84.796875 263.292969 84.753906 263.347656 84.710938 C 263.6875 84.457031 264.015625 84.195312 264.328125 83.933594 C 264.414062 83.863281 264.496094 83.792969 264.582031 83.71875 C 264.871094 83.472656 265.148438 83.222656 265.414062 82.96875 C 265.484375 82.902344 265.558594 82.835938 265.625 82.769531 C 265.949219 82.457031 266.257812 82.140625 266.542969 81.820312 C 266.816406 81.515625 267.074219 81.210938 267.316406 80.902344 L 267.316406 113.242188 C 255.097656 119.929688 235.234375 123.90625 213.933594 123.90625 C 192.636719 123.90625 172.773438 119.929688 160.558594 113.242188 L 160.558594 80.898438 C 160.789062 81.195312 161.03125 81.488281 161.289062 81.773438 C 161.367188 81.859375 161.449219 81.945312 161.53125 82.03125 Z M 160.558594 116.160156 C 173.214844 122.644531 192.929688 126.480469 213.933594 126.480469 C 234.941406 126.480469 254.660156 122.644531 267.316406 116.160156 L 267.316406 183.285156 C 255.097656 189.96875 235.230469 193.945312 213.933594 193.945312 C 201.082031 193.945312 188.699219 192.511719 178.03125 189.800781 L 178.03125 174.101562 C 185.855469 181.125 199.234375 185.390625 213.933594 185.390625 C 237.539062 185.390625 256.742188 174.199219 256.742188 160.449219 C 256.742188 146.695312 237.539062 135.511719 213.933594 135.511719 C 202.703125 135.511719 192.105469 138 184.089844 142.523438 C 176.597656 146.746094 172.125 152.316406 171.289062 158.363281 C 168.769531 157.441406 165.308594 156.496094 160.558594 155.585938 Z M 173.757812 159.394531 C 174.757812 147.570312 192.46875 138.085938 213.933594 138.085938 C 236.117188 138.085938 254.167969 148.117188 254.167969 160.449219 C 254.167969 172.78125 236.117188 182.816406 213.933594 182.816406 C 198.894531 182.816406 184.882812 177.984375 178.03125 170.476562 L 178.03125 164.082031 C 178.03125 163.253906 178.023438 161.445312 173.757812 159.394531 Z M 52.882812 157.277344 C 66.546875 155.128906 84.726562 153.949219 104.070312 153.949219 C 123.417969 153.949219 141.59375 155.128906 155.257812 157.277344 C 171.238281 159.789062 175.457031 162.828125 175.457031 164.082031 C 175.457031 165.335938 171.238281 168.375 155.257812 170.886719 C 141.597656 173.03125 123.417969 174.214844 104.070312 174.214844 C 84.722656 174.214844 66.546875 173.03125 52.882812 170.886719 C 36.90625 168.375 32.683594 165.335938 32.683594 164.082031 C 32.683594 162.828125 36.90625 159.789062 52.882812 157.277344 Z M 175.457031 235.699219 C 175.457031 236.953125 171.234375 239.992188 155.257812 242.503906 C 141.59375 244.652344 123.417969 245.832031 104.070312 245.832031 C 84.726562 245.832031 66.546875 244.652344 52.882812 242.503906 C 36.90625 239.992188 32.683594 236.953125 32.683594 235.699219 L 32.683594 167.839844 C 32.71875 167.863281 32.761719 167.886719 32.796875 167.90625 C 32.886719 167.960938 32.976562 168.019531 33.070312 168.074219 C 33.160156 168.125 33.25 168.179688 33.347656 168.234375 C 33.449219 168.292969 33.554688 168.347656 33.660156 168.40625 C 33.761719 168.460938 33.863281 168.511719 33.96875 168.566406 C 34.082031 168.625 34.203125 168.683594 34.320312 168.742188 C 34.433594 168.796875 34.546875 168.851562 34.664062 168.90625 C 34.792969 168.964844 34.929688 169.027344 35.066406 169.085938 C 35.1875 169.140625 35.308594 169.195312 35.4375 169.246094 C 35.582031 169.308594 35.734375 169.371094 35.886719 169.433594 C 36.023438 169.488281 36.15625 169.539062 36.296875 169.59375 C 36.457031 169.65625 36.625 169.71875 36.792969 169.78125 C 36.941406 169.835938 37.089844 169.890625 37.246094 169.945312 C 37.421875 170.007812 37.605469 170.070312 37.792969 170.132812 C 37.953125 170.1875 38.113281 170.242188 38.28125 170.296875 C 38.476562 170.359375 38.683594 170.421875 38.886719 170.484375 C 39.0625 170.539062 39.234375 170.59375 39.417969 170.648438 C 39.632812 170.710938 39.859375 170.777344 40.082031 170.839844 C 40.273438 170.894531 40.457031 170.949219 40.65625 171.003906 C 40.886719 171.066406 41.136719 171.128906 41.378906 171.195312 C 41.585938 171.246094 41.78125 171.300781 41.996094 171.355469 C 42.25 171.421875 42.523438 171.484375 42.789062 171.550781 C 43.007812 171.601562 43.21875 171.65625 43.445312 171.707031 C 43.726562 171.773438 44.019531 171.839844 44.3125 171.902344 C 44.546875 171.957031 44.769531 172.007812 45.011719 172.058594 C 45.316406 172.125 45.640625 172.191406 45.960938 172.253906 C 46.203125 172.304688 46.441406 172.355469 46.691406 172.40625 C 47.03125 172.472656 47.394531 172.542969 47.75 172.609375 C 48 172.65625 48.238281 172.703125 48.496094 172.75 C 48.90625 172.828125 49.339844 172.902344 49.773438 172.976562 C 49.992188 173.015625 50.199219 173.054688 50.421875 173.09375 C 51.085938 173.207031 51.773438 173.316406 52.480469 173.429688 C 66.269531 175.59375 84.589844 176.789062 104.066406 176.789062 C 123.542969 176.789062 141.867188 175.597656 155.65625 173.429688 C 156.363281 173.316406 157.050781 173.203125 157.714844 173.09375 C 157.9375 173.054688 158.144531 173.015625 158.363281 172.976562 C 158.796875 172.902344 159.230469 172.828125 159.640625 172.75 C 159.898438 172.703125 160.136719 172.65625 160.386719 172.609375 C 160.742188 172.542969 161.105469 172.472656 161.445312 172.40625 C 161.699219 172.355469 161.933594 172.304688 162.175781 172.253906 C 162.496094 172.191406 162.820312 172.125 163.128906 172.058594 C 163.367188 172.007812 163.59375 171.953125 163.824219 171.902344 C 164.117188 171.839844 164.410156 171.773438 164.691406 171.707031 C 164.917969 171.65625 165.128906 171.601562 165.347656 171.550781 C 165.617188 171.484375 165.886719 171.421875 166.140625 171.355469 C 166.355469 171.300781 166.554688 171.25 166.757812 171.195312 C 167 171.128906 167.25 171.066406 167.484375 171.003906 C 167.679688 170.949219 167.867188 170.894531 168.054688 170.839844 C 168.28125 170.777344 168.503906 170.710938 168.71875 170.648438 C 168.902344 170.59375 169.074219 170.539062 169.25 170.484375 C 169.453125 170.421875 169.660156 170.359375 169.855469 170.296875 C 170.023438 170.242188 170.183594 170.1875 170.34375 170.132812 C 170.53125 170.070312 170.714844 170.007812 170.894531 169.945312 C 171.046875 169.890625 171.195312 169.835938 171.34375 169.78125 C 171.511719 169.71875 171.679688 169.65625 171.839844 169.59375 C 171.980469 169.539062 172.113281 169.488281 172.25 169.433594 C 172.402344 169.371094 172.554688 169.308594 172.699219 169.246094 C 172.828125 169.195312 172.949219 169.140625 173.074219 169.085938 C 173.210938 169.027344 173.34375 168.964844 173.472656 168.90625 C 173.589844 168.851562 173.703125 168.796875 173.816406 168.742188 C 173.9375 168.683594 174.054688 168.625 174.167969 168.566406 C 174.273438 168.511719 174.378906 168.460938 174.476562 168.40625 C 174.582031 168.347656 174.6875 168.292969 174.789062 168.234375 C 174.886719 168.179688 174.976562 168.125 175.066406 168.074219 C 175.160156 168.019531 175.253906 167.960938 175.339844 167.90625 C 175.375 167.886719 175.417969 167.863281 175.453125 167.839844 L 175.453125 235.699219 Z M 213.933594 226.539062 C 200.605469 226.539062 187.910156 224.660156 178.03125 221.25 L 178.03125 192.457031 C 188.757812 195.113281 201.125 196.519531 213.933594 196.519531 C 234.945312 196.519531 254.660156 192.679688 267.316406 186.191406 L 267.316406 206.671875 C 267.316406 217.441406 242.871094 226.539062 213.933594 226.539062 Z M 213.933594 226.539062 " fill-opacity="1" fill-rule="nonzero"/></g><path fill="#a9a0f0" d="M 147.8125 159.992188 C 142.960938 159.230469 136.523438 158.808594 129.6875 158.808594 C 122.851562 158.808594 116.414062 159.230469 111.5625 159.992188 C 104.058594 161.171875 103.046875 162.722656 103.046875 164.082031 C 103.046875 165.441406 104.058594 166.992188 111.5625 168.171875 C 116.414062 168.933594 122.851562 169.351562 129.6875 169.351562 C 136.523438 169.351562 142.960938 168.933594 147.8125 168.171875 C 155.3125 166.992188 156.324219 165.441406 156.324219 164.082031 C 156.324219 162.722656 155.3125 161.171875 147.8125 159.992188 Z M 129.6875 166.777344 C 116.800781 166.777344 108.011719 165.277344 105.929688 164.082031 C 108.011719 162.886719 116.800781 161.386719 129.6875 161.386719 C 142.570312 161.386719 151.359375 162.886719 153.445312 164.082031 C 151.363281 165.277344 142.574219 166.777344 129.6875 166.777344 Z M 129.6875 166.777344 " fill-opacity="1" fill-rule="nonzero"/><path fill="#a9a0f0" d="M 104.070312 190.109375 C 72.398438 190.109375 47.585938 199.757812 47.585938 212.078125 C 47.585938 224.398438 72.398438 234.050781 104.070312 234.050781 C 135.746094 234.050781 160.554688 224.398438 160.554688 212.078125 C 160.554688 199.757812 135.746094 190.109375 104.070312 190.109375 Z M 104.070312 231.476562 C 74.847656 231.476562 50.160156 222.59375 50.160156 212.078125 C 50.160156 201.566406 74.847656 192.683594 104.070312 192.683594 C 133.292969 192.683594 157.980469 201.566406 157.980469 212.078125 C 157.980469 222.59375 133.292969 231.476562 104.070312 231.476562 Z M 104.070312 231.476562 " fill-opacity="1" fill-rule="nonzero"/><path fill="#a9a0f0" d="M 140.238281 213.90625 C 139.4375 213.183594 138.550781 212.5625 137.617188 212.070312 C 138.550781 211.578125 139.4375 210.957031 140.238281 210.234375 C 142.617188 208.085938 143.929688 205.328125 143.75 202.847656 C 143.703125 202.207031 143.1875 201.695312 142.542969 201.65625 C 139.894531 201.496094 136.925781 202.667969 134.59375 204.777344 C 133.503906 205.757812 132.621094 206.894531 132.011719 208.082031 C 124.117188 202.101562 112.625 198.699219 100.140625 198.699219 C 94.816406 198.699219 89.636719 199.324219 84.738281 200.550781 C 76.488281 202.625 69.386719 206.398438 64.738281 211.179688 C 64.253906 211.679688 64.253906 212.472656 64.738281 212.972656 C 66.191406 214.46875 67.882812 215.863281 69.773438 217.140625 C 73.933594 219.949219 79.0625 222.179688 84.738281 223.601562 C 89.628906 224.832031 94.8125 225.457031 100.140625 225.457031 C 112.632812 225.457031 124.128906 222.054688 132.019531 216.070312 C 132.628906 217.253906 133.507812 218.382812 134.59375 219.359375 C 136.929688 221.472656 139.90625 222.640625 142.546875 222.480469 C 143.191406 222.441406 143.707031 221.929688 143.753906 221.289062 C 143.929688 218.8125 142.617188 216.050781 140.238281 213.90625 Z M 133.808594 210.511719 C 134.171875 209.179688 135.0625 207.820312 136.316406 206.6875 C 137.726562 205.414062 139.457031 204.558594 141.074219 204.300781 C 140.765625 205.660156 139.851562 207.113281 138.511719 208.324219 C 137.230469 209.484375 135.683594 210.304688 134.15625 210.632812 C 133.972656 210.671875 133.800781 210.753906 133.652344 210.863281 C 133.722656 210.757812 133.773438 210.636719 133.808594 210.511719 Z M 68.3125 211.351562 C 68.402344 211.273438 68.496094 211.199219 68.585938 211.125 C 68.777344 210.964844 68.972656 210.800781 69.171875 210.640625 C 69.28125 210.554688 69.398438 210.46875 69.511719 210.382812 C 69.695312 210.238281 69.878906 210.09375 70.066406 209.957031 C 70.191406 209.863281 70.320312 209.773438 70.449219 209.683594 C 70.632812 209.550781 70.816406 209.417969 71.003906 209.289062 C 71.140625 209.195312 71.277344 209.105469 71.414062 209.015625 C 71.601562 208.890625 71.789062 208.765625 71.980469 208.644531 C 72.125 208.550781 72.269531 208.460938 72.417969 208.371094 C 72.609375 208.253906 72.796875 208.136719 72.992188 208.019531 C 73.144531 207.929688 73.300781 207.84375 73.453125 207.753906 C 73.648438 207.644531 73.84375 207.53125 74.042969 207.421875 C 74.199219 207.335938 74.359375 207.25 74.519531 207.164062 C 74.722656 207.058594 74.921875 206.949219 75.125 206.84375 C 75.289062 206.761719 75.457031 206.679688 75.621094 206.597656 C 75.828125 206.496094 76.035156 206.394531 76.242188 206.292969 C 76.414062 206.214844 76.582031 206.132812 76.753906 206.054688 C 76.964844 205.957031 77.175781 205.863281 77.390625 205.769531 C 77.566406 205.691406 77.742188 205.613281 77.917969 205.539062 C 78.136719 205.449219 78.351562 205.355469 78.570312 205.265625 C 78.75 205.195312 78.929688 205.121094 79.113281 205.050781 C 79.332031 204.964844 79.558594 204.878906 79.78125 204.792969 C 79.964844 204.722656 80.148438 204.65625 80.335938 204.585938 C 80.5625 204.503906 80.789062 204.425781 81.019531 204.34375 C 81.207031 204.28125 81.394531 204.214844 81.582031 204.152344 C 81.816406 204.074219 82.050781 204 82.285156 203.925781 C 82.476562 203.867188 82.667969 203.804688 82.859375 203.746094 C 83.09375 203.671875 83.332031 203.605469 83.570312 203.535156 C 83.765625 203.480469 83.960938 203.421875 84.160156 203.367188 C 84.207031 203.355469 84.261719 203.34375 84.308594 203.328125 C 85.445312 206.105469 86.019531 209.042969 86.019531 212.078125 C 86.019531 215.121094 85.445312 218.058594 84.3125 220.828125 C 84.269531 220.816406 84.226562 220.804688 84.183594 220.792969 C 83.957031 220.730469 83.730469 220.664062 83.503906 220.601562 C 83.296875 220.539062 83.089844 220.480469 82.882812 220.417969 C 82.664062 220.351562 82.445312 220.28125 82.230469 220.214844 C 82.023438 220.148438 81.8125 220.082031 81.609375 220.011719 C 81.394531 219.941406 81.183594 219.867188 80.976562 219.796875 C 80.769531 219.722656 80.5625 219.652344 80.355469 219.578125 C 80.152344 219.503906 79.949219 219.429688 79.746094 219.351562 C 79.542969 219.273438 79.339844 219.195312 79.136719 219.117188 C 78.9375 219.039062 78.738281 218.957031 78.542969 218.878906 C 78.339844 218.796875 78.140625 218.710938 77.941406 218.628906 C 77.75 218.546875 77.558594 218.464844 77.371094 218.378906 C 77.171875 218.292969 76.972656 218.203125 76.777344 218.113281 C 76.589844 218.027344 76.40625 217.941406 76.226562 217.855469 C 76.027344 217.761719 75.835938 217.664062 75.640625 217.570312 C 75.464844 217.480469 75.285156 217.394531 75.113281 217.304688 C 74.917969 217.203125 74.726562 217.105469 74.539062 217.003906 C 74.367188 216.910156 74.199219 216.820312 74.03125 216.726562 C 73.84375 216.625 73.65625 216.519531 73.472656 216.410156 C 73.308594 216.316406 73.144531 216.222656 72.984375 216.128906 C 72.800781 216.019531 72.617188 215.90625 72.4375 215.792969 C 72.28125 215.699219 72.125 215.605469 71.972656 215.507812 C 71.792969 215.390625 71.613281 215.273438 71.433594 215.152344 C 71.289062 215.054688 71.140625 214.960938 71 214.863281 C 70.820312 214.738281 70.644531 214.613281 70.464844 214.484375 C 70.332031 214.390625 70.195312 214.292969 70.0625 214.195312 C 69.882812 214.0625 69.707031 213.925781 69.53125 213.789062 C 69.410156 213.695312 69.285156 213.605469 69.167969 213.511719 C 68.976562 213.355469 68.789062 213.199219 68.601562 213.042969 C 68.507812 212.964844 68.40625 212.882812 68.3125 212.804688 C 68.035156 212.5625 67.765625 212.320312 67.503906 212.078125 C 67.765625 211.832031 68.035156 211.589844 68.3125 211.351562 Z M 132.953125 212.753906 C 132.535156 212.621094 132.074219 212.714844 131.738281 212.996094 C 124.410156 219.1875 112.597656 222.882812 100.140625 222.882812 C 95.554688 222.882812 91.085938 222.398438 86.832031 221.449219 C 87.996094 218.476562 88.59375 215.332031 88.59375 212.078125 C 88.59375 208.835938 87.996094 205.6875 86.832031 202.707031 C 91.089844 201.757812 95.558594 201.277344 100.140625 201.277344 C 112.589844 201.277344 124.402344 204.96875 131.738281 211.15625 C 132.074219 211.441406 132.53125 211.535156 132.949219 211.402344 C 133.09375 211.359375 133.226562 211.289062 133.34375 211.199219 C 133.28125 211.300781 133.230469 211.410156 133.195312 211.527344 C 133.136719 211.722656 133.128906 211.925781 133.164062 212.125 C 133.148438 212.285156 133.164062 212.453125 133.210938 212.613281 C 133.25 212.75 133.3125 212.875 133.390625 212.988281 C 133.261719 212.882812 133.113281 212.800781 132.953125 212.753906 Z M 136.316406 217.449219 C 135.0625 216.320312 134.171875 214.96875 133.8125 213.640625 C 133.769531 213.496094 133.707031 213.363281 133.625 213.242188 C 133.777344 213.371094 133.964844 213.464844 134.167969 213.507812 C 135.691406 213.839844 137.234375 214.660156 138.511719 215.816406 C 139.851562 217.023438 140.765625 218.480469 141.074219 219.839844 C 139.460938 219.582031 137.730469 218.726562 136.316406 217.449219 Z M 136.316406 217.449219 " fill-opacity="1" fill-rule="nonzero"/><path fill="#a9a0f0" d="M 76.484375 208.597656 C 74.5625 208.597656 73 210.160156 73 212.078125 C 73 214 74.5625 215.5625 76.484375 215.5625 C 78.402344 215.5625 79.964844 214 79.964844 212.078125 C 79.964844 210.160156 78.402344 208.597656 76.484375 208.597656 Z M 76.484375 212.988281 C 75.984375 212.988281 75.574219 212.578125 75.574219 212.078125 C 75.574219 211.578125 75.984375 211.171875 76.484375 211.171875 C 76.984375 211.171875 77.390625 211.578125 77.390625 212.078125 C 77.390625 212.578125 76.984375 212.988281 76.484375 212.988281 Z M 76.484375 212.988281 " fill-opacity="1" fill-rule="nonzero"/></svg>