<svg xmlns="http://www.w3.org/2000/svg" xmlns:xlink="http://www.w3.org/1999/xlink" width="400" zoomAndPan="magnify" viewBox="0 0 300 299.999988" height="400" preserveAspectRatio="xMidYMid meet" version="1.0"><defs><clipPath id="7a212f1443"><path d="M 173 157.101562 L 270 157.101562 L 270 246 L 173 246 Z M 173 157.101562 " clip-rule="nonzero"/></clipPath><clipPath id="44661a79ac"><path d="M 30 39.722656 L 172 39.722656 L 172 76 L 30 76 Z M 30 39.722656 " clip-rule="nonzero"/></clipPath></defs><g clip-path="url(#7a212f1443)"><path fill="#a9a0f0" d="M 266.726562 157.164062 C 263.480469 157.328125 260.917969 159.691406 258.671875 161.804688 C 252.132812 168.164062 245.558594 174.484375 238.945312 180.761719 C 238.3125 181.570312 233.765625 180.15625 232.453125 180.148438 C 231.820312 180.148438 230.660156 179.734375 230.183594 180.167969 C 229.992188 180.886719 230.316406 181.339844 231.058594 181.449219 C 232.828125 181.710938 234.597656 181.976562 236.367188 182.246094 C 236.832031 182.347656 236.90625 182.488281 236.523438 182.839844 C 233.585938 185.214844 230.859375 188.011719 227.214844 189.261719 C 220.46875 191.554688 213.207031 191.191406 206.332031 192.957031 C 203.480469 193.621094 200.539062 194.238281 197.863281 195.453125 C 203.039062 193.96875 208.3125 193.0625 213.6875 192.738281 C 220.050781 192.175781 226.996094 192.078125 232.253906 187.96875 C 238.375 183.207031 244.074219 177.972656 249.636719 172.582031 C 254.429688 168.234375 258.628906 163.105469 264.09375 159.585938 C 265.253906 158.851562 268.050781 158.214844 267.59375 160.496094 C 266.78125 163.058594 264.285156 164.640625 262.304688 166.285156 C 254.203125 172.949219 245.355469 178.695312 237.257812 185.378906 C 232.53125 188.785156 229.078125 193.449219 224.914062 197.449219 C 219.167969 202.433594 210.121094 204.65625 203.136719 201.113281 C 200.945312 199.667969 208.824219 197.839844 214.054688 197.074219 C 215.5 196.894531 216.949219 196.867188 218.402344 196.984375 C 218.957031 197.070312 218.394531 197.242188 218.222656 197.269531 C 215.585938 197.6875 212.6875 198.21875 210.398438 198.890625 C 212.644531 198.460938 214.992188 198.085938 217.289062 198.046875 C 218.699219 198.003906 218.613281 198.984375 217.832031 199.355469 C 216.453125 200.375 215.265625 200.96875 213.5 201.347656 C 218.464844 201.109375 223.023438 197.9375 226.355469 194.410156 C 227.28125 193.410156 226.535156 192.882812 225.390625 193.214844 C 224.03125 193.675781 222.632812 193.941406 221.195312 194.011719 C 216.972656 194.015625 209.390625 194.242188 204.25 195.429688 C 201.160156 195.984375 190.410156 198.328125 194.210938 202.992188 C 194.882812 203.585938 195.667969 204.289062 196.519531 204.597656 C 192.238281 200.871094 195.886719 198.734375 199.800781 197.574219 C 204.617188 196.363281 209.777344 195.78125 214.714844 196.300781 C 213.390625 196.835938 211.882812 196.855469 210.476562 197.113281 C 209.078125 197.238281 197.53125 199.09375 201.160156 201.363281 C 208.019531 203.667969 218.707031 203.710938 225.710938 201.894531 C 228.402344 201.113281 228.351562 198.914062 229.71875 198.296875 C 231.421875 198.792969 235.222656 199.800781 234.511719 202.179688 C 234.261719 202.820312 232.988281 204.164062 234.457031 203.078125 C 236.945312 201.652344 235.726562 199.085938 233.507812 198.210938 C 232.496094 197.816406 231.453125 197.5 230.410156 197.195312 C 230.03125 197.085938 229.949219 196.949219 230.109375 196.605469 C 230.855469 195.132812 233.507812 189.574219 235.285156 189.929688 C 240.054688 190.96875 244.796875 192.242188 249.070312 194.679688 C 251.789062 196.167969 258.433594 200.9375 252.949219 203.261719 C 242.730469 208.566406 230.1875 209.761719 218.765625 210.175781 C 207.308594 210.421875 195.550781 209.121094 184.800781 204.992188 C 181.511719 203.601562 182.09375 200.953125 183.75 198.886719 C 184.550781 197.671875 185.800781 196.925781 186.839844 195.972656 C 186.308594 196.179688 184.453125 197.039062 183.8125 197.605469 C 181.90625 198.90625 180.742188 201.441406 181.554688 203.492188 C 181.4375 203.492188 181.320312 203.476562 181.207031 203.4375 C 180.164062 202.691406 178.09375 202.257812 178.679688 200.609375 C 178.910156 199.664062 179.5 198.9375 180.148438 198.257812 C 189.097656 190.617188 201.757812 189.445312 213.070312 188.796875 C 214.941406 188.980469 214.945312 187.332031 215.71875 186.15625 C 212.269531 185.992188 208.722656 186.269531 205.25 186.503906 C 195.636719 187.425781 181.46875 189.445312 175.84375 198.070312 C 175.386719 199.242188 174.78125 196.71875 174.761719 196.355469 C 174.609375 191.902344 178.792969 189.035156 182.328125 187.21875 C 189.492188 183.59375 197.507812 182.089844 205.4375 181.34375 C 209.789062 180.917969 214.148438 180.773438 218.519531 180.90625 C 219.164062 180.929688 219.519531 180.753906 219.792969 180.195312 C 220.121094 179.554688 220.148438 179.550781 219.402344 179.546875 C 206.96875 179.40625 192.992188 180.214844 181.53125 186 C 177.945312 187.898438 173.660156 190.636719 173.34375 195.078125 C 172.894531 203.03125 173.726562 211.203125 177.578125 218.316406 C 181.042969 225.113281 186.785156 230.132812 193.445312 233.6875 C 194.285156 234.097656 193.144531 234.722656 193.003906 235.273438 C 188.039062 245.339844 219.175781 246.878906 224.847656 245.445312 C 230.238281 244.730469 246.726562 242.316406 240.511719 233.953125 C 251.789062 228.160156 259.898438 216.867188 260.75 204.085938 C 260.992188 195.933594 262.566406 191.582031 254.578125 186.699219 C 241.675781 179.207031 239.855469 186.511719 258.15625 172.195312 C 261.972656 169.015625 268.398438 165.566406 269.625 160.542969 C 269.980469 158.503906 268.789062 157.125 266.726562 157.164062 Z M 214.355469 241.753906 C 212.597656 241.9375 209.085938 241.695312 203.007812 239.996094 C 200.253906 239.339844 197.726562 238.046875 195.863281 235.765625 C 195.761719 235.644531 195.667969 235.519531 195.574219 235.394531 C 195.492188 235.246094 195.425781 235.09375 195.382812 234.933594 C 198.367188 236.226562 201.3125 237.625 204.53125 238.292969 C 204.714844 238.332031 204.894531 238.375 205.082031 238.414062 C 205.089844 238.414062 205.101562 238.417969 205.109375 238.417969 C 205.117188 238.421875 205.125 238.421875 205.132812 238.421875 C 209.351562 239.257812 213.59375 239.441406 217.867188 238.96875 C 217.867188 238.96875 216.113281 241.574219 214.355469 241.757812 Z M 219.621094 236.804688 C 214.324219 237.285156 208.441406 237.183594 203.007812 235.710938 C 208.683594 236.449219 215.199219 236.84375 219.890625 236.679688 C 219.875 236.71875 219.785156 236.765625 219.621094 236.804688 Z M 256.4375 213.355469 C 254.53125 218.535156 250.988281 223.800781 245.355469 228.253906 C 233.75 237.429688 216.265625 236.378906 202.554688 234.542969 C 190.910156 232.984375 180.878906 224.351562 176.945312 213.367188 C 175.648438 209.542969 174.609375 204.949219 174.699219 200.835938 C 177.265625 202.800781 179.894531 204.65625 182.921875 205.898438 C 198.421875 212.449219 215.824219 212.515625 232.304688 210.703125 C 235.515625 210.40625 238.679688 209.820312 241.832031 209.160156 C 246.9375 207.917969 253.847656 205.273438 256.074219 203.980469 C 258.304688 202.691406 258.710938 202.046875 258.710938 203.046875 C 258.710938 204.046875 258.34375 208.179688 256.4375 213.355469 Z M 254.824219 188.636719 C 257.996094 190.667969 261.386719 195.195312 258.515625 198.773438 C 258.265625 199.058594 257.671875 199.574219 257.527344 198.917969 C 256.136719 195.097656 249.460938 191.855469 245.023438 190.539062 C 242.1875 189.550781 239.101562 189.277344 236.296875 188.289062 C 238.105469 186.675781 240.160156 185.324219 242.042969 183.789062 C 244.214844 182.6875 252.703125 187.148438 254.824219 188.636719 Z M 254.824219 188.636719 " fill-opacity="1" fill-rule="nonzero"/></g><path fill="#a9a0f0" d="M 213.625 205.398438 C 217.800781 205.253906 227.738281 205.382812 229.796875 202.359375 C 230.132812 201.851562 229.023438 200.890625 228.640625 201.464844 C 227.957031 202.542969 226.832031 202.890625 225.707031 203.21875 C 222.535156 204.695312 197.039062 205.574219 198.953125 199.777344 C 192 204.445312 211.703125 205.632812 213.625 205.398438 Z M 213.625 205.398438 " fill-opacity="1" fill-rule="nonzero"/><path fill="#a9a0f0" d="M 216.488281 189.519531 C 216.417969 189.859375 216.4375 190.070312 216.691406 189.664062 C 217.703125 187.859375 219.089844 186.347656 220.46875 184.828125 C 222.9375 182.261719 224.960938 179.757812 224.90625 175.773438 C 225.007812 172.238281 221.042969 169.484375 220.976562 165.886719 C 220.355469 167.65625 220.785156 169.910156 221.929688 171.460938 C 226.960938 179.460938 218.324219 182.738281 216.488281 189.519531 Z M 216.488281 189.519531 " fill-opacity="1" fill-rule="nonzero"/><path fill="#a9a0f0" d="M 247.464844 203.917969 C 247.398438 204.3125 249.660156 202.75 250.019531 202.21875 C 250.726562 201.578125 251.101562 200.433594 250.953125 199.414062 C 249.410156 194.964844 242.707031 193.589844 238.621094 192.464844 C 236.148438 192.007812 237.796875 192.546875 238.929688 192.875 C 243.378906 194.390625 253.769531 198.238281 247.464844 203.917969 Z M 247.464844 203.917969 " fill-opacity="1" fill-rule="nonzero"/><path fill="#a9a0f0" d="M 238.824219 202.90625 C 236.421875 205.398438 232.9375 206.085938 229.894531 207.480469 C 233.527344 206.742188 237.375 205.597656 240.148438 202.984375 C 242.273438 201.222656 242.027344 198.355469 239.785156 196.945312 C 238.179688 195.929688 236.433594 195.324219 234.542969 195.132812 C 237.492188 196.710938 242.75 199.179688 238.824219 202.90625 Z M 238.824219 202.90625 " fill-opacity="1" fill-rule="nonzero"/><path fill="#a9a0f0" d="M 228.988281 177.046875 C 228.285156 179.003906 226.839844 180.652344 226.757812 182.828125 C 227.878906 180.1875 230.765625 177.582031 230.644531 174.96875 C 230.640625 169.671875 223.671875 167.058594 225.449219 161.507812 C 225.535156 161.109375 225.488281 161.117188 225.230469 161.59375 C 224.96875 162.058594 224.777344 162.546875 224.65625 163.066406 C 224.539062 163.582031 224.492188 164.105469 224.523438 164.636719 C 224.554688 165.167969 224.664062 165.683594 224.84375 166.179688 C 225.023438 166.679688 225.269531 167.144531 225.585938 167.574219 C 227.628906 170.261719 230.289062 173.4375 228.988281 177.046875 Z M 228.988281 177.046875 " fill-opacity="1" fill-rule="nonzero"/><path fill="#a9a0f0" d="M 197.664062 205.289062 C 198.683594 205.960938 199.972656 206.339844 201.132812 206.746094 C 205.707031 207.875 210.34375 208.238281 215.035156 207.835938 C 212.164062 207.457031 209.191406 207.460938 206.296875 207.109375 C 203.34375 206.878906 200.476562 206.171875 197.664062 205.289062 Z M 197.664062 205.289062 " fill-opacity="1" fill-rule="nonzero"/><path fill="#a9a0f0" d="M 192.382812 203.851562 C 191.121094 202.234375 191.265625 200.238281 192.613281 198.730469 C 192.710938 198.542969 192.640625 198.5 192.476562 198.625 C 190.597656 199.84375 190.019531 202.464844 191.773438 204.015625 C 193.578125 205.875 195.949219 206.929688 198.433594 207.464844 C 196.285156 206.507812 193.863281 205.84375 192.382812 203.851562 Z M 192.382812 203.851562 " fill-opacity="1" fill-rule="nonzero"/><path fill="#a9a0f0" d="M 221.363281 206.242188 C 221.976562 206.195312 225.28125 205.636719 224.644531 205.574219 C 221.035156 205.984375 217.433594 206.480469 213.796875 206.304688 C 211.722656 206.25 209.652344 206.101562 207.578125 206 C 207.3125 206 207.226562 206.070312 207.546875 206.128906 C 212.148438 206.671875 216.753906 206.710938 221.363281 206.242188 Z M 221.363281 206.242188 " fill-opacity="1" fill-rule="nonzero"/><path fill="#a9a0f0" d="M 185.804688 198.742188 C 183.53125 200.800781 185.714844 204.449219 188.257812 204.75 C 186.347656 203.304688 184.589844 201.324219 185.980469 198.84375 C 186.109375 198.484375 186.050781 198.507812 185.804688 198.742188 Z M 185.804688 198.742188 " fill-opacity="1" fill-rule="nonzero"/><path fill="#a9a0f0" d="M 209.363281 190.65625 C 210.050781 190.519531 214.09375 190.113281 212.121094 190.117188 C 208.398438 190.386719 204.542969 190.699219 201.007812 191.894531 C 203.792969 191.636719 206.574219 191.023438 209.363281 190.65625 Z M 209.363281 190.65625 " fill-opacity="1" fill-rule="nonzero"/><path fill="#a9a0f0" d="M 244.515625 199.480469 C 244.101562 198.273438 243.328125 197.363281 242.203125 196.757812 C 244.582031 198.867188 244.507812 200.832031 242.601562 203.042969 C 240.691406 205.132812 245.589844 201.625 244.515625 199.480469 Z M 244.515625 199.480469 " fill-opacity="1" fill-rule="nonzero"/><path fill="#a9a0f0" d="M 229.742188 204.144531 C 226.5625 205.972656 232.417969 203.691406 232.105469 201.824219 C 232.054688 200.976562 231.164062 200.335938 230.40625 200.152344 C 232.242188 201.589844 231.21875 203.191406 229.742188 204.144531 Z M 229.742188 204.144531 " fill-opacity="1" fill-rule="nonzero"/><path fill="#a9a0f0" d="M 228.574219 206.367188 C 225.890625 206.675781 223.199219 207.167969 220.503906 207.476562 C 219.441406 207.675781 219.660156 207.589844 220.527344 207.726562 C 223.226562 207.449219 225.964844 207.082031 228.574219 206.367188 Z M 228.574219 206.367188 " fill-opacity="1" fill-rule="nonzero"/><g clip-path="url(#44661a79ac)"><path fill="#a9a0f0" d="M 162.589844 49.335938 C 163.234375 46.699219 163.417969 42.496094 159.910156 41.988281 C 158.476562 41.804688 157 42.035156 155.566406 42.082031 C 154.734375 42.128906 153.855469 42.128906 153.070312 42.128906 C 152.378906 42.128906 151.6875 42.128906 150.945312 42.265625 C 150.113281 42.40625 149.238281 42.589844 148.40625 42.773438 C 147.710938 42.914062 147.019531 43.097656 146.328125 43.28125 C 145.957031 43.375 145.542969 43.605469 145.171875 43.652344 C 144.847656 43.699219 144.386719 43.511719 144.0625 43.46875 C 130.574219 41.019531 116.761719 40.046875 103.132812 39.957031 C 89.410156 39.863281 75.597656 40.648438 62.0625 42.820312 C 56.839844 43.652344 51.621094 44.714844 46.445312 46.285156 C 42.75 47.394531 39.007812 48.6875 35.683594 50.71875 C 33.601562 52.058594 31.386719 53.722656 30.648438 56.125 C 30 58.296875 31.015625 60.421875 32.539062 61.945312 C 34.757812 64.210938 37.761719 65.640625 40.578125 66.75 C 44.875 68.507812 49.355469 69.660156 53.839844 70.675781 C 66.449219 73.402344 79.476562 74.558594 92.320312 74.972656 C 106.550781 75.390625 120.871094 74.882812 135.007812 73.035156 C 140.597656 72.292969 146.234375 71.324219 151.730469 69.984375 C 155.9375 68.96875 160.1875 67.675781 164.066406 65.828125 C 166.609375 64.625 169.242188 63.148438 170.902344 60.792969 C 171.503906 59.960938 171.921875 58.898438 171.964844 57.878906 C 172.105469 55.894531 170.949219 54.136719 169.5625 52.890625 C 167.394531 50.859375 164.667969 49.566406 161.988281 48.457031 C 161.0625 48.085938 160.648438 49.609375 161.570312 49.980469 C 164.207031 51.042969 167.023438 52.429688 169.011719 54.554688 C 169.980469 55.570312 170.671875 57.140625 170.394531 58.390625 C 170.164062 59.265625 169.703125 60.050781 169.054688 60.699219 C 168.222656 61.621094 167.160156 62.40625 166.097656 63.054688 C 163.003906 64.996094 159.445312 66.195312 155.980469 67.304688 C 151.132812 68.785156 146.1875 69.800781 141.199219 70.675781 C 128.261719 72.847656 115.050781 73.632812 101.929688 73.679688 C 88.671875 73.726562 75.414062 72.988281 62.292969 70.863281 C 57.210938 70.078125 52.175781 69.015625 47.277344 67.628906 C 43.675781 66.613281 40.070312 65.320312 36.835938 63.425781 C 35.730469 62.777344 34.621094 62.039062 33.742188 61.160156 C 33.050781 60.46875 32.402344 59.636719 32.125 58.804688 C 31.894531 58.019531 31.894531 57.328125 32.171875 56.496094 C 32.449219 55.710938 33.09375 54.832031 33.835938 54.183594 C 36.003906 52.105469 38.917969 50.765625 41.6875 49.703125 C 45.890625 48.039062 50.28125 46.933594 54.625 45.960938 C 66.773438 43.375 79.292969 42.21875 91.71875 41.851562 C 105.625 41.386719 119.625 41.851562 133.484375 43.605469 C 136.394531 43.976562 139.304688 44.390625 142.261719 44.945312 C 142.90625 45.082031 143.648438 45.175781 144.292969 45.316406 C 144.570312 45.359375 144.894531 45.453125 145.171875 45.453125 C 145.632812 45.453125 146.140625 45.175781 146.648438 45.082031 C 147.898438 44.761719 149.097656 44.4375 150.390625 44.207031 C 150.667969 44.160156 150.992188 44.113281 151.269531 44.019531 C 151.363281 44.019531 151.917969 43.929688 151.730469 43.929688 C 151.960938 43.882812 152.195312 43.882812 152.472656 43.882812 C 154.132812 43.882812 155.703125 43.835938 157.367188 43.742188 C 158.476562 43.699219 160.230469 43.328125 161.019531 44.390625 C 161.847656 45.636719 161.480469 47.761719 161.109375 49.101562 C 160.832031 49.933594 162.355469 50.351562 162.589844 49.335938 Z M 162.589844 49.335938 " fill-opacity="1" fill-rule="nonzero"/></g><path fill="#a9a0f0" d="M 141.199219 48.457031 C 140.136719 49.980469 140.875 52.011719 141.476562 53.539062 C 141.984375 55.015625 142.722656 56.449219 143.878906 57.464844 C 145.542969 58.898438 147.667969 58.988281 149.652344 58.390625 C 151.640625 57.878906 153.300781 56.585938 154.828125 55.386719 C 156.445312 54.136719 157.785156 52.707031 158.890625 50.949219 C 159.679688 49.65625 160.601562 48.132812 160.554688 46.609375 C 160.554688 44.621094 158.800781 44.296875 157.230469 44.296875 C 155.425781 44.296875 153.71875 44.484375 151.960938 44.808594 C 150.070312 45.175781 148.175781 45.546875 146.328125 46.101562 C 145.355469 46.378906 144.339844 46.746094 143.371094 47.117188 C 142.675781 47.394531 141.800781 47.625 141.335938 48.179688 C 140.691406 48.917969 141.800781 50.074219 142.398438 49.242188 C 142.675781 48.871094 143.277344 48.734375 143.785156 48.546875 C 144.570312 48.226562 145.402344 47.949219 146.234375 47.71875 C 147.390625 47.347656 148.636719 47.117188 149.882812 46.839844 C 151.410156 46.515625 152.886719 46.144531 154.457031 45.960938 C 155.105469 45.871094 155.796875 45.824219 156.445312 45.824219 C 157.042969 45.824219 158.292969 45.636719 158.800781 45.960938 C 159.632812 46.515625 158.523438 48.546875 158.199219 49.148438 C 157.460938 50.582031 156.535156 51.828125 155.425781 52.9375 C 154.273438 54 152.933594 55.0625 151.546875 55.847656 C 150.023438 56.726562 147.945312 57.511719 146.234375 56.910156 C 144.757812 56.449219 143.878906 55.015625 143.324219 53.675781 C 142.816406 52.429688 141.753906 50.351562 142.675781 49.148438 C 143.09375 48.410156 141.753906 47.671875 141.199219 48.457031 Z M 141.199219 48.457031 " fill-opacity="1" fill-rule="nonzero"/><path fill="#a9a0f0" d="M 120.964844 54.277344 C 121.980469 54.136719 123.089844 54.460938 123.875 55.246094 C 124.242188 55.617188 124.660156 56.078125 124.707031 56.773438 C 124.753906 57.417969 124.382812 57.835938 123.921875 58.25 C 124.011719 58.203125 123.78125 58.34375 123.734375 58.390625 C 123.644531 58.433594 123.550781 58.527344 123.414062 58.574219 C 123.367188 58.621094 123.273438 58.621094 123.226562 58.667969 C 123.136719 58.710938 123.226562 58.710938 123.320312 58.621094 C 123.273438 58.667969 123.089844 58.710938 123.042969 58.710938 C 122.210938 58.941406 121.332031 58.757812 120.59375 58.34375 C 119.714844 57.835938 118.421875 56.632812 118.886719 55.523438 C 118.839844 55.664062 118.929688 55.433594 118.929688 55.433594 C 118.929688 55.433594 119.070312 55.246094 118.976562 55.339844 C 119.023438 55.292969 119.070312 55.203125 119.117188 55.15625 C 119.117188 55.15625 119.347656 54.96875 119.253906 55.015625 C 119.394531 54.925781 119.484375 54.832031 119.625 54.785156 C 119.671875 54.738281 119.761719 54.738281 119.808594 54.691406 C 119.855469 54.691406 119.902344 54.648438 119.949219 54.648438 C 119.855469 54.691406 119.902344 54.691406 119.949219 54.648438 C 120.316406 54.507812 120.6875 54.414062 121.054688 54.324219 C 121.472656 54.277344 121.703125 53.769531 121.609375 53.398438 C 121.472656 52.9375 121.101562 52.800781 120.6875 52.84375 C 119.4375 53.03125 118.144531 53.585938 117.5 54.691406 C 116.484375 56.449219 117.777344 58.390625 119.164062 59.40625 C 120.734375 60.605469 122.8125 60.835938 124.429688 59.730469 C 125.167969 59.265625 125.816406 58.574219 126.046875 57.742188 C 126.367188 56.773438 126.046875 55.664062 125.445312 54.878906 C 124.429688 53.445312 122.628906 52.566406 120.871094 52.800781 C 120.457031 52.84375 120.132812 53.121094 120.132812 53.539062 C 120.179688 53.863281 120.5 54.324219 120.964844 54.277344 Z M 120.964844 54.277344 " fill-opacity="1" fill-rule="nonzero"/><path fill="#a9a0f0" d="M 113.617188 56.585938 C 113.203125 55.753906 112.972656 54.507812 113.527344 53.675781 C 113.804688 53.261719 114.359375 53.121094 114.910156 52.984375 C 116.945312 52.429688 118.929688 52.660156 121.011719 52.566406 C 123.179688 52.476562 125.351562 52.011719 127.476562 51.550781 C 129.925781 50.996094 132.328125 50.164062 134.730469 49.335938 C 138.566406 47.902344 142.214844 46.285156 146.1875 45.128906 C 147.710938 44.714844 149.238281 44.296875 150.808594 43.976562 C 151.175781 43.929688 151.5 43.835938 151.871094 43.789062 C 152.054688 43.742188 151.777344 43.789062 151.871094 43.789062 C 151.917969 43.789062 151.960938 43.789062 152.007812 43.789062 C 152.101562 43.789062 152.195312 43.789062 152.285156 43.789062 C 153.023438 43.789062 153.8125 43.789062 154.550781 43.789062 C 155.472656 43.742188 156.488281 43.699219 157.414062 43.652344 C 158.382812 43.605469 159.722656 43.328125 160.601562 43.882812 C 161.527344 44.484375 161.527344 45.960938 161.480469 46.933594 C 161.433594 48.132812 161.109375 49.289062 160.695312 50.398438 C 160.046875 52.105469 158.984375 53.585938 157.785156 54.925781 C 156.445312 56.355469 154.875 57.371094 153.210938 58.390625 C 151.363281 59.453125 149.46875 60.375 147.390625 60.835938 C 145.125 61.34375 142.722656 61.070312 140.367188 60.976562 C 135.746094 60.835938 131.128906 60.929688 126.507812 60.929688 C 122.628906 60.929688 119.207031 60.375 115.789062 58.480469 C 114.867188 57.925781 114.125 57.417969 113.617188 56.585938 C 113.15625 55.710938 111.769531 56.496094 112.277344 57.371094 C 113.386719 59.40625 116.019531 60.421875 118.054688 61.253906 C 119.714844 61.855469 121.425781 62.175781 123.179688 62.40625 C 125.398438 62.59375 127.617188 62.5 129.832031 62.453125 C 132.28125 62.40625 134.730469 62.40625 137.179688 62.453125 C 139.257812 62.5 141.382812 62.59375 143.460938 62.640625 C 144.523438 62.683594 145.632812 62.683594 146.695312 62.546875 C 150.53125 61.992188 154.179688 59.914062 157.183594 57.511719 C 160.507812 54.832031 163.28125 50.441406 162.957031 46.007812 C 162.910156 44.945312 162.679688 43.742188 161.847656 42.957031 C 161.0625 42.21875 159.863281 42.035156 158.800781 42.035156 C 156.953125 42.082031 155.058594 42.265625 153.257812 42.265625 C 151.640625 42.265625 150.207031 42.542969 148.589844 42.867188 C 146.234375 43.421875 143.925781 44.113281 141.660156 44.945312 C 139.953125 45.546875 138.378906 46.285156 136.671875 46.933594 C 131.867188 48.871094 126.785156 50.582031 121.609375 51.042969 C 119.484375 51.226562 117.453125 50.949219 115.328125 51.320312 C 113.570312 51.644531 112 52.289062 111.679688 54.277344 C 111.539062 55.339844 111.769531 56.449219 112.234375 57.417969 C 112.742188 58.203125 114.082031 57.464844 113.617188 56.585938 Z M 113.617188 56.585938 " fill-opacity="1" fill-rule="nonzero"/><path fill="#a9a0f0" d="M 160.371094 53.167969 C 161.292969 53.953125 162.3125 54.738281 163.097656 55.664062 C 163.511719 56.125 163.789062 56.585938 163.652344 57.28125 C 163.558594 57.925781 163.1875 58.574219 162.726562 59.082031 C 161.339844 60.699219 159.308594 61.667969 157.414062 62.546875 C 154.457031 63.839844 151.269531 64.71875 148.128906 65.503906 C 144.015625 66.472656 139.90625 67.257812 135.746094 67.8125 C 125.214844 69.335938 114.449219 69.9375 103.777344 70.03125 C 92.828125 70.125 81.878906 69.660156 70.976562 68.320312 C 63.078125 67.398438 54.992188 66.105469 47.507812 63.425781 C 45.246094 62.640625 42.933594 61.621094 40.996094 60.144531 C 39.933594 59.3125 38.777344 58.019531 38.960938 56.539062 C 39.148438 54.925781 40.671875 53.769531 41.871094 52.9375 C 44.089844 51.460938 46.632812 50.535156 49.171875 49.703125 C 57.210938 47.117188 65.574219 45.914062 73.886719 44.992188 C 79.15625 44.4375 84.46875 44.066406 89.828125 43.835938 C 94.632812 43.699219 99.574219 43.699219 104.425781 43.605469 C 113.433594 43.421875 122.441406 43.421875 131.359375 44.851562 C 134.128906 45.269531 136.902344 45.824219 139.71875 46.515625 C 140.183594 46.609375 140.414062 45.914062 139.90625 45.777344 C 129.832031 43.375 119.53125 42.636719 109.230469 42.820312 C 99.390625 42.957031 89.550781 43.003906 79.710938 43.789062 C 70.515625 44.484375 61.230469 45.636719 52.3125 48.039062 C 49.355469 48.824219 46.308594 49.796875 43.535156 51.183594 C 41.78125 52.011719 39.886719 53.167969 38.871094 54.832031 C 36.652344 58.34375 40.671875 61.160156 43.398438 62.5 C 46.167969 63.933594 49.125 64.855469 52.175781 65.640625 C 56.195312 66.703125 60.257812 67.535156 64.417969 68.183594 C 75.089844 69.847656 85.851562 70.585938 96.617188 70.722656 C 108.027344 70.910156 119.484375 70.492188 130.757812 69.152344 C 138.933594 68.230469 147.34375 66.980469 155.152344 64.210938 C 157.554688 63.378906 160 62.363281 162.035156 60.792969 C 163.28125 59.867188 164.527344 58.527344 164.527344 56.910156 C 164.527344 56.265625 164.207031 55.664062 163.789062 55.15625 C 163.003906 54.183594 161.941406 53.398438 160.972656 52.613281 C 160.554688 52.335938 160 52.890625 160.371094 53.167969 Z M 160.371094 53.167969 " fill-opacity="1" fill-rule="nonzero"/><path fill="#a9a0f0" d="M 157.96875 55.476562 C 158.382812 55.800781 159.308594 56.21875 159.492188 56.816406 C 159.539062 57.050781 159.492188 57.417969 159.445312 57.695312 C 159.308594 58.25 158.890625 58.710938 158.523438 59.128906 C 157.089844 60.46875 155.195312 61.253906 153.394531 61.855469 C 146.925781 64.210938 139.90625 65.273438 133.113281 66.058594 C 123.367188 67.257812 113.570312 67.722656 103.777344 67.765625 C 93.707031 67.8125 83.589844 67.445312 73.566406 66.335938 C 66.359375 65.597656 59.011719 64.578125 52.082031 62.363281 C 50.003906 61.714844 47.878906 60.929688 46.125 59.683594 C 45.246094 59.035156 44.136719 58.019531 44.367188 56.816406 C 44.597656 55.433594 46.125 54.554688 47.1875 53.953125 C 49.3125 52.753906 51.667969 52.011719 54.023438 51.367188 C 61.414062 49.289062 69.175781 48.363281 76.84375 47.625 C 81.742188 47.207031 86.640625 46.933594 91.535156 46.746094 C 95.972656 46.609375 100.40625 46.65625 104.839844 46.515625 C 112.695312 46.332031 120.546875 46.191406 128.355469 47.207031 C 130.941406 47.53125 133.484375 47.996094 136.023438 48.546875 C 136.441406 48.640625 136.625 47.996094 136.210938 47.902344 C 127.246094 46.007812 118.144531 45.453125 109.042969 45.683594 C 100.035156 45.914062 90.980469 45.871094 82.019531 46.515625 C 73.519531 47.070312 64.972656 48.039062 56.65625 49.980469 C 53.929688 50.628906 51.203125 51.414062 48.617188 52.523438 C 47.046875 53.167969 45.335938 54.09375 44.273438 55.476562 C 42.148438 58.390625 46.214844 60.699219 48.433594 61.714844 C 50.972656 62.871094 53.699219 63.609375 56.378906 64.257812 C 60.167969 65.132812 63.910156 65.828125 67.742188 66.335938 C 77.539062 67.722656 87.46875 68.273438 97.402344 68.414062 C 107.9375 68.550781 118.5625 68.230469 129.046875 67.167969 C 136.578125 66.425781 144.292969 65.410156 151.640625 63.148438 C 153.8125 62.5 156.074219 61.667969 157.96875 60.421875 C 159.03125 59.683594 160.1875 58.667969 160.230469 57.28125 C 160.277344 56.03125 159.355469 55.617188 158.382812 54.925781 C 157.921875 54.648438 157.597656 55.246094 157.96875 55.476562 Z M 157.96875 55.476562 " fill-opacity="1" fill-rule="nonzero"/><path fill="#a9a0f0" d="M 138.519531 60.699219 C 124.382812 62.960938 110.0625 64.070312 95.785156 63.839844 C 87.285156 63.703125 78.878906 63.007812 70.46875 61.808594 C 65.804688 61.160156 61.046875 60.421875 56.472656 59.175781 C 55.132812 58.804688 53.515625 58.390625 52.40625 57.464844 C 51.667969 56.863281 52.035156 56.265625 52.730469 55.800781 C 54.023438 54.96875 55.546875 54.507812 57.027344 54.09375 C 59.335938 53.445312 61.691406 52.9375 64.046875 52.523438 C 70.46875 51.367188 76.9375 50.671875 83.449219 50.210938 C 89.871094 49.75 96.292969 49.703125 102.714844 49.566406 C 108.953125 49.425781 115.097656 49.425781 121.289062 50.121094 C 123.320312 50.351562 125.351562 50.628906 127.339844 50.949219 C 127.664062 50.996094 127.800781 50.535156 127.476562 50.488281 C 120.5 49.289062 113.433594 48.871094 106.367188 48.964844 C 100.175781 49.058594 94.078125 49.101562 87.886719 49.425781 C 80.957031 49.796875 74.074219 50.398438 67.1875 51.503906 C 64.417969 51.921875 61.691406 52.382812 58.964844 53.074219 C 57.117188 53.492188 55.269531 53.953125 53.605469 54.738281 C 52.867188 55.0625 51.574219 55.617188 51.4375 56.539062 C 51.25 57.417969 52.3125 58.066406 53.007812 58.433594 C 54.578125 59.21875 56.332031 59.683594 58.042969 60.097656 C 60.398438 60.652344 62.753906 61.066406 65.15625 61.53125 C 73.472656 62.917969 81.878906 63.886719 90.289062 64.210938 C 104.332031 64.765625 118.46875 63.980469 132.421875 62.085938 C 134.5 61.808594 136.625 61.53125 138.703125 61.160156 C 138.933594 61.113281 138.84375 60.652344 138.519531 60.699219 Z M 138.519531 60.699219 " fill-opacity="1" fill-rule="nonzero"/><path fill="#a9a0f0" d="M 30.460938 57.558594 C 30.648438 59.914062 30.832031 62.222656 31.015625 64.578125 C 31.15625 66.289062 31.0625 67.765625 32.03125 69.199219 C 34.15625 72.25 37.300781 74.742188 40.671875 76.3125 C 43.210938 77.5625 45.847656 78.253906 48.617188 78.855469 C 52.914062 79.824219 57.257812 80.703125 61.554688 81.394531 C 71.441406 83.058594 81.558594 84.304688 91.675781 84.445312 C 98.097656 84.535156 104.515625 84.398438 110.9375 84.167969 C 116.621094 83.984375 122.351562 83.707031 127.984375 83.152344 C 135.285156 82.410156 142.492188 81.027344 149.652344 79.410156 C 151.269531 79.039062 152.886719 78.761719 154.457031 78.207031 C 156.90625 77.421875 159.261719 76.453125 161.617188 75.480469 C 163.789062 74.605469 166.007812 73.679688 167.992188 72.433594 C 169.148438 71.695312 170.074219 70.585938 170.8125 69.476562 C 171.179688 68.875 171.503906 68.183594 171.828125 67.535156 C 171.964844 67.210938 172.152344 66.933594 172.199219 66.613281 C 172.289062 66.058594 172.199219 65.320312 172.152344 64.71875 C 172.105469 62.316406 172.058594 59.960938 172.011719 57.558594 C 172.011719 56.585938 170.441406 56.585938 170.441406 57.558594 C 170.488281 59.960938 170.535156 62.316406 170.582031 64.71875 C 170.582031 65.226562 170.671875 65.734375 170.625 66.289062 C 170.582031 66.519531 170.488281 66.796875 170.347656 67.074219 C 170.027344 67.765625 169.65625 68.460938 169.242188 69.105469 C 167.855469 71.046875 166.007812 71.878906 163.835938 72.894531 C 159.769531 74.742188 155.613281 76.589844 151.222656 77.515625 C 144.480469 79.039062 137.734375 80.472656 130.894531 81.347656 C 118.375 82.828125 105.671875 83.011719 93.105469 83.011719 C 85.023438 83.011719 76.84375 82.226562 68.804688 81.070312 C 64.878906 80.519531 61 79.871094 57.070312 79.132812 C 53.328125 78.4375 49.589844 77.699219 45.890625 76.730469 C 43.027344 75.945312 40.257812 74.695312 37.855469 72.894531 C 36.238281 71.738281 34.804688 70.355469 33.558594 68.785156 C 33.28125 68.414062 32.910156 67.953125 32.773438 67.398438 C 32.539062 66.519531 32.585938 65.226562 32.496094 64.300781 C 32.308594 62.085938 32.171875 59.820312 31.988281 57.601562 C 31.941406 56.585938 30.371094 56.585938 30.460938 57.558594 Z M 30.460938 57.558594 " fill-opacity="1" fill-rule="nonzero"/><path fill="#a9a0f0" d="M 34.34375 71.648438 C 34.34375 80.242188 34.34375 88.878906 34.34375 97.472656 C 34.34375 98.441406 35.914062 98.441406 35.914062 97.472656 C 35.914062 88.878906 35.914062 80.242188 35.914062 71.648438 C 35.914062 70.632812 34.34375 70.632812 34.34375 71.648438 Z M 34.34375 71.648438 " fill-opacity="1" fill-rule="nonzero"/><path fill="#a9a0f0" d="M 167.625 71.324219 C 167.625 79.730469 167.625 88.140625 167.625 96.503906 C 167.625 97.472656 169.195312 97.472656 169.195312 96.503906 C 169.195312 88.09375 169.195312 79.6875 169.195312 71.324219 C 169.195312 70.355469 167.625 70.355469 167.625 71.324219 Z M 167.625 71.324219 " fill-opacity="1" fill-rule="nonzero"/><path fill="#a9a0f0" d="M 34.664062 216.015625 C 34.664062 223.683594 34.664062 231.355469 34.664062 239.023438 C 34.664062 239.992188 36.238281 239.992188 36.238281 239.023438 C 36.238281 231.355469 36.238281 223.683594 36.238281 216.015625 C 36.238281 215.046875 34.664062 215.046875 34.664062 216.015625 Z M 34.664062 216.015625 " fill-opacity="1" fill-rule="nonzero"/><path fill="#a9a0f0" d="M 168.269531 216.476562 C 168.269531 223.59375 168.269531 230.660156 168.269531 237.820312 C 168.269531 238.792969 169.839844 238.792969 169.839844 237.820312 C 169.839844 230.707031 169.839844 223.640625 169.839844 216.476562 C 169.796875 215.507812 168.269531 215.507812 168.269531 216.476562 Z M 168.269531 216.476562 " fill-opacity="1" fill-rule="nonzero"/><path fill="#a9a0f0" d="M 34.851562 239.625 C 42.84375 246.460938 52.128906 251.773438 62.199219 255.007812 C 71.761719 258.058594 81.695312 259.074219 91.628906 259.628906 C 101.328125 260.136719 111.078125 260.089844 120.734375 258.933594 C 127.0625 258.195312 133.390625 256.949219 139.535156 255.191406 C 149.746094 252.328125 159.214844 247.246094 167.300781 240.363281 C 168.039062 239.714844 168.777344 239.023438 169.519531 238.375 C 170.257812 237.730469 169.148438 236.574219 168.457031 237.269531 C 160.925781 244.242188 151.960938 249.601562 142.214844 252.742188 C 135.976562 254.777344 129.464844 256.117188 122.996094 257.039062 C 113.847656 258.332031 104.5625 258.65625 95.371094 258.242188 C 85.761719 257.78125 76.152344 257.179688 66.773438 254.683594 C 56.332031 251.957031 46.492188 247.0625 38.085938 240.222656 C 37.390625 239.667969 36.652344 239.070312 35.960938 238.46875 C 35.21875 237.867188 34.113281 238.976562 34.851562 239.625 Z M 34.851562 239.625 " fill-opacity="1" fill-rule="nonzero"/><path fill="#a9a0f0" d="M 34.433594 97.75 C 39.886719 103.984375 48.15625 106.527344 55.964844 108.097656 C 65.804688 110.085938 75.828125 111.332031 85.898438 112.070312 C 96.109375 112.765625 106.410156 112.855469 116.621094 112.347656 C 126.460938 111.839844 136.347656 110.871094 146.003906 109.023438 C 153.671875 107.542969 161.710938 105.09375 167.347656 99.457031 C 168.039062 98.765625 168.734375 97.980469 169.332031 97.195312 C 169.933594 96.410156 168.871094 95.300781 168.269531 96.132812 C 163.375 102.414062 155.703125 105.324219 148.175781 107.035156 C 143.832031 107.960938 139.441406 108.652344 135.054688 109.160156 C 130.066406 109.761719 125.074219 110.316406 120.085938 110.640625 C 100.035156 111.980469 79.800781 110.871094 59.984375 107.359375 C 51.25 105.789062 41.6875 103.664062 35.589844 96.734375 C 34.898438 95.949219 33.789062 97.054688 34.433594 97.75 Z M 34.433594 97.75 " fill-opacity="1" fill-rule="nonzero"/><path fill="#a9a0f0" d="M 34.390625 96.316406 C 31.433594 99.734375 31.386719 104.957031 34.34375 108.28125 C 35.867188 110.039062 37.992188 111.101562 40.070312 111.933594 C 42.519531 112.855469 45.105469 113.503906 47.648438 114.148438 C 58.964844 116.96875 70.5625 118.585938 82.203125 119.417969 C 93.9375 120.246094 105.671875 120.339844 117.40625 120.246094 C 123.457031 120.203125 129.417969 120.0625 135.425781 119.324219 C 141.152344 118.585938 146.882812 117.335938 152.378906 115.628906 C 155.195312 114.796875 157.96875 113.828125 160.742188 112.808594 C 163.050781 111.933594 165.40625 111.007812 167.4375 109.578125 C 169.285156 108.238281 170.765625 106.621094 171.550781 104.496094 C 172.199219 102.601562 172.289062 100.429688 171.550781 98.582031 C 171.179688 97.65625 170.625 96.824219 169.796875 96.226562 C 169.054688 95.625 167.902344 96.6875 168.734375 97.289062 C 170.257812 98.535156 170.765625 100.429688 170.488281 102.324219 C 170.210938 104.449219 169.054688 106.203125 167.484375 107.542969 C 165.683594 109.066406 163.464844 110.039062 161.339844 110.917969 C 158.847656 111.886719 156.304688 112.808594 153.71875 113.59375 C 148.496094 115.257812 143.183594 116.550781 137.734375 117.429688 C 132.144531 118.261719 126.460938 118.585938 120.824219 118.675781 C 109.738281 118.863281 98.648438 118.769531 87.5625 118.214844 C 76.519531 117.613281 65.574219 116.414062 54.714844 114.195312 C 52.035156 113.640625 49.355469 112.996094 46.722656 112.300781 C 44.367188 111.703125 42.011719 111.101562 39.746094 110.128906 C 37.761719 109.300781 35.820312 108.097656 34.710938 106.203125 C 33.648438 104.402344 33.417969 102.136719 34.019531 100.152344 C 34.296875 99.183594 34.804688 98.210938 35.542969 97.425781 C 36.191406 96.640625 35.035156 95.53125 34.390625 96.316406 Z M 34.390625 96.316406 " fill-opacity="1" fill-rule="nonzero"/><path fill="#a9a0f0" d="M 32.726562 104.957031 C 30.785156 107.867188 31.199219 111.980469 33.601562 114.472656 C 33.601562 114.105469 33.601562 113.734375 33.601562 113.410156 C 30.925781 115.71875 30.878906 120.246094 33.464844 122.648438 C 33.464844 122.28125 33.464844 121.910156 33.464844 121.585938 C 31.0625 124.035156 31.015625 128.148438 33.328125 130.6875 C 33.417969 130.273438 33.558594 129.855469 33.648438 129.347656 C 32.21875 129.902344 31.386719 131.242188 31.246094 132.769531 C 31.109375 134.617188 32.078125 136.324219 33.09375 137.757812 C 33.140625 137.433594 33.1875 137.15625 33.234375 136.832031 C 31.015625 139.421875 31.109375 143.394531 33.417969 145.886719 C 33.417969 145.519531 33.417969 145.148438 33.417969 144.824219 C 31.246094 147.457031 31.246094 151.433594 33.558594 154.019531 C 33.601562 153.601562 33.648438 153.234375 33.695312 152.769531 C 32.125 153.464844 31.292969 155.171875 31.292969 156.882812 C 31.292969 158.824219 32.402344 160.53125 33.695312 161.917969 C 34.34375 162.65625 35.496094 161.550781 34.757812 160.855469 C 33.835938 159.839844 32.910156 158.59375 32.816406 157.113281 C 32.726562 155.867188 33.28125 154.664062 34.480469 154.15625 C 34.941406 153.925781 34.941406 153.28125 34.621094 152.910156 C 32.910156 150.96875 32.863281 147.921875 34.480469 145.933594 C 34.757812 145.609375 34.804688 145.195312 34.480469 144.871094 C 32.726562 143.023438 32.632812 139.972656 34.296875 138.035156 C 34.527344 137.804688 34.621094 137.386719 34.433594 137.109375 C 33.742188 136.046875 32.910156 134.847656 32.816406 133.507812 C 32.773438 132.582031 33.09375 131.382812 34.113281 131.011719 C 34.664062 130.828125 34.851562 130.179688 34.433594 129.671875 C 32.726562 127.730469 32.773438 124.589844 34.621094 122.742188 C 34.898438 122.464844 34.941406 121.957031 34.621094 121.679688 C 32.585938 119.785156 32.679688 116.414062 34.757812 114.613281 C 35.082031 114.335938 35.035156 113.828125 34.757812 113.550781 C 32.773438 111.515625 32.539062 108.238281 34.113281 105.878906 C 34.664062 104.910156 33.28125 104.125 32.726562 104.957031 Z M 32.726562 104.957031 " fill-opacity="1" fill-rule="nonzero"/><path fill="#a9a0f0" d="M 36.050781 215.371094 C 33.234375 213.890625 32.265625 209.640625 34.390625 207.191406 C 34.664062 206.871094 34.664062 206.453125 34.390625 206.128906 C 33.140625 204.605469 32.863281 202.574219 33.558594 200.816406 C 33.878906 199.894531 34.203125 199.0625 34.113281 198.089844 C 34.019531 197.167969 33.648438 196.289062 33.464844 195.414062 C 33.234375 194.394531 33.464844 193.703125 33.878906 192.777344 C 34.296875 191.855469 34.25 190.976562 33.878906 190.054688 C 33.140625 188.066406 33.050781 186.125 34.113281 184.230469 C 34.296875 183.910156 34.203125 183.585938 33.972656 183.308594 C 32.402344 181.367188 32.539062 178.363281 34.203125 176.5625 C 34.433594 176.332031 34.527344 175.917969 34.34375 175.640625 C 33.050781 173.605469 33.09375 171.066406 34.390625 169.078125 C 34.574219 168.757812 34.480469 168.433594 34.25 168.15625 C 32.816406 166.398438 33.003906 163.675781 34.574219 162.058594 C 35.265625 161.363281 34.203125 160.253906 33.511719 160.996094 C 31.292969 163.257812 31.199219 166.863281 33.1875 169.265625 C 33.140625 168.941406 33.09375 168.664062 33.050781 168.339844 C 31.476562 170.789062 31.476562 174.023438 33.003906 176.515625 C 33.050781 176.195312 33.09375 175.917969 33.140625 175.59375 C 30.878906 178.089844 30.785156 181.96875 32.910156 184.554688 C 32.863281 184.230469 32.816406 183.957031 32.773438 183.632812 C 31.753906 185.433594 31.386719 187.652344 31.988281 189.636719 C 32.125 190.191406 32.449219 190.746094 32.585938 191.300781 C 32.726562 191.949219 32.355469 192.457031 32.125 193.011719 C 31.710938 193.886719 31.664062 194.859375 31.894531 195.78125 C 32.078125 196.753906 32.585938 197.722656 32.585938 198.738281 C 32.585938 199.800781 31.894531 200.816406 31.710938 201.878906 C 31.386719 203.726562 31.941406 205.667969 33.234375 207.238281 C 33.234375 206.871094 33.234375 206.5 33.234375 206.128906 C 30.507812 209.316406 31.433594 214.769531 35.175781 216.753906 C 36.144531 217.21875 36.882812 215.832031 36.050781 215.371094 Z M 36.050781 215.371094 " fill-opacity="1" fill-rule="nonzero"/><path fill="#a9a0f0" d="M 168.964844 106.574219 C 170.902344 108.929688 170.257812 112.117188 167.992188 113.917969 C 167.53125 114.289062 167.761719 114.980469 168.179688 115.304688 C 170.535156 116.921875 170.671875 120.246094 168.363281 121.957031 C 167.949219 122.234375 167.714844 122.925781 168.179688 123.34375 C 170.394531 125.144531 170.535156 128.195312 168.316406 130.132812 C 167.808594 130.550781 168.132812 131.429688 168.6875 131.613281 C 169.65625 131.890625 170.394531 132.8125 170.394531 133.832031 C 170.347656 135.214844 169.285156 136.371094 168.457031 137.386719 C 168.179688 137.757812 168.085938 138.265625 168.457031 138.636719 C 170.535156 140.574219 170.347656 143.53125 168.222656 145.332031 C 167.855469 145.609375 167.902344 146.257812 168.222656 146.582031 C 170.304688 148.566406 170.164062 151.570312 168.039062 153.464844 C 167.53125 153.925781 167.855469 154.757812 168.410156 154.941406 C 169.519531 155.3125 170.441406 156.421875 170.347656 157.667969 C 170.257812 159.191406 168.964844 160.441406 167.855469 161.410156 C 167.023438 162.148438 168.222656 163.398438 169.101562 162.65625 C 170.625 161.316406 172.199219 159.515625 172.058594 157.34375 C 171.964844 155.40625 170.625 153.878906 168.871094 153.28125 C 169.011719 153.742188 169.101562 154.25 169.242188 154.757812 C 172.011719 152.261719 172.105469 148.011719 169.425781 145.425781 C 169.425781 145.839844 169.425781 146.210938 169.425781 146.671875 C 172.242188 144.269531 172.382812 140.019531 169.65625 137.480469 C 169.65625 137.894531 169.65625 138.265625 169.65625 138.726562 C 170.8125 137.25 172.242188 135.585938 172.105469 133.597656 C 171.964844 131.890625 170.765625 130.550781 169.195312 130.042969 C 169.332031 130.503906 169.425781 131.011719 169.5625 131.519531 C 172.429688 129.070312 172.335938 124.636719 169.425781 122.28125 C 169.378906 122.742188 169.332031 123.160156 169.242188 123.667969 C 172.613281 121.171875 172.519531 116.367188 169.054688 114.011719 C 169.101562 114.472656 169.148438 114.890625 169.242188 115.398438 C 172.242188 112.902344 172.707031 108.558594 170.210938 105.558594 C 169.472656 104.449219 168.269531 105.742188 168.964844 106.574219 Z M 168.964844 106.574219 " fill-opacity="1" fill-rule="nonzero"/><path fill="#a9a0f0" d="M 168.363281 216.941406 C 170.394531 216.109375 171.964844 214.539062 172.199219 212.273438 C 172.382812 210.148438 171.273438 208.070312 169.75 206.636719 C 169.75 207.054688 169.75 207.421875 169.75 207.886719 C 171.320312 206.359375 172.152344 204.191406 171.6875 202.019531 C 171.457031 201.003906 170.582031 199.984375 170.625 198.921875 C 170.71875 197.953125 171.273438 197.027344 171.503906 196.152344 C 171.78125 195.179688 171.6875 194.210938 171.226562 193.332031 C 170.996094 192.871094 170.488281 192.410156 170.535156 191.855469 C 170.582031 191.347656 171.042969 190.699219 171.226562 190.238281 C 172.058594 188.113281 171.6875 185.710938 170.394531 183.863281 C 170.347656 184.1875 170.304688 184.554688 170.257812 184.878906 C 172.890625 182.339844 172.75 178.179688 169.980469 175.777344 C 169.980469 176.195312 169.980469 176.5625 169.980469 177.023438 C 172.011719 174.390625 172.011719 171.019531 169.933594 168.433594 C 169.933594 168.847656 169.933594 169.21875 169.933594 169.679688 C 172.382812 167.324219 172.199219 163.398438 169.5625 161.273438 C 168.734375 160.578125 167.4375 161.78125 168.316406 162.519531 C 170.257812 164.089844 170.535156 166.675781 168.6875 168.480469 C 168.316406 168.800781 168.410156 169.308594 168.6875 169.726562 C 170.117188 171.527344 170.164062 174.070312 168.734375 175.871094 C 168.457031 176.195312 168.363281 176.75 168.734375 177.117188 C 170.8125 178.917969 170.996094 181.828125 169.011719 183.769531 C 168.777344 184 168.640625 184.507812 168.871094 184.785156 C 169.472656 185.617188 169.933594 186.632812 169.933594 187.695312 C 169.980469 188.714844 169.609375 189.546875 169.195312 190.46875 C 168.734375 191.4375 168.6875 192.363281 169.195312 193.332031 C 169.425781 193.75 169.75 194.074219 169.886719 194.582031 C 169.980469 194.996094 169.886719 195.414062 169.75 195.875 C 169.472656 196.75 169.054688 197.582031 168.917969 198.460938 C 168.777344 199.476562 169.054688 200.355469 169.519531 201.234375 C 170.441406 203.171875 170.027344 205.113281 168.5 206.59375 C 168.179688 206.914062 168.179688 207.515625 168.5 207.839844 C 169.609375 208.855469 170.535156 210.289062 170.488281 211.90625 C 170.441406 213.476562 169.332031 214.628906 167.949219 215.277344 C 166.839844 215.691406 167.300781 217.402344 168.363281 216.941406 Z M 168.363281 216.941406 " fill-opacity="1" fill-rule="nonzero"/><path fill="#a9a0f0" d="M 35.128906 216.292969 C 41.085938 221.652344 49.449219 223.453125 57.117188 224.65625 C 66.542969 226.132812 76.011719 227.105469 85.53125 227.660156 C 104.792969 228.8125 124.335938 228.304688 143.554688 225.671875 C 148.035156 225.070312 152.515625 224.101562 156.765625 222.667969 C 161.15625 221.097656 165.269531 219.019531 169.101562 216.433594 C 169.839844 215.96875 169.148438 214.722656 168.410156 215.230469 C 164.945312 217.542969 161.25 219.527344 157.320312 221.007812 C 153.625 222.390625 149.882812 223.316406 146.003906 223.917969 C 141.523438 224.65625 136.996094 225.117188 132.46875 225.535156 C 127.753906 225.949219 122.996094 226.273438 118.285156 226.503906 C 99.203125 227.382812 80.03125 226.503906 61.089844 223.871094 C 56.519531 223.222656 51.898438 222.484375 47.460938 221.191406 C 43.351562 219.941406 39.378906 218.234375 36.144531 215.324219 C 35.453125 214.769531 34.480469 215.691406 35.128906 216.292969 Z M 35.128906 216.292969 " fill-opacity="1" fill-rule="nonzero"/><path fill="#a9a0f0" d="M 33.417969 208.164062 C 39.609375 213.707031 48.292969 215.371094 56.285156 216.617188 C 66.035156 218.09375 75.828125 219.066406 85.667969 219.621094 C 105.394531 220.730469 125.445312 220.128906 145.03125 217.355469 C 153.625 216.109375 163.234375 214.167969 169.5625 207.792969 C 170.164062 207.148438 169.242188 206.175781 168.59375 206.824219 C 163.050781 212.460938 154.734375 214.398438 147.203125 215.648438 C 137.917969 217.171875 128.449219 217.910156 119.023438 218.328125 C 99.4375 219.25 79.710938 218.464844 60.304688 215.832031 C 55.59375 215.183594 50.835938 214.445312 46.261719 213.199219 C 41.964844 211.949219 37.761719 210.242188 34.433594 207.238281 C 33.695312 206.546875 32.679688 207.515625 33.417969 208.164062 Z M 33.417969 208.164062 " fill-opacity="1" fill-rule="nonzero"/><path fill="#a9a0f0" d="M 33.417969 200.539062 C 39.609375 206.082031 48.292969 207.746094 56.285156 208.996094 C 66.035156 210.472656 75.828125 211.441406 85.667969 211.996094 C 105.394531 213.058594 125.445312 212.503906 145.03125 209.734375 C 153.625 208.484375 163.234375 206.546875 169.5625 200.171875 C 170.164062 199.523438 169.242188 198.554688 168.59375 199.199219 C 163.050781 204.835938 154.734375 206.777344 147.203125 208.023438 C 137.917969 209.546875 128.449219 210.289062 119.023438 210.703125 C 99.4375 211.628906 79.710938 210.84375 60.304688 208.210938 C 55.59375 207.5625 50.835938 206.824219 46.261719 205.574219 C 41.964844 204.328125 37.761719 202.617188 34.433594 199.617188 C 33.695312 198.921875 32.679688 199.941406 33.417969 200.539062 Z M 33.417969 200.539062 " fill-opacity="1" fill-rule="nonzero"/><path fill="#a9a0f0" d="M 33.417969 192.59375 C 39.609375 198.136719 48.292969 199.800781 56.285156 201.046875 C 66.035156 202.527344 75.828125 203.496094 85.667969 204.050781 C 105.394531 205.160156 125.445312 204.558594 145.03125 201.789062 C 153.625 200.539062 163.234375 198.601562 169.5625 192.222656 C 170.164062 191.578125 169.242188 190.609375 168.59375 191.253906 C 163.050781 196.890625 154.734375 198.832031 147.203125 200.078125 C 137.917969 201.601562 128.449219 202.34375 119.023438 202.757812 C 99.4375 203.679688 79.710938 202.894531 60.304688 200.261719 C 55.59375 199.617188 50.835938 198.878906 46.261719 197.628906 C 41.964844 196.382812 37.761719 194.671875 34.433594 191.671875 C 33.695312 190.976562 32.679688 191.949219 33.417969 192.59375 Z M 33.417969 192.59375 " fill-opacity="1" fill-rule="nonzero"/><path fill="#a9a0f0" d="M 33.417969 184.972656 C 39.609375 190.515625 48.292969 192.179688 56.285156 193.425781 C 66.035156 194.902344 75.828125 195.875 85.667969 196.429688 C 105.394531 197.492188 125.445312 196.9375 145.03125 194.164062 C 153.625 192.917969 163.234375 190.976562 169.5625 184.601562 C 170.164062 183.957031 169.242188 182.984375 168.59375 183.632812 C 163.050781 189.269531 154.734375 191.207031 147.203125 192.457031 C 137.917969 193.980469 128.449219 194.71875 119.023438 195.136719 C 99.4375 196.058594 79.710938 195.273438 60.304688 192.640625 C 55.59375 191.992188 50.835938 191.253906 46.261719 190.007812 C 41.964844 188.757812 37.761719 187.050781 34.433594 184.046875 C 33.695312 183.355469 32.679688 184.371094 33.417969 184.972656 Z M 33.417969 184.972656 " fill-opacity="1" fill-rule="nonzero"/><path fill="#a9a0f0" d="M 33.417969 176.980469 C 39.609375 182.523438 48.292969 184.1875 56.285156 185.433594 C 66.035156 186.910156 75.828125 187.882812 85.667969 188.4375 C 105.394531 189.546875 125.445312 188.945312 145.03125 186.171875 C 153.625 184.925781 163.234375 182.984375 169.5625 176.609375 C 170.164062 175.960938 169.242188 174.992188 168.59375 175.640625 C 163.050781 181.277344 154.734375 183.214844 147.203125 184.464844 C 137.917969 185.988281 128.449219 186.726562 119.023438 187.144531 C 99.4375 188.066406 79.710938 187.28125 60.304688 184.648438 C 55.59375 184 50.835938 183.261719 46.261719 182.015625 C 41.964844 180.765625 37.761719 179.058594 34.433594 176.054688 C 33.695312 175.453125 32.679688 176.378906 33.417969 176.980469 Z M 33.417969 176.980469 " fill-opacity="1" fill-rule="nonzero"/><path fill="#a9a0f0" d="M 33.417969 169.402344 C 39.609375 174.945312 48.292969 176.609375 56.285156 177.855469 C 66.035156 179.335938 75.828125 180.304688 85.667969 180.859375 C 105.394531 181.921875 125.445312 181.367188 145.03125 178.597656 C 153.625 177.347656 163.234375 175.410156 169.5625 169.03125 C 170.164062 168.386719 169.242188 167.417969 168.59375 168.0625 C 163.050781 173.699219 154.734375 175.640625 147.203125 176.886719 C 137.917969 178.410156 128.449219 179.152344 119.023438 179.566406 C 99.4375 180.492188 79.710938 179.703125 60.304688 177.070312 C 55.59375 176.425781 50.835938 175.6875 46.261719 174.4375 C 41.964844 173.191406 37.761719 171.480469 34.433594 168.480469 C 33.695312 167.785156 32.679688 168.800781 33.417969 169.402344 Z M 33.417969 169.402344 " fill-opacity="1" fill-rule="nonzero"/><path fill="#a9a0f0" d="M 33.417969 161.410156 C 39.609375 166.953125 48.292969 168.617188 56.285156 169.863281 C 66.035156 171.34375 75.828125 172.3125 85.667969 172.867188 C 105.394531 173.976562 125.445312 173.375 145.03125 170.605469 C 153.625 169.355469 163.234375 167.417969 169.5625 161.039062 C 170.164062 160.394531 169.242188 159.425781 168.59375 160.070312 C 163.050781 165.707031 154.734375 167.648438 147.203125 168.894531 C 137.917969 170.417969 128.449219 171.160156 119.023438 171.574219 C 99.4375 172.496094 79.710938 171.710938 60.304688 169.078125 C 55.59375 168.433594 50.835938 167.695312 46.261719 166.445312 C 41.964844 165.199219 37.761719 163.488281 34.433594 160.488281 C 33.695312 159.886719 32.679688 160.808594 33.417969 161.410156 Z M 33.417969 161.410156 " fill-opacity="1" fill-rule="nonzero"/><path fill="#a9a0f0" d="M 33.417969 153.832031 C 39.609375 159.378906 48.292969 161.039062 56.285156 162.289062 C 66.035156 163.765625 75.828125 164.738281 85.667969 165.292969 C 105.394531 166.355469 125.445312 165.800781 145.03125 163.027344 C 153.625 161.78125 163.234375 159.839844 169.5625 153.464844 C 170.164062 152.816406 169.242188 151.847656 168.59375 152.496094 C 163.050781 158.128906 154.734375 160.070312 147.203125 161.316406 C 137.917969 162.84375 128.449219 163.582031 119.023438 163.996094 C 99.4375 164.921875 79.710938 164.136719 60.304688 161.503906 C 55.59375 160.855469 50.835938 160.117188 46.261719 158.871094 C 41.964844 157.621094 37.761719 155.914062 34.433594 152.910156 C 33.695312 152.21875 32.679688 153.234375 33.417969 153.832031 Z M 33.417969 153.832031 " fill-opacity="1" fill-rule="nonzero"/><path fill="#a9a0f0" d="M 33.417969 145.472656 C 39.609375 151.015625 48.292969 152.679688 56.285156 153.925781 C 66.035156 155.40625 75.828125 156.375 85.667969 156.929688 C 105.394531 157.992188 125.445312 157.4375 145.03125 154.664062 C 153.625 153.417969 163.234375 151.476562 169.5625 145.101562 C 170.164062 144.457031 169.242188 143.484375 168.59375 144.132812 C 163.050781 149.769531 154.734375 151.707031 147.203125 152.957031 C 137.917969 154.480469 128.449219 155.21875 119.023438 155.636719 C 99.4375 156.558594 79.710938 155.773438 60.304688 153.140625 C 55.59375 152.496094 50.835938 151.753906 46.261719 150.507812 C 41.964844 149.261719 37.761719 147.550781 34.433594 144.546875 C 33.695312 143.855469 32.679688 144.871094 33.417969 145.472656 Z M 33.417969 145.472656 " fill-opacity="1" fill-rule="nonzero"/><path fill="#a9a0f0" d="M 33.417969 137.847656 C 39.609375 143.394531 48.292969 145.054688 56.285156 146.304688 C 66.035156 147.78125 75.828125 148.753906 85.667969 149.304688 C 105.394531 150.414062 125.445312 149.816406 145.03125 147.042969 C 153.625 145.796875 163.234375 143.855469 169.5625 137.480469 C 170.164062 136.832031 169.242188 135.863281 168.59375 136.507812 C 163.050781 142.144531 154.734375 144.085938 147.203125 145.332031 C 137.917969 146.859375 128.449219 147.597656 119.023438 148.011719 C 99.4375 148.9375 79.710938 148.152344 60.304688 145.519531 C 55.59375 144.871094 50.835938 144.132812 46.261719 142.886719 C 41.964844 141.636719 37.761719 139.929688 34.433594 136.925781 C 33.695312 136.277344 32.679688 137.25 33.417969 137.847656 Z M 33.417969 137.847656 " fill-opacity="1" fill-rule="nonzero"/><path fill="#a9a0f0" d="M 33.417969 129.902344 C 39.609375 135.445312 48.292969 137.109375 56.285156 138.359375 C 66.035156 139.835938 75.828125 140.804688 85.667969 141.359375 C 105.394531 142.421875 125.445312 141.867188 145.03125 139.097656 C 153.625 137.847656 163.234375 135.910156 169.5625 129.535156 C 170.164062 128.886719 169.242188 127.917969 168.59375 128.5625 C 163.050781 134.199219 154.734375 136.140625 147.203125 137.386719 C 137.917969 138.910156 128.449219 139.652344 119.023438 140.066406 C 99.4375 140.992188 79.710938 140.207031 60.304688 137.574219 C 55.59375 136.925781 50.835938 136.1875 46.261719 134.9375 C 41.964844 133.691406 37.761719 131.980469 34.433594 128.980469 C 33.695312 128.285156 32.679688 129.304688 33.417969 129.902344 Z M 33.417969 129.902344 " fill-opacity="1" fill-rule="nonzero"/><path fill="#a9a0f0" d="M 33.417969 122.28125 C 39.609375 127.824219 48.292969 129.488281 56.285156 130.734375 C 66.035156 132.214844 75.828125 133.183594 85.667969 133.738281 C 105.394531 134.800781 125.445312 134.246094 145.03125 131.472656 C 153.625 130.226562 163.234375 128.285156 169.5625 121.910156 C 170.164062 121.265625 169.242188 120.292969 168.59375 120.941406 C 163.050781 126.578125 154.734375 128.515625 147.203125 129.765625 C 137.917969 131.289062 128.449219 132.027344 119.023438 132.445312 C 99.4375 133.367188 79.710938 132.582031 60.304688 129.949219 C 55.59375 129.304688 50.835938 128.5625 46.261719 127.316406 C 41.964844 126.070312 37.761719 124.359375 34.433594 121.355469 C 33.695312 120.710938 32.679688 121.679688 33.417969 122.28125 Z M 33.417969 122.28125 " fill-opacity="1" fill-rule="nonzero"/><path fill="#a9a0f0" d="M 33.417969 115.304688 C 39.609375 120.847656 48.292969 122.511719 56.285156 123.757812 C 66.035156 125.238281 75.828125 126.207031 85.667969 126.761719 C 105.394531 127.824219 125.445312 127.269531 145.03125 124.5 C 153.625 123.25 163.234375 121.3125 169.5625 114.933594 C 170.164062 114.289062 169.242188 113.316406 168.59375 113.964844 C 163.050781 119.601562 154.734375 121.542969 147.203125 122.789062 C 137.917969 124.3125 128.449219 125.050781 119.023438 125.46875 C 99.4375 126.390625 79.710938 125.605469 60.304688 122.972656 C 55.59375 122.328125 50.835938 121.585938 46.261719 120.339844 C 41.964844 119.09375 37.761719 117.382812 34.433594 114.382812 C 33.695312 113.734375 32.679688 114.703125 33.417969 115.304688 Z M 33.417969 115.304688 " fill-opacity="1" fill-rule="nonzero"/><path fill="#a9a0f0" d="M 35.035156 235.234375 C 42.058594 240.640625 49.820312 245.074219 58.042969 248.402344 C 67.605469 252.28125 77.722656 254.453125 88.023438 255.054688 C 95.972656 255.515625 104.054688 255.378906 112 254.960938 C 121.289062 254.5 130.527344 253.066406 139.441406 250.203125 C 149.191406 247.109375 158.429688 242.304688 166.746094 236.296875 C 167.4375 235.789062 168.179688 235.28125 168.871094 234.679688 C 169.65625 234.078125 168.871094 232.738281 168.085938 233.339844 C 160.417969 239.253906 151.871094 244.058594 142.816406 247.386719 C 133.851562 250.710938 124.476562 252.511719 114.957031 253.207031 C 107.195312 253.761719 99.25 253.898438 91.445312 253.621094 C 81.601562 253.296875 71.902344 251.636719 62.617188 248.402344 C 53.792969 245.304688 45.429688 240.871094 37.898438 235.328125 C 37.253906 234.867188 36.558594 234.355469 35.914062 233.804688 C 35.035156 233.25 34.25 234.632812 35.035156 235.234375 Z M 35.035156 235.234375 " fill-opacity="1" fill-rule="nonzero"/></svg>