<svg xmlns="http://www.w3.org/2000/svg" xmlns:xlink="http://www.w3.org/1999/xlink" width="400" zoomAndPan="magnify" viewBox="0 0 300 299.999988" height="400" preserveAspectRatio="xMidYMid meet" version="1.0"><defs><clipPath id="26e8cdbcc8"><path d="M 136.023438 111.070312 L 270 111.070312 L 270 233.847656 L 136.023438 233.847656 Z M 136.023438 111.070312 " clip-rule="nonzero"/></clipPath><clipPath id="5c890a1940"><path d="M 30 61.796875 L 144 61.796875 L 144 91 L 30 91 Z M 30 61.796875 " clip-rule="nonzero"/></clipPath></defs><g clip-path="url(#26e8cdbcc8)"><path fill="#a9a0f0" d="M 206.019531 179.160156 C 205.671875 181.144531 205.054688 183.125 205.003906 185.164062 C 204.949219 187.089844 204.277344 188.914062 203.824219 190.761719 C 203.796875 190.816406 203.714844 190.789062 203.742188 190.734375 C 203.929688 188.753906 203.929688 186.769531 204.546875 184.839844 C 204.84375 183.902344 205.03125 182.859375 205.109375 181.894531 C 205.21875 180.929688 205.351562 179.964844 205.484375 179 C 205.539062 178.679688 206.074219 178.867188 206.019531 179.160156 Z M 201.171875 202.898438 C 201.117188 203.324219 201.039062 203.753906 201.039062 204.183594 C 201.039062 204.691406 201.066406 205.175781 201.039062 205.65625 C 201.039062 205.710938 201.117188 205.738281 201.117188 205.683594 C 201.171875 205.226562 201.277344 204.800781 201.386719 204.34375 C 201.492188 203.914062 201.492188 203.433594 201.519531 202.976562 C 201.519531 202.789062 201.199219 202.683594 201.171875 202.898438 Z M 200.636719 207.15625 Z M 186.570312 169.410156 C 185.527344 171.339844 184.617188 173.402344 183.917969 175.492188 C 183.195312 177.660156 182.472656 179.804688 181.910156 182.027344 C 181.882812 182.164062 182.125 182.214844 182.152344 182.082031 C 182.742188 179.859375 183.382812 177.636719 184.242188 175.492188 C 185.046875 173.484375 185.847656 171.472656 186.679688 169.464844 C 186.707031 169.410156 186.597656 169.355469 186.570312 169.410156 Z M 192.492188 161.160156 C 191.660156 161.910156 191.097656 162.847656 190.429688 163.730469 C 190.054688 164.214844 189.546875 164.5625 189.171875 165.042969 C 188.796875 165.5 188.5 165.957031 188.234375 166.492188 C 188.097656 166.730469 188.445312 166.945312 188.632812 166.757812 C 189.007812 166.410156 189.382812 166.0625 189.679688 165.632812 C 190.027344 165.152344 190.242188 164.589844 190.589844 164.078125 C 191.285156 163.117188 192.144531 162.3125 192.707031 161.265625 C 192.707031 161.1875 192.546875 161.105469 192.492188 161.160156 Z M 221.960938 219.15625 C 222.414062 218.488281 222.898438 217.84375 223.21875 217.066406 C 223.273438 216.960938 223.113281 216.878906 223.058594 216.960938 C 222.496094 217.578125 222.09375 218.300781 221.664062 218.996094 C 221.53125 219.183594 221.851562 219.320312 221.960938 219.15625 Z M 223.59375 216.050781 C 223.886719 215.753906 224.101562 215.433594 224.289062 215.085938 C 224.371094 214.925781 224.425781 214.765625 224.476562 214.578125 C 224.558594 214.308594 224.503906 214.253906 224.503906 213.988281 C 224.503906 213.90625 224.371094 213.878906 224.34375 213.960938 C 224.289062 214.121094 224.238281 214.253906 224.183594 214.417969 C 224.15625 214.578125 224.101562 214.738281 224.050781 214.898438 C 223.914062 215.273438 223.726562 215.621094 223.488281 215.941406 C 223.433594 216.023438 223.539062 216.128906 223.59375 216.050781 Z M 224.398438 176.511719 C 224.613281 177.179688 224.71875 178.199219 225.308594 178.652344 C 225.390625 178.707031 225.523438 178.707031 225.550781 178.597656 C 225.816406 177.957031 225.308594 177.046875 225.09375 176.429688 C 224.800781 175.492188 224.453125 174.582031 224.101562 173.671875 C 223.996094 173.429688 223.566406 173.402344 223.648438 173.722656 C 223.886719 174.6875 224.128906 175.597656 224.398438 176.511719 Z M 226.328125 182.644531 C 226.726562 182.617188 226.648438 182.027344 226.59375 181.789062 C 226.539062 181.546875 226.433594 181.359375 226.300781 181.144531 C 226.113281 180.851562 226.03125 180.582031 225.925781 180.261719 C 225.925781 180.234375 225.871094 180.234375 225.871094 180.261719 C 225.898438 180.609375 225.871094 180.851562 225.789062 181.199219 C 225.738281 181.464844 225.710938 181.652344 225.765625 181.949219 C 225.816406 182.1875 225.953125 182.671875 226.328125 182.644531 Z M 269.886719 188.753906 C 269.777344 191.191406 269.511719 193.574219 268.949219 195.933594 C 268.382812 198.316406 267.632812 200.621094 266.9375 202.949219 C 266.296875 205.121094 265.519531 207.261719 264.6875 209.378906 C 263.859375 211.496094 262.730469 213.53125 261.367188 215.328125 C 258.957031 218.460938 255.3125 221.273438 251.238281 221.621094 C 250.488281 222.507812 249.660156 223.308594 248.828125 224.058594 C 246.445312 226.148438 243.683594 227.730469 240.738281 228.910156 C 237.738281 230.113281 234.523438 230.863281 231.308594 231.078125 C 229.675781 231.1875 228.015625 231.238281 226.40625 231.050781 C 224.878906 230.890625 223.085938 230.625 221.851562 229.632812 C 220.863281 230.4375 219.816406 231.132812 218.691406 231.722656 C 215.128906 233.625 211.269531 234.132812 207.304688 233.4375 C 205.109375 233.0625 202.941406 232.445312 200.742188 231.960938 C 198.546875 231.480469 196.351562 231.347656 194.097656 231.425781 C 191.796875 231.507812 189.492188 231.722656 187.1875 231.695312 C 185.234375 231.667969 183.25 231.375 181.375 230.8125 C 178.667969 230.007812 176.152344 228.695312 173.902344 227.058594 C 172.667969 227.222656 171.410156 227.222656 170.175781 227.035156 C 165.25 226.308594 160.667969 223.683594 156.808594 220.632812 C 152.953125 217.578125 149.628906 213.988281 146.496094 210.210938 C 144.96875 208.363281 143.46875 206.460938 141.96875 204.558594 C 140.335938 202.46875 138.835938 200.324219 138.03125 197.78125 C 137.199219 195.101562 136.984375 192.234375 136.664062 189.476562 C 136.34375 186.691406 136.023438 183.875 136.128906 181.0625 C 136.476562 172.25 140.414062 164.242188 145.933594 157.542969 C 147.113281 154.25 148.746094 151.140625 150.808594 148.300781 C 155.09375 142.382812 160.613281 137.292969 166.828125 133.460938 C 170.125 131.425781 173.765625 129.816406 177.679688 129.789062 C 178.105469 129.789062 178.535156 129.84375 178.964844 129.949219 C 180.757812 128.449219 183.007812 127.40625 185.257812 126.976562 C 187.429688 126.574219 189.734375 126.738281 191.796875 127.539062 C 193.1875 128.101562 194.339844 128.878906 195.277344 129.898438 C 195.652344 129.308594 196.082031 128.773438 196.511719 128.183594 C 197.074219 127.40625 197.796875 126.84375 198.652344 126.441406 C 199.671875 125.960938 200.824219 125.746094 201.949219 125.664062 C 202.804688 125.613281 203.824219 125.558594 204.734375 125.691406 C 204.816406 124.835938 204.789062 123.976562 204.65625 123.148438 C 204.414062 121.59375 203.796875 120.253906 202.992188 118.914062 C 202.269531 117.707031 201.601562 116.476562 201.386719 115.109375 C 201.304688 115.03125 201.253906 114.921875 201.253906 114.789062 C 201.226562 113.15625 202.671875 112.082031 204.011719 111.519531 C 204.734375 111.199219 205.566406 111.09375 206.367188 111.199219 C 206.851562 111.253906 207.84375 111.386719 208.03125 111.921875 C 208.457031 112.191406 208.804688 112.617188 209.15625 113.019531 C 209.582031 113.503906 209.933594 114.039062 210.253906 114.601562 C 210.628906 115.21875 210.949219 115.859375 211.21875 116.421875 C 211.96875 117.949219 212.503906 119.558594 212.851562 121.21875 C 213.011719 121.941406 213.011719 122.746094 213.066406 123.496094 C 213.121094 124.191406 213.171875 124.886719 213.199219 125.613281 C 213.199219 126.066406 213.199219 126.523438 213.171875 126.976562 C 214.21875 126.683594 215.289062 126.761719 216.386719 126.761719 C 217.460938 126.761719 218.558594 126.710938 219.628906 126.84375 C 221.449219 127.058594 223.273438 127.648438 224.453125 129.09375 C 226.914062 128.851562 229.40625 128.988281 231.84375 129.226562 C 234.230469 129.46875 236.613281 129.84375 238.972656 130.460938 C 243.472656 131.613281 247.730469 133.566406 251.238281 136.648438 C 252.902344 138.09375 254.507812 139.703125 255.632812 141.605469 C 255.902344 142.058594 256.195312 142.515625 256.355469 142.996094 C 256.542969 143.453125 256.625 143.960938 256.785156 144.417969 C 257 145.007812 257.1875 145.621094 257.320312 146.265625 C 259.035156 148.195312 260.402344 150.417969 261.957031 152.453125 C 262.0625 152.585938 262.089844 152.75 262.0625 152.882812 C 262.679688 153.605469 263.269531 154.355469 263.804688 155.132812 C 264.984375 156.765625 265.8125 158.5625 266.617188 160.410156 C 267.472656 162.390625 268.332031 164.292969 268.839844 166.410156 C 269.402344 168.820312 269.617188 171.207031 269.617188 173.671875 C 269.617188 176.214844 269.832031 178.761719 269.9375 181.304688 C 269.992188 183.796875 269.992188 186.289062 269.886719 188.753906 Z M 222.816406 131.851562 C 220.96875 132.308594 219.28125 133.085938 217.753906 134.238281 C 216.308594 135.335938 215.046875 136.703125 213.976562 138.175781 C 211.753906 141.148438 210.09375 144.578125 208.539062 147.925781 C 208.429688 148.195312 208.191406 148.273438 207.921875 148.273438 C 208.191406 149.078125 208.59375 149.800781 209.15625 150.445312 C 209.207031 150.390625 209.261719 150.3125 209.316406 150.257812 C 209.582031 149.910156 209.796875 149.585938 209.984375 149.210938 C 210.171875 148.835938 210.308594 148.410156 210.46875 148.035156 C 210.628906 147.660156 210.871094 147.308594 211.109375 146.988281 C 211.59375 146.292969 212.15625 145.621094 212.769531 145.007812 C 213.28125 144.496094 213.84375 143.800781 214.648438 143.90625 C 214.808594 143.933594 214.996094 144.042969 214.996094 144.230469 C 215.101562 145.007812 214.460938 145.515625 213.976562 146.050781 C 213.441406 146.667969 212.90625 147.308594 212.394531 147.953125 C 212.15625 148.273438 211.914062 148.597656 211.644531 148.890625 C 211.351562 149.210938 211.03125 149.480469 210.789062 149.855469 C 210.496094 150.3125 210.386719 150.925781 210.171875 151.4375 C 210.332031 151.542969 210.519531 151.675781 210.683594 151.757812 C 210.894531 151.863281 211.164062 151.972656 211.40625 152.050781 C 211.40625 152.023438 211.433594 152.023438 211.433594 152 C 212.074219 151.273438 212.769531 150.605469 213.496094 149.960938 C 219.710938 144.550781 228.226562 142.996094 236.132812 141.871094 C 238.40625 141.550781 240.765625 141.121094 243.070312 141.257812 C 245.238281 141.390625 247.300781 141.980469 249.285156 142.890625 C 252.390625 144.308594 255.285156 146.398438 257.828125 148.730469 C 257.589844 148.355469 257.375 148.007812 257.1875 147.632812 C 257.160156 147.605469 257.132812 147.605469 257.132812 147.578125 C 256.570312 146.585938 256.195312 145.460938 255.445312 144.578125 C 254.722656 143.746094 254.105469 142.835938 253.4375 141.953125 C 252.070312 140.128906 250.464844 138.578125 248.585938 137.292969 C 244.972656 134.773438 240.738281 133.21875 236.425781 132.390625 C 236.078125 132.308594 235.730469 132.253906 235.355469 132.203125 C 234.871094 132.308594 234.28125 132.253906 233.90625 132.28125 C 232.996094 132.335938 232.191406 132.441406 231.308594 132.683594 C 230.53125 132.925781 229.808594 133.246094 229.058594 133.539062 C 228.203125 133.835938 227.53125 134.238281 226.835938 134.828125 C 226.351562 135.230469 225.65625 134.425781 226.21875 134.078125 C 226.996094 133.59375 227.746094 133.113281 228.496094 132.628906 C 229.21875 132.175781 230.078125 131.90625 230.878906 131.640625 C 230.503906 131.613281 230.105469 131.585938 229.730469 131.558594 C 227.453125 131.289062 225.09375 131.265625 222.816406 131.851562 Z M 201.867188 156.714844 C 203.046875 156.417969 204.199219 156.175781 205.351562 156.042969 C 205.164062 155.613281 205.003906 155.1875 204.84375 154.757812 C 204.492188 153.792969 204.253906 152.800781 204.089844 151.785156 C 204.039062 151.460938 204.011719 151.167969 203.984375 150.847656 C 203.824219 150.148438 203.664062 149.453125 203.582031 148.757812 C 203.421875 147.203125 203.421875 145.621094 203.582031 144.070312 C 203.851562 141.335938 204.628906 138.683594 205.914062 136.246094 C 206.636719 134.878906 207.492188 133.621094 208.269531 132.308594 C 209.019531 130.996094 209.636719 129.574219 210.039062 128.128906 C 210.308594 127.136719 210.496094 126.148438 210.628906 125.128906 C 210.308594 125.851562 209.878906 126.523438 209.371094 127.164062 C 208.804688 127.863281 208.191406 128.53125 207.519531 129.148438 C 206.929688 129.710938 206.34375 130.273438 205.941406 130.996094 C 205.484375 131.773438 204.921875 132.46875 204.492188 133.246094 C 204.144531 133.890625 203.851562 134.585938 203.636719 135.28125 C 202.617188 138.441406 202.941406 141.925781 203.046875 145.195312 C 203.152344 148.195312 203.261719 151.488281 201.574219 154.113281 C 200.824219 155.265625 199.832031 156.339844 198.492188 156.792969 C 198.839844 156.902344 199.214844 156.980469 199.566406 157.089844 C 200.367188 157.0625 201.171875 156.902344 201.867188 156.714844 Z M 195.226562 153.660156 C 194.984375 153.875 194.609375 154.167969 194.527344 154.488281 C 194.5 154.625 194.5 154.703125 194.554688 154.8125 C 194.582031 154.917969 194.664062 154.917969 194.582031 154.917969 C 194.902344 154.945312 195.144531 155.105469 195.25 155.320312 C 196.511719 156.527344 198.414062 156.015625 199.617188 154.945312 C 200.851562 153.847656 201.414062 152.265625 201.734375 150.6875 C 202.136719 148.730469 202.054688 146.773438 201.949219 144.792969 C 201.734375 146.371094 201.253906 147.871094 200.152344 149.183594 C 199.214844 150.285156 198.117188 151.273438 196.992188 152.1875 C 196.402344 152.695312 195.8125 153.148438 195.226562 153.660156 Z M 206.15625 120.683594 C 206.554688 121.699219 206.851562 122.796875 206.957031 123.898438 C 206.957031 123.898438 206.957031 123.921875 206.957031 123.921875 C 207.039062 123.65625 207.09375 123.414062 207.144531 123.148438 C 207.414062 121.914062 207.574219 120.65625 207.601562 119.394531 C 207.628906 117.683594 207.492188 115.914062 207.226562 114.199219 C 207.011719 113.851562 206.824219 113.476562 206.71875 113.074219 C 206.71875 113.046875 206.71875 113.046875 206.71875 113.019531 C 206.636719 113.316406 206.53125 113.609375 206.449219 113.878906 C 206.179688 114.65625 205.886719 115.429688 205.78125 116.261719 C 205.644531 117.199219 205.644531 118.136719 205.804688 119.074219 C 205.886719 119.558594 206.074219 120.121094 206.15625 120.683594 Z M 205.96875 130.113281 C 206.046875 130.03125 206.101562 129.976562 206.179688 129.898438 C 207.253906 128.746094 208.324219 127.460938 209.019531 126.039062 C 209.769531 124.511719 210.308594 122.878906 210.496094 121.21875 C 210.066406 119.796875 209.558594 118.40625 208.914062 117.09375 C 208.886719 117.039062 208.859375 116.957031 208.804688 116.90625 C 208.886719 117.894531 208.859375 118.886719 208.753906 119.90625 C 208.617188 121.21875 208.378906 122.503906 208.003906 123.761719 C 207.761719 124.621094 207.519531 125.800781 206.957031 126.574219 C 206.796875 127.808594 206.476562 128.988281 205.96875 130.113281 Z M 211.246094 152.828125 C 210.949219 152.773438 210.65625 152.640625 210.386719 152.535156 C 210.121094 152.398438 209.878906 152.265625 209.636719 152.105469 C 209.179688 152.375 208.644531 151.863281 208.671875 151.382812 C 208.671875 151.355469 208.671875 151.300781 208.699219 151.273438 C 207.867188 150.335938 207.332031 149.132812 206.984375 147.953125 C 206.636719 146.746094 206.554688 145.515625 206.664062 144.28125 C 206.769531 142.675781 207.332031 141.121094 207.949219 139.621094 C 208.566406 138.09375 209.316406 136.621094 209.984375 135.121094 C 210.628906 133.675781 211.082031 132.203125 211.378906 130.648438 C 211.621094 129.363281 211.671875 128.128906 211.59375 126.84375 C 211.511719 127.21875 211.40625 127.566406 211.296875 127.941406 C 210.386719 130.890625 208.566406 133.246094 207.09375 135.925781 C 205.671875 138.523438 204.761719 141.417969 204.414062 144.363281 C 204.253906 145.863281 204.226562 147.335938 204.359375 148.835938 C 204.386719 149.105469 204.414062 149.398438 204.441406 149.667969 C 204.628906 150.363281 204.894531 151.0625 205.082031 151.785156 C 205.324219 152.722656 205.59375 153.660156 205.914062 154.570312 C 206.074219 155.050781 206.234375 155.535156 206.394531 155.988281 C 206.503906 155.988281 206.636719 155.988281 206.742188 155.988281 C 208.671875 155.589844 210.226562 154.488281 211.246094 152.828125 Z M 213.039062 127.886719 C 212.957031 128.664062 212.878906 129.441406 212.769531 130.21875 C 212.582031 131.691406 212.207031 133.113281 211.753906 134.53125 C 211.246094 136.085938 210.519531 137.558594 209.824219 139.03125 C 208.804688 141.148438 207.601562 143.480469 207.546875 145.890625 C 209.074219 142.085938 210.871094 138.363281 213.546875 135.203125 C 216.011719 132.308594 219.199219 130.136719 222.898438 129.386719 C 221.800781 128.746094 220.378906 128.636719 219.121094 128.53125 C 218.046875 128.449219 216.976562 128.398438 215.933594 128.34375 C 214.886719 128.261719 213.976562 128.238281 213.039062 127.886719 Z M 204.386719 113.101562 C 205.109375 112.804688 205.671875 112.324219 206.261719 111.84375 C 205.566406 111.734375 204.867188 111.816406 204.226562 112.082031 C 203.582031 112.378906 203.207031 112.914062 202.914062 113.53125 C 203.394531 113.449219 203.878906 113.316406 204.386719 113.101562 Z M 205.378906 119.074219 C 205.429688 119.183594 205.511719 119.289062 205.566406 119.394531 C 205.539062 119.207031 205.511719 119.046875 205.484375 118.859375 C 205.351562 118.082031 205.191406 117.253906 205.242188 116.476562 C 205.269531 115.671875 205.457031 114.921875 205.78125 114.199219 C 206.019531 113.636719 206.207031 113.074219 206.394531 112.511719 C 205.992188 112.992188 205.511719 113.367188 205.03125 113.796875 C 204.441406 114.28125 203.769531 114.65625 203.046875 114.949219 C 203.394531 116.476562 204.574219 117.683594 205.378906 119.074219 Z M 195.894531 130.726562 C 196.1875 131.128906 196.457031 131.53125 196.726562 131.988281 C 198.011719 134.238281 198.867188 136.703125 199.566406 139.167969 C 199.941406 140.453125 200.234375 141.738281 200.503906 143.050781 C 200.503906 143.132812 200.527344 143.183594 200.527344 143.265625 C 200.554688 142.621094 200.554688 141.980469 200.554688 141.335938 C 200.527344 139.753906 200.394531 138.175781 200.554688 136.621094 C 200.742188 134.988281 201.253906 133.433594 202.109375 132.015625 C 202.964844 130.621094 203.851562 129.335938 204.304688 127.753906 C 204.304688 127.726562 204.332031 127.675781 204.332031 127.648438 C 204.171875 127.621094 204.039062 127.59375 203.878906 127.566406 C 203.714844 127.539062 203.554688 127.539062 203.367188 127.511719 C 203.367188 127.648438 203.394531 127.808594 203.316406 127.914062 C 203.234375 128.050781 203.101562 128.074219 202.992188 128.183594 C 202.992188 128.183594 202.964844 128.183594 202.964844 128.183594 C 202.859375 128.050781 202.699219 127.996094 202.589844 127.835938 C 202.511719 127.726562 202.511719 127.566406 202.484375 127.433594 C 202.429688 127.433594 202.378906 127.433594 202.296875 127.433594 C 201.304688 127.433594 200.367188 127.566406 199.429688 127.863281 C 198.679688 128.128906 197.929688 128.449219 197.261719 128.851562 C 196.5625 129.253906 196.136719 129.976562 195.894531 130.726562 Z M 148.425781 154.675781 C 154.800781 147.953125 163.238281 142.917969 172.5625 141.925781 C 177.089844 141.445312 181.589844 142.21875 185.957031 143.398438 C 190.082031 144.523438 194.3125 146.640625 197.019531 150.042969 C 197.234375 149.882812 197.449219 149.722656 197.664062 149.558594 C 198.492188 148.835938 199.1875 147.953125 199.699219 146.960938 C 199.402344 146.371094 199.378906 145.675781 199.296875 145.007812 C 199.1875 144.335938 199.082031 143.640625 198.949219 142.96875 C 198.707031 141.65625 198.414062 140.34375 198.0625 139.03125 C 197.769531 137.878906 197.394531 136.753906 197.046875 135.605469 C 196.726562 134.558594 196.402344 133.539062 195.867188 132.601562 C 194.796875 130.726562 192.921875 129.363281 190.886719 128.664062 C 188.929688 128.023438 186.867188 127.996094 184.882812 128.398438 C 183.785156 128.613281 182.660156 128.933594 181.617188 129.363281 C 181.027344 129.601562 180.464844 129.898438 179.902344 130.164062 C 180.035156 130.191406 180.167969 130.21875 180.304688 130.246094 C 181.132812 130.378906 181.964844 130.59375 182.742188 130.890625 C 183.519531 131.183594 184.1875 131.585938 184.859375 132.066406 C 185.527344 132.523438 186.195312 132.953125 186.8125 133.488281 C 186.839844 133.515625 186.8125 133.566406 186.757812 133.539062 C 185.984375 132.953125 185.179688 132.414062 184.242188 132.175781 C 183.382812 131.933594 182.5 131.746094 181.617188 131.613281 C 180.652344 131.476562 179.792969 131.425781 178.828125 131.613281 C 177.917969 131.773438 177.007812 131.800781 176.125 131.988281 C 172.375 132.738281 169.078125 134.34375 165.917969 136.488281 C 163.105469 138.417969 160.480469 140.613281 157.933594 142.890625 C 154.15625 146.265625 150.835938 150.230469 148.425781 154.675781 Z M 171.300781 224.996094 C 171.277344 224.972656 171.277344 224.972656 171.25 224.945312 C 165.167969 219.34375 162.246094 210.878906 161.632812 202.816406 C 161.042969 195.074219 162.328125 187.332031 165.300781 180.152344 C 166.773438 176.644531 168.703125 173.347656 170.902344 170.242188 C 173.070312 167.1875 175.5625 164.375 178.453125 161.964844 C 181.535156 159.363281 185.207031 156.847656 189.222656 155.988281 C 190.617188 155.695312 192.0625 155.667969 193.484375 155.800781 C 193.242188 155.589844 193.054688 155.347656 192.949219 155.050781 C 192.625 154.222656 192.921875 153.363281 193.457031 152.722656 C 192.222656 152.828125 190.992188 152.265625 189.839844 151.945312 C 189.25 151.785156 188.714844 151.625 188.125 151.730469 C 187.457031 151.863281 186.785156 151.835938 186.117188 151.8125 C 184.882812 151.785156 183.679688 151.730469 182.445312 151.757812 C 181.1875 151.8125 179.929688 151.945312 178.640625 152.050781 C 178.027344 152.105469 177.410156 152.160156 176.792969 152.1875 C 176.527344 152.1875 176.257812 152.210938 175.992188 152.160156 C 175.695312 152.105469 175.5625 152 175.242188 152.105469 C 174.652344 152.265625 174.113281 152.613281 173.527344 152.800781 C 172.964844 152.960938 172.402344 153.175781 171.839844 153.335938 C 170.605469 153.710938 169.375 153.898438 168.25 154.542969 C 167.175781 155.160156 166.078125 155.722656 165.035156 156.390625 C 162.945312 157.703125 160.933594 159.203125 159.085938 160.867188 C 159.085938 160.867188 159.058594 160.867188 159.058594 160.867188 C 160.988281 158.777344 163.132812 157.0625 165.597656 155.640625 C 166.695312 155 167.792969 154.515625 168.945312 153.980469 C 170.042969 153.472656 171.007812 152.773438 172.160156 152.375 C 172.75 152.160156 173.339844 151.945312 173.953125 151.835938 C 174.277344 151.785156 174.597656 151.785156 174.917969 151.757812 C 175.292969 151.703125 175.320312 151.648438 175.5625 151.4375 C 175.992188 151.035156 176.632812 150.847656 177.195312 150.6875 C 177.757812 150.523438 178.347656 150.390625 178.910156 150.285156 C 180.195312 150.070312 181.5625 149.988281 182.875 149.933594 C 184.160156 149.882812 185.472656 149.855469 186.757812 150.097656 C 187.109375 150.148438 187.484375 150.230469 187.804688 150.363281 C 188.070312 150.445312 188.257812 150.605469 188.527344 150.660156 C 189.089844 150.820312 189.734375 150.820312 190.296875 150.847656 C 191.5 150.898438 192.949219 151.167969 193.859375 152 C 193.910156 152.050781 193.964844 152.105469 193.992188 152.1875 C 194.742188 151.488281 195.652344 150.953125 196.539062 150.363281 C 195.734375 149.828125 194.929688 149.292969 194.152344 148.730469 C 192.4375 147.550781 190.5625 146.613281 188.660156 145.757812 C 186.734375 144.898438 184.589844 144.070312 182.472656 143.800781 C 180.355469 143.53125 178.160156 143.453125 176.042969 143.640625 C 173.925781 143.828125 171.863281 144.015625 169.800781 144.496094 C 161.148438 146.558594 153.355469 151.890625 147.703125 158.667969 C 144.699219 162.257812 142.210938 166.332031 140.441406 170.671875 C 138.566406 175.277344 137.898438 180.046875 138.085938 185.003906 C 138.136719 186.503906 138.273438 188.003906 138.460938 189.503906 C 138.699219 188.109375 139.046875 186.714844 139.503906 185.378906 C 139.773438 184.625 140.039062 183.796875 140.441406 183.101562 C 140.949219 182.242188 141.460938 181.464844 141.886719 180.554688 C 141.914062 180.527344 141.941406 180.554688 141.941406 180.582031 C 141.566406 181.492188 141.378906 182.375 141.21875 183.3125 C 141.085938 184.117188 140.789062 184.921875 140.574219 185.699219 C 140.121094 187.304688 139.71875 188.886719 139.476562 190.519531 C 139.289062 191.859375 139.15625 193.253906 139.183594 194.617188 C 139.53125 196.574219 140.011719 198.476562 141.03125 200.21875 C 142.238281 202.28125 143.84375 204.101562 145.371094 205.925781 C 146.84375 207.71875 148.34375 209.511719 149.898438 211.226562 C 151.613281 213.128906 153.40625 214.980469 155.308594 216.691406 C 155.042969 216.238281 154.800781 215.753906 154.585938 215.273438 C 154.105469 214.226562 153.730469 213.183594 153.40625 212.085938 C 152.84375 210.183594 152.46875 208.253906 152.335938 206.273438 C 152.203125 204.128906 151.988281 201.984375 151.988281 199.84375 C 151.988281 198.71875 152.148438 197.59375 152.253906 196.46875 C 152.28125 195.984375 152.308594 195.476562 152.390625 194.996094 C 152.523438 194.378906 152.710938 193.84375 152.765625 193.226562 C 152.871094 191.992188 153.140625 190.84375 153.113281 189.609375 C 153.085938 188.539062 153.273438 187.464844 153.566406 186.421875 C 153.648438 186.152344 154.078125 186.261719 154.050781 186.503906 C 153.996094 187.734375 153.808594 188.859375 153.460938 190.039062 C 153.273438 190.707031 153.140625 191.378906 153.085938 192.074219 C 153.058594 192.691406 152.871094 193.304688 152.871094 193.949219 C 152.84375 194.511719 152.953125 195.046875 152.925781 195.609375 C 152.871094 196.144531 152.816406 196.707031 152.792969 197.246094 C 152.738281 198.34375 152.738281 199.441406 152.710938 200.539062 C 152.628906 202.546875 152.605469 204.636719 153.003906 206.621094 C 153.378906 208.574219 153.78125 210.558594 154.398438 212.460938 C 154.71875 213.425781 155.09375 214.390625 155.496094 215.328125 C 155.683594 215.78125 155.925781 216.210938 156.113281 216.667969 C 156.21875 216.90625 156.21875 216.960938 156.246094 217.203125 C 156.273438 217.390625 156.328125 217.550781 156.382812 217.710938 C 157.53125 218.675781 158.710938 219.585938 159.945312 220.445312 C 163.292969 222.695312 167.203125 224.703125 171.300781 224.996094 Z M 221.878906 225.773438 C 227.316406 220.390625 230.53125 212.863281 232.140625 205.46875 C 232.96875 201.636719 233.398438 197.726562 233.238281 193.789062 C 233.078125 189.582031 232.328125 185.457031 231.148438 181.4375 C 230.53125 179.324219 229.808594 177.234375 229.003906 175.171875 C 228.308594 173.375 227.585938 171.632812 226.675781 169.972656 C 225.738281 168.3125 224.664062 166.785156 223.246094 165.527344 C 221.773438 164.160156 220.058594 163.117188 218.261719 162.230469 C 217.96875 162.097656 217.671875 161.9375 217.378906 161.804688 C 217.96875 162.390625 218.53125 163.007812 219.066406 163.679688 C 219.601562 164.320312 220.085938 165.019531 220.539062 165.714844 C 220.96875 166.355469 221.425781 167.027344 221.691406 167.777344 C 221.960938 168.527344 222.226562 169.25 222.523438 169.972656 C 222.816406 170.695312 223.085938 171.394531 223.164062 172.144531 C 223.164062 172.195312 223.085938 172.195312 223.058594 172.144531 C 222.628906 171.472656 222.335938 170.722656 221.960938 170 C 221.613281 169.304688 221.183594 168.660156 220.699219 168.042969 C 220.21875 167.457031 219.871094 166.785156 219.441406 166.167969 C 219.011719 165.554688 218.558594 164.9375 218.074219 164.347656 C 217.085938 163.0625 215.960938 161.882812 214.753906 160.8125 C 214.671875 160.757812 214.621094 160.679688 214.539062 160.625 C 213.894531 160.382812 213.28125 160.167969 212.636719 159.925781 C 210.65625 159.257812 208.59375 158.640625 206.503906 158.535156 C 205.378906 158.480469 204.171875 158.5625 202.992188 158.640625 C 202.992188 158.722656 202.992188 158.800781 202.964844 158.910156 C 203.664062 159.578125 204.171875 160.492188 204.546875 161.320312 C 205.296875 163.035156 205.726562 164.910156 206.019531 166.757812 C 206.316406 168.6875 206.316406 170.671875 206.367188 172.625 C 206.394531 173.589844 206.394531 174.554688 206.316406 175.519531 C 206.234375 176.511719 205.992188 177.421875 205.859375 178.410156 C 205.859375 178.464844 205.753906 178.4375 205.753906 178.386719 C 205.644531 177.449219 205.457031 176.535156 205.378906 175.625 C 205.324219 174.742188 205.296875 173.859375 205.269531 172.972656 C 205.21875 171.207031 204.976562 169.492188 204.707031 167.75 C 204.441406 165.902344 203.984375 164.105469 203.339844 162.367188 C 202.832031 161 202.164062 159.925781 201.089844 158.964844 C 200.691406 158.855469 200.289062 158.722656 199.886719 158.613281 C 199.242188 158.535156 198.625 158.402344 198.011719 158.160156 C 197.582031 158.050781 197.125 157.972656 196.699219 157.917969 C 196.375 158.320312 196.027344 158.667969 195.652344 158.964844 C 195.359375 159.203125 194.875 158.828125 195.011719 158.480469 C 195.117188 158.1875 195.277344 157.945312 195.464844 157.730469 C 191.527344 157.328125 187.457031 157.972656 184.054688 160.089844 C 180.917969 162.042969 178.160156 164.855469 175.777344 167.644531 C 171.113281 173.082031 167.765625 179.535156 165.863281 186.421875 C 163.910156 193.492188 163.558594 201.128906 165.25 208.308594 C 166.960938 215.566406 170.953125 222.238281 177.355469 226.230469 C 179.015625 227.273438 180.839844 228.050781 182.714844 228.558594 C 182.632812 228.320312 182.605469 228.078125 182.582031 227.835938 C 182.554688 227.355469 182.285156 226.898438 182.097656 226.445312 C 181.910156 225.960938 181.777344 225.480469 181.667969 224.996094 C 181.535156 224.355469 181.507812 223.738281 181.320312 223.09375 C 181.160156 222.613281 180.972656 222.132812 180.867188 221.648438 C 180.652344 220.605469 180.652344 219.53125 180.730469 218.460938 C 180.730469 218.273438 181.054688 218.328125 181.054688 218.515625 C 181.082031 219.613281 181.214844 220.683594 181.320312 221.757812 C 181.375 222.34375 181.375 222.90625 181.535156 223.496094 C 181.667969 224.03125 181.964844 224.460938 182.207031 224.945312 C 182.445312 225.425781 182.6875 225.910156 182.957031 226.363281 C 183.089844 226.605469 183.25 226.953125 183.4375 227.167969 C 183.597656 227.328125 183.8125 227.433594 184 227.570312 C 184.292969 227.785156 184.535156 228.078125 184.832031 228.292969 C 185.097656 228.480469 185.472656 228.746094 185.554688 229.121094 C 186.195312 229.203125 186.839844 229.257812 187.507812 229.285156 C 189.839844 229.363281 192.144531 229.097656 194.472656 229.042969 C 194.6875 229.042969 194.875 229.042969 195.089844 229.042969 C 195.089844 228.398438 195.359375 227.785156 195.519531 227.167969 C 195.707031 226.445312 195.839844 225.640625 196.136719 224.945312 C 196.296875 224.570312 196.589844 224.273438 196.726562 223.898438 C 196.859375 223.523438 196.964844 223.121094 197.046875 222.71875 C 197.125 222.398438 197.179688 222.105469 197.101562 221.78125 C 197.074219 221.648438 196.992188 221.515625 196.964844 221.355469 C 196.9375 221.058594 197.101562 220.683594 197.207031 220.417969 C 197.421875 219.933594 198.171875 220.230469 198.117188 220.710938 C 198.089844 221.03125 198.039062 221.433594 197.824219 221.703125 C 197.527344 222.050781 197.289062 222.15625 197.179688 222.640625 C 197.074219 223.070312 196.914062 223.496094 196.859375 223.925781 C 196.804688 224.328125 196.914062 224.757812 196.859375 225.160156 C 196.777344 225.910156 196.484375 226.660156 196.324219 227.382812 C 196.1875 227.890625 196.136719 228.507812 195.921875 229.015625 C 197.636719 229.070312 199.351562 229.257812 201.039062 229.605469 C 204.253906 230.25 207.519531 231.292969 210.816406 231.1875 C 212.636719 230.410156 214.191406 229.148438 215.53125 227.675781 C 217.296875 225.800781 218.585938 223.523438 220.433594 221.730469 C 220.488281 221.675781 220.648438 221.730469 220.621094 221.835938 C 219.816406 224.410156 218.261719 226.710938 216.441406 228.667969 C 215.796875 229.363281 215.074219 230.007812 214.324219 230.597656 C 217.164062 229.710938 219.738281 227.890625 221.878906 225.773438 Z M 268.734375 177.046875 C 268.734375 174.632812 268.222656 172.222656 267.957031 169.839844 C 267.6875 167.617188 267.257812 165.417969 266.617188 163.25 C 266.027344 161.347656 265.117188 159.714844 264.019531 158.078125 C 261.714844 154.730469 259.167969 151.648438 256.0625 149.023438 C 252.980469 146.425781 249.445312 143.960938 245.453125 143.105469 C 243.257812 142.621094 241.058594 142.808594 238.863281 143.105469 C 236.960938 143.34375 235.058594 143.613281 233.15625 143.90625 C 225.953125 145.058594 218.289062 147.015625 213.039062 152.398438 C 213.09375 152.507812 213.09375 152.640625 213.039062 152.75 C 213.011719 152.828125 212.984375 152.910156 212.957031 152.988281 C 213.414062 152.667969 213.871094 152.375 214.351562 152.105469 C 215.773438 151.25 217.164062 150.472656 218.71875 149.855469 C 221.449219 148.785156 224.398438 148.167969 227.34375 148.007812 C 228.84375 147.925781 230.34375 147.925781 231.816406 148.035156 C 232.621094 148.085938 233.398438 148.328125 234.175781 148.570312 C 234.871094 148.785156 235.59375 148.863281 236.292969 149.023438 C 239.160156 149.585938 241.972656 150.472656 244.648438 151.648438 C 246.042969 152.238281 247.410156 152.9375 248.75 153.660156 C 250.0625 154.382812 251.265625 155.132812 252.3125 156.203125 C 252.363281 156.257812 252.3125 156.363281 252.230469 156.3125 C 250.703125 155.613281 249.363281 154.675781 247.890625 153.847656 C 246.523438 153.070312 245.105469 152.375 243.632812 151.757812 C 240.953125 150.632812 238.113281 149.746094 235.21875 149.398438 C 234.46875 149.292969 233.667969 149.347656 232.917969 149.425781 C 232.246094 149.507812 231.578125 149.425781 230.90625 149.425781 C 229.515625 149.425781 228.121094 149.507812 226.726562 149.667969 C 223.96875 150.015625 221.238281 150.660156 218.636719 151.675781 C 217.273438 152.210938 215.90625 152.773438 214.621094 153.5 C 214.109375 153.792969 213.628906 154.085938 213.144531 154.382812 C 216.601562 154.890625 219.976562 155.695312 223.273438 156.847656 C 224.800781 157.382812 226.378906 157.917969 227.746094 158.800781 C 228.335938 159.175781 228.925781 159.605469 229.328125 160.195312 C 229.59375 160.542969 229.996094 161.292969 229.863281 161.722656 C 229.835938 161.828125 229.730469 161.855469 229.621094 161.828125 C 229.328125 161.722656 229.167969 161.453125 228.925781 161.292969 C 228.683594 161.132812 228.441406 160.972656 228.203125 160.8125 C 227.613281 160.382812 227.023438 160.007812 226.378906 159.714844 C 225.066406 159.125 223.699219 158.613281 222.308594 158.160156 C 219.253906 157.113281 216.121094 156.257812 212.957031 155.640625 C 212.558594 155.5625 212.371094 155.238281 212.394531 154.945312 C 211.941406 155.238281 211.484375 155.507812 211.03125 155.777344 C 210.921875 155.828125 210.816406 155.828125 210.707031 155.800781 C 210.441406 155.988281 210.171875 156.152344 209.90625 156.3125 C 211.539062 156.632812 213.144531 157.140625 214.726562 157.703125 C 218.71875 159.125 222.789062 160.839844 225.765625 163.945312 C 228.738281 167.054688 230.453125 171.070312 231.925781 175.0625 C 233.53125 179.429688 234.820312 183.957031 235.460938 188.566406 C 236.640625 196.894531 235.757812 205.523438 232.78125 213.398438 C 231.335938 217.175781 229.460938 220.898438 227.023438 224.167969 C 225.898438 225.667969 224.640625 227.140625 223.246094 228.425781 C 223.699219 228.535156 224.15625 228.640625 224.640625 228.722656 C 225.46875 228.855469 226.300781 228.910156 227.128906 228.933594 C 228.816406 228.960938 230.480469 228.773438 232.140625 228.558594 C 237.871094 227.757812 243.472656 225.453125 247.703125 221.433594 C 249.660156 219.585938 251.132812 217.390625 252.6875 215.191406 C 253.4375 214.09375 254 212.996094 254.375 211.738281 C 254.75 210.425781 255.285156 209.191406 255.554688 207.851562 C 255.578125 207.71875 255.765625 207.746094 255.765625 207.878906 C 255.820312 208.683594 255.820312 209.488281 255.847656 210.289062 C 255.875 211.09375 255.714844 211.84375 255.5 212.621094 C 255.070312 214.175781 254.695312 215.835938 254.054688 217.335938 C 253.8125 217.84375 253.570312 218.355469 253.277344 218.835938 C 253.410156 218.78125 253.542969 218.730469 253.652344 218.675781 C 257.375 217.121094 259.917969 213.878906 261.792969 210.425781 C 262.8125 208.550781 263.667969 206.59375 264.394531 204.585938 C 265.171875 202.441406 266 200.324219 266.695312 198.15625 C 267.152344 196.734375 267.554688 195.316406 267.847656 193.867188 C 267.769531 193.28125 267.660156 192.691406 267.554688 192.101562 C 267.394531 191.242188 267.367188 190.359375 267.285156 189.503906 C 267.207031 188.671875 267.285156 187.839844 267.179688 186.984375 C 267.152344 186.742188 267.472656 186.796875 267.527344 186.984375 C 267.796875 187.894531 268.171875 188.777344 268.304688 189.71875 C 268.332031 189.90625 268.359375 190.066406 268.382812 190.253906 C 268.570312 188.324219 268.570312 186.367188 268.597656 184.414062 C 268.652344 181.921875 268.734375 179.484375 268.734375 177.046875 Z M 258.554688 192.207031 C 258.554688 191.109375 258.554688 189.984375 258.472656 188.886719 C 258.417969 187.789062 258.152344 186.851562 257.75 185.832031 C 257.722656 185.804688 257.667969 185.804688 257.667969 185.832031 C 257.589844 186.851562 257.5625 187.816406 257.667969 188.832031 C 257.777344 189.929688 257.855469 191.054688 257.804688 192.15625 C 257.777344 192.691406 257.777344 193.226562 257.722656 193.761719 C 257.667969 194.296875 257.480469 194.78125 257.402344 195.316406 C 257.214844 196.386719 257.1875 197.457031 257.1875 198.53125 C 257.1875 198.851562 257.667969 199.171875 257.828125 198.769531 C 258.257812 197.753906 258.554688 196.683594 258.578125 195.558594 C 258.605469 194.996094 258.5 194.457031 258.5 193.921875 C 258.527344 193.359375 258.554688 192.769531 258.554688 192.207031 Z M 257.589844 183.714844 C 257.480469 182.242188 257.507812 180.664062 256.785156 179.347656 C 256.007812 177.902344 256.007812 176.109375 255.417969 174.582031 C 254.855469 173.109375 254 171.796875 253.140625 170.484375 C 252.738281 169.867188 252.3125 169.0625 251.75 168.554688 C 251.480469 168.3125 251.265625 168.367188 251 168.097656 C 250.757812 167.832031 250.570312 167.535156 250.277344 167.320312 C 250.195312 167.269531 250.089844 167.347656 250.140625 167.429688 C 250.382812 167.855469 250.757812 168.179688 250.972656 168.605469 C 250.917969 168.714844 250.945312 168.847656 251 168.957031 C 251.640625 170.027344 252.5 170.964844 253.089844 172.089844 C 253.730469 173.347656 254.375 174.582031 255.070312 175.785156 C 255.417969 176.347656 255.6875 176.992188 255.980469 177.609375 C 256.328125 178.332031 256.382812 179 256.410156 179.777344 C 256.4375 180.449219 256.597656 181.039062 256.757812 181.679688 C 256.917969 182.351562 257.027344 183.019531 257.132812 183.6875 C 257.105469 183.957031 257.617188 184.039062 257.589844 183.714844 Z M 248.535156 164.5625 C 248.507812 164.535156 248.453125 164.5625 248.480469 164.589844 C 248.585938 164.75 248.667969 164.910156 248.773438 165.070312 C 248.773438 165.097656 248.828125 165.070312 248.800781 165.070312 C 248.722656 164.882812 248.640625 164.722656 248.535156 164.5625 Z M 246.6875 162.6875 C 246.632812 162.6875 246.660156 162.765625 246.710938 162.765625 C 246.738281 162.765625 246.710938 162.6875 246.6875 162.6875 Z M 243.792969 159.417969 C 243.230469 159.152344 242.882812 158.777344 242.507812 158.292969 C 242.480469 158.238281 242.398438 158.292969 242.425781 158.347656 C 242.667969 158.882812 243.230469 159.3125 243.738281 159.550781 C 243.847656 159.605469 243.875 159.472656 243.792969 159.417969 Z M 265.945312 178.089844 C 265.679688 177.097656 265.382812 176.109375 265.035156 175.117188 C 264.6875 174.152344 264.152344 173.242188 263.777344 172.277344 C 263 170.320312 262.167969 168.394531 261.257812 166.519531 C 260.9375 165.875 260.589844 165.230469 260.320312 164.589844 C 259.972656 163.785156 259.679688 162.980469 259.222656 162.230469 C 258.257812 160.542969 256.839844 159.175781 255.015625 158.425781 C 254.882812 158.375 254.75 158.535156 254.882812 158.640625 C 256.0625 159.714844 257.105469 161.054688 258.015625 162.367188 C 258.472656 163.0625 258.980469 163.730469 259.464844 164.402344 C 259.972656 165.152344 260.347656 165.980469 260.75 166.785156 C 261.582031 168.527344 262.382812 170.269531 263.105469 172.0625 C 263.347656 172.625 263.5625 173.1875 263.75 173.777344 C 263.882812 174.207031 263.9375 174.660156 264.097656 175.089844 C 264.421875 176.027344 264.796875 176.9375 265.144531 177.847656 C 265.519531 178.867188 265.921875 179.914062 266.214844 180.957031 C 266.457031 181.894531 266.5625 183.074219 267.152344 183.851562 C 267.207031 183.929688 267.367188 183.929688 267.394531 183.796875 C 267.527344 182.9375 267.097656 181.976562 266.859375 181.144531 C 266.484375 180.152344 266.242188 179.109375 265.945312 178.089844 Z M 243.097656 203.296875 C 242.960938 202.546875 242.910156 201.746094 242.667969 201.023438 C 242.640625 200.914062 242.398438 200.859375 242.398438 201.023438 C 242.371094 201.773438 242.453125 202.46875 242.398438 203.21875 C 242.347656 203.914062 242.347656 204.636719 242.265625 205.335938 C 242.183594 206.03125 241.996094 206.726562 241.917969 207.449219 C 241.808594 208.199219 241.675781 208.949219 241.515625 209.675781 C 241.195312 211.09375 240.765625 212.488281 240.257812 213.851562 C 239.695312 215.273438 238.972656 216.585938 238.488281 218.03125 C 238.355469 218.433594 238.890625 218.753906 239.183594 218.460938 C 240.335938 217.335938 241.007812 215.890625 241.597656 214.417969 C 242.160156 212.996094 242.613281 211.523438 242.910156 210.050781 C 243.203125 208.550781 243.335938 207.128906 243.257812 205.601562 C 243.203125 204.800781 243.230469 204.074219 243.097656 203.296875 Z M 241.890625 198.878906 C 241.890625 199.09375 242.292969 199.199219 242.320312 198.933594 C 242.371094 198.289062 242.398438 197.269531 241.835938 196.816406 C 241.757812 196.734375 241.597656 196.734375 241.570312 196.871094 C 241.515625 197.164062 241.621094 197.433594 241.730469 197.726562 C 241.835938 198.101562 241.890625 198.476562 241.890625 198.878906 Z M 233.746094 165.472656 C 233.292969 164.992188 232.808594 164.507812 232.355469 164.054688 C 232.246094 163.945312 232.085938 164.105469 232.191406 164.214844 C 232.621094 164.722656 232.996094 165.207031 233.34375 165.769531 C 233.71875 166.332031 234.203125 166.730469 234.65625 167.214844 C 234.683594 167.242188 234.792969 167.242188 234.738281 167.160156 C 234.445312 166.542969 234.203125 165.980469 233.746094 165.472656 Z M 216.84375 141.765625 C 216.761719 141.84375 216.683594 141.925781 216.601562 142.03125 C 216.574219 142.058594 216.65625 142.140625 216.683594 142.085938 L 216.898438 141.820312 C 216.921875 141.765625 216.871094 141.738281 216.84375 141.765625 Z M 219.574219 139.246094 C 219.308594 139.355469 219.011719 139.433594 218.773438 139.621094 C 218.664062 139.703125 218.53125 139.78125 218.449219 139.890625 C 218.34375 139.996094 218.289062 140.15625 218.183594 140.265625 C 217.996094 140.53125 218.421875 140.882812 218.664062 140.71875 C 218.773438 140.640625 218.90625 140.585938 219.039062 140.507812 C 219.171875 140.425781 219.28125 140.292969 219.363281 140.183594 C 219.550781 139.96875 219.65625 139.703125 219.761719 139.460938 C 219.84375 139.328125 219.683594 139.21875 219.574219 139.246094 Z M 222.496094 136.890625 C 222.414062 137.078125 222.574219 137.238281 222.761719 137.238281 C 222.925781 137.316406 223.113281 137.316406 223.246094 137.210938 C 223.300781 137.15625 223.378906 137.105469 223.433594 137.050781 C 223.808594 136.753906 223.324219 136.191406 222.949219 136.378906 C 222.871094 136.40625 222.789062 136.460938 222.710938 136.488281 C 222.574219 136.566406 222.46875 136.730469 222.496094 136.890625 Z M 153.78125 165.632812 C 153.515625 165.769531 153.273438 165.929688 153.003906 166.0625 C 152.765625 166.195312 152.523438 166.277344 152.335938 166.464844 C 152.253906 166.542969 152.363281 166.652344 152.441406 166.625 C 152.710938 166.542969 152.898438 166.382812 153.113281 166.222656 C 153.355469 166.0625 153.59375 165.902344 153.835938 165.742188 C 153.917969 165.6875 153.835938 165.605469 153.78125 165.632812 Z M 150.917969 167.75 C 150.246094 168.367188 149.496094 168.980469 148.988281 169.757812 C 148.691406 170.214844 148.476562 170.695312 148.101562 171.070312 C 147.753906 171.445312 147.328125 171.714844 147.003906 172.117188 C 145.773438 173.644531 144.699219 175.277344 143.761719 176.964844 C 143.738281 177.019531 143.816406 177.074219 143.871094 177.019531 C 144.191406 176.644531 144.511719 176.269531 144.835938 175.867188 C 145.15625 175.492188 145.371094 175.035156 145.71875 174.660156 C 146.363281 173.964844 146.925781 173.1875 147.515625 172.410156 C 147.835938 172.007812 147.96875 171.554688 148.265625 171.125 C 148.558594 170.671875 148.988281 170.375 149.390625 170.027344 C 150.058594 169.382812 150.566406 168.582031 151.105469 167.832031 C 151.15625 167.804688 150.996094 167.695312 150.917969 167.75 Z M 155.523438 182 C 155.230469 182.75 154.855469 183.476562 154.667969 184.25 C 154.640625 184.332031 154.773438 184.386719 154.828125 184.304688 C 155.175781 183.582031 155.335938 182.777344 155.605469 182 C 155.605469 181.976562 155.523438 181.949219 155.523438 182 Z M 161.683594 173.535156 C 160.988281 174.152344 160.398438 174.824219 159.835938 175.546875 C 159.542969 175.921875 159.140625 176.214844 158.871094 176.617188 C 158.605469 177.046875 158.417969 177.527344 158.203125 177.984375 C 158.09375 178.25 158.550781 178.519531 158.65625 178.25 C 158.84375 177.824219 159.058594 177.421875 159.300781 176.992188 C 159.515625 176.589844 159.570312 176.160156 159.808594 175.761719 C 160.292969 174.929688 161.015625 174.207031 161.710938 173.5625 C 161.710938 173.5625 161.683594 173.535156 161.683594 173.535156 Z M 162.703125 172.679688 C 163.292969 172.382812 164.015625 172.117188 164.472656 171.632812 C 164.738281 171.339844 164.335938 170.964844 164.015625 171.097656 C 163.398438 171.367188 162.917969 171.929688 162.433594 172.382812 C 162.273438 172.519531 162.515625 172.757812 162.703125 172.679688 Z M 189.464844 137.15625 C 189.734375 137.53125 189.972656 137.90625 190.324219 138.230469 C 190.429688 138.335938 190.617188 138.363281 190.75 138.308594 C 190.832031 138.28125 190.886719 138.230469 190.910156 138.175781 C 190.992188 138.066406 190.992188 137.878906 190.9375 137.746094 C 190.722656 137.34375 190.429688 136.996094 190.136719 136.648438 C 189.867188 136.300781 189.546875 136.085938 189.222656 135.792969 C 189.035156 135.605469 188.6875 135.738281 188.847656 136.003906 C 189.0625 136.40625 189.195312 136.78125 189.464844 137.15625 Z M 194.152344 144.230469 C 194.3125 144.496094 194.476562 144.792969 194.664062 145.03125 C 194.824219 145.246094 195.011719 145.246094 195.199219 145.433594 C 195.25 145.460938 195.304688 145.433594 195.277344 145.382812 C 195.226562 145.167969 195.304688 145.007812 195.25 144.820312 C 195.171875 144.523438 194.984375 144.28125 194.824219 144.015625 C 194.5 143.425781 194.097656 142.96875 193.699219 142.433594 C 193.589844 142.300781 193.324219 142.40625 193.402344 142.59375 C 193.644531 143.15625 193.832031 143.667969 194.152344 144.230469 Z M 195.921875 147.765625 C 196.027344 147.953125 196.136719 148.113281 196.324219 148.246094 C 196.484375 148.382812 196.699219 148.410156 196.886719 148.542969 C 196.992188 148.621094 197.101562 148.515625 197.046875 148.382812 C 196.964844 148.195312 196.992188 148.035156 196.964844 147.847656 C 196.9375 147.683594 196.859375 147.550781 196.777344 147.390625 C 196.644531 147.070312 196.511719 146.746094 196.429688 146.425781 C 196.296875 145.972656 195.519531 145.972656 195.574219 146.507812 C 195.601562 146.988281 195.734375 147.390625 195.921875 147.765625 Z M 162.996094 139.730469 C 164.257812 139.59375 165.488281 139.675781 166.75 139.675781 C 167.097656 139.675781 168.730469 139.941406 168.460938 139.167969 C 168.355469 138.84375 167.875 138.765625 167.550781 138.738281 C 166.9375 138.65625 166.265625 138.65625 165.648438 138.710938 C 164.710938 138.792969 163.746094 139.058594 162.835938 139.300781 C 162.570312 139.378906 162.785156 139.753906 162.996094 139.730469 Z M 162.996094 139.730469 " fill-opacity="1" fill-rule="nonzero"/></g><g clip-path="url(#5c890a1940)"><path fill="#a9a0f0" d="M 136.050781 69.480469 C 136.566406 67.375 136.714844 64.011719 133.90625 63.605469 C 132.761719 63.460938 131.578125 63.644531 130.433594 63.679688 C 129.769531 63.71875 129.066406 63.71875 128.4375 63.71875 C 127.882812 63.71875 127.332031 63.71875 126.738281 63.828125 C 126.074219 63.9375 125.371094 64.085938 124.707031 64.234375 C 124.152344 64.347656 123.597656 64.492188 123.042969 64.640625 C 122.75 64.714844 122.414062 64.898438 122.121094 64.9375 C 121.863281 64.972656 121.492188 64.828125 121.234375 64.789062 C 110.445312 62.832031 99.394531 62.054688 88.496094 61.980469 C 77.519531 61.90625 66.472656 62.535156 55.644531 64.273438 C 51.46875 64.9375 47.292969 65.785156 43.15625 67.042969 C 40.199219 67.929688 37.207031 68.964844 34.546875 70.589844 C 32.882812 71.664062 31.109375 72.992188 30.515625 74.914062 C 30 76.652344 30.8125 78.351562 32.03125 79.570312 C 33.804688 81.378906 36.207031 82.527344 38.460938 83.414062 C 41.898438 84.816406 45.484375 85.742188 49.066406 86.554688 C 59.15625 88.734375 69.574219 89.65625 79.847656 89.988281 C 91.230469 90.324219 102.683594 89.917969 113.992188 88.4375 C 118.460938 87.847656 122.96875 87.070312 127.367188 86 C 130.730469 85.1875 134.128906 84.152344 137.234375 82.671875 C 139.265625 81.714844 141.371094 80.53125 142.703125 78.644531 C 143.183594 77.980469 143.515625 77.132812 143.550781 76.316406 C 143.664062 74.730469 142.738281 73.324219 141.628906 72.328125 C 139.894531 70.703125 137.714844 69.667969 135.570312 68.78125 C 134.832031 68.484375 134.5 69.703125 135.238281 70 C 137.34375 70.847656 139.597656 71.957031 141.1875 73.65625 C 141.964844 74.46875 142.515625 75.726562 142.296875 76.722656 C 142.109375 77.425781 141.742188 78.054688 141.222656 78.570312 C 140.558594 79.3125 139.710938 79.9375 138.859375 80.457031 C 136.382812 82.007812 133.539062 82.96875 130.765625 83.855469 C 126.886719 85.039062 122.933594 85.851562 118.941406 86.554688 C 108.597656 88.289062 98.027344 88.917969 87.535156 88.957031 C 76.929688 88.992188 66.324219 88.402344 55.828125 86.703125 C 51.765625 86.074219 47.738281 85.222656 43.820312 84.113281 C 40.9375 83.300781 38.054688 82.265625 35.46875 80.753906 C 34.582031 80.234375 33.695312 79.644531 32.992188 78.941406 C 32.4375 78.386719 31.921875 77.722656 31.699219 77.058594 C 31.515625 76.429688 31.515625 75.875 31.738281 75.210938 C 31.957031 74.582031 32.476562 73.878906 33.066406 73.363281 C 34.804688 71.699219 37.132812 70.628906 39.347656 69.777344 C 42.710938 68.449219 46.222656 67.5625 49.695312 66.785156 C 59.414062 64.714844 69.425781 63.792969 79.367188 63.496094 C 90.488281 63.125 101.6875 63.496094 112.769531 64.898438 C 115.097656 65.195312 117.425781 65.527344 119.792969 65.972656 C 120.308594 66.082031 120.902344 66.15625 121.417969 66.265625 C 121.640625 66.304688 121.898438 66.378906 122.121094 66.378906 C 122.488281 66.378906 122.894531 66.15625 123.300781 66.082031 C 124.300781 65.824219 125.261719 65.566406 126.296875 65.378906 C 126.515625 65.34375 126.777344 65.304688 126.996094 65.234375 C 127.070312 65.234375 127.515625 65.160156 127.367188 65.160156 C 127.550781 65.121094 127.738281 65.121094 127.957031 65.121094 C 129.289062 65.121094 130.546875 65.085938 131.875 65.011719 C 132.761719 64.972656 134.167969 64.679688 134.792969 65.527344 C 135.460938 66.527344 135.164062 68.226562 134.867188 69.296875 C 134.648438 69.960938 135.867188 70.296875 136.050781 69.480469 Z M 136.050781 69.480469 " fill-opacity="1" fill-rule="nonzero"/></g><path fill="#a9a0f0" d="M 118.941406 68.78125 C 118.09375 70 118.683594 71.625 119.164062 72.84375 C 119.570312 74.027344 120.160156 75.171875 121.085938 75.984375 C 122.414062 77.132812 124.117188 77.203125 125.703125 76.722656 C 127.292969 76.316406 128.625 75.285156 129.84375 74.324219 C 131.136719 73.324219 132.207031 72.179688 133.09375 70.777344 C 133.722656 69.742188 134.460938 68.519531 134.425781 67.300781 C 134.425781 65.714844 133.019531 65.453125 131.765625 65.453125 C 130.324219 65.453125 128.957031 65.601562 127.550781 65.859375 C 126.035156 66.15625 124.523438 66.453125 123.042969 66.894531 C 122.269531 67.117188 121.453125 67.414062 120.679688 67.707031 C 120.125 67.929688 119.421875 68.113281 119.054688 68.558594 C 118.535156 69.148438 119.421875 70.074219 119.902344 69.40625 C 120.125 69.113281 120.605469 69 121.011719 68.855469 C 121.640625 68.59375 122.304688 68.375 122.96875 68.1875 C 123.894531 67.894531 124.890625 67.707031 125.890625 67.488281 C 127.109375 67.226562 128.289062 66.933594 129.546875 66.785156 C 130.066406 66.710938 130.617188 66.671875 131.136719 66.671875 C 131.617188 66.671875 132.613281 66.527344 133.019531 66.785156 C 133.6875 67.226562 132.800781 68.855469 132.539062 69.335938 C 131.949219 70.480469 131.210938 71.476562 130.324219 72.363281 C 129.398438 73.214844 128.328125 74.0625 127.21875 74.691406 C 126 75.394531 124.335938 76.023438 122.96875 75.542969 C 121.789062 75.171875 121.085938 74.027344 120.640625 72.957031 C 120.234375 71.957031 119.386719 70.296875 120.125 69.335938 C 120.457031 68.742188 119.386719 68.152344 118.941406 68.78125 Z M 118.941406 68.78125 " fill-opacity="1" fill-rule="nonzero"/><path fill="#a9a0f0" d="M 102.757812 73.4375 C 103.570312 73.324219 104.457031 73.582031 105.085938 74.210938 C 105.382812 74.507812 105.714844 74.878906 105.75 75.429688 C 105.789062 75.949219 105.492188 76.28125 105.121094 76.613281 C 105.195312 76.578125 105.011719 76.6875 104.972656 76.722656 C 104.902344 76.761719 104.828125 76.835938 104.714844 76.871094 C 104.679688 76.910156 104.605469 76.910156 104.566406 76.945312 C 104.496094 76.984375 104.566406 76.984375 104.640625 76.910156 C 104.605469 76.945312 104.457031 76.984375 104.421875 76.984375 C 103.753906 77.167969 103.054688 77.019531 102.460938 76.6875 C 101.761719 76.28125 100.726562 75.320312 101.09375 74.433594 C 101.058594 74.542969 101.132812 74.359375 101.132812 74.359375 C 101.132812 74.359375 101.242188 74.210938 101.167969 74.285156 C 101.207031 74.25 101.242188 74.175781 101.28125 74.136719 C 101.28125 74.136719 101.464844 73.988281 101.390625 74.027344 C 101.5 73.953125 101.574219 73.878906 101.6875 73.84375 C 101.722656 73.804688 101.796875 73.804688 101.832031 73.769531 C 101.871094 73.769531 101.90625 73.730469 101.945312 73.730469 C 101.871094 73.769531 101.90625 73.769531 101.945312 73.730469 C 102.238281 73.621094 102.535156 73.546875 102.832031 73.472656 C 103.164062 73.4375 103.347656 73.03125 103.273438 72.734375 C 103.164062 72.363281 102.867188 72.253906 102.535156 72.289062 C 101.539062 72.4375 100.503906 72.882812 99.984375 73.769531 C 99.171875 75.171875 100.207031 76.722656 101.316406 77.539062 C 102.574219 78.5 104.234375 78.683594 105.527344 77.796875 C 106.121094 77.425781 106.636719 76.871094 106.820312 76.207031 C 107.082031 75.429688 106.820312 74.542969 106.34375 73.917969 C 105.527344 72.769531 104.085938 72.070312 102.683594 72.253906 C 102.351562 72.289062 102.09375 72.511719 102.09375 72.84375 C 102.128906 73.101562 102.386719 73.472656 102.757812 73.4375 Z M 102.757812 73.4375 " fill-opacity="1" fill-rule="nonzero"/><path fill="#a9a0f0" d="M 96.882812 75.285156 C 96.550781 74.617188 96.363281 73.621094 96.808594 72.957031 C 97.03125 72.621094 97.472656 72.511719 97.917969 72.402344 C 99.542969 71.957031 101.132812 72.144531 102.792969 72.070312 C 104.53125 71.996094 106.269531 71.625 107.96875 71.253906 C 109.925781 70.8125 111.847656 70.148438 113.769531 69.480469 C 116.835938 68.335938 119.753906 67.042969 122.933594 66.121094 C 124.152344 65.785156 125.371094 65.453125 126.628906 65.195312 C 126.921875 65.160156 127.183594 65.085938 127.476562 65.046875 C 127.625 65.011719 127.402344 65.046875 127.476562 65.046875 C 127.515625 65.046875 127.550781 65.046875 127.589844 65.046875 C 127.664062 65.046875 127.738281 65.046875 127.8125 65.046875 C 128.402344 65.046875 129.03125 65.046875 129.621094 65.046875 C 130.359375 65.011719 131.171875 64.972656 131.914062 64.9375 C 132.6875 64.898438 133.761719 64.679688 134.460938 65.121094 C 135.199219 65.601562 135.199219 66.785156 135.164062 67.5625 C 135.128906 68.519531 134.867188 69.445312 134.535156 70.332031 C 134.019531 71.699219 133.167969 72.882812 132.207031 73.953125 C 131.136719 75.097656 129.878906 75.910156 128.550781 76.722656 C 127.070312 77.574219 125.554688 78.3125 123.894531 78.683594 C 122.082031 79.089844 120.160156 78.867188 118.277344 78.792969 C 114.582031 78.683594 110.886719 78.757812 107.191406 78.757812 C 104.085938 78.757812 101.351562 78.3125 98.617188 76.796875 C 97.878906 76.355469 97.289062 75.949219 96.882812 75.285156 C 96.511719 74.582031 95.402344 75.210938 95.8125 75.910156 C 96.699219 77.539062 98.804688 78.351562 100.429688 79.015625 C 101.761719 79.496094 103.128906 79.753906 104.53125 79.9375 C 106.304688 80.085938 108.078125 80.011719 109.851562 79.976562 C 111.8125 79.9375 113.769531 79.9375 115.726562 79.976562 C 117.390625 80.011719 119.089844 80.085938 120.753906 80.125 C 121.601562 80.160156 122.488281 80.160156 123.339844 80.050781 C 126.40625 79.605469 129.324219 77.945312 131.726562 76.023438 C 134.386719 73.878906 136.605469 70.367188 136.347656 66.820312 C 136.308594 65.972656 136.125 65.011719 135.460938 64.382812 C 134.832031 63.792969 133.871094 63.644531 133.019531 63.644531 C 131.542969 63.679688 130.027344 63.828125 128.585938 63.828125 C 127.292969 63.828125 126.148438 64.050781 124.855469 64.308594 C 122.96875 64.753906 121.121094 65.304688 119.3125 65.972656 C 117.945312 66.453125 116.6875 67.042969 115.320312 67.5625 C 111.476562 69.113281 107.414062 70.480469 103.273438 70.847656 C 101.574219 70.996094 99.949219 70.777344 98.25 71.070312 C 96.84375 71.328125 95.589844 71.847656 95.332031 73.4375 C 95.21875 74.285156 95.402344 75.171875 95.773438 75.949219 C 96.179688 76.578125 97.25 75.984375 96.882812 75.285156 Z M 96.882812 75.285156 " fill-opacity="1" fill-rule="nonzero"/><path fill="#a9a0f0" d="M 134.277344 72.550781 C 135.015625 73.175781 135.828125 73.804688 136.457031 74.542969 C 136.789062 74.914062 137.011719 75.285156 136.902344 75.835938 C 136.828125 76.355469 136.53125 76.871094 136.160156 77.277344 C 135.054688 78.570312 133.425781 79.347656 131.914062 80.050781 C 129.546875 81.085938 126.996094 81.785156 124.484375 82.414062 C 121.195312 83.191406 117.90625 83.820312 114.582031 84.261719 C 106.15625 85.480469 97.546875 85.960938 89.011719 86.035156 C 80.253906 86.109375 71.496094 85.742188 62.777344 84.667969 C 56.457031 83.929688 49.992188 82.894531 44.003906 80.753906 C 42.195312 80.125 40.347656 79.3125 38.792969 78.128906 C 37.945312 77.464844 37.019531 76.429688 37.167969 75.246094 C 37.316406 73.953125 38.535156 73.03125 39.496094 72.363281 C 41.269531 71.183594 43.300781 70.441406 45.335938 69.777344 C 51.765625 67.707031 58.453125 66.746094 65.105469 66.007812 C 69.316406 65.566406 73.566406 65.269531 77.851562 65.085938 C 81.695312 64.972656 85.648438 64.972656 89.527344 64.898438 C 96.734375 64.753906 103.941406 64.753906 111.070312 65.898438 C 113.289062 66.230469 115.503906 66.671875 117.761719 67.226562 C 118.128906 67.300781 118.3125 66.746094 117.90625 66.636719 C 109.851562 64.714844 101.613281 64.125 93.371094 64.273438 C 85.5 64.382812 77.628906 64.417969 69.761719 65.046875 C 62.40625 65.601562 54.980469 66.527344 47.847656 68.449219 C 45.484375 69.074219 43.042969 69.851562 40.828125 70.960938 C 39.421875 71.625 37.90625 72.550781 37.09375 73.878906 C 35.320312 76.6875 38.535156 78.941406 40.714844 80.011719 C 42.933594 81.160156 45.296875 81.898438 47.738281 82.527344 C 50.953125 83.375 54.203125 84.039062 57.527344 84.558594 C 66.066406 85.886719 74.675781 86.480469 83.285156 86.589844 C 92.410156 86.738281 101.574219 86.40625 110.589844 85.335938 C 117.132812 84.59375 123.855469 83.597656 130.101562 81.378906 C 132.023438 80.714844 133.980469 79.902344 135.605469 78.644531 C 136.605469 77.90625 137.601562 76.835938 137.601562 75.542969 C 137.601562 75.023438 137.34375 74.542969 137.011719 74.136719 C 136.382812 73.363281 135.535156 72.734375 134.757812 72.105469 C 134.425781 71.882812 133.980469 72.328125 134.277344 72.550781 Z M 134.277344 72.550781 " fill-opacity="1" fill-rule="nonzero"/><path fill="#a9a0f0" d="M 132.355469 74.398438 C 132.6875 74.65625 133.425781 74.988281 133.574219 75.46875 C 133.613281 75.652344 133.574219 75.949219 133.539062 76.171875 C 133.425781 76.613281 133.09375 76.984375 132.800781 77.316406 C 131.652344 78.386719 130.136719 79.015625 128.699219 79.496094 C 123.523438 81.378906 117.90625 82.230469 112.476562 82.859375 C 104.679688 83.820312 96.84375 84.1875 89.011719 84.226562 C 80.957031 84.261719 72.863281 83.96875 64.84375 83.082031 C 59.082031 82.488281 53.207031 81.675781 47.664062 79.902344 C 46 79.386719 44.300781 78.757812 42.894531 77.757812 C 42.195312 77.242188 41.308594 76.429688 41.492188 75.46875 C 41.675781 74.359375 42.894531 73.65625 43.746094 73.175781 C 45.445312 72.214844 47.332031 71.625 49.214844 71.109375 C 55.128906 69.445312 61.335938 68.707031 67.46875 68.113281 C 71.386719 67.78125 75.300781 67.5625 79.21875 67.414062 C 82.765625 67.300781 86.3125 67.339844 89.863281 67.226562 C 96.144531 67.082031 102.425781 66.96875 108.667969 67.78125 C 110.738281 68.039062 112.769531 68.410156 114.804688 68.855469 C 115.136719 68.929688 115.285156 68.410156 114.953125 68.335938 C 107.78125 66.820312 100.503906 66.378906 93.222656 66.5625 C 86.019531 66.746094 78.777344 66.710938 71.605469 67.226562 C 64.808594 67.671875 57.972656 68.449219 51.320312 70 C 49.140625 70.515625 46.960938 71.144531 44.890625 72.03125 C 43.636719 72.550781 42.269531 73.289062 41.417969 74.398438 C 39.71875 76.722656 42.96875 78.570312 44.742188 79.386719 C 46.777344 80.308594 48.957031 80.898438 51.097656 81.417969 C 54.128906 82.121094 57.121094 82.671875 60.1875 83.082031 C 68.023438 84.1875 75.96875 84.632812 83.914062 84.742188 C 92.335938 84.855469 100.835938 84.59375 109.222656 83.746094 C 115.246094 83.152344 121.417969 82.339844 127.292969 80.53125 C 129.03125 80.011719 130.839844 79.347656 132.355469 78.351562 C 133.207031 77.757812 134.128906 76.945312 134.167969 75.835938 C 134.203125 74.839844 133.464844 74.507812 132.6875 73.953125 C 132.320312 73.730469 132.058594 74.210938 132.355469 74.398438 Z M 132.355469 74.398438 " fill-opacity="1" fill-rule="nonzero"/><path fill="#a9a0f0" d="M 116.800781 78.570312 C 105.492188 80.382812 94.035156 81.269531 82.617188 81.085938 C 75.820312 80.972656 69.09375 80.417969 62.371094 79.460938 C 58.636719 78.941406 54.832031 78.351562 51.171875 77.351562 C 50.101562 77.058594 48.808594 76.722656 47.921875 75.984375 C 47.332031 75.503906 47.625 75.023438 48.179688 74.65625 C 49.214844 73.988281 50.433594 73.621094 51.617188 73.289062 C 53.464844 72.769531 55.347656 72.363281 57.234375 72.03125 C 62.371094 71.109375 67.542969 70.554688 72.753906 70.183594 C 77.890625 69.816406 83.027344 69.777344 88.160156 69.667969 C 93.148438 69.554688 98.066406 69.554688 103.015625 70.109375 C 104.640625 70.296875 106.269531 70.515625 107.855469 70.777344 C 108.117188 70.8125 108.226562 70.441406 107.96875 70.40625 C 102.386719 69.445312 96.734375 69.113281 91.082031 69.1875 C 86.128906 69.261719 81.25 69.296875 76.300781 69.554688 C 70.757812 69.851562 65.25 70.332031 59.746094 71.21875 C 57.527344 71.550781 55.347656 71.921875 53.167969 72.476562 C 51.691406 72.808594 50.210938 73.175781 48.882812 73.804688 C 48.289062 74.0625 47.257812 74.507812 47.144531 75.246094 C 46.996094 75.949219 47.847656 76.464844 48.402344 76.761719 C 49.65625 77.390625 51.0625 77.757812 52.429688 78.09375 C 54.3125 78.535156 56.199219 78.867188 58.121094 79.238281 C 64.769531 80.347656 71.496094 81.121094 78.222656 81.378906 C 89.453125 81.824219 100.761719 81.195312 111.921875 79.679688 C 113.585938 79.460938 115.285156 79.238281 116.945312 78.941406 C 117.132812 78.90625 117.058594 78.535156 116.800781 78.570312 Z M 116.800781 78.570312 " fill-opacity="1" fill-rule="nonzero"/><path fill="#a9a0f0" d="M 30.371094 76.058594 C 30.515625 77.945312 30.664062 79.792969 30.8125 81.675781 C 30.921875 83.042969 30.851562 84.226562 31.625 85.371094 C 33.324219 87.808594 35.839844 89.804688 38.535156 91.0625 C 40.566406 92.058594 42.675781 92.613281 44.890625 93.09375 C 48.328125 93.871094 51.800781 94.570312 55.238281 95.125 C 63.144531 96.457031 71.238281 97.453125 79.332031 97.566406 C 84.464844 97.640625 89.601562 97.527344 94.738281 97.34375 C 99.285156 97.195312 103.867188 96.972656 108.375 96.53125 C 114.210938 95.9375 119.976562 94.832031 125.703125 93.539062 C 126.996094 93.242188 128.289062 93.019531 129.546875 92.578125 C 131.503906 91.949219 133.390625 91.171875 135.273438 90.398438 C 137.011719 89.695312 138.785156 88.957031 140.375 87.957031 C 141.296875 87.367188 142.035156 86.480469 142.628906 85.59375 C 142.921875 85.113281 143.183594 84.558594 143.441406 84.039062 C 143.550781 83.78125 143.699219 83.5625 143.738281 83.300781 C 143.8125 82.859375 143.738281 82.265625 143.699219 81.785156 C 143.664062 79.867188 143.625 77.980469 143.589844 76.058594 C 143.589844 75.285156 142.332031 75.285156 142.332031 76.058594 C 142.371094 77.980469 142.40625 79.867188 142.445312 81.785156 C 142.445312 82.195312 142.515625 82.601562 142.480469 83.042969 C 142.445312 83.226562 142.371094 83.449219 142.257812 83.671875 C 142 84.226562 141.703125 84.78125 141.371094 85.296875 C 140.261719 86.847656 138.785156 87.515625 137.046875 88.328125 C 133.796875 89.804688 130.472656 91.285156 126.960938 92.023438 C 121.566406 93.242188 116.171875 94.386719 110.703125 95.089844 C 100.6875 96.273438 90.527344 96.417969 80.476562 96.417969 C 74.007812 96.417969 67.46875 95.792969 61.039062 94.867188 C 57.898438 94.425781 54.792969 93.90625 51.652344 93.316406 C 48.660156 92.761719 45.667969 92.171875 42.710938 91.394531 C 40.421875 90.765625 38.203125 89.769531 36.28125 88.328125 C 34.988281 87.402344 33.84375 86.296875 32.84375 85.039062 C 32.625 84.742188 32.328125 84.375 32.21875 83.929688 C 32.03125 83.226562 32.070312 82.195312 31.996094 81.453125 C 31.847656 79.679688 31.738281 77.871094 31.589844 76.097656 C 31.550781 75.285156 30.296875 75.285156 30.371094 76.058594 Z M 30.371094 76.058594 " fill-opacity="1" fill-rule="nonzero"/><path fill="#a9a0f0" d="M 33.472656 87.328125 C 33.472656 94.203125 33.472656 101.113281 33.472656 107.984375 C 33.472656 108.761719 34.730469 108.761719 34.730469 107.984375 C 34.730469 101.113281 34.730469 94.203125 34.730469 87.328125 C 34.730469 86.515625 33.472656 86.515625 33.472656 87.328125 Z M 33.472656 87.328125 " fill-opacity="1" fill-rule="nonzero"/><path fill="#a9a0f0" d="M 140.078125 87.070312 C 140.078125 93.796875 140.078125 100.519531 140.078125 107.210938 C 140.078125 107.984375 141.335938 107.984375 141.335938 107.210938 C 141.335938 100.484375 141.335938 93.757812 141.335938 87.070312 C 141.335938 86.296875 140.078125 86.296875 140.078125 87.070312 Z M 140.078125 87.070312 " fill-opacity="1" fill-rule="nonzero"/><path fill="#a9a0f0" d="M 33.730469 202.804688 C 33.730469 208.9375 33.730469 215.070312 33.730469 221.203125 C 33.730469 221.980469 34.988281 221.980469 34.988281 221.203125 C 34.988281 215.070312 34.988281 208.9375 34.988281 202.804688 C 34.988281 202.027344 33.730469 202.027344 33.730469 202.804688 Z M 33.730469 202.804688 " fill-opacity="1" fill-rule="nonzero"/><path fill="#a9a0f0" d="M 140.597656 203.171875 C 140.597656 208.863281 140.597656 214.515625 140.597656 220.246094 C 140.597656 221.019531 141.851562 221.019531 141.851562 220.246094 C 141.851562 214.554688 141.851562 208.898438 141.851562 203.171875 C 141.816406 202.398438 140.597656 202.398438 140.597656 203.171875 Z M 140.597656 203.171875 " fill-opacity="1" fill-rule="nonzero"/><path fill="#a9a0f0" d="M 33.878906 221.683594 C 40.273438 227.152344 47.699219 231.402344 55.753906 233.988281 C 63.402344 236.429688 71.347656 237.242188 79.292969 237.683594 C 87.054688 238.089844 94.851562 238.054688 102.574219 237.132812 C 107.636719 236.539062 112.699219 235.542969 117.613281 234.136719 C 125.777344 231.847656 133.351562 227.78125 139.820312 222.277344 C 140.410156 221.757812 141.003906 221.203125 141.59375 220.6875 C 142.183594 220.171875 141.296875 219.246094 140.742188 219.800781 C 134.71875 225.378906 127.550781 229.667969 119.753906 232.179688 C 114.765625 233.804688 109.554688 234.878906 104.382812 235.617188 C 97.066406 236.652344 89.640625 236.910156 82.285156 236.578125 C 74.601562 236.207031 66.914062 235.726562 59.414062 233.730469 C 51.0625 231.550781 43.191406 227.632812 36.464844 222.164062 C 35.914062 221.722656 35.320312 221.242188 34.765625 220.761719 C 34.175781 220.28125 33.289062 221.167969 33.878906 221.683594 Z M 33.878906 221.683594 " fill-opacity="1" fill-rule="nonzero"/><path fill="#a9a0f0" d="M 33.546875 108.207031 C 37.90625 113.195312 44.523438 115.226562 50.765625 116.484375 C 58.636719 118.074219 66.65625 119.070312 74.710938 119.664062 C 82.878906 120.214844 91.117188 120.289062 99.285156 119.882812 C 107.15625 119.476562 115.0625 118.703125 122.785156 117.222656 C 128.917969 116.039062 135.347656 114.082031 139.855469 109.574219 C 140.410156 109.019531 140.964844 108.390625 141.445312 107.765625 C 141.925781 107.136719 141.078125 106.25 140.597656 106.914062 C 136.679688 111.9375 130.546875 114.265625 124.523438 115.632812 C 121.046875 116.375 117.539062 116.929688 114.027344 117.335938 C 110.035156 117.816406 106.046875 118.257812 102.054688 118.515625 C 86.019531 119.589844 69.832031 118.703125 53.980469 115.894531 C 46.996094 114.636719 39.347656 112.9375 34.472656 107.394531 C 33.917969 106.765625 33.03125 107.652344 33.546875 108.207031 Z M 33.546875 108.207031 " fill-opacity="1" fill-rule="nonzero"/><path fill="#a9a0f0" d="M 33.511719 107.0625 C 31.144531 109.796875 31.109375 113.972656 33.472656 116.632812 C 34.691406 118.035156 36.394531 118.886719 38.054688 119.550781 C 40.015625 120.289062 42.082031 120.808594 44.117188 121.324219 C 53.167969 123.578125 62.445312 124.871094 71.753906 125.539062 C 81.140625 126.203125 90.527344 126.277344 99.914062 126.203125 C 104.753906 126.164062 109.519531 126.054688 114.324219 125.464844 C 118.90625 124.871094 123.488281 123.875 127.882812 122.507812 C 130.136719 121.84375 132.355469 121.066406 134.574219 120.253906 C 136.421875 119.550781 138.304688 118.8125 139.929688 117.667969 C 141.410156 116.59375 142.589844 115.300781 143.21875 113.601562 C 143.738281 112.085938 143.8125 110.351562 143.21875 108.871094 C 142.921875 108.132812 142.480469 107.46875 141.816406 106.988281 C 141.222656 106.507812 140.300781 107.355469 140.964844 107.835938 C 142.183594 108.835938 142.589844 110.351562 142.371094 111.867188 C 142.148438 113.566406 141.222656 114.96875 139.96875 116.039062 C 138.527344 117.261719 136.753906 118.035156 135.054688 118.738281 C 133.058594 119.515625 131.027344 120.253906 128.957031 120.882812 C 124.78125 122.210938 120.53125 123.246094 116.171875 123.949219 C 111.699219 124.613281 107.15625 124.871094 102.648438 124.945312 C 93.777344 125.09375 84.910156 125.019531 76.042969 124.578125 C 67.210938 124.097656 58.453125 123.136719 49.769531 121.363281 C 47.625 120.917969 45.484375 120.402344 43.375 119.847656 C 41.492188 119.367188 39.605469 118.886719 37.796875 118.109375 C 36.207031 117.445312 34.65625 116.484375 33.769531 114.96875 C 32.917969 113.527344 32.734375 111.71875 33.214844 110.128906 C 33.4375 109.351562 33.84375 108.578125 34.433594 107.949219 C 34.953125 107.320312 34.027344 106.433594 33.511719 107.0625 Z M 33.511719 107.0625 " fill-opacity="1" fill-rule="nonzero"/><path fill="#a9a0f0" d="M 32.179688 113.972656 C 30.628906 116.300781 30.960938 119.589844 32.882812 121.582031 C 32.882812 121.289062 32.882812 120.992188 32.882812 120.734375 C 30.738281 122.582031 30.703125 126.203125 32.769531 128.125 C 32.769531 127.828125 32.769531 127.53125 32.769531 127.273438 C 30.851562 129.234375 30.8125 132.519531 32.660156 134.554688 C 32.734375 134.222656 32.84375 133.886719 32.917969 133.480469 C 31.773438 133.925781 31.109375 134.996094 30.996094 136.214844 C 30.886719 137.695312 31.664062 139.0625 32.476562 140.207031 C 32.511719 139.949219 32.550781 139.726562 32.585938 139.46875 C 30.8125 141.539062 30.886719 144.714844 32.734375 146.710938 C 32.734375 146.414062 32.734375 146.121094 32.734375 145.859375 C 30.996094 147.96875 30.996094 151.144531 32.84375 153.214844 C 32.882812 152.882812 32.917969 152.585938 32.957031 152.214844 C 31.699219 152.769531 31.035156 154.136719 31.035156 155.503906 C 31.035156 157.058594 31.921875 158.425781 32.957031 159.53125 C 33.472656 160.125 34.398438 159.238281 33.804688 158.683594 C 33.066406 157.871094 32.328125 156.871094 32.253906 155.691406 C 32.179688 154.691406 32.625 153.730469 33.585938 153.324219 C 33.953125 153.140625 33.953125 152.621094 33.695312 152.328125 C 32.328125 150.777344 32.289062 148.335938 33.585938 146.746094 C 33.804688 146.488281 33.84375 146.15625 33.585938 145.898438 C 32.179688 144.417969 32.105469 141.980469 33.4375 140.429688 C 33.621094 140.246094 33.695312 139.910156 33.546875 139.691406 C 32.992188 138.839844 32.328125 137.878906 32.253906 136.808594 C 32.21875 136.070312 32.476562 135.109375 33.289062 134.8125 C 33.730469 134.664062 33.878906 134.148438 33.546875 133.742188 C 32.179688 132.1875 32.21875 129.675781 33.695312 128.199219 C 33.917969 127.976562 33.953125 127.570312 33.695312 127.347656 C 32.070312 125.832031 32.144531 123.136719 33.804688 121.695312 C 34.066406 121.472656 34.027344 121.066406 33.804688 120.84375 C 32.21875 119.21875 32.03125 116.59375 33.289062 114.710938 C 33.730469 113.933594 32.625 113.304688 32.179688 113.972656 Z M 32.179688 113.972656 " fill-opacity="1" fill-rule="nonzero"/><path fill="#a9a0f0" d="M 34.839844 202.285156 C 32.585938 201.101562 31.8125 197.703125 33.511719 195.746094 C 33.730469 195.488281 33.730469 195.152344 33.511719 194.894531 C 32.511719 193.675781 32.289062 192.050781 32.84375 190.644531 C 33.105469 189.90625 33.363281 189.242188 33.289062 188.464844 C 33.214844 187.726562 32.917969 187.023438 32.769531 186.324219 C 32.585938 185.511719 32.769531 184.957031 33.105469 184.214844 C 33.4375 183.476562 33.398438 182.777344 33.105469 182.035156 C 32.511719 180.449219 32.4375 178.894531 33.289062 177.378906 C 33.4375 177.121094 33.363281 176.863281 33.179688 176.640625 C 31.921875 175.089844 32.03125 172.6875 33.363281 171.246094 C 33.546875 171.0625 33.621094 170.730469 33.472656 170.507812 C 32.4375 168.882812 32.476562 166.847656 33.511719 165.261719 C 33.65625 165 33.585938 164.742188 33.398438 164.519531 C 32.253906 163.117188 32.402344 160.9375 33.65625 159.644531 C 34.210938 159.089844 33.363281 158.203125 32.808594 158.792969 C 31.035156 160.605469 30.960938 163.488281 32.550781 165.40625 C 32.511719 165.148438 32.476562 164.929688 32.4375 164.667969 C 31.183594 166.628906 31.183594 169.214844 32.402344 171.210938 C 32.4375 170.949219 32.476562 170.730469 32.511719 170.46875 C 30.703125 172.464844 30.628906 175.570312 32.328125 177.640625 C 32.289062 177.378906 32.253906 177.160156 32.21875 176.898438 C 31.402344 178.339844 31.109375 180.113281 31.589844 181.703125 C 31.699219 182.148438 31.957031 182.589844 32.070312 183.035156 C 32.179688 183.550781 31.882812 183.957031 31.699219 184.402344 C 31.367188 185.101562 31.332031 185.878906 31.515625 186.617188 C 31.664062 187.394531 32.070312 188.171875 32.070312 188.984375 C 32.070312 189.832031 31.515625 190.644531 31.367188 191.496094 C 31.109375 192.972656 31.550781 194.527344 32.585938 195.78125 C 32.585938 195.488281 32.585938 195.191406 32.585938 194.894531 C 30.40625 197.445312 31.144531 201.804688 34.136719 203.394531 C 34.914062 203.765625 35.503906 202.65625 34.839844 202.285156 Z M 34.839844 202.285156 " fill-opacity="1" fill-rule="nonzero"/><path fill="#a9a0f0" d="M 141.148438 115.265625 C 142.703125 117.148438 142.183594 119.699219 140.375 121.140625 C 140.003906 121.4375 140.1875 121.988281 140.523438 122.25 C 142.40625 123.542969 142.515625 126.203125 140.667969 127.570312 C 140.335938 127.792969 140.152344 128.347656 140.523438 128.679688 C 142.296875 130.121094 142.40625 132.558594 140.632812 134.109375 C 140.226562 134.441406 140.484375 135.144531 140.929688 135.292969 C 141.703125 135.515625 142.296875 136.253906 142.296875 137.066406 C 142.257812 138.175781 141.410156 139.097656 140.742188 139.910156 C 140.523438 140.207031 140.449219 140.613281 140.742188 140.910156 C 142.40625 142.460938 142.257812 144.828125 140.558594 146.265625 C 140.261719 146.488281 140.300781 147.007812 140.558594 147.265625 C 142.222656 148.855469 142.109375 151.253906 140.410156 152.769531 C 140.003906 153.140625 140.261719 153.804688 140.707031 153.953125 C 141.59375 154.25 142.332031 155.136719 142.257812 156.132812 C 142.183594 157.351562 141.148438 158.351562 140.261719 159.125 C 139.597656 159.71875 140.558594 160.714844 141.261719 160.125 C 142.480469 159.050781 143.738281 157.613281 143.625 155.875 C 143.550781 154.324219 142.480469 153.101562 141.078125 152.621094 C 141.1875 152.992188 141.261719 153.398438 141.371094 153.804688 C 143.589844 151.808594 143.664062 148.410156 141.519531 146.339844 C 141.519531 146.671875 141.519531 146.96875 141.519531 147.339844 C 143.773438 145.417969 143.882812 142.019531 141.703125 139.984375 C 141.703125 140.316406 141.703125 140.613281 141.703125 140.984375 C 142.628906 139.800781 143.773438 138.46875 143.664062 136.882812 C 143.550781 135.515625 142.589844 134.441406 141.335938 134.035156 C 141.445312 134.40625 141.519531 134.8125 141.628906 135.21875 C 143.921875 133.261719 143.847656 129.714844 141.519531 127.828125 C 141.484375 128.199219 141.445312 128.53125 141.371094 128.9375 C 144.070312 126.941406 143.996094 123.097656 141.222656 121.214844 C 141.261719 121.582031 141.296875 121.917969 141.371094 122.324219 C 143.773438 120.328125 144.144531 116.855469 142.148438 114.453125 C 141.554688 113.566406 140.597656 114.601562 141.148438 115.265625 Z M 141.148438 115.265625 " fill-opacity="1" fill-rule="nonzero"/><path fill="#a9a0f0" d="M 140.667969 203.542969 C 142.296875 202.878906 143.550781 201.621094 143.738281 199.808594 C 143.882812 198.109375 142.996094 196.449219 141.777344 195.300781 C 141.777344 195.632812 141.777344 195.929688 141.777344 196.300781 C 143.035156 195.082031 143.699219 193.34375 143.332031 191.605469 C 143.144531 190.792969 142.445312 189.980469 142.480469 189.132812 C 142.554688 188.355469 142.996094 187.617188 143.183594 186.914062 C 143.402344 186.136719 143.332031 185.363281 142.960938 184.660156 C 142.777344 184.289062 142.371094 183.921875 142.40625 183.476562 C 142.445312 183.070312 142.8125 182.554688 142.960938 182.183594 C 143.625 180.484375 143.332031 178.5625 142.296875 177.085938 C 142.257812 177.34375 142.222656 177.640625 142.183594 177.898438 C 144.289062 175.867188 144.179688 172.539062 141.964844 170.617188 C 141.964844 170.949219 141.964844 171.246094 141.964844 171.617188 C 143.589844 169.511719 143.589844 166.8125 141.925781 164.742188 C 141.925781 165.074219 141.925781 165.371094 141.925781 165.742188 C 143.882812 163.855469 143.738281 160.714844 141.628906 159.015625 C 140.964844 158.460938 139.929688 159.421875 140.632812 160.011719 C 142.183594 161.269531 142.40625 163.339844 140.929688 164.78125 C 140.632812 165.039062 140.707031 165.445312 140.929688 165.777344 C 142.074219 167.21875 142.109375 169.25 140.964844 170.691406 C 140.742188 170.949219 140.667969 171.394531 140.964844 171.691406 C 142.628906 173.132812 142.777344 175.460938 141.1875 177.011719 C 141.003906 177.195312 140.890625 177.601562 141.078125 177.824219 C 141.554688 178.488281 141.925781 179.300781 141.925781 180.152344 C 141.964844 180.964844 141.667969 181.628906 141.335938 182.367188 C 140.964844 183.144531 140.929688 183.882812 141.335938 184.660156 C 141.519531 184.992188 141.777344 185.25 141.890625 185.65625 C 141.964844 185.988281 141.890625 186.324219 141.777344 186.691406 C 141.554688 187.394531 141.222656 188.058594 141.113281 188.761719 C 141.003906 189.574219 141.222656 190.277344 141.59375 190.980469 C 142.332031 192.53125 142 194.082031 140.78125 195.265625 C 140.523438 195.523438 140.523438 196.003906 140.78125 196.261719 C 141.667969 197.074219 142.40625 198.222656 142.371094 199.515625 C 142.332031 200.769531 141.445312 201.695312 140.335938 202.210938 C 139.449219 202.542969 139.820312 203.910156 140.667969 203.542969 Z M 140.667969 203.542969 " fill-opacity="1" fill-rule="nonzero"/><path fill="#a9a0f0" d="M 34.101562 203.023438 C 38.867188 207.3125 45.554688 208.753906 51.691406 209.714844 C 59.230469 210.894531 66.804688 211.671875 74.414062 212.113281 C 89.824219 213.039062 105.453125 212.632812 120.828125 210.527344 C 124.410156 210.046875 127.996094 209.269531 131.394531 208.125 C 134.90625 206.867188 138.195312 205.203125 141.261719 203.136719 C 141.851562 202.765625 141.296875 201.769531 140.707031 202.175781 C 137.933594 204.023438 134.980469 205.613281 131.839844 206.792969 C 128.882812 207.902344 125.890625 208.640625 122.785156 209.121094 C 119.199219 209.714844 115.578125 210.082031 111.957031 210.414062 C 108.1875 210.746094 104.382812 211.007812 100.613281 211.191406 C 85.351562 211.894531 70.019531 211.191406 54.867188 209.085938 C 51.210938 208.566406 47.515625 207.976562 43.96875 206.941406 C 40.679688 205.945312 37.5 204.578125 34.914062 202.25 C 34.359375 201.804688 33.585938 202.542969 34.101562 203.023438 Z M 34.101562 203.023438 " fill-opacity="1" fill-rule="nonzero"/><path fill="#a9a0f0" d="M 32.734375 196.519531 C 37.6875 200.957031 44.632812 202.285156 51.027344 203.285156 C 58.820312 204.464844 66.65625 205.242188 74.527344 205.683594 C 90.304688 206.570312 106.34375 206.089844 122.007812 203.875 C 128.882812 202.878906 136.566406 201.324219 141.628906 196.226562 C 142.109375 195.707031 141.371094 194.933594 140.855469 195.449219 C 136.421875 199.957031 129.769531 201.511719 123.746094 202.507812 C 116.320312 203.726562 108.742188 204.316406 101.207031 204.652344 C 85.539062 205.390625 69.761719 204.761719 54.238281 202.65625 C 50.472656 202.136719 46.664062 201.546875 43.007812 200.550781 C 39.570312 199.550781 36.207031 198.183594 33.546875 195.78125 C 32.957031 195.226562 32.144531 196.003906 32.734375 196.519531 Z M 32.734375 196.519531 " fill-opacity="1" fill-rule="nonzero"/><path fill="#a9a0f0" d="M 32.734375 190.425781 C 37.6875 194.859375 44.632812 196.1875 51.027344 197.1875 C 58.820312 198.367188 66.65625 199.144531 74.527344 199.589844 C 90.304688 200.4375 106.34375 199.996094 122.007812 197.777344 C 128.882812 196.78125 136.566406 195.226562 141.628906 190.128906 C 142.109375 189.613281 141.371094 188.835938 140.855469 189.351562 C 136.421875 193.859375 129.769531 195.414062 123.746094 196.410156 C 116.320312 197.628906 108.742188 198.222656 101.207031 198.554688 C 85.539062 199.292969 69.761719 198.664062 54.238281 196.558594 C 50.472656 196.039062 46.664062 195.449219 43.007812 194.453125 C 39.570312 193.453125 36.207031 192.085938 33.546875 189.683594 C 32.957031 189.132812 32.144531 189.945312 32.734375 190.425781 Z M 32.734375 190.425781 " fill-opacity="1" fill-rule="nonzero"/><path fill="#a9a0f0" d="M 32.734375 184.070312 C 37.6875 188.503906 44.632812 189.832031 51.027344 190.832031 C 58.820312 192.011719 66.65625 192.789062 74.527344 193.234375 C 90.304688 194.121094 106.34375 193.640625 122.007812 191.421875 C 128.882812 190.425781 136.566406 188.871094 141.628906 183.773438 C 142.109375 183.253906 141.371094 182.480469 140.855469 182.996094 C 136.421875 187.503906 129.769531 189.058594 123.746094 190.054688 C 116.320312 191.273438 108.742188 191.867188 101.207031 192.199219 C 85.539062 192.9375 69.761719 192.308594 54.238281 190.203125 C 50.472656 189.683594 46.664062 189.09375 43.007812 188.097656 C 39.570312 187.097656 36.207031 185.730469 33.546875 183.328125 C 32.957031 182.773438 32.144531 183.550781 32.734375 184.070312 Z M 32.734375 184.070312 " fill-opacity="1" fill-rule="nonzero"/><path fill="#a9a0f0" d="M 32.734375 177.972656 C 37.6875 182.40625 44.632812 183.734375 51.027344 184.734375 C 58.820312 185.917969 66.65625 186.691406 74.527344 187.136719 C 90.304688 187.984375 106.34375 187.542969 122.007812 185.324219 C 128.882812 184.328125 136.566406 182.773438 141.628906 177.675781 C 142.109375 177.160156 141.371094 176.382812 140.855469 176.898438 C 136.421875 181.40625 129.769531 182.960938 123.746094 183.957031 C 116.320312 185.175781 108.742188 185.769531 101.207031 186.101562 C 85.539062 186.839844 69.761719 186.210938 54.238281 184.105469 C 50.472656 183.589844 46.664062 182.996094 43.007812 182 C 39.570312 181 36.207031 179.632812 33.546875 177.234375 C 32.957031 176.679688 32.144531 177.492188 32.734375 177.972656 Z M 32.734375 177.972656 " fill-opacity="1" fill-rule="nonzero"/><path fill="#a9a0f0" d="M 32.734375 171.578125 C 37.6875 176.011719 44.632812 177.34375 51.027344 178.339844 C 58.820312 179.523438 66.65625 180.300781 74.527344 180.742188 C 90.304688 181.628906 106.34375 181.148438 122.007812 178.933594 C 128.882812 177.933594 136.566406 176.382812 141.628906 171.285156 C 142.109375 170.765625 141.371094 169.988281 140.855469 170.507812 C 136.421875 175.015625 129.769531 176.566406 123.746094 177.566406 C 116.320312 178.785156 108.742188 179.375 101.207031 179.707031 C 85.539062 180.449219 69.761719 179.820312 54.238281 177.714844 C 50.472656 177.195312 46.664062 176.605469 43.007812 175.605469 C 39.570312 174.609375 36.207031 173.242188 33.546875 170.839844 C 32.957031 170.359375 32.144531 171.097656 32.734375 171.578125 Z M 32.734375 171.578125 " fill-opacity="1" fill-rule="nonzero"/><path fill="#a9a0f0" d="M 32.734375 165.519531 C 37.6875 169.953125 44.632812 171.285156 51.027344 172.28125 C 58.820312 173.464844 66.65625 174.238281 74.527344 174.683594 C 90.304688 175.53125 106.34375 175.089844 122.007812 172.871094 C 128.882812 171.875 136.566406 170.324219 141.628906 165.222656 C 142.109375 164.707031 141.371094 163.929688 140.855469 164.449219 C 136.421875 168.957031 129.769531 170.507812 123.746094 171.503906 C 116.320312 172.722656 108.742188 173.316406 101.207031 173.648438 C 85.539062 174.386719 69.761719 173.757812 54.238281 171.652344 C 50.472656 171.136719 46.664062 170.542969 43.007812 169.546875 C 39.570312 168.550781 36.207031 167.183594 33.546875 164.78125 C 32.957031 164.226562 32.144531 165.039062 32.734375 165.519531 Z M 32.734375 165.519531 " fill-opacity="1" fill-rule="nonzero"/><path fill="#a9a0f0" d="M 32.734375 159.125 C 37.6875 163.5625 44.632812 164.890625 51.027344 165.886719 C 58.820312 167.070312 66.65625 167.847656 74.527344 168.289062 C 90.304688 169.175781 106.34375 168.695312 122.007812 166.480469 C 128.882812 165.480469 136.566406 163.929688 141.628906 158.832031 C 142.109375 158.3125 141.371094 157.539062 140.855469 158.054688 C 136.421875 162.5625 129.769531 164.113281 123.746094 165.113281 C 116.320312 166.332031 108.742188 166.921875 101.207031 167.253906 C 85.539062 167.996094 69.761719 167.367188 54.238281 165.261719 C 50.472656 164.742188 46.664062 164.152344 43.007812 163.152344 C 39.570312 162.15625 36.207031 160.789062 33.546875 158.386719 C 32.957031 157.90625 32.144531 158.644531 32.734375 159.125 Z M 32.734375 159.125 " fill-opacity="1" fill-rule="nonzero"/><path fill="#a9a0f0" d="M 32.734375 153.066406 C 37.6875 157.5 44.632812 158.832031 51.027344 159.828125 C 58.820312 161.011719 66.65625 161.785156 74.527344 162.230469 C 90.304688 163.082031 106.34375 162.636719 122.007812 160.417969 C 128.882812 159.421875 136.566406 157.871094 141.628906 152.769531 C 142.109375 152.253906 141.371094 151.476562 140.855469 151.996094 C 136.421875 156.503906 129.769531 158.054688 123.746094 159.050781 C 116.320312 160.273438 108.742188 160.863281 101.207031 161.195312 C 85.539062 161.933594 69.761719 161.304688 54.238281 159.199219 C 50.472656 158.683594 46.664062 158.089844 43.007812 157.09375 C 39.570312 156.097656 36.207031 154.730469 33.546875 152.328125 C 32.957031 151.773438 32.144531 152.585938 32.734375 153.066406 Z M 32.734375 153.066406 " fill-opacity="1" fill-rule="nonzero"/><path fill="#a9a0f0" d="M 32.734375 146.378906 C 37.6875 150.8125 44.632812 152.144531 51.027344 153.140625 C 58.820312 154.324219 66.65625 155.097656 74.527344 155.542969 C 90.304688 156.390625 106.34375 155.949219 122.007812 153.730469 C 128.882812 152.734375 136.566406 151.183594 141.628906 146.082031 C 142.109375 145.566406 141.371094 144.789062 140.855469 145.304688 C 136.421875 149.816406 129.769531 151.367188 123.746094 152.363281 C 116.320312 153.582031 108.742188 154.175781 101.207031 154.507812 C 85.539062 155.246094 69.761719 154.617188 54.238281 152.511719 C 50.472656 151.996094 46.664062 151.402344 43.007812 150.40625 C 39.570312 149.40625 36.207031 148.039062 33.546875 145.640625 C 32.957031 145.085938 32.144531 145.898438 32.734375 146.378906 Z M 32.734375 146.378906 " fill-opacity="1" fill-rule="nonzero"/><path fill="#a9a0f0" d="M 32.734375 140.28125 C 37.6875 144.714844 44.632812 146.046875 51.027344 147.042969 C 58.820312 148.226562 66.65625 149 74.527344 149.445312 C 90.304688 150.332031 106.34375 149.851562 122.007812 147.632812 C 128.882812 146.636719 136.566406 145.085938 141.628906 139.984375 C 142.109375 139.46875 141.371094 138.691406 140.855469 139.210938 C 136.421875 143.71875 129.769531 145.269531 123.746094 146.265625 C 116.320312 147.488281 108.742188 148.078125 101.207031 148.410156 C 85.539062 149.148438 69.761719 148.519531 54.238281 146.414062 C 50.472656 145.898438 46.664062 145.304688 43.007812 144.308594 C 39.570312 143.3125 36.207031 141.945312 33.546875 139.542969 C 32.957031 139.023438 32.144531 139.800781 32.734375 140.28125 Z M 32.734375 140.28125 " fill-opacity="1" fill-rule="nonzero"/><path fill="#a9a0f0" d="M 32.734375 133.925781 C 37.6875 138.359375 44.632812 139.691406 51.027344 140.6875 C 58.820312 141.871094 66.65625 142.644531 74.527344 143.089844 C 90.304688 143.9375 106.34375 143.496094 122.007812 141.277344 C 128.882812 140.28125 136.566406 138.730469 141.628906 133.628906 C 142.109375 133.113281 141.371094 132.335938 140.855469 132.855469 C 136.421875 137.363281 129.769531 138.914062 123.746094 139.910156 C 116.320312 141.132812 108.742188 141.722656 101.207031 142.054688 C 85.539062 142.792969 69.761719 142.164062 54.238281 140.058594 C 50.472656 139.542969 46.664062 138.949219 43.007812 137.953125 C 39.570312 136.957031 36.207031 135.589844 33.546875 133.1875 C 32.957031 132.632812 32.144531 133.445312 32.734375 133.925781 Z M 32.734375 133.925781 " fill-opacity="1" fill-rule="nonzero"/><path fill="#a9a0f0" d="M 32.734375 127.828125 C 37.6875 132.261719 44.632812 133.59375 51.027344 134.589844 C 58.820312 135.773438 66.65625 136.550781 74.527344 136.992188 C 90.304688 137.84375 106.34375 137.398438 122.007812 135.183594 C 128.882812 134.183594 136.566406 132.632812 141.628906 127.53125 C 142.109375 127.015625 141.371094 126.238281 140.855469 126.757812 C 136.421875 131.265625 129.769531 132.816406 123.746094 133.816406 C 116.320312 135.035156 108.742188 135.625 101.207031 135.957031 C 85.539062 136.695312 69.761719 136.070312 54.238281 133.960938 C 50.472656 133.445312 46.664062 132.855469 43.007812 131.855469 C 39.570312 130.859375 36.207031 129.492188 33.546875 127.089844 C 32.957031 126.570312 32.144531 127.347656 32.734375 127.828125 Z M 32.734375 127.828125 " fill-opacity="1" fill-rule="nonzero"/><path fill="#a9a0f0" d="M 32.734375 122.25 C 37.6875 126.683594 44.632812 128.011719 51.027344 129.011719 C 58.820312 130.195312 66.65625 130.96875 74.527344 131.414062 C 90.304688 132.261719 106.34375 131.820312 122.007812 129.601562 C 128.882812 128.605469 136.566406 127.050781 141.628906 121.953125 C 142.109375 121.4375 141.371094 120.660156 140.855469 121.175781 C 136.421875 125.683594 129.769531 127.238281 123.746094 128.234375 C 116.320312 129.453125 108.742188 130.046875 101.207031 130.378906 C 85.539062 131.117188 69.761719 130.488281 54.238281 128.382812 C 50.472656 127.867188 46.664062 127.273438 43.007812 126.277344 C 39.570312 125.277344 36.207031 123.910156 33.546875 121.511719 C 32.957031 120.992188 32.144531 121.769531 32.734375 122.25 Z M 32.734375 122.25 " fill-opacity="1" fill-rule="nonzero"/><path fill="#a9a0f0" d="M 34.027344 218.175781 C 39.644531 222.5 45.851562 226.046875 52.429688 228.707031 C 60.078125 231.808594 68.171875 233.546875 76.410156 234.027344 C 82.765625 234.398438 89.234375 234.285156 95.589844 233.953125 C 103.015625 233.582031 110.40625 232.4375 117.539062 230.148438 C 125.335938 227.671875 132.726562 223.828125 139.375 219.023438 C 139.929688 218.617188 140.523438 218.210938 141.078125 217.730469 C 141.703125 217.25 141.078125 216.179688 140.449219 216.660156 C 134.3125 221.390625 127.476562 225.234375 120.234375 227.894531 C 113.066406 230.554688 105.566406 231.996094 97.953125 232.550781 C 91.746094 232.992188 85.390625 233.101562 79.144531 232.882812 C 71.273438 232.621094 63.515625 231.292969 56.085938 228.707031 C 49.03125 226.230469 42.34375 222.683594 36.320312 218.25 C 35.800781 217.878906 35.246094 217.472656 34.730469 217.03125 C 34.027344 216.585938 33.398438 217.695312 34.027344 218.175781 Z M 34.027344 218.175781 " fill-opacity="1" fill-rule="nonzero"/></svg>