<svg xmlns="http://www.w3.org/2000/svg" xmlns:xlink="http://www.w3.org/1999/xlink" width="400" zoomAndPan="magnify" viewBox="0 0 300 299.999988" height="400" preserveAspectRatio="xMidYMid meet" version="1.0"><defs><clipPath id="181e2c67aa"><path d="M 30 51.449219 L 270 51.449219 L 270 248.699219 L 30 248.699219 Z M 30 51.449219 " clip-rule="nonzero"/></clipPath></defs><path fill="#a9a0f0" d="M 66.191406 223.511719 C 64.765625 223.511719 63.632812 224.671875 63.632812 226.132812 C 63.632812 227.589844 64.765625 228.78125 66.191406 228.78125 C 67.617188 228.78125 68.777344 227.589844 68.777344 226.132812 C 68.777344 224.671875 67.617188 223.511719 66.191406 223.511719 Z M 66.191406 223.511719 " fill-opacity="1" fill-rule="nonzero"/><path fill="#a9a0f0" d="M 158.582031 193.59375 C 160.007812 193.59375 161.167969 192.40625 161.167969 190.945312 C 161.167969 189.484375 160.007812 188.324219 158.582031 188.324219 C 157.15625 188.324219 156.023438 189.484375 156.023438 190.945312 C 156.023438 192.40625 157.15625 193.59375 158.582031 193.59375 Z M 158.582031 193.59375 " fill-opacity="1" fill-rule="nonzero"/><path fill="#a9a0f0" d="M 233.796875 223.5 C 232.371094 223.5 231.234375 224.660156 231.234375 226.121094 C 231.234375 227.578125 232.371094 228.769531 233.796875 228.769531 C 235.222656 228.769531 236.382812 227.578125 236.382812 226.121094 C 236.382812 224.660156 235.222656 223.5 233.796875 223.5 Z M 233.796875 223.5 " fill-opacity="1" fill-rule="nonzero"/><path fill="#a9a0f0" d="M 220.082031 228.769531 C 218.65625 228.769531 217.523438 229.929688 217.523438 231.390625 C 217.523438 232.847656 218.65625 234.039062 220.082031 234.039062 C 221.507812 234.039062 222.667969 232.847656 222.667969 231.390625 C 222.667969 229.929688 221.507812 228.769531 220.082031 228.769531 Z M 220.082031 228.769531 " fill-opacity="1" fill-rule="nonzero"/><path fill="#a9a0f0" d="M 221.308594 219.425781 C 221.308594 217.964844 220.148438 216.804688 218.722656 216.804688 C 217.300781 216.804688 216.164062 217.964844 216.164062 219.425781 C 216.164062 220.882812 217.300781 222.074219 218.722656 222.074219 C 220.148438 222.074219 221.308594 220.882812 221.308594 219.425781 Z M 221.308594 219.425781 " fill-opacity="1" fill-rule="nonzero"/><path fill="#a9a0f0" d="M 205.214844 223.5 C 203.789062 223.5 202.65625 224.660156 202.65625 226.121094 C 202.65625 227.578125 203.789062 228.769531 205.214844 228.769531 C 206.640625 228.769531 207.800781 227.578125 207.800781 226.121094 C 207.800781 224.660156 206.640625 223.5 205.214844 223.5 Z M 205.214844 223.5 " fill-opacity="1" fill-rule="nonzero"/><path fill="#a9a0f0" d="M 209.191406 208.664062 C 207.765625 208.664062 206.628906 209.828125 206.628906 211.285156 C 206.628906 212.746094 207.765625 213.933594 209.191406 213.933594 C 210.613281 213.933594 211.777344 212.746094 211.777344 211.285156 C 211.777344 209.828125 210.613281 208.664062 209.191406 208.664062 Z M 209.191406 208.664062 " fill-opacity="1" fill-rule="nonzero"/><path fill="#a9a0f0" d="M 196.527344 215.355469 C 195.101562 215.355469 193.96875 216.519531 193.96875 217.980469 C 193.96875 219.4375 195.101562 220.625 196.527344 220.625 C 197.953125 220.625 199.113281 219.4375 199.113281 217.980469 C 199.113281 216.519531 197.953125 215.355469 196.527344 215.355469 Z M 196.527344 215.355469 " fill-opacity="1" fill-rule="nonzero"/><path fill="#a9a0f0" d="M 185.039062 211.289062 C 183.617188 211.289062 182.480469 212.453125 182.480469 213.910156 C 182.480469 215.371094 183.617188 216.558594 185.039062 216.558594 C 186.464844 216.558594 187.625 215.371094 187.625 213.910156 C 187.625 212.453125 186.464844 211.289062 185.039062 211.289062 Z M 185.039062 211.289062 " fill-opacity="1" fill-rule="nonzero"/><path fill="#a9a0f0" d="M 198.195312 205.773438 C 198.195312 204.3125 197.035156 203.152344 195.609375 203.152344 C 194.1875 203.152344 193.050781 204.3125 193.050781 205.773438 C 193.050781 207.230469 194.1875 208.421875 195.609375 208.421875 C 197.035156 208.421875 198.195312 207.230469 198.195312 205.773438 Z M 198.195312 205.773438 " fill-opacity="1" fill-rule="nonzero"/><path fill="#a9a0f0" d="M 185.097656 200.988281 C 185.097656 199.53125 183.9375 198.367188 182.511719 198.367188 C 181.085938 198.367188 179.953125 199.53125 179.953125 200.988281 C 179.953125 202.449219 181.085938 203.636719 182.511719 203.636719 C 183.9375 203.636719 185.097656 202.449219 185.097656 200.988281 Z M 185.097656 200.988281 " fill-opacity="1" fill-rule="nonzero"/><path fill="#a9a0f0" d="M 173.121094 207.21875 C 171.699219 207.21875 170.5625 208.382812 170.5625 209.839844 C 170.5625 211.300781 171.699219 212.492188 173.121094 212.492188 C 174.546875 212.492188 175.710938 211.300781 175.710938 209.839844 C 175.710938 208.382812 174.546875 207.21875 173.121094 207.21875 Z M 173.121094 207.21875 " fill-opacity="1" fill-rule="nonzero"/><path fill="#a9a0f0" d="M 175.832031 108.765625 C 177.257812 108.765625 178.421875 107.578125 178.421875 106.117188 C 178.421875 104.660156 177.257812 103.496094 175.832031 103.496094 C 174.410156 103.496094 173.273438 104.660156 173.273438 106.117188 C 173.273438 107.578125 174.410156 108.765625 175.832031 108.765625 Z M 175.832031 108.765625 " fill-opacity="1" fill-rule="nonzero"/><path fill="#a9a0f0" d="M 87.210938 66.753906 C 85.785156 66.753906 84.652344 67.917969 84.652344 69.375 C 84.652344 70.835938 85.785156 72.023438 87.210938 72.023438 C 88.636719 72.023438 89.796875 70.835938 89.796875 69.375 C 89.796875 67.917969 88.636719 66.753906 87.210938 66.753906 Z M 87.210938 66.753906 " fill-opacity="1" fill-rule="nonzero"/><path fill="#a9a0f0" d="M 51.871094 142.3125 C 50.449219 142.3125 49.3125 143.472656 49.3125 144.933594 C 49.3125 146.394531 50.449219 147.582031 51.871094 147.582031 C 53.296875 147.582031 54.460938 146.394531 54.460938 144.933594 C 54.460938 143.472656 53.296875 142.3125 51.871094 142.3125 Z M 51.871094 142.3125 " fill-opacity="1" fill-rule="nonzero"/><path fill="#a9a0f0" d="M 46.984375 131.710938 C 46.984375 130.25 45.824219 129.089844 44.398438 129.089844 C 42.972656 129.089844 41.839844 130.25 41.839844 131.710938 C 41.839844 133.167969 42.972656 134.359375 44.398438 134.359375 C 45.824219 134.359375 46.984375 133.167969 46.984375 131.710938 Z M 46.984375 131.710938 " fill-opacity="1" fill-rule="nonzero"/><path fill="#a9a0f0" d="M 51.871094 117.804688 C 50.449219 117.804688 49.3125 118.96875 49.3125 120.425781 C 49.3125 121.886719 50.449219 123.074219 51.871094 123.074219 C 53.296875 123.074219 54.460938 121.886719 54.460938 120.425781 C 54.460938 118.96875 53.296875 117.804688 51.871094 117.804688 Z M 51.871094 117.804688 " fill-opacity="1" fill-rule="nonzero"/><path fill="#a9a0f0" d="M 50.265625 109.515625 C 51.6875 109.515625 52.851562 108.328125 52.851562 106.871094 C 52.851562 105.410156 51.6875 104.246094 50.265625 104.246094 C 48.839844 104.246094 47.703125 105.410156 47.703125 106.871094 C 47.703125 108.328125 48.839844 109.515625 50.265625 109.515625 Z M 50.265625 109.515625 " fill-opacity="1" fill-rule="nonzero"/><path fill="#a9a0f0" d="M 61.386719 95.363281 C 59.960938 95.363281 58.824219 96.523438 58.824219 97.984375 C 58.824219 99.441406 59.960938 100.632812 61.386719 100.632812 C 62.808594 100.632812 63.972656 99.441406 63.972656 97.984375 C 63.972656 96.523438 62.808594 95.363281 61.386719 95.363281 Z M 61.386719 95.363281 " fill-opacity="1" fill-rule="nonzero"/><path fill="#a9a0f0" d="M 65.480469 80.785156 C 64.054688 80.785156 62.917969 81.945312 62.917969 83.40625 C 62.917969 84.863281 64.054688 86.054688 65.480469 86.054688 C 66.902344 86.054688 68.066406 84.863281 68.066406 83.40625 C 68.066406 81.945312 66.902344 80.785156 65.480469 80.785156 Z M 65.480469 80.785156 " fill-opacity="1" fill-rule="nonzero"/><path fill="#a9a0f0" d="M 78.046875 78.382812 C 76.621094 78.382812 75.488281 79.546875 75.488281 81.007812 C 75.488281 82.464844 76.621094 83.65625 78.046875 83.65625 C 79.472656 83.65625 80.632812 82.464844 80.632812 81.007812 C 80.632812 79.546875 79.472656 78.382812 78.046875 78.382812 Z M 78.046875 78.382812 " fill-opacity="1" fill-rule="nonzero"/><path fill="#a9a0f0" d="M 100.898438 71 C 99.472656 71 98.339844 72.164062 98.339844 73.625 C 98.339844 75.082031 99.472656 76.273438 100.898438 76.273438 C 102.324219 76.273438 103.484375 75.082031 103.484375 73.625 C 103.484375 72.164062 102.324219 71 100.898438 71 Z M 100.898438 71 " fill-opacity="1" fill-rule="nonzero"/><path fill="#a9a0f0" d="M 46.515625 156.46875 C 45.089844 156.46875 43.957031 157.628906 43.957031 159.089844 C 43.957031 160.546875 45.089844 161.738281 46.515625 161.738281 C 47.941406 161.738281 49.101562 160.546875 49.101562 159.089844 C 49.101562 157.628906 47.941406 156.46875 46.515625 156.46875 Z M 46.515625 156.46875 " fill-opacity="1" fill-rule="nonzero"/><path fill="#a9a0f0" d="M 70.742188 192.84375 C 70.742188 194.300781 71.875 195.492188 73.300781 195.492188 C 74.726562 195.492188 75.886719 194.300781 75.886719 192.84375 C 75.886719 191.382812 74.726562 190.222656 73.300781 190.222656 C 71.875 190.222656 70.742188 191.382812 70.742188 192.84375 Z M 70.742188 192.84375 " fill-opacity="1" fill-rule="nonzero"/><path fill="#a9a0f0" d="M 69.308594 184.019531 C 70.734375 184.019531 71.894531 182.832031 71.894531 181.371094 C 71.894531 179.914062 70.734375 178.75 69.308594 178.75 C 67.882812 178.75 66.75 179.914062 66.75 181.371094 C 66.75 182.832031 67.882812 184.019531 69.308594 184.019531 Z M 69.308594 184.019531 " fill-opacity="1" fill-rule="nonzero"/><path fill="#a9a0f0" d="M 58.226562 176.707031 C 56.804688 176.707031 55.667969 177.867188 55.667969 179.328125 C 55.667969 180.785156 56.804688 181.976562 58.226562 181.976562 C 59.652344 181.976562 60.8125 180.785156 60.8125 179.328125 C 60.8125 177.867188 59.652344 176.707031 58.226562 176.707031 Z M 58.226562 176.707031 " fill-opacity="1" fill-rule="nonzero"/><path fill="#a9a0f0" d="M 58.226562 164.523438 C 56.804688 164.523438 55.667969 165.6875 55.667969 167.148438 C 55.667969 168.605469 56.804688 169.796875 58.226562 169.796875 C 59.652344 169.796875 60.8125 168.605469 60.8125 167.148438 C 60.8125 165.6875 59.652344 164.523438 58.226562 164.523438 Z M 58.226562 164.523438 " fill-opacity="1" fill-rule="nonzero"/><path fill="#a9a0f0" d="M 112.386719 64.054688 C 110.960938 64.054688 109.828125 65.21875 109.828125 66.675781 C 109.828125 68.136719 110.960938 69.324219 112.386719 69.324219 C 113.8125 69.324219 114.972656 68.136719 114.972656 66.675781 C 114.972656 65.21875 113.8125 64.054688 112.386719 64.054688 Z M 112.386719 64.054688 " fill-opacity="1" fill-rule="nonzero"/><path fill="#a9a0f0" d="M 124.609375 70.25 C 123.183594 70.25 122.046875 71.414062 122.046875 72.871094 C 122.046875 74.332031 123.183594 75.519531 124.609375 75.519531 C 126.03125 75.519531 127.195312 74.332031 127.195312 72.871094 C 127.195312 71.414062 126.03125 70.25 124.609375 70.25 Z M 124.609375 70.25 " fill-opacity="1" fill-rule="nonzero"/><path fill="#a9a0f0" d="M 138.5 68.101562 C 137.074219 68.101562 135.9375 69.265625 135.9375 70.722656 C 135.9375 72.183594 137.074219 73.371094 138.5 73.371094 C 139.925781 73.371094 141.085938 72.183594 141.085938 70.722656 C 141.085938 69.265625 139.925781 68.101562 138.5 68.101562 Z M 138.5 68.101562 " fill-opacity="1" fill-rule="nonzero"/><path fill="#a9a0f0" d="M 146.441406 78.382812 C 145.015625 78.382812 143.882812 79.546875 143.882812 81.007812 C 143.882812 82.464844 145.015625 83.65625 146.441406 83.65625 C 147.867188 83.65625 149.027344 82.464844 149.027344 81.007812 C 149.027344 79.546875 147.867188 78.382812 146.441406 78.382812 Z M 146.441406 78.382812 " fill-opacity="1" fill-rule="nonzero"/><path fill="#a9a0f0" d="M 134.527344 100.179688 C 133.101562 100.179688 131.96875 101.34375 131.96875 102.800781 C 131.96875 104.261719 133.101562 105.449219 134.527344 105.449219 C 135.953125 105.449219 137.113281 104.261719 137.113281 102.800781 C 137.113281 101.34375 135.953125 100.179688 134.527344 100.179688 Z M 134.527344 100.179688 " fill-opacity="1" fill-rule="nonzero"/><path fill="#a9a0f0" d="M 163.285156 85.074219 C 163.285156 83.613281 162.125 82.453125 160.699219 82.453125 C 159.273438 82.453125 158.140625 83.613281 158.140625 85.074219 C 158.140625 86.53125 159.273438 87.722656 160.699219 87.722656 C 162.125 87.722656 163.285156 86.53125 163.285156 85.074219 Z M 163.285156 85.074219 " fill-opacity="1" fill-rule="nonzero"/><path fill="#a9a0f0" d="M 221.929688 84.148438 C 223.355469 84.148438 224.515625 82.960938 224.515625 81.5 C 224.515625 80.039062 223.355469 78.878906 221.929688 78.878906 C 220.503906 78.878906 219.371094 80.039062 219.371094 81.5 C 219.371094 82.960938 220.503906 84.148438 221.929688 84.148438 Z M 221.929688 84.148438 " fill-opacity="1" fill-rule="nonzero"/><path fill="#a9a0f0" d="M 248.097656 147.582031 C 249.523438 147.582031 250.6875 146.394531 250.6875 144.933594 C 250.6875 143.476562 249.523438 142.3125 248.097656 142.3125 C 246.675781 142.3125 245.539062 143.476562 245.539062 144.933594 C 245.539062 146.394531 246.675781 147.582031 248.097656 147.582031 Z M 248.097656 147.582031 " fill-opacity="1" fill-rule="nonzero"/><path fill="#a9a0f0" d="M 226.671875 190.226562 C 225.246094 190.226562 224.113281 191.390625 224.113281 192.851562 C 224.113281 194.308594 225.246094 195.5 226.671875 195.5 C 228.097656 195.5 229.257812 194.308594 229.257812 192.851562 C 229.257812 191.390625 228.097656 190.226562 226.671875 190.226562 Z M 226.671875 190.226562 " fill-opacity="1" fill-rule="nonzero"/><path fill="#a9a0f0" d="M 230.644531 178.757812 C 229.222656 178.757812 228.085938 179.917969 228.085938 181.378906 C 228.085938 182.835938 229.222656 184.027344 230.644531 184.027344 C 232.070312 184.027344 233.234375 182.835938 233.234375 181.378906 C 233.234375 179.917969 232.070312 178.757812 230.644531 178.757812 Z M 230.644531 178.757812 " fill-opacity="1" fill-rule="nonzero"/><path fill="#a9a0f0" d="M 241.746094 176.699219 C 240.320312 176.699219 239.183594 177.859375 239.183594 179.320312 C 239.183594 180.777344 240.320312 181.96875 241.746094 181.96875 C 243.167969 181.96875 244.332031 180.777344 244.332031 179.320312 C 244.332031 177.859375 243.167969 176.699219 241.746094 176.699219 Z M 241.746094 176.699219 " fill-opacity="1" fill-rule="nonzero"/><path fill="#a9a0f0" d="M 239.183594 167.152344 C 239.183594 168.613281 240.320312 169.800781 241.746094 169.800781 C 243.167969 169.800781 244.332031 168.613281 244.332031 167.152344 C 244.332031 165.691406 243.167969 164.53125 241.746094 164.53125 C 240.320312 164.53125 239.183594 165.691406 239.183594 167.152344 Z M 239.183594 167.152344 " fill-opacity="1" fill-rule="nonzero"/><path fill="#a9a0f0" d="M 253.457031 156.390625 C 252.03125 156.390625 250.894531 157.554688 250.894531 159.011719 C 250.894531 160.472656 252.03125 161.660156 253.457031 161.660156 C 254.882812 161.660156 256.042969 160.472656 256.042969 159.011719 C 256.042969 157.554688 254.882812 156.390625 253.457031 156.390625 Z M 253.457031 156.390625 " fill-opacity="1" fill-rule="nonzero"/><path fill="#a9a0f0" d="M 255.566406 134.359375 C 256.992188 134.359375 258.15625 133.167969 258.15625 131.710938 C 258.15625 130.25 256.992188 129.089844 255.566406 129.089844 C 254.144531 129.089844 253.007812 130.25 253.007812 131.710938 C 253.007812 133.167969 254.144531 134.359375 255.566406 134.359375 Z M 255.566406 134.359375 " fill-opacity="1" fill-rule="nonzero"/><path fill="#a9a0f0" d="M 248.097656 123.0625 C 249.523438 123.0625 250.6875 121.871094 250.6875 120.414062 C 250.6875 118.953125 249.523438 117.792969 248.097656 117.792969 C 246.675781 117.792969 245.539062 118.953125 245.539062 120.414062 C 245.539062 121.871094 246.675781 123.0625 248.097656 123.0625 Z M 248.097656 123.0625 " fill-opacity="1" fill-rule="nonzero"/><path fill="#a9a0f0" d="M 249.691406 109.503906 C 251.117188 109.503906 252.277344 108.316406 252.277344 106.855469 C 252.277344 105.394531 251.117188 104.234375 249.691406 104.234375 C 248.265625 104.234375 247.132812 105.394531 247.132812 106.855469 C 247.132812 108.316406 248.265625 109.503906 249.691406 109.503906 Z M 249.691406 109.503906 " fill-opacity="1" fill-rule="nonzero"/><path fill="#a9a0f0" d="M 236.035156 97.992188 C 236.035156 99.449219 237.167969 100.640625 238.59375 100.640625 C 240.019531 100.640625 241.179688 99.449219 241.179688 97.992188 C 241.179688 96.53125 240.019531 95.371094 238.59375 95.371094 C 237.167969 95.371094 236.035156 96.53125 236.035156 97.992188 Z M 236.035156 97.992188 " fill-opacity="1" fill-rule="nonzero"/><path fill="#a9a0f0" d="M 234.492188 86.054688 C 235.917969 86.054688 237.078125 84.863281 237.078125 83.40625 C 237.078125 81.945312 235.917969 80.785156 234.492188 80.785156 C 233.066406 80.785156 231.929688 81.945312 231.929688 83.40625 C 231.929688 84.863281 233.066406 86.054688 234.492188 86.054688 Z M 234.492188 86.054688 " fill-opacity="1" fill-rule="nonzero"/><path fill="#a9a0f0" d="M 212.765625 71.679688 C 214.191406 71.679688 215.351562 70.492188 215.351562 69.03125 C 215.351562 67.574219 214.191406 66.410156 212.765625 66.410156 C 211.339844 66.410156 210.207031 67.574219 210.207031 69.03125 C 210.207031 70.492188 211.339844 71.679688 212.765625 71.679688 Z M 212.765625 71.679688 " fill-opacity="1" fill-rule="nonzero"/><path fill="#a9a0f0" d="M 199.082031 76.273438 C 200.507812 76.273438 201.667969 75.082031 201.667969 73.625 C 201.667969 72.164062 200.507812 71 199.082031 71 C 197.65625 71 196.523438 72.164062 196.523438 73.625 C 196.523438 75.082031 197.65625 76.273438 199.082031 76.273438 Z M 199.082031 76.273438 " fill-opacity="1" fill-rule="nonzero"/><path fill="#a9a0f0" d="M 187.261719 66.921875 C 188.6875 66.921875 189.847656 65.734375 189.847656 64.273438 C 189.847656 62.816406 188.6875 61.652344 187.261719 61.652344 C 185.835938 61.652344 184.703125 62.816406 184.703125 64.273438 C 184.703125 65.734375 185.835938 66.921875 187.261719 66.921875 Z M 187.261719 66.921875 " fill-opacity="1" fill-rule="nonzero"/><path fill="#a9a0f0" d="M 179.808594 76.949219 C 181.234375 76.949219 182.394531 75.761719 182.394531 74.300781 C 182.394531 72.84375 181.234375 71.679688 179.808594 71.679688 C 178.382812 71.679688 177.25 72.84375 177.25 74.300781 C 177.25 75.761719 178.382812 76.949219 179.808594 76.949219 Z M 179.808594 76.949219 " fill-opacity="1" fill-rule="nonzero"/><path fill="#a9a0f0" d="M 125.449219 110.183594 C 125.449219 108.726562 124.289062 107.5625 122.863281 107.5625 C 121.4375 107.5625 120.304688 108.726562 120.304688 110.183594 C 120.304688 111.644531 121.4375 112.832031 122.863281 112.832031 C 124.289062 112.832031 125.449219 111.644531 125.449219 110.183594 Z M 125.449219 110.183594 " fill-opacity="1" fill-rule="nonzero"/><path fill="#a9a0f0" d="M 166.015625 97.992188 C 166.015625 97.992188 166.015625 97.988281 166.015625 97.988281 C 166.015625 97.988281 166.015625 97.984375 166.015625 97.984375 C 166.015625 96.523438 164.855469 95.363281 163.429688 95.363281 C 162.003906 95.363281 160.871094 96.523438 160.871094 97.984375 C 160.871094 97.984375 160.871094 97.988281 160.871094 97.988281 C 160.871094 99.449219 162.003906 100.640625 163.429688 100.640625 C 164.855469 100.640625 166.015625 99.449219 166.015625 97.992188 Z M 166.015625 97.992188 " fill-opacity="1" fill-rule="nonzero"/><path fill="#a9a0f0" d="M 124.277344 123.550781 C 124.277344 125.011719 125.410156 126.199219 126.835938 126.199219 C 128.261719 126.199219 129.421875 125.011719 129.421875 123.550781 C 129.421875 122.09375 128.261719 120.929688 126.835938 120.929688 C 125.410156 120.929688 124.277344 122.09375 124.277344 123.550781 Z M 124.277344 123.550781 " fill-opacity="1" fill-rule="nonzero"/><path fill="#a9a0f0" d="M 174.433594 123.074219 C 175.859375 123.074219 177.019531 121.886719 177.019531 120.425781 C 177.019531 118.96875 175.859375 117.804688 174.433594 117.804688 C 173.011719 117.804688 171.875 118.96875 171.875 120.425781 C 171.875 121.886719 173.011719 123.074219 174.433594 123.074219 Z M 174.433594 123.074219 " fill-opacity="1" fill-rule="nonzero"/><path fill="#a9a0f0" d="M 183.757812 134.359375 C 185.183594 134.359375 186.34375 133.167969 186.34375 131.710938 C 186.34375 130.25 185.183594 129.089844 183.757812 129.089844 C 182.332031 129.089844 181.199219 130.25 181.199219 131.710938 C 181.199219 133.167969 182.332031 134.359375 183.757812 134.359375 Z M 183.757812 134.359375 " fill-opacity="1" fill-rule="nonzero"/><path fill="#a9a0f0" d="M 174.433594 144.789062 C 175.859375 144.789062 177.019531 143.597656 177.019531 142.140625 C 177.019531 140.679688 175.859375 139.515625 174.433594 139.515625 C 173.011719 139.515625 171.875 140.679688 171.875 142.140625 C 171.875 143.597656 173.011719 144.789062 174.433594 144.789062 Z M 174.433594 144.789062 " fill-opacity="1" fill-rule="nonzero"/><path fill="#a9a0f0" d="M 181.183594 157.59375 C 182.609375 157.59375 183.769531 156.402344 183.769531 154.945312 C 183.769531 153.484375 182.609375 152.320312 181.183594 152.320312 C 179.757812 152.320312 178.625 153.484375 178.625 154.945312 C 178.625 156.402344 179.757812 157.59375 181.183594 157.59375 Z M 181.183594 157.59375 " fill-opacity="1" fill-rule="nonzero"/><path fill="#a9a0f0" d="M 168.664062 164.371094 C 170.089844 164.371094 171.25 163.183594 171.25 161.722656 C 171.25 160.265625 170.089844 159.101562 168.664062 159.101562 C 167.238281 159.101562 166.105469 160.265625 166.105469 161.722656 C 166.105469 163.183594 167.238281 164.371094 168.664062 164.371094 Z M 168.664062 164.371094 " fill-opacity="1" fill-rule="nonzero"/><path fill="#a9a0f0" d="M 169.300781 173.238281 C 169.300781 174.695312 170.4375 175.886719 171.863281 175.886719 C 173.289062 175.886719 174.449219 174.695312 174.449219 173.238281 C 174.449219 171.777344 173.289062 170.617188 171.863281 170.617188 C 170.4375 170.617188 169.300781 171.777344 169.300781 173.238281 Z M 169.300781 173.238281 " fill-opacity="1" fill-rule="nonzero"/><path fill="#a9a0f0" d="M 159.457031 179.972656 C 160.882812 179.972656 162.042969 178.785156 162.042969 177.324219 C 162.042969 175.867188 160.882812 174.703125 159.457031 174.703125 C 158.03125 174.703125 156.898438 175.867188 156.898438 177.324219 C 156.898438 178.785156 158.03125 179.972656 159.457031 179.972656 Z M 159.457031 179.972656 " fill-opacity="1" fill-rule="nonzero"/><path fill="#a9a0f0" d="M 146.441406 183.527344 C 145.015625 183.527344 143.882812 184.6875 143.882812 186.148438 C 143.882812 187.605469 145.015625 188.796875 146.441406 188.796875 C 147.867188 188.796875 149.027344 187.605469 149.027344 186.148438 C 149.027344 184.6875 147.867188 183.527344 146.441406 183.527344 Z M 146.441406 183.527344 " fill-opacity="1" fill-rule="nonzero"/><path fill="#a9a0f0" d="M 118.789062 131.710938 C 118.789062 130.25 117.628906 129.089844 116.203125 129.089844 C 114.777344 129.089844 113.640625 130.25 113.640625 131.710938 C 113.640625 133.167969 114.777344 134.359375 116.203125 134.359375 C 117.628906 134.359375 118.789062 133.167969 118.789062 131.710938 Z M 118.789062 131.710938 " fill-opacity="1" fill-rule="nonzero"/><path fill="#a9a0f0" d="M 128.265625 142.140625 C 128.265625 140.679688 127.101562 139.515625 125.679688 139.515625 C 124.253906 139.515625 123.117188 140.679688 123.117188 142.140625 C 123.117188 143.597656 124.253906 144.789062 125.679688 144.789062 C 127.101562 144.789062 128.265625 143.597656 128.265625 142.140625 Z M 128.265625 142.140625 " fill-opacity="1" fill-rule="nonzero"/><path fill="#a9a0f0" d="M 118.890625 152.320312 C 117.464844 152.320312 116.328125 153.484375 116.328125 154.945312 C 116.328125 156.402344 117.464844 157.59375 118.890625 157.59375 C 120.3125 157.59375 121.476562 156.402344 121.476562 154.945312 C 121.476562 153.484375 120.3125 152.320312 118.890625 152.320312 Z M 118.890625 152.320312 " fill-opacity="1" fill-rule="nonzero"/><path fill="#a9a0f0" d="M 131.695312 157.144531 C 130.269531 157.144531 129.136719 158.308594 129.136719 159.765625 C 129.136719 161.226562 130.269531 162.414062 131.695312 162.414062 C 133.121094 162.414062 134.28125 161.226562 134.28125 159.765625 C 134.28125 158.308594 133.121094 157.144531 131.695312 157.144531 Z M 131.695312 157.144531 " fill-opacity="1" fill-rule="nonzero"/><path fill="#a9a0f0" d="M 128.125 169.734375 C 126.699219 169.734375 125.566406 170.898438 125.566406 172.355469 C 125.566406 173.816406 126.699219 175.003906 128.125 175.003906 C 129.550781 175.003906 130.710938 173.816406 130.710938 172.355469 C 130.710938 170.898438 129.550781 169.734375 128.125 169.734375 Z M 128.125 169.734375 " fill-opacity="1" fill-rule="nonzero"/><path fill="#a9a0f0" d="M 145.609375 196.457031 C 144.183594 196.457031 143.046875 197.621094 143.046875 199.078125 C 143.046875 200.539062 144.183594 201.726562 145.609375 201.726562 C 147.03125 201.726562 148.195312 200.539062 148.195312 199.078125 C 148.195312 197.621094 147.03125 196.457031 145.609375 196.457031 Z M 145.609375 196.457031 " fill-opacity="1" fill-rule="nonzero"/><path fill="#a9a0f0" d="M 131.695312 192.390625 C 130.269531 192.390625 129.136719 193.550781 129.136719 195.011719 C 129.136719 196.472656 130.269531 197.660156 131.695312 197.660156 C 133.121094 197.660156 134.28125 196.472656 134.28125 195.011719 C 134.28125 193.550781 133.121094 192.390625 131.695312 192.390625 Z M 131.695312 192.390625 " fill-opacity="1" fill-rule="nonzero"/><path fill="#a9a0f0" d="M 131.695312 204.613281 C 130.269531 204.613281 129.136719 205.773438 129.136719 207.234375 C 129.136719 208.695312 130.269531 209.882812 131.695312 209.882812 C 133.121094 209.882812 134.28125 208.695312 134.28125 207.234375 C 134.28125 205.773438 133.121094 204.613281 131.695312 204.613281 Z M 131.695312 204.613281 " fill-opacity="1" fill-rule="nonzero"/><path fill="#a9a0f0" d="M 117.480469 198.367188 C 116.054688 198.367188 114.917969 199.53125 114.917969 200.988281 C 114.917969 202.449219 116.054688 203.636719 117.480469 203.636719 C 118.90625 203.636719 120.066406 202.449219 120.066406 200.988281 C 120.066406 199.53125 118.90625 198.367188 117.480469 198.367188 Z M 117.480469 198.367188 " fill-opacity="1" fill-rule="nonzero"/><path fill="#a9a0f0" d="M 116.339844 211.316406 C 114.914062 211.316406 113.777344 212.476562 113.777344 213.9375 C 113.777344 215.394531 114.914062 216.585938 116.339844 216.585938 C 117.761719 216.585938 118.925781 215.394531 118.925781 213.9375 C 118.925781 212.476562 117.761719 211.316406 116.339844 211.316406 Z M 116.339844 211.316406 " fill-opacity="1" fill-rule="nonzero"/><path fill="#a9a0f0" d="M 104.363281 203.152344 C 102.9375 203.152344 101.800781 204.316406 101.800781 205.773438 C 101.800781 207.234375 102.9375 208.421875 104.363281 208.421875 C 105.785156 208.421875 106.949219 207.234375 106.949219 205.773438 C 106.949219 204.316406 105.785156 203.152344 104.363281 203.152344 Z M 104.363281 203.152344 " fill-opacity="1" fill-rule="nonzero"/><path fill="#a9a0f0" d="M 103.445312 215.375 C 102.019531 215.375 100.886719 216.539062 100.886719 217.996094 C 100.886719 219.457031 102.019531 220.644531 103.445312 220.644531 C 104.871094 220.644531 106.03125 219.457031 106.03125 217.996094 C 106.03125 216.539062 104.871094 215.375 103.445312 215.375 Z M 103.445312 215.375 " fill-opacity="1" fill-rule="nonzero"/><path fill="#a9a0f0" d="M 93.382812 211.300781 C 93.382812 209.84375 92.222656 208.679688 90.796875 208.679688 C 89.371094 208.679688 88.238281 209.84375 88.238281 211.300781 C 88.238281 212.761719 89.371094 213.949219 90.796875 213.949219 C 92.222656 213.949219 93.382812 212.761719 93.382812 211.300781 Z M 93.382812 211.300781 " fill-opacity="1" fill-rule="nonzero"/><path fill="#a9a0f0" d="M 94.769531 223.511719 C 93.34375 223.511719 92.207031 224.671875 92.207031 226.132812 C 92.207031 227.589844 93.34375 228.78125 94.769531 228.78125 C 96.195312 228.78125 97.355469 227.589844 97.355469 226.132812 C 97.355469 224.671875 96.195312 223.511719 94.769531 223.511719 Z M 94.769531 223.511719 " fill-opacity="1" fill-rule="nonzero"/><path fill="#a9a0f0" d="M 81.265625 216.792969 C 79.839844 216.792969 78.703125 217.957031 78.703125 219.414062 C 78.703125 220.875 79.839844 222.0625 81.265625 222.0625 C 82.6875 222.0625 83.851562 220.875 83.851562 219.414062 C 83.851562 217.957031 82.6875 216.792969 81.265625 216.792969 Z M 81.265625 216.792969 " fill-opacity="1" fill-rule="nonzero"/><path fill="#a9a0f0" d="M 79.878906 228.433594 C 78.453125 228.433594 77.320312 229.59375 77.320312 231.054688 C 77.320312 232.511719 78.453125 233.703125 79.878906 233.703125 C 81.304688 233.703125 82.464844 232.511719 82.464844 231.054688 C 82.464844 229.59375 81.304688 228.433594 79.878906 228.433594 Z M 79.878906 228.433594 " fill-opacity="1" fill-rule="nonzero"/><g clip-path="url(#181e2c67aa)"><path fill="#a9a0f0" d="M 236.664062 208.292969 L 233.933594 207.167969 C 256.558594 191.148438 269.972656 165.1875 269.972656 136.894531 C 269.972656 89.78125 232.535156 51.449219 186.519531 51.449219 C 173.632812 51.449219 161.359375 54.375 150.015625 60.101562 C 138.554688 54.378906 126.273438 51.449219 113.480469 51.449219 C 67.464844 51.449219 30.027344 89.78125 30.027344 136.894531 C 30.027344 165.214844 43.464844 191.191406 66.066406 207.171875 L 63.453125 208.25 C 55.25 211.0625 49.742188 218.949219 49.742188 227.878906 C 49.742188 230.082031 50.121094 232.378906 50.835938 234.523438 C 52.644531 239.898438 56.402344 244.1875 61.414062 246.597656 C 64.109375 247.894531 66.988281 248.546875 69.871094 248.546875 C 72.097656 248.546875 74.332031 248.160156 76.480469 247.371094 C 97.566406 239.820312 132.089844 224.074219 146.613281 216.074219 C 146.613281 216.074219 147.941406 215.335938 150.007812 214.109375 C 152.070312 215.355469 153.386719 216.070312 153.386719 216.070312 C 167.910156 224.074219 202.433594 239.820312 223.503906 247.367188 C 225.664062 248.15625 227.898438 248.546875 230.132812 248.546875 C 233.015625 248.546875 235.890625 247.894531 238.585938 246.597656 C 243.597656 244.1875 247.355469 239.898438 249.167969 234.519531 C 249.878906 232.378906 250.257812 230.082031 250.257812 227.878906 C 250.257812 218.949219 244.75 211.0625 236.664062 208.292969 Z M 265.6875 136.894531 C 265.6875 164.691406 252.082031 190.117188 229.203125 205.21875 L 226.066406 203.925781 C 215.800781 199.6875 200.109375 193.210938 188.285156 188.269531 C 216.808594 187.898438 239.910156 164.0625 239.910156 134.769531 C 239.910156 105.273438 216.449219 81.273438 187.621094 81.273438 C 184.265625 81.273438 180.910156 81.660156 177.617188 82.320312 C 174.339844 78.246094 170.617188 74.371094 166.421875 70.84375 C 164.476562 69.214844 162.347656 67.582031 160.054688 65.957031 C 158.171875 64.691406 156.40625 63.601562 154.683594 62.601562 C 164.652344 58.050781 175.339844 55.734375 186.519531 55.734375 C 230.175781 55.734375 265.6875 92.140625 265.6875 136.894531 Z M 185.542969 179.945312 C 186.152344 178.886719 186.730469 177.816406 187.289062 176.738281 C 187.71875 175.910156 188.140625 175.085938 188.542969 174.246094 C 189.0625 173.15625 189.550781 172.050781 190.023438 170.9375 C 190.390625 170.085938 190.753906 169.234375 191.089844 168.367188 C 191.53125 167.238281 191.925781 166.097656 192.316406 164.949219 C 192.613281 164.078125 192.921875 163.207031 193.191406 162.324219 C 193.546875 161.148438 193.855469 159.957031 194.160156 158.769531 C 194.386719 157.890625 194.632812 157.019531 194.832031 156.136719 C 195.113281 154.882812 195.332031 153.617188 195.558594 152.347656 C 195.710938 151.507812 195.886719 150.675781 196.011719 149.828125 C 196.222656 148.410156 196.359375 146.980469 196.5 145.546875 C 196.570312 144.832031 196.675781 144.125 196.726562 143.40625 C 196.886719 141.25 196.972656 139.078125 196.972656 136.894531 C 196.972656 134.53125 196.867188 132.179688 196.675781 129.835938 C 196.613281 129.046875 196.484375 128.269531 196.398438 127.488281 C 196.230469 125.9375 196.066406 124.386719 195.8125 122.851562 C 195.660156 121.917969 195.445312 121 195.261719 120.074219 C 194.992188 118.707031 194.730469 117.339844 194.398438 115.988281 C 194.152344 115.003906 193.855469 114.035156 193.574219 113.0625 C 193.214844 111.792969 192.859375 110.527344 192.441406 109.28125 C 192.109375 108.28125 191.726562 107.300781 191.355469 106.3125 C 190.910156 105.121094 190.460938 103.933594 189.960938 102.761719 C 189.539062 101.769531 189.078125 100.796875 188.617188 99.820312 C 188.085938 98.695312 187.550781 97.574219 186.96875 96.472656 C 186.460938 95.5 185.917969 94.546875 185.371094 93.597656 C 184.757812 92.53125 184.132812 91.476562 183.472656 90.441406 C 182.882812 89.507812 182.265625 88.59375 181.636719 87.683594 C 181.277344 87.15625 180.953125 86.609375 180.578125 86.089844 C 182.910156 85.738281 185.269531 85.558594 187.621094 85.558594 C 214.089844 85.558594 235.625 107.636719 235.625 134.769531 C 235.625 161.925781 214.089844 184.019531 187.621094 184.019531 C 186.101562 184.019531 184.644531 183.957031 183.226562 183.824219 C 183.546875 183.335938 183.816406 182.820312 184.125 182.320312 C 184.609375 181.535156 185.085938 180.742188 185.542969 179.945312 Z M 144.546875 212.320312 C 130.15625 220.246094 95.941406 235.851562 75.019531 243.34375 C 71.175781 244.746094 67 244.53125 63.269531 242.734375 C 59.304688 240.832031 56.335938 237.429688 54.898438 233.164062 C 54.328125 231.457031 54.027344 229.628906 54.027344 227.878906 C 54.027344 220.78125 58.375 214.523438 64.957031 212.257812 L 75.570312 207.886719 C 88.675781 202.476562 110.640625 193.40625 122.085938 188.558594 C 128.078125 186.0625 129.21875 185.519531 129.566406 185.335938 C 132.5625 184.273438 135.480469 182.917969 138.210938 181.304688 C 140.628906 179.917969 142.867188 178.363281 145.050781 176.566406 C 147.359375 174.707031 149.515625 172.617188 151.644531 170.164062 C 151.839844 169.9375 152.007812 169.6875 152.199219 169.457031 C 152.234375 169.417969 152.289062 169.402344 152.324219 169.359375 C 152.769531 168.820312 153.160156 168.246094 153.582031 167.691406 C 154.011719 167.128906 154.453125 166.578125 154.859375 166 C 155.363281 165.28125 155.820312 164.535156 156.289062 163.792969 C 156.667969 163.191406 157.0625 162.601562 157.417969 161.988281 C 157.839844 161.261719 158.210938 160.507812 158.59375 159.761719 C 158.9375 159.097656 159.296875 158.445312 159.613281 157.773438 C 159.945312 157.054688 160.230469 156.316406 160.53125 155.585938 C 160.832031 154.851562 161.15625 154.128906 161.425781 153.386719 C 161.683594 152.671875 161.890625 151.941406 162.117188 151.21875 C 162.367188 150.4375 162.636719 149.664062 162.847656 148.875 C 163.046875 148.121094 163.191406 147.359375 163.359375 146.597656 C 163.53125 145.816406 163.734375 145.042969 163.871094 144.253906 C 164.027344 143.363281 164.121094 142.460938 164.230469 141.566406 C 164.316406 140.890625 164.4375 140.226562 164.496094 139.546875 C 164.636719 137.964844 164.707031 136.371094 164.707031 134.769531 C 164.707031 133.167969 164.636719 131.574219 164.496094 129.992188 C 164.433594 129.257812 164.304688 128.535156 164.210938 127.808594 C 164.101562 126.96875 164.019531 126.121094 163.875 125.289062 C 163.722656 124.421875 163.503906 123.570312 163.308594 122.710938 C 163.15625 122.035156 163.03125 121.351562 162.851562 120.679688 C 162.617188 119.792969 162.316406 118.925781 162.035156 118.054688 C 161.835938 117.429688 161.660156 116.796875 161.4375 116.179688 C 161.128906 115.335938 160.769531 114.519531 160.421875 113.691406 C 160.15625 113.0625 159.917969 112.429688 159.628906 111.8125 C 159.269531 111.035156 158.855469 110.285156 158.457031 109.527344 C 158.125 108.886719 157.804688 108.238281 157.445312 107.613281 C 157.035156 106.898438 156.578125 106.214844 156.132812 105.523438 C 155.726562 104.882812 155.332031 104.238281 154.894531 103.617188 C 154.421875 102.945312 153.910156 102.304688 153.40625 101.652344 C 153.039062 101.179688 152.703125 100.679688 152.316406 100.21875 C 152.289062 100.179688 152.242188 100.167969 152.210938 100.132812 C 152.015625 99.898438 151.84375 99.644531 151.644531 99.414062 C 144.265625 90.835938 134.597656 85 123.6875 82.539062 C 119.980469 81.699219 116.175781 81.273438 112.378906 81.273438 C 83.550781 81.273438 60.089844 105.273438 60.089844 134.769531 C 60.089844 164.0625 83.195312 187.898438 111.714844 188.269531 C 99.890625 193.210938 84.199219 199.6875 73.933594 203.925781 L 70.796875 205.21875 C 47.941406 190.164062 34.3125 164.71875 34.3125 136.894531 C 34.3125 92.140625 69.824219 55.734375 113.480469 55.734375 C 125.949219 55.734375 137.910156 58.644531 149.058594 64.390625 C 151.753906 65.75 154.566406 67.425781 157.621094 69.484375 C 159.777344 71.011719 161.816406 72.574219 163.671875 74.128906 C 167.980469 77.746094 171.820312 81.722656 175.101562 85.957031 C 186.441406 100.292969 192.6875 118.386719 192.6875 136.894531 C 192.6875 151.894531 188.738281 166.304688 181.125 179.082031 C 180.070312 180.84375 178.953125 182.574219 177.761719 184.261719 L 177.078125 185.226562 C 177.042969 185.269531 177.03125 185.292969 176.988281 185.339844 C 175.195312 187.871094 173.0625 190.449219 170.632812 193.027344 C 169.128906 194.691406 167.636719 196.15625 166.117188 197.441406 C 161.878906 201.386719 157.09375 204.898438 151.65625 208.03125 L 151.523438 208.125 C 150.554688 208.75 149.671875 209.308594 148.910156 209.777344 C 146.285156 211.363281 144.570312 212.308594 144.546875 212.320312 Z M 151.722656 106.59375 C 152.152344 107.222656 152.566406 107.859375 152.964844 108.503906 C 153.320312 109.078125 153.664062 109.660156 153.996094 110.246094 C 154.355469 110.882812 154.691406 111.53125 155.019531 112.183594 C 155.335938 112.804688 155.644531 113.429688 155.933594 114.066406 C 156.226562 114.714844 156.496094 115.375 156.761719 116.03125 C 157.027344 116.691406 157.292969 117.347656 157.53125 118.015625 C 157.765625 118.6875 157.972656 119.371094 158.179688 120.054688 C 158.386719 120.726562 158.601562 121.394531 158.777344 122.078125 C 158.96875 122.808594 159.117188 123.546875 159.277344 124.285156 C 159.414062 124.933594 159.570312 125.574219 159.679688 126.226562 C 159.828125 127.09375 159.925781 127.96875 160.03125 128.84375 C 160.09375 129.382812 160.183594 129.917969 160.230469 130.460938 C 160.355469 131.890625 160.421875 133.328125 160.421875 134.769531 C 160.421875 136.214844 160.355469 137.648438 160.230469 139.078125 C 160.1875 139.609375 160.097656 140.136719 160.035156 140.667969 C 159.929688 141.550781 159.832031 142.4375 159.679688 143.3125 C 159.570312 143.953125 159.417969 144.578125 159.285156 145.210938 C 159.125 145.96875 158.972656 146.726562 158.777344 147.472656 C 158.601562 148.132812 158.394531 148.78125 158.195312 149.433594 C 157.980469 150.140625 157.769531 150.847656 157.523438 151.542969 C 157.292969 152.1875 157.039062 152.824219 156.785156 153.457031 C 156.507812 154.144531 156.226562 154.832031 155.921875 155.511719 C 155.644531 156.121094 155.347656 156.71875 155.046875 157.316406 C 154.703125 157.996094 154.351562 158.671875 153.980469 159.335938 C 153.660156 159.902344 153.328125 160.460938 152.988281 161.015625 C 152.574219 161.691406 152.144531 162.351562 151.699219 163.007812 C 151.347656 163.523438 150.984375 164.039062 150.613281 164.542969 C 150.410156 164.8125 150.191406 165.070312 149.988281 165.339844 C 143.261719 156.660156 139.578125 145.875 139.578125 134.769531 C 139.578125 123.648438 143.265625 112.867188 149.984375 104.226562 C 150.179688 104.484375 150.390625 104.730469 150.582031 104.988281 C 150.972656 105.515625 151.351562 106.050781 151.722656 106.59375 Z M 135.292969 134.769531 C 135.292969 147.125 139.523438 159.109375 147.183594 168.65625 C 145.617188 170.339844 144.035156 171.886719 142.347656 173.246094 C 140.328125 174.902344 138.28125 176.324219 136.058594 177.601562 C 133.46875 179.128906 130.734375 180.398438 127.921875 181.386719 C 125.816406 182.128906 123.660156 182.675781 121.480469 183.097656 C 112.234375 169.507812 107.3125 153.578125 107.3125 136.894531 C 107.3125 118.800781 113.28125 101.183594 124.082031 87.074219 C 132.96875 89.351562 140.894531 94.097656 147.1875 100.910156 C 139.523438 110.417969 135.292969 122.394531 135.292969 134.769531 Z M 103.027344 136.894531 C 103.027344 153.828125 107.867188 170.011719 116.835938 183.796875 C 115.394531 183.933594 113.921875 184.019531 112.378906 184.019531 C 85.910156 184.019531 64.375 161.925781 64.375 134.769531 C 64.375 107.636719 85.910156 85.558594 112.378906 85.558594 C 114.746094 85.558594 117.109375 85.804688 119.457031 86.164062 C 108.878906 100.722656 103.027344 118.570312 103.027344 136.894531 Z M 245.105469 233.15625 C 243.664062 237.429688 240.695312 240.832031 236.730469 242.734375 C 232.996094 244.53125 228.824219 244.75 224.964844 243.339844 C 204.058594 235.851562 169.84375 220.246094 155.433594 212.308594 C 155.417969 212.300781 154.921875 212.027344 154.09375 211.550781 L 154.140625 211.519531 C 159.582031 208.398438 164.589844 204.71875 168.964844 200.648438 C 170.570312 199.285156 172.160156 197.730469 173.78125 195.929688 C 175.921875 193.660156 177.796875 191.382812 179.425781 189.195312 C 191.214844 194.175781 211.875 202.703125 224.429688 207.886719 L 235.160156 212.300781 C 241.625 214.523438 245.972656 220.78125 245.972656 227.878906 C 245.972656 229.628906 245.671875 231.457031 245.105469 233.15625 Z M 245.105469 233.15625 " fill-opacity="1" fill-rule="nonzero"/></g></svg>