<svg xmlns="http://www.w3.org/2000/svg" xmlns:xlink="http://www.w3.org/1999/xlink" width="400" zoomAndPan="magnify" viewBox="0 0 300 299.999988" height="400" preserveAspectRatio="xMidYMid meet" version="1.0"><path fill="currentColor" d="M 89.394531 254.5 C 81.832031 255.960938 74.238281 256.125 66.617188 254.988281 C 59.691406 254.101562 52.664062 252.632812 46.402344 249.402344 C 46.078125 249.238281 46.3125 248.753906 46.644531 248.832031 C 60.679688 252.136719 74.984375 252.359375 89.277344 253.609375 C 89.75 253.65625 89.925781 254.386719 89.394531 254.5 Z M 152.210938 85.949219 C 151.722656 85.929688 151.242188 85.976562 150.769531 86.089844 C 150.574219 86.152344 150.472656 86.285156 150.472656 86.492188 C 150.472656 86.699219 150.574219 86.832031 150.769531 86.890625 C 151.179688 86.996094 151.59375 87.046875 152.019531 87.039062 C 152.496094 87.003906 152.960938 86.902344 153.410156 86.742188 C 153.539062 86.703125 153.601562 86.621094 153.601562 86.492188 C 153.601562 86.359375 153.539062 86.277344 153.410156 86.242188 C 153.023438 86.089844 152.625 85.992188 152.210938 85.949219 Z M 101.378906 145.535156 C 104.480469 147.320312 108.160156 149.460938 111.867188 149.324219 C 112.1875 149.3125 112.433594 148.875 112.148438 148.636719 C 109.410156 146.3125 105.800781 145.015625 102.640625 143.375 C 99.71875 141.851562 96.710938 139.464844 93.492188 138.667969 C 93.316406 138.621094 93.175781 138.671875 93.0625 138.816406 C 92.953125 138.960938 92.941406 139.109375 93.03125 139.269531 C 94.832031 142.082031 98.570312 143.921875 101.378906 145.535156 Z M 184.910156 225.085938 C 184.117188 225.257812 183.316406 225.324219 182.507812 225.289062 C 182.390625 225.292969 182.292969 225.339844 182.210938 225.421875 C 182.128906 225.507812 182.089844 225.605469 182.089844 225.722656 C 182.089844 225.839844 182.128906 225.941406 182.210938 226.027344 C 182.292969 226.109375 182.390625 226.15625 182.507812 226.15625 C 182.960938 226.183594 183.410156 226.164062 183.855469 226.09375 C 184.304688 225.980469 184.714844 225.789062 185.089844 225.515625 C 185.3125 225.382812 185.167969 225 184.910156 225.085938 Z M 97.078125 147.097656 C 96.917969 147.101562 96.785156 147.164062 96.675781 147.277344 C 96.566406 147.390625 96.511719 147.527344 96.511719 147.6875 C 96.511719 147.84375 96.566406 147.980469 96.675781 148.097656 C 96.785156 148.210938 96.917969 148.269531 97.078125 148.277344 C 97.8125 148.335938 98.523438 148.242188 99.21875 147.996094 C 99.367188 147.949219 99.445312 147.847656 99.445312 147.6875 C 99.445312 147.53125 99.367188 147.429688 99.21875 147.382812 C 98.523438 147.132812 97.8125 147.039062 97.078125 147.097656 Z M 107.753906 253.628906 C 105.367188 253.390625 102.996094 253.519531 100.648438 254.023438 C 100.425781 254.089844 100.316406 254.242188 100.316406 254.472656 C 100.316406 254.707031 100.425781 254.855469 100.648438 254.925781 C 101.84375 255.261719 103.058594 255.390625 104.300781 255.316406 C 105.539062 255.238281 106.730469 254.960938 107.871094 254.480469 C 107.972656 254.449219 108.054688 254.386719 108.109375 254.296875 C 108.167969 254.207031 108.1875 254.109375 108.175781 254.003906 C 108.160156 253.898438 108.113281 253.8125 108.035156 253.742188 C 107.953125 253.667969 107.863281 253.632812 107.753906 253.628906 Z M 200.714844 89.460938 C 202.089844 89.179688 203.335938 88.617188 204.453125 87.777344 C 205.574219 86.933594 206.460938 85.894531 207.113281 84.65625 C 207.164062 84.5625 207.179688 84.460938 207.15625 84.359375 C 207.136719 84.253906 207.082031 84.167969 206.996094 84.101562 C 206.914062 84.039062 206.816406 84.007812 206.710938 84.011719 C 206.601562 84.019531 206.511719 84.058594 206.433594 84.132812 C 204.527344 85.769531 202.3125 87 200.316406 88.503906 C 200.207031 88.570312 200.132812 88.667969 200.09375 88.789062 C 200.054688 88.914062 200.058594 89.03125 200.109375 89.152344 C 200.160156 89.269531 200.242188 89.359375 200.355469 89.417969 C 200.472656 89.476562 200.589844 89.488281 200.714844 89.460938 Z M 234.460938 215.578125 C 234.507812 215.65625 234.574219 215.695312 234.667969 215.695312 C 234.757812 215.695312 234.828125 215.65625 234.875 215.578125 C 235.140625 215 235.308594 214.398438 235.378906 213.765625 C 235.511719 213.191406 235.914062 212.265625 235.726562 211.695312 C 235.695312 211.570312 235.613281 211.511719 235.488281 211.511719 C 234.695312 211.605469 234.574219 212.664062 234.4375 213.320312 C 234.195312 214.074219 234.199219 214.828125 234.460938 215.578125 Z M 234.28125 120.289062 C 234.882812 118.632812 235.019531 116.9375 234.6875 115.207031 C 234.65625 115.054688 234.582031 114.925781 234.464844 114.820312 L 234.464844 114.816406 C 234.417969 114.773438 234.363281 114.734375 234.304688 114.699219 C 234.28125 114.6875 234.261719 114.675781 234.238281 114.664062 C 234.191406 114.644531 234.148438 114.625 234.101562 114.613281 C 234.082031 114.605469 234.058594 114.597656 234.039062 114.59375 C 233.976562 114.582031 233.910156 114.574219 233.84375 114.574219 L 233.839844 114.574219 C 233.691406 114.570312 233.550781 114.605469 233.421875 114.675781 L 233.410156 114.679688 L 233.40625 114.683594 C 233.398438 114.6875 233.390625 114.691406 233.386719 114.695312 C 233.183594 114.808594 233.054688 114.980469 233 115.207031 C 232.671875 116.9375 232.808594 118.632812 233.410156 120.289062 C 233.476562 120.503906 233.621094 120.609375 233.84375 120.609375 C 234.070312 120.609375 234.214844 120.503906 234.28125 120.289062 Z M 234.171875 126.738281 C 234.167969 126.652344 234.136719 126.578125 234.074219 126.515625 C 234.007812 126.457031 233.933594 126.425781 233.847656 126.425781 C 233.757812 126.425781 233.683594 126.457031 233.621094 126.515625 C 233.558594 126.578125 233.523438 126.652344 233.519531 126.738281 C 232.632812 134.21875 232.898438 141.960938 232.9375 149.484375 C 232.972656 156.996094 233.488281 164.472656 234.472656 171.917969 C 234.503906 172.15625 234.867188 172.175781 234.859375 171.917969 C 234.648438 164.441406 234.714844 156.960938 234.652344 149.484375 C 234.585938 141.953125 235.054688 134.230469 234.171875 126.738281 Z M 134.820312 75.152344 C 140.261719 76.957031 146.773438 76.429688 152.421875 76.273438 C 158.738281 76.09375 165.136719 76.003906 171.417969 75.277344 C 171.714844 75.246094 171.84375 74.773438 171.496094 74.710938 C 165.59375 73.675781 159.503906 74.097656 153.550781 74.320312 C 147.398438 74.550781 140.96875 74.078125 134.863281 74.820312 C 134.769531 74.824219 134.714844 74.875 134.703125 74.96875 C 134.691406 75.0625 134.730469 75.125 134.820312 75.152344 Z M 157.210938 81.441406 C 157.261719 81.410156 157.304688 81.367188 157.332031 81.316406 C 157.359375 81.265625 157.375 81.210938 157.375 81.148438 C 157.375 81.089844 157.359375 81.035156 157.332031 80.984375 C 157.304688 80.929688 157.261719 80.890625 157.210938 80.859375 C 155.882812 79.917969 153.636719 80.25 152.125 80.3125 C 151.191406 80.351562 149.34375 80.234375 148.707031 81.082031 C 148.683594 81.128906 148.683594 81.175781 148.707031 81.222656 C 149.292969 82.003906 150.878906 81.910156 151.746094 81.972656 C 153.332031 82.082031 155.824219 82.429688 157.210938 81.441406 Z M 230.832031 254.726562 C 229.886719 252.359375 229.273438 249.90625 228.988281 247.375 C 228.703125 244.839844 228.753906 242.3125 229.148438 239.792969 C 229.835938 234.460938 231.925781 229.597656 232.871094 224.378906 C 232.9375 224.109375 232.90625 223.851562 232.78125 223.605469 C 232.660156 223.359375 232.46875 223.183594 232.214844 223.078125 C 231.960938 222.96875 231.703125 222.957031 231.441406 223.042969 C 231.175781 223.125 230.972656 223.28125 230.828125 223.515625 C 227.644531 227.945312 226.679688 234.460938 226.429688 239.792969 C 226.25 242.476562 226.488281 245.117188 227.148438 247.722656 C 227.808594 250.328125 228.855469 252.769531 230.292969 255.039062 C 230.335938 255.113281 230.398438 255.15625 230.480469 255.175781 C 230.5625 255.195312 230.640625 255.1875 230.710938 255.144531 C 230.785156 255.101562 230.832031 255.039062 230.855469 254.960938 C 230.878906 254.878906 230.871094 254.800781 230.832031 254.726562 Z M 205.027344 189.191406 C 202.117188 189.878906 199.175781 190.464844 196.214844 190.992188 C 192.773438 204.566406 172.925781 214.40625 161.214844 218.996094 C 159.1875 219.789062 157.128906 220.535156 155.042969 221.238281 C 159.738281 222.898438 164.546875 224.132812 169.464844 224.941406 C 169.910156 225.011719 169.78125 225.683594 169.363281 225.699219 C 162.871094 225.972656 156.589844 224.957031 150.515625 222.660156 C 144.558594 224.433594 138.488281 225.644531 132.304688 226.292969 C 121.929688 227.320312 110.292969 225.675781 106.273438 214.632812 C 106.15625 214.363281 106.132812 214.082031 106.207031 213.796875 C 106.285156 213.511719 106.441406 213.277344 106.679688 213.101562 C 106.65625 212.929688 106.65625 212.757812 106.6875 212.585938 C 107.710938 206.511719 109.777344 200.820312 112.894531 195.507812 C 106.664062 195.039062 100.371094 194.949219 94.316406 196.558594 C 94.207031 196.585938 94.105469 196.570312 94.003906 196.511719 C 93.90625 196.453125 93.84375 196.371094 93.8125 196.261719 C 93.78125 196.152344 93.792969 196.046875 93.847656 195.949219 C 93.898438 195.847656 93.980469 195.78125 94.089844 195.746094 C 100.285156 193.511719 107.179688 193.683594 113.789062 194.027344 C 125.144531 175.945312 147.261719 165.070312 168.855469 166.679688 C 178.269531 165.007812 188.566406 168.453125 193.664062 176.847656 C 194.730469 178.484375 195.523438 180.242188 196.042969 182.125 C 196.5625 184.007812 196.785156 185.925781 196.707031 187.878906 C 199.25 187.484375 201.792969 187.09375 204.339844 186.6875 C 205.957031 186.429688 206.691406 188.800781 205.027344 189.191406 Z M 110.113281 214.007812 C 113.550781 207.304688 118.074219 201.433594 123.679688 196.398438 C 122.089844 196.300781 120.503906 196.1875 118.910156 196.039062 C 118.0625 195.960938 117.214844 195.878906 116.359375 195.800781 C 112.957031 201.222656 110.722656 207.089844 109.65625 213.402344 C 109.632812 213.523438 109.601562 213.636719 109.554688 213.746094 C 109.738281 213.835938 109.921875 213.925781 110.113281 214.007812 Z M 109.605469 214.773438 C 109.625 214.816406 109.644531 214.863281 109.667969 214.910156 C 109.679688 214.886719 109.691406 214.859375 109.703125 214.835938 C 109.667969 214.8125 109.636719 214.792969 109.605469 214.773438 Z M 117.382812 194.21875 C 117.554688 194.226562 117.730469 194.238281 117.902344 194.242188 C 120.570312 194.375 123.226562 194.441406 125.875 194.464844 C 130.941406 190.226562 136.414062 186.597656 142.289062 183.582031 C 149.34375 179.832031 156.738281 176.960938 164.476562 174.96875 C 170.992188 173.367188 178.425781 171.78125 185.320312 172.570312 C 182.972656 171.152344 180.449219 170.195312 177.753906 169.695312 C 175.054688 169.195312 172.355469 169.183594 169.65625 169.664062 C 169.429688 169.753906 169.195312 169.789062 168.953125 169.765625 C 148.878906 168.238281 128.449219 177.867188 117.382812 194.21875 Z M 126.820312 208.6875 C 130.875 210.339844 134.796875 212.289062 138.726562 214.222656 C 144.476562 212.707031 150.066406 210.734375 155.492188 208.300781 C 162.496094 205.226562 169.246094 201.664062 175.738281 197.621094 C 178.109375 196.140625 180.585938 194.679688 182.894531 193.039062 C 180.492188 193.363281 178.089844 193.683594 175.699219 193.996094 C 165.835938 195.308594 155.902344 196.105469 145.960938 196.492188 C 139.46875 196.746094 133.046875 196.832031 126.609375 196.554688 C 120.195312 201.453125 114.933594 207.375 110.824219 214.324219 C 117.152344 216.925781 124.707031 216.847656 131.289062 215.796875 C 132.535156 215.597656 133.769531 215.355469 135.007812 215.09375 C 132.0625 213.417969 129.175781 211.65625 126.332031 209.839844 C 125.757812 209.472656 126.128906 208.40625 126.820312 208.6875 Z M 187.367188 189.3125 C 188.511719 188.222656 189.453125 186.984375 190.199219 185.59375 C 191.03125 183.96875 191.210938 182 192.132812 180.476562 C 191.503906 179.109375 190.730469 177.828125 189.816406 176.636719 C 181.449219 174.085938 171.914062 175.894531 163.625 178.101562 C 156.367188 180.011719 149.414062 182.707031 142.765625 186.183594 C 138.09375 188.621094 133.625 191.382812 129.355469 194.46875 C 134.480469 194.433594 139.59375 194.238281 144.761719 193.949219 C 159.09375 193.152344 173.234375 191.398438 187.367188 189.3125 Z M 110.070312 215.714844 C 115.84375 226.265625 131.082031 223.914062 140.859375 221.792969 C 142.492188 221.441406 144.109375 221.050781 145.71875 220.644531 C 143.371094 219.566406 141.054688 218.414062 138.773438 217.1875 C 129 219.652344 118.761719 220.179688 110.332031 215.21875 C 110.242188 215.382812 110.160156 215.550781 110.070312 215.714844 Z M 147.507812 218.328125 C 148.394531 218.703125 149.289062 219.074219 150.195312 219.433594 C 156.679688 217.597656 162.945312 215.191406 168.996094 212.21875 C 177.699219 207.90625 189.523438 201.511719 192.824219 191.570312 C 191.367188 191.808594 189.90625 192.035156 188.445312 192.25 C 185.417969 194.804688 182.199219 197.089844 178.789062 199.097656 C 171.570312 203.710938 164.023438 207.703125 156.152344 211.078125 C 151.734375 212.996094 147.230469 214.675781 142.636719 216.113281 C 144.246094 216.878906 145.867188 217.625 147.507812 218.328125 Z M 193.523438 188.375 C 193.621094 187.433594 193.621094 186.488281 193.527344 185.542969 C 193.023438 186.644531 192.414062 187.6875 191.699219 188.664062 C 192.300781 188.570312 192.914062 188.46875 193.523438 188.375 Z M 149.828125 103.167969 L 137.917969 103.167969 C 137.785156 103.171875 137.65625 103.1875 137.527344 103.222656 C 137.402344 103.257812 137.28125 103.308594 137.167969 103.375 C 137.054688 103.441406 136.949219 103.523438 136.855469 103.613281 C 136.761719 103.707031 136.683594 103.808594 136.617188 103.921875 C 136.546875 104.035156 136.496094 104.15625 136.460938 104.285156 C 136.425781 104.410156 136.40625 104.539062 136.402344 104.671875 C 136.398438 104.804688 136.414062 104.933594 136.445312 105.0625 C 136.472656 105.1875 136.519531 105.3125 136.582031 105.429688 C 135.570312 115.300781 132.265625 135.097656 148.25 131.441406 C 150.1875 130.996094 149.367188 128.027344 147.433594 128.46875 C 144.914062 129.042969 142.320312 129.203125 140.460938 127.160156 C 138.929688 125.480469 138.695312 122.632812 138.5625 120.5 C 138.535156 120.089844 138.53125 119.679688 138.519531 119.269531 C 141.976562 119.898438 145.828125 119.050781 149.257812 119.011719 C 149.457031 119.007812 149.648438 118.964844 149.832031 118.882812 C 150.015625 118.800781 150.175781 118.6875 150.316406 118.542969 C 150.457031 118.402344 150.5625 118.234375 150.636719 118.050781 C 150.710938 117.863281 150.75 117.671875 150.75 117.472656 C 150.75 117.273438 150.710938 117.078125 150.636719 116.894531 C 150.5625 116.707031 150.457031 116.542969 150.316406 116.398438 C 150.175781 116.257812 150.015625 116.144531 149.832031 116.0625 C 149.648438 115.980469 149.457031 115.9375 149.257812 115.929688 C 145.894531 115.96875 141.902344 116.953125 138.5625 116.128906 C 138.726562 112.828125 139.210938 109.53125 139.578125 106.246094 L 149.828125 106.246094 C 150.027344 106.242188 150.21875 106.195312 150.402344 106.117188 C 150.582031 106.035156 150.742188 105.921875 150.882812 105.777344 C 151.019531 105.636719 151.128906 105.46875 151.203125 105.285156 C 151.277344 105.101562 151.316406 104.90625 151.316406 104.707031 C 151.316406 104.507812 151.277344 104.316406 151.203125 104.132812 C 151.128906 103.945312 151.019531 103.78125 150.882812 103.636719 C 150.742188 103.496094 150.582031 103.382812 150.402344 103.300781 C 150.21875 103.21875 150.027344 103.175781 149.828125 103.167969 Z M 167.980469 103.167969 L 156.066406 103.167969 C 155.9375 103.171875 155.808594 103.191406 155.679688 103.226562 C 155.554688 103.261719 155.433594 103.3125 155.320312 103.378906 C 155.207031 103.445312 155.101562 103.523438 155.007812 103.617188 C 154.917969 103.707031 154.835938 103.8125 154.769531 103.925781 C 154.703125 104.039062 154.652344 104.160156 154.617188 104.285156 C 154.578125 104.410156 154.5625 104.542969 154.558594 104.671875 C 154.554688 104.804688 154.570312 104.933594 154.601562 105.0625 C 154.632812 105.191406 154.679688 105.3125 154.738281 105.429688 C 153.722656 115.300781 150.425781 135.097656 166.40625 131.441406 C 168.34375 130.996094 167.523438 128.027344 165.589844 128.46875 C 163.074219 129.042969 160.480469 129.203125 158.617188 127.160156 C 157.082031 125.480469 156.855469 122.632812 156.714844 120.5 C 156.691406 120.089844 156.6875 119.679688 156.675781 119.269531 C 160.132812 119.898438 163.988281 119.050781 167.417969 119.011719 C 167.617188 119.007812 167.808594 118.960938 167.988281 118.882812 C 168.171875 118.800781 168.332031 118.6875 168.472656 118.542969 C 168.613281 118.398438 168.71875 118.234375 168.792969 118.050781 C 168.867188 117.863281 168.90625 117.671875 168.90625 117.472656 C 168.90625 117.273438 168.867188 117.078125 168.792969 116.894531 C 168.71875 116.710938 168.613281 116.542969 168.472656 116.402344 C 168.332031 116.257812 168.171875 116.144531 167.988281 116.0625 C 167.808594 115.980469 167.617188 115.9375 167.417969 115.929688 C 164.050781 115.96875 160.058594 116.953125 156.714844 116.128906 C 156.882812 112.828125 157.371094 109.53125 157.726562 106.246094 L 167.980469 106.246094 C 168.179688 106.242188 168.371094 106.199219 168.554688 106.117188 C 168.738281 106.035156 168.898438 105.921875 169.039062 105.78125 C 169.179688 105.636719 169.285156 105.472656 169.359375 105.285156 C 169.433594 105.101562 169.472656 104.90625 169.472656 104.707031 C 169.472656 104.507812 169.433594 104.316406 169.359375 104.128906 C 169.285156 103.945312 169.179688 103.78125 169.039062 103.636719 C 168.898438 103.492188 168.738281 103.378906 168.554688 103.300781 C 168.371094 103.21875 168.179688 103.175781 167.980469 103.167969 Z M 123.40625 115.523438 C 120.714844 115.136719 119.363281 114.1875 119.972656 111.191406 C 120.640625 107.886719 125.109375 106.523438 127.984375 106.816406 C 129.960938 107.015625 129.9375 103.933594 127.984375 103.734375 C 126.925781 103.621094 125.871094 103.667969 124.824219 103.867188 C 123.78125 104.066406 122.785156 104.417969 121.84375 104.914062 C 120.902344 105.410156 120.050781 106.03125 119.292969 106.78125 C 118.535156 107.53125 117.90625 108.375 117.398438 109.3125 C 115.921875 112.296875 116.671875 116.601562 120.011719 117.867188 C 121.609375 118.347656 123.238281 118.675781 124.894531 118.851562 C 126.179688 119.109375 127.351562 119.625 128.410156 120.398438 C 129.472656 121.171875 130.320312 122.128906 130.957031 123.277344 C 132.710938 126.230469 129.539062 128.222656 127.101562 128.992188 C 124.015625 129.96875 120.273438 127.988281 118.292969 125.746094 C 116.976562 124.253906 114.804688 126.441406 116.117188 127.925781 C 116.515625 128.390625 116.953125 128.828125 117.421875 129.230469 C 117.886719 129.632812 118.382812 129.996094 118.910156 130.320312 C 119.433594 130.644531 119.976562 130.929688 120.546875 131.171875 C 121.113281 131.414062 121.695312 131.613281 122.292969 131.765625 C 122.890625 131.917969 123.496094 132.023438 124.113281 132.082031 C 124.726562 132.144531 125.339844 132.15625 125.957031 132.121094 C 126.574219 132.085938 127.183594 132.007812 127.785156 131.878906 C 128.390625 131.75 128.980469 131.578125 129.558594 131.359375 C 133.714844 129.628906 135.582031 125.847656 133.613281 121.722656 C 131.6875 117.679688 127.484375 116.117188 123.40625 115.523438 Z M 191.132812 60.09375 C 188.917969 60.019531 186.75 59.421875 184.527344 59.320312 C 183.082031 59.25 180.585938 58.859375 179.457031 60.03125 C 179.367188 60.121094 179.355469 60.222656 179.417969 60.332031 C 180.179688 61.738281 182.445312 61.804688 183.835938 61.972656 C 186.371094 62.164062 188.847656 61.878906 191.273438 61.121094 C 191.394531 61.082031 191.492188 61.007812 191.558594 60.902344 C 191.628906 60.792969 191.65625 60.675781 191.636719 60.546875 C 191.621094 60.421875 191.566406 60.3125 191.46875 60.226562 C 191.375 60.140625 191.261719 60.097656 191.132812 60.09375 Z M 214.023438 119.734375 C 214.03125 119.8125 214.035156 119.886719 214.03125 119.964844 L 214.03125 120 C 214.03125 120.066406 214.023438 120.136719 214.019531 120.203125 C 213.71875 129.421875 205.984375 136.164062 198.394531 140.226562 C 186.34375 146.667969 172.347656 149.390625 158.792969 149.929688 C 144.210938 150.507812 128.886719 148.992188 115.269531 143.453125 C 106.753906 140 96.542969 134.453125 93.503906 125.058594 C 90.34375 115.226562 97.167969 106.660156 105.078125 101.617188 C 117.617188 93.632812 133.246094 90.582031 147.90625 89.996094 C 163.671875 89.375 180.402344 91.199219 194.851562 97.933594 C 203.660156 102.042969 213.6875 109.035156 214.023438 119.734375 Z M 199.441406 103.886719 C 191.105469 98.757812 181.445312 95.910156 171.832031 94.390625 C 159.847656 92.460938 147.855469 92.410156 135.855469 94.238281 C 126.210938 95.757812 116.285156 98.332031 107.882812 103.496094 C 99.257812 108.808594 91.535156 118.445312 98.617188 128.308594 C 106.464844 139.230469 122.308594 143.550781 134.863281 145.535156 C 151.84375 148.21875 170.167969 147.539062 186.539062 141.976562 C 196.203125 138.691406 210.722656 132.050781 210.949219 119.964844 C 210.816406 112.839844 205.136719 107.390625 199.441406 103.886719 Z M 211.792969 133.851562 C 209.421875 136.863281 206.800781 139.648438 203.933594 142.195312 C 200.726562 144.84375 197.175781 146.5 193.46875 148.296875 C 193.257812 148.402344 193.355469 148.789062 193.59375 148.757812 C 201.246094 147.804688 210.074219 141.742188 212.464844 134.242188 C 212.519531 134.046875 212.457031 133.894531 212.277344 133.792969 C 212.101562 133.6875 211.941406 133.707031 211.792969 133.851562 Z M 173.472656 61.140625 C 161.746094 62.425781 149.730469 60.171875 138.070312 61.960938 C 137.921875 62.007812 137.847656 62.105469 137.847656 62.257812 C 137.847656 62.414062 137.921875 62.511719 138.070312 62.554688 C 143.957031 63.546875 149.882812 63.96875 155.847656 63.828125 C 161.816406 63.6875 167.714844 62.984375 173.550781 61.71875 C 173.871094 61.648438 173.804688 61.105469 173.472656 61.140625 Z M 188.929688 105.605469 C 190.277344 107.234375 191.292969 109.050781 191.96875 111.054688 C 192.644531 113.058594 192.941406 115.121094 192.855469 117.234375 C 192.769531 121.085938 191.945312 125.816406 188.925781 128.550781 C 185.21875 131.902344 179.984375 131.355469 175.359375 130.929688 C 175.21875 130.914062 175.085938 130.878906 174.957031 130.832031 C 174.828125 130.78125 174.703125 130.714844 174.589844 130.636719 C 174.476562 130.558594 174.375 130.464844 174.285156 130.359375 C 174.195312 130.253906 174.117188 130.140625 174.054688 130.015625 C 173.992188 129.890625 173.945312 129.761719 173.917969 129.625 C 173.886719 129.492188 173.875 129.351562 173.878906 129.214844 C 173.882812 129.074219 173.902344 128.9375 173.941406 128.804688 C 173.980469 128.671875 174.03125 128.546875 174.101562 128.425781 L 174.101562 103.855469 C 174.105469 103.726562 174.121094 103.597656 174.15625 103.46875 C 174.191406 103.34375 174.242188 103.222656 174.308594 103.109375 C 174.375 102.996094 174.453125 102.894531 174.546875 102.800781 C 174.636719 102.707031 174.742188 102.628906 174.851562 102.5625 C 174.964844 102.496094 175.085938 102.441406 175.210938 102.40625 C 175.335938 102.371094 175.464844 102.351562 175.597656 102.347656 C 175.726562 102.34375 175.855469 102.355469 175.984375 102.386719 C 176.113281 102.417969 176.234375 102.460938 176.351562 102.523438 C 180.851562 102.042969 185.632812 101.863281 188.929688 105.605469 Z M 189.773438 117.234375 C 189.722656 114.128906 189.171875 110.039062 186.75 107.78125 C 183.871094 105.097656 180.703125 105.144531 177.179688 105.511719 L 177.179688 128.039062 C 180.449219 128.386719 184.546875 128.691406 186.746094 126.371094 C 188.996094 123.988281 189.820312 120.445312 189.773438 117.234375 Z M 256.992188 219.882812 C 257.605469 220.117188 258.28125 220.132812 258.808594 220.296875 C 259.195312 220.414062 259.367188 219.890625 259.070312 219.683594 C 258.621094 219.363281 258.203125 218.9375 257.6875 218.621094 C 257.117188 218.289062 256.515625 218.007812 255.894531 217.78125 C 255.742188 217.742188 255.59375 217.753906 255.449219 217.816406 C 255.304688 217.875 255.195312 217.972656 255.117188 218.109375 C 255.039062 218.242188 255.007812 218.390625 255.027344 218.542969 C 255.042969 218.699219 255.109375 218.832031 255.214844 218.945312 C 255.757812 219.355469 256.351562 219.667969 256.992188 219.882812 Z M 259.5 226.632812 C 256.8125 225.488281 254.011719 224.824219 251.097656 224.636719 C 250.40625 224.574219 250.207031 225.574219 250.757812 225.894531 C 252.085938 226.589844 253.488281 227.0625 254.96875 227.304688 C 256.449219 227.546875 257.929688 227.550781 259.414062 227.3125 C 259.570312 227.269531 259.65625 227.164062 259.679688 227.003906 C 259.699219 226.839844 259.640625 226.71875 259.5 226.632812 Z M 251.105469 141.9375 C 251.265625 136.777344 250.9375 131.652344 250.121094 126.558594 C 250.074219 126.410156 249.992188 126.289062 249.867188 126.199219 C 249.742188 126.105469 249.605469 126.058594 249.449219 126.058594 C 249.296875 126.058594 249.15625 126.105469 249.035156 126.199219 C 248.910156 126.289062 248.824219 126.410156 248.78125 126.558594 C 248.058594 131.679688 249.304688 137.035156 250.28125 142.046875 C 250.371094 142.53125 251.09375 142.394531 251.105469 141.9375 Z M 246.320312 52.066406 C 246.359375 52.195312 246.445312 52.257812 246.582031 52.257812 C 246.71875 52.257812 246.804688 52.195312 246.84375 52.066406 C 247.089844 50.789062 247.253906 49.503906 247.339844 48.207031 C 247.359375 47.535156 247.183594 46.863281 247.191406 46.242188 C 247.1875 46.128906 247.132812 46.066406 247.019531 46.050781 C 246.90625 46.035156 246.835938 46.082031 246.804688 46.191406 C 246.675781 46.785156 246.375 47.394531 246.28125 48.0625 C 246.09375 49.398438 246.105469 50.734375 246.320312 52.066406 Z M 224.683594 178.4375 C 223.679688 178.644531 222.714844 178.96875 221.789062 179.414062 C 220.71875 180.007812 219.753906 180.738281 218.898438 181.613281 C 218.757812 181.757812 218.683594 181.929688 218.675781 182.132812 C 218.664062 182.332031 218.722656 182.511719 218.84375 182.667969 C 218.964844 182.828125 219.125 182.929688 219.320312 182.96875 C 219.515625 183.011719 219.703125 182.984375 219.878906 182.890625 C 220.886719 182.367188 221.867188 181.792969 222.816406 181.167969 C 223.628906 180.566406 224.40625 179.925781 225.152344 179.242188 C 225.546875 178.929688 225.121094 178.320312 224.683594 178.4375 Z M 209.808594 142.546875 C 209.074219 143.230469 208.375 143.953125 207.722656 144.71875 C 207.113281 145.441406 206.640625 146.261719 206.058594 147.011719 C 205.992188 147.085938 205.957031 147.175781 205.960938 147.277344 C 205.960938 147.378906 206 147.464844 206.070312 147.539062 C 206.144531 147.609375 206.230469 147.644531 206.332031 147.648438 C 206.433594 147.648438 206.523438 147.613281 206.597656 147.546875 C 208.175781 146.277344 209.40625 144.734375 210.285156 142.910156 C 210.367188 142.757812 210.339844 142.632812 210.203125 142.527344 C 210.066406 142.421875 209.9375 142.429688 209.808594 142.546875 Z M 243.359375 59.921875 C 240.679688 60.558594 237.964844 60.921875 235.214844 61.015625 C 230.382812 61.257812 225.515625 61.0625 220.703125 61.621094 C 220.558594 61.628906 220.484375 61.703125 220.484375 61.851562 C 220.484375 62 220.558594 62.074219 220.703125 62.078125 C 225.84375 62.773438 231.007812 63.097656 236.195312 63.054688 C 239.828125 62.988281 245.789062 63.285156 248.210938 60.03125 C 248.289062 59.898438 248.296875 59.761719 248.242188 59.621094 C 248.183594 59.480469 248.082031 59.390625 247.933594 59.347656 C 246.371094 59.234375 244.84375 59.425781 243.359375 59.921875 Z M 262.121094 249.550781 C 258.683594 253.855469 254.695312 257.570312 250.15625 260.691406 C 249.875 260.886719 249.582031 261.097656 249.265625 261.328125 C 247.605469 262.535156 245.546875 264.03125 243.386719 264.175781 C 241.429688 264.3125 239.445312 264.316406 237.535156 264.316406 C 236.796875 264.320312 236.0625 264.320312 235.324219 264.328125 C 220.355469 264.507812 205.257812 264.589844 190.660156 264.675781 C 163.128906 264.839844 133.773438 264.996094 104.269531 264.996094 C 92.296875 264.996094 81.199219 264.976562 70.34375 264.921875 C 63.9375 264.890625 57.65625 264.851562 51.265625 264.746094 C 50.734375 264.738281 50.195312 264.738281 49.652344 264.738281 L 48.234375 264.738281 C 44.636719 264.738281 41.148438 264.632812 38.023438 263.371094 C 32 260.945312 29.988281 254.648438 32.054688 244.660156 C 34.390625 233.410156 38.707031 222.441406 42.878906 211.839844 C 43.984375 209.039062 45.125 206.144531 46.195312 203.316406 C 55.960938 177.597656 56.777344 149.589844 56.777344 123.105469 C 56.777344 118.480469 56.726562 113.769531 56.675781 109.21875 C 56.59375 102.082031 56.515625 94.707031 56.628906 87.441406 C 56.648438 86.453125 56.644531 85.410156 56.632812 84.304688 C 56.621094 80.128906 56.597656 75.472656 57.675781 71.347656 C 56.988281 71.285156 56.316406 71.140625 55.664062 70.914062 C 55.007812 70.683594 54.394531 70.378906 53.820312 69.996094 C 53.242188 69.613281 52.722656 69.167969 52.257812 68.65625 C 51.792969 68.140625 51.398438 67.578125 51.078125 66.96875 C 49.738281 64.558594 49.933594 61.226562 50.101562 58.28125 C 50.152344 57.445312 50.195312 56.65625 50.195312 55.992188 L 50.195312 43.644531 C 50.195312 38.238281 54.085938 35.015625 60.589844 35.015625 L 245.371094 35.015625 C 247.984375 35.015625 255.945312 35.015625 256.480469 42.386719 C 256.832031 47.121094 256.726562 51.96875 256.632812 56.652344 C 256.589844 58.730469 256.542969 60.878906 256.539062 62.964844 L 256.539062 63.351562 C 256.53125 63.492188 256.515625 63.632812 256.492188 63.773438 C 256.441406 64.640625 256.25 65.480469 255.921875 66.285156 C 255.59375 67.09375 255.144531 67.824219 254.570312 68.480469 C 254 69.140625 253.339844 69.6875 252.585938 70.128906 C 251.835938 70.566406 251.03125 70.875 250.175781 71.046875 C 253.492188 95.269531 256.816406 120.351562 260.066406 145.617188 C 262.6875 166.023438 265.222656 185.980469 267.402344 205.796875 L 267.492188 206.617188 C 268.164062 212.78125 268.863281 219.15625 269.304688 225.457031 C 269.953125 234.753906 267.609375 242.636719 262.121094 249.550781 Z M 246.574219 257.660156 C 253.421875 253.101562 260.402344 246.46875 263.4375 238.519531 C 257.753906 235.746094 251.753906 234.328125 245.433594 234.265625 C 241.65625 241.371094 240.421875 249.644531 240.726562 257.625 C 241.570312 258.339844 242.480469 258.96875 243.445312 259.507812 L 243.453125 259.507812 C 244.53125 258.957031 245.574219 258.339844 246.574219 257.660156 Z M 171.351562 260.25 C 189.054688 260.167969 206.761719 260.054688 224.472656 259.90625 C 229.160156 259.863281 233.855469 259.824219 238.542969 259.753906 C 237.84375 259.101562 237.277344 258.347656 236.84375 257.492188 C 234.199219 252.210938 234.75 245.765625 235.453125 240.109375 C 236.363281 232.789062 238.210938 225.667969 238.902344 218.308594 C 239.625 210.628906 239.902344 202.921875 239.972656 195.222656 C 240.132812 178.347656 239.4375 161.492188 239.136719 144.625 C 238.945312 134.046875 238.964844 123.464844 239.019531 112.882812 C 238.992188 112.710938 238.964844 112.539062 238.933594 112.367188 C 238.878906 112.0625 238.90625 111.765625 239.027344 111.480469 C 239.101562 97.679688 239.226562 83.875 239.039062 70.074219 L 62.902344 70.074219 C 61.160156 73.847656 61.402344 79.074219 61.269531 83.011719 C 60.992188 91.1875 61.136719 99.375 61.214844 107.554688 C 61.40625 128.210938 61.609375 149.019531 59.066406 169.558594 C 58.332031 175.933594 57.226562 182.246094 55.753906 188.496094 C 53.894531 195.453125 51.605469 202.265625 48.890625 208.9375 C 46.015625 216.507812 43.089844 224.066406 40.484375 231.738281 C 38.523438 237.003906 37.050781 242.402344 36.058594 247.933594 C 35.636719 250.78125 35.117188 255.003906 37.207031 257.390625 C 39.011719 259.460938 41.738281 259.90625 44.359375 260.027344 C 48.605469 260.234375 52.863281 260.25 57.109375 260.296875 C 95.183594 260.707031 133.269531 260.4375 171.351562 260.25 Z M 242.976562 200.078125 C 242.875 207.570312 242.390625 215.035156 241.527344 222.480469 C 240.59375 229.808594 238.539062 237.003906 238.109375 244.390625 C 238.027344 245.761719 237.945312 247.25 237.972656 248.75 C 238.566406 242.9375 240.242188 237.453125 243 232.300781 C 243.464844 215.835938 243.652344 199.34375 243.058594 182.882812 C 243.113281 188.613281 243.109375 194.347656 242.976562 200.078125 Z M 244.285156 39.542969 L 59.8125 39.542969 C 58.589844 39.367188 57.441406 39.578125 56.363281 40.179688 C 53.539062 42.3125 54.722656 48.707031 54.722656 51.746094 L 54.722656 63.171875 C 54.722656 65.890625 56.980469 66.992188 59.285156 66.992188 L 243.257812 66.992188 C 246.472656 66.992188 251.675781 67.886719 252.011719 63.265625 L 252.011719 43.847656 C 252.011719 38.945312 247.625 39.542969 244.285156 39.542969 Z M 264.359375 235.539062 C 264.804688 233.714844 265.019531 231.867188 265.003906 229.988281 C 264.925781 225.011719 264.347656 220.019531 263.847656 215.078125 C 261.949219 196.28125 259.578125 177.535156 257.203125 158.796875 C 253.460938 129.199219 249.5625 99.625 245.507812 70.074219 L 243.886719 70.074219 C 244.839844 78.066406 245.433594 86.105469 246.496094 94.097656 C 247.753906 102.191406 248.382812 110.335938 248.382812 118.527344 C 248.378906 118.628906 248.324219 118.683594 248.21875 118.683594 C 248.113281 118.683594 248.058594 118.628906 248.054688 118.527344 C 247.335938 109.625 246.101562 100.8125 244.753906 91.988281 C 243.832031 85.941406 242.566406 79.675781 242.15625 73.484375 C 242.25 81.648438 242.269531 89.808594 242.265625 97.976562 C 242.265625 103.164062 242.234375 108.351562 242.207031 113.539062 C 243.066406 119.878906 242.871094 126.460938 242.996094 132.816406 C 243.152344 140.949219 243.738281 148.871094 244.480469 156.96875 C 246.757812 181.660156 246.785156 206.441406 246.109375 231.207031 C 252.496094 231.367188 258.582031 232.8125 264.359375 235.539062 Z M 264.359375 235.539062 " fill-opacity="1" fill-rule="nonzero"/></svg>