<svg xmlns="http://www.w3.org/2000/svg" xmlns:xlink="http://www.w3.org/1999/xlink" width="400" zoomAndPan="magnify" viewBox="0 0 300 299.999988" height="400" preserveAspectRatio="xMidYMid meet" version="1.0"><defs><clipPath id="d612e83239"><path d="M 71 115.5 L 232 115.5 L 232 145 L 71 145 Z M 71 115.5 " clip-rule="nonzero"/></clipPath><clipPath id="989a5dac1e"><path d="M 30 153 L 270 153 L 270 184.5 L 30 184.5 Z M 30 153 " clip-rule="nonzero"/></clipPath></defs><path fill="currentColor" d="M 31.453125 157.070312 C 31.242188 157.070312 31.03125 157.015625 30.84375 156.898438 C 30.300781 156.566406 30.117188 155.871094 30.429688 155.316406 C 30.511719 155.171875 30.574219 155.0625 30.644531 154.964844 C 30.910156 154.578125 31.269531 154.253906 31.710938 154.003906 C 32.222656 153.714844 32.867188 153.847656 33.222656 154.316406 C 33.578125 154.785156 33.535156 155.445312 33.117188 155.859375 L 32.4375 156.539062 C 32.210938 156.882812 31.835938 157.070312 31.453125 157.070312 Z M 31.453125 157.070312 " fill-opacity="1" fill-rule="nonzero"/><path fill="currentColor" d="M 31.277344 157.800781 C 30.695312 157.800781 30.195312 157.371094 30.113281 156.789062 C 30.042969 156.277344 30.164062 155.738281 30.460938 155.269531 C 30.789062 154.746094 31.46875 154.570312 32.011719 154.863281 C 32.554688 155.15625 32.777344 155.816406 32.523438 156.378906 C 32.480469 156.480469 32.457031 156.582031 32.449219 156.683594 C 32.421875 157.289062 31.9375 157.773438 31.332031 157.800781 C 31.3125 157.800781 31.292969 157.800781 31.277344 157.800781 Z M 31.277344 157.800781 " fill-opacity="1" fill-rule="nonzero"/><path fill="currentColor" d="M 267.335938 156.191406 C 267.203125 156.191406 267.070312 156.167969 266.941406 156.125 C 266.871094 156.097656 266.792969 156.085938 266.710938 156.085938 L 264.136719 156.085938 C 255.84375 156.097656 248.492188 156.121094 241.476562 156.167969 C 240.363281 156.167969 239.277344 156.179688 238.191406 156.1875 L 238.039062 156.191406 C 237.734375 156.203125 237.449219 156.082031 237.226562 155.878906 C 236.578125 155.277344 235.929688 154.675781 235.28125 154.0625 C 231.640625 150.648438 228.039062 147.3125 224.058594 144.03125 C 223.707031 143.738281 223.363281 143.449219 223.015625 143.171875 C 222.648438 142.878906 222.492188 142.394531 222.617188 141.941406 C 223.28125 139.53125 229.105469 118.355469 229.363281 117.554688 C 229.519531 117.070312 229.972656 116.742188 230.484375 116.742188 L 231.234375 116.742188 C 232.078125 116.742188 232.929688 116.941406 233.703125 117.320312 C 234.121094 117.53125 234.488281 117.773438 234.8125 118.050781 C 245.773438 127.441406 252.816406 135.898438 260.273438 144.855469 C 263.019531 148.164062 265.507812 151.144531 268.21875 154.242188 C 268.570312 154.644531 268.605469 155.234375 268.308594 155.675781 C 268.082031 156.003906 267.714844 156.191406 267.335938 156.191406 Z M 225.085938 141.828125 C 225.242188 141.957031 225.402344 142.089844 225.558594 142.222656 C 229.589844 145.542969 233.21875 148.910156 236.890625 152.347656 C 237.421875 152.851562 237.953125 153.34375 238.484375 153.835938 C 239.472656 153.828125 240.460938 153.816406 241.46875 153.816406 C 248.480469 153.769531 255.835938 153.746094 264.136719 153.734375 L 264.667969 153.734375 C 262.605469 151.332031 260.617188 148.945312 258.476562 146.367188 C 251.074219 137.480469 244.09375 129.09375 233.277344 119.832031 C 233.101562 119.679688 232.894531 119.542969 232.660156 119.425781 C 232.261719 119.234375 231.804688 119.117188 231.367188 119.097656 C 230.398438 122.53125 226.78125 135.65625 225.085938 141.828125 Z M 225.085938 141.828125 " fill-opacity="1" fill-rule="nonzero"/><g clip-path="url(#d612e83239)"><path fill="currentColor" d="M 146.121094 144.9375 C 123.15625 144.9375 100.605469 144.542969 79.4375 143.742188 C 78.902344 143.722656 78.464844 143.351562 78.339844 142.855469 C 78.136719 142.121094 71.660156 119.015625 71.347656 118.089844 C 71.226562 117.738281 71.277344 117.339844 71.488281 117.03125 C 71.703125 116.726562 72.046875 116.53125 72.417969 116.519531 C 106.886719 115.496094 141.984375 115.910156 175.925781 116.308594 C 191.78125 116.496094 211.515625 116.730469 230.484375 116.742188 C 230.859375 116.742188 231.210938 116.925781 231.429688 117.226562 C 231.652344 117.53125 231.714844 117.921875 231.601562 118.277344 C 231.503906 118.578125 230.515625 122.199219 229.46875 126.035156 C 226.421875 137.191406 225.027344 142.246094 224.832031 142.710938 C 224.65625 143.132812 224.25 143.410156 223.796875 143.429688 C 198.328125 144.433594 171.964844 144.9375 146.121094 144.9375 Z M 80.363281 141.425781 C 124.84375 143.078125 175.378906 142.96875 222.875 141.113281 C 223.566406 138.714844 225.714844 130.859375 227.199219 125.417969 C 227.984375 122.542969 228.570312 120.410156 228.933594 119.089844 C 210.429688 119.066406 191.328125 118.839844 175.894531 118.65625 C 142.476562 118.265625 107.929688 117.859375 74 118.824219 C 75.328125 123.476562 79.257812 137.339844 80.363281 141.425781 Z M 80.363281 141.425781 " fill-opacity="1" fill-rule="nonzero"/></g><path fill="currentColor" d="M 150.546875 169.855469 C 142.507812 169.855469 134.710938 165.199219 131.429688 158.382812 C 130.992188 157.460938 130.074219 156.863281 129.039062 156.8125 C 111.289062 155.972656 89.222656 155.511719 66.894531 155.511719 C 66.410156 155.511719 65.972656 155.210938 65.796875 154.757812 C 65.625 154.300781 65.746094 153.785156 66.109375 153.460938 C 69.988281 149.96875 73.8125 146.496094 77.925781 142.417969 L 78.648438 141.695312 C 78.878906 141.464844 79.195312 141.34375 79.519531 141.351562 L 81.554688 141.421875 C 126.859375 143.128906 174.160156 143.035156 222.152344 141.140625 C 222.679688 141.125 223.1875 141.105469 223.695312 141.082031 C 223.980469 141.066406 224.261719 141.160156 224.484375 141.335938 C 224.84375 141.625 225.199219 141.921875 225.558594 142.222656 C 229.589844 145.542969 233.21875 148.910156 236.890625 152.347656 C 237.539062 152.960938 238.183594 153.558594 238.824219 154.152344 C 239.179688 154.480469 239.296875 154.992188 239.121094 155.441406 C 238.949219 155.890625 238.515625 156.1875 238.035156 156.191406 L 220.339844 156.316406 C 206.421875 156.417969 192.035156 156.519531 172.433594 156.53125 C 171.328125 156.53125 170.308594 157.179688 169.84375 158.179688 C 166.8125 164.703125 158.945312 169.609375 151.140625 169.84375 C 150.941406 169.851562 150.742188 169.855469 150.546875 169.855469 Z M 69.949219 153.164062 C 91.261719 153.203125 112.175781 153.660156 129.148438 154.464844 C 131.054688 154.554688 132.738281 155.667969 133.550781 157.363281 C 136.523438 163.539062 143.714844 167.703125 151.070312 167.496094 C 158.035156 167.285156 165.035156 162.949219 167.710938 157.1875 C 168.566406 155.359375 170.417969 154.183594 172.433594 154.183594 C 192.023438 154.171875 206.410156 154.066406 220.324219 153.964844 L 235.066406 153.859375 C 231.5 150.519531 227.964844 147.25 224.058594 144.03125 C 223.824219 143.835938 223.589844 143.640625 223.355469 143.449219 C 222.980469 143.464844 222.601562 143.480469 222.222656 143.488281 C 174.195312 145.386719 126.832031 145.480469 81.46875 143.769531 L 79.949219 143.714844 L 79.582031 144.085938 C 76.234375 147.40625 73.085938 150.316406 69.949219 153.164062 Z M 69.949219 153.164062 " fill-opacity="1" fill-rule="nonzero"/><path fill="currentColor" d="M 32.289062 156.203125 C 31.9375 156.203125 31.589844 156.046875 31.359375 155.75 C 30.996094 155.28125 31.039062 154.613281 31.460938 154.195312 C 34.054688 151.613281 36.589844 149.074219 39.101562 146.539062 L 39.421875 146.21875 C 48.171875 137.449219 57.21875 128.378906 68.589844 117.933594 C 68.730469 117.808594 68.859375 117.703125 68.988281 117.601562 C 69.914062 116.917969 70.960938 116.5625 72.070312 116.53125 L 72.453125 116.519531 C 72.945312 116.519531 73.386719 116.828125 73.554688 117.289062 C 73.816406 118.003906 79.480469 138.171875 80.613281 142.207031 C 80.726562 142.617188 80.613281 143.054688 80.3125 143.355469 L 79.582031 144.085938 C 75.429688 148.203125 71.582031 151.695312 67.679688 155.207031 C 67.460938 155.40625 67.179688 155.519531 66.878906 155.511719 C 65.726562 155.511719 64.582031 155.511719 63.441406 155.523438 C 53.535156 155.546875 44.304688 155.660156 35.996094 155.863281 C 35.082031 155.875 34.195312 155.898438 33.308594 155.921875 C 33.15625 155.925781 33.011719 155.964844 32.890625 156.035156 C 32.703125 156.148438 32.496094 156.203125 32.289062 156.203125 Z M 71.597656 118.9375 C 71.183594 119.023438 70.78125 119.195312 70.4375 119.453125 C 70.363281 119.507812 70.269531 119.585938 70.171875 119.671875 C 58.84375 130.074219 49.816406 139.125 41.085938 147.878906 L 40.769531 148.195312 C 39.019531 149.964844 37.253906 151.734375 35.464844 153.519531 C 35.628906 153.515625 35.789062 153.515625 35.953125 153.511719 C 44.265625 153.3125 53.515625 153.195312 63.425781 153.171875 C 64.425781 153.160156 65.429688 153.160156 66.445312 153.160156 C 70.207031 149.769531 73.929688 146.378906 77.925781 142.417969 L 78.164062 142.179688 C 75.820312 133.824219 72.542969 122.191406 71.597656 118.9375 Z M 71.597656 118.9375 " fill-opacity="1" fill-rule="nonzero"/><g clip-path="url(#989a5dac1e)"><path fill="currentColor" d="M 44.605469 184.5 C 42.550781 184.5 40.644531 183.371094 39.75 181.628906 C 36.085938 174.46875 34.429688 169.6875 32.328125 163.640625 L 32.058594 162.855469 C 31.515625 161.300781 30.941406 159.648438 30.277344 157.824219 C 30.125 157.40625 30.066406 156.96875 30.105469 156.523438 C 30.125 156.171875 30.21875 155.78125 30.382812 155.414062 C 30.410156 155.355469 30.4375 155.304688 30.472656 155.25 C 30.566406 155.109375 30.664062 154.988281 30.78125 154.875 L 31.457031 154.195312 C 31.527344 154.128906 31.601562 154.070312 31.683594 154.019531 C 32.140625 153.746094 32.679688 153.589844 33.234375 153.570312 C 34.144531 153.546875 35.042969 153.523438 35.953125 153.511719 C 44.265625 153.3125 53.515625 153.195312 63.425781 153.171875 C 64.574219 153.160156 65.726562 153.160156 66.894531 153.160156 C 89.257812 153.160156 111.367188 153.625 129.148438 154.464844 C 131.054688 154.554688 132.738281 155.667969 133.550781 157.363281 C 136.523438 163.539062 143.714844 167.703125 151.070312 167.496094 C 158.035156 167.285156 165.035156 162.949219 167.710938 157.1875 C 168.566406 155.359375 170.417969 154.183594 172.433594 154.183594 C 192.023438 154.171875 206.410156 154.066406 220.324219 153.964844 L 238.167969 153.839844 C 239.261719 153.828125 240.355469 153.816406 241.46875 153.816406 C 248.480469 153.769531 255.835938 153.746094 264.136719 153.734375 L 266.710938 153.734375 C 267.0625 153.734375 267.402344 153.792969 267.726562 153.90625 C 268.308594 154.082031 268.867188 154.488281 269.253906 155.027344 C 269.8125 155.816406 269.964844 156.824219 269.65625 157.722656 L 262.207031 179.464844 C 261.375 181.898438 258.996094 183.535156 256.289062 183.535156 C 217.847656 183.546875 179.761719 183.808594 149.160156 184.019531 C 119.046875 184.226562 81.570312 184.488281 44.605469 184.5 Z M 32.484375 156.496094 C 32.464844 156.558594 32.453125 156.621094 32.449219 156.683594 C 32.4375 156.828125 32.453125 156.925781 32.488281 157.023438 C 33.152344 158.859375 33.730469 160.519531 34.277344 162.082031 L 34.550781 162.867188 C 36.617188 168.832031 38.253906 173.542969 41.84375 180.554688 C 42.339844 181.523438 43.421875 182.148438 44.601562 182.148438 C 81.5625 182.136719 119.035156 181.875 149.144531 181.667969 C 179.75 181.457031 217.839844 181.199219 256.289062 181.1875 C 257.992188 181.1875 259.476562 180.1875 259.984375 178.703125 L 267.433594 156.964844 C 267.5 156.769531 267.464844 156.566406 267.339844 156.390625 C 267.253906 156.273438 267.132812 156.183594 266.992188 156.140625 C 266.871094 156.097656 266.792969 156.085938 266.710938 156.085938 L 264.136719 156.085938 C 255.84375 156.097656 248.492188 156.121094 241.476562 156.167969 C 240.363281 156.167969 239.277344 156.179688 238.191406 156.1875 L 220.339844 156.316406 C 206.421875 156.417969 192.035156 156.519531 172.433594 156.53125 C 171.328125 156.53125 170.308594 157.179688 169.84375 158.179688 C 166.8125 164.703125 158.945312 169.609375 151.140625 169.84375 C 142.890625 170.09375 134.792969 165.367188 131.429688 158.382812 C 130.992188 157.460938 130.074219 156.863281 129.039062 156.8125 C 111.289062 155.972656 89.222656 155.511719 66.894531 155.511719 C 65.734375 155.511719 64.589844 155.511719 63.441406 155.519531 C 53.535156 155.546875 44.304688 155.660156 35.996094 155.863281 C 35.082031 155.875 34.195312 155.898438 33.308594 155.921875 C 33.195312 155.925781 33.089844 155.945312 32.992188 155.984375 Z M 268.542969 157.34375 L 268.554688 157.34375 Z M 268.542969 157.34375 " fill-opacity="1" fill-rule="nonzero"/></g><path fill="currentColor" d="M 189.390625 131.308594 C 189.390625 131.632812 189.359375 131.953125 189.296875 132.269531 C 189.234375 132.585938 189.140625 132.894531 189.015625 133.191406 C 188.894531 133.492188 188.742188 133.773438 188.5625 134.042969 C 188.382812 134.3125 188.179688 134.558594 187.949219 134.789062 C 187.722656 135.015625 187.472656 135.21875 187.203125 135.398438 C 186.9375 135.578125 186.652344 135.730469 186.355469 135.855469 C 186.054688 135.976562 185.75 136.070312 185.429688 136.132812 C 185.113281 136.199219 184.792969 136.230469 184.472656 136.230469 C 184.148438 136.230469 183.828125 136.199219 183.511719 136.132812 C 183.195312 136.070312 182.886719 135.976562 182.589844 135.855469 C 182.289062 135.730469 182.007812 135.578125 181.738281 135.398438 C 181.46875 135.21875 181.222656 135.015625 180.992188 134.789062 C 180.765625 134.558594 180.5625 134.3125 180.382812 134.042969 C 180.203125 133.773438 180.050781 133.492188 179.925781 133.191406 C 179.804688 132.894531 179.710938 132.585938 179.648438 132.269531 C 179.585938 131.953125 179.554688 131.632812 179.554688 131.308594 C 179.554688 130.988281 179.585938 130.667969 179.648438 130.351562 C 179.710938 130.035156 179.804688 129.726562 179.925781 129.425781 C 180.050781 129.128906 180.203125 128.84375 180.382812 128.578125 C 180.5625 128.308594 180.765625 128.058594 180.992188 127.832031 C 181.222656 127.601562 181.46875 127.398438 181.738281 127.21875 C 182.007812 127.039062 182.289062 126.890625 182.589844 126.765625 C 182.886719 126.640625 183.195312 126.546875 183.511719 126.484375 C 183.828125 126.421875 184.148438 126.390625 184.472656 126.390625 C 184.792969 126.390625 185.113281 126.421875 185.429688 126.484375 C 185.75 126.546875 186.054688 126.640625 186.355469 126.765625 C 186.652344 126.890625 186.9375 127.039062 187.203125 127.21875 C 187.472656 127.398438 187.722656 127.601562 187.949219 127.832031 C 188.179688 128.058594 188.382812 128.308594 188.5625 128.578125 C 188.742188 128.84375 188.894531 129.128906 189.015625 129.425781 C 189.140625 129.726562 189.234375 130.035156 189.296875 130.351562 C 189.359375 130.667969 189.390625 130.988281 189.390625 131.308594 Z M 189.390625 131.308594 " fill-opacity="1" fill-rule="nonzero"/><path fill="currentColor" d="M 129.53125 131.308594 C 129.53125 131.632812 129.5 131.953125 129.4375 132.269531 C 129.375 132.585938 129.28125 132.894531 129.15625 133.191406 C 129.035156 133.492188 128.882812 133.773438 128.703125 134.042969 C 128.523438 134.3125 128.320312 134.558594 128.089844 134.789062 C 127.863281 135.015625 127.613281 135.21875 127.34375 135.398438 C 127.078125 135.578125 126.792969 135.730469 126.496094 135.855469 C 126.195312 135.976562 125.890625 136.070312 125.574219 136.132812 C 125.253906 136.199219 124.9375 136.230469 124.613281 136.230469 C 124.289062 136.230469 123.96875 136.199219 123.652344 136.132812 C 123.335938 136.070312 123.027344 135.976562 122.730469 135.855469 C 122.433594 135.730469 122.148438 135.578125 121.878906 135.398438 C 121.613281 135.21875 121.363281 135.015625 121.132812 134.789062 C 120.90625 134.558594 120.703125 134.3125 120.523438 134.042969 C 120.34375 133.773438 120.191406 133.492188 120.066406 133.191406 C 119.945312 132.894531 119.851562 132.585938 119.789062 132.269531 C 119.726562 131.953125 119.695312 131.632812 119.695312 131.308594 C 119.695312 130.988281 119.726562 130.667969 119.789062 130.351562 C 119.851562 130.035156 119.945312 129.726562 120.066406 129.425781 C 120.191406 129.128906 120.34375 128.84375 120.523438 128.578125 C 120.703125 128.308594 120.90625 128.058594 121.132812 127.832031 C 121.363281 127.601562 121.609375 127.398438 121.878906 127.21875 C 122.148438 127.039062 122.433594 126.890625 122.730469 126.765625 C 123.027344 126.640625 123.335938 126.546875 123.652344 126.484375 C 123.96875 126.421875 124.289062 126.390625 124.613281 126.390625 C 124.9375 126.390625 125.253906 126.421875 125.574219 126.484375 C 125.890625 126.546875 126.195312 126.640625 126.496094 126.765625 C 126.792969 126.890625 127.078125 127.039062 127.34375 127.21875 C 127.613281 127.398438 127.863281 127.601562 128.089844 127.832031 C 128.320312 128.058594 128.523438 128.308594 128.703125 128.578125 C 128.882812 128.84375 129.035156 129.128906 129.15625 129.425781 C 129.28125 129.726562 129.375 130.035156 129.4375 130.351562 C 129.5 130.667969 129.53125 130.988281 129.53125 131.308594 Z M 129.53125 131.308594 " fill-opacity="1" fill-rule="nonzero"/><path fill="currentColor" d="M 154.851562 137.402344 C 153.445312 137.402344 152.007812 136.980469 150.703125 136.140625 C 148.367188 134.632812 146.984375 131.449219 147.414062 128.566406 C 147.507812 127.921875 148.101562 127.484375 148.746094 127.574219 C 149.390625 127.671875 149.832031 128.269531 149.738281 128.910156 C 149.445312 130.859375 150.429688 133.167969 151.976562 134.164062 C 153.722656 135.289062 155.699219 135.359375 157.261719 134.347656 C 158.898438 133.285156 159.667969 131.253906 159.3125 128.914062 C 159.214844 128.273438 159.652344 127.671875 160.296875 127.574219 C 160.9375 127.476562 161.535156 127.917969 161.632812 128.5625 C 162.132812 131.839844 160.976562 134.742188 158.539062 136.320312 C 157.421875 137.042969 156.152344 137.402344 154.851562 137.402344 Z M 154.851562 137.402344 " fill-opacity="1" fill-rule="nonzero"/></svg>