<svg xmlns="http://www.w3.org/2000/svg" xmlns:xlink="http://www.w3.org/1999/xlink" width="400" zoomAndPan="magnify" viewBox="0 0 300 299.999988" height="400" preserveAspectRatio="xMidYMid meet" version="1.0"><defs><clipPath id="b55f05358b"><path d="M 41 35 L 261 35 L 261 270 L 41 270 Z M 41 35 " clip-rule="nonzero"/></clipPath></defs><path fill="currentColor" d="M 238.066406 192.636719 C 232.960938 188.960938 222.835938 199.15625 219.855469 202.371094 C 219.335938 202.933594 219.371094 203.8125 219.929688 204.332031 C 220.492188 204.851562 221.367188 204.820312 221.890625 204.257812 C 228.800781 196.804688 234.296875 193.910156 236.226562 194.820312 C 236.527344 195.113281 236.433594 195.007812 236.65625 195.125 C 237.429688 196.058594 237.152344 197.984375 237.015625 198.953125 C 226.292969 205.582031 212.414062 225.246094 210.320312 236.679688 C 210.023438 236.851562 209.714844 237.054688 209.429688 237.199219 C 207.550781 238.183594 206.058594 238.449219 205.328125 237.921875 C 204.980469 237.671875 204.75 237.195312 204.640625 236.5 C 204.019531 232.667969 207.472656 223.144531 215.273438 212.363281 C 215.722656 211.746094 215.585938 210.878906 214.964844 210.429688 C 214.347656 209.980469 213.476562 210.121094 213.027344 210.738281 C 205.515625 221.121094 201.042969 231.652344 201.898438 236.945312 C 201.980469 237.453125 202.167969 237.855469 202.34375 238.273438 C 202.28125 238.691406 202.347656 239.113281 202.667969 239.433594 C 204.476562 241.265625 206.121094 243.320312 207.859375 245.496094 C 211.242188 249.726562 214.738281 254.101562 219.605469 256.746094 C 222.613281 258.375 225.148438 259.066406 227.375 259.066406 C 233.609375 259.066406 237.492188 253.589844 242.132812 248.621094 C 250.449219 239.71875 255.421875 231.347656 255.691406 230.957031 C 260.660156 223.027344 267.472656 212.164062 258.847656 203.273438 C 252.835938 197.078125 242 195.40625 238.066406 192.636719 Z M 252.925781 230.152344 C 247.476562 238.851562 242.542969 244.007812 238.03125 248.996094 C 232.515625 255.101562 229.1875 258.785156 220.925781 254.304688 C 216.554688 251.933594 213.234375 247.78125 210.027344 243.765625 C 209.242188 242.78125 208.4375 241.78125 207.617188 240.800781 C 208.5 240.625 209.511719 240.285156 210.695312 239.664062 C 222.644531 233.644531 240.621094 208.199219 239.921875 196.644531 C 246.199219 199.289062 252.628906 200.847656 256.859375 205.207031 C 264.019531 212.589844 258.316406 221.550781 252.925781 230.152344 Z M 252.925781 230.152344 " fill-opacity="1" fill-rule="nonzero"/><g clip-path="url(#b55f05358b)"><path fill="currentColor" d="M 221.832031 87.3125 C 223.140625 85.863281 224.496094 84.402344 225.871094 82.976562 C 226.125 84.671875 226.257812 86.347656 226.117188 87.914062 C 225.390625 95.125 221.300781 102.234375 222.152344 109.945312 C 223.070312 118.734375 230.417969 121.667969 234.707031 118.433594 C 236.914062 116.738281 236.933594 111.003906 237.925781 108.382812 C 243.722656 115.789062 235.609375 125.582031 237.882812 152.679688 C 238.148438 155.703125 238.578125 159.183594 240.277344 162.144531 C 242.070312 165.238281 245.496094 167.65625 249.097656 167.132812 C 255.039062 166.253906 262.621094 155.929688 259.925781 141.734375 C 257.980469 131.519531 256.238281 123.136719 254.4375 115.34375 C 250.246094 97.75 245.933594 79.066406 233.964844 67.28125 C 227.355469 56.003906 196.855469 36.699219 184.09375 36.402344 C 182.445312 35.605469 180.605469 34.980469 178.753906 35.3125 C 172.917969 36.265625 172.324219 44.316406 170.484375 49.527344 C 169.046875 53.566406 167.222656 57.488281 165.628906 61.488281 C 163.570312 66.652344 161.433594 71.816406 158.40625 76.476562 C 150.875 87.941406 134.4375 100.003906 121.667969 107.121094 C 113.589844 111.625 105.160156 114.34375 97.511719 119.664062 C 82.25 130.226562 69.511719 144.828125 64.539062 162.847656 C 53.8125 201.410156 32.546875 209.5625 46.324219 227.316406 C 50.792969 233.140625 56.851562 237.570312 62.480469 242.191406 C 77.082031 253.996094 94.402344 263.203125 112.308594 268.445312 C 114.25 269.019531 116.078125 269.15625 117.804688 269.003906 C 119.039062 269.378906 120.820312 270.078125 123.75 270.078125 C 140.503906 270.074219 143.640625 247.601562 169.753906 225.34375 C 186.515625 211.007812 192.921875 190.773438 195.34375 176.328125 C 195.929688 172.921875 196.210938 169.355469 196.257812 164.765625 C 196.265625 164 195.652344 163.375 194.886719 163.367188 C 194.882812 163.367188 194.875 163.367188 194.871094 163.367188 C 194.113281 163.367188 193.492188 163.976562 193.484375 164.738281 C 193.269531 185.9375 184.261719 209.285156 167.953125 223.234375 C 159.027344 230.84375 150.726562 240.332031 142.582031 252.242188 C 136.640625 260.898438 129.75 269.828125 119.769531 266.722656 C 89.285156 257.734375 69.582031 239.765625 67.90625 238.644531 C 63.132812 234.839844 58.195312 230.910156 54.488281 226.082031 C 41.597656 209.417969 62.292969 200.980469 72.941406 162.828125 C 78.582031 142.390625 93.6875 128.460938 105.367188 120.378906 C 117.023438 112.332031 131.058594 110.339844 153.410156 91.199219 C 165.445312 80.800781 168.800781 74.578125 173.984375 61.582031 C 177.246094 53.5 177.460938 54.164062 180.527344 44.328125 C 187.117188 54.949219 209.109375 68.496094 222.078125 73.015625 C 223.433594 75.03125 224.476562 77.328125 225.167969 79.734375 C 221.953125 82.914062 219.457031 85.875 216.703125 88.808594 C 206.757812 99.574219 200.503906 106.890625 195.878906 131.996094 C 195.546875 133.789062 198.269531 134.328125 198.605469 132.5 C 200.3125 123.261719 203.484375 111.300781 208.441406 103.378906 C 211.976562 97.628906 216.941406 92.730469 221.832031 87.3125 Z M 257.199219 142.253906 C 259.585938 154.804688 253.042969 163.742188 248.695312 164.390625 C 246.210938 164.738281 243.835938 162.757812 242.679688 160.761719 C 241.261719 158.289062 240.886719 155.167969 240.644531 152.441406 C 238.445312 126.15625 246.6875 115.714844 240.28125 106.90625 C 239.777344 106.195312 239.226562 105.71875 238.515625 105.421875 C 235.472656 104.355469 234.808594 109.105469 234.378906 111.472656 C 234.105469 112.984375 233.59375 115.792969 233.027344 116.226562 C 231.464844 117.410156 229.0625 116.886719 227.664062 115.699219 C 226.160156 114.40625 225.183594 112.257812 224.910156 109.648438 C 223.824219 99.808594 231.390625 92.175781 228.101562 79.75 C 226.53125 73.558594 222.460938 67.410156 217.082031 64.445312 C 215.609375 63.585938 214.050781 63.714844 213.070312 63.351562 C 212.269531 63.019531 211.394531 62.453125 210.636719 61.90625 C 212.296875 60.75 216.433594 61.34375 218.4375 61.6875 C 228.828125 63.523438 236.621094 73.058594 241.355469 82.601562 C 248.265625 96.738281 254.238281 126.675781 257.199219 142.253906 Z M 181.960938 41.195312 C 182.339844 40.679688 182.722656 40.296875 183.113281 40.148438 C 184.117188 39.78125 185.757812 40.042969 188.011719 40.917969 C 190.347656 41.800781 208.867188 50.382812 219.714844 59.144531 C 216.957031 58.558594 213.835938 58.101562 211.109375 58.765625 C 203.78125 53.707031 193.253906 47.765625 184.707031 45.371094 C 183.710938 44.1875 182.558594 42.738281 181.960938 41.195312 Z M 181.960938 41.195312 " fill-opacity="1" fill-rule="nonzero"/></g><path fill="currentColor" d="M 163.496094 41.90625 L 158.203125 31.78125 C 157.355469 30.164062 154.894531 31.433594 155.746094 33.066406 L 161.035156 43.191406 C 161.886719 44.816406 164.34375 43.53125 163.496094 41.90625 Z M 163.496094 41.90625 " fill-opacity="1" fill-rule="nonzero"/><path fill="currentColor" d="M 142.976562 42.304688 C 147.222656 45.179688 151.714844 47.757812 156.332031 49.972656 C 158.007812 50.769531 159.167969 48.257812 157.53125 47.46875 C 153.035156 45.316406 148.664062 42.804688 144.535156 40.007812 C 143.015625 38.976562 141.457031 41.273438 142.976562 42.304688 Z M 142.976562 42.304688 " fill-opacity="1" fill-rule="nonzero"/><path fill="currentColor" d="M 139.304688 58.652344 C 139.722656 58.652344 153.703125 57.480469 154.074219 57.449219 C 155.871094 57.304688 155.71875 54.570312 153.851562 54.679688 C 153.480469 54.710938 140.660156 55.769531 139.199219 55.882812 C 137.433594 56.027344 137.542969 58.652344 139.304688 58.652344 Z M 139.304688 58.652344 " fill-opacity="1" fill-rule="nonzero"/><path fill="currentColor" d="M 171.742188 176.027344 C 171.683594 176.789062 172.257812 177.457031 173.019531 177.511719 C 173.789062 177.558594 174.449219 177 174.507812 176.234375 C 174.753906 172.957031 173.027344 169.957031 170.105469 168.585938 C 155.335938 161.597656 128.664062 144.375 118.109375 133.488281 C 114.558594 129.886719 108.726562 130.578125 106.070312 134.699219 C 97.691406 141.066406 93.332031 150.875 87.878906 159.277344 C 84.617188 164.363281 81.355469 169.414062 78.054688 174.460938 C 76.773438 176.441406 76.65625 179.042969 77.859375 181.0625 C 84.5 192.285156 93.898438 201.0625 104.191406 207.472656 C 116.851562 215.367188 138.46875 222.566406 141.441406 222.566406 C 143.984375 222.566406 146.421875 221.269531 147.917969 218.984375 C 182.671875 165.292969 170.675781 183.828125 173.273438 179.8125 C 174.265625 178.273438 171.945312 176.765625 170.945312 178.308594 C 168.351562 182.3125 180.332031 163.800781 145.597656 217.46875 C 144.355469 219.363281 142.128906 220.210938 140.050781 219.582031 C 140.019531 219.574219 139.984375 219.5625 139.949219 219.554688 C 130.984375 217.195312 118.386719 212.253906 108.808594 206.292969 C 97.90625 199.507812 88.960938 190.539062 82.9375 180.355469 C 82.027344 178.828125 82.105469 176.8125 83.140625 175.214844 L 108.386719 136.21875 C 110.125 133.503906 113.894531 133.164062 116.128906 135.425781 C 127.058594 146.691406 154.113281 164.089844 168.925781 171.09375 C 170.796875 171.972656 171.902344 173.90625 171.742188 176.027344 Z M 171.742188 176.027344 " fill-opacity="1" fill-rule="nonzero"/><path fill="currentColor" d="M 138.878906 166.664062 C 130.789062 164.601562 121.289062 165.074219 110.636719 168.03125 C 108.910156 168.511719 106.929688 169.132812 105.261719 170.4375 C 102.875 172.308594 101.53125 175.464844 101.832031 178.480469 C 102.386719 184 108.316406 187.371094 113.035156 190.191406 C 121.132812 195.09375 135.78125 200.769531 144.105469 195.902344 C 151.578125 191.523438 154.441406 178.652344 150.519531 173.359375 C 147.515625 169.300781 142.949219 167.699219 138.878906 166.664062 Z M 142.703125 193.511719 C 139.675781 195.28125 135.535156 195.515625 130.050781 194.210938 C 119.511719 191.707031 109.46875 185.207031 106.761719 182.34375 C 113.410156 182.960938 119.894531 184.585938 126.035156 187.222656 C 127.730469 187.941406 128.8125 185.398438 127.132812 184.671875 C 120.503906 181.828125 113.503906 180.089844 106.316406 179.5 C 105.828125 179.464844 105.417969 179.679688 105.144531 180.019531 C 103.859375 177.28125 104.90625 174.238281 106.972656 172.621094 C 110.335938 169.988281 122.492188 168.179688 128.265625 168.179688 C 134.789062 168.179688 144.375 169.714844 148.292969 175.007812 C 149.042969 176.023438 149.371094 177.390625 149.457031 178.863281 C 149.34375 178.445312 149.058594 178.078125 148.621094 177.914062 C 138.703125 174.234375 128.308594 172.117188 117.734375 171.632812 C 115.976562 171.464844 115.710938 174.320312 117.609375 174.402344 C 127.894531 174.875 138.003906 176.933594 147.65625 180.515625 C 148.429688 180.804688 149.394531 180.363281 149.496094 179.351562 C 149.585938 184.375 147.222656 190.863281 142.703125 193.511719 Z M 142.703125 193.511719 " fill-opacity="1" fill-rule="nonzero"/></svg>