<svg xmlns="http://www.w3.org/2000/svg" xmlns:xlink="http://www.w3.org/1999/xlink" width="400" zoomAndPan="magnify" viewBox="0 0 300 299.999988" height="400" preserveAspectRatio="xMidYMid meet" version="1.0"><defs><clipPath id="abde597d0f"><path d="M 125.160156 30 L 240.574219 30 L 240.574219 269.996094 L 125.160156 269.996094 Z M 125.160156 30 " clip-rule="nonzero"/></clipPath><clipPath id="fcc2a6aa69"><path d="M 67 187 L 134 187 L 134 263.917969 L 67 263.917969 Z M 67 187 " clip-rule="nonzero"/></clipPath></defs><g clip-path="url(#abde597d0f)"><path fill="currentColor" d="M 187.113281 71.371094 C 184.480469 71.457031 182.457031 68.632812 179.96875 68.417969 C 177.890625 68.238281 175.160156 69.554688 172.582031 70.386719 C 168.167969 71.816406 163.558594 72.5 160.511719 70.386719 C 159.980469 70.019531 159.679688 68.621094 158.789062 69.15625 C 160.601562 81.054688 152.714844 86.148438 146.71875 93.046875 C 144.632812 95.453125 142.367188 98.144531 140.070312 100.683594 C 137.746094 103.246094 135.0625 106.082031 133.664062 108.566406 C 128.46875 117.792969 128.339844 132.429688 127.753906 145.757812 C 126.542969 173.28125 129.921875 210.839844 131.449219 239.109375 C 127.484375 240.414062 128.46875 242.5 130.464844 244.773438 C 131.402344 245.847656 131.761719 246.222656 131.941406 247.238281 C 130.730469 248.046875 129.640625 248.003906 129.230469 249.207031 C 127.175781 255.273438 139.023438 259.117188 140.808594 261.03125 C 154.082031 264.980469 172.539062 267.542969 191.792969 266.695312 C 205.8125 266.082031 218.285156 265.972656 228.742188 261.277344 C 231.75 259.925781 236.597656 257.449219 236.375 254.382812 C 236.269531 252.894531 235.019531 252.894531 234.652344 251.671875 C 236.492188 248.992188 239.660156 247.277344 238.101562 243.050781 C 237.300781 240.882812 234.636719 240.742188 234.160156 239.109375 C 233.59375 237.175781 234.847656 234.480469 234.898438 232.707031 C 235.117188 225.277344 233.875 217.84375 233.914062 210.539062 C 234.074219 180.316406 237.222656 152.234375 233.914062 125.808594 C 232.199219 112.140625 225.136719 103.597656 217.65625 95.757812 C 210.269531 88.015625 199.488281 82.3125 201.890625 67.679688 C 195.953125 60.675781 191.785156 71.226562 187.113281 71.371094 Z M 202.878906 42.554688 C 202.285156 42.515625 201.625 43.132812 200.90625 43.046875 C 199.886719 42.925781 198.710938 42.070312 197.707031 42.0625 C 196.738281 42.054688 195.808594 42.722656 194.996094 42.800781 C 192.429688 43.054688 191.238281 41.648438 189.578125 41.078125 C 188.101562 44.132812 182.617188 44.480469 180.464844 41.816406 C 177.15625 43.839844 173.242188 44.042969 170.613281 41.324219 C 168.832031 43.875 163.765625 43.6875 161.992188 41.324219 C 160.1875 42.3125 158.589844 43.503906 158.050781 45.757812 C 151.871094 44.6875 155.578125 50.988281 158.542969 51.667969 C 158.445312 55.113281 158.902344 60.785156 158.789062 64.722656 C 160.070312 65.285156 160.007812 67.402344 161.25 68.417969 C 165.941406 72.242188 173.65625 66.785156 178.738281 66.199219 C 182.839844 65.730469 184.171875 69.144531 186.867188 69.15625 C 190.820312 69.175781 192.734375 62.757812 197.460938 63 C 198.988281 63.078125 200.175781 64.238281 201.648438 64.476562 C 201.816406 58.925781 201.5 55.257812 201.152344 50.4375 C 204.476562 49.804688 208.417969 42.914062 202.878906 42.554688 Z M 180.710938 33.6875 C 172.800781 33.949219 165.304688 35.476562 157.554688 36.644531 C 156.953125 37.996094 156.59375 39.9375 157.554688 41.078125 C 160.089844 40.984375 160.71875 38.984375 162.730469 38.367188 C 163.195312 39.542969 164.320312 40.0625 165.191406 40.832031 C 168.542969 41.390625 169.140625 39.199219 171.105469 38.367188 C 172.597656 39.324219 173.097656 40.871094 175.046875 41.078125 C 177.320312 41.320312 178.949219 39.003906 180.464844 39.105469 C 182.234375 39.226562 182.945312 41.519531 185.390625 41.324219 C 187.722656 41.136719 188.203125 38.773438 190.316406 38.121094 C 191.453125 40.472656 195.882812 41.011719 197.953125 39.105469 C 199.734375 41.820312 203.234375 39.6875 204.109375 38.367188 C 204.03125 37.050781 203.558594 36.128906 202.878906 35.414062 C 195.300781 34.527344 187.984375 33.449219 180.710938 33.6875 Z M 206.324219 41.078125 C 207.226562 42.527344 208.605469 44.132812 208.050781 47.234375 C 207.648438 49.476562 204.539062 50.453125 203.863281 52.652344 C 203.464844 53.953125 204.046875 56.378906 204.109375 57.828125 C 204.433594 65.496094 203.628906 74.148438 206.078125 79.253906 C 208.515625 84.335938 213.539062 87.699219 217.164062 91.324219 C 226.101562 100.261719 234.582031 110.140625 236.375 126.054688 C 240.03125 158.488281 235.425781 194.011719 236.867188 226.300781 C 236.957031 228.257812 237.003906 230.257812 237.117188 232.214844 C 237.226562 234.1875 236.816406 236.601562 237.117188 237.878906 C 237.492188 239.5 239.675781 240.070312 240.316406 242.3125 C 241.453125 246.285156 240.355469 248.933594 238.101562 252.164062 C 238.570312 253.253906 238.683594 254.699219 238.59375 256.351562 C 233.839844 265.453125 220.859375 268.335938 206.816406 269.40625 C 191.234375 270.59375 173.785156 269.894531 159.28125 268.175781 C 149.28125 266.988281 140.632812 265.316406 133.664062 260.292969 C 129.492188 257.28125 124.652344 254.179688 126.523438 248.46875 C 126.65625 248.0625 127.757812 246.652344 127.753906 246.5 C 127.742188 245.863281 126.269531 244.96875 126.03125 244.28125 C 124.855469 240.921875 126.535156 238.03125 128.738281 236.648438 C 127.132812 202.511719 124.097656 169.09375 125.539062 136.398438 C 125.71875 132.285156 126.242188 127.816406 127.015625 123.835938 C 128.335938 117.015625 129.582031 110.542969 132.679688 105.363281 C 138.1875 96.15625 148.542969 89.289062 153.863281 80.734375 C 156.433594 76.597656 156.140625 71.5625 156.078125 65.214844 C 156.042969 61.222656 156.507812 56.6875 155.832031 54.132812 C 155.253906 51.9375 151.632812 50.335938 151.398438 47.972656 C 151.238281 46.324219 152.191406 44.722656 153.617188 43.539062 C 151.800781 40.175781 153.550781 34.292969 157.066406 33.195312 C 157.851562 32.949219 159.019531 33.296875 160.265625 33.195312 C 163.4375 32.941406 166.65625 31.652344 170.117188 30.976562 C 176.984375 29.648438 184.886719 29.785156 192.777344 30.734375 C 201.398438 31.769531 208.058594 32.476562 206.324219 41.078125 " fill-opacity="1" fill-rule="evenodd"/></g><path fill="currentColor" d="M 148.199219 126.054688 C 146.246094 130.175781 145.164062 135.171875 140.070312 136.152344 C 138.816406 144.496094 140.546875 153.746094 141.054688 163.246094 C 141.890625 178.886719 141.792969 193.550781 141.792969 209.058594 C 141.792969 213.832031 141.0625 222.859375 142.285156 226.546875 C 143.039062 228.816406 147.539062 231.257812 146.226562 235.90625 C 154.925781 240.738281 167.886719 242.453125 181.203125 243.296875 C 194.621094 244.144531 208.964844 243.652344 219.378906 240.339844 C 219.949219 238.082031 219.46875 236.5625 220.613281 234.675781 C 221.707031 232.871094 224.292969 232.675781 225.046875 230.980469 C 226.171875 228.453125 225.726562 223.550781 225.539062 219.898438 C 224.183594 193.492188 224.757812 163.867188 224.554688 135.660156 C 220.511719 134.820312 216.742188 133.96875 214.453125 131.472656 C 212.910156 129.789062 212.875 127.34375 211.007812 125.808594 C 189.3125 126.425781 169.835938 125.675781 148.199219 126.054688 Z M 212.484375 123.589844 C 213.921875 125.613281 213.894531 128.03125 215.441406 129.75 C 217.820312 132.398438 221.757812 133.089844 226.03125 133.933594 C 226.496094 159.753906 225.605469 188.988281 226.769531 217.679688 C 226.925781 221.519531 227.875 230.492188 226.03125 233.199219 C 225.226562 234.382812 223.113281 234.351562 222.089844 235.90625 C 220.917969 237.695312 221.558594 238.953125 221.105469 241.078125 C 216.71875 245.097656 209.378906 245.367188 202.632812 245.761719 C 183.714844 246.855469 159.085938 245.785156 144.75 237.878906 C 145.492188 232.699219 143.128906 230.628906 140.808594 228.519531 C 139.679688 205.355469 141.007812 181.71875 139.328125 161.277344 C 138.609375 152.472656 137.789062 143.65625 138.34375 134.921875 C 140.636719 133.636719 142.808594 133.695312 144.257812 131.71875 C 145.914062 129.457031 145.027344 125.941406 147.210938 123.835938 C 169.519531 123.539062 192.859375 124.152344 212.484375 123.589844 " fill-opacity="1" fill-rule="evenodd"/><path fill="currentColor" d="M 205.832031 140.09375 C 206.078125 140.09375 206.324219 140.09375 206.574219 140.09375 C 206.605469 141.210938 207.175781 141.789062 207.3125 142.804688 C 206.929688 143.207031 206.351562 142.71875 205.832031 142.558594 C 205.832031 141.734375 205.832031 140.914062 205.832031 140.09375 " fill-opacity="1" fill-rule="evenodd"/><path fill="currentColor" d="M 202.140625 141.570312 C 203.699219 141.570312 204.492188 142.335938 204.601562 143.789062 C 204.023438 143.78125 203.875 144.210938 203.125 144.035156 C 203.15625 142.851562 201.71875 143.140625 202.140625 141.570312 " fill-opacity="1" fill-rule="evenodd"/><path fill="currentColor" d="M 150.660156 142.804688 C 150.578125 143.296875 150.710938 143.574219 151.152344 143.542969 C 150.492188 144.769531 150.160156 146.324219 148.199219 146.25 C 148.238281 145.964844 148.144531 145.8125 147.953125 145.757812 C 148.683594 144.601562 149.382812 143.414062 150.660156 142.804688 " fill-opacity="1" fill-rule="evenodd"/><path fill="currentColor" d="M 150.90625 147.976562 C 150.625 147.683594 150.628906 147.105469 150.660156 146.5 C 153.0625 144.535156 153.914062 147.945312 150.90625 147.976562 " fill-opacity="1" fill-rule="evenodd"/><path fill="currentColor" d="M 195.242188 172.605469 C 194.839844 178.96875 195.339844 184.273438 195.488281 190.585938 C 196.46875 191.003906 198.085938 190.777344 199.429688 190.832031 C 200.042969 188.574219 199 184.65625 200.660156 183.445312 C 203.414062 185.453125 204.675781 188.949219 207.558594 190.832031 C 209.078125 189.972656 210.582031 189.097656 211.746094 187.878906 C 210.570312 184.785156 207.582031 183.503906 205.585938 181.226562 C 206.976562 178.671875 209.175781 176.933594 210.265625 174.085938 C 209.398438 173.554688 208.890625 172.667969 207.804688 172.359375 C 205.386719 173.800781 204.140625 176.417969 201.890625 178.023438 C 199.761719 177.363281 201.496094 172.839844 200.167969 171.375 C 198.492188 171.75 196.960938 172.273438 195.242188 172.605469 Z M 202.386719 169.402344 C 202.847656 170.664062 202.546875 172.691406 202.632812 174.332031 C 204.386719 173.933594 205.632812 169.824219 208.050781 169.898438 C 209.050781 169.925781 212.148438 172.792969 212.238281 174.085938 C 212.417969 176.722656 209.039062 178.769531 208.542969 180.734375 C 210.363281 183.359375 214.328125 185.578125 213.46875 189.355469 C 211.128906 190.710938 209.507812 192.78125 206.574219 193.542969 C 204.878906 191.707031 203.84375 189.210938 201.648438 187.878906 C 201.292969 189.660156 201.222656 191.722656 200.660156 193.296875 C 198.917969 192.886719 195.164062 193.609375 193.273438 192.3125 C 193.859375 185.929688 192.449219 179.539062 193.273438 171.621094 C 195.386719 170.6875 198.535156 168.476562 202.386719 169.402344 " fill-opacity="1" fill-rule="evenodd"/><path fill="currentColor" d="M 180.464844 172.605469 C 180.621094 178.230469 181.054688 182.835938 181.203125 189.109375 C 183.890625 189.742188 188.136719 190.34375 189.824219 189.847656 C 190.175781 188.457031 190.09375 186.152344 189.824219 184.675781 C 188.414062 184.199219 186.75 183.972656 185.390625 183.445312 C 185.929688 179.957031 185.539062 175.417969 185.144531 172.605469 C 184.085938 172.207031 181.523438 172.207031 180.464844 172.605469 Z M 187.359375 181.964844 C 188.53125 182.519531 189.898438 182.878906 191.300781 183.199219 C 191.503906 185.585938 191.382812 189.421875 191.054688 192.0625 C 187.140625 192.582031 183.273438 192.027344 179.726562 191.078125 C 179.363281 186.378906 179.148438 178.746094 178.492188 171.621094 C 180.285156 170 184.660156 169.546875 186.375 170.882812 C 188.863281 172.816406 186.566406 179.15625 187.359375 181.964844 " fill-opacity="1" fill-rule="evenodd"/><path fill="currentColor" d="M 151.398438 173.097656 C 151.234375 173.097656 151.070312 173.097656 150.90625 173.097656 C 149.199219 177.714844 148.101562 182.941406 147.703125 188.863281 C 148.691406 188.863281 149.183594 189.355469 150.167969 189.355469 C 151.527344 187.839844 150.5 183.9375 152.878906 183.445312 C 154.429688 184.351562 153.527344 187.71875 156.574219 187.136719 C 157.5625 186.648438 156.480469 184.089844 157.804688 183.9375 C 161.144531 184.207031 160.746094 188.21875 162.730469 189.847656 C 164.050781 189.691406 165.492188 189.652344 166.671875 189.355469 C 166.230469 184.121094 163.429688 179.136719 162.484375 173.589844 C 161.792969 173.460938 161.203125 173.230469 160.511719 173.097656 C 158.566406 174.765625 157.992188 177.804688 155.09375 178.519531 C 153.566406 177.007812 153.28125 174.257812 151.398438 173.097656 Z M 153.125 171.128906 C 153.9375 172.695312 154.777344 174.234375 155.585938 175.808594 C 157.253906 174.765625 158.386719 173.1875 159.035156 171.128906 C 160.820312 170.984375 161.894531 171.554688 163.46875 171.621094 C 164.628906 175.644531 165.796875 180.960938 167.410156 185.414062 C 167.980469 186.988281 169.125 188.304688 168.394531 190.832031 C 166.199219 191.203125 163.148438 192.714844 161.003906 191.570312 C 160.597656 189.679688 159.824219 188.15625 159.035156 186.644531 C 158.246094 187.007812 158.242188 188.148438 158.050781 189.109375 C 156.136719 188.554688 155.777344 189.613281 154.109375 189.847656 C 153.808594 188.585938 153.339844 187.496094 152.628906 186.644531 C 151.820312 187.96875 151.972656 190.257812 150.90625 191.324219 C 149.382812 190.878906 147.214844 191.074219 145.734375 190.585938 C 146 184.734375 148.042969 176.730469 150.167969 171.128906 C 151.652344 171.167969 151.894531 170.921875 153.125 171.128906 " fill-opacity="1" fill-rule="evenodd"/><path fill="currentColor" d="M 171.84375 189.601562 C 173.0625 189.777344 174.296875 189.941406 175.785156 189.847656 C 175.261719 184.214844 174.855469 178.460938 174.058594 173.097656 C 172.664062 173.097656 171.269531 173.097656 169.871094 173.097656 C 169.902344 179.34375 171.230469 183.566406 171.84375 189.601562 Z M 175.292969 171.375 C 176.242188 177.070312 177.121094 184.96875 177.015625 191.570312 C 174.894531 192.238281 172.355469 192.121094 170.117188 191.570312 C 169.667969 185.15625 167.894531 177.652344 168.394531 171.375 C 170.019531 170.785156 173.113281 171.113281 175.292969 171.375 " fill-opacity="1" fill-rule="evenodd"/><path fill="currentColor" d="M 159.28125 222.359375 C 158.488281 223.03125 157.5 222.316406 157.066406 221.867188 C 156.640625 222.183594 156.570312 222.851562 156.078125 223.097656 C 155.046875 222.84375 154.328125 221.71875 154.847656 220.636719 C 156.09375 220.292969 155.523438 221.765625 156.574219 221.621094 C 157.023438 221.007812 156.550781 220.675781 156.816406 219.652344 C 158.386719 219.007812 158.386719 221.558594 159.28125 222.359375 " fill-opacity="1" fill-rule="evenodd"/><path fill="currentColor" d="M 204.109375 222.851562 C 204.675781 223.792969 204.105469 225.382812 203.371094 225.808594 C 201.195312 225.71875 202.554688 222.761719 204.109375 222.851562 " fill-opacity="1" fill-rule="evenodd"/><path fill="currentColor" d="M 207.066406 225.5625 C 207.738281 225.382812 207.5625 226.050781 208.050781 226.054688 C 207.90625 227.0625 207.824219 228.128906 206.574219 228.027344 C 205.851562 227.125 206.761719 226.207031 207.066406 225.5625 " fill-opacity="1" fill-rule="evenodd"/><g clip-path="url(#fcc2a6aa69)"><path fill="currentColor" d="M 113.019531 218.433594 C 111.636719 217.515625 108.117188 215.832031 109.199219 213.761719 C 109.347656 213.8125 109.585938 213.820312 109.640625 213.921875 C 110.523438 215.601562 112.105469 216.597656 113.425781 217.847656 C 113.875 218.140625 113.511719 218.675781 113.019531 218.433594 Z M 90.828125 214.949219 C 91.214844 214.503906 90.929688 214.003906 90.945312 213.558594 C 90.695312 212.613281 91.253906 211.46875 90.289062 210.777344 C 89.398438 209.933594 89.890625 215.390625 90.828125 214.949219 Z M 86.027344 214.167969 C 85.339844 214.765625 85.527344 216.832031 86.414062 216.90625 C 87.285156 216.886719 86.503906 214.503906 86.027344 214.167969 Z M 92.535156 226.328125 C 91.113281 225.019531 89.867188 223.566406 88.800781 221.953125 C 88.179688 221.117188 87.652344 221.742188 88.054688 222.546875 C 89.085938 224.085938 91.027344 227.046875 92.960938 227.136719 C 93.046875 226.75 92.757812 226.535156 92.535156 226.328125 Z M 115.628906 238.851562 C 117.246094 240.382812 122.6875 241.574219 124.488281 240.273438 C 124.011719 239.710938 123.386719 239.625 122.703125 239.730469 C 120.328125 240.082031 118.058594 239.15625 115.730469 238.792969 C 115.699219 238.8125 115.664062 238.832031 115.628906 238.851562 Z M 97.671875 218.230469 C 97.242188 217.730469 96.601562 217.167969 97.007812 218.050781 C 98.808594 222.886719 101.789062 221.535156 97.671875 218.230469 Z M 108.433594 221.644531 C 109.195312 221.695312 107.46875 219.453125 106.710938 219.441406 C 106.121094 220.105469 107.640625 221.816406 108.433594 221.644531 Z M 93.445312 245.328125 C 95.773438 245.183594 98.105469 245.082031 100.453125 245.003906 C 99.796875 244.464844 91.703125 243.695312 93.445312 245.328125 Z M 104.125 252.707031 C 105.863281 252.71875 106.972656 253.273438 108.128906 253.664062 C 109.902344 253.421875 106.117188 251.246094 104.125 252.707031 Z M 122.617188 246.871094 C 120.390625 247.160156 125.046875 249 124.222656 247.503906 C 123.851562 247.011719 123.308594 246.894531 122.617188 246.871094 Z M 128.152344 241.007812 C 134.808594 249.304688 133.492188 262.105469 121.394531 263.433594 C 113.613281 264.160156 106.503906 256.644531 98.851562 255.140625 C 89.242188 253.453125 75.148438 262.871094 69.53125 250.699219 C 68.605469 248.160156 66.957031 245.425781 68.375 242.804688 C 71.464844 233.933594 78.539062 228.519531 84.601562 227.054688 C 85.050781 226.875 85.308594 226.480469 85.046875 226.066406 C 82.5 221.042969 80.21875 215.542969 80.765625 209.824219 C 83.265625 194.949219 98.285156 176.925781 110.164062 195.472656 C 114.449219 202.59375 105.292969 208.5 118.695312 216.589844 C 124.367188 220.125 135.175781 222.566406 133.417969 231.21875 C 132.84375 236.011719 131.992188 237.890625 128.152344 241.007812 Z M 108.730469 205.75 C 109.363281 203.058594 109.453125 200.464844 109.144531 199.53125 C 109.015625 200.46875 108.730469 202.640625 108.730469 205.75 Z M 74.816406 235.667969 C 78.34375 234.074219 80.925781 230.878906 84.953125 230.183594 C 85.375 229.960938 87 229.839844 86.773438 229.242188 C 86.59375 228.964844 86.25 228.828125 85.925781 228.890625 C 81.40625 229.488281 77.5625 232.070312 74.820312 235.65625 C 74.816406 235.660156 74.816406 235.664062 74.816406 235.667969 Z M 127.214844 242.980469 C 126.277344 241.429688 124.714844 242.648438 123.402344 242.953125 C 115.621094 245.660156 103.574219 241.078125 96.675781 237.109375 C 93.957031 235.417969 91.542969 233.363281 89.300781 231.113281 C 85.164062 228.015625 76.679688 235.78125 73.433594 238.335938 C 73.191406 238.609375 73.136719 238.839844 73.296875 239.015625 C 73.375 239.105469 75.027344 238.597656 75.027344 238.597656 C 72.570312 241.128906 70.8125 240.730469 69.878906 244.019531 C 69.941406 245.308594 71.652344 244.117188 72.378906 244.089844 C 75.429688 243.324219 88.578125 240.449219 91.773438 240.417969 C 87.101562 242.28125 75.394531 243.292969 70.785156 245.632812 C 70.242188 245.792969 70.105469 246.308594 70.21875 246.867188 C 70.792969 249.964844 75.929688 246.628906 78.179688 247.519531 C 76.21875 248.777344 68.808594 248.308594 74.433594 251.019531 C 78.386719 254.277344 85.949219 250.816406 90.445312 250.949219 C 85.050781 252.800781 77.808594 255.191406 74.25 252.488281 C 73.796875 252.144531 73.363281 251.710938 72.703125 251.835938 C 76.652344 259.710938 93.117188 250.078125 100.421875 253.449219 C 106.820312 254.949219 116.105469 263.765625 122.234375 261.164062 C 121.664062 260.472656 120.960938 260.347656 120.363281 260.125 C 117.945312 259.28125 116.222656 257.320312 113.890625 256.328125 C 113.617188 256.191406 113.238281 256.121094 113.464844 255.636719 C 119.007812 256.675781 120.628906 262.289062 127.019531 258.25 C 120.082031 255.582031 114.164062 251.753906 107.136719 249.574219 C 108.242188 246.292969 129.027344 260.96875 128.664062 255.628906 C 127.042969 254.191406 121.390625 251.878906 120.058594 250.140625 C 123.164062 251.097656 126.53125 253.804688 128.335938 253.59375 C 128.289062 250.964844 127.636719 245.558594 125.613281 243.890625 C 125.496094 243.792969 125.5 243.566406 125.628906 243.46875 C 128.667969 243.707031 128.734375 249.589844 129.613281 251.929688 C 129.972656 248.777344 128.964844 245.566406 127.214844 242.980469 Z M 129.664062 235.3125 C 128.183594 234.433594 126.625 233.65625 125.539062 232.242188 C 126.671875 232.175781 130.441406 235.585938 130.488281 233.808594 C 130.394531 232.476562 127.230469 230.382812 126.066406 229.636719 C 125.984375 229.59375 125.996094 229.375 125.964844 229.238281 C 127.683594 228.582031 130.234375 232.636719 131.175781 231.871094 C 132.5 227.785156 122.671875 223.464844 120.785156 221.226562 C 122.609375 221.460938 129.09375 226.332031 130.996094 227.628906 C 128.101562 220.304688 111.570312 220.015625 108.714844 207.917969 C 107.9375 208.402344 107.925781 207.859375 107.867188 207.328125 C 107.613281 204.921875 107.402344 202.527344 107.714844 200.09375 C 108.011719 197.789062 107.238281 195.699219 105.808594 193.363281 C 105.773438 195.46875 106.378906 196.640625 105.480469 198.324219 C 104.933594 197.078125 105.0625 192.527344 103.410156 192.6875 C 103.804688 193.472656 102.863281 195.503906 102.65625 199.773438 C 102.5 203.074219 102.851562 207.839844 103.382812 212.074219 C 103.410156 212.277344 103.113281 212.339844 103.058594 212.140625 C 101.503906 206.429688 100.507812 200.394531 102.304688 193.480469 C 102.175781 192.269531 101.78125 190.554688 100.46875 190.195312 C 99.511719 190.1875 99.890625 194.242188 99.207031 195.398438 C 98.171875 194.171875 99.65625 190.746094 98.273438 190.09375 C 95.113281 189.511719 95.898438 203.785156 95.597656 206.539062 C 94.429688 201.132812 95.652344 196.808594 95.296875 191.585938 C 93.242188 194.242188 91.863281 197.695312 90.917969 200.984375 C 90.542969 201.910156 90.558594 203.925781 89.765625 204.433594 C 88.496094 203.683594 91.742188 195.003906 92.632812 193.707031 C 92.800781 193.226562 93.414062 192.636719 92.898438 192.199219 C 91.871094 192.234375 88.304688 198.597656 87.898438 199.796875 C 86.941406 202.578125 86.300781 205.425781 86.261719 208.386719 C 86.253906 208.902344 86.378906 209.472656 85.972656 210.101562 C 84.65625 208.105469 86.191406 205.214844 85.527344 203.15625 C 75.902344 220.507812 95.59375 239.140625 112.398438 241.113281 C 108.613281 238.632812 103.761719 237.695312 100.449219 234.519531 C 109.035156 238.105469 120.796875 246.257812 128.734375 237.476562 C 126.746094 236.628906 117.550781 234.777344 117.542969 233.023438 C 121.082031 234.265625 124.726562 235.515625 128.441406 236.34375 C 129.25 236.835938 130.863281 236.070312 129.664062 235.3125 Z M 106.230469 226.917969 C 104.4375 226.679688 109.648438 230.265625 109.988281 229.640625 C 110.046875 229.542969 107.304688 227.925781 106.230469 226.917969 Z M 106.230469 226.917969 " fill-opacity="1" fill-rule="nonzero"/></g></svg>