<svg width="117" height="118" viewBox="0 0 117 118" fill="none" xmlns="http://www.w3.org/2000/svg">
<path d="M4.89932 94.4169C4.92843 94.534 4.95978 94.6542 4.98814 94.7721C5.24339 94.5714 5.02546 94.5079 4.89932 94.4169Z" fill="#FEFEFE"/>
<path d="M4.88214 94.4026C4.88811 94.4079 4.89334 94.4108 4.89931 94.4168C4.89931 94.4079 4.89931 94.4026 4.89334 94.3937L4.88214 94.4026Z" fill="#FEFEFE"/>
<path d="M113.183 58.3243C112.43 57.7391 111.568 57.5458 110.633 57.616L110.658 57.6309C109.028 56.9697 108.859 56.03 109.404 54.3022C110.216 51.7325 108.902 49.6637 106.802 48.1075C102.357 44.8057 101.652 42.286 102.567 36.987C102.998 34.4904 104.184 33.203 106.204 32.2387C108.368 30.7333 109.4 28.6861 108.975 26.0522C108.807 25.0074 108.242 23.967 107.206 23.6639C105.993 23.3109 104.779 23.5893 103.86 24.6663C103.44 25.1566 103.237 25.8604 102.31 26.2239C102.338 22.584 99.9794 20.4158 97.6881 18.1507C95.8357 16.3199 94.5676 14.0279 93.3339 11.7545C92.8115 10.7842 92.4152 10.4573 91.4337 11.2679C86.6467 15.2235 81.0812 17.6394 75.1679 19.3284C74.2722 19.5837 73.6558 19.8717 73.5528 20.9846C73.1647 25.1775 73.0908 29.3436 74.0207 33.4851C74.9007 37.3982 76.8568 40.6291 80.0303 43.1025C78.725 44.7049 77.3069 46.1991 75.6575 47.453C73.0341 49.4413 73.5602 52.2669 73.7229 54.962C73.755 55.5038 73.9349 56.0143 73.6602 56.5293L73.6826 56.5144C73.2191 56.4793 72.749 56.4278 72.4885 56.9473L66.7834 59.1706L66.8334 59.1662L66.1684 59.0669C64.9101 57.2757 62.9591 56.2435 61.4164 54.7582C58.7878 52.2206 58.496 49.7577 60.4544 46.7059C61.2948 45.3953 62.3949 44.3236 63.5853 43.3473C62.5725 42.6077 61.9433 44.3586 61.0022 43.5533C62.0359 42.4771 63.4875 42.0405 64.6593 41.165C67.226 39.2454 67.4738 37.09 65.4348 34.6188C64.7936 33.8419 63.8226 33.2657 63.7346 32.1066C65.2549 33.1784 66.4587 34.5696 67.2066 36.2354C67.8604 37.6938 67.3775 39.1126 66.4371 40.3784C66.0938 40.8404 65.4161 41.1247 65.5467 41.883C68.7097 39.988 69.2546 36.9571 66.9521 34.1262C66.2923 33.3222 65.6368 32.5151 64.9855 31.7051L64.772 31.3506L64.5444 30.7901C64.4697 29.8661 64.3951 28.9421 64.3205 28.0181C64.6936 26.562 65.4855 25.3641 66.4849 24.2603C66.8252 23.8871 67.688 23.6557 67.1566 22.8362C67.1133 22.5183 67.1148 22.219 67.479 22.0727C70.2099 20.9741 70.9726 18.65 71.2615 16.0206C71.8086 11.044 74.3014 7.1637 78.3913 4.47312C84.5577 0.416731 91.0628 -1.12448 97.9307 2.92446C98.2777 3.12895 98.5785 3.22747 98.9606 3.11925C100.568 2.66323 101.986 3.23718 103.37 3.95292C108.309 6.50916 111.322 10.5603 112.05 16.034C112.514 19.5232 114.3 21.6152 117.402 22.8542C117.742 23.9677 118.273 24.9439 119.119 25.7925C120.94 27.6248 121.178 29.7638 120.064 32.0506C119.421 33.3732 118.599 34.6136 118.022 35.9615C116.645 39.176 117.509 41.212 120.715 42.5965C121.447 42.9122 122.2 43.1936 122.9 43.5668C125.457 44.9326 126.82 47.4328 126.11 50.1674C125.14 53.8932 123.403 57.1271 119.254 58.2564C118.019 58.5922 116.818 59.0542 115.601 59.4595C114.635 59.4102 113.85 58.9915 113.183 58.3243ZM82.7246 10.6872C82.75 10.6282 82.65 10.4424 82.588 10.4334C82.1477 10.367 81.9723 10.6939 81.7977 11.0104L81.4245 11.3783C80.6169 11.3485 79.9467 11.6022 79.2392 12.4471C80.3371 12.406 80.9894 12.1142 81.429 11.3828C81.5514 11.2589 81.6745 11.1358 81.7969 11.0096C82.132 10.9656 82.5418 11.1223 82.7246 10.6872ZM84.3875 9.53112C84.0509 9.5647 83.6464 9.41692 83.4598 9.85055C83.4344 9.91026 83.5344 10.0976 83.5956 10.108C84.0434 10.1827 84.2076 9.8416 84.3875 9.53186C85.0667 9.4729 85.463 9.12958 85.501 8.42503C85.807 8.4213 86.0824 8.35637 86.2392 8.05186C86.6735 8.00484 87.0751 7.89363 87.193 7.40328C87.2445 7.18833 87.0982 7.05101 86.8877 7.10101C86.3996 7.21595 86.2653 7.60106 86.2339 8.04514C85.9235 8.04141 85.6518 8.1138 85.4958 8.41831C84.8114 8.47578 84.4121 8.81761 84.3875 9.53112ZM94.4729 4.36565C92.7622 3.83724 91.2158 4.0589 89.9299 5.45905L89.4417 5.59787L89.535 5.73968L89.9358 5.46577C91.4875 5.25604 92.9055 4.48059 94.4729 4.36565ZM101.889 6.90323C104.33 7.3585 105.585 9.13406 106.689 11.1119C106.87 11.435 106.968 12.0933 107.549 11.8523C108.241 11.5634 107.847 10.9857 107.64 10.5991C106.482 8.42205 104.978 6.61141 102.415 6.04642C101.812 5.91283 101.378 6.09568 101.394 6.52185C101.525 6.62783 101.689 6.86666 101.891 6.90472L101.889 6.90323ZM96.0357 6.45542C94.6177 6.9204 94.2542 8.2877 93.428 9.25945C94.9207 8.85866 95.4431 7.62793 96.0402 6.45915L96.0357 6.45542ZM75.4455 13.7928C76.565 13.6763 77.7017 13.6383 78.5167 12.6814C77.3935 12.8076 76.3098 13.0069 75.4455 13.7928ZM96.4089 5.29187C96.3022 5.54786 96.4552 5.77923 96.7388 5.67997C96.9239 5.61578 97.0888 5.38591 97.1791 5.19186C97.2694 4.99781 97.1142 4.87839 96.7977 4.85899C96.6955 4.96721 96.488 5.10304 96.4089 5.29187ZM87.9199 6.34646C87.796 6.57932 87.8677 6.85397 88.2013 6.77038C88.3954 6.72187 88.5745 6.51065 88.6961 6.32929C88.7379 6.2666 88.5834 6.07255 88.4678 5.83446C88.2327 6.04642 88.0162 6.16435 87.9199 6.34646Z" fill="#2A3A70"/>
<path d="M16.8252 83.7628C16.6147 83.1926 16.8737 82.2701 15.7743 82.3664L2.06694 82.3739C0.424975 82.0805 0.0114995 82.7911 0.0338899 84.389C0.108525 90.0097 0.0338896 95.6334 0.0167236 101.256C0.0749387 102.132 0.133403 103.007 0.192115 103.883C1.49374 104.119 1.53554 105.086 1.53554 106.122C1.5236 110.907 1.5236 115.693 1.53554 120.48C1.54524 122.69 2.31323 123.436 4.54182 123.451C6.25842 123.463 7.97502 123.427 9.69161 123.414C9.67669 122.805 9.66201 122.196 9.64758 121.588C8.35864 121.588 7.06671 121.523 5.783 121.603C4.06043 121.709 3.32453 121.035 3.37081 119.257C3.45514 116.068 3.3611 112.876 3.41708 109.686C3.43126 108.883 2.92001 107.707 3.82757 107.34C4.71721 106.979 5.15084 108.208 5.8136 108.698C7.10851 109.655 7.76156 111.442 9.63564 111.651C10.3238 106.514 9.91328 101.351 9.99762 96.2014C10.0125 95.2648 10.1081 94.3729 10.4693 93.5108C10.3148 92.6219 10.7678 92.0793 11.5045 91.6994L11.5657 91.633C11.5888 91.1307 11.703 90.8061 12.2314 91.2927L12.9778 91.2748C14.1048 90.9016 13.4024 89.653 14.0413 89.0454C13.9667 88.2165 13.8921 87.3876 13.8174 86.5586C13.6681 86.2548 13.3942 85.9563 13.7756 85.6294C13.5517 84.3517 13.9338 83.6568 15.384 83.8621C15.8557 83.9262 16.3468 83.8001 16.8252 83.7628Z" fill="#98C878"/>
<path d="M45.2207 22.1153C47.8247 20.2875 48.1083 14.8115 45.2953 11.7209C42.7242 8.89596 38.6849 8.21305 35.8787 10.2021C34.4352 12.0679 33.9277 14.1674 34.0501 16.5229C34.2054 19.518 35.6996 21.5921 38.2625 22.8601C40.6657 24.049 43.0884 24.1013 45.2207 22.1153Z" fill="#FBC12F"/>
<path d="M45.2207 22.1152C43.0884 24.1013 40.668 24.049 38.2633 22.8616C35.7003 21.5928 34.2061 19.5195 34.0509 16.5244C33.9285 14.1689 34.436 12.0687 35.8794 10.2036C31.8186 11.8769 30.0176 17.0543 32.0634 21.1748C34.0904 25.2603 39.1984 26.7724 43.016 24.3886C43.9221 23.8221 45.0647 23.434 45.2207 22.1152Z" fill="#F19D15"/>
<path d="M9.69461 123.413C7.97801 123.427 6.26141 123.463 4.54481 123.451C2.31622 123.436 1.54823 122.69 1.53853 120.48C1.51763 115.693 1.51763 110.907 1.53853 106.122C1.53853 105.085 1.49897 104.118 0.195106 103.883C0.150823 110.784 0.106539 117.685 0.0622559 124.586C0.0622559 126.122 1.13625 126.372 2.31324 126.359C4.92545 126.33 7.53244 126.237 10.1409 126.169C10.1245 125.886 10.1086 125.604 10.0932 125.322L10.026 124.939C9.59534 124.51 9.67445 124.023 9.86253 123.521C9.80507 123.486 9.74984 123.449 9.69461 123.413Z" fill="#67AD72"/>
<path d="M64.3205 28.0181C64.6936 26.562 65.4855 25.3641 66.4849 24.2603C66.8252 23.8871 67.688 23.6557 67.1566 22.8362C64.9034 23.1176 63.6898 24.7812 63.0091 26.5874C62.3285 28.3935 61.7232 30.5132 63.7346 32.1103C65.2549 33.1821 66.4587 34.5733 67.2066 36.2391C67.8604 37.6975 67.3775 39.1163 66.4371 40.3821C66.0938 40.8441 65.4161 41.1285 65.5467 41.8867C68.7097 39.9918 69.2546 36.9609 66.9521 34.13C66.2923 33.3234 65.6368 32.5151 64.9854 31.7051C63.9607 31.6051 63.5181 31.108 63.6622 30.0265C63.7659 29.2496 63.6793 28.448 63.6771 27.6576C63.6345 27.6376 63.5944 27.6125 63.5577 27.583C63.5383 27.5651 63.5398 27.5248 63.5316 27.4942C63.5786 27.5494 63.6249 27.6047 63.6719 27.6591L64.3205 28.0181Z" fill="#C6E2F6"/>
<path d="M57.5287 48.4501C57.1555 52.8267 59.096 56.1308 62.5949 57.0809C62.5412 56.4771 61.9829 56.3711 61.6127 56.1032C57.4839 53.1125 56.9107 48.9979 60.0715 45.0117C60.2118 44.8341 60.2506 44.5758 60.3365 44.3557C58.3706 45.0124 58.2004 46.9014 57.5287 48.4501Z" fill="#2A3A70"/>
<path d="M62.0337 123.384C63.4689 120.27 65.0041 117.196 66.3102 114.029C67.591 110.925 68.1716 107.681 67.1543 103.783C65.7855 108.914 62.8136 112.18 58.5087 114.272L58.0653 113.013C58.1258 112.411 58.3363 111.744 57.9399 111.239C57.3578 110.501 57.5496 110.009 58.1034 109.361C58.6079 108.77 59.1184 107.966 57.7616 107.649L57.3832 107.657L49.2443 107.645C47.4993 105.142 46.8089 102.205 45.9029 99.3689C44.2848 94.2997 42.7637 89.1992 41.1867 84.1165C41.0822 83.7807 40.8516 83.4836 40.6792 83.1694C40.6687 82.7903 40.658 82.4114 40.6471 82.0327C44.2977 81.1943 47.9479 80.3547 51.5975 79.5138C51.9453 79.4332 52.2782 79.2854 52.6177 79.169L53.2081 79.1354L53.7194 80.1288C53.5858 80.4654 53.3424 80.7819 53.4887 81.1737C55.6979 87.1012 57.8981 93.0324 60.1372 98.9487C60.3342 99.4711 60.4529 100.15 61.2567 100.386C61.7045 99.4517 61.1328 98.6972 60.8544 97.9583C58.7945 92.5002 56.6891 87.0616 54.6127 81.6058C54.4844 81.27 54.4829 80.8856 54.4224 80.5236C55.4165 77.8942 55.2964 75.0969 55.4068 72.3847C55.6509 66.3356 58.5594 62.3949 64.1115 60.2484C64.7832 59.9886 65.5422 59.8819 65.9774 59.199C66.0171 59.193 66.0549 59.1781 66.0881 59.1555C66.1213 59.1329 66.149 59.1031 66.1692 59.0684L66.8342 59.1677L66.8237 59.2751L66.7834 59.1706L72.4862 56.9465C72.9273 56.9197 73.3819 56.9309 73.6804 56.5137L73.658 56.5286C74.782 56.6099 75.7045 55.8352 76.7979 55.7822C78.2786 61.5291 82.4701 64.8877 87.3214 67.6379C88.17 68.1193 89.0798 68.4925 89.9612 68.9157C89.9259 72.2991 89.891 75.6826 89.8567 79.066C88.4879 79.8385 88.3924 78.4533 88.1625 77.8718C87.3109 75.7134 86.5362 73.5117 85.9354 71.2719C85.204 68.544 83.2732 67.1267 80.8647 66.1333C76.9316 64.4984 72.6582 63.8504 68.4172 64.2458C67.9798 64.2854 67.7716 64.5443 67.7171 64.9615L66.9207 65.3265C65.9781 65.5347 66.3513 66.2968 66.2744 66.8662C65.7811 68.4753 66.4744 69.6613 68.2224 70.5703C70.5547 71.7839 72.834 73.0997 75.1298 74.3834C76.3463 75.0633 77.2196 76.0537 77.7972 77.3315C79.2944 80.6415 81.4312 83.2859 85.1547 84.2225C85.4854 84.2971 85.7936 84.4491 86.054 84.666C86.3144 84.883 86.5196 85.1587 86.6526 85.4704C86.6628 85.5764 86.6911 85.6799 86.7362 85.7764C83.7105 88.3371 83.7098 88.3371 86.522 90.8934C86.8385 91.1807 87.1288 91.5128 87.4871 91.7345C89.588 93.0354 90.4247 94.8609 89.8694 97.2918C89.2805 98.3367 89.7948 99.5025 89.5126 100.582L89.1895 100.887C87.4378 99.2704 85.7458 97.5814 83.9106 96.067C82.9545 95.2781 82.6418 94.543 83.4434 93.613C84.339 92.5838 83.9359 91.6875 83.3739 90.7568C79.9109 85.0219 74.8044 81.2782 68.7336 78.716C67.9447 78.3831 67.3469 78.2838 67.3618 79.5213C67.4118 83.6702 67.838 87.6774 70.5771 91.0897C72.066 92.9458 73.9356 94.1258 76.2307 94.5773C77.483 94.8236 77.8726 95.4498 77.7002 96.6305C76.8598 102.502 76.0523 108.376 74.426 114.103C73.6364 116.886 72.5109 119.537 71.4846 122.229C71.2876 122.747 71.0129 123.233 71.0547 123.812C70.9182 124.012 70.7816 124.213 70.6443 124.409H62.6039L62.0337 123.384ZM67.0916 100.817C65.0765 96.2984 63.6823 91.6024 63.4107 86.6601C63.3054 84.7315 63.7786 82.7739 63.9548 80.8266C63.9943 80.393 64.2854 79.7071 63.554 79.6467C63.077 79.6086 63.0315 80.2139 62.9569 80.6423C61.597 88.27 63.4166 95.3685 66.5826 102.235C66.7319 102.562 66.8752 102.925 67.5238 102.948C67.7984 102.109 67.376 101.451 67.0916 100.817Z" fill="#F19D15"/>
<path d="M34.4464 93.4951C34.436 92.1442 34.3464 90.7881 34.4308 89.4424C34.6241 86.357 33.3859 84.2374 30.446 83.1679C26.6471 82.7455 24.208 84.7442 24.4402 89.0506C24.726 94.3318 24.5894 99.6345 24.5947 104.919C24.5947 110.389 24.6036 115.871 24.4835 121.345C24.4752 121.718 24.4431 122.091 24.5155 122.451C24.8753 124.233 26.3068 123.772 27.477 123.82C28.9257 123.88 28.1271 122.803 28.1786 122.253C28.2921 121.04 28.0226 119.78 28.71 118.651C28.7598 118.396 28.8095 118.141 28.8593 117.886C28.4062 117.43 28.5652 116.848 28.5607 116.313C28.5503 112.324 28.5503 108.335 28.5607 104.346C28.5697 101.936 29.8713 100.155 32.2111 99.4703C32.8955 99.2696 33.3112 99.0002 33.3963 98.2926C33.368 97.7523 33.2724 97.2052 33.3217 96.673C33.4456 95.3938 33.3799 94.375 31.6275 94.634C30.9655 94.7318 30.5669 94.4146 30.9095 93.66C30.0594 92.7749 30.5214 91.6748 30.446 90.6747C30.3206 89.0178 30.9446 87.1877 29.1578 85.966C28.8593 85.7629 28.8324 85.2547 29.0869 84.9509C29.4504 84.5158 29.999 84.5718 30.452 84.7666C32.0193 85.4383 32.4858 86.8078 32.5328 88.3543C32.585 90.0709 32.5507 91.7927 32.5544 93.5123L34.4464 93.4951Z" fill="#3ABFC3"/>
<path d="M45.5409 62.8106C45.5409 64.0592 46.276 64.154 47.0873 63.586C48.0718 62.9001 48.7211 61.9441 48.477 60.629C49.4406 59.2677 48.3195 58.0653 48.1785 56.7883C48.077 55.8733 47.403 54.6411 48.9032 54.4142C50.1391 54.2276 50.4295 55.4285 50.6787 56.3823C50.7855 56.7883 50.7153 57.2406 50.7295 57.6712C50.8512 61.4328 50.6205 65.1578 49.5592 68.7918C42.9526 68.75 36.3489 68.7172 29.7407 68.6545C28.9675 68.647 28.1465 68.8784 27.4271 68.3791C27.7256 67.1901 29.1332 68.023 29.6236 67.1797C30.2953 65.6519 30.0221 64.0368 29.9475 62.471C29.8811 61.0805 28.5406 61.6731 27.7711 61.3716C27.7793 59.4684 27.7487 57.5652 27.8114 55.6613C27.8405 54.7829 27.4524 53.7954 28.2839 53.0543L32.9448 52.9051C34.966 53.2034 37.0198 53.206 39.0417 52.9125H39.1163C39.3419 53.0108 39.5857 53.0604 39.8317 53.0579C40.0778 53.0555 40.3205 53.0011 40.5441 52.8983H40.9524C41.5151 53.1222 42.0719 53.1603 42.6227 52.8536L42.9645 52.8058C45.4909 52.8804 45.5484 52.9386 45.5543 55.3434C45.5581 56.7338 45.5782 58.1243 45.5909 59.5147C45.573 60.6215 45.5387 61.7157 45.5409 62.8106ZM31.535 59.296L32.5798 59.3565C34.1815 59.5565 35.7824 59.5983 37.3811 59.3244C38.0744 58.5392 38.4402 55.571 37.9102 54.8217C37.5945 54.3739 37.1855 54.1865 36.6944 54.6097L34.4382 54.5896C34.3166 54.4194 34.2024 54.4328 34.0949 54.603L33.3195 54.6149C32.7109 54.2044 32.1032 54.2044 31.4961 54.6149L31.4417 54.6381L31.108 54.9829L30.855 56.8898C30.7274 57.5309 30.5311 58.1795 31.0588 58.7489L31.1088 58.734C31.1125 59.0258 31.1289 59.3102 31.535 59.296ZM31.261 66.3065C31.9036 68.3343 33.8688 67.4402 35.2443 67.4222C36.2422 67.4096 37.9595 67.8193 37.817 65.7571C37.8043 65.5743 37.817 65.3899 37.817 65.2063C37.7423 61.4291 38.1095 61.6739 34.3569 61.703C31.2193 61.694 30.2199 63.0203 31.261 66.3065ZM41.3113 67.2118C44.505 67.2222 44.6699 67.0737 44.6774 64.1734C44.6833 61.6679 44.4617 61.4253 42.1674 61.4283C38.9447 61.4283 38.9447 61.4283 38.932 64.2435C38.9193 67.1446 38.9663 67.2036 41.3113 67.2118Z" fill="#FCFDFC"/>
<path d="M49.5592 68.7985C42.9525 68.7567 36.3489 68.7239 29.7407 68.6612C28.9675 68.6537 28.1465 68.8851 27.427 68.3858C25.8411 68.4223 24.6424 68.3626 23.4251 66.6811C22.1504 64.9212 19.674 64.2129 17.2372 64.6884C16.6535 64.8026 16.2095 65.1526 16.0669 65.7333C15.8982 66.4259 16.4446 66.6684 16.9289 66.9662C20.751 69.315 24.9372 70.5718 29.3325 71.3264C32.6515 71.8958 35.9548 72.5369 39.3186 72.7773C40.0955 72.8325 40.2776 73.3915 40.4896 73.9968C41.2576 76.1918 41.5987 78.5241 42.6264 80.6348C43.3406 80.5132 44.0527 80.3616 44.7714 80.2751C47.3955 79.9594 49.8764 78.6256 52.62 79.169L53.2103 79.1354L53.3178 78.5219C52.9924 78.3726 52.4386 78.2846 52.3767 78.0614C51.5094 74.9491 50.0249 72.025 49.5592 68.7985Z" fill="#F4B28F"/>
<path d="M28.71 118.654C28.0226 119.783 28.2921 121.043 28.1786 122.256C28.1271 122.806 28.925 123.883 27.477 123.823C26.3098 123.775 24.8753 124.236 24.5155 122.454C24.4409 122.098 24.4752 121.717 24.4835 121.348C24.6036 115.874 24.5962 110.392 24.5947 104.922C24.5947 99.6375 24.726 94.3347 24.4402 89.0536C24.208 84.7472 26.6471 82.7484 30.446 83.1709C30.302 82.4148 30.8528 81.296 29.4235 81.2095C28.2294 81.2125 27.0352 81.2144 25.8411 81.2154C25.5022 81.3304 25.0096 81.3401 24.8469 81.5759C22.8318 84.5038 20.1785 87.2086 21.1637 91.2784C21.7742 92.142 22.2086 93.0182 22.2019 94.1563C22.1593 103.769 22.1728 113.383 22.166 122.996C22.166 124.041 22.1854 125.098 21.7108 126.077L29.0638 126.028C28.5704 123.586 28.8951 121.106 28.71 118.654Z" fill="#1795A6"/>
<path d="M21.7123 126.074C22.1869 125.095 22.1668 124.041 22.1675 122.993C22.1743 113.38 22.1608 103.766 22.2034 94.1534C22.2078 93.0152 21.7757 92.1383 21.1652 91.2755C19.7389 91.3606 19.1112 90.8001 19.0881 89.2604C19.0702 88.0849 19.4613 86.8526 18.8821 85.7033L18.4343 85.7525L14.1637 85.7585L13.7816 85.6234C13.3995 85.9518 13.6726 86.2503 13.8219 86.5534C14.411 86.5091 14.9999 86.466 15.5885 86.4242C18.1716 85.6294 18.5164 85.8645 18.5186 88.4215C18.5186 88.5446 18.5186 88.6685 18.5186 88.7946C18.55 90.0634 18.047 91.5561 20.0293 91.9383C20.4248 92.0129 20.3502 92.5309 19.986 92.8152C21.3951 94.487 20.6577 96.4462 20.6427 98.2829C20.6353 99.0226 19.7897 99.0226 19.1665 99.0166C17.635 99.0024 16.1065 98.9808 14.5727 98.9621C14.5523 99.6179 14.5322 100.273 14.5123 100.929C16.1385 100.472 17.7723 101.104 19.4016 100.891C20.4502 100.756 20.7771 101.259 20.7614 102.277C20.7166 105.155 20.7137 108.035 20.7808 110.913C20.8077 112.071 20.3427 112.405 19.2613 112.361C17.7947 112.298 16.3221 112.346 14.8526 112.347C14.8466 112.963 14.8404 113.579 14.8339 114.194C16.4844 114.204 18.1348 114.213 19.7852 114.222C20.3532 114.222 20.7219 114.421 20.7286 115.065C20.7345 115.636 20.548 116.024 19.9121 116.027C18.4455 116.031 16.9774 116.055 15.5086 116.014C14.6003 115.989 14.4958 115.288 14.4749 114.574C13.5092 114.742 13.7368 115.332 14.045 115.889C14.4033 116.536 14.522 117.221 14.5264 117.942C16.1796 117.931 17.835 117.951 19.4874 117.895C20.4487 117.864 20.798 118.26 20.7681 119.197C20.7204 120.727 20.7457 122.257 20.7398 123.791C21.5824 125.287 21.0055 125.742 19.4523 125.695C17.3081 125.63 15.1601 125.686 13.0128 125.69L10.7984 125.657L10.0849 125.32C10.0999 125.602 10.1155 125.885 10.1319 126.167C13.9995 126.491 17.8581 126.569 21.7123 126.074Z" fill="#EEC557"/>
<path d="M43.9974 113.853C43.9885 110.362 43.8437 106.863 44.0258 103.382C44.1258 101.474 43.2488 100.589 41.7569 99.8741C40.9695 99.5009 39.891 99.5099 39.5962 98.4031L35.2025 98.512C35.2144 100.741 35.2261 102.971 35.2376 105.202C38.885 105.225 40.7396 106.341 41.5815 109.017C42.4771 111.86 41.2763 114.118 37.8311 116.068C38.767 117.09 42.3697 117.274 43.722 116.367C43.751 116.323 43.7893 116.285 43.8341 116.258C43.879 116.23 43.9294 116.212 43.9818 116.206L43.9974 113.853Z" fill="#3ABFC3"/>
<path d="M32.5963 46.2708C34.1867 46.2335 35.7764 46.1678 37.3669 46.1641C43.5123 46.1521 43.5123 46.1596 42.8414 52.4938C42.7667 52.617 42.6921 52.7394 42.6227 52.8625C42.0734 53.1685 41.5151 53.132 40.9524 52.9066H40.5434C40.3199 53.0094 40.0773 53.0638 39.8314 53.0662C39.5854 53.0687 39.3418 53.0191 39.1163 52.9208H39.0417C37.0198 53.2142 34.966 53.2117 32.9448 52.9133C32.241 50.7265 32.7604 48.4807 32.5963 46.2708ZM40.3523 50.0958C40.8508 49.0689 40.9053 48.0464 40.3523 47.0291C39.8896 48.0717 39.9552 49.0898 40.3523 50.0958Z" fill="#3ABFC3"/>
<path d="M14.2473 73.437L13.2412 73.4564C10.832 73.7982 8.36982 73.0997 5.97853 73.8236C5.67999 75.9179 6.26736 78.0606 5.62625 80.1347L13.2942 80.1019V74.1416C14.0749 76.1149 13.5345 78.1517 14.1682 80.087L15.7698 80.1616C15.9467 77.9315 16.3804 75.6887 15.4713 73.5079L14.2473 73.437Z" fill="#E44635"/>
<path d="M57.3832 107.657L49.2443 107.645C47.6769 108.129 48.1792 109.398 48.1695 110.472H54.9381L54.9478 111.087C53.9425 111.441 52.8581 111.146 51.8221 111.287C51.9311 112.139 51.4042 112.549 50.7026 112.696C50.0011 112.842 49.2502 112.845 48.5225 112.911L54.7956 113.111L57.0346 113.124L58.0661 113.012C58.1265 112.411 58.337 111.743 57.9407 111.239C57.3585 110.501 57.5504 110.009 58.1041 109.361C58.6087 108.77 59.1192 107.966 57.7623 107.649C57.6392 107.832 57.513 107.832 57.3832 107.657Z" fill="#FCFDFC"/>
<path d="M35.2017 98.5158L39.5962 98.4061C39.6149 97.7993 39.6836 97.188 39.641 96.5842C39.5515 95.3102 39.7448 94.3863 41.3837 94.7094C41.78 94.7841 42.3809 94.7661 42.4406 94.2489C42.5219 93.5466 41.8435 93.5683 41.3957 93.56C39.082 93.5138 36.7624 93.5123 34.4457 93.4951L32.5612 93.5093L30.9155 93.6586C30.5729 94.4131 30.9715 94.7303 31.6335 94.6325C33.3859 94.3736 33.4516 95.3923 33.3277 96.6716C33.2762 97.2037 33.3717 97.7508 33.4023 98.2904L35.2017 98.5158Z" fill="#2A3A70"/>
<path d="M48.5188 112.911C49.2465 112.846 49.9884 112.844 50.6989 112.696C51.4094 112.547 51.9304 112.139 51.8184 111.287C49.5047 110.972 47.668 111.919 46.0656 113.472C45.4551 114.063 44.702 113.817 43.9945 113.853L43.9788 116.214C43.9241 116.413 43.8693 116.614 43.8146 116.818C43.7837 117.265 43.7534 117.713 43.7235 118.161C43.7407 120.176 43.531 122.2 43.8534 124.207H46.703C46.7388 122.591 46.4231 120.955 46.9821 119.369C46.4932 118.003 46.8604 116.583 46.7216 115.198C46.5828 113.813 47.0448 112.989 48.5188 112.911Z" fill="#F3D8CB"/>
<path d="M32.9418 52.9096C32.241 50.7265 32.7604 48.4807 32.5963 46.2671C27.1763 46.1029 28.0241 45.8461 27.9741 50.5496C27.9652 51.3893 27.7741 52.2699 28.2809 53.0544L32.9418 52.9096Z" fill="#1795A6"/>
<path d="M25.8425 81.2126C27.0367 81.2126 28.2308 81.2106 29.425 81.2066C29.0921 79.9378 29.3541 78.6399 29.2518 77.3622C29.1906 76.5934 29.522 76.2427 30.2378 76.1091C30.5557 76.0493 30.7819 75.8023 30.6998 75.4373C30.6851 75.3613 30.6551 75.289 30.6117 75.2249C30.5683 75.1607 30.5123 75.1061 30.4471 75.0642C30.3819 75.0223 30.3089 74.9941 30.2325 74.9813C30.1561 74.9685 30.0779 74.9713 30.0027 74.9895C26.9703 75.6612 23.7587 75.6508 20.9883 77.3167C20.583 77.5607 20.0598 77.8675 20.3748 78.4638C20.6793 79.0407 21.2077 78.8661 21.6518 78.6183C22.878 77.9361 24.3595 76.6845 25.4686 77.3928C26.406 77.9921 25.6537 79.8983 25.8425 81.2126Z" fill="#2A3A70"/>
<path d="M29.6206 67.1827C30.2923 65.6549 30.0191 64.0398 29.9445 62.474C29.8781 61.0836 28.5376 61.6762 27.7681 61.3746C27.2838 61.3993 26.7979 61.4426 26.315 61.4493C25.1104 61.4567 24.6686 61.9837 24.6805 63.2405C24.7223 67.5857 23.9528 67.4902 28.8929 67.229C29.1355 67.2163 29.378 67.1984 29.6206 67.1827Z" fill="#1795A6"/>
<path d="M13.2942 80.1019L5.62552 80.1355L2.07515 80.1184C2.03261 80.2587 1.99081 80.399 1.94827 80.5393L2.07142 82.3738L15.7781 82.3664C15.5785 81.6457 15.5769 80.8846 15.7736 80.1631C15.2397 80.1373 14.7056 80.1124 14.1712 80.0885C13.8756 80.093 13.5846 80.0975 13.2942 80.1019Z" fill="#67AD72"/>
<path d="M48.1688 110.472C48.1785 109.398 47.6784 108.129 49.2435 107.645C47.4985 105.142 46.8082 102.205 45.9021 99.3689C44.284 94.2997 42.763 89.1992 41.1859 84.1165C41.0815 83.7807 40.8508 83.4836 40.6784 83.1694C39.9604 84.336 40.968 85.3025 41.2337 86.2444C42.9055 92.186 44.6878 98.1023 46.8313 103.899C47.1478 104.756 47.1515 105.69 47.5948 106.534C48.0493 107.401 47.3933 107.579 46.688 107.599L46.7171 110.458L48.1688 110.472Z" fill="#F3D8CB"/>
<path d="M53.3148 78.5219L53.2073 79.1354L53.7186 80.1288C53.9514 80.2616 54.1848 80.394 54.4187 80.5258C55.4128 77.8965 55.2926 75.0991 55.4031 72.3869C55.6509 66.3355 58.5594 62.3948 64.1115 60.2483C64.7832 59.9886 65.5422 59.8819 65.9773 59.199C60.6283 60.4596 56.139 63.3934 55.1695 69.5672C54.7441 72.2809 54.344 74.9909 54.4463 77.7472C54.4791 78.6421 54.3478 79.2205 53.3148 78.5219Z" fill="#F3D8CB"/>
<path d="M52.617 79.1727C49.8734 78.6294 47.3926 79.9631 44.7684 80.2788C44.0497 80.3654 43.3377 80.5169 42.6234 80.6385C42.0524 80.8072 41.4748 80.9557 40.9128 81.149C40.4478 81.3095 40.1411 81.5633 40.6463 82.0365C44.297 81.1981 47.9471 80.3584 51.5967 79.5175C51.9445 79.4332 52.2774 79.2854 52.617 79.1727Z" fill="#191A36"/>
<path d="M22.284 59.9014C21.5809 60.0551 20.7241 60.1253 20.5263 61.1022C20.4099 61.6747 22.6072 63.9055 23.2415 63.8383C24.5671 63.6973 23.8983 62.6278 23.9961 61.9658C24.173 60.7649 23.7513 59.9208 22.284 59.9014Z" fill="#F4B28F"/>
<path d="M45.5909 59.5266C45.573 60.6215 45.5386 61.7157 45.5409 62.8106C45.5409 64.0592 46.276 64.154 47.0873 63.586C48.0717 62.9001 48.7211 61.9441 48.477 60.629C47.4247 60.4969 46.7813 59.296 45.5909 59.5266Z" fill="#F4B28F"/>
<path d="M18.4366 85.7562L18.8844 85.707C19.3531 83.8367 18.1955 83.6919 16.8275 83.7665C16.349 83.8038 15.8572 83.9292 15.3937 83.8643C13.9436 83.659 13.5629 84.3539 13.7853 85.6316L14.1682 85.7652C15.584 84.418 17.0125 85.4652 18.4366 85.7562Z" fill="#67AD72"/>
<path d="M5.97854 73.8237C8.36685 73.0997 10.8298 73.7983 13.2412 73.4565C10.8052 72.7848 8.32431 73.3371 5.86883 73.1788C4.84111 73.1124 3.80443 73.1714 2.77224 73.1699C2.21472 73.1699 1.64227 73.1341 1.51987 73.8879C1.56689 73.9297 1.61241 73.9722 1.65645 74.0162L5.97854 73.8237Z" fill="#F3D8CB"/>
<path d="M46.7171 110.458L46.688 107.599C44.6139 107.734 45.7073 109.307 45.6245 110.211C45.5536 110.978 46.1969 110.998 46.7171 110.458Z" fill="#ACB5D0"/>
<path d="M1.51987 73.8878C0.985489 75.8686 0.958621 77.8487 1.51987 79.8295L1.64451 79.716L1.65795 74.0162C1.61242 73.9722 1.56689 73.9296 1.51987 73.8878Z" fill="#F3D8CB"/>
<path d="M14.2473 73.437L15.4706 73.5117C15.0907 72.9952 14.6787 73.043 14.2473 73.437Z" fill="#F3D8CB"/>
<path d="M42.8414 52.4938C42.7667 52.617 42.6921 52.7394 42.6227 52.8625L42.9645 52.814C42.9123 52.7119 42.871 52.6046 42.8414 52.4938Z" fill="#1795A6"/>
<path d="M1.94454 80.5393C1.98683 80.399 2.02887 80.2584 2.07067 80.1176L1.64301 79.7161L1.51837 79.8295C1.54673 80.134 1.64003 80.3997 1.94454 80.5393Z" fill="#F3D8CB"/>
<path d="M127.232 93.2138L127.619 93.0503C127.096 86.1242 126.649 79.2018 125.454 72.331C124.442 66.4901 121.37 62.4792 116.13 59.9528C115.921 59.8513 115.771 59.6259 115.592 59.458C114.632 59.4102 113.848 58.9915 113.182 58.3243C112.227 58.4639 111.343 58.3512 110.631 57.616L110.656 57.6309L104.101 55.8345C103.324 57.3272 102.735 58.8833 101.702 60.2917C99.0778 63.8696 95.5819 66.2624 91.7935 68.3522C91.6442 68.6455 91.3852 68.7328 91.077 68.7209L91.0546 68.7388C91.0598 71.9772 91.077 75.2156 91.0621 78.454C91.0576 79.3213 91.1195 79.987 92.242 79.4123C92.8705 78.7816 93.4019 78.666 94.2445 79.2765C98.1927 82.1551 102.21 84.9383 106.203 87.755C106.269 87.5221 106.266 87.2251 106.412 87.0654C108.203 85.098 109.604 82.9149 110.583 80.4102C111.478 78.1241 112.633 75.9403 113.695 73.7214C114.13 72.8124 114.685 71.9884 115.771 71.3249C115.527 73.4348 115.174 75.2999 115.119 77.1733C114.963 82.5791 115.109 87.9811 115.98 93.3332C116.07 93.8832 115.966 94.2833 115.732 94.7176C116.004 95.3102 116.942 95.3282 117.001 96.1506C116.362 96.3745 116.087 95.8387 115.732 95.5834C108.785 90.6341 101.844 85.6764 94.9087 80.7102C94.1967 80.2019 93.5161 79.3668 92.5107 80.2214C91.3128 82.2738 89.1395 83.5321 88.061 85.6824C91.4696 88.6625 94.8602 91.6636 98.2919 94.6161C101.261 97.1701 104.381 99.5577 107.23 102.236C108.798 103.712 111.02 104.603 111.783 106.877C114.462 106.205 117.178 106.099 119.918 106.337L120.258 106.346L122.09 106.18L122.258 97.0828C122.215 96.3778 122.172 95.6727 122.129 94.9677L121.366 94.7184C120.881 94.7662 120.396 94.8677 119.912 94.8483C119.305 94.8214 118.468 95.1274 118.449 94.0019C118.431 92.8764 119.243 93.1279 119.867 93.1309C122.321 93.1451 124.775 93.1847 127.232 93.2138Z" fill="#FBC12F"/>
<path d="M104.603 32.4604C102.462 31.6327 101.908 33.0665 101.394 34.5786C100.685 36.646 98.7561 37.8909 97.8814 39.8426C96.176 40.7971 94.49 41.7875 92.7615 42.6973C89.7268 44.296 86.4399 44.4408 83.1082 44.2579C82.1845 43.6453 81.133 43.2519 80.034 43.1078C76.8576 40.6344 74.9044 37.4035 74.0245 33.4904C73.0945 29.3497 73.1684 25.1828 73.5565 20.9898C73.6595 19.877 74.2775 19.5889 75.1716 19.3337C81.0849 17.6417 86.6504 15.2243 91.4375 11.2732C92.4189 10.4626 92.8122 10.791 93.3377 11.7598C94.5714 14.0331 95.8394 16.3252 97.6918 18.156C99.9831 20.4211 102.342 22.5893 102.314 26.2292C103.241 25.8672 103.444 25.1619 103.864 24.6716C104.783 23.5983 105.996 23.3162 107.21 23.6692C108.246 23.9678 108.811 25.0126 108.979 26.0575C109.404 28.6914 108.375 30.7386 106.208 32.244C105.668 32.3261 105.043 32.6306 104.603 32.4604ZM93.21 27.9965C94.655 27.9853 94.4952 26.5882 95.0759 25.8321C94.7169 24.1051 93.4444 24.0775 92.1353 24.3633C90.974 24.6178 90.1202 25.4418 90.3441 26.6591C90.568 27.8764 91.3143 28.8429 92.8555 28.3899L93.2481 27.9868L93.21 27.9965ZM77.2382 28.3391C78.6936 28.4794 79.5064 27.7174 79.5019 26.3598C79.4967 24.9835 78.5436 24.3394 77.1972 24.2887C76.8986 24.2775 76.5896 24.2379 76.2904 24.2663C75.8545 24.3066 75.341 23.6774 74.9805 24.541C74.6656 25.2955 75.2171 25.5067 75.547 25.8941C75.488 27.1375 75.1238 28.5944 77.2322 28.3391H77.2382ZM87.3721 34.0278C85.2629 33.854 83.1433 33.8448 81.0326 34.0002C79.9288 34.0748 80.8893 34.589 81.0394 34.9032C81.4752 36.3459 82.3507 37.3983 83.8949 37.5707C85.251 37.7199 86.3742 37.1042 87.1885 36.0033C87.4311 35.6757 87.7154 35.2951 87.3109 34.8711C87.4348 34.5808 88.5148 34.1285 87.3691 34.0278H87.3721ZM94.0094 19.9278C92.7406 19.6576 91.4546 19.7658 90.209 20.1689C89.6388 20.3532 88.8656 20.4965 89.0962 21.2973C89.2902 21.969 90.0299 21.8287 90.5269 21.6533C92.2711 21.0361 93.9952 21.1608 95.9208 21.7742C95.8573 20.286 94.8527 20.1084 94.0064 19.9278H94.0094ZM75.3447 21.666C76.8643 21.1779 78.3704 21.2503 79.89 21.666C80.0403 21.7106 80.2018 21.6982 80.3435 21.6313C80.4853 21.5644 80.5975 21.4476 80.6587 21.3033C80.808 20.9742 80.6587 20.7316 80.4229 20.4958C79.4825 19.5457 75.9373 19.6218 75.0238 20.6338C74.8701 20.804 74.7917 21.0413 74.735 21.1436C74.7156 21.7459 75.0514 21.7593 75.3418 21.666H75.3447ZM105.279 27.9682C104.682 27.0561 104.575 26.3822 105.608 25.9075C106.701 25.406 106.938 26.3635 107.286 27.0673C107.361 27.2166 107.487 27.3405 107.614 27.5092C107.867 26.0978 107.272 25.1141 106.121 25.1007C104.813 25.0858 104.213 26.0366 103.733 27.0658C103.623 27.3017 103.771 27.5323 104.026 27.6547C105.176 28.204 104.763 29.1414 104.392 30.5356C105.659 29.5803 105.735 28.6727 105.276 27.9682H105.279ZM82.0335 30.0341C81.4924 30.8401 81.7573 31.1349 83.0381 31.8596C81.982 29.49 84.8569 27.9092 84.1143 25.1477C83.3053 27.0532 82.956 28.6548 82.0305 30.0341H82.0335ZM93.3309 31.8253C94.0661 31.8813 94.3251 31.2984 94.3684 30.6528C94.3982 30.205 94.2504 29.6878 93.7802 29.6825C93.0742 29.6758 92.9839 30.449 92.6294 30.8588C92.6361 31.3827 92.9399 31.7962 93.328 31.8253H93.3309Z" fill="#F4B28F"/>
<path d="M106.204 32.2395C105.666 32.3261 105.043 32.6306 104.603 32.4634C102.462 31.6357 101.908 33.0694 101.394 34.5815C100.685 36.6489 98.7561 37.8938 97.8814 39.8455C98.1187 40.9583 98.0702 42.0756 97.9359 43.1951C97.9747 45.0781 98.1262 46.9672 98.0254 48.8435C97.8672 51.7729 98.4285 54.1425 101.769 54.8292C102.617 55.0023 103.58 54.9083 104.101 55.8367L110.662 57.6339C109.032 56.9727 108.862 56.033 109.408 54.3052C110.22 51.7356 108.906 49.6667 106.805 48.1106C102.36 44.8087 101.656 42.2891 102.571 36.99C102.998 34.4912 104.184 33.2038 106.204 32.2395Z" fill="#191A36"/>
<path d="M83.1045 44.2579C82.1808 43.6453 81.1293 43.2519 80.0303 43.1078C78.725 44.705 77.3069 46.1992 75.6575 47.453C73.0341 49.4413 73.5602 52.267 73.7229 54.962C73.755 55.5039 73.9349 56.0144 73.6603 56.5293C74.7843 56.6107 75.7067 55.836 76.8001 55.783L78.8295 55.1911C79.5094 54.9426 80.1729 54.6045 80.8729 54.4635C82.4679 54.1425 83.3359 53.2566 83.3792 51.6109C83.2876 49.1614 83.1961 46.7104 83.1045 44.2579Z" fill="#191A36"/>
<path d="M101.394 6.51959C101.525 6.62482 101.693 6.86664 101.891 6.9047C104.332 7.35997 105.587 9.13553 106.691 11.1133C106.872 11.4365 106.97 12.0948 107.551 11.8537C108.244 11.5649 107.85 10.9872 107.642 10.6006C106.485 8.42351 104.981 6.61288 102.418 6.04789C101.813 5.91057 101.379 6.09342 101.394 6.51959Z" fill="#C6E2F6"/>
<path d="M89.9381 5.46573C91.4852 5.25601 92.907 4.48055 94.4751 4.36562C92.7645 3.8372 91.2181 4.05887 89.9321 5.45901L89.9381 5.46573Z" fill="#191A36"/>
<path d="M93.428 9.26319C94.9147 8.85867 95.4431 7.62795 96.0357 6.45917C94.6221 6.92638 94.2564 8.29145 93.428 9.26319Z" fill="#191A36"/>
<path d="M64.3205 28.0181L63.6734 27.6584L63.6786 27.6539C63.6786 28.4443 63.7674 29.2459 63.6637 30.0228C63.5196 31.1043 63.9622 31.6014 64.987 31.7014L64.7735 31.3469C64.6989 31.1618 64.6242 30.9737 64.5436 30.7901C64.468 29.8661 64.3936 28.9421 64.3205 28.0181Z" fill="#FCFDFC"/>
<path d="M78.5167 12.6792C77.3972 12.8076 76.3098 13.0068 75.4455 13.7905C76.5605 13.6741 77.7017 13.636 78.5167 12.6792Z" fill="#191A36"/>
<path d="M110.633 57.616C111.345 58.3512 112.229 58.4639 113.184 58.3243C112.43 57.7392 111.568 57.5459 110.633 57.616Z" fill="#191A36"/>
<path d="M81.4267 11.3784C80.6192 11.3485 79.949 11.6023 79.2414 12.4471C80.3393 12.4061 80.9916 12.1143 81.4312 11.3828L81.4267 11.3784Z" fill="#191A36"/>
<path d="M96.7977 4.85901C96.6955 4.96723 96.4872 5.10306 96.4089 5.29189C96.3021 5.54789 96.4551 5.77925 96.7388 5.67999C96.9238 5.6158 97.0888 5.38593 97.1791 5.19188C97.2694 4.99783 97.1142 4.87841 96.7977 4.85901Z" fill="#191A36"/>
<path d="M88.4678 5.83447C88.2327 6.04644 88.02 6.16436 87.92 6.34647C87.7961 6.57933 87.8677 6.85398 88.2013 6.77039C88.3954 6.72188 88.5745 6.51066 88.6962 6.3293C88.7379 6.26661 88.5835 6.07256 88.4678 5.83447Z" fill="#191A36"/>
<path d="M86.2392 8.05482C86.6736 8.0078 87.0751 7.8966 87.193 7.40625C87.2445 7.1913 87.0982 7.05397 86.8877 7.10398C86.3996 7.21891 86.2653 7.60403 86.2339 8.04811L86.2392 8.05482Z" fill="#191A36"/>
<path d="M84.3875 9.53187C85.0667 9.47291 85.463 9.12959 85.501 8.42504L85.4958 8.41907C84.8114 8.47579 84.4121 8.81762 84.3875 9.53112V9.53187Z" fill="#191A36"/>
<path d="M81.7992 11.0126C82.132 10.9656 82.5455 11.1224 82.7246 10.6872C82.75 10.6283 82.65 10.4424 82.588 10.4335C82.1477 10.3671 81.9723 10.694 81.7977 11.0104L81.7992 11.0126Z" fill="#191A36"/>
<path d="M84.3875 9.53113C84.0509 9.56471 83.6463 9.41694 83.4598 9.85056C83.4344 9.91027 83.5344 10.0976 83.5956 10.1081C84.0434 10.1827 84.2076 9.84161 84.3875 9.53188V9.53113Z" fill="#191A36"/>
<path d="M72.4862 56.948C72.9273 56.9211 73.3819 56.9323 73.6804 56.5151C73.2192 56.4838 72.749 56.4285 72.4862 56.948Z" fill="#191A36"/>
<path d="M85.501 8.42507C85.807 8.42134 86.0824 8.35641 86.2392 8.0519L86.2339 8.04518C85.9234 8.04145 85.6518 8.11384 85.4958 8.41835L85.501 8.42507Z" fill="#191A36"/>
<path d="M89.9321 5.45911L89.444 5.59793L89.5373 5.73973L89.9381 5.46582L89.9321 5.45911Z" fill="#191A36"/>
<path d="M81.4312 11.3828C81.5536 11.2589 81.6767 11.1358 81.7991 11.0096L81.426 11.3776L81.4312 11.3828Z" fill="#191A36"/>
<path d="M64.5444 30.7901C64.619 30.9759 64.6936 31.1633 64.7742 31.3469L64.5444 30.7901Z" fill="#C6E2F6"/>
<path d="M66.8334 59.1707L66.8229 59.2781L66.7834 59.1707H66.8334Z" fill="#F3D8CB"/>
<path d="M89.1895 100.891C87.4378 99.2748 85.7458 97.5859 83.9106 96.0715C82.9545 95.2826 82.6418 94.5475 83.4433 93.6175C84.339 92.5883 83.9359 91.692 83.3739 90.7613C79.9109 85.0263 74.8044 81.2827 68.7336 78.7204C67.9447 78.3876 67.3469 78.2883 67.3618 79.5258C67.4118 83.6747 67.838 87.6818 70.5771 91.0941C72.066 92.9503 73.9356 94.1303 76.2306 94.5818C77.483 94.8281 77.8726 95.4543 77.7002 96.635C76.8598 102.507 76.0523 108.38 74.426 114.107C73.6364 116.89 72.5109 119.542 71.4846 122.234C71.2876 122.751 71.0129 123.238 71.0555 123.816C75.9202 123.824 80.7856 123.816 85.6503 123.851C86.2638 123.855 87.0684 123.524 87.3669 124.471L88.0864 124.489C88.938 122.325 88.6237 119.994 88.714 117.79C88.9424 112.161 89.4664 106.532 89.1895 100.891Z" fill="#FBC12F"/>
<path d="M92.5525 124.439L93.9832 124.451C94.2967 123.519 95.0946 123.854 95.7058 123.849C99.8182 123.822 103.931 123.834 108.043 123.833C108.139 122.296 107.464 120.817 107.687 119.271C107.853 118.122 107.357 117.304 106.526 116.542C102.914 113.229 99.4353 109.763 95.7036 106.591C94.1803 105.296 93.0085 103.558 91.1158 102.7C91.1247 109.945 90.3993 117.179 90.7143 124.428L91.7591 124.437C92.0241 123.742 92.2883 123.748 92.5525 124.439Z" fill="#FBC12F"/>
<path d="M91.1181 102.7C93.0108 103.558 94.1825 105.296 95.7058 106.591C99.4376 109.763 102.914 113.229 106.528 116.542C107.359 117.304 107.856 118.122 107.689 119.271C107.465 120.817 108.141 122.296 108.045 123.833C108.068 124.032 108.089 124.23 108.112 124.43H110.622C110.658 124.09 110.693 123.749 110.728 123.406C110.689 123.306 110.639 123.21 110.579 123.12C110.48 122.99 110.38 122.86 110.281 122.729C108.974 120.666 109.012 118.4 109.286 116.1C109.237 114.752 109.18 113.402 109.146 112.053C109.129 111.363 109.051 110.751 108.463 110.24C103.04 105.519 97.6284 100.785 92.2294 96.0387C91.383 95.6715 90.9994 95.9058 91.0277 96.8694C91.0837 98.8106 91.0904 100.756 91.1181 102.7Z" fill="#F19D15"/>
<path d="M109.284 116.099C109.012 118.398 108.972 120.664 110.278 122.727C110.378 122.857 110.477 122.988 110.577 123.118C110.637 123.208 110.687 123.304 110.726 123.405C111.155 123.695 111.666 123.906 111.787 124.497C115.966 126.499 120.402 125.441 124.738 125.58C124.73 122.445 124.723 119.309 124.716 116.171L109.284 116.099Z" fill="#F3D8CB"/>
<path d="M43.8564 124.212C43.5339 122.202 43.7437 120.182 43.7265 118.166C42.9928 117.742 42.1838 117.914 41.4024 117.874C39.1006 117.754 36.7862 118.098 34.4935 117.674L32.8619 117.71H32.3559L28.8615 117.887C28.8118 118.143 28.762 118.398 28.7122 118.652C28.8973 121.107 28.5719 123.586 29.0675 126.026C33.3553 126.049 37.6423 126.034 41.9286 126.115C43.3392 126.141 43.7213 125.357 43.8564 124.212Z" fill="#E44635"/>
<path d="M62.0337 123.384C63.4689 120.27 65.0041 117.196 66.3102 114.029C67.5909 110.925 68.1716 107.681 67.1543 103.783C65.7855 108.914 62.8136 112.18 58.5087 114.272C58.2959 115.512 58.6311 116.809 58.1228 118.019C58.1228 118.497 58.1228 118.976 58.1228 119.455C58.2542 121.059 57.8713 122.694 58.4154 124.273L61.4694 124.208L62.0337 123.384Z" fill="#F3D8CB"/>
<path d="M89.1895 100.891C89.4664 106.535 88.9424 112.166 88.714 117.792C88.6237 119.996 88.9379 122.327 88.0864 124.492H89.2604C89.26 124.385 89.2984 124.281 89.3686 124.201C89.029 121.745 89.7761 119.331 89.6067 116.869C89.4395 114.435 89.4455 112.006 89.8642 109.555C90.1224 108.042 90.2217 106.394 89.6313 104.853L89.5126 100.584L89.1895 100.891Z" fill="#EEC557"/>
<path d="M91.118 102.7C91.0904 100.759 91.0837 98.8107 91.0255 96.8672C90.9971 95.9037 91.3808 95.6731 92.2271 96.0373C92.1084 95.2969 91.4875 94.9819 90.9441 95.1133C90.3836 95.2484 90.6852 95.9552 90.665 96.4075C90.6157 97.5076 90.6225 98.6107 90.606 99.7123C90.7292 100.809 90.7732 101.905 90.5314 102.996C90.5254 103.308 90.5197 103.62 90.5142 103.933C90.5337 103.945 90.5496 103.962 90.5604 103.982C90.5712 104.002 90.5763 104.025 90.5754 104.047C90.5745 104.07 90.5675 104.092 90.5552 104.112C90.5429 104.131 90.5256 104.146 90.5053 104.157C90.4018 108.141 90.2983 112.126 90.1948 116.112C90.1664 118.892 90.1383 121.673 90.1105 124.453C90.312 124.448 90.5142 124.442 90.7158 124.435C90.4015 117.178 91.127 109.945 91.118 102.7Z" fill="#EEC557"/>
<path d="M90.1105 124.447C90.1383 121.667 90.1664 118.886 90.1948 116.105C89.6507 118.202 90.1 120.343 89.9104 122.453C89.856 123.058 90.2776 123.848 89.3686 124.2C89.2983 124.28 89.2598 124.383 89.2604 124.49L90.1105 124.447Z" fill="#2A3A70"/>
<path d="M9.63863 111.651C7.76456 111.442 7.1115 109.655 5.81659 108.698C5.15384 108.208 4.72021 106.982 3.83056 107.34C2.92301 107.707 3.43425 108.883 3.42007 109.686C3.3641 112.876 3.45814 116.068 3.3738 119.257C3.32753 121.035 4.06342 121.709 5.78599 121.603C7.06971 121.523 8.36163 121.588 9.65057 121.588L9.87448 121.161C9.85448 121.15 9.83775 121.133 9.82588 121.114C9.81401 121.094 9.80739 121.071 9.80664 121.048C9.8059 121.025 9.81105 121.002 9.82161 120.982C9.83218 120.961 9.8478 120.944 9.86701 120.931L9.63863 111.651Z" fill="#67AD72"/>
<path d="M10.8074 125.658L13.0218 125.691C12.4613 124.439 12.2486 123.132 12.2516 121.758C12.2695 113.45 12.2852 105.142 12.2396 96.8305C12.2292 95.0236 12.3695 93.2809 13.0606 91.6061C13.036 91.4949 13.0106 91.3822 12.986 91.2725L12.2396 91.2904C12.1008 91.5673 11.856 91.6352 11.5732 91.6307L11.512 91.6964C11.5418 92.4099 11.5403 93.1144 10.791 93.5182L10.8074 125.658Z" fill="#F19D15"/>
<path d="M10.8074 125.658L10.7895 93.5197C10.685 93.5122 10.5798 93.5093 10.4753 93.51C10.114 94.372 10.0185 95.2639 10.0036 96.2006C9.91924 101.35 10.3297 106.514 9.6416 111.65C9.71624 114.743 9.79087 117.836 9.86551 120.929L9.94014 121.042L9.87446 121.161L9.65056 121.587C9.66449 122.196 9.67917 122.805 9.69459 123.413C9.74982 123.448 9.80505 123.488 9.85879 123.521C10.1476 123.968 10.0297 124.457 10.023 124.939L10.0902 125.322L10.8074 125.658Z" fill="#FBC12F"/>
<path d="M15.5907 86.4272C15.0016 86.4705 14.4127 86.5138 13.8241 86.5571C13.8998 87.387 13.9744 88.2162 14.048 89.0447C14.7556 89.6895 14.3302 90.5262 14.4264 91.274C14.8369 91.233 15.39 91.383 15.5086 90.8217C15.8154 89.3686 16.049 87.9005 15.5907 86.4272Z" fill="#F19D15"/>
<path d="M14.4264 91.274C14.3302 90.5277 14.7556 89.6895 14.048 89.0447C13.4092 89.6522 14.1115 90.8993 12.9845 91.274C13.0106 91.3852 13.036 91.4979 13.0591 91.6076C13.5629 91.692 14.0033 91.5188 14.4264 91.274Z" fill="#EEC557"/>
<path d="M10.4723 93.51C10.5768 93.51 10.682 93.51 10.7865 93.5197C11.5329 93.1137 11.5373 92.4114 11.5075 91.6979C10.7701 92.0785 10.3178 92.6211 10.4723 93.51Z" fill="#EEC557"/>
<path d="M11.5687 91.6322C11.8515 91.6367 12.0963 91.5688 12.2352 91.2919C11.703 90.8053 11.5918 91.1299 11.5687 91.6322Z" fill="#EEC557"/>
<path d="M68.3022 66.867C68.1597 65.8647 66.8341 66.2699 66.9215 65.3273L67.7171 64.9623C70.3569 65.3616 72.9124 66.1304 75.5253 66.7155C73.3609 65.2974 70.7786 65.0825 68.4179 64.2466C72.659 63.8526 76.9322 64.5022 80.8647 66.1386C83.2732 67.132 85.204 68.5493 85.9354 71.2772C86.5362 73.5162 87.3109 75.7187 88.1625 77.8771C88.3924 78.4593 88.4879 79.8445 89.8567 79.0713C89.9127 79.6474 89.956 80.2296 90.5941 80.5057L91.0904 80.5647C89.7127 82.2925 88.3289 84.0166 86.6519 85.4704C86.5191 85.1586 86.3141 84.8829 86.0538 84.6659C85.7935 84.4489 85.4853 84.297 85.1547 84.2225C81.4312 83.2859 79.2944 80.6401 77.7972 77.3315C77.2195 76.0538 76.3463 75.0634 75.1298 74.3835C72.834 73.0997 70.5547 71.7839 68.2223 70.5704C66.4744 69.6613 65.781 68.4754 66.2744 66.8663L68.3022 66.867ZM72.1832 67.694C73.3639 68.75 74.8492 68.9717 76.2881 69.3202C75.1604 68.1141 73.6349 68.0037 72.1817 67.694H72.1832ZM78.3898 67.7522C79.0444 68.5067 79.8422 68.9097 80.8259 68.8433C80.2109 67.9246 79.2899 67.8708 78.3883 67.7537L78.3898 67.7522ZM69.4598 67.0282C69.9166 67.7887 70.5278 67.5671 71.3607 67.526C70.6778 66.7282 70.1285 66.8267 69.4583 67.0282H69.4598ZM77.8554 70.142C78.0189 70.1823 78.2659 70.0793 78.154 69.88C78.0584 69.7061 77.8077 69.5815 77.6002 69.515C77.4457 69.4635 77.2554 69.5374 77.2905 69.8837C77.4487 69.9569 77.642 70.0882 77.8554 70.142ZM76.5538 67.1827C76.6508 67.3596 76.9061 67.4812 77.1173 67.5559C77.274 67.6081 77.5263 67.5036 77.424 67.2902C77.3345 67.1036 77.0912 66.9916 76.9762 66.8976C76.6844 66.9207 76.4426 66.979 76.5538 67.1812V67.1827Z" fill="#F4B28F"/>
<path d="M139.033 111.152L124.803 111.172C120.08 111.195 115.357 111.217 110.635 111.24C109.832 111.24 109.129 111.126 109.156 110.076C102.028 103.757 94.8998 97.4378 87.7721 91.1188C86.9444 90.3851 85.7801 89.7806 85.3965 88.8573C84.8741 87.5968 86.7855 87.2221 87.0437 86.0914L86.7362 85.7802C83.7105 88.3409 83.7098 88.3409 86.522 90.8971C86.8385 91.1844 87.1288 91.5166 87.487 91.7382C89.588 93.0391 90.4247 94.8647 89.8694 97.2948C89.8619 99.8167 90.1179 102.348 89.6313 104.856C90.2217 106.396 90.1224 108.045 89.8642 109.558C89.4455 112.008 89.4395 114.437 89.6067 116.872C89.7761 119.335 89.029 121.748 89.3686 124.204C90.2776 123.853 89.8559 123.062 89.9104 122.458C90.1 120.347 89.6507 118.204 90.1948 116.109C90.2978 112.125 90.4013 108.141 90.5053 104.157L90.4097 104.042L90.5142 103.934C90.5202 103.622 90.5254 103.31 90.5314 103.001C90.3075 101.902 90.3008 100.806 90.606 99.7167C90.6224 98.6151 90.6157 97.512 90.665 96.4119C90.6851 95.9596 90.3836 95.2528 90.9441 95.1177C91.4875 94.9863 92.1084 95.3013 92.2271 96.0417C97.6351 100.778 103.046 105.512 108.461 110.242C109.048 110.754 109.127 111.362 109.144 112.055C109.177 113.405 109.235 114.754 109.283 116.103L124.716 116.177L139.051 116.103C139.245 114.447 139.192 112.799 139.033 111.152Z" fill="#191A36"/>
<path d="M78.8287 55.1956L76.8001 55.7875C78.2809 61.5343 82.4723 64.8929 87.3236 67.6432C88.1722 68.1246 89.082 68.4977 89.9642 68.9202L90.6023 68.7709L91.0553 68.7425L91.0777 68.7246C91.1979 68.3716 91.4696 68.3126 91.7942 68.3559C95.5797 66.2662 99.0786 63.8704 101.703 60.2954C102.736 58.887 103.325 57.3339 104.101 55.8382C103.579 54.909 102.615 55.003 101.768 54.8299C101.926 55.4777 101.668 56.0472 101.406 56.6032C99.139 61.397 95.0841 64.1727 90.4538 66.3057C89.9231 66.5498 89.5007 66.3348 89.0618 66.1035C86.8228 64.928 84.686 63.6039 82.8396 61.8493C80.8893 59.9916 79.1914 57.9989 78.8287 55.1956Z" fill="#FCFDFC"/>
<path d="M67.5238 102.946C67.7984 102.109 67.3745 101.453 67.0916 100.815C65.0765 96.2962 63.6823 91.6001 63.4107 86.6578C63.3054 84.7293 63.7786 82.7716 63.9547 80.8244C63.9943 80.3908 64.2854 79.7049 63.554 79.6444C63.077 79.6063 63.0315 80.2116 62.9569 80.64C61.597 88.2699 63.4166 95.3684 66.5826 102.235C66.7341 102.561 66.8752 102.924 67.5238 102.946Z" fill="#E44635"/>
<path d="M54.4187 80.5258C54.1848 80.3935 53.9515 80.2611 53.7186 80.1288C53.585 80.4654 53.3417 80.7818 53.488 81.1737C55.6972 87.1012 57.8974 93.0324 60.1364 98.9487C60.3335 99.4711 60.4521 100.15 61.256 100.386C61.7038 99.4517 61.1321 98.6971 60.8537 97.9583C58.7938 92.5002 56.6883 87.0616 54.612 81.6058C54.4806 81.2722 54.4791 80.8893 54.4187 80.5258Z" fill="#E44635"/>
<path d="M90.6 68.7701L89.9619 68.9194C89.9261 72.3028 89.891 75.6863 89.8567 79.0697C89.9127 79.6459 89.956 80.2281 90.5941 80.5042C90.5961 76.5943 90.5981 72.683 90.6 68.7701Z" fill="#191A36"/>
<path d="M86.7362 85.7771L87.043 86.0883L88.0573 85.6853C89.1357 83.5351 91.3091 82.2767 92.5077 80.2243L92.0599 80.1907L91.0897 80.5638C89.7119 82.2909 88.3282 84.015 86.6512 85.4688C86.662 85.5756 86.6907 85.6799 86.7362 85.7771Z" fill="#2A3A70"/>
<path d="M58.1258 118.019C58.634 116.809 58.2989 115.512 58.5116 114.272L58.0683 113.013L57.0368 113.123C56.9871 113.956 56.9401 114.789 56.8958 115.622C56.8117 116.361 56.7271 117.1 56.642 117.839L58.1258 118.019Z" fill="#EEC557"/>
<path d="M67.7171 64.9623C70.3569 65.3616 72.9124 66.1304 75.5253 66.7155C73.3609 65.2974 70.7786 65.0825 68.4179 64.2466C67.9775 64.2861 67.7716 64.5488 67.7171 64.9623Z" fill="#EEC557"/>
<path d="M89.6313 104.853C90.1179 102.345 89.8619 99.8137 89.8694 97.2917C89.2805 98.3366 89.7948 99.5032 89.5126 100.583L89.6313 104.853Z" fill="#67AD72"/>
<path d="M66.2744 66.867H68.3022C68.1597 65.8646 66.8341 66.2699 66.9215 65.3273C65.9781 65.5355 66.3513 66.2953 66.2744 66.867Z" fill="#EEC557"/>
<path d="M57.3832 107.657C57.513 107.833 57.6392 107.829 57.7616 107.649L57.3832 107.657Z" fill="#F3D8CB"/>
<path d="M28.8615 117.886L32.3544 117.71C32.5216 117.523 32.691 117.531 32.862 117.71C33.4063 117.698 33.9499 117.686 34.4927 117.675C35.1794 117.377 35.5503 116.889 35.4369 116.108C32.75 115.305 30.9468 113.399 30.7207 111.123C30.4863 108.774 31.735 106.915 34.4196 105.616C34.6935 105.484 34.9652 105.344 35.2406 105.207C35.2286 102.977 35.2169 100.747 35.2055 98.5172L33.4038 98.2933C33.3187 99.0016 32.903 99.2711 32.2186 99.4718C29.8788 100.157 28.5772 101.935 28.5682 104.348C28.5528 108.336 28.5528 112.325 28.5682 116.315C28.5705 116.848 28.4085 117.43 28.8615 117.886Z" fill="#1795A6"/>
<path d="M30.9162 93.6602L32.5619 93.5109C32.5574 91.7943 32.5918 90.071 32.5395 88.3529C32.4925 86.8065 32.023 85.4421 30.4587 84.7652C30.0057 84.5704 29.4571 84.5144 29.0936 84.9495C28.8391 85.2533 28.866 85.7616 29.1645 85.9646C30.9513 87.1863 30.3273 89.0164 30.4527 90.6733C30.5281 91.6749 30.0631 92.775 30.9162 93.6602Z" fill="#ACB5D0"/>
<path d="M34.3554 61.7029C31.2207 61.694 30.2199 63.0202 31.261 66.3064C31.9036 68.3342 33.8688 67.4401 35.2443 67.4222C36.2422 67.4095 37.9595 67.8192 37.817 65.7571C37.8043 65.5742 37.817 65.3899 37.817 65.2063C37.7423 61.429 38.108 61.6738 34.3554 61.7029Z" fill="#EEC557"/>
<path d="M38.932 64.2458C38.9193 67.1468 38.9663 67.2058 41.3113 67.214C44.5049 67.2245 44.6699 67.0759 44.6773 64.1756C44.6833 61.6701 44.4616 61.4276 42.1674 61.4306C38.9447 61.4321 38.9447 61.4321 38.932 64.2458Z" fill="#3ABFC3"/>
<path d="M32.5828 59.3565C34.1845 59.5565 35.7854 59.5983 37.3841 59.3252C36.7049 57.8198 37.452 56.1054 36.6974 54.6098L34.442 54.5896L34.271 54.6277L34.0979 54.603L33.3232 54.615H31.4991L31.4454 54.6381L31.4722 55.0113C32.3044 55.0986 32.6343 55.5867 32.6134 56.3935C32.5873 57.3839 32.591 58.3706 32.5828 59.3565Z" fill="#EEC557"/>
<path d="M32.5828 59.3565C32.591 58.3706 32.5873 57.3839 32.6134 56.398C32.6343 55.5912 32.3044 55.1031 31.473 55.0157C31.3496 55.0239 31.2258 55.0128 31.1058 54.9829L30.8528 56.8891C31.3006 57.4668 31.0909 58.1176 31.0565 58.749L31.1065 58.734C31.3857 58.8176 31.4991 59.0274 31.5349 59.296L32.5828 59.3565Z" fill="#FBC12F"/>
<path d="M36.6974 54.6097C37.452 56.1024 36.7049 57.819 37.3841 59.3251C38.0774 58.5392 38.4431 55.571 37.9132 54.8217C37.6012 54.3746 37.1885 54.1865 36.6974 54.6097Z" fill="#F4B28F"/>
<path d="M31.4991 54.6179H33.3232C32.7142 54.2054 32.1061 54.2054 31.4991 54.6179Z" fill="#F4B28F"/>
<path d="M31.0565 58.7489C31.0909 58.1175 31.3021 57.4667 30.8528 56.889C30.7252 57.5287 30.5289 58.1795 31.0565 58.7489Z" fill="#F4B28F"/>
<path d="M31.5349 59.296C31.4991 59.0273 31.3857 58.8176 31.1065 58.734C31.1125 59.0258 31.1289 59.3102 31.5349 59.296Z" fill="#EEC557"/>
<path d="M31.108 54.9829C31.228 55.0128 31.3519 55.0239 31.4752 55.0158C31.4655 54.8911 31.4566 54.7665 31.4476 54.6426L31.108 54.9829Z" fill="#F4B28F"/>
<path d="M34.0979 54.603L34.2711 54.6276L34.442 54.5896C34.3173 54.4194 34.2054 54.4328 34.0979 54.603Z" fill="#F4B28F"/>
<path d="M14.4264 91.274C14.0033 91.5189 13.5629 91.692 13.0599 91.6077C12.3665 93.284 12.2262 95.0267 12.2389 96.8321C12.2844 105.14 12.2687 113.449 12.2508 121.76C12.2508 123.133 12.4606 124.441 13.0211 125.693C15.1683 125.688 17.3163 125.632 19.4605 125.697C21.0137 125.744 21.5906 125.29 20.748 123.793L20.0599 123.868C19.9703 124.224 20.1405 124.806 19.5434 124.77C19.0956 124.743 18.9612 124.275 18.9 123.857L15.234 123.82C14.6309 124.392 14.2503 123.92 14.2107 123.438C14.0891 121.982 13.5726 120.571 13.7502 119.082C13.8137 118.551 13.9741 118.137 14.5078 117.943H14.5354C14.5302 117.223 14.4115 116.537 14.0533 115.891C13.745 115.333 13.5174 114.744 14.4832 114.576L14.8392 114.195C14.8451 113.58 14.8514 112.965 14.8578 112.349L14.4899 111.987C14.3078 111.831 13.9928 111.696 13.9622 111.514C13.5935 109.333 13.7114 107.14 13.8958 104.952C13.9077 104.814 14.269 104.707 14.472 104.585V103.862C13.3699 103.119 13.3679 102.372 14.466 101.623L14.5175 100.93C14.5379 100.275 14.5575 99.6199 14.5764 98.9651C14.5445 98.8633 14.5211 98.7589 14.5063 98.6532C13.2897 98.0643 13.3778 97.4501 14.4705 96.8157V94.9834C14.2048 94.9252 13.8473 94.9125 13.9376 94.5259C13.9682 94.3945 14.2891 94.3303 14.4772 94.2355C14.6265 92.5466 15.8952 92.7376 17.0357 92.713C17.5686 91.4569 18.0529 92.4995 18.5545 92.7451L19.9867 92.8197C20.3517 92.5346 20.4263 92.0196 20.0307 91.942C18.0485 91.5562 18.5515 90.0657 18.5201 88.7984C18.5201 88.6753 18.5201 88.5514 18.5201 88.4252C18.5201 85.8683 18.1731 85.6332 15.59 86.428C16.0482 87.9006 15.8139 89.3686 15.5079 90.8218C15.39 91.383 14.8377 91.233 14.4264 91.274Z" fill="#FBC12F"/>
<path d="M14.4876 111.986L14.8556 112.348C16.3251 112.348 17.7977 112.299 19.2642 112.361C20.3457 112.408 20.8107 112.072 20.7838 110.913C20.7166 108.036 20.7196 105.156 20.7644 102.278C20.7801 101.26 20.4532 100.756 19.4046 100.892C17.7753 101.105 16.1415 100.473 14.5152 100.93C14.4988 101.161 14.4817 101.392 14.4652 101.622C14.4652 102.369 14.467 103.115 14.4705 103.861C14.4705 104.103 14.4705 104.344 14.4705 104.584L14.4876 111.986Z" fill="#F4B28F"/>
<path d="M14.5048 98.6524C14.5195 98.7579 14.543 98.862 14.5749 98.9636C16.1072 98.9815 17.635 99.0032 19.1695 99.0174C19.7927 99.0233 20.6383 99.0233 20.6457 98.2837C20.6636 96.447 21.398 94.4878 19.9889 92.816L18.556 92.7413L17.0371 92.7085C15.8975 92.7331 14.6287 92.5421 14.4787 94.231L14.472 94.9774C14.472 95.5879 14.472 96.1989 14.472 96.8104L14.5048 98.6524Z" fill="#F4B28F"/>
<path d="M15.2318 123.818L18.8978 123.856L20.0576 123.866L20.7458 123.792C20.7517 122.26 20.7264 120.732 20.7741 119.198C20.804 118.26 20.4547 117.865 19.4934 117.896C17.841 117.951 16.1856 117.931 14.5324 117.942H14.5056C14.763 119.899 13.8846 121.996 15.2318 123.818Z" fill="#F4B28F"/>
<path d="M14.8377 114.194L14.4817 114.576C14.5026 115.289 14.607 115.989 15.5153 116.015C16.9812 116.056 18.4492 116.032 19.9188 116.027C20.5547 116.027 20.7398 115.637 20.7353 115.065C20.7286 114.422 20.3621 114.226 19.7919 114.223C18.1395 114.216 16.4881 114.207 14.8377 114.194Z" fill="#F4B28F"/>
<path d="M18.4366 85.7563C17.0125 85.4652 15.587 84.4181 14.166 85.7623L18.4366 85.7563Z" fill="#E44635"/>
<path d="M41.5815 109.02C42.4771 111.863 41.2763 114.121 37.8311 116.071L35.4376 116.106C32.7507 115.303 30.9468 113.396 30.7207 111.121C30.4863 108.771 31.735 106.913 34.4196 105.614C34.6935 105.481 34.9651 105.342 35.2405 105.205C38.885 105.228 40.7396 106.344 41.5815 109.02ZM40.6001 112.005C41.3591 109.879 40.1836 107.235 38.0677 106.571C37.1773 106.291 36.1921 105.82 35.2435 106.526C33.2456 106.925 31.6051 108.853 31.667 110.733C31.7335 112.748 33.4299 114.518 35.5995 114.838C37.64 115.465 39.8015 114.241 40.6001 112.005V112.005Z" fill="#C6E2F6"/>
<path d="M37.8311 116.071L35.4376 116.106C35.5503 116.887 35.1793 117.374 34.4927 117.673C36.7862 118.092 39.1006 117.751 41.4024 117.871C42.1838 117.912 42.9928 117.739 43.7265 118.164C43.7569 117.716 43.787 117.268 43.8168 116.821C43.7847 116.671 43.7534 116.522 43.722 116.373C42.3696 117.277 38.767 117.093 37.8311 116.071Z" fill="#ACB5D0"/>
<path d="M43.7213 116.374C43.7526 116.523 43.784 116.672 43.8161 116.821C43.872 116.621 43.9265 116.419 43.981 116.218C43.9289 116.223 43.8787 116.24 43.8338 116.267C43.7889 116.294 43.7505 116.33 43.7213 116.374Z" fill="#C6E2F6"/>
<path d="M40.3501 47.0291C39.8896 48.0739 39.9552 49.0897 40.3501 50.0958C40.8509 49.0688 40.9053 48.0501 40.3501 47.0291Z" fill="#FCFDFC"/>
<path d="M1.64301 79.716L2.07066 80.1176L5.62551 80.1355C6.26737 78.0606 5.68373 75.9179 5.97853 73.8236L1.65644 74.0162L1.64301 79.716Z" fill="#191A36"/>
<path d="M13.2942 80.1019C13.5845 80.0974 13.8756 80.093 14.1674 80.087C13.5345 78.1517 14.0749 76.1149 13.2942 74.1416V80.1019Z" fill="#191A36"/>
<path d="M46.9851 119.372L47.9844 119.394L48.1016 119.372C47.9337 118.387 48.2904 117.936 49.3473 117.981C50.2921 118.022 51.243 117.916 52.1916 117.876C52.0468 115.81 51.1124 114.693 48.883 114.949H54.4478C54.564 114.953 54.6794 114.971 54.7919 115C55.4479 114.37 54.8665 113.741 54.7919 113.111L48.5188 112.911C47.0448 112.986 46.5858 113.819 46.7276 115.201C46.8694 116.583 46.4962 118.006 46.9851 119.372Z" fill="#F19D15"/>
<path d="M54.7919 113.111C54.8665 113.741 55.4479 114.37 54.7919 115C54.8209 115.073 54.8316 115.152 54.8232 115.23L54.8814 115.309C55.5442 115.459 56.1659 115.874 56.8913 115.621C56.9411 114.788 56.9886 113.956 57.0339 113.123L54.7919 113.111Z" fill="#F3D8CB"/>
<path d="M88.0543 85.6853L87.04 86.0883C86.7825 87.219 84.8704 87.5937 85.3936 88.8543C85.7772 89.7775 86.9415 90.3821 87.7692 91.1157C94.8958 97.4373 102.024 103.756 109.154 110.073C109.944 108.935 110.683 107.759 111.778 106.879C111.013 104.605 108.793 103.714 107.226 102.239C104.377 99.5599 101.255 97.1723 98.2874 94.6183C94.8565 91.6665 91.4658 88.6655 88.0543 85.6853Z" fill="#F19D15"/>
<path d="M115.73 94.7206C115.965 94.2862 116.068 93.8862 115.979 93.3362C115.107 87.9841 114.962 82.582 115.118 77.1763C115.171 75.3029 115.525 73.4378 115.77 71.3279C114.683 71.9914 114.128 72.8153 113.694 73.7244C112.631 75.9433 111.474 78.1278 110.581 80.4132C109.603 82.9179 108.205 85.101 106.411 87.0683C106.261 87.2281 106.267 87.5251 106.201 87.7572C107.593 88.8066 108.972 89.8746 110.38 90.9016C111.233 91.5218 111.714 91.2844 111.756 90.2052C111.81 88.811 111.884 87.4176 111.949 86.0257V83.8934C112.023 84.4039 112.055 84.6397 112.088 84.8711C112.909 85.7309 112.291 86.7064 112.312 87.6326C112.461 88.6588 112.561 89.682 112.119 90.6702C112.049 93.1518 114.256 93.6108 115.73 94.7206Z" fill="#F19D15"/>
<path d="M111.781 106.88C110.686 107.762 109.947 108.936 109.157 110.074C109.129 111.126 109.829 111.243 110.635 111.239C115.357 111.216 120.08 111.194 124.803 111.172C124.768 109.54 124.733 107.908 124.697 106.276L122.085 106.183L120.254 106.348C120.141 106.348 120.03 106.342 119.913 106.34C117.177 106.102 114.461 106.209 111.781 106.88Z" fill="#2A3A70"/>
<path d="M115.73 94.7206C114.256 93.6108 112.049 93.1533 112.118 90.6687C112.211 89.6589 111.925 88.6222 112.31 87.6288C112.292 86.7049 112.911 85.7294 112.086 84.8674C112.128 85.2622 112.193 85.6615 111.946 86.0234C111.881 87.4169 111.808 88.8103 111.754 90.203C111.712 91.2822 111.231 91.5195 110.378 90.8993C108.969 89.8723 107.59 88.8043 106.199 87.755C102.207 84.939 98.1889 82.1574 94.2408 79.2772C93.3981 78.663 92.8667 78.7824 92.2376 79.413L92.0584 80.1885L92.5062 80.2221C93.5108 79.3668 94.1915 80.2027 94.9035 80.7109C101.846 85.6657 108.787 90.6234 115.727 95.5841C116.086 95.8394 116.36 96.3775 116.995 96.1514C116.938 95.3311 116.003 95.3132 115.73 94.7206Z" fill="#191A36"/>
<path d="M92.0607 80.1908L92.2398 79.4153C91.1203 79.99 91.0561 79.3243 91.0606 78.457C91.0755 75.2186 91.0606 71.9802 91.0531 68.7418L90.6001 68.7702C90.6001 72.6825 90.5981 76.5946 90.5941 80.5065L91.0904 80.5654L92.0607 80.1908Z" fill="#EEC557"/>
<path d="M91.792 68.3552C91.4673 68.3119 91.1949 68.3709 91.0755 68.7239C91.3837 68.7359 91.6412 68.6493 91.792 68.3552Z" fill="#EEC557"/>
<path d="M83.1045 44.2579C83.1956 46.7104 83.2869 49.1631 83.3784 51.6161C83.5725 50.6026 84.0763 50.2204 85.2115 50.1592C87.8361 50.0268 90.3842 49.2307 92.6175 47.8456C94.6781 46.5805 96.1566 44.7341 97.9322 43.1906C98.0665 42.0711 98.115 40.9516 97.8777 39.841C96.1723 40.7956 94.4863 41.786 92.7578 42.6958C89.7231 44.2959 86.4362 44.4407 83.1045 44.2579Z" fill="#F57E63"/>
<path d="M81.0386 34.9032C81.4745 36.3459 82.35 37.3982 83.8942 37.5706C85.2503 37.7199 86.3735 37.1042 87.1878 36.0033C87.4303 35.6756 87.7147 35.295 87.3102 34.8718C85.2182 35.3129 83.1284 35.1174 81.0386 34.9032Z" fill="#E44635"/>
<path d="M77.2322 28.3391C78.6876 28.4794 79.5004 27.7174 79.4959 26.3598C79.4907 24.9835 78.5376 24.3394 77.1912 24.2887C76.8926 24.2775 76.5837 24.2379 76.2844 24.2663C75.8485 24.3066 75.335 23.6774 74.9745 24.5409C74.6596 25.2955 75.2111 25.5067 75.541 25.894C75.7754 25.7037 76.0164 25.5209 76.2441 25.3231C76.5919 25.0201 77.0322 24.7768 77.3726 25.1581C77.8204 25.6634 77.2046 25.8299 76.9247 26.0985C76.0493 26.9695 76.8315 27.6323 77.2322 28.3391Z" fill="#191A36"/>
<path d="M95.0789 25.8329C94.7199 24.1058 93.4474 24.0782 92.1383 24.3641C90.977 24.6186 90.1231 25.4425 90.3471 26.6598C90.571 27.8771 91.3173 28.8436 92.8593 28.3906L93.2511 27.9876L93.2093 27.9965C93.2384 27.7555 93.2974 27.5136 93.2914 27.2733C93.2548 25.6522 93.3168 25.5993 95.0789 25.8329Z" fill="#191A36"/>
<path d="M95.9178 21.7742C95.8573 20.2868 94.8527 20.1084 94.0064 19.9278C92.7376 19.6576 91.4516 19.7658 90.206 20.1689C89.6358 20.3532 88.8626 20.4965 89.0932 21.2973C89.2872 21.969 90.0269 21.8287 90.5239 21.6533C92.2681 21.0361 93.9922 21.1607 95.9178 21.7742Z" fill="#191A36"/>
<path d="M74.732 21.1405C74.7156 21.7458 75.0514 21.7592 75.3418 21.663C76.8613 21.1749 78.3674 21.2472 79.887 21.663C80.0373 21.7075 80.1988 21.6951 80.3406 21.6282C80.4823 21.5613 80.5945 21.4446 80.6557 21.3002C80.805 20.9711 80.6557 20.7285 80.4199 20.4927C79.4795 19.5426 75.9344 19.6187 75.0208 20.6308C74.8671 20.8009 74.7887 21.0383 74.732 21.1405Z" fill="#191A36"/>
<path d="M81.0386 34.9032C83.1284 35.1174 85.2182 35.3129 87.3079 34.8718C87.4348 34.5807 88.5148 34.1255 87.3691 34.0277C85.2599 33.8539 83.1403 33.8447 81.0297 34.0001C79.9258 34.0755 80.8894 34.589 81.0386 34.9032Z" fill="#FCFDFC"/>
<path d="M104.395 30.5355C105.659 29.5802 105.738 28.6697 105.276 27.9681C104.679 27.0561 104.572 26.3821 105.605 25.9074C106.698 25.4059 106.935 26.3635 107.283 27.0673C107.358 27.2165 107.484 27.3404 107.611 27.5091C107.864 26.0978 107.269 25.1141 106.118 25.1006C104.811 25.0857 104.21 26.0366 103.73 27.0658C103.62 27.3016 103.768 27.5322 104.023 27.6546C105.179 28.2039 104.766 29.1414 104.395 30.5355Z" fill="#E44635"/>
<path d="M84.1113 25.1477C83.3053 27.0531 82.956 28.6555 82.0305 30.034C81.4894 30.8401 81.7544 31.1349 83.0351 31.8596C81.979 29.4899 84.8539 27.9092 84.1113 25.1477Z" fill="#E44635"/>
<path d="M77.2323 28.3391C76.8285 27.6323 76.0463 26.9695 76.9285 26.1C77.2047 25.8276 77.8241 25.6649 77.3763 25.1596C77.036 24.7783 76.5956 25.0216 76.2478 25.3246C76.0239 25.5224 75.7791 25.7052 75.5448 25.8955C75.4881 27.1375 75.1238 28.5943 77.2323 28.3391Z" fill="#F3D8CB"/>
<path d="M95.0789 25.8328C93.3168 25.5992 93.2548 25.6522 93.2921 27.2733C93.2981 27.5136 93.2391 27.7554 93.21 27.9965C94.6549 27.9853 94.4952 26.5881 95.0789 25.8328Z" fill="#F3D8CB"/>
<path d="M92.6264 30.8588C92.6361 31.3812 92.9399 31.7962 93.328 31.8253C94.0631 31.8813 94.3221 31.2984 94.3654 30.6528C94.3952 30.205 94.2475 29.6878 93.7773 29.6825C93.0712 29.6758 92.9802 30.449 92.6264 30.8588Z" fill="#F57E63"/>
<path d="M97.9322 43.1921C96.1566 44.7356 94.6781 46.582 92.6174 47.8471C90.3842 49.2323 87.8361 50.0283 85.2114 50.1608C84.0763 50.222 83.5695 50.6041 83.3784 51.6176C83.3336 53.2596 82.4679 54.1485 80.8729 54.4694C80.1714 54.6105 79.5094 54.9486 78.8294 55.1971C79.1914 58.0004 80.8901 59.9932 82.8373 61.8441C84.6838 63.598 86.8198 64.922 89.0596 66.0983C89.4985 66.3296 89.9209 66.5461 90.4515 66.3005C95.0789 64.1712 99.1368 61.3955 101.403 56.598C101.666 56.042 101.926 55.4725 101.765 54.8247C98.4248 54.1358 97.8635 51.7684 98.0217 48.839C98.1225 46.9642 97.971 45.0752 97.9322 43.1921Z" fill="#F4B28F"/>
<path d="M32.8619 117.707C32.691 117.531 32.5216 117.523 32.3544 117.707H32.8619Z" fill="#ACB5D0"/>
<path d="M52.1916 117.875C51.243 117.916 50.2921 118.025 49.3473 117.981C48.2904 117.936 47.9337 118.387 48.1016 119.372C49.9376 119.417 51.7736 119.501 53.6096 119.488C54.7195 119.48 55.1889 119.776 54.9635 121.006C54.7769 122.022 54.8628 123.089 54.8426 124.133C54.8292 124.864 55.1359 125.268 55.936 125.287C56.7824 125.307 56.9809 124.874 56.9622 124.139C56.9361 123.156 57.0249 122.165 56.9421 121.186C56.8615 120.229 57.2078 119.675 58.1243 119.455C58.1243 118.976 58.1243 118.497 58.1243 118.019L56.6405 117.839L54.8366 117.92C53.9522 118.015 53.0693 118.076 52.1916 117.875Z" fill="#FCFDFC"/>
<path d="M90.606 99.7122C90.3008 100.801 90.3075 101.897 90.5314 102.996C90.7732 101.905 90.7292 100.809 90.606 99.7122Z" fill="#67AD72"/>
<path d="M90.5172 103.93L90.4127 104.037C90.4127 104.037 90.5083 104.155 90.5083 104.153C90.5918 104.081 90.5956 104.007 90.5172 103.93Z" fill="#67AD72"/>
<path d="M76.2859 69.321C75.1604 68.1149 73.6349 68.0044 72.181 67.6947C73.3624 68.75 74.8477 68.9717 76.2859 69.321Z" fill="#EEC557"/>
<path d="M80.8244 68.8434C80.2109 67.9246 79.2899 67.8731 78.3883 67.7522C79.0429 68.5068 79.8445 68.9098 80.8244 68.8434Z" fill="#EEC557"/>
<path d="M71.3593 67.5298C70.6778 66.7319 70.1285 66.8305 69.4583 67.032C69.9181 67.7888 70.5263 67.5671 71.3593 67.5298Z" fill="#EEC557"/>
<path d="M77.2934 69.8823C77.4487 69.9569 77.642 70.0882 77.8554 70.1405C78.0189 70.1808 78.2659 70.0778 78.154 69.8785C78.0585 69.7046 77.8077 69.58 77.6002 69.5136C77.4487 69.4621 77.2584 69.5359 77.2934 69.8823Z" fill="#EEC557"/>
<path d="M76.9785 66.8931C76.6844 66.9207 76.4426 66.9789 76.5538 67.1812C76.6509 67.358 76.9061 67.4797 77.1173 67.5543C77.2741 67.6066 77.5263 67.5021 77.4241 67.2886C77.3345 67.0991 77.0912 66.9864 76.9785 66.8931Z" fill="#EEC557"/>
<path d="M54.8351 117.92L56.6391 117.839C56.7237 117.1 56.8082 116.361 56.8928 115.622C56.1659 115.874 55.5442 115.458 54.8777 115.309C54.8643 116.179 54.8501 117.05 54.8351 117.92Z" fill="#F4B28F"/>
<path d="M14.4877 111.986L14.4697 104.584C14.2697 104.706 13.9055 104.813 13.8936 104.952C13.7092 107.139 13.595 109.333 13.96 111.513C13.9906 111.696 14.3055 111.83 14.4877 111.986Z" fill="#EEC557"/>
<path d="M15.2318 123.818C13.8846 121.996 14.7608 119.899 14.5056 117.942C13.9727 118.136 13.8115 118.549 13.748 119.081C13.5704 120.573 14.0869 121.981 14.2085 123.436C14.2481 123.918 14.6287 124.39 15.2318 123.818Z" fill="#EEC557"/>
<path d="M14.4705 103.861C14.4705 103.115 14.4687 102.368 14.4653 101.622C13.3701 102.371 13.3719 103.118 14.4705 103.861Z" fill="#EEC557"/>
<path d="M14.5048 98.6524L14.469 96.8157C13.3763 97.4493 13.2882 98.0636 14.5048 98.6524Z" fill="#EEC557"/>
<path d="M17.0372 92.7122L18.556 92.7451C18.0544 92.4988 17.5701 91.4561 17.0372 92.7122Z" fill="#EEC557"/>
<path d="M14.472 94.9826L14.4787 94.2362C14.2906 94.331 13.9697 94.3952 13.9391 94.5265C13.8488 94.9117 14.2063 94.9243 14.472 94.9826Z" fill="#EEC557"/>
<path d="M35.5996 114.838C37.6401 115.465 39.8015 114.241 40.6001 112.002C41.3591 109.875 40.1836 107.231 38.0677 106.567C37.1773 106.288 36.1922 105.816 35.2428 106.523C35.1204 107.821 35.4115 109.209 34.3867 110.313C34.2002 110.515 34.0367 110.893 34.3748 111.111C35.8018 112.031 35.3883 113.533 35.5996 114.838Z" fill="#3ABFC3"/>
<path d="M35.5995 114.838C35.3883 113.533 35.8018 112.031 34.3748 111.114C34.0367 110.896 34.2001 110.517 34.3867 110.316C35.4115 109.209 35.1204 107.824 35.2428 106.526C33.2456 106.924 31.6051 108.853 31.667 110.732C31.7335 112.746 33.4299 114.518 35.5995 114.838Z" fill="#1795A6"/>
<path d="M54.8351 117.92C54.8501 117.05 54.8652 116.179 54.8807 115.308C54.8807 115.308 54.8232 115.229 54.8232 115.233C54.6978 115.14 54.5724 115.045 54.45 114.951H48.883C51.1124 114.695 52.0468 115.812 52.1916 117.878C53.0693 118.076 53.9522 118.015 54.8351 117.92Z" fill="#FBC12F"/>
<path d="M54.4478 114.949C54.5724 115.043 54.6978 115.138 54.821 115.231C54.8294 115.153 54.8187 115.074 54.7896 115C54.6779 114.971 54.5633 114.953 54.4478 114.949Z" fill="#F4B28F"/>
<path d="M112.311 87.6289C111.925 88.6223 112.211 89.659 112.119 90.6688C112.559 89.6784 112.46 88.6551 112.311 87.6289Z" fill="#2A3A70"/>
<path d="M111.949 86.0242C112.196 85.6622 112.131 85.2629 112.089 84.8681C112.055 84.636 112.022 84.4023 111.949 83.8918V86.0242Z" fill="#2A3A70"/>
</svg>
