<svg width="131" height="118" viewBox="0 0 131 118" fill="none" xmlns="http://www.w3.org/2000/svg">
<path d="M86.7684 117.854C87.4371 117.795 88.1058 117.727 88.7745 117.651C94.2258 117.032 99.6174 115.97 104.896 114.474L86.9251 116.638L86.7684 117.854Z" fill="#A4DFFF"/>
<path d="M39.447 118.738L37.367 117.304L37.5319 118.761L39.447 118.738Z" fill="#70B8DF"/>
<path d="M50.5086 107.551C50.4482 107.6 50.2847 107.7 50.2482 107.762C50.184 107.876 50.1862 108.359 50.1735 108.509L49.8951 111.215L50.0086 111.395L51.158 111.405C50.7497 110.16 50.4743 108.942 50.681 107.637L50.5086 107.551Z" fill="#B5E5D7"/>
<path d="M33.1912 111.397L30.4155 108.126L30.7342 111.416L33.1912 111.397Z" fill="#70B8DF"/>
<path d="M55.1039 118.763C55.4928 118.757 56.1092 118.678 56.4615 118.818L56.5936 118.847C57.6527 118.302 58.2662 117.709 58.9819 116.763L59.2633 116.112C58.805 115.978 58.3035 116.02 57.8296 116.017L55.4181 116.009L55.1039 118.763Z" fill="#B5E5D7"/>
<path d="M42.8899 116.106C42.3271 115.93 41.5756 116.012 40.9792 116.011H37.2415L37.3669 117.304L39.447 118.737C40.5277 118.737 41.7189 118.639 42.7824 118.812L42.8899 116.106Z" fill="#B5E5D7"/>
<path d="M36.5176 115.981L31.3245 116.001L31.5342 117.857C31.5604 118.12 31.5507 118.493 31.6678 118.727L37.1908 118.739C37.1162 118.257 37.0214 117.763 36.9908 117.276C36.9654 116.872 37.0326 116.468 36.896 116.082L36.5176 115.981Z" fill="#70B8DF"/>
<path d="M43.1436 118.709C43.7474 118.798 44.4557 118.732 45.0722 118.733H48.7159L49.0144 116.024L45.0774 116.014C44.5102 116.014 43.7601 115.925 43.2325 116.115L43.1436 118.709Z" fill="#B5E5D7"/>
<path d="M55.0852 116.008L49.4331 116.015C49.1413 116.601 49.1868 118.03 49.1211 118.73L54.7389 118.758L55.0852 116.008Z" fill="#B5E5D7"/>
<path d="M60.3552 111.809L55.9943 111.799L55.4644 115.698L59.3939 115.689C59.3469 115.292 59.5387 114.838 59.644 114.456L60.3552 111.809Z" fill="#B5E5D7"/>
<path d="M33.1912 111.397H36.4885L36.196 107.615H31.8821C31.4746 107.615 30.72 107.518 30.3894 107.711L30.417 108.128L33.1912 111.397Z" fill="#B5E5D7"/>
<path d="M30.4558 112.123L30.7753 114.576C30.8193 114.899 30.9477 115.371 30.8745 115.682C29.39 115.669 27.7346 115.518 26.2688 115.688L26.1845 115.905C26.2577 116.36 26.3855 116.804 26.5651 117.229C27.095 117.907 27.5966 118.316 28.3325 118.755L28.7579 118.897L29.3049 119.025C30.1259 118.887 31.1081 118.976 31.9508 118.974L32.0052 118.919L31.6641 118.727C31.547 118.493 31.5567 118.12 31.5306 117.857L31.3208 116.001L36.5139 115.981L36.4535 115.894C35.8758 115.677 35.0638 115.797 34.4264 115.703L31.279 115.683L30.8036 112.361L30.4558 112.123Z" fill="#70B8DF"/>
<path d="M30.4558 112.123L30.7752 114.576C30.8192 114.899 30.9476 115.371 30.8745 115.682C29.39 115.669 27.7346 115.518 26.2688 115.688L26.1844 115.905L26.259 115.924C26.7979 116.048 27.4002 115.998 27.9518 115.998H31.0118L31.2805 118.783C30.5341 118.787 29.4609 118.677 28.7615 118.893L29.3086 119.02C30.1296 118.882 31.1118 118.972 31.9544 118.969L32.0089 118.914L31.6678 118.722C31.5506 118.489 31.5603 118.116 31.5342 117.853L31.3245 115.997L36.5176 115.977L36.4571 115.89C35.8795 115.672 35.0674 115.792 34.43 115.698L31.2827 115.679L30.8073 112.357L30.4558 112.123Z" fill="#1D366D"/>
<path d="M30.4559 112.123C30.4413 111.997 30.4003 111.876 30.3357 111.767L25.2672 111.759L25.8307 114.621C25.9173 115.021 25.9748 115.554 26.1845 115.905L26.2688 115.688C27.7347 115.518 29.3901 115.669 30.8746 115.682C30.9492 115.371 30.8193 114.899 30.7753 114.576L30.4559 112.123Z" fill="#70B8DF"/>
<path d="M30.0146 107.6L24.4723 107.585C24.5253 108.386 24.7283 109.185 24.8761 109.974C24.9679 110.463 25.0096 111.042 25.2194 111.49C25.5761 111.311 26.212 111.404 26.6247 111.405L30.3938 111.414L30.0146 107.6Z" fill="#70B8DF"/>
<path d="M50.5153 105.502L50.3131 107.044L50.4937 107.268L51.1475 107.292L50.5153 105.502Z" fill="#B5E5D7"/>
<path d="M36.5012 111.822C36.128 111.611 35.5011 111.697 35.0697 111.701L30.9334 111.784C30.7752 112.008 30.8065 112.092 30.8095 112.361L31.285 115.683L34.4323 115.703L35.9996 115.691C36.3347 115.686 36.6116 115.765 36.8572 115.524L36.5012 111.822Z" fill="#70B8DF"/>
<path d="M36.5013 111.822L33.495 111.805L36.0012 115.691C36.3363 115.686 36.6132 115.765 36.8588 115.524L36.5013 111.822Z" fill="#B5E5D7"/>
<path d="M51.4923 111.805L49.8026 111.775L49.4294 115.703L55.1188 115.697C55.2099 114.929 55.7585 112.365 55.5547 111.824L54.883 111.817L51.4923 111.805Z" fill="#B5E5D7"/>
<path d="M54.8867 111.817L51.4923 111.805C51.742 112.006 52.0348 112.146 52.3476 112.214C53.1985 112.385 54.1463 112.27 54.8867 111.817Z" fill="#EFA54A"/>
<path d="M42.7376 111.751L36.9161 111.741C36.7669 112.049 37.146 114.924 37.1953 115.524C37.2554 115.585 37.3234 115.638 37.3975 115.682C37.5871 115.762 38.3513 115.682 38.5991 115.686L42.8921 115.702L42.9824 111.916L42.7376 111.751Z" fill="#B5E5D7"/>
<path d="M49.4937 111.773L43.3467 111.758L43.2841 115.705H49.0817L49.4937 111.773Z" fill="#B5E5D7"/>
<path d="M49.916 107.636L43.4347 107.626L43.3683 111.427L49.5182 111.421L49.916 107.636Z" fill="#B5E5D7"/>
<path d="M43.1086 107.617H36.5132L36.8423 111.104L36.9699 111.383L43.0004 111.425L43.1086 107.617Z" fill="#B5E5D7"/>
<path d="M59.9543 107.625L56.5779 107.609C56.4085 108.672 56.398 109.965 56.0607 110.967L56.0793 111.26C56.1521 111.282 56.2295 111.283 56.3032 111.265C56.5547 111.203 56.8779 110.991 57.1123 110.869C58.5303 110.127 59.249 109.027 59.9543 107.625Z" fill="#EFA54A"/>
<path d="M61.3292 107.609L59.9544 107.622C59.2492 109.024 58.5304 110.124 57.1094 110.862C56.875 110.983 56.5519 111.195 56.3003 111.257C56.2266 111.276 56.1492 111.274 56.0764 111.252C56.1376 111.31 56.1839 111.395 56.2645 111.425C56.4138 111.483 56.8735 111.434 57.0504 111.437L59.5604 111.48C59.691 111.48 60.2142 111.472 60.2933 111.543C60.3582 111.604 60.3336 111.718 60.3537 111.806C60.5463 111.443 60.5776 110.985 60.6702 110.588L61.3292 107.609Z" fill="#B5E5D7"/>
<path d="M86.6311 118.943C87.8327 118.79 89.2239 118.935 90.4531 118.934L99.2764 118.93H129.331H135.944L136.031 118.581C135.838 116.723 135.336 114.907 134.799 113.123C133.97 110.392 132.969 107.716 131.803 105.111L127.504 107.032C123.741 108.519 119.65 109.359 115.642 109.847C109.18 110.633 102.345 110.576 96.0082 108.962C94.2291 108.514 92.4834 107.942 90.7837 107.25C90.0732 106.96 89.2791 106.435 88.5649 106.23L88.4499 106.199L87.97 108.38L86.9251 116.644L86.7714 117.857L86.6311 118.943Z" fill="#1D366D"/>
<path d="M87.9662 108.377C90.3411 109.78 93.2586 110.435 95.9521 110.955C102.563 112.236 109.327 112.542 116.027 111.863C118.8 111.584 121.537 111.207 124.242 110.511L127.345 109.57C128.279 112.175 128.954 114.845 129.211 117.607C129.249 118.015 129.371 118.537 129.333 118.932H135.946L136.033 118.583C135.841 116.725 135.338 114.909 134.801 113.126C133.972 110.394 132.971 107.718 131.805 105.113L127.506 107.034C123.743 108.521 119.652 109.361 115.645 109.849C109.183 110.635 102.348 110.578 96.0104 108.965C94.2313 108.516 92.4856 107.944 90.7859 107.253C90.0754 106.962 89.2813 106.437 88.5671 106.232L88.4521 106.201L87.9662 108.377Z" fill="#0D2150"/>
<path d="M85.6407 43.1772C85.4914 42.9533 85.3422 42.6547 85.0817 42.5488C84.9041 42.9563 85.2631 44.1907 85.3743 44.6594L85.4937 44.6953C85.6332 44.1818 85.7362 43.7086 85.6407 43.1772Z" fill="#259571"/>
<path d="M89.0566 53.3954C88.4797 53.5596 87.8871 54.0612 87.3789 54.3859C87.6095 55.0576 87.817 55.8166 88.1677 56.4376C88.6126 55.5196 88.8163 54.3858 89.0566 53.3954Z" fill="#F3632D"/>
<path d="M87.5148 45.4685C88.1597 44.7453 88.6702 44.0385 89.05 43.1422L88.9627 43.0339L88.3701 43.372C88.2372 43.2483 88.0928 43.1375 87.9387 43.0414C87.4715 43.1742 87.1767 43.5213 86.8424 43.8534C86.6655 43.331 86.4602 42.6294 86.0527 42.2555C85.8288 42.4607 85.74 42.8929 85.6407 43.1772C85.7363 43.7086 85.6333 44.1818 85.4915 44.6953L87.5148 45.4685Z" fill="#24824C"/>
<path d="M22.7409 72.8669L22.3057 73.0162C22.9394 73.7841 23.2902 75.1171 23.6245 76.0575C24.1589 77.5547 24.7441 79.0556 25.165 80.5901C24.3 79.7878 23.3738 78.7645 22.3692 78.1525L22.1878 78.5055L22.199 78.5802C23.1215 79.1399 23.8746 79.884 24.6493 80.6252C24.856 80.8229 25.2284 81.1021 25.3747 81.3387C25.4568 81.4715 25.5038 81.8477 25.5441 82.0163C25.6121 82.291 25.6606 82.5134 25.6307 82.8008L25.9942 82.962L26.0845 82.8261C26.036 82.1544 25.8143 81.3334 25.5844 80.7013C25.1837 79.5915 25.9196 77.6219 26.1815 76.4688L25.7591 76.3434L25.1366 79.3093C24.8426 78.8108 24.6888 77.9816 24.4948 77.4196C23.9552 75.8791 23.4051 74.3596 22.7409 72.8669Z" fill="#31437C"/>
<path d="M76.4934 38.6342L76.8517 35.8846C76.5591 36.1944 76.2613 36.5929 75.8687 36.7713L75.3844 36.6825C75.1179 37.0266 75.0552 37.4385 74.9604 37.8535C74.5276 37.4968 74.1395 37.1587 73.6058 36.9713L73.4566 37.1042L73.4879 37.5341C73.1894 37.6192 72.7662 37.4467 72.4632 37.3766L73.8484 39.3395C74.7104 39.2768 75.6434 38.8432 76.4934 38.6342Z" fill="#24824C"/>
<path d="M97.6165 22.9728C97.1217 24.1588 96.9187 25.5462 97.4173 26.768C97.7458 27.5446 98.3581 28.1668 99.1294 28.5077L99.204 28.5369L99.8175 28.7608C99.8018 28.395 99.6458 27.9913 99.5503 27.6368L99.057 25.1947C98.7532 24.9059 98.5383 24.5439 98.3062 24.1976L97.6165 22.9728Z" fill="#F29785"/>
<path d="M99.0585 25.1925C98.7548 24.9037 98.5398 24.5417 98.3077 24.1954L98.0592 24.7723C98.0006 24.9053 97.9886 25.0541 98.0249 25.1947C98.0801 25.3656 98.1301 25.4492 98.1525 25.6358C98.2271 26.2374 98.6092 26.9673 99.0921 27.3584C99.2361 27.4651 99.39 27.5576 99.5519 27.6345L99.0585 25.1925Z" fill="#F3756C"/>
<path d="M17.5268 87.0892C16.0871 84.4599 15.5393 81.3782 14.1541 78.7406C14.2287 79.4668 14.5272 80.193 14.7377 80.8916C15.3841 82.994 16.0856 85.1674 17.1029 87.1221L19.7151 91.6211C19.1329 91.1195 18.5612 90.5874 17.9239 90.1619C16.2214 88.6349 14.2444 86.9616 12.23 85.8906L12.1449 85.8607L5.3427 82.9679L5.28822 82.9918L10.2783 85.2555C10.859 85.5413 11.5127 85.7779 12.0471 86.1436C13.1189 86.8832 14.1809 87.5617 15.1937 88.3901C15.4311 88.5842 15.8595 88.8581 15.9811 89.1223L14.2242 88.8238L11.8091 89.2245L8.09299 90.3015C8.28555 90.3956 8.84904 90.1873 9.08041 90.1313L11.7538 89.5081C12.7368 89.3074 13.8518 89.0745 14.8504 89.2245C16.0617 89.5149 16.829 89.7604 17.8433 90.506L17.891 90.5418L21.0048 93.328L21.4877 93.6929L21.4601 93.122C19.8718 91.4509 18.5351 89.1581 17.5268 87.0892Z" fill="#31437C"/>
<path d="M14.219 88.823C13.5697 88.5991 12.901 88.3297 12.2203 88.2319C10.4291 87.9759 8.59083 88.5051 6.99141 89.2768C5.78358 89.8547 4.65854 90.5916 3.64629 91.4681C4.84044 91.7487 6.02041 92.0122 7.25188 92.0383C9.57526 92.0868 11.9733 91.2173 13.9362 90.0097C14.2786 89.7965 14.5853 89.5308 14.8452 89.2223C13.8466 89.0731 12.7316 89.3052 11.7486 89.5059L9.07521 90.1291C8.84385 90.1851 8.28036 90.3933 8.0878 90.2993L11.8039 89.2223L14.219 88.823Z" fill="#7CBF56"/>
<path d="M22.178 96.6373C19.271 96.2074 16.2073 97.7083 13.607 98.8689C16.2073 100.307 18.824 100.745 21.7653 100.677C21.7511 100.148 21.775 99.8496 22.1631 99.4607C22.5139 99.1092 23.3573 99.2084 23.8372 99.1995L22.178 96.6373Z" fill="#7CBF56"/>
<path d="M20.2166 93.1667C19.074 92.1607 18.0321 91.674 16.4506 91.7658C13.4503 91.9382 10.4858 93.5011 8.13777 95.2737C11.6814 96.3932 15.5751 96.897 19.0106 95.0953C19.6285 94.7551 20.1589 94.2761 20.56 93.6959L21.4877 94.2228L21.4825 93.6892L20.9996 93.3242L20.2166 93.1667Z" fill="#7CBF56"/>
<path d="M20.2166 93.1667C18.044 93.1779 15.8669 93.3347 13.7749 93.9713C13.5577 94.0377 13.3211 94.0109 13.1569 94.1825C15.6356 93.8929 18.0493 93.3787 20.56 93.6989L21.4877 94.2258L21.4825 93.6922L20.9996 93.3272L20.2166 93.1667Z" fill="#14755F"/>
<path d="M12.2249 85.8899C12.3107 85.1532 12.0823 84.6733 11.6278 84.0987C10.0784 82.1582 7.29897 81.3827 4.93753 81.1349C3.51947 80.9856 2.05365 81.0603 0.638577 81.1752C2.78507 83.8486 5.00545 86.2638 8.63195 86.6743C9.81715 86.8086 10.9882 86.7303 12.0428 86.1392C11.5084 85.7764 10.8546 85.5369 10.2739 85.251L5.28384 82.9873L5.33832 82.9635L12.1405 85.8563L12.2249 85.8899Z" fill="#259571"/>
<path d="M26.2763 76.4575C26.948 76.3083 27.3354 75.8112 27.7205 75.2731C29.2826 73.0908 30.1274 70.1584 30.1662 67.4999C30.1901 65.9117 29.9423 64.3078 29.6849 62.7457H29.6199L29.3281 63.0793C27.3831 65.3183 25.6785 67.8372 25.1762 70.8241C24.9762 72.0026 25.0269 73.2296 25.1068 74.4163C25.156 75.1067 25.209 75.8567 25.765 76.3404L26.1875 76.4658L26.2763 76.4575Z" fill="#7CBF56"/>
<path d="M26.2762 76.4575C26.3725 75.5119 26.7002 74.517 26.9129 73.5886C27.4779 71.1137 28.1615 68.5358 28.4951 66.0244C28.2391 66.361 28.0682 67.2499 27.9391 67.6835L25.765 76.3411L26.1874 76.4665L26.2762 76.4575Z" fill="#14755F"/>
<path d="M101.292 6.67938C100.148 6.74208 99.2122 7.31303 98.4457 8.15118C97.8986 8.74826 97.471 9.43639 97.0456 10.1223C95.5678 13.4547 95.123 17.167 96.4582 20.6323C96.7672 21.4354 97.3434 22.184 97.6165 22.9699L98.3076 24.1954C98.5398 24.5417 98.7554 24.9037 99.0585 25.1925L98.6928 21.1622C98.5853 20.6607 98.5942 20.0972 98.5748 19.5837C98.4375 15.8423 100.09 12.989 102.553 10.3477C101.956 9.17442 101.574 8.4027 101.624 7.04509L101.829 6.92642C101.612 6.72342 101.571 6.7264 101.292 6.67938Z" fill="#1D366D"/>
<path d="M22.7423 72.8169C23.2796 72.3183 23.3394 71.7451 23.3632 71.0436C23.4812 67.9836 22.1504 65.1347 20.0793 62.9472C19.0434 61.8553 17.6768 60.4052 16.2901 59.7737C16.0587 63.9025 15.8751 67.494 18.8523 70.801C19.5636 71.5914 20.9272 72.9214 22.0534 73.0199L22.3079 73.0154L22.743 72.8662L22.7423 72.8169Z" fill="url(#paint0_linear_269_2002)"/>
<path d="M21.3757 69.6628L17.9425 62.8584L17.8679 62.9756L19.8263 67.3544C20.1853 68.1828 20.545 69.2762 21.0406 70.0166L22.3094 73.0154L22.7445 72.8662V72.8162L21.3757 69.6628Z" fill="#0C6165"/>
<path d="M85.3743 44.6595C83.9734 44.4027 82.9434 44.5587 81.7493 45.3939L81.5873 45.511C81.2552 45.8588 80.6738 46.226 80.5678 46.697L80.4999 46.6918L80.2207 46.6455C79.7416 47.0508 79.6707 47.4822 79.3453 47.9777C79.1505 48.2763 78.9131 48.3098 78.7982 48.6927L78.7146 48.7315C78.487 48.845 78.4609 48.9696 78.3728 49.1965L78.9534 50.2414L79.5893 50.1944L80.7648 50.0653L81.6739 49.9906L83.53 49.8264L83.2823 49.9906C83.4853 50.3026 84.4615 51.2199 84.7675 51.3281L84.8966 51.3385C85.2996 51.1893 85.7736 51.143 86.1982 51.0698L86.6774 52.2349L87.3789 54.3866C87.8872 54.0619 88.4798 53.5604 89.0567 53.3962C89.3329 52.6431 89.4083 51.7722 89.4926 50.9788C89.5777 50.7623 89.5456 50.425 89.5501 50.1891C89.5657 49.3107 89.5501 48.3449 89.2605 47.5023C88.9187 46.4955 88.4656 45.929 87.5148 45.4678L85.4937 44.6945L85.3743 44.6595Z" fill="#F7CA6D"/>
<path d="M80.4125 48.2628L80.1244 48.1628C79.9751 48.2434 79.8908 48.327 79.7199 48.3121C79.5781 48.8166 79.381 49.3114 79.5102 49.8324L79.5893 50.1943L80.7648 50.0652L80.5797 49.5301C80.3434 49.5175 80.1118 49.4594 79.8975 49.3592C80.0035 48.927 80.5588 49.0211 80.7633 48.5852L80.4125 48.2628Z" fill="#F9C444"/>
<path d="M83.5301 49.8271L83.2823 49.9906C83.4853 50.3026 84.4615 51.2198 84.7675 51.3281L84.8966 51.3385C85.2996 51.1892 85.7736 51.143 86.1982 51.0698C86.0848 50.919 85.9601 50.777 85.8251 50.6451C85.1631 49.969 84.4488 49.8369 83.5301 49.8271Z" fill="#1D366D"/>
<path d="M80.4999 46.6918L80.2207 46.6455C79.7416 47.0508 79.6707 47.4822 79.3453 47.9777C79.1505 48.2763 78.9131 48.3099 78.7982 48.6927L78.7146 48.7315C78.487 48.845 78.4609 48.9696 78.3728 49.1965L78.9534 50.2414L79.5893 50.1944L79.5102 49.8324C79.3811 49.31 79.5781 48.8166 79.7199 48.3121L80.4999 46.6918Z" fill="#F3632D"/>
<path d="M89.4918 50.978L89.3843 50.6847C89.3314 50.9355 89.2687 51.1594 89.3097 51.4146H89.044L88.9388 51.2459L88.6574 51.4243L88.7746 51.5228L88.6402 51.7124C88.5193 51.6654 88.4081 51.6378 88.3126 51.5505V51.8191C88.2036 51.8944 88.0835 51.9521 87.9566 51.9901L87.7745 52.3162C87.5506 52.2334 87.3506 51.9303 87.1819 51.7587C86.9692 51.8871 86.8699 52.0916 86.6751 52.2341L87.3767 54.3858C87.8849 54.0612 88.4775 53.5596 89.0545 53.3954C89.3329 52.6424 89.4082 51.7714 89.4918 50.978Z" fill="#EFA54A"/>
<path d="M76.4934 38.6342C75.6433 38.8432 74.7104 39.2768 73.8483 39.3417C73.0206 39.6231 72.4669 40.0881 72.0832 40.8844C71.4862 42.1129 71.4675 43.4452 71.5489 44.7849C71.7608 45.0998 72.2206 45.2065 72.5505 45.3752L75.6941 46.9582C75.5396 47.3672 75.2671 47.7747 75.2157 48.2016L75.141 48.2412C74.9514 48.3734 74.7729 48.5209 74.6074 48.6823C75.2261 49.051 76.0426 49.6727 76.3561 50.3048L76.4412 50.4616L78.9504 50.2429L78.3697 49.198C78.4578 48.9741 78.4839 48.8465 78.7115 48.733L78.7951 48.6942C78.9101 48.3113 79.1474 48.2755 79.3422 47.9792C79.6676 47.4836 79.7385 47.0523 80.2177 46.647L80.4968 46.6933L80.5647 46.6985C80.6707 46.2275 81.2521 45.8603 81.5842 45.5125C81.1193 43.4892 80.3632 40.9852 78.8354 39.5209C78.1398 38.8499 77.448 38.6245 76.4934 38.6342Z" fill="#F3882F"/>
<path d="M78.3713 49.1965C77.5503 48.2882 76.7055 47.6292 75.6927 46.9575C75.5382 47.3665 75.2658 47.774 75.2143 48.2009L75.1396 48.2404C74.95 48.3726 74.7715 48.5202 74.606 48.6815C75.2247 49.0502 76.0412 49.6719 76.3547 50.3041L76.4398 50.4608L78.949 50.2421L78.3713 49.1965Z" fill="#F9C444"/>
<path d="M22.3289 78.0868C22.2408 76.8673 21.2094 75.7515 20.3272 74.9843C17.7478 72.7363 13.5698 71.866 10.2418 72.1153L10.1582 72.122C10.6336 72.8863 11.1785 73.5737 11.739 74.2767C11.9547 74.5484 12.4055 75.0126 12.5152 75.3268C12.5682 75.4806 12.5047 75.9605 12.5017 76.1478C12.4905 77.0233 12.4577 77.9077 12.5017 78.7817C12.651 81.5141 14.1803 86.2175 17.1 87.1236C16.0827 85.1689 15.3834 82.9956 14.7348 80.8931C14.5206 80.1945 14.2243 79.4683 14.1512 78.7421C15.5364 81.3797 16.0842 84.4614 17.5239 87.0908C17.6762 86.821 17.7838 86.5284 17.8426 86.2243C18.4233 83.2695 17.1903 80.0729 15.5692 77.6577L17.3672 78.4906C18.8972 79.0675 20.5496 79.3392 22.0826 78.6347L22.196 78.5809L22.1849 78.5063L22.3662 78.1533L22.3289 78.0868Z" fill="#7CBF56"/>
<path d="M22.3288 78.0868L12.8808 73.6632V73.7378L18.7217 76.7844C19.8472 77.3628 21.0108 78.0659 22.1878 78.5085L22.3691 78.1555L22.3288 78.0868Z" fill="#14755F"/>
<path d="M22.199 78.5794L22.0855 78.6332C20.5525 79.3377 18.9001 79.066 17.3701 78.4891L15.5721 77.6562C17.1932 80.0714 18.4262 83.268 17.8455 86.2227C17.7868 86.5269 17.6791 86.8195 17.5268 87.0893C18.5351 89.1581 19.8719 91.4509 21.4549 93.1212L21.4705 92.9249L21.534 92.1487L22.0415 90.6784C22.1072 89.6477 22.7132 88.5812 23.5342 87.955C23.9753 87.6177 24.2805 87.5744 24.5216 87.0549C25.0843 87.296 25.6411 87.7662 26.2942 87.5856C26.7323 87.4647 26.9427 87.0549 27.1652 86.6959L27.4383 85.8264C27.4868 85.3436 27.5227 84.7502 27.4555 84.2673C27.3808 83.7277 27.0532 83.3262 26.6203 83.0217L26.0859 82.8254L25.9956 82.9612L25.6322 82.8C25.662 82.5127 25.6135 82.2902 25.5456 82.0156C25.5053 81.8469 25.4582 81.4708 25.3762 81.3379C25.2269 81.1013 24.8537 80.8222 24.6507 80.6244C23.8745 79.8833 23.1214 79.1392 22.199 78.5794Z" fill="#7CBF56"/>
<path d="M21.9706 84.5532L21.8288 83.0605L21.5556 86.3982C21.3959 87.7655 21.0959 89.1955 21.113 90.5717C21.1257 91.424 21.1041 92.1279 21.4705 92.9235L21.534 92.1473C21.4489 91.2561 21.5772 90.2583 21.6444 89.3619L21.9706 84.5532Z" fill="#24824C"/>
<path d="M25.6306 82.8L25.4321 82.8366C24.8686 83.047 24.2499 83.3359 23.6409 83.3769C23.0766 83.5142 22.7863 83.7016 22.3982 84.13L22.3161 84.2748C22.2557 84.7905 22.5878 85.1741 22.8878 85.5577C23.3267 86.1168 23.8849 86.7153 24.5163 87.0549C25.0791 87.296 25.6359 87.7662 26.2889 87.5856C26.727 87.4647 26.9375 87.0549 27.1599 86.6959L27.4331 85.8264C27.4816 85.3435 27.5174 84.7502 27.4502 84.2673C27.3756 83.7277 27.048 83.3262 26.6151 83.0217L26.0807 82.8254L25.9904 82.9612L25.6306 82.8Z" fill="#AE271F"/>
<path d="M25.6307 82.8L25.4321 82.8366C25.2366 83.0381 25.0142 83.2568 24.8851 83.5083C24.8279 83.6075 24.7933 83.7182 24.7836 83.8323C24.7739 83.9464 24.7894 84.0613 24.8291 84.1688L25.0575 84.183C25.4135 83.8628 25.9449 83.4568 25.9941 82.9597L25.6307 82.8Z" fill="#F3632D"/>
<path d="M22.402 84.13L22.3199 84.2748C22.2595 84.7905 22.5916 85.1741 22.8916 85.5578C23.3305 86.1168 23.8887 86.7153 24.5201 87.0549C25.0829 87.296 25.6397 87.7662 26.2927 87.5856C26.7308 87.4647 26.9413 87.0549 27.1637 86.6959C26.7308 86.2563 26.0919 86.0892 25.5426 85.8354C24.4985 85.3533 23.3327 84.8047 22.402 84.13Z" fill="#771F1E"/>
<path d="M22.199 78.5794L22.0856 78.6332C20.5526 79.3377 18.9002 79.066 17.3702 78.4891L15.5722 77.6562C17.1933 80.0714 18.4262 83.268 17.8456 86.2227C17.7868 86.5269 17.6792 86.8195 17.5269 87.0893C18.5352 89.1581 19.8719 91.4509 21.4549 93.1212L21.4706 92.9249C21.1041 92.1293 21.1258 91.4255 21.1131 90.5732C20.3272 89.6962 19.857 88.7588 19.7077 87.5826C19.3816 85.0196 20.2525 82.4873 21.8072 80.4699L23.6447 83.3769C24.25 83.3359 24.8687 83.047 25.4359 82.8366L25.6344 82.8C25.6643 82.5127 25.6158 82.2902 25.5479 82.0156C25.5076 81.8469 25.4605 81.4708 25.3784 81.3379C25.2292 81.1013 24.856 80.8222 24.653 80.6244C23.8746 79.8833 23.1215 79.1392 22.199 78.5794Z" fill="#C4E5F3"/>
<path d="M30.8939 84.9286C30.1998 84.9517 29.5259 84.9644 28.8475 85.1323L28.0959 85.466L27.4369 85.8264L27.1637 86.6959C26.9398 87.0549 26.7308 87.4647 26.2927 87.5856C25.6404 87.7662 25.0829 87.296 24.5201 87.0549C24.2753 87.5774 23.9738 87.6177 23.5327 87.955C22.7117 88.5812 22.1072 89.6477 22.04 90.6784L21.5325 92.1487L21.4691 92.9249L21.4534 93.1212L21.481 93.6922L21.4862 94.2258L22.1766 96.6403L23.8357 99.2025L30.4357 99.1965L35.3362 99.2234C34.5607 97.5418 34.1682 96.1208 34.042 94.2825L34.0764 92.7085L34.1368 92.5242L34.5846 90.9934L34.7578 90.7255L34.9817 90.2926L35.3981 89.6351C35.7932 89.1069 36.2559 88.6329 36.7744 88.2252L36.5244 87.8759C35.8482 87.09 35.1123 86.5153 34.2615 85.9354C33.6029 85.5646 32.8979 85.2832 32.165 85.0988L30.8939 84.9286Z" fill="#F9C444"/>
<path d="M34.0779 92.7085C33.6122 92.9742 33.4689 93.1056 33.3248 93.6392L33.3062 93.7138C33.3756 94.0728 33.3763 94.0601 33.6793 94.2691L34.0443 94.284L34.0779 92.7085Z" fill="#F7CA6D"/>
<path d="M32.5374 95.7976C32.2045 95.7334 31.1335 96.2275 30.6715 96.2865C30.0544 96.3651 29.4288 96.3459 28.8176 96.2297C28.5191 96.1693 28.2138 96.0058 27.9168 95.9745C27.6638 95.9514 27.4615 96.0887 27.266 96.229C27.2846 96.5783 27.4227 96.6634 27.6391 96.9141C28.3403 97.2844 29.1182 97.486 29.911 97.503C30.9238 97.5291 31.9657 97.4015 32.7344 96.682C32.7979 96.3208 32.6844 96.1148 32.5374 95.7976Z" fill="#F7CA6D"/>
<path d="M35.4041 89.6351L35.3637 89.1126C35.2518 88.2334 34.6629 87.6946 33.986 87.1773C33.0575 86.472 32.1201 86.113 30.9424 86.2869C30.6133 86.3355 30.0789 86.4138 29.8766 86.687C30.208 87.0296 31.1454 87.1758 31.6305 87.3423C33.1493 87.8752 33.9502 89.1477 34.9891 90.2903L35.4041 89.6351Z" fill="#F7CA6D"/>
<path d="M30.4371 99.1966L28.5787 98.5995C25.5239 97.5777 23.6088 95.5395 22.5281 92.5541C22.3341 92.0174 22.3617 91.2539 22.1101 90.7942L22.0415 90.677L21.534 92.1473L21.4705 92.9235L21.4549 93.1198L21.4825 93.6908L21.4877 94.2244L22.1781 96.6388L23.8372 99.201L30.4371 99.1966Z" fill="#F3882F"/>
<path d="M31.3604 87.6506C30.2043 87.2423 28.996 86.8848 27.8234 87.4722C27.4503 87.661 26.4293 89.0544 26.3793 89.0574C25.9494 89.0783 25.662 89.294 25.3904 89.6082C24.8 90.2926 24.6186 91.1181 24.6925 92.0018C24.7754 93.0198 25.3702 94.6953 26.1419 95.4141C26.2688 95.532 26.5002 95.638 26.6748 95.6238L27.2122 95.5066L27.398 95.1872C26.9062 94.3281 25.9665 93.5691 25.9412 92.51C25.9225 91.701 25.8501 90.6889 26.4226 90.0852C26.6539 90.2046 27.201 91.7764 27.3704 92.1048C27.0719 92.0152 26.5158 91.3748 26.2599 91.1412C26.3203 92.5757 26.4838 93.6788 27.5704 94.7006C27.9264 94.9596 28.3168 95.223 28.74 95.3588C29.7632 95.6917 31.1566 95.6954 32.1082 95.1506C32.7202 94.7998 32.9292 94.0311 33.1165 93.3974C33.3001 92.6048 33.2777 91.9988 33.2068 91.2002C33.4307 91.6868 33.6614 92.0958 34.0622 92.4578L34.1368 92.5242L34.5846 90.9935C34.1808 90.583 33.942 90.074 33.627 89.6C33.0867 88.7798 32.2217 88.1044 31.3604 87.6506Z" fill="#F7CA6D"/>
<path d="M99.819 28.7585L99.2055 28.5346C98.9675 29.5384 98.692 30.5311 98.2592 31.4722C97.7367 32.6119 97.0105 33.6269 96.3933 34.7158C95.2738 36.6996 94.6692 38.6819 94.7058 40.9568C94.7297 42.4928 95.1133 43.9482 95.9239 45.2617C96.3955 46.0252 97.0486 46.6238 97.7584 47.1642L97.9427 47.0328L98.4652 46.8917L100.954 46.173H101.253C101.457 46.032 101.792 46.0043 102.037 45.9491L104.291 45.5431L108.874 44.9699L110.779 44.7303C111.196 43.819 111.418 42.901 111.57 41.9173C111.666 41.2456 111.661 40.5463 111.649 39.8656C111.641 39.4522 111.654 39.0447 111.35 38.7461C109.273 38.7319 107.624 38.0453 105.848 37.0295L105.741 36.9594C102.974 35.1525 100.505 32.0521 99.819 28.7585Z" fill="#1D366D"/>
<path d="M101.258 46.1745C100.294 44.5938 99.6765 42.9294 100.144 41.0494C100.571 39.3328 101.344 38.1662 102.51 36.8631C102.836 36.4996 103.284 36.0988 103.531 35.6794C103.61 35.5428 103.531 35.5174 103.456 35.3906C103.103 35.4928 102.908 35.7846 102.66 36.0496C101.926 36.8318 101.167 37.6804 100.652 38.6252C99.6817 40.4112 99.2817 42.2077 99.878 44.193C99.9747 44.4766 100.093 44.7526 100.231 45.0184C100.425 45.4237 100.7 45.8028 100.955 46.1723L101.258 46.1745Z" fill="#0D2150"/>
<path d="M98.4667 46.891C96.6523 44.9833 95.4417 43.1026 95.5052 40.3642C95.5358 39.0454 95.8268 37.7192 96.2373 36.4675C96.4918 35.6921 96.8516 34.9054 97.0382 34.1151C95.438 36.6168 94.4536 39.5417 95.0693 42.5271C95.4171 44.2169 96.3657 46.0581 97.8681 46.9858L97.9427 47.0291L98.4667 46.891Z" fill="#C4E5F3"/>
<path d="M105.854 37.0385C104.554 37.9744 103.41 39.4626 103.162 41.0852C102.909 42.7421 103.535 44.1228 104.296 45.5484L108.879 44.9752L110.784 44.7356C111.201 43.8243 111.423 42.9063 111.576 41.9226C111.671 41.2509 111.666 40.5516 111.654 39.8709C111.646 39.4574 111.659 39.0499 111.355 38.7514C109.279 38.7379 107.628 38.0491 105.854 37.0385Z" fill="#0D2150"/>
<path d="M68.2134 44.6467V34.8226C68.2134 33.3933 68.4022 31.6506 68.1321 30.2609C68.0473 29.7982 67.8717 29.3568 67.6155 28.9623C67.3594 28.5678 67.0276 28.2278 66.6394 27.9622C66.1684 27.6176 65.616 27.4013 65.0362 27.3345C63.3047 27.1457 61.4067 27.3039 59.6521 27.3039L48.1583 27.3233L39.5418 27.3502C38.2797 27.3539 36.7803 27.1837 35.551 27.4248C34.6364 27.6095 33.8087 28.0921 33.1974 28.7971C32.5861 29.5022 32.2256 30.3899 32.1723 31.3215C31.9887 34.7547 32.1641 38.2879 32.1798 41.7293L32.1858 59.5938L32.1783 70.4763V73.2602C32.1783 73.6804 32.1193 74.1939 32.2201 74.5969L32.2515 74.7133C30.3856 76.1993 28.7526 77.9443 27.6987 80.1102C27.239 81.0558 26.9524 82.0283 26.6195 83.0209C27.0524 83.3254 27.3786 83.7269 27.4547 84.2666C27.5219 84.7494 27.486 85.3428 27.4375 85.8257L28.0965 85.4652L28.8481 85.1316C29.5265 84.9636 30.2005 84.951 30.8946 84.9278L32.1716 85.0972C32.9045 85.2817 33.6095 85.563 34.2681 85.9339C35.1189 86.5145 35.8548 87.0892 36.531 87.8744L36.6392 70.9532L36.6504 44.7766L36.6377 35.0129V32.1021C36.6377 31.5446 36.5847 30.9617 36.7773 30.4296C37.1669 29.3504 37.8222 28.919 38.829 28.4518L43.2533 28.4115C43.2317 29.0608 43.0824 29.9377 43.5668 30.4438C43.6524 30.5425 43.7568 30.6232 43.8739 30.6811C43.991 30.7391 44.1186 30.773 44.249 30.7811C45.735 30.9237 47.3486 30.7811 48.8472 30.7811L57.4369 30.7751C57.7713 30.7662 58.1086 30.7005 58.3534 30.4579C58.911 29.9086 58.8012 29.0757 58.7945 28.3465L63.8622 28.3615C64.3697 28.3615 65.2803 28.257 65.746 28.4152C65.9468 28.4839 66.3132 28.8063 66.4677 28.9585C66.7994 29.3041 67.0214 29.7401 67.1058 30.2116C67.1872 30.6639 67.1342 31.1968 67.1349 31.6573V34.2628L67.0946 44.1497L67.076 44.4728L67.5074 45.0356L68.2134 44.6467Z" fill="#31437C"/>
<path d="M32.2471 74.7133C30.3812 76.1993 28.7482 77.9443 27.6944 80.1102C27.2346 81.0558 26.948 82.0283 26.6151 83.0209C27.048 83.3254 27.3742 83.7269 27.4503 84.2666C27.5175 84.7494 27.4816 85.3428 27.4331 85.8257L28.0922 85.4652L28.8437 85.1316C29.5222 84.9636 30.1961 84.951 30.8902 84.9278L32.1672 85.0972L32.206 83.041L32.6232 81.4999C33.0442 79.7086 33.0136 77.9659 32.6605 76.165C32.5695 75.6843 32.5105 75.135 32.2471 74.7133Z" fill="#7CBF56"/>
<path d="M32.2097 83.0418C31.8243 83.7062 31.3841 84.3373 30.8939 84.9286L32.1709 85.098L32.2097 83.0418Z" fill="#C4E5F3"/>
<path d="M28.8474 85.1323L31.2417 77.4733C30.8118 77.9555 30.5476 78.8824 30.3117 79.4989C29.5587 81.4663 28.9825 83.5605 28.0958 85.4697L28.8474 85.1323Z" fill="#24824C"/>
<path d="M38.8335 28.4495C37.5535 28.4495 36.3579 28.2861 35.3764 29.2638C34.7793 29.8571 34.4427 30.7013 34.348 31.526C34.1323 33.3874 34.3151 35.46 34.3248 37.3415L34.342 48.3583L34.2673 85.9346C35.1182 86.5153 35.8541 87.09 36.5303 87.8751L36.6385 70.954L36.6504 44.7766L36.6377 35.0129V32.1022C36.6377 31.5446 36.5847 30.9617 36.7773 30.4296C37.1729 29.3481 37.8297 28.9167 38.8335 28.4495Z" fill="url(#paint1_linear_269_2002)"/>
<path d="M21.7654 100.679C22.0154 100.935 22.2527 101.233 22.6334 101.25L23.2424 101.222C23.267 101.498 23.3633 101.914 23.3028 102.177L23.4611 102.501C23.5245 102.93 23.5544 103.431 23.6909 103.839L23.7999 104.166C23.8805 105.146 24.0671 106.708 24.4716 107.585C24.5254 108.385 24.7276 109.185 24.8754 109.974C24.9672 110.462 25.009 111.042 25.2187 111.49L25.271 111.76L25.8337 114.623C25.9203 115.021 25.9778 115.556 26.1875 115.906C26.2608 116.361 26.3886 116.806 26.5681 117.23C27.0988 117.909 27.5996 118.318 28.3355 118.756L28.7609 118.899L29.3079 119.026C30.2491 119.236 31.4216 119.12 32.3904 119.122L38.2977 119.126H49.3772C51.2431 119.126 53.1455 119.209 55.0024 119.111C55.5015 119.094 55.9943 118.995 56.4608 118.816L56.5929 118.846C57.652 118.301 58.2654 117.707 58.9812 116.762H63.1682C64.1549 116.762 65.3408 116.892 66.2596 116.479C67.2746 116.023 67.9135 115.256 68.2964 114.229C68.5591 112.999 68.4195 111.563 68.4202 110.306V103.166L68.4374 75.7552C69.2509 76.7479 70.1062 77.786 71.1175 78.5861C71.2131 79.8146 71.2802 81.0438 71.5654 82.2477C72.293 85.3353 74.1843 88.5431 76.598 90.6068C77.4638 91.3478 78.4034 91.998 79.402 92.5473C82.824 94.334 85.7952 94.552 89.5135 93.7997L91.1614 83.2493L95.185 83.1344C95.5582 83.1456 95.9574 83.1784 96.2896 82.9746C96.7053 82.7209 96.8986 82.385 97.0359 81.9298C97.2927 81.0655 95.588 77.03 95.2111 75.9851L92.0444 67.0386C92.4407 66.3326 92.6056 65.5251 93.0325 64.8198C92.3541 64.8354 91.7981 64.816 91.1457 64.613L90.7994 63.798L88.3365 56.9398L88.1656 56.4338C87.8156 55.8136 87.6073 55.0575 87.3767 54.3828L86.6751 52.2311L86.1967 51.0653C85.7713 51.14 85.3011 51.1825 84.8951 51.3348L84.7652 51.3243C84.4592 51.2161 83.483 50.2988 83.28 49.9869L83.5278 49.8242L81.6739 49.9906L80.7648 50.0652L79.5893 50.1951L78.9534 50.2429L76.4442 50.4615L76.3561 50.3041C76.0427 49.6719 75.2262 49.0509 74.6075 48.6823C74.7731 48.5208 74.9516 48.3731 75.1411 48.2404L75.2157 48.2009C75.2672 47.7747 75.5396 47.3664 75.6949 46.9574L72.5505 45.3752C72.2214 45.2065 71.7609 45.0998 71.5497 44.7848C70.4346 44.4863 69.3547 44.4117 68.2143 44.6468L67.5134 45.0334L67.082 44.4699L67.1007 44.1475L67.141 34.2599V31.6544C67.141 31.1946 67.1932 30.6617 67.1119 30.2094C67.0273 29.7378 66.8053 29.3016 66.4738 28.9556C66.32 28.8063 65.9513 28.4809 65.7521 28.413C65.2886 28.2547 64.3758 28.3607 63.8683 28.3585L58.8006 28.3443C58.811 29.0735 58.917 29.9057 58.3595 30.4557C58.111 30.6998 57.7773 30.764 57.443 30.7722L48.8533 30.7789C47.3546 30.7789 45.741 30.9207 44.255 30.7789C44.1246 30.7707 43.9972 30.7367 43.88 30.6788C43.7629 30.6209 43.6585 30.5402 43.5729 30.4415C43.0885 29.9348 43.2378 29.0586 43.2594 28.4085L38.8358 28.4495C37.8312 28.9168 37.173 29.3452 36.7834 30.4274C36.5908 30.9595 36.646 31.5424 36.6445 32.0999V35.0107L36.6505 44.7766L36.6363 70.9547L36.5289 87.8759L36.7781 88.2252C36.2596 88.6328 35.7969 89.1068 35.4019 89.635L34.9854 90.2926L34.7615 90.7255L34.5876 90.9926L34.1398 92.5241L34.0793 92.7085L34.045 94.2825C34.1711 96.12 34.5674 97.5418 35.3399 99.2226L30.4387 99.1957L23.8387 99.2025C23.3558 99.2114 22.5154 99.1114 22.1647 99.4629C21.7758 99.8525 21.7512 100.151 21.7654 100.679Z" fill="#FEFEFE"/>
<path d="M56.3966 90.9979C56.7287 90.424 57.1758 89.703 57.2414 89.032C57.2817 88.6193 57.2661 88.3178 57.0101 87.9946L56.5794 87.9827C56.0234 88.3797 56.7399 89.2208 56.4369 89.8045L55.895 90.8733L55.9697 91.0718C56.1995 91.1143 56.1958 91.1143 56.3966 90.9979Z" fill="#24824C"/>
<path d="M42.0682 86.9422C40.9577 86.3347 39.6799 85.4697 38.4716 85.1286L40.627 87.2184L41.0047 87.5072C41.2682 87.399 41.3294 87.4326 41.6018 87.4871C41.8585 87.3654 41.9346 87.1878 42.0682 86.9422Z" fill="#14755F"/>
<path d="M46.1933 87.1519H45.8575L45.8254 87.0303L47.7524 85.0764C46.8341 85.462 45.946 85.9158 45.0954 86.434C44.7857 86.6258 44.3887 86.8318 44.1528 87.1131C44.3685 87.2878 44.5499 87.3326 44.8245 87.3751C45.1634 87.4288 45.3529 87.4587 45.6276 87.2527C45.8306 87.2475 46.0127 87.2564 46.1933 87.1519Z" fill="#0C6165"/>
<path d="M43.8758 87.1199L43.5773 83.9539C43.16 84.9809 42.8746 86.0568 42.728 87.1557C42.8772 87.9699 42.9578 89.544 42.7817 90.3403L43.0384 90.1911C43.3907 89.9448 43.6251 89.5612 43.8736 89.2163L44.0542 88.6193C44.1094 88.2864 44.2035 87.6692 44.0199 87.3893L44.0848 87.1303L43.8758 87.1199Z" fill="#14755F"/>
<path d="M43.4332 88.4714C43.2093 88.6297 43.1347 88.8446 43.0996 89.1148L43.0422 90.194C43.3944 89.9477 43.6288 89.5641 43.8773 89.2193C43.7536 88.9563 43.6049 88.7059 43.4332 88.4714Z" fill="#075C49"/>
<path d="M67.082 44.4676C66.9149 44.7968 66.6865 45.0416 66.4394 45.3103L66.4126 45.2356C66.1425 44.463 65.6904 43.7667 65.0945 43.2056C65.0016 43.8538 64.9612 44.5085 64.9736 45.1632L65.0311 45.4043L64.8729 45.6282L64.8773 45.829C64.4661 45.9036 64.3437 45.8947 64.0914 46.2492C63.6832 46.8209 63.5533 47.6904 63.4735 48.3695L65.3893 47.3784C66.0379 46.4552 66.5932 45.717 67.5134 45.0349L67.082 44.4676Z" fill="#24824C"/>
<path d="M44.1527 87.1162L44.0885 87.1318L44.0236 87.3908C44.2065 87.6707 44.1132 88.2864 44.0579 88.6208L47.7628 90.2822L47.8658 90.2075L46.6866 88.7708L48.4778 87.9028L49.6809 87.0468C49.0838 87.1811 47.9942 87.5752 47.4277 87.3513C47.0142 87.1871 46.6306 87.1706 46.1932 87.152C46.0126 87.2565 45.8298 87.2475 45.6275 87.2557C45.3528 87.4617 45.1633 87.4319 44.8244 87.3781C44.5498 87.3356 44.3684 87.2908 44.1527 87.1162Z" fill="#0C6165"/>
<path d="M54.6681 74.132L45.7478 74.1603C45.5164 74.3641 45.5298 74.3842 45.4768 74.6708C45.6119 74.9455 45.6903 74.932 45.9635 75.044H54.7472C54.9913 74.8679 55.0458 74.8567 55.145 74.5611C55.0047 74.2469 54.9957 74.2618 54.6681 74.132Z" fill="#3589C3"/>
<path d="M54.9098 42.3331L47.6621 42.3585C47.2568 42.3585 46.0828 42.2309 45.7477 42.3756C45.6636 42.4251 45.5848 42.4831 45.5126 42.5488C45.5051 42.9511 45.488 42.9615 45.7477 43.2631C46.4664 43.378 47.3038 43.2981 48.0338 43.2966L52.3805 43.2854C53.085 43.2854 54.6046 43.4616 55.1681 43.0877C55.177 42.6652 55.1793 42.6585 54.9098 42.3331Z" fill="#3589C3"/>
<path d="M55.0316 63.3502C54.9456 63.3279 54.8575 63.3152 54.7688 63.3121L47.6502 63.3077C47.1218 63.3077 46.2321 63.183 45.7477 63.3166C45.6992 63.33 45.5313 63.5204 45.482 63.5659L45.4865 63.9435L45.7477 64.1906C45.8202 64.2156 45.8953 64.2319 45.9716 64.2391C46.6658 64.3264 47.4748 64.2488 48.1846 64.251L52.906 64.257C53.412 64.257 54.3927 64.3921 54.8554 64.257C54.9405 64.2316 55.1159 64.0577 55.195 63.998C55.2599 63.6659 55.1957 63.6383 55.0316 63.3502Z" fill="#3589C3"/>
<path d="M54.895 53.0043C54.0083 52.8387 52.9485 52.9596 52.0342 52.9596L45.7477 52.9663C45.4768 53.2439 45.4977 53.2581 45.485 53.6514L45.7477 53.8858C46.5859 54.0171 47.5673 53.9201 48.4174 53.9209L54.8547 53.9395C55.148 53.6656 55.1398 53.6753 55.1532 53.2745L54.895 53.0043Z" fill="#3589C3"/>
<path d="M55.0547 39.8545C54.9392 39.8079 54.8179 39.7771 54.6942 39.7627C53.5172 39.6589 52.2387 39.7627 51.0543 39.7627L43.3669 39.7753H40.3882C40.1643 39.7753 39.6747 39.7231 39.4979 39.7955C39.4314 39.8231 39.312 39.9619 39.2538 40.0149C39.2172 40.3321 39.2262 40.3515 39.3911 40.6269L39.4979 40.6501C40.0808 40.7441 40.7338 40.6896 41.3242 40.6859L44.5335 40.6717L52.238 40.6859C53.0194 40.6859 54.2307 40.8523 54.9666 40.6538C55.0323 40.6359 55.1734 40.5045 55.2353 40.4575C55.2891 40.1194 55.2428 40.1261 55.0547 39.8545Z" fill="#3589C3"/>
<path d="M54.977 71.5451C54.277 71.2898 53.0903 71.4637 52.3148 71.4645L45.3096 71.4734C43.4437 71.4734 41.4823 71.3376 39.6299 71.4734C39.3037 71.4981 39.3209 71.519 39.1157 71.7585C39.1157 72.1101 39.1157 72.1317 39.3299 72.4056C39.3886 72.4239 39.4492 72.4359 39.5105 72.4414C41.6241 72.6288 43.8871 72.4011 46.0179 72.3899H52.4193C53.1044 72.3899 54.2105 72.5325 54.8546 72.3653C54.9084 72.3519 55.0517 72.2056 55.1032 72.1638C55.1867 71.8586 55.1166 71.8205 54.977 71.5451Z" fill="#3589C3"/>
<path d="M54.7225 50.4175L54.5658 50.4115C52.9425 50.3802 39.8523 50.2272 39.4373 50.4361C39.3537 50.4779 39.2291 50.6406 39.1574 50.7108V51.0914L39.5008 51.3385L51.2774 51.331L53.8552 51.3206C54.115 51.3206 54.6225 51.3833 54.8576 51.3153C54.9322 51.2937 55.0815 51.1579 55.1561 51.1064L55.189 50.7407C55.0419 50.4735 55.0001 50.5041 54.7225 50.4175Z" fill="#3589C3"/>
<path d="M54.936 60.7656L54.8613 60.7522C53.8844 60.6253 39.671 60.641 39.4441 60.7335C39.35 60.7716 39.2157 60.9149 39.1306 60.9813L39.1201 61.359L39.3903 61.6068C39.5366 61.6465 39.6867 61.6697 39.8381 61.6762C41.0524 61.7747 42.3436 61.6881 43.5654 61.6874L51.0289 61.6814L53.8911 61.6724C54.1374 61.6724 54.627 61.7314 54.8509 61.662C54.9173 61.6411 55.0748 61.4657 55.1397 61.4127L55.1614 60.9813L54.936 60.7656Z" fill="#3589C3"/>
<path d="M64.9736 45.164L64.9117 45.1133L63.1495 43.434C63.416 42.5025 63.5361 41.4435 63.0592 40.5538C62.801 40.0739 62.3913 39.6866 61.983 39.3343L61.8442 39.3634C61.5091 40.3881 62.0002 41.8263 62.3151 42.8264C61.9211 42.251 61.5277 41.5801 61.0292 41.0919C60.1336 40.2127 58.6968 39.6537 57.5072 39.285C57.8333 40.968 58.2692 42.6645 59.779 43.6885C60.0401 43.861 60.3334 43.9789 60.6412 44.0351C60.9491 44.0913 61.2651 44.0846 61.5703 44.0154C61.9694 43.9154 62.358 43.7774 62.7308 43.6034C63.3488 44.2005 64.1489 45.214 64.8751 45.629L65.0333 45.4051L64.9736 45.164Z" fill="#259571"/>
<path d="M58.4744 40.5008L58.4281 40.6657C58.5264 40.9124 58.6458 41.1501 58.7849 41.3763C59.5163 42.4667 60.7112 42.8137 61.9128 43.054L62.0308 42.9376C61.7651 42.601 61.3882 42.4286 61.0419 42.1913L58.4744 40.5008Z" fill="#7CBF56"/>
<path d="M62.8472 51.5527L62.8562 51.4258C62.898 50.8429 62.8159 50.4294 62.4084 49.9869C61.9457 49.4853 61.3284 49.2502 60.6515 49.2405C59.8551 49.2248 59.1946 49.5226 58.6364 50.0824C58.1557 50.5675 57.8266 51.2571 57.8348 51.9483C57.8359 52.3361 57.9172 52.7194 58.0733 53.0744C58.2295 53.4294 58.4572 53.7483 58.7423 54.0112C59.3484 54.5844 60.0783 54.7792 60.9067 54.7254C61.5523 54.6829 62.2017 54.297 62.7726 54.0141L61.4956 51.6191L62.8472 51.5527Z" fill="#F3756C"/>
<path d="M61.2247 59.6505C60.7314 59.5826 60.1552 59.5446 59.6783 59.7073C59.0113 59.9503 58.4641 60.4418 58.1513 61.0791C57.9704 61.4773 57.8706 61.9076 57.8578 62.3448C57.845 62.782 57.9194 63.2174 58.0766 63.6256C58.4125 64.5115 58.9946 64.9041 59.8208 65.2862C60.3331 65.4094 60.8689 65.3952 61.374 65.2452C62.0218 65.0325 62.4599 64.5891 62.7607 63.9816C63.1675 63.1606 63.1846 62.212 62.8794 61.356C62.5808 60.5141 62.0151 60.0163 61.2247 59.6505Z" fill="#F7CA6D"/>
<path d="M60.7127 70.4323C60.2888 70.4554 59.888 70.4786 59.4887 70.6368C58.7894 70.9122 58.2012 71.5563 57.9311 72.2504C57.6467 72.9781 57.687 73.9118 58.0147 74.6171C58.4356 75.5224 59.1095 75.9724 60.0216 76.3046C60.6366 76.2732 61.265 76.2232 61.8061 75.8993C62.4032 75.5403 62.8122 74.9074 62.9861 74.2394C63.21 73.4028 63.1525 72.5721 62.7047 71.8175C62.2263 71.0115 61.5979 70.6547 60.7127 70.4323Z" fill="#F7CA6D"/>
<path d="M55.895 90.8732L55.7502 90.7739C54.3852 89.9955 52.3917 89.5798 50.8631 89.9388L50.8676 90.0634C52.073 91.9748 52.1289 93.9534 51.7267 96.1088L51.7901 96.0484C52.7857 95.0595 52.7745 93.1533 54.5188 93.1451C55.277 93.1451 56.042 93.4003 56.7832 93.3518C58.9916 93.2026 60.2701 92.1719 62.121 94.0183C63.157 95.0528 63.8235 96.3283 63.8167 97.815C63.7968 98.3041 63.6384 98.7775 63.36 99.18C63.604 99.239 63.8682 99.2771 64.0899 99.3987C64.3711 99.1541 64.572 98.8302 64.6661 98.4695C64.9788 97.2291 64.2929 95.5924 63.6555 94.5594C63.1084 93.669 62.3412 92.7809 61.4165 92.2674C59.9238 91.4382 58.0355 91.383 56.3943 90.9986C56.1936 91.1165 56.1973 91.1128 55.9674 91.0732L55.895 90.8732Z" fill="#7CBF56"/>
<path d="M58.9834 116.763H63.1704C64.1571 116.763 65.3431 116.893 66.2618 116.48C67.2768 116.024 67.9157 115.257 68.2986 114.231C68.5613 113 68.4217 111.565 68.4225 110.307V103.167L68.4397 75.7567V75.4791C68.2844 75.0111 67.6 74.4581 67.2455 74.0879L67.3022 101.569L67.2903 109.731C67.2858 110.969 67.4119 112.352 67.2351 113.565C67.1604 114.058 66.8619 114.515 66.5223 114.868C66.2066 115.191 65.7841 115.492 65.3431 115.614C64.7893 115.763 64.034 115.682 63.4518 115.684H59.3939L59.2648 116.109L58.9834 116.763Z" fill="url(#paint2_linear_269_2002)"/>
<path d="M63.36 99.18C63.6384 98.7774 63.7968 98.3041 63.8167 97.815C63.8234 96.3282 63.157 95.0535 62.121 94.0183C60.2701 92.1718 58.9916 93.2063 56.7832 93.3518C56.042 93.4003 55.277 93.1413 54.5187 93.1451C52.7745 93.1533 52.7857 95.0594 51.7901 96.0484L51.7267 96.1088C51.3578 97.1846 50.8872 98.2227 50.3213 99.2091L63.36 99.18Z" fill="#AADA65"/>
<path d="M60.9948 94.7199L60.8679 94.6938C60.444 94.6296 60.2305 94.6938 59.8895 94.9356C59.832 95.0557 59.7245 95.2035 59.7447 95.3364C59.8439 95.9499 60.2731 96.2626 60.7448 96.6007C60.9322 96.6589 61.1254 96.6964 61.321 96.7126C61.6083 96.5865 61.6426 96.5186 61.824 96.2559C61.8598 95.979 61.9203 95.6588 61.8024 95.3991C61.6367 95.0319 61.3463 94.8759 60.9948 94.7199Z" fill="#C3EA88"/>
<path d="M42.7317 87.1586C42.5061 87.102 42.2845 87.0307 42.0682 86.9452C41.9346 87.1907 41.8585 87.3684 41.5995 87.4938C41.3293 87.4408 41.2681 87.4057 41.0024 87.5139L40.6247 87.2251C39.0716 87.2146 38.1618 87.5109 36.7781 88.2282C36.2595 88.6358 35.7968 89.1098 35.4018 89.638L34.9853 90.2955L34.7614 90.7284L34.5883 90.9964L34.1405 92.5271L34.08 92.7115L34.0457 94.2855C34.1718 96.1238 34.5681 97.5448 35.3399 99.2263L37.0027 99.2092H50.3235C50.8895 98.2227 51.3601 97.1846 51.7289 96.1088C52.1312 93.9534 52.0752 91.9748 50.8698 90.0634L50.8654 89.9388C50.5855 89.7014 50.3571 89.3611 50.0795 89.1066C49.5869 88.6588 49.0279 88.2856 48.48 87.9027L46.6888 88.7708L47.868 90.2075L47.765 90.2821L44.0602 88.6207L43.8796 89.2178C43.631 89.5626 43.3967 89.9463 43.0444 90.1925L42.7876 90.3418C42.9615 89.5417 42.8847 87.9699 42.7317 87.1586Z" fill="#D12629"/>
<path d="M42.7317 87.1586C42.5061 87.102 42.2845 87.0307 42.0682 86.9452C41.9346 87.1907 41.8585 87.3684 41.5995 87.4938C41.3293 87.4408 41.2681 87.4057 41.0024 87.5139L40.9278 87.6154C40.8218 87.7468 40.7166 87.7692 40.5628 87.8214C39.7501 88.0998 38.9955 88.9857 38.3663 89.5634L41.2957 88.8499C41.5502 88.7894 42.3018 88.5379 42.5026 88.6357L42.3861 90.4478C42.5847 90.4478 42.6101 90.4478 42.7832 90.3433C42.9616 89.5417 42.8847 87.9699 42.7317 87.1586Z" fill="#24824C"/>
<path d="M34.7599 90.7255L34.5868 90.9934L34.139 92.5242L34.0785 92.7085L34.0442 94.2825C34.1703 96.1208 34.5666 97.5418 35.3384 99.2234L37.0012 99.2062C35.6578 97.3015 34.8144 95.1759 34.7249 92.8219C34.701 92.1502 34.8741 91.4726 34.7756 90.8068L34.7599 90.7255Z" fill="#AE271F"/>
<path d="M48.4779 87.905L46.6866 88.773L47.8659 90.2097L47.7629 90.2844L44.058 88.623L43.8774 89.2201C43.6288 89.5649 43.3945 89.9485 43.0422 90.1948L42.7855 90.3441C42.616 90.4463 42.5869 90.4501 42.3884 90.4486L42.5048 88.6365C42.3041 88.5387 41.5525 88.7902 41.298 88.8507C40.5517 89.6455 40.2666 90.1545 40.3069 91.2703C40.3243 91.6724 40.3997 92.0698 40.5308 92.4503C41.048 94.0721 42.5399 95.5849 44.0386 96.3395C45.3559 97.0067 46.9635 97.1493 48.3734 96.6739C48.8417 96.5129 49.2724 96.2585 49.6395 95.9261C50.0065 95.5937 50.3022 95.1902 50.5087 94.7401C50.9363 93.8228 50.8774 92.925 50.5318 91.9875L50.4206 91.68C50.431 91.1233 50.6811 90.5829 50.8684 90.0672L50.8639 89.9426C50.584 89.7052 50.3557 89.3649 50.078 89.1104C49.5847 88.6551 49.0257 88.2819 48.4779 87.905Z" fill="#E24140"/>
<path d="M50.1362 91.63C49.9466 91.2419 49.7369 90.8426 49.3831 90.5777C49.1712 90.4112 48.9263 90.2918 48.6647 90.2275C48.403 90.1631 48.1307 90.1553 47.8658 90.2045L47.7628 90.2791C47.3799 90.7105 47.0858 91.0292 47.1418 91.6494C47.1587 91.8704 47.2218 92.0855 47.3269 92.2806C47.4321 92.4758 47.577 92.6467 47.7523 92.7824C48.1501 93.0884 48.7509 93.2496 49.251 93.1428C49.6063 93.0682 49.863 92.8331 50.0354 92.5241C50.1675 92.2898 50.1862 91.889 50.1362 91.63Z" fill="#F29785"/>
<path d="M68.4374 75.4813V75.759C69.2509 76.7516 70.1062 77.7898 71.1175 78.5899C71.0929 77.4704 71.2892 76.259 71.4974 75.1567C71.019 75.3716 70.1174 75.8441 69.6002 75.8545C69.3397 75.8605 68.7516 75.6022 68.4971 75.5037L68.4374 75.4813Z" fill="#F3756C"/>
<path d="M71.1175 78.5899C71.213 79.8184 71.2802 81.0476 71.5653 82.2515C72.293 85.3391 74.1842 88.5469 76.5979 90.6105C77.4638 91.3515 78.4034 92.0018 79.4019 92.551C82.8239 94.3378 85.7951 94.5557 89.5134 93.8034L91.1614 83.2531L87.4184 83.3486L81.9783 83.5031L78.2205 83.6337C77.3741 83.6583 76.3971 83.8188 75.6083 83.4561C75.2427 83.2735 74.9385 82.9881 74.7328 82.6351C74.3454 81.9999 74.1186 81.0857 73.8655 80.3789L71.94 74.9373L71.5004 75.1612C71.2891 76.262 71.0929 77.4666 71.1175 78.5899Z" fill="#EF5D5A"/>
<path d="M79.4005 92.5495C82.8225 94.3363 85.7937 94.5542 89.512 93.8019L91.1599 83.2515L87.417 83.3471C87.0998 86.1369 86.3169 89.1484 84.0054 90.9837C82.5508 92.1353 81.1828 92.3592 79.4005 92.5495Z" fill="#E24140"/>
<path d="M21.7654 100.679C22.0154 100.935 22.2527 101.233 22.6334 101.25L23.2424 101.222C23.267 101.498 23.3633 101.914 23.3028 102.177L23.4611 102.501C23.5245 102.93 23.5543 103.431 23.6909 103.839L23.7999 104.166C23.8805 105.146 24.0671 106.708 24.4716 107.585C24.5253 108.385 24.7276 109.185 24.8754 109.974C24.9672 110.462 25.009 111.042 25.2187 111.49L25.2709 111.76L25.8337 114.623C25.9203 115.021 25.9777 115.556 26.1875 115.906C26.2608 116.361 26.3886 116.806 26.5681 117.23C27.0988 117.909 27.5995 118.318 28.3354 118.756L28.7609 118.899L29.3079 119.026C30.2491 119.236 31.4216 119.12 32.3903 119.122L38.2977 119.126H49.3772C51.2431 119.126 53.1455 119.209 55.0024 119.111C55.5015 119.094 55.9943 118.995 56.4608 118.816L56.5929 118.846C57.6519 118.301 58.2654 117.707 58.9812 116.762L59.2626 116.111L59.3917 115.686C59.3446 115.291 59.5409 114.836 59.6417 114.455L60.353 111.807C60.5455 111.445 60.5769 110.986 60.6694 110.589L61.3277 107.61C61.4911 107.337 61.5516 106.803 61.6307 106.486L62.3472 103.659C62.4801 103.257 62.5726 102.843 62.6234 102.423L62.7614 102.3C63.0398 102.225 63.2786 102.189 63.5473 102.067C63.8645 101.694 63.9384 101.391 64.0384 100.926C64.2056 100.79 64.3176 100.606 64.4407 100.431C64.4526 99.9593 64.3661 99.7682 64.0877 99.3973C63.8638 99.2756 63.6018 99.2376 63.3578 99.1786L50.3198 99.207H36.9983L35.3362 99.2234L30.4349 99.1965L23.835 99.2032C23.3521 99.2122 22.5117 99.1122 22.1609 99.4637C21.7758 99.8525 21.7512 100.151 21.7654 100.679Z" fill="#31437C"/>
<path d="M62.6233 102.424H57.2608L57.1055 103.626L57.9459 103.644L62.3494 103.659C62.4815 103.258 62.5733 102.844 62.6233 102.424Z" fill="#70B8DF"/>
<path d="M56.7399 103.657L56.9265 102.439H50.8214C50.7975 102.76 50.8012 103.145 50.6908 103.448L50.6423 103.572L50.6766 103.742L56.7399 103.657Z" fill="#70B8DF"/>
<path d="M29.4468 103.823L29.293 102.474L23.4611 102.502C23.5238 102.93 23.5544 103.431 23.691 103.839L29.4468 103.823Z" fill="#70B8DF"/>
<path d="M30.4372 102.413L29.7513 102.481C29.6207 102.811 29.767 103.434 29.8117 103.792L35.8713 103.782L35.7788 102.558C35.4541 102.334 34.6943 102.439 34.2988 102.439L30.4372 102.413Z" fill="#70B8DF"/>
<path d="M29.4467 103.823L23.6909 103.839L23.7999 104.166C25.7254 104.378 27.2614 105.159 28.7093 106.45C28.8832 106.605 29.3273 107.115 29.5348 107.181C29.6005 107.202 29.7788 107.171 29.855 107.168C29.9266 106.155 29.5908 104.847 29.4467 103.823Z" fill="#B5E5D7"/>
<path d="M50.4295 103.596C50.4176 103.216 50.4825 102.807 50.5154 102.427L45.4992 102.435C45.0178 102.435 44.0378 102.311 43.6333 102.535L43.5699 103.095L43.5624 103.741L50.3721 103.727L50.4295 103.596Z" fill="#70B8DF"/>
<path d="M43.2496 103.322L43.2063 102.535L43.0571 102.434H38.1946C37.6386 102.434 36.5609 102.3 36.0825 102.562L36.1899 103.801L43.2131 103.751L43.2496 103.322Z" fill="#70B8DF"/>
<path d="M23.7999 104.166C23.8805 105.146 24.0671 106.708 24.4716 107.585C24.4842 107.48 24.5185 107.378 24.5724 107.287L29.8528 107.297V107.167C29.7781 107.167 29.5983 107.2 29.5326 107.179C29.3251 107.113 28.881 106.603 28.7071 106.448C27.2615 105.159 25.7255 104.378 23.7999 104.166Z" fill="#70B8DF"/>
<path d="M62.3495 103.66L57.946 103.645L57.1057 103.628L56.8497 105.35L56.6258 107.273H59.9843L61.2128 107.303L61.3292 107.609C61.4934 107.335 61.5531 106.802 61.6322 106.485L62.3495 103.66Z" fill="#EFA54A"/>
<path d="M62.3495 103.66L57.946 103.646C58.211 103.668 58.8297 103.646 59.0559 103.741C59.3417 103.86 59.7276 104.263 59.9231 104.501C60.2963 104.953 60.4247 105.35 60.3709 105.93C60.3254 106.397 60.153 106.841 59.9858 107.273L61.2143 107.304L61.3307 107.609C61.4949 107.336 61.5546 106.803 61.6337 106.485L62.3495 103.66Z" fill="#B5E5D7"/>
<path d="M35.8713 103.782L29.8117 103.792L30.2961 107.262L36.1355 107.266L35.8713 103.782Z" fill="#B5E5D7"/>
<path d="M56.7399 103.657L50.6765 103.739L50.5153 105.502L50.3131 107.044L50.4937 107.268L51.1475 107.292L56.2398 107.276L56.5458 105.101L56.7399 103.657Z" fill="#EFA54A"/>
<path d="M50.3721 103.728L43.5624 103.742L43.443 107.279L49.9884 107.283L50.3721 103.728Z" fill="#B5E5D7"/>
<path d="M43.2117 103.75L36.1885 103.799L36.4699 107.271L43.1124 107.277L43.2117 103.75Z" fill="#B5E5D7"/>
<path d="M56.5458 105.097L56.2398 107.272L51.1475 107.288L50.4937 107.265L50.3131 107.041L50.1638 107.221C50.381 107.334 50.4071 107.327 50.5049 107.547L50.6743 107.63C50.4676 108.938 50.743 110.153 51.1512 111.399C51.7088 111.405 55.3584 111.552 55.6428 111.372C55.792 111.277 55.8196 110.819 55.8555 110.633L56.0555 110.959L56.0741 111.252C56.1353 111.31 56.1816 111.394 56.2622 111.425C56.4115 111.482 56.8712 111.434 57.0481 111.437L59.5581 111.479C59.6887 111.479 60.2119 111.471 60.291 111.543C60.3559 111.604 60.3313 111.717 60.3515 111.805C60.544 111.443 60.5754 110.984 60.6679 110.587L61.3254 107.608L61.209 107.303L59.9805 107.272H56.622L56.8459 105.349L56.5458 105.097Z" fill="#EFA54A"/>
<path d="M56.5458 105.097L56.2398 107.272L51.1475 107.288L50.4937 107.265L50.3131 107.041L50.1638 107.221C50.381 107.334 50.4071 107.327 50.5049 107.547L50.6743 107.63L56.2063 107.606C56.0824 108.528 55.7853 109.728 55.8555 110.633L56.0555 110.959C56.3928 109.959 56.4033 108.666 56.5727 107.6L59.9507 107.619L61.3254 107.606L61.209 107.3L59.9805 107.27H56.622L56.8459 105.347L56.5458 105.097Z" fill="#335C9F"/>
<path d="M23.8372 99.2024C23.3544 99.2114 22.514 99.1121 22.1632 99.4637C21.7751 99.8525 21.7512 100.151 21.7654 100.68C22.0154 100.935 22.2527 101.234 22.6334 101.25L23.2424 101.222C23.267 101.498 23.3633 101.914 23.3029 102.177L30.5894 102.183L56.8497 102.109C57.0131 101.926 57.0221 101.856 57.0736 101.624L57.2228 101.616L57.3019 102.048C57.6557 102.215 58.1826 102.141 58.5789 102.143L61.639 102.152C62.036 102.152 62.4383 102.067 62.7659 102.301C63.0443 102.227 63.2832 102.19 63.5518 102.068C63.869 101.695 63.9422 101.392 64.0429 100.927C64.2094 100.791 64.3221 100.608 64.4452 100.433C64.4572 99.9607 64.3706 99.7697 64.0922 99.3987C63.8683 99.2771 63.6063 99.239 63.3623 99.1801L50.3236 99.2092H37.0028L35.3399 99.2263L30.4394 99.1995L23.8372 99.2024Z" fill="#3589C3"/>
<path d="M64.0414 100.927L39.7657 101.009L28.2108 101.035L24.3925 101.082C24.0633 101.103 23.5394 101.082 23.2431 101.222C23.2677 101.498 23.364 101.914 23.3035 102.177L30.5901 102.183L56.8503 102.109C57.0138 101.926 57.0227 101.856 57.0742 101.624L57.2235 101.616L57.3026 102.048C57.6564 102.215 58.1833 102.141 58.5796 102.143L61.6396 102.152C62.0367 102.152 62.439 102.067 62.7666 102.301C63.045 102.227 63.2838 102.19 63.5525 102.068C63.8667 101.699 63.9399 101.392 64.0414 100.927Z" fill="#70B8DF"/>
<path d="M71.549 44.7848C70.4339 44.4863 69.3547 44.4117 68.2135 44.6468L67.5135 45.0334C66.5932 45.7155 66.0379 46.4514 65.3894 47.3769C64.8915 48.786 64.999 49.9331 65.2468 51.3654L62.8451 51.5527L61.4934 51.6191L62.7727 54.0141L65.8028 60.2909C66.1611 61.0537 66.9709 62.3128 66.9589 63.1375L66.9492 64.2675L66.8791 64.3137C65.9021 64.9407 64.9386 65.237 64.6266 66.5132C64.2012 68.2612 65.2886 70.7913 66.1372 72.2743C66.4805 72.8713 66.9664 73.4684 67.2478 74.0901C67.5993 74.4633 68.2837 75.0134 68.4419 75.4813L68.5024 75.5052C68.7561 75.603 69.3443 75.8612 69.6047 75.856C70.1219 75.8448 71.0228 75.3723 71.5027 75.1574L71.9423 74.9335L73.8671 80.3751C74.1209 81.0819 74.3478 81.9969 74.7351 82.6313C74.9406 82.9846 75.2449 83.2699 75.6106 83.4523C76.401 83.815 77.3772 83.6546 78.2228 83.6299L81.9769 83.5016L87.417 83.3471L91.16 83.2515L95.1835 83.1366C95.5567 83.1478 95.956 83.1806 96.2881 82.9776C96.7031 82.7231 96.8964 82.3873 97.0345 81.9327C97.2912 81.0692 95.5865 77.033 95.2089 75.9881L92.0451 67.0386C92.4422 66.3326 92.6071 65.5251 93.034 64.8205C92.3549 64.8354 91.7996 64.8168 91.1465 64.613L90.7995 63.798L88.3365 56.9398L88.1656 56.4346C87.8148 55.8136 87.6074 55.0575 87.3767 54.3828L86.6752 52.2311L86.196 51.0661C85.7713 51.1407 85.3004 51.1833 84.8944 51.3348L84.7653 51.3243C84.4593 51.2161 83.483 50.2988 83.28 49.9869L83.5278 49.8242L81.6717 49.9884L80.7626 50.063L79.5871 50.1936L78.9512 50.2406L76.442 50.4593L76.3569 50.3026C76.0435 49.6704 75.227 49.0487 74.6082 48.68C74.7738 48.5186 74.9522 48.3711 75.1419 48.2389L75.2165 48.1994C75.268 47.7725 75.5404 47.365 75.6949 46.956L72.5498 45.3752C72.2207 45.2065 71.7609 45.0998 71.549 44.7848Z" fill="#335C9F"/>
<path d="M84.8966 51.3378L84.7674 51.3273L86.3497 55.1516L89.1769 63.1136L91.0017 67.9544L94.4349 77.5077C94.8454 78.6339 95.1752 79.8161 95.629 80.9245C95.6731 81.0488 95.7416 81.1631 95.8304 81.2606C95.9192 81.3581 96.0266 81.4369 96.1462 81.4924C95.6589 80.8871 95.4454 79.6639 95.1849 78.9183L92.9078 72.3974L92.0869 69.5882C91.9092 69.0478 91.648 68.5642 91.4308 68.0433L89.5232 63.2614L87.6573 57.8877L86.7482 55.7285C86.3512 54.6545 86.137 53.5597 85.5825 52.5327L85.519 52.4163L84.8966 51.3378Z" fill="#4270B1"/>
<path d="M86.1982 51.0691C85.7735 51.1437 85.3026 51.1863 84.8966 51.3378L85.513 52.4118L85.5765 52.5282C86.131 53.5552 86.3452 54.6501 86.7423 55.7241L87.6513 57.8832L89.5172 63.2569L91.4248 68.0388C91.642 68.5612 91.9033 69.0434 92.0809 69.5837L92.9019 72.393L95.179 78.9138C95.4394 79.6601 95.6529 80.8827 96.1403 81.4879C96.4328 81.5872 96.8791 81.6581 97.0314 81.9298C97.2881 81.0662 95.5835 77.03 95.2058 75.9851L92.0421 67.0357C92.4391 66.3296 92.6041 65.5221 93.031 64.8175C92.3518 64.8325 91.7965 64.8138 91.1435 64.6101L90.7994 63.798L88.3365 56.9399L88.1656 56.4346C87.8148 55.8136 87.6073 55.0576 87.3767 54.3829L86.6751 52.2312L86.1982 51.0691Z" fill="#3589C3"/>
<path d="M91.145 64.613L92.0406 67.0387C92.4377 66.3326 92.6026 65.5251 93.0295 64.8205C92.3534 64.8355 91.7981 64.8168 91.145 64.613Z" fill="#E24140"/>
<path d="M71.5488 44.7848C70.4338 44.4863 69.3546 44.4117 68.2134 44.6468L67.5133 45.0334C66.5931 45.7155 66.0378 46.4514 65.3892 47.3769C64.8914 48.786 64.9989 49.9331 65.2467 51.3654L76.4419 50.4615L76.3568 50.3048C76.0433 49.6727 75.2268 49.0509 74.6081 48.6822C74.7736 48.5209 74.9521 48.3734 75.1418 48.2412L75.2164 48.2016C75.2679 47.7747 75.5403 47.3672 75.6948 46.9582L72.5497 45.3752C72.2206 45.2065 71.7608 45.0998 71.5488 44.7848Z" fill="#EFA54A"/>
<path d="M71.5489 44.7848C70.4338 44.4863 69.3546 44.4117 68.2135 44.6468L68.265 44.8132L68.1463 44.8826C67.9634 44.9938 67.859 45.1117 67.8216 45.3304L67.8097 45.4424C67.669 45.4218 67.5333 45.3752 67.4097 45.305L67.2798 45.461L67.4022 45.6797C67.9754 45.8364 68.7038 46.1103 69.2957 45.9402C69.6591 46.3036 70.0935 46.1551 70.4652 46.4872C70.8578 46.838 71.4437 47.0366 71.878 47.3829C71.9922 47.4747 72.0363 47.4717 72.1706 47.4963C72.2989 47.5246 72.4199 47.5794 72.5257 47.6573C72.6315 47.7352 72.7198 47.8344 72.7848 47.9486L72.8281 48.0322L73.0155 48.0456L73.1207 47.6963C73.6551 47.9949 74.1439 48.2777 74.6134 48.6815C74.7789 48.5201 74.9574 48.3726 75.147 48.2404L75.2217 48.2009C75.2732 47.7739 75.5456 47.3664 75.7001 46.9574L72.5497 45.3752C72.2206 45.2065 71.7609 45.0998 71.5489 44.7848Z" fill="#F7CA6D"/>
<path d="M75.9829 73.3438C76.2912 73.1483 76.5419 72.9848 76.6718 72.6228C76.7897 72.2952 76.7166 72.0661 76.5808 71.7601C76.3292 71.5682 76.268 71.4861 75.9396 71.4832C75.2993 71.4779 74.5462 71.7653 73.9245 71.931C72.2475 72.3691 70.4577 72.9453 68.7232 73.0572C69.3031 72.7191 70.157 72.5295 70.804 72.3265L75.0291 71.0495C75.6404 70.8704 76.4151 70.7256 76.9435 70.3696C77.201 70.1957 77.4413 69.9733 77.4816 69.6479C77.4963 69.5171 77.4819 69.3847 77.4396 69.2601C77.3973 69.1355 77.3281 69.0217 77.2368 68.9269C76.9935 68.6769 76.6882 68.5844 76.3494 68.5806C75.6307 68.5724 74.8388 68.8142 74.135 68.9613C72.1698 69.3717 69.9793 70.0166 67.9731 70.0435C69.4658 69.5307 70.9899 69.1322 72.5184 68.7448C73.4446 68.5105 76.1658 68.0477 76.7972 67.5022C77.0868 67.2521 77.186 66.9625 77.1786 66.5886C77.1694 66.4488 77.1298 66.3128 77.0623 66.19C76.9949 66.0673 76.9013 65.9608 76.7882 65.8781C76.574 65.7094 76.2412 65.684 75.98 65.6997C75.1508 65.7505 74.2887 65.9535 73.4715 66.0975C71.6004 66.4267 69.6905 66.8125 67.7992 66.9573L71.281 65.8132C72.1124 65.5669 73.9887 65.3654 74.5208 64.6787C74.7582 64.372 74.7246 64.0928 74.6641 63.7301C74.5007 63.4823 74.3656 63.2972 74.0842 63.1756C73.3036 62.836 67.8672 63.8936 66.9447 64.2675L66.8745 64.3138C65.8975 64.9407 64.934 65.237 64.622 66.5132C64.1966 68.2612 65.2841 70.7913 66.1327 72.2743C66.476 72.8714 66.9618 73.4684 67.2432 74.0902C67.5947 74.4633 68.2791 75.0134 68.4374 75.4813L68.4978 75.5052C68.7516 75.603 69.3397 75.8612 69.6002 75.856C70.1174 75.8448 71.0182 75.3724 71.4981 75.1574L71.9377 74.9335L75.9829 73.3438Z" fill="#F6B697"/>
<path d="M75.983 73.3438L71.9385 74.9365L73.8633 80.3781C74.1171 81.0849 74.344 81.9999 74.7313 82.6343C74.9368 82.9876 75.2411 83.273 75.6068 83.4553C76.3972 83.818 77.3734 83.6576 78.219 83.6329L81.9769 83.5016L87.417 83.3471L91.1599 83.2516L95.1835 83.1366C94.8028 82.8164 94.1386 82.6933 93.6729 82.5492L91.0592 81.7104C87.0364 80.2692 83.1382 78.4951 79.5736 76.1284C78.2877 75.2761 77.0659 74.4536 75.983 73.3438Z" fill="#31437C"/>
<path d="M128.343 5.47103C127.051 4.24189 125.571 3.22791 123.958 2.46774C118.822 0.0794263 112.099 0.391399 106.867 2.29608C106.035 2.5155 105.249 2.93793 104.529 3.40515C103.299 4.12239 101.94 4.95531 101.565 6.4271L101.535 6.54652L101.289 6.67937C101.568 6.72639 101.609 6.7234 101.825 6.92417L101.618 7.04508C101.568 8.40268 101.946 9.17441 102.546 10.3477C100.083 12.989 98.4339 15.8423 98.5712 19.5852C98.5906 20.0987 98.5816 20.6622 98.6891 21.1637L99.0548 25.194L99.5482 27.636C99.6437 27.9905 99.7997 28.3943 99.8153 28.76C100.501 32.0537 102.97 35.154 105.743 36.9698L105.85 37.04C107.626 38.0528 109.275 38.7394 111.352 38.7566L112.231 38.7387C115.48 38.6148 118.637 36.6564 120.797 34.3285L120.992 34.3987L120.8 35.6787C120.586 38.1103 120.759 40.4478 121.48 42.7869C121.612 43.2138 121.791 43.8997 122.063 44.2542C122.287 44.5475 124.025 44.8139 124.452 44.9169C125.187 45.1453 125.956 45.3282 126.561 45.8282C129.386 46.4932 132.159 47.2724 134.832 48.4098C135.846 48.9323 136.885 49.4719 137.809 50.1481L138.182 50.419C139.431 51.4945 140.537 52.725 141.474 54.0806L141.8 54.497C141.911 54.5019 142.021 54.4921 142.129 54.4679C142.295 54.4076 142.447 54.3147 142.577 54.1948C144.572 52.4476 146.655 49.4831 146.858 46.7664C146.864 46.6524 146.878 46.539 146.899 46.4268L146.97 45.9984C147.193 42.5995 146.195 39.6261 143.599 37.3408C141.851 35.8003 139.936 34.4591 138.599 32.5089C136.873 29.9893 135.494 26.8658 134.818 23.8916C134.28 21.5242 134.063 19.1038 133.655 16.7125C133.176 13.9033 132.181 10.8626 130.659 8.43851C129.988 7.36377 129.179 6.41964 128.343 5.47103Z" fill="#31437C"/>
<path d="M104.533 3.40512C105.14 3.32003 105.735 3.07896 106.324 2.91701C111.388 1.53253 117.042 4.12385 121.119 7.01744C121.677 7.40547 122.21 7.82929 122.714 8.28623C123.116 8.6594 123.504 9.10721 123.983 9.37813L124.207 9.24006C124.214 9.17596 124.213 9.11109 124.201 9.0475C124.144 8.77284 123.833 8.44594 123.655 8.23174C122.86 7.25606 121.952 6.37729 120.952 5.61356C117.859 3.29988 113.973 1.52806 110.03 1.76763C108.985 1.83107 107.991 2.13708 106.959 2.28261L106.865 2.29455C106.038 2.51547 105.252 2.93791 104.533 3.40512Z" fill="#EF5D5A"/>
<path d="M101.829 6.92639L101.621 7.0473C101.571 8.4049 101.95 9.17663 102.55 10.3499C105.27 14.5929 109.914 16.3207 114.624 17.3439L117.022 17.8193C117.307 17.8462 117.625 17.8492 117.902 17.9186C118.402 18.2649 119.163 18.2015 119.756 18.2649C121.318 18.4336 122.913 18.6381 124.483 18.6784L124.456 18.2306L124.484 17.8731C125.091 17.6141 125.475 17.2969 125.915 16.814C126.523 16.1091 127.022 15.3172 127.396 14.4645C127.611 13.9592 127.72 13.4107 127.959 12.9173L127.987 12.8636C127.676 11.9396 127.265 11.1209 126.78 10.2782C126.718 11.2485 126.677 12.9016 125.865 13.5562C125.461 13.8816 124.811 13.9719 124.316 14.06C122.27 14.4132 120.179 14.4188 118.131 14.0764C114.815 13.5308 111.369 11.8441 108.931 9.51547C108.168 8.78554 107.518 7.90858 106.833 7.10402C108.311 10.7193 112.297 13.695 115.833 15.1646C118.696 16.3535 122.009 16.5938 125.077 16.5461C125.32 16.5423 125.596 16.4535 125.722 16.6647L125.771 16.7274C124.586 16.8849 123.367 16.8498 122.173 16.8379C118.115 16.7983 114.056 16.1833 110.253 14.7414C107.442 13.6756 104.898 12.0336 103.187 9.51099C102.64 8.69822 102.228 7.81156 101.829 6.92639Z" fill="#1D366D"/>
<path d="M124.456 18.2261L124.255 17.9447L117.902 17.9164C118.402 18.2627 119.163 18.1992 119.756 18.2627C121.318 18.4314 122.912 18.6359 124.483 18.6762L124.456 18.2261Z" fill="#F29785"/>
<path d="M127.938 27.0031C127.032 27.3278 126.463 27.4293 125.501 27.3763C124.568 30.796 123.989 34.7181 125.832 37.9744C126.647 39.3807 127.759 40.592 129.092 41.5233C131.177 42.9481 134.683 43.5347 135.019 46.5574C135.076 47.0686 135.098 47.656 134.952 48.1546C134.925 48.2426 134.887 48.3268 134.838 48.4053C135.852 48.9278 136.891 49.4674 137.815 50.1436C137.869 49.6017 138.004 49.0726 138.045 48.5315C138.216 46.288 137.775 44.2109 136.046 42.6353C135.563 42.1957 135.14 41.9965 134.95 41.3524C133.878 40.6404 132.38 40.2866 131.218 39.6977C127.705 37.9147 127.206 33.1441 127.63 29.6452C127.697 29.0996 128.161 27.5554 127.994 27.1337L127.938 27.0031Z" fill="#1D366D"/>
<path d="M125.222 27.2845L125.188 27.3629C124.954 27.9002 124.835 28.4727 124.607 29.013C123.786 30.9625 122.58 32.9739 120.996 34.3942L120.804 35.6742C120.59 38.1058 120.762 40.4433 121.484 42.7824C121.616 43.2093 121.794 43.8952 122.067 44.2497C122.291 44.543 124.028 44.8095 124.455 44.9124C125.19 45.1408 125.96 45.3237 126.565 45.8237C129.389 46.4887 132.163 47.2679 134.836 48.4053C134.884 48.3268 134.922 48.2426 134.95 48.1546C135.099 47.656 135.074 47.0686 135.017 46.5574C134.68 43.5347 131.174 42.9481 129.089 41.5255C127.757 40.5932 126.646 39.3812 125.832 37.9744C123.989 34.7188 124.568 30.7968 125.501 27.3763L125.222 27.2845Z" fill="#0D2150"/>
<path d="M102.553 10.3477C100.09 12.989 98.4406 15.8423 98.5779 19.5852C98.5973 20.0987 98.5883 20.6622 98.6958 21.1637L99.0615 25.194L99.5549 27.636C99.6504 27.9905 99.8064 28.3943 99.822 28.76C100.508 32.0537 102.977 35.154 105.75 36.9698L105.857 37.04C107.633 38.0528 109.282 38.7394 111.359 38.7566L112.238 38.7387C115.486 38.6148 118.643 36.6564 120.804 34.3285L120.999 34.3987C122.583 32.9806 123.788 30.9655 124.61 29.0175C124.838 28.4772 124.957 27.9047 125.191 27.3673L125.225 27.289L125.501 27.3763C126.463 27.4293 127.032 27.3278 127.938 27.0031C128.771 26.5799 129.465 26.0739 129.977 25.2746C130.685 24.1685 130.981 22.3773 130.673 21.1062C130.427 20.0972 129.76 19.4859 128.9 18.9612C129.371 17.9783 128.333 13.9204 127.987 12.8576L127.959 12.9114C127.72 13.4047 127.611 13.9562 127.396 14.4585C127.022 15.3118 126.522 16.1043 125.914 16.8095C125.473 17.2924 125.093 17.6096 124.482 17.8686L124.454 18.2261L124.481 18.6739C122.914 18.6328 121.317 18.4291 119.755 18.2604C119.161 18.197 118.4 18.2604 117.901 17.9141C117.623 17.8447 117.304 17.8395 117.02 17.8149L114.623 17.3394C109.914 16.3154 105.27 14.5906 102.553 10.3477Z" fill="#F6B697"/>
<path d="M110.413 24.7641L110.301 24.7342C109.966 24.6596 109.481 24.8753 109.222 25.0775C109.11 25.1662 109.017 25.2777 108.951 25.4046C108.884 25.5316 108.846 25.6712 108.837 25.8142C108.807 26.3874 108.881 26.8344 109.292 27.2688C109.636 27.6323 109.938 27.6271 110.407 27.6487L110.839 27.6062L110.925 27.4054L110.775 27.2196L110.195 27.1725C109.832 27.0822 109.63 26.9307 109.448 26.5964C109.286 26.2978 109.307 25.9993 109.384 25.6806C109.757 25.2582 109.903 25.2507 110.429 25.1134L110.413 24.7641Z" fill="#EF5D5A"/>
<path d="M116.922 17.9902C116.326 17.8817 115.717 17.8718 115.118 17.9611C114.891 18.0437 114.673 18.1474 114.466 18.2709C114.168 18.4739 114.089 18.6672 114.009 18.9963C114.133 19.2949 114.233 19.3016 114.503 19.4568C115.261 19.5382 115.921 19.1254 116.772 19.2837C117.328 19.3874 117.933 19.9121 118.489 19.7061C118.618 19.4076 118.673 19.315 118.538 18.9963C118.318 18.4769 117.411 18.1641 116.922 17.9902Z" fill="#1D366D"/>
<path d="M103.29 18.7269L102.837 18.6963C102.099 18.7217 101.296 19.3307 100.833 19.8658C100.433 20.3315 100.047 20.8898 100.087 21.5294C100.253 21.8653 100.255 21.872 100.6 22.016C101.048 21.6302 101.322 21.1204 101.833 20.7711C102.327 20.4345 103.155 20.2703 103.566 19.8942C103.775 19.7031 103.748 19.4755 103.779 19.212C103.642 18.9157 103.577 18.8963 103.29 18.7269Z" fill="#1D366D"/>
<path d="M125.222 27.2845L125.166 27.2099C124.963 26.9392 124.796 26.644 124.668 26.3314C124.11 28.1227 123.434 29.8057 122.524 31.4499L121.405 33.3486C121.256 33.5777 120.844 34.0778 120.808 34.327L121.003 34.3972C122.586 32.9791 123.792 30.964 124.613 29.016C124.842 28.4757 124.96 27.9032 125.195 27.3659L125.222 27.2845Z" fill="#F3632D"/>
<path d="M118.423 24.9178C118.17 24.9244 117.921 24.9697 117.682 25.0522C117.419 25.1507 117.223 25.4254 117.128 25.6799C116.961 26.1277 117.064 26.6747 117.278 27.092C117.491 27.5092 117.734 27.6054 118.164 27.742C118.463 27.742 118.74 27.6457 119.026 27.5622C119.226 27.3838 119.468 27.189 119.568 26.933C119.7 26.5971 119.739 26.112 119.583 25.7851C119.331 25.2507 118.948 25.0798 118.423 24.9178Z" fill="#F3756C"/>
<path d="M117.589 22.1086C117.401 21.7832 117.233 21.504 116.849 21.4011C116.518 21.313 116.11 21.3399 115.821 21.5361C115.475 21.7712 115.187 22.3034 115.128 22.7154C115.067 23.1423 115.268 23.5864 115.549 23.8983C115.72 24.0775 115.927 24.2185 116.156 24.3118C116.258 24.3346 116.363 24.3391 116.467 24.3252C116.975 24.2618 117.283 23.7879 117.564 23.4117L117.502 23.2856C117.778 22.887 117.66 22.5594 117.589 22.1086Z" fill="#0D2150"/>
<path d="M117.589 22.1086L117.089 22.1407C117.014 22.4803 117.185 22.8564 117.387 23.1475L117.504 23.2856C117.778 22.887 117.66 22.5594 117.589 22.1086Z" fill="#FEFEFE"/>
<path d="M117.564 23.4117C117.283 23.7849 116.975 24.2618 116.467 24.3253C116.363 24.3391 116.258 24.3346 116.156 24.3118L116.345 24.5298C116.885 24.4842 117.142 24.2394 117.527 23.8842C117.422 24.1969 117.399 24.2827 117.089 24.441L116.865 24.5156C116.566 24.6074 116.268 24.685 116.119 24.9671C115.764 25.6463 115.591 26.7121 115.816 27.4607C115.956 27.9256 116.242 28.5018 116.662 28.7377L116.892 28.6489L116.831 28.5832C116.67 28.413 116.535 28.2207 116.43 28.0122C116.394 27.943 116.345 27.8817 116.285 27.8324L116.177 27.7249L116.232 27.5674L116.313 27.6502C116.407 27.7398 116.514 27.8152 116.631 27.8741C116.36 27.0159 116.142 26.165 116.592 25.3142C116.711 25.078 116.878 24.8693 117.082 24.7016C117.286 24.5338 117.524 24.4107 117.778 24.3402C118.432 24.1678 119.271 24.3723 119.823 24.7522C120.404 25.153 120.617 25.7784 120.739 26.4367L121.009 26.0404C120.936 25.9412 120.885 25.8274 120.86 25.7068C121.029 25.7069 121.195 25.6602 121.339 25.5717C121.045 25.1194 120.742 24.7052 120.326 24.3574C119.684 23.8237 118.79 23.4774 117.951 23.5595C117.789 23.5759 117.704 23.4909 117.564 23.4117Z" fill="#F29785"/>
<path d="M104.43 26.0165L104.505 25.9567C104.716 25.7724 104.837 25.4082 104.865 25.1358C104.913 24.6626 104.799 24.2103 104.478 23.8498C104.237 23.5796 103.917 23.4819 103.562 23.4834C103.16 23.4834 102.989 23.5841 102.715 23.8625C102.54 23.9983 102.413 24.1862 102.351 24.3991C102.235 24.8096 102.21 25.2947 102.426 25.6724C102.521 25.8337 102.65 25.9729 102.803 26.0805C102.957 26.1881 103.131 26.2617 103.316 26.2963C103.735 26.374 104.086 26.2381 104.43 26.0165Z" fill="#0D2150"/>
<path d="M103.15 24.6014L103.642 24.2469L103.622 23.9909C103.343 23.7886 103.26 23.708 102.9 23.7916C102.837 23.8052 102.776 23.8292 102.721 23.8625C102.577 24.2051 102.579 24.4141 102.64 24.7783C102.805 24.9425 102.864 25.0477 103.094 25.0865C103.124 24.9263 103.143 24.7642 103.15 24.6014Z" fill="#FEFEFE"/>
<path d="M107.128 31.0707L106.825 31.0155L106.882 31.1901C107.274 32.1081 108.212 32.994 109.13 33.3739C109.666 33.5881 110.238 33.6923 110.815 33.6803C111.391 33.6682 111.959 33.5402 112.485 33.3038C113.748 32.75 114.691 31.5469 115.149 30.2684C115.285 29.89 115.536 29.1489 115.365 28.7854L115.04 29.2556C114.315 30.6796 113.398 31.8909 111.806 32.3955C111.254 32.5699 110.673 32.6329 110.096 32.5806C109.52 32.5283 108.959 32.3619 108.448 32.091C107.952 31.8294 107.506 31.4842 107.128 31.0707Z" fill="#E24140"/>
<path d="M128.594 21.1465C128.308 20.8428 128.276 20.8264 127.865 20.748C127.198 20.8838 126.791 21.3204 126.426 21.8675L126.352 21.9817C125.935 22.4295 125.637 23.1333 125.646 23.7587C125.652 24.164 125.967 24.4849 126.258 24.723L126.338 24.7865L126.546 24.9641C126.782 25.1335 126.904 25.2537 127.197 25.1992C127.57 25.1305 127.919 24.7447 128.11 24.429C128.583 23.649 128.832 22.028 128.594 21.1465Z" fill="#F29785"/>
<path d="M128.594 21.1465C128.308 20.8428 128.276 20.8264 127.865 20.748C127.198 20.8838 126.791 21.3204 126.426 21.8675L126.352 21.9817C126.134 22.9564 126.093 23.6804 126.455 24.6238C126.631 24.2163 126.53 23.7446 126.561 23.3094C126.589 22.9631 126.624 22.425 126.896 22.1899C126.896 22.7437 126.747 23.3684 126.883 23.9065L127.004 23.852C127.317 23.6363 127.586 22.9273 127.589 22.5594C127.589 22.2653 127.464 22.0586 127.275 21.8474C127.2 21.76 127.214 21.7332 127.2 21.6197L127.592 21.2465C127.891 21.16 128.064 21.2212 128.344 21.3257L128.45 21.3652L128.594 21.1465Z" fill="#EF5D5A"/>
<path d="M115.04 29.2556C114.745 29.1623 114.377 29.4444 114.096 29.5847C112.399 30.4311 110.727 30.9476 108.824 30.9722C108.426 30.9774 107.498 30.8565 107.189 31.0244L107.128 31.0707C107.506 31.4844 107.953 31.8295 108.449 32.091C108.961 32.3619 109.521 32.5283 110.098 32.5806C110.674 32.6328 111.256 32.5699 111.808 32.3955C113.4 31.8909 114.315 30.6796 115.04 29.2556Z" fill="#FEFEFE"/>
<path d="M103.554 26.8113C103.13 26.6889 102.6 26.6949 102.163 26.7553C101.601 26.8344 101.133 27.0919 100.8 27.5659C100.478 28.0219 100.415 28.6354 100.556 29.166C100.711 29.7467 101.19 29.987 101.676 30.2639C102.184 30.3863 102.834 30.4781 103.336 30.2878C103.858 30.0893 104.391 29.5997 104.596 29.075C104.752 28.6764 104.687 28.2697 104.533 27.8846C104.337 27.4039 104.031 27.0225 103.554 26.8113Z" fill="#F3756C"/>
<path d="M127.987 12.8606L127.959 12.9143C127.72 13.4077 127.611 13.9592 127.396 14.4615C127.022 15.3137 126.522 16.1052 125.914 16.8095C125.473 17.2924 125.093 17.6096 124.482 17.8686L124.454 18.2261L124.481 18.6739L124.749 22.1743H124.858L124.863 22.0511C124.91 21.1764 125.258 20.0591 125.924 19.4486C126.564 18.8627 127.164 18.712 128.019 18.7664C128.269 18.788 128.515 18.8381 128.753 18.9157L128.844 18.9418L128.898 18.959C129.371 17.9813 128.333 13.9234 127.987 12.8606Z" fill="#0D2150"/>
<path d="M102.553 10.3477C100.09 12.989 98.4406 15.8423 98.5779 19.5852C98.5973 20.0987 98.5883 20.6622 98.6958 21.1637C99.0914 20.448 99.1727 19.5292 99.3578 18.7366C99.984 16.0617 101.158 14.0883 103.045 12.1419C105.138 14.8899 109.029 16.4617 112.311 17.226C113.146 17.42 114.415 17.5044 115.118 17.9619C115.717 17.8726 116.326 17.8824 116.922 17.991L117.022 17.8178L114.624 17.3424C109.914 16.3154 105.27 14.5906 102.553 10.3477Z" fill="#F3756C"/>
<path d="M87.7065 105.668L88.4462 106.195L88.5611 106.226C89.2754 106.431 90.0695 106.956 90.78 107.247C92.4796 107.938 94.2253 108.51 96.0044 108.959C102.342 110.572 109.177 110.629 115.639 109.843C119.646 109.355 123.737 108.515 127.5 107.028L131.799 105.107L132.023 104.936C132.368 104.776 132.706 104.535 133.032 104.339L132.46 100.651L132.183 98.2195C132.823 98.5755 133.62 98.8495 134.321 99.0532C136.705 99.7451 139.145 99.5406 141.328 98.327C143.818 96.9425 144.886 94.3296 145.487 91.6845C145.711 90.7076 145.829 89.7142 146.105 88.7506C146.125 87.7759 146.287 86.7975 146.371 85.8257L146.553 81.8335L146.404 74.5544L146.128 70.1786C145.991 69.7121 145.969 69.1687 145.904 68.6859L145.501 65.8132C144.931 61.9658 143.88 58.178 141.958 54.7814L142.133 54.462C142.025 54.4854 141.915 54.4952 141.805 54.4911L141.479 54.0746C140.542 52.7185 139.435 51.4877 138.186 50.4123L137.813 50.1421C136.889 49.4659 135.85 48.9301 134.836 48.4039C132.159 47.2665 129.388 46.4873 126.565 45.8215C125.96 45.3222 125.19 45.1394 124.456 44.911C124.025 44.8072 122.291 44.5378 122.068 44.2482C121.795 43.8937 121.616 43.2034 121.485 42.7809C120.762 40.4419 120.589 38.1043 120.805 35.6727L120.996 34.392L120.801 34.3226C118.64 36.6504 115.483 38.6088 112.234 38.732L111.356 38.7506C111.659 39.0447 111.646 39.4559 111.655 39.8702C111.667 40.5508 111.672 41.2472 111.576 41.9219C111.427 42.9056 111.203 43.8236 110.785 44.7349L108.88 44.9744L104.297 45.5476L102.043 45.9536C101.798 46.0051 101.462 46.0327 101.259 46.1775H100.956L98.4674 46.8955L97.9449 47.0373L97.7606 47.1679C93.1586 48.9748 91.0539 53.1387 88.3379 56.9451L90.8009 63.8033L91.1472 64.6153C91.7995 64.8183 92.3555 64.8392 93.034 64.822C92.607 65.5273 92.4421 66.3349 92.0458 67.0409L95.2096 75.9904C95.5827 77.0352 97.2911 81.0707 97.0344 81.935C96.8985 82.3895 96.7052 82.7254 96.288 82.9799C95.9559 83.1836 95.5574 83.1508 95.1834 83.1396L91.1599 83.2545L89.5119 93.8012L88.2096 102.267C88.0439 103.368 87.7095 104.558 87.7065 105.668Z" fill="#F3756C"/>
<path d="M107.157 52.5849L107.083 52.7386C107.269 53.1693 107.7 53.5253 108.127 53.6999C108.575 53.8821 109.045 53.8432 109.484 53.6514L110.1 53.3432L110.151 53.0499L110.019 52.8685L109.804 52.9857L109.701 53.0379C109.477 53.1667 109.229 53.2473 108.972 53.2745C108.166 53.3365 107.761 53.0864 107.157 52.5849Z" fill="#E24140"/>
<path d="M125.159 50.1772C124.857 50.784 124.562 51.2221 123.878 51.4378C123.298 51.6206 122.848 51.487 122.315 51.2474L122.185 51.3878L122.215 51.7766C122.749 51.9326 123.271 52.1028 123.833 52.0177C124.058 51.9809 124.274 51.8993 124.467 51.7776C124.66 51.6559 124.826 51.4967 124.957 51.3094C125.227 50.9168 125.254 50.6369 125.159 50.1772Z" fill="#E24140"/>
<path d="M131.696 82.2149L130.991 82.1514L130.825 82.4544C132.761 83.1956 134.723 83.8725 136.433 85.0808C137.204 85.6242 137.857 86.3444 138.639 86.8512C138.843 86.7415 138.84 86.743 138.928 86.528L138.869 86.4108C138.657 86.0168 138.156 85.6264 137.818 85.3376C136.025 83.8068 133.941 82.8746 131.696 82.2149Z" fill="#D12629"/>
<path d="M110.369 53.9336L110.363 54.0664C110.359 54.5015 110.643 54.8344 110.946 55.1158C111.144 55.2985 111.378 55.4384 111.633 55.5265C111.888 55.6146 112.158 55.6491 112.426 55.6278C112.761 55.5972 113.423 55.4852 113.646 55.2158L114.285 54.4374C114.75 54.9374 115.232 55.5315 115.888 55.7808C116.326 55.9472 116.961 55.9189 117.387 55.7211C118.156 55.3643 118.431 54.6016 118.711 53.8552C119.423 54.1851 120.073 54.5859 120.894 54.3112C121.36 54.156 121.899 53.703 122.111 53.2596C122.26 52.9439 122.303 52.6267 122.175 52.3088C121.852 52.9626 121.535 53.4955 120.8 53.7507C120.256 53.9403 119.719 53.8403 119.226 53.5708L118.723 53.238C118.355 54.0373 118.035 54.8053 117.137 55.1247C116.689 55.2837 116.066 55.2904 115.636 55.0815C115.05 54.7978 114.733 54.3 114.385 53.7716C113.876 54.3687 113.37 55.0322 112.526 55.1001C111.944 55.1471 111.4 55.0255 110.959 54.6299C110.739 54.4188 110.541 54.1854 110.369 53.9336Z" fill="#E24140"/>
<path d="M136.342 50.6332C135.756 50.5257 135.05 50.9198 134.557 51.2139C131.939 52.7812 130.357 56.0726 129.648 58.9184C129.537 59.3662 129.35 59.7118 129.59 60.1126L129.898 60.1051C130.162 59.4707 130.293 58.7878 130.516 58.1377C131.282 55.8987 132.391 53.6664 134.268 52.1565C134.584 51.8888 134.938 51.67 135.319 51.5072C135.725 51.3452 136.193 51.3094 136.454 50.9541L136.342 50.6332Z" fill="#D12629"/>
<path d="M92.7533 61.8687C93.2564 60.2573 96.7008 49.6114 96.3985 48.8337C96.1746 49.0196 91.2994 62.0224 91.1979 62.924L91.1867 63.0606C91.6756 62.6076 92.2048 62.2426 92.7533 61.8687Z" fill="#D12629"/>
<path d="M131.696 82.2148L129.506 61.3171C128.82 66.6513 128.624 72.5123 125.725 77.2143C125.391 77.7533 124.987 78.2459 124.525 78.6794C124.221 78.96 123.691 79.269 123.48 79.6041L130.825 82.4567L130.991 82.1536L131.696 82.2148Z" fill="#E24140"/>
<path d="M124.458 44.9155C124.061 45.0267 123.786 45.0834 123.555 45.464C123.205 46.0327 123.048 46.7866 122.718 47.3903C121.644 49.3532 119.583 50.9392 117.474 51.593C115.584 52.1782 113.377 51.9005 111.645 50.9736C110.994 50.6285 110.417 50.1579 109.949 49.5889C109.481 49.0198 109.13 48.3637 108.917 47.6583C108.772 47.1573 108.715 46.6352 108.748 46.1148C107.852 45.8656 107.186 45.7536 106.346 46.2261C105.923 46.4626 105.497 46.8373 105.358 47.3135C105.164 47.9725 105.283 48.5315 105.546 49.1368L105.614 49.3256L105.539 49.5742C105.852 50.0862 106.164 50.2907 106.744 50.4325L107.091 50.5071C106.792 51.2661 106.792 51.7393 107.119 52.5073L107.154 52.5872C107.758 53.0887 108.163 53.3387 108.971 53.2745C109.229 53.2484 109.479 53.1686 109.704 53.0402L109.807 52.9879L110.022 52.8708L110.157 53.0506C110.227 53.2835 110.422 53.7089 110.369 53.9343C110.541 54.1862 110.739 54.4195 110.959 54.6307C111.4 55.024 111.944 55.1479 112.526 55.1009C113.37 55.0329 113.876 54.3665 114.385 53.7724C114.733 54.3008 115.05 54.7986 115.636 55.0822C116.065 55.2912 116.692 55.2845 117.137 55.1255C118.033 54.8046 118.355 54.0381 118.723 53.2387L119.226 53.5731C119.719 53.8425 120.256 53.9425 120.8 53.753C121.535 53.4977 121.852 52.9648 122.175 52.311L122.215 51.7789L122.185 51.39L122.315 51.2497C122.848 51.4893 123.298 51.6229 123.878 51.44C124.563 51.2251 124.857 50.7862 125.159 50.1795C125.213 49.7555 125.25 49.46 125.096 49.0502C125.573 48.939 126.178 48.8338 126.54 48.4763C126.854 48.1666 126.833 47.9747 126.822 47.5628L126.876 47.2485C126.993 46.6336 126.864 46.3492 126.568 45.826C125.963 45.3237 125.193 45.1394 124.458 44.9155Z" fill="#FEFEFE"/>
<path d="M105.613 49.3256L105.538 49.5742C105.852 50.0861 106.164 50.2906 106.744 50.4325L107.09 50.5071C107.279 50.3369 107.476 50.2227 107.532 49.9697C106.786 49.9361 106.338 49.8787 105.72 49.4122L105.613 49.3256Z" fill="#E24140"/>
<path d="M126.822 47.5605C126.598 47.7747 126.347 48.0359 126.076 48.1874C125.777 48.3509 124.956 48.3748 124.828 48.6166L125.096 49.048C125.574 48.9367 126.179 48.8315 126.541 48.474C126.854 48.1643 126.833 47.9755 126.822 47.5605Z" fill="#E24140"/>
<path d="M120.996 34.3919L120.801 34.3218C118.64 36.6496 115.483 38.608 112.234 38.7319L111.356 38.7499C111.659 39.0484 111.646 39.4552 111.655 39.8694C111.666 40.55 111.672 41.2464 111.576 41.9211C111.427 42.9048 111.203 43.8228 110.785 44.7341L108.88 44.9736C108.866 45.2677 108.916 45.8819 108.748 46.1133C108.716 46.6327 108.773 47.1538 108.918 47.6538C109.131 48.3592 109.482 49.0153 109.95 49.5844C110.418 50.1534 110.994 50.624 111.646 50.969C113.378 51.896 115.585 52.1736 117.475 51.5885C119.584 50.9347 121.644 49.3495 122.718 47.3858C123.049 46.782 123.206 46.0282 123.556 45.4595C123.789 45.0789 124.062 45.0221 124.459 44.9109C124.029 44.8079 122.294 44.5378 122.071 44.2482C121.798 43.8937 121.623 43.2078 121.488 42.7809C120.766 40.4418 120.592 38.1043 120.808 35.6727L120.996 34.3919Z" fill="#F6B697"/>
<path d="M120.996 34.3919L120.801 34.3218C118.64 36.6496 115.483 38.608 112.234 38.7319L111.356 38.7499C111.659 39.0484 111.646 39.4552 111.655 39.8694C111.667 40.55 111.672 41.2464 111.576 41.9211C114.517 41.8875 117.323 40.0769 119.169 37.8707C119.732 37.1989 120.139 36.3287 120.753 35.7219L120.805 35.6727L120.996 34.3919Z" fill="#F3632D"/>
<path d="M111.019 84.7763C111.075 84.0792 111.728 82.9515 112 82.2671L114.249 76.5494C113.544 76.2508 108.212 73.7782 108.018 73.5386C107.855 73.3378 105.791 63.3995 105.411 62.1284C105.09 61.0515 104.379 59.917 103.901 58.8796C102.716 56.3166 101.648 53.5746 100.231 51.1363C99.9912 50.7355 99.6871 50.377 99.3309 50.075L99.0227 50.1153C98.8462 50.2204 98.7002 50.3695 98.5988 50.5481C98.1017 51.5184 100.041 58.0556 100.513 59.3371C100.289 59.4804 99.8623 59.4782 99.5981 59.514C98.9412 59.5988 98.289 59.7171 97.6442 59.8685C95.8895 60.2947 94.3379 61.0276 92.7534 61.8687C92.2048 62.2419 91.6757 62.6076 91.186 63.0629L90.7987 63.8033L91.1443 64.6153C91.7973 64.819 92.3526 64.8392 93.0318 64.8228C93.799 64.6317 94.4453 64.313 95.1775 64.0481C94.6103 65.3168 94.4647 66.655 94.9648 67.9903C95.4353 69.2113 96.258 70.2649 97.3285 71.0174L97.8845 71.2242L99.3541 71.2316C99.6989 72.6333 100.049 74.0543 100.712 75.3455C101.841 77.5465 103.713 79.1519 105.612 80.6811L110.45 84.4621L111.019 84.7763Z" fill="#F6B697"/>
<path d="M99.0652 65.5086L99.0047 65.4915C98.4898 65.3706 97.6068 65.6549 97.1516 65.9266C96.8996 66.0714 96.6809 66.2675 96.5094 66.5021C96.3379 66.7367 96.2175 67.0047 96.1559 67.2887C96.0596 67.6969 96.0216 68.2768 96.2552 68.6321C96.3104 68.6052 96.3903 68.6052 96.4209 68.5522C96.4515 68.4992 96.4343 68.1843 96.4388 68.1141C96.4709 67.5917 96.5276 67.0692 96.8456 66.6371C97.3419 65.9654 98.2636 65.8408 99.0286 65.7221L99.0652 65.5086Z" fill="#EF5D5A"/>
<path d="M99.3511 71.2316C99.1841 70.4872 98.957 69.7576 98.6719 69.05L97.8815 71.2242L99.3511 71.2316Z" fill="#F3756C"/>
<path d="M87.7066 105.668L88.4462 106.195L88.5612 106.226C89.2754 106.431 90.0695 106.956 90.7801 107.247C92.4797 107.938 94.2254 108.51 96.0045 108.959C102.342 110.572 109.177 110.629 115.639 109.843C119.646 109.355 123.737 108.515 127.5 107.028L131.799 105.107L132.023 104.936C132.368 104.776 132.706 104.535 133.032 104.339L132.46 100.651L132.183 98.2195C131.437 97.7568 130.488 97.447 129.684 97.0701L125.124 94.7229C120.181 91.9532 115.531 88.7588 110.864 85.5577C110.811 85.2487 110.915 85.0629 111.014 84.7763L110.441 84.4613L105.603 80.6811C103.705 79.1548 101.832 77.5464 100.703 75.3455C100.041 74.0543 99.6899 72.6332 99.3451 71.2316L97.8763 71.2241L97.3195 71.0174C96.2499 70.2636 95.4285 69.2089 94.9596 67.9872C94.4603 66.6528 94.6051 65.3146 95.1723 64.0458C94.4401 64.3107 93.7938 64.6294 93.0266 64.8197C92.5996 65.525 92.4347 66.3326 92.0384 67.0386L95.2022 75.9881C95.5753 77.0329 97.2837 81.0684 97.027 81.9327C96.8911 82.3872 96.6978 82.7231 96.2806 82.9776C95.9485 83.1814 95.5499 83.1485 95.176 83.1373L91.1525 83.2523L89.512 93.8011L88.2096 102.267C88.0439 103.368 87.7096 104.558 87.7066 105.668Z" fill="#F3756C"/>
<path d="M97.3285 71.0175C98.3573 75.4137 100.208 79.5756 102.784 83.2837C107.022 89.3582 113.369 94.4162 119.631 98.2912L123.203 100.473C124.798 101.443 127.239 102.645 127.76 104.594C127.978 105.415 127.76 106.252 127.507 107.029L131.806 105.108L132.03 104.937C132.375 104.777 132.713 104.536 133.039 104.34L132.466 100.652L132.183 98.2195C131.437 97.7568 130.488 97.4471 129.684 97.0702L125.124 94.7229C120.181 91.9532 115.531 88.7589 110.864 85.5578C110.81 85.2488 110.915 85.063 111.014 84.7764L110.441 84.4614L105.603 80.6811C103.705 79.1549 101.832 77.5465 100.703 75.3455C100.041 74.0543 99.6899 72.6333 99.3451 71.2317L97.8763 71.2242L97.3285 71.0175Z" fill="#EF5D5A"/>
<path d="M109.135 88.5021C109.264 88.9074 110.793 89.7619 111.216 90.0411C114.854 92.4428 118.539 94.7595 122.417 96.7619C125.465 98.3352 129.097 99.9772 132.466 100.65L132.183 98.2195C131.436 97.7568 130.488 97.4471 129.684 97.0701L125.124 94.7229C120.181 91.9532 115.531 88.7588 110.864 85.5578C110.81 85.2488 110.915 85.0629 111.013 84.7763L110.441 84.4614C110.163 84.948 110.061 85.5063 109.905 86.0421L109.135 88.5021Z" fill="#E24140"/>
<defs>
<linearGradient id="paint0_linear_269_2002" x1="21.9825" y1="65.4109" x2="17.0223" y2="67.2372" gradientUnits="userSpaceOnUse">
<stop stop-color="#54AC59"/>
<stop offset="1" stop-color="#188967"/>
</linearGradient>
<linearGradient id="paint1_linear_269_2002" x1="34.286" y1="58.1788" x2="38.2596" y2="58.1496" gradientUnits="userSpaceOnUse">
<stop stop-color="#C8D0D9"/>
<stop offset="1" stop-color="#BEC8E6"/>
</linearGradient>
<linearGradient id="paint2_linear_269_2002" x1="58.258" y1="95.8805" x2="69.345" y2="95.2423" gradientUnits="userSpaceOnUse">
<stop stop-color="#1F3072"/>
<stop offset="1" stop-color="#454A7C"/>
</linearGradient>
</defs>
</svg>
