<svg width="180" height="126" viewBox="0 0 180 126" fill="none" xmlns="http://www.w3.org/2000/svg">
<path d="M146.132 77.457C146.147 79.3229 147.716 80.9141 149.551 80.9253C151.133 80.9372 152.994 79.0781 152.985 77.5003C152.97 75.6501 151.268 74.0522 149.342 74.0776C147.377 74.1037 146.115 75.427 146.132 77.457ZM146.962 77.4428C147.097 75.8681 147.905 74.9366 149.437 74.9314C150.855 74.9314 152.089 76.0457 152.115 77.354C152.138 78.5997 150.689 80.1155 149.44 80.0461C148.142 79.9692 146.845 78.8034 146.962 77.4428Z" fill="#FEF8F6"/>
<path d="M4.96167 93.8655C4.99078 93.9827 5.02212 94.1028 5.05049 94.2207C5.30574 94.02 5.0878 93.9565 4.96167 93.8655Z" fill="#FEFEFE"/>
<path d="M4.94458 93.8513C4.95055 93.8565 4.95577 93.8595 4.96175 93.8655C4.96175 93.8565 4.96175 93.8513 4.95578 93.8423L4.94458 93.8513Z" fill="#FEFEFE"/>
<path d="M149.439 74.9321C147.904 74.9321 147.097 75.8688 146.962 77.4421C146.844 78.8049 148.143 79.9685 149.441 80.0454C150.689 80.12 152.137 78.6004 152.114 77.354C152.09 76.0449 150.857 74.9284 149.439 74.9321Z" fill="#FECCBD"/>
<path d="M113.245 57.7729C112.492 57.1877 111.63 56.9944 110.695 57.0646L110.721 57.0795C109.09 56.4183 108.921 55.4786 109.467 53.7508C110.279 51.1811 108.964 49.1123 106.864 47.5561C102.419 44.2543 101.714 41.7346 102.629 36.4356C103.061 33.939 104.247 32.6516 106.266 31.6873C108.431 30.1819 109.462 28.1347 109.038 25.5009C108.87 24.456 108.305 23.4156 107.269 23.1125C106.055 22.7595 104.842 23.0379 103.923 24.1149C103.503 24.6052 103.3 25.309 102.373 25.6725C102.4 22.0326 100.042 19.8644 97.7505 17.5993C95.8981 15.7685 94.63 13.4765 93.3963 11.2031C92.8739 10.2328 92.4776 9.90594 91.4961 10.7165C86.7091 14.6721 81.1435 17.088 75.2302 18.777C74.3346 19.0323 73.7181 19.3204 73.6151 20.4332C73.227 24.6261 73.1532 28.7922 74.0831 32.9337C74.963 36.8468 76.9192 40.0778 80.0927 42.5511C78.7873 44.1535 77.3693 45.6477 75.7198 46.9016C73.0964 48.8899 73.6226 51.7155 73.7853 54.4106C73.8174 54.9524 73.9973 55.4629 73.7226 55.9779L73.745 55.963C73.2815 55.9279 72.8113 55.8764 72.5509 56.3959L66.8458 58.6192L66.8958 58.6148L66.2308 58.5155C64.9725 56.7243 63.0215 55.6921 61.4788 54.2068C58.8502 51.6693 58.5584 49.2063 60.5168 46.1545C61.3572 44.8439 62.4573 43.7722 63.6477 42.7959C62.6349 42.0563 62.0057 43.8072 61.0646 43.0019C62.0983 41.9257 63.5499 41.4891 64.7217 40.6136C67.2884 38.694 67.5362 36.5386 65.4971 34.0674C64.856 33.2905 63.885 32.7143 63.797 31.5552C65.3173 32.627 66.5211 34.0182 67.269 35.684C67.9228 37.1424 67.4399 38.5612 66.4995 39.827C66.1562 40.289 65.4785 40.5733 65.6091 41.3316C68.7721 39.4366 69.3169 36.4057 67.0145 33.5748C66.3547 32.7708 65.6991 31.9637 65.0478 31.1537L64.8344 30.7992L64.6067 30.2387C64.5321 29.3147 64.4575 28.3907 64.3828 27.4667C64.756 26.0106 65.5479 24.8127 66.5472 23.7089C66.8876 23.3357 67.7504 23.1043 67.219 22.2848C67.1757 21.9669 67.1772 21.6676 67.5414 21.5213C70.2723 20.4227 71.035 18.0986 71.3239 15.4692C71.8709 10.4926 74.3637 6.61231 78.4537 3.92173C84.62 -0.134661 91.1252 -1.67587 97.9931 2.37306C98.3401 2.57756 98.6409 2.67608 99.023 2.56786C100.63 2.11184 102.049 2.68578 103.432 3.40153C108.372 5.95777 111.385 10.0089 112.112 15.4826C112.576 18.9718 114.363 21.0638 117.465 22.3028C117.804 23.4163 118.335 24.3925 119.181 25.2411C121.002 27.0734 121.24 29.2124 120.127 31.4992C119.483 32.8218 118.662 34.0622 118.084 35.4101C116.707 38.6246 117.571 40.6606 120.778 42.0451C121.51 42.3608 122.262 42.6422 122.963 43.0154C125.519 44.3812 126.883 46.8814 126.172 49.6161C125.202 53.3418 123.465 56.5757 119.316 57.705C118.081 58.0408 116.88 58.5028 115.664 58.9081C114.697 58.8588 113.913 58.4401 113.245 57.7729ZM82.787 10.1358C82.8124 10.0769 82.7124 9.89101 82.6504 9.88206C82.2101 9.81563 82.0347 10.1425 81.86 10.459L81.4869 10.8269C80.6793 10.7971 80.0091 11.0508 79.3016 11.8957C80.3994 11.8547 81.0517 11.5628 81.4913 10.8314C81.6137 10.7075 81.7369 10.5844 81.8593 10.4582C82.1944 10.4142 82.6041 10.5709 82.787 10.1358ZM84.4499 8.97972C84.1133 9.01331 83.7087 8.86553 83.5221 9.29916C83.4968 9.35887 83.5968 9.5462 83.658 9.55665C84.1058 9.63129 84.27 9.29021 84.4499 8.98047C85.129 8.92151 85.5253 8.57819 85.5634 7.87364C85.8694 7.86991 86.1448 7.80498 86.3016 7.50047C86.7359 7.45345 87.1375 7.34224 87.2554 6.85189C87.3069 6.63694 87.1606 6.49961 86.9501 6.54962C86.462 6.66456 86.3277 7.04967 86.2963 7.49375C85.9858 7.49002 85.7142 7.56241 85.5582 7.86692C84.8738 7.92439 84.4745 8.26622 84.4499 8.97972ZM94.5352 3.81426C92.8246 3.28585 91.2782 3.50751 89.9922 4.90766L89.5041 5.04648L89.5974 5.18828L89.9982 4.91437C91.5499 4.70465 92.9679 3.9292 94.5352 3.81426ZM101.951 6.35184C104.392 6.80711 105.648 8.58267 106.751 10.5605C106.932 10.8837 107.031 11.5419 107.611 11.3009C108.304 11.012 107.91 10.4344 107.702 10.0477C106.545 7.87065 105.041 6.06002 102.478 5.49503C101.875 5.36144 101.44 5.54429 101.456 5.97045C101.587 6.07644 101.752 6.31527 101.953 6.35333L101.951 6.35184ZM96.0981 5.90403C94.68 6.369 94.3166 7.73631 93.4904 8.70805C94.9831 8.30727 95.5055 7.07654 96.1026 5.90776L96.0981 5.90403ZM75.5079 13.2414C76.6274 13.1249 77.7641 13.0869 78.5791 12.1301C77.4558 12.2562 76.3722 12.4555 75.5079 13.2414ZM96.4713 4.74048C96.3645 4.99647 96.5175 5.22784 96.8012 5.12858C96.9862 5.06439 97.1512 4.83452 97.2415 4.64047C97.3318 4.44642 97.1766 4.327 96.8601 4.30759C96.7579 4.41582 96.5504 4.55165 96.4713 4.74048ZM87.9823 5.79506C87.8584 6.02792 87.9301 6.30258 88.2637 6.21899C88.4577 6.17048 88.6369 5.95926 88.7585 5.7779C88.8003 5.7152 88.6458 5.52115 88.5301 5.28307C88.295 5.49503 88.0786 5.61296 87.9823 5.79506Z" fill="#2A3A70"/>
<path d="M16.8876 83.2114C16.6771 82.6412 16.9361 81.7187 15.8367 81.815L2.12932 81.8225C0.487353 81.5291 0.0738774 82.2397 0.0962678 83.8376C0.170902 89.4583 0.0962675 95.0821 0.0791016 100.705C0.137317 101.58 0.195781 102.456 0.254493 103.331C1.55612 103.567 1.59792 104.535 1.59792 105.57C1.58598 110.356 1.58598 115.142 1.59792 119.929C1.60762 122.139 2.37561 122.884 4.6042 122.9C6.3208 122.912 8.0374 122.876 9.75399 122.863C9.73907 122.254 9.72439 121.645 9.70996 121.036C8.42102 121.036 7.12909 120.972 5.84538 121.051C4.12281 121.158 3.38691 120.484 3.43318 118.705C3.51752 115.517 3.42348 112.324 3.47946 109.135C3.49364 108.331 2.98239 107.156 3.88995 106.789C4.77959 106.428 5.21322 107.656 5.87598 108.147C7.17089 109.104 7.82394 110.89 9.69802 111.099C10.3861 105.963 9.97566 100.8 10.06 95.65C10.0749 94.7134 10.1705 93.8215 10.5317 92.9594C10.3772 92.0705 10.8302 91.5279 11.5669 91.1481L11.6281 91.0816C11.6512 90.5793 11.7654 90.2547 12.2938 90.7413L13.0402 90.7234C14.1671 90.3502 13.4648 89.1016 14.1037 88.4941C14.0291 87.6651 13.9544 86.8362 13.8798 86.0072C13.7305 85.7035 13.4566 85.4049 13.838 85.078C13.6141 83.8003 13.9962 83.1054 15.4464 83.3107C15.9181 83.3749 16.4092 83.2487 16.8876 83.2114Z" fill="#98C878"/>
<path d="M179.921 98.4943C179.896 92.8997 179.871 87.3046 179.846 81.709C179.834 77.6727 178.708 76.5465 174.709 76.6092C174.218 76.6167 173.727 76.5928 173.237 76.5838L169.489 76.6197C165.826 76.6197 162.161 76.8197 158.503 76.4965L158.397 76.4875L158.296 76.5234L147.728 76.648C147.645 77.1384 147.412 77.4884 146.863 77.3093C145.237 76.7779 143.568 77.1719 141.925 77.0354C140.059 76.8794 138.149 77.4085 136.308 76.7309L135.84 76.598C134.273 76.6107 132.64 76.3368 131.362 77.5929C130.7 78.2437 130.184 78.9871 130.308 79.9961C130.835 80.4036 130.682 80.9888 130.682 81.5187C130.692 84.5662 130.692 87.6133 130.682 90.6599C130.682 91.1824 130.855 91.7794 130.32 92.184C129.518 92.9378 128.569 92.4668 127.681 92.4989L127.294 92.6624C125.627 93.2908 123.899 92.8639 122.204 92.9161C121.107 92.9497 121.148 93.4199 121.426 94.17L122.19 94.4193C124.003 93.9334 125.821 94.5954 127.638 94.3984C130.317 94.2849 130.325 94.2849 130.325 96.8942C130.325 98.0547 130.281 99.2153 130.257 100.377C130.257 102.19 130.461 104.009 130.132 105.816C130.945 105.831 131.786 106.159 132.544 105.592C132.53 103.875 132.507 102.159 132.503 100.442C132.491 94.0625 132.474 87.6798 132.485 81.303C132.485 79.0819 132.996 78.7072 135.122 79.1737C135.357 79.2259 135.61 79.1975 135.854 79.2065C136.631 78.6355 137.52 78.9371 138.349 78.9341C150.402 78.8992 162.455 78.8806 174.508 78.8781C177.548 78.8781 177.657 78.9953 177.643 81.9538C177.629 85.3362 177.669 88.7194 177.616 92.1041C177.545 96.7113 177.791 101.324 177.441 105.927C177.699 106.529 177.416 107.097 177.327 107.677L179.832 112.203L179.921 98.4943Z" fill="#2A3A70"/>
<path d="M45.2831 21.5639C47.8871 19.7361 48.1707 14.2601 45.3577 11.1695C42.7866 8.34457 38.7473 7.66166 35.9411 9.65068C34.4977 11.5165 33.9901 13.616 34.1125 15.9715C34.2678 18.9666 35.762 21.0407 38.3249 22.3087C40.7282 23.4976 43.1508 23.5499 45.2831 21.5639Z" fill="#FBC12F"/>
<path d="M45.283 21.5639C43.1507 23.5499 40.7303 23.4976 38.3256 22.3102C35.7626 21.0414 34.2684 18.9681 34.1132 15.973C33.9908 13.6175 34.4983 11.5173 35.9417 9.65216C31.8809 11.3255 30.0799 16.5029 32.1257 20.6235C34.1527 24.709 39.2607 26.2211 43.0783 23.8372C43.9844 23.2707 45.127 22.8826 45.283 21.5639Z" fill="#F19D15"/>
<path d="M9.75698 122.862C8.04039 122.876 6.32379 122.912 4.60719 122.9C2.3786 122.884 1.61061 122.139 1.60091 119.929C1.58001 115.142 1.58001 110.356 1.60091 105.57C1.60091 104.534 1.56135 103.566 0.257484 103.331C0.2132 110.232 0.168917 117.133 0.124634 124.034C0.124634 125.57 1.19863 125.821 2.37562 125.808C4.98783 125.778 7.59482 125.685 10.2033 125.617C10.1869 125.335 10.171 125.052 10.1555 124.77L10.0884 124.387C9.65772 123.959 9.73683 123.472 9.92491 122.969C9.86744 122.934 9.81221 122.898 9.75698 122.862Z" fill="#67AD72"/>
<path d="M64.3828 27.4667C64.756 26.0106 65.5479 24.8127 66.5472 23.7089C66.8876 23.3357 67.7503 23.1043 67.219 22.2849C64.9657 22.5662 63.7522 24.2298 63.0715 26.036C62.3908 27.8421 61.7855 29.9618 63.797 31.559C65.3173 32.6307 66.5211 34.0219 67.269 35.6877C67.9228 37.1461 67.4399 38.5649 66.4995 39.8307C66.1562 40.2927 65.4785 40.5771 65.6091 41.3353C68.7721 39.4404 69.3169 36.4095 67.0145 33.5786C66.3547 32.772 65.6991 31.9637 65.0478 31.1537C64.0231 31.0537 63.5805 30.5566 63.7246 29.4752C63.8283 28.6982 63.7417 27.8966 63.7395 27.1062C63.6969 27.0862 63.6568 27.0611 63.6201 27.0316C63.6007 27.0137 63.6022 26.9734 63.5939 26.9428C63.641 26.998 63.6872 27.0533 63.7343 27.1077L64.3828 27.4667Z" fill="#C6E2F6"/>
<path d="M57.5911 47.8987C57.2179 52.2753 59.1584 55.5794 62.6573 56.5295C62.6035 55.9257 62.0453 55.8197 61.6751 55.5518C57.5463 52.5611 56.9731 48.4465 60.1339 44.4603C60.2742 44.2827 60.313 44.0244 60.3988 43.8043C58.433 44.461 58.2628 46.35 57.5911 47.8987Z" fill="#2A3A70"/>
<path d="M121.423 26.9137C122.336 28.9042 121.402 30.7753 121.05 32.6844C122.779 30.4887 122.915 28.3862 121.423 26.9137Z" fill="#2A3A70"/>
<path d="M119.612 35.1489C118.068 36.6714 118.634 39.3724 120.646 40.0867C119.57 38.7537 118.918 37.3252 119.618 35.5847C119.58 35.5362 119.561 35.4763 119.563 35.4152C119.564 35.3541 119.587 35.2954 119.627 35.2489L119.612 35.1489Z" fill="#2A3A70"/>
<path d="M119.624 35.2489C119.584 35.2954 119.561 35.3541 119.56 35.4152C119.558 35.4764 119.578 35.5362 119.615 35.5848C119.665 35.5036 119.711 35.4196 119.752 35.3332C119.712 35.3011 119.669 35.2729 119.624 35.2489Z" fill="#C6E2F6"/>
<path d="M62.096 122.833C63.5313 119.718 65.0665 116.645 66.3726 113.478C67.6533 110.374 68.234 107.13 67.2167 103.231C65.8479 108.363 62.876 111.629 58.571 113.721L58.1277 112.461C58.1882 111.859 58.3986 111.193 58.0023 110.687C57.4202 109.95 57.612 109.457 58.1658 108.81C58.6703 108.218 59.1808 107.415 57.8239 107.097L57.4455 107.106L49.3066 107.094C47.5617 104.59 46.8713 101.654 45.9652 98.8175C44.3472 93.7483 42.8261 88.6478 41.2491 83.5651C41.1446 83.2293 40.914 82.9322 40.7416 82.618C40.7311 82.2389 40.7204 81.86 40.7095 81.4813C44.3601 80.6429 48.0102 79.8033 51.6599 78.9624C52.0077 78.8818 52.3405 78.734 52.6801 78.6176L53.2705 78.584L53.7817 79.5774C53.6481 79.914 53.4048 80.2305 53.5511 80.6223C55.7603 86.5498 57.9605 92.481 60.1996 98.3973C60.3966 98.9197 60.5153 99.5989 61.3191 99.8348C61.7669 98.9003 61.1952 98.1458 60.9168 97.4069C58.8569 91.9489 56.7514 86.5102 54.6751 81.0544C54.5467 80.7186 54.5452 80.3342 54.4848 79.9722C55.4789 77.3428 55.3588 74.5455 55.4692 71.8333C55.7133 65.7842 58.6218 61.8435 64.1739 59.697C64.8456 59.4372 65.6046 59.3305 66.0397 58.6476C66.0794 58.6416 66.1173 58.6268 66.1505 58.6041C66.1837 58.5815 66.2114 58.5518 66.2315 58.517L66.8965 58.6163L66.8861 58.7237L66.8458 58.6193L72.5486 56.3951C72.9897 56.3683 73.4442 56.3795 73.7428 55.9623L73.7204 55.9772C74.8444 56.0585 75.7669 55.2838 76.8603 55.2308C78.341 60.9777 82.5325 64.3363 87.3838 67.0866C88.2323 67.5679 89.1421 67.9411 90.0236 68.3643C89.9883 71.7477 89.9534 75.1312 89.9191 78.5146C88.5503 79.2871 88.4548 77.9019 88.2249 77.3205C87.3733 75.162 86.5986 72.9603 85.9978 70.7205C85.2664 67.9926 83.3356 66.5753 80.9271 65.5819C76.994 63.947 72.7206 63.299 68.4795 63.6944C68.0422 63.734 67.8339 63.9929 67.7795 64.4102L66.9831 64.7751C66.0405 64.9833 66.4136 65.7454 66.3368 66.3148C65.8434 67.924 66.5368 69.1099 68.2847 70.0189C70.6171 71.2325 72.8964 72.5483 75.1922 73.832C76.4087 74.512 77.2819 75.5024 77.8596 76.7801C79.3568 80.0901 81.4936 82.7345 85.2171 83.6711C85.5478 83.7457 85.856 83.8977 86.1164 84.1146C86.3768 84.3316 86.582 84.6073 86.715 84.919C86.7252 85.025 86.7535 85.1285 86.7986 85.225C83.7729 87.7857 83.7722 87.7857 86.5844 90.342C86.9009 90.6293 87.1912 90.9614 87.5494 91.1831C89.6504 92.484 90.4871 94.3096 89.9318 96.7404C89.3429 97.7853 89.8571 98.9511 89.575 100.031L89.2519 100.336C87.5002 98.719 85.8082 97.03 83.9729 95.5156C83.0169 94.7268 82.7042 93.9916 83.5057 93.0617C84.4013 92.0324 83.9983 91.1361 83.4363 90.2054C79.9733 84.4705 74.8668 80.7268 68.796 78.1646C68.0071 77.8317 67.4093 77.7324 67.4242 78.9699C67.4742 83.1188 67.9004 87.126 70.6395 90.5383C72.1284 92.3944 73.998 93.5744 76.293 94.0259C77.5454 94.2722 77.935 94.8984 77.7626 96.0791C76.9222 101.951 76.1147 107.824 74.4884 113.551C73.6987 116.334 72.5732 118.986 71.547 121.678C71.35 122.195 71.0753 122.682 71.1171 123.26C70.9805 123.46 70.844 123.661 70.7066 123.857H62.6662L62.096 122.833ZM67.154 100.265C65.1389 95.747 63.7447 91.051 63.473 86.1087C63.3678 84.1801 63.841 82.2225 64.0171 80.2752C64.0567 79.8416 64.3478 79.1557 63.6163 79.0953C63.1394 79.0572 63.0939 79.6625 63.0193 80.0909C61.6594 87.7186 63.479 94.8171 66.645 101.683C66.7943 102.011 66.9376 102.374 67.5862 102.396C67.8608 101.557 67.4384 100.9 67.154 100.265Z" fill="#F19D15"/>
<path d="M34.5088 92.9437C34.4984 91.5928 34.4088 90.2367 34.4931 88.891C34.6864 85.8056 33.4483 83.686 30.5084 82.6165C26.7095 82.1941 24.2704 84.1928 24.5025 88.4992C24.7884 93.7804 24.6518 99.0832 24.657 104.368C24.657 109.838 24.666 115.319 24.5458 120.794C24.5376 121.167 24.5055 121.54 24.5779 121.9C24.9377 123.682 26.3692 123.221 27.5394 123.269C28.9881 123.329 28.1895 122.252 28.241 121.701C28.3544 120.488 28.085 119.229 28.7724 118.1C28.8221 117.845 28.8719 117.59 28.9217 117.335C28.4686 116.878 28.6276 116.297 28.6231 115.762C28.6127 111.772 28.6127 107.783 28.6231 103.795C28.6321 101.385 29.9337 99.6041 32.2735 98.919C32.9579 98.7182 33.3736 98.4488 33.4587 97.7412C33.4303 97.2009 33.3348 96.6538 33.3841 96.1216C33.508 94.8424 33.4423 93.8237 31.6899 94.0826C31.0278 94.1804 30.6293 93.8632 30.9719 93.1086C30.1218 92.2235 30.5838 91.1234 30.5084 90.1233C30.383 88.4664 31.007 86.6363 29.2202 85.4146C28.9217 85.2116 28.8948 84.7033 29.1493 84.3995C29.5128 83.9644 30.0613 84.0204 30.5144 84.2152C32.0817 84.8869 32.5482 86.2564 32.5952 87.8029C32.6474 89.5195 32.6131 91.2413 32.6168 92.9609L34.5088 92.9437Z" fill="#3ABFC3"/>
<path d="M45.6032 62.2592C45.6032 63.5078 46.3384 63.6026 47.1496 63.0346C48.1341 62.3487 48.7834 61.3927 48.5393 60.0776C49.5029 58.7163 48.3819 57.5139 48.2408 56.2369C48.1393 55.3219 47.4653 54.0897 48.9655 53.8628C50.2015 53.6762 50.4918 54.8771 50.7411 55.8309C50.8478 56.2369 50.7776 56.6892 50.7918 57.1198C50.9135 60.8814 50.6828 64.6064 49.6215 68.2404C43.0149 68.1986 36.4112 68.1658 29.8031 68.1031C29.0298 68.0956 28.2089 68.327 27.4894 67.8277C27.7879 66.6387 29.1955 67.4717 29.6859 66.6283C30.3576 65.1005 30.0844 63.4854 30.0098 61.9196C29.9434 60.5291 28.6029 61.1217 27.8334 60.8202C27.8417 58.917 27.8111 57.0138 27.8737 55.1099C27.9029 54.2315 27.5148 53.2441 28.3462 52.5029L33.0071 52.3537C35.0283 52.6521 37.0821 52.6546 39.104 52.3611H39.1787C39.4042 52.4594 39.648 52.509 39.8941 52.5065C40.1401 52.5041 40.3829 52.4497 40.6064 52.3469H41.0147C41.5774 52.5708 42.1342 52.6089 42.685 52.3022L43.0268 52.2544C45.5532 52.329 45.6107 52.3872 45.6166 54.792C45.6204 56.1824 45.6405 57.5729 45.6532 58.9633C45.6353 60.0701 45.601 61.1643 45.6032 62.2592ZM31.5973 58.7446L32.6422 58.8051C34.2438 59.0051 35.8447 59.0469 37.4434 58.773C38.1368 57.9878 38.5025 55.0196 37.9726 54.2703C37.6569 53.8225 37.2479 53.6351 36.7568 54.0583L34.5006 54.0382C34.3789 53.868 34.2647 53.8814 34.1572 54.0516L33.3818 54.0635C32.7733 53.6531 32.1655 53.6531 31.5585 54.0635L31.504 54.0867L31.1704 54.4315L30.9173 56.3384C30.7897 56.9795 30.5934 57.6281 31.1211 58.1976L31.1711 58.1826C31.1748 58.4745 31.1913 58.7588 31.5973 58.7446ZM31.3234 65.7551C31.966 67.7829 33.9311 66.8888 35.3066 66.8708C36.3045 66.8582 38.0218 67.2679 37.8793 65.2057C37.8666 65.0229 37.8793 64.8385 37.8793 64.6549C37.8046 60.8777 38.1718 61.1225 34.4192 61.1516C31.2816 61.1426 30.2822 62.4689 31.3234 65.7551ZM41.3737 66.6604C44.5673 66.6708 44.7322 66.5223 44.7397 63.622C44.7457 61.1165 44.524 60.874 42.2297 60.8769C39.007 60.8769 39.007 60.8769 38.9943 63.6922C38.9816 66.5932 39.0286 66.6522 41.3737 66.6604Z" fill="#FCFDFC"/>
<path d="M49.6216 68.2472C43.0149 68.2054 36.4112 68.1725 29.8031 68.1098C29.0299 68.1024 28.2089 68.3337 27.4894 67.8344C25.9034 67.871 24.7048 67.8113 23.4875 66.1298C22.2128 64.3699 19.7364 63.6616 17.2996 64.137C16.7159 64.2512 16.2718 64.6013 16.1293 65.1819C15.9606 65.8745 16.5069 66.1171 16.9913 66.4149C20.8134 68.7636 24.9996 70.0205 29.3948 70.775C32.7138 71.3445 36.0172 71.9856 39.381 72.2259C40.1579 72.2812 40.34 72.8402 40.552 73.4455C41.32 75.6405 41.6611 77.9728 42.6888 80.0835C43.403 79.9618 44.115 79.8103 44.8338 79.7237C47.4579 79.408 49.9388 78.0743 52.6824 78.6177L53.2727 78.5841L53.3802 77.9706C53.0548 77.8213 52.501 77.7332 52.439 77.5101C51.5718 74.3978 50.0873 71.4736 49.6216 68.2472Z" fill="#F4B28F"/>
<path d="M28.7724 118.103C28.085 119.232 28.3545 120.491 28.241 121.704C28.1895 122.255 28.9874 123.332 27.5395 123.272C26.3722 123.224 24.9377 123.685 24.578 121.903C24.5033 121.547 24.5376 121.166 24.5459 120.797C24.666 115.322 24.6586 109.841 24.6571 104.371C24.6571 99.0862 24.7884 93.7834 24.5026 88.5022C24.2705 84.1958 26.7095 82.1971 30.5084 82.6195C30.3644 81.8635 30.9152 80.7447 29.4859 80.6581C28.2918 80.6611 27.0976 80.6631 25.9035 80.6641C25.5646 80.779 25.072 80.7887 24.9093 81.0246C22.8942 83.9525 20.2409 86.6573 21.2261 90.7271C21.8366 91.5906 22.271 92.4668 22.2643 93.605C22.2217 103.218 22.2352 112.832 22.2285 122.445C22.2285 123.489 22.2479 124.546 21.7732 125.526L29.1262 125.477C28.6329 123.034 28.9575 120.555 28.7724 118.103Z" fill="#1795A6"/>
<path d="M21.7747 125.523C22.2493 124.543 22.2292 123.489 22.2299 122.442C22.2367 112.829 22.2232 103.215 22.2658 93.602C22.2702 92.4638 21.8381 91.5869 21.2276 90.7241C19.8013 90.8092 19.1737 90.2487 19.1505 88.709C19.1326 87.5335 19.5237 86.3013 18.9445 85.1519L18.4967 85.2011L14.2261 85.2071L13.844 85.072C13.4619 85.4004 13.735 85.6989 13.8843 86.002C14.4734 85.9577 15.0623 85.9146 15.6509 85.8729C18.234 85.078 18.5788 85.3131 18.5811 87.8701C18.5811 87.9932 18.5811 88.1171 18.5811 88.2432C18.6124 89.512 18.1094 91.0047 20.0917 91.3869C20.4872 91.4615 20.4126 91.9795 20.0484 92.2638C21.4575 93.9356 20.7201 95.8948 20.7052 97.7316C20.6977 98.4712 19.8521 98.4712 19.2289 98.4652C17.6974 98.451 16.1689 98.4294 14.6351 98.4107C14.6147 99.0665 14.5946 99.7221 14.5747 100.377C16.201 99.9206 17.8347 100.553 19.464 100.34C20.5126 100.204 20.8395 100.708 20.8238 101.726C20.779 104.604 20.7761 107.484 20.8432 110.361C20.8701 111.52 20.4051 111.854 19.3237 111.809C17.8571 111.746 16.3846 111.795 14.915 111.796C14.909 112.412 14.9028 113.027 14.8963 113.642C16.5468 113.653 18.1972 113.662 19.8476 113.671C20.4156 113.671 20.7843 113.87 20.791 114.513C20.797 115.085 20.6104 115.473 19.9745 115.475C18.5079 115.48 17.0398 115.504 15.571 115.463C14.6627 115.437 14.5582 114.737 14.5373 114.023C13.5716 114.191 13.7992 114.78 14.1075 115.338C14.4657 115.984 14.5844 116.67 14.5888 117.39C16.242 117.379 17.8974 117.399 19.5498 117.344C20.5111 117.313 20.8604 117.708 20.8305 118.646C20.7828 120.176 20.8082 121.706 20.8022 123.239C21.6448 124.736 21.0679 125.19 19.5147 125.143C17.3705 125.078 15.2225 125.134 13.0753 125.139L10.8608 125.106L10.1473 124.769C10.1623 125.051 10.1779 125.333 10.1944 125.616C14.0619 125.94 17.9205 126.018 21.7747 125.523Z" fill="#EEC557"/>
<path d="M44.0598 113.302C44.0509 109.81 43.9061 106.312 44.0882 102.831C44.1882 100.923 43.3113 100.038 41.8193 99.3227C41.0319 98.9496 39.9534 98.9585 39.6586 97.8517L35.2649 97.9606C35.2768 100.19 35.2885 102.42 35.3 104.651C38.9474 104.674 40.802 105.79 41.6439 108.465C42.5395 111.309 41.3387 113.567 37.8935 115.517C38.8294 116.539 42.4321 116.723 43.7844 115.815C43.8134 115.771 43.8517 115.734 43.8965 115.706C43.9414 115.678 43.9918 115.661 44.0442 115.654L44.0598 113.302Z" fill="#3ABFC3"/>
<path d="M32.6586 45.7194C34.249 45.6821 35.8388 45.6164 37.4292 45.6127C43.5746 45.6008 43.5746 45.6082 42.9037 51.9425C42.829 52.0656 42.7544 52.188 42.685 52.3112C42.1357 52.6172 41.5774 52.5806 41.0147 52.3552H40.6057C40.3822 52.458 40.1396 52.5124 39.8937 52.5148C39.6477 52.5173 39.4041 52.4677 39.1787 52.3694H39.104C37.0821 52.6628 35.0283 52.6603 33.0071 52.3619C32.3033 50.1751 32.8228 47.9294 32.6586 45.7194ZM40.4146 49.5444C40.9132 48.5175 40.9676 47.495 40.4146 46.4777C39.9519 47.5204 40.0175 48.5384 40.4146 49.5444Z" fill="#3ABFC3"/>
<path d="M14.3096 72.8857L13.3036 72.9051C10.8944 73.2469 8.43217 72.5483 6.04087 73.2723C5.74234 75.3665 6.32971 77.5093 5.6886 79.5834L13.3566 79.5506V73.5902C14.1372 75.5636 13.5969 77.6004 14.2305 79.5356L15.8322 79.6103C16.0091 77.3802 16.4427 75.1374 15.5337 72.9566L14.3096 72.8857Z" fill="#E44635"/>
<path d="M57.4455 107.106L49.3066 107.094C47.7393 107.577 48.2416 108.846 48.2319 109.921H55.0005L55.0102 110.535C54.0049 110.89 52.9204 110.594 51.8845 110.735C51.9935 111.588 51.4665 111.998 50.765 112.144C50.0634 112.291 49.3126 112.294 48.5849 112.36L54.8579 112.559L57.097 112.573L58.1284 112.461C58.1889 111.859 58.3993 111.192 58.003 110.687C57.4209 109.95 57.6127 109.457 58.1665 108.81C58.671 108.218 59.1815 107.415 57.8247 107.097C57.7015 107.281 57.5754 107.281 57.4455 107.106Z" fill="#FCFDFC"/>
<path d="M35.2641 97.9644L39.6586 97.8547C39.6773 97.2479 39.7459 96.6367 39.7034 96.0329C39.6138 94.7588 39.8071 93.8349 41.4461 94.158C41.8424 94.2327 42.4432 94.2148 42.5029 93.6975C42.5843 92.9952 41.9059 93.0169 41.4581 93.0087C39.1444 92.9624 36.8247 92.9609 34.5081 92.9437L32.6235 92.9579L30.9779 93.1072C30.6353 93.8617 31.0338 94.1789 31.6958 94.0812C33.4483 93.8222 33.5139 94.8409 33.39 96.1202C33.3385 96.6523 33.4341 97.1994 33.4647 97.739L35.2641 97.9644Z" fill="#2A3A70"/>
<path d="M48.5812 112.36C49.3089 112.294 50.0508 112.293 50.7613 112.144C51.4718 111.996 51.9928 111.587 51.8808 110.735C49.5671 110.421 47.7304 111.367 46.128 112.92C45.5175 113.512 44.7644 113.266 44.0569 113.302L44.0412 115.663C43.9865 115.862 43.9317 116.063 43.877 116.266C43.8461 116.714 43.8158 117.162 43.7859 117.61C43.8031 119.625 43.5934 121.648 43.9158 123.655H46.7654C46.8012 122.039 46.4855 120.403 47.0445 118.818C46.5556 117.451 46.9228 116.032 46.784 114.647C46.6452 113.261 47.1072 112.438 48.5812 112.36Z" fill="#F3D8CB"/>
<path d="M33.0042 52.3582C32.3034 50.1751 32.8229 47.9294 32.6587 45.7157C27.2387 45.5515 28.0865 45.2947 28.0365 49.9982C28.0276 50.8379 27.8365 51.7186 28.3433 52.503L33.0042 52.3582Z" fill="#1795A6"/>
<path d="M25.905 80.6611C27.0991 80.6611 28.2933 80.6591 29.4874 80.6552C29.1546 79.3864 29.4165 78.0885 29.3143 76.8107C29.2531 76.042 29.5845 75.6912 30.3002 75.5576C30.6182 75.4979 30.8443 75.2509 30.7622 74.8859C30.7475 74.8098 30.7176 74.7376 30.6741 74.6734C30.6307 74.6093 30.5747 74.5546 30.5095 74.5128C30.4444 74.4709 30.3714 74.4427 30.295 74.4298C30.2186 74.417 30.1404 74.4198 30.0651 74.4381C27.0327 75.1098 23.8212 75.0994 21.0507 76.7652C20.6455 77.0093 20.1223 77.316 20.4372 77.9123C20.7418 78.4893 21.2702 78.3146 21.7142 78.0668C22.9405 77.3847 24.422 76.133 25.5311 76.8413C26.4685 77.4406 25.7162 79.3468 25.905 80.6611Z" fill="#2A3A70"/>
<path d="M29.6829 66.6313C30.3546 65.1035 30.0814 63.4884 30.0068 61.9226C29.9404 60.5322 28.5999 61.1248 27.8305 60.8232C27.3461 60.8479 26.8602 60.8912 26.3773 60.8979C25.1727 60.9053 24.7309 61.4323 24.7428 62.6891C24.7846 67.0343 24.0151 66.9388 28.9552 66.6776C29.1978 66.6649 29.4403 66.647 29.6829 66.6313Z" fill="#1795A6"/>
<path d="M13.3566 79.5505L5.68787 79.5841L2.1375 79.567C2.09496 79.7073 2.05316 79.8476 2.01062 79.9879L2.13377 81.8224L15.8404 81.815C15.6408 81.0943 15.6393 80.3332 15.8359 79.6117C15.3021 79.5859 14.7679 79.561 14.2335 79.5371C13.938 79.5416 13.6469 79.5461 13.3566 79.5505Z" fill="#67AD72"/>
<path d="M48.2312 109.921C48.2409 108.846 47.7409 107.577 49.3059 107.094C47.561 104.59 46.8706 101.654 45.9645 98.8175C44.3465 93.7483 42.8254 88.6478 41.2484 83.5652C41.1439 83.2293 40.9133 82.9323 40.7409 82.618C40.0229 83.7846 41.0304 84.7511 41.2961 85.693C42.968 91.6347 44.7502 97.5509 46.8937 103.348C47.2102 104.205 47.2139 105.139 47.6573 105.982C48.1118 106.85 47.4557 107.027 46.7505 107.047L46.7796 109.907L48.2312 109.921Z" fill="#F3D8CB"/>
<path d="M53.3772 77.9706L53.2698 78.5841L53.781 79.5774C54.0139 79.7103 54.2472 79.8426 54.4811 79.9745C55.4752 77.3451 55.3551 74.5478 55.4655 71.8356C55.7133 65.7842 58.6218 61.8435 64.1739 59.697C64.8456 59.4373 65.6046 59.3306 66.0398 58.6476C60.6907 59.9082 56.2014 62.8421 55.2319 69.0159C54.8065 71.7296 54.4065 74.4396 54.5087 77.1959C54.5416 78.0907 54.4102 78.6691 53.3772 77.9706Z" fill="#F3D8CB"/>
<path d="M52.6794 78.6213C49.9359 78.078 47.455 79.4117 44.8308 79.7274C44.1121 79.814 43.4001 79.9655 42.6858 80.0872C42.1149 80.2558 41.5372 80.4044 40.9752 80.5977C40.5102 80.7581 40.2035 81.0119 40.7088 81.4851C44.3594 80.6467 48.0095 79.807 51.6592 78.9661C52.007 78.8818 52.3398 78.734 52.6794 78.6213Z" fill="#191A36"/>
<path d="M22.3463 59.3499C21.6433 59.5037 20.7865 59.5738 20.5887 60.5508C20.4723 61.1232 22.6695 63.3541 23.3039 63.2869C24.6294 63.1458 23.9607 62.0763 24.0585 61.4143C24.2353 60.2134 23.8136 59.3693 22.3463 59.3499Z" fill="#F4B28F"/>
<path d="M45.6533 58.9753C45.6353 60.0701 45.601 61.1643 45.6033 62.2592C45.6033 63.5078 46.3384 63.6026 47.1497 63.0346C48.1341 62.3487 48.7834 61.3927 48.5394 60.0776C47.487 59.9455 46.8437 58.7446 45.6533 58.9753Z" fill="#F4B28F"/>
<path d="M18.4989 85.2049L18.9467 85.1556C19.4154 83.2853 18.2579 83.1405 16.8898 83.2151C16.4114 83.2524 15.9195 83.3778 15.4561 83.3129C14.0059 83.1076 13.6253 83.8025 13.8477 85.0802L14.2306 85.2138C15.6464 83.8667 17.0749 84.9138 18.4989 85.2049Z" fill="#67AD72"/>
<path d="M6.04095 73.2723C8.42926 72.5483 10.8922 73.2469 13.3036 72.9051C10.8676 72.2334 8.38672 72.7857 5.93124 72.6274C4.90352 72.561 3.86684 72.62 2.83464 72.6185C2.27712 72.6185 1.70468 72.5827 1.58228 73.3365C1.6293 73.3783 1.67482 73.4208 1.71886 73.4649L6.04095 73.2723Z" fill="#F3D8CB"/>
<path d="M46.7796 109.907L46.7505 107.047C44.6764 107.183 45.7698 108.756 45.6869 109.66C45.616 110.427 46.2594 110.446 46.7796 109.907Z" fill="#ACB5D0"/>
<path d="M1.58231 73.3364C1.04793 75.3172 1.02106 77.2973 1.58231 79.2781L1.70695 79.1647L1.72039 73.4648C1.67486 73.4208 1.62933 73.3782 1.58231 73.3364Z" fill="#F3D8CB"/>
<path d="M14.3097 72.8856L15.533 72.9603C15.1531 72.4438 14.7411 72.4916 14.3097 72.8856Z" fill="#F3D8CB"/>
<path d="M42.9037 51.9424C42.8291 52.0656 42.7545 52.188 42.6851 52.3111L43.0269 52.2626C42.9747 52.1605 42.9334 52.0532 42.9037 51.9424Z" fill="#1795A6"/>
<path d="M2.00697 79.9879C2.04927 79.8476 2.09131 79.707 2.13311 79.5662L1.70545 79.1647L1.58081 79.2781C1.60917 79.5826 1.70246 79.8483 2.00697 79.9879Z" fill="#F3D8CB"/>
<path d="M127.294 92.6624L127.681 92.4989C127.159 85.5728 126.711 78.6505 125.517 71.7796C124.505 65.9387 121.433 61.9278 116.193 59.4014C115.983 59.2999 115.833 59.0745 115.655 58.9066C114.695 58.8588 113.91 58.4401 113.244 57.7729C112.289 57.9125 111.405 57.7998 110.693 57.0646L110.718 57.0795L104.163 55.2831C103.386 56.7758 102.797 58.3319 101.764 59.7403C99.1402 63.3183 95.6443 65.711 91.8559 67.8008C91.7066 68.0941 91.4476 68.1814 91.1394 68.1695L91.117 68.1874C91.1222 71.4258 91.1394 74.6642 91.1245 77.9026C91.12 78.7699 91.1819 79.4356 92.3044 78.8609C92.9329 78.2303 93.4643 78.1146 94.3069 78.7251C98.2551 81.6037 102.273 84.3869 106.266 87.2036C106.331 86.9707 106.328 86.6737 106.475 86.514C108.266 84.5466 109.667 82.3635 110.645 79.8588C111.541 77.5727 112.695 75.3889 113.757 73.17C114.193 72.261 114.747 71.437 115.834 70.7735C115.589 72.8834 115.237 74.7485 115.181 76.6219C115.025 82.0277 115.171 87.4297 116.043 92.7818C116.132 93.3318 116.029 93.7319 115.794 94.1663C116.067 94.7589 117.005 94.7768 117.063 95.5992C116.424 95.8231 116.149 95.2873 115.794 95.032C108.847 90.0827 101.906 85.125 94.9711 80.1588C94.2591 79.6506 93.5785 78.8154 92.5731 79.67C91.3752 81.7224 89.2019 82.9808 88.1234 85.131C91.532 88.1111 94.9226 91.1122 98.3543 94.0648C101.323 96.6188 104.444 99.0063 107.293 101.685C108.86 103.16 111.083 104.052 111.845 106.326C114.525 105.654 117.241 105.548 119.98 105.785L120.321 105.794L122.152 105.629L122.32 96.5314C122.277 95.8264 122.235 95.1213 122.192 94.4163L121.428 94.167C120.943 94.2148 120.458 94.3163 119.975 94.2969C119.367 94.27 118.53 94.576 118.512 93.4505C118.493 92.325 119.305 92.5765 119.93 92.5795C122.383 92.5937 124.837 92.6333 127.294 92.6624Z" fill="#FBC12F"/>
<path d="M137.54 74.9985C139.534 75.3157 141.616 75.0732 143.66 75.0732C141.362 74.756 139.06 74.5858 136.756 74.4761C135.945 74.4373 135.338 74.335 135.181 73.3566C134.234 67.5515 134.094 61.7569 135.226 55.957C135.45 54.8218 135.859 54.4292 137.049 54.9345C140.483 56.3929 143.475 58.5274 146.353 60.8463C146.779 61.1911 147.206 61.5927 146.95 62.2554L146.967 62.2338C145.676 64.0302 144.743 65.9827 144.365 68.1784L144.38 68.1538C143.94 68.2516 143.944 68.5732 143.995 68.9188L144.011 68.8949C142.085 69.6808 140.151 68.824 138.22 68.9195C137.315 68.9643 136.406 68.927 135.496 69.0084C138.173 69.6204 140.95 69.395 143.61 70.0764C143.731 70.619 143.902 71.1347 144.37 71.4944V71.4989L144.736 71.8661C144.746 72.2721 144.661 72.7095 145.103 72.9715L145.108 72.9789C145.108 73.2775 145.159 73.5588 145.47 73.7059L145.481 73.723C145.475 74.0216 145.514 74.3052 145.838 74.4433C146.021 75.115 145.31 75.115 145.037 75.459C145.912 75.6299 146.679 75.677 146.597 74.4433L146.579 74.4619L147.056 74.4186C147.542 75.0903 147.249 75.8531 147.288 76.5763L136.304 76.7323L135.837 76.5995C135.8 75.4225 135.89 74.7358 137.54 74.9985ZM141.228 65.0117L141.354 65.2527L141.727 65.9879C141.794 66.4544 141.733 66.9813 142.333 67.2186C142.74 66.5596 142.239 66.2417 141.848 65.8849L141.46 65.149L141.228 65.0117ZM142.404 58.9805C141.956 59.8873 141.417 60.7627 141.083 61.7091C140.671 62.8786 140.068 63.3831 138.763 63.1122C137.671 62.8883 136.524 62.9137 135.404 62.8294C141.704 64.325 140.673 64.3952 142.404 58.9805Z" fill="#67AD72"/>
<path d="M147.06 74.4164C147.547 75.0881 147.253 75.8517 147.293 76.5756L147.729 76.6502L158.296 76.5256C158.046 75.321 158.553 74.1716 158.558 72.9849C158.58 72.1177 158.047 71.5624 157.502 70.978C156.896 70.3287 156.048 69.8585 155.831 68.8972L155.851 68.9173C155.38 68.877 155.153 68.5949 155.084 68.1531L155.11 68.1785C154.854 68.171 154.724 68.0374 154.715 67.7822L154.741 67.8083C154.486 67.7986 154.346 67.6762 154.345 67.4135L154.369 67.4388C153.943 67.356 153.697 67.0933 153.604 66.6738L153.629 66.7C153.203 66.6164 152.982 66.3268 152.864 65.9357L152.889 65.9596C152.657 65.929 152.516 65.8066 152.495 65.5655L152.517 65.5901C151.615 64.9931 150.909 64.2057 150.273 63.3459L150.301 63.372L149.904 62.9749L149.931 63.0025C149.799 62.8697 149.666 62.7376 149.534 62.6055L149.561 62.6316L149.165 62.2346L149.192 62.2562C148.645 62.2562 148.772 62.869 148.45 63.072C148.105 66.1656 147.588 69.2442 147.604 72.3707L147.326 72.6215L147.349 72.5968C147.563 73.2514 147.086 73.7985 147.06 74.4164Z" fill="#1795A6"/>
<path d="M147.604 72.3685C147.588 69.242 148.105 66.1633 148.45 63.0697C148.053 62.6092 147.771 61.936 146.95 62.2487L146.968 62.2271C146.615 64.4408 145.436 66.282 144.366 68.1725L144.381 68.1479C144.364 68.4591 144.319 68.7561 143.996 68.9129L144.012 68.889L143.963 69.9928C144.534 70.3712 144.347 70.9571 144.37 71.4855V71.49L144.737 71.8572C145.168 72.1229 145.104 72.5536 145.104 72.9625L145.108 72.97C145.432 73.1118 145.486 73.3872 145.471 73.697L145.482 73.7141C145.808 73.8514 145.855 74.1291 145.839 74.4343H146.597L146.579 74.453C146.453 73.6746 146.62 73.0163 147.345 72.5871L147.322 72.6118L147.604 72.3685Z" fill="#67AD72"/>
<path d="M130.32 92.1839C130.855 91.7757 130.679 91.1838 130.682 90.6599C130.698 87.6128 130.698 84.5657 130.682 81.5186C130.682 80.9887 130.831 80.4036 130.308 79.9961C130.082 84.0585 130.17 88.1216 130.32 92.1839Z" fill="#191A36"/>
<path d="M104.665 31.909C102.525 31.0813 101.97 32.5151 101.456 34.0272C100.747 36.0946 98.8186 37.3395 97.9439 39.2912C96.2385 40.2457 94.5525 41.2361 92.8239 42.1459C89.7893 43.7446 86.5024 43.8894 83.1707 43.7065C82.247 43.0939 81.1955 42.7006 80.0965 42.5564C76.92 40.083 74.9668 36.8521 74.0869 32.939C73.1569 28.7983 73.2308 24.6314 73.6189 20.4384C73.7219 19.3256 74.3399 19.0376 75.234 18.7823C81.1473 17.0903 86.7128 14.6729 91.4999 10.7218C92.4813 9.91123 92.8747 10.2396 93.4001 11.2084C94.6338 13.4817 95.9019 15.7738 97.7543 17.6046C100.046 19.8697 102.404 22.0379 102.376 25.6778C103.303 25.3158 103.506 24.6105 103.927 24.1202C104.845 23.0469 106.059 22.7648 107.272 23.1178C108.308 23.4164 108.873 24.4613 109.041 25.5061C109.466 28.14 108.437 30.1872 106.27 31.6926C105.73 31.7747 105.105 32.0792 104.665 31.909ZM93.2725 27.4451C94.7174 27.434 94.5577 26.0368 95.1383 25.2807C94.7793 23.5537 93.5068 23.5261 92.1977 23.8119C91.0364 24.0664 90.1826 24.8904 90.4065 26.1077C90.6304 27.325 91.3768 28.2915 92.918 27.8385L93.3105 27.4354L93.2725 27.4451ZM77.3007 27.7877C78.756 27.928 79.5688 27.166 79.5643 25.8084C79.5591 24.4321 78.606 23.788 77.2596 23.7373C76.9611 23.7261 76.6521 23.6865 76.3528 23.7149C75.9169 23.7552 75.4034 23.126 75.043 23.9896C74.728 24.7441 75.2796 24.9553 75.6094 25.3427C75.5505 26.5861 75.1863 28.043 77.2947 27.7877H77.3007ZM87.4346 33.4764C85.3253 33.3026 83.2058 33.2934 81.0951 33.4488C79.9912 33.5234 80.9518 34.0376 81.1018 34.3518C81.5377 35.7945 82.4131 36.8469 83.9573 37.0193C85.3134 37.1686 86.4367 36.5528 87.251 35.452C87.4935 35.1243 87.7779 34.7437 87.3734 34.3197C87.4972 34.0294 88.5772 33.5771 87.4316 33.4764H87.4346ZM94.0718 19.3764C92.803 19.1062 91.5171 19.2144 90.2714 19.6175C89.7012 19.8018 88.928 19.9451 89.1586 20.7459C89.3527 21.4177 90.0923 21.2773 90.5894 21.1019C92.3336 20.4847 94.0576 20.6094 95.9832 21.2229C95.9198 19.7346 94.9152 19.557 94.0688 19.3764H94.0718ZM75.4072 21.1146C76.9267 20.6265 78.4329 20.6989 79.9524 21.1146C80.1027 21.1592 80.2642 21.1468 80.406 21.0799C80.5478 21.013 80.66 20.8962 80.7212 20.7519C80.8704 20.4228 80.7212 20.1802 80.4853 19.9444C79.5449 18.9943 75.9998 19.0704 75.0862 20.0824C74.9325 20.2526 74.8541 20.4899 74.7974 20.5922C74.778 21.1945 75.1139 21.2079 75.4042 21.1146H75.4072ZM105.342 27.4168C104.745 26.5047 104.638 25.8308 105.671 25.3561C106.763 24.8546 107 25.8121 107.349 26.5159C107.423 26.6652 107.549 26.7891 107.676 26.9578C107.929 25.5464 107.334 24.5628 106.184 24.5493C104.876 24.5344 104.276 25.4852 103.795 26.5145C103.685 26.7503 103.833 26.9809 104.089 27.1033C105.239 27.6526 104.825 28.59 104.454 29.9842C105.722 29.0289 105.798 28.1213 105.339 27.4168H105.342ZM82.0959 29.4827C81.5548 30.2887 81.8198 30.5835 83.1005 31.3082C82.0444 28.9386 84.9194 27.3578 84.1767 24.5963C83.3677 26.5018 83.0184 28.1034 82.093 29.4827H82.0959ZM93.3934 31.2739C94.1285 31.3299 94.3875 30.747 94.4308 30.1014C94.4607 29.6536 94.3129 29.1364 93.8427 29.1311C93.1366 29.1244 93.0463 29.8976 92.6918 30.3074C92.6985 30.8313 93.0023 31.2448 93.3904 31.2739H93.3934Z" fill="#F4B28F"/>
<path d="M106.266 31.6881C105.728 31.7747 105.105 32.0792 104.665 31.912C102.525 31.0843 101.97 32.518 101.456 34.0301C100.747 36.0975 98.8186 37.3424 97.9438 39.2941C98.1812 40.4069 98.1327 41.5242 97.9983 42.6437C98.0371 44.5268 98.1886 46.4158 98.0879 48.2921C97.9297 51.2215 98.4909 53.5911 101.832 54.2778C102.679 54.4509 103.642 54.3569 104.164 55.2853L110.724 57.0825C109.094 56.4213 108.925 55.4816 109.47 53.7538C110.282 51.1842 108.968 49.1153 106.868 47.5592C102.423 44.2573 101.718 41.7377 102.633 36.4386C103.061 33.9398 104.247 32.6524 106.266 31.6881Z" fill="#191A36"/>
<path d="M83.1669 43.7065C82.2432 43.0939 81.1917 42.7005 80.0927 42.5564C78.7873 44.1536 77.3693 45.6478 75.7198 46.9016C73.0964 48.8899 73.6226 51.7156 73.7853 54.4106C73.8174 54.9525 73.9973 55.463 73.7226 55.9779C74.8466 56.0593 75.7691 55.2846 76.8625 55.2316L78.8918 54.6397C79.5717 54.3912 80.2352 54.0531 80.9353 53.9121C82.5302 53.5911 83.3982 52.7052 83.4415 51.0595C83.35 48.61 83.2584 46.159 83.1669 43.7065Z" fill="#191A36"/>
<path d="M101.457 5.96819C101.587 6.07343 101.755 6.31525 101.953 6.35331C104.394 6.80858 105.65 8.58414 106.754 10.562C106.934 10.8851 107.033 11.5434 107.613 11.3023C108.306 11.0135 107.912 10.4358 107.704 10.0492C106.547 7.87212 105.043 6.06149 102.48 5.4965C101.876 5.35917 101.441 5.54203 101.457 5.96819Z" fill="#C6E2F6"/>
<path d="M90.0005 4.91434C91.5477 4.70461 92.9694 3.92916 94.5375 3.81422C92.8269 3.28581 91.2805 3.50747 89.9945 4.90762L90.0005 4.91434Z" fill="#191A36"/>
<path d="M93.4904 8.7118C94.9771 8.30728 95.5055 7.07655 96.0981 5.90778C94.6845 6.37499 94.3188 7.74006 93.4904 8.7118Z" fill="#191A36"/>
<path d="M64.3828 27.4668L63.7357 27.107L63.7409 27.1025C63.7409 27.8929 63.8297 28.6945 63.726 29.4714C63.582 30.5529 64.0245 31.05 65.0493 31.15L64.8358 30.7955C64.7612 30.6104 64.6865 30.4223 64.6059 30.2387C64.5303 29.3147 64.4559 28.3907 64.3828 27.4668Z" fill="#FCFDFC"/>
<path d="M78.5791 12.1278C77.4596 12.2562 76.3722 12.4555 75.5079 13.2391C76.623 13.1227 77.7641 13.0846 78.5791 12.1278Z" fill="#191A36"/>
<path d="M110.695 57.0646C111.407 57.7998 112.292 57.9125 113.246 57.7729C112.492 57.1878 111.63 56.9945 110.695 57.0646Z" fill="#191A36"/>
<path d="M81.4891 10.827C80.6816 10.7971 80.0114 11.0509 79.3038 11.8957C80.4017 11.8547 81.054 11.5629 81.4936 10.8314L81.4891 10.827Z" fill="#191A36"/>
<path d="M96.8601 4.30762C96.7578 4.41584 96.5496 4.55167 96.4712 4.7405C96.3645 4.99649 96.5175 5.22786 96.8011 5.1286C96.9862 5.06441 97.1512 4.83454 97.2415 4.64049C97.3318 4.44644 97.1765 4.32702 96.8601 4.30762Z" fill="#191A36"/>
<path d="M88.5302 5.28308C88.2951 5.49504 88.0823 5.61297 87.9823 5.79507C87.8584 6.02794 87.9301 6.30259 88.2637 6.219C88.4578 6.17049 88.6369 5.95927 88.7585 5.77791C88.8003 5.71522 88.6458 5.52117 88.5302 5.28308Z" fill="#191A36"/>
<path d="M86.3015 7.50343C86.7359 7.45641 87.1374 7.34521 87.2553 6.85486C87.3068 6.63991 87.1605 6.50258 86.9501 6.55259C86.462 6.66752 86.3276 7.05264 86.2963 7.49671L86.3015 7.50343Z" fill="#191A36"/>
<path d="M84.4498 8.98048C85.129 8.92152 85.5253 8.5782 85.5634 7.87365L85.5582 7.86768C84.8738 7.9244 84.4745 8.26622 84.4498 8.97973V8.98048Z" fill="#191A36"/>
<path d="M81.8615 10.4613C82.1943 10.4142 82.6078 10.571 82.7869 10.1358C82.8123 10.0769 82.7123 9.89104 82.6504 9.88209C82.21 9.81566 82.0346 10.1426 81.86 10.459L81.8615 10.4613Z" fill="#191A36"/>
<path d="M84.4498 8.97974C84.1132 9.01332 83.7087 8.86555 83.5221 9.29917C83.4967 9.35888 83.5967 9.54621 83.6579 9.55666C84.1058 9.6313 84.27 9.29022 84.4498 8.98048V8.97974Z" fill="#191A36"/>
<path d="M72.5486 56.3966C72.9897 56.3697 73.4442 56.3809 73.7427 55.9637C73.2815 55.9324 72.8113 55.8771 72.5486 56.3966Z" fill="#191A36"/>
<path d="M85.5635 7.87368C85.8695 7.86995 86.1449 7.80501 86.3016 7.5005L86.2964 7.49379C85.9859 7.49006 85.7142 7.56245 85.5582 7.86696L85.5635 7.87368Z" fill="#191A36"/>
<path d="M89.9945 4.90771L89.5063 5.04654L89.5996 5.18834L90.0004 4.91443L89.9945 4.90771Z" fill="#191A36"/>
<path d="M81.4936 10.8314C81.616 10.7075 81.7392 10.5844 81.8616 10.4583L81.4884 10.8262L81.4936 10.8314Z" fill="#191A36"/>
<path d="M64.6067 30.2387C64.6813 30.4245 64.756 30.6119 64.8366 30.7955L64.6067 30.2387Z" fill="#C6E2F6"/>
<path d="M66.8958 58.6193L66.8854 58.7267L66.8458 58.6193H66.8958Z" fill="#F3D8CB"/>
<path d="M89.2519 100.34C87.5002 98.7234 85.8082 97.0345 83.973 95.5201C83.0169 94.7312 82.7042 93.9961 83.5058 93.0661C84.4014 92.0369 83.9983 91.1406 83.4363 90.2099C79.9733 84.4749 74.8668 80.7313 68.796 78.1691C68.0071 77.8362 67.4093 77.7369 67.4242 78.9744C67.4742 83.1233 67.9004 87.1304 70.6395 90.5427C72.1284 92.3989 73.998 93.5789 76.2931 94.0304C77.5454 94.2767 77.935 94.9029 77.7626 96.0836C76.9222 101.955 76.1147 107.829 74.4884 113.556C73.6988 116.339 72.5733 118.99 71.547 121.683C71.35 122.2 71.0754 122.686 71.1179 123.265C75.9826 123.272 80.848 123.265 85.7127 123.3C86.3262 123.304 87.1308 122.972 87.4293 123.92L88.1488 123.938C89.0004 121.774 88.6861 119.443 88.7764 117.239C89.0048 111.61 89.5288 105.98 89.2519 100.34Z" fill="#FBC12F"/>
<path d="M92.6148 123.887L94.0456 123.9C94.359 122.968 95.1569 123.303 95.7681 123.298C99.8805 123.271 103.993 123.283 108.105 123.282C108.202 121.745 107.526 120.266 107.749 118.72C107.916 117.57 107.419 116.753 106.588 115.99C102.976 112.678 99.4976 109.212 95.7659 106.04C94.2426 104.744 93.0708 103.007 91.1781 102.148C91.1871 109.394 90.4616 116.628 90.7766 123.877L91.8215 123.886C92.0864 123.19 92.3506 123.197 92.6148 123.887Z" fill="#FBC12F"/>
<path d="M91.1804 102.148C93.0731 103.007 94.2449 104.744 95.7682 106.04C99.4999 109.212 102.976 112.678 106.59 115.99C107.422 116.753 107.918 117.57 107.752 118.72C107.528 120.266 108.204 121.745 108.108 123.282C108.13 123.481 108.152 123.679 108.174 123.879H110.685C110.72 123.539 110.756 123.197 110.791 122.855C110.751 122.755 110.701 122.659 110.641 122.568C110.542 122.439 110.442 122.308 110.343 122.177C109.037 120.114 109.074 117.849 109.348 115.549C109.299 114.2 109.242 112.851 109.208 111.502C109.191 110.811 109.113 110.2 108.525 109.689C103.102 104.967 97.6908 100.234 92.2917 95.4873C91.4453 95.1201 91.0617 95.3544 91.0901 96.318C91.1461 98.2592 91.1528 100.204 91.1804 102.148Z" fill="#F19D15"/>
<path d="M109.347 115.548C109.075 117.847 109.035 120.112 110.341 122.175C110.44 122.306 110.54 122.436 110.639 122.566C110.699 122.656 110.749 122.753 110.788 122.854C111.218 123.144 111.729 123.354 111.849 123.946C116.029 125.947 120.465 124.89 124.8 125.028C124.793 121.894 124.786 118.757 124.779 115.619L109.347 115.548Z" fill="#F3D8CB"/>
<path d="M124.779 115.619C124.786 118.754 124.793 121.89 124.8 125.028C127.366 125.049 129.93 125.091 132.495 125.085C134.189 125.085 135.678 124.361 137.149 123.618C139.538 121.349 139.285 118.436 139.114 115.544L124.779 115.619Z" fill="#FCFDFC"/>
<path d="M139.113 115.544C139.285 118.436 139.54 121.349 137.149 123.618C138.136 124.986 139.503 125.488 141.151 125.469C144.228 125.434 147.309 125.378 150.383 125.474C152.202 125.531 153.78 125.125 155.153 123.937C155.233 123.351 155.312 122.764 155.392 122.178C154.795 122.607 154.113 122.53 153.443 122.531C150.993 122.531 148.54 122.457 146.093 122.545C141.738 122.702 140.003 119.186 141.803 115.501C141.483 114.421 141.463 113.275 141.742 112.185C141.054 111.053 141.578 109.805 141.401 108.627C140.698 103.952 143.49 101.387 148.145 101.794C148.735 101.845 149.371 101.943 149.926 101.57L139.74 101.495C137.92 102.857 136.41 104.383 136.864 106.944C137.364 108.311 138.992 108.989 139.096 110.601C139.255 112.248 139.308 113.896 139.113 115.544Z" fill="#1795A6"/>
<path d="M43.9188 123.66C43.5964 121.651 43.8061 119.63 43.7889 117.615C43.0553 117.19 42.2462 117.363 41.4648 117.322C39.1631 117.202 36.8486 117.546 34.5559 117.122L32.9243 117.158H32.4183L28.9239 117.336C28.8742 117.591 28.8244 117.846 28.7747 118.101C28.9598 120.556 28.6343 123.035 29.1299 125.475C33.4177 125.497 37.7047 125.483 41.991 125.564C43.4016 125.59 43.7837 124.805 43.9188 123.66Z" fill="#E44635"/>
<path d="M62.0961 122.833C63.5313 119.718 65.0665 116.645 66.3726 113.478C67.6534 110.374 68.234 107.13 67.2167 103.231C65.8479 108.363 62.876 111.629 58.5711 113.721C58.3584 114.961 58.6935 116.258 58.1852 117.467C58.1852 117.946 58.1852 118.425 58.1852 118.903C58.3166 120.508 57.9337 122.142 58.4778 123.722L61.5318 123.657L62.0961 122.833Z" fill="#F3D8CB"/>
<path d="M58.4792 123.722C57.9351 122.142 58.318 120.508 58.1866 118.903C57.2701 119.127 56.9238 119.678 57.0044 120.635C57.0873 121.613 56.9985 122.604 57.0246 123.588C57.0447 124.322 56.8447 124.756 55.9984 124.736C55.1983 124.716 54.8915 124.313 54.905 123.582C54.9251 122.537 54.8393 121.471 55.0259 120.455C55.2498 119.224 54.7818 118.929 53.672 118.937C51.836 118.949 50 118.862 48.164 118.821L48.0453 118.843C48.517 121.047 47.8214 123.342 48.5677 125.525C51.4673 126.223 54.4072 125.786 57.3224 125.737C58.2807 125.72 58.5061 124.643 58.4792 123.722Z" fill="#98C878"/>
<path d="M89.2519 100.34C89.5288 105.984 89.0049 111.614 88.7765 117.241C88.6862 119.445 89.0004 121.776 88.1488 123.94H89.3228C89.3224 123.833 89.3609 123.73 89.431 123.649C89.0914 121.194 89.8385 118.78 89.6691 116.318C89.5019 113.884 89.5079 111.455 89.9266 109.004C90.1848 107.491 90.2841 105.842 89.6937 104.302L89.5751 100.033L89.2519 100.34Z" fill="#EEC557"/>
<path d="M91.1804 102.148C91.1528 100.208 91.1461 98.2592 91.0879 96.3158C91.0595 95.3522 91.4431 95.1216 92.2895 95.4858C92.1708 94.7454 91.5499 94.4305 91.0065 94.5618C90.446 94.6969 90.7475 95.4037 90.7274 95.856C90.6781 96.9561 90.6848 98.0592 90.6684 99.1608C90.7916 100.258 90.8356 101.354 90.5938 102.445C90.5878 102.757 90.5821 103.069 90.5766 103.381C90.5961 103.393 90.612 103.41 90.6228 103.43C90.6335 103.451 90.6387 103.473 90.6378 103.496C90.6369 103.519 90.6299 103.541 90.6176 103.56C90.6053 103.579 90.588 103.595 90.5677 103.605C90.4642 107.59 90.3607 111.575 90.2572 115.56C90.2288 118.341 90.2007 121.121 90.1729 123.901C90.3744 123.896 90.5766 123.89 90.7781 123.884C90.4639 116.626 91.1894 109.394 91.1804 102.148Z" fill="#EEC557"/>
<path d="M48.5663 125.525C47.8252 123.342 48.517 121.047 48.0438 118.843L47.0445 118.821C46.4855 120.406 46.8012 122.042 46.7654 123.658C46.5019 125.113 47.0758 125.761 48.5663 125.525Z" fill="#67AD72"/>
<path d="M90.1728 123.896C90.2007 121.116 90.2288 118.335 90.2572 115.554C89.7131 117.651 90.1624 119.791 89.9728 121.902C89.9183 122.507 90.34 123.297 89.431 123.648C89.3607 123.729 89.3222 123.832 89.3228 123.939L90.1728 123.896Z" fill="#2A3A70"/>
<path d="M9.70104 111.099C7.82696 110.89 7.17391 109.104 5.879 108.147C5.21624 107.656 4.78262 106.43 3.89297 106.788C2.98541 107.156 3.49666 108.331 3.48248 109.135C3.4265 112.324 3.52054 115.517 3.43621 118.705C3.38993 120.484 4.12583 121.158 5.8484 121.051C7.13212 120.972 8.42404 121.036 9.71298 121.036L9.93689 120.61C9.91689 120.599 9.90016 120.582 9.88829 120.562C9.87642 120.542 9.8698 120.52 9.86905 120.497C9.86831 120.474 9.87346 120.451 9.88402 120.43C9.89458 120.41 9.91021 120.392 9.92942 120.379L9.70104 111.099Z" fill="#67AD72"/>
<path d="M10.8698 125.107L13.0842 125.14C12.5237 123.888 12.311 122.58 12.314 121.207C12.3319 112.899 12.3476 104.59 12.3021 96.2792C12.2916 94.4723 12.4319 92.7295 13.123 91.0547C13.0984 90.9435 13.073 90.8308 13.0484 90.7211L12.3021 90.739C12.1632 91.0159 11.9184 91.0839 11.6356 91.0794L11.5744 91.1451C11.6042 91.8586 11.6027 92.5631 10.8534 92.9669L10.8698 125.107Z" fill="#F19D15"/>
<path d="M10.8698 125.107L10.8519 92.9683C10.7474 92.9608 10.6421 92.9579 10.5376 92.9586C10.1764 93.8206 10.0809 94.7125 10.066 95.6492C9.98162 100.799 10.3921 105.963 9.70398 111.099C9.77861 114.192 9.85325 117.285 9.92788 120.378L10.0025 120.491L9.93684 120.609L9.71294 121.035C9.72687 121.644 9.74154 122.253 9.75697 122.862C9.8122 122.897 9.86743 122.936 9.92117 122.969C10.21 123.417 10.0921 123.906 10.0854 124.387L10.1525 124.77L10.8698 125.107Z" fill="#FBC12F"/>
<path d="M15.6531 85.8759C15.064 85.9191 14.4751 85.9624 13.8865 86.0057C13.9621 86.8357 14.0367 87.6649 14.1104 88.4933C14.8179 89.1381 14.3925 89.9748 14.4888 90.7226C14.8993 90.6816 15.4523 90.8316 15.571 90.2703C15.8777 88.8172 16.1113 87.3491 15.6531 85.8759Z" fill="#F19D15"/>
<path d="M14.4888 90.7226C14.3925 89.9763 14.818 89.1381 14.1104 88.4933C13.4715 89.1008 14.1739 90.348 13.0469 90.7226C13.073 90.8338 13.0984 90.9465 13.1215 91.0562C13.6253 91.1406 14.0656 90.9674 14.4888 90.7226Z" fill="#EEC557"/>
<path d="M10.5347 92.9586C10.6392 92.9586 10.7444 92.9586 10.8489 92.9683C11.5953 92.5623 11.5998 91.86 11.5699 91.1465C10.8325 91.5271 10.3802 92.0697 10.5347 92.9586Z" fill="#EEC557"/>
<path d="M11.6311 91.0808C11.914 91.0853 12.1588 91.0174 12.2976 90.7405C11.7654 90.2539 11.6542 90.5785 11.6311 91.0808Z" fill="#EEC557"/>
<path d="M177.437 105.92C177.787 101.316 177.542 96.7038 177.613 92.0966C177.666 88.7149 177.625 85.3318 177.639 81.9463C177.651 78.9878 177.543 78.8676 174.505 78.8706C162.451 78.8826 150.398 78.9012 138.345 78.9266C137.516 78.9266 136.628 78.6281 135.851 79.1998C136.672 79.3752 136.591 80.0208 136.59 80.6178C136.587 82.0011 136.584 83.3838 136.582 84.766L140.314 84.8242C150.657 84.8123 161 84.8242 171.342 84.7638C172.686 84.7563 172.989 85.2594 172.971 86.4878C172.912 90.6734 172.935 94.8604 172.958 99.0466C172.962 99.6601 172.628 100.503 173.614 100.726C176.403 101.357 177.087 103.359 177.025 105.868L177.437 105.92Z" fill="#F57E63"/>
<path d="M136.581 84.7705C136.581 83.3873 136.583 82.0045 136.588 80.6223C136.588 80.02 136.667 79.3781 135.849 79.2042C135.604 79.1945 135.351 79.2229 135.116 79.1706C132.991 78.7042 132.483 79.0788 132.479 81.3C132.468 87.6797 132.486 94.0625 132.498 100.439C132.498 102.156 132.525 103.872 132.538 105.589L136.27 106.308L136.308 105.574C136.29 105.527 136.249 105.476 136.257 105.435C136.284 105.342 136.317 105.251 136.357 105.163L136.408 104.408C136.377 104.368 136.313 104.323 136.32 104.29C136.347 104.2 136.381 104.111 136.423 104.026C136.426 103.547 136.429 103.068 136.431 102.59C136.397 102.547 136.331 102.499 136.336 102.462C136.357 102.362 136.388 102.264 136.428 102.169L136.581 84.7705Z" fill="#E44635"/>
<path d="M136.273 106.311L132.541 105.592C131.784 106.162 130.943 105.834 130.131 105.82L127.79 105.502C126.792 105.714 125.792 105.696 124.789 105.554C124.805 105.582 124.811 105.614 124.806 105.646C124.801 105.677 124.786 105.706 124.762 105.728C124.798 107.36 124.834 108.992 124.869 110.624L139.099 110.604C138.995 108.995 137.367 108.317 136.868 106.947L136.273 106.311Z" fill="#67AD72"/>
<path d="M127.786 105.498L130.128 105.817C130.456 104.009 130.254 102.19 130.252 100.376C129.331 100.506 128.704 99.5481 127.776 99.7041C127.78 101.635 127.783 103.566 127.786 105.498Z" fill="#FBC12F"/>
<path d="M127.777 99.7034C128.704 99.5482 129.331 100.506 130.252 100.375C130.276 99.2146 130.318 98.054 130.32 96.8934C130.32 94.2812 130.32 94.2812 127.633 94.3976C127.652 95.0649 127.671 95.7319 127.689 96.3986C127.72 97.5007 127.749 98.6023 127.777 99.7034Z" fill="#C6E2F6"/>
<path d="M127.693 96.3986C127.675 95.7323 127.656 95.0656 127.636 94.3984C125.821 94.5954 124.003 93.9334 122.188 94.4193C122.23 95.1243 122.273 95.8291 122.316 96.5337L124.767 96.6643C125.733 96.4269 126.748 96.8135 127.693 96.3986Z" fill="#191A36"/>
<path d="M127.294 92.6623C124.838 92.6332 122.383 92.5937 119.927 92.5825C119.303 92.5825 118.491 92.328 118.509 93.4535C118.528 94.579 119.365 94.2744 119.972 94.2998C120.454 94.3207 120.942 94.2177 121.426 94.17C121.148 93.4236 121.107 92.9497 122.204 92.9161C123.899 92.8639 125.627 93.2908 127.294 92.6623Z" fill="#191A36"/>
<path d="M147.729 76.648L147.293 76.5734L136.308 76.7286C138.149 77.4055 140.056 76.8779 141.926 77.0331C143.568 77.1697 145.238 76.7756 146.864 77.307C147.412 77.4884 147.646 77.1383 147.729 76.648Z" fill="#191A36"/>
<path d="M68.3646 66.3156C68.2221 65.3133 66.8965 65.7185 66.9839 64.7759L67.7795 64.4109C70.4193 64.8102 72.9748 65.579 75.5878 66.1641C73.4234 64.746 70.841 64.5311 68.4803 63.6952C72.7215 63.3012 76.9946 63.9508 80.9271 65.5872C83.3356 66.5806 85.2664 67.9979 85.9978 70.7258C86.5986 72.9648 87.3733 75.1673 88.2249 77.3257C88.4548 77.9079 88.5503 79.2931 89.9191 78.5199C89.9751 79.096 90.0184 79.6782 90.6565 79.9543L91.1528 80.0133C89.7751 81.7411 88.3913 83.4652 86.7143 84.919C86.5815 84.6073 86.3765 84.3315 86.1162 84.1145C85.8559 83.8976 85.5477 83.7456 85.2171 83.6712C81.4936 82.7345 79.3568 80.0887 77.8596 76.7801C77.282 75.5024 76.4087 74.512 75.1922 73.8321C72.8964 72.5483 70.6171 71.2325 68.2848 70.019C66.5368 69.1099 65.8435 67.924 66.3368 66.3149L68.3646 66.3156ZM72.2456 67.1426C73.4263 68.1986 74.9116 68.4203 76.3505 68.7688C75.2228 67.5628 73.6973 67.4523 72.2441 67.1426H72.2456ZM78.4522 67.2008C79.1068 67.9553 79.9046 68.3584 80.8883 68.2919C80.2733 67.3732 79.3523 67.3194 78.4507 67.2023L78.4522 67.2008ZM69.5222 66.4768C69.979 67.2373 70.5902 67.0157 71.4231 66.9746C70.7402 66.1768 70.1909 66.2753 69.5207 66.4768H69.5222ZM77.9178 69.5906C78.0813 69.6309 78.3283 69.5279 78.2164 69.3286C78.1209 69.1547 77.8701 69.0301 77.6626 68.9636C77.5081 68.9121 77.3178 68.986 77.3529 69.3323C77.5111 69.4055 77.7044 69.5368 77.9178 69.5906ZM76.6162 66.6313C76.7132 66.8082 76.9685 66.9298 77.1797 67.0045C77.3364 67.0567 77.5887 66.9522 77.4865 66.7388C77.3969 66.5522 77.1536 66.4402 77.0386 66.3462C76.7468 66.3693 76.505 66.4276 76.6162 66.6298V66.6313Z" fill="#F4B28F"/>
<path d="M139.096 110.601L124.865 110.621C120.142 110.643 115.42 110.666 110.697 110.688C109.894 110.688 109.191 110.575 109.219 109.525C102.09 103.206 94.9622 96.8864 87.8346 90.5674C87.0069 89.8337 85.8426 89.2292 85.459 88.3059C84.9365 87.0454 86.8479 86.6707 87.1061 85.54L86.7987 85.2288C83.773 87.7895 83.7722 87.7895 86.5844 90.3457C86.9009 90.6331 87.1912 90.9652 87.5495 91.1868C89.6504 92.4877 90.4871 94.3133 89.9318 96.7434C89.9243 99.2653 90.1804 101.797 89.6937 104.305C90.2841 105.845 90.1848 107.494 89.9266 109.007C89.5079 111.456 89.5019 113.885 89.6691 116.321C89.8385 118.784 89.0914 121.197 89.431 123.652C90.3401 123.301 89.9184 122.511 89.9729 121.906C90.1624 119.796 89.7131 117.652 90.2572 115.558C90.3602 111.574 90.4637 107.59 90.5677 103.606L90.4722 103.49L90.5767 103.383C90.5826 103.071 90.5879 102.758 90.5938 102.449C90.3699 101.351 90.3632 100.254 90.6685 99.1653C90.6849 98.0637 90.6782 96.9606 90.7274 95.8605C90.7476 95.4082 90.446 94.7014 91.0066 94.5663C91.5499 94.4349 92.1709 94.7499 92.2895 95.4903C97.6976 100.227 103.109 104.96 108.523 109.691C109.111 110.202 109.189 110.811 109.206 111.504C109.24 112.853 109.297 114.203 109.346 115.551L124.779 115.626L139.114 115.551C139.308 113.896 139.255 112.248 139.096 110.601Z" fill="#191A36"/>
<path d="M78.8911 54.6442L76.8625 55.2361C78.3433 60.9829 82.5348 64.3415 87.386 67.0918C88.2346 67.5732 89.1444 67.9463 90.0266 68.3688L90.6647 68.2195L91.1178 68.1911L91.1402 68.1732C91.2603 67.8202 91.532 67.7613 91.8567 67.8045C95.6421 65.7148 99.141 63.319 101.765 59.744C102.798 58.3356 103.387 56.7825 104.164 55.2868C103.641 54.3576 102.678 54.4517 101.83 54.2785C101.988 54.9263 101.731 55.4958 101.468 56.0518C99.2015 60.8456 95.1466 63.6213 90.5162 65.7543C89.9856 65.9984 89.5631 65.7834 89.1243 65.5521C86.8852 64.3766 84.7485 63.0526 82.902 61.2979C80.9518 59.4402 79.2538 57.4475 78.8911 54.6442Z" fill="#FCFDFC"/>
<path d="M67.5862 102.395C67.8608 101.557 67.4369 100.902 67.154 100.263C65.1389 95.7448 63.7447 91.0488 63.473 86.1064C63.3678 84.1779 63.841 82.2202 64.0171 80.273C64.0567 79.8394 64.3478 79.1535 63.6163 79.093C63.1394 79.055 63.0939 79.6602 63.0193 80.0887C61.6594 87.7186 63.479 94.8171 66.645 101.683C66.7965 102.01 66.9376 102.372 67.5862 102.395Z" fill="#E44635"/>
<path d="M54.4811 79.9744C54.2473 79.8421 54.0139 79.7097 53.781 79.5774C53.6475 79.914 53.4041 80.2304 53.5504 80.6223C55.7596 86.5498 57.9598 92.481 60.1989 98.3973C60.3959 98.9197 60.5146 99.5989 61.3184 99.8347C61.7662 98.9003 61.1945 98.1457 60.9161 97.4069C58.8562 91.9488 56.7508 86.5102 54.6744 81.0544C54.5431 80.7208 54.5416 80.3379 54.4811 79.9744Z" fill="#E44635"/>
<path d="M90.6624 68.2188L90.0243 68.368C89.9885 71.7515 89.9534 75.1349 89.9191 78.5183C89.975 79.0945 90.0183 79.6767 90.6565 79.9528C90.6584 76.0429 90.6604 72.1316 90.6624 68.2188Z" fill="#191A36"/>
<path d="M86.7986 85.2257L87.1053 85.537L88.1196 85.1339C89.1981 82.9837 91.3715 81.7254 92.5701 79.6729L92.1223 79.6393L91.152 80.0125C89.7743 81.7396 88.3905 83.4636 86.7135 84.9175C86.7243 85.0243 86.7531 85.1285 86.7986 85.2257Z" fill="#2A3A70"/>
<path d="M58.1882 117.468C58.6965 116.258 58.3614 114.961 58.5741 113.721L58.1307 112.461L57.0993 112.572C57.0495 113.405 57.0025 114.238 56.9582 115.071C56.8741 115.81 56.7896 116.548 56.7045 117.287L58.1882 117.468Z" fill="#EEC557"/>
<path d="M67.7794 64.4109C70.4192 64.8102 72.9747 65.579 75.5877 66.1641C73.4233 64.746 70.8409 64.5311 68.4802 63.6952C68.0399 63.7347 67.8339 63.9975 67.7794 64.4109Z" fill="#EEC557"/>
<path d="M89.6937 104.302C90.1804 101.794 89.9244 99.2623 89.9318 96.7404C89.343 97.7852 89.8572 98.9518 89.5751 100.032L89.6937 104.302Z" fill="#67AD72"/>
<path d="M66.3368 66.3156H68.3646C68.222 65.3132 66.8965 65.7185 66.9838 64.7759C66.0405 64.9841 66.4136 65.7439 66.3368 66.3156Z" fill="#EEC557"/>
<path d="M57.4456 107.106C57.5754 107.282 57.7016 107.277 57.824 107.097L57.4456 107.106Z" fill="#F3D8CB"/>
<path d="M28.9239 117.335L32.4168 117.158C32.584 116.972 32.7534 116.98 32.9243 117.158C33.4687 117.146 34.0123 117.135 34.5551 117.124C35.2417 116.825 35.6127 116.338 35.4992 115.556C32.8124 114.753 31.0092 112.847 30.7831 110.572C30.5487 108.222 31.7974 106.364 34.482 105.065C34.7559 104.932 35.0275 104.793 35.3029 104.656C35.291 102.426 35.2793 100.196 35.2679 97.9658L33.4662 97.7419C33.3811 98.4502 32.9654 98.7197 32.281 98.9204C29.9412 99.6056 28.6396 101.383 28.6306 103.796C28.6152 107.785 28.6152 111.774 28.6306 115.763C28.6328 116.297 28.4709 116.878 28.9239 117.335Z" fill="#1795A6"/>
<path d="M30.9786 93.1087L32.6243 92.9594C32.6198 91.2428 32.6541 89.5195 32.6019 87.8014C32.5548 86.255 32.0854 84.8907 30.521 84.2137C30.068 84.019 29.5195 83.963 29.156 84.3981C28.9015 84.7019 28.9283 85.2101 29.2269 85.4131C31.0136 86.6349 30.3897 88.4649 30.5151 90.1218C30.5905 91.1234 30.1255 92.2235 30.9786 93.1087Z" fill="#ACB5D0"/>
<path d="M34.4177 61.1516C31.2831 61.1426 30.2822 62.4689 31.3234 65.7551C31.966 67.7829 33.9311 66.8888 35.3066 66.8709C36.3045 66.8582 38.0219 67.2679 37.8793 65.2058C37.8666 65.0229 37.8793 64.8386 37.8793 64.655C37.8047 60.8777 38.1704 61.1225 34.4177 61.1516Z" fill="#EEC557"/>
<path d="M38.9943 63.6945C38.9817 66.5955 39.0287 66.6545 41.3737 66.6627C44.5673 66.6731 44.7323 66.5246 44.7397 63.6243C44.7457 61.1188 44.524 60.8763 42.2298 60.8792C39.007 60.8807 39.007 60.8807 38.9943 63.6945Z" fill="#3ABFC3"/>
<path d="M32.6452 58.8051C34.2469 59.0051 35.8478 59.0469 37.4465 58.7738C36.7673 57.2684 37.5144 55.554 36.7599 54.0584L34.5044 54.0382L34.3335 54.0763L34.1603 54.0516L33.3856 54.0636H31.5615L31.5078 54.0867L31.5347 54.4599C32.3669 54.5472 32.6967 55.0353 32.6758 55.8421C32.6497 56.8325 32.6535 57.8192 32.6452 58.8051Z" fill="#EEC557"/>
<path d="M32.6452 58.8051C32.6534 57.8192 32.6497 56.8325 32.6758 55.8466C32.6967 55.0398 32.3668 54.5517 31.5354 54.4644C31.412 54.4725 31.2881 54.4614 31.1682 54.4315L30.9152 56.3377C31.363 56.9154 31.1532 57.5662 31.1189 58.1976L31.1689 58.1827C31.4481 58.2662 31.5615 58.476 31.5973 58.7447L32.6452 58.8051Z" fill="#FBC12F"/>
<path d="M36.7598 54.0583C37.5143 55.551 36.7672 57.2676 37.4464 58.7737C38.1398 57.9878 38.5055 55.0196 37.9756 54.2703C37.6636 53.8232 37.2509 53.6351 36.7598 54.0583Z" fill="#F4B28F"/>
<path d="M31.5615 54.0665H33.3856C32.7766 53.654 32.1686 53.654 31.5615 54.0665Z" fill="#F4B28F"/>
<path d="M31.1189 58.1975C31.1532 57.5661 31.3644 56.9153 30.9151 56.3376C30.7875 56.9773 30.5912 57.6281 31.1189 58.1975Z" fill="#F4B28F"/>
<path d="M31.5973 58.7446C31.5615 58.4759 31.4481 58.2662 31.1689 58.1826C31.1749 58.4744 31.1913 58.7588 31.5973 58.7446Z" fill="#EEC557"/>
<path d="M31.1704 54.4315C31.2904 54.4614 31.4143 54.4725 31.5376 54.4644C31.5279 54.3397 31.519 54.2151 31.51 54.0912L31.1704 54.4315Z" fill="#F4B28F"/>
<path d="M34.1603 54.0516L34.3334 54.0762L34.5043 54.0382C34.3797 53.868 34.2678 53.8814 34.1603 54.0516Z" fill="#F4B28F"/>
<path d="M14.4888 90.7227C14.0657 90.9675 13.6253 91.1406 13.1223 91.0563C12.4289 92.7326 12.2886 94.4753 12.3013 96.2807C12.3468 104.589 12.3312 112.897 12.3132 121.209C12.3132 122.582 12.523 123.89 13.0835 125.141C15.2307 125.137 17.3787 125.081 19.5229 125.146C21.0761 125.193 21.653 124.738 20.8104 123.242L20.1223 123.316C20.0327 123.672 20.2029 124.255 19.6058 124.219C19.158 124.192 19.0236 123.723 18.9624 123.306L15.2964 123.269C14.6933 123.84 14.3127 123.369 14.2731 122.886C14.1515 121.431 13.635 120.02 13.8127 118.531C13.8761 117.999 14.0366 117.586 14.5702 117.392H14.5978C14.5926 116.672 14.4739 115.986 14.1157 115.339C13.8074 114.782 13.5798 114.192 14.5456 114.025L14.9016 113.644C14.9075 113.029 14.9138 112.413 14.9202 111.797L14.5523 111.435C14.3702 111.279 14.0552 111.145 14.0246 110.963C13.6559 108.782 13.7738 106.588 13.9582 104.401C13.9701 104.263 14.3314 104.155 14.5344 104.034V103.311C13.4323 102.567 13.4303 101.821 14.5284 101.072L14.5799 100.379C14.6003 99.7236 14.62 99.0685 14.6389 98.4138C14.6069 98.3119 14.5835 98.2075 14.5687 98.1018C13.3522 97.5129 13.4402 96.8987 14.5329 96.2643V94.432C14.2672 94.3738 13.9097 94.3611 14 93.9745C14.0306 93.8431 14.3515 93.7789 14.5396 93.6842C14.6889 91.9952 15.9577 92.1862 17.0981 92.1616C17.631 90.9055 18.1153 91.9482 18.6169 92.1937L20.0491 92.2683C20.4141 91.9832 20.4887 91.4683 20.0932 91.3906C18.1109 91.0048 18.6139 89.5143 18.5826 88.247C18.5826 88.1239 18.5826 88 18.5826 87.8738C18.5826 85.3169 18.2355 85.0818 15.6524 85.8766C16.1107 87.3492 15.8763 88.8172 15.5703 90.2704C15.4524 90.8316 14.9001 90.6816 14.4888 90.7227Z" fill="#FBC12F"/>
<path d="M14.55 111.434L14.9179 111.796C16.3875 111.796 17.86 111.747 19.3266 111.81C20.4081 111.857 20.873 111.52 20.8462 110.362C20.779 107.485 20.782 104.605 20.8268 101.727C20.8424 100.709 20.5155 100.205 19.4669 100.341C17.8376 100.553 16.2039 99.9213 14.5776 100.378C14.5612 100.609 14.544 100.84 14.5276 101.071C14.5276 101.817 14.5293 102.563 14.5328 103.31C14.5328 103.551 14.5328 103.792 14.5328 104.033L14.55 111.434Z" fill="#F4B28F"/>
<path d="M14.5671 98.101C14.5818 98.2065 14.6053 98.3106 14.6373 98.4122C16.1695 98.4302 17.6973 98.4518 19.2318 98.466C19.855 98.4719 20.7006 98.4719 20.7081 97.7323C20.726 95.8956 21.4604 93.9364 20.0513 92.2646L18.6183 92.1899L17.0995 92.1571C15.9598 92.1817 14.691 91.9907 14.541 93.6797L14.5343 94.426C14.5343 95.0365 14.5343 95.6475 14.5343 96.259L14.5671 98.101Z" fill="#F4B28F"/>
<path d="M15.2941 123.267L18.9602 123.304L20.12 123.315L20.8081 123.24C20.8141 121.709 20.7887 120.18 20.8365 118.646C20.8663 117.709 20.517 117.313 19.5557 117.345C17.9033 117.4 16.2479 117.38 14.5948 117.391H14.5679C14.8254 119.347 13.9469 121.444 15.2941 123.267Z" fill="#F4B28F"/>
<path d="M14.9001 113.643L14.5441 114.024C14.565 114.738 14.6695 115.438 15.5778 115.463C17.0436 115.504 18.5116 115.48 19.9812 115.476C20.6171 115.476 20.8022 115.086 20.7977 114.514C20.791 113.871 20.4245 113.674 19.8543 113.671C18.2019 113.665 16.5505 113.655 14.9001 113.643Z" fill="#F4B28F"/>
<path d="M18.499 85.2049C17.075 84.9138 15.6494 83.8667 14.2284 85.2109L18.499 85.2049Z" fill="#E44635"/>
<path d="M41.6439 108.469C42.5395 111.312 41.3386 113.57 37.8935 115.52L35.5 115.554C32.8131 114.751 31.0092 112.845 30.783 110.569C30.5487 108.22 31.7973 106.362 34.4819 105.063C34.7559 104.93 35.0275 104.791 35.3029 104.654C38.9473 104.677 40.802 105.793 41.6439 108.469ZM40.6624 111.454C41.4215 109.328 40.246 106.683 38.1301 106.02C37.2397 105.74 36.2545 105.268 35.3059 105.975C33.3079 106.374 31.6675 108.302 31.7294 110.181C31.7958 112.197 33.4923 113.967 35.6619 114.286C37.7024 114.914 39.8638 113.689 40.6624 111.453V111.454Z" fill="#C6E2F6"/>
<path d="M37.8935 115.52L35.4999 115.554C35.6126 116.336 35.2417 116.823 34.5551 117.122C36.8486 117.541 39.163 117.2 41.4647 117.32C42.2462 117.36 43.0552 117.188 43.7889 117.613C43.8192 117.165 43.8493 116.717 43.8792 116.269C43.8471 116.12 43.8157 115.971 43.7844 115.821C42.432 116.726 38.8294 116.542 37.8935 115.52Z" fill="#ACB5D0"/>
<path d="M43.7837 115.822C43.815 115.972 43.8464 116.121 43.8785 116.27C43.9345 116.069 43.9889 115.868 44.0434 115.666C43.9913 115.672 43.9411 115.688 43.8962 115.715C43.8513 115.742 43.8129 115.779 43.7837 115.822Z" fill="#C6E2F6"/>
<path d="M40.4124 46.4777C39.9519 47.5225 40.0176 48.5383 40.4124 49.5444C40.9132 48.5174 40.9677 47.4987 40.4124 46.4777Z" fill="#FCFDFC"/>
<path d="M1.70544 79.1647L2.1331 79.5662L5.68795 79.5841C6.32981 77.5093 5.74616 75.3665 6.04097 73.2723L1.71888 73.4648L1.70544 79.1647Z" fill="#191A36"/>
<path d="M13.3566 79.5505C13.6469 79.5461 13.938 79.5416 14.2298 79.5356C13.5969 77.6003 14.1372 75.5636 13.3566 73.5902V79.5505Z" fill="#191A36"/>
<path d="M47.0474 118.821L48.0468 118.843L48.164 118.821C47.9961 117.835 48.3528 117.384 49.4096 117.43C50.3545 117.47 51.3054 117.365 52.254 117.325C52.1092 115.259 51.1747 114.141 48.9454 114.397H54.5102C54.6264 114.402 54.7418 114.419 54.8542 114.449C55.5103 113.819 54.9289 113.189 54.8542 112.559L48.5812 112.36C47.1072 112.435 46.6482 113.267 46.79 114.65C46.9318 116.032 46.5586 117.454 47.0474 118.821Z" fill="#F19D15"/>
<path d="M54.8542 112.559C54.9289 113.189 55.5103 113.819 54.8542 114.449C54.8833 114.522 54.894 114.601 54.8856 114.679L54.9438 114.758C55.6066 114.907 56.2283 115.323 56.9537 115.07C57.0035 114.237 57.051 113.404 57.0963 112.572L54.8542 112.559Z" fill="#F3D8CB"/>
<path d="M88.1167 85.134L87.1024 85.537C86.8449 86.6677 84.9327 87.0424 85.4559 88.303C85.8396 89.2262 87.0039 89.8307 87.8316 90.5644C94.9582 96.8859 102.087 103.205 109.217 109.522C110.006 108.384 110.745 107.208 111.841 106.328C111.076 104.054 108.855 103.163 107.288 101.687C104.439 99.0086 101.317 96.621 98.3498 94.067C94.9189 91.1152 91.5282 88.1141 88.1167 85.134Z" fill="#F19D15"/>
<path d="M115.793 94.1692C116.027 93.7349 116.131 93.3348 116.041 92.7848C115.169 87.4327 115.024 82.0306 115.18 76.6249C115.234 74.7515 115.587 72.8864 115.832 70.7765C114.746 71.44 114.19 72.264 113.756 73.173C112.694 75.3919 111.536 77.5765 110.644 79.8618C109.665 82.3665 108.267 84.5496 106.473 86.5169C106.324 86.6767 106.33 86.9737 106.263 87.2058C107.655 88.2552 109.034 89.3232 110.443 90.3502C111.295 90.9704 111.777 90.733 111.818 89.6538C111.872 88.2597 111.946 86.8662 112.011 85.4743V83.342C112.086 83.8525 112.117 84.0883 112.15 84.3197C112.971 85.1795 112.353 86.155 112.374 87.0812C112.524 88.1074 112.624 89.1306 112.182 90.1188C112.112 92.6004 114.318 93.0594 115.793 94.1692Z" fill="#F19D15"/>
<path d="M111.844 106.329C110.748 107.21 110.009 108.385 109.22 109.522C109.191 110.575 109.891 110.692 110.697 110.688C115.419 110.665 120.142 110.642 124.865 110.621C124.83 108.989 124.795 107.357 124.759 105.725L122.147 105.632L120.316 105.797C120.204 105.797 120.092 105.791 119.975 105.788C117.239 105.551 114.523 105.658 111.844 106.329Z" fill="#2A3A70"/>
<path d="M115.793 94.1692C114.318 93.0594 112.112 92.6019 112.18 90.1173C112.273 89.1075 111.987 88.0708 112.372 87.0774C112.354 86.1535 112.974 85.178 112.148 84.316C112.19 84.7108 112.255 85.1101 112.009 85.4721C111.944 86.8655 111.87 88.2589 111.816 89.6516C111.774 90.7308 111.294 90.9681 110.441 90.3479C109.032 89.321 107.652 88.2529 106.261 87.2036C102.269 84.3876 98.2513 81.606 94.3032 78.7258C93.4605 78.1116 92.9291 78.231 92.3 78.8617L92.1208 79.6371L92.5687 79.6707C93.5732 78.8154 94.2539 79.6513 94.9659 80.1596C101.908 85.1143 108.849 90.072 115.789 95.0328C116.148 95.288 116.423 95.8261 117.058 95.6C117 94.7797 116.065 94.7618 115.793 94.1692Z" fill="#191A36"/>
<path d="M122.15 105.632L124.762 105.725C124.786 105.703 124.801 105.674 124.806 105.643C124.811 105.611 124.805 105.579 124.789 105.551L124.771 96.6643L122.32 96.5337C122.263 99.5688 122.206 102.601 122.15 105.632Z" fill="#F3D8CB"/>
<path d="M92.1231 79.6394L92.3022 78.8639C91.1827 79.4386 91.1185 78.7729 91.123 77.9056C91.1379 74.6672 91.123 71.4288 91.1155 68.1904L90.6625 68.2188C90.6625 72.1311 90.6605 76.0432 90.6565 79.9551L91.1528 80.0141L92.1231 79.6394Z" fill="#EEC557"/>
<path d="M91.8543 67.8038C91.5296 67.7605 91.2572 67.8194 91.1378 68.1725C91.4461 68.1844 91.7035 68.0978 91.8543 67.8038Z" fill="#EEC557"/>
<path d="M119.978 105.788C120.092 105.788 120.207 105.793 120.319 105.797L119.978 105.788Z" fill="#67AD72"/>
<path d="M135.406 62.8294C141.706 64.3221 140.673 64.3967 142.404 58.9805C141.956 59.8873 141.417 60.7627 141.083 61.7091C140.671 62.8786 140.068 63.3832 138.763 63.1122C137.674 62.8861 136.527 62.9137 135.406 62.8294Z" fill="#C6E2F6"/>
<path d="M143.963 69.9958L144.012 68.892C142.086 69.6779 140.152 68.8211 138.221 68.9166C137.316 68.9614 136.407 68.9241 135.497 69.0054C138.173 69.6174 140.951 69.392 143.611 70.0734C143.721 70.0221 143.841 69.9956 143.963 69.9958Z" fill="#C6E2F6"/>
<path d="M144.366 68.1725C145.434 66.279 146.615 64.4348 146.968 62.2278C145.677 64.0273 144.743 65.9797 144.366 68.1725Z" fill="#C6E2F6"/>
<path d="M146.601 74.4418H145.843C146.026 75.1135 145.314 75.1135 145.042 75.4575C145.917 75.6285 146.685 75.6755 146.601 74.4418Z" fill="#C6E2F6"/>
<path d="M147.349 72.5946C146.624 73.0238 146.453 73.682 146.583 74.4605L147.06 74.4172C147.086 73.7985 147.563 73.2514 147.349 72.5946Z" fill="#C6E2F6"/>
<path d="M143.963 69.9958C143.842 69.9946 143.722 70.0201 143.611 70.0705C143.732 70.6131 143.902 71.1288 144.37 71.4885C144.347 70.9601 144.535 70.3742 143.963 69.9958Z" fill="#98C878"/>
<path d="M141.724 65.9887C141.792 66.4544 141.731 66.9813 142.331 67.2187C142.739 66.5596 142.238 66.2417 141.846 65.8857L141.724 65.9887Z" fill="#98C878"/>
<path d="M145.109 72.967C145.109 72.558 145.173 72.1274 144.742 71.8617C144.752 72.2677 144.667 72.7051 145.109 72.967Z" fill="#98C878"/>
<path d="M145.476 73.7014C145.491 73.3917 145.437 73.1163 145.114 72.9745C145.117 73.2753 145.165 73.5544 145.476 73.7014Z" fill="#98C878"/>
<path d="M145.844 74.4418C145.856 74.1365 145.814 73.8589 145.487 73.7216C145.481 74.0208 145.52 74.3007 145.844 74.4418Z" fill="#98C878"/>
<path d="M141.353 65.2535C141.478 65.4983 141.602 65.7434 141.726 65.9887L141.847 65.8857C141.718 65.6394 141.589 65.3946 141.46 65.149L141.353 65.2535Z" fill="#98C878"/>
<path d="M143.996 68.9188C144.319 68.7621 144.364 68.465 144.381 68.1538C143.943 68.2471 143.943 68.5703 143.996 68.9188Z" fill="#C6E2F6"/>
<path d="M141.459 65.149L141.228 65.0117L141.354 65.2528L141.459 65.149Z" fill="#98C878"/>
<path d="M83.1669 43.7065C83.2579 46.159 83.3492 48.6117 83.4408 51.0647C83.6348 50.0512 84.1386 49.6691 85.2738 49.6079C87.8984 49.4754 90.4465 48.6793 92.6798 47.2942C94.7405 46.0291 96.219 44.1827 97.9945 42.6392C98.1289 41.5197 98.1774 40.4002 97.94 39.2896C96.2346 40.2442 94.5487 41.2346 92.8201 42.1444C89.7855 43.7446 86.4986 43.8893 83.1669 43.7065Z" fill="#F57E63"/>
<path d="M81.101 34.3518C81.5368 35.7945 82.4123 36.8468 83.9565 37.0192C85.3126 37.1685 86.4358 36.5528 87.2501 35.4519C87.4927 35.1243 87.777 34.7436 87.3725 34.3204C85.2805 34.7615 83.1907 34.566 81.101 34.3518Z" fill="#E44635"/>
<path d="M77.2947 27.7877C78.7501 27.928 79.5628 27.166 79.5583 25.8084C79.5531 24.4321 78.6 23.788 77.2536 23.7373C76.9551 23.7261 76.6461 23.6865 76.3468 23.7149C75.911 23.7552 75.3975 23.126 75.037 23.9895C74.722 24.7441 75.2736 24.9553 75.6035 25.3427C75.8378 25.1523 76.0789 24.9695 76.3065 24.7717C76.6543 24.4687 77.0947 24.2254 77.435 24.6068C77.8828 25.112 77.2671 25.2785 76.9872 25.5472C76.1117 26.4181 76.8939 27.0809 77.2947 27.7877Z" fill="#191A36"/>
<path d="M95.1413 25.2815C94.7823 23.5544 93.5098 23.5268 92.2007 23.8127C91.0394 24.0672 90.1856 24.8911 90.4095 26.1084C90.6334 27.3257 91.3797 28.2922 92.9217 27.8392L93.3135 27.4362L93.2717 27.4451C93.3008 27.2041 93.3598 26.9622 93.3538 26.7219C93.3172 25.1009 93.3792 25.0479 95.1413 25.2815Z" fill="#191A36"/>
<path d="M95.9801 21.2229C95.9197 19.7354 94.9151 19.557 94.0688 19.3764C92.8 19.1062 91.514 19.2144 90.2684 19.6175C89.6981 19.8018 88.9249 19.9451 89.1556 20.7459C89.3496 21.4176 90.0892 21.2773 90.5863 21.1019C92.3305 20.4847 94.0546 20.6094 95.9801 21.2229Z" fill="#191A36"/>
<path d="M74.7944 20.5891C74.778 21.1944 75.1138 21.2078 75.4042 21.1116C76.9237 20.6235 78.4299 20.6959 79.9494 21.1116C80.0997 21.1561 80.2612 21.1437 80.403 21.0768C80.5448 21.0099 80.657 20.8932 80.7182 20.7488C80.8674 20.4197 80.7182 20.1771 80.4823 19.9413C79.5419 18.9912 75.9968 19.0673 75.0832 20.0794C74.9295 20.2495 74.8511 20.4869 74.7944 20.5891Z" fill="#191A36"/>
<path d="M81.1009 34.3518C83.1907 34.566 85.2805 34.7615 87.3703 34.3204C87.4971 34.0294 88.5771 33.5741 87.4314 33.4763C85.3222 33.3025 83.2027 33.2933 81.092 33.4487C79.9881 33.5241 80.9517 34.0376 81.1009 34.3518Z" fill="#FCFDFC"/>
<path d="M104.457 29.9841C105.721 29.0288 105.801 28.1183 105.339 27.4167C104.742 26.5047 104.635 25.8307 105.668 25.356C106.76 24.8545 106.997 25.8121 107.346 26.5159C107.42 26.6651 107.546 26.789 107.673 26.9577C107.926 25.5464 107.331 24.5627 106.18 24.5492C104.873 24.5343 104.273 25.4852 103.792 26.5144C103.682 26.7502 103.83 26.9808 104.085 27.1032C105.242 27.6526 104.828 28.59 104.457 29.9841Z" fill="#E44635"/>
<path d="M84.1737 24.5963C83.3676 26.5017 83.0183 28.1041 82.0929 29.4826C81.5518 30.2887 81.8167 30.5835 83.0974 31.3082C82.0414 28.9386 84.9163 27.3578 84.1737 24.5963Z" fill="#E44635"/>
<path d="M77.2946 27.7877C76.8908 27.0809 76.1086 26.4181 76.9908 25.5487C77.267 25.2762 77.8864 25.1135 77.4386 24.6083C77.0983 24.2269 76.658 24.4702 76.3102 24.7732C76.0863 24.971 75.8415 25.1538 75.6071 25.3442C75.5504 26.5861 75.1862 28.0429 77.2946 27.7877Z" fill="#F3D8CB"/>
<path d="M95.1413 25.2814C93.3792 25.0478 93.3172 25.1008 93.3546 26.7219C93.3605 26.9622 93.3016 27.204 93.2725 27.4451C94.7174 27.4339 94.5577 26.0367 95.1413 25.2814Z" fill="#F3D8CB"/>
<path d="M92.6887 30.3074C92.6984 30.8298 93.0022 31.2448 93.3903 31.2739C94.1254 31.3299 94.3844 30.747 94.4277 30.1014C94.4576 29.6536 94.3098 29.1364 93.8396 29.1311C93.1335 29.1244 93.0425 29.8976 92.6887 30.3074Z" fill="#F57E63"/>
<path d="M97.9946 42.6407C96.219 44.1842 94.7405 46.0307 92.6799 47.2957C90.4466 48.6809 87.8985 49.4769 85.2739 49.6094C84.1387 49.6706 83.6319 50.0527 83.4408 51.0663C83.396 52.7082 82.5303 53.5971 80.9353 53.918C80.2338 54.0591 79.5718 54.3972 78.8918 54.6457C79.2538 57.449 80.9525 59.4418 82.8997 61.2927C84.7462 63.0466 86.8822 64.3706 89.122 65.5469C89.5609 65.7782 89.9833 65.9947 90.514 65.7491C95.1413 63.6198 99.1992 60.8441 101.466 56.0466C101.729 55.4906 101.988 54.9211 101.828 54.2733C98.4872 53.5844 97.9259 51.217 98.0842 48.2876C98.1849 46.4128 98.0334 44.5238 97.9946 42.6407Z" fill="#F4B28F"/>
<path d="M155.545 121.736C155.394 119.32 155.396 116.896 155.551 114.48C155.512 111.971 155.457 109.462 155.44 106.953C155.418 103.776 154.931 103.09 151.874 102.156C151.523 102.048 151.398 101.815 151.295 101.521L149.926 101.573C149.371 101.946 148.732 101.845 148.145 101.797C143.49 101.394 140.697 103.955 141.401 108.63C141.578 109.808 141.054 111.056 141.742 112.188C141.987 111.848 142.23 111.508 142.476 111.17C143.984 109.088 146.648 108.617 148.827 110.05C150.91 111.417 151.436 114.155 150.037 116.352C148.727 118.408 146.11 118.964 143.89 117.754C142.912 117.221 142.519 116.234 141.801 115.507C140.001 119.19 141.736 122.709 146.091 122.551C148.538 122.462 150.99 122.539 153.441 122.538C154.112 122.538 154.797 122.613 155.39 122.185C155.442 122.031 155.494 121.884 155.545 121.736Z" fill="#3ABFC3"/>
<path d="M136.273 106.311L136.865 106.949C136.411 104.388 137.92 102.862 139.739 101.501C139.447 99.6653 139.553 97.8196 139.62 95.9776C139.694 93.9991 140.217 93.5311 142.222 93.5042C143.938 93.4811 145.655 93.7207 147.359 93.3811C147.103 91.769 145.791 90.9928 144.746 89.9718C143.122 88.3932 140.918 87.2931 140.315 84.8302L136.583 84.772L136.434 102.171C136.434 102.31 136.434 102.451 136.437 102.591C136.434 103.07 136.432 103.549 136.43 104.027L136.414 104.409C136.397 104.661 136.38 104.913 136.363 105.164C136.396 105.208 136.462 105.264 136.452 105.296C136.414 105.393 136.368 105.487 136.314 105.576L136.273 106.311Z" fill="#F3D8CB"/>
<path d="M147.359 93.3796C145.653 93.7192 143.934 93.4796 142.222 93.5027C140.215 93.5296 139.691 93.9976 139.62 95.9761C139.553 97.8159 139.447 99.6616 139.739 101.499L149.926 101.574L151.295 101.521C151.373 99.6462 151.452 97.7696 151.531 95.8918C151.466 94.1341 150.543 93.3781 148.807 93.5035C148.33 93.5356 147.842 93.4244 147.359 93.3796Z" fill="#191A36"/>
<path d="M141.803 115.501C142.519 116.228 142.912 117.217 143.893 117.747C146.112 118.955 148.73 118.401 150.039 116.345C151.438 114.15 150.912 111.41 148.83 110.043C146.65 108.614 143.986 109.085 142.478 111.163C142.233 111.502 141.99 111.841 141.745 112.181C141.463 113.272 141.484 114.42 141.803 115.501Z" fill="#FCFDFC"/>
<path d="M32.9243 117.156C32.7533 116.98 32.5839 116.972 32.4167 117.156H32.9243Z" fill="#ACB5D0"/>
<path d="M52.254 117.324C51.3054 117.365 50.3545 117.473 49.4097 117.43C48.3528 117.384 47.9961 117.835 48.164 118.821C50 118.865 51.836 118.949 53.672 118.937C54.7819 118.929 55.2513 119.224 55.0259 120.455C54.8393 121.471 54.9252 122.537 54.905 123.582C54.8916 124.313 55.1983 124.716 55.9984 124.736C56.8448 124.756 57.0433 124.322 57.0246 123.588C56.9985 122.604 57.0873 121.613 57.0045 120.635C56.9239 119.678 57.2702 119.124 58.1867 118.903C58.1867 118.425 58.1867 117.946 58.1867 117.467L56.703 117.288L54.899 117.369C54.0146 117.463 53.1317 117.525 52.254 117.324Z" fill="#FCFDFC"/>
<path d="M90.6685 99.1608C90.3632 100.25 90.3699 101.346 90.5938 102.445C90.8356 101.354 90.7916 100.258 90.6685 99.1608Z" fill="#67AD72"/>
<path d="M90.5796 103.378L90.4751 103.486C90.4751 103.486 90.5706 103.604 90.5706 103.602C90.6542 103.529 90.658 103.455 90.5796 103.378Z" fill="#67AD72"/>
<path d="M9.93388 120.61L9.99956 120.491C9.99956 120.491 9.92492 120.378 9.92492 120.379C9.90579 120.392 9.89029 120.409 9.87986 120.43C9.86944 120.451 9.86444 120.474 9.86534 120.497C9.86623 120.52 9.87299 120.542 9.88498 120.562C9.89697 120.582 9.9138 120.599 9.93388 120.61Z" fill="#EEC557"/>
<path d="M147.359 93.3796C147.842 93.4244 148.329 93.5356 148.807 93.5013C150.543 93.3774 151.466 94.1334 151.531 95.8896C153.457 96.3187 154.474 97.9973 155.852 99.1422C158.119 101.024 160.181 103.152 162.345 105.162C162.811 105.595 163.262 106.325 164.001 105.495C163.524 102.825 165.381 100.954 168.106 100.748C168.405 100.725 168.778 100.673 168.917 100.992C168.987 101.15 168.879 101.514 168.732 101.621C167.314 102.632 167.743 104.142 167.633 105.507C170.078 105.913 172.546 105.88 175.011 105.88C175.682 105.88 176.354 105.876 177.03 105.873C177.093 103.363 176.409 101.361 173.62 100.73C172.634 100.506 172.968 99.6646 172.964 99.0511C172.941 94.8648 172.918 90.6778 172.977 86.4923C172.995 85.2638 172.692 84.7608 171.348 84.7683C161.006 84.8272 150.663 84.8168 140.32 84.8287C140.923 87.2917 143.128 88.3918 144.752 89.9703C145.795 90.9898 147.103 91.7675 147.359 93.3796Z" fill="#FCFDFC"/>
<path d="M136.434 102.59C136.434 102.449 136.434 102.309 136.431 102.169C136.391 102.264 136.36 102.362 136.339 102.462C136.331 102.499 136.4 102.547 136.434 102.59Z" fill="#F57E63"/>
<path d="M136.411 104.408L136.427 104.026C136.385 104.111 136.35 104.199 136.323 104.29C136.317 104.323 136.38 104.37 136.411 104.408Z" fill="#F57E63"/>
<path d="M136.311 105.574C136.365 105.485 136.411 105.391 136.449 105.294C136.459 105.262 136.393 105.206 136.361 105.162C136.32 105.251 136.287 105.342 136.261 105.435C136.252 105.476 136.293 105.527 136.311 105.574Z" fill="#F57E63"/>
<path d="M124.768 96.6642L124.786 105.551C125.789 105.693 126.789 105.711 127.787 105.499C127.784 103.567 127.78 101.635 127.776 99.7034C127.749 98.6028 127.722 97.5014 127.693 96.3993C126.748 96.8135 125.733 96.4269 124.768 96.6642Z" fill="#FCFDFC"/>
<path d="M76.3483 68.7695C75.2228 67.5634 73.6973 67.453 72.2434 67.1432C73.4249 68.1986 74.9101 68.4202 76.3483 68.7695Z" fill="#EEC557"/>
<path d="M80.8868 68.2919C80.2733 67.3732 79.3523 67.3217 78.4507 67.2007C79.1052 67.9553 79.9068 68.3583 80.8868 68.2919Z" fill="#EEC557"/>
<path d="M71.4217 66.9784C70.7403 66.1805 70.191 66.2791 69.5208 66.4806C69.9805 67.2374 70.5888 67.0157 71.4217 66.9784Z" fill="#EEC557"/>
<path d="M77.3558 69.3309C77.511 69.4055 77.7043 69.5368 77.9178 69.5891C78.0812 69.6294 78.3283 69.5264 78.2163 69.3271C78.1208 69.1532 77.87 69.0286 77.6625 68.9622C77.511 68.9107 77.3207 68.9846 77.3558 69.3309Z" fill="#EEC557"/>
<path d="M77.0409 66.3417C76.7468 66.3693 76.505 66.4275 76.6162 66.6298C76.7132 66.8067 76.9685 66.9283 77.1797 67.0029C77.3364 67.0552 77.5887 66.9507 77.4864 66.7372C77.3969 66.5477 77.1536 66.435 77.0409 66.3417Z" fill="#EEC557"/>
<path d="M54.8975 117.369L56.7014 117.288C56.786 116.549 56.8706 115.81 56.9551 115.071C56.2282 115.323 55.6065 114.906 54.94 114.757C54.9266 115.628 54.9124 116.498 54.8975 117.369Z" fill="#F4B28F"/>
<path d="M14.55 111.434L14.5321 104.033C14.332 104.155 13.9678 104.262 13.9559 104.4C13.7715 106.588 13.6573 108.781 14.0223 110.962C14.0529 111.144 14.3679 111.278 14.55 111.434Z" fill="#EEC557"/>
<path d="M15.2941 123.267C13.947 121.444 14.8232 119.347 14.5679 117.39C14.035 117.584 13.8738 117.998 13.8104 118.529C13.6327 120.022 14.1492 121.429 14.2709 122.885C14.3104 123.367 14.6911 123.839 15.2941 123.267Z" fill="#EEC557"/>
<path d="M14.5328 103.31C14.5328 102.563 14.5311 101.817 14.5276 101.071C13.4324 101.82 13.4342 102.566 14.5328 103.31Z" fill="#EEC557"/>
<path d="M14.5672 98.101L14.5314 96.2642C13.4387 96.8979 13.3507 97.5121 14.5672 98.101Z" fill="#EEC557"/>
<path d="M17.0995 92.1608L18.6183 92.1937C18.1168 91.9474 17.6324 90.9047 17.0995 92.1608Z" fill="#EEC557"/>
<path d="M14.5343 94.4312L14.5411 93.6849C14.353 93.7797 14.0321 93.8438 14.0015 93.9752C13.9111 94.3603 14.2686 94.373 14.5343 94.4312Z" fill="#EEC557"/>
<path d="M35.6619 114.286C37.7024 114.914 39.8638 113.689 40.6624 111.45C41.4214 109.324 40.2459 106.68 38.13 106.016C37.2397 105.736 36.2545 105.264 35.3051 105.971C35.1827 107.269 35.4738 108.658 34.4491 109.761C34.2625 109.963 34.099 110.342 34.4371 110.56C35.8641 111.48 35.4507 112.982 35.6619 114.286Z" fill="#3ABFC3"/>
<path d="M35.662 114.286C35.4508 112.982 35.8642 111.48 34.4372 110.563C34.0991 110.345 34.2626 109.966 34.4492 109.764C35.4739 108.657 35.1828 107.272 35.3052 105.974C33.308 106.373 31.6675 108.301 31.7295 110.181C31.7959 112.195 33.4924 113.966 35.662 114.286Z" fill="#1795A6"/>
<path d="M54.8975 117.369C54.9125 116.498 54.9277 115.628 54.9431 114.756C54.9431 114.756 54.8856 114.678 54.8856 114.682C54.7602 114.588 54.6348 114.494 54.5124 114.4H48.9454C51.1748 114.144 52.1092 115.261 52.254 117.327C53.1317 117.525 54.0146 117.463 54.8975 117.369Z" fill="#FBC12F"/>
<path d="M54.5101 114.397C54.6348 114.492 54.7602 114.586 54.8833 114.68C54.8918 114.601 54.881 114.522 54.852 114.449C54.7402 114.419 54.6256 114.402 54.5101 114.397Z" fill="#F4B28F"/>
<path d="M112.373 87.0775C111.988 88.0708 112.274 89.1075 112.181 90.1173C112.622 89.1269 112.522 88.1037 112.373 87.0775Z" fill="#2A3A70"/>
<path d="M112.012 85.4728C112.258 85.1109 112.193 84.7116 112.151 84.3167C112.118 84.0846 112.085 83.851 112.012 83.3405V85.4728Z" fill="#2A3A70"/>
</svg>
