<svg xmlns="http://www.w3.org/2000/svg" xmlns:xlink="http://www.w3.org/1999/xlink" width="400" zoomAndPan="magnify" viewBox="0 0 300 299.999988" height="400" preserveAspectRatio="xMidYMid meet" version="1.0"><defs><clipPath id="132d228b73"><path d="M 30 70 L 270 70 L 270 231.300781 L 30 231.300781 Z M 30 70 " clip-rule="nonzero"/></clipPath></defs><path fill="#a9a0f0" d="M 203.785156 134.445312 C 205.246094 134.445312 206.933594 134.097656 208.785156 133.128906 C 213.625 130.601562 213.867188 125.609375 213.316406 123.320312 C 213.128906 122.539062 212.472656 121.960938 211.675781 121.871094 C 207.679688 121.425781 199.542969 122.632812 197.351562 130.371094 C 197.15625 131.054688 197.359375 131.789062 197.875 132.273438 C 198.003906 132.398438 200.234375 134.445312 203.785156 134.445312 Z M 209.714844 125.621094 C 209.648438 126.867188 209.140625 128.648438 207.023438 129.753906 C 204.507812 131.070312 202.589844 130.648438 201.492188 130.136719 C 203.28125 126.382812 207.441406 125.699219 209.714844 125.621094 Z M 209.714844 125.621094 " fill-opacity="1" fill-rule="nonzero"/><g clip-path="url(#132d228b73)"><path fill="#a9a0f0" d="M 251.121094 100.003906 C 251.128906 99.972656 251.140625 99.945312 251.148438 99.917969 C 252.636719 95.378906 252.75 88.257812 244.832031 80.117188 C 234.203125 69.191406 220.988281 68.554688 212.164062 71.601562 C 203.226562 74.6875 197.125 81.726562 196.246094 89.964844 C 196.125 91.074219 196.085938 92.148438 196.109375 93.199219 C 195 93.152344 193.605469 93.183594 192.132812 93.453125 C 191.199219 91.792969 190.03125 90.277344 188.628906 88.960938 C 182.9375 83.628906 174.132812 80.632812 164.445312 80.746094 C 156.269531 80.839844 148.609375 83.191406 143.949219 86.953125 C 140.203125 84.605469 135.914062 82.886719 131.300781 81.988281 C 119.71875 79.734375 107.054688 83.53125 98.25 91.902344 C 90.054688 99.691406 86.242188 110.351562 87.785156 121.148438 C 89.113281 130.449219 94.605469 137.011719 103.667969 140.125 C 105.3125 140.6875 107.050781 141.113281 108.851562 141.417969 C 109.824219 143.765625 111.261719 145.730469 113.160156 147.3125 C 110.207031 150.585938 108.75 155.113281 109.21875 159.875 C 109.601562 163.808594 111.269531 167.292969 113.84375 169.773438 C 106.535156 172.433594 100.644531 176.832031 98.628906 181.53125 C 95.121094 181.226562 91.558594 181.273438 88.121094 181.617188 C 81.761719 171.945312 68.449219 168.734375 58.429688 169.90625 C 52.226562 170.628906 45.460938 173.605469 40.328125 177.867188 C 35.636719 181.765625 30.046875 188.632812 30.046875 199.226562 C 30.046875 211.066406 36.125 220.417969 46.304688 224.238281 C 49.324219 225.371094 52.484375 225.921875 55.679688 225.921875 C 64.445312 225.921875 73.457031 221.777344 80.5 214.210938 C 84.875 215.769531 89.152344 216.664062 92.050781 216.875 C 93.300781 216.960938 95.910156 217.117188 99.191406 217.117188 C 103.078125 217.117188 107.90625 216.902344 112.5 216.109375 C 114.046875 218.160156 117.972656 222.78125 124.34375 226.433594 C 128.90625 229.054688 135.277344 231.445312 143.328125 231.445312 C 148.585938 231.445312 154.5625 230.417969 161.21875 227.773438 C 163.785156 228.359375 166.554688 228.613281 169.375 228.613281 C 177.679688 228.613281 186.429688 226.40625 191.75 223.949219 C 202.25 219.105469 212.976562 206.019531 211.582031 194.992188 C 211.441406 193.902344 211.167969 192.738281 210.691406 191.570312 C 211.507812 188.066406 211.765625 185.039062 211.648438 182.429688 C 226.15625 180.402344 237.652344 174.050781 244.140625 164.417969 C 249.46875 156.515625 251.035156 147.046875 248.726562 136.921875 C 254.136719 136.164062 258.664062 134.480469 261.960938 132.425781 C 267.042969 129.265625 269.953125 124.925781 269.953125 120.523438 C 269.953125 107.367188 256.476562 101.726562 251.121094 100.003906 Z M 261.144531 109.859375 C 261.144531 111.367188 260.917969 115.035156 258.863281 117.933594 C 256.109375 117.84375 248.921875 118.191406 245.589844 123.800781 C 234.148438 124.722656 224.046875 121.121094 220.953125 119.871094 C 220.746094 118.132812 220.402344 116.457031 219.964844 114.902344 C 222.234375 115.242188 224.425781 115.394531 226.40625 115.394531 C 228.335938 115.394531 230.070312 115.257812 231.496094 115.015625 C 237.886719 113.945312 245.617188 109.960938 249.503906 103.496094 C 251.957031 104.257812 257.191406 106.207031 261.144531 109.859375 Z M 257.71875 121.742188 C 257.46875 123.023438 256.757812 124.699219 254.828125 125.511719 C 252.6875 126.414062 250.636719 125.71875 249.355469 125.039062 C 251.511719 122.339844 255.425781 121.808594 257.71875 121.742188 Z M 243.144531 94.035156 C 244.394531 90.863281 244.640625 87.910156 244.308594 85.320312 C 247.8125 89.863281 248.929688 94.453125 247.53125 98.734375 C 245.316406 105.496094 237.472656 110.152344 230.867188 111.261719 C 224.300781 112.359375 211.898438 110.941406 204.890625 104.339844 C 203.730469 103.246094 202.777344 102.054688 202.023438 100.765625 C 208.421875 104.976562 215.351562 106.742188 221.519531 106.742188 C 224.710938 106.742188 227.691406 106.269531 230.292969 105.425781 C 231.015625 105.617188 232.261719 105.871094 233.738281 105.871094 C 235.4375 105.871094 237.433594 105.53125 239.269531 104.363281 C 243.585938 101.617188 243.34375 95.871094 243.144531 94.035156 Z M 232.5 101.984375 C 233.703125 98.113281 237.210938 96.605469 239.425781 96.03125 C 239.390625 97.703125 238.992188 100.027344 237.222656 101.152344 C 235.667969 102.140625 233.804688 102.152344 232.5 101.984375 Z M 200.03125 90.371094 C 200.753906 83.613281 205.878906 77.800781 213.40625 75.203125 C 219.8125 72.988281 228.886719 73.023438 237.152344 78.613281 C 237.9375 79.410156 242.488281 84.457031 239.828125 92.039062 C 235.910156 92.695312 229.976562 95.351562 228.578125 101.976562 C 220.792969 104.269531 209.324219 102.800781 199.996094 94.40625 C 199.871094 93.121094 199.882812 91.777344 200.03125 90.371094 Z M 193.3125 112.289062 C 195.160156 107.109375 195.234375 101.738281 193.714844 97.070312 C 194.804688 96.953125 195.804688 96.980469 196.539062 97.039062 C 197.347656 100.894531 199.261719 104.269531 202.277344 107.113281 C 206.019531 110.636719 210.867188 112.816406 215.695312 114.050781 C 217.734375 119.636719 218.542969 127.820312 214.453125 133.847656 C 210.742188 139.320312 203.617188 142.121094 193.265625 142.222656 C 190.339844 136.03125 185.351562 130.65625 178.601562 128.191406 C 185.664062 124.683594 190.839844 119.210938 193.3125 112.289062 Z M 180.417969 203.484375 C 177.535156 204.957031 175.433594 207.480469 174.152344 210.980469 C 167.945312 213.082031 156.328125 213.5 151.980469 213.585938 C 151.554688 207.535156 154.109375 201.5 159.300781 196.425781 C 166.511719 189.375 177.324219 185.367188 188.304688 185.367188 C 190.941406 185.367188 193.589844 185.601562 196.199219 186.074219 C 199.011719 186.589844 201.316406 187.402344 203.121094 188.503906 C 202.148438 191.160156 199.046875 197.6875 190.984375 202.542969 C 189.105469 202.089844 184.570312 201.355469 180.417969 203.484375 Z M 189.289062 206.082031 C 189.101562 207.542969 188.472656 209.835938 186.417969 211.164062 C 182.863281 213.464844 179.625 212.472656 177.976562 211.648438 C 178.921875 209.421875 180.3125 207.820312 182.128906 206.886719 C 184.695312 205.5625 187.617188 205.78125 189.289062 206.082031 Z M 196.882812 182.328125 C 186.871094 180.503906 176.324219 182.011719 167.515625 186.210938 C 167.078125 185.585938 166.488281 184.835938 165.742188 184.042969 C 166.765625 180.125 169.515625 176.464844 173.585938 173.601562 C 174.679688 173.714844 175.777344 173.78125 176.875 173.78125 C 179.042969 173.78125 181.214844 173.554688 183.367188 173.09375 C 186.917969 172.335938 189.839844 170.597656 192 168.097656 C 197.628906 168.292969 202.183594 170.273438 204.890625 173.734375 C 207.421875 176.972656 208.347656 181.558594 207.632812 187.144531 C 205.398438 185.042969 202 183.261719 196.882812 182.328125 Z M 151.949219 148.925781 C 153.222656 153.515625 156.6875 157.804688 161.941406 161.207031 C 167.207031 164.621094 173.878906 166.878906 179.789062 167.246094 C 179.828125 167.25 179.867188 167.25 179.910156 167.25 C 180.90625 167.25 181.746094 166.472656 181.808594 165.464844 C 181.871094 164.417969 181.074219 163.511719 180.023438 163.445312 C 170.707031 162.863281 157.324219 156.445312 155.429688 147.15625 C 160.101562 144.328125 163.070312 140.40625 163.890625 135.683594 C 164.089844 134.535156 164.144531 133.386719 164.070312 132.253906 C 166.953125 131.945312 169.691406 131.40625 172.257812 130.652344 C 184.425781 131.753906 191.714844 143.265625 192.402344 153.628906 C 192.613281 156.785156 192.523438 167.242188 182.570312 169.371094 C 180.617188 169.789062 178.703125 169.980469 176.835938 169.980469 C 163.183594 169.980469 152.222656 159.566406 149.023438 150.007812 C 150.042969 149.679688 151.019531 149.320312 151.949219 148.925781 Z M 139.003906 148.09375 C 125.503906 149.308594 118.929688 146.828125 115.789062 144.535156 C 114.558594 143.632812 113.765625 142.707031 113.253906 141.902344 C 114.066406 141.945312 114.882812 141.976562 115.710938 141.976562 C 127.976562 141.972656 141.636719 137.082031 150.140625 128.882812 C 151.941406 127.144531 153.453125 125.300781 154.675781 123.375 C 158.710938 125.949219 160.921875 130.523438 160.140625 135.03125 C 158.90625 142.128906 151.007812 147.011719 139.003906 148.09375 Z M 151.714844 161.957031 C 152.890625 163.292969 154.179688 164.558594 155.566406 165.730469 C 151.824219 170.558594 145.574219 171.515625 143.621094 171.699219 C 143.3125 171.472656 143 171.253906 142.679688 171.042969 C 145.621094 169.433594 149.546875 166.558594 151.714844 161.957031 Z M 146 180.050781 C 146.355469 180.703125 146.691406 181.398438 146.988281 182.144531 C 149.367188 188.117188 147.882812 195.332031 143.015625 201.4375 C 139.136719 206.308594 132.378906 211 123.570312 212.242188 C 125.304688 210.667969 126.710938 208.917969 127.789062 206.992188 C 129.679688 206.101562 134.234375 203.699219 138.332031 199.476562 C 142.285156 195.402344 146.371094 188.980469 146 180.050781 Z M 147.125 174.988281 C 150.5 174.214844 155.273438 172.382812 158.605469 168.03125 C 161.773438 170.167969 165.160156 171.726562 168.65625 172.675781 C 165.84375 175.230469 163.773438 178.1875 162.601562 181.359375 C 159.542969 179.269531 155.1875 177.601562 149.257812 178.078125 C 148.632812 176.964844 147.917969 175.9375 147.125 174.988281 Z M 186.027344 91.742188 C 190.839844 96.253906 192.292969 103.816406 189.726562 111.007812 C 186.25 120.738281 176.4375 127.203125 163.324219 128.503906 C 162.871094 127.15625 162.226562 125.871094 161.414062 124.683594 C 166.703125 123.734375 176.355469 120.929688 180.925781 112.871094 C 182.144531 112.640625 184.074219 112.027344 185.570312 110.402344 C 186.988281 108.859375 187.652344 106.828125 187.53125 104.355469 C 187.339844 100.277344 184.703125 97.765625 183.292969 96.707031 C 182.871094 93.039062 181.949219 90.238281 180.867188 88.121094 C 182.738281 89.101562 184.484375 90.296875 186.027344 91.742188 Z M 179.777344 105.671875 C 179.851562 103.707031 180.558594 101.765625 181.691406 100.316406 C 182.5625 101.144531 183.632812 102.550781 183.730469 104.539062 C 183.882812 107.804688 181.871094 108.792969 180.523438 109.089844 C 179.996094 108.222656 179.730469 107.023438 179.777344 105.671875 Z M 173.648438 85.503906 C 174.125 85.738281 178.4375 88.089844 179.503906 97.046875 C 177.394531 99.210938 176.089844 102.304688 175.972656 105.53125 C 175.890625 107.769531 176.40625 109.765625 177.433594 111.304688 C 172.675781 119.191406 161.277344 120.953125 158.285156 121.285156 C 157.71875 120.824219 157.117188 120.394531 156.480469 120 C 158.699219 114.953125 159.050781 109.476562 157.417969 103.945312 C 155.730469 98.242188 152.105469 93.160156 147.21875 89.261719 C 153.035156 85.234375 163.941406 83.285156 173.648438 85.503906 Z M 100.871094 94.664062 C 107.292969 88.558594 115.972656 85.15625 124.566406 85.15625 C 126.582031 85.15625 128.597656 85.34375 130.574219 85.726562 C 141.378906 87.832031 150.183594 94.878906 153.378906 103.847656 C 152.316406 106.085938 147.871094 114.152344 137.332031 118.246094 C 131.050781 116.34375 119.183594 115.773438 113.980469 125.757812 C 101.910156 126.554688 93.625 121.375 91.457031 119.835938 C 90.375 110.542969 93.78125 101.40625 100.871094 94.664062 Z M 135.128906 121.609375 C 134.460938 123.652344 132.675781 127.082031 128.050781 128.175781 C 123.011719 129.371094 119.417969 127.949219 117.671875 126.953125 C 122.054688 119.460938 131.332031 120.71875 135.128906 121.609375 Z M 104.90625 136.519531 C 100.46875 134.996094 95.121094 131.789062 92.652344 125.042969 C 96.550781 127.128906 103 129.65625 111.40625 129.65625 C 112.453125 129.65625 113.535156 129.605469 114.636719 129.523438 C 116.003906 130.488281 119.363281 132.4375 124.292969 132.4375 C 125.710938 132.4375 127.257812 132.277344 128.925781 131.882812 C 136.265625 130.144531 138.453125 124.21875 139.0625 121.65625 C 147.128906 118.433594 151.941406 113.214844 154.558594 109.394531 C 154.984375 115.433594 152.558594 121.257812 147.496094 126.140625 C 136.949219 136.308594 117.84375 140.964844 104.90625 136.519531 Z M 113.007812 159.5 C 112.621094 155.558594 113.910156 151.855469 116.480469 149.347656 C 120.46875 151.261719 125.730469 152.226562 132.226562 152.226562 C 134.457031 152.226562 136.828125 152.113281 139.347656 151.886719 C 141.457031 151.695312 143.457031 151.394531 145.339844 150.988281 C 146.15625 153.53125 147.398438 156.046875 148.996094 158.421875 C 147.097656 164.960938 140.386719 168.070312 138.347656 168.875 C 134.582031 167.472656 130.183594 166.914062 125.292969 167.285156 C 122.917969 167.464844 120.5625 167.855469 118.285156 168.421875 C 115.34375 166.65625 113.386719 163.375 113.007812 159.5 Z M 125.582031 171.082031 C 129.8125 170.761719 136.324219 171.046875 141.367188 174.734375 C 145.488281 190.921875 133.554688 199.554688 128.058594 202.589844 C 127.90625 201.652344 127.628906 200.648438 127.171875 199.558594 C 123.269531 190.214844 114.597656 184.050781 102.613281 182.035156 C 105.6875 176.78125 115.734375 171.828125 125.582031 171.082031 Z M 93.863281 185.128906 C 95.8125 185.128906 97.796875 185.238281 99.785156 185.476562 C 106.613281 186.285156 118.796875 189.382812 123.660156 201.027344 C 123.804688 201.378906 123.925781 201.714844 124.027344 202.046875 C 120.980469 200.601562 115.609375 198.84375 106.585938 197.90625 C 101.558594 194.011719 91.296875 192.003906 85.675781 196.632812 C 78.359375 195.714844 70.761719 196.828125 67.132812 197.515625 C 67.25 196.09375 67.863281 194.640625 68.972656 193.128906 C 72.050781 188.921875 82.390625 185.128906 93.863281 185.128906 Z M 102.449219 199.78125 C 100.863281 200.625 98.394531 201.484375 95.199219 201.222656 C 92.320312 200.988281 90.332031 199.820312 89.15625 198.859375 C 92.773438 196.917969 98.625 197.796875 102.449219 199.78125 Z M 37.644531 212.753906 C 35.191406 209.035156 33.855469 204.414062 33.855469 199.226562 C 33.855469 182.132812 50.710938 174.640625 58.871094 173.6875 C 64.921875 172.980469 77.242188 174.015625 83.851562 182.214844 C 75.769531 183.664062 68.894531 186.785156 65.898438 190.878906 C 62.382812 195.679688 63.078125 199.777344 64.277344 202.371094 C 64.949219 203.8125 65.925781 205.152344 67.125 206.386719 C 63.1875 208.730469 53.160156 213.492188 37.644531 212.753906 Z M 47.640625 220.671875 C 45.109375 219.722656 42.878906 218.355469 40.984375 216.648438 C 57.011719 216.640625 66.855469 211.183594 70.167969 208.988281 C 72.132812 210.40625 74.371094 211.636719 76.691406 212.679688 C 68.25 221.078125 57.089844 224.21875 47.640625 220.671875 Z M 92.324219 213.074219 C 84.542969 212.515625 71.457031 207.660156 67.976562 201.238281 C 71.445312 200.597656 78.613281 199.570312 85.300781 200.421875 C 86.503906 201.761719 89.625 204.589844 94.890625 205.015625 C 99.0625 205.273438 102.988281 204.066406 106.429688 201.71875 C 117.214844 202.867188 122.164062 205.226562 123.960938 206.335938 C 123.824219 206.640625 123.667969 206.9375 123.464844 207.21875 C 119.644531 212.535156 105.074219 213.992188 92.324219 213.074219 Z M 123.382812 221.304688 C 120.96875 219.59375 119.0625 217.808594 117.679688 216.332031 C 118.089844 216.34375 118.5 216.355469 118.910156 216.355469 C 129.59375 216.355469 139.621094 211.808594 145.992188 203.8125 C 151.445312 196.972656 153.234375 188.835938 150.90625 181.808594 C 158.460938 181.671875 162.488281 185.710938 164.15625 187.996094 C 161.398438 189.621094 158.863281 191.527344 156.636719 193.703125 C 150.386719 199.816406 147.441406 207.230469 148.257812 214.699219 C 145.578125 216.761719 135.914062 223.296875 123.382812 221.304688 Z M 130.949219 225.390625 C 139.429688 224.707031 145.917969 221.027344 149.199219 218.742188 C 150.363281 221.6875 152.535156 224.066406 155.601562 225.722656 C 146.738281 228.4375 138.480469 228.324219 130.949219 225.390625 Z M 190.152344 220.492188 C 182 224.253906 166.101562 227.011719 157.460938 222.402344 C 155.140625 221.164062 153.582031 219.507812 152.742188 217.378906 C 157.699219 217.269531 168.886719 216.773438 175.386719 214.578125 C 176.902344 215.5 179.199219 216.378906 181.84375 216.378906 C 183.917969 216.378906 186.199219 215.839844 188.484375 214.363281 C 192.28125 211.902344 193.023438 207.746094 193.148438 205.683594 C 200.914062 200.945312 204.5625 194.820312 206.140625 191.207031 C 207.039062 192.4375 207.597656 193.855469 207.804688 195.46875 C 208.839844 203.667969 200.265625 215.828125 190.152344 220.492188 Z M 240.980469 162.292969 C 235.113281 171 224.570312 176.769531 211.175781 178.652344 C 210.488281 175.425781 209.195312 173.0625 207.890625 171.386719 C 204.859375 167.511719 200.125 165.113281 194.355469 164.457031 C 195.824219 161.363281 196.484375 157.601562 196.203125 153.375 C 196.039062 150.9375 195.550781 148.441406 194.757812 146.007812 C 205.65625 145.640625 213.335938 142.277344 217.605469 135.984375 C 218.433594 134.769531 219.09375 133.484375 219.609375 132.160156 C 223.082031 133.730469 226.46875 134.894531 229.734375 135.722656 C 228.792969 141.175781 231.296875 145.273438 233.441406 147.332031 C 229.835938 163.164062 212.539062 168.039062 212.363281 168.089844 C 211.347656 168.359375 210.746094 169.40625 211.015625 170.421875 C 211.246094 171.269531 212.015625 171.832031 212.855469 171.832031 C 213.019531 171.832031 213.183594 171.808594 213.351562 171.765625 C 214.175781 171.542969 233.28125 166.21875 237.230469 147.878906 C 238.898438 146.839844 241.871094 144.058594 242.167969 137.351562 L 244.894531 137.289062 C 247.121094 146.546875 245.785156 155.164062 240.980469 162.292969 Z M 233.460938 136.53125 C 235.132812 136.835938 236.769531 137.050781 238.359375 137.183594 C 238.179688 141.464844 236.738281 143.421875 235.777344 144.257812 C 234.632812 143.027344 232.847656 140.414062 233.460938 136.53125 Z M 259.949219 129.195312 C 252.441406 133.867188 237.757812 136.371094 220.679688 128.460938 C 220.972656 126.996094 221.121094 125.511719 221.15625 124.039062 C 225.078125 125.476562 232.734375 127.765625 241.75 127.765625 C 243.207031 127.765625 244.703125 127.703125 246.222656 127.570312 C 247.351562 128.359375 249.761719 129.753906 252.710938 129.753906 C 253.84375 129.753906 255.058594 129.546875 256.304688 129.019531 C 261.019531 127.035156 261.617188 122.445312 261.65625 120.554688 C 263.25 118.484375 264.085938 116.140625 264.515625 114.097656 C 265.523438 115.953125 266.144531 118.085938 266.144531 120.523438 C 266.144531 123.582031 263.886719 126.742188 259.949219 129.195312 Z M 259.949219 129.195312 " fill-opacity="1" fill-rule="nonzero"/></g></svg>