<svg xmlns="http://www.w3.org/2000/svg" xmlns:xlink="http://www.w3.org/1999/xlink" width="400" zoomAndPan="magnify" viewBox="0 0 300 299.999988" height="400" preserveAspectRatio="xMidYMid meet" version="1.0"><path fill="#a9a0f0" d="M 200.617188 168 C 198.335938 164.992188 196.476562 164.542969 195.074219 166.695312 C 194.742188 166.988281 194.421875 167.296875 194.113281 167.605469 C 192.617188 169.007812 190.6875 170.109375 188.714844 171.089844 C 187.242188 172.277344 185.710938 173.355469 184.082031 174.289062 C 181.984375 175.484375 179.835938 176.378906 177.652344 177.117188 C 177.207031 180.585938 178.601562 181.84375 181.902344 180.824219 C 183.117188 180.503906 184.265625 180.039062 185.355469 179.382812 C 186.617188 178.628906 187.859375 177.84375 189.046875 176.933594 C 191.445312 175.089844 193.734375 173.101562 196.238281 171.382812 C 197.734375 170.363281 199.453125 169.386719 200.617188 168 Z M 247.511719 205.378906 C 256.617188 196.21875 265.535156 183.5625 262.738281 169.855469 C 260.707031 159.957031 255.242188 149.984375 246.394531 145.875 C 245.882812 145.789062 245.367188 145.703125 244.835938 145.621094 C 241.96875 145.355469 238.753906 145.664062 235.492188 146.558594 C 228.933594 148.417969 223.535156 151.871094 219.820312 154.5 C 216.152344 157.144531 213.96875 159.132812 213.660156 158.808594 C 213.414062 158.546875 214.980469 156.125 218.535156 152.898438 C 221.832031 149.960938 226.867188 146.335938 233.359375 144.207031 C 221.441406 145.773438 210.222656 152.472656 201.035156 159.910156 C 200.503906 160.351562 199.96875 160.820312 199.4375 161.285156 C 200.433594 161.285156 201.441406 161.539062 202.53125 162.140625 C 207.523438 164.90625 201.90625 170.589844 199.382812 172.347656 C 194.210938 175.914062 187.738281 183.4375 181.007812 183.578125 C 176.699219 183.664062 173.976562 181.394531 174.324219 178.113281 C 171.902344 178.769531 169.429688 179.300781 166.867188 179.871094 C 154.265625 184.316406 136.996094 194.847656 136.757812 210.203125 C 136.464844 228.320312 157.109375 239.714844 173.207031 240.363281 C 188.753906 241 201.890625 235.519531 215.203125 228.167969 C 218.292969 226.46875 221.386719 224.683594 224.445312 222.847656 C 220.644531 224.597656 216.667969 226.386719 212.503906 228.289062 C 206.445312 231.074219 200.363281 233 194.714844 234.265625 C 191.859375 234.78125 189.179688 235.328125 186.601562 235.503906 C 185.316406 235.605469 184.097656 235.796875 182.894531 235.796875 C 181.707031 235.8125 180.558594 235.828125 179.472656 235.84375 C 177.296875 235.953125 175.300781 235.675781 173.582031 235.558594 C 171.832031 235.464844 170.390625 235.195312 169.203125 234.957031 C 166.851562 234.503906 165.566406 234.164062 165.566406 233.957031 C 165.582031 233.753906 166.9375 233.730469 169.34375 233.839844 C 170.546875 233.910156 172.019531 234.007812 173.707031 233.941406 C 175.386719 233.910156 177.296875 234.023438 179.425781 233.800781 C 180.476562 233.730469 181.585938 233.648438 182.742188 233.578125 C 183.890625 233.507812 185.078125 233.253906 186.308594 233.117188 C 188.800781 232.835938 191.398438 232.222656 194.128906 231.660156 C 199.554688 230.300781 205.414062 228.359375 211.300781 225.660156 C 217.285156 222.976562 222.980469 220.417969 228.167969 218.105469 C 230.699219 216.863281 233.15625 215.769531 235.300781 214.5 C 236.378906 213.882812 237.480469 213.363281 238.445312 212.726562 C 239.410156 212.109375 240.351562 211.492188 241.230469 210.921875 C 241.484375 210.765625 241.707031 210.613281 241.953125 210.457031 C 243.855469 208.824219 245.746094 207.160156 247.511719 205.378906 Z M 251.605469 142.644531 C 263.042969 150.222656 270 165.785156 267.957031 179.421875 C 265.671875 194.601562 254.882812 206.890625 243.148438 216.0625 C 218.933594 235.019531 180.097656 258.160156 149.878906 238.527344 C 137.960938 230.765625 127.066406 217.464844 133.203125 202.417969 C 138.816406 188.644531 151.234375 180.070312 164.839844 175.144531 C 165.027344 175.042969 165.234375 174.953125 165.496094 174.90625 C 165.734375 174.820312 165.945312 174.78125 166.167969 174.765625 C 171.347656 173.648438 177.050781 172.925781 181.484375 169.832031 C 186.726562 166.195312 190.914062 161.523438 195.847656 157.523438 C 201.734375 152.742188 207.972656 148.210938 214.824219 144.894531 C 225.765625 139.605469 240.457031 135.242188 251.605469 142.644531 " fill-opacity="1" fill-rule="nonzero"/><path fill="#a9a0f0" d="M 147.304688 123.527344 C 149.863281 121.582031 150.117188 119.800781 148.027344 118.152344 C 147.148438 117.375 146.199219 116.742188 145.175781 116.226562 C 143.195312 115.261719 141.152344 114.507812 139.0625 113.859375 C 136.378906 113.019531 133.710938 112.15625 131.089844 111.160156 C 130.242188 110.835938 129.402344 110.519531 128.546875 110.265625 C 126.210938 109.1875 125.417969 110.644531 126.195312 114.660156 C 127.5 114.953125 129.011719 115.023438 130.265625 115.484375 C 132.410156 116.292969 134.453125 117.273438 136.464844 118.320312 C 137.960938 118.785156 139.457031 119.269531 140.914062 119.816406 C 143.25 120.726562 145.34375 122.015625 147.304688 123.527344 Z M 188.460938 141.886719 C 202.375 140.03125 208.921875 128.027344 208.589844 114.730469 C 207.765625 81.425781 173.84375 63.679688 146.085938 54.183594 C 133.652344 49.945312 118.84375 46.027344 105.875 50.285156 C 92.046875 54.855469 77.628906 71.976562 83.40625 87.332031 C 88.632812 101.230469 104.394531 109.03125 117.695312 113.328125 C 119.050781 113.75 120.421875 114.152344 121.808594 114.53125 C 121.261719 113.566406 121.023438 112.449219 121.054688 111.316406 C 119.960938 111.214844 118.925781 110.992188 117.949219 110.699219 C 116.28125 110.195312 114.734375 109.542969 113.277344 108.878906 C 110.371094 107.484375 107.78125 105.957031 105.304688 104.5625 C 104.070312 103.859375 102.871094 103.191406 101.714844 102.621094 C 100.480469 102.042969 99.261719 101.484375 98.089844 100.839844 C 95.753906 99.566406 93.59375 98.125 91.875 96.335938 C 90.1875 94.53125 88.855469 92.574219 87.992188 90.578125 C 87.460938 89.621094 87.273438 88.574219 86.910156 87.609375 C 86.597656 86.644531 86.273438 85.722656 86.1875 84.757812 C 86.046875 83.816406 85.894531 82.898438 85.777344 82.011719 C 85.777344 81.117188 85.792969 80.242188 85.808594 79.414062 C 85.808594 78.984375 85.808594 78.574219 85.824219 78.183594 C 85.910156 77.78125 85.980469 77.386719 86.046875 77.011719 C 86.1875 76.238281 86.324219 75.5 86.464844 74.796875 C 87.976562 69.195312 90.773438 66.1875 92.269531 64.296875 C 93.988281 62.53125 94.789062 61.847656 94.929688 61.984375 C 95.050781 62.101562 94.496094 63.011719 93.054688 64.9375 C 91.839844 66.941406 89.402344 70.003906 88.230469 75.222656 C 88.144531 75.878906 88.046875 76.5625 87.9375 77.273438 C 87.890625 77.628906 87.835938 77.972656 87.78125 78.351562 C 87.769531 78.714844 87.78125 79.089844 87.796875 79.46875 C 87.796875 80.242188 87.820312 81.011719 87.835938 81.835938 C 87.976562 82.644531 88.128906 83.46875 88.285156 84.324219 C 88.382812 85.203125 88.691406 86.058594 89.023438 86.9375 C 89.363281 87.804688 89.554688 88.78125 90.050781 89.621094 C 90.859375 91.402344 92.0625 93.089844 93.558594 94.671875 C 95.097656 96.199219 97.042969 97.484375 99.261719 98.65625 C 100.339844 99.257812 101.542969 99.789062 102.761719 100.351562 C 104.070312 100.976562 105.289062 101.664062 106.546875 102.347656 C 109.050781 103.761719 111.609375 105.234375 114.378906 106.535156 C 116.675781 107.582031 119.203125 108.617188 121.710938 108.785156 C 123.976562 105.386719 131.277344 108.546875 133.835938 109.480469 C 139.179688 111.382812 147.320312 112.394531 150.84375 117.429688 C 152.058594 119.148438 152.546875 120.828125 152.421875 122.292969 L 152.578125 122.222656 C 153.46875 124.164062 154.964844 125.761719 156.578125 127.0625 C 158.210938 128.375 159.976562 129.398438 161.710938 130.277344 C 165.234375 131.996094 168.632812 133.132812 171.75 133.933594 C 174.871094 134.796875 177.691406 135.136719 180.183594 135.328125 C 182.65625 135.359375 184.839844 135.226562 186.617188 134.710938 C 187.511719 134.472656 188.351562 134.28125 189.0625 133.902344 C 189.75 133.539062 190.464844 133.332031 191.003906 132.953125 C 191.550781 132.574219 192.046875 132.253906 192.5 131.960938 C 192.714844 131.804688 192.925781 131.667969 193.132812 131.535156 C 193.300781 131.375 193.457031 131.21875 193.609375 131.089844 C 194.851562 129.953125 195.484375 129.507812 195.621094 129.609375 C 195.761719 129.707031 195.398438 130.363281 194.320312 131.789062 C 194.179688 131.960938 194.042969 132.152344 193.886719 132.351562 C 193.695312 132.53125 193.496094 132.714844 193.285156 132.90625 C 192.839844 133.285156 192.339844 133.695312 191.792969 134.15625 C 191.242188 134.625 190.503906 134.933594 189.75 135.382812 C 189.007812 135.859375 188.097656 136.136719 187.121094 136.460938 C 185.175781 137.148438 182.8125 137.425781 180.128906 137.472656 C 177.453125 137.371094 174.421875 137.0625 171.179688 136.253906 C 167.917969 135.46875 164.363281 134.347656 160.601562 132.546875 C 158.726562 131.621094 156.800781 130.519531 154.964844 129.0625 C 153.609375 127.972656 152.253906 126.65625 151.164062 125.003906 C 150.855469 125.3125 150.496094 125.589844 150.070312 125.832031 C 151.992188 127.550781 153.808594 129.367188 155.667969 131.105469 C 164.894531 137.855469 176.726562 143.46875 188.460938 141.886719 Z M 153.761719 51.609375 C 183.289062 63.695312 221.316406 86.03125 212.882812 124.195312 C 206.207031 154.515625 172.378906 149.84375 152.660156 135.273438 C 152.644531 135.257812 152.644531 135.242188 152.628906 135.226562 C 152.453125 135.121094 152.304688 135.019531 152.144531 134.867188 C 147.511719 130.519531 143.195312 125.746094 136.910156 123.789062 C 131.554688 122.113281 126.003906 121.257812 120.644531 119.648438 C 112.503906 117.1875 104.226562 114.113281 97.011719 109.527344 C 85.554688 102.226562 74.4375 90.460938 77.613281 75.652344 C 80.84375 60.605469 92.746094 47.023438 108.3125 44.394531 C 123.769531 41.78125 139.472656 45.75 153.761719 51.609375 " fill-opacity="1" fill-rule="nonzero"/><path fill="#a9a0f0" d="M 156.339844 192.734375 C 156.507812 193.160156 154.378906 194.222656 151.992188 197.03125 C 149.625 199.789062 146.886719 204.277344 145.738281 209.71875 C 145.191406 212.433594 145.089844 215.085938 145.46875 217.382812 C 145.847656 219.703125 146.703125 221.644531 147.734375 223.085938 C 149.808594 226.007812 152.058594 227.085938 151.820312 227.519531 C 151.75 227.789062 149.078125 227.425781 146.140625 224.375 C 144.714844 222.863281 143.441406 220.613281 142.855469 217.914062 C 142.238281 215.214844 142.285156 212.164062 142.910156 209.140625 C 144.210938 203.019531 147.527344 198.246094 150.550781 195.582031 C 152.058594 194.222656 153.5 193.421875 154.574219 193.007812 C 155.636719 192.597656 156.238281 192.582031 156.339844 192.734375 " fill-opacity="1" fill-rule="nonzero"/><path fill="#a9a0f0" d="M 57.503906 198.640625 C 61.011719 199.242188 62.566406 198.09375 62.144531 195.15625 C 62.003906 193.800781 61.710938 192.457031 61.25 191.171875 C 60.523438 189.265625 59.714844 187.464844 58.789062 185.636719 C 57.449219 183.007812 56.261719 180.347656 55.042969 177.664062 C 54.71875 176.910156 54.355469 176.175781 53.980469 175.46875 C 52.507812 172.292969 51.25 173.324219 50.203125 178.582031 C 51.113281 179.902344 51.78125 181.050781 52.414062 182.53125 C 53.039062 183.941406 53.515625 185.414062 53.949219 186.910156 C 54.257812 187.578125 54.582031 188.234375 54.859375 188.921875 C 56.285156 192.234375 57.054688 195.410156 57.503906 198.640625 Z M 119.628906 212.039062 C 122.28125 197.421875 118.910156 183.703125 114.441406 169.832031 C 110.703125 158.191406 106.230469 146.460938 99.484375 136.167969 C 92.632812 125.707031 82.464844 114.785156 69.027344 114.152344 C 56.421875 113.566406 40.859375 118.5625 37.574219 132.304688 C 34.621094 144.640625 38.660156 158.054688 43.980469 169.199219 C 44.761719 170.835938 45.617188 172.414062 46.523438 173.972656 C 46.679688 173.1875 47.042969 172.429688 47.660156 171.8125 C 52.300781 167.1875 56.144531 173.71875 57.726562 177.449219 C 60.117188 183.101562 65.8125 190.347656 64.648438 196.851562 C 63.878906 201.183594 61.054688 203.328125 57.878906 202.28125 C 58.074219 204.777344 58.121094 207.351562 58.15625 210.066406 C 60.214844 224.097656 68.242188 245.828125 85.402344 246.257812 C 103.417969 246.707031 116.714844 228.21875 119.628906 212.039062 Z M 106.917969 138.660156 C 121.164062 164.753906 135.917969 205.101562 116.882812 232.304688 C 107.972656 245.070312 93.007812 255.617188 77.082031 249.503906 C 61.988281 243.675781 54.34375 225.539062 52.621094 210.820312 L 52.621094 210.804688 C 52.621094 210.597656 52.777344 210.375 52.761719 210.136719 C 52.636719 201.492188 52.316406 194.164062 47.742188 186.515625 C 45.183594 182.238281 42.507812 178.042969 40.359375 173.546875 C 37.234375 167.003906 34.414062 160.179688 32.917969 153.074219 C 30.519531 141.632812 30.207031 127.371094 39.585938 118.714844 C 49.324219 109.71875 65.8125 106.042969 78.355469 110.921875 C 91.253906 115.933594 100.410156 126.742188 106.917969 138.660156 " fill-opacity="1" fill-rule="nonzero"/><path fill="#a9a0f0" d="M 117.695312 196.429688 C 117.863281 198.140625 117.808594 199.984375 117.808594 201.871094 C 117.640625 203.761719 117.570312 205.855469 117.125 207.730469 C 117.039062 208.207031 116.953125 208.671875 116.84375 209.15625 C 116.800781 209.425781 116.800781 209.535156 116.691406 209.941406 L 116.46875 210.667969 C 116.160156 211.59375 115.90625 212.554688 115.527344 213.433594 C 115.164062 214.304688 114.839844 215.167969 114.480469 216.007812 C 114.085938 216.820312 113.707031 217.621094 113.332031 218.398438 C 111.765625 221.46875 110.132812 224.132812 108.535156 226.207031 C 107.007812 228.289062 105.375 229.902344 104.257812 230.765625 C 103.070312 231.589844 102.351562 231.964844 102.230469 231.8125 C 102.089844 231.660156 102.5625 230.988281 103.515625 229.902344 C 104.410156 228.765625 105.542969 227.242188 106.832031 225.058594 C 108.15625 222.933594 109.546875 220.265625 110.925781 217.242188 C 111.25 216.488281 111.597656 215.714844 111.933594 214.90625 C 112.226562 214.105469 112.550781 213.28125 112.859375 212.457031 C 113.207031 211.609375 113.414062 210.738281 113.683594 209.871094 L 113.894531 209.226562 C 113.910156 209.171875 113.976562 208.792969 114.015625 208.601562 C 114.101562 208.136719 114.1875 207.660156 114.285156 207.183594 C 114.734375 205.222656 114.773438 203.480469 114.972656 201.71875 C 115.011719 199.929688 115.132812 198.210938 115.027344 196.542969 C 114.996094 193.230469 114.648438 190.246094 114.394531 187.71875 C 113.824219 182.667969 113.398438 179.507812 113.824219 179.421875 C 114.1875 179.339844 115.320312 182.320312 116.421875 187.394531 C 116.9375 189.914062 117.5 192.976562 117.695312 196.429688 " fill-opacity="1" fill-rule="nonzero"/><path fill="#a9a0f0" d="M 96.203125 142.082031 C 98.898438 146.867188 99.910156 151.230469 99.207031 151.507812 C 98.421875 151.816406 96.269531 148.09375 93.695312 143.539062 C 91.082031 139.105469 88.855469 135.226562 89.554688 134.757812 C 90.171875 134.347656 93.347656 137.285156 96.203125 142.082031 " fill-opacity="1" fill-rule="nonzero"/><path fill="#a9a0f0" d="M 93.640625 238.042969 C 93.726562 238.21875 93.316406 238.597656 92.453125 239.128906 C 92.03125 239.382812 91.515625 239.730469 90.804688 239.914062 C 90.117188 240.105469 89.347656 240.484375 88.421875 240.539062 C 87.511719 240.65625 86.496094 240.777344 85.417969 240.640625 C 84.3125 240.625 83.195312 240.300781 82.015625 240.007812 C 79.695312 239.25 77.320312 237.980469 75.179688 236.222656 C 73.042969 234.457031 71.378906 232.429688 70.058594 230.472656 C 68.804688 228.460938 67.839844 226.554688 67.324219 224.835938 C 66.214844 221.351562 66.46875 219.199219 66.800781 219.15625 C 67.238281 219.03125 67.777344 221.210938 69.234375 224.066406 C 69.921875 225.539062 71 227.1875 72.242188 228.945312 C 73.558594 230.640625 75.125 232.414062 77.015625 233.992188 C 78.917969 235.535156 80.929688 236.707031 82.871094 237.480469 C 83.851562 237.773438 84.800781 238.148438 85.710938 238.25 C 86.617188 238.472656 87.476562 238.472656 88.269531 238.496094 C 89.070312 238.582031 89.765625 238.371094 90.410156 238.355469 C 91.066406 238.320312 91.597656 238.164062 92.0625 238.078125 C 92.972656 237.894531 93.542969 237.855469 93.640625 238.042969 " fill-opacity="1" fill-rule="nonzero"/><path fill="#a9a0f0" d="M 81.054688 123.269531 C 84.296875 126.191406 85.109375 128.851562 84.832031 128.976562 C 84.398438 129.230469 82.996094 127.078125 79.796875 124.882812 C 79.386719 124.613281 78.972656 124.335938 78.523438 124.027344 C 78.0625 123.789062 77.5625 123.542969 77.066406 123.285156 C 76.089844 122.699219 74.886719 122.390625 73.714844 121.890625 C 71.246094 121.160156 68.464844 120.628906 65.488281 120.503906 C 62.519531 120.449219 59.714844 120.851562 57.210938 121.453125 C 55.992188 121.84375 54.789062 122.113281 53.769531 122.632812 C 53.238281 122.855469 52.730469 123.046875 52.246094 123.285156 C 51.78125 123.542969 51.335938 123.789062 50.925781 124.027344 C 47.628906 125.914062 45.871094 128.027344 45.546875 127.679688 C 45.324219 127.480469 46.269531 125.050781 49.769531 122.324219 C 50.21875 122.015625 50.664062 121.675781 51.152344 121.328125 C 51.644531 121.019531 52.191406 120.757812 52.746094 120.449219 C 53.839844 119.800781 55.128906 119.386719 56.46875 118.894531 C 59.183594 118.066406 62.296875 117.535156 65.574219 117.621094 C 68.859375 117.738281 71.933594 118.40625 74.609375 119.371094 C 75.894531 119.988281 77.167969 120.433594 78.214844 121.175781 C 78.75 121.515625 79.265625 121.84375 79.765625 122.167969 C 80.214844 122.546875 80.636719 122.910156 81.054688 123.269531 " fill-opacity="1" fill-rule="nonzero"/></svg>