<svg xmlns="http://www.w3.org/2000/svg" xmlns:xlink="http://www.w3.org/1999/xlink" width="400" zoomAndPan="magnify" viewBox="0 0 300 299.999988" height="400" preserveAspectRatio="xMidYMid meet" version="1.0"><defs><clipPath id="ca0fcfff40"><path d="M 37.351562 141 L 190 141 L 190 270 L 37.351562 270 Z M 37.351562 141 " clip-rule="nonzero"/></clipPath><clipPath id="ffa077003c"><path d="M 196 30 L 262.351562 30 L 262.351562 270 L 196 270 Z M 196 30 " clip-rule="nonzero"/></clipPath></defs><path fill="#a9a0f0" d="M 227.007812 117.007812 L 231.871094 117.007812 L 231.871094 121.867188 L 227.007812 121.867188 Z M 227.007812 117.007812 " fill-opacity="1" fill-rule="nonzero"/><path fill="#a9a0f0" d="M 227.007812 102.933594 L 231.871094 102.933594 L 231.871094 107.792969 L 227.007812 107.792969 Z M 227.007812 102.933594 " fill-opacity="1" fill-rule="nonzero"/><path fill="#a9a0f0" d="M 227.007812 215.285156 L 231.871094 215.285156 L 231.871094 220.144531 L 227.007812 220.144531 Z M 227.007812 215.285156 " fill-opacity="1" fill-rule="nonzero"/><path fill="#a9a0f0" d="M 227.007812 201.210938 L 231.871094 201.210938 L 231.871094 206.070312 L 227.007812 206.070312 Z M 227.007812 201.210938 " fill-opacity="1" fill-rule="nonzero"/><g clip-path="url(#ca0fcfff40)"><path fill="#a9a0f0" d="M 189.386719 173.753906 C 189.386719 167.953125 185.144531 163.128906 179.605469 162.203125 C 180.996094 160.242188 181.757812 157.90625 181.757812 155.449219 C 181.757812 148.992188 176.5 143.734375 170.042969 143.734375 L 157.335938 143.734375 L 157.335938 148.855469 L 170.042969 148.855469 C 173.679688 148.855469 176.640625 151.8125 176.640625 155.449219 C 176.640625 157.214844 175.953125 158.867188 174.703125 160.113281 C 173.460938 161.355469 171.804688 162.039062 170.042969 162.039062 L 170.042969 167.160156 L 177.671875 167.160156 C 181.308594 167.160156 184.265625 170.117188 184.265625 173.753906 C 184.265625 175.511719 183.582031 177.164062 182.332031 178.414062 C 181.085938 179.660156 179.429688 180.347656 177.671875 180.347656 L 172.15625 180.347656 L 172.15625 185.464844 L 177.671875 185.464844 C 181.308594 185.464844 184.269531 188.421875 184.269531 192.054688 C 184.269531 193.816406 183.582031 195.46875 182.332031 196.722656 C 181.089844 197.964844 179.433594 198.652344 177.671875 198.652344 L 170.042969 198.652344 L 170.042969 203.769531 C 173.679688 203.769531 176.640625 206.726562 176.640625 210.359375 C 176.640625 212.125 175.953125 213.777344 174.707031 215.023438 C 173.460938 216.269531 171.804688 216.957031 170.042969 216.957031 L 144.625 216.957031 C 140.988281 216.957031 138.03125 213.996094 138.03125 210.359375 C 138.03125 206.726562 140.988281 203.769531 144.625 203.769531 L 161.460938 203.769531 L 161.460938 198.648438 L 144.625 198.648438 C 140.988281 198.648438 138.03125 195.691406 138.03125 192.054688 C 138.03125 190.382812 138.652344 188.824219 139.730469 187.636719 C 141.675781 188.617188 143.871094 189.175781 146.195312 189.175781 C 148.800781 189.175781 151.054688 187.65625 152.136719 185.464844 L 166.183594 185.464844 L 166.183594 180.34375 L 152.820312 180.34375 L 152.820312 167.15625 L 161.503906 167.15625 L 161.503906 162.039062 L 152.820312 162.039062 L 152.820312 156.6875 C 152.820312 148.304688 146 141.484375 137.617188 141.484375 L 115.808594 141.484375 C 104.964844 141.484375 94.5 146.027344 87.09375 153.953125 C 79.472656 162.109375 68.933594 166.785156 58.183594 166.785156 L 37.34375 166.785156 L 37.34375 171.90625 L 58.183594 171.90625 C 70.347656 171.90625 82.246094 166.636719 90.835938 157.445312 C 97.277344 150.554688 106.378906 146.601562 115.804688 146.601562 L 137.613281 146.601562 C 143.175781 146.601562 147.703125 151.125 147.703125 156.6875 L 147.703125 182.546875 C 147.703125 183.378906 147.027344 184.058594 146.191406 184.058594 C 141.078125 184.058594 136.917969 179.898438 136.917969 174.78125 L 136.917969 155.5625 L 131.800781 155.5625 L 131.800781 174.78125 C 131.800781 178.546875 133.253906 181.976562 135.628906 184.542969 C 133.898438 186.605469 132.914062 189.242188 132.914062 192.054688 C 132.914062 195.757812 134.640625 199.058594 137.328125 201.207031 C 134.640625 203.355469 132.914062 206.660156 132.914062 210.359375 C 132.914062 215.359375 136.0625 219.636719 140.480469 221.316406 L 140.480469 224.28125 L 98.921875 224.28125 C 95.15625 224.28125 91.574219 223.089844 88.566406 220.839844 C 82.914062 216.601562 76.375 214.363281 69.652344 214.363281 L 37.34375 214.363281 L 37.34375 219.480469 L 69.652344 219.480469 C 75.257812 219.480469 80.738281 221.367188 85.5 224.9375 C 89.398438 227.855469 94.042969 229.398438 98.921875 229.398438 L 140.480469 229.398438 L 140.480469 269.964844 L 156.3125 269.964844 L 156.3125 222.074219 L 170.042969 222.074219 C 173.171875 222.074219 176.109375 220.855469 178.320312 218.644531 C 180.535156 216.4375 181.757812 213.492188 181.757812 210.359375 C 181.757812 207.84375 180.957031 205.511719 179.597656 203.597656 C 181.996094 203.203125 184.207031 202.085938 185.953125 200.335938 C 188.164062 198.121094 189.386719 195.179688 189.386719 192.054688 C 189.386719 188.355469 187.65625 185.050781 184.964844 182.90625 C 185.308594 182.632812 185.636719 182.34375 185.953125 182.03125 C 188.164062 179.816406 189.386719 176.878906 189.386719 173.753906 Z M 151.195312 264.847656 L 145.601562 264.847656 L 145.601562 258.707031 L 151.195312 258.707031 Z M 151.195312 253.585938 L 145.601562 253.585938 L 145.601562 222.074219 L 151.195312 222.074219 Z M 151.195312 253.585938 " fill-opacity="1" fill-rule="nonzero"/></g><path fill="#a9a0f0" d="M 129.027344 155.386719 L 123.910156 155.386719 C 123.910156 173.6875 109.023438 188.574219 90.722656 188.574219 L 90.722656 193.691406 C 111.84375 193.691406 129.027344 176.507812 129.027344 155.386719 Z M 129.027344 155.386719 " fill-opacity="1" fill-rule="nonzero"/><path fill="#a9a0f0" d="M 97.140625 124.019531 C 97.140625 127.957031 100.34375 131.160156 104.28125 131.160156 C 108.21875 131.160156 111.421875 127.957031 111.421875 124.019531 C 111.421875 120.082031 108.21875 116.878906 104.28125 116.878906 C 100.34375 116.878906 97.140625 120.082031 97.140625 124.019531 Z M 104.28125 121.996094 C 105.394531 121.996094 106.304688 122.90625 106.304688 124.019531 C 106.304688 125.136719 105.394531 126.042969 104.28125 126.042969 C 103.164062 126.042969 102.257812 125.136719 102.257812 124.019531 C 102.257812 122.90625 103.164062 121.996094 104.28125 121.996094 Z M 104.28125 121.996094 " fill-opacity="1" fill-rule="nonzero"/><path fill="#a9a0f0" d="M 112.878906 72.785156 C 116.980469 72.785156 120.320312 69.449219 120.320312 65.347656 C 120.320312 61.246094 116.980469 57.90625 112.878906 57.90625 C 108.777344 57.90625 105.441406 61.246094 105.441406 65.347656 C 105.441406 69.449219 108.777344 72.785156 112.878906 72.785156 Z M 112.878906 63.023438 C 114.160156 63.023438 115.199219 64.066406 115.199219 65.347656 C 115.199219 66.625 114.160156 67.667969 112.878906 67.667969 C 111.601562 67.667969 110.558594 66.625 110.558594 65.347656 C 110.558594 64.066406 111.601562 63.023438 112.878906 63.023438 Z M 112.878906 63.023438 " fill-opacity="1" fill-rule="nonzero"/><path fill="#a9a0f0" d="M 90.859375 110.355469 C 96.21875 110.355469 100.582031 105.992188 100.582031 100.628906 C 100.582031 95.269531 96.21875 90.90625 90.859375 90.90625 C 85.496094 90.90625 81.132812 95.269531 81.132812 100.628906 C 81.132812 105.992188 85.496094 110.355469 90.859375 110.355469 Z M 90.859375 96.027344 C 93.398438 96.027344 95.464844 98.089844 95.464844 100.632812 C 95.464844 103.171875 93.398438 105.234375 90.859375 105.234375 C 88.316406 105.234375 86.253906 103.171875 86.253906 100.632812 C 86.253906 98.09375 88.316406 96.027344 90.859375 96.027344 Z M 90.859375 96.027344 " fill-opacity="1" fill-rule="nonzero"/><path fill="#a9a0f0" d="M 140.480469 136.804688 L 145.601562 136.804688 L 145.601562 107.035156 L 137.550781 88.613281 L 137.550781 49.824219 L 132.429688 49.824219 L 132.429688 89.679688 L 140.480469 108.105469 Z M 140.480469 136.804688 " fill-opacity="1" fill-rule="nonzero"/><path fill="#a9a0f0" d="M 184.488281 79.402344 L 184.488281 42.195312 C 184.488281 36.59375 179.933594 32.039062 174.332031 32.039062 C 171.382812 32.039062 168.734375 33.308594 166.878906 35.324219 L 148.261719 35.324219 L 148.261719 32.039062 L 132.429688 32.039062 L 132.429688 44.195312 L 137.550781 44.195312 L 137.550781 37.15625 L 143.144531 37.15625 L 143.144531 89.59375 L 151.195312 108.1875 L 151.195312 136.804688 L 156.3125 136.804688 L 156.3125 107.128906 L 148.261719 88.535156 L 148.261719 83.347656 L 168.113281 83.347656 C 172.058594 88.984375 178.59375 92.679688 185.984375 92.679688 L 192.667969 92.679688 L 192.667969 87.5625 C 188.171875 87.5625 184.503906 83.902344 184.488281 79.402344 Z M 148.261719 40.441406 L 164.339844 40.441406 C 164.242188 41.011719 164.179688 41.59375 164.179688 42.195312 L 164.179688 46.050781 L 148.261719 46.050781 Z M 148.261719 51.167969 L 164.179688 51.167969 L 164.179688 56.777344 L 148.261719 56.777344 Z M 148.261719 61.894531 L 164.179688 61.894531 L 164.179688 67.503906 L 148.261719 67.503906 Z M 148.261719 78.230469 L 148.261719 72.621094 L 164.253906 72.621094 C 164.410156 74.574219 164.820312 76.453125 165.457031 78.230469 Z M 169.296875 70.875 L 169.296875 42.195312 C 169.296875 39.417969 171.554688 37.15625 174.332031 37.15625 C 177.109375 37.15625 179.371094 39.417969 179.371094 42.195312 L 179.371094 79.417969 C 179.378906 82.25 180.277344 84.875 181.800781 87.03125 C 174.617188 85.171875 169.296875 78.632812 169.296875 70.875 Z M 169.296875 70.875 " fill-opacity="1" fill-rule="nonzero"/><path fill="#a9a0f0" d="M 239.996094 178.199219 L 239.992188 140.992188 C 239.992188 135.390625 235.4375 130.835938 229.839844 130.835938 C 224.242188 130.835938 219.683594 135.390625 219.683594 140.992188 L 219.683594 169.671875 C 219.683594 181.695312 229.464844 191.476562 241.488281 191.476562 L 248.175781 191.476562 L 248.175781 186.359375 C 243.679688 186.359375 240.007812 182.699219 239.996094 178.199219 Z M 224.804688 169.671875 L 224.804688 140.992188 C 224.804688 138.214844 227.0625 135.953125 229.839844 135.953125 C 232.617188 135.953125 234.875 138.214844 234.875 140.992188 L 234.875 177.652344 L 234.878906 178.214844 C 234.886719 181.046875 235.785156 183.671875 237.308594 185.828125 C 230.125 183.964844 224.804688 177.429688 224.804688 169.671875 Z M 224.804688 169.671875 " fill-opacity="1" fill-rule="nonzero"/><g clip-path="url(#ffa077003c)"><path fill="#a9a0f0" d="M 257.285156 82.304688 L 257.269531 81.816406 L 245.554688 54.429688 L 244.375 54.429688 L 244.375 43.746094 L 238.960938 43.746094 L 238.960938 30.035156 L 219.945312 30.035156 L 219.945312 43.746094 L 214.53125 43.746094 L 214.53125 54.429688 L 213.351562 54.429688 L 201.632812 81.816406 L 196.226562 269.964844 L 262.648438 269.964844 Z M 225.0625 35.152344 L 233.839844 35.152344 L 233.839844 43.746094 L 225.0625 43.746094 Z M 219.648438 48.863281 L 239.257812 48.863281 L 239.257812 54.429688 L 219.648438 54.429688 Z M 216.730469 59.546875 L 242.175781 59.546875 L 250.847656 79.816406 L 208.054688 79.816406 Z M 201.867188 251.839844 L 243.253906 251.839844 L 243.253906 246.722656 L 202.015625 246.722656 L 206.664062 84.933594 L 252.238281 84.933594 L 256.867188 246.722656 L 248.464844 246.722656 L 248.464844 251.839844 L 257.011719 251.839844 L 257.382812 264.847656 L 201.496094 264.847656 Z M 201.867188 251.839844 " fill-opacity="1" fill-rule="nonzero"/></g></svg>