<svg xmlns="http://www.w3.org/2000/svg" xmlns:xlink="http://www.w3.org/1999/xlink" width="400" zoomAndPan="magnify" viewBox="0 0 300 299.999988" height="400" preserveAspectRatio="xMidYMid meet" version="1.0"><path fill="currentColor" d="M 197.660156 238.160156 C 193.601562 237.375 189.527344 236.6875 185.5625 235.425781 C 183.65625 234.828125 181.78125 234.160156 179.914062 233.457031 C 174.144531 236.378906 168.699219 237.632812 164.238281 237.832031 C 159.539062 238.042969 155.890625 237.625 153.171875 237.160156 C 147.773438 236.238281 145.789062 235.5 145.789062 235.214844 C 145.851562 234.875 147.949219 235.066406 153.363281 235.5625 C 156.066406 235.820312 159.628906 236.074219 164.09375 235.757812 C 167.863281 235.484375 172.277344 234.496094 177.089844 232.304688 C 172.765625 230.527344 168.507812 228.515625 164.332031 226.324219 C 161.914062 225.046875 159.507812 223.722656 157.089844 222.414062 L 156.199219 222.28125 C 156.214844 222.171875 156.214844 222.070312 156.230469 221.949219 C 152.179688 219.753906 148.105469 217.609375 143.9375 215.664062 C 141.855469 217.996094 139.492188 219.632812 137.253906 220.871094 C 134.820312 222.171875 132.523438 223.09375 130.398438 223.738281 C 126.179688 225.0625 122.769531 225.585938 120.183594 225.914062 C 115 226.5 113.003906 226.230469 112.988281 225.960938 C 112.957031 225.601562 114.910156 225.316406 119.929688 224.339844 C 122.4375 223.8125 125.730469 223.148438 129.742188 221.753906 C 131.753906 221.078125 133.929688 220.171875 136.183594 218.925781 C 138.097656 217.851562 140.066406 216.464844 141.792969 214.644531 C 141.714844 214.613281 141.644531 214.582031 141.582031 214.542969 C 134.90625 211.59375 128.121094 209.097656 121.523438 206.023438 C 114.925781 208.515625 109.410156 210.601562 104.753906 211.972656 C 100.078125 213.335938 96.335938 214.148438 93.453125 214.511719 C 92.003906 214.691406 90.789062 214.882812 89.765625 214.914062 C 88.738281 214.945312 87.925781 214.960938 87.273438 214.960938 C 85.996094 214.929688 85.4375 214.835938 85.4375 214.691406 C 85.335938 213.652344 93.902344 214.644531 118.78125 204.699219 C 118.300781 204.457031 117.804688 204.21875 117.324219 203.960938 C 106.164062 198.144531 95.164062 191.65625 84.445312 184.847656 C 82.078125 186.25 79.707031 186.96875 77.539062 187.496094 C 75.089844 188.046875 72.851562 188.363281 70.824219 188.503906 C 66.777344 188.796875 63.617188 188.574219 61.234375 188.269531 C 56.453125 187.644531 54.789062 186.621094 54.875 186.378906 C 54.984375 186.015625 56.726562 186.472656 61.371094 186.683594 C 63.695312 186.769531 66.765625 186.828125 70.644531 186.425781 C 72.582031 186.226562 74.710938 185.902344 77.011719 185.34375 C 78.707031 184.910156 80.527344 184.351562 82.269531 183.476562 C 78.707031 181.199219 75.191406 178.898438 71.691406 176.566406 C 59.3125 168.320312 48.429688 157.707031 35.007812 151.109375 C 35.992188 159.945312 41.171875 167.9375 45.441406 175.558594 C 49.390625 182.609375 52.007812 190.167969 55.78125 197.277344 C 64.449219 213.589844 77.949219 225.601562 94.304688 233.953125 C 111.121094 242.550781 129.789062 247.808594 148.695312 248.652344 C 163.597656 249.3125 186.3125 249.929688 197.660156 238.160156 Z M 202.53125 212.871094 C 199.300781 208.949219 196.550781 204.683594 193.515625 200.492188 C 188.070312 192.980469 181.195312 187.914062 174.371094 181.765625 C 165.609375 173.863281 157.71875 165.34375 150.398438 156.234375 C 142.691406 157.257812 136.167969 156.730469 131.035156 155.59375 C 125.820312 154.414062 121.894531 152.945312 119.050781 151.550781 C 117.644531 150.828125 116.425781 150.273438 115.480469 149.667969 C 114.535156 149.070312 113.800781 148.574219 113.226562 148.164062 C 112.082031 147.367188 111.648438 146.949219 111.742188 146.816406 C 111.820312 146.679688 112.414062 146.847656 113.660156 147.414062 C 114.296875 147.683594 115.085938 148.0625 116.0625 148.558594 C 117.039062 149.023438 118.277344 149.472656 119.6875 150.078125 C 122.546875 151.261719 126.386719 152.527344 131.4375 153.546875 C 136.109375 154.476562 141.925781 154.910156 148.734375 154.144531 C 146.480469 151.277344 144.273438 148.351562 142.109375 145.367188 C 133.878906 133.96875 125.804688 122.25 115.898438 112.234375 C 113.257812 113.753906 110.59375 114.71875 108.148438 115.363281 C 105.398438 116.082031 102.855469 116.480469 100.558594 116.640625 C 95.949219 117.003906 92.339844 116.59375 89.667969 116.066406 C 86.957031 115.542969 85.183594 114.820312 84.105469 114.292969 C 83.035156 113.722656 82.617188 113.394531 82.679688 113.257812 C 82.75 113.109375 83.277344 113.171875 84.40625 113.464844 C 85.546875 113.722656 87.304688 114.179688 89.921875 114.496094 C 92.515625 114.789062 95.972656 115.015625 100.363281 114.566406 C 102.554688 114.355469 104.980469 113.9375 107.574219 113.226562 C 109.710938 112.628906 111.996094 111.800781 114.25 110.585938 C 112.027344 108.4375 109.726562 106.363281 107.304688 104.410156 C 92.898438 92.792969 77.027344 79.625 59.714844 72.347656 C 67.910156 97.285156 75.011719 123.566406 91.488281 144.484375 C 106.660156 149.125 120.230469 156.667969 134.34375 164.277344 C 150.675781 173.097656 164.875 183.25 178.320312 196.085938 C 183 200.546875 188.328125 205.480469 191.96875 211.113281 C 192.238281 211.074219 192.53125 211.074219 192.851562 211.128906 C 196.074219 211.792969 199.355469 212.117188 202.53125 212.871094 Z M 193.578125 235.035156 C 194.839844 235.277344 196.089844 235.5 197.320312 235.742188 C 194.34375 228.367188 192.671875 219.785156 187.925781 213.335938 C 183.144531 206.859375 177.390625 201.199219 171.394531 195.84375 C 158.414062 184.210938 145.023438 175.226562 129.726562 166.910156 C 100.222656 150.84375 69.675781 137.871094 36.441406 149.296875 C 50.460938 156.3125 61.503906 167.777344 74.867188 175.894531 C 78.0625 177.84375 81.230469 179.828125 84.40625 181.828125 C 83.882812 175.933594 82.960938 171.082031 81.566406 167.25 C 81.230469 166.171875 80.738281 165.21875 80.378906 164.289062 C 80.1875 163.828125 79.984375 163.378906 79.808594 162.933594 C 79.582031 162.515625 79.359375 162.113281 79.140625 161.71875 C 78.722656 160.9375 78.335938 160.203125 77.957031 159.527344 C 77.570312 158.855469 77.132812 158.265625 76.769531 157.691406 C 75.34375 155.382812 74.128906 153.933594 73.464844 152.929688 C 72.773438 151.921875 72.550781 151.425781 72.664062 151.324219 C 72.773438 151.214844 73.222656 151.519531 74.128906 152.347656 C 74.996094 153.199219 76.421875 154.492188 78.078125 156.761719 C 78.496094 157.335938 78.976562 157.902344 79.433594 158.582031 C 79.851562 159.289062 80.300781 160.023438 80.78125 160.820312 C 81.023438 161.222656 81.277344 161.632812 81.535156 162.066406 C 81.742188 162.515625 81.953125 162.980469 82.183594 163.445312 C 82.601562 164.421875 83.144531 165.421875 83.515625 166.542969 C 85.242188 170.921875 86.28125 176.582031 86.792969 183.34375 C 97.746094 190.269531 108.6875 197.246094 120.300781 202.941406 C 120.53125 199.964844 120.285156 197.15625 119.789062 194.597656 C 119.207031 191.53125 118.339844 188.8125 117.386719 186.425781 C 115.527344 181.648438 113.554688 178.101562 112.058594 175.414062 C 108.992188 170.046875 107.683594 168.0625 107.984375 167.855469 C 108.195312 167.699219 109.953125 169.339844 113.421875 174.585938 C 115.117188 177.21875 117.277344 180.742188 119.332031 185.660156 C 120.347656 188.109375 121.3125 190.933594 121.972656 194.164062 C 122.5625 197.109375 122.886719 200.414062 122.5 203.992188 C 129.917969 207.449219 137.65625 210.089844 145.023438 213.667969 C 148.839844 215.535156 152.597656 217.53125 156.339844 219.546875 C 156.246094 216.78125 155.496094 214.226562 154.550781 211.941406 C 153.273438 208.890625 151.753906 206.230469 150.523438 203.722656 C 148.058594 198.71875 146.378906 194.792969 144.652344 192.058594 C 143.761719 190.726562 143.070312 189.53125 142.320312 188.695312 C 141.605469 187.789062 141.058594 187.054688 140.546875 186.574219 C 139.570312 185.535156 139.191406 185.011719 139.285156 184.878906 C 139.367188 184.753906 139.941406 185.054688 141.148438 185.929688 C 141.777344 186.335938 142.4375 187.007812 143.28125 187.867188 C 144.15625 188.679688 144.976562 189.851562 145.984375 191.191406 C 147.964844 193.941406 149.847656 197.90625 152.375 202.777344 C 153.636719 205.210938 155.207031 207.867188 156.59375 211.082031 C 157.75 213.816406 158.707031 217.121094 158.59375 220.746094 C 161.628906 222.375 164.679688 223.992188 167.753906 225.558594 C 171.425781 227.390625 175.136719 229.121094 178.925781 230.636719 C 178.714844 226.394531 177.855469 222.792969 176.925781 219.871094 C 175.796875 216.449219 174.65625 213.847656 173.679688 211.910156 C 173.183594 210.949219 172.765625 210.136719 172.417969 209.445312 C 172.039062 208.789062 171.746094 208.246094 171.519531 207.8125 C 171.078125 206.953125 170.960938 206.519531 171.09375 206.425781 C 171.210938 206.316406 171.574219 206.574219 172.238281 207.316406 C 172.566406 207.671875 172.992188 208.152344 173.488281 208.773438 C 173.96875 209.398438 174.464844 210.199219 175.074219 211.144531 C 176.261719 213.039062 177.601562 215.664062 178.894531 219.214844 C 180.03125 222.457031 181.070312 226.53125 181.210938 231.519531 C 185.222656 233.023438 189.320312 234.238281 193.578125 235.035156 Z M 205.042969 212.390625 C 201.175781 201.257812 201.402344 188.300781 199.960938 176.566406 C 197.613281 157.46875 194.089844 137.082031 182.617188 121.070312 C 177.675781 114.164062 171.425781 108.222656 164.457031 103.039062 C 163.976562 102.894531 163.566406 102.605469 163.277344 102.171875 C 151.019531 93.289062 136.648438 86.675781 123.25 81.207031 C 102.964844 72.941406 81.550781 65.605469 59.539062 69.851562 C 75.910156 76.566406 90.867188 88.480469 104.617188 99.390625 C 116.363281 108.71875 125.90625 119.585938 134.792969 131.457031 C 135.316406 128.808594 136.183594 126.515625 136.875 124.410156 C 137.84375 121.660156 138.578125 119.226562 138.859375 116.972656 C 139.445312 112.359375 139.554688 108.664062 139.460938 105.914062 C 139.351562 103.148438 139.058594 101.25 138.859375 100.050781 C 138.65625 98.851562 138.632812 98.277344 138.789062 98.230469 C 138.933594 98.175781 139.222656 98.640625 139.71875 99.8125 C 140.183594 100.996094 140.738281 102.933594 141.058594 105.789062 C 141.359375 108.679688 141.429688 112.421875 140.917969 117.230469 C 140.675781 119.707031 139.917969 122.351562 138.980469 125.113281 C 138.097656 127.847656 137 130.777344 136.664062 134.03125 C 137.207031 134.765625 137.75 135.484375 138.292969 136.238281 C 148.089844 149.824219 158.050781 162.949219 169.976562 174.601562 C 170.714844 173.261719 171.226562 171.789062 171.558594 170.316406 C 172.03125 168.242188 172.269531 166.179688 172.417969 164.199219 C 172.710938 160.246094 172.628906 156.585938 172.914062 153.277344 C 173.378906 146.679688 173.859375 141.628906 173.890625 137.753906 C 173.90625 133.890625 173.742188 131.21875 173.570312 129.523438 C 173.425781 127.816406 173.441406 127.050781 173.585938 127.027344 C 173.757812 126.996094 174.027344 127.703125 174.449219 129.382812 C 174.882812 131.078125 175.285156 133.789062 175.484375 137.738281 C 175.664062 141.691406 175.347656 146.863281 174.988281 153.378906 C 174.773438 156.628906 174.914062 160.261719 174.625 164.367188 C 174.492188 166.414062 174.253906 168.574219 173.757812 170.828125 C 173.347656 172.585938 172.734375 174.445312 171.667969 176.1875 C 173.078125 177.542969 174.492188 178.882812 175.964844 180.175781 C 182.308594 185.753906 189.125 190.601562 194.128906 197.503906 C 197.753906 202.507812 201.015625 207.765625 205.042969 212.390625 Z M 254.386719 205.03125 C 248.484375 198.640625 243.929688 190.214844 239.964844 182.277344 C 234.25 182.414062 229.441406 181.710938 225.644531 180.59375 C 221.617188 179.410156 218.628906 178.070312 216.457031 176.855469 C 214.265625 175.691406 212.863281 174.683594 212.011719 174.027344 C 211.136719 173.351562 210.828125 172.988281 210.914062 172.855469 C 210.988281 172.734375 211.46875 172.84375 212.460938 173.261719 C 213.453125 173.695312 214.941406 174.460938 217.15625 175.429688 C 219.347656 176.421875 222.304688 177.558594 226.179688 178.582031 C 229.609375 179.480469 233.816406 180.082031 238.851562 180.039062 C 237.84375 178.007812 236.867188 176.007812 235.90625 174.121094 C 232.359375 167.085938 228.859375 160.039062 225.328125 153.019531 C 222.996094 153.441406 220.882812 153.246094 219.046875 152.914062 C 217.015625 152.542969 215.273438 152.03125 213.722656 151.472656 C 210.640625 150.386719 208.355469 149.296875 206.628906 148.4375 C 203.222656 146.695312 202.019531 145.839844 202.136719 145.570312 C 202.277344 145.269531 203.71875 145.625 207.28125 146.980469 C 209.070312 147.621094 211.378906 148.558594 214.375 149.503906 C 215.878906 149.96875 217.558594 150.417969 219.417969 150.738281 C 220.917969 150.992188 222.59375 151.125 224.257812 150.914062 C 219.191406 140.875 214.042969 130.902344 208.558594 121.039062 C 204.199219 113.25 199.628906 105.644531 194.988281 98.066406 C 190.292969 97.542969 186.5 96.566406 183.480469 95.480469 C 180.394531 94.375 178.078125 93.242188 176.429688 92.21875 C 175.601562 91.695312 174.898438 91.261719 174.355469 90.855469 C 173.8125 90.398438 173.394531 90.042969 173.078125 89.757812 C 172.464844 89.152344 172.253906 88.84375 172.339844 88.703125 C 172.433594 88.585938 172.820312 88.671875 173.585938 89.035156 C 173.96875 89.199219 174.449219 89.457031 175.019531 89.773438 C 175.617188 90.058594 176.335938 90.398438 177.179688 90.8125 C 178.863281 91.625 181.132812 92.554688 184.136719 93.515625 C 186.660156 94.328125 189.777344 95.0625 193.453125 95.574219 C 190.210938 90.316406 186.949219 85.054688 183.71875 79.765625 C 179.210938 72.414062 173.84375 63.78125 172.914062 54.847656 C 166.570312 68.628906 167.335938 84.367188 167.445312 99.40625 C 171.875 102.691406 175.996094 106.300781 179.628906 110.28125 C 193.136719 125.054688 199.511719 143.945312 202.632812 163.414062 C 203.65625 169.914062 204.453125 176.421875 205.15625 182.941406 C 205.1875 182.941406 205.21875 182.957031 205.25 182.957031 C 218.664062 188.441406 230.601562 198.292969 244.347656 202.636719 C 247.308594 203.566406 250.964844 204.125 254.386719 205.03125 Z M 257.839844 205.371094 C 255.316406 193.035156 260.667969 180.007812 260.621094 166.722656 C 260.550781 146.273438 259.304688 124.394531 249.429688 105.984375 C 233.707031 76.683594 202.214844 67.007812 175.003906 51.648438 C 174.53125 63.65625 183.882812 76.070312 190.023438 85.457031 C 194.089844 91.648438 197.929688 97.945312 201.65625 104.320312 C 204.367188 100.230469 206.046875 96.457031 206.960938 93.195312 C 207.9375 89.664062 208.402344 86.796875 208.628906 84.589844 C 208.914062 82.375 209.039062 80.835938 209.183594 79.851562 C 209.347656 78.859375 209.503906 78.441406 209.648438 78.441406 C 209.820312 78.441406 209.953125 78.859375 210.074219 79.867188 C 210.175781 80.859375 210.316406 82.421875 210.222656 84.707031 C 210.191406 86.976562 209.890625 89.996094 208.960938 93.769531 C 208.03125 97.496094 206.109375 101.886719 202.902344 106.511719 C 205.972656 111.785156 208.976562 117.121094 211.910156 122.472656 C 213.4375 125.269531 214.925781 128.074219 216.410156 130.871094 C 218.90625 128.839844 221.144531 126.964844 222.941406 125.03125 C 224.976562 122.859375 226.410156 120.574219 227.402344 118.382812 C 227.96875 117.316406 228.300781 116.207031 228.648438 115.167969 C 228.976562 114.132812 229.371094 113.1875 229.59375 112.21875 C 230.105469 110.328125 230.539062 108.664062 230.925781 107.222656 C 231.335938 105.773438 231.65625 104.542969 231.996094 103.535156 C 232.375 102.53125 232.691406 101.746094 232.957031 101.136719 C 233.5 99.917969 233.800781 99.421875 233.949219 99.476562 C 234.101562 99.539062 234.054688 100.128906 233.800781 101.421875 C 233.667969 102.050781 233.46875 102.863281 233.210938 103.871094 C 233.003906 104.90625 232.761719 106.140625 232.476562 107.59375 C 232.179688 109.050781 231.816406 110.746094 231.414062 112.707031 C 231.222656 113.683594 230.839844 114.707031 230.523438 115.796875 C 230.214844 116.898438 229.882812 118.066406 229.308594 119.25 C 228.269531 121.628906 226.738281 124.183594 224.574219 126.53125 C 222.578125 128.722656 220.128906 130.769531 217.511719 132.898438 C 223.507812 144.308594 229.222656 155.800781 235 167.328125 C 239.964844 162.773438 243.597656 158.441406 246.152344 154.539062 C 248.933594 150.304688 250.746094 146.769531 251.941406 143.976562 C 253.21875 141.226562 253.9375 139.242188 254.480469 138.011719 C 255.015625 136.765625 255.332031 136.253906 255.488281 136.300781 C 255.632812 136.339844 255.601562 136.941406 255.316406 138.265625 C 255.03125 139.597656 254.535156 141.691406 253.425781 144.585938 C 252.390625 147.507812 250.675781 151.230469 247.898438 155.679688 C 245.261719 159.898438 241.375 164.59375 236.054688 169.417969 C 236.246094 169.789062 236.433594 170.167969 236.613281 170.527344 C 242.140625 181.476562 248.40625 196.449219 257.839844 205.371094 Z M 267.832031 215.550781 C 269.574219 217.875 265.671875 220.121094 263.929688 217.828125 C 263.882812 217.757812 263.84375 217.695312 263.78125 217.632812 C 263.574219 217.484375 263.355469 217.308594 263.179688 217.074219 C 262.785156 216.554688 262.410156 216.03125 262.0625 215.503906 C 259.46875 212.453125 257.105469 210.832031 252.40625 209.609375 C 247.5625 208.347656 242.636719 207.128906 238.082031 205.054688 C 226.960938 199.996094 216.953125 192.917969 205.714844 188.046875 C 205.910156 189.820312 206.09375 191.59375 206.289062 193.367188 C 207.566406 205.738281 208.8125 216.78125 219.015625 225.238281 C 219.6875 225.796875 219.875 226.484375 219.71875 227.113281 C 220.820312 228.800781 218.851562 231.488281 216.660156 230.289062 C 212.414062 227.925781 211.292969 223.914062 208.117188 220.601562 C 204.738281 217.050781 199.386719 216.625 194.570312 215.96875 C 196.15625 216.175781 199.253906 228.578125 200.007812 230.335938 C 203.523438 238.476562 211.53125 237.65625 218.183594 241.785156 C 220.261719 243.09375 218.882812 246.925781 216.441406 245.917969 C 213.910156 244.851562 211.324219 243.90625 208.882812 242.644531 C 206.289062 241.875 203.601562 241.394531 201.066406 241.125 C 189.542969 253.488281 166.617188 253.953125 151.09375 253.261719 C 130.65625 252.363281 110.144531 247.539062 92.035156 237.847656 C 74.609375 228.53125 59.414062 215.710938 50.878906 197.519531 C 46.78125 188.796875 42.769531 180.308594 38.183594 171.820312 C 34.265625 164.578125 30.5 157.09375 30.335938 148.691406 C 30.320312 148.226562 30.445312 147.855469 30.640625 147.539062 C 30.847656 146.949219 31.265625 146.421875 31.988281 146.136719 C 48.546875 139.691406 66.507812 138.445312 83.851562 142.425781 C 84.089844 142.488281 84.316406 142.550781 84.539062 142.589844 C 69.351562 120.832031 62.464844 94.597656 54.078125 69.648438 C 54.070312 69.574219 54.054688 69.503906 54.039062 69.425781 C 53.339844 68.273438 53.582031 66.542969 55.285156 66.117188 C 78.242188 60.589844 100.8125 67.234375 122.082031 75.886719 C 135.511719 81.367188 150.203125 87.710938 162.921875 96.21875 C 162.765625 79.371094 162.589844 61.976562 171.890625 47.242188 C 172.550781 46.214844 173.890625 45.800781 174.988281 46.4375 C 201.339844 61.804688 234.699219 71.339844 250.933594 99.40625 C 260.429688 115.84375 264.085938 134.59375 264.84375 153.410156 C 265.269531 163.65625 264.921875 173.351562 263.132812 183.453125 C 261.296875 193.785156 259.996094 203.210938 265.316406 212.132812 C 266.152344 213.25 266.964844 214.402344 267.832031 215.550781 " fill-opacity="1" fill-rule="nonzero"/></svg>