<svg xmlns="http://www.w3.org/2000/svg" xmlns:xlink="http://www.w3.org/1999/xlink" width="400" zoomAndPan="magnify" viewBox="0 0 300 299.999988" height="400" preserveAspectRatio="xMidYMid meet" version="1.0"><defs><clipPath id="f8b0eebe46"><path d="M 79 30 L 221.25 30 L 221.25 270 L 79 270 Z M 79 30 " clip-rule="nonzero"/></clipPath></defs><g clip-path="url(#f8b0eebe46)"><path fill="currentColor" d="M 221.027344 105.785156 C 220.894531 104.40625 220.648438 103.035156 220.289062 101.699219 C 219.648438 99.316406 218.394531 96.761719 216.253906 95.402344 C 215.105469 94.671875 213.863281 94.105469 212.585938 93.644531 C 210.113281 92.757812 207.515625 92.277344 204.941406 91.792969 C 199.199219 90.703125 193.367188 89.941406 187.558594 89.347656 C 175.890625 88.15625 164.136719 87.71875 152.410156 87.589844 C 150.621094 87.570312 148.832031 87.574219 147.042969 87.578125 C 147.71875 70.324219 148.292969 53.070312 148.851562 35.8125 C 148.921875 33.683594 149.246094 30.949219 146.5625 30.378906 C 145.429688 30.136719 144.1875 30.277344 143.039062 30.289062 C 141.640625 30.296875 140.246094 30.273438 138.851562 30.253906 C 138.199219 30.242188 137.46875 30.671875 137.457031 31.40625 C 137.296875 39.617188 137.292969 47.832031 137.078125 56.042969 C 136.863281 64.253906 136.597656 72.460938 136.261719 80.664062 C 136.164062 83.027344 136.050781 85.390625 135.941406 87.753906 C 129.621094 87.917969 123.300781 88.203125 116.988281 88.65625 C 111.15625 89.074219 105.324219 89.601562 99.511719 90.273438 C 96.730469 90.59375 93.953125 90.964844 91.222656 91.597656 C 88.796875 92.160156 86.183594 92.84375 84.007812 94.101562 C 80.402344 96.191406 78.75 101.996094 79.09375 106 C 79.214844 107.441406 79.859375 108.878906 81.128906 109.65625 C 81.964844 110.164062 82.871094 110.3125 83.824219 110.421875 C 85.011719 110.554688 86.199219 110.699219 87.386719 110.839844 C 87.363281 110.917969 87.351562 111 87.351562 111.085938 C 87.363281 118.109375 87.734375 125.101562 88.613281 132.078125 C 89.019531 135.300781 89.292969 138.71875 90.324219 141.816406 C 90.753906 143.117188 91.441406 144.320312 92.472656 145.238281 C 92.976562 145.6875 93.570312 145.996094 94.101562 146.410156 C 94.605469 146.808594 94.761719 147.332031 94.871094 147.953125 C 95.453125 151.308594 95.636719 154.777344 95.96875 158.164062 C 96.304688 161.652344 96.617188 165.144531 96.914062 168.640625 C 97.507812 175.683594 98.023438 182.726562 98.523438 189.777344 C 99.511719 203.746094 100.445312 217.722656 101.796875 231.667969 C 102.472656 238.636719 103.253906 245.59375 104.203125 252.527344 C 104.558594 255.136719 104.652344 258.03125 106.023438 260.359375 C 107.046875 262.097656 108.53125 263.480469 110.28125 264.476562 C 113.957031 266.566406 118.234375 267.292969 122.367188 267.902344 C 128.164062 268.757812 133.917969 269.507812 139.78125 269.675781 C 146.785156 269.871094 153.796875 269.546875 160.796875 269.207031 C 167.554688 268.875 174.230469 268.0625 180.851562 266.660156 C 185.148438 265.753906 190.886719 265.019531 193.371094 260.851562 C 194.875 258.332031 194.996094 255.234375 195.382812 252.394531 C 195.847656 248.980469 196.269531 245.5625 196.660156 242.140625 C 198.261719 228.171875 199.3125 214.148438 200.304688 200.125 C 201.296875 186.085938 202.234375 172.035156 203.59375 158.027344 C 203.761719 156.308594 203.933594 154.589844 204.117188 152.875 C 204.292969 151.199219 204.378906 149.472656 204.691406 147.816406 C 204.796875 147.253906 204.972656 146.75 205.410156 146.359375 C 205.925781 145.894531 206.578125 145.609375 207.101562 145.152344 C 208.15625 144.230469 208.855469 142.957031 209.285156 141.632812 C 209.746094 140.207031 209.960938 138.699219 210.203125 137.222656 C 210.472656 135.582031 210.730469 133.941406 210.964844 132.292969 C 211.425781 129.0625 211.8125 125.824219 212.074219 122.570312 C 212.335938 119.332031 212.464844 116.085938 212.476562 112.835938 C 213.257812 112.734375 214.039062 112.640625 214.820312 112.539062 C 216.980469 112.253906 219.566406 111.859375 220.652344 109.691406 C 221.257812 108.484375 221.160156 107.089844 221.039062 105.78125 Z M 138.96875 70.089844 C 139.257812 61.882812 139.398438 53.671875 139.707031 45.46875 C 139.867188 41.222656 139.953125 36.972656 139.996094 32.722656 C 141.855469 32.613281 143.738281 32.488281 145.597656 32.558594 C 146.527344 32.589844 146.691406 32.898438 146.671875 33.792969 C 146.648438 34.957031 146.585938 36.121094 146.546875 37.285156 C 146.382812 41.882812 146.144531 46.480469 145.960938 51.078125 C 145.597656 60.277344 145.285156 69.484375 144.925781 78.683594 C 144.730469 83.738281 144.527344 88.800781 144.320312 93.855469 C 143.121094 93.902344 141.921875 93.933594 140.71875 93.933594 C 139.816406 93.933594 138.914062 93.90625 138.007812 93.875 C 138.375 85.949219 138.691406 78.023438 138.96875 70.089844 Z M 84.199219 96.78125 C 84.386719 96.496094 84.875 96.226562 85.171875 96.0625 C 87.28125 94.941406 89.785156 94.378906 92.109375 93.882812 C 94.695312 93.332031 97.320312 93.007812 99.953125 92.722656 C 105.492188 92.128906 111.042969 91.605469 116.605469 91.203125 C 123.011719 90.738281 129.421875 90.4375 135.835938 90.257812 C 135.785156 91.414062 135.738281 92.5625 135.679688 93.71875 C 134.84375 93.628906 133.992188 93.527344 133.175781 93.570312 C 132.464844 93.609375 131.597656 94.3125 131.976562 95.128906 C 132.433594 96.125 135.640625 96.117188 136.597656 96.1875 C 137.996094 96.285156 139.398438 96.332031 140.800781 96.335938 C 142.152344 96.339844 143.507812 96.300781 144.859375 96.199219 C 145.539062 96.148438 146.160156 95.90625 146.832031 95.796875 C 147.546875 95.675781 148.265625 95.578125 148.980469 95.453125 C 150.042969 95.269531 149.726562 93.773438 148.695312 93.839844 C 148.0625 93.886719 147.425781 93.929688 146.792969 93.9375 C 146.847656 92.648438 146.894531 91.355469 146.941406 90.066406 C 159.085938 90.027344 171.230469 90.472656 183.363281 91.402344 C 189.542969 91.878906 195.679688 92.527344 201.78125 93.636719 C 204.59375 94.148438 207.4375 94.679688 210.191406 95.464844 C 211.988281 95.976562 213.789062 96.652344 215.332031 97.71875 C 210.046875 100 204.023438 99.957031 198.347656 100.117188 C 190.96875 100.324219 183.585938 100.457031 176.203125 100.53125 C 161.550781 100.679688 146.898438 100.605469 132.246094 100.449219 C 128.132812 100.40625 124.019531 100.359375 119.902344 100.320312 C 110.578125 100.242188 101.167969 100.5 91.921875 99.070312 C 90.660156 98.875 89.398438 98.65625 88.144531 98.410156 C 87.089844 98.203125 85.148438 98.167969 84.292969 97.472656 C 83.867188 97.132812 83.816406 97.359375 84.195312 96.777344 Z M 89.320312 103.8125 C 89.261719 104.910156 89.179688 106.003906 89.144531 107.101562 C 89.128906 107.640625 89.136719 108.179688 89.132812 108.71875 C 89.132812 108.734375 89.132812 108.75 89.132812 108.765625 C 88.371094 108.6875 87.613281 108.609375 86.851562 108.535156 C 85.621094 108.40625 84.296875 108.402344 83.097656 108.113281 C 82.570312 107.980469 82.09375 107.726562 81.785156 107.277344 C 81.136719 106.332031 81.269531 104.855469 81.441406 103.71875 C 81.671875 102.234375 82.144531 100.800781 82.652344 99.394531 C 82.6875 99.296875 82.71875 99.195312 82.75 99.097656 C 83.851562 99.871094 85.519531 100.113281 86.664062 100.335938 C 92.15625 101.414062 97.703125 102.09375 103.296875 102.339844 C 108.425781 102.5625 113.535156 102.6875 118.664062 102.773438 C 122.382812 102.835938 126.101562 102.886719 129.820312 102.925781 C 137.203125 103.003906 144.585938 103.066406 151.96875 103.089844 C 160.140625 103.117188 168.3125 103.089844 176.484375 103.003906 C 176.542969 104.757812 176.5625 106.523438 176.523438 108.277344 C 176.488281 109.90625 176.328125 111.527344 176.234375 113.152344 C 172.15625 113.25 168.074219 113.296875 163.992188 113.296875 C 163.644531 113.296875 163.296875 113.292969 162.945312 113.292969 C 162.96875 111.734375 162.890625 110.175781 162.683594 108.628906 C 162.632812 108.261719 162.246094 108.011719 161.890625 108.070312 C 161.503906 108.136719 161.300781 108.492188 161.335938 108.863281 C 161.484375 110.332031 161.527344 111.808594 161.464844 113.289062 C 150.871094 113.230469 140.28125 112.832031 129.707031 112.183594 C 129.199219 112.152344 128.699219 112.117188 128.191406 112.082031 C 128.164062 111.96875 128.144531 111.855469 128.125 111.742188 C 128.058594 111.347656 128.011719 110.949219 127.96875 110.546875 C 127.882812 109.753906 127.855469 108.972656 127.894531 108.179688 C 127.910156 107.824219 127.667969 107.5 127.304688 107.464844 C 126.953125 107.433594 126.625 107.703125 126.59375 108.054688 C 126.507812 108.9375 126.5 109.816406 126.542969 110.703125 C 126.5625 111.121094 126.617188 111.539062 126.675781 111.949219 C 126.675781 111.960938 126.675781 111.972656 126.679688 111.984375 C 122.824219 111.734375 118.972656 111.460938 115.125 111.164062 C 115.132812 108.898438 115.046875 106.632812 115.003906 104.371094 C 114.996094 103.992188 114.78125 103.648438 114.375 103.609375 C 114.023438 103.574219 113.621094 103.855469 113.613281 104.238281 C 113.566406 106.5 113.484375 108.773438 113.492188 111.042969 C 107.484375 110.566406 101.476562 110.03125 95.472656 109.421875 C 93.902344 109.261719 92.335938 109.097656 90.765625 108.941406 C 90.765625 108.898438 90.765625 108.855469 90.765625 108.816406 C 90.761719 108.253906 90.765625 107.691406 90.746094 107.132812 C 90.703125 106.011719 90.625 104.890625 90.570312 103.769531 C 90.53125 103.0625 89.363281 103.121094 89.328125 103.820312 Z M 142.230469 147.324219 C 141.957031 147.378906 141.679688 147.429688 141.40625 147.472656 C 141.03125 147.527344 140.636719 147.546875 140.246094 147.582031 C 139.917969 146.191406 139.570312 144.808594 139.203125 143.429688 C 138.296875 140.058594 137.246094 136.65625 135.683594 133.523438 C 135.738281 133.402344 135.777344 133.269531 135.785156 133.109375 C 136.160156 127.105469 136.535156 121.101562 136.886719 115.09375 C 139.066406 115.203125 141.246094 115.300781 143.425781 115.378906 C 143.203125 120.511719 142.988281 125.644531 142.769531 130.773438 C 142.535156 136.195312 142.191406 141.628906 142.195312 147.054688 C 142.195312 147.152344 142.210938 147.238281 142.230469 147.324219 Z M 137.332031 151.824219 C 136.785156 152.386719 136.035156 152.726562 135.359375 153.101562 C 133.816406 153.953125 132.167969 154.605469 130.476562 155.101562 C 128.183594 155.777344 125.777344 156.390625 123.421875 156.828125 C 122.355469 157.027344 121.242188 157.183594 120.167969 156.972656 C 119.132812 156.765625 118.507812 156.1875 117.855469 155.386719 C 116.441406 153.65625 115.535156 151.523438 114.902344 149.398438 C 114.214844 147.117188 113.753906 144.78125 113.378906 142.429688 C 113.203125 141.34375 113.042969 140.257812 112.890625 139.171875 C 112.832031 138.742188 112.652344 138.0625 112.953125 137.683594 C 113.324219 137.21875 114.378906 137.015625 114.910156 136.808594 C 117.835938 135.675781 120.832031 134.730469 123.871094 133.957031 C 125.410156 133.566406 126.960938 133.21875 128.523438 132.917969 C 129.683594 132.695312 131.363281 132.132812 132.492188 132.710938 C 133.136719 133.035156 133.492188 133.753906 133.796875 134.367188 C 134.1875 135.152344 134.542969 135.957031 134.875 136.765625 C 135.53125 138.367188 136.085938 140.011719 136.574219 141.675781 C 137.0625 143.332031 137.488281 145.003906 137.898438 146.679688 C 138.097656 147.492188 138.296875 148.304688 138.484375 149.117188 C 138.707031 150.101562 138 151.152344 137.34375 151.824219 Z M 96.125 144.207031 C 95.902344 144.007812 95.664062 143.824219 95.402344 143.648438 C 94.261719 142.886719 93.574219 142.082031 93.128906 140.765625 C 92.703125 139.503906 92.539062 138.136719 92.332031 136.828125 C 92.050781 135.074219 91.800781 133.316406 91.578125 131.550781 C 91.152344 128.140625 90.824219 124.710938 90.609375 121.277344 C 90.398438 117.976562 90.246094 114.667969 90.238281 111.359375 C 90.238281 111.289062 90.230469 111.222656 90.222656 111.15625 C 101.613281 112.4375 113.046875 113.492188 124.476562 114.332031 C 127.828125 114.578125 131.191406 114.789062 134.550781 114.96875 C 134.234375 120.289062 133.882812 125.609375 133.496094 130.921875 C 133.183594 130.746094 132.839844 130.609375 132.457031 130.527344 C 130.898438 130.1875 129.207031 130.652344 127.683594 130.953125 C 124.109375 131.660156 120.589844 132.613281 117.140625 133.777344 C 115.53125 134.320312 113.789062 134.8125 112.285156 135.605469 C 110.796875 136.386719 110.570312 137.792969 110.761719 139.339844 C 111.0625 141.757812 111.40625 144.183594 111.898438 146.570312 C 110.847656 146.425781 109.78125 146.320312 108.738281 146.128906 C 107.304688 145.863281 105.871094 145.566406 104.445312 145.277344 C 103.019531 144.988281 101.589844 144.707031 100.152344 144.488281 C 99.433594 144.378906 98.714844 144.289062 97.992188 144.226562 C 97.402344 144.171875 96.710938 144.03125 96.125 144.207031 Z M 207.550781 136.8125 C 207.324219 138.199219 207.148438 139.613281 206.679688 140.945312 C 206.230469 142.222656 205.539062 143.042969 204.410156 143.785156 C 203.136719 144.621094 202.410156 145.6875 202.09375 147.179688 C 201.765625 148.738281 201.683594 150.371094 201.515625 151.957031 C 201.332031 153.671875 201.15625 155.386719 200.984375 157.109375 C 200.648438 160.542969 200.335938 163.980469 200.042969 167.421875 C 199.460938 174.296875 198.949219 181.175781 198.457031 188.054688 C 197.476562 201.808594 196.570312 215.566406 195.277344 229.289062 C 194.632812 236.148438 193.890625 242.996094 192.996094 249.828125 C 192.773438 251.535156 192.539062 253.242188 192.292969 254.949219 C 192.113281 256.238281 191.964844 257.519531 191.441406 258.726562 C 190.707031 260.425781 189.234375 261.453125 187.5625 262.128906 C 185.1875 263.085938 182.558594 263.527344 180.058594 264.042969 C 176.832031 264.710938 173.582031 265.265625 170.316406 265.671875 C 163.632812 266.511719 156.851562 266.714844 150.121094 266.871094 C 143.304688 267.03125 136.457031 266.878906 129.6875 266 C 127.363281 265.695312 125.050781 265.304688 122.734375 264.960938 C 120.785156 264.671875 118.832031 264.371094 116.921875 263.878906 C 113.453125 262.988281 109.660156 261.507812 108.226562 258.128906 C 107.804688 257.132812 107.6875 255.957031 107.527344 254.824219 C 107.285156 253.117188 107.050781 251.410156 106.828125 249.699219 C 106.382812 246.285156 105.972656 242.863281 105.597656 239.4375 C 104.089844 225.738281 103.085938 211.988281 102.113281 198.246094 C 101.144531 184.480469 100.210938 170.714844 98.859375 156.980469 C 98.699219 155.320312 98.527344 153.660156 98.351562 151.996094 C 98.179688 150.367188 98.121094 148.652344 97.757812 147.054688 C 97.65625 146.613281 97.515625 146.210938 97.335938 145.839844 C 97.5 145.84375 97.664062 145.847656 97.828125 145.863281 C 98.546875 145.921875 99.269531 146.007812 99.988281 146.113281 C 101.480469 146.335938 102.960938 146.652344 104.433594 146.976562 C 105.910156 147.300781 107.382812 147.636719 108.875 147.898438 C 109.992188 148.089844 111.136719 148.304688 112.28125 148.335938 C 112.835938 150.566406 113.578125 152.777344 114.730469 154.761719 C 116.019531 156.980469 117.734375 159.074219 120.496094 159.128906 C 123.503906 159.1875 126.542969 158.046875 129.421875 157.265625 C 131.96875 156.574219 134.371094 155.480469 136.613281 154.097656 C 138.601562 152.871094 140.789062 151.914062 140.625 149.46875 C 141.429688 149.414062 142.25 149.214844 142.984375 149.0625 C 144.296875 148.785156 145.589844 148.421875 146.886719 148.074219 C 148.117188 147.746094 149.359375 147.441406 150.625 147.285156 C 151.878906 147.132812 153.070312 147.273438 154.3125 147.371094 C 155.367188 148.597656 156.925781 149.511719 158.085938 150.5 C 160.167969 152.273438 162.390625 153.988281 164.789062 155.355469 C 164.105469 155.621094 163.421875 155.894531 162.746094 156.195312 C 161.800781 156.613281 160.617188 156.964844 159.890625 157.742188 C 158.480469 159.25 159.324219 161.96875 159.636719 163.753906 C 160.050781 166.097656 160.601562 168.417969 161.300781 170.691406 C 161.617188 171.734375 161.960938 172.773438 162.335938 173.796875 C 162.699219 174.804688 163.046875 175.902344 163.859375 176.652344 C 165.371094 178.046875 167.941406 177.417969 169.757812 177.128906 C 172.179688 176.742188 174.566406 176.125 176.910156 175.410156 C 179.113281 174.738281 181.3125 174.007812 183.464844 173.1875 C 185.277344 172.496094 186.503906 171.199219 186.015625 169.144531 C 185.40625 166.601562 184.453125 164.082031 183.535156 161.632812 C 182.582031 159.097656 181.515625 156.609375 180.339844 154.167969 C 181.179688 153.070312 181.914062 151.878906 182.558594 150.714844 C 183.363281 149.265625 184.15625 147.777344 184.839844 146.265625 C 185.273438 145.300781 185.589844 144.269531 185.636719 143.222656 C 186.535156 143.277344 187.503906 142.816406 188.292969 142.441406 C 189.265625 141.980469 190.179688 141.390625 191.046875 140.757812 C 192.84375 139.4375 194.433594 137.867188 196.128906 136.429688 C 197.910156 134.917969 199.828125 133.527344 202.089844 132.851562 C 204.132812 132.242188 206.175781 132.214844 208.246094 132.265625 C 208.027344 133.785156 207.796875 135.296875 207.550781 136.8125 Z M 176.992188 155.210938 C 175.824219 156.195312 174.394531 156.945312 172.828125 156.894531 C 171.144531 156.84375 169.796875 155.988281 168.253906 155.523438 C 168.21875 155.480469 168.183594 155.433594 168.136719 155.402344 C 165.71875 153.800781 163.296875 152.273438 161.027344 150.460938 C 160.082031 149.699219 159.195312 148.875 158.230469 148.140625 C 157.457031 147.550781 156.640625 146.996094 155.980469 146.277344 C 155.386719 145.632812 154.972656 144.898438 155.1875 144 C 155.457031 142.867188 156.253906 141.804688 156.921875 140.878906 C 158.414062 138.816406 160.277344 137.074219 162.210938 135.429688 C 163.175781 134.613281 164.164062 133.824219 165.160156 133.046875 C 166.140625 132.28125 167.101562 131.398438 168.160156 130.75 C 169.585938 129.882812 170.847656 130.449219 172.15625 131.246094 C 173.402344 132.003906 174.613281 132.824219 175.78125 133.695312 C 178.089844 135.417969 180.347656 137.332031 182.234375 139.511719 C 183.074219 140.480469 183.878906 141.640625 183.914062 142.972656 C 183.957031 144.460938 183.113281 145.882812 182.460938 147.167969 C 181.019531 150.011719 179.476562 153.113281 176.996094 155.207031 Z M 179.125 155.585938 C 180.65625 159.019531 182.019531 162.53125 183.125 166.125 C 183.410156 167.042969 183.679688 167.964844 183.933594 168.890625 C 184.183594 169.816406 184.363281 170.441406 183.4375 170.964844 C 182.734375 171.363281 181.929688 171.589844 181.175781 171.863281 C 180.167969 172.230469 179.160156 172.589844 178.148438 172.9375 C 174.449219 174.210938 170.445312 175.5625 166.496094 175.675781 C 165.527344 175.703125 164.988281 175.378906 164.601562 174.492188 C 164.21875 173.617188 163.9375 172.683594 163.648438 171.773438 C 163.03125 169.839844 162.519531 167.875 162.089844 165.894531 C 161.84375 164.753906 161.636719 163.613281 161.457031 162.464844 C 161.320312 161.59375 160.953125 160.40625 161.160156 159.527344 C 161.367188 158.636719 162.867188 158.304688 163.597656 157.972656 C 164.6875 157.480469 165.726562 156.929688 166.789062 156.390625 C 166.792969 156.390625 166.796875 156.382812 166.800781 156.378906 C 167.019531 156.484375 167.238281 156.589844 167.460938 156.683594 C 167.523438 156.710938 167.582031 156.710938 167.644531 156.71875 C 168.839844 157.640625 170.460938 158.160156 171.933594 158.382812 C 173.457031 158.613281 175.019531 158.355469 176.386719 157.652344 C 177.414062 157.128906 178.316406 156.40625 179.125 155.578125 Z M 208.46875 130.636719 C 206.332031 130.4375 204.101562 130.589844 202.082031 131.113281 C 199.78125 131.707031 197.777344 132.871094 195.917969 134.328125 C 194.15625 135.707031 192.558594 137.273438 190.8125 138.664062 C 189.960938 139.339844 189.078125 139.972656 188.121094 140.480469 C 187.648438 140.734375 187.160156 140.957031 186.660156 141.144531 C 186.261719 141.296875 185.835938 141.386719 185.449219 141.5625 C 185.449219 141.558594 185.449219 141.554688 185.445312 141.546875 C 185.023438 140.078125 184.078125 138.839844 183.058594 137.726562 C 181.929688 136.484375 180.710938 135.320312 179.453125 134.214844 C 178.210938 133.117188 176.894531 132.097656 175.53125 131.144531 C 174.226562 130.234375 172.835938 129.207031 171.328125 128.648438 C 168.167969 127.472656 165.664062 130.136719 163.355469 131.914062 C 161.015625 133.714844 158.742188 135.574219 156.777344 137.789062 C 155.804688 138.882812 154.957031 140.050781 154.257812 141.339844 C 153.648438 142.460938 153.039062 143.621094 153.1875 144.941406 C 153.210938 145.152344 153.257812 145.355469 153.308594 145.554688 C 151.308594 145.214844 149.070312 145.691406 147.203125 146.128906 C 146.230469 146.355469 145.265625 146.609375 144.296875 146.851562 C 144.785156 141.585938 144.9375 136.285156 145.1875 131.003906 C 145.429688 125.824219 145.667969 120.644531 145.890625 115.464844 C 150.792969 115.628906 155.691406 115.730469 160.589844 115.761719 C 172.664062 115.84375 184.75 115.425781 196.789062 114.453125 C 201.121094 114.105469 205.449219 113.675781 209.765625 113.167969 C 209.722656 119.019531 209.25 124.84375 208.46875 130.636719 Z M 218.078125 109.375 C 217.265625 109.960938 216.167969 110.101562 215.203125 110.234375 C 214.527344 110.328125 213.847656 110.40625 213.171875 110.492188 C 213.195312 109.457031 213.171875 108.421875 213.171875 107.390625 C 213.171875 106.050781 213.238281 104.660156 213.019531 103.339844 C 212.898438 102.601562 211.875 102.699219 211.757812 103.386719 C 211.539062 104.695312 211.613281 106.074219 211.617188 107.398438 C 211.617188 108.492188 211.601562 109.589844 211.628906 110.6875 C 207.167969 111.226562 202.6875 111.65625 198.207031 112.019531 C 197.632812 112.066406 197.054688 112.105469 196.480469 112.148438 C 196.464844 112.015625 196.449219 111.886719 196.441406 111.773438 C 196.40625 111.289062 196.367188 110.804688 196.324219 110.324219 C 196.246094 109.335938 196.179688 108.351562 196.105469 107.363281 C 196.054688 106.679688 194.871094 106.71875 194.890625 107.414062 C 194.910156 108.402344 194.933594 109.390625 194.945312 110.378906 C 194.953125 110.867188 194.957031 111.351562 194.964844 111.835938 C 194.964844 111.964844 194.964844 112.113281 194.960938 112.265625 C 189.253906 112.675781 183.535156 112.949219 177.816406 113.109375 C 177.984375 111.476562 178.007812 109.804688 178.039062 108.179688 C 178.078125 106.445312 178.03125 104.710938 177.945312 102.980469 C 184.105469 102.90625 190.269531 102.800781 196.429688 102.636719 C 203.449219 102.449219 211.078125 102.714844 217.496094 99.441406 C 218.207031 101.734375 218.785156 104.058594 218.929688 106.46875 C 218.992188 107.507812 219.007812 108.703125 218.078125 109.375 Z M 218.078125 109.375 " fill-opacity="1" fill-rule="nonzero"/></g><path fill="currentColor" d="M 174.644531 229.40625 C 173.011719 228.808594 171.351562 228.285156 169.667969 227.847656 C 167.957031 227.402344 166.21875 227.039062 164.472656 226.753906 C 162.90625 226.503906 161.089844 226.078125 159.511719 226.441406 C 156.527344 227.132812 155.71875 230.40625 154.992188 232.960938 C 154.054688 236.257812 153.3125 239.628906 153.402344 243.078125 C 153.433594 244.1875 153.460938 245.300781 154.007812 246.296875 C 154.457031 247.105469 155.09375 247.765625 155.820312 248.328125 C 157.660156 249.746094 160 250.539062 162.21875 251.132812 C 163.476562 251.472656 164.800781 251.664062 166.042969 252.058594 C 167.160156 252.414062 168.203125 252.414062 169.371094 252.625 C 170.667969 252.859375 172.011719 252.886719 173.226562 252.292969 C 174.457031 251.683594 175.382812 250.578125 176.0625 249.414062 C 177.683594 246.636719 178.652344 243.414062 179.285156 240.28125 C 179.613281 238.644531 179.777344 236.925781 179.871094 235.261719 C 179.953125 233.800781 179.808594 232.355469 178.65625 231.332031 C 177.566406 230.359375 175.992188 229.90625 174.648438 229.414062 Z M 177.957031 236.769531 C 177.601562 240.007812 176.644531 243.28125 175.394531 246.277344 C 174.859375 247.554688 174.285156 248.9375 173.28125 249.925781 C 171.085938 252.089844 166.878906 250.277344 164.398438 249.648438 C 162.636719 249.199219 160.878906 248.707031 159.21875 247.949219 C 157.945312 247.367188 156.421875 246.546875 155.796875 245.214844 C 155.394531 244.359375 155.488281 243.269531 155.507812 242.34375 C 155.542969 240.863281 155.722656 239.386719 155.988281 237.929688 C 156.246094 236.5 156.601562 235.097656 156.996094 233.703125 C 157.335938 232.476562 157.632812 231.164062 158.226562 230.023438 C 158.800781 228.914062 159.625 228.347656 160.898438 228.363281 C 162.390625 228.386719 163.917969 228.660156 165.382812 228.90625 C 168.371094 229.410156 171.308594 230.164062 174.164062 231.167969 C 175.261719 231.554688 176.820312 231.90625 177.628906 232.804688 C 178.5 233.773438 178.085938 235.601562 177.960938 236.765625 Z M 177.957031 236.769531 " fill-opacity="1" fill-rule="nonzero"/><path fill="currentColor" d="M 141.613281 244.570312 C 141.390625 242.941406 141.078125 241.320312 140.683594 239.722656 C 140.34375 238.355469 140.023438 236.859375 139.320312 235.625 C 137.699219 232.796875 134.261719 232.882812 131.378906 232.695312 C 128.035156 232.480469 124.660156 232.511719 121.324219 232.835938 C 119.964844 232.96875 118.617188 233.019531 118.300781 234.589844 C 118.140625 235.386719 118.015625 236.195312 117.890625 237 C 117.566406 239.078125 117.285156 241.179688 117.210938 243.285156 C 117.074219 247.074219 117.519531 252.164062 121.78125 253.511719 C 124.207031 254.277344 126.832031 254.054688 129.339844 254.03125 C 131.644531 254.007812 134.03125 253.910156 136.308594 253.605469 C 138.113281 253.363281 140.539062 253.207031 141.679688 251.554688 C 142.121094 250.921875 142.058594 250.175781 142.03125 249.445312 C 141.96875 247.8125 141.839844 246.1875 141.617188 244.570312 Z M 137.753906 251.628906 C 136.1875 252.09375 134.539062 252.226562 132.914062 252.378906 C 130.339844 252.617188 127.734375 252.566406 125.167969 252.210938 C 123.511719 251.980469 121.585938 251.753906 120.53125 250.300781 C 119.617188 249.035156 119.347656 247.351562 119.210938 245.835938 C 118.898438 242.378906 119.445312 238.875 120.082031 235.488281 C 120.109375 235.355469 120.109375 235.125 120.171875 235 C 120.207031 234.941406 120.199219 234.917969 120.191406 234.90625 C 120.207031 234.914062 120.25 234.917969 120.359375 234.90625 C 121.109375 234.792969 121.878906 234.75 122.636719 234.691406 C 124.125 234.574219 125.613281 234.515625 127.109375 234.511719 C 128.523438 234.511719 129.9375 234.5625 131.351562 234.660156 C 132.722656 234.761719 134.183594 234.839844 135.523438 235.148438 C 136.941406 235.476562 137.585938 236.453125 138.03125 237.765625 C 138.507812 239.167969 138.839844 240.640625 139.132812 242.09375 C 139.449219 243.652344 139.683594 245.234375 139.839844 246.816406 C 139.914062 247.609375 139.972656 248.402344 140.007812 249.199219 C 140.078125 250.902344 139.355469 251.148438 137.75 251.625 Z M 137.753906 251.628906 " fill-opacity="1" fill-rule="nonzero"/><path fill="currentColor" d="M 120.703125 150.136719 C 120.3125 149.222656 119.964844 148.285156 119.664062 147.34375 C 119.046875 145.417969 118.648438 143.429688 118.441406 141.425781 C 118.359375 140.636719 117.175781 140.863281 117.238281 141.636719 C 117.410156 143.746094 117.804688 145.835938 118.417969 147.859375 C 118.714844 148.835938 119.066406 149.789062 119.464844 150.726562 C 119.855469 151.640625 120.253906 152.800781 121.015625 153.46875 C 121.402344 153.808594 121.957031 153.347656 121.890625 152.910156 C 121.8125 152.386719 121.515625 151.914062 121.292969 151.445312 C 121.085938 151.011719 120.886719 150.578125 120.703125 150.140625 Z M 120.703125 150.136719 " fill-opacity="1" fill-rule="nonzero"/><path fill="currentColor" d="M 163.773438 138.199219 C 162.855469 138.914062 161.996094 139.699219 161.207031 140.554688 C 160.808594 140.984375 160.390625 141.429688 160.054688 141.914062 C 159.710938 142.414062 159.304688 142.914062 159.09375 143.488281 C 158.910156 143.984375 159.5625 144.5 159.972656 144.101562 C 160.394531 143.691406 160.691406 143.175781 161.078125 142.734375 C 161.449219 142.308594 161.785156 141.851562 162.160156 141.425781 C 162.894531 140.589844 163.699219 139.824219 164.554688 139.121094 C 165.15625 138.625 164.386719 137.722656 163.773438 138.199219 Z M 163.773438 138.199219 " fill-opacity="1" fill-rule="nonzero"/><path fill="currentColor" d="M 166.414062 167.542969 C 166.277344 167 166.144531 166.457031 166.035156 165.910156 C 165.820312 164.835938 165.671875 163.753906 165.476562 162.675781 C 165.355469 161.980469 164.230469 161.988281 164.207031 162.726562 C 164.171875 163.863281 164.296875 165.058594 164.5 166.179688 C 164.597656 166.726562 164.710938 167.277344 164.847656 167.820312 C 165 168.40625 165.128906 169.125 165.601562 169.535156 C 165.523438 169.445312 165.449219 169.355469 165.375 169.265625 C 165.5 169.550781 165.628906 169.828125 165.78125 170.105469 C 166.074219 170.648438 166.9375 170.40625 166.835938 169.769531 C 166.789062 169.472656 166.730469 169.179688 166.675781 168.886719 C 166.691406 168.4375 166.523438 167.976562 166.414062 167.542969 Z M 166.414062 167.542969 " fill-opacity="1" fill-rule="nonzero"/><path fill="currentColor" d="M 122.210938 240.90625 C 121.808594 240.867188 121.523438 241.160156 121.453125 241.53125 C 121.25 242.628906 121.140625 243.742188 121.128906 244.859375 C 121.128906 245.417969 121.125 245.992188 121.195312 246.550781 C 121.265625 247.140625 121.464844 247.683594 121.660156 248.25 C 121.828125 248.746094 122.6875 248.589844 122.683594 248.070312 C 122.683594 247.816406 122.652344 247.542969 122.683594 247.292969 C 122.722656 246.996094 122.699219 246.714844 122.6875 246.414062 C 122.664062 245.902344 122.613281 245.390625 122.609375 244.878906 C 122.589844 243.800781 122.671875 242.726562 122.832031 241.667969 C 122.890625 241.296875 122.5625 240.945312 122.207031 240.910156 Z M 122.210938 240.90625 " fill-opacity="1" fill-rule="nonzero"/><path fill="currentColor" d="M 174.878906 235.175781 C 171.277344 233.628906 167.34375 232.832031 163.4375 233.4375 C 162.871094 233.523438 162.894531 234.417969 163.476562 234.457031 C 167.179688 234.6875 170.882812 235.21875 174.34375 236.613281 C 175.265625 236.984375 175.777344 235.5625 174.878906 235.175781 Z M 174.878906 235.175781 " fill-opacity="1" fill-rule="nonzero"/><path fill="currentColor" d="M 107.285156 211.871094 C 106.902344 208.472656 106.421875 205.085938 106.074219 201.691406 C 106.015625 201.125 105.164062 201.289062 105.210938 201.84375 C 105.492188 205.261719 105.601562 208.691406 105.898438 212.117188 C 106.046875 213.808594 106.21875 215.5 106.445312 217.183594 C 106.664062 218.839844 106.847656 220.601562 107.496094 222.148438 C 107.695312 222.625 108.527344 222.507812 108.527344 221.964844 C 108.527344 220.28125 108.136719 218.589844 107.902344 216.925781 C 107.664062 215.246094 107.46875 213.554688 107.28125 211.871094 Z M 107.285156 211.871094 " fill-opacity="1" fill-rule="nonzero"/><path fill="currentColor" d="M 107.601562 227.238281 C 106.597656 227.238281 106.445312 228.800781 107.453125 228.800781 C 108.460938 228.800781 108.609375 227.238281 107.601562 227.238281 Z M 107.601562 227.238281 " fill-opacity="1" fill-rule="nonzero"/><path fill="currentColor" d="M 123.308594 190.519531 C 127.644531 193.65625 133.453125 195.613281 138.832031 195.546875 C 138.917969 195.585938 139.023438 195.609375 139.144531 195.605469 C 140.632812 195.578125 141.515625 195.046875 142.238281 193.742188 C 142.941406 192.457031 143.535156 191.113281 144 189.722656 C 144.941406 186.886719 145.351562 183.890625 145.203125 180.910156 C 145.132812 179.472656 144.882812 178.074219 143.796875 177.046875 C 142.78125 176.089844 141.421875 175.460938 140.171875 174.871094 C 137.367188 173.550781 134.378906 172.65625 131.410156 171.800781 C 130.132812 171.429688 128.746094 171.054688 127.410156 171.355469 C 126.171875 171.632812 125.285156 172.460938 124.601562 173.496094 C 123.414062 175.308594 122.234375 177.1875 121.226562 179.105469 C 120.226562 181.007812 119.335938 183.171875 119.5625 185.367188 C 119.804688 187.683594 121.527344 189.230469 123.308594 190.519531 Z M 121.515625 182.1875 C 122.09375 180.34375 123.074219 178.652344 124.074219 177.011719 C 124.515625 176.289062 124.976562 175.570312 125.417969 174.84375 C 126.046875 173.808594 126.753906 172.828125 128.050781 172.695312 C 129.308594 172.566406 130.597656 173.066406 131.777344 173.425781 C 133.046875 173.804688 134.308594 174.1875 135.5625 174.617188 C 137.90625 175.421875 140.625 176.324219 142.554688 177.929688 C 143.796875 178.960938 143.746094 180.683594 143.734375 182.167969 C 143.714844 183.621094 143.566406 185.066406 143.285156 186.488281 C 142.996094 187.941406 142.558594 189.367188 141.996094 190.738281 C 141.699219 191.460938 141.367188 192.179688 140.992188 192.863281 C 140.578125 193.617188 140.21875 194.066406 139.296875 194.085938 C 139.214844 194.085938 139.152344 194.113281 139.082031 194.132812 C 134.984375 193.980469 130.753906 192.707031 127.140625 190.8125 C 125.386719 189.890625 123.503906 188.742188 122.183594 187.234375 C 120.933594 185.800781 120.972656 183.910156 121.519531 182.183594 Z M 121.515625 182.1875 " fill-opacity="1" fill-rule="nonzero"/><path fill="currentColor" d="M 124.691406 184.796875 C 124.902344 184.816406 125.148438 184.679688 125.210938 184.46875 C 125.320312 184.089844 125.320312 183.6875 125.367188 183.300781 C 125.410156 182.976562 125.457031 182.65625 125.539062 182.339844 C 125.710938 181.65625 125.964844 180.996094 126.308594 180.382812 C 126.449219 180.132812 126.429688 179.820312 126.179688 179.648438 C 125.960938 179.492188 125.589844 179.53125 125.445312 179.777344 C 125.035156 180.460938 124.710938 181.1875 124.496094 181.953125 C 124.390625 182.335938 124.300781 182.722656 124.246094 183.121094 C 124.191406 183.519531 124.132812 183.992188 124.242188 184.382812 C 124.304688 184.597656 124.453125 184.773438 124.691406 184.796875 Z M 124.691406 184.796875 " fill-opacity="1" fill-rule="nonzero"/><path fill="currentColor" d="M 165.609375 180.898438 C 165.53125 180.839844 165.429688 180.800781 165.3125 180.785156 C 163.839844 180.550781 162.878906 180.914062 161.9375 182.074219 C 161.015625 183.214844 160.191406 184.429688 159.492188 185.71875 C 158.0625 188.34375 157.132812 191.214844 156.746094 194.179688 C 156.558594 195.605469 156.558594 197.023438 157.449219 198.230469 C 158.277344 199.355469 159.507812 200.214844 160.632812 201.015625 C 163.15625 202.816406 165.9375 204.222656 168.710938 205.59375 C 169.90625 206.183594 171.203125 206.800781 172.566406 206.742188 C 173.832031 206.683594 174.855469 206.027344 175.707031 205.128906 C 177.195312 203.5625 178.691406 201.917969 180.023438 200.210938 C 181.347656 198.519531 182.605469 196.542969 182.769531 194.34375 C 182.945312 192.023438 181.523438 190.195312 179.996094 188.605469 C 176.289062 184.746094 170.917969 181.789062 165.613281 180.902344 Z M 180.28125 197.121094 C 179.386719 198.832031 178.125 200.320312 176.851562 201.757812 C 176.285156 202.394531 175.710938 203.019531 175.144531 203.652344 C 174.34375 204.5625 173.472656 205.402344 172.171875 205.304688 C 170.914062 205.207031 169.730469 204.484375 168.628906 203.921875 C 167.453125 203.324219 166.273438 202.722656 165.117188 202.078125 C 162.957031 200.871094 160.4375 199.5 158.824219 197.578125 C 157.785156 196.34375 158.140625 194.652344 158.417969 193.199219 C 158.691406 191.773438 159.097656 190.378906 159.625 189.027344 C 160.167969 187.648438 160.851562 186.320312 161.648438 185.074219 C 162.070312 184.410156 162.523438 183.769531 163.015625 183.15625 C 163.558594 182.484375 163.992188 182.109375 164.902344 182.253906 C 164.980469 182.265625 165.046875 182.253906 165.121094 182.242188 C 169.125 183.121094 173.066406 185.121094 176.285156 187.628906 C 177.847656 188.847656 179.5 190.3125 180.527344 192.027344 C 181.507812 193.660156 181.132812 195.515625 180.289062 197.117188 Z M 180.28125 197.121094 " fill-opacity="1" fill-rule="nonzero"/><path fill="currentColor" d="M 159.074219 216.582031 C 159.535156 215.601562 159.949219 214.597656 160.308594 213.574219 C 160.691406 212.492188 161.171875 211.234375 160.714844 210.097656 C 160.339844 209.164062 159.457031 208.488281 158.726562 207.839844 C 157.863281 207.074219 156.957031 206.351562 156.015625 205.683594 C 154.148438 204.351562 152.152344 203.1875 150.054688 202.257812 C 148.375 201.507812 145.550781 199.886719 144.058594 201.722656 C 143.320312 202.636719 142.761719 203.785156 142.191406 204.808594 C 141.605469 205.851562 141.050781 206.914062 140.542969 207.996094 C 139.941406 209.273438 139.429688 210.613281 138.996094 211.960938 C 138.652344 213.03125 138.367188 214.105469 138.589844 215.234375 C 139.011719 217.375 140.804688 218.816406 142.636719 219.796875 C 144.808594 220.960938 146.867188 221.976562 149.226562 222.78125 C 151.394531 223.519531 153.628906 224.429688 155.410156 222.449219 C 156.9375 220.753906 158.113281 218.636719 159.082031 216.582031 Z M 152.535156 221.988281 C 151.441406 221.894531 150.265625 221.328125 149.230469 220.96875 C 146.25 219.9375 141.179688 218.773438 140.28125 215.164062 C 139.867188 213.503906 140.957031 211.476562 141.636719 210.011719 C 142.503906 208.148438 143.476562 206.34375 144.523438 204.578125 C 144.734375 204.226562 144.945312 203.875 145.15625 203.527344 C 145.460938 203.039062 145.570312 202.695312 146.179688 202.816406 C 147.089844 202.996094 148.015625 203.449219 148.867188 203.808594 C 152.363281 205.277344 155.613281 207.332031 158.390625 209.921875 C 159.136719 210.621094 159.265625 211.136719 158.992188 212.140625 C 158.71875 213.132812 158.355469 214.117188 157.945312 215.058594 C 157.167969 216.847656 156.199219 218.550781 155.058594 220.132812 C 154.417969 221.027344 153.777344 222.089844 152.539062 221.984375 Z M 152.535156 221.988281 " fill-opacity="1" fill-rule="nonzero"/><path fill="currentColor" d="M 145.671875 207.320312 C 145.4375 207.199219 145.082031 207.242188 144.933594 207.496094 C 144.46875 208.304688 144.023438 209.128906 143.601562 209.960938 C 143.394531 210.371094 143.195312 210.777344 143 211.195312 C 142.796875 211.636719 142.574219 212.058594 142.519531 212.546875 C 142.445312 213.183594 143.269531 213.417969 143.636719 212.953125 C 143.933594 212.574219 144.078125 212.101562 144.261719 211.65625 C 144.433594 211.25 144.609375 210.84375 144.789062 210.441406 C 145.148438 209.625 145.539062 208.816406 145.949219 208.019531 C 146.078125 207.769531 145.902344 207.429688 145.671875 207.3125 Z M 145.671875 207.320312 " fill-opacity="1" fill-rule="nonzero"/></svg>