<svg xmlns="http://www.w3.org/2000/svg" xmlns:xlink="http://www.w3.org/1999/xlink" width="400" zoomAndPan="magnify" viewBox="0 0 300 299.999988" height="400" preserveAspectRatio="xMidYMid meet" version="1.0"><path fill="currentColor" d="M 212.652344 102.601562 C 208.898438 95.882812 200.515625 94.421875 196.921875 94.105469 C 197.203125 90.007812 196.070312 83.652344 190.105469 81.03125 C 184.378906 78.519531 179.402344 80.113281 176.78125 81.417969 C 175.816406 77.46875 172.648438 69.433594 162.664062 66.585938 C 161.871094 66.363281 161.113281 66.179688 160.382812 66.046875 C 163.617188 56.625 164.890625 54.609375 165.316406 54.195312 C 167.824219 51.707031 173.03125 54.097656 178.144531 56.765625 C 181.707031 58.625 188.011719 61.585938 190.269531 60.585938 C 192.320312 59.667969 195.304688 53.378906 195.507812 52.847656 C 196.238281 50.929688 194.203125 49.675781 193.328125 49.144531 C 191.921875 48.277344 189.609375 47.144531 186.105469 45.410156 C 183.945312 44.34375 181.308594 43.046875 178.128906 41.441406 C 156.976562 30.253906 150.066406 52.410156 144.632812 70.648438 C 141.9375 69.4375 136.746094 67.949219 130.183594 70.054688 C 122.65625 72.46875 120.109375 80.089844 119.316406 83.707031 C 116.96875 82.890625 112.730469 82.007812 108.671875 84.121094 C 104.132812 86.496094 102.523438 92.113281 102.011719 94.777344 C 98.136719 94.601562 95.210938 95.625 93.292969 97.816406 C 90.457031 101.058594 90.828125 105.859375 91.160156 107.949219 C 87.917969 110.4375 83.84375 116.121094 87.441406 123.40625 C 88.515625 125.59375 90.003906 127.039062 91.695312 127.933594 C 91.199219 132.171875 90.789062 138.238281 90.515625 146.976562 C 90.398438 150.644531 91.132812 153.164062 92.828125 154.894531 C 93.714844 155.816406 94.828125 156.480469 96.199219 156.957031 C 96.234375 161.746094 96.324219 167.949219 96.496094 174.835938 C 93.335938 176.359375 92.988281 179.96875 93.507812 182.976562 C 94.6875 193.054688 96.339844 237.234375 98.390625 238.117188 C 98.65625 238.597656 99.078125 239.390625 101.6875 240.160156 C 108.675781 269.734375 125.523438 268.964844 150.65625 269.515625 C 166.886719 269.515625 185.3125 266.921875 189.3125 254.425781 C 190.410156 251.003906 191.515625 244.863281 192.59375 237.207031 C 194.9375 236.191406 196.507812 234.835938 197.03125 232.984375 C 198.765625 226.855469 202.722656 195.605469 202.949219 184.082031 C 203.113281 175.984375 202.535156 173.058594 199.105469 171.800781 C 199.59375 165.554688 200.003906 160.089844 200.300781 155.957031 C 207.171875 152.902344 206.75 143.214844 206.238281 133.71875 C 207.476562 133.238281 208.691406 132.496094 209.839844 131.429688 C 214.472656 127.320312 213.746094 121.632812 210.609375 117.742188 C 213.230469 114.703125 216.105469 108.785156 212.652344 102.601562 Z M 170.476562 41.734375 C 174.800781 42.59375 181.203125 46.445312 184.796875 48.070312 C 188.738281 50.011719 191.691406 51.46875 192.566406 52.195312 C 191.832031 53.832031 189.878906 57.144531 189.070312 57.855469 C 188.121094 57.914062 184.582031 56.78125 179.515625 54.144531 C 176.566406 52.601562 172.699219 50.582031 169.160156 50.238281 Z M 168.617188 41.453125 L 167.253906 50.230469 C 166.972656 50.261719 166.691406 50.304688 166.417969 50.367188 L 164.285156 41.863281 C 165.609375 41.445312 167.054688 41.3125 168.617188 41.453125 Z M 162.523438 42.59375 L 164.640625 51.023438 C 164.175781 51.285156 163.730469 51.609375 163.316406 52.011719 L 158.09375 46.445312 C 159.507812 44.683594 160.964844 43.417969 162.523438 42.59375 Z M 152.878906 55.640625 C 154.234375 52.542969 155.582031 50.015625 156.960938 47.996094 L 162.203125 53.574219 C 161.019531 55.707031 159.402344 59.757812 157.367188 65.691406 C 153.449219 65.511719 150.574219 66.59375 148.550781 67.941406 C 150.054688 63.023438 151.542969 58.660156 152.878906 55.640625 Z M 146.722656 74.121094 C 146.90625 73.980469 147.054688 73.792969 147.152344 73.585938 C 147.269531 73.34375 149.582031 68.683594 156.382812 68.625 C 153.597656 76.492188 148.105469 96.089844 144.464844 107.625 C 142.226562 107.140625 140.292969 106.273438 138.699219 105.335938 C 139.746094 100.882812 143.109375 86.792969 146.722656 74.121094 Z M 186.492188 253.523438 C 181.257812 269.625 144.945312 266.675781 131.203125 265.605469 C 120.558594 264.773438 110.136719 261.019531 104.921875 240.886719 C 116.839844 243 147.472656 242.789062 159.878906 241.53125 C 169.007812 240.574219 182.128906 240.25 189.441406 238.273438 C 188.46875 245.0625 187.46875 250.464844 186.492188 253.523438 Z M 199.988281 184.019531 C 199.757812 195.398438 195.882812 226.167969 194.179688 232.175781 C 194.03125 232.703125 193.65625 233.175781 193.085938 233.605469 C 192.328125 234.167969 191.234375 234.648438 189.890625 235.066406 C 184.882812 236.628906 176.417969 237.25 169.160156 237.789062 C 151.789062 239.734375 118.589844 240.386719 104.199219 237.789062 C 102.449219 237.390625 101.300781 237.175781 100.910156 236.507812 C 100.449219 235.390625 100.019531 232.234375 99.621094 228.078125 C 98.453125 216.007812 97.757812 198.339844 96.855469 186.753906 C 96.722656 185.082031 96.589844 183.671875 96.449219 182.597656 C 96.234375 180.265625 96.089844 179.351562 96.9375 178.191406 C 101.773438 174.429688 116.019531 175.375 138.515625 174.605469 C 143.617188 174.511719 149.324219 174.398438 155.65625 174.257812 C 156.070312 174.34375 183.59375 172.882812 192.367188 173.734375 C 194.765625 174.007812 197.554688 173.800781 199.046875 175.175781 C 199.964844 176.28125 200.089844 179.140625 199.988281 184.019531 Z M 99.210938 157.679688 C 105.691406 158.609375 117.796875 157.980469 125.828125 158.191406 C 144.578125 158.289062 185.96875 158.667969 197.269531 156.808594 C 196.988281 160.679688 196.617188 165.585938 196.179688 171.132812 C 186.890625 169.707031 158.191406 171.226562 155.539062 171.304688 C 138.550781 171.71875 104.617188 171.839844 99.472656 173.742188 C 99.332031 167.605469 99.25 162.074219 99.210938 157.679688 Z M 200.566406 152.265625 C 199.765625 153.003906 198.71875 153.515625 197.492188 153.761719 C 187.398438 155.765625 143.019531 155.316406 120.753906 155.199219 C 114.164062 155.109375 103.683594 155.539062 99.183594 154.675781 C 94.953125 153.964844 93.253906 152 93.472656 147.066406 C 93.738281 138.621094 94.132812 132.867188 94.554688 128.949219 C 97.871094 129.636719 101.464844 128.910156 104.09375 127.910156 C 105.515625 130.859375 109.449219 137.363281 116.769531 138.253906 C 123.621094 139.082031 128.664062 133.933594 130.976562 130.933594 C 138.820312 142.71875 153.527344 138.804688 161.8125 131.808594 C 164.515625 134.746094 173.027344 140.707031 180.722656 138.816406 C 188.285156 137.265625 191.773438 134.058594 193.210938 132.207031 C 195.1875 133.238281 199.152344 134.917969 203.304688 134.445312 C 203.75 143.105469 203.691406 149.414062 200.566406 152.265625 Z M 207.601562 116.609375 C 206.972656 117.148438 206.96875 118.199219 207.574219 118.757812 C 210.429688 121.667969 212.136719 126.984375 206.070312 130.519531 C 201.476562 133.226562 194.332031 129.636719 193.542969 128.984375 C 192.808594 128.496094 191.738281 128.824219 191.378906 129.621094 C 191.367188 129.667969 189.226562 134.042969 180.128906 135.910156 C 170.996094 137.777344 163.105469 128.890625 163.027344 128.800781 C 162.511719 128.171875 161.472656 128.117188 160.890625 128.691406 C 154.171875 135.011719 139.125 140.632812 132.449219 127.570312 C 132.226562 127.058594 131.738281 126.71875 131.183594 126.683594 C 130.621094 126.660156 130.09375 126.933594 129.8125 127.414062 C 122.699219 138.695312 111.488281 137.761719 106.257812 125.46875 C 105.988281 124.660156 104.984375 124.257812 104.226562 124.636719 C 103.9375 124.777344 99.101562 127.039062 94.917969 126.015625 C 93.929688 125.777344 92.984375 125.363281 92.144531 124.691406 C 91.351562 124.066406 90.65625 123.222656 90.101562 122.097656 C 86.390625 114.578125 93.292969 110.054688 93.582031 109.859375 C 94.125 109.519531 94.382812 108.875 94.234375 108.253906 C 93.28125 103.710938 93.714844 96.640625 103.09375 97.839844 C 103.894531 97.941406 104.664062 97.308594 104.738281 96.511719 C 104.746094 96.4375 105.515625 89.113281 110.042969 86.75 C 114.554688 84.402344 119.707031 87.066406 119.753906 87.089844 C 120.640625 87.59375 121.84375 86.957031 121.921875 85.941406 C 121.9375 85.839844 123.160156 75.417969 131.085938 72.875 C 137.121094 70.933594 141.746094 72.519531 143.804688 73.511719 C 140.449219 85.277344 137.359375 98.097656 136.078125 103.511719 C 134.492188 102.238281 133.640625 101.195312 133.632812 101.179688 C 133.257812 100.726562 132.714844 100.488281 132.175781 100.488281 C 130.652344 100.445312 129.695312 102.398438 130.722656 103.570312 C 134.546875 108.257812 145.996094 115.855469 158.9375 109.238281 C 161.152344 108.105469 159.539062 104.8125 157.292969 105.851562 C 153.652344 107.585938 150.636719 108.148438 147.464844 108.023438 C 147.96875 106.503906 148.738281 104.074219 149.804688 100.355469 C 154.019531 85.734375 157.128906 75.726562 159.410156 68.882812 C 160.179688 69.007812 160.996094 69.195312 161.855469 69.4375 C 173.203125 72.667969 174.195312 83.429688 174.234375 83.882812 C 174.285156 85.023438 175.726562 85.660156 176.601562 84.949219 C 176.832031 84.78125 182.253906 80.816406 188.914062 83.75 C 195.320312 86.566406 193.871094 94.875 193.800781 95.222656 C 193.613281 96.109375 194.359375 97.003906 195.261719 96.980469 C 195.367188 96.980469 206.179688 97.082031 210.070312 104.046875 C 213.800781 110.726562 207.855469 116.371094 207.601562 116.609375 Z M 207.601562 116.609375 " fill-opacity="1" fill-rule="nonzero"/><path fill="currentColor" d="M 161.898438 94.425781 C 161.882812 94.410156 162.464844 90.546875 165.253906 90.710938 C 167.894531 90.808594 167.523438 95.992188 167.523438 96.003906 C 167.417969 98.484375 171.054688 98.738281 171.289062 96.257812 C 171.347656 96.199219 171.757812 86.753906 165.089844 86.941406 C 159.039062 86.941406 158.167969 93.90625 158.167969 93.925781 C 157.898438 96.394531 161.5 96.886719 161.898438 94.425781 Z M 161.898438 94.425781 " fill-opacity="1" fill-rule="nonzero"/><path fill="currentColor" d="M 191.523438 102.691406 C 184.414062 100.121094 180.410156 107.777344 179.960938 109.296875 C 179.5 110.5 180.457031 111.855469 181.734375 111.832031 C 182.503906 111.832031 183.226562 111.359375 183.507812 110.597656 C 183.710938 109.847656 186.164062 104.757812 190.34375 106.277344 C 195.164062 107.867188 194.332031 111.59375 194.332031 111.605469 C 194.101562 112.617188 194.742188 113.625 195.753906 113.855469 C 196.742188 114.085938 197.777344 113.449219 198.003906 112.429688 C 198.011719 112.410156 199.589844 105.355469 191.523438 102.691406 Z M 191.523438 102.691406 " fill-opacity="1" fill-rule="nonzero"/><path fill="currentColor" d="M 117.339844 98.179688 C 118.351562 98.308594 119.320312 97.574219 119.441406 96.535156 C 119.441406 96.523438 119.917969 92.433594 122.574219 92.433594 C 125.449219 92.386719 125.746094 95.910156 125.691406 95.9375 C 125.871094 98.410156 129.507812 98.242188 129.453125 95.761719 C 129.511719 95.566406 128.964844 88.570312 122.496094 88.660156 C 116.535156 88.660156 115.695312 96.058594 115.691406 96.078125 C 115.570312 97.113281 116.300781 98.054688 117.339844 98.179688 Z M 117.339844 98.179688 " fill-opacity="1" fill-rule="nonzero"/><path fill="currentColor" d="M 101.066406 104.671875 C 94.792969 104.84375 95.078125 112.191406 95.304688 113.027344 C 95.738281 115.484375 99.335938 114.941406 99.035156 112.480469 C 98.984375 112.398438 98.601562 108.570312 100.929688 108.476562 C 102.480469 108.476562 103.289062 111.363281 103.289062 111.371094 C 104.042969 113.753906 107.539062 112.742188 106.917969 110.335938 C 106.914062 110.320312 105.347656 104.671875 101.066406 104.671875 Z M 101.066406 104.671875 " fill-opacity="1" fill-rule="nonzero"/><path fill="currentColor" d="M 131.742188 113.628906 C 127.71875 113.132812 124.601562 115.648438 123.359375 118.027344 C 117.210938 111.199219 111.949219 118.613281 111.246094 122.421875 C 110.679688 124.832031 114.1875 125.773438 114.890625 123.378906 C 114.894531 123.371094 115.761719 119.632812 118.019531 119.058594 C 118.121094 119.03125 118.226562 119.019531 118.332031 119.019531 C 120.15625 119.019531 122.144531 122.792969 122.167969 122.84375 L 123.820312 121.945312 L 122.167969 122.847656 C 122.484375 123.46875 123.164062 123.835938 123.824219 123.832031 C 124.71875 123.859375 125.578125 123.109375 125.683594 122.242188 C 125.800781 121.378906 127.359375 116.886719 131.417969 117.378906 C 136.070312 117.792969 135.855469 123.480469 135.855469 123.496094 C 135.820312 124.53125 136.636719 125.402344 137.675781 125.4375 C 138.710938 125.46875 139.589844 124.65625 139.617188 123.613281 C 139.617188 123.589844 139.976562 114.367188 131.742188 113.628906 Z M 131.742188 113.628906 " fill-opacity="1" fill-rule="nonzero"/><path fill="currentColor" d="M 165.296875 117.519531 C 159.234375 116.960938 157.9375 124.789062 158.023438 124.925781 C 157.785156 127.398438 161.402344 127.847656 161.773438 125.382812 C 161.753906 125.351562 162.359375 121.042969 165.074219 121.285156 C 167.9375 121.464844 168.023438 124.773438 168.023438 124.785156 C 168.195312 127.261719 171.839844 127.085938 171.785156 124.605469 C 171.785156 124.585938 171.636719 117.917969 165.296875 117.519531 Z M 165.296875 117.519531 " fill-opacity="1" fill-rule="nonzero"/></svg>