<svg xmlns="http://www.w3.org/2000/svg" xmlns:xlink="http://www.w3.org/1999/xlink" width="400" zoomAndPan="magnify" viewBox="0 0 300 299.999988" height="400" preserveAspectRatio="xMidYMid meet" version="1.0"><defs><clipPath id="039ba1008d"><path d="M 31 61 L 269 61 L 269 242.25 L 31 242.25 Z M 31 61 " clip-rule="nonzero"/></clipPath></defs><g clip-path="url(#039ba1008d)"><path fill="currentColor" d="M 124.859375 192.988281 C 123.488281 191.859375 121.960938 191.425781 120.25 191.695312 C 119.585938 191.734375 118.90625 191.773438 118.238281 191.828125 C 113.933594 192.320312 109.554688 192.839844 105.316406 193.691406 C 96.664062 195.421875 88.421875 198.097656 80.371094 201.757812 C 65.878906 208.320312 52.132812 216.488281 37.601562 222.992188 C 38.855469 225.363281 40.324219 227.613281 41.910156 229.789062 C 46.972656 225.292969 53.632812 222.566406 59.253906 218.839844 C 65.847656 214.453125 72.753906 211.011719 79.832031 207.492188 C 92.738281 201.058594 106.429688 197.371094 120.464844 194.15625 C 121.929688 193.828125 123.476562 193.542969 124.859375 192.988281 Z M 176.019531 184.859375 C 175.105469 184.070312 174.265625 183.183594 173.382812 182.222656 C 171.644531 180.3125 171.171875 179.777344 168.605469 179.863281 C 169.066406 180.476562 168.960938 180.9375 168.953125 181.449219 C 168.9375 181.636719 168.953125 181.835938 169 182.046875 C 163.277344 182.332031 158.046875 178.78125 152.480469 178.867188 C 146.21875 178.945312 139.613281 178.464844 133.425781 179.53125 C 124.117188 181.125 114.09375 182.609375 105.15625 186.257812 C 106.6875 185.988281 108.210938 185.710938 109.742188 185.449219 C 118.316406 183.886719 126.847656 182.191406 135.5625 181.558594 C 144.886719 180.886719 154.136719 180.96875 163.40625 182.183594 C 167.699219 182.742188 171.882812 184.007812 176.019531 184.859375 Z M 190.371094 207.386719 C 191.199219 206.882812 192.027344 206.371094 192.863281 205.871094 C 192.863281 205.871094 192.855469 205.871094 192.855469 205.855469 C 184.578125 198.460938 171.070312 199.351562 160.699219 199.050781 C 146.363281 198.625 132.46875 197.796875 118.554688 202.042969 C 105.316406 206.09375 92.628906 212.25 79.535156 216.875 C 72.296875 219.433594 66.902344 223.632812 60.28125 227.195312 C 55.496094 229.789062 50.160156 231.542969 45.691406 234.621094 C 46.53125 235.648438 47.398438 236.675781 48.25 237.683594 C 60.445312 233.304688 70.3125 224.136719 82.769531 219.984375 C 94.910156 215.929688 107.644531 214.066406 119.753906 210.015625 C 127.234375 207.523438 134.703125 204.980469 142.359375 203.257812 C 140.183594 203.324219 137.925781 203.433594 135.601562 203.605469 C 127.976562 204.300781 121.238281 205.910156 116.429688 207.269531 C 116.136719 207.347656 115.828125 207.417969 115.546875 207.492188 C 115.253906 207.585938 114.976562 207.695312 114.707031 207.789062 C 114.171875 207.972656 113.652344 208.152344 113.191406 208.320312 C 112.230469 208.636719 111.402344 208.910156 110.722656 209.117188 C 109.355469 209.519531 108.566406 209.683594 108.511719 209.550781 C 108.457031 209.402344 109.121094 208.964844 110.390625 208.304688 C 111.015625 207.972656 111.804688 207.585938 112.710938 207.144531 C 113.167969 206.9375 113.652344 206.710938 114.171875 206.472656 C 114.425781 206.347656 114.699219 206.21875 114.976562 206.09375 C 115.253906 205.984375 115.5625 205.886719 115.859375 205.777344 C 120.691406 203.976562 127.597656 202.074219 135.398438 201.371094 C 142.050781 200.835938 148.148438 201.074219 152.945312 201.515625 C 154.5625 201.371094 156.167969 201.261719 157.808594 201.207031 C 169.363281 200.898438 179.808594 203.125 190.371094 207.386719 Z M 193.835938 178.25 C 194.277344 175.773438 191.839844 175.921875 190.09375 175.410156 C 187.679688 174.722656 186.203125 173.199219 187.8125 171.171875 C 185.964844 169.386719 183.675781 167.832031 181.152344 169.441406 C 180.382812 169.933594 179.113281 170.042969 178.261719 169.765625 C 175.570312 168.867188 173.933594 166.285156 171.1875 165.714844 C 170.921875 167.003906 170.542969 168.441406 169.308594 169.101562 C 168.179688 169.695312 166.816406 169.046875 166.601562 167.792969 C 166.339844 166.136719 165.125 166.5 164.21875 167.429688 C 163.539062 168.132812 162.796875 168.425781 161.929688 168.441406 C 159.101562 172.75 158.527344 176.050781 152.550781 174.535156 C 151.777344 174.335938 151.628906 173.398438 152.109375 172.851562 C 154.878906 169.710938 143.378906 171.457031 142.597656 171.652344 C 138.839844 172.601562 135.667969 174.375 132.121094 175.90625 C 122.050781 180.273438 110.925781 179.089844 100.839844 183.097656 C 90.230469 187.3125 80.164062 192.414062 69.257812 195.785156 C 62.933594 197.742188 56.980469 199.582031 51.011719 202.429688 C 47.636719 204.046875 44.242188 203.101562 40.734375 202.777344 C 38.460938 206.789062 36.03125 210.941406 35.460938 215.472656 C 42.71875 210.734375 50.570312 207.144531 58.269531 203.179688 C 65.734375 199.304688 73.019531 194.9375 80.945312 191.996094 C 86.503906 189.964844 92.179688 188.65625 97.917969 187.566406 C 108.621094 181.339844 123.367188 178.117188 135.585938 177.226562 C 142.699219 176.703125 150.308594 176.4375 157.414062 177.105469 C 160.714844 177.421875 166.601562 182.378906 165.96875 176.570312 C 165.898438 175.882812 166.65625 175.480469 167.226562 175.597656 C 173.011719 176.847656 175.105469 182.957031 180.304688 185.191406 C 180.511719 185.285156 180.636719 185.433594 180.714844 185.59375 C 184.199219 185.910156 187.679688 185.632812 191.222656 184.101562 C 191.460938 183.992188 191.695312 183.925781 191.917969 183.847656 C 192.359375 181.914062 193.480469 180.210938 193.835938 178.25 Z M 204.855469 196.992188 C 204.246094 196.117188 203.457031 195.261719 202.441406 194.441406 C 200.207031 192.601562 198.589844 190.851562 196.875 188.585938 C 194.113281 184.953125 189.484375 188.199219 186.390625 188.734375 C 183.9375 189.160156 181.0625 188.894531 178.632812 188.339844 C 161.828125 184.472656 145.847656 182.832031 128.632812 185.0625 C 111.234375 187.3125 91.855469 189.5625 75.894531 197.171875 C 62.347656 203.636719 47.902344 210.332031 35.496094 218.792969 C 35.460938 218.824219 35.429688 218.839844 35.40625 218.847656 C 35.40625 218.859375 35.40625 218.859375 35.40625 218.875 C 35.675781 219.085938 35.898438 219.355469 36.046875 219.726562 C 36.253906 220.222656 36.496094 220.710938 36.726562 221.203125 C 52.742188 214.011719 67.765625 204.726562 84.023438 198.011719 C 92.296875 194.59375 100.957031 192.105469 109.832031 190.929688 C 116.269531 190.078125 122.40625 188.710938 128.5625 191.417969 C 129.136719 191.664062 129.203125 192.585938 128.765625 192.988281 C 125.316406 196.066406 120.117188 195.972656 115.882812 197.230469 C 106.871094 199.9375 97.398438 201.515625 88.792969 205.40625 C 80.550781 209.148438 71.949219 212.984375 64.332031 217.902344 C 60.492188 220.367188 56.832031 223.246094 52.765625 225.347656 C 49.332031 227.136719 46.015625 228.773438 43.105469 231.378906 C 43.53125 231.945312 43.988281 232.5 44.429688 233.066406 C 50.144531 229.023438 57.082031 227.113281 62.933594 223.175781 C 68.941406 219.125 74.527344 216.519531 81.363281 214.128906 C 95.652344 209.117188 109.410156 201.726562 124.261719 198.476562 C 138.167969 195.421875 152.574219 196.652344 166.710938 197.195312 C 175.972656 197.558594 186.992188 197.945312 194.261719 204.445312 C 194.410156 204.578125 194.484375 204.710938 194.53125 204.839844 C 195.53125 204.230469 196.519531 203.605469 197.46875 202.960938 L 197.996094 201.816406 C 198.097656 201.59375 198.113281 201.484375 198.050781 201.277344 C 197.980469 201.035156 197.703125 200.710938 197.425781 200.417969 C 196.78125 199.808594 195.917969 199.25 194.996094 198.742188 C 194.089844 198.277344 193.007812 197.703125 192.082031 197.449219 C 191.089844 197.132812 189.945312 196.992188 188.800781 196.859375 C 187.070312 196.714844 185.359375 196.707031 183.605469 196.597656 C 183.164062 196.566406 182.761719 196.527344 182.351562 196.488281 L 182.042969 196.464844 L 181.671875 196.414062 L 181.078125 196.320312 C 180.257812 196.179688 179.476562 196.066406 178.71875 195.933594 C 175.648438 195.453125 172.902344 194.875 170.628906 194.558594 C 169.476562 194.386719 168.457031 194.171875 167.535156 194.054688 C 166.601562 193.945312 165.804688 193.851562 165.148438 193.746094 C 163.855469 193.558594 163.136719 193.375 163.136719 193.226562 C 163.152344 193.0625 163.871094 192.949219 165.195312 192.878906 C 165.84375 192.839844 166.65625 192.816406 167.589844 192.800781 C 168.519531 192.800781 169.601562 192.902344 170.785156 192.972656 C 173.179688 193.101562 175.925781 193.519531 179.003906 193.875 C 179.777344 193.984375 180.550781 194.078125 181.363281 194.1875 L 181.964844 194.261719 L 182.207031 194.308594 L 182.523438 194.316406 C 182.925781 194.347656 183.367188 194.386719 183.769531 194.394531 C 185.375 194.464844 187.164062 194.464844 189.003906 194.625 C 190.253906 194.773438 191.507812 194.921875 192.746094 195.328125 L 193.195312 195.460938 L 193.316406 195.5 L 193.480469 195.570312 L 193.679688 195.648438 L 194.484375 196.042969 C 195.035156 196.289062 195.546875 196.566406 196.0625 196.859375 C 197.074219 197.449219 198.035156 198.097656 198.886719 198.964844 C 199.296875 199.4375 199.730469 199.914062 199.953125 200.65625 C 200.007812 200.835938 200.03125 201.007812 200.046875 201.175781 C 201.753906 199.914062 203.363281 198.554688 204.855469 196.992188 Z M 205.960938 204.789062 C 206.402344 204.484375 206.8125 204.160156 207.253906 203.859375 C 206.996094 202.40625 206.71875 201.074219 206.277344 199.832031 C 206.175781 199.824219 206.085938 199.824219 205.984375 199.792969 C 202.660156 203.070312 198.730469 205.5625 194.757812 207.988281 C 198.753906 208.152344 202.425781 207.339844 205.960938 204.789062 Z M 240.898438 177.453125 C 238.648438 179.570312 236.242188 181.503906 233.976562 183.296875 C 226.175781 189.46875 216.371094 192.34375 208.488281 198.445312 C 208.960938 199.511719 209.347656 200.695312 209.679688 202.074219 C 214.984375 198.144531 220.113281 194.199219 225.789062 190.644531 C 231.558594 187.03125 237.0625 183.035156 240.898438 177.453125 Z M 242.746094 171.589844 C 242.707031 169.773438 238.066406 169.640625 236.886719 167.910156 C 235.648438 166.0625 237.496094 163.261719 238.394531 161.753906 C 239.871094 159.25 239.28125 158.289062 236.589844 158.066406 C 235.847656 158.011719 234.984375 157.988281 234.378906 157.453125 C 234.140625 157.238281 233.9375 157.015625 233.746094 156.773438 C 233.40625 156.597656 233.15625 156.277344 233.140625 155.855469 C 232.246094 154.253906 231.875 152.257812 231.371094 150.496094 C 228.957031 151.082031 227.25 152.699219 227.390625 155.414062 C 227.488281 157.570312 228.957031 158.894531 229.808594 160.742188 C 230.859375 163.0625 228.6875 165.03125 227.304688 166.617188 C 227.171875 166.75 227.039062 166.835938 226.910156 166.886719 C 226.824219 166.964844 226.730469 167.042969 226.601562 167.097656 C 224.335938 168.109375 221.992188 168.804688 219.695312 169.695312 C 217.234375 170.671875 217.863281 172.496094 216.816406 174.320312 C 216.222656 175.371094 215.0625 175.929688 213.917969 176.167969 C 212.246094 176.492188 210.695312 176.625 209.882812 178.433594 C 209.171875 180.035156 208.851562 181.582031 209.882812 183.074219 C 211.582031 183.128906 213.261719 183.582031 214.527344 184.804688 C 215.914062 186.152344 216.832031 187.882812 217.902344 189.46875 C 218.210938 189.296875 218.511719 189.136719 218.820312 188.972656 C 218.953125 188.859375 219.082031 188.734375 219.214844 188.601562 C 219.230469 188.601562 219.300781 188.546875 219.300781 188.546875 C 220.257812 187.773438 221.070312 186.257812 221.070312 185.03125 C 221.109375 184.898438 221.03125 184.566406 221.015625 184.339844 L 220.992188 184.140625 L 220.925781 184.125 C 220.902344 184.0625 220.925781 183.992188 220.902344 183.941406 C 220.792969 183.699219 220.605469 183.460938 220.296875 183.21875 C 220.003906 182.980469 219.632812 182.757812 219.207031 182.476562 C 216.042969 180.367188 217.589844 177.929688 220.660156 176.332031 C 221.90625 175.664062 222.964844 175.292969 223.691406 175.0625 C 224.410156 174.851562 224.84375 174.777344 224.9375 174.890625 C 225.144531 175.210938 223.617188 176.167969 221.511719 177.675781 C 218.9375 179.632812 219.433594 179.824219 221.660156 181.472656 C 222.121094 181.820312 222.640625 182.316406 222.949219 182.996094 C 223.042969 183.167969 223.082031 183.34375 223.152344 183.515625 L 223.175781 183.582031 C 223.191406 183.621094 223.214844 183.777344 223.214844 183.777344 L 223.230469 183.871094 L 223.246094 184.0625 C 223.265625 184.339844 223.335938 184.511719 223.304688 184.898438 C 223.320312 185.601562 223.207031 186.207031 223.027344 186.753906 C 224.375 186.035156 225.71875 185.285156 227.046875 184.496094 C 232.167969 181.449219 238.402344 176.917969 242.746094 171.589844 Z M 243.410156 125.15625 C 244 123.933594 244.308594 122.609375 243.796875 120.53125 C 243.550781 119.46875 243.210938 118.371094 243.078125 117.28125 C 242.683594 114.003906 243.09375 110.207031 241.046875 107.40625 C 241.03125 107.40625 241.007812 107.421875 240.992188 107.40625 C 236.128906 106.386719 234.234375 101.601562 232.019531 97.65625 C 230.289062 94.546875 228.164062 91 225.441406 88.6875 C 224.550781 87.929688 223.578125 87.292969 222.578125 86.675781 C 222.378906 86.613281 222.175781 86.542969 221.953125 86.453125 C 221.3125 86.15625 220.5 85.878906 219.617188 85.515625 C 219.175781 85.328125 218.710938 85.128906 218.234375 84.9375 C 218.15625 84.921875 217.832031 84.828125 217.628906 84.773438 C 217.421875 84.703125 217.179688 84.648438 216.925781 84.609375 C 214.953125 84.253906 212.914062 84.15625 211.46875 83.8125 C 209.929688 83.464844 209.1875 82.972656 209.210938 82.691406 C 209.253906 82.359375 210.238281 82.320312 211.597656 82.230469 C 212.820312 82.175781 214.492188 82.050781 216.445312 82.292969 C 215.085938 81.054688 213.734375 79.59375 213.261719 77.882812 C 212.046875 73.5 210.074219 69.445312 204.65625 70.730469 C 197.46875 72.425781 191.011719 70.582031 183.792969 70.304688 C 183.722656 70.304688 183.683594 70.273438 183.628906 70.273438 C 181.023438 71.757812 178.742188 73.96875 175.925781 75.0625 C 172.625 76.320312 168.332031 76.367188 165.417969 78.386719 C 163.6875 79.59375 161.550781 81.511719 159.300781 81.625 C 156.5 81.804688 154.160156 80.722656 151.429688 80.375 C 149.574219 82.335938 147.601562 84.371094 145.058594 85.398438 C 144.167969 85.753906 143.300781 86.066406 142.4375 86.375 C 141.367188 87.394531 140.554688 88.53125 140.207031 89.792969 C 139.558594 92.203125 138.554688 94.03125 137.09375 96.054688 C 135.933594 97.65625 134.324219 99.558594 132.492188 100.480469 C 129.832031 101.839844 126.335938 102.820312 124.710938 105.558594 C 131.53125 105.132812 138.3125 105.132812 145.148438 104.507812 C 148.558594 104.199219 152.132812 103.539062 155.558594 103.796875 C 158.582031 104.027344 164.074219 105.34375 166.003906 101.824219 C 168.054688 98.066406 171.371094 95.167969 175.292969 93.433594 C 176.730469 92.792969 178.285156 93.101562 179.769531 93.046875 C 184.0625 92.871094 185.839844 89.730469 188.347656 87.171875 C 188.375 87.101562 188.375 87.023438 188.429688 86.953125 C 189.484375 85.328125 192.273438 82.707031 194.332031 84.757812 C 196.378906 86.808594 194.347656 87.78125 193.0625 89.3125 C 188.175781 95.167969 201.800781 92.886719 202.535156 93.164062 C 206.253906 94.507812 210.011719 97.324219 214.164062 95.832031 C 219.925781 93.75 220.367188 93.21875 225.601562 96.09375 C 225.898438 96.257812 226.042969 96.496094 226.082031 96.75 C 227.613281 101.761719 230.171875 105.375 232.609375 109.859375 C 233.914062 112.257812 233.304688 115.425781 234.914062 117.722656 C 237.433594 121.289062 241.839844 122.023438 243.410156 125.15625 Z M 244.269531 130.179688 C 249.953125 126.941406 247.609375 122.09375 246.25 117.210938 C 245.375 114.058594 245.839844 110.832031 244.609375 107.714844 C 244.585938 107.664062 244.601562 107.609375 244.585938 107.554688 C 244.371094 107.390625 244.230469 107.144531 244.253906 106.78125 C 244.363281 105.0625 245.972656 103.148438 244.492188 101.675781 C 243.550781 100.734375 242.445312 99.984375 241.417969 99.132812 C 241.308594 99.738281 241.191406 100.347656 241.082031 100.941406 C 241.097656 101.839844 239.984375 102.25 239.375 101.667969 C 235.59375 97.964844 234.324219 93.203125 231.488281 88.902344 C 228.015625 83.613281 223.027344 83.359375 218.339844 79.894531 C 214.398438 76.980469 213.183594 72.089844 215.914062 68.378906 C 207.144531 65.980469 197.902344 65.253906 188.785156 66.167969 C 179.683594 67.082031 170.210938 69.332031 161.882812 73.183594 C 158.582031 74.710938 155.726562 76.3125 153.121094 78.695312 C 156.015625 79.359375 158.992188 80.402344 161.753906 78.496094 C 163.097656 77.566406 164.519531 76.296875 166.082031 75.75 C 169.679688 74.472656 173.652344 74.449219 176.957031 72.277344 C 178.910156 70.992188 180.738281 69.585938 182.792969 68.449219 C 183.046875 68.300781 183.296875 68.292969 183.511719 68.355469 C 183.605469 68.332031 183.683594 68.300781 183.792969 68.300781 C 188.042969 68.480469 192.226562 69.585938 196.449219 69.664062 C 200.03125 69.742188 203.65625 68.132812 207.175781 68.449219 C 210.902344 68.796875 213.253906 71.085938 214.398438 74.710938 C 216.902344 82.546875 224.613281 83.777344 229.183594 89.863281 C 232.382812 94.121094 235.871094 104.160156 241.417969 105.449219 C 241.710938 105.359375 242.027344 105.414062 242.296875 105.746094 C 244.789062 108.84375 244.492188 112.511719 244.957031 116.269531 C 245.238281 118.574219 246.480469 121.15625 246.039062 123.53125 C 244.695312 130.867188 241.453125 125.632812 238.523438 123.121094 C 236.164062 121.09375 233.011719 119.601562 232.183594 116.324219 C 230.488281 109.566406 226.429688 104.328125 224.296875 97.679688 C 219.316406 95.175781 214.3125 98.492188 208.835938 97.933594 C 207.507812 97.789062 206.085938 97.175781 204.949219 96.496094 C 199.820312 93.441406 200.308594 96.402344 196.84375 95.925781 C 194.609375 95.605469 191.222656 94.113281 190.867188 91.460938 C 190.574219 89.25 193.132812 88.261719 192.1875 85.996094 C 189.488281 86.90625 188.585938 90.140625 186.589844 91.964844 C 184.585938 93.804688 182.59375 95.113281 179.769531 95.042969 C 174.117188 94.910156 170.574219 98.398438 167.722656 102.820312 C 167.082031 103.828125 166.214844 105.464844 164.898438 105.746094 C 159.394531 106.914062 153.324219 105.769531 147.65625 106.277344 C 139.621094 107.003906 131.679688 107.050781 123.675781 107.609375 C 123.527344 107.625 123.40625 107.59375 123.304688 107.570312 C 122.664062 107.632812 121.960938 107.144531 122.207031 106.355469 C 122.972656 103.882812 124.457031 102.226562 126.792969 101.042969 C 131.015625 98.894531 134.695312 97.046875 137.039062 92.589844 C 138.027344 90.6875 138.40625 89.027344 139.210938 87.464844 C 136.0625 88.554688 133.132812 89.832031 130.457031 92.605469 C 127.636719 95.539062 124.84375 98.398438 121.664062 100.957031 C 115.183594 106.191406 108.433594 109.765625 101.066406 113.523438 C 94.925781 116.65625 91.886719 123.144531 88.367188 129.058594 C 88.367188 129.152344 88.351562 129.246094 88.351562 129.351562 C 88.296875 129.832031 88.257812 130.3125 88.167969 130.84375 C 88.089844 131.386719 88.019531 131.789062 87.855469 132.355469 C 86.914062 136.359375 85.25 139.691406 83.945312 141.980469 C 82.621094 144.246094 81.640625 145.554688 81.371094 145.421875 C 81.082031 145.289062 81.570312 143.714844 82.519531 141.292969 C 83.265625 139.328125 84.277344 136.816406 85.113281 133.9375 C 79.90625 140.667969 73.828125 146.164062 67.78125 152.09375 C 64.488281 155.320312 61.371094 158.824219 58.566406 162.582031 C 62.292969 159.339844 66.050781 156.742188 69.113281 155.398438 C 72.46875 153.90625 74.617188 153.859375 74.695312 154.082031 C 74.84375 154.429688 72.667969 155.113281 69.847656 156.796875 C 66.933594 158.515625 63.226562 161.421875 59.292969 164.917969 C 58.804688 165.34375 58.324219 165.773438 57.847656 166.207031 C 57.257812 166.671875 56.816406 167.019531 56.269531 167.414062 C 55.601562 167.910156 54.992188 168.375 54.351562 168.84375 C 52.578125 171.828125 51.027344 174.921875 49.820312 178.15625 C 47.019531 185.671875 43.183594 192.855469 41.871094 200.835938 C 46 201.058594 49.191406 201.113281 53.515625 198.957031 C 56.230469 197.597656 58.960938 196.824219 61.882812 195.941406 C 69.886719 193.542969 77.589844 191.132812 85.105469 187.441406 C 91.230469 184.417969 98.210938 181.226562 104.847656 179.632812 C 111.683594 178 118.84375 178.1875 125.5625 176.105469 C 133.921875 173.507812 141.351562 168.28125 150.46875 168.535156 C 154.097656 168.644531 155.984375 170.191406 154.546875 172.84375 C 158.265625 173.050781 158.707031 169.65625 160.4375 167.082031 C 160.609375 166.6875 161.011719 166.355469 161.566406 166.449219 C 162.59375 166.617188 162.914062 165.773438 163.578125 165.203125 C 164.242188 164.628906 165.179688 164.429688 166.011719 164.660156 C 166.988281 164.917969 168.132812 165.328125 168.386719 166.433594 C 168.519531 167.027344 168.550781 167.652344 168.898438 166.578125 C 169.082031 165.992188 169.214844 165.402344 169.339844 164.808594 C 169.347656 164.777344 169.363281 164.769531 169.378906 164.738281 C 169.269531 164.167969 169.578125 163.539062 170.304688 163.5625 C 172.039062 163.648438 173.53125 164.089844 174.914062 165.179688 C 176.957031 166.789062 178.332031 168.605469 181.085938 167.082031 C 184.308594 165.296875 187.640625 168.109375 189.832031 170.359375 C 190.21875 170.746094 190.164062 171.226562 189.921875 171.574219 C 189.890625 171.761719 189.832031 171.945312 189.667969 172.109375 C 188.324219 173.4375 191.292969 173.65625 192.320312 173.910156 C 193.140625 174.117188 194.402344 174.335938 195.011719 175.023438 C 197.246094 177.566406 194.847656 180.746094 194.023438 183.53125 C 197.113281 183.722656 198.476562 187.257812 200.988281 189.507812 C 203.804688 192.027344 205.738281 193.890625 207.144531 195.996094 C 209.117188 194.519531 211.15625 193.203125 213.261719 191.988281 C 210.972656 187.898438 205.054688 188.75 203.671875 183.683594 C 202.699219 180.121094 204.507812 177.035156 201.128906 174.375 C 198.777344 172.519531 196.84375 170.691406 194.71875 168.621094 C 191.128906 165.101562 186.480469 164.429688 182.152344 162.289062 C 178.285156 160.355469 175.128906 158.953125 170.746094 158.769531 C 165.109375 158.53125 162.980469 154.308594 158.636719 151.671875 C 157.214844 154.191406 160.902344 157.773438 160.808594 160.585938 C 160.777344 161.304688 160.128906 161.605469 159.570312 161.5 C 159.488281 161.53125 159.410156 161.570312 159.300781 161.570312 C 157.304688 161.675781 156.308594 163.023438 154.210938 162.558594 C 152.851562 162.25 151.722656 160.902344 150.734375 160.039062 C 149.417969 158.878906 147.40625 158.691406 146.203125 157.421875 C 145.863281 157.050781 145.476562 156.679688 145.242188 156.21875 C 145.769531 159.425781 149.960938 159.703125 151.683594 162.742188 C 152.039062 163.378906 151.589844 164.257812 150.816406 164.234375 C 135.707031 163.902344 121.078125 155.265625 107.144531 150.324219 C 102.171875 148.570312 98.480469 146.882812 95.9375 142.074219 C 93.640625 137.742188 90.472656 133.257812 92.402344 128.101562 C 94.207031 123.3125 97.398438 120.160156 102.039062 118.023438 C 108.835938 114.902344 117.375 113.230469 124.65625 111.566406 C 132.507812 109.765625 140.277344 109.324219 148.242188 108.4375 C 152.023438 108.011719 156.023438 107.539062 159.703125 108.859375 C 163.222656 110.128906 166.523438 111.179688 170.28125 111.605469 C 170.824219 111.660156 171.265625 112.007812 171.28125 112.605469 C 171.316406 114.628906 171.109375 116.253906 170.558594 118.1875 C 170.453125 118.574219 170.042969 118.976562 169.601562 118.921875 C 165.988281 118.496094 162.378906 119.476562 158.84375 119.085938 C 156.015625 118.757812 154.144531 117.296875 151.429688 116.75 C 148.058594 116.050781 145.824219 118.363281 143.085938 119.417969 C 141.492188 120.027344 139.15625 119.292969 137.261719 118.867188 C 138.121094 120.25 139.730469 120.5625 141.476562 120.585938 C 142.914062 120.613281 145.863281 121.09375 146.929688 119.949219 C 148.136719 118.628906 148.898438 117.746094 150.816406 117.949219 C 150.910156 117.949219 150.988281 117.984375 151.066406 118.015625 C 151.453125 117.910156 151.910156 118 152.171875 118.441406 C 155.929688 124.417969 165.511719 119.957031 171.132812 119.949219 C 171.210938 119.933594 171.28125 119.972656 171.355469 119.988281 C 171.679688 119.863281 172.039062 119.894531 172.347656 120.226562 C 173.375 121.394531 174.371094 124.320312 175.640625 124.96875 C 177.304688 125.820312 179.035156 126.769531 180.351562 128.140625 C 181.378906 129.222656 182.5 130.382812 182.980469 131.828125 C 183.660156 133.882812 183.195312 137.613281 184.230469 139.144531 C 187.269531 143.621094 186.574219 147.796875 180.644531 147.75 C 180.566406 148.554688 180.730469 149.070312 181.085938 149.421875 C 181.523438 149.527344 181.941406 149.660156 182.277344 149.808594 C 182.59375 149.9375 182.847656 150.070312 183.070312 150.214844 C 183.21875 150.238281 183.351562 150.285156 183.511719 150.308594 C 184.695312 150.542969 185.800781 150.84375 186.792969 151.546875 C 189.4375 153.425781 189.503906 157.785156 192.96875 158.34375 C 193.488281 155.636719 194.410156 153.269531 196.875 151.671875 C 198.476562 150.632812 199.804688 150.191406 201.652344 149.828125 C 204.003906 149.367188 204.878906 148.128906 205.890625 146.351562 C 203.65625 146.195312 201.175781 148.375 199.007812 148.910156 C 196.527344 149.511719 194.007812 150.046875 192.652344 152.414062 C 192.25 153.125 191.40625 152.992188 191.011719 152.496094 C 190.867188 152.464844 190.71875 152.40625 190.574219 152.296875 C 188.855469 150.84375 187.324219 149.457031 186.882812 147.167969 C 186.296875 144.078125 187.402344 141.664062 185.59375 138.757812 C 185.507812 138.625 185.46875 138.507812 185.445312 138.371094 C 185.359375 138.253906 185.308594 138.105469 185.285156 137.9375 C 184.75 132.925781 184.632812 129.539062 180.140625 126.367188 C 178.578125 125.261719 176.902344 124.15625 175.59375 122.757812 C 172.105469 119.03125 174.242188 113.324219 171.09375 109.820312 C 171 109.710938 170.945312 109.601562 170.90625 109.503906 C 170.730469 109.339844 170.613281 109.101562 170.628906 108.785156 C 171.164062 98.894531 186.496094 92.667969 192.652344 101.28125 C 192.746094 101.414062 192.800781 101.546875 192.824219 101.675781 C 193.0625 102.023438 193.09375 102.480469 192.667969 102.820312 C 191.894531 103.425781 191.292969 103.882812 190.503906 104.4375 C 187.015625 106.914062 190.828125 110.46875 192.195312 112.179688 C 193.292969 113.523438 193.636719 114.855469 193.574219 116.546875 C 193.542969 117.507812 192.929688 118.386719 192.707031 119.292969 C 191.988281 122.152344 193.582031 123.222656 194.996094 124.675781 C 194.980469 122.253906 192.730469 121.410156 193.558594 118.742188 C 194.207031 116.617188 194.796875 114.390625 193.09375 112.433594 C 192.730469 112.03125 192.050781 111.3125 191.808594 110.808594 C 189.960938 106.765625 192.527344 105.953125 195.785156 104.253906 C 195.878906 104.199219 195.96875 104.183594 196.0625 104.167969 C 196.410156 103.734375 197.023438 103.539062 197.484375 104.074219 C 199.550781 106.480469 201.460938 108.9375 202.402344 112.015625 C 202.535156 112.417969 202.683594 112.789062 202.828125 113.136719 C 202.960938 113.378906 203.101562 113.648438 203.230469 113.910156 C 204.5625 116.324219 206.71875 117.523438 209.867188 118.148438 C 212.929688 118.742188 215.046875 123.753906 215.488281 126.335938 C 215.671875 127.382812 214.902344 127.984375 214.476562 128.789062 C 212.15625 133.28125 213.292969 136.960938 214.730469 141.402344 C 216.167969 145.777344 216.058594 148.753906 212.90625 152.171875 C 212.117188 154.144531 213.648438 155.519531 214.527344 157.144531 C 215.117188 158.226562 215.273438 159.671875 215.140625 160.871094 C 214.863281 163.539062 214.011719 165.820312 211.984375 167.617188 C 211.527344 168.003906 210.703125 168.015625 210.414062 167.40625 C 208.835938 164.113281 206.789062 161.089844 205.132812 157.839844 C 203.828125 161.808594 210.917969 166.859375 210.492188 170.949219 C 210.160156 174.148438 207.570312 175.519531 205.117188 177.089844 C 205.320312 177.675781 205.480469 178.285156 205.574219 178.96875 C 205.722656 180.019531 205.464844 181.101562 205.550781 182.167969 C 206.015625 188.933594 209.332031 185.988281 211.96875 187.535156 C 213.460938 188.417969 214.273438 189.546875 215.023438 191.015625 C 215.394531 190.8125 215.765625 190.605469 216.136719 190.402344 C 215.300781 189.175781 214.597656 187.773438 213.585938 186.699219 C 212.386719 185.410156 211.011719 185.03125 209.261719 185.0625 C 208.730469 185.078125 208.4375 184.726562 208.34375 184.328125 C 208.320312 184.289062 208.28125 184.273438 208.242188 184.234375 C 206.773438 182.261719 206.921875 179.515625 208.15625 177.421875 C 209.464844 175.203125 210.996094 174.851562 213.382812 174.242188 C 216.277344 173.492188 214.914062 170.878906 216.570312 169.285156 C 218.84375 167.113281 222.78125 166.632812 225.585938 165.378906 C 225.664062 165.34375 225.734375 165.34375 225.8125 165.328125 C 225.84375 165.289062 225.859375 165.234375 225.882812 165.195312 C 226.769531 164.191406 228.757812 162.691406 227.785156 161.105469 C 227.242188 160.207031 226.625 159.355469 226.097656 158.4375 C 225.417969 157.222656 225.269531 155.722656 225.457031 154.363281 C 225.902344 151.019531 228.054688 149.050781 231.332031 148.460938 C 231.519531 148.421875 231.6875 148.445312 231.835938 148.5 C 232.300781 148.390625 232.847656 148.570312 233.050781 149.148438 C 233.3125 149.921875 233.597656 151.546875 234.078125 153.03125 C 235.042969 151.46875 236.628906 150.441406 238.402344 149.3125 C 240.667969 147.859375 240.867188 145.925781 241.855469 143.621094 C 242.265625 142.621094 242.933594 141.796875 243.589844 140.96875 C 243.597656 140.820312 243.613281 140.707031 243.628906 140.535156 C 243.691406 140.078125 243.890625 139.46875 244.277344 138.894531 C 243.039062 136.636719 241.292969 131.875 244.269531 130.179688 Z M 260.402344 131.347656 C 263.53125 133.1875 261.121094 122.308594 260.734375 120.398438 C 259.613281 114.992188 258.429688 109.851562 255.4375 105.078125 C 252.234375 99.960938 249.464844 94.136719 245.855469 89.3125 C 244.988281 88.160156 244.070312 87.101562 243.117188 86.082031 L 243.039062 86.25 L 241.949219 85.128906 C 241.585938 84.757812 240.90625 84.496094 239.984375 84.371094 C 239.097656 84.222656 238.066406 84.1875 236.953125 84.039062 C 235.808594 83.851562 234.566406 83.636719 233.421875 82.808594 C 232.367188 81.996094 231.820312 81.109375 231.246094 80.351562 C 230.96875 79.980469 230.714844 79.644531 230.453125 79.335938 C 230.195312 79.074219 230.011719 78.859375 229.609375 78.578125 L 229.492188 78.480469 L 229.453125 78.457031 L 229.199219 78.324219 C 229.019531 78.246094 228.851562 78.144531 228.6875 78.070312 C 228.371094 77.882812 228.054688 77.722656 227.722656 77.605469 C 225.199219 76.515625 223.359375 76.152344 223.429688 75.804688 C 223.46875 75.539062 225.277344 75.308594 228.253906 76.097656 C 228.625 76.183594 228.996094 76.3125 229.382812 76.46875 C 229.585938 76.554688 229.785156 76.628906 229.988281 76.707031 L 230.304688 76.832031 L 230.375 76.855469 L 230.398438 76.871094 L 230.414062 76.871094 L 230.503906 76.941406 L 230.542969 76.964844 L 230.675781 77.039062 C 231.007812 77.234375 231.472656 77.589844 231.867188 77.960938 C 232.238281 78.308594 232.570312 78.695312 232.871094 79.082031 C 233.488281 79.816406 234.101562 80.597656 234.726562 81.039062 C 235.300781 81.441406 236.257812 81.664062 237.257812 81.8125 C 237.976562 81.90625 238.726562 81.972656 239.5 82.082031 C 238.46875 80.867188 237.527344 79.601562 236.738281 78.160156 C 230.984375 74.070312 224.613281 71.023438 217.917969 68.96875 C 213.199219 73.445312 219.046875 78.363281 223.304688 80.28125 C 225.570312 81.308594 228.238281 82.199219 230.042969 83.96875 C 234.21875 88.113281 235.664062 93.9375 239.203125 98.46875 C 239.320312 98.160156 239.5 97.765625 239.792969 97.03125 C 240.054688 96.347656 240.789062 96.242188 241.285156 96.480469 C 241.453125 96.511719 241.625 96.589844 241.789062 96.75 C 243.226562 98.25 245.578125 99.257812 246.597656 101.121094 C 247.023438 101.910156 247.347656 102.78125 247.183594 103.6875 C 247 104.769531 246.335938 105.652344 246.25 106.765625 C 246.375 106.875 246.480469 107.003906 246.542969 107.183594 C 248.121094 111.195312 247.546875 115.386719 249.433594 119.457031 C 250.207031 121.078125 250.300781 122.6875 250.117188 124.464844 C 250 125.527344 249.613281 126.515625 249.117188 127.457031 C 249.382812 127.304688 249.652344 127.140625 249.914062 126.980469 C 250.101562 126.863281 250.300781 126.722656 250.472656 126.59375 C 250.632812 126.476562 250.796875 126.367188 251.011719 126.183594 L 251.152344 126.050781 L 251.183594 126.035156 C 251.207031 126.019531 251.207031 126.011719 251.207031 126.011719 L 251.222656 125.964844 L 251.382812 125.726562 C 251.5 125.609375 251.625 125.410156 251.714844 125.183594 C 252.582031 123.460938 253.117188 121.054688 253.449219 118.683594 C 253.558594 117.523438 253.527344 116.4375 253.355469 115.273438 C 253.230469 114.136719 252.96875 112.898438 252.875 111.832031 C 252.832031 111.550781 252.808594 111.289062 252.785156 111.019531 L 252.746094 110.554688 L 252.714844 110.167969 C 252.699219 109.65625 252.675781 109.171875 252.621094 108.699219 C 252.550781 107.769531 252.40625 106.90625 252.25 106.140625 C 251.902344 104.601562 251.351562 103.425781 250.964844 102.628906 C 250.519531 101.808594 250.277344 101.328125 250.410156 101.230469 C 250.527344 101.136719 250.980469 101.429688 251.664062 102.09375 C 252.328125 102.820312 253.179688 104.027344 253.765625 105.691406 C 254.058594 106.519531 254.316406 107.460938 254.46875 108.460938 C 254.5625 108.96875 254.632812 109.488281 254.6875 110.019531 L 254.738281 110.421875 L 254.792969 110.753906 C 254.832031 111.019531 254.886719 111.289062 254.925781 111.566406 C 255.089844 112.6875 255.367188 113.710938 255.527344 114.960938 C 255.753906 116.160156 255.816406 117.589844 255.683594 118.960938 C 255.496094 120.25 255.242188 121.558594 254.894531 122.742188 C 254.554688 123.957031 254.175781 125.101562 253.527344 126.199219 C 253.378906 126.476562 253.210938 126.738281 252.96875 127.011719 L 252.621094 127.398438 L 252.542969 127.488281 C 252.421875 127.589844 252.457031 127.550781 252.421875 127.589844 L 252.257812 127.714844 C 252.074219 127.859375 251.792969 128.03125 251.539062 128.207031 C 251.292969 128.355469 251.058594 128.472656 250.835938 128.601562 C 249.914062 129.074219 249.078125 129.414062 248.367188 129.777344 C 247.941406 129.996094 247.585938 130.203125 247.253906 130.429688 C 245.816406 132.617188 244.625 134.773438 245.800781 137.449219 C 246.375 137.054688 246.929688 136.722656 247.496094 136.304688 C 249.125 135.230469 250.316406 134.054688 251.074219 133.074219 C 251.253906 132.832031 251.4375 132.601562 251.59375 132.414062 C 251.753906 132.191406 251.886719 131.988281 252.019531 131.828125 C 252.273438 131.527344 252.488281 131.378906 252.636719 131.433594 C 252.785156 131.488281 252.84375 131.734375 252.832031 132.136719 C 252.832031 132.339844 252.824219 132.578125 252.785156 132.855469 C 252.699219 133.132812 252.589844 133.46875 252.472656 133.832031 C 251.957031 135.238281 250.609375 136.945312 248.769531 138.160156 C 248.128906 138.625 247.449219 138.988281 246.875 139.320312 C 246.90625 139.507812 246.890625 139.714844 246.773438 139.933594 C 245.523438 142.183594 243.945312 143.730469 243.078125 146.25 C 242.667969 147.488281 242.226562 148.871094 241.191406 149.738281 C 238.933594 151.617188 236.089844 152.480469 235.246094 155.414062 C 235.617188 155.839844 236.058594 156.109375 236.589844 156.070312 C 237.085938 156.039062 237.550781 156.015625 238.015625 155.984375 L 239.699219 155.375 C 240.683594 155.027344 241.53125 154.972656 242.320312 154.839844 C 243 154.746094 243.613281 154.570312 243.84375 154.414062 L 243.882812 154.339844 C 243.929688 154.269531 244 154.097656 244.070312 153.976562 C 244.183594 153.703125 244.308594 153.425781 244.425781 153.164062 C 244.664062 152.605469 244.867188 152.09375 245.183594 151.46875 L 245.214844 151.40625 L 245.238281 151.375 C 246.613281 149.535156 248.105469 148.5 249.171875 147.796875 C 250.246094 147.15625 250.941406 146.929688 251.074219 147.085938 C 251.40625 147.472656 249.027344 149.257812 246.960938 152.40625 C 246.78125 152.890625 246.597656 153.417969 246.394531 153.945312 C 246.296875 154.246094 246.1875 154.546875 246.054688 154.855469 C 245.972656 155.027344 245.933594 155.15625 245.824219 155.359375 L 245.660156 155.652344 C 245.585938 155.800781 245.328125 156.070312 245.105469 156.21875 C 244.230469 156.828125 243.402344 156.921875 242.667969 157.050781 C 242.390625 157.105469 242.121094 157.128906 241.863281 157.167969 C 241.988281 157.515625 242.082031 157.863281 242.082031 158.195312 C 242.113281 159.117188 241.863281 159.90625 241.601562 160.53125 C 241.046875 161.824219 240.363281 162.742188 239.800781 163.5 C 239.628906 163.726562 239.460938 163.941406 239.3125 164.144531 C 239.242188 164.273438 239.167969 164.390625 239.113281 164.53125 C 237.324219 168.550781 240.550781 167.617188 242.304688 168.125 C 243.3125 168.425781 243.929688 168.898438 244.292969 169.5625 C 244.425781 169.363281 244.5625 169.160156 244.679688 168.960938 C 245.414062 166.023438 245.902344 163.023438 247.222656 160.238281 C 248.738281 157.035156 250.796875 154.339844 253.269531 151.816406 C 256.363281 148.683594 259.09375 145.792969 261.152344 142.605469 C 260.816406 142.304688 259.660156 142.839844 258.515625 143.15625 C 256.898438 143.597656 255.351562 142.644531 254.925781 141.078125 C 254.390625 139.160156 257.121094 129.429688 260.402344 131.347656 Z M 262.960938 139.28125 C 264.28125 136.320312 264.984375 133.003906 264.855469 128.988281 C 264.5625 120.121094 263.214844 109.835938 258.574219 102.078125 C 254.738281 95.683594 249.675781 89.527344 244.144531 84.292969 C 244.09375 84.316406 244.070312 84.347656 244.03125 84.371094 C 246.078125 86.667969 248.160156 88.957031 249.660156 91.703125 C 252.984375 97.726562 257.175781 103.277344 259.976562 109.558594 C 262.503906 115.203125 265.558594 126.609375 263.839844 132.785156 C 263.441406 134.21875 261.320312 134.679688 260.230469 133.800781 C 258.847656 132.6875 257.390625 137.550781 257.152344 138.640625 C 256.234375 142.878906 260.824219 139.523438 261.800781 139.183594 C 262.28125 139.011719 262.652344 139.089844 262.960938 139.28125 Z M 268.15625 120.691406 C 269.191406 127.746094 269.425781 135.199219 266.679688 141.886719 C 263.8125 148.855469 256.511719 152.558594 252.589844 158.746094 C 249.652344 163.410156 249.464844 168.867188 247.449219 173.894531 C 246.359375 176.601562 244.679688 179.238281 242.878906 181.511719 C 238.710938 186.761719 233.476562 190.589844 227.8125 194.09375 C 220.847656 198.390625 214.824219 203.898438 207.972656 208.242188 C 202.519531 211.714844 197.578125 212.433594 191.453125 211.652344 C 191.035156 211.761719 190.589844 211.746094 190.109375 211.546875 C 176.933594 205.941406 163.097656 203.710938 148.847656 206.085938 C 136.1875 208.191406 124.566406 213.207031 112.199219 216.339844 C 100.128906 219.410156 87.277344 221.4375 76.003906 226.988281 C 66.546875 231.636719 58.277344 238.601562 48.195312 241.953125 C 47.289062 242.246094 46.585938 241.914062 46.167969 241.324219 C 46.039062 241.230469 45.914062 241.125 45.8125 240.992188 C 41.320312 235.648438 36.875 230.234375 33.710938 224.042969 C 33.488281 223.839844 33.355469 223.5625 33.324219 223.300781 C 32.929688 222.472656 32.542969 221.644531 32.195312 220.792969 C 32.179688 220.753906 32.179688 220.726562 32.164062 220.703125 C 31.808594 220.375 31.53125 219.945312 31.460938 219.363281 C 30.554688 212.433594 34.222656 206.179688 37.5 200.363281 C 37.648438 200.125 37.816406 199.929688 38.003906 199.785156 C 39.234375 192.375 42.71875 185.820312 45.304688 178.851562 C 45.667969 177.878906 46.054688 176.933594 46.441406 175.984375 C 46.554688 175.015625 46.957031 173.785156 47.769531 172.535156 C 47.933594 172.277344 48.125 172.015625 48.328125 171.761719 C 50.050781 168.21875 52.03125 164.832031 54.40625 161.621094 C 63.730469 148.949219 76.90625 139.949219 85.414062 126.609375 C 85.902344 125.835938 86.378906 125.039062 86.84375 124.226562 C 87.039062 123.328125 87.277344 122.5 87.578125 121.78125 C 88.152344 120.476562 88.902344 119.554688 89.550781 119.089844 C 89.660156 119 89.765625 118.929688 89.875 118.867188 C 91.855469 115.574219 94.175781 112.550781 97.671875 110.777344 C 105.890625 106.59375 113.507812 102.835938 120.558594 96.699219 C 126.351562 91.648438 130.566406 85.367188 138.359375 83.351562 C 146.621094 81.199219 150.632812 74.007812 158.171875 70.515625 C 185.648438 57.808594 222.804688 57.683594 245.523438 80.1875 C 251.53125 86.125 257.980469 92.535156 262.023438 100.070312 C 265.519531 106.558594 267.089844 113.445312 268.15625 120.691406 Z M 173.667969 150.75 L 173.714844 150.75 L 173.730469 150.734375 L 173.824219 150.695312 L 174.039062 150.679688 C 174.675781 150.632812 174.503906 150.671875 175 150.347656 C 175.199219 150.191406 175.570312 149.921875 175.917969 149.808594 C 176.21875 149.644531 176.515625 149.605469 176.824219 149.527344 C 177.472656 149.351562 178.113281 149.257812 178.726562 149.234375 C 178.554688 148.523438 178.570312 147.632812 178.835938 146.488281 C 178.980469 145.847656 179.554688 145.675781 180.046875 145.832031 C 180.164062 145.777344 180.304688 145.753906 180.457031 145.753906 C 183.574219 145.824219 183.511719 142.273438 182.515625 140.148438 C 182.261719 139.675781 182.035156 139.183594 181.835938 138.695312 C 181.363281 135.429688 181.742188 131.96875 178.941406 129.5625 C 177.195312 128.070312 174.851562 127.234375 173.25 125.648438 C 172.347656 124.730469 171.867188 122.972656 171.148438 121.929688 L 171.132812 121.945312 C 167.683594 121.960938 163.375 123.222656 159.433594 123.398438 C 160.289062 123.785156 161.164062 124.140625 162.101562 124.394531 C 164.273438 124.992188 166.390625 124.804688 168.179688 124.359375 L 169.238281 124.078125 L 169.398438 125.046875 C 169.578125 126.035156 169.65625 126.878906 169.785156 127.542969 C 169.910156 128.230469 170.171875 128.6875 170.414062 129.113281 C 170.558594 129.285156 170.707031 129.445312 170.824219 129.609375 C 170.960938 129.753906 171.09375 129.855469 171.203125 129.964844 C 171.402344 130.179688 171.503906 130.335938 171.464844 130.429688 C 171.425781 130.519531 171.257812 130.550781 170.929688 130.480469 C 170.777344 130.460938 170.558594 130.421875 170.34375 130.328125 C 170.136719 130.21875 169.878906 130.074219 169.617188 129.894531 C 169.136719 129.484375 168.574219 128.835938 168.292969 128.03125 C 168.09375 127.542969 167.945312 127.035156 167.800781 126.5 C 165.988281 127.019531 163.738281 127.203125 161.527344 126.59375 C 159.617188 126.089844 158.007812 125.222656 156.664062 124.359375 C 155.835938 123.824219 155.117188 123.34375 154.46875 122.851562 C 153.082031 122.332031 151.839844 121.441406 150.816406 120.105469 C 148.898438 120.105469 148.558594 121.851562 146.914062 122.316406 C 144.964844 122.875 142.792969 122.742188 140.78125 122.554688 C 137.835938 122.292969 135.53125 121.289062 134.867188 118.203125 C 134.851562 118.171875 134.867188 118.164062 134.867188 118.132812 C 134.507812 117.523438 134.757812 116.578125 135.667969 116.617188 C 139.488281 116.773438 142.96875 117.414062 146.488281 115.03125 C 147.363281 114.429688 149.140625 114.242188 150.105469 114.445312 C 154.34375 115.308594 157.847656 117.242188 162.324219 116.839844 C 164.019531 116.679688 165.773438 116.46875 167.46875 116.671875 C 169.695312 115.472656 169.957031 114.375 168.269531 113.378906 C 165.054688 113.019531 162.261719 111.605469 159.167969 110.792969 C 154.597656 109.582031 150.492188 110.230469 145.898438 110.726562 C 137.253906 111.660156 128.925781 112.363281 120.488281 114.683594 C 112.910156 116.773438 99.664062 118.148438 95.589844 125.859375 C 92.519531 131.65625 94.730469 135.863281 97.65625 141.0625 C 100.175781 145.570312 103.183594 146.660156 107.660156 148.390625 C 115.546875 151.429688 123.195312 155.066406 131.324219 157.453125 C 136.960938 159.101562 142.273438 161.351562 148.074219 162.03125 C 146.300781 161.089844 144.042969 160.773438 142.953125 158.914062 C 142.738281 158.542969 142.621094 158.144531 142.566406 157.734375 C 141.808594 157.128906 141.019531 156.457031 140.207031 155.761719 C 139.898438 155.535156 139.597656 155.28125 139.289062 155.027344 C 138.933594 154.785156 138.570312 154.53125 138.199219 154.285156 L 138.074219 154.191406 L 138.066406 154.191406 L 137.996094 154.144531 L 137.71875 153.988281 C 137.519531 153.898438 137.332031 153.773438 137.144531 153.695312 L 136.582031 153.441406 C 136.425781 153.402344 136.25 153.332031 136.09375 153.292969 C 135.476562 153.179688 134.492188 153.292969 133.535156 153.324219 C 133.078125 153.324219 132.628906 153.324219 132.207031 153.324219 C 131.710938 153.277344 131.230469 153.238281 130.757812 153.203125 C 128.925781 152.921875 127.441406 152.132812 126.367188 151.445312 C 125.261719 150.734375 124.472656 150.125 123.914062 149.660156 C 123.367188 149.203125 123.089844 148.886719 123.164062 148.753906 C 123.25 148.617188 123.660156 148.671875 124.339844 148.902344 C 125.019531 149.109375 125.980469 149.550781 127.101562 150.046875 C 128.230469 150.527344 129.539062 151.019531 131.03125 151.136719 C 131.386719 151.152344 131.765625 151.167969 132.152344 151.175781 C 132.589844 151.167969 133.023438 151.136719 133.480469 151.121094 C 134.332031 151.097656 135.230469 150.882812 136.535156 151.097656 C 136.835938 151.152344 137.117188 151.261719 137.410156 151.351562 L 138.144531 151.695312 C 138.382812 151.800781 138.585938 151.933594 138.792969 152.058594 L 139.101562 152.226562 L 139.179688 152.28125 L 139.304688 152.367188 L 139.34375 152.375 L 139.472656 152.480469 C 139.851562 152.761719 140.191406 153.015625 140.554688 153.292969 C 140.90625 153.617188 141.253906 153.921875 141.585938 154.214844 C 142.011719 154.625 142.382812 155.011719 142.753906 155.390625 C 143.023438 154.414062 143.417969 153.472656 143.6875 152.652344 C 143.75 152.464844 143.851562 152.351562 143.953125 152.242188 C 144.136719 151.6875 144.71875 151.285156 145.328125 151.722656 C 146.195312 152.351562 146.632812 152.800781 146.84375 153.882812 C 147.46875 156.976562 149 156.1875 150.816406 157.546875 C 151.976562 158.429688 153.03125 159.820312 154.335938 160.425781 C 155.503906 160.980469 157.3125 159.96875 158.746094 159.667969 C 158.179688 156.078125 154.082031 152.921875 157.769531 149.535156 C 158.304688 149.054688 158.953125 149.296875 159.285156 149.738281 C 163.222656 152.042969 165.601562 156.84375 170.746094 156.773438 C 173.359375 156.734375 175.59375 156.867188 177.984375 158.035156 C 183.722656 160.832031 191.664062 162.339844 196.132812 167.191406 C 198.871094 170.160156 202.367188 172.09375 204.28125 175.277344 C 206.570312 173.878906 209.386719 172.238281 208.148438 169.230469 C 207.238281 167.042969 205.746094 165.34375 204.59375 163.316406 C 202.976562 160.5 202.109375 157.839844 204.398438 155.203125 C 204.972656 154.546875 205.792969 154.988281 206 155.636719 C 206.183594 155.707031 206.363281 155.839844 206.464844 156.078125 C 207.972656 159.226562 209.90625 162.117188 211.503906 165.203125 C 213.632812 162.566406 213.5 159.195312 211.660156 156.292969 C 210.695312 154.761719 210.277344 153.402344 210.972656 151.65625 C 211.027344 151.539062 211.089844 151.453125 211.15625 151.375 C 211.179688 151.207031 211.25 151.027344 211.398438 150.875 C 216.152344 145.808594 210.769531 138.664062 211.082031 132.980469 C 211.28125 129.523438 214.515625 126.238281 212.046875 122.917969 C 210.121094 120.320312 206.84375 120.613281 204.46875 119.609375 C 204.207031 121.527344 203.292969 122.835938 202.773438 123.769531 C 202.054688 124.875 201.59375 125.703125 201.28125 125.59375 C 201.003906 125.519531 200.894531 124.621094 201.3125 123.144531 C 201.5 122.441406 201.777344 121.652344 202.015625 120.824219 C 202.09375 120.421875 202.234375 119.996094 202.257812 119.585938 C 202.28125 119.371094 202.328125 119.160156 202.3125 118.929688 C 202.3125 118.757812 202.328125 118.574219 202.328125 118.386719 C 202.273438 118.0625 202.21875 117.777344 202.164062 117.453125 C 199.953125 113.742188 199.394531 109.75 196.542969 106.101562 C 195.195312 106.703125 191.996094 107.625 193.542969 109.804688 C 194.207031 110.753906 195.265625 111.589844 195.839844 112.621094 C 196.703125 114.1875 196.945312 115.566406 196.519531 117.320312 C 196.265625 118.332031 194.996094 119.417969 195.878906 120.476562 C 196.007812 120.636719 196.675781 121.289062 196.742188 121.683594 C 197.246094 124.265625 197.152344 126.050781 195.976562 128.433594 C 195.453125 129.515625 193.945312 128.695312 194.199219 127.660156 C 194.167969 127.582031 194.128906 127.511719 194.113281 127.433594 C 193.8125 125.046875 190.519531 124.289062 190.457031 121.765625 C 190.410156 120.105469 190.757812 119.121094 191.238281 117.507812 C 192.15625 114.46875 189.746094 112.402344 188.214844 110.429688 C 185.066406 106.425781 187.601562 104.292969 190.597656 101.917969 C 185.6875 95.910156 174.355469 100.570312 172.808594 107.585938 C 173.050781 108.25 173.597656 109.023438 174.386719 109.671875 C 174.597656 109.851562 174.796875 110.003906 175 110.128906 L 175.425781 110.390625 L 175.78125 110.578125 C 176.273438 110.871094 176.769531 110.910156 177.714844 111.40625 C 177.929688 111.511719 178.183594 111.714844 178.410156 111.914062 C 178.609375 112.109375 178.648438 112.203125 178.78125 112.347656 C 179.113281 112.804688 179.273438 113.082031 179.445312 113.46875 C 179.777344 114.1875 179.972656 114.886719 180.101562 115.511719 C 180.367188 116.765625 180.527344 117.746094 180.835938 118.496094 C 181.140625 119.230469 181.554688 119.773438 181.84375 120.144531 C 182.183594 120.53125 182.375 120.800781 182.296875 120.933594 C 182.207031 121.0625 181.890625 121.0625 181.363281 120.878906 C 180.804688 120.652344 180.070312 120.160156 179.445312 119.269531 C 178.835938 118.371094 178.449219 117.175781 178.101562 116.046875 C 177.726562 114.921875 177.304688 113.792969 176.597656 113.355469 C 176.289062 113.167969 175.402344 112.929688 174.726562 112.511719 L 174.371094 112.300781 C 174.464844 112.820312 174.535156 113.378906 174.574219 113.964844 C 174.960938 119.363281 176.886719 121.574219 181.152344 124.636719 C 183.203125 126.113281 185.136719 127.582031 186.480469 129.761719 C 187.8125 131.898438 187.085938 135.292969 187.277344 137.703125 C 187.292969 137.734375 187.308594 137.734375 187.324219 137.757812 C 188.601562 139.808594 188.972656 141.703125 188.839844 144.117188 C 188.65625 147.15625 189.453125 148.648438 191.546875 150.488281 C 193.242188 148.351562 195.792969 147.65625 198.476562 146.976562 C 201.429688 146.25 203.671875 143.765625 206.867188 144.464844 C 207.414062 144.570312 207.601562 144.996094 207.570312 145.40625 C 208.011719 145.660156 208.296875 146.195312 207.972656 146.753906 C 207.136719 148.261719 206.535156 149.550781 205.148438 150.632812 C 203.867188 151.617188 202.296875 151.648438 200.789062 152.003906 C 196.796875 152.992188 195.367188 155.976562 194.742188 159.671875 C 194.648438 160.261719 194.167969 160.445312 193.71875 160.371094 C 193.636719 160.386719 193.558594 160.410156 193.449219 160.410156 C 191.507812 160.300781 189.855469 159.621094 188.746094 157.957031 C 187.511719 156.09375 186.777344 153.203125 184.363281 152.550781 C 182.722656 152.109375 181.246094 151.785156 180.195312 151.167969 C 179.34375 151.207031 178.410156 151.324219 177.449219 151.648438 L 177.328125 151.671875 C 176.917969 151.785156 176.714844 151.839844 176.3125 152.148438 C 176.105469 152.320312 175.640625 152.613281 175.199219 152.738281 C 174.757812 152.851562 174.242188 152.882812 174.023438 152.851562 L 173.523438 152.832031 L 173.011719 152.722656 C 172.664062 152.667969 172.371094 152.550781 172.089844 152.445312 C 171 151.972656 170.226562 151.414062 169.585938 150.964844 C 168.9375 150.496094 168.511719 150.164062 168.148438 149.882812 C 167.777344 149.621094 167.589844 149.40625 167.644531 149.257812 C 167.683594 149.09375 167.960938 149.035156 168.417969 149.050781 C 168.882812 149.070312 169.601562 149.273438 170.335938 149.566406 C 171.078125 149.84375 171.9375 150.238281 172.789062 150.488281 C 172.988281 150.550781 173.210938 150.617188 173.398438 150.617188 L 173.707031 150.710938 C 173.707031 150.710938 173.730469 150.726562 173.730469 150.734375 C 173.730469 150.75 173.707031 150.75 173.667969 150.75 " fill-opacity="1" fill-rule="nonzero"/></g><path fill="currentColor" d="M 191.664062 79.214844 C 191.398438 79.320312 191.128906 79.5 190.84375 79.683594 C 190.261719 80.015625 189.691406 80.519531 189.132812 81 C 188.601562 81.496094 188.042969 82.050781 187.566406 82.617188 C 187.324219 82.878906 187.085938 83.171875 186.832031 83.503906 C 186.613281 83.777344 186.414062 84.117188 186.21875 84.425781 C 185.601562 85.382812 185.167969 86.582031 184.140625 87.742188 C 183.867188 88.003906 183.566406 88.246094 183.273438 88.484375 C 182.925781 88.703125 182.554688 88.886719 182.183594 89.066406 C 181.859375 89.179688 181.601562 89.234375 181.316406 89.3125 L 181.101562 89.382812 L 180.882812 89.4375 L 180.753906 89.453125 L 180.21875 89.511719 C 178.8125 89.621094 177.597656 89.3125 176.546875 89.164062 C 176.011719 89.089844 175.492188 89.050781 175.128906 89.050781 C 174.96875 89.011719 174.628906 89.105469 174.371094 89.125 C 174.25 89.125 174.039062 89.265625 173.878906 89.304688 C 173.160156 89.636719 172.460938 90.324219 171.8125 91.058594 C 171.496094 91.445312 171.164062 91.816406 170.855469 92.1875 C 170.492188 92.589844 170.136719 93.015625 169.800781 93.324219 C 168.242188 94.710938 166.761719 95.746094 165.253906 96.550781 C 162.308594 98.191406 159.671875 98.933594 157.808594 99.210938 C 156.871094 99.386719 156.167969 99.371094 155.683594 99.359375 C 155.203125 99.351562 154.933594 99.3125 154.917969 99.226562 C 154.855469 98.832031 159.046875 98.652344 164.445312 95.175781 C 165.789062 94.363281 167.1875 93.234375 168.472656 92.019531 C 168.8125 91.671875 169.066406 91.324219 169.363281 90.984375 C 169.671875 90.582031 169.988281 90.179688 170.304688 89.785156 C 171 88.964844 171.757812 88.058594 172.988281 87.425781 C 173.328125 87.300781 173.582031 87.132812 174.023438 87.0625 C 174.316406 87.039062 174.503906 86.953125 174.890625 86.945312 C 175.640625 86.90625 176.25 86.96875 176.839844 87.039062 C 178.007812 87.195312 179.089844 87.410156 180.015625 87.316406 L 180.367188 87.277344 L 180.449219 87.277344 L 180.457031 87.261719 L 180.675781 87.195312 C 180.953125 87.117188 181.269531 87.039062 181.503906 86.945312 C 181.671875 86.839844 181.835938 86.746094 182.003906 86.667969 L 182.5 86.226562 C 183.109375 85.5625 183.589844 84.410156 184.300781 83.25 C 184.550781 82.878906 184.765625 82.507812 185.058594 82.136719 C 185.300781 81.828125 185.5625 81.496094 185.871094 81.160156 C 186.445312 80.496094 187.03125 79.925781 187.65625 79.359375 C 188.308594 78.8125 188.949219 78.285156 189.722656 77.84375 C 190.078125 77.621094 190.519531 77.433594 190.976562 77.257812 L 191.144531 77.203125 L 191.308594 77.164062 L 191.332031 77.164062 L 191.40625 77.148438 L 191.695312 77.109375 L 192.25 77.015625 C 192.707031 77.015625 193.171875 77.015625 193.636719 77.03125 C 194.039062 77.078125 194.4375 77.132812 194.832031 77.1875 C 195.605469 77.351562 196.363281 77.527344 197.082031 77.804688 C 198.515625 78.347656 199.898438 78.917969 200.980469 80.3125 C 201.5 80.992188 201.855469 81.804688 201.941406 82.5625 C 202.03125 83.320312 202.003906 84.023438 201.964844 84.625 C 201.941406 85.222656 201.925781 85.785156 201.996094 86.234375 C 202.039062 86.582031 202.09375 86.707031 202.148438 86.875 C 202.234375 87.039062 202.296875 87.15625 202.386719 87.210938 C 202.550781 87.371094 202.976562 87.433594 203.457031 87.433594 C 203.964844 87.425781 204.453125 87.410156 204.933594 87.410156 C 205.9375 87.394531 206.949219 87.535156 207.714844 87.851562 C 209.316406 88.484375 210.292969 89.113281 211.089844 89.351562 C 211.863281 89.621094 212.332031 89.660156 212.332031 89.792969 C 212.332031 89.878906 211.863281 90.03125 210.972656 89.9375 C 210.066406 89.890625 208.800781 89.34375 207.398438 88.957031 C 206.664062 88.738281 205.90625 88.71875 204.988281 88.777344 C 204.507812 88.832031 204.011719 88.871094 203.496094 88.925781 C 202.960938 88.957031 202.242188 89.011719 201.484375 88.53125 C 201.113281 88.300781 200.84375 87.929688 200.671875 87.582031 C 200.5 87.238281 200.378906 86.808594 200.324219 86.566406 C 200.175781 85.878906 200.175781 85.214844 200.175781 84.585938 C 200.175781 83.945312 200.175781 83.375 200.085938 82.855469 C 200.007812 82.335938 199.78125 81.933594 199.488281 81.546875 L 199.441406 81.496094 L 199.433594 81.480469 C 198.183594 80.039062 194.925781 79.105469 192.621094 79.160156 L 192.066406 79.257812 L 191.785156 79.296875 L 191.710938 79.304688 L 191.679688 79.320312 L 191.664062 79.214844 " fill-opacity="1" fill-rule="nonzero"/><path fill="currentColor" d="M 206.148438 128.9375 C 206.601562 130.242188 207.144531 131.921875 206.949219 134 C 206.882812 134.511719 206.773438 135.050781 206.570312 135.625 C 206.480469 135.878906 206.386719 136.082031 206.292969 136.304688 C 206.148438 136.636719 206.039062 136.800781 205.890625 137.054688 C 205.359375 137.976562 204.632812 139.027344 203.339844 139.636719 C 202.496094 140.039062 201.5625 140.09375 200.804688 140 C 200.023438 139.910156 199.378906 139.707031 198.769531 139.546875 C 197.949219 139.289062 197.222656 139.089844 196.527344 138.933594 C 196.433594 139.714844 196.25 140.449219 195.96875 141.105469 C 195.582031 142.089844 194.832031 142.785156 194.222656 143.226562 C 193.875 143.417969 193.519531 143.542969 193.25 143.652344 C 192.96875 143.75 192.753906 143.707031 192.566406 143.730469 C 192.195312 143.730469 191.988281 143.691406 191.949219 143.597656 C 191.917969 143.488281 192.082031 143.34375 192.398438 143.140625 C 192.542969 143.03125 192.800781 142.972656 192.953125 142.808594 C 193.117188 142.636719 193.316406 142.507812 193.519531 142.3125 C 194.300781 141.5 194.871094 139.878906 194.632812 137.828125 L 194.515625 136.730469 L 195.691406 136.785156 C 196.898438 136.824219 198.152344 137.132812 199.34375 137.441406 C 200.523438 137.742188 201.644531 137.984375 202.386719 137.597656 C 202.992188 137.316406 203.546875 136.667969 204.003906 135.933594 L 204.304688 135.414062 C 204.414062 135.199219 204.539062 134.976562 204.601562 134.773438 C 204.722656 134.472656 204.832031 134.109375 204.894531 133.722656 C 205.148438 132.207031 204.871094 130.660156 204.617188 129.367188 C 204.027344 126.769531 203.773438 124.992188 204.105469 124.929688 C 204.390625 124.890625 205.132812 126.328125 206.148438 128.9375 " fill-opacity="1" fill-rule="nonzero"/><path fill="currentColor" d="M 175.6875 77.132812 C 175.757812 77.257812 175.238281 77.722656 174.1875 78.363281 C 173.175781 79.019531 171.519531 79.722656 170.042969 81.015625 C 169.863281 81.175781 169.695312 81.347656 169.523438 81.511719 C 169.347656 81.695312 169.160156 81.933594 168.976562 82.160156 L 168.679688 82.507812 L 168.386719 82.839844 C 168.148438 83.09375 167.921875 83.351562 167.683594 83.597656 C 166.632812 84.535156 165.269531 85.367188 163.777344 85.746094 C 162.300781 86.15625 160.722656 86.359375 159.191406 86.503906 C 158.449219 86.597656 157.585938 86.621094 156.902344 86.769531 C 156.144531 86.914062 155.355469 87.007812 154.585938 87.195312 C 153.03125 87.558594 151.546875 87.996094 150.121094 88.476562 C 149.386719 88.738281 148.667969 88.996094 147.964844 89.25 C 147.363281 89.421875 146.84375 89.421875 146.6875 89.4375 C 146.65625 89.453125 146.6875 89.328125 146.472656 89.476562 L 146.285156 89.550781 L 146.234375 89.605469 C 145.976562 89.824219 145.675781 90.394531 145.445312 90.984375 C 145.195312 91.578125 145.019531 92.152344 144.648438 92.921875 L 144.40625 93.324219 C 144.230469 93.582031 144.183594 93.621094 144.058594 93.765625 C 143.851562 94.023438 143.648438 94.261719 143.433594 94.5 C 143.03125 94.964844 142.660156 95.429688 142.21875 95.777344 C 140.578125 97.292969 139.117188 98.28125 138.121094 98.949219 C 137.09375 99.597656 136.480469 99.90625 136.386719 99.789062 C 136.28125 99.667969 136.707031 99.132812 137.554688 98.265625 C 138.398438 97.402344 139.691406 96.234375 141.074219 94.671875 C 141.460938 94.308594 141.753906 93.859375 142.085938 93.402344 C 142.25 93.179688 142.421875 92.953125 142.597656 92.722656 C 142.660156 92.628906 142.808594 92.429688 142.808594 92.429688 L 143.023438 92.019531 C 143.210938 91.460938 143.394531 90.875 143.59375 90.285156 C 143.851562 89.621094 144.074219 88.847656 144.847656 88.058594 L 145.003906 87.929688 L 145.089844 87.859375 L 145.097656 87.835938 L 145.109375 87.835938 L 145.234375 87.757812 L 145.257812 87.742188 L 145.496094 87.609375 C 145.582031 87.542969 145.992188 87.410156 146.308594 87.355469 C 146.511719 87.316406 146.589844 87.316406 146.671875 87.316406 L 146.9375 87.292969 C 147.058594 87.261719 147.175781 87.222656 147.214844 87.238281 C 147.925781 86.96875 148.628906 86.691406 149.347656 86.414062 C 150.855469 85.878906 152.441406 85.382812 154.097656 85.011719 C 157.4375 84.199219 160.714844 84.371094 163.230469 83.746094 C 164.519531 83.480469 165.550781 82.863281 166.445312 82.214844 C 166.640625 82.011719 166.839844 81.828125 167.042969 81.640625 L 167.375 81.316406 L 167.683594 81 C 167.890625 80.789062 168.070312 80.574219 168.308594 80.375 C 168.550781 80.171875 168.804688 79.980469 169.042969 79.785156 C 170.96875 78.417969 172.703125 77.992188 173.824219 77.566406 C 174.960938 77.1875 175.609375 76.992188 175.6875 77.132812 " fill-opacity="1" fill-rule="nonzero"/><path fill="currentColor" d="M 168.242188 144.09375 C 169.082031 144.480469 169.523438 144.78125 169.46875 144.925781 C 169.414062 145.074219 168.898438 145.058594 168 144.925781 C 167.097656 144.796875 165.789062 144.570312 164.179688 144.128906 C 163.375 143.898438 162.503906 143.621094 161.566406 143.195312 C 161.101562 143.007812 160.59375 142.675781 160.089844 142.398438 C 159.617188 142.066406 159.285156 141.8125 158.796875 141.371094 C 157.886719 140.582031 157.105469 139.453125 156.625 138.238281 C 156.144531 137.039062 155.90625 135.878906 155.386719 135.105469 C 154.839844 134.308594 154.097656 133.832031 153.039062 133.390625 C 152.21875 133.027344 151.136719 132.910156 150.105469 132.832031 C 148.019531 132.671875 145.976562 132.59375 144.285156 132.042969 C 143.449219 131.734375 142.675781 131.378906 142.140625 130.832031 C 141.585938 130.335938 141.253906 129.777344 141.074219 129.277344 C 140.851562 128.78125 140.90625 128.433594 140.875 128.179688 C 140.875 127.921875 140.914062 127.792969 140.980469 127.769531 C 141.058594 127.746094 141.167969 127.84375 141.3125 128.046875 C 141.460938 128.230469 141.59375 128.617188 141.871094 128.898438 C 142.328125 129.539062 143.246094 130.242188 144.703125 130.511719 C 146.15625 130.792969 148.019531 130.714844 150.214844 130.753906 C 150.789062 130.777344 151.375 130.808594 152.015625 130.882812 C 151.824219 130.699219 151.652344 130.519531 151.484375 130.328125 C 150.230469 128.914062 149.292969 127.382812 148.898438 126.035156 C 148.605469 124.804688 148.707031 124.039062 148.976562 123.941406 C 149.292969 123.808594 149.75 124.503906 150.394531 125.472656 C 151.019531 126.3125 151.984375 127.511719 153.160156 128.835938 C 154.359375 130.148438 155.441406 131.457031 156.078125 132.546875 C 156.09375 132.59375 156.105469 132.617188 156.128906 132.65625 C 156.554688 133.003906 156.941406 133.390625 157.25 133.871094 C 158.101562 135.199219 158.304688 136.492188 158.675781 137.441406 C 159.039062 138.417969 159.539062 139.195312 160.222656 139.863281 C 160.5 140.15625 160.980469 140.582031 161.328125 140.851562 C 161.714844 141.078125 162.007812 141.332031 162.410156 141.53125 C 163.191406 141.972656 163.980469 142.3125 164.699219 142.636719 C 166.160156 143.234375 167.414062 143.691406 168.242188 144.09375 " fill-opacity="1" fill-rule="nonzero"/><path fill="currentColor" d="M 142.304688 139.894531 C 144.871094 141.316406 148.296875 141.554688 151.445312 142.234375 C 150.136719 141.277344 148.667969 140.582031 146.710938 140.25 C 144.515625 139.894531 142.691406 139.421875 140.867188 138.089844 C 137.59375 135.71875 137 132.300781 132.492188 131.582031 C 131.5625 132.207031 132.242188 131.820312 132.925781 132.578125 C 133.320312 133.027344 133.707031 133.484375 134.144531 133.871094 C 134.84375 134.480469 135.144531 135.042969 135.359375 135.933594 C 135.691406 137.308594 135.199219 138.222656 134.894531 139.507812 C 134.480469 141.253906 135.429688 142.636719 136.628906 143.78125 C 136.28125 142.035156 135.949219 140.265625 137.117188 138.878906 C 138.289062 137.503906 141.222656 139.289062 142.304688 139.894531 Z M 151.761719 139.597656 C 153.640625 140.90625 153.933594 142.933594 155.242188 144.765625 C 151.785156 143.195312 147.390625 144.570312 143.820312 142.957031 C 143.171875 142.660156 138.128906 139.621094 138.3125 141.355469 C 138.476562 142.992188 138.972656 144.59375 138.996094 146.25 C 138.996094 147.324219 137.648438 147.488281 137.167969 146.789062 C 135.707031 145.683594 133.921875 144.300781 133.242188 142.554688 C 132.894531 141.664062 132.5625 140.691406 132.785156 139.730469 C 133.039062 138.640625 134.175781 136.558594 133.078125 135.585938 C 130.867188 133.628906 128.355469 131.953125 131.65625 129.738281 C 131.964844 129.523438 132.265625 129.539062 132.507812 129.65625 C 132.636719 129.617188 132.777344 129.617188 132.925781 129.632812 C 134.902344 129.925781 136.851562 130.480469 138.214844 132.058594 C 139.597656 133.628906 140.851562 136.1875 142.824219 137.070312 C 145.496094 138.253906 149.347656 137.90625 151.761719 139.597656 " fill-opacity="1" fill-rule="nonzero"/><path fill="currentColor" d="M 107.273438 175.945312 C 106.539062 175.835938 105.859375 175.71875 105.226562 175.625 C 100.785156 174.90625 94.980469 172.898438 92.804688 169.03125 C 89.921875 168.628906 87.183594 167.667969 84.253906 168.472656 C 81.105469 169.339844 71.578125 171.746094 76.40625 178.0625 C 76.921875 178.742188 76.171875 179.476562 75.539062 179.554688 C 71.65625 180.074219 61.242188 180.5 62.175781 186.605469 C 62.757812 187.09375 62.5625 188.339844 61.550781 188.394531 C 58.789062 188.523438 54.714844 189.964844 52.929688 192.121094 C 54.3125 194.535156 55.988281 194.890625 57.945312 193.1875 C 58.371094 192.964844 58.789062 192.746094 59.214844 192.53125 C 59.949219 192.144531 60.683594 191.75 61.449219 191.425781 C 69.421875 188.109375 77.84375 186.167969 85.863281 183.019531 C 86.796875 179.773438 89.117188 178.503906 92.511719 178.285156 C 95.882812 178.09375 98.824219 177.414062 102.078125 176.585938 C 103.648438 176.167969 105.488281 176.105469 107.273438 175.945312 Z M 120.171875 171.164062 C 119.367188 170.707031 118.59375 170.191406 117.828125 169.75 C 113.335938 167.230469 109.167969 165.566406 104.019531 164.902344 C 101.863281 164.792969 97.382812 165.101562 94.246094 163.996094 C 92.480469 170.523438 100.753906 172.90625 105.75 173.695312 C 109.796875 174.320312 118.199219 176.089844 120.171875 171.164062 Z M 136.488281 169.175781 C 140.78125 167.539062 130.773438 165.15625 130.867188 165.164062 C 127.441406 164.59375 123.890625 164.035156 120.835938 162.273438 C 117.027344 160.058594 113.578125 157.71875 109.097656 157.015625 C 105.140625 156.386719 101.289062 156.132812 97.4375 157.371094 C 97.089844 157.476562 90.433594 159.921875 94.207031 161.546875 C 97.429688 162.945312 100.664062 162.726562 104.019531 162.898438 C 107.476562 163.339844 110.855469 163.964844 114.03125 165.496094 C 116.933594 166.894531 120.613281 170.097656 123.808594 170.320312 C 126.914062 170.539062 130.148438 170.46875 133.203125 169.917969 C 134.292969 169.734375 135.453125 169.578125 136.488281 169.175781 Z M 139.945312 167.894531 C 140.527344 170.042969 137.539062 171.054688 136.039062 171.390625 C 131.820312 172.347656 127.292969 172.75 122.996094 172.214844 C 122.648438 172.179688 122.316406 172.09375 121.996094 171.984375 C 120.542969 175.589844 116.785156 176.507812 112.878906 176.460938 C 112.789062 176.585938 112.679688 176.695312 112.507812 176.753906 C 111.015625 177.4375 109.726562 177.691406 108.070312 177.746094 C 105.125 177.824219 102.632812 178.636719 99.835938 179.347656 C 95.8125 180.359375 88.792969 179.019531 87.664062 183.992188 C 87.554688 184.457031 87.222656 184.675781 86.859375 184.699219 C 86.796875 184.75 86.726562 184.820312 86.621094 184.859375 C 77.960938 188.285156 68.523438 189.964844 60.226562 194.253906 C 58.1875 195.308594 53.910156 197.96875 51.675781 195.933594 C 46.8125 191.472656 55.671875 187.472656 60.210938 186.578125 C 59.617188 179.734375 68.128906 178.488281 73.859375 177.769531 C 72.128906 174.464844 73.179688 170.910156 77.03125 169.046875 C 82.574219 166.355469 86.394531 166.261719 92.070312 166.949219 C 91.855469 165.789062 91.957031 164.5 92.425781 163.078125 C 91.777344 162.566406 91.28125 161.941406 91.019531 161.128906 C 90.230469 158.613281 92.472656 157.089844 94.617188 156.257812 C 98.921875 154.601562 103.144531 154.050781 107.722656 154.785156 C 115.183594 155.976562 120.429688 161.183594 127.636719 162.566406 C 131.417969 163.285156 138.609375 163.078125 139.945312 167.894531 " fill-opacity="1" fill-rule="nonzero"/><path fill="currentColor" d="M 126.1875 139.359375 C 126.257812 138.507812 126.074219 132.484375 125.671875 133.121094 C 124.65625 134.695312 123.21875 134.960938 121.464844 134.519531 C 119.199219 133.960938 118.773438 130.125 117.210938 128.726562 C 115.199219 126.917969 112.726562 125.503906 110.058594 124.890625 C 108.488281 124.527344 104.660156 125.183594 103.554688 124.226562 C 103.59375 124.265625 103.609375 124.304688 103.648438 124.34375 C 103.777344 124.382812 103.925781 124.449219 104.066406 124.558594 C 106.539062 126.675781 109.820312 126.207031 112.507812 127.746094 C 114.628906 128.9375 116.988281 130.566406 118.199219 132.761719 C 119.878906 135.765625 122.679688 135.324219 124.542969 137.550781 C 125.238281 138.386719 125.703125 139.375 126.148438 140.339844 C 126.164062 140.007812 126.164062 139.691406 126.1875 139.359375 Z M 128.632812 144 C 128.933594 144.957031 127.820312 145.476562 127.125 145.058594 C 126.953125 145.019531 126.777344 144.957031 126.621094 144.796875 C 124.316406 142.460938 124.085938 139.050781 120.675781 137.773438 C 118.957031 137.117188 117.867188 136.25 116.988281 134.664062 C 114.761719 130.699219 111.273438 129.351562 107.167969 128.207031 C 105.394531 127.714844 104.035156 127.164062 102.632812 125.980469 C 102.597656 125.941406 102.582031 125.90625 102.558594 125.859375 C 102.410156 125.820312 102.277344 125.757812 102.148438 125.648438 C 101.800781 125.339844 101.691406 125.191406 101.488281 124.769531 C 101.28125 124.320312 101.320312 123.652344 101.855469 123.414062 C 106.183594 121.410156 111.660156 122.554688 115.601562 125.046875 C 117.597656 126.296875 119.476562 127.746094 120.488281 129.941406 C 121.742188 132.671875 123.195312 132.011719 124.890625 130.429688 C 125.128906 130.203125 125.539062 130.042969 125.863281 130.179688 C 130.550781 132.097656 127.472656 140.355469 128.632812 144 " fill-opacity="1" fill-rule="nonzero"/><path fill="currentColor" d="M 117.945312 146.898438 C 118.570312 147.316406 118.890625 147.601562 118.84375 147.75 C 118.78125 147.898438 118.347656 147.875 117.597656 147.710938 C 117.242188 147.59375 116.769531 147.355469 116.253906 147.0625 C 115.804688 146.730469 115.238281 146.351562 114.761719 145.863281 C 113.738281 144.910156 112.765625 143.621094 111.574219 142.570312 L 111.125 142.183594 C 111.054688 142.105469 110.792969 141.925781 110.613281 141.8125 C 110.226562 141.515625 109.910156 141.347656 109.726562 141.292969 C 109.601562 141.238281 109.601562 141.261719 109.5 141.261719 L 108.84375 141.410156 C 108.582031 141.476562 108.257812 141.5 107.96875 141.539062 L 107.089844 141.539062 C 106.445312 141.492188 106.113281 141.515625 105.464844 141.371094 C 104.863281 141.261719 104.34375 141.078125 103.832031 140.890625 C 102.820312 140.464844 101.945312 139.855469 101.226562 139.175781 C 99.796875 137.757812 99.054688 136.136719 98.722656 134.75 C 98.027344 131.953125 98.597656 130.234375 98.851562 130.257812 C 99.210938 130.257812 99.253906 131.953125 100.222656 134.242188 C 100.695312 135.378906 101.46875 136.636719 102.625 137.644531 C 103.207031 138.128906 103.886719 138.546875 104.644531 138.839844 C 105.03125 138.957031 105.433594 139.105469 105.820312 139.160156 C 106.128906 139.25 106.808594 139.265625 107.179688 139.304688 L 107.808594 139.304688 C 108.007812 139.265625 108.195312 139.265625 108.402344 139.226562 L 108.726562 139.160156 L 109.191406 139.066406 C 109.554688 139.027344 110.042969 139.042969 110.375 139.183594 C 111.09375 139.4375 111.566406 139.824219 111.898438 140.078125 C 112.101562 140.242188 112.214844 140.320312 112.472656 140.558594 L 113.003906 141.0625 C 114.351562 142.453125 115.144531 143.804688 115.933594 144.796875 C 116.320312 145.3125 116.707031 145.683594 117.027344 146.085938 C 117.390625 146.382812 117.652344 146.675781 117.945312 146.898438 " fill-opacity="1" fill-rule="nonzero"/></svg>