<svg xmlns="http://www.w3.org/2000/svg" xmlns:xlink="http://www.w3.org/1999/xlink" width="400" zoomAndPan="magnify" viewBox="0 0 300 299.999988" height="400" preserveAspectRatio="xMidYMid meet" version="1.0"><path fill="currentColor" d="M 250.34375 125.292969 C 251.113281 125.316406 251.824219 127.148438 251.726562 129.671875 C 251.539062 130.957031 251.25 132.113281 250.660156 132.824219 C 250.144531 133.5625 249.652344 133.859375 249.300781 133.710938 C 248.949219 133.546875 248.761719 132.957031 248.738281 132.210938 C 248.792969 131.484375 248.726562 130.5 248.882812 129.453125 C 248.980469 127.265625 249.554688 125.265625 250.34375 125.292969 " fill-opacity="1" fill-rule="nonzero"/><path fill="currentColor" d="M 88.257812 173.164062 C 92.589844 174.328125 92.402344 170.691406 91.863281 167.925781 C 89.535156 169.359375 87.25 170.757812 84.941406 172.101562 C 86 172.4375 87.046875 172.839844 88.257812 173.164062 Z M 111.320312 155.15625 C 108.945312 156.699219 106.570312 158.230469 104.195312 159.761719 C 108.90625 161.316406 110.304688 158.671875 111.320312 155.15625 Z M 137.945312 139.484375 C 137.945312 138.105469 137.878906 136.757812 137.773438 135.390625 C 135.503906 137.246094 133.21875 139.113281 130.910156 140.933594 C 129.613281 141.941406 128.214844 142.832031 126.886719 143.808594 C 127.289062 143.824219 127.714844 143.847656 128.109375 143.863281 C 131.695312 143.980469 137.894531 144.617188 137.945312 139.484375 Z M 154.117188 119.222656 C 159.824219 119.132812 164.335938 118.617188 161.929688 110.617188 C 159.351562 113.515625 156.84375 116.457031 154.117188 119.222656 Z M 173.945312 95.777344 C 178.015625 95.523438 181.667969 94.613281 180.511719 91.445312 C 180.273438 90.8125 180.003906 90.167969 179.734375 89.527344 C 177.933594 91.738281 175.964844 93.769531 173.945312 95.777344 Z M 196.570312 59.957031 C 190.675781 57.515625 183.46875 66.320312 179.800781 69.785156 C 174.753906 74.566406 169.015625 78.539062 163.984375 83.355469 C 151.695312 95.105469 143.464844 109.828125 131.917969 122.148438 C 121.230469 133.5625 109.832031 139.972656 95.582031 145.945312 C 79.996094 152.480469 67.910156 161.667969 62.636719 177.742188 C 64.019531 177.203125 65.402344 176.664062 66.796875 176.113281 C 71.445312 174.289062 75.859375 171.898438 80.128906 169.324219 C 82.496094 167.898438 84.957031 166.632812 87.332031 165.199219 C 88.523438 164.5 89.691406 163.75 90.816406 162.929688 C 91.828125 162.175781 92.214844 161.332031 93.074219 160.472656 C 94.253906 159.246094 95.628906 159.246094 97.039062 158.539062 C 98.472656 157.828125 99.789062 156.566406 101.199219 155.679688 C 104.800781 153.371094 108.4375 151.113281 111.96875 148.710938 C 112.441406 148.386719 113.164062 148.335938 113.554688 148.050781 C 114.261719 147.527344 114.628906 146.574219 115.324219 145.984375 C 116.535156 144.976562 118.035156 144.632812 119.273438 143.792969 C 120.640625 142.882812 121.648438 141.5 122.980469 140.53125 C 124.429688 139.46875 125.972656 138.542969 127.324219 137.363281 C 129.515625 135.445312 131.835938 133.695312 134.109375 131.875 C 136.042969 130.34375 137.222656 129.960938 137.910156 127.46875 C 138.851562 124.121094 140.941406 121.457031 144.257812 120.246094 C 144.945312 119.992188 146.074219 119.992188 146.664062 119.589844 C 147.253906 119.183594 147.722656 118.09375 148.246094 117.535156 C 149.5625 116.121094 151.1875 115.03125 152.503906 113.597656 C 154.675781 111.277344 156.746094 108.832031 158.867188 106.464844 C 159.925781 105.269531 160.210938 105.570312 160.242188 103.71875 C 160.277344 102.320312 160.195312 100.960938 160.75 99.644531 C 161.554688 97.695312 163.152344 96.34375 165.246094 95.941406 C 166.84375 95.621094 166.8125 95.859375 167.875 94.664062 C 168.882812 93.523438 170.09375 92.527344 171.167969 91.445312 C 173.238281 89.414062 175.179688 87.308594 176.941406 85.023438 C 178.339844 83.199219 178.1875 80.765625 179.601562 78.875 C 180.207031 78.070312 180.996094 77.398438 181.921875 76.957031 C 182.347656 76.777344 184.582031 76.523438 184.714844 76.335938 C 184.753906 76.285156 184.769531 76.214844 184.820312 76.164062 C 188.4375 71.542969 192.222656 65.476562 196.570312 59.957031 Z M 198.21875 57.941406 C 198.25 57.886719 198.28125 57.851562 198.316406 57.796875 C 190.476562 54.019531 178.726562 57.992188 172.109375 62.601562 C 163.058594 68.898438 156.894531 78.054688 150.703125 86.972656 C 139.894531 102.574219 126.714844 117.4375 111.523438 128.917969 C 90.953125 144.453125 47.101562 149.554688 52.40625 182.355469 C 54.765625 181.070312 57.171875 179.964844 59.628906 178.957031 C 64.085938 163.304688 74.746094 152.28125 89.707031 145.746094 C 98.527344 141.890625 108.304688 139.015625 116.078125 133.175781 C 124.695312 126.691406 132.136719 118.796875 138.566406 110.164062 C 144.308594 102.476562 149.507812 94.464844 156.1875 87.523438 C 162.398438 81.101562 169.40625 75.828125 176 69.867188 C 181.183594 65.191406 190.101562 53.59375 198.21875 57.941406 Z M 209.3125 69.839844 C 207.863281 64.9375 206.765625 64.304688 206.039062 67.917969 C 205.90625 68.375 205.785156 68.828125 205.652344 69.285156 C 205.40625 70.160156 205.152344 71.183594 204.679688 71.972656 C 203.449219 74 202.15625 76.214844 200.085938 77.515625 C 195.03125 80.660156 179.25 78.859375 182.417969 86.664062 C 183.46875 89.28125 185.949219 94.023438 183.1875 96.53125 C 181.132812 98.382812 178.964844 99.027344 176.21875 99.445312 C 173.730469 99.832031 170.847656 99.070312 168.425781 99.226562 C 164.84375 99.445312 161.824219 100.691406 163.699219 105.316406 C 165.746094 110.386719 168.242188 114.425781 165.191406 119.691406 C 163.042969 123.414062 157.320312 123.121094 153.714844 122.988281 C 150.246094 122.851562 143.972656 122 142.113281 126.101562 C 140.785156 129.082031 141.078125 132.164062 141.308594 135.308594 C 141.425781 136.992188 141.449219 138.707031 141.105469 140.359375 C 139.8125 146.855469 133.332031 147.164062 127.847656 147.191406 C 124.480469 147.207031 120.65625 146.238281 118.167969 149.007812 C 115.957031 151.488281 115.160156 154.902344 113.980469 157.894531 C 112.125 162.675781 109.230469 165.441406 103.910156 163.4375 C 99.960938 161.9375 93.761719 161.0625 95.5625 168.203125 C 95.917969 169.628906 96.644531 171.789062 95.761719 173.199219 C 91.894531 179.527344 88.023438 175.6875 82.117188 174.984375 C 75.671875 176.464844 74.074219 184.222656 74.679688 190.078125 C 74.335938 194.761719 75.46875 195.769531 78.078125 193.113281 C 78.023438 191.582031 77.90625 190.0625 77.742188 188.546875 C 77.703125 187.300781 77.554688 185.902344 77.835938 184.679688 C 79.113281 179.429688 83.851562 180.167969 88.160156 181.363281 C 92.402344 182.519531 98.710938 183.261719 98.488281 176.464844 C 98.445312 175.230469 98.273438 173.789062 98.59375 172.59375 C 99.144531 170.488281 100.191406 168.316406 102.515625 167.679688 C 106.757812 166.515625 112.746094 172.304688 115.429688 167.054688 C 116.773438 164.429688 117.191406 161.535156 118.332031 158.820312 C 120.695312 153.183594 123.808594 152.445312 129.679688 152.390625 C 136.550781 152.324219 144.527344 151.488281 144.675781 142.347656 C 144.726562 139.214844 144.085938 136.101562 144.371094 132.988281 C 144.945312 126.644531 153.5625 125.898438 158.328125 125.546875 C 161.808594 125.292969 175.425781 124.726562 172.429688 116.644531 C 171.722656 114.742188 170.683594 113.210938 169.785156 111.425781 C 168.695312 109.222656 168.039062 107.273438 168.253906 104.777344 C 168.34375 103.902344 169.015625 102.910156 170.027344 103.015625 C 173.910156 103.378906 178.554688 103.917969 182.257812 102.359375 C 189.199219 99.445312 186.21875 93.363281 185.777344 87.882812 C 185.492188 84.394531 187.210938 83.253906 190.476562 82.78125 C 199.648438 81.453125 206.847656 80.242188 209.3125 69.839844 Z M 236.339844 90.324219 C 239.457031 81.101562 244.078125 72.511719 238.371094 63.125 C 233.457031 55.027344 224.644531 48.222656 214.613281 51.710938 C 203.394531 55.582031 197.496094 66.910156 190.894531 76.320312 C 195.941406 76.097656 200.453125 74.789062 202.253906 68.335938 C 202.792969 66.371094 203.335938 64.132812 204.832031 62.617188 C 206.9375 60.507812 211.957031 61.421875 212.820312 64.453125 C 214.292969 69.621094 211.277344 77.816406 207.175781 81.28125 C 202.121094 85.546875 196.144531 84.835938 190.085938 86.382812 C 188.921875 86.6875 190.796875 96.480469 190.324219 98.128906 C 189.632812 100.585938 188.675781 102.253906 186.71875 103.941406 C 182.917969 107.183594 176.820312 107.117188 171.90625 106.710938 C 172.65625 110.601562 176.417969 113.53125 176.164062 117.640625 C 175.894531 121.882812 173.542969 124.421875 170.109375 126.726562 C 164.992188 130.179688 157.820312 128.003906 152.300781 129.941406 C 144.625 132.636719 149.65625 141.367188 147.371094 146.960938 C 143.265625 156.941406 134.847656 154.832031 125.890625 155.960938 C 118.386719 156.902344 121.917969 171.042969 113.941406 172.660156 C 109.804688 173.5 101.773438 169.53125 102.027344 176.464844 C 102.148438 179.996094 101.976562 183.664062 98.5625 185.671875 C 93.453125 188.667969 88.121094 183.597656 82.976562 183.933594 C 80.226562 184.121094 81.984375 195.414062 80.0625 198.027344 C 75.753906 203.910156 71.175781 193.359375 71.136719 190.078125 C 71.109375 186.210938 71.472656 181.984375 72.976562 178.519531 C 69.792969 180.0625 66.542969 181.511719 63.183594 182.84375 C 59.507812 184.277344 55.878906 186.039062 52.511719 188.195312 C 52.257812 188.429688 51.972656 188.617188 51.652344 188.75 C 47.34375 191.609375 43.519531 195.144531 40.8125 199.625 C 35.847656 207.773438 34.921875 217.886719 44.871094 222.816406 C 57.625 229.140625 71.390625 227.878906 84.089844 222.292969 C 84.105469 221.066406 84.222656 219.820312 84.453125 218.589844 C 87.277344 204.636719 100.394531 195.007812 111.46875 187.488281 C 129.304688 175.375 146.878906 163.265625 163.492188 149.433594 C 171.894531 142.449219 180.847656 135.59375 188.003906 127.28125 C 193.285156 121.15625 198.199219 114.695312 203.671875 108.734375 C 211.957031 99.714844 223.078125 88.691406 236.222656 90.960938 C 236.238281 90.757812 236.273438 90.542969 236.339844 90.324219 Z M 217.960938 110.640625 C 225.9375 101.109375 234.570312 97.136719 243.578125 99.511719 C 241.710938 98.332031 239.621094 97.269531 237.269531 96.382812 C 220.417969 91.414062 205.472656 114.136719 196.421875 125.09375 C 183 141.324219 165.953125 154.445312 149.269531 167.171875 C 134.472656 178.449219 117.527344 187.621094 103.457031 199.773438 C 97.464844 204.957031 89.519531 212.230469 89.234375 220.828125 C 89.183594 222.5625 89.382812 224.265625 89.789062 225.914062 C 91.609375 217.527344 99.988281 210.746094 109.230469 206.742188 C 131.195312 197.234375 152.167969 183.902344 168.777344 166.582031 C 185.882812 148.738281 202.066406 129.574219 217.960938 110.640625 Z M 253.386719 141.1875 C 257.292969 128.140625 257.613281 114.726562 250.144531 105.351562 C 241.710938 99.714844 231.816406 98.570312 223.765625 107.726562 C 217.519531 114.832031 211.449219 122.097656 205.167969 129.1875 C 193 142.921875 181.574219 157.597656 168.480469 170.472656 C 155.445312 183.296875 140.523438 193.679688 124.375 202.246094 C 112.558594 208.527344 88.898438 216.085938 91.910156 231.382812 C 94.941406 236.886719 100.109375 241.449219 105.546875 244.175781 C 124.882812 253.871094 147.402344 244.765625 164.402344 234.210938 C 183.777344 222.171875 202.910156 208.109375 219.304688 192.238281 C 234.117188 177.898438 247.378906 161.226562 253.386719 141.1875 Z M 240.800781 92.425781 C 269.226562 104.925781 262.945312 137.886719 250.414062 161.078125 C 240.226562 179.875 224.621094 195.414062 208.132812 208.757812 C 192.261719 221.621094 175.328125 235.207031 156.867188 244.152344 C 141.53125 251.601562 124.242188 256.625 107.578125 250.636719 C 98.019531 247.207031 87.433594 238.082031 84.738281 227.460938 C 71.863281 232.75 57.1875 234.550781 44.242188 228.117188 C 36.558594 224.316406 30.640625 217.527344 32.039062 208.421875 C 33.507812 198.996094 40.105469 190.601562 47.828125 185.164062 C 39.785156 147.230469 83.746094 143.609375 106.792969 126.207031 C 117.929688 117.773438 127.714844 107.636719 136.820312 97.085938 C 144.191406 88.539062 149.65625 78.570312 156.949219 69.972656 C 166.214844 59.015625 187.105469 44.203125 201.886719 53.929688 C 208.332031 47.574219 216.027344 43.546875 225.898438 46.609375 C 234.316406 49.214844 241.242188 55.667969 244.402344 63.984375 C 248.253906 74.066406 244.488281 81.988281 241.21875 91.667969 C 241.121094 91.953125 240.972656 92.207031 240.800781 92.425781 " fill-opacity="1" fill-rule="nonzero"/><path fill="currentColor" d="M 250.726562 115.90625 C 251.085938 118.058594 250.710938 119.386719 250.34375 119.402344 C 249.917969 119.425781 249.570312 118.207031 248.792969 116.472656 C 248.039062 114.726562 246.777344 112.417969 244.855469 110.335938 C 243.890625 109.304688 242.882812 108.429688 241.914062 107.742188 C 240.882812 107.117188 239.941406 106.5625 239.066406 106.277344 C 237.445312 105.636719 236.019531 105.515625 236.058594 105.097656 C 236.058594 104.761719 237.164062 104.089844 239.523438 104.320312 C 240.652344 104.390625 241.914062 104.84375 243.242188 105.488281 C 244.535156 106.195312 245.8125 107.183594 246.960938 108.414062 C 249.234375 110.886719 250.375 113.785156 250.726562 115.90625 " fill-opacity="1" fill-rule="nonzero"/><path fill="currentColor" d="M 235.886719 63.445312 C 237.335938 66.253906 237.851562 69.332031 237.320312 71.488281 C 236.8125 73.65625 235.683594 74.566406 235.414062 74.363281 C 235.042969 74.148438 235.414062 73.003906 235.3125 71.289062 C 235.28125 69.554688 234.609375 67.195312 233.363281 64.738281 C 232.085938 62.265625 230.566406 60.1875 229.386719 58.761719 C 228.273438 57.335938 227.386719 56.410156 227.640625 56.074219 C 227.84375 55.765625 229.066406 56.035156 230.785156 57.296875 C 232.449219 58.507812 234.421875 60.613281 235.886719 63.445312 " fill-opacity="1" fill-rule="nonzero"/><path fill="currentColor" d="M 231.5625 65.207031 C 233.5625 68 233.617188 70.832031 232.890625 70.996094 C 232.113281 71.234375 230.890625 69.128906 229.269531 66.894531 C 228.445312 65.796875 227.640625 64.871094 227.117188 64.214844 C 226.460938 63.527344 225.953125 62.953125 226.152344 62.601562 C 226.339844 62.265625 227.011719 62.128906 228.074219 62.464844 C 229.269531 62.882812 230.53125 63.847656 231.5625 65.207031 " fill-opacity="1" fill-rule="nonzero"/><path fill="currentColor" d="M 232.6875 165.050781 C 232.988281 165.222656 231.75 168.113281 229.082031 172.460938 C 226.421875 176.761719 222.152344 182.355469 216.953125 188.078125 C 211.679688 193.714844 206.535156 198.445312 202.613281 201.640625 C 198.707031 204.835938 196.113281 206.578125 195.859375 206.285156 C 195.308594 205.628906 204.507812 197.285156 214.859375 186.144531 C 219.976562 180.519531 224.40625 175.253906 227.453125 171.308594 C 230.464844 167.359375 232.300781 164.835938 232.6875 165.050781 " fill-opacity="1" fill-rule="nonzero"/><path fill="currentColor" d="M 197.964844 148.214844 C 198.585938 148.628906 197.285156 151.421875 194.664062 153.839844 C 192.125 156.132812 189.667969 157.628906 189.128906 157.058594 C 188.585938 156.5 190.152344 154.09375 192.746094 151.757812 C 195.203125 149.484375 197.273438 147.746094 197.964844 148.214844 " fill-opacity="1" fill-rule="nonzero"/><path fill="currentColor" d="M 181.976562 163.789062 C 182.476562 164.3125 175.125 172.527344 164.789062 181.484375 C 159.417969 185.738281 154.519531 189.59375 150.613281 191.714844 C 146.796875 194 144.324219 195.246094 144.109375 194.925781 C 143.882812 194.605469 145.953125 192.753906 149.484375 190.042969 C 153.160156 187.472656 157.722656 183.460938 162.960938 179.308594 C 173.15625 170.488281 181.386719 163.183594 181.976562 163.789062 " fill-opacity="1" fill-rule="nonzero"/><path fill="currentColor" d="M 176.300781 217.871094 C 176.769531 218.476562 172.148438 222.921875 165.933594 227.765625 C 159.554688 232.34375 154.019531 235.542969 153.578125 234.898438 C 153.109375 234.257812 157.902344 230.039062 164.289062 225.445312 C 170.429688 220.640625 175.8125 217.242188 176.300781 217.871094 " fill-opacity="1" fill-rule="nonzero"/><path fill="currentColor" d="M 148.3125 237.222656 C 148.476562 237.492188 145.832031 239.613281 140.808594 241.800781 C 139.53125 242.257812 138.164062 242.929688 136.578125 243.300781 C 135.8125 243.519531 134.996094 243.734375 134.175781 243.976562 C 133.332031 244.175781 132.457031 244.296875 131.546875 244.460938 C 129.769531 244.847656 127.828125 244.863281 125.839844 245.011719 C 123.839844 244.953125 121.664062 244.953125 119.699219 244.578125 C 111.363281 243.371094 104.230469 240.070312 100.042969 236.3125 C 97.9375 234.429688 96.6875 232.480469 96.121094 230.964844 C 95.785156 230.222656 95.734375 229.648438 95.664062 229.246094 C 95.613281 228.859375 95.628906 228.617188 95.710938 228.589844 C 96.1875 228.402344 97.113281 231.753906 101.320312 234.75 C 105.40625 237.796875 112.261719 240.644531 120.105469 241.765625 C 122.171875 242.152344 124.011719 242.121094 125.824219 242.242188 C 127.675781 242.121094 129.5 242.175781 131.179688 241.867188 C 132.023438 241.75 132.859375 241.683594 133.667969 241.53125 C 134.457031 241.34375 135.234375 241.179688 135.988281 241.023438 C 137.507812 240.753906 138.835938 240.234375 140.113281 239.917969 C 145.117188 238.296875 148.089844 236.804688 148.3125 237.222656 " fill-opacity="1" fill-rule="nonzero"/><path fill="currentColor" d="M 65.617188 223.757812 C 65.683594 224.09375 63.9375 224.789062 60.957031 225.003906 C 57.992188 225.207031 53.683594 224.882812 49.449219 222.75 C 47.34375 221.671875 45.558594 220.238281 44.175781 218.746094 C 42.777344 217.230469 41.875 215.628906 41.246094 214.234375 C 40.023438 211.359375 40.089844 209.574219 40.375 209.453125 C 40.792969 209.265625 41.539062 211.066406 43.015625 213.292969 C 43.792969 214.421875 44.75 215.710938 46.042969 216.921875 C 47.34375 218.117188 48.902344 219.28125 50.742188 220.222656 C 54.40625 222.074219 58.214844 222.695312 60.988281 223.003906 C 63.773438 223.285156 65.574219 223.324219 65.617188 223.757812 " fill-opacity="1" fill-rule="nonzero"/><path fill="currentColor" d="M 60.167969 219.335938 C 60.234375 220.074219 57.171875 220.867188 53.652344 219.5 C 51.933594 218.773438 50.554688 217.683594 49.800781 216.519531 C 49.179688 215.496094 49.15625 214.734375 49.433594 214.503906 C 49.746094 214.21875 50.433594 214.652344 51.332031 215.210938 C 52.121094 215.644531 53.316406 216.289062 54.714844 216.855469 C 57.542969 217.984375 60.136719 218.527344 60.167969 219.335938 " fill-opacity="1" fill-rule="nonzero"/></svg>