<svg xmlns="http://www.w3.org/2000/svg" xmlns:xlink="http://www.w3.org/1999/xlink" width="400" zoomAndPan="magnify" viewBox="0 0 300 299.999988" height="400" preserveAspectRatio="xMidYMid meet" version="1.0"><defs><clipPath id="011a9ebad2"><path d="M 30 30 L 269.851562 30 L 269.851562 270 L 30 270 Z M 30 30 " clip-rule="nonzero"/></clipPath></defs><g clip-path="url(#011a9ebad2)"><path fill="#a9a0f0" d="M 247.960938 178.488281 C 246.617188 176.558594 245.210938 174.671875 243.753906 172.820312 L 269.105469 150.484375 C 269.890625 149.792969 269.96875 148.589844 269.273438 147.800781 C 268.582031 147.011719 267.378906 146.9375 266.589844 147.632812 L 241.355469 169.867188 C 238.550781 166.519531 235.570312 163.320312 232.429688 160.300781 C 227.9375 155.984375 223.140625 152.042969 218.085938 148.5 L 269.484375 61.484375 C 270.019531 60.582031 269.71875 59.414062 268.816406 58.882812 C 267.910156 58.347656 266.746094 58.648438 266.210938 59.550781 L 214.929688 146.363281 C 210.457031 143.4375 205.796875 140.808594 200.957031 138.503906 C 196.640625 136.445312 192.207031 134.652344 187.6875 133.136719 L 216.144531 32.65625 C 216.429688 31.648438 215.84375 30.597656 214.832031 30.308594 C 213.824219 30.023438 212.769531 30.613281 212.484375 31.621094 L 184.0625 131.988281 C 180.140625 130.8125 176.160156 129.839844 172.136719 129.078125 C 174.011719 124.160156 175.078125 118.554688 175.078125 112.605469 C 175.078125 94.128906 164.816406 78.949219 151.84375 77.582031 L 151.84375 32.140625 C 151.84375 31.089844 150.992188 30.238281 149.945312 30.238281 C 148.894531 30.238281 148.042969 31.089844 148.042969 32.140625 L 148.042969 77.582031 C 135.070312 78.949219 124.8125 94.128906 124.8125 112.605469 C 124.8125 118.554688 125.878906 124.160156 127.753906 129.074219 C 123.726562 129.839844 119.746094 130.808594 115.824219 131.984375 L 87.402344 31.621094 C 87.117188 30.609375 86.066406 30.023438 85.054688 30.308594 C 84.046875 30.597656 83.457031 31.648438 83.742188 32.65625 L 112.199219 133.136719 C 107.558594 134.695312 103.007812 136.542969 98.578125 138.671875 C 93.867188 140.9375 89.324219 143.507812 84.964844 146.355469 L 33.679688 59.550781 C 33.144531 58.648438 31.976562 58.347656 31.074219 58.882812 C 30.167969 59.414062 29.871094 60.582031 30.402344 61.488281 L 81.808594 148.496094 C 76.101562 152.492188 70.730469 156.996094 65.746094 161.976562 C 63.347656 164.375 61.0625 166.867188 58.886719 169.433594 L 33.273438 147.613281 C 32.472656 146.929688 31.273438 147.027344 30.59375 147.824219 C 29.910156 148.625 30.007812 149.824219 30.808594 150.507812 L 56.46875 172.371094 C 50.097656 180.390625 44.78125 189.175781 40.59375 198.613281 C 33.65625 214.246094 30.140625 230.929688 30.140625 248.199219 C 30.140625 249.25 30.992188 250.101562 32.039062 250.101562 L 64.261719 250.101562 C 65.585938 260.21875 77.566406 269.847656 102.519531 269.847656 C 116.578125 269.847656 136.015625 267.761719 149.941406 265.996094 C 164.914062 267.898438 183.628906 269.847656 197.367188 269.847656 C 222.320312 269.847656 234.300781 260.21875 235.625 250.101562 L 267.847656 250.101562 C 268.898438 250.101562 269.75 249.25 269.75 248.199219 C 269.75 231.289062 266.371094 214.921875 259.710938 199.558594 C 256.511719 192.183594 252.558594 185.09375 247.960938 178.488281 Z M 149.945312 81.277344 C 161.707031 81.277344 171.273438 95.332031 171.273438 112.605469 C 171.273438 129.882812 161.707031 143.933594 149.945312 143.933594 C 138.183594 143.933594 128.613281 129.878906 128.613281 112.605469 C 128.613281 95.332031 138.183594 81.277344 149.945312 81.277344 Z M 161.023438 155.851562 C 161.203125 155.867188 179.28125 157.695312 187.480469 166.941406 C 192.507812 172.613281 194.894531 181.71875 197.203125 190.527344 C 198.761719 196.492188 200.378906 202.660156 202.828125 207.886719 C 206.652344 216.054688 214.984375 226.136719 221.304688 233.160156 C 223.714844 235.839844 223.527344 240.015625 220.890625 242.464844 C 219.585938 243.679688 217.886719 244.308594 216.121094 244.214844 C 214.34375 244.128906 212.714844 243.34375 211.527344 242.007812 C 206.09375 235.878906 196.203125 224.296875 191.03125 215.582031 C 183.28125 202.535156 178.085938 182.101562 178.035156 181.898438 C 177.820312 181.050781 177.0625 180.460938 176.191406 180.460938 C 176.179688 180.460938 176.167969 180.460938 176.15625 180.460938 C 175.273438 180.476562 174.515625 181.097656 174.332031 181.960938 C 170.214844 201.136719 170.230469 216.628906 174.382812 229.324219 C 174.703125 230.300781 175.742188 230.847656 176.730469 230.558594 C 176.800781 230.535156 183.957031 228.46875 195.277344 228.40625 C 198.699219 232.878906 202.449219 237.378906 205.871094 241.320312 C 189.507812 240.996094 168.984375 238.847656 148.746094 235.3125 C 145.105469 234.675781 141.355469 235.425781 138.238281 237.371094 C 122.246094 239.683594 106.757812 241.0625 94.019531 241.320312 C 97.441406 237.375 101.191406 232.878906 104.609375 228.40625 C 115.929688 228.46875 123.085938 230.535156 123.15625 230.554688 C 124.144531 230.847656 125.1875 230.300781 125.503906 229.324219 C 129.65625 216.628906 129.671875 201.136719 125.554688 181.960938 C 125.371094 181.097656 124.613281 180.472656 123.730469 180.460938 C 122.832031 180.425781 122.066406 181.039062 121.851562 181.898438 C 121.800781 182.101562 116.613281 202.523438 108.855469 215.582031 C 103.683594 224.292969 93.792969 235.878906 88.359375 242.007812 C 87.175781 243.34375 85.542969 244.128906 83.765625 244.210938 C 81.992188 244.308594 80.300781 243.679688 78.996094 242.464844 C 76.359375 240.011719 76.171875 235.839844 78.582031 233.160156 C 84.902344 226.136719 93.234375 216.050781 97.058594 207.886719 C 99.507812 202.65625 101.125 196.492188 102.6875 190.527344 C 104.992188 181.71875 107.378906 172.609375 112.40625 166.941406 C 120.609375 157.691406 138.683594 155.867188 138.867188 155.851562 C 139.839844 155.757812 140.585938 154.9375 140.585938 153.957031 L 140.585938 145.203125 C 143.480469 146.832031 146.636719 147.738281 149.945312 147.738281 C 153.25 147.738281 156.40625 146.832031 159.300781 145.203125 L 159.300781 153.957031 C 159.300781 154.9375 160.046875 155.757812 161.023438 155.851562 Z M 192.492188 224.65625 C 185.304688 224.894531 180.070312 225.859375 177.476562 226.449219 C 174.589844 216.511719 174.289062 204.710938 176.566406 190.613281 C 178.835938 197.960938 182.738281 209.066406 187.761719 217.523438 C 189.097656 219.773438 190.710938 222.183594 192.492188 224.65625 Z M 107.394531 224.65625 C 109.175781 222.183594 110.792969 219.773438 112.128906 217.523438 C 117.148438 209.066406 121.050781 197.960938 123.320312 190.613281 C 125.601562 204.714844 125.296875 216.511719 122.410156 226.449219 C 119.816406 225.859375 114.585938 224.894531 107.394531 224.65625 Z M 44.070312 200.15625 C 49.960938 186.878906 58.160156 174.9375 68.433594 164.667969 C 77.75 155.355469 88.445312 147.765625 100.226562 142.101562 C 109.46875 137.65625 119.25 134.484375 129.324219 132.65625 C 131.296875 136.613281 133.839844 139.980469 136.785156 142.523438 L 136.785156 152.277344 C 131.777344 152.988281 117.261719 155.734375 109.5625 164.417969 C 103.929688 170.769531 101.429688 180.324219 99.007812 189.5625 C 97.488281 195.363281 95.917969 201.359375 93.617188 206.273438 C 89.945312 214.105469 81.484375 224.195312 76.367188 229.9375 C 69.148438 233.789062 64.910156 239.535156 64.242188 246.296875 L 33.957031 246.296875 C 34.207031 230.238281 37.605469 214.726562 44.070312 200.15625 Z M 67.9375 248.199219 C 67.9375 243.886719 69.75 239.984375 73.128906 236.824219 C 72.90625 239.886719 74.007812 243.019531 76.40625 245.25 C 78.339844 247.050781 80.820312 248.023438 83.4375 248.023438 C 83.609375 248.023438 83.777344 248.019531 83.949219 248.011719 C 86.460938 247.890625 88.78125 246.882812 90.585938 245.164062 C 102.777344 245.117188 117.859375 243.949219 133.652344 241.847656 C 132.25 243.96875 131.378906 246.429688 131.171875 249.015625 C 130.679688 255.113281 133.859375 260.683594 138.894531 263.484375 C 126.839844 264.835938 113.101562 266.042969 102.519531 266.042969 C 78.761719 266.042969 67.9375 256.792969 67.9375 248.199219 Z M 197.371094 266.042969 C 181.207031 266.042969 157.4375 263.183594 144.707031 261.476562 C 138.757812 260.679688 134.476562 255.339844 134.960938 249.320312 C 135.21875 246.132812 136.808594 243.1875 139.328125 241.238281 C 141.847656 239.289062 144.960938 238.511719 148.089844 239.058594 C 169.984375 242.882812 192.230469 245.101562 209.304688 245.167969 C 211.105469 246.886719 213.429688 247.890625 215.9375 248.011719 C 216.109375 248.019531 216.28125 248.023438 216.449219 248.023438 C 219.066406 248.023438 221.546875 247.050781 223.480469 245.25 C 225.878906 243.019531 226.980469 239.886719 226.757812 236.824219 C 230.136719 239.984375 231.949219 243.886719 231.949219 248.199219 C 231.949219 256.792969 221.128906 266.042969 197.371094 266.042969 Z M 235.648438 246.296875 C 234.980469 239.535156 230.738281 233.789062 223.523438 229.9375 C 218.402344 224.195312 209.941406 214.105469 206.273438 206.273438 C 203.96875 201.359375 202.398438 195.363281 200.882812 189.5625 C 198.460938 180.324219 195.957031 170.769531 190.328125 164.417969 C 182.628906 155.734375 168.109375 152.988281 163.105469 152.277344 L 163.105469 142.523438 C 166.050781 139.980469 168.589844 136.613281 170.566406 132.65625 C 180.511719 134.460938 190.179688 137.578125 199.320312 141.9375 C 210.527344 147.28125 220.78125 154.382812 229.796875 163.042969 C 235.363281 168.394531 240.425781 174.320312 244.839844 180.660156 C 249.292969 187.058594 253.125 193.925781 256.222656 201.070312 C 262.425781 215.378906 265.6875 230.585938 265.929688 246.296875 Z M 235.648438 246.296875 " fill-opacity="1" fill-rule="nonzero"/></g></svg>