<svg xmlns="http://www.w3.org/2000/svg" xmlns:xlink="http://www.w3.org/1999/xlink" width="400" zoomAndPan="magnify" viewBox="0 0 300 299.999988" height="400" preserveAspectRatio="xMidYMid meet" version="1.0"><defs><clipPath id="f265665c6c"><path d="M 70 48 L 223 48 L 223 262.648438 L 70 262.648438 Z M 70 48 " clip-rule="nonzero"/></clipPath><clipPath id="53a41b5946"><path d="M 179 30.148438 L 202 30.148438 L 202 61 L 179 61 Z M 179 30.148438 " clip-rule="nonzero"/></clipPath><clipPath id="6ea83ee12c"><path d="M 91 30.148438 L 114 30.148438 L 114 61 L 91 61 Z M 91 30.148438 " clip-rule="nonzero"/></clipPath></defs><path fill="#a9a0f0" d="M 262.707031 251.710938 C 258.316406 239.269531 253.292969 232.25 246.890625 229.617188 C 242.167969 227.671875 236.695312 228.175781 230.613281 231.117188 C 229.988281 231.421875 229.585938 232.046875 229.570312 232.742188 C 229.433594 239.722656 231.285156 245.085938 235.085938 248.675781 C 239.195312 252.5625 245.511719 254.429688 254.699219 254.429688 C 256.695312 254.429688 258.832031 254.34375 261.109375 254.167969 C 261.679688 254.121094 262.199219 253.816406 262.511719 253.332031 C 262.824219 252.851562 262.898438 252.253906 262.707031 251.710938 Z M 262.707031 251.710938 " fill-opacity="1" fill-rule="nonzero"/><path fill="#a9a0f0" d="M 195.15625 90.851562 C 195.417969 90.980469 195.699219 91.046875 195.980469 91.046875 C 196.46875 91.046875 196.945312 90.855469 197.300781 90.492188 C 197.371094 90.417969 204.449219 83.269531 211.9375 82.773438 C 214.085938 82.625 216.871094 82.800781 220.089844 82.996094 C 228.992188 83.550781 240.074219 84.238281 248.003906 78.914062 C 259.042969 71.5 256.425781 51.007812 256.308594 50.140625 C 256.207031 49.371094 255.640625 48.757812 254.886719 48.582031 C 254.140625 48.414062 253.359375 48.726562 252.9375 49.367188 C 252.898438 49.421875 249.109375 55.058594 243.125 56.492188 C 241.089844 56.976562 238.242188 56.988281 234.945312 56.996094 C 227.769531 57.015625 218.839844 57.039062 210.242188 61.757812 C 197.378906 68.828125 194.285156 88.101562 194.160156 88.917969 C 194.035156 89.710938 194.441406 90.492188 195.15625 90.851562 Z M 195.15625 90.851562 " fill-opacity="1" fill-rule="nonzero"/><path fill="#a9a0f0" d="M 233.304688 203.667969 C 235.300781 204.640625 237.574219 205.125 240.1875 205.125 C 244.246094 205.125 249.125 203.949219 255.046875 201.566406 C 255.574219 201.355469 255.980469 200.902344 256.132812 200.347656 C 256.285156 199.792969 256.175781 199.199219 255.828125 198.742188 C 249.40625 190.21875 243.769531 186.023438 238.101562 185.535156 C 233.878906 185.164062 229.667969 186.917969 225.585938 190.738281 C 225.078125 191.214844 224.882812 191.933594 225.074219 192.605469 C 226.667969 198.0625 229.4375 201.789062 233.304688 203.667969 Z M 233.304688 203.667969 " fill-opacity="1" fill-rule="nonzero"/><path fill="#a9a0f0" d="M 255.625 145.707031 C 255.667969 144.84375 255.105469 144.066406 254.269531 143.84375 C 236.214844 138.886719 227.132812 154.089844 221.238281 167.894531 C 220.980469 168.496094 221.058594 169.1875 221.453125 169.714844 C 221.796875 170.1875 222.351562 170.464844 222.933594 170.464844 C 223 170.464844 223.0625 170.460938 223.128906 170.457031 C 237.792969 168.925781 254.746094 164.730469 255.625 145.707031 Z M 255.625 145.707031 " fill-opacity="1" fill-rule="nonzero"/><path fill="#a9a0f0" d="M 191.910156 117.765625 C 191.421875 118.199219 191.199219 118.855469 191.320312 119.492188 C 191.441406 120.132812 191.890625 120.660156 192.496094 120.886719 C 198.722656 123.167969 205.582031 125.160156 212.054688 125.160156 C 220.035156 125.160156 227.429688 122.128906 232.3125 112.851562 C 232.707031 112.09375 232.53125 111.167969 231.890625 110.605469 C 217.695312 98.1875 203.070312 107.910156 191.910156 117.765625 Z M 191.910156 117.765625 " fill-opacity="1" fill-rule="nonzero"/><g clip-path="url(#f265665c6c)"><path fill="#a9a0f0" d="M 211.480469 199.730469 C 206.710938 197.550781 201.421875 197.449219 196.582031 199.449219 L 178.222656 207.015625 L 178.222656 194.003906 C 180.757812 193.597656 183.277344 193.144531 185.710938 192.640625 C 199.414062 189.800781 207.109375 186.117188 209.230469 181.375 C 215.554688 167.238281 197.039062 138.765625 186.511719 133.738281 C 178.046875 129.695312 163.699219 128.671875 158.648438 128.433594 L 158.648438 118.042969 C 164.097656 115.265625 168.300781 111.171875 170.296875 108.144531 C 172.773438 104.382812 175.667969 97.109375 175.667969 88.988281 C 175.667969 83.980469 175.667969 73.566406 171.96875 64.753906 C 167.457031 53.992188 158.890625 48.539062 146.515625 48.539062 C 134.136719 48.539062 125.570312 53.992188 121.058594 64.753906 C 117.359375 73.566406 117.359375 83.980469 117.359375 88.988281 C 117.359375 97.109375 120.253906 104.382812 122.734375 108.144531 C 124.726562 111.171875 128.929688 115.265625 134.382812 118.042969 L 134.382812 128.433594 C 129.328125 128.671875 114.980469 129.695312 106.515625 133.738281 C 95.988281 138.765625 77.472656 167.238281 83.796875 181.375 C 85.917969 186.117188 93.613281 189.800781 107.320312 192.640625 C 109.75 193.144531 112.269531 193.597656 114.804688 194.003906 L 114.804688 207.015625 L 96.445312 199.449219 C 91.605469 197.449219 86.316406 197.550781 81.546875 199.730469 C 76.75 201.917969 73.023438 206.085938 71.332031 211.15625 C 69.632812 216.234375 70.089844 221.855469 72.582031 226.578125 C 75.050781 231.265625 79.175781 234.632812 84.203125 236.0625 L 101.632812 241.027344 C 99.230469 244.550781 98.511719 249.078125 99.84375 253.257812 C 101.710938 259.136719 107.023438 262.890625 112.800781 262.890625 C 114.023438 262.890625 115.269531 262.722656 116.511719 262.367188 L 146.515625 253.816406 L 176.515625 262.367188 C 177.757812 262.722656 179.003906 262.890625 180.226562 262.890625 C 186.003906 262.890625 191.316406 259.136719 193.1875 253.257812 C 194.539062 249 193.738281 244.5 191.382812 241.035156 L 208.824219 236.0625 C 213.851562 234.632812 217.976562 231.265625 220.445312 226.578125 C 222.9375 221.855469 223.394531 216.234375 221.695312 211.15625 C 220.003906 206.085938 216.277344 201.917969 211.480469 199.730469 Z M 125.816406 106.113281 C 123.617188 102.78125 121.054688 96.292969 121.054688 88.988281 C 121.054688 71.875 123.945312 52.230469 146.515625 52.230469 C 169.082031 52.230469 171.976562 71.875 171.976562 88.988281 C 171.976562 96.292969 169.410156 102.78125 167.210938 106.113281 C 164.109375 110.820312 155.636719 117.445312 146.515625 117.445312 C 137.390625 117.445312 128.917969 110.820312 125.816406 106.113281 Z M 87.164062 179.867188 C 84.878906 174.757812 86.734375 165.773438 92.125 155.832031 C 96.851562 147.128906 103.570312 139.234375 108.109375 137.070312 C 117.574219 132.550781 136.085938 132.054688 136.269531 132.050781 C 137.269531 132.027344 138.074219 131.210938 138.074219 130.203125 L 138.074219 119.632812 C 140.707031 120.5625 143.550781 121.136719 146.515625 121.136719 C 149.476562 121.136719 152.320312 120.5625 154.953125 119.632812 L 154.953125 130.203125 C 154.953125 131.210938 155.757812 132.027344 156.757812 132.050781 C 156.945312 132.054688 175.445312 132.550781 184.921875 137.070312 C 189.457031 139.234375 196.175781 147.128906 200.902344 155.832031 C 206.292969 165.773438 208.148438 174.757812 205.863281 179.867188 C 203.160156 185.914062 183.386719 190.878906 152.984375 193.144531 C 152.140625 193.207031 151.300781 193.164062 150.472656 193.019531 C 152.652344 190.980469 154.226562 188.238281 154.824219 185.078125 C 155.792969 179.949219 153.992188 174.902344 150.441406 171.59375 L 186.351562 162.441406 C 187.339844 162.191406 187.933594 161.183594 187.679688 160.199219 C 187.429688 159.210938 186.425781 158.609375 185.4375 158.863281 L 178.222656 160.699219 L 178.222656 149.535156 C 178.222656 148.515625 177.394531 147.691406 176.378906 147.691406 C 175.359375 147.691406 174.53125 148.515625 174.53125 149.535156 L 174.53125 161.640625 L 148.757812 168.210938 C 147.984375 168.40625 147.238281 168.671875 146.515625 168.988281 C 145.796875 168.675781 145.050781 168.40625 144.269531 168.210938 L 118.496094 161.640625 L 118.496094 149.535156 C 118.496094 148.515625 117.671875 147.691406 116.652344 147.691406 C 115.636719 147.691406 114.804688 148.515625 114.804688 149.535156 L 114.804688 160.699219 L 107.589844 158.863281 C 106.605469 158.609375 105.597656 159.210938 105.347656 160.199219 C 105.09375 161.183594 105.691406 162.191406 106.675781 162.441406 L 143.359375 171.785156 C 148.832031 173.179688 152.273438 178.71875 151.199219 184.390625 C 150.171875 189.78125 145.371094 193.539062 140.042969 193.144531 C 109.640625 190.878906 89.871094 185.914062 87.164062 179.867188 Z M 115.5 258.820312 C 110.347656 260.289062 105.019531 257.351562 103.363281 252.140625 C 102.246094 248.640625 103.078125 244.8125 105.453125 242.117188 L 139.777344 251.902344 Z M 189.664062 252.140625 C 188.007812 257.351562 182.675781 260.28125 177.527344 258.820312 L 85.214844 232.515625 C 81.171875 231.359375 77.84375 228.640625 75.84375 224.859375 C 73.789062 220.964844 73.429688 216.515625 74.832031 212.328125 C 76.222656 208.160156 79.152344 204.878906 83.082031 203.085938 C 85.082031 202.171875 87.199219 201.714844 89.316406 201.714844 C 91.25 201.714844 93.1875 202.097656 95.039062 202.859375 L 183.910156 239.5 C 188.753906 241.5 191.285156 247.050781 189.664062 252.140625 Z M 217.183594 224.859375 C 215.183594 228.640625 211.859375 231.359375 207.816406 232.515625 L 188.566406 237.996094 C 187.59375 237.226562 186.507812 236.582031 185.316406 236.085938 L 164.636719 227.5625 L 198.515625 217.90625 C 199.5 217.625 200.066406 216.605469 199.785156 215.625 C 199.507812 214.644531 198.488281 214.078125 197.503906 214.355469 L 159.132812 225.292969 L 118.496094 208.539062 L 118.496094 194.566406 C 126.246094 195.675781 133.910156 196.386719 139.773438 196.828125 C 140.121094 196.855469 140.472656 196.867188 140.820312 196.867188 C 142.828125 196.867188 144.753906 196.433594 146.507812 195.65625 C 148.308594 196.453125 150.246094 196.867188 152.214844 196.867188 C 152.558594 196.867188 152.910156 196.855469 153.257812 196.828125 C 159.117188 196.386719 166.785156 195.675781 174.53125 194.566406 L 174.53125 209.777344 C 174.53125 210.390625 174.835938 210.96875 175.347656 211.308594 C 175.859375 211.648438 176.511719 211.714844 177.078125 211.480469 L 197.988281 202.859375 C 201.875 201.257812 206.121094 201.339844 209.949219 203.085938 C 213.875 204.878906 216.804688 208.160156 218.195312 212.328125 C 219.597656 216.515625 219.238281 220.964844 217.183594 224.859375 Z M 217.183594 224.859375 " fill-opacity="1" fill-rule="nonzero"/></g><g clip-path="url(#53a41b5946)"><path fill="#a9a0f0" d="M 180.523438 60.5 C 180.832031 60.703125 181.1875 60.808594 181.542969 60.808594 C 181.851562 60.808594 182.15625 60.730469 182.4375 60.578125 C 192.96875 54.761719 204.59375 46.226562 200.957031 31.6875 C 200.726562 30.769531 199.839844 30.175781 198.902344 30.308594 C 184.316406 32.386719 180.984375 46.609375 179.707031 58.769531 C 179.636719 59.453125 179.949219 60.121094 180.523438 60.5 Z M 180.523438 60.5 " fill-opacity="1" fill-rule="nonzero"/></g><g clip-path="url(#6ea83ee12c)"><path fill="#a9a0f0" d="M 110.589844 60.578125 C 110.871094 60.730469 111.175781 60.808594 111.484375 60.808594 C 111.839844 60.808594 112.195312 60.703125 112.507812 60.5 C 113.078125 60.121094 113.390625 59.453125 113.324219 58.769531 C 112.042969 46.609375 108.710938 32.386719 94.125 30.308594 C 93.183594 30.167969 92.300781 30.769531 92.070312 31.6875 C 88.433594 46.226562 100.058594 54.761719 110.589844 60.578125 Z M 110.589844 60.578125 " fill-opacity="1" fill-rule="nonzero"/></g><path fill="#a9a0f0" d="M 61.136719 110.605469 C 60.496094 111.167969 60.320312 112.09375 60.714844 112.851562 C 65.597656 122.128906 72.992188 125.160156 80.972656 125.160156 C 87.445312 125.160156 94.308594 123.160156 100.53125 120.886719 C 101.140625 120.660156 101.585938 120.132812 101.707031 119.492188 C 101.828125 118.855469 101.605469 118.199219 101.117188 117.765625 C 89.960938 107.910156 75.332031 98.179688 61.136719 110.605469 Z M 61.136719 110.605469 " fill-opacity="1" fill-rule="nonzero"/><path fill="#a9a0f0" d="M 45.027344 78.914062 C 52.953125 84.238281 64.035156 83.550781 72.9375 82.996094 C 76.160156 82.800781 78.941406 82.625 81.09375 82.773438 C 88.546875 83.269531 95.65625 90.417969 95.726562 90.492188 C 96.082031 90.855469 96.5625 91.046875 97.046875 91.046875 C 97.328125 91.046875 97.609375 90.980469 97.871094 90.851562 C 98.585938 90.492188 98.992188 89.710938 98.867188 88.917969 C 98.746094 88.101562 95.648438 68.828125 82.785156 61.757812 C 74.1875 57.039062 65.257812 57.015625 58.082031 56.996094 C 54.785156 56.988281 51.9375 56.976562 49.902344 56.492188 C 43.917969 55.058594 40.128906 49.421875 40.09375 49.371094 C 39.671875 48.726562 38.890625 48.414062 38.140625 48.582031 C 37.386719 48.753906 36.820312 49.371094 36.71875 50.140625 C 36.601562 51.007812 33.988281 71.5 45.027344 78.914062 Z M 45.027344 78.914062 " fill-opacity="1" fill-rule="nonzero"/><path fill="#a9a0f0" d="M 71.574219 169.714844 C 71.96875 169.1875 72.046875 168.496094 71.789062 167.894531 C 65.894531 154.089844 56.8125 138.890625 38.757812 143.84375 C 37.921875 144.066406 37.359375 144.84375 37.402344 145.707031 C 38.28125 164.730469 55.234375 168.925781 69.902344 170.457031 C 69.964844 170.460938 70.03125 170.464844 70.09375 170.464844 C 70.675781 170.464844 71.230469 170.1875 71.574219 169.714844 Z M 71.574219 169.714844 " fill-opacity="1" fill-rule="nonzero"/><path fill="#a9a0f0" d="M 54.925781 185.535156 C 49.257812 186.023438 43.621094 190.21875 37.199219 198.742188 C 36.851562 199.199219 36.742188 199.792969 36.894531 200.347656 C 37.046875 200.902344 37.453125 201.355469 37.984375 201.566406 C 43.902344 203.949219 48.78125 205.125 52.839844 205.125 C 55.449219 205.125 57.726562 204.640625 59.722656 203.667969 C 63.59375 201.789062 66.359375 198.0625 67.953125 192.605469 C 68.148438 191.933594 67.949219 191.214844 67.441406 190.738281 C 63.359375 186.917969 59.148438 185.164062 54.925781 185.535156 Z M 54.925781 185.535156 " fill-opacity="1" fill-rule="nonzero"/><path fill="#a9a0f0" d="M 62.414062 231.117188 C 56.332031 228.175781 50.859375 227.671875 46.136719 229.617188 C 39.738281 232.25 34.710938 239.269531 30.324219 251.710938 C 30.128906 252.253906 30.203125 252.851562 30.515625 253.332031 C 30.828125 253.816406 31.347656 254.121094 31.917969 254.167969 C 34.199219 254.34375 36.332031 254.429688 38.328125 254.429688 C 47.519531 254.429688 53.832031 252.5625 57.941406 248.675781 C 61.742188 245.085938 63.597656 239.722656 63.457031 232.742188 C 63.445312 232.046875 63.039062 231.421875 62.414062 231.117188 Z M 62.414062 231.117188 " fill-opacity="1" fill-rule="nonzero"/></svg>