<svg xmlns="http://www.w3.org/2000/svg" xmlns:xlink="http://www.w3.org/1999/xlink" width="400" zoomAndPan="magnify" viewBox="0 0 300 299.999988" height="400" preserveAspectRatio="xMidYMid meet" version="1.0"><defs><clipPath id="067dd79f35"><path d="M 41.101562 74 L 181 74 L 181 270 L 41.101562 270 Z M 41.101562 74 " clip-rule="nonzero"/></clipPath><clipPath id="f4cf7a45bb"><path d="M 142 84 L 258.601562 84 L 258.601562 270 L 142 270 Z M 142 84 " clip-rule="nonzero"/></clipPath></defs><g clip-path="url(#067dd79f35)"><path fill="currentColor" d="M 127.609375 246.957031 L 120.863281 172.390625 C 121.613281 171.265625 121.988281 169.953125 121.988281 168.640625 L 121.988281 143.535156 L 131.167969 139.226562 L 133.226562 144.285156 C 134.351562 147.097656 137.164062 148.78125 139.972656 148.78125 C 141.097656 148.78125 142.035156 148.59375 142.972656 148.03125 L 176.320312 133.042969 C 180.066406 131.359375 181.753906 126.863281 180.253906 123.113281 L 166.953125 91.828125 C 165.828125 89.015625 163.015625 87.332031 160.207031 87.332031 C 159.082031 87.332031 158.144531 87.515625 157.210938 88.078125 L 123.859375 103.066406 C 120.113281 104.753906 118.425781 109.25 119.925781 112.996094 L 121.613281 116.933594 L 107.9375 123.488281 L 95.570312 101.195312 C 94.632812 99.320312 92.199219 98.757812 90.511719 99.695312 C 88.636719 100.632812 88.074219 103.066406 89.011719 104.753906 L 102.316406 128.359375 C 102.878906 129.671875 104 130.609375 105.3125 130.984375 C 106.625 131.359375 108.121094 131.359375 109.433594 130.796875 L 145.40625 113.746094 C 147.09375 112.996094 148.589844 113.558594 148.964844 113.933594 L 151.777344 119.554688 C 151.777344 119.554688 151.964844 119.742188 151.777344 120.117188 C 151.589844 120.679688 151.027344 121.242188 149.902344 121.804688 L 103.0625 144.285156 C 101.191406 144.285156 99.128906 143.722656 98.566406 142.597656 L 80.207031 112.808594 C 79.082031 111.125 76.835938 110.5625 74.960938 111.5 C 73.273438 112.621094 72.714844 114.871094 73.648438 116.746094 L 91.636719 145.972656 C 93.695312 150.09375 98.191406 151.78125 102.503906 151.78125 C 103.0625 151.78125 103.625 151.78125 104.1875 151.78125 L 104.75 151.78125 L 114.304688 147.285156 L 114.304688 168.640625 C 114.304688 168.640625 114.117188 168.828125 113.929688 168.828125 L 66.15625 168.828125 C 65.96875 168.828125 65.78125 168.828125 65.78125 168.640625 L 65.78125 96.699219 C 65.78125 88.453125 72.152344 81.523438 80.769531 79.460938 C 77.960938 78.148438 75.523438 76.277344 73.273438 74.214844 C 64.46875 78.523438 58.285156 86.957031 58.285156 96.699219 L 58.285156 168.640625 C 58.285156 169.953125 58.660156 171.078125 59.222656 172.203125 L 41.613281 256.136719 C 41.238281 258.007812 41.613281 260.070312 42.738281 261.757812 C 43.859375 263.628906 45.921875 264.941406 48.167969 265.316406 C 48.167969 265.316406 71.589844 270 73.085938 270 C 79.457031 270 80.582031 264.566406 80.957031 262.878906 C 81.519531 260.257812 80.957031 257.632812 79.644531 255.574219 C 77.960938 252.949219 74.960938 251.078125 71.027344 249.953125 L 90.699219 195.621094 L 104.375 263.441406 C 104.75 267.191406 108.121094 270 112.058594 270 C 112.246094 270 112.433594 270 112.621094 270 C 112.621094 270 126.484375 269.0625 127.046875 269.0625 C 131.355469 268.875 136.039062 268.5 138.847656 265.316406 C 139.785156 264.191406 140.910156 262.132812 140.722656 259.132812 C 139.972656 251.078125 133.976562 247.703125 127.609375 246.957031 Z M 153.273438 128.734375 C 156.085938 127.609375 158.144531 125.363281 159.082031 122.738281 C 159.832031 120.492188 159.644531 118.242188 158.707031 116.371094 L 155.898438 110.75 C 153.648438 106.441406 147.84375 104.753906 142.597656 107.003906 L 128.542969 113.558594 L 126.859375 109.8125 L 159.832031 94.824219 L 173.132812 126.300781 L 140.160156 141.289062 L 137.914062 136.042969 Z M 61.097656 255.199219 L 67.09375 256.511719 C 70.089844 257.074219 72.527344 258.195312 73.273438 259.507812 C 73.460938 259.882812 73.648438 260.257812 73.460938 261.195312 C 73.273438 261.757812 73.273438 262.132812 73.085938 262.320312 C 73.085938 262.320312 72.902344 262.320312 72.902344 262.320312 C 71.964844 262.320312 48.917969 257.632812 48.730469 257.632812 L 65.96875 176.136719 C 65.96875 176.136719 65.96875 176.136719 66.15625 176.136719 L 86.765625 176.136719 L 87.890625 181.195312 Z M 133.226562 260.257812 C 132.667969 261.007812 112.058594 262.320312 112.058594 262.320312 C 112.058594 262.320312 111.871094 262.320312 111.871094 262.320312 L 94.445312 176.136719 L 113.742188 176.136719 L 120.863281 254.449219 L 124.421875 254.261719 C 124.421875 254.261719 124.609375 254.261719 124.796875 254.261719 C 127.796875 254.261719 132.855469 255.011719 133.226562 259.695312 C 133.226562 260.070312 133.226562 260.257812 133.226562 260.257812 Z M 133.226562 260.257812 " fill-opacity="1" fill-rule="nonzero"/></g><g clip-path="url(#f4cf7a45bb)"><path fill="currentColor" d="M 255.007812 155.527344 L 248.636719 155.527344 L 232.152344 126.113281 L 237.957031 123.113281 C 239.832031 122.179688 240.582031 119.929688 239.644531 118.054688 C 238.707031 116.183594 236.460938 115.433594 234.585938 116.371094 L 228.402344 119.367188 L 209.480469 86.207031 C 208.542969 84.332031 206.109375 83.769531 204.421875 84.707031 C 202.550781 85.644531 201.988281 88.078125 202.925781 89.765625 L 240.019531 155.527344 L 146.34375 155.527344 C 144.28125 155.527344 142.597656 157.214844 142.597656 159.273438 C 142.597656 161.335938 144.28125 163.019531 146.34375 163.019531 L 150.652344 163.019531 L 166.765625 259.132812 C 167.703125 265.128906 173.132812 269.8125 179.316406 269.8125 L 222.035156 269.8125 C 228.027344 269.8125 233.648438 265.128906 234.585938 259.320312 L 250.699219 163.207031 C 250.699219 163.207031 250.699219 163.207031 250.699219 163.019531 L 255.007812 163.019531 C 257.070312 163.019531 258.753906 161.335938 258.753906 159.273438 C 258.753906 157.214844 257.070312 155.527344 255.007812 155.527344 Z M 227.09375 258.007812 C 226.71875 260.257812 224.46875 262.320312 222.035156 262.320312 L 179.316406 262.320312 C 176.882812 262.320312 174.632812 260.257812 174.257812 258.007812 L 161.144531 179.882812 L 240.207031 179.882812 Z M 241.519531 172.390625 L 159.832031 172.390625 L 158.332031 163.019531 L 243.203125 163.019531 Z M 241.519531 172.390625 " fill-opacity="1" fill-rule="nonzero"/></g><path fill="currentColor" d="M 104.5625 83.207031 C 103.4375 86.019531 103.625 89.015625 104.75 91.828125 L 112.058594 108.125 C 112.433594 104.753906 113.929688 101.757812 116.367188 99.320312 L 111.683594 88.640625 C 111.308594 87.703125 111.308594 86.769531 111.683594 85.832031 C 112.058594 84.894531 112.808594 84.144531 113.554688 83.769531 L 158.332031 64.472656 C 158.894531 64.285156 159.269531 64.097656 159.832031 64.097656 C 161.332031 64.097656 162.832031 65.035156 163.390625 66.347656 L 172.199219 86.207031 C 172.761719 86.957031 173.320312 87.890625 173.695312 88.828125 L 180.816406 105.503906 L 181.003906 106.066406 C 181.003906 106.066406 181.003906 106.066406 181.003906 106.253906 L 185.125 115.808594 C 186.4375 114.683594 187.375 113.183594 188.121094 111.6875 C 189.246094 108.875 189.058594 105.878906 187.9375 103.066406 L 170.136719 63.347656 C 168.261719 59.226562 164.328125 56.605469 159.832031 56.605469 C 158.332031 56.605469 156.835938 56.980469 155.335938 57.539062 L 110.558594 77.027344 C 107.75 78.148438 105.6875 80.398438 104.5625 83.207031 Z M 104.5625 83.207031 " fill-opacity="1" fill-rule="nonzero"/><path fill="currentColor" d="M 93.882812 74.964844 C 106.25 74.964844 116.367188 64.847656 116.367188 52.484375 C 116.367188 40.117188 106.25 30 93.882812 30 C 81.519531 30 71.402344 40.117188 71.402344 52.484375 C 71.402344 64.847656 81.519531 74.964844 93.882812 74.964844 Z M 93.882812 37.496094 C 102.128906 37.496094 108.871094 44.238281 108.871094 52.484375 C 108.871094 60.726562 102.128906 67.472656 93.882812 67.472656 C 85.640625 67.472656 78.894531 60.726562 78.894531 52.484375 C 78.894531 44.238281 85.640625 37.496094 93.882812 37.496094 Z M 93.882812 37.496094 " fill-opacity="1" fill-rule="nonzero"/></svg>