<svg xmlns="http://www.w3.org/2000/svg" xmlns:xlink="http://www.w3.org/1999/xlink" width="400" zoomAndPan="magnify" viewBox="0 0 300 299.999988" height="400" preserveAspectRatio="xMidYMid meet" version="1.0"><path fill="#a9a0f0" d="M 179.75 252.398438 C 179.007812 252.140625 178.230469 252.003906 177.441406 252.019531 C 176.035156 251.765625 174.636719 251.464844 173.257812 251.125 C 164.695312 248.59375 156.65625 243.785156 151.242188 236.742188 C 147.488281 231.859375 144.917969 225.902344 145.148438 219.660156 C 145.257812 216.628906 146.066406 213.652344 147.398438 210.929688 C 148.808594 208.054688 151.164062 205.605469 152.441406 202.710938 C 152.675781 202.191406 152.183594 201.5625 151.617188 201.886719 C 148.8125 203.496094 146.761719 206.90625 145.390625 209.753906 C 144.03125 212.5625 143.128906 215.566406 142.847656 218.679688 C 142.261719 225.226562 144.78125 231.703125 148.550781 236.960938 C 153.976562 244.523438 161.832031 249.601562 170.539062 252.144531 C 171.992188 252.746094 173.457031 253.300781 174.929688 253.796875 C 174.972656 253.882812 175.03125 253.964844 175.105469 254.042969 C 176.511719 255.488281 178.539062 255.894531 180.007812 257.242188 C 182.136719 259.191406 180.261719 261.355469 178.34375 262.5625 C 177.195312 263.285156 175.957031 263.871094 174.667969 264.328125 C 173.980469 264.261719 173.289062 264.164062 172.59375 264.011719 C 169.777344 263.410156 167.421875 262.058594 164.929688 260.703125 C 164.644531 260.546875 164.332031 260.925781 164.578125 261.160156 C 166.574219 263.089844 169.328125 264.382812 172.253906 265.03125 C 168.867188 265.808594 165.265625 265.839844 161.9375 265.316406 C 156.546875 264.46875 151.609375 262.238281 147.042969 259.308594 C 143.328125 256.925781 140.386719 254.035156 137.46875 250.9375 C 136.835938 250.160156 136.207031 249.378906 135.589844 248.582031 C 131.675781 243.550781 128.085938 238.046875 126.496094 231.796875 C 125.027344 226.039062 125.554688 220 127.914062 214.542969 C 130.320312 208.988281 134.464844 204.867188 139.1875 201.230469 C 139.585938 200.921875 139.382812 200.089844 138.804688 200.320312 C 127.847656 204.628906 122.222656 218.457031 123.949219 229.542969 C 125 236.285156 128.414062 242.378906 132.421875 247.796875 C 134.359375 250.414062 136.457031 252.898438 138.59375 255.351562 C 139.78125 256.714844 140.972656 258.074219 142.1875 259.40625 C 143.125 260.429688 143.992188 261.757812 145.226562 262.410156 C 145.015625 263.453125 145.609375 264.164062 145.84375 265.347656 C 146.269531 267.496094 143.59375 267.65625 142.054688 267.769531 C 140.902344 267.859375 139.742188 267.921875 138.574219 267.960938 C 132.058594 265.464844 128.859375 256.140625 125.996094 250.605469 C 125.832031 250.289062 125.359375 250.511719 125.4375 250.839844 C 126.523438 255.425781 129.300781 259.988281 132.175781 263.671875 C 133.5 265.371094 135.050781 266.9375 136.863281 267.996094 C 134.316406 268.015625 131.765625 267.886719 129.269531 267.507812 C 125.121094 266.875 120.992188 265.574219 117.464844 263.382812 C 108.722656 255.828125 103.582031 244.363281 104.121094 232.746094 C 104.414062 226.484375 106.308594 220.460938 109.453125 215.054688 C 112.605469 209.632812 116.984375 205.648438 121.679688 201.605469 C 122.183594 201.171875 121.542969 200.53125 121.027344 200.757812 C 115.066406 203.378906 110.265625 208.871094 107.042969 214.417969 C 103.777344 220.03125 101.824219 226.578125 101.671875 233.078125 C 101.433594 243.414062 105.5 253.5 112.414062 261.035156 C 113.378906 262.167969 114.433594 263.195312 115.566406 264.125 C 116.074219 264.570312 116.59375 265 117.121094 265.421875 C 116.148438 268.671875 112.328125 269.347656 109.28125 268.585938 C 106.289062 267.839844 103.433594 266.1875 100.800781 264.617188 C 96.746094 262.195312 92.863281 259.335938 89.460938 256.023438 C 87.125 253.246094 85.175781 250.175781 83.871094 246.6875 C 81.105469 239.3125 82.125 231.707031 85.546875 224.753906 C 85.75 224.34375 85.21875 223.855469 84.878906 224.238281 C 80.246094 229.429688 79.640625 237.066406 81.269531 243.691406 C 78.746094 236.359375 79.101562 228.023438 82.652344 221.050781 C 87.71875 211.109375 98.109375 205.707031 107.222656 200.09375 C 111.765625 197.292969 116.304688 194.359375 120.214844 190.699219 C 122.941406 188.144531 124.9375 185.335938 126.316406 182.179688 C 127.820312 183.902344 129.582031 185.457031 130.203125 186.019531 C 133.878906 189.335938 138.144531 191.960938 142.757812 193.75 C 147.390625 195.550781 152.394531 196.492188 157.367188 196.441406 C 160.792969 196.402344 164.519531 195.957031 167.660156 194.4375 C 163.5625 201.667969 160.402344 209.632812 161.183594 218.101562 C 161.535156 221.925781 162.621094 225.699219 164.53125 229.042969 C 166.320312 232.164062 169.179688 235.691406 172.828125 236.589844 C 173.480469 236.753906 173.992188 235.933594 173.496094 235.445312 C 170.882812 232.875 168.195312 230.898438 166.355469 227.605469 C 164.523438 224.324219 163.523438 220.566406 163.339844 216.816406 C 163.027344 210.300781 164.957031 203.855469 167.589844 197.84375 C 167.46875 199.910156 167.609375 202 167.949219 204.035156 C 167.960938 204.109375 167.980469 204.179688 167.992188 204.25 C 168.035156 206.558594 168.320312 208.890625 168.949219 211.273438 C 170.816406 218.390625 174.960938 224.785156 180.917969 229.148438 C 184.574219 231.824219 189.550781 234.109375 194.578125 234.960938 C 194.554688 235.148438 194.65625 235.367188 194.851562 235.429688 C 198.191406 236.496094 202.171875 235.789062 205.488281 234.890625 C 208.144531 234.167969 210.722656 233.085938 213.050781 231.609375 C 214.921875 230.714844 216.824219 229.910156 218.921875 229.628906 C 222.894531 229.089844 227.339844 230.476562 228.910156 234.507812 C 231.792969 241.914062 221.46875 246.527344 216.21875 248.597656 C 209.007812 251.4375 201.226562 253 193.484375 253.203125 C 188.960938 253.324219 184.316406 253.078125 179.75 252.398438 Z M 134.496094 157.125 C 138.269531 153.425781 143.257812 151.789062 148.398438 151.855469 C 147.859375 153.738281 147.339844 155.628906 146.84375 157.527344 C 146.773438 157.464844 146.707031 157.402344 146.644531 157.355469 C 145.5 156.394531 144.105469 155.855469 142.613281 155.929688 C 142.136719 155.953125 141.988281 156.683594 142.496094 156.796875 C 143.765625 157.078125 144.945312 157.625 145.878906 158.542969 C 146.230469 158.886719 146.5 159.417969 146.800781 159.898438 C 145.964844 160.464844 145.339844 161.265625 145.046875 162.375 C 144.324219 163.257812 143.804688 164.335938 143.375 165.378906 C 142.117188 168.433594 140.925781 171.769531 140.28125 175.007812 C 140.230469 175.269531 140.613281 175.476562 140.746094 175.203125 C 142.53125 171.511719 143.09375 167.140625 145.300781 163.746094 C 145.550781 163.773438 145.832031 163.652344 145.929688 163.386719 C 147.519531 158.9375 155.773438 160.578125 159.085938 162.09375 C 163.480469 164.105469 163.644531 168.3125 165.648438 172.09375 C 165.929688 172.625 166.710938 172.351562 166.734375 171.800781 C 166.855469 168.734375 165.824219 165.835938 164.007812 163.585938 C 164.050781 163.535156 164.085938 163.476562 164.121094 163.414062 C 164.910156 161.917969 165.664062 160.40625 166.394531 158.882812 C 167.152344 159.328125 167.847656 159.816406 168.488281 160.347656 C 169.53125 161.585938 170.667969 162.769531 171.464844 164.058594 C 174.359375 168.734375 174.226562 174.230469 173.152344 179.535156 C 166.011719 184.179688 157.164062 184.710938 148.964844 182.460938 C 144.742188 181.300781 140.71875 179.394531 137.167969 176.828125 C 135.378906 175.535156 133.703125 174.078125 132.1875 172.476562 C 131.320312 171.566406 130.113281 170.355469 129.234375 169.019531 C 129.96875 164.636719 131.140625 160.417969 134.496094 157.125 Z M 166.898438 113.269531 C 170.191406 105.625 173.542969 98.011719 176.761719 90.335938 C 180.886719 80.492188 184.742188 70.503906 189.769531 61.070312 C 192.210938 56.484375 194.902344 51.898438 198.1875 47.859375 C 201.074219 44.304688 204.800781 40.671875 209.488281 39.816406 C 212.949219 39.1875 217.207031 40.589844 219.09375 43.699219 C 220.269531 45.636719 219.996094 47.726562 219.246094 49.78125 C 218.230469 52.570312 216.714844 55.238281 215.398438 57.890625 C 207.257812 74.296875 198.1875 90.234375 189.101562 106.132812 C 184.320312 114.5 179.582031 122.890625 175.292969 131.527344 C 170.441406 141.292969 165.308594 151.476562 162.554688 162.074219 C 161.1875 160.875 159.550781 159.972656 157.710938 159.5 C 155.511719 158.929688 151.949219 158.34375 149.128906 158.953125 C 149.148438 158.917969 149.167969 158.886719 149.183594 158.84375 C 154.957031 143.574219 160.4375 128.269531 166.898438 113.269531 Z M 128.882812 171.3125 C 130.1875 173.035156 131.8125 174.574219 132.917969 175.617188 C 136.785156 179.261719 141.460938 182.015625 146.46875 183.769531 C 154.355469 186.53125 165.148438 187.214844 172.484375 182.398438 C 172.03125 184.15625 171.511719 185.871094 171.007812 187.503906 C 170.371094 188.746094 169.71875 189.964844 169.160156 191.226562 C 162.179688 195.414062 153.066406 194.929688 145.503906 192.5625 C 141.558594 191.324219 137.800781 189.46875 134.417969 187.089844 C 132.664062 185.855469 131.023438 184.46875 129.503906 182.953125 C 129.226562 182.675781 128.070312 181.535156 127.027344 180.363281 C 127.585938 178.773438 128.003906 177.097656 128.292969 175.324219 C 128.511719 173.996094 128.691406 172.652344 128.882812 171.3125 Z M 217.648438 252.390625 C 224 249.871094 232.742188 245.710938 233.152344 237.789062 C 233.585938 229.308594 224.421875 224.753906 217.0625 226.121094 C 211.945312 227.074219 207.804688 230.789062 202.667969 231.59375 C 197.917969 232.335938 193.203125 230.84375 188.707031 229.246094 C 184.003906 226.796875 180.460938 223.285156 177.332031 218.632812 C 175.214844 215.488281 173.261719 212.125 171.933594 208.558594 C 170.25 197.363281 176.710938 186.96875 177.632812 175.933594 C 187.769531 174.335938 197.792969 172.675781 208.074219 172.246094 C 218.328125 171.820312 228.484375 172.554688 238.710938 173.066406 C 239.242188 173.09375 239.371094 172.234375 238.839844 172.128906 C 228.652344 170.058594 218 169.890625 207.652344 170.394531 C 197.667969 170.878906 187.390625 171.933594 177.71875 174.59375 C 177.785156 172.976562 177.726562 171.347656 177.492188 169.695312 C 177.011719 166.34375 175.75 162.980469 173.484375 160.417969 C 172.519531 159.324219 169.414062 157.171875 168.171875 155.082031 C 171.394531 147.992188 174.292969 140.730469 177.765625 133.757812 C 181.792969 125.675781 186.164062 117.765625 190.71875 109.96875 C 200.53125 93.164062 210.882812 76.820312 219.527344 59.351562 C 221.761719 54.835938 225.289062 49.503906 224.007812 44.234375 C 223.074219 40.394531 219.8125 37.597656 216.234375 36.246094 C 206.890625 32.722656 198.71875 39.921875 193.476562 46.890625 C 186.746094 55.835938 181.996094 66.007812 177.667969 76.277344 C 173.722656 85.628906 169.839844 95.003906 165.863281 104.339844 C 159.667969 118.894531 153.859375 133.5625 149.324219 148.691406 C 144.410156 147.703125 139.089844 149.007812 134.921875 151.746094 C 129.683594 155.191406 126.667969 160.394531 125.507812 166.492188 C 124.835938 170.023438 124.613281 173.632812 123.789062 177.140625 C 122.925781 180.820312 121.21875 183.871094 118.59375 186.582031 C 114.230469 191.089844 108.910156 194.511719 103.605469 197.792969 C 93.453125 204.070312 82.578125 210.628906 78.125 222.34375 C 73.664062 234.082031 76.707031 247.460938 85.28125 256.460938 C 90.496094 261.9375 97.003906 266.539062 103.859375 269.714844 C 107.050781 271.191406 110.921875 272.621094 114.417969 271.339844 C 116.546875 270.558594 118.265625 268.832031 118.835938 266.703125 C 119.035156 266.84375 119.234375 266.984375 119.433594 267.125 C 119.710938 267.308594 119.976562 267.308594 120.195312 267.203125 C 123.847656 269.152344 127.945312 270.371094 132.144531 270.933594 C 134.878906 271.300781 137.644531 271.476562 140.40625 271.449219 C 142.554688 271.429688 145.011719 271.476562 146.957031 270.390625 C 149.398438 269.03125 150.121094 266.660156 149.480469 264.476562 C 154.890625 267.871094 161.25 269.808594 167.65625 269.628906 C 173.320312 269.472656 181.902344 267.488281 184.484375 261.726562 C 185.324219 259.847656 185.050781 257.832031 184.113281 256.128906 C 186.691406 256.566406 189.3125 256.828125 191.996094 256.890625 C 200.742188 257.101562 209.511719 255.621094 217.648438 252.390625 " fill-opacity="1" fill-rule="nonzero"/><path fill="#a9a0f0" d="M 153.910156 153.667969 C 157.414062 143.371094 161.519531 133.3125 166.140625 123.464844 C 168.34375 118.773438 170.667969 114.140625 173.117188 109.574219 C 175.691406 104.777344 178.679688 100.144531 181.03125 95.242188 C 181.21875 94.855469 180.71875 94.578125 180.464844 94.914062 C 177.203125 99.234375 174.660156 104.21875 172.113281 108.984375 C 169.546875 113.796875 167.101562 118.679688 164.816406 123.632812 C 160.34375 133.332031 156.46875 143.3125 153.089844 153.441406 C 152.914062 153.964844 153.734375 154.183594 153.910156 153.667969 " fill-opacity="1" fill-rule="nonzero"/><path fill="#a9a0f0" d="M 191.886719 87.1875 C 200.410156 76.707031 206.929688 64.335938 212.25 51.96875 C 213.207031 49.746094 217.523438 41.820312 212.113281 41.761719 C 207.007812 41.703125 203.023438 46.835938 200.476562 50.601562 C 200.265625 50.914062 200.75 51.292969 200.996094 51.007812 C 202.429688 49.320312 203.847656 47.566406 205.480469 46.074219 C 206.40625 45.230469 207.40625 44.457031 208.519531 43.871094 C 209.230469 43.496094 210 43.199219 210.78125 43.011719 C 211.667969 42.800781 213.21875 43.035156 213.710938 43.941406 C 214.214844 44.878906 213.328125 46.660156 212.976562 47.5625 C 212.417969 48.992188 211.832031 50.414062 211.230469 51.828125 C 210.148438 54.375 208.992188 56.890625 207.785156 59.378906 C 203.097656 69.027344 197.332031 77.914062 191.476562 86.871094 C 191.316406 87.113281 191.695312 87.417969 191.886719 87.1875 " fill-opacity="1" fill-rule="nonzero"/><path fill="#a9a0f0" d="M 45.929688 231.730469 C 49.160156 234.347656 53.851562 235.800781 57.863281 236.597656 C 58.710938 236.765625 59.5625 236.894531 60.421875 237.007812 C 62.316406 237.257812 61.703125 238.402344 60.558594 239.382812 C 58.996094 240.726562 56.882812 240.640625 55.300781 241.820312 C 52.621094 243.816406 55.246094 246.640625 57.1875 247.878906 C 64.320312 252.4375 73.734375 252.269531 80.15625 258.097656 C 80.628906 258.53125 81.300781 257.863281 80.859375 257.394531 C 76.402344 252.644531 70 251.386719 64.101562 249.277344 C 62.484375 248.699219 60.890625 248.050781 59.378906 247.230469 C 58.535156 246.769531 57.597656 246.261719 56.878906 245.613281 C 56.144531 244.949219 56.070312 244.855469 56.34375 243.867188 C 56.652344 242.753906 56.984375 242.847656 57.953125 242.53125 C 60.035156 241.851562 63.625 240.191406 63.753906 237.554688 C 63.886719 234.78125 58.800781 235.105469 57.15625 234.71875 C 55.054688 234.226562 52.992188 233.546875 51.023438 232.664062 C 49.265625 231.878906 46.910156 230.898438 45.828125 229.199219 C 44.753906 227.523438 45.492188 225.703125 47.339844 225.097656 C 48.148438 224.832031 49.011719 224.707031 49.84375 224.539062 C 52.25 224.039062 54.65625 223.539062 57.058594 223.039062 C 59.042969 222.628906 61.019531 222.21875 63 221.804688 C 64.898438 221.410156 67.054688 221.226562 68.824219 220.394531 C 69.882812 219.898438 70.941406 219.140625 71.117188 217.902344 C 71.324219 216.457031 70.242188 215.972656 69.464844 215.007812 C 67.28125 212.289062 72.839844 211.253906 74.625 210.835938 C 76.996094 210.28125 79.414062 210.089844 81.820312 209.753906 C 82.453125 209.667969 82.214844 208.785156 81.679688 208.722656 C 77.792969 208.289062 72.769531 209.046875 69.296875 210.898438 C 68.234375 211.460938 67.144531 212.359375 67.007812 213.636719 C 66.847656 215.167969 67.980469 215.480469 68.703125 216.539062 C 70.476562 219.152344 65.378906 219.574219 63.824219 219.898438 C 61.277344 220.425781 58.730469 220.957031 56.183594 221.488281 C 53.777344 221.988281 51.371094 222.484375 48.96875 222.988281 C 47.382812 223.320312 45.523438 223.59375 44.425781 224.925781 C 42.582031 227.160156 43.96875 230.140625 45.929688 231.730469 " fill-opacity="1" fill-rule="nonzero"/><path fill="#a9a0f0" d="M 207.871094 180.070312 C 199.386719 181.164062 185.699219 184.125 187.632812 195.671875 C 188.566406 201.246094 193.050781 205.179688 197.878906 207.578125 C 203.820312 210.523438 210.449219 212.257812 216.941406 213.476562 C 223.59375 214.722656 230.347656 215.351562 237.097656 215.738281 C 240.652344 215.9375 244.210938 216.074219 247.769531 216.195312 C 249.347656 216.246094 251.019531 216.148438 252.574219 216.464844 C 253.074219 216.5625 253.738281 216.6875 254.164062 217 C 255.058594 217.664062 255.117188 218.246094 254.746094 219.117188 C 254.242188 220.289062 252.992188 220.507812 251.863281 220.886719 C 249.253906 221.769531 246.484375 222.695312 245.265625 225.398438 C 244.296875 227.542969 244.933594 229.824219 247.011719 231 C 248.1875 231.664062 249.550781 231.792969 250.804688 232.230469 C 251.273438 232.394531 251.851562 232.617188 252.207031 232.976562 C 252.925781 233.707031 252.601562 235.515625 251.773438 236.0625 C 250.976562 236.589844 249.804688 236.828125 248.910156 237.160156 C 244.945312 238.644531 241.019531 240.214844 237.066406 241.714844 C 236.433594 241.957031 236.6875 242.96875 237.351562 242.746094 C 240.683594 241.644531 244.039062 240.605469 247.359375 239.449219 C 249.519531 238.699219 253.285156 238.15625 254.578125 236.007812 C 255.582031 234.34375 254.613281 232.570312 253.195312 231.523438 C 251.089844 229.972656 245.082031 230.074219 246.910156 226.085938 C 248.460938 222.699219 252.851562 223.160156 255.523438 221.230469 C 257.09375 220.101562 257.371094 218.191406 256.25 216.59375 C 254.894531 214.664062 252.355469 214.570312 250.222656 214.496094 C 246.667969 214.371094 243.113281 214.257812 239.5625 214.082031 C 225.941406 213.410156 211.199219 212.179688 198.792969 206.015625 C 193.230469 203.25 187.085938 197.214844 189.945312 190.410156 C 192.058594 185.375 198.160156 183.53125 203.066406 182.59375 C 219.164062 179.515625 235.730469 180.296875 252.015625 180.28125 C 252.714844 180.28125 252.6875 179.277344 252.015625 179.210938 C 237.433594 177.734375 222.394531 178.195312 207.871094 180.070312 " fill-opacity="1" fill-rule="nonzero"/><path fill="#a9a0f0" d="M 197.90625 215.476562 C 196.894531 216.136719 194.546875 215.652344 193.535156 215.347656 C 191.851562 214.835938 190.339844 213.902344 189.035156 212.730469 C 186.875 210.78125 185.453125 208.265625 183.792969 205.921875 C 183.488281 205.492188 182.8125 205.863281 183.074219 206.339844 C 184.859375 209.582031 187.203125 212.953125 190.394531 214.9375 C 192.585938 216.304688 196.78125 217.734375 199.160156 215.9375 C 201.488281 214.179688 198.203125 212.332031 196.855469 211.496094 C 192.410156 208.75 187.964844 206.015625 183.476562 203.339844 C 183.097656 203.117188 182.769531 203.691406 183.132812 203.925781 C 185.816406 205.65625 188.503906 207.378906 191.214844 209.066406 C 192.570312 209.910156 193.925781 210.753906 195.28125 211.597656 C 196.300781 212.234375 200.34375 213.878906 197.90625 215.476562 " fill-opacity="1" fill-rule="nonzero"/><path fill="#a9a0f0" d="M 239.675781 260.875 C 240.078125 260.972656 241.09375 261.113281 241.324219 261.441406 C 241.308594 262.253906 241.296875 263.066406 241.28125 263.875 C 240.898438 263.941406 240.511719 263.976562 240.125 263.988281 C 236.609375 264.148438 232.785156 262.847656 231.503906 259.359375 C 233.175781 259.671875 234.84375 259.980469 236.515625 260.292969 C 237.5625 260.488281 238.640625 260.621094 239.675781 260.875 Z M 230.285156 259.34375 C 230.714844 261.75 232.523438 263.414062 234.707031 264.339844 C 236.707031 265.1875 240.179688 265.945312 242.234375 264.875 C 244.179688 263.867188 243.515625 261.410156 241.925781 260.417969 C 240.484375 259.515625 238.429688 259.492188 236.804688 259.238281 C 234.539062 258.882812 232.269531 258.527344 230.003906 258.171875 C 229.445312 258.085938 229.195312 258.929688 229.765625 259.035156 C 229.9375 259.066406 230.109375 259.101562 230.285156 259.132812 C 230.273438 259.195312 230.273438 259.269531 230.285156 259.34375 " fill-opacity="1" fill-rule="nonzero"/></svg>