<svg xmlns="http://www.w3.org/2000/svg" xmlns:xlink="http://www.w3.org/1999/xlink" width="400" zoomAndPan="magnify" viewBox="0 0 300 299.999988" height="400" preserveAspectRatio="xMidYMid meet" version="1.0"><path fill="#a9a0f0" d="M 53.703125 197.148438 C 43.085938 197.148438 34.460938 205.792969 34.460938 216.390625 C 34.460938 227.003906 43.085938 235.632812 53.703125 235.632812 C 64.300781 235.632812 72.945312 227.003906 72.945312 216.390625 C 72.945312 205.792969 64.300781 197.148438 53.703125 197.148438 Z M 53.703125 239.980469 C 40.691406 239.980469 30.113281 229.398438 30.113281 216.390625 C 30.113281 203.378906 40.691406 192.796875 53.703125 192.796875 C 66.710938 192.796875 77.292969 203.378906 77.292969 216.390625 C 77.292969 229.398438 66.710938 239.980469 53.703125 239.980469 " fill-opacity="1" fill-rule="nonzero"/><path fill="#a9a0f0" d="M 58.304688 212.347656 C 57.097656 212.347656 56.132812 211.378906 56.132812 210.171875 L 56.132812 195.480469 C 56.132812 194.277344 57.097656 193.308594 58.304688 193.308594 C 59.492188 193.308594 60.480469 194.277344 60.480469 195.480469 L 60.480469 210.171875 C 60.480469 211.378906 59.492188 212.347656 58.304688 212.347656 " fill-opacity="1" fill-rule="nonzero"/><path fill="#a9a0f0" d="M 131.164062 237.449219 L 63.824219 237.449219 C 62.617188 237.449219 61.652344 236.480469 61.652344 235.273438 C 61.652344 234.070312 62.617188 233.101562 63.824219 233.101562 L 131.164062 233.101562 C 132.117188 233.101562 132.878906 232.335938 132.878906 231.386719 L 132.878906 221.078125 C 132.878906 220.636719 132.726562 220.210938 132.4375 219.90625 L 107.335938 192.730469 C 106.285156 191.609375 105.0625 190.691406 103.71875 190.011719 C 101.96875 189.113281 99.984375 188.65625 97.996094 188.65625 L 57.609375 188.65625 C 56.65625 188.65625 55.875 189.417969 55.875 190.386719 L 55.875 194.972656 C 55.875 196.179688 54.910156 197.148438 53.703125 197.148438 C 52.496094 197.148438 51.527344 196.179688 51.527344 194.972656 L 51.527344 190.386719 C 51.527344 187.023438 54.261719 184.308594 57.609375 184.308594 L 97.996094 184.308594 C 100.664062 184.308594 103.3125 184.933594 105.691406 186.125 C 107.488281 187.042969 109.121094 188.265625 110.511719 189.777344 L 135.632812 216.949219 C 136.667969 218.085938 137.226562 219.546875 137.226562 221.078125 L 137.226562 231.386719 C 137.226562 234.730469 134.511719 237.449219 131.164062 237.449219 " fill-opacity="1" fill-rule="nonzero"/><path fill="#a9a0f0" d="M 134.035156 220.601562 L 101.171875 220.601562 C 99.472656 220.601562 97.84375 219.886719 96.6875 218.648438 L 68.34375 187.941406 C 67.96875 187.550781 67.765625 187.023438 67.765625 186.480469 L 67.765625 173.996094 C 67.765625 170.976562 70.226562 168.496094 73.25 168.496094 L 78.667969 168.496094 C 81.691406 168.496094 84.152344 170.976562 84.152344 173.996094 L 84.152344 186.480469 C 84.152344 187.667969 83.1875 188.65625 81.980469 188.65625 C 80.792969 188.65625 79.804688 187.667969 79.804688 186.480469 L 79.804688 173.996094 C 79.804688 173.371094 79.296875 172.84375 78.667969 172.84375 L 73.25 172.84375 C 72.621094 172.84375 72.113281 173.371094 72.113281 173.996094 L 72.113281 185.613281 L 99.882812 215.691406 C 100.222656 216.050781 100.679688 216.253906 101.171875 216.253906 L 134.035156 216.253906 C 135.222656 216.253906 136.210938 217.222656 136.210938 218.425781 C 136.210938 219.632812 135.222656 220.601562 134.035156 220.601562 " fill-opacity="1" fill-rule="nonzero"/><path fill="#a9a0f0" d="M 58.304688 212.347656 C 57.386719 212.347656 56.539062 211.769531 56.234375 210.835938 C 55.859375 209.699219 56.488281 208.476562 57.625 208.101562 L 62.992188 206.367188 C 63.058594 206.335938 63.128906 206.316406 63.195312 206.285156 L 71.550781 203.582031 C 72.707031 203.226562 73.914062 203.839844 74.285156 204.992188 C 74.660156 206.132812 74.03125 207.355469 72.894531 207.726562 L 64.726562 210.359375 C 64.65625 210.394531 64.605469 210.410156 64.539062 210.445312 L 58.96875 212.246094 C 58.746094 212.3125 58.527344 212.347656 58.304688 212.347656 " fill-opacity="1" fill-rule="nonzero"/><path fill="#a9a0f0" d="M 49.203125 212.261719 C 48.980469 212.261719 48.742188 212.226562 48.523438 212.160156 L 34.5625 207.625 C 33.425781 207.25 32.796875 206.011719 33.167969 204.875 C 33.527344 203.734375 34.765625 203.125 35.902344 203.480469 L 49.863281 208.015625 C 51.019531 208.390625 51.628906 209.628906 51.273438 210.765625 C 50.96875 211.683594 50.117188 212.261719 49.203125 212.261719 " fill-opacity="1" fill-rule="nonzero"/><path fill="#a9a0f0" d="M 49.203125 212.261719 C 47.996094 212.261719 47.027344 211.292969 47.027344 210.089844 L 47.027344 204.433594 C 47.027344 204.363281 47.027344 204.296875 47.027344 204.246094 L 47.027344 195.464844 C 47.042969 194.257812 48.011719 193.292969 49.203125 193.292969 L 49.21875 193.292969 C 50.40625 193.292969 51.394531 194.257812 51.375 195.464844 L 51.375 204.058594 C 51.375 204.109375 51.375 204.179688 51.375 204.246094 L 51.375 210.089844 C 51.375 211.292969 50.40625 212.261719 49.203125 212.261719 " fill-opacity="1" fill-rule="nonzero"/><path fill="#a9a0f0" d="M 37.667969 232.777344 C 37.226562 232.777344 36.785156 232.640625 36.394531 232.355469 C 35.429688 231.65625 35.207031 230.296875 35.921875 229.332031 L 44.546875 217.441406 C 45.261719 216.472656 46.621094 216.253906 47.589844 216.964844 C 48.554688 217.664062 48.777344 219.023438 48.0625 220.007812 L 39.4375 231.878906 C 39.011719 232.472656 38.347656 232.777344 37.667969 232.777344 " fill-opacity="1" fill-rule="nonzero"/><path fill="#a9a0f0" d="M 45.636719 220.789062 L 31.726562 216.253906 L 33.066406 212.125 L 46.976562 216.660156 L 45.636719 220.789062 " fill-opacity="1" fill-rule="nonzero"/><path fill="#a9a0f0" d="M 62.261719 238.195312 C 61.582031 238.195312 60.921875 237.890625 60.496094 237.296875 L 51.867188 225.40625 C 51.15625 224.4375 51.375 223.082031 52.34375 222.382812 C 53.3125 221.671875 54.6875 221.890625 55.382812 222.859375 L 64.011719 234.730469 C 64.726562 235.714844 64.503906 237.074219 63.535156 237.773438 C 63.144531 238.058594 62.703125 238.195312 62.261719 238.195312 " fill-opacity="1" fill-rule="nonzero"/><path fill="#a9a0f0" d="M 46.773438 237.246094 L 43.257812 234.699219 L 51.867188 222.859375 L 55.382812 225.425781 L 46.773438 237.246094 " fill-opacity="1" fill-rule="nonzero"/><path fill="#a9a0f0" d="M 61.039062 221.027344 C 60.121094 221.027344 59.273438 220.449219 58.96875 219.515625 C 58.59375 218.375 59.222656 217.152344 60.359375 216.78125 L 74.335938 212.246094 C 75.457031 211.871094 76.699219 212.5 77.070312 213.636719 C 77.445312 214.792969 76.816406 216.015625 75.679688 216.390625 L 61.703125 220.921875 C 61.480469 220.992188 61.261719 221.027344 61.039062 221.027344 " fill-opacity="1" fill-rule="nonzero"/><path fill="#a9a0f0" d="M 67.867188 231.964844 L 59.273438 220.125 L 62.789062 217.578125 L 71.382812 229.414062 L 67.867188 231.964844 " fill-opacity="1" fill-rule="nonzero"/><path fill="#a9a0f0" d="M 147.027344 235.886719 L 134.289062 235.886719 C 133.085938 235.886719 132.117188 234.917969 132.117188 233.710938 C 132.117188 232.523438 133.085938 231.539062 134.289062 231.539062 L 144.855469 231.539062 L 144.855469 223.234375 L 135.054688 223.234375 C 133.867188 223.234375 132.878906 222.265625 132.878906 221.058594 C 132.878906 219.855469 133.867188 218.886719 135.054688 218.886719 L 147.027344 218.886719 C 148.234375 218.886719 149.203125 219.855469 149.203125 221.058594 L 149.203125 233.710938 C 149.203125 234.917969 148.234375 235.886719 147.027344 235.886719 " fill-opacity="1" fill-rule="nonzero"/><path fill="#a9a0f0" d="M 147.027344 233.96875 C 145.820312 233.96875 144.855469 233 144.855469 231.792969 L 144.855469 222.980469 C 144.855469 221.773438 145.820312 220.804688 147.027344 220.804688 C 148.234375 220.804688 149.203125 221.773438 149.203125 222.980469 L 149.203125 231.792969 C 149.203125 233 148.234375 233.96875 147.027344 233.96875 " fill-opacity="1" fill-rule="nonzero"/><path fill="#a9a0f0" d="M 250.035156 236.566406 C 249.457031 236.566406 248.878906 236.34375 248.453125 235.886719 L 238.722656 225.527344 C 238.503906 225.289062 238.195312 225.152344 237.875 225.152344 L 196.433594 225.152344 C 195.246094 225.152344 194.257812 224.183594 194.257812 222.980469 C 194.257812 221.773438 195.246094 220.804688 196.433594 220.804688 L 237.875 220.804688 C 239.386719 220.804688 240.847656 221.433594 241.882812 222.539062 L 251.613281 232.914062 C 252.445312 233.78125 252.394531 235.15625 251.527344 235.988281 C 251.105469 236.378906 250.578125 236.566406 250.035156 236.566406 " fill-opacity="1" fill-rule="nonzero"/><path fill="#a9a0f0" d="M 223.234375 236.566406 C 222.042969 236.566406 221.058594 235.597656 221.058594 234.390625 L 221.058594 222.980469 C 221.058594 221.773438 222.042969 220.804688 223.234375 220.804688 C 224.441406 220.804688 225.40625 221.773438 225.40625 222.980469 L 225.40625 234.390625 C 225.40625 235.597656 224.441406 236.566406 223.234375 236.566406 " fill-opacity="1" fill-rule="nonzero"/><path fill="#a9a0f0" d="M 153.363281 224.574219 L 147.027344 224.574219 C 145.820312 224.574219 144.855469 223.605469 144.855469 222.402344 C 144.855469 221.195312 145.820312 220.226562 147.027344 220.226562 L 153.363281 220.226562 C 153.632812 220.226562 153.890625 220.089844 154.023438 219.835938 C 154.179688 219.597656 154.179688 219.308594 154.042969 219.054688 L 89.0625 99.40625 C 84.730469 91.441406 84.933594 81.65625 89.570312 73.863281 C 94.191406 66.066406 102.699219 61.226562 111.769531 61.226562 L 113.433594 61.226562 C 114.640625 61.226562 115.609375 62.210938 115.609375 63.398438 C 115.609375 64.605469 114.640625 65.574219 113.433594 65.574219 L 111.769531 65.574219 C 104.230469 65.574219 97.164062 69.597656 93.308594 76.085938 C 89.453125 82.558594 89.285156 90.710938 92.882812 97.332031 L 157.863281 217 C 158.730469 218.578125 158.695312 220.53125 157.761719 222.078125 C 156.84375 223.625 155.164062 224.574219 153.363281 224.574219 " fill-opacity="1" fill-rule="nonzero"/><path fill="#a9a0f0" d="M 156.199219 234.542969 L 147.027344 234.542969 C 145.820312 234.542969 144.855469 233.578125 144.855469 232.371094 C 144.855469 231.183594 145.820312 230.195312 147.027344 230.195312 L 156.199219 230.195312 C 159.375 230.195312 162.363281 228.5 163.996094 225.765625 C 165.625 223.03125 165.675781 219.597656 164.164062 216.8125 L 97.824219 94.648438 C 95.175781 89.757812 95.296875 83.730469 98.148438 78.957031 C 100.984375 74.167969 106.199219 71.195312 111.769531 71.195312 L 113.433594 71.195312 C 114.640625 71.195312 115.609375 72.179688 115.609375 73.371094 C 115.609375 74.574219 114.640625 75.542969 113.433594 75.542969 L 111.769531 75.542969 C 107.726562 75.542969 103.941406 77.699219 101.886719 81.183594 C 99.8125 84.648438 99.726562 89.027344 101.648438 92.578125 L 167.984375 214.742188 C 170.226562 218.867188 170.125 223.945312 167.730469 227.988281 C 165.320312 232.03125 160.902344 234.542969 156.199219 234.542969 " fill-opacity="1" fill-rule="nonzero"/><path fill="#a9a0f0" d="M 182.898438 187.703125 C 182.03125 187.703125 181.214844 187.175781 180.875 186.34375 L 163.214844 142.425781 C 162.773438 141.304688 163.316406 140.046875 164.4375 139.589844 C 165.539062 139.164062 166.8125 139.691406 167.253906 140.792969 L 184.917969 184.714844 C 185.359375 185.835938 184.816406 187.09375 183.710938 187.550781 C 183.441406 187.652344 183.167969 187.703125 182.898438 187.703125 " fill-opacity="1" fill-rule="nonzero"/><path fill="#a9a0f0" d="M 192.136719 183.984375 C 191.269531 183.984375 190.457031 183.457031 190.117188 182.609375 L 172.46875 138.707031 C 172.027344 137.601562 172.570312 136.328125 173.675781 135.886719 C 174.796875 135.445312 176.054688 135.972656 176.496094 137.09375 L 194.15625 180.996094 C 194.597656 182.117188 194.054688 183.371094 192.953125 183.832031 C 192.679688 183.933594 192.410156 183.984375 192.136719 183.984375 " fill-opacity="1" fill-rule="nonzero"/><path fill="#a9a0f0" d="M 250.035156 236.566406 L 206.183594 236.566406 C 204.484375 236.566406 199.269531 236.566406 196.910156 230.6875 L 179.332031 186.957031 C 178.890625 185.851562 179.433594 184.578125 180.535156 184.136719 C 181.65625 183.695312 182.914062 184.222656 183.355469 185.34375 L 200.949219 229.058594 C 202.003906 231.691406 203.738281 232.21875 206.183594 232.21875 L 250.035156 232.21875 C 251.238281 232.21875 252.207031 233.203125 252.207031 234.390625 C 252.207031 235.597656 251.238281 236.566406 250.035156 236.566406 " fill-opacity="1" fill-rule="nonzero"/><path fill="#a9a0f0" d="M 210.480469 225.152344 C 209.628906 225.152344 208.816406 224.644531 208.476562 223.792969 L 191.660156 181.996094 C 191.21875 180.894531 191.761719 179.621094 192.867188 179.179688 C 193.988281 178.734375 195.246094 179.261719 195.703125 180.382812 L 212.5 222.164062 C 212.941406 223.285156 212.398438 224.542969 211.292969 225 C 211.023438 225.101562 210.75 225.152344 210.480469 225.152344 " fill-opacity="1" fill-rule="nonzero"/><path fill="#a9a0f0" d="M 163.707031 144.414062 C 162.839844 144.414062 162.023438 143.902344 161.683594 143.054688 L 135.207031 77.207031 L 113.433594 77.207031 C 112.226562 77.207031 111.261719 76.238281 111.261719 75.035156 L 111.261719 61.753906 C 111.261719 60.546875 112.226562 59.578125 113.433594 59.578125 L 136.941406 59.578125 C 143.136719 59.578125 148.625 63.28125 150.933594 69.023438 L 178.058594 136.464844 C 178.5 137.585938 177.957031 138.839844 176.835938 139.300781 C 175.730469 139.742188 174.457031 139.199219 174.015625 138.09375 L 146.910156 70.652344 C 145.261719 66.558594 141.355469 63.925781 136.941406 63.925781 L 115.609375 63.925781 L 115.609375 72.859375 L 136.683594 72.859375 C 137.566406 72.859375 138.367188 73.402344 138.707031 74.21875 L 165.710938 141.421875 C 166.167969 142.542969 165.625 143.800781 164.519531 144.257812 C 164.25 144.359375 163.976562 144.414062 163.707031 144.414062 " fill-opacity="1" fill-rule="nonzero"/><path fill="#a9a0f0" d="M 163.707031 144.414062 C 162.839844 144.414062 162.023438 143.902344 161.683594 143.054688 C 161.242188 141.949219 161.769531 140.675781 162.890625 140.21875 L 175.222656 135.257812 C 176.324219 134.800781 177.597656 135.34375 178.058594 136.464844 C 178.5 137.585938 177.957031 138.839844 176.851562 139.300781 L 164.519531 144.257812 C 164.25 144.359375 163.976562 144.414062 163.707031 144.414062 " fill-opacity="1" fill-rule="nonzero"/><path fill="#a9a0f0" d="M 181.351562 188.332031 C 180.484375 188.332031 179.671875 187.804688 179.332031 186.957031 C 178.890625 185.851562 179.414062 184.578125 180.535156 184.136719 L 192.882812 179.179688 C 194.003906 178.734375 195.261719 179.261719 195.703125 180.382812 C 196.144531 181.503906 195.601562 182.777344 194.480469 183.21875 L 182.167969 188.164062 C 181.894531 188.28125 181.625 188.332031 181.351562 188.332031 " fill-opacity="1" fill-rule="nonzero"/><path fill="#a9a0f0" d="M 142.476562 91.609375 L 121.738281 91.609375 C 115.964844 91.609375 111.261719 86.90625 111.261719 81.132812 L 111.261719 75.035156 C 111.261719 73.828125 112.226562 72.859375 113.433594 72.859375 C 114.640625 72.859375 115.609375 73.828125 115.609375 75.035156 L 115.609375 81.132812 C 115.609375 84.511719 118.359375 87.261719 121.738281 87.261719 L 142.476562 87.261719 C 143.683594 87.261719 144.648438 88.230469 144.648438 89.4375 C 144.648438 90.640625 143.683594 91.609375 142.476562 91.609375 " fill-opacity="1" fill-rule="nonzero"/><path fill="#a9a0f0" d="M 221.347656 215.25 C 220.789062 215.25 220.210938 215.03125 219.785156 214.589844 C 217.664062 212.398438 216.558594 209.308594 216.78125 206.148438 C 217.019531 202.9375 218.546875 200.015625 220.992188 198.097656 C 223.539062 196.109375 226.886719 195.398438 230.113281 196.128906 C 233.457031 196.890625 236.242188 199.046875 237.722656 202.054688 C 238.265625 203.125 237.824219 204.433594 236.753906 204.976562 C 235.683594 205.503906 234.375 205.0625 233.832031 203.992188 C 232.929688 202.15625 231.214844 200.832031 229.160156 200.375 C 227.175781 199.933594 225.1875 200.339844 223.675781 201.527344 C 222.199219 202.683594 221.261719 204.484375 221.128906 206.453125 C 220.992188 208.390625 221.636719 210.257812 222.910156 211.566406 C 223.761719 212.433594 223.726562 213.808594 222.859375 214.640625 C 222.433594 215.046875 221.890625 215.25 221.347656 215.25 " fill-opacity="1" fill-rule="nonzero"/><path fill="#a9a0f0" d="M 253.242188 194.855469 C 253.125 194.855469 252.988281 194.835938 252.851562 194.820312 C 251.679688 194.597656 250.898438 193.476562 251.105469 192.289062 C 251.511719 190.03125 250.898438 187.667969 249.40625 185.820312 C 247.910156 183.933594 245.71875 182.796875 243.394531 182.675781 C 241.066406 182.558594 238.875 183.457031 237.226562 185.105469 C 235.5625 186.753906 234.679688 189.011719 234.78125 191.269531 C 234.851562 192.460938 233.917969 193.476562 232.710938 193.527344 C 231.554688 193.597656 230.503906 192.664062 230.453125 191.457031 C 230.28125 187.976562 231.640625 184.542969 234.152344 182.03125 C 236.667969 179.515625 240.132812 178.191406 243.613281 178.328125 C 247.179688 178.5 250.527344 180.246094 252.820312 183.101562 C 255.078125 185.9375 256.011719 189.570312 255.382812 193.070312 C 255.195312 194.125 254.28125 194.855469 253.242188 194.855469 " fill-opacity="1" fill-rule="nonzero"/><path fill="#a9a0f0" d="M 260.34375 210.75 C 259.375 210.75 258.492188 210.089844 258.238281 209.101562 C 257.949219 207.929688 258.644531 206.757812 259.816406 206.453125 C 261.886719 205.925781 263.535156 204.449219 264.351562 202.378906 C 265.148438 200.324219 264.929688 198.113281 263.738281 196.3125 C 262.789062 194.855469 261.210938 193.835938 259.425781 193.476562 C 257.660156 193.136719 255.894531 193.496094 254.484375 194.464844 C 253.5 195.140625 252.140625 194.90625 251.460938 193.917969 C 250.765625 192.917969 251.019531 191.574219 252.003906 190.898438 C 254.398438 189.25 257.320312 188.65625 260.242188 189.214844 C 263.179688 189.777344 265.761719 191.492188 267.375 193.917969 C 269.308594 196.859375 269.699219 200.609375 268.394531 203.957031 C 267.101562 207.304688 264.285156 209.816406 260.886719 210.683594 C 260.699219 210.714844 260.511719 210.75 260.34375 210.75 " fill-opacity="1" fill-rule="nonzero"/><path fill="#a9a0f0" d="M 260.140625 222.519531 C 257.949219 222.519531 255.792969 221.652344 253.941406 219.988281 C 253.058594 219.175781 253.007812 217.816406 253.804688 216.914062 C 254.621094 216.03125 255.996094 215.964844 256.878906 216.78125 C 258.730469 218.460938 260.496094 218.324219 261.652344 217.902344 C 263.621094 217.1875 265.234375 215.167969 265.507812 213.128906 C 265.726562 211.394531 264.996094 209.882812 263.367188 208.730469 C 262.382812 208.03125 262.144531 206.675781 262.839844 205.6875 C 263.535156 204.722656 264.878906 204.484375 265.878906 205.179688 C 268.816406 207.25 270.261719 210.359375 269.820312 213.6875 C 269.328125 217.375 266.644531 220.703125 263.144531 221.976562 C 262.144531 222.351562 261.140625 222.519531 260.140625 222.519531 " fill-opacity="1" fill-rule="nonzero"/><path fill="#a9a0f0" d="M 232.609375 218.75 C 231.402344 218.75 230.433594 217.78125 230.433594 216.574219 L 230.433594 210.871094 C 230.433594 209.679688 231.402344 208.695312 232.609375 208.695312 C 233.816406 208.695312 234.78125 209.679688 234.78125 210.871094 L 234.78125 216.574219 C 234.78125 217.78125 233.816406 218.75 232.609375 218.75 " fill-opacity="1" fill-rule="nonzero"/><path fill="#a9a0f0" d="M 243.003906 218.75 C 242.714844 218.75 242.410156 218.699219 242.121094 218.5625 C 241.015625 218.070312 240.523438 216.796875 241.015625 215.691406 L 245.328125 206.0625 C 245.804688 204.976562 247.097656 204.464844 248.199219 204.960938 C 249.285156 205.453125 249.777344 206.742188 249.285156 207.828125 L 244.988281 217.476562 C 244.632812 218.273438 243.835938 218.75 243.003906 218.75 " fill-opacity="1" fill-rule="nonzero"/></svg>