<svg xmlns="http://www.w3.org/2000/svg" xmlns:xlink="http://www.w3.org/1999/xlink" width="400" zoomAndPan="magnify" viewBox="0 0 300 299.999988" height="400" preserveAspectRatio="xMidYMid meet" version="1.0"><path fill="#a9a0f0" d="M 205.167969 270 L 34.121094 270 C 33.851562 270 33.582031 269.972656 33.316406 269.921875 C 33.050781 269.867188 32.792969 269.789062 32.542969 269.6875 C 32.292969 269.582031 32.054688 269.457031 31.832031 269.304688 C 31.605469 269.15625 31.398438 268.984375 31.207031 268.792969 C 31.015625 268.601562 30.84375 268.394531 30.695312 268.167969 C 30.542969 267.945312 30.417969 267.707031 30.3125 267.457031 C 30.210938 267.207031 30.132812 266.949219 30.078125 266.683594 C 30.027344 266.417969 30 266.148438 30 265.878906 L 30 34.121094 C 30 33.851562 30.027344 33.582031 30.078125 33.316406 C 30.132812 33.050781 30.210938 32.792969 30.3125 32.542969 C 30.417969 32.292969 30.542969 32.054688 30.695312 31.832031 C 30.84375 31.605469 31.015625 31.398438 31.207031 31.207031 C 31.398438 31.015625 31.605469 30.84375 31.832031 30.695312 C 32.054688 30.542969 32.292969 30.417969 32.542969 30.3125 C 32.792969 30.210938 33.050781 30.132812 33.316406 30.078125 C 33.582031 30.027344 33.851562 30 34.121094 30 L 265.878906 30 C 266.148438 30 266.417969 30.027344 266.683594 30.078125 C 266.949219 30.132812 267.207031 30.210938 267.457031 30.3125 C 267.707031 30.417969 267.945312 30.542969 268.167969 30.695312 C 268.394531 30.84375 268.601562 31.015625 268.792969 31.207031 C 268.984375 31.398438 269.15625 31.605469 269.304688 31.832031 C 269.457031 32.054688 269.582031 32.292969 269.6875 32.542969 C 269.789062 32.792969 269.867188 33.050781 269.921875 33.316406 C 269.972656 33.582031 270 33.851562 270 34.121094 L 270 187.242188 C 270 187.511719 269.972656 187.78125 269.921875 188.046875 C 269.867188 188.308594 269.789062 188.566406 269.6875 188.816406 C 269.582031 189.066406 269.457031 189.304688 269.304688 189.53125 C 269.15625 189.753906 268.984375 189.964844 268.792969 190.15625 C 268.601562 190.347656 268.394531 190.515625 268.167969 190.667969 C 267.945312 190.816406 267.707031 190.945312 267.457031 191.046875 C 267.207031 191.152344 266.949219 191.230469 266.683594 191.28125 C 266.417969 191.335938 266.148438 191.363281 265.878906 191.363281 C 265.609375 191.363281 265.339844 191.335938 265.074219 191.28125 C 264.8125 191.230469 264.554688 191.152344 264.304688 191.046875 C 264.054688 190.945312 263.816406 190.816406 263.589844 190.667969 C 263.367188 190.515625 263.15625 190.347656 262.964844 190.15625 C 262.773438 189.964844 262.605469 189.753906 262.453125 189.53125 C 262.304688 189.304688 262.175781 189.066406 262.074219 188.816406 C 261.96875 188.566406 261.890625 188.308594 261.839844 188.046875 C 261.785156 187.78125 261.757812 187.511719 261.757812 187.242188 L 261.757812 38.242188 L 38.242188 38.242188 L 38.242188 261.757812 L 205.167969 261.757812 C 205.441406 261.757812 205.707031 261.785156 205.972656 261.839844 C 206.238281 261.890625 206.496094 261.96875 206.746094 262.074219 C 206.996094 262.175781 207.234375 262.304688 207.457031 262.453125 C 207.683594 262.605469 207.890625 262.773438 208.082031 262.964844 C 208.273438 263.15625 208.445312 263.367188 208.59375 263.589844 C 208.746094 263.816406 208.871094 264.054688 208.976562 264.304688 C 209.078125 264.554688 209.15625 264.8125 209.210938 265.074219 C 209.261719 265.339844 209.289062 265.609375 209.289062 265.878906 C 209.289062 266.148438 209.261719 266.417969 209.210938 266.683594 C 209.15625 266.949219 209.078125 267.207031 208.976562 267.457031 C 208.871094 267.707031 208.746094 267.945312 208.59375 268.167969 C 208.445312 268.394531 208.273438 268.601562 208.082031 268.792969 C 207.890625 268.984375 207.683594 269.15625 207.457031 269.304688 C 207.234375 269.457031 206.996094 269.582031 206.746094 269.6875 C 206.496094 269.789062 206.238281 269.867188 205.972656 269.921875 C 205.707031 269.972656 205.441406 270 205.167969 270 Z M 205.167969 270 " fill-opacity="1" fill-rule="nonzero"/><path fill="#a9a0f0" d="M 198.128906 250.660156 L 53.460938 250.660156 C 53.1875 250.660156 52.921875 250.632812 52.65625 250.582031 C 52.390625 250.527344 52.132812 250.449219 51.882812 250.347656 C 51.632812 250.242188 51.394531 250.117188 51.171875 249.964844 C 50.945312 249.816406 50.738281 249.644531 50.546875 249.453125 C 50.355469 249.261719 50.183594 249.054688 50.035156 248.828125 C 49.882812 248.605469 49.757812 248.367188 49.652344 248.117188 C 49.550781 247.867188 49.472656 247.609375 49.417969 247.34375 C 49.367188 247.078125 49.339844 246.8125 49.339844 246.539062 L 49.339844 53.460938 C 49.339844 53.1875 49.367188 52.921875 49.417969 52.65625 C 49.472656 52.390625 49.550781 52.132812 49.652344 51.882812 C 49.757812 51.632812 49.882812 51.394531 50.035156 51.171875 C 50.183594 50.945312 50.355469 50.738281 50.546875 50.546875 C 50.738281 50.355469 50.945312 50.183594 51.171875 50.035156 C 51.394531 49.882812 51.632812 49.757812 51.882812 49.652344 C 52.132812 49.550781 52.390625 49.472656 52.65625 49.417969 C 52.921875 49.367188 53.1875 49.339844 53.460938 49.339844 L 246.539062 49.339844 C 246.8125 49.339844 247.078125 49.367188 247.34375 49.417969 C 247.609375 49.472656 247.867188 49.550781 248.117188 49.652344 C 248.367188 49.757812 248.605469 49.882812 248.828125 50.035156 C 249.054688 50.183594 249.261719 50.355469 249.453125 50.546875 C 249.644531 50.738281 249.816406 50.945312 249.964844 51.171875 C 250.117188 51.394531 250.242188 51.632812 250.347656 51.882812 C 250.449219 52.132812 250.527344 52.390625 250.582031 52.65625 C 250.632812 52.921875 250.660156 53.1875 250.660156 53.460938 L 250.660156 118.289062 C 250.660156 118.5625 250.632812 118.828125 250.582031 119.09375 C 250.527344 119.359375 250.449219 119.617188 250.347656 119.867188 C 250.242188 120.117188 250.117188 120.355469 249.964844 120.578125 C 249.816406 120.804688 249.644531 121.011719 249.453125 121.203125 C 249.261719 121.394531 249.054688 121.566406 248.828125 121.714844 C 248.605469 121.867188 248.367188 121.992188 248.117188 122.097656 C 247.867188 122.199219 247.609375 122.277344 247.34375 122.332031 C 247.078125 122.382812 246.8125 122.410156 246.539062 122.410156 C 246.269531 122.410156 246.003906 122.382812 245.738281 122.332031 C 245.472656 122.277344 245.214844 122.199219 244.964844 122.097656 C 244.714844 121.992188 244.476562 121.867188 244.25 121.714844 C 244.027344 121.566406 243.820312 121.394531 243.628906 121.203125 C 243.4375 121.011719 243.265625 120.804688 243.113281 120.578125 C 242.964844 120.355469 242.835938 120.117188 242.734375 119.867188 C 242.628906 119.617188 242.550781 119.359375 242.5 119.09375 C 242.445312 118.828125 242.421875 118.5625 242.421875 118.289062 L 242.421875 57.578125 L 57.578125 57.578125 L 57.578125 242.421875 L 198.128906 242.421875 C 198.398438 242.421875 198.667969 242.445312 198.933594 242.5 C 199.199219 242.550781 199.457031 242.628906 199.707031 242.734375 C 199.957031 242.835938 200.191406 242.964844 200.417969 243.113281 C 200.644531 243.265625 200.851562 243.4375 201.042969 243.628906 C 201.234375 243.820312 201.402344 244.027344 201.554688 244.25 C 201.703125 244.476562 201.832031 244.714844 201.933594 244.964844 C 202.039062 245.214844 202.117188 245.472656 202.167969 245.738281 C 202.222656 246.003906 202.25 246.269531 202.25 246.539062 C 202.25 246.8125 202.222656 247.078125 202.167969 247.34375 C 202.117188 247.609375 202.039062 247.867188 201.933594 248.117188 C 201.832031 248.367188 201.703125 248.605469 201.554688 248.828125 C 201.402344 249.054688 201.234375 249.261719 201.042969 249.453125 C 200.851562 249.644531 200.644531 249.816406 200.417969 249.964844 C 200.191406 250.117188 199.957031 250.242188 199.707031 250.347656 C 199.457031 250.449219 199.199219 250.527344 198.933594 250.582031 C 198.667969 250.632812 198.398438 250.660156 198.128906 250.660156 Z M 198.128906 250.660156 " fill-opacity="1" fill-rule="nonzero"/><path fill="#a9a0f0" d="M 150 250.660156 C 149.730469 250.660156 149.460938 250.632812 149.195312 250.582031 C 148.929688 250.527344 148.671875 250.449219 148.421875 250.347656 C 148.171875 250.242188 147.9375 250.117188 147.710938 249.964844 C 147.484375 249.816406 147.277344 249.644531 147.085938 249.453125 C 146.894531 249.261719 146.722656 249.054688 146.574219 248.828125 C 146.425781 248.605469 146.296875 248.367188 146.195312 248.117188 C 146.089844 247.867188 146.011719 247.609375 145.957031 247.34375 C 145.90625 247.078125 145.878906 246.8125 145.878906 246.539062 L 145.878906 53.460938 C 145.878906 53.1875 145.90625 52.921875 145.957031 52.65625 C 146.011719 52.390625 146.089844 52.132812 146.195312 51.882812 C 146.296875 51.632812 146.425781 51.394531 146.574219 51.171875 C 146.722656 50.945312 146.894531 50.738281 147.085938 50.546875 C 147.277344 50.355469 147.484375 50.183594 147.710938 50.035156 C 147.9375 49.882812 148.171875 49.757812 148.421875 49.652344 C 148.671875 49.550781 148.929688 49.472656 149.195312 49.417969 C 149.460938 49.367188 149.730469 49.339844 150 49.339844 C 150.269531 49.339844 150.539062 49.367188 150.804688 49.417969 C 151.070312 49.472656 151.328125 49.550781 151.578125 49.652344 C 151.828125 49.757812 152.0625 49.882812 152.289062 50.035156 C 152.515625 50.183594 152.722656 50.355469 152.914062 50.546875 C 153.105469 50.738281 153.277344 50.945312 153.425781 51.171875 C 153.574219 51.394531 153.703125 51.632812 153.804688 51.882812 C 153.910156 52.132812 153.988281 52.390625 154.039062 52.65625 C 154.09375 52.921875 154.121094 53.1875 154.121094 53.460938 L 154.121094 246.539062 C 154.121094 246.8125 154.09375 247.078125 154.039062 247.34375 C 153.988281 247.609375 153.910156 247.867188 153.804688 248.117188 C 153.703125 248.367188 153.574219 248.605469 153.425781 248.828125 C 153.277344 249.054688 153.105469 249.261719 152.914062 249.453125 C 152.722656 249.644531 152.515625 249.816406 152.289062 249.964844 C 152.0625 250.117188 151.828125 250.242188 151.578125 250.347656 C 151.328125 250.449219 151.070312 250.527344 150.804688 250.582031 C 150.539062 250.632812 150.269531 250.660156 150 250.660156 Z M 150 250.660156 " fill-opacity="1" fill-rule="nonzero"/><path fill="#a9a0f0" d="M 96.15625 130.15625 C 95.742188 130.15625 95.335938 130.09375 94.9375 129.972656 C 94.542969 129.851562 94.175781 129.671875 93.832031 129.441406 C 93.488281 129.207031 93.191406 128.929688 92.933594 128.605469 C 92.671875 128.28125 92.46875 127.925781 92.316406 127.539062 L 85.710938 110.730469 L 68.894531 104.117188 C 68.507812 103.964844 68.15625 103.761719 67.832031 103.503906 C 67.507812 103.246094 67.230469 102.945312 66.996094 102.601562 C 66.765625 102.261719 66.585938 101.890625 66.464844 101.496094 C 66.34375 101.101562 66.28125 100.695312 66.28125 100.28125 C 66.28125 99.867188 66.34375 99.464844 66.464844 99.070312 C 66.585938 98.671875 66.765625 98.304688 66.996094 97.960938 C 67.230469 97.621094 67.507812 97.320312 67.832031 97.0625 C 68.15625 96.804688 68.507812 96.597656 68.894531 96.449219 L 85.710938 89.839844 L 92.316406 73.023438 C 92.46875 72.640625 92.671875 72.285156 92.933594 71.960938 C 93.191406 71.640625 93.488281 71.359375 93.832031 71.128906 C 94.175781 70.894531 94.542969 70.71875 94.9375 70.59375 C 95.332031 70.472656 95.738281 70.414062 96.152344 70.414062 C 96.566406 70.414062 96.96875 70.472656 97.367188 70.59375 C 97.761719 70.71875 98.128906 70.894531 98.472656 71.128906 C 98.8125 71.359375 99.113281 71.640625 99.371094 71.960938 C 99.628906 72.285156 99.835938 72.640625 99.984375 73.023438 L 106.59375 89.839844 L 123.410156 96.4375 C 123.792969 96.589844 124.148438 96.792969 124.472656 97.050781 C 124.796875 97.308594 125.074219 97.609375 125.304688 97.953125 C 125.539062 98.292969 125.71875 98.664062 125.839844 99.058594 C 125.960938 99.453125 126.023438 99.859375 126.023438 100.273438 C 126.023438 100.6875 125.960938 101.089844 125.839844 101.484375 C 125.71875 101.882812 125.539062 102.25 125.304688 102.59375 C 125.074219 102.933594 124.796875 103.234375 124.472656 103.492188 C 124.148438 103.75 123.792969 103.953125 123.410156 104.105469 L 106.59375 110.71875 L 99.984375 127.53125 C 99.835938 127.914062 99.632812 128.269531 99.375 128.597656 C 99.117188 128.921875 98.816406 129.199219 98.476562 129.433594 C 98.132812 129.667969 97.765625 129.847656 97.371094 129.96875 C 96.972656 130.09375 96.570312 130.15625 96.15625 130.15625 Z M 81.667969 100.285156 L 90.421875 103.714844 C 90.957031 103.925781 91.425781 104.230469 91.828125 104.636719 C 92.234375 105.042969 92.539062 105.511719 92.75 106.042969 L 96.179688 114.773438 L 99.609375 106.042969 C 99.820312 105.511719 100.125 105.042969 100.53125 104.636719 C 100.9375 104.230469 101.40625 103.925781 101.9375 103.714844 L 110.695312 100.285156 L 101.9375 96.855469 C 101.40625 96.644531 100.9375 96.339844 100.53125 95.933594 C 100.125 95.527344 99.820312 95.058594 99.609375 94.527344 L 96.179688 85.796875 L 92.75 94.527344 C 92.539062 95.058594 92.234375 95.527344 91.828125 95.933594 C 91.425781 96.339844 90.957031 96.644531 90.421875 96.855469 Z M 81.667969 100.285156 " fill-opacity="1" fill-rule="nonzero"/><path fill="#a9a0f0" d="M 181.519531 214.378906 C 181.105469 214.378906 180.703125 214.316406 180.304688 214.195312 C 179.910156 214.074219 179.542969 213.894531 179.203125 213.664062 C 178.859375 213.429688 178.558594 213.152344 178.300781 212.828125 C 178.042969 212.503906 177.839844 212.152344 177.6875 211.765625 L 172.21875 197.859375 L 158.3125 192.390625 C 157.925781 192.238281 157.574219 192.035156 157.25 191.777344 C 156.925781 191.519531 156.648438 191.21875 156.414062 190.875 C 156.183594 190.535156 156.003906 190.167969 155.882812 189.769531 C 155.761719 189.375 155.699219 188.972656 155.699219 188.558594 C 155.699219 188.144531 155.761719 187.738281 155.882812 187.34375 C 156.003906 186.949219 156.183594 186.578125 156.414062 186.238281 C 156.648438 185.894531 156.925781 185.59375 157.25 185.335938 C 157.574219 185.078125 157.925781 184.875 158.3125 184.722656 L 172.21875 179.253906 L 177.6875 165.347656 C 177.839844 164.960938 178.042969 164.609375 178.300781 164.285156 C 178.558594 163.960938 178.859375 163.683594 179.203125 163.449219 C 179.542969 163.21875 179.914062 163.039062 180.308594 162.917969 C 180.703125 162.796875 181.109375 162.734375 181.523438 162.734375 C 181.9375 162.734375 182.339844 162.796875 182.734375 162.917969 C 183.132812 163.039062 183.5 163.21875 183.839844 163.449219 C 184.183594 163.683594 184.484375 163.960938 184.742188 164.285156 C 185 164.609375 185.203125 164.960938 185.355469 165.347656 L 190.824219 179.253906 L 204.730469 184.722656 C 205.117188 184.875 205.46875 185.078125 205.792969 185.335938 C 206.117188 185.59375 206.394531 185.894531 206.628906 186.238281 C 206.863281 186.578125 207.039062 186.949219 207.160156 187.34375 C 207.28125 187.738281 207.34375 188.144531 207.34375 188.558594 C 207.34375 188.972656 207.28125 189.375 207.160156 189.769531 C 207.039062 190.167969 206.863281 190.535156 206.628906 190.875 C 206.394531 191.21875 206.117188 191.519531 205.792969 191.777344 C 205.46875 192.035156 205.117188 192.238281 204.730469 192.390625 L 190.824219 197.859375 L 185.355469 211.765625 C 185.203125 212.152344 185 212.507812 184.742188 212.828125 C 184.484375 213.152344 184.183594 213.429688 183.839844 213.664062 C 183.5 213.898438 183.128906 214.074219 182.734375 214.195312 C 182.339844 214.316406 181.933594 214.378906 181.519531 214.378906 Z M 171.070312 188.523438 L 176.898438 190.820312 C 177.433594 191.03125 177.902344 191.335938 178.304688 191.742188 C 178.710938 192.148438 179.019531 192.617188 179.226562 193.148438 L 181.523438 198.976562 L 183.816406 193.148438 C 184.027344 192.617188 184.332031 192.148438 184.738281 191.742188 C 185.140625 191.335938 185.613281 191.03125 186.144531 190.820312 L 191.972656 188.523438 L 186.140625 186.230469 C 185.605469 186.023438 185.140625 185.714844 184.734375 185.308594 C 184.332031 184.90625 184.023438 184.4375 183.816406 183.902344 L 181.523438 178.074219 L 179.226562 183.902344 C 179.019531 184.4375 178.710938 184.90625 178.308594 185.308594 C 177.90625 185.714844 177.4375 186.023438 176.90625 186.230469 Z M 171.070312 188.523438 " fill-opacity="1" fill-rule="nonzero"/><path fill="#a9a0f0" d="M 258.625 270 L 205.167969 270 C 204.421875 270 203.679688 269.925781 202.949219 269.78125 C 202.214844 269.636719 201.503906 269.421875 200.8125 269.132812 C 200.121094 268.847656 199.464844 268.5 198.84375 268.082031 C 198.222656 267.667969 197.648438 267.195312 197.117188 266.667969 C 196.589844 266.140625 196.117188 265.566406 195.703125 264.945312 C 195.285156 264.324219 194.933594 263.667969 194.648438 262.976562 C 194.363281 262.289062 194.144531 261.578125 194 260.84375 C 193.851562 260.109375 193.777344 259.371094 193.777344 258.625 C 193.777344 229.714844 196.507812 225.992188 201.734375 221.433594 C 204.011719 219.449219 206.59375 217.207031 209.460938 206.496094 C 210.808594 201.460938 212.453125 199.402344 213.652344 197.890625 C 214.851562 196.382812 215.777344 195.21875 214.09375 180.472656 C 214.0625 180.183594 214.058594 179.898438 214.085938 179.609375 C 214.113281 179.320312 214.171875 179.035156 214.261719 178.757812 C 214.347656 178.480469 214.464844 178.21875 214.609375 177.964844 C 214.75 177.714844 214.921875 177.480469 215.113281 177.261719 C 215.308594 177.046875 215.519531 176.851562 215.753906 176.679688 C 215.988281 176.507812 216.238281 176.363281 216.503906 176.246094 C 216.769531 176.125 217.042969 176.035156 217.328125 175.976562 C 217.609375 175.914062 217.898438 175.886719 218.1875 175.886719 L 258.597656 175.886719 C 259.34375 175.882812 260.085938 175.957031 260.816406 176.101562 C 261.550781 176.246094 262.261719 176.460938 262.953125 176.746094 C 263.640625 177.03125 264.296875 177.378906 264.921875 177.792969 C 265.542969 178.207031 266.117188 178.679688 266.648438 179.207031 C 267.175781 179.730469 267.648438 180.304688 268.066406 180.925781 C 268.480469 181.546875 268.832031 182.199219 269.121094 182.890625 C 269.410156 183.578125 269.625 184.289062 269.773438 185.023438 C 269.921875 185.753906 269.996094 186.496094 270 187.242188 L 270 258.625 C 270 259.371094 269.925781 260.109375 269.777344 260.839844 C 269.632812 261.574219 269.417969 262.285156 269.128906 262.972656 C 268.84375 263.664062 268.492188 264.320312 268.078125 264.941406 C 267.664062 265.5625 267.191406 266.136719 266.664062 266.664062 C 266.136719 267.191406 265.5625 267.664062 264.941406 268.078125 C 264.320312 268.492188 263.664062 268.84375 262.972656 269.128906 C 262.285156 269.417969 261.574219 269.632812 260.839844 269.777344 C 260.109375 269.925781 259.371094 270 258.625 270 Z M 222.789062 184.105469 C 223.984375 196.707031 222.902344 199.515625 220.121094 203.007812 C 219.207031 204.148438 218.347656 205.230469 217.441406 208.609375 C 214.183594 220.773438 210.859375 224.429688 207.140625 227.664062 C 204.273438 230.164062 201.992188 232.136719 201.992188 258.636719 C 201.992188 259.054688 202.070312 259.453125 202.230469 259.839844 C 202.390625 260.222656 202.617188 260.5625 202.910156 260.855469 C 203.203125 261.152344 203.542969 261.378906 203.925781 261.535156 C 204.3125 261.695312 204.710938 261.773438 205.128906 261.773438 L 258.625 261.773438 C 259.039062 261.773438 259.4375 261.695312 259.824219 261.535156 C 260.207031 261.378906 260.546875 261.152344 260.839844 260.855469 C 261.136719 260.5625 261.363281 260.222656 261.519531 259.839844 C 261.679688 259.453125 261.757812 259.054688 261.757812 258.636719 L 261.757812 187.242188 C 261.757812 186.824219 261.679688 186.425781 261.519531 186.039062 C 261.363281 185.65625 261.136719 185.316406 260.839844 185.023438 C 260.546875 184.730469 260.207031 184.503906 259.824219 184.34375 C 259.4375 184.183594 259.039062 184.105469 258.625 184.105469 Z M 222.789062 184.105469 " fill-opacity="1" fill-rule="nonzero"/><path fill="#a9a0f0" d="M 256.480469 184.105469 C 256.210938 184.105469 255.941406 184.078125 255.675781 184.027344 C 255.410156 183.972656 255.152344 183.894531 254.902344 183.792969 C 254.652344 183.6875 254.417969 183.5625 254.191406 183.410156 C 253.964844 183.261719 253.757812 183.089844 253.566406 182.898438 C 253.375 182.707031 253.207031 182.5 253.054688 182.273438 C 252.90625 182.046875 252.777344 181.8125 252.675781 181.5625 C 252.570312 181.3125 252.492188 181.054688 252.441406 180.789062 C 252.386719 180.523438 252.359375 180.253906 252.359375 179.984375 L 252.359375 165.902344 L 231.027344 165.902344 L 231.027344 179.984375 C 231.027344 180.253906 231 180.523438 230.949219 180.789062 C 230.894531 181.054688 230.816406 181.3125 230.714844 181.5625 C 230.609375 181.8125 230.484375 182.046875 230.332031 182.273438 C 230.183594 182.5 230.011719 182.707031 229.820312 182.898438 C 229.628906 183.089844 229.421875 183.261719 229.195312 183.410156 C 228.972656 183.5625 228.734375 183.6875 228.484375 183.792969 C 228.234375 183.894531 227.976562 183.972656 227.710938 184.027344 C 227.445312 184.078125 227.179688 184.105469 226.90625 184.105469 C 226.636719 184.105469 226.371094 184.078125 226.105469 184.027344 C 225.839844 183.972656 225.582031 183.894531 225.332031 183.792969 C 225.082031 183.6875 224.84375 183.5625 224.617188 183.410156 C 224.394531 183.261719 224.1875 183.089844 223.996094 182.898438 C 223.804688 182.707031 223.632812 182.5 223.480469 182.273438 C 223.332031 182.046875 223.203125 181.8125 223.101562 181.5625 C 222.996094 181.3125 222.917969 181.054688 222.867188 180.789062 C 222.8125 180.523438 222.789062 180.253906 222.789062 179.984375 L 222.789062 164.535156 C 222.789062 164.082031 222.832031 163.636719 222.921875 163.195312 C 223.007812 162.753906 223.140625 162.324219 223.3125 161.910156 C 223.484375 161.492188 223.695312 161.097656 223.945312 160.722656 C 224.195312 160.347656 224.480469 160.003906 224.796875 159.683594 C 225.117188 159.367188 225.464844 159.082031 225.839844 158.832031 C 226.210938 158.582031 226.609375 158.371094 227.023438 158.199219 C 227.441406 158.023438 227.867188 157.894531 228.308594 157.804688 C 228.75 157.71875 229.199219 157.675781 229.648438 157.671875 L 253.742188 157.671875 C 254.191406 157.675781 254.636719 157.71875 255.078125 157.804688 C 255.519531 157.894531 255.949219 158.023438 256.363281 158.199219 C 256.78125 158.371094 257.175781 158.582031 257.550781 158.832031 C 257.925781 159.082031 258.273438 159.367188 258.589844 159.683594 C 258.910156 160.003906 259.191406 160.347656 259.441406 160.722656 C 259.695312 161.097656 259.90625 161.492188 260.078125 161.910156 C 260.25 162.324219 260.378906 162.753906 260.46875 163.195312 C 260.554688 163.636719 260.601562 164.082031 260.601562 164.535156 L 260.601562 179.984375 C 260.601562 180.253906 260.574219 180.523438 260.523438 180.789062 C 260.46875 181.054688 260.390625 181.3125 260.289062 181.5625 C 260.183594 181.8125 260.058594 182.046875 259.90625 182.273438 C 259.757812 182.5 259.585938 182.707031 259.394531 182.898438 C 259.203125 183.089844 258.996094 183.261719 258.769531 183.410156 C 258.542969 183.5625 258.308594 183.6875 258.058594 183.792969 C 257.808594 183.894531 257.550781 183.972656 257.285156 184.027344 C 257.019531 184.078125 256.75 184.105469 256.480469 184.105469 Z M 256.480469 184.105469 " fill-opacity="1" fill-rule="nonzero"/><path fill="#a9a0f0" d="M 249.335938 165.902344 L 234.050781 165.902344 C 233.78125 165.902344 233.511719 165.878906 233.246094 165.824219 C 232.980469 165.773438 232.726562 165.695312 232.476562 165.589844 C 232.226562 165.488281 231.988281 165.359375 231.761719 165.210938 C 231.539062 165.058594 231.328125 164.886719 231.136719 164.695312 C 230.945312 164.503906 230.777344 164.296875 230.625 164.074219 C 230.476562 163.847656 230.347656 163.609375 230.246094 163.359375 C 230.140625 163.109375 230.0625 162.851562 230.011719 162.585938 C 229.957031 162.320312 229.929688 162.054688 229.929688 161.785156 L 229.929688 139.945312 C 229.929688 139.675781 229.957031 139.410156 230.011719 139.144531 C 230.0625 138.878906 230.140625 138.621094 230.246094 138.371094 C 230.347656 138.121094 230.476562 137.882812 230.625 137.65625 C 230.777344 137.433594 230.945312 137.226562 231.136719 137.035156 C 231.328125 136.84375 231.539062 136.671875 231.761719 136.519531 C 231.988281 136.371094 232.226562 136.242188 232.476562 136.140625 C 232.726562 136.035156 232.980469 135.957031 233.246094 135.90625 C 233.511719 135.851562 233.78125 135.828125 234.050781 135.828125 C 234.320312 135.828125 234.589844 135.851562 234.855469 135.90625 C 235.121094 135.957031 235.378906 136.035156 235.628906 136.140625 C 235.878906 136.242188 236.117188 136.371094 236.339844 136.519531 C 236.566406 136.671875 236.773438 136.84375 236.964844 137.035156 C 237.15625 137.226562 237.328125 137.433594 237.476562 137.65625 C 237.628906 137.882812 237.753906 138.121094 237.859375 138.371094 C 237.960938 138.621094 238.039062 138.878906 238.09375 139.144531 C 238.144531 139.410156 238.171875 139.675781 238.171875 139.945312 L 238.171875 157.664062 L 245.21875 157.664062 L 245.21875 139.636719 C 245.21875 139.367188 245.242188 139.097656 245.296875 138.832031 C 245.347656 138.570312 245.425781 138.3125 245.53125 138.0625 C 245.632812 137.8125 245.761719 137.574219 245.910156 137.347656 C 246.0625 137.125 246.234375 136.914062 246.425781 136.722656 C 246.613281 136.53125 246.824219 136.363281 247.046875 136.210938 C 247.273438 136.0625 247.511719 135.933594 247.761719 135.832031 C 248.011719 135.726562 248.269531 135.648438 248.535156 135.597656 C 248.800781 135.542969 249.066406 135.519531 249.335938 135.519531 C 249.609375 135.519531 249.875 135.542969 250.140625 135.597656 C 250.40625 135.648438 250.664062 135.726562 250.914062 135.832031 C 251.164062 135.933594 251.402344 136.0625 251.625 136.210938 C 251.851562 136.363281 252.058594 136.53125 252.25 136.722656 C 252.441406 136.914062 252.613281 137.125 252.761719 137.347656 C 252.914062 137.574219 253.039062 137.8125 253.144531 138.0625 C 253.246094 138.3125 253.324219 138.570312 253.378906 138.832031 C 253.429688 139.097656 253.457031 139.367188 253.457031 139.636719 L 253.457031 161.785156 C 253.457031 162.054688 253.429688 162.320312 253.378906 162.585938 C 253.324219 162.851562 253.246094 163.109375 253.144531 163.359375 C 253.039062 163.609375 252.914062 163.847656 252.761719 164.074219 C 252.613281 164.296875 252.441406 164.503906 252.25 164.695312 C 252.058594 164.886719 251.851562 165.058594 251.625 165.210938 C 251.402344 165.359375 251.164062 165.488281 250.914062 165.589844 C 250.664062 165.695312 250.40625 165.773438 250.140625 165.824219 C 249.875 165.878906 249.609375 165.902344 249.335938 165.902344 Z M 249.335938 165.902344 " fill-opacity="1" fill-rule="nonzero"/><path fill="#a9a0f0" d="M 246.695312 144.066406 L 216.132812 144.066406 C 215.863281 144.066406 215.59375 144.039062 215.328125 143.988281 C 215.066406 143.933594 214.808594 143.855469 214.558594 143.753906 C 214.308594 143.648438 214.070312 143.523438 213.84375 143.371094 C 213.621094 143.222656 213.410156 143.050781 213.21875 142.859375 C 213.027344 142.667969 212.859375 142.460938 212.707031 142.234375 C 212.558594 142.011719 212.429688 141.773438 212.328125 141.523438 C 212.222656 141.273438 212.144531 141.015625 212.09375 140.75 C 212.039062 140.484375 212.015625 140.21875 212.015625 139.945312 L 212.015625 135.507812 L 196.628906 135.507812 C 196.359375 135.507812 196.089844 135.480469 195.828125 135.429688 C 195.5625 135.375 195.304688 135.296875 195.054688 135.195312 C 194.804688 135.089844 194.566406 134.964844 194.339844 134.8125 C 194.117188 134.664062 193.90625 134.492188 193.714844 134.300781 C 193.523438 134.109375 193.355469 133.902344 193.203125 133.675781 C 193.054688 133.453125 192.925781 133.214844 192.824219 132.964844 C 192.71875 132.714844 192.640625 132.457031 192.589844 132.191406 C 192.535156 131.925781 192.511719 131.65625 192.511719 131.386719 L 192.511719 113.546875 C 192.507812 113.257812 192.535156 112.972656 192.59375 112.691406 C 192.652344 112.410156 192.742188 112.136719 192.855469 111.875 C 192.972656 111.609375 193.113281 111.363281 193.28125 111.128906 C 193.449219 110.894531 193.640625 110.679688 193.851562 110.484375 C 194.0625 110.292969 194.292969 110.121094 194.542969 109.976562 C 194.789062 109.828125 195.050781 109.710938 195.324219 109.621094 C 195.597656 109.527344 195.875 109.46875 196.164062 109.433594 C 196.449219 109.402344 196.734375 109.398438 197.019531 109.425781 L 247.085938 114.179688 C 255.515625 114.984375 261.636719 121.261719 261.636719 129.117188 C 261.636719 130.097656 261.542969 131.070312 261.351562 132.03125 C 261.160156 132.996094 260.878906 133.929688 260.503906 134.835938 C 260.128906 135.746094 259.667969 136.605469 259.125 137.421875 C 258.578125 138.238281 257.957031 138.996094 257.265625 139.6875 C 256.570312 140.382812 255.816406 141.003906 255 141.546875 C 254.183594 142.09375 253.324219 142.554688 252.414062 142.929688 C 251.507812 143.304688 250.574219 143.589844 249.613281 143.78125 C 248.648438 143.972656 247.675781 144.066406 246.695312 144.066406 Z M 220.253906 135.828125 L 246.695312 135.828125 C 247.136719 135.828125 247.570312 135.785156 248 135.699219 C 248.433594 135.613281 248.851562 135.484375 249.257812 135.316406 C 249.664062 135.148438 250.050781 134.941406 250.414062 134.699219 C 250.78125 134.453125 251.117188 134.175781 251.429688 133.867188 C 251.742188 133.554688 252.019531 133.214844 252.261719 132.851562 C 252.507812 132.484375 252.710938 132.101562 252.882812 131.695312 C 253.050781 131.289062 253.175781 130.867188 253.261719 130.4375 C 253.347656 130.007812 253.390625 129.570312 253.390625 129.132812 C 253.390625 125.160156 249.828125 122.746094 246.304688 122.410156 L 200.75 118.070312 L 200.75 127.257812 L 216.132812 127.257812 C 216.40625 127.257812 216.671875 127.28125 216.9375 127.335938 C 217.203125 127.386719 217.460938 127.464844 217.710938 127.570312 C 217.960938 127.671875 218.199219 127.800781 218.421875 127.949219 C 218.648438 128.101562 218.855469 128.273438 219.046875 128.464844 C 219.238281 128.65625 219.410156 128.863281 219.558594 129.085938 C 219.710938 129.3125 219.835938 129.550781 219.941406 129.800781 C 220.042969 130.050781 220.121094 130.308594 220.175781 130.574219 C 220.226562 130.839844 220.253906 131.105469 220.253906 131.375 Z M 220.253906 135.828125 " fill-opacity="1" fill-rule="nonzero"/><path fill="#a9a0f0" d="M 196.628906 133.929688 L 183.992188 133.929688 C 179.53125 133.929688 176.035156 131.019531 176.035156 127.304688 L 176.035156 117.632812 C 176.035156 113.914062 179.53125 111.003906 183.992188 111.003906 L 196.640625 111.003906 C 196.910156 111.003906 197.179688 111.027344 197.445312 111.082031 C 197.710938 111.132812 197.96875 111.210938 198.21875 111.316406 C 198.46875 111.417969 198.703125 111.546875 198.929688 111.695312 C 199.152344 111.847656 199.363281 112.019531 199.554688 112.210938 C 199.746094 112.402344 199.914062 112.609375 200.066406 112.832031 C 200.214844 113.058594 200.34375 113.296875 200.445312 113.546875 C 200.550781 113.796875 200.628906 114.054688 200.679688 114.320312 C 200.734375 114.585938 200.761719 114.851562 200.761719 115.121094 C 200.761719 115.394531 200.734375 115.660156 200.679688 115.925781 C 200.628906 116.191406 200.550781 116.449219 200.445312 116.699219 C 200.34375 116.949219 200.214844 117.1875 200.066406 117.410156 C 199.914062 117.636719 199.746094 117.84375 199.554688 118.035156 C 199.363281 118.226562 199.152344 118.398438 198.929688 118.546875 C 198.703125 118.699219 198.46875 118.824219 198.21875 118.929688 C 197.96875 119.03125 197.710938 119.109375 197.445312 119.164062 C 197.179688 119.214844 196.910156 119.242188 196.640625 119.242188 L 184.28125 119.242188 L 184.28125 125.691406 L 196.640625 125.691406 C 196.910156 125.691406 197.179688 125.71875 197.445312 125.769531 C 197.710938 125.824219 197.96875 125.902344 198.21875 126.003906 C 198.46875 126.109375 198.703125 126.234375 198.929688 126.386719 C 199.152344 126.535156 199.363281 126.707031 199.554688 126.898438 C 199.746094 127.089844 199.914062 127.296875 200.066406 127.523438 C 200.214844 127.746094 200.34375 127.984375 200.445312 128.234375 C 200.550781 128.484375 200.628906 128.742188 200.679688 129.007812 C 200.734375 129.273438 200.761719 129.539062 200.761719 129.8125 C 200.761719 130.082031 200.734375 130.351562 200.679688 130.613281 C 200.628906 130.878906 200.550781 131.136719 200.445312 131.386719 C 200.34375 131.636719 200.214844 131.875 200.066406 132.101562 C 199.914062 132.324219 199.746094 132.535156 199.554688 132.722656 C 199.363281 132.914062 199.152344 133.085938 198.929688 133.238281 C 198.703125 133.386719 198.46875 133.515625 198.21875 133.617188 C 197.96875 133.722656 197.710938 133.800781 197.445312 133.851562 C 197.179688 133.90625 196.910156 133.929688 196.640625 133.929688 Z M 196.628906 133.929688 " fill-opacity="1" fill-rule="nonzero"/><path fill="#a9a0f0" d="M 209.929688 165.964844 C 209.191406 165.964844 208.503906 165.785156 207.863281 165.414062 C 207.226562 165.046875 206.722656 164.542969 206.355469 163.90625 C 197.914062 149.285156 200.996094 136.289062 203.589844 129.847656 C 203.6875 129.597656 203.8125 129.359375 203.960938 129.132812 C 204.109375 128.90625 204.28125 128.695312 204.46875 128.503906 C 204.660156 128.308594 204.867188 128.136719 205.089844 127.984375 C 205.3125 127.832031 205.550781 127.703125 205.800781 127.597656 C 206.050781 127.492188 206.304688 127.410156 206.570312 127.355469 C 206.835938 127.300781 207.105469 127.273438 207.375 127.269531 C 207.644531 127.269531 207.914062 127.292969 208.179688 127.34375 C 208.445312 127.394531 208.703125 127.46875 208.953125 127.570312 C 209.207031 127.671875 209.445312 127.796875 209.671875 127.945312 C 209.898438 128.09375 210.105469 128.261719 210.300781 128.453125 C 210.492188 128.644531 210.664062 128.847656 210.816406 129.074219 C 210.96875 129.296875 211.097656 129.535156 211.203125 129.78125 C 211.308594 130.03125 211.390625 130.289062 211.445312 130.554688 C 211.5 130.820312 211.527344 131.085938 211.53125 131.355469 C 211.535156 131.628906 211.507812 131.894531 211.457031 132.160156 C 211.410156 132.429688 211.332031 132.6875 211.230469 132.9375 C 208.753906 139.117188 207.109375 148.785156 213.492188 159.804688 C 213.628906 160.039062 213.738281 160.285156 213.824219 160.542969 C 213.914062 160.796875 213.972656 161.058594 214.007812 161.328125 C 214.042969 161.597656 214.054688 161.867188 214.035156 162.136719 C 214.015625 162.40625 213.972656 162.671875 213.902344 162.933594 C 213.832031 163.195312 213.738281 163.445312 213.617188 163.6875 C 213.5 163.933594 213.355469 164.160156 213.191406 164.375 C 213.027344 164.589844 212.84375 164.785156 212.640625 164.964844 C 212.4375 165.144531 212.21875 165.300781 211.984375 165.433594 C 211.34375 165.796875 210.660156 165.972656 209.929688 165.964844 Z M 209.929688 165.964844 " fill-opacity="1" fill-rule="nonzero"/><path fill="#a9a0f0" d="M 236.898438 245.820312 C 227.835938 245.820312 220.738281 235.765625 220.738281 222.933594 C 220.738281 210.097656 227.835938 200.039062 236.898438 200.039062 C 245.964844 200.039062 253.054688 210.09375 253.054688 222.933594 C 253.054688 235.773438 245.957031 245.820312 236.898438 245.820312 Z M 236.898438 208.28125 C 233.15625 208.28125 228.980469 214.296875 228.980469 222.933594 C 228.980469 231.570312 233.15625 237.578125 236.898438 237.578125 C 240.644531 237.578125 244.816406 231.5625 244.816406 222.933594 C 244.816406 214.300781 240.644531 208.28125 236.898438 208.28125 Z M 236.898438 208.28125 " fill-opacity="1" fill-rule="nonzero"/></svg>