<svg xmlns="http://www.w3.org/2000/svg" xmlns:xlink="http://www.w3.org/1999/xlink" width="400" zoomAndPan="magnify" viewBox="0 0 300 299.999988" height="400" preserveAspectRatio="xMidYMid meet" version="1.0"><defs><clipPath id="9a007b7e88"><path d="M 29.648438 30 L 269.648438 30 L 269.648438 270 L 29.648438 270 Z M 29.648438 30 " clip-rule="nonzero"/></clipPath></defs><g clip-path="url(#9a007b7e88)"><path fill="#a9a0f0" d="M 149.859375 269.652344 C 133.667969 269.652344 117.960938 266.484375 103.171875 260.234375 C 88.890625 254.199219 76.066406 245.558594 65.050781 234.554688 C 54.039062 223.550781 45.390625 210.734375 39.351562 196.464844 C 33.09375 181.6875 29.921875 165.992188 29.921875 149.816406 C 29.921875 133.640625 33.09375 117.945312 39.351562 103.167969 C 45.390625 88.898438 54.039062 76.082031 65.050781 65.078125 C 76.066406 54.074219 88.890625 45.4375 103.171875 39.402344 C 117.960938 33.152344 133.667969 29.980469 149.859375 29.980469 C 166.046875 29.980469 181.753906 33.152344 196.542969 39.402344 C 210.824219 45.4375 223.648438 54.074219 234.664062 65.078125 C 245.675781 76.082031 254.324219 88.898438 260.367188 103.167969 C 266.621094 117.945312 269.792969 133.640625 269.792969 149.816406 C 269.792969 165.992188 266.621094 181.6875 260.367188 196.464844 C 254.324219 210.734375 245.675781 223.550781 234.664062 234.554688 C 223.648438 245.558594 210.824219 254.199219 196.542969 260.234375 C 181.753906 266.484375 166.046875 269.652344 149.859375 269.652344 Z M 149.859375 37.472656 C 87.855469 37.472656 37.414062 87.871094 37.414062 149.816406 C 37.414062 211.765625 87.855469 262.164062 149.859375 262.164062 C 211.859375 262.164062 262.304688 211.765625 262.304688 149.816406 C 262.304688 87.871094 211.859375 37.472656 149.859375 37.472656 Z M 149.859375 37.472656 " fill-opacity="1" fill-rule="evenodd"/></g><path fill="#a9a0f0" d="M 62.386719 165.402344 C 60.542969 165.402344 58.933594 164.039062 58.679688 162.15625 C 58.136719 158.101562 57.859375 153.949219 57.859375 149.816406 C 57.859375 137.410156 60.292969 125.371094 65.089844 114.035156 C 69.722656 103.085938 76.359375 93.257812 84.804688 84.816406 C 93.253906 76.375 103.09375 69.746094 114.046875 65.117188 C 125.394531 60.324219 137.441406 57.890625 149.859375 57.890625 C 173.121094 57.890625 195.328125 66.589844 212.378906 82.378906 C 229.339844 98.082031 239.699219 119.367188 241.554688 142.3125 C 241.722656 144.375 240.1875 146.179688 238.125 146.347656 C 236.0625 146.515625 234.257812 144.980469 234.089844 142.917969 C 230.574219 99.441406 193.574219 65.382812 149.859375 65.382812 C 103.257812 65.382812 65.347656 103.261719 65.347656 149.816406 C 65.347656 153.613281 65.601562 157.429688 66.105469 161.160156 C 66.378906 163.207031 64.941406 165.09375 62.890625 165.371094 C 62.722656 165.390625 62.554688 165.402344 62.386719 165.402344 Z M 62.386719 165.402344 " fill-opacity="1" fill-rule="evenodd"/><path fill="#a9a0f0" d="M 132.214844 239.980469 C 131.96875 239.980469 131.71875 239.957031 131.46875 239.90625 C 122.15625 238.015625 113.226562 234.703125 104.929688 230.054688 C 96.800781 225.5 89.425781 219.753906 83.007812 212.96875 C 81.585938 211.46875 81.652344 209.097656 83.152344 207.675781 C 84.65625 206.253906 87.027344 206.320312 88.449219 207.820312 C 100.488281 220.546875 115.878906 229.101562 132.953125 232.5625 C 134.980469 232.976562 136.292969 234.949219 135.882812 236.976562 C 135.519531 238.753906 133.960938 239.980469 132.214844 239.980469 Z M 132.214844 239.980469 " fill-opacity="1" fill-rule="evenodd"/><path fill="#a9a0f0" d="M 124.351562 107.628906 C 122.464844 107.628906 120.839844 106.203125 120.632812 104.285156 C 120.410156 102.230469 121.898438 100.382812 123.953125 100.160156 L 134.15625 99.058594 C 136.214844 98.835938 138.058594 100.324219 138.28125 102.378906 C 138.503906 104.4375 137.015625 106.285156 134.960938 106.503906 L 124.757812 107.605469 C 124.621094 107.621094 124.484375 107.628906 124.351562 107.628906 Z M 124.351562 107.628906 " fill-opacity="1" fill-rule="evenodd"/><path fill="#a9a0f0" d="M 151.84375 79.960938 C 149.953125 79.960938 148.332031 78.539062 148.125 76.617188 C 147.902344 74.5625 149.390625 72.714844 151.445312 72.492188 L 161.644531 71.390625 C 163.703125 71.171875 165.550781 72.65625 165.769531 74.714844 C 165.992188 76.769531 164.507812 78.617188 162.449219 78.839844 L 152.25 79.941406 C 152.113281 79.953125 151.976562 79.960938 151.84375 79.960938 Z M 151.84375 79.960938 " fill-opacity="1" fill-rule="evenodd"/><path fill="#a9a0f0" d="M 103.261719 93.3125 C 101.375 93.3125 99.753906 91.886719 99.542969 89.96875 C 99.324219 87.910156 100.808594 86.0625 102.867188 85.84375 L 113.066406 84.742188 C 115.125 84.519531 116.972656 86.007812 117.191406 88.0625 C 117.414062 90.117188 115.925781 91.964844 113.871094 92.1875 L 103.671875 93.289062 C 103.535156 93.304688 103.398438 93.3125 103.261719 93.3125 Z M 103.261719 93.3125 " fill-opacity="1" fill-rule="evenodd"/><path fill="#a9a0f0" d="M 104.363281 117.28125 C 102.476562 117.28125 100.855469 115.855469 100.644531 113.9375 L 99.542969 103.734375 C 99.324219 101.679688 100.808594 99.832031 102.867188 99.609375 C 104.921875 99.386719 106.769531 100.875 106.992188 102.929688 L 108.09375 113.132812 C 108.316406 115.1875 106.828125 117.035156 104.773438 117.257812 C 104.636719 117.273438 104.5 117.28125 104.363281 117.28125 Z M 104.363281 117.28125 " fill-opacity="1" fill-rule="evenodd"/><path fill="#a9a0f0" d="M 133.878906 93.945312 C 131.992188 93.945312 130.367188 92.519531 130.160156 90.601562 L 129.058594 80.398438 C 128.835938 78.34375 130.324219 76.496094 132.378906 76.273438 C 134.4375 76.050781 136.285156 77.539062 136.503906 79.59375 L 137.609375 89.796875 C 137.828125 91.851562 136.34375 93.699219 134.285156 93.921875 C 134.148438 93.9375 134.015625 93.945312 133.878906 93.945312 Z M 133.878906 93.945312 " fill-opacity="1" fill-rule="evenodd"/><path fill="#a9a0f0" d="M 157.492188 100.585938 C 155.605469 100.585938 153.980469 99.160156 153.773438 97.242188 L 152.671875 87.039062 C 152.453125 84.984375 153.9375 83.136719 155.996094 82.914062 C 158.050781 82.691406 159.898438 84.179688 160.121094 86.234375 L 161.222656 96.4375 C 161.445312 98.492188 159.957031 100.339844 157.902344 100.5625 C 157.765625 100.578125 157.628906 100.585938 157.492188 100.585938 Z M 157.492188 100.585938 " fill-opacity="1" fill-rule="evenodd"/><path fill="#a9a0f0" d="M 179.640625 95.484375 C 177.753906 95.484375 176.132812 94.0625 175.925781 92.140625 L 174.820312 81.9375 C 174.601562 79.882812 176.085938 78.035156 178.144531 77.8125 C 180.203125 77.59375 182.046875 79.078125 182.269531 81.136719 L 183.371094 91.335938 C 183.59375 93.394531 182.105469 95.238281 180.050781 95.460938 C 179.910156 95.476562 179.777344 95.484375 179.640625 95.484375 Z M 179.640625 95.484375 " fill-opacity="1" fill-rule="evenodd"/><path fill="#a9a0f0" d="M 96.15625 220 C 94.367188 220 92.578125 219.640625 90.914062 218.925781 C 88.804688 218.019531 87 216.601562 85.636719 214.820312 C 85.46875 214.898438 85.300781 214.972656 85.132812 215.046875 C 78.292969 217.980469 70.339844 214.800781 67.40625 207.960938 C 66.648438 206.1875 66.28125 204.285156 66.316406 202.386719 C 62.78125 200.90625 59.875 198.089844 58.335938 194.5 C 57.078125 191.566406 56.816406 188.332031 57.515625 185.28125 C 54.40625 183.789062 51.871094 181.207031 50.476562 177.953125 C 48.957031 174.410156 48.910156 170.488281 50.339844 166.90625 C 51.773438 163.324219 54.511719 160.515625 58.054688 158.996094 C 58.570312 158.777344 59.089844 158.585938 59.621094 158.425781 C 59.609375 156.359375 60.042969 154.296875 60.917969 152.375 C 62.40625 149.09375 65.054688 146.503906 68.367188 145.082031 C 69.867188 144.4375 71.429688 144.058594 73.003906 143.941406 C 72.652344 138.035156 75.980469 132.265625 81.726562 129.800781 C 83.65625 128.972656 85.726562 128.582031 87.789062 128.636719 C 89.117188 124.917969 91.929688 121.871094 95.691406 120.257812 C 99.238281 118.738281 103.160156 118.6875 106.742188 120.121094 C 110.324219 121.550781 113.132812 124.292969 114.652344 127.835938 C 115.460938 129.726562 115.855469 131.71875 115.824219 133.722656 C 118.792969 135.246094 121.195312 137.777344 122.53125 140.890625 C 125.167969 147.035156 123.1875 154.019531 118.148438 157.957031 C 118.367188 158.355469 118.566406 158.765625 118.746094 159.1875 C 120.445312 163.144531 120.253906 167.550781 118.429688 171.257812 C 120.449219 172.652344 122.070312 174.605469 123.070312 176.933594 C 125.59375 182.820312 123.507812 189.546875 118.429688 193.058594 C 118.960938 195.589844 118.738281 198.222656 117.757812 200.679688 C 116.441406 203.964844 113.925781 206.546875 110.671875 207.941406 C 110.222656 208.132812 109.769531 208.300781 109.304688 208.441406 C 108.722656 213.003906 105.78125 217.042969 101.378906 218.933594 C 99.71875 219.644531 97.9375 220 96.15625 220 Z M 86.980469 205.511719 C 87.277344 205.511719 87.574219 205.546875 87.867188 205.617188 C 89.191406 205.941406 90.234375 206.957031 90.59375 208.269531 C 90.664062 208.527344 90.75 208.777344 90.855469 209.023438 C 91.441406 210.386719 92.511719 211.457031 93.875 212.042969 C 95.34375 212.675781 96.957031 212.679688 98.425781 212.046875 C 100.855469 211.003906 102.265625 208.460938 101.851562 205.855469 C 101.679688 204.78125 101.988281 203.683594 102.691406 202.851562 C 103.394531 202.019531 104.425781 201.535156 105.515625 201.523438 C 106.273438 201.519531 107.015625 201.359375 107.722656 201.058594 C 109.136719 200.449219 110.230469 199.328125 110.804688 197.898438 C 111.375 196.46875 111.355469 194.902344 110.75 193.488281 C 110.675781 193.320312 110.597656 193.15625 110.511719 192.996094 C 109.980469 192.019531 109.914062 190.855469 110.324219 189.820312 C 110.738281 188.789062 111.589844 187.992188 112.648438 187.648438 C 112.820312 187.59375 112.992188 187.527344 113.160156 187.457031 C 116.078125 186.203125 117.4375 182.808594 116.183594 179.886719 C 115.425781 178.117188 113.84375 176.851562 111.949219 176.492188 C 110.550781 176.226562 109.425781 175.195312 109.039062 173.824219 C 108.65625 172.457031 109.082031 170.988281 110.136719 170.03125 C 112.339844 168.042969 113.035156 164.871094 111.863281 162.140625 C 111.441406 161.160156 110.820312 160.308594 110.015625 159.617188 C 108.988281 158.726562 108.519531 157.351562 108.796875 156.019531 C 109.074219 154.6875 110.050781 153.609375 111.347656 153.207031 C 111.558594 153.140625 111.78125 153.058594 112.003906 152.960938 C 115.523438 151.453125 117.15625 147.363281 115.648438 143.839844 C 114.773438 141.800781 113.03125 140.335938 110.871094 139.816406 C 109.894531 139.582031 109.050781 138.96875 108.535156 138.109375 C 108.015625 137.25 107.863281 136.214844 108.113281 135.246094 C 108.496094 133.75 108.378906 132.210938 107.769531 130.789062 C 107.035156 129.082031 105.683594 127.765625 103.960938 127.074219 C 102.238281 126.386719 100.351562 126.410156 98.644531 127.140625 C 96.210938 128.183594 94.601562 130.476562 94.445312 133.117188 C 94.378906 134.277344 93.777344 135.335938 92.820312 135.988281 C 91.863281 136.644531 90.65625 136.816406 89.550781 136.457031 C 87.957031 135.941406 86.222656 136.019531 84.679688 136.683594 C 81.15625 138.195312 79.523438 142.285156 81.03125 145.808594 C 81.148438 146.082031 81.28125 146.34375 81.425781 146.585938 C 82.25 147.976562 82.089844 149.738281 81.027344 150.957031 C 79.964844 152.175781 78.242188 152.574219 76.753906 151.949219 C 75 151.210938 73.070312 151.214844 71.320312 151.964844 C 68.019531 153.382812 66.347656 157.023438 67.433594 160.433594 C 67.796875 161.578125 67.589844 162.832031 66.875 163.796875 C 66.160156 164.761719 65.019531 165.332031 63.824219 165.3125 C 62.855469 165.300781 61.90625 165.492188 61.007812 165.878906 C 59.304688 166.609375 57.984375 167.960938 57.296875 169.683594 C 56.609375 171.40625 56.628906 173.296875 57.363281 175 C 58.335938 177.269531 60.464844 178.863281 62.917969 179.160156 C 64.175781 179.3125 65.273438 180.089844 65.832031 181.230469 C 66.390625 182.371094 66.332031 183.714844 65.679688 184.804688 C 64.457031 186.847656 64.285156 189.367188 65.21875 191.546875 C 66.253906 193.960938 68.425781 195.617188 71.03125 195.976562 C 72.125 196.125 73.097656 196.75 73.6875 197.6875 C 74.277344 198.621094 74.421875 199.769531 74.089844 200.820312 C 73.652344 202.195312 73.722656 203.679688 74.292969 205.007812 C 75.597656 208.050781 79.136719 209.46875 82.183594 208.160156 C 82.96875 207.824219 83.65625 207.339844 84.226562 206.71875 C 84.945312 205.941406 85.949219 205.511719 86.980469 205.511719 Z M 86.980469 205.511719 " fill-opacity="1" fill-rule="evenodd"/><path fill="#a9a0f0" d="M 92.839844 158.839844 C 92.3125 158.839844 91.777344 158.726562 91.265625 158.492188 C 89.390625 157.621094 88.574219 155.394531 89.445312 153.519531 C 93.410156 144.976562 96.996094 139.847656 97.148438 139.636719 C 98.339844 137.945312 100.675781 137.539062 102.367188 138.730469 C 104.054688 139.921875 104.460938 142.257812 103.269531 143.949219 C 103.238281 143.992188 99.898438 148.785156 96.238281 156.671875 C 95.605469 158.035156 94.253906 158.839844 92.839844 158.839844 Z M 92.839844 158.839844 " fill-opacity="1" fill-rule="evenodd"/><path fill="#a9a0f0" d="M 84 187.085938 C 83.796875 187.085938 83.589844 187.070312 83.382812 187.035156 C 81.34375 186.699219 79.960938 184.769531 80.300781 182.730469 C 81.09375 177.945312 82.25 173.097656 83.734375 168.316406 C 83.746094 168.28125 83.757812 168.242188 83.769531 168.207031 C 85.308594 163.261719 87.21875 158.316406 89.445312 153.519531 C 90.3125 151.644531 92.539062 150.828125 94.417969 151.699219 C 96.292969 152.566406 97.109375 154.792969 96.238281 156.671875 C 94.167969 161.136719 92.390625 165.730469 90.949219 170.332031 C 90.941406 170.367188 90.929688 170.402344 90.917969 170.441406 C 89.515625 174.929688 88.429688 179.476562 87.6875 183.953125 C 87.386719 185.785156 85.796875 187.085938 84 187.085938 Z M 84 187.085938 " fill-opacity="1" fill-rule="evenodd"/><path fill="#a9a0f0" d="M 82.796875 198.867188 C 82.75 198.867188 82.707031 198.867188 82.660156 198.863281 C 80.59375 198.789062 78.976562 197.050781 79.054688 194.984375 C 79.199219 190.972656 79.621094 186.851562 80.300781 182.734375 C 80.636719 180.695312 82.566406 179.3125 84.605469 179.652344 C 86.648438 179.988281 88.027344 181.917969 87.691406 183.957031 C 87.0625 187.757812 86.671875 191.5625 86.539062 195.257812 C 86.464844 197.277344 84.804688 198.867188 82.796875 198.867188 Z M 82.796875 198.867188 " fill-opacity="1" fill-rule="evenodd"/><path fill="#a9a0f0" d="M 92.84375 158.839844 C 91.359375 158.839844 89.953125 157.953125 89.367188 156.492188 L 84.953125 145.511719 C 84.179688 143.59375 85.109375 141.410156 87.03125 140.640625 C 88.949219 139.867188 91.128906 140.796875 91.902344 142.714844 L 96.316406 153.699219 C 97.085938 155.617188 96.15625 157.796875 94.238281 158.570312 C 93.78125 158.753906 93.308594 158.839844 92.84375 158.839844 Z M 92.84375 158.839844 " fill-opacity="1" fill-rule="evenodd"/><path fill="#a9a0f0" d="M 92.84375 158.839844 C 91.359375 158.839844 89.957031 157.953125 89.367188 156.492188 C 88.597656 154.574219 89.527344 152.390625 91.445312 151.621094 L 102.429688 147.203125 C 104.347656 146.433594 106.527344 147.363281 107.300781 149.28125 C 108.070312 151.199219 107.140625 153.382812 105.222656 154.152344 L 94.238281 158.570312 C 93.78125 158.753906 93.308594 158.839844 92.84375 158.839844 Z M 92.84375 158.839844 " fill-opacity="1" fill-rule="evenodd"/><path fill="#a9a0f0" d="M 87.347656 173.070312 C 85.863281 173.070312 84.457031 172.183594 83.871094 170.722656 L 79.457031 159.738281 C 78.683594 157.820312 79.613281 155.640625 81.535156 154.867188 C 83.453125 154.097656 85.632812 155.027344 86.40625 156.945312 L 90.820312 167.925781 C 91.59375 169.847656 90.660156 172.027344 88.742188 172.800781 C 88.285156 172.984375 87.8125 173.070312 87.347656 173.070312 Z M 87.347656 173.070312 " fill-opacity="1" fill-rule="evenodd"/><path fill="#a9a0f0" d="M 87.347656 173.070312 C 85.863281 173.070312 84.457031 172.179688 83.871094 170.71875 C 83.097656 168.800781 84.03125 166.621094 85.949219 165.847656 L 96.929688 161.433594 C 98.851562 160.660156 101.03125 161.59375 101.800781 163.511719 C 102.574219 165.429688 101.644531 167.609375 99.726562 168.382812 L 88.742188 172.796875 C 88.285156 172.980469 87.8125 173.070312 87.347656 173.070312 Z M 87.347656 173.070312 " fill-opacity="1" fill-rule="evenodd"/><path fill="#a9a0f0" d="M 83.996094 187.089844 C 82.511719 187.089844 81.105469 186.199219 80.519531 184.738281 L 76.105469 173.757812 C 75.332031 171.839844 76.261719 169.660156 78.183594 168.886719 C 80.101562 168.117188 82.28125 169.046875 83.054688 170.964844 L 87.46875 181.945312 C 88.238281 183.863281 87.308594 186.046875 85.390625 186.816406 C 84.933594 187 84.460938 187.089844 83.996094 187.089844 Z M 83.996094 187.089844 " fill-opacity="1" fill-rule="evenodd"/><path fill="#a9a0f0" d="M 83.996094 187.085938 C 82.511719 187.085938 81.109375 186.199219 80.519531 184.738281 C 79.75 182.820312 80.679688 180.636719 82.597656 179.867188 L 93.578125 175.453125 C 95.496094 174.679688 97.679688 175.609375 98.449219 177.53125 C 99.222656 179.449219 98.289062 181.628906 96.371094 182.402344 L 85.390625 186.816406 C 84.933594 187 84.460938 187.085938 83.996094 187.085938 Z M 83.996094 187.085938 " fill-opacity="1" fill-rule="evenodd"/><path fill="#a9a0f0" d="M 152.855469 247.34375 C 150.121094 247.34375 147.480469 247.085938 144.957031 246.566406 C 140.75 245.699219 136.867188 244.117188 133.421875 241.863281 C 130.058594 239.660156 127.410156 237.085938 125.554688 234.210938 C 121.851562 228.480469 119.894531 221.402344 119.894531 213.742188 C 119.894531 207.328125 121.257812 200.753906 123.941406 194.199219 C 125.683594 189.945312 127.847656 186.484375 129.757812 183.433594 C 132.265625 179.425781 133.378906 177.484375 133.515625 175.679688 C 133.523438 175.535156 133.53125 175.386719 133.53125 175.226562 C 133.53125 173.066406 132.566406 170.03125 131.453125 166.519531 C 129.75 161.167969 127.824219 155.105469 127.824219 147.832031 C 127.824219 147.746094 127.824219 147.65625 127.824219 147.566406 C 127.867188 141 129.082031 134.628906 131.429688 128.621094 L 131.496094 128.457031 C 134.390625 121.121094 139.367188 114.890625 145.882812 110.4375 C 152.40625 105.980469 160.019531 103.609375 167.902344 103.585938 C 170.949219 103.578125 174.121094 103.820312 177.339844 104.308594 C 179.386719 104.617188 180.789062 106.527344 180.480469 108.574219 C 180.171875 110.617188 178.261719 112.023438 176.214844 111.714844 C 173.375 111.28125 170.578125 111.066406 167.925781 111.078125 C 154.839844 111.117188 143.277344 119.019531 138.460938 131.207031 L 138.40625 131.351562 C 136.390625 136.5 135.351562 141.972656 135.3125 147.617188 L 135.3125 147.832031 C 135.3125 153.941406 137.054688 159.417969 138.589844 164.25 C 139.894531 168.359375 141.019531 171.902344 141.019531 175.226562 C 141.019531 175.578125 141.007812 175.910156 140.984375 176.246094 C 140.707031 179.890625 138.949219 182.863281 136.109375 187.40625 C 134.355469 190.203125 132.371094 193.375 130.871094 197.039062 C 128.558594 202.683594 127.386719 208.304688 127.386719 213.742188 C 127.386719 219.957031 128.929688 225.628906 131.84375 230.144531 C 133.128906 232.136719 135.042969 233.96875 137.523438 235.59375 C 140.175781 237.332031 143.1875 238.554688 146.46875 239.230469 C 150.707031 240.101562 155.421875 240.0625 160.480469 239.109375 C 162.820312 238.667969 165.269531 238.023438 167.765625 237.195312 C 169.726562 236.542969 171.847656 237.601562 172.5 239.566406 C 173.152344 241.527344 172.089844 243.648438 170.128906 244.300781 C 167.316406 245.238281 164.535156 245.964844 161.867188 246.46875 C 158.765625 247.050781 155.757812 247.34375 152.855469 247.34375 Z M 152.855469 247.34375 " fill-opacity="1" fill-rule="evenodd"/><path fill="#a9a0f0" d="M 169.292969 232.457031 C 165.914062 232.457031 162.492188 232.003906 159.363281 231.101562 C 155.023438 229.851562 149.167969 227.183594 145.90625 221.589844 C 144.578125 219.308594 143.917969 216.597656 143.945312 213.539062 C 143.976562 210.558594 144.671875 207.230469 145.957031 203.917969 C 145.957031 203.914062 145.960938 203.910156 145.960938 203.902344 C 146.039062 203.707031 146.117188 203.511719 146.195312 203.316406 C 147.160156 200.960938 148.609375 198.644531 150.144531 196.191406 C 151.957031 193.292969 154.011719 190.011719 155.476562 186.238281 C 156.613281 183.320312 157.273438 180.457031 157.496094 177.492188 C 158.007812 170.6875 156.160156 164.867188 154.371094 159.238281 C 153.019531 154.980469 151.851562 151.304688 151.875 147.730469 C 151.898438 144.089844 152.53125 140.722656 153.804688 137.445312 C 155.054688 134.222656 156.902344 131.140625 159.449219 128.019531 C 163.105469 123.542969 167.546875 120.171875 172.644531 118.003906 C 177.460938 115.953125 182.738281 115.011719 188.328125 115.203125 C 195.046875 115.429688 201.894531 117.324219 208.136719 120.671875 C 214.5 124.085938 220.003906 128.910156 224.050781 134.621094 C 229.578125 142.421875 232.828125 151.058594 233.710938 160.300781 C 234.125 164.660156 234 169.132812 233.339844 173.597656 C 232.6875 177.996094 231.511719 182.398438 229.847656 186.6875 C 227.679688 192.273438 224.703125 197.617188 221.003906 202.570312 C 217.265625 207.578125 212.859375 212.085938 207.90625 215.964844 C 198.648438 223.230469 188 228.707031 177.933594 231.386719 C 175.242188 232.101562 172.285156 232.457031 169.292969 232.457031 Z M 152.941406 206.621094 C 151.976562 209.105469 151.457031 211.519531 151.4375 213.609375 C 151.417969 215.300781 151.738281 216.71875 152.378906 217.816406 C 154.386719 221.269531 158.414062 223.03125 161.4375 223.90625 C 166.089844 225.246094 171.535156 225.335938 176.003906 224.148438 C 185.117188 221.722656 194.804688 216.722656 203.285156 210.074219 C 207.714844 206.597656 211.65625 202.566406 215.003906 198.085938 C 218.296875 193.679688 220.941406 188.929688 222.867188 183.976562 C 224.328125 180.207031 225.359375 176.34375 225.929688 172.5 C 226.503906 168.632812 226.613281 164.769531 226.253906 161.011719 C 225.496094 153.089844 222.699219 145.667969 217.9375 138.949219 C 214.558594 134.179688 209.941406 130.140625 204.59375 127.269531 C 199.359375 124.460938 193.648438 122.875 188.070312 122.6875 C 183.582031 122.535156 179.378906 123.277344 175.578125 124.894531 C 171.605469 126.585938 168.128906 129.230469 165.25 132.757812 C 163.207031 135.257812 161.746094 137.675781 160.785156 140.15625 C 159.847656 142.570312 159.382812 145.0625 159.363281 147.777344 C 159.347656 150.164062 160.351562 153.320312 161.511719 156.96875 C 163.328125 162.6875 165.585938 169.800781 164.964844 178.054688 C 164.683594 181.765625 163.863281 185.332031 162.457031 188.949219 C 160.738281 193.382812 158.484375 196.984375 156.496094 200.160156 C 155.132812 202.339844 153.847656 204.390625 153.128906 206.152344 C 153.066406 206.304688 153.003906 206.460938 152.941406 206.613281 C 152.941406 206.617188 152.941406 206.621094 152.941406 206.621094 Z M 157.292969 138.800781 L 157.296875 138.800781 Z M 157.292969 138.800781 " fill-opacity="1" fill-rule="evenodd"/><path fill="#a9a0f0" d="M 173.871094 218.554688 C 173.378906 218.554688 172.878906 218.457031 172.398438 218.25 L 160.074219 212.964844 C 158.171875 212.148438 157.292969 209.945312 158.105469 208.046875 C 158.921875 206.144531 161.125 205.265625 163.023438 206.078125 L 175.351562 211.367188 C 177.253906 212.179688 178.132812 214.382812 177.316406 216.285156 C 176.707031 217.703125 175.324219 218.554688 173.871094 218.554688 Z M 173.871094 218.554688 " fill-opacity="1" fill-rule="evenodd"/><path fill="#a9a0f0" d="M 196.433594 206.691406 C 195.941406 206.691406 195.4375 206.59375 194.957031 206.386719 L 168.882812 195.207031 C 166.980469 194.390625 166.101562 192.1875 166.914062 190.289062 C 167.730469 188.386719 169.933594 187.507812 171.832031 188.320312 L 197.910156 199.503906 C 199.8125 200.320312 200.691406 202.519531 199.875 204.421875 C 199.265625 205.839844 197.882812 206.691406 196.433594 206.691406 Z M 196.433594 206.691406 " fill-opacity="1" fill-rule="evenodd"/><path fill="#a9a0f0" d="M 209.304688 190.675781 C 208.8125 190.675781 208.3125 190.578125 207.832031 190.371094 L 171.589844 174.828125 C 169.6875 174.015625 168.808594 171.8125 169.621094 169.910156 C 170.4375 168.011719 172.640625 167.132812 174.539062 167.945312 L 210.785156 183.488281 C 212.683594 184.304688 213.5625 186.507812 212.75 188.40625 C 212.140625 189.824219 210.757812 190.675781 209.304688 190.675781 Z M 209.304688 190.675781 " fill-opacity="1" fill-rule="evenodd"/><path fill="#a9a0f0" d="M 217.128906 172.492188 C 216.636719 172.492188 216.136719 172.394531 215.65625 172.191406 L 166.90625 151.28125 C 165.003906 150.46875 164.125 148.265625 164.941406 146.367188 C 165.753906 144.464844 167.957031 143.585938 169.859375 144.398438 L 218.605469 165.308594 C 220.507812 166.121094 221.386719 168.324219 220.574219 170.222656 C 219.964844 171.644531 218.582031 172.492188 217.128906 172.492188 Z M 217.128906 172.492188 " fill-opacity="1" fill-rule="evenodd"/><path fill="#a9a0f0" d="M 209.269531 147.15625 C 208.777344 147.15625 208.277344 147.058594 207.796875 146.851562 L 184.328125 136.785156 C 182.429688 135.972656 181.550781 133.769531 182.363281 131.867188 C 183.179688 129.96875 185.382812 129.089844 187.28125 129.902344 L 210.75 139.96875 C 212.648438 140.78125 213.53125 142.984375 212.714844 144.886719 C 212.105469 146.304688 210.722656 147.15625 209.269531 147.15625 Z M 209.269531 147.15625 " fill-opacity="1" fill-rule="evenodd"/><path fill="#a9a0f0" d="M 169.285156 244.488281 C 164.792969 244.488281 160.257812 243.875 156.027344 242.65625 C 151.6875 241.402344 147.773438 239.5625 144.394531 237.1875 C 140.671875 234.570312 137.683594 231.359375 135.519531 227.644531 C 130.867188 219.664062 130.707031 209.40625 135.070312 198.757812 C 136.421875 195.453125 138.214844 192.585938 139.953125 189.8125 C 142.617188 185.554688 145.132812 181.535156 145.507812 176.585938 C 145.84375 172.105469 144.421875 167.625 142.914062 162.878906 C 141.390625 158.085938 139.816406 153.128906 139.851562 147.648438 C 139.917969 137.714844 143.28125 128.808594 150.136719 120.414062 C 159.640625 108.777344 173.351562 102.65625 188.738281 103.183594 C 197.292969 103.476562 205.964844 105.859375 213.824219 110.074219 C 221.816406 114.363281 228.746094 120.449219 233.859375 127.667969 C 239.457031 135.5625 243.167969 144.253906 244.886719 153.5 C 246.507812 162.222656 246.324219 171.207031 244.34375 180.203125 C 242.433594 188.878906 238.929688 197.226562 233.933594 205.011719 C 228.9375 212.792969 222.679688 219.660156 215.328125 225.425781 C 204.816406 233.675781 192.632812 239.917969 181.023438 243.007812 C 177.308594 243.996094 173.3125 244.488281 169.285156 244.488281 Z M 186.933594 110.640625 C 174.566406 110.640625 163.605469 115.757812 155.9375 125.152344 C 150.207031 132.167969 147.394531 139.542969 147.339844 147.699219 C 147.308594 151.992188 148.640625 156.175781 150.050781 160.609375 C 151.707031 165.828125 153.421875 171.222656 152.972656 177.148438 C 152.460938 183.941406 149.328125 188.945312 146.300781 193.785156 C 144.660156 196.40625 143.109375 198.882812 142 201.59375 C 139.996094 206.484375 137.332031 215.882812 141.988281 223.875 C 148.863281 235.671875 166.257812 239.1875 179.097656 235.769531 C 189.746094 232.933594 200.972656 227.167969 210.703125 219.535156 C 235.34375 200.207031 249.691406 162.960938 227.75 131.996094 C 218.792969 119.363281 203.746094 111.191406 188.480469 110.667969 C 187.960938 110.652344 187.445312 110.640625 186.933594 110.640625 Z M 186.933594 110.640625 " fill-opacity="1" fill-rule="evenodd"/></svg>