<svg xmlns="http://www.w3.org/2000/svg" xmlns:xlink="http://www.w3.org/1999/xlink" width="400" zoomAndPan="magnify" viewBox="0 0 300 299.999988" height="400" preserveAspectRatio="xMidYMid meet" version="1.0"><defs><clipPath id="c6c13c284f"><path d="M 30 57.75 L 270 57.75 L 270 242.25 L 30 242.25 Z M 30 57.75 " clip-rule="nonzero"/></clipPath></defs><path fill="currentColor" d="M 93.734375 100.714844 C 93.050781 100.714844 92.488281 100.078125 92.488281 99.296875 C 92.488281 98.515625 93.050781 97.875 93.734375 97.875 C 94.417969 97.875 94.980469 98.515625 94.980469 99.296875 C 94.980469 100.078125 94.421875 100.714844 93.734375 100.714844 Z M 93.734375 95.699219 C 91.847656 95.699219 90.316406 97.3125 90.316406 99.292969 C 90.316406 101.277344 91.847656 102.886719 93.734375 102.886719 C 95.621094 102.886719 97.15625 101.277344 97.15625 99.292969 C 97.15625 97.3125 95.621094 95.699219 93.734375 95.699219 " fill-opacity="1" fill-rule="nonzero"/><path fill="currentColor" d="M 158.410156 150.390625 C 158.414062 150.390625 158.417969 150.390625 158.425781 150.390625 C 158.734375 150.390625 159.03125 150.511719 159.261719 150.738281 C 159.519531 150.992188 159.664062 151.332031 159.667969 151.710938 C 159.675781 152.449219 159.125 153.058594 158.4375 153.066406 C 158.210938 153.042969 157.824219 152.945312 157.589844 152.71875 C 157.332031 152.460938 157.183594 152.117188 157.179688 151.742188 C 157.167969 151.007812 157.722656 150.398438 158.410156 150.390625 Z M 158.421875 155.242188 C 158.4375 155.242188 158.449219 155.242188 158.464844 155.242188 C 160.347656 155.222656 161.863281 153.625 161.847656 151.691406 C 161.832031 150.734375 161.457031 149.84375 160.78125 149.183594 C 160.125 148.546875 159.257812 148.195312 158.386719 148.21875 C 156.5 148.238281 154.984375 149.835938 155.003906 151.773438 C 155.015625 152.730469 155.394531 153.617188 156.070312 154.277344 C 156.707031 154.898438 157.542969 155.242188 158.421875 155.242188 " fill-opacity="1" fill-rule="nonzero"/><g clip-path="url(#c6c13c284f)"><path fill="currentColor" d="M 267.121094 209.65625 L 257.519531 209.953125 L 261.78125 201.292969 L 266.90625 200.917969 C 266.921875 200.917969 266.941406 200.917969 266.957031 200.917969 C 267.144531 200.917969 267.238281 200.984375 267.3125 201.046875 C 267.855469 201.542969 268 203.070312 268.058594 204.339844 C 268.132812 209.253906 267.3125 209.628906 267.121094 209.65625 Z M 255.519531 201.753906 L 259.769531 201.4375 L 255.554688 210.007812 L 251.722656 210.128906 Z M 249.164062 202.21875 L 253.546875 201.898438 L 249.789062 210.191406 L 245.050781 210.335938 Z M 122.882812 239.242188 C 122.757812 239.242188 122.636719 239.242188 122.507812 239.242188 C 98.820312 239.242188 76.519531 230.058594 59.691406 213.363281 C 42.769531 196.578125 33.402344 174.210938 33.300781 150.378906 C 33.203125 126.542969 42.398438 104.105469 59.183594 87.179688 C 75.964844 70.261719 98.332031 60.890625 122.164062 60.792969 C 122.285156 60.792969 122.40625 60.792969 122.527344 60.792969 C 171.558594 60.792969 211.546875 100.582031 211.746094 149.65625 C 211.789062 159.839844 210.066406 169.613281 206.949219 178.75 L 200.914062 180.039062 C 204.277344 170.980469 206.15625 161.203125 206.15625 150.988281 C 206.15625 104.800781 168.582031 67.222656 122.390625 67.222656 C 76.203125 67.222656 38.628906 104.796875 38.628906 150.988281 C 38.628906 197.179688 76.203125 234.753906 122.390625 234.753906 C 143.359375 234.753906 162.503906 226.964844 177.207031 214.183594 L 184.585938 213.953125 C 168.601562 229.488281 146.878906 239.140625 122.882812 239.242188 Z M 246.722656 180.210938 L 242.125 180.996094 L 245.324219 172.335938 L 249.554688 171.425781 Z M 260.992188 168.984375 C 261.046875 168.976562 261.09375 168.972656 261.136719 168.972656 C 261.253906 168.972656 261.320312 169.007812 261.375 169.046875 C 261.921875 169.453125 262.171875 170.976562 262.308594 172.195312 C 262.707031 177 261.9375 177.597656 261.671875 177.660156 L 254.335938 178.914062 L 257.617188 169.707031 Z M 248.65625 179.882812 L 251.519531 171.011719 L 255.621094 170.136719 L 252.371094 179.25 L 252.375 179.25 Z M 192.957031 204.59375 L 186.167969 205.09375 C 189.960938 200.632812 193.3125 195.792969 196.117188 190.605469 L 202.480469 189.519531 C 199.820312 194.882812 196.601562 199.910156 192.957031 204.59375 Z M 242.140625 202.730469 L 247.140625 202.371094 L 243.070312 210.398438 L 238.894531 210.527344 L 242.699219 203.015625 Z M 95.179688 214.976562 L 94.714844 215.003906 C 93.914062 215.0625 93.007812 215.125 92.765625 214.90625 C 92.675781 214.820312 92.613281 214.59375 92.605469 214.28125 C 92.589844 213.804688 92.683594 213.691406 92.683594 213.691406 C 92.792969 213.574219 93.496094 213.5625 93.960938 213.558594 C 94.277344 213.550781 94.617188 213.546875 94.996094 213.523438 L 240.84375 202.828125 L 236.910156 210.589844 Z M 171.25 186.375 C 178.84375 176.3125 183.171875 164.28125 183.671875 151.550781 C 190.210938 145.960938 194.597656 138.703125 194.503906 130.671875 C 194.40625 121.578125 191.261719 113.824219 185.417969 108.242188 C 179.269531 102.367188 170.351562 99.304688 159.964844 99.460938 C 159.660156 99.464844 159.378906 99.496094 159.082031 99.511719 C 150.257812 92.804688 139.636719 88.355469 128.046875 87.148438 C 130.277344 84.589844 130.515625 82.484375 130.484375 81.582031 C 130.421875 79.917969 129.535156 78.582031 128.226562 78.167969 C 127.542969 77.953125 126.863281 78.042969 126.238281 78.347656 C 126.160156 78.042969 126.101562 77.71875 125.976562 77.4375 C 125.277344 75.808594 123.890625 74.636719 122.265625 74.304688 C 120.769531 73.992188 119.105469 74.398438 117.691406 75.410156 C 116.71875 76.109375 115.988281 77 115.582031 77.992188 C 115.070312 79.238281 115.097656 80.644531 115.644531 81.660156 L 117.171875 80.832031 C 116.875 80.277344 116.882812 79.402344 117.191406 78.65625 C 117.546875 77.78125 118.207031 77.179688 118.699219 76.824219 C 119.722656 76.097656 120.898438 75.792969 121.910156 76.007812 C 122.984375 76.230469 123.902344 77.023438 124.378906 78.125 C 124.988281 79.5625 124.878906 81.574219 124.078125 83.378906 C 123.550781 84.570312 122.742188 85.683594 121.613281 86.8125 C 115.84375 86.855469 110.214844 87.6875 104.804688 89.167969 C 102.089844 88.738281 99.585938 88.28125 98.003906 87.96875 C 79.230469 87.96875 57.414062 102.230469 57.414062 120.617188 C 57.414062 126.425781 58.59375 131.613281 60.742188 136.074219 C 59.816406 140.378906 59.277344 144.792969 59.296875 149.296875 C 59.324219 155.75 60.398438 161.941406 62.257812 167.785156 C 56.277344 171.445312 52.464844 176.886719 52.464844 182.972656 C 52.464844 192.6875 62.035156 194.882812 73.117188 197.429688 C 75.246094 197.917969 77.472656 198.429688 79.742188 199.015625 C 81.835938 199.558594 83.890625 199.816406 85.910156 199.917969 C 87.691406 201.179688 89.527344 202.355469 91.441406 203.425781 L 90.375 203.652344 C 90.035156 203.71875 89.71875 203.769531 89.429688 203.8125 C 88.070312 204.027344 86.371094 204.292969 86.605469 206.675781 C 86.6875 207.507812 86.972656 208.089844 87.476562 208.460938 C 87.875 208.757812 88.335938 208.859375 88.847656 208.859375 C 89.425781 208.859375 90.070312 208.722656 90.773438 208.578125 L 99.335938 207.117188 C 103.457031 208.699219 107.78125 209.835938 112.261719 210.515625 L 94.871094 211.789062 C 94.527344 211.8125 94.214844 211.816406 93.917969 211.824219 C 92.902344 211.839844 92.023438 211.855469 91.417969 212.496094 C 91.019531 212.917969 90.835938 213.519531 90.855469 214.335938 C 90.882812 215.167969 91.121094 215.773438 91.585938 216.195312 C 92.117188 216.683594 92.808594 216.800781 93.605469 216.800781 C 93.988281 216.800781 94.394531 216.773438 94.816406 216.746094 L 174.390625 214.277344 C 160.222656 225.953125 142.125 233.019531 122.375 233.019531 C 77.148438 233.019531 40.351562 196.222656 40.351562 151 C 40.351562 105.769531 77.148438 68.972656 122.375 68.972656 C 167.601562 68.972656 204.402344 105.769531 204.402344 151 C 204.402344 161.390625 202.421875 171.320312 198.878906 180.480469 Z M 132.476562 160.359375 C 131.78125 160.902344 131.085938 161.441406 130.417969 162.023438 C 128.601562 163.601562 127.40625 165.121094 126.660156 166.8125 C 126.125 168.007812 125.875 169.253906 125.875 170.449219 C 125.488281 170.859375 125.046875 171.070312 124.636719 170.933594 C 124.039062 170.742188 123.636719 170.054688 123.601562 169.179688 C 123.515625 166.777344 126.011719 163.203125 132.980469 159.820312 L 132.902344 160.003906 C 132.761719 160.121094 132.621094 160.246094 132.476562 160.359375 Z M 132.628906 117.992188 L 128.546875 122.402344 C 127.800781 121.308594 127.121094 120.113281 126.546875 118.792969 L 131.261719 115.941406 L 130.136719 114.085938 L 125.746094 116.734375 C 125.15625 114.820312 124.832031 112.714844 124.964844 110.453125 L 140.550781 112.859375 L 133.847656 128.238281 C 132.796875 127.367188 131.3125 125.980469 129.859375 124.1875 L 134.226562 119.472656 Z M 165.285156 121.703125 C 164.273438 119.851562 162.949219 117.992188 161.203125 116.320312 C 157.25 112.53125 151.984375 110.464844 145.519531 110.160156 C 147.691406 107.285156 152.398438 102.601562 160.003906 102.503906 C 163.003906 102.449219 165.816406 102.710938 168.46875 103.210938 C 165.761719 107.886719 165.210938 115.558594 165.285156 121.703125 Z M 175.183594 120.289062 C 171.78125 123.816406 169.464844 127.011719 168.003906 129.3125 C 167.941406 128.980469 167.867188 128.640625 167.78125 128.285156 C 167.328125 122.683594 166.757812 109.453125 170.742188 103.699219 C 175.714844 104.976562 179.976562 107.242188 183.320312 110.441406 C 183.917969 111.011719 184.46875 111.613281 185.003906 112.234375 C 183.117188 113.253906 179.820312 115.496094 175.183594 120.289062 Z M 190.828125 135.554688 C 184.039062 129.382812 173.035156 131.414062 168.574219 132.597656 C 169.652344 130.652344 172.214844 126.5 176.746094 121.800781 C 181.609375 116.769531 184.828125 114.753906 186.351562 113.980469 C 189.621094 118.550781 191.390625 124.238281 191.464844 130.703125 C 191.484375 132.359375 191.230469 133.96875 190.828125 135.554688 Z M 166.207031 135.015625 C 171.199219 142.496094 167.609375 154.480469 166.535156 157.613281 C 162.535156 158.9375 158.433594 159.710938 154.53125 159.765625 C 153.226562 159.527344 143.269531 157.730469 137.316406 157.730469 C 140.304688 152.140625 149.425781 138.011719 166.207031 135.015625 Z M 169.128906 156.664062 C 170.527344 152.054688 172.730469 142.132812 168.65625 134.832031 C 172.535156 133.773438 184 131.386719 190.074219 137.890625 C 186.902344 146.101562 178.535156 152.925781 169.128906 156.664062 Z M 119.160156 134.464844 L 123.269531 129.980469 C 124.011719 131.132812 124.679688 132.394531 125.246094 133.78125 L 120.480469 136.679688 L 121.609375 138.535156 L 125.996094 135.863281 C 126.582031 137.878906 126.882812 140.074219 126.71875 142.441406 L 111.140625 139.757812 L 118.046875 123.867188 C 119.09375 124.792969 120.570312 126.257812 122.003906 128.144531 L 117.554688 132.996094 Z M 61.15625 115.578125 C 64.828125 119.105469 69.78125 120.132812 74.257812 120.132812 C 78.003906 120.132812 81.382812 119.433594 83.402344 118.898438 C 82.328125 120.867188 79.703125 125.1875 75.0625 130.046875 C 70.175781 135.15625 66.945312 137.199219 65.40625 137.992188 C 62.210938 133.296875 60.460938 127.410156 60.460938 120.613281 C 60.460938 118.894531 60.730469 117.21875 61.15625 115.578125 Z M 83.339844 116.664062 C 79.476562 117.703125 67.921875 120.0625 61.917969 113.210938 C 65.175781 104.726562 73.640625 97.75 83.109375 93.996094 C 81.660156 98.707031 79.292969 109.035156 83.339844 116.664062 Z M 86.539062 130.238281 C 87.570312 132.246094 88.941406 134.261719 90.789062 136.070312 C 94.683594 139.894531 99.859375 142.011719 106.207031 142.390625 C 104.011719 145.332031 99.203125 150.226562 91.597656 150.226562 C 88.59375 150.226562 85.78125 149.902344 83.132812 149.339844 C 85.90625 144.539062 86.546875 136.597656 86.539062 130.238281 Z M 84.117188 123.429688 C 84.507812 129.222656 84.917969 142.851562 80.902344 148.789062 C 75.027344 147.117188 70.210938 144.027344 66.734375 139.757812 C 68.628906 138.71875 71.949219 136.445312 76.632812 131.546875 C 80.066406 127.957031 82.40625 124.699219 83.902344 122.339844 C 83.960938 122.6875 84.03125 123.050781 84.117188 123.429688 Z M 114.949219 93.304688 C 111.949219 98.988281 102.667969 113.613281 85.785156 116.523438 C 80.835938 108.679688 84.601562 96.246094 85.710938 93.046875 C 89.710938 91.734375 93.816406 90.988281 97.710938 90.980469 C 99.011719 91.246094 108.992188 93.234375 114.949219 93.304688 Z M 118.71875 89.296875 C 118.425781 89.527344 118.144531 89.777344 117.859375 90.007812 L 117.179688 90.132812 C 115.652344 90.414062 112.734375 90.214844 109.554688 89.832031 C 112.808594 89.179688 116.140625 88.785156 119.523438 88.644531 C 119.253906 88.859375 118.988281 89.085938 118.71875 89.296875 Z M 125.671875 84.078125 C 126.21875 82.847656 126.476562 81.558594 126.492188 80.328125 C 126.875 79.902344 127.289062 79.699219 127.703125 79.828125 C 128.195312 79.980469 128.710938 80.601562 128.746094 81.644531 C 128.84375 84.152344 126.3125 87.84375 119.238281 91.285156 L 119.34375 91.03125 C 119.492188 90.914062 119.640625 90.785156 119.789062 90.667969 C 120.492188 90.113281 121.191406 89.566406 121.867188 88.96875 C 123.699219 87.363281 124.90625 85.808594 125.671875 84.078125 Z M 101.339844 195.582031 C 105.4375 192.40625 107.792969 187.808594 107.792969 182.96875 C 107.792969 171.980469 95.386719 163.042969 80.128906 163.042969 C 74.03125 163.042969 68.402344 164.488281 63.824219 166.910156 C 62.078125 161.332031 61.0625 155.433594 61.039062 149.289062 C 61.023438 145.605469 61.40625 141.992188 62.035156 138.445312 C 67.636719 147.769531 78.035156 153.265625 91.601562 153.265625 C 102.1875 153.265625 108.007812 145.433594 109.761719 142.605469 L 129.324219 145.980469 L 129.558594 144.445312 C 131.796875 129.773438 118.878906 120.558594 118.324219 120.171875 L 116.800781 119.109375 L 107.972656 139.410156 C 101.652344 139.339844 96.597656 137.496094 92.941406 133.914062 C 88.015625 129.09375 86.859375 122.3125 86.589844 119.507812 C 106.007812 116.042969 115.6875 98.84375 118.191406 93.675781 C 121.941406 92.042969 124.558594 90.375 126.375 88.800781 C 137.542969 89.691406 147.839844 93.65625 156.488281 99.800781 C 148.132812 101.308594 143.46875 107.554688 141.941406 109.996094 L 122.332031 106.96875 L 122.109375 108.488281 C 120.03125 122.761719 133.074219 131.527344 133.632812 131.894531 L 135.140625 132.886719 L 143.738281 113.164062 C 143.765625 113.164062 143.796875 113.164062 143.820312 113.164062 C 150.246094 113.164062 155.375 114.957031 159.082031 118.496094 C 163.832031 123.035156 165.042969 129.355469 165.351562 132.046875 C 145.976562 135.640625 136.476562 152.414062 134.035156 157.4375 C 122.59375 162.421875 121.816406 167.691406 121.867188 169.242188 C 121.929688 170.863281 122.808594 172.179688 124.113281 172.59375 C 124.386719 172.675781 124.65625 172.722656 124.925781 172.722656 C 125.347656 172.722656 125.765625 172.605469 126.160156 172.414062 C 126.242188 172.710938 126.304688 173.015625 126.429688 173.285156 C 127.148438 174.855469 128.546875 175.972656 130.179688 176.28125 C 130.488281 176.339844 130.796875 176.367188 131.117188 176.367188 C 132.335938 176.367188 133.609375 175.945312 134.726562 175.15625 C 135.691406 174.46875 136.414062 173.59375 136.816406 172.621094 C 137.316406 171.390625 137.273438 170.015625 136.703125 169.035156 L 135.199219 169.902344 C 135.496094 170.414062 135.5 171.246094 135.207031 171.960938 C 134.863281 172.800781 134.210938 173.390625 133.722656 173.738281 C 132.703125 174.457031 131.523438 174.765625 130.507812 174.566406 C 129.429688 174.367188 128.503906 173.613281 128.015625 172.554688 C 127.390625 171.191406 127.480469 169.261719 128.253906 167.519531 C 128.898438 166.070312 129.949219 164.742188 131.566406 163.335938 C 132.210938 162.773438 132.882812 162.25 133.550781 161.730469 C 133.828125 161.515625 134.097656 161.277344 134.367188 161.058594 L 135.082031 160.925781 C 138.675781 160.246094 149.949219 162.019531 154.28125 162.789062 C 163.792969 162.671875 174.039062 158.988281 181.816406 153.074219 C 181 165.539062 176.421875 177.261719 168.597656 186.945312 L 94.148438 202.847656 C 92.386719 201.945312 90.675781 200.96875 89.019531 199.902344 C 93.683594 199.625 97.960938 198.207031 101.339844 195.582031 Z M 80.128906 166.085938 C 93.707031 166.085938 104.746094 173.660156 104.746094 182.96875 C 104.746094 186.917969 102.875 190.546875 99.476562 193.179688 C 94.695312 196.886719 87.785156 197.941406 80.507812 196.0625 C 78.207031 195.472656 75.960938 194.957031 73.804688 194.457031 C 62.117188 191.773438 55.511719 189.917969 55.511719 182.964844 C 55.511719 173.660156 66.558594 166.085938 80.128906 166.085938 Z M 121.535156 209.542969 C 115.039062 209.542969 108.816406 208.417969 102.941406 206.5 L 158.261719 197.066406 C 147.828125 205.074219 135.164062 209.488281 121.785156 209.542969 C 121.699219 209.542969 121.621094 209.542969 121.535156 209.542969 Z M 139.851562 208.488281 C 147.792969 206.03125 155.160156 201.960938 161.609375 196.492188 L 193.945312 190.976562 C 191.058594 196.113281 187.628906 200.890625 183.746094 205.269531 Z M 238.839844 173.71875 L 243.316406 172.761719 L 240.152344 181.332031 L 236.039062 182.03125 Z M 236.867188 174.140625 L 234.09375 182.363281 L 90.886719 206.777344 L 90.425781 206.871094 C 89.710938 207.023438 88.734375 207.222656 88.515625 207.054688 C 88.457031 207.011719 88.378906 206.84375 88.347656 206.5 C 88.273438 205.75 88.273438 205.75 89.699219 205.523438 C 90.019531 205.476562 90.355469 205.417969 90.730469 205.347656 Z M 269.820312 204.949219 C 269.820312 204.902344 269.816406 204.863281 269.816406 204.824219 L 269.785156 203.941406 C 269.785156 203.75 269.777344 203.566406 269.773438 203.394531 L 269.746094 203.394531 C 269.636719 202 269.351562 200.554688 268.480469 199.761719 C 268.023438 199.34375 267.429688 199.160156 266.785156 199.183594 L 254.664062 200.074219 L 254.417969 199.960938 L 254.359375 200.097656 L 197.007812 204.300781 C 200.519531 199.496094 203.585938 194.34375 206.128906 188.898438 L 247.945312 181.765625 L 248.035156 181.800781 L 248.050781 181.75 L 261.976562 179.375 L 262.003906 179.375 C 264.210938 178.925781 264.300781 175.589844 264.109375 172.859375 L 264.125 172.859375 L 264.015625 171.707031 C 263.992188 171.507812 263.976562 171.320312 263.957031 171.132812 L 263.957031 171.128906 L 263.929688 171.128906 C 263.726562 169.753906 263.34375 168.347656 262.410156 167.660156 C 261.910156 167.285156 261.296875 167.15625 260.636719 167.289062 L 250.851562 169.378906 L 250.285156 169.195312 L 250.179688 169.523438 L 210.386719 178.023438 C 213.25 169.066406 214.832031 159.550781 214.792969 149.648438 C 214.582031 98.894531 173.234375 57.753906 122.527344 57.753906 L 122.148438 57.753906 C 97.503906 57.855469 74.371094 67.546875 57.019531 85.042969 C 39.664062 102.535156 30.164062 125.746094 30.257812 150.390625 C 30.359375 175.035156 40.046875 198.167969 57.546875 215.519531 C 74.953125 232.789062 98.007812 242.28125 122.511719 242.28125 L 122.898438 242.28125 C 148.875 242.175781 172.265625 231.226562 188.972656 213.816406 L 243.308594 212.128906 L 243.96875 212.464844 L 244.15625 212.101562 L 250.625 211.898438 L 250.867188 212.007812 L 250.925781 211.890625 L 267.191406 211.382812 L 267.21875 211.382812 C 269.5 211.246094 269.824219 207.902344 269.816406 205.132812 L 269.832031 205.132812 L 269.820312 204.949219 " fill-opacity="1" fill-rule="nonzero"/></g></svg>