<svg xmlns="http://www.w3.org/2000/svg" xmlns:xlink="http://www.w3.org/1999/xlink" width="400" zoomAndPan="magnify" viewBox="0 0 300 299.999988" height="400" preserveAspectRatio="xMidYMid meet" version="1.0"><defs><clipPath id="e8a1c4e578"><path d="M 35 52 L 270 52 L 270 248.851562 L 35 248.851562 Z M 35 52 " clip-rule="nonzero"/></clipPath></defs><path fill="currentColor" d="M 161.109375 106.765625 C 161.464844 106.15625 162.085938 105.808594 162.714844 105.808594 C 163 105.808594 163.28125 105.882812 163.53125 106.03125 C 163.910156 106.25 164.179688 106.609375 164.296875 107.046875 C 164.425781 107.53125 164.347656 108.042969 164.089844 108.492188 L 164.085938 108.496094 C 163.828125 108.9375 163.433594 109.25 162.957031 109.378906 C 162.519531 109.5 162.058594 109.457031 161.660156 109.226562 C 161.28125 109.007812 161.007812 108.640625 160.898438 108.207031 C 160.769531 107.722656 160.84375 107.210938 161.109375 106.765625 Z M 160.144531 111.824219 C 160.867188 112.246094 161.660156 112.457031 162.480469 112.457031 C 162.914062 112.457031 163.351562 112.402344 163.785156 112.277344 C 165.003906 111.929688 166.035156 111.128906 166.683594 110.011719 C 167.355469 108.871094 167.535156 107.542969 167.203125 106.285156 C 166.890625 105.070312 166.117188 104.058594 165.050781 103.433594 C 162.796875 102.113281 159.859375 102.929688 158.515625 105.242188 C 157.847656 106.386719 157.660156 107.710938 157.992188 108.96875 C 158.308594 110.1875 159.070312 111.203125 160.144531 111.824219 " fill-opacity="1" fill-rule="nonzero"/><path fill="currentColor" d="M 141.980469 147.75 C 141.980469 147.75 140.574219 145.472656 140.574219 142.664062 C 140.574219 139.851562 141.980469 137.574219 141.980469 137.574219 C 141.980469 137.574219 143.390625 139.851562 143.390625 142.664062 C 143.390625 145.472656 141.980469 147.75 141.980469 147.75 Z M 145.796875 142.664062 C 145.796875 139.265625 144.207031 136.605469 144.027344 136.308594 L 141.980469 133.003906 L 139.933594 136.308594 C 139.753906 136.605469 138.164062 139.265625 138.164062 142.664062 C 138.164062 146.058594 139.753906 148.722656 139.933594 149.015625 L 141.980469 152.320312 L 144.027344 149.015625 C 144.203125 148.722656 145.796875 146.058594 145.796875 142.664062 " fill-opacity="1" fill-rule="nonzero"/><path fill="currentColor" d="M 135.957031 162.511719 C 133.96875 164.496094 131.363281 165.113281 131.363281 165.113281 C 131.363281 165.113281 131.976562 162.503906 133.964844 160.519531 C 135.953125 158.53125 138.554688 157.917969 138.554688 157.917969 C 138.554688 157.917969 137.941406 160.523438 135.957031 162.511719 Z M 132.257812 158.8125 C 129.855469 161.21875 129.097656 164.222656 129.015625 164.554688 L 128.125 168.339844 L 131.910156 167.449219 C 132.246094 167.367188 135.257812 166.609375 137.652344 164.203125 C 140.054688 161.804688 140.8125 158.800781 140.894531 158.464844 L 141.789062 154.679688 L 138 155.574219 C 137.667969 155.652344 134.660156 156.414062 132.257812 158.8125 " fill-opacity="1" fill-rule="nonzero"/><path fill="currentColor" d="M 145.40625 157.914062 C 145.40625 157.914062 148.011719 158.527344 149.996094 160.515625 C 151.984375 162.5 152.601562 165.109375 152.601562 165.109375 C 152.601562 165.109375 149.992188 164.492188 148.007812 162.503906 C 146.019531 160.523438 145.40625 157.914062 145.40625 157.914062 Z M 155.832031 168.339844 L 154.941406 164.554688 C 154.863281 164.222656 154.101562 161.210938 151.699219 158.8125 C 149.296875 156.414062 146.292969 155.652344 145.957031 155.574219 L 142.171875 154.679688 L 143.0625 158.464844 C 143.144531 158.800781 143.90625 161.808594 146.304688 164.203125 C 148.707031 166.609375 151.714844 167.367188 152.050781 167.449219 L 155.832031 168.339844 " fill-opacity="1" fill-rule="nonzero"/><path fill="currentColor" d="M 127.984375 147.816406 C 127.984375 147.816406 128.457031 147.746094 129.1875 147.746094 C 130.203125 147.746094 131.722656 147.878906 133.210938 148.519531 C 135.800781 149.621094 137.335938 151.8125 137.335938 151.8125 C 137.335938 151.8125 136.867188 151.882812 136.132812 151.882812 C 135.121094 151.882812 133.601562 151.746094 132.109375 151.113281 C 129.523438 150.011719 127.984375 147.816406 127.984375 147.816406 Z M 136.140625 154.296875 C 137.097656 154.296875 137.707031 154.195312 137.707031 154.195312 L 141.5 153.585938 L 139.3125 150.4375 C 139.113281 150.15625 137.285156 147.648438 134.160156 146.308594 C 132.292969 145.515625 130.429688 145.34375 129.191406 145.34375 C 128.234375 145.34375 127.628906 145.4375 127.628906 145.4375 L 123.828125 146.050781 L 126.019531 149.203125 C 126.21875 149.480469 128.042969 151.992188 131.164062 153.324219 C 133.035156 154.125 134.902344 154.296875 136.140625 154.296875 " fill-opacity="1" fill-rule="nonzero"/><path fill="currentColor" d="M 150.738281 148.523438 C 152.234375 147.878906 153.753906 147.75 154.761719 147.75 C 155.5 147.75 155.96875 147.824219 155.96875 147.824219 C 155.96875 147.824219 154.429688 150.011719 151.847656 151.117188 C 150.351562 151.753906 148.828125 151.886719 147.820312 151.886719 C 147.085938 151.886719 146.617188 151.816406 146.617188 151.816406 C 146.617188 151.816406 148.15625 149.625 150.738281 148.523438 Z M 142.433594 153.582031 L 146.253906 154.195312 C 146.253906 154.195312 146.863281 154.296875 147.820312 154.296875 C 149.058594 154.296875 150.917969 154.125 152.789062 153.324219 C 155.914062 151.996094 157.738281 149.484375 157.9375 149.203125 L 160.148438 146.058594 L 156.332031 145.4375 C 156.332031 145.4375 155.714844 145.34375 154.761719 145.34375 C 153.527344 145.34375 151.667969 145.515625 149.792969 146.308594 C 146.667969 147.644531 144.847656 150.152344 144.648438 150.4375 L 142.433594 153.582031 " fill-opacity="1" fill-rule="nonzero"/><g clip-path="url(#e8a1c4e578)"><path fill="currentColor" d="M 157.03125 235.363281 C 102.21875 235.363281 56.773438 208.375 49.367188 173.429688 C 60.890625 181.953125 88.085938 183.476562 104.21875 184.371094 C 105.878906 184.457031 107.386719 184.546875 108.703125 184.628906 C 126.5625 185.75 144.980469 186.648438 163.589844 186.648438 C 185.101562 186.648438 206.871094 185.453125 228.308594 182.027344 L 227.929688 179.652344 C 188.175781 186 147.203125 184.640625 108.851562 182.226562 C 107.53125 182.140625 106.011719 182.054688 104.351562 181.96875 C 88.472656 181.089844 57.570312 179.382812 48.738281 169.785156 C 48.519531 168.140625 48.351562 166.484375 48.304688 164.808594 C 53.71875 167.226562 61.617188 169.335938 71.089844 171.121094 C 92.847656 175.949219 125.003906 178.433594 156.953125 178.433594 C 188.484375 178.433594 220.230469 176.019531 241.96875 171.316406 C 251.890625 169.484375 260.140625 167.308594 265.753906 164.808594 C 264.605469 203.847656 216.273438 235.363281 157.03125 235.363281 Z M 208.582031 234.699219 C 207.773438 237.828125 187.453125 244.921875 156.953125 244.921875 C 126.433594 244.921875 106.105469 237.820312 105.308594 234.816406 C 105.3125 234.808594 105.792969 233.804688 109.3125 232.484375 C 123.808594 237.042969 139.96875 239.613281 157.027344 239.613281 C 174.046875 239.613281 190.175781 237.054688 204.652344 232.511719 C 207.953125 233.75 208.539062 234.699219 208.582031 234.699219 Z M 53.78125 151.261719 C 57.144531 154.582031 60.613281 157.308594 63.871094 159.085938 C 74.742188 165.019531 87.367188 166.417969 99.507812 164.558594 C 105.207031 163.683594 110.699219 161.546875 116.167969 163.828125 C 117.679688 167.175781 119.832031 170.164062 122.464844 172.664062 C 104.824219 171.65625 89.0625 169.941406 76.394531 167.816406 C 58.371094 164.300781 48.429688 159.914062 48.429688 156.246094 C 48.429688 154.671875 50.289062 152.96875 53.78125 151.261719 Z M 49.738281 99.167969 C 62.976562 91.570312 83.304688 95.480469 94.113281 105.765625 C 103.070312 114.28125 106.453125 126.796875 109.695312 138.296875 C 110.699219 141.871094 112.164062 145.21875 113.957031 148.386719 C 113.777344 149.671875 113.65625 150.972656 113.65625 152.304688 C 113.65625 152.589844 113.691406 152.859375 113.699219 153.136719 L 93.753906 139.046875 L 79.207031 103.53125 L 76.976562 104.441406 L 90.09375 136.460938 L 68.515625 121.222656 L 62.808594 104.382812 L 60.527344 105.15625 L 65.175781 118.871094 L 48.300781 106.953125 L 46.914062 108.917969 L 91.789062 140.601562 L 91.800781 140.636719 L 91.824219 140.628906 L 113.964844 156.265625 C 114.050781 156.84375 114.148438 157.417969 114.269531 157.984375 C 113.011719 157.660156 111.582031 157.640625 109.421875 157.984375 C 102.785156 159.050781 96.632812 161.054688 89.785156 161.09375 C 74.179688 161.183594 59.917969 154.441406 51.003906 141.472656 C 42.734375 129.445312 33.140625 108.6875 49.738281 99.167969 Z M 62.105469 87.082031 L 65.191406 86.679688 L 63.691406 83.957031 C 59.496094 76.335938 59.058594 69.234375 62.460938 63.953125 C 65.542969 59.175781 71.542969 56.40625 77.714844 56.875 C 84.132812 57.375 89.382812 61.226562 92.136719 67.449219 L 93.257812 69.972656 L 95.40625 68.242188 C 101.363281 63.453125 111.714844 64.371094 118.027344 70.261719 C 121.566406 73.5625 123.6875 78.578125 123.566406 83.355469 C 123.476562 86.78125 122.242188 89.664062 120.082031 91.476562 L 109.386719 100.46875 L 110.296875 100.085938 C 108.167969 102.089844 106.304688 104.367188 104.792969 106.953125 C 104.175781 108.019531 103.617188 109.089844 103.101562 110.164062 C 102.472656 109.207031 101.851562 108.246094 101.144531 107.328125 C 90.808594 93.9375 67.3125 86.375 50.847656 93.578125 C 53.664062 90.164062 57.949219 87.628906 62.105469 87.082031 Z M 153.402344 94.152344 C 148.46875 98.632812 138.796875 108.84375 138.433594 120.398438 C 133.074219 118.894531 117.773438 113.574219 115.191406 101.53125 C 124.796875 94.050781 139.578125 91.902344 153.402344 94.152344 Z M 199.527344 115.847656 C 200.738281 115.699219 201.945312 115.550781 203.15625 115.335938 C 206.425781 114.75 208.921875 113.796875 211.019531 112.328125 C 212.503906 111.285156 213.683594 109.984375 214.535156 108.574219 C 215.285156 108.355469 215.945312 108.425781 216.347656 108.882812 C 216.929688 109.53125 216.921875 110.636719 216.328125 111.699219 C 214.722656 114.605469 209.21875 117.070312 198.542969 116.132812 L 198.765625 115.972656 C 199.015625 115.925781 199.273438 115.882812 199.527344 115.847656 Z M 165.882812 171.863281 C 165.980469 172.4375 166.179688 172.988281 166.320312 173.554688 C 164.203125 173.582031 162.070312 173.605469 159.921875 173.613281 C 162.097656 171.757812 163.996094 169.597656 165.527344 167.175781 C 165.523438 168.75 165.609375 170.316406 165.882812 171.863281 Z M 182.53125 161.988281 C 185.242188 158.390625 189.121094 156.007812 193.445312 155.28125 C 194.355469 155.128906 195.257812 155.058594 196.148438 155.058594 C 199.496094 155.058594 202.695312 156.109375 205.371094 158.125 C 209.527344 161.253906 211.558594 166.148438 211.410156 171.167969 C 201.476562 172.113281 190.636719 172.824219 179.160156 173.238281 C 178.953125 169.382812 179.972656 165.390625 182.53125 161.988281 Z M 230.3125 168.949219 C 225.191406 169.675781 219.679688 170.34375 213.832031 170.929688 C 213.90625 165.269531 211.53125 159.753906 206.816406 156.199219 C 202.894531 153.25 198.003906 152.078125 193.050781 152.910156 C 188.113281 153.738281 183.691406 156.445312 180.605469 160.542969 C 177.703125 164.394531 176.542969 168.925781 176.757812 173.308594 C 174.710938 173.375 172.640625 173.429688 170.558594 173.476562 C 170.339844 172.710938 170.160156 171.925781 170.019531 171.144531 C 168.730469 163.746094 171.085938 155.804688 176.828125 148.179688 C 185.894531 136.140625 202.140625 126.5625 215.074219 126.5625 C 219.394531 126.5625 223.339844 127.625 226.527344 130.027344 C 236.050781 137.199219 235.984375 154.136719 230.3125 168.949219 Z M 157.167969 94.878906 C 162.847656 96.15625 168.261719 98.148438 172.9375 100.863281 C 174.316406 102.078125 184.859375 111.285156 191.921875 115.523438 C 184.414062 120.042969 163.5625 130.332031 141.476562 121.929688 C 140.875 109.496094 153.65625 97.832031 157.167969 94.878906 Z M 112.640625 103.773438 C 116.296875 115.917969 130.796875 121.339844 136.929688 123.113281 C 134.273438 124.65625 128.277344 127.761719 119.5625 130.109375 C 116.640625 130.894531 114.183594 131.414062 112.035156 131.789062 C 110.28125 125.90625 108.472656 120.09375 105.703125 114.652344 C 106.480469 112.785156 107.347656 110.921875 108.425781 109.078125 C 109.589844 107.09375 111.035156 105.363281 112.640625 103.773438 Z M 114.582031 140.101562 C 113.996094 138.308594 113.449219 136.5 112.910156 134.695312 C 115.074219 134.308594 117.523438 133.769531 120.34375 133.011719 C 120.851562 132.878906 121.289062 132.722656 121.769531 132.585938 C 119.027344 135.367188 116.882812 138.71875 115.480469 142.441406 C 115.144531 141.667969 114.835938 140.894531 114.582031 140.101562 Z M 116.660156 152.304688 C 116.660156 138.476562 127.90625 127.226562 141.738281 127.226562 C 155.570312 127.226562 166.820312 138.476562 166.820312 152.304688 C 166.820312 161.328125 162 169.203125 154.828125 173.621094 C 145.421875 173.585938 136.304688 173.34375 127.59375 172.929688 C 121.015625 168.402344 116.660156 160.878906 116.660156 152.304688 Z M 168.097656 75.078125 C 174.257812 67.957031 189.53125 68.792969 197.703125 74.476562 L 199.933594 76.03125 L 200.898438 73.480469 C 204.597656 63.671875 211.503906 57.628906 220.335938 56.464844 C 228.984375 55.339844 238.398438 59.257812 243.234375 66.007812 C 247.109375 71.417969 247.546875 77.839844 244.460938 84.09375 L 243.132812 86.796875 L 246.121094 87.144531 C 256.546875 88.363281 265.410156 97.777344 265.480469 107.710938 C 265.554688 117.578125 253.53125 125.992188 245.644531 126.253906 L 239.035156 126.476562 L 244.539062 130.140625 C 253.707031 136.242188 258.253906 142.414062 258.851562 149.550781 C 259.226562 154.015625 258.304688 158.589844 256.359375 162.84375 C 251.59375 164.632812 245.023438 166.386719 236.820312 167.957031 C 236.25 168.046875 235.667969 168.140625 235.082031 168.238281 C 240.535156 152.316406 239.765625 134.734375 229.074219 126.671875 C 214.222656 115.488281 187.003906 127.699219 173.476562 145.65625 C 172.046875 147.546875 170.835938 149.472656 169.785156 151.40625 C 169.492188 142.300781 164.863281 134.277344 157.875 129.355469 C 176.007812 129.796875 190.738281 121.363281 195.636719 118.183594 C 198.3125 118.527344 200.777344 118.742188 202.878906 118.742188 C 214.144531 118.742188 217.566406 114.433594 218.4375 112.855469 C 219.523438 110.890625 219.410156 108.707031 218.160156 107.289062 C 217.5 106.546875 216.59375 106.15625 215.597656 106.070312 C 215.710938 105.65625 215.859375 105.242188 215.902344 104.828125 C 216.164062 102.453125 215.300781 100.128906 213.589844 98.609375 C 212.023438 97.214844 209.757812 96.53125 207.394531 96.710938 C 205.75 96.835938 204.273438 97.359375 203.109375 98.230469 C 201.640625 99.324219 200.714844 100.988281 200.691406 102.566406 L 203.089844 102.601562 C 203.101562 101.78125 203.695312 100.796875 204.554688 100.152344 C 205.550781 99.398438 206.75 99.171875 207.574219 99.105469 C 209.296875 98.976562 210.910156 99.441406 211.988281 100.40625 C 213.121094 101.414062 213.6875 102.964844 213.511719 104.558594 C 213.277344 106.628906 211.796875 108.847656 209.636719 110.371094 C 207.84375 111.625 205.652344 112.457031 202.734375 112.976562 C 201.570312 113.183594 200.402344 113.328125 199.238281 113.472656 C 198.75 113.53125 198.265625 113.621094 197.78125 113.683594 L 196.84375 113.339844 C 192.109375 111.601562 179.992188 101.472656 175.390625 97.472656 C 171.511719 95.214844 167.214844 93.410156 162.730469 92.039062 C 162.601562 85.390625 164.34375 79.410156 168.097656 75.078125 Z M 265.476562 156.242188 C 265.476562 157.550781 264.195312 158.945312 261.765625 160.363281 C 262.5 157.941406 262.980469 155.484375 263.109375 153.007812 C 264.644531 154.121094 265.476562 155.210938 265.476562 156.242188 Z M 270.023438 163.394531 C 270.023438 161.304688 269.863281 159.238281 269.621094 157.195312 C 269.617188 157.199219 269.613281 157.210938 269.609375 157.214844 C 269.660156 156.890625 269.722656 156.570312 269.722656 156.246094 C 269.722656 153.234375 267.257812 150.523438 262.914062 148.117188 C 261.804688 139.746094 256.363281 133.761719 251 129.5625 C 259.914062 126.804688 269.804688 118.296875 269.722656 107.679688 C 269.640625 96.40625 260.738281 86.054688 249.367188 83.414062 C 251.898438 76.507812 250.980469 69.535156 246.6875 63.539062 C 240.878906 55.445312 230.085938 50.902344 219.785156 52.261719 C 210.070312 53.535156 202.375 59.667969 197.902344 69.617188 C 187.828125 64.070312 172.179688 63.878906 164.890625 72.304688 C 160.6875 77.160156 158.566406 83.683594 158.464844 90.886719 C 149.398438 88.753906 139.765625 88.410156 130.992188 90.136719 C 129.457031 89.882812 127.933594 89.722656 126.453125 89.820312 C 127.285156 87.925781 127.75 85.777344 127.808594 83.472656 C 127.960938 77.429688 125.390625 71.328125 120.925781 67.164062 C 113.722656 60.445312 102.582031 59.019531 94.882812 63.480469 C 91.261719 57.113281 85.246094 53.214844 78.042969 52.652344 C 70.386719 52.054688 62.8125 55.582031 58.894531 61.660156 C 56.585938 65.242188 53.691406 72.652344 58.695312 83.480469 C 54.046875 84.816406 49.648438 87.847656 46.757812 91.808594 C 45.324219 93.773438 44.394531 95.839844 43.910156 97.933594 C 42.6875 98.980469 41.527344 100.121094 40.472656 101.425781 C 29.984375 114.464844 38.972656 134.855469 50.855469 148.1875 C 46.601562 150.582031 44.1875 153.265625 44.1875 156.246094 C 44.1875 156.75 44.269531 157.246094 44.40625 157.738281 C 44.199219 159.613281 44.039062 161.484375 44.039062 163.398438 C 44.039062 164.128906 44.089844 164.859375 44.117188 165.59375 L 44.039062 165.601562 C 44.054688 165.710938 44.113281 165.804688 44.128906 165.910156 C 45.480469 193.925781 69.214844 218.113281 103.683594 230.589844 C 102.253906 231.613281 101.074219 232.96875 101.074219 234.742188 C 101.074219 243.242188 130.523438 249.164062 156.953125 249.164062 C 183.382812 249.164062 212.824219 243.238281 212.824219 234.742188 C 212.824219 232.984375 211.679688 231.644531 210.265625 230.625 C 245.824219 217.785156 270.023438 192.496094 270.023438 163.394531 " fill-opacity="1" fill-rule="nonzero"/></g></svg>