<svg xmlns="http://www.w3.org/2000/svg" xmlns:xlink="http://www.w3.org/1999/xlink" width="400" zoomAndPan="magnify" viewBox="0 0 300 299.999988" height="400" preserveAspectRatio="xMidYMid meet" version="1.0"><path fill="#a9a0f0" d="M 58 117.863281 C 55.789062 117.863281 54 119.652344 54 121.863281 L 54 133.863281 C 54 136.070312 55.789062 137.863281 58 137.863281 C 60.207031 137.863281 62 136.070312 62 133.863281 L 62 121.863281 C 62 119.652344 60.207031 117.863281 58 117.863281 Z M 58 117.863281 " fill-opacity="1" fill-rule="nonzero"/><path fill="#a9a0f0" d="M 74 117.863281 C 71.789062 117.863281 70 119.652344 70 121.863281 L 70 133.863281 C 70 136.070312 71.789062 137.863281 74 137.863281 C 76.207031 137.863281 78 136.070312 78 133.863281 L 78 121.863281 C 78 119.652344 76.207031 117.863281 74 117.863281 Z M 74 117.863281 " fill-opacity="1" fill-rule="nonzero"/><path fill="#a9a0f0" d="M 90 117.863281 C 87.792969 117.863281 86 119.652344 86 121.863281 L 86 133.863281 C 86 136.070312 87.792969 137.863281 90 137.863281 C 92.207031 137.863281 94 136.070312 94 133.863281 L 94 121.863281 C 94 119.652344 92.207031 117.863281 90 117.863281 Z M 90 117.863281 " fill-opacity="1" fill-rule="nonzero"/><path fill="#a9a0f0" d="M 106 117.863281 C 103.792969 117.863281 102 119.652344 102 121.863281 L 102 133.863281 C 102 136.070312 103.792969 137.863281 106 137.863281 C 108.210938 137.863281 110 136.070312 110 133.863281 L 110 121.863281 C 110 119.652344 108.210938 117.863281 106 117.863281 Z M 106 117.863281 " fill-opacity="1" fill-rule="nonzero"/><path fill="#a9a0f0" d="M 122 117.863281 C 119.792969 117.863281 118 119.652344 118 121.863281 L 118 133.863281 C 118 136.070312 119.792969 137.863281 122 137.863281 C 124.210938 137.863281 126 136.070312 126 133.863281 L 126 121.863281 C 126 119.652344 124.210938 117.863281 122 117.863281 Z M 122 117.863281 " fill-opacity="1" fill-rule="nonzero"/><path fill="#a9a0f0" d="M 138 117.863281 C 135.789062 117.863281 134 119.652344 134 121.863281 L 134 133.863281 C 134 136.070312 135.789062 137.863281 138 137.863281 C 140.210938 137.863281 142 136.070312 142 133.863281 L 142 121.863281 C 142 119.652344 140.210938 117.863281 138 117.863281 Z M 138 117.863281 " fill-opacity="1" fill-rule="nonzero"/><path fill="#a9a0f0" d="M 154 117.863281 C 151.789062 117.863281 150 119.652344 150 121.863281 L 150 133.863281 C 150 136.070312 151.789062 137.863281 154 137.863281 C 156.210938 137.863281 158 136.070312 158 133.863281 L 158 121.863281 C 158 119.652344 156.210938 117.863281 154 117.863281 Z M 154 117.863281 " fill-opacity="1" fill-rule="nonzero"/><path fill="#a9a0f0" d="M 170 117.863281 C 167.789062 117.863281 166 119.652344 166 121.863281 L 166 133.863281 C 166 136.070312 167.789062 137.863281 170 137.863281 C 172.207031 137.863281 174 136.070312 174 133.863281 L 174 121.863281 C 174 119.652344 172.207031 117.863281 170 117.863281 Z M 170 117.863281 " fill-opacity="1" fill-rule="nonzero"/><path fill="#a9a0f0" d="M 269.882812 229.539062 C 268.660156 213.933594 255.652344 201.890625 240 201.863281 L 179.601562 201.863281 L 180.632812 189.863281 L 186 189.863281 C 190.417969 189.863281 194 186.28125 194 181.863281 L 194 109.863281 C 193.984375 106.324219 191.644531 103.21875 188.25 102.222656 L 189.667969 85.863281 L 190 85.863281 C 194.417969 85.863281 198 82.28125 198 77.863281 L 198 65.863281 C 198 61.445312 194.417969 57.863281 190 57.863281 L 190 49.542969 C 189.976562 45.390625 186.796875 41.9375 182.664062 41.570312 L 46.667969 30.238281 C 44.4375 30.050781 42.230469 30.808594 40.585938 32.320312 C 38.9375 33.839844 38 35.972656 38 38.210938 L 38 57.863281 C 33.582031 57.863281 30 61.445312 30 65.863281 L 30 77.863281 C 30 82.28125 33.582031 85.863281 38 85.863281 L 38.332031 85.863281 L 39.753906 102.222656 C 36.355469 103.21875 34.015625 106.324219 34 109.863281 L 34 181.863281 C 34 186.28125 37.582031 189.863281 42 189.863281 L 47.371094 189.863281 L 53.371094 258.886719 C 53.871094 265.109375 59.082031 269.890625 65.320312 269.863281 L 240 269.863281 C 256.5625 269.84375 269.980469 256.425781 270 239.863281 L 270 231.863281 C 270 231.164062 269.941406 230.476562 269.894531 229.785156 Z M 261.5625 227.484375 C 242.511719 236.078125 221.496094 239.390625 200.726562 237.0625 C 187.683594 235.578125 174.789062 233.007812 162.171875 229.382812 C 160.445312 228.910156 158.730469 228.402344 157.023438 227.894531 C 152.523438 226.441406 147.925781 225.316406 143.261719 224.527344 C 136.335938 223.378906 129.257812 223.484375 122.367188 224.84375 C 117.664062 225.832031 113.027344 227.117188 108.484375 228.691406 C 107.480469 229.03125 106.484375 229.394531 105.488281 229.761719 C 102.929688 230.847656 100.242188 231.59375 97.488281 231.976562 C 93.128906 232.578125 88.839844 230.476562 86.644531 226.664062 C 89.046875 216.816406 97.863281 209.882812 108 209.863281 L 240 209.863281 C 250.457031 209.875 259.464844 217.238281 261.5625 227.484375 Z M 46 38.210938 L 182 49.542969 L 182 57.863281 L 46 57.863281 Z M 38 65.863281 L 190 65.863281 L 190 77.863281 L 38 77.863281 Z M 181.640625 85.863281 L 180.253906 101.863281 L 47.75 101.863281 L 46.359375 85.863281 Z M 42 109.863281 L 186 109.863281 L 186 181.863281 L 42 181.863281 Z M 65.320312 261.863281 C 63.25 261.84375 61.527344 260.257812 61.34375 258.195312 L 55.402344 189.863281 L 172.601562 189.863281 L 171.566406 201.863281 L 108 201.863281 C 91.4375 201.878906 78.015625 215.300781 78 231.863281 L 78 239.863281 C 78.003906 248.226562 81.511719 256.207031 87.671875 261.863281 Z M 240 261.863281 L 108 261.863281 C 95.855469 261.851562 86.015625 252.007812 86 239.863281 L 86 237.183594 C 89.667969 239.363281 93.933594 240.324219 98.183594 239.925781 C 101.648438 239.5 105.035156 238.597656 108.25 237.25 C 109.179688 236.90625 110.109375 236.566406 111.050781 236.253906 C 115.289062 234.78125 119.617188 233.578125 124.003906 232.652344 C 129.976562 231.484375 136.113281 231.40625 142.117188 232.414062 C 146.398438 233.152344 150.625 234.199219 154.761719 235.539062 C 156.527344 236.066406 158.300781 236.589844 160.078125 237.078125 C 173.121094 240.820312 186.449219 243.464844 199.933594 245 C 204.546875 245.46875 209.183594 245.703125 213.824219 245.707031 C 230.367188 245.804688 246.757812 242.539062 262 236.109375 L 262 239.863281 C 261.988281 252.007812 252.144531 261.851562 240 261.863281 Z M 240 261.863281 " fill-opacity="1" fill-rule="nonzero"/></svg>