<svg xmlns="http://www.w3.org/2000/svg" xmlns:xlink="http://www.w3.org/1999/xlink" width="400" zoomAndPan="magnify" viewBox="0 0 300 299.999988" height="400" preserveAspectRatio="xMidYMid meet" version="1.0"><defs><clipPath id="e2d974c192"><path d="M 29.398438 30 L 262.648438 30 L 262.648438 262.5 L 29.398438 262.5 Z M 29.398438 30 " clip-rule="nonzero"/></clipPath></defs><g clip-path="url(#e2d974c192)"><path fill="currentColor" d="M 259.695312 65.636719 L 250.105469 65.875 L 254.15625 59.234375 L 259.460938 58.921875 C 259.765625 58.890625 259.851562 58.984375 259.929688 59.058594 C 260.34375 59.441406 260.476562 60.503906 260.53125 61.433594 C 260.621094 65.234375 259.925781 65.613281 259.695312 65.636719 Z M 247.648438 59.617188 L 251.652344 59.378906 L 247.652344 65.933594 L 244.046875 66.023438 Z M 241.039062 60.011719 L 245.207031 59.761719 L 241.652344 66.085938 L 237.144531 66.195312 Z M 115.667969 73.503906 C 115.53125 73.546875 115.394531 73.566406 115.257812 73.566406 C 114.707031 73.566406 114.191406 73.21875 114.011719 72.664062 L 106.414062 49.554688 C 106.1875 48.867188 106.570312 48.121094 107.253906 47.898438 C 107.386719 47.851562 107.527344 47.832031 107.660156 47.832031 C 108.210938 47.832031 108.730469 48.183594 108.910156 48.738281 L 116.503906 71.847656 C 116.730469 72.53125 116.351562 73.277344 115.667969 73.503906 Z M 110.554688 75.828125 C 110.417969 75.871094 110.28125 75.894531 110.144531 75.894531 C 109.59375 75.894531 109.078125 75.542969 108.894531 74.992188 L 101.300781 51.882812 C 101.074219 51.191406 101.453125 50.445312 102.140625 50.222656 C 102.273438 50.179688 102.414062 50.160156 102.546875 50.160156 C 103.101562 50.160156 103.617188 50.511719 103.796875 51.066406 L 111.390625 74.171875 C 111.617188 74.859375 111.238281 75.605469 110.554688 75.828125 Z M 105.445312 77.34375 C 105.308594 77.386719 105.171875 77.410156 105.035156 77.410156 C 104.484375 77.410156 103.96875 77.058594 103.785156 76.507812 L 96.191406 53.394531 C 95.96875 52.707031 96.34375 51.960938 97.03125 51.738281 C 97.164062 51.695312 97.300781 51.675781 97.4375 51.675781 C 97.992188 51.675781 98.503906 52.027344 98.691406 52.582031 L 106.285156 75.6875 C 106.507812 76.371094 106.132812 77.121094 105.445312 77.34375 Z M 98.5 69.59375 L 98.28125 68.421875 L 98.941406 68.367188 L 99.34375 69.582031 Z M 96.945312 79.460938 C 96.859375 79.472656 96.78125 79.480469 96.699219 79.480469 C 96.082031 79.480469 95.527344 79.039062 95.410156 78.414062 L 91.1875 56.175781 L 91.175781 55.84375 C 91.160156 55.386719 91.050781 54.953125 90.882812 54.5625 L 90.871094 54.511719 C 90.738281 53.804688 91.207031 53.109375 91.917969 52.972656 C 92 52.960938 92.082031 52.953125 92.160156 52.953125 C 92.777344 52.953125 93.335938 53.394531 93.453125 54.019531 L 97.992188 77.917969 C 98.121094 78.636719 97.652344 79.324219 96.945312 79.460938 Z M 97.351562 63.519531 L 98.28125 66.351562 L 97.890625 66.390625 Z M 227.925781 36.539062 L 225.316406 42.777344 L 114.140625 58.050781 L 113.542969 56.226562 Z M 238.453125 40.972656 L 234.035156 41.578125 L 237.070312 34.960938 L 241.132812 34.265625 Z M 253.3125 32.171875 C 253.566406 32.125 253.691406 32.179688 253.773438 32.246094 C 254.207031 32.570312 254.425781 33.609375 254.554688 34.519531 C 254.957031 38.320312 254.28125 38.785156 254.035156 38.835938 L 246.71875 39.839844 L 249.847656 32.769531 Z M 240.796875 40.652344 L 243.519531 33.855469 L 247.414062 33.183594 L 244.320312 40.167969 Z M 227.683594 42.453125 L 230.332031 36.125 L 234.609375 35.386719 L 231.613281 41.910156 Z M 231.96875 60.542969 L 228.269531 66.417969 L 117.796875 69.171875 L 117.191406 67.324219 Z M 238.507812 60.160156 L 234.675781 66.261719 L 230.746094 66.359375 L 234.375 60.597656 L 234.09375 60.421875 Z M 80.957031 70.09375 L 80.460938 70.117188 C 79.746094 70.15625 78.644531 70.21875 78.40625 69.800781 C 78.402344 69.695312 78.40625 69.625 78.402344 69.601562 C 78.625 69.523438 79.230469 69.515625 79.6875 69.511719 C 80.011719 69.507812 80.371094 69.5 80.757812 69.484375 L 84.921875 69.289062 L 84.953125 70.0625 Z M 76.503906 63.226562 L 76.019531 63.304688 C 75.316406 63.421875 74.25 63.601562 73.972656 63.246094 C 73.957031 63.121094 73.960938 63.050781 73.949219 63.027344 C 74.152344 62.921875 74.785156 62.839844 75.25 62.78125 C 75.574219 62.742188 75.925781 62.699219 76.3125 62.632812 L 84.617188 61.203125 L 84.652344 62.105469 Z M 226.941406 145.621094 L 204.019531 133.414062 L 206.253906 122.617188 Z M 174.855469 256.519531 L 108.726562 160.261719 L 171.347656 160.261719 L 201.957031 125.433594 Z M 173.109375 258.53125 L 92.816406 258.53125 L 124.375 187.585938 Z M 64.621094 125.730469 L 93.511719 160.261719 L 105.597656 160.261719 L 122.664062 185.09375 L 91.410156 255.335938 Z M 39.695312 145.621094 L 60.285156 122.730469 L 62.503906 133.472656 Z M 94.714844 157.683594 L 64.804688 121.9375 L 201.601562 121.9375 L 170.1875 157.683594 Z M 262.625 62.011719 C 262.621094 61.875 262.617188 61.730469 262.609375 61.578125 L 262.574219 60.710938 L 262.574219 60.675781 L 262.546875 60.675781 C 262.433594 59.53125 262.15625 58.292969 261.324219 57.535156 C 260.800781 57.054688 260.117188 56.824219 259.351562 56.859375 L 246.4375 57.621094 L 246.414062 57.613281 L 246.410156 57.625 L 116.523438 65.304688 L 114.796875 60.050781 L 254.335938 40.867188 L 254.363281 40.863281 C 256.785156 40.472656 256.871094 37.34375 256.683594 35.046875 L 256.703125 35.046875 L 256.691406 34.929688 C 256.671875 34.773438 256.652344 34.609375 256.628906 34.4375 L 256.550781 33.835938 C 256.542969 33.753906 256.535156 33.679688 256.523438 33.605469 L 256.523438 33.597656 L 256.496094 33.601562 C 256.289062 32.480469 255.910156 31.273438 255.015625 30.59375 C 254.445312 30.171875 253.742188 30.003906 252.96875 30.132812 L 242.324219 31.964844 L 242.097656 31.875 L 242.035156 32.019531 L 112.890625 54.25 L 110.867188 48.089844 C 110.410156 46.703125 109.121094 45.773438 107.65625 45.773438 C 107.304688 45.773438 106.945312 45.832031 106.609375 45.941406 C 105.363281 46.347656 104.546875 47.433594 104.359375 48.652344 C 103.832031 48.308594 103.214844 48.097656 102.546875 48.097656 C 102.191406 48.097656 101.835938 48.15625 101.496094 48.265625 C 100.644531 48.546875 99.945312 49.144531 99.542969 49.945312 C 99.488281 50.054688 99.492188 50.171875 99.449219 50.277344 C 98.882812 49.859375 98.183594 49.609375 97.4375 49.609375 C 97.082031 49.609375 96.730469 49.667969 96.386719 49.777344 C 95.535156 50.058594 94.835938 50.65625 94.429688 51.460938 C 94.390625 51.546875 94.390625 51.640625 94.359375 51.726562 C 93.765625 51.207031 92.996094 50.894531 92.160156 50.894531 C 91.953125 50.894531 91.746094 50.914062 91.53125 50.953125 C 90.441406 51.160156 89.628906 51.898438 89.179688 52.824219 C 88.757812 52.628906 88.296875 52.503906 87.804688 52.503906 L 87.761719 52.503906 L 87.675781 52.507812 C 85.816406 52.582031 84.359375 54.203125 84.429688 56.113281 L 84.542969 59.125 L 75.976562 60.597656 C 75.621094 60.65625 75.292969 60.695312 74.992188 60.734375 C 73.578125 60.917969 71.640625 61.15625 71.929688 63.488281 C 72.007812 64.203125 72.300781 64.753906 72.78125 65.109375 C 73.234375 65.453125 73.773438 65.566406 74.378906 65.566406 C 74.980469 65.566406 75.648438 65.457031 76.359375 65.335938 L 84.730469 64.179688 L 84.84375 67.21875 L 80.640625 67.421875 C 80.285156 67.4375 79.957031 67.441406 79.652344 67.445312 C 78.519531 67.460938 77.546875 67.476562 76.890625 68.167969 C 76.496094 68.582031 76.3125 69.144531 76.34375 69.875 C 76.371094 70.585938 76.609375 71.160156 77.050781 71.5625 C 77.632812 72.09375 78.421875 72.214844 79.335938 72.214844 C 79.726562 72.214844 80.144531 72.195312 80.578125 72.167969 L 85.027344 72.128906 L 86.765625 118.296875 L 59.367188 118.296875 L 59.375 118.339844 L 30.171875 150.808594 C 29.585938 151.460938 29.554688 152.4375 30.097656 153.125 C 30.449219 153.578125 30.972656 153.816406 31.515625 153.816406 C 31.804688 153.816406 32.09375 153.746094 32.363281 153.605469 L 63.269531 137.148438 L 89.113281 262.164062 L 177.398438 262.164062 L 203.253906 137.09375 L 234.269531 153.609375 C 234.539062 153.75 234.828125 153.820312 235.117188 153.820312 C 235.652344 153.820312 236.183594 153.578125 236.535156 153.128906 C 237.070312 152.441406 237.042969 151.464844 236.457031 150.8125 L 207.214844 118.300781 L 207.121094 118.382812 L 207.140625 118.300781 L 88.832031 118.300781 L 86.484375 56.03125 C 86.457031 55.289062 87.027344 54.660156 87.746094 54.632812 C 87.761719 54.632812 87.777344 54.632812 87.796875 54.632812 C 88.277344 54.632812 88.6875 54.914062 88.917969 55.320312 L 89.125 56.414062 L 91.277344 113.488281 C 91.296875 113.488281 91.3125 113.480469 91.332031 113.480469 L 93.335938 113.480469 L 91.699219 69.945312 L 93.382812 78.800781 C 93.683594 80.390625 95.082031 81.542969 96.695312 81.542969 C 96.90625 81.542969 97.113281 81.523438 97.328125 81.480469 C 99.15625 81.132812 100.359375 79.363281 100.011719 77.539062 L 98.894531 71.664062 L 100.015625 71.640625 L 101.828125 77.148438 C 102.285156 78.535156 103.574219 79.464844 105.035156 79.464844 C 105.394531 79.464844 105.75 79.410156 106.085938 79.300781 C 106.941406 79.019531 107.640625 78.417969 108.042969 77.617188 C 108.097656 77.511719 108.09375 77.394531 108.136719 77.289062 C 108.703125 77.707031 109.402344 77.953125 110.144531 77.953125 C 110.503906 77.953125 110.859375 77.898438 111.195312 77.789062 C 112.441406 77.375 113.257812 76.292969 113.445312 75.078125 C 113.976562 75.417969 114.597656 75.628906 115.257812 75.628906 C 115.613281 75.628906 115.972656 75.570312 116.308594 75.464844 C 118.070312 74.886719 119.027344 72.988281 118.464844 71.230469 L 235.355469 68.300781 L 235.6875 68.515625 L 235.828125 68.289062 L 242.871094 68.117188 L 242.875 68.121094 L 242.875 68.117188 L 259.757812 67.695312 L 259.785156 67.695312 C 262.253906 67.574219 262.601562 64.457031 262.605469 62.140625 L 262.625 62.140625 L 262.625 62.011719 " fill-opacity="1" fill-rule="nonzero"/></g></svg>