<svg xmlns="http://www.w3.org/2000/svg" xmlns:xlink="http://www.w3.org/1999/xlink" width="400" zoomAndPan="magnify" viewBox="0 0 300 299.999988" height="400" preserveAspectRatio="xMidYMid meet" version="1.0"><defs><clipPath id="52d3ac8cb4"><path d="M 30 76 L 270 76 L 270 224 L 30 224 Z M 30 76 " clip-rule="nonzero"/></clipPath></defs><g clip-path="url(#52d3ac8cb4)"><path fill="currentColor" d="M 270.019531 154.476562 C 270.019531 147.746094 257.972656 142.875 247.699219 139.945312 C 247.457031 139.125 247.171875 138.320312 246.847656 137.527344 C 247.117188 137.433594 247.367188 137.300781 247.597656 137.128906 C 248.011719 136.800781 248.371094 136.425781 248.675781 135.996094 C 248.984375 135.570312 249.226562 135.109375 249.402344 134.613281 C 249.578125 134.117188 249.683594 133.605469 249.71875 133.082031 C 249.75 132.554688 249.710938 132.035156 249.597656 131.519531 C 249.0625 129.496094 247.105469 128.417969 245.066406 127.554688 L 245.015625 127.535156 C 243.378906 126.839844 241.6875 126.121094 240.980469 124.699219 C 240.816406 124.304688 240.765625 123.894531 240.828125 123.46875 C 240.890625 123.046875 241.058594 122.667969 241.328125 122.335938 C 241.449219 122.152344 241.613281 122.019531 241.820312 121.933594 C 242.023438 121.851562 242.234375 121.832031 242.453125 121.878906 C 242.6875 121.9375 242.925781 121.957031 243.167969 121.933594 C 243.410156 121.910156 243.640625 121.84375 243.859375 121.738281 C 244.078125 121.632812 244.269531 121.496094 244.441406 121.320312 C 244.609375 121.144531 244.742188 120.949219 244.84375 120.726562 C 245.433594 119.628906 245.40625 117.929688 244.34375 116.988281 C 242.789062 115.605469 240.574219 115.835938 238.613281 116.238281 C 236.761719 116.621094 235.132812 116.875 233.96875 116.0625 C 233.679688 115.804688 233.484375 115.492188 233.386719 115.121094 C 233.285156 114.746094 233.296875 114.378906 233.421875 114.015625 C 233.558594 113.59375 233.800781 113.378906 234.136719 113.378906 L 234.15625 113.378906 C 236.207031 113.429688 238.125 112.128906 239.15625 109.992188 C 240.183594 107.855469 240.003906 105.550781 238.6875 103.972656 C 238.15625 103.292969 237.492188 102.785156 236.695312 102.453125 C 235.898438 102.117188 235.070312 102 234.210938 102.097656 C 232.019531 102.355469 229.957031 104.015625 228.6875 106.550781 C 228.515625 106.886719 228.269531 107.160156 227.949219 107.367188 C 227.632812 107.578125 227.285156 107.695312 226.90625 107.71875 C 226.550781 107.757812 226.207031 107.707031 225.878906 107.5625 C 225.550781 107.421875 225.28125 107.207031 225.066406 106.921875 C 224.023438 105.507812 224.257812 103.488281 224.664062 101.515625 L 224.683594 101.425781 C 225.109375 99.367188 225.589844 97.03125 224.550781 95.003906 C 224.179688 94.347656 223.671875 93.824219 223.019531 93.441406 C 222.367188 93.058594 221.664062 92.863281 220.90625 92.859375 C 220.375 92.835938 219.878906 92.953125 219.414062 93.214844 C 218.953125 93.480469 218.597656 93.847656 218.347656 94.316406 C 218.191406 94.589844 218.007812 94.84375 217.800781 95.082031 C 217.59375 95.320312 217.367188 95.535156 217.121094 95.726562 C 216.871094 95.917969 216.605469 96.085938 216.328125 96.230469 C 216.046875 96.371094 215.753906 96.484375 215.453125 96.570312 C 215.148438 96.65625 214.839844 96.710938 214.527344 96.734375 C 214.214844 96.761719 213.902344 96.757812 213.589844 96.722656 C 213.277344 96.6875 212.96875 96.621094 212.667969 96.527344 C 212.371094 96.433594 212.082031 96.308594 211.804688 96.160156 C 211 95.667969 211.082031 94.65625 211.316406 93.050781 C 211.550781 91.4375 211.816406 89.605469 210.285156 88.515625 C 208.730469 87.410156 207.363281 87.03125 206.105469 87.351562 C 203.863281 87.925781 202.589844 90.546875 201.121094 93.582031 C 200.546875 94.761719 199.960938 95.972656 199.296875 97.097656 C 198.976562 96.371094 198.699219 95.628906 198.453125 94.875 C 197.835938 93.050781 197.253906 91.332031 195.527344 90.839844 C 195.203125 90.761719 194.871094 90.714844 194.539062 90.699219 C 194.203125 90.6875 193.871094 90.707031 193.539062 90.757812 C 193.210938 90.808594 192.886719 90.894531 192.574219 91.011719 C 192.261719 91.128906 191.960938 91.273438 191.675781 91.449219 C 191.390625 91.625 191.128906 91.828125 190.882812 92.058594 C 190.640625 92.289062 190.421875 92.539062 190.226562 92.8125 C 190.03125 93.085938 189.867188 93.375 189.730469 93.679688 C 189.59375 93.984375 189.488281 94.300781 189.417969 94.628906 C 189.355469 94.949219 189.105469 95.128906 188.671875 95.160156 C 188.316406 95.199219 187.984375 95.132812 187.671875 94.960938 C 187.359375 94.789062 187.121094 94.546875 186.964844 94.226562 C 186.585938 93.148438 187.023438 91.8125 188.308594 90.136719 L 188.582031 89.785156 C 189.59375 88.480469 190.738281 87.003906 190.769531 85.1875 C 190.773438 85.078125 190.75 84.972656 190.699219 84.871094 C 190.519531 84.5 190.261719 84.191406 189.929688 83.949219 C 189.59375 83.703125 189.222656 83.550781 188.8125 83.492188 C 188.121094 83.40625 187.441406 83.472656 186.777344 83.691406 C 186.117188 83.914062 185.53125 84.265625 185.027344 84.75 C 184.523438 85.269531 184.0625 85.824219 183.640625 86.414062 C 183.097656 87.261719 182.414062 87.96875 181.582031 88.535156 C 181.203125 88.710938 180.804688 88.78125 180.390625 88.738281 C 179.972656 88.695312 179.597656 88.546875 179.265625 88.292969 C 179.117188 88.210938 179.015625 88.085938 178.957031 87.929688 C 178.898438 87.769531 178.894531 87.613281 178.949219 87.453125 C 179.148438 86.753906 179.164062 86.050781 178.992188 85.34375 C 178.820312 84.636719 178.484375 84.019531 177.984375 83.496094 C 177.523438 82.933594 176.953125 82.523438 176.273438 82.261719 C 175.59375 82.003906 174.894531 81.933594 174.175781 82.046875 C 172.460938 82.371094 171.332031 83.914062 170.808594 84.808594 C 170.746094 84.917969 170.683594 85.03125 170.621094 85.148438 C 170.234375 84.417969 169.71875 83.800781 169.074219 83.289062 C 168.507812 82.871094 167.890625 82.554688 167.222656 82.335938 C 166.550781 82.117188 165.867188 82.007812 165.164062 82.011719 C 164.460938 82.011719 163.773438 82.125 163.105469 82.347656 C 162.441406 82.570312 161.824219 82.890625 161.261719 83.3125 C 160.996094 82.417969 160.609375 81.578125 160.101562 80.792969 C 159.59375 80.007812 158.984375 79.3125 158.277344 78.699219 C 157.570312 78.089844 156.792969 77.59375 155.941406 77.207031 C 155.089844 76.820312 154.203125 76.5625 153.277344 76.429688 C 152.355469 76.300781 151.429688 76.300781 150.503906 76.433594 C 149.582031 76.570312 148.695312 76.828125 147.84375 77.21875 C 146.996094 77.609375 146.21875 78.109375 145.511719 78.71875 C 144.804688 79.332031 144.199219 80.03125 143.695312 80.816406 C 142.769531 80.746094 141.855469 80.820312 140.953125 81.039062 C 140.050781 81.257812 139.207031 81.609375 138.414062 82.097656 C 137.625 82.582031 136.925781 83.179688 136.324219 83.882812 C 135.722656 84.589844 135.242188 85.371094 134.886719 86.230469 C 134.585938 87.066406 134.417969 87.929688 134.382812 88.816406 C 134.34375 89.703125 134.4375 90.578125 134.664062 91.4375 C 134.886719 92.296875 135.234375 93.101562 135.703125 93.855469 C 136.175781 94.609375 136.742188 95.28125 137.414062 95.863281 C 136.894531 96.34375 136.449219 96.886719 136.082031 97.492188 C 135.480469 95.761719 134.421875 94.382812 132.90625 93.355469 C 131.375 92.367188 129.78125 92.242188 128.425781 93.011719 C 127.992188 93.25 127.597656 93.546875 127.246094 93.894531 C 126.894531 94.246094 126.597656 94.632812 126.351562 95.066406 C 126.105469 95.496094 125.921875 95.953125 125.804688 96.433594 C 125.683594 96.914062 125.628906 97.402344 125.644531 97.898438 C 125.652344 98.359375 125.726562 98.8125 125.863281 99.253906 C 125.996094 99.695312 126.191406 100.109375 126.441406 100.496094 C 126.695312 100.882812 126.992188 101.230469 127.339844 101.535156 C 127.6875 101.839844 128.070312 102.089844 128.488281 102.289062 C 128.621094 102.363281 128.71875 102.46875 128.777344 102.613281 C 128.835938 102.753906 128.84375 102.902344 128.800781 103.046875 C 128.757812 103.378906 128.628906 103.671875 128.414062 103.925781 C 128.195312 104.179688 127.929688 104.355469 127.609375 104.449219 C 126.882812 104.582031 126.535156 104.277344 125.824219 103.570312 C 125.5 103.234375 125.152344 102.921875 124.785156 102.636719 C 124.585938 102.488281 124.386719 102.328125 124.183594 102.167969 C 123.050781 101.269531 121.765625 100.25 120.125 100.519531 C 118.761719 100.746094 117.804688 101.921875 117.621094 103.601562 C 117.535156 104.375 117.632812 105.128906 117.917969 105.851562 C 117.710938 105.890625 117.511719 105.933594 117.324219 105.976562 C 116.46875 106.164062 116.117188 106.210938 115.828125 105.925781 C 115.574219 105.652344 115.378906 105.339844 115.242188 104.992188 C 115.105469 104.648438 115.035156 104.285156 115.035156 103.914062 C 115.035156 103.539062 115.101562 103.179688 115.238281 102.832031 C 115.375 102.484375 115.570312 102.171875 115.820312 101.898438 C 116.484375 101.203125 116.941406 100.394531 117.191406 99.46875 C 117.441406 98.539062 117.457031 97.609375 117.234375 96.675781 C 117.101562 95.71875 116.734375 94.859375 116.132812 94.101562 C 115.535156 93.339844 114.785156 92.785156 113.882812 92.429688 C 112.984375 92.078125 112.054688 91.976562 111.101562 92.125 C 110.144531 92.273438 109.289062 92.65625 108.539062 93.265625 C 107.742188 93.800781 107.121094 94.492188 106.675781 95.339844 C 106.230469 96.191406 106.011719 97.09375 106.027344 98.054688 C 106.027344 98.257812 106.007812 98.464844 105.96875 98.664062 C 105.925781 98.867188 105.863281 99.0625 105.78125 99.25 C 105.699219 99.4375 105.597656 99.617188 105.476562 99.78125 C 105.355469 99.949219 105.21875 100.101562 105.066406 100.238281 C 104.914062 100.375 104.746094 100.496094 104.566406 100.597656 C 104.390625 100.699219 104.203125 100.78125 104.003906 100.84375 C 103.808594 100.90625 103.609375 100.945312 103.402344 100.964844 C 103.199219 100.984375 102.996094 100.980469 102.789062 100.957031 C 102.585938 100.933594 102.386719 100.886719 102.191406 100.820312 C 101.996094 100.753906 101.8125 100.667969 101.636719 100.5625 C 101.460938 100.457031 101.296875 100.332031 101.148438 100.191406 C 100.996094 100.050781 100.863281 99.894531 100.746094 99.722656 C 100.632812 99.554688 100.535156 99.375 100.457031 99.183594 C 100.378906 98.996094 100.320312 98.796875 100.285156 98.597656 C 100.246094 98.394531 100.234375 98.1875 100.238281 97.984375 C 100.246094 97.777344 100.277344 97.574219 100.324219 97.375 C 100.414062 97 100.460938 96.617188 100.464844 96.230469 C 100.472656 95.84375 100.433594 95.460938 100.355469 95.082031 C 100.277344 94.703125 100.15625 94.335938 99.996094 93.984375 C 99.835938 93.632812 99.640625 93.300781 99.410156 92.992188 C 99.175781 92.679688 98.914062 92.398438 98.621094 92.148438 C 98.324219 91.898438 98.007812 91.679688 97.667969 91.496094 C 97.324219 91.316406 96.96875 91.171875 96.59375 91.070312 C 96.222656 90.964844 95.839844 90.902344 95.453125 90.882812 L 95.449219 90.882812 C 93.4375 90.882812 92.800781 92.683594 92.289062 94.128906 C 91.949219 95.097656 91.625 96.015625 91.003906 96.484375 C 88.898438 96.585938 87.582031 95.121094 86.3125 93.699219 C 84.941406 92.167969 83.382812 90.425781 81.03125 91.863281 C 78.816406 93.214844 79.820312 95.316406 80.628906 97.003906 C 81.632812 99.101562 82.179688 100.507812 80.5 101.785156 C 76.324219 97.429688 73.011719 97.863281 71.753906 98.273438 C 71.347656 98.394531 70.96875 98.570312 70.613281 98.804688 C 70.257812 99.035156 69.941406 99.316406 69.667969 99.640625 C 69.394531 99.964844 69.171875 100.324219 69.003906 100.710938 C 68.835938 101.101562 68.726562 101.507812 68.675781 101.929688 C 68.53125 103.25 69.082031 104.851562 69.613281 106.394531 C 70.273438 108.316406 70.957031 110.300781 70.148438 111.269531 C 69.183594 112.421875 67.25 112.71875 66.050781 112.273438 C 65.726562 112.191406 65.460938 112.015625 65.253906 111.75 C 65.050781 111.480469 64.953125 111.179688 64.960938 110.839844 C 64.992188 108.425781 63.539062 106.050781 61.171875 104.648438 C 58.804688 103.246094 56.023438 103.113281 53.921875 104.300781 C 53.359375 104.601562 52.851562 104.964844 52.386719 105.398438 C 51.921875 105.832031 51.523438 106.316406 51.1875 106.855469 C 50.851562 107.394531 50.59375 107.964844 50.40625 108.570312 C 50.222656 109.179688 50.117188 109.796875 50.09375 110.433594 C 50.089844 110.957031 50.152344 111.476562 50.289062 111.988281 C 50.425781 112.496094 50.625 112.976562 50.890625 113.433594 C 51.15625 113.890625 51.480469 114.300781 51.855469 114.667969 C 52.234375 115.035156 52.652344 115.347656 53.113281 115.601562 C 53.585938 115.90625 53.972656 116.292969 54.273438 116.769531 C 54.570312 117.246094 54.753906 117.761719 54.824219 118.320312 C 54.972656 119.242188 54.8125 120.109375 54.34375 120.921875 C 53.421875 120.378906 52.4375 120.21875 51.390625 120.445312 C 49.371094 120.839844 47.269531 122.5625 46.160156 124.734375 C 45.683594 125.75 45.441406 126.820312 45.441406 127.945312 C 45.4375 129.066406 45.671875 130.136719 46.144531 131.15625 C 46.617188 132.230469 47.359375 133.066406 48.375 133.65625 C 47.140625 134.832031 46.023438 136.105469 45.019531 137.480469 C 43.847656 139.09375 42.609375 141.125 42.234375 143.398438 C 34.121094 146.785156 30 150.511719 30 154.476562 C 30 154.929688 30.054688 155.378906 30.15625 155.820312 L 30 155.832031 C 30.894531 168.445312 39.609375 181.433594 54.539062 192.402344 C 67.433594 201.875 83.667969 208.828125 98.191406 211.132812 C 97.925781 212.070312 97.019531 215.355469 96.902344 216.808594 L 96.855469 217.394531 L 97.425781 217.542969 C 112.75 221.585938 129.21875 223.605469 146.019531 223.605469 C 162.878906 223.59375 179.511719 221.625 195.910156 217.699219 L 196.511719 217.558594 L 195.828125 211.125 C 213.863281 208.027344 228.597656 203.066406 239.0625 196.492188 C 253.863281 187.195312 267.929688 168.609375 269.859375 155.835938 C 269.964844 155.390625 270.019531 154.9375 270.019531 154.476562 Z M 234 167.703125 C 236.753906 165.484375 238.472656 162.578125 238.730469 159.679688 C 238.84375 158.691406 238.75 157.722656 238.449219 156.777344 C 238.144531 155.828125 237.660156 154.988281 236.996094 154.25 C 233.726562 150.667969 226.929688 150.917969 221.839844 154.808594 C 218.894531 157.054688 217.054688 160.078125 216.78125 163.09375 C 216.667969 164.082031 216.761719 165.050781 217.066406 165.996094 C 217.371094 166.945312 217.855469 167.785156 218.523438 168.523438 C 219.128906 169.179688 219.832031 169.707031 220.632812 170.097656 C 204.476562 172.554688 185.101562 174.117188 164.695312 174.625 C 164.136719 174.636719 163.320312 173.746094 162.988281 172.375 C 162.851562 171.8125 162.527344 169.921875 164.089844 169.320312 C 165.140625 168.917969 166.304688 168.9375 167.539062 168.957031 C 168.511719 169.007812 169.476562 168.957031 170.4375 168.8125 C 171.28125 168.625 172.011719 168.226562 172.632812 167.628906 C 173.25 167.027344 173.667969 166.308594 173.882812 165.472656 C 174.007812 164.988281 173.980469 164.515625 173.804688 164.050781 C 173.625 163.582031 173.328125 163.210938 172.914062 162.9375 C 171.125 161.71875 170.757812 159.488281 171.015625 157.808594 C 171.042969 157.621094 171.082031 157.433594 171.128906 157.242188 C 171.480469 156.753906 171.695312 156.210938 171.773438 155.613281 C 172.347656 154.554688 173.203125 153.84375 174.351562 153.472656 C 176.417969 152.84375 178.386719 153.953125 179.535156 155.207031 C 180.6875 156.460938 181.632812 158.511719 180.828125 160.519531 C 180.222656 162.035156 180.710938 163.855469 182.070312 165.15625 C 183.429688 166.457031 185.269531 166.871094 186.753906 166.199219 C 188.238281 165.53125 189.15625 163.886719 189.082031 162.003906 C 189.011719 160.121094 187.972656 158.550781 186.4375 157.996094 C 186.027344 157.824219 185.6875 157.5625 185.425781 157.203125 C 185.160156 156.839844 185.007812 156.441406 184.96875 155.996094 C 184.859375 155.394531 184.90625 154.808594 185.109375 154.238281 C 185.3125 153.664062 185.640625 153.175781 186.101562 152.777344 C 187.976562 151.324219 190.816406 151.964844 192.53125 153.304688 C 193.070312 153.726562 193.140625 154.894531 193.203125 156.027344 C 193.285156 157.480469 193.371094 158.988281 194.460938 159.75 C 195.175781 160.25 196.167969 160.300781 197.488281 159.902344 C 197.53125 159.890625 197.574219 159.875 197.613281 159.851562 C 200.199219 158.496094 200.046875 156.300781 199.9375 154.699219 C 199.835938 153.257812 199.867188 152.679688 200.585938 152.332031 C 201.675781 151.804688 203.679688 152.859375 205.289062 153.703125 C 206.847656 154.523438 207.972656 155.117188 208.8125 154.722656 C 209.195312 154.535156 209.425781 154.230469 209.492188 153.808594 C 209.976562 151.515625 208.183594 150.03125 206.605469 148.722656 C 204.917969 147.324219 203.921875 146.378906 204.308594 145.042969 C 205.230469 141.859375 209.617188 140.53125 212.167969 140.429688 C 212.179688 140.4375 212.1875 140.445312 212.195312 140.453125 L 212.214844 140.425781 C 212.425781 140.421875 212.625 140.417969 212.804688 140.425781 C 213.449219 140.488281 214.039062 140.691406 214.582031 141.039062 C 215.128906 141.382812 215.5625 141.832031 215.890625 142.390625 C 216.507812 143.34375 216.894531 144.386719 217.050781 145.515625 C 217.207031 146.644531 217.113281 147.753906 216.777344 148.839844 C 216.347656 150.039062 216.828125 151.25 218.035156 151.996094 C 219.46875 152.882812 221.734375 152.980469 223.050781 151.609375 C 224.957031 149.621094 224.816406 146.644531 224.378906 143.722656 C 224.019531 141.324219 223.757812 138.625 225.269531 136.988281 C 226.046875 136.148438 227.589844 136.179688 228.546875 136.734375 C 228.835938 136.855469 229.050781 137.054688 229.1875 137.335938 C 229.328125 137.617188 229.355469 137.90625 229.273438 138.210938 C 229.179688 138.519531 229.121094 138.832031 229.09375 139.15625 C 229.066406 139.476562 229.074219 139.796875 229.109375 140.117188 C 229.148438 140.4375 229.21875 140.75 229.316406 141.054688 C 229.417969 141.359375 229.546875 141.652344 229.707031 141.933594 C 229.867188 142.214844 230.054688 142.472656 230.265625 142.714844 C 230.476562 142.957031 230.710938 143.175781 230.96875 143.371094 C 231.226562 143.566406 231.5 143.734375 231.789062 143.875 C 232.078125 144.015625 232.378906 144.125 232.691406 144.203125 C 233.003906 144.28125 233.320312 144.328125 233.644531 144.34375 C 233.964844 144.359375 234.285156 144.339844 234.605469 144.292969 C 234.921875 144.242188 235.234375 144.160156 235.535156 144.050781 C 235.835938 143.9375 236.125 143.796875 236.398438 143.625 C 236.671875 143.457031 236.925781 143.261719 237.160156 143.039062 C 237.394531 142.816406 237.601562 142.574219 237.789062 142.3125 C 237.972656 142.046875 238.128906 141.769531 238.257812 141.472656 C 238.386719 141.175781 238.484375 140.871094 238.550781 140.558594 C 238.640625 140.183594 238.832031 139.875 239.121094 139.621094 C 239.414062 139.371094 239.75 139.226562 240.128906 139.191406 C 241.308594 138.980469 242.949219 139.453125 243.644531 140.605469 C 244.105469 141.367188 243.691406 142.507812 243.253906 143.71875 C 242.632812 145.417969 241.867188 147.535156 243.933594 148.851562 C 243.957031 148.863281 243.976562 148.875 244 148.886719 C 245.972656 149.867188 247.410156 148.558594 248.480469 147.449219 L 248.65625 147.460938 C 248.65625 147.394531 248.65625 147.332031 248.65625 147.265625 L 248.695312 147.226562 C 249.695312 146.179688 250.347656 145.554688 251.140625 145.851562 C 252.941406 146.523438 254.035156 147.3125 254.402344 148.199219 C 254.84375 149.273438 254.242188 150.585938 253.605469 151.96875 L 253.550781 152.082031 C 253.191406 152.695312 253.140625 153.332031 253.394531 153.992188 C 253.789062 154.761719 254.691406 154.9375 255.738281 155.136719 C 256.757812 155.335938 257.914062 155.558594 258.828125 156.328125 C 259.148438 156.597656 259.289062 157.195312 259.203125 157.921875 C 259.15625 158.371094 259.023438 158.796875 258.808594 159.199219 C 254.234375 162.296875 245.746094 165.230469 234.003906 167.703125 Z M 219.558594 167.574219 C 219.027344 166.980469 218.640625 166.304688 218.402344 165.542969 C 218.160156 164.785156 218.089844 164.007812 218.183594 163.21875 C 218.414062 160.632812 220.101562 157.90625 222.695312 155.925781 C 223.816406 155.042969 225.050781 154.359375 226.394531 153.878906 C 227.742188 153.394531 229.125 153.136719 230.554688 153.101562 C 232.726562 153.101562 234.675781 153.789062 235.957031 155.195312 C 236.488281 155.789062 236.875 156.464844 237.113281 157.226562 C 237.355469 157.984375 237.425781 158.761719 237.332031 159.550781 C 237.101562 162.136719 235.414062 164.863281 232.820312 166.84375 C 228.296875 170.304688 222.347656 170.632812 219.5625 167.574219 Z M 69.957031 168.492188 C 55.40625 165.722656 45.21875 162.28125 40.425781 158.640625 L 40.492188 158.613281 C 40.199219 157.8125 40.089844 156.988281 40.160156 156.136719 C 40.230469 155.289062 40.476562 154.492188 40.894531 153.75 C 41.261719 153.011719 41.765625 152.382812 42.402344 151.855469 C 43.039062 151.332031 43.753906 150.957031 44.546875 150.734375 C 44.566406 150.753906 44.585938 150.78125 44.605469 150.800781 L 44.738281 150.683594 C 45.566406 150.53125 46.394531 150.554688 47.214844 150.757812 C 48.03125 150.964844 48.773438 151.328125 49.433594 151.855469 C 50.128906 152.351562 50.6875 152.96875 51.109375 153.707031 C 51.535156 154.449219 51.78125 155.242188 51.855469 156.089844 C 51.863281 156.199219 51.894531 156.296875 51.945312 156.390625 C 51.996094 156.484375 52.066406 156.5625 52.15625 156.625 C 52.242188 156.6875 52.339844 156.726562 52.445312 156.742188 C 52.550781 156.757812 52.65625 156.753906 52.757812 156.722656 C 54.695312 156.144531 55.917969 155.324219 56.5 154.210938 C 57.273438 152.726562 56.726562 151.082031 56.246094 149.632812 C 55.886719 148.539062 55.542969 147.503906 55.800781 146.753906 C 56.003906 146.105469 56.296875 145.496094 56.671875 144.929688 C 57.046875 144.359375 57.496094 143.855469 58.011719 143.410156 C 58.53125 142.96875 59.097656 142.605469 59.714844 142.320312 C 60.335938 142.039062 60.980469 141.84375 61.65625 141.742188 C 61.742188 141.71875 61.820312 141.734375 61.890625 141.789062 C 62.425781 142.195312 62.667969 144.035156 62.867188 145.511719 C 63.160156 147.75 63.441406 149.863281 64.726562 150.550781 C 65.046875 150.703125 65.386719 150.773438 65.742188 150.753906 C 66.097656 150.738281 66.425781 150.640625 66.730469 150.457031 C 66.785156 150.429688 66.835938 150.394531 66.882812 150.351562 C 67.359375 149.9375 67.902344 149.378906 68.480469 148.785156 C 71.164062 146.03125 73.722656 143.679688 75.53125 145.175781 C 75.996094 145.554688 76.351562 146.015625 76.601562 146.5625 C 76.851562 147.105469 76.96875 147.679688 76.953125 148.277344 C 76.976562 150.382812 75.695312 152.859375 73.695312 154.585938 C 71.433594 156.535156 71.261719 158.734375 72.050781 159.953125 C 72.800781 161.097656 74.273438 161.367188 75.804688 160.640625 C 76.507812 160.304688 77.226562 159.445312 77.984375 158.535156 C 78.589844 157.808594 79.34375 156.902344 79.796875 156.71875 C 80.371094 156.484375 81.921875 156.375 82.707031 157 C 82.90625 157.171875 83.046875 157.386719 83.121094 157.644531 C 83.199219 157.898438 83.199219 158.152344 83.128906 158.410156 C 83.042969 158.972656 82.949219 159.515625 82.859375 160.042969 C 82.378906 162.824219 81.964844 165.230469 83.246094 166.914062 C 84.136719 168.09375 85.71875 168.761719 88.21875 169.015625 C 88.390625 169.035156 88.546875 168.996094 88.6875 168.898438 C 89.183594 168.566406 89.59375 168.152344 89.917969 167.648438 C 90.242188 167.148438 90.453125 166.605469 90.554688 166.015625 C 90.9375 163.953125 90.113281 161.261719 88.292969 158.625 C 88.109375 158.367188 88.015625 158.078125 88 157.765625 C 87.988281 157.449219 88.058594 157.15625 88.214844 156.882812 C 88.9375 155.371094 91.265625 153.921875 93.195312 153.78125 C 93.925781 153.769531 94.609375 153.941406 95.246094 154.304688 C 95.882812 154.667969 96.382812 155.164062 96.75 155.800781 C 97.058594 156.234375 97.226562 156.71875 97.257812 157.25 C 97.289062 157.78125 97.171875 158.28125 96.914062 158.746094 C 96.648438 159.179688 96.472656 159.644531 96.386719 160.140625 C 96.300781 160.640625 96.308594 161.140625 96.414062 161.632812 C 96.515625 162.128906 96.707031 162.589844 96.988281 163.011719 C 97.269531 163.433594 97.617188 163.789062 98.035156 164.074219 C 98.449219 164.363281 98.90625 164.566406 99.398438 164.679688 C 99.894531 164.792969 100.390625 164.808594 100.890625 164.730469 C 101.390625 164.65625 101.859375 164.488281 102.296875 164.230469 C 102.730469 163.972656 103.105469 163.644531 103.414062 163.242188 C 103.585938 163.035156 103.777344 162.851562 103.992188 162.6875 C 104.207031 162.523438 104.433594 162.386719 104.675781 162.273438 C 104.921875 162.160156 105.171875 162.074219 105.4375 162.015625 C 105.699219 161.957031 105.964844 161.929688 106.234375 161.933594 C 106.5 161.933594 106.765625 161.964844 107.027344 162.023438 C 107.289062 162.085938 107.542969 162.171875 107.785156 162.289062 C 108.027344 162.40625 108.253906 162.546875 108.464844 162.710938 C 108.675781 162.878906 108.867188 163.066406 109.035156 163.273438 C 109.207031 163.480469 109.351562 163.707031 109.472656 163.945312 C 109.589844 164.1875 109.683594 164.4375 109.75 164.699219 C 109.8125 164.960938 109.847656 165.222656 109.855469 165.492188 C 109.859375 165.761719 109.835938 166.027344 109.785156 166.289062 C 109.730469 166.554688 109.648438 166.808594 109.539062 167.054688 C 109.429688 167.300781 109.296875 167.53125 109.136719 167.746094 C 108.976562 167.960938 108.792969 168.15625 108.589844 168.332031 C 108.386719 168.507812 108.164062 168.660156 107.929688 168.785156 C 107.773438 168.859375 107.664062 168.976562 107.59375 169.132812 C 107.527344 169.289062 107.515625 169.449219 107.566406 169.617188 C 107.613281 169.78125 107.710938 169.910156 107.851562 170.003906 C 107.996094 170.097656 108.152344 170.132812 108.320312 170.113281 C 110.0625 169.902344 112.230469 169.636719 113.917969 170.496094 C 114.847656 171.003906 115.433594 171.769531 115.675781 172.800781 C 115.75 173.132812 115.75 173.464844 115.679688 173.796875 C 98.613281 172.769531 82.976562 170.972656 69.960938 168.492188 Z M 38.75 157.117188 C 37.808594 156.058594 37.316406 154.984375 37.316406 153.914062 C 37.316406 151.851562 39.164062 149.871094 42.800781 148.007812 C 43.035156 148.542969 43.316406 149.050781 43.640625 149.535156 C 42.777344 149.859375 42.003906 150.328125 41.316406 150.941406 C 40.628906 151.554688 40.074219 152.273438 39.65625 153.09375 C 38.976562 154.347656 38.675781 155.691406 38.75 157.117188 Z M 47.703125 144.859375 C 47.523438 144.304688 47.484375 143.738281 47.582031 143.164062 C 47.679688 142.589844 47.90625 142.070312 48.257812 141.605469 C 50.148438 139.367188 52.257812 137.359375 54.582031 135.578125 C 56.90625 133.792969 59.398438 132.28125 62.050781 131.039062 C 64.703125 129.792969 67.457031 128.847656 70.3125 128.199219 C 73.171875 127.550781 76.0625 127.214844 78.992188 127.195312 L 78.996094 127.195312 C 79.308594 127.195312 79.589844 127.289062 79.839844 127.480469 C 80.085938 127.671875 80.25 127.917969 80.332031 128.21875 C 80.414062 128.523438 80.394531 128.816406 80.273438 129.109375 C 80.152344 129.398438 79.957031 129.621094 79.6875 129.777344 C 69.441406 135.683594 58.777344 140.710938 47.703125 144.859375 Z M 93.417969 112.292969 C 93.183594 114.875 91.5 117.601562 88.910156 119.585938 C 84.382812 123.042969 78.429688 123.371094 75.644531 120.3125 C 75.113281 119.71875 74.726562 119.042969 74.488281 118.28125 C 74.25 117.523438 74.175781 116.746094 74.269531 115.957031 C 74.5 113.371094 76.1875 110.644531 78.78125 108.664062 C 79.902344 107.78125 81.136719 107.097656 82.484375 106.617188 C 83.828125 106.132812 85.214844 105.875 86.640625 105.839844 C 88.8125 105.839844 90.761719 106.527344 92.042969 107.933594 C 92.574219 108.527344 92.960938 109.203125 93.199219 109.964844 C 93.441406 110.722656 93.511719 111.5 93.417969 112.292969 Z M 83.054688 123.621094 C 83.023438 123.667969 82.988281 123.714844 82.960938 123.761719 C 82.882812 123.730469 82.800781 123.699219 82.722656 123.667969 C 82.832031 123.652344 82.941406 123.640625 83.054688 123.621094 Z M 85.175781 123.105469 C 86.84375 122.566406 88.371094 121.765625 89.761719 120.703125 C 90.976562 119.78125 92.023438 118.699219 92.898438 117.449219 C 98.980469 114.707031 106.4375 114.105469 112.414062 115.886719 C 122.828125 118.988281 132.792969 131.1875 131.652344 146.316406 C 130.546875 146.824219 129.464844 147.378906 128.40625 147.984375 C 129.480469 126.308594 115.742188 120.464844 111.429688 119.179688 C 101.683594 116.277344 92.269531 119.167969 87.296875 126.535156 C 86.382812 125.667969 85.367188 124.945312 84.25 124.363281 C 84.539062 123.9375 84.84375 123.515625 85.179688 123.109375 Z M 142.417969 109.578125 C 142.085938 110.359375 141.960938 111.171875 142.035156 112.015625 C 142.121094 112.910156 142.363281 113.765625 142.761719 114.574219 C 143.160156 115.382812 143.6875 116.097656 144.347656 116.710938 C 144.03125 117.117188 143.722656 117.53125 143.441406 117.972656 C 142.714844 119.152344 142.210938 120.421875 141.929688 121.78125 C 140.472656 122.867188 138.839844 124.09375 137.03125 125.613281 C 134.753906 125.707031 130.789062 121.574219 130.097656 118.859375 C 129.871094 117.980469 132.679688 115.117188 138.449219 110.355469 C 139.085938 109.828125 139.609375 109.398438 139.992188 109.066406 C 140.773438 109.363281 141.582031 109.535156 142.417969 109.578125 Z M 179.246094 111.023438 C 179.605469 109.992188 180.0625 109.003906 180.613281 108.058594 C 181.160156 107.113281 181.796875 106.230469 182.515625 105.40625 C 183.238281 104.585938 184.03125 103.839844 184.894531 103.167969 C 185.757812 102.5 186.679688 101.917969 187.65625 101.425781 C 188.632812 100.933594 189.644531 100.539062 190.699219 100.246094 C 191.75 99.949219 192.820312 99.753906 193.910156 99.664062 C 195 99.574219 196.085938 99.589844 197.175781 99.707031 C 198.261719 99.828125 199.328125 100.050781 200.371094 100.375 C 201.414062 100.699219 202.417969 101.121094 203.378906 101.640625 C 204.34375 102.160156 205.246094 102.765625 206.09375 103.457031 C 206.9375 104.148438 207.710938 104.917969 208.40625 105.757812 C 209.105469 106.597656 209.714844 107.5 210.242188 108.457031 C 210.765625 109.417969 211.195312 110.417969 211.523438 111.460938 C 211.855469 112.5 212.085938 113.566406 212.210938 114.652344 C 212.339844 115.738281 212.359375 116.824219 212.277344 117.914062 C 212.195312 119.003906 212.007812 120.078125 211.71875 121.132812 C 210.734375 121.515625 209.796875 121.992188 208.90625 122.558594 C 210.285156 117.183594 209.222656 112.203125 207.613281 109.132812 C 206.792969 107.570312 204.855469 106.007812 203.007812 106.09375 C 201.183594 106.179688 200.230469 108.550781 199.539062 110.863281 C 199.261719 111.808594 199.019531 112.613281 198.808594 113.328125 C 197.859375 116.550781 197.46875 117.867188 196.0625 121.679688 C 195.628906 121.480469 195.1875 121.292969 194.738281 121.121094 C 194.972656 120.320312 195.261719 119.539062 195.601562 118.777344 L 195.726562 118.488281 C 196.648438 116.394531 197.601562 114.226562 197.984375 111.898438 C 198.453125 109.046875 197.921875 106.441406 196.503906 104.5625 C 194.789062 102.296875 191.640625 101.382812 189.328125 102.484375 C 183.929688 105.050781 180.050781 111.574219 179.730469 118.359375 C 179.414062 118.105469 179.09375 117.847656 178.761719 117.609375 C 178.585938 117.476562 178.40625 117.355469 178.226562 117.226562 C 178.175781 115.492188 178.394531 113.789062 178.886719 112.121094 C 179.035156 111.765625 179.15625 111.398438 179.246094 111.023438 Z M 247.265625 146.683594 C 246.332031 147.617188 245.625 148.105469 244.65625 147.644531 C 243.679688 147 243.882812 146.09375 244.574219 144.199219 C 245.082031 142.800781 245.65625 141.214844 244.847656 139.878906 C 244.527344 139.355469 244.113281 138.929688 243.601562 138.589844 C 238.699219 128.488281 227.886719 122.789062 215.992188 124.054688 C 212.480469 124.429688 209.429688 127.285156 208.578125 131 C 208.425781 131.71875 208.359375 132.445312 208.378906 133.179688 C 208.398438 133.910156 208.5 134.632812 208.691406 135.34375 C 208.878906 136.050781 209.148438 136.726562 209.5 137.375 C 209.847656 138.019531 210.265625 138.613281 210.757812 139.160156 C 210.664062 139.175781 210.570312 139.191406 210.472656 139.207031 C 209.339844 138.558594 208.378906 137.710938 207.585938 136.671875 C 206.796875 135.632812 206.238281 134.480469 205.917969 133.210938 C 205.320312 130.816406 206.050781 127.679688 207.148438 125.78125 C 210.167969 122.683594 214.535156 121.078125 219.542969 121.308594 C 226.023438 121.609375 232.414062 123.988281 238.023438 128.191406 C 243.640625 132.402344 247.363281 139.914062 247.265625 146.683594 Z M 229.25 135.519531 C 227.796875 134.675781 225.527344 134.640625 224.238281 136.035156 C 222.304688 138.128906 222.578125 141.210938 222.988281 143.929688 C 223.375 146.496094 223.523438 149.082031 222.035156 150.636719 C 221.25 151.457031 219.714844 151.382812 218.773438 150.800781 C 218.324219 150.519531 217.839844 150.039062 218.101562 149.3125 C 218.515625 148.015625 218.632812 146.691406 218.449219 145.34375 C 218.265625 143.992188 217.804688 142.75 217.058594 141.609375 C 216 140.019531 214.515625 139.101562 212.875 139.019531 C 212.796875 139.015625 212.714844 139.015625 212.632812 139.011719 C 212.078125 138.554688 211.597656 138.03125 211.1875 137.441406 C 210.777344 136.851562 210.453125 136.21875 210.214844 135.539062 C 209.980469 134.859375 209.839844 134.160156 209.792969 133.445312 C 209.746094 132.726562 209.800781 132.015625 209.949219 131.3125 C 210.65625 128.222656 213.261719 125.757812 216.140625 125.449219 C 226.878906 124.304688 236.675781 129.125 241.609375 137.8125 C 241.03125 137.710938 240.457031 137.710938 239.882812 137.808594 C 239.554688 137.847656 239.242188 137.9375 238.941406 138.074219 C 238.644531 138.210938 238.371094 138.390625 238.128906 138.613281 C 237.886719 138.835938 237.683594 139.089844 237.519531 139.378906 C 237.355469 139.664062 237.238281 139.96875 237.171875 140.289062 C 237.074219 140.738281 236.890625 141.148438 236.625 141.523438 C 236.363281 141.894531 236.035156 142.203125 235.644531 142.441406 C 235.253906 142.683594 234.832031 142.835938 234.382812 142.90625 C 233.929688 142.976562 233.480469 142.957031 233.035156 142.84375 C 232.59375 142.730469 232.1875 142.535156 231.824219 142.261719 C 231.457031 141.984375 231.160156 141.648438 230.933594 141.25 C 230.703125 140.855469 230.5625 140.429688 230.507812 139.972656 C 230.453125 139.519531 230.484375 139.070312 230.613281 138.632812 C 230.996094 137.421875 230.472656 136.226562 229.25 135.519531 Z M 198.535156 154.792969 C 198.640625 156.324219 198.730469 157.644531 197.019531 158.574219 C 196.429688 158.746094 195.671875 158.878906 195.265625 158.59375 C 194.734375 158.226562 194.671875 157.066406 194.605469 155.945312 C 194.523438 154.5 194.4375 153.007812 193.394531 152.195312 C 191.207031 150.488281 187.703125 149.757812 185.238281 151.664062 C 184.648438 152.132812 184.210938 152.71875 183.921875 153.417969 C 181.167969 150.46875 180.273438 145.574219 182.070312 142.378906 C 184.105469 138.765625 188.46875 136.535156 192.933594 136.839844 C 196.992188 137.113281 201.023438 139.402344 203.761719 142.972656 C 203.402344 143.488281 203.136719 144.046875 202.957031 144.648438 C 202.285156 146.96875 204.105469 148.472656 205.707031 149.800781 C 207.355469 151.164062 208.355469 152.101562 208.132812 153.4375 C 207.363281 153.191406 206.636719 152.867188 205.941406 152.457031 C 203.953125 151.414062 201.703125 150.230469 199.976562 151.0625 C 198.332031 151.859375 198.441406 153.488281 198.535156 154.792969 Z M 180.570312 154.253906 C 178.914062 152.457031 176.695312 151.621094 174.625 151.972656 C 172.859375 149.96875 170.230469 148.230469 167.21875 146.8125 C 167.386719 146.867188 167.558594 146.921875 167.734375 146.96875 C 169.042969 147.347656 170.382812 147.539062 171.746094 147.546875 C 173.769531 147.585938 175.652344 147.089844 177.394531 146.066406 C 178.253906 145.566406 178.972656 144.910156 179.550781 144.101562 C 180.128906 143.292969 180.515625 142.398438 180.707031 141.421875 C 181.621094 136.664062 177.355469 131.367188 171.191406 129.617188 C 171.0625 129.578125 170.933594 129.546875 170.804688 129.515625 C 172.742188 128.203125 174.820312 127.171875 177.035156 126.429688 C 177.914062 126.132812 178.808594 125.894531 179.71875 125.722656 C 180.675781 127.027344 181.496094 128.410156 182.175781 129.878906 C 182.183594 129.898438 182.195312 129.917969 182.207031 129.9375 C 182.976562 131.292969 183.445312 132.746094 183.605469 134.300781 C 183.761719 135.851562 183.605469 137.371094 183.125 138.855469 C 182.214844 139.679688 181.457031 140.625 180.851562 141.691406 C 178.601562 145.691406 179.847656 151.6875 183.539062 155.003906 C 183.507812 155.410156 183.523438 155.8125 183.585938 156.210938 C 183.660156 156.910156 183.910156 157.539062 184.339844 158.097656 C 184.765625 158.65625 185.308594 159.0625 185.964844 159.316406 C 187.171875 159.75 187.644531 161.0625 187.683594 162.054688 C 187.722656 163.046875 187.351562 164.390625 186.179688 164.917969 C 185.011719 165.441406 183.761719 164.828125 183.042969 164.140625 C 182.324219 163.453125 181.660156 162.230469 182.132812 161.039062 C 183.003906 158.851562 182.40625 156.253906 180.570312 154.253906 Z M 171.554688 153.59375 C 171.191406 152.542969 170.519531 151.761719 169.535156 151.246094 C 166.925781 149.949219 164.222656 148.890625 161.425781 148.074219 C 158.632812 147.253906 155.785156 146.691406 152.886719 146.375 C 149.992188 146.0625 147.089844 146.007812 144.183594 146.207031 C 141.277344 146.410156 138.410156 146.867188 135.585938 147.574219 C 135.472656 147.601562 135.375 147.65625 135.289062 147.734375 C 135.203125 147.8125 135.140625 147.902344 135.101562 148.011719 C 135.0625 148.121094 135.050781 148.230469 135.0625 148.347656 C 135.078125 148.460938 135.121094 148.566406 135.1875 148.660156 C 137.828125 152.40625 142.058594 153.8125 143.289062 154.15625 C 148.453125 155.589844 153.800781 156.582031 158.96875 157.542969 C 161.546875 158.019531 164.207031 158.511719 166.808594 159.054688 C 167.066406 159.105469 167.328125 159.132812 167.59375 159.132812 C 168.277344 159.128906 168.925781 158.964844 169.535156 158.648438 C 169.476562 159.714844 169.675781 160.734375 170.132812 161.703125 C 170.59375 162.667969 171.257812 163.46875 172.121094 164.097656 C 172.304688 164.210938 172.429688 164.371094 172.5 164.574219 C 172.574219 164.777344 172.574219 164.980469 172.507812 165.183594 C 172.347656 165.738281 172.0625 166.214844 171.644531 166.617188 C 171.230469 167.019531 170.742188 167.289062 170.183594 167.429688 C 169.3125 167.558594 168.441406 167.601562 167.5625 167.554688 C 166.246094 167.53125 164.886719 167.507812 163.582031 168.007812 C 162.972656 168.246094 162.480469 168.632812 162.097656 169.160156 C 161.71875 169.691406 161.511719 170.28125 161.476562 170.933594 C 160.90625 169.664062 160.121094 168.539062 159.125 167.5625 C 161.910156 167.507812 164.628906 167.070312 167.289062 166.253906 C 167.59375 166.160156 167.875 166.015625 168.128906 165.824219 C 168.386719 165.628906 168.601562 165.398438 168.777344 165.132812 C 168.949219 164.863281 169.074219 164.574219 169.148438 164.265625 C 169.226562 163.953125 169.246094 163.640625 169.210938 163.320312 C 169.175781 163.003906 169.085938 162.703125 168.945312 162.414062 C 168.804688 162.125 168.621094 161.871094 168.390625 161.648438 C 168.160156 161.425781 167.902344 161.25 167.609375 161.117188 C 167.320312 160.984375 167.011719 160.90625 166.695312 160.878906 C 156.191406 159.988281 145.949219 157.859375 135.960938 154.488281 C 133.921875 152.367188 131.59375 150.632812 128.976562 149.28125 C 132.382812 147.320312 136.003906 145.898438 139.835938 145.015625 C 143.667969 144.132812 147.546875 143.828125 151.472656 144.105469 C 158.746094 144.640625 168.554688 147.71875 173.144531 152.441406 C 172.546875 152.734375 172.015625 153.121094 171.554688 153.59375 Z M 169.828125 156.648438 C 169.5 157.054688 169.089844 157.347656 168.601562 157.53125 C 168.113281 157.714844 167.609375 157.765625 167.09375 157.675781 C 164.480469 157.132812 161.808594 156.636719 159.226562 156.160156 C 154.085938 155.207031 148.769531 154.222656 143.664062 152.800781 C 141.042969 152.066406 138.816406 150.691406 136.984375 148.679688 C 139.652344 148.074219 142.355469 147.699219 145.089844 147.558594 C 147.824219 147.417969 150.554688 147.507812 153.273438 147.832031 C 155.992188 148.160156 158.664062 148.714844 161.289062 149.496094 C 163.910156 150.28125 166.449219 151.28125 168.902344 152.5 C 169.390625 152.769531 169.769531 153.148438 170.039062 153.636719 C 170.304688 154.125 170.425781 154.648438 170.390625 155.203125 C 170.15625 155.664062 169.964844 156.144531 169.828125 156.648438 Z M 98.3125 155.796875 C 100.523438 153.488281 103.089844 151.675781 106.003906 150.355469 C 106.082031 150.359375 106.160156 150.367188 106.242188 150.367188 L 106.242188 150.25 C 112.632812 147.402344 120.191406 147.0625 126.65625 149.75 C 134.820312 153.140625 140.898438 161.132812 142.160156 170.121094 C 141.398438 171.488281 140.949219 172.957031 140.816406 174.519531 C 140.226562 164.917969 133.640625 155.769531 124.703125 152.199219 C 115.9375 148.699219 105.464844 152.195312 98.652344 157.796875 C 98.695312 157.105469 98.582031 156.4375 98.3125 155.796875 Z M 105.03125 130.003906 C 104.765625 129.90625 104.554688 129.738281 104.402344 129.503906 C 104.246094 129.269531 104.175781 129.007812 104.1875 128.726562 C 104.144531 127.828125 104.640625 126.679688 105.546875 126.3125 C 107.355469 125.582031 109.515625 126.675781 111.011719 127.722656 C 111.316406 127.9375 111.617188 128.15625 111.921875 128.378906 C 113.46875 129.511719 115.066406 130.679688 117.046875 130.953125 C 117.859375 131.039062 118.648438 130.9375 119.414062 130.652344 C 120.179688 130.367188 120.84375 129.925781 121.40625 129.332031 C 121.679688 129.035156 121.894531 128.703125 122.0625 128.335938 C 125.1875 132.550781 127.53125 138.894531 126.976562 148.363281 C 120.234375 145.640625 112.40625 146.003906 105.753906 148.933594 C 105.089844 148.875 104.460938 148.699219 103.859375 148.417969 C 103.257812 148.132812 102.722656 147.753906 102.257812 147.28125 C 101.789062 146.808594 101.417969 146.269531 101.140625 145.664062 C 100.863281 145.058594 100.699219 144.425781 100.648438 143.765625 C 100.59375 143.101562 100.65625 142.449219 100.835938 141.808594 C 101.011719 141.167969 101.296875 140.578125 101.683594 140.039062 C 102.070312 139.496094 102.535156 139.039062 103.085938 138.664062 C 103.632812 138.289062 104.230469 138.019531 104.875 137.855469 C 105.304688 137.742188 105.707031 137.566406 106.082031 137.324219 C 106.457031 137.082031 106.78125 136.785156 107.058594 136.4375 C 107.332031 136.085938 107.546875 135.703125 107.695312 135.285156 C 107.847656 134.867188 107.925781 134.433594 107.9375 133.988281 C 107.945312 133.542969 107.882812 133.109375 107.75 132.683594 C 107.617188 132.257812 107.417969 131.867188 107.15625 131.507812 C 106.894531 131.148438 106.582031 130.839844 106.214844 130.582031 C 105.851562 130.324219 105.457031 130.132812 105.03125 130.003906 Z M 143.296875 168.445312 C 142.878906 166.339844 142.222656 164.3125 141.332031 162.363281 C 143.167969 163.621094 145.125 164.652344 147.199219 165.460938 C 146.867188 165.605469 146.542969 165.769531 146.226562 165.945312 C 145.097656 166.601562 144.121094 167.433594 143.296875 168.445312 Z M 149.410156 164.761719 C 145.804688 163.621094 142.578125 161.816406 139.722656 159.339844 C 139.128906 158.375 138.476562 157.445312 137.773438 156.554688 C 147.164062 159.539062 156.765625 161.445312 166.585938 162.277344 C 166.90625 162.300781 167.183594 162.429688 167.414062 162.652344 C 167.644531 162.878906 167.78125 163.152344 167.816406 163.472656 C 167.851562 163.792969 167.78125 164.089844 167.601562 164.359375 C 167.425781 164.628906 167.183594 164.8125 166.875 164.90625 C 163.765625 165.863281 160.582031 166.277344 157.332031 166.148438 C 157.242188 166.09375 157.160156 166.035156 157.070312 165.980469 C 155.910156 165.320312 154.667969 164.886719 153.351562 164.675781 C 152.03125 164.464844 150.71875 164.492188 149.410156 164.761719 Z M 151.449219 130.507812 C 148.789062 127.824219 147.863281 124.9375 148.773438 122.152344 C 149.820312 118.953125 153.210938 116.386719 155.714844 116.003906 C 157.371094 115.742188 159.035156 115.644531 160.710938 115.714844 C 162.382812 115.785156 164.035156 116.019531 165.664062 116.417969 C 167.289062 116.816406 168.863281 117.371094 170.378906 118.082031 C 171.898438 118.789062 173.328125 119.644531 174.679688 120.640625 C 171.933594 121.613281 169.394531 122.972656 167.0625 124.71875 C 164.730469 126.464844 162.710938 128.519531 161.003906 130.878906 C 160.035156 131.566406 159.292969 132.445312 158.769531 133.511719 C 158.324219 132.175781 157.507812 131.136719 156.316406 130.394531 C 155.660156 130.023438 154.953125 129.820312 154.199219 129.785156 C 153.445312 129.75 152.726562 129.886719 152.035156 130.195312 C 151.832031 130.285156 151.636719 130.390625 151.449219 130.507812 Z M 194.316406 118.210938 C 193.964844 118.996094 193.664062 119.800781 193.414062 120.625 C 189.417969 119.277344 185.320312 118.800781 181.125 119.207031 C 181.140625 112.640625 184.777344 106.207031 189.933594 103.753906 C 191.863281 102.832031 194.21875 103.871094 195.382812 105.40625 C 196.550781 106.953125 196.996094 109.234375 196.597656 111.667969 C 196.246094 113.824219 195.328125 115.90625 194.441406 117.921875 Z M 203.339844 128.859375 C 202.964844 129.714844 202.695312 130.601562 202.535156 131.523438 C 196.316406 124.953125 185.296875 122.128906 176.578125 125.097656 C 173.800781 126.027344 171.242188 127.378906 168.910156 129.152344 C 167.214844 128.921875 165.546875 129.035156 163.898438 129.488281 C 167.097656 125.941406 170.957031 123.394531 175.472656 121.84375 C 185.386719 118.46875 197.273438 121.488281 203.339844 128.859375 Z M 207 123.988281 C 206.757812 124.199219 206.53125 124.421875 206.300781 124.648438 L 206.230469 124.601562 C 206.160156 124.703125 206.089844 124.816406 206.023438 124.929688 C 205.292969 125.699219 204.644531 126.535156 204.082031 127.4375 C 204.066406 127.460938 204.054688 127.484375 204.042969 127.507812 C 202.128906 125.355469 199.890625 123.621094 197.332031 122.304688 C 198.792969 118.335938 199.210938 116.925781 200.15625 113.726562 C 200.367188 113.011719 200.605469 112.210938 200.886719 111.265625 C 201.804688 108.191406 202.582031 107.519531 203.074219 107.496094 C 204.269531 107.4375 205.777344 108.65625 206.367188 109.785156 C 206.898438 110.886719 207.3125 112.027344 207.609375 113.214844 C 207.910156 114.398438 208.085938 115.601562 208.140625 116.824219 C 208.191406 118.042969 208.125 119.257812 207.933594 120.464844 C 207.738281 121.671875 207.429688 122.847656 207 123.992188 Z M 187.285156 136.308594 C 186.449219 136.625 185.652344 137.023438 184.894531 137.503906 C 185.128906 136.085938 185.121094 134.671875 184.871094 133.257812 C 184.621094 131.84375 184.140625 130.511719 183.433594 129.261719 C 182.820312 127.9375 182.097656 126.675781 181.265625 125.476562 C 182.214844 125.363281 183.167969 125.3125 184.125 125.316406 C 185.191406 126.949219 185.992188 128.703125 186.53125 130.574219 C 187.070312 132.449219 187.320312 134.359375 187.285156 136.308594 Z M 162.425781 144.917969 C 162.417969 144.699219 162.414062 144.480469 162.417969 144.261719 C 163.097656 144.800781 163.820312 145.273438 164.585938 145.6875 C 163.875 145.417969 163.152344 145.160156 162.425781 144.921875 Z M 159.59375 135.425781 C 159.753906 134.644531 160.0625 133.929688 160.53125 133.28125 C 160.996094 132.636719 161.574219 132.113281 162.265625 131.714844 C 163.792969 130.832031 165.441406 130.410156 167.207031 130.449219 C 168.429688 130.457031 169.628906 130.628906 170.808594 130.964844 C 176.289062 132.523438 180.109375 137.09375 179.328125 141.15625 C 179.167969 141.9375 178.859375 142.652344 178.390625 143.300781 C 177.925781 143.945312 177.347656 144.46875 176.65625 144.867188 C 174.449219 146.226562 171.253906 146.507812 168.117188 145.617188 C 162.636719 144.0625 158.8125 139.492188 159.59375 135.425781 Z M 158.695312 139.453125 C 159.25 140.800781 160.039062 141.996094 161.0625 143.035156 C 161.027344 143.511719 161.011719 143.996094 161.015625 144.480469 C 159.734375 144.101562 158.441406 143.777344 157.167969 143.507812 C 157.808594 142.207031 158.320312 140.855469 158.695312 139.453125 Z M 204.695312 141.890625 C 201.71875 138.136719 197.398438 135.734375 193.027344 135.4375 C 191.5625 135.34375 190.121094 135.480469 188.699219 135.855469 C 188.683594 132.101562 187.71875 128.609375 185.804688 125.382812 C 192.183594 125.847656 198.515625 128.769531 202.355469 133.449219 C 202.335938 134.90625 202.582031 136.316406 203.097656 137.679688 C 203.613281 139.046875 204.359375 140.265625 205.34375 141.34375 C 205.117188 141.515625 204.902344 141.695312 204.695312 141.890625 Z M 206.546875 140.566406 C 205.894531 139.878906 205.347656 139.113281 204.910156 138.273438 C 204.46875 137.433594 204.152344 136.550781 203.960938 135.621094 C 203.769531 134.695312 203.707031 133.757812 203.777344 132.8125 C 203.847656 131.867188 204.042969 130.949219 204.371094 130.058594 C 204.226562 131.234375 204.285156 132.398438 204.550781 133.554688 C 204.863281 134.777344 205.371094 135.914062 206.070312 136.960938 C 206.769531 138.011719 207.625 138.914062 208.632812 139.675781 C 207.910156 139.90625 207.214844 140.203125 206.546875 140.566406 Z M 216.28125 120.019531 C 215.265625 120.132812 214.269531 120.328125 213.289062 120.605469 C 214.683594 114.082031 212.242188 106.769531 207.117188 102.480469 C 205.589844 101.21875 203.894531 100.238281 202.039062 99.542969 C 203.945312 99.933594 205.761719 100.582031 207.488281 101.484375 C 209.214844 102.390625 210.78125 103.515625 212.1875 104.863281 C 213.132812 105.855469 213.941406 106.949219 214.617188 108.144531 C 215.289062 109.339844 215.800781 110.597656 216.160156 111.921875 C 216.519531 113.246094 216.707031 114.59375 216.726562 115.964844 C 216.746094 117.332031 216.597656 118.6875 216.28125 120.019531 Z M 176.828125 116.28125 C 176.53125 116.089844 176.234375 115.902344 175.933594 115.71875 C 176.28125 115.480469 176.605469 115.21875 176.914062 114.933594 C 176.867188 115.382812 176.839844 115.832031 176.828125 116.28125 Z M 177.929688 118.738281 C 178.269531 118.988281 178.597656 119.246094 178.921875 119.511719 C 178.035156 119.671875 177.160156 119.875 176.292969 120.121094 C 174.847656 118.964844 173.296875 117.96875 171.644531 117.136719 C 169.988281 116.300781 168.269531 115.648438 166.476562 115.175781 C 164.6875 114.699219 162.867188 114.417969 161.019531 114.320312 C 159.171875 114.226562 157.332031 114.324219 155.503906 114.613281 C 152.597656 115.058594 148.6875 117.902344 147.4375 121.714844 C 146.683594 124.019531 146.597656 127.574219 150.40625 131.453125 C 150.089844 131.859375 149.878906 132.316406 149.765625 132.824219 C 149.640625 133.316406 149.339844 133.648438 148.859375 133.816406 C 148.453125 133.976562 148.03125 134.039062 147.59375 134.003906 C 147.160156 133.96875 146.753906 133.835938 146.378906 133.613281 C 146.253906 133.53125 146.132812 133.441406 146.019531 133.347656 C 142.65625 130.296875 141.949219 122.933594 144.628906 118.726562 C 147.574219 114.097656 152.867188 111.609375 159.140625 111.890625 C 162.542969 112.078125 165.84375 112.753906 169.046875 113.921875 C 172.246094 115.089844 175.207031 116.695312 177.929688 118.738281 Z M 141.683594 126.816406 C 141.054688 126.15625 140.304688 125.707031 139.429688 125.464844 C 140.199219 124.851562 140.9375 124.285156 141.636719 123.753906 C 141.554688 124.777344 141.570312 125.796875 141.683594 126.816406 Z M 136.355469 131.628906 C 136.695312 131.246094 136.894531 130.800781 136.960938 130.296875 C 137.027344 129.789062 136.945312 129.308594 136.71875 128.851562 C 136.625 128.648438 136.597656 128.4375 136.632812 128.21875 C 136.667969 128 136.761719 127.808594 136.914062 127.644531 C 137.160156 127.324219 137.46875 127.089844 137.84375 126.9375 C 138.21875 126.785156 138.605469 126.742188 139.003906 126.800781 C 140.214844 127.078125 141.25 128.140625 142.265625 130.144531 L 142.53125 130.671875 C 143.300781 132.21875 144.097656 133.816406 145.617188 134.792969 C 146.1875 135.140625 146.804688 135.34375 147.472656 135.398438 C 148.136719 135.457031 148.78125 135.359375 149.402344 135.113281 C 149.839844 134.949219 150.214844 134.6875 150.523438 134.332031 C 150.832031 133.980469 151.039062 133.570312 151.140625 133.113281 C 151.238281 132.738281 151.414062 132.40625 151.671875 132.121094 C 151.929688 131.832031 152.238281 131.617188 152.597656 131.480469 C 153.078125 131.261719 153.585938 131.167969 154.109375 131.1875 C 154.636719 131.207031 155.132812 131.34375 155.597656 131.597656 C 157.371094 132.65625 157.964844 135.011719 157.761719 136.878906 C 157.457031 139.113281 156.78125 141.230469 155.730469 143.230469 C 151.917969 142.539062 148.085938 142.402344 144.234375 142.820312 C 140.382812 143.238281 136.671875 144.191406 133.09375 145.6875 C 133.382812 140.980469 132.660156 136.4375 130.929688 132.054688 C 131.441406 132.472656 132.015625 132.769531 132.648438 132.949219 C 133.34375 133.097656 134.023438 133.050781 134.691406 132.8125 C 135.359375 132.578125 135.914062 132.183594 136.355469 131.628906 Z M 111.03125 120.527344 C 112.941406 121.117188 114.734375 121.953125 116.414062 123.039062 C 118.09375 124.125 119.59375 125.417969 120.917969 126.917969 C 120.957031 127.492188 120.773438 127.980469 120.367188 128.386719 C 119.960938 128.8125 119.488281 129.128906 118.9375 129.335938 C 118.386719 129.542969 117.820312 129.617188 117.238281 129.566406 C 115.609375 129.335938 114.222656 128.320312 112.75 127.246094 C 112.4375 127.019531 112.128906 126.792969 111.816406 126.574219 C 109.226562 124.757812 106.941406 124.230469 105.019531 125.011719 C 103.464844 125.644531 102.71875 127.390625 102.785156 128.792969 C 102.78125 129.078125 102.820312 129.355469 102.90625 129.628906 C 102.992188 129.898438 103.117188 130.148438 103.285156 130.378906 C 103.449219 130.609375 103.648438 130.808594 103.878906 130.972656 C 104.109375 131.140625 104.359375 131.265625 104.632812 131.351562 C 104.910156 131.433594 105.167969 131.5625 105.40625 131.730469 C 105.644531 131.898438 105.851562 132.101562 106.023438 132.335938 C 106.195312 132.570312 106.324219 132.828125 106.410156 133.105469 C 106.5 133.386719 106.539062 133.671875 106.535156 133.960938 C 106.527344 134.253906 106.476562 134.535156 106.378906 134.8125 C 106.277344 135.085938 106.140625 135.335938 105.957031 135.566406 C 105.777344 135.792969 105.5625 135.988281 105.320312 136.148438 C 105.074219 136.304688 104.8125 136.421875 104.527344 136.496094 C 103.800781 136.675781 103.121094 136.96875 102.488281 137.371094 C 101.855469 137.769531 101.300781 138.261719 100.824219 138.839844 C 100.347656 139.417969 99.972656 140.054688 99.703125 140.753906 C 99.429688 141.453125 99.273438 142.175781 99.234375 142.925781 C 99.191406 143.671875 99.269531 144.410156 99.464844 145.132812 C 99.660156 145.855469 99.964844 146.53125 100.375 147.15625 C 100.789062 147.785156 101.285156 148.332031 101.875 148.796875 C 102.460938 149.265625 103.105469 149.628906 103.808594 149.886719 C 101.496094 151.121094 99.417969 152.667969 97.574219 154.53125 C 97.050781 153.828125 96.390625 153.285156 95.597656 152.90625 C 94.804688 152.527344 93.96875 152.351562 93.09375 152.378906 C 90.648438 152.5625 87.894531 154.308594 86.953125 156.277344 C 86.6875 156.777344 86.570312 157.3125 86.605469 157.878906 C 86.640625 158.445312 86.816406 158.960938 87.140625 159.425781 C 88.726562 161.722656 89.488281 164.089844 89.175781 165.761719 C 89.054688 166.511719 88.695312 167.121094 88.097656 167.589844 C 86.195312 167.363281 84.972656 166.867188 84.367188 166.066406 C 83.457031 164.867188 83.804688 162.84375 84.246094 160.28125 C 84.339844 159.75 84.433594 159.195312 84.523438 158.625 C 84.640625 158.117188 84.613281 157.621094 84.445312 157.128906 C 84.277344 156.636719 83.988281 156.226562 83.585938 155.898438 C 83.550781 155.871094 83.511719 155.855469 83.476562 155.828125 C 86.535156 153.425781 90.765625 148.695312 92.246094 143.960938 C 94.269531 137.496094 91.171875 131.46875 89.730469 129.871094 C 89.34375 129.050781 88.859375 128.289062 88.28125 127.585938 C 92.851562 120.539062 101.765625 117.765625 111.03125 120.527344 Z M 90.902344 143.539062 C 89.414062 148.289062 84.78125 153.210938 81.949219 155.214844 C 81.039062 155.046875 80.148438 155.117188 79.273438 155.417969 C 78.492188 155.734375 77.722656 156.660156 76.90625 157.640625 C 76.308594 158.355469 75.632812 159.167969 75.207031 159.371094 C 74.320312 159.792969 73.582031 159.722656 73.230469 159.1875 C 72.746094 158.445312 73.066406 156.988281 74.617188 155.652344 C 76.339844 154.199219 77.503906 152.386719 78.113281 150.214844 C 84.308594 147.824219 90.464844 141.273438 90.726562 134.796875 C 91.210938 136.207031 91.46875 137.660156 91.496094 139.152344 C 91.527344 140.644531 91.328125 142.109375 90.902344 143.539062 Z M 76.429688 144.09375 C 73.472656 141.652344 69.863281 145.355469 67.476562 147.808594 C 66.949219 148.347656 66.453125 148.859375 66.03125 149.234375 C 65.832031 149.363281 65.617188 149.386719 65.390625 149.3125 C 64.746094 148.964844 64.464844 146.863281 64.261719 145.332031 C 64.171875 144.652344 64.085938 143.992188 63.96875 143.378906 L 84.917969 133.242188 C 85.058594 133.199219 85.203125 133.1875 85.351562 133.210938 C 85.5 133.234375 85.632812 133.289062 85.757812 133.371094 C 85.878906 133.457031 85.976562 133.5625 86.050781 133.691406 C 86.125 133.820312 86.167969 133.960938 86.179688 134.109375 C 86.058594 135.363281 85.773438 136.582031 85.328125 137.761719 C 84.878906 138.941406 84.285156 140.039062 83.542969 141.058594 C 82.800781 142.078125 81.9375 142.984375 80.953125 143.769531 C 79.964844 144.558594 78.894531 145.203125 77.734375 145.703125 C 77.410156 145.078125 76.972656 144.539062 76.429688 144.09375 Z M 117.054688 172.511719 C 116.894531 171.8125 116.597656 171.179688 116.160156 170.609375 C 115.726562 170.039062 115.191406 169.585938 114.558594 169.25 C 113.210938 168.625 111.796875 168.378906 110.3125 168.515625 C 110.730469 167.917969 111.011719 167.265625 111.167969 166.554688 C 111.277344 166.003906 111.292969 165.449219 111.214844 164.890625 C 111.140625 164.332031 110.976562 163.804688 110.722656 163.300781 C 110.46875 162.796875 110.136719 162.351562 109.734375 161.957031 C 109.332031 161.566406 108.875 161.25 108.367188 161.011719 C 107.855469 160.769531 107.320312 160.621094 106.761719 160.558594 C 106.203125 160.5 105.648438 160.53125 105.101562 160.65625 C 104.550781 160.78125 104.039062 160.992188 103.558594 161.289062 C 103.082031 161.585938 102.664062 161.949219 102.308594 162.386719 C 102.136719 162.609375 101.933594 162.800781 101.699219 162.957031 C 101.464844 163.117188 101.214844 163.230469 100.941406 163.300781 C 100.667969 163.375 100.390625 163.398438 100.109375 163.378906 C 99.828125 163.359375 99.558594 163.292969 99.300781 163.179688 C 99.039062 163.070312 98.804688 162.921875 98.597656 162.730469 C 98.386719 162.542969 98.214844 162.324219 98.078125 162.078125 C 97.945312 161.832031 97.851562 161.570312 97.804688 161.289062 C 97.753906 161.011719 97.753906 160.734375 97.796875 160.457031 C 105.023438 153.355469 116.328125 150.363281 124.1875 153.503906 C 132.664062 156.894531 138.910156 165.597656 139.421875 174.710938 C 131.789062 174.578125 124.316406 174.300781 117.09375 173.886719 C 117.164062 173.425781 117.152344 172.96875 117.050781 172.511719 Z M 146.925781 167.167969 C 147.269531 166.96875 147.628906 166.792969 147.996094 166.640625 C 148.363281 166.488281 148.738281 166.359375 149.121094 166.253906 C 149.503906 166.148438 149.894531 166.066406 150.289062 166.011719 C 150.683594 165.953125 151.078125 165.921875 151.476562 165.917969 C 151.875 165.910156 152.269531 165.929688 152.664062 165.976562 C 153.0625 166.019531 153.453125 166.089844 153.839844 166.183594 C 154.226562 166.277344 154.605469 166.394531 154.976562 166.535156 C 155.347656 166.675781 155.710938 166.84375 156.0625 167.03125 C 156.414062 167.21875 156.75 167.425781 157.074219 167.65625 C 157.398438 167.886719 157.707031 168.136719 158 168.40625 C 158.292969 168.675781 158.570312 168.960938 158.824219 169.265625 C 159.082031 169.570312 159.316406 169.890625 159.535156 170.222656 C 159.75 170.558594 159.945312 170.90625 160.117188 171.265625 C 160.289062 171.621094 160.4375 171.992188 160.5625 172.367188 C 160.6875 172.746094 160.789062 173.128906 160.867188 173.519531 C 160.945312 173.910156 160.996094 174.304688 161.023438 174.703125 C 157.375 174.769531 153.703125 174.804688 150.007812 174.804688 C 147.390625 174.804688 144.792969 174.789062 142.207031 174.753906 C 142.261719 173.976562 142.410156 173.21875 142.652344 172.480469 C 142.890625 171.738281 143.21875 171.039062 143.628906 170.378906 C 144.039062 169.714844 144.523438 169.113281 145.082031 168.570312 C 145.640625 168.027344 146.253906 167.558594 146.925781 167.167969 Z M 162.433594 174.675781 C 162.429688 174.636719 162.425781 174.601562 162.421875 174.566406 C 162.445312 174.601562 162.46875 174.636719 162.496094 174.671875 Z M 259.734375 155.253906 C 258.539062 154.246094 257.070312 153.964844 256.003906 153.757812 C 255.527344 153.664062 254.726562 153.511719 254.644531 153.351562 C 254.644531 153.351562 254.585938 153.191406 254.824219 152.667969 L 254.878906 152.554688 C 255.613281 150.960938 256.375 149.308594 255.699219 147.664062 C 255.628906 147.5 255.550781 147.339844 255.457031 147.1875 C 260.222656 149.261719 262.699219 151.542969 262.699219 153.914062 C 262.699219 155.207031 261.988281 156.5 260.621094 157.773438 C 260.679688 157.308594 260.632812 156.851562 260.476562 156.410156 C 260.320312 155.964844 260.070312 155.582031 259.734375 155.253906 Z M 248.640625 145.3125 C 248.632812 145.140625 248.628906 144.96875 248.617188 144.796875 C 248.785156 144.84375 248.949219 144.894531 249.113281 144.941406 C 248.949219 145.058594 248.792969 145.179688 248.640625 145.3125 Z M 202.382812 94.195312 C 203.644531 91.589844 204.839844 89.125 206.453125 88.710938 C 207.285156 88.5 208.269531 88.8125 209.46875 89.664062 C 210.246094 90.214844 210.160156 91.234375 209.925781 92.851562 C 209.699219 94.410156 209.417969 96.347656 211.074219 97.359375 C 211.433594 97.558594 211.808594 97.722656 212.199219 97.851562 C 212.589844 97.976562 212.988281 98.066406 213.394531 98.113281 C 213.804688 98.164062 214.214844 98.171875 214.625 98.140625 C 215.03125 98.105469 215.4375 98.035156 215.832031 97.925781 C 216.226562 97.8125 216.609375 97.664062 216.976562 97.476562 C 217.339844 97.292969 217.6875 97.070312 218.007812 96.816406 C 218.332031 96.5625 218.628906 96.28125 218.894531 95.96875 C 219.164062 95.65625 219.398438 95.320312 219.597656 94.960938 C 219.730469 94.730469 219.914062 94.550781 220.152344 94.421875 C 220.390625 94.296875 220.640625 94.246094 220.910156 94.265625 C 221.402344 94.273438 221.859375 94.398438 222.289062 94.644531 C 222.714844 94.890625 223.054688 95.226562 223.304688 95.648438 C 224.117188 97.234375 223.707031 99.222656 223.308594 101.144531 L 223.292969 101.234375 C 222.84375 103.414062 222.566406 105.894531 223.9375 107.757812 C 224.296875 108.242188 224.75 108.605469 225.300781 108.847656 C 225.851562 109.089844 226.429688 109.179688 227.027344 109.121094 C 227.652344 109.078125 228.222656 108.882812 228.742188 108.535156 C 229.265625 108.1875 229.667969 107.738281 229.949219 107.179688 C 231.003906 105.070312 232.660156 103.695312 234.375 103.496094 C 235 103.429688 235.597656 103.519531 236.175781 103.761719 C 236.75 104.007812 237.230469 104.378906 237.613281 104.875 C 238.757812 106.25 238.507812 108.105469 237.894531 109.386719 C 237.277344 110.664062 235.992188 112.007812 234.195312 111.976562 C 233.953125 111.972656 233.71875 112.007812 233.492188 112.082031 C 233.261719 112.15625 233.054688 112.265625 232.863281 112.410156 C 232.671875 112.558594 232.511719 112.730469 232.378906 112.929688 C 232.246094 113.128906 232.152344 113.347656 232.089844 113.578125 C 231.71875 114.71875 231.972656 116.378906 233.167969 117.214844 C 234.921875 118.4375 237.222656 117.960938 238.902344 117.617188 C 240.523438 117.28125 242.324219 117.070312 243.414062 118.035156 C 243.933594 118.496094 243.933594 119.457031 243.609375 120.0625 C 243.402344 120.449219 243.132812 120.601562 242.8125 120.519531 C 242.332031 120.394531 241.855469 120.417969 241.382812 120.585938 C 240.914062 120.757812 240.53125 121.042969 240.238281 121.445312 C 239.796875 121.992188 239.53125 122.617188 239.4375 123.3125 C 239.34375 124.007812 239.441406 124.679688 239.722656 125.324219 C 240.660156 127.210938 242.683594 128.070312 244.46875 128.828125 L 244.519531 128.847656 C 246.226562 129.574219 247.859375 130.441406 248.238281 131.878906 C 248.675781 133.542969 247.667969 135.339844 246.769531 135.992188 C 246.621094 136.109375 246.453125 136.1875 246.269531 136.226562 C 244.542969 132.574219 242.074219 129.519531 238.863281 127.066406 C 233.027344 122.695312 226.371094 120.21875 219.605469 119.90625 C 218.980469 119.875 218.367188 119.882812 217.757812 119.90625 C 218.066406 118.484375 218.199219 117.046875 218.152344 115.59375 C 218.105469 114.140625 217.882812 112.714844 217.484375 111.316406 C 217.085938 109.917969 216.523438 108.589844 215.796875 107.328125 C 215.070312 106.070312 214.199219 104.917969 213.1875 103.875 C 210.253906 100.898438 205.308594 98.390625 200.449219 97.890625 C 201.164062 96.695312 201.78125 95.429688 202.382812 94.195312 Z M 172.234375 85.171875 C 172.613281 84.605469 173.40625 83.621094 174.433594 83.425781 C 174.910156 83.363281 175.367188 83.421875 175.8125 83.601562 C 176.253906 83.777344 176.625 84.050781 176.925781 84.425781 C 177.257812 84.769531 177.484375 85.171875 177.605469 85.632812 C 177.726562 86.097656 177.726562 86.558594 177.605469 87.023438 C 177.46875 87.457031 177.46875 87.894531 177.613281 88.328125 C 177.753906 88.765625 178.007812 89.117188 178.378906 89.390625 C 178.9375 89.824219 179.570312 90.078125 180.273438 90.144531 C 180.980469 90.210938 181.648438 90.082031 182.277344 89.757812 C 183.28125 89.097656 184.109375 88.265625 184.765625 87.257812 C 185.140625 86.726562 185.554688 86.226562 186.007812 85.757812 C 186.726562 85.074219 187.578125 84.78125 188.566406 84.878906 C 188.898438 84.917969 189.164062 85.074219 189.355469 85.347656 C 189.253906 86.621094 188.347656 87.792969 187.46875 88.925781 L 187.191406 89.285156 C 185.597656 91.363281 185.085938 93.132812 185.632812 94.695312 C 186.101562 96.03125 187.601562 96.65625 188.777344 96.5625 C 189.015625 96.5625 189.246094 96.519531 189.472656 96.4375 C 189.695312 96.355469 189.898438 96.234375 190.082031 96.082031 C 190.265625 95.929688 190.421875 95.75 190.542969 95.546875 C 190.664062 95.339844 190.75 95.121094 190.796875 94.886719 C 190.90625 94.421875 191.105469 93.996094 191.382812 93.605469 C 191.664062 93.21875 192.007812 92.898438 192.414062 92.648438 C 192.820312 92.394531 193.261719 92.230469 193.730469 92.152344 C 194.203125 92.074219 194.671875 92.085938 195.140625 92.195312 C 196.105469 92.46875 196.523438 93.5625 197.121094 95.328125 C 197.394531 96.175781 197.714844 97.003906 198.078125 97.816406 C 197.0625 97.851562 196.066406 98.003906 195.085938 98.273438 C 192.308594 98.261719 189.671875 98.855469 187.171875 100.050781 C 185.523438 100.882812 184.03125 101.933594 182.699219 103.207031 C 181.363281 104.480469 180.242188 105.921875 179.339844 107.527344 C 179.140625 106.34375 178.726562 105.242188 178.09375 104.222656 C 177.460938 103.199219 176.660156 102.339844 175.691406 101.632812 C 176.800781 100.953125 177.628906 100.023438 178.175781 98.839844 C 178.578125 98.035156 178.796875 97.183594 178.824219 96.285156 C 178.855469 95.390625 178.695312 94.523438 178.347656 93.695312 C 177.964844 92.882812 177.429688 92.1875 176.738281 91.609375 C 176.050781 91.03125 175.273438 90.621094 174.40625 90.382812 C 173.328125 90.054688 172.234375 90.007812 171.128906 90.242188 C 171.417969 89.289062 171.488281 88.316406 171.335938 87.328125 C 171.472656 86.542969 171.773438 85.824219 172.234375 85.171875 Z M 138.960938 96.414062 C 139.058594 96.347656 139.132812 96.261719 139.183594 96.15625 C 139.234375 96.054688 139.261719 95.945312 139.257812 95.828125 C 139.257812 95.710938 139.226562 95.601562 139.171875 95.5 C 139.117188 95.398438 139.039062 95.316406 138.941406 95.253906 C 138.273438 94.792969 137.699219 94.238281 137.21875 93.589844 C 136.734375 92.941406 136.371094 92.230469 136.121094 91.460938 C 135.871094 90.691406 135.753906 89.898438 135.769531 89.089844 C 135.78125 88.28125 135.921875 87.496094 136.195312 86.734375 C 136.503906 85.988281 136.925781 85.308594 137.460938 84.699219 C 137.992188 84.09375 138.609375 83.585938 139.3125 83.179688 C 140.011719 82.777344 140.761719 82.496094 141.554688 82.339844 C 142.347656 82.183594 143.144531 82.15625 143.949219 82.265625 C 144.265625 82.3125 144.503906 82.199219 144.667969 81.921875 C 145.097656 81.171875 145.632812 80.507812 146.269531 79.925781 C 146.90625 79.34375 147.617188 78.871094 148.402344 78.507812 C 149.1875 78.144531 150.007812 77.910156 150.863281 77.800781 C 151.71875 77.695312 152.574219 77.71875 153.421875 77.875 C 154.269531 78.03125 155.078125 78.3125 155.839844 78.71875 C 156.601562 79.125 157.285156 79.636719 157.886719 80.253906 C 158.492188 80.871094 158.988281 81.566406 159.375 82.335938 C 159.765625 83.109375 160.027344 83.917969 160.164062 84.773438 C 160.210938 85.070312 160.382812 85.257812 160.671875 85.335938 C 160.964844 85.417969 161.203125 85.339844 161.398438 85.109375 C 161.820312 84.640625 162.316406 84.265625 162.878906 83.980469 C 163.441406 83.695312 164.035156 83.515625 164.664062 83.449219 C 165.292969 83.386719 165.910156 83.433594 166.523438 83.59375 C 167.132812 83.757812 167.691406 84.023438 168.207031 84.390625 C 169.191406 85.207031 169.769531 86.25 169.9375 87.519531 C 169.941406 87.582031 169.953125 87.648438 169.964844 87.710938 C 170.132812 88.976562 169.851562 90.132812 169.113281 91.175781 C 169.015625 91.3125 168.96875 91.464844 168.976562 91.632812 C 168.988281 91.804688 169.050781 91.949219 169.167969 92.074219 C 169.28125 92.199219 169.425781 92.269531 169.59375 92.292969 C 169.761719 92.3125 169.917969 92.277344 170.0625 92.183594 C 170.351562 92.007812 170.65625 91.867188 170.976562 91.757812 C 171.300781 91.648438 171.628906 91.574219 171.964844 91.535156 C 172.300781 91.492188 172.636719 91.488281 172.976562 91.519531 C 173.3125 91.554688 173.644531 91.621094 173.96875 91.722656 C 174.292969 91.824219 174.601562 91.957031 174.894531 92.125 C 175.191406 92.292969 175.464844 92.488281 175.71875 92.714844 C 175.96875 92.941406 176.195312 93.191406 176.398438 93.464844 C 176.597656 93.738281 176.765625 94.03125 176.902344 94.339844 C 177.042969 94.648438 177.144531 94.96875 177.214844 95.300781 C 177.285156 95.632812 177.320312 95.96875 177.320312 96.308594 C 177.316406 96.648438 177.28125 96.984375 177.207031 97.3125 C 177.136719 97.644531 177.03125 97.964844 176.890625 98.273438 C 176.75 98.582031 176.578125 98.875 176.375 99.144531 C 176.175781 99.417969 175.945312 99.667969 175.691406 99.890625 C 175.4375 100.113281 175.160156 100.308594 174.863281 100.472656 C 174.570312 100.640625 174.257812 100.773438 173.933594 100.871094 C 173.617188 100.957031 173.445312 101.167969 173.417969 101.496094 C 173.394531 101.824219 173.53125 102.058594 173.835938 102.191406 C 176.949219 103.5625 178.683594 107.378906 177.894531 110.652344 C 177.78125 110.964844 177.683594 111.277344 177.589844 111.59375 C 177.574219 111.636719 177.5625 111.679688 177.542969 111.722656 C 176.902344 113.113281 175.910156 114.183594 174.570312 114.925781 C 169.796875 112.242188 164.679688 110.765625 159.210938 110.484375 C 153.550781 110.226562 148.621094 112.085938 145.269531 115.644531 C 144.195312 114.628906 143.585938 113.382812 143.441406 111.910156 C 143.324219 110.914062 143.597656 110.046875 144.265625 109.300781 C 144.371094 109.195312 144.4375 109.066406 144.457031 108.914062 C 144.480469 108.765625 144.457031 108.625 144.390625 108.492188 C 144.320312 108.355469 144.21875 108.253906 144.082031 108.1875 C 143.949219 108.117188 143.808594 108.09375 143.660156 108.117188 C 142.941406 108.203125 142.226562 108.175781 141.515625 108.035156 C 140.804688 107.890625 140.136719 107.636719 139.507812 107.277344 C 138.878906 106.917969 138.324219 106.46875 137.839844 105.929688 C 137.359375 105.386719 136.972656 104.785156 136.6875 104.121094 C 136.433594 103.441406 136.296875 102.742188 136.273438 102.015625 C 136.246094 101.292969 136.339844 100.585938 136.542969 99.890625 C 136.75 99.195312 137.058594 98.550781 137.472656 97.957031 C 137.886719 97.363281 138.382812 96.847656 138.960938 96.414062 Z M 119.019531 103.753906 C 119.0625 103.367188 119.28125 102.082031 120.355469 101.90625 C 121.378906 101.734375 122.320312 102.480469 123.3125 103.269531 C 123.523438 103.4375 123.730469 103.601562 123.941406 103.761719 C 124.257812 104.007812 124.554688 104.277344 124.832031 104.566406 C 125.558594 105.285156 126.378906 106.101562 127.863281 105.832031 C 128.480469 105.679688 129 105.367188 129.425781 104.890625 C 129.851562 104.417969 130.105469 103.867188 130.191406 103.238281 C 130.28125 102.789062 130.222656 102.355469 130.023438 101.945312 C 129.820312 101.53125 129.511719 101.226562 129.101562 101.023438 C 128.488281 100.730469 127.996094 100.300781 127.625 99.730469 C 127.257812 99.160156 127.0625 98.535156 127.050781 97.855469 C 127.03125 97.105469 127.207031 96.40625 127.578125 95.753906 C 127.949219 95.105469 128.460938 94.597656 129.117188 94.234375 C 130.246094 93.597656 131.386719 94.046875 132.144531 94.539062 C 133.917969 95.683594 135.183594 98.027344 135.066406 99.929688 C 134.863281 100.730469 134.792969 101.542969 134.855469 102.371094 C 134.917969 103.195312 135.109375 103.988281 135.429688 104.753906 C 135.75 105.515625 136.179688 106.207031 136.726562 106.832031 C 137.269531 107.453125 137.898438 107.976562 138.613281 108.394531 C 138.300781 108.65625 137.941406 108.953125 137.554688 109.273438 C 131.472656 114.296875 128.265625 117.367188 128.734375 119.207031 C 129.421875 121.90625 132.78125 125.90625 135.777344 126.824219 C 135.464844 127.199219 135.285156 127.632812 135.230469 128.117188 C 135.171875 128.605469 135.253906 129.066406 135.472656 129.503906 C 135.570312 129.714844 135.597656 129.933594 135.558594 130.160156 C 135.519531 130.386719 135.421875 130.585938 135.261719 130.753906 C 134.992188 131.089844 134.65625 131.335938 134.253906 131.484375 C 133.847656 131.636719 133.433594 131.671875 133.011719 131.59375 C 131.945312 131.3125 131.082031 130.355469 130.246094 129.429688 C 129.894531 129.027344 129.523438 128.644531 129.132812 128.28125 C 128.59375 127.324219 128.007812 126.394531 127.375 125.496094 C 126.203125 123.835938 124.882812 122.308594 123.414062 120.90625 C 124.417969 119.246094 124.609375 116.382812 123.335938 114.757812 C 122.742188 114 121.382812 112.960938 118.792969 114.136719 C 118.359375 113.628906 118.15625 113.191406 118.207031 112.882812 C 118.316406 112.261719 119.507812 111.703125 120.464844 111.253906 C 121.746094 110.65625 122.953125 110.089844 123.082031 108.976562 C 123.199219 108 122.375 107.21875 121.726562 106.703125 C 121.085938 106.203125 120.363281 105.894531 119.554688 105.785156 C 119.242188 105.59375 118.90625 104.785156 119.019531 103.753906 Z M 47.417969 130.5625 C 47.039062 129.738281 46.847656 128.875 46.847656 127.96875 C 46.847656 127.0625 47.035156 126.195312 47.410156 125.371094 C 48.316406 123.59375 50.0625 122.132812 51.660156 121.824219 C 52.078125 121.726562 52.496094 121.730469 52.914062 121.835938 C 53.332031 121.941406 53.699219 122.136719 54.023438 122.417969 C 54.167969 122.542969 54.332031 122.601562 54.523438 122.589844 C 54.710938 122.582031 54.871094 122.507812 55 122.367188 C 55.246094 122.074219 55.457031 121.761719 55.636719 121.425781 C 55.816406 121.089844 55.960938 120.738281 56.0625 120.371094 C 56.167969 120.003906 56.234375 119.628906 56.257812 119.25 C 56.28125 118.871094 56.265625 118.492188 56.210938 118.113281 C 56.15625 117.734375 56.0625 117.371094 55.925781 117.011719 C 55.792969 116.65625 55.625 116.316406 55.417969 115.996094 C 55.210938 115.675781 54.972656 115.378906 54.707031 115.109375 C 54.4375 114.839844 54.144531 114.597656 53.824219 114.390625 C 53.097656 114 52.527344 113.453125 52.109375 112.742188 C 51.691406 112.035156 51.488281 111.269531 51.5 110.445312 C 51.542969 109.40625 51.84375 108.449219 52.398438 107.570312 C 52.957031 106.691406 53.695312 106.011719 54.613281 105.527344 C 56.28125 104.585938 58.519531 104.710938 60.457031 105.859375 C 62.390625 107.007812 63.582031 108.910156 63.554688 110.824219 C 63.550781 111.132812 63.59375 111.433594 63.6875 111.730469 C 63.777344 112.023438 63.914062 112.296875 64.097656 112.546875 C 64.277344 112.796875 64.496094 113.011719 64.746094 113.1875 C 64.996094 113.367188 65.269531 113.503906 65.566406 113.59375 C 67.242188 114.214844 69.820312 113.851562 71.226562 112.171875 C 72.546875 110.597656 71.730469 108.230469 70.945312 105.9375 C 70.464844 104.539062 69.964844 103.09375 70.078125 102.082031 C 70.152344 101.496094 70.378906 100.980469 70.765625 100.53125 C 71.148438 100.082031 71.625 99.773438 72.191406 99.609375 C 73.230469 99.273438 76.054688 98.949219 79.875 103.179688 C 79.988281 103.308594 80.128906 103.382812 80.296875 103.40625 C 80.464844 103.429688 80.617188 103.398438 80.761719 103.308594 C 84.199219 101.210938 82.871094 98.433594 81.902344 96.402344 C 80.980469 94.484375 80.734375 93.699219 81.765625 93.066406 C 83 92.308594 83.710938 92.898438 85.269531 94.640625 C 86.660156 96.195312 88.390625 98.132812 91.308594 97.875 C 91.417969 97.863281 91.519531 97.832031 91.613281 97.773438 C 92.742188 97.082031 93.207031 95.765625 93.617188 94.601562 C 94.1875 92.996094 94.53125 92.292969 95.453125 92.292969 C 95.730469 92.3125 96.003906 92.359375 96.273438 92.4375 C 96.539062 92.515625 96.792969 92.621094 97.039062 92.757812 C 97.285156 92.890625 97.511719 93.046875 97.722656 93.230469 C 97.933594 93.410156 98.121094 93.613281 98.289062 93.835938 C 98.457031 94.058594 98.597656 94.296875 98.710938 94.550781 C 98.828125 94.800781 98.917969 95.066406 98.976562 95.335938 C 99.035156 95.609375 99.066406 95.882812 99.066406 96.160156 C 99.066406 96.441406 99.039062 96.714844 98.980469 96.988281 C 98.902344 97.285156 98.855469 97.585938 98.839844 97.894531 C 98.828125 98.203125 98.84375 98.507812 98.898438 98.8125 C 98.949219 99.113281 99.03125 99.410156 99.148438 99.695312 C 99.261719 99.980469 99.40625 100.25 99.578125 100.503906 C 99.753906 100.757812 99.949219 100.992188 100.171875 101.203125 C 100.394531 101.414062 100.640625 101.601562 100.902344 101.761719 C 101.164062 101.921875 101.441406 102.050781 101.734375 102.152344 C 102.023438 102.253906 102.320312 102.320312 102.628906 102.355469 C 102.933594 102.394531 103.238281 102.398438 103.546875 102.367188 C 103.851562 102.339844 104.152344 102.277344 104.445312 102.183594 C 104.738281 102.089844 105.015625 101.964844 105.285156 101.8125 C 105.550781 101.65625 105.796875 101.476562 106.023438 101.269531 C 106.253906 101.0625 106.457031 100.835938 106.632812 100.585938 C 106.8125 100.335938 106.964844 100.066406 107.085938 99.785156 C 107.207031 99.503906 107.296875 99.210938 107.355469 98.90625 C 107.414062 98.605469 107.441406 98.300781 107.433594 97.992188 C 107.445312 97.640625 107.5 97.296875 107.59375 96.957031 C 107.683594 96.613281 107.816406 96.289062 107.980469 95.980469 C 108.148438 95.667969 108.347656 95.382812 108.582031 95.117188 C 108.816406 94.851562 109.074219 94.617188 109.359375 94.414062 C 109.648438 94.207031 109.953125 94.039062 110.28125 93.902344 C 110.605469 93.769531 110.941406 93.671875 111.289062 93.613281 C 111.636719 93.554688 111.988281 93.535156 112.339844 93.558594 C 112.691406 93.582031 113.035156 93.640625 113.371094 93.742188 C 114.03125 94.035156 114.582031 94.464844 115.023438 95.039062 C 115.464844 95.609375 115.742188 96.25 115.859375 96.960938 C 116.03125 97.664062 116.027344 98.363281 115.847656 99.058594 C 115.664062 99.757812 115.328125 100.371094 114.835938 100.898438 C 114.449219 101.304688 114.152344 101.769531 113.945312 102.292969 C 113.734375 102.8125 113.632812 103.355469 113.632812 103.917969 C 113.632812 104.480469 113.738281 105.019531 113.949219 105.542969 C 114.160156 106.0625 114.457031 106.527344 114.847656 106.933594 C 115.707031 107.773438 116.726562 107.546875 117.628906 107.351562 C 118.667969 107.121094 119.652344 106.90625 120.867188 107.8125 C 121.542969 108.355469 121.699219 108.695312 121.6875 108.808594 C 121.648438 109.144531 120.53125 109.667969 119.867188 109.980469 C 118.550781 110.597656 117.054688 111.296875 116.820312 112.636719 C 116.667969 113.519531 117.097656 114.453125 118.132812 115.496094 C 118.242188 115.605469 118.371094 115.671875 118.523438 115.691406 C 118.679688 115.714844 118.824219 115.691406 118.957031 115.617188 C 120.011719 115.058594 121.429688 114.609375 122.226562 115.621094 C 123.050781 116.675781 122.957031 118.707031 122.339844 119.9375 C 119.550781 117.457031 116.375 115.660156 112.8125 114.539062 C 107.070312 112.828125 100.039062 113.207031 94 115.476562 C 94.441406 114.5 94.710938 113.480469 94.816406 112.417969 C 94.929688 111.429688 94.835938 110.460938 94.53125 109.515625 C 94.230469 108.566406 93.742188 107.726562 93.078125 106.988281 C 89.8125 103.40625 83.011719 103.65625 77.921875 107.546875 C 74.980469 109.796875 73.136719 112.816406 72.863281 115.832031 C 72.75 116.820312 72.84375 117.789062 73.148438 118.734375 C 73.449219 119.683594 73.933594 120.523438 74.601562 121.261719 C 75.046875 121.746094 75.554688 122.160156 76.117188 122.5 C 75.613281 122.511719 75.113281 122.542969 74.617188 122.601562 C 69.445312 123.210938 57.90625 125.355469 49.492188 132.636719 C 48.511719 132.234375 47.820312 131.542969 47.417969 130.5625 Z M 46.152344 138.304688 C 51.597656 130.820312 62.304688 125.472656 74.789062 123.996094 C 81.042969 123.253906 88.351562 126.566406 89.253906 133.195312 C 90.066406 139.132812 84.347656 145.929688 78.351562 148.59375 C 78.355469 148.484375 78.359375 148.375 78.359375 148.265625 C 78.355469 147.84375 78.308594 147.429688 78.21875 147.019531 C 79.5 146.472656 80.6875 145.765625 81.78125 144.898438 C 82.871094 144.03125 83.832031 143.035156 84.652344 141.90625 C 85.476562 140.78125 86.136719 139.566406 86.632812 138.261719 C 87.128906 136.957031 87.441406 135.613281 87.574219 134.222656 C 87.578125 134.027344 87.558594 133.832031 87.515625 133.640625 C 87.472656 133.445312 87.40625 133.261719 87.316406 133.085938 C 87.226562 132.910156 87.117188 132.75 86.988281 132.601562 C 86.855469 132.453125 86.710938 132.324219 86.546875 132.210938 C 86.386719 132.097656 86.210938 132.007812 86.027344 131.941406 C 85.839844 131.871094 85.652344 131.828125 85.453125 131.808594 C 85.257812 131.789062 85.0625 131.792969 84.867188 131.820312 C 84.671875 131.847656 84.484375 131.898438 84.300781 131.976562 L 63.605469 141.992188 C 63.445312 141.464844 63.15625 141.023438 62.738281 140.667969 C 62.554688 140.53125 62.355469 140.433594 62.136719 140.378906 C 68.367188 137.535156 74.476562 134.40625 80.390625 130.992188 C 80.65625 130.839844 80.890625 130.648438 81.09375 130.417969 C 81.296875 130.1875 81.457031 129.929688 81.574219 129.644531 C 81.691406 129.363281 81.757812 129.066406 81.78125 128.761719 C 81.800781 128.453125 81.769531 128.152344 81.691406 127.855469 C 81.613281 127.558594 81.488281 127.285156 81.316406 127.027344 C 81.144531 126.773438 80.9375 126.550781 80.695312 126.363281 C 80.453125 126.179688 80.183594 126.035156 79.894531 125.9375 C 79.601562 125.839844 79.304688 125.789062 78.996094 125.789062 L 78.988281 125.789062 C 75.957031 125.8125 72.964844 126.160156 70.007812 126.828125 C 67.050781 127.5 64.199219 128.480469 61.453125 129.765625 C 58.707031 131.054688 56.132812 132.617188 53.726562 134.460938 C 51.320312 136.308594 49.136719 138.386719 47.179688 140.703125 C 45.773438 142.382812 45.863281 145.242188 46.960938 146.230469 C 47.167969 146.417969 47.40625 146.464844 47.675781 146.367188 C 50.683594 145.25 53.671875 144.0625 56.636719 142.800781 C 55.648438 143.800781 54.925781 144.964844 54.472656 146.296875 C 54.0625 147.496094 54.496094 148.804688 54.914062 150.070312 C 55.347656 151.375 55.753906 152.601562 55.253906 153.558594 C 54.9375 154.167969 54.226562 154.6875 53.144531 155.109375 C 52.949219 154.230469 52.605469 153.414062 52.113281 152.660156 C 51.621094 151.90625 51.011719 151.261719 50.28125 150.730469 C 49.550781 150.160156 48.738281 149.742188 47.84375 149.476562 C 46.953125 149.210938 46.042969 149.121094 45.117188 149.199219 C 42.671875 145.949219 43 142.640625 46.15625 138.304688 Z M 42.121094 144.972656 C 42.136719 145.542969 42.210938 146.109375 42.347656 146.667969 C 38.082031 148.816406 35.910156 151.25 35.910156 153.914062 C 35.910156 161.789062 54.285156 166.9375 69.695312 169.875 C 82.933594 172.394531 98.867188 174.214844 116.25 175.242188 L 116.429688 175.386719 C 116.464844 175.34375 116.492188 175.300781 116.523438 175.257812 C 127.234375 175.886719 138.492188 176.210938 150.011719 176.210938 C 154.910156 176.210938 159.78125 176.148438 164.597656 176.03125 C 164.621094 176.03125 164.648438 176.035156 164.671875 176.035156 C 164.746094 176.035156 164.820312 176.03125 164.890625 176.023438 C 186.5625 175.476562 207.082031 173.746094 223.824219 171.019531 L 223.820312 170.988281 C 224.203125 171.03125 224.585938 171.050781 224.972656 171.050781 C 226.917969 171.03125 228.773438 170.621094 230.546875 169.816406 L 230.546875 169.828125 C 240.726562 167.878906 252.203125 164.953125 258.75 160.90625 C 259.214844 160.832031 259.574219 160.601562 259.828125 160.203125 C 262.492188 158.335938 264.105469 156.246094 264.105469 153.914062 C 264.105469 149.773438 258.835938 146.199219 248.449219 143.289062 C 248.363281 142.703125 248.25 142.117188 248.117188 141.53125 C 261.347656 145.402344 268.613281 149.980469 268.613281 154.480469 C 268.613281 160.472656 255.753906 166.917969 234.21875 171.726562 C 211.21875 176.855469 181.3125 179.683594 150.007812 179.683594 C 118.707031 179.683594 88.800781 176.855469 65.800781 171.722656 C 44.261719 166.917969 31.40625 160.46875 31.40625 154.476562 C 31.40625 151.273438 35.109375 148 42.121094 144.972656 Z M 194.980469 216.476562 C 162.539062 224.152344 128.28125 224.105469 98.378906 216.34375 C 98.644531 214.695312 99.457031 211.8125 99.59375 211.34375 C 115.898438 213.644531 132.28125 214.796875 148.742188 214.796875 C 158.132812 214.796875 167.363281 214.414062 176.1875 213.632812 C 182.582031 213.070312 188.667969 212.308594 194.441406 211.355469 Z M 238.3125 195.300781 C 224.453125 204.003906 202.925781 209.859375 176.0625 212.234375 C 151.902344 214.367188 124.6875 213.539062 99.433594 209.902344 C 73.429688 206.152344 36.457031 185.265625 31.816406 159.019531 C 37.390625 165.871094 54.519531 170.644531 65.492188 173.09375 C 88.589844 178.25 118.605469 181.089844 150.007812 181.089844 C 181.410156 181.089844 211.425781 178.25 234.523438 173.09375 C 245.027344 170.753906 261.164062 166.277344 267.414062 159.890625 C 263.757812 171.023438 252.402344 186.449219 238.3125 195.300781 Z M 238.3125 195.300781 " fill-opacity="1" fill-rule="nonzero"/></g><path fill="currentColor" d="M 127.222656 170.664062 L 128.191406 169.257812 L 129.347656 170.054688 L 128.378906 171.460938 Z M 127.222656 170.664062 " fill-opacity="1" fill-rule="nonzero"/><path fill="currentColor" d="M 122.839844 167.21875 L 123.757812 165.667969 L 124.96875 166.382812 L 124.046875 167.933594 Z M 122.839844 167.21875 " fill-opacity="1" fill-rule="nonzero"/><path fill="currentColor" d="M 116.554688 165.671875 L 116.988281 163.929688 L 118.351562 164.265625 L 117.917969 166.011719 Z M 116.554688 165.671875 " fill-opacity="1" fill-rule="nonzero"/><path fill="currentColor" d="M 186.550781 112.734375 C 186.207031 112.511719 185.832031 112.402344 185.421875 112.40625 C 185.015625 112.40625 184.636719 112.515625 184.296875 112.738281 C 183.160156 113.539062 183.085938 115.117188 183.59375 116.195312 C 184.117188 117.140625 184.824219 117.917969 185.71875 118.527344 C 185.8125 118.601562 185.921875 118.648438 186.042969 118.667969 C 186.164062 118.6875 186.28125 118.675781 186.398438 118.628906 C 186.511719 118.585938 186.609375 118.519531 186.6875 118.425781 C 186.765625 118.332031 186.816406 118.222656 186.839844 118.105469 C 187.023438 117.144531 187.21875 115.757812 187.410156 114.417969 C 187.453125 114.074219 187.394531 113.75 187.238281 113.445312 C 187.082031 113.136719 186.851562 112.898438 186.550781 112.734375 Z M 185.667969 116.648438 C 185.335938 116.347656 185.066406 116 184.867188 115.601562 C 184.605469 115.039062 184.621094 114.230469 185.105469 113.886719 C 185.191406 113.832031 185.289062 113.808594 185.390625 113.8125 C 185.542969 113.8125 185.6875 113.851562 185.816406 113.929688 C 185.882812 113.972656 186.039062 114.082031 186.019531 114.222656 C 185.902344 115.054688 185.785156 115.902344 185.667969 116.648438 Z M 185.667969 116.648438 " fill-opacity="1" fill-rule="nonzero"/><path fill="currentColor" d="M 193.507812 107.457031 C 192.875 106.996094 192.179688 106.875 191.421875 107.085938 C 190.765625 107.253906 190.308594 107.648438 190.050781 108.273438 C 189.601562 109.417969 189.355469 110.601562 189.304688 111.828125 C 189.257812 113.054688 189.414062 114.253906 189.769531 115.429688 C 189.859375 115.726562 190.058594 115.890625 190.367188 115.925781 C 190.671875 115.957031 190.902344 115.839844 191.054688 115.570312 C 191.449219 114.917969 191.925781 114.328125 192.476562 113.800781 C 192.601562 113.671875 192.722656 113.546875 192.839844 113.421875 C 193.613281 112.667969 194.164062 111.777344 194.488281 110.75 C 194.664062 110.152344 194.664062 109.554688 194.484375 108.960938 C 194.308594 108.363281 193.984375 107.863281 193.507812 107.457031 Z M 193.128906 110.398438 C 192.859375 111.195312 192.421875 111.882812 191.816406 112.460938 C 191.703125 112.582031 191.585938 112.703125 191.46875 112.824219 C 191.242188 113.058594 191.015625 113.292969 190.792969 113.546875 C 190.566406 111.910156 190.757812 110.324219 191.359375 108.789062 C 191.449219 108.601562 191.597656 108.484375 191.800781 108.441406 C 191.898438 108.414062 191.992188 108.402344 192.09375 108.402344 C 192.300781 108.398438 192.488281 108.453125 192.65625 108.574219 C 192.902344 108.808594 193.066406 109.089844 193.152344 109.421875 C 193.238281 109.75 193.226562 110.074219 193.128906 110.398438 Z M 193.128906 110.398438 " fill-opacity="1" fill-rule="nonzero"/><path fill="currentColor" d="M 205.371094 114.539062 C 205.613281 113.964844 205.554688 113.421875 205.203125 112.914062 C 205.019531 112.621094 204.777344 112.394531 204.480469 112.222656 C 204.179688 112.054688 203.859375 111.964844 203.515625 111.953125 C 202.976562 111.984375 202.484375 112.15625 202.042969 112.464844 C 201.597656 112.777344 201.269531 113.179688 201.058594 113.679688 C 200.761719 114.382812 200.578125 115.117188 200.515625 115.875 L 200.472656 116.191406 C 200.425781 116.871094 200.214844 117.496094 199.839844 118.066406 C 199.738281 118.191406 199.6875 118.335938 199.683594 118.496094 C 199.683594 118.65625 199.730469 118.800781 199.824219 118.925781 C 199.921875 119.054688 200.046875 119.140625 200.199219 119.183594 C 200.351562 119.226562 200.503906 119.21875 200.652344 119.15625 C 201.71875 118.738281 202.660156 118.128906 203.480469 117.328125 C 204.300781 116.523438 204.929688 115.59375 205.371094 114.539062 Z M 201.773438 116.945312 C 201.808594 116.757812 201.839844 116.574219 201.867188 116.390625 L 201.914062 116.066406 C 201.960938 115.449219 202.101562 114.855469 202.332031 114.28125 C 202.429688 114.035156 202.582031 113.828125 202.792969 113.664062 C 203 113.5 203.238281 113.398438 203.5 113.359375 L 203.507812 113.359375 C 203.734375 113.378906 203.90625 113.484375 204.027344 113.675781 C 204.097656 113.765625 204.117188 113.867188 204.085938 113.976562 C 203.585938 115.175781 202.816406 116.164062 201.773438 116.945312 Z M 201.773438 116.945312 " fill-opacity="1" fill-rule="nonzero"/><path fill="currentColor" d="M 205.4375 119.417969 C 204.941406 119.265625 204.445312 119.257812 203.945312 119.394531 C 203.445312 119.535156 203.027344 119.800781 202.683594 120.191406 C 202.140625 120.828125 201.734375 121.546875 201.476562 122.34375 C 201.371094 122.601562 201.410156 122.835938 201.589844 123.050781 C 202.035156 123.570312 202.601562 123.824219 203.285156 123.8125 L 203.320312 123.8125 C 203.898438 123.785156 204.449219 123.640625 204.96875 123.382812 C 205.488281 123.125 205.933594 122.773438 206.304688 122.332031 C 206.691406 121.882812 206.804688 121.371094 206.644531 120.800781 C 206.480469 120.132812 206.078125 119.671875 205.4375 119.417969 Z M 205.25 121.402344 C 204.746094 122.007812 204.101562 122.339844 203.320312 122.40625 L 203.300781 122.40625 C 203.195312 122.40625 203.089844 122.390625 202.984375 122.359375 C 203.152344 121.917969 203.390625 121.523438 203.699219 121.167969 C 203.855469 120.984375 204.042969 120.855469 204.265625 120.777344 C 204.492188 120.703125 204.71875 120.6875 204.949219 120.738281 C 205.125 120.820312 205.234375 120.957031 205.277344 121.144531 C 205.308594 121.234375 205.300781 121.324219 205.25 121.40625 Z M 205.25 121.402344 " fill-opacity="1" fill-rule="nonzero"/><path fill="currentColor" d="M 230.527344 155.636719 C 228.714844 154.191406 226.703125 155.125 225.589844 155.644531 C 223.59375 156.570312 219.175781 160.351562 219.378906 163.105469 C 219.433594 163.859375 219.847656 164.863281 221.503906 165.351562 C 221.832031 165.453125 222.164062 165.507812 222.503906 165.515625 C 223.769531 165.515625 224.386719 164.59375 225.03125 163.628906 C 226.136719 161.796875 227.683594 160.484375 229.675781 159.695312 C 231.011719 159.128906 231.328125 158.214844 231.394531 157.722656 C 231.441406 157.324219 231.390625 156.9375 231.234375 156.566406 C 231.078125 156.195312 230.84375 155.886719 230.527344 155.636719 Z M 229.128906 158.402344 C 228.035156 158.835938 227.035156 159.433594 226.136719 160.195312 C 225.234375 160.957031 224.480469 161.839844 223.867188 162.847656 C 223.0625 164.042969 222.859375 164.289062 221.90625 164.003906 C 220.832031 163.6875 220.792969 163.1875 220.78125 163 C 220.644531 161.179688 224.367188 157.757812 226.214844 156.902344 C 227.429688 156.335938 228.609375 155.898438 229.652344 156.734375 C 229.914062 156.933594 230.035156 157.199219 230.003906 157.527344 C 229.957031 157.875 229.644531 158.183594 229.128906 158.402344 Z M 229.128906 158.402344 " fill-opacity="1" fill-rule="nonzero"/><path fill="currentColor" d="M 86.609375 108.375 C 84.800781 106.929688 82.707031 107.902344 81.671875 108.382812 C 79.675781 109.308594 75.257812 113.089844 75.460938 115.84375 C 75.519531 116.597656 75.929688 117.601562 77.589844 118.089844 C 77.914062 118.191406 78.246094 118.246094 78.585938 118.25 C 79.851562 118.25 80.472656 117.332031 81.117188 116.367188 C 82.222656 114.53125 83.769531 113.222656 85.761719 112.433594 C 87.097656 111.867188 87.410156 110.953125 87.480469 110.460938 C 87.527344 110.0625 87.472656 109.675781 87.316406 109.304688 C 87.164062 108.933594 86.929688 108.625 86.609375 108.375 Z M 85.214844 111.140625 C 84.117188 111.574219 83.121094 112.171875 82.21875 112.933594 C 81.320312 113.695312 80.5625 114.578125 79.949219 115.585938 C 79.148438 116.78125 78.945312 117.027344 77.988281 116.742188 C 76.914062 116.425781 76.878906 115.925781 76.863281 115.738281 C 76.730469 113.917969 80.453125 110.496094 82.296875 109.640625 C 82.960938 109.28125 83.671875 109.070312 84.425781 109.015625 C 84.917969 109.007812 85.355469 109.160156 85.734375 109.472656 C 86 109.671875 86.121094 109.9375 86.089844 110.269531 C 86.039062 110.613281 85.730469 110.921875 85.214844 111.140625 Z M 85.214844 111.140625 " fill-opacity="1" fill-rule="nonzero"/><path fill="currentColor" d="M 173.503906 139.28125 C 173.882812 139.285156 174.238281 139.195312 174.570312 139.015625 C 174.917969 138.816406 175.195312 138.539062 175.402344 138.195312 C 175.605469 137.847656 175.710938 137.472656 175.722656 137.070312 C 175.796875 134.753906 173.839844 133.699219 172.761719 133.117188 C 170.824219 132.074219 165.152344 130.796875 163.066406 132.605469 C 162.492188 133.101562 161.9375 134.035156 162.535156 135.65625 C 163.25 137.59375 164.597656 137.523438 166.027344 137.453125 C 168.160156 137.238281 170.136719 137.695312 171.957031 138.820312 C 172.433594 139.117188 172.949219 139.269531 173.503906 139.28125 Z M 167.046875 136.011719 C 166.648438 136.011719 166.285156 136.03125 165.957031 136.046875 C 164.515625 136.121094 164.203125 136.105469 163.855469 135.167969 C 163.46875 134.117188 163.847656 133.789062 163.988281 133.667969 C 165.367188 132.46875 170.335938 133.40625 172.125 134.371094 C 173.304688 135.003906 174.359375 135.6875 174.316406 137.023438 C 174.316406 137.355469 174.171875 137.609375 173.890625 137.785156 C 173.449219 137.953125 173.042969 137.894531 172.667969 137.605469 C 170.949219 136.539062 169.074219 136.011719 167.050781 136.011719 Z M 167.046875 136.011719 " fill-opacity="1" fill-rule="nonzero"/></svg>