<svg xmlns="http://www.w3.org/2000/svg" xmlns:xlink="http://www.w3.org/1999/xlink" width="400" zoomAndPan="magnify" viewBox="0 0 300 299.999988" height="400" preserveAspectRatio="xMidYMid meet" version="1.0"><defs><clipPath id="4832d2cf31"><path d="M 83.398438 30.269531 L 216.589844 30.269531 L 216.589844 269.730469 L 83.398438 269.730469 Z M 83.398438 30.269531 " clip-rule="nonzero"/></clipPath></defs><path fill="#a9a0f0" d="M 150.035156 38.390625 C 148.855469 38.390625 147.898438 39.347656 147.898438 40.527344 L 147.898438 47.28125 C 147.898438 48.460938 148.855469 49.417969 150.035156 49.417969 C 151.21875 49.417969 152.171875 48.460938 152.171875 47.28125 L 152.171875 40.527344 C 152.171875 39.347656 151.21875 38.390625 150.035156 38.390625 " fill-opacity="1" fill-rule="nonzero"/><g clip-path="url(#4832d2cf31)"><path fill="#a9a0f0" d="M 212.316406 114.734375 L 87.671875 114.734375 L 87.671875 97.722656 C 87.671875 86.636719 93.019531 80.957031 98.183594 75.460938 C 101.25 72.199219 104.167969 69.101562 105.523438 65.148438 L 194.460938 65.148438 C 195.820312 69.101562 198.738281 72.203125 201.804688 75.460938 C 206.972656 80.957031 212.316406 86.636719 212.316406 97.722656 Z M 212.316406 205.355469 L 87.671875 205.355469 L 87.671875 119.011719 L 212.316406 119.011719 Z M 212.316406 254.601562 C 212.316406 257.144531 210.308594 259.214844 207.847656 259.214844 L 92.222656 259.214844 C 89.671875 259.214844 87.671875 257.1875 87.671875 254.601562 L 87.671875 209.632812 L 212.316406 209.632812 Z M 202.09375 265.457031 L 97.894531 265.457031 C 96.496094 265.457031 95.246094 264.664062 94.535156 263.492188 L 205.46875 263.492188 C 204.773438 264.671875 203.523438 265.457031 202.09375 265.457031 Z M 103.652344 57.539062 L 196.335938 57.539062 C 197.261719 57.539062 198.007812 58.269531 198.007812 59.164062 C 198.007812 60.125 197.273438 60.875 196.335938 60.875 L 103.652344 60.875 C 102.777344 60.875 102.0625 60.105469 102.0625 59.164062 C 102.0625 58.300781 102.804688 57.539062 103.652344 57.539062 Z M 142.605469 38.21875 C 142.605469 36.226562 144.226562 34.542969 146.144531 34.542969 L 153.84375 34.542969 C 155.757812 34.542969 157.378906 36.226562 157.378906 38.21875 L 157.378906 53.265625 L 142.605469 53.265625 Z M 204.917969 72.535156 C 202.324219 69.773438 200.078125 67.304688 198.882812 64.550781 C 200.886719 63.585938 202.28125 61.542969 202.28125 59.164062 C 202.28125 55.914062 199.613281 53.265625 196.335938 53.265625 L 161.652344 53.265625 L 161.652344 38.21875 C 161.652344 33.835938 158.152344 30.269531 153.84375 30.269531 L 146.144531 30.269531 C 141.835938 30.269531 138.332031 33.835938 138.332031 38.21875 L 138.332031 53.265625 L 103.652344 53.265625 C 100.417969 53.265625 97.785156 55.914062 97.785156 59.164062 C 97.785156 61.535156 99.152344 63.5625 101.113281 64.535156 C 99.917969 67.296875 97.667969 69.769531 95.070312 72.535156 C 89.871094 78.0625 83.398438 84.941406 83.398438 97.722656 L 83.398438 254.601562 C 83.398438 258.675781 86.148438 262.085938 89.867188 263.128906 C 90.695312 266.851562 94.03125 269.730469 97.894531 269.730469 L 202.09375 269.730469 C 206.027344 269.730469 209.316406 266.90625 210.125 263.148438 C 213.835938 262.121094 216.589844 258.695312 216.589844 254.601562 L 216.589844 97.722656 C 216.589844 84.945312 210.117188 78.0625 204.917969 72.535156 " fill-opacity="1" fill-rule="nonzero"/></g><path fill="#a9a0f0" d="M 198.429688 94.214844 L 198.429688 105.671875 C 198.429688 106.855469 199.386719 107.8125 200.570312 107.8125 C 201.75 107.8125 202.707031 106.855469 202.707031 105.671875 L 202.707031 94.214844 C 202.707031 93.035156 201.75 92.078125 200.570312 92.078125 C 199.386719 92.078125 198.429688 93.035156 198.429688 94.214844 " fill-opacity="1" fill-rule="nonzero"/><path fill="#a9a0f0" d="M 200.570312 253.488281 C 201.75 253.488281 202.707031 252.53125 202.707031 251.351562 L 202.707031 221.597656 C 202.707031 220.417969 201.75 219.460938 200.570312 219.460938 C 199.386719 219.460938 198.429688 220.417969 198.429688 221.597656 L 198.429688 251.351562 C 198.429688 252.53125 199.386719 253.488281 200.570312 253.488281 " fill-opacity="1" fill-rule="nonzero"/><path fill="#a9a0f0" d="M 200.570312 195.695312 C 201.75 195.695312 202.707031 194.738281 202.707031 193.558594 L 202.707031 130.808594 C 202.707031 129.625 201.75 128.667969 200.570312 128.667969 C 199.386719 128.667969 198.429688 129.625 198.429688 130.808594 L 198.429688 193.558594 C 198.429688 194.738281 199.386719 195.695312 200.570312 195.695312 " fill-opacity="1" fill-rule="nonzero"/><path fill="#a9a0f0" d="M 154.4375 138.671875 L 156.382812 138.671875 C 158.078125 138.671875 158.925781 139.785156 158.925781 141.835938 C 158.925781 143.886719 158.078125 145 156.382812 145 L 154.4375 145 Z M 154.4375 148.332031 L 156.046875 148.332031 L 159.601562 155.257812 L 163.324219 155.257812 L 159.433594 147.648438 C 161.378906 146.710938 162.480469 144.65625 162.480469 141.75 C 162.480469 137.730469 160.277344 135.339844 156.382812 135.339844 L 151.054688 135.339844 L 151.054688 155.257812 L 154.4375 155.257812 L 154.4375 148.332031 " fill-opacity="1" fill-rule="nonzero"/><path fill="#a9a0f0" d="M 148.089844 151.921875 L 141.402344 151.921875 L 141.402344 146.710938 L 147.328125 146.710938 L 147.328125 143.546875 L 141.402344 143.546875 L 141.402344 138.671875 L 147.835938 138.671875 L 147.835938 135.339844 L 137.933594 135.339844 L 137.933594 155.257812 L 148.089844 155.257812 L 148.089844 151.921875 " fill-opacity="1" fill-rule="nonzero"/><path fill="#a9a0f0" d="M 125.488281 149.53125 C 125.488281 147.480469 125.320312 144.058594 125.066406 141.835938 L 125.148438 141.75 C 125.65625 143.203125 126.421875 145 127.011719 146.625 L 130.738281 155.257812 L 134.207031 155.257812 L 134.207031 135.339844 L 130.820312 135.339844 L 130.820312 141.410156 C 130.820312 143.203125 130.992188 146.453125 131.246094 148.675781 L 131.160156 148.761719 C 130.738281 147.5625 130.144531 145.9375 129.636719 144.65625 L 125.488281 135.339844 L 122.101562 135.339844 L 122.101562 155.257812 L 125.488281 155.257812 L 125.488281 149.53125 " fill-opacity="1" fill-rule="nonzero"/><path fill="#a9a0f0" d="M 119.140625 151.921875 L 112.453125 151.921875 L 112.453125 146.710938 L 118.378906 146.710938 L 118.378906 143.546875 L 112.453125 143.546875 L 112.453125 138.671875 L 118.886719 138.671875 L 118.886719 135.339844 L 108.984375 135.339844 L 108.984375 155.257812 L 119.140625 155.257812 L 119.140625 151.921875 " fill-opacity="1" fill-rule="nonzero"/><path fill="#a9a0f0" d="M 135.644531 172.785156 L 137.507812 172.785156 C 139.203125 172.785156 140.046875 173.894531 140.046875 175.949219 C 140.046875 178 139.203125 179.109375 137.507812 179.109375 L 135.644531 179.109375 Z M 132.175781 189.367188 L 135.644531 189.367188 L 135.644531 182.445312 L 137.167969 182.445312 L 140.726562 189.367188 L 144.535156 189.367188 L 140.554688 181.761719 C 142.503906 180.820312 143.601562 178.769531 143.601562 175.863281 C 143.601562 171.84375 141.402344 169.449219 137.59375 169.449219 L 132.175781 169.449219 L 132.175781 189.367188 " fill-opacity="1" fill-rule="nonzero"/><path fill="#a9a0f0" d="M 173.058594 177.65625 L 173.058594 169.449219 L 169.671875 169.449219 L 169.671875 189.367188 L 173.058594 189.367188 L 173.058594 183.128906 L 174.328125 181.25 L 178.390625 189.367188 L 182.371094 189.367188 L 176.191406 178.085938 L 181.523438 169.449219 L 177.546875 169.449219 L 174.246094 175.265625 L 173.058594 177.65625 " fill-opacity="1" fill-rule="nonzero"/><path fill="#a9a0f0" d="M 146.648438 189.367188 L 150.121094 189.367188 L 150.121094 169.449219 L 146.648438 169.449219 L 146.648438 189.367188 " fill-opacity="1" fill-rule="nonzero"/><path fill="#a9a0f0" d="M 182.878906 155.257812 L 186.347656 155.257812 L 186.347656 149.015625 L 191.003906 135.339844 L 187.363281 135.339844 L 185.585938 141.320312 C 185.332031 142.09375 184.910156 143.546875 184.65625 144.484375 L 184.570312 144.484375 C 184.316406 143.546875 183.894531 142.09375 183.640625 141.410156 L 181.691406 135.339844 L 178.136719 135.339844 L 182.878906 149.015625 L 182.878906 155.257812 " fill-opacity="1" fill-rule="nonzero"/><path fill="#a9a0f0" d="M 162.5625 175.519531 C 162.5625 177.316406 162.734375 180.566406 163.070312 182.785156 L 162.988281 182.871094 C 162.480469 181.675781 161.886719 180.050781 161.378906 178.769531 L 157.230469 169.449219 L 153.84375 169.449219 L 153.84375 189.367188 L 157.230469 189.367188 L 157.230469 183.640625 C 157.230469 181.589844 157.0625 178.171875 156.804688 175.949219 L 156.890625 175.863281 C 157.398438 177.316406 158.160156 179.109375 158.753906 180.734375 L 162.5625 189.367188 L 165.949219 189.367188 L 165.949219 169.449219 L 162.5625 169.449219 L 162.5625 175.519531 " fill-opacity="1" fill-rule="nonzero"/><path fill="#a9a0f0" d="M 125.488281 182.785156 C 125.488281 184.925781 124.558594 186.035156 122.867188 186.035156 L 121.085938 186.035156 L 121.085938 172.785156 L 122.867188 172.785156 C 124.558594 172.785156 125.488281 173.808594 125.488281 175.863281 Z M 122.78125 169.449219 L 117.617188 169.449219 L 117.617188 189.367188 L 122.867188 189.367188 C 126.757812 189.367188 128.957031 186.976562 128.957031 182.871094 L 128.957031 175.863281 C 128.957031 171.84375 126.757812 169.449219 122.78125 169.449219 " fill-opacity="1" fill-rule="nonzero"/><path fill="#a9a0f0" d="M 171.027344 155.601562 C 174.75 155.601562 176.867188 153.378906 176.953125 149.273438 L 176.953125 144.230469 L 170.859375 144.230469 L 170.859375 147.394531 L 173.652344 147.394531 L 173.652344 149.273438 C 173.652344 151.328125 172.722656 152.179688 171.027344 152.179688 C 169.421875 152.179688 168.574219 151.328125 168.574219 149.273438 L 168.574219 141.320312 C 168.574219 139.273438 169.421875 138.414062 171.027344 138.414062 C 172.550781 138.414062 173.3125 139.273438 173.398438 141.234375 L 176.867188 141.234375 C 176.699219 137.21875 174.667969 134.996094 171.027344 134.996094 C 167.21875 134.996094 164.933594 137.21875 164.933594 141.320312 L 164.933594 149.273438 C 164.933594 153.378906 167.21875 155.601562 171.027344 155.601562 " fill-opacity="1" fill-rule="nonzero"/></svg>