<svg xmlns="http://www.w3.org/2000/svg" xmlns:xlink="http://www.w3.org/1999/xlink" width="400" zoomAndPan="magnify" viewBox="0 0 300 299.999988" height="400" preserveAspectRatio="xMidYMid meet" version="1.0"><defs><clipPath id="1153658dc5"><path d="M 30.066406 54 L 269.933594 54 L 269.933594 245.988281 L 30.066406 245.988281 Z M 30.066406 54 " clip-rule="nonzero"/></clipPath></defs><path fill="#a9a0f0" d="M 249.359375 111.328125 C 249.484375 111.34375 249.605469 111.355469 249.726562 111.355469 C 250.859375 111.355469 251.855469 110.53125 252.035156 109.378906 C 253.058594 102.898438 253.816406 96.21875 254.28125 89.53125 C 254.371094 88.238281 253.402344 87.125 252.113281 87.035156 C 250.835938 86.90625 249.703125 87.910156 249.617188 89.203125 C 249.160156 95.761719 248.417969 102.300781 247.414062 108.652344 C 247.210938 109.925781 248.085938 111.121094 249.359375 111.328125 " fill-opacity="1" fill-rule="nonzero"/><path fill="#a9a0f0" d="M 247.609375 121.039062 C 246.363281 120.789062 245.109375 121.585938 244.839844 122.851562 C 239.136719 150.222656 228.722656 178.617188 212.996094 209.660156 C 212.410156 210.8125 212.871094 212.21875 214.023438 212.804688 C 214.363281 212.972656 214.722656 213.054688 215.078125 213.054688 C 215.933594 213.054688 216.753906 212.585938 217.167969 211.773438 C 233.082031 180.363281 243.632812 151.585938 249.421875 123.808594 C 249.6875 122.542969 248.871094 121.300781 247.609375 121.039062 " fill-opacity="1" fill-rule="nonzero"/><path fill="#a9a0f0" d="M 190.488281 189.351562 C 185.007812 200.089844 175.230469 207.519531 163.472656 209.953125 C 158.804688 198.984375 159.207031 186.332031 164.636719 175.773438 C 170.25 164.929688 180.035156 157.484375 191.671875 155.140625 C 196.421875 166.019531 196.011719 178.675781 190.488281 189.351562 Z M 192.675781 150.210938 C 179 152.34375 166.964844 161.09375 160.476562 173.628906 C 154.113281 186.011719 153.929688 200.957031 159.984375 213.597656 C 160.378906 214.417969 161.207031 214.925781 162.09375 214.925781 C 162.21875 214.925781 162.34375 214.917969 162.46875 214.894531 C 176.492188 212.621094 188.222656 204.085938 194.648438 191.484375 C 201.117188 178.992188 201.296875 164.039062 195.136719 151.488281 C 194.683594 150.570312 193.710938 150.042969 192.675781 150.210938 " fill-opacity="1" fill-rule="nonzero"/><path fill="#a9a0f0" d="M 154.230469 208.660156 C 142.992188 205.363281 133.0625 197.371094 126.972656 186.714844 C 119.636719 174.035156 118.554688 159.054688 123.921875 145.351562 C 138.238281 147.5625 150.496094 156.015625 157.746094 168.742188 C 158.382812 169.859375 159.816406 170.25 160.9375 169.617188 C 162.058594 168.976562 162.453125 167.550781 161.808594 166.425781 C 153.527344 151.878906 139.277344 142.417969 122.722656 140.46875 C 121.675781 140.332031 120.710938 140.914062 120.300781 141.863281 C 113.589844 157.371094 114.542969 174.574219 122.917969 189.050781 C 129.59375 200.730469 140.527344 209.511719 152.914062 213.148438 C 153.136719 213.210938 153.359375 213.242188 153.574219 213.242188 C 154.585938 213.242188 155.519531 212.582031 155.816406 211.566406 C 156.183594 210.324219 155.472656 209.023438 154.230469 208.660156 " fill-opacity="1" fill-rule="nonzero"/><g clip-path="url(#1153658dc5)"><path fill="#a9a0f0" d="M 257.878906 241.308594 L 88.542969 241.308594 C 87.175781 241.308594 86.066406 240.132812 86.066406 238.6875 C 86.066406 237.273438 87.152344 236.164062 88.542969 236.164062 L 257.878906 236.164062 C 259.296875 236.164062 260.445312 237.296875 260.445312 238.6875 C 260.445312 240.109375 259.269531 241.308594 257.878906 241.308594 Z M 103.742188 180.917969 C 103.722656 180.859375 103.707031 180.804688 103.683594 180.75 C 101.566406 175.445312 99.539062 169.957031 97.605469 164.46875 C 97.597656 164.441406 97.582031 164.414062 97.570312 164.386719 C 89.863281 142.066406 83.878906 117.246094 81.886719 90.519531 C 81.882812 90.503906 81.886719 90.492188 81.886719 90.476562 C 81.875 90.347656 81.863281 90.21875 81.855469 90.089844 C 81.109375 79.886719 80.941406 69.40625 81.488281 58.679688 L 264.929688 58.679688 C 268.59375 130.414062 240.464844 191.382812 218.515625 231.488281 L 127.996094 231.488281 C 120.121094 217.152344 111.453125 200.144531 103.742188 180.917969 Z M 80.855469 179.28125 C 70.785156 179.28125 60.8125 175.277344 52.792969 168.015625 C 44.875 160.757812 39.910156 151.113281 38.808594 140.855469 L 34.925781 104.535156 L 34.878906 103.9375 C 34.808594 103.039062 34.742188 102.253906 34.742188 101.53125 C 34.742188 95.191406 36.910156 89.417969 41.019531 84.828125 C 44.960938 80.328125 50.542969 77.484375 56.875 76.804688 C 57.84375 76.722656 58.734375 76.640625 59.546875 76.640625 L 76.523438 76.640625 C 76.621094 81.113281 76.78125 84.863281 77.027344 88.335938 L 59.546875 88.335938 C 58.875 88.335938 58.238281 88.335938 57.917969 88.441406 C 54.550781 88.785156 51.566406 90.304688 49.558594 92.675781 C 47.445312 95.042969 46.28125 98.191406 46.28125 101.53125 C 46.28125 101.941406 46.316406 102.347656 46.386719 103.179688 L 50.273438 139.667969 C 51.054688 147.054688 54.671875 154.0625 60.484375 159.402344 C 66.332031 164.679688 73.566406 167.585938 80.855469 167.585938 L 93.726562 167.585938 C 95.121094 171.5625 96.570312 175.464844 98.058594 179.28125 Z M 92.121094 162.90625 L 80.855469 162.90625 C 74.726562 162.90625 68.605469 160.429688 63.632812 155.941406 C 58.679688 151.386719 55.585938 145.433594 54.925781 139.175781 L 51.046875 102.933594 C 51.046875 102.859375 51.011719 102.3125 51.003906 102.234375 C 50.984375 102.03125 50.957031 101.78125 50.957031 101.53125 C 50.957031 99.308594 51.679688 97.324219 53.089844 95.742188 C 54.367188 94.234375 56.203125 93.320312 58.714844 93.039062 C 58.941406 92.996094 59.21875 93.011719 59.546875 93.015625 L 77.382812 93.015625 C 79.464844 118.1875 85 141.640625 92.121094 162.90625 Z M 257.878906 231.488281 L 223.839844 231.488281 C 246.105469 190.445312 273.832031 128.761719 269.476562 56.199219 C 269.402344 54.964844 268.378906 54.003906 267.140625 54.003906 L 79.277344 54.003906 C 78.042969 54.003906 77.019531 54.964844 76.941406 56.199219 C 76.625 61.515625 76.484375 66.769531 76.492188 71.964844 L 59.546875 71.964844 C 58.609375 71.964844 57.585938 72.046875 56.242188 72.164062 C 48.871094 72.960938 42.214844 76.359375 37.515625 81.726562 C 32.714844 87.09375 30.066406 94.128906 30.066406 101.53125 C 30.066406 102.363281 30.132812 103.269531 30.214844 104.300781 L 34.15625 141.355469 C 35.378906 152.746094 40.878906 163.4375 49.640625 171.46875 C 58.535156 179.523438 69.621094 183.957031 80.855469 183.957031 L 99.921875 183.957031 C 107.183594 201.859375 115.226562 217.820312 122.667969 231.488281 L 88.542969 231.488281 C 84.597656 231.488281 81.386719 234.714844 81.386719 238.6875 C 81.386719 242.714844 84.597656 245.988281 88.542969 245.988281 L 257.878906 245.988281 C 261.875 245.988281 265.125 242.714844 265.125 238.6875 C 265.125 234.714844 261.875 231.488281 257.878906 231.488281 " fill-opacity="1" fill-rule="nonzero"/></g></svg>