<svg xmlns="http://www.w3.org/2000/svg" xmlns:xlink="http://www.w3.org/1999/xlink" width="400" zoomAndPan="magnify" viewBox="0 0 300 299.999988" height="400" preserveAspectRatio="xMidYMid meet" version="1.0"><defs><clipPath id="68ebbb312c"><path d="M 164.867188 30.078125 L 236.101562 30.078125 L 236.101562 54.597656 L 164.867188 54.597656 Z M 164.867188 30.078125 " clip-rule="nonzero"/></clipPath><clipPath id="b72908764a"><path d="M 63.601562 42 L 207 42 L 207 270 L 63.601562 270 Z M 63.601562 42 " clip-rule="nonzero"/></clipPath></defs><path fill="#a9a0f0" d="M 168.285156 63.097656 C 167.222656 62.488281 165.878906 62.871094 165.277344 63.925781 L 147.769531 94.816406 L 144.351562 92.859375 L 161.953125 61.867188 C 162.554688 60.8125 162.183594 59.464844 161.125 58.863281 C 160.066406 58.265625 158.722656 58.636719 158.117188 59.691406 L 139.429688 92.59375 C 138.828125 93.648438 139.199219 94.992188 140.253906 95.597656 L 147.5 99.742188 C 147.839844 99.933594 148.214844 100.03125 148.597656 100.03125 C 148.792969 100.03125 148.988281 100.007812 149.179688 99.957031 C 149.746094 99.800781 150.222656 99.425781 150.515625 98.914062 L 169.121094 66.101562 C 169.71875 65.042969 169.347656 63.695312 168.285156 63.097656 " fill-opacity="1" fill-rule="nonzero"/><g clip-path="url(#68ebbb312c)"><path fill="#a9a0f0" d="M 235.753906 31.09375 C 235.339844 30.675781 234.78125 30.4375 234.191406 30.4375 L 178.632812 30.171875 L 176.1875 30.085938 C 175.328125 30.019531 174.558594 30.503906 174.160156 31.246094 L 165.277344 47.082031 C 164.679688 48.140625 165.054688 49.488281 166.117188 50.085938 C 167.167969 50.6875 168.519531 50.3125 169.121094 49.25 L 176.914062 35.445312 L 177.398438 34.542969 L 231.953125 34.839844 L 231.914062 38.804688 L 181.011719 38.550781 C 181.003906 38.550781 181 38.550781 180.996094 38.550781 C 180.207031 38.550781 179.476562 38.976562 179.085938 39.664062 L 172.535156 51.128906 C 171.929688 52.1875 172.296875 53.535156 173.351562 54.140625 C 173.699219 54.335938 174.074219 54.429688 174.445312 54.429688 C 175.210938 54.429688 175.957031 54.03125 176.359375 53.316406 L 182.273438 42.96875 L 234.082031 43.226562 C 234.089844 43.226562 234.09375 43.226562 234.097656 43.226562 C 235.304688 43.226562 236.289062 42.253906 236.300781 41.042969 L 236.386719 32.664062 C 236.394531 32.078125 236.164062 31.511719 235.753906 31.09375 " fill-opacity="1" fill-rule="nonzero"/></g><g clip-path="url(#b72908764a)"><path fill="#a9a0f0" d="M 198.8125 113.175781 L 71.042969 113.175781 C 69.34375 113.175781 68.011719 111.859375 68.011719 110.175781 C 68.011719 108.476562 69.371094 107.089844 71.042969 107.089844 L 198.8125 107.089844 C 200.484375 107.089844 201.847656 108.476562 201.847656 110.175781 C 201.847656 111.859375 200.515625 113.175781 198.8125 113.175781 Z M 187.34375 170.890625 L 184.136719 199.636719 C 182.671875 212.652344 181.269531 224.988281 179.945312 236.671875 L 177.144531 261.402344 C 176.941406 263.34375 174.097656 265.511719 170.34375 265.511719 L 99.515625 265.511719 C 95.757812 265.511719 92.914062 263.34375 92.710938 261.378906 C 91.582031 251.386719 90.40625 240.828125 89.167969 229.699219 L 85.808594 199.628906 C 83.003906 175.234375 79.949219 148.078125 76.5625 117.585938 L 193.289062 117.585938 C 191.183594 136.605469 189.199219 154.328125 187.34375 170.890625 Z M 134.972656 47.195312 C 165.722656 47.195312 190.875 71.886719 192.023438 102.679688 L 77.921875 102.679688 C 79.070312 71.886719 104.222656 47.195312 134.972656 47.195312 Z M 198.8125 102.679688 L 196.367188 102.679688 C 195.203125 69.464844 168.148438 42.789062 134.972656 42.789062 C 101.796875 42.789062 74.742188 69.464844 73.578125 102.679688 L 71.042969 102.679688 C 66.941406 102.679688 63.601562 106.042969 63.601562 110.175781 C 63.601562 114.261719 66.941406 117.585938 71.042969 117.585938 L 72.128906 117.585938 C 75.535156 148.273438 78.609375 175.609375 81.429688 200.132812 L 84.785156 230.1875 C 86.023438 241.320312 87.199219 251.875 88.324219 261.859375 C 88.796875 266.378906 93.710938 269.921875 99.515625 269.921875 L 170.34375 269.921875 C 176.144531 269.921875 181.058594 266.378906 181.527344 261.875 L 184.328125 237.167969 C 185.65625 225.484375 187.058594 213.144531 188.515625 200.128906 L 191.730469 171.382812 C 193.59375 154.683594 195.597656 136.78125 197.726562 117.585938 L 198.8125 117.585938 C 202.917969 117.585938 206.257812 114.261719 206.257812 110.175781 C 206.257812 106.042969 202.917969 102.679688 198.8125 102.679688 " fill-opacity="1" fill-rule="nonzero"/></g><path fill="#a9a0f0" d="M 182.605469 142.183594 C 182.679688 142.191406 182.757812 142.195312 182.835938 142.195312 C 183.949219 142.195312 184.90625 141.351562 185.023438 140.21875 L 186.507812 125.839844 C 186.636719 124.628906 185.753906 123.542969 184.542969 123.417969 C 183.351562 123.300781 182.25 124.175781 182.125 125.386719 L 180.636719 139.761719 C 180.511719 140.976562 181.390625 142.058594 182.605469 142.183594 " fill-opacity="1" fill-rule="nonzero"/><path fill="#a9a0f0" d="M 170.550781 256.765625 C 170.628906 256.777344 170.703125 256.78125 170.785156 256.78125 C 171.894531 256.78125 172.855469 255.9375 172.972656 254.800781 L 183.714844 152.128906 C 183.839844 150.917969 182.960938 149.832031 181.75 149.707031 C 180.542969 149.585938 179.449219 150.457031 179.328125 151.667969 L 168.585938 254.34375 C 168.460938 255.554688 169.339844 256.640625 170.550781 256.765625 " fill-opacity="1" fill-rule="nonzero"/></svg>