<svg xmlns="http://www.w3.org/2000/svg" xmlns:xlink="http://www.w3.org/1999/xlink" width="400" zoomAndPan="magnify" viewBox="0 0 300 299.999988" height="400" preserveAspectRatio="xMidYMid meet" version="1.0"><path fill="#a9a0f0" d="M 132.585938 116.773438 C 134.644531 116.773438 136.257812 118.410156 136.257812 120.5 C 136.257812 122.554688 134.613281 124.226562 132.585938 124.226562 C 130.605469 124.226562 128.992188 122.554688 128.992188 120.5 C 128.992188 118.445312 130.605469 116.773438 132.585938 116.773438 Z M 132.585938 128.109375 C 136.75 128.109375 140.140625 124.695312 140.140625 120.5 C 140.140625 116.300781 136.75 112.890625 132.585938 112.890625 C 128.464844 112.890625 125.109375 116.300781 125.109375 120.5 C 125.109375 124.695312 128.464844 128.109375 132.585938 128.109375 " fill-opacity="1" fill-rule="nonzero"/><path fill="#a9a0f0" d="M 140.734375 86.417969 C 144.199219 86.417969 147.019531 89.273438 147.019531 92.78125 C 147.019531 96.292969 144.199219 99.148438 140.734375 99.148438 C 137.269531 99.148438 134.453125 96.292969 134.453125 92.78125 C 134.453125 89.273438 137.269531 86.417969 140.734375 86.417969 Z M 140.734375 103.03125 C 146.339844 103.03125 150.898438 98.433594 150.898438 92.78125 C 150.898438 87.132812 146.339844 82.535156 140.734375 82.535156 C 135.128906 82.535156 130.570312 87.132812 130.570312 92.78125 C 130.570312 98.433594 135.128906 103.03125 140.734375 103.03125 " fill-opacity="1" fill-rule="nonzero"/><path fill="#a9a0f0" d="M 137.582031 254.652344 C 135.394531 254.652344 133.683594 252.882812 133.683594 250.617188 C 133.683594 248.433594 135.429688 246.65625 137.582031 246.65625 C 139.816406 246.65625 141.558594 248.398438 141.558594 250.617188 C 141.558594 252.882812 139.816406 254.652344 137.582031 254.652344 Z M 137.582031 242.777344 C 133.292969 242.777344 129.800781 246.292969 129.800781 250.617188 C 129.800781 254.984375 133.292969 258.535156 137.582031 258.535156 C 141.988281 258.535156 145.441406 255.058594 145.441406 250.617188 C 145.441406 246.292969 141.917969 242.777344 137.582031 242.777344 " fill-opacity="1" fill-rule="nonzero"/><path fill="#a9a0f0" d="M 165.253906 253.019531 C 164.289062 253.019531 163.507812 252.222656 163.507812 251.238281 C 163.507812 250.308594 164.304688 249.527344 165.253906 249.527344 C 166.203125 249.527344 167.003906 250.308594 167.003906 251.238281 C 167.003906 252.222656 166.21875 253.019531 165.253906 253.019531 Z M 165.253906 245.644531 C 162.152344 245.644531 159.625 248.152344 159.625 251.238281 C 159.625 254.363281 162.152344 256.902344 165.253906 256.902344 C 168.359375 256.902344 170.886719 254.363281 170.886719 251.238281 C 170.886719 248.152344 168.359375 245.644531 165.253906 245.644531 " fill-opacity="1" fill-rule="nonzero"/><path fill="#a9a0f0" d="M 154.957031 144.566406 C 156.554688 144.566406 157.855469 145.855469 157.855469 147.441406 C 157.855469 149.023438 156.554688 150.3125 154.957031 150.3125 C 153.425781 150.3125 152.132812 148.996094 152.132812 147.441406 C 152.132812 145.882812 153.425781 144.566406 154.957031 144.566406 Z M 148.246094 147.441406 C 148.246094 151.164062 151.257812 154.195312 154.957031 154.195312 C 158.695312 154.195312 161.738281 151.164062 161.738281 147.441406 C 161.738281 143.714844 158.695312 140.683594 154.957031 140.683594 C 151.257812 140.683594 148.246094 143.714844 148.246094 147.441406 " fill-opacity="1" fill-rule="nonzero"/><path fill="#a9a0f0" d="M 166.792969 113.125 C 169.449219 113.125 171.691406 115.363281 171.691406 118.015625 C 171.691406 120.753906 169.496094 122.984375 166.792969 122.984375 C 164.089844 122.984375 161.890625 120.753906 161.890625 118.015625 C 161.890625 115.363281 164.136719 113.125 166.792969 113.125 Z M 166.792969 126.867188 C 171.632812 126.867188 175.574219 122.894531 175.574219 118.015625 C 175.574219 113.179688 171.632812 109.242188 166.792969 109.242188 C 161.949219 109.242188 158.011719 113.179688 158.011719 118.015625 C 158.011719 122.894531 161.949219 126.867188 166.792969 126.867188 " fill-opacity="1" fill-rule="nonzero"/><path fill="#a9a0f0" d="M 184.640625 259.730469 C 182.429688 263.390625 179.402344 265.417969 175.632812 265.910156 L 124.683594 265.925781 C 120.664062 265.417969 117.628906 263.386719 115.414062 259.722656 C 112.015625 254.097656 110.996094 245.382812 111.316406 235.710938 L 188.730469 235.710938 C 189.058594 245.394531 188.039062 254.113281 184.640625 259.730469 Z M 111.707031 229.359375 C 111.746094 228.886719 111.792969 228.417969 111.839844 227.945312 L 188.210938 227.945312 C 188.335938 229.25 188.441406 230.542969 188.53125 231.828125 L 111.503906 231.828125 C 111.558594 231.011719 111.636719 230.183594 111.707031 229.359375 Z M 112.710938 220.605469 C 112.761719 220.253906 112.816406 219.898438 112.871094 219.546875 C 112.96875 218.878906 113.070312 218.210938 113.179688 217.550781 C 113.234375 217.203125 113.292969 216.859375 113.347656 216.519531 C 113.414062 216.121094 113.480469 215.730469 113.546875 215.339844 C 113.628906 214.871094 113.707031 214.40625 113.792969 213.941406 C 113.925781 213.183594 114.066406 212.425781 114.210938 211.671875 C 114.261719 211.394531 114.316406 211.117188 114.371094 210.839844 C 114.542969 209.957031 114.714844 209.082031 114.894531 208.214844 C 114.898438 208.195312 114.902344 208.175781 114.90625 208.15625 C 116.933594 198.375 119.40625 189.621094 121.277344 184.09375 C 121.558594 183.28125 121.835938 182.464844 122.085938 181.789062 C 122.273438 181.085938 122.429688 180.457031 122.601562 179.789062 C 122.640625 179.621094 122.691406 179.4375 122.734375 179.269531 L 177.277344 179.269531 C 177.328125 179.480469 177.390625 179.710938 177.441406 179.925781 C 177.59375 180.507812 177.75 181.089844 177.886719 181.707031 C 177.90625 181.789062 177.929688 181.871094 177.957031 181.949219 C 177.960938 181.953125 177.964844 181.960938 177.964844 181.96875 C 178.214844 182.636719 178.480469 183.398438 178.757812 184.203125 C 178.882812 184.570312 179.003906 184.925781 179.136719 185.332031 C 179.164062 185.40625 179.1875 185.484375 179.214844 185.5625 C 181.433594 192.375 184.597656 204.0625 186.679688 216.507812 C 186.699219 216.605469 186.714844 216.703125 186.730469 216.800781 C 186.820312 217.339844 186.898438 217.882812 186.984375 218.421875 C 187.269531 220.296875 187.535156 222.179688 187.757812 224.066406 L 112.253906 224.066406 C 112.394531 222.914062 112.546875 221.757812 112.710938 220.605469 Z M 176.355469 175.386719 L 123.671875 175.386719 C 123.832031 174.679688 123.980469 173.988281 124.121094 173.320312 C 124.25 172.722656 124.410156 172.082031 124.519531 171.507812 L 175.542969 171.507812 C 175.691406 172.28125 175.859375 173.101562 176.039062 173.949219 C 176.136719 174.414062 176.25 174.90625 176.355469 175.386719 Z M 117.425781 142.191406 C 116.613281 140.871094 115.738281 139.449219 114.804688 137.898438 C 105.636719 122.609375 111.878906 98.195312 124.539062 77.335938 L 175.488281 77.335938 C 188.144531 98.230469 194.378906 122.65625 185.191406 137.894531 C 184.285156 139.402344 183.433594 140.785156 182.636719 142.074219 C 176.453125 152.136719 173.621094 156.785156 174.953125 167.625 L 125.09375 167.625 C 126.4375 156.867188 123.609375 152.234375 117.425781 142.191406 Z M 139.832031 57.246094 C 140.175781 56.886719 140.367188 56.410156 140.367188 55.90625 L 140.367188 48.84375 L 159.699219 48.84375 L 159.699219 55.90625 C 159.699219 56.40625 159.890625 56.886719 160.238281 57.246094 C 164.84375 62.09375 169.183594 67.589844 173.039062 73.453125 L 126.996094 73.453125 C 130.863281 67.589844 135.210938 62.089844 139.832031 57.246094 Z M 136.757812 34.945312 C 136.757812 34.464844 137.199219 34.089844 137.582031 34.089844 L 162.410156 34.089844 C 162.871094 34.089844 163.238281 34.464844 163.238281 34.945312 L 163.238281 44.105469 C 163.238281 44.5 162.875 44.960938 162.410156 44.960938 L 137.582031 44.960938 C 137.195312 44.960938 136.757812 44.507812 136.757812 44.105469 Z M 192.558594 233.667969 C 192.1875 226.675781 191.199219 219.414062 189.9375 212.523438 C 189.828125 211.933594 189.71875 211.351562 189.605469 210.765625 C 189.527344 210.34375 189.445312 209.917969 189.367188 209.5 C 186.953125 197.148438 183.714844 186.191406 181.644531 180.726562 C 181.453125 179.867188 181.234375 179.035156 181.019531 178.230469 L 180.800781 177.378906 C 180.046875 174.265625 179.480469 171.578125 179.082031 169.242188 C 179.066406 169.164062 179.027344 169.097656 179.003906 169.023438 C 177.25 158.316406 179.582031 154.46875 185.945312 144.109375 C 186.742188 142.808594 187.601562 141.417969 188.515625 139.902344 C 201.757812 117.941406 185.941406 78.996094 163.582031 55.136719 L 163.582031 48.667969 C 165.585938 48.128906 167.121094 46.265625 167.121094 44.105469 L 167.121094 34.945312 C 167.121094 32.332031 165.007812 30.207031 162.410156 30.207031 L 137.582031 30.207031 C 135.03125 30.207031 132.875 32.378906 132.875 34.945312 L 132.875 44.105469 C 132.875 46.296875 134.445312 48.179688 136.488281 48.691406 L 136.488281 55.132812 C 114.109375 78.929688 98.261719 117.851562 111.480469 139.902344 C 112.421875 141.460938 113.300781 142.894531 114.121094 144.226562 C 120.535156 154.648438 122.890625 158.527344 120.835938 170.035156 C 120.734375 170.589844 120.636719 171.140625 120.515625 171.726562 C 120.488281 171.84375 120.464844 171.96875 120.4375 172.089844 C 120.117188 173.609375 119.742188 175.210938 119.347656 176.8125 C 119.34375 176.832031 119.328125 176.84375 119.324219 176.863281 L 119.09375 177.808594 C 118.867188 178.742188 118.628906 179.722656 118.398438 180.585938 C 118.398438 180.59375 118.394531 180.597656 118.394531 180.605469 C 118.335938 180.761719 118.265625 180.957031 118.203125 181.132812 C 115.597656 188.210938 110.769531 205.089844 108.550781 222.351562 C 108.496094 222.757812 108.453125 223.160156 108.40625 223.566406 C 108.316406 224.289062 108.222656 225.007812 108.144531 225.730469 C 108.144531 225.75 108.136719 225.773438 108.136719 225.796875 C 108.136719 225.800781 108.136719 225.800781 108.136719 225.800781 C 107.964844 227.433594 107.824219 229.054688 107.707031 230.667969 C 107.640625 231.5625 107.582031 232.453125 107.535156 233.339844 C 107.527344 233.449219 107.515625 233.5625 107.511719 233.671875 C 107.511719 233.6875 107.515625 233.695312 107.515625 233.707031 C 106.964844 244.707031 108 254.960938 112.09375 261.730469 C 114.921875 266.410156 118.996094 269.121094 124.4375 269.792969 L 150.035156 269.792969 L 175.875 269.777344 C 181.070312 269.121094 185.136719 266.414062 187.960938 261.738281 C 192.023438 255.023438 193.058594 244.839844 192.519531 233.910156 C 192.527344 233.828125 192.5625 233.75 192.558594 233.667969 " fill-opacity="1" fill-rule="nonzero"/><path fill="#a9a0f0" d="M 127.976562 198.210938 C 127.976562 197.355469 128.589844 196.8125 129.511719 196.8125 C 130.589844 196.8125 131.125 197.4375 131.125 198.601562 L 134.96875 198.601562 C 134.96875 195.183594 132.96875 193.167969 129.589844 193.167969 C 126.128906 193.167969 124.207031 195.261719 124.207031 198.058594 C 124.207031 203.722656 131.355469 204.113281 131.355469 207.140625 C 131.355469 208.070312 130.816406 208.847656 129.589844 208.847656 C 128.359375 208.847656 127.667969 208.152344 127.667969 206.675781 L 123.824219 206.675781 C 123.824219 210.402344 125.976562 212.496094 129.511719 212.496094 C 133.125 212.496094 135.277344 210.246094 135.277344 207.21875 C 135.277344 201.320312 127.976562 201.085938 127.976562 198.210938 " fill-opacity="1" fill-rule="nonzero"/><path fill="#a9a0f0" d="M 158.796875 205.820312 C 158.796875 207.605469 158.105469 208.539062 156.722656 208.539062 L 155.335938 208.539062 L 155.335938 197.125 L 156.722656 197.125 C 158.105469 197.125 158.796875 197.980469 158.796875 199.6875 Z M 156.644531 193.554688 L 151.648438 193.554688 L 151.648438 212.109375 L 156.722656 212.109375 C 160.414062 212.109375 162.566406 209.78125 162.566406 205.820312 L 162.566406 199.6875 C 162.566406 195.804688 160.414062 193.554688 156.644531 193.554688 " fill-opacity="1" fill-rule="nonzero"/><path fill="#a9a0f0" d="M 168.636719 205.433594 L 169.019531 203.335938 C 169.328125 202.015625 169.558594 199.765625 169.789062 198.210938 L 169.867188 198.210938 C 170.019531 199.765625 170.40625 202.015625 170.632812 203.335938 L 171.019531 205.433594 Z M 167.792969 193.554688 L 163.410156 212.109375 L 167.253906 212.109375 L 167.867188 209.003906 L 171.789062 209.003906 L 172.328125 212.109375 L 176.246094 212.109375 L 171.789062 193.554688 L 167.792969 193.554688 " fill-opacity="1" fill-rule="nonzero"/><path fill="#a9a0f0" d="M 145.039062 206.050781 C 145.039062 207.839844 144.347656 208.769531 142.964844 208.769531 C 141.582031 208.769531 140.8125 207.839844 140.8125 206.050781 L 140.8125 199.53125 C 140.8125 197.824219 141.582031 196.890625 142.964844 196.890625 C 144.347656 196.890625 145.039062 197.824219 145.039062 199.53125 Z M 142.964844 193.242188 C 139.195312 193.242188 136.96875 195.574219 136.96875 199.53125 L 136.96875 206.050781 C 136.96875 210.089844 139.195312 212.417969 142.964844 212.417969 C 146.652344 212.417969 148.882812 210.089844 148.882812 206.050781 L 148.882812 199.53125 C 148.882812 195.574219 146.652344 193.242188 142.964844 193.242188 " fill-opacity="1" fill-rule="nonzero"/></svg>