<svg xmlns="http://www.w3.org/2000/svg" xmlns:xlink="http://www.w3.org/1999/xlink" width="400" zoomAndPan="magnify" viewBox="0 0 300 299.999988" height="400" preserveAspectRatio="xMidYMid meet" version="1.0"><path fill="#a9a0f0" d="M 181.042969 146.878906 C 180.847656 146.878906 180.648438 146.855469 180.457031 146.804688 C 179.890625 146.664062 179.320312 146.589844 178.761719 146.589844 L 121.234375 146.589844 C 120.59375 146.589844 120.023438 146.660156 119.445312 146.804688 C 118.730469 146.984375 117.96875 146.828125 117.382812 146.371094 C 116.796875 145.917969 116.457031 145.21875 116.457031 144.476562 L 116.457031 136.699219 C 116.457031 135.957031 116.796875 135.257812 117.382812 134.804688 C 117.964844 134.351562 118.730469 134.1875 119.445312 134.371094 C 120.023438 134.515625 120.59375 134.585938 121.234375 134.585938 L 178.761719 134.585938 C 179.320312 134.585938 179.894531 134.511719 180.457031 134.371094 C 181.175781 134.1875 181.933594 134.347656 182.519531 134.804688 C 183.105469 135.257812 183.445312 135.957031 183.445312 136.699219 L 183.445312 144.476562 C 183.445312 145.21875 183.105469 145.917969 182.519531 146.371094 C 182.09375 146.703125 181.574219 146.878906 181.042969 146.878906 Z M 121.257812 141.789062 L 178.644531 141.789062 L 178.644531 139.386719 L 121.257812 139.386719 Z M 121.257812 141.789062 " fill-opacity="1" fill-rule="nonzero"/><path fill="#a9a0f0" d="M 172.484375 270 C 168.433594 270 164.441406 268.59375 161.25 266.089844 C 157.976562 268.625 154.039062 270 149.953125 270 C 145.898438 270 141.910156 268.59375 138.714844 266.089844 C 135.445312 268.625 131.503906 270 127.417969 270 C 117.28125 270 109.039062 261.683594 109.039062 251.464844 L 109.039062 154.082031 C 109.039062 147.304688 114.511719 141.789062 121.234375 141.789062 L 178.765625 141.789062 C 185.488281 141.789062 190.957031 147.304688 190.957031 154.082031 L 190.957031 251.464844 C 190.957031 261.683594 182.667969 270 172.484375 270 Z M 161.265625 260.492188 C 161.882812 260.492188 162.503906 260.730469 162.972656 261.203125 C 165.484375 263.742188 168.953125 265.199219 172.484375 265.199219 C 180.023438 265.199219 186.15625 259.039062 186.15625 251.464844 L 186.15625 154.082031 C 186.15625 149.953125 182.835938 146.589844 178.761719 146.589844 L 121.234375 146.589844 C 117.15625 146.589844 113.839844 149.949219 113.839844 154.082031 L 113.839844 251.464844 C 113.839844 259.039062 119.929688 265.199219 127.414062 265.199219 C 130.976562 265.199219 134.398438 263.769531 137.050781 261.175781 C 137.996094 260.253906 139.511719 260.265625 140.4375 261.203125 C 142.953125 263.742188 146.417969 265.199219 149.949219 265.199219 C 153.511719 265.199219 156.933594 263.769531 159.585938 261.175781 C 160.054688 260.71875 160.660156 260.492188 161.265625 260.492188 Z M 178.761719 139.386719 L 121.234375 139.386719 C 114.511719 139.386719 109.039062 133.875 109.039062 127.09375 L 109.039062 97.128906 C 109.039062 83.480469 121.019531 68.8125 132.527344 60.539062 L 132.527344 57.082031 C 132.527344 55.757812 133.601562 54.683594 134.925781 54.683594 L 165.070312 54.683594 C 166.398438 54.683594 167.472656 55.757812 167.472656 57.082031 L 167.472656 60.546875 C 178.976562 68.878906 190.957031 83.570312 190.957031 97.128906 L 190.957031 127.09375 C 190.957031 133.875 185.488281 139.386719 178.761719 139.386719 Z M 113.839844 113.609375 L 113.839844 127.09375 C 113.839844 131.226562 117.15625 134.585938 121.234375 134.585938 L 178.761719 134.585938 C 182.839844 134.585938 186.15625 131.226562 186.15625 127.09375 L 186.15625 97.128906 C 186.15625 85.4375 174.859375 71.492188 163.703125 63.761719 C 163.058594 63.3125 162.671875 62.574219 162.671875 61.789062 L 162.671875 59.484375 L 137.328125 59.484375 L 137.328125 61.789062 C 137.328125 62.578125 136.9375 63.320312 136.289062 63.765625 C 125.132812 71.429688 113.839844 85.351562 113.839844 97.128906 Z M 175.242188 121.234375 C 173.917969 121.234375 172.84375 120.160156 172.84375 118.835938 L 172.84375 96.460938 C 172.84375 95.132812 173.917969 94.058594 175.242188 94.058594 C 176.570312 94.058594 177.644531 95.132812 177.644531 96.460938 L 177.644531 118.835938 C 177.644531 120.160156 176.570312 121.234375 175.242188 121.234375 Z M 175.242188 121.234375 " fill-opacity="1" fill-rule="nonzero"/><path fill="#a9a0f0" d="M 166.117188 59.484375 L 133.789062 59.484375 C 129.84375 59.484375 126.632812 56.253906 126.632812 52.28125 L 126.632812 37.203125 C 126.632812 33.296875 129.90625 30 133.789062 30 L 166.117188 30 C 170.0625 30 173.273438 33.230469 173.273438 37.203125 L 173.273438 52.28125 C 173.273438 56.320312 170.128906 59.484375 166.117188 59.484375 Z M 133.789062 34.800781 C 132.535156 34.800781 131.433594 35.921875 131.433594 37.203125 L 131.433594 52.28125 C 131.433594 53.601562 132.488281 54.683594 133.789062 54.683594 L 166.117188 54.683594 C 167.457031 54.683594 168.472656 53.648438 168.472656 52.28125 L 168.472656 37.203125 C 168.472656 35.878906 167.414062 34.800781 166.117188 34.800781 Z M 133.789062 34.800781 " fill-opacity="1" fill-rule="nonzero"/><path fill="#a9a0f0" d="M 166.117188 59.484375 L 133.789062 59.484375 C 129.84375 59.484375 126.632812 56.253906 126.632812 52.28125 L 126.632812 47.285156 C 126.632812 45.960938 127.707031 44.886719 129.03125 44.886719 L 170.871094 44.886719 C 172.199219 44.886719 173.273438 45.960938 173.273438 47.285156 L 173.273438 52.28125 C 173.273438 56.320312 170.128906 59.484375 166.117188 59.484375 Z M 131.433594 49.6875 L 131.433594 52.28125 C 131.433594 53.601562 132.488281 54.683594 133.789062 54.683594 L 166.117188 54.683594 C 167.457031 54.683594 168.472656 53.648438 168.472656 52.28125 L 168.472656 49.6875 Z M 131.433594 49.6875 " fill-opacity="1" fill-rule="nonzero"/><path fill="#a9a0f0" d="M 188.554688 240.230469 L 111.441406 240.230469 C 110.113281 240.230469 109.039062 239.152344 109.039062 237.828125 L 109.039062 165.316406 C 109.039062 163.992188 110.113281 162.917969 111.441406 162.917969 L 188.554688 162.917969 C 189.882812 162.917969 190.957031 163.992188 190.957031 165.316406 L 190.957031 237.828125 C 190.957031 239.152344 189.882812 240.230469 188.554688 240.230469 Z M 113.839844 235.425781 L 186.15625 235.425781 L 186.15625 167.71875 L 113.839844 167.71875 Z M 113.839844 235.425781 " fill-opacity="1" fill-rule="nonzero"/><path fill="#a9a0f0" d="M 149.949219 223.996094 C 137.59375 223.996094 133.195312 215.863281 133.195312 208.246094 C 133.195312 203.667969 136.40625 198.878906 140.125 193.332031 C 142.648438 189.570312 145.507812 185.308594 147.78125 180.519531 C 148.179688 179.683594 149.019531 179.148438 149.941406 179.148438 C 149.945312 179.148438 149.949219 179.148438 149.949219 179.148438 C 150.871094 179.148438 151.710938 179.675781 152.113281 180.503906 C 154.460938 185.363281 157.332031 189.617188 159.863281 193.371094 C 163.742188 199.117188 166.804688 203.65625 166.804688 208.246094 C 166.804688 215.863281 162.375 223.996094 149.949219 223.996094 Z M 149.964844 186.730469 C 148.050781 190.136719 145.992188 193.203125 144.113281 196.007812 C 140.832031 200.902344 137.996094 205.128906 137.996094 208.246094 C 137.996094 212.335938 139.550781 219.195312 149.953125 219.195312 C 160.4375 219.195312 162.003906 212.335938 162.003906 208.246094 C 162.003906 205.125 159.167969 200.921875 155.882812 196.058594 C 153.988281 193.25 151.914062 190.171875 149.964844 186.730469 Z M 149.964844 186.730469 " fill-opacity="1" fill-rule="nonzero"/></svg>