<svg xmlns="http://www.w3.org/2000/svg" xmlns:xlink="http://www.w3.org/1999/xlink" width="400" zoomAndPan="magnify" viewBox="0 0 300 299.999988" height="400" preserveAspectRatio="xMidYMid meet" version="1.0"><defs><clipPath id="80c600e08a"><path d="M 54.75 30 L 245.25 30 L 245.25 270 L 54.75 270 Z M 54.75 30 " clip-rule="nonzero"/></clipPath></defs><g clip-path="url(#80c600e08a)"><path fill="currentColor" d="M 230.617188 259.113281 L 69.355469 259.113281 C 64.292969 259.113281 60.066406 255.027344 59.183594 249.652344 L 240.792969 249.652344 C 239.90625 255.027344 235.679688 259.113281 230.617188 259.113281 Z M 214.949219 265.8125 L 85.027344 265.8125 C 83.691406 265.8125 82.3125 264.910156 81.089844 263.300781 L 218.84375 263.300781 C 217.609375 264.925781 216.261719 265.8125 214.949219 265.8125 Z M 88.113281 219.335938 L 147.105469 219.335938 L 147.105469 240.191406 C 147.105469 243.097656 144.769531 245.464844 141.902344 245.464844 L 93.316406 245.464844 C 90.496094 245.464844 88.113281 243.046875 88.113281 240.191406 Z M 88.113281 135.511719 L 147.105469 135.511719 L 147.105469 215.148438 L 88.113281 215.148438 Z M 88.113281 118.933594 C 88.113281 109.050781 96.082031 97.996094 106.75 97.996094 L 107.246094 97.996094 C 108.402344 97.996094 109.339844 97.058594 109.339844 95.902344 L 109.339844 42.058594 L 125.878906 42.058594 L 125.878906 95.902344 C 125.878906 97.058594 126.816406 97.996094 127.972656 97.996094 L 128.554688 97.996094 C 139.171875 97.996094 147.105469 109.050781 147.105469 118.933594 L 147.105469 131.324219 L 88.113281 131.324219 Z M 105.363281 35.777344 C 105.363281 34.929688 106.085938 34.1875 106.914062 34.1875 L 128.304688 34.1875 C 129.136719 34.1875 129.859375 34.929688 129.859375 35.777344 L 129.859375 36.277344 C 129.859375 37.128906 129.136719 37.871094 128.304688 37.871094 L 106.914062 37.871094 C 106.085938 37.871094 105.363281 37.128906 105.363281 36.277344 Z M 173.574219 243.117188 L 189.160156 243.117188 C 190.316406 243.117188 191.253906 242.183594 191.253906 241.023438 L 191.253906 186.402344 C 191.492188 186.414062 191.734375 186.398438 191.972656 186.402344 C 192.058594 186.402344 192.140625 186.425781 192.230469 186.425781 C 192.316406 186.425781 192.394531 186.402344 192.484375 186.402344 C 192.722656 186.398438 192.964844 186.414062 193.203125 186.402344 L 193.203125 241.023438 C 193.203125 242.183594 194.140625 243.117188 195.296875 243.117188 L 210.882812 243.117188 C 213.039062 243.117188 214.96875 244.082031 215.960938 245.464844 L 168.5 245.464844 C 169.492188 244.082031 171.417969 243.117188 173.574219 243.117188 Z M 174.675781 167.167969 L 174.675781 98.5 L 209.785156 98.5 L 209.785156 167.167969 C 209.785156 175.476562 201.90625 182.238281 192.230469 182.238281 C 182.546875 182.238281 174.675781 175.476562 174.675781 167.167969 Z M 243.054688 245.464844 L 220.523438 245.464844 C 219.433594 241.722656 215.542969 238.929688 210.882812 238.929688 L 197.390625 238.929688 L 197.390625 185.820312 C 206.886719 183.753906 213.972656 176.203125 213.972656 167.167969 L 213.972656 96.40625 C 213.972656 95.246094 213.035156 94.3125 211.878906 94.3125 L 172.578125 94.3125 C 171.421875 94.3125 170.484375 95.246094 170.484375 96.40625 L 170.484375 167.167969 C 170.484375 176.203125 177.574219 183.753906 187.066406 185.816406 L 187.066406 238.929688 L 173.574219 238.929688 C 168.917969 238.929688 165.023438 241.722656 163.9375 245.464844 L 149.691406 245.464844 C 150.703125 243.957031 151.292969 242.140625 151.292969 240.191406 L 151.292969 118.933594 C 151.292969 107.539062 142.3125 94.847656 130.066406 93.871094 L 130.066406 41.699219 C 132.359375 40.941406 134.046875 38.835938 134.046875 36.277344 L 134.046875 35.777344 C 134.046875 32.589844 131.472656 30 128.304688 30 L 106.914062 30 C 103.75 30 101.175781 32.589844 101.175781 35.777344 L 101.175781 36.277344 C 101.175781 38.835938 102.863281 40.941406 105.152344 41.699219 L 105.152344 93.878906 C 93.671875 94.847656 83.925781 106.140625 83.925781 118.933594 L 83.925781 240.191406 C 83.925781 242.140625 84.519531 243.957031 85.527344 245.464844 L 56.921875 245.464844 C 55.765625 245.464844 54.828125 246.402344 54.828125 247.554688 C 54.828125 256.238281 61.34375 263.300781 69.355469 263.300781 L 76.265625 263.300781 C 78.5 267.519531 81.609375 270 85.027344 270 L 214.949219 270 C 218.335938 270 221.378906 267.570312 223.691406 263.300781 L 230.617188 263.300781 C 238.628906 263.300781 245.148438 256.238281 245.148438 247.554688 C 245.148438 246.402344 244.210938 245.464844 243.054688 245.464844 " fill-opacity="1" fill-rule="nonzero"/></g><path fill="currentColor" d="M 117.609375 195.976562 C 106.375 195.976562 97.234375 186.734375 97.234375 175.375 C 97.234375 163.96875 106.375 154.691406 117.609375 154.691406 C 128.890625 154.691406 138.066406 163.96875 138.066406 175.375 C 138.066406 186.734375 128.890625 195.976562 117.609375 195.976562 Z M 117.609375 150.503906 C 104.066406 150.503906 93.046875 161.660156 93.046875 175.375 C 93.046875 189.042969 104.066406 200.164062 117.609375 200.164062 C 131.199219 200.164062 142.253906 189.042969 142.253906 175.375 C 142.253906 161.660156 131.199219 150.503906 117.609375 150.503906 " fill-opacity="1" fill-rule="nonzero"/><path fill="currentColor" d="M 203.835938 164.574219 C 204.992188 164.574219 205.929688 163.636719 205.929688 162.480469 L 205.929688 107.039062 C 205.929688 105.882812 204.992188 104.945312 203.835938 104.945312 C 202.679688 104.945312 201.742188 105.882812 201.742188 107.039062 L 201.742188 162.480469 C 201.742188 163.636719 202.679688 164.574219 203.835938 164.574219 " fill-opacity="1" fill-rule="nonzero"/></svg>