<svg xmlns="http://www.w3.org/2000/svg" xmlns:xlink="http://www.w3.org/1999/xlink" width="400" zoomAndPan="magnify" viewBox="0 0 300 299.999988" height="400" preserveAspectRatio="xMidYMid meet" version="1.0"><path fill="#a9a0f0" d="M 215.160156 237.078125 C 214.796875 235.992188 214.40625 234.917969 214.011719 233.84375 C 212.867188 230.691406 211.78125 227.703125 211.304688 224.5625 C 210.480469 219.191406 211.472656 213.835938 212.515625 208.164062 C 212.886719 206.140625 213.269531 204.050781 213.558594 201.976562 C 214.5625 194.804688 214.394531 184.96875 207.917969 178.882812 C 205.714844 176.8125 203.039062 175.441406 200.445312 174.097656 C 197.210938 172.433594 194.152344 170.863281 192.304688 168.144531 C 190.628906 165.695312 190.113281 162.429688 189.660156 159.546875 L 186.21875 137.921875 C 189.484375 137.691406 192.078125 134.964844 192.078125 131.636719 L 192.078125 125.023438 C 192.078125 121.542969 189.246094 118.722656 185.773438 118.722656 L 161.53125 118.722656 C 158.050781 118.722656 155.226562 121.554688 155.226562 125.023438 L 155.226562 131.636719 C 155.226562 134.964844 157.820312 137.691406 161.085938 137.921875 C 159.941406 145.121094 158.792969 152.34375 157.65625 159.546875 C 157.191406 162.429688 156.664062 165.707031 155 168.144531 C 153.6875 170.078125 151.789062 171.421875 149.460938 172.722656 L 149.460938 101.816406 C 149.523438 100.90625 149.761719 93.457031 142.488281 85.769531 C 140.9375 84.136719 139.492188 82.804688 138.097656 81.523438 C 131.691406 75.613281 127.402344 71.65625 127.410156 49.5625 L 127.660156 49.5625 C 131.265625 49.5625 134.199219 46.628906 134.199219 43.023438 L 134.199219 36.875 C 134.199219 33.265625 131.265625 30.332031 127.660156 30.332031 L 103.882812 30.332031 C 100.277344 30.332031 97.34375 33.265625 97.34375 36.875 L 97.34375 43.023438 C 97.34375 46.628906 100.277344 49.5625 103.882812 49.5625 L 104.132812 49.5625 C 104.132812 71.644531 99.863281 75.613281 93.457031 81.523438 C 92.050781 82.8125 90.605469 84.148438 89.054688 85.789062 C 81.769531 93.46875 82.007812 100.917969 82.070312 101.828125 L 82.070312 115.261719 C 82.070312 115.261719 82.070312 115.332031 82.070312 115.375 L 82.070312 202.417969 C 82.070312 202.417969 82.070312 202.492188 82.070312 202.535156 L 82.070312 226.527344 C 82.070312 229.59375 83.0625 232.613281 84.871094 235.011719 C 88.582031 239.9375 97.527344 248.226562 115.765625 248.226562 C 115.808594 248.226562 115.839844 248.226562 115.878906 248.226562 C 121.027344 248.226562 125.757812 247.542969 130.027344 246.230469 C 129.921875 248.039062 130.089844 249.683594 130.5625 251.191406 C 133.964844 262.132812 151.683594 269.78125 173.652344 269.78125 C 173.695312 269.78125 173.734375 269.78125 173.777344 269.78125 C 195.691406 269.75 213.351562 262.125 216.742188 251.203125 C 218.261719 246.292969 216.472656 240.992188 215.160156 237.117188 Z M 211.097656 234.898438 C 211.480469 235.949219 211.863281 237.003906 212.226562 238.070312 C 212.628906 239.265625 213.011719 240.425781 213.320312 241.5625 C 202.449219 247.171875 188.429688 250.261719 173.652344 250.261719 C 158.875 250.261719 144.863281 247.171875 133.984375 241.570312 C 134.304688 240.414062 134.6875 239.246094 135.078125 238.070312 C 135.441406 236.996094 135.824219 235.929688 136.214844 234.867188 C 137.363281 231.722656 138.539062 228.46875 139.066406 225.039062 C 139.976562 219.148438 138.890625 213.28125 137.847656 207.605469 C 137.488281 205.613281 137.105469 203.554688 136.824219 201.550781 C 136.421875 198.691406 136.214844 195.363281 136.597656 192.105469 C 147.054688 187.3125 160.167969 184.679688 173.652344 184.679688 C 187.136719 184.679688 200.261719 187.3125 210.71875 192.105469 C 211.089844 195.371094 210.894531 198.691406 210.488281 201.550781 C 210.210938 203.554688 209.828125 205.613281 209.46875 207.605469 C 208.421875 213.289062 207.339844 219.160156 208.246094 225.039062 C 208.773438 228.480469 209.960938 231.746094 211.109375 234.90625 Z M 85.171875 117.335938 C 94.367188 119.601562 104.875 120.808594 115.765625 120.808594 C 126.65625 120.808594 137.167969 119.601562 146.363281 117.335938 L 146.363281 174.355469 C 143.933594 175.617188 141.453125 176.949219 139.386719 178.882812 C 132.910156 184.96875 132.742188 194.804688 133.746094 201.976562 C 133.828125 202.535156 133.921875 203.101562 134.015625 203.660156 C 128.136719 204.457031 122.007812 204.867188 115.765625 204.867188 C 104.824219 204.867188 94.285156 203.628906 85.171875 201.304688 Z M 158.328125 131.628906 L 158.328125 125.015625 C 158.328125 123.246094 159.765625 121.8125 161.53125 121.8125 L 185.773438 121.8125 C 187.539062 121.8125 188.976562 123.246094 188.976562 125.015625 L 188.976562 131.628906 C 188.976562 133.394531 187.539062 134.832031 185.773438 134.832031 L 161.53125 134.832031 C 159.765625 134.832031 158.328125 133.394531 158.328125 131.628906 Z M 157.5625 169.878906 C 159.621094 166.863281 160.199219 163.238281 160.714844 160.023438 C 161.871094 152.664062 163.050781 145.289062 164.21875 137.929688 L 183.078125 137.929688 L 186.589844 160.023438 C 187.097656 163.226562 187.675781 166.851562 189.730469 169.878906 C 192.023438 173.25 195.578125 175.078125 199.011719 176.84375 C 201.519531 178.136719 203.898438 179.367188 205.777344 181.132812 C 207.90625 183.128906 209.21875 185.667969 209.984375 188.398438 C 199.484375 183.984375 186.722656 181.566406 173.640625 181.566406 C 160.558594 181.566406 147.800781 183.984375 137.300781 188.398438 C 138.066406 185.667969 139.378906 183.136719 141.507812 181.144531 C 143.40625 179.355469 145.792969 178.125 148.324219 176.824219 L 148.617188 176.667969 C 151.570312 175.152344 155.25 173.261719 157.554688 169.878906 Z M 100.433594 43.011719 L 100.433594 36.863281 C 100.433594 34.972656 101.972656 33.421875 103.875 33.421875 L 127.648438 33.421875 C 129.539062 33.421875 131.089844 34.960938 131.089844 36.863281 L 131.089844 43.011719 C 131.089844 44.902344 129.550781 46.453125 127.648438 46.453125 L 126.152344 46.453125 C 126.058594 46.429688 125.964844 46.421875 125.871094 46.421875 L 125.863281 46.421875 C 125.757812 46.421875 125.65625 46.429688 125.5625 46.453125 L 105.917969 46.453125 C 105.835938 46.441406 105.753906 46.429688 105.671875 46.429688 L 105.660156 46.429688 C 105.578125 46.429688 105.503906 46.441406 105.433594 46.453125 L 103.882812 46.453125 C 101.992188 46.453125 100.441406 44.914062 100.441406 43.011719 Z M 91.296875 87.910156 C 92.777344 86.347656 94.179688 85.046875 95.542969 83.785156 C 102.300781 77.554688 107.222656 72.996094 107.222656 49.550781 L 124.3125 49.550781 C 124.3125 73.007812 129.242188 77.566406 136 83.796875 C 137.363281 85.046875 138.769531 86.347656 140.246094 87.898438 C 146.839844 94.851562 146.402344 101.351562 146.375 101.609375 C 146.375 101.652344 146.375 101.703125 146.375 101.753906 L 146.375 114.144531 C 137.25 116.46875 126.710938 117.710938 115.777344 117.710938 C 104.84375 117.710938 94.292969 116.46875 85.179688 114.144531 L 85.179688 101.753906 C 85.179688 101.753906 85.179688 101.660156 85.179688 101.621094 C 85.160156 101.351562 84.726562 94.851562 91.320312 87.910156 Z M 115.765625 245.09375 C 115.765625 245.09375 115.695312 245.09375 115.652344 245.09375 C 98.832031 245.0625 90.699219 237.582031 87.339844 233.121094 C 85.933594 231.25 85.160156 228.902344 85.160156 226.496094 L 85.160156 204.484375 C 94.355469 206.75 104.863281 207.957031 115.757812 207.957031 C 122.183594 207.957031 128.476562 207.523438 134.53125 206.707031 C 134.613281 207.195312 134.707031 207.679688 134.789062 208.15625 C 135.832031 213.828125 136.824219 219.191406 136 224.554688 C 135.511719 227.683594 134.4375 230.648438 133.292969 233.800781 C 132.898438 234.886719 132.507812 235.980469 132.132812 237.078125 C 131.585938 238.699219 131.070312 240.300781 130.675781 241.921875 C 130.605469 242.203125 130.554688 242.492188 130.492188 242.78125 C 126.152344 244.308594 121.210938 245.09375 115.757812 245.09375 Z M 213.785156 250.25 C 211.253906 258.40625 196.664062 266.648438 173.652344 266.648438 C 173.609375 266.648438 173.570312 266.648438 173.527344 266.648438 C 150.597656 266.617188 136.039062 258.382812 133.519531 250.242188 C 133.023438 248.660156 132.960938 246.839844 133.292969 244.703125 C 144.492188 250.292969 158.722656 253.363281 173.652344 253.363281 C 188.582031 253.363281 202.832031 250.292969 214.023438 244.691406 C 214.332031 246.636719 214.324219 248.484375 213.777344 250.25 Z M 130.5625 165.480469 C 130.71875 165.457031 130.875 165.425781 131.039062 165.386719 C 132.535156 164.992188 133.871094 163.960938 134.613281 162.617188 C 135.605469 160.820312 135.769531 158.585938 135.121094 155.785156 C 134.230469 151.972656 132.300781 148.410156 129.613281 145.558594 C 131.792969 143.160156 133.414062 140.195312 134.230469 137.074219 C 134.449219 136.246094 133.953125 135.398438 133.125 135.183594 C 132.300781 134.964844 131.453125 135.460938 131.234375 136.289062 C 130.542969 138.921875 129.167969 141.421875 127.328125 143.449219 C 124.910156 141.539062 122.027344 140.140625 118.371094 139.109375 C 118.132812 139.035156 117.886719 138.953125 117.636719 138.871094 C 116.644531 138.53125 115.414062 138.105469 114.0625 138.4375 C 112.757812 138.757812 111.601562 139.59375 110.960938 140.679688 C 110.496094 141.484375 110.351562 142.394531 110.527344 143.273438 C 103.5 145.296875 98.582031 151.683594 98.582031 159.195312 C 98.582031 168.351562 106.03125 175.800781 115.1875 175.800781 C 121.988281 175.800781 128.03125 171.6875 130.5625 165.457031 Z M 113.636719 142.261719 C 113.84375 141.910156 114.320312 141.578125 114.796875 141.464844 C 115.261719 141.351562 115.921875 141.578125 116.625 141.816406 C 116.921875 141.917969 117.234375 142.023438 117.523438 142.105469 C 121.222656 143.148438 123.980469 144.574219 126.234375 146.589844 C 129.128906 149.195312 131.203125 152.707031 132.09375 156.5 C 132.566406 158.515625 132.496094 160.035156 131.894531 161.128906 C 131.574219 161.71875 130.933594 162.214844 130.265625 162.390625 C 129.953125 162.472656 129.507812 162.511719 129.117188 162.277344 C 128.402344 161.832031 128.113281 160.734375 127.785156 159.464844 C 127.351562 157.8125 126.855469 155.929688 125.128906 154.835938 C 124.207031 154.246094 123.214844 154.070312 122.246094 154.070312 C 121.378906 154.070312 120.53125 154.214844 119.777344 154.339844 L 119.621094 154.371094 C 118.132812 154.617188 117.160156 154.515625 116.738281 154.0625 C 116.335938 153.617188 116.273438 152.707031 116.574219 151.28125 L 116.601562 151.125 C 116.921875 149.597656 117.328125 147.695312 116.386719 145.96875 C 115.921875 145.121094 115.25 144.535156 114.652344 144.015625 C 114.390625 143.789062 114.15625 143.582031 113.957031 143.375 C 113.9375 143.355469 113.925781 143.335938 113.90625 143.324219 C 113.742188 143.140625 113.605469 142.964844 113.566406 142.789062 C 113.535156 142.664062 113.515625 142.519531 113.636719 142.300781 Z M 115.175781 172.722656 C 107.726562 172.722656 101.671875 166.667969 101.671875 159.21875 C 101.671875 152.789062 106.09375 147.363281 112.285156 146.042969 C 112.386719 146.136719 112.5 146.238281 112.59375 146.320312 C 113.039062 146.703125 113.453125 147.066406 113.648438 147.425781 C 114.039062 148.148438 113.792969 149.328125 113.554688 150.464844 L 113.523438 150.628906 C 113.195312 152.210938 112.925781 154.503906 114.445312 156.148438 C 116.222656 158.070312 119.15625 157.574219 120.117188 157.417969 L 120.273438 157.386719 C 121.46875 157.179688 122.71875 156.976562 123.445312 157.441406 C 124.15625 157.894531 124.457031 159.042969 124.777344 160.25 C 125.210938 161.902344 125.707031 163.773438 127.433594 164.878906 C 125.242188 169.621094 120.5 172.722656 115.167969 172.722656 Z M 193.347656 204.011719 C 192.542969 203.722656 191.652344 204.136719 191.363281 204.941406 C 190.773438 206.574219 189.84375 208.082031 188.667969 209.375 C 188.292969 209.125 187.882812 208.917969 187.4375 208.753906 C 183.695312 207.390625 180.710938 209.808594 178.53125 211.574219 L 178.242188 211.8125 C 177.785156 212.183594 177.332031 212.554688 176.886719 212.929688 L 175.738281 213.890625 C 174.324219 215.078125 172.855469 216.308594 171.367188 217.414062 C 168.011719 219.902344 164.300781 221.917969 160.34375 223.394531 C 158.328125 224.148438 156.25 224.769531 154.175781 225.226562 C 153.886719 225.285156 153.511719 225.328125 153.121094 225.378906 C 151.507812 225.566406 149.308594 225.824219 148.304688 227.445312 C 147.828125 228.199219 147.769531 229.046875 148.109375 229.832031 C 148.5625 230.886719 149.949219 232.4375 156.632812 233.738281 C 158.8125 234.164062 161.015625 234.378906 163.207031 234.378906 C 164.796875 234.378906 166.378906 234.265625 167.949219 234.039062 C 175.285156 232.996094 182.1875 229.503906 187.386719 224.222656 C 189.917969 221.648438 191.269531 219.304688 191.671875 216.8125 C 191.941406 215.160156 191.652344 213.238281 190.773438 211.648438 C 192.3125 210.015625 193.535156 208.082031 194.296875 205.972656 C 194.585938 205.167969 194.175781 204.28125 193.367188 203.992188 Z M 188.582031 216.347656 C 188.292969 218.167969 187.199219 219.984375 185.152344 222.074219 C 180.429688 226.878906 174.160156 230.039062 167.492188 230.992188 C 164.09375 231.476562 160.632812 231.382812 157.152344 230.703125 C 153.472656 229.988281 151.910156 229.265625 151.292969 228.871094 C 151.890625 228.65625 152.984375 228.519531 153.472656 228.46875 C 153.988281 228.40625 154.464844 228.34375 154.835938 228.261719 C 157.058594 227.765625 159.277344 227.117188 161.429688 226.308594 C 165.65625 224.71875 169.621094 222.570312 173.207031 219.914062 C 174.777344 218.757812 176.277344 217.484375 177.734375 216.265625 L 178.871094 215.304688 C 179.304688 214.945312 179.75 214.582031 180.191406 214.21875 L 180.492188 213.984375 C 182.785156 212.121094 184.441406 210.953125 186.382812 211.667969 C 188.109375 212.296875 188.875 214.582031 188.59375 216.347656 Z M 90.707031 100.949219 C 91 96.640625 92.949219 92.453125 96.0625 89.457031 C 96.679688 88.871094 97.664062 88.878906 98.25 89.5 C 98.839844 90.121094 98.832031 91.101562 98.210938 91.691406 C 95.648438 94.160156 94.035156 97.609375 93.808594 101.15625 C 93.757812 101.972656 93.074219 102.601562 92.257812 102.601562 C 92.226562 102.601562 92.1875 102.601562 92.15625 102.601562 C 91.296875 102.539062 90.65625 101.804688 90.707031 100.949219 Z M 100.214844 87.792969 C 99.585938 87.214844 99.554688 86.234375 100.132812 85.605469 L 101.910156 83.691406 C 102.488281 83.0625 103.46875 83.03125 104.101562 83.609375 C 104.730469 84.1875 104.761719 85.171875 104.183594 85.800781 L 102.40625 87.710938 C 102.105469 88.042969 101.683594 88.207031 101.269531 88.207031 C 100.886719 88.207031 100.515625 88.074219 100.214844 87.792969 Z M 100.214844 87.792969 " fill-opacity="1" fill-rule="nonzero"/></svg>