<svg xmlns="http://www.w3.org/2000/svg" xmlns:xlink="http://www.w3.org/1999/xlink" width="400" zoomAndPan="magnify" viewBox="0 0 300 299.999988" height="400" preserveAspectRatio="xMidYMid meet" version="1.0"><defs><clipPath id="25ced8ec22"><path d="M 115 37.085938 L 270 37.085938 L 270 103 L 115 103 Z M 115 37.085938 " clip-rule="nonzero"/></clipPath></defs><path fill="#a9a0f0" d="M 204.726562 145.234375 C 202.78125 141.757812 199.65625 140.445312 196.636719 139.171875 C 193.855469 138.003906 191.230469 136.898438 189.5625 134.195312 C 188.175781 131.777344 187.484375 129.171875 187.484375 126.382812 C 189.578125 125.460938 190.863281 123.925781 190.925781 122.257812 C 190.90625 121.453125 190.679688 120.710938 190.253906 120.03125 C 189.828125 119.347656 189.257812 118.820312 188.542969 118.449219 C 187.234375 117.792969 185.855469 117.394531 184.398438 117.257812 C 178.183594 116.316406 171.855469 115.609375 165.59375 115.15625 C 144.417969 113.710938 123.273438 114.121094 102.167969 116.382812 C 100.664062 116.4375 99.242188 116.8125 97.910156 117.507812 C 97.214844 117.882812 96.65625 118.402344 96.238281 119.070312 C 95.820312 119.742188 95.597656 120.472656 95.566406 121.261719 C 95.597656 121.933594 95.773438 122.566406 96.09375 123.15625 C 96.417969 123.75 96.855469 124.238281 97.40625 124.628906 C 95.855469 129.742188 92.742188 133.128906 88.113281 134.703125 C 87.546875 134.894531 86.972656 135.074219 86.398438 135.25 C 84.933594 135.660156 83.515625 136.191406 82.148438 136.851562 C 82.117188 136.820312 82.097656 136.777344 82.058594 136.75 C 81.765625 136.574219 74.839844 132.398438 69.113281 132.367188 C 68.871094 132.367188 68.707031 132.476562 68.617188 132.699219 C 68.273438 133.527344 34.195312 216.003906 30.019531 236.527344 C 29.972656 236.761719 30.042969 236.941406 30.238281 237.078125 C 30.320312 237.132812 38.386719 242.695312 45.136719 244.992188 C 45.273438 245.039062 45.40625 245.03125 45.535156 244.972656 C 45.664062 244.914062 45.757812 244.816406 45.808594 244.683594 C 46.007812 244.191406 59.320312 211.144531 70.089844 179.386719 C 68.679688 195.652344 69.546875 211.796875 72.683594 227.816406 C 73.347656 231 74.257812 234.632812 76.605469 237.449219 C 79.339844 240.730469 83.621094 242.292969 87.042969 243.292969 C 97.542969 246.351562 108.53125 246.929688 119.160156 247.492188 C 128.558594 247.988281 138.464844 248.507812 148.539062 248.507812 C 163.46875 248.507812 178.757812 247.363281 193.292969 243.277344 C 196.03125 242.507812 199.136719 241.507812 201.371094 239.328125 C 204.394531 236.378906 205.207031 232.105469 205.828125 227.617188 C 209.605469 200.519531 210.472656 179.875 208.648438 160.6875 C 208.167969 155.75 207.4375 150.082031 204.726562 145.234375 Z M 119.207031 246.417969 C 108.640625 245.859375 97.714844 245.285156 87.335938 242.261719 C 84.0625 241.308594 79.972656 239.820312 77.421875 236.761719 C 75.234375 234.132812 74.367188 230.652344 73.730469 227.597656 C 70.414062 211.722656 69.699219 193.640625 71.542969 175.046875 C 74.171875 167.144531 76.601562 159.425781 78.574219 152.40625 C 78.589844 152.441406 78.597656 152.476562 78.617188 152.507812 C 78.738281 152.738281 78.921875 152.898438 79.167969 152.984375 C 79.253906 153.011719 79.339844 153.023438 79.429688 153.023438 C 79.523438 153.023438 79.617188 153.007812 79.710938 152.984375 C 80.304688 152.789062 80.785156 152.441406 81.160156 151.941406 C 82.558594 150.378906 83.941406 148.761719 85.257812 147.136719 C 85.933594 146.433594 86.238281 145.597656 86.183594 144.625 C 86.0625 144.113281 85.757812 143.757812 85.273438 143.558594 C 84.710938 143.320312 84.140625 143.285156 83.550781 143.449219 C 81.839844 143.832031 81.109375 145.25 80.464844 146.496094 L 79.878906 147.625 C 80.78125 144.199219 81.546875 141.003906 82.140625 138.089844 C 83.597656 137.3125 85.121094 136.707031 86.71875 136.277344 C 87.300781 136.097656 87.886719 135.917969 88.460938 135.722656 C 93.359375 134.050781 96.667969 130.527344 98.34375 125.226562 C 101.285156 126.828125 105.25 126.859375 108.765625 126.871094 C 109.757812 126.871094 110.71875 126.875 111.605469 126.914062 C 121.105469 127.347656 130.761719 127.050781 140.09375 126.765625 L 140.1875 126.226562 L 140.203125 126.765625 C 144.132812 126.644531 148.210938 126.8125 152.148438 126.972656 C 154.328125 127.0625 156.503906 127.152344 158.664062 127.195312 L 178.019531 127.585938 C 178.664062 127.597656 179.320312 127.609375 179.992188 127.609375 C 182.179688 127.679688 184.324219 127.40625 186.421875 126.789062 C 186.476562 129.636719 187.21875 132.296875 188.644531 134.761719 C 190.496094 137.761719 193.40625 138.984375 196.21875 140.167969 C 199.203125 141.421875 202.019531 142.605469 203.785156 145.761719 C 206.398438 150.433594 207.105469 155.96875 207.566406 160.789062 C 209.382812 179.894531 208.515625 200.460938 204.753906 227.472656 C 204.15625 231.769531 203.390625 235.847656 200.609375 238.558594 C 198.558594 240.5625 195.601562 241.511719 192.996094 242.242188 C 168.820312 249.027344 142.464844 247.640625 119.207031 246.414062 Z M 79.515625 151.925781 C 79.238281 151.355469 79.578125 150.542969 79.953125 149.820312 L 81.417969 147 C 82.03125 145.8125 82.5625 144.785156 83.785156 144.511719 C 83.964844 144.46875 84.148438 144.445312 84.332031 144.445312 C 84.5 144.4375 84.660156 144.46875 84.8125 144.539062 C 85.058594 144.65625 85.113281 144.785156 85.132812 144.871094 C 85.105469 145.496094 84.867188 146.027344 84.421875 146.46875 C 83.117188 148.082031 81.75 149.683594 80.359375 151.230469 C 80.132812 151.527344 79.851562 151.753906 79.515625 151.914062 Z M 165.507812 116.234375 C 171.742188 116.6875 178.042969 117.390625 184.226562 118.324219 C 185.550781 118.441406 186.804688 118.792969 187.996094 119.386719 C 188.535156 119.65625 188.972656 120.046875 189.300781 120.554688 C 189.632812 121.0625 189.8125 121.617188 189.839844 122.222656 C 189.785156 123.703125 188.332031 124.847656 186.996094 125.425781 C 184.195312 126.636719 180.925781 126.570312 178.03125 126.511719 L 158.667969 126.125 C 156.515625 126.082031 154.347656 125.992188 152.179688 125.910156 C 149.164062 125.785156 146.074219 125.660156 143.019531 125.660156 C 142.058594 125.660156 141.105469 125.671875 140.15625 125.699219 L 140.050781 125.699219 C 130.730469 125.984375 121.097656 126.277344 111.636719 125.851562 C 110.734375 125.8125 109.761719 125.808594 108.753906 125.804688 C 105.273438 125.792969 101.328125 125.777344 98.617188 124.179688 C 98.050781 123.902344 97.589844 123.503906 97.234375 122.984375 C 96.878906 122.460938 96.675781 121.886719 96.625 121.261719 C 96.65625 120.660156 96.835938 120.105469 97.160156 119.601562 C 97.488281 119.097656 97.921875 118.710938 98.457031 118.4375 C 99.652344 117.824219 100.921875 117.5 102.265625 117.46875 C 123.308594 115.203125 144.394531 114.789062 165.511719 116.222656 Z M 165.507812 116.234375 " fill-opacity="1" fill-rule="nonzero"/><path fill="#a9a0f0" d="M 199.050781 224.339844 C 200.082031 221.21875 200.675781 218.019531 200.832031 214.738281 L 203.226562 188.8125 C 204.003906 182.066406 204.289062 175.300781 204.078125 168.511719 C 204.035156 167.730469 204.019531 166.90625 204 166.0625 C 203.933594 162.933594 203.855469 159.390625 202.445312 156.566406 C 201.894531 155.445312 201.136719 154.488281 200.175781 153.695312 C 198.84375 152.722656 197.390625 151.988281 195.816406 151.5 C 188.113281 148.515625 180.261719 145.996094 172.257812 143.945312 C 149.375 138.476562 122.988281 139.746094 91.578125 147.820312 C 86.664062 149.082031 83.074219 151.226562 80.605469 154.375 L 80.398438 154.644531 C 79.25 156.300781 78.339844 158.078125 77.675781 159.980469 C 77.007812 161.878906 76.609375 163.835938 76.472656 165.847656 C 74.902344 180.136719 74.503906 194.457031 75.277344 208.8125 C 75.566406 214.199219 76.03125 219.90625 78.164062 225.207031 C 79.109375 227.695312 80.507812 229.894531 82.363281 231.808594 C 86.421875 235.8125 92.230469 237.046875 97.828125 237.96875 C 113.296875 240.507812 128.863281 241.78125 144.539062 241.777344 C 151.960938 241.777344 159.382812 241.492188 166.796875 240.917969 C 172.628906 240.464844 179.359375 239.773438 185.414062 237.257812 C 191.988281 234.546875 196.960938 229.832031 199.050781 224.339844 Z M 98 236.914062 C 92.570312 236.019531 86.949219 234.832031 83.113281 231.046875 C 81.367188 229.238281 80.046875 227.160156 79.160156 224.804688 C 77.082031 219.65625 76.632812 214.054688 76.347656 208.753906 C 75.578125 194.460938 75.976562 180.195312 77.539062 165.96875 C 77.800781 162.226562 78.957031 158.785156 81.011719 155.648438 C 81.78125 155.953125 82.582031 156.097656 83.414062 156.085938 C 94.023438 156.117188 104.542969 154.023438 114.746094 151.984375 C 122.175781 150.363281 129.667969 149.136719 137.226562 148.296875 C 138.453125 148.117188 139.582031 148.371094 140.617188 149.058594 C 140.878906 149.296875 141 149.589844 140.976562 149.945312 C 140.960938 150.105469 140.9375 150.261719 140.898438 150.417969 C 140.804688 150.75 140.777344 151.089844 140.820312 151.433594 C 140.933594 152.148438 141.507812 153.039062 143.597656 153.238281 C 148.398438 153.691406 153.296875 153.710938 158.03125 153.726562 C 162.582031 153.746094 167.289062 153.761719 171.886719 154.167969 C 175.585938 154.488281 179.339844 155.085938 182.964844 155.65625 C 188.558594 156.679688 194.199219 157.269531 199.882812 157.417969 C 200.332031 157.417969 200.785156 157.410156 201.238281 157.398438 C 201.359375 157.398438 201.492188 157.378906 201.621094 157.367188 C 202.78125 159.933594 202.863281 163.1875 202.925781 166.085938 C 202.945312 166.949219 202.960938 167.78125 203.003906 168.570312 C 203.210938 175.308594 202.925781 182.019531 202.152344 188.714844 L 199.757812 214.640625 C 199.609375 217.824219 199.039062 220.929688 198.042969 223.957031 C 196.058594 229.175781 191.304688 233.664062 185 236.273438 C 179.09375 238.722656 172.460938 239.40625 166.707031 239.851562 C 143.683594 241.636719 120.78125 240.65625 98 236.914062 Z M 91.84375 148.859375 C 123.082031 140.832031 149.300781 139.566406 172.011719 144.984375 C 179.96875 147.03125 187.78125 149.539062 195.445312 152.507812 C 196.90625 152.957031 198.257812 153.628906 199.492188 154.527344 C 200.121094 155.039062 200.652344 155.636719 201.078125 156.328125 C 195.046875 156.28125 189.0625 155.703125 183.132812 154.589844 C 179.488281 154.019531 175.71875 153.425781 171.980469 153.09375 C 167.339844 152.683594 162.609375 152.664062 158.035156 152.652344 C 153.324219 152.632812 148.457031 152.617188 143.699219 152.167969 C 143.1875 152.117188 141.988281 151.933594 141.878906 151.261719 C 141.867188 151.050781 141.890625 150.847656 141.949219 150.644531 C 142 150.429688 142.035156 150.214844 142.050781 149.992188 C 142.085938 149.3125 141.855469 148.742188 141.359375 148.277344 C 140.316406 147.480469 139.140625 147.117188 137.832031 147.191406 C 137.582031 147.191406 137.347656 147.203125 137.125 147.222656 C 129.53125 148.066406 122 149.300781 114.53125 150.925781 C 104.382812 152.957031 93.902344 155.078125 83.417969 155.007812 C 82.824219 155.015625 82.242188 154.933594 81.675781 154.757812 C 83.988281 151.957031 87.320312 150.023438 91.84375 148.859375 Z M 91.84375 148.859375 " fill-opacity="1" fill-rule="nonzero"/><path fill="#a9a0f0" d="M 177.75 229.152344 C 177.792969 229.003906 182.34375 214.097656 186.207031 200.921875 C 187.894531 195.167969 189.226562 190.527344 190.152344 187.136719 C 190.800781 184.78125 191.257812 183.003906 191.515625 181.851562 C 191.558594 181.671875 191.507812 181.515625 191.371094 181.390625 C 191.210938 181.246094 175.074219 166.898438 144.953125 164.6875 C 122.964844 163.078125 103.914062 168.6875 88.335938 181.371094 C 88.1875 181.492188 88.128906 181.644531 88.164062 181.832031 L 88.175781 181.890625 C 88.226562 182.175781 88.460938 183.441406 88.84375 185.402344 C 89.613281 189.339844 90.84375 195.386719 92.332031 201.832031 C 95.273438 214.574219 98.011719 223.785156 100.464844 229.207031 C 100.539062 229.375 100.667969 229.472656 100.851562 229.492188 C 101.175781 229.523438 122.699219 231.726562 145.199219 231.726562 C 156.542969 231.726562 168.136719 231.167969 177.371094 229.484375 C 177.566406 229.449219 177.691406 229.339844 177.75 229.152344 Z M 101.230469 228.5625 C 98.863281 223.222656 96.214844 214.292969 93.371094 202.019531 C 100.964844 198.855469 108.789062 196.445312 116.84375 194.78125 C 124.902344 193.117188 133.039062 192.230469 141.265625 192.128906 C 148.8125 192.058594 156.289062 192.777344 163.683594 194.28125 C 171.082031 195.789062 178.242188 198.046875 185.164062 201.058594 C 181.621094 213.125 177.554688 226.492188 176.914062 228.589844 C 150.539062 233.300781 105.203125 228.957031 101.230469 228.5625 Z M 89.859375 185.570312 C 92.75 183.984375 95.519531 182.609375 95.925781 182.414062 C 102.867188 179.070312 110.085938 176.492188 117.574219 174.6875 C 125.066406 172.886719 132.664062 171.890625 140.367188 171.710938 C 154.289062 171.425781 174.054688 173.878906 189.140625 187.179688 C 188.25 190.429688 187.003906 194.773438 185.433594 200.125 C 178.472656 197.085938 171.265625 194.8125 163.820312 193.304688 C 156.375 191.792969 148.851562 191.082031 141.257812 191.164062 C 132.996094 191.269531 124.820312 192.15625 116.730469 193.820312 C 108.640625 195.484375 100.777344 197.902344 93.148438 201.066406 C 91.757812 195.019531 90.609375 189.386719 89.859375 185.570312 Z M 89.859375 185.570312 " fill-opacity="1" fill-rule="nonzero"/><path fill="#a9a0f0" d="M 82.332031 172.855469 C 82.492188 172.824219 82.613281 172.738281 82.699219 172.601562 L 84.289062 170.710938 C 84.667969 170.328125 84.929688 169.882812 85.082031 169.367188 C 85.144531 168.90625 85.09375 168.457031 84.925781 168.023438 C 84.695312 167.320312 84.382812 166.65625 83.984375 166.035156 C 82.539062 166.902344 81.277344 167.988281 80.203125 169.289062 C 80.171875 169.324219 81.742188 172.191406 81.863281 172.4375 C 81.960938 172.636719 82.109375 172.871094 82.332031 172.855469 Z M 82.332031 172.855469 " fill-opacity="1" fill-rule="nonzero"/><path fill="#a9a0f0" d="M 103.414062 166.007812 C 103.472656 165.992188 103.507812 165.925781 103.535156 165.871094 C 103.808594 165.304688 104.082031 164.734375 104.355469 164.167969 C 104.515625 163.832031 103.171875 163.765625 103.03125 163.800781 C 102.476562 164.105469 102.011719 164.511719 101.632812 165.019531 C 102.164062 165.375 102.699219 165.652344 103.25 165.96875 C 103.296875 166.003906 103.351562 166.015625 103.414062 166.007812 Z M 103.414062 166.007812 " fill-opacity="1" fill-rule="nonzero"/><path fill="#a9a0f0" d="M 189.644531 168.804688 L 192.605469 168.617188 C 193.1875 168.582031 192.25 166.691406 192.089844 166.53125 C 191.25 166.003906 190.335938 165.679688 189.355469 165.554688 C 189.277344 166.554688 189.304688 167.5 189.296875 168.492188 C 189.273438 168.597656 189.296875 168.683594 189.378906 168.753906 C 189.457031 168.824219 189.546875 168.839844 189.644531 168.804688 Z M 189.644531 168.804688 " fill-opacity="1" fill-rule="nonzero"/><path fill="#a9a0f0" d="M 102.5 189.296875 C 103.246094 189.554688 103.972656 189.855469 104.683594 190.199219 C 104.976562 190.363281 105.242188 190.558594 105.480469 190.792969 C 105.691406 190.992188 105.859375 191.21875 105.988281 191.480469 C 106.105469 191.75 106.136719 192.03125 106.082031 192.320312 C 106.027344 192.609375 105.894531 192.859375 105.6875 193.066406 C 105.132812 193.699219 104.4375 194.035156 103.597656 194.082031 C 103.261719 194.105469 102.945312 194.03125 102.652344 193.855469 C 102.363281 193.683594 102.144531 193.441406 102.003906 193.132812 C 101.949219 192.960938 101.84375 192.828125 101.6875 192.738281 C 101.527344 192.648438 101.359375 192.625 101.183594 192.667969 C 101.007812 192.71875 100.875 192.824219 100.785156 192.984375 C 100.691406 193.144531 100.671875 193.3125 100.71875 193.488281 C 100.882812 193.882812 101.117188 194.230469 101.417969 194.527344 C 101.722656 194.828125 102.074219 195.054688 102.472656 195.210938 C 102.867188 195.367188 103.28125 195.441406 103.707031 195.429688 C 104.132812 195.417969 104.542969 195.320312 104.929688 195.144531 C 106.449219 194.539062 107.886719 193.027344 107.324219 191.269531 C 106.792969 189.609375 105.144531 188.878906 103.644531 188.316406 C 102.371094 187.839844 100.726562 187.078125 100.796875 185.5 C 100.8125 185.140625 100.9375 184.828125 101.183594 184.566406 C 101.425781 184.300781 101.726562 184.144531 102.082031 184.101562 C 102.980469 184.054688 103.769531 184.324219 104.449219 184.910156 C 104.609375 185 104.777344 185.023438 104.953125 184.976562 C 105.132812 184.929688 105.265625 184.828125 105.359375 184.671875 C 105.449219 184.511719 105.46875 184.34375 105.425781 184.167969 C 105.378906 183.992188 105.277344 183.855469 105.121094 183.761719 C 103.738281 182.765625 101.785156 182.253906 100.367188 183.476562 C 99.730469 184.066406 99.425781 184.796875 99.457031 185.664062 C 99.496094 186.53125 99.8125 187.285156 100.402344 187.925781 C 100.996094 188.542969 101.695312 189.003906 102.5 189.296875 Z M 102.5 189.296875 " fill-opacity="1" fill-rule="nonzero"/><path fill="#a9a0f0" d="M 110.484375 193.253906 C 110.507812 192.519531 110.550781 191.785156 110.589844 191.046875 C 112.136719 190.363281 113.726562 189.816406 115.363281 189.402344 C 115.792969 190.03125 116.21875 190.65625 116.664062 191.273438 C 116.757812 191.429688 116.894531 191.527344 117.070312 191.574219 C 117.246094 191.621094 117.414062 191.601562 117.574219 191.511719 C 117.730469 191.417969 117.832031 191.28125 117.878906 191.105469 C 117.925781 190.929688 117.90625 190.761719 117.8125 190.601562 C 115.476562 187.375 113.40625 183.984375 111.609375 180.425781 C 111.457031 180.179688 111.238281 180.074219 110.949219 180.113281 C 110.660156 180.152344 110.476562 180.308594 110.390625 180.585938 C 109.710938 184.785156 109.296875 189.007812 109.152344 193.253906 C 109.121094 194.113281 110.453125 194.109375 110.484375 193.253906 Z M 111.398438 182.867188 C 112.386719 184.699219 113.449219 186.488281 114.585938 188.230469 C 113.257812 188.59375 111.957031 189.039062 110.683594 189.570312 C 110.84375 187.328125 111.082031 185.09375 111.398438 182.867188 Z M 111.398438 182.867188 " fill-opacity="1" fill-rule="nonzero"/><path fill="#a9a0f0" d="M 118.09375 183.65625 C 118.617188 185.921875 119.253906 188.15625 120.011719 190.355469 C 120.054688 190.539062 120.15625 190.679688 120.320312 190.773438 C 120.480469 190.871094 120.652344 190.894531 120.832031 190.84375 C 121.015625 190.792969 121.152344 190.6875 121.242188 190.523438 C 121.332031 190.359375 121.351562 190.1875 121.296875 190.007812 C 120.710938 188.199219 120.121094 186.386719 119.660156 184.539062 C 119.429688 183.601562 119.230469 182.660156 119.078125 181.703125 C 119.007812 181.261719 118.949219 180.816406 118.910156 180.371094 C 118.886719 180.144531 118.871094 179.914062 118.855469 179.6875 L 118.855469 179.675781 C 118.921875 179.742188 118.992188 179.804688 119.058594 179.871094 C 119.335938 180.152344 119.609375 180.4375 119.875 180.726562 C 120.367188 181.265625 120.84375 181.835938 121.28125 182.414062 C 122.261719 183.714844 123.109375 185.097656 123.972656 186.472656 C 124.546875 187.386719 125.171875 188.265625 125.800781 189.144531 C 125.878906 189.269531 125.988281 189.363281 126.128906 189.417969 C 126.265625 189.476562 126.410156 189.484375 126.554688 189.449219 C 126.699219 189.410156 126.816406 189.328125 126.90625 189.210938 C 127 189.089844 127.042969 188.953125 127.042969 188.804688 C 126.574219 185.007812 126.109375 181.210938 125.644531 177.414062 C 125.636719 177.230469 125.570312 177.074219 125.441406 176.949219 C 125.3125 176.820312 125.160156 176.75 124.976562 176.746094 C 124.792969 176.746094 124.636719 176.8125 124.507812 176.941406 C 124.378906 177.074219 124.3125 177.230469 124.3125 177.414062 L 125.394531 186.195312 C 125.332031 186.101562 125.265625 186.011719 125.207031 185.917969 C 124.28125 184.472656 123.402344 183.003906 122.363281 181.640625 C 121.847656 180.964844 121.3125 180.308594 120.738281 179.6875 C 120.4375 179.363281 120.132812 179.046875 119.816406 178.738281 C 119.503906 178.355469 119.105469 178.109375 118.621094 178.003906 C 118.476562 177.992188 118.335938 178.007812 118.199219 178.054688 C 118.058594 178.105469 117.9375 178.175781 117.832031 178.277344 C 117.722656 178.375 117.644531 178.492188 117.585938 178.625 C 117.527344 178.757812 117.5 178.898438 117.503906 179.042969 C 117.496094 179.554688 117.53125 180.066406 117.605469 180.574219 C 117.714844 181.609375 117.875 182.636719 118.09375 183.65625 Z M 118.09375 183.65625 " fill-opacity="1" fill-rule="nonzero"/><path fill="#a9a0f0" d="M 129.292969 177.671875 L 129.394531 177.65625 C 129.757812 180.878906 130.1875 184.097656 130.683594 187.304688 L 130.664062 187.3125 C 130.507812 187.40625 130.40625 187.542969 130.359375 187.71875 C 130.3125 187.894531 130.335938 188.0625 130.425781 188.222656 C 130.523438 188.378906 130.65625 188.480469 130.835938 188.527344 C 131.011719 188.570312 131.179688 188.550781 131.339844 188.460938 C 133.855469 187.285156 136.546875 185.5 137.15625 182.585938 C 137.292969 181.960938 137.316406 181.332031 137.226562 180.699219 C 137.136719 180.066406 136.9375 179.46875 136.632812 178.90625 C 136.328125 178.34375 135.933594 177.855469 135.453125 177.433594 C 134.96875 177.015625 134.429688 176.691406 133.832031 176.46875 C 132.632812 176.105469 131.417969 176.019531 130.179688 176.214844 C 130.109375 176.1875 130.039062 176.171875 129.964844 176.167969 C 129.839844 176.175781 129.722656 176.214844 129.621094 176.285156 C 129.390625 176.316406 129.164062 176.351562 128.941406 176.386719 C 128.765625 176.4375 128.632812 176.539062 128.539062 176.699219 C 128.449219 176.859375 128.429688 177.027344 128.476562 177.203125 C 128.527344 177.378906 128.632812 177.511719 128.792969 177.601562 C 128.949219 177.691406 129.113281 177.714844 129.292969 177.671875 Z M 132.949219 177.601562 C 133.996094 177.816406 134.792969 178.382812 135.34375 179.296875 C 135.859375 180.160156 136.042969 181.085938 135.898438 182.078125 C 135.671875 183.207031 135.144531 184.171875 134.3125 184.96875 C 133.601562 185.652344 132.804688 186.21875 131.929688 186.671875 C 131.460938 183.621094 131.054688 180.5625 130.707031 177.496094 C 131.460938 177.414062 132.207031 177.449219 132.949219 177.601562 Z M 132.949219 177.601562 " fill-opacity="1" fill-rule="nonzero"/><path fill="#a9a0f0" d="M 140.800781 186.695312 C 140.976562 187.367188 141.382812 187.839844 142.027344 188.105469 C 143.425781 188.546875 144.15625 187.03125 144.464844 185.953125 C 144.535156 185.71875 144.589844 185.484375 144.652344 185.246094 C 144.671875 185.316406 144.6875 185.390625 144.710938 185.460938 C 145.105469 186.71875 145.828125 188.09375 147.269531 188.316406 C 147.976562 188.433594 148.59375 188.246094 149.117188 187.757812 C 149.5625 187.304688 149.875 186.773438 150.050781 186.167969 C 150.492188 184.800781 150.808594 183.410156 151.003906 181.988281 C 151.285156 180.273438 151.445312 178.542969 151.488281 176.804688 C 151.488281 176.621094 151.421875 176.464844 151.292969 176.335938 C 151.164062 176.203125 151.007812 176.140625 150.820312 176.140625 C 150.636719 176.140625 150.480469 176.203125 150.351562 176.335938 C 150.222656 176.464844 150.15625 176.621094 150.15625 176.804688 C 150.09375 179.503906 149.730469 182.160156 149.0625 184.777344 C 148.957031 185.265625 148.808594 185.738281 148.613281 186.195312 C 148.527344 186.382812 148.414062 186.558594 148.277344 186.714844 C 148.171875 186.84375 148.039062 186.933594 147.878906 186.984375 C 147.695312 187.039062 147.515625 187.035156 147.339844 186.972656 C 147.136719 186.90625 146.960938 186.796875 146.808594 186.648438 C 146.445312 186.257812 146.195312 185.804688 146.054688 185.289062 C 145.59375 183.894531 145.394531 182.464844 145.449219 181 C 145.449219 180.816406 145.382812 180.660156 145.253906 180.53125 C 145.125 180.398438 144.964844 180.335938 144.785156 180.332031 C 144.601562 180.335938 144.445312 180.402344 144.316406 180.53125 C 144.1875 180.660156 144.121094 180.816406 144.117188 181 C 143.964844 182.273438 143.726562 183.535156 143.40625 184.777344 C 143.296875 185.316406 143.132812 185.835938 142.921875 186.34375 C 142.847656 186.507812 142.746094 186.652344 142.613281 186.773438 C 142.59375 186.789062 142.589844 186.792969 142.582031 186.800781 C 142.570312 186.808594 142.582031 186.800781 142.558594 186.808594 C 142.550781 186.8125 142.542969 186.820312 142.535156 186.824219 C 142.5 186.839844 142.378906 186.835938 142.484375 186.835938 C 142.378906 186.835938 142.492188 186.863281 142.378906 186.816406 C 142.421875 186.835938 142.417969 186.839844 142.347656 186.789062 C 142.414062 186.839844 142.328125 186.761719 142.320312 186.757812 C 142.265625 186.699219 142.222656 186.632812 142.1875 186.5625 C 142.085938 186.367188 142.011719 186.160156 141.960938 185.941406 C 141.785156 185.320312 141.632812 184.691406 141.507812 184.058594 C 141.261719 182.832031 141.109375 181.589844 141.054688 180.339844 C 140.988281 178.871094 141.046875 177.40625 141.230469 175.949219 C 141.226562 175.765625 141.160156 175.609375 141.03125 175.476562 C 140.902344 175.347656 140.746094 175.28125 140.5625 175.28125 C 140.378906 175.285156 140.226562 175.351562 140.097656 175.480469 C 139.96875 175.609375 139.902344 175.765625 139.894531 175.949219 C 139.535156 178.875 139.660156 181.78125 140.273438 184.664062 C 140.402344 185.355469 140.578125 186.03125 140.800781 186.695312 Z M 140.800781 186.695312 " fill-opacity="1" fill-rule="nonzero"/><path fill="#a9a0f0" d="M 162.355469 190.152344 C 162.761719 190.320312 163.179688 190.410156 163.617188 190.429688 C 164.058594 190.445312 164.484375 190.386719 164.902344 190.25 C 165.316406 190.113281 165.695312 189.910156 166.039062 189.636719 C 166.382812 189.363281 166.667969 189.039062 166.894531 188.664062 C 166.976562 188.507812 166.992188 188.34375 166.945312 188.171875 C 166.894531 188.003906 166.792969 187.875 166.640625 187.785156 C 166.488281 187.695312 166.324219 187.667969 166.152344 187.710938 C 165.976562 187.75 165.84375 187.84375 165.746094 187.992188 C 165.480469 188.429688 165.109375 188.742188 164.636719 188.9375 C 164.164062 189.128906 163.679688 189.164062 163.1875 189.039062 C 162.617188 188.808594 162.152344 188.441406 161.789062 187.945312 C 161.429688 187.449219 161.226562 186.890625 161.179688 186.277344 C 161.085938 185.519531 161.085938 184.761719 161.179688 184.003906 C 161.238281 183.289062 161.367188 182.589844 161.570312 181.902344 C 161.722656 181.296875 162 180.753906 162.40625 180.28125 C 162.8125 179.808594 163.304688 179.449219 163.882812 179.210938 C 164.472656 178.992188 165.039062 179.042969 165.585938 179.351562 C 165.824219 179.484375 166.023438 179.65625 166.191406 179.871094 C 166.351562 180.082031 166.445312 180.316406 166.476562 180.582031 C 166.480469 180.761719 166.546875 180.917969 166.675781 181.046875 C 166.804688 181.175781 166.960938 181.242188 167.144531 181.246094 C 167.328125 181.246094 167.484375 181.179688 167.613281 181.050781 C 167.742188 180.921875 167.808594 180.761719 167.808594 180.582031 C 167.761719 180.179688 167.644531 179.804688 167.457031 179.449219 C 167.269531 179.09375 167.019531 178.785156 166.714844 178.523438 C 166.410156 178.261719 166.070312 178.066406 165.691406 177.933594 C 165.308594 177.800781 164.921875 177.742188 164.519531 177.757812 C 163.671875 177.832031 162.90625 178.121094 162.214844 178.621094 C 161.527344 179.121094 161.015625 179.761719 160.679688 180.542969 C 160.300781 181.375 160.058594 182.25 159.949219 183.160156 C 159.796875 184.101562 159.753906 185.050781 159.816406 186.003906 C 159.835938 186.875 160.070312 187.679688 160.523438 188.421875 C 160.980469 189.164062 161.589844 189.738281 162.355469 190.152344 Z M 162.355469 190.152344 " fill-opacity="1" fill-rule="nonzero"/><path fill="#a9a0f0" d="M 169.503906 192.859375 C 169.683594 192.90625 169.851562 192.886719 170.011719 192.796875 C 170.167969 192.703125 170.273438 192.570312 170.324219 192.394531 C 170.496094 191.351562 170.707031 190.3125 170.902344 189.273438 C 172.519531 189.992188 174.160156 190.65625 175.820312 191.269531 L 174.59375 194.195312 C 174.546875 194.371094 174.566406 194.539062 174.65625 194.699219 C 174.746094 194.859375 174.882812 194.960938 175.058594 195.011719 C 175.234375 195.058594 175.402344 195.035156 175.5625 194.945312 C 175.71875 194.855469 175.824219 194.722656 175.878906 194.546875 L 180.308594 183.980469 C 180.359375 183.800781 180.335938 183.632812 180.246094 183.472656 C 180.15625 183.316406 180.023438 183.210938 179.84375 183.160156 C 179.667969 183.117188 179.5 183.140625 179.34375 183.230469 C 179.183594 183.320312 179.078125 183.453125 179.027344 183.625 L 176.335938 190.042969 C 174.582031 189.40625 172.855469 188.703125 171.152344 187.941406 C 171.589844 185.714844 172.0625 183.496094 172.59375 181.289062 C 172.796875 180.457031 171.511719 180.105469 171.308594 180.933594 C 170.421875 184.609375 169.664062 188.3125 169.042969 192.042969 C 169 192.21875 169.023438 192.386719 169.113281 192.542969 C 169.199219 192.699219 169.332031 192.804688 169.503906 192.859375 Z M 169.503906 192.859375 " fill-opacity="1" fill-rule="nonzero"/><path fill="#a9a0f0" d="M 154.066406 188.582031 C 154.445312 188.597656 154.824219 188.628906 155.203125 188.667969 C 155.222656 188.675781 155.242188 188.679688 155.261719 188.683594 C 155.273438 188.679688 155.28125 188.679688 155.289062 188.675781 L 155.433594 188.691406 L 155.5 188.699219 L 155.46875 188.699219 C 155.566406 188.707031 155.660156 188.726562 155.753906 188.742188 C 155.960938 188.773438 156.167969 188.808594 156.371094 188.847656 C 156.546875 188.898438 156.71875 188.875 156.878906 188.785156 C 157.039062 188.695312 157.140625 188.5625 157.191406 188.382812 C 157.238281 188.207031 157.21875 188.039062 157.128906 187.878906 C 157.035156 187.71875 156.902344 187.613281 156.726562 187.5625 C 156.480469 187.515625 156.238281 187.488281 155.992188 187.457031 C 156.351562 184.046875 156.75 180.640625 157.1875 177.238281 C 157.257812 177.246094 157.332031 177.246094 157.402344 177.253906 C 157.585938 177.253906 157.742188 177.191406 157.871094 177.058594 C 158.003906 176.929688 158.070312 176.773438 158.070312 176.589844 C 158.070312 176.40625 158.003906 176.246094 157.871094 176.117188 L 157.738281 176.011719 C 157.632812 175.949219 157.523438 175.917969 157.402344 175.917969 C 156.796875 175.839844 156.191406 175.792969 155.582031 175.777344 C 155.402344 175.785156 155.25 175.851562 155.125 175.980469 C 155 176.113281 154.941406 176.265625 154.941406 176.445312 C 154.941406 176.625 155 176.777344 155.125 176.90625 C 155.25 177.035156 155.402344 177.105469 155.582031 177.113281 C 155.675781 177.113281 155.769531 177.128906 155.863281 177.132812 C 155.433594 180.519531 155.035156 183.910156 154.671875 187.304688 C 154.46875 187.289062 154.265625 187.261719 154.0625 187.253906 C 153.878906 187.253906 153.722656 187.320312 153.59375 187.449219 C 153.464844 187.582031 153.398438 187.738281 153.398438 187.921875 C 153.402344 188.101562 153.46875 188.257812 153.597656 188.386719 C 153.726562 188.511719 153.882812 188.578125 154.066406 188.582031 Z M 154.066406 188.582031 " fill-opacity="1" fill-rule="nonzero"/><path fill="#a9a0f0" d="M 115.710938 212.402344 C 114.902344 212.257812 114.148438 211.964844 113.453125 211.523438 C 113.152344 211.304688 112.917969 211.027344 112.75 210.691406 C 112.582031 210.359375 112.5 210.003906 112.503906 209.632812 C 112.523438 209.226562 112.664062 208.871094 112.933594 208.570312 C 113.199219 208.265625 113.535156 208.078125 113.933594 208.011719 C 115.019531 207.882812 116.054688 208.050781 117.042969 208.511719 C 117.222656 208.570312 117.398438 208.554688 117.566406 208.464844 C 117.738281 208.375 117.847656 208.238281 117.894531 208.050781 C 117.945312 207.867188 117.921875 207.695312 117.820312 207.53125 C 117.722656 207.367188 117.578125 207.265625 117.390625 207.226562 C 115.660156 206.628906 113.398438 206.085938 111.964844 207.625 C 111.675781 207.972656 111.464844 208.363281 111.332031 208.796875 C 111.199219 209.230469 111.15625 209.671875 111.199219 210.121094 C 111.246094 210.570312 111.375 210.996094 111.589844 211.394531 C 111.804688 211.789062 112.089844 212.132812 112.441406 212.414062 C 113.140625 212.976562 113.925781 213.351562 114.800781 213.539062 C 115.203125 213.621094 115.59375 213.746094 115.96875 213.910156 C 116.257812 214.042969 116.488281 214.238281 116.664062 214.5 C 116.707031 214.570312 116.746094 214.640625 116.78125 214.714844 C 116.808594 214.757812 116.824219 214.804688 116.832031 214.855469 C 116.855469 214.9375 116.882812 215.015625 116.898438 215.097656 C 116.90625 215.136719 116.914062 215.175781 116.921875 215.214844 L 116.921875 215.273438 C 116.925781 215.359375 116.929688 215.441406 116.925781 215.523438 C 116.925781 215.546875 116.914062 215.675781 116.917969 215.6875 C 116.90625 215.761719 116.890625 215.839844 116.871094 215.914062 C 116.855469 215.960938 116.84375 216.003906 116.828125 216.046875 C 116.828125 216.058594 116.800781 216.125 116.796875 216.140625 C 116.667969 216.4375 116.46875 216.664062 116.191406 216.828125 C 115.859375 217.035156 115.5 217.171875 115.113281 217.242188 C 114.140625 217.457031 113.21875 217.320312 112.351562 216.828125 C 111.625 216.40625 111.207031 215.777344 111.09375 214.945312 C 111.085938 214.761719 111.019531 214.609375 110.890625 214.480469 C 110.761719 214.351562 110.609375 214.285156 110.425781 214.277344 C 110.242188 214.28125 110.085938 214.347656 109.957031 214.476562 C 109.828125 214.605469 109.761719 214.761719 109.757812 214.945312 C 109.816406 215.421875 109.949219 215.871094 110.160156 216.300781 C 110.375 216.730469 110.652344 217.109375 110.992188 217.441406 C 111.335938 217.777344 111.726562 218.042969 112.160156 218.242188 C 112.59375 218.441406 113.050781 218.5625 113.527344 218.605469 C 115.304688 218.839844 117.59375 218.238281 118.140625 216.304688 C 118.367188 215.472656 118.273438 214.675781 117.855469 213.921875 C 117.351562 213.117188 116.636719 212.609375 115.710938 212.402344 Z M 115.710938 212.402344 " fill-opacity="1" fill-rule="nonzero"/><path fill="#a9a0f0" d="M 123.660156 206.492188 C 123.441406 206.324219 123.210938 206.304688 122.964844 206.425781 C 122.71875 206.550781 122.597656 206.75 122.601562 207.023438 C 122.164062 210.726562 122.472656 214.371094 123.527344 217.949219 C 123.585938 218.117188 123.691406 218.242188 123.847656 218.328125 C 124.003906 218.410156 124.167969 218.429688 124.339844 218.382812 C 124.511719 218.335938 124.644531 218.234375 124.734375 218.082031 C 124.828125 217.929688 124.851562 217.765625 124.8125 217.59375 C 124.542969 216.667969 124.320312 215.726562 124.152344 214.773438 C 124.792969 214.519531 125.347656 214.136719 125.820312 213.632812 C 126.289062 213.128906 126.632812 212.546875 126.84375 211.890625 C 127.078125 211.109375 127.101562 210.320312 126.917969 209.523438 C 126.730469 208.730469 126.359375 208.035156 125.800781 207.4375 C 125.222656 206.816406 124.507812 206.5 123.660156 206.492188 Z M 123.945312 213.40625 C 123.71875 211.546875 123.6875 209.683594 123.851562 207.820312 C 124.390625 207.933594 124.808594 208.21875 125.109375 208.679688 C 125.539062 209.292969 125.734375 209.976562 125.703125 210.722656 C 125.671875 211.296875 125.496094 211.820312 125.183594 212.300781 C 124.871094 212.777344 124.457031 213.148438 123.945312 213.40625 Z M 123.945312 213.40625 " fill-opacity="1" fill-rule="nonzero"/><path fill="#a9a0f0" d="M 135.363281 213.308594 C 136.800781 213.105469 138.375 212.941406 139.160156 211.539062 C 139.378906 211.117188 139.496094 210.671875 139.515625 210.195312 C 139.53125 209.71875 139.441406 209.265625 139.253906 208.828125 C 138.839844 207.835938 138.132812 207.140625 137.128906 206.742188 C 135.976562 206.316406 134.792969 206.21875 133.585938 206.457031 C 133.484375 206.476562 133.394531 206.523438 133.320312 206.597656 C 133.058594 206.703125 132.933594 206.898438 132.941406 207.179688 C 132.917969 210.710938 133 214.242188 133.183594 217.773438 C 133.1875 217.953125 133.253906 218.109375 133.382812 218.238281 C 133.511719 218.367188 133.667969 218.433594 133.851562 218.4375 C 134.035156 218.4375 134.191406 218.371094 134.320312 218.242188 C 134.449219 218.113281 134.515625 217.957031 134.515625 217.773438 C 134.453125 216.578125 134.410156 215.386719 134.371094 214.191406 C 135.726562 215.730469 137.21875 217.121094 138.847656 218.367188 C 139.007812 218.457031 139.175781 218.480469 139.355469 218.433594 C 139.53125 218.386719 139.667969 218.285156 139.761719 218.128906 C 139.847656 217.96875 139.871094 217.800781 139.824219 217.625 C 139.777344 217.449219 139.675781 217.3125 139.523438 217.214844 C 138.007812 216.050781 136.621094 214.746094 135.363281 213.308594 Z M 134.3125 212.132812 C 134.28125 210.65625 134.269531 209.179688 134.273438 207.699219 C 134.972656 207.617188 135.65625 207.671875 136.332031 207.863281 C 137.050781 208.058594 137.585938 208.480469 137.9375 209.136719 C 138.003906 209.265625 138.058594 209.398438 138.09375 209.539062 C 138.121094 209.621094 138.140625 209.707031 138.15625 209.792969 C 138.175781 209.851562 138.183594 209.917969 138.179688 209.980469 C 138.179688 210.066406 138.1875 210.152344 138.179688 210.234375 C 138.179688 210.28125 138.179688 210.324219 138.171875 210.367188 L 138.171875 210.382812 C 138.144531 210.527344 138.105469 210.667969 138.042969 210.804688 C 137.90625 211.082031 137.699219 211.296875 137.429688 211.449219 C 137.144531 211.613281 136.84375 211.722656 136.523438 211.785156 C 135.777344 211.960938 135.0625 211.996094 134.3125 212.132812 Z M 134.3125 212.132812 " fill-opacity="1" fill-rule="nonzero"/><path fill="#a9a0f0" d="M 147.792969 216.9375 C 147.378906 216.90625 146.96875 216.921875 146.558594 216.980469 C 146.472656 215.648438 146.421875 214.3125 146.40625 212.972656 L 147.128906 212.972656 C 147.3125 212.972656 147.472656 212.90625 147.601562 212.777344 C 147.730469 212.648438 147.796875 212.492188 147.796875 212.308594 C 147.796875 212.125 147.730469 211.96875 147.601562 211.835938 C 147.472656 211.710938 147.3125 211.644531 147.128906 211.640625 L 146.398438 211.640625 C 146.398438 210.269531 146.433594 208.898438 146.503906 207.527344 L 146.523438 207.527344 C 146.621094 207.519531 146.722656 207.519531 146.820312 207.527344 C 146.917969 207.546875 147.015625 207.574219 147.113281 207.609375 C 147.273438 207.699219 147.445312 207.722656 147.625 207.675781 C 147.800781 207.628906 147.9375 207.523438 148.027344 207.363281 C 148.117188 207.203125 148.140625 207.035156 148.089844 206.855469 C 148.042969 206.683594 147.941406 206.550781 147.785156 206.460938 C 147.445312 206.285156 147.085938 206.195312 146.707031 206.1875 C 146.523438 206.183594 146.339844 206.203125 146.160156 206.242188 L 146.132812 206.246094 C 146.050781 206.207031 145.964844 206.1875 145.871094 206.1875 C 145.6875 206.191406 145.53125 206.257812 145.402344 206.386719 C 145.273438 206.515625 145.207031 206.671875 145.207031 206.855469 C 144.988281 210.496094 145.007812 214.132812 145.269531 217.773438 C 145.273438 217.933594 145.328125 218.074219 145.433594 218.195312 C 145.535156 218.316406 145.664062 218.394531 145.820312 218.425781 C 145.929688 218.453125 146.039062 218.453125 146.144531 218.425781 C 146.355469 218.367188 146.566406 218.324219 146.78125 218.292969 C 147.113281 218.253906 147.449219 218.246094 147.785156 218.273438 C 148.082031 218.273438 148.285156 218.136719 148.398438 217.863281 C 148.511719 217.589844 148.464844 217.347656 148.257812 217.136719 C 148.125 217.015625 147.972656 216.949219 147.792969 216.9375 Z M 147.792969 216.9375 " fill-opacity="1" fill-rule="nonzero"/><path fill="#a9a0f0" d="M 157.398438 206.925781 C 157.277344 206.25 156.285156 206.335938 156.113281 206.925781 C 155.574219 208.785156 155.046875 210.652344 154.480469 212.503906 C 153.960938 214.308594 153.308594 216.0625 152.523438 217.765625 C 152.433594 217.925781 152.414062 218.09375 152.460938 218.269531 C 152.507812 218.445312 152.605469 218.582031 152.761719 218.679688 C 152.921875 218.769531 153.089844 218.792969 153.265625 218.746094 C 153.445312 218.699219 153.578125 218.597656 153.671875 218.441406 C 153.933594 217.894531 154.175781 217.339844 154.402344 216.777344 C 155.523438 216.65625 156.648438 216.597656 157.777344 216.609375 C 157.875 217.164062 157.972656 217.71875 158.074219 218.273438 C 158.125 218.449219 158.226562 218.582031 158.386719 218.671875 C 158.546875 218.761719 158.714844 218.785156 158.894531 218.738281 C 159.066406 218.6875 159.199219 218.582031 159.289062 218.421875 C 159.378906 218.261719 159.402344 218.09375 159.359375 217.917969 C 158.703125 214.253906 158.050781 210.589844 157.398438 206.925781 Z M 154.9375 215.390625 C 155.574219 213.644531 156.097656 211.851562 156.605469 210.058594 L 157.539062 215.273438 C 156.667969 215.273438 155.804688 215.3125 154.9375 215.390625 Z M 154.9375 215.390625 " fill-opacity="1" fill-rule="nonzero"/><path fill="#a9a0f0" d="M 165.332031 206.089844 C 165.109375 206.074219 164.9375 206.160156 164.8125 206.339844 C 164.644531 206.464844 164.5625 206.632812 164.5625 206.839844 C 164.457031 210.441406 164.347656 214.046875 164.242188 217.648438 C 164.230469 217.828125 164.285156 217.980469 164.410156 218.105469 C 164.464844 218.265625 164.566406 218.382812 164.714844 218.460938 C 164.863281 218.535156 165.019531 218.550781 165.179688 218.5 C 166.171875 218.238281 166.996094 217.714844 167.65625 216.925781 C 168.332031 216.054688 168.738281 215.070312 168.871094 213.972656 C 169.183594 211.925781 169.449219 209.417969 168.132812 207.660156 C 167.8125 207.195312 167.40625 206.824219 166.914062 206.550781 C 166.421875 206.273438 165.894531 206.121094 165.332031 206.089844 Z M 167.609375 213.410156 C 167.542969 214.273438 167.28125 215.074219 166.832031 215.8125 C 166.511719 216.28125 166.101562 216.648438 165.597656 216.914062 C 165.6875 213.785156 165.78125 210.65625 165.875 207.527344 C 166 207.570312 166.121094 207.625 166.234375 207.691406 C 166.535156 207.867188 166.792969 208.097656 167.003906 208.375 C 167.472656 209.023438 167.71875 209.746094 167.75 210.542969 C 167.796875 211.503906 167.75 212.457031 167.609375 213.410156 Z M 167.609375 213.410156 " fill-opacity="1" fill-rule="nonzero"/><path fill="#a9a0f0" d="M 138.957031 155.203125 L 138.742188 155.171875 C 138.800781 155.195312 138.855469 155.226562 138.914062 155.253906 C 138.925781 155.246094 138.941406 155.222656 138.957031 155.203125 Z M 138.957031 155.203125 " fill-opacity="1" fill-rule="nonzero"/><path fill="#a9a0f0" d="M 145.351562 161.78125 C 145.832031 161.054688 146.125 160.261719 146.238281 159.398438 C 145.6875 159.054688 145.121094 158.738281 144.535156 158.449219 C 144.519531 158.441406 144.5 158.433594 144.476562 158.433594 C 144.460938 158.4375 144.445312 158.445312 144.433594 158.457031 C 144.421875 158.46875 144.410156 158.484375 144.402344 158.5 C 144.175781 158.792969 144.027344 159.117188 143.957031 159.480469 C 143.886719 159.84375 143.902344 160.203125 144.003906 160.554688 C 144.070312 160.710938 145.136719 162.113281 145.351562 161.78125 Z M 145.351562 161.78125 " fill-opacity="1" fill-rule="nonzero"/><path fill="#a9a0f0" d="M 122.578125 155.3125 C 122.480469 155.179688 122.351562 155.109375 122.191406 155.09375 C 122.03125 155.078125 121.890625 155.125 121.773438 155.234375 C 120.527344 155.902344 119.246094 156.492188 117.929688 156.996094 C 117.683594 157.527344 117.570312 158.085938 117.585938 158.671875 C 119.625 158.046875 121.589844 157.238281 123.480469 156.246094 Z M 122.578125 155.3125 " fill-opacity="1" fill-rule="nonzero"/><path fill="#a9a0f0" d="M 84.773438 199.800781 C 84.738281 199.628906 81.820312 198.542969 81.433594 198.136719 C 81.320312 199.039062 81.289062 199.941406 81.335938 200.847656 C 81.304688 200.976562 81.324219 201.09375 81.394531 201.207031 C 81.464844 201.316406 81.5625 201.386719 81.691406 201.417969 C 82.738281 201.871094 83.800781 202.292969 84.871094 202.691406 C 84.988281 201.722656 84.953125 200.757812 84.773438 199.800781 Z M 84.773438 199.800781 " fill-opacity="1" fill-rule="nonzero"/><path fill="#a9a0f0" d="M 85.050781 220.265625 L 84.066406 219.652344 C 83.9375 219.550781 83.792969 219.503906 83.628906 219.523438 C 83.519531 219.558594 83.433594 219.625 83.367188 219.714844 C 83.167969 219.941406 82.996094 220.1875 82.851562 220.453125 C 82.636719 220.574219 82.503906 220.753906 82.453125 220.992188 C 82.417969 221.269531 82.425781 221.46875 82.628906 221.277344 L 83.863281 222.082031 C 83.941406 222.148438 84.035156 222.183594 84.136719 222.179688 C 84.246094 222.160156 84.320312 222.058594 84.382812 221.964844 C 84.644531 221.554688 84.90625 221.144531 85.171875 220.738281 C 85.230469 220.664062 85.257812 220.582031 85.253906 220.492188 C 85.238281 220.386719 85.140625 220.320312 85.050781 220.265625 Z M 85.050781 220.265625 " fill-opacity="1" fill-rule="nonzero"/><path fill="#a9a0f0" d="M 170.414062 160.132812 C 170.578125 159.367188 170.621094 158.59375 170.539062 157.8125 L 167.917969 158.027344 C 167.253906 158.082031 166.03125 159.21875 166.671875 159.878906 C 166.996094 160.214844 169.890625 160.070312 170.414062 160.132812 Z M 170.414062 160.132812 " fill-opacity="1" fill-rule="nonzero"/><path fill="#a9a0f0" d="M 196.121094 191.40625 C 196.652344 189.628906 197.007812 187.820312 197.199219 185.976562 L 196.089844 186.179688 C 195.949219 186.183594 195.832031 186.238281 195.746094 186.347656 C 195.65625 186.457031 195.621094 186.578125 195.644531 186.71875 C 195.53125 187.9375 195.339844 189.148438 195.070312 190.34375 C 195.339844 190.78125 195.691406 191.132812 196.121094 191.40625 Z M 196.121094 191.40625 " fill-opacity="1" fill-rule="nonzero"/><path fill="#a9a0f0" d="M 194.921875 206.101562 L 196.15625 206.90625 C 196.238281 206.972656 196.328125 207.003906 196.433594 207 C 196.539062 206.984375 196.613281 206.882812 196.675781 206.785156 C 196.9375 206.378906 197.199219 205.96875 197.464844 205.558594 C 197.523438 205.488281 197.550781 205.40625 197.550781 205.3125 C 197.53125 205.210938 197.4375 205.144531 197.347656 205.089844 L 196.359375 204.476562 C 196.230469 204.375 196.085938 204.332031 195.921875 204.347656 C 195.816406 204.386719 195.726562 204.449219 195.660156 204.539062 C 195.460938 204.769531 195.289062 205.015625 195.144531 205.28125 C 194.929688 205.402344 194.796875 205.578125 194.746094 205.820312 C 194.710938 206.09375 194.71875 206.292969 194.921875 206.101562 Z M 194.921875 206.101562 " fill-opacity="1" fill-rule="nonzero"/><path fill="#a9a0f0" d="M 102.835938 233.613281 C 102.171875 233.667969 100.949219 234.804688 101.589844 235.460938 C 101.914062 235.792969 104.808594 235.652344 105.332031 235.710938 C 105.5 234.945312 105.542969 234.171875 105.457031 233.394531 Z M 102.835938 233.613281 " fill-opacity="1" fill-rule="nonzero"/><path fill="#a9a0f0" d="M 124.503906 237.136719 C 124.488281 238.367188 124.828125 239.371094 126.402344 238.796875 C 126.542969 238.753906 126.664062 238.683594 126.769531 238.585938 C 126.878906 238.484375 126.957031 238.367188 127.011719 238.234375 C 127.066406 238.097656 127.089844 237.957031 127.078125 237.8125 C 127.070312 237.667969 127.03125 237.53125 126.960938 237.40625 C 126.558594 236.808594 125.097656 237.128906 124.503906 237.136719 Z M 124.503906 237.136719 " fill-opacity="1" fill-rule="nonzero"/><path fill="#a9a0f0" d="M 151.132812 233.941406 C 150.300781 233.847656 148.746094 236.800781 148.457031 237.441406 C 149.34375 237.53125 150.21875 237.492188 151.09375 237.320312 C 151.578125 237.226562 152.316406 234.070312 151.132812 233.941406 Z M 151.132812 233.941406 " fill-opacity="1" fill-rule="nonzero"/><path fill="#a9a0f0" d="M 171.308594 235.9375 C 171.277344 236 171.265625 236.0625 171.285156 236.132812 C 171.292969 236.160156 171.308594 236.179688 171.332031 236.199219 C 171.375 236.230469 171.417969 236.253906 171.464844 236.273438 C 172.199219 236.699219 172.972656 236.792969 173.789062 236.558594 C 175.800781 235.523438 172.386719 233.34375 171.308594 235.9375 Z M 171.308594 235.9375 " fill-opacity="1" fill-rule="nonzero"/><path fill="#a9a0f0" d="M 186.964844 220.40625 C 185.980469 220.792969 185.242188 222.714844 184.890625 223.457031 C 185.601562 223.578125 187.53125 224.226562 188.207031 223.953125 C 188.796875 223.710938 189.683594 220.519531 189.8125 220.53125 L 187.382812 220.339844 C 187.238281 220.328125 187.097656 220.351562 186.964844 220.40625 Z M 186.964844 220.40625 " fill-opacity="1" fill-rule="nonzero"/><path fill="#a9a0f0" d="M 88.78125 143.027344 L 88.839844 143.027344 C 89.640625 142.921875 90.386719 142.660156 91.078125 142.234375 C 91.359375 142.09375 91.628906 141.953125 91.875 141.851562 C 94.707031 140.8125 97.625 140.167969 100.632812 139.914062 C 107.875 139.914062 115.429688 138.8125 122.742188 137.742188 C 126.183594 137.238281 129.753906 136.71875 133.179688 136.335938 C 133.417969 136.308594 133.570312 136.183594 133.636719 135.953125 C 133.703125 135.726562 133.644531 135.535156 133.460938 135.382812 C 132.1875 134.5625 130.800781 134.273438 129.304688 134.515625 L 111.238281 135.398438 C 107.175781 135.527344 103.128906 135.867188 99.097656 136.414062 C 96.988281 136.730469 94.910156 137.191406 92.867188 137.808594 L 92.199219 138.007812 C 90.585938 138.480469 88.566406 139.070312 87.5 140.421875 C 87.269531 140.6875 87.128906 140.996094 87.070312 141.34375 C 87.023438 141.765625 87.148438 142.132812 87.445312 142.441406 C 87.808594 142.828125 88.253906 143.023438 88.78125 143.027344 Z M 88.34375 141.089844 C 89.195312 140.015625 91.027344 139.476562 92.503906 139.046875 L 93.183594 138.84375 C 95.175781 138.242188 97.203125 137.792969 99.261719 137.488281 C 103.253906 136.941406 107.261719 136.609375 111.289062 136.480469 L 129.355469 135.601562 C 129.664062 135.582031 129.96875 135.574219 130.265625 135.574219 C 130.359375 135.574219 130.449219 135.574219 130.539062 135.574219 C 127.890625 135.910156 125.203125 136.300781 122.585938 136.683594 C 115.316406 137.746094 107.796875 138.84375 100.566406 138.847656 C 97.441406 139.109375 94.410156 139.78125 91.464844 140.859375 C 91.195312 140.964844 90.898438 141.121094 90.585938 141.28125 C 90.035156 141.621094 89.441406 141.84375 88.804688 141.957031 C 88.578125 141.960938 88.390625 141.882812 88.238281 141.71875 C 88.164062 141.652344 88.132812 141.570312 88.136719 141.472656 C 88.175781 141.328125 88.242188 141.199219 88.34375 141.085938 Z M 88.34375 141.089844 " fill-opacity="1" fill-rule="nonzero"/><g clip-path="url(#25ced8ec22)"><path fill="#a9a0f0" d="M 263.878906 52.644531 C 265.742188 52.292969 267.3125 51.410156 268.585938 50.003906 C 270.007812 48.101562 269.972656 44.628906 268.5 41.558594 C 267.222656 38.894531 265.191406 37.253906 263.066406 37.183594 C 261.554688 37.265625 260.171875 37.726562 258.914062 38.566406 C 251.472656 42.707031 243.410156 47.050781 234.847656 50.785156 L 199.320312 66.28125 C 194.359375 68.445312 189.230469 70.683594 183.863281 71.828125 C 180.609375 72.449219 177.328125 72.871094 174.023438 73.097656 C 172.925781 73.195312 171.828125 73.292969 170.734375 73.40625 C 168.796875 73.601562 166.882812 73.835938 164.988281 74.101562 C 164.796875 73.429688 164.480469 72.824219 164.042969 72.285156 C 163.605469 71.742188 163.078125 71.308594 162.464844 70.980469 C 160.625 70.03125 158.546875 70.390625 156.539062 70.738281 C 154.527344 71.085938 152.601562 71.417969 151.101562 70.417969 C 150.617188 70.0625 150.183594 69.652344 149.800781 69.191406 C 149.394531 68.714844 148.945312 68.285156 148.453125 67.898438 C 146.910156 66.964844 145.238281 66.554688 143.4375 66.667969 L 143.179688 66.667969 C 141.6875 66.757812 140.25 66.515625 138.871094 65.941406 C 137.675781 65.3125 136.746094 63.773438 137.324219 62.570312 C 137.359375 62.492188 137.378906 62.410156 137.375 62.324219 C 137.371094 62.234375 137.351562 62.152344 137.308594 62.078125 C 137.265625 62 137.207031 61.9375 137.132812 61.890625 C 137.058594 61.84375 136.980469 61.8125 136.890625 61.804688 C 134.855469 61.589844 133.21875 63.605469 132.695312 65.707031 C 132.5625 66.234375 132.46875 66.785156 132.371094 67.324219 C 132.265625 68.558594 131.890625 69.703125 131.253906 70.765625 C 130.375 71.769531 129.324219 72.519531 128.09375 73.027344 C 126.550781 73.820312 124.957031 74.640625 124.226562 76.296875 C 123.84375 77.300781 123.625 78.335938 123.566406 79.410156 C 123.511719 80.164062 123.390625 80.90625 123.203125 81.640625 C 122.964844 82.363281 122.675781 83.066406 122.328125 83.742188 C 122 84.386719 121.714844 85.050781 121.472656 85.734375 C 121.226562 86.453125 121.121094 87.191406 121.148438 87.949219 C 118.734375 89.347656 116.394531 91.261719 116.03125 94.078125 C 115.621094 97.253906 118.0625 100.078125 120.6875 101.222656 C 122.460938 101.945312 124.308594 102.277344 126.226562 102.222656 C 127.246094 102.222656 128.269531 102.15625 129.277344 102.066406 C 138.691406 101.21875 147.914062 98.664062 156.828125 96.195312 C 161.691406 94.996094 166.414062 93.386719 170.992188 91.367188 C 174.589844 89.546875 178.042969 87.488281 181.347656 85.183594 C 184.007812 83.421875 186.757812 81.597656 189.605469 80.070312 C 193.132812 78.175781 196.917969 76.582031 200.578125 75.042969 C 203.082031 73.988281 205.671875 72.894531 208.167969 71.714844 C 220.210938 66.023438 232.664062 60.132812 245.800781 56.828125 C 248.34375 56.179688 250.957031 55.632812 253.484375 55.097656 C 256.90625 54.375 260.449219 53.625 263.878906 52.644531 Z M 122.492188 86.078125 C 122.71875 85.4375 122.988281 84.8125 123.292969 84.207031 C 123.664062 83.480469 123.976562 82.726562 124.230469 81.949219 C 124.441406 81.152344 124.578125 80.339844 124.636719 79.519531 C 124.6875 78.558594 124.878906 77.628906 125.210938 76.730469 C 125.792969 75.421875 127.148438 74.722656 128.585938 73.980469 C 129.972656 73.402344 131.152344 72.542969 132.128906 71.398438 C 132.867188 70.203125 133.304688 68.910156 133.4375 67.511719 C 133.523438 66.992188 133.613281 66.476562 133.738281 65.972656 C 133.851562 65.300781 134.117188 64.695312 134.535156 64.15625 C 134.953125 63.617188 135.476562 63.210938 136.097656 62.933594 C 136.070312 63.339844 136.105469 63.742188 136.195312 64.136719 C 136.289062 64.53125 136.433594 64.90625 136.636719 65.257812 C 136.835938 65.609375 137.085938 65.925781 137.382812 66.207031 C 137.675781 66.484375 138.003906 66.714844 138.367188 66.898438 C 139.898438 67.5625 141.492188 67.84375 143.160156 67.746094 L 143.417969 67.746094 C 144.988281 67.644531 146.457031 67.984375 147.820312 68.773438 C 148.253906 69.117188 148.648438 69.496094 149.003906 69.917969 C 149.449219 70.445312 149.949219 70.914062 150.511719 71.316406 C 152.367188 72.550781 154.582031 72.171875 156.726562 71.800781 C 158.648438 71.46875 160.464844 71.152344 161.976562 71.933594 C 163.988281 72.96875 164.589844 75.683594 164.015625 77.710938 C 163.207031 80 161.796875 81.820312 159.78125 83.171875 C 153.625 87.921875 145.628906 89.804688 138.578125 91.46875 L 137.511719 91.722656 C 132.925781 92.828125 128.589844 93.871094 124.339844 91.078125 C 123.617188 90.660156 123.039062 90.09375 122.601562 89.378906 C 122.097656 88.292969 122.058594 87.195312 122.492188 86.078125 Z M 122.492188 86.078125 " fill-opacity="1" fill-rule="nonzero"/></g><path fill="#a9a0f0" d="M 154.976562 76.769531 C 154.421875 77.070312 153.953125 77.476562 153.578125 77.984375 C 154.109375 78.339844 154.644531 78.617188 155.191406 78.933594 C 155.238281 78.96875 155.292969 78.980469 155.351562 78.972656 C 155.410156 78.957031 155.445312 78.894531 155.472656 78.835938 L 156.292969 77.132812 C 156.457031 76.796875 155.117188 76.730469 154.976562 76.769531 Z M 154.976562 76.769531 " fill-opacity="1" fill-rule="nonzero"/><path fill="#a9a0f0" d="M 142.390625 81.300781 C 142.3125 82.300781 142.339844 83.246094 142.332031 84.238281 C 142.308594 84.34375 142.332031 84.429688 142.414062 84.5 C 142.492188 84.570312 142.582031 84.585938 142.679688 84.550781 L 145.640625 84.363281 C 146.222656 84.328125 145.285156 82.433594 145.125 82.273438 C 144.285156 81.75 143.375 81.425781 142.390625 81.300781 Z M 142.390625 81.300781 " fill-opacity="1" fill-rule="nonzero"/><path fill="#a9a0f0" d="M 146.96875 74.589844 C 146.988281 74.480469 146.980469 74.371094 146.949219 74.265625 C 146.851562 74.089844 146.703125 73.976562 146.511719 73.925781 C 145.195312 73.402344 143.921875 72.800781 142.6875 72.117188 C 142.121094 72.269531 141.621094 72.542969 141.179688 72.929688 C 142.972656 74.089844 144.855469 75.074219 146.828125 75.882812 C 146.878906 75.453125 146.921875 75.019531 146.96875 74.589844 Z M 146.96875 74.589844 " fill-opacity="1" fill-rule="nonzero"/><path fill="#a9a0f0" d="M 133.585938 80.136719 C 133.753906 79.367188 133.792969 78.597656 133.710938 77.816406 L 131.089844 78.03125 C 130.425781 78.085938 129.203125 79.222656 129.84375 79.878906 C 130.167969 80.21875 133.0625 80.074219 133.585938 80.136719 Z M 133.585938 80.136719 " fill-opacity="1" fill-rule="nonzero"/><path fill="#a9a0f0" d="M 133.355469 87.707031 L 132.367188 87.09375 C 132.238281 86.992188 132.09375 86.945312 131.929688 86.964844 C 131.824219 87 131.738281 87.066406 131.667969 87.15625 C 131.46875 87.382812 131.296875 87.632812 131.152344 87.894531 C 130.9375 88.015625 130.804688 88.195312 130.753906 88.433594 C 130.71875 88.710938 130.726562 88.910156 130.929688 88.71875 L 132.164062 89.523438 C 132.246094 89.589844 132.335938 89.625 132.4375 89.621094 C 132.546875 89.601562 132.621094 89.5 132.683594 89.40625 L 133.472656 88.179688 C 133.53125 88.105469 133.558594 88.023438 133.558594 87.933594 C 133.542969 87.828125 133.441406 87.765625 133.355469 87.707031 Z M 133.355469 87.707031 " fill-opacity="1" fill-rule="nonzero"/></svg>