<svg xmlns="http://www.w3.org/2000/svg" xmlns:xlink="http://www.w3.org/1999/xlink" width="400" zoomAndPan="magnify" viewBox="0 0 300 299.999988" height="400" preserveAspectRatio="xMidYMid meet" version="1.0"><path fill="#a9a0f0" d="M 126.824219 193.746094 C 130.054688 199.003906 130.796875 204.792969 128.359375 210.546875 C 128.226562 210.863281 128.683594 211.152344 128.835938 210.824219 C 131.394531 205.390625 130.828125 198.339844 126.964844 193.636719 C 126.898438 193.554688 126.773438 193.660156 126.824219 193.746094 " fill-opacity="1" fill-rule="nonzero"/><path fill="#a9a0f0" d="M 130.519531 195.886719 C 132.613281 200.816406 132.46875 206.058594 130.585938 211.011719 C 130.476562 211.296875 130.953125 211.5 131.078125 211.222656 C 133.242188 206.222656 132.941406 200.703125 130.636719 195.820312 C 130.597656 195.738281 130.484375 195.808594 130.519531 195.886719 " fill-opacity="1" fill-rule="nonzero"/><path fill="#a9a0f0" d="M 133.554688 199.386719 C 134.574219 202.464844 134.632812 205.425781 133.945312 208.574219 C 133.871094 208.910156 134.375 209.054688 134.464844 208.71875 C 135.316406 205.59375 135.007812 202.304688 133.765625 199.332031 C 133.710938 199.207031 133.511719 199.253906 133.554688 199.386719 " fill-opacity="1" fill-rule="nonzero"/><path fill="#a9a0f0" d="M 111.398438 209.882812 C 108.308594 208.59375 105.570312 206.90625 102.867188 204.941406 C 102.570312 204.726562 102.292969 205.214844 102.582031 205.429688 C 105.226562 207.417969 108.261719 208.867188 111.394531 209.90625 C 111.40625 209.910156 111.410156 209.890625 111.398438 209.882812 " fill-opacity="1" fill-rule="nonzero"/><path fill="#a9a0f0" d="M 110.65625 207.199219 C 109.382812 206.71875 108.09375 206.339844 106.878906 205.695312 C 105.789062 205.121094 104.851562 204.355469 103.828125 203.679688 C 103.59375 203.523438 103.347656 203.863281 103.535156 204.054688 C 105.265625 205.824219 108.175781 207.160156 110.636719 207.367188 C 110.738281 207.375 110.742188 207.230469 110.65625 207.199219 " fill-opacity="1" fill-rule="nonzero"/><path fill="#a9a0f0" d="M 91.054688 207.863281 C 90.695312 208.605469 90.492188 209.417969 90.214844 210.191406 C 89.855469 211.183594 89.390625 212.125 88.976562 213.09375 C 88.867188 213.339844 89.199219 213.558594 89.347656 213.3125 C 90.257812 211.769531 91.144531 209.703125 91.167969 207.890625 C 91.167969 207.832031 91.082031 207.804688 91.054688 207.863281 " fill-opacity="1" fill-rule="nonzero"/><path fill="#a9a0f0" d="M 93.179688 206.222656 C 92.53125 207.910156 91.988281 209.65625 91.464844 211.386719 C 91.402344 211.597656 91.71875 211.683594 91.789062 211.476562 C 92.351562 209.761719 92.90625 208.019531 93.34375 206.265625 C 93.375 206.15625 93.21875 206.121094 93.179688 206.222656 " fill-opacity="1" fill-rule="nonzero"/><path fill="#a9a0f0" d="M 94.761719 205.5625 C 94.289062 207.53125 93.65625 209.445312 93.132812 211.402344 C 93.082031 211.578125 93.335938 211.640625 93.402344 211.476562 C 94.113281 209.59375 94.546875 207.582031 94.949219 205.613281 C 94.972656 205.492188 94.792969 205.4375 94.761719 205.5625 " fill-opacity="1" fill-rule="nonzero"/><path fill="#a9a0f0" d="M 96.742188 202.972656 C 96.378906 205.113281 95.84375 207.203125 95.207031 209.28125 C 95.148438 209.480469 95.457031 209.566406 95.519531 209.367188 C 96.179688 207.292969 96.621094 205.175781 96.921875 203.019531 C 96.9375 202.90625 96.761719 202.851562 96.742188 202.972656 " fill-opacity="1" fill-rule="nonzero"/><path fill="#a9a0f0" d="M 98.53125 201.691406 C 98.136719 204.207031 97.597656 206.644531 96.992188 209.117188 C 96.953125 209.28125 97.1875 209.34375 97.242188 209.1875 C 98.101562 206.808594 98.574219 204.238281 98.714844 201.714844 C 98.722656 201.609375 98.550781 201.582031 98.53125 201.691406 " fill-opacity="1" fill-rule="nonzero"/><path fill="#a9a0f0" d="M 100.390625 200.851562 C 99.972656 203.125 99.53125 205.386719 99.089844 207.65625 C 99.039062 207.914062 99.402344 208.015625 99.484375 207.761719 C 100.199219 205.632812 100.601562 203.128906 100.609375 200.878906 C 100.609375 200.757812 100.414062 200.722656 100.390625 200.851562 " fill-opacity="1" fill-rule="nonzero"/><path fill="#a9a0f0" d="M 240.441406 56.738281 C 240.757812 56.574219 241 56.640625 241.167969 56.941406 C 241.457031 57.210938 241.746094 57.480469 242.039062 57.746094 C 242.613281 58.285156 243.1875 58.828125 243.75 59.382812 C 244.785156 60.398438 245.796875 61.4375 246.757812 62.519531 C 248.921875 64.953125 250.882812 67.570312 252.492188 70.40625 C 255.824219 76.28125 256.996094 82.480469 256.558594 89.171875 C 256.539062 89.460938 257.015625 89.53125 257.074219 89.238281 C 258.375 82.605469 256.191406 75.449219 252.855469 69.734375 C 251.121094 66.757812 249 64.03125 246.636719 61.527344 C 245.371094 60.183594 244.042969 58.902344 242.65625 57.683594 C 242.019531 57.125 241.324219 56.171875 240.402344 56.234375 C 240.378906 56.238281 240.351562 56.246094 240.339844 56.269531 C 240.300781 56.363281 240.257812 56.460938 240.21875 56.554688 C 240.210938 56.570312 240.210938 56.582031 240.222656 56.59375 C 240.285156 56.652344 240.34375 56.714844 240.402344 56.773438 C 240.429688 56.796875 240.460938 56.761719 240.441406 56.738281 " fill-opacity="1" fill-rule="nonzero"/><path fill="#a9a0f0" d="M 241.636719 64.125 C 245.304688 67.058594 247.949219 71.085938 250.042969 75.238281 C 252.480469 80.078125 254.675781 85.230469 253.476562 90.726562 C 253.398438 91.070312 253.902344 91.214844 254.007812 90.871094 C 255.597656 85.78125 253.257812 80.492188 251.019531 75.964844 C 248.71875 71.304688 245.898438 67.167969 241.734375 63.996094 C 241.660156 63.9375 241.5625 64.066406 241.636719 64.125 " fill-opacity="1" fill-rule="nonzero"/><path fill="#a9a0f0" d="M 240.132812 68.789062 C 243.042969 72.285156 245.679688 75.75 247.542969 79.929688 C 249.488281 84.296875 250.359375 88.816406 250.878906 93.546875 C 250.910156 93.824219 251.324219 93.839844 251.324219 93.546875 C 251.34375 84.636719 247.027344 74.535156 240.289062 68.628906 C 240.179688 68.535156 240.039062 68.675781 240.132812 68.789062 " fill-opacity="1" fill-rule="nonzero"/><path fill="#a9a0f0" d="M 239.230469 74.46875 C 241.550781 77.78125 243.671875 81.082031 245.101562 84.890625 C 246.578125 88.832031 247.945312 93.496094 246.59375 97.621094 C 246.515625 97.859375 246.902344 98.03125 247.011719 97.792969 C 248.734375 94.011719 247.207031 89.15625 245.867188 85.460938 C 244.414062 81.441406 242.296875 77.5 239.367188 74.363281 C 239.300781 74.292969 239.171875 74.386719 239.230469 74.46875 " fill-opacity="1" fill-rule="nonzero"/><path fill="#a9a0f0" d="M 238.101562 80.363281 C 242.539062 86.011719 244.5 92.796875 244.382812 99.921875 C 244.378906 100.230469 244.824219 100.21875 244.851562 99.921875 C 245.457031 92.738281 242.851562 85.679688 238.207031 80.253906 C 238.140625 80.179688 238.042969 80.289062 238.101562 80.363281 " fill-opacity="1" fill-rule="nonzero"/><path fill="#a9a0f0" d="M 236.558594 86.164062 C 240.226562 91.871094 241.757812 97.785156 241.179688 104.550781 C 241.15625 104.804688 241.589844 104.867188 241.632812 104.609375 C 242.703125 98.207031 240.847656 91.0625 236.679688 86.074219 C 236.625 86.007812 236.511719 86.09375 236.558594 86.164062 " fill-opacity="1" fill-rule="nonzero"/><path fill="#a9a0f0" d="M 234.472656 91.464844 C 237.601562 97.058594 238.4375 102.480469 238.027344 108.792969 C 238.015625 109.027344 238.386719 109.074219 238.4375 108.847656 C 239.800781 103 238.050781 96.199219 234.59375 91.390625 C 234.542969 91.316406 234.425781 91.382812 234.472656 91.464844 " fill-opacity="1" fill-rule="nonzero"/><path fill="#a9a0f0" d="M 231.445312 95.503906 C 234.695312 100.304688 235.582031 106.078125 234.097656 111.65625 C 234.019531 111.953125 234.464844 112.074219 234.554688 111.78125 C 236.289062 106.140625 235.136719 100.105469 231.601562 95.414062 C 231.53125 95.324219 231.378906 95.40625 231.445312 95.503906 " fill-opacity="1" fill-rule="nonzero"/><path fill="#a9a0f0" d="M 229.484375 99.027344 C 231.433594 103.28125 231.742188 107.640625 230.984375 112.207031 C 230.945312 112.4375 231.28125 112.542969 231.34375 112.304688 C 232.566406 107.785156 231.746094 103.058594 229.566406 98.980469 C 229.535156 98.929688 229.457031 98.976562 229.484375 99.027344 " fill-opacity="1" fill-rule="nonzero"/><path fill="#a9a0f0" d="M 227.394531 104.304688 C 228.285156 108.359375 227.433594 112.417969 227.363281 116.5 C 227.359375 116.757812 227.746094 116.753906 227.761719 116.5 C 227.988281 112.4375 228.726562 108.238281 227.5 104.273438 C 227.476562 104.210938 227.382812 104.238281 227.394531 104.304688 " fill-opacity="1" fill-rule="nonzero"/><path fill="#a9a0f0" d="M 224.222656 109.589844 C 224.3125 113.300781 224.042969 116.78125 223.273438 120.421875 C 223.222656 120.652344 223.558594 120.746094 223.625 120.519531 C 224.675781 117.019531 224.980469 113.175781 224.417969 109.566406 C 224.402344 109.453125 224.21875 109.480469 224.222656 109.589844 " fill-opacity="1" fill-rule="nonzero"/><path fill="#a9a0f0" d="M 220.589844 112.914062 C 220.632812 117.203125 220.167969 121.375 219.492188 125.605469 C 219.460938 125.820312 219.78125 125.917969 219.828125 125.699219 C 220.707031 121.503906 220.910156 117.1875 220.75 112.914062 C 220.746094 112.8125 220.589844 112.8125 220.589844 112.914062 " fill-opacity="1" fill-rule="nonzero"/><path fill="#a9a0f0" d="M 216.976562 117.816406 C 216.855469 121.972656 216.414062 125.953125 215.328125 129.972656 C 215.269531 130.183594 215.585938 130.269531 215.652344 130.0625 C 216.917969 126.136719 217.558594 121.949219 217.234375 117.816406 C 217.222656 117.65625 216.980469 117.652344 216.976562 117.816406 " fill-opacity="1" fill-rule="nonzero"/><path fill="#a9a0f0" d="M 213.457031 120.792969 C 212.371094 125.109375 212.394531 129.628906 211.554688 133.996094 C 211.511719 134.222656 211.847656 134.316406 211.898438 134.09375 C 212.890625 129.746094 212.988281 125.257812 213.734375 120.867188 C 213.765625 120.691406 213.503906 120.609375 213.457031 120.792969 " fill-opacity="1" fill-rule="nonzero"/><path fill="#a9a0f0" d="M 208.597656 126.144531 C 207.863281 131.042969 206.828125 135.710938 205.351562 140.441406 C 205.269531 140.703125 205.664062 140.800781 205.761719 140.550781 C 207.507812 136.019531 208.585938 131.027344 208.792969 126.171875 C 208.800781 126.058594 208.613281 126.03125 208.597656 126.144531 " fill-opacity="1" fill-rule="nonzero"/><path fill="#a9a0f0" d="M 203.707031 131.578125 C 202.535156 136.585938 201.421875 141.480469 199.574219 146.292969 C 199.503906 146.480469 199.820312 146.613281 199.894531 146.429688 C 201.894531 141.734375 203.207031 136.683594 203.898438 131.632812 C 203.917969 131.507812 203.738281 131.449219 203.707031 131.578125 " fill-opacity="1" fill-rule="nonzero"/><path fill="#a9a0f0" d="M 198.519531 136.234375 C 198.488281 140.128906 197.195312 144.0625 195.957031 147.726562 C 195.890625 147.921875 196.1875 147.996094 196.261719 147.808594 C 197.628906 144.285156 199.082031 140.058594 198.695312 136.234375 C 198.683594 136.125 198.523438 136.121094 198.519531 136.234375 " fill-opacity="1" fill-rule="nonzero"/><path fill="#a9a0f0" d="M 193.78125 140.835938 C 192.429688 145.804688 190.8125 150.480469 188.570312 155.128906 C 188.472656 155.332031 188.761719 155.507812 188.875 155.308594 C 191.320312 150.875 193.175781 145.898438 194.011719 140.898438 C 194.035156 140.75 193.824219 140.683594 193.78125 140.835938 " fill-opacity="1" fill-rule="nonzero"/><path fill="#a9a0f0" d="M 188.261719 148 C 186.269531 153.324219 184.089844 158.320312 181.253906 163.253906 C 181.132812 163.460938 181.4375 163.632812 181.570312 163.4375 C 184.621094 158.835938 187.164062 153.4375 188.484375 148.0625 C 188.519531 147.917969 188.316406 147.863281 188.261719 148 " fill-opacity="1" fill-rule="nonzero"/><path fill="#a9a0f0" d="M 61.523438 242.941406 C 61.074219 244.460938 61.359375 246.300781 62.351562 247.550781 C 62.476562 247.707031 62.710938 247.503906 62.621094 247.339844 C 61.84375 245.886719 61.503906 244.617188 61.671875 242.964844 C 61.679688 242.875 61.546875 242.863281 61.523438 242.941406 " fill-opacity="1" fill-rule="nonzero"/><path fill="#a9a0f0" d="M 63.160156 241.820312 C 63.164062 243.480469 63.179688 245.175781 63.457031 246.8125 C 63.492188 247.023438 63.84375 246.976562 63.832031 246.765625 C 63.714844 245.113281 63.492188 243.480469 63.425781 241.820312 C 63.417969 241.652344 63.160156 241.648438 63.160156 241.820312 " fill-opacity="1" fill-rule="nonzero"/><path fill="#a9a0f0" d="M 64.753906 237.546875 C 64.890625 238.53125 65.070312 239.503906 65.054688 240.503906 C 65.039062 241.503906 64.816406 242.453125 64.648438 243.433594 C 64.605469 243.691406 64.957031 243.792969 65.042969 243.542969 C 65.683594 241.699219 65.617188 239.3125 64.878906 237.511719 C 64.847656 237.433594 64.742188 237.460938 64.753906 237.546875 " fill-opacity="1" fill-rule="nonzero"/><path fill="#a9a0f0" d="M 65.875 236.40625 C 66.058594 237.773438 66.058594 239.128906 66.105469 240.503906 C 66.113281 240.714844 66.414062 240.710938 66.429688 240.503906 C 66.53125 239.121094 66.34375 237.707031 66.101562 236.34375 C 66.078125 236.191406 65.855469 236.261719 65.875 236.40625 " fill-opacity="1" fill-rule="nonzero"/><path fill="#a9a0f0" d="M 66.953125 236.089844 C 67.050781 236.753906 67.128906 237.417969 67.269531 238.070312 C 67.304688 238.230469 67.578125 238.199219 67.558594 238.035156 C 67.476562 237.359375 67.332031 236.691406 67.210938 236.019531 C 67.175781 235.851562 66.925781 235.925781 66.953125 236.089844 " fill-opacity="1" fill-rule="nonzero"/><path fill="#a9a0f0" d="M 40.800781 255.71875 C 41.542969 257.035156 42.734375 258.132812 44.082031 258.808594 C 44.328125 258.929688 44.539062 258.582031 44.300781 258.433594 C 43.019531 257.648438 41.949219 256.722656 40.953125 255.597656 C 40.875 255.515625 40.746094 255.621094 40.800781 255.71875 " fill-opacity="1" fill-rule="nonzero"/><path fill="#a9a0f0" d="M 43.78125 256.402344 C 44.957031 257.917969 46.691406 259.121094 48.628906 259.351562 C 48.839844 259.375 48.878906 259.035156 48.679688 258.980469 C 46.8125 258.480469 45.226562 257.71875 43.96875 256.214844 C 43.855469 256.082031 43.675781 256.269531 43.78125 256.402344 " fill-opacity="1" fill-rule="nonzero"/><path fill="#a9a0f0" d="M 46.730469 256.085938 C 48.261719 257.675781 50.097656 258.828125 52.203125 259.5 C 52.484375 259.589844 52.609375 259.144531 52.324219 259.058594 C 50.273438 258.445312 48.445312 257.398438 46.894531 255.917969 C 46.785156 255.8125 46.621094 255.976562 46.730469 256.085938 " fill-opacity="1" fill-rule="nonzero"/><path fill="#a9a0f0" d="M 50.242188 255.902344 C 51.804688 257.046875 53.355469 258.210938 54.941406 259.320312 C 55.15625 259.46875 55.355469 259.125 55.144531 258.972656 C 53.570312 257.855469 51.953125 256.789062 50.355469 255.710938 C 50.234375 255.628906 50.128906 255.816406 50.242188 255.902344 " fill-opacity="1" fill-rule="nonzero"/><path fill="#a9a0f0" d="M 52.535156 255.222656 C 54.199219 256.984375 56.011719 258.71875 57.871094 260.269531 C 58.078125 260.445312 58.375 260.164062 58.175781 259.964844 C 56.453125 258.257812 54.550781 256.609375 52.640625 255.117188 C 52.566406 255.058594 52.46875 255.152344 52.535156 255.222656 " fill-opacity="1" fill-rule="nonzero"/><path fill="#a9a0f0" d="M 55.160156 255.726562 C 56.925781 257.527344 58.472656 259.429688 60.03125 261.40625 C 60.175781 261.585938 60.472656 261.351562 60.355469 261.15625 C 59.035156 259.050781 57.242188 257.136719 55.34375 255.542969 C 55.214844 255.441406 55.039062 255.605469 55.160156 255.726562 " fill-opacity="1" fill-rule="nonzero"/><path fill="#a9a0f0" d="M 76.652344 258.945312 C 79.648438 259.28125 82.179688 260.308594 84.929688 261.472656 C 85.167969 261.574219 85.363281 261.265625 85.136719 261.117188 C 82.660156 259.507812 79.554688 258.8125 76.652344 258.527344 C 76.382812 258.503906 76.386719 258.917969 76.652344 258.945312 " fill-opacity="1" fill-rule="nonzero"/><path fill="#a9a0f0" d="M 81.089844 258.277344 C 83.238281 259.332031 85.289062 260.515625 87.386719 261.65625 C 87.59375 261.765625 87.753906 261.476562 87.566406 261.34375 C 85.632812 259.960938 83.398438 258.910156 81.164062 258.101562 C 81.0625 258.066406 80.992188 258.230469 81.089844 258.277344 " fill-opacity="1" fill-rule="nonzero"/><path fill="#a9a0f0" d="M 85.980469 259.058594 C 88.46875 260.640625 91.101562 262.128906 93.894531 263.109375 C 94.125 263.1875 94.285156 262.8125 94.058594 262.714844 C 91.332031 261.535156 88.652344 260.394531 86.074219 258.898438 C 85.96875 258.835938 85.878906 258.992188 85.980469 259.058594 " fill-opacity="1" fill-rule="nonzero"/><path fill="#a9a0f0" d="M 93.199219 261.191406 C 94.90625 262.546875 97.078125 262.949219 99.105469 262.101562 C 99.308594 262.019531 99.230469 261.6875 99.011719 261.761719 C 97.082031 262.429688 95.007812 262.210938 93.335938 261.015625 C 93.234375 260.945312 93.101562 261.113281 93.199219 261.191406 " fill-opacity="1" fill-rule="nonzero"/><path fill="#a9a0f0" d="M 100.425781 155.066406 C 104.246094 151.730469 107.992188 148.121094 111.382812 144.351562 C 111.65625 144.046875 111.238281 143.628906 110.9375 143.902344 C 107.164062 147.292969 103.554688 151.039062 100.222656 154.863281 C 100.101562 155 100.285156 155.1875 100.425781 155.066406 " fill-opacity="1" fill-rule="nonzero"/><path fill="#a9a0f0" d="M 114.410156 141.105469 C 118.082031 138.222656 121.390625 134.847656 124.777344 131.640625 C 128.71875 127.914062 132.617188 124.144531 136.503906 120.367188 C 145.085938 112.03125 153.539062 103.5625 162.007812 95.113281 C 176.5625 80.589844 191.015625 65.96875 205.417969 51.289062 C 208.339844 48.308594 211.253906 45.320312 214.175781 42.34375 C 214.742188 41.765625 213.855469 40.882812 213.292969 41.457031 C 205.035156 49.878906 196.710938 58.234375 188.398438 66.597656 C 171.886719 83.203125 155.402344 99.839844 138.746094 116.304688 C 134.304688 120.691406 129.886719 125.105469 125.445312 129.492188 C 121.660156 133.230469 117.660156 136.84375 114.148438 140.839844 C 113.984375 141.027344 114.222656 141.25 114.410156 141.105469 " fill-opacity="1" fill-rule="nonzero"/><path fill="#a9a0f0" d="M 89.8125 180.539062 C 91.816406 176.914062 94.046875 173.703125 96.5625 170.414062 C 96.800781 170.097656 96.289062 169.726562 96.019531 169.996094 C 93.179688 172.828125 90.875 176.652344 89.511719 180.410156 C 89.445312 180.589844 89.722656 180.699219 89.8125 180.539062 " fill-opacity="1" fill-rule="nonzero"/><path fill="#a9a0f0" d="M 93.070312 180.992188 C 95.1875 178 97.554688 174.996094 99.324219 171.785156 C 99.554688 171.367188 98.976562 171.066406 98.703125 171.421875 C 96.484375 174.332031 94.691406 177.703125 92.8125 180.839844 C 92.710938 181.007812 92.960938 181.148438 93.070312 180.992188 " fill-opacity="1" fill-rule="nonzero"/><path fill="#a9a0f0" d="M 95.726562 182.289062 C 98.46875 179.441406 101.011719 176.140625 102.5 172.449219 C 102.664062 172.050781 102.003906 171.78125 101.804688 172.15625 C 99.933594 175.671875 98.074219 178.972656 95.414062 181.972656 C 95.222656 182.1875 95.527344 182.496094 95.726562 182.289062 " fill-opacity="1" fill-rule="nonzero"/><path fill="#a9a0f0" d="M 98.773438 184.195312 C 98.773438 184.292969 99.679688 183.097656 99.976562 182.71875 C 100.574219 181.953125 101.160156 181.183594 101.761719 180.421875 C 102.738281 179.1875 104.042969 177.996094 104.660156 176.535156 C 104.773438 176.265625 104.398438 176.011719 104.175781 176.160156 C 102.945312 176.988281 102.09375 178.460938 101.226562 179.640625 C 100.222656 181.003906 99.050781 182.417969 98.316406 183.945312 C 98.261719 184.058594 98.257812 184.214844 98.363281 184.304688 C 98.546875 184.46875 98.667969 184.523438 98.878906 184.363281 C 98.902344 184.34375 98.914062 184.320312 98.910156 184.285156 C 98.902344 184.25 98.894531 184.214844 98.886719 184.179688 C 98.875 184.113281 98.777344 184.132812 98.773438 184.195312 " fill-opacity="1" fill-rule="nonzero"/><path fill="#a9a0f0" d="M 101.414062 186.117188 C 102.9375 184.867188 104.164062 183.199219 105.390625 181.660156 C 106.5 180.269531 107.796875 178.859375 108.617188 177.28125 C 108.828125 176.871094 108.292969 176.402344 107.949219 176.765625 C 106.71875 178.070312 105.785156 179.699219 104.71875 181.144531 C 103.550781 182.730469 102.195312 184.257812 101.234375 185.980469 C 101.167969 186.097656 101.316406 186.199219 101.414062 186.117188 " fill-opacity="1" fill-rule="nonzero"/><path fill="#a9a0f0" d="M 103.910156 188.144531 C 105.429688 186.621094 106.847656 184.988281 108.300781 183.398438 C 109.605469 181.976562 111.105469 180.617188 112.160156 179.003906 C 112.410156 178.621094 111.875 178.269531 111.5625 178.539062 C 109.96875 179.929688 108.691406 181.824219 107.34375 183.457031 C 106.109375 184.945312 104.832031 186.410156 103.660156 187.953125 C 103.550781 188.097656 103.789062 188.269531 103.910156 188.144531 " fill-opacity="1" fill-rule="nonzero"/><path fill="#a9a0f0" d="M 106.359375 189.660156 C 108.960938 187.011719 111.78125 184.464844 114.179688 181.632812 C 114.546875 181.199219 113.972656 180.601562 113.546875 181 C 110.859375 183.5625 108.476562 186.53125 105.984375 189.28125 C 105.753906 189.535156 106.117188 189.90625 106.359375 189.660156 " fill-opacity="1" fill-rule="nonzero"/><path fill="#a9a0f0" d="M 107.820312 192.519531 C 110.898438 189.796875 114.15625 186.703125 116.421875 183.253906 C 116.710938 182.820312 116.054688 182.308594 115.703125 182.695312 C 112.898438 185.804688 110.40625 189.164062 107.527344 192.226562 C 107.339844 192.421875 107.621094 192.699219 107.820312 192.519531 " fill-opacity="1" fill-rule="nonzero"/><path fill="#a9a0f0" d="M 110.382812 194.613281 C 113.070312 192.273438 116.085938 189.761719 118.109375 186.804688 C 118.378906 186.410156 117.792969 185.992188 117.464844 186.308594 C 114.859375 188.8125 112.660156 191.75 110.039062 194.269531 C 109.808594 194.488281 110.148438 194.816406 110.382812 194.613281 " fill-opacity="1" fill-rule="nonzero"/><path fill="#a9a0f0" d="M 111.738281 197.367188 C 114.421875 195.003906 117.183594 192.484375 119.570312 189.820312 C 119.878906 189.476562 119.40625 189.003906 119.0625 189.3125 C 116.398438 191.699219 113.878906 194.457031 111.515625 197.144531 C 111.378906 197.296875 111.585938 197.503906 111.738281 197.367188 " fill-opacity="1" fill-rule="nonzero"/><path fill="#a9a0f0" d="M 113.769531 199.867188 C 116.746094 197.195312 120.148438 194.644531 122.785156 191.636719 C 123.167969 191.195312 122.597656 190.65625 122.15625 191.007812 C 119.011719 193.472656 116.28125 196.726562 113.457031 199.550781 C 113.253906 199.757812 113.558594 200.058594 113.769531 199.867188 " fill-opacity="1" fill-rule="nonzero"/><path fill="#a9a0f0" d="M 115.417969 201.566406 C 116.878906 200.542969 118.257812 199.398438 119.644531 198.28125 C 121.167969 197.050781 122.902344 195.90625 124.222656 194.464844 C 124.527344 194.128906 124.132812 193.539062 123.714844 193.808594 C 122.222656 194.777344 120.941406 196.132812 119.613281 197.3125 C 118.132812 198.628906 116.625 199.917969 115.234375 201.332031 C 115.121094 201.449219 115.273438 201.667969 115.417969 201.566406 " fill-opacity="1" fill-rule="nonzero"/><path fill="#a9a0f0" d="M 115.765625 204.65625 C 118.847656 202.207031 122.222656 199.914062 125.058594 197.1875 C 125.433594 196.828125 124.933594 196.136719 124.492188 196.453125 C 121.28125 198.773438 118.398438 201.699219 115.417969 204.3125 C 115.179688 204.523438 115.523438 204.847656 115.765625 204.65625 " fill-opacity="1" fill-rule="nonzero"/><path fill="#a9a0f0" d="M 116.773438 206.59375 C 118.46875 205.285156 120.191406 204.003906 121.933594 202.761719 C 123.347656 201.753906 124.964844 200.902344 126.222656 199.703125 C 126.632812 199.316406 126.113281 198.761719 125.65625 198.972656 C 124 199.726562 122.519531 201.089844 121.089844 202.226562 C 119.476562 203.503906 117.945312 204.859375 116.449219 206.269531 C 116.226562 206.480469 116.546875 206.769531 116.773438 206.59375 " fill-opacity="1" fill-rule="nonzero"/><path fill="#a9a0f0" d="M 117.210938 208.980469 C 120.359375 206.910156 123.863281 205.019531 126.738281 202.574219 C 127.144531 202.230469 126.625 201.601562 126.179688 201.851562 C 122.921875 203.675781 119.949219 206.304688 116.941406 208.523438 C 116.671875 208.71875 116.917969 209.171875 117.210938 208.980469 " fill-opacity="1" fill-rule="nonzero"/><path fill="#a9a0f0" d="M 76.8125 219.285156 C 80.015625 215.867188 82.605469 211.6875 85.347656 207.902344 C 88.207031 203.953125 90.984375 199.949219 93.796875 195.964844 C 94.179688 195.421875 93.285156 194.902344 92.902344 195.445312 C 90.394531 198.992188 87.261719 203.355469 84.609375 207.203125 C 81.929688 211.089844 78.828125 214.960938 76.65625 219.160156 C 76.605469 219.261719 76.730469 219.371094 76.8125 219.285156 " fill-opacity="1" fill-rule="nonzero"/><path fill="#a9a0f0" d="M 91.195312 161.515625 C 90.019531 163.84375 89.613281 166.917969 90.921875 169.289062 C 91.125 169.664062 91.652344 169.398438 91.578125 169.011719 C 91.0625 166.4375 90.730469 164.222656 91.496094 161.640625 C 91.550781 161.464844 91.28125 161.34375 91.195312 161.515625 " fill-opacity="1" fill-rule="nonzero"/><path fill="#a9a0f0" d="M 87.339844 184.703125 C 87.578125 187.8125 88.9375 191.65625 91.453125 193.664062 C 91.898438 194.019531 92.710938 193.554688 92.324219 192.992188 C 91.453125 191.730469 90.425781 190.621094 89.667969 189.28125 C 88.84375 187.808594 88.351562 186.246094 87.949219 184.621094 C 87.867188 184.289062 87.3125 184.351562 87.339844 184.703125 " fill-opacity="1" fill-rule="nonzero"/><path fill="#a9a0f0" d="M 55.917969 236.765625 C 52.882812 236.308594 51.832031 239.597656 50.144531 241.347656 C 49.835938 241.671875 50.246094 242.265625 50.644531 241.992188 C 51.5625 241.367188 52.058594 240.53125 52.609375 239.59375 C 53.433594 238.191406 54.414062 237.527344 55.917969 236.988281 C 56.011719 236.953125 56.042969 236.785156 55.917969 236.765625 " fill-opacity="1" fill-rule="nonzero"/><path fill="#a9a0f0" d="M 41.566406 246.363281 C 39.691406 247.585938 38.8125 250.265625 40.039062 252.25 C 40.296875 252.671875 41 252.402344 40.851562 251.90625 C 40.296875 250.035156 40.441406 248.183594 41.816406 246.691406 C 41.972656 246.523438 41.773438 246.226562 41.566406 246.363281 " fill-opacity="1" fill-rule="nonzero"/><path fill="#a9a0f0" d="M 73.945312 251.71875 C 76.402344 250.648438 78.945312 251.117188 81.347656 252.019531 C 81.75 252.171875 81.941406 251.578125 81.625 251.363281 C 79.199219 249.71875 76.238281 250.132812 73.800781 251.46875 C 73.632812 251.558594 73.777344 251.789062 73.945312 251.71875 " fill-opacity="1" fill-rule="nonzero"/><path fill="#a9a0f0" d="M 92.796875 256.816406 C 93.96875 256.714844 94.933594 257.003906 96.003906 257.457031 C 96.226562 257.554688 96.417969 257.257812 96.199219 257.121094 C 95.210938 256.503906 93.933594 256.363281 92.796875 256.5 C 92.597656 256.523438 92.589844 256.832031 92.796875 256.816406 " fill-opacity="1" fill-rule="nonzero"/><path fill="#a9a0f0" d="M 66.894531 262.707031 C 69.492188 264.339844 71.636719 261.410156 73.558594 260.121094 C 73.820312 259.949219 73.664062 259.460938 73.328125 259.582031 C 71.257812 260.359375 69.46875 262.996094 67.070312 262.289062 C 66.816406 262.210938 66.675781 262.570312 66.894531 262.707031 " fill-opacity="1" fill-rule="nonzero"/><path fill="#a9a0f0" d="M 59.351562 243.5 C 58.582031 246.648438 62.199219 250.335938 65.007812 251.128906 C 65.847656 251.367188 66.4375 250.089844 65.617188 249.683594 C 64.230469 249 63.003906 248.371094 61.933594 247.210938 C 60.898438 246.09375 60.4375 244.675781 59.5625 243.472656 C 59.503906 243.394531 59.375 243.394531 59.351562 243.5 " fill-opacity="1" fill-rule="nonzero"/><path fill="#a9a0f0" d="M 50.613281 247.902344 C 52.832031 248.125 54.28125 249.707031 55.09375 251.667969 C 55.292969 252.148438 55.941406 251.96875 55.871094 251.453125 C 55.539062 249.007812 52.929688 247.472656 50.613281 247.617188 C 50.425781 247.625 50.429688 247.886719 50.613281 247.902344 " fill-opacity="1" fill-rule="nonzero"/><path fill="#a9a0f0" d="M 261.421875 83.273438 C 257.082031 87.242188 252.878906 91.34375 248.660156 95.4375 C 238.546875 105.25 228.488281 115.125 218.425781 124.992188 C 206.335938 136.855469 194.21875 148.695312 182.3125 160.746094 C 172.015625 171.175781 161.722656 181.609375 151.476562 192.09375 C 148.117188 195.527344 144.683594 198.898438 141.355469 202.363281 C 139.886719 203.890625 138.0625 205.445312 136.921875 207.25 C 136.738281 207.539062 136.644531 207.816406 136.5 208.109375 C 136.257812 208.601562 136.910156 207.433594 136.832031 207.375 C 136.832031 207.375 136.785156 207.421875 136.777344 207.429688 C 135.480469 208.726562 137.492188 210.738281 138.792969 209.445312 C 138.808594 209.425781 138.832031 209.40625 138.84375 209.386719 C 138.945312 209.222656 137.980469 209.777344 137.917969 209.746094 C 138.242188 209.917969 138.734375 209.445312 138.96875 209.300781 C 139.199219 209.160156 139.410156 208.953125 139.617188 208.785156 C 140.484375 208.085938 141.277344 207.3125 142.085938 206.546875 C 145.164062 203.65625 148.144531 200.660156 151.160156 197.703125 C 161.144531 187.898438 171.1875 178.152344 181.164062 168.339844 C 193.238281 156.460938 205.167969 144.449219 217.050781 132.382812 C 227.394531 121.878906 237.769531 111.394531 248.058594 100.835938 C 253.011719 95.75 258.578125 90.863281 263 85.289062 C 263.066406 85.207031 263.140625 85.136719 263.210938 85.0625 C 264.316406 83.859375 262.625 82.171875 261.421875 83.273438 " fill-opacity="1" fill-rule="nonzero"/><path fill="#a9a0f0" d="M 212.140625 33.988281 C 207.78125 37.972656 203.558594 42.097656 199.320312 46.210938 C 189.214844 56.015625 179.167969 65.882812 169.113281 75.742188 C 156.921875 87.699219 144.710938 99.636719 132.710938 111.785156 C 122.417969 122.203125 112.136719 132.628906 101.898438 143.101562 C 98.535156 146.539062 95.105469 149.910156 91.773438 153.378906 C 90.285156 154.921875 88.441406 156.492188 87.285156 158.316406 C 87.105469 158.605469 87.007812 158.882812 86.867188 159.175781 C 86.625 159.667969 87.277344 158.5 87.199219 158.441406 C 87.199219 158.4375 87.152344 158.488281 87.144531 158.496094 C 85.847656 159.792969 87.859375 161.804688 89.15625 160.507812 C 89.175781 160.492188 89.199219 160.472656 89.210938 160.453125 C 89.3125 160.289062 88.34375 160.84375 88.285156 160.8125 C 88.609375 160.980469 89.101562 160.507812 89.335938 160.367188 C 89.5625 160.226562 89.773438 160.023438 89.980469 159.855469 C 90.863281 159.140625 91.671875 158.347656 92.5 157.570312 C 95.582031 154.675781 98.566406 151.675781 101.585938 148.710938 C 111.5625 138.914062 121.59375 129.175781 131.5625 119.371094 C 143.730469 107.398438 155.761719 95.289062 167.738281 83.125 C 178.074219 72.628906 188.4375 62.15625 198.71875 51.609375 C 203.691406 46.503906 209.277344 41.597656 213.71875 36.003906 C 213.78125 35.921875 213.859375 35.851562 213.925781 35.777344 C 215.03125 34.574219 213.339844 32.886719 212.140625 33.988281 " fill-opacity="1" fill-rule="nonzero"/><path fill="#a9a0f0" d="M 211.597656 36.605469 C 216.660156 34.242188 222.503906 36.886719 227.097656 39.261719 C 232.707031 42.15625 237.597656 46.066406 242.148438 50.40625 C 246.945312 54.984375 251.457031 59.816406 255.121094 65.367188 C 258.566406 70.589844 262.203125 77.074219 260.71875 83.527344 C 260.363281 85.074219 262.726562 86.277344 263.425781 84.667969 C 266.25 78.15625 262.304688 70.039062 258.929688 64.460938 C 254.878906 57.769531 249.460938 51.972656 243.746094 46.691406 C 238.402344 41.746094 232.496094 37.367188 225.757812 34.527344 C 221.917969 32.910156 212.777344 30.269531 210.941406 36.101562 C 210.816406 36.507812 211.265625 36.761719 211.597656 36.605469 " fill-opacity="1" fill-rule="nonzero"/><path fill="#a9a0f0" d="M 87.878906 160.328125 C 93.117188 157.921875 99.796875 161.898438 104.351562 164.449219 C 109.667969 167.421875 114.191406 171.410156 118.507812 175.667969 C 123.390625 180.484375 128.078125 185.496094 131.53125 191.464844 C 134.316406 196.277344 137.378906 202.476562 136.074219 208.171875 C 135.722656 209.714844 138.082031 210.921875 138.78125 209.3125 C 141.328125 203.441406 137.964844 195.976562 135.277344 190.699219 C 131.601562 183.492188 125.90625 177.492188 120.128906 171.929688 C 114.902344 166.898438 109.230469 162.367188 102.574219 159.371094 C 98.796875 157.667969 89.183594 153.613281 87.222656 159.820312 C 87.09375 160.226562 87.550781 160.476562 87.878906 160.328125 " fill-opacity="1" fill-rule="nonzero"/><path fill="#a9a0f0" d="M 127.003906 205.3125 C 125.214844 205.238281 122.789062 207.007812 121.339844 207.898438 C 119.472656 209.046875 116.808594 210.941406 115.722656 212.929688 C 115.003906 214.246094 116.183594 215.59375 117.566406 215.332031 C 119.796875 214.902344 122.429688 212.90625 124.09375 211.46875 C 125.402344 210.339844 127.734375 208.660156 128.226562 206.910156 C 128.453125 206.09375 127.816406 205.34375 127.003906 205.3125 " fill-opacity="1" fill-rule="nonzero"/><path fill="#a9a0f0" d="M 89.539062 168.226562 C 87.773438 168.832031 86.332031 171.140625 85.21875 172.527344 C 84.261719 173.714844 83.46875 175.015625 82.816406 176.390625 C 82.40625 177.25 81.734375 178.34375 81.597656 179.289062 C 81.40625 180.597656 82.667969 181.96875 84.003906 181.140625 C 85.941406 179.9375 87.71875 177.222656 88.78125 175.277344 C 89.605469 173.769531 91.292969 171.242188 91.140625 169.449219 C 91.074219 168.683594 90.375 167.941406 89.539062 168.226562 " fill-opacity="1" fill-rule="nonzero"/><path fill="#a9a0f0" d="M 82.34375 180.871094 C 85.203125 181.460938 88.011719 181.097656 90.8125 182.289062 C 94.949219 184.050781 98.617188 186.886719 101.886719 189.925781 C 105.414062 193.207031 108.738281 196.652344 111.253906 200.785156 C 113.589844 204.632812 115.976562 209.167969 115.121094 213.800781 C 114.839844 215.324219 117.078125 216.578125 117.828125 214.941406 C 119.855469 210.503906 117.585938 204.875 115.535156 200.835938 C 112.855469 195.566406 108.890625 191.214844 104.574219 187.242188 C 100.820312 183.785156 96.484375 180.367188 91.605469 178.675781 C 89.027344 177.78125 83.742188 177.277344 82.078125 180.214844 C 81.945312 180.453125 82.058594 180.808594 82.34375 180.871094 " fill-opacity="1" fill-rule="nonzero"/><path fill="#a9a0f0" d="M 89.085938 170.550781 C 92.914062 169.589844 97.203125 172.179688 100.53125 173.890625 C 104.605469 175.984375 108.105469 178.804688 111.386719 181.972656 C 115.175781 185.628906 118.765625 189.460938 121.480469 194.007812 C 123.632812 197.609375 125.878906 202.0625 125.085938 206.367188 C 124.804688 207.890625 127.042969 209.144531 127.792969 207.507812 C 129.828125 203.046875 127.300781 197.332031 125.265625 193.300781 C 122.402344 187.617188 117.90625 182.847656 113.296875 178.539062 C 109.285156 174.789062 104.90625 171.636719 99.839844 169.476562 C 97.332031 168.402344 89.414062 165.1875 88.535156 170 C 88.476562 170.332031 88.734375 170.636719 89.085938 170.550781 " fill-opacity="1" fill-rule="nonzero"/><path fill="#a9a0f0" d="M 89.964844 155.855469 C 85.238281 158.535156 84.589844 165.714844 85.539062 170.464844 C 85.839844 171.976562 88.199219 171.605469 88.191406 170.105469 C 88.183594 167.808594 87.933594 165.542969 88.148438 163.25 C 88.390625 160.648438 89.296875 158.703125 90.617188 156.503906 C 90.863281 156.089844 90.371094 155.621094 89.964844 155.855469 " fill-opacity="1" fill-rule="nonzero"/><path fill="#a9a0f0" d="M 125.339844 210.367188 C 128.015625 211.628906 131.515625 212.046875 134.355469 211.078125 C 137.136719 210.125 140.578125 208.691406 142.273438 206.214844 C 143.042969 205.085938 141.5625 203.828125 140.480469 204.421875 C 138.265625 205.648438 136.09375 206.953125 133.863281 208.160156 C 131.15625 209.625 128.621094 209.316406 125.671875 209.136719 C 125.035156 209.097656 124.746094 210.09375 125.339844 210.367188 " fill-opacity="1" fill-rule="nonzero"/><path fill="#a9a0f0" d="M 92.332031 193.476562 C 98.039062 194.921875 100.117188 199.558594 102.566406 204.328125 C 103.285156 205.734375 105.316406 204.726562 105.007812 203.300781 C 103.8125 197.710938 98.355469 192.265625 92.472656 192.429688 C 91.886719 192.445312 91.734375 193.324219 92.332031 193.476562 " fill-opacity="1" fill-rule="nonzero"/><path fill="#a9a0f0" d="M 91.777344 192.566406 C 88.472656 195.832031 85.804688 199.886719 82.980469 203.558594 C 78.398438 209.515625 73.972656 215.605469 69.546875 221.679688 C 68.804688 222.699219 67.996094 223.699219 67.332031 224.769531 C 67.144531 225.070312 66.984375 225.386719 66.816406 225.703125 C 66.703125 225.917969 66.410156 226.363281 66.625 226.0625 C 66.335938 226.464844 66.472656 227.113281 66.804688 227.441406 C 67.527344 228.152344 68.246094 228.867188 68.96875 229.578125 C 69.292969 229.902344 69.945312 230.050781 70.347656 229.753906 C 80.230469 222.460938 90.121094 215.167969 100.003906 207.875 C 101.417969 206.835938 102.8125 205.765625 104.222656 204.726562 C 105.386719 203.867188 104.257812 201.894531 103.078125 202.765625 C 93.195312 210.0625 83.308594 217.351562 73.429688 224.660156 C 72.019531 225.703125 70.609375 226.746094 69.195312 227.789062 C 69.65625 227.851562 70.117188 227.910156 70.578125 227.96875 C 69.855469 227.257812 69.132812 226.546875 68.410156 225.835938 C 68.46875 226.292969 68.527344 226.753906 68.585938 227.210938 C 68.054688 227.949219 68.875 226.976562 69.1875 226.628906 C 69.882812 225.851562 70.464844 224.976562 71.074219 224.125 C 73.007812 221.429688 74.960938 218.746094 76.867188 216.027344 C 81.171875 209.886719 85.449219 203.734375 89.632812 197.511719 C 90.605469 196.0625 91.589844 194.585938 92.367188 193.019531 C 92.550781 192.648438 92.09375 192.253906 91.777344 192.566406 " fill-opacity="1" fill-rule="nonzero"/><path fill="#a9a0f0" d="M 90.183594 195.828125 C 89.070312 193.523438 87.816406 191.296875 86.613281 189.042969 C 85.824219 187.570312 84.964844 186.117188 84.542969 184.484375 C 84.25 183.351562 84.097656 182.078125 84.363281 180.917969 C 84.582031 179.953125 85.195312 179.179688 85.445312 178.222656 C 85.679688 177.332031 84.8125 176.289062 83.855469 176.632812 C 79.378906 178.242188 81.160156 185.210938 82.875 188.238281 C 84.578125 191.25 86.898438 194.085938 89.550781 196.316406 C 89.902344 196.609375 90.386719 196.25 90.183594 195.828125 " fill-opacity="1" fill-rule="nonzero"/><path fill="#a9a0f0" d="M 100.664062 206.765625 C 102.914062 209.445312 105.738281 211.796875 108.742188 213.578125 C 111.839844 215.414062 118.960938 217.414062 120.683594 212.792969 C 121.035156 211.84375 119.976562 210.957031 119.089844 211.203125 C 118.140625 211.460938 117.359375 212.066406 116.394531 212.285156 C 115.234375 212.550781 113.960938 212.402344 112.828125 212.101562 C 111.097656 211.648438 109.570312 210.703125 108.015625 209.847656 C 105.738281 208.59375 103.484375 207.289062 101.15625 206.132812 C 100.734375 205.925781 100.371094 206.414062 100.664062 206.765625 " fill-opacity="1" fill-rule="nonzero"/><path fill="#a9a0f0" d="M 101.125 261.132812 C 93.960938 264.484375 86.035156 258.90625 78.59375 259.894531 C 77.125 260.089844 75.71875 260.515625 74.417969 261.230469 C 72.59375 262.238281 71.195312 263.960938 69.304688 264.851562 C 66.78125 266.039062 64.875 264.210938 63.300781 262.40625 C 61.921875 260.824219 60.625 259.261719 58.714844 258.296875 C 55.539062 256.683594 52.195312 257.199219 48.808594 257.613281 C 45.386719 258.035156 41.132812 258.226562 38.890625 255.082031 C 37.152344 252.636719 36.890625 248.828125 38.679688 246.335938 C 39.863281 244.675781 41.878906 244.003906 43.671875 243.222656 C 45.613281 242.371094 47.257812 241.351562 48.6875 239.773438 C 50.058594 238.257812 51.179688 236.125 52.976562 235.058594 C 55.058594 233.824219 57.425781 235.292969 59.636719 235.316406 C 61.484375 235.339844 63.027344 234.527344 64.160156 233.097656 C 64.882812 232.1875 65.949219 229.042969 67.21875 228.878906 C 69.347656 228.609375 69.457031 225.285156 67.21875 225.460938 C 65.507812 225.59375 64.375 226.351562 63.390625 227.753906 C 62.320312 229.269531 61.765625 231.667969 59.636719 231.828125 C 57.28125 232.003906 55.328125 230.605469 52.886719 231.300781 C 51.003906 231.839844 49.570312 233.214844 48.34375 234.679688 C 46.863281 236.449219 45.625 238.3125 43.546875 239.445312 C 41.46875 240.574219 39.136719 241.199219 37.324219 242.785156 C 34.6875 245.089844 33.765625 248.777344 34.285156 252.152344 C 34.804688 255.519531 36.8125 258.671875 40.011719 260.035156 C 44.039062 261.753906 48.066406 260.691406 52.21875 260.328125 C 54.433594 260.132812 56.492188 260.320312 58.351562 261.652344 C 60.367188 263.097656 61.617188 265.355469 63.664062 266.800781 C 67.882812 269.777344 71.164062 266.949219 74.582031 264.371094 C 82.59375 258.324219 93.265625 267.535156 101.824219 262.324219 C 102.59375 261.859375 101.921875 260.765625 101.125 261.132812 " fill-opacity="1" fill-rule="nonzero"/><path fill="#a9a0f0" d="M 69.207031 229.351562 C 69.597656 231.445312 69.480469 233.5625 68.371094 235.433594 C 67.539062 236.839844 66.394531 238.042969 65.554688 239.457031 C 64.855469 240.636719 64.390625 241.839844 63.976562 243.140625 C 63.550781 244.480469 62.679688 245.375 62.195312 246.640625 C 61.425781 248.65625 62.691406 250.808594 64.628906 251.574219 C 67.472656 252.707031 70.5625 250.964844 73.226562 250.070312 C 76.390625 249.003906 80.035156 248 83.019531 250.070312 C 85.519531 251.804688 87.082031 253.761719 90.277344 254.230469 C 93.253906 254.664062 96.492188 253.890625 99.367188 254.949219 C 100.835938 255.492188 101.574219 256.359375 101.746094 257.894531 C 101.898438 259.277344 102.046875 260.980469 100.792969 261.90625 C 100.527344 262.101562 100.675781 262.542969 101.023438 262.457031 C 105.226562 261.472656 105.363281 255.546875 102.207031 253.328125 C 99.644531 251.53125 96.449219 251.679688 93.472656 251.679688 C 91.464844 251.679688 89.453125 251.605469 87.722656 250.460938 C 86.21875 249.460938 85.089844 248.007812 83.480469 247.140625 C 80.746094 245.667969 77.574219 245.894531 74.664062 246.652344 C 72.941406 247.105469 71.28125 247.75 69.605469 248.34375 C 68.585938 248.710938 67.03125 249.417969 65.949219 249.035156 C 64.296875 248.449219 64.921875 247.828125 65.355469 246.847656 C 65.953125 245.492188 66.429688 244.28125 66.902344 242.851562 C 67.496094 241.050781 68.652344 239.511719 69.59375 237.882812 C 71.292969 234.9375 71.511719 232.242188 70.203125 229.074219 C 69.957031 228.464844 69.082031 228.683594 69.207031 229.351562 " fill-opacity="1" fill-rule="nonzero"/></svg>