<svg xmlns="http://www.w3.org/2000/svg" xmlns:xlink="http://www.w3.org/1999/xlink" width="400" zoomAndPan="magnify" viewBox="0 0 300 299.999988" height="400" preserveAspectRatio="xMidYMid meet" version="1.0"><defs><clipPath id="c16661d8bf"><path d="M 86 30 L 214 30 L 214 270 L 86 270 Z M 86 30 " clip-rule="nonzero"/></clipPath></defs><g clip-path="url(#c16661d8bf)"><path fill="currentColor" d="M 205.152344 193.511719 C 203.417969 190.035156 202.265625 186.375 201.699219 182.53125 C 201.132812 178.6875 201.179688 174.851562 201.839844 171.019531 C 202.304688 169.054688 202.976562 167.160156 203.859375 165.339844 L 204.160156 164.652344 C 206.753906 158.710938 208.613281 152.546875 209.738281 146.160156 C 210.867188 139.773438 211.226562 133.34375 210.820312 126.871094 C 210.160156 112.597656 209.339844 94.832031 193.476562 85.871094 C 186.960938 82.320312 180.042969 79.917969 172.726562 78.667969 C 172.617188 74.710938 172.3125 70.707031 171.824219 66.765625 C 171.179688 61.554688 168.570312 57.703125 164.671875 56.195312 C 163.976562 55.929688 163.265625 55.722656 162.535156 55.574219 C 162.121094 50.671875 161.066406 45.914062 159.371094 41.292969 C 157.863281 37.390625 154.1875 32.503906 149.691406 30.992188 C 148.484375 30.566406 147.25 30.425781 145.980469 30.578125 C 144.710938 30.730469 143.542969 31.15625 142.472656 31.851562 C 141.265625 32.6875 140.296875 33.742188 139.570312 35.015625 C 137.898438 37.675781 136.605469 40.511719 135.691406 43.519531 C 134.445312 47.722656 133.679688 52.015625 133.386719 56.390625 C 132.53125 56.664062 131.699219 57 130.890625 57.398438 C 126.160156 59.792969 124.617188 63.5625 123.75 68.480469 C 123.734375 68.582031 122.371094 76.707031 122.792969 80.589844 C 116.886719 82.597656 111.195312 85.097656 105.71875 88.085938 C 102.785156 89.539062 100.066406 91.316406 97.558594 93.425781 C 87.042969 102.8125 86.953125 119.464844 86.882812 132.84375 L 86.875 134.121094 C 86.675781 138.789062 86.992188 143.421875 87.832031 148.019531 C 88.644531 151.273438 89.726562 154.433594 91.078125 157.507812 C 91.421875 158.355469 91.765625 159.203125 92.101562 160.054688 C 96.6875 171.757812 97.625 181.816406 94.890625 189.933594 C 94.078125 192.164062 93.125 194.332031 92.023438 196.433594 C 91.242188 198 90.4375 199.621094 89.757812 201.292969 C 86.769531 208.648438 86.226562 216.855469 86.09375 223.90625 C 85.964844 230.539062 86.191406 237.160156 86.773438 243.769531 C 87.175781 248.367188 88.085938 254.21875 91.566406 258.699219 C 95.285156 263.488281 101.125 264.941406 106.769531 266.351562 L 107.308594 266.484375 C 107.972656 266.652344 108.640625 266.808594 109.308594 266.960938 C 122.546875 269.949219 136.230469 270.003906 149.496094 270.003906 C 161.707031 269.988281 173.695312 269.875 185.753906 267.777344 C 197.433594 265.742188 205.5625 262.390625 209.976562 252.007812 C 213.953125 242.652344 214.082031 232.078125 213.628906 222.058594 C 213.179688 212.113281 210.644531 203.578125 205.152344 193.511719 Z M 150.246094 268.925781 C 136.792969 268.917969 122.917969 268.925781 109.546875 265.910156 C 108.886719 265.761719 108.226562 265.605469 107.566406 265.441406 L 107.03125 265.304688 C 101.5625 263.941406 95.90625 262.535156 92.417969 258.042969 C 89.109375 253.785156 88.238281 248.128906 87.847656 243.675781 C 87.269531 237.105469 87.046875 230.523438 87.171875 223.929688 C 87.304688 216.972656 87.835938 208.890625 90.757812 201.695312 C 91.421875 200.066406 92.21875 198.464844 92.988281 196.914062 C 94.113281 194.769531 95.085938 192.558594 95.910156 190.28125 C 98.726562 181.914062 97.785156 171.609375 93.109375 159.664062 C 92.773438 158.800781 92.425781 157.953125 92.078125 157.101562 C 90.753906 154.085938 89.691406 150.980469 88.886719 147.785156 C 88.070312 143.269531 87.757812 138.714844 87.957031 134.125 L 87.964844 132.847656 C 88.035156 119.683594 88.121094 103.300781 98.28125 94.226562 C 100.71875 92.171875 103.367188 90.441406 106.226562 89.035156 C 111.609375 86.097656 117.195312 83.636719 122.996094 81.65625 C 123.0625 82.007812 123.234375 82.296875 123.511719 82.523438 C 125.875 84.429688 128.542969 85.671875 131.523438 86.253906 C 135.933594 87.125 140.386719 87.535156 144.882812 87.484375 C 148.519531 87.476562 152.148438 87.269531 155.761719 86.867188 C 166.390625 85.699219 169.589844 84.617188 172.03125 81.398438 C 172.15625 81.265625 172.261719 81.121094 172.355469 80.96875 C 172.5625 80.59375 172.679688 80.191406 172.710938 79.765625 C 179.839844 81 186.585938 83.351562 192.941406 86.8125 C 208.28125 95.480469 209.089844 112.914062 209.738281 126.925781 C 210.136719 133.3125 209.78125 139.660156 208.671875 145.964844 C 207.5625 152.273438 205.726562 158.359375 203.167969 164.226562 L 202.863281 164.910156 C 201.953125 166.800781 201.253906 168.769531 200.777344 170.816406 C 200.09375 174.765625 200.046875 178.726562 200.632812 182.695312 C 201.21875 186.664062 202.40625 190.441406 204.203125 194.03125 C 209.609375 203.941406 212.105469 212.34375 212.546875 222.105469 C 212.992188 232.007812 212.867188 242.433594 208.976562 251.589844 C 204.753906 261.527344 196.882812 264.746094 185.558594 266.71875 C 173.839844 268.757812 162.167969 268.929688 150.246094 268.929688 Z M 124.816406 68.660156 C 125.621094 64.058594 127.046875 60.546875 131.378906 58.355469 C 132.003906 58.042969 132.648438 57.773438 133.304688 57.542969 C 133.273438 58.023438 133.238281 58.496094 133.210938 58.992188 C 133.199219 59.179688 133.265625 59.332031 133.414062 59.449219 C 135.078125 60.75 137.898438 61.554688 141.804688 61.832031 C 144.917969 62.054688 147.648438 62.167969 150.027344 62.167969 C 156.402344 62.167969 160.214844 61.355469 162.046875 59.667969 C 162.277344 59.449219 162.492188 59.214844 162.683594 58.960938 C 162.765625 58.851562 162.800781 58.730469 162.792969 58.597656 C 162.75 57.953125 162.699219 57.328125 162.644531 56.703125 C 163.203125 56.828125 163.75 56.996094 164.285156 57.199219 C 169.28125 59.128906 170.476562 64.621094 170.757812 66.894531 C 171.25 70.859375 171.550781 74.882812 171.660156 78.859375 C 171.726562 79.398438 171.648438 79.917969 171.433594 80.414062 C 171.371094 80.515625 171.300781 80.609375 171.21875 80.695312 C 170.707031 81.382812 170.109375 81.980469 169.421875 82.488281 C 169.585938 76.707031 168.609375 70.960938 167.953125 65.21875 C 167.808594 63.96875 165.824219 63.953125 165.96875 65.21875 C 166.667969 71.328125 167.722656 77.449219 167.382812 83.605469 C 165.570312 84.269531 163.707031 84.730469 161.796875 84.988281 C 161.992188 78.582031 161.480469 72.230469 160.261719 65.933594 C 160.019531 64.683594 158.105469 65.214844 158.351562 66.460938 C 159.546875 72.675781 160.03125 78.945312 159.8125 85.269531 C 159.8125 85.273438 159.8125 85.277344 159.8125 85.285156 C 158.570312 85.453125 157.199219 85.621094 155.644531 85.792969 C 155.488281 85.808594 155.335938 85.820312 155.179688 85.839844 C 155.015625 79.277344 154.464844 72.753906 153.527344 66.257812 C 153.347656 65.003906 151.4375 65.535156 151.617188 66.785156 C 152.53125 73.167969 153.058594 79.582031 153.203125 86.03125 C 150.917969 86.230469 148.796875 86.339844 146.832031 86.382812 C 146.839844 86.332031 146.84375 86.277344 146.84375 86.226562 C 146.523438 79.796875 146.371094 73.367188 146.390625 66.9375 C 146.382812 66.667969 146.28125 66.441406 146.089844 66.257812 C 145.894531 66.070312 145.667969 65.976562 145.398438 65.976562 C 145.132812 65.976562 144.902344 66.070312 144.710938 66.257812 C 144.519531 66.441406 144.417969 66.667969 144.410156 66.9375 C 144.390625 73.371094 144.542969 79.800781 144.863281 86.230469 C 144.871094 86.292969 144.882812 86.351562 144.902344 86.410156 C 142.277344 86.410156 139.976562 86.292969 138.003906 86.113281 C 137.828125 79.59375 137.890625 73.078125 138.1875 66.558594 C 138.246094 65.28125 136.261719 65.285156 136.203125 66.558594 C 135.910156 73.003906 135.847656 79.453125 136.023438 85.90625 C 134.246094 85.6875 132.804688 85.433594 131.738281 85.203125 C 131.402344 85.132812 131.074219 85.050781 130.761719 84.96875 C 130.515625 78.820312 130.800781 72.703125 131.613281 66.605469 C 131.78125 65.359375 129.871094 64.820312 129.703125 66.078125 C 128.882812 72.128906 128.570312 78.207031 128.761719 84.3125 C 127.085938 83.683594 125.550781 82.808594 124.160156 81.683594 C 123.34375 80.902344 124.09375 72.769531 124.816406 68.660156 Z M 149.347656 32.011719 C 153.515625 33.414062 156.945312 38.011719 158.367188 41.683594 C 160.328125 47.105469 161.441406 52.699219 161.707031 58.460938 C 161.585938 58.609375 161.457031 58.746094 161.320312 58.878906 C 158.363281 61.59375 148.808594 61.246094 141.882812 60.757812 C 137.597656 60.453125 135.410156 59.539062 134.304688 58.765625 C 134.496094 53.691406 135.304688 48.714844 136.726562 43.835938 C 137.609375 40.917969 138.859375 38.167969 140.480469 35.585938 C 141.121094 34.453125 141.972656 33.511719 143.039062 32.761719 C 143.972656 32.152344 144.996094 31.785156 146.105469 31.652344 C 147.214844 31.519531 148.292969 31.640625 149.347656 32.011719 Z M 149.347656 32.011719 " fill-opacity="1" fill-rule="nonzero"/></g><path fill="currentColor" d="M 105.226562 109.941406 C 106.378906 105.847656 108.753906 101.917969 112.445312 99.808594 C 117.875 96.714844 124.621094 98.140625 130.800781 99.066406 C 138.601562 100.234375 146.429688 100.453125 154.285156 99.726562 C 163.625 98.855469 172.960938 96.636719 182.28125 97.699219 C 187.648438 98.308594 193.746094 100.070312 195.570312 105.714844 C 197.039062 110.261719 196.929688 115.921875 196.824219 120.679688 C 199.195312 113.304688 200.980469 102.007812 193.074219 97.34375 C 185.714844 92.992188 176.449219 95.285156 167.90625 95.785156 C 164.566406 95.984375 161.210938 95.882812 157.863281 95.785156 L 122.226562 94.710938 C 116.503906 94.539062 111.65625 95.039062 107.113281 98.734375 C 105.652344 99.808594 104.382812 101.082031 103.308594 102.542969 C 99.472656 108.328125 101.03125 119.027344 104.023438 124.824219 C 103.992188 119.6875 103.835938 114.914062 105.226562 109.941406 Z M 105.226562 109.941406 " fill-opacity="1" fill-rule="nonzero"/><path fill="currentColor" d="M 190.960938 247.804688 C 186.519531 251.675781 180.296875 252.675781 174.410156 253.027344 C 170.332031 253.296875 166.253906 253.347656 162.171875 253.175781 C 158.332031 253.09375 154.503906 253.261719 150.683594 253.679688 C 140.144531 254.503906 129.472656 255.636719 118.957031 253.960938 C 118.183594 253.820312 117.425781 253.625 116.679688 253.371094 C 115.9375 253.117188 115.214844 252.8125 114.515625 252.453125 C 113.820312 252.089844 113.152344 251.683594 112.511719 251.222656 C 111.875 250.765625 111.273438 250.261719 110.710938 249.710938 C 110.148438 249.164062 109.628906 248.578125 109.152344 247.953125 C 108.675781 247.328125 108.25 246.667969 107.871094 245.980469 C 107.492188 245.292969 107.167969 244.578125 106.894531 243.84375 C 106.621094 243.105469 106.40625 242.351562 106.246094 241.582031 C 104.847656 234.949219 103.546875 228.296875 102.335938 221.625 C 101.648438 227.628906 101.707031 233.625 102.5 239.617188 C 103.191406 244.65625 105.441406 249.695312 109.578125 252.65625 C 113.539062 255.496094 118.640625 256.089844 123.5 256.453125 C 143.210938 258.082031 162.882812 257.675781 182.507812 255.234375 C 187.621094 254.5625 192.054688 253.234375 195.160156 248.800781 C 197.15625 245.703125 198.480469 242.34375 199.132812 238.714844 C 200.242188 233.636719 200.738281 228.5 200.617188 223.304688 L 198.945312 230.585938 C 197.503906 236.863281 195.8125 243.574219 190.960938 247.804688 Z M 190.960938 247.804688 " fill-opacity="1" fill-rule="nonzero"/><path fill="currentColor" d="M 108.878906 154.867188 L 103.808594 168.515625 C 103.777344 168.597656 103.765625 168.683594 103.777344 168.769531 C 103.789062 168.855469 103.820312 168.9375 103.871094 169.007812 C 103.921875 169.082031 103.984375 169.136719 104.0625 169.179688 C 104.140625 169.21875 104.222656 169.242188 104.3125 169.242188 C 104.347656 169.242188 104.382812 169.238281 104.421875 169.230469 C 104.71875 169.171875 105.039062 169.105469 105.347656 169.042969 L 104.386719 171.570312 C 108.421875 170.816406 113.304688 169.695312 117.953125 168.589844 C 118.453125 174.476562 118.320312 180.351562 117.550781 186.207031 C 117.0625 189.722656 116.332031 193.183594 115.351562 196.59375 C 114.285156 200.277344 113.519531 204.023438 113.058594 207.832031 C 112.941406 209.066406 112.890625 210.308594 112.914062 211.550781 C 113.085938 220.1875 116.664062 227.710938 122.484375 231.671875 C 127.09375 234.8125 132.890625 235.671875 138.433594 236.28125 C 142.660156 236.761719 146.894531 237.015625 151.148438 237.035156 C 163.292969 237.035156 172.234375 234.585938 178.289062 229.628906 C 179.585938 228.566406 180.765625 227.382812 181.832031 226.089844 C 182.898438 224.792969 183.828125 223.40625 184.625 221.933594 C 185.421875 220.457031 186.070312 218.917969 186.570312 217.316406 C 187.066406 215.710938 187.40625 214.078125 187.585938 212.410156 C 188.132812 207.214844 186.839844 202.394531 185.59375 197.738281 C 184.972656 195.433594 184.335938 193.046875 183.925781 190.644531 L 183.6875 189.25 C 182.558594 182.691406 181.390625 175.910156 182.480469 169.378906 C 182.605469 168.640625 182.753906 167.886719 182.890625 167.136719 C 189.570312 166.34375 197.476562 165.289062 197.480469 165.148438 L 191.65625 152.328125 L 198.300781 137.984375 C 197.996094 138.054688 196.84375 138.199219 195.121094 138.398438 L 196.503906 135.335938 C 196.597656 135.132812 196.570312 134.945312 196.429688 134.769531 C 196.285156 134.597656 196.105469 134.539062 195.886719 134.589844 C 195.347656 134.722656 192.277344 135.078125 188.082031 135.53125 C 188.089844 135.34375 188.105469 135.160156 188.113281 134.972656 C 188.199219 132.671875 188.121094 130.378906 187.875 128.089844 C 187.066406 120.09375 184.460938 109.402344 171.109375 108.953125 C 159.8125 108.574219 148.128906 108.183594 136.652344 109.097656 C 135.867188 109.160156 135.066406 109.214844 134.257812 109.265625 C 128.824219 109.628906 123.203125 110.007812 118.679688 113.125 C 112.394531 117.460938 111.558594 125.425781 111.574219 132.640625 C 111.574219 133.96875 111.632812 135.285156 111.714844 136.59375 C 107.898438 137.4375 104.195312 138.328125 101.269531 139.144531 C 101.1875 139.167969 101.113281 139.210938 101.050781 139.269531 C 100.984375 139.328125 100.9375 139.398438 100.910156 139.480469 C 100.878906 139.5625 100.871094 139.648438 100.882812 139.734375 C 100.894531 139.820312 100.921875 139.898438 100.972656 139.972656 C 100.996094 140.003906 101.726562 141.058594 102.753906 142.5625 C 101.988281 142.765625 101.253906 142.960938 100.582031 143.144531 C 100.582031 143.144531 106.1875 150.738281 108.878906 154.867188 Z M 112.648438 132.640625 C 112.636719 125.703125 113.410156 118.066406 119.285156 114.015625 C 123.566406 111.0625 129.035156 110.699219 134.328125 110.34375 C 135.140625 110.289062 135.941406 110.238281 136.738281 110.171875 C 141.914062 109.761719 147.140625 109.617188 152.367188 109.617188 C 158.660156 109.617188 164.949219 109.828125 171.148438 110.035156 C 180.609375 110.351562 185.585938 116.125 186.800781 128.203125 C 187.039062 130.441406 187.113281 132.6875 187.03125 134.933594 C 187.019531 135.171875 187 135.414062 186.988281 135.652344 C 176.007812 136.820312 158.632812 138.488281 156.667969 138.492188 C 155.847656 138.550781 155.050781 138.441406 154.273438 138.167969 C 153.25 137.691406 153.289062 136.875 153.445312 135.476562 C 153.585938 134.246094 153.761719 132.714844 152.390625 131.734375 C 151.105469 130.8125 149.160156 130.898438 147.4375 131.050781 C 140.011719 131.714844 132.835938 132.621094 126.105469 133.746094 C 122.460938 134.359375 117.578125 135.308594 112.773438 136.355469 C 112.699219 135.132812 112.65625 133.890625 112.652344 132.640625 Z M 126.285156 134.816406 C 132.980469 133.695312 140.128906 132.789062 147.527344 132.132812 C 149.171875 131.980469 150.824219 131.9375 151.761719 132.613281 C 152.5625 133.1875 152.527344 134.03125 152.375 135.359375 C 152.226562 136.683594 152.039062 138.320312 153.820312 139.148438 C 154.738281 139.5 155.691406 139.640625 156.671875 139.570312 C 159.277344 139.5625 188.953125 136.632812 195.105469 135.804688 L 189.03125 149.246094 C 188.964844 149.394531 188.964844 149.539062 189.03125 149.6875 L 194.453125 161.910156 C 191.527344 162.421875 178.441406 164.121094 173.648438 164.546875 C 172.1875 164.679688 170.734375 164.820312 169.289062 164.96875 C 165.046875 165.390625 160.667969 165.828125 156.304688 165.84375 C 154.714844 165.855469 153.246094 165.800781 151.78125 165.695312 C 150.347656 165.59375 148.597656 165.371094 147.777344 164.546875 C 147.425781 164.089844 147.289062 163.574219 147.359375 163.003906 C 147.414062 162.546875 147.351562 162.109375 147.179688 161.683594 C 147.007812 161.257812 146.746094 160.898438 146.390625 160.609375 C 145.296875 159.828125 143.421875 159.992188 141.917969 160.125 C 141.703125 160.144531 141.488281 160.164062 141.300781 160.179688 C 139.472656 160.3125 137.660156 160.542969 135.859375 160.867188 C 132.757812 161.410156 129.707031 162.167969 126.753906 162.902344 L 122.875 163.863281 C 117.363281 165.226562 110.574219 166.90625 105.15625 167.988281 L 110.660156 153.1875 C 110.714844 153.039062 110.703125 152.898438 110.632812 152.757812 C 109.320312 150.230469 103.890625 142.304688 102.296875 139.992188 C 109.160156 138.117188 119.734375 135.917969 126.289062 134.816406 Z M 181.414062 169.207031 C 180.296875 175.914062 181.476562 182.789062 182.621094 189.433594 L 182.859375 190.828125 C 183.277344 193.28125 183.921875 195.691406 184.546875 198.019531 C 185.828125 202.792969 187.039062 207.300781 186.511719 212.300781 C 186.339844 213.898438 186.015625 215.464844 185.539062 217 C 185.058594 218.535156 184.441406 220.007812 183.675781 221.421875 C 182.914062 222.835938 182.019531 224.164062 181 225.40625 C 179.976562 226.648438 178.847656 227.777344 177.605469 228.800781 C 169.835938 235.15625 157.0625 237.25 138.546875 235.210938 C 132.917969 234.589844 127.496094 233.785156 123.085938 230.78125 C 117.550781 227.011719 114.148438 219.820312 113.984375 211.527344 C 113.964844 210.328125 114.011719 209.128906 114.125 207.929688 C 114.582031 204.183594 115.335938 200.492188 116.386719 196.867188 C 117.378906 193.40625 118.121094 189.894531 118.613281 186.332031 C 119.398438 180.347656 119.53125 174.351562 119.003906 168.339844 C 121.492188 167.742188 123.894531 167.160156 126.027344 166.648438 C 129.582031 165.792969 133.125 164.890625 136.785156 164.265625 C 138.613281 163.945312 140.453125 163.71875 142.300781 163.582031 C 143.632812 163.394531 144.96875 163.390625 146.300781 163.570312 C 146.3125 164.238281 146.550781 164.816406 147.007812 165.304688 C 147.277344 165.570312 147.578125 165.785156 147.917969 165.953125 C 147.847656 166.648438 148.042969 167.265625 148.5 167.792969 C 149.457031 168.730469 151.292969 168.988281 152.953125 169.101562 C 154.527344 169.210938 156.085938 169.257812 157.632812 169.25 C 163.617188 169.230469 169.460938 168.472656 175.445312 167.957031 C 176.914062 167.832031 179.207031 167.582031 181.765625 167.28125 C 181.652344 167.917969 181.519531 168.570312 181.414062 169.207031 Z M 181.414062 169.207031 " fill-opacity="1" fill-rule="nonzero"/><path fill="currentColor" d="M 123.375 143.433594 C 123.320312 143.257812 123.214844 143.117188 123.054688 143.019531 C 122.898438 142.917969 122.730469 142.878906 122.542969 142.90625 C 122.359375 142.929688 122.207031 143.011719 122.082031 143.148438 C 121.957031 143.289062 121.890625 143.449219 121.886719 143.636719 C 121.851562 146.25 121.59375 148.839844 121.113281 151.410156 C 119.554688 149.269531 118.125 147.046875 116.820312 144.742188 C 116.472656 144.128906 115.3125 144.347656 115.40625 145.121094 L 117.328125 160.550781 C 117.449219 161.507812 118.964844 161.519531 118.847656 160.550781 L 117.351562 148.558594 C 118.453125 150.296875 119.617188 151.988281 120.871094 153.625 C 121.230469 154.09375 122.097656 154.144531 122.253906 153.441406 C 122.683594 151.511719 122.988281 149.558594 123.171875 147.589844 C 124.316406 151.183594 125.269531 154.828125 126.039062 158.519531 C 126.238281 159.472656 127.699219 159.070312 127.5 158.117188 C 126.460938 153.128906 125.085938 148.234375 123.375 143.433594 Z M 123.375 143.433594 " fill-opacity="1" fill-rule="nonzero"/><path fill="currentColor" d="M 135.785156 140.433594 C 135.660156 139.476562 134.144531 139.460938 134.265625 140.433594 C 134.628906 143.273438 135.089844 146.101562 135.332031 148.953125 C 135.578125 150.601562 135.578125 152.246094 135.332031 153.890625 C 135.128906 154.785156 134.308594 156.464844 133.121094 156.167969 C 131.464844 155.753906 130.429688 152.851562 129.949219 151.457031 C 129.625 150.398438 129.371094 149.320312 129.1875 148.226562 C 128.726562 146.203125 128.375 144.164062 128.128906 142.101562 C 128.035156 141.140625 126.511719 141.132812 126.613281 142.101562 C 126.894531 144.449219 127.296875 146.773438 127.816406 149.078125 C 128.035156 150.335938 128.371094 151.558594 128.824219 152.753906 C 129.5625 154.578125 130.839844 157.386719 133.070312 157.699219 C 136.34375 158.15625 137.042969 153.65625 136.984375 151.367188 C 136.769531 147.703125 136.371094 144.054688 135.785156 140.433594 Z M 135.785156 140.433594 " fill-opacity="1" fill-rule="nonzero"/><path fill="currentColor" d="M 140.445312 142.507812 C 140.378906 141.5 141.433594 139.535156 142.523438 140.832031 C 143.152344 141.589844 144.21875 140.503906 143.597656 139.757812 C 143.359375 139.492188 143.082031 139.289062 142.757812 139.144531 C 142.4375 139 142.097656 138.929688 141.742188 138.929688 C 141.390625 138.929688 141.050781 139 140.730469 139.144531 C 140.40625 139.289062 140.128906 139.492188 139.890625 139.757812 C 138.574219 141.058594 138.769531 143.128906 139.53125 144.671875 C 140.011719 145.550781 140.621094 146.332031 141.363281 147.007812 C 142.285156 147.925781 142.839844 149.027344 143.03125 150.308594 C 143.3125 151.507812 143.335938 152.710938 143.101562 153.917969 C 142.945312 154.484375 142.609375 155.195312 141.917969 155.238281 C 140.859375 155.300781 140.527344 153.96875 140.679688 153.175781 C 140.863281 152.21875 139.402344 151.8125 139.21875 152.769531 C 138.855469 154.632812 139.898438 156.914062 142.085938 156.734375 C 144.222656 156.558594 144.777344 154.164062 144.757812 152.394531 C 144.816406 151.238281 144.65625 150.113281 144.28125 149.019531 C 143.902344 147.925781 143.332031 146.941406 142.570312 146.070312 C 141.414062 145.148438 140.707031 143.964844 140.445312 142.507812 Z M 140.445312 142.507812 " fill-opacity="1" fill-rule="nonzero"/><path fill="currentColor" d="M 153.285156 142.890625 C 151.289062 143.175781 149.347656 142.964844 147.460938 142.25 C 146.542969 141.914062 146.144531 143.378906 147.054688 143.710938 C 148.003906 144.054688 148.980469 144.285156 149.980469 144.398438 C 149.921875 144.511719 149.898438 144.632812 149.90625 144.761719 C 150.222656 149.257812 150.085938 153.738281 149.496094 158.203125 C 149.371094 159.167969 150.890625 159.160156 151.015625 158.203125 C 151.601562 153.738281 151.738281 149.257812 151.425781 144.761719 C 151.414062 144.664062 151.390625 144.574219 151.347656 144.484375 C 152.132812 144.503906 152.910156 144.460938 153.6875 144.351562 C 154.648438 144.214844 154.238281 142.753906 153.285156 142.890625 Z M 153.285156 142.890625 " fill-opacity="1" fill-rule="nonzero"/><path fill="currentColor" d="M 158.441406 143.644531 C 154.976562 147.707031 154.648438 153.703125 153.714844 158.738281 C 153.539062 159.695312 155 160.101562 155.179688 159.144531 C 155.421875 157.839844 155.648438 156.535156 155.886719 155.230469 L 161.363281 155.230469 C 161.667969 156.632812 161.945312 158.03125 162.179688 159.445312 C 162.335938 160.40625 163.796875 160 163.640625 159.042969 C 162.792969 153.902344 161.480469 148.878906 159.707031 143.980469 C 159.667969 143.851562 159.601562 143.738281 159.507812 143.644531 C 159.410156 143.554688 159.296875 143.488281 159.167969 143.453125 C 159.039062 143.421875 158.910156 143.421875 158.78125 143.453125 C 158.652344 143.488281 158.539062 143.550781 158.441406 143.644531 Z M 156.183594 153.714844 C 156.332031 152.9375 156.476562 152.15625 156.644531 151.382812 C 157 149.398438 157.695312 147.535156 158.722656 145.796875 C 159.613281 148.398438 160.375 151.035156 161.007812 153.710938 Z M 156.183594 153.714844 " fill-opacity="1" fill-rule="nonzero"/><path fill="currentColor" d="M 168.550781 151.558594 C 169.546875 151.132812 170.429688 150.535156 171.195312 149.765625 C 171.957031 148.996094 172.550781 148.109375 172.96875 147.109375 C 173.800781 144.792969 171.703125 142.460938 169.359375 142.386719 C 166.511719 142.296875 165.855469 146.050781 165.71875 148.195312 C 165.503906 151.640625 165.792969 155.175781 165.867188 158.628906 C 165.867188 158.839844 165.941406 159.019531 166.089844 159.167969 C 166.238281 159.316406 166.414062 159.390625 166.625 159.390625 C 166.835938 159.390625 167.011719 159.316406 167.160156 159.167969 C 167.308594 159.019531 167.382812 158.839844 167.382812 158.628906 C 167.339844 156.535156 167.296875 154.445312 167.25 152.351562 C 169.0625 154.554688 171.148438 156.453125 173.511719 158.046875 C 174.324219 158.59375 175.085938 157.28125 174.277344 156.738281 C 172.128906 155.277344 170.21875 153.550781 168.550781 151.558594 Z M 167.195312 150.398438 C 167.085938 148.855469 167.230469 147.335938 167.628906 145.84375 C 168.015625 144.625 168.683594 143.515625 170.132812 144.128906 C 170.414062 144.203125 170.667969 144.335938 170.890625 144.523438 C 171.113281 144.710938 171.289062 144.933594 171.414062 145.199219 C 171.535156 145.460938 171.601562 145.738281 171.601562 146.03125 C 171.605469 146.320312 171.546875 146.597656 171.425781 146.863281 C 171.003906 147.726562 170.421875 148.460938 169.683594 149.078125 C 168.949219 149.691406 168.117188 150.132812 167.195312 150.398438 Z M 167.195312 150.398438 " fill-opacity="1" fill-rule="nonzero"/><path fill="currentColor" d="M 183.550781 148.25 C 183.496094 147.785156 183.398438 147.332031 183.261719 146.886719 C 183.125 146.441406 182.945312 146.011719 182.730469 145.597656 C 182.511719 145.183594 182.261719 144.796875 181.972656 144.429688 C 181.6875 144.0625 181.367188 143.722656 181.019531 143.414062 C 180.667969 143.105469 180.292969 142.828125 179.894531 142.589844 C 179.496094 142.347656 179.078125 142.144531 178.640625 141.980469 C 178.203125 141.816406 177.757812 141.691406 177.296875 141.609375 C 176.839844 141.527344 176.375 141.488281 175.910156 141.488281 C 175.734375 141.496094 175.578125 141.554688 175.445312 141.667969 C 175.308594 141.785156 175.226562 141.925781 175.191406 142.101562 C 175.15625 142.273438 175.175781 142.4375 175.253906 142.59375 C 175.335938 142.753906 175.453125 142.867188 175.613281 142.941406 C 176.367188 147.546875 176.828125 152.179688 177 156.839844 C 176.535156 157.355469 177.222656 158.335938 178 157.972656 C 179.734375 156.988281 181.070312 155.613281 182.007812 153.847656 C 182.589844 153.039062 183.015625 152.148438 183.28125 151.1875 C 183.546875 150.222656 183.636719 149.246094 183.550781 148.25 Z M 180.585938 153.253906 C 180 154.222656 179.292969 155.089844 178.460938 155.855469 C 178.265625 151.59375 177.835938 147.355469 177.167969 143.140625 C 177.851562 143.273438 178.492188 143.515625 179.09375 143.871094 C 179.695312 144.222656 180.21875 144.664062 180.667969 145.199219 C 181.113281 145.730469 181.460938 146.324219 181.707031 146.976562 C 181.949219 147.628906 182.078125 148.304688 182.089844 149 C 182.039062 150.578125 181.539062 151.996094 180.585938 153.253906 Z M 180.585938 153.253906 " fill-opacity="1" fill-rule="nonzero"/><path fill="currentColor" d="M 103.671875 210.703125 C 104.339844 208.101562 104.839844 205.457031 105.351562 202.820312 C 105.714844 200.109375 106.3125 197.453125 107.140625 194.847656 C 107.300781 194.429688 107.484375 194.015625 107.609375 193.585938 C 107.78125 192.902344 107.882812 192.207031 107.914062 191.5 C 107.925781 191.347656 107.898438 191.140625 107.742188 191.125 C 107.691406 191.125 107.648438 191.136719 107.605469 191.164062 L 107.554688 191.199219 C 106.3125 192.34375 105.484375 193.734375 105.078125 195.371094 C 104.519531 197.039062 104.0625 198.730469 103.707031 200.453125 C 103.472656 201.484375 99.914062 213.683594 102.15625 214.207031 C 102.914062 214.386719 103.566406 211.117188 103.671875 210.703125 Z M 103.671875 210.703125 " fill-opacity="1" fill-rule="nonzero"/></svg>