<svg xmlns="http://www.w3.org/2000/svg" xmlns:xlink="http://www.w3.org/1999/xlink" width="400" zoomAndPan="magnify" viewBox="0 0 300 299.999988" height="400" preserveAspectRatio="xMidYMid meet" version="1.0"><path fill="currentColor" d="M 182.234375 121.34375 C 180.996094 120.105469 179.628906 118.847656 178.324219 117.652344 C 173.066406 112.824219 167.632812 107.847656 167.175781 101.175781 C 166.785156 95.503906 166.632812 92.679688 166.589844 91.398438 C 168.042969 90.679688 168.804688 89.3125 168.632812 87.574219 C 168.523438 86.550781 168.066406 85.484375 167.414062 84.8125 C 167.566406 83.09375 167.9375 78.902344 168.152344 74.640625 C 168.695312 63.6875 167.738281 62.125 166.71875 61.472656 C 165.980469 60.992188 164.957031 60.667969 163.785156 60.277344 C 160.417969 59.1875 157.828125 58.144531 157.589844 55.515625 C 157.503906 54.515625 157.417969 53.300781 157.351562 52.015625 C 156.894531 44.476562 156.394531 39.433594 153.851562 38.324219 C 153.441406 38.152344 153.289062 36.695312 153.199219 35.738281 C 153.003906 33.804688 152.746094 30.914062 149.875 30.632812 C 146.074219 30.261719 145.226562 34.609375 144.660156 37.476562 C 144.53125 38.171875 144.398438 38.804688 144.269531 39.347656 C 144.050781 40.171875 143.769531 40.433594 143.3125 40.824219 C 142.292969 41.757812 141.445312 42.78125 141.445312 45.867188 C 141.445312 47.257812 141.640625 48.867188 141.855469 50.5625 C 142.269531 53.820312 142.8125 58.296875 141.183594 59.015625 C 140.597656 59.277344 140.007812 59.492188 139.445312 59.710938 C 136.554688 60.820312 133.273438 62.078125 132.96875 66.644531 C 132.683594 70.621094 132.902344 82.640625 132.945312 85.789062 C 132.121094 86.398438 130.925781 87.527344 130.902344 89.09375 C 130.882812 90.332031 131.597656 91.460938 133.03125 92.417969 C 133.207031 95.003906 133.316406 105.566406 124.316406 116.109375 C 113.257812 129.082031 113.191406 132.015625 112.558594 160.074219 L 112.539062 160.550781 C 111.953125 187.695312 112.496094 247.785156 112.539062 251.328125 C 112.234375 252.871094 111.300781 261.5 128.316406 266.976562 C 134.164062 268.867188 141.097656 269.648438 148.050781 269.628906 C 161.523438 269.628906 175.152344 266.695312 181.34375 263.152344 C 181.367188 263.128906 181.386719 263.128906 181.433594 263.109375 C 187.105469 259.328125 187.039062 254.785156 186.996094 251.460938 C 186.996094 251.15625 186.996094 250.851562 186.996094 250.546875 C 186.996094 247.199219 187.015625 153.878906 187.015625 151.359375 C 187.105469 149.878906 188.691406 127.800781 182.234375 121.34375 Z M 184.277344 151.269531 C 184.277344 151.316406 184.277344 151.335938 184.277344 151.378906 C 184.277344 151.378906 184.257812 247.222656 184.257812 250.632812 C 184.257812 250.9375 184.257812 251.265625 184.257812 251.589844 C 184.300781 254.71875 184.367188 257.957031 179.933594 260.933594 C 171.109375 265.933594 145.355469 269.738281 129.097656 264.5 C 113.40625 259.457031 115.058594 252.21875 115.148438 251.9375 C 115.191406 251.808594 115.191406 251.675781 115.191406 251.546875 C 115.191406 250.917969 114.582031 188.476562 115.191406 160.683594 L 115.210938 160.203125 C 115.820312 132.449219 115.863281 130.167969 126.316406 117.933594 C 137.402344 104.9375 135.664062 92.050781 135.597656 91.507812 C 135.53125 91.09375 135.292969 90.722656 134.921875 90.527344 C 133.902344 89.941406 133.554688 89.464844 133.554688 89.203125 C 133.554688 88.769531 134.335938 88.09375 134.902344 87.789062 C 135.359375 87.550781 135.617188 87.074219 135.617188 86.574219 C 135.617188 86.421875 135.316406 71.273438 135.617188 66.90625 C 135.816406 64.167969 137.292969 63.46875 140.378906 62.296875 C 140.988281 62.058594 141.617188 61.820312 142.246094 61.558594 C 145.726562 60.035156 145.09375 54.863281 144.53125 50.300781 C 144.332031 48.691406 144.136719 47.171875 144.136719 45.933594 C 144.136719 43.78125 144.53125 43.433594 145.136719 42.890625 C 145.3125 42.738281 145.507812 42.542969 145.703125 42.324219 L 149.746094 42.324219 C 150.484375 42.324219 151.09375 41.714844 151.09375 40.976562 C 151.09375 40.238281 150.484375 39.628906 149.746094 39.628906 L 146.984375 39.628906 C 147.09375 39.128906 147.203125 38.585938 147.3125 38.023438 C 147.898438 34.933594 148.417969 33.347656 149.507812 33.347656 C 149.550781 33.347656 149.570312 33.347656 149.613281 33.347656 C 150.113281 33.390625 150.308594 33.980469 150.507812 36.023438 C 150.679688 37.78125 150.898438 40 152.746094 40.804688 C 153.984375 41.5625 154.441406 49.019531 154.636719 52.191406 C 154.722656 53.496094 154.789062 54.734375 154.875 55.777344 C 155.289062 60.382812 159.871094 61.863281 162.914062 62.863281 C 163.785156 63.144531 164.632812 63.425781 165.089844 63.6875 C 165.957031 65.46875 165.523438 76.226562 164.609375 85.378906 C 164.566406 85.746094 164.699219 86.136719 164.957031 86.421875 C 165.109375 86.59375 165.304688 86.726562 165.523438 86.789062 C 165.742188 87.074219 166.046875 87.832031 165.894531 88.421875 C 165.847656 88.570312 165.761719 88.941406 164.914062 89.136719 C 164.894531 89.136719 164.894531 89.136719 164.871094 89.136719 L 163.414062 89.484375 C 162.808594 89.636719 162.394531 90.179688 162.394531 90.789062 C 162.394531 90.898438 162.414062 91.007812 162.4375 91.113281 C 162.609375 91.789062 163.242188 92.222656 163.914062 92.136719 C 163.980469 93.65625 164.132812 96.460938 164.480469 101.351562 C 165.023438 109.089844 170.847656 114.433594 176.5 119.628906 C 177.847656 120.867188 179.128906 122.039062 180.324219 123.234375 C 185.039062 127.972656 184.777344 145.078125 184.277344 151.269531 Z M 137.25 155.8125 L 126.796875 157.464844 L 128.054688 169.046875 C 128.144531 169.789062 127.601562 170.460938 126.859375 170.527344 C 126.816406 170.527344 126.753906 170.527344 126.707031 170.527344 C 126.035156 170.527344 125.449219 170.003906 125.359375 169.332031 L 122.535156 143.316406 C 122.449219 142.578125 122.992188 141.90625 123.730469 141.839844 C 124.46875 141.753906 125.144531 142.296875 125.210938 143.035156 L 126.492188 154.769531 L 136.902344 153.140625 C 136.554688 150.011719 136.335938 146.859375 136.359375 143.730469 C 136.359375 142.992188 136.964844 142.382812 137.707031 142.382812 C 138.445312 142.382812 139.054688 142.992188 139.054688 143.75 C 139.007812 149.640625 139.902344 155.683594 140.746094 161.527344 C 141.140625 164.179688 141.507812 166.65625 141.769531 169.046875 C 141.855469 169.789062 141.3125 170.460938 140.574219 170.527344 C 140.53125 170.527344 140.464844 170.527344 140.421875 170.527344 C 139.75 170.527344 139.160156 170.027344 139.074219 169.332031 C 138.8125 167.007812 138.445312 164.527344 138.074219 161.898438 C 137.8125 159.898438 137.53125 157.855469 137.25 155.8125 Z M 161.894531 162.636719 C 163.089844 156.074219 161.066406 150.292969 156.351562 146.792969 C 156.113281 146.621094 154.199219 145.46875 152.917969 145.597656 C 151.09375 145.621094 147.527344 146.640625 146.441406 150.421875 C 145.789062 152.640625 145.550781 155.03125 145.703125 157.746094 C 145.898438 161.03125 146.246094 164.484375 148.355469 167.265625 C 149.679688 169.027344 151.484375 170.136719 153.441406 170.375 C 153.746094 170.417969 154.046875 170.441406 154.351562 170.441406 C 158.546875 170.441406 161.175781 166.527344 161.894531 162.636719 Z M 153.789062 167.703125 C 152.550781 167.550781 151.398438 166.808594 150.507812 165.636719 C 148.855469 163.441406 148.570312 160.59375 148.398438 157.59375 C 148.265625 155.183594 148.464844 153.074219 149.027344 151.164062 C 149.855469 148.335938 152.875 148.292969 153.003906 148.292969 C 153.046875 148.292969 153.113281 148.292969 153.15625 148.292969 C 153.527344 148.359375 154.503906 148.792969 154.742188 148.96875 C 158.613281 151.835938 160.265625 156.640625 159.242188 162.160156 C 158.851562 164.269531 157.199219 168.136719 153.789062 167.703125 Z M 178.605469 143.601562 C 178.671875 144.339844 178.128906 144.992188 177.390625 145.054688 C 177.347656 145.054688 175.085938 145.25 172.238281 145.554688 L 173.914062 168.503906 C 173.957031 169.246094 173.414062 169.894531 172.671875 169.941406 C 172.628906 169.941406 172.609375 169.941406 172.566406 169.941406 C 171.871094 169.941406 171.28125 169.398438 171.21875 168.679688 L 169.542969 145.839844 C 167.304688 146.097656 165.046875 146.402344 163.371094 146.707031 C 163.285156 146.730469 163.21875 146.730469 163.132812 146.730469 C 162.503906 146.730469 161.914062 146.273438 161.808594 145.621094 C 161.675781 144.882812 162.15625 144.1875 162.894531 144.054688 C 167.652344 143.1875 176.757812 142.382812 177.152344 142.359375 C 177.890625 142.316406 178.542969 142.859375 178.605469 143.601562 Z M 174.5 180.851562 C 173.957031 181.347656 173.890625 182.195312 174.390625 182.761719 C 176.433594 185.023438 173.609375 189.957031 172.304688 191.957031 C 171.671875 192.867188 167.195312 197.433594 165.457031 198.691406 C 163.242188 196.78125 160.566406 196.257812 160.242188 196.214844 C 157.742188 195.78125 155.046875 196.433594 152.636719 198.019531 C 148.160156 200.972656 145.355469 205.472656 142.640625 209.796875 C 139.574219 214.6875 136.683594 219.296875 131.640625 221.707031 C 130.945312 222.035156 130.097656 222.230469 129.207031 222.402344 C 127.902344 222.683594 126.535156 222.96875 125.359375 223.792969 C 124.511719 224.378906 123.96875 225.488281 123.96875 226.597656 C 123.992188 227.597656 124.449219 228.464844 125.253906 228.988281 C 128.402344 231.03125 132.511719 232.097656 136.75 232.097656 C 139.183594 232.097656 141.640625 231.746094 143.984375 231.03125 C 152.203125 228.511719 160.394531 221.445312 165.394531 212.578125 C 167.109375 209.515625 169.871094 204.625 167.261719 200.648438 C 170.042969 198.582031 174.238281 193.890625 174.5625 193.410156 C 178.148438 187.890625 178.800781 183.589844 176.410156 180.9375 C 175.910156 180.394531 175.042969 180.351562 174.5 180.851562 Z M 163.046875 211.253906 C 158.375 219.535156 150.765625 226.140625 143.203125 228.445312 C 137.488281 230.183594 131.035156 229.507812 126.730469 226.726562 C 126.6875 226.707031 126.6875 226.597656 126.6875 226.554688 C 126.6875 226.316406 126.816406 226.054688 126.902344 225.988281 C 127.621094 225.488281 128.664062 225.273438 129.773438 225.03125 C 130.792969 224.816406 131.835938 224.597656 132.816406 224.121094 C 138.554688 221.359375 141.792969 216.1875 144.921875 211.210938 C 147.59375 206.929688 150.136719 202.886719 154.136719 200.234375 C 155.613281 199.257812 157.179688 198.757812 158.699219 198.757812 C 159.070312 198.757812 159.4375 198.78125 159.785156 198.84375 C 159.894531 198.867188 162.414062 199.324219 164.152344 201.148438 C 164.175781 201.171875 164.175781 201.171875 164.199219 201.191406 C 164.21875 201.214844 164.21875 201.214844 164.242188 201.234375 C 166.957031 203.734375 165.304688 207.253906 163.046875 211.253906 Z M 131.925781 193.105469 C 131.425781 192.5625 131.46875 191.695312 132.03125 191.195312 C 132.578125 190.695312 133.445312 190.738281 133.945312 191.304688 L 141.855469 200.082031 C 142.355469 200.625 142.3125 201.496094 141.746094 201.996094 C 141.488281 202.234375 141.160156 202.34375 140.835938 202.34375 C 140.464844 202.34375 140.097656 202.191406 139.835938 201.886719 Z M 145.03125 195.28125 C 143.636719 193.476562 142.488281 191.476562 141.617188 189.390625 C 141.335938 188.695312 141.660156 187.914062 142.335938 187.628906 C 143.03125 187.347656 143.8125 187.675781 144.09375 188.347656 C 144.898438 190.238281 145.921875 192.019531 147.160156 193.652344 C 147.617188 194.238281 147.507812 195.085938 146.898438 195.542969 C 146.660156 195.738281 146.355469 195.824219 146.074219 195.824219 C 145.703125 195.824219 145.3125 195.628906 145.03125 195.28125 Z M 153.417969 183.632812 L 154.851562 189.824219 C 155.027344 190.542969 154.570312 191.28125 153.851562 191.457031 C 153.746094 191.476562 153.636719 191.5 153.546875 191.5 C 152.941406 191.5 152.375 191.085938 152.246094 190.457031 L 150.808594 184.261719 C 150.636719 183.542969 151.09375 182.804688 151.808594 182.632812 C 152.527344 182.457031 153.246094 182.914062 153.417969 183.632812 Z M 165.546875 234.507812 C 165.828125 235.203125 165.523438 235.984375 164.828125 236.269531 C 164.652344 236.332031 164.480469 236.378906 164.304688 236.378906 C 163.785156 236.378906 163.285156 236.074219 163.066406 235.550781 L 159.546875 227.335938 C 159.265625 226.640625 159.570312 225.859375 160.265625 225.574219 C 160.9375 225.292969 161.742188 225.597656 162.023438 226.292969 Z M 171.324219 223.292969 C 171.128906 223.859375 170.609375 224.226562 170.042969 224.226562 C 169.914062 224.226562 169.761719 224.207031 169.632812 224.164062 C 167.871094 223.578125 166.285156 222.535156 165.089844 221.121094 C 164.609375 220.554688 164.675781 219.707031 165.242188 219.230469 C 165.804688 218.75 166.652344 218.816406 167.132812 219.382812 C 168 220.402344 169.195312 221.207031 170.476562 221.621094 C 171.175781 221.835938 171.566406 222.597656 171.324219 223.292969 Z M 177.085938 213.230469 C 176.890625 213.796875 176.367188 214.144531 175.804688 214.144531 C 175.652344 214.144531 175.519531 214.121094 175.367188 214.078125 C 173.476562 213.449219 171.5 213.058594 169.523438 212.90625 C 168.785156 212.863281 168.21875 212.210938 168.261719 211.472656 C 168.304688 210.730469 168.957031 210.167969 169.695312 210.210938 C 171.914062 210.363281 174.109375 210.796875 176.214844 211.515625 C 176.953125 211.753906 177.324219 212.515625 177.085938 213.230469 Z M 138.75 82.292969 C 138.726562 81.945312 138.207031 73.664062 138.269531 69.097656 C 138.292969 68.359375 138.878906 67.773438 139.617188 67.773438 C 139.617188 67.773438 139.640625 67.773438 139.640625 67.773438 C 140.378906 67.796875 140.988281 68.402344 140.964844 69.144531 C 140.898438 73.597656 141.445312 82.03125 141.445312 82.117188 C 141.488281 82.855469 140.921875 83.507812 140.183594 83.550781 C 140.160156 83.550781 140.117188 83.550781 140.097656 83.550781 C 139.402344 83.550781 138.8125 83.007812 138.75 82.292969 Z M 145.332031 83.09375 L 144.660156 67.753906 C 144.617188 67.011719 145.203125 66.382812 145.941406 66.339844 C 146.679688 66.296875 147.3125 66.882812 147.355469 67.621094 L 148.027344 82.964844 C 148.070312 83.703125 147.484375 84.335938 146.746094 84.378906 C 146.722656 84.378906 146.703125 84.378906 146.679688 84.378906 C 145.964844 84.398438 145.355469 83.835938 145.332031 83.09375 Z M 153.875 67.730469 C 154.613281 67.730469 155.222656 68.316406 155.222656 69.054688 L 155.351562 80.902344 C 155.351562 81.640625 154.765625 82.246094 154.027344 82.269531 C 154.027344 82.269531 154.027344 82.269531 154.003906 82.269531 C 153.265625 82.269531 152.65625 81.683594 152.65625 80.945312 L 152.527344 69.097656 C 152.527344 68.339844 153.113281 67.730469 153.875 67.730469 Z M 159.265625 82.617188 L 159.917969 69.207031 C 159.960938 68.46875 160.589844 67.902344 161.328125 67.925781 C 162.066406 67.96875 162.65625 68.601562 162.609375 69.339844 L 161.960938 82.746094 C 161.914062 83.464844 161.328125 84.03125 160.613281 84.03125 C 160.589844 84.03125 160.566406 84.03125 160.546875 84.03125 C 159.808594 83.988281 159.242188 83.355469 159.265625 82.617188 Z M 136.964844 92.09375 C 137.054688 91.355469 137.726562 90.832031 138.464844 90.917969 C 146.898438 91.941406 151.65625 92.09375 159.242188 90.355469 C 159.960938 90.179688 160.699219 90.636719 160.851562 91.375 C 161.023438 92.09375 160.566406 92.832031 159.828125 92.984375 C 155.527344 93.960938 152.09375 94.375 148.464844 94.375 C 145.378906 94.375 142.160156 94.070312 138.140625 93.59375 C 137.402344 93.503906 136.878906 92.832031 136.964844 92.09375 Z M 145.203125 60.101562 C 145.421875 59.386719 146.160156 58.972656 146.875 59.1875 C 148.722656 59.734375 150.722656 59.644531 152.503906 58.949219 C 153.199219 58.667969 153.984375 59.015625 154.242188 59.710938 C 154.503906 60.40625 154.179688 61.1875 153.484375 61.449219 C 152.15625 61.972656 150.746094 62.230469 149.3125 62.230469 C 148.222656 62.230469 147.160156 62.078125 146.117188 61.777344 C 145.398438 61.558594 144.984375 60.796875 145.203125 60.101562 Z M 145.3125 45.800781 C 145.203125 45.0625 145.726562 44.390625 146.464844 44.28125 C 147.179688 44.171875 147.875 44.695312 147.984375 45.433594 L 149.136719 53.972656 C 149.246094 54.710938 148.722656 55.386719 147.984375 55.496094 C 147.917969 55.496094 147.855469 55.515625 147.8125 55.515625 C 147.136719 55.515625 146.574219 55.015625 146.484375 54.34375 Z M 150.113281 53.648438 L 149.507812 45.105469 C 149.460938 44.367188 150.007812 43.714844 150.765625 43.671875 C 151.503906 43.628906 152.15625 44.171875 152.203125 44.933594 L 152.808594 53.472656 C 152.851562 54.210938 152.308594 54.863281 151.550781 54.90625 C 151.527344 54.90625 151.484375 54.90625 151.460938 54.90625 C 150.765625 54.90625 150.179688 54.363281 150.113281 53.648438 Z M 122.273438 128.34375 C 123.925781 125.386719 126.121094 122.800781 128.273438 120.324219 C 129.902344 118.433594 131.578125 116.476562 132.925781 114.433594 C 136.03125 109.738281 137.683594 104.785156 138.269531 98.417969 C 138.335938 97.679688 138.988281 97.136719 139.726562 97.199219 C 140.464844 97.265625 141.007812 97.917969 140.945312 98.65625 C 140.3125 105.503906 138.53125 110.828125 135.164062 115.933594 C 133.707031 118.128906 131.96875 120.148438 130.292969 122.105469 C 128.144531 124.605469 126.121094 126.972656 124.601562 129.691406 C 124.363281 130.125 123.882812 130.386719 123.425781 130.386719 C 123.210938 130.386719 122.96875 130.320312 122.773438 130.210938 C 122.144531 129.800781 121.90625 128.996094 122.273438 128.34375 Z M 120.796875 175.175781 C 120.058594 203.648438 119.753906 225.835938 120.515625 248.375 C 120.535156 249.113281 119.949219 249.742188 119.210938 249.765625 C 119.1875 249.765625 119.1875 249.765625 119.167969 249.765625 C 118.449219 249.765625 117.839844 249.199219 117.820312 248.460938 C 117.058594 225.859375 117.363281 203.625 118.101562 175.089844 C 118.125 174.351562 118.710938 173.785156 119.449219 173.785156 C 119.472656 173.785156 119.472656 173.785156 119.492188 173.785156 C 120.210938 173.808594 120.820312 174.4375 120.796875 175.175781 Z M 163.828125 259.195312 C 164.046875 259.914062 163.65625 260.652344 162.9375 260.871094 C 159.394531 261.957031 154.222656 262.542969 148.660156 262.542969 C 139.097656 262.542969 128.445312 260.78125 123.078125 256.742188 C 122.492188 256.285156 122.363281 255.4375 122.820312 254.851562 C 123.273438 254.261719 124.121094 254.132812 124.710938 254.589844 C 132.445312 260.414062 153.199219 261.023438 162.15625 258.285156 C 162.851562 258.089844 163.609375 258.5 163.828125 259.195312 Z M 163.828125 259.195312 " fill-opacity="1" fill-rule="nonzero"/></svg>