<svg xmlns="http://www.w3.org/2000/svg" xmlns:xlink="http://www.w3.org/1999/xlink" width="400" zoomAndPan="magnify" viewBox="0 0 300 299.999988" height="400" preserveAspectRatio="xMidYMid meet" version="1.0"><defs><clipPath id="f3c3280c36"><path d="M 30 45.449219 L 144 45.449219 L 144 175 L 30 175 Z M 30 45.449219 " clip-rule="nonzero"/></clipPath><clipPath id="ac4a02b32f"><path d="M 156.460938 45.601562 L 270 45.601562 L 270 174.355469 L 156.460938 174.355469 Z M 156.460938 45.601562 " clip-rule="nonzero"/></clipPath><clipPath id="8bcec3e29d"><path d="M 111.640625 203 L 188.394531 203 L 188.394531 254.511719 L 111.640625 254.511719 Z M 111.640625 203 " clip-rule="nonzero"/></clipPath></defs><g clip-path="url(#f3c3280c36)"><path fill="#ffffff" d="M 131.730469 77.867188 L 97.40625 67.941406 L 100.257812 52.03125 L 137 62.804688 Z M 141.355469 58.21875 L 98.714844 45.714844 C 97.960938 45.496094 97.160156 45.597656 96.503906 46 C 96.449219 46.035156 96.390625 46.074219 96.339844 46.109375 C 95.773438 46.519531 95.386719 47.136719 95.261719 47.839844 L 91.410156 69.328125 C 91.148438 70.792969 92.058594 72.253906 93.496094 72.667969 L 95.027344 73.109375 L 94.777344 73.742188 C 92.882812 78.472656 89.378906 80.394531 77.519531 86.320312 C 74.039062 88.058594 69.707031 90.222656 64.652344 92.886719 C 61.914062 94.328125 59.488281 95.828125 57.324219 97.390625 C 42.832031 107.863281 40.265625 121.109375 37.132812 137.320312 C 37.011719 137.929688 37.015625 137.921875 37.046875 137.78125 C 37.035156 137.84375 37.019531 137.914062 37.003906 137.996094 C 34.738281 149.300781 30.152344 166.285156 30.105469 166.453125 C 30.03125 166.730469 30 167.019531 30.011719 167.3125 C 30.027344 167.667969 30.234375 170.851562 32.964844 172.828125 C 35.140625 174.40625 38.152344 174.882812 41.652344 173.492188 C 47.941406 170.996094 57.542969 157.003906 59.128906 142.109375 C 59.296875 140.542969 57.417969 139.457031 55.890625 139.664062 C 54.359375 139.871094 53.882812 141.3125 53.589844 142.855469 C 50.4375 159.554688 43.660156 166.109375 39.796875 168.058594 C 37.925781 168.996094 36.597656 168.574219 36.136719 168.257812 C 35.890625 168.085938 35.757812 167.785156 35.691406 167.550781 C 36.527344 164.414062 40.453125 149.601562 42.511719 139.324219 C 42.84375 137.660156 43.160156 136.03125 43.46875 134.441406 C 47.054688 115.914062 48.601562 107.84375 67.386719 97.953125 C 72.394531 95.316406 76.519531 93.257812 80.15625 91.441406 C 92.25 85.398438 97.253906 82.894531 99.996094 76.046875 L 100.53125 74.703125 L 124.488281 81.628906 C 124.242188 82.34375 123.984375 83.097656 123.710938 83.894531 C 122.15625 87.515625 121.84375 91.242188 121.539062 94.847656 C 120.960938 101.640625 120.417969 108.058594 111.859375 114.6875 C 106.191406 119.167969 98.953125 121.039062 92.566406 122.6875 C 86.769531 124.183594 81.765625 125.476562 79.011719 128.527344 C 76.222656 131.621094 69.359375 135.132812 65.023438 134.855469 C 63.921875 134.789062 63.160156 134.484375 62.757812 133.957031 C 61.226562 131.953125 62.085938 130.253906 65.632812 125.820312 C 66.132812 125.195312 66.652344 124.542969 67.144531 123.890625 C 69.433594 120.851562 72.730469 119.058594 76.550781 116.976562 C 80.667969 114.738281 85.332031 112.199219 89.367188 107.582031 C 90.375 106.425781 90.238281 104.625 89.058594 103.5625 C 87.878906 102.496094 86.105469 102.566406 85.097656 103.722656 C 81.691406 107.621094 77.652344 109.820312 73.75 111.945312 C 71.605469 113.113281 69.417969 114.300781 67.394531 115.765625 C 65.644531 117.03125 64.011719 118.5 62.628906 120.335938 C 62.183594 120.929688 61.714844 121.519531 61.214844 122.144531 C 59.605469 124.152344 57.941406 126.234375 57.050781 128.5625 C 55.878906 131.640625 56.332031 134.675781 58.359375 137.332031 C 59.382812 138.667969 61.34375 140.308594 64.878906 140.535156 C 71.132812 140.929688 79.414062 136.671875 83.226562 132.449219 C 84.902344 130.589844 89.390625 129.429688 94.144531 128.203125 C 100.703125 126.507812 108.863281 124.402344 115.398438 119.234375 C 125.8125 111.171875 126.515625 102.871094 127.136719 95.542969 C 127.417969 92.210938 127.683594 89.0625 128.910156 86.246094 C 128.941406 86.175781 128.96875 86.105469 128.992188 86.035156 C 129.335938 85.03125 129.660156 84.089844 129.960938 83.210938 L 132.859375 84.050781 C 134.269531 84.457031 135.710938 83.722656 136.191406 82.355469 L 143.320312 61.984375 C 143.578125 61.242188 143.511719 60.410156 143.140625 59.695312 C 142.765625 58.980469 142.121094 58.441406 141.355469 58.21875 " fill-opacity="1" fill-rule="nonzero"/></g><g clip-path="url(#ac4a02b32f)"><path fill="#ffffff" d="M 168.277344 77.867188 L 163.007812 62.804688 L 199.75 52.03125 L 202.601562 67.941406 Z M 269.902344 166.453125 C 269.855469 166.28125 265.269531 149.300781 263.007812 137.996094 C 262.988281 137.914062 262.976562 137.84375 262.964844 137.78125 C 262.992188 137.921875 262.996094 137.929688 262.878906 137.320312 C 259.742188 121.109375 257.175781 107.863281 242.6875 97.390625 C 240.523438 95.824219 238.09375 94.328125 235.359375 92.886719 C 230.300781 90.222656 225.96875 88.058594 222.488281 86.320312 C 210.628906 80.394531 207.125 78.472656 205.234375 73.742188 L 204.980469 73.109375 L 206.511719 72.667969 C 207.949219 72.253906 208.863281 70.792969 208.597656 69.328125 L 204.746094 47.839844 C 204.621094 47.136719 204.234375 46.519531 203.671875 46.109375 C 203.617188 46.074219 203.5625 46.035156 203.503906 46 C 202.851562 45.597656 202.046875 45.496094 201.292969 45.714844 L 158.652344 58.21875 C 157.890625 58.441406 157.242188 58.980469 156.867188 59.695312 C 156.496094 60.410156 156.429688 61.242188 156.691406 61.984375 L 163.816406 82.355469 C 164.296875 83.722656 165.738281 84.457031 167.148438 84.050781 L 170.050781 83.210938 C 170.347656 84.085938 170.671875 85.03125 171.015625 86.035156 C 171.039062 86.105469 171.066406 86.175781 171.097656 86.246094 C 172.324219 89.0625 172.589844 92.210938 172.871094 95.542969 C 173.492188 102.867188 174.195312 111.171875 184.609375 119.234375 C 191.144531 124.402344 199.308594 126.507812 205.863281 128.199219 C 210.617188 129.429688 215.109375 130.589844 216.785156 132.449219 C 220.59375 136.671875 228.875 140.929688 235.128906 140.535156 C 238.664062 140.308594 240.625 138.667969 241.648438 137.328125 C 243.679688 134.675781 244.128906 131.640625 242.957031 128.5625 C 242.070312 126.234375 240.40625 124.152344 238.792969 122.140625 C 238.296875 121.519531 237.824219 120.929688 237.378906 120.335938 C 235.996094 118.5 234.367188 117.03125 232.617188 115.765625 C 230.589844 114.300781 228.40625 113.113281 226.257812 111.945312 C 222.355469 109.820312 218.316406 107.621094 214.910156 103.722656 C 213.902344 102.566406 212.128906 102.496094 210.949219 103.5625 C 209.773438 104.625 209.632812 106.425781 210.640625 107.582031 C 214.679688 112.199219 219.339844 114.738281 223.457031 116.976562 C 227.277344 119.058594 230.578125 120.851562 232.863281 123.890625 C 233.355469 124.542969 233.875 125.195312 234.378906 125.820312 C 237.925781 130.253906 238.78125 131.953125 237.25 133.957031 C 236.847656 134.484375 236.085938 134.789062 234.984375 134.855469 C 230.648438 135.132812 223.785156 131.621094 220.996094 128.527344 C 218.242188 125.476562 213.242188 124.183594 207.441406 122.6875 C 201.058594 121.039062 193.816406 119.167969 188.148438 114.6875 C 179.589844 108.058594 179.046875 101.640625 178.472656 94.847656 C 178.167969 91.242188 177.851562 87.515625 176.296875 83.894531 C 176.023438 83.097656 175.765625 82.34375 175.523438 81.628906 L 199.476562 74.703125 L 200.011719 76.046875 C 202.753906 82.894531 207.761719 85.394531 219.851562 91.441406 C 223.492188 93.257812 227.613281 95.316406 232.621094 97.953125 C 251.40625 107.84375 252.957031 115.914062 256.542969 134.441406 C 256.847656 136.03125 257.164062 137.660156 257.496094 139.324219 C 259.554688 149.601562 263.480469 164.414062 264.316406 167.550781 C 264.25 167.785156 264.121094 168.085938 263.871094 168.257812 C 263.410156 168.574219 262.082031 168.996094 260.214844 168.058594 C 256.347656 166.109375 249.570312 159.554688 246.417969 142.855469 C 246.125 141.3125 245.648438 139.871094 244.121094 139.664062 C 242.589844 139.457031 240.710938 140.542969 240.878906 142.109375 C 242.464844 157.003906 252.070312 170.996094 258.355469 173.492188 C 261.855469 174.882812 264.867188 174.40625 267.046875 172.828125 C 269.777344 170.851562 269.984375 167.667969 269.996094 167.3125 C 270.007812 167.019531 269.976562 166.730469 269.902344 166.453125 " fill-opacity="1" fill-rule="nonzero"/></g><g clip-path="url(#8bcec3e29d)"><path fill="#ffffff" d="M 173.464844 203.425781 C 173.03125 203.171875 172.539062 203.039062 172.039062 203.039062 C 171.050781 203.039062 170.125 203.570312 169.621094 204.421875 C 169.242188 205.066406 169.132812 205.824219 169.320312 206.546875 C 169.507812 207.273438 169.96875 207.882812 170.613281 208.265625 C 178.65625 213 182.730469 220.789062 182.730469 231.410156 C 182.730469 234.117188 182.570312 244.066406 182.316406 248.902344 L 170.960938 248.902344 L 170.960938 234.863281 C 170.960938 233.316406 169.703125 232.054688 168.152344 232.054688 C 166.605469 232.054688 165.347656 233.316406 165.347656 234.863281 L 165.347656 248.902344 L 134.660156 248.902344 L 134.660156 234.246094 C 134.660156 232.699219 133.402344 231.4375 131.855469 231.4375 C 130.308594 231.4375 129.046875 232.699219 129.046875 234.246094 L 129.046875 248.902344 L 117.691406 248.902344 C 117.4375 244.0625 117.277344 234.113281 117.277344 231.410156 C 117.277344 220.839844 121.316406 213.078125 129.28125 208.332031 C 129.925781 207.949219 130.378906 207.335938 130.566406 206.609375 C 130.75 205.882812 130.640625 205.128906 130.253906 204.484375 C 129.75 203.636719 128.828125 203.113281 127.84375 203.113281 C 127.339844 203.113281 126.84375 203.25 126.40625 203.507812 C 116.761719 209.253906 111.664062 218.902344 111.664062 231.410156 C 111.664062 232.71875 111.847656 249.332031 112.351562 252.191406 C 112.585938 253.535156 113.75 254.511719 115.113281 254.511719 L 184.894531 254.511719 C 186.257812 254.511719 187.421875 253.535156 187.660156 252.195312 C 188.160156 249.332031 188.347656 232.71875 188.347656 231.410156 C 188.347656 218.839844 183.199219 209.164062 173.464844 203.425781 " fill-opacity="1" fill-rule="nonzero"/></g><path fill="#ffffff" d="M 150.003906 164.675781 C 160.308594 164.675781 168.691406 173.058594 168.691406 183.359375 C 168.691406 193.664062 160.308594 202.046875 150.003906 202.046875 C 139.699219 202.046875 131.320312 193.664062 131.320312 183.359375 C 131.320312 173.058594 139.699219 164.675781 150.003906 164.675781 Z M 150.003906 207.660156 C 163.402344 207.660156 174.304688 196.757812 174.304688 183.359375 C 174.304688 169.960938 163.402344 159.0625 150.003906 159.0625 C 136.605469 159.0625 125.707031 169.960938 125.707031 183.359375 C 125.707031 196.757812 136.605469 207.660156 150.003906 207.660156 " fill-opacity="1" fill-rule="nonzero"/><path fill="#ffffff" d="M 105.34375 229.023438 L 82.207031 229.023438 L 82.207031 212.941406 C 82.207031 211.390625 80.949219 210.132812 79.402344 210.132812 C 77.855469 210.132812 76.59375 211.390625 76.59375 212.941406 L 76.59375 229.023438 L 67.90625 229.023438 C 67.703125 224.847656 67.578125 216.882812 67.578125 214.75 C 67.578125 205.980469 70.933594 199.554688 77.554688 195.65625 C 78.203125 195.273438 78.660156 194.664062 78.847656 193.9375 C 79.035156 193.214844 78.929688 192.457031 78.550781 191.8125 C 78.046875 190.957031 77.121094 190.429688 76.128906 190.429688 C 75.628906 190.429688 75.136719 190.5625 74.707031 190.816406 C 66.371094 195.730469 61.964844 204.003906 61.964844 214.75 C 61.964844 214.890625 62.089844 229.710938 62.550781 232.316406 C 62.785156 233.660156 63.949219 234.636719 65.3125 234.636719 L 105.34375 234.636719 C 106.890625 234.636719 108.148438 233.378906 108.148438 231.832031 C 108.148438 230.28125 106.890625 229.023438 105.34375 229.023438 " fill-opacity="1" fill-rule="nonzero"/><path fill="#ffffff" d="M 113.328125 190.492188 C 112.339844 190.492188 111.417969 191.015625 110.914062 191.863281 C 110.53125 192.507812 110.421875 193.261719 110.605469 193.988281 C 110.789062 194.714844 111.242188 195.328125 111.886719 195.710938 C 114.320312 197.160156 116.335938 198.984375 117.878906 201.136719 C 118.402344 201.871094 119.257812 202.308594 120.160156 202.308594 C 120.75 202.308594 121.3125 202.125 121.792969 201.78125 C 122.402344 201.34375 122.804688 200.699219 122.925781 199.957031 C 123.050781 199.21875 122.875 198.472656 122.4375 197.867188 C 120.445312 195.082031 117.859375 192.734375 114.761719 190.886719 C 114.328125 190.628906 113.832031 190.492188 113.328125 190.492188 " fill-opacity="1" fill-rule="nonzero"/><path fill="#ffffff" d="M 112.753906 216.546875 L 112.753906 212.941406 C 112.753906 211.390625 111.496094 210.132812 109.949219 210.132812 C 108.402344 210.132812 107.140625 211.390625 107.140625 212.941406 L 107.140625 216.546875 C 107.140625 218.097656 108.402344 219.355469 109.949219 219.355469 C 111.496094 219.355469 112.753906 218.097656 112.753906 216.546875 " fill-opacity="1" fill-rule="nonzero"/><path fill="#ffffff" d="M 94.675781 159.035156 C 103.101562 159.035156 109.957031 165.886719 109.957031 174.3125 C 109.957031 182.738281 103.101562 189.59375 94.675781 189.59375 C 86.25 189.59375 79.394531 182.738281 79.394531 174.3125 C 79.394531 165.886719 86.25 159.035156 94.675781 159.035156 Z M 94.675781 195.207031 C 106.195312 195.207031 115.570312 185.835938 115.570312 174.3125 C 115.570312 162.792969 106.195312 153.417969 94.675781 153.417969 C 83.15625 153.417969 73.78125 162.792969 73.78125 174.3125 C 73.78125 185.835938 83.15625 195.207031 94.675781 195.207031 " fill-opacity="1" fill-rule="nonzero"/><path fill="#ffffff" d="M 225.300781 190.816406 C 224.871094 190.5625 224.378906 190.429688 223.878906 190.429688 C 222.886719 190.429688 221.960938 190.957031 221.460938 191.8125 C 221.078125 192.457031 220.972656 193.214844 221.160156 193.9375 C 221.347656 194.664062 221.804688 195.273438 222.453125 195.65625 C 229.074219 199.554688 232.429688 205.980469 232.429688 214.75 C 232.429688 216.882812 232.304688 224.847656 232.101562 229.023438 L 223.414062 229.023438 L 223.414062 212.941406 C 223.414062 211.390625 222.15625 210.132812 220.605469 210.132812 C 219.058594 210.132812 217.800781 211.390625 217.800781 212.941406 L 217.800781 229.023438 L 194.664062 229.023438 C 193.117188 229.023438 191.859375 230.28125 191.859375 231.832031 C 191.859375 233.378906 193.117188 234.636719 194.664062 234.636719 L 234.695312 234.636719 C 236.0625 234.636719 237.222656 233.660156 237.460938 232.316406 C 237.917969 229.710938 238.042969 214.890625 238.042969 214.75 C 238.042969 204.003906 233.636719 195.730469 225.300781 190.816406 " fill-opacity="1" fill-rule="nonzero"/><path fill="#ffffff" d="M 178.214844 201.78125 C 178.695312 202.125 179.257812 202.308594 179.847656 202.308594 C 180.753906 202.308594 181.605469 201.871094 182.132812 201.136719 C 183.671875 198.984375 185.6875 197.160156 188.121094 195.710938 C 189.449219 194.917969 189.886719 193.191406 189.09375 191.863281 C 188.589844 191.015625 187.667969 190.492188 186.683594 190.492188 C 186.179688 190.492188 185.683594 190.628906 185.246094 190.886719 C 182.148438 192.734375 179.5625 195.082031 177.570312 197.867188 C 176.667969 199.125 176.957031 200.878906 178.214844 201.78125 " fill-opacity="1" fill-rule="nonzero"/><path fill="#ffffff" d="M 192.867188 216.546875 L 192.867188 212.941406 C 192.867188 211.390625 191.605469 210.132812 190.058594 210.132812 C 188.511719 210.132812 187.253906 211.390625 187.253906 212.941406 L 187.253906 216.546875 C 187.253906 218.097656 188.511719 219.355469 190.058594 219.355469 C 191.605469 219.355469 192.867188 218.097656 192.867188 216.546875 " fill-opacity="1" fill-rule="nonzero"/><path fill="#ffffff" d="M 205.332031 159.035156 C 213.757812 159.035156 220.613281 165.886719 220.613281 174.3125 C 220.613281 182.738281 213.757812 189.59375 205.332031 189.59375 C 196.90625 189.59375 190.054688 182.738281 190.054688 174.3125 C 190.054688 165.886719 196.90625 159.035156 205.332031 159.035156 Z M 205.332031 195.207031 C 216.851562 195.207031 226.226562 185.835938 226.226562 174.3125 C 226.226562 162.792969 216.851562 153.417969 205.332031 153.417969 C 193.8125 153.417969 184.441406 162.792969 184.441406 174.3125 C 184.441406 185.835938 193.8125 195.207031 205.332031 195.207031 " fill-opacity="1" fill-rule="nonzero"/></svg>