<svg xmlns="http://www.w3.org/2000/svg" xmlns:xlink="http://www.w3.org/1999/xlink" width="400" zoomAndPan="magnify" viewBox="0 0 300 299.999988" height="400" preserveAspectRatio="xMidYMid meet" version="1.0"><defs><clipPath id="52ecd4f9c5"><path d="M 30.019531 198.359375 L 269.972656 198.359375 L 269.972656 262.796875 L 30.019531 262.796875 Z M 30.019531 198.359375 " clip-rule="nonzero"/></clipPath><clipPath id="9f87f0223a"><path d="M 137 37.199219 L 163 37.199219 L 163 68 L 137 68 Z M 137 37.199219 " clip-rule="nonzero"/></clipPath></defs><g clip-path="url(#52ecd4f9c5)"><path fill="#ffffff" d="M 149.996094 262.796875 C 118.597656 262.796875 89.03125 259.351562 66.746094 253.097656 C 42.71875 246.355469 30.019531 237.164062 30.019531 226.515625 C 30.019531 220.386719 34.191406 214.746094 42.421875 209.742188 C 49.570312 205.398438 59.601562 201.609375 72.238281 198.484375 C 74.183594 198.003906 76.152344 199.191406 76.632812 201.136719 C 77.117188 203.082031 75.929688 205.050781 73.980469 205.53125 C 62.226562 208.4375 52.617188 212.039062 46.191406 215.945312 C 42.125 218.417969 37.28125 222.257812 37.28125 226.515625 C 37.28125 230.398438 41.371094 233.925781 44.800781 236.199219 C 50.265625 239.828125 58.535156 243.253906 68.707031 246.109375 C 90.375 252.191406 119.242188 255.539062 149.996094 255.539062 C 180.753906 255.539062 209.621094 252.191406 231.285156 246.109375 C 241.460938 243.253906 249.726562 239.828125 255.195312 236.199219 C 258.625 233.925781 262.714844 230.398438 262.714844 226.515625 C 262.714844 222.613281 258.585938 219.070312 255.125 216.785156 C 249.613281 213.140625 241.277344 209.707031 231.023438 206.847656 C 229.09375 206.308594 227.964844 204.304688 228.503906 202.375 C 229.042969 200.445312 231.042969 199.316406 232.972656 199.855469 C 257.179688 206.605469 269.972656 215.824219 269.972656 226.515625 C 269.972656 237.164062 257.273438 246.355469 233.25 253.097656 C 210.960938 259.351562 181.398438 262.796875 149.996094 262.796875 " fill-opacity="1" fill-rule="nonzero"/></g><path fill="#ffffff" d="M 137.960938 171.503906 C 137.390625 171.503906 136.808594 171.367188 136.269531 171.082031 C 132.121094 168.894531 128.671875 165.679688 126.292969 161.785156 C 123.808594 157.722656 122.496094 152.90625 122.496094 147.851562 C 122.496094 140.121094 125.695312 131.648438 131.996094 122.671875 C 133.148438 121.03125 135.414062 120.632812 137.054688 121.785156 C 138.695312 122.9375 139.089844 125.199219 137.9375 126.839844 C 132.511719 134.574219 129.757812 141.644531 129.757812 147.851562 C 129.757812 155.214844 133.367188 161.34375 139.65625 164.664062 C 141.429688 165.597656 142.109375 167.792969 141.171875 169.566406 C 140.523438 170.800781 139.261719 171.503906 137.960938 171.503906 " fill-opacity="1" fill-rule="nonzero"/><path fill="#ffffff" d="M 149.996094 174.382812 C 149.402344 174.382812 148.796875 174.367188 148.203125 174.332031 C 146.199219 174.222656 144.671875 172.507812 144.785156 170.503906 C 144.898438 168.503906 146.609375 166.972656 148.613281 167.085938 C 149.070312 167.113281 149.539062 167.125 149.996094 167.125 C 152.003906 167.125 153.628906 168.75 153.628906 170.753906 C 153.628906 172.757812 152.003906 174.382812 149.996094 174.382812 " fill-opacity="1" fill-rule="nonzero"/><path fill="#ffffff" d="M 149.273438 85.558594 C 141.046875 95.277344 116.214844 126.542969 116.214844 149.921875 C 116.214844 167.804688 130.421875 180.785156 149.996094 180.785156 C 169.570312 180.785156 183.777344 167.804688 183.777344 149.921875 C 183.777344 126.15625 157.820312 95.128906 149.273438 85.558594 Z M 149.996094 188.046875 C 138.910156 188.046875 128.65625 184.34375 121.125 177.625 C 117.292969 174.203125 114.292969 170.128906 112.214844 165.519531 C 110.054688 160.714844 108.957031 155.46875 108.957031 149.921875 C 108.957031 142.660156 110.980469 134.300781 114.976562 125.066406 C 118.097656 117.847656 122.4375 110.050781 127.871094 101.886719 C 137.074219 88.070312 146.136719 78.082031 146.519531 77.664062 C 147.195312 76.921875 148.148438 76.492188 149.152344 76.480469 C 150.15625 76.464844 151.121094 76.867188 151.816406 77.59375 C 152.214844 78.003906 161.679688 87.878906 171.28125 101.640625 C 176.957031 109.773438 181.488281 117.570312 184.75 124.8125 C 188.921875 134.085938 191.039062 142.53125 191.039062 149.921875 C 191.039062 155.46875 189.941406 160.714844 187.777344 165.519531 C 185.703125 170.128906 182.703125 174.203125 178.867188 177.625 C 171.335938 184.34375 161.085938 188.046875 149.996094 188.046875 " fill-opacity="1" fill-rule="nonzero"/><path fill="#ffffff" d="M 149.996094 231.542969 C 142.121094 231.542969 134.675781 230.847656 129.039062 229.585938 C 126.101562 228.925781 123.742188 228.132812 122.019531 227.21875 C 118.570312 225.394531 117.847656 223.117188 117.847656 221.527344 C 117.847656 220.296875 118.285156 218.496094 120.375 216.878906 C 121.410156 216.078125 122.765625 215.378906 124.515625 214.746094 C 127.488281 213.675781 131.621094 212.808594 136.457031 212.246094 C 138.449219 212.015625 140.25 213.441406 140.484375 215.433594 C 140.714844 217.425781 139.289062 219.226562 137.296875 219.457031 C 132.273438 220.042969 129.046875 220.84375 127.109375 221.523438 C 128.3125 221.949219 130.085938 222.441406 132.65625 222.910156 C 137.507812 223.796875 143.667969 224.285156 149.996094 224.285156 C 156.328125 224.285156 162.484375 223.796875 167.339844 222.910156 C 169.902344 222.445312 171.671875 221.953125 172.878906 221.527344 C 170.589844 220.722656 166.539062 219.753906 160.027344 219.1875 C 158.03125 219.011719 156.550781 217.253906 156.726562 215.257812 C 156.902344 213.257812 158.660156 211.78125 160.65625 211.957031 C 166.21875 212.441406 171.015625 213.292969 174.53125 214.425781 C 176.53125 215.070312 178.078125 215.785156 179.257812 216.613281 C 181.644531 218.289062 182.144531 220.210938 182.144531 221.527344 C 182.144531 223.117188 181.421875 225.394531 177.972656 227.21875 C 176.253906 228.132812 173.890625 228.925781 170.957031 229.585938 C 165.316406 230.847656 157.875 231.542969 149.996094 231.542969 " fill-opacity="1" fill-rule="nonzero"/><path fill="#ffffff" d="M 149.996094 244.628906 C 129.886719 244.628906 110.933594 242.417969 96.628906 238.40625 C 89.460938 236.394531 83.773438 234.011719 79.726562 231.324219 C 74.785156 228.046875 72.28125 224.304688 72.28125 220.207031 C 72.28125 217.402344 73.472656 214.734375 75.828125 212.277344 C 77.757812 210.265625 80.515625 208.371094 84.023438 206.648438 C 90.492188 203.472656 99.6875 200.792969 110.609375 198.90625 C 112.585938 198.566406 114.464844 199.890625 114.804688 201.867188 C 115.144531 203.84375 113.820312 205.722656 111.84375 206.0625 C 88.144531 210.15625 79.539062 216.761719 79.539062 220.207031 C 79.539062 223.125 85.429688 227.722656 98.589844 231.414062 C 112.273438 235.253906 130.53125 237.371094 149.996094 237.371094 C 169.464844 237.371094 187.722656 235.253906 201.402344 231.414062 C 214.5625 227.722656 220.453125 223.125 220.453125 220.207031 C 220.453125 216.796875 211.957031 210.234375 188.546875 206.128906 C 186.574219 205.785156 185.253906 203.902344 185.601562 201.929688 C 185.945312 199.953125 187.828125 198.636719 189.800781 198.980469 C 200.613281 200.875 209.707031 203.546875 216.101562 206.714844 C 219.570312 208.429688 222.296875 210.320312 224.207031 212.320312 C 226.535156 214.765625 227.714844 217.417969 227.714844 220.207031 C 227.714844 224.304688 225.210938 228.046875 220.269531 231.324219 C 216.222656 234.011719 210.535156 236.394531 203.367188 238.40625 C 189.0625 242.417969 170.109375 244.628906 149.996094 244.628906 " fill-opacity="1" fill-rule="nonzero"/><g clip-path="url(#9f87f0223a)"><path fill="#ffffff" d="M 149.996094 44.460938 C 147.28125 44.460938 145.074219 46.667969 145.074219 49.382812 C 145.074219 49.457031 145.113281 51.242188 148.664062 56.347656 C 149.113281 56.992188 149.566406 57.613281 149.996094 58.191406 C 150.429688 57.613281 150.878906 56.992188 151.328125 56.347656 C 154.878906 51.242188 154.921875 49.457031 154.921875 49.382812 C 154.921875 46.667969 152.710938 44.460938 149.996094 44.460938 Z M 149.996094 67.644531 C 148.941406 67.644531 147.9375 67.1875 147.25 66.386719 C 147.15625 66.28125 144.964844 63.730469 142.742188 60.546875 C 138.324219 54.207031 137.8125 51.140625 137.8125 49.382812 C 137.8125 42.664062 143.28125 37.199219 149.996094 37.199219 C 156.714844 37.199219 162.179688 42.664062 162.179688 49.382812 C 162.179688 51.140625 161.667969 54.207031 157.25 60.546875 C 155.03125 63.730469 152.835938 66.28125 152.746094 66.386719 C 152.054688 67.1875 151.054688 67.644531 149.996094 67.644531 " fill-opacity="1" fill-rule="nonzero"/></g></svg>