<svg xmlns="http://www.w3.org/2000/svg" xmlns:xlink="http://www.w3.org/1999/xlink" width="400" zoomAndPan="magnify" viewBox="0 0 300 299.999988" height="400" preserveAspectRatio="xMidYMid meet" version="1.0"><path fill="#a9a0f0" d="M 62.289062 191.390625 C 63.671875 191.046875 66.230469 189.835938 70.722656 192.019531 C 71.898438 192.589844 73.160156 193.390625 74.558594 194.382812 C 88.75 204.617188 98.746094 206.960938 113.078125 206.628906 C 76.097656 202.085938 74.179688 184.851562 62.289062 191.390625 " fill-opacity="1" fill-rule="nonzero"/><path fill="#a9a0f0" d="M 220.796875 202.964844 C 202.742188 216.078125 185.109375 217.648438 163.597656 213.625 C 162.683594 213.449219 161.804688 213.21875 160.949219 213.03125 C 159.222656 212.640625 157.652344 212.285156 156.226562 211.753906 C 153.351562 210.75 150.945312 209.523438 148.8125 208.535156 C 146.691406 207.523438 144.84375 206.710938 143.238281 206.148438 C 140.019531 205.007812 137.84375 204.8125 136.570312 204.707031 C 135.277344 204.683594 134.84375 204.707031 134.84375 204.707031 C 134.84375 204.707031 134.996094 204.734375 135.34375 204.789062 C 135.683594 204.859375 136.222656 204.894531 136.960938 205.066406 C 138.449219 205.34375 140.777344 205.972656 143.984375 207.460938 C 145.585938 208.214844 147.398438 209.183594 149.519531 210.3125 C 151.648438 211.425781 154.09375 212.710938 157.085938 213.703125 C 160.09375 214.628906 163.425781 215.390625 167.21875 216.125 C 187.894531 219.421875 205.417969 216.90625 221.230469 203.375 C 222.242188 202.480469 223.960938 200.605469 224.875 199.625 C 224.875 199.625 224.386719 200.023438 223.175781 201.015625 C 222.5625 201.496094 221.835938 202.203125 220.796875 202.964844 " fill-opacity="1" fill-rule="nonzero"/><path fill="#a9a0f0" d="M 167.457031 210.96875 C 166.808594 210.859375 166.199219 210.757812 165.640625 210.664062 C 164.261719 210.46875 160.585938 209.667969 159.496094 209.488281 C 158.871094 209.386719 158.644531 209.378906 158.644531 209.378906 C 158.644531 209.378906 158.921875 209.523438 159.609375 209.832031 C 160.300781 210.132812 161.386719 210.640625 163.074219 211.175781 C 185.191406 218.453125 204.84375 206.839844 204.929688 206.8125 C 200.34375 207.757812 187.269531 213.3125 169.566406 211.238281 C 168.816406 211.140625 168.117188 211.054688 167.457031 210.96875 " fill-opacity="1" fill-rule="nonzero"/><path fill="#a9a0f0" d="M 80.234375 191.777344 C 76.800781 188.964844 72.472656 187.179688 67.292969 186.851562 C 66.929688 186.847656 66.59375 186.859375 66.28125 186.867188 C 63.914062 186.882812 62.609375 187.609375 62.53125 187.628906 C 73.507812 188.9375 76.476562 190.804688 84.476562 196.839844 C 84.378906 196.707031 83.582031 194.554688 80.234375 191.777344 " fill-opacity="1" fill-rule="nonzero"/><path fill="#a9a0f0" d="M 189.34375 168.183594 C 192.410156 168.121094 195.15625 168.296875 197.59375 168.59375 C 202.476562 169.167969 206.125 170.132812 208.832031 170.933594 C 211.535156 171.761719 213.3125 172.421875 214.417969 172.84375 C 215.523438 173.273438 215.984375 173.421875 215.984375 173.421875 C 215.984375 173.421875 215.570312 173.167969 214.519531 172.570312 C 213.46875 171.984375 211.753906 171.089844 209.054688 170.023438 C 206.355469 168.988281 202.65625 167.757812 197.628906 167.011719 C 164.160156 162.027344 148.222656 185.902344 148.136719 185.960938 C 148.136719 185.960938 148.507812 185.644531 149.367188 184.851562 C 161.523438 173.628906 175.628906 168.433594 189.34375 168.183594 " fill-opacity="1" fill-rule="nonzero"/><path fill="#a9a0f0" d="M 113.042969 159.019531 C 119.042969 158.578125 117.070312 158.667969 122.398438 158.597656 C 126.890625 158.808594 132.1875 159.113281 137.914062 160.464844 C 139.308594 160.804688 140.5 161 141.445312 161.289062 C 142.394531 161.558594 143.148438 161.769531 143.730469 161.929688 C 144.894531 162.242188 145.375 162.34375 145.375 162.34375 C 145.375 162.34375 144.929688 162.132812 143.804688 161.648438 C 143.238281 161.410156 142.507812 161.105469 141.578125 160.710938 C 140.648438 160.316406 139.464844 160 138.070312 159.539062 C 129.804688 156.910156 118.59375 155.878906 107.046875 158.03125 C 87.714844 161.667969 79.09375 170.621094 74.691406 174.394531 C 82.671875 169.09375 91.097656 162.839844 107.660156 159.8125 C 108.441406 159.628906 108.671875 159.617188 113.042969 159.019531 " fill-opacity="1" fill-rule="nonzero"/><path fill="#a9a0f0" d="M 228.300781 164.453125 C 227.671875 164.167969 227.292969 163.949219 227.019531 163.867188 C 226.757812 163.765625 226.644531 163.753906 226.644531 163.753906 C 226.644531 163.753906 226.707031 163.878906 226.898438 164.144531 C 227.089844 164.40625 227.394531 164.828125 227.949219 165.347656 C 232.738281 169.867188 240.875 170.511719 244.921875 167.71875 C 245.199219 167.527344 245.292969 167.425781 245.292969 167.425781 C 243.195312 167.234375 239.207031 169.441406 228.300781 164.453125 " fill-opacity="1" fill-rule="nonzero"/><path fill="#a9a0f0" d="M 151.539062 106.542969 C 152.433594 105.28125 152.929688 104.101562 153.214844 103.132812 C 153.488281 102.160156 153.578125 101.390625 153.574219 100.808594 C 153.578125 100.230469 153.503906 99.84375 153.441406 99.601562 C 153.378906 99.363281 153.328125 99.265625 153.328125 99.265625 C 153.328125 99.265625 153.261719 99.351562 153.148438 99.566406 C 153.039062 99.78125 152.886719 100.125 152.65625 100.625 C 152.1875 101.605469 151.558594 103.277344 149.96875 105.535156 C 148.191406 107.972656 146.296875 109.699219 145.867188 110.445312 C 145.757812 110.625 145.734375 110.714844 145.734375 110.714844 C 145.734375 110.714844 145.839844 110.710938 146.070312 110.660156 C 148.21875 110.195312 150.222656 108.375 151.539062 106.542969 " fill-opacity="1" fill-rule="nonzero"/><path fill="#a9a0f0" d="M 185.933594 149.8125 C 185.933594 149.8125 184.882812 149.410156 182.152344 150.660156 C 179.421875 151.910156 179.410156 153.070312 179.410156 153.070312 C 179.410156 153.070312 180.460938 153.472656 183.007812 152.3125 C 185.730469 151.078125 185.933594 149.8125 185.933594 149.8125 " fill-opacity="1" fill-rule="nonzero"/><path fill="#a9a0f0" d="M 178.730469 105.769531 C 178.730469 105.769531 178.789062 105.71875 178.890625 105.589844 C 178.988281 105.460938 179.121094 105.257812 179.300781 104.964844 C 179.652344 104.382812 180.113281 103.441406 180.949219 102.09375 C 181.863281 100.667969 182.507812 99.816406 182.851562 99.191406 C 183.023438 98.882812 183.132812 98.648438 183.191406 98.488281 C 183.246094 98.324219 183.257812 98.238281 183.257812 98.238281 C 183.257812 98.238281 183.179688 98.230469 183.015625 98.253906 C 182.851562 98.277344 182.589844 98.332031 182.242188 98.484375 C 181.5625 98.785156 180.40625 99.460938 179.328125 101.179688 C 178.277344 102.925781 178.265625 104.210938 178.367188 104.890625 C 178.484375 105.582031 178.730469 105.769531 178.730469 105.769531 " fill-opacity="1" fill-rule="nonzero"/><path fill="#a9a0f0" d="M 180.3125 124.089844 C 180.425781 124.226562 180.492188 124.265625 180.492188 124.265625 C 180.492188 124.265625 180.535156 124.1875 180.59375 124.003906 C 180.65625 123.820312 180.722656 123.535156 180.820312 123.132812 C 181.011719 122.324219 181.207031 121.035156 181.824219 119.140625 C 182.507812 117.132812 183.128906 115.941406 183.421875 115.128906 C 183.574219 114.722656 183.667969 114.433594 183.71875 114.238281 C 183.761719 114.042969 183.761719 113.941406 183.761719 113.941406 C 183.761719 113.941406 183.675781 113.960938 183.496094 114.042969 C 183.316406 114.128906 183.035156 114.277344 182.675781 114.566406 C 181.980469 115.140625 180.816406 116.277344 180.03125 118.640625 C 179.292969 121.015625 179.621094 122.542969 179.894531 123.320312 C 180.035156 123.71875 180.207031 123.953125 180.3125 124.089844 " fill-opacity="1" fill-rule="nonzero"/><path fill="#a9a0f0" d="M 43.960938 148.171875 C 42.652344 146.953125 42.03125 145.933594 41.503906 145.582031 C 41.386719 145.5 41.3125 145.472656 41.3125 145.472656 C 41.265625 145.613281 41.109375 145.859375 41.128906 146.421875 C 41.167969 148.300781 42.914062 150.289062 44.914062 150.746094 C 45.660156 150.90625 46.515625 150.910156 47.148438 150.480469 C 47.285156 150.386719 47.335938 150.320312 47.335938 150.320312 C 47.335938 150.320312 47.277344 150.269531 47.144531 150.1875 C 46.472656 149.777344 45.269531 149.335938 43.960938 148.171875 " fill-opacity="1" fill-rule="nonzero"/><path fill="#a9a0f0" d="M 128.335938 162.167969 C 119.882812 160.839844 109.445312 161.640625 98.730469 165.535156 C 98.175781 165.765625 97.664062 165.984375 97.183594 166.179688 C 96.222656 166.574219 95.441406 166.976562 94.78125 167.3125 C 93.183594 168.097656 92.433594 168.675781 91.59375 169.265625 C 92.597656 168.945312 94.140625 168.460938 95.613281 167.976562 C 106.867188 164.457031 115.449219 162.914062 128.3125 163.101562 C 129.917969 163.105469 131 163.113281 131.679688 163.117188 C 132.359375 163.105469 132.636719 163.070312 132.636719 163.070312 C 132.636719 163.070312 132.371094 162.988281 131.703125 162.824219 C 131.035156 162.65625 129.96875 162.402344 128.335938 162.167969 " fill-opacity="1" fill-rule="nonzero"/><path fill="#a9a0f0" d="M 88.582031 197.253906 C 88.664062 197.273438 97.042969 202.933594 108.132812 200.957031 C 108.988281 200.800781 109.546875 200.621094 109.894531 200.496094 C 110.246094 200.375 110.378906 200.296875 110.378906 200.296875 C 110.378906 200.296875 110.230469 200.257812 109.863281 200.207031 C 109.5 200.15625 108.921875 200.097656 108.0625 200.027344 C 106.351562 199.859375 103.519531 199.757812 99.089844 199.070312 C 94.675781 198.335938 92.109375 197.683594 90.578125 197.441406 C 89.808594 197.320312 89.320312 197.25 89.011719 197.242188 C 88.699219 197.230469 88.582031 197.253906 88.582031 197.253906 " fill-opacity="1" fill-rule="nonzero"/><path fill="#a9a0f0" d="M 188 206.457031 C 189.203125 205.808594 189.652344 205.304688 189.734375 205.238281 C 189.734375 205.238281 189.59375 205.242188 189.261719 205.289062 C 188.933594 205.335938 188.421875 205.4375 187.664062 205.589844 C 175.617188 207.84375 178.933594 206.597656 170.160156 207.484375 C 170.160156 207.484375 170.277344 207.554688 170.578125 207.683594 C 170.878906 207.8125 171.359375 208.003906 172.089844 208.195312 C 176.878906 209.4375 183.332031 208.9375 188 206.457031 " fill-opacity="1" fill-rule="nonzero"/><path fill="#a9a0f0" d="M 259.261719 141.789062 C 259.589844 142.5 259.855469 142.746094 259.855469 142.746094 C 259.867188 142.664062 260.875 140.984375 259.699219 137.429688 C 258.425781 133.742188 256.675781 133.570312 256.59375 133.503906 C 256.59375 133.503906 256.585938 133.835938 256.785156 134.558594 C 256.875 134.886719 258.875 140.984375 259.261719 141.789062 " fill-opacity="1" fill-rule="nonzero"/><path fill="#a9a0f0" d="M 122.246094 123.472656 C 122.28125 123.628906 122.3125 123.707031 122.3125 123.707031 C 122.3125 123.707031 122.378906 123.6875 122.507812 123.605469 C 122.636719 123.523438 122.835938 123.382812 123.050781 123.105469 C 123.273438 122.832031 123.503906 122.421875 123.667969 121.828125 C 123.828125 121.234375 123.898438 120.453125 123.699219 119.53125 C 123.492188 118.609375 123.09375 117.941406 122.707031 117.496094 C 122.3125 117.050781 121.917969 116.820312 121.617188 116.703125 C 121.320312 116.574219 121.082031 116.578125 120.941406 116.582031 C 120.800781 116.589844 120.734375 116.621094 120.734375 116.621094 C 121.203125 118.519531 121.589844 117.085938 122.167969 122.796875 C 122.195312 123.097656 122.21875 123.320312 122.246094 123.472656 " fill-opacity="1" fill-rule="nonzero"/><path fill="#a9a0f0" d="M 247 171.859375 C 252.273438 164.667969 253.589844 154.617188 252.0625 148.589844 C 256.308594 149.703125 260.9375 148.261719 263.636719 145.21875 C 263.164062 156.722656 256.816406 166.675781 247 171.859375 Z M 230.8125 175.359375 C 230.695312 175.261719 225.199219 168.285156 213.152344 163.316406 C 212.183594 162.921875 211.191406 162.542969 210.191406 162.210938 C 210.074219 161.722656 209.929688 161.238281 209.777344 160.75 C 216.402344 163.488281 224.398438 162.9375 231.164062 160.984375 C 237.324219 159.207031 244.679688 155.765625 248.746094 150.46875 C 249.019531 150.648438 249.222656 150.628906 249.371094 150.476562 C 249.796875 153.445312 250.261719 156.382812 249.742188 159.566406 C 248.375 167.9375 243.855469 172.460938 243.824219 173.3125 C 239.75 174.90625 235.320312 175.648438 230.8125 175.359375 Z M 221.742188 209.300781 C 202.773438 221.234375 174.613281 223.492188 155.339844 217.230469 C 150.441406 215.644531 146.164062 212.714844 141.5625 210.488281 C 139.199219 209.34375 136.835938 208.558594 134.292969 207.929688 C 127.984375 206.367188 132.003906 200.734375 135.15625 198.304688 C 138.3125 195.875 140.417969 191.578125 142.179688 188.0625 C 153.121094 166.238281 186.339844 157.671875 207.605469 164.214844 C 237.007812 172.730469 239.484375 198.136719 221.742188 209.300781 Z M 127.609375 200.582031 C 127.378906 200.882812 127.179688 201.199219 127.011719 201.519531 C 122.785156 202.890625 119.066406 203.226562 116.359375 203.28125 C 113.726562 203.324219 111.832031 203.089844 110.941406 203.015625 C 110.941406 203.015625 113.03125 203.890625 116.296875 204.332031 C 118.082031 204.570312 120.320312 204.699219 122.925781 204.425781 C 124.03125 204.3125 125.203125 204.121094 126.421875 203.839844 C 126.40625 204.464844 126.507812 205.078125 126.710938 205.652344 C 122.320312 206.878906 118.703125 206.953125 117.972656 207.035156 C 118.054688 207.046875 122.140625 208.761719 127.894531 207.492188 C 127.980469 207.578125 128.070312 207.660156 128.164062 207.738281 C 125.839844 207.820312 108.757812 212.476562 88.679688 205.582031 C 81.773438 203.210938 76.363281 198.835938 69.945312 195.578125 C 63.671875 192.386719 52.425781 193.753906 64.097656 184.445312 C 70.898438 179.023438 72.613281 170.484375 85.117188 162.226562 C 111.695312 144.6875 148.960938 151.234375 159.878906 167.347656 C 144.890625 175.4375 142.828125 180.699219 138.21875 189.9375 C 135.820312 194.738281 130.800781 196.507812 127.609375 200.582031 Z M 65.84375 175.070312 C 48.117188 168.53125 34.6875 151.28125 41.472656 141.40625 C 43.453125 138.523438 46.554688 137.300781 49.71875 136.207031 C 49.863281 136.195312 50.011719 136.183594 50.160156 136.183594 C 43.019531 145.394531 50.386719 166.101562 68.59375 174.386719 C 68.296875 174.828125 67.996094 175.265625 67.71875 175.71875 C 67.320312 175.644531 66.917969 175.574219 66.519531 175.507812 C 66.34375 175.324219 66.121094 175.171875 65.84375 175.070312 Z M 59.507812 113.816406 C 54.386719 117.03125 50.679688 121.070312 49.59375 126.972656 C 49.183594 129.203125 49.265625 131.636719 49.835938 134.046875 C 46.988281 134.304688 42.25 136.695312 39.644531 140.21875 C 41.195312 128.664062 49.410156 118.945312 59.507812 113.816406 Z M 153.558594 141.546875 C 158.109375 137.558594 159.460938 136.667969 160.511719 135.652344 C 160.886719 135.292969 161.128906 135.03125 161.273438 134.847656 C 161.414062 134.664062 161.460938 134.566406 161.460938 134.566406 C 161.460938 134.566406 161.363281 134.5625 161.132812 134.589844 C 160.90625 134.621094 160.546875 134.679688 160.039062 134.84375 C 156.761719 135.929688 153.445312 138.804688 152.097656 141.28125 C 143.007812 139.707031 133.683594 140.136719 124.519531 139.175781 C 127.375 137.664062 129.632812 133.632812 129.292969 130.257812 C 138.101562 132.722656 144.316406 131.523438 153.492188 132.632812 C 168.9375 134.507812 185.582031 143.375 197.269531 159.480469 C 193.351562 159.117188 189.402344 159.128906 185.503906 159.519531 C 185.15625 159.554688 184.804688 159.605469 184.453125 159.648438 C 178.21875 150.203125 164.648438 143.746094 153.558594 141.546875 Z M 90.125 122.007812 C 90.34375 123.441406 90.304688 124.621094 90.203125 125.570312 C 89.996094 127.371094 89.738281 128.234375 89.609375 128.941406 C 77.789062 125.519531 63.230469 124.929688 54.160156 132.976562 C 62.273438 120 74.316406 115.273438 87.945312 116.34375 C 88.027344 116.480469 88.121094 116.628906 88.21875 116.808594 C 88.757812 117.765625 89.691406 119.316406 90.125 122.007812 Z M 105.027344 133.800781 C 105.304688 133.65625 105.738281 133.390625 106.292969 132.875 C 106.835938 132.355469 107.519531 131.570312 108.097656 130.351562 C 108.667969 129.140625 109.160156 127.453125 108.9375 125.347656 C 108.734375 123.574219 108.105469 122.226562 107.433594 121.234375 C 114.480469 124.105469 121.105469 127.800781 128.292969 129.972656 C 126.132812 136.316406 124.777344 136.847656 123.65625 139.074219 C 120.578125 138.71875 117.515625 138.207031 114.492188 137.375 C 106.214844 135.113281 98.234375 131.480469 89.976562 129.050781 C 90.863281 128.222656 91.425781 126.992188 91.761719 125.820312 C 92.054688 124.746094 92.222656 123.332031 91.949219 121.636719 C 91.671875 119.941406 91.066406 118.679688 90.464844 117.789062 C 90.304688 117.574219 90.15625 117.375 90.015625 117.183594 C 89.863281 117.003906 89.707031 116.851562 89.566406 116.707031 C 89.484375 116.613281 89.394531 116.542969 89.3125 116.464844 C 94.078125 116.96875 99.027344 118.160156 104.058594 119.941406 C 104.347656 120.042969 104.628906 120.15625 104.917969 120.261719 C 105.230469 120.683594 105.570312 121.191406 105.910156 121.820312 C 106.414062 122.789062 106.933594 124.042969 107.09375 125.636719 C 107.257812 127.332031 106.957031 128.730469 106.617188 129.8125 C 106.269531 130.90625 105.867188 131.707031 105.546875 132.308594 C 105.210938 132.910156 104.972656 133.320312 104.824219 133.589844 C 104.671875 133.851562 104.621094 133.984375 104.621094 133.984375 C 104.621094 133.984375 104.742188 133.945312 105.027344 133.800781 Z M 54.746094 159.34375 C 49.210938 151.65625 49.0625 145.144531 51.816406 137.273438 C 51.996094 137.292969 52.171875 137.257812 52.332031 137.148438 C 57.554688 145.699219 73.777344 156.992188 82.953125 159.859375 C 77.957031 163.285156 73.421875 167.777344 69.980469 172.421875 C 66.59375 169.753906 60.878906 167.140625 55.597656 160.46875 C 57.046875 160.707031 59.234375 160.796875 62.203125 159.867188 C 64.117188 159.25 65.542969 158.402344 66.585938 157.601562 C 69.335938 155.457031 69.667969 153.78125 69.71875 153.699219 C 67.03125 154.78125 66.152344 158.066406 54.746094 159.34375 Z M 88.042969 156.808594 C 87.21875 157.238281 86.402344 157.691406 85.601562 158.167969 C 77.566406 153.925781 71.996094 152.355469 64.527344 145.964844 C 71.0625 144.515625 76.617188 137.742188 76.894531 131.652344 C 76.964844 130.71875 76.878906 130.089844 76.824219 129.707031 C 76.765625 129.320312 76.714844 129.164062 76.714844 129.164062 C 75.785156 130.660156 75.65625 138.78125 63.890625 145.402344 C 60.410156 142.359375 57.242188 139.046875 53.707031 136.015625 C 66.757812 125.488281 81.542969 128.796875 96.121094 133.582031 C 99.703125 148.402344 91.113281 153.101562 87.582031 156.929688 C 87.582031 156.929688 87.726562 156.898438 88.042969 156.808594 Z M 152.941406 150.5625 C 151.421875 152.261719 150.679688 153.75 150.296875 154.898438 C 143.113281 151.734375 134.703125 150.429688 126.859375 149.984375 C 128.371094 147 128.902344 146.941406 131.066406 143.894531 C 131.066406 143.894531 130.988281 143.871094 130.8125 143.875 C 130.640625 143.875 130.363281 143.894531 129.980469 144.007812 C 129.238281 144.238281 127.910156 144.820312 126.671875 146.609375 C 125.761719 148 125.5625 149.140625 125.574219 149.917969 C 114.015625 149.394531 101.835938 150.65625 91.183594 155.324219 C 99.101562 150.214844 100.539062 139.226562 96.554688 133.726562 C 103.40625 135.988281 110.207031 138.550781 116.753906 140.132812 C 129.039062 143.097656 141.84375 141.371094 154.136719 144.152344 C 169.363281 147.597656 175.941406 154.882812 182.035156 159.96875 C 175.574219 160.957031 169.300781 162.863281 163.375 165.609375 C 160.601562 161.0625 156.386719 157.800781 151.539062 155.46875 C 154.929688 150.09375 158.371094 148.523438 160.394531 146.574219 C 160.394531 146.574219 156.703125 146.449219 152.941406 150.5625 Z M 85.820312 108.527344 C 102.835938 108.644531 121.375 114.382812 133.226562 120.941406 C 135.03125 121.9375 136.78125 123.195312 138.636719 124.167969 C 137.324219 124.257812 136.023438 124.363281 134.730469 124.496094 C 134.378906 124.535156 134.222656 125.113281 134.636719 125.171875 C 152.59375 127.644531 190.5625 128.613281 204.558594 157.488281 C 205.097656 158.613281 205.519531 159.773438 205.902344 160.9375 C 203.792969 160.40625 201.652344 160.015625 199.488281 159.730469 C 193.695312 150.691406 185.320312 143.070312 175.9375 137.917969 C 154.335938 126.050781 139.585938 133.257812 122.394531 125.574219 C 116.511719 122.945312 110.660156 120.230469 104.554688 118.148438 C 92.960938 114.203125 82.890625 113.6875 74.648438 115.464844 C 74.660156 115.4375 74.671875 115.414062 74.6875 115.375 C 74.746094 115.246094 74.8125 115.039062 74.824219 114.734375 C 74.851562 114.144531 74.730469 113.035156 73.644531 111.800781 C 72.527344 110.589844 71.453125 110.421875 70.902344 110.460938 C 70.328125 110.507812 70.148438 110.738281 70.148438 110.738281 C 70.148438 110.738281 70.179688 110.800781 70.257812 110.910156 C 70.335938 111.015625 70.464844 111.164062 70.640625 111.355469 C 70.996094 111.746094 71.566406 112.253906 72.316406 113.101562 C 73.09375 114.019531 73.542969 114.636719 73.9375 115.023438 C 74.132812 115.214844 74.289062 115.351562 74.40625 115.4375 C 74.445312 115.464844 74.46875 115.476562 74.496094 115.496094 C 63.195312 117.976562 55.359375 124.789062 51.855469 133.050781 C 52.183594 132.285156 51.453125 129.917969 51.492188 128.949219 C 51.679688 124.554688 53.726562 120.738281 56.859375 117.628906 C 59.996094 114.519531 63.914062 112.390625 68.144531 110.980469 C 73.839844 109.085938 80.109375 108.484375 85.820312 108.527344 Z M 95.191406 97.039062 C 95.21875 96.785156 95.503906 97.640625 96.273438 98.089844 C 112.027344 107.375 116.328125 101.375 170.75 122.320312 C 185.546875 128.015625 195.488281 136.160156 212.703125 142.289062 C 211.8125 143.527344 210.949219 146.3125 211.394531 149.957031 C 211.605469 151.636719 212.046875 152.957031 212.507812 153.960938 C 212.980469 154.960938 213.445312 155.671875 213.851562 156.15625 C 214.25 156.648438 214.578125 156.925781 214.792969 157.09375 C 215.003906 157.257812 215.113281 157.308594 215.113281 157.308594 C 215.113281 157.308594 215.101562 157.191406 215.039062 156.933594 C 214.96875 156.679688 214.84375 156.28125 214.667969 155.703125 C 214.332031 154.542969 213.628906 152.691406 213.226562 149.632812 C 212.816406 146.015625 213.097656 143.308594 212.796875 142.320312 C 223.382812 146.085938 234.863281 148.921875 246.066406 147.484375 C 246.140625 148.03125 246.328125 148.476562 246.792969 148.835938 C 246.875 148.898438 246.96875 148.949219 247.058594 149 C 241.746094 152.96875 237.230469 156.769531 230.539062 158.722656 C 223.554688 160.769531 216.953125 160.285156 209.835938 159.621094 C 209.675781 159.605469 209.546875 159.679688 209.449219 159.789062 C 198.839844 129.570312 160.816406 123.375 142.035156 124.011719 C 140.695312 122.398438 138.871094 121.066406 136.878906 119.90625 C 138.128906 119.671875 139.203125 118.90625 140.0625 117.988281 C 141.148438 116.785156 141.988281 114.988281 141.550781 113.648438 C 141.496094 113.488281 141.449219 113.417969 141.449219 113.417969 C 141.367188 113.5 141.34375 113.445312 140.777344 114.144531 C 136.972656 118.746094 137.007812 118.332031 136.386719 119.132812 C 136.277344 119.265625 136.199219 119.378906 136.136719 119.480469 C 126.328125 114.0625 108.429688 109.292969 99.597656 107.140625 C 100.523438 106.726562 101.023438 106.1875 101.273438 105.820312 C 101.429688 105.585938 101.496094 105.394531 101.53125 105.269531 C 101.5625 105.144531 101.5625 105.078125 101.5625 105.078125 C 101.5625 105.078125 101.503906 105.078125 101.382812 105.105469 C 101.265625 105.132812 101.085938 105.183594 100.835938 105.261719 C 100.339844 105.421875 99.597656 105.753906 98.394531 106.078125 C 97.714844 106.253906 97.1875 106.367188 96.773438 106.464844 C 95.261719 106.113281 94.386719 105.921875 94.386719 105.921875 C 94.042969 106.320312 93.832031 99.15625 95.191406 97.039062 Z M 114.636719 85.8125 C 113.9375 87.039062 113.003906 89.964844 110.605469 93.671875 C 108.277344 97.15625 107.273438 97.933594 105.953125 99.816406 C 102.140625 98.242188 97.179688 95.347656 97.136719 95.121094 C 96.632812 92.402344 102.996094 85.964844 114.636719 85.8125 Z M 133.804688 97.109375 C 133.804688 97.109375 133.519531 97.304688 132.996094 97.964844 C 132.933594 98.046875 127.914062 104.574219 127.773438 105.699219 C 121.675781 104.136719 112.136719 102.222656 106.5625 100.0625 C 111.714844 97.421875 115.574219 89.808594 114.753906 85.8125 C 135.261719 85.617188 160.136719 104.40625 176.421875 108.367188 C 184.320312 110.289062 194.4375 111.855469 204.585938 114.390625 C 204.546875 114.414062 204.511719 114.425781 204.46875 114.449219 C 203.003906 115.195312 200.503906 116.660156 197.925781 120.238281 C 196.566406 122.148438 195.796875 123.917969 195.335938 125.378906 C 194.152344 129.242188 194.800781 131.0625 194.796875 131.199219 C 195.933594 128.054688 196.035156 127.675781 196.828125 125.890625 C 197.421875 124.578125 198.242188 122.996094 199.503906 121.234375 C 202.070312 117.722656 204.125 116.125 205.207031 115.074219 C 205.371094 114.921875 205.511719 114.785156 205.644531 114.664062 C 214.796875 117.015625 223.917969 120.1875 231.410156 125.164062 C 231.40625 125.167969 231.40625 125.167969 231.40625 125.171875 C 226.859375 128.242188 222.75 133.835938 221.472656 139.496094 C 221.160156 140.925781 221.246094 141.707031 221.246094 141.789062 C 221.246094 141.789062 221.335938 141.667969 221.515625 141.355469 C 222.5625 139.546875 223.898438 136.425781 226.875 132.242188 C 229.441406 128.734375 231.25 126.894531 232.203125 125.714844 C 238.960938 130.394531 244.546875 136.859375 246.886719 144.777344 C 246.875 144.785156 246.871094 144.800781 246.859375 144.808594 C 216.890625 148.019531 189.269531 127.464844 171.261719 120.484375 C 158.269531 115.445312 141.996094 109.363281 127.9375 105.746094 C 130.09375 105.242188 133.4375 101.605469 133.863281 98.324219 C 133.964844 97.453125 133.804688 97.109375 133.804688 97.109375 Z M 136.535156 80.386719 C 137.296875 82.707031 137.136719 83.457031 135.480469 85.109375 C 135.273438 85.292969 135.117188 85.433594 135.007812 85.535156 C 134.894531 85.632812 134.84375 85.699219 134.84375 85.699219 C 134.847656 85.683594 135.023438 85.953125 135.738281 86.003906 C 136.09375 86.015625 136.589844 85.953125 137.148438 85.632812 C 137.699219 85.320312 138.359375 84.722656 138.65625 83.6875 C 139.019531 82.324219 138.480469 81.058594 137.652344 80.476562 C 146.546875 81.273438 155.078125 83.527344 161.976562 85.882812 C 161.976562 85.917969 161.976562 85.945312 161.980469 86 C 161.988281 86.203125 162 86.511719 162.019531 86.945312 C 162.027344 87.375 162.011719 87.933594 161.90625 88.613281 C 161.785156 89.285156 161.566406 90.101562 161.050781 90.925781 C 160.496094 91.796875 159.820312 92.359375 159.242188 92.765625 C 158.660156 93.171875 158.152344 93.429688 157.75 93.625 C 157.351562 93.816406 157.0625 93.953125 156.867188 94.046875 C 156.675781 94.136719 156.59375 94.203125 156.59375 94.203125 C 156.59375 94.203125 156.667969 94.253906 156.867188 94.339844 C 157.074219 94.417969 157.40625 94.519531 157.925781 94.542969 C 158.441406 94.558594 159.15625 94.496094 160.019531 94.136719 C 160.867188 93.777344 161.898438 93.097656 162.675781 91.832031 C 163.445312 90.558594 163.554688 89.347656 163.480469 88.460938 C 163.398438 87.558594 163.117188 86.941406 162.867188 86.535156 C 162.742188 86.332031 162.613281 86.179688 162.503906 86.0625 C 170.4375 88.808594 176.105469 91.640625 177.5 92.402344 C 176.859375 92.398438 176.21875 92.40625 175.582031 92.449219 C 175.203125 92.472656 175.0625 92.949219 175.386719 93.160156 C 178.132812 94.929688 181.449219 95.734375 184.886719 96.089844 C 185.078125 96.164062 185.230469 96.234375 185.511719 96.148438 C 193.605469 96.859375 203.164062 95.257812 215.289062 98.125 C 238.472656 103.605469 256.984375 121.339844 249.777344 143.683594 C 249.566406 143.621094 249.347656 143.597656 249.125 143.605469 C 247.566406 137.867188 243.355469 132.371094 239.023438 128.242188 C 239.925781 128.105469 241.285156 127.820312 243.347656 127.546875 C 245.695312 127.261719 247.183594 127.179688 248.113281 127.015625 C 248.578125 126.933594 248.898438 126.859375 249.101562 126.792969 C 249.308594 126.726562 249.394531 126.671875 249.394531 126.671875 C 249.3125 126.644531 247.472656 125.144531 243.023438 125.714844 C 241.378906 125.945312 239.507812 126.488281 238.269531 127.535156 C 237.292969 126.644531 236.320312 125.8125 235.378906 125.082031 C 230.460938 121.246094 224.761719 118.207031 218.804688 115.792969 C 222.027344 113.398438 221.664062 112.164062 232.171875 107.261719 C 232.816406 106.96875 233.253906 106.769531 233.527344 106.625 C 233.800781 106.472656 233.90625 106.386719 233.90625 106.386719 C 233.90625 106.386719 233.78125 106.355469 233.472656 106.335938 C 233.160156 106.3125 232.660156 106.285156 231.925781 106.359375 C 231.1875 106.421875 230.210938 106.589844 228.96875 106.964844 C 223.363281 108.675781 219.1875 113.109375 218.621094 115.71875 C 213.550781 113.675781 208.300781 112.078125 203.191406 110.84375 C 200.589844 110.21875 198.0625 109.746094 195.582031 109.339844 C 195.703125 109.113281 195.859375 108.832031 196.054688 108.460938 C 196.355469 107.894531 196.773438 107.152344 197.339844 106.21875 C 197.90625 105.28125 198.65625 104.160156 199.730469 102.914062 C 201.894531 100.4375 203.464844 99.269531 204.308594 98.464844 C 204.726562 98.058594 205.007812 97.808594 205.15625 97.617188 C 205.3125 97.429688 205.351562 97.335938 205.351562 97.335938 C 205.351562 97.335938 205.234375 97.339844 204.960938 97.386719 C 204.6875 97.441406 204.253906 97.53125 203.65625 97.769531 C 202.472656 98.234375 200.46875 99.203125 198.25 101.777344 C 197.082031 103.152344 196.367188 104.453125 195.914062 105.542969 C 195.46875 106.636719 195.25 107.515625 195.167969 108.183594 C 195.097656 108.640625 195.089844 108.992188 195.097656 109.261719 C 185.480469 107.71875 176.582031 107.136719 167.046875 102.660156 C 166.597656 102.449219 128.523438 76.773438 107.53125 85.539062 C 116.4375 80.75 126.675781 79.644531 136.535156 80.386719 Z M 263.660156 144.285156 C 260.332031 147.039062 255.488281 147.816406 251.65625 146.171875 C 251.929688 145.796875 251.898438 145.273438 251.640625 144.875 C 257.09375 134.96875 256.003906 118.875 238.203125 106.222656 C 236.078125 104.707031 233.914062 103.25 231.625 102.011719 C 253.484375 111.316406 263.875 128.65625 263.660156 144.285156 Z M 267.519531 141.90625 C 264.746094 118.789062 247.113281 102.199219 225.363281 97.078125 C 210.707031 93.628906 196.101562 94.113281 184.070312 92.878906 C 169.699219 84.726562 151.019531 79.671875 150.726562 79.601562 C 125.308594 73.519531 89.449219 78.78125 91.300781 106.335938 C 85.496094 105.882812 74.226562 106.332031 68.476562 107.363281 C 47.820312 111.058594 30.15625 132.691406 38.867188 155.886719 C 45.046875 172.339844 64.1875 179.519531 66.203125 178.351562 C 65.347656 178.847656 64.441406 181.515625 63.75 182.339844 C 61.570312 184.96875 51.839844 188.871094 57.097656 193.984375 C 59.589844 196.410156 64.121094 195.808594 67.171875 197.234375 C 67.253906 197.273438 95.097656 219.246094 130.199219 210.179688 C 130.402344 210.128906 130.5 209.9375 130.613281 209.796875 C 142.417969 212.40625 146.382812 219.785156 162.808594 222.621094 C 185.269531 226.503906 221.042969 221.585938 233.445312 203.019531 C 237.921875 196.316406 238.804688 188.382812 232.949219 178.621094 C 252.449219 179.070312 269.832031 161.207031 267.519531 141.90625 " fill-opacity="1" fill-rule="nonzero"/><path fill="#a9a0f0" d="M 101.191406 115.113281 C 101.527344 115.433594 101.796875 115.554688 101.796875 115.554688 C 101.796875 115.554688 101.839844 115.511719 101.902344 115.40625 C 101.96875 115.300781 102.046875 115.128906 102.089844 114.871094 C 102.175781 114.371094 102.160156 113.421875 101.320312 112.316406 C 100.453125 111.230469 99.539062 111.050781 99.0625 111.078125 C 98.5625 111.121094 98.386719 111.339844 98.386719 111.339844 C 98.441406 111.421875 100.3125 114.308594 101.191406 115.113281 " fill-opacity="1" fill-rule="nonzero"/></svg>