<svg xmlns="http://www.w3.org/2000/svg" xmlns:xlink="http://www.w3.org/1999/xlink" width="400" zoomAndPan="magnify" viewBox="0 0 300 299.999988" height="400" preserveAspectRatio="xMidYMid meet" version="1.0"><path fill="#a9a0f0" d="M 262.585938 127.71875 C 259.488281 129.394531 253.878906 127.480469 257.644531 132.035156 C 255.253906 132.296875 252.929688 132.164062 250.535156 131.617188 C 249.890625 131.472656 249.351562 132.140625 249.679688 132.738281 C 250.082031 133.386719 250.398438 134.070312 250.644531 134.78125 C 246.628906 134.160156 238.183594 132.542969 238.28125 137.894531 C 238.074219 139.449219 238.585938 141.105469 239.769531 142.289062 C 242.542969 145.058594 247.4375 143.265625 250.378906 145.28125 C 249.128906 145.515625 248.035156 146.015625 246.902344 146.847656 C 246.433594 147.191406 246.46875 147.910156 247.0625 148.097656 C 251.132812 149.367188 254.449219 151.847656 256.945312 155.230469 C 256.140625 155.320312 255.335938 155.261719 254.53125 155.035156 C 253.835938 154.882812 253.273438 155.722656 253.816406 156.257812 C 256.519531 158.929688 258.570312 162.003906 260.023438 165.46875 C 259.871094 165.4375 259.699219 165.402344 259.460938 165.355469 C 258.820312 165.230469 258.351562 165.839844 258.640625 166.425781 C 259.84375 168.886719 260.558594 171.324219 260.859375 174 C 260.121094 173.765625 259.398438 173.640625 258.511719 173.617188 C 257.933594 173.601562 257.640625 174.238281 257.882812 174.714844 C 259.078125 177.066406 259.699219 179.558594 259.589844 182.160156 C 259.105469 181.84375 258.601562 181.605469 257.964844 181.402344 C 257.609375 181.292969 257.152344 181.601562 257.1875 181.992188 C 257.433594 184.566406 257.554688 187.203125 257.863281 189.792969 C 256.960938 188.363281 255.785156 187.152344 254.304688 186.097656 C 253.785156 185.730469 253.074219 186.222656 253.078125 186.800781 C 253.078125 187.078125 253.078125 187.359375 253.078125 187.640625 C 250.503906 185.304688 247.746094 183.242188 244.734375 181.464844 C 244.1875 181.140625 243.511719 181.558594 243.5 182.171875 C 243.480469 182.828125 243.464844 183.488281 243.449219 184.144531 C 240.425781 182.160156 236.953125 181.113281 233.507812 179.976562 C 232.5625 179.664062 232.226562 180.804688 231.386719 184.144531 C 229.121094 182.824219 227.535156 180.945312 226.542969 178.398438 C 226.332031 177.855469 225.625 177.542969 225.167969 178.035156 C 224.398438 178.863281 223.738281 179.707031 223.117188 180.613281 C 219.136719 175.300781 221.140625 171.117188 218.246094 173.699219 C 216.722656 169.8125 216.390625 162.152344 211.277344 162.535156 C 205.082031 162.992188 208.886719 172.148438 209.304688 176.160156 C 208.824219 175.933594 208.34375 175.703125 207.863281 175.476562 C 207.210938 175.167969 206.546875 175.675781 206.679688 176.386719 C 207.214844 179.195312 207.234375 181.867188 206.792969 184.644531 C 206.03125 184.25 205.265625 184.007812 204.316406 183.863281 C 202.707031 183.621094 203.902344 185.207031 201.589844 190.621094 C 199.921875 188.214844 198.183594 185.859375 196.460938 183.492188 C 196.164062 183.082031 195.464844 182.828125 195.074219 183.3125 C 194.855469 183.589844 194.632812 183.867188 194.414062 184.144531 C 192.164062 178.554688 194.152344 177.261719 190 179.574219 C 189.867188 177.308594 190.15625 175.148438 190.898438 172.925781 C 191.128906 172.234375 190.410156 171.617188 189.757812 171.78125 C 189.347656 171.886719 188.984375 172.007812 188.652344 172.148438 C 189.296875 169.761719 190.257812 167.523438 191.578125 165.359375 C 191.929688 164.785156 191.484375 163.902344 190.769531 163.953125 C 190.121094 164.003906 189.472656 164.054688 188.824219 164.101562 C 191.296875 159.652344 189.875 155.308594 185.988281 157.3125 L 185.773438 156.996094 C 183.460938 158.601562 183.253906 159.296875 180.207031 161.847656 C 180.234375 161.828125 179.660156 158.628906 179.667969 158.382812 C 178.179688 158.964844 176.703125 159.699219 175.261719 160.386719 C 176.292969 159.046875 178.894531 154.566406 177.207031 154.617188 C 176.785156 154.523438 176.359375 154.429688 175.933594 154.339844 C 176.480469 154.457031 179.414062 150.972656 179.921875 150.496094 C 180.917969 149.550781 181.890625 148.6875 183.269531 148.351562 C 181.855469 147.761719 180.683594 147.621094 179.496094 146.632812 C 180.921875 145.804688 182.195312 144.859375 183.4375 143.714844 C 183.871094 143.316406 183.679688 142.699219 183.265625 142.394531 C 182.902344 142.128906 182.535156 141.878906 182.214844 141.574219 C 183.746094 140.605469 185.917969 137.992188 194.011719 137.027344 C 196.207031 136.765625 198.753906 136.726562 201.171875 136.390625 C 197.621094 138.691406 194.214844 141.398438 190.875 143.78125 C 187.449219 146.226562 184.398438 148.601562 182.699219 152.566406 C 182.640625 152.703125 182.832031 152.832031 182.90625 152.6875 C 186.613281 145.625 198.839844 141.441406 206.449219 134.722656 C 206.464844 134.714844 206.480469 134.707031 206.492188 134.695312 C 205.472656 135.386719 204.613281 138.648438 204.066406 140.242188 L 204.007812 140.242188 C 204.011719 140.285156 204.019531 140.324219 204.023438 140.371094 C 203.738281 141.164062 202.644531 143.640625 201.285156 147.792969 C 197.164062 149.589844 193.929688 152.304688 191.453125 156.105469 C 194.121094 153.359375 196.847656 151.113281 200.8125 149.292969 C 200.171875 151.378906 199.613281 153.488281 199.160156 155.621094 C 198.84375 157.140625 198.570312 158.675781 198.371094 160.21875 C 198.0625 162.585938 197.929688 165.015625 197.882812 167.441406 L 197.539062 167.378906 C 197.066406 170.152344 196.015625 172.210938 195.207031 173.546875 C 194.792969 174.214844 194.429688 174.710938 194.183594 175.046875 C 193.933594 175.375 193.800781 175.554688 193.800781 175.554688 C 193.800781 175.554688 193.980469 175.417969 194.316406 175.171875 C 194.640625 174.902344 195.117188 174.496094 195.664062 173.886719 C 196.363281 173.109375 197.203125 171.957031 197.867188 170.421875 C 197.871094 171.007812 197.871094 171.597656 197.886719 172.179688 C 197.953125 175.328125 199.035156 178.734375 199.648438 181.828125 C 199.84375 182.824219 200.042969 183.820312 200.320312 184.800781 C 200.460938 185.304688 200.699219 185.878906 201.203125 186.015625 C 201.335938 184.1875 200.632812 182.527344 200.3125 180.734375 C 199.015625 173.414062 198.582031 165.867188 199.976562 158.53125 C 200.199219 159.121094 200.429688 159.675781 200.671875 160.179688 C 201.277344 161.433594 201.898438 162.445312 202.417969 163.246094 C 203.46875 164.847656 204.117188 165.65625 204.117188 165.65625 C 204.117188 165.65625 203.707031 164.703125 202.921875 162.972656 C 202.234375 161.375 201.128906 159.113281 200.5 156.167969 C 201.300781 153.078125 202.464844 150.121094 203.457031 147.082031 C 203.867188 145.824219 204.273438 144.558594 204.695312 143.296875 C 204.996094 144.101562 205.355469 144.828125 205.707031 145.484375 C 206.476562 146.875 207.292969 147.957031 207.996094 148.792969 C 208.703125 149.628906 209.304688 150.21875 209.726562 150.59375 C 210.148438 150.972656 210.378906 151.152344 210.378906 151.152344 C 210.378906 151.152344 210.199219 150.921875 209.855469 150.476562 C 209.515625 150.027344 209.03125 149.351562 208.457031 148.453125 C 207.886719 147.550781 207.214844 146.417969 206.582031 145.039062 C 206.109375 143.972656 205.613281 142.742188 205.363281 141.382812 C 206.015625 139.585938 206.738281 137.816406 207.621094 136.113281 C 207.648438 136.054688 207.96875 135.277344 208.074219 135.335938 C 211.25 137.113281 213.4375 137.46875 220.066406 143.710938 C 220.5 144.117188 220.914062 144.515625 221.335938 144.914062 C 221.816406 146.039062 221.9375 147.28125 221.957031 148.46875 C 221.964844 149.761719 221.921875 151.007812 221.867188 152.15625 C 221.757812 154.453125 221.558594 156.414062 221.359375 158.007812 C 221.160156 159.601562 220.964844 160.828125 220.828125 161.65625 C 220.6875 162.484375 220.617188 162.914062 220.617188 162.914062 C 220.617188 162.914062 220.761719 162.503906 221 161.695312 C 221.246094 160.890625 221.578125 159.6875 221.925781 158.105469 C 222.269531 156.519531 222.617188 154.554688 222.851562 152.226562 C 222.960938 151.0625 223.058594 149.820312 223.082031 148.464844 C 223.089844 147.839844 223.074219 147.175781 222.984375 146.492188 C 228.125 151.4375 232.238281 155.710938 235.589844 159.417969 L 235.347656 159.519531 C 237.027344 163.492188 236.960938 167.085938 236.65625 169.421875 C 236.496094 170.605469 236.265625 171.503906 236.105469 172.113281 C 235.925781 172.714844 235.832031 173.03125 235.832031 173.03125 C 235.832031 173.03125 235.992188 172.746094 236.273438 172.175781 C 236.535156 171.597656 236.910156 170.726562 237.21875 169.53125 C 237.519531 168.339844 237.769531 166.824219 237.730469 165.03125 C 237.699219 163.859375 237.539062 162.5625 237.183594 161.203125 C 239.472656 163.804688 241.375 166.109375 243.003906 168.167969 L 243 168.175781 C 243.007812 168.175781 243.011719 168.179688 243.019531 168.183594 C 247.765625 174.1875 250.179688 178.105469 252.984375 181.097656 C 254.074219 182.257812 252.941406 178.519531 245.972656 169.5 C 246.621094 169.664062 247.246094 169.765625 247.816406 169.84375 C 249.261719 170.015625 250.472656 170.070312 251.46875 170.136719 C 253.453125 170.242188 254.535156 170.242188 254.535156 170.242188 C 254.535156 170.242188 253.488281 169.964844 251.542969 169.566406 C 250.5625 169.375 249.371094 169.144531 247.980469 168.871094 C 246.90625 168.640625 245.707031 168.339844 244.589844 167.742188 C 241.523438 163.902344 237.507812 159.226562 232.300781 153.683594 C 231.769531 153.113281 231.230469 152.539062 230.691406 151.960938 C 231.945312 152.246094 233.136719 152.3125 234.195312 152.289062 C 235.792969 152.246094 237.128906 152.007812 238.199219 151.789062 C 239.269531 151.566406 240.078125 151.34375 240.621094 151.191406 C 241.164062 151.035156 241.449219 150.949219 241.449219 150.949219 C 241.449219 150.949219 240.265625 151.046875 238.121094 151.222656 C 237.042969 151.296875 235.726562 151.378906 234.207031 151.304688 C 232.695312 151.226562 230.96875 150.988281 229.242188 150.234375 L 229.191406 150.347656 C 225.371094 146.238281 221.351562 142.039062 216.863281 138.601562 C 217.433594 138.589844 217.984375 138.53125 218.492188 138.457031 C 219.660156 138.296875 220.699219 138.03125 221.695312 137.832031 C 223.675781 137.410156 225.363281 137.023438 226.730469 136.699219 C 229.464844 136.046875 230.925781 135.632812 230.925781 135.632812 C 230.925781 135.632812 229.402344 135.769531 226.621094 136.136719 C 225.230469 136.316406 223.523438 136.554688 221.535156 136.863281 C 220.542969 137 219.472656 137.21875 218.347656 137.339844 C 217.238281 137.460938 216.0625 137.515625 214.992188 137.148438 L 214.96875 137.21875 C 213.195312 135.992188 211.351562 134.886719 209.414062 133.972656 C 214.339844 132.335938 218.449219 130.011719 231.03125 127.417969 C 232.074219 127.203125 233.121094 126.992188 234.171875 126.796875 C 237.433594 127.257812 240.074219 127.507812 241.902344 127.652344 C 242.863281 127.734375 243.585938 127.875 244.0625 128.027344 C 244.546875 128.175781 244.785156 128.296875 244.785156 128.296875 C 244.785156 128.296875 244.585938 128.117188 244.132812 127.867188 C 243.6875 127.609375 242.960938 127.320312 241.996094 127.089844 C 240.847656 126.820312 239.375 126.507812 237.621094 126.183594 C 244.027344 125.105469 250.570312 124.394531 256.996094 124.324219 C 259.117188 124.296875 247.128906 123.300781 233.871094 125.539062 C 233.839844 125.535156 233.804688 125.527344 233.769531 125.523438 L 233.765625 125.558594 C 232.945312 125.699219 232.121094 125.847656 231.296875 126.015625 C 228.441406 126.582031 225.503906 127.300781 222.707031 128.066406 C 224.761719 125.277344 225.980469 122.742188 226.710938 120.925781 C 227.125 119.898438 227.386719 119.089844 227.554688 118.539062 C 227.710938 117.984375 227.792969 117.699219 227.792969 117.699219 C 227.792969 117.699219 227.652344 117.960938 227.390625 118.46875 C 227.125 118.976562 226.734375 119.726562 226.195312 120.679688 C 225.117188 122.578125 223.464844 125.296875 220.957031 128.378906 L 221.121094 128.511719 C 215.746094 130.042969 211.117188 131.679688 209.046875 132.648438 C 210.1875 130.214844 211.347656 127.800781 212.59375 125.457031 C 215.3125 122.554688 217.863281 120.628906 219.660156 119.382812 C 220.5625 118.757812 221.285156 118.304688 221.769531 117.996094 C 222.257812 117.695312 222.515625 117.535156 222.515625 117.535156 C 222.515625 117.535156 222.230469 117.640625 221.6875 117.839844 C 221.152344 118.050781 220.359375 118.378906 219.363281 118.890625 C 218.046875 119.566406 216.339844 120.582031 214.507812 122.066406 C 217.890625 116.425781 222.054688 111.414062 228.101562 107.929688 C 228.234375 107.851562 228.117188 107.667969 227.988281 107.726562 C 218.835938 111.953125 213.25 120.667969 208.917969 129.492188 C 208.789062 125.191406 206.601562 121.007812 209.953125 117.324219 C 210.3125 118.121094 210.753906 118.851562 211.320312 119.585938 C 211.726562 120.109375 212.613281 119.65625 212.59375 119.054688 C 212.515625 116.097656 213.195312 113.574219 214.667969 111.183594 C 214.734375 111.34375 214.808594 111.519531 214.90625 111.75 C 215.171875 112.382812 216.269531 112.210938 216.390625 111.558594 C 216.953125 108.503906 218.417969 106.054688 220.820312 104.25 C 220.964844 105.019531 221.144531 105.773438 221.386719 106.558594 C 221.625 107.316406 222.519531 107.335938 222.953125 106.761719 C 226.558594 102.007812 230.429688 103.0625 232.023438 102.695312 C 233.523438 102.351562 234.894531 101.566406 236.128906 100.632812 C 236.136719 102.265625 235.542969 103.699219 234.335938 105.007812 C 233.851562 105.527344 234.175781 106.460938 234.933594 106.445312 C 235.414062 106.4375 235.894531 106.429688 236.375 106.417969 C 234.152344 108.988281 230.628906 113.140625 233.863281 115.59375 C 236.9375 117.929688 240.582031 113.980469 243.441406 111.820312 C 243.296875 112.296875 243.164062 112.78125 243.058594 113.285156 C 242.917969 113.960938 243.628906 114.632812 244.277344 114.222656 C 246.6875 112.707031 249.207031 111.933594 251.925781 111.835938 C 250.757812 113.277344 249.789062 116.082031 251.65625 115.796875 C 253.582031 115.496094 255.375 115.636719 257.113281 116.191406 C 256.773438 116.386719 256.4375 116.621094 256.078125 116.914062 C 255.441406 117.429688 256.015625 118.359375 256.699219 118.40625 C 259.445312 118.582031 261.90625 118.890625 263.875 121.023438 C 265.03125 122.269531 266.050781 123.738281 266.890625 125.257812 C 264.804688 125.464844 264.050781 126.929688 262.585938 127.71875 Z M 209.65625 164.988281 C 210.070312 164.066406 210.980469 163.695312 212.738281 164.488281 C 214.425781 165.257812 214.84375 167.597656 215.160156 169.511719 C 214.382812 168.398438 213.570312 167.433594 212.753906 166.664062 C 212.605469 166.519531 212.441406 166.453125 212.277344 166.421875 C 212.265625 166.410156 212.253906 166.398438 212.242188 166.390625 C 211.445312 165.746094 210.617188 165.238281 209.65625 164.988281 Z M 193.964844 203.5 C 193.59375 203.148438 196.917969 196.710938 192.558594 186.660156 C 191.917969 185.183594 190.945312 183.867188 189.832031 182.699219 C 189.34375 182.191406 186.359375 180.375 186.28125 179.921875 C 186.039062 178.425781 186.117188 176.625 186.53125 174.714844 C 187.113281 175.492188 187.757812 174.910156 188.550781 174.480469 C 188.070312 176.714844 188.019531 178.929688 188.347656 181.285156 C 188.433594 181.882812 189.230469 182.082031 189.679688 181.824219 C 190.308594 181.472656 190.929688 181.117188 191.558594 180.761719 C 191.960938 182.683594 192.566406 184.480469 193.421875 186.28125 C 193.648438 186.761719 194.46875 186.886719 194.808594 186.460938 C 195.09375 186.101562 195.378906 185.746094 195.667969 185.386719 C 197.476562 187.878906 199.277344 190.378906 201.175781 192.800781 C 201.480469 193.191406 202.226562 193.070312 202.429688 192.640625 C 203.527344 190.363281 204.269531 188.046875 204.730469 185.578125 C 205.535156 185.800781 206.246094 186.148438 206.972656 186.667969 C 207.390625 186.96875 208.070312 186.664062 208.175781 186.179688 C 208.800781 183.261719 208.886719 180.433594 208.488281 177.539062 C 208.886719 177.726562 209.289062 177.910156 209.683594 178.097656 C 210.089844 178.289062 210.777344 178.179688 210.855469 177.625 C 211 176.59375 210.988281 175.664062 210.875 174.730469 C 211.503906 175.671875 212 176.632812 212.410156 177.542969 C 213.136719 179.191406 213.609375 180.695312 213.988281 181.921875 C 214.707031 184.390625 215.105469 185.746094 215.105469 185.746094 C 215.105469 185.746094 215.085938 185.394531 215.046875 184.71875 C 214.996094 184.046875 214.917969 183.046875 214.730469 181.753906 C 214.539062 180.46875 214.253906 178.875 213.628906 177.058594 C 212.996094 175.265625 211.996094 173.199219 210.199219 171.398438 L 210.140625 171.460938 C 209.757812 169.996094 209.269531 167.851562 209.382812 166.242188 C 210 166.71875 210.652344 167.160156 211.25 167.667969 C 211.265625 167.710938 211.265625 167.753906 211.285156 167.796875 C 213.394531 172.238281 216.089844 176.066406 217.328125 180.933594 C 221.839844 198.714844 207.792969 211.503906 193.964844 203.5 Z M 187.398438 210.988281 C 183.933594 216.65625 178.070312 221.792969 170.996094 219.683594 C 170.269531 219.46875 169.5625 219.183594 168.878906 218.855469 C 158.3125 213.757812 155.695312 198.953125 161.351562 189.382812 C 170.507812 173.898438 193.269531 178.859375 192.71875 195.40625 C 192.535156 200.902344 189.9375 206.832031 187.398438 210.988281 Z M 155.15625 182.9375 C 162.054688 179.792969 168.105469 173.972656 171.101562 168.796875 C 173.195312 171.316406 174.691406 174.148438 174.976562 177.542969 C 167.089844 178.289062 160.804688 183.546875 157.757812 190.605469 C 157.269531 187.902344 156.441406 185.28125 155.15625 182.9375 Z M 149.402344 219.445312 C 143.609375 224.332031 134.347656 223.207031 128.847656 218.449219 C 124.367188 214.566406 121.972656 208.964844 121.230469 203.164062 C 121.199219 202.917969 125.855469 199.378906 126.351562 198.847656 C 129.441406 195.5625 135.542969 186.949219 134.488281 181.417969 C 139.71875 185.886719 146.25 186.152344 152.488281 184 C 154.675781 188.273438 155.703125 192.816406 155.679688 198.152344 C 155.65625 205.433594 155.425781 214.359375 149.402344 219.445312 Z M 111.023438 224.703125 C 107.527344 224.808594 104.871094 222.910156 102.355469 220.714844 C 104.800781 216.378906 106.039062 212.035156 106.511719 207.128906 C 110.769531 207.433594 115.34375 206.511719 119.679688 204.105469 C 119.910156 208.183594 120.992188 212.1875 123.085938 215.632812 C 120.675781 220.464844 116.863281 224.542969 111.023438 224.703125 Z M 100.367188 219.722656 C 85.164062 248.554688 58.28125 227.148438 70.710938 206.742188 C 74.882812 199.878906 82.558594 194.085938 90.484375 193.839844 C 91.980469 200.445312 96.683594 205.230469 103.566406 206.710938 C 103.34375 211.199219 102.53125 215.546875 100.367188 219.722656 Z M 64.941406 216.765625 C 52.503906 225.101562 37.648438 218.554688 35.113281 207.160156 C 33.28125 198.90625 37.808594 185.640625 56.691406 181.613281 C 53.460938 191.722656 58.757812 201.578125 68.210938 205.796875 C 66.269531 209.15625 65.101562 212.914062 64.941406 216.765625 Z M 81.484375 153.773438 C 80.09375 159.019531 81.253906 163.867188 83.792969 167.117188 C 73.511719 166.75 62.164062 170.148438 57.699219 179.140625 C 54.429688 179.164062 50.960938 180.132812 47.761719 181.597656 C 33.324219 169.144531 52.808594 142.0625 81.484375 153.773438 Z M 65.984375 130.113281 C 72.8125 122.621094 82.019531 122.59375 91.207031 123.054688 C 88.53125 129.265625 89.554688 135.945312 92.632812 140.253906 C 88.054688 142.703125 84.339844 146.355469 82.3125 151.3125 C 76.964844 148.25 70.335938 147.414062 63.988281 148.375 C 60.476562 142.980469 61.273438 135.289062 65.984375 130.113281 Z M 120.234375 109.28125 C 122.800781 113.996094 127.207031 117.953125 131.964844 120.535156 C 122.917969 121.1875 115.738281 129.0625 114.863281 138.101562 C 107.933594 135.964844 101.214844 136.472656 94.949219 139.144531 C 94.246094 138.304688 93.660156 137.324219 93.199219 136.152344 C 87.414062 121.496094 104.453125 108.773438 120.234375 109.28125 Z M 129.707031 85.988281 C 138.679688 81.25 149.386719 85.28125 154.183594 93.382812 C 156.683594 97.5625 157.640625 102.664062 157.945312 107.507812 C 150.976562 109.550781 144.640625 114.542969 141.675781 121.273438 C 131.992188 119.109375 124.96875 113.144531 122.132812 107.140625 C 118.304688 99.167969 121.722656 90.207031 129.707031 85.988281 Z M 183.585938 108.078125 C 183.125 107.855469 182.59375 107.65625 182.03125 107.472656 C 181.292969 105.402344 180.242188 103.683594 179.144531 102.351562 C 177.945312 100.902344 176.695312 99.878906 175.628906 99.15625 C 174.554688 98.4375 173.652344 98.019531 173.046875 97.753906 C 172.429688 97.507812 172.105469 97.398438 172.105469 97.398438 C 172.105469 97.398438 172.390625 97.59375 172.933594 97.960938 C 173.464844 98.34375 174.246094 98.917969 175.152344 99.757812 C 176.722656 101.214844 178.777344 103.546875 180.152344 106.953125 C 179.554688 106.816406 178.917969 106.703125 178.261719 106.601562 C 177.214844 104.796875 176.023438 103.578125 175.128906 102.816406 C 174.097656 101.949219 173.441406 101.617188 173.441406 101.617188 C 173.441406 101.617188 173.847656 102.238281 174.550781 103.320312 C 175.042969 104.089844 175.675781 105.101562 176.355469 106.351562 C 171.015625 105.777344 164.671875 106.070312 160.542969 106.878906 C 160.320312 101.835938 159.015625 96.828125 156.613281 92.585938 C 173.738281 87.566406 183.859375 98.535156 183.585938 108.078125 Z M 132.921875 154.925781 C 136.105469 149.179688 141.347656 145.503906 147.0625 142.167969 C 147.734375 142.675781 148.453125 143.128906 149.1875 143.554688 C 147.785156 143.851562 146.582031 144.328125 145.636719 144.859375 C 144.257812 145.625 143.390625 146.476562 142.871094 147.085938 C 142.613281 147.390625 142.433594 147.632812 142.324219 147.804688 C 142.210938 147.972656 142.15625 148.058594 142.15625 148.058594 C 142.15625 148.058594 142.234375 147.992188 142.386719 147.859375 C 142.535156 147.726562 142.769531 147.539062 143.078125 147.308594 C 143.707031 146.855469 144.679688 146.246094 146.046875 145.761719 C 148.113281 145.027344 150.113281 144.882812 152.261719 145.054688 C 155.074219 146.183594 158.140625 146.855469 161.234375 147.085938 L 161.074219 147.300781 C 162.847656 148.601562 163.65625 150.359375 164.019531 151.578125 C 164.203125 152.199219 164.277344 152.710938 164.324219 153.058594 C 164.359375 153.410156 164.378906 153.597656 164.378906 153.597656 C 164.910156 152.34375 164.957031 150.570312 164.246094 148.878906 C 164.011719 148.320312 163.664062 147.734375 163.210938 147.171875 C 163.820312 147.183594 164.425781 147.179688 165.023438 147.15625 L 164.800781 147.445312 C 169.003906 150.722656 167.953125 157.214844 167.597656 161.0625 C 169.175781 156.300781 170.199219 150.933594 166.707031 147.054688 C 167.683594 146.964844 168.648438 146.835938 169.589844 146.664062 C 174.414062 155.203125 172.191406 164.34375 166.007812 171.628906 C 162.984375 175.203125 158.703125 178.886719 153.976562 181.066406 C 136.679688 189.226562 124.167969 170.644531 132.921875 154.925781 Z M 97.980469 176.023438 C 98.65625 175.261719 99.378906 174.542969 100.144531 173.847656 C 107.363281 167.300781 118.363281 162.789062 127.4375 165.488281 C 127.390625 166.910156 127.503906 168.285156 127.738281 169.625 C 127.664062 169.53125 127.589844 169.4375 127.507812 169.351562 C 126.539062 168.257812 125.515625 167.75 124.769531 167.539062 C 124.011719 167.324219 123.511719 167.371094 123.226562 167.414062 C 122.9375 167.464844 122.84375 167.523438 122.84375 167.523438 C 122.824219 167.558594 123.453125 167.5625 124.699219 168.320312 C 125.308594 168.710938 126.03125 169.335938 126.71875 170.367188 C 127.398438 171.390625 128.082031 172.835938 128.65625 174.65625 C 129.84375 178.578125 129.574219 181.183594 129.414062 182.710938 C 129.324219 183.484375 129.226562 184.007812 129.167969 184.335938 C 129.113281 184.667969 129.109375 184.816406 129.109375 184.816406 C 129.109375 184.816406 129.199219 184.710938 129.386719 184.417969 C 129.574219 184.128906 129.855469 183.648438 130.140625 182.867188 C 130.421875 182.089844 130.710938 181 130.792969 179.535156 C 130.828125 178.792969 130.804688 177.949219 130.6875 177.019531 C 131.082031 177.625 131.496094 178.214844 131.953125 178.792969 C 133.734375 184.8125 129.789062 191.152344 125.707031 195.976562 C 113.335938 210.582031 93.1875 205.683594 92.355469 190.445312 C 92.039062 184.832031 94.398438 179.976562 97.980469 176.023438 Z M 129.308594 157.191406 C 128.480469 159.175781 127.902344 161.238281 127.628906 163.320312 C 123.101562 161.808594 117.125 162.636719 113.265625 163.726562 C 107.738281 165.292969 101.792969 168.675781 97.34375 173.109375 C 94.652344 172.28125 91.882812 171.007812 89.519531 169.265625 C 77.4375 160.632812 84.375 144.785156 98.316406 140.53125 C 104.335938 138.671875 110.101562 138.886719 114.777344 140.515625 C 115.03125 148.984375 120.191406 155.242188 129.308594 157.191406 Z M 145.511719 140.863281 C 139.335938 143.539062 133.84375 148.59375 130.582031 154.566406 C 121.144531 152.851562 117.046875 147.074219 117.277344 138.957031 C 117.511719 127.964844 128.425781 121.925781 134.871094 121.925781 C 136.773438 122.738281 138.746094 123.375 140.75 123.828125 C 138.871094 130.425781 140.996094 136.683594 145.511719 140.863281 Z M 90.222656 192.40625 C 82.800781 191.488281 73.984375 197.511719 69.628906 203.601562 C 52.964844 197.027344 52.253906 169.003906 85.566406 169.199219 C 88.261719 171.953125 91.773438 173.914062 95.417969 175.210938 C 90.925781 180.566406 89.382812 186.675781 90.222656 192.40625 Z M 174.78125 155.378906 C 175.3125 155.609375 175.796875 155.75 176.328125 155.808594 C 175.757812 156.390625 175.238281 157.035156 174.75 157.71875 C 174.804688 156.9375 174.8125 156.160156 174.78125 155.378906 Z M 186.683594 172.335938 C 186.664062 172.433594 186.632812 172.523438 186.613281 172.621094 C 186.605469 172.585938 186.597656 172.550781 186.589844 172.515625 C 186.621094 172.457031 186.652344 172.398438 186.683594 172.335938 Z M 179.105469 163.035156 C 179.136719 163.332031 179.359375 163.609375 179.636719 163.679688 C 178.5 165.664062 177.777344 167.695312 177.449219 169.53125 C 178.753906 166.773438 180.011719 164.628906 182.179688 162.242188 C 183.386719 161.46875 184.59375 160.695312 185.773438 159.886719 C 186.808594 159.175781 187.597656 157.949219 187.996094 160.15625 C 184.949219 163.636719 182.78125 167.832031 181.902344 172.457031 C 181.800781 173.109375 181.746094 173.453125 181.746094 173.453125 C 181.746094 173.453125 181.875 173.132812 182.128906 172.523438 C 182.386719 171.917969 182.765625 171.027344 183.320312 169.90625 C 183.964844 168.621094 184.84375 167.015625 186.042969 165.25 C 186.070312 165.71875 186.390625 166.164062 186.941406 166.121094 C 187.4375 166.082031 187.929688 166.042969 188.425781 166.003906 C 187.417969 166.851562 186.609375 168.167969 186.085938 169.195312 C 186.027344 169.304688 185.976562 169.410156 185.921875 169.519531 C 184.15625 172.050781 183.46875 175.257812 183.546875 178.628906 C 181.667969 177.929688 179.648438 177.535156 177.578125 177.460938 C 176.910156 173.394531 174.992188 169.359375 172.289062 166.605469 C 172.890625 165.363281 173.394531 164.089844 173.789062 162.789062 C 176.34375 161.234375 177.578125 161.222656 178.964844 160.835938 C 178.976562 160.941406 178.96875 161.070312 178.933594 161.230469 C 178.957031 161.832031 179.015625 162.4375 179.105469 163.035156 Z M 179.945312 148.820312 C 178.179688 150.492188 176.421875 152.167969 174.667969 153.851562 C 174.363281 151.199219 173.523438 148.589844 172.054688 146.125 C 175.050781 145.355469 177.960938 144.15625 180.601562 142.570312 C 180.902344 142.78125 181.199219 142.988281 181.5 143.199219 C 180.363281 144.191406 179.160156 145.0625 177.855469 145.847656 C 176.679688 146.554688 178.691406 148.253906 179.945312 148.820312 Z M 184.796875 135.492188 C 175.667969 145.75 158.101562 147.074219 148.742188 139.703125 C 140.355469 133.097656 141.632812 121.710938 149.171875 114.976562 C 160.925781 104.480469 178.328125 108.074219 183.238281 111.046875 C 191.265625 115.90625 192.085938 127.320312 184.796875 135.492188 Z M 192.125 125.796875 C 194.847656 127.898438 196.1875 130.546875 196.878906 133.710938 C 197.3125 130.304688 195.65625 126.277344 192.207031 123.902344 C 192.207031 123.121094 192.164062 122.332031 192.066406 121.550781 C 197.921875 123.652344 201.773438 129.328125 200.460938 134.519531 C 196.199219 135.09375 191.804688 135.320312 187.710938 136.390625 C 190.078125 133.375 191.761719 129.710938 192.125 125.796875 Z M 200.289062 125.046875 C 198.109375 122.285156 195.0625 120.175781 191.695312 119.394531 C 191.601562 118.96875 191.488281 118.542969 191.363281 118.125 C 194.542969 116.78125 197.460938 114.707031 200.203125 112.492188 C 198.835938 116.15625 199.027344 120.796875 200.289062 125.046875 Z M 224.316406 71.25 C 224.347656 70.785156 224.429688 70.65625 224.824219 70.441406 C 226.726562 69.40625 228.894531 68.824219 230.964844 68.289062 C 231.050781 70.230469 229.003906 71.636719 228.265625 73.292969 C 215.132812 102.621094 200.566406 109.113281 191.117188 117.386719 C 190.6875 116.105469 190.136719 114.882812 189.460938 113.746094 C 208.585938 104.484375 223.78125 79.71875 224.316406 71.25 Z M 203.492188 132.699219 C 203.515625 132.726562 203.542969 132.746094 203.566406 132.777344 C 203.527344 132.410156 203.46875 132.042969 203.398438 131.679688 C 203.878906 132.371094 204.390625 133 204.929688 133.570312 C 204.480469 133.777344 203.992188 133.921875 203.5 134.035156 C 203.535156 133.585938 203.535156 133.136719 203.492188 132.699219 Z M 206.941406 131.558594 C 206.804688 131.9375 206.625 132.273438 206.253906 132.664062 C 201.902344 124.285156 200.183594 123.332031 201.492188 111.429688 C 203.671875 109.609375 204.554688 108.820312 205.285156 108.152344 C 201.054688 116.902344 203.785156 127.679688 206.941406 131.558594 Z M 175.460938 83.367188 C 171.503906 87.488281 163.828125 84.308594 167.035156 78.433594 C 168.945312 74.925781 173.339844 72.714844 177.183594 71.570312 C 178.488281 75.707031 178.441406 80.257812 175.460938 83.367188 Z M 142.75 71.832031 C 141.769531 73.6875 138.871094 75.125 137.011719 73.507812 C 133.492188 70.441406 137.976562 65.871094 140.621094 63.519531 C 143.558594 66.234375 143.96875 69.527344 142.75 71.832031 Z M 268.664062 125.375 C 267.265625 123.023438 266.1875 120.484375 263.988281 118.679688 C 262.875 117.769531 261.546875 117.304688 260.164062 117.039062 C 260.644531 116.691406 260.785156 115.925781 260.144531 115.582031 C 257.675781 114.28125 255.234375 113.769531 252.570312 113.96875 C 252.929688 113.066406 253.570312 112.328125 254.503906 111.773438 C 255.226562 111.28125 254.925781 110.253906 254.074219 110.179688 C 250.878906 109.902344 247.929688 110.464844 245.152344 111.839844 C 245.3125 111.347656 245.5 110.863281 245.738281 110.34375 C 245.996094 109.777344 245.550781 108.851562 244.808594 109.140625 C 241.425781 110.457031 239.070312 113.726562 237.433594 114.128906 C 236.667969 114.746094 236.039062 114.480469 235.546875 113.34375 C 234.167969 112.800781 233.976562 112.101562 234.972656 111.242188 C 235.644531 109.46875 237.628906 107.628906 238.785156 106.132812 C 239.199219 105.597656 238.988281 104.6875 238.1875 104.703125 C 237.675781 104.710938 237.164062 104.71875 236.652344 104.730469 C 237.746094 102.953125 238.074219 100.96875 237.640625 98.746094 C 237.507812 98.074219 236.65625 97.976562 236.210938 98.371094 C 231.160156 102.8125 227.703125 99.1875 222.59375 104.574219 C 222.457031 103.992188 222.355469 103.398438 222.296875 102.796875 C 222.21875 102.195312 221.621094 101.679688 221.007812 102.058594 C 218.441406 103.652344 216.597656 105.824219 215.558594 108.503906 C 215.222656 108.285156 214.714844 108.351562 214.410156 108.746094 C 212.636719 111.074219 211.613281 113.703125 211.253906 116.519531 C 211.160156 116.28125 211.074219 116.03125 210.988281 115.753906 C 210.808594 115.160156 210.144531 115.042969 209.699219 115.410156 C 204.425781 119.789062 206.644531 125.824219 207 128.03125 C 206.777344 126.648438 205.785156 125.167969 205.429688 123.761719 C 205.03125 122.179688 204.808594 120.558594 204.722656 118.933594 C 204.554688 115.605469 204.710938 112.191406 206.515625 109.3125 C 210.671875 102.683594 216.644531 97.757812 221.121094 91.273438 C 223.988281 87.128906 223.960938 85.621094 230.855469 72 C 231.582031 70.570312 234.582031 66.789062 231.328125 66.464844 C 228.527344 66.183594 225.355469 68.796875 223.125 70.148438 C 222.164062 70.730469 222.527344 72.234375 222.207031 73.988281 C 221.992188 75.207031 217.105469 88.726562 203.027344 101.640625 C 207.027344 90.648438 201.191406 75.652344 191.128906 70.296875 C 187.390625 68.308594 182.65625 68.058594 178.1875 69.117188 C 177.675781 67.832031 177.0625 66.632812 176.375 65.597656 C 168.878906 54.179688 152.921875 51.480469 140.605469 61.167969 C 133.285156 56.359375 123.429688 58.699219 115.714844 63.777344 C 111.960938 66.25 107.835938 69.257812 107.105469 73.972656 C 107.078125 74.148438 107.324219 74.226562 107.378906 74.046875 C 110.226562 64.933594 129.234375 56.046875 139.164062 62.398438 C 137.335938 64.070312 135.789062 65.988281 134.683594 68.121094 C 131.515625 74.242188 139.980469 78.894531 143.933594 73.679688 C 146.265625 70.601562 145.925781 65.757812 142.078125 62.304688 C 154.695312 52.453125 170.949219 56.828125 176.449219 69.601562 C 167.785156 72.363281 161.832031 79.882812 166.042969 84.761719 C 168.15625 87.207031 171.609375 87.582031 174.40625 86.160156 C 179.964844 83.339844 180.503906 76.765625 178.878906 71.144531 C 184.730469 69.902344 190.382812 71.304688 194.730469 75.949219 C 201.214844 82.882812 205.082031 96.023438 199.652344 104.574219 C 195.734375 107.78125 192.730469 109.386719 188.386719 112.140625 C 187.804688 111.378906 186.351562 110.074219 185.644531 109.445312 C 187.105469 93.035156 169.375 84.234375 155.648438 91.019531 C 152.433594 86.140625 147.601562 82.511719 141.140625 81.375 C 128.242188 79.121094 113.066406 91.699219 119.1875 107.046875 C 108.800781 107.222656 97.097656 112.292969 92.164062 121.117188 C 81.332031 118.335938 68.210938 121.597656 61.996094 131.226562 C 58.65625 136.40625 58.382812 143.609375 61.265625 148.902344 C 41.113281 153.621094 35.171875 172.804688 45.425781 182.808594 C 34.058594 189.140625 30.355469 200.414062 32.769531 208.851562 C 36.191406 220.785156 51.410156 227.566406 65.066406 220.183594 C 66.101562 229.300781 73.375 236.035156 81.460938 236.425781 C 89.917969 236.835938 96.140625 230.179688 100.742188 223.113281 C 108.875 231.316406 121.710938 226.464844 124.652344 217.875 C 125.546875 218.984375 126.554688 220 127.703125 220.914062 C 136.714844 228.164062 153.996094 227.75 157.460938 209.515625 C 164.917969 228.425781 185.785156 227.152344 193.355469 205.417969 C 203.117188 214.886719 228.644531 202.46875 218.546875 176.027344 C 218.742188 175.910156 218.796875 175.785156 218.949219 175.605469 C 219.617188 178.167969 220.820312 180.417969 222.625 182.46875 C 222.960938 182.851562 223.597656 182.722656 223.839844 182.316406 C 224.316406 181.515625 224.859375 180.800781 225.460938 180.121094 C 226.691406 182.835938 228.726562 184.875 231.519531 186.191406 C 232 186.417969 232.671875 186.261719 232.804688 185.664062 C 233.09375 184.390625 233.445312 183.152344 233.847656 181.917969 C 237.300781 182.984375 240.769531 183.972656 243.648438 186.28125 C 244.1875 186.714844 245.027344 186.460938 245.042969 185.703125 C 245.0625 185.015625 245.082031 184.324219 245.101562 183.636719 C 248.058594 185.503906 250.800781 187.628906 253.324219 190.082031 C 253.824219 190.570312 254.71875 190.21875 254.714844 189.507812 C 254.710938 189.1875 254.710938 188.867188 254.710938 188.546875 C 256.070312 189.867188 257.011719 191.445312 257.601562 193.328125 C 257.9375 194.394531 259.625 193.9375 259.28125 192.867188 C 259.265625 192.800781 259.238281 192.742188 259.214844 192.679688 C 259.265625 189.484375 258.820312 186.238281 258.507812 183.042969 C 258.898438 183.25 259.285156 183.457031 259.671875 183.664062 C 260.082031 184.007812 260.589844 183.757812 260.65625 183.253906 C 261.03125 180.363281 260.804688 177.917969 259.773438 175.367188 C 260.289062 175.484375 260.804688 175.605469 261.320312 175.722656 C 261.777344 175.933594 262.457031 175.695312 262.417969 175.09375 C 262.226562 172.34375 261.628906 169.777344 260.601562 167.277344 C 260.710938 167.316406 260.824219 167.351562 260.9375 167.390625 C 261.453125 167.65625 262.230469 167.207031 262.003906 166.570312 C 260.671875 162.875 258.753906 159.644531 256.226562 156.726562 C 256.953125 156.738281 257.679688 156.660156 258.460938 156.488281 C 258.921875 156.382812 259.183594 155.761719 258.917969 155.363281 C 256.414062 151.609375 253.023438 148.96875 248.921875 147.332031 C 249.878906 146.910156 250.859375 146.667969 252.023438 146.582031 C 252.679688 146.539062 252.960938 145.824219 252.539062 145.332031 C 251.035156 143.550781 249.109375 143.183594 246.867188 142.960938 C 245.480469 142.824219 239.101562 142.988281 239.421875 137.566406 C 241.207031 133.828125 248.222656 135.929688 251.484375 136.398438 C 252.039062 136.476562 252.550781 136.082031 252.402344 135.476562 C 252.210938 134.699219 251.976562 134.019531 251.683594 133.351562 C 254.273438 133.726562 256.804688 133.71875 259.445312 133.308594 C 260.011719 133.21875 260.171875 132.394531 259.78125 132.035156 C 259.1875 131.496094 258.71875 130.925781 258.324219 130.28125 C 259.683594 130.046875 261.09375 130.113281 262.382812 129.601562 C 263.574219 129.128906 264.363281 127.925781 265.496094 127.410156 C 265.945312 127.203125 269.425781 126.589844 269.695312 126.941406 C 269.324219 126.4375 268.988281 125.910156 268.664062 125.375 " fill-opacity="1" fill-rule="nonzero"/><path fill="#a9a0f0" d="M 97.691406 197.277344 C 98.476562 198.199219 99.484375 199.132812 100.769531 199.953125 C 102.0625 200.761719 103.628906 201.421875 105.433594 201.789062 C 109.308594 202.550781 112.542969 201.824219 114.890625 200.941406 C 117.265625 200.03125 118.867188 198.9375 120 198.082031 C 121.132812 197.214844 121.800781 196.535156 122.207031 196.105469 C 122.609375 195.671875 122.753906 195.480469 122.753906 195.480469 C 122.753906 195.480469 122.542969 195.605469 122.050781 195.933594 C 121.550781 196.257812 120.769531 196.789062 119.554688 197.484375 C 118.339844 198.175781 116.691406 199.0625 114.398438 199.785156 C 112.128906 200.484375 109.121094 201.039062 105.59375 200.3125 C 102.074219 199.554688 99.75 197.726562 98.273438 196.046875 C 96.78125 194.351562 96.042969 192.808594 95.570312 191.671875 C 95.101562 190.523438 94.90625 189.753906 94.769531 189.285156 C 94.648438 188.820312 94.578125 188.65625 94.578125 188.65625 C 94.578125 188.65625 94.5625 188.894531 94.558594 189.476562 C 94.589844 190.054688 94.625 191 95.011719 192.335938 C 95.402344 193.660156 96.117188 195.414062 97.691406 197.277344 " fill-opacity="1" fill-rule="nonzero"/><path fill="#a9a0f0" d="M 140.332031 179.160156 C 141.640625 179.863281 143.210938 180.402344 144.984375 180.644531 C 148.804688 181.136719 151.90625 180.210938 154.128906 179.207031 C 156.375 178.175781 157.871094 177.035156 158.933594 176.148438 C 159.992188 175.246094 160.617188 174.5625 160.996094 174.132812 C 161.371094 173.691406 161.503906 173.503906 161.503906 173.503906 C 161.503906 173.503906 161.304688 173.625 160.835938 173.964844 C 160.359375 174.292969 159.613281 174.835938 158.460938 175.570312 C 157.308594 176.292969 155.753906 177.246094 153.566406 178.085938 C 151.398438 178.90625 148.523438 179.636719 145.054688 179.160156 C 143.332031 178.898438 141.851562 178.382812 140.644531 177.714844 C 139.425781 177.058594 138.480469 176.25 137.703125 175.476562 C 136.171875 173.898438 135.285156 172.464844 134.636719 171.4375 C 134.007812 170.390625 133.605469 169.71875 133.359375 169.308594 C 133.113281 168.902344 133.003906 168.769531 133.003906 168.769531 C 133.003906 168.769531 133.050781 169 133.207031 169.546875 C 133.367188 170.089844 133.636719 170.945312 134.179688 172.167969 C 134.746094 173.375 135.558594 174.992188 137.175781 176.722656 C 137.976562 177.589844 139.023438 178.445312 140.332031 179.160156 " fill-opacity="1" fill-rule="nonzero"/><path fill="#a9a0f0" d="M 181.460938 134.363281 C 167.96875 146.125 150.089844 139.300781 146.230469 130.542969 C 145.527344 128.960938 145.480469 127.828125 145.4375 127.164062 C 145.4375 126.492188 145.429688 126.246094 145.429688 126.246094 C 145.429688 126.246094 145.410156 126.328125 145.367188 126.507812 C 145.328125 126.691406 145.226562 126.96875 145.199219 127.378906 C 145.101562 128.183594 145.0625 129.566406 145.785156 131.410156 C 149.804688 141.652344 169.898438 147.605469 182.019531 134.859375 C 183.402344 133.390625 184.113281 132.253906 184.558594 131.550781 C 184.972656 130.828125 185.113281 130.53125 185.113281 130.53125 C 184.402344 131.328125 183.460938 132.609375 181.460938 134.363281 " fill-opacity="1" fill-rule="nonzero"/><path fill="#a9a0f0" d="M 126.136719 151.132812 C 125.4375 150.585938 124.527344 149.835938 123.519531 148.699219 C 122.515625 147.566406 121.386719 146.039062 120.539062 143.921875 C 119.695312 141.800781 119.449219 139.972656 119.359375 138.535156 C 119.269531 137.09375 119.355469 136.015625 119.414062 135.222656 C 119.484375 134.4375 119.527344 133.925781 119.554688 133.605469 C 119.582031 133.289062 119.566406 133.171875 119.566406 133.171875 C 119.566406 133.171875 119.476562 133.300781 119.304688 133.632812 C 119.132812 133.964844 118.886719 134.511719 118.632812 135.359375 C 118.382812 136.207031 118.144531 137.371094 118.117188 138.917969 C 118.113281 140.449219 118.320312 142.386719 119.199219 144.570312 C 120.152344 146.894531 121.476562 148.503906 122.664062 149.613281 C 123.859375 150.730469 124.933594 151.371094 125.761719 151.777344 C 126.59375 152.175781 127.183594 152.351562 127.558594 152.441406 C 127.929688 152.527344 128.085938 152.542969 128.085938 152.542969 C 128.085938 152.542969 127.964844 152.441406 127.648438 152.230469 C 127.335938 152.015625 126.835938 151.675781 126.136719 151.132812 " fill-opacity="1" fill-rule="nonzero"/><path fill="#a9a0f0" d="M 91.515625 167.308594 C 90.84375 166.761719 89.96875 166.019531 89.027344 164.878906 C 88.097656 163.746094 87.070312 162.195312 86.503906 160.074219 C 85.957031 157.953125 86.097656 156.160156 86.351562 154.808594 C 86.605469 153.441406 87.011719 152.476562 87.3125 151.777344 C 87.632812 151.078125 87.871094 150.636719 88.007812 150.367188 C 88.148438 150.09375 88.179688 149.976562 88.179688 149.976562 C 88.179688 149.976562 88.054688 150.058594 87.765625 150.292969 C 87.480469 150.527344 87.050781 150.929688 86.535156 151.640625 C 86.027344 152.347656 85.449219 153.382812 85.050781 154.863281 C 84.6875 156.335938 84.496094 158.289062 85.097656 160.554688 C 85.765625 162.964844 87.019531 164.632812 88.140625 165.765625 C 89.277344 166.902344 90.328125 167.539062 91.136719 167.945312 C 91.949219 168.347656 92.523438 168.519531 92.890625 168.609375 C 93.257812 168.691406 93.410156 168.703125 93.410156 168.703125 C 93.410156 168.703125 93.289062 168.601562 92.984375 168.394531 C 92.679688 168.183594 92.195312 167.84375 91.515625 167.308594 " fill-opacity="1" fill-rule="nonzero"/><path fill="#a9a0f0" d="M 47.570312 177.003906 C 47.78125 177.210938 47.960938 177.355469 48.109375 177.457031 C 48.402344 177.664062 48.527344 177.730469 48.527344 177.730469 C 48.527344 177.730469 48.464844 177.597656 48.28125 177.296875 C 48.09375 177.003906 47.8125 176.519531 47.449219 175.792969 C 47.109375 175.058594 46.679688 174.066406 46.398438 172.710938 C 46.136719 171.363281 45.976562 169.625 46.464844 167.617188 C 46.957031 165.628906 47.917969 164.191406 48.601562 163.007812 C 49.300781 161.832031 49.851562 161.015625 50.289062 160.433594 C 50.722656 159.851562 51.027344 159.492188 51.210938 159.265625 C 51.394531 159.039062 51.449219 158.941406 51.449219 158.941406 C 51.449219 158.941406 51.308594 158.980469 50.992188 159.136719 C 50.683594 159.292969 50.195312 159.570312 49.570312 160.113281 C 48.945312 160.648438 48.199219 161.457031 47.382812 162.585938 C 46.582031 163.703125 45.527344 165.179688 45 167.359375 C 44.460938 169.671875 44.765625 171.628906 45.203125 173.078125 C 45.664062 174.542969 46.304688 175.535156 46.832031 176.210938 C 47.109375 176.542969 47.347656 176.808594 47.570312 177.003906 " fill-opacity="1" fill-rule="nonzero"/><path fill="#a9a0f0" d="M 65.964844 145.96875 C 66.21875 146.230469 66.335938 146.320312 66.335938 146.320312 C 66.335938 146.320312 66.292969 146.175781 66.164062 145.839844 C 66.03125 145.507812 65.824219 144.976562 65.578125 144.179688 C 65.339844 143.378906 65.054688 142.308594 64.945312 140.886719 C 64.832031 139.476562 64.878906 137.6875 65.558594 135.664062 C 66.242188 133.644531 67.246094 132.230469 68.109375 131.199219 C 68.980469 130.164062 69.753906 129.5 70.320312 129.015625 C 70.890625 128.535156 71.277344 128.234375 71.503906 128.046875 C 71.730469 127.851562 71.800781 127.761719 71.800781 127.761719 C 71.800781 127.761719 71.65625 127.785156 71.3125 127.878906 C 70.96875 127.972656 70.433594 128.152344 69.683594 128.542969 C 68.945312 128.9375 67.996094 129.558594 66.960938 130.601562 C 65.949219 131.65625 64.832031 133.15625 64.121094 135.289062 C 63.375 137.574219 63.4375 139.585938 63.710938 141.105469 C 63.984375 142.636719 64.480469 143.730469 64.902344 144.492188 C 65.339844 145.253906 65.714844 145.703125 65.964844 145.96875 " fill-opacity="1" fill-rule="nonzero"/><path fill="#a9a0f0" d="M 95.101562 135.417969 C 95.304688 135.742188 95.40625 135.859375 95.40625 135.859375 C 95.40625 135.859375 95.390625 135.703125 95.320312 135.332031 C 95.25 134.964844 95.144531 134.378906 95.046875 133.507812 C 94.957031 132.640625 94.867188 131.484375 95.003906 129.992188 C 95.140625 128.511719 95.496094 126.671875 96.503906 124.667969 C 97.523438 122.667969 98.746094 121.324219 99.777344 120.355469 C 100.8125 119.375 101.691406 118.777344 102.335938 118.328125 C 102.980469 117.902344 103.40625 117.621094 103.667969 117.445312 C 103.929688 117.269531 104.011719 117.183594 104.011719 117.183594 C 104.011719 117.183594 103.855469 117.199219 103.492188 117.265625 C 103.125 117.332031 102.554688 117.476562 101.738281 117.804688 C 100.929688 118.136719 99.886719 118.679688 98.691406 119.636719 C 97.523438 120.605469 96.183594 122.003906 95.136719 124.089844 C 94.03125 126.328125 93.746094 128.390625 93.75 129.996094 C 93.753906 131.617188 94.042969 132.828125 94.324219 133.691406 C 94.617188 134.558594 94.90625 135.097656 95.101562 135.417969 " fill-opacity="1" fill-rule="nonzero"/><path fill="#a9a0f0" d="M 92.808594 224.550781 C 91.832031 225.550781 90.371094 226.773438 88.140625 227.738281 C 87.023438 228.214844 85.71875 228.617188 84.226562 228.828125 C 82.746094 229.035156 81.039062 229.085938 79.292969 228.6875 C 77.546875 228.296875 76.175781 227.4375 75.078125 226.480469 C 73.980469 225.523438 73.152344 224.488281 72.472656 223.539062 C 71.105469 221.640625 70.4375 220.050781 70.152344 218.847656 C 69.863281 217.644531 69.921875 216.835938 69.964844 216.355469 C 70.019531 215.871094 70.042969 215.691406 70.042969 215.691406 C 70.042969 215.691406 70.011719 215.746094 69.953125 215.863281 C 69.890625 215.988281 69.792969 216.175781 69.703125 216.460938 C 69.507812 217.023438 69.285156 218.007812 69.507812 219.4375 C 69.71875 220.859375 70.394531 222.683594 71.761719 224.707031 C 72.4375 225.722656 73.296875 226.820312 74.480469 227.839844 C 75.652344 228.851562 77.230469 229.773438 79.113281 230.167969 C 81.117188 230.59375 82.949219 230.484375 84.566406 230.214844 C 86.1875 229.929688 87.582031 229.425781 88.75 228.839844 C 91.09375 227.648438 92.527344 226.175781 93.410156 224.992188 C 94.285156 223.789062 94.605469 222.835938 94.800781 222.269531 C 94.964844 221.679688 95.003906 221.445312 95.003906 221.445312 C 95.003906 221.445312 94.875 221.65625 94.585938 222.183594 C 94.261719 222.6875 93.789062 223.53125 92.808594 224.550781 " fill-opacity="1" fill-rule="nonzero"/><path fill="#a9a0f0" d="M 57.164062 215.5625 C 56.746094 215.644531 56.234375 215.703125 55.621094 215.765625 C 54.402344 215.863281 52.757812 215.90625 50.675781 215.535156 C 48.625 215.121094 46.058594 214.332031 43.523438 212.40625 C 41 210.46875 39.667969 208.246094 38.914062 206.421875 C 38.160156 204.578125 37.988281 203.089844 37.957031 202.015625 C 37.933594 200.933594 38.023438 200.230469 38.082031 199.808594 C 38.144531 199.386719 38.140625 199.226562 38.140625 199.226562 C 38.140625 199.226562 38.035156 199.410156 37.8125 199.878906 C 37.625 200.359375 37.308594 201.144531 37.195312 202.378906 C 37.089844 203.605469 37.167969 205.304688 37.921875 207.328125 C 38.300781 208.332031 38.84375 209.417969 39.625 210.511719 C 40.410156 211.597656 41.445312 212.679688 42.738281 213.660156 C 45.53125 215.753906 48.351562 216.5 50.570312 216.789062 C 52.820312 217.027344 54.539062 216.785156 55.777344 216.492188 C 56.398438 216.339844 56.902344 216.179688 57.308594 216.011719 C 57.71875 215.863281 58.027344 215.710938 58.257812 215.585938 C 58.726562 215.339844 58.898438 215.222656 58.898438 215.222656 C 58.898438 215.222656 58.683594 215.253906 58.175781 215.367188 C 57.921875 215.429688 57.589844 215.5 57.164062 215.5625 " fill-opacity="1" fill-rule="nonzero"/><path fill="#a9a0f0" d="M 147.320312 216.40625 C 146.375 216.945312 145.082031 217.621094 143.285156 218.144531 C 141.507812 218.660156 139.15625 219.046875 136.429688 218.46875 C 133.710938 217.867188 131.816406 216.546875 130.523438 215.382812 C 129.210938 214.199219 128.480469 213.089844 127.980469 212.269531 C 127.738281 211.851562 127.542969 211.503906 127.40625 211.207031 C 127.25 210.921875 127.152344 210.691406 127.074219 210.519531 C 126.914062 210.171875 126.832031 210.054688 126.832031 210.054688 C 126.832031 210.054688 126.832031 210.242188 126.878906 210.699219 C 126.929688 211.15625 127.066406 211.886719 127.46875 212.910156 C 127.882812 213.921875 128.617188 215.226562 129.96875 216.585938 C 131.332031 217.90625 133.359375 219.328125 136.238281 219.941406 C 137.765625 220.261719 139.1875 220.269531 140.445312 220.117188 C 141.707031 219.96875 142.808594 219.671875 143.75 219.3125 C 145.632812 218.601562 146.898438 217.714844 147.773438 217 C 148.640625 216.269531 149.132812 215.703125 149.421875 215.328125 C 149.703125 214.953125 149.796875 214.792969 149.796875 214.792969 C 149.796875 214.792969 149.632812 214.890625 149.257812 215.164062 C 148.875 215.429688 148.265625 215.855469 147.320312 216.40625 " fill-opacity="1" fill-rule="nonzero"/><path fill="#a9a0f0" d="M 181.304688 212.460938 C 180.476562 213.214844 179.375 214.261719 177.695312 215.078125 C 176.039062 215.882812 173.636719 216.277344 170.90625 215.496094 C 168.167969 214.703125 166.425781 213.109375 165.21875 211.785156 C 164.015625 210.421875 163.320312 209.238281 162.824219 208.371094 C 162.328125 207.496094 162.042969 206.914062 161.855469 206.570312 C 161.671875 206.222656 161.582031 206.109375 161.582031 206.109375 C 161.582031 206.109375 161.597656 206.300781 161.671875 206.769531 C 161.761719 207.226562 161.910156 207.960938 162.300781 209.007812 C 162.695312 210.039062 163.316406 211.410156 164.546875 212.929688 C 165.164062 213.6875 165.949219 214.46875 166.941406 215.1875 C 167.9375 215.917969 169.167969 216.550781 170.613281 216.953125 C 173.71875 217.820312 176.519531 217.222656 178.339844 216.152344 C 180.171875 215.074219 181.167969 213.828125 181.875 212.9375 C 182.570312 212.019531 182.957031 211.367188 183.199219 210.953125 C 183.433594 210.539062 183.511719 210.359375 183.511719 210.359375 C 183.511719 210.359375 183.359375 210.484375 183.011719 210.8125 C 182.664062 211.148438 182.113281 211.679688 181.304688 212.460938 " fill-opacity="1" fill-rule="nonzero"/><path fill="#a9a0f0" d="M 213.757812 194.714844 C 213.609375 194.921875 213.425781 195.167969 213.207031 195.460938 C 212.753906 196.039062 212.171875 196.804688 211.273438 197.671875 C 210.375 198.539062 209.207031 199.558594 207.554688 200.46875 C 205.910156 201.375 204.488281 201.855469 203.339844 202.148438 C 202.203125 202.425781 201.296875 202.589844 200.691406 202.660156 C 199.484375 202.78125 199.191406 202.371094 199.167969 202.421875 C 199.175781 202.414062 199.191406 202.554688 199.417969 202.800781 C 199.640625 203.042969 200.140625 203.320312 200.902344 203.410156 C 201.644531 203.480469 202.617188 203.515625 203.878906 203.308594 C 205.132812 203.105469 206.671875 202.65625 208.355469 201.71875 C 210.15625 200.710938 211.378906 199.511719 212.230469 198.480469 C 213.09375 197.441406 213.558594 196.511719 213.859375 195.816406 C 214 195.457031 214.109375 195.164062 214.1875 194.910156 C 214.25 194.65625 214.292969 194.453125 214.320312 194.296875 C 214.378906 193.984375 214.378906 193.855469 214.378906 193.855469 C 214.378906 193.855469 214.289062 193.953125 214.105469 194.207031 C 214.019531 194.335938 213.90625 194.507812 213.757812 194.714844 " fill-opacity="1" fill-rule="nonzero"/><path fill="#a9a0f0" d="M 126.875 109.574219 C 128.640625 112.050781 130.632812 113.59375 132.324219 114.59375 C 134.03125 115.597656 135.46875 116.082031 136.546875 116.363281 C 137.636719 116.632812 138.378906 116.707031 138.839844 116.730469 C 139.304688 116.75 139.492188 116.734375 139.492188 116.734375 C 139.492188 116.734375 139.320312 116.65625 138.882812 116.5 C 138.449219 116.34375 137.757812 116.089844 136.765625 115.652344 C 135.777344 115.203125 134.476562 114.574219 132.945312 113.503906 C 131.421875 112.4375 129.640625 110.925781 128.019531 108.625 C 126.40625 106.320312 125.605469 104.191406 125.101562 102.496094 C 124.597656 100.789062 124.414062 99.472656 124.273438 98.511719 C 124.148438 97.546875 124.089844 96.921875 124.042969 96.546875 C 123.996094 96.167969 123.957031 96.03125 123.957031 96.03125 C 123.957031 96.03125 123.902344 96.210938 123.804688 96.65625 C 123.707031 97.101562 123.589844 97.816406 123.550781 98.894531 C 123.515625 99.964844 123.585938 101.402344 124 103.226562 C 124.4375 105.03125 125.234375 107.253906 126.875 109.574219 " fill-opacity="1" fill-rule="nonzero"/><path fill="#a9a0f0" d="M 174.625 135.460938 C 175.53125 134.867188 176.074219 134.394531 176.390625 134.078125 C 176.714844 133.765625 176.828125 133.625 176.828125 133.625 C 176.03125 133.945312 173.703125 135.328125 170.222656 136.128906 C 159.929688 138.496094 152.925781 132.492188 151.5625 131.996094 C 155.195312 137.222656 166.164062 140.894531 174.625 135.460938 " fill-opacity="1" fill-rule="nonzero"/><path fill="#a9a0f0" d="M 167.261719 209.675781 C 167.597656 210.167969 168.117188 210.789062 168.957031 211.417969 C 169.800781 212.023438 170.988281 212.652344 172.589844 212.882812 C 174.300781 213.117188 175.707031 212.773438 176.722656 212.34375 C 177.746094 211.90625 178.417969 211.371094 178.863281 210.9375 C 179.304688 210.492188 179.535156 210.140625 179.65625 209.910156 C 179.78125 209.679688 179.808594 209.574219 179.808594 209.574219 C 179.808594 209.574219 179.710938 209.621094 179.488281 209.75 C 179.273438 209.875 178.925781 210.078125 178.414062 210.339844 C 177.902344 210.597656 177.210938 210.921875 176.273438 211.171875 C 175.339844 211.421875 174.140625 211.613281 172.722656 211.40625 C 171.300781 211.191406 170.242188 210.691406 169.449219 210.242188 C 168.644531 209.789062 168.101562 209.355469 167.691406 209.039062 C 167.285156 208.722656 167.019531 208.503906 166.84375 208.378906 C 166.671875 208.253906 166.59375 208.222656 166.59375 208.222656 C 166.59375 208.222656 166.609375 208.328125 166.691406 208.566406 C 166.773438 208.804688 166.933594 209.175781 167.261719 209.675781 " fill-opacity="1" fill-rule="nonzero"/><path fill="#a9a0f0" d="M 131.039062 210.289062 C 131.289062 210.910156 131.710938 211.703125 132.46875 212.59375 C 133.238281 213.460938 134.367188 214.4375 136.039062 215.097656 C 137.832031 215.796875 139.4375 215.804688 140.652344 215.621094 C 141.878906 215.429688 142.75 215.046875 143.359375 214.707031 C 143.960938 214.355469 144.3125 214.050781 144.515625 213.84375 C 144.71875 213.632812 144.785156 213.535156 144.785156 213.535156 C 144.785156 213.535156 144.664062 213.558594 144.394531 213.644531 C 144.125 213.730469 143.699219 213.863281 143.066406 214.019531 C 142.4375 214.167969 141.59375 214.34375 140.492188 214.375 C 139.402344 214.402344 138.027344 214.296875 136.507812 213.691406 C 134.992188 213.078125 133.949219 212.246094 133.195312 211.539062 C 132.429688 210.824219 131.949219 210.203125 131.585938 209.746094 C 131.234375 209.292969 131.003906 208.988281 130.851562 208.796875 C 130.703125 208.609375 130.628906 208.550781 130.628906 208.550781 C 130.628906 208.550781 130.628906 208.667969 130.664062 208.949219 C 130.703125 209.226562 130.792969 209.667969 131.039062 210.289062 " fill-opacity="1" fill-rule="nonzero"/><path fill="#a9a0f0" d="M 74.417969 222.289062 C 74.710938 222.8125 75.203125 223.433594 75.960938 224.148438 C 76.738281 224.828125 77.816406 225.566406 79.292969 226.101562 C 80.875 226.671875 82.269531 226.765625 83.359375 226.679688 C 84.457031 226.578125 85.269531 226.347656 85.835938 226.085938 C 86.40625 225.847656 86.742188 225.589844 86.949219 225.433594 C 87.152344 225.273438 87.222656 225.191406 87.222656 225.191406 C 87.222656 225.191406 87.109375 225.1875 86.855469 225.21875 C 86.601562 225.246094 86.214844 225.320312 85.628906 225.371094 C 85.058594 225.441406 84.289062 225.472656 83.308594 225.425781 C 82.328125 225.371094 81.113281 225.191406 79.722656 224.679688 C 76.953125 223.613281 75.675781 222.328125 74.878906 221.679688 C 74.464844 221.347656 74.242188 221.097656 74.054688 220.980469 C 73.882812 220.851562 73.796875 220.816406 73.796875 220.816406 C 73.796875 220.816406 73.816406 220.921875 73.894531 221.160156 C 73.976562 221.398438 74.105469 221.785156 74.417969 222.289062 " fill-opacity="1" fill-rule="nonzero"/><path fill="#a9a0f0" d="M 102.464844 196.683594 C 103.09375 197.378906 104.046875 198.128906 105.429688 198.558594 C 106.898438 199.003906 108.152344 198.921875 109.09375 198.757812 C 110.046875 198.582031 110.726562 198.308594 111.210938 198.066406 C 111.695312 197.824219 111.996094 197.613281 112.171875 197.464844 C 112.351562 197.320312 112.414062 197.238281 112.414062 197.238281 C 112.414062 197.238281 112.316406 197.230469 112.089844 197.246094 C 111.863281 197.261719 111.507812 197.300781 110.992188 197.359375 C 110.476562 197.410156 109.796875 197.492188 108.929688 197.515625 C 108.066406 197.53125 106.996094 197.496094 105.800781 197.125 C 104.621094 196.742188 103.789062 196.160156 103.203125 195.652344 C 102.609375 195.136719 102.25 194.671875 101.984375 194.320312 C 101.722656 193.960938 101.558594 193.707031 101.453125 193.550781 C 101.339844 193.398438 101.277344 193.34375 101.277344 193.34375 C 101.277344 193.34375 101.257812 193.4375 101.238281 193.664062 C 101.222656 193.886719 101.234375 194.253906 101.378906 194.777344 C 101.527344 195.292969 101.835938 195.96875 102.464844 196.683594 " fill-opacity="1" fill-rule="nonzero"/><path fill="#a9a0f0" d="M 118.238281 218.863281 C 117.773438 219.171875 117.125 219.535156 116.257812 219.925781 C 115.390625 220.3125 114.269531 220.695312 112.851562 220.871094 C 110 221.1875 108.332031 220.671875 107.351562 220.484375 C 106.847656 220.390625 106.542969 220.28125 106.328125 220.261719 C 106.121094 220.234375 106.03125 220.246094 106.03125 220.246094 C 106.03125 220.246094 106.09375 220.328125 106.269531 220.496094 C 106.445312 220.664062 106.726562 220.941406 107.222656 221.234375 C 107.707031 221.554688 108.414062 221.863281 109.382812 222.140625 C 110.355469 222.378906 111.609375 222.527344 113.121094 222.328125 C 114.734375 222.117188 115.976562 221.578125 116.878906 221.015625 C 117.777344 220.441406 118.371094 219.882812 118.742188 219.40625 C 119.132812 218.945312 119.308594 218.578125 119.410156 218.347656 C 119.515625 218.117188 119.539062 218.015625 119.539062 218.015625 C 119.539062 218.015625 119.441406 218.0625 119.234375 218.195312 C 119.023438 218.332031 118.722656 218.5625 118.238281 218.863281 " fill-opacity="1" fill-rule="nonzero"/><path fill="#a9a0f0" d="M 42.691406 206.667969 C 43.179688 207.675781 43.964844 208.875 45.304688 209.972656 C 46.742188 211.132812 48.191406 211.648438 49.359375 211.878906 C 50.53125 212.109375 51.449219 212.0625 52.113281 211.964844 C 52.78125 211.863281 53.203125 211.710938 53.460938 211.597656 C 53.71875 211.484375 53.8125 211.417969 53.8125 211.417969 C 53.8125 211.417969 53.699219 211.390625 53.421875 211.371094 C 53.152344 211.34375 52.71875 211.308594 52.09375 211.222656 C 51.46875 211.132812 50.648438 210.996094 49.632812 210.65625 C 48.625 210.320312 47.40625 209.777344 46.179688 208.769531 C 44.953125 207.757812 44.203125 206.710938 43.671875 205.851562 C 43.140625 204.988281 42.835938 204.289062 42.597656 203.777344 C 42.367188 203.257812 42.21875 202.917969 42.117188 202.710938 C 42.015625 202.5 41.953125 202.429688 41.953125 202.429688 C 41.953125 202.429688 41.925781 202.542969 41.898438 202.816406 C 41.871094 203.085938 41.855469 203.523438 41.933594 204.160156 C 42.019531 204.796875 42.214844 205.644531 42.691406 206.667969 " fill-opacity="1" fill-rule="nonzero"/><path fill="#a9a0f0" d="M 130.609375 108.578125 C 132.144531 110.507812 133.644531 111.144531 134.492188 111.414062 C 134.929688 111.546875 135.242188 111.574219 135.4375 111.582031 C 135.632812 111.585938 135.71875 111.570312 135.71875 111.570312 C 135.71875 111.570312 135.667969 111.503906 135.53125 111.367188 C 135.394531 111.234375 135.167969 111.042969 134.839844 110.757812 C 134.203125 110.179688 133.082031 109.332031 131.738281 107.613281 C 130.429688 105.882812 129.875 104.710938 129.445312 104.058594 C 129.226562 103.730469 129.089844 103.515625 128.972656 103.390625 C 128.863281 103.265625 128.800781 103.226562 128.800781 103.226562 C 128.800781 103.226562 128.777344 103.308594 128.761719 103.496094 C 128.742188 103.683594 128.726562 103.984375 128.78125 104.417969 C 128.890625 105.269531 129.207031 106.753906 130.609375 108.578125 " fill-opacity="1" fill-rule="nonzero"/><path fill="#a9a0f0" d="M 100.976562 122.882812 C 100.828125 122.976562 100.601562 123.132812 100.3125 123.410156 C 99.746094 123.960938 98.847656 124.984375 98.152344 126.953125 C 97.4375 129.066406 97.585938 130.515625 97.753906 131.320312 C 97.839844 131.730469 97.957031 131.992188 98.035156 132.15625 C 98.117188 132.320312 98.171875 132.382812 98.171875 132.382812 C 98.171875 132.382812 98.210938 132.3125 98.269531 132.144531 C 98.324219 131.976562 98.398438 131.710938 98.496094 131.324219 C 98.703125 130.550781 98.917969 129.28125 99.574219 127.375 C 100.257812 125.484375 100.777344 124.414062 100.996094 123.71875 C 101.234375 123.035156 101.199219 122.761719 101.199219 122.761719 C 101.199219 122.761719 101.125 122.789062 100.976562 122.882812 " fill-opacity="1" fill-rule="nonzero"/><path fill="#a9a0f0" d="M 68.757812 134.058594 C 68.632812 134.117188 68.445312 134.214844 68.210938 134.414062 C 67.75 134.796875 67.019531 135.5625 66.527344 137.074219 C 66.019531 138.699219 66.25 139.808594 66.464844 140.398438 C 66.574219 140.699219 66.699219 140.886719 66.789062 141.003906 C 66.878906 141.117188 66.933594 141.160156 66.933594 141.160156 C 66.933594 141.160156 66.972656 141.105469 67.019531 140.976562 C 67.070312 140.84375 67.128906 140.644531 67.207031 140.355469 C 67.363281 139.777344 67.515625 138.847656 67.957031 137.460938 C 68.417969 136.089844 68.753906 135.292969 68.875 134.753906 C 69.007812 134.226562 68.945312 133.988281 68.945312 133.988281 C 68.945312 133.988281 68.882812 134 68.757812 134.058594 " fill-opacity="1" fill-rule="nonzero"/><path fill="#a9a0f0" d="M 49.335938 164.890625 C 49.082031 165.257812 48.769531 165.757812 48.433594 166.460938 C 48.109375 167.164062 47.75 168.078125 47.578125 169.285156 C 47.394531 170.585938 47.574219 171.6875 47.871094 172.503906 C 48.164062 173.328125 48.582031 173.878906 48.929688 174.230469 C 49.285156 174.574219 49.578125 174.738281 49.769531 174.820312 C 49.964844 174.902344 50.050781 174.914062 50.050781 174.914062 C 50.050781 174.914062 50.019531 174.828125 49.929688 174.65625 C 49.84375 174.480469 49.703125 174.207031 49.539062 173.804688 C 49.234375 173.007812 48.753906 171.632812 49.054688 169.425781 C 49.21875 168.316406 49.480469 167.4375 49.667969 166.722656 C 49.867188 166.007812 50 165.460938 50.070312 165.050781 C 50.222656 164.226562 50.125 163.945312 50.125 163.945312 C 50.125 163.945312 49.847656 164.15625 49.335938 164.890625 " fill-opacity="1" fill-rule="nonzero"/><path fill="#a9a0f0" d="M 67.617188 198.871094 C 66.972656 198.386719 66.171875 197.679688 65.238281 196.667969 C 64.316406 195.652344 63.28125 194.273438 62.414062 192.378906 C 61.550781 190.484375 61.183594 188.859375 60.972656 187.570312 C 60.921875 187.246094 60.882812 186.941406 60.84375 186.65625 C 60.820312 186.371094 60.800781 186.105469 60.785156 185.855469 C 60.726562 185.359375 60.742188 184.9375 60.726562 184.578125 C 60.683594 183.847656 60.742188 183.390625 60.703125 183.097656 C 60.6875 182.808594 60.65625 182.699219 60.65625 182.699219 C 60.65625 182.699219 60.589844 182.824219 60.457031 183.140625 C 60.328125 183.457031 60.113281 183.960938 59.964844 184.757812 C 59.777344 185.542969 59.691406 186.621094 59.753906 188.027344 C 59.875 189.425781 60.214844 191.15625 61.109375 193.085938 C 62.066406 195.152344 63.285156 196.597656 64.390625 197.589844 C 65.503906 198.574219 66.472656 199.175781 67.25 199.515625 C 68.007812 199.882812 68.558594 200.007812 68.902344 200.082031 C 69.242188 200.15625 69.382812 200.167969 69.382812 200.167969 C 69.382812 200.167969 69.273438 200.070312 68.992188 199.867188 C 68.707031 199.664062 68.246094 199.375 67.617188 198.871094 " fill-opacity="1" fill-rule="nonzero"/><path fill="#a9a0f0" d="M 67.191406 193.640625 C 67.53125 193.792969 67.785156 193.835938 67.945312 193.855469 C 68.109375 193.871094 68.179688 193.859375 68.179688 193.859375 C 68.179688 193.859375 68.15625 193.792969 68.074219 193.660156 C 67.992188 193.527344 67.851562 193.332031 67.648438 193.054688 C 67.257812 192.5 66.546875 191.664062 65.796875 190.160156 C 65.082031 188.644531 64.820312 187.679688 64.5625 187.113281 C 64.328125 186.539062 64.132812 186.363281 64.132812 186.363281 C 64.132812 186.363281 64.09375 186.421875 64.03125 186.566406 C 63.972656 186.707031 63.882812 186.933594 63.832031 187.285156 C 63.734375 187.96875 63.6875 189.203125 64.5 190.875 C 65.398438 192.648438 66.539062 193.347656 67.191406 193.640625 " fill-opacity="1" fill-rule="nonzero"/><path fill="#a9a0f0" d="M 88.105469 159.773438 C 88.445312 160.894531 88.972656 161.710938 89.472656 162.285156 C 89.984375 162.855469 90.453125 163.210938 90.835938 163.414062 C 91.214844 163.632812 91.503906 163.703125 91.6875 163.746094 C 91.867188 163.78125 91.949219 163.777344 91.949219 163.777344 C 91.949219 163.777344 91.917969 163.703125 91.816406 163.550781 C 91.710938 163.402344 91.550781 163.171875 91.328125 162.855469 C 90.890625 162.199219 90.085938 161.171875 89.503906 159.277344 C 88.964844 157.378906 89 156.191406 88.917969 155.480469 C 88.875 155.117188 88.867188 154.878906 88.820312 154.726562 C 88.785156 154.574219 88.753906 154.511719 88.753906 154.511719 C 88.753906 154.511719 88.695312 154.5625 88.589844 154.707031 C 88.484375 154.847656 88.316406 155.082031 88.167969 155.46875 C 87.867188 156.21875 87.476562 157.65625 88.105469 159.773438 " fill-opacity="1" fill-rule="nonzero"/><path fill="#a9a0f0" d="M 124.125 146.886719 C 124.824219 147.570312 125.441406 147.992188 125.941406 148.238281 C 126.429688 148.5 126.796875 148.59375 127.027344 148.640625 C 127.253906 148.695312 127.351562 148.695312 127.351562 148.695312 C 127.351562 148.695312 127.296875 148.609375 127.140625 148.441406 C 126.984375 148.273438 126.730469 148.027344 126.382812 147.636719 C 126.023438 147.265625 125.578125 146.746094 125.054688 146.042969 C 124.539062 145.335938 123.960938 144.414062 123.464844 143.191406 C 122.511719 140.734375 122.472656 139.144531 122.335938 138.222656 C 122.261719 137.753906 122.253906 137.453125 122.195312 137.265625 C 122.15625 137.070312 122.113281 137 122.113281 137 C 122.113281 137 122.058594 137.078125 121.960938 137.28125 C 121.859375 137.484375 121.703125 137.8125 121.582031 138.328125 C 121.34375 139.332031 121.074219 141.203125 122.121094 143.820312 C 122.6875 145.207031 123.4375 146.195312 124.125 146.886719 " fill-opacity="1" fill-rule="nonzero"/></svg>