<svg xmlns="http://www.w3.org/2000/svg" xmlns:xlink="http://www.w3.org/1999/xlink" width="400" zoomAndPan="magnify" viewBox="0 0 300 299.999988" height="400" preserveAspectRatio="xMidYMid meet" version="1.0"><path fill="#a9a0f0" d="M 185.421875 117.820312 C 185.6875 117.765625 186.007812 117.714844 185.421875 117.820312 Z M 185.421875 117.820312 " fill-opacity="1" fill-rule="nonzero"/><path fill="#a9a0f0" d="M 226.789062 73.773438 C 226.789062 73.71875 226.738281 73.71875 226.789062 73.773438 C 226.738281 73.71875 226.628906 73.664062 226.574219 73.609375 C 226.414062 73.503906 226.523438 73.664062 226.789062 73.773438 Z M 226.789062 73.773438 " fill-opacity="1" fill-rule="nonzero"/><path fill="#a9a0f0" d="M 92.070312 69.539062 C 92.445312 69.378906 92.5 69.269531 92.390625 69.269531 C 92.285156 69.378906 92.179688 69.429688 92.070312 69.539062 Z M 92.070312 69.539062 " fill-opacity="1" fill-rule="nonzero"/><path fill="#a9a0f0" d="M 210.179688 76.613281 C 210.125 76.503906 210.015625 76.34375 209.964844 76.238281 C 209.910156 76.128906 209.910156 76.183594 210.179688 76.613281 Z M 210.179688 76.613281 " fill-opacity="1" fill-rule="nonzero"/><path fill="#a9a0f0" d="M 88.371094 74.414062 C 88.265625 74.628906 88.105469 75.21875 88.371094 74.414062 Z M 88.371094 74.414062 " fill-opacity="1" fill-rule="nonzero"/><path fill="#a9a0f0" d="M 189.332031 60.429688 C 189.226562 60.429688 189.117188 60.375 189.011719 60.375 C 189.011719 60.375 188.957031 60.375 188.957031 60.375 C 189.386719 60.535156 189.4375 60.480469 189.332031 60.429688 Z M 189.332031 60.429688 " fill-opacity="1" fill-rule="nonzero"/><path fill="#a9a0f0" d="M 118.8125 43.601562 C 118.757812 43.601562 118.757812 43.65625 118.703125 43.65625 C 118.648438 43.707031 118.648438 43.707031 118.597656 43.761719 C 118.4375 43.921875 118.382812 43.976562 118.8125 43.601562 Z M 118.8125 43.601562 " fill-opacity="1" fill-rule="nonzero"/><path fill="#a9a0f0" d="M 206.695312 70.554688 C 206.640625 70.449219 206.585938 70.394531 206.535156 70.289062 C 206.535156 70.289062 206.480469 70.234375 206.480469 70.234375 C 206.695312 70.664062 206.75 70.664062 206.695312 70.554688 Z M 206.695312 70.554688 " fill-opacity="1" fill-rule="nonzero"/><path fill="#a9a0f0" d="M 175.132812 53.195312 C 175.078125 53.140625 174.96875 53.085938 174.863281 53.085938 C 174.917969 53.085938 175.023438 53.140625 175.132812 53.195312 C 175.078125 53.140625 175.132812 53.140625 175.132812 53.195312 Z M 175.132812 53.195312 " fill-opacity="1" fill-rule="nonzero"/><path fill="#a9a0f0" d="M 112.164062 72.644531 C 112.003906 72.433594 111.789062 72.164062 111.628906 71.949219 C 111.203125 71.519531 110.664062 71.199219 110.074219 71.039062 C 109.753906 70.984375 109.488281 70.929688 109.164062 70.929688 C 108.523438 70.929688 107.933594 71.09375 107.398438 71.414062 C 106.859375 71.734375 106.324219 72.109375 105.84375 72.539062 C 105.574219 72.753906 105.308594 73.019531 105.09375 73.289062 C 104.71875 73.773438 104.289062 74.253906 103.96875 74.84375 C 103.644531 75.378906 103.378906 76.023438 103.164062 76.613281 C 103.003906 77.09375 103.003906 77.523438 103.109375 78.003906 C 103.109375 78.488281 103.269531 78.914062 103.539062 79.292969 C 103.753906 79.71875 104.074219 80.042969 104.449219 80.253906 C 104.769531 80.578125 105.199219 80.792969 105.628906 80.898438 C 105.949219 80.953125 106.21875 81.007812 106.539062 81.007812 C 107.183594 81.007812 107.773438 80.84375 108.308594 80.523438 C 108.523438 80.363281 108.789062 80.148438 109.003906 79.988281 C 109.378906 79.613281 109.648438 79.183594 109.808594 78.703125 C 109.914062 78.488281 110.023438 78.273438 110.183594 78.058594 C 110.34375 77.898438 110.449219 77.738281 110.613281 77.628906 C 110.71875 77.578125 110.828125 77.46875 110.878906 77.414062 C 111.308594 77.199219 111.628906 76.878906 111.84375 76.503906 C 112.164062 76.183594 112.378906 75.753906 112.488281 75.324219 C 112.648438 74.84375 112.648438 74.414062 112.542969 73.933594 C 112.542969 73.503906 112.433594 73.074219 112.164062 72.644531 Z M 112.164062 72.644531 " fill-opacity="1" fill-rule="nonzero"/><path fill="#a9a0f0" d="M 192.601562 72.484375 C 192.28125 72.164062 191.957031 71.949219 191.582031 71.679688 C 191.476562 71.574219 191.367188 71.519531 191.207031 71.414062 C 191.101562 71.359375 190.941406 71.253906 190.832031 71.199219 C 190.457031 71.039062 190.027344 70.824219 189.652344 70.71875 C 189.117188 70.554688 188.527344 70.503906 187.9375 70.394531 C 187.617188 70.34375 187.347656 70.34375 187.027344 70.394531 C 186.546875 70.394531 186.117188 70.503906 185.6875 70.71875 C 185.257812 70.878906 184.882812 71.09375 184.5625 71.414062 C 184.242188 71.734375 183.972656 72.109375 183.867188 72.539062 C 183.652344 72.96875 183.542969 73.394531 183.542969 73.878906 C 183.597656 74.199219 183.652344 74.46875 183.652344 74.789062 C 183.8125 75.378906 184.132812 75.914062 184.5625 76.34375 C 184.777344 76.503906 185.046875 76.71875 185.257812 76.878906 C 185.796875 77.199219 186.386719 77.363281 187.027344 77.363281 C 187.1875 77.363281 187.402344 77.308594 187.5625 77.308594 C 187.617188 77.308594 187.617188 77.308594 187.671875 77.363281 C 187.671875 77.363281 187.722656 77.414062 187.722656 77.414062 C 188.046875 77.738281 188.367188 77.953125 188.796875 78.113281 C 189.226562 78.328125 189.652344 78.433594 190.136719 78.433594 C 190.617188 78.433594 191.046875 78.328125 191.476562 78.113281 C 191.90625 77.953125 192.28125 77.738281 192.601562 77.414062 C 192.761719 77.199219 192.976562 76.933594 193.136719 76.71875 C 193.457031 76.183594 193.617188 75.59375 193.617188 74.949219 C 193.566406 74.628906 193.511719 74.359375 193.511719 74.039062 C 193.351562 73.449219 193.03125 72.914062 192.601562 72.484375 Z M 192.601562 72.484375 " fill-opacity="1" fill-rule="nonzero"/><path fill="#a9a0f0" d="M 161.519531 79.183594 C 161.359375 78.96875 161.144531 78.703125 160.984375 78.488281 C 160.554688 78.058594 160.019531 77.738281 159.429688 77.578125 C 159.109375 77.523438 158.839844 77.46875 158.519531 77.46875 C 157.875 77.46875 157.285156 77.628906 156.75 77.953125 C 155.945312 78.328125 155.144531 78.703125 154.339844 79.078125 C 153.910156 79.292969 153.589844 79.613281 153.375 79.988281 C 153.054688 80.308594 152.839844 80.738281 152.730469 81.167969 C 152.570312 81.648438 152.570312 82.078125 152.679688 82.558594 C 152.679688 83.042969 152.839844 83.472656 153.105469 83.847656 C 153.269531 84.058594 153.480469 84.328125 153.644531 84.542969 C 154.070312 84.972656 154.605469 85.292969 155.195312 85.453125 C 155.519531 85.507812 155.785156 85.5625 156.109375 85.5625 C 156.75 85.5625 157.339844 85.398438 157.875 85.078125 C 158.679688 84.703125 159.484375 84.328125 160.289062 83.953125 C 160.714844 83.738281 161.039062 83.417969 161.253906 83.042969 C 161.574219 82.71875 161.789062 82.292969 161.894531 81.863281 C 162.054688 81.382812 162.054688 80.953125 161.949219 80.46875 C 161.949219 80.042969 161.789062 79.558594 161.519531 79.183594 Z M 161.519531 79.183594 " fill-opacity="1" fill-rule="nonzero"/><path fill="#a9a0f0" d="M 142.390625 50.460938 C 142.710938 50.996094 143.140625 51.371094 143.621094 51.695312 C 144.640625 52.28125 145.710938 52.820312 146.730469 53.410156 C 147.105469 53.675781 147.535156 53.785156 148.015625 53.835938 C 148.5 53.945312 148.925781 53.945312 149.410156 53.785156 C 149.839844 53.675781 150.265625 53.460938 150.589844 53.140625 C 150.964844 52.871094 151.285156 52.550781 151.5 52.175781 C 151.605469 51.90625 151.714844 51.640625 151.875 51.371094 C 152.035156 50.78125 152.035156 50.140625 151.875 49.550781 C 151.765625 49.28125 151.660156 49.015625 151.5 48.746094 C 151.179688 48.210938 150.75 47.835938 150.265625 47.511719 C 149.25 46.925781 148.175781 46.386719 147.160156 45.796875 C 146.785156 45.53125 146.355469 45.421875 145.871094 45.371094 C 145.390625 45.261719 144.960938 45.261719 144.480469 45.421875 C 144.050781 45.53125 143.621094 45.746094 143.300781 46.066406 C 142.925781 46.335938 142.605469 46.65625 142.390625 47.03125 C 142.28125 47.300781 142.175781 47.566406 142.015625 47.835938 C 141.851562 48.425781 141.851562 49.066406 142.015625 49.65625 C 142.121094 49.925781 142.28125 50.191406 142.390625 50.460938 Z M 142.390625 50.460938 " fill-opacity="1" fill-rule="nonzero"/><path fill="#a9a0f0" d="M 128.082031 70.289062 C 128.242188 70.71875 128.457031 71.09375 128.777344 71.414062 C 129.421875 72.003906 130.332031 72.484375 131.242188 72.433594 C 131.566406 72.378906 131.832031 72.324219 132.152344 72.324219 C 132.691406 72.164062 133.171875 71.894531 133.601562 71.519531 C 133.816406 71.359375 134.03125 71.253906 134.296875 71.09375 C 134.566406 70.984375 134.78125 70.929688 135.046875 70.878906 C 135.53125 70.878906 135.90625 70.769531 136.332031 70.554688 C 136.761719 70.394531 137.136719 70.179688 137.460938 69.859375 C 137.78125 69.539062 138.046875 69.164062 138.15625 68.734375 C 138.371094 68.304688 138.476562 67.875 138.476562 67.394531 C 138.425781 67.074219 138.371094 66.804688 138.371094 66.484375 C 138.210938 65.894531 137.886719 65.359375 137.460938 64.929688 C 136.816406 64.339844 135.90625 63.859375 134.996094 63.910156 C 134.351562 63.964844 133.707031 64.019531 133.066406 64.179688 C 132.691406 64.234375 132.367188 64.394531 132.046875 64.5 C 131.457031 64.714844 130.867188 64.984375 130.332031 65.304688 C 129.796875 65.625 129.261719 66.054688 128.777344 66.484375 C 128.457031 66.804688 128.1875 67.179688 128.082031 67.609375 C 127.867188 68.039062 127.761719 68.464844 127.761719 68.949219 C 127.761719 69.429688 127.867188 69.859375 128.082031 70.289062 Z M 128.082031 70.289062 " fill-opacity="1" fill-rule="nonzero"/><path fill="#a9a0f0" d="M 245.117188 238.179688 C 243.9375 236.890625 242.707031 235.660156 241.582031 234.375 C 241.3125 234.050781 241.042969 233.730469 240.777344 233.410156 C 240.777344 233.410156 240.722656 233.355469 240.722656 233.355469 C 240.617188 233.25 240.507812 233.085938 240.453125 232.980469 C 239.972656 232.285156 239.488281 231.585938 239.167969 230.835938 C 239.167969 230.835938 239.007812 230.460938 239.007812 230.410156 C 239.007812 230.410156 239.007812 230.410156 239.0625 230.410156 C 238.953125 230.085938 238.902344 229.765625 238.792969 229.445312 C 238.792969 229.230469 238.792969 228.960938 238.792969 228.746094 C 238.792969 228.53125 238.847656 228.316406 238.847656 228.105469 C 238.847656 228.050781 238.902344 227.941406 238.902344 227.890625 C 239.007812 227.191406 239.222656 226.550781 239.382812 225.851562 C 240.402344 222.316406 241.792969 218.832031 242.867188 215.296875 C 245.546875 206.722656 246.9375 197.828125 246.5625 188.878906 C 246.1875 180.945312 244.632812 173.125 242.382812 165.566406 C 238.042969 150.832031 231.558594 136.683594 229.09375 121.410156 C 229.039062 120.929688 228.933594 120.445312 228.878906 120.019531 C 228.828125 119.804688 228.828125 119.644531 228.773438 119.429688 C 228.773438 119.375 228.773438 119.375 228.773438 119.375 C 228.773438 119.320312 228.773438 119.265625 228.773438 119.214844 C 228.664062 118.25 228.558594 117.285156 228.449219 116.375 C 228.289062 114.765625 228.238281 113.160156 228.183594 111.550781 C 228.773438 111.121094 229.363281 110.695312 229.953125 110.265625 C 233.917969 107.15625 236.972656 103.191406 238.902344 98.527344 C 240.882812 93.707031 240.667969 88.238281 239.597656 83.257812 C 238.527344 78.328125 236.382812 73.289062 232.683594 69.753906 C 228.503906 65.785156 222.929688 63.75 217.25 63.644531 C 215 63.589844 212.75 63.859375 210.554688 64.339844 C 206.585938 59.945312 201.390625 56.675781 195.761719 54.910156 C 192.65625 53.890625 189.332031 53.410156 186.007812 53.355469 C 182.902344 53.300781 179.792969 53.890625 176.683594 53.675781 C 176.472656 53.621094 176.308594 53.621094 176.097656 53.570312 C 175.828125 53.515625 175.558594 53.410156 175.292969 53.300781 C 175.292969 53.300781 175.292969 53.300781 175.292969 53.355469 C 175.292969 53.355469 175.238281 53.355469 175.238281 53.300781 C 175.183594 53.300781 175.132812 53.246094 175.078125 53.246094 C 174.808594 53.195312 174.917969 53.140625 175.023438 53.195312 C 174.917969 53.140625 174.757812 53.085938 174.703125 53.03125 C 174.59375 52.980469 174.488281 52.871094 174.328125 52.820312 C 174.273438 52.765625 174.21875 52.765625 174.167969 52.710938 C 174.007812 52.496094 173.632812 52.28125 173.417969 52.070312 C 173.148438 51.800781 172.933594 51.585938 172.71875 51.316406 C 172.558594 51.105469 171.917969 50.140625 172.503906 51.050781 C 172.292969 50.675781 172.023438 50.355469 171.753906 50.03125 C 169.988281 47.460938 168.21875 44.941406 166.023438 42.746094 C 161.734375 38.296875 156.429688 34.972656 150.640625 32.832031 C 144.800781 30.632812 138.476562 30.042969 132.316406 30.902344 C 126.527344 31.707031 120.847656 33.902344 116.132812 37.277344 C 113.667969 39.046875 111.363281 41.03125 109.378906 43.332031 C 107.34375 45.746094 105.734375 48.371094 104.074219 51.050781 C 103.324219 52.28125 102.574219 53.515625 101.769531 54.695312 C 101.554688 54.960938 101.289062 55.230469 101.125 55.550781 C 101.019531 55.660156 100.964844 55.765625 100.859375 55.875 C 100.375 56.460938 99.894531 57 99.359375 57.480469 C 99.089844 57.695312 98.875 57.964844 98.609375 58.175781 C 98.554688 58.230469 98.449219 58.285156 98.394531 58.390625 C 97.699219 58.875 97.054688 59.304688 96.304688 59.679688 C 94.910156 60.429688 93.464844 61.019531 92.070312 61.714844 C 89.660156 62.894531 87.570312 64.394531 85.800781 66.269531 C 85.746094 66.269531 85.695312 66.269531 85.640625 66.269531 C 75.996094 65.359375 66.132812 71.039062 61.632812 79.503906 C 57.773438 86.738281 57.132812 96.117188 60.777344 103.566406 C 62.277344 106.566406 64.417969 109.140625 66.9375 111.230469 C 66.9375 111.28125 66.9375 111.390625 66.992188 111.445312 C 67.097656 111.980469 67.152344 112.460938 67.257812 112.996094 C 67.3125 113.265625 67.367188 113.535156 67.367188 113.855469 C 67.367188 113.910156 67.367188 113.910156 67.367188 113.960938 C 67.472656 115.085938 67.632812 116.214844 67.6875 117.390625 C 67.847656 119.480469 67.847656 121.625 67.796875 123.714844 C 67.742188 125.804688 67.582031 127.949219 67.3125 130.039062 C 67.257812 130.46875 67.207031 130.949219 67.152344 131.378906 C 67.152344 131.484375 67.097656 131.644531 67.097656 131.753906 C 67.046875 132.019531 67.046875 132.289062 66.992188 132.503906 C 66.832031 133.628906 66.617188 134.753906 66.402344 135.878906 C 64.847656 144.292969 62.328125 152.492188 59.917969 160.691406 C 57.507812 168.835938 55.09375 176.980469 53.808594 185.394531 C 53.164062 189.628906 52.738281 193.863281 52.84375 198.148438 C 52.898438 202.488281 53.488281 206.828125 54.503906 211.0625 C 55.523438 215.402344 56.808594 219.746094 57.453125 224.136719 C 57.453125 224.300781 57.507812 224.675781 57.507812 224.726562 C 57.507812 224.941406 57.558594 225.15625 57.558594 225.371094 C 57.613281 225.90625 57.667969 226.441406 57.667969 226.980469 C 57.722656 228.105469 57.667969 229.230469 57.558594 230.410156 C 57.558594 230.460938 57.558594 230.460938 57.558594 230.460938 C 57.507812 230.730469 57.453125 230.996094 57.398438 231.265625 C 57.292969 231.746094 57.183594 232.230469 57.023438 232.765625 C 56.863281 233.25 56.757812 233.675781 56.542969 234.105469 C 56.542969 234.160156 56.488281 234.160156 56.488281 234.214844 C 56.328125 234.535156 56.167969 234.855469 56.007812 235.175781 C 55.578125 235.929688 55.09375 236.625 54.613281 237.265625 C 54.558594 237.375 54.292969 237.644531 54.292969 237.695312 C 54.183594 237.855469 54.023438 238.019531 53.917969 238.179688 C 53.542969 238.605469 53.164062 239.089844 52.84375 239.570312 C 51.398438 241.449219 50.003906 243.324219 49.253906 245.628906 C 47.699219 250.394531 50.164062 255.164062 54.292969 257.628906 C 58.953125 260.363281 64.3125 259.667969 69.402344 258.808594 C 69.992188 258.703125 70.582031 258.59375 71.117188 258.542969 C 71.171875 258.542969 71.601562 258.488281 71.652344 258.488281 C 71.976562 258.433594 72.242188 258.433594 72.566406 258.382812 C 73.90625 258.273438 75.242188 258.21875 76.582031 258.21875 C 77.816406 258.21875 78.996094 258.273438 80.226562 258.382812 C 80.761719 258.433594 81.300781 258.488281 81.890625 258.542969 C 82.210938 258.59375 82.476562 258.59375 82.800781 258.648438 C 82.851562 258.648438 83.335938 258.703125 83.496094 258.757812 C 93.570312 260.203125 103.269531 263.6875 113.238281 265.667969 C 133.441406 269.742188 154.285156 269.957031 174.59375 266.417969 C 179.527344 265.5625 184.457031 264.488281 189.277344 263.148438 C 194.15625 261.8125 199.03125 260.257812 203.90625 258.917969 C 206.425781 258.21875 208.945312 257.628906 211.464844 257.148438 C 212.054688 257.042969 212.644531 256.933594 213.285156 256.828125 C 213.445312 256.773438 213.660156 256.773438 213.820312 256.773438 C 213.875 256.773438 214.25 256.71875 214.359375 256.71875 C 215.644531 256.558594 216.875 256.453125 218.164062 256.398438 C 219.394531 256.34375 220.574219 256.34375 221.804688 256.398438 C 222.394531 256.398438 223.039062 256.453125 223.628906 256.503906 C 223.949219 256.558594 224.21875 256.558594 224.539062 256.613281 C 224.59375 256.613281 224.59375 256.613281 224.644531 256.613281 C 224.859375 256.667969 225.074219 256.667969 225.289062 256.71875 C 225.824219 256.828125 226.414062 256.933594 226.949219 257.042969 C 231.71875 258.113281 236.757812 259.132812 241.6875 258.808594 C 244.472656 258.648438 247.367188 258.058594 249.511719 256.128906 C 251.921875 253.988281 252.296875 250.558594 251.492188 247.554688 C 250.207031 243.699219 247.636719 240.804688 245.117188 238.179688 Z M 236.597656 251.46875 C 236.273438 251.414062 235.953125 251.414062 235.632812 251.359375 C 235.523438 251.359375 235.308594 251.308594 235.148438 251.308594 C 234.933594 251.253906 234.722656 251.253906 234.613281 251.253906 C 234.292969 251.199219 233.96875 251.148438 233.648438 251.09375 C 231.71875 250.773438 229.789062 250.34375 227.863281 249.914062 C 224.21875 249.109375 220.414062 248.949219 216.714844 249.21875 C 206.425781 249.914062 196.78125 253.613281 186.921875 256.238281 C 182.152344 257.523438 177.273438 258.59375 172.398438 259.453125 C 171.273438 259.667969 170.09375 259.828125 168.96875 259.988281 C 168.378906 260.097656 167.738281 260.148438 167.148438 260.257812 C 167.039062 260.257812 166.933594 260.308594 166.878906 260.308594 C 166.824219 260.308594 166.71875 260.308594 166.609375 260.363281 C 166.234375 260.417969 165.859375 260.472656 165.539062 260.523438 C 163.128906 260.847656 160.664062 261.058594 158.25 261.273438 C 148.230469 262.023438 138.15625 261.863281 128.1875 260.792969 C 127.117188 260.683594 125.992188 260.523438 124.917969 260.417969 C 124.8125 260.417969 124.707031 260.417969 124.652344 260.363281 C 124.597656 260.363281 124.492188 260.363281 124.382812 260.308594 C 124.117188 260.257812 123.902344 260.257812 123.632812 260.203125 C 122.882812 260.097656 122.1875 259.988281 121.4375 259.882812 C 119.023438 259.507812 116.613281 259.078125 114.203125 258.542969 C 109.273438 257.523438 104.394531 256.183594 99.464844 254.898438 C 94.589844 253.613281 89.660156 252.378906 84.621094 251.683594 C 79.316406 250.933594 74.171875 250.824219 68.867188 251.628906 C 67.632812 251.789062 66.457031 252.003906 65.222656 252.21875 C 65.117188 252.21875 64.742188 252.273438 64.6875 252.273438 C 64.367188 252.324219 64.042969 252.324219 63.722656 252.378906 C 62.972656 252.433594 62.222656 252.488281 61.472656 252.433594 C 61.203125 252.433594 60.988281 252.378906 60.722656 252.378906 C 60.613281 252.378906 60.5625 252.378906 60.507812 252.378906 C 60.078125 252.273438 59.597656 252.21875 59.167969 252.058594 C 59.007812 252.003906 58.363281 251.734375 58.363281 251.734375 C 57.933594 251.523438 57.558594 251.308594 57.183594 251.09375 C 57.132812 251.09375 57.132812 251.039062 57.078125 251.039062 C 56.917969 250.878906 56.757812 250.773438 56.59375 250.609375 C 56.488281 250.503906 56.382812 250.34375 56.21875 250.234375 C 56.167969 250.183594 56.167969 250.183594 56.167969 250.183594 C 56.167969 250.183594 56.167969 250.128906 56.113281 250.128906 C 56.007812 249.96875 55.953125 249.859375 55.84375 249.699219 C 55.738281 249.484375 55.523438 248.789062 55.738281 249.59375 C 55.683594 249.433594 55.632812 249.269531 55.578125 249.109375 C 55.523438 249.003906 55.523438 248.894531 55.523438 248.84375 C 55.523438 248.628906 55.523438 248.414062 55.523438 248.199219 C 55.523438 248.144531 55.523438 248.09375 55.523438 248.039062 C 55.578125 247.71875 55.738281 247.34375 55.84375 247.074219 C 55.953125 246.859375 56.058594 246.644531 56.167969 246.484375 C 56.433594 246.003906 56.757812 245.519531 57.078125 245.089844 C 57.183594 244.929688 57.292969 244.769531 57.398438 244.609375 C 57.398438 244.609375 57.613281 244.339844 57.667969 244.234375 C 57.773438 244.125 57.882812 243.964844 57.882812 243.964844 C 58.042969 243.75 58.203125 243.589844 58.363281 243.375 C 59.113281 242.410156 59.917969 241.5 60.613281 240.484375 C 61.902344 238.660156 62.917969 236.679688 63.5625 234.535156 C 64.902344 229.980469 64.472656 225.15625 63.667969 220.546875 C 63.617188 220.171875 63.507812 219.796875 63.453125 219.367188 C 65.492188 218.78125 67.472656 217.921875 69.347656 216.957031 C 72.296875 215.457031 75.082031 213.582031 77.546875 211.382812 C 78.460938 210.582031 78.40625 208.917969 77.546875 208.117188 C 76.582031 207.203125 75.242188 207.257812 74.28125 208.117188 C 74.011719 208.382812 73.691406 208.597656 73.421875 208.867188 C 73.261719 208.972656 73.101562 209.132812 72.992188 209.242188 C 72.941406 209.292969 72.832031 209.347656 72.777344 209.402344 C 72.191406 209.832031 71.601562 210.257812 70.957031 210.6875 C 69.722656 211.546875 68.386719 212.296875 67.046875 212.9375 C 66.402344 213.261719 65.757812 213.582031 65.117188 213.851562 C 65.117188 213.851562 65.0625 213.851562 65.0625 213.851562 C 65.0625 213.851562 65.0625 213.851562 65.007812 213.851562 C 64.847656 213.902344 64.6875 213.957031 64.527344 214.0625 C 64.203125 214.171875 63.9375 214.277344 63.617188 214.386719 C 63.242188 214.546875 62.8125 214.652344 62.4375 214.761719 C 62.0625 213.261719 61.6875 211.757812 61.3125 210.257812 C 65.652344 207.847656 69.886719 205.007812 73.316406 201.417969 C 74.601562 200.023438 75.832031 198.523438 76.796875 196.863281 C 77.386719 195.789062 77.066406 194.289062 75.996094 193.699219 C 74.867188 193.109375 73.476562 193.433594 72.832031 194.503906 C 72.457031 195.148438 72.082031 195.738281 71.601562 196.378906 C 71.546875 196.433594 71.546875 196.488281 71.492188 196.539062 C 71.386719 196.648438 71.277344 196.808594 71.171875 196.914062 C 70.902344 197.183594 70.6875 197.503906 70.421875 197.773438 C 69.402344 198.898438 68.222656 199.96875 67.046875 200.933594 C 66.777344 201.203125 66.457031 201.417969 66.132812 201.632812 C 65.972656 201.738281 65.8125 201.898438 65.597656 202.007812 C 65.007812 202.433594 64.417969 202.863281 63.828125 203.238281 C 62.757812 203.9375 61.6875 204.632812 60.613281 205.277344 C 60.507812 205.328125 60.453125 205.382812 60.347656 205.4375 C 60.292969 205.007812 60.1875 204.632812 60.132812 204.203125 C 60.132812 204.097656 60.078125 203.773438 60.078125 203.773438 C 60.078125 203.667969 60.078125 203.613281 60.023438 203.507812 C 59.972656 202.917969 59.917969 202.328125 59.863281 201.738281 C 59.8125 200.828125 59.757812 199.96875 59.703125 199.058594 C 61.6875 197.878906 63.617188 196.539062 65.332031 194.988281 C 67.472656 193.058594 69.296875 190.808594 70.902344 188.449219 C 71.601562 187.429688 71.117188 185.824219 70.101562 185.289062 C 68.921875 184.644531 67.6875 185.074219 66.9375 186.089844 C 66.507812 186.679688 66.132812 187.214844 65.707031 187.804688 C 65.652344 187.859375 65.652344 187.859375 65.597656 187.914062 C 65.492188 188.019531 65.4375 188.128906 65.332031 188.234375 C 65.117188 188.503906 64.902344 188.769531 64.6875 189.039062 C 63.882812 190.003906 63.027344 190.859375 62.0625 191.71875 C 61.632812 192.09375 61.152344 192.46875 60.722656 192.84375 C 60.613281 192.949219 60.453125 193.058594 60.347656 193.109375 C 60.1875 193.21875 59.972656 193.378906 59.8125 193.488281 C 59.863281 192.199219 59.972656 190.914062 60.132812 189.628906 C 60.1875 189.144531 60.238281 188.664062 60.292969 188.128906 C 60.292969 188.074219 60.292969 188.019531 60.292969 187.96875 C 60.292969 187.804688 60.347656 187.589844 60.347656 187.429688 C 60.507812 186.414062 60.667969 185.339844 60.828125 184.324219 C 61.578125 180.195312 62.542969 176.175781 63.617188 172.160156 C 68.0625 155.761719 74.332031 139.523438 74.601562 122.320312 C 74.65625 120.179688 74.546875 118.035156 74.386719 115.945312 C 76.691406 117.070312 79.046875 118.035156 81.40625 118.839844 C 86.28125 120.5 91.375 121.679688 96.464844 122.644531 C 101.769531 123.660156 107.128906 124.464844 112.488281 125.109375 C 123.257812 126.394531 134.082031 126.984375 144.90625 127.039062 C 155.195312 127.089844 165.539062 126.714844 175.828125 125.804688 C 184.402344 125 193.03125 123.929688 201.390625 122 C 208.140625 120.445312 215.109375 118.464844 221.378906 115.410156 C 222.503906 129.34375 227.273438 142.523438 231.828125 155.707031 C 234.292969 162.835938 236.648438 170.015625 238.097656 177.355469 C 238.257812 178.265625 238.472656 179.179688 238.632812 180.144531 C 238.6875 180.625 238.792969 181.054688 238.847656 181.535156 C 238.902344 181.75 238.902344 182.019531 238.953125 182.234375 C 238.953125 182.339844 239.007812 182.449219 239.007812 182.5 C 239.007812 182.5 239.007812 182.554688 239.007812 182.609375 C 239.222656 184.484375 239.4375 186.414062 239.542969 188.289062 C 239.757812 192.359375 239.597656 196.433594 239.113281 200.453125 C 239.113281 200.507812 239.113281 200.558594 239.113281 200.667969 C 239.0625 200.933594 239.0625 201.148438 239.007812 201.417969 C 238.953125 201.898438 238.847656 202.328125 238.792969 202.8125 C 238.578125 203.9375 238.363281 205.007812 238.152344 206.132812 C 237.613281 208.4375 237.023438 210.742188 236.328125 212.992188 C 235.203125 216.582031 233.863281 220.066406 232.792969 223.65625 C 231.988281 226.390625 231.453125 229.335938 232.308594 232.121094 C 233.382812 235.660156 235.898438 238.5 238.363281 241.125 C 239.542969 242.410156 240.777344 243.589844 241.902344 244.929688 C 242.167969 245.253906 242.4375 245.574219 242.707031 245.894531 C 242.707031 245.894531 242.757812 245.949219 242.757812 246.003906 C 242.8125 246.109375 242.867188 246.164062 242.917969 246.269531 C 243.402344 246.914062 243.832031 247.609375 244.207031 248.304688 C 244.3125 248.519531 244.3125 248.949219 244.3125 248.519531 C 244.3125 248.039062 244.3125 248.519531 244.367188 248.734375 C 244.472656 249.058594 244.582031 249.433594 244.6875 249.753906 C 244.6875 249.753906 244.6875 249.753906 244.6875 249.808594 C 244.6875 249.859375 244.742188 249.96875 244.742188 250.128906 C 244.742188 250.183594 244.742188 250.183594 244.796875 250.183594 C 244.796875 250.183594 244.796875 250.183594 244.742188 250.128906 C 244.742188 250.34375 244.742188 250.503906 244.742188 250.71875 C 244.742188 250.71875 244.742188 250.773438 244.742188 250.773438 C 244.6875 250.824219 244.6875 250.878906 244.632812 250.933594 C 244.582031 250.984375 244.527344 251.039062 244.472656 251.039062 C 244.472656 251.039062 244.472656 251.039062 244.472656 251.09375 C 244.3125 251.199219 244.207031 251.253906 244.046875 251.308594 C 244.046875 251.308594 243.992188 251.308594 243.992188 251.308594 C 243.722656 251.359375 243.457031 251.46875 243.1875 251.523438 C 242.917969 251.574219 242.652344 251.628906 242.4375 251.683594 C 242.382812 251.683594 242.382812 251.683594 242.332031 251.683594 C 241.742188 251.734375 241.152344 251.789062 240.5625 251.789062 C 239.167969 251.683594 237.882812 251.628906 236.597656 251.46875 Z M 55.578125 248.734375 C 55.578125 248.628906 55.578125 248.574219 55.578125 248.734375 Z M 65.222656 90.757812 C 65.222656 90.542969 65.277344 90.332031 65.277344 90.167969 C 65.277344 90.167969 65.277344 90.117188 65.277344 90.0625 C 65.277344 89.953125 65.332031 89.742188 65.332031 89.6875 C 65.382812 89.472656 65.4375 89.203125 65.4375 88.992188 C 65.597656 88.027344 65.8125 87.113281 66.082031 86.203125 C 66.242188 85.667969 66.457031 85.078125 66.617188 84.542969 C 66.671875 84.433594 66.722656 84.273438 66.777344 84.167969 C 66.882812 83.953125 66.992188 83.683594 67.097656 83.472656 C 67.632812 82.453125 68.222656 81.488281 68.867188 80.523438 C 68.921875 80.417969 69.027344 80.363281 69.082031 80.253906 C 69.296875 79.933594 68.867188 80.523438 68.867188 80.46875 C 68.972656 80.253906 69.242188 80.042969 69.402344 79.828125 C 69.777344 79.398438 70.152344 78.96875 70.582031 78.539062 C 70.957031 78.164062 71.332031 77.789062 71.761719 77.46875 C 71.921875 77.308594 72.082031 77.199219 72.296875 77.039062 C 72.296875 77.039062 72.351562 76.988281 72.402344 76.933594 C 72.402344 76.933594 72.457031 76.878906 72.511719 76.878906 C 73.367188 76.238281 74.28125 75.648438 75.242188 75.164062 C 75.671875 74.898438 76.15625 74.683594 76.636719 74.46875 C 76.691406 74.46875 76.691406 74.46875 76.746094 74.414062 C 77.011719 74.308594 77.28125 74.199219 77.546875 74.09375 C 78.511719 73.773438 79.476562 73.503906 80.441406 73.289062 C 80.710938 73.234375 80.925781 73.183594 81.191406 73.128906 C 81.246094 73.128906 81.246094 73.128906 81.300781 73.128906 C 81.351562 73.128906 81.460938 73.128906 81.515625 73.128906 C 81.191406 74.09375 80.925781 75.058594 80.761719 76.074219 C 80.550781 77.363281 80.441406 78.59375 80.496094 79.878906 C 80.226562 79.773438 79.960938 79.71875 79.746094 79.667969 C 78.03125 79.128906 75.886719 80.308594 75.457031 82.078125 C 75.03125 83.953125 76.046875 85.773438 77.871094 86.363281 C 86.660156 89.152344 95.605469 91.347656 104.71875 93.007812 C 114.203125 94.722656 123.792969 95.851562 133.386719 96.4375 C 142.816406 96.976562 152.25 97.027344 161.679688 96.546875 C 171.328125 96.0625 180.972656 94.992188 190.511719 93.4375 C 199.675781 91.9375 208.730469 89.953125 217.625 87.382812 C 218.75 87.0625 219.824219 86.738281 220.894531 86.417969 C 222.609375 85.882812 223.894531 83.953125 223.308594 82.132812 C 222.71875 80.363281 220.894531 79.128906 219.019531 79.71875 C 218.804688 79.773438 218.589844 79.828125 218.375 79.878906 C 218 78.003906 217.410156 76.183594 216.660156 74.359375 C 216.125 73.074219 215.535156 71.84375 214.894531 70.664062 C 215.804688 70.609375 216.660156 70.554688 217.574219 70.609375 C 217.894531 70.609375 218.214844 70.664062 218.539062 70.664062 C 218.589844 70.664062 218.804688 70.664062 219.019531 70.71875 C 219.019531 70.71875 219.609375 70.824219 219.714844 70.824219 C 220.039062 70.878906 220.414062 70.929688 220.734375 71.039062 C 221.324219 71.199219 221.914062 71.359375 222.449219 71.519531 C 222.664062 71.574219 222.929688 71.679688 223.144531 71.789062 C 223.199219 71.789062 223.253906 71.84375 223.359375 71.84375 C 223.414062 71.84375 223.414062 71.894531 223.46875 71.894531 C 224.539062 72.378906 225.609375 72.96875 226.574219 73.664062 C 226.574219 73.664062 226.628906 73.664062 226.628906 73.71875 C 226.683594 73.71875 226.683594 73.773438 226.734375 73.824219 C 226.789062 73.824219 226.789062 73.878906 226.84375 73.878906 C 226.84375 73.878906 226.898438 73.878906 226.898438 73.878906 C 226.898438 73.878906 226.898438 73.878906 226.84375 73.878906 C 227.003906 74.039062 227.21875 74.199219 227.378906 74.359375 C 227.808594 74.734375 228.238281 75.164062 228.664062 75.648438 C 228.828125 75.808594 228.933594 75.96875 229.09375 76.128906 C 229.09375 76.128906 229.09375 76.183594 229.148438 76.183594 C 229.46875 76.664062 229.789062 77.09375 230.058594 77.578125 C 230.328125 78.058594 230.59375 78.488281 230.863281 78.96875 C 230.96875 79.183594 231.078125 79.398438 231.183594 79.613281 C 231.238281 79.71875 231.292969 79.828125 231.34375 79.988281 C 231.667969 81.113281 232.148438 82.183594 232.46875 83.308594 C 232.792969 84.488281 233.058594 85.667969 233.21875 86.847656 C 233.21875 86.902344 233.21875 86.902344 233.21875 86.953125 C 233.273438 87.222656 233.273438 87.542969 233.328125 87.8125 C 233.382812 88.402344 233.433594 89.042969 233.433594 89.632812 C 233.433594 90.707031 233.382812 91.722656 233.328125 92.742188 C 233.328125 92.847656 233.273438 93.117188 233.273438 93.117188 C 233.21875 93.332031 233.167969 93.546875 233.167969 93.757812 C 233.058594 94.296875 232.898438 94.777344 232.738281 95.3125 C 232.632812 95.582031 232.578125 95.796875 232.46875 96.0625 C 232.417969 96.226562 232.042969 96.976562 232.308594 96.546875 C 232.523438 96.117188 232.148438 96.8125 232.09375 96.976562 C 231.988281 97.242188 231.828125 97.511719 231.667969 97.777344 C 231.183594 98.742188 230.59375 99.65625 229.953125 100.511719 C 229.953125 100.511719 229.898438 100.566406 229.898438 100.617188 C 229.738281 100.832031 229.578125 101.046875 229.414062 101.261719 C 229.039062 101.691406 228.664062 102.121094 228.289062 102.546875 C 227.539062 103.351562 226.683594 104.101562 225.824219 104.796875 C 225.664062 104.960938 225.449219 105.066406 225.289062 105.226562 C 225.933594 104.585938 225.34375 105.175781 225.128906 105.335938 C 224.644531 105.710938 224.164062 106.03125 223.683594 106.351562 C 221.753906 107.640625 219.664062 108.765625 217.574219 109.730469 C 217.035156 109.941406 216.554688 110.210938 216.019531 110.425781 C 215.910156 110.480469 215.804688 110.53125 215.75 110.53125 C 215.429688 110.640625 215.109375 110.800781 214.785156 110.90625 C 213.660156 111.335938 212.535156 111.765625 211.410156 112.140625 C 209.050781 112.945312 206.695312 113.640625 204.28125 114.285156 C 200.476562 115.300781 196.621094 116.160156 192.761719 116.855469 C 190.832031 117.175781 188.851562 117.5 186.867188 117.765625 C 186.386719 117.820312 185.902344 117.875 185.472656 117.980469 C 185.527344 117.980469 185.582031 117.980469 185.632812 117.980469 C 185.527344 117.980469 185.472656 117.980469 185.421875 118.035156 C 185.097656 118.089844 184.832031 118.089844 184.507812 118.140625 C 183.4375 118.304688 182.3125 118.410156 181.242188 118.515625 C 171.703125 119.589844 162.109375 120.125 152.464844 120.285156 C 142.066406 120.445312 131.726562 120.125 121.382812 119.265625 C 118.757812 119.054688 116.183594 118.785156 113.558594 118.515625 C 112.328125 118.355469 111.09375 118.25 109.863281 118.089844 C 109.753906 118.089844 109.378906 117.980469 109.324219 118.035156 C 109.113281 117.980469 108.898438 117.980469 108.683594 117.925781 C 108.039062 117.820312 107.398438 117.765625 106.753906 117.660156 C 106.539062 117.605469 106.269531 117.605469 106.058594 117.550781 C 109.863281 114.285156 113.128906 110.371094 115.542969 105.976562 C 116.132812 104.90625 115.808594 103.40625 114.738281 102.816406 C 113.667969 102.226562 112.21875 102.496094 111.578125 103.621094 C 110.878906 104.90625 110.074219 106.136719 109.21875 107.371094 C 109.003906 107.691406 108.789062 108.015625 108.523438 108.28125 C 108.46875 108.335938 108.09375 108.816406 108.414062 108.441406 C 108.308594 108.601562 108.199219 108.765625 108.039062 108.871094 C 107.558594 109.460938 107.074219 109.996094 106.59375 110.53125 C 105.628906 111.605469 104.554688 112.675781 103.429688 113.640625 C 102.894531 114.121094 102.304688 114.605469 101.714844 115.035156 C 101.714844 115.035156 101.664062 115.085938 101.664062 115.085938 C 101.664062 115.085938 101.609375 115.140625 101.554688 115.140625 C 101.394531 115.25 101.234375 115.355469 101.074219 115.460938 C 100.75 115.675781 100.429688 115.890625 100.109375 116.105469 C 100 116.214844 99.839844 116.320312 99.734375 116.425781 C 98.449219 116.214844 97.160156 115.945312 95.875 115.675781 C 98.394531 113.320312 100.699219 110.695312 102.628906 107.746094 C 103.324219 106.726562 102.839844 105.121094 101.824219 104.585938 C 100.644531 103.941406 99.359375 104.316406 98.660156 105.386719 C 98.339844 105.871094 97.964844 106.40625 97.589844 106.890625 C 97.429688 107.101562 97.269531 107.316406 97.109375 107.53125 C 97.109375 107.53125 97.054688 107.585938 97.054688 107.585938 C 96.945312 107.746094 96.839844 107.851562 96.734375 108.015625 C 95.984375 108.925781 95.179688 109.835938 94.375 110.695312 C 93.570312 111.550781 92.714844 112.355469 91.800781 113.160156 C 91.320312 113.585938 90.890625 113.960938 90.410156 114.335938 C 90.410156 114.335938 90.355469 114.390625 90.355469 114.390625 C 88.585938 113.960938 86.765625 113.480469 85.050781 112.890625 C 83.816406 112.515625 82.585938 112.085938 81.351562 111.605469 C 80.871094 111.390625 80.335938 111.121094 79.800781 111.015625 C 80.65625 111.230469 79.851562 111.015625 79.585938 110.90625 C 79.316406 110.800781 78.996094 110.640625 78.726562 110.53125 C 76.796875 109.621094 74.976562 108.601562 73.261719 107.425781 C 72.886719 107.15625 72.511719 106.835938 72.136719 106.621094 C 72.136719 106.621094 72.136719 106.621094 72.082031 106.621094 C 71.867188 106.460938 71.707031 106.300781 71.492188 106.136719 C 70.851562 105.601562 70.207031 104.960938 69.617188 104.371094 C 69.347656 104.046875 69.082031 103.78125 68.8125 103.460938 C 68.707031 103.351562 68.597656 103.191406 68.492188 103.085938 C 68.492188 103.085938 68.492188 103.03125 68.4375 103.03125 C 68.007812 102.386719 67.527344 101.746094 67.152344 101.046875 C 66.992188 100.726562 66.777344 100.351562 66.617188 100.03125 C 66.5625 99.867188 66.507812 99.761719 66.402344 99.601562 C 66.132812 98.851562 65.867188 98.101562 65.707031 97.351562 C 65.597656 97.027344 65.542969 96.652344 65.492188 96.332031 C 65.4375 96.117188 65.4375 95.957031 65.382812 95.742188 C 65.332031 94.992188 65.222656 94.1875 65.222656 93.4375 C 65.117188 92.367188 65.167969 91.5625 65.222656 90.757812 Z M 92.230469 69.378906 C 92.285156 69.324219 92.339844 69.269531 92.390625 69.269531 C 92.445312 69.269531 92.445312 69.214844 92.5 69.214844 C 95.019531 67.5 98.019531 66.539062 100.589844 64.929688 C 103.484375 63.214844 105.683594 60.75 107.609375 58.015625 C 109.21875 55.710938 110.558594 53.246094 112.113281 50.835938 C 112.488281 50.300781 112.808594 49.765625 113.183594 49.226562 C 113.34375 49.015625 114.09375 48.15625 113.34375 48.960938 C 113.613281 48.691406 113.828125 48.316406 114.09375 48.050781 C 115.007812 47.03125 115.917969 46.011719 116.933594 45.101562 C 117.417969 44.671875 117.898438 44.246094 118.382812 43.871094 C 118.4375 43.816406 118.488281 43.816406 118.542969 43.761719 C 118.597656 43.707031 118.597656 43.707031 118.648438 43.707031 C 118.703125 43.65625 118.8125 43.601562 118.863281 43.546875 C 118.8125 43.601562 118.8125 43.601562 118.757812 43.65625 C 119.023438 43.441406 119.292969 43.226562 119.613281 43.066406 C 120.738281 42.261719 121.917969 41.566406 123.097656 40.921875 C 123.632812 40.601562 124.222656 40.332031 124.8125 40.066406 C 125.132812 39.902344 125.457031 39.796875 125.722656 39.636719 C 125.722656 39.636719 125.671875 39.636719 125.671875 39.691406 C 125.832031 39.636719 126.046875 39.527344 126.207031 39.476562 C 127.492188 38.992188 128.777344 38.566406 130.117188 38.242188 C 130.761719 38.082031 131.351562 37.976562 131.992188 37.8125 C 132.316406 37.761719 132.636719 37.707031 132.957031 37.652344 C 133.117188 37.601562 133.28125 37.601562 133.492188 37.601562 C 134.832031 37.4375 136.171875 37.332031 137.566406 37.332031 C 138.800781 37.332031 139.976562 37.4375 141.210938 37.546875 C 141.15625 37.546875 141.851562 37.601562 142.015625 37.652344 C 142.335938 37.707031 142.65625 37.761719 143.03125 37.8125 C 143.730469 37.976562 144.425781 38.082031 145.121094 38.296875 C 146.460938 38.617188 147.800781 39.046875 149.085938 39.582031 C 149.410156 39.691406 149.730469 39.851562 150.050781 39.957031 C 148.980469 39.582031 150.105469 40.011719 150.320312 40.117188 C 150.964844 40.441406 151.605469 40.707031 152.25 41.082031 C 153.480469 41.726562 154.660156 42.421875 155.839844 43.226562 C 156.375 43.601562 156.859375 43.976562 157.394531 44.351562 C 157.5 44.460938 157.660156 44.566406 157.769531 44.621094 C 158.089844 44.886719 158.410156 45.15625 158.679688 45.421875 C 159.699219 46.335938 160.664062 47.246094 161.628906 48.265625 C 162.109375 48.746094 162.539062 49.28125 162.96875 49.765625 C 163.128906 49.980469 163.34375 50.191406 163.503906 50.40625 C 163.609375 50.621094 163.769531 50.78125 163.929688 50.941406 C 165.859375 53.621094 167.523438 56.460938 170.253906 58.445312 C 173.09375 60.535156 176.738281 60.804688 180.167969 60.644531 C 181.667969 60.535156 183.167969 60.375 184.671875 60.320312 C 186.117188 60.265625 187.5625 60.375 189.011719 60.480469 C 189.011719 60.480469 188.957031 60.480469 188.957031 60.480469 C 189.011719 60.480469 189.011719 60.480469 189.0625 60.480469 C 189.117188 60.480469 189.171875 60.480469 189.226562 60.480469 C 189.277344 60.480469 189.386719 60.480469 189.386719 60.535156 C 189.4375 60.535156 189.546875 60.535156 189.601562 60.535156 C 189.921875 60.589844 190.242188 60.644531 190.566406 60.695312 C 191.316406 60.855469 192.066406 61.019531 192.816406 61.230469 C 193.511719 61.445312 194.207031 61.660156 194.90625 61.875 C 195.226562 61.980469 195.601562 62.144531 195.921875 62.25 C 195.921875 62.25 195.921875 62.25 195.976562 62.25 C 195.816406 62.195312 196.460938 62.464844 196.511719 62.464844 C 197.851562 63.054688 199.140625 63.75 200.316406 64.554688 C 200.90625 64.929688 201.496094 65.410156 202.085938 65.785156 C 201.230469 65.199219 202.246094 65.894531 202.40625 66.054688 C 202.730469 66.324219 203.050781 66.589844 203.371094 66.914062 C 204.390625 67.824219 205.355469 68.839844 206.265625 69.914062 C 206.371094 70.019531 206.425781 70.128906 206.535156 70.234375 C 206.535156 70.234375 206.535156 70.179688 206.480469 70.179688 C 206.480469 70.234375 206.535156 70.289062 206.585938 70.289062 C 206.585938 70.34375 206.640625 70.34375 206.640625 70.394531 C 206.695312 70.449219 206.75 70.503906 206.75 70.554688 C 206.855469 70.71875 206.960938 70.878906 207.070312 70.984375 C 207.5 71.628906 207.925781 72.269531 208.300781 72.914062 C 208.675781 73.503906 209 74.09375 209.320312 74.734375 C 209.589844 75.21875 209.75 75.753906 210.015625 76.238281 C 210.070312 76.289062 210.175781 76.449219 210.175781 76.558594 C 210.175781 76.558594 210.175781 76.613281 210.175781 76.613281 C 210.230469 76.71875 210.285156 76.824219 210.339844 76.988281 C 210.445312 77.308594 210.605469 77.628906 210.714844 77.953125 C 210.980469 78.648438 211.195312 79.398438 211.355469 80.148438 C 211.464844 80.628906 211.625 81.167969 211.730469 81.648438 C 205.300781 83.363281 198.761719 84.8125 192.171875 85.988281 C 189.867188 86.417969 187.5625 86.792969 185.257812 87.113281 C 184.132812 87.277344 183.007812 87.4375 181.882812 87.597656 C 181.882812 87.597656 181.828125 87.597656 181.828125 87.597656 C 181.777344 87.597656 181.722656 87.597656 181.722656 87.597656 C 181.453125 87.652344 181.132812 87.652344 180.867188 87.703125 C 180.277344 87.757812 179.6875 87.863281 179.097656 87.917969 C 174.433594 88.507812 169.71875 88.9375 165.058594 89.257812 C 155.679688 89.902344 146.300781 90.007812 136.871094 89.578125 C 132.207031 89.367188 127.546875 89.042969 122.9375 88.5625 C 120.632812 88.347656 118.273438 88.132812 115.96875 87.757812 C 115.96875 87.757812 116.667969 87.863281 116.292969 87.8125 C 116.183594 87.8125 116.023438 87.757812 115.917969 87.757812 C 115.648438 87.703125 115.328125 87.703125 115.058594 87.652344 C 114.417969 87.542969 113.828125 87.488281 113.183594 87.382812 C 112.058594 87.222656 110.988281 87.0625 109.863281 86.847656 C 102.304688 85.613281 94.804688 83.953125 87.410156 81.917969 C 87.515625 81.59375 87.515625 81.273438 87.515625 80.953125 C 87.460938 80.308594 87.410156 79.667969 87.410156 78.96875 C 87.410156 78.648438 87.460938 78.328125 87.460938 78.003906 C 87.460938 77.953125 87.460938 77.84375 87.460938 77.789062 C 87.460938 77.683594 87.515625 77.628906 87.515625 77.578125 C 87.621094 76.933594 87.785156 76.289062 87.996094 75.648438 C 88.105469 75.324219 88.210938 75.003906 88.320312 74.734375 C 88.371094 74.628906 88.425781 74.46875 88.480469 74.359375 C 88.480469 74.414062 88.480469 74.414062 88.425781 74.46875 C 88.695312 73.878906 89.015625 73.289062 89.335938 72.753906 C 89.5 72.484375 89.710938 72.21875 89.875 71.949219 C 89.925781 71.84375 89.980469 71.789062 90.035156 71.683594 C 90.085938 71.628906 90.140625 71.574219 90.140625 71.519531 C 90.570312 71.039062 91 70.554688 91.480469 70.074219 C 91.640625 69.914062 91.855469 69.753906 92.070312 69.589844 C 92.070312 69.589844 92.015625 69.589844 92.015625 69.644531 C 92.070312 69.644531 92.070312 69.589844 92.125 69.589844 C 92.125 69.484375 92.179688 69.429688 92.230469 69.378906 Z M 163.664062 50.515625 C 163.71875 50.566406 163.71875 50.566406 163.664062 50.515625 Z M 181.777344 87.597656 C 181.5625 87.652344 181.617188 87.652344 181.777344 87.597656 Z M 181.882812 87.597656 C 181.992188 87.597656 182.042969 87.597656 182.097656 87.542969 C 181.992188 87.597656 181.9375 87.597656 181.882812 87.597656 Z M 231.238281 79.828125 C 231.238281 79.828125 231.238281 79.878906 231.292969 79.878906 C 231.453125 80.253906 231.292969 80.042969 231.238281 79.828125 Z M 109.113281 117.765625 C 109.164062 117.765625 109.753906 117.875 109.378906 117.820312 C 109.324219 117.820312 109.21875 117.765625 109.113281 117.765625 Z M 229.578125 100.726562 C 229.578125 100.726562 229.683594 100.566406 229.738281 100.511719 C 229.683594 100.566406 229.628906 100.726562 229.578125 100.726562 Z M 244.472656 250.878906 C 244.421875 250.933594 244.421875 250.984375 244.367188 250.984375 C 244.421875 250.933594 244.472656 250.878906 244.472656 250.878906 Z M 244.742188 250.503906 C 244.796875 250.449219 244.796875 250.449219 244.847656 250.449219 C 244.796875 250.449219 244.796875 250.449219 244.742188 250.503906 Z M 101.179688 55.175781 C 101.234375 55.070312 101.289062 55.015625 101.179688 55.175781 Z M 101.179688 55.175781 " fill-opacity="1" fill-rule="nonzero"/><path fill="#a9a0f0" d="M 207.070312 159.726562 C 206.695312 156.511719 206.160156 153.082031 203.585938 150.882812 C 201.066406 148.742188 198.066406 148.152344 194.90625 147.777344 C 189.867188 147.1875 184.777344 146.863281 179.6875 146.597656 C 168.59375 146.0625 157.5 146.167969 146.410156 146.652344 C 135.207031 147.132812 124.0625 148.042969 112.917969 149.332031 C 110.023438 149.652344 107.128906 150.027344 104.289062 150.457031 C 103.003906 150.617188 101.714844 150.832031 100.429688 150.992188 C 99.25 151.152344 98.074219 151.3125 96.945312 151.796875 C 94.214844 152.921875 91.855469 154.902344 90.570312 157.636719 C 89.925781 159.082031 89.605469 160.421875 89.390625 161.976562 C 89.125 163.796875 88.910156 165.621094 88.640625 167.390625 C 87.085938 180.035156 86.550781 192.789062 87.085938 205.542969 C 87.140625 207.152344 87.246094 208.707031 87.355469 210.3125 C 87.460938 211.921875 87.570312 213.527344 87.890625 215.082031 C 88.265625 216.742188 89.070312 218.40625 90.300781 219.582031 C 91.589844 220.816406 93.195312 221.566406 94.855469 222.101562 C 97.699219 223.011719 100.589844 223.761719 103.484375 224.460938 C 106.433594 225.15625 109.378906 225.746094 112.378906 226.28125 C 124.597656 228.371094 136.976562 229.121094 149.355469 229.070312 C 161.628906 228.960938 173.84375 228.105469 186.007812 227.03125 C 189.0625 226.765625 192.117188 226.496094 195.121094 226.175781 C 198.226562 225.90625 201.871094 225.90625 204.550781 224.085938 C 209.855469 220.386719 209.320312 213.367188 209.425781 207.6875 C 209.589844 194.824219 209.105469 181.964844 207.980469 169.15625 C 207.710938 165.941406 207.390625 162.835938 207.070312 159.726562 Z M 202.40625 210.152344 C 202.40625 211.757812 202.355469 213.3125 202.191406 214.921875 C 202.085938 215.671875 201.871094 216.367188 201.65625 217.066406 C 201.605469 217.226562 201.496094 217.332031 201.441406 217.492188 C 201.550781 217.332031 201.390625 217.601562 201.230469 217.816406 C 201.175781 217.867188 201.175781 217.921875 201.121094 217.976562 C 201.175781 217.921875 201.175781 217.867188 201.230469 217.816406 C 201.121094 217.921875 201.015625 218.03125 200.960938 218.082031 C 200.746094 218.191406 200.53125 218.351562 200.316406 218.457031 C 199.78125 218.617188 199.246094 218.78125 198.65625 218.832031 C 196.296875 219.101562 193.886719 219.316406 191.476562 219.53125 C 188.851562 219.746094 186.277344 220.011719 183.652344 220.226562 C 178.398438 220.65625 173.203125 221.085938 167.949219 221.40625 C 157.554688 222.046875 147.160156 222.316406 136.761719 221.835938 C 131.136719 221.566406 125.457031 221.136719 119.882812 220.386719 C 115.808594 219.851562 111.738281 219.101562 107.71875 218.242188 C 105.683594 217.816406 103.644531 217.332031 101.609375 216.796875 C 99.789062 216.316406 97.910156 215.886719 96.195312 215.1875 C 96.035156 215.082031 95.820312 215.027344 95.660156 214.921875 C 95.554688 214.867188 95.5 214.8125 95.394531 214.761719 C 95.339844 214.707031 95.230469 214.601562 95.179688 214.546875 C 95.070312 214.386719 95.019531 214.277344 94.910156 214.117188 C 94.75 213.582031 94.589844 213.097656 94.535156 212.5625 C 94.214844 209.722656 94.160156 206.777344 94.054688 203.9375 C 93.945312 200.828125 93.890625 197.71875 93.890625 194.613281 C 93.945312 188.34375 94.214844 182.019531 94.75 175.75 C 95.070312 172.210938 95.445312 168.675781 95.929688 165.136719 C 95.875 165.460938 95.820312 165.726562 95.820312 166.050781 C 96.035156 164.335938 96.144531 162.511719 96.734375 160.851562 C 96.894531 160.53125 97.054688 160.207031 97.269531 159.941406 C 97.320312 159.886719 97.320312 159.832031 97.375 159.78125 C 97.484375 159.617188 97.644531 159.511719 97.75 159.351562 C 97.910156 159.191406 98.019531 159.082031 98.179688 158.921875 C 98.125 158.976562 98.074219 158.976562 97.964844 159.03125 C 98.019531 158.976562 98.125 158.921875 98.179688 158.867188 C 98.179688 158.867188 98.179688 158.867188 98.234375 158.816406 C 98.394531 158.65625 98.660156 158.546875 98.339844 158.761719 C 98.660156 158.546875 98.929688 158.386719 99.25 158.226562 C 100.429688 157.796875 101.714844 157.691406 102.949219 157.527344 C 104.34375 157.316406 105.734375 157.152344 107.074219 156.941406 C 118.597656 155.386719 130.226562 154.367188 141.855469 153.722656 C 153.644531 153.082031 165.484375 152.921875 177.328125 153.402344 C 183.222656 153.617188 189.117188 153.9375 195.011719 154.6875 C 196.03125 154.851562 197.101562 155.0625 198.066406 155.4375 C 198.226562 155.546875 198.441406 155.652344 198.601562 155.761719 C 198.65625 155.761719 198.65625 155.8125 198.710938 155.8125 C 198.65625 155.761719 198.601562 155.707031 198.550781 155.652344 C 198.65625 155.761719 198.816406 155.867188 198.925781 155.976562 C 199.03125 156.082031 199.085938 156.1875 199.191406 156.242188 C 199.300781 156.457031 199.40625 156.671875 199.566406 156.886719 C 199.835938 157.636719 199.996094 158.386719 200.101562 159.136719 C 200.101562 159.296875 200.15625 159.511719 200.15625 159.671875 C 201.765625 174.355469 202.570312 189.144531 202.515625 203.882812 C 202.460938 206.027344 202.460938 208.0625 202.40625 210.152344 Z M 202.40625 210.152344 " fill-opacity="1" fill-rule="nonzero"/><path fill="#a9a0f0" d="M 201.230469 217.816406 C 201.28125 217.761719 201.335938 217.65625 201.390625 217.601562 C 201.390625 217.601562 201.441406 217.546875 201.441406 217.546875 C 201.390625 217.546875 201.335938 217.65625 201.230469 217.816406 Z M 201.230469 217.816406 " fill-opacity="1" fill-rule="nonzero"/><path fill="#a9a0f0" d="M 198.65625 155.8125 C 199.085938 156.242188 198.925781 155.976562 198.65625 155.8125 Z M 198.65625 155.8125 " fill-opacity="1" fill-rule="nonzero"/><path fill="#a9a0f0" d="M 98.179688 158.867188 C 98.125 158.921875 98.125 158.921875 98.125 158.921875 C 98.179688 158.867188 98.285156 158.816406 98.339844 158.816406 C 98.285156 158.816406 98.234375 158.816406 98.179688 158.867188 Z M 98.179688 158.867188 " fill-opacity="1" fill-rule="nonzero"/><path fill="#a9a0f0" d="M 117.257812 173.070312 C 115.007812 173.550781 112.753906 173.980469 110.503906 174.460938 C 109.378906 174.675781 108.253906 174.945312 107.128906 175.160156 C 105.894531 175.425781 104.71875 175.640625 103.914062 176.714844 C 102.949219 177.945312 103.214844 179.285156 103.539062 180.679688 C 103.644531 181.160156 103.699219 181.644531 103.804688 182.125 C 103.804688 182.125 103.804688 182.125 103.804688 182.179688 C 103.804688 182.285156 103.804688 182.394531 103.859375 182.449219 C 103.914062 182.769531 103.914062 183.089844 103.96875 183.410156 C 104.128906 185.449219 104.128906 187.539062 103.914062 189.628906 C 103.914062 189.734375 103.914062 189.84375 103.859375 189.949219 C 103.859375 190.003906 103.859375 190.109375 103.804688 190.164062 C 103.753906 190.433594 103.699219 190.699219 103.644531 190.96875 C 103.539062 191.558594 103.429688 192.148438 103.269531 192.734375 C 103.003906 193.914062 102.628906 195.039062 102.253906 196.164062 C 101.824219 197.292969 102.734375 198.738281 103.859375 199.003906 C 105.144531 199.328125 106.269531 198.628906 106.699219 197.398438 C 107.558594 195.039062 108.09375 192.574219 108.414062 190.109375 C 111.414062 190.699219 114.578125 190.539062 117.523438 189.574219 C 118.648438 189.199219 119.5625 187.96875 119.132812 186.734375 C 118.757812 185.609375 117.523438 184.699219 116.292969 185.125 C 115.488281 185.394531 114.632812 185.609375 113.828125 185.714844 C 112.648438 185.875 111.414062 185.875 110.238281 185.714844 C 109.914062 185.664062 109.59375 185.609375 109.324219 185.554688 C 109.113281 185.5 108.949219 185.5 108.734375 185.5 C 108.734375 185.449219 108.734375 185.394531 108.734375 185.339844 C 108.683594 183.464844 108.46875 181.589844 108.09375 179.769531 C 108.148438 179.769531 108.148438 179.769531 108.199219 179.769531 C 109.273438 179.554688 110.289062 179.339844 111.363281 179.125 C 113.773438 178.640625 116.183594 178.105469 118.597656 177.625 C 119.773438 177.355469 120.578125 175.910156 120.203125 174.785156 C 119.667969 173.445312 118.542969 172.800781 117.257812 173.070312 Z M 107.824219 178.855469 C 107.824219 178.695312 107.878906 178.640625 107.824219 178.855469 Z M 107.074219 179.929688 C 107.023438 179.929688 107.023438 179.980469 106.96875 179.929688 C 106.96875 179.929688 107.023438 179.929688 107.074219 179.929688 Z M 107.074219 179.929688 " fill-opacity="1" fill-rule="nonzero"/><path fill="#a9a0f0" d="M 135.796875 193.058594 C 133.546875 192.898438 131.242188 193.058594 128.992188 193.378906 C 130.011719 187.859375 130.601562 182.234375 130.867188 176.660156 C 130.921875 175.425781 129.742188 174.300781 128.5625 174.355469 C 127.277344 174.410156 126.3125 175.375 126.257812 176.660156 C 126.097656 179.929688 125.832031 183.199219 125.402344 186.464844 C 125.402344 186.628906 125.347656 186.839844 125.347656 187.003906 C 125.347656 187.054688 125.347656 187.109375 125.347656 187.164062 C 125.347656 187.214844 125.347656 187.214844 125.347656 187.269531 C 125.292969 187.644531 125.242188 188.019531 125.1875 188.394531 C 125.082031 189.199219 124.917969 190.058594 124.8125 190.859375 C 124.542969 192.46875 124.222656 194.128906 123.902344 195.738281 C 123.527344 197.453125 124.972656 199.058594 126.742188 198.578125 C 127.492188 198.363281 128.296875 198.203125 129.101562 198.042969 C 129.3125 197.988281 129.527344 197.988281 129.742188 197.933594 C 129.796875 197.933594 129.957031 197.878906 130.0625 197.878906 C 130.171875 197.878906 130.386719 197.828125 130.4375 197.828125 C 130.652344 197.828125 130.867188 197.773438 131.082031 197.773438 C 132.691406 197.613281 134.296875 197.613281 135.851562 197.71875 C 137.085938 197.773438 138.210938 196.59375 138.15625 195.414062 C 138.046875 194.074219 137.085938 193.109375 135.796875 193.058594 Z M 135.796875 193.058594 " fill-opacity="1" fill-rule="nonzero"/><path fill="#a9a0f0" d="M 149.515625 174.570312 C 148.710938 174.460938 147.855469 174.625 147.265625 175.160156 C 147.050781 175.214844 146.785156 175.265625 146.570312 175.425781 C 142.980469 177.570312 140.726562 181.269531 140.351562 185.394531 C 139.976562 189.46875 141.851562 194.183594 145.496094 196.273438 C 149.625 198.683594 154.394531 196.328125 157.019531 192.84375 C 159.214844 189.949219 159.964844 185.769531 158.679688 182.339844 C 157.234375 178.429688 153.695312 175.214844 149.515625 174.570312 Z M 148.125 179.875 C 148.070312 179.929688 147.960938 179.980469 147.960938 179.980469 C 148.015625 179.980469 148.070312 179.929688 148.125 179.875 Z M 146.675781 181.320312 C 146.621094 181.375 146.570312 181.484375 146.570312 181.484375 C 146.570312 181.429688 146.621094 181.375 146.675781 181.320312 Z M 146.460938 191.128906 C 146.515625 191.183594 146.515625 191.234375 146.515625 191.234375 C 146.515625 191.234375 146.515625 191.183594 146.460938 191.128906 Z M 147.320312 192.039062 C 147.320312 192.039062 147.425781 192.09375 147.480469 192.148438 C 147.425781 192.09375 147.320312 192.039062 147.320312 192.039062 Z M 148.125 192.523438 C 148.175781 192.523438 148.230469 192.574219 148.230469 192.574219 C 148.230469 192.574219 148.175781 192.523438 148.125 192.523438 Z M 154.554688 186.789062 C 154.554688 186.839844 154.554688 186.949219 154.5 187.003906 C 154.445312 187.214844 154.445312 187.378906 154.394531 187.589844 C 154.285156 187.914062 154.230469 188.234375 154.125 188.554688 C 154.125 188.609375 154.125 188.609375 154.070312 188.664062 C 153.964844 188.769531 153.910156 189.09375 153.855469 189.199219 C 153.695312 189.519531 153.535156 189.789062 153.375 190.058594 C 153.320312 190.164062 153.214844 190.269531 153.160156 190.378906 C 153.105469 190.433594 153 190.59375 153 190.59375 C 152.785156 190.859375 152.570312 191.074219 152.304688 191.289062 C 152.195312 191.394531 152.035156 191.503906 151.929688 191.609375 C 151.875 191.664062 151.820312 191.71875 151.820312 191.71875 C 151.5 191.933594 151.125 192.148438 150.75 192.359375 C 150.75 192.359375 150.695312 192.414062 150.640625 192.414062 C 150.589844 192.414062 150.589844 192.46875 150.589844 192.46875 C 150.375 192.523438 150.160156 192.628906 149.945312 192.683594 C 149.890625 192.683594 149.675781 192.734375 149.570312 192.734375 C 149.464844 192.734375 149.25 192.734375 149.195312 192.734375 C 149.140625 192.734375 148.820312 192.683594 148.765625 192.683594 C 148.660156 192.628906 148.550781 192.628906 148.445312 192.574219 C 148.335938 192.574219 148.285156 192.523438 148.175781 192.46875 C 148.070312 192.414062 147.910156 192.308594 147.855469 192.308594 C 147.800781 192.308594 147.695312 192.199219 147.585938 192.148438 C 147.585938 192.148438 147.585938 192.148438 147.535156 192.09375 C 147.425781 192.039062 147.371094 191.933594 147.265625 191.878906 C 146.996094 191.609375 146.785156 191.34375 146.515625 191.128906 C 146.515625 191.074219 146.460938 191.074219 146.460938 191.074219 C 146.355469 190.914062 146.246094 190.753906 146.140625 190.539062 C 145.980469 190.269531 145.820312 189.949219 145.660156 189.628906 C 145.710938 189.734375 145.605469 189.46875 145.550781 189.304688 C 145.496094 189.09375 145.390625 188.878906 145.335938 188.664062 C 145.230469 188.289062 145.175781 187.914062 145.070312 187.539062 C 145.070312 187.484375 145.070312 187.429688 145.070312 187.429688 C 145.070312 187.214844 145.015625 187.003906 145.015625 186.734375 C 145.015625 186.304688 145.015625 185.824219 145.070312 185.394531 C 145.070312 185.394531 145.070312 185.394531 145.070312 185.339844 C 145.070312 185.289062 145.121094 185.179688 145.121094 185.125 C 145.175781 184.859375 145.230469 184.644531 145.28125 184.375 C 145.335938 184.160156 145.390625 184 145.445312 183.785156 C 145.496094 183.679688 145.496094 183.625 145.550781 183.519531 C 145.550781 183.519531 145.605469 183.410156 145.605469 183.359375 C 145.660156 183.25 145.710938 183.144531 145.765625 183.035156 C 145.871094 182.875 145.980469 182.660156 146.035156 182.5 C 146.246094 182.125 146.460938 181.804688 146.730469 181.484375 C 146.730469 181.484375 146.730469 181.429688 146.785156 181.429688 C 146.835938 181.375 146.890625 181.320312 146.890625 181.320312 C 147.050781 181.160156 147.160156 181 147.320312 180.839844 C 147.585938 180.519531 147.910156 180.25 148.230469 179.980469 C 148.230469 179.980469 148.285156 179.929688 148.285156 179.929688 C 148.335938 179.875 148.390625 179.875 148.390625 179.875 C 148.605469 179.769531 148.765625 179.605469 148.980469 179.5 C 149.085938 179.445312 149.195312 179.394531 149.25 179.285156 C 149.570312 179.394531 149.890625 179.445312 150.214844 179.554688 C 150.265625 179.554688 150.320312 179.605469 150.375 179.605469 C 150.535156 179.660156 150.640625 179.769531 150.800781 179.820312 C 151.125 179.980469 151.445312 180.195312 151.714844 180.355469 C 151.714844 180.355469 151.765625 180.410156 151.765625 180.410156 C 151.820312 180.519531 152.035156 180.625 152.140625 180.679688 C 152.410156 180.894531 152.679688 181.160156 152.890625 181.429688 C 153 181.535156 153.054688 181.589844 153.160156 181.695312 C 153.214844 181.75 153.269531 181.859375 153.320312 181.910156 C 153.535156 182.179688 153.695312 182.5 153.855469 182.824219 C 153.910156 182.984375 154.019531 183.089844 154.070312 183.25 C 154.070312 183.304688 154.125 183.359375 154.125 183.410156 C 154.230469 183.679688 154.339844 184 154.394531 184.269531 C 154.445312 184.429688 154.445312 184.589844 154.5 184.75 C 154.5 184.804688 154.5 184.804688 154.5 184.859375 C 154.445312 185.125 154.554688 185.609375 154.554688 185.875 C 154.605469 186.253906 154.554688 186.519531 154.554688 186.789062 Z M 154.554688 186.789062 " fill-opacity="1" fill-rule="nonzero"/><path fill="#a9a0f0" d="M 171.59375 190.109375 C 171.59375 190.164062 171.542969 190.21875 171.542969 190.21875 C 171.59375 190.164062 171.59375 190.109375 171.59375 190.109375 Z M 171.59375 190.109375 " fill-opacity="1" fill-rule="nonzero"/><path fill="#a9a0f0" d="M 168.96875 192.46875 C 168.863281 192.359375 168.753906 192.359375 168.808594 192.414062 C 168.863281 192.414062 168.863281 192.46875 168.96875 192.46875 C 168.914062 192.46875 168.96875 192.46875 168.96875 192.46875 Z M 168.96875 192.46875 " fill-opacity="1" fill-rule="nonzero"/><path fill="#a9a0f0" d="M 174.167969 173.765625 C 172.933594 174.140625 172.238281 175.375 172.558594 176.605469 C 172.71875 177.195312 172.828125 177.839844 172.933594 178.429688 C 172.988281 178.589844 172.988281 178.75 172.988281 178.964844 C 172.988281 178.964844 172.988281 179.019531 172.988281 179.070312 C 173.042969 179.394531 173.042969 179.769531 173.09375 180.089844 C 173.203125 181.375 173.203125 182.660156 173.042969 183.949219 C 173.042969 184.269531 172.988281 184.539062 172.933594 184.804688 C 172.933594 184.804688 172.933594 184.859375 172.933594 184.859375 C 172.878906 185.019531 172.878906 185.179688 172.828125 185.394531 C 172.71875 186.039062 172.558594 186.679688 172.398438 187.324219 C 172.238281 187.914062 172.078125 188.503906 171.863281 189.09375 C 171.753906 189.414062 171.648438 189.734375 171.488281 190.058594 C 171.488281 190.058594 171.488281 190.058594 171.488281 190.109375 C 171.488281 190.109375 171.488281 190.109375 171.488281 190.058594 C 171.488281 190.058594 171.488281 190.058594 171.488281 190.109375 C 171.433594 190.21875 171.378906 190.324219 171.433594 190.21875 C 171.378906 190.378906 171.328125 190.484375 171.21875 190.644531 C 171.058594 190.914062 170.953125 191.183594 170.789062 191.449219 C 170.738281 191.503906 170.683594 191.609375 170.628906 191.664062 C 170.578125 191.71875 170.523438 191.773438 170.46875 191.824219 C 170.363281 191.933594 170.308594 191.984375 170.203125 192.09375 C 170.203125 192.09375 169.988281 192.253906 169.933594 192.308594 C 169.878906 192.359375 169.828125 192.359375 169.773438 192.414062 C 169.71875 192.46875 169.664062 192.46875 169.613281 192.523438 C 169.558594 192.523438 169.558594 192.574219 169.503906 192.574219 C 169.398438 192.628906 169.289062 192.628906 169.183594 192.683594 C 169.238281 192.683594 169.238281 192.683594 169.128906 192.683594 C 169.023438 192.683594 168.96875 192.734375 168.96875 192.734375 C 168.96875 192.734375 168.96875 192.734375 169.023438 192.734375 C 169.023438 192.734375 169.023438 192.734375 168.96875 192.734375 C 168.96875 192.734375 168.914062 192.734375 168.914062 192.734375 C 168.863281 192.734375 168.808594 192.683594 168.753906 192.683594 C 168.753906 192.683594 168.808594 192.683594 168.808594 192.734375 C 168.808594 192.734375 168.753906 192.683594 168.753906 192.683594 C 168.699219 192.683594 168.648438 192.628906 168.648438 192.628906 C 168.488281 192.574219 168.273438 192.46875 168.21875 192.359375 C 168.273438 192.414062 168.378906 192.46875 168.433594 192.523438 C 168.378906 192.46875 168.324219 192.414062 168.273438 192.359375 C 168.164062 192.253906 168.058594 192.199219 168.003906 192.09375 C 168.003906 192.09375 167.949219 192.039062 167.949219 191.984375 C 167.949219 192.039062 167.949219 192.039062 167.84375 191.878906 C 167.84375 191.878906 167.84375 191.824219 167.789062 191.824219 C 167.789062 191.824219 167.789062 191.773438 167.738281 191.773438 C 167.574219 191.558594 167.46875 191.34375 167.308594 191.128906 C 167.253906 191.019531 167.148438 190.644531 167.039062 190.484375 C 167.09375 190.59375 167.09375 190.699219 166.984375 190.484375 C 166.984375 190.484375 166.984375 190.433594 166.933594 190.433594 C 166.878906 190.324219 166.824219 190.21875 166.824219 190.109375 C 166.71875 189.789062 166.609375 189.519531 166.558594 189.199219 C 166.34375 188.503906 166.234375 187.859375 166.128906 187.164062 C 166.128906 187.003906 166.074219 186.894531 166.074219 186.734375 C 166.183594 187.269531 166.074219 186.574219 166.074219 186.519531 C 166.023438 186.144531 166.023438 185.824219 165.96875 185.449219 C 165.914062 184.699219 165.914062 183.949219 165.859375 183.199219 C 165.859375 181.644531 165.914062 180.144531 165.96875 178.640625 C 166.023438 177.410156 164.84375 176.285156 163.664062 176.339844 C 162.378906 176.390625 161.414062 177.355469 161.359375 178.640625 C 161.253906 181.859375 161.144531 185.019531 161.679688 188.179688 C 162.109375 190.914062 163.019531 193.96875 165.164062 195.789062 C 166.34375 196.808594 167.84375 197.503906 169.449219 197.34375 C 171.21875 197.183594 172.828125 196.328125 174.007812 194.933594 C 175.988281 192.574219 176.898438 189.253906 177.328125 186.253906 C 177.863281 182.660156 177.757812 179.070312 176.898438 175.535156 C 176.738281 174.195312 175.347656 173.390625 174.167969 173.765625 Z M 169.023438 192.523438 Z M 173.042969 184.804688 C 173.042969 184.539062 173.042969 184.644531 173.042969 184.804688 Z M 173.042969 184.804688 " fill-opacity="1" fill-rule="nonzero"/><path fill="#a9a0f0" d="M 167.199219 190.324219 C 167.199219 190.269531 167.148438 190.269531 167.148438 190.21875 C 167.199219 190.269531 167.199219 190.269531 167.199219 190.324219 Z M 167.199219 190.324219 " fill-opacity="1" fill-rule="nonzero"/><path fill="#a9a0f0" d="M 169.34375 192.523438 C 169.34375 192.523438 169.398438 192.523438 169.34375 192.523438 C 169.34375 192.523438 169.238281 192.46875 169.183594 192.523438 C 169.183594 192.523438 169.238281 192.523438 169.238281 192.523438 C 169.289062 192.523438 169.34375 192.523438 169.34375 192.523438 Z M 169.34375 192.523438 " fill-opacity="1" fill-rule="nonzero"/><path fill="#a9a0f0" d="M 168.058594 191.773438 C 168.058594 191.71875 168.003906 191.609375 167.949219 191.609375 C 167.949219 191.664062 168.003906 191.71875 168.058594 191.773438 Z M 168.058594 191.773438 " fill-opacity="1" fill-rule="nonzero"/><path fill="#a9a0f0" d="M 195.65625 189.199219 C 194.046875 187.804688 192.226562 186.679688 190.296875 185.769531 C 191.367188 184.804688 192.332031 183.679688 192.921875 182.339844 C 194.371094 179.230469 194.101562 175.320312 191.367188 172.960938 C 188.902344 170.765625 184.777344 170.65625 182.527344 173.230469 C 181.347656 174.625 180.972656 176.339844 180.917969 178.105469 C 180.867188 179.820312 180.867188 181.535156 180.867188 183.199219 C 180.8125 187.164062 180.8125 191.183594 180.757812 195.148438 C 180.757812 196.378906 181.828125 197.503906 183.0625 197.453125 C 184.347656 197.398438 185.367188 196.433594 185.367188 195.148438 C 185.367188 193.058594 185.421875 190.96875 185.421875 188.878906 C 185.847656 188.984375 186.222656 189.09375 186.652344 189.253906 C 186.972656 189.359375 187.296875 189.46875 187.617188 189.628906 C 187.722656 189.683594 187.886719 189.734375 187.9375 189.734375 C 188.152344 189.84375 188.367188 189.949219 188.527344 190.003906 C 189.277344 190.378906 189.976562 190.753906 190.617188 191.183594 C 190.941406 191.394531 191.261719 191.609375 191.582031 191.824219 C 191.636719 191.878906 191.796875 191.984375 191.851562 192.039062 C 192.011719 192.199219 192.171875 192.308594 192.332031 192.46875 C 193.242188 193.273438 194.691406 193.433594 195.601562 192.46875 C 196.460938 191.609375 196.671875 190.003906 195.65625 189.199219 Z M 189.226562 178.160156 C 189.226562 178.105469 189.226562 178.105469 189.226562 178.054688 C 189.226562 178.105469 189.277344 178.160156 189.226562 178.160156 Z M 188.261719 176.230469 C 188.261719 176.230469 188.207031 176.175781 188.207031 176.175781 C 188.207031 176.175781 188.207031 176.175781 188.261719 176.230469 Z M 186.277344 176.015625 C 186.222656 176.070312 186.222656 176.070312 186.171875 176.125 C 186.222656 176.070312 186.277344 176.015625 186.277344 176.015625 Z M 185.632812 177.355469 C 185.632812 177.195312 185.6875 177.089844 185.6875 176.980469 C 185.742188 176.820312 185.796875 176.714844 185.796875 176.550781 C 185.796875 176.550781 185.796875 176.5 185.847656 176.5 C 185.847656 176.5 185.902344 176.390625 185.957031 176.339844 C 185.957031 176.339844 186.007812 176.339844 186.007812 176.285156 C 186.007812 176.285156 186.0625 176.230469 186.117188 176.175781 C 186.171875 176.125 186.222656 176.070312 186.332031 176.070312 C 186.386719 176.070312 186.597656 175.964844 186.597656 175.964844 C 186.707031 175.964844 186.761719 175.910156 186.867188 175.910156 C 186.972656 175.910156 187.1875 175.910156 187.296875 175.910156 C 187.1875 175.855469 187.136719 175.855469 187.402344 175.910156 C 187.457031 175.910156 187.511719 175.910156 187.511719 175.910156 C 187.617188 175.964844 187.722656 176.015625 187.832031 176.015625 C 187.9375 176.070312 187.992188 176.125 188.101562 176.175781 C 188.152344 176.230469 188.207031 176.230469 188.261719 176.285156 C 188.3125 176.339844 188.421875 176.445312 188.421875 176.445312 C 188.476562 176.5 188.582031 176.605469 188.636719 176.714844 C 188.636719 176.714844 188.636719 176.765625 188.636719 176.765625 C 188.6875 176.820312 188.796875 177.140625 188.902344 177.355469 C 188.902344 177.304688 188.902344 177.25 189.011719 177.464844 C 189.011719 177.464844 189.011719 177.464844 189.0625 177.464844 C 189.117188 177.570312 189.171875 177.730469 189.171875 177.890625 C 189.171875 177.890625 189.226562 178 189.226562 178.054688 C 189.226562 178.105469 189.226562 178.105469 189.226562 178.160156 C 189.226562 178.429688 189.226562 178.695312 189.226562 178.964844 C 189.171875 179.179688 189.117188 179.394531 189.0625 179.605469 C 189.011719 179.714844 189.011719 179.820312 188.957031 179.980469 C 188.957031 180.035156 188.957031 180.035156 188.902344 180.089844 C 188.902344 180.089844 188.902344 180.144531 188.851562 180.144531 C 188.6875 180.464844 188.476562 180.839844 188.261719 181.160156 C 188.207031 181.269531 188.101562 181.375 188.046875 181.484375 C 188.367188 181.054688 187.992188 181.535156 187.9375 181.589844 C 187.722656 181.859375 187.457031 182.070312 187.1875 182.339844 C 187.082031 182.449219 186.972656 182.554688 186.8125 182.660156 C 186.8125 182.660156 186.761719 182.660156 186.761719 182.714844 C 186.761719 182.714844 186.707031 182.769531 186.652344 182.769531 C 186.386719 182.984375 186.0625 183.144531 185.796875 183.359375 C 185.6875 183.410156 185.582031 183.464844 185.472656 183.519531 C 185.582031 181.429688 185.582031 179.394531 185.632812 177.355469 Z M 185.632812 177.355469 " fill-opacity="1" fill-rule="nonzero"/><path fill="#a9a0f0" d="M 187.457031 175.855469 C 187.402344 175.855469 187.402344 175.855469 187.457031 175.855469 C 187.402344 175.855469 187.402344 175.855469 187.347656 175.855469 C 187.402344 175.855469 187.457031 175.910156 187.511719 175.855469 C 187.457031 175.855469 187.457031 175.855469 187.457031 175.855469 Z M 187.457031 175.855469 " fill-opacity="1" fill-rule="nonzero"/><path fill="#a9a0f0" d="M 189.0625 177.410156 C 189.0625 177.410156 189.011719 177.355469 188.957031 177.304688 C 189.011719 177.304688 189.011719 177.355469 189.0625 177.410156 Z M 189.0625 177.410156 " fill-opacity="1" fill-rule="nonzero"/><path fill="#a9a0f0" d="M 232.953125 204.632812 C 234.667969 201.738281 235.523438 198.253906 235.203125 194.878906 C 235.097656 193.699219 234.238281 192.523438 232.898438 192.574219 C 231.71875 192.628906 230.488281 193.59375 230.59375 194.878906 C 230.648438 195.628906 230.648438 196.378906 230.59375 197.128906 C 230.59375 197.292969 230.59375 197.453125 230.542969 197.558594 C 230.542969 197.613281 230.542969 197.667969 230.542969 197.71875 C 230.488281 198.042969 230.433594 198.363281 230.378906 198.683594 C 230.21875 199.382812 230.003906 200.023438 229.789062 200.667969 C 229.789062 200.71875 229.738281 200.773438 229.738281 200.828125 C 229.683594 200.933594 229.628906 201.097656 229.578125 201.203125 C 229.414062 201.578125 229.203125 201.898438 228.988281 202.273438 C 228.398438 203.292969 228.71875 204.847656 229.789062 205.4375 C 230.863281 206.027344 232.253906 205.757812 232.953125 204.632812 Z M 232.953125 204.632812 " fill-opacity="1" fill-rule="nonzero"/><path fill="#a9a0f0" d="M 130.921875 252.59375 C 130.546875 252.59375 130.117188 252.59375 129.742188 252.59375 C 129.367188 252.59375 128.886719 252.59375 128.5625 252.488281 C 128.886719 252.539062 128.9375 252.539062 128.671875 252.488281 C 128.5625 252.488281 128.457031 252.433594 128.347656 252.433594 C 128.1875 252.378906 128.027344 252.378906 127.867188 252.324219 C 127.4375 252.21875 127.007812 252.164062 126.632812 252.058594 C 126.257812 251.949219 125.882812 251.84375 125.507812 251.734375 C 125.292969 251.683594 125.132812 251.628906 124.972656 251.523438 C 124.972656 251.523438 124.8125 251.46875 124.707031 251.414062 C 124.652344 251.414062 124.332031 251.253906 124.277344 251.199219 C 124.117188 251.09375 123.902344 251.039062 123.742188 250.933594 C 123.367188 250.71875 122.992188 250.558594 122.617188 250.34375 C 121.597656 249.753906 120.042969 250.074219 119.453125 251.148438 C 118.863281 252.273438 119.1875 253.664062 120.257812 254.308594 C 123.527344 256.238281 127.222656 257.253906 131.027344 257.203125 C 132.261719 257.203125 133.386719 256.128906 133.332031 254.898438 C 133.171875 253.664062 132.261719 252.59375 130.921875 252.59375 Z M 130.921875 252.59375 " fill-opacity="1" fill-rule="nonzero"/><path fill="#a9a0f0" d="M 201.066406 109.730469 C 204.121094 109.675781 207.175781 108.710938 209.695312 106.941406 C 210.179688 106.566406 210.605469 106.191406 210.765625 105.550781 C 210.929688 105.011719 210.875 104.261719 210.554688 103.78125 C 209.910156 102.816406 208.464844 102.226562 207.390625 102.976562 C 206.695312 103.460938 205.945312 103.886719 205.140625 104.261719 C 204.230469 104.636719 203.265625 104.90625 202.300781 105.066406 C 201.925781 105.121094 201.496094 105.121094 201.121094 105.175781 C 199.890625 105.226562 198.761719 106.191406 198.816406 107.476562 C 198.761719 108.65625 199.726562 109.78125 201.066406 109.730469 Z M 201.066406 109.730469 " fill-opacity="1" fill-rule="nonzero"/></svg>