<svg xmlns="http://www.w3.org/2000/svg" xmlns:xlink="http://www.w3.org/1999/xlink" width="400" zoomAndPan="magnify" viewBox="0 0 300 299.999988" height="400" preserveAspectRatio="xMidYMid meet" version="1.0"><defs><clipPath id="ed02e16b84"><path d="M 30 66.148438 L 270 66.148438 L 270 234 L 30 234 Z M 30 66.148438 " clip-rule="nonzero"/></clipPath></defs><path fill="#a9a0f0" d="M 183.894531 90.683594 C 183.894531 90.683594 183.894531 90.667969 183.878906 90.667969 C 183.878906 90.683594 183.894531 90.703125 183.894531 90.71875 C 183.914062 90.703125 183.914062 90.703125 183.894531 90.683594 Z M 183.894531 90.683594 " fill-opacity="1" fill-rule="nonzero"/><g clip-path="url(#ed02e16b84)"><path fill="#a9a0f0" d="M 269.816406 133.828125 C 269.664062 131.164062 269.597656 128.484375 269.347656 125.835938 C 269.398438 124.582031 268.960938 123.808594 268.390625 123.457031 C 267.605469 121.796875 266.96875 120.023438 265.710938 118.648438 C 265.695312 118.632812 265.660156 118.617188 265.644531 118.597656 C 265.578125 118.53125 265.527344 118.449219 265.441406 118.398438 C 265.308594 118.179688 265.109375 117.980469 264.824219 117.8125 C 260.984375 116.152344 256.832031 115.246094 252.808594 114.140625 C 251.316406 113.671875 249.84375 113.203125 248.351562 112.75 C 244.363281 111.394531 240.476562 109.703125 236.390625 108.644531 C 235 108.160156 233.625 107.675781 232.199219 107.304688 C 232.03125 107.238281 231.867188 107.1875 231.699219 107.171875 C 231.195312 106.902344 230.542969 106.886719 229.921875 107.324219 C 229.335938 107.890625 228.699219 108.378906 228.027344 108.832031 C 227.074219 107.371094 225.648438 106.265625 224.441406 105.042969 C 223.855469 104.492188 223.320312 103.703125 222.566406 103.402344 C 222.433594 103.316406 222.296875 103.234375 222.128906 103.167969 C 220.671875 102.277344 219.015625 101.777344 217.371094 101.289062 C 213.453125 100.152344 209.632812 99.09375 205.710938 97.855469 C 202.945312 97.066406 200.265625 96.03125 197.5 95.226562 C 196.3125 94.6875 195.070312 94.253906 193.816406 93.867188 C 193.042969 93.601562 192.171875 93.296875 191.367188 93.011719 C 190.796875 92.847656 190.246094 92.527344 189.625 92.613281 C 189.390625 92.628906 189.171875 92.710938 188.988281 92.828125 C 188.886719 92.863281 188.789062 92.914062 188.6875 92.964844 C 188.117188 93.316406 187.546875 93.683594 186.976562 94.035156 C 186.945312 94.003906 186.929688 93.953125 186.894531 93.917969 C 186.359375 93.046875 185.519531 92.425781 184.832031 91.691406 C 184.5 91.4375 184.230469 91.070312 183.945312 90.769531 C 183.945312 90.75 183.929688 90.75 183.929688 90.734375 C 183.929688 90.75 183.929688 90.75 183.945312 90.769531 C 183.929688 90.734375 183.914062 90.703125 183.894531 90.667969 C 183.894531 90.683594 183.914062 90.683594 183.914062 90.703125 C 183.394531 89.496094 181.835938 89.292969 180.730469 88.792969 C 179.355469 88.304688 178.015625 87.753906 176.625 87.332031 C 172.46875 85.625 168.195312 84.132812 163.957031 82.59375 C 161.59375 81.789062 159.28125 80.882812 156.886719 80.246094 C 155.09375 79.574219 153.300781 78.871094 151.375 78.738281 C 151.257812 78.738281 151.140625 78.738281 151.039062 78.753906 C 150.101562 78.605469 149.445312 79.339844 148.726562 79.808594 C 148.339844 80.0625 147.957031 80.3125 147.554688 80.582031 C 146.597656 79.324219 145.324219 78.234375 144.65625 76.792969 C 144.636719 75.972656 144.070312 75.136719 142.761719 74.96875 C 138.1875 74.011719 133.832031 72.335938 129.339844 71.082031 C 124.984375 69.722656 120.476562 68.734375 116.289062 66.824219 C 115.585938 66.523438 114.882812 66.222656 114.109375 66.1875 C 113.539062 66.1875 113.023438 66.492188 112.71875 66.925781 C 110.660156 67.980469 108.582031 69.035156 106.722656 70.425781 C 104.058594 72.171875 101.242188 73.628906 98.511719 75.253906 C 94.136719 77.832031 89.730469 80.347656 85.273438 82.757812 C 84.539062 83.179688 83.566406 83.394531 82.960938 83.984375 C 82.445312 84.167969 82.089844 84.570312 81.941406 85.054688 C 81.371094 85.675781 80.867188 86.378906 80.300781 86.980469 C 79.863281 87.566406 79.210938 88.15625 78.839844 88.824219 C 78.605469 88.773438 78.371094 88.722656 78.136719 88.675781 C 77.953125 88.640625 77.769531 88.605469 77.601562 88.558594 C 77.25 88.070312 76.644531 87.753906 76.007812 87.851562 C 76.078125 87.851562 76.144531 87.835938 76.210938 87.835938 C 74.953125 87.9375 73.980469 88.925781 72.84375 89.410156 C 65.136719 92.945312 58.066406 97.6875 51.0625 102.429688 C 49.203125 103.621094 47.410156 104.910156 45.597656 106.167969 C 45.011719 106.585938 44.207031 107.039062 43.6875 107.625 C 43.539062 107.722656 43.402344 107.875 43.269531 108.042969 C 42.296875 109.164062 41.394531 110.339844 40.574219 111.578125 C 40.304688 111.929688 39.96875 112.28125 39.769531 112.683594 C 38.980469 113.003906 38.496094 113.972656 38.628906 114.929688 C 38.546875 116.804688 38.394531 118.664062 38.261719 120.542969 C 38.328125 121.5625 38.027344 122.71875 38.410156 123.691406 C 38.378906 124.226562 38.613281 124.78125 39.066406 125.132812 C 41.292969 125.855469 43.589844 126.574219 45.882812 127.277344 C 45.632812 128.484375 45.449219 129.691406 45.363281 130.914062 C 45.164062 133.375 44.675781 135.824219 44.242188 138.253906 C 44.109375 138.9375 43.957031 139.625 43.804688 140.328125 C 43.6875 140.363281 43.570312 140.414062 43.472656 140.480469 C 42.953125 140.816406 42.53125 141.285156 42.046875 141.671875 C 40.738281 142.808594 39.382812 143.984375 38.027344 145.070312 C 37.589844 145.441406 37.15625 145.808594 36.734375 146.195312 C 36.417969 146.496094 36 146.8125 35.746094 147.199219 C 35.5625 147.351562 35.378906 147.535156 35.210938 147.769531 C 34.625 148.574219 34.171875 149.460938 33.417969 150.132812 C 32.984375 150.683594 32.3125 151.203125 31.910156 151.824219 C 31.507812 152.023438 31.171875 152.375 31.039062 152.847656 C 30.886719 154.1875 30.652344 155.511719 30.484375 156.851562 C 30.351562 157.941406 30.183594 159.027344 30.199219 160.132812 C 30.035156 160.703125 30 161.308594 30.132812 161.792969 C 30.132812 163.519531 32.5625 163.753906 33.855469 164.40625 C 35.898438 165.210938 37.910156 165.898438 40.003906 166.550781 C 39.917969 167.574219 39.867188 168.597656 39.917969 169.617188 C 39.9375 169.667969 39.953125 169.71875 39.96875 169.769531 C 39.984375 170.40625 40.320312 171.042969 40.992188 171.292969 C 41.09375 171.328125 41.191406 171.34375 41.292969 171.378906 C 41.359375 171.730469 41.460938 172.0625 41.511719 172.398438 C 41.980469 174.191406 42.246094 176.019531 42.667969 177.8125 C 43.488281 182.570312 44.292969 187.3125 45.246094 192.035156 C 46.789062 201.203125 49.085938 210.214844 51.53125 219.179688 C 52.335938 222.296875 53.304688 225.363281 54.328125 228.410156 C 54.714844 229.199219 54.882812 230.65625 55.285156 231.796875 C 55.25 231.964844 55.234375 232.148438 55.234375 232.347656 C 55.417969 233.539062 56.222656 233.804688 57.160156 233.804688 C 57.714844 233.804688 58.316406 233.707031 58.835938 233.65625 C 60.445312 233.605469 62.050781 233.488281 63.644531 233.320312 C 69.425781 232.617188 75.238281 232.164062 81.003906 231.445312 C 85.578125 230.289062 90.300781 230.605469 94.960938 229.953125 C 104.023438 228.949219 113.105469 228.007812 122.101562 226.46875 C 126.761719 225.765625 131.453125 225.3125 136.175781 225.3125 C 139.828125 225.175781 143.449219 224.660156 147.085938 224.339844 C 157.171875 223.183594 167.292969 222.011719 177.261719 220.015625 C 181.046875 219.09375 184.949219 218.894531 188.722656 217.921875 C 204.21875 215.308594 220.101562 215.558594 235.5 212.277344 C 239.203125 211.238281 243.023438 210.9375 246.828125 210.484375 C 247.246094 210.550781 247.613281 210.484375 247.898438 210.332031 C 248.371094 210.367188 248.855469 210.199219 249.257812 209.929688 C 250.042969 209.410156 250.011719 208.40625 249.925781 207.566406 C 249.878906 205.070312 249.390625 202.710938 248.972656 200.230469 C 248.871094 199.542969 248.789062 198.839844 248.703125 198.152344 C 248.769531 197.832031 248.753906 197.515625 248.636719 197.230469 C 248.671875 197.078125 248.671875 196.929688 248.636719 196.761719 C 248.570312 196.558594 248.503906 196.359375 248.453125 196.15625 C 248.402344 196.058594 248.335938 195.972656 248.269531 195.890625 C 248.285156 195.90625 248.300781 195.921875 248.320312 195.941406 C 248.351562 195.992188 248.386719 196.058594 248.4375 196.109375 C 248.4375 196.125 248.453125 196.125 248.453125 196.140625 C 247.714844 193.777344 246.894531 191.417969 245.824219 189.152344 C 244.96875 187.125 244.148438 184.730469 243.375 182.621094 C 242.355469 179.804688 240.980469 177.105469 239.957031 174.292969 C 239.839844 173.773438 239.574219 173.40625 239.222656 173.1875 C 239.304688 171.746094 239.40625 170.320312 239.554688 168.898438 C 239.640625 167.054688 240.023438 165.246094 240.042969 163.402344 C 240.074219 162.882812 240.058594 162.347656 240.074219 161.828125 C 240.074219 161.625 240.042969 161.457031 239.992188 161.289062 C 243.023438 158.59375 246.089844 155.929688 249.171875 153.296875 C 253.949219 149.160156 259.027344 145.375 263.699219 141.101562 C 264.554688 140.144531 268.675781 136.894531 269.515625 135.355469 C 269.832031 134.953125 270 134.414062 269.816406 133.828125 Z M 263.96875 121.964844 C 264.371094 122.71875 264.6875 123.523438 265.074219 124.277344 C 264.789062 124.546875 264.488281 124.832031 264.1875 125.066406 C 262.5625 126.40625 260.75 127.511719 258.992188 128.667969 C 254.214844 131.785156 250.042969 135.753906 245.671875 139.410156 C 243.460938 141.300781 241.382812 143.347656 239.003906 145.039062 C 238.800781 143.664062 238.820312 142.257812 238.316406 140.933594 C 238.300781 140.882812 238.300781 140.832031 238.28125 140.800781 C 239.085938 140.144531 239.90625 139.542969 240.710938 138.921875 C 243.476562 136.828125 246.007812 134.433594 248.839844 132.40625 C 249.960938 131.683594 251.015625 130.898438 252.023438 130.042969 C 254.820312 127.746094 258.035156 126.070312 261.070312 124.128906 C 262.058594 123.390625 262.996094 122.671875 263.96875 121.964844 Z M 230.574219 111.09375 C 230.828125 110.90625 231.078125 110.742188 231.3125 110.539062 C 231.464844 110.589844 231.613281 110.625 231.765625 110.65625 C 232.820312 110.90625 233.84375 111.292969 234.863281 111.628906 C 237.996094 112.550781 241.113281 113.589844 244.164062 114.777344 C 247.0625 115.902344 250.042969 116.773438 253.027344 117.644531 C 255.726562 118.332031 258.421875 119.035156 261.070312 119.9375 C 259.878906 120.742188 258.808594 121.714844 257.515625 122.367188 C 254.015625 124.3125 250.832031 126.691406 247.664062 129.136719 C 245.722656 130.378906 243.996094 131.917969 242.21875 133.375 C 240.914062 134.464844 239.574219 135.539062 238.214844 136.59375 C 237.628906 137.164062 236.640625 137.734375 235.835938 138.386719 C 232.921875 137.296875 229.804688 136.628906 226.90625 135.453125 C 220.085938 132.972656 213.601562 129.640625 206.699219 127.394531 C 208.039062 126.355469 209.546875 125.535156 210.90625 124.496094 C 217.4375 119.988281 224.15625 115.765625 230.574219 111.09375 Z M 204.988281 168.359375 C 205.074219 168.277344 205.140625 168.210938 205.226562 168.125 C 206.332031 167.054688 207.417969 165.964844 208.574219 164.941406 C 212.648438 161.726562 216.585938 158.273438 220.722656 155.089844 C 224.226562 152.542969 227.59375 149.796875 230.992188 147.132812 C 232.285156 147.519531 233.589844 147.886719 234.863281 148.320312 C 233.039062 149.832031 231.230469 151.339844 229.300781 152.710938 C 227.859375 153.785156 226.285156 154.671875 224.894531 155.8125 C 222.96875 157.421875 221.410156 159.414062 219.550781 161.105469 C 215.898438 164.273438 211.976562 167.121094 207.988281 169.851562 C 207 170.523438 206.027344 171.242188 205.089844 171.964844 C 205.074219 170.839844 205.359375 169.351562 204.988281 168.359375 Z M 233.003906 175.984375 C 233.792969 175.96875 234.5625 175.96875 235.332031 176.117188 C 235.449219 176.152344 235.566406 176.167969 235.667969 176.1875 C 235.550781 178.363281 235.332031 180.492188 235.234375 182.6875 C 235.199219 183.121094 235.183594 183.558594 235.167969 184.011719 C 235.117188 184.011719 235.066406 184.011719 235.015625 184.011719 C 232.988281 183.84375 230.960938 183.859375 228.933594 183.757812 C 228.046875 183.726562 227.175781 183.726562 226.285156 183.726562 C 225.011719 183.726562 223.738281 183.742188 222.464844 183.757812 C 220.722656 183.792969 218.980469 183.808594 217.238281 183.792969 C 216.433594 183.828125 215.644531 183.757812 214.84375 183.691406 C 215.765625 182.835938 216.683594 182 217.605469 181.144531 C 219.75 179.234375 221.894531 177.34375 224.058594 175.449219 C 224.542969 175.648438 225.113281 175.617188 225.632812 175.582031 C 228.09375 175.699219 230.558594 175.734375 233.003906 175.984375 Z M 227.695312 172.296875 C 228.847656 171.308594 229.988281 170.320312 231.144531 169.332031 C 231.3125 169.183594 231.480469 169.03125 231.648438 168.863281 C 232.285156 170.085938 232.785156 171.394531 233.375 172.632812 C 233.257812 172.632812 233.121094 172.632812 233.003906 172.617188 C 231.296875 172.367188 229.535156 172.449219 227.828125 172.28125 C 227.777344 172.296875 227.726562 172.296875 227.695312 172.296875 Z M 213.71875 204.167969 C 213.703125 203.867188 213.6875 203.597656 213.703125 203.378906 C 213.703125 201.855469 213.835938 200.347656 213.785156 198.820312 C 213.738281 197.363281 213.519531 195.90625 213.367188 194.449219 C 213.367188 194.332031 213.367188 194.230469 213.351562 194.128906 C 213.652344 193.761719 213.9375 193.359375 214.238281 193.058594 C 215.964844 191.332031 218.007812 189.421875 219.601562 187.496094 C 219.71875 187.363281 219.800781 187.226562 219.886719 187.109375 C 221.445312 187.058594 222.984375 187.042969 224.527344 187.042969 C 226.253906 187.042969 227.996094 187.058594 229.722656 187.109375 C 228.816406 188.046875 227.84375 188.9375 226.90625 189.839844 C 224.960938 191.851562 223.136719 193.964844 221.140625 195.90625 C 218.695312 198.371094 216.484375 201.066406 214.1875 203.664062 C 214.039062 203.847656 213.886719 204.015625 213.71875 204.167969 Z M 213.855469 208.320312 C 213.820312 208.589844 213.71875 208.875 213.550781 209.09375 C 213.71875 208.875 213.820312 208.605469 213.855469 208.320312 Z M 225.765625 196.007812 C 226.152344 195.605469 226.539062 195.203125 226.90625 194.800781 C 228.230469 195.152344 230.207031 194.363281 231.394531 194.214844 C 232.753906 193.964844 234.109375 193.726562 235.46875 193.425781 C 236.421875 193.175781 237.292969 192.972656 238.28125 192.839844 C 238.632812 192.789062 239.003906 192.773438 239.355469 192.691406 C 239.539062 192.90625 239.722656 193.125 239.890625 193.359375 C 240.914062 194.582031 242.035156 195.707031 243.089844 196.894531 C 237.195312 197.765625 231.230469 198.167969 225.3125 198.957031 C 224.394531 199.089844 223.488281 199.207031 222.566406 199.324219 C 223.621094 198.203125 224.726562 197.144531 225.765625 196.007812 Z M 233.523438 190.410156 C 232.769531 190.476562 232.050781 190.664062 231.3125 190.828125 C 231.09375 190.863281 230.875 190.898438 230.660156 190.929688 C 231.78125 189.875 232.835938 188.753906 233.824219 187.5625 C 233.910156 187.460938 233.976562 187.363281 234.042969 187.261719 C 234.78125 187.292969 235.519531 187.328125 236.253906 187.363281 L 236.238281 187.363281 C 236.304688 187.378906 236.371094 187.378906 236.441406 187.378906 C 236.640625 187.914062 236.859375 188.449219 237.027344 188.988281 C 237.109375 189.171875 237.175781 189.390625 237.242188 189.589844 C 235.988281 189.824219 234.765625 190.175781 233.523438 190.410156 Z M 236.320312 166.902344 C 236.222656 168.078125 236.121094 169.234375 236.019531 170.40625 C 235.449219 169.113281 234.914062 167.792969 234.210938 166.585938 C 234.195312 166.570312 234.195312 166.550781 234.175781 166.519531 C 234.980469 165.78125 235.785156 165.042969 236.589844 164.304688 C 236.539062 165.179688 236.457031 166.03125 236.320312 166.902344 Z M 215.527344 187.078125 C 214.253906 188.417969 212.898438 189.671875 211.625 190.996094 C 211.457031 191.183594 211.324219 191.316406 211.074219 191.632812 C 210.335938 191.5 209.597656 191.382812 208.859375 191.230469 C 208.191406 191.03125 207.503906 190.878906 206.816406 190.730469 C 207.269531 190.328125 207.753906 189.925781 208.222656 189.554688 C 209.398438 188.566406 210.554688 187.5625 211.691406 186.539062 C 211.992188 186.707031 212.34375 186.792969 212.699219 186.824219 C 213.636719 186.925781 214.574219 187.007812 215.527344 187.078125 Z M 210 194.851562 C 210.015625 194.96875 210.035156 195.101562 210.066406 195.21875 C 210.21875 196.492188 210.367188 197.78125 210.4375 199.074219 C 210.453125 200.632812 210.300781 202.191406 210.367188 203.746094 C 210.402344 204.785156 210.519531 205.824219 210.585938 206.882812 C 207.519531 206.496094 204.453125 205.910156 201.453125 205.15625 C 193.53125 203.480469 185.773438 201.183594 177.8125 199.574219 C 177.832031 199.574219 177.847656 199.574219 177.863281 199.59375 C 169.152344 197.832031 160.707031 194.785156 152.128906 192.472656 C 143.953125 190.242188 135.457031 189.355469 127.414062 186.640625 C 118.433594 184.246094 109.25 182.738281 100.269531 180.375 C 96.484375 179.519531 92.78125 178.398438 89.09375 177.226562 C 85.242188 176.203125 81.453125 174.960938 77.734375 173.570312 C 78.457031 173.621094 79.175781 173.6875 79.898438 173.757812 C 86.382812 174.308594 92.78125 175.164062 99.265625 175.765625 C 105.097656 176.503906 110.925781 177.542969 116.824219 177.507812 C 120.863281 177.84375 124.832031 178.851562 128.9375 179.300781 C 132.757812 179.722656 136.597656 179.535156 140.417969 179.503906 C 140.683594 179.839844 141.121094 180.089844 141.722656 180.15625 C 142.308594 180.441406 142.960938 180.492188 143.597656 180.574219 C 144.355469 180.828125 145.125 181.0625 145.929688 181.128906 C 146.765625 181.378906 147.636719 181.546875 148.492188 181.648438 C 148.644531 181.699219 148.792969 181.765625 148.925781 181.816406 C 149.730469 182.015625 150.535156 182.21875 151.324219 182.484375 C 153.550781 183.003906 155.8125 183.472656 158.074219 183.828125 C 158.710938 184.898438 159.449219 185.902344 160.1875 186.910156 C 160.707031 187.613281 161.160156 188.398438 161.828125 188.96875 C 162.128906 189.371094 162.582031 189.640625 163.101562 189.640625 C 163.539062 189.640625 163.957031 189.507812 164.292969 189.203125 C 165.734375 188.449219 167.089844 187.578125 168.449219 186.691406 C 168.683594 186.726562 168.933594 186.773438 169.152344 186.84375 C 173.257812 188.03125 177.445312 188.820312 181.667969 189.457031 C 183.59375 189.757812 185.488281 190.328125 187.429688 190.496094 C 191.535156 190.613281 195.539062 191.25 199.59375 191.800781 C 199.761719 191.851562 199.929688 191.867188 200.082031 191.867188 C 201.054688 192.21875 202.042969 192.574219 203.03125 192.890625 C 203.148438 192.90625 203.246094 192.925781 203.363281 192.90625 C 203.550781 193.160156 203.835938 193.375 204.21875 193.492188 C 204.753906 193.609375 205.257812 193.796875 205.792969 193.894531 C 207.21875 194.265625 208.609375 194.566406 210 194.851562 Z M 186.84375 205.304688 C 186.828125 205.304688 186.828125 205.304688 186.8125 205.304688 C 186.695312 205.289062 186.578125 205.289062 186.460938 205.257812 C 186.59375 205.289062 186.726562 205.304688 186.84375 205.304688 Z M 159.5 203.445312 L 159.5 200.683594 C 160.101562 200.546875 160.707031 200.3125 161.226562 200.179688 C 161.945312 200.046875 162.667969 199.878906 163.386719 199.726562 C 163.503906 199.710938 163.621094 199.675781 163.722656 199.644531 L 167.523438 199.644531 C 167.523438 199.644531 167.523438 199.644531 167.542969 199.644531 C 167.742188 199.710938 167.960938 199.761719 168.160156 199.828125 C 171.078125 200.617188 173.992188 201.253906 176.925781 201.871094 C 170.773438 202.324219 164.644531 202.925781 158.527344 203.75 C 158.160156 203.800781 157.789062 203.832031 157.421875 203.882812 C 158.746094 204.503906 159.132812 203.984375 159.5 203.445312 Z M 60.226562 178.195312 C 61.699219 177.878906 63.191406 177.59375 64.632812 177.140625 C 66.074219 176.6875 67.800781 176.386719 69.289062 175.882812 C 70.0625 175.597656 70.933594 175.53125 71.6875 175.199219 C 72.609375 175.5 73.53125 175.765625 74.433594 176.070312 C 77.433594 176.804688 80.199219 178.246094 83.199219 178.96875 C 87.21875 180.171875 91.222656 181.480469 95.277344 182.570312 C 95.460938 183.558594 95.949219 184.496094 96.25 185.453125 C 96.550781 186.523438 96.871094 187.597656 97.171875 188.667969 C 98.074219 191.820312 98.796875 195.019531 99.800781 198.152344 C 100.171875 199.476562 100.523438 200.816406 100.890625 202.140625 C 100.824219 202.140625 100.757812 202.15625 100.691406 202.15625 C 98.007812 202.40625 95.34375 202.792969 92.664062 203.144531 C 88.191406 203.664062 83.683594 203.867188 79.175781 204.183594 C 74.117188 204.601562 68.972656 204.667969 63.980469 205.691406 C 63.929688 205.523438 63.878906 205.355469 63.84375 205.171875 C 63.425781 203.597656 62.90625 202.074219 62.523438 200.496094 C 60.410156 193.328125 58.703125 186.054688 56.742188 178.867188 C 57.914062 178.75 59.085938 178.480469 60.226562 178.195312 Z M 55.265625 175.617188 C 55.183594 175.617188 55.097656 175.617188 55.015625 175.617188 C 54.5625 175.617188 54.078125 175.617188 53.691406 175.851562 C 53.609375 175.902344 53.523438 175.953125 53.457031 176 C 52.820312 176.117188 52.285156 176.539062 51.796875 177.039062 C 52.066406 176.304688 52.351562 175.566406 52.652344 174.660156 C 52.871094 174.058594 53.054688 173.4375 53.273438 172.835938 C 53.339844 172.683594 53.441406 172.535156 53.507812 172.382812 C 53.523438 172.382812 53.558594 172.382812 53.574219 172.382812 C 57.78125 172.617188 62.019531 172.433594 66.207031 172.867188 C 66.308594 172.984375 66.441406 173.085938 66.558594 173.171875 C 66.292969 173.238281 66.023438 173.304688 65.773438 173.371094 C 62.992188 174.160156 60.074219 174.863281 57.195312 175.449219 C 56.539062 175.53125 55.902344 175.582031 55.265625 175.617188 Z M 97.15625 183.574219 C 97.289062 183.542969 97.421875 183.507812 97.554688 183.457031 C 97.539062 183.472656 97.523438 183.472656 97.507812 183.472656 C 97.4375 183.492188 97.371094 183.523438 97.289062 183.542969 C 97.238281 183.558594 97.203125 183.574219 97.15625 183.574219 Z M 61.097656 213.011719 C 61.785156 211.757812 62.605469 210.566406 63.242188 209.292969 C 66.308594 208.589844 69.457031 208.203125 72.625 208.054688 C 76.242188 207.683594 79.898438 207.535156 83.53125 207.265625 C 89.546875 207.03125 95.496094 206.109375 101.476562 205.457031 C 101.5625 205.441406 101.644531 205.421875 101.730469 205.421875 C 102.28125 206.410156 103.472656 207.433594 104.058594 208.238281 C 104.59375 208.890625 105.113281 209.546875 105.617188 210.230469 C 105.734375 210.417969 105.867188 210.585938 105.984375 210.769531 C 101.980469 211.1875 97.957031 211.640625 93.9375 211.957031 C 90.738281 212.042969 87.535156 212.007812 84.335938 211.824219 C 81.890625 211.691406 79.425781 211.539062 76.980469 211.875 C 73.195312 212.425781 69.40625 212.863281 65.585938 213.097656 C 64.03125 213.25 62.472656 213.28125 60.914062 213.367188 C 60.964844 213.230469 61.03125 213.113281 61.097656 213.011719 Z M 104.878906 204.066406 C 104.84375 203.867188 104.777344 203.699219 104.695312 203.546875 C 104.660156 203.445312 104.628906 203.328125 104.578125 203.230469 C 104.109375 200.816406 103.320312 198.453125 102.683594 196.074219 C 101.410156 191.9375 100.574219 187.664062 99.132812 183.574219 C 101.023438 184.0625 102.953125 184.511719 104.863281 184.949219 C 105.078125 185.921875 105.632812 186.941406 105.882812 187.796875 C 106.890625 190.761719 107.8125 193.761719 108.582031 196.8125 C 109.203125 199.074219 109.652344 201.402344 110.359375 203.628906 C 110.222656 203.898438 110.121094 204.167969 110.003906 204.433594 C 109.535156 205.539062 108.933594 206.5625 108.398438 207.617188 C 108.347656 207.769531 108.28125 207.921875 108.195312 208.085938 C 107.140625 206.679688 106 205.375 104.878906 204.066406 Z M 109.9375 189.339844 C 109.503906 188.164062 109.117188 186.976562 108.699219 185.785156 C 112.132812 186.523438 115.566406 187.261719 118.984375 188.066406 C 123.460938 188.886719 127.800781 190.277344 132.171875 191.484375 C 135.625 192.421875 139.160156 193.042969 142.660156 193.710938 C 143.902344 193.945312 145.125 194.214844 146.347656 194.480469 C 146.398438 194.902344 146.597656 195.304688 146.765625 195.753906 C 146.917969 196.726562 147.117188 197.683594 147.4375 198.621094 C 147.019531 198.722656 146.597656 198.820312 146.179688 198.855469 C 146.214844 198.855469 146.230469 198.839844 146.261719 198.839844 C 138.691406 199.996094 131.035156 200.546875 123.410156 201.21875 C 121.71875 201.335938 120.042969 201.417969 118.351562 201.554688 C 116.691406 201.652344 114.980469 201.636719 113.339844 201.921875 C 112.25 197.734375 111.210938 193.492188 109.9375 189.339844 Z M 110.992188 209.914062 C 111.699219 208.40625 112.550781 206.980469 113.207031 205.457031 C 113.289062 205.421875 113.375 205.375 113.457031 205.339844 C 116.320312 204.921875 119.222656 204.972656 122.101562 204.6875 C 130.933594 203.984375 139.796875 203.378906 148.527344 201.855469 C 148.859375 202.472656 149.429688 202.960938 149.867188 203.496094 C 150.199219 203.914062 150.503906 204.351562 150.855469 204.769531 C 151.238281 205.207031 151.675781 205.574219 152.09375 205.976562 C 149.5625 206.378906 147.050781 206.78125 144.503906 207.046875 C 135.691406 208.171875 126.828125 208.925781 117.996094 209.878906 C 115.585938 209.949219 113.1875 210.097656 110.792969 210.316406 C 110.859375 210.164062 110.925781 210.03125 110.992188 209.914062 Z M 151.523438 200.28125 C 151.492188 199.410156 150.953125 198.488281 150.652344 197.699219 C 150.367188 196.996094 150.285156 196.191406 150.132812 195.421875 C 152.261719 195.972656 154.355469 196.558594 156.46875 197.179688 C 156.535156 197.53125 156.652344 197.917969 156.769531 198.285156 C 156.96875 199.15625 156.835938 200.28125 156.9375 201.269531 C 156.886719 201.335938 156.835938 201.417969 156.800781 201.484375 C 156.28125 202.15625 155.730469 202.828125 155.226562 203.511719 C 155.128906 203.679688 154.992188 203.832031 154.859375 203.984375 C 154.089844 203.195312 153.21875 202.472656 152.613281 201.535156 C 152.277344 201.101562 151.859375 200.714844 151.523438 200.28125 Z M 172.753906 180.171875 C 176.910156 182 181.097656 183.792969 185.335938 185.433594 C 186.609375 186.039062 187.898438 186.65625 189.171875 187.246094 C 188.652344 187.210938 188.132812 187.195312 187.632812 187.160156 C 186.105469 187.027344 184.617188 186.574219 183.109375 186.339844 C 179.523438 185.703125 175.902344 185.199219 172.386719 184.277344 C 171.664062 184.09375 170.945312 183.859375 170.207031 183.675781 C 171.078125 182.519531 172.015625 181.414062 172.753906 180.171875 Z M 166.585938 183.089844 C 166.421875 183.40625 166.351562 183.726562 166.371094 184.0625 C 166.335938 184.078125 166.300781 184.109375 166.269531 184.128906 C 165.464844 184.648438 164.695312 185.21875 163.839844 185.636719 C 163.738281 185.703125 163.636719 185.769531 163.539062 185.820312 C 162.835938 184.847656 162.113281 183.859375 161.460938 182.855469 C 161.5625 182.652344 161.644531 182.433594 161.644531 182.183594 C 162.246094 181.246094 163.050781 180.441406 163.707031 179.554688 C 165.546875 179.535156 167.390625 179.519531 169.234375 179.4375 C 168.347656 180.660156 167.324219 181.796875 166.585938 183.089844 Z M 160.003906 180.425781 C 160.1875 180.425781 160.386719 180.476562 160.554688 180.542969 C 160.386719 180.457031 160.1875 180.425781 160.003906 180.425781 Z M 158.679688 180.542969 C 158.277344 180.476562 157.875 180.441406 157.488281 180.375 C 156.835938 180.273438 156.535156 180.140625 155.78125 180.023438 C 155.730469 180.007812 155.679688 180.007812 155.644531 179.988281 C 156.835938 179.9375 158.007812 179.871094 159.199219 179.789062 C 158.996094 180.039062 158.828125 180.289062 158.679688 180.542969 Z M 85.894531 126.523438 C 86.164062 126.171875 86.515625 125.902344 86.851562 125.617188 C 91.726562 127.628906 96.585938 129.574219 101.460938 131.632812 C 103.738281 132.589844 106.066406 133.394531 108.363281 134.296875 C 110.945312 135.136719 113.523438 136.074219 116.136719 136.8125 C 116.355469 138.503906 116.925781 140.179688 117.496094 141.769531 C 117.496094 141.769531 117.496094 141.789062 117.496094 141.789062 C 112.503906 139.960938 107.542969 138.066406 102.648438 135.992188 C 96.753906 133.527344 91.375 130.527344 85.492188 127.949219 C 85.308594 127.863281 85.125 127.78125 84.921875 127.714844 C 85.242188 127.292969 85.542969 126.875 85.894531 126.523438 Z M 83.984375 123.675781 C 83.28125 124.363281 82.679688 125.132812 82.058594 125.886719 C 82.007812 125.9375 81.957031 125.988281 81.925781 126.039062 C 81.808594 125.734375 81.671875 125.433594 81.570312 125.148438 C 80.984375 124.0625 80.5 122.9375 80.082031 121.78125 C 80.96875 121.113281 81.890625 120.476562 82.761719 119.789062 C 85.945312 117.15625 89.429688 114.960938 92.796875 112.566406 C 95.964844 110.40625 98.996094 108.042969 102.230469 105.964844 C 104.242188 104.707031 106.21875 103.417969 108.246094 102.195312 C 108.398438 102.496094 108.566406 102.796875 108.730469 103.101562 C 109.050781 103.871094 109.503906 104.574219 109.90625 105.3125 C 108.546875 106.332031 107.207031 107.390625 105.832031 108.359375 C 100.523438 112.433594 95.175781 116.488281 89.480469 119.988281 C 88.425781 120.710938 87.335938 121.363281 86.246094 122 C 86.113281 122.015625 85.980469 122.050781 85.828125 122.101562 C 85.507812 122.21875 85.257812 122.433594 85.089844 122.6875 C 84.6875 122.972656 84.320312 123.355469 83.984375 123.675781 Z M 108.800781 130.898438 C 105.867188 129.742188 102.917969 128.652344 100.019531 127.394531 C 96.769531 126.15625 93.585938 124.648438 90.316406 123.425781 C 93.667969 121.347656 96.988281 119.203125 100.136719 116.839844 C 103.722656 114.191406 107.257812 111.460938 110.84375 108.832031 C 112.132812 107.84375 113.355469 106.785156 114.714844 105.914062 C 115.433594 105.429688 116.1875 105.027344 116.875 104.523438 C 117.09375 104.589844 117.3125 104.675781 117.511719 104.742188 C 121.617188 106.214844 125.570312 108.058594 129.625 109.652344 C 132.238281 110.539062 134.804688 111.5625 137.367188 112.582031 C 139.695312 113.453125 142.023438 114.34375 144.335938 115.28125 C 143.566406 115.835938 142.796875 116.386719 142.023438 116.921875 C 135.371094 121.632812 128.820312 126.472656 122.050781 130.996094 C 120.695312 131.917969 119.289062 132.757812 117.964844 133.710938 C 117.914062 133.746094 117.863281 133.777344 117.796875 133.8125 C 114.78125 132.941406 111.78125 131.917969 108.800781 130.898438 Z M 152.511719 113.925781 C 152.746094 115.179688 152.832031 116.46875 153.285156 117.675781 C 153.316406 117.894531 153.367188 118.078125 153.453125 118.246094 C 153.234375 118.414062 153 118.582031 152.765625 118.75 C 152.746094 118.75 152.746094 118.765625 152.730469 118.765625 C 151.910156 117.292969 151.207031 115.734375 150.066406 114.492188 C 149.464844 113.4375 147.921875 113.269531 146.917969 112.71875 C 144.519531 111.710938 142.089844 110.773438 139.644531 109.871094 C 136.480469 108.628906 133.3125 107.40625 130.113281 106.25 C 127.097656 105.011719 124.128906 103.703125 121.097656 102.515625 C 121.75 101.894531 122.671875 101.191406 123.257812 100.4375 C 123.761719 100.570312 124.230469 100.769531 124.714844 100.9375 C 130.246094 103.601562 136.027344 105.597656 141.839844 107.574219 C 145.34375 108.679688 148.777344 110.035156 152.261719 111.226562 C 152.109375 111.476562 152.027344 111.761719 152.042969 112.082031 C 152.09375 112.71875 152.394531 113.289062 152.511719 113.925781 Z M 121.0625 135.636719 C 123.125 134.347656 125.101562 132.957031 127.097656 131.582031 C 133.832031 127.109375 140.25 122.199219 146.882812 117.578125 C 147.152344 117.359375 147.46875 117.15625 147.789062 116.941406 C 147.90625 117.058594 148.007812 117.191406 148.105469 117.324219 C 148.644531 118.046875 149.296875 119.585938 149.984375 120.644531 C 147.671875 122.21875 145.359375 123.808594 142.960938 125.265625 C 139.328125 127.394531 135.890625 129.789062 132.390625 132.121094 C 129.625 133.914062 126.84375 135.6875 124.246094 137.714844 C 124.164062 137.765625 124.097656 137.816406 124.03125 137.882812 C 122.855469 138.773438 121.785156 139.808594 120.730469 140.847656 C 120.613281 140.496094 120.496094 140.144531 120.378906 139.859375 C 120.007812 138.855469 119.722656 137.832031 119.554688 136.777344 C 120.042969 136.410156 120.527344 135.941406 121.0625 135.636719 Z M 123.257812 143.011719 C 124.011719 142.273438 124.785156 141.554688 125.585938 140.882812 C 126.15625 141.015625 126.726562 141.203125 127.28125 141.386719 C 129.910156 142.089844 132.492188 143.144531 135.070312 144.101562 C 137.652344 144.902344 140.046875 146.175781 142.59375 147.097656 C 147.300781 148.957031 152.0625 150.652344 156.800781 152.425781 C 156.953125 153.03125 157.238281 153.617188 157.320312 154.238281 C 157.554688 155.207031 157.625 156.917969 158.042969 158.222656 C 156.300781 157.570312 154.539062 156.902344 152.816406 156.230469 C 145.695312 153.316406 138.773438 149.929688 131.6875 146.980469 C 128.671875 145.859375 125.636719 144.753906 122.605469 143.664062 C 122.824219 143.429688 123.042969 143.195312 123.257812 143.011719 Z M 149.210938 146.042969 C 145.308594 144.601562 141.453125 143.0625 137.652344 141.417969 C 135.742188 140.832031 133.898438 140.078125 132.039062 139.339844 C 131.015625 139.023438 129.976562 138.703125 128.957031 138.386719 C 130.679688 137.179688 132.457031 136.058594 134.214844 134.902344 C 138.222656 132.1875 142.308594 129.507812 146.464844 127.027344 C 150 124.648438 153.617188 122.316406 157.039062 119.769531 C 158.578125 120.15625 160.035156 120.910156 161.527344 121.464844 C 165.699219 123.089844 169.636719 125.097656 173.910156 126.609375 C 177.292969 127.863281 180.542969 129.457031 183.894531 130.847656 C 183.914062 130.847656 183.945312 130.863281 183.960938 130.863281 C 183.007812 131.550781 182.035156 132.238281 181.113281 132.957031 C 174.597656 138.136719 167.828125 142.976562 161.160156 147.9375 C 160.472656 148.421875 159.785156 148.890625 159.097656 149.359375 C 158.980469 149.429688 158.863281 149.511719 158.761719 149.59375 C 155.613281 148.320312 152.363281 147.300781 149.210938 146.042969 Z M 161.058594 117.625 C 161.308594 117.226562 161.542969 116.804688 161.746094 116.46875 C 162.082031 116 162.414062 115.550781 162.765625 115.097656 C 162.953125 115.164062 163.121094 115.214844 163.285156 115.265625 C 168.917969 117.542969 174.511719 119.890625 180.257812 121.898438 C 181.984375 122.585938 183.796875 123.039062 185.519531 123.726562 C 187.832031 124.460938 190.195312 125.066406 192.492188 125.902344 C 192.542969 126.089844 192.625 126.289062 192.742188 126.507812 C 193.363281 127.863281 193.429688 129.589844 193.980469 130.996094 C 194.015625 131.183594 194.066406 131.382812 194.132812 131.566406 C 193.628906 131.953125 193.128906 132.335938 192.640625 132.722656 C 192.355469 132.335938 191.972656 131.984375 191.6875 131.617188 C 191.316406 131.148438 190.75 130.460938 190.3125 129.941406 C 190.179688 129.574219 189.910156 129.253906 189.558594 129.070312 C 189.476562 129.003906 189.390625 128.953125 189.289062 128.902344 C 189.105469 128.734375 188.871094 128.601562 188.621094 128.535156 C 188.46875 128.5 188.335938 128.484375 188.183594 128.484375 C 188.117188 128.484375 188.050781 128.484375 187.984375 128.5 C 187.0625 128.25 186.089844 128.03125 185.203125 127.746094 C 183.777344 127.195312 182.421875 126.472656 180.996094 125.921875 C 179.503906 125.351562 178.097656 124.613281 176.625 124.011719 C 175.117188 123.425781 173.574219 122.953125 172.101562 122.300781 C 169.152344 121.011719 166.152344 119.6875 163.152344 118.480469 C 162.464844 118.214844 161.761719 117.910156 161.058594 117.625 Z M 160.386719 152.5625 C 161.375 151.808594 162.449219 151.136719 163.453125 150.398438 C 167.527344 147.449219 171.496094 144.351562 175.585938 141.417969 C 179.589844 138.570312 183.292969 135.304688 187.363281 132.539062 C 187.53125 132.421875 187.699219 132.320312 187.867188 132.203125 C 188.402344 132.875 188.957031 133.542969 189.523438 134.199219 C 189.660156 134.363281 189.808594 134.566406 190.011719 134.765625 C 189.054688 135.519531 188.085938 136.257812 187.128906 137.011719 C 183.960938 139.558594 180.929688 142.273438 177.746094 144.804688 C 174.863281 147.082031 171.714844 148.992188 168.765625 151.171875 C 167.996094 151.671875 167.273438 152.308594 166.46875 152.8125 C 165.867188 152.863281 165.296875 153.265625 164.960938 153.800781 C 164.226562 154.722656 163.421875 155.59375 162.601562 156.449219 C 162.296875 156.816406 161.863281 157.203125 161.425781 157.605469 C 161.292969 157.152344 161.09375 156.714844 161.023438 156.265625 C 160.855469 155.058594 160.707031 153.800781 160.386719 152.5625 C 160.386719 152.578125 160.386719 152.578125 160.386719 152.5625 Z M 165.617188 158.15625 C 166.035156 157.722656 166.4375 157.269531 166.820312 156.816406 C 166.972656 156.851562 167.125 156.902344 167.273438 156.949219 C 168.546875 157.605469 169.90625 158.074219 171.195312 158.695312 C 176.121094 160.585938 181.0625 162.429688 186.074219 164.105469 C 189.308594 164.976562 192.625 165.53125 195.824219 166.535156 C 197.632812 167.105469 199.496094 167.539062 201.21875 168.34375 C 201.269531 168.679688 201.4375 169.015625 201.808594 169.351562 C 201.773438 169.9375 201.808594 170.554688 201.773438 171.074219 C 201.757812 171.8125 201.808594 172.550781 201.722656 173.269531 C 197.066406 171.8125 192.492188 170.085938 187.867188 168.5625 C 179.808594 165.796875 171.664062 163.117188 163.605469 160.25 C 164.308594 159.597656 164.960938 158.859375 165.617188 158.15625 Z M 203.265625 165.363281 C 203.214844 165.414062 203.148438 165.480469 203.082031 165.53125 C 200.113281 164.089844 196.847656 163.402344 193.714844 162.480469 C 191.199219 161.777344 188.570312 161.457031 186.105469 160.605469 C 182.707031 159.398438 179.339844 158.242188 175.9375 156.933594 C 175.988281 156.949219 176.054688 156.96875 176.105469 156.984375 C 174.53125 156.347656 172.902344 155.792969 171.363281 155.074219 C 170.875 154.890625 170.390625 154.6875 169.921875 154.472656 C 170.121094 154.320312 170.308594 154.1875 170.492188 154.085938 C 171.984375 153.082031 173.421875 152.023438 174.882812 150.984375 C 179.035156 148.320312 182.890625 145.039062 186.625 141.789062 C 189.761719 139.15625 193.0625 136.726562 196.277344 134.179688 C 196.445312 134.230469 196.597656 134.296875 196.761719 134.347656 C 197.988281 134.851562 199.210938 135.320312 200.484375 135.671875 C 202.710938 136.726562 205.023438 137.582031 207.300781 138.539062 C 209.597656 139.359375 211.777344 140.480469 214.121094 141.183594 C 218.496094 142.894531 223.070312 144.050781 227.507812 145.589844 C 226.335938 146.460938 225.332031 147.519531 224.140625 148.355469 C 219.066406 152.109375 214.15625 155.980469 209.347656 160.101562 C 207.167969 161.675781 205.15625 163.453125 203.265625 165.363281 Z M 231.511719 143.78125 C 231.277344 143.394531 230.875 143.109375 230.289062 143.027344 C 226.269531 141.503906 222.097656 140.398438 218.042969 139.039062 C 212.109375 137.011719 206.398438 134.382812 200.550781 132.1875 C 201.371094 131.484375 202.207031 130.78125 203.097656 130.175781 C 203.246094 130.109375 203.363281 130.042969 203.480469 129.957031 C 204.136719 130.226562 204.855469 130.34375 205.542969 130.546875 C 206.816406 130.945312 208.039062 131.433594 209.296875 131.867188 C 213.382812 133.425781 217.371094 135.238281 221.425781 136.929688 C 224.175781 138.035156 226.957031 139.074219 229.769531 139.996094 C 231.53125 140.496094 233.273438 140.964844 234.980469 141.636719 C 235.050781 141.839844 235.132812 142.054688 235.25 142.273438 C 235.484375 143.179688 235.535156 144.117188 235.636719 145.054688 C 234.261719 144.601562 232.871094 144.21875 231.511719 143.78125 Z M 222.179688 107.507812 C 223.253906 108.546875 224.410156 109.535156 225.296875 110.742188 C 225.296875 110.742188 225.28125 110.722656 225.28125 110.722656 C 225.28125 110.742188 225.296875 110.742188 225.296875 110.757812 C 219.332031 114.929688 213.167969 118.800781 207.234375 123.023438 C 205.84375 123.859375 204.539062 124.816406 203.296875 125.871094 C 203.097656 126.019531 202.878906 126.1875 202.679688 126.371094 C 202.277344 126.492188 201.972656 126.742188 201.773438 127.058594 C 201.691406 127.109375 201.605469 127.160156 201.523438 127.226562 C 200.03125 128.148438 198.789062 129.371094 197.417969 130.425781 C 197.382812 130.445312 197.367188 130.460938 197.351562 130.460938 C 197.28125 130.210938 197.199219 129.957031 197.097656 129.707031 C 196.679688 128.398438 196.5625 127.007812 196.058594 125.71875 C 196.109375 125.6875 196.144531 125.652344 196.195312 125.617188 C 197.25 124.832031 198.222656 124.195312 199.394531 123.390625 C 201.875 121.796875 204.453125 120.339844 206.832031 118.617188 C 208.910156 117.105469 210.90625 115.464844 212.964844 113.941406 C 216 111.730469 219.03125 109.5 222.179688 107.507812 Z M 185.234375 99.144531 C 186.8125 98.105469 188.371094 97.050781 189.996094 96.078125 C 191.503906 96.667969 193.109375 97.101562 194.636719 97.65625 C 195.488281 98.023438 196.34375 98.410156 197.25 98.660156 C 201.65625 100.035156 205.996094 101.542969 210.46875 102.78125 C 213.148438 103.570312 215.847656 104.257812 218.496094 105.160156 C 218.746094 105.226562 218.980469 105.3125 219.214844 105.414062 C 218.144531 106.097656 217.121094 106.902344 216.066406 107.605469 C 211.859375 110.4375 207.957031 113.65625 203.851562 116.605469 C 200.582031 118.714844 197.316406 120.675781 194.132812 122.921875 C 191.652344 122 189.089844 121.3125 186.558594 120.527344 C 183.914062 119.535156 181.214844 118.714844 178.566406 117.710938 C 174.914062 116.253906 171.210938 114.960938 167.625 113.335938 C 167.089844 113.101562 166.539062 112.902344 165.984375 112.699219 C 167.558594 111.710938 169.152344 110.757812 170.609375 109.601562 C 175.351562 105.964844 180.160156 102.378906 185.234375 99.144531 Z M 180.964844 94.804688 C 181.367188 94.488281 181.867188 94.21875 182.320312 93.933594 C 182.941406 94.554688 183.59375 95.125 184.148438 95.828125 C 180.175781 98.410156 176.289062 101.105469 172.503906 103.9375 C 170.089844 105.796875 167.726562 107.742188 165.097656 109.316406 C 163.941406 109.988281 162.851562 110.757812 161.730469 111.460938 C 161.394531 111.613281 161.125 111.828125 160.925781 112.113281 C 160.1875 112.816406 159.667969 113.722656 159.046875 114.527344 C 158.613281 115.148438 158.277344 115.882812 157.792969 116.488281 C 157.742188 116.46875 157.707031 116.46875 157.65625 116.453125 C 157.171875 116.269531 156.753906 116.1875 156.367188 116.1875 C 156.367188 116.1875 156.351562 116.1875 156.351562 116.1875 C 156.28125 116 156.234375 115.816406 156.183594 115.632812 C 155.949219 114.410156 155.882812 113.070312 155.445312 111.898438 C 155.546875 111.8125 155.644531 111.710938 155.730469 111.628906 C 157.523438 110.371094 159.316406 109.132812 161.277344 108.125 C 164.8125 106 168.144531 103.503906 171.480469 101.054688 C 174.714844 99.0625 177.746094 96.867188 180.964844 94.804688 Z M 149.699219 83.109375 C 150.132812 82.742188 150.769531 82.441406 151.324219 82.054688 C 151.324219 82.054688 151.339844 82.054688 151.339844 82.054688 C 153.066406 82.222656 154.691406 83.011719 156.332031 83.546875 C 158.191406 83.984375 159.953125 84.753906 161.777344 85.324219 C 167.660156 87.402344 173.492188 89.664062 179.339844 91.824219 C 176.136719 93.984375 172.921875 96.148438 169.652344 98.222656 C 167.542969 99.730469 165.480469 101.308594 163.335938 102.765625 C 160.589844 104.777344 157.273438 106.316406 154.507812 108.394531 C 154.457031 108.378906 154.40625 108.359375 154.339844 108.34375 C 151.308594 107.371094 148.339844 106.214844 145.34375 105.179688 C 141.722656 104.039062 138.222656 102.699219 134.601562 101.492188 C 132.824219 100.804688 131.082031 100.050781 129.308594 99.363281 C 128.320312 98.929688 127.347656 98.410156 126.359375 97.972656 C 128.035156 96.867188 129.726562 95.792969 131.433594 94.789062 C 137.601562 90.96875 143.648438 87.097656 149.699219 83.109375 Z M 141.972656 78.839844 C 142.242188 79.308594 142.492188 79.777344 142.828125 80.195312 C 143.398438 80.964844 144.101562 81.636719 144.722656 82.375 C 144.285156 82.660156 143.851562 82.945312 143.433594 83.210938 C 137.265625 87.300781 130.933594 91.101562 124.699219 95.058594 C 123.828125 95.660156 122.921875 96.230469 122.035156 96.800781 C 121.667969 97 121.433594 97.304688 121.316406 97.636719 C 120.578125 98.257812 120.007812 99.0625 119.238281 99.664062 C 118.769531 100.101562 118.164062 100.636719 117.730469 101.222656 C 117.476562 101.140625 117.242188 101.054688 117.007812 101.003906 C 116.925781 100.703125 116.808594 100.386719 116.722656 100 C 116.1875 98.660156 115.804688 97.285156 115.417969 95.914062 C 115.636719 95.746094 115.871094 95.578125 116.085938 95.441406 C 117.511719 94.503906 118.851562 93.449219 120.277344 92.511719 C 123.726562 90.164062 127.296875 88.019531 130.664062 85.574219 C 133.179688 84.015625 135.726562 82.476562 138.253906 80.933594 C 139.511719 80.246094 140.769531 79.59375 141.972656 78.839844 Z M 92.144531 82.710938 C 95.160156 81.082031 98.109375 79.324219 101.074219 77.597656 C 103.972656 75.875 107.007812 74.332031 109.738281 72.320312 C 111.261719 71.382812 112.871094 70.527344 114.460938 69.757812 C 114.496094 69.742188 114.53125 69.722656 114.5625 69.707031 C 115.953125 70.277344 117.328125 70.914062 118.769531 71.367188 C 122.875 72.722656 127.0625 73.796875 131.183594 75.101562 C 133.496094 75.753906 135.773438 76.542969 138.070312 77.214844 C 134.953125 78.9375 131.9375 80.867188 128.90625 82.742188 C 126.425781 84.570312 123.777344 86.144531 121.214844 87.851562 C 118.984375 89.394531 116.707031 90.867188 114.511719 92.460938 C 114.058594 92.746094 113.640625 93.0625 113.207031 93.367188 C 112.367188 93.046875 111.496094 92.8125 110.660156 92.511719 C 107.441406 91.121094 104.089844 90.015625 100.671875 89.175781 C 99.515625 88.941406 98.410156 88.539062 97.304688 88.1875 C 95.261719 87.753906 93.316406 86.980469 91.324219 86.378906 C 90.199219 85.992188 89.09375 85.507812 87.957031 85.070312 C 89.398438 84.316406 90.769531 83.496094 92.144531 82.710938 Z M 84.304688 87.417969 C 84.570312 87.484375 84.839844 87.566406 85.109375 87.636719 C 86.96875 88.136719 88.660156 89.042969 90.503906 89.613281 C 93.988281 90.75 97.488281 91.824219 101.042969 92.730469 C 103.605469 93.433594 106.101562 94.1875 108.546875 95.257812 C 109.738281 95.792969 110.925781 96.0625 112.132812 96.550781 C 112.453125 98.007812 112.972656 99.53125 113.492188 100.886719 C 113.640625 101.375 113.742188 101.925781 113.960938 102.394531 C 113.507812 102.699219 113.070312 103 112.636719 103.300781 C 112.183594 102.464844 111.699219 101.625 111.277344 100.769531 C 111.210938 100.300781 111.011719 99.949219 110.742188 99.714844 C 110.640625 99.164062 110.273438 98.644531 109.738281 98.410156 C 109.585938 98.339844 109.417969 98.308594 109.234375 98.308594 C 109.132812 98.257812 109 98.207031 108.882812 98.15625 C 106.539062 97.488281 104.191406 96.851562 101.796875 96.398438 C 97.289062 95.242188 92.796875 93.464844 88.289062 92.09375 C 86.363281 91.371094 84.335938 90.515625 82.257812 89.796875 C 82.914062 88.992188 83.617188 88.203125 84.304688 87.417969 Z M 50.894531 106.5 C 54.949219 103.820312 58.953125 101.074219 63.074219 98.492188 C 65.988281 96.785156 68.871094 95.023438 71.886719 93.515625 C 73.246094 92.914062 74.570312 92.257812 75.859375 91.539062 C 76.027344 91.574219 76.195312 91.605469 76.363281 91.65625 C 77.5 91.925781 78.640625 92.210938 79.78125 92.511719 C 83.0625 93.484375 86.128906 95.058594 89.429688 95.980469 C 92.464844 97.050781 95.546875 97.972656 98.59375 99.011719 C 100.589844 99.597656 102.648438 100.015625 104.675781 100.488281 C 104.609375 100.535156 104.542969 100.570312 104.476562 100.621094 C 100.386719 103.066406 96.46875 105.78125 92.648438 108.628906 C 88.441406 111.578125 84.101562 114.359375 80.097656 117.625 C 79.761719 117.929688 79.328125 118.214844 78.890625 118.515625 C 75.289062 117.125 71.519531 116.269531 67.898438 114.894531 C 64.933594 113.804688 61.867188 113.121094 58.867188 112.148438 C 57.125 111.378906 55.300781 110.875 53.507812 110.269531 C 51.765625 109.601562 49.988281 108.949219 48.195312 108.429688 C 49.085938 107.773438 49.988281 107.121094 50.894531 106.5 Z M 45.078125 111.007812 C 46.402344 111.476562 47.8125 111.710938 49.132812 112.214844 C 52.234375 113.355469 55.382812 114.410156 58.5 115.515625 C 60.5625 116.203125 62.671875 116.738281 64.765625 117.34375 C 66.476562 117.863281 68.21875 118.648438 69.960938 119.085938 C 72.003906 119.890625 74.183594 120.359375 76.277344 121.0625 C 76.832031 122.351562 77.132812 123.757812 77.753906 125.015625 C 77.785156 125.082031 77.820312 125.132812 77.851562 125.199219 C 76.125 124.664062 74.402344 124.128906 72.675781 123.558594 C 65.554688 121.210938 58.5 118.699219 51.511719 115.984375 C 49.300781 115.148438 47.023438 114.511719 44.878906 113.554688 C 44.476562 113.453125 44.007812 113.289062 43.539062 113.101562 C 44.023438 112.398438 44.527344 111.695312 45.078125 111.007812 Z M 41.5625 122.300781 C 41.628906 120.273438 41.695312 118.230469 41.878906 116.203125 C 41.878906 116.1875 41.878906 116.1875 41.878906 116.167969 C 42.347656 116.269531 42.816406 116.371094 43.21875 116.519531 C 46.65625 117.910156 50.207031 119 53.640625 120.40625 C 59.65625 122.652344 65.6875 124.816406 71.789062 126.808594 C 75.605469 128.132812 79.542969 129.085938 83.28125 130.679688 C 91.976562 134.433594 100.320312 139.207031 109.300781 142.289062 C 116.839844 145.121094 124.464844 147.835938 131.972656 150.75 C 138.957031 153.683594 145.746094 157.101562 152.832031 159.816406 C 160.4375 162.914062 168.246094 165.328125 175.988281 168.109375 C 184.566406 170.859375 193.011719 174.023438 201.589844 176.722656 C 201.4375 180.039062 201.722656 183.355469 201.640625 186.675781 C 201.707031 187.226562 201.65625 188.046875 201.640625 188.886719 C 201.421875 188.800781 201.21875 188.71875 201.019531 188.601562 C 198.808594 187.863281 196.644531 186.941406 194.5 186.003906 C 183.746094 181.011719 172.636719 176.636719 161.863281 171.613281 C 156.199219 168.863281 150.21875 166.785156 144.519531 164.089844 C 137.851562 160.957031 131.585938 157.320312 124.785156 154.421875 C 119.203125 151.976562 113.273438 150.398438 107.625 148.085938 C 102.113281 145.875 96.785156 143.277344 91.257812 141.117188 C 82.996094 137.851562 74.734375 134.601562 66.375 131.617188 C 59.859375 129.1875 53.589844 126.105469 46.9375 124.0625 C 45.75 123.910156 43.472656 122.769531 41.5625 122.300781 Z M 95.628906 146.578125 C 96.535156 146.964844 97.421875 147.367188 98.328125 147.753906 C 98.226562 148.371094 98.308594 149.058594 98.328125 149.664062 C 98.445312 151.355469 98.277344 153.046875 98.191406 154.738281 C 98.191406 155.140625 98.191406 155.527344 98.226562 155.878906 C 97.65625 156.230469 97.1875 156.734375 96.652344 157.136719 C 96.046875 157.605469 95.496094 158.125 94.925781 158.625 C 95.144531 155.125 95.496094 151.589844 95.644531 148.105469 C 95.644531 147.601562 95.628906 147.082031 95.628906 146.578125 Z M 97.925781 160.402344 C 98.59375 159.851562 99.28125 159.28125 99.96875 158.742188 C 100.136719 158.675781 100.269531 158.59375 100.40625 158.492188 C 100.757812 158.558594 101.140625 158.59375 101.476562 158.644531 C 102.214844 158.695312 102.953125 158.695312 103.6875 158.695312 C 104.894531 158.695312 106.117188 158.695312 107.324219 158.894531 C 110.492188 159.261719 113.640625 159.882812 116.808594 160.285156 C 119.121094 160.652344 121.433594 161.003906 123.796875 161.089844 C 125.304688 161.289062 126.8125 161.492188 128.335938 161.660156 C 129.425781 161.925781 130.5625 161.945312 131.667969 161.996094 C 132.023438 162.042969 132.339844 161.976562 132.625 161.84375 C 134.71875 162.914062 136.796875 163.988281 138.890625 165.058594 C 135.890625 165.144531 132.875 165.011719 129.878906 164.925781 C 126.742188 164.859375 123.609375 164.792969 120.476562 164.574219 C 118.96875 164.507812 117.3125 164.222656 115.785156 163.972656 C 112.519531 163.621094 109.269531 163.101562 106 162.914062 C 104.207031 162.882812 102.484375 162.714844 100.671875 162.480469 C 99.132812 162.347656 97.605469 162.230469 96.066406 162.113281 C 96.667969 161.542969 97.289062 160.972656 97.925781 160.402344 Z M 101.695312 151.238281 C 101.710938 150.566406 101.644531 149.878906 101.644531 149.210938 C 103.421875 149.980469 105.214844 150.734375 107.023438 151.457031 C 112.621094 153.71875 118.535156 155.292969 124.046875 157.773438 C 123.945312 157.753906 123.84375 157.753906 123.746094 157.738281 C 122.839844 157.703125 121.917969 157.671875 121.015625 157.503906 C 117.914062 157.117188 114.847656 156.582031 111.75 156.164062 C 108.867188 155.609375 105.933594 155.308594 103.003906 155.308594 C 102.648438 155.308594 102.296875 155.308594 101.945312 155.324219 C 101.8125 155.324219 101.679688 155.308594 101.542969 155.277344 C 101.527344 154.921875 101.511719 154.570312 101.542969 154.238281 C 101.644531 153.230469 101.730469 152.242188 101.695312 151.238281 Z M 92.296875 147.167969 C 92.328125 148.605469 92.144531 150.046875 92.109375 151.503906 C 91.976562 152.628906 91.894531 153.734375 91.875 154.855469 C 91.691406 156.296875 91.589844 157.753906 91.523438 159.214844 C 90.90625 158.273438 90.269531 157.335938 89.683594 156.382812 C 89.847656 156.097656 89.949219 155.746094 89.898438 155.375 C 90.117188 153.933594 90.066406 152.476562 90.167969 151.035156 C 90.570312 148.839844 90.117188 146.863281 90.25 144.621094 C 90.25 144.535156 90.25 144.453125 90.269531 144.335938 C 90.402344 144.382812 90.535156 144.433594 90.671875 144.484375 C 91.257812 144.71875 91.84375 144.953125 92.429688 145.1875 C 92.210938 145.824219 92.3125 146.53125 92.296875 147.167969 Z M 87 149.09375 C 86.78125 150.652344 86.75 152.226562 86.699219 153.800781 C 86.699219 153.851562 86.683594 153.902344 86.683594 153.96875 C 85.996094 153.902344 85.308594 153.902344 84.636719 153.851562 C 83.363281 153.765625 82.089844 153.601562 80.816406 153.515625 C 77.484375 153.265625 74.03125 153.265625 70.664062 153.214844 C 64.179688 152.746094 57.796875 152.394531 51.296875 151.605469 C 50.992188 151.605469 50.710938 151.523438 50.441406 151.4375 C 50.476562 151.1875 50.492188 150.9375 50.523438 150.683594 C 50.792969 148.289062 50.960938 145.875 51.195312 143.480469 C 51.648438 139.777344 52.066406 136.074219 52.082031 132.355469 C 52.132812 131.449219 52.234375 130.546875 52.335938 129.640625 C 63.828125 134.296875 75.488281 138.519531 87.019531 143.0625 C 86.933594 143.414062 86.917969 143.796875 86.917969 144.148438 C 86.75 145.792969 87 147.433594 87 149.09375 Z M 52.988281 155.175781 C 58.535156 155.710938 64.097656 156.113281 69.640625 156.515625 C 72.691406 156.683594 75.742188 156.53125 78.808594 156.75 C 80.332031 156.816406 82.226562 156.96875 83.800781 157.136719 C 84.621094 157.234375 85.476562 157.203125 86.296875 157.285156 C 86.515625 157.671875 86.800781 158.023438 87 158.425781 C 87.585938 159.414062 88.257812 160.351562 88.894531 161.308594 C 86.113281 160.972656 83.347656 160.621094 80.535156 160.46875 C 76.027344 159.984375 71.46875 160.066406 66.945312 159.917969 C 62.605469 159.332031 58.230469 158.996094 53.859375 158.894531 C 52.585938 158.8125 51.363281 158.460938 50.089844 158.339844 C 48.800781 158.15625 47.507812 158.074219 46.21875 157.890625 C 46.570312 157.519531 46.921875 157.167969 47.257812 156.800781 C 47.742188 156.214844 48.632812 155.476562 49.300781 154.671875 C 50.507812 154.992188 51.765625 155.058594 52.988281 155.175781 Z M 44.828125 152.5625 C 45.449219 148.691406 46.269531 144.6875 47.105469 140.816406 C 47.828125 137.414062 48.480469 133.996094 48.75 130.546875 C 48.832031 129.789062 48.933594 129.035156 49.085938 128.300781 C 49.101562 128.300781 49.101562 128.316406 49.117188 128.316406 C 49.117188 128.367188 49.117188 128.398438 49.117188 128.449219 C 48.964844 129.824219 48.800781 131.199219 48.730469 132.574219 C 48.730469 134.953125 48.496094 137.3125 48.296875 139.691406 C 47.910156 142.59375 47.625 145.507812 47.425781 148.421875 C 47.308594 149.546875 47.191406 150.667969 47.023438 151.773438 C 46.988281 151.90625 46.972656 152.058594 46.957031 152.191406 C 46.773438 152.445312 46.570312 152.679688 46.386719 152.914062 C 45.75 153.617188 45.0625 154.269531 44.410156 154.941406 C 44.542969 154.152344 44.675781 153.367188 44.828125 152.5625 Z M 40.757812 156.550781 C 40.691406 156.851562 40.621094 157.167969 40.589844 157.488281 C 40.355469 158.007812 40.320312 158.660156 40.320312 159.246094 C 40.238281 160.117188 40.1875 160.972656 40.203125 161.84375 C 40.21875 162.261719 40.21875 162.664062 40.203125 163.082031 C 40.171875 163.066406 40.121094 163.050781 40.085938 163.03125 C 39.417969 162.832031 38.546875 162.464844 37.839844 162.210938 C 36.316406 161.878906 34.960938 161.089844 33.484375 160.621094 C 33.535156 160.101562 33.535156 159.566406 33.550781 159.113281 C 33.71875 157.671875 33.886719 156.246094 34.15625 154.824219 C 34.1875 154.589844 34.222656 154.335938 34.253906 154.085938 C 34.558594 153.851562 34.808594 153.515625 35.042969 153.214844 C 35.5625 152.679688 35.882812 152.308594 36.449219 151.738281 C 36.683594 151.523438 36.871094 151.269531 37.039062 151.003906 C 37.289062 151.035156 37.554688 151.019531 37.824219 150.96875 C 39.066406 151.054688 40.203125 151.539062 41.410156 151.757812 C 41.460938 151.789062 41.527344 151.824219 41.578125 151.859375 C 41.242188 153.433594 41.023438 155.007812 40.757812 156.550781 Z M 42.113281 148.507812 C 41.59375 148.390625 41.09375 148.273438 40.589844 148.085938 C 40.320312 148.039062 40.035156 147.96875 39.769531 147.921875 C 40.421875 147.367188 41.109375 146.832031 41.777344 146.277344 C 42.097656 146.027344 42.398438 145.757812 42.71875 145.492188 C 42.5 146.496094 42.296875 147.5 42.113281 148.507812 Z M 43.21875 168.175781 C 43.320312 166.667969 43.488281 165.179688 43.539062 163.667969 C 43.554688 162.796875 43.554688 161.910156 43.589844 161.023438 C 43.921875 161.039062 44.242188 161.074219 44.578125 161.074219 C 46.234375 161.273438 47.894531 161.476562 49.554688 161.660156 C 51.128906 161.828125 52.652344 162.261719 54.226562 162.277344 C 56.640625 162.277344 59.054688 162.546875 61.449219 162.648438 C 63.492188 162.847656 65.519531 163.21875 67.582031 163.300781 C 72.222656 163.367188 76.847656 163.453125 81.453125 163.871094 C 85.910156 164.257812 90.335938 164.910156 94.792969 165.328125 C 98.09375 165.53125 101.375 165.949219 104.675781 166.199219 C 106.855469 166.199219 109 166.519531 111.144531 166.769531 C 113.289062 167.039062 115.433594 167.238281 117.5625 167.640625 C 123.84375 168.292969 130.277344 168.261719 136.597656 168.429688 C 137.484375 168.460938 138.390625 168.429688 139.277344 168.394531 C 140.148438 168.359375 141.019531 168.328125 141.90625 168.359375 C 142.460938 168.429688 142.980469 168.628906 143.550781 168.597656 C 144.1875 168.578125 144.789062 168.597656 145.425781 168.644531 C 145.777344 168.679688 146.0625 168.644531 146.3125 168.546875 C 152.195312 171.109375 158.175781 173.453125 163.972656 176.21875 C 160.386719 176.335938 156.800781 176.570312 153.21875 176.722656 C 151.121094 176.871094 148.996094 176.671875 146.882812 176.453125 C 145.273438 176.285156 143.648438 176.136719 142.042969 176.136719 C 141.925781 176.136719 141.789062 176.136719 141.671875 176.136719 C 136.363281 176.136719 131.015625 176.503906 125.789062 175.449219 C 123.175781 175.046875 120.59375 174.511719 117.949219 174.242188 C 114.414062 174.089844 110.945312 173.957031 107.425781 173.503906 C 102.816406 172.75 98.175781 172.265625 93.535156 171.8125 C 91.859375 171.59375 90.167969 171.359375 88.476562 171.277344 C 85.929688 170.941406 83.398438 170.671875 80.835938 170.457031 C 78.136719 170.171875 75.441406 170.003906 72.726562 169.988281 C 69.828125 169.785156 66.84375 169.515625 63.929688 169.300781 C 59.054688 169.082031 54.160156 169.183594 49.300781 168.730469 C 47.339844 168.5625 45.363281 168.3125 43.355469 168.160156 C 43.285156 168.175781 43.253906 168.175781 43.21875 168.175781 Z M 49.9375 172.164062 C 49.871094 172.367188 49.804688 172.566406 49.753906 172.75 C 49.636719 173.070312 49.535156 173.386719 49.417969 173.707031 C 49.234375 173.171875 49.066406 172.617188 48.898438 172.082031 C 49.25 172.113281 49.585938 172.132812 49.9375 172.164062 Z M 56.472656 220.203125 C 56.355469 221.140625 56.222656 222.078125 56.121094 223.015625 C 53.15625 213.097656 50.609375 203.042969 48.75 192.855469 C 47.695312 187.410156 46.773438 181.949219 45.785156 176.503906 C 45.449219 174.878906 45.113281 173.253906 44.746094 171.644531 C 44.777344 171.644531 44.828125 171.660156 44.863281 171.660156 C 45.011719 171.679688 45.148438 171.695312 45.296875 171.710938 C 46.804688 176.589844 48.328125 181.464844 49.90625 186.324219 C 51.042969 190.761719 52.050781 195.238281 53.15625 199.691406 C 53.589844 202.15625 54.277344 204.585938 54.796875 207.03125 C 55.117188 209.226562 55.652344 211.355469 56.238281 213.484375 C 56.371094 213.96875 56.507812 214.539062 56.722656 215.023438 C 56.523438 216.75 56.625 218.507812 56.472656 220.203125 Z M 58.683594 209.546875 C 57.695312 204.265625 56.488281 199.039062 55.183594 193.828125 C 54.378906 190.5625 53.757812 187.246094 52.667969 184.0625 C 52.402344 183.273438 52.148438 182.484375 51.914062 181.699219 C 52.484375 181.28125 52.921875 180.558594 53.441406 180.125 C 53.472656 180.074219 53.523438 180.039062 53.558594 179.988281 C 53.609375 180.15625 53.640625 180.339844 53.675781 180.527344 C 54.078125 182.535156 54.898438 184.445312 55.234375 186.472656 C 56.574219 191.867188 58.066406 197.246094 59.574219 202.59375 C 59.890625 203.914062 60.378906 205.1875 60.695312 206.511719 C 60.710938 206.578125 60.730469 206.648438 60.746094 206.714844 C 60.679688 206.796875 60.628906 206.898438 60.59375 207 C 60.460938 207.351562 60.242188 207.683594 60.074219 208.039062 C 59.671875 208.773438 59.238281 209.476562 58.800781 210.199219 C 58.800781 209.964844 58.75 209.761719 58.683594 209.546875 Z M 246.542969 207.132812 C 246.105469 207.167969 245.65625 207.25 245.21875 207.285156 C 242.269531 207.636719 239.289062 207.851562 236.40625 208.589844 C 223.085938 211.789062 209.3125 211.808594 195.757812 213.5 C 191.886719 214.136719 187.984375 214.503906 184.164062 215.441406 C 180.5625 215.878906 177.027344 216.582031 173.492188 217.351562 C 165.046875 218.742188 156.550781 219.898438 148.039062 220.855469 C 144.4375 221.207031 140.851562 221.625 137.25 221.910156 C 133.765625 222.042969 130.261719 221.996094 126.792969 222.496094 C 122.320312 222.882812 117.929688 223.921875 113.457031 224.390625 C 106.152344 225.3125 98.828125 226.234375 91.492188 226.953125 C 87.671875 227.238281 83.851562 227.238281 80.113281 228.210938 C 76.445312 228.644531 72.757812 228.914062 69.074219 229.351562 C 65.972656 229.683594 62.875 230.105469 59.742188 230.269531 C 59.503906 230.289062 59.253906 230.304688 58.96875 230.320312 C 59.003906 230.070312 59.035156 229.820312 59.035156 229.566406 C 59.222656 227.824219 59.203125 226.066406 59.320312 224.304688 C 59.757812 221.828125 59.824219 219.3125 59.976562 216.800781 C 60.175781 216.765625 60.378906 216.734375 60.5625 216.734375 C 61.867188 216.667969 63.175781 216.632812 64.480469 216.550781 C 69.457031 216.3125 74.382812 215.542969 79.328125 215.039062 C 84.621094 215.058594 89.917969 215.660156 95.210938 215.226562 C 99.984375 214.941406 104.695312 214.152344 109.453125 213.785156 C 115.484375 213.332031 121.582031 213.046875 127.613281 212.242188 C 135.222656 211.4375 142.828125 210.800781 150.386719 209.644531 C 157.792969 208.320312 165.296875 207.535156 172.769531 206.714844 C 175.851562 206.613281 178.917969 206.277344 182.003906 206.09375 C 183.511719 205.976562 185 205.808594 186.441406 205.390625 C 186.777344 205.421875 187.078125 205.355469 187.363281 205.238281 C 191.234375 206.210938 195.15625 207.25 199.042969 208.085938 C 203.097656 208.957031 207.183594 210.046875 211.324219 210.332031 C 212.246094 210.550781 212.914062 210.082031 213.21875 209.410156 C 213.886719 208.941406 214.40625 208.136719 214.960938 207.617188 C 215.578125 206.964844 216.25 206.363281 216.851562 205.707031 C 217.589844 204.886719 218.308594 204.050781 219.03125 203.210938 C 219.367188 203.210938 219.703125 203.09375 219.96875 202.910156 C 224.226562 202.660156 228.429688 201.855469 232.667969 201.484375 C 236.003906 201.234375 239.304688 200.75 242.621094 200.3125 C 243.558594 200.230469 244.515625 200.113281 245.453125 199.945312 C 245.871094 202.308594 246.410156 204.703125 246.542969 207.132812 Z M 240.425781 184.414062 C 241.316406 187.160156 242.453125 189.789062 243.558594 192.453125 C 242.890625 191.71875 242.253906 190.964844 241.667969 190.175781 C 241.5 189.605469 241.0625 189.222656 240.578125 189.070312 C 240.460938 188.703125 240.34375 188.332031 240.226562 187.980469 C 239.890625 186.992188 239.488281 186.019531 239.171875 185.03125 C 239.136719 184.5625 238.902344 184.128906 238.566406 183.84375 C 238.632812 182.636719 238.683594 181.429688 238.75 180.207031 C 239.320312 181.597656 239.875 183.003906 240.425781 184.414062 Z M 265.375 134.933594 C 263.097656 137.0625 260.835938 139.207031 258.4375 141.203125 C 252.40625 146.3125 246.191406 151.1875 240.308594 156.5 C 236.121094 160.300781 231.847656 164.003906 227.742188 167.910156 C 222.53125 172.230469 217.472656 176.722656 212.511719 181.328125 C 210.585938 182.953125 208.792969 184.714844 206.867188 186.339844 C 206.246094 186.859375 205.609375 187.363281 205.007812 187.882812 C 204.972656 185.703125 205.023438 183.425781 204.972656 181.3125 C 204.988281 179.621094 204.839844 177.910156 204.988281 176.234375 C 209.730469 172.617188 214.824219 169.351562 219.464844 165.5625 C 223.101562 162.933594 225.582031 158.996094 229.484375 156.699219 C 233.574219 154.035156 237.109375 150.667969 240.996094 147.753906 C 243.425781 146.078125 245.519531 143.984375 247.765625 142.074219 C 250.296875 139.84375 252.910156 137.734375 255.472656 135.539062 C 258.722656 132.539062 262.746094 130.546875 266.179688 127.78125 C 266.28125 129.222656 266.332031 130.679688 266.414062 132.136719 C 266.480469 132.691406 266.449219 133.292969 266.480469 133.863281 C 266.078125 134.179688 265.761719 134.601562 265.375 134.933594 Z M 265.375 134.933594 " fill-opacity="1" fill-rule="nonzero"/></g></svg>