<svg xmlns="http://www.w3.org/2000/svg" xmlns:xlink="http://www.w3.org/1999/xlink" width="400" zoomAndPan="magnify" viewBox="0 0 300 299.999988" height="400" preserveAspectRatio="xMidYMid meet" version="1.0"><path fill="#a9a0f0" d="M 137.878906 139.277344 C 136.515625 136.792969 134.570312 134.371094 131.992188 131.988281 C 124.328125 135.445312 116.683594 136.691406 109.800781 137.035156 C 102.863281 137.359375 96.625 136.777344 91.082031 136 C 85.527344 135.210938 80.65625 134.238281 76.355469 133.335938 C 72.058594 132.441406 68.28125 131.535156 65.097656 130.414062 C 58.703125 128.21875 54.921875 125.191406 52.910156 123.035156 C 50.894531 120.855469 50.410156 119.609375 50.519531 119.554688 C 50.667969 119.445312 51.386719 120.496094 53.511719 122.410156 C 55.636719 124.296875 59.367188 126.972656 65.601562 128.90625 C 68.71875 129.894531 72.417969 130.6875 76.730469 131.496094 C 81.027344 132.324219 85.871094 133.234375 91.351562 133.949219 C 96.835938 134.652344 102.957031 135.179688 109.691406 134.832031 C 116.082031 134.488281 123.113281 133.320312 130.105469 130.328125 C 129.539062 129.863281 128.9375 129.386719 128.324219 128.90625 C 126.355469 127.394531 124.242188 125.96875 122.203125 124.574219 C 119.476562 122.722656 116.667969 120.808594 114.074219 118.648438 C 113.761719 118.402344 113.476562 118.113281 113.179688 117.855469 C 112.5625 118.339844 111.910156 118.921875 111.039062 119.375 C 109.972656 119.910156 108.996094 120.121094 108.03125 120.371094 C 106.085938 120.855469 104.15625 121.0625 102.261719 121.132812 C 98.492188 121.273438 94.925781 120.808594 91.625 120.191406 C 85.023438 118.90625 79.277344 117.289062 73.988281 116.882812 C 68.75 116.46875 63.914062 117.1875 59.515625 116.75 C 55.113281 116.46875 51.292969 114.757812 48.785156 112.5625 C 46.207031 110.402344 44.585938 108.066406 43.394531 106.105469 C 42.210938 104.121094 41.449219 102.453125 40.875 101.152344 C 39.734375 98.53125 39.394531 97.355469 39.535156 97.292969 C 39.667969 97.214844 40.289062 98.28125 41.660156 100.765625 C 42.34375 101.996094 43.210938 103.574219 44.453125 105.4375 C 45.707031 107.257812 47.34375 109.398438 49.78125 111.332031 C 52.195312 113.277344 55.519531 114.671875 59.660156 114.898438 C 63.796875 115.238281 68.585938 114.460938 74.152344 114.820312 C 79.6875 115.175781 85.574219 116.8125 92.03125 118.027344 C 95.246094 118.609375 98.640625 119.039062 102.175781 118.90625 C 103.945312 118.828125 105.734375 118.617188 107.503906 118.191406 C 108.390625 117.964844 109.316406 117.722656 109.988281 117.382812 C 110.46875 117.140625 110.953125 116.75 111.472656 116.328125 C 107.820312 112.902344 104.527344 109.105469 101.351562 105.375 C 99.078125 102.710938 96.742188 99.953125 94.304688 97.410156 C 92.863281 95.914062 91.351562 94.488281 89.828125 93.101562 C 84.859375 96.273438 79.472656 97.277344 74.738281 97.472656 C 69.949219 97.617188 65.695312 96.949219 61.953125 96.1875 C 54.546875 94.550781 48.738281 92.929688 44.695312 90.601562 C 40.640625 88.304688 38.53125 85.738281 37.460938 84.015625 C 36.402344 82.277344 36.277344 81.375 36.386719 81.320312 C 36.566406 81.242188 36.957031 82.007812 38.1875 83.5 C 39.394531 84.988281 41.535156 87.214844 45.445312 89.210938 C 49.320312 91.210938 55.019531 92.652344 62.355469 94.144531 C 66.023438 94.839844 70.144531 95.4375 74.644531 95.25 C 78.941406 95.074219 83.714844 94.144531 88.074219 91.53125 C 72.625 78.128906 53.121094 69.492188 35.296875 61.886719 C 34.488281 78.582031 34.769531 97.144531 43.378906 112.007812 C 46.730469 117.785156 51.515625 123.320312 58.003906 128.953125 C 69.363281 138.800781 82.234375 145.667969 95.230469 148.832031 C 95.511719 148.894531 95.800781 148.949219 96.085938 149.011719 C 105.523438 142.617188 116.722656 138.855469 128.175781 138.542969 C 131.578125 138.460938 134.824219 138.722656 137.878906 139.277344 Z M 150.492188 103.785156 C 146.15625 85.253906 135.574219 68.792969 121.035156 58.492188 C 102.730469 45.527344 78.503906 42.863281 59.335938 51.671875 C 57.433594 52.550781 55.503906 53.546875 53.621094 54.535156 C 48.644531 57.128906 43.542969 59.792969 38 60.601562 C 47.445312 64.644531 57.28125 68.996094 66.730469 74.21875 C 66.910156 70.078125 66.070312 66.558594 65.019531 63.832031 C 63.859375 60.75 62.417969 58.585938 61.265625 56.980469 C 58.867188 53.835938 57.628906 52.863281 57.871094 52.566406 C 57.972656 52.425781 58.347656 52.566406 59.140625 53.039062 C 59.917969 53.539062 61.070312 54.417969 62.496094 55.976562 C 63.882812 57.535156 65.578125 59.777344 66.949219 63.054688 C 68.273438 66.199219 69.300781 70.40625 68.898438 75.449219 C 78.699219 81.050781 88.027344 87.636719 95.917969 95.851562 C 97.292969 97.292969 98.609375 98.769531 99.925781 100.265625 C 100.199219 95.375 99.839844 90.804688 99.078125 86.695312 C 98.191406 81.890625 96.742188 77.683594 95.214844 73.988281 C 93.671875 70.289062 92.070312 67.0625 90.605469 64.269531 C 89.125 61.449219 87.71875 59.089844 86.355469 57.144531 C 83.660156 53.234375 81.207031 51.039062 79.585938 49.714844 C 77.953125 48.429688 77.167969 47.941406 77.25 47.777344 C 77.3125 47.667969 78.242188 47.894531 80.09375 49.015625 C 81.921875 50.152344 84.6875 52.277344 87.640625 56.21875 C 89.140625 58.164062 90.667969 60.554688 92.234375 63.367188 C 93.804688 66.183594 95.503906 69.398438 97.132812 73.175781 C 100.378906 80.574219 103.148438 90.601562 101.996094 102.679688 C 102.355469 103.085938 102.714844 103.503906 103.054688 103.910156 C 106.902344 108.425781 110.90625 113.113281 115.5 116.929688 C 117.726562 118.773438 120.140625 120.449219 122.507812 122.070312 C 124.523438 115.691406 125.949219 109.742188 125.226562 104.332031 C 124.882812 101.425781 124.164062 98.667969 123.472656 96.03125 C 122.757812 93.398438 122.085938 90.882812 121.457031 88.515625 C 118.878906 79.054688 116.246094 71.898438 113.683594 66.699219 C 111.140625 61.488281 108.867188 58.179688 107.386719 56.09375 C 105.890625 54.015625 105.199219 53.132812 105.324219 53.007812 C 105.421875 52.925781 106.335938 53.609375 108.0625 55.554688 C 109.800781 57.488281 112.324219 60.75 115.109375 65.972656 C 117.90625 71.199219 120.753906 78.457031 123.449219 87.949219 C 124.101562 90.332031 124.8125 92.828125 125.542969 95.460938 C 126.277344 98.117188 127.039062 100.960938 127.414062 104.058594 C 127.816406 107.171875 127.621094 110.519531 126.992188 113.863281 C 126.410156 117.007812 125.449219 120.160156 124.445312 123.398438 C 126.199219 124.597656 127.980469 125.820312 129.6875 127.121094 C 130.824219 127.992188 131.875 128.875 132.863281 129.761719 C 135.738281 123.191406 137.183594 116.671875 137.667969 110.691406 C 138.171875 104.386719 137.636719 98.625 136.53125 93.625 C 135.441406 88.59375 133.578125 84.375 131.921875 80.597656 C 130.246094 76.828125 128.789062 73.566406 127.3125 70.855469 C 124.40625 65.4375 121.425781 62.351562 119.378906 60.617188 C 117.3125 58.878906 116.246094 58.3125 116.347656 58.148438 C 116.394531 58.023438 117.59375 58.328125 119.914062 59.917969 C 122.203125 61.496094 125.527344 64.582031 128.699219 70.078125 C 130.316406 72.804688 131.875 76.097656 133.609375 79.835938 C 135.363281 83.5625 137.355469 87.917969 138.546875 93.15625 C 139.746094 98.351562 140.363281 104.316406 139.855469 110.855469 C 139.371094 117.304688 137.800781 124.328125 134.601562 131.40625 C 136.335938 133.125 137.769531 134.878906 138.921875 136.660156 C 138.445312 124.769531 142.566406 112.710938 150.492188 103.785156 Z M 142.082031 149.9375 C 144 149.058594 145.898438 148.113281 147.757812 147.109375 C 145.734375 145.667969 142.730469 144.726562 140.199219 144.042969 C 136.578125 143.054688 132.574219 142.617188 128.300781 142.734375 C 113.507812 143.140625 99.140625 149.710938 89.046875 160.480469 C 95.863281 160.761719 102.714844 160.402344 109.511719 159.460938 C 108.601562 157.988281 107.464844 156.929688 106.414062 156.195312 C 105.082031 155.253906 103.867188 154.757812 102.925781 154.429688 C 101.039062 153.796875 100.199219 153.714844 100.199219 153.347656 C 100.183594 153.097656 101.007812 152.597656 103.296875 152.886719 C 104.417969 153.050781 105.90625 153.441406 107.566406 154.476562 C 109.042969 155.386719 110.710938 156.851562 111.910156 159.101562 C 116.332031 158.394531 120.707031 157.417969 125.023438 156.210938 C 123.871094 154.445312 122.546875 153.144531 121.339844 152.195312 C 119.867188 151.058594 118.535156 150.386719 117.515625 149.90625 C 115.453125 148.980469 114.558594 148.722656 114.613281 148.378906 C 114.628906 148.113281 115.617188 147.796875 118.0625 148.410156 C 119.253906 148.738281 120.808594 149.320312 122.5625 150.535156 C 124.132812 151.59375 125.855469 153.199219 127.28125 155.550781 C 131.5625 154.265625 135.738281 152.707031 139.824219 150.941406 C 137.667969 149.109375 135.527344 147.917969 133.65625 147.109375 C 131.421875 146.136719 129.554688 145.683594 128.121094 145.375 C 125.242188 144.789062 124.074219 144.726562 124.058594 144.371094 C 124.050781 144.097656 125.203125 143.605469 128.339844 143.785156 C 129.898438 143.917969 131.96875 144.238281 134.4375 145.195312 C 136.742188 146.058594 139.433594 147.515625 142.082031 149.9375 Z M 148.296875 152.839844 C 149.332031 150.746094 149.660156 149.625 149.371094 148.800781 C 144.511719 151.421875 139.449219 153.699219 134.242188 155.597656 C 134.539062 157.257812 134.28125 158.742188 133.835938 159.832031 C 133.300781 161.101562 132.558594 161.898438 131.953125 162.402344 C 130.675781 163.382812 129.972656 163.320312 129.84375 163.066406 C 129.671875 162.785156 130.042969 162.347656 130.800781 161.3125 C 131.140625 160.789062 131.59375 160.089844 131.875 159.117188 C 132.117188 158.371094 132.25 157.410156 132.101562 156.34375 C 126.5625 158.246094 120.871094 159.753906 115.09375 160.820312 L 115.351562 160.921875 C 114.410156 163.15625 112.890625 164.558594 111.542969 165.386719 C 110.195312 166.242188 108.988281 166.554688 108.0625 166.683594 C 106.1875 166.878906 105.515625 166.421875 105.539062 166.164062 C 105.539062 165.804688 106.21875 165.679688 107.683594 165.128906 C 108.421875 164.847656 109.363281 164.441406 110.390625 163.679688 C 111.15625 163.113281 111.964844 162.332031 112.640625 161.257812 C 106.328125 162.300781 99.925781 162.839844 93.566406 162.839844 C 92.039062 162.839844 90.511719 162.792969 88.984375 162.738281 C 102.628906 170.757812 120.078125 171.777344 134.507812 165.121094 C 139.09375 162.996094 145.195312 159.148438 148.296875 152.839844 Z M 184.957031 100.867188 C 189.488281 95.195312 194.058594 88.90625 196.261719 81.796875 C 187.921875 85.207031 179.730469 89.085938 171.828125 93.367188 C 166.199219 96.433594 160.335938 99.90625 155.554688 104.546875 C 146.085938 113.777344 141.617188 127.621094 143.492188 140.640625 C 145.136719 141.152344 146.769531 141.753906 148.265625 142.53125 C 148.703125 142.210938 149.144531 141.933594 149.566406 141.597656 C 147.519531 138.511719 146.425781 135.210938 146.054688 132.136719 C 145.679688 128.9375 146.054688 126.03125 146.675781 123.53125 C 147.984375 118.535156 150.0625 115.105469 151.636719 112.578125 C 154.929688 107.59375 156.527344 106.003906 156.769531 106.136719 C 157.054688 106.332031 155.886719 108.292969 153.007812 113.402344 C 151.636719 115.957031 149.792969 119.359375 148.703125 124.023438 C 148.179688 126.34375 147.875 129 148.25 131.871094 C 148.59375 134.566406 149.566406 137.46875 151.332031 140.179688 C 155.761719 136.496094 159.609375 132.097656 163.277344 127.636719 C 161.394531 122.039062 161.441406 116.992188 162.09375 113.066406 C 162.773438 109.027344 164.070312 106.066406 165.222656 103.941406 C 166.390625 101.816406 167.460938 100.507812 168.191406 99.746094 C 168.9375 98.996094 169.328125 98.730469 169.445312 98.832031 C 169.570312 98.925781 169.40625 99.371094 168.890625 100.265625 C 168.402344 101.167969 167.574219 102.546875 166.648438 104.640625 C 165.738281 106.738281 164.65625 109.578125 164.148438 113.386719 C 163.683594 116.734375 163.667969 120.925781 164.96875 125.542969 C 165.175781 125.285156 165.386719 125.027344 165.597656 124.769531 L 174.03125 114.367188 C 172.902344 112.964844 172.230469 111.394531 171.890625 109.929688 C 171.453125 108.082031 171.4375 106.363281 171.617188 104.867188 C 172.007812 101.855469 172.949219 99.746094 173.679688 98.1875 C 175.214844 95.121094 176.078125 94.144531 176.335938 94.269531 C 176.648438 94.402344 176.257812 95.671875 175.152344 98.800781 C 174.636719 100.359375 173.921875 102.421875 173.679688 105.078125 C 173.578125 106.378906 173.640625 107.859375 174.03125 109.398438 C 174.3125 110.480469 174.777344 111.585938 175.480469 112.59375 L 182.710938 103.667969 C 182.9375 103.378906 183.171875 103.085938 183.398438 102.796875 C 182.277344 100.523438 181.792969 98.367188 181.675781 96.613281 C 181.527344 94.660156 181.761719 93.125 182.035156 92.003906 C 182.621094 89.761719 183.3125 89.085938 183.5625 89.179688 C 183.886719 89.292969 183.757812 90.152344 183.609375 92.246094 C 183.546875 93.304688 183.5 94.667969 183.742188 96.402344 C 183.902344 97.710938 184.269531 99.238281 184.957031 100.867188 Z M 190.765625 119.039062 C 195.359375 107.367188 199.320312 95.003906 198.246094 82.980469 C 195.476562 91.453125 189.675781 98.640625 184.449219 105.078125 L 177.699219 113.425781 C 180.214844 113.355469 182.394531 112.753906 184.128906 112.023438 C 186.558594 111.019531 188.21875 109.757812 189.417969 108.753906 C 191.785156 106.675781 192.46875 105.570312 192.796875 105.777344 C 192.9375 105.855469 192.890625 106.199219 192.585938 106.898438 C 192.289062 107.59375 191.691406 108.621094 190.523438 109.898438 C 189.355469 111.152344 187.617188 112.679688 184.972656 113.921875 C 182.667969 115 179.566406 115.871094 175.898438 115.628906 L 167.335938 126.195312 C 165.417969 128.5625 163.472656 130.945312 161.457031 133.273438 C 163.847656 133.804688 166.214844 133.664062 168.308594 133.25 C 170.707031 132.734375 172.800781 131.871094 174.566406 130.914062 C 178.125 128.96875 180.570312 126.792969 182.441406 125.175781 C 186.125 121.875 187.585938 120.582031 187.828125 120.824219 C 188.023438 121.03125 187.019531 122.652344 183.53125 126.335938 C 181.761719 128.125 179.355469 130.507812 175.589844 132.71875 C 173.679688 133.820312 171.4375 134.824219 168.773438 135.398438 C 166.128906 135.976562 162.996094 136.140625 159.78125 135.164062 L 159.789062 135.117188 C 157.625 137.5 155.328125 139.757812 152.859375 141.824219 C 155.585938 142.4375 158.03125 142.453125 160.03125 142.226562 C 162.46875 141.972656 164.328125 141.402344 165.722656 140.941406 C 168.503906 139.9375 169.539062 139.355469 169.75 139.652344 C 169.894531 139.859375 169.179688 140.925781 166.34375 142.40625 C 164.929688 143.109375 162.964844 143.886719 160.304688 144.285156 C 157.710938 144.679688 154.402344 144.695312 150.664062 143.574219 C 150.554688 143.652344 150.453125 143.722656 150.34375 143.800781 C 150.929688 144.222656 151.464844 144.679688 151.949219 145.195312 C 153.054688 146.347656 153.519531 147.601562 153.621094 148.832031 C 160.015625 147.710938 166.890625 144.671875 174.792969 139.535156 C 177.949219 137.484375 181.226562 135.164062 183.757812 132.199219 C 186.902344 128.515625 188.878906 123.875 190.765625 119.039062 Z M 264.488281 257.117188 C 261.503906 251.636719 255.90625 247.742188 250.464844 243.976562 C 249.085938 243.015625 247.722656 242.074219 246.40625 241.101562 C 241.414062 237.449219 236.898438 233.214844 232.601562 228.796875 C 232.304688 232.480469 232.632812 235.636719 233.136719 238.210938 C 233.722656 241.15625 234.53125 243.375 235.195312 245.050781 C 236.558594 248.390625 237.257812 249.621094 236.945312 249.832031 C 236.734375 249.976562 235.550781 249.050781 233.738281 245.726562 C 232.875 244.050781 231.855469 241.753906 231.121094 238.648438 C 230.390625 235.550781 229.9375 231.59375 230.554688 226.898438 L 230.816406 226.9375 C 228.039062 223.988281 225.34375 220.980469 222.679688 218.015625 C 220.414062 215.484375 218.109375 212.929688 215.757812 210.398438 C 214.800781 217.179688 214.957031 222.972656 215.851562 227.628906 C 216.824219 232.761719 218.546875 236.515625 220.089844 239.1875 C 221.660156 241.878906 223.085938 243.507812 223.964844 244.589844 C 224.847656 245.632812 225.25 246.117188 225.132812 246.25 C 225.039062 246.355469 224.457031 246.101562 223.351562 245.203125 C 222.246094 244.300781 220.570312 242.746094 218.742188 240.035156 C 216.925781 237.324219 214.957031 233.425781 213.820312 228.027344 C 212.675781 222.75 212.511719 216.074219 213.804688 208.335938 C 211.859375 206.3125 209.894531 204.300781 207.871094 202.417969 C 202.398438 197.285156 196.316406 192.550781 190.273438 188.003906 C 191.949219 200.417969 195.03125 210.5625 198.230469 218.628906 C 201.671875 227.34375 205.253906 233.765625 208.082031 238.570312 C 210.953125 243.359375 213.171875 246.535156 214.550781 248.570312 C 215.96875 250.59375 216.507812 251.535156 216.390625 251.621094 C 216.273438 251.730469 215.496094 250.984375 213.859375 249.105469 C 212.246094 247.207031 209.816406 244.152344 206.734375 239.410156 C 203.683594 234.660156 199.921875 228.222656 196.316406 219.40625 C 192.757812 210.773438 189.371094 199.769531 187.742188 186.121094 C 187.390625 185.847656 187.019531 185.566406 186.675781 185.296875 C 180.554688 180.730469 174.359375 176.074219 168.566406 170.984375 C 168.269531 177.066406 168.820312 182.703125 169.734375 187.792969 C 170.738281 193.425781 172.152344 198.421875 173.59375 202.871094 C 175.042969 207.316406 176.53125 211.222656 177.863281 214.667969 C 179.222656 218.125 180.390625 221.128906 181.527344 223.660156 C 183.789062 228.738281 185.929688 231.914062 187.378906 233.851562 C 188.847656 235.796875 189.566406 236.609375 189.449219 236.742188 C 189.339844 236.835938 188.429688 236.234375 186.707031 234.421875 C 185.019531 232.597656 182.574219 229.4375 180.089844 224.335938 C 178.835938 221.789062 177.574219 218.792969 176.125 215.367188 C 174.699219 211.925781 173.144531 208.015625 171.632812 203.523438 C 170.105469 199.039062 168.628906 193.945312 167.558594 188.183594 C 166.515625 182.476562 165.886719 176.058594 166.421875 169.050781 C 163.730469 166.570312 161.128906 163.976562 158.699219 161.242188 C 157.351562 164.558594 156.683594 167.867188 156.316406 170.9375 C 155.925781 174.503906 155.957031 177.765625 156.121094 180.699219 C 156.472656 186.578125 157.1875 191.175781 157.5625 194.710938 C 158.386719 201.789062 158.246094 204.527344 157.953125 204.542969 C 157.625 204.542969 157.21875 201.878906 155.988281 194.933594 C 155.40625 191.445312 154.527344 186.867188 154.042969 180.832031 C 153.832031 177.828125 153.746094 174.441406 154.136719 170.71875 C 154.511719 167.167969 155.320312 163.273438 157.0625 159.335938 C 156.035156 158.097656 155.046875 156.820312 154.089844 155.503906 C 151.871094 159.996094 150.492188 164.023438 149.566406 167.425781 C 148.523438 171.257812 148.023438 174.324219 147.664062 176.675781 C 147.019531 181.371094 146.902344 183.214844 146.558594 183.214844 C 146.289062 183.214844 145.84375 181.371094 146.085938 176.503906 C 146.25 174.082031 146.589844 170.898438 147.5625 166.910156 C 148.359375 163.585938 149.613281 159.707031 151.636719 155.417969 C 149.777344 158.875 147.230469 161.671875 144.480469 163.875 C 143.054688 174.84375 144.902344 186.757812 149.953125 198.128906 C 156.082031 211.910156 166.484375 224.664062 181.738281 237.097656 C 191.996094 245.4375 200.886719 250.625 209.730469 253.371094 C 220.773438 256.816406 232.257812 256.730469 244.398438 256.621094 C 251 256.566406 257.78125 256.535156 264.488281 257.117188 Z M 265.742188 246.816406 C 265.835938 237.714844 265.933594 228.316406 265.234375 219.128906 C 264.066406 203.695312 260.726562 191.265625 255.042969 181.121094 C 246.34375 165.609375 230.640625 153.199219 210.808594 146.183594 C 202.078125 143.101562 192.5625 140.972656 181.761719 139.742188 C 180.230469 140.941406 178.640625 142.03125 177.082031 143.054688 C 175.703125 143.933594 174.195312 144.890625 172.542969 145.832031 C 176.367188 145.296875 179.941406 145.070312 183.1875 145.070312 C 191.378906 145.03125 197.710938 146.253906 202.414062 147.4375 C 207.109375 148.667969 210.222656 149.9375 212.152344 150.824219 C 214.085938 151.734375 214.878906 152.210938 214.800781 152.367188 C 214.746094 152.5 213.84375 152.304688 211.84375 151.640625 C 209.832031 151.019531 206.6875 150 202.039062 148.996094 C 197.398438 148.019531 191.199219 146.984375 183.21875 147.140625 C 177.996094 147.226562 171.929688 147.84375 165.316406 149.53125 C 162.28125 150.847656 159.003906 151.984375 155.570312 152.691406 C 155.375 152.777344 155.179688 152.839844 154.984375 152.917969 C 157.203125 156.089844 159.671875 159.070312 162.335938 161.898438 C 170.300781 157.964844 178.265625 155.910156 185.601562 155.082031 C 193.039062 154.25 199.851562 154.6875 205.824219 155.808594 C 217.816406 158.082031 226.332031 162.792969 232.210938 166.863281 C 238.144531 171.015625 241.554688 174.699219 243.632812 177.050781 C 245.699219 179.441406 246.390625 180.640625 246.296875 180.714844 C 246.148438 180.832031 245.222656 179.828125 242.988281 177.648438 C 240.746094 175.507812 237.226562 172.082031 231.332031 168.1875 C 225.445312 164.363281 217.097656 159.933594 205.449219 157.839844 C 199.65625 156.804688 193.039062 156.429688 185.84375 157.269531 C 178.9375 158.082031 171.46875 159.996094 164 163.601562 C 168.757812 168.421875 174.03125 172.796875 179.433594 176.988281 L 179.402344 176.894531 C 187.453125 174.875 195.117188 174.699219 201.929688 175.382812 C 208.773438 176.113281 214.800781 177.671875 220.042969 179.585938 C 225.28125 181.480469 229.757812 183.738281 233.441406 186.175781 C 237.140625 188.605469 239.984375 191.238281 242.304688 193.574219 C 246.914062 198.296875 249.847656 201.703125 251.878906 203.726562 C 253.890625 205.773438 254.785156 206.636719 254.667969 206.777344 C 254.589844 206.878906 253.5 206.242188 251.28125 204.363281 C 249.039062 202.527344 245.863281 199.234375 241.199219 194.710938 C 238.832031 192.480469 236.027344 190.015625 232.421875 187.730469 C 228.832031 185.457031 224.472656 183.332031 219.339844 181.550781 C 214.21875 179.726562 208.339844 178.257812 201.703125 177.585938 C 195.582031 176.988281 188.769531 177.136719 181.644531 178.691406 C 183.757812 180.328125 185.898438 181.914062 188.007812 183.496094 C 195.257812 188.929688 202.753906 194.53125 209.414062 200.773438 C 212.058594 203.257812 214.605469 205.859375 217.097656 208.53125 L 217.050781 208.390625 C 219.386719 207.542969 221.792969 207.480469 223.933594 207.804688 C 225.640625 208.078125 227.214844 208.554688 228.667969 209.121094 L 228.652344 209.066406 C 235.164062 208.320312 240.597656 208.972656 244.871094 210.007812 C 249.171875 211.03125 252.347656 212.414062 254.667969 213.597656 C 259.308594 216.058594 260.65625 217.609375 260.507812 217.796875 C 260.3125 218.125 258.648438 217.046875 253.992188 215.039062 C 251.671875 214.082031 248.554688 212.898438 244.429688 212.027344 C 241.167969 211.339844 237.210938 210.851562 232.664062 211.03125 C 234.921875 212.269531 236.898438 213.582031 238.714844 214.859375 C 243.710938 218.464844 247.125 221.804688 249.707031 224.34375 C 254.800781 229.515625 256.484375 231.710938 256.265625 231.914062 C 256.03125 232.148438 253.945312 230.339844 248.617188 225.503906 C 245.925781 223.136719 242.4375 219.960938 237.515625 216.550781 C 235.054688 214.890625 232.210938 213.078125 228.933594 211.621094 C 225.929688 210.335938 222.261719 209.324219 218.695312 210.265625 C 220.609375 212.34375 222.503906 214.441406 224.355469 216.519531 C 231.542969 224.546875 238.960938 232.847656 247.738281 239.289062 C 249.039062 240.246094 250.386719 241.1875 251.75 242.121094 C 256.988281 245.765625 262.363281 249.511719 265.6875 254.71875 C 265.6875 252.074219 265.71875 249.425781 265.742188 246.816406 Z M 269.421875 218.808594 C 270.132812 228.183594 270.023438 237.675781 269.9375 246.863281 C 269.890625 251.019531 269.828125 255.320312 269.859375 259.523438 C 269.875 260.125 269.617188 260.707031 269.175781 261.097656 C 268.785156 261.441406 268.285156 261.632812 267.765625 261.632812 C 267.6875 261.632812 267.601562 261.632812 267.507812 261.625 C 259.957031 260.691406 252.058594 260.753906 244.429688 260.816406 C 232.5 260.917969 220.167969 261.011719 208.472656 257.367188 C 199.117188 254.457031 189.773438 249.050781 179.085938 240.355469 C 163.308594 227.492188 152.515625 214.230469 146.125 199.832031 C 141.304688 188.992188 139.257812 177.664062 139.972656 166.957031 C 138.6875 167.722656 137.425781 168.382812 136.257812 168.921875 C 129.328125 172.121094 121.738281 173.691406 114.152344 173.691406 C 103.25 173.691406 92.359375 170.445312 83.371094 164.132812 C 82.914062 163.796875 82.59375 163.289062 82.507812 162.722656 C 82.429688 162.152344 82.578125 161.570312 82.945312 161.117188 C 85.558594 157.839844 88.511719 154.882812 91.742188 152.242188 C 78.957031 148.699219 66.398438 141.777344 55.261719 132.121094 C 48.410156 126.179688 43.347656 120.285156 39.75 114.117188 C 30.042969 97.355469 30.261719 76.679688 31.25 58.625 C 31.28125 58.054688 31.535156 57.550781 31.957031 57.175781 C 32.378906 56.800781 32.929688 56.605469 33.484375 56.652344 C 39.734375 57.035156 45.546875 54.03125 51.679688 50.820312 C 53.605469 49.824219 55.589844 48.773438 57.582031 47.863281 C 78.09375 38.433594 103.960938 41.257812 123.449219 55.066406 C 138.160156 65.484375 149.042969 81.828125 153.972656 100.3125 C 158.816406 95.945312 164.429688 92.621094 169.832031 89.683594 C 179.191406 84.601562 188.980469 80.058594 198.925781 76.199219 C 199.492188 75.972656 200.148438 76.019531 200.683594 76.316406 C 201.230469 76.617188 201.617188 77.125 201.734375 77.738281 C 204.625 92.199219 200.046875 106.871094 194.671875 120.566406 C 192.632812 125.75 190.507812 130.75 186.949219 134.925781 C 186.613281 135.3125 186.238281 135.65625 185.882812 136.03125 C 195.523438 137.339844 204.171875 139.386719 212.214844 142.226562 C 232.992188 149.59375 249.503906 162.675781 258.695312 179.066406 C 264.699219 189.757812 268.203125 202.761719 269.421875 218.808594 " fill-opacity="1" fill-rule="nonzero"/></svg>