<svg xmlns="http://www.w3.org/2000/svg" xmlns:xlink="http://www.w3.org/1999/xlink" width="400" zoomAndPan="magnify" viewBox="0 0 300 299.999988" height="400" preserveAspectRatio="xMidYMid meet" version="1.0"><defs><clipPath id="1a8301d212"><path d="M 49.050781 30 L 250.800781 30 L 250.800781 270 L 49.050781 270 Z M 49.050781 30 " clip-rule="nonzero"/></clipPath></defs><g clip-path="url(#1a8301d212)"><path fill="#a9a0f0" d="M 105.675781 171.175781 C 105.636719 171.144531 105.582031 171.113281 105.535156 171.066406 C 95.394531 161.773438 102.003906 148.785156 96.078125 137.902344 C 94.964844 135.851562 95.238281 134.046875 96.046875 131.96875 C 97.53125 128.125 95.84375 123.289062 94.507812 119.554688 C 93.269531 116.070312 91.996094 112.65625 90.90625 109.125 C 90.601562 108.160156 90.222656 107.246094 89.808594 106.335938 C 89.894531 110.183594 90.292969 113.933594 91.800781 117.726562 C 93.449219 121.882812 95.011719 125.800781 95.160156 130.3125 C 95.207031 131.664062 93.503906 131.914062 92.851562 131.058594 C 92.773438 130.996094 92.703125 130.917969 92.640625 130.832031 C 91.777344 129.667969 90.425781 129.371094 89.375 128.476562 C 88.441406 127.699219 87.890625 126.84375 87.375 125.753906 C 86.574219 124.058594 85.664062 122.542969 84.644531 121.074219 C 86.039062 127.589844 90.410156 132.34375 93.878906 138.222656 C 96.855469 143.292969 98.359375 148.152344 96.046875 153.792969 C 95.503906 155.128906 93.480469 154.757812 93.480469 153.574219 C 89.367188 148.277344 83.542969 142.515625 80.921875 136.332031 C 78.332031 130.226562 76.089844 125.070312 70.769531 120.785156 C 70.367188 120.464844 70.265625 120.0625 70.367188 119.695312 C 69.488281 116.902344 69.605469 114.027344 68.035156 111.398438 C 66.679688 109.140625 65.140625 106.996094 63.933594 104.652344 C 62.589844 102.0625 61.132812 100.300781 58.714844 98.804688 C 61.28125 105.003906 68.070312 109.09375 67.753906 116.679688 C 67.714844 117.496094 67.0625 117.90625 66.421875 117.90625 C 66.261719 117.953125 66.066406 117.953125 65.863281 117.90625 C 62.527344 117.222656 59.945312 114.734375 57.757812 112.253906 C 56.679688 111.03125 56.007812 109.941406 55.261719 108.496094 C 54.726562 107.453125 54.011719 106.753906 53.195312 106.15625 C 56.039062 113.148438 61.195312 116.839844 67.496094 121.421875 C 72.402344 124.992188 75.757812 129.324219 78.679688 134.613281 C 79.007812 135.226562 78.804688 135.820312 78.402344 136.167969 C 78.058594 136.667969 77.4375 136.921875 76.78125 136.503906 C 72.683594 133.859375 67.800781 132.863281 63.753906 130.15625 C 62.019531 129.003906 61.003906 127.15625 59.40625 125.878906 C 58.917969 125.480469 58.40625 125.101562 57.890625 124.734375 C 59.066406 127.324219 60.621094 129.761719 63.109375 131.253906 C 65.816406 132.878906 68.710938 133.90625 71.648438 135 C 76.332031 136.75 80.050781 138.84375 83.300781 142.710938 C 86.785156 146.847656 89.023438 151.878906 92.507812 156.015625 C 96.320312 160.542969 98.542969 165.808594 101 171.121094 C 101.046875 171.207031 101.078125 171.292969 101.101562 171.394531 C 102.574219 172.285156 104.035156 173.242188 105.449219 174.238281 C 105.527344 173.195312 105.605469 172.179688 105.675781 171.175781 Z M 179.476562 86.222656 C 177.183594 86.417969 174.816406 86.394531 172.476562 86.53125 C 167.824219 86.796875 162.941406 87.519531 158.804688 89.816406 C 156.757812 90.949219 154.765625 92.203125 153.09375 93.859375 C 152.800781 94.148438 150.683594 95.914062 150.34375 96.394531 C 150.3125 96.542969 150.28125 96.699219 150.234375 96.84375 C 149.835938 98.191406 147.597656 97.988281 147.714844 96.503906 C 147.722656 96.394531 147.746094 96.277344 147.777344 96.167969 C 147.769531 96.160156 147.769531 96.160156 147.753906 96.160156 C 149.003906 91.882812 147.808594 86.363281 151.160156 82.800781 C 154.804688 78.917969 159.542969 76.796875 162.242188 71.925781 C 165.476562 66.054688 167.296875 59.613281 169.320312 53.261719 C 167.863281 56.597656 166.683594 60.128906 164.722656 63.238281 C 161.027344 69.132812 156.488281 74.160156 151.136719 78.59375 C 150.382812 79.214844 148.792969 78.917969 148.941406 77.683594 C 150.675781 63.636719 165.960938 50.980469 164.933594 36.820312 C 162.933594 42.605469 160.964844 48.066406 157.519531 53.144531 C 155.203125 56.582031 148.917969 63.714844 150.21875 68.132812 C 150.683594 69.742188 148.296875 70.339844 147.746094 68.808594 C 146.171875 64.5625 146.820312 60.144531 147.496094 55.726562 C 146.414062 58.363281 145.503906 61.054688 145.535156 64.132812 C 145.582031 69.578125 146.601562 74.9375 146.609375 80.378906 C 146.640625 90.179688 145.09375 99.949219 140.488281 108.707031 C 140.007812 109.640625 138.824219 109.429688 138.28125 108.707031 C 132.367188 100.859375 132.765625 91.144531 132.136719 81.796875 C 131.566406 73.289062 132.554688 64.839844 132.742188 56.363281 C 132.398438 57.507812 132.113281 58.652344 131.902344 59.816406 C 131.203125 63.636719 131.535156 67.269531 131.660156 71.101562 C 131.886719 77.761719 131.847656 84.347656 130.96875 90.957031 C 130.773438 92.367188 128.945312 92.746094 128.441406 91.300781 C 127.15625 87.558594 126.746094 83.796875 126.238281 79.898438 C 125.617188 75.078125 124.140625 70.714844 122.617188 66.117188 C 121.433594 62.601562 120.28125 59.070312 119.238281 55.515625 C 120.625 69.703125 124.15625 83.773438 130.152344 96.644531 C 133.683594 104.195312 137.8125 111.484375 139.507812 119.742188 C 140.90625 126.59375 139.28125 134.246094 141.390625 140.804688 C 141.539062 141.277344 141.421875 141.660156 141.171875 141.9375 C 141.917969 143.292969 142.625 144.667969 143.265625 146.078125 C 143.054688 131.183594 137.285156 115.480469 146.972656 102.4375 C 151.144531 96.824219 157.210938 91.527344 163.984375 89.347656 C 168.679688 87.839844 174.507812 87.785156 179.476562 86.222656 Z M 194.175781 171.308594 C 195.289062 170.636719 196.316406 169.882812 197.292969 169.066406 C 194.324219 169.574219 191.328125 169.945312 188.289062 169.976562 C 188.09375 169.976562 187.921875 169.945312 187.773438 169.882812 C 186.53125 171.285156 185.183594 172.511719 183.722656 173.414062 C 180.730469 175.273438 177.214844 176.417969 174.359375 178.46875 C 170.648438 181.152344 168.605469 184.988281 166.945312 189.140625 C 165.695312 192.28125 164.496094 195.378906 162.902344 198.265625 C 165.515625 195.929688 167.65625 193.046875 170.339844 190.78125 C 170.308594 190.609375 170.316406 190.410156 170.375 190.199219 C 171.824219 185.640625 174.304688 181.332031 178.480469 178.742188 C 183.441406 175.671875 189.199219 174.285156 194.175781 171.308594 Z M 200.515625 165.902344 C 201.050781 165.3125 201.566406 164.625 202.054688 164.019531 C 198.4375 164.386719 194.875 164.945312 191.226562 164.945312 C 191.226562 164.945312 191.226562 164.945312 191.21875 164.945312 C 190.769531 166.019531 190.304688 166.476562 189.804688 167.144531 C 193.242188 166.984375 196.601562 166.59375 199.976562 165.941406 C 200.171875 165.902344 200.359375 165.871094 200.515625 165.902344 Z M 216.691406 148.628906 C 214.179688 151.367188 211.964844 154.34375 209.917969 157.503906 C 207.085938 161.886719 203.71875 167.363281 199.574219 170.660156 C 190.949219 177.503906 178.621094 178.074219 173.761719 188.558594 C 173.921875 188.472656 174.078125 188.386719 174.25 188.316406 C 174.816406 188.074219 175.386719 187.851562 175.960938 187.648438 C 175.984375 187.585938 176.007812 187.53125 176.039062 187.476562 C 180.820312 178.640625 190.023438 179.03125 197.542969 173.5625 C 205.695312 167.636719 212.703125 158.234375 216.691406 148.628906 Z M 217.9375 127.691406 C 213.074219 129.683594 209.855469 134.046875 205.273438 137.0625 C 201.105469 139.785156 196.757812 141.285156 191.84375 141.976562 C 190.417969 142.179688 189.710938 140.296875 190.660156 139.683594 C 191.679688 137.414062 193.226562 135.980469 195.125 134.386719 C 198.003906 131.976562 199.738281 128.8125 201.882812 125.785156 C 205.035156 121.375 208.867188 117.582031 210.027344 112.53125 C 207.484375 116.265625 204.746094 119.835938 201.773438 123.257812 C 197.582031 128.117188 194.207031 133.5625 190.140625 138.515625 C 185.699219 143.929688 180.8125 148.316406 177.640625 154.726562 C 176.148438 157.757812 174.730469 160.855469 173.253906 163.910156 C 171.738281 167.046875 171.761719 169.695312 171.941406 172.800781 C 172.8125 172.195312 173.730469 171.617188 174.703125 171.050781 C 174.632812 170.910156 174.585938 170.746094 174.5625 170.566406 C 174.078125 164.402344 176.886719 160.09375 180.003906 155.042969 C 182.386719 151.195312 183.417969 146.265625 187.410156 143.6875 C 189.097656 142.617188 191.90625 142.941406 193.789062 142.742188 C 198.25 142.28125 201.542969 140.421875 205.09375 137.808594 C 209.535156 134.558594 213.722656 131.128906 217.9375 127.691406 Z M 222.875 175.933594 C 217.664062 175.109375 212.054688 176.324219 207.210938 178.160156 C 201.175781 180.453125 196.074219 185.421875 189.828125 186.917969 C 182.742188 188.605469 175.074219 188.984375 169.855469 194.726562 C 166.363281 198.558594 163.523438 202.058594 158.539062 203.902344 C 157.265625 204.371094 156.585938 202.789062 157.234375 201.886719 C 157.289062 201.800781 157.351562 201.710938 157.425781 201.625 C 162.5 196.078125 163.410156 188.605469 167.328125 182.429688 C 170.53125 177.40625 174.640625 175.53125 179.734375 172.761719 C 183.527344 170.691406 185.894531 168 188.265625 164.441406 C 190.339844 161.320312 192.769531 158.902344 193.28125 155.019531 C 193.710938 151.878906 196.097656 150.402344 198.34375 148.667969 C 196.46875 149.359375 194.71875 150.261719 193.648438 152.089844 C 191.9375 154.980469 190.910156 158.117188 189.492188 161.148438 C 187.324219 165.816406 184.390625 168.789062 179.828125 171.175781 C 176.996094 172.675781 173.582031 174 171.234375 176.246094 C 168.324219 179.015625 166.246094 182.476562 164.433594 186.023438 C 162.296875 190.199219 160.773438 195.410156 157.234375 198.613281 C 156.207031 199.546875 154.761719 198.417969 155.0625 197.378906 C 155.046875 197.355469 155.046875 197.332031 155.039062 197.308594 C 154.292969 189.015625 157.242188 183.394531 160.148438 175.863281 C 162.621094 169.472656 162.902344 162.449219 162.28125 155.667969 C 161.253906 160.871094 161.828125 166.492188 159.976562 171.617188 C 157.441406 178.609375 153.523438 184.425781 153.171875 192.144531 C 152.957031 196.964844 154.066406 203.542969 151.285156 207.867188 C 148.492188 212.199219 144.074219 213.726562 139.726562 216.074219 C 138.808594 216.5625 137.953125 215.871094 137.8125 215.09375 C 137.609375 214.882812 137.46875 214.582031 137.46875 214.160156 C 137.46875 205.644531 137.46875 197.128906 137.46875 188.613281 C 137.46875 181.363281 139.011719 174.167969 139.65625 166.960938 C 139.710938 166.335938 140.089844 165.957031 140.542969 165.792969 C 145.324219 160.839844 149.542969 155.8125 153.296875 150.027344 C 156.609375 144.910156 160.0625 139.582031 164.582031 135.421875 C 168.914062 131.441406 173.890625 127.808594 179.109375 125.085938 C 183.878906 122.605469 188.636719 121.9375 193.703125 120.378906 C 193.964844 120.292969 194.214844 120.300781 194.433594 120.378906 C 197.007812 119.058594 198.921875 116.902344 200.203125 114.390625 C 191.859375 121.25 180.246094 122.347656 171.023438 128.210938 C 169.863281 128.949219 168.78125 127.574219 169.226562 126.5625 C 169.257812 126.445312 169.3125 126.324219 169.398438 126.191406 C 172.125 122.089844 174.15625 117.726562 176.085938 113.210938 C 177.625 109.585938 178.949219 105.003906 181.785156 102.125 C 184.074219 99.808594 186.695312 98.191406 189.742188 96.992188 C 191.882812 96.160156 194.835938 95.648438 196.726562 94.433594 C 197.15625 94.171875 197.558594 93.882812 197.957031 93.585938 C 191.570312 94.386719 184.5 94.855469 180.253906 99.863281 C 176.488281 104.289062 175.003906 109.835938 172.914062 115.136719 C 168.136719 127.332031 159.488281 137.367188 152.761719 148.488281 C 151.992188 149.738281 150.164062 148.863281 150.367188 147.648438 C 150.367188 147.515625 150.367188 147.375 150.40625 147.21875 C 153.027344 137.832031 151.019531 127.878906 154.269531 118.628906 C 155.667969 114.640625 157.179688 110.425781 159.191406 106.691406 C 160.460938 104.335938 161.992188 102.003906 163.128906 99.542969 C 160.265625 102.65625 157.511719 105.703125 155.578125 109.757812 C 152.238281 116.734375 151.035156 123.453125 150.855469 131.167969 C 150.683594 138.671875 151.421875 149.351562 145.464844 155.019531 C 144.84375 155.621094 144.042969 155.410156 143.605469 154.90625 C 143.398438 154.757812 143.25 154.515625 143.1875 154.1875 C 141.375 144.257812 133.808594 136.953125 130.820312 127.261719 C 129.117188 121.75 129.195312 116.4375 128.082031 110.859375 C 127.640625 108.691406 127.015625 106.597656 126.292969 104.546875 C 126.433594 115.558594 127.757812 125.644531 132.90625 136.050781 C 136.894531 144.164062 143.996094 153 141.65625 162.480469 C 141.453125 163.304688 140.707031 163.53125 140.082031 163.335938 C 139.570312 163.484375 138.996094 163.367188 138.636719 162.789062 C 135.945312 158.410156 133.984375 153.628906 131.234375 149.289062 C 128.953125 145.679688 125.53125 142.578125 123.679688 138.695312 C 121.566406 134.285156 120.664062 129.269531 119.285156 124.59375 C 118.003906 120.234375 116.535156 115.566406 116.632812 110.96875 C 116.742188 104.886719 116.417969 98.960938 114.082031 93.253906 C 112.109375 88.382812 108.839844 84.339844 106.8125 79.546875 C 104.449219 73.941406 104.476562 67.835938 103.328125 62.027344 C 103.28125 62.671875 103.242188 63.339844 103.195312 63.992188 C 102.851562 69.5 103.398438 75.023438 105.496094 80.1875 C 109.011719 88.898438 113.507812 95.484375 113.742188 105.167969 C 114.269531 106.613281 112.15625 107.835938 111.484375 106.359375 C 108.414062 99.503906 101.171875 96.9375 97.042969 90.980469 C 94.421875 87.1875 93.148438 82.800781 90.859375 78.816406 C 90.664062 78.492188 90.480469 78.148438 90.285156 77.8125 C 91.132812 81.042969 92.222656 84.199219 93.722656 87.171875 C 96.46875 92.644531 100.402344 96.960938 103.972656 101.886719 C 109.859375 109.980469 117.902344 120.496094 118.75 130.910156 C 118.78125 130.949219 118.828125 130.972656 118.859375 131.011719 C 119.925781 132.171875 118.324219 133.875 117.203125 132.964844 C 116.78125 132.847656 116.433594 132.558594 116.300781 132.078125 C 112.171875 128.019531 107.300781 126.128906 104.523438 120.457031 C 103.242188 117.820312 102.789062 114.796875 101.679688 112.082031 C 100.878906 110.128906 99.898438 108.542969 98.753906 107.097656 C 100.597656 111.605469 102.542969 116.101562 104.371094 120.597656 C 106.019531 124.617188 108.09375 128.359375 111.515625 131.152344 C 113.820312 133.035156 116.441406 134.714844 118.539062 136.835938 C 126.605469 144.964844 132.789062 154.34375 136.574219 165.140625 C 136.582031 165.171875 136.582031 165.195312 136.582031 165.21875 C 136.839844 165.417969 137.011719 165.738281 137.027344 166.152344 C 137.230469 175.359375 136.296875 184.597656 136.09375 193.816406 C 135.992188 198.101562 135.589844 202.425781 135.695312 206.71875 C 135.773438 209.269531 135.804688 211.664062 134.964844 214.097656 C 134.871094 214.371094 134.710938 214.582031 134.523438 214.730469 C 134.15625 215.46875 133.207031 215.871094 132.554688 215.070312 C 128.835938 210.457031 124.480469 206.578125 122.46875 200.863281 C 122.429688 200.777344 122.414062 200.691406 122.398438 200.605469 C 122.328125 200.511719 122.28125 200.394531 122.28125 200.253906 C 122.28125 197.042969 124.164062 193.917969 124.015625 190.5625 C 123.835938 186.191406 122.988281 182.046875 122.273438 177.753906 C 121.316406 171.945312 121.550781 166.019531 120.71875 160.238281 C 119.652344 166.414062 118.921875 172.691406 120.058594 178.898438 C 121.144531 184.878906 121.746094 189.996094 121.636719 196.101562 C 121.621094 197.066406 120.765625 197.460938 120.050781 197.324219 C 119.605469 197.355469 119.15625 197.207031 118.851562 196.753906 C 116.363281 193.199219 114.636719 188.796875 112.574219 184.980469 C 110.390625 180.898438 110.140625 177.636719 110.492188 173.066406 C 110.972656 166.898438 110 160.722656 108.910156 154.65625 C 108.195312 150.742188 107.945312 146.558594 105.363281 143.671875 C 106.414062 149.015625 107.386719 154.375 108.195312 159.757812 C 109.082031 165.667969 108.210938 170.582031 107.871094 176.449219 C 107.808594 177.375 106.984375 177.777344 106.273438 177.667969 C 106.042969 177.691406 105.792969 177.613281 105.527344 177.421875 C 99.144531 172.628906 91.746094 169.542969 84.878906 165.558594 C 81.199219 163.429688 77.808594 160.769531 74.046875 158.808594 C 72.023438 157.773438 68.179688 155.324219 65.078125 154.90625 C 72.054688 158.503906 78.324219 163.367188 84.933594 167.605469 C 91.503906 171.804688 99.734375 174.984375 105.386719 180.382812 C 110.746094 185.484375 114.214844 191.761719 117.777344 198.171875 C 121.875 205.535156 126.558594 212.171875 132.898438 217.800781 C 132.984375 217.871094 133.046875 217.949219 133.097656 218.027344 C 133.363281 218.230469 133.535156 218.546875 133.550781 218.976562 C 133.589844 235.066406 131.816406 250.628906 129.023438 266.464844 C 129.910156 267.132812 131.195312 267.148438 132.3125 267.085938 C 133.160156 259.121094 136.015625 251.53125 136.613281 243.449219 C 137.230469 235.191406 138.179688 226.847656 138.324219 218.570312 C 138.339844 218.027344 138.628906 217.667969 139.003906 217.472656 C 139.203125 217.242188 139.492188 217.0625 139.882812 217.015625 C 145.164062 216.441406 149.441406 212.597656 153.710938 209.75 C 157.722656 207.074219 161.660156 204.363281 165.160156 201.03125 C 169.832031 196.605469 174.785156 191.746094 181.273438 190.183594 C 185.589844 189.148438 191.226562 189.351562 194.992188 186.707031 C 198.390625 184.328125 201.058594 181.738281 204.902344 180.066406 C 208.976562 178.277344 213.503906 178.042969 217.8125 177.1875 C 219.546875 176.835938 221.203125 176.355469 222.875 175.933594 Z M 231.757812 152.96875 C 235.972656 149.832031 239.757812 146.785156 244.394531 144.964844 C 238.910156 145.453125 234.546875 151.007812 229.859375 153.761719 C 224.984375 156.609375 219.453125 160.722656 213.875 162.285156 C 213.707031 162.691406 213.332031 163.015625 212.765625 163.023438 C 212.328125 163.03125 211.925781 163.109375 211.488281 163.25 C 211.457031 163.257812 211.417969 163.257812 211.371094 163.273438 C 211 163.785156 210.625 164.300781 210.230469 164.789062 C 217.804688 163.59375 225.929688 157.300781 231.757812 152.96875 Z M 204.039062 160.996094 C 204.195312 160.925781 204.378906 160.910156 204.535156 160.894531 C 206.292969 158.390625 207.894531 155.769531 209.511719 153.253906 C 212.21875 149.03125 216.0625 145.183594 219.917969 142.023438 C 220.960938 141.167969 222.246094 141.976562 222.066406 143.277344 C 221.824219 144.964844 221.203125 146.21875 220.425781 147.773438 C 220.207031 148.183594 219.878906 148.378906 219.539062 148.410156 C 218.070312 152.167969 216.132812 155.976562 213.875 159.578125 C 217.882812 158.203125 221.769531 155.332031 225.378906 153.339844 C 228.597656 151.566406 231.359375 149.40625 234.292969 147.210938 C 239.230469 143.511719 244.152344 140.921875 250.1875 143.511719 C 250.9375 143.84375 250.992188 144.558594 250.671875 145.105469 C 250.648438 145.585938 250.367188 146.015625 249.738281 146.132812 C 240.785156 147.695312 234.617188 154.53125 227.175781 159.199219 C 221.421875 162.804688 215.222656 167.355469 208.207031 167.566406 C 208.121094 167.566406 208.035156 167.558594 207.964844 167.550781 C 206.804688 168.871094 205.609375 170.117188 204.378906 171.253906 C 200.515625 174.816406 196.316406 177.691406 191.515625 179.871094 C 189.175781 180.945312 186.171875 181.082031 183.996094 182.453125 C 182.238281 183.558594 180.859375 184.886719 179.703125 186.472656 C 185.457031 184.910156 191.273438 184.132812 196.539062 180.710938 C 205.523438 174.855469 218.675781 170.179688 228.980469 175.164062 C 229.019531 175.164062 229.050781 175.164062 229.066406 175.164062 C 229.578125 175.195312 229.9375 175.453125 230.132812 175.808594 C 231.109375 176.71875 229.90625 178.554688 228.550781 177.832031 C 228.496094 177.792969 228.4375 177.761719 228.375 177.730469 C 223.480469 177.675781 217.84375 179.667969 213.027344 180.570312 C 207.667969 181.566406 203.53125 183.261719 199.261719 186.699219 C 192.808594 191.863281 185.078125 190.425781 178.109375 194.101562 C 171.0625 197.8125 166.121094 204.332031 159.628906 208.832031 C 153.957031 212.769531 147.867188 218.238281 140.863281 219.433594 C 140.675781 228.066406 139.9375 236.933594 138.996094 245.496094 C 138.15625 253.21875 135.347656 260.632812 134.742188 268.316406 C 134.679688 269.195312 133.910156 269.597656 133.238281 269.542969 C 133.136719 269.574219 133.039062 269.597656 132.929688 269.605469 C 130.84375 269.769531 128.230469 269.660156 126.808594 267.886719 C 126.535156 267.5625 126.464844 267.203125 126.503906 266.867188 C 126.457031 266.675781 126.433594 266.472656 126.472656 266.238281 C 129.226562 250.683594 130.976562 235.285156 130.96875 219.511719 C 125.445312 214.589844 120.921875 208.886719 117.257812 202.472656 C 113.523438 195.921875 110.289062 188.605469 104.757812 183.332031 C 98.351562 177.21875 89.40625 173.625 82.023438 168.773438 C 75.140625 164.246094 68.546875 159.175781 61.003906 155.761719 C 60.464844 155.511719 60.285156 155.074219 60.347656 154.648438 C 60.179688 154.132812 60.277344 153.511719 60.863281 153.140625 C 63.398438 151.535156 65.847656 151.847656 68.46875 153.195312 C 72.367188 155.183594 76.269531 156.996094 79.941406 159.414062 C 85.421875 163.03125 91.40625 165.902344 97.160156 169.097656 C 94.695312 164.269531 91.988281 159.984375 88.753906 155.371094 C 85.546875 150.796875 82.988281 144.925781 78.515625 141.402344 C 73.160156 137.179688 66.003906 136.511719 60.464844 132.488281 C 57.019531 129.984375 55.378906 125.683594 53.996094 121.828125 C 53.988281 121.8125 53.988281 121.796875 53.988281 121.78125 C 53.15625 120.714844 54.828125 119.191406 56.007812 120.179688 C 57.640625 121.546875 59.710938 122.542969 61.226562 124.058594 C 62.746094 125.589844 64.058594 127.488281 65.980469 128.5625 C 68.664062 130.070312 71.570312 131.058594 74.363281 132.320312 C 72.933594 130.03125 71.308594 127.847656 69.253906 126.074219 C 66.300781 123.507812 62.875 121.6875 59.78125 119.316406 C 54.757812 115.472656 51.46875 110.089844 49.757812 104.070312 C 49.03125 103.121094 50.191406 101.488281 51.46875 102.195312 C 52.875 102.964844 54.617188 103.621094 55.753906 104.792969 C 56.917969 106 57.355469 107.367188 58.234375 108.761719 C 59.75 111.148438 62.339844 113.824219 65.109375 114.976562 C 64.285156 107.789062 56.492188 103.300781 55.332031 95.9375 C 55.332031 95.9375 55.332031 95.929688 55.324219 95.929688 C 54.3125 94.613281 56.554688 93.339844 57.550781 94.628906 C 59.144531 96.722656 62.019531 97.320312 63.761719 99.320312 C 65.109375 100.867188 65.777344 102.898438 66.820312 104.632812 C 68.265625 106.996094 70.117188 109.273438 71.136719 111.886719 C 72.078125 114.3125 72.085938 116.808594 72.910156 119.261719 C 75.078125 121.058594 77.015625 123.109375 78.664062 125.414062 C 80.859375 128.46875 81.347656 131.820312 83.136719 135.039062 C 86.21875 140.578125 90.394531 145.539062 94.328125 150.542969 C 95.667969 143.550781 90.433594 138.183594 86.761719 132.394531 C 83.734375 127.605469 81.683594 122.800781 81.628906 117.074219 C 81.628906 116.933594 81.675781 116.824219 81.691406 116.710938 C 81.714844 115.667969 82.996094 114.765625 83.820312 115.769531 C 85.84375 118.234375 88.027344 120.753906 89.28125 123.71875 C 90.035156 125.496094 90.835938 126.214844 92.191406 127.15625 C 91.34375 123.085938 89.40625 119.484375 88.253906 115.410156 C 86.839844 110.425781 87.210938 105.363281 87.242188 100.230469 C 87.242188 100.152344 87.273438 100.089844 87.289062 100.011719 C 86.925781 98.417969 89.382812 97.746094 89.769531 99.351562 C 90.527344 102.570312 92.5625 105.246094 93.371094 108.441406 C 94.296875 112.050781 95.921875 115.332031 96.988281 118.871094 C 97.875 121.8125 99.152344 124.960938 99.253906 128.0625 C 99.320312 130.34375 98.519531 131.664062 98.0625 133.828125 C 97.601562 135.957031 100.292969 141.285156 100.738281 143.703125 C 101.195312 146.242188 101.21875 148.847656 101.28125 151.414062 C 101.40625 157.632812 101.878906 163.109375 105.902344 167.738281 C 106.035156 164.796875 105.980469 161.835938 105.417969 158.644531 C 104.410156 152.828125 103.453125 147.011719 102.261719 141.222656 C 102.246094 141.121094 102.246094 141.03125 102.246094 140.945312 C 102.050781 140.027344 103.054688 138.921875 104.160156 139.496094 C 112 143.660156 112.132812 155.960938 112.832031 163.730469 C 113.421875 170.171875 111.363281 177.949219 114.792969 183.671875 C 116.402344 186.355469 117.636719 189.382812 119.117188 192.191406 C 119.117188 189.15625 118.96875 186.207031 118.285156 183.082031 C 117.628906 180.066406 117.039062 176.960938 116.976562 173.859375 C 116.820312 167.144531 118.027344 160.613281 119.253906 154.050781 C 119.261719 153.957031 119.292969 153.878906 119.316406 153.800781 C 119.441406 152.625 121.417969 152.285156 121.859375 153.660156 C 124.675781 162.332031 124.09375 171.96875 125.617188 180.914062 C 126.261719 184.628906 126.660156 188.417969 126.527344 192.199219 C 126.441406 194.847656 124.933594 196.949219 124.863281 200.023438 C 124.894531 200.066406 124.910156 200.121094 124.933594 200.175781 C 126.535156 204.710938 129.878906 208.015625 132.953125 211.5625 C 133.503906 208.445312 133.082031 205.054688 133.246094 201.941406 C 133.449219 197.875 133.511719 193.800781 133.597656 189.738281 C 133.769531 181.9375 134.617188 174.167969 134.453125 166.367188 C 134.304688 166.234375 134.179688 166.050781 134.09375 165.824219 C 131.605469 158.722656 128.347656 152.742188 123.710938 146.839844 C 119.464844 141.410156 114.777344 137.53125 109.695312 132.972656 C 105.613281 129.292969 103.1875 124.867188 101.3125 119.742188 C 99.152344 113.824219 96.351562 108.183594 94.109375 102.304688 C 94.09375 102.265625 94.09375 102.234375 94.078125 102.195312 C 93.371094 101.085938 95.003906 99.628906 96.125 100.65625 C 101.234375 105.347656 103.769531 109.6875 105.816406 116.359375 C 106.976562 120.085938 108.773438 123.359375 111.90625 125.792969 C 113.1875 126.796875 114.535156 127.613281 115.832031 128.5 C 114.613281 122.855469 111.121094 117.726562 108.171875 112.859375 C 104.875 107.445312 101.257812 102.382812 97.207031 97.507812 C 90.734375 89.730469 87.601562 79.78125 86.101562 69.945312 C 86.101562 69.914062 86.09375 69.890625 86.09375 69.859375 C 86.09375 69.75 86.125 69.65625 86.125 69.546875 C 85.050781 67.992188 87.996094 67.332031 88.582031 68.863281 C 90.152344 72.96875 92.859375 76.429688 94.585938 80.457031 C 96.273438 84.371094 97.789062 88.585938 100.917969 91.648438 C 104.167969 94.824219 107.9375 97.265625 110.808594 100.59375 C 110.265625 96.652344 109.089844 92.910156 107.113281 89.285156 C 105.039062 85.507812 102.953125 81.640625 101.878906 77.425781 C 100.878906 73.488281 100.285156 69.492188 100.542969 65.425781 C 100.800781 61.265625 101.445312 56.925781 99.859375 52.957031 C 99.304688 51.550781 101.453125 50.8125 102.214844 51.96875 C 107.230469 59.699219 105.753906 68.660156 108.640625 77.035156 C 110.351562 82.023438 113.898438 85.988281 115.871094 90.863281 C 117.519531 94.910156 118.828125 99.164062 119.140625 103.542969 C 119.566406 109.917969 119.363281 115.785156 121.199219 122.027344 C 122.625 126.835938 123.371094 133.074219 125.898438 137.40625 C 128.378906 141.667969 131.933594 145.136719 134.328125 149.484375 C 136.117188 152.71875 137.726562 156.039062 139.546875 159.246094 C 139.851562 153.214844 136.03125 147.84375 133.300781 142.539062 C 130.90625 137.886719 128.441406 133.167969 126.753906 128.1875 C 123.425781 118.375 123.554688 108.464844 123.75 98.214844 C 123.757812 98.160156 123.765625 98.121094 123.765625 98.066406 C 123.277344 96.597656 125.664062 95.996094 126.269531 97.476562 C 128.238281 102.265625 130.089844 106.894531 130.820312 112.058594 C 131.519531 116.980469 131.652344 121.796875 133.292969 126.578125 C 134.46875 129.984375 136.132812 133.113281 137.882812 136.160156 C 137.347656 130.429688 138.15625 124.433594 136.628906 118.746094 C 134.28125 110.058594 129.722656 102.507812 126.332031 94.246094 C 119.394531 77.378906 115.949219 59.320312 116.003906 41.089844 C 116.003906 39.6875 118.300781 39.277344 118.515625 40.746094 C 119.746094 49.214844 122.382812 57.351562 125.097656 65.441406 C 126.457031 69.492188 127.84375 73.433594 128.519531 77.675781 C 128.75 79.136719 128.9375 80.597656 129.125 82.054688 C 129.3125 77.074219 129.15625 72.097656 128.921875 67.113281 C 128.605469 60.316406 130.859375 54.503906 132.65625 48.042969 C 133.054688 46.59375 135.082031 46.9375 135.183594 48.351562 C 135.84375 58.890625 133.878906 69.296875 134.585938 79.8125 C 135.160156 88.476562 134.664062 98.042969 139.226562 105.347656 C 143.761719 96.011719 144.796875 84.371094 143.644531 73.761719 C 143.171875 69.382812 142.511719 64.886719 143.226562 60.5 C 144.050781 55.414062 147.152344 51.316406 148.234375 46.308594 C 148.554688 44.804688 150.652344 45.28125 150.761719 46.648438 C 151.136719 51.339844 149.664062 56.199219 149.371094 60.953125 C 150.660156 58.527344 152.363281 56.238281 153.53125 54.503906 C 158.34375 47.304688 161.019531 39.726562 164.046875 31.65625 C 164.480469 30.472656 166.105469 30.386719 166.519531 31.65625 C 171.691406 47.558594 156.058594 59.808594 152.191406 74.285156 C 157.007812 69.890625 161.332031 64.839844 164.1875 58.960938 C 166.945312 53.261719 168.207031 47.296875 173.191406 43.027344 C 174.335938 42.039062 175.789062 43.25 175.207031 44.574219 C 171.0625 53.84375 169.800781 64.507812 164.449219 73.226562 C 162.414062 76.539062 160.195312 78.917969 157.039062 81.175781 C 153.078125 83.988281 151.476562 86.386719 151.128906 91.441406 C 151.105469 91.65625 151.082031 91.859375 151.074219 92.070312 C 152.015625 91.292969 152.941406 90.625 153.578125 90.117188 C 155.957031 88.210938 158.859375 86.695312 161.78125 85.785156 C 165.6875 84.589844 169.660156 83.996094 173.753906 83.933594 C 178.425781 83.855469 183.589844 84.128906 187.300781 80.800781 C 188.34375 79.867188 190.203125 81.097656 189.324219 82.347656 C 185.582031 87.644531 179.796875 89.007812 173.675781 89.945312 C 165.242188 91.238281 157.925781 93.960938 152.03125 100.453125 C 145.007812 108.199219 143.171875 116.59375 144.097656 126.851562 C 144.796875 134.730469 146.296875 142.59375 145.675781 150.511719 C 147.605469 146.925781 147.816406 142.289062 148.03125 138.378906 C 148.351562 132.542969 147.945312 126.5 149.082031 120.746094 C 150.140625 115.417969 152.140625 110.058594 155.007812 105.417969 C 157.777344 100.945312 161.441406 97.808594 164.785156 93.84375 C 164.824219 93.789062 164.871094 93.757812 164.917969 93.710938 C 165.578125 92.746094 167.398438 92.949219 167.242188 94.339844 C 166.800781 98.417969 164.949219 101.714844 162.933594 105.230469 C 160.421875 109.65625 158.265625 114.445312 156.75 119.300781 C 154.464844 126.59375 154.984375 134.199219 154.074219 141.667969 C 157.257812 136.90625 160.601562 132.265625 163.640625 127.417969 C 167.554688 121.164062 170.136719 114.757812 172.851562 107.953125 C 174.585938 103.589844 176.691406 98.859375 180.652344 96.027344 C 186.804688 91.636719 194.464844 91.914062 201.589844 90.429688 C 202.328125 90.28125 202.871094 90.71875 203.082031 91.261719 C 203.375 91.8125 203.335938 92.574219 202.707031 93.050781 C 199.96875 95.058594 198.082031 96.84375 194.78125 97.902344 C 190.964844 99.125 186.1875 100.65625 183.605469 103.945312 C 179.09375 109.671875 177.128906 117.214844 173.753906 123.800781 C 183.464844 119.214844 195.203125 117.835938 202.023438 108.933594 C 202.910156 107.78125 204.621094 108.441406 204.363281 109.925781 C 203.375 115.816406 199.792969 120.925781 194.246094 123.257812 C 193.839844 123.429688 193.5 123.375 193.242188 123.203125 C 187.605469 124.84375 182.503906 125.800781 177.300781 129.113281 C 171.941406 132.519531 166.730469 136.253906 162.699219 141.230469 C 158.554688 146.324219 155.53125 152.121094 151.539062 157.292969 C 148.65625 161.054688 145.417969 164.457031 142.128906 167.863281 C 142.089844 167.902344 142.050781 167.925781 142.019531 167.953125 C 141.3125 174.816406 139.609375 181.746094 139.609375 188.613281 C 139.609375 196.832031 139.609375 205.039062 139.609375 213.25 C 142.347656 211.9375 145.503906 210.800781 147.527344 208.578125 C 150.054688 205.808594 150.480469 202.339844 150.488281 198.730469 C 150.511719 193.417969 150.433594 187.789062 152.269531 182.707031 C 154.753906 175.863281 158.742188 170.070312 159.207031 162.566406 C 159.488281 158.03125 159.511719 154.027344 161.503906 149.855469 C 161.628906 149.609375 161.789062 149.445312 161.96875 149.34375 C 162.613281 148.628906 163.9375 148.589844 164.125 149.769531 C 164.296875 150.867188 165.460938 153.140625 165.5 154.375 C 165.5625 156.53125 165.050781 158.503906 164.980469 160.667969 C 164.847656 164.945312 165.105469 169.441406 163.703125 173.5625 C 161.230469 180.898438 157.691406 186.808594 157.519531 194.390625 C 160.5625 190.121094 162.101562 184.164062 164.933594 179.957031 C 166.347656 177.863281 167.839844 176.191406 169.492188 174.738281 C 169.492188 174.730469 169.492188 174.714844 169.484375 174.707031 C 169.320312 171.851562 168.558594 168.640625 169.628906 165.855469 C 170.65625 163.21875 172.011719 160.746094 173.183594 158.179688 C 175.90625 152.207031 178.894531 146.472656 183.636719 141.839844 C 188.652344 136.945312 192.199219 130.996094 196.539062 125.542969 C 201.355469 119.5 206.339844 113.769531 210.445312 107.207031 C 211.167969 106.046875 212.703125 106.621094 212.84375 107.84375 C 213.566406 114.128906 210.539062 118.980469 206.761719 123.730469 C 204.355469 126.75 202.414062 130.09375 200.023438 133.089844 C 198.289062 135.273438 195.871094 136.789062 194.175781 138.921875 C 200.453125 137.367188 204.675781 134.023438 209.949219 129.683594 C 213.730469 126.578125 217.4375 124.394531 222.394531 124.082031 C 222.609375 124.074219 222.796875 124.105469 222.960938 124.175781 C 223.910156 124.355469 224.632812 125.511719 223.699219 126.277344 C 218.863281 130.203125 214.296875 134.183594 209.28125 137.894531 C 204.964844 141.089844 201.027344 144.242188 195.613281 145.105469 C 192.785156 145.5625 188.46875 144.894531 186.640625 147.875 C 185.472656 149.800781 184.648438 151.855469 183.636719 153.855469 C 180.882812 159.320312 176.949219 163.34375 177.097656 169.71875 C 177.144531 169.695312 177.175781 169.675781 177.207031 169.660156 C 180.449219 167.960938 183.988281 166.160156 185.808594 162.796875 C 187.386719 159.859375 188.367188 156.671875 189.851562 153.683594 C 190.832031 151.714844 192.023438 149.117188 194.003906 147.890625 C 196.492188 146.347656 199.363281 145.960938 201.945312 144.574219 C 201.96875 144.566406 201.992188 144.566406 202.015625 144.558594 C 202.902344 143.6875 204.636719 144.878906 203.976562 146.210938 C 202.785156 148.605469 201.648438 150.898438 199.167969 152.105469 C 194.976562 154.117188 196.386719 156.699219 194.703125 159.554688 C 194.136719 160.542969 193.523438 161.59375 192.878906 162.660156 C 196.230469 162.457031 199.519531 161.835938 202.871094 161.546875 C 203.105469 161.3125 203.421875 161.164062 203.789062 161.117188 C 203.835938 161.078125 203.976562 161.011719 204.039062 160.996094 " fill-opacity="1" fill-rule="nonzero"/></g></svg>