<svg xmlns="http://www.w3.org/2000/svg" xmlns:xlink="http://www.w3.org/1999/xlink" width="400" zoomAndPan="magnify" viewBox="0 0 300 299.999988" height="400" preserveAspectRatio="xMidYMid meet" version="1.0"><defs><clipPath id="24f335e187"><path d="M 74.550781 30.011719 L 225.300781 30.011719 L 225.300781 269.992188 L 74.550781 269.992188 Z M 74.550781 30.011719 " clip-rule="nonzero"/></clipPath></defs><g clip-path="url(#24f335e187)"><path fill="#a9a0f0" d="M 220.601562 113.046875 C 218.570312 113.308594 216.539062 113.203125 215.261719 112.953125 C 215.597656 112.425781 215.808594 111.898438 215.941406 111.402344 C 217.367188 109.074219 223.019531 107.53125 224.648438 111.300781 C 224.308594 111.878906 222.542969 112.800781 220.601562 113.046875 Z M 211.519531 117.910156 C 210.960938 117.453125 210.699219 116.949219 210.679688 116.625 C 211.414062 115.742188 215.730469 115.109375 217.847656 115.214844 C 219.507812 115.292969 220.230469 116.09375 220.53125 116.621094 C 217.742188 118.507812 214.15625 120.046875 211.519531 117.910156 Z M 207.230469 116.210938 C 206.996094 115.640625 207.8125 112.550781 210.171875 110.53125 C 211.261719 109.597656 213.90625 109.007812 215.226562 109.160156 C 215.445312 113.425781 207.648438 116.386719 207.230469 116.210938 Z M 201.652344 121.132812 C 202.042969 120.902344 202.441406 120.660156 202.84375 120.410156 C 204.140625 119.59375 204.921875 118.59375 205.390625 117.726562 C 207.089844 117.8125 208.273438 118.441406 208.652344 120.113281 C 206.933594 122.503906 204.441406 122.121094 201.652344 121.132812 Z M 196.789062 121.65625 C 197.003906 120.746094 196.988281 119.957031 196.941406 119.46875 C 198.777344 114.984375 202.40625 113.273438 205.375 116.269531 C 204.414062 119.417969 197.949219 121.503906 196.789062 121.65625 Z M 194.097656 123.546875 C 192.734375 125.042969 191.542969 126.042969 190.652344 126.632812 C 190.34375 126.738281 190.03125 126.863281 189.71875 126.992188 C 189.75 126.125 189.582031 125.371094 189.417969 124.859375 C 190.503906 121.28125 192.667969 117.378906 195.410156 119.640625 C 195.542969 121.03125 195.074219 122.472656 194.097656 123.546875 Z M 196.042969 129.0625 C 195.820312 129.726562 195.054688 131.476562 193.023438 131.867188 C 191.316406 132.195312 188.597656 132.273438 187.019531 131.695312 C 187.941406 130.847656 188.8125 129.980469 189.292969 128.882812 C 191.8125 127.59375 194.636719 126.632812 196.042969 129.0625 Z M 181.710938 132.953125 C 181.0625 131.777344 184.144531 122.464844 187.875 125.105469 C 188.441406 126.613281 188.167969 128.164062 187.3125 129.1875 C 185.625 131.203125 182.304688 133.441406 181.710938 132.953125 Z M 185.671875 136.1875 C 185.449219 136.847656 184.675781 138.597656 182.648438 138.980469 C 180.429688 139.402344 178.265625 139.242188 177.019531 138.917969 C 177.78125 138.0625 178.304688 137.34375 178.675781 136.117188 C 181.296875 134.730469 184.246094 133.707031 185.671875 136.1875 Z M 175.214844 138.585938 C 175.011719 138.785156 172.117188 141.203125 171.507812 140.714844 C 170.8125 139.628906 172.375 131.867188 177.421875 132.894531 C 177.699219 135.476562 176.886719 136.933594 175.214844 138.585938 Z M 177.015625 144.269531 C 176.722656 144.902344 175.757812 146.558594 173.699219 146.710938 C 172.042969 146.839844 170.453125 146.65625 169.246094 146.363281 C 169.785156 145.269531 169.855469 144.222656 169.816406 143.523438 C 172.574219 142.382812 175.84375 141.570312 177.015625 144.269531 Z M 167.753906 145.871094 C 167.636719 146.082031 167.503906 146.292969 167.332031 146.503906 C 167.195312 146.671875 167.046875 146.832031 166.875 146.992188 C 166.839844 147.023438 166.8125 147.046875 166.777344 147.078125 C 163.257812 150.3125 162.03125 150.730469 161.695312 150.769531 C 161.683594 150.773438 161.667969 150.773438 161.65625 150.777344 C 161.304688 149.96875 162.800781 143.535156 168.277344 143.597656 C 168.324219 144.363281 168.160156 145.144531 167.753906 145.871094 Z M 159.390625 156.621094 C 158.964844 156.824219 158.511719 157.011719 158.050781 157.191406 C 157.082031 157.566406 156.085938 157.867188 155.210938 158.046875 C 155.070312 156.71875 154.511719 155.761719 154.46875 155.691406 L 154.332031 155.460938 C 156.558594 153.222656 158.976562 151.804688 161.597656 153.5625 C 161.519531 154.253906 161.140625 155.785156 159.390625 156.621094 Z M 153.675781 159.007812 C 153.625 159.519531 153.394531 160.242188 153.007812 160.800781 C 150.863281 163.851562 148.71875 165.246094 148.328125 164.96875 C 148.140625 164.839844 147.8125 164.054688 147.980469 162.460938 C 148.222656 160.191406 149.199219 157.613281 151.398438 156.96875 C 151.867188 156.832031 152.351562 156.773438 152.785156 156.773438 C 152.964844 156.773438 153.175781 156.785156 153.300781 156.796875 C 153.4375 157.101562 153.613281 157.621094 153.667969 158.238281 C 153.691406 158.480469 153.703125 158.738281 153.675781 159.007812 Z M 124.519531 200.789062 C 124.226562 202.792969 122.648438 208.214844 121.144531 213.253906 C 118.089844 223.492188 118.222656 221.40625 115.070312 242.414062 C 114.902344 239.460938 115.953125 219.90625 117.6875 210.726562 C 121.289062 191.667969 120.460938 168.347656 112.890625 150.382812 C 106.429688 135.066406 86.902344 108.292969 77.457031 90.464844 C 91.410156 103.296875 105.664062 121.425781 114.660156 138.027344 C 128.667969 163.847656 126.214844 189.175781 124.519531 200.789062 Z M 118.859375 268.492188 L 118.265625 268.429688 C 116.949219 261.859375 115.441406 250.359375 116.429688 243.726562 C 117.46875 236.742188 119.164062 225.421875 120.476562 220.890625 C 118.746094 233.894531 118.78125 242.875 118.859375 268.492188 Z M 113.8125 230.742188 C 113.96875 226.808594 114.351562 222.878906 114.964844 218.988281 C 114.511719 222.523438 114.078125 226.613281 113.8125 230.742188 Z M 101.015625 147.429688 C 109.976562 157.882812 116.019531 171.472656 118.136719 184.957031 C 118.136719 184.996094 118.136719 185.039062 118.136719 185.078125 C 115.941406 177.304688 113.398438 171.382812 111.503906 167.421875 C 109.621094 163.570312 109.042969 162.699219 108.339844 161.402344 C 109.671875 164.742188 109.058594 163.140625 110.835938 167.710938 C 113.664062 175.183594 116.023438 182.539062 118.082031 190.902344 C 117.949219 195.234375 117.636719 200.03125 117.167969 203.9375 C 115.242188 175.945312 102.292969 155.683594 101.015625 147.429688 Z M 118.613281 36.5625 C 110.027344 67.652344 110.070312 92.417969 113.359375 114.511719 C 113.277344 114.558594 111.164062 115.214844 110.648438 117.761719 C 108.320312 107.742188 107.433594 97.984375 107.742188 87.949219 C 107.867188 85.300781 107.976562 83.25 108.125 81.875 C 108.238281 80.492188 108.296875 79.773438 108.296875 79.773438 C 108.296875 79.773438 108.160156 80.484375 107.898438 81.84375 C 107.621094 83.207031 107.324219 85.242188 107.015625 87.898438 C 105.613281 101.792969 107.523438 115.558594 112.621094 128.464844 C 112.601562 128.941406 112.617188 129.421875 112.664062 129.910156 C 111.578125 128.171875 110.441406 126.433594 109.257812 124.703125 C 97.152344 92.78125 109.738281 51.617188 118.613281 36.5625 Z M 115.859375 123.648438 C 115.804688 123.632812 115.699219 123.59375 115.660156 123.582031 C 115.574219 123.632812 114.792969 123.839844 113.929688 124.835938 C 113.179688 123.433594 112.378906 121.28125 112.125 119.335938 C 111.867188 117.375 112.929688 116.480469 113.453125 116.164062 C 116.128906 117.492188 116.164062 120.648438 115.859375 123.648438 Z M 115.554688 107.582031 C 115.78125 105.617188 117.027344 105.007812 117.613281 104.824219 C 118.515625 105.59375 119.078125 106.753906 119.117188 107.941406 C 117.304688 109.15625 116.632812 111.554688 116.136719 113.914062 C 115.664062 112.40625 115.304688 109.785156 115.554688 107.582031 Z M 122.035156 108.550781 C 123.347656 114.289062 118.0625 118.40625 117.539062 118.171875 C 116.984375 117.578125 116.9375 113.796875 117.144531 112.929688 C 117.792969 110.234375 119.242188 108.703125 122.035156 108.550781 Z M 123.484375 100.765625 C 124.519531 100.007812 126.007812 100.082031 126.953125 100.699219 C 127.015625 101.347656 127.007812 103.007812 125.519531 104.09375 C 124.121094 105.113281 121.90625 106.207031 120.40625 106.363281 C 120.289062 105.988281 120.160156 105.695312 120.003906 105.402344 C 120.460938 104.394531 121.714844 102.054688 123.484375 100.765625 Z M 119.371094 94.253906 C 119.578125 92.289062 121.53125 90.929688 122.113281 90.742188 C 124.644531 92.867188 123.34375 97.507812 122.015625 100.320312 C 121.648438 100.652344 121.328125 100.976562 121.007812 101.324219 C 120.351562 100.449219 119.070312 97.136719 119.371094 94.253906 Z M 124.625 92.378906 C 125.625 90.996094 126.726562 90.039062 128.386719 90.519531 C 128.582031 91.191406 128.878906 92.902344 127.53125 94.511719 C 126.621094 95.597656 125.570312 96.558594 124.621094 97.28125 C 125 95.582031 125.261719 93.992188 124.625 92.378906 Z M 126.824219 72.753906 C 128.5 74.050781 128.585938 76.613281 128.335938 78.492188 C 126.855469 79.027344 125.941406 80.183594 125.414062 81.664062 C 125.027344 80.179688 124.125 73.730469 126.824219 72.753906 Z M 129.675781 79.773438 C 130.546875 81.144531 130.632812 82.519531 130.109375 83.832031 C 129.238281 86.027344 127.871094 88.003906 126.957031 88.929688 C 126.679688 88.972656 126.332031 89.0625 126.015625 89.1875 C 125.519531 87.625 126.078125 79.898438 129.675781 79.773438 Z M 135.902344 70.613281 C 136.058594 71.292969 135.671875 73.472656 134.234375 75 C 132.996094 76.3125 131.429688 77.511719 130.097656 78.246094 C 130.039062 78.242188 129.976562 78.234375 129.910156 78.234375 C 130.015625 77.296875 130.109375 76.441406 129.730469 75.257812 C 130.421875 72.753906 133.488281 69.75 135.902344 70.613281 Z M 138.902344 59.390625 C 139.824219 60.507812 139.175781 63.40625 138.386719 64.703125 C 136.976562 67.019531 134.027344 68.902344 133.320312 68.808594 C 132.050781 66.929688 135.152344 58.875 138.902344 59.390625 Z M 133.761719 55.105469 C 134.054688 53.332031 135.585938 51.578125 136.160156 51.339844 C 136.753906 52.222656 137.453125 54.746094 137.335938 56.070312 C 137.261719 56.871094 137.089844 57.675781 136.867188 58.425781 C 135.910156 58.695312 134.882812 59.332031 134.085938 60.617188 C 133.839844 59.105469 133.433594 57.101562 133.761719 55.105469 Z M 140.605469 53.339844 C 141.339844 52.019531 142.929688 50.972656 144.382812 50.996094 C 146.15625 54.339844 143.214844 59.191406 140.144531 60.121094 C 139.917969 59.273438 139.636719 58.835938 139.421875 58.480469 C 139.316406 58.453125 139.039062 58.351562 138.699219 58.296875 C 138.988281 56.945312 139.636719 55.078125 140.605469 53.339844 Z M 142.929688 39.429688 C 143.304688 37.542969 144.859375 36.785156 145.46875 36.574219 C 146.511719 37.8125 146.613281 39.289062 146.257812 40.867188 C 145.960938 42.183594 144.757812 45.976562 143.722656 46.660156 C 142.960938 45.675781 142.496094 41.609375 142.929688 39.429688 Z M 121.257812 121.179688 C 122.714844 123.617188 121.308594 126.035156 119.625 128.320312 C 119.53125 126.996094 118.929688 125.777344 117.796875 124.789062 C 118.410156 122.871094 119.226562 121.140625 121.257812 121.179688 Z M 115.734375 125.265625 C 118.265625 126.488281 118.277344 128.402344 117.917969 131.027344 C 116.785156 131.949219 116.332031 133.203125 115.976562 134.617188 C 115.707031 133.960938 115.429688 133.261719 115.132812 132.503906 C 114.832031 131.707031 114.515625 130.839844 114.191406 129.921875 C 113.996094 128.023438 114.335938 126.207031 115.734375 125.265625 Z M 113.011719 126.390625 C 112.992188 126.320312 112.96875 126.253906 112.945312 126.183594 C 112.976562 126.230469 113 126.28125 113.03125 126.324219 C 113.023438 126.347656 113.019531 126.371094 113.011719 126.390625 Z M 120.460938 131.585938 C 120.761719 131.992188 121.609375 136.285156 118.539062 140.261719 C 118.464844 140.148438 118.398438 140.027344 118.339844 139.90625 C 118.238281 139.117188 118.109375 138.390625 117.976562 137.824219 C 117.828125 137.199219 117.589844 136.605469 117.238281 136.042969 C 117.640625 133.902344 118.277344 131.738281 120.460938 131.585938 Z M 121.183594 146.109375 C 120.574219 144.632812 119.960938 143.246094 119.199219 141.667969 C 119.546875 141.414062 119.875 141.273438 120.214844 141.195312 C 121.882812 142.851562 121.550781 144.664062 121.183594 146.109375 Z M 128.625 144.519531 C 129.171875 145.976562 129.324219 147.796875 128.65625 149.289062 C 128.085938 150.570312 126 153.550781 124.765625 153.800781 C 124.167969 153.011719 124.5625 144.398438 128.625 144.519531 Z M 126.765625 137.777344 C 127.058594 136.324219 128.035156 135.5 129.257812 135.308594 C 129.714844 135.722656 130.1875 136.347656 130.453125 137.054688 C 129.285156 138.5 127.523438 141.242188 127.507812 143.101562 C 127.332031 143.140625 127.042969 143.226562 126.792969 143.332031 C 126.5 141.8125 126.386719 139.65625 126.765625 137.777344 Z M 133.027344 127.601562 C 135.199219 129.558594 134.542969 131.964844 133.382812 134.636719 C 132.640625 134.90625 132.101562 135.308594 131.585938 135.808594 C 131.269531 135.226562 130.828125 134.667969 130.367188 134.238281 C 130.089844 131.304688 130.246094 128.03125 133.027344 127.601562 Z M 136.199219 113.984375 C 137.367188 115.617188 136.96875 117.421875 136.421875 119.179688 C 136.085938 120.265625 135.089844 122.929688 134.261719 123.699219 C 133.75 122.523438 132.222656 115.242188 136.199219 113.984375 Z M 140.316406 120.59375 C 140.875 120.59375 141.335938 120.761719 141.605469 120.886719 C 141.777344 121.5625 142.066406 123.410156 140.589844 124.878906 C 139.34375 126.121094 137.035156 127.800781 135.402344 128.1875 C 135.199219 127.800781 134.96875 127.46875 134.746094 127.191406 C 135.296875 125.253906 137.785156 120.59375 140.316406 120.59375 Z M 139.542969 97.765625 C 139.832031 97.660156 141.710938 99.496094 141.644531 101.652344 C 141.574219 103.820312 140.511719 108.148438 139.625 108.148438 C 139.546875 108.082031 139.039062 107.929688 138.515625 106.632812 C 137.09375 103.113281 136.003906 99.109375 139.542969 97.765625 Z M 138.441406 115.605469 C 139.371094 112.914062 141.550781 109.195312 144.300781 109.972656 C 144.578125 110.617188 144.628906 113.042969 143.398438 114.726562 C 142.425781 116.0625 139.546875 118.882812 138.085938 118.964844 C 138.378906 117.902344 138.636719 116.9375 138.441406 115.605469 Z M 136.230469 136.242188 C 136.382812 136.925781 136.617188 138.777344 135.09375 140.203125 C 133.207031 141.96875 130.957031 143.109375 129.8125 143.378906 L 129.683594 143.117188 C 129.363281 143.054688 129.285156 143.027344 129.027344 143 C 129.132812 141.921875 130.21875 140.015625 130.898438 139.023438 C 131.851562 137.640625 133.183594 135.910156 134.863281 135.910156 C 135.460938 135.910156 135.953125 136.101562 136.230469 136.242188 Z M 138.472656 141.058594 C 138.839844 140.902344 139.195312 140.84375 139.523438 140.84375 C 139.9375 140.84375 140.304688 140.9375 140.578125 141.035156 C 140.304688 142.152344 139.566406 144.648438 138.109375 146.148438 C 136.945312 147.34375 135.96875 148.101562 135.257812 148.382812 C 132.320312 149.53125 136.242188 142.015625 138.472656 141.058594 Z M 126.851562 168.351562 C 126.453125 165.308594 125.910156 162.273438 125.207031 159.1875 C 125.519531 157.699219 125.835938 156.226562 126.15625 154.777344 C 127.609375 153.8125 129.238281 151.777344 130.066406 149.917969 C 130.921875 147.996094 130.667969 146.054688 130.332031 144.804688 C 131.878906 144.425781 133.722656 143.300781 135.113281 142.210938 C 133.875 143.949219 131.480469 148.054688 132.992188 149.546875 C 130.773438 155.144531 128.347656 163.34375 126.851562 168.351562 Z M 141.964844 185.511719 C 165.597656 153.988281 186.488281 154.078125 205.707031 133.253906 C 196.859375 160.742188 139.417969 174.023438 122.335938 223.851562 C 126.34375 208.558594 132.378906 198.296875 141.964844 185.511719 Z M 149.265625 33.179688 C 150.105469 31.765625 151.847656 30.695312 152.394531 30.695312 C 152.664062 31.578125 152.671875 34.664062 151.675781 36.335938 C 150.589844 38.15625 148.929688 39.375 147.988281 39.738281 C 148.035156 38.929688 147.925781 38.222656 147.742188 37.621094 C 148.097656 36.273438 148.476562 34.503906 149.265625 33.179688 Z M 145.914062 89.425781 C 146.835938 90.46875 147.261719 91.949219 146.824219 93.394531 C 146.53125 94.359375 146.097656 95.390625 145.589844 96.332031 C 144.082031 99.125 143.351562 99.101562 143.269531 99.167969 C 142.488281 98.660156 141.742188 89.734375 145.914062 89.425781 Z M 146.703125 100.476562 C 145.78125 101.859375 144.25 103.53125 142.863281 104.425781 C 143.066406 103.378906 143.289062 101.765625 143.125 100.683594 C 144.792969 100.832031 146.304688 98.292969 147.078125 96.792969 C 147.375 97.605469 147.65625 99.042969 146.703125 100.476562 Z M 147.445312 79.777344 C 147.796875 78.324219 149.597656 77.59375 150.660156 77.59375 C 150.972656 77.59375 151.429688 77.945312 151.625 77.96875 C 152.582031 79.738281 151.203125 83.277344 150.238281 85.03125 C 149.386719 85.515625 148.835938 86.179688 148.269531 86.96875 C 147.84375 86.320312 146.921875 81.949219 147.445312 79.777344 Z M 152.394531 85.992188 C 152.855469 85.992188 153.242188 86.101562 153.480469 86.191406 C 153.707031 86.851562 154.136719 88.667969 152.777344 90.25 C 151.285156 91.984375 149.484375 93.242188 148.3125 93.789062 C 148.734375 92.355469 148.535156 91.121094 148.152344 90.171875 C 149.023438 88.367188 150.375 85.992188 152.394531 85.992188 Z M 153.460938 78.839844 C 153.976562 77.207031 156.863281 75.289062 158.445312 75.289062 C 159.574219 75.289062 161.125 75.789062 161.515625 76.179688 C 161.429688 76.765625 160.414062 78.449219 158.660156 79.484375 C 157.195312 80.347656 154.929688 81.242188 153.273438 81.386719 C 153.507812 80.347656 153.535156 79.507812 153.460938 78.839844 Z M 161.773438 62.390625 C 163.585938 66.683594 156.800781 71.757812 156.175781 71.308594 C 155.320312 70.339844 157.515625 61.152344 161.773438 62.390625 Z M 160.402344 56.476562 C 160.609375 54.507812 162.445312 53.292969 163.058594 53.136719 C 164.316406 54.070312 164.921875 55.917969 164.78125 57.273438 C 164.582031 59.152344 164.003906 61.046875 163.324219 62.367188 C 163.1875 62.046875 163.082031 61.886719 163.027344 61.78125 C 162.917969 61.75 162.335938 61.390625 161.246094 61.351562 C 160.867188 59.898438 160.21875 58.222656 160.402344 56.476562 Z M 165.160156 62.046875 C 166.183594 61.71875 167.148438 61.960938 167.910156 62.582031 C 167.90625 65.445312 165.855469 66.527344 163.109375 67.492188 C 163.753906 66.386719 163.886719 65.285156 163.816406 64.359375 C 164.335938 63.789062 164.785156 62.964844 165.160156 62.046875 Z M 166.320312 56.320312 C 167.09375 54.277344 168.367188 51.609375 170.546875 51.609375 C 170.640625 51.609375 170.722656 51.625 170.808594 51.632812 C 171.054688 51.652344 171.277344 51.691406 171.429688 51.738281 C 171.699219 52.378906 172.261719 54.160156 171.023438 55.835938 C 169.117188 58.410156 166.542969 60.105469 165.8125 60.070312 C 166.113281 58.929688 166.425781 57.496094 166.320312 56.320312 Z M 167.511719 44.914062 C 168.273438 43.246094 170.121094 42.902344 170.683594 42.859375 C 171.929688 45.273438 170.339844 48.941406 168.039062 50.867188 C 167.59375 51.175781 167.175781 51.554688 166.621094 52.375 C 166.519531 52.453125 166.421875 52.511719 166.34375 52.542969 C 166.019531 51.664062 166.304688 47.558594 167.511719 44.914062 Z M 172.164062 44.335938 C 173.347656 43.382812 174.617188 43.367188 175.6875 44.007812 C 175.890625 45.390625 175.480469 46.890625 174.257812 47.871094 C 173.027344 48.863281 171.691406 49.605469 170.570312 50.078125 C 170.527344 50.078125 170.480469 50.082031 170.4375 50.082031 C 171.582031 48.203125 172.515625 46.511719 172.164062 44.335938 Z M 177.019531 35.148438 C 178.222656 33.917969 180.359375 33.757812 180.917969 33.9375 C 181.550781 37.238281 175.148438 41.316406 174.03125 41.230469 C 173.882812 40.046875 175.527344 36.679688 177.019531 35.148438 Z M 181.519531 41.9375 C 181.34375 42.554688 180.722656 44.226562 179.011719 44.554688 C 178.429688 44.664062 177.839844 44.722656 177.269531 44.742188 C 177.277344 43.9375 177.15625 43.476562 177.066406 43.105469 C 176.941406 43.023438 176.492188 42.566406 175.503906 42.253906 C 176.476562 41.933594 177.546875 41.238281 178.453125 40.539062 C 179.714844 40.238281 180.773438 40.546875 181.519531 41.9375 Z M 143.421875 129.609375 C 143.800781 129.304688 144.171875 129.125 144.53125 129.023438 C 145.335938 128.792969 146.128906 128.941406 146.84375 129.382812 C 146.960938 130.058594 147.105469 131.917969 145.546875 133.183594 C 144.023438 134.417969 142.324219 135.242188 141.101562 135.621094 C 140.246094 135.886719 139.625 135.9375 139.472656 135.75 C 139.441406 135.699219 139.433594 135.617188 139.433594 135.523438 C 139.441406 134.578125 141.105469 131.492188 143.421875 129.609375 Z M 145.941406 124.726562 C 146.050781 124.753906 146.160156 124.773438 146.273438 124.773438 C 147.714844 124.773438 149.058594 122.636719 149.730469 121.363281 C 151.019531 120.554688 152.292969 120.273438 153.476562 121.207031 C 153.433594 121.878906 153.144531 123.53125 151.425781 124.488281 C 148.863281 125.914062 145.601562 126.617188 145.136719 126.21875 C 145.097656 125.949219 145.40625 125.394531 145.941406 124.726562 Z M 146.375 116.023438 C 146.773438 114.683594 147.707031 113.957031 148.800781 113.839844 C 149.203125 114.308594 149.535156 114.910156 149.699219 115.621094 C 150.261719 118.101562 147.132812 123.199219 146.332031 123.253906 C 145.644531 122.734375 145.605469 118.609375 146.375 116.023438 Z M 152.554688 105.949219 C 153.4375 107.183594 153.445312 108.496094 152.886719 109.839844 C 151.746094 112.5625 150.898438 113.066406 150.460938 113.507812 C 150.03125 112.828125 149.683594 112.527344 149.4375 112.300781 L 149.320312 112.296875 C 149.421875 109.734375 150.003906 106.050781 152.554688 105.949219 Z M 157.667969 112.253906 C 157.625 112.890625 157.34375 114.394531 155.769531 115.269531 C 154.359375 116.054688 152.683594 116.640625 151.328125 116.875 C 151.375 116.257812 151.3125 115.640625 151.144531 115.03125 C 152.855469 113.140625 155.648438 110.695312 157.667969 112.253906 Z M 154.824219 107.972656 C 156.332031 106.019531 158.707031 103.523438 160.808594 104.820312 C 160.828125 105.457031 160.707031 106.984375 159.230469 108.019531 C 157.523438 109.21875 155.519531 110.007812 154.398438 110.210938 C 154.421875 110.152344 154.851562 108.761719 154.824219 107.972656 Z M 157.746094 96.28125 C 157.984375 95.003906 158.765625 94.269531 159.738281 94.050781 C 161.425781 95.675781 160.984375 97.636719 160.175781 99.832031 C 159.558594 101.503906 158.769531 102.789062 158.34375 102.953125 C 157.523438 102.191406 157.398438 98.136719 157.746094 96.28125 Z M 163.914062 86.972656 C 164.324219 87.429688 165.589844 89.539062 165.113281 91.171875 C 164.53125 93.164062 162.953125 94.558594 162.261719 95.355469 C 162.003906 94.449219 161.535156 93.75 161.132812 93.289062 C 160.402344 90.742188 161.535156 87.210938 163.914062 86.972656 Z M 166.503906 94.9375 C 166.902344 94.9375 167.238281 95.039062 167.453125 95.125 C 167.605469 95.726562 167.808594 97.210938 166.625 98.429688 C 164.621094 100.488281 162.152344 101.632812 161.730469 101.464844 C 161.339844 100.613281 163.316406 97.167969 164.667969 95.777344 C 165.160156 95.269531 165.785156 94.9375 166.503906 94.9375 Z M 167.425781 83.632812 C 167.675781 82.777344 168.765625 80.78125 169.398438 81.40625 C 170.273438 82.28125 171.070312 84.046875 170.722656 85.230469 C 169.917969 87.988281 168.269531 90.148438 167.820312 90.203125 C 167.207031 89.734375 166.746094 85.96875 167.425781 83.632812 Z M 174.535156 75.238281 C 175.171875 74.09375 176.78125 73.695312 178.078125 73.734375 C 178.382812 77.476562 174.179688 81.5625 173.402344 81.449219 C 172.796875 80.726562 173.585938 76.949219 174.535156 75.238281 Z M 184.289062 68.828125 C 184.886719 68.828125 185.355469 69.101562 185.609375 69.289062 C 185.636719 69.855469 185.566406 71.207031 184.34375 72 C 183.203125 72.742188 180.464844 73.886719 179.613281 73.601562 C 179.605469 73.484375 179.59375 73.378906 179.582031 73.285156 C 179.949219 72.042969 182.632812 68.828125 184.289062 68.828125 Z M 188.757812 62.132812 C 188.921875 62.519531 189.183594 64.550781 188.328125 65.386719 C 187.476562 66.222656 185.351562 67.035156 184.441406 67.199219 C 184.214844 64.703125 187.394531 61.492188 188.757812 62.132812 Z M 156.761719 132.203125 C 156.742188 132.980469 156.289062 135.828125 154.707031 136.957031 C 152.917969 138.234375 149.335938 138.972656 148.816406 138.25 C 148.023438 136.773438 153.050781 129.640625 156.761719 132.203125 Z M 157.21875 120.617188 C 157.75 118.875 159.25 118.640625 159.863281 118.621094 C 161.726562 120.53125 161.171875 122.359375 159.9375 124.726562 C 159.445312 125.660156 157.820312 128.167969 157.3125 127.554688 C 156.746094 126.863281 156.410156 123.289062 157.21875 120.617188 Z M 162.566406 122.070312 C 164.339844 119.914062 166.917969 117.46875 169.105469 118.996094 C 168.957031 119.878906 168.429688 122.050781 166.765625 123.0625 C 164.769531 124.285156 162.707031 124.542969 161.808594 124.378906 C 162.113281 123.679688 162.453125 122.820312 162.566406 122.070312 Z M 163.519531 114.234375 C 164.078125 112.886719 164.929688 112.539062 166.097656 112.417969 C 167.34375 114.167969 166.84375 115.703125 166.035156 117.269531 C 164.875 117.714844 163.417969 118.953125 162.53125 119.824219 C 162.480469 118.382812 162.753906 116.085938 163.519531 114.234375 Z M 169.398438 108.902344 C 169.925781 105.125 172.050781 103.078125 174.171875 102.90625 C 175.496094 105.710938 174.28125 107.65625 171.90625 110.019531 C 171.582031 110.339844 170.28125 111.546875 169.839844 111.433594 C 169.730469 111.367188 169.210938 110.234375 169.398438 108.902344 Z M 175.910156 107.09375 C 178.183594 105.578125 181.058594 104.757812 182.503906 106.847656 C 182.394531 107.488281 181.078125 109.304688 179.371094 109.828125 C 178.144531 110.203125 176.613281 110.394531 175.359375 110.324219 C 174.710938 110.289062 174.242188 110.191406 173.925781 110.074219 C 174.574219 109.304688 175.539062 107.980469 175.910156 107.09375 Z M 185.671875 98.539062 C 186.84375 98.539062 187.695312 99.742188 187.972656 100.148438 C 187.863281 100.789062 187.410156 102.542969 185.703125 103.066406 C 183.234375 103.820312 179.957031 103.679688 179.734375 102.960938 C 179.492188 102.164062 183.582031 98.539062 185.671875 98.539062 Z M 187.300781 88.515625 C 187.660156 89.246094 187.898438 91.332031 187.089844 92.683594 C 185.566406 95.234375 183.890625 96.871094 183.332031 96.953125 C 182.816406 96.144531 182.160156 90.226562 187.300781 88.515625 Z M 193.273438 91.796875 C 193.382812 92.394531 193.53125 93.996094 192.265625 94.964844 C 190.105469 96.613281 187.488281 97.214844 187.175781 96.800781 C 187.109375 96.6875 187.128906 96.464844 187.21875 96.171875 C 187.5625 95 190.332031 89.730469 193.273438 91.796875 Z M 191.839844 84.0625 C 192.433594 82.980469 194.464844 81.855469 195.609375 82.089844 C 197.214844 84.421875 195.8125 87.003906 193.800781 88.980469 C 193.429688 89.347656 193.066406 89.648438 192.742188 89.875 C 192.324219 89.761719 191.828125 89.710938 191.378906 89.757812 C 191.308594 89.378906 191.011719 85.570312 191.839844 84.0625 Z M 197.300781 86.78125 C 198.265625 85.515625 199.953125 84.875 201.175781 84.660156 C 202.753906 84.382812 204.078125 86.867188 204.347656 87.488281 C 203.953125 88.046875 199.542969 89.289062 196.15625 88.617188 C 196.5625 88.074219 197.015625 87.402344 197.300781 86.78125 Z M 204.773438 77.121094 C 206.191406 76.394531 208.007812 76.492188 208.457031 76.78125 C 208.445312 77.398438 207.90625 79.242188 206.472656 80.171875 C 204.269531 81.605469 201.476562 82.484375 200.835938 82.261719 C 200.585938 80.878906 202.535156 78.273438 204.773438 77.121094 Z M 225.320312 110.203125 C 224.808594 108.640625 222.148438 108.140625 220.757812 108.316406 C 219.402344 108.492188 217.746094 108.949219 216.265625 109.53125 C 216.242188 108.917969 216.152344 108.648438 216.066406 108.277344 C 213.691406 107.605469 210.675781 108.457031 209.058594 109.84375 C 207.664062 111.035156 206.574219 113.078125 205.980469 114.976562 C 202.121094 112.511719 198.636719 114.191406 196.042969 118.054688 C 192.367188 116.6875 189.972656 119.910156 188.386719 123.480469 C 187.125 123.0625 185.019531 122.984375 183.421875 124.894531 C 181.667969 126.996094 179.425781 131.671875 180.511719 133.578125 C 180.058594 133.734375 179.589844 133.914062 179.128906 134.117188 C 179.207031 132.6875 178.953125 131.808594 178.84375 131.332031 C 176.011719 130.964844 173.976562 131.902344 172.683594 133.519531 C 171.238281 135.332031 168.980469 139.828125 170.457031 141.570312 C 170.058594 141.703125 169.675781 141.847656 169.296875 142 C 168.449219 141.867188 167.503906 141.917969 166.679688 142.089844 C 161.910156 143.085938 159.605469 149.171875 160.371094 151.214844 C 157.464844 150.59375 154.457031 152.824219 152.582031 155.117188 C 146.734375 155.394531 144.835938 163.824219 146.097656 165.996094 C 143.90625 168.644531 134.445312 181.195312 126.25 200.324219 C 127.105469 194.351562 127.609375 188.917969 127.75 183.769531 C 132.269531 169.355469 138.15625 156.660156 145.589844 145.144531 C 146.753906 143.34375 147.960938 141.566406 149.1875 139.796875 C 151.410156 140.050781 158.308594 137.867188 157.863281 131.976562 L 157.839844 131.671875 C 157.699219 131.5625 157.167969 130.933594 155.992188 130.550781 C 156.390625 130.035156 156.789062 129.523438 157.191406 129.007812 C 158.867188 129.429688 160.421875 127.144531 161.261719 125.625 C 163.128906 126.253906 165.996094 125.292969 167.699219 124.25 C 170.480469 122.554688 170.8125 118.769531 170.824219 118.609375 L 170.851562 118.257812 L 170.605469 118.003906 C 170.132812 117.53125 169.1875 116.945312 167.992188 116.859375 C 168.074219 116.671875 168.238281 116.402344 168.394531 115.703125 C 169.40625 114.570312 170.425781 113.453125 171.453125 112.34375 C 172.058594 111.976562 172.476562 111.59375 172.960938 111.125 C 173.472656 111.433594 174.242188 111.671875 175.40625 111.738281 C 175.601562 111.746094 175.804688 111.753906 176.011719 111.753906 C 180.105469 111.753906 183.003906 110.488281 183.359375 106.441406 C 183.304688 106.355469 183.03125 105.695312 182.230469 104.996094 C 186.339844 105.039062 189.332031 103.742188 189.6875 99.679688 C 189.621094 99.574219 189.359375 98.945312 188.585938 98.253906 C 190.1875 97.984375 192.15625 96.957031 193.332031 96.058594 C 195.800781 94.171875 194.773438 90.882812 194.773438 90.804688 C 194.628906 90.679688 194.566406 90.617188 194.425781 90.507812 C 194.6875 90.28125 194.949219 90.035156 195.195312 89.773438 C 197.429688 90.578125 203.886719 90.777344 205.378906 87.136719 C 205.300781 87.085938 204.488281 82.871094 199.972656 84.066406 C 200.195312 83.859375 200.425781 83.648438 200.648438 83.4375 C 202.449219 84 205.894531 82.34375 207.441406 81.335938 C 210.101562 79.609375 209.78125 76.714844 209.765625 76.589844 L 209.734375 76.3125 L 209.527344 76.121094 C 208.78125 75.425781 206.789062 74.484375 204.578125 75.921875 C 202.820312 77.0625 199.429688 80.335938 199.636719 82.273438 C 199.015625 82.847656 198.390625 83.433594 197.765625 84.011719 C 197.597656 83.101562 197.183594 82.175781 196.445312 81.277344 L 196.230469 81.210938 C 195.089844 80.851562 192.605469 80.78125 191.355469 83.066406 C 190.378906 84.851562 189.558594 88.136719 190.042969 90.117188 C 189.726562 90.300781 189.492188 90.492188 189.1875 90.757812 C 189.140625 89.597656 188.546875 87.0625 187.140625 87.402344 C 182.488281 88.539062 180.484375 96.984375 182.742188 98.199219 C 181.121094 99.058594 178.273438 101.035156 178.328125 102.855469 C 177.695312 103.503906 177.066406 104.160156 176.4375 104.8125 C 176.390625 103.488281 175.929688 102.546875 175.300781 101.621094 C 172.59375 101.796875 170.773438 103.035156 169.800781 104.703125 C 168.601562 106.761719 167.226562 111.371094 169.136719 112.59375 C 168.890625 112.867188 168.640625 113.140625 168.390625 113.414062 C 168.164062 112.441406 167.714844 111.617188 167.007812 110.828125 L 166.742188 110.785156 C 165.640625 110.605469 163.28125 110.949219 162.222656 113.519531 C 161.757812 114.640625 161.398438 116.121094 161.222656 117.550781 C 160.914062 117.21875 160.746094 117.09375 160.613281 116.980469 L 160.367188 116.960938 C 159.179688 116.863281 156.683594 117.375 155.875 120.042969 C 155.230469 122.15625 155 126.132812 156.015625 128.007812 C 155.402344 128.789062 154.789062 129.574219 154.183594 130.363281 C 153.535156 130.4375 152.851562 130.675781 152.171875 131.164062 C 149.875 132.800781 145.945312 137.164062 147.289062 139.042969 C 147.316406 139.082031 147.351562 139.105469 147.382812 139.140625 C 146.191406 140.859375 144.65625 142.917969 143.527344 144.664062 C 136.816406 155.0625 132.121094 166.046875 127.777344 178.726562 C 127.734375 176.523438 127.609375 174.363281 127.421875 172.21875 C 132.378906 154.859375 133.8125 153.730469 135.160156 150.324219 C 135.191406 150.324219 135.144531 149.933594 135.175781 149.933594 C 136.679688 149.933594 141.203125 146.914062 142.347656 140.609375 L 142.441406 140.09375 L 141.996094 139.816406 C 141.449219 139.480469 140.492188 139.136719 139.421875 139.191406 C 139.734375 138.535156 140.054688 137.878906 140.375 137.21875 C 142.386719 137.054688 145.132812 135.480469 146.644531 134.253906 C 148.445312 132.792969 148.929688 130.539062 148.339844 128.34375 C 148.230469 128.265625 147.851562 127.894531 147.066406 127.585938 C 148.835938 127.300781 150.816406 126.535156 152.304688 125.707031 C 155.316406 124.027344 155.160156 120.828125 155.152344 120.695312 L 155.132812 120.417969 L 154.945312 120.21875 C 154.316406 119.535156 152.761719 118.605469 150.824219 119.105469 C 150.929688 118.832031 151.023438 118.574219 151.105469 118.332031 C 152.890625 118.1875 155.113281 117.34375 156.648438 116.488281 C 159.503906 114.898438 159.351562 111.867188 159.34375 111.738281 L 159.328125 111.464844 L 159.140625 111.261719 C 158.898438 111 158.503906 110.695312 158.003906 110.460938 C 160.972656 109.003906 162.925781 107.300781 162.390625 103.878906 C 162.300781 103.8125 161.699219 103.136719 160.472656 102.875 C 160.570312 102.730469 160.664062 102.574219 160.761719 102.410156 C 162.363281 103.957031 166.316406 100.964844 167.859375 99.375 C 169.296875 97.894531 169.582031 95.882812 168.847656 93.929688 C 168.765625 93.890625 167.847656 93.195312 166.390625 93.285156 C 166.78125 92.699219 167.171875 92.121094 167.5625 91.546875 C 169.832031 92.066406 172.511719 86.417969 172.496094 84.375 C 172.863281 83.851562 173.230469 83.328125 173.585938 82.820312 C 175.410156 82.707031 179.308594 78.714844 179.71875 74.980469 C 181.859375 75.226562 188.050781 73.324219 187.234375 68.640625 L 187.191406 68.398438 C 187.058594 68.273438 186.933594 68.113281 186.574219 67.863281 C 187.6875 67.222656 188.722656 66.34375 189.140625 65.9375 C 190.65625 64.449219 190.1875 62.519531 189.726562 61.710938 L 189.664062 61.59375 L 189.558594 61.503906 C 186.84375 59.152344 183.070312 65.121094 183.03125 67.179688 C 182.929688 67.316406 182.828125 67.449219 182.722656 67.589844 C 181.378906 68.300781 179.320312 70.359375 178.496094 72.074219 C 177.394531 72.007812 174.765625 72.097656 173.53125 74.316406 C 172.550781 76.085938 171.191406 80.375 172.210938 82.101562 C 172.136719 82.203125 172.066406 82.304688 171.992188 82.410156 C 169.8125 78.121094 165.664062 80.101562 165.898438 87.75 C 165.417969 86.738281 164.742188 86.132812 164.691406 86.089844 L 164.492188 85.917969 L 164.230469 85.902344 C 163.183594 85.84375 160.96875 86.390625 160.234375 88.898438 C 159.992188 89.734375 159.78125 91.046875 159.730469 92.382812 C 158.605469 92.570312 156.8125 93.457031 156.359375 95.867188 C 156 97.769531 155.988281 101.867188 157.140625 103.589844 C 156.234375 104.210938 155.253906 105.152344 154.519531 105.964844 C 154.179688 105.179688 153.824219 104.757812 153.433594 104.335938 L 153.160156 104.300781 C 152.109375 104.164062 149.855469 104.574219 148.882812 107.105469 C 148.355469 108.476562 147.941406 110.488281 147.90625 112.367188 C 146.816406 112.730469 145.578125 113.605469 145.027344 115.453125 C 144.453125 117.378906 143.992188 121.566406 144.9375 123.554688 C 143.820312 124.9375 143.472656 126.027344 143.902344 126.800781 C 143.925781 126.839844 143.960938 126.867188 143.984375 126.902344 C 143.847656 127.15625 143.710938 127.410156 143.574219 127.660156 C 143.242188 127.816406 142.910156 128.015625 142.582031 128.285156 C 140.34375 130.101562 136.363281 135.398438 138.804688 136.933594 C 138.332031 137.898438 137.875 138.859375 137.425781 139.816406 C 137.386719 139.839844 137.351562 139.859375 137.3125 139.882812 C 138.113281 138.460938 138.203125 136.746094 137.667969 135.109375 C 137.578125 135.0625 136.738281 134.359375 135.277344 134.265625 C 135.839844 132.761719 136.359375 131.089844 136.046875 129.515625 C 137.988281 128.988281 140.371094 127.269531 141.808594 125.84375 C 143.472656 124.1875 143.800781 121.886719 143.011719 119.714844 C 142.890625 119.652344 142.3125 119.1875 141.207031 119.003906 C 142.441406 118.070312 143.71875 116.78125 144.652344 115.5 C 146.75 112.625 145.078125 109.609375 145.007812 109.484375 L 144.878906 109.257812 L 144.640625 109.15625 C 143.53125 108.679688 140.976562 108.40625 139.242188 110.78125 C 138.9375 111.199219 138.617188 111.714844 138.308594 112.285156 C 138.644531 111.339844 138.984375 110.40625 139.320312 109.488281 C 140.949219 109.996094 141.964844 107.863281 142.492188 106.238281 C 144.492188 105.652344 146.949219 102.953125 148.113281 101.199219 C 149.855469 98.582031 148.652344 95.988281 148.296875 95.332031 C 150.277344 94.777344 152.769531 92.648438 154.074219 91.125 C 156.394531 88.429688 154.972656 85.289062 154.910156 85.15625 L 154.800781 84.921875 L 154.570312 84.800781 C 154.078125 84.542969 153.273438 84.304688 152.363281 84.339844 C 152.582031 83.839844 152.785156 83.332031 152.957031 82.816406 C 153.460938 82.816406 154.003906 82.769531 154.816406 82.585938 C 156.367188 82.234375 158.144531 81.523438 159.570312 80.683594 C 162.59375 78.902344 162.589844 76.15625 162.585938 76.039062 L 162.582031 75.769531 L 162.410156 75.5625 C 161.480469 74.433594 159.042969 72.695312 156.480469 74.203125 C 155.984375 74.496094 155.457031 74.863281 154.9375 75.28125 C 155.445312 74.390625 155.9375 73.542969 156.417969 72.734375 C 158.152344 72.726562 160.425781 70.664062 161.613281 69.402344 C 161.777344 69.371094 161.929688 69.351562 162.105469 69.3125 C 163.660156 68.957031 165.433594 68.242188 166.855469 67.398438 C 169.917969 65.589844 169.574219 62.160156 169.558594 62.011719 L 169.53125 61.757812 L 169.351562 61.566406 C 169.074219 61.273438 168.636719 60.941406 168.082031 60.679688 C 169.722656 59.683594 171.425781 57.925781 172.390625 56.625 C 174.46875 53.820312 172.921875 50.855469 172.796875 50.628906 C 175 49.417969 176.621094 48.273438 177.195312 46.144531 C 178.027344 46.132812 178.8125 46.058594 179.429688 45.9375 C 181.546875 45.535156 182.847656 43.757812 183.257812 41.640625 C 183.210938 41.558594 182.511719 39.4375 180.363281 38.863281 C 182.804688 36.398438 181.542969 33.628906 181.535156 33.554688 L 181.289062 33.410156 C 180.4375 32.921875 178.359375 32.488281 176.574219 34.332031 C 175.277344 35.675781 172.636719 39.523438 173.238281 41.371094 C 172.871094 41.679688 172.535156 42.023438 172.28125 42.386719 C 172.125 42.464844 171.96875 42.550781 171.8125 42.652344 C 171.566406 42.140625 171.386719 41.933594 171.242188 41.738281 C 169.019531 41.417969 167.378906 42.597656 166.472656 44.585938 C 165.617188 46.457031 164.246094 51.238281 165.152344 53.160156 C 164.582031 52.488281 164.078125 52.125 163.507812 51.78125 C 163.46875 51.859375 157.492188 51.753906 159.828125 61.433594 C 159.019531 61.691406 158.199219 62.207031 157.507812 63.144531 C 155.859375 65.378906 153.839844 70.253906 155.042969 72.046875 C 154.242188 73.390625 153.40625 74.84375 152.539062 76.40625 L 152.355469 76.371094 C 150.65625 76.042969 147.269531 76.203125 146.558594 79.152344 C 146.183594 80.707031 146.070312 82.808594 146.261719 84.632812 C 146.386719 85.789062 146.609375 86.691406 146.929688 87.339844 C 146.855469 87.492188 146.785156 87.640625 146.710938 87.796875 L 146.679688 87.769531 L 146.414062 87.753906 C 145.242188 87.679688 142.792969 88.277344 141.9375 91.085938 C 141.523438 92.449219 141.160156 95.046875 141.335938 97.179688 C 141.097656 96.972656 140.882812 96.8125 140.710938 96.695312 C 139.375 95.796875 136.292969 97.390625 136.183594 100.71875 C 136.113281 102.914062 136.792969 106.59375 138.070312 108.4375 C 137.613281 109.667969 137.15625 110.933594 136.699219 112.21875 L 136.558594 112.226562 C 132.0625 112.558594 132.117188 121.3125 132.851562 123.78125 C 132.605469 124.5625 132.363281 125.355469 132.121094 126.15625 C 129.058594 127.230469 128.726562 130.445312 128.917969 133.703125 C 124.738281 134.597656 124.535156 140.15625 125.539062 144.113281 C 124.046875 145.574219 123.34375 149.167969 123.175781 151.015625 C 122.613281 149.273438 123.015625 150.785156 122.300781 148.015625 C 122.652344 146.992188 122.914062 146 123.054688 145.253906 C 123.722656 141.71875 121.160156 139.722656 121.050781 139.636719 L 120.921875 139.539062 C 122.996094 136.125 124.070312 132.886719 121.316406 129.949219 C 121.113281 129.933594 120.859375 129.875 120.34375 129.929688 C 126.148438 123 122.230469 119.800781 122.25 119.613281 C 122.171875 119.609375 120.492188 119.09375 118.746094 120.378906 C 118.804688 119.984375 118.867188 119.585938 118.933594 119.1875 C 120.550781 118.300781 122.257812 115.996094 123.195312 113.980469 C 124.042969 112.167969 124.265625 109.730469 123.34375 106.996094 C 126.902344 105.503906 129.269531 103.535156 128.496094 99.734375 C 128.417969 99.679688 127.269531 98.496094 125.390625 98.589844 C 128.945312 96.007812 131.34375 93.0625 129.71875 89.226562 C 129.527344 89.140625 129.363281 89.035156 128.996094 88.925781 C 130.078125 87.574219 131.054688 85.820312 131.671875 84.273438 C 132.550781 82.0625 131.917969 80.25 131.359375 79.238281 C 139.367188 74.582031 136.671875 69.957031 136.71875 69.84375 C 136.5625 69.769531 136.191406 69.492188 135.40625 69.335938 C 137.101562 68.105469 140.464844 64.550781 140.472656 61.535156 C 144.816406 60.46875 148.289062 54.0625 145.394531 50.074219 L 145.203125 49.808594 C 144.726562 49.746094 144.214844 49.65625 143.265625 49.804688 C 143.5625 49.222656 143.855469 48.644531 144.160156 48.058594 C 145.976562 47.539062 147.34375 43.289062 147.847656 41.238281 C 149.546875 41.03125 151.882812 39.089844 153.128906 36.996094 C 154.335938 34.96875 154.074219 32.375 153.191406 30.171875 C 149.695312 29.285156 148.058594 32.175781 146.859375 35.558594 C 146.5 35.109375 146.292969 34.960938 146.082031 34.78125 C 143.730469 35.125 142.308594 36.695312 141.871094 38.894531 C 141.453125 40.996094 141.382812 45.832031 142.703125 47.515625 C 142.171875 48.546875 141.648438 49.570312 141.136719 50.589844 C 139.855469 51.398438 139.320312 52.476562 138.691406 53.859375 C 138.261719 52.550781 137.574219 51.445312 136.742188 50.371094 C 134.347656 50.714844 133.070312 52.292969 132.703125 54.511719 C 132.347656 56.664062 132.3125 60.550781 133.191406 62.507812 C 132.457031 64.21875 131.070312 68.257812 132.273438 69.667969 C 132.234375 69.753906 132.199219 69.84375 132.160156 69.929688 C 130.957031 70.671875 129.78125 72.3125 129.035156 73.503906 C 128.441406 72.6875 127.855469 72.242188 127.199219 71.847656 L 126.917969 71.898438 C 125.808594 72.105469 123.652344 73.277344 123.457031 76.25 C 123.332031 78.183594 123.722656 82.046875 124.855469 84.058594 C 124.453125 86.007812 124.265625 88.222656 124.730469 89.585938 C 124.675781 89.75 124.625 89.914062 124.570312 90.078125 C 124.203125 90.425781 124.0625 90.617188 123.917969 90.800781 C 123.363281 90.09375 122.902344 89.757812 122.410156 89.433594 L 122.125 89.476562 C 121.003906 89.636719 118.808594 90.726562 118.496094 93.6875 C 118.261719 95.917969 118.628906 100.753906 120.148438 102.363281 C 119.742188 102.886719 119.453125 103.304688 119.121094 103.882812 C 118.625 103.378906 118.300781 103.191406 118.105469 103.0625 C 118.035156 103.140625 114.542969 103.257812 114.136719 107.46875 C 112.4375 92.511719 112.59375 77.816406 114.820312 62.375 C 116.246094 52.503906 119.035156 42.941406 120.5625 33.113281 C 115.9375 36.960938 113.636719 42.890625 111.578125 48.367188 C 109.253906 54.558594 106.136719 61.238281 104.722656 67.699219 C 100.960938 84.90625 101.242188 103.132812 106.285156 120.1875 C 97.054688 107.523438 86.3125 95.785156 74.550781 85.445312 C 75.464844 89.980469 76.324219 91.726562 81.820312 100.863281 C 102.054688 134.511719 114.5 146.847656 117.632812 175 C 114.386719 163.867188 108.636719 153.179688 100.941406 144.738281 C 100.515625 144.277344 99.746094 144.484375 99.617188 145.097656 C 99.023438 147.863281 101.492188 156.757812 104.378906 163.726562 C 109.171875 175.292969 116.167969 189.34375 115.976562 211.40625 C 115.800781 212.09375 115.632812 212.78125 115.472656 213.472656 C 110.878906 233.171875 114.15625 251.527344 114.78125 251.855469 C 115.09375 257.6875 115.828125 263.484375 116.996094 269.160156 C 117.066406 269.488281 117.335938 269.734375 117.667969 269.769531 L 119.644531 269.988281 C 119.671875 269.988281 119.699219 269.992188 119.730469 269.992188 C 119.914062 269.992188 120.09375 269.925781 120.234375 269.800781 C 120.394531 269.664062 120.492188 269.460938 120.5 269.246094 C 120.5 269.246094 120.335938 246.433594 121.8125 232.683594 C 135.949219 178.230469 182.332031 174.605469 206.128906 136.710938 C 207.792969 134.058594 208.214844 130.800781 209.085938 127.796875 C 200.285156 137.761719 188.5 146.59375 175.90625 153.273438 C 158.242188 162.648438 149.542969 169.832031 131.953125 197.445312 C 127.914062 203.789062 124.660156 211.019531 122.210938 218.996094 L 123.097656 214.820312 C 131.1875 187.820312 145.566406 169.726562 148.023438 166.765625 C 150.207031 167.792969 154.824219 161.847656 155.273438 159.503906 C 164.402344 157.929688 163.1875 152.785156 163.277344 152.699219 C 163.070312 152.523438 162.894531 152.351562 162.449219 152.070312 C 164.210938 151.535156 167.691406 148.421875 168.449219 147.589844 C 169.820312 147.992188 171.46875 148.160156 172.84375 148.160156 C 173.238281 148.160156 173.609375 148.148438 173.941406 148.121094 C 176.261719 147.945312 177.992188 146.378906 178.785156 144.175781 L 178.710938 143.9375 C 178.398438 142.890625 177.21875 141.0625 174.945312 140.816406 C 175.285156 140.5625 175.621094 140.285156 175.949219 139.992188 C 177.8125 140.832031 181.066406 140.746094 183.0625 140.367188 C 186.53125 139.710938 187.34375 136.296875 187.378906 136.152344 L 187.433594 135.910156 C 187.375 135.808594 186.753906 134.078125 184.902344 133.316406 C 185.21875 133.113281 185.539062 132.894531 185.859375 132.652344 C 187.621094 133.761719 191.332031 133.65625 193.441406 133.253906 C 195.765625 132.804688 197.28125 131.011719 197.800781 128.777344 L 197.703125 128.546875 C 197.292969 127.601562 196.042969 126.050781 193.964844 125.894531 C 194.835938 125.0625 195.800781 124.105469 196.355469 123.039062 C 197.511719 123.179688 199 122.5 200.035156 121.972656 C 201.605469 122.6875 203.527344 123.148438 204.894531 123.300781 C 205.109375 123.324219 205.316406 123.335938 205.515625 123.335938 C 208.617188 123.335938 210.191406 120.65625 210.261719 120.535156 L 210.386719 120.320312 C 210.367188 120.242188 210.351562 118.625 208.953125 117.300781 C 209.09375 117.253906 209.230469 117.207031 209.378906 117.148438 C 209.574219 117.800781 210.023438 118.449219 210.679688 118.980469 C 211.382812 119.546875 212.578125 119.6875 214.539062 119.78125 C 217.167969 119.910156 219.457031 118.703125 221.566406 117.125 C 221.503906 116.957031 222.332031 115.554688 220.816406 114.460938 C 222.96875 114.199219 226.058594 112.457031 225.320312 110.203125 " fill-opacity="1" fill-rule="nonzero"/></g><path fill="#a9a0f0" d="M 179.125 159.480469 C 179.046875 159.539062 154.546875 170.980469 137.449219 194 C 136.695312 195.003906 136.304688 195.527344 136.304688 195.527344 C 136.304688 195.527344 136.753906 195.050781 137.621094 194.144531 C 142.335938 189.050781 149.371094 182.226562 156.585938 176.164062 C 168.03125 166.515625 177.226562 160.804688 179.125 159.480469 " fill-opacity="1" fill-rule="nonzero"/><path fill="#a9a0f0" d="M 106.59375 129.128906 C 126.605469 162.371094 123.347656 186.339844 123.902344 189.421875 C 124.070312 187.277344 124.308594 186.339844 124.386719 180.976562 C 124.386719 175.492188 123.875 167.371094 121.128906 157.585938 C 117.53125 145.328125 112.839844 137.566406 106.59375 129.128906 " fill-opacity="1" fill-rule="nonzero"/></svg>