<svg xmlns="http://www.w3.org/2000/svg" xmlns:xlink="http://www.w3.org/1999/xlink" width="400" zoomAndPan="magnify" viewBox="0 0 300 299.999988" height="400" preserveAspectRatio="xMidYMid meet" version="1.0"><defs><clipPath id="90637759f1"><path d="M 45 30 L 261.988281 30 L 261.988281 270 L 45 270 Z M 45 30 " clip-rule="nonzero"/></clipPath></defs><path fill="#a9a0f0" d="M 134.976562 179.125 C 127.675781 193.328125 121.890625 208.390625 117.785156 223.902344 C 116.101562 230.285156 115.246094 236.914062 115.246094 243.613281 L 115.246094 254.265625 L 122.96875 254.265625 L 122.96875 243.613281 C 122.96875 237.578125 123.734375 231.613281 125.253906 225.882812 C 129.214844 210.90625 134.804688 196.363281 141.851562 182.65625 C 147.292969 172.074219 153.675781 161.863281 160.816406 152.3125 L 154.628906 147.6875 C 147.226562 157.582031 140.617188 168.160156 134.976562 179.125 Z M 134.976562 179.125 " fill-opacity="1" fill-rule="nonzero"/><path fill="#a9a0f0" d="M 76.28125 210.183594 C 68.347656 192.796875 67.882812 176.457031 68.886719 165.808594 L 61.199219 165.082031 C 60.105469 176.667969 60.617188 194.453125 69.253906 213.390625 C 74.816406 225.589844 83.167969 236.730469 93.410156 245.597656 L 98.464844 239.761719 C 89.058594 231.617188 81.386719 221.386719 76.28125 210.183594 Z M 76.28125 210.183594 " fill-opacity="1" fill-rule="nonzero"/><g clip-path="url(#90637759f1)"><path fill="#a9a0f0" d="M 180.890625 269.710938 L 242.679688 269.710938 C 253.324219 269.710938 261.988281 261.050781 261.988281 250.402344 L 261.988281 151.574219 C 261.988281 137.148438 257.753906 123.175781 249.753906 111.171875 C 242.597656 100.441406 238.816406 87.949219 238.816406 75.054688 L 238.816406 72.054688 C 243.300781 70.457031 246.539062 66.210938 246.539062 61.183594 L 246.539062 56.246094 C 248.839844 54.90625 250.402344 52.441406 250.402344 49.597656 L 250.402344 38.011719 C 250.402344 33.753906 246.9375 30.289062 242.679688 30.289062 L 180.890625 30.289062 C 176.632812 30.289062 173.167969 33.753906 173.167969 38.011719 L 173.167969 49.597656 C 173.167969 52.441406 174.734375 54.90625 177.03125 56.246094 L 177.03125 61.183594 C 177.03125 66.210938 180.269531 70.457031 184.753906 72.054688 L 184.753906 75.054688 C 184.753906 87.949219 180.972656 100.441406 173.816406 111.175781 C 170.4375 116.246094 167.773438 121.679688 165.777344 127.335938 C 163.925781 127.683594 162.148438 128.167969 160.445312 128.78125 C 155.808594 84.835938 137.234375 53.457031 115.246094 53.457031 C 92.089844 53.457031 73.167969 87.398438 69.539062 133.824219 C 64.941406 129.242188 60.746094 126.367188 57.75 126.890625 C 55.722656 127.242188 54.164062 128.722656 53.59375 130.84375 C 41.628906 175.148438 43.261719 210.398438 58.457031 235.625 C 72.46875 258.882812 93.1875 265.191406 96.785156 266.136719 C 101.476562 268.492188 106.585938 269.652344 111.675781 269.652344 C 118.808594 269.652344 125.902344 267.375 131.746094 262.914062 C 143.085938 254.265625 151.535156 245.410156 157.582031 235.84375 C 159 233.601562 160.316406 231.398438 161.582031 229.21875 L 161.582031 250.402344 C 161.585938 261.050781 170.246094 269.710938 180.890625 269.710938 Z M 238.816406 165.445312 L 219.507812 165.445312 C 217.375 165.445312 215.648438 167.175781 215.648438 169.308594 L 215.648438 227.234375 C 215.648438 229.363281 217.375 231.09375 219.507812 231.09375 L 238.816406 231.09375 L 238.816406 250.402344 L 184.753906 250.402344 L 184.753906 143.09375 L 198.84375 111.382812 L 224.722656 111.382812 L 238.816406 143.09375 Z M 223.371094 223.371094 L 223.371094 173.167969 L 254.261719 173.167969 L 254.261719 223.371094 Z M 234.957031 65.042969 L 188.617188 65.042969 C 186.484375 65.042969 184.753906 63.308594 184.753906 61.183594 L 184.753906 57.320312 L 238.816406 57.320312 L 238.816406 61.183594 C 238.816406 63.308594 237.085938 65.042969 234.957031 65.042969 Z M 180.890625 38.011719 L 242.679688 38.011719 L 242.683594 49.597656 L 180.890625 49.597656 Z M 169.308594 151.574219 C 169.308594 138.675781 173.089844 126.1875 180.242188 115.453125 C 188.246094 103.453125 192.476562 89.480469 192.476562 75.054688 L 192.476562 72.765625 L 231.09375 72.765625 L 231.09375 75.054688 C 231.09375 89.480469 235.324219 103.453125 243.328125 115.457031 C 250.484375 126.1875 254.261719 138.675781 254.261719 151.574219 L 254.261719 165.445312 L 246.539062 165.445312 L 246.539062 142.277344 C 246.539062 141.734375 246.429688 141.203125 246.207031 140.707031 L 230.761719 105.953125 C 230.140625 104.558594 228.761719 103.660156 227.230469 103.660156 L 196.339844 103.660156 C 194.808594 103.660156 193.429688 104.558594 192.808594 105.953125 L 177.363281 140.707031 C 177.144531 141.203125 177.03125 141.734375 177.03125 142.277344 L 177.03125 254.265625 C 177.03125 256.394531 178.757812 258.125 180.890625 258.125 L 242.679688 258.125 C 244.8125 258.125 246.539062 256.394531 246.539062 254.265625 L 246.539062 231.09375 L 254.261719 231.09375 L 254.261719 250.402344 C 254.261719 256.789062 249.066406 261.988281 242.679688 261.988281 L 180.890625 261.988281 C 174.503906 261.988281 169.308594 256.789062 169.308594 250.402344 Z M 111.617188 198.675781 C 109.101562 193.246094 106.472656 187.902344 103.660156 182.691406 L 103.660156 177.03125 L 120.101562 177.03125 C 116.789062 183.945312 113.953125 191.167969 111.617188 198.675781 Z M 81.550781 107.523438 C 82.203125 104.863281 82.90625 102.285156 83.671875 99.796875 L 97.664062 99.796875 C 96.828125 108.40625 96.394531 116.65625 96.171875 122.96875 L 78.566406 122.96875 C 78.949219 120.339844 79.378906 117.765625 79.863281 115.246094 L 88.210938 115.246094 L 88.210938 107.523438 Z M 106.316406 92.074219 C 108.855469 73.675781 112.667969 62.875 115.246094 61.261719 C 117.820312 62.875 121.632812 73.675781 124.171875 92.074219 L 119.105469 92.074219 L 119.105469 99.796875 L 125.101562 99.796875 C 125.367188 102.257812 125.59375 104.847656 125.800781 107.523438 L 111.382812 107.523438 L 111.382812 115.246094 L 126.308594 115.246094 C 126.441406 117.742188 126.546875 120.316406 126.632812 122.96875 L 103.855469 122.96875 C 104.117188 114.441406 104.65625 106.6875 105.386719 99.796875 L 111.382812 99.796875 L 111.382812 92.074219 Z M 151.949219 122.96875 L 134.3125 122.96875 C 134.230469 120.636719 134.117188 118.03125 133.96875 115.246094 L 150.671875 115.246094 C 151.148438 117.761719 151.574219 120.339844 151.949219 122.96875 Z M 149.015625 107.523438 L 133.484375 107.523438 C 133.296875 105.011719 133.082031 102.421875 132.828125 99.796875 L 146.933594 99.796875 C 147.683594 102.277344 148.371094 104.867188 149.015625 107.523438 Z M 126.828125 134.554688 L 126.828125 138.414062 L 103.660156 138.414062 L 103.660156 134.554688 C 103.660156 133.234375 103.6875 131.980469 103.699219 130.691406 L 126.785156 130.691406 C 126.800781 131.980469 126.828125 133.234375 126.828125 134.554688 Z M 126.828125 146.136719 L 126.828125 153.863281 L 103.660156 153.863281 L 103.660156 146.136719 Z M 95.976562 130.691406 C 95.941406 132.789062 95.9375 134.175781 95.9375 134.554688 L 95.9375 138.414062 L 77.011719 138.414062 C 77.164062 135.804688 77.371094 133.234375 77.628906 130.691406 Z M 95.9375 146.136719 L 95.9375 153.863281 L 85.773438 153.863281 C 83.945312 151.285156 82.03125 148.679688 80.085938 146.136719 Z M 95.9375 161.585938 L 95.9375 169.265625 C 94.328125 166.652344 92.632812 164.128906 90.949219 161.585938 Z M 124.070312 169.308594 L 103.660156 169.308594 L 103.660156 161.585938 L 126.828125 161.585938 L 126.828125 164.433594 C 125.867188 166.027344 124.976562 167.671875 124.070312 169.308594 Z M 134.550781 152.160156 L 134.550781 146.136719 L 138.878906 146.136719 C 137.375 148.089844 135.9375 150.105469 134.550781 152.160156 Z M 145.679688 138.414062 L 134.550781 138.414062 L 134.550781 134.554688 C 134.550781 134.175781 134.546875 132.789062 134.515625 130.691406 L 152.878906 130.691406 C 152.9375 131.285156 153 131.875 153.054688 132.472656 C 150.421875 134.175781 147.96875 136.179688 145.679688 138.414062 Z M 144.292969 92.074219 L 131.964844 92.074219 C 130.699219 82.015625 128.808594 72.144531 126.003906 64.890625 C 133.097656 69.785156 139.445312 79.335938 144.292969 92.074219 Z M 104.484375 64.882812 C 101.675781 72.136719 99.785156 82.011719 98.519531 92.074219 L 86.296875 92.074219 C 91.128906 79.4375 97.433594 69.8125 104.484375 64.882812 Z M 99 258.730469 C 98.792969 258.6875 78.453125 253.855469 65.074219 231.644531 C 51.332031 208.820312 49.71875 176.566406 60.285156 135.742188 C 64.078125 138.78125 71.734375 147.171875 81.179688 160.761719 C 91.746094 175.960938 100.898438 192.65625 108.425781 210.367188 C 105.699219 221.972656 104.054688 234.078125 103.660156 246.542969 L 103.660156 260.621094 C 102.390625 260.199219 101.136719 259.703125 99.925781 259.070312 C 99.636719 258.917969 99.324219 258.800781 99 258.730469 Z M 151.054688 231.71875 C 145.503906 240.492188 137.65625 248.691406 127.0625 256.773438 C 122.5 260.253906 116.953125 261.945312 111.378906 261.882812 L 111.375 246.664062 C 112.296875 217.449219 120.113281 190.0625 133.980469 167.464844 C 141.773438 154.765625 150.472656 140.589844 163.277344 135.96875 C 162.164062 141.058594 161.585938 146.289062 161.585938 151.574219 L 161.585938 212.480469 C 158.875 218.476562 155.347656 224.933594 151.054688 231.71875 Z M 151.054688 231.71875 " fill-opacity="1" fill-rule="nonzero"/></g></svg>