<svg xmlns="http://www.w3.org/2000/svg" xmlns:xlink="http://www.w3.org/1999/xlink" width="400" zoomAndPan="magnify" viewBox="0 0 300 299.999988" height="400" preserveAspectRatio="xMidYMid meet" version="1.0"><defs><clipPath id="c4954a0f96"><path d="M 117.148438 30 L 183 30 L 183 270 L 117.148438 270 Z M 117.148438 30 " clip-rule="nonzero"/></clipPath></defs><g clip-path="url(#c4954a0f96)"><path fill="#a9a0f0" d="M 144.789062 32.796875 C 144.648438 32.679688 144.511719 32.566406 144.375 32.453125 C 144.003906 32.886719 143.636719 33.320312 143.269531 33.75 C 143.421875 33.878906 143.578125 34.007812 143.730469 34.132812 C 144.082031 33.6875 144.433594 33.242188 144.789062 32.796875 Z M 170.53125 33.007812 C 170.363281 32.8125 170.191406 32.613281 170.019531 32.414062 C 169.53125 32.859375 169.042969 33.304688 168.554688 33.75 C 168.695312 33.914062 168.835938 34.074219 168.980469 34.234375 C 169.496094 33.828125 170.015625 33.417969 170.53125 33.007812 Z M 165.496094 33.914062 C 165.765625 34.148438 166.039062 34.382812 166.308594 34.613281 C 166.90625 33.886719 167.503906 33.160156 168.101562 32.429688 C 167.863281 32.210938 167.628906 31.992188 167.394531 31.773438 C 166.761719 32.488281 166.125 33.199219 165.496094 33.914062 Z M 165.292969 31.976562 C 165.023438 31.847656 164.757812 31.710938 164.488281 31.582031 C 164.019531 32.515625 163.546875 33.453125 163.078125 34.386719 C 163.363281 34.53125 163.652344 34.671875 163.941406 34.816406 C 164.390625 33.871094 164.839844 32.921875 165.292969 31.976562 Z M 147.882812 32.335938 C 147.71875 32.109375 147.554688 31.878906 147.390625 31.648438 C 146.679688 32.425781 145.96875 33.203125 145.257812 33.980469 C 147.296875 34.785156 147.167969 33.058594 147.882812 32.335938 Z M 151.535156 31.765625 C 149.386719 31.597656 148.9375 31.972656 148.085938 34.65625 C 150.554688 34.835938 150.726562 34.6875 151.535156 31.765625 Z M 151.65625 34.828125 C 154.34375 34.828125 156.941406 34.671875 159.511719 34.871094 C 162.019531 35.070312 162.367188 33.582031 162.21875 31.476562 C 161.550781 32.25 160.878906 33.023438 160.207031 33.800781 C 160.097656 33.726562 159.984375 33.65625 159.875 33.582031 C 159.957031 32.921875 160.039062 32.261719 160.136719 31.5 C 158.914062 31.5 157.804688 31.675781 156.773438 31.464844 C 154.164062 30.929688 152.417969 31.683594 151.65625 34.828125 Z M 140.035156 41.652344 C 143.5 45.546875 166.394531 45.609375 170.242188 42.015625 C 160.09375 44.4375 150.0625 44.09375 140.035156 41.652344 Z M 167.832031 45.121094 C 163.285156 45.359375 158.570312 45.53125 153.871094 45.878906 C 149.035156 46.230469 144.335938 45.6875 139.484375 43.820312 C 142.429688 49.117188 163.660156 49.652344 167.832031 45.121094 Z M 169.464844 52.84375 C 168.617188 53.097656 168.007812 53.246094 167.421875 53.460938 C 159.132812 56.539062 150.761719 57.164062 142.234375 54.445312 C 141.523438 54.21875 140.640625 54.523438 139.835938 54.582031 C 140.402344 55.222656 140.941406 55.898438 141.558594 56.484375 C 141.796875 56.710938 142.21875 56.765625 142.570312 56.84375 C 149.867188 58.464844 157.152344 58.78125 164.382812 56.546875 C 166.367188 55.933594 168.273438 55.097656 169.464844 52.84375 Z M 170.414062 47.160156 C 166.675781 47.761719 163.207031 48.476562 159.703125 48.84375 C 153.675781 49.476562 147.621094 49.910156 141.78125 47.582031 C 141.582031 47.5 141.335938 47.378906 141.160156 47.433594 C 140.730469 47.566406 140.332031 47.789062 139.917969 47.976562 C 140.148438 48.289062 140.308594 48.75 140.617188 48.894531 C 142.019531 49.539062 143.410156 50.328125 144.898438 50.652344 C 152.378906 52.285156 159.78125 51.671875 167.03125 49.363281 C 168.292969 48.960938 169.339844 47.878906 170.414062 47.160156 Z M 141.179688 35.183594 C 141.0625 36 140.84375 36.917969 140.8125 37.84375 C 140.753906 39.382812 141.382812 40.1875 143.070312 40.660156 C 149.859375 42.550781 156.714844 42.542969 163.648438 41.960938 C 169.625 41.457031 170.664062 40.613281 171.066406 35.3125 C 171.074219 35.191406 170.964844 35.066406 171.015625 35.179688 C 161.089844 36.703125 151.273438 36.480469 141.179688 35.183594 Z M 169.226562 66.148438 C 168.617188 62.777344 168.101562 59.886719 167.570312 56.949219 C 163.789062 59.046875 159.242188 59.523438 154.714844 59.503906 C 150.207031 59.484375 145.703125 58.894531 141.421875 58.574219 C 140.679688 61.027344 139.90625 63.59375 139.015625 66.539062 C 149.152344 68.621094 159.417969 70.113281 169.226562 66.148438 Z M 137.691406 67.609375 C 137.4375 68.882812 137.015625 70.050781 137.003906 71.226562 C 136.96875 75.269531 137.1875 79.316406 137.105469 83.359375 C 137.003906 88.078125 138.25 91.558594 143.75 91.828125 C 144.457031 91.859375 145.140625 92.195312 145.851562 92.28125 C 152.605469 93.125 159.121094 92.125 165.316406 89.386719 C 167.316406 88.503906 169.59375 87.320312 169.84375 84.851562 C 170.363281 79.753906 170.550781 74.621094 170.8125 69.5 C 170.886719 68.070312 170.476562 67.527344 168.714844 67.980469 C 165.25 68.871094 161.6875 69.648438 158.132812 69.863281 C 151.332031 70.277344 144.582031 69.585938 137.691406 67.609375 Z M 137.589844 91.691406 C 137.339844 96.636719 135.355469 100.640625 131.808594 103.738281 C 127.292969 107.679688 124.398438 112.378906 124.039062 118.4375 C 123.511719 127.21875 123.058594 136.003906 122.554688 144.785156 C 122.195312 151.0625 121.613281 157.335938 121.457031 163.617188 C 121.125 176.898438 121.085938 190.15625 120.09375 203.441406 C 119.027344 217.738281 119.457031 232.148438 119.277344 246.511719 C 119.222656 251.039062 120.542969 255.167969 123.054688 258.957031 C 126.019531 263.425781 129.53125 267.515625 135.191406 267.734375 C 144.75 268.097656 154.332031 267.917969 163.898438 267.746094 C 166.566406 267.699219 169.09375 266.648438 170.832031 264.320312 C 172.546875 262.019531 174.324219 259.761719 176.054688 257.472656 C 177.929688 254.984375 179.03125 252.191406 179.148438 249.070312 C 179.25 246.351562 179.101562 243.617188 179.335938 240.914062 C 179.613281 237.765625 180.527344 234.640625 180.574219 231.5 C 180.691406 223.058594 180.515625 214.609375 180.414062 206.167969 C 180.300781 196.371094 180.109375 186.574219 180 176.777344 C 179.945312 171.601562 179.84375 166.414062 180.027344 161.242188 C 180.238281 155.335938 180.9375 149.441406 181.074219 143.53125 C 181.277344 134.503906 181.246094 125.46875 181.175781 116.4375 C 181.15625 113.9375 180.851562 111.398438 180.320312 108.953125 C 179.605469 105.648438 178.746094 102.277344 176.050781 99.917969 C 172.773438 97.046875 170.476562 93.648438 169.726562 89.292969 C 157.757812 94.8125 147.804688 95.5625 137.589844 91.691406 Z M 170.585938 49.769531 C 170.113281 49.773438 169.570312 49.621094 169.183594 49.804688 C 162.257812 53.097656 154.953125 53.292969 147.546875 52.410156 C 145.109375 52.121094 142.710938 51.453125 140.292969 50.957031 C 140.195312 51.117188 140.097656 51.28125 140 51.441406 C 140.421875 51.828125 140.78125 52.40625 141.277344 52.570312 C 143.46875 53.28125 145.664062 54.128906 147.929688 54.46875 C 153.816406 55.351562 159.636719 54.609375 165.265625 52.832031 C 167.175781 52.226562 168.820312 50.796875 170.578125 49.730469 C 170.542969 49.644531 170.511719 49.558594 170.476562 49.472656 C 170.511719 49.570312 170.550781 49.671875 170.585938 49.769531 Z M 156.644531 30 C 160.613281 30.25 164.597656 30.347656 168.542969 30.800781 C 172.0625 31.203125 172.523438 32.128906 172.242188 35.578125 C 172.105469 37.273438 172.40625 39.003906 172.492188 40.71875 C 172.527344 41.433594 172.625 42.171875 172.496094 42.863281 C 171.644531 47.589844 171.890625 52.457031 169.878906 57.054688 C 168.824219 59.464844 169.699219 62.164062 171.183594 64.640625 C 172.0625 66.105469 172.1875 68.1875 172.175781 69.992188 C 172.136719 75.988281 172.042969 81.996094 171.65625 87.976562 C 171.398438 91.929688 173.082031 94.957031 175.765625 97.304688 C 180.648438 101.570312 182.289062 107.210938 182.492188 113.167969 C 182.828125 122.980469 182.613281 132.816406 182.453125 142.640625 C 182.316406 150.863281 181.859375 159.082031 181.667969 167.308594 C 181.523438 173.667969 181.46875 180.03125 181.5625 186.390625 C 181.726562 197.496094 182.238281 208.601562 182.214844 219.707031 C 182.199219 226.984375 181.488281 234.265625 181.128906 241.546875 C 181.0625 242.90625 181.15625 244.277344 181.234375 245.640625 C 181.578125 251.707031 178.96875 256.714844 175.496094 261.359375 C 173.871094 263.535156 172.339844 266.144531 170.113281 267.417969 C 167.550781 268.882812 164.289062 269.625 161.296875 269.734375 C 153.652344 270.023438 145.988281 269.695312 138.328125 269.773438 C 131.128906 269.847656 125.984375 266.378906 122.097656 260.691406 C 120.59375 258.496094 119.277344 256.15625 118.078125 253.78125 C 117.582031 252.796875 117.457031 251.546875 117.445312 250.417969 C 117.382812 245.4375 117.207031 240.445312 117.46875 235.472656 C 118.164062 222.214844 117.617188 208.917969 119.417969 195.671875 C 120.402344 188.414062 119.78125 180.945312 120.039062 173.578125 C 120.355469 164.558594 120.867188 155.542969 121.214844 146.523438 C 121.324219 143.640625 121.035156 140.742188 121.191406 137.867188 C 121.566406 131.15625 122.054688 124.449219 122.582031 117.746094 C 122.984375 112.660156 124.789062 107.996094 128.78125 104.804688 C 135.265625 99.632812 136.332031 92.867188 135.96875 85.234375 C 135.691406 79.34375 136.019531 73.417969 136.171875 67.511719 C 136.195312 66.742188 136.59375 65.796875 137.136719 65.253906 C 139.871094 62.527344 139.988281 59.089844 138.144531 55.804688 C 137.859375 55.300781 137.757812 54.402344 138.019531 53.941406 C 139.035156 52.175781 139.101562 50.476562 138.527344 48.523438 C 138.128906 47.175781 138.347656 45.65625 138.199219 44.222656 C 138.121094 43.445312 137.90625 42.675781 137.65625 41.929688 C 137.273438 40.785156 137.035156 39.804688 138.691406 39.484375 C 139.011719 39.421875 139.421875 38.828125 139.449219 38.457031 C 139.570312 36.746094 139.496094 35.023438 139.65625 33.316406 C 139.707031 32.761719 140.148438 31.902344 140.582031 31.78125 C 142.578125 31.226562 144.621094 30.789062 146.671875 30.496094 C 148.3125 30.257812 149.988281 30.25 151.652344 30.207031 C 153.3125 30.164062 154.976562 30.195312 156.640625 30.195312 C 156.640625 30.132812 156.640625 30.066406 156.644531 30 " fill-opacity="1" fill-rule="nonzero"/></g><path fill="#a9a0f0" d="M 159.613281 159 C 157.832031 161.953125 157.832031 161.953125 159.394531 162.996094 C 159.460938 161.808594 159.523438 160.621094 159.613281 159 Z M 154.535156 160.289062 C 157.4375 159.339844 158.21875 156.949219 159.878906 155.25 C 155.910156 155.082031 155.910156 155.082031 154.535156 160.289062 Z M 161.175781 159.730469 C 160.988281 159.726562 160.804688 159.726562 160.617188 159.726562 C 160.617188 166.890625 160.617188 174.058594 160.617188 181.65625 C 160.839844 180.652344 160.925781 180.019531 161.125 179.429688 C 162.09375 176.539062 161.300781 173.65625 161.203125 170.757812 C 161.085938 167.085938 161.175781 163.40625 161.175781 159.730469 Z M 166.007812 172.085938 C 166.398438 172.011719 166.785156 171.941406 167.175781 171.867188 C 165.707031 167.277344 164.238281 162.691406 162.773438 158.105469 C 162.433594 158.210938 162.09375 158.320312 161.75 158.425781 C 163.167969 162.980469 164.589844 167.53125 166.007812 172.085938 Z M 158.703125 181.742188 C 158.898438 181.722656 159.097656 181.703125 159.289062 181.683594 C 159.289062 176.824219 159.289062 171.964844 159.289062 166.976562 C 156.953125 171.9375 157.351562 176.828125 158.703125 181.742188 Z M 150.96875 152.8125 C 147.738281 151.984375 144.648438 150.835938 142.089844 153.296875 C 139.199219 156.078125 136.953125 159.359375 136.839844 163.652344 C 136.78125 165.808594 137.277344 166.574219 139.464844 166.214844 C 141.84375 165.824219 144.289062 165.207031 146.441406 164.144531 C 149.792969 162.484375 152.929688 160.402344 154.371094 156.601562 C 155.144531 154.558594 154.171875 153.074219 152.496094 153.027344 C 151.601562 154.363281 150.957031 155.496094 150.125 156.464844 C 149.925781 156.699219 148.78125 156.574219 148.644531 156.3125 C 148.355469 155.757812 148.371094 155.003906 148.414062 154.339844 C 148.429688 154.125 148.90625 153.9375 149.171875 153.738281 C 149.398438 154.246094 149.621094 154.753906 150.039062 155.707031 C 150.410156 154.554688 150.667969 153.746094 150.96875 152.8125 Z M 158.074219 166.117188 C 158.203125 163.316406 154.800781 160.550781 153 161.566406 C 151.511719 162.40625 150.035156 163.421875 148.859375 164.652344 C 144.917969 168.78125 144.019531 174.199219 143.070312 179.519531 C 142.875 180.605469 143.269531 182.476562 144 182.871094 C 144.792969 183.300781 146.648438 182.816406 147.417969 182.078125 C 149.960938 179.636719 152.410156 177.050781 154.527344 174.242188 C 156.421875 171.730469 158.128906 168.964844 158.074219 166.117188 Z M 165.9375 176.164062 C 165.957031 176.128906 165.980469 176.09375 166 176.058594 C 165.953125 176.085938 165.902344 176.113281 165.851562 176.140625 C 165.226562 173.84375 164.601562 171.546875 163.976562 169.25 C 163.683594 169.316406 163.390625 169.382812 163.097656 169.449219 C 163.292969 170.582031 163.292969 171.800781 163.738281 172.820312 C 164.269531 174.027344 165.191406 175.0625 165.9375 176.164062 Z M 164.964844 177.460938 C 165 177.441406 165.035156 177.421875 165.070312 177.402344 C 165.019531 177.410156 164.96875 177.417969 164.914062 177.425781 C 164.523438 176.222656 164.136719 175.015625 163.746094 173.8125 C 163.460938 173.945312 163.179688 174.074219 162.894531 174.207031 C 163.585938 175.292969 164.277344 176.382812 164.964844 177.460938 Z M 162.726562 177.234375 C 161.714844 181.1875 160.707031 185.144531 159.699219 189.097656 C 159.394531 189.058594 159.09375 189.023438 158.789062 188.988281 C 157.929688 184.09375 157.074219 179.199219 156.210938 174.304688 C 154.558594 176.273438 152.96875 178.378906 151.15625 180.265625 C 149.828125 181.644531 148.332031 182.984375 146.660156 183.878906 C 145.628906 184.429688 143.722656 184.636719 142.953125 184.039062 C 142.054688 183.335938 141.378906 181.464844 141.628906 180.324219 C 142.691406 175.488281 144.132812 170.730469 145.371094 166.167969 C 143.921875 166.519531 142.027344 167.183594 140.082031 167.410156 C 136.234375 167.855469 135.035156 166.46875 135.578125 162.71875 C 136.179688 158.578125 138.234375 155.144531 141.304688 152.554688 C 142.664062 151.40625 145.039062 150.828125 146.863281 150.996094 C 150.617188 151.328125 154.296875 152.445312 158.039062 153.023438 C 159.589844 153.261719 161.460938 153.417969 161.828125 151.003906 C 161.882812 150.652344 162.441406 150.378906 162.765625 150.066406 C 162.984375 150.398438 163.445312 150.773438 163.390625 151.050781 C 162.046875 157.976562 166.613281 163.554688 167.714844 169.929688 C 168.335938 173.523438 168.515625 176.941406 167.371094 180.382812 C 167.210938 180.863281 166.753906 181.246094 166.433594 181.671875 C 165.988281 181.285156 165.414062 180.972656 165.125 180.492188 C 164.425781 179.324219 163.863281 178.078125 163.242188 176.863281 C 163.070312 176.988281 162.894531 177.109375 162.726562 177.234375 " fill-opacity="1" fill-rule="nonzero"/><path fill="#a9a0f0" d="M 175.71875 233.117188 C 175.53125 231.8125 175.175781 230.503906 175.179688 229.199219 C 175.199219 219.800781 175.246094 210.40625 175.371094 201.011719 C 175.503906 190.96875 175.703125 180.929688 175.921875 170.894531 C 176.167969 159.414062 176.578125 147.941406 176.703125 136.460938 C 176.769531 130.324219 176.378906 124.179688 176.199219 118.039062 C 176.1875 117.648438 176.195312 117.253906 176.195312 116.863281 C 176.394531 116.804688 176.589844 116.746094 176.789062 116.6875 C 176.976562 117.082031 177.320312 117.476562 177.324219 117.875 C 177.375 126.828125 177.4375 135.777344 177.390625 144.730469 C 177.347656 153.328125 177.199219 161.929688 177.058594 170.527344 C 176.902344 179.917969 176.621094 189.3125 176.539062 198.703125 C 176.449219 208.464844 176.53125 218.226562 176.539062 227.984375 C 176.539062 229.671875 176.539062 231.359375 176.539062 233.046875 C 176.265625 233.070312 175.992188 233.09375 175.71875 233.117188 " fill-opacity="1" fill-rule="nonzero"/><path fill="#a9a0f0" d="M 127.9375 131.019531 C 127.546875 162.777344 127.152344 194.539062 126.761719 226.296875 C 126.5 226.347656 126.234375 226.402344 125.972656 226.453125 C 125.75 225.421875 125.316406 224.382812 125.34375 223.359375 C 125.507812 217.792969 125.851562 212.234375 126.007812 206.667969 C 126.21875 199.089844 126.441406 191.507812 126.4375 183.925781 C 126.429688 173.226562 126.113281 162.53125 126.128906 151.832031 C 126.144531 145.410156 126.53125 138.988281 126.792969 132.566406 C 126.820312 131.972656 127.148438 131.394531 127.332031 130.808594 C 127.535156 130.878906 127.738281 130.949219 127.9375 131.019531 " fill-opacity="1" fill-rule="nonzero"/><path fill="#a9a0f0" d="M 146.511719 222.433594 C 146.5 222.210938 146.488281 221.988281 146.472656 221.765625 C 144.015625 220.503906 141.871094 221.578125 139.769531 223.035156 C 142.015625 222.832031 144.265625 222.632812 146.511719 222.433594 Z M 152.894531 222.535156 C 152.917969 222.769531 152.9375 223.007812 152.960938 223.242188 C 156.070312 223.476562 159.179688 223.714844 162.289062 223.949219 C 162.304688 223.726562 162.324219 223.503906 162.339844 223.28125 C 159.277344 222.105469 156.152344 221.589844 152.894531 222.535156 Z M 167.214844 222.664062 C 166.238281 223.339844 165.3125 224.492188 164.277344 224.605469 C 161.535156 224.898438 158.703125 225.0625 155.988281 224.699219 C 151.789062 224.136719 147.691406 223.4375 143.375 223.980469 C 140.078125 224.394531 136.660156 223.878906 133.300781 223.730469 C 133.050781 223.71875 132.652344 223.320312 132.628906 223.070312 C 132.601562 222.804688 132.890625 222.3125 133.128906 222.25 C 137.195312 221.152344 141.28125 218.5 145.425781 219.832031 C 149.828125 221.242188 153.984375 219.941406 158.21875 220.289062 C 161.121094 220.53125 163.988281 221.152344 166.867188 221.609375 C 166.984375 221.957031 167.097656 222.3125 167.214844 222.664062 " fill-opacity="1" fill-rule="nonzero"/><path fill="#a9a0f0" d="M 124.023438 251.664062 C 124.460938 252.164062 124.960938 252.628906 125.328125 253.175781 C 127.539062 256.484375 130.101562 259.625 134.109375 260.46875 C 144.972656 262.75 155.753906 262.710938 166.164062 258.132812 C 169.007812 256.882812 170.710938 254.714844 171.683594 251.816406 C 171.890625 251.210938 172.597656 250.773438 173.074219 250.253906 C 173.136719 250.925781 173.402344 251.660156 173.222656 252.261719 C 171.328125 258.671875 165.925781 260.679688 160.292969 261.984375 C 151.890625 263.9375 143.386719 263.796875 134.878906 262.414062 C 130.015625 261.625 124.433594 256.660156 123.550781 252.089844 C 123.710938 251.945312 123.867188 251.804688 124.023438 251.664062 " fill-opacity="1" fill-rule="nonzero"/><path fill="#a9a0f0" d="M 170.875 200.792969 C 170.273438 178.878906 171.285156 157.015625 172.789062 135.167969 C 172.96875 135.171875 173.144531 135.175781 173.324219 135.183594 C 172.691406 157.054688 172.0625 178.925781 171.433594 200.792969 C 171.25 200.792969 171.0625 200.792969 170.875 200.792969 " fill-opacity="1" fill-rule="nonzero"/><path fill="#a9a0f0" d="M 147.867188 205.199219 C 145.695312 207.1875 145.546875 212.875 147.605469 215.386719 C 150.074219 212.980469 150.226562 207.101562 147.867188 205.199219 Z M 151.171875 209.421875 C 150.636719 211.480469 150.332031 213.640625 149.457031 215.542969 C 149.078125 216.367188 147.515625 217.054688 146.5 217.039062 C 145.777344 217.03125 144.628906 215.84375 144.4375 215.007812 C 143.761719 212.003906 143.324219 208.957031 144.800781 205.953125 C 145.554688 204.421875 146.609375 203.289062 148.21875 203.625 C 149.855469 203.96875 150.808594 205.351562 150.816406 207.164062 C 150.820312 207.882812 150.816406 208.601562 150.816406 209.320312 C 150.9375 209.355469 151.054688 209.386719 151.171875 209.421875 " fill-opacity="1" fill-rule="nonzero"/><path fill="#a9a0f0" d="M 157.765625 107.886719 C 157.007812 108.234375 156.253906 108.878906 155.492188 108.890625 C 148.347656 109.011719 141.972656 111.300781 136.710938 116.050781 C 134.082031 118.425781 132.078125 121.484375 129.78125 124.226562 C 129.457031 124.609375 129.078125 124.945312 128.59375 125.167969 C 130.746094 117.132812 141.96875 107.261719 157.363281 107.214844 C 157.496094 107.441406 157.628906 107.664062 157.765625 107.886719 " fill-opacity="1" fill-rule="nonzero"/><path fill="#a9a0f0" d="M 140.398438 200.335938 C 141.113281 199.675781 141.628906 199.394531 141.859375 198.964844 C 143.582031 195.742188 144.007812 192.265625 143.503906 188.699219 C 143.421875 188.117188 142.519531 187.648438 141.714844 186.847656 C 140.589844 191.488281 139.230469 195.457031 140.398438 200.335938 Z M 138.03125 195.839844 C 138.335938 193.726562 138.613281 191.222656 139.085938 188.753906 C 139.390625 187.15625 140.453125 185.816406 142.121094 185.84375 C 143.863281 185.871094 144.730469 187.367188 144.84375 188.984375 C 145.105469 192.683594 144.792969 196.363281 142.902344 199.636719 C 142.394531 200.515625 141.011719 201.382812 140.0625 201.347656 C 139.414062 201.324219 138.664062 199.792969 138.257812 198.8125 C 137.949219 198.054688 138.105469 197.105469 138.03125 195.839844 " fill-opacity="1" fill-rule="nonzero"/><path fill="#a9a0f0" d="M 132.308594 203.679688 C 130.851562 201.03125 130.039062 162.414062 131.445312 160.945312 C 130.09375 175.050781 133.957031 189.015625 132.308594 203.679688 " fill-opacity="1" fill-rule="nonzero"/><path fill="#a9a0f0" d="M 168.65625 189.035156 C 168.015625 188.773438 167.371094 188.507812 166.347656 188.085938 C 166.0625 190.03125 165.800781 191.8125 165.496094 193.855469 C 166.414062 193.550781 166.984375 193.363281 167.835938 193.078125 C 167.835938 194.136719 167.835938 194.976562 167.835938 195.855469 C 164.886719 195.304688 164.84375 195.347656 164.46875 199.648438 C 165.671875 199.0625 166.625 198.597656 167.566406 198.140625 C 168.390625 200.546875 168.03125 201.066406 165.835938 200.761719 C 164.6875 200.601562 163.53125 200.523438 162.375 200.410156 C 162.609375 199.234375 162.851562 198.0625 163.074219 196.886719 C 163.601562 194.046875 164.113281 191.207031 164.648438 188.371094 C 164.867188 187.191406 166.847656 186.074219 168.25 186.609375 C 168.789062 186.8125 168.984375 187.914062 169.335938 188.609375 C 169.109375 188.75 168.882812 188.894531 168.65625 189.035156 " fill-opacity="1" fill-rule="nonzero"/><path fill="#a9a0f0" d="M 159.292969 216.953125 C 160.730469 216.789062 162.4375 218.03125 162.246094 215.496094 C 162.230469 215.292969 162.742188 214.839844 162.949219 214.871094 C 163.289062 214.925781 163.796875 215.238281 163.855469 215.519531 C 164.070312 216.554688 164.128906 217.621094 164.277344 218.945312 C 162.101562 218.816406 160.1875 218.777344 158.304688 218.515625 C 157.972656 218.472656 157.503906 217.492188 157.550781 216.984375 C 157.847656 213.679688 158.28125 210.390625 158.640625 207.09375 C 158.691406 206.605469 158.566406 206.101562 158.535156 205.601562 C 158.5 205.03125 158.476562 204.464844 158.445312 203.894531 C 159.285156 203.914062 160.132812 203.878906 160.957031 204.003906 C 161.097656 204.023438 161.316406 204.984375 161.199219 205.058594 C 159.445312 206.214844 160.085938 208.039062 159.90625 209.601562 C 159.636719 211.945312 159.507812 214.3125 159.292969 216.953125 " fill-opacity="1" fill-rule="nonzero"/><path fill="#a9a0f0" d="M 137.085938 256.496094 C 144.828125 255.59375 152.839844 258.121094 160.394531 254.519531 C 159.640625 256.570312 158.210938 257.421875 156.394531 257.484375 C 151.710938 257.640625 147.019531 257.710938 142.332031 257.789062 C 141.035156 257.8125 139.730469 257.773438 138.4375 257.683594 C 137.921875 257.648438 137.417969 257.390625 136.910156 257.234375 C 136.96875 256.988281 137.027344 256.742188 137.085938 256.496094 " fill-opacity="1" fill-rule="nonzero"/><path fill="#a9a0f0" d="M 159.261719 196.375 C 160.210938 193.90625 161.125 191.421875 162.136719 188.980469 C 162.324219 188.519531 162.894531 188.21875 163.292969 187.851562 C 163.355469 188.410156 163.617188 189.035156 163.457031 189.519531 C 162.398438 192.792969 161.304688 196.058594 160.082031 199.273438 C 159.855469 199.867188 159.011719 200.230469 158.457031 200.703125 C 158.167969 200.144531 157.6875 199.605469 157.628906 199.023438 C 157.390625 196.738281 157.25 194.441406 157.136719 192.144531 C 157.007812 189.496094 157.054688 189.476562 159.433594 189.929688 C 159.117188 192.035156 158.804688 194.128906 158.492188 196.222656 C 158.746094 196.273438 159.007812 196.324219 159.261719 196.375 " fill-opacity="1" fill-rule="nonzero"/><path fill="#a9a0f0" d="M 146.199219 186.476562 C 147.101562 186.316406 147.957031 186.089844 148.816406 186.070312 C 149.03125 186.066406 149.507812 186.800781 149.441406 187.101562 C 148.507812 191.160156 147.5 195.199219 146.511719 199.25 C 146.796875 199.472656 147.085938 199.695312 147.371094 199.917969 C 148.21875 199.457031 149.066406 198.992188 149.914062 198.53125 C 151.476562 198.285156 150.992188 199.628906 150.761719 200.523438 C 150.652344 200.933594 149.667969 201.382812 149.101562 201.359375 C 147.746094 201.292969 145.847656 201.394531 145.222656 200.601562 C 144.660156 199.886719 145.5 198.066406 145.71875 196.738281 C 146.160156 194.117188 146.664062 191.503906 146.988281 188.871094 C 147.066406 188.214844 146.550781 187.488281 146.199219 186.476562 " fill-opacity="1" fill-rule="nonzero"/><path fill="#a9a0f0" d="M 166.164062 95.292969 C 165.671875 95.6875 165.222656 96.359375 164.6875 96.4375 C 160.714844 97.011719 156.734375 97.738281 152.738281 97.863281 C 149.746094 97.957031 146.722656 97.261719 143.726562 96.8125 C 143.1875 96.734375 142.722656 96.15625 142.21875 95.808594 C 142.828125 95.671875 143.488281 95.308594 144.03125 95.441406 C 149.953125 96.855469 155.910156 96.949219 161.882812 95.929688 C 163.207031 95.703125 164.460938 95.058594 165.746094 94.609375 C 165.882812 94.835938 166.023438 95.066406 166.164062 95.292969 " fill-opacity="1" fill-rule="nonzero"/><path fill="#a9a0f0" d="M 155.375 217.832031 C 154.320312 217.832031 153.277344 217.890625 152.25 217.777344 C 152.082031 217.757812 151.808594 216.960938 151.894531 216.597656 C 152.1875 215.367188 152.789062 214.191406 152.964844 212.953125 C 153.246094 211.03125 153.363281 209.070312 153.363281 207.125 C 153.363281 206.324219 152.867188 205.527344 152.617188 204.71875 C 152.519531 204.40625 152.332031 203.882812 152.449219 203.792969 C 152.730469 203.574219 153.207031 203.398438 153.535156 203.480469 C 154.414062 203.699219 155.257812 204.0625 155.765625 204.246094 C 154.460938 208.699219 154.007812 212.941406 155.375 217.832031 " fill-opacity="1" fill-rule="nonzero"/><path fill="#a9a0f0" d="M 152.347656 187.75 C 153.390625 187.503906 154.0625 187.265625 154.75 187.199219 C 156.253906 187.054688 156.4375 187.519531 156.054688 189.078125 C 155.261719 192.324219 154.828125 195.667969 154.441406 198.996094 C 154.347656 199.824219 155.832031 200.898438 154 201.394531 C 153.578125 201.511719 152.945312 201.53125 152.660156 201.292969 C 152.386719 201.0625 152.292969 200.421875 152.363281 200 C 152.878906 196.902344 153.484375 193.820312 153.976562 190.71875 C 154.035156 190.347656 153.582031 189.886719 153.351562 189.472656 C 153.070312 188.96875 152.769531 188.472656 152.347656 187.75 " fill-opacity="1" fill-rule="nonzero"/><path fill="#a9a0f0" d="M 155.78125 101.148438 C 152.316406 100.976562 149.742188 100.878906 147.175781 100.6875 C 146.832031 100.660156 146.527344 100.175781 146.203125 99.902344 C 146.558594 99.644531 146.914062 99.175781 147.273438 99.171875 C 148.34375 99.160156 149.421875 99.460938 150.484375 99.410156 C 154.339844 99.226562 158.183594 98.933594 162.035156 98.71875 C 162.515625 98.6875 163.007812 98.882812 163.492188 98.976562 C 163.175781 99.371094 162.914062 100.050781 162.539062 100.117188 C 160.011719 100.574219 157.457031 100.902344 155.78125 101.148438 " fill-opacity="1" fill-rule="nonzero"/><path fill="#a9a0f0" d="M 144.417969 105.460938 C 143.832031 105.96875 143.488281 106.496094 143.027344 106.632812 C 137.753906 108.210938 133.511719 111.007812 131.15625 116.210938 C 131.011719 116.523438 130.394531 116.628906 130 116.828125 C 129.917969 116.40625 129.644531 115.890625 129.792969 115.582031 C 132.601562 109.851562 137.652344 107 143.410156 105.085938 C 143.5625 105.035156 143.792969 105.21875 144.417969 105.460938 " fill-opacity="1" fill-rule="nonzero"/><path fill="#a9a0f0" d="M 177.316406 111.941406 C 177.089844 112.179688 176.765625 112.785156 176.472656 112.769531 C 176.109375 112.75 175.605469 112.285156 175.453125 111.898438 C 175.007812 110.769531 174.886719 109.480469 174.300781 108.449219 C 173.554688 107.128906 172.457031 106.015625 171.550781 104.777344 C 171.277344 104.402344 171.136719 103.925781 170.9375 103.492188 C 171.449219 103.464844 172.050781 103.238281 172.453125 103.429688 C 174.960938 104.625 175.65625 107.144531 176.640625 109.425781 C 176.949219 110.140625 177.058594 110.945312 177.316406 111.941406 " fill-opacity="1" fill-rule="nonzero"/><path fill="#a9a0f0" d="M 140.226562 87.882812 C 139.945312 86.871094 139.46875 85.871094 139.421875 84.847656 C 139.226562 80.675781 139.152344 76.496094 139.082031 72.320312 C 139.078125 71.921875 139.433594 71.515625 139.621094 71.109375 C 139.894531 71.425781 140.386719 71.726562 140.40625 72.058594 C 140.722656 77.082031 140.980469 82.113281 141.230469 87.140625 C 141.238281 87.316406 141.050781 87.503906 140.957031 87.683594 C 140.714844 87.75 140.472656 87.820312 140.226562 87.882812 " fill-opacity="1" fill-rule="nonzero"/><path fill="#a9a0f0" d="M 166.886719 70.351562 C 167.148438 71.207031 167.429688 71.699219 167.429688 72.1875 C 167.4375 76.421875 167.414062 80.660156 167.339844 84.894531 C 167.332031 85.292969 166.957031 85.683594 166.75 86.078125 C 166.476562 85.675781 165.964844 85.277344 165.960938 84.875 C 165.941406 80.421875 165.996094 75.96875 166.070312 71.515625 C 166.074219 71.25 166.425781 70.988281 166.886719 70.351562 " fill-opacity="1" fill-rule="nonzero"/><path fill="#a9a0f0" d="M 164.542969 83.480469 C 164 82.703125 163.519531 82.324219 163.476562 81.898438 C 163.273438 79.832031 163.148438 77.753906 163.089844 75.675781 C 163.078125 75.3125 163.519531 74.9375 163.75 74.566406 C 164.011719 74.921875 164.5 75.265625 164.507812 75.628906 C 164.578125 77.984375 164.542969 80.34375 164.542969 83.480469 " fill-opacity="1" fill-rule="nonzero"/><path fill="#a9a0f0" d="M 143.726562 83.5625 C 142.21875 82.011719 142.046875 78.496094 143.421875 76.734375 C 143.515625 78.824219 143.609375 80.917969 143.726562 83.5625 " fill-opacity="1" fill-rule="nonzero"/><path fill="#a9a0f0" d="M 143.488281 61.121094 C 144.019531 61.09375 144.578125 60.957031 145.085938 61.058594 C 150.226562 62.074219 155.359375 62.40625 160.515625 61.152344 C 161.003906 61.035156 161.585938 61.289062 162.121094 61.371094 C 161.703125 61.773438 161.320312 62.484375 160.867188 62.53125 C 158.152344 62.808594 155.414062 63.121094 152.695312 63.066406 C 149.976562 63.007812 147.265625 62.550781 144.554688 62.226562 C 144.179688 62.179688 143.828125 61.898438 143.46875 61.726562 C 143.476562 61.523438 143.480469 61.320312 143.488281 61.121094 " fill-opacity="1" fill-rule="nonzero"/><path fill="#a9a0f0" d="M 148.796875 64.429688 C 151.203125 64.429688 153.609375 64.429688 156.179688 64.429688 C 154.980469 65.8125 150.257812 66.027344 148.796875 64.429688 " fill-opacity="1" fill-rule="nonzero"/><path fill="#a9a0f0" d="M 150.199219 39.207031 C 149.582031 39.316406 148.945312 39.574219 148.351562 39.503906 C 146.570312 39.285156 144.796875 38.96875 143.035156 38.613281 C 142.683594 38.542969 142.210938 38.164062 142.152344 37.859375 C 142.105469 37.605469 142.632812 36.953125 142.824219 36.984375 C 145.308594 37.398438 147.777344 37.902344 150.253906 38.386719 C 150.238281 38.660156 150.21875 38.933594 150.199219 39.207031 " fill-opacity="1" fill-rule="nonzero"/><path fill="#a9a0f0" d="M 161.183594 38.664062 C 164.011719 38.089844 166.359375 37.613281 168.773438 37.125 C 168.585938 39.144531 163.980469 40.242188 161.183594 38.664062 " fill-opacity="1" fill-rule="nonzero"/><path fill="#a9a0f0" d="M 150.527344 167.285156 C 150.355469 166.746094 149.867188 165.957031 150.066406 165.707031 C 150.894531 164.660156 151.921875 163.765625 152.925781 162.875 C 152.957031 162.851562 153.929688 163.710938 153.875 163.804688 C 153.226562 164.867188 152.46875 165.867188 151.738281 166.878906 C 151.335938 167.015625 150.929688 167.148438 150.527344 167.285156 " fill-opacity="1" fill-rule="nonzero"/><path fill="#a9a0f0" d="M 149.289062 167.109375 C 149.855469 167.933594 150.464844 168.488281 150.359375 168.722656 C 150.039062 169.441406 149.445312 170.035156 148.957031 170.675781 C 148.582031 170.332031 147.832031 169.867188 147.894531 169.65625 C 148.125 168.90625 148.636719 168.238281 149.289062 167.109375 " fill-opacity="1" fill-rule="nonzero"/><path fill="#a9a0f0" d="M 143.507812 156.332031 C 143.730469 156.480469 143.957031 156.628906 144.179688 156.777344 C 144.597656 156.15625 145.015625 155.535156 145.433594 154.917969 C 145.234375 154.78125 145.03125 154.644531 144.828125 154.507812 C 144.390625 155.113281 143.949219 155.722656 143.507812 156.332031 Z M 142.242188 156.714844 C 142.597656 154.742188 143.34375 153.574219 144.953125 153.648438 C 145.539062 153.675781 146.082031 154.632812 146.640625 155.167969 C 145.636719 156.074219 144.667969 157.035156 143.570312 157.808594 C 143.429688 157.90625 142.59375 157.011719 142.242188 156.714844 " fill-opacity="1" fill-rule="nonzero"/></svg>