<svg xmlns="http://www.w3.org/2000/svg" xmlns:xlink="http://www.w3.org/1999/xlink" width="400" zoomAndPan="magnify" viewBox="0 0 300 299.999988" height="400" preserveAspectRatio="xMidYMid meet" version="1.0"><path fill="#a9a0f0" d="M 250.867188 127.3125 C 241.226562 117.421875 220.410156 112.789062 204.078125 110.628906 C 203.074219 101.949219 202.175781 95.269531 201.398438 91.953125 C 196.992188 73.101562 180.894531 60.722656 156.0625 57.105469 C 141.226562 54.941406 126.667969 57.085938 116.578125 59.449219 L 116.578125 31.90625 C 116.578125 30.851562 115.726562 30 114.675781 30 C 113.625 30 112.769531 30.851562 112.769531 31.90625 L 112.769531 60.398438 C 107.089844 61.914062 103.492188 63.289062 103.101562 63.441406 C 102.125 63.824219 101.640625 64.929688 102.019531 65.90625 C 102.402344 66.886719 103.507812 67.371094 104.488281 66.992188 C 104.742188 66.894531 130.140625 57.175781 155.511719 60.875 C 179.019531 64.300781 193.601562 75.347656 197.6875 92.820312 C 199.113281 98.917969 201.035156 117.332031 203.265625 138.65625 C 203.511719 141.039062 203.769531 143.460938 204.027344 145.90625 L 177.820312 155.660156 C 176.234375 152.585938 172.125 146.269531 164.035156 143.328125 C 163.941406 143.289062 163.835938 143.257812 163.734375 143.21875 C 165.070312 140.253906 167.035156 134.601562 165.796875 129.109375 C 164.445312 123.109375 160.019531 119.269531 157.875 117.71875 C 158.582031 114.027344 159.941406 103.703125 154.257812 98.21875 C 148.882812 93.023438 140.75 92.984375 137.46875 93.214844 C 135.855469 90.046875 131.054688 82.28125 122.863281 82.28125 C 114.792969 82.28125 109.398438 89.105469 107.539062 91.875 C 104.816406 91.578125 98.492188 91.417969 93.441406 95.34375 C 88.980469 98.808594 87.816406 105.132812 87.539062 109.015625 C 82.734375 106.691406 72.597656 103.175781 61.765625 107.863281 C 54.984375 110.789062 49.167969 117.625 45.8125 126.613281 C 43.054688 133.992188 42.378906 141.695312 43.917969 147.296875 C 42.503906 147.949219 40.386719 149.070312 38.25 150.722656 C 34.234375 110.550781 34.125 96.757812 34.769531 92.304688 C 37.617188 72.457031 52.90625 67.804688 53.550781 67.617188 C 54.367188 67.386719 54.9375 66.636719 54.9375 65.785156 L 54.9375 31.90625 C 54.9375 30.851562 54.082031 30 53.03125 30 C 51.980469 30 51.125 30.851562 51.125 31.90625 L 51.125 64.4375 C 46.785156 66.144531 33.726562 72.78125 30.996094 91.761719 C 30.003906 98.6875 31.265625 119.632812 34.753906 154.015625 C 32.253906 156.910156 30.3125 160.734375 30.3125 165.644531 C 30.3125 172.972656 33.863281 177.449219 37.089844 180 C 35.359375 185.027344 30.386719 202.308594 38.675781 214.265625 C 39.679688 215.722656 40.789062 217.027344 41.960938 218.195312 C 45.335938 246.230469 48.210938 268.125 48.242188 268.34375 C 48.363281 269.300781 49.183594 270 50.125 270 C 50.207031 270 50.292969 269.996094 50.375 269.984375 C 51.417969 269.847656 52.15625 268.890625 52.015625 267.847656 C 51.988281 267.636719 49.382812 247.789062 46.222656 221.703125 C 50.835938 224.855469 55.855469 226.503906 59.859375 227.363281 C 58.011719 228.742188 56.410156 230.761719 55.9375 233.71875 C 54.925781 240.003906 60.132812 244.570312 62.484375 246.289062 C 62.0625 249.453125 61.535156 257.609375 66.496094 261.503906 C 68.828125 263.332031 72.722656 264.128906 76.984375 264.128906 C 83.960938 264.128906 91.929688 262 95.679688 258.808594 C 99.320312 255.703125 100.875 250.523438 101.539062 246.613281 C 105.875 252.296875 110.660156 257.132812 115.664062 260.808594 C 122.226562 265.625 128.660156 268.085938 134.4375 268.085938 C 137.242188 268.085938 139.894531 267.503906 142.328125 266.332031 C 151.769531 261.777344 156.125 249.277344 154.210938 232.613281 C 156.183594 233.015625 158.308594 233.300781 160.558594 233.398438 C 162.296875 246.777344 166.851562 258.8125 174.117188 269.1875 C 174.488281 269.71875 175.078125 270 175.679688 270 C 176.054688 270 176.4375 269.890625 176.769531 269.65625 C 177.632812 269.050781 177.839844 267.867188 177.234375 267.003906 C 170.410156 257.257812 166.101562 245.957031 164.398438 233.382812 C 167.507812 233.214844 170.789062 232.667969 174.167969 231.546875 C 185.789062 227.703125 192.964844 219.9375 199.292969 213.085938 C 202.480469 209.636719 205.484375 206.386719 208.535156 204.347656 C 209.222656 203.894531 209.960938 203.453125 210.734375 203.019531 C 212.925781 218.304688 214.960938 228.355469 216.941406 233.699219 C 225.214844 256.015625 239.292969 268.964844 239.886719 269.503906 C 240.253906 269.839844 240.710938 270 241.167969 270 C 241.6875 270 242.203125 269.789062 242.578125 269.375 C 243.289062 268.601562 243.230469 267.394531 242.449219 266.6875 C 242.3125 266.558594 228.449219 253.777344 220.511719 232.375 C 218.570312 227.136719 216.546875 216.929688 214.328125 201.191406 C 216.160156 200.324219 218.144531 199.453125 220.273438 198.523438 C 228.8125 194.800781 239.441406 190.167969 247.90625 181.507812 C 254.757812 174.507812 259.316406 165.105469 260.410156 155.714844 C 261.296875 148.132812 260.359375 137.050781 250.867188 127.3125 Z M 95.773438 98.351562 C 100.859375 94.40625 108.039062 95.789062 108.105469 95.804688 C 108.921875 95.972656 109.746094 95.589844 110.15625 94.871094 C 110.203125 94.785156 115.203125 86.089844 122.863281 86.089844 C 130.375 86.089844 134.515625 95.871094 134.558594 95.964844 C 134.894531 96.78125 135.734375 97.261719 136.601562 97.128906 C 136.699219 97.113281 146.226562 95.753906 151.617188 100.957031 C 156.867188 106.035156 153.921875 117.996094 153.894531 118.109375 C 153.683594 118.933594 154.050781 119.800781 154.785156 120.230469 C 154.839844 120.261719 160.683594 123.746094 162.078125 129.941406 C 163.140625 134.648438 161.136719 139.796875 160.035156 142.128906 C 157.882812 141.574219 155.40625 141.058594 152.773438 140.570312 C 152.601562 136.808594 151.675781 127.480469 146.660156 122.210938 C 141.601562 116.890625 132.328125 116.3125 128.535156 116.3125 C 128.496094 116.3125 128.464844 116.3125 128.429688 116.3125 C 127.355469 113.203125 123.828125 106.632812 112.917969 104.222656 C 103.484375 102.136719 95.621094 105.738281 91.417969 108.382812 C 91.777344 104.976562 92.902344 100.585938 95.773438 98.351562 Z M 41.800781 212.101562 C 35.027344 202.308594 38.6875 187.585938 40.40625 182.136719 C 43.753906 183.882812 47.667969 184.855469 51.554688 184.855469 C 57.265625 184.855469 60.734375 183.269531 63.519531 182 C 64.988281 181.328125 66.253906 180.753906 67.65625 180.457031 C 71.746094 179.601562 76.578125 180.558594 76.621094 180.566406 C 77.65625 180.777344 78.660156 180.113281 78.867188 179.082031 C 79.078125 178.050781 78.417969 177.042969 77.382812 176.832031 C 77.15625 176.785156 71.746094 175.703125 66.867188 176.730469 C 65.054688 177.109375 63.539062 177.804688 61.941406 178.535156 C 59.234375 179.769531 56.4375 181.046875 51.554688 181.046875 C 44.546875 181.046875 34.121094 176.941406 34.121094 165.644531 C 34.121094 157.167969 41.90625 152.496094 45.328125 150.855469 C 50.519531 160.78125 63.003906 163.441406 63.558594 163.558594 C 63.6875 163.582031 63.816406 163.59375 63.945312 163.59375 C 64.832031 163.59375 65.621094 162.972656 65.808594 162.070312 C 66.015625 161.042969 65.355469 160.039062 64.328125 159.824219 C 64.203125 159.796875 51.8125 157.132812 48.039062 147.667969 C 44.242188 138.128906 50.207031 117.003906 63.273438 111.355469 C 76.046875 105.839844 88.214844 113.710938 88.335938 113.789062 C 89.058594 114.265625 90.015625 114.199219 90.660156 113.625 C 90.753906 113.539062 100.164062 105.304688 112.097656 107.941406 C 123.632812 110.492188 125.054688 118.230469 125.105469 118.542969 C 125.253906 119.523438 126.132812 120.21875 127.113281 120.160156 C 127.230469 120.152344 138.792969 119.460938 143.902344 124.832031 C 147.691406 128.820312 148.664062 136.199219 148.910156 139.90625 C 144.074219 139.109375 138.988281 138.433594 134.550781 137.90625 C 128.65625 137.199219 123.273438 141.042969 122.039062 146.851562 C 120.777344 152.777344 124.375 158.65625 130.230469 160.234375 C 136.691406 161.976562 139.464844 163.101562 140.65625 163.734375 C 143.257812 165.125 145.253906 168.125 146.34375 170.074219 L 126.332031 177.039062 C 122.984375 173.957031 119.578125 171.464844 116.222656 169.605469 L 121.59375 162.875 C 122.25 162.058594 122.117188 160.855469 121.292969 160.199219 C 120.472656 159.542969 119.273438 159.675781 118.617188 160.5 L 112.722656 167.882812 C 108.4375 166.046875 104.285156 165.277344 100.46875 165.644531 L 100.46875 154.351562 C 100.46875 153.300781 99.617188 152.449219 98.5625 152.449219 C 97.511719 152.449219 96.660156 153.300781 96.660156 154.351562 L 96.660156 166.421875 C 95.9375 166.660156 95.222656 166.9375 94.535156 167.269531 C 92.351562 168.324219 90.429688 169.8125 88.796875 171.695312 C 86.925781 170.324219 83.664062 167.582031 82.34375 164.3125 C 81.507812 162.234375 81.265625 159.40625 81.011719 156.414062 C 80.660156 152.277344 80.296875 147.996094 78.222656 144.882812 C 74.816406 139.777344 64.445312 133.4375 64.007812 133.171875 C 63.105469 132.628906 61.9375 132.914062 61.386719 133.8125 C 60.839844 134.710938 61.125 135.882812 62.027344 136.429688 C 64.828125 138.128906 72.617188 143.339844 75.054688 146.996094 C 76.582031 149.289062 76.90625 153.078125 77.214844 156.738281 C 77.484375 159.875 77.757812 163.125 78.8125 165.738281 C 80.488281 169.894531 84.355469 173.171875 86.574219 174.796875 C 84.007812 179.117188 82.527344 184.804688 82.265625 191.578125 C 81.988281 198.699219 83.09375 206.558594 85.421875 214.566406 L 75.667969 218.65625 C 74.699219 219.066406 74.242188 220.179688 74.644531 221.152344 C 74.953125 221.882812 75.660156 222.320312 76.402344 222.320312 C 76.648438 222.320312 76.898438 222.269531 77.140625 222.171875 L 86.570312 218.214844 C 87.878906 222.109375 89.464844 226.019531 91.328125 229.875 C 93.089844 233.527344 95.039062 237.007812 97.132812 240.289062 C 93.46875 241.199219 86.148438 242.40625 79.757812 239.679688 C 71.132812 236.007812 69.34375 226.175781 69.332031 226.082031 C 69.179688 225.167969 68.386719 224.496094 67.460938 224.492188 C 67.289062 224.492188 50.222656 224.253906 41.800781 212.101562 Z M 122.210938 178.472656 L 115.417969 180.839844 C 114.160156 180.070312 112.929688 179.460938 111.742188 179.019531 L 111.90625 171.660156 C 115.265625 173.195312 118.742188 175.484375 122.210938 178.472656 Z M 107.949219 178.144531 C 106.203125 178.007812 104.578125 178.285156 103.113281 178.996094 C 102.996094 179.046875 102.898438 179.113281 102.789062 179.171875 L 96.121094 170.738281 C 96.144531 170.730469 96.164062 170.714844 96.1875 170.699219 C 99.625 169.042969 103.714844 168.929688 108.132812 170.234375 Z M 99.882812 181.636719 C 99.089844 182.65625 98.429688 183.875 97.925781 185.289062 L 88.015625 180.714844 C 89.183594 177.441406 90.839844 174.800781 92.960938 172.886719 Z M 96.996094 189.058594 C 96.679688 191.125 96.582031 193.441406 96.726562 196 C 96.742188 196.253906 96.765625 196.515625 96.785156 196.777344 L 86.121094 196.777344 C 86.03125 195.058594 86.007812 193.367188 86.070312 191.722656 C 86.167969 189.089844 86.46875 186.648438 86.953125 184.417969 Z M 97.207031 200.585938 C 97.574219 203.0625 98.125 205.636719 98.84375 208.28125 L 88.511719 211.464844 C 87.53125 207.765625 86.832031 204.117188 86.429688 200.585938 Z M 99.9375 211.929688 C 100.992188 215.191406 102.289062 218.507812 103.808594 221.820312 L 94.164062 226.949219 C 92.335938 223.019531 90.796875 219.058594 89.574219 215.128906 Z M 93.203125 255.910156 C 87.996094 260.347656 73.203125 261.929688 68.851562 258.507812 C 65.320312 255.738281 65.902344 248.371094 66.425781 245.769531 C 66.582031 244.980469 66.226562 244.171875 65.535156 243.757812 C 65.46875 243.714844 58.839844 239.667969 59.699219 234.324219 C 60.277344 230.71875 63.878906 229.210938 66.035156 228.628906 C 67.074219 232.1875 70.160156 239.734375 78.269531 243.1875 C 81.777344 244.679688 85.449219 245.179688 88.789062 245.179688 C 92.539062 245.179688 95.867188 244.546875 98.070312 243.996094 C 97.664062 247.660156 96.402344 253.179688 93.203125 255.910156 Z M 95.832031 230.375 L 105.46875 225.253906 C 107.183594 228.632812 109.0625 231.832031 111.046875 234.78125 L 103.144531 242.382812 C 100.492188 238.695312 98.03125 234.667969 95.832031 230.375 Z M 113.773438 254.355469 C 110.878906 251.765625 108.082031 248.78125 105.449219 245.453125 L 113.269531 237.929688 C 115.265625 240.59375 117.339844 243 119.453125 245.085938 Z M 126.988281 262.804688 C 124.074219 261.710938 121.027344 260.019531 117.917969 257.738281 C 117.515625 257.441406 117.121094 257.132812 116.726562 256.828125 L 122.320312 247.695312 C 124.601562 249.585938 126.828125 251.003906 128.941406 251.929688 Z M 140.675781 262.898438 C 137.734375 264.320312 134.34375 264.628906 130.664062 263.875 L 132.613281 253.046875 C 133.25 253.152344 133.875 253.210938 134.484375 253.210938 C 135.640625 253.210938 136.742188 253.015625 137.769531 252.625 L 140.777344 262.847656 C 140.742188 262.863281 140.707031 262.886719 140.675781 262.898438 Z M 144.070312 260.542969 L 141.09375 250.417969 C 142.742188 248.699219 143.867188 246.253906 144.464844 243.195312 L 150.503906 245.570312 C 149.710938 252.113281 147.507812 257.308594 144.070312 260.542969 Z M 150.800781 241.59375 L 144.917969 239.28125 C 145.054688 236.324219 144.808594 232.972656 144.164062 229.296875 C 145.765625 230.046875 147.828125 230.890625 150.25 231.617188 C 150.726562 235.148438 150.90625 238.492188 150.800781 241.59375 Z M 245.183594 178.847656 C 237.234375 186.976562 227.417969 191.257812 218.753906 195.035156 C 216.140625 196.171875 213.621094 197.277344 211.308594 198.421875 C 211.292969 198.429688 211.277344 198.4375 211.265625 198.441406 C 209.507812 199.320312 207.867188 200.21875 206.425781 201.179688 C 202.992188 203.464844 199.835938 206.886719 196.492188 210.5 C 190.480469 217.015625 183.660156 224.394531 172.972656 227.929688 C 163.660156 231.007812 154.980469 229.269531 149.285156 227.242188 C 160.601562 225.546875 172.277344 219.484375 172.84375 219.1875 C 173.777344 218.699219 174.136719 217.546875 173.648438 216.613281 C 173.160156 215.6875 172.007812 215.324219 171.078125 215.8125 C 170.921875 215.894531 155.570312 223.875 143.820312 223.875 C 136.320312 223.875 129.8125 220.875 126.164062 218.769531 L 161.332031 206.535156 C 162.328125 206.191406 162.851562 205.105469 162.503906 204.109375 C 162.160156 203.113281 161.074219 202.589844 160.078125 202.9375 L 121.25 216.449219 C 119.488281 217.0625 117.59375 216.949219 115.917969 216.136719 C 114.234375 215.324219 112.972656 213.910156 112.359375 212.148438 C 111.75 210.386719 111.859375 208.492188 112.667969 206.808594 C 113.484375 205.132812 114.898438 203.871094 116.660156 203.257812 L 120.285156 201.996094 C 120.289062 201.996094 120.289062 201.996094 120.289062 201.996094 L 155.488281 189.746094 C 156.484375 189.398438 157.007812 188.3125 156.664062 187.324219 C 156.316406 186.328125 155.230469 185.804688 154.234375 186.148438 L 119.035156 198.394531 C 117.273438 199.007812 115.378906 198.898438 113.699219 198.089844 C 112.019531 197.277344 110.757812 195.855469 110.144531 194.09375 C 109.53125 192.332031 109.640625 190.441406 110.453125 188.761719 C 111.265625 187.082031 112.683594 185.820312 114.445312 185.210938 L 149.648438 172.957031 C 150.144531 172.785156 150.550781 172.414062 150.765625 171.933594 C 150.980469 171.453125 150.984375 170.90625 150.777344 170.417969 C 150.65625 170.125 147.660156 163.15625 142.449219 160.371094 C 140.464844 159.3125 136.6875 158.035156 131.222656 156.558594 C 127.320312 155.503906 124.925781 151.589844 125.765625 147.644531 C 126.589844 143.777344 130.167969 141.214844 134.097656 141.6875 C 147.835938 143.332031 158.007812 145.1875 162.734375 146.910156 C 171.714844 150.175781 175.015625 158.648438 175.046875 158.730469 C 175.410156 159.714844 176.511719 160.214844 177.496094 159.847656 L 222.53125 143.082031 C 223.515625 142.714844 224.015625 141.617188 223.648438 140.632812 C 223.285156 139.648438 222.1875 139.144531 221.203125 139.515625 L 207.710938 144.535156 C 207.488281 142.421875 207.269531 140.324219 207.054688 138.261719 C 206.160156 129.6875 205.3125 121.585938 204.519531 114.535156 C 217.859375 116.371094 239.058594 120.652344 248.140625 129.976562 C 262.15625 144.347656 257.640625 166.109375 245.183594 178.847656 Z M 245.183594 178.847656 " fill-opacity="1" fill-rule="nonzero"/><path fill="#a9a0f0" d="M 224.558594 87.890625 C 237.808594 87.890625 248.582031 77.109375 248.582031 63.863281 C 248.582031 50.613281 237.808594 39.839844 224.558594 39.839844 C 211.3125 39.839844 200.53125 50.613281 200.53125 63.863281 C 200.53125 77.109375 211.3125 87.890625 224.558594 87.890625 Z M 224.558594 43.648438 C 235.707031 43.648438 244.773438 52.71875 244.773438 63.863281 C 244.773438 75.007812 235.707031 84.082031 224.558594 84.082031 C 213.410156 84.082031 204.339844 75.007812 204.339844 63.863281 C 204.339844 52.71875 213.410156 43.648438 224.558594 43.648438 Z M 224.558594 43.648438 " fill-opacity="1" fill-rule="nonzero"/><path fill="#a9a0f0" d="M 222.203125 75.601562 C 222.5625 75.601562 222.929688 75.5 223.253906 75.285156 C 230.617188 70.394531 232.800781 62.808594 229.746094 52.734375 C 229.441406 51.730469 228.378906 51.15625 227.367188 51.464844 C 226.363281 51.769531 225.792969 52.832031 226.097656 53.84375 C 228.644531 62.234375 227.027344 68.210938 221.144531 72.109375 C 220.269531 72.691406 220.03125 73.871094 220.613281 74.753906 C 220.980469 75.304688 221.582031 75.601562 222.203125 75.601562 Z M 222.203125 75.601562 " fill-opacity="1" fill-rule="nonzero"/><path fill="#a9a0f0" d="M 175.15625 121.777344 C 180.363281 121.777344 184.601562 117.539062 184.601562 112.328125 C 184.601562 107.117188 180.363281 102.886719 175.15625 102.886719 C 169.945312 102.886719 165.710938 107.117188 165.710938 112.328125 C 165.710938 117.539062 169.945312 121.777344 175.15625 121.777344 Z M 175.15625 121.777344 " fill-opacity="1" fill-rule="nonzero"/><path fill="#a9a0f0" d="M 156.441406 80.570312 C 156.441406 76.527344 153.15625 73.242188 149.117188 73.242188 C 145.078125 73.242188 141.792969 76.527344 141.792969 80.570312 C 141.792969 84.609375 145.078125 87.894531 149.117188 87.894531 C 153.15625 87.894531 156.441406 84.609375 156.441406 80.570312 Z M 156.441406 80.570312 " fill-opacity="1" fill-rule="nonzero"/><path fill="#a9a0f0" d="M 121.65625 99.542969 C 123.4375 99.542969 124.878906 98.09375 124.878906 96.3125 C 124.878906 94.535156 123.4375 93.089844 121.65625 93.089844 C 119.875 93.089844 118.429688 94.535156 118.429688 96.3125 C 118.429688 98.09375 119.875 99.542969 121.65625 99.542969 Z M 121.65625 99.542969 " fill-opacity="1" fill-rule="nonzero"/><path fill="#a9a0f0" d="M 111.34375 142.347656 C 117.46875 142.347656 122.449219 137.808594 122.449219 132.230469 C 122.449219 126.652344 117.46875 122.113281 111.34375 122.113281 C 105.222656 122.113281 100.234375 126.652344 100.234375 132.230469 C 100.234375 137.808594 105.222656 142.347656 111.34375 142.347656 Z M 111.34375 142.347656 " fill-opacity="1" fill-rule="nonzero"/><path fill="#a9a0f0" d="M 103.796875 259.035156 C 102.015625 259.035156 100.570312 260.476562 100.570312 262.257812 C 100.570312 264.039062 102.015625 265.484375 103.796875 265.484375 C 105.578125 265.484375 107.019531 264.039062 107.019531 262.257812 C 107.019531 260.476562 105.578125 259.035156 103.796875 259.035156 Z M 103.796875 259.035156 " fill-opacity="1" fill-rule="nonzero"/><path fill="#a9a0f0" d="M 93.472656 83.203125 C 93.472656 83.824219 93.417969 84.4375 93.308594 85.046875 C 93.199219 85.65625 93.039062 86.246094 92.824219 86.820312 C 92.613281 87.390625 92.347656 87.933594 92.039062 88.449219 C 91.726562 88.964844 91.375 89.445312 90.980469 89.882812 C 90.585938 90.320312 90.15625 90.710938 89.691406 91.054688 C 89.226562 91.402344 88.734375 91.691406 88.21875 91.929688 C 87.703125 92.167969 87.167969 92.34375 86.621094 92.464844 C 86.074219 92.585938 85.519531 92.648438 84.960938 92.648438 C 84.402344 92.648438 83.847656 92.585938 83.296875 92.464844 C 82.75 92.34375 82.21875 92.167969 81.703125 91.929688 C 81.183594 91.691406 80.695312 91.402344 80.230469 91.054688 C 79.765625 90.710938 79.335938 90.320312 78.9375 89.882812 C 78.542969 89.445312 78.191406 88.964844 77.878906 88.449219 C 77.570312 87.933594 77.308594 87.390625 77.09375 86.820312 C 76.878906 86.246094 76.71875 85.65625 76.609375 85.046875 C 76.5 84.4375 76.445312 83.824219 76.445312 83.203125 C 76.445312 82.585938 76.5 81.96875 76.609375 81.363281 C 76.71875 80.753906 76.878906 80.164062 77.09375 79.589844 C 77.308594 79.019531 77.570312 78.472656 77.878906 77.957031 C 78.191406 77.441406 78.542969 76.964844 78.9375 76.527344 C 79.335938 76.089844 79.765625 75.699219 80.230469 75.351562 C 80.695312 75.007812 81.183594 74.71875 81.703125 74.480469 C 82.21875 74.242188 82.75 74.0625 83.296875 73.941406 C 83.847656 73.824219 84.402344 73.761719 84.960938 73.761719 C 85.519531 73.761719 86.074219 73.824219 86.621094 73.941406 C 87.167969 74.0625 87.703125 74.242188 88.21875 74.480469 C 88.734375 74.71875 89.226562 75.007812 89.691406 75.351562 C 90.15625 75.699219 90.585938 76.089844 90.980469 76.527344 C 91.375 76.964844 91.726562 77.441406 92.039062 77.957031 C 92.347656 78.472656 92.613281 79.019531 92.824219 79.589844 C 93.039062 80.164062 93.199219 80.753906 93.308594 81.363281 C 93.417969 81.96875 93.472656 82.585938 93.472656 83.203125 Z M 93.472656 83.203125 " fill-opacity="1" fill-rule="nonzero"/><path fill="#a9a0f0" d="M 82.265625 250.820312 C 77.121094 250.894531 75.65625 248.660156 74.996094 246.972656 C 74.613281 245.992188 73.507812 245.507812 72.53125 245.890625 C 71.550781 246.269531 71.0625 247.375 71.445312 248.355469 C 72.570312 251.234375 75.316406 254.632812 82.019531 254.632812 C 82.121094 254.632812 82.222656 254.632812 82.320312 254.628906 C 83.375 254.613281 84.210938 253.746094 84.199219 252.695312 C 84.183594 251.648438 83.316406 250.789062 82.265625 250.820312 Z M 82.265625 250.820312 " fill-opacity="1" fill-rule="nonzero"/><path fill="#a9a0f0" d="M 77.394531 202.464844 C 77.394531 197.234375 72.726562 192.976562 66.992188 192.976562 C 61.253906 192.976562 56.589844 197.234375 56.589844 202.464844 C 56.589844 207.695312 61.253906 211.953125 66.992188 211.953125 C 72.726562 211.953125 77.394531 207.695312 77.394531 202.464844 Z M 77.394531 202.464844 " fill-opacity="1" fill-rule="nonzero"/><path fill="#a9a0f0" d="M 58.597656 99.542969 C 60.378906 99.542969 61.820312 98.09375 61.820312 96.3125 C 61.820312 94.535156 60.378906 93.089844 58.597656 93.089844 C 56.816406 93.089844 55.375 94.535156 55.375 96.3125 C 55.375 98.09375 56.816406 99.542969 58.597656 99.542969 Z M 58.597656 99.542969 " fill-opacity="1" fill-rule="nonzero"/><path fill="#a9a0f0" d="M 56.144531 246.960938 C 54.660156 246.960938 53.453125 248.167969 53.453125 249.648438 C 53.453125 251.132812 54.660156 252.339844 56.144531 252.339844 C 57.625 252.339844 58.832031 251.132812 58.832031 249.648438 C 58.832031 248.167969 57.625 246.960938 56.144531 246.960938 Z M 56.144531 246.960938 " fill-opacity="1" fill-rule="nonzero"/></svg>