<svg xmlns="http://www.w3.org/2000/svg" xmlns:xlink="http://www.w3.org/1999/xlink" width="400" zoomAndPan="magnify" viewBox="0 0 300 299.999988" height="400" preserveAspectRatio="xMidYMid meet" version="1.0"><defs><clipPath id="24de8aed11"><path d="M 232 31.800781 L 269 31.800781 L 269 150 L 232 150 Z M 232 31.800781 " clip-rule="nonzero"/></clipPath><clipPath id="d24ad0b0fb"><path d="M 65 31.800781 L 269 31.800781 L 269 270 L 65 270 Z M 65 31.800781 " clip-rule="nonzero"/></clipPath></defs><g clip-path="url(#24de8aed11)"><path fill="#a9a0f0" d="M 257.730469 116.570312 C 262.800781 123.058594 265.59375 126.632812 264.6875 131.777344 C 263.796875 136.839844 259.664062 141.480469 252.398438 145.570312 C 251.492188 146.082031 251.167969 147.234375 251.679688 148.144531 C 252.027344 148.757812 252.664062 149.105469 253.328125 149.105469 C 253.640625 149.105469 253.960938 149.027344 254.25 148.863281 C 262.546875 144.191406 267.308594 138.664062 268.40625 132.433594 C 269.605469 125.636719 266.066406 121.101562 260.707031 114.246094 C 258.003906 110.785156 254.640625 106.480469 251.148438 100.882812 C 246.824219 93.945312 233.660156 72.828125 236.3125 49.203125 C 236.867188 44.25 238.097656 39.328125 239.972656 34.574219 C 240.355469 33.601562 239.875 32.507812 238.90625 32.121094 C 237.941406 31.742188 236.839844 32.21875 236.457031 33.1875 C 234.460938 38.25 233.152344 43.5 232.558594 48.78125 C 229.761719 73.714844 243.449219 95.667969 247.945312 102.882812 C 251.539062 108.648438 254.972656 113.039062 257.730469 116.570312 Z M 257.730469 116.570312 " fill-opacity="1" fill-rule="nonzero"/></g><path fill="#a9a0f0" d="M 227.9375 147.023438 C 228.203125 147.152344 228.488281 147.214844 228.765625 147.214844 C 229.464844 147.214844 230.136719 146.828125 230.460938 146.160156 C 230.660156 145.753906 232.53125 142.164062 236.613281 141.523438 C 239.710938 141.046875 242.097656 142.585938 242.761719 143.070312 C 243.605469 143.6875 244.78125 143.503906 245.398438 142.664062 C 246.015625 141.824219 245.835938 140.644531 244.996094 140.023438 C 243.769531 139.125 240.441406 137.09375 236.03125 137.792969 C 230.058594 138.726562 227.359375 143.90625 227.070312 144.492188 C 226.613281 145.433594 227 146.5625 227.9375 147.023438 Z M 227.9375 147.023438 " fill-opacity="1" fill-rule="nonzero"/><path fill="#a9a0f0" d="M 45.097656 115.050781 C 45.246094 115.089844 45.394531 115.105469 45.542969 115.105469 C 46.390625 115.105469 47.167969 114.523438 47.375 113.660156 C 48.378906 109.523438 50.558594 106.011719 53.34375 103.578125 C 53.191406 104.25 53.097656 104.941406 53.097656 105.660156 C 53.097656 110.867188 57.335938 115.105469 62.542969 115.105469 C 67.75 115.105469 71.988281 110.867188 71.988281 105.660156 C 71.988281 105.226562 71.914062 104.808594 71.859375 104.390625 C 72.097656 104.628906 72.304688 104.847656 72.472656 105.035156 C 73.167969 105.8125 74.367188 105.871094 75.140625 105.175781 C 75.914062 104.476562 75.976562 103.28125 75.277344 102.507812 C 73.621094 100.667969 69.066406 96.371094 62.585938 96.214844 C 62.574219 96.214844 62.566406 96.214844 62.558594 96.214844 C 62.550781 96.214844 62.546875 96.214844 62.539062 96.214844 C 62.53125 96.214844 62.519531 96.21875 62.511719 96.21875 C 54.035156 96.039062 46.070312 103.003906 43.703125 112.769531 C 43.460938 113.785156 44.082031 114.804688 45.097656 115.050781 Z M 68.207031 105.660156 C 68.207031 108.785156 65.667969 111.328125 62.542969 111.328125 C 59.417969 111.328125 56.875 108.785156 56.875 105.660156 C 56.875 102.539062 59.410156 100.003906 62.523438 99.996094 C 62.9375 100.003906 63.328125 100.066406 63.722656 100.121094 C 66.28125 100.664062 68.207031 102.9375 68.207031 105.660156 Z M 68.207031 105.660156 " fill-opacity="1" fill-rule="nonzero"/><path fill="#a9a0f0" d="M 71.988281 135.882812 L 68.207031 135.882812 L 68.207031 132.105469 C 68.207031 131.0625 67.363281 130.214844 66.320312 130.214844 C 65.273438 130.214844 64.429688 131.0625 64.429688 132.105469 L 64.429688 135.882812 L 60.652344 135.882812 C 59.609375 135.882812 58.765625 136.730469 58.765625 137.769531 C 58.765625 138.8125 59.609375 139.660156 60.652344 139.660156 L 64.429688 139.660156 L 64.429688 143.4375 C 64.429688 144.480469 65.273438 145.328125 66.320312 145.328125 C 67.363281 145.328125 68.207031 144.480469 68.207031 143.4375 L 68.207031 139.660156 L 71.988281 139.660156 C 73.03125 139.660156 73.875 138.8125 73.875 137.769531 C 73.875 136.730469 73.03125 135.882812 71.988281 135.882812 Z M 71.988281 135.882812 " fill-opacity="1" fill-rule="nonzero"/><path fill="#a9a0f0" d="M 49.320312 130.214844 C 49.320312 131.257812 50.164062 132.105469 51.207031 132.105469 C 52.253906 132.105469 53.097656 131.257812 53.097656 130.214844 L 53.097656 126.4375 L 56.875 126.4375 C 57.917969 126.4375 58.765625 125.589844 58.765625 124.546875 C 58.765625 123.507812 57.917969 122.660156 56.875 122.660156 L 53.097656 122.660156 L 53.097656 118.882812 C 53.097656 117.839844 52.253906 116.992188 51.207031 116.992188 C 50.164062 116.992188 49.320312 117.839844 49.320312 118.882812 L 49.320312 122.660156 L 45.542969 122.660156 C 44.496094 122.660156 43.652344 123.507812 43.652344 124.546875 C 43.652344 125.589844 44.496094 126.4375 45.542969 126.4375 L 49.320312 126.4375 Z M 49.320312 130.214844 " fill-opacity="1" fill-rule="nonzero"/><path fill="#a9a0f0" d="M 71.988281 228.441406 L 71.988281 200.726562 C 76.910156 194.351562 79.757812 186.75 80.203125 178.6875 L 87.09375 52.871094 C 87.125 52.355469 86.9375 51.847656 86.582031 51.472656 C 86.226562 51.09375 85.730469 50.878906 85.210938 50.878906 L 32.320312 50.878906 C 31.800781 50.878906 31.304688 51.09375 30.945312 51.472656 C 30.589844 51.847656 30.402344 52.355469 30.433594 52.871094 L 37.328125 178.6875 C 37.769531 186.753906 40.617188 194.351562 45.542969 200.726562 L 45.542969 228.441406 C 45.542969 229.484375 46.386719 230.328125 47.429688 230.328125 L 70.097656 230.328125 C 71.140625 230.328125 71.988281 229.484375 71.988281 228.441406 Z M 49.320312 201.996094 L 68.207031 201.996094 L 68.207031 205.773438 L 49.320312 205.773438 Z M 83.210938 54.65625 L 82.800781 62.214844 L 34.726562 62.214844 L 34.3125 54.65625 Z M 34.933594 65.992188 L 82.589844 65.992188 L 76.429688 178.480469 C 76.03125 185.6875 73.527344 192.492188 69.175781 198.21875 L 48.351562 198.21875 C 44 192.492188 41.492188 185.6875 41.097656 178.480469 Z M 49.320312 226.550781 L 49.320312 209.550781 L 68.207031 209.550781 L 68.207031 226.550781 Z M 49.320312 226.550781 " fill-opacity="1" fill-rule="nonzero"/><g clip-path="url(#d24ad0b0fb)"><path fill="#a9a0f0" d="M 265.363281 249.636719 C 263.679688 250.992188 261.863281 252.199219 259.976562 253.226562 C 235.585938 266.488281 202.253906 248.035156 184.347656 238.121094 L 180.667969 236.078125 C 180.378906 234.613281 180.03125 233.136719 179.570312 231.652344 C 178.171875 227.15625 175.261719 217.808594 167.570312 215.351562 C 166.984375 215.164062 166.402344 215.042969 165.824219 214.949219 C 161.375 201.675781 152.839844 192.921875 143.84375 192.550781 C 141.4375 192.457031 139.253906 192.984375 137.226562 193.824219 L 138.839844 145.308594 C 142.136719 146.234375 145.46875 146.976562 148.792969 147.496094 C 153.4375 148.222656 157.890625 148.53125 162.113281 148.53125 C 173.96875 148.53125 183.941406 146.097656 190.902344 143.6875 C 196.039062 141.910156 199.757812 137.445312 200.605469 132.03125 C 201.355469 127.226562 199.777344 122.542969 196.277344 119.183594 C 192.765625 115.808594 187.789062 114.363281 182.964844 115.324219 C 173.378906 117.230469 163.269531 117.449219 153.726562 115.957031 C 148.835938 115.191406 143.941406 113.941406 139.15625 112.261719 C 138.664062 110.957031 137.917969 109.75 136.90625 108.71875 C 134.976562 106.746094 132.390625 105.660156 129.628906 105.660156 C 128.660156 105.660156 127.734375 105.824219 126.84375 106.078125 C 126.757812 106.097656 126.671875 106.109375 126.589844 106.144531 C 126.40625 106.199219 126.21875 106.25 126.039062 106.320312 L 126.140625 104.933594 C 126.5625 99.109375 122.347656 94.023438 116.546875 93.355469 C 116.105469 93.308594 115.675781 93.328125 115.242188 93.332031 C 115.085938 93.316406 114.933594 93.296875 114.777344 93.320312 C 110.015625 93.558594 105.871094 96.878906 104.726562 101.695312 L 98.316406 133.191406 C 97.199219 113.625 100.820312 95.683594 102.171875 89.035156 C 103.550781 82.246094 105.351562 75.457031 107.53125 68.851562 C 111.304688 57.410156 112.082031 45.289062 109.785156 33.800781 L 109.730469 33.511719 C 109.527344 32.488281 108.53125 31.820312 107.511719 32.027344 C 106.488281 32.230469 105.820312 33.222656 106.023438 34.246094 L 106.082031 34.539062 C 108.25 45.394531 107.511719 56.847656 103.945312 67.667969 C 101.71875 74.414062 99.878906 81.351562 98.464844 88.292969 C 96.820312 96.402344 91.835938 120.992188 95.832031 145.398438 L 91.296875 167.679688 L 65.4375 267.632812 C 65.171875 268.644531 65.78125 269.675781 66.792969 269.9375 C 66.949219 269.976562 67.109375 269.996094 67.265625 269.996094 C 68.105469 269.996094 68.875 269.433594 69.09375 268.582031 L 94.976562 168.53125 L 99.585938 145.882812 L 104.984375 119.347656 L 109.605469 119.96875 C 109.925781 120.007812 110.242188 120.03125 110.558594 120.03125 C 112.097656 120.03125 113.589844 119.53125 114.832031 118.582031 C 116.335938 117.433594 117.300781 115.773438 117.550781 113.902344 L 118.785156 104.695312 C 119.101562 102.316406 118.902344 99.957031 118.21875 97.722656 C 120.855469 98.914062 122.589844 101.617188 122.367188 104.660156 L 122.050781 109.046875 C 120.910156 110.332031 120.070312 111.921875 119.664062 113.738281 C 117.042969 130.585938 114.117188 147.683594 110.960938 164.554688 C 107.710938 181.921875 104.148438 199.46875 100.363281 216.699219 C 100.140625 217.71875 100.785156 218.726562 101.804688 218.949219 C 101.941406 218.980469 102.078125 218.992188 102.210938 218.992188 C 103.078125 218.992188 103.859375 218.394531 104.054688 217.507812 C 107.847656 200.238281 111.421875 182.65625 114.679688 165.246094 C 116.585938 155.039062 118.398438 144.753906 120.117188 134.515625 L 123.425781 134.957031 C 123.742188 135 124.058594 135.019531 124.371094 135.019531 C 127.855469 135.019531 130.894531 132.4375 131.371094 128.894531 L 132.605469 119.6875 C 133.078125 116.160156 132.394531 112.605469 130.703125 109.542969 C 132.027344 109.765625 133.246094 110.378906 134.207031 111.359375 C 135.421875 112.597656 136.070312 114.238281 136.035156 115.949219 L 133.382812 195.84375 C 132 196.714844 130.683594 197.660156 129.425781 198.578125 C 120.6875 204.976562 113.925781 214.429688 109.871094 225.917969 C 109.523438 226.902344 110.042969 227.980469 111.023438 228.328125 C 111.230469 228.402344 111.445312 228.4375 111.652344 228.4375 C 112.429688 228.4375 113.160156 227.953125 113.433594 227.179688 C 117.234375 216.40625 123.535156 207.574219 131.65625 201.628906 C 135.34375 198.925781 139.195312 196.136719 143.683594 196.324219 C 150.847656 196.621094 157.816406 203.84375 161.835938 214.941406 C 158.425781 215.445312 154.851562 217.121094 150.511719 219.175781 C 144.855469 221.851562 139.617188 225.339844 134.941406 229.546875 C 134.167969 230.242188 134.105469 231.4375 134.804688 232.210938 C 135.5 232.988281 136.691406 233.050781 137.46875 232.351562 C 141.875 228.390625 146.804688 225.105469 152.128906 222.589844 C 158.367188 219.636719 162.492188 217.6875 166.417969 218.945312 C 172.234375 220.804688 174.65625 228.589844 175.960938 232.777344 C 180.082031 246.027344 176.230469 258.867188 172.277344 267.304688 C 171.835938 268.246094 172.238281 269.371094 173.183594 269.816406 C 173.445312 269.9375 173.714844 269.996094 173.984375 269.996094 C 174.695312 269.996094 175.375 269.59375 175.695312 268.90625 C 179.027344 261.800781 182.261719 251.742188 181.324219 240.765625 L 182.515625 241.425781 C 196.335938 249.074219 219.027344 261.636719 240.542969 261.636719 C 247.890625 261.636719 255.105469 260.171875 261.777344 256.542969 C 263.863281 255.410156 265.867188 254.074219 267.726562 252.578125 C 268.539062 251.925781 268.667969 250.734375 268.011719 249.921875 C 267.367188 249.109375 266.171875 248.980469 265.363281 249.636719 Z M 115.039062 104.195312 L 113.804688 113.402344 C 113.6875 114.273438 113.238281 115.046875 112.539062 115.582031 C 111.839844 116.113281 110.976562 116.339844 110.105469 116.226562 L 105.738281 115.640625 L 108.410156 102.511719 C 109.066406 99.75 111.289062 97.738281 113.953125 97.21875 C 114.964844 99.398438 115.363281 101.777344 115.039062 104.195312 Z M 128.859375 119.1875 L 127.625 128.394531 C 127.382812 130.191406 125.738281 131.464844 123.925781 131.214844 L 120.742188 130.789062 C 121.648438 125.316406 122.535156 119.859375 123.378906 114.441406 C 123.65625 113.203125 124.285156 112.136719 125.128906 111.300781 C 125.132812 111.292969 125.140625 111.289062 125.144531 111.285156 C 125.589844 110.84375 126.089844 110.46875 126.648438 110.179688 C 128.484375 112.78125 129.289062 115.996094 128.859375 119.1875 Z M 183.699219 119.03125 C 187.359375 118.296875 190.992188 119.347656 193.660156 121.90625 C 196.257812 124.402344 197.425781 127.878906 196.867188 131.445312 C 196.234375 135.476562 193.476562 138.800781 189.664062 140.117188 C 180.628906 143.242188 166.304688 146.410156 149.371094 143.761719 C 145.898438 143.21875 142.410156 142.421875 138.964844 141.414062 L 139.203125 134.28125 C 142.261719 135.601562 145.441406 136.648438 148.691406 137.382812 C 148.832031 137.417969 148.972656 137.429688 149.113281 137.429688 C 149.976562 137.429688 150.753906 136.835938 150.953125 135.960938 C 151.183594 134.941406 150.546875 133.929688 149.527344 133.699219 C 146.015625 132.90625 142.597656 131.710938 139.339844 130.1875 L 139.542969 124.066406 C 142.671875 125.578125 145.941406 126.789062 149.296875 127.664062 C 153.679688 128.804688 158.1875 129.382812 162.722656 129.382812 C 163.328125 129.382812 163.9375 129.375 164.546875 129.351562 C 165.589844 129.316406 166.40625 128.445312 166.371094 127.398438 C 166.332031 126.355469 165.441406 125.550781 164.417969 125.578125 C 159.628906 125.742188 154.867188 125.214844 150.25 124.007812 C 146.585938 123.054688 143.042969 121.65625 139.683594 119.890625 L 139.796875 116.464844 C 144.195312 117.894531 148.664062 118.992188 153.140625 119.691406 C 163.109375 121.246094 173.679688 121.019531 183.699219 119.03125 Z M 183.699219 119.03125 " fill-opacity="1" fill-rule="nonzero"/></g><path fill="#a9a0f0" d="M 206.101562 188.773438 C 206.21875 188.773438 206.34375 188.761719 206.46875 188.738281 C 212.5625 187.523438 218.792969 186.902344 224.996094 186.882812 C 229.9375 186.871094 233.878906 187.257812 237.273438 187.59375 C 242.671875 188.132812 246.933594 188.558594 252.054688 186.78125 C 258.246094 184.628906 263.660156 179.917969 268.148438 172.777344 C 268.703125 171.894531 268.4375 170.726562 267.554688 170.171875 C 266.671875 169.617188 265.503906 169.886719 264.949219 170.765625 C 260.933594 177.160156 256.175781 181.347656 250.816406 183.210938 C 246.480469 184.71875 242.972656 184.363281 237.652344 183.832031 C 234.339844 183.503906 230.292969 183.085938 224.988281 183.105469 C 218.542969 183.121094 212.066406 183.769531 205.734375 185.027344 C 204.710938 185.234375 204.046875 186.226562 204.253906 187.25 C 204.429688 188.152344 205.214844 188.773438 206.101562 188.773438 Z M 206.101562 188.773438 " fill-opacity="1" fill-rule="nonzero"/><path fill="#a9a0f0" d="M 257.8125 198.628906 C 254.699219 201.117188 251.023438 202.953125 247.1875 203.941406 C 241.367188 205.445312 236.265625 204.769531 233.011719 203.941406 C 232.003906 203.683594 230.972656 204.292969 230.714844 205.304688 C 230.457031 206.316406 231.070312 207.34375 232.082031 207.601562 C 234.171875 208.132812 236.9375 208.609375 240.144531 208.609375 C 242.585938 208.609375 245.28125 208.335938 248.132812 207.601562 C 252.480469 206.476562 256.640625 204.398438 260.171875 201.578125 C 260.988281 200.929688 261.121094 199.738281 260.46875 198.925781 C 259.816406 198.113281 258.628906 197.980469 257.8125 198.628906 Z M 257.8125 198.628906 " fill-opacity="1" fill-rule="nonzero"/><path fill="#a9a0f0" d="M 143.199219 96.980469 C 142.796875 97.828125 142.292969 98.625 141.671875 99.320312 C 140.742188 100.371094 139.566406 101.226562 138.273438 101.804688 C 137.320312 102.230469 136.894531 103.34375 137.320312 104.300781 C 137.632812 105.003906 138.324219 105.417969 139.046875 105.417969 C 139.304688 105.417969 139.5625 105.367188 139.8125 105.253906 C 141.589844 104.460938 143.210938 103.28125 144.496094 101.832031 C 145.5 100.699219 146.300781 99.390625 146.886719 97.992188 C 146.96875 98.011719 147.039062 98.039062 147.121094 98.054688 C 148.359375 98.339844 149.582031 98.5625 150.789062 98.75 C 150.667969 99.167969 150.535156 99.585938 150.371094 99.992188 C 149.8125 101.378906 149.03125 102.660156 148.046875 103.808594 C 147.371094 104.601562 147.460938 105.792969 148.253906 106.472656 C 148.609375 106.777344 149.046875 106.925781 149.484375 106.925781 C 150.011719 106.925781 150.542969 106.703125 150.917969 106.269531 C 152.167969 104.808594 153.160156 103.171875 153.875 101.402344 C 154.164062 100.6875 154.390625 99.949219 154.585938 99.199219 C 156.09375 99.328125 157.585938 99.40625 159.039062 99.40625 C 159.652344 99.40625 160.25 99.382812 160.847656 99.363281 C 160.625 100.46875 160.34375 101.5625 159.945312 102.617188 C 159.574219 103.585938 159.128906 104.535156 158.621094 105.433594 C 158.105469 106.339844 158.421875 107.492188 159.332031 108.007812 C 159.625 108.171875 159.945312 108.253906 160.261719 108.253906 C 160.921875 108.253906 161.558594 107.910156 161.90625 107.296875 C 162.507812 106.230469 163.039062 105.109375 163.472656 103.960938 C 164.070312 102.394531 164.5 100.761719 164.761719 99.09375 C 166.410156 98.921875 168.007812 98.683594 169.542969 98.382812 C 169.644531 99.121094 169.808594 99.847656 170.042969 100.5625 C 170.640625 102.371094 171.671875 104.046875 173.035156 105.40625 C 173.402344 105.773438 173.886719 105.960938 174.371094 105.960938 C 174.851562 105.960938 175.335938 105.773438 175.703125 105.40625 C 176.441406 104.667969 176.441406 103.472656 175.703125 102.734375 C 174.761719 101.789062 174.042969 100.632812 173.628906 99.378906 C 173.429688 98.777344 173.324219 98.15625 173.265625 97.527344 C 174.9375 97.085938 176.527344 96.597656 178.019531 96.070312 C 178.910156 97.363281 179.984375 98.503906 181.230469 99.472656 C 183.144531 100.960938 185.425781 101.984375 187.828125 102.429688 C 187.945312 102.453125 188.0625 102.464844 188.175781 102.464844 C 189.070312 102.464844 189.863281 101.828125 190.03125 100.921875 C 190.222656 99.894531 189.546875 98.910156 188.519531 98.71875 C 186.707031 98.378906 184.988281 97.609375 183.546875 96.488281 C 182.847656 95.945312 182.238281 95.320312 181.6875 94.640625 C 184.660156 93.371094 187.113281 92.058594 188.941406 90.964844 C 190.25 92.058594 191.644531 93.046875 193.167969 93.816406 C 195.296875 94.894531 197.578125 95.628906 199.945312 95.988281 C 200.042969 96.003906 200.136719 96.011719 200.230469 96.011719 C 201.148438 96.011719 201.953125 95.34375 202.09375 94.40625 C 202.253906 93.375 201.546875 92.414062 200.515625 92.253906 C 198.542969 91.953125 196.644531 91.34375 194.871094 90.445312 C 193.414062 89.707031 192.082031 88.753906 190.863281 87.667969 C 190.582031 85.847656 189.589844 84.214844 188.011719 83.199219 C 186.15625 82.003906 183.847656 81.832031 181.835938 82.746094 C 173.917969 86.332031 165.53125 88.320312 156.910156 88.65625 C 142.46875 89.210938 130.960938 84.96875 123.847656 81.308594 C 123.011719 80.875 121.984375 81.128906 121.441406 81.898438 C 120.898438 82.667969 121.007812 83.71875 121.691406 84.367188 C 126.167969 88.570312 133.371094 93.917969 143.199219 96.980469 Z M 157.0625 92.433594 C 166.171875 92.082031 175.035156 89.980469 183.398438 86.191406 C 184.25 85.804688 185.1875 85.871094 185.972656 86.378906 C 186.480469 86.707031 186.847656 87.167969 187.042969 87.707031 C 180.605469 91.554688 165.828125 98.472656 147.964844 94.375 C 143.621094 93.378906 139.757812 91.875 136.378906 90.148438 C 142.335938 91.726562 149.292969 92.738281 157.0625 92.433594 Z M 157.0625 92.433594 " fill-opacity="1" fill-rule="nonzero"/><path fill="#a9a0f0" d="M 166.902344 234.75 C 165.195312 236.695312 163.34375 238.542969 161.410156 240.242188 C 159.121094 242.25 156.65625 244.101562 154.085938 245.734375 C 153.207031 246.292969 152.945312 247.464844 153.507812 248.34375 C 153.863281 248.910156 154.476562 249.21875 155.101562 249.21875 C 155.449219 249.21875 155.800781 249.125 156.113281 248.925781 C 157.5625 248.003906 158.972656 247.007812 160.347656 245.964844 L 158.878906 267.980469 C 158.8125 269.023438 159.597656 269.921875 160.640625 269.992188 C 160.683594 269.996094 160.726562 269.996094 160.765625 269.996094 C 161.75 269.996094 162.585938 269.230469 162.648438 268.230469 L 164.355469 242.65625 C 166.242188 240.964844 168.0625 239.152344 169.742188 237.242188 C 170.429688 236.457031 170.351562 235.261719 169.566406 234.574219 C 168.785156 233.890625 167.59375 233.964844 166.902344 234.75 Z M 166.902344 234.75 " fill-opacity="1" fill-rule="nonzero"/><path fill="#a9a0f0" d="M 128.632812 61.207031 C 128.984375 61.207031 129.339844 61.109375 129.652344 60.910156 C 138.121094 55.460938 147.429688 51.738281 157.320312 49.839844 C 167.109375 47.964844 177.039062 47.964844 186.832031 49.839844 C 187.550781 49.976562 188.261719 49.699219 188.691406 49.128906 C 189.128906 48.554688 189.199219 47.785156 188.878906 47.140625 C 185.945312 41.277344 180.078125 37.398438 173.570312 37.007812 C 165.613281 36.535156 157.90625 37.734375 150.617188 40.558594 C 138.925781 45.09375 131.394531 52.640625 127.136719 58.167969 C 126.574219 58.894531 126.621094 59.921875 127.242188 60.597656 C 127.609375 61 128.117188 61.207031 128.632812 61.207031 Z M 151.980469 44.078125 C 157.800781 41.824219 163.917969 40.6875 170.210938 40.6875 C 171.25 40.6875 172.296875 40.71875 173.34375 40.777344 C 177.105469 41.003906 180.601562 42.699219 183.121094 45.40625 C 174.292969 44.203125 165.402344 44.445312 156.609375 46.132812 C 150.398438 47.320312 144.40625 49.199219 138.695312 51.738281 C 142.261719 48.878906 146.660156 46.144531 151.980469 44.078125 Z M 151.980469 44.078125 " fill-opacity="1" fill-rule="nonzero"/></svg>