<svg xmlns="http://www.w3.org/2000/svg" xmlns:xlink="http://www.w3.org/1999/xlink" width="400" zoomAndPan="magnify" viewBox="0 0 300 299.999988" height="400" preserveAspectRatio="xMidYMid meet" version="1.0"><defs><clipPath id="3e30083f9b"><path d="M 47.699219 30 L 250 30 L 250 270 L 47.699219 270 Z M 47.699219 30 " clip-rule="nonzero"/></clipPath></defs><g clip-path="url(#3e30083f9b)"><path fill="#a9a0f0" d="M 164.949219 194.128906 C 165.292969 195.121094 164.765625 196.203125 163.773438 196.546875 L 157.96875 198.554688 C 157.761719 198.625 157.554688 198.660156 157.347656 198.660156 C 156.558594 198.660156 155.820312 198.164062 155.546875 197.375 C 155.207031 196.382812 155.734375 195.300781 156.726562 194.957031 L 162.53125 192.949219 C 163.523438 192.609375 164.609375 193.136719 164.949219 194.128906 Z M 149.179688 205.140625 C 147.492188 205.140625 146.125 206.511719 146.125 208.199219 C 146.125 209.890625 147.492188 211.257812 149.179688 211.257812 C 150.871094 211.257812 152.238281 209.890625 152.238281 208.199219 C 152.242188 206.511719 150.871094 205.140625 149.179688 205.140625 Z M 137.011719 208.175781 L 130.179688 206.035156 C 129.175781 205.722656 128.109375 206.277344 127.792969 207.28125 C 127.480469 208.285156 128.039062 209.351562 129.042969 209.664062 L 135.875 211.804688 C 136.0625 211.867188 136.253906 211.894531 136.445312 211.894531 C 137.253906 211.894531 138.003906 211.371094 138.257812 210.558594 C 138.574219 209.554688 138.015625 208.488281 137.011719 208.175781 Z M 112.730469 180.046875 C 112.105469 179.203125 110.910156 179.027344 110.070312 179.65625 C 109.226562 180.28125 109.050781 181.476562 109.679688 182.316406 L 114.5625 188.882812 C 114.9375 189.382812 115.511719 189.648438 116.089844 189.648438 C 116.484375 189.648438 116.882812 189.527344 117.226562 189.273438 C 118.070312 188.644531 118.242188 187.453125 117.617188 186.609375 Z M 113.84375 167.601562 C 113.84375 165.914062 112.476562 164.542969 110.785156 164.542969 C 109.097656 164.542969 107.726562 165.914062 107.726562 167.601562 C 107.726562 169.289062 109.097656 170.660156 110.785156 170.660156 C 112.476562 170.660156 113.84375 169.289062 113.84375 167.601562 Z M 170.199219 183.917969 L 164.851562 181.914062 C 163.867188 181.542969 162.773438 182.042969 162.402344 183.027344 C 162.035156 184.011719 162.53125 185.109375 163.515625 185.476562 L 168.863281 187.480469 C 169.085938 187.566406 169.3125 187.605469 169.53125 187.605469 C 170.300781 187.605469 171.027344 187.132812 171.3125 186.367188 C 171.683594 185.382812 171.183594 184.289062 170.199219 183.917969 Z M 125.429688 195.753906 C 123.738281 195.753906 122.371094 197.121094 122.371094 198.8125 C 122.371094 200.5 123.738281 201.867188 125.429688 201.867188 C 127.117188 201.867188 128.488281 200.5 128.488281 198.8125 C 128.488281 197.121094 127.117188 195.753906 125.429688 195.753906 Z M 187.824219 166.246094 L 183.59375 170.410156 C 182.847656 171.148438 182.835938 172.351562 183.574219 173.101562 C 183.945312 173.480469 184.4375 173.667969 184.929688 173.667969 C 185.414062 173.667969 185.894531 173.488281 186.265625 173.121094 L 190.496094 168.957031 C 191.246094 168.21875 191.253906 167.015625 190.515625 166.265625 C 189.777344 165.515625 188.574219 165.507812 187.824219 166.246094 Z M 155.117188 159.957031 C 154.175781 159.492188 153.039062 159.878906 152.570312 160.816406 C 152.460938 161.035156 149.796875 166.195312 142.964844 166.195312 C 136.136719 166.195312 133.472656 161.035156 133.367188 160.828125 C 132.910156 159.882812 131.769531 159.484375 130.824219 159.945312 C 129.878906 160.402344 129.484375 161.542969 129.941406 162.488281 C 130.09375 162.792969 133.695312 170.003906 142.964844 170.003906 C 152.234375 170.003906 155.839844 162.792969 155.988281 162.488281 C 156.445312 161.546875 156.054688 160.417969 155.117188 159.957031 Z M 194.59375 149.765625 L 189.777344 145.832031 C 192.402344 142.917969 193.597656 139.992188 193.691406 139.75 C 194.078125 138.773438 193.601562 137.671875 192.628906 137.285156 C 191.652344 136.894531 190.546875 137.371094 190.15625 138.34375 C 190.0625 138.574219 188.457031 142.023438 185.53125 144.679688 C 183.417969 146.507812 180.519531 148.019531 176.699219 148.019531 C 167.246094 148.019531 163.40625 138.742188 163.246094 138.34375 C 162.855469 137.371094 161.753906 136.894531 160.777344 137.28125 C 159.800781 137.667969 159.320312 138.773438 159.707031 139.75 C 159.902344 140.242188 164.625 151.828125 176.699219 151.828125 C 181.007812 151.828125 184.378906 150.347656 186.941406 148.429688 L 192.1875 152.710938 C 192.542969 153 192.96875 153.140625 193.390625 153.140625 C 193.941406 153.140625 194.488281 152.902344 194.867188 152.441406 C 195.53125 151.628906 195.410156 150.429688 194.59375 149.765625 Z M 242.449219 114.480469 C 244.582031 127.421875 244.417969 138.789062 242.8125 143.152344 C 241.429688 146.917969 238.699219 150.082031 234.707031 152.558594 C 233.378906 153.378906 231.863281 153.800781 230.332031 153.804688 C 229.804688 153.804688 229.277344 153.746094 228.753906 153.644531 C 228.75 153.773438 228.746094 153.902344 228.738281 154.027344 C 228.167969 163.273438 223.195312 168.730469 220.800781 170.847656 C 221.734375 173.410156 221.699219 176.324219 220.476562 178.996094 C 215.964844 188.867188 207.199219 208.34375 201.503906 222.878906 C 205.566406 225.035156 216.644531 231.285156 223.675781 238.828125 C 232.304688 248.082031 237.679688 266.785156 237.902344 267.578125 C 238.191406 268.589844 237.601562 269.640625 236.589844 269.925781 C 236.417969 269.976562 236.242188 270 236.070312 270 C 235.242188 270 234.480469 269.453125 234.242188 268.617188 C 234.1875 268.429688 228.890625 250 220.894531 241.421875 C 214.546875 234.617188 204.296875 228.714844 200.125 226.460938 C 198.289062 231.335938 196.925781 235.414062 196.382812 238.027344 C 193.597656 251.332031 197.058594 267.53125 197.09375 267.691406 C 197.316406 268.71875 196.667969 269.730469 195.640625 269.957031 C 195.503906 269.984375 195.367188 270 195.234375 270 C 194.359375 270 193.570312 269.394531 193.375 268.503906 C 193.226562 267.808594 189.707031 251.363281 192.65625 237.25 C 194.851562 226.753906 208.859375 195.253906 217.015625 177.414062 C 218.5625 174.027344 217.179688 170.046875 213.863281 168.347656 C 210.527344 166.640625 206.476562 167.863281 204.644531 171.132812 L 203.3125 173.511719 C 206.269531 176.082031 207.328125 180.3125 205.734375 184.054688 L 194.664062 210.058594 C 194.25 211.023438 193.132812 211.476562 192.167969 211.0625 C 191.199219 210.652344 190.75 209.535156 191.160156 208.566406 L 202.234375 182.566406 C 203.320312 180.015625 202.3125 177.078125 199.890625 175.730469 C 197.703125 174.511719 194.988281 174.949219 193.289062 176.792969 C 186.011719 184.691406 168.375 204.546875 161.746094 218.304688 C 153.328125 235.777344 156.027344 267.609375 156.054688 267.929688 C 156.148438 268.976562 155.375 269.898438 154.328125 269.992188 C 154.269531 270 154.214844 270 154.15625 270 C 153.183594 270 152.351562 269.253906 152.265625 268.265625 C 152.15625 267.058594 149.980469 241.421875 155.890625 222.84375 C 151.625 223.695312 147.292969 224.132812 142.964844 224.132812 C 138.640625 224.132812 134.308594 223.695312 130.039062 222.84375 C 135.953125 241.421875 133.773438 267.058594 133.667969 268.265625 C 133.578125 269.253906 132.75 270 131.773438 270 C 131.71875 270 131.664062 270 131.605469 269.992188 C 130.558594 269.898438 129.785156 268.976562 129.878906 267.929688 C 129.90625 267.609375 132.605469 235.777344 124.1875 218.304688 C 117.554688 204.546875 99.917969 184.691406 92.644531 176.792969 C 90.945312 174.945312 88.230469 174.511719 86.039062 175.730469 C 83.621094 177.078125 82.613281 180.015625 83.699219 182.566406 L 94.773438 208.566406 C 95.183594 209.535156 94.734375 210.652344 93.765625 211.0625 C 92.800781 211.472656 91.683594 211.023438 91.269531 210.058594 L 80.199219 184.058594 C 78.601562 180.3125 79.660156 176.082031 82.621094 173.511719 L 81.289062 171.132812 C 79.457031 167.863281 75.40625 166.640625 72.070312 168.347656 C 68.753906 170.046875 67.371094 174.027344 68.917969 177.414062 C 77.074219 195.257812 91.082031 226.753906 93.277344 237.25 C 96.226562 251.363281 92.707031 267.808594 92.558594 268.503906 C 92.363281 269.394531 91.574219 270 90.699219 270 C 90.566406 270 90.429688 269.984375 90.292969 269.957031 C 89.265625 269.730469 88.617188 268.71875 88.839844 267.691406 C 88.875 267.53125 92.332031 251.332031 89.550781 238.027344 C 89.003906 235.414062 87.644531 231.335938 85.808594 226.460938 C 81.636719 228.714844 71.382812 234.617188 65.039062 241.421875 C 57.039062 250 51.742188 268.429688 51.691406 268.617188 C 51.453125 269.453125 50.691406 270 49.859375 270 C 49.6875 270 49.515625 269.976562 49.339844 269.925781 C 48.328125 269.640625 47.742188 268.589844 48.027344 267.578125 C 48.253906 266.785156 53.625 248.082031 62.253906 238.828125 C 69.285156 231.285156 80.363281 225.035156 84.429688 222.878906 C 78.734375 208.34375 69.96875 188.867188 65.457031 178.996094 C 64.234375 176.320312 64.199219 173.40625 65.132812 170.84375 C 63.777344 169.644531 61.601562 167.367188 59.855469 163.9375 C 58.691406 162.519531 51.417969 153.269531 50.226562 142.710938 C 49.539062 136.585938 51.226562 123.761719 56.558594 110.078125 C 56.597656 109.980469 56.636719 109.890625 56.671875 109.792969 C 55.433594 106.707031 51.328125 94.976562 55.460938 84.03125 C 56.148438 82.210938 57.101562 80.085938 58.28125 77.75 C 57.320312 74.699219 54.082031 63.050781 57.316406 53.429688 C 60.953125 42.609375 71.570312 31.308594 72.019531 30.832031 C 72.742188 30.070312 73.949219 30.035156 74.710938 30.757812 C 75.472656 31.480469 75.507812 32.683594 74.785156 33.449219 C 74.679688 33.558594 64.289062 44.625 60.921875 54.644531 C 58.816406 60.902344 59.855469 68.277344 60.902344 72.867188 C 68.308594 59.839844 81.15625 42.546875 96.203125 30.648438 C 97.027344 29.996094 98.226562 30.136719 98.875 30.960938 C 99.527344 31.785156 99.386719 32.980469 98.5625 33.632812 C 79.109375 49.015625 63.46875 73.601562 59.023438 85.375 C 56.40625 92.304688 57.648438 99.84375 58.929688 104.496094 C 62.570312 96.601562 67.089844 89.550781 72.175781 83.871094 C 72.875 83.085938 74.078125 83.019531 74.859375 83.722656 C 75.644531 84.421875 75.710938 85.625 75.007812 86.410156 C 69.054688 93.058594 63.902344 101.71875 60.105469 111.460938 C 55.234375 123.960938 53.351562 136.429688 54.011719 142.285156 C 54.769531 149.039062 58.480469 155.40625 60.863281 158.894531 C 64.386719 149.308594 75.105469 122.042969 87.410156 108.9375 C 101.003906 94.460938 124.691406 81.476562 128.8125 79.273438 C 131.019531 74.597656 133.675781 68.0625 134.375 62.410156 C 134.832031 58.738281 134.703125 54.378906 134.019531 49.683594 C 126.789062 52.78125 103.285156 63.324219 86.148438 76.378906 C 85.804688 76.640625 85.398438 76.769531 84.996094 76.769531 C 84.425781 76.769531 83.855469 76.507812 83.484375 76.019531 C 82.84375 75.183594 83.007812 73.988281 83.84375 73.351562 C 102.167969 59.386719 127.53125 48.289062 133.5 45.769531 C 133.507812 43.679688 134.292969 41.675781 135.757812 40.109375 C 137.578125 38.164062 140.140625 37.214844 142.792969 37.519531 C 162.988281 39.796875 199.636719 46.164062 218.195312 63.199219 C 231.722656 75.617188 238.128906 94.101562 241.132812 107.660156 C 243.808594 100.316406 247.507812 86.761719 245.089844 72.59375 C 241.515625 51.636719 223.050781 33.691406 222.863281 33.515625 C 222.105469 32.785156 222.082031 31.582031 222.808594 30.824219 C 223.539062 30.066406 224.742188 30.042969 225.5 30.769531 C 226.296875 31.53125 245.050781 49.738281 248.839844 71.953125 C 252.324219 92.375 244.128906 110.957031 242.449219 114.480469 Z M 75.621094 163.785156 C 73.859375 158.394531 72.019531 152.457031 70.128906 146.042969 C 66.6875 154.007812 64.296875 160.570312 63.523438 162.738281 C 64.71875 164.921875 66.097656 166.5 67.109375 167.484375 C 67.988281 166.472656 69.070312 165.609375 70.332031 164.960938 C 72.03125 164.09375 73.847656 163.722656 75.621094 163.785156 Z M 204.042969 166.078125 C 201.039062 163.996094 195.445312 160.761719 190.414062 161.4375 C 185.6875 162.070312 182.414062 165.164062 179.246094 168.160156 C 177.347656 169.957031 175.554688 171.65625 173.464844 172.867188 C 170.957031 174.320312 168.007812 175.234375 165.160156 176.121094 C 161.636719 177.214844 158.308594 178.25 156.285156 180.113281 C 155.304688 181.015625 154.304688 182.617188 153.246094 184.304688 C 150.300781 189.027344 146.257812 195.488281 137.332031 195.488281 C 125.757812 195.488281 119.660156 184.632812 118.535156 177.789062 C 118.1875 175.675781 118.433594 173.316406 118.695312 170.820312 C 119.242188 165.578125 119.394531 162 116.644531 160.125 C 113.542969 158.007812 108.683594 159.453125 103.054688 161.125 C 99.894531 162.066406 96.621094 163.039062 93.1875 163.539062 C 87.324219 164.394531 82.148438 162.601562 78.652344 160.789062 C 79.101562 162.191406 79.550781 163.558594 79.992188 164.886719 C 81.875 165.816406 83.503906 167.300781 84.609375 169.273438 L 85.945312 171.660156 C 89.289062 170.617188 92.988281 171.550781 95.445312 174.214844 C 102.835938 182.238281 120.761719 202.4375 127.617188 216.65625 C 127.921875 217.289062 128.210938 217.945312 128.492188 218.609375 C 138.011719 220.878906 147.921875 220.878906 157.441406 218.609375 C 157.722656 217.945312 158.011719 217.289062 158.320312 216.65625 C 165.171875 202.4375 183.097656 182.238281 190.488281 174.214844 C 192.945312 171.550781 196.644531 170.617188 199.988281 171.660156 L 201.324219 169.273438 C 202.035156 168 202.96875 166.929688 204.042969 166.078125 Z M 206.511719 163.15625 C 209.3125 154.632812 212.285156 144.773438 215.363281 133.796875 C 209.503906 123.074219 201.378906 111.097656 192.546875 106.707031 C 178.875 99.914062 147.488281 93.949219 134.628906 91.699219 C 132.03125 91.242188 129.847656 89.636719 128.644531 87.292969 C 128.136719 86.308594 127.839844 85.257812 127.746094 84.195312 C 120.082031 88.484375 101.472656 99.523438 90.183594 111.542969 C 83.59375 118.566406 77.34375 130.191406 72.527344 140.667969 C 74.011719 145.800781 75.464844 150.660156 76.878906 155.199219 C 78.53125 156.445312 85.035156 160.882812 92.636719 159.773438 C 95.800781 159.3125 98.9375 158.378906 101.972656 157.476562 C 108.257812 155.609375 114.195312 153.84375 118.792969 156.980469 C 123.621094 160.277344 122.988281 166.339844 122.476562 171.210938 C 122.246094 173.449219 122.023438 175.5625 122.289062 177.171875 C 122.90625 180.9375 127 191.683594 137.332031 191.683594 C 144.148438 191.683594 147.269531 186.691406 150.019531 182.289062 C 151.21875 180.375 152.347656 178.566406 153.707031 177.3125 C 156.359375 174.867188 160.257812 173.65625 164.027344 172.484375 C 166.679688 171.664062 169.417969 170.8125 171.558594 169.574219 C 173.261719 168.585938 174.898438 167.035156 176.632812 165.398438 C 180.070312 162.144531 183.964844 158.460938 189.910156 157.664062 C 196.398438 156.796875 203.128906 160.761719 206.511719 163.15625 Z M 224.941406 151.820312 C 223.972656 150.996094 223.183594 149.964844 222.664062 148.769531 C 221.527344 146.15625 219.921875 142.621094 217.933594 138.691406 C 215.296875 147.949219 212.742188 156.359375 210.308594 163.785156 C 212.085938 163.722656 213.902344 164.09375 215.597656 164.960938 C 216.867188 165.613281 217.953125 166.480469 218.832031 167.496094 C 220.898438 165.507812 224.492188 161.050781 224.9375 153.792969 C 224.980469 153.160156 224.972656 152.496094 224.941406 151.820312 Z M 237.550781 109.09375 C 234.726562 96.023438 228.625 77.9375 215.621094 66.003906 C 197.195312 49.089844 158.253906 43.09375 142.367188 41.300781 C 142.191406 41.277344 142.015625 41.269531 141.84375 41.269531 C 140.589844 41.269531 139.40625 41.777344 138.539062 42.707031 C 137.542969 43.773438 137.121094 45.210938 137.382812 46.648438 C 137.382812 46.648438 137.382812 46.652344 137.382812 46.652344 C 138.480469 52.699219 138.738281 58.160156 138.152344 62.878906 C 137.359375 69.269531 134.355469 76.523438 131.972656 81.480469 C 131.347656 82.785156 131.367188 84.269531 132.027344 85.550781 C 132.683594 86.828125 133.871094 87.703125 135.285156 87.949219 C 151.460938 90.777344 180.628906 96.535156 194.238281 103.296875 C 208.476562 110.375 220.34375 133.875 226.152344 147.253906 C 226.683594 148.46875 227.710938 149.394531 228.976562 149.789062 C 230.234375 150.183594 231.589844 150.011719 232.699219 149.320312 C 235.957031 147.304688 238.15625 144.789062 239.242188 141.839844 C 240.664062 137.96875 240.871094 124.4375 237.550781 109.09375 Z M 95.011719 118.789062 C 95.390625 118.789062 95.777344 118.675781 96.109375 118.441406 C 102.347656 114.035156 109.164062 113.152344 116.957031 115.738281 C 117.957031 116.070312 119.03125 115.527344 119.363281 114.53125 C 119.695312 113.53125 119.15625 112.457031 118.15625 112.125 C 109.261719 109.171875 101.105469 110.25 93.914062 115.332031 C 93.054688 115.9375 92.851562 117.125 93.457031 117.984375 C 93.828125 118.507812 94.417969 118.789062 95.011719 118.789062 Z M 176.910156 175.914062 C 175.21875 175.914062 173.851562 177.28125 173.851562 178.972656 C 173.851562 180.660156 175.21875 182.03125 176.910156 182.03125 C 178.597656 182.03125 179.96875 180.660156 179.96875 178.972656 C 179.96875 177.28125 178.597656 175.914062 176.910156 175.914062 Z M 168.972656 115.738281 C 176.765625 113.148438 183.585938 114.035156 189.824219 118.441406 C 190.15625 118.675781 190.539062 118.789062 190.917969 118.789062 C 191.515625 118.789062 192.105469 118.507812 192.476562 117.984375 C 193.082031 117.125 192.878906 115.9375 192.019531 115.332031 C 184.828125 110.25 176.667969 109.171875 167.773438 112.125 C 166.777344 112.457031 166.238281 113.53125 166.570312 114.53125 C 166.898438 115.527344 167.976562 116.070312 168.972656 115.738281 Z M 125.160156 137.285156 C 124.1875 136.898438 123.078125 137.371094 122.6875 138.34375 C 122.53125 138.742188 118.691406 148.023438 109.234375 148.023438 C 105.414062 148.023438 102.511719 146.507812 100.398438 144.679688 C 97.472656 142.023438 95.871094 138.574219 95.777344 138.351562 C 95.390625 137.371094 94.285156 136.894531 93.308594 137.28125 C 92.332031 137.667969 91.855469 138.773438 92.242188 139.75 C 92.335938 139.992188 93.53125 142.917969 96.15625 145.832031 L 91.339844 149.765625 C 90.523438 150.429688 90.402344 151.628906 91.066406 152.441406 C 91.445312 152.902344 91.992188 153.140625 92.542969 153.140625 C 92.964844 153.140625 93.390625 153 93.746094 152.714844 L 98.992188 148.429688 C 101.554688 150.351562 104.925781 151.828125 109.234375 151.828125 C 121.308594 151.828125 126.03125 140.242188 126.226562 139.75 C 126.609375 138.773438 126.132812 137.671875 125.160156 137.285156 Z M 125.160156 137.285156 " fill-opacity="1" fill-rule="nonzero"/></g></svg>