<svg xmlns="http://www.w3.org/2000/svg" xmlns:xlink="http://www.w3.org/1999/xlink" width="400" zoomAndPan="magnify" viewBox="0 0 300 299.999988" height="400" preserveAspectRatio="xMidYMid meet" version="1.0"><path fill="#a9a0f0" d="M 212.460938 90.59375 C 214.636719 72.035156 206.570312 53.867188 191.40625 43.179688 C 179.179688 34.558594 164.84375 30 149.953125 30 C 134.652344 30 119.996094 34.789062 107.570312 43.847656 C 93.019531 54.453125 85.308594 72.355469 87.445312 90.574219 C 89.402344 107.28125 90.53125 124.28125 90.796875 141.097656 C 91.089844 159.605469 90.347656 178.335938 88.589844 196.765625 C 87.90625 203.914062 90.976562 210.710938 96.253906 214.980469 L 88.996094 255.855469 C 88.367188 259.382812 89.324219 262.976562 91.625 265.714844 C 93.902344 268.4375 97.242188 270 100.785156 270 L 199.125 270 C 202.664062 270 206.003906 268.4375 208.285156 265.714844 C 210.582031 262.976562 211.542969 259.382812 210.914062 255.855469 L 203.652344 214.96875 C 208.933594 210.699219 212 203.910156 211.320312 196.765625 C 209.5625 178.335938 208.816406 159.605469 209.109375 141.097656 C 209.375 124.285156 210.503906 107.292969 212.460938 90.59375 Z M 205.367188 263.269531 C 203.8125 265.125 201.535156 266.191406 199.125 266.191406 L 100.785156 266.191406 C 98.375 266.191406 96.097656 265.125 94.542969 263.269531 C 93.3125 261.800781 92.652344 259.972656 92.628906 258.089844 L 207.28125 258.089844 C 207.257812 259.972656 206.597656 261.800781 205.367188 263.269531 Z M 138.191406 254.28125 C 139.101562 248.574219 144.03125 244.199219 149.953125 244.199219 C 155.878906 244.199219 160.808594 248.574219 161.71875 254.28125 Z M 206.765625 254.28125 L 165.558594 254.28125 C 164.621094 246.464844 157.984375 240.386719 149.953125 240.386719 C 141.925781 240.386719 135.289062 246.464844 134.347656 254.28125 L 93.144531 254.28125 L 99.722656 217.246094 C 101.136719 217.976562 102.652344 218.550781 104.253906 218.933594 C 119.210938 222.527344 134.585938 224.351562 149.953125 224.351562 C 165.304688 224.351562 180.667969 222.53125 195.617188 218.941406 C 197.230469 218.554688 198.757812 217.976562 200.1875 217.238281 Z M 208.679688 90.148438 C 206.707031 106.976562 205.570312 124.097656 205.300781 141.039062 C 205.007812 159.6875 205.753906 178.558594 207.527344 197.125 C 208.328125 205.507812 202.824219 213.296875 194.726562 215.238281 C 180.070312 218.757812 165.007812 220.539062 149.953125 220.539062 C 134.886719 220.539062 119.808594 218.753906 105.144531 215.230469 C 97.070312 213.289062 91.582031 205.507812 92.382812 197.125 C 94.15625 178.558594 94.902344 159.6875 94.609375 141.039062 C 94.339844 124.09375 93.203125 106.964844 91.230469 90.128906 C 89.253906 73.277344 96.375 56.722656 109.8125 46.925781 C 121.585938 38.34375 135.464844 33.808594 149.953125 33.808594 C 164.054688 33.808594 177.628906 38.125 189.210938 46.292969 C 203.230469 56.175781 210.691406 72.980469 208.679688 90.148438 Z M 208.679688 90.148438 " fill-opacity="1" fill-rule="nonzero"/><path fill="#a9a0f0" d="M 194.972656 172.871094 C 194.972656 172.867188 194.972656 172.867188 194.972656 172.867188 L 193.402344 104.976562 C 193.085938 91.433594 186.953125 79.03125 176.570312 70.945312 C 170.023438 65.84375 162.300781 62.757812 154.148438 61.960938 L 154.0625 60.457031 C 154.050781 59.410156 153.203125 58.570312 152.15625 58.566406 C 151.113281 58.566406 150.261719 59.410156 150.25 60.453125 C 150.25 60.464844 150.25 60.480469 150.25 60.492188 C 150.25 60.5 150.25 60.507812 150.25 60.519531 L 150.1875 61.761719 C 140.246094 61.59375 131.371094 64.894531 123.339844 70.945312 C 112.957031 79.03125 106.820312 91.433594 106.507812 104.976562 L 104.933594 173.007812 C 104.839844 177.164062 106.382812 181.085938 109.28125 184.054688 C 112.160156 187 116.011719 188.625 120.121094 188.625 L 179.789062 188.625 C 183.902344 188.625 187.75 187 190.628906 184.054688 C 193.527344 181.085938 195.070312 177.164062 194.976562 173.007812 Z M 152.15625 67.960938 C 153.410156 69.753906 154.757812 71.320312 156.320312 72.382812 C 154.917969 73.589844 153.53125 75.097656 152.15625 76.804688 C 150.8125 74.996094 149.4375 73.425781 147.992188 72.382812 C 149.511719 71.359375 150.867188 69.769531 152.15625 67.960938 Z M 120.121094 184.8125 C 117.042969 184.8125 114.164062 183.597656 112.007812 181.390625 C 109.828125 179.164062 108.671875 176.21875 108.742188 173.097656 L 110.316406 105.0625 C 110.605469 92.671875 116.203125 81.332031 125.679688 73.949219 C 132.496094 68.640625 140.578125 65.765625 149.105469 65.582031 C 148.496094 66.8125 147.570312 68.039062 146.164062 69.019531 C 145.1875 69.699219 144.054688 70.210938 142.792969 70.539062 C 141.953125 70.757812 141.367188 71.515625 141.367188 72.382812 C 141.367188 73.25 141.953125 74.007812 142.792969 74.226562 C 144.054688 74.554688 145.1875 75.0625 146.164062 75.742188 C 148.242188 78.125 149.605469 80.980469 150.25 84.308594 C 150.261719 85.351562 151.109375 86.195312 152.15625 86.195312 C 153.199219 86.195312 154.050781 85.355469 154.058594 84.308594 C 154.570312 81.113281 156.121094 78.332031 158.148438 75.746094 C 159.125 75.0625 160.257812 74.554688 161.519531 74.226562 C 162.359375 74.007812 162.945312 73.25 162.945312 72.382812 C 162.945312 71.515625 162.359375 70.757812 161.519531 70.539062 C 160.257812 70.210938 159.125 69.699219 158.148438 69.019531 C 156.878906 68.136719 156.007812 67.050781 155.402344 65.945312 C 162.234375 66.898438 168.691406 69.636719 174.230469 73.949219 C 183.707031 81.332031 189.304688 92.671875 189.59375 105.0625 L 190.953125 163.78125 L 189.820312 161.328125 C 189.808594 161.300781 189.792969 161.273438 189.78125 161.246094 C 187.300781 156.476562 185.359375 151.453125 184.011719 146.320312 C 181.78125 137.839844 181.867188 131.769531 181.941406 126.410156 C 182.027344 120.289062 182.097656 115.003906 178.601562 108.667969 C 177.769531 107.15625 170.09375 93.921875 156.886719 93.617188 C 150.785156 93.492188 144.417969 96.265625 140.308594 100.894531 C 132.828125 109.332031 133.042969 123.886719 140.453125 136.753906 C 140.441406 136.75 140.429688 136.742188 140.417969 136.734375 C 139.125 135.824219 137.714844 134.839844 136.300781 133.859375 C 133.664062 132.019531 130.933594 130.121094 129.097656 128.753906 C 128.96875 128.660156 128.828125 128.582031 128.679688 128.519531 C 125.621094 127.269531 122.164062 127.96875 119.867188 130.304688 C 117.710938 132.503906 116.996094 135.820312 118.046875 138.753906 C 119.679688 142.191406 122.777344 145.691406 126.363281 149.210938 C 132.058594 154.988281 137.4375 160.445312 145.605469 161.953125 C 148.691406 162.519531 150.898438 162.253906 152.675781 162.039062 C 154.582031 161.804688 155.628906 161.675781 157.078125 162.511719 C 159.917969 164.144531 161.652344 168.023438 162.238281 174.03125 L 163.214844 184.816406 L 120.121094 184.816406 Z M 187.902344 181.390625 C 185.746094 183.597656 182.867188 184.8125 179.789062 184.8125 L 167.039062 184.8125 L 166.03125 173.675781 C 165.320312 166.359375 162.945312 161.492188 158.976562 159.207031 C 156.429688 157.742188 154.289062 158.003906 152.214844 158.253906 C 150.539062 158.460938 148.808594 158.671875 146.296875 158.207031 C 139.308594 156.914062 134.335938 151.875 129.074219 146.535156 C 126.289062 143.710938 123.765625 140.59375 121.570312 137.269531 C 121.105469 135.753906 121.492188 134.089844 122.585938 132.976562 C 123.742188 131.800781 125.46875 131.414062 127.035156 131.96875 C 128.914062 133.355469 131.5625 135.199219 134.125 136.984375 C 135.53125 137.960938 136.933594 138.9375 138.222656 139.847656 C 139.96875 141.078125 142.117188 141.578125 144.3125 141.300781 L 147.34375 140.574219 C 152.039062 139.605469 156.019531 142.019531 157.511719 143.105469 C 158.363281 143.722656 159.554688 143.535156 160.171875 142.683594 C 160.789062 141.832031 160.601562 140.640625 159.75 140.023438 C 157.847656 138.640625 152.757812 135.566406 146.574219 136.84375 C 146.113281 136.9375 145.65625 137.058594 145.203125 137.199219 C 137.21875 125.179688 136.3125 111.140625 143.160156 103.421875 C 146.542969 99.609375 151.769531 97.304688 156.800781 97.425781 C 168.070312 97.683594 174.976562 109.980469 175.265625 110.503906 C 178.277344 115.960938 178.210938 120.546875 178.132812 126.355469 C 178.058594 131.679688 177.96875 138.308594 180.328125 147.289062 C 181.742188 152.679688 183.78125 157.953125 186.378906 162.960938 L 191.164062 173.351562 C 191.171875 176.378906 190.019531 179.226562 187.902344 181.390625 Z M 187.902344 181.390625 " fill-opacity="1" fill-rule="nonzero"/><path fill="#a9a0f0" d="M 132.664062 165.027344 C 131.40625 164.699219 130.269531 164.1875 129.292969 163.507812 C 125.636719 160.960938 125.226562 156.734375 125.207031 155.191406 C 125.207031 155.101562 125.207031 155.019531 125.207031 154.945312 C 125.199219 153.898438 124.347656 153.058594 123.304688 153.058594 C 122.257812 153.058594 121.410156 153.898438 121.398438 154.941406 C 121.398438 154.957031 121.398438 154.96875 121.398438 154.980469 C 121.398438 154.988281 121.398438 155 121.398438 155.007812 C 121.398438 155.046875 121.398438 155.085938 121.398438 155.128906 C 121.390625 156.617188 121.023438 160.921875 117.3125 163.507812 C 116.335938 164.1875 115.199219 164.699219 113.941406 165.027344 C 113.101562 165.246094 112.515625 166.003906 112.515625 166.871094 C 112.515625 167.738281 113.101562 168.496094 113.941406 168.714844 C 115.199219 169.042969 116.335938 169.550781 117.3125 170.230469 C 119.746094 173.042969 121.121094 175.898438 121.398438 178.796875 C 121.40625 179.84375 122.257812 180.683594 123.300781 180.683594 C 124.347656 180.683594 125.195312 179.84375 125.207031 178.796875 C 125.625 175.4375 127.265625 172.730469 129.292969 170.234375 C 130.269531 169.550781 131.40625 169.042969 132.664062 168.714844 C 133.503906 168.496094 134.089844 167.738281 134.089844 166.871094 C 134.089844 166.003906 133.503906 165.246094 132.664062 165.027344 Z M 123.304688 171.292969 C 122.179688 169.636719 120.800781 168.15625 119.140625 166.871094 C 120.820312 165.785156 122.191406 164.289062 123.300781 162.449219 C 124.476562 164.347656 125.800781 165.957031 127.46875 166.871094 C 126.042969 167.941406 124.664062 169.5 123.304688 171.292969 Z M 123.304688 171.292969 " fill-opacity="1" fill-rule="nonzero"/><path fill="#a9a0f0" d="M 132.191406 100.917969 C 131.136719 100.644531 130.1875 100.21875 129.371094 99.648438 C 126.324219 97.527344 125.980469 93.996094 125.960938 92.699219 C 125.960938 92.621094 125.960938 92.546875 125.960938 92.480469 C 125.953125 91.4375 125.101562 90.59375 124.058594 90.59375 C 124.058594 90.59375 124.058594 90.59375 124.054688 90.59375 C 123.011719 90.59375 122.164062 91.433594 122.152344 92.480469 C 122.152344 92.492188 122.152344 92.503906 122.152344 92.515625 C 122.152344 92.527344 122.152344 92.535156 122.152344 92.546875 C 122.152344 92.574219 122.152344 92.605469 122.152344 92.632812 C 122.144531 93.871094 121.84375 97.488281 118.742188 99.648438 C 117.925781 100.21875 116.976562 100.644531 115.917969 100.917969 C 115.078125 101.136719 114.492188 101.894531 114.492188 102.761719 C 114.492188 103.632812 115.078125 104.390625 115.917969 104.605469 C 116.976562 104.882812 117.925781 105.308594 118.742188 105.875 C 120.566406 107.835938 121.6875 110.238281 122.148438 113.046875 C 122.160156 114.089844 123.011719 114.933594 124.054688 114.933594 C 125.097656 114.933594 125.949219 114.089844 125.960938 113.046875 C 126.570312 110.101562 127.710938 107.714844 129.371094 105.875 C 130.1875 105.308594 131.136719 104.882812 132.191406 104.605469 C 133.03125 104.386719 133.617188 103.632812 133.617188 102.761719 C 133.617188 101.894531 133.03125 101.136719 132.191406 100.917969 Z M 124.058594 106.058594 C 123.328125 104.878906 122.320312 103.730469 120.9375 102.761719 C 122.320312 101.792969 123.328125 100.644531 124.054688 99.464844 C 124.785156 100.644531 125.792969 101.792969 127.175781 102.761719 C 125.792969 103.730469 124.785156 104.878906 124.058594 106.058594 Z M 124.058594 106.058594 " fill-opacity="1" fill-rule="nonzero"/></svg>