<svg xmlns="http://www.w3.org/2000/svg" xmlns:xlink="http://www.w3.org/1999/xlink" width="400" zoomAndPan="magnify" viewBox="0 0 300 299.999988" height="400" preserveAspectRatio="xMidYMid meet" version="1.0"><defs><clipPath id="46c0a8a81f"><path d="M 42.898438 30 L 257.398438 30 L 257.398438 270 L 42.898438 270 Z M 42.898438 30 " clip-rule="nonzero"/></clipPath></defs><path fill="#a9a0f0" d="M 129.863281 54.230469 C 139.914062 56.628906 150.039062 57.828125 160.160156 57.828125 C 170.285156 57.828125 180.410156 56.628906 190.460938 54.230469 C 191.484375 53.984375 192.117188 52.957031 191.871094 51.933594 C 191.628906 50.910156 190.601562 50.28125 189.578125 50.523438 C 170.058594 55.183594 150.265625 55.183594 130.746094 50.523438 C 129.726562 50.28125 128.695312 50.910156 128.453125 51.933594 C 128.207031 52.957031 128.839844 53.984375 129.863281 54.230469 Z M 129.863281 54.230469 " fill-opacity="1" fill-rule="nonzero"/><g clip-path="url(#46c0a8a81f)"><path fill="#a9a0f0" d="M 240.519531 114.824219 C 236.117188 111.980469 232.277344 109.488281 231.613281 106.273438 C 235.152344 103.84375 237.382812 100.988281 237.382812 97.648438 L 237.382812 52.828125 C 237.382812 38 192.355469 30 149.988281 30 C 107.625 30 62.597656 38 62.597656 52.828125 L 62.597656 97.648438 C 62.597656 100.984375 64.816406 103.835938 68.367188 106.269531 C 67.707031 109.484375 63.863281 111.980469 59.460938 114.820312 C 52.117188 119.566406 42.972656 125.472656 42.972656 138.316406 L 42.972656 183.5625 C 42.972656 201.375 48.523438 230.019531 55.675781 240.261719 C 62.695312 250.308594 109.746094 270 149.988281 270 C 190.234375 270 237.285156 250.308594 244.304688 240.261719 C 251.457031 230.019531 257.003906 201.375 257.003906 183.5625 L 257.003906 138.316406 C 257.003906 125.472656 247.863281 119.566406 240.519531 114.824219 Z M 89.996094 39.882812 C 105.996094 35.964844 127.304688 33.808594 149.988281 33.808594 C 172.675781 33.808594 193.984375 35.964844 209.984375 39.882812 C 227.375 44.140625 233.570312 49.359375 233.570312 52.828125 C 233.570312 56.292969 227.375 61.515625 209.984375 65.773438 C 193.984375 69.691406 172.675781 71.847656 149.988281 71.847656 C 127.304688 71.847656 105.996094 69.691406 89.996094 65.773438 C 72.601562 61.515625 66.40625 56.296875 66.40625 52.828125 C 66.40625 49.359375 72.605469 44.140625 89.996094 39.882812 Z M 66.40625 97.648438 L 66.40625 59.914062 C 78.125 70.1875 114.964844 75.65625 149.988281 75.65625 C 185.015625 75.65625 221.855469 70.1875 233.570312 59.914062 L 233.570312 97.648438 C 233.570312 101.140625 227.933594 105.398438 215.820312 109.035156 L 215.820312 87.894531 C 215.820312 86.839844 214.96875 85.988281 213.917969 85.988281 C 212.863281 85.988281 212.011719 86.839844 212.011719 87.894531 L 212.011719 110.101562 C 206.070312 111.652344 198.847656 113.054688 190.25 114.191406 C 190.21875 114.195312 190.1875 114.199219 190.15625 114.203125 L 190.15625 100.695312 C 190.15625 99.644531 189.300781 98.792969 188.25 98.792969 C 187.199219 98.792969 186.347656 99.644531 186.347656 100.695312 L 186.347656 114.671875 C 175.054688 115.980469 162.578125 116.667969 149.988281 116.667969 C 141.175781 116.667969 132.585938 116.339844 124.339844 115.699219 L 124.339844 89.160156 C 124.339844 88.109375 123.484375 87.253906 122.433594 87.253906 C 121.382812 87.253906 120.527344 88.109375 120.527344 89.160156 L 120.527344 115.378906 L 114.183594 114.734375 L 114.183594 95.746094 C 114.183594 94.691406 113.328125 93.839844 112.277344 93.839844 C 111.226562 93.839844 110.371094 94.691406 110.371094 95.746094 L 110.371094 114.273438 C 80.214844 110.394531 66.40625 103.070312 66.40625 97.648438 Z M 241.179688 238.078125 C 238.597656 241.777344 227.09375 248.78125 207.949219 255.40625 C 196.308594 259.433594 173.300781 266.191406 149.988281 266.191406 C 126.675781 266.191406 103.667969 259.433594 92.027344 255.40625 C 72.886719 248.78125 61.382812 241.78125 58.796875 238.078125 C 54.957031 232.582031 51.167969 219.742188 48.898438 206.28125 C 57.710938 219.191406 70.140625 228.410156 86.65625 234.328125 C 102.800781 240.109375 122.921875 242.800781 149.988281 242.800781 C 177.054688 242.800781 197.179688 240.109375 213.320312 234.328125 C 229.839844 228.410156 242.269531 219.191406 251.078125 206.28125 C 248.8125 219.742188 245.019531 232.582031 241.179688 238.078125 Z M 253.195312 183.5625 C 253.195312 187.613281 252.917969 192.039062 252.425781 196.582031 C 233.121094 233.949219 189.8125 238.992188 149.988281 238.992188 C 110.167969 238.992188 66.859375 233.953125 47.550781 196.582031 C 47.058594 192.042969 46.785156 187.613281 46.785156 183.5625 L 46.785156 138.3125 C 46.785156 127.546875 54.617188 122.488281 61.527344 118.023438 C 66.03125 115.113281 70.335938 112.332031 71.777344 108.28125 C 84.34375 114.761719 106.3125 117.707031 114.84375 118.644531 C 125.929688 119.859375 137.753906 120.476562 149.988281 120.476562 C 164.210938 120.476562 178.308594 119.609375 190.75 117.964844 C 200.039062 116.742188 217.484375 113.832031 228.207031 108.289062 C 229.652344 112.335938 233.949219 115.113281 238.453125 118.023438 C 245.363281 122.488281 253.195312 127.546875 253.195312 138.3125 Z M 253.195312 183.5625 " fill-opacity="1" fill-rule="nonzero"/></g><path fill="#a9a0f0" d="M 157.90625 160.296875 C 151.789062 160.296875 146.816406 164.398438 146.816406 169.433594 C 146.816406 174.472656 151.789062 178.570312 157.90625 178.570312 C 164.019531 178.570312 168.992188 174.472656 168.992188 169.433594 C 168.992188 164.398438 164.019531 160.296875 157.90625 160.296875 Z M 157.90625 174.761719 C 153.890625 174.761719 150.625 172.371094 150.625 169.433594 C 150.625 166.496094 153.890625 164.105469 157.90625 164.105469 C 161.917969 164.105469 165.183594 166.496094 165.183594 169.433594 C 165.183594 172.371094 161.917969 174.761719 157.90625 174.761719 Z M 157.90625 174.761719 " fill-opacity="1" fill-rule="nonzero"/><path fill="#a9a0f0" d="M 167.09375 185.3125 C 166.042969 185.289062 165.1875 186.160156 165.183594 187.210938 C 165.183594 187.3125 165.050781 197.171875 157.554688 200.203125 C 149.757812 203.355469 141.207031 198.441406 141.089844 198.375 C 140.183594 197.839844 139.019531 198.140625 138.484375 199.042969 C 137.949219 199.949219 138.246094 201.117188 139.152344 201.652344 C 139.460938 201.835938 145.042969 205.078125 151.847656 205.078125 C 154.140625 205.078125 156.570312 204.710938 158.980469 203.734375 C 168.878906 199.734375 168.992188 187.726562 168.992188 187.214844 C 168.992188 186.167969 168.144531 185.316406 167.09375 185.3125 Z M 167.09375 185.3125 " fill-opacity="1" fill-rule="nonzero"/><path fill="#a9a0f0" d="M 167.582031 150.070312 C 160.703125 144.117188 154.203125 138.492188 151.800781 131.046875 C 151.550781 130.261719 150.816406 129.726562 149.988281 129.726562 C 149.164062 129.726562 148.429688 130.261719 148.175781 131.046875 C 145.773438 138.496094 139.277344 144.117188 132.398438 150.070312 C 128.953125 153.050781 125.460938 156.074219 122.363281 159.410156 C 108.597656 145.644531 91.933594 138.296875 72.789062 137.566406 C 72.128906 137.539062 71.5 137.863281 71.132812 138.414062 C 70.765625 138.964844 70.710938 139.667969 70.988281 140.269531 C 77.304688 153.933594 84.988281 164.207031 94.332031 171.433594 C 85.722656 170.515625 76.304688 171.050781 66.140625 173.046875 C 65.5 173.171875 64.96875 173.613281 64.730469 174.222656 C 64.496094 174.828125 64.585938 175.515625 64.96875 176.039062 C 77.289062 192.886719 92.695312 201.132812 111.941406 201.128906 C 113.367188 201.128906 114.820312 201.082031 116.292969 200.992188 C 117.535156 203.265625 119.039062 205.441406 120.792969 207.480469 C 128.113281 215.988281 139.027344 221.066406 149.988281 221.066406 C 160.953125 221.066406 171.867188 215.988281 179.183594 207.480469 C 186.191406 199.339844 189.179688 189.09375 187.601562 178.640625 C 185.648438 165.703125 176.464844 157.753906 167.582031 150.070312 Z M 75.832031 141.5625 C 92.734375 142.917969 107.527344 149.878906 119.863281 162.292969 C 116.652344 166.289062 114.101562 170.785156 112.847656 176.183594 C 109.960938 174.929688 106.933594 173.90625 103.777344 173.109375 C 92.367188 166.78125 83.203125 156.441406 75.832031 141.5625 Z M 69.902344 176.230469 C 86.300781 173.460938 100.503906 174.757812 112.199219 180.074219 C 111.539062 186.019531 112.347656 191.863281 114.53125 197.261719 C 96.324219 197.964844 81.675781 191.070312 69.902344 176.230469 Z M 176.296875 205 C 169.691406 212.675781 159.859375 217.257812 149.988281 217.257812 C 140.121094 217.257812 130.285156 212.675781 123.683594 205 C 117.410156 197.710938 114.734375 188.550781 116.144531 179.207031 C 117.886719 167.660156 126.53125 160.183594 134.890625 152.949219 C 140.898438 147.753906 146.628906 142.792969 149.988281 136.480469 C 153.347656 142.792969 159.082031 147.753906 165.085938 152.949219 C 173.449219 160.183594 182.089844 167.660156 183.835938 179.207031 C 185.246094 188.550781 182.566406 197.710938 176.296875 205 Z M 176.296875 205 " fill-opacity="1" fill-rule="nonzero"/><path fill="#a9a0f0" d="M 239.488281 135.621094 C 223.660156 140.125 207.613281 140.125 191.78125 135.621094 C 190.769531 135.335938 189.714844 135.921875 189.429688 136.933594 C 189.140625 137.945312 189.726562 138.996094 190.738281 139.285156 C 199 141.636719 207.316406 142.8125 215.636719 142.8125 C 223.953125 142.8125 232.273438 141.636719 240.53125 139.285156 C 241.542969 138.996094 242.132812 137.945312 241.84375 136.933594 C 241.554688 135.921875 240.5 135.335938 239.488281 135.621094 Z M 239.488281 135.621094 " fill-opacity="1" fill-rule="nonzero"/></svg>