<svg xmlns="http://www.w3.org/2000/svg" xmlns:xlink="http://www.w3.org/1999/xlink" width="400" zoomAndPan="magnify" viewBox="0 0 300 299.999988" height="400" preserveAspectRatio="xMidYMid meet" version="1.0"><defs><clipPath id="e237b119c4"><path d="M 259 146 L 270 146 L 270 150 L 259 150 Z M 259 146 " clip-rule="nonzero"/></clipPath></defs><path fill="#a9a0f0" d="M 102.964844 168.289062 C 102.957031 168.289062 102.957031 168.289062 102.957031 168.285156 L 102.964844 168.289062 C 103.007812 168.332031 103.988281 168.480469 104.082031 168.484375 C 104.839844 168.527344 105.589844 168.515625 106.34375 168.410156 C 108.578125 168.09375 110.40625 166.800781 112 165.269531 C 112 165.265625 112 165.265625 112.007812 165.265625 L 112 165.269531 C 111.882812 165.410156 113.1875 166.257812 113.269531 166.304688 C 114.644531 167.125 116.1875 167.699219 117.785156 167.863281 C 121.769531 168.277344 125.832031 165.082031 128.015625 162.007812 C 128.164062 162.03125 128.074219 162.300781 128.140625 162.433594 C 128.289062 162.71875 128.464844 162.996094 128.648438 163.257812 C 129.261719 164.125 130.03125 164.964844 130.996094 165.433594 C 135.929688 167.816406 140.527344 163.488281 141.71875 158.953125 C 141.773438 158.96875 141.773438 158.136719 141.773438 158.105469 C 141.785156 157.484375 141.824219 156.867188 141.824219 156.246094 C 141.832031 154.34375 141.84375 152.433594 141.640625 150.539062 C 140.726562 142.128906 139.511719 131.953125 137.894531 123.042969 C 137.929688 122.957031 138.644531 124.3125 139.136719 124.613281 C 139.253906 124.6875 139.609375 124.929688 139.742188 124.761719 C 139.878906 124.59375 139.777344 124.195312 139.746094 124.007812 C 139.621094 123.34375 139.371094 122.691406 139.128906 122.066406 C 138.296875 119.933594 137.320312 117.792969 136.207031 115.789062 C 135.964844 115.347656 135.398438 113.980469 134.773438 113.90625 C 134.523438 113.875 134.347656 114.546875 134.292969 114.703125 C 133.964844 115.6875 133.765625 116.734375 133.625 117.765625 C 133.609375 117.917969 133.59375 118.074219 133.59375 118.230469 C 133.59375 118.980469 134.160156 118.855469 134.472656 119.351562 C 134.730469 119.773438 134.765625 120.328125 134.839844 120.804688 C 135.308594 123.890625 135.871094 127.621094 136.171875 130.726562 C 136.238281 131.441406 136.371094 132.273438 136.4375 132.976562 C 136.5625 134.417969 136.6875 135.863281 136.832031 137.304688 C 137.3125 142.027344 137.878906 146.734375 138.296875 151.460938 C 138.460938 153.316406 138.6875 155.171875 138.792969 157.035156 C 138.84375 157.921875 139.003906 158.941406 138.710938 159.804688 C 138.222656 161.242188 136.15625 161.699219 134.859375 161.707031 C 131.835938 161.726562 129.835938 159.734375 129.554688 156.769531 C 129.554688 156.730469 129.121094 157.097656 129.105469 157.113281 C 128.699219 157.53125 128.332031 157.992188 127.957031 158.441406 C 126.984375 159.617188 126.101562 160.96875 124.976562 161.996094 C 123.394531 163.4375 120.804688 165.015625 118.566406 164.664062 C 117.234375 164.453125 115.925781 163.667969 114.738281 163.046875 C 114.710938 162.714844 115.0625 162.347656 115.304688 162.039062 C 115.835938 161.367188 116.882812 160.472656 117.199219 159.664062 C 118.160156 157.171875 117.394531 154.523438 116.375 152.1875 C 116.085938 151.535156 115.144531 150.257812 114.460938 149.902344 C 113.972656 149.644531 113.40625 149.953125 113.003906 150.222656 C 112.046875 150.847656 111.234375 151.667969 110.523438 152.554688 C 109.476562 153.855469 108.253906 155.207031 107.636719 156.777344 C 106.863281 158.726562 107.511719 161.046875 108.875 162.558594 C 109.066406 162.546875 108.609375 162.835938 108.453125 162.957031 C 108.125 163.222656 107.769531 163.449219 107.371094 163.617188 C 106.21875 164.105469 105.089844 164.050781 103.890625 163.746094 C 102.675781 163.441406 101.433594 162.820312 100.636719 161.824219 C 100.328125 161.441406 100.027344 159.582031 99.363281 160.269531 C 98.347656 161.316406 98.601562 162.867188 99.019531 164.113281 C 99.867188 166.59375 102.148438 169.011719 101.882812 171.792969 C 101.859375 171.578125 101.625 172.140625 101.492188 172.3125 C 101.175781 172.699219 100.867188 173.089844 100.535156 173.464844 C 99.511719 174.625 98.402344 175.722656 97.171875 176.664062 C 93.527344 179.449219 89.457031 181.953125 84.925781 182.910156 C 81.207031 183.699219 77.09375 183.609375 75.371094 179.628906 C 75.09375 178.972656 74.863281 178.304688 74.769531 177.597656 C 74.578125 176.242188 74.613281 174.84375 74.820312 173.496094 C 74.855469 173.28125 75.136719 172.339844 74.886719 172.179688 C 74.746094 172.089844 74.539062 172.738281 74.519531 172.796875 C 74.222656 173.597656 73.953125 174.40625 73.695312 175.21875 C 72.863281 177.886719 72.65625 181.125 73.9375 183.695312 C 76.316406 188.472656 81.863281 188.042969 86.214844 186.617188 C 87.613281 186.160156 88.957031 185.609375 90.289062 184.988281 C 96.714844 181.972656 104.78125 176.507812 102.964844 168.289062 Z M 109.460938 158.164062 C 109.441406 158.171875 110.035156 159.378906 110.050781 159.402344 C 110.183594 159.621094 110.359375 159.820312 110.539062 160 C 111.082031 160.566406 111.75 160.988281 112.5625 160.839844 C 113.054688 160.75 113.570312 160.617188 113.894531 160.25 C 114.601562 159.441406 115.5625 158.804688 115.410156 157.675781 C 115.34375 157.191406 114.910156 155.890625 114.703125 155.453125 C 114.421875 154.855469 114.070312 153.832031 113.414062 153.53125 C 112.921875 153.308594 112.390625 153.695312 112.03125 154 C 111.082031 154.8125 109.640625 156.5 109.460938 158.164062 Z M 109.460938 158.164062 " fill-opacity="1" fill-rule="evenodd"/><path fill="#a9a0f0" d="M 201.914062 163.398438 C 201.914062 163.386719 201.921875 163.382812 201.945312 163.390625 L 201.914062 163.398438 C 201.929688 163.4375 202.820312 165.746094 202.738281 166.457031 C 202.738281 166.457031 202.570312 166.601562 202.546875 166.625 C 202.425781 166.738281 202.296875 166.84375 202.179688 166.953125 C 201.746094 167.339844 201.308594 167.726562 200.871094 168.105469 C 199.664062 169.132812 198.417969 170.117188 197.171875 171.097656 C 193.433594 174.039062 189.113281 178.046875 184.085938 178.808594 C 182.726562 179.015625 181.308594 178.566406 180.074219 178.066406 C 178.875 177.578125 177.703125 177.003906 176.753906 176.128906 C 173.0625 172.742188 173.746094 166.894531 175.242188 162.703125 C 174.886719 163.050781 174.683594 163.679688 174.472656 164.109375 C 173.859375 165.359375 173.371094 166.671875 173.082031 168.023438 C 172.011719 173.019531 172.417969 179.636719 177.855469 182.140625 C 178.648438 182.507812 179.496094 182.757812 180.371094 182.863281 C 188.085938 183.804688 194.859375 178.484375 199.664062 173.378906 C 201.308594 171.621094 202.925781 169.695312 204.109375 167.617188 C 204.421875 167.074219 204.59375 166.167969 204.585938 165.855469 C 204.535156 164.597656 204.421875 163.503906 204.230469 162.253906 C 205.492188 161.320312 206.527344 161.023438 207.660156 159.871094 C 207.675781 159.851562 207.714844 160.097656 207.714844 160.109375 C 207.734375 160.238281 207.773438 160.359375 207.8125 160.480469 C 207.945312 160.890625 208.113281 161.289062 208.308594 161.675781 C 208.882812 162.792969 209.691406 163.894531 210.808594 164.566406 C 213.066406 165.917969 216.246094 165.046875 218.082031 163.414062 C 219.339844 162.292969 220.179688 160.800781 220.964844 159.355469 C 221.003906 159.285156 221.09375 159.574219 221.109375 159.597656 C 221.183594 159.75 221.257812 159.902344 221.351562 160.050781 C 221.628906 160.53125 221.945312 161.003906 222.292969 161.441406 C 223.398438 162.808594 225.003906 163.507812 226.800781 163.003906 C 227.453125 162.820312 228.070312 162.480469 228.660156 162.160156 C 233.46875 159.527344 231.621094 154.273438 231.1875 151.007812 C 231.039062 150.980469 230.675781 151.363281 230.570312 151.445312 C 229.996094 151.898438 229.144531 152.535156 228.863281 153.222656 C 228.667969 153.722656 229.121094 154.441406 229.265625 154.914062 C 229.753906 156.539062 229.785156 158.261719 227.714844 158.65625 C 227.277344 158.738281 226.824219 158.742188 226.394531 158.652344 C 225.796875 158.527344 225.328125 158.167969 224.929688 157.75 C 224.421875 157.21875 223.992188 156.625 223.644531 155.988281 C 223.132812 155.035156 222.726562 153.886719 222.542969 152.820312 C 222.347656 152.867188 222.089844 153.914062 222.023438 154.070312 C 221.515625 155.242188 221.011719 156.410156 220.210938 157.433594 C 218.949219 159.042969 216.925781 160.730469 214.683594 160.699219 C 211.5625 160.652344 209.933594 156.617188 210.128906 154.089844 C 207.945312 155.648438 205.914062 157.683594 203.363281 158.726562 C 203.304688 158.75 203.347656 158.597656 203.316406 158.542969 C 203.242188 158.417969 203.152344 158.300781 203.070312 158.183594 C 202.804688 157.8125 202.554688 157.429688 202.277344 157.066406 C 201.460938 156 200.613281 154.835938 199.476562 154.058594 C 197.820312 152.925781 195.933594 153.113281 194.460938 154.433594 C 192.929688 155.816406 191.683594 157.957031 191.214844 159.929688 C 191.101562 160.394531 191.085938 160.875 191.070312 161.351562 C 191.03125 163.265625 192.292969 164.085938 194.179688 164.359375 C 196.734375 164.726562 199.480469 164.136719 201.914062 163.398438 Z M 194.769531 160.007812 C 194.769531 160.007812 195.035156 159.226562 195.078125 159.125 C 195.304688 158.605469 196.078125 157.421875 196.976562 157.71875 C 197.617188 157.929688 198.0625 158.59375 198.363281 159.074219 C 198.449219 159.210938 198.695312 159.679688 198.695312 159.679688 C 198.695312 159.679688 198.003906 159.984375 197.722656 160.046875 C 197.4375 160.113281 196.929688 160.183594 196.507812 160.1875 C 195.640625 160.191406 194.769531 160.007812 194.769531 160.007812 Z M 194.769531 160.007812 " fill-opacity="1" fill-rule="evenodd"/><path fill="#a9a0f0" d="M 226.03125 166.882812 C 226.015625 166.808594 226.871094 166.253906 226.945312 166.335938 C 227.195312 166.609375 227.238281 167.253906 227.300781 167.59375 C 227.511719 168.882812 227.382812 170.417969 225.964844 171.039062 C 225.488281 171.242188 224.988281 171.253906 224.5 171.128906 C 224.226562 171.058594 223.863281 170.800781 223.59375 170.90625 C 222.769531 171.230469 222.671875 172.613281 221.539062 172.480469 C 220.285156 172.335938 219.484375 170.679688 218.140625 171.167969 C 216.96875 171.589844 215.964844 172.613281 215.039062 173.371094 C 213.058594 174.984375 211.125 176.765625 208.800781 177.925781 C 207.394531 178.625 205.953125 178.558594 204.480469 178.058594 C 204.214844 177.96875 203.386719 177.777344 203.265625 177.488281 C 203.203125 177.351562 203.652344 177.390625 203.703125 177.390625 C 204.308594 177.402344 204.910156 177.390625 205.507812 177.316406 C 207.003906 177.136719 208.371094 176.652344 209.609375 175.84375 C 211.097656 174.882812 212.320312 173.617188 213.527344 172.367188 C 214.441406 171.417969 215.386719 170.390625 216.59375 169.769531 C 217.273438 169.425781 218.058594 169.214844 218.828125 169.375 C 219.652344 169.546875 220.316406 170.066406 221.199219 169.84375 C 222.316406 169.5625 222.640625 168.175781 223.675781 167.894531 C 224.394531 167.699219 224.695312 169.144531 225.34375 168.734375 C 226.03125 168.300781 225.414062 167.25 226.03125 166.882812 Z M 226.03125 166.882812 " fill-opacity="1" fill-rule="evenodd"/><path fill="#a9a0f0" d="M 205.75 136.96875 C 205.816406 136.988281 205.683594 137.003906 205.703125 136.941406 C 205.757812 136.8125 205.886719 136.511719 205.9375 136.382812 C 206.082031 136.011719 206.253906 135.648438 206.429688 135.285156 C 206.972656 134.148438 207.660156 132.824219 208.945312 132.320312 C 209.773438 132 210.695312 132 211.578125 131.957031 C 213.722656 131.847656 216.042969 132.054688 218.15625 132.4375 C 219.222656 132.632812 220.730469 132.976562 220.988281 134.171875 C 221.265625 135.472656 220.242188 136.875 219.402344 137.792969 C 217.273438 140.125 214.109375 141.988281 210.890625 142.472656 C 209.828125 142.636719 208.769531 142.675781 207.707031 142.527344 C 207.402344 142.488281 206.90625 142.457031 206.679688 142.242188 C 206.527344 142.101562 207.011719 141.878906 207.085938 141.847656 C 207.628906 141.601562 208.203125 141.421875 208.753906 141.207031 C 210.628906 140.476562 212.566406 139.773438 214.265625 138.714844 C 214.578125 138.523438 215.65625 137.957031 215.617188 137.464844 C 215.613281 137.328125 215.152344 137.296875 215.066406 137.28125 C 214.433594 137.175781 213.792969 137.125 213.15625 137.0625 C 211.230469 136.863281 207.691406 136.9375 205.75 136.96875 Z M 205.75 136.96875 " fill-opacity="1" fill-rule="evenodd"/><path fill="#a9a0f0" d="M 226.597656 139.34375 C 226.546875 139.339844 226.433594 139.246094 226.363281 139.226562 C 226.175781 139.160156 225.980469 139.089844 225.789062 139.011719 C 225.132812 138.742188 224.535156 138.351562 224.492188 137.609375 C 224.410156 136.105469 225.773438 134.335938 227.007812 133.507812 C 227.859375 132.925781 228.765625 133.023438 229.632812 133.675781 C 230.789062 134.542969 230.84375 135.808594 230.628906 136.921875 C 230.34375 138.40625 229.195312 139.851562 228.238281 140.953125 C 224.21875 145.582031 212.449219 151.605469 211.421875 150.972656 C 211.675781 151.011719 212.304688 150.53125 212.5 150.414062 C 213.550781 149.8125 214.621094 149.238281 215.65625 148.613281 C 218.109375 147.132812 220.40625 145.414062 222.640625 143.644531 C 224.378906 142.261719 225.308594 141.125 226.597656 139.34375 Z M 226.597656 139.34375 L 226.613281 139.316406 C 226.613281 139.335938 226.605469 139.34375 226.597656 139.34375 Z M 227.875 137.394531 C 227.859375 137.375 227.574219 137.191406 227.558594 137.179688 C 227.429688 137.082031 227.332031 136.964844 227.261719 136.835938 C 227.011719 136.417969 227.011719 135.914062 227.578125 135.667969 C 228.039062 135.46875 228.53125 135.640625 228.613281 136.054688 C 228.675781 136.34375 228.371094 137.148438 227.875 137.394531 Z M 227.875 137.394531 " fill-opacity="1" fill-rule="evenodd"/><path fill="#a9a0f0" d="M 159.621094 137.5 C 159.507812 137.570312 159.535156 138.03125 159.527344 138.140625 C 159.46875 138.769531 159.421875 139.402344 159.378906 140.03125 C 159.324219 140.820312 159.089844 141.882812 159.324219 142.660156 C 159.492188 143.230469 160.285156 143.75 160.699219 144.140625 C 161.53125 144.917969 162.277344 145.800781 163.0625 146.625 C 163.683594 147.28125 164.316406 147.933594 164.914062 148.605469 C 165.011719 148.710938 165.515625 149.082031 165.503906 149.238281 C 165.488281 149.457031 164.957031 149.859375 164.816406 150.015625 C 164.15625 150.742188 163.53125 151.503906 162.957031 152.289062 C 160.933594 155.050781 159.777344 158.519531 160.761719 161.867188 C 161.121094 163.101562 161.757812 164.632812 163.199219 164.960938 C 165.277344 165.433594 167.238281 164.035156 168.628906 162.773438 C 171.355469 160.292969 174.8125 156.945312 173.363281 153.042969 C 172.84375 151.636719 171.664062 150.53125 170.492188 149.589844 C 169.941406 149.144531 169.007812 148.703125 169.246094 147.894531 C 169.542969 146.898438 170.371094 146 171 145.183594 C 172.246094 143.5625 173.605469 141.953125 174.539062 140.140625 C 174.988281 139.28125 175.054688 138.351562 175.054688 137.410156 C 175.054688 137.175781 175.128906 136.707031 175.015625 136.488281 C 175.007812 136.476562 174.335938 137.375 174.292969 137.445312 C 173.816406 138.109375 173.332031 138.769531 172.847656 139.433594 C 171.589844 141.175781 170.273438 142.867188 168.929688 144.546875 C 168.671875 144.867188 168.0625 146.046875 167.617188 146.15625 C 167.457031 146.199219 166.9375 145.675781 166.816406 145.589844 C 166.152344 145.089844 164.808594 144.332031 164.429688 143.613281 C 164.03125 142.871094 166.203125 142.945312 166.023438 142.445312 C 165.8125 141.84375 164.84375 141.246094 164.355469 140.878906 C 163.0625 139.914062 160.878906 138.5 159.621094 137.5 Z M 166.257812 150.804688 C 166.265625 150.765625 166.105469 150.988281 166.089844 151.015625 C 165.976562 151.175781 165.863281 151.335938 165.75 151.492188 C 165.382812 152.023438 165.027344 152.5625 164.679688 153.109375 C 163.8125 154.496094 162.835938 155.96875 162.421875 157.554688 C 162.246094 158.234375 162.179688 159.066406 162.933594 159.441406 C 163.5625 159.75 164.460938 159.632812 165.132812 159.558594 C 167.285156 159.328125 170.507812 158.035156 170.5625 155.597656 C 170.597656 153.949219 167.425781 151.742188 166.257812 150.804688 Z M 166.257812 150.804688 " fill-opacity="1" fill-rule="evenodd"/><path fill="#a9a0f0" d="M 162.296875 168.867188 C 162.289062 168.820312 162.058594 169.113281 162.042969 169.132812 C 161.917969 169.324219 161.796875 169.515625 161.6875 169.714844 C 161.339844 170.332031 161.027344 170.96875 160.78125 171.625 C 160.121094 173.398438 159.683594 175.488281 160.125 177.34375 C 160.289062 178.011719 160.589844 179.039062 161.480469 179.132812 C 162.851562 179.273438 163.605469 177.78125 163.894531 176.796875 C 163.96875 176.535156 164.230469 175.875 164.042969 175.613281 C 164.011719 175.5625 163.925781 175.738281 163.917969 175.753906 C 163.796875 175.984375 163.679688 176.210938 163.542969 176.433594 C 163.277344 176.886719 162.609375 177.582031 161.789062 177.296875 C 161.046875 177.039062 160.890625 175.84375 160.9375 175.195312 C 161.054688 173.300781 161.714844 170.820312 162.296875 168.867188 Z M 162.296875 168.867188 " fill-opacity="1" fill-rule="evenodd"/><path fill="#a9a0f0" d="M 158.140625 127.871094 C 158.074219 127.84375 158.238281 127.761719 158.277344 127.707031 C 158.359375 127.605469 158.4375 127.503906 158.519531 127.40625 C 158.796875 127.046875 159.078125 126.6875 159.359375 126.332031 C 159.863281 125.679688 160.371094 125.03125 160.890625 124.390625 C 161.011719 124.25 161.277344 123.761719 161.480469 123.699219 C 161.539062 123.679688 161.707031 123.886719 161.734375 123.917969 C 162.007812 124.160156 162.300781 124.378906 162.582031 124.609375 C 163.40625 125.28125 164.214844 125.96875 165.027344 126.648438 C 165.292969 126.867188 165.859375 127.148438 165.996094 127.480469 C 166.03125 127.566406 165.683594 127.867188 165.640625 127.917969 C 165.246094 128.355469 164.855469 128.796875 164.460938 129.234375 C 163.988281 129.765625 163.511719 130.292969 163.042969 130.824219 C 162.914062 130.960938 162.726562 131.300781 162.535156 131.367188 C 162.378906 131.421875 161.886719 130.875 161.78125 130.792969 C 161.011719 130.1875 158.933594 128.441406 158.140625 127.871094 Z M 158.140625 127.871094 " fill-opacity="1" fill-rule="evenodd"/><path fill="#a9a0f0" d="M 166.015625 127.46875 C 165.949219 127.445312 166.113281 127.363281 166.152344 127.308594 C 166.234375 127.207031 166.308594 127.105469 166.394531 127.003906 C 166.671875 126.648438 166.953125 126.289062 167.230469 125.929688 C 167.738281 125.28125 168.242188 124.632812 168.765625 123.992188 C 168.886719 123.851562 169.148438 123.359375 169.355469 123.300781 C 169.414062 123.28125 169.578125 123.484375 169.609375 123.519531 C 169.882812 123.761719 170.175781 123.980469 170.457031 124.210938 C 171.277344 124.882812 172.085938 125.566406 172.902344 126.25 C 173.167969 126.46875 173.734375 126.75 173.867188 127.078125 C 173.90625 127.167969 173.558594 127.46875 173.515625 127.515625 C 173.121094 127.953125 172.730469 128.394531 172.335938 128.835938 C 171.859375 129.363281 171.386719 129.894531 170.917969 130.425781 C 170.789062 130.5625 170.597656 130.898438 170.410156 130.964844 C 170.253906 131.023438 169.761719 130.476562 169.65625 130.390625 C 168.886719 129.789062 166.808594 128.042969 166.015625 127.46875 Z M 166.015625 127.46875 " fill-opacity="1" fill-rule="evenodd"/><path fill="#a9a0f0" d="M 143.484375 110.273438 C 143.507812 110.511719 143.492188 110.886719 143.386719 111.171875 C 142.96875 112.28125 141.925781 114.039062 142.070312 115.226562 C 142.132812 115.769531 142.847656 116.0625 143 116.601562 C 143.46875 118.222656 143.652344 120.007812 143.949219 121.660156 C 145.625 130.976562 147.207031 140.292969 148.71875 149.632812 C 149.449219 154.097656 150.308594 158.546875 150.710938 163.050781 C 150.835938 164.519531 150.957031 165.996094 151.015625 167.472656 C 151.03125 167.957031 151.023438 168.445312 151.015625 168.933594 C 151.015625 169.191406 150.765625 169.84375 150.996094 169.703125 C 151.429688 169.449219 151.625 167.800781 151.746094 167.398438 C 152.484375 164.8125 152.972656 162.222656 152.996094 159.546875 C 153.101562 149 150.234375 138.566406 148.421875 128.210938 C 148.066406 126.15625 147.617188 124.109375 147.335938 122.046875 C 147.242188 121.34375 146.847656 120.289062 147.03125 119.585938 C 147.242188 118.828125 150.097656 121.429688 149.417969 119.761719 C 149.351562 119.59375 149.273438 119.429688 149.199219 119.265625 C 149.070312 118.992188 148.949219 118.714844 148.820312 118.441406 C 147.746094 116.207031 146.375 114.140625 145.007812 112.046875 C 144.757812 111.667969 143.949219 109.679688 143.484375 110.273438 Z M 143.484375 110.273438 " fill-opacity="1" fill-rule="evenodd"/><path fill="#a9a0f0" d="M 115.914062 121.882812 C 115.980469 121.902344 115.84375 121.917969 115.867188 121.855469 C 115.921875 121.730469 116.046875 121.425781 116.101562 121.300781 C 116.246094 120.925781 116.417969 120.5625 116.59375 120.199219 C 117.136719 119.0625 117.824219 117.738281 119.105469 117.238281 C 119.9375 116.914062 120.859375 116.917969 121.742188 116.871094 C 123.886719 116.761719 126.203125 116.972656 128.320312 117.355469 C 129.382812 117.546875 130.894531 117.894531 131.152344 119.089844 C 131.429688 120.390625 130.402344 121.789062 129.566406 122.707031 C 127.4375 125.039062 124.273438 126.902344 121.054688 127.390625 C 119.992188 127.550781 118.933594 127.589844 117.867188 127.445312 C 117.566406 127.40625 117.066406 127.375 116.839844 127.160156 C 116.691406 127.019531 117.175781 126.796875 117.25 126.761719 C 117.792969 126.515625 118.367188 126.335938 118.917969 126.121094 C 120.789062 125.390625 122.730469 124.6875 124.429688 123.632812 C 124.738281 123.441406 125.820312 122.871094 125.78125 122.378906 C 125.773438 122.242188 125.3125 122.210938 125.230469 122.199219 C 124.597656 122.089844 123.953125 122.042969 123.320312 121.976562 C 121.394531 121.78125 117.851562 121.855469 115.914062 121.882812 Z M 115.914062 121.882812 " fill-opacity="1" fill-rule="evenodd"/><path fill="#a9a0f0" d="M 69.824219 146.832031 C 69.710938 146.902344 69.738281 147.367188 69.730469 147.476562 C 69.671875 148.105469 69.625 148.734375 69.582031 149.363281 C 69.527344 150.152344 69.292969 151.21875 69.527344 151.992188 C 69.695312 152.5625 70.488281 153.085938 70.902344 153.472656 C 71.734375 154.253906 72.480469 155.132812 73.265625 155.960938 C 73.886719 156.617188 74.519531 157.265625 75.117188 157.9375 C 75.214844 158.046875 75.71875 158.414062 75.703125 158.570312 C 75.691406 158.792969 75.160156 159.191406 75.019531 159.347656 C 74.359375 160.074219 73.734375 160.835938 73.160156 161.621094 C 71.136719 164.382812 69.980469 167.851562 70.960938 171.203125 C 71.324219 172.433594 71.960938 173.964844 73.402344 174.292969 C 75.476562 174.765625 77.441406 173.367188 78.832031 172.105469 C 81.558594 169.625 85.015625 166.277344 83.566406 162.378906 C 83.042969 160.96875 81.867188 159.863281 80.695312 158.921875 C 80.144531 158.476562 79.207031 158.035156 79.449219 157.230469 C 79.746094 156.234375 80.574219 155.332031 81.203125 154.515625 C 82.449219 152.894531 83.808594 151.289062 84.742188 149.472656 C 85.1875 148.617188 85.257812 147.6875 85.257812 146.742188 C 85.257812 146.507812 85.332031 146.039062 85.21875 145.824219 C 85.210938 145.808594 84.539062 146.710938 84.496094 146.777344 C 84.019531 147.445312 83.535156 148.105469 83.050781 148.769531 C 81.792969 150.507812 80.476562 152.199219 79.132812 153.878906 C 78.875 154.199219 78.265625 155.382812 77.820312 155.492188 C 77.660156 155.53125 77.140625 155.007812 77.019531 154.921875 C 76.355469 154.421875 75.011719 153.664062 74.632812 152.949219 C 74.234375 152.203125 76.40625 152.277344 76.226562 151.777344 C 76.015625 151.179688 75.046875 150.578125 74.558594 150.210938 C 73.265625 149.246094 71.082031 147.832031 69.824219 146.832031 Z M 76.460938 160.136719 C 76.46875 160.097656 76.308594 160.320312 76.292969 160.347656 C 76.179688 160.507812 76.066406 160.667969 75.953125 160.828125 C 75.585938 161.359375 75.230469 161.898438 74.882812 162.441406 C 74.011719 163.828125 73.039062 165.300781 72.625 166.886719 C 72.449219 167.570312 72.382812 168.402344 73.136719 168.773438 C 73.765625 169.085938 74.664062 168.964844 75.335938 168.894531 C 77.488281 168.664062 80.710938 167.371094 80.765625 164.929688 C 80.800781 163.285156 77.628906 161.074219 76.460938 160.136719 Z M 76.460938 160.136719 " fill-opacity="1" fill-rule="evenodd"/><path fill="#a9a0f0" d="M 103.363281 140.277344 C 103.296875 140.253906 103.464844 140.171875 103.5 140.113281 C 103.582031 140.011719 103.660156 139.914062 103.742188 139.8125 C 104.023438 139.453125 104.300781 139.097656 104.582031 138.738281 C 105.085938 138.089844 105.59375 137.4375 106.113281 136.800781 C 106.234375 136.65625 106.5 136.167969 106.703125 136.109375 C 106.761719 136.089844 106.929688 136.292969 106.960938 136.324219 C 107.230469 136.566406 107.527344 136.785156 107.804688 137.015625 C 108.628906 137.691406 109.4375 138.375 110.25 139.058594 C 110.515625 139.277344 111.082031 139.554688 111.21875 139.886719 C 111.253906 139.976562 110.910156 140.273438 110.863281 140.324219 C 110.46875 140.761719 110.078125 141.203125 109.683594 141.644531 C 109.210938 142.171875 108.734375 142.703125 108.265625 143.234375 C 108.136719 143.371094 107.949219 143.707031 107.757812 143.773438 C 107.601562 143.832031 107.109375 143.28125 107.003906 143.199219 C 106.234375 142.597656 104.15625 140.851562 103.363281 140.277344 Z M 103.363281 140.277344 " fill-opacity="1" fill-rule="evenodd"/><path fill="#a9a0f0" d="M 111.238281 140.277344 C 111.171875 140.253906 111.335938 140.171875 111.375 140.113281 C 111.457031 140.011719 111.535156 139.914062 111.617188 139.8125 C 111.894531 139.453125 112.175781 139.097656 112.453125 138.738281 C 112.960938 138.089844 113.464844 137.4375 113.988281 136.800781 C 114.109375 136.65625 114.371094 136.167969 114.578125 136.109375 C 114.636719 136.089844 114.804688 136.292969 114.832031 136.324219 C 115.105469 136.566406 115.398438 136.785156 115.679688 137.015625 C 116.503906 137.691406 117.308594 138.375 118.125 139.058594 C 118.390625 139.277344 118.957031 139.554688 119.09375 139.886719 C 119.128906 139.976562 118.78125 140.273438 118.738281 140.324219 C 118.34375 140.761719 117.953125 141.203125 117.558594 141.644531 C 117.082031 142.171875 116.609375 142.703125 116.140625 143.234375 C 116.011719 143.371094 115.824219 143.707031 115.632812 143.773438 C 115.476562 143.832031 114.984375 143.28125 114.878906 143.199219 C 114.109375 142.597656 112.03125 140.851562 111.238281 140.277344 Z M 111.238281 140.277344 " fill-opacity="1" fill-rule="evenodd"/><path fill="#a9a0f0" d="M 122.75 178.558594 C 122.679688 178.535156 122.847656 178.453125 122.882812 178.398438 C 122.96875 178.296875 123.042969 178.195312 123.125 178.09375 C 123.40625 177.738281 123.683594 177.378906 123.964844 177.019531 C 124.46875 176.371094 124.976562 175.71875 125.496094 175.082031 C 125.617188 174.9375 125.882812 174.449219 126.085938 174.390625 C 126.144531 174.371094 126.3125 174.574219 126.34375 174.609375 C 126.613281 174.847656 126.910156 175.066406 127.1875 175.296875 C 128.011719 175.972656 128.820312 176.65625 129.636719 177.339844 C 129.898438 177.558594 130.464844 177.839844 130.601562 178.167969 C 130.640625 178.257812 130.292969 178.554688 130.246094 178.605469 C 129.855469 179.042969 129.460938 179.484375 129.070312 179.925781 C 128.59375 180.453125 128.117188 180.984375 127.648438 181.515625 C 127.519531 181.652344 127.332031 181.988281 127.144531 182.054688 C 126.984375 182.113281 126.492188 181.566406 126.386719 181.480469 C 125.617188 180.878906 123.542969 179.132812 122.75 178.558594 Z M 122.75 178.558594 " fill-opacity="1" fill-rule="evenodd"/><path fill="#a9a0f0" d="M 69.496094 136.441406 C 69.425781 136.417969 69.59375 136.335938 69.632812 136.277344 C 69.714844 136.179688 69.789062 136.078125 69.875 135.976562 C 70.152344 135.617188 70.433594 135.261719 70.710938 134.902344 C 71.21875 134.253906 71.722656 133.601562 72.246094 132.964844 C 72.363281 132.820312 72.628906 132.332031 72.832031 132.273438 C 72.894531 132.253906 73.058594 132.457031 73.089844 132.488281 C 73.363281 132.730469 73.65625 132.949219 73.9375 133.179688 C 74.757812 133.855469 75.566406 134.539062 76.382812 135.222656 C 76.648438 135.441406 77.214844 135.71875 77.347656 136.050781 C 77.386719 136.140625 77.039062 136.4375 76.992188 136.488281 C 76.601562 136.925781 76.207031 137.367188 75.816406 137.808594 C 75.339844 138.335938 74.863281 138.867188 74.394531 139.398438 C 74.269531 139.535156 74.078125 139.871094 73.890625 139.9375 C 73.730469 139.996094 73.242188 139.445312 73.136719 139.363281 C 72.363281 138.761719 70.289062 137.015625 69.496094 136.441406 Z M 69.496094 136.441406 " fill-opacity="1" fill-rule="evenodd"/><path fill="#a9a0f0" d="M 77.367188 136.441406 C 77.300781 136.417969 77.46875 136.335938 77.503906 136.277344 C 77.589844 136.179688 77.664062 136.078125 77.746094 135.976562 C 78.027344 135.617188 78.304688 135.261719 78.585938 134.902344 C 79.089844 134.253906 79.597656 133.601562 80.117188 132.964844 C 80.238281 132.820312 80.503906 132.332031 80.707031 132.273438 C 80.765625 132.253906 80.933594 132.457031 80.964844 132.488281 C 81.234375 132.730469 81.53125 132.949219 81.808594 133.179688 C 82.632812 133.855469 83.441406 134.539062 84.253906 135.222656 C 84.519531 135.441406 85.085938 135.71875 85.222656 136.050781 C 85.261719 136.140625 84.914062 136.4375 84.867188 136.488281 C 84.476562 136.925781 84.082031 137.367188 83.6875 137.808594 C 83.214844 138.335938 82.738281 138.867188 82.269531 139.398438 C 82.140625 139.535156 81.953125 139.871094 81.765625 139.9375 C 81.605469 139.996094 81.113281 139.445312 81.007812 139.363281 C 80.238281 138.761719 78.160156 137.015625 77.367188 136.441406 Z M 77.367188 136.441406 " fill-opacity="1" fill-rule="evenodd"/><path fill="#a9a0f0" d="M 226.15625 117.648438 C 226.621094 117.472656 227.570312 117.78125 228.019531 117.875 C 229.960938 118.269531 231.839844 118.984375 233.636719 119.8125 C 240.316406 122.902344 245.160156 128.703125 248.15625 135.324219 C 248.90625 136.976562 249.523438 138.714844 249.90625 140.492188 C 250.011719 140.96875 250.320312 141.84375 250.105469 142.335938 C 249.914062 142.761719 249.429688 143.09375 249.097656 143.398438 C 248.390625 144.054688 247.734375 144.632812 246.925781 145.128906 C 245.882812 144.164062 244.417969 143.476562 243.230469 142.671875 C 242.871094 139.804688 241.640625 136.9375 240.375 134.375 C 238.21875 130.027344 235.363281 126.035156 231.898438 122.640625 C 230.324219 121.105469 228.09375 118.710938 226.15625 117.648438 Z M 226.15625 117.648438 " fill-opacity="1" fill-rule="evenodd"/><path fill="#a9a0f0" d="M 226.15625 178.597656 C 226.621094 178.773438 227.570312 178.460938 228.019531 178.371094 C 229.960938 177.976562 231.839844 177.261719 233.636719 176.429688 C 240.316406 173.339844 245.160156 167.542969 248.15625 160.921875 C 248.90625 159.269531 249.523438 157.527344 249.90625 155.753906 C 250.011719 155.273438 250.320312 154.402344 250.105469 153.90625 C 249.914062 153.484375 249.429688 153.152344 249.097656 152.84375 C 248.390625 152.1875 247.734375 151.609375 246.925781 151.113281 C 245.882812 152.078125 244.417969 152.765625 243.230469 153.570312 C 242.871094 156.441406 241.640625 159.308594 240.375 161.867188 C 238.21875 166.21875 235.363281 170.207031 231.898438 173.605469 C 230.324219 175.140625 228.09375 177.535156 226.15625 178.597656 Z M 226.15625 178.597656 " fill-opacity="1" fill-rule="evenodd"/><path fill="#a9a0f0" d="M 255.414062 144.304688 C 255.226562 144.402344 255.058594 144.496094 255.015625 144.523438 C 253.953125 145.355469 252.910156 146.132812 251.726562 146.789062 C 251.320312 147.011719 250.902344 147.199219 250.488281 147.410156 C 250.421875 147.445312 250.238281 147.53125 250.144531 147.628906 C 250.011719 147.761719 249.972656 147.917969 250.011719 148.070312 C 250.046875 148.222656 250.15625 148.351562 250.347656 148.410156 C 250.496094 148.457031 250.730469 148.445312 250.804688 148.449219 C 250.921875 148.449219 251.285156 148.585938 251.753906 148.773438 C 253 149.261719 254.949219 150.148438 255.847656 150.652344 C 255.949219 150.710938 256.257812 150.921875 256.523438 151.109375 C 256.363281 151.214844 256.191406 151.3125 256.105469 151.351562 C 255.214844 151.691406 254.160156 152.039062 253.585938 152.859375 C 253.375 153.160156 253.308594 153.515625 253.308594 153.886719 C 253.316406 154.328125 253.441406 154.800781 253.453125 155.199219 C 253.492188 156.28125 253.300781 157.222656 252.667969 158.117188 C 252.175781 158.824219 251.5625 159.488281 250.804688 159.914062 C 250.679688 159.984375 249.621094 160.503906 249.621094 160.503906 C 249.472656 160.574219 249.390625 160.738281 249.421875 160.902344 C 249.449219 161.066406 249.589844 161.1875 249.753906 161.199219 C 249.753906 161.199219 251.378906 161.3125 251.863281 161.25 C 254.367188 160.925781 255.890625 159.328125 256.988281 157.191406 C 257.148438 156.878906 257.265625 156.488281 257.390625 156.105469 C 257.503906 155.789062 257.613281 155.476562 257.796875 155.257812 C 257.972656 155.050781 258.230469 154.910156 258.496094 154.773438 C 258.828125 154.605469 259.164062 154.449219 259.429688 154.246094 C 260.246094 153.636719 260.820312 152.863281 261.351562 151.996094 C 261.558594 151.660156 261.75 151.3125 261.933594 150.964844 C 262.027344 150.796875 262.589844 149.761719 262.589844 149.761719 C 262.683594 149.582031 262.617188 149.359375 262.441406 149.261719 C 262.441406 149.261719 261.875 148.957031 261.769531 148.902344 C 261.402344 148.722656 260.386719 148.261719 259.628906 147.921875 C 259.621094 147.921875 262.542969 147.019531 262.542969 147.019531 C 262.726562 146.964844 262.839844 146.773438 262.792969 146.585938 C 262.792969 146.585938 262.492188 145.304688 261.875 144.097656 C 261.441406 143.25 260.84375 142.441406 260.109375 142.078125 C 259.835938 141.945312 259.46875 141.84375 259.121094 141.730469 C 258.84375 141.644531 258.578125 141.554688 258.414062 141.40625 C 258.355469 141.351562 258.347656 141.257812 258.335938 141.164062 C 258.296875 140.980469 258.273438 140.789062 258.238281 140.648438 C 258.054688 139.972656 257.765625 139.292969 257.40625 138.695312 C 255.90625 136.253906 252.136719 134.449219 249.445312 134.601562 C 249.265625 134.609375 249.121094 134.742188 249.097656 134.917969 C 249.074219 135.09375 249.179688 135.261719 249.347656 135.316406 C 250.214844 135.609375 250.9375 136.449219 251.554688 137.449219 C 252.542969 139.046875 253.226562 141.074219 253.675781 142.238281 C 253.984375 143.039062 254.285156 143.546875 255.007812 144.046875 C 255.140625 144.140625 255.273438 144.226562 255.414062 144.304688 Z M 251.203125 160.535156 C 252.042969 160.054688 252.726562 159.320312 253.269531 158.539062 C 254 157.503906 254.234375 156.421875 254.191406 155.171875 C 254.175781 154.835938 254.085938 154.449219 254.058594 154.070312 C 254.027344 153.789062 254.027344 153.507812 254.191406 153.28125 C 254.683594 152.582031 255.609375 152.328125 256.367188 152.035156 C 256.621094 151.9375 257.378906 151.417969 257.378906 151.417969 C 257.480469 151.347656 257.53125 151.234375 257.53125 151.117188 C 257.539062 150.996094 257.480469 150.882812 257.382812 150.816406 C 257.382812 150.816406 256.414062 150.125 256.207031 150.011719 C 255.15625 149.421875 252.703125 148.320312 251.527344 147.898438 C 251.445312 147.871094 251.378906 147.847656 251.304688 147.828125 C 251.570312 147.699219 251.828125 147.574219 252.085938 147.433594 C 253.308594 146.757812 254.375 145.960938 255.472656 145.105469 C 255.558594 145.035156 256.257812 144.722656 256.421875 144.617188 C 256.53125 144.539062 256.566406 144.449219 256.582031 144.40625 C 256.621094 144.3125 256.640625 144.140625 256.464844 143.992188 C 256.40625 143.941406 256.074219 143.808594 256.039062 143.792969 C 255.824219 143.703125 255.617188 143.578125 255.425781 143.445312 C 254.84375 143.039062 254.609375 142.621094 254.359375 141.972656 C 253.902344 140.777344 253.195312 138.703125 252.179688 137.0625 C 251.796875 136.429688 251.355469 135.863281 250.878906 135.425781 L 250.878906 135.421875 C 253.117188 135.800781 255.648438 137.242188 256.78125 139.078125 C 257.105469 139.621094 257.363281 140.234375 257.523438 140.84375 C 257.570312 141.003906 257.582031 141.230469 257.636719 141.429688 C 257.6875 141.636719 257.78125 141.820312 257.914062 141.945312 C 258.097656 142.117188 258.378906 142.253906 258.6875 142.363281 C 259.054688 142.496094 259.480469 142.59375 259.785156 142.742188 C 260.386719 143.039062 260.859375 143.730469 261.21875 144.433594 C 261.609375 145.195312 261.859375 145.988281 261.984375 146.421875 C 261.984375 146.421875 258.464844 147.507812 258.464844 147.507812 C 258.328125 147.554688 258.222656 147.683594 258.207031 147.835938 C 258.203125 147.992188 258.289062 148.132812 258.429688 148.195312 C 258.429688 148.195312 260.84375 149.261719 261.441406 149.558594 C 261.484375 149.582031 261.625 149.660156 261.765625 149.734375 C 261.59375 150.050781 261.351562 150.507812 261.292969 150.613281 C 261.109375 150.949219 260.925781 151.285156 260.71875 151.613281 C 260.238281 152.398438 259.730469 153.105469 258.988281 153.660156 C 258.753906 153.835938 258.453125 153.96875 258.15625 154.121094 C 257.804688 154.300781 257.472656 154.503906 257.238281 154.785156 C 256.996094 155.066406 256.832031 155.460938 256.699219 155.871094 C 256.582031 156.214844 256.480469 156.574219 256.339844 156.851562 C 255.351562 158.769531 254.015625 160.230469 251.777344 160.519531 C 251.644531 160.535156 251.4375 160.539062 251.203125 160.535156 Z M 251.203125 160.535156 " fill-opacity="1" fill-rule="evenodd"/><path fill="#a9a0f0" d="M 247.148438 151.242188 C 247.234375 151.175781 247.765625 150.785156 247.824219 150.738281 C 248.640625 150.078125 250.203125 148.539062 250.945312 147.800781 C 251.019531 147.734375 251.054688 147.644531 251.054688 147.546875 C 251.054688 147.46875 251.035156 147.359375 250.945312 147.257812 C 250.878906 147.183594 250.714844 147.082031 250.679688 147.054688 C 250.421875 146.863281 250.171875 146.675781 249.914062 146.488281 C 248.9375 145.761719 247.972656 144.953125 246.910156 144.332031 C 246.757812 144.238281 246.550781 144.277344 246.441406 144.425781 C 246.144531 144.800781 245.382812 145.171875 244.976562 145.449219 C 243.863281 146.214844 242.710938 146.921875 241.582031 147.660156 C 241.421875 147.703125 241.355469 147.855469 241.347656 147.886719 C 241.320312 147.964844 241.273438 148.132812 241.4375 148.289062 C 241.457031 148.308594 241.605469 148.390625 241.65625 148.425781 C 241.765625 148.5 241.878906 148.570312 241.988281 148.648438 C 242.371094 148.910156 242.769531 149.152344 243.164062 149.390625 C 244.3125 150.082031 245.453125 150.800781 246.652344 151.398438 C 246.773438 151.453125 246.910156 151.445312 247.023438 151.375 C 247.074219 151.339844 247.117188 151.292969 247.148438 151.242188 Z M 250.136719 147.566406 C 249.339844 148.351562 248.066406 149.59375 247.359375 150.167969 C 247.300781 150.210938 246.957031 150.441406 246.742188 150.617188 C 245.644531 150.054688 244.601562 149.394531 243.542969 148.757812 C 243.160156 148.527344 242.777344 148.292969 242.398438 148.039062 L 242.378906 148.023438 C 243.386719 147.371094 244.402344 146.738281 245.394531 146.054688 C 245.765625 145.800781 246.390625 145.460938 246.785156 145.117188 C 247.730469 145.699219 248.589844 146.425781 249.480469 147.082031 C 249.699219 147.242188 249.921875 147.40625 250.136719 147.566406 Z M 241.636719 148.382812 Z M 241.636719 148.382812 " fill-opacity="1" fill-rule="evenodd"/><g clip-path="url(#e237b119c4)"><path fill="#a9a0f0" d="M 262.515625 146.632812 L 270.015625 148.285156 L 262.515625 149.539062 L 259.371094 147.929688 Z M 262.515625 146.632812 " fill-opacity="1" fill-rule="evenodd"/></g><path fill="#a9a0f0" d="M 73.890625 114.511719 C 73.425781 114.335938 72.476562 114.648438 72.027344 114.738281 C 70.085938 115.132812 68.207031 115.847656 66.414062 116.679688 C 59.730469 119.769531 54.886719 125.566406 51.890625 132.1875 C 51.140625 133.839844 50.523438 135.582031 50.140625 137.355469 C 50.039062 137.835938 49.730469 138.707031 49.941406 139.203125 C 50.132812 139.628906 50.617188 139.960938 50.949219 140.265625 C 51.65625 140.921875 52.3125 141.5 53.121094 141.996094 C 54.167969 141.03125 55.632812 140.34375 56.816406 139.539062 C 57.175781 136.667969 58.40625 133.800781 59.671875 131.242188 C 61.828125 126.890625 64.683594 122.902344 68.148438 119.503906 C 69.726562 117.96875 71.953125 115.574219 73.890625 114.511719 Z M 73.890625 114.511719 " fill-opacity="1" fill-rule="evenodd"/><path fill="#a9a0f0" d="M 73.890625 175.460938 C 73.425781 175.636719 72.476562 175.324219 72.027344 175.234375 C 70.085938 174.839844 68.207031 174.125 66.414062 173.292969 C 59.730469 170.207031 54.886719 164.40625 51.890625 157.785156 C 51.140625 156.132812 50.523438 154.390625 50.140625 152.617188 C 50.039062 152.140625 49.730469 151.265625 49.941406 150.773438 C 50.132812 150.347656 50.617188 150.015625 50.949219 149.710938 C 51.65625 149.050781 52.3125 148.472656 53.121094 147.980469 C 54.167969 148.945312 55.632812 149.632812 56.816406 150.4375 C 57.175781 153.304688 58.40625 156.171875 59.671875 158.730469 C 61.828125 163.082031 64.683594 167.070312 68.148438 170.46875 C 69.726562 172.003906 71.953125 174.398438 73.890625 175.460938 Z M 73.890625 175.460938 " fill-opacity="1" fill-rule="evenodd"/><path fill="#a9a0f0" d="M 44.636719 141.171875 C 44.820312 141.269531 44.988281 141.359375 45.03125 141.390625 C 46.09375 142.21875 47.136719 142.996094 48.324219 143.65625 C 48.726562 143.878906 49.148438 144.066406 49.558594 144.273438 C 49.625 144.308594 49.808594 144.394531 49.90625 144.492188 C 50.039062 144.625 50.074219 144.78125 50.039062 144.933594 C 50 145.089844 49.890625 145.21875 49.699219 145.277344 C 49.550781 145.320312 49.316406 145.3125 49.242188 145.3125 C 49.125 145.316406 48.765625 145.453125 48.292969 145.640625 C 47.050781 146.128906 45.097656 147.015625 44.203125 147.519531 C 44.097656 147.578125 43.789062 147.789062 43.523438 147.972656 C 43.6875 148.078125 43.855469 148.179688 43.945312 148.214844 C 44.835938 148.558594 45.886719 148.90625 46.460938 149.722656 C 46.675781 150.027344 46.742188 150.378906 46.742188 150.753906 C 46.734375 151.195312 46.609375 151.664062 46.59375 152.066406 C 46.554688 153.144531 46.746094 154.085938 47.378906 154.980469 C 47.875 155.6875 48.484375 156.355469 49.242188 156.78125 C 49.367188 156.851562 50.425781 157.367188 50.425781 157.367188 C 50.574219 157.441406 50.65625 157.605469 50.625 157.769531 C 50.597656 157.929688 50.457031 158.054688 50.296875 158.066406 C 50.296875 158.066406 48.667969 158.179688 48.183594 158.117188 C 45.679688 157.792969 44.15625 156.195312 43.0625 154.054688 C 42.898438 153.746094 42.78125 153.355469 42.65625 152.972656 C 42.546875 152.65625 42.433594 152.34375 42.25 152.125 C 42.074219 151.914062 41.816406 151.773438 41.550781 151.640625 C 41.21875 151.472656 40.882812 151.3125 40.617188 151.113281 C 39.800781 150.5 39.226562 149.726562 38.695312 148.863281 C 38.488281 148.523438 38.300781 148.179688 38.113281 147.832031 C 38.019531 147.664062 37.460938 146.625 37.460938 146.625 C 37.363281 146.449219 37.429688 146.226562 37.605469 146.128906 C 37.605469 146.128906 38.171875 145.820312 38.277344 145.765625 C 38.644531 145.585938 39.660156 145.125 40.417969 144.785156 C 40.425781 144.785156 37.503906 143.886719 37.503906 143.886719 C 37.320312 143.828125 37.210938 143.640625 37.253906 143.449219 C 37.253906 143.449219 37.554688 142.171875 38.171875 140.964844 C 38.609375 140.113281 39.203125 139.308594 39.941406 138.945312 C 40.210938 138.8125 40.582031 138.710938 40.925781 138.597656 C 41.207031 138.507812 41.472656 138.421875 41.632812 138.269531 C 41.691406 138.21875 41.699219 138.121094 41.714844 138.027344 C 41.75 137.847656 41.773438 137.65625 41.808594 137.515625 C 41.992188 136.839844 42.28125 136.160156 42.640625 135.5625 C 44.140625 133.117188 47.910156 131.3125 50.605469 131.464844 C 50.78125 131.476562 50.929688 131.609375 50.949219 131.785156 C 50.972656 131.960938 50.871094 132.125 50.699219 132.183594 C 49.832031 132.472656 49.109375 133.3125 48.492188 134.3125 C 47.503906 135.914062 46.820312 137.9375 46.371094 139.101562 C 46.0625 139.90625 45.761719 140.414062 45.039062 140.914062 C 44.90625 141.003906 44.773438 141.09375 44.636719 141.171875 Z M 48.84375 157.402344 C 48.007812 156.921875 47.320312 156.1875 46.777344 155.402344 C 46.046875 154.371094 45.8125 153.285156 45.855469 152.039062 C 45.871094 151.703125 45.960938 151.316406 45.988281 150.9375 C 46.019531 150.652344 46.019531 150.375 45.855469 150.144531 C 45.363281 149.445312 44.4375 149.195312 43.679688 148.902344 C 43.429688 148.804688 42.671875 148.28125 42.671875 148.28125 C 42.566406 148.214844 42.515625 148.101562 42.515625 147.980469 C 42.507812 147.863281 42.566406 147.75 42.664062 147.679688 C 42.664062 147.679688 43.632812 146.992188 43.839844 146.878906 C 44.894531 146.285156 47.34375 145.183594 48.519531 144.765625 C 48.601562 144.738281 48.667969 144.714844 48.742188 144.691406 C 48.476562 144.566406 48.21875 144.4375 47.960938 144.296875 C 46.742188 143.621094 45.671875 142.824219 44.578125 141.96875 C 44.488281 141.898438 43.789062 141.589844 43.628906 141.480469 C 43.515625 141.402344 43.480469 141.316406 43.464844 141.273438 C 43.429688 141.179688 43.40625 141.007812 43.582031 140.859375 C 43.640625 140.808594 43.972656 140.671875 44.011719 140.660156 C 44.222656 140.566406 44.429688 140.445312 44.621094 140.308594 C 45.203125 139.90625 45.4375 139.488281 45.6875 138.839844 C 46.144531 137.644531 46.851562 135.570312 47.867188 133.925781 C 48.25 133.296875 48.691406 132.730469 49.167969 132.289062 C 46.933594 132.667969 44.398438 134.109375 43.265625 135.945312 C 42.941406 136.484375 42.683594 137.097656 42.523438 137.710938 C 42.480469 137.867188 42.464844 138.09375 42.414062 138.296875 C 42.363281 138.503906 42.265625 138.683594 42.132812 138.808594 C 41.949219 138.984375 41.667969 139.117188 41.359375 139.230469 C 40.992188 139.359375 40.566406 139.457031 40.265625 139.605469 C 39.660156 139.90625 39.1875 140.59375 38.828125 141.300781 C 38.4375 142.0625 38.1875 142.855469 38.0625 143.289062 C 38.0625 143.289062 41.582031 144.371094 41.582031 144.371094 C 41.722656 144.417969 41.824219 144.550781 41.839844 144.703125 C 41.847656 144.855469 41.757812 145 41.617188 145.0625 C 41.617188 145.0625 39.203125 146.125 38.609375 146.425781 C 38.5625 146.449219 38.425781 146.523438 38.285156 146.601562 C 38.453125 146.917969 38.695312 147.371094 38.753906 147.476562 C 38.9375 147.816406 39.125 148.152344 39.328125 148.480469 C 39.808594 149.261719 40.316406 149.96875 41.058594 150.523438 C 41.292969 150.703125 41.597656 150.835938 41.890625 150.984375 C 42.242188 151.167969 42.574219 151.371094 42.808594 151.648438 C 43.054688 151.933594 43.214844 152.328125 43.347656 152.734375 C 43.464844 153.082031 43.570312 153.4375 43.707031 153.71875 C 44.695312 155.632812 46.035156 157.097656 48.269531 157.386719 C 48.402344 157.402344 48.609375 157.40625 48.84375 157.402344 Z M 48.84375 157.402344 " fill-opacity="1" fill-rule="evenodd"/><path fill="#a9a0f0" d="M 52.902344 148.105469 C 52.8125 148.039062 52.28125 147.652344 52.222656 147.605469 C 51.40625 146.941406 49.847656 145.40625 49.101562 144.667969 C 49.027344 144.597656 48.992188 144.507812 48.992188 144.414062 C 48.992188 144.332031 49.015625 144.222656 49.101562 144.121094 C 49.167969 144.046875 49.332031 143.945312 49.367188 143.917969 C 49.625 143.730469 49.875 143.539062 50.132812 143.351562 C 51.113281 142.625 52.078125 141.820312 53.136719 141.199219 C 53.289062 141.105469 53.496094 141.144531 53.605469 141.292969 C 53.902344 141.667969 54.667969 142.035156 55.070312 142.316406 C 56.183594 143.082031 57.339844 143.785156 58.464844 144.527344 C 58.625 144.570312 58.691406 144.722656 58.699219 144.753906 C 58.730469 144.832031 58.773438 145 58.613281 145.15625 C 58.589844 145.171875 58.441406 145.253906 58.390625 145.292969 C 58.28125 145.363281 58.171875 145.4375 58.058594 145.511719 C 57.675781 145.773438 57.28125 146.015625 56.882812 146.253906 C 55.734375 146.949219 54.59375 147.667969 53.394531 148.261719 C 53.277344 148.320312 53.136719 148.3125 53.027344 148.238281 C 52.972656 148.203125 52.929688 148.160156 52.902344 148.105469 Z M 49.914062 144.433594 C 50.707031 145.21875 51.980469 146.460938 52.6875 147.03125 C 52.746094 147.078125 53.09375 147.304688 53.304688 147.480469 C 54.402344 146.921875 55.445312 146.261719 56.507812 145.625 C 56.890625 145.394531 57.273438 145.160156 57.648438 144.90625 L 57.667969 144.886719 C 56.660156 144.234375 55.644531 143.601562 54.652344 142.921875 C 54.285156 142.667969 53.660156 142.328125 53.261719 141.980469 C 52.320312 142.566406 51.457031 143.289062 50.566406 143.945312 C 50.347656 144.109375 50.125 144.269531 49.914062 144.433594 Z M 58.414062 145.25 Z M 58.414062 145.25 " fill-opacity="1" fill-rule="evenodd"/><path fill="#a9a0f0" d="M 37.535156 143.496094 L 30.035156 145.148438 L 37.535156 146.40625 L 40.675781 144.796875 Z M 37.535156 143.496094 " fill-opacity="1" fill-rule="evenodd"/><path fill="#a9a0f0" d="M 116.9375 144.257812 C 116.917969 144.25 116.507812 145.035156 116.464844 145.113281 C 116.371094 145.289062 115.582031 146.597656 115.972656 146.660156 C 116.417969 146.734375 117.03125 146.394531 117.421875 146.238281 C 118.496094 145.808594 119.550781 145.316406 120.601562 144.832031 C 124.316406 143.117188 128.070312 141.484375 131.882812 139.972656 C 132.757812 139.625 133.636719 139.285156 134.519531 138.949219 C 135.460938 138.589844 136.65625 137.683594 136.332031 136.5 C 136.238281 136.179688 120.882812 142.65625 116.9375 144.257812 Z M 116.9375 144.257812 " fill-opacity="1" fill-rule="evenodd"/><path fill="#a9a0f0" d="M 90.449219 135.304688 C 90.429688 135.296875 90.019531 136.082031 89.976562 136.160156 C 89.882812 136.335938 89.09375 137.644531 89.484375 137.707031 C 89.929688 137.777344 90.542969 137.4375 90.933594 137.285156 C 92.007812 136.851562 93.0625 136.363281 94.113281 135.878906 C 97.828125 134.164062 101.582031 132.527344 105.394531 131.019531 C 106.269531 130.671875 107.148438 130.332031 108.03125 129.996094 C 108.972656 129.632812 110.167969 128.730469 109.84375 127.546875 C 109.75 127.222656 94.394531 133.703125 90.449219 135.304688 Z M 90.449219 135.304688 " fill-opacity="1" fill-rule="evenodd"/><path fill="#a9a0f0" d="M 85.882812 130.214844 C 85.859375 130.207031 85.453125 130.992188 85.40625 131.066406 C 85.316406 131.246094 84.523438 132.550781 84.914062 132.617188 C 85.359375 132.6875 85.972656 132.347656 86.367188 132.191406 C 87.4375 131.761719 88.496094 131.273438 89.542969 130.785156 C 93.257812 129.074219 97.011719 127.4375 100.824219 125.925781 C 101.703125 125.578125 102.578125 125.238281 103.460938 124.902344 C 104.40625 124.542969 105.597656 123.636719 105.273438 122.457031 C 105.183594 122.132812 89.824219 128.613281 85.882812 130.214844 Z M 85.882812 130.214844 " fill-opacity="1" fill-rule="evenodd"/><path fill="#a9a0f0" d="M 112.285156 176.976562 C 111.734375 177.355469 110.675781 177.261719 110.117188 176.628906 C 109.589844 176.035156 110.050781 174.242188 110.996094 174.121094 C 112.203125 173.96875 113.605469 176.144531 114.21875 176.933594 C 114.453125 177.234375 115.191406 178.53125 115.191406 178.53125 C 115.191406 178.53125 115.246094 177.070312 115.3125 176.703125 C 115.375 176.402344 115.433594 176.101562 115.511719 175.800781 C 115.578125 175.550781 115.652344 175.300781 115.746094 175.058594 C 116.078125 174.164062 117.164062 172.324219 118.457031 173.085938 C 118.695312 173.222656 118.863281 173.46875 119.007812 173.691406 C 119.113281 173.867188 119.1875 174.058594 119.269531 174.242188 C 119.609375 175.003906 118.839844 174.578125 118.167969 174.984375 C 117.753906 175.230469 116.976562 175.914062 116.71875 176.394531 C 116.039062 177.683594 116.070312 179.488281 116 180.914062 C 115.957031 180.9375 115.933594 181.507812 115.917969 181.589844 C 115.820312 181.585938 115.765625 181.386719 115.730469 181.320312 C 115.5625 180.988281 115.148438 180.667969 114.988281 180.328125 C 114.460938 179.199219 113.148438 177.914062 112.285156 176.976562 Z M 112.285156 176.976562 " fill-opacity="1" fill-rule="evenodd"/><path fill="#a9a0f0" d="M 90.148438 150.742188 C 89.597656 151.121094 88.539062 151.027344 87.980469 150.394531 C 87.453125 149.804688 87.914062 148.007812 88.859375 147.890625 C 90.066406 147.734375 91.46875 149.910156 92.082031 150.699219 C 92.316406 151 93.054688 152.300781 93.054688 152.300781 C 93.054688 152.300781 93.109375 150.835938 93.175781 150.472656 C 93.238281 150.167969 93.296875 149.867188 93.375 149.566406 C 93.441406 149.316406 93.515625 149.070312 93.609375 148.824219 C 93.941406 147.933594 95.027344 146.089844 96.320312 146.851562 C 96.558594 146.992188 96.726562 147.234375 96.871094 147.460938 C 96.976562 147.632812 97.050781 147.824219 97.132812 148.011719 C 97.472656 148.773438 96.703125 148.34375 96.03125 148.75 C 95.617188 149 94.839844 149.679688 94.582031 150.164062 C 93.902344 151.449219 93.933594 153.257812 93.863281 154.679688 C 93.820312 154.703125 93.796875 155.277344 93.78125 155.355469 C 93.683594 155.351562 93.628906 155.15625 93.59375 155.089844 C 93.425781 154.753906 93.011719 154.433594 92.851562 154.097656 C 92.324219 152.964844 91.011719 151.683594 90.148438 150.742188 Z M 90.148438 150.742188 " fill-opacity="1" fill-rule="evenodd"/><path fill="#a9a0f0" d="M 142.492188 165.8125 C 142.480469 165.730469 142.109375 166.226562 142.085938 166.257812 C 141.878906 166.574219 141.6875 166.894531 141.507812 167.226562 C 140.953125 168.261719 140.449219 169.320312 140.050781 170.421875 C 138.992188 173.378906 138.28125 176.871094 138.996094 179.972656 C 139.261719 181.089844 139.746094 182.800781 141.175781 182.957031 C 143.386719 183.195312 144.601562 180.703125 145.0625 179.054688 C 145.183594 178.621094 145.605469 177.515625 145.304688 177.078125 C 145.253906 176.996094 145.113281 177.292969 145.101562 177.316406 C 144.910156 177.699219 144.714844 178.078125 144.5 178.453125 C 144.070312 179.210938 142.996094 180.367188 141.675781 179.894531 C 140.480469 179.464844 140.230469 177.46875 140.300781 176.382812 C 140.492188 173.21875 141.554688 169.074219 142.492188 165.8125 Z M 142.492188 165.8125 " fill-opacity="1" fill-rule="evenodd"/><path fill="#a9a0f0" d="M 178.074219 140.015625 L 189.835938 134.40625 L 197.859375 130.769531 L 196.78125 133.277344 L 176.96875 142.625 Z M 178.074219 140.015625 " fill-opacity="1" fill-rule="evenodd"/><path fill="#a9a0f0" d="M 185.175781 146.742188 C 185.207031 146.742188 185.140625 146.789062 185.125 146.8125 C 185.09375 146.851562 185.058594 146.894531 185.023438 146.933594 C 184.960938 147.007812 184.746094 147.347656 184.609375 147.28125 C 184.253906 147.113281 183.960938 146.757812 183.640625 146.539062 C 183.402344 146.382812 183.160156 146.226562 182.910156 146.085938 C 182.78125 146.015625 182.601562 145.945312 182.503906 145.84375 C 182.339844 145.671875 182.425781 145.234375 182.425781 145.03125 C 182.433594 144.355469 182.402344 143.128906 183.382812 142.921875 C 184.09375 142.773438 184.734375 143.300781 185.214844 143.679688 C 186.667969 144.832031 187.234375 146.324219 187.71875 147.933594 C 187.859375 148.394531 187.957031 148.867188 188.113281 149.324219 C 188.164062 149.472656 188.226562 149.765625 188.417969 149.835938 C 188.375 149.804688 188.460938 149.742188 188.476562 149.695312 C 188.503906 149.589844 188.527344 149.484375 188.542969 149.378906 C 188.628906 148.855469 188.695312 148.335938 188.808594 147.816406 C 189.164062 146.210938 189.652344 144.582031 190.601562 143.15625 C 190.878906 142.738281 191.371094 142.070312 192.015625 142.070312 C 192.273438 142.070312 192.542969 142.191406 192.753906 142.3125 C 193.179688 142.546875 193.550781 142.882812 193.863281 143.230469 C 193.992188 143.375 194.15625 143.539062 194.1875 143.730469 C 194.253906 144.152344 193.972656 144.695312 193.800781 145.074219 C 193.683594 145.339844 193.542969 145.78125 193.253906 145.953125 C 193.015625 146.089844 192.839844 145.664062 192.75 145.535156 C 192.535156 145.210938 192.285156 144.890625 191.976562 144.625 C 191.828125 144.496094 191.644531 144.371094 191.421875 144.394531 C 191.191406 144.417969 191.015625 144.578125 190.878906 144.726562 C 190.566406 145.070312 190.359375 145.5 190.203125 145.914062 C 189.496094 147.796875 189.402344 149.808594 188.703125 151.695312 C 188.53125 152.15625 188.351562 152.617188 188.121094 153.058594 C 188.074219 153.15625 187.972656 153.414062 187.816406 153.421875 C 187.621094 153.433594 187.558594 153.046875 187.535156 152.945312 C 187.40625 152.375 187.367188 151.792969 187.230469 151.226562 C 187.035156 150.390625 186.730469 149.574219 186.378906 148.78125 C 186.105469 148.167969 185.605469 147.289062 185.175781 146.742188 Z M 185.175781 146.742188 " fill-opacity="1" fill-rule="evenodd"/><path fill="#a9a0f0" d="M 183.226562 125.246094 C 183.257812 125.25 183.191406 125.292969 183.175781 125.316406 C 183.140625 125.355469 183.109375 125.398438 183.074219 125.4375 C 183.011719 125.511719 182.796875 125.851562 182.660156 125.789062 C 182.300781 125.621094 182.011719 125.261719 181.6875 125.042969 C 181.453125 124.886719 181.207031 124.734375 180.960938 124.589844 C 180.828125 124.519531 180.652344 124.449219 180.550781 124.347656 C 180.386719 124.175781 180.472656 123.738281 180.476562 123.539062 C 180.484375 122.859375 180.449219 121.632812 181.433594 121.429688 C 182.144531 121.28125 182.785156 121.804688 183.261719 122.183594 C 184.71875 123.335938 185.285156 124.828125 185.769531 126.4375 C 185.910156 126.902344 186.003906 127.371094 186.164062 127.832031 C 186.210938 127.976562 186.277344 128.269531 186.46875 128.339844 C 186.421875 128.308594 186.511719 128.25 186.523438 128.199219 C 186.550781 128.09375 186.574219 127.988281 186.59375 127.882812 C 186.679688 127.359375 186.742188 126.839844 186.859375 126.320312 C 187.214844 124.714844 187.699219 123.085938 188.648438 121.664062 C 188.929688 121.242188 189.421875 120.574219 190.066406 120.578125 C 190.324219 120.578125 190.59375 120.695312 190.804688 120.816406 C 191.230469 121.050781 191.601562 121.390625 191.910156 121.734375 C 192.042969 121.878906 192.207031 122.046875 192.238281 122.234375 C 192.300781 122.65625 192.019531 123.199219 191.851562 123.578125 C 191.730469 123.84375 191.59375 124.285156 191.300781 124.457031 C 191.066406 124.59375 190.886719 124.167969 190.800781 124.039062 C 190.585938 123.714844 190.335938 123.394531 190.027344 123.128906 C 189.878906 123 189.691406 122.875 189.472656 122.898438 C 189.242188 122.921875 189.066406 123.082031 188.929688 123.230469 C 188.613281 123.578125 188.410156 124.003906 188.253906 124.417969 C 187.546875 126.300781 187.453125 128.3125 186.753906 130.199219 C 186.582031 130.660156 186.398438 131.121094 186.171875 131.5625 C 186.121094 131.660156 186.023438 131.917969 185.867188 131.925781 C 185.671875 131.9375 185.605469 131.550781 185.582031 131.449219 C 185.453125 130.878906 185.414062 130.300781 185.28125 129.730469 C 185.082031 128.894531 184.78125 128.078125 184.429688 127.285156 C 184.15625 126.671875 183.652344 125.792969 183.226562 125.246094 Z M 183.226562 125.246094 " fill-opacity="1" fill-rule="evenodd"/><path fill="#a9a0f0" d="M 177.152344 157.304688 C 177.144531 157.296875 177.117188 157.238281 177.082031 157.269531 C 177.046875 157.304688 177.003906 157.429688 177 157.453125 C 176.964844 157.59375 176.929688 157.734375 176.894531 157.875 C 176.785156 158.308594 176.671875 158.742188 176.550781 159.171875 C 176.359375 159.851562 176.152344 160.527344 175.964844 161.207031 C 175.914062 161.394531 175.863281 161.582031 175.824219 161.769531 C 175.804688 161.847656 175.769531 161.949219 175.804688 162.023438 C 175.863281 162.152344 176.019531 162.261719 176.121094 162.359375 C 176.363281 162.582031 176.613281 162.796875 176.855469 163.019531 C 176.867188 163.003906 176.867188 163.054688 176.875 163.074219 C 176.882812 163.105469 176.894531 163.136719 176.90625 163.167969 C 176.9375 163.257812 176.96875 163.347656 177 163.441406 C 177.09375 163.710938 177.191406 163.980469 177.28125 164.25 C 177.558594 165.0625 177.875 165.863281 178.210938 166.65625 C 179.226562 169.046875 180.566406 171.339844 182.011719 173.535156 C 181.960938 173.453125 181.886719 173.6875 181.820312 173.761719 C 181.691406 173.902344 181.554688 174.039062 181.417969 174.171875 C 181.003906 174.566406 180.605469 174.972656 180.167969 175.347656 C 178.855469 176.46875 177.523438 177.570312 176.117188 178.597656 C 173.5 180.511719 170.59375 182.128906 167.523438 183.359375 C 165.4375 184.199219 163.234375 184.875 160.957031 185.070312 C 160.9375 185.054688 160.746094 185.089844 160.71875 185.09375 C 160.488281 185.105469 160.261719 185.117188 160.03125 185.121094 C 159.1875 185.140625 158.34375 185.078125 157.511719 184.933594 C 155.011719 184.488281 152.957031 183.136719 151.636719 181.148438 C 151.519531 180.96875 151.410156 180.742188 151.328125 180.542969 C 151.066406 179.917969 150.867188 179.273438 150.738281 178.613281 C 150.171875 175.769531 150.6875 172.722656 151.488281 169.957031 C 151.890625 168.566406 152.441406 167.21875 152.910156 165.84375 C 153.023438 165.515625 153.179688 165.152344 153.175781 164.804688 C 153.175781 164.472656 152.839844 164.617188 152.695312 164.777344 C 152.683594 164.769531 152.613281 164.890625 152.609375 164.894531 C 152.523438 165.035156 152.445312 165.179688 152.367188 165.324219 C 152.183594 165.660156 152.007812 165.996094 151.832031 166.332031 C 150.9375 168.09375 150.191406 169.914062 149.585938 171.773438 C 147.9375 176.84375 147.429688 183.453125 151.839844 187.527344 C 151.835938 187.53125 152.125 187.710938 152.136719 187.71875 C 152.507812 187.9375 152.863281 188.179688 153.238281 188.394531 C 154.785156 189.269531 156.574219 189.722656 158.378906 189.871094 C 163.691406 190.308594 168.949219 187.800781 173.109375 185 C 173.132812 185.011719 173.289062 184.886719 173.320312 184.863281 C 173.535156 184.714844 173.746094 184.5625 173.960938 184.414062 C 174.953125 183.734375 175.949219 183.046875 176.910156 182.328125 C 179.089844 180.683594 181.472656 178.660156 182.664062 176.265625 C 183.457031 174.679688 183.699219 172.75 183.578125 171.027344 C 183.585938 171.023438 183.582031 170.953125 183.582031 170.945312 C 183.578125 170.832031 183.570312 170.722656 183.5625 170.613281 C 183.523438 170.148438 183.441406 169.691406 183.308594 169.242188 C 182.765625 167.382812 181.546875 165.769531 180.644531 164.050781 C 180.445312 163.675781 180.253906 163.300781 180.074219 162.917969 C 180.050781 162.867188 179.878906 162.585938 179.941406 162.53125 C 180.015625 162.46875 180.300781 162.648438 180.359375 162.679688 C 180.695312 162.855469 181.085938 163.210938 181.496094 163.226562 C 182.042969 163.246094 181.785156 162.660156 181.582031 162.441406 C 181.570312 162.445312 181.390625 162.191406 181.382812 162.179688 C 181.144531 161.851562 180.890625 161.539062 180.636719 161.21875 C 179.59375 159.90625 177.753906 157.957031 177.152344 157.304688 Z M 177.152344 157.304688 " fill-opacity="1" fill-rule="evenodd"/></svg>