<svg xmlns="http://www.w3.org/2000/svg" xmlns:xlink="http://www.w3.org/1999/xlink" width="400" zoomAndPan="magnify" viewBox="0 0 300 299.999988" height="400" preserveAspectRatio="xMidYMid meet" version="1.0"><defs><clipPath id="da1580f201"><path d="M 139 65 L 264.75 65 L 264.75 177 L 139 177 Z M 139 65 " clip-rule="nonzero"/></clipPath><clipPath id="f2433957b3"><path d="M 30 153 L 232 153 L 232 264.75 L 30 264.75 Z M 30 153 " clip-rule="nonzero"/></clipPath></defs><g clip-path="url(#da1580f201)"><path fill="currentColor" d="M 140.625 176.585938 C 143.1875 176.585938 145.75 176.402344 148.3125 176.402344 C 144.46875 166.335938 146.664062 153.894531 154.714844 144.375 C 163.316406 134.496094 186.191406 119.304688 202.296875 116.742188 C 202.296875 117.109375 202.480469 117.292969 202.664062 117.660156 C 187.109375 126.808594 167.34375 146.574219 163.867188 150.414062 C 156.179688 159.199219 151.054688 168.53125 149.59375 176.21875 C 152.152344 176.035156 154.714844 176.035156 157.277344 175.851562 C 158.925781 170.363281 162.769531 162.859375 169.539062 155.171875 C 179.238281 144.195312 195.707031 130.46875 206.324219 123.878906 L 160.574219 175.671875 C 164.230469 175.304688 167.890625 175.121094 171.1875 174.753906 L 212.910156 127.722656 C 208.152344 138.886719 196.074219 158.101562 186.191406 169.449219 C 184.910156 170.910156 183.8125 172.191406 182.53125 173.292969 C 186.742188 172.742188 190.769531 172.011719 194.246094 171.277344 C 201.015625 162.859375 211.445312 147.855469 217.484375 135.226562 C 216.207031 145.292969 211.628906 157.917969 205.957031 168.351562 C 210.53125 166.886719 213.824219 165.605469 215.839844 164.324219 C 221.511719 152.0625 225.722656 137.789062 224.804688 126.808594 L 235.421875 114.730469 L 261.039062 85.816406 C 263.238281 83.253906 264.335938 80.144531 264.152344 76.664062 C 263.96875 73.371094 262.320312 70.261719 259.761719 68.066406 C 254.453125 63.671875 246.582031 64.222656 242.007812 69.34375 L 216.9375 97.894531 L 207.054688 109.058594 C 206.324219 109.058594 205.589844 109.058594 204.675781 109.058594 C 185.828125 110.519531 159.292969 128.089844 149.226562 139.617188 C 139.894531 150.414062 137.148438 164.691406 140.625 176.585938 Z M 247.679688 74.285156 C 249.695312 72.089844 252.988281 71.90625 255.367188 73.738281 C 256.464844 74.652344 257.015625 75.933594 257.199219 77.214844 C 257.378906 78.496094 256.832031 79.960938 255.917969 80.875 L 232.675781 107.042969 L 224.804688 100.089844 Z M 219.863281 105.578125 L 227.734375 112.535156 L 219.132812 122.234375 L 211.082031 115.460938 Z M 219.863281 105.578125 " fill-opacity="1" fill-rule="nonzero"/></g><path fill="currentColor" d="M 113.90625 160.480469 C 113.90625 162.492188 115.554688 164.140625 117.566406 164.140625 C 119.578125 164.140625 121.226562 162.492188 121.226562 160.480469 C 121.226562 158.285156 122.140625 156.089844 123.421875 154.625 L 124.15625 153.894531 C 125.800781 152.429688 127.816406 151.695312 130.011719 151.695312 C 132.023438 151.695312 133.671875 150.050781 133.671875 148.035156 C 133.671875 146.023438 132.023438 144.375 130.011719 144.375 C 121.410156 144.011719 113.90625 151.332031 113.90625 160.480469 Z M 113.90625 160.480469 " fill-opacity="1" fill-rule="nonzero"/><path fill="currentColor" d="M 77.304688 165.972656 C 77.304688 167.984375 78.953125 169.632812 80.964844 169.632812 C 82.980469 169.632812 84.625 167.984375 84.625 165.972656 C 84.625 163.773438 85.542969 161.578125 86.824219 160.113281 L 87.554688 159.382812 C 89.203125 157.917969 91.214844 157.1875 93.410156 157.1875 C 95.421875 157.1875 97.070312 155.539062 97.070312 153.527344 C 97.070312 151.515625 95.421875 149.867188 93.410156 149.867188 C 84.808594 149.5 77.304688 156.820312 77.304688 165.972656 Z M 77.304688 165.972656 " fill-opacity="1" fill-rule="nonzero"/><path fill="currentColor" d="M 46.011719 83.804688 C 46.011719 83.804688 92.3125 92.585938 92.496094 92.585938 C 93.960938 92.585938 95.421875 91.671875 95.972656 90.207031 L 97.800781 85.265625 L 105.121094 84.71875 C 106.21875 84.71875 107.320312 83.984375 107.867188 83.070312 L 113.722656 74.46875 L 118.847656 74.835938 C 120.679688 75.019531 122.324219 73.738281 122.691406 71.90625 L 126.71875 52.144531 C 127.082031 50.128906 126.71875 48.300781 125.617188 46.652344 C 124.519531 45.007812 122.875 43.90625 120.859375 43.542969 L 52.785156 30.367188 C 50.769531 30 48.941406 31.28125 48.574219 33.292969 L 40.15625 75.203125 C 39.789062 77.214844 40.15625 79.042969 41.253906 80.691406 C 42.351562 82.339844 44.183594 83.4375 46.011719 83.804688 Z M 119.214844 50.496094 L 115.917969 67.148438 L 112.078125 66.964844 C 110.796875 66.785156 109.515625 67.515625 108.78125 68.613281 L 102.742188 77.582031 L 94.691406 78.128906 C 93.226562 78.3125 91.945312 79.226562 91.582031 80.507812 L 90.117188 84.71875 L 82.246094 83.253906 L 89.933594 45.007812 Z M 82.613281 43.542969 L 74.925781 81.789062 L 68.15625 80.507812 L 75.84375 42.261719 Z M 54.980469 38.234375 L 68.703125 40.980469 L 61.019531 79.226562 L 47.292969 76.664062 Z M 54.980469 38.234375 " fill-opacity="1" fill-rule="nonzero"/><path fill="currentColor" d="M 110.796875 109.058594 C 99.816406 109.058594 89.933594 115.644531 85.722656 125.527344 C 82.613281 124.429688 79.320312 123.699219 76.023438 123.699219 C 60.835938 123.699219 48.574219 135.957031 48.574219 151.148438 C 48.574219 155.171875 49.308594 158.832031 50.953125 162.492188 C 51.503906 163.773438 52.96875 164.691406 54.246094 164.691406 C 54.796875 164.691406 55.347656 164.507812 55.710938 164.324219 C 57.542969 163.410156 58.457031 161.394531 57.542969 159.566406 C 56.445312 157.003906 55.710938 154.074219 55.710938 151.332031 C 55.710938 140.167969 64.679688 131.199219 75.84375 131.199219 C 79.320312 131.199219 82.796875 132.117188 85.722656 133.945312 C 86.640625 134.496094 87.921875 134.496094 89.019531 134.128906 C 90.117188 133.761719 90.847656 132.847656 91.214844 131.75 C 93.59375 122.597656 101.644531 116.378906 110.796875 116.378906 C 119.03125 116.378906 126.351562 121.316406 129.460938 128.820312 C 130.011719 130.101562 131.109375 131.015625 132.574219 131.015625 C 136.597656 131.382812 140.441406 132.847656 143.371094 135.226562 C 143.554688 135.042969 143.554688 134.859375 143.734375 134.675781 C 145.015625 133.214844 146.664062 131.566406 148.496094 129.917969 C 144.835938 126.808594 140.257812 124.613281 135.316406 123.878906 C 130.558594 114.914062 121.226562 109.058594 110.796875 109.058594 Z M 110.796875 109.058594 " fill-opacity="1" fill-rule="nonzero"/><g clip-path="url(#f2433957b3)"><path fill="currentColor" d="M 130.925781 264.609375 C 186.375 264.609375 231.578125 220.324219 231.578125 165.789062 C 231.578125 162.675781 229.746094 159.75 226.820312 157.1875 C 225.90625 159.566406 224.988281 162.128906 223.890625 164.507812 C 224.074219 164.871094 224.257812 165.421875 224.257812 165.789062 C 224.257812 165.972656 224.257812 166.335938 224.074219 166.519531 C 224.074219 166.519531 224.074219 166.703125 224.074219 166.703125 C 223.890625 166.886719 223.890625 167.070312 223.707031 167.433594 C 223.707031 167.433594 223.707031 167.617188 223.523438 167.617188 C 223.160156 168.167969 222.425781 168.714844 221.695312 169.449219 C 212.910156 175.851562 182.167969 184.089844 130.925781 184.089844 C 79.320312 184.089844 48.390625 175.671875 39.972656 169.082031 C 39.058594 168.351562 37.59375 167.253906 37.59375 165.789062 C 37.59375 164.324219 39.242188 162.492188 42.71875 160.664062 C 41.988281 158.285156 41.621094 155.722656 41.4375 153.34375 C 34.847656 156.636719 30.824219 160.480469 30.457031 165.054688 C 30.457031 165.238281 30.457031 165.605469 30.457031 165.789062 C 30.273438 220.324219 75.476562 264.609375 130.925781 264.609375 Z M 130.925781 191.410156 C 159.109375 191.410156 196.988281 188.113281 217.304688 179.695312 C 219.5 178.78125 221.695312 177.867188 223.707031 176.585938 C 218.21875 221.96875 178.871094 257.289062 131.109375 257.289062 C 83.34375 257.289062 43.632812 221.96875 38.328125 176.585938 C 55.894531 187.199219 99.449219 191.410156 130.925781 191.410156 Z M 130.925781 191.410156 " fill-opacity="1" fill-rule="nonzero"/></g><path fill="currentColor" d="M 121.777344 88.925781 C 121.777344 89.414062 121.683594 89.878906 121.496094 90.328125 C 121.3125 90.777344 121.046875 91.171875 120.703125 91.515625 C 120.359375 91.859375 119.964844 92.121094 119.515625 92.308594 C 119.066406 92.492188 118.601562 92.585938 118.117188 92.585938 C 117.628906 92.585938 117.164062 92.492188 116.714844 92.308594 C 116.265625 92.121094 115.871094 91.859375 115.527344 91.515625 C 115.183594 91.171875 114.921875 90.777344 114.734375 90.328125 C 114.546875 89.878906 114.457031 89.414062 114.457031 88.925781 C 114.457031 88.441406 114.546875 87.972656 114.734375 87.527344 C 114.921875 87.078125 115.183594 86.683594 115.527344 86.339844 C 115.871094 85.996094 116.265625 85.730469 116.714844 85.546875 C 117.164062 85.359375 117.628906 85.265625 118.117188 85.265625 C 118.601562 85.265625 119.066406 85.359375 119.515625 85.546875 C 119.964844 85.730469 120.359375 85.996094 120.703125 86.339844 C 121.046875 86.683594 121.3125 87.078125 121.496094 87.527344 C 121.683594 87.972656 121.777344 88.441406 121.777344 88.925781 Z M 121.777344 88.925781 " fill-opacity="1" fill-rule="nonzero"/><path fill="currentColor" d="M 130.925781 99.90625 C 130.925781 100.390625 130.832031 100.859375 130.648438 101.308594 C 130.460938 101.757812 130.195312 102.152344 129.855469 102.496094 C 129.511719 102.839844 129.113281 103.101562 128.667969 103.289062 C 128.21875 103.472656 127.75 103.566406 127.265625 103.566406 C 126.78125 103.566406 126.3125 103.472656 125.867188 103.289062 C 125.417969 103.101562 125.019531 102.839844 124.679688 102.496094 C 124.335938 102.152344 124.070312 101.757812 123.882812 101.308594 C 123.699219 100.859375 123.605469 100.390625 123.605469 99.90625 C 123.605469 99.421875 123.699219 98.953125 123.882812 98.507812 C 124.070312 98.058594 124.335938 97.664062 124.679688 97.320312 C 125.019531 96.976562 125.417969 96.710938 125.867188 96.527344 C 126.3125 96.339844 126.78125 96.246094 127.265625 96.246094 C 127.75 96.246094 128.21875 96.339844 128.667969 96.527344 C 129.113281 96.710938 129.511719 96.976562 129.855469 97.320312 C 130.195312 97.664062 130.460938 98.058594 130.648438 98.507812 C 130.832031 98.953125 130.925781 99.421875 130.925781 99.90625 Z M 130.925781 99.90625 " fill-opacity="1" fill-rule="nonzero"/><path fill="currentColor" d="M 110.796875 98.078125 C 110.796875 98.5625 110.703125 99.027344 110.515625 99.476562 C 110.332031 99.925781 110.066406 100.320312 109.722656 100.664062 C 109.378906 101.007812 108.984375 101.273438 108.535156 101.457031 C 108.085938 101.644531 107.621094 101.738281 107.136719 101.738281 C 106.648438 101.738281 106.183594 101.644531 105.734375 101.457031 C 105.285156 101.273438 104.890625 101.007812 104.546875 100.664062 C 104.203125 100.320312 103.941406 99.925781 103.753906 99.476562 C 103.570312 99.027344 103.476562 98.5625 103.476562 98.078125 C 103.476562 97.589844 103.570312 97.125 103.753906 96.675781 C 103.941406 96.226562 104.203125 95.832031 104.546875 95.488281 C 104.890625 95.144531 105.285156 94.882812 105.734375 94.695312 C 106.183594 94.511719 106.648438 94.417969 107.136719 94.417969 C 107.621094 94.417969 108.085938 94.511719 108.535156 94.695312 C 108.984375 94.882812 109.378906 95.144531 109.722656 95.488281 C 110.066406 95.832031 110.332031 96.226562 110.515625 96.675781 C 110.703125 97.125 110.796875 97.589844 110.796875 98.078125 Z M 110.796875 98.078125 " fill-opacity="1" fill-rule="nonzero"/></svg>