<svg xmlns="http://www.w3.org/2000/svg" xmlns:xlink="http://www.w3.org/1999/xlink" width="400" zoomAndPan="magnify" viewBox="0 0 300 299.999988" height="400" preserveAspectRatio="xMidYMid meet" version="1.0"><defs><clipPath id="8ca9070474"><path d="M 225 91 L 247.351562 91 L 247.351562 114 L 225 114 Z M 225 91 " clip-rule="nonzero"/></clipPath><clipPath id="fb39e29afc"><path d="M 52.351562 59 L 75 59 L 75 83 L 52.351562 83 Z M 52.351562 59 " clip-rule="nonzero"/></clipPath></defs><path fill="currentColor" d="M 84.898438 92.714844 C 85.644531 94.574219 87.6875 95.503906 89.546875 94.945312 C 89.546875 94.945312 211.558594 57.003906 211.558594 57.003906 C 213.605469 56.445312 214.722656 54.214844 213.976562 52.167969 L 210.257812 41.566406 C 207.65625 34.125 199.097656 30.035156 191.285156 32.453125 L 156.878906 43.238281 C 155.203125 39.148438 152.042969 35.800781 148.136719 33.941406 C 143.671875 31.707031 138.652344 31.335938 134 33.011719 C 129.351562 34.5 125.445312 37.847656 123.214844 42.308594 C 121.351562 46.03125 120.796875 50.308594 121.726562 54.398438 C 121.726562 54.398438 90.851562 64.070312 90.851562 64.070312 C 83.410156 66.304688 78.574219 74.671875 81.179688 82.296875 C 80.992188 82.113281 84.898438 92.714844 84.898438 92.714844 Z M 129.722656 45.472656 C 131.023438 42.867188 133.257812 40.820312 136.234375 39.890625 C 139.023438 38.960938 142.183594 39.148438 144.789062 40.449219 C 147.019531 41.566406 148.695312 43.238281 149.625 45.472656 L 128.605469 51.980469 C 128.421875 49.75 128.792969 47.519531 129.722656 45.472656 Z M 92.898438 70.953125 C 92.898438 70.953125 193.332031 39.707031 193.332031 39.707031 C 197.054688 38.589844 201.703125 40.265625 203.191406 44.167969 L 205.609375 51.050781 L 90.664062 86.761719 C 90.664062 86.761719 88.0625 79.507812 88.0625 79.507812 C 85.828125 73.742188 91.035156 71.511719 92.898438 70.953125 Z M 92.898438 70.953125 " fill-opacity="1" fill-rule="nonzero"/><path fill="currentColor" d="M 208.585938 74.671875 C 208.585938 80.808594 213.605469 85.832031 219.742188 85.832031 C 225.882812 85.832031 230.902344 80.808594 230.902344 74.671875 C 230.902344 68.535156 225.882812 63.511719 219.742188 63.511719 C 213.605469 63.511719 208.585938 68.535156 208.585938 74.671875 Z M 219.742188 70.953125 C 221.789062 70.953125 223.464844 72.625 223.464844 74.671875 C 223.464844 76.71875 221.789062 78.390625 219.742188 78.390625 C 217.699219 78.390625 216.023438 76.71875 216.023438 74.671875 C 216.023438 72.625 217.699219 70.953125 219.742188 70.953125 Z M 219.742188 70.953125 " fill-opacity="1" fill-rule="nonzero"/><g clip-path="url(#8ca9070474)"><path fill="currentColor" d="M 236.484375 91.410156 C 230.34375 91.410156 225.324219 96.433594 225.324219 102.570312 C 225.324219 108.710938 230.34375 113.730469 236.484375 113.730469 C 242.621094 113.730469 247.644531 108.710938 247.644531 102.570312 C 247.644531 96.433594 242.621094 91.410156 236.484375 91.410156 Z M 236.484375 106.292969 C 234.4375 106.292969 232.761719 104.617188 232.761719 102.570312 C 232.761719 100.527344 234.4375 98.851562 236.484375 98.851562 C 238.527344 98.851562 240.203125 100.527344 240.203125 102.570312 C 240.203125 104.617188 238.527344 106.292969 236.484375 106.292969 Z M 236.484375 106.292969 " fill-opacity="1" fill-rule="nonzero"/></g><g clip-path="url(#fb39e29afc)"><path fill="currentColor" d="M 63.507812 59.792969 C 57.371094 59.792969 52.351562 64.816406 52.351562 70.953125 C 52.351562 77.089844 57.371094 82.113281 63.507812 82.113281 C 69.648438 82.113281 74.667969 77.089844 74.667969 70.953125 C 74.667969 64.816406 69.648438 59.792969 63.507812 59.792969 Z M 63.507812 74.671875 C 61.464844 74.671875 59.789062 73 59.789062 70.953125 C 59.789062 68.90625 61.464844 67.234375 63.507812 67.234375 C 65.554688 67.234375 67.230469 68.90625 67.230469 70.953125 C 67.230469 73 65.554688 74.671875 63.507812 74.671875 Z M 63.507812 74.671875 " fill-opacity="1" fill-rule="nonzero"/></g><path fill="currentColor" d="M 217.882812 262.527344 L 208.585938 262.527344 L 208.585938 243.925781 C 208.585938 241.878906 206.910156 240.207031 204.863281 240.207031 L 193.703125 240.207031 C 191.660156 240.207031 189.984375 241.878906 189.984375 243.925781 C 189.984375 245.972656 191.660156 247.644531 193.703125 247.644531 L 201.144531 247.644531 L 201.144531 262.527344 L 156.507812 262.527344 L 156.507812 243.925781 C 156.507812 241.878906 154.832031 240.207031 152.785156 240.207031 C 150.742188 240.207031 149.066406 241.878906 149.066406 243.925781 L 149.066406 262.527344 L 104.429688 262.527344 L 104.429688 247.644531 L 111.867188 247.644531 C 113.914062 247.644531 115.585938 245.972656 115.585938 243.925781 C 115.585938 241.878906 113.914062 240.207031 111.867188 240.207031 L 100.707031 240.207031 C 98.664062 240.207031 96.988281 241.878906 96.988281 243.925781 L 96.988281 262.527344 L 87.6875 262.527344 C 85.644531 262.527344 83.96875 264.199219 83.96875 266.246094 C 83.96875 268.292969 85.644531 269.964844 87.6875 269.964844 L 217.882812 269.964844 C 219.929688 269.964844 221.605469 268.292969 221.605469 266.246094 C 221.605469 264.199219 219.929688 262.527344 217.882812 262.527344 Z M 217.882812 262.527344 " fill-opacity="1" fill-rule="nonzero"/><path fill="currentColor" d="M 216.769531 119.3125 L 207.28125 119.3125 C 207.28125 118.9375 207.097656 118.566406 206.910156 118.195312 C 211.1875 115.589844 213.976562 110.941406 213.976562 105.734375 C 213.976562 97.550781 207.28125 91.039062 199.097656 91.039062 C 198.167969 91.039062 197.054688 91.226562 196.121094 91.410156 C 193.519531 89.925781 190.542969 88.808594 187.007812 88.25 C 179.570312 86.949219 171.757812 89.738281 166.550781 95.875 C 166.179688 96.246094 165.992188 96.621094 165.804688 96.804688 C 161.34375 94.386719 155.761719 93.828125 150.367188 95.132812 C 144.042969 96.621094 140.695312 100.710938 139.023438 104.988281 C 135.117188 101.828125 130.09375 101.082031 124.515625 102.945312 C 117.820312 105.175781 113.355469 112.058594 113.726562 119.496094 L 88.804688 119.496094 C 82.109375 119.496094 76.527344 125.078125 76.527344 131.773438 C 76.527344 138.46875 82.109375 144.046875 88.804688 144.046875 L 89.363281 144.046875 L 89.363281 208.585938 C 89.363281 216.957031 96.058594 223.652344 104.429688 223.652344 L 201.144531 223.652344 C 209.515625 223.652344 216.210938 216.957031 216.210938 208.585938 L 216.210938 143.863281 L 216.769531 143.863281 C 223.464844 143.863281 229.042969 138.28125 229.042969 131.585938 C 229.042969 124.890625 223.464844 119.3125 216.769531 119.3125 Z M 199.285156 98.292969 C 203.375 98.292969 206.722656 101.640625 206.722656 105.546875 C 206.722656 109.453125 203.375 112.800781 199.285156 112.800781 C 195.191406 112.800781 191.84375 109.453125 191.84375 105.546875 C 191.84375 101.640625 195.191406 98.292969 199.285156 98.292969 Z M 126.933594 109.824219 C 132.140625 108.152344 135.675781 109.824219 138.09375 115.589844 C 138.835938 117.265625 140.695312 118.195312 142.371094 117.636719 C 144.230469 117.265625 145.347656 115.40625 145.160156 113.730469 C 144.976562 112.800781 144.417969 104.058594 152.414062 102.199219 C 156.878906 101.082031 161.15625 101.828125 164.503906 104.429688 C 166.550781 106.105469 167.851562 108.152344 167.851562 109.824219 C 167.851562 111.871094 169.527344 113.546875 171.570312 113.546875 C 173.617188 113.546875 175.292969 111.871094 175.292969 109.824219 C 175.292969 106.847656 173.988281 103.875 171.945312 101.269531 C 172.128906 101.082031 172.316406 100.710938 172.5 100.527344 C 176.222656 96.433594 181.058594 94.386719 186.078125 95.316406 C 186.824219 95.503906 187.566406 95.691406 188.3125 95.875 C 185.894531 98.480469 184.589844 102.015625 184.589844 105.734375 C 184.589844 113.917969 191.285156 120.425781 199.46875 120.425781 C 199.65625 120.425781 199.84375 120.425781 200.214844 120.425781 C 201.332031 124.519531 200.773438 129.539062 198.167969 131.402344 C 196.679688 132.515625 194.449219 133.074219 192.402344 132.703125 C 191.84375 129.726562 190.542969 126.9375 188.867188 124.519531 C 187.753906 122.84375 185.335938 122.472656 183.660156 123.589844 C 181.988281 124.703125 181.617188 127.121094 182.730469 128.796875 C 185.335938 132.332031 186.449219 137.722656 183.289062 140.699219 C 180.128906 143.675781 175.476562 141.628906 173.804688 140.699219 C 173.058594 139.585938 172.316406 138.46875 171.199219 137.539062 C 169.710938 136.238281 167.292969 136.238281 165.992188 137.722656 C 164.691406 139.210938 164.691406 141.628906 166.179688 142.933594 C 168.597656 145.164062 169.898438 149.8125 168.78125 153.160156 C 168.039062 155.394531 166.734375 157.441406 164.503906 158.925781 C 158.738281 163.207031 151.484375 161.902344 146.089844 157.996094 C 147.765625 157.066406 149.4375 155.953125 151.113281 154.277344 C 152.601562 152.789062 152.601562 150.558594 151.113281 149.070312 C 149.625 147.582031 147.390625 147.582031 145.90625 149.070312 C 145.71875 149.257812 139.394531 155.394531 133.441406 151.488281 C 130.839844 149.8125 129.164062 147.582031 128.421875 144.605469 C 127.492188 141.074219 128.421875 135.121094 130.46875 132.886719 C 131.769531 131.402344 131.769531 128.984375 130.09375 127.679688 C 129.351562 126.9375 128.421875 126.75 127.492188 126.75 C 126.003906 126.191406 124.144531 124.890625 122.65625 122.660156 C 122.097656 121.914062 121.167969 120.425781 121.167969 118.566406 C 120.980469 114.847656 123.214844 110.941406 126.933594 109.824219 Z M 208.769531 208.402344 C 208.769531 212.679688 205.421875 216.027344 201.144531 216.027344 L 104.429688 216.027344 C 100.148438 216.027344 96.800781 212.679688 96.800781 208.402344 L 96.800781 201.148438 L 208.769531 201.148438 Z M 216.769531 136.421875 L 212.488281 136.421875 C 210.445312 136.421875 208.769531 138.097656 208.769531 140.140625 L 208.769531 193.707031 L 96.800781 193.707031 L 96.800781 140.140625 C 96.800781 138.097656 95.128906 136.421875 93.082031 136.421875 L 88.804688 136.421875 C 86.199219 136.421875 83.96875 134.191406 83.96875 131.585938 C 83.96875 128.984375 86.199219 126.75 88.804688 126.75 L 116.332031 126.75 C 116.519531 126.9375 116.519531 127.121094 116.703125 127.308594 C 118.378906 129.914062 120.421875 131.585938 122.46875 132.703125 C 120.609375 137.351562 120.421875 143.117188 121.539062 147.023438 C 122.839844 151.675781 125.632812 155.578125 129.722656 158.183594 C 132.511719 160.042969 135.117188 160.601562 137.90625 160.789062 C 142.558594 165.996094 149.808594 169.714844 157.0625 169.714844 C 161.34375 169.714844 165.804688 168.414062 169.527344 165.4375 C 172.875 162.832031 175.292969 159.484375 176.40625 155.765625 C 176.964844 153.90625 177.152344 151.675781 176.964844 149.628906 C 177.894531 149.8125 178.640625 149.8125 179.570312 149.8125 C 183.101562 149.8125 186.265625 148.511719 188.867188 146.09375 C 190.730469 144.421875 191.84375 142.375 192.402344 140.140625 C 192.960938 140.140625 193.519531 140.328125 194.078125 140.328125 C 197.054688 140.328125 200.214844 139.398438 202.820312 137.351562 C 206.167969 134.933594 207.839844 131.027344 208.210938 126.75 L 217.140625 126.75 C 219.742188 126.75 221.976562 128.984375 221.976562 131.585938 C 221.605469 134.191406 219.371094 136.421875 216.769531 136.421875 Z M 216.769531 136.421875 " fill-opacity="1" fill-rule="nonzero"/></svg>