<svg xmlns="http://www.w3.org/2000/svg" xmlns:xlink="http://www.w3.org/1999/xlink" width="400" zoomAndPan="magnify" viewBox="0 0 300 299.999988" height="400" preserveAspectRatio="xMidYMid meet" version="1.0"><path fill="currentColor" d="M 31.90625 269.992188 L 268.09375 269.992188 C 269.148438 269.992188 270 269.140625 270 268.089844 L 270 31.90625 C 270 30.851562 269.148438 30 268.09375 30 L 31.90625 30 C 30.851562 30 30 30.851562 30 31.90625 L 30 268.089844 C 30 269.140625 30.851562 269.992188 31.90625 269.992188 Z M 33.808594 266.183594 L 33.808594 251.394531 L 266.191406 251.394531 L 266.191406 266.183594 Z M 70.289062 218.183594 L 70.289062 215.3125 L 229.710938 215.3125 L 229.710938 218.183594 C 229.710938 225.90625 223.640625 232.1875 216.179688 232.1875 L 83.820312 232.1875 C 76.359375 232.1875 70.289062 225.90625 70.289062 218.183594 Z M 78.84375 184.773438 C 82.480469 180.117188 89.953125 178.6875 90.023438 178.671875 C 90.835938 178.523438 91.460938 177.871094 91.570312 177.050781 C 91.582031 176.945312 93.015625 166.589844 99.390625 156.128906 C 107.871094 142.214844 120.628906 134.859375 137.316406 134.265625 C 153.980469 133.671875 167.457031 139.714844 177.351562 152.214844 C 181.082031 156.933594 183.582031 161.738281 185.152344 165.375 C 182.167969 163.492188 178.445312 161.953125 173.585938 161.40625 C 165.601562 160.511719 157.546875 162.914062 152.039062 167.839844 C 147.460938 171.933594 144.9375 177.527344 144.9375 183.59375 C 144.9375 187.511719 145.886719 191.515625 147.765625 195.539062 L 76.464844 195.539062 C 76.265625 193.035156 76.261719 188.074219 78.84375 184.773438 Z M 228.871094 187.492188 C 229.710938 188.019531 232.105469 189.992188 232.105469 192.097656 C 232.105469 193.949219 230.289062 195.136719 229.558594 195.539062 L 215.382812 195.539062 C 215.445312 192.734375 215.328125 187.765625 213.992188 183.820312 C 216.558594 180.101562 223.015625 172.367188 227.578125 173.699219 C 228.589844 173.996094 229.234375 174.523438 229.613281 175.367188 C 230.863281 178.148438 228.988281 183.308594 228.164062 185.0625 C 227.75 185.933594 228.054688 186.980469 228.871094 187.492188 Z M 211.578125 195.539062 L 152.023438 195.539062 C 149.851562 191.472656 148.75 187.457031 148.75 183.59375 C 148.75 178.554688 150.765625 174.089844 154.578125 170.679688 C 159.292969 166.464844 166.238281 164.414062 173.160156 165.191406 C 181.75 166.160156 186.207031 170.671875 189.785156 174.296875 C 191.523438 176.054688 193.019531 177.574219 194.734375 178.4375 C 197.15625 179.660156 199.5 179.890625 201.761719 180.113281 C 204.277344 180.359375 206.453125 180.570312 208.609375 182.082031 C 210.941406 183.714844 211.703125 190.40625 211.578125 195.539062 Z M 229.847656 199.347656 C 234.679688 199.347656 238.605469 203.277344 238.605469 208.105469 L 238.605469 211.5 L 61.394531 211.5 L 61.394531 208.105469 C 61.394531 203.277344 65.324219 199.347656 70.152344 199.347656 Z M 233.519531 218.183594 L 233.519531 215.3125 L 240.511719 215.3125 C 241.5625 215.3125 242.417969 214.457031 242.417969 213.40625 L 242.417969 208.105469 C 242.417969 202.773438 239.078125 198.210938 234.382812 196.386719 C 235.242188 195.300781 235.917969 193.878906 235.917969 192.097656 C 235.917969 188.960938 233.707031 186.539062 232.214844 185.261719 C 233.199219 182.742188 234.78125 177.578125 233.09375 173.8125 C 232.261719 171.953125 230.722656 170.652344 228.652344 170.042969 C 222.007812 168.101562 215.15625 175.835938 211.992188 180.070312 C 211.632812 179.648438 211.234375 179.273438 210.796875 178.964844 C 207.820312 176.878906 204.800781 176.582031 202.136719 176.320312 C 200.132812 176.125 198.238281 175.9375 196.453125 175.039062 C 195.292969 174.453125 194 173.140625 192.5 171.621094 C 191.996094 171.113281 191.472656 170.582031 190.914062 170.039062 C 190.265625 167.765625 187.414062 158.84375 180.433594 149.972656 C 173.082031 140.632812 159.601562 129.664062 137.183594 130.460938 C 114.703125 131.257812 102.453125 143.78125 96.136719 154.148438 C 90.644531 163.164062 88.617188 171.964844 88.011719 175.230469 C 85.355469 175.921875 79.371094 177.910156 75.84375 182.425781 C 72.566406 186.617188 72.421875 192.394531 72.640625 195.539062 L 70.152344 195.539062 C 63.222656 195.539062 57.585938 201.175781 57.585938 208.105469 L 57.585938 213.40625 C 57.585938 214.457031 58.4375 215.3125 59.488281 215.3125 L 66.480469 215.3125 L 66.480469 218.183594 C 66.480469 223.863281 69.082031 228.921875 73.121094 232.1875 L 52.480469 232.1875 L 52.480469 81.515625 L 247.519531 81.515625 L 247.519531 232.1875 L 226.878906 232.1875 C 230.917969 228.921875 233.519531 223.863281 233.519531 218.183594 Z M 247.519531 77.707031 L 52.480469 77.707031 L 52.480469 33.808594 L 247.519531 33.808594 Z M 48.667969 33.808594 L 48.667969 234.09375 C 48.667969 235.144531 49.523438 235.996094 50.574219 235.996094 L 249.425781 235.996094 C 250.476562 235.996094 251.332031 235.144531 251.332031 234.09375 L 251.332031 33.808594 L 266.191406 33.808594 L 266.191406 247.585938 L 33.808594 247.585938 L 33.808594 33.808594 Z M 112.40625 66.480469 L 187.59375 66.480469 C 193.261719 66.480469 197.871094 61.871094 197.871094 56.203125 L 197.871094 55.949219 C 197.871094 50.28125 193.261719 45.671875 187.59375 45.671875 L 112.40625 45.671875 C 106.738281 45.671875 102.128906 50.28125 102.128906 55.949219 L 102.128906 56.203125 C 102.128906 61.871094 106.738281 66.480469 112.40625 66.480469 Z M 105.9375 55.949219 C 105.9375 52.382812 108.839844 49.480469 112.40625 49.480469 L 187.59375 49.480469 C 191.160156 49.480469 194.0625 52.382812 194.0625 55.949219 L 194.0625 56.203125 C 194.0625 59.769531 191.160156 62.671875 187.59375 62.671875 L 112.40625 62.671875 C 108.839844 62.671875 105.9375 59.769531 105.9375 56.203125 Z M 182.644531 177.144531 C 182.269531 177.628906 181.707031 177.882812 181.136719 177.882812 C 180.730469 177.882812 180.320312 177.753906 179.972656 177.484375 L 175.828125 174.28125 C 174.996094 173.636719 174.84375 172.441406 175.484375 171.609375 C 176.128906 170.777344 177.324219 170.625 178.15625 171.269531 L 182.300781 174.472656 C 183.132812 175.113281 183.289062 176.308594 182.644531 177.144531 Z M 195.5625 186.234375 C 195.234375 186.914062 194.554688 187.3125 193.847656 187.3125 C 193.570312 187.3125 193.289062 187.25 193.019531 187.121094 L 187.066406 184.253906 C 186.117188 183.796875 185.71875 182.65625 186.175781 181.710938 C 186.632812 180.761719 187.769531 180.363281 188.71875 180.820312 L 194.675781 183.691406 C 195.621094 184.148438 196.019531 185.285156 195.5625 186.234375 Z M 173.171875 179.53125 C 173.171875 180.585938 172.316406 181.4375 171.265625 181.4375 L 165.636719 181.4375 C 164.585938 181.4375 163.730469 180.585938 163.730469 179.53125 C 163.730469 178.480469 164.585938 177.628906 165.636719 177.628906 L 171.265625 177.628906 C 172.316406 177.628906 173.171875 178.480469 173.171875 179.53125 Z M 142.683594 143.847656 C 142.992188 144.855469 142.429688 145.917969 141.421875 146.226562 L 135.695312 147.988281 C 135.507812 148.042969 135.320312 148.070312 135.132812 148.070312 C 134.320312 148.070312 133.566406 147.542969 133.3125 146.726562 C 133.003906 145.71875 133.570312 144.652344 134.574219 144.34375 L 140.304688 142.585938 C 141.308594 142.277344 142.375 142.84375 142.683594 143.847656 Z M 154.445312 143.082031 C 154.953125 142.160156 156.109375 141.828125 157.03125 142.332031 L 162.140625 145.148438 C 163.0625 145.652344 163.398438 146.8125 162.890625 147.734375 C 162.542969 148.363281 161.894531 148.722656 161.222656 148.722656 C 160.910156 148.722656 160.597656 148.644531 160.304688 148.484375 L 155.195312 145.671875 C 154.273438 145.164062 153.9375 144.003906 154.445312 143.082031 Z M 145.914062 154.261719 C 145.707031 153.230469 146.375 152.226562 147.40625 152.019531 L 150.90625 151.316406 C 151.941406 151.109375 152.941406 151.78125 153.148438 152.8125 C 153.355469 153.84375 152.6875 154.847656 151.65625 155.054688 L 148.15625 155.753906 C 148.027344 155.78125 147.902344 155.792969 147.78125 155.792969 C 146.890625 155.792969 146.09375 155.167969 145.914062 154.261719 Z M 95.082031 91.011719 C 95.625 91.910156 95.335938 93.082031 94.4375 93.625 C 94.414062 93.640625 91.300781 95.605469 90.949219 99.015625 C 90.773438 100.71875 91.632812 103.3125 92.460938 105.824219 C 93.535156 109.074219 94.644531 112.4375 94 115.152344 C 93.421875 117.574219 91.554688 119.390625 89.574219 121.3125 C 87.371094 123.457031 85.089844 125.671875 84.015625 129.019531 C 82.023438 135.226562 85.023438 143.671875 85.054688 143.757812 C 85.410156 144.746094 84.902344 145.839844 83.910156 146.195312 C 83.699219 146.273438 83.480469 146.3125 83.265625 146.3125 C 82.484375 146.3125 81.753906 145.832031 81.472656 145.058594 C 81.332031 144.660156 77.996094 135.3125 80.390625 127.855469 C 81.753906 123.601562 84.617188 120.816406 86.917969 118.582031 C 88.558594 116.988281 89.972656 115.613281 90.292969 114.273438 C 90.691406 112.605469 89.75 109.765625 88.84375 107.019531 C 87.886719 104.125 86.902344 101.136719 87.160156 98.625 C 87.707031 93.296875 92.273438 90.480469 92.46875 90.363281 C 93.367188 89.820312 94.539062 90.109375 95.082031 91.011719 Z M 125.015625 88.855469 C 125.128906 89.09375 127.816406 94.730469 126.625 99.941406 C 126.074219 102.34375 124.628906 104.269531 123.230469 106.132812 C 121.570312 108.339844 120.007812 110.421875 119.785156 113.285156 C 119.386719 118.503906 124.195312 124.683594 124.246094 124.746094 C 124.894531 125.574219 124.753906 126.769531 123.929688 127.421875 C 123.578125 127.695312 123.164062 127.832031 122.75 127.832031 C 122.1875 127.832031 121.628906 127.582031 121.253906 127.105469 C 121.019531 126.808594 115.472656 119.703125 115.988281 112.992188 C 116.292969 109.019531 118.359375 106.269531 120.183594 103.84375 C 121.449219 102.160156 122.542969 100.703125 122.910156 99.09375 C 123.652344 95.839844 122.207031 91.796875 121.585938 90.511719 C 121.128906 89.566406 121.523438 88.425781 122.46875 87.96875 C 123.417969 87.511719 124.558594 87.90625 125.015625 88.855469 Z M 174.171875 119.488281 C 173.792969 123.820312 177.089844 127.40625 177.121094 127.441406 C 177.835938 128.207031 177.800781 129.414062 177.035156 130.132812 C 176.667969 130.476562 176.199219 130.648438 175.730469 130.648438 C 175.226562 130.648438 174.726562 130.449219 174.351562 130.054688 C 174.167969 129.859375 169.84375 125.21875 170.378906 119.152344 C 170.621094 116.414062 171.851562 113.6875 173.039062 111.050781 C 174.332031 108.183594 175.667969 105.21875 175.667969 102.386719 C 175.667969 97.308594 171.421875 93.03125 171.382812 92.988281 C 170.636719 92.246094 170.628906 91.042969 171.371094 90.296875 C 172.109375 89.550781 173.3125 89.539062 174.058594 90.277344 C 174.28125 90.496094 179.476562 95.695312 179.476562 102.390625 C 179.476562 106.039062 177.96875 109.382812 176.511719 112.617188 C 175.402344 115.074219 174.359375 117.394531 174.171875 119.488281 Z M 207.480469 120.863281 C 209.542969 124.453125 211.492188 127.847656 211.492188 131.660156 C 211.492188 135.867188 209.667969 139.429688 207.90625 142.875 C 206.472656 145.667969 205.121094 148.308594 204.804688 151.132812 C 204.117188 157.300781 207.433594 163.957031 207.46875 164.023438 C 207.941406 164.964844 207.5625 166.109375 206.625 166.582031 C 206.351562 166.722656 206.058594 166.789062 205.769531 166.789062 C 205.070312 166.789062 204.402344 166.40625 204.066406 165.742188 C 203.910156 165.429688 200.207031 157.992188 201.019531 150.707031 C 201.410156 147.195312 202.988281 144.113281 204.515625 141.136719 C 206.144531 137.953125 207.683594 134.949219 207.683594 131.660156 C 207.683594 128.863281 205.980469 125.898438 204.175781 122.761719 C 201.972656 118.921875 199.472656 114.574219 199.472656 109.429688 C 199.472656 100.207031 205.265625 91 205.511719 90.613281 C 206.074219 89.722656 207.25 89.460938 208.140625 90.027344 C 209.027344 90.589844 209.289062 91.769531 208.726562 92.65625 C 208.671875 92.742188 203.28125 101.332031 203.28125 109.429688 C 203.28125 113.558594 205.414062 117.269531 207.480469 120.863281 Z M 207.480469 120.863281 " fill-opacity="1" fill-rule="nonzero"/></svg>