<svg xmlns="http://www.w3.org/2000/svg" xmlns:xlink="http://www.w3.org/1999/xlink" width="400" zoomAndPan="magnify" viewBox="0 0 300 299.999988" height="400" preserveAspectRatio="xMidYMid meet" version="1.0"><defs><clipPath id="f3ca38183b"><path d="M 31 81.75 L 270 81.75 L 270 217 L 31 217 Z M 31 81.75 " clip-rule="nonzero"/></clipPath></defs><g clip-path="url(#f3ca38183b)"><path fill="currentColor" d="M 189.609375 194.25 C 176.539062 185.695312 176.421875 185.835938 176.703125 185.402344 C 176.992188 184.972656 176.878906 185.121094 189.972656 193.695312 C 190.34375 193.933594 189.976562 194.492188 189.609375 194.25 Z M 184.578125 181.75 C 184.683594 181.816406 184.789062 181.882812 184.890625 181.949219 C 185.535156 182.417969 186.96875 183.316406 190 185.261719 C 191.09375 185.972656 191.695312 186.359375 192.035156 186.574219 C 192.140625 186.640625 192.246094 186.710938 192.355469 186.78125 C 192.496094 186.871094 192.636719 186.847656 192.734375 186.769531 C 192.742188 186.761719 192.75 186.753906 192.757812 186.746094 C 192.769531 186.734375 192.78125 186.722656 192.789062 186.710938 C 192.800781 186.695312 192.8125 186.679688 192.824219 186.664062 C 192.832031 186.648438 192.839844 186.628906 192.847656 186.609375 C 192.851562 186.601562 192.855469 186.59375 192.855469 186.589844 C 192.882812 186.492188 192.875 186.390625 192.804688 186.300781 L 192.800781 186.300781 C 192.78125 186.273438 192.753906 186.246094 192.71875 186.222656 C 184.675781 181.023438 184.746094 180.878906 184.480469 181.289062 C 184.421875 181.378906 184.382812 181.441406 184.433594 181.535156 C 184.449219 181.621094 184.5 181.699219 184.578125 181.75 Z M 180.378906 192.332031 C 171.722656 186.039062 171.820312 185.898438 171.527344 186.304688 C 171.222656 186.722656 171.324219 186.570312 179.988281 192.867188 C 180.347656 193.125 180.734375 192.589844 180.378906 192.332031 Z M 122.734375 154.457031 C 122.953125 154.601562 123.167969 154.738281 123.382812 154.878906 C 124.644531 155.765625 127.757812 157.734375 135.152344 162.507812 C 137.394531 163.960938 138.636719 164.765625 139.328125 165.207031 C 139.578125 165.371094 139.832031 165.535156 140.085938 165.699219 C 140.226562 165.792969 140.367188 165.765625 140.464844 165.6875 C 140.476562 165.679688 140.484375 165.671875 140.492188 165.664062 C 140.503906 165.652344 140.511719 165.644531 140.519531 165.632812 C 140.53125 165.617188 140.542969 165.601562 140.554688 165.582031 C 140.566406 165.5625 140.574219 165.546875 140.582031 165.527344 C 140.582031 165.519531 140.585938 165.515625 140.585938 165.507812 C 140.617188 165.414062 140.605469 165.308594 140.535156 165.21875 C 140.511719 165.191406 140.484375 165.164062 140.449219 165.140625 C 122.824219 153.722656 122.917969 153.5625 122.636719 153.996094 C 122.601562 154.054688 122.570312 154.101562 122.585938 154.164062 C 122.582031 154.277344 122.632812 154.390625 122.734375 154.457031 Z M 65.707031 129.136719 C 64.515625 127.953125 67.128906 123.609375 78.042969 125.253906 C 80.199219 121.664062 83.679688 120.644531 87.109375 123.671875 C 87.226562 123.777344 87.246094 123.949219 87.167969 124.082031 C 88.476562 124.082031 89.832031 124.117188 90.753906 124.160156 C 93.09375 122.261719 95.542969 120.699219 97.664062 121.367188 C 99.105469 121.824219 99.792969 122.339844 99.816406 122.992188 C 99.855469 123.875 98.546875 124.433594 98.398438 124.492188 C 97.992188 124.660156 97.742188 124.042969 98.148438 123.878906 C 98.578125 123.703125 99.164062 123.304688 99.152344 123.019531 C 99.144531 122.78125 98.695312 122.390625 97.460938 122.003906 C 95.8125 121.484375 93.726562 122.695312 91.734375 124.234375 C 93.238281 124.519531 95.257812 126.339844 95.347656 126.417969 C 95.671875 126.714844 95.226562 127.207031 94.898438 126.914062 C 94.300781 126.367188 92.511719 124.9375 91.4375 124.863281 C 91.304688 124.855469 91.148438 124.84375 90.980469 124.835938 C 89.242188 126.257812 87.648438 127.769531 86.355469 128.617188 C 89.402344 128.816406 92.46875 129.128906 92.511719 129.136719 C 92.945312 129.175781 92.886719 129.835938 92.445312 129.796875 C 92.378906 129.792969 86.015625 129.132812 82.550781 129.132812 C 79.339844 129.132812 78.570312 131.894531 78.539062 132.011719 C 78.480469 132.230469 78.285156 132.292969 78.121094 132.242188 C 77.96875 132.199219 77.839844 132.050781 77.894531 131.84375 C 77.90625 131.8125 78.816406 128.46875 82.550781 128.46875 C 83.308594 128.46875 84.203125 128.5 85.140625 128.550781 C 85.148438 128.542969 85.15625 128.535156 85.164062 128.527344 C 85.171875 128.523438 85.175781 128.519531 85.179688 128.515625 C 85.226562 128.484375 85.265625 128.46875 85.324219 128.445312 C 85.546875 128.339844 85.789062 128.195312 86.046875 128.023438 C 86.546875 127.675781 87.378906 127.03125 88.816406 125.792969 C 88.929688 125.695312 89.046875 125.597656 89.160156 125.5 C 89.433594 125.265625 89.710938 125.027344 89.988281 124.792969 C 88.140625 124.730469 85.535156 124.714844 84.285156 124.863281 C 83.621094 124.9375 82.25 125.703125 80.707031 126.640625 C 80.65625 126.832031 80.476562 126.921875 80.304688 126.882812 C 78.652344 127.894531 76.5 129.289062 74.648438 130.296875 C 75.777344 130.367188 76.839844 130.4375 77.621094 130.398438 C 77.777344 130.390625 77.882812 130.472656 77.933594 130.585938 L 77.933594 130.589844 C 77.933594 130.59375 77.9375 130.597656 77.9375 130.601562 C 77.953125 130.636719 77.964844 130.675781 77.964844 130.71875 C 77.972656 130.8125 77.957031 130.890625 77.894531 130.945312 C 77.84375 131.011719 77.761719 131.058594 77.648438 131.0625 C 77.582031 131.066406 77.511719 131.070312 77.4375 131.070312 C 76.964844 131.105469 76.082031 131.054688 74.46875 130.949219 C 74.339844 130.941406 74.214844 130.933594 74.09375 130.925781 L 74.0625 130.925781 C 73.097656 130.863281 72.363281 130.828125 71.78125 130.816406 C 71.164062 130.808594 70.605469 130.824219 70.140625 130.882812 C 69.777344 130.933594 69.503906 131.015625 69.195312 131.121094 C 69.136719 131.140625 69.082031 131.164062 69.023438 131.183594 C 68.929688 131.214844 68.835938 131.246094 68.734375 131.285156 C 68.316406 131.425781 67.96875 131.550781 67.6875 131.671875 C 67.324219 131.832031 67.027344 132.007812 66.898438 132.203125 C 66.796875 132.375 66.8125 132.566406 66.953125 132.808594 C 67.03125 132.929688 67.128906 133.039062 67.203125 133.148438 C 67.203125 133.152344 67.207031 133.152344 67.207031 133.15625 C 67.246094 133.199219 67.265625 133.246094 67.277344 133.292969 C 67.3125 133.390625 67.304688 133.488281 67.214844 133.585938 C 67.210938 133.589844 67.207031 133.59375 67.203125 133.597656 C 67.195312 133.605469 67.1875 133.617188 67.179688 133.625 C 67.171875 133.628906 67.167969 133.632812 67.160156 133.636719 C 67.148438 133.648438 67.132812 133.65625 67.117188 133.664062 C 67.101562 133.675781 67.082031 133.683594 67.066406 133.6875 C 67.058594 133.691406 67.046875 133.695312 67.035156 133.695312 C 67.015625 133.699219 66.996094 133.703125 66.976562 133.703125 C 66.972656 133.703125 66.964844 133.707031 66.957031 133.707031 C 66.917969 133.707031 66.875 133.691406 66.824219 133.667969 C 66.683594 133.597656 66.542969 133.445312 66.429688 133.25 C 66.234375 132.9375 66.097656 132.519531 66.195312 132.160156 C 66.207031 132.105469 66.230469 132.050781 66.25 132 C 66.257812 131.988281 66.265625 131.972656 66.273438 131.957031 C 66.292969 131.921875 66.3125 131.886719 66.332031 131.851562 C 66.339844 131.839844 66.351562 131.824219 66.363281 131.808594 C 66.386719 131.777344 66.410156 131.742188 66.4375 131.710938 C 66.449219 131.699219 66.457031 131.6875 66.46875 131.675781 C 66.503906 131.636719 66.542969 131.601562 66.582031 131.5625 C 66.585938 131.558594 66.589844 131.558594 66.59375 131.554688 C 66.6875 131.472656 66.792969 131.398438 66.90625 131.328125 C 66.921875 131.316406 66.933594 131.308594 66.949219 131.300781 C 66.992188 131.277344 67.035156 131.25 67.082031 131.226562 C 67.101562 131.21875 67.121094 131.207031 67.140625 131.195312 C 67.179688 131.175781 67.222656 131.15625 67.265625 131.132812 C 67.289062 131.125 67.3125 131.113281 67.335938 131.101562 C 67.378906 131.082031 67.417969 131.066406 67.460938 131.046875 C 67.601562 130.988281 67.746094 130.929688 67.894531 130.875 C 67.90625 130.871094 67.914062 130.867188 67.925781 130.863281 C 68.144531 130.785156 68.371094 130.707031 68.597656 130.628906 C 68.792969 130.558594 68.96875 130.492188 69.148438 130.433594 C 69.160156 130.429688 69.167969 130.425781 69.179688 130.421875 C 69.410156 130.335938 69.6875 130.273438 70 130.230469 C 70.371094 130.179688 70.84375 130.148438 71.511719 130.152344 C 71.578125 130.152344 71.644531 130.152344 71.710938 130.152344 L 71.726562 130.152344 C 72.253906 130.160156 72.816406 130.1875 73.386719 130.21875 C 73.492188 130.140625 73.511719 130.167969 74.261719 129.746094 C 74.277344 129.738281 74.292969 129.730469 74.3125 129.71875 C 74.324219 129.710938 74.339844 129.703125 74.351562 129.695312 C 75.058594 129.296875 76.339844 128.542969 78.726562 127.078125 C 78.773438 127.046875 78.824219 127.015625 78.871094 126.988281 C 79.175781 126.800781 79.496094 126.601562 79.839844 126.390625 C 79.378906 126.160156 78.019531 125.75 74.0625 125.574219 C 67.472656 125.277344 65.683594 128.171875 66.175781 128.667969 C 66.664062 129.152344 69.050781 129.199219 70.59375 129.078125 C 71.035156 129.050781 71.078125 129.710938 70.644531 129.742188 C 69.527344 129.835938 66.515625 129.945312 65.707031 129.136719 Z M 78.753906 125.375 C 79.816406 125.589844 80.261719 125.820312 80.472656 126.003906 C 83.714844 124.039062 83.882812 124.121094 86.566406 124.085938 C 83.582031 121.523438 80.785156 122.300781 78.753906 125.375 Z M 187.328125 187.289062 C 183.515625 184.503906 181.726562 183.1875 180.855469 182.613281 C 180.699219 182.5 180.539062 182.386719 180.378906 182.269531 C 180.285156 182.199219 180.167969 182.1875 180.070312 182.226562 C 179.996094 182.230469 179.957031 182.28125 179.914062 182.34375 C 179.609375 182.761719 179.714844 182.609375 193.867188 192.867188 C 193.996094 192.960938 194.128906 192.949219 194.230469 192.886719 L 194.234375 192.882812 C 194.238281 192.878906 194.246094 192.875 194.25 192.871094 C 194.28125 192.851562 194.308594 192.828125 194.332031 192.796875 C 194.375 192.734375 194.410156 192.6875 194.394531 192.617188 C 194.40625 192.519531 194.367188 192.410156 194.257812 192.332031 C 194.097656 192.214844 193.9375 192.101562 193.78125 191.984375 C 192.964844 191.335938 191.160156 190.046875 187.328125 187.289062 Z M 270.007812 145.023438 C 258.109375 150.949219 244.058594 156.597656 231.582031 161.214844 L 221.144531 201.664062 C 218.472656 212.011719 207.890625 218.246094 197.539062 215.582031 C 191.546875 214.214844 50.410156 181.890625 35.523438 169.546875 C 30.003906 164.964844 31.019531 157.152344 32.113281 152.898438 L 43.410156 109.140625 C 46.089844 98.769531 56.644531 92.542969 67.015625 95.222656 L 131.070312 111.746094 C 132.539062 110.390625 146.039062 101.316406 154.167969 97.3125 C 153.550781 97.226562 153.171875 97.179688 153.152344 97.179688 C 152.929688 97.152344 152.796875 96.921875 152.882812 96.71875 C 155.738281 89.957031 169.601562 84.695312 176.835938 81.765625 L 177.691406 82.136719 C 172.175781 84.476562 157.019531 89.878906 153.683594 96.574219 C 155.90625 96.855469 165.394531 98.230469 169.269531 101.628906 C 173.53125 105.375 175.835938 111.492188 176.308594 120.332031 C 178.003906 120.5 187.332031 121.152344 196.96875 116.671875 C 196.875 116.71875 211.832031 109.808594 218.742188 106.316406 C 219.203125 106.089844 221.835938 104.75 223.140625 104.023438 C 223.148438 104.023438 223.152344 104.019531 223.15625 104.015625 C 223.527344 103.8125 224.320312 103.34375 224.871094 103.015625 L 225.625 103.347656 C 221.261719 106.121094 206.839844 112.820312 197.25 117.277344 C 188.886719 121.164062 179.476562 121.523438 175.945312 120.964844 C 175.476562 120.902344 175.78125 120.625 175.355469 117.03125 C 174.554688 118.476562 172.808594 121.230469 170.828125 121.945312 C 170.765625 122.753906 170.644531 123.503906 170.507812 124.15625 L 206.710938 134.089844 C 215.632812 129.683594 233.8125 120.132812 242.230469 114.898438 C 242.433594 115.125 242.585938 115.308594 242.671875 115.40625 C 235.335938 120.019531 197.515625 140.953125 187.207031 142.8125 C 192.136719 151.007812 197.941406 167.394531 197.941406 168.507812 C 198.257812 169.632812 198.535156 170.710938 198.757812 171.714844 C 202.84375 170.457031 241.914062 158.242188 269.519531 144.519531 C 269.695312 144.703125 269.859375 144.871094 270.007812 145.023438 Z M 188.960938 147.484375 C 187.933594 148.117188 184.578125 150.148438 182.976562 150.652344 C 182.097656 150.929688 179.113281 150.945312 175.335938 150.964844 C 160.761719 151.042969 165.003906 151.460938 155.265625 154.007812 C 154.535156 154.199219 149.902344 156.460938 148.640625 157.265625 C 150.453125 158.527344 151.875 159.519531 152.507812 159.96875 C 154.796875 158.429688 157.441406 156.746094 159.773438 156.011719 C 160.191406 155.878906 160.398438 156.507812 159.972656 156.644531 C 155.929688 157.921875 150.738281 162.261719 148.667969 163.210938 C 146.691406 164.121094 139.859375 167.632812 138.75 168.074219 C 137.484375 168.574219 135.945312 169.476562 135.769531 170.375 C 135.5625 171.441406 136.21875 172.886719 137.679688 173.460938 C 142.25 175.265625 145.867188 173.242188 150.398438 170.960938 C 151.6875 170.316406 152.046875 170.015625 152.238281 170.425781 C 152.433594 170.820312 152.007812 170.898438 150.695312 171.558594 C 146.34375 173.746094 142.464844 175.832031 138.101562 174.320312 C 137.757812 175.289062 137.183594 177.492188 138.351562 178.976562 C 139.511719 180.457031 144.527344 181.320312 145.453125 181.109375 C 146.195312 180.941406 150.382812 179.109375 152.886719 178.011719 C 154.859375 177.144531 155.101562 176.941406 155.273438 177.335938 C 155.445312 177.742188 155.097656 177.769531 153.15625 178.621094 C 145.59375 181.929688 145.695312 181.800781 145.078125 181.800781 C 144.078125 181.800781 142.195312 181.511719 140.5625 180.960938 C 140.328125 181.015625 139.539062 181.289062 139.40625 182.359375 C 139.144531 184.488281 142.582031 186.296875 143.304688 186.5 C 144.082031 186.722656 149.3125 187.035156 151.359375 186.535156 C 153.382812 186.042969 158.179688 183.105469 161.59375 182.472656 C 162.027344 182.394531 162.152344 183.042969 161.714844 183.125 C 158.78125 183.667969 154.699219 186.035156 152.324219 186.925781 C 153.164062 190.378906 158.378906 190.492188 159.65625 190.328125 C 160.792969 190.183594 164.71875 188.152344 168.011719 186.304688 C 169.820312 185.289062 179.65625 181.101562 183.046875 179.207031 C 186.332031 177.367188 188.734375 174.519531 191.203125 171.714844 C 193.171875 169.488281 195.011719 168.902344 197.203125 168.335938 C 195.257812 161.589844 191.792969 153.214844 188.960938 147.484375 Z M 194.292969 187.4375 C 194.992188 187.007812 200.933594 191.863281 201.742188 192.308594 C 202.882812 192.925781 203.339844 193.011719 203.492188 193.015625 C 203.351562 192.222656 200.210938 188.675781 194.898438 185.085938 C 188.71875 180.90625 185.242188 179.390625 184.507812 179.089844 C 181.414062 181.164062 170.488281 185.652344 168.25 186.929688 C 170.914062 188.980469 180.078125 195.972656 183.671875 197.769531 C 185.8125 198.835938 188.253906 199.636719 188.636719 199.386719 C 188.628906 199.378906 188.621094 199.300781 188.53125 199.132812 C 188.289062 198.675781 186.566406 197.183594 185.179688 195.980469 C 182.214844 193.410156 182.027344 193.164062 182.191406 192.796875 C 182.507812 192.082031 184.144531 193.179688 187.683594 195.5625 C 190.15625 197.222656 193.882812 199.742188 194.726562 199.542969 C 194.914062 199.285156 194.523438 198.285156 191.820312 194.925781 C 190.984375 193.882812 190.933594 193.820312 191.160156 193.582031 C 191.210938 193.53125 191.394531 193.378906 191.667969 193.578125 C 192.140625 193.917969 196.335938 195.480469 197.335938 195.554688 C 197.21875 194.957031 196.371094 193.210938 195.738281 191.90625 C 194.117188 188.558594 193.789062 187.746094 194.292969 187.4375 Z M 122.472656 156.320312 C 122.304688 156.625 121.917969 156.503906 121.769531 156.453125 C 119.878906 155.847656 111.355469 150.367188 109.421875 150.230469 C 111.394531 152.167969 128.226562 161.5 138.972656 167.246094 C 139.914062 166.8125 141.796875 165.867188 143.632812 164.949219 C 149.914062 161.8125 148.179688 162.890625 151.917969 160.363281 C 144.621094 155.25 133.980469 147.878906 132.300781 146.953125 C 132.585938 147.757812 133.316406 148.949219 133.113281 149.542969 C 149.3125 160.695312 149.445312 160.558594 149.152344 160.988281 C 148.859375 161.410156 148.929688 161.238281 132.476562 149.914062 C 131.246094 149.722656 125.332031 144.683594 123.441406 143.839844 C 124.5 145.480469 129.496094 150.351562 129.839844 151.058594 L 145.09375 161.234375 C 145.367188 161.417969 145.238281 161.84375 144.90625 161.84375 C 144.75 161.84375 144.859375 161.878906 129.351562 151.53125 C 128.574219 151.261719 124.117188 147.625 122.75 147.308594 C 123.3125 148.226562 126.304688 150.960938 128.152344 152.65625 C 131.566406 155.78125 131.664062 155.921875 131.488281 156.273438 C 131.183594 156.890625 130.25 156.128906 124.945312 152.050781 C 121.671875 149.539062 116.894531 145.871094 115.355469 145.125 C 117 147.15625 122.621094 151.488281 122.285156 152.351562 C 121.804688 153.574219 117.207031 149.875 115.675781 149.875 C 116.105469 150.542969 118.3125 152.332031 119.675781 153.4375 C 122.417969 155.664062 122.679688 155.933594 122.472656 156.320312 Z M 125.214844 124.46875 L 135.164062 122.289062 C 135.503906 121.785156 135.78125 121.378906 135.949219 121.148438 C 136.609375 120.230469 136.734375 117.402344 136.433594 115.332031 C 136.371094 114.90625 137.027344 114.796875 137.09375 115.238281 C 137.363281 117.125 137.359375 120.328125 136.488281 121.535156 C 136.3125 121.78125 136.011719 122.21875 135.648438 122.761719 C 135.648438 122.765625 135.644531 122.765625 135.644531 122.765625 C 132.601562 127.3125 125.800781 137.308594 130.007812 140.601562 C 131.175781 141.515625 132.753906 140.460938 133.871094 139.488281 C 142.171875 131.1875 140.035156 128.667969 147.078125 127.453125 C 148.164062 127.261719 149.285156 127.070312 150.367188 126.605469 C 157.683594 123.476562 162.339844 118.957031 163.828125 113.542969 C 163.941406 113.121094 164.585938 113.292969 164.46875 113.71875 C 164.179688 114.765625 163.78125 115.78125 163.273438 116.757812 C 169.375 115.617188 169.226562 115.5625 169.402344 115.792969 C 170.613281 117.34375 170.921875 119.359375 170.867188 121.21875 C 173.105469 120.164062 175.09375 116.113281 175.207031 115.875 C 174.300781 109.605469 172.195312 105.085938 168.832031 102.128906 C 165.789062 99.460938 158.867188 98.054688 155.324219 97.488281 C 151.792969 99.175781 147.671875 101.488281 144.277344 103.6875 C 136.875 108.484375 132.199219 111.339844 131.148438 112.617188 C 130.210938 113.757812 126.617188 121.851562 125.214844 124.46875 Z M 146.535156 138.90625 C 146.898438 139.101562 147.683594 139.4375 148.613281 139.367188 C 150.1875 139.25 154.40625 137.59375 154.632812 137.003906 C 155.324219 134.160156 151.890625 131.699219 148.414062 132.328125 L 142.601562 133.894531 C 146.179688 134.617188 147.226562 136.945312 146.535156 138.90625 Z M 140.917969 134.351562 L 138.75 134.9375 C 137.429688 136.675781 135.972656 138.472656 134.542969 139.765625 C 134.828125 140.230469 135.648438 141.347656 137.089844 141.710938 C 138.976562 142.183594 142.570312 141.433594 144.78125 140.105469 C 146.988281 138.777344 146.863281 134.707031 140.917969 134.351562 Z M 169.328125 125.992188 C 169.660156 124.988281 171.296875 119.5625 169 116.363281 L 162.84375 117.511719 C 160.519531 121.449219 156.375 124.761719 150.628906 127.21875 C 147.792969 128.433594 144.890625 127.875 142.746094 129.800781 C 142.03125 130.441406 140.699219 132.324219 139.398438 134.070312 Z M 116.820312 138.585938 L 117.027344 139.308594 L 128.027344 136.75 C 128.425781 132.5 132.277344 126.652344 134.632812 123.085938 L 113.6875 127.667969 Z M 113.273438 128.636719 C 87.363281 133.078125 48.675781 140.40625 47.488281 142.523438 C 46.011719 145.152344 51.570312 144.125 57.214844 145.082031 C 62.621094 146 70.292969 149.875 90.273438 144.910156 C 105.628906 141.097656 113.414062 139.3125 116.097656 138.476562 Z M 125.449219 138.035156 C 126.203125 140.617188 128.4375 144.058594 129.902344 144.296875 C 131.269531 144.515625 132.742188 143.410156 132.757812 141.085938 C 129.738281 142.761719 127.976562 139.957031 127.992188 137.441406 Z M 230.824219 161.496094 C 214.082031 167.664062 198.703125 172.472656 198.507812 172.472656 C 198.078125 172.472656 198.3125 172.316406 197.382812 168.980469 C 194.175781 169.769531 193.109375 170.558594 191.136719 172.796875 C 189.417969 174.761719 187.5 176.925781 185.144531 178.636719 C 186.390625 179.175781 189.726562 180.785156 195.269531 184.535156 C 204.222656 190.589844 206.5625 195.683594 201.425781 192.890625 C 200.96875 192.644531 196.257812 189.007812 194.804688 188.191406 C 195.519531 190.53125 198.785156 195.585938 197.78125 196.144531 C 197.195312 196.464844 194.160156 195.351562 192.445312 194.640625 C 194.53125 197.25 195.679688 198.921875 195.394531 199.746094 C 194.679688 201.832031 187.890625 196.1875 183.636719 193.730469 C 187.121094 196.953125 190.09375 198.851562 189.117188 199.851562 C 188.234375 200.75 183.871094 198.609375 183.375 198.363281 C 179.617188 196.484375 169.953125 189.082031 167.621094 187.285156 C 165.273438 188.582031 161.097656 190.816406 159.742188 190.988281 C 156.929688 191.347656 152.5 190.304688 151.6875 187.136719 C 149.636719 187.699219 144.144531 187.429688 143.121094 187.140625 C 142.144531 186.863281 138.425781 184.859375 138.746094 182.277344 C 138.851562 181.453125 139.265625 180.9375 139.699219 180.636719 C 138.890625 180.292969 138.210938 179.875 137.828125 179.390625 C 136.460938 177.644531 137.097656 175.164062 137.472656 174.09375 C 135.628906 173.300781 134.851562 171.617188 135.117188 170.246094 C 135.371094 168.953125 137.261719 167.984375 138.195312 167.582031 C 128.851562 162.582031 108.710938 151.628906 108.59375 150.113281 C 108.40625 147.738281 117.851562 153.808594 121 155.390625 C 118.367188 153.136719 114.820312 150.632812 114.945312 149.675781 C 115.171875 148.027344 119.640625 151.125 121.308594 151.792969 C 119.363281 149.65625 114.117188 145.566406 114.488281 144.609375 C 115.042969 143.222656 119.972656 147.542969 128.828125 154.179688 C 124.878906 150.539062 121.914062 147.941406 121.996094 147.074219 C 122.152344 145.433594 126.511719 148.808594 127.796875 149.707031 C 123.9375 145.636719 122.378906 143.980469 122.65625 143.335938 C 123.308594 141.800781 130.761719 148.683594 132.488281 149.242188 C 132.390625 148.417969 131.203125 146.855469 131.703125 146.324219 C 132.144531 145.855469 132.300781 145.878906 148.066406 156.863281 C 149.3125 155.964844 154.4375 153.539062 155.09375 153.367188 C 164.800781 150.855469 160.441406 150.382812 175.332031 150.296875 C 178.757812 150.28125 181.996094 150.265625 182.777344 150.015625 C 184.3125 149.535156 187.71875 147.46875 188.664062 146.890625 C 186.476562 142.542969 186.203125 142.761719 186.363281 142.417969 C 186.691406 141.742188 187.140625 143.617188 205.804688 134.53125 L 170.359375 124.804688 C 170.140625 125.699219 169.925781 126.300781 169.898438 126.378906 C 169.808594 126.628906 169.929688 126.515625 150.796875 131.683594 C 153.589844 132.203125 155.9375 134.464844 155.277344 137.167969 C 154.988281 138.339844 149.691406 140.042969 148.355469 140.042969 C 147.417969 140.042969 146.664062 139.726562 146.257812 139.515625 C 145.007812 141.632812 139.441406 142.988281 136.925781 142.355469 C 135.335938 141.957031 134.414062 140.800781 134.03125 140.210938 C 133.820312 140.382812 133.617188 140.535156 133.410156 140.679688 C 133.574219 143.441406 131.941406 144.992188 130.265625 144.992188 C 127.863281 144.992188 125.46875 140.476562 124.800781 138.1875 L 116.792969 140.039062 C 116.460938 140.039062 116.449219 139.703125 116.28125 139.113281 C 113.585938 139.953125 106.347656 141.601562 90.433594 145.554688 C 68.34375 151.039062 63.699219 145.933594 52.269531 145.277344 C 49.257812 145.105469 45.335938 145 46.90625 142.195312 C 48.609375 139.164062 104.945312 129.390625 113.089844 127.992188 C 112.761719 126.855469 111.597656 127.445312 124.34375 124.65625 C 125.417969 122.902344 129.386719 113.890625 130.554688 112.300781 L 66.851562 95.863281 C 56.835938 93.28125 46.636719 99.292969 44.054688 109.304688 L 32.761719 153.066406 C 31.703125 157.164062 30.710938 164.6875 35.949219 169.035156 C 50.710938 181.277344 196.226562 214.601562 197.695312 214.9375 C 207.695312 217.515625 217.921875 211.484375 220.5 201.496094 Z M 133.167969 157.550781 C 133.257812 157.613281 133.347656 157.675781 133.433594 157.738281 C 134.140625 158.3125 135.933594 159.539062 140.160156 162.519531 C 141.488281 163.464844 142.230469 163.992188 142.652344 164.28125 C 142.792969 164.382812 142.9375 164.484375 143.082031 164.589844 C 143.1875 164.664062 143.296875 164.667969 143.386719 164.632812 C 143.414062 164.621094 143.441406 164.609375 143.460938 164.589844 C 143.476562 164.582031 143.488281 164.570312 143.503906 164.558594 C 143.503906 164.554688 143.507812 164.550781 143.511719 164.546875 C 143.53125 164.523438 143.550781 164.5 143.5625 164.472656 C 143.570312 164.460938 143.578125 164.445312 143.585938 164.433594 C 143.585938 164.425781 143.589844 164.417969 143.59375 164.410156 C 143.625 164.316406 143.613281 164.214844 143.546875 164.125 C 143.527344 164.097656 143.5 164.070312 143.46875 164.046875 C 133.277344 156.808594 133.390625 156.664062 133.089844 157.085938 C 133.03125 157.167969 132.988281 157.230469 133.035156 157.328125 C 133.046875 157.414062 133.09375 157.496094 133.167969 157.550781 Z M 133.167969 157.550781 " fill-opacity="1" fill-rule="nonzero"/></g></svg>