<svg xmlns="http://www.w3.org/2000/svg" xmlns:xlink="http://www.w3.org/1999/xlink" width="400" zoomAndPan="magnify" viewBox="0 0 300 299.999988" height="400" preserveAspectRatio="xMidYMid meet" version="1.0"><path fill="currentColor" d="M 152.058594 85.601562 C 150 89.53125 149.8125 94.210938 152.058594 98.332031 C 154.117188 102.261719 157.675781 104.695312 161.980469 105.070312 C 162.355469 105.070312 162.917969 105.070312 163.480469 105.070312 C 164.039062 105.070312 164.414062 105.070312 164.976562 105.070312 C 169.28125 104.695312 172.839844 102.261719 174.898438 98.332031 C 176.957031 94.398438 176.957031 89.53125 174.898438 85.601562 L 167.410156 71.746094 L 167.410156 63.882812 L 171.15625 63.882812 C 173.214844 63.882812 174.898438 62.199219 174.898438 60.140625 L 174.898438 41.417969 C 174.898438 35.242188 169.84375 30.1875 163.667969 30.1875 C 157.488281 30.1875 152.433594 35.242188 152.433594 41.417969 L 152.433594 60.140625 C 152.433594 62.199219 154.117188 63.882812 156.179688 63.882812 L 159.921875 63.882812 L 159.921875 71.746094 Z M 159.546875 41.417969 C 159.546875 39.359375 161.234375 37.675781 163.292969 37.675781 C 165.351562 37.675781 167.035156 39.359375 167.035156 41.417969 L 167.035156 56.394531 L 159.546875 56.394531 Z M 163.292969 80.546875 L 167.972656 89.15625 C 168.90625 90.84375 168.90625 92.902344 167.972656 94.773438 C 167.222656 96.269531 165.726562 97.394531 164.039062 97.582031 C 163.667969 97.582031 163.105469 97.582031 162.730469 97.582031 C 161.046875 97.394531 159.546875 96.457031 158.796875 94.773438 C 157.863281 93.089844 157.863281 90.84375 158.796875 89.15625 Z M 163.292969 80.546875 " fill-opacity="1" fill-rule="nonzero"/><path fill="currentColor" d="M 243.789062 108.8125 C 245.851562 108.8125 247.535156 107.128906 247.535156 105.070312 C 247.535156 103.011719 245.851562 101.324219 243.789062 101.324219 C 241.730469 101.324219 240.046875 99.640625 240.046875 97.582031 C 240.046875 95.523438 238.363281 93.835938 236.300781 93.835938 C 234.242188 93.835938 232.558594 95.523438 232.558594 97.582031 C 232.558594 103.757812 237.613281 108.8125 243.789062 108.8125 Z M 243.789062 108.8125 " fill-opacity="1" fill-rule="nonzero"/><path fill="currentColor" d="M 137.082031 136.894531 L 163.292969 136.894531 C 165.351562 136.894531 167.035156 135.210938 167.035156 133.152344 C 167.035156 131.09375 165.351562 129.40625 163.292969 129.40625 L 137.082031 129.40625 C 135.023438 129.40625 133.339844 131.09375 133.339844 133.152344 C 133.339844 135.210938 135.023438 136.894531 137.082031 136.894531 Z M 137.082031 136.894531 " fill-opacity="1" fill-rule="nonzero"/><path fill="currentColor" d="M 34.117188 67.628906 L 54.148438 67.628906 L 31.683594 87.285156 C 30.1875 88.597656 30 91.03125 31.308594 92.527344 C 32.058594 93.464844 32.996094 93.835938 34.117188 93.835938 C 35.054688 93.835938 35.804688 93.464844 36.550781 92.902344 L 65.570312 67.628906 L 123.976562 67.628906 C 126.039062 67.628906 127.722656 65.945312 127.722656 63.882812 C 127.722656 61.824219 126.039062 60.140625 123.976562 60.140625 L 116.488281 60.140625 C 118.921875 56.957031 120.234375 53.214844 120.234375 48.90625 C 120.234375 46.847656 118.550781 45.164062 116.488281 45.164062 L 86.535156 45.164062 C 84.476562 45.164062 82.792969 46.847656 82.792969 48.90625 C 82.792969 53.214844 84.289062 56.957031 86.535156 60.140625 L 78.675781 60.140625 C 76.988281 51.527344 69.3125 45.164062 60.328125 45.164062 C 51.339844 45.164062 43.667969 51.527344 41.980469 60.140625 L 34.117188 60.140625 C 32.058594 60.140625 30.375 61.824219 30.375 63.882812 C 30.375 65.945312 32.058594 67.628906 34.117188 67.628906 Z M 112.183594 52.652344 C 110.6875 56.957031 106.566406 60.140625 101.511719 60.140625 C 96.457031 60.140625 92.527344 56.957031 90.84375 52.652344 Z M 60.328125 52.652344 C 65.195312 52.652344 69.3125 55.835938 71 60.140625 L 49.65625 60.140625 C 51.339844 55.835938 55.460938 52.652344 60.328125 52.652344 Z M 60.328125 52.652344 " fill-opacity="1" fill-rule="nonzero"/><path fill="currentColor" d="M 243.789062 123.789062 C 258.207031 123.789062 270 111.996094 270 97.582031 C 270 84.476562 260.265625 73.433594 247.535156 71.746094 L 247.535156 63.882812 L 251.277344 63.882812 C 253.339844 63.882812 255.023438 62.199219 255.023438 60.140625 L 255.023438 41.417969 C 255.023438 35.242188 249.96875 30.1875 243.789062 30.1875 C 237.613281 30.1875 232.558594 35.242188 232.558594 41.417969 L 232.558594 60.140625 C 232.558594 62.199219 234.242188 63.882812 236.300781 63.882812 L 240.046875 63.882812 L 240.046875 71.746094 C 227.316406 73.621094 217.582031 84.476562 217.582031 97.582031 C 217.582031 111.996094 229.375 123.789062 243.789062 123.789062 Z M 240.046875 41.417969 C 240.046875 39.359375 241.730469 37.675781 243.789062 37.675781 C 245.851562 37.675781 247.535156 39.359375 247.535156 41.417969 L 247.535156 56.394531 L 240.046875 56.394531 Z M 243.789062 78.859375 C 254.085938 78.859375 262.511719 87.285156 262.511719 97.582031 C 262.511719 107.878906 254.085938 116.300781 243.789062 116.300781 C 233.496094 116.300781 225.070312 107.878906 225.070312 97.582031 C 225.070312 87.285156 233.496094 78.859375 243.789062 78.859375 Z M 243.789062 78.859375 " fill-opacity="1" fill-rule="nonzero"/><path fill="currentColor" d="M 185.757812 105.070312 L 208.222656 105.070312 C 209.34375 105.070312 210.28125 104.507812 211.03125 103.757812 C 211.777344 103.011719 211.964844 101.886719 211.777344 100.765625 L 208.035156 78.300781 C 207.660156 76.425781 206.164062 75.117188 204.289062 75.117188 L 200.546875 75.117188 L 200.546875 63.882812 L 204.289062 63.882812 C 206.347656 63.882812 208.035156 62.199219 208.035156 60.140625 L 208.035156 41.417969 C 208.035156 35.242188 202.980469 30.1875 196.800781 30.1875 C 190.625 30.1875 185.570312 35.242188 185.570312 41.417969 L 185.570312 60.140625 C 185.570312 62.199219 187.253906 63.882812 189.3125 63.882812 L 193.058594 63.882812 L 193.058594 75.117188 L 189.3125 75.117188 C 187.441406 75.117188 185.945312 76.425781 185.570312 78.300781 L 181.824219 100.765625 C 181.636719 101.886719 182.011719 103.011719 182.574219 103.757812 C 183.699219 104.507812 184.632812 105.070312 185.757812 105.070312 Z M 193.246094 41.417969 C 193.246094 39.359375 194.929688 37.675781 196.988281 37.675781 C 199.046875 37.675781 200.734375 39.359375 200.734375 41.417969 L 200.734375 56.394531 L 193.246094 56.394531 Z M 192.683594 82.605469 L 201.292969 82.605469 L 203.730469 97.582031 L 190.0625 97.582031 Z M 192.683594 82.605469 " fill-opacity="1" fill-rule="nonzero"/><path fill="currentColor" d="M 148.316406 202.417969 L 152.058594 202.417969 C 154.117188 202.417969 155.804688 200.734375 155.804688 198.675781 C 155.804688 196.613281 154.117188 194.929688 152.058594 194.929688 L 148.316406 194.929688 C 146.253906 194.929688 144.570312 196.613281 144.570312 198.675781 C 144.570312 200.734375 146.253906 202.417969 148.316406 202.417969 Z M 148.316406 202.417969 " fill-opacity="1" fill-rule="nonzero"/><path fill="currentColor" d="M 167.035156 202.417969 L 170.78125 202.417969 C 172.839844 202.417969 174.523438 200.734375 174.523438 198.675781 C 174.523438 196.613281 172.839844 194.929688 170.78125 194.929688 L 167.035156 194.929688 C 164.976562 194.929688 163.292969 196.613281 163.292969 198.675781 C 163.292969 200.734375 164.976562 202.417969 167.035156 202.417969 Z M 167.035156 202.417969 " fill-opacity="1" fill-rule="nonzero"/><path fill="currentColor" d="M 129.59375 202.417969 L 133.339844 202.417969 C 135.398438 202.417969 137.082031 200.734375 137.082031 198.675781 C 137.082031 196.613281 135.398438 194.929688 133.339844 194.929688 L 129.59375 194.929688 C 127.535156 194.929688 125.851562 196.613281 125.851562 198.675781 C 125.851562 200.734375 127.535156 202.417969 129.59375 202.417969 Z M 129.59375 202.417969 " fill-opacity="1" fill-rule="nonzero"/><path fill="currentColor" d="M 125.851562 254.835938 L 174.523438 254.835938 C 176.582031 254.835938 178.269531 253.152344 178.269531 251.09375 L 178.269531 228.628906 C 178.269531 226.566406 176.582031 224.882812 174.523438 224.882812 L 125.851562 224.882812 C 123.789062 224.882812 122.105469 226.566406 122.105469 228.628906 L 122.105469 251.09375 C 122.105469 253.152344 123.789062 254.835938 125.851562 254.835938 Z M 129.59375 232.371094 L 170.78125 232.371094 L 170.78125 247.347656 L 129.59375 247.347656 Z M 129.59375 232.371094 " fill-opacity="1" fill-rule="nonzero"/><path fill="currentColor" d="M 266.253906 157.488281 L 254.835938 157.488281 C 256.148438 155.242188 256.894531 152.808594 256.894531 150 C 256.894531 141.761719 250.15625 135.023438 241.917969 135.023438 C 233.683594 135.023438 226.941406 141.761719 226.941406 150 C 226.941406 152.808594 227.691406 155.242188 229 157.488281 L 217.394531 157.488281 C 218.707031 155.242188 219.453125 152.808594 219.453125 150 C 219.453125 141.761719 212.714844 135.023438 204.476562 135.023438 C 196.242188 135.023438 189.5 141.761719 189.5 150 C 189.5 152.808594 190.25 155.242188 191.558594 157.488281 L 176.394531 157.488281 L 183.511719 127.535156 L 189.5 127.535156 C 191.558594 127.535156 193.246094 125.851562 193.246094 123.789062 C 193.246094 121.730469 191.558594 120.046875 189.5 120.046875 L 180.515625 120.046875 C 178.828125 120.046875 177.332031 121.171875 176.957031 122.855469 L 168.722656 157.488281 L 131.652344 157.488281 L 123.417969 122.855469 C 123.042969 121.171875 121.542969 120.046875 119.859375 120.046875 L 110.875 120.046875 C 108.8125 120.046875 107.128906 121.730469 107.128906 123.789062 C 107.128906 125.851562 108.8125 127.535156 110.875 127.535156 L 116.863281 127.535156 L 123.976562 157.488281 L 93.835938 157.488281 C 97.394531 153.558594 99.640625 148.316406 99.640625 142.511719 C 99.640625 140.453125 97.957031 138.765625 95.898438 138.765625 L 93.835938 138.765625 C 97.394531 134.835938 99.640625 129.59375 99.640625 123.789062 C 99.640625 121.730469 97.957031 120.046875 95.898438 120.046875 L 93.835938 120.046875 C 97.394531 116.117188 99.640625 110.875 99.640625 105.070312 C 99.640625 103.011719 97.957031 101.324219 95.898438 101.324219 L 43.480469 101.324219 C 41.417969 101.324219 39.734375 103.011719 39.734375 105.070312 C 39.734375 110.875 41.980469 116.117188 45.539062 120.046875 L 43.480469 120.046875 C 41.417969 120.046875 39.734375 121.730469 39.734375 123.789062 C 39.734375 129.59375 41.980469 134.835938 45.539062 138.765625 L 43.480469 138.765625 C 41.417969 138.765625 39.734375 140.453125 39.734375 142.511719 C 39.734375 148.316406 41.980469 153.558594 45.539062 157.488281 L 34.117188 157.488281 C 32.058594 157.488281 30.375 159.171875 30.375 161.234375 L 30.375 183.699219 C 30.375 185.757812 32.058594 187.441406 34.117188 187.441406 L 37.863281 187.441406 L 37.863281 266.070312 C 37.863281 268.128906 39.546875 269.8125 41.605469 269.8125 C 43.667969 269.8125 45.351562 268.128906 45.351562 266.070312 L 45.351562 187.441406 L 71.558594 187.441406 L 71.558594 266.070312 C 71.558594 268.128906 73.246094 269.8125 75.304688 269.8125 C 77.363281 269.8125 79.046875 268.128906 79.046875 266.070312 L 79.046875 187.441406 L 107.128906 187.441406 L 107.128906 266.070312 C 107.128906 268.128906 108.8125 269.8125 110.875 269.8125 L 189.5 269.8125 C 191.558594 269.8125 193.246094 268.128906 193.246094 266.070312 L 193.246094 187.441406 L 221.324219 187.441406 L 221.324219 266.070312 C 221.324219 268.128906 223.011719 269.8125 225.070312 269.8125 C 227.128906 269.8125 228.8125 268.128906 228.8125 266.070312 L 228.8125 187.441406 L 255.023438 187.441406 L 255.023438 266.070312 C 255.023438 268.128906 256.707031 269.8125 258.765625 269.8125 C 260.828125 269.8125 262.511719 268.128906 262.511719 266.070312 L 262.511719 187.441406 L 266.253906 187.441406 C 268.316406 187.441406 270 185.757812 270 183.699219 L 270 161.234375 C 270 159.171875 268.316406 157.488281 266.253906 157.488281 Z M 241.917969 142.511719 C 246.039062 142.511719 249.40625 145.882812 249.40625 150 C 249.40625 154.117188 246.039062 157.488281 241.917969 157.488281 C 237.800781 157.488281 234.429688 154.117188 234.429688 150 C 234.429688 145.882812 237.800781 142.511719 241.917969 142.511719 Z M 204.476562 142.511719 C 208.597656 142.511719 211.964844 145.882812 211.964844 150 C 211.964844 154.117188 208.597656 157.488281 204.476562 157.488281 C 200.359375 157.488281 196.988281 154.117188 196.988281 150 C 196.988281 145.882812 200.359375 142.511719 204.476562 142.511719 Z M 91.589844 108.8125 C 89.90625 115.179688 84.101562 120.046875 77.175781 120.046875 L 62.199219 120.046875 C 55.273438 120.046875 49.28125 115.179688 47.785156 108.8125 Z M 91.589844 127.535156 C 89.90625 133.898438 84.101562 138.765625 77.175781 138.765625 L 62.199219 138.765625 C 55.273438 138.765625 49.28125 133.898438 47.785156 127.535156 Z M 91.589844 146.253906 C 89.90625 152.621094 84.101562 157.488281 77.175781 157.488281 L 62.199219 157.488281 C 55.273438 157.488281 49.28125 152.621094 47.785156 146.253906 Z M 185.757812 262.324219 L 114.617188 262.324219 L 114.617188 217.394531 L 185.757812 217.394531 Z M 185.757812 209.90625 L 114.617188 209.90625 L 114.617188 187.441406 L 185.757812 187.441406 Z M 262.511719 179.953125 L 37.863281 179.953125 L 37.863281 164.976562 L 262.511719 164.976562 Z M 262.511719 179.953125 " fill-opacity="1" fill-rule="nonzero"/></svg>