<svg xmlns="http://www.w3.org/2000/svg" xmlns:xlink="http://www.w3.org/1999/xlink" width="400" zoomAndPan="magnify" viewBox="0 0 300 299.999988" height="400" preserveAspectRatio="xMidYMid meet" version="1.0"><defs><clipPath id="fb8f88a235"><path d="M 30 71.25 L 269 71.25 L 269 228 L 30 228 Z M 30 71.25 " clip-rule="nonzero"/></clipPath></defs><g clip-path="url(#fb8f88a235)"><path fill="#a9a0f0" d="M 198.4375 225.960938 C 201.667969 228.425781 207.070312 228.667969 209.730469 225.171875 C 213.863281 226.988281 219.957031 224.824219 221.550781 220.972656 C 224.933594 221.945312 226.332031 219.257812 227.328125 217.03125 C 228.902344 217.390625 229.894531 216.785156 231.53125 216.769531 C 231.667969 211.351562 240.085938 207.964844 242.296875 212.300781 C 245.035156 212.617188 248.117188 211.4375 250.175781 210.988281 C 251.722656 210.65625 253.34375 211.082031 254.378906 210.726562 C 258.117188 209.445312 259.730469 202.796875 255.953125 201.007812 C 259.210938 199.710938 260.890625 196.839844 261.734375 193.128906 C 260.71875 191.257812 259.222656 189.863281 257.53125 188.664062 C 258.378906 183.988281 261.914062 181.664062 267.511719 183.148438 C 269.929688 180.488281 267.960938 176.359375 265.675781 174.746094 C 261.839844 175.097656 258.941406 174.945312 256.480469 174.746094 C 255.246094 172.5625 254.375 170.023438 252.542969 168.441406 C 255.429688 167.625 257.296875 170.960938 259.894531 170.804688 C 262.550781 170.644531 263.835938 167.425781 265.148438 165.027344 C 264.507812 164.476562 264.589844 164.652344 263.570312 164.761719 C 259.816406 159.941406 252.523438 158.652344 246.238281 156.359375 C 246.105469 155.503906 247.542969 155.800781 246.761719 155.046875 C 244.128906 154.527344 241.722656 153.78125 239.410156 152.945312 C 243.816406 152.730469 250.011719 155.015625 254.117188 155.835938 C 256.304688 154.152344 256.292969 151.585938 256.742188 147.957031 C 249.195312 147.878906 239.910156 147.761719 233.105469 145.066406 C 234.804688 144.167969 236.464844 146.144531 237.308594 144.277344 C 237.039062 142.792969 235.53125 142.554688 234.679688 141.652344 C 232.683594 136.140625 228.066406 130.476562 222.335938 128.78125 C 220.914062 128.359375 219.363281 126.863281 217.609375 125.890625 C 215.921875 124.957031 213.964844 124.152344 212.617188 123.265625 C 211.683594 122.652344 210.828125 121.429688 209.730469 120.902344 C 206.726562 119.453125 203.378906 119.855469 199.75 119.0625 C 198.1875 118.722656 196.292969 117.707031 194.496094 116.960938 C 187.054688 113.875 177.679688 110.035156 171.648438 105.667969 C 171.101562 106.171875 170.550781 106.671875 170.332031 107.507812 C 164.839844 103.476562 158.367188 103.226562 152.210938 100.152344 C 149.140625 98.621094 145.847656 95.90625 143.019531 93.851562 C 141.722656 92.910156 140.746094 91.449219 139.339844 90.699219 C 137.753906 89.851562 135.554688 89.609375 133.5625 88.859375 C 128.695312 87.023438 123.316406 84.429688 118.066406 82.292969 C 114.714844 80.929688 111.527344 79.515625 108.347656 77.828125 C 105.265625 76.191406 100.730469 73.289062 97.582031 72.839844 C 88.796875 71.578125 83.082031 71.25 75.519531 74.675781 C 71.800781 76.363281 68.265625 78.09375 66.589844 80.980469 C 61.671875 82.007812 55.847656 80.90625 53.195312 83.34375 C 51.496094 84.90625 50.015625 87.476562 48.203125 89.382812 C 46.324219 91.367188 45.042969 93.640625 42.949219 94.902344 C 39.027344 101.480469 37.597656 110.558594 30.867188 114.335938 C 30.074219 117.585938 30.28125 120.425781 30.34375 123.265625 C 30.515625 130.808594 34.550781 132.023438 39.011719 135.871094 C 42.289062 138.703125 45.644531 141.867188 48.992188 144.804688 C 52.394531 147.785156 56.390625 150.089844 60.546875 152.683594 C 63.382812 154.449219 66.125 156.390625 68.691406 157.933594 C 70.144531 158.8125 73.011719 159.96875 73.15625 160.5625 C 79.265625 166.019531 90.324219 168.0625 94.691406 176.058594 C 96.65625 176.546875 97.773438 177.878906 98.894531 179.210938 C 107.742188 182.796875 114.035156 188.929688 122.007812 193.390625 C 122.46875 193.632812 122.917969 193.878906 122.792969 194.707031 C 125.527344 195.234375 127.167969 197.785156 129.625 199.171875 C 133.089844 201.125 138.023438 202.316406 141.96875 204.160156 C 145.402344 205.769531 148.929688 208 152.734375 209.9375 C 156.574219 211.894531 160.601562 214.652344 164.027344 217.03125 C 167.296875 219.300781 168.722656 222.578125 173.222656 223.070312 C 177.113281 226.300781 184.855469 228.746094 191.34375 226.222656 C 192.953125 226.703125 197.3125 227.472656 198.4375 225.960938 Z M 217.082031 163.976562 C 217.222656 164.1875 217.355469 164.402344 217.347656 164.761719 C 218.640625 164.921875 219.367188 164.511719 219.183594 163.1875 C 218.636719 162.773438 217.558594 163.507812 217.082031 163.976562 Z M 212.09375 180.523438 C 212.316406 184.257812 219.054688 183.582031 217.347656 179.472656 C 220.621094 178.699219 222.027344 173.117188 218.921875 171.066406 C 217.496094 170.953125 216.738281 171.511719 216.558594 172.644531 C 219.480469 172.621094 219.773438 175.914062 218.132812 177.371094 C 216.460938 177.496094 215.699219 176.898438 214.71875 177.632812 C 214.757812 179.085938 216.144531 179.1875 216.035156 180.785156 C 215.074219 182.179688 213.335938 180.519531 212.09375 180.523438 Z M 200.011719 168.441406 C 206.113281 169.75 206.464844 161.726562 202.375 161.613281 C 199.402344 161.53125 199.328125 165.660156 200.011719 168.441406 Z M 201.851562 163.1875 C 203.921875 163.570312 204.285156 166.726562 201.589844 166.601562 C 200.996094 165.6875 201.410156 163.90625 201.851562 163.1875 Z M 191.871094 188.925781 L 191.871094 189.714844 C 193.648438 192.144531 198.066406 192.808594 200.535156 191.027344 C 204.613281 192.011719 207.390625 188.355469 206.316406 184.199219 C 203.773438 185.03125 205.765625 189.601562 202.113281 189.714844 C 201.085938 189.777344 201.164062 188.738281 200.800781 188.140625 C 199.488281 188.140625 199.574219 189.539062 199.222656 190.503906 C 196.492188 189.683594 194.40625 190.488281 191.871094 188.925781 Z M 206.839844 168.441406 C 211.988281 171.5625 214.5 160.71875 209.203125 159.511719 C 208.09375 159.714844 207.804688 160.738281 207.628906 161.875 C 208.175781 162.445312 208.476562 161.84375 208.941406 161.613281 C 211.839844 163.339844 210.613281 168.402344 206.839844 168.441406 Z M 184.515625 190.503906 C 185.582031 189.601562 186.347656 187.273438 185.304688 185.777344 L 183.203125 185.777344 C 183.152344 187.0625 185.105469 187.417969 183.992188 188.925781 C 182.027344 188.789062 180.109375 187.210938 179 187.089844 C 178.902344 189.148438 181.699219 190.492188 184.515625 190.503906 Z M 170.59375 187.875 C 170.984375 190.476562 175.125 191.328125 176.113281 194.179688 C 176.746094 194.289062 176.683594 193.699219 177.425781 193.917969 C 176.445312 190.609375 173.472656 189.289062 170.597656 187.875 Z M 200.011719 214.40625 C 200.6875 213.941406 201.148438 213.261719 201.851562 212.828125 C 202.804688 213.625 204.726562 213.457031 205.527344 214.40625 C 206.777344 214.167969 207.460938 213.359375 208.152344 212.566406 C 212.828125 213.988281 215.351562 210.496094 214.71875 206.523438 C 215.664062 205.980469 216.699219 205.527344 216.558594 203.898438 C 218.96875 204.332031 221.578125 201.460938 219.972656 198.644531 C 218.503906 197.511719 215.941406 198.613281 216.820312 200.484375 C 217.847656 200.898438 217.363281 199.800781 217.871094 199.695312 C 218.9375 199.832031 218.855469 201.859375 218.136719 202.324219 C 216.550781 202.679688 216.292969 201.710938 214.980469 201.796875 C 214.222656 202.585938 215.566406 204.070312 214.71875 204.949219 C 213.421875 204.851562 211.820312 203.929688 210.515625 204.6875 C 211.191406 205.851562 212.914062 205.96875 214.195312 206.523438 C 212.703125 207.527344 213.457031 210.171875 211.832031 210.988281 C 210.488281 211.664062 209.304688 210.710938 207.628906 210.203125 C 207.128906 210.664062 206.683594 211.183594 206.578125 212.039062 C 203.964844 212.113281 202.394531 211.144531 200.800781 210.203125 C 199.570312 210.664062 200.097656 211.5625 199.75 212.566406 C 197.558594 212.792969 197.070312 211.664062 195.019531 211.253906 C 194.714844 211.210938 194.554688 211.308594 194.496094 211.515625 C 194.25 213.550781 197.183594 214.578125 200.011719 214.40625 Z M 188.980469 211.253906 C 189.925781 211.058594 190.734375 210.730469 190.558594 209.414062 C 189.871094 208.871094 188.136719 210.265625 188.980469 211.253906 Z M 191.605469 218.605469 C 191.390625 219.347656 191.976562 219.285156 191.871094 219.921875 C 192.9375 220.023438 193.386719 219.511719 193.183594 218.34375 C 192.378906 218.152344 192.410156 218.796875 191.605469 218.605469 Z M 199.75 223.597656 C 200.054688 223.554688 200.214844 223.65625 200.273438 223.859375 C 201.070312 223.777344 201.339844 222.375 200.800781 221.757812 C 199.878906 222.179688 199.320312 222.382812 199.75 223.597656 Z M 214.457031 219.921875 C 213.992188 220.113281 214.417969 220.398438 214.457031 220.707031 C 217.671875 220.492188 218.777344 216.824219 218.921875 214.40625 C 216.226562 214.863281 216.582031 219.765625 214.457031 219.921875 Z M 210.515625 221.230469 C 212.957031 220.433594 214.214844 218.449219 214.980469 215.980469 C 212.445312 216.679688 211.640625 219.117188 210.515625 221.230469 Z M 206.578125 221.496094 C 208.113281 221.105469 209.976562 221.042969 209.730469 218.871094 C 208.148438 219.214844 207.0625 220.054688 206.578125 221.496094 Z M 242.824219 207.046875 C 243.945312 206.800781 243.324219 205.921875 243.609375 205.210938 C 244.238281 203.65625 246.023438 202.71875 245.710938 201.269531 C 243.632812 201.996094 241.535156 204.597656 242.824219 207.046875 Z M 240.195312 206.789062 C 241.855469 205.640625 241.707031 202.695312 242.824219 201.007812 C 240.480469 200.457031 239.550781 205.078125 240.195312 206.789062 Z M 234.15625 205.472656 C 234.082031 205.898438 234.40625 205.925781 234.417969 206.261719 C 236.90625 205.859375 237.988281 204.054688 238.621094 201.796875 C 236.179688 202.070312 236.492188 205.097656 234.15625 205.472656 Z M 243.347656 195.230469 C 244.378906 193.285156 246.933594 192.859375 247.550781 190.503906 C 245.777344 190.511719 242.601562 192.707031 243.347656 195.230469 Z M 248.339844 174.480469 C 248.550781 174.34375 248.765625 174.207031 249.128906 174.21875 C 249.089844 173.167969 249.800781 171.933594 249.128906 171.066406 C 247.109375 171.015625 247.847656 173.816406 248.339844 174.480469 Z M 233.632812 166.339844 C 234.238281 168.390625 234.746094 171.089844 233.894531 173.167969 C 237.089844 172.898438 235.34375 167.667969 234.945312 166.339844 Z M 232.054688 172.117188 C 233.523438 171.230469 233.828125 167.792969 232.578125 166.863281 C 231.632812 168.25 231.902344 170.753906 232.054688 172.117188 Z M 231.003906 186.300781 C 232.136719 186.472656 232.476562 185.847656 233.105469 185.511719 C 232.773438 184.1875 230.695312 184.765625 231.003906 186.300781 Z M 227.328125 156.097656 L 227.328125 157.148438 C 227.71875 156.683594 228.683594 157.640625 228.640625 156.359375 C 228.007812 156.464844 228.070312 155.878906 227.328125 156.097656 Z M 217.871094 134.035156 L 217.871094 134.824219 C 220.714844 136.453125 225.753906 137.253906 228.640625 137.972656 C 229.519531 135.449219 225.359375 135.152344 223.386719 134.824219 C 221.457031 134.5 220.171875 133.128906 217.871094 134.035156 Z M 199.488281 136.136719 C 204.242188 135.300781 211.40625 135.757812 216.558594 134.824219 C 216.257812 132.566406 212.394531 133.105469 208.941406 133.246094 C 204.179688 133.445312 201.761719 133.828125 199.488281 135.085938 Z M 200.800781 125.367188 C 203.597656 126.507812 207.085938 125.882812 209.992188 125.890625 C 208.550781 122.921875 203.21875 124.648438 200.800781 125.367188 Z M 192.921875 122.476562 C 194.789062 123.933594 198.316406 123.625 200.800781 122.742188 C 199.558594 120.632812 195.691406 122.488281 192.921875 122.476562 Z M 170.070312 114.074219 L 170.070312 114.859375 C 171.503906 115.109375 172.585938 114.082031 172.960938 115.386719 C 173.785156 114.738281 174.789062 113.570312 173.75 112.496094 C 172.472656 112.976562 171.621094 113.871094 170.070312 114.074219 Z M 184.253906 115.648438 C 182.929688 114.878906 181.425781 115.886719 179.789062 116.175781 C 176.226562 116.796875 172.171875 116.769531 169.546875 118.800781 C 170.992188 119.316406 174.050781 118.628906 174.535156 118.277344 C 176.085938 117.5 183.363281 118.746094 184.253906 115.648438 Z M 166.394531 114.074219 C 167.367188 113.90625 167.859375 113.261719 167.707031 111.972656 C 167.402344 112.015625 167.238281 111.914062 167.179688 111.710938 C 166.246094 112.015625 165.378906 113.316406 166.394531 114.074219 Z M 122.792969 142.964844 C 122.683594 143.511719 122.972656 143.660156 123.058594 144.015625 C 124.050781 144.132812 124.289062 143.496094 124.894531 143.226562 C 125.839844 144.429688 124.003906 144.664062 123.84375 145.589844 C 125.597656 146.335938 126.707031 143.546875 128.046875 141.914062 C 129.3125 140.375 131.410156 138.929688 131.988281 137.710938 C 132.210938 137.238281 133.230469 135.617188 131.722656 135.347656 C 130.359375 136.421875 129.863281 140.191406 127.785156 138.238281 C 126.519531 140.136719 124.875 142.714844 122.792969 142.964844 Z M 114.914062 106.195312 C 115.761719 107.625 115.375 110.285156 117.804688 110.132812 C 118.03125 109.921875 117.960938 109.414062 118.328125 109.347656 C 117.566406 107.917969 116.5625 106.734375 114.914062 106.195312 Z M 94.691406 100.152344 C 96.84375 102.816406 97.855469 106.621094 98.894531 110.398438 C 100.433594 110.054688 100.96875 110.105469 102.308594 109.871094 C 102.375 105.679688 101.378906 99.890625 97.316406 98.316406 C 98.304688 101.195312 100.632812 104.089844 100.207031 107.507812 C 98.886719 104.976562 97.964844 102.046875 96.003906 100.152344 Z M 157.726562 185.511719 C 159.71875 184.332031 160.074219 180.183594 160.089844 177.894531 C 157.335938 178.46875 158.105469 182.5625 157.726562 185.511719 Z M 158.777344 130.621094 C 161.066406 128.863281 159.253906 123.746094 158.253906 121.953125 L 156.9375 121.953125 C 157.390625 124.160156 158.355469 128.214844 158.777344 130.621094 Z M 155.097656 182.359375 C 156.769531 182.089844 158.523438 177.355469 155.886719 176.84375 C 155.753906 178.679688 154.84375 180.992188 155.097656 182.359375 Z M 153.261719 118.800781 C 154.839844 119.675781 154.078125 122.886719 154.835938 124.578125 C 156.992188 123.878906 156.035156 119.855469 155.363281 118.277344 C 154.359375 118.148438 153.6875 118.351562 153.261719 118.800781 Z M 149.058594 115.125 C 150.109375 116.003906 149.105469 118.933594 150.898438 119.0625 C 151.382812 117.90625 151.65625 116.160156 150.898438 115.125 C 149.953125 115.34375 149.628906 114.53125 149.058594 115.125 Z M 148.269531 149.792969 C 149.964844 154.765625 148.078125 159.492188 148.535156 164.5 C 149.179688 164.464844 149.800781 164.460938 150.109375 164.761719 C 150.511719 165.9375 149.667969 167.265625 150.371094 168.441406 C 151.910156 167.207031 151.203125 164.277344 151.160156 162.664062 C 152.425781 162.273438 151.707031 163.867188 152.734375 163.714844 C 154.769531 162.972656 154.160156 160.140625 154.050781 158.460938 C 153.71875 153.527344 152.769531 148.03125 152.210938 142.964844 C 150.066406 143.585938 151.660156 147.804688 150.636719 150.582031 C 150.238281 149.929688 149.464844 149.648438 148.269531 149.792969 Z M 151.949219 156.621094 C 152.0625 157.542969 153 159.597656 151.949219 160.035156 C 151.441406 159.507812 150.925781 157.03125 151.949219 156.621094 Z M 150.898438 178.421875 C 150.003906 177.734375 148.429688 176.34375 147.746094 176.320312 C 147.238281 177.398438 149.5 180.078125 150.898438 178.421875 Z M 145.644531 114.597656 C 145.78125 114.988281 146.03125 115.261719 146.171875 115.648438 C 147.242188 115.757812 147.828125 115.378906 147.746094 114.335938 C 146.609375 114.339844 146.273438 113.851562 145.644531 114.597656 Z M 141.179688 166.339844 C 143.445312 165.804688 143.585938 163.140625 146.171875 162.925781 C 146.488281 159.324219 147.886719 154.050781 146.171875 150.84375 C 144.554688 152.148438 145.890625 156.152344 145.121094 157.671875 C 144.554688 157.453125 144.898438 156.316406 144.332031 156.097656 C 142.972656 158.9375 144.175781 164.347656 141.179688 165.550781 Z M 141.179688 124.316406 C 141.105469 124.742188 141.429688 124.769531 141.441406 125.105469 C 144.480469 124.378906 146.867188 123 148.007812 120.375 C 144.832031 119.800781 144.292969 123.96875 141.179688 124.316406 Z M 139.078125 121.691406 C 139.042969 122.160156 139.398438 122.246094 139.339844 122.742188 C 141.90625 123.703125 143.894531 122.125 144.59375 120.375 C 144.328125 119.765625 143.691406 119.53125 142.757812 119.589844 C 142.554688 121.871094 140.519531 121.910156 139.078125 121.691406 Z M 137.242188 119.851562 C 137.734375 121.632812 140.703125 121.214844 141.441406 119.851562 C 141.160156 119.257812 140.644531 118.898438 139.867188 118.800781 C 139.738281 120.308594 138.0625 119.578125 137.242188 119.851562 Z M 125.945312 165.289062 C 125.902344 165.59375 126.003906 165.757812 126.207031 165.8125 C 129.980469 164.945312 131.640625 161.96875 133.300781 158.984375 L 132.25 158.984375 C 130.007812 160.945312 128.578125 163.722656 125.945312 165.289062 Z M 124.894531 148.21875 C 124.851562 148.523438 124.953125 148.683594 125.15625 148.742188 C 126.335938 148.550781 127.414062 147.449219 128.046875 146.640625 C 129.542969 144.726562 130.875 142.597656 132.25 140.601562 C 133.5 139.964844 134.824219 138.160156 134.351562 136.660156 C 132.535156 136.421875 132.679688 138.140625 131.988281 139.023438 C 129.292969 141.757812 127.632812 145.527344 124.894531 148.21875 Z M 124.371094 162.664062 L 124.371094 163.449219 C 127.203125 163.632812 129.65625 161.015625 128.3125 158.722656 C 126.9375 159.976562 126.871094 162.539062 124.371094 162.664062 Z M 121.480469 141.386719 C 121.441406 141.695312 121.539062 141.855469 121.746094 141.914062 C 123.90625 141.265625 128.503906 138.375 125.945312 136.398438 C 125.117188 138.722656 123.332031 140.085938 121.480469 141.386719 Z M 118.59375 105.40625 C 119.765625 107.296875 120.15625 109.96875 122.792969 110.398438 C 122.910156 110.164062 123.027344 109.925781 123.320312 109.871094 C 122.648438 107.476562 120.539062 106.523438 118.59375 105.40625 Z M 104.410156 139.8125 C 104.472656 140.097656 104.933594 139.992188 104.9375 140.339844 C 108.886719 138.863281 107.566406 132.113281 109.398438 128.519531 C 109.304688 131.75 109.910156 137.957031 107.296875 139.550781 C 111.328125 141.167969 111.449219 130.789062 112.027344 126.679688 C 112.230469 125.222656 112.042969 124.527344 112.027344 123.527344 C 110.25 123.152344 110.167969 124.472656 109.925781 125.628906 C 109.398438 125.871094 109.140625 124.816406 107.824219 125.367188 C 107.167969 129.691406 106.882812 136.453125 104.410156 139.8125 Z M 103.359375 91.75 L 103.359375 92.535156 C 105.929688 91.953125 107.679688 94.574219 109.660156 95.160156 C 112.414062 95.984375 115.246094 95.804688 117.804688 96.738281 C 118.914062 97.144531 119.851562 98.070312 120.957031 98.316406 C 121.902344 98.523438 122.898438 98.277344 123.84375 98.578125 C 126.972656 99.570312 129.640625 102.132812 132.25 103.566406 C 133.996094 103.308594 134.410156 104.386719 135.664062 104.617188 C 137.078125 106.742188 138.628906 110.816406 141.703125 109.609375 C 140.265625 107.371094 138.191406 105.765625 136.976562 103.304688 L 134.875 103.304688 C 132.636719 101.9375 127.769531 97.894531 124.371094 97 C 123.5 96.773438 122.632812 97.027344 121.746094 96.738281 C 118.859375 95.796875 116.351562 94.441406 113.601562 93.851562 C 112.613281 93.636719 111.40625 93.863281 110.449219 93.585938 C 107.945312 92.871094 105.746094 89.589844 103.359375 91.75 Z M 101.78125 135.609375 C 101.742188 135.914062 101.839844 136.078125 102.046875 136.136719 C 105.453125 135.503906 106.625 130.394531 107.035156 125.890625 C 106.0625 125.992188 106.347656 124.828125 105.195312 125.105469 C 105.714844 129.328125 104.082031 133.359375 101.78125 135.609375 Z M 98.632812 132.722656 C 100.363281 135.769531 106.109375 128.964844 102.046875 127.730469 C 101.871094 130.3125 100.488281 132.644531 98.632812 132.722656 Z M 95.742188 131.671875 C 95.609375 133.007812 98.066406 132.496094 98.371094 131.933594 C 98.375 130.964844 98.25 130.125 97.316406 130.09375 C 97.222656 131.050781 96.699219 131.574219 95.742188 131.671875 Z M 91.539062 99.890625 C 94.199219 102.132812 94.53125 106.703125 96.53125 109.609375 C 99.09375 107.773438 95.226562 104.375 95.214844 101.730469 C 93.507812 101.632812 93.351562 99.066406 91.539062 99.890625 Z M 87.863281 102.515625 C 90.253906 104.679688 90.871094 108.613281 94.167969 109.871094 C 94.707031 109.40625 94.394531 109.058594 94.691406 108.820312 C 92.6875 106.445312 91.3125 103.445312 87.863281 102.515625 Z M 83.398438 162.925781 C 83.765625 159.335938 81.710938 154.726562 81.035156 150.054688 C 80.664062 147.503906 81.214844 144.828125 79.984375 142.703125 C 79.3125 147.242188 80.601562 150.949219 81.035156 155.046875 C 81.316406 157.710938 80.480469 161.617188 83.398438 162.925781 Z M 77.882812 84.132812 C 78 84.367188 78.113281 84.601562 78.40625 84.65625 C 81.84375 85.089844 84.816406 85.40625 88.386719 86.496094 C 92.066406 87.621094 95.703125 91.179688 98.894531 88.859375 C 92.308594 87.199219 85.441406 82.265625 77.882812 84.132812 Z M 76.042969 89.386719 L 76.042969 89.910156 C 78.15625 91.945312 77.933594 97.605469 81.558594 97.265625 C 81.1875 96.148438 80.199219 93.753906 79.195312 92.011719 C 78.453125 90.71875 77.175781 89.265625 76.042969 89.386719 Z M 71.316406 93.324219 C 71.632812 95.433594 74.082031 98.511719 76.042969 96.476562 C 76.683594 97.324219 77.398438 98.101562 78.671875 98.316406 C 78.761719 97.96875 79.132812 97.902344 79.195312 97.527344 C 76.800781 95.371094 75.851562 91.765625 72.628906 90.433594 C 73.519531 91.996094 74.25 93.71875 75.519531 94.902344 C 75.425781 95.246094 75.054688 95.3125 74.992188 95.6875 C 73.601562 95.195312 72.621094 93.050781 71.316406 93.324219 Z M 68.425781 83.605469 C 69.15625 84.964844 73.445312 86.425781 74.730469 84.65625 C 73.367188 83.570312 70.097656 84.390625 68.425781 83.605469 Z M 65.539062 122.476562 C 66 125.832031 69.425781 122.886719 71.316406 122.476562 C 71.53125 123.835938 68.441406 124.152344 67.640625 125.367188 C 71.1875 126.1875 75.199219 122.957031 76.570312 119.851562 C 74.714844 120.019531 74.257812 119.332031 73.15625 119.328125 C 71.035156 120.757812 68.507812 122.722656 65.539062 122.476562 Z M 62.910156 129.832031 C 62.488281 134.425781 63.871094 139.101562 64.488281 143.753906 C 64.917969 147.011719 64.480469 150.75 66.589844 153.207031 C 68.265625 152.191406 66.945312 149.480469 66.589844 147.691406 C 65.523438 142.332031 64.101562 135.757812 62.910156 129.832031 Z M 62.910156 120.640625 C 62.695312 121.382812 63.28125 121.320312 63.175781 121.953125 C 67.316406 121.921875 69.011719 120.84375 71.578125 119.0625 C 68.90625 117.042969 66.851562 121.414062 62.910156 120.640625 Z M 60.285156 118.015625 C 61.339844 119.765625 68.410156 120.332031 68.691406 117.488281 C 66.085938 117.386719 63.152344 118.34375 60.285156 118.015625 Z M 56.082031 104.882812 C 56.125 105.1875 56.5625 105.101562 56.871094 105.144531 C 57.867188 103.753906 58.875 102.441406 60.023438 101.203125 C 61.074219 100.070312 62.855469 99.308594 63.175781 97.527344 C 58.90625 98.074219 57.8125 101.796875 56.082031 104.882812 Z M 55.03125 93.0625 C 54.988281 93.367188 55.089844 93.53125 55.296875 93.585938 C 56.160156 93.3125 56.757812 92.773438 57.132812 92.011719 L 58.183594 92.011719 C 59.6875 89.136719 63.40625 88.480469 64.75 85.445312 C 59.882812 85.316406 58.113281 90.53125 55.03125 93.0625 Z M 53.71875 103.304688 C 56.09375 101.390625 58.105469 99.113281 59.234375 95.949219 C 56.128906 97.136719 55.046875 100.339844 53.71875 103.304688 Z M 51.355469 95.164062 C 53.816406 92.835938 58.03125 89.960938 57.921875 86.757812 C 54.875 88.089844 53.769531 91.359375 51.617188 93.585938 C 51.808594 94.390625 51.164062 94.359375 51.355469 95.164062 Z M 49.253906 114.601562 C 50.917969 112.742188 50.871094 107.832031 51.09375 105.40625 C 48.492188 106.253906 48.710938 112.3125 49.253906 114.601562 Z M 47.941406 138.761719 C 49.777344 137.953125 48.335938 135.644531 48.203125 134.035156 C 47.847656 129.75 48.449219 124.863281 48.203125 120.902344 C 46.707031 125.226562 45.980469 133.855469 47.941406 138.761719 Z M 47.152344 110.921875 C 47.019531 108.773438 48.109375 107.851562 48.203125 105.933594 C 47.351562 105.78125 46.980469 106.109375 46.363281 106.195312 C 46.90625 108.003906 44.515625 111.019531 47.152344 110.921875 Z M 93.902344 84.921875 C 97.207031 85.816406 100.3125 86.679688 103.621094 87.808594 C 107.492188 89.128906 110.507812 90.632812 113.601562 91.75 C 115.816406 92.546875 118.105469 92.679688 120.691406 93.324219 C 122.003906 93.652344 123.261719 94.640625 124.632812 95.164062 C 129.511719 97.023438 133.6875 98.214844 137.242188 100.679688 C 138.9375 102.753906 141.332031 104.683594 143.019531 107.507812 C 144.097656 107.574219 144.640625 108.332031 145.121094 108.296875 C 146.585938 110.332031 150.816406 111.878906 154.3125 112.761719 C 157.140625 117.542969 161.09375 123.644531 162.453125 129.832031 C 163.828125 136.082031 165.515625 142.910156 162.980469 148.21875 C 163.269531 154.308594 162.875 160.503906 162.453125 165.550781 C 162.070312 170.136719 163.15625 174.242188 163.242188 178.421875 C 163.417969 187.171875 165.59375 194.71875 165.605469 202.058594 C 168.746094 208.636719 172.085938 215.015625 176.898438 219.921875 C 174.011719 219.65625 173.558594 216.957031 171.382812 215.980469 C 166.128906 208.625 161.625 200.523438 156.675781 192.867188 C 157.410156 194.847656 157.90625 197.0625 159.300781 198.382812 C 159.855469 201.835938 162.511719 205.28125 164.554688 208.101562 C 167.617188 213.789062 170.734375 219.433594 176.898438 222.019531 C 177.839844 222.085938 177.859375 221.230469 178.738281 221.230469 C 179.644531 223.507812 182.847656 221.859375 183.992188 223.859375 C 178.652344 226.402344 176.015625 220.8125 171.121094 220.445312 C 163.335938 214.308594 159.476562 204.25 154.3125 195.492188 C 156.175781 203.140625 159.886719 207.359375 162.71875 213.878906 C 154.722656 209.703125 152.113281 198.742188 146.957031 192.605469 C 149.070312 198.457031 152.242188 203.253906 154.574219 208.886719 C 150.675781 208.003906 150.085938 204.140625 148.269531 201.269531 C 145.832031 197.414062 143.332031 193.660156 141.179688 189.980469 C 142.742188 195.601562 146.265625 200.644531 148.007812 205.210938 C 143.5 203.308594 142.175781 198.921875 139.867188 194.179688 C 137.632812 189.597656 135.808594 186.359375 133.824219 182.359375 C 135.789062 189.890625 139.65625 195.550781 141.441406 202.058594 C 139.726562 201.5 138.960938 199.988281 136.714844 199.957031 C 134.445312 193.121094 131.320312 187.144531 128.574219 180.785156 C 129.945312 187.957031 132.4375 192.390625 134.351562 198.90625 C 133.421875 199.132812 131.914062 197.910156 130.9375 197.332031 C 128.425781 190.300781 125.71875 183.46875 122.792969 176.847656 C 123.605469 182.867188 126.792969 188.777344 128.046875 195.230469 C 120.304688 191.066406 118.925781 180.539062 115.179688 172.382812 C 115.765625 179.402344 118.695312 183.308594 119.90625 189.191406 C 118.261719 188.90625 117.523438 187.71875 116.226562 187.089844 C 113.652344 180.382812 110.644531 174.113281 107.824219 167.652344 C 109.175781 174.621094 111.90625 179.019531 113.601562 185.25 C 105.425781 181.953125 104.296875 170.226562 101.78125 162.136719 C 101.46875 169.097656 104.269531 174.4375 105.722656 179.996094 C 104.457031 179.949219 104.003906 179.09375 102.832031 178.945312 C 101.878906 172.261719 98.332031 165.957031 96.792969 158.984375 C 96.351562 165.222656 99.691406 171.910156 100.730469 177.371094 C 99.023438 176.367188 97.726562 174.949219 96.003906 173.957031 C 93.992188 166.601562 92.222656 159.003906 89.964844 151.894531 C 90.742188 158.957031 92.609375 164.789062 93.640625 170.277344 C 91.902344 170.441406 92.070312 168.699219 90.488281 168.703125 C 88.289062 161.707031 86.527344 154.28125 85.238281 146.378906 C 84.382812 153.078125 87.3125 160.203125 87.863281 166.601562 C 84.574219 164.636719 80.617188 163.34375 77.621094 161.085938 C 77.914062 160.769531 78.367188 160.613281 78.144531 159.773438 C 76.359375 152.816406 74.386719 145.820312 72.890625 139.289062 C 72.949219 146.804688 75.316406 153.222656 76.570312 160.300781 C 75.109375 160.480469 74.308594 157.871094 72.367188 157.671875 C 72.085938 156.691406 73.019531 156.925781 72.890625 156.097656 C 70.890625 150.128906 69.957031 142.136719 68.953125 136.660156 C 68.289062 143.5 70.207031 150.761719 71.054688 156.621094 C 67.527344 155.070312 65.058594 152.460938 61.335938 151.105469 C 61.074219 150.058594 62.121094 150.316406 61.863281 149.265625 C 60.09375 141.796875 59.570312 132.222656 59.496094 126.679688 C 58.375 131.007812 58.398438 141 59.496094 146.90625 C 58.804688 147.273438 57.875 146.007812 57.132812 145.589844 C 56.929688 139.210938 54.417969 131.960938 54.246094 126.15625 C 53.363281 132.238281 54.53125 139.089844 55.820312 144.539062 C 54.847656 144.648438 53.46875 143.097656 52.144531 142.703125 C 51.34375 135.652344 51.074219 128.421875 49.515625 122.742188 C 49.183594 129.320312 50.070312 135.992188 50.304688 141.652344 C 48.894531 141.007812 47.378906 139.203125 46.101562 139.289062 C 44.992188 132.953125 44.394531 126.113281 44 119.0625 C 42.808594 122.484375 43.554688 127.488281 43.210938 131.144531 C 42.082031 129.234375 42.425781 125.824219 42.425781 122.742188 C 42.425781 120.867188 43 118.574219 41.898438 118.015625 C 40.882812 123.640625 40.929688 127.984375 41.898438 133.773438 C 42.269531 134.167969 43.175781 134.601562 43.738281 134.035156 C 43.632812 135.277344 44.207031 135.84375 44 137.1875 C 42.136719 135.898438 40.585938 134.300781 38.746094 132.984375 C 39.238281 132.6875 40.015625 132.671875 39.796875 131.671875 C 38.6875 128.054688 39.46875 122.546875 37.433594 119.851562 C 37.417969 122.207031 38.457031 124.660156 35.859375 125.890625 C 37.335938 126.269531 36.246094 127.59375 37.960938 127.730469 C 37.484375 129.367188 38.011719 130.640625 38.222656 132.457031 C 35.796875 131.121094 33.875 129.28125 32.445312 126.941406 C 32.613281 123.011719 32.222656 119.640625 32.183594 115.914062 C 33.707031 113.878906 36.484375 112.808594 37.699219 110.398438 C 40.109375 105.601562 41.304688 99.875 44.527344 95.6875 C 45.207031 94.804688 46.460938 94.394531 47.152344 93.585938 C 48.375 92.15625 49.253906 90.78125 50.566406 89.386719 C 51.898438 87.964844 53.058594 86.285156 54.246094 84.660156 C 61.917969 83.453125 69.410156 81.625 77.617188 82.03125 C 77.851562 81.5625 78.351562 81.363281 78.144531 80.453125 C 75.816406 78.242188 71.363281 80.613281 68.691406 80.71875 C 74.464844 76.425781 83.398438 74.015625 91.539062 74.152344 C 91.300781 75.753906 88.242188 74.53125 88.125 76.253906 C 92.378906 75.933594 97.503906 74.015625 101.257812 76.777344 C 98.460938 77.953125 93.015625 77.269531 90.753906 79.667969 C 94.070312 79.160156 100.324219 79.527344 103.359375 77.566406 C 104.429688 78.683594 106.664062 78.636719 107.296875 80.195312 C 105.691406 81.035156 102.890625 80.6875 101.519531 81.769531 C 105.511719 82.726562 109.65625 80.296875 112.289062 82.292969 C 111.320312 82.988281 108.917969 82.890625 107.824219 84.132812 C 112.066406 84.253906 117.238281 82.863281 119.90625 85.96875 C 118.191406 87.058594 114.605469 86.273438 113.339844 87.808594 C 119.644531 87.390625 126.65625 86.089844 130.9375 89.910156 C 127.867188 89.855469 125.316406 91.800781 122.53125 91.75 C 117.367188 91.652344 112.699219 88.355469 107.5625 86.496094 C 102.539062 84.679688 97.167969 83.28125 91.277344 81.769531 C 86.195312 80.464844 81.472656 78.765625 78.671875 82.292969 C 85.148438 81.214844 89.296875 83.667969 93.902344 84.921875 Z M 60.023438 149.792969 C 57.570312 147.953125 53.785156 147.453125 52.667969 144.277344 C 54.527344 145.675781 59.105469 146.582031 60.023438 149.792969 Z M 131.460938 92.273438 C 132.183594 91.945312 131.933594 90.644531 132.773438 90.433594 C 138.726562 92.277344 144.421875 96.648438 149.320312 100.417969 C 148.15625 101.175781 145.769531 100.71875 144.855469 101.730469 C 147.355469 102.289062 149.871094 102.601562 151.683594 101.464844 C 153.441406 103.738281 157.96875 103.238281 159.828125 105.40625 C 156.957031 106.269531 153.222656 104.980469 150.898438 106.980469 C 153.839844 107.078125 158.503906 108.238281 160.617188 106.71875 C 160.601562 106.328125 159.589844 105.222656 160.617188 105.40625 C 166.359375 106.535156 171.175781 112.054688 176.636719 110.921875 C 181.8125 113.988281 187.238281 115.558594 191.605469 117.75 C 183.152344 117.953125 177.425781 119.625 171.382812 122.476562 C 177.976562 121.683594 183.824219 119.054688 191.871094 119.589844 C 192.265625 119.109375 192.148438 118.117188 192.65625 117.75 C 195.0625 119.4375 198.457031 120.660156 201.851562 121.164062 C 207.160156 121.957031 211.175781 123.648438 214.457031 126.679688 C 210.472656 126.539062 205.371094 127.105469 202.636719 129.042969 C 205.542969 129.265625 208.484375 128.269531 211.304688 128.257812 C 216.929688 128.234375 220.039062 129.636719 223.648438 131.144531 C 226.476562 133.242188 229.730469 136.199219 231.792969 139.023438 C 232.21875 139.605469 233.460938 140.304688 232.84375 140.863281 C 231.214844 141.15625 228.597656 139.402344 226.539062 140.074219 C 222.949219 137.378906 216.949219 135.296875 211.042969 137.1875 C 205.953125 135.703125 201.054688 138.441406 196.070312 138.761719 C 197.65625 137.675781 198.65625 132.753906 197.125 129.832031 C 194.699219 128.308594 193.082031 126.585938 190.292969 126.941406 C 189.03125 127.105469 187.960938 128.464844 186.617188 128.78125 C 183.609375 129.488281 180.140625 128.988281 177.6875 130.621094 C 175.398438 127.648438 166.46875 127.792969 168.496094 132.984375 C 167.917969 133.546875 166.941406 133.707031 166.394531 134.296875 C 167.683594 134.6875 166.601562 136.78125 165.605469 137.1875 C 164.894531 125.464844 160.648438 117.28125 154.835938 110.660156 C 150.941406 109.277344 147.515625 108.234375 144.59375 105.667969 C 142.085938 103.46875 140.433594 100.199219 137.765625 98.316406 C 133.859375 95.554688 129.242188 94.84375 124.371094 92.535156 C 125.714844 92.148438 129.582031 91.144531 131.460938 92.273438 Z M 165.082031 173.695312 C 165.574219 179.441406 167.269531 186.152344 166.65625 191.554688 C 164.996094 184.246094 164.8125 176.375 164.292969 168.703125 C 165.726562 169.515625 164.9375 172.019531 165.082031 173.695312 Z M 166.132812 143.753906 C 165.511719 146.433594 165.90625 149.945312 165.082031 152.945312 C 164.515625 149.558594 164.386719 145.910156 166.132812 143.753906 Z M 165.34375 154.785156 C 165.179688 155.496094 165.675781 156.867188 165.082031 157.148438 C 164.84375 156.835938 164.339844 154.660156 165.34375 154.785156 Z M 169.808594 136.660156 C 169.304688 136.167969 169.332031 136.816406 168.496094 136.660156 C 169.277344 134.726562 170.46875 134.296875 170.332031 131.144531 C 173.539062 129.8125 175.117188 132.289062 177.160156 132.984375 C 179.128906 130.636719 183.582031 131.832031 186.878906 130.882812 C 188.183594 130.507812 188.796875 128.894531 190.03125 128.78125 C 195.46875 128.28125 198.835938 136.96875 192.65625 139.023438 C 193.246094 137.261719 195.589844 134.703125 194.757812 133.246094 C 192.488281 135.878906 190.335938 138.628906 190.03125 143.226562 C 190.867188 144.054688 191.625 144.960938 191.871094 146.378906 C 186.777344 148.46875 182.375 151.242188 180.3125 156.359375 C 181.195312 157.929688 181.113281 160.464844 182.679688 161.347656 C 183.25 166.097656 180.140625 169.035156 177.949219 171.855469 C 181.765625 170.503906 183.683594 167.257812 184.515625 162.925781 C 185.871094 163.988281 186.175781 164.585938 186.09375 166.863281 C 180.828125 174.125 170.414062 177.625 169.285156 188.140625 C 170.382812 187.839844 170.011719 186.066406 171.121094 185.777344 C 173.546875 187.007812 175.839844 190.421875 178.472656 190.765625 C 176.4375 188.253906 173.871094 186.265625 171.910156 183.675781 C 172.277344 183.605469 172.210938 183.097656 172.433594 182.886719 C 174.648438 182.429688 176.136719 187.464844 178.738281 186.300781 C 177.722656 185.207031 175.046875 183.402344 176.636719 182.097656 C 178.289062 182.460938 178.480469 184.28125 180.574219 184.199219 C 179.410156 181.933594 176.183594 180.386719 175.847656 178.160156 C 176.21875 178.089844 176.148438 177.582031 176.375 177.371094 C 178.726562 177.644531 179.449219 180.945312 181.625 180.523438 C 181.019531 178.734375 178.53125 177.53125 178.738281 175.796875 C 181.609375 176.25 182.695312 179.890625 185.039062 179.996094 C 184.308594 177.488281 181.742188 176.816406 181.101562 174.21875 C 184.074219 173.304688 185.0625 177.917969 187.140625 177.894531 C 187.421875 176.914062 186.492188 177.148438 186.617188 176.320312 C 188.238281 176.363281 188.414062 177.851562 190.03125 177.894531 L 190.03125 176.84375 C 191.304688 177.066406 191.886719 176.601562 192.65625 176.320312 C 194.054688 176.980469 195.703125 178.039062 197.648438 177.371094 C 199.425781 179.335938 204.480469 178.96875 205.789062 176.84375 C 206.941406 176.980469 206.652344 176.925781 207.628906 177.109375 C 209.476562 176.121094 210.777344 173.597656 209.992188 170.804688 C 209.132812 170.523438 208.226562 169.027344 207.367188 170.277344 C 208.371094 171.792969 209.121094 173.421875 207.890625 175.269531 C 206.574219 175.449219 205.773438 175.113281 205.003906 174.746094 C 204.511719 175.394531 203.796875 175.8125 203.6875 176.84375 C 200.890625 177.609375 198.429688 176.527344 197.125 175.007812 C 196.570312 175.238281 196.667969 176.125 195.808594 176.058594 C 194.597656 175.429688 193.222656 174.96875 191.871094 174.480469 C 188.621094 176.941406 185.816406 172.296875 183.203125 172.382812 C 185.335938 171.257812 186.609375 167.933594 188.457031 167.390625 C 188.851562 167.425781 188.347656 168.5625 188.980469 168.964844 C 189.640625 169.011719 189.804688 168.5625 190.03125 168.179688 C 189.964844 166.757812 189.652344 165.582031 188.191406 165.550781 C 188.347656 163.820312 187.1875 163.40625 186.878906 162.136719 C 189.3125 162.683594 189.09375 165.875 191.871094 166.078125 C 191.113281 164.207031 189.402344 163.292969 188.71875 161.347656 C 189.445312 160.503906 190.089844 163.09375 190.820312 161.613281 C 189.660156 158.917969 186.765625 157.960938 185.828125 155.046875 C 189.476562 155.226562 189.292969 161.085938 192.394531 161.613281 C 196.417969 162.292969 196.320312 156.476562 193.707031 156.359375 C 192.300781 156.296875 192.539062 157.875 191.082031 158.199219 C 189.851562 156.886719 188.636719 155.566406 187.929688 153.734375 C 190.003906 153.675781 190.066406 157.019531 192.132812 156.097656 C 192.359375 155.003906 190.539062 153.894531 190.292969 152.421875 C 190.871094 152.121094 191.167969 151.542969 191.867188 151.371094 C 192.132812 151.71875 192.117188 152.347656 192.65625 152.421875 C 194.730469 152.320312 195.808594 153.824219 197.648438 154.785156 C 202.261719 157.1875 208.835938 156.695312 213.40625 158.460938 C 214.457031 157.675781 215.378906 156.757812 215.769531 155.308594 C 215.464844 155.089844 215.066406 154.964844 214.457031 155.046875 C 214.78125 154.21875 214.703125 152.636719 213.933594 152.15625 C 213.167969 152.496094 212.070312 152.496094 211.304688 152.15625 C 210.8125 152.660156 211.460938 152.632812 211.304688 153.46875 C 210.46875 153.082031 208.957031 153.367188 208.417969 152.683594 C 208.800781 152.101562 210.496094 152.835938 210.515625 151.894531 C 209.667969 149.503906 205.996094 149.9375 204.476562 148.21875 C 207.347656 146.957031 210.503906 148.664062 213.667969 149.265625 C 216.179688 154.8125 220.667969 158.378906 226.011719 161.085938 C 225.789062 162.453125 226.402344 162.976562 227.0625 163.449219 C 226.453125 166.257812 226.054688 169.128906 225.488281 171.328125 C 228.40625 173.625 225.839844 177.617188 224.175781 179.210938 C 226.757812 183.171875 223.160156 187.933594 219.183594 189.714844 C 219.777344 194.949219 214.648438 196.359375 211.042969 195.757812 C 209.574219 198.195312 206.507812 200.695312 203.164062 198.382812 C 202.628906 199.597656 200.472656 199.195312 200.535156 201.007812 C 196.917969 200.546875 193.605469 200.84375 191.082031 198.382812 C 186.375 201.636719 181.152344 197.226562 177.949219 194.96875 C 177.308594 195.113281 177.390625 195.984375 176.375 195.757812 C 174.632812 193.730469 171.703125 192.894531 169.019531 191.816406 C 168.566406 188.09375 167.25 183.128906 167.179688 178.160156 C 168.246094 176.425781 169.535156 174.910156 170.070312 172.644531 C 173.660156 170.28125 176.550781 167.21875 180.574219 165.289062 C 177.386719 164.539062 174.355469 168.292969 171.648438 169.753906 C 173.117188 165.425781 175.945312 160.890625 175.847656 155.570312 C 175.804688 153.21875 174.683594 150.996094 175.847656 148.742188 C 178.824219 147.910156 180.511719 143.730469 183.988281 145.066406 C 184.289062 144.488281 184.667969 143.992188 184.515625 142.964844 C 181.285156 142.589844 178.863281 145.152344 176.636719 146.640625 C 177.410156 140.324219 183.953125 139.773438 186.355469 135.085938 C 184.226562 134.722656 182.96875 136.636719 181.625 137.710938 C 179.050781 139.773438 176.632812 141.640625 175.058594 144.277344 C 174.125 143.289062 175.25 140.234375 173.746094 139.8125 C 170.832031 141.890625 174.050781 145.636719 174.273438 147.167969 C 174.558594 149.132812 173.507812 151.992188 173.746094 154.519531 C 174.242188 159.710938 171.835938 165.363281 169.546875 168.179688 C 169.574219 168.671875 170.414062 168.359375 170.332031 168.964844 C 168.796875 171.019531 168 175.210938 166.65625 176.582031 C 166.535156 165.484375 165.933594 147.703125 169.808594 136.660156 Z M 166.917969 193.128906 C 167.238281 193.160156 167.539062 193.207031 167.445312 193.65625 C 168.171875 199.753906 171.394531 203.363281 172.695312 208.886719 C 174.554688 211.074219 176.964844 214.058594 176.898438 217.292969 C 172.265625 213.171875 170.628906 206.050781 166.65625 201.269531 C 168.082031 199.304688 166.402344 195.023438 166.917969 193.128906 Z M 169.546875 194.707031 C 170.363281 194.847656 170.84375 195.332031 171.121094 196.019531 C 170.140625 195.738281 170.375 196.671875 169.546875 196.542969 C 169.632812 195.730469 168.9375 195.289062 169.546875 194.707031 Z M 179.523438 205.738281 C 180.757812 206.757812 182.296875 207.429688 183.464844 208.363281 C 184.296875 209.023438 184.714844 210.699219 186.09375 210.203125 C 182.21875 205.492188 176.9375 202.195312 172.960938 197.59375 C 178.550781 200.238281 183.457031 205.832031 188.980469 209.414062 C 185.804688 204.710938 181.292969 201.34375 176.898438 197.855469 C 178.507812 196.699219 180.261719 199.203125 181.363281 200.222656 C 185.871094 201.585938 188.570312 206.140625 192.394531 207.3125 C 191.265625 204.941406 188.625 204.078125 187.667969 201.535156 C 191.535156 201.53125 192.671875 205.613281 195.546875 205.738281 C 195.355469 203.792969 191.695312 202.628906 192.394531 201.535156 C 195.332031 202.273438 196.285156 205 199.222656 205.738281 C 199.113281 204.796875 198.222656 204.636719 198.171875 203.636719 C 199.292969 203.789062 199.910156 203.445312 200.800781 203.371094 C 201.820312 203.75 202.007812 204.964844 203.164062 205.210938 C 204.042969 203.785156 202.015625 203.289062 202.113281 201.796875 C 204.449219 201.078125 206.144531 203.164062 207.367188 204.421875 C 208.714844 203.402344 206.667969 202.691406 206.839844 201.269531 C 208.539062 200.976562 208.75 202.164062 210.253906 202.058594 C 210.316406 201.683594 210.6875 201.617188 210.78125 201.269531 C 211.117188 200.113281 209.523438 200.195312 210.253906 199.433594 C 210.6875 198.828125 211.570312 197.96875 212.355469 197.855469 C 214.292969 197.585938 216.871094 196.734375 218.398438 196.28125 C 222.503906 195.0625 224.714844 200.832031 222.335938 203.636719 C 224.96875 203.890625 225.972656 205.777344 226.539062 208.101562 C 226.378906 209.078125 225.332031 209.167969 225.226562 210.203125 C 227.160156 212.4375 226.246094 218.46875 223.648438 219.394531 C 222.535156 219.457031 222.234375 218.707031 221.023438 218.871094 C 220.015625 219.347656 219.960938 220.78125 219.449219 221.757812 C 217.171875 223.515625 212.851562 224.671875 209.464844 223.070312 C 207.019531 226.855469 201.066406 226.382812 198.699219 223.597656 C 194.019531 227.242188 189.898438 221.492188 184.777344 222.546875 C 183 220.296875 181.113281 218.15625 178.472656 216.769531 C 178.523438 214.707031 177.636719 213.578125 177.160156 212.039062 C 179.695312 213.007812 180.605469 215.601562 183.203125 216.507812 C 180.09375 211.734375 174.703125 209.246094 172.695312 203.371094 C 176.742188 206.507812 180.414062 211.414062 184.777344 213.355469 C 180.820312 208.382812 175.640625 204.632812 171.910156 199.433594 C 174.523438 200.671875 176.820312 203.496094 179.523438 205.738281 Z M 175.058594 179.734375 C 175.570312 180.515625 176.28125 181.550781 175.058594 182.097656 C 174.828125 181.457031 173.59375 181.8125 173.75 180.785156 C 174.488281 180.738281 174.074219 179.535156 175.058594 179.734375 Z M 179.523438 219.394531 C 178.761719 220.304688 177.40625 218.691406 177.949219 218.34375 C 178.195312 218.976562 179.859375 218.183594 179.523438 219.394531 Z M 186.09375 150.320312 C 187.867188 149.992188 189.074219 149.097656 190.820312 148.742188 C 190.820312 150.886719 189.007812 151.746094 187.40625 150.84375 C 187.246094 151.648438 186.847656 152.210938 186.617188 152.945312 C 183.046875 153.355469 184.226562 157.203125 183.464844 159.511719 C 180.390625 155.394531 184.472656 153.277344 186.09375 150.320312 Z M 188.71875 224.910156 C 188.402344 225.3125 186.832031 225.800781 186.355469 225.171875 C 186.722656 224.863281 188.441406 223.613281 188.71875 224.910156 Z M 195.019531 146.378906 C 194.140625 147.335938 193.835938 148.867188 191.605469 148.480469 C 192.539062 147.113281 193.679688 147.125 193.707031 145.589844 C 193.738281 144.035156 190.941406 142.851562 191.871094 141.125 C 193.046875 142.75 194.289062 144.308594 195.019531 146.378906 Z M 193.972656 158.984375 C 194.207031 160.183594 191.984375 159.949219 192.132812 158.984375 C 192.949219 159.074219 193.386719 158.378906 193.972656 158.984375 Z M 207.890625 152.421875 C 203.339844 151.894531 199.519531 150.636719 195.546875 149.53125 C 195.535156 149.195312 195.210938 149.167969 195.285156 148.742188 C 199.042969 148.371094 204.871094 150.316406 207.890625 152.421875 Z M 218.398438 153.734375 C 216.425781 151.460938 216.578125 149.265625 214.71875 147.957031 C 213.460938 147.0625 211.402344 146.199219 209.46875 145.855469 C 204.515625 144.96875 195.371094 148.195312 195.546875 140.863281 C 202.199219 138.464844 206.945312 142.753906 213.40625 144.015625 C 213.746094 144.632812 213.273438 144.601562 213.933594 145.066406 C 216.710938 144.789062 217.472656 147.957031 219.972656 148.742188 C 219.355469 144.246094 215.007812 143.902344 212.09375 141.914062 C 215.835938 140.640625 218.769531 143.824219 221.285156 141.914062 C 221.695312 143.3125 221.695312 146.03125 221.285156 147.429688 C 222.816406 148.3125 222.523438 150.234375 224.703125 151.632812 C 225.398438 152.078125 226.667969 151.839844 227.328125 152.15625 C 231.246094 154.027344 231.246094 157.046875 228.640625 160.035156 C 225.203125 157.476562 221.058594 156.800781 218.398438 153.734375 Z M 208.152344 155.046875 C 205.210938 155.046875 200.519531 154.664062 198.699219 152.683594 C 202.003906 153.390625 204.9375 153.820312 208.152344 155.046875 Z M 213.933594 138.5 C 213.757812 139.515625 213.933594 139.433594 213.667969 140.074219 C 213.042969 140.234375 211.765625 139.746094 211.566406 140.339844 C 212.976562 140.582031 211.050781 141.164062 211.304688 141.914062 C 209.234375 141.09375 206.902344 140.542969 205.265625 139.289062 C 207.714844 137.761719 210.542969 139.441406 213.933594 138.5 Z M 213.933594 155.308594 C 213.8125 157.480469 211.554688 156.367188 210.78125 155.308594 Z M 217.871094 140.601562 C 216.835938 140.671875 216.046875 140.5 215.769531 139.8125 C 216.703125 139.84375 217.886719 139.625 217.871094 140.601562 Z M 221.023438 189.976562 C 225.378906 188.507812 228.410156 183.953125 226.539062 179.210938 C 229.246094 178.082031 229.769531 172.453125 227.328125 170.542969 C 228.84375 168.472656 228.316406 164.351562 230.214844 162.664062 C 230.121094 161.6875 230.617188 159.039062 232.054688 158.722656 C 233.257812 159.097656 234.226562 159.703125 235.207031 160.300781 C 236.601562 163.660156 238.703125 167.019531 238.882812 170.804688 C 238.679688 170.863281 238.367188 170.8125 238.359375 171.066406 C 240.925781 180.90625 234.171875 191.542969 226.539062 194.96875 C 226.691406 194.105469 228.304688 193.773438 227.589844 192.867188 C 226.457031 193.046875 226.125 194.03125 226.015625 195.230469 C 226.390625 195.292969 226.457031 195.664062 226.800781 195.757812 C 232.722656 194.324219 235.164062 189.410156 238.882812 185.777344 C 238.671875 187.5625 239.691406 188.121094 239.410156 189.980469 C 240.121094 190.21875 240.648438 190.394531 240.984375 189.714844 C 240.753906 191.757812 239.339844 192.625 238.097656 193.65625 C 237.617188 192.328125 237.402344 189.515625 235.996094 189.980469 C 236.589844 191.398438 236.148438 193.851562 237.046875 194.96875 C 236.871094 195.933594 236.078125 196.277344 235.46875 196.808594 C 235.300781 194.960938 235.101562 193.148438 234.15625 192.078125 C 233.613281 192.835938 233.773438 197.03125 234.945312 197.070312 C 234.300781 198.003906 233.589844 198.867188 232.316406 199.171875 C 231.761719 197.800781 231.53125 196.105469 230.214844 195.492188 C 230.460938 197.347656 230.726562 199.1875 232.054688 199.957031 C 230.625 201.246094 230.042969 198.921875 228.902344 198.382812 C 228.226562 199.609375 229.082031 200.570312 229.691406 201.269531 C 228.894531 201.632812 228.753906 201.144531 227.589844 201.269531 C 227.457031 202.097656 228.164062 202.296875 227.589844 202.847656 C 226.785156 202.65625 226.816406 203.300781 226.015625 203.109375 C 225.605469 202.730469 225.496094 202.050781 224.4375 202.324219 C 226.714844 198.164062 223.285156 194.417969 219.972656 193.394531 C 220.941406 192.574219 220.769531 190.886719 221.023438 189.980469 Z M 228.378906 142.4375 C 229.207031 142.566406 228.476562 141.136719 229.429688 141.386719 C 230.671875 142.070312 232.496094 142.171875 233.367188 143.226562 C 231.425781 145.089844 229.015625 143.417969 226.539062 142.964844 C 225.625 144.332031 227.148438 145.09375 228.113281 145.589844 C 229.777344 146.441406 233.039062 147.421875 234.945312 147.957031 C 239.261719 149.164062 243.832031 149.347656 248.601562 149.792969 C 249.054688 151.683594 251.355469 150.882812 251.753906 153.207031 C 249.539062 152.773438 247.488281 152.691406 245.449219 152.417969 C 241.601562 151.910156 238.792969 150.320312 235.46875 149.265625 C 231.621094 148.046875 227.40625 148.335938 224.175781 145.855469 C 224.566406 145.542969 225.347656 145.625 225.226562 144.804688 C 224.820312 144.421875 224.203125 144.25 223.648438 144.015625 C 224.046875 142.472656 222.765625 141.234375 223.386719 140.335938 C 224.910156 141.179688 226.554688 141.898438 228.378906 142.4375 Z M 236.78125 151.632812 C 232.121094 150.496094 227.863281 152.039062 225.488281 148.480469 C 228.765625 150.015625 233.992188 149.609375 236.78125 151.632812 Z M 229.429688 203.371094 C 230.261719 204.171875 227.296875 206.035156 227.0625 204.160156 C 228.03125 204.074219 228.519531 203.511719 229.429688 203.371094 Z M 229.429688 209.9375 C 229.644531 212.355469 229.722656 214.136719 228.113281 215.191406 C 227.15625 213.039062 228.480469 211.046875 229.429688 209.9375 Z M 231.53125 205.210938 C 232.308594 204.9375 232.808594 204.390625 233.367188 203.898438 C 233.445312 199.246094 237.472656 198.546875 240.195312 196.542969 C 240.855469 198.039062 242.527344 197.3125 243.609375 197.59375 C 247.824219 198.695312 249.800781 202.582031 253.066406 203.109375 C 252.351562 201.726562 251.195312 200.777344 250.441406 199.433594 C 250.828125 196.195312 256 195.0625 255.429688 192.605469 C 252.398438 193.773438 251.417969 196.996094 248.863281 198.644531 C 248.867188 195.910156 252.5625 194.65625 253.59375 192.078125 C 250.09375 192.34375 249.671875 195.683594 247.550781 197.332031 C 247.328125 196.941406 246.707031 196.953125 246.238281 196.808594 C 247.257812 194.324219 250.125 193.691406 250.703125 190.765625 C 247.574219 191.578125 246.863281 194.808594 244.398438 196.28125 C 242.996094 195.6875 241.738281 195.878906 240.460938 196.28125 C 242.109375 193.074219 245.835938 189.640625 246.761719 184.726562 C 247.75 179.492188 246.570312 170.386719 245.449219 167.128906 C 251.945312 166.1875 252.144531 173.238281 255.167969 176.582031 C 257.972656 177.363281 262.46875 176.964844 265.148438 177.109375 C 266.066406 178.027344 266.230469 179.703125 266.722656 181.046875 C 264.175781 181 261.097656 180.722656 259.109375 182.359375 C 258.210938 183.097656 258.519531 184.359375 257.269531 184.726562 C 257.542969 183.980469 257.542969 183.628906 257.269531 182.886719 C 256.507812 183.085938 256.585938 184.132812 255.429688 183.9375 C 256.242188 183.492188 257.015625 179.960938 255.167969 179.996094 C 254.089844 180.710938 255.199219 182.1875 255.167969 183.414062 C 252.554688 183.660156 254.847656 179.003906 253.328125 178.160156 C 251.695312 178.273438 252.59375 179.75 252.542969 181.046875 C 251.660156 181.738281 251.449219 180 250.703125 179.734375 C 251.667969 178.105469 252.21875 175.796875 250.964844 174.480469 C 250.351562 174.570312 249.832031 174.75 249.652344 175.269531 C 250.105469 175.867188 250.285156 176.738281 250.179688 177.894531 C 249.472656 178.183594 249.015625 177.339844 248.339844 178.421875 C 248.765625 181.199219 252.207031 184.21875 255.429688 184.199219 C 254.378906 186.011719 254.96875 187.535156 255.167969 189.976562 C 256.921875 191.050781 259.078125 191.949219 259.371094 193.917969 C 260.128906 199.054688 254 198.316406 253.066406 201.796875 C 254.128906 202.574219 255.582031 202.957031 256.21875 204.160156 C 256.132812 206.003906 255.695312 207.902344 254.378906 209.152344 C 250.453125 208.769531 247.925781 210.738281 244.660156 210.203125 C 242.3125 206.414062 233.207031 205.390625 231.003906 209.9375 C 230.351562 208.511719 231.988281 207.769531 231.53125 205.210938 Z M 236.519531 208.886719 C 234.523438 209.367188 232.675781 212.710938 231.53125 212.300781 C 232.308594 210.566406 234.398438 207.558594 236.519531 208.886719 Z M 232.84375 153.207031 C 241.078125 156.960938 251.589844 159.304688 259.371094 163.449219 C 260.644531 164.128906 262.9375 165.011719 262.785156 166.863281 C 260.980469 167.558594 259.617188 165.550781 258.054688 164.761719 C 250.472656 160.945312 240.390625 158.433594 232.578125 154.519531 C 232.621094 153.867188 232.167969 153.707031 232.054688 153.207031 C 232.429688 153.105469 232.496094 152.890625 232.84375 153.207031 Z M 240.195312 159.246094 C 243.417969 161.019531 247.265625 162.554688 250.964844 163.976562 C 254.464844 165.320312 258.539062 166.425781 260.15625 169.230469 C 252.023438 165.019531 242.609375 162.089844 234.679688 157.671875 C 236.921875 157.65625 238.460938 159.621094 240.195312 159.246094 Z M 239.144531 152.683594 C 238.402344 152.375 237.410156 152.316406 237.046875 151.632812 C 237.972656 151.753906 238.679688 152.097656 239.144531 152.683594 Z M 238.882812 184.726562 C 241.28125 181.589844 241.277344 176.496094 240.984375 171.855469 C 240.796875 168.859375 239.816406 166.128906 239.933594 163.976562 C 242.429688 166.757812 244.667969 170.527344 244.660156 175.796875 C 244.652344 180.90625 243.25 186.347656 240.984375 189.453125 C 240.902344 187.257812 239.980469 185.902344 238.882812 184.726562 Z M 246.761719 165.550781 C 246.101562 165.855469 244.960938 165.675781 244.921875 166.601562 C 243.648438 166.039062 243.046875 164.804688 242.296875 163.710938 C 243.367188 163.753906 246.039062 164.304688 246.761719 165.550781 Z M 254.90625 149.265625 C 255.105469 150.691406 254.582031 151.394531 254.640625 152.683594 C 253.203125 152.1875 251.421875 150.65625 251.753906 149.265625 C 252.429688 149.804688 253.300781 149.074219 254.90625 149.265625 Z M 254.90625 149.265625 " fill-opacity="1" fill-rule="nonzero"/></g></svg>