<svg xmlns="http://www.w3.org/2000/svg" xmlns:xlink="http://www.w3.org/1999/xlink" width="400" zoomAndPan="magnify" viewBox="0 0 300 299.999988" height="400" preserveAspectRatio="xMidYMid meet" version="1.0"><defs><clipPath id="405cee7f44"><path d="M 31 30.898438 L 270.75 30.898438 L 270.75 270 L 31 270 Z M 31 30.898438 " clip-rule="nonzero"/></clipPath></defs><g clip-path="url(#405cee7f44)"><path fill="currentColor" d="M 237.558594 177.886719 C 240.570312 172.773438 242.882812 167.410156 243.628906 161.457031 C 243.96875 158.261719 243.691406 155.121094 242.796875 152.035156 C 242.320312 150.40625 241.644531 148.867188 240.765625 147.417969 C 240.757812 147.261719 240.710938 147.121094 240.625 146.996094 C 240.390625 146.644531 240.148438 146.292969 239.902344 145.945312 C 239.421875 145.144531 238.9375 144.335938 238.484375 143.507812 C 238.613281 143.359375 238.707031 143.1875 238.765625 142.996094 C 242.027344 132.671875 241.214844 118.222656 231.6875 111.398438 C 232.171875 100.113281 222.59375 91.507812 212.496094 88.519531 C 211.121094 85.015625 209.921875 81.40625 207.722656 78.324219 C 205.765625 75.667969 203.347656 73.53125 200.464844 71.921875 C 194.609375 68.503906 187.539062 67.746094 180.96875 66.65625 C 180.90625 66.558594 180.832031 66.476562 180.742188 66.402344 C 174.839844 61.039062 168.851562 57.058594 160.613281 56.898438 C 152.859375 56.746094 145.382812 60.34375 138.476562 63.507812 C 132.125 58.539062 123.300781 53.785156 115.769531 58.96875 C 109.632812 63.191406 107.855469 71.859375 107.046875 78.855469 C 105.636719 79.632812 104.332031 80.554688 103.136719 81.628906 C 89.953125 76.695312 76.847656 85.667969 77.058594 99.730469 C 73.207031 102.082031 70.457031 105.5 68.386719 109.496094 C 66.171875 113.785156 64.125 118.238281 62.335938 122.726562 C 58.785156 131.640625 58.171875 140.886719 63.945312 148.75 C 56.5 155.472656 47.734375 164.042969 49.300781 175.023438 C 50.644531 184.441406 60.792969 192.035156 70.199219 192.265625 C 72.175781 201.214844 78.882812 210.472656 88.046875 212.804688 C 88.0625 212.867188 88.082031 212.925781 88.105469 212.984375 C 89.019531 215.292969 90.15625 217.492188 91.511719 219.574219 C 92.867188 221.65625 94.414062 223.582031 96.15625 225.355469 C 97.902344 227.128906 99.800781 228.707031 101.863281 230.097656 C 103.921875 231.488281 106.097656 232.660156 108.394531 233.613281 C 112.957031 235.515625 117.714844 236.511719 122.65625 236.601562 C 125.964844 236.6875 130.027344 237.242188 132.992188 235.445312 C 135.746094 239.886719 138.539062 244.257812 143.21875 246.890625 C 147.566406 249.328125 153 249.496094 157.828125 248.925781 C 162.773438 248.335938 167.757812 246.675781 171.726562 243.609375 C 176.058594 240.261719 177.753906 235.136719 178.476562 229.917969 C 184.503906 231.445312 191.242188 231.972656 197.199219 229.960938 C 197.222656 229.972656 197.242188 229.984375 197.269531 229.996094 C 205.578125 233.292969 215.011719 225.65625 216.210938 217.414062 C 216.214844 217.359375 216.21875 217.304688 216.222656 217.246094 C 225.34375 216.121094 233.808594 211.46875 238.957031 203.71875 C 243.933594 196.230469 244.234375 184.46875 237.558594 177.886719 Z M 214.710938 214.820312 C 213.175781 214.910156 211.671875 214.742188 210.195312 214.316406 C 210.628906 213.351562 211.140625 212.429688 211.726562 211.546875 C 212.113281 211.292969 212.492188 211.023438 212.855469 210.742188 C 213.074219 210.746094 213.265625 210.679688 213.4375 210.539062 C 213.605469 210.402344 213.707031 210.226562 213.746094 210.011719 C 214.125 209.679688 214.496094 209.335938 214.847656 208.96875 C 214.984375 208.835938 215.0625 208.671875 215.089844 208.484375 C 215.734375 207.710938 216.316406 206.890625 216.886719 206.066406 C 216.921875 206.261719 217.015625 206.421875 217.171875 206.546875 C 217.328125 206.671875 217.503906 206.726562 217.703125 206.714844 C 223.839844 206.621094 229.644531 204.570312 233.441406 199.578125 C 237.390625 194.394531 237.695312 186.4375 232.972656 181.71875 C 232.957031 181.703125 232.941406 181.691406 232.921875 181.683594 C 233.617188 180.976562 234.269531 180.230469 234.875 179.449219 C 234.964844 179.503906 235.054688 179.550781 235.152344 179.585938 C 241.386719 185.40625 240.65625 195.480469 236.457031 202.261719 C 232.082031 209.335938 223.675781 213.574219 215.585938 214.429688 C 215.25 214.460938 214.957031 214.589844 214.710938 214.820312 Z M 198.949219 227.511719 C 201.707031 226.152344 204.277344 224.582031 206.246094 222.109375 C 207.71875 220.261719 208.578125 218.074219 209.496094 215.910156 C 210.777344 216.316406 212.09375 216.53125 213.441406 216.558594 C 213.433594 216.589844 213.421875 216.613281 213.417969 216.644531 C 212.472656 223.136719 205.632812 229.394531 198.949219 227.511719 Z M 177.261719 227.03125 C 173.511719 226.585938 169.851562 225.746094 166.28125 224.511719 C 165.960938 224.339844 165.640625 224.160156 165.316406 223.996094 C 165.097656 223.875 164.867188 223.859375 164.628906 223.945312 C 160.394531 222.441406 156.257812 220.617188 152.402344 218.90625 C 148.386719 217.121094 144.519531 215.050781 140.808594 212.691406 C 137.574219 210.640625 134.363281 208.574219 131.792969 205.75 C 137.582031 207.015625 143.425781 207.3125 149.316406 206.636719 C 149.324219 206.796875 149.378906 206.933594 149.476562 207.058594 C 152.613281 211.234375 158.398438 212.085938 162.898438 214.117188 C 166.363281 215.683594 169.597656 217.734375 172.859375 219.671875 C 175.777344 221.40625 178.789062 222.984375 181.769531 224.609375 C 181.773438 224.917969 181.910156 225.148438 182.179688 225.296875 C 186.191406 227.769531 190.921875 227.457031 194.78125 224.847656 C 197.980469 222.679688 198.503906 218.617188 199.261719 215.144531 C 199.277344 215.078125 199.28125 215.011719 199.28125 214.945312 C 202.605469 215.039062 205.792969 214.425781 208.84375 213.109375 C 207.765625 215.257812 206.933594 217.511719 205.773438 219.695312 C 203.820312 223.378906 199.855469 225.222656 196.253906 226.886719 C 196.03125 226.976562 195.890625 227.132812 195.824219 227.359375 C 190.332031 229.03125 184.238281 228.453125 178.761719 227.011719 C 178.429688 226.914062 178.109375 226.9375 177.800781 227.078125 C 177.621094 227.035156 177.441406 227.019531 177.261719 227.03125 Z M 144.675781 244.390625 C 140.296875 242.226562 137.75 237.640625 135.28125 233.65625 C 134.917969 233.527344 134.6875 233.277344 134.582031 232.90625 C 136.839844 232.363281 139.207031 232.542969 141.460938 232.003906 C 141.46875 232.039062 141.472656 232.070312 141.484375 232.105469 C 143.414062 238.289062 148.566406 244.308594 155.5625 243.046875 C 163.5625 241.605469 169.03125 235.195312 169.394531 227.066406 C 171.476562 227.707031 173.597656 228.207031 175.75 228.554688 C 175.175781 233.796875 173.597656 238.769531 169.140625 241.945312 C 165.660156 244.417969 161.253906 245.621094 157.058594 246.125 C 152.878906 246.625 148.492188 246.28125 144.675781 244.390625 Z M 91.59375 213.125 C 91.304688 212.726562 91.023438 212.332031 90.742188 211.929688 C 90.726562 211.902344 90.710938 211.878906 90.691406 211.851562 C 88.578125 208.863281 86.820312 205.679688 85.417969 202.300781 C 84.015625 198.921875 83.003906 195.429688 82.382812 191.824219 C 81.035156 183.347656 81.273438 174.921875 83.089844 166.535156 C 83.765625 168.398438 84.558594 170.210938 85.46875 171.96875 C 86.777344 174.535156 88.210938 177.023438 89.765625 179.441406 C 89.625 179.609375 89.566406 179.800781 89.59375 180.015625 C 90.660156 193.671875 96.015625 209.003906 106.542969 218.265625 C 109.023438 220.390625 111.738281 222.152344 114.6875 223.558594 C 117.636719 224.960938 120.714844 225.957031 123.929688 226.546875 C 130.394531 227.808594 138.476562 228.527344 144.109375 224.527344 C 144.121094 224.519531 144.132812 224.507812 144.144531 224.496094 C 146.417969 225.296875 148.714844 226.042969 151.046875 226.765625 C 148.617188 228.546875 145.53125 229.210938 142.691406 230.238281 C 142.464844 230.007812 142.199219 229.953125 141.898438 230.074219 C 139.15625 231.011719 136.179688 230.542969 133.414062 231.425781 C 133.105469 231.511719 132.914062 231.714844 132.835938 232.027344 C 132.609375 232.101562 132.410156 232.222656 132.242188 232.394531 C 129.730469 234.90625 124.222656 233.800781 121.015625 233.648438 C 116.597656 233.382812 112.378906 232.320312 108.363281 230.460938 C 106.535156 229.636719 104.796875 228.65625 103.144531 227.523438 C 101.488281 226.386719 99.949219 225.113281 98.523438 223.703125 C 97.097656 222.296875 95.804688 220.769531 94.648438 219.132812 C 93.492188 217.492188 92.492188 215.765625 91.644531 213.949219 C 91.726562 213.820312 91.765625 213.679688 91.757812 213.527344 C 91.746094 213.375 91.695312 213.242188 91.59375 213.125 Z M 71.984375 189.425781 C 71.832031 189.300781 71.65625 189.234375 71.460938 189.222656 C 71.261719 189.210938 71.082031 189.261719 70.914062 189.371094 C 62.457031 189.46875 52.910156 182.535156 52.070312 173.921875 C 51.171875 164.710938 58.695312 157.398438 65.050781 151.636719 C 64.890625 153.578125 65.078125 155.59375 65.105469 157.476562 C 58.90625 162.269531 53.96875 167.824219 53.5625 175.921875 C 53.386719 176.09375 53.3125 176.300781 53.347656 176.546875 C 53.753906 181.300781 57.992188 184.65625 62.46875 185.289062 C 64.445312 185.578125 69.84375 186.714844 71.972656 185.210938 C 72.953125 186.6875 74.371094 187.910156 75.445312 189.320312 C 75.503906 189.398438 75.558594 189.476562 75.613281 189.554688 C 75.566406 189.558594 75.507812 189.558594 75.429688 189.558594 C 75.054688 189.5625 74.675781 189.578125 74.296875 189.585938 C 73.757812 189.59375 72.417969 189.773438 71.984375 189.425781 Z M 79.339844 101.5625 C 81.363281 100.386719 83.480469 99.433594 85.699219 98.703125 C 85.96875 98.828125 86.222656 98.804688 86.460938 98.632812 C 86.632812 98.527344 86.808594 98.433594 86.988281 98.347656 C 87 98.34375 87.015625 98.339844 87.027344 98.335938 C 87.15625 98.308594 87.273438 98.25 87.378906 98.164062 C 88.5 97.746094 89.65625 97.554688 90.855469 97.585938 C 90.332031 98.609375 89.863281 99.667969 89.410156 100.726562 C 88.109375 101.40625 86.671875 101.792969 85.332031 102.414062 C 83.042969 103.574219 80.875 104.929688 78.832031 106.480469 C 74.800781 109.351562 72.972656 113.269531 70.046875 117.109375 C 69.980469 117.183594 69.933594 117.269531 69.90625 117.363281 C 69.878906 117.460938 69.871094 117.554688 69.882812 117.652344 C 69.894531 117.75 69.929688 117.84375 69.980469 117.925781 C 70.035156 118.011719 70.101562 118.082031 70.183594 118.136719 C 69.261719 121.253906 69.800781 124.558594 68.992188 127.730469 C 68.917969 127.992188 68.964844 128.230469 69.128906 128.445312 C 68.582031 131.644531 68.609375 135.152344 70.296875 138 C 70.914062 139.378906 71.761719 140.597656 72.847656 141.652344 C 75.074219 143.882812 77.285156 146.128906 79.433594 148.429688 C 79.554688 148.5625 79.699219 148.648438 79.871094 148.6875 C 79.921875 149.683594 79.976562 150.675781 80.042969 151.667969 C 80.167969 153.472656 80.371094 155.265625 80.652344 157.042969 C 80.507812 156.992188 80.355469 156.980469 80.203125 157.007812 C 77.933594 157.378906 74.90625 154.859375 73.171875 153.632812 C 71.105469 152.164062 69.382812 150.300781 67.453125 148.675781 C 67.4375 148.371094 67.285156 148.164062 66.996094 148.058594 C 66.941406 147.953125 66.878906 147.851562 66.800781 147.761719 C 60.792969 140.4375 61.949219 131.785156 65.125 123.496094 C 66.667969 119.464844 68.671875 115.613281 70.527344 111.722656 C 72.429688 107.722656 74.980469 104.28125 78.851562 102.027344 C 79.050781 101.910156 79.214844 101.757812 79.339844 101.5625 Z M 85.53125 86.503906 C 90.105469 82.503906 96.378906 82.339844 101.839844 84.234375 C 101.351562 84.851562 100.921875 85.507812 100.546875 86.199219 C 100.53125 86.214844 100.519531 86.226562 100.503906 86.246094 C 100.273438 86.171875 100.058594 86.203125 99.855469 86.335938 C 97.160156 87.960938 94.171875 88.839844 91.550781 90.632812 C 89.132812 92.332031 87.105469 94.410156 85.464844 96.867188 C 85.449219 96.902344 85.433594 96.933594 85.421875 96.96875 C 83.519531 97.558594 81.695312 98.328125 79.941406 99.269531 C 79.976562 94.328125 81.726562 89.835938 85.53125 86.503906 Z M 109.636719 80.496094 C 109.671875 80.433594 109.695312 80.363281 109.726562 80.296875 C 114.378906 76.894531 119.792969 75.058594 125.449219 73.957031 C 131.214844 72.785156 137.035156 72.339844 142.914062 72.625 C 143.144531 72.769531 143.382812 72.785156 143.628906 72.671875 L 143.640625 72.671875 C 143.746094 72.777344 143.871094 72.851562 144.015625 72.890625 C 146.191406 73.488281 148.320312 74.222656 150.402344 75.09375 C 145.46875 77.425781 141.042969 80.492188 137.128906 84.292969 L 137.117188 84.292969 C 134.367188 84.277344 131.628906 84.445312 128.902344 84.800781 L 128.875 84.773438 C 128.789062 84.792969 128.710938 84.820312 128.628906 84.839844 C 124.074219 85.433594 119.78125 86.832031 115.75 89.03125 C 109.589844 92.425781 104.703125 97.765625 101.066406 103.722656 C 100.925781 103.835938 100.84375 103.984375 100.816406 104.164062 C 100.769531 104.28125 100.753906 104.402344 100.769531 104.527344 C 100.761719 104.589844 100.753906 104.648438 100.746094 104.707031 C 100.730469 104.730469 100.714844 104.75 100.699219 104.773438 C 97.429688 110.328125 94.9375 116.210938 93.222656 122.425781 C 91.507812 128.640625 90.628906 134.972656 90.589844 141.417969 C 90.578125 142.230469 90.589844 143.039062 90.613281 143.839844 C 90.503906 144.082031 90.515625 144.316406 90.652344 144.542969 C 90.886719 149.695312 91.835938 154.714844 92.878906 159.789062 C 93.765625 164.09375 94.695312 169.042969 97.796875 172.371094 C 97.507812 176.589844 97.257812 180.882812 97.902344 185.078125 C 97.996094 185.65625 98.050781 186.171875 98.125 186.636719 C 93.476562 182.597656 90.40625 177.171875 87.398438 171.855469 C 83.71875 165.351562 82.214844 158.074219 81.710938 150.683594 C 81.335938 143.828125 81.410156 136.972656 81.929688 130.125 C 82.371094 123.089844 83.617188 115.953125 86.816406 109.617188 C 87.003906 109.488281 87.125 109.316406 87.1875 109.101562 C 87.25 108.886719 87.238281 108.675781 87.148438 108.472656 C 87.5625 106.230469 89.054688 103.871094 90.472656 102.183594 C 90.613281 102.109375 90.71875 102.003906 90.789062 101.859375 C 90.847656 101.777344 90.890625 101.683594 90.914062 101.585938 C 91.480469 100.207031 92.117188 98.863281 92.832031 97.554688 C 93.054688 97.496094 93.222656 97.367188 93.332031 97.164062 C 93.589844 96.570312 93.894531 96 94.242188 95.453125 C 94.570312 95.03125 94.929688 94.632812 95.316406 94.257812 C 95.507812 94.089844 95.59375 93.875 95.578125 93.621094 C 97.28125 91.582031 99.398438 89.867188 101.269531 87.957031 C 101.527344 87.914062 101.710938 87.769531 101.8125 87.527344 C 101.863281 87.421875 101.917969 87.320312 101.96875 87.222656 L 102.0625 87.125 C 102.1875 86.988281 102.261719 86.832031 102.285156 86.652344 C 102.703125 85.957031 103.179688 85.300781 103.710938 84.6875 C 104.0625 84.660156 104.355469 84.515625 104.59375 84.253906 C 105.503906 83.320312 106.523438 82.519531 107.640625 81.847656 C 108.285156 81.453125 109.238281 81.175781 109.636719 80.496094 Z M 140.035156 65.960938 C 141.121094 65.464844 142.207031 64.96875 143.300781 64.484375 C 143.375 64.457031 143.445312 64.425781 143.515625 64.402344 C 143.597656 64.378906 143.675781 64.339844 143.746094 64.289062 C 148.539062 62.183594 153.46875 60.339844 158.710938 59.863281 C 166.65625 59.132812 172.710938 63.074219 178.339844 68.125 C 177.75 68.125 177.15625 68.140625 176.5625 68.195312 C 173.839844 68.445312 171.21875 69.429688 168.566406 70.113281 C 167.757812 68.890625 165.242188 68.089844 164.230469 67.601562 C 161.257812 66.285156 158.210938 65.171875 155.085938 64.269531 C 154.960938 64.226562 154.835938 64.21875 154.703125 64.242188 C 154.609375 64.230469 154.519531 64.242188 154.425781 64.269531 C 150.046875 65.476562 146.25 67.679688 143.03125 70.886719 C 139.828125 70.714844 136.625 70.789062 133.433594 71.105469 C 134.972656 69.507812 136.667969 68.089844 138.515625 66.855469 C 138.832031 66.867188 139.128906 66.792969 139.40625 66.628906 C 139.679688 66.46875 139.890625 66.246094 140.035156 65.960938 Z M 184.972656 70.21875 C 189.042969 70.90625 193.09375 71.730469 196.890625 73.359375 C 199.773438 74.609375 202.265625 76.402344 204.371094 78.738281 C 206.757812 81.347656 207.980469 84.742188 209.222656 88.019531 C 201.589844 80.980469 190.460938 78.40625 180.257812 79.042969 C 180.15625 79.007812 180.058594 78.960938 179.953125 78.925781 C 179.808594 78.867188 179.660156 78.855469 179.511719 78.890625 C 179.359375 78.925781 179.230469 79.003906 179.128906 79.121094 C 165.898438 80.296875 154.828125 88.597656 144.582031 96.363281 C 144.421875 96.484375 144.3125 96.640625 144.253906 96.828125 C 144.195312 97.019531 144.199219 97.210938 144.265625 97.398438 C 140.886719 98.332031 137.671875 99.660156 134.617188 101.382812 C 131.566406 103.105469 128.765625 105.167969 126.222656 107.578125 C 129.238281 92.988281 139.460938 81.574219 153.183594 75.730469 C 153.460938 75.632812 153.609375 75.441406 153.632812 75.152344 C 157.746094 73.050781 162.234375 72.273438 166.796875 71.859375 C 167.019531 72.105469 167.292969 72.191406 167.613281 72.117188 C 170.972656 71.4375 174.171875 70.148438 177.601562 69.832031 C 180.058594 69.605469 182.511719 70.074219 184.972656 70.21875 Z M 209.765625 90.980469 C 209.902344 91.144531 210.078125 91.234375 210.292969 91.25 C 210.503906 91.269531 210.691406 91.203125 210.851562 91.0625 C 220.121094 93.511719 229.332031 101.132812 228.789062 111.570312 C 228.777344 111.726562 228.792969 111.878906 228.835938 112.027344 C 227.820312 118.152344 226.195312 124.121094 223.234375 129.625 C 220.847656 127.949219 218.367188 126.417969 215.796875 125.039062 C 218.613281 123.375 220.1875 119.203125 220.835938 116.203125 C 221.550781 112.894531 221.304688 108.972656 219.144531 106.214844 C 216.398438 102.710938 212.242188 102.082031 208.101562 101.304688 C 202.445312 100.238281 196.667969 99.484375 190.90625 99.910156 C 190.875 99.914062 190.84375 99.917969 190.8125 99.925781 C 186.328125 97.890625 181.652344 96.488281 176.789062 95.71875 C 169.972656 94.730469 163.140625 94.613281 156.296875 95.367188 C 164.78125 92.574219 173.46875 90.765625 182.363281 89.941406 C 187.464844 89.511719 192.574219 89.464844 197.683594 89.808594 C 197.738281 89.816406 197.792969 89.820312 197.847656 89.820312 C 198.339844 89.851562 198.835938 89.882812 199.328125 89.917969 C 202.035156 90.128906 204.707031 90.605469 207.414062 90.789062 C 208.171875 90.839844 208.933594 90.871094 209.699219 90.910156 C 209.71875 90.933594 209.742188 90.953125 209.765625 90.980469 Z M 230.257812 113.921875 C 238.335938 119.859375 238.792969 132.4375 236.226562 141.390625 C 233.5625 138.488281 230.742188 135.753906 227.761719 133.179688 C 226.757812 132.296875 225.714844 131.460938 224.652344 130.65625 C 227.414062 125.378906 229.28125 119.800781 230.257812 113.921875 Z M 240.824219 160.46875 C 240.585938 165.632812 238.410156 170.574219 235.851562 175.070312 C 234.433594 177.378906 232.746094 179.464844 230.777344 181.328125 C 230.621094 181.460938 230.53125 181.625 230.507812 181.828125 C 229.308594 183.203125 227.917969 184.34375 226.328125 185.246094 C 226.4375 182.574219 226.609375 179.90625 226.78125 177.234375 C 235.289062 173.886719 239.453125 163.292969 236.578125 154.855469 C 233.679688 146.367188 224.910156 140.746094 217.5625 136.464844 C 216.347656 134.816406 215.019531 133.265625 213.574219 131.816406 C 213.648438 129.730469 213.507812 127.660156 213.148438 125.601562 C 217.949219 128.023438 222.410156 130.957031 226.535156 134.40625 C 228.675781 136.324219 230.707031 138.351562 232.628906 140.488281 C 233.539062 141.449219 234.46875 142.386719 235.375 143.335938 C 235.359375 143.613281 235.414062 143.871094 235.539062 144.117188 C 236.863281 146.742188 238.644531 149.003906 239.679688 151.785156 C 240.652344 154.601562 241.035156 157.496094 240.824219 160.46875 Z M 165.445312 226.027344 C 166.148438 226.4375 166.890625 226.765625 167.667969 227.011719 C 167.648438 227.8125 167.570312 228.605469 167.421875 229.394531 C 167.277344 230.183594 167.070312 230.957031 166.800781 231.710938 C 166.527344 232.464844 166.199219 233.195312 165.8125 233.894531 C 165.421875 234.597656 164.980469 235.261719 164.484375 235.890625 C 163.988281 236.523438 163.445312 237.105469 162.855469 237.648438 C 162.261719 238.191406 161.632812 238.683594 160.960938 239.121094 C 160.292969 239.5625 159.589844 239.945312 158.859375 240.269531 C 158.125 240.597656 157.371094 240.859375 156.597656 241.066406 C 153.675781 241.894531 150.464844 241.679688 148.203125 239.496094 C 145.949219 237.347656 144.292969 234.808594 143.234375 231.878906 C 145.242188 231.140625 147.308594 230.5625 149.285156 229.746094 C 150.75 229.144531 152.039062 227.710938 153.460938 227.507812 L 153.464844 227.507812 C 153.652344 227.570312 153.832031 227.5625 154.015625 227.492188 C 154.078125 227.5 154.140625 227.503906 154.199219 227.511719 C 157.550781 228.140625 162.398438 227.808594 165.445312 226.027344 Z M 153.15625 225.449219 C 152.996094 225.398438 152.839844 225.398438 152.683594 225.453125 C 146.265625 223.492188 140.148438 221.433594 134.058594 218.46875 C 127.460938 215.332031 121.292969 211.5 115.558594 206.972656 C 115.433594 206.871094 115.289062 206.804688 115.128906 206.777344 C 113.730469 204.96875 112.355469 203.136719 110.976562 201.308594 C 109.105469 198.828125 106.722656 196.402344 105.992188 193.328125 C 113.210938 198.011719 120.691406 202.382812 128.9375 204.964844 C 128.96875 205.023438 129 205.078125 129.039062 205.128906 C 134.214844 212.007812 142.988281 216.429688 150.617188 219.992188 C 154.785156 221.9375 159.101562 223.554688 163.433594 225.078125 C 160.371094 226.320312 155.960938 226.460938 153.15625 225.449219 Z M 129.671875 225.648438 C 127.339844 225.421875 125.03125 225.046875 122.746094 224.535156 C 118.484375 223.582031 114.550781 221.878906 110.945312 219.417969 C 110.925781 219.375 110.902344 219.332031 110.875 219.292969 C 107.757812 214.746094 104.785156 210.605469 102.765625 205.414062 C 100.796875 200.214844 99.8125 194.835938 99.820312 189.277344 C 101.234375 190.207031 102.648438 191.136719 104.0625 192.066406 C 104.28125 194.96875 105.707031 197.351562 107.464844 199.625 C 109.859375 202.722656 112.199219 205.859375 114.613281 208.941406 C 119.246094 214.851562 123.960938 220.753906 129.671875 225.648438 Z M 131.007812 203.761719 C 123.050781 201.71875 115.785156 197.480469 108.894531 193.128906 C 107.207031 192.066406 105.542969 190.96875 103.875 189.875 C 102.058594 188.679688 100.175781 187.945312 99.738281 185.648438 C 98.835938 180.90625 99.289062 175.921875 99.617188 171.148438 C 99.621094 171.125 99.617188 171.105469 99.617188 171.085938 C 99.738281 170.933594 99.804688 170.761719 99.808594 170.566406 C 99.964844 168.21875 100.472656 165.949219 101.332031 163.757812 C 101.628906 168.125 102.320312 172.507812 104.058594 176.519531 C 105.671875 180.214844 107.996094 183.386719 111.03125 186.039062 C 111.144531 186.363281 111.371094 186.558594 111.707031 186.621094 C 112.742188 187.488281 113.824219 188.296875 114.949219 189.039062 C 119.636719 192.132812 125.167969 193.757812 130.625 194.839844 C 136.460938 195.996094 142.589844 196.851562 148.511719 195.949219 C 155.777344 198.480469 163.523438 200.371094 171.234375 199.285156 C 171.886719 199.195312 172.539062 199.078125 173.1875 198.953125 C 171.4375 199.703125 169.5625 200.238281 167.855469 200.835938 C 164.089844 202.125 160.25 203.144531 156.339844 203.898438 C 148.058594 205.535156 139.230469 205.871094 131.007812 203.761719 Z M 130.5 92.4375 C 128.296875 95.890625 126.613281 99.582031 125.445312 103.507812 C 123.800781 104.957031 121.8125 107.546875 119.90625 108.941406 C 117.246094 109.429688 114.777344 110.40625 112.496094 111.867188 C 111.753906 108.253906 111.242188 104.613281 110.964844 100.9375 C 116.828125 96.808594 123.21875 92.898438 130.5 92.4375 Z M 128.613281 90.890625 C 129.019531 89.609375 128.644531 87.6875 129.167969 86.480469 C 131.242188 86.222656 133.328125 86.078125 135.417969 86.046875 C 134.074219 87.503906 132.832031 89.042969 131.6875 90.664062 C 130.660156 90.671875 129.632812 90.75 128.613281 90.890625 Z M 196.074219 87.96875 C 194.683594 87.902344 193.296875 87.863281 191.90625 87.855469 C 191.917969 87.628906 191.855469 87.425781 191.710938 87.246094 C 189.539062 84.449219 186.882812 82.226562 183.75 80.578125 C 186.332031 80.585938 188.894531 80.832031 191.433594 81.320312 C 191.4375 81.328125 191.441406 81.332031 191.449219 81.339844 C 193.410156 83.242188 194.609375 85.699219 196.074219 87.96875 Z M 194.289062 81.980469 C 199.300781 83.257812 203.769531 85.582031 207.695312 88.945312 C 206.308594 88.875 204.929688 88.800781 203.605469 88.628906 C 201.828125 88.394531 200.042969 88.226562 198.253906 88.097656 C 196.835938 86.117188 195.738281 83.921875 194.289062 81.980469 Z M 189.976562 87.867188 C 188.140625 87.886719 186.304688 87.949219 184.46875 88.050781 C 182.316406 88.179688 180.167969 88.375 178.03125 88.644531 C 178.0625 88.535156 178.074219 88.425781 178.066406 88.3125 C 178.054688 88.199219 178.019531 88.09375 177.964844 87.996094 C 177.910156 87.898438 177.835938 87.8125 177.746094 87.746094 C 177.65625 87.675781 177.558594 87.628906 177.445312 87.601562 C 174.039062 86.679688 171.058594 84.679688 167.679688 83.871094 C 170.640625 82.632812 173.703125 81.726562 176.863281 81.152344 C 177.855469 80.980469 178.867188 80.847656 179.890625 80.75 C 181.859375 81.460938 183.703125 82.417969 185.414062 83.625 C 187.125 84.832031 188.644531 86.246094 189.976562 87.867188 Z M 175.890625 88.929688 C 166.328125 90.375 157.050781 92.886719 148.066406 96.46875 C 147.996094 96.496094 147.933594 96.53125 147.871094 96.578125 C 147.808594 96.589844 147.746094 96.597656 147.683594 96.609375 C 147.417969 96.660156 147.160156 96.71875 146.898438 96.773438 C 152.53125 92.519531 158.335938 88.300781 164.660156 85.230469 C 164.730469 85.246094 164.804688 85.257812 164.878906 85.257812 C 168.886719 85.261719 172.210938 87.65625 175.890625 88.929688 Z M 147.367188 98.441406 C 156.148438 96.632812 165 96.183594 173.917969 97.089844 C 191.746094 98.832031 211.453125 110.851562 211.851562 130.207031 C 210.675781 129.179688 209.429688 128.246094 208.117188 127.40625 C 205.625 125.820312 203.039062 124.414062 200.355469 123.1875 C 200.316406 123.085938 200.265625 122.996094 200.195312 122.914062 C 196.628906 118.867188 192.433594 115.632812 187.617188 113.210938 C 188.46875 110.601562 189.09375 107.941406 189.492188 105.226562 C 189.617188 104.351562 189.136719 103.339844 188.101562 103.398438 C 180.847656 103.773438 173.832031 101.15625 166.5625 101.6875 C 164.128906 101.875 161.769531 102.398438 159.484375 103.257812 C 157.199219 104.113281 155.078125 105.273438 153.125 106.734375 C 146.8125 107.539062 140.746094 109.695312 136.050781 113.960938 C 135.757812 113.902344 135.523438 113.996094 135.347656 114.234375 C 130.144531 120.507812 128.324219 128.445312 127.824219 136.421875 C 127.714844 138.21875 127.675781 140.007812 127.714844 141.785156 C 125.621094 143.167969 123.695312 144.757812 121.933594 146.546875 C 121.425781 144.992188 120.933594 143.429688 120.472656 141.851562 C 120.621094 141.679688 120.675781 141.484375 120.632812 141.261719 C 119.273438 131.070312 119.238281 119.726562 125.230469 110.972656 C 125.289062 110.933594 125.34375 110.886719 125.390625 110.835938 C 128.328125 107.691406 131.671875 105.058594 135.421875 102.945312 C 139.171875 100.828125 143.152344 99.328125 147.367188 98.441406 Z M 194.035156 101.527344 C 196.347656 101.535156 198.652344 101.675781 200.949219 101.953125 C 200.808594 103.277344 200.738281 104.605469 200.742188 105.9375 C 198.632812 104.273438 196.398438 102.804688 194.035156 101.527344 Z M 212.242188 115.296875 C 212.210938 114.050781 212.710938 114.210938 213.710938 114.6875 C 215.03125 115.320312 216.550781 116.089844 217.496094 117.242188 C 217.863281 117.722656 218.132812 118.25 218.304688 118.832031 C 217.484375 120.957031 216.230469 122.917969 214.566406 123.742188 C 214.371094 123.828125 214.238281 123.972656 214.167969 124.175781 C 213.675781 123.921875 213.183594 123.667969 212.6875 123.425781 C 212.53125 122.8125 212.355469 122.207031 212.160156 121.609375 C 213.125 119.710938 212.296875 117.332031 212.242188 115.296875 Z M 212.421875 133.203125 C 214.5625 135.351562 216.445312 137.707031 218.074219 140.269531 C 216.835938 143.53125 215.863281 146.871094 215.164062 150.289062 C 213.703125 148.316406 212.222656 146.363281 210.65625 144.492188 C 210.617188 144.21875 210.464844 144.042969 210.203125 143.957031 C 207.746094 140.984375 204.9375 138.390625 201.777344 136.175781 C 196.375 132.511719 190.046875 130.425781 183.707031 128.953125 C 183.535156 128.824219 183.347656 128.78125 183.140625 128.824219 C 182.367188 128.648438 181.589844 128.480469 180.816406 128.320312 C 180.585938 128.273438 180.359375 128.230469 180.128906 128.1875 C 181.964844 125.605469 183.5625 122.882812 184.910156 120.015625 C 185.488281 120.128906 186.070312 120.242188 186.644531 120.367188 C 193.015625 121.777344 199.03125 124.105469 204.691406 127.347656 C 207.296875 128.824219 209.679688 130.589844 211.847656 132.648438 C 211.921875 132.957031 212.113281 133.140625 212.421875 133.203125 Z M 110.78125 152.382812 C 110.796875 152.414062 110.8125 152.449219 110.828125 152.480469 C 112.113281 155.230469 113.410156 157.976562 114.75 160.695312 C 114.398438 163.015625 114.3125 165.347656 114.496094 167.6875 C 111.796875 172.589844 112.425781 178.375 111.363281 184.011719 C 108.148438 180.734375 105.925781 176.886719 104.695312 172.464844 C 104.816406 172.300781 104.859375 172.117188 104.824219 171.917969 C 103.964844 165.335938 107.574219 158.082031 110.78125 152.382812 Z M 187.046875 114.875 C 190.492188 116.675781 193.636719 118.898438 196.480469 121.546875 C 194.296875 120.703125 192.074219 119.972656 189.8125 119.355469 C 188.433594 118.980469 187.042969 118.675781 185.644531 118.402344 C 186.15625 117.234375 186.625 116.058594 187.046875 114.875 Z M 127.429688 181.507812 C 128.117188 182.359375 128.828125 183.199219 129.566406 184.027344 C 128.050781 183.316406 126.539062 182.648438 125.070312 181.941406 C 125.597656 181.460938 126.144531 181.011719 126.714844 180.589844 C 126.953125 180.898438 127.1875 181.203125 127.429688 181.507812 Z M 177.574219 169.753906 C 173.066406 173.140625 167.488281 174.699219 161.671875 175.410156 C 167.492188 173.183594 173.238281 170.675781 177.964844 166.808594 C 177.890625 167.613281 177.75 168.402344 177.539062 169.179688 C 177.476562 169.378906 177.488281 169.570312 177.574219 169.753906 Z M 152.882812 147.414062 C 153.140625 147.535156 153.394531 147.664062 153.644531 147.796875 C 153.839844 147.90625 154.050781 147.933594 154.269531 147.878906 C 154.488281 147.824219 154.65625 147.699219 154.777344 147.507812 C 154.792969 147.523438 154.8125 147.542969 154.828125 147.5625 C 158.277344 151.296875 161.480469 155.101562 165.34375 158.441406 C 166.140625 159.128906 167.613281 160.210938 169.035156 161.457031 C 166.132812 163.042969 162.488281 162.992188 159.265625 162.9375 C 157.777344 162.902344 156.300781 162.734375 154.84375 162.425781 C 154.800781 162.414062 154.753906 162.40625 154.710938 162.398438 C 153.402344 162.121094 152.121094 161.757812 150.863281 161.3125 C 152.625 156.835938 153.296875 152.203125 152.882812 147.414062 Z M 148.238281 134.347656 C 148.195312 134.320312 148.152344 134.292969 148.105469 134.273438 C 148.007812 134.136719 147.902344 133.996094 147.792969 133.859375 C 149.710938 130.386719 152.105469 127.277344 154.972656 124.535156 C 162.773438 123.6875 170.578125 123.003906 177.738281 126.65625 C 170.695312 136.527344 160.210938 142.546875 148.238281 134.347656 Z M 157.164062 122.574219 C 160.347656 119.917969 163.859375 117.800781 167.695312 116.222656 C 173.65625 113.789062 180.667969 111.816406 186.0625 107.933594 C 184.625 114.121094 182.179688 119.882812 178.722656 125.214844 C 171.917969 121.671875 164.597656 121.84375 157.164062 122.574219 Z M 176.746094 110.839844 C 172.550781 112.765625 168.101562 114.0625 163.90625 116.003906 C 165.484375 112.234375 166.671875 108.320312 168.09375 104.488281 L 168.105469 104.488281 C 173.90625 104.230469 179.550781 106.011719 185.316406 106.285156 C 182.683594 108.152344 179.558594 109.554688 176.746094 110.839844 Z M 161.625 116.917969 C 161.578125 117.015625 161.550781 117.117188 161.542969 117.222656 C 158.554688 118.984375 155.832031 121.085938 153.375 123.535156 C 150.917969 125.984375 148.804688 128.699219 147.035156 131.683594 C 145.441406 123.398438 147.636719 114.996094 154.460938 109.308594 C 157.761719 106.566406 161.960938 105.109375 166.195312 104.636719 C 164.707031 108.746094 163.457031 112.945312 161.625 116.917969 Z M 146.886719 137.523438 C 152.625 146.675781 150.449219 160.980469 142.777344 168.328125 C 140.601562 170.40625 137.878906 171.78125 135.101562 173.007812 C 133.070312 167.457031 131.171875 161.695312 131.234375 155.722656 C 131.238281 155.699219 131.230469 155.683594 131.230469 155.664062 C 135.347656 148.644531 140.828125 142.871094 146.886719 137.523438 Z M 133.511719 173.699219 C 132.585938 174.09375 131.667969 174.484375 130.769531 174.890625 C 127.765625 176.195312 125.082031 177.980469 122.710938 180.238281 C 123.804688 172.640625 126.105469 165.429688 129.613281 158.601562 C 130.054688 163.792969 131.726562 168.824219 133.511719 173.699219 Z M 136.199219 145.855469 C 136.03125 145.671875 135.820312 145.585938 135.574219 145.601562 C 131.910156 145.671875 128.351562 146.3125 124.898438 147.527344 C 130.289062 142.414062 137.851562 139.386719 144.613281 136.988281 C 144.910156 136.894531 145.148438 136.71875 145.328125 136.464844 C 145.34375 136.496094 145.359375 136.523438 145.371094 136.554688 C 142.097656 139.441406 139.039062 142.542969 136.199219 145.855469 Z M 134.949219 147.367188 C 132.589844 150.292969 130.492188 153.394531 128.660156 156.679688 C 124.714844 163.929688 122.171875 171.644531 121.03125 179.820312 C 116.339844 171.230469 115.820312 160.121094 121.28125 151.804688 C 121.566406 151.367188 121.871094 150.949219 122.183594 150.539062 C 126.214844 148.582031 130.472656 147.523438 134.949219 147.367188 Z M 147.484375 167.34375 C 147.636719 167.148438 147.769531 166.941406 147.914062 166.738281 C 150.183594 165.886719 152.550781 165.191406 154.660156 164.199219 C 160.011719 165.359375 165.800781 165.363281 170.136719 162.835938 C 170.210938 162.789062 170.277344 162.734375 170.339844 162.671875 C 171.859375 164.191406 173.011719 165.832031 172.71875 167.253906 C 172.675781 167.429688 172.6875 167.601562 172.757812 167.765625 C 172.824219 167.933594 172.933594 168.066406 173.085938 168.164062 C 166.03125 172.554688 157.480469 174.882812 149.996094 178.023438 C 149.683594 178.148438 149.5 178.378906 149.441406 178.707031 C 146.855469 176.785156 144.457031 174.65625 142.238281 172.320312 C 144.25 170.9375 146 169.28125 147.484375 167.34375 Z M 174.445312 167.273438 C 174.734375 164.097656 171.03125 161.171875 168.984375 159.316406 C 164.886719 155.695312 161.007812 151.851562 157.351562 147.785156 C 155.703125 145.851562 153.921875 144.050781 152.003906 142.386719 C 151.710938 141.300781 151.351562 140.238281 150.921875 139.199219 C 152.902344 140.15625 154.984375 140.753906 157.171875 140.996094 C 159.355469 141.242188 161.519531 141.113281 163.660156 140.621094 C 168.542969 146.527344 172.835938 152.945312 177.488281 159.007812 C 177.773438 160.816406 177.953125 162.632812 178.035156 164.460938 C 176.90625 165.480469 175.707031 166.417969 174.445312 167.273438 Z M 171.386719 147.855469 C 171.515625 147.898438 171.648438 147.933594 171.785156 147.957031 C 172.882812 148.027344 173.980469 147.992188 175.070312 147.84375 C 175.921875 150.335938 176.558594 152.886719 176.980469 155.488281 C 175.097656 152.964844 173.253906 150.402344 171.386719 147.855469 Z M 140.734375 173.300781 C 142.96875 175.640625 145.375 177.789062 147.953125 179.742188 C 154.714844 184.875 161.765625 187.980469 169.992188 188.390625 C 169.425781 188.613281 168.851562 188.828125 168.269531 189.023438 C 165.203125 190.039062 161.996094 190.566406 158.875 191.375 C 158.832031 191.355469 158.789062 191.339844 158.746094 191.324219 C 149.742188 188.808594 142.460938 182.835938 136.65625 175.433594 C 138.058594 174.800781 139.417969 174.089844 140.734375 173.300781 Z M 150.6875 179.601562 C 152.351562 178.910156 154.0625 178.253906 155.792969 177.601562 C 155.800781 177.605469 155.808594 177.605469 155.816406 177.605469 C 161.4375 177.367188 167.070312 176.972656 172.339844 174.84375 C 174.902344 173.753906 177.242188 172.304688 179.363281 170.5 C 181.484375 168.699219 183.292969 166.621094 184.78125 164.269531 C 187.953125 159.429688 189.011719 153.507812 188.730469 147.808594 C 188.351562 141.96875 187.011719 136.359375 184.710938 130.976562 C 186.839844 131.515625 188.949219 132.140625 191.015625 132.875 C 191 132.984375 191.007812 133.09375 191.035156 133.203125 C 192.003906 137.226562 191.929688 141.269531 191.8125 145.375 C 191.699219 149.1875 191.863281 152.996094 191.609375 156.804688 C 191.421875 160.226562 190.792969 163.570312 189.722656 166.828125 C 188.652344 170.085938 187.175781 173.148438 185.296875 176.015625 C 182.292969 180.523438 178.414062 184.074219 173.664062 186.671875 C 173.625 186.671875 173.59375 186.664062 173.554688 186.667969 C 164.863281 187.035156 157.632812 184.453125 150.6875 179.601562 Z M 186.925781 146.910156 C 187.21875 149.628906 187.09375 152.332031 186.550781 155.015625 C 186.007812 157.695312 185.074219 160.234375 183.746094 162.628906 C 182.625 164.664062 181.226562 166.480469 179.546875 168.085938 C 180 165.226562 179.621094 162.300781 179.253906 159.417969 C 179.347656 159.253906 179.390625 159.078125 179.375 158.890625 C 179.363281 158.703125 179.296875 158.535156 179.179688 158.386719 C 179.160156 158.359375 179.140625 158.332031 179.117188 158.304688 C 179.089844 158.089844 179.066406 157.875 179.042969 157.660156 C 178.582031 153.714844 177.667969 149.875 176.292969 146.144531 C 175.082031 142.890625 173.542969 139.796875 171.671875 136.867188 C 174.449219 134.835938 176.882812 132.457031 178.976562 129.726562 C 180.183594 129.957031 181.394531 130.203125 182.59375 130.472656 C 184.910156 135.722656 186.355469 141.199219 186.925781 146.910156 Z M 143.726562 124.375 C 142.691406 124.089844 141.648438 123.84375 140.597656 123.648438 C 141.589844 122.710938 142.679688 121.902344 143.863281 121.226562 C 143.945312 121.261719 144.03125 121.300781 144.117188 121.339844 C 143.929688 122.34375 143.800781 123.355469 143.726562 124.375 Z M 144.503906 119.585938 C 141.902344 118.402344 139.421875 117.003906 137.0625 115.386719 C 140.140625 112.605469 143.6875 110.671875 147.691406 109.585938 C 147.785156 109.863281 147.976562 110.035156 148.261719 110.097656 C 148.578125 110.179688 148.894531 110.273438 149.207031 110.363281 C 146.9375 113.078125 145.367188 116.152344 144.503906 119.585938 Z M 142.042969 120.347656 C 140.742188 121.117188 139.621094 122.097656 138.679688 123.28125 C 138.667969 123.296875 138.664062 123.316406 138.652344 123.328125 C 136.515625 123.035156 134.367188 122.925781 132.210938 123 C 133.09375 120.699219 134.261719 118.554688 135.714844 116.566406 C 137.730469 117.980469 139.839844 119.242188 142.042969 120.347656 Z M 143.648438 126.222656 C 143.625 128.90625 143.949219 131.546875 144.625 134.144531 C 144.359375 134.078125 144.097656 134.09375 143.84375 134.199219 C 141.503906 135.027344 139.144531 135.921875 136.828125 136.921875 C 134.375 136.828125 131.90625 136.863281 129.535156 136.738281 C 129.675781 132.65625 130.355469 128.664062 131.574219 124.761719 C 135.683594 124.554688 139.707031 125.039062 143.648438 126.222656 Z M 133.214844 138.597656 C 131.9375 139.242188 130.6875 139.925781 129.476562 140.660156 C 129.46875 139.929688 129.464844 139.203125 129.480469 138.472656 C 130.722656 138.539062 131.96875 138.570312 133.214844 138.597656 Z M 114.917969 171 C 115.109375 172.082031 115.355469 173.152344 115.652344 174.210938 C 115.394531 173.769531 115.148438 173.316406 114.921875 172.828125 C 114.84375 172.636719 114.707031 172.503906 114.511719 172.425781 C 114.628906 171.945312 114.761719 171.46875 114.917969 171 Z M 114.050781 174.921875 C 114.949219 176.523438 116.085938 177.933594 117.460938 179.152344 C 118.285156 180.964844 119.273438 182.679688 120.429688 184.296875 C 120.496094 184.402344 120.574219 184.5 120.664062 184.585938 C 120.753906 184.671875 120.855469 184.742188 120.964844 184.804688 C 121.074219 184.863281 121.1875 184.910156 121.308594 184.941406 C 121.429688 184.972656 121.550781 184.988281 121.675781 184.988281 C 121.800781 184.988281 121.921875 184.972656 122.042969 184.941406 C 122.164062 184.910156 122.28125 184.863281 122.390625 184.804688 C 122.5 184.742188 122.597656 184.671875 122.6875 184.585938 C 122.777344 184.5 122.855469 184.402344 122.921875 184.296875 C 123.207031 183.917969 123.511719 183.558594 123.820312 183.210938 C 126.429688 184.5 129.195312 185.648438 131.859375 187.125 C 132.09375 187.265625 132.339844 187.285156 132.589844 187.175781 C 133.976562 188.523438 135.433594 189.789062 136.964844 190.972656 C 138.820312 192.511719 140.867188 193.722656 143.109375 194.609375 C 139.058594 194.480469 135.050781 194 131.085938 193.167969 C 125.949219 192.292969 121.109375 190.570312 116.574219 188.003906 C 115.257812 187.234375 114.015625 186.359375 112.851562 185.378906 C 113.609375 181.945312 113.578125 178.339844 114.050781 174.921875 Z M 135.648438 187.617188 C 132.914062 185.167969 130.414062 182.5 128.148438 179.609375 C 130.363281 178.28125 132.664062 177.128906 135.050781 176.144531 C 140.566406 183.261719 147.40625 189.167969 155.742188 192.175781 C 152.859375 192.871094 149.945312 193.367188 146.949219 193.027344 C 146.777344 192.996094 146.617188 193.027344 146.46875 193.113281 C 146.320312 193.203125 146.222656 193.332031 146.167969 193.496094 C 142.226562 193.472656 138.367188 190.023438 135.648438 187.617188 Z M 158.246094 193.335938 C 162.007812 192.355469 165.84375 191.652344 169.53125 190.429688 C 176.449219 188.136719 182.011719 183.394531 186.296875 177.597656 C 190.414062 172.03125 192.414062 165.335938 193.1875 158.53125 C 193.648438 154.5 193.429688 150.453125 193.515625 146.40625 C 193.613281 142.078125 193.761719 137.816406 192.878906 133.574219 C 194.527344 134.222656 196.136719 134.957031 197.707031 135.773438 C 199.019531 136.460938 200.277344 137.242188 201.476562 138.113281 C 201.277344 138.285156 201.191406 138.5 201.21875 138.757812 C 202.121094 154.554688 202.632812 172.464844 192.410156 185.6875 C 190.570312 187.984375 188.445312 189.984375 186.046875 191.6875 C 183.644531 193.390625 181.054688 194.734375 178.28125 195.714844 C 177.992188 195.660156 177.757812 195.746094 177.574219 195.976562 C 175.648438 196.644531 173.675781 197.148438 171.664062 197.488281 C 164.5625 198.6875 157.316406 197.066406 150.527344 194.808594 C 153.144531 194.550781 155.71875 194.058594 158.246094 193.335938 Z M 178.558594 197.460938 C 181.371094 196.460938 184.007812 195.125 186.472656 193.445312 C 188.941406 191.769531 191.152344 189.804688 193.113281 187.558594 C 195.691406 184.53125 197.726562 181.175781 199.21875 177.488281 C 202.152344 172.855469 204.5625 167.960938 206.449219 162.808594 C 208.335938 157.65625 209.652344 152.363281 210.40625 146.925781 C 211.898438 148.777344 213.320312 150.699219 214.746094 152.628906 C 214.707031 152.882812 214.769531 153.109375 214.929688 153.308594 C 214.90625 153.40625 214.898438 153.503906 214.910156 153.601562 C 215.089844 155.425781 215.230469 157.238281 215.328125 159.039062 C 215.242188 159.128906 215.175781 159.230469 215.132812 159.347656 C 209.726562 173.496094 203.917969 188.605469 192.554688 199.132812 C 186.871094 204.402344 179.96875 207.183594 172.347656 208.09375 C 166.027344 208.847656 159.101562 208.535156 153.082031 206.179688 C 153.992188 206.050781 154.902344 205.910156 155.804688 205.757812 C 160.375 204.9375 164.847656 203.75 169.226562 202.191406 C 172.480469 201.054688 176.140625 200.046875 178.558594 197.460938 Z M 203.398438 151.042969 C 205 150.8125 206.542969 150.378906 208.027344 149.742188 C 208.101562 149.703125 208.171875 149.660156 208.238281 149.609375 C 206.980469 156.570312 204.796875 163.226562 201.683594 169.574219 C 202.941406 163.460938 203.515625 157.285156 203.398438 151.042969 Z M 202.984375 139.261719 C 203.167969 139.410156 203.347656 139.566406 203.527344 139.71875 C 203.339844 139.59375 203.160156 139.460938 202.988281 139.328125 C 202.984375 139.304688 202.984375 139.285156 202.984375 139.261719 Z M 211.945312 121.011719 C 210.980469 118.394531 209.703125 115.9375 208.117188 113.640625 C 206.527344 111.34375 204.675781 109.285156 202.566406 107.460938 C 202.429688 105.691406 202.460938 103.925781 202.667969 102.167969 C 202.988281 102.210938 203.308594 102.25 203.628906 102.296875 C 205.78125 102.609375 208.128906 102.871094 210.382812 103.371094 C 210.480469 104.65625 210.972656 105.96875 211.167969 107.222656 C 211.398438 108.6875 211.46875 110.183594 211.585938 111.664062 C 211.863281 114.136719 212 116.617188 211.996094 119.105469 C 211.972656 119.742188 211.957031 120.378906 211.945312 121.011719 Z M 118.59375 124.222656 C 117.546875 124.210938 116.519531 124.078125 115.503906 123.824219 C 115.472656 123.707031 115.441406 123.59375 115.40625 123.476562 C 114.46875 120.242188 113.609375 116.988281 112.886719 113.714844 C 116.070312 111.351562 119.953125 110.59375 123.796875 110 C 120.917969 114.320312 119.179688 119.058594 118.59375 124.222656 Z M 113.734375 123.9375 C 116.015625 131.902344 117.96875 140.105469 120.609375 148.007812 C 119.8125 148.929688 119.082031 149.902344 118.410156 150.917969 C 116.996094 153.097656 115.960938 155.449219 115.3125 157.96875 C 114.019531 155.253906 112.757812 152.527344 111.484375 149.816406 C 108 142.375 105.878906 134.4375 104.296875 126.390625 C 102.9375 119.484375 101.527344 111.820312 102.46875 104.75 C 104.3125 101.679688 106.507812 98.878906 109.046875 96.347656 C 109.089844 105.765625 111.140625 114.894531 113.734375 123.9375 Z M 102.621094 126.855469 C 102.851562 128.0625 103.105469 129.261719 103.371094 130.457031 C 98.472656 131.902344 95.066406 136.625 92.332031 141.011719 C 92.359375 136.746094 92.773438 132.523438 93.574219 128.335938 C 93.582031 128.332031 93.589844 128.328125 93.597656 128.324219 C 96.035156 126.601562 98.738281 123.617188 101.835938 123.238281 C 101.871094 123.230469 101.910156 123.222656 101.945312 123.210938 C 102.164062 124.4375 102.394531 125.65625 102.621094 126.855469 Z M 103.769531 132.148438 C 104.328125 134.488281 104.960938 136.800781 105.664062 139.085938 C 100.539062 142.394531 96.519531 147.6875 93.355469 152.953125 C 92.867188 150.0625 92.550781 147.148438 92.398438 144.222656 C 95.113281 139.746094 98.511719 133.753906 103.769531 132.148438 Z M 106.210938 140.804688 C 107.058594 143.390625 108.011719 145.945312 109.066406 148.472656 C 106.164062 151.808594 103.644531 155.40625 101.5 159.273438 C 101.273438 159.425781 101.160156 159.636719 101.164062 159.910156 C 99.484375 163.082031 98.46875 166.460938 98.125 170.035156 C 95.84375 166.808594 95.175781 162.355469 94.40625 158.617188 C 94.199219 157.609375 94.003906 156.601562 93.816406 155.601562 C 96.917969 150.144531 100.921875 144.351562 106.210938 140.804688 Z M 183.257812 207.136719 C 183.285156 207.25 183.335938 207.351562 183.410156 207.441406 C 185.304688 209.886719 187.671875 211.738281 190.5 212.988281 C 187.203125 213.511719 183.984375 214.5625 180.652344 214.945312 C 176.621094 215.40625 172.453125 215.027344 168.402344 215.007812 C 167.488281 214.511719 166.574219 214.023438 165.65625 213.542969 C 161.804688 211.523438 156.21875 210.6875 152.664062 207.878906 C 162.046875 211.535156 173.746094 211.125 183.257812 207.136719 Z M 179.722656 216.742188 C 184.234375 216.53125 188.484375 214.707031 192.976562 214.453125 C 192.945312 214.539062 192.929688 214.628906 192.929688 214.71875 C 192.929688 215.742188 189.328125 218.339844 188.558594 219 C 186.664062 220.566406 184.601562 221.878906 182.378906 222.929688 C 178.792969 220.882812 175.214844 218.800781 171.609375 216.78125 C 174.3125 216.820312 177.019531 216.867188 179.722656 216.742188 Z M 190.53125 219.589844 C 191.523438 218.746094 193.785156 217.074219 194.46875 215.546875 C 195.492188 215.449219 196.476562 215.160156 197.503906 215.054688 C 196.949219 217.710938 196.5625 220.578125 194.683594 222.660156 C 192.269531 225.328125 188.28125 225.828125 185 224.707031 C 184.945312 224.472656 184.8125 224.296875 184.597656 224.1875 C 184.453125 224.105469 184.3125 224.027344 184.167969 223.945312 C 186.449219 222.726562 188.570312 221.273438 190.53125 219.589844 Z M 185.035156 206.726562 C 193.578125 207.4375 205.210938 206.375 210.34375 198.558594 C 210.351562 202.171875 210.839844 205.714844 211.808594 209.195312 C 211.515625 209.140625 211.285156 209.234375 211.113281 209.476562 C 210.914062 209.726562 210.726562 209.980469 210.546875 210.238281 C 202.742188 215.15625 190.777344 214.039062 185.035156 206.726562 Z M 210.546875 195.953125 C 210.367188 195.890625 210.1875 195.898438 210.011719 195.972656 C 209.835938 196.050781 209.707031 196.175781 209.628906 196.351562 C 205.667969 204.066406 195.445312 205.480469 187.308594 205.136719 C 188.652344 204.367188 189.933594 203.511719 191.15625 202.558594 C 191.339844 202.414062 191.519531 202.261719 191.699219 202.117188 C 191.839844 202.128906 191.972656 202.113281 192.101562 202.058594 C 199.175781 199.246094 206.894531 195.1875 211.964844 189.148438 C 211.335938 191.386719 210.863281 193.652344 210.546875 195.953125 Z M 195.425781 198.765625 C 205.0625 189.160156 210.605469 175.921875 215.46875 163.296875 C 215.585938 170.066406 214.914062 176.757812 213.449219 183.367188 C 213.382812 183.660156 213.308594 183.953125 213.238281 184.246094 C 209.511719 190.941406 202.445312 195.546875 195.425781 198.765625 Z M 212.253906 195.960938 C 212.578125 192.285156 213.75 188.707031 214.738281 185.121094 C 214.816406 184.976562 214.90625 184.839844 214.980469 184.695312 C 215.109375 184.46875 215.128906 184.234375 215.039062 183.992188 C 215.238281 183.230469 215.421875 182.464844 215.582031 181.703125 C 217.558594 172.34375 217.589844 163.074219 216.644531 153.601562 C 216.636719 153.535156 216.625 153.46875 216.601562 153.40625 C 216.765625 153.285156 216.855469 153.125 216.878906 152.925781 C 216.902344 152.722656 216.847656 152.546875 216.71875 152.394531 C 216.667969 152.328125 216.617188 152.257812 216.570312 152.191406 C 217.222656 148.511719 218.199219 144.917969 219.492188 141.414062 C 222.410156 143.121094 223.15625 147.625 223.960938 150.640625 C 224.953125 154.597656 225.488281 158.621094 225.570312 162.703125 C 225.851562 170.523438 224.824219 178.34375 224.558594 186.15625 C 224.367188 186.3125 224.296875 186.511719 224.34375 186.753906 C 224.265625 186.859375 224.214844 186.980469 224.191406 187.109375 C 223.617188 190.574219 222.558594 193.882812 221.011719 197.035156 C 220.152344 198.597656 219.199219 200.09375 218.140625 201.53125 C 218.03125 201.589844 217.9375 201.667969 217.863281 201.765625 C 216.386719 203.648438 215.1875 205.742188 213.621094 207.550781 C 213.519531 207.660156 213.453125 207.789062 213.421875 207.9375 C 213.386719 207.972656 213.347656 208.007812 213.3125 208.042969 C 212.300781 204.074219 211.945312 200.046875 212.253906 195.960938 Z M 227.152344 159.667969 C 226.847656 155.351562 226.03125 151.128906 224.710938 147.011719 C 224.070312 144.988281 223.421875 142.851562 222.058594 141.285156 C 226.707031 144.390625 231.015625 148.0625 233.804688 152.925781 C 238.132812 160.484375 234.964844 171.652344 226.90625 175.316406 C 227.328125 170.105469 227.40625 164.886719 227.152344 159.667969 Z M 222.9375 197.078125 C 224.371094 194.050781 225.347656 190.882812 225.871094 187.570312 C 225.878906 187.519531 225.886719 187.464844 225.886719 187.414062 C 228.183594 186.378906 230.152344 184.90625 231.792969 182.996094 C 236.34375 187.605469 235.117188 194.953125 231.230469 199.589844 C 228.003906 203.441406 222.820312 204.851562 217.980469 204.96875 C 219.519531 202.253906 221.519531 199.863281 222.9375 197.078125 Z M 145.125 71.40625 C 145.105469 71.375 145.085938 71.34375 145.0625 71.3125 C 147.882812 68.792969 151.113281 67.019531 154.75 65.988281 C 156.804688 66.644531 158.847656 67.308594 160.871094 68.058594 C 161.195312 68.179688 164.265625 69.390625 165.972656 70.207031 C 161.160156 70.683594 156.441406 71.609375 152.144531 73.980469 C 149.867188 72.945312 147.53125 72.085938 145.125 71.40625 Z M 131.105469 71.050781 C 131.015625 71.148438 130.949219 71.257812 130.910156 71.382812 C 128.925781 71.628906 126.949219 71.929688 124.984375 72.285156 C 123.347656 72.578125 121.730469 72.957031 120.128906 73.421875 C 119.417969 68.707031 120.140625 61.414062 125.472656 60.003906 C 129.535156 60.855469 133.679688 63.394531 136.855469 65.890625 C 134.746094 67.394531 132.828125 69.117188 131.105469 71.050781 Z M 118.46875 73.945312 C 115.570312 74.90625 112.832031 76.207031 110.261719 77.851562 C 110.339844 76.898438 110.363281 75.925781 110.5 75.175781 C 111.117188 71.28125 112.464844 67.664062 114.546875 64.316406 C 116.621094 61.167969 119.308594 59.867188 122.1875 59.71875 C 118.3125 62.761719 117.730469 69.285156 118.46875 73.945312 Z M 71.046875 183.757812 C 71.03125 183.777344 71.019531 183.796875 71.007812 183.816406 C 70.441406 184.648438 64.941406 183.832031 63.847656 183.726562 C 59.984375 183.34375 55.765625 181.242188 55.136719 177.003906 C 55.230469 176.867188 55.277344 176.714844 55.273438 176.546875 C 55.429688 169.125 59.730469 163.972656 65.195312 159.585938 C 65.570312 164.371094 66.410156 169.074219 67.714844 173.691406 C 68.417969 176.320312 69.296875 178.894531 70.34375 181.410156 C 70.648438 182.132812 70.746094 183.007812 71.046875 183.757812 Z M 72.097656 181.699219 C 71.972656 181.132812 71.820312 180.582031 71.632812 180.035156 C 70.742188 177.8125 69.996094 175.542969 69.386719 173.226562 C 67.9375 168.265625 67.089844 163.203125 66.84375 158.039062 C 66.835938 157.988281 66.828125 157.9375 66.8125 157.886719 C 66.832031 157.808594 66.84375 157.730469 66.84375 157.652344 C 66.824219 155.347656 66.488281 152.796875 66.960938 150.480469 C 69.25 152.398438 71.332031 154.527344 73.863281 156.199219 C 74.480469 156.605469 75.164062 157.050781 75.882812 157.457031 C 75.808594 157.5625 75.761719 157.679688 75.742188 157.808594 C 75.238281 160.875 75.804688 164.078125 76.441406 167.089844 C 77.046875 169.933594 77.90625 173.148438 79.820312 175.425781 C 79.871094 175.484375 79.929688 175.535156 79.996094 175.582031 C 79.46875 181.894531 79.890625 188.140625 81.253906 194.324219 C 79.730469 192.75 78.652344 190.78125 77.375 188.996094 C 75.832031 186.855469 73.09375 184.976562 72.597656 182.292969 C 72.558594 181.984375 72.390625 181.789062 72.097656 181.699219 Z M 79.785156 146.28125 C 78.5 144.929688 77.207031 143.589844 75.898438 142.261719 C 75.097656 141.449219 74.296875 140.644531 73.488281 139.839844 C 72.925781 139.261719 72.472656 138.609375 72.121094 137.882812 C 73.167969 136.078125 74.484375 134.492188 76.0625 133.125 C 76.121094 133.09375 76.175781 133.054688 76.230469 133.007812 C 76.320312 132.925781 76.410156 132.84375 76.5 132.765625 C 76.726562 132.6875 76.886719 132.542969 76.988281 132.324219 C 78.097656 131.328125 79.203125 130.320312 80.253906 129.257812 C 79.769531 134.921875 79.613281 140.597656 79.785156 146.28125 Z M 72.746094 116.28125 C 73.476562 115.183594 74.160156 114.058594 74.863281 112.949219 C 76.324219 110.765625 78.15625 108.953125 80.355469 107.515625 C 81.992188 106.34375 83.691406 105.273438 85.453125 104.300781 C 86.105469 103.957031 86.777344 103.65625 87.46875 103.398438 C 86.476562 104.921875 85.800781 106.570312 85.4375 108.351562 C 82.972656 109.460938 80.863281 111.046875 79.109375 113.101562 C 78.941406 113.175781 78.8125 113.292969 78.722656 113.449219 C 78.636719 113.585938 78.5625 113.726562 78.480469 113.867188 C 77.660156 114.933594 77.414062 115.421875 75.753906 115.707031 C 74.71875 115.878906 73.726562 116.042969 72.746094 116.28125 Z M 75.125 131.640625 C 73.683594 132.894531 72.414062 134.300781 71.3125 135.863281 C 71.222656 135.59375 71.136719 135.324219 71.054688 135.054688 C 71.011719 134.921875 70.945312 134.804688 70.847656 134.703125 C 70.433594 132.699219 70.433594 130.691406 70.84375 128.6875 C 70.992188 128.667969 71.121094 128.613281 71.230469 128.519531 C 72.410156 127.710938 73.710938 127.257812 75.136719 127.15625 C 75.015625 128.652344 75.011719 130.144531 75.125 131.640625 Z M 75.371094 125.402344 C 73.804688 125.476562 72.332031 125.882812 70.953125 126.621094 C 71.304688 123.84375 70.957031 120.925781 71.925781 118.296875 C 73.324219 117.84375 74.753906 117.535156 76.21875 117.378906 C 76.390625 117.355469 76.640625 117.332031 76.925781 117.296875 C 76.050781 119.929688 75.535156 122.632812 75.371094 125.402344 Z M 76.789062 130.167969 C 76.671875 128.921875 76.753906 127.683594 77.027344 126.457031 C 77.054688 126.351562 77.0625 126.242188 77.046875 126.128906 C 77.050781 126.097656 77.058594 126.066406 77.058594 126.035156 C 77.289062 122.289062 77.988281 118.453125 79.78125 115.125 C 80.964844 113.34375 82.480469 111.917969 84.332031 110.847656 C 82.195312 115.800781 81.121094 121.09375 80.523438 126.464844 C 80.476562 126.496094 80.4375 126.535156 80.398438 126.578125 C 79.257812 127.835938 78.054688 129.035156 76.789062 130.167969 Z M 92.652344 94.660156 C 92.472656 94.894531 92.308594 95.136719 92.144531 95.378906 C 91.585938 96 91.085938 95.84375 89.949219 95.867188 C 89.371094 95.878906 88.800781 95.941406 88.238281 96.058594 C 89.886719 94.105469 91.800781 92.457031 93.980469 91.113281 C 94.996094 90.507812 96.050781 89.984375 97.148438 89.546875 C 95.847656 90.734375 94.640625 92.015625 93.527344 93.382812 C 93.210938 93.792969 92.921875 94.21875 92.652344 94.660156 Z M 74.042969 191.324219 C 74.648438 191.320312 75.257812 191.34375 75.859375 191.34375 C 76.167969 191.351562 76.429688 191.25 76.652344 191.039062 C 77.941406 192.96875 79.167969 194.972656 80.976562 196.4375 C 81.226562 196.648438 81.503906 196.703125 81.8125 196.605469 C 83.027344 201.140625 84.8125 205.4375 87.164062 209.5 C 79.800781 206.753906 74.582031 198.859375 72.960938 191.386719 C 72.957031 191.363281 72.945312 191.339844 72.941406 191.3125 C 73.3125 191.328125 73.6875 191.324219 74.042969 191.324219 Z M 246.550781 78.246094 C 242.730469 73.234375 238.542969 68.550781 233.988281 64.195312 C 229.4375 59.835938 224.570312 55.863281 219.394531 52.265625 C 214.21875 48.671875 208.796875 45.5 203.125 42.753906 C 197.453125 40.007812 191.601562 37.71875 185.570312 35.886719 C 174.46875 32.542969 163.121094 30.878906 151.523438 30.898438 C 144.113281 30.890625 136.765625 31.558594 129.476562 32.90625 C 122.191406 34.253906 115.089844 36.257812 108.171875 38.917969 C 84.976562 47.832031 64.589844 64.464844 50.761719 85.746094 C 36.695312 107.378906 30.089844 133.816406 32.160156 160.183594 C 34.132812 185.363281 44.574219 209.9375 61.558594 229.382812 C 65.765625 234.152344 70.320312 238.558594 75.226562 242.605469 C 80.136719 246.652344 85.332031 250.285156 90.816406 253.503906 C 96.300781 256.722656 102.003906 259.488281 107.929688 261.800781 C 113.851562 264.113281 119.921875 265.945312 126.136719 267.292969 C 134.335938 269.0625 142.625 269.949219 151.011719 269.941406 C 159.921875 269.929688 168.722656 268.949219 177.417969 267.003906 C 186.109375 265.058594 194.492188 262.195312 202.554688 258.414062 C 243.855469 238.988281 270.644531 196.605469 270.8125 150.414062 C 270.78125 143.945312 270.238281 137.519531 269.183594 131.140625 C 268.125 124.757812 266.566406 118.503906 264.503906 112.371094 C 262.441406 106.242188 259.90625 100.3125 256.894531 94.589844 C 253.882812 88.867188 250.4375 83.417969 246.550781 78.246094 Z M 99.140625 253.707031 C 76.21875 242.1875 57.703125 222.925781 46.652344 199.820312 C 35.09375 175.65625 32.671875 147.585938 39.207031 121.675781 C 45.542969 96.601562 60.652344 74.113281 81.144531 58.410156 C 102.09375 42.363281 128.203125 34.160156 154.539062 34.789062 C 180.84375 35.414062 206.425781 45.4375 226.429688 62.464844 C 252.082031 84.300781 266.847656 116.8125 266.964844 150.421875 C 266.964844 153.667969 266.828125 156.910156 266.554688 160.144531 C 266.28125 163.382812 265.871094 166.601562 265.328125 169.804688 C 264.785156 173.003906 264.105469 176.179688 263.296875 179.324219 C 262.484375 182.46875 261.542969 185.574219 260.46875 188.640625 C 259.398438 191.703125 258.199219 194.71875 256.871094 197.683594 C 255.542969 200.648438 254.097656 203.550781 252.523438 206.394531 C 250.953125 209.238281 249.265625 212.007812 247.460938 214.707031 C 245.65625 217.410156 243.742188 220.027344 241.71875 222.570312 C 239.691406 225.109375 237.566406 227.558594 235.332031 229.917969 C 233.101562 232.277344 230.777344 234.539062 228.355469 236.703125 C 225.933594 238.867188 223.425781 240.925781 220.828125 242.878906 C 218.234375 244.832031 215.5625 246.671875 212.8125 248.398438 C 210.0625 250.128906 207.242188 251.738281 204.359375 253.226562 C 201.472656 254.71875 198.53125 256.085938 195.53125 257.328125 C 192.527344 258.570312 189.480469 259.683594 186.386719 260.671875 C 183.292969 261.65625 180.164062 262.511719 176.996094 263.234375 C 150.917969 269.253906 123.015625 265.710938 99.140625 253.707031 Z M 99.140625 253.707031 " fill-opacity="1" fill-rule="nonzero"/></g></svg>