<svg xmlns="http://www.w3.org/2000/svg" xmlns:xlink="http://www.w3.org/1999/xlink" width="400" zoomAndPan="magnify" viewBox="0 0 300 299.999988" height="400" preserveAspectRatio="xMidYMid meet" version="1.0"><defs><clipPath id="e79c8ce82e"><path d="M 33.898438 30 L 266 30 L 266 270 L 33.898438 270 Z M 33.898438 30 " clip-rule="nonzero"/></clipPath></defs><g clip-path="url(#e79c8ce82e)"><path fill="#a9a0f0" d="M 88.378906 124.988281 C 88.859375 124.886719 88.808594 124.496094 88.878906 124.144531 C 89.761719 119.792969 90.332031 115.378906 91.046875 110.992188 C 91.425781 108.695312 91.828125 106.40625 92.339844 104.140625 C 92.941406 101.453125 93.835938 98.863281 95.832031 96.738281 C 95.28125 96.074219 94.496094 95.902344 93.835938 95.554688 C 92.269531 94.71875 92.007812 93.878906 93.113281 92.484375 C 95.421875 89.5625 97.738281 86.644531 100.144531 83.804688 C 106.136719 76.730469 111.621094 69.277344 117.128906 61.84375 C 118.113281 60.519531 119.148438 59.214844 120.191406 57.929688 C 120.640625 57.378906 120.84375 56.828125 120.851562 56.105469 C 120.914062 52.070312 123.851562 48.320312 127.734375 47.417969 C 128.699219 47.195312 129.03125 46.503906 129.5625 45.902344 C 129.84375 45.582031 129.589844 45.347656 129.441406 45.078125 C 128.046875 42.460938 128.347656 40.3125 130.425781 38.175781 C 131.738281 36.820312 133.355469 35.898438 135.058594 35.117188 C 138.371094 33.589844 141.902344 32.796875 145.453125 32.105469 C 150.488281 31.132812 155.574219 30.589844 160.691406 30.339844 C 166.199219 30.070312 171.527344 30.84375 176.523438 33.28125 C 178.328125 34.164062 180.144531 35.046875 181.929688 35.980469 C 187.199219 38.738281 192.367188 41.65625 197.691406 44.296875 C 201.566406 46.210938 204.40625 49.242188 206.472656 53.015625 C 208.046875 55.875 209.3125 58.875 210.464844 61.921875 C 212.601562 67.542969 215.191406 72.9375 218.191406 78.144531 C 220.71875 82.539062 223.136719 86.984375 225.695312 91.371094 C 228.824219 96.738281 232.246094 101.902344 236.527344 106.457031 C 242.921875 113.242188 250.566406 118.136719 259.214844 121.515625 C 261.039062 122.230469 262.886719 122.921875 264.699219 123.652344 C 265.714844 124.066406 266.09375 124.636719 265.765625 125.210938 C 265.304688 126 264.609375 125.730469 263.988281 125.492188 C 259.113281 123.632812 254.238281 121.789062 249.660156 119.210938 C 240.703125 114.144531 233.53125 107.210938 227.871094 98.644531 C 224.140625 92.984375 220.957031 86.996094 217.578125 81.136719 C 213.875 74.726562 210.605469 68.105469 208.007812 61.160156 C 206.921875 58.25 205.640625 55.433594 204.011719 52.773438 C 202.539062 50.347656 200.683594 48.378906 198.125 46.984375 C 191.542969 43.394531 184.941406 39.851562 178.308594 36.359375 C 174.769531 34.503906 171.097656 33 167.074219 32.546875 C 164.035156 32.207031 160.972656 32.285156 157.933594 32.496094 C 153.449219 32.808594 148.984375 33.410156 144.570312 34.304688 C 144.21875 34.375 143.878906 34.484375 143.347656 34.632812 C 146.527344 36.722656 149.023438 39.359375 151.644531 41.859375 C 153.066406 43.222656 153.117188 43.542969 152.144531 45.328125 C 152.042969 45.511719 151.972656 45.691406 151.824219 46.011719 C 154.582031 46.582031 157.28125 46.792969 160.070312 47.015625 C 160.109375 46.363281 159.808594 45.929688 159.6875 45.449219 C 159.46875 44.558594 159.640625 44.003906 160.199219 43.886719 C 160.953125 43.722656 161.214844 44.257812 161.382812 44.828125 C 162.527344 48.589844 165.769531 50.234375 168.667969 52.332031 C 169.058594 51.679688 169.101562 51.109375 169.25 50.566406 C 169.339844 50.214844 169.441406 49.863281 169.589844 49.542969 C 169.792969 49.121094 170.164062 48.953125 170.625 49.082031 C 171.027344 49.203125 171.1875 49.53125 171.167969 49.925781 C 171.136719 50.335938 171.078125 50.746094 170.984375 51.148438 C 170.152344 54.648438 169.753906 58.171875 170.574219 61.742188 C 170.636719 61.992188 170.675781 62.253906 170.644531 62.503906 C 170.585938 62.945312 170.3125 63.269531 169.851562 63.347656 C 169.449219 63.417969 169.148438 63.21875 168.9375 62.898438 C 168.699219 62.546875 168.660156 62.125 168.578125 61.722656 C 168.15625 59.675781 168.097656 57.609375 168.328125 55.542969 C 168.417969 54.769531 168.117188 54.367188 167.542969 53.886719 C 165.527344 52.191406 163.3125 51.429688 160.613281 51.488281 C 157.875 51.539062 155.132812 51.269531 152.4375 51.929688 C 151.019531 52.28125 149.695312 52.824219 148.472656 53.597656 C 148.484375 53.675781 148.472656 53.726562 148.484375 53.777344 C 148.492188 53.828125 148.511719 53.898438 148.542969 53.917969 C 156.277344 57.992188 163.242188 63.367188 171.078125 67.261719 C 171.4375 67.441406 171.769531 67.691406 172.210938 67.691406 C 172.492188 67.3125 172.179688 67.011719 172.070312 66.6875 C 171.910156 66.199219 171.726562 65.714844 171.558594 65.222656 C 171.367188 64.640625 171.285156 64.039062 171.980469 63.78125 C 172.679688 63.507812 173.003906 64 173.234375 64.59375 C 173.554688 65.414062 173.855469 66.238281 174.214844 67.039062 C 174.578125 67.84375 174.910156 68.664062 175.550781 69.296875 C 175.960938 69.707031 176.132812 70.160156 175.761719 70.683594 C 175.351562 71.253906 174.859375 71.183594 174.257812 70.921875 C 170.453125 69.289062 166.761719 67.429688 163.261719 65.203125 C 157.761719 61.710938 152.304688 58.160156 146.507812 55.171875 C 143.246094 53.484375 139.953125 51.871094 136.492188 50.625 C 134.347656 49.855469 132.148438 49.253906 129.851562 49.222656 C 126.171875 49.171875 123.070312 52.011719 122.777344 55.671875 C 122.699219 56.726562 123.011719 57.71875 123.460938 58.664062 C 124.171875 60.167969 125.15625 61.503906 126.230469 62.765625 C 128.699219 65.675781 131.609375 68.042969 134.917969 69.941406 C 136.714844 70.964844 138.5 72.007812 140.277344 73.058594 C 146.996094 77.003906 152.457031 82.25 156.730469 88.769531 C 159.699219 93.316406 162.476562 97.980469 165.628906 102.414062 C 169.621094 108.042969 173.996094 113.332031 179.183594 117.914062 C 180.265625 118.878906 181.46875 119.679688 182.625 120.554688 C 183.96875 121.578125 185.171875 122.792969 186.375 123.984375 C 187.980469 125.589844 189.554688 127.246094 191.101562 128.910156 C 194 132.042969 197.332031 134.648438 200.902344 136.976562 C 202.589844 138.082031 204.285156 139.175781 206.011719 140.207031 C 219.363281 148.246094 232.035156 157.273438 244.644531 166.394531 C 246.742188 167.910156 248.878906 169.363281 250.996094 170.847656 C 251.378906 171.117188 251.738281 171.410156 252.058594 171.742188 C 252.359375 172.070312 252.441406 172.484375 252.140625 172.875 C 251.847656 173.234375 251.457031 173.375 251.035156 173.164062 C 250.574219 172.933594 250.144531 172.644531 249.722656 172.351562 C 239.269531 165.097656 229.085938 157.472656 218.480469 150.441406 C 212.882812 146.730469 207.125 143.25 201.425781 139.6875 C 196.347656 136.507812 191.722656 132.804688 187.800781 128.28125 C 185.140625 125.210938 182.050781 122.640625 178.910156 120.113281 C 173.0625 115.398438 168.335938 109.648438 164.023438 103.550781 C 163.070312 102.195312 162.148438 100.820312 161.246094 99.4375 C 160.933594 98.964844 160.613281 98.753906 160.011719 98.703125 C 158.527344 98.5625 157.039062 98.320312 155.566406 98.0625 C 153.910156 97.761719 152.285156 97.738281 150.660156 98.242188 C 149.566406 98.574219 148.460938 98.84375 147.328125 98.953125 C 145.292969 99.164062 143.464844 99.945312 141.640625 100.859375 C 137.648438 102.855469 133.394531 103.851562 128.898438 103.519531 C 127.011719 103.378906 125.238281 102.847656 123.753906 101.601562 C 121.675781 99.867188 121.503906 97.902344 123.25 95.804688 C 124.144531 94.71875 125.238281 93.847656 126.332031 92.972656 C 126.761719 92.632812 127.273438 92.382812 127.605469 91.78125 C 126.902344 91.832031 126.382812 92.203125 125.839844 92.453125 C 123.921875 93.347656 122.015625 94.277344 120.019531 94.992188 C 117.601562 95.863281 115.125 96.355469 112.566406 95.714844 C 111.84375 95.53125 111.433594 95.742188 110.972656 96.253906 C 109.265625 98.191406 107.53125 100.117188 105.765625 102.003906 C 105.183594 102.625 105 103.289062 105.101562 104.121094 C 106.003906 112.359375 106.476562 120.613281 105.914062 128.902344 C 105.59375 133.546875 105.070312 138.171875 104.570312 142.796875 C 103.625 151.484375 102.363281 160.144531 102.523438 168.910156 C 102.625 174.359375 103.386719 179.726562 104.179688 185.105469 C 104.207031 185.304688 104.257812 185.515625 104.46875 185.636719 C 104.53125 185.585938 104.640625 185.554688 104.660156 185.496094 C 105.925781 181.613281 107.398438 177.800781 109.015625 174.058594 C 110.089844 171.558594 110.429688 168.882812 110.902344 166.242188 C 112.125 159.320312 115.445312 153.5625 120.59375 148.816406 C 121.515625 147.972656 122.558594 147.300781 123.742188 146.878906 C 125.960938 146.097656 127.65625 146.980469 128.246094 149.257812 C 128.476562 150.160156 128.609375 151.082031 128.597656 152.015625 C 128.589844 158.117188 128.628906 164.226562 128.558594 170.324219 C 128.519531 174.128906 127.695312 177.820312 126.5625 181.433594 C 123.78125 190.25 120.984375 199.070312 118.664062 208.027344 C 118.09375 210.226562 117.363281 212.382812 116.589844 214.519531 C 116.257812 215.421875 115.714844 216.285156 115.132812 217.066406 C 113.289062 219.554688 111.363281 221.996094 109.496094 224.460938 C 106.414062 228.554688 104.960938 233.222656 104.671875 238.308594 C 104.371094 243.632812 104.75 248.953125 104.890625 254.277344 C 104.929688 255.773438 104.972656 257.277344 105.011719 258.773438 C 105.0625 261.203125 104.980469 263.640625 105.230469 266.058594 C 105.332031 267.019531 104.992188 267.5625 104.371094 267.621094 C 103.757812 267.683594 103.386719 267.230469 103.234375 266.226562 C 103.195312 265.976562 103.183594 265.714844 103.175781 265.457031 C 102.964844 257.390625 102.753906 249.324219 102.5625 241.257812 C 102.511719 239.191406 102.734375 237.125 103.015625 235.078125 C 103.6875 230.179688 105.734375 225.898438 108.804688 222.0625 C 109.707031 220.929688 110.589844 219.785156 111.53125 218.683594 C 113.410156 216.484375 114.671875 213.976562 115.574219 211.238281 C 116.800781 207.558594 117.8125 203.824219 118.777344 200.0625 C 120.261719 194.253906 122.21875 188.574219 124.082031 182.886719 C 126.019531 176.96875 126.941406 170.949219 126.589844 164.71875 C 126.410156 161.515625 126.511719 158.308594 126.640625 155.097656 C 126.710938 153.441406 126.730469 151.785156 126.429688 150.152344 C 126.128906 148.574219 125.488281 148.222656 124.035156 148.886719 C 122.597656 149.539062 121.445312 150.59375 120.390625 151.734375 C 116.417969 156.070312 113.710938 161.054688 112.828125 166.914062 C 112.273438 170.566406 111.28125 174.066406 109.785156 177.449219 C 108.261719 180.902344 106.917969 184.433594 105.863281 188.0625 C 105.59375 189.007812 105.242188 189.929688 105.230469 190.933594 C 105.230469 191.496094 105.050781 191.996094 104.417969 192.085938 C 103.695312 192.1875 103.375 191.675781 103.265625 191.09375 C 102.945312 189.527344 102.664062 187.945312 102.402344 186.367188 C 101.128906 178.601562 100.234375 170.808594 100.648438 162.902344 C 100.917969 157.683594 101.511719 152.5 102.070312 147.300781 C 102.976562 138.972656 104.117188 130.667969 104.160156 122.269531 C 104.1875 116.109375 103.816406 109.96875 103.285156 103.839844 C 103.207031 102.90625 102.835938 102.195312 102.203125 101.53125 C 101.128906 100.410156 100.015625 99.324219 98.78125 98.390625 C 97.917969 97.738281 97.707031 97.761719 96.964844 98.550781 C 96.0625 99.515625 95.53125 100.691406 95.089844 101.914062 C 94.144531 104.550781 93.664062 107.3125 93.242188 110.070312 C 91.585938 120.957031 89.679688 131.800781 87.636719 142.617188 C 86.472656 148.757812 84.90625 154.816406 83.421875 160.894531 C 83.402344 160.996094 83.371094 161.097656 83.339844 161.195312 C 83.210938 161.777344 83 162.320312 82.296875 162.351562 C 81.765625 162.371094 81.183594 161.636719 81.214844 160.855469 C 81.242188 159.984375 81.425781 159.109375 81.503906 158.238281 C 82.378906 148.125 84.265625 138.171875 85.9375 128.179688 C 87.484375 119 88.65625 109.769531 88.949219 100.4375 C 89.007812 98.523438 89.019531 96.605469 88.589844 94.730469 C 88.40625 93.96875 88.1875 93.234375 87.753906 92.574219 C 86.5625 90.71875 84.203125 90.347656 82.5 91.730469 C 81.964844 92.160156 81.554688 92.695312 81.214844 93.277344 C 80.664062 94.21875 80.210938 95.203125 79.898438 96.246094 C 77.664062 103.929688 75.195312 111.554688 73.339844 119.351562 C 72.023438 124.886719 71.160156 130.507812 70.296875 136.125 C 69.203125 143.25 67.609375 150.230469 64.929688 156.953125 C 64.570312 157.867188 64.289062 158.808594 63.949219 159.730469 C 63.757812 160.242188 63.445312 160.695312 62.804688 160.515625 C 62.171875 160.332031 62.140625 159.800781 62.230469 159.25 C 62.253906 159.148438 62.273438 159.039062 62.3125 158.949219 C 63.566406 156.019531 63.476562 152.871094 63.695312 149.800781 C 64.417969 139.777344 65.714844 129.855469 68.210938 120.101562 C 69.414062 115.398438 70.277344 110.613281 70.71875 105.757812 C 70.878906 103.941406 70.878906 102.144531 70.597656 100.339844 C 70.429688 99.253906 70.136719 98.210938 69.625 97.25 C 68.671875 95.441406 67.359375 94.992188 65.492188 95.84375 C 63.777344 96.625 62.59375 97.980469 61.648438 99.566406 C 60.265625 101.894531 59.324219 104.402344 58.46875 106.960938 C 56.714844 112.226562 55.699219 117.65625 54.808594 123.121094 C 54.085938 127.558594 53.304688 131.992188 52.8125 136.464844 C 52.359375 140.578125 52.160156 144.710938 51.96875 148.847656 C 51.75 153.753906 51.457031 158.660156 50.703125 163.523438 C 50.625 164.035156 50.542969 164.546875 50.414062 165.050781 C 50.183594 165.933594 49.742188 166.332031 49.199219 166.144531 C 48.496094 165.890625 48.546875 165.320312 48.636719 164.71875 C 48.828125 163.492188 49.027344 162.269531 49.167969 161.035156 C 49.890625 154.65625 49.933594 148.234375 50.34375 141.832031 C 50.703125 136.304688 51.46875 130.828125 52.410156 125.378906 C 52.742188 123.492188 53.042969 121.609375 53.382812 119.722656 C 53.875 116.972656 51.027344 114.382812 48.335938 115.15625 C 46.921875 115.558594 45.898438 116.472656 45.136719 117.703125 C 44.3125 119.039062 43.761719 120.472656 43.269531 121.957031 C 41.3125 127.9375 40.410156 134.117188 39.847656 140.359375 C 39.238281 147.160156 39.257812 153.992188 38.90625 160.816406 C 38.574219 167.425781 37.984375 174.007812 36.917969 180.558594 C 35.65625 188.34375 35.445312 196.199219 36.15625 204.066406 C 36.457031 207.425781 37.402344 210.667969 38.445312 213.867188 C 39.828125 218.140625 41.242188 222.414062 42.308594 226.789062 C 43.761719 232.800781 44.425781 238.910156 44.414062 245.078125 C 44.402344 252.734375 43.953125 260.378906 43.390625 268.015625 C 43.359375 268.425781 43.332031 268.847656 43.210938 269.238281 C 43.078125 269.667969 42.75 269.929688 42.277344 269.890625 C 41.804688 269.851562 41.503906 269.550781 41.464844 269.097656 C 41.414062 268.535156 41.425781 267.964844 41.453125 267.390625 C 41.65625 263.832031 41.855469 260.269531 42.085938 256.707031 C 42.4375 251.492188 42.496094 246.261719 42.328125 241.046875 C 42.097656 233.964844 40.582031 227.109375 38.464844 220.378906 C 37.152344 216.183594 35.617188 212.0625 34.753906 207.746094 C 34.292969 205.460938 33.96875 203.164062 33.960938 200.824219 C 33.921875 194.925781 33.898438 189.027344 34.59375 183.15625 C 34.933594 180.339844 35.425781 177.53125 35.804688 174.71875 C 36.570312 169.132812 36.78125 163.492188 37.058594 157.867188 C 37.371094 151.566406 37.363281 145.246094 37.992188 138.964844 C 38.59375 132.984375 39.519531 127.066406 41.394531 121.335938 C 41.945312 119.660156 42.578125 118.027344 43.542969 116.542969 C 44.753906 114.675781 46.378906 113.410156 48.636719 113.109375 C 50.382812 112.878906 51.910156 113.339844 53.214844 114.542969 C 53.472656 114.785156 53.664062 115.117188 54.027344 115.238281 C 54.367188 114.914062 54.367188 114.484375 54.457031 114.09375 C 55.539062 109.507812 56.792969 104.984375 58.800781 100.699219 C 59.554688 99.105469 60.4375 97.589844 61.648438 96.285156 C 62.652344 95.210938 63.808594 94.359375 65.203125 93.859375 C 67.71875 92.953125 69.828125 93.707031 71.171875 96.003906 C 72.234375 97.832031 72.644531 99.847656 72.746094 101.945312 C 72.9375 105.796875 72.316406 109.570312 71.664062 113.339844 C 70.667969 119.097656 69.042969 124.71875 67.960938 130.457031 C 66.957031 135.742188 66.476562 141.089844 65.914062 146.699219 C 66.386719 146.097656 66.457031 145.625 66.566406 145.15625 C 67.691406 140.367188 68.414062 135.511719 69.144531 130.65625 C 70.480469 121.789062 72.726562 113.148438 75.355469 104.59375 C 76.167969 101.921875 76.921875 99.234375 77.710938 96.566406 C 78.246094 94.78125 78.917969 93.035156 80.019531 91.511719 C 82.007812 88.769531 85.296875 88.140625 87.9375 89.953125 C 89.289062 90.886719 89.984375 92.261719 90.382812 93.796875 C 90.90625 95.765625 91.035156 97.78125 90.984375 99.796875 C 90.894531 103.207031 90.644531 106.617188 90.332031 110.011719 C 89.882812 114.894531 89.25 119.773438 88.558594 124.628906 C 88.539062 124.777344 88.457031 124.917969 88.417969 125.078125 C 88.277344 125.679688 88.4375 126.324219 88.117188 126.886719 C 88.097656 127.277344 88.078125 127.675781 88.054688 128.070312 C 88.105469 128.070312 88.167969 128.070312 88.214844 128.058594 C 88.1875 127.667969 88.15625 127.277344 88.125 126.875 C 88.777344 126.292969 88.527344 125.628906 88.378906 124.988281 Z M 159.316406 96.644531 C 158.664062 95.222656 157.84375 94.109375 157.101562 92.945312 C 155.105469 89.792969 152.976562 86.746094 150.589844 83.886719 C 149.777344 82.902344 149.035156 82.78125 147.929688 83.171875 C 146.425781 83.714844 144.871094 84.125 143.347656 84.597656 C 140.65625 85.429688 138.148438 86.644531 135.882812 88.308594 C 132.800781 90.578125 129.761719 92.894531 126.722656 95.222656 C 126.109375 95.691406 125.546875 96.234375 125.027344 96.808594 C 123.621094 98.332031 123.761719 99.296875 125.519531 100.4375 C 126.8125 101.28125 128.285156 101.59375 129.800781 101.613281 C 133.804688 101.683594 137.597656 100.769531 141.140625 98.902344 C 142.855469 98 144.609375 97.296875 146.535156 97.078125 C 147.878906 96.925781 149.183594 96.605469 150.480469 96.253906 C 151.996094 95.84375 153.507812 95.671875 155.074219 95.984375 C 156.429688 96.234375 157.804688 96.414062 159.316406 96.644531 Z M 113.480469 93.835938 C 115.605469 94.167969 117.550781 93.789062 119.46875 93.074219 C 122.277344 92.03125 124.917969 90.605469 127.683594 89.453125 C 130.253906 88.378906 132.953125 87.515625 135.339844 86.121094 C 138.871094 84.066406 142.625 82.742188 146.515625 81.679688 C 146.925781 81.566406 147.398438 81.539062 147.71875 81.246094 C 147.601562 80.753906 147.257812 80.574219 146.996094 80.34375 C 144.539062 78.117188 141.78125 76.289062 138.980469 74.535156 C 138.167969 74.023438 137.375 73.921875 136.484375 74.09375 C 133.785156 74.59375 131.1875 75.449219 128.679688 76.5625 C 127.613281 77.03125 126.761719 77.714844 126.007812 78.609375 C 122.058594 83.3125 118.0625 87.988281 114.101562 92.683594 C 113.851562 92.972656 113.449219 93.207031 113.480469 93.835938 Z M 117.824219 81.195312 C 118.316406 80.535156 118.664062 80.082031 118.988281 79.621094 C 121.695312 75.71875 124.375 71.785156 127.132812 67.914062 C 127.625 67.222656 127.496094 66.910156 126.972656 66.398438 C 125.136719 64.632812 123.5 62.707031 122.21875 60.5 C 122.027344 60.167969 121.90625 59.777344 121.414062 59.433594 C 117.582031 64.570312 113.789062 69.660156 109.949219 74.816406 C 112.585938 76.960938 115.15625 79.027344 117.824219 81.195312 Z M 105.230469 98.644531 C 105.460938 98.492188 105.523438 98.472656 105.542969 98.441406 C 109.183594 93.175781 112.917969 87.957031 116.71875 82.8125 C 117.160156 82.210938 116.878906 81.9375 116.4375 81.566406 C 114.390625 79.910156 112.367188 78.226562 110.320312 76.550781 C 109.253906 75.6875 109.246094 75.6875 108.433594 76.730469 C 105.722656 80.191406 102.925781 83.574219 100.066406 86.914062 C 98.890625 88.289062 97.738281 89.695312 96.5625 91.058594 C 96.152344 91.539062 96.210938 91.851562 96.765625 92.132812 C 99.964844 93.777344 102.835938 95.863281 105.230469 98.644531 Z M 131.214844 47.253906 C 133.957031 47.648438 136.652344 48.429688 139.253906 49.53125 C 139.722656 49.734375 140.015625 49.671875 140.265625 49.210938 C 141.609375 46.785156 143.074219 44.40625 144.039062 41.777344 C 144.320312 41.003906 144.5 40.203125 144.480469 39.359375 C 144.429688 37.0625 142.714844 36.050781 140.65625 37.113281 C 139.773438 37.574219 139.0625 38.246094 138.371094 38.9375 C 135.921875 41.375 133.714844 44.035156 131.398438 46.59375 C 131.257812 46.742188 131.105469 46.90625 131.214844 47.253906 Z M 141.890625 50.617188 C 142.753906 51.039062 143.585938 51.429688 144.410156 51.859375 C 145 52.183594 145.34375 51.980469 145.664062 51.460938 C 147.089844 49.121094 148.644531 46.875 150.269531 44.675781 C 150.78125 43.996094 150.71875 43.523438 150.089844 42.980469 C 149.425781 42.410156 148.855469 41.738281 148.210938 41.136719 C 147.710938 40.664062 147.320312 40.050781 146.648438 39.742188 C 146.265625 41.085938 146.265625 41.085938 146.96875 42.050781 C 148.3125 43.875 147.75 46.292969 145.734375 47.285156 C 145.222656 47.535156 144.671875 47.6875 144.089844 47.667969 C 143.707031 47.648438 143.367188 47.726562 143.175781 48.109375 C 142.765625 48.910156 142.183594 49.644531 141.890625 50.617188 Z M 129.070312 68.484375 C 125.367188 74.203125 121.375 79.601562 117.542969 85.117188 C 117.523438 85.140625 117.550781 85.21875 117.570312 85.25 C 117.710938 85.398438 117.722656 85.097656 117.640625 85.429688 C 122.195312 80.234375 126.402344 74.886719 130.984375 69.859375 C 130.355469 69.289062 129.851562 68.855469 129.070312 68.484375 Z M 138.167969 36.269531 C 137.164062 36.28125 136.363281 36.730469 135.539062 37.101562 C 134.085938 37.765625 132.703125 38.558594 131.597656 39.742188 C 130.703125 40.695312 130.242188 41.796875 130.515625 43.121094 C 130.574219 43.421875 130.65625 43.765625 130.957031 43.886719 C 131.316406 44.023438 131.496094 43.675781 131.6875 43.464844 C 132.679688 42.351562 133.664062 41.234375 134.628906 40.09375 C 135.75 38.757812 136.945312 37.515625 138.167969 36.269531 Z M 161.945312 49.785156 C 161.644531 48.890625 161.035156 49.042969 160.570312 48.992188 C 159.449219 48.851562 158.304688 48.8125 157.179688 48.671875 C 155.285156 48.429688 153.390625 48.148438 151.503906 47.878906 C 151.050781 47.816406 150.578125 47.648438 150.238281 48.148438 C 149.578125 49.140625 148.902344 50.125 148.242188 51.109375 C 148.3125 51.1875 148.382812 51.269531 148.453125 51.347656 C 152.6875 49.070312 157.242188 49.421875 161.945312 49.785156 Z M 94.566406 93.757812 C 94.828125 94.117188 95.25 94.21875 95.621094 94.378906 C 98.488281 95.652344 100.96875 97.460938 103.175781 99.675781 C 103.464844 99.976562 103.738281 100.820312 104.339844 100.25 C 104.851562 99.757812 104.199219 99.335938 103.90625 98.953125 C 103.667969 98.621094 103.355469 98.34375 103.066406 98.050781 C 101.097656 96.042969 98.820312 94.460938 96.34375 93.15625 C 95.257812 92.59375 95.269531 92.582031 94.566406 93.757812 Z M 134.957031 72.367188 C 132.359375 70.542969 132.910156 70.851562 131.246094 72.566406 C 130.964844 72.859375 130.644531 73.128906 130.515625 73.710938 C 131.988281 73.261719 133.382812 72.839844 134.957031 72.367188 Z M 144.089844 46.554688 C 145.53125 46.371094 146.253906 45.722656 146.535156 44.636719 C 146.71875 43.945312 146.617188 43.261719 145.84375 42.792969 C 145.261719 44.035156 144.730469 45.1875 144.089844 46.554688 Z M 144.089844 46.554688 " fill-opacity="1" fill-rule="nonzero"/></g><path fill="#a9a0f0" d="M 135.863281 55.222656 C 135.941406 59.144531 132.109375 62.476562 128.777344 62.835938 C 128.527344 62.867188 128.265625 62.867188 128.007812 62.835938 C 127.574219 62.796875 127.101562 62.65625 127.132812 62.164062 C 127.171875 61.582031 127.65625 61.722656 128.078125 61.742188 C 131.007812 61.902344 135.378906 58.363281 134.558594 54.289062 C 134.515625 54.089844 134.496094 53.878906 134.476562 53.675781 C 134.4375 53.265625 134.347656 52.753906 134.910156 52.695312 C 135.410156 52.644531 135.570312 53.136719 135.652344 53.535156 C 135.761719 54.089844 135.792969 54.660156 135.863281 55.222656 Z M 135.863281 55.222656 " fill-opacity="1" fill-rule="nonzero"/><path fill="#a9a0f0" d="M 119.929688 155.828125 C 120 155.167969 120.039062 154.496094 120.152344 153.832031 C 120.222656 153.359375 120.109375 152.578125 120.792969 152.617188 C 121.535156 152.660156 121.214844 153.402344 121.203125 153.871094 C 121.195312 154.695312 121.144531 155.519531 121.132812 156.339844 C 121.125 156.703125 121.144531 157.0625 121.195312 157.425781 C 121.484375 159.703125 122.457031 160.796875 124.675781 161.40625 C 125.117188 161.527344 125.929688 161.40625 125.769531 162.160156 C 125.609375 162.941406 124.886719 162.621094 124.355469 162.519531 C 122.136719 162.089844 120.652344 160.632812 120.230469 158.449219 C 120.058594 157.585938 119.917969 156.722656 119.929688 155.828125 Z M 119.929688 155.828125 " fill-opacity="1" fill-rule="nonzero"/><path fill="#a9a0f0" d="M 63.828125 104.652344 C 62.996094 104.601562 62.042969 104.402344 61.167969 103.921875 C 60.847656 103.738281 60.488281 103.519531 60.648438 103.085938 C 60.828125 102.605469 61.230469 102.796875 61.558594 102.917969 C 61.75 102.988281 61.929688 103.097656 62.121094 103.167969 C 64.539062 104.050781 66.527344 103.167969 67.507812 100.761719 C 67.738281 100.1875 67.859375 99.574219 68.042969 98.984375 C 68.140625 98.644531 68.382812 98.460938 68.742188 98.5625 C 69.042969 98.644531 69.074219 98.925781 69.085938 99.183594 C 69.285156 101.753906 66.617188 104.601562 63.828125 104.652344 Z M 63.828125 104.652344 " fill-opacity="1" fill-rule="nonzero"/><path fill="#a9a0f0" d="M 84.273438 100.621094 C 82.265625 100.660156 80.101562 98.441406 80.230469 96.484375 C 80.25 96.195312 80.371094 95.972656 80.632812 95.894531 C 80.921875 95.804688 81.125 96.003906 81.222656 96.253906 C 81.324219 96.496094 81.375 96.746094 81.445312 96.996094 C 81.585938 97.5 81.824219 97.960938 82.136719 98.371094 C 82.738281 99.175781 83.53125 99.585938 84.554688 99.445312 C 85.597656 99.304688 86.160156 98.632812 86.492188 97.679688 C 86.640625 97.238281 86.601562 96.425781 87.324219 96.617188 C 88.097656 96.828125 87.726562 97.570312 87.59375 98.0625 C 87.171875 99.605469 85.839844 100.589844 84.273438 100.621094 Z M 84.273438 100.621094 " fill-opacity="1" fill-rule="nonzero"/><path fill="#a9a0f0" d="M 46.410156 124.234375 C 45.609375 124.175781 44.726562 123.90625 44.011719 123.261719 C 43.710938 122.992188 43.339844 122.652344 43.710938 122.230469 C 44.023438 121.867188 44.34375 122.167969 44.644531 122.371094 C 44.984375 122.601562 45.335938 122.839844 45.71875 122.972656 C 46.890625 123.375 48.046875 122.972656 48.878906 121.9375 C 49.511719 121.15625 49.773438 120.214844 50.03125 119.261719 C 50.121094 118.917969 50.113281 118.539062 50.34375 118.238281 C 50.472656 118.054688 50.664062 117.945312 50.863281 117.976562 C 51.054688 118.007812 51.226562 118.125 51.285156 118.367188 C 51.910156 120.675781 49.019531 124.277344 46.410156 124.234375 Z M 46.410156 124.234375 " fill-opacity="1" fill-rule="nonzero"/><path fill="#a9a0f0" d="M 98.046875 108.753906 C 96.792969 108.6875 95.769531 108.144531 94.980469 107.179688 C 94.707031 106.859375 94.476562 106.417969 94.878906 106.078125 C 95.25 105.765625 95.519531 106.105469 95.761719 106.398438 C 95.921875 106.597656 96.101562 106.789062 96.304688 106.941406 C 97.675781 108.011719 99.203125 107.792969 100.195312 106.367188 C 100.617188 105.777344 100.878906 105.09375 101.097656 104.402344 C 101.1875 104.109375 101.269531 103.800781 101.410156 103.527344 C 101.53125 103.296875 101.761719 103.136719 102.050781 103.246094 C 102.324219 103.347656 102.421875 103.578125 102.433594 103.859375 C 102.464844 105.355469 100.789062 107.894531 99.402344 108.476562 C 98.972656 108.675781 98.53125 108.777344 98.046875 108.753906 Z M 98.046875 108.753906 " fill-opacity="1" fill-rule="nonzero"/><path fill="#a9a0f0" d="M 103.71875 94.410156 C 101.902344 94.390625 100.296875 92.082031 101.1875 90.507812 C 101.960938 89.132812 102.652344 87.675781 103.808594 86.535156 C 105.472656 84.867188 107.238281 85 108.625 86.925781 C 109.285156 87.847656 109.457031 88.839844 108.914062 89.835938 C 107.929688 91.648438 106.277344 92.84375 104.761719 94.160156 C 104.488281 94.378906 104.089844 94.429688 103.71875 94.410156 Z M 105.953125 91.417969 C 106.738281 90.859375 107.25 90.285156 107.671875 89.644531 C 108.3125 88.652344 108.121094 87.816406 107.089844 86.984375 C 106.226562 86.292969 105.703125 86.304688 104.8125 87.15625 C 104.269531 87.667969 103.707031 88.199219 103.464844 89.042969 C 104.699219 89.382812 105.453125 90.175781 105.953125 91.417969 Z M 103.136719 90.285156 C 102.542969 90.304688 102.183594 90.757812 102.191406 91.441406 C 102.210938 92.34375 103.003906 93.226562 103.765625 93.207031 C 104.328125 93.183594 104.710938 92.703125 104.710938 92.042969 C 104.710938 91.136719 103.917969 90.253906 103.136719 90.285156 Z M 103.136719 90.285156 " fill-opacity="1" fill-rule="nonzero"/></svg>