<svg xmlns="http://www.w3.org/2000/svg" xmlns:xlink="http://www.w3.org/1999/xlink" width="400" zoomAndPan="magnify" viewBox="0 0 300 299.999988" height="400" preserveAspectRatio="xMidYMid meet" version="1.0"><path fill="currentColor" d="M 87.488281 35.449219 C 98.851562 33.75 110.605469 35.074219 122.03125 35.636719 C 134.347656 36.242188 146.699219 36.429688 159.03125 36.394531 C 171.367188 36.359375 183.699219 35.976562 195.988281 35.039062 C 198.832031 34.828125 201.921875 34.09375 204.765625 34.113281 C 209.667969 34.140625 210.433594 38.621094 211.308594 42.507812 C 212.699219 48.71875 212.972656 55.128906 213.464844 61.453125 C 215.289062 85.167969 217.652344 108.792969 220.894531 132.355469 C 224.203125 156.34375 228.820312 180.03125 232.863281 203.886719 C 234.894531 215.828125 235.589844 228.566406 230.582031 239.910156 C 228.535156 244.542969 223.953125 252.003906 218.730469 253.613281 C 213.097656 255.363281 213.480469 248.570312 212.847656 245.21875 C 212.472656 243.25 211.914062 241.761719 210.558594 240.222656 C 209.675781 239.222656 209.257812 241.023438 209.640625 241.699219 C 212.011719 245.988281 210.292969 251.28125 213.515625 255.253906 C 216.511719 258.933594 219.988281 257.199219 223.25 254.816406 C 230.894531 249.230469 235.617188 239.722656 237.363281 230.578125 C 239.683594 218.476562 237.339844 205.957031 234.726562 194.09375 C 231.769531 180.671875 228.765625 167.28125 226.207031 153.777344 C 220.984375 126.1875 217.535156 98.0625 215.621094 70.054688 C 215.164062 63.40625 214.996094 56.722656 214.273438 50.09375 C 213.714844 44.921875 213.214844 38.808594 210.941406 34.042969 C 209.0625 30.078125 205.042969 30.496094 201.15625 30.511719 C 193.539062 30.539062 185.898438 30.949219 178.28125 31.199219 C 162.4375 31.714844 146.601562 32.171875 130.746094 32.125 C 123.117188 32.109375 115.5 32.144531 107.871094 31.894531 C 100.945312 31.671875 93.859375 30.859375 87.257812 33.363281 C 86.542969 33.632812 86.625 35.566406 87.488281 35.441406 Z M 87.488281 35.449219 " fill-opacity="1" fill-rule="nonzero"/><path fill="currentColor" d="M 208.777344 231.726562 C 203.332031 219.519531 208.070312 205.929688 210.363281 193.515625 C 212.769531 180.425781 214.703125 167.226562 215.601562 153.949219 C 216.46875 141.203125 216.691406 128.40625 216.609375 115.636719 C 216.519531 102.410156 216.574219 89.019531 214.808594 75.882812 C 214.640625 74.609375 213.117188 74.632812 213.027344 75.925781 C 212.082031 89.4375 212.984375 103.042969 213.089844 116.582031 C 213.195312 130.910156 212.929688 145.222656 211.992188 159.527344 C 211.09375 173.207031 209.667969 186.617188 206.929688 200.066406 C 204.703125 211.035156 202.40625 222.539062 207.269531 233.144531 C 208.019531 234.777344 209.300781 232.886719 208.785156 231.726562 Z M 208.777344 231.726562 " fill-opacity="1" fill-rule="nonzero"/><path fill="currentColor" d="M 86.25 36.511719 C 84.46875 35.378906 83.363281 35.238281 81.332031 35.796875 C 80.902344 35.914062 80.816406 36.582031 80.804688 36.929688 C 80.34375 46.4375 80.34375 55.847656 80.851562 65.339844 C 81.347656 74.75 80.796875 84.320312 80.914062 93.757812 C 81.144531 112.089844 81.792969 130.421875 78.1875 148.484375 C 72.714844 175.851562 60.308594 209.886719 81.945312 233.679688 C 82.480469 234.257812 82.773438 232.867188 82.515625 232.484375 C 63.410156 204.359375 80.074219 170.09375 83.078125 140.011719 C 84.746094 123.273438 82.347656 106.074219 82.054688 89.292969 C 81.902344 80.175781 81.402344 71.007812 82.0625 61.917969 C 82.363281 57.730469 82.347656 53.523438 82.355469 49.324219 C 82.363281 46.957031 82.375 44.59375 82.355469 42.222656 C 82.355469 39.300781 82.054688 36.929688 85.957031 37.667969 C 86.507812 37.777344 86.644531 36.769531 86.242188 36.519531 Z M 86.25 36.511719 " fill-opacity="1" fill-rule="nonzero"/><path fill="currentColor" d="M 84.066406 239.910156 C 83.953125 244.898438 83.53125 250.558594 86.097656 255.058594 C 88.613281 259.460938 93.042969 261.304688 97.863281 262.046875 C 113.171875 264.398438 128.847656 262.359375 144.121094 265.15625 C 151.535156 266.511719 158.828125 268.613281 166.355469 269.289062 C 173.886719 269.96875 181.980469 269.246094 189.617188 267.8125 C 197.253906 266.375 204.214844 264.433594 211.394531 262.332031 C 216.15625 260.941406 222 259.898438 221.5625 253.738281 C 221.457031 252.296875 219.578125 250.488281 218.953125 252.734375 C 218.363281 254.863281 213.527344 255.558594 211.824219 256.082031 C 208.855469 256.992188 205.898438 257.894531 202.914062 258.738281 C 196.585938 260.539062 190.195312 262.082031 183.699219 263.105469 C 177.378906 264.09375 170.964844 264.550781 164.574219 264.132812 C 158.183594 263.710938 152.125 262.257812 145.878906 261.492188 C 133.625 259.988281 121.230469 260.15625 108.914062 259.628906 C 103.398438 259.398438 96.652344 259.738281 91.597656 257.136719 C 85.378906 253.9375 84.636719 246.085938 84.683594 239.890625 C 84.683594 239.320312 84.09375 239.347656 84.078125 239.910156 Z M 84.066406 239.910156 " fill-opacity="1" fill-rule="nonzero"/><path fill="currentColor" d="M 84.199219 51.542969 C 94.644531 51.179688 104.929688 48.808594 115.300781 47.8125 C 125.675781 46.8125 136.742188 46.652344 147.4375 46.644531 C 158.132812 46.632812 168.300781 47.132812 178.71875 48.050781 C 183.921875 48.515625 189.125 49.015625 194.320312 49.574219 C 199.515625 50.136719 205.320312 51.4375 210.71875 51.125 C 211.832031 51.0625 211.851562 48.78125 210.886719 48.46875 C 206.148438 46.945312 200.90625 46.820312 195.96875 46.367188 C 190.785156 45.894531 185.589844 45.539062 180.382812 45.316406 C 169.40625 44.84375 158.382812 44.734375 147.394531 44.808594 C 136.40625 44.878906 125.980469 45.589844 115.265625 46.097656 C 104.796875 46.597656 94.191406 46.546875 83.925781 49.039062 C 82.988281 49.273438 83.175781 51.589844 84.210938 51.554688 Z M 84.199219 51.542969 " fill-opacity="1" fill-rule="nonzero"/><path fill="currentColor" d="M 201.210938 35.316406 C 201.921875 37.355469 202.546875 39.425781 203.097656 41.519531 C 203.492188 43.007812 203.730469 44.636719 204.648438 45.902344 C 204.953125 46.332031 205.390625 45.976562 205.433594 45.566406 C 205.878906 41.867188 203.777344 37.527344 202.457031 34.148438 C 201.914062 32.75 200.878906 34.371094 201.210938 35.316406 Z M 201.210938 35.316406 " fill-opacity="1" fill-rule="nonzero"/><path fill="currentColor" d="M 192.929688 33.488281 C 193.742188 35.351562 194.464844 37.25 195.007812 39.210938 C 195.410156 40.636719 195.472656 42.320312 196.328125 43.542969 C 196.648438 43.996094 197.058594 43.59375 197.128906 43.195312 C 197.40625 41.574219 196.761719 39.886719 196.292969 38.335938 C 195.675781 36.324219 194.910156 34.371094 194.027344 32.457031 C 193.476562 31.28125 192.566406 32.644531 192.929688 33.480469 Z M 192.929688 33.488281 " fill-opacity="1" fill-rule="nonzero"/><path fill="currentColor" d="M 186.925781 36.226562 C 186.71875 37.867188 186.675781 39.496094 186.84375 41.136719 C 186.960938 42.269531 186.917969 43.90625 188.039062 44.511719 C 188.332031 44.671875 188.617188 44.316406 188.699219 44.078125 C 189.082031 43.015625 188.671875 42.082031 188.503906 41.011719 C 188.269531 39.613281 188.234375 38.1875 188.351562 36.777344 C 188.441406 35.628906 187.113281 34.726562 186.925781 36.214844 Z M 186.925781 36.226562 " fill-opacity="1" fill-rule="nonzero"/><path fill="currentColor" d="M 83.621094 38.507812 C 83.683594 37.792969 83.773438 37.109375 83.914062 36.402344 C 84.164062 35.113281 82.75 34.238281 82.355469 35.796875 C 81.792969 38.042969 81.671875 40.414062 81.554688 42.722656 C 81.457031 44.710938 81.296875 46.867188 82.070312 48.738281 C 82.25 49.15625 82.695312 49.148438 82.847656 48.71875 C 83.480469 46.964844 83.34375 45.003906 83.425781 43.148438 C 83.523438 40.789062 83.851562 38.445312 83.933594 36.082031 L 82.339844 36.117188 C 82.417969 36.847656 82.453125 37.5625 82.472656 38.292969 C 82.488281 39.148438 83.53125 39.539062 83.628906 38.496094 Z M 83.621094 38.507812 " fill-opacity="1" fill-rule="nonzero"/><path fill="currentColor" d="M 87.257812 37.257812 C 86.207031 40.386719 85.476562 45.714844 87.890625 48.425781 C 88.453125 49.050781 88.789062 48.140625 88.726562 47.648438 C 88.539062 46.117188 87.925781 44.699219 87.785156 43.148438 C 87.621094 41.429688 87.785156 39.761719 88.246094 38.097656 C 88.441406 37.382812 87.621094 36.179688 87.265625 37.257812 Z M 87.257812 37.257812 " fill-opacity="1" fill-rule="nonzero"/><path fill="currentColor" d="M 93.113281 36.519531 C 93.164062 38.25 93.34375 39.96875 93.710938 41.652344 C 93.96875 42.863281 94.191406 44.691406 95.242188 45.457031 C 95.5625 45.691406 95.882812 45.359375 95.902344 45.019531 C 95.992188 43.710938 95.464844 42.597656 95.152344 41.332031 C 94.761719 39.738281 94.546875 38.125 94.476562 36.484375 C 94.421875 35.210938 93.066406 35.226562 93.105469 36.519531 Z M 93.113281 36.519531 " fill-opacity="1" fill-rule="nonzero"/><path fill="currentColor" d="M 99.804688 35.984375 C 98.859375 38.257812 98.003906 40.796875 99.011719 43.195312 C 99.652344 44.726562 101.390625 46.457031 103.039062 45.191406 C 103.316406 44.976562 103.316406 44.273438 103.011719 44.085938 C 102.050781 43.480469 100.945312 43.085938 100.410156 42 C 99.652344 40.457031 100.554688 38.585938 101.140625 37.117188 C 101.542969 36.117188 100.382812 34.578125 99.804688 35.984375 Z M 99.804688 35.984375 " fill-opacity="1" fill-rule="nonzero"/><path fill="currentColor" d="M 107.789062 36.9375 C 106.855469 37.632812 106.445312 38.835938 106.445312 39.96875 C 106.445312 41.027344 106.78125 42.4375 107.835938 42.917969 C 108.28125 43.125 108.714844 42.980469 108.902344 42.5 C 109.109375 41.972656 108.824219 41.449219 108.566406 41.019531 C 108.136719 40.308594 107.960938 39.71875 108.691406 39.15625 C 109.527344 38.515625 108.914062 36.101562 107.78125 36.9375 Z M 107.789062 36.9375 " fill-opacity="1" fill-rule="nonzero"/><path fill="currentColor" d="M 115.425781 37.714844 C 115.425781 37.867188 115.4375 38.007812 115.453125 38.160156 C 115.5 38.632812 115.660156 39.351562 116.238281 39.441406 C 116.773438 39.523438 117.121094 38.945312 117.164062 38.472656 C 117.191406 38.203125 117.199219 37.9375 117.21875 37.667969 C 117.234375 37.152344 116.90625 36.316406 116.292969 36.324219 C 115.675781 36.332031 115.410156 37.207031 115.425781 37.714844 Z M 115.425781 37.714844 " fill-opacity="1" fill-rule="nonzero"/><path fill="currentColor" d="M 162.863281 158.242188 C 160.207031 154.410156 155.324219 158.734375 152.738281 160.613281 C 147.144531 164.675781 141.976562 169.3125 137.332031 174.4375 C 130.292969 182.199219 121.949219 192.445312 129.820312 202.523438 C 132.957031 206.554688 138.019531 211.125 143.242188 212.007812 C 149.210938 213.015625 154.789062 209.082031 159.53125 206.007812 C 164.273438 202.933594 168.949219 199.59375 172.070312 194.851562 C 175.199219 190.101562 176.25 184.015625 176.613281 178.4375 C 177.371094 166.921875 172.105469 150.835938 158.371094 150.230469 C 156.972656 150.167969 156.980469 153.199219 158.160156 153.546875 C 171.703125 157.582031 175.777344 170.320312 173.957031 183.355469 C 172.996094 190.226562 169.753906 195.21875 164.40625 199.496094 C 160.207031 202.847656 155.207031 206.375 150.171875 208.328125 C 143.445312 210.9375 137.984375 207.585938 133.222656 202.945312 C 129.898438 199.699219 127.511719 196.082031 128.546875 191.152344 C 129.195312 188.078125 131.128906 185.359375 132.984375 182.882812 C 136.609375 178.027344 140.761719 173.527344 145.238281 169.4375 C 147.765625 167.121094 158.71875 156.09375 162.222656 159.589844 C 162.863281 160.230469 163.15625 158.660156 162.863281 158.234375 Z M 162.863281 158.242188 " fill-opacity="1" fill-rule="nonzero"/><path fill="currentColor" d="M 159.058594 167.21875 C 158.34375 168.714844 158.070312 170.816406 159.015625 172.277344 C 159.941406 173.714844 161.722656 173.6875 162.695312 172.339844 C 163.621094 171.066406 163.878906 169.027344 163.539062 167.519531 C 163.28125 166.386719 162.328125 165.941406 161.332031 166.46875 C 160.503906 166.90625 160.164062 167.75 160.339844 168.667969 C 160.414062 169.0625 160.6875 169.410156 161.109375 169.300781 C 161.589844 169.179688 161.625 169.117188 161.972656 169.453125 L 161.394531 168.027344 C 161.4375 168.695312 161.492188 168.929688 161.332031 169.550781 C 161.296875 169.703125 161.136719 170.070312 160.910156 170.09375 C 160.796875 170.113281 160.652344 170.042969 160.539062 170.007812 C 160.511719 170.007812 160.546875 170.175781 160.566406 170.023438 C 160.546875 170.210938 160.601562 169.703125 160.566406 169.972656 C 160.582031 169.820312 160.609375 169.667969 160.625 169.507812 C 160.679688 169.1875 160.726562 169.015625 160.824219 168.722656 C 161.046875 168.074219 160.992188 167.101562 160.414062 166.636719 C 159.832031 166.175781 159.308594 166.671875 159.050781 167.21875 Z M 159.058594 167.21875 " fill-opacity="1" fill-rule="nonzero"/><path fill="currentColor" d="M 145.238281 173.839844 C 143.488281 175.789062 143.035156 179.863281 146.066406 180.949219 C 148.855469 181.949219 150.441406 177.980469 148.898438 176.023438 C 148.480469 175.496094 147.882812 175.488281 147.492188 176.058594 C 147.0625 176.679688 147.1875 177.582031 147.542969 178.195312 C 147.492188 178.105469 147.519531 177.875 147.480469 177.867188 C 147.464844 177.867188 147.394531 177.980469 147.367188 177.980469 C 147.234375 177.980469 147.019531 178.144531 146.847656 178.144531 C 146.652344 178.144531 146.464844 178.089844 146.289062 178.007812 C 145.433594 177.589844 145.691406 176.839844 146.214844 176.226562 C 146.652344 175.710938 146.769531 174.945312 146.5 174.3125 C 146.304688 173.855469 145.699219 173.332031 145.238281 173.839844 Z M 145.238281 173.839844 " fill-opacity="1" fill-rule="nonzero"/><path fill="currentColor" d="M 161.125 183.472656 C 160.964844 184.210938 160.992188 185.015625 161.1875 185.734375 C 161.382812 186.457031 161.804688 187.6875 162.660156 187.75 C 164.386719 187.875 165.152344 185.761719 164.851562 184.371094 C 164.699219 183.667969 164.234375 182.875 163.488281 182.6875 C 162.738281 182.5 162.070312 183.054688 162.089844 183.863281 C 162.105469 184.453125 162.613281 184.996094 162.925781 185.253906 C 162.898438 185.183594 162.917969 185.210938 162.96875 185.34375 C 162.933594 185.238281 162.925781 185.128906 162.933594 185.015625 C 162.933594 184.960938 163.015625 184.605469 162.996094 184.566406 C 163.015625 184.640625 162.730469 184.691406 162.578125 184.691406 L 163.300781 185.121094 C 163.300781 185.121094 163.050781 184.765625 163.148438 184.933594 C 163.105469 184.84375 163.070312 184.753906 163.03125 184.667969 C 163.058594 184.765625 163.058594 184.773438 163.03125 184.667969 C 163.015625 184.59375 162.996094 184.523438 162.988281 184.453125 C 163.007812 184.585938 163.007812 184.59375 163.007812 184.488281 C 163.007812 184.382812 163.007812 184.390625 162.996094 184.523438 C 163.007812 184.425781 163.023438 184.328125 163.050781 184.230469 C 163.167969 183.625 162.96875 182.644531 162.320312 182.394531 C 161.625 182.136719 161.242188 182.945312 161.136719 183.472656 Z M 161.125 183.472656 " fill-opacity="1" fill-rule="nonzero"/><path fill="currentColor" d="M 145.941406 192.347656 C 144.621094 192.980469 144.195312 194.664062 144.453125 196.011719 C 144.683594 197.25 145.664062 198.558594 147.074219 198.273438 C 148.480469 197.988281 149.40625 196.429688 149.175781 195.003906 C 149.058594 194.28125 148.648438 193.792969 148 193.515625 C 147.527344 193.308594 146.886719 193.285156 146.476562 193.65625 C 146.296875 193.816406 146.289062 194.253906 146.492188 194.40625 C 146.769531 194.601562 147.035156 194.710938 147.285156 194.949219 C 147.339844 195.003906 147.402344 195.058594 147.464844 195.101562 C 147.402344 194.996094 147.402344 194.996094 147.464844 195.121094 C 147.535156 195.246094 147.5625 195.316406 147.589844 195.457031 L 147.570312 194.808594 C 147.597656 194.636719 147.527344 194.835938 147.570312 194.796875 C 147.679688 194.726562 147.402344 194.914062 147.554688 194.808594 C 147.445312 194.878906 147.4375 194.90625 147.234375 195.003906 C 146.886719 195.164062 146.75 195.128906 146.414062 195.058594 C 146.511719 195.074219 146.414062 195.03125 146.367188 195.011719 C 146.441406 195.109375 146.449219 195.121094 146.394531 195.046875 C 146.351562 194.984375 146.351562 194.984375 146.394531 195.058594 C 146.484375 195.234375 146.351562 194.726562 146.441406 195.164062 C 146.457031 195.261719 146.457031 195.449219 146.449219 195.234375 C 146.464844 195.761719 146.484375 195.136719 146.441406 195.386719 C 146.402344 195.554688 146.582031 195.246094 146.414062 195.476562 C 146.519531 195.332031 146.464844 195.449219 146.414062 195.457031 C 146.527344 195.441406 146.421875 195.421875 146.546875 195.359375 C 147.222656 195.019531 147.359375 194.066406 147.222656 193.410156 C 147.109375 192.863281 146.609375 192.007812 145.921875 192.339844 Z M 145.941406 192.347656 " fill-opacity="1" fill-rule="nonzero"/><path fill="currentColor" d="M 138.847656 195.171875 C 138.785156 196.285156 139.488281 197.578125 140.65625 197.773438 C 142.027344 198.007812 143.105469 196.3125 142.507812 195.101562 L 142.609375 196.019531 C 142.652344 195.601562 142.632812 195.253906 142.5 194.851562 C 142.375 194.476562 141.929688 194.210938 141.601562 194.511719 C 141.503906 194.601562 141.429688 194.710938 141.351562 194.816406 L 141.867188 194.46875 C 141.566406 194.53125 141.429688 194.613281 141.183594 194.78125 C 141.128906 194.816406 140.949219 194.941406 140.824219 194.949219 C 140.773438 194.949219 140.621094 194.90625 140.613281 194.90625 C 140.523438 194.886719 140.558594 194.789062 140.550781 194.851562 C 140.539062 194.914062 140.636719 195.058594 140.636719 195.128906 C 140.636719 194.613281 140.335938 193.773438 139.710938 193.78125 C 139.035156 193.800781 138.882812 194.664062 138.847656 195.171875 Z M 138.847656 195.171875 " fill-opacity="1" fill-rule="nonzero"/><path fill="currentColor" d="M 137.367188 169.390625 C 124.535156 163.226562 106.167969 164.898438 99.734375 179.433594 C 97.292969 184.941406 98.851562 189.65625 104.109375 192.578125 C 109.867188 195.777344 118.992188 198.878906 124.640625 194.128906 C 125.335938 193.550781 125.097656 191.484375 123.9375 191.804688 C 118.144531 193.433594 112.914062 192.304688 107.414062 190.058594 C 104.527344 188.882812 101.800781 187.742188 101.535156 184.417969 C 101.265625 181.09375 103.398438 178.144531 105.785156 175.78125 C 114.179688 167.421875 126.621094 168.277344 136.976562 171.90625 C 138.1875 172.332031 138.3125 169.847656 137.367188 169.402344 Z M 137.367188 169.390625 " fill-opacity="1" fill-rule="nonzero"/><path fill="currentColor" d="M 107.648438 179.285156 C 106.238281 180.398438 106.703125 183.578125 108.601562 183.910156 C 110.695312 184.28125 111.515625 180.90625 110.367188 179.605469 C 110.007812 179.203125 109.546875 179.050781 109.164062 179.523438 C 108.777344 179.996094 108.707031 180.796875 108.964844 181.332031 C 109.101562 181.589844 108.957031 181.144531 108.976562 181.296875 C 109.011719 181.527344 108.984375 181.351562 108.976562 181.226562 L 108.992188 181.03125 C 108.976562 181.144531 108.976562 181.15625 108.992188 181.039062 C 109.019531 180.921875 109.019531 180.933594 108.984375 181.039062 L 109.046875 180.914062 C 109.046875 180.914062 108.867188 181.136719 108.976562 181.03125 C 109.082031 180.921875 108.867188 181.101562 108.867188 181.109375 C 108.992188 181.019531 108.886719 181.101562 108.804688 181.109375 C 108.691406 181.128906 108.964844 181.144531 108.734375 181.109375 C 108.671875 181.101562 108.601562 181.09375 108.707031 181.109375 C 108.617188 181.066406 108.601562 181.066406 108.65625 181.109375 C 108.707031 181.15625 108.699219 181.144531 108.617188 181.082031 C 108.46875 181.082031 108.65625 180.976562 108.617188 181.101562 C 108.554688 181.003906 108.546875 181.003906 108.59375 181.082031 C 108.628906 181.15625 108.628906 181.164062 108.59375 181.101562 C 108.503906 180.957031 108.566406 180.957031 108.59375 181.109375 C 108.609375 181.296875 108.609375 181.34375 108.609375 181.234375 C 108.609375 181.15625 108.609375 181.171875 108.609375 181.28125 C 108.582031 181.386719 108.53125 181.511719 108.511719 181.617188 L 108.554688 181.539062 C 108.476562 181.628906 108.484375 181.628906 108.574219 181.539062 C 109.046875 181.121094 109.074219 180.265625 108.839844 179.71875 C 108.628906 179.203125 108.128906 178.882812 107.636719 179.273438 Z M 107.648438 179.285156 " fill-opacity="1" fill-rule="nonzero"/><path fill="currentColor" d="M 120.285156 185.324219 C 122.058594 186.449219 124.792969 187.804688 126.308594 185.558594 C 127.019531 184.503906 127.253906 181.457031 125.347656 181.511719 C 124.875 181.519531 124.835938 182.359375 125.070312 182.632812 C 125.132812 182.707031 125.417969 183.125 125.355469 183.042969 C 125.273438 182.929688 125.632812 182.410156 125.308594 183.042969 C 125.160156 183.347656 125.023438 183.667969 124.730469 183.863281 C 123.589844 184.613281 121.851562 183.480469 120.898438 182.902344 C 119.945312 182.324219 119.480469 184.828125 120.292969 185.335938 Z M 120.285156 185.324219 " fill-opacity="1" fill-rule="nonzero"/><path fill="currentColor" d="M 113.75 179.746094 C 115.585938 180.265625 117.921875 180.265625 119.171875 178.625 C 119.457031 178.25 119.394531 177.277344 118.867188 177.117188 C 118.066406 176.867188 117.316406 177.046875 116.503906 177.136719 C 115.695312 177.226562 114.777344 177.199219 113.921875 177.117188 C 112.824219 177.011719 112.816406 179.488281 113.75 179.746094 Z M 113.75 179.746094 " fill-opacity="1" fill-rule="nonzero"/><path fill="currentColor" d="M 126.203125 175.167969 C 127.003906 175.390625 128.039062 175.84375 128.847656 175.566406 C 129.238281 175.433594 129.390625 174.855469 129.410156 174.507812 C 129.4375 174.050781 129.320312 173.589844 128.980469 173.269531 C 128.382812 172.699219 127.394531 172.589844 126.628906 172.386719 C 125.988281 172.226562 125.570312 172.839844 125.496094 173.417969 C 125.425781 173.953125 125.542969 174.988281 126.203125 175.167969 Z M 126.203125 175.167969 " fill-opacity="1" fill-rule="nonzero"/><path fill="currentColor" d="M 126.183594 174.703125 C 126.183594 174.703125 126.265625 175.03125 126.246094 174.953125 C 126.21875 174.84375 126.246094 175.191406 126.253906 175.015625 C 126.238281 175.308594 126.203125 175.601562 126.191406 175.898438 L 126.28125 175.328125 C 126.191406 175.675781 126.101562 176.023438 126.003906 176.371094 C 125.933594 176.636719 125.933594 177.574219 126.449219 177.464844 C 127.082031 177.339844 127.394531 176.914062 127.671875 176.351562 C 128.011719 175.664062 127.957031 174.703125 127.777344 173.988281 C 127.671875 173.535156 127.289062 172.875 126.71875 173.117188 C 126.183594 173.347656 126.03125 174.210938 126.164062 174.703125 Z M 126.183594 174.703125 " fill-opacity="1" fill-rule="nonzero"/><path fill="currentColor" d="M 110.195312 199.46875 C 104.046875 198.953125 104.992188 206.75 108.566406 209.394531 C 111.53125 211.597656 115.675781 211.355469 119.160156 211.507812 C 124.207031 211.722656 130.925781 213.039062 135.683594 211.222656 C 136.53125 210.902344 136.414062 209.144531 135.621094 208.835938 C 131.546875 207.195312 126.003906 208.050781 121.648438 208.128906 C 119.5 208.175781 117.335938 208.273438 115.1875 208.253906 C 113.921875 208.246094 112.671875 208.21875 111.433594 207.917969 C 110.632812 207.871094 109.902344 207.605469 109.269531 207.113281 C 106.746094 206.152344 107.058594 204.121094 110.222656 201.027344 C 110.917969 201.011719 110.875 199.53125 110.1875 199.46875 Z M 110.195312 199.46875 " fill-opacity="1" fill-rule="nonzero"/><path fill="currentColor" d="M 112.503906 205.359375 C 114.089844 206.117188 116.828125 206.527344 118.394531 205.464844 C 119.070312 205.011719 119.320312 204.109375 119.117188 203.335938 C 118.957031 202.722656 118.332031 202 117.65625 202.398438 C 117.066406 202.746094 116.96875 203.90625 117.539062 204.34375 C 117.804688 204.582031 117.78125 204.441406 117.46875 203.914062 L 117.699219 202.988281 C 117.414062 203.480469 115.898438 203.417969 115.445312 203.417969 C 114.570312 203.417969 113.714844 203.238281 112.871094 203.015625 C 111.683594 202.710938 111.621094 204.941406 112.503906 205.359375 Z M 112.503906 205.359375 " fill-opacity="1" fill-rule="nonzero"/><path fill="currentColor" d="M 124.675781 205.421875 L 125.960938 205.464844 C 126.476562 205.484375 126.859375 205.476562 127.289062 205.136719 C 127.875 204.679688 127.804688 203.355469 127.234375 202.917969 C 126.53125 202.382812 125.445312 202.621094 124.605469 202.660156 C 123.386719 202.703125 123.449219 205.367188 124.675781 205.414062 Z M 124.675781 205.421875 " fill-opacity="1" fill-rule="nonzero"/><path fill="currentColor" d="M 93.621094 78.28125 C 93.816406 77.476562 93.726562 76.816406 93.558594 76.023438 C 93.390625 75.230469 92.382812 74.75 92.097656 75.765625 C 91.367188 78.351562 91.304688 81.070312 91.589844 83.734375 C 91.828125 85.980469 92.007812 89.375 93.824219 90.941406 C 94.441406 91.476562 94.796875 90.480469 94.824219 90.023438 C 94.921875 87.921875 93.960938 85.925781 93.691406 83.832031 C 93.363281 81.328125 93.558594 78.859375 93.613281 76.34375 L 92.433594 77.425781 L 92.605469 77.878906 C 92.523438 78.726562 93.378906 79.339844 93.636719 78.28125 Z M 93.621094 78.28125 " fill-opacity="1" fill-rule="nonzero"/><path fill="currentColor" d="M 92.640625 74.5625 C 94.679688 74.304688 95.375 74.597656 94.734375 75.464844 C 94.546875 75.792969 94.34375 76.113281 94.136719 76.445312 C 93.851562 76.933594 93.558594 77.40625 93.328125 77.933594 C 92.878906 78.929688 92.710938 79.847656 92.683594 80.945312 C 92.667969 81.683594 93.148438 82.621094 93.996094 82.386719 C 95.082031 82.09375 97.566406 81.328125 98.761719 81.914062 C 100.445312 82.742188 100.117188 85.085938 98.441406 85.820312 C 96.765625 86.550781 95.8125 86.105469 94.636719 87.617188 C 94.394531 87.921875 94.484375 88.527344 94.761719 88.777344 C 97.878906 91.558594 102.871094 86.84375 102.726562 83.367188 C 102.515625 78.269531 97.042969 78.386719 93.378906 79.445312 C 93.816406 79.929688 94.253906 80.410156 94.691406 80.890625 C 94.734375 77.734375 99.394531 74.597656 96.1875 71.425781 C 93.433594 68.699219 90.699219 72.351562 91.285156 75.179688 C 91.578125 76.585938 92.800781 75.6875 92.632812 74.570312 Z M 92.640625 74.5625 " fill-opacity="1" fill-rule="nonzero"/><path fill="currentColor" d="M 107.816406 84.472656 C 108.476562 82.296875 109.136719 80.113281 109.804688 77.941406 C 110.105469 76.960938 110.285156 75.25 110.882812 74.429688 L 111.175781 73.414062 C 111.78125 73.839844 112.203125 74.410156 112.433594 75.105469 C 114.464844 78.644531 115.230469 82.796875 117.210938 86.308594 C 118.003906 87.714844 118.824219 85.597656 118.734375 84.890625 C 118.367188 81.871094 116.84375 78.8125 115.5625 76.085938 C 114.847656 74.5625 113.617188 70.800781 111.84375 70.167969 C 110.070312 69.535156 109.457031 71.925781 109.144531 73.171875 C 108.28125 76.683594 107.453125 80.214844 106.597656 83.722656 C 106.398438 84.527344 107.460938 85.585938 107.800781 84.457031 Z M 107.816406 84.472656 " fill-opacity="1" fill-rule="nonzero"/><path fill="currentColor" d="M 107.433594 81.140625 C 109.144531 80.96875 110.863281 80.820312 112.574219 80.632812 C 114.046875 80.472656 115.613281 80.585938 116.664062 79.464844 C 117.050781 79.054688 117.148438 78.074219 116.621094 77.710938 C 115.347656 76.828125 113.972656 77.335938 112.496094 77.566406 C 110.785156 77.84375 109.074219 78.144531 107.363281 78.441406 C 106.195312 78.636719 106.230469 81.253906 107.425781 81.140625 Z M 107.433594 81.140625 " fill-opacity="1" fill-rule="nonzero"/><path fill="currentColor" d="M 123.777344 68.601562 C 123.804688 71.898438 123.929688 75.195312 124.070312 78.492188 C 124.167969 80.757812 123.785156 83.3125 125.105469 85.257812 C 125.300781 85.550781 125.710938 85.578125 125.890625 85.238281 C 126.984375 83.144531 126.425781 80.738281 126.300781 78.441406 C 126.128906 75.140625 125.941406 71.84375 125.648438 68.558594 C 125.496094 66.820312 123.75 66.820312 123.769531 68.601562 Z M 123.777344 68.601562 " fill-opacity="1" fill-rule="nonzero"/><path fill="currentColor" d="M 126.476562 81.925781 C 128.402344 78.609375 130.878906 75.945312 133.839844 73.53125 C 134.570312 72.933594 134.140625 70.3125 133.070312 70.988281 C 131.246094 72.140625 129.933594 73.582031 128.507812 75.1875 C 128.144531 75.589844 128.082031 76.425781 128.546875 76.792969 C 130.53125 78.378906 132.671875 79.792969 134.835938 81.140625 C 136.441406 82.128906 138.0625 83.519531 139.980469 83.546875 C 140.773438 83.554688 140.753906 82.164062 140.425781 81.726562 C 139.183594 80.070312 137.359375 79.25 135.558594 78.261719 C 133.417969 77.09375 131.246094 75.960938 128.980469 75.082031 L 129.382812 76.433594 C 130.183594 74.609375 131.644531 73.9375 133.394531 73.726562 C 133.214844 72.859375 133.046875 71.996094 132.867188 71.132812 C 129.695312 73.582031 127.234375 76.746094 125.355469 80.277344 C 124.910156 81.113281 125.765625 83.171875 126.496094 81.925781 Z M 126.476562 81.925781 " fill-opacity="1" fill-rule="nonzero"/><path fill="currentColor" d="M 144.523438 70.382812 C 144.425781 72.585938 144.605469 74.796875 144.765625 76.988281 C 144.890625 78.699219 144.789062 80.523438 145.734375 82.011719 C 146.164062 82.683594 146.839844 82.296875 147.0625 81.71875 C 147.75 79.953125 147.304688 77.941406 147.125 76.105469 C 146.929688 74.054688 146.75 71.980469 146.324219 69.964844 C 145.976562 68.34375 144.578125 69.039062 144.523438 70.382812 Z M 144.523438 70.382812 " fill-opacity="1" fill-rule="nonzero"/><path fill="currentColor" d="M 156.867188 79.542969 C 156.625 78.304688 156.4375 77.066406 156.449219 75.8125 C 155.984375 74.285156 156.472656 73.707031 157.917969 74.054688 L 158.480469 75.007812 C 159.183594 76.355469 159.609375 77.84375 160.199219 79.242188 C 161.109375 81.425781 162.578125 84.632812 165.144531 85.210938 C 171.320312 86.621094 170.109375 72.488281 169.816406 69.617188 C 169.582031 67.355469 167.097656 67.363281 167.347656 69.679688 C 167.460938 70.75 167.640625 71.683594 168.042969 72.683594 C 168.300781 73.324219 168.949219 73.269531 169.191406 72.65625 C 169.511719 71.820312 169.699219 71.023438 169.777344 70.125 L 167.347656 69.6875 C 167.292969 72.042969 167.390625 74.386719 167.300781 76.738281 C 167.238281 78.351562 167.015625 83.367188 164.199219 80.570312 C 161.992188 78.367188 161.554688 74.796875 159.859375 72.21875 C 158.871094 70.703125 157.078125 68.867188 155.511719 70.863281 C 153.621094 73.261719 154.691406 77.621094 155.40625 80.222656 C 155.816406 81.71875 157.117188 80.792969 156.867188 79.5625 Z M 156.867188 79.542969 " fill-opacity="1" fill-rule="nonzero"/><path fill="currentColor" d="M 185.757812 68.566406 C 180.847656 67.703125 179.191406 73.207031 178.832031 77.003906 C 178.46875 80.96875 179.476562 85.25 184.261719 85.285156 C 188.242188 85.3125 191.613281 82.023438 190.640625 77.921875 C 189.832031 74.546875 185.152344 73.046875 184.179688 77.050781 C 184.046875 77.621094 184.332031 78.886719 185.132812 78.839844 C 185.613281 78.8125 186.371094 78.402344 186.738281 78.402344 L 187.691406 78.484375 C 187.636719 79.199219 187.574219 79.917969 187.523438 80.632812 C 186.328125 82.226562 182.878906 81.886719 181.78125 80.683594 C 179.324219 77.984375 181.78125 70.964844 185.820312 71.320312 C 187.039062 71.425781 186.933594 68.769531 185.75 68.566406 Z M 185.757812 68.566406 " fill-opacity="1" fill-rule="nonzero"/><path fill="currentColor" d="M 185.875 76.640625 C 186.808594 76.753906 187.726562 76.890625 188.476562 76.195312 C 189.035156 75.667969 188.976562 74.527344 188.421875 74.019531 C 187.671875 73.34375 186.730469 73.484375 185.800781 73.601562 C 184.4375 73.769531 184.546875 76.480469 185.875 76.640625 Z M 185.875 76.640625 " fill-opacity="1" fill-rule="nonzero"/><path fill="currentColor" d="M 185 71.203125 C 186.773438 72.128906 188.8125 72.453125 190.792969 72.21875 C 192.421875 72.023438 192.308594 68.371094 190.703125 68.539062 C 188.839844 68.734375 187.03125 68.691406 185.167969 68.574219 C 183.949219 68.496094 184.234375 70.800781 185 71.203125 Z M 185 71.203125 " fill-opacity="1" fill-rule="nonzero"/><path fill="currentColor" d="M 117.449219 98.980469 C 117.503906 92.421875 109.652344 96.003906 108.894531 100.675781 C 108.359375 103.953125 111.550781 104.871094 113.972656 106.019531 C 116.84375 107.375 116.863281 107.179688 116.675781 110.914062 C 116.523438 114.128906 116.558594 114.800781 113.789062 115.984375 C 112.40625 116.574219 110.847656 116.847656 109.347656 116.945312 L 108.128906 116.984375 C 106.960938 117.207031 106.257812 116.617188 106.027344 115.226562 C 107.03125 115.171875 106.800781 113.453125 106.160156 113.089844 C 103.066406 111.316406 101.597656 116.039062 102.90625 118.300781 C 105.179688 122.230469 112.488281 120.652344 115.585938 118.90625 C 119.277344 116.820312 121.460938 112.320312 120.210938 108.152344 C 119.625 106.164062 118.4375 104.808594 116.683594 103.722656 C 115.488281 102.980469 113.171875 102.695312 112.238281 101.71875 C 111.058594 101.457031 110.945312 100.941406 111.890625 100.175781 C 113.386719 98.109375 114.695312 97.734375 115.808594 99.035156 C 115.980469 100.539062 117.441406 100.566406 117.460938 98.988281 Z M 117.449219 98.980469 " fill-opacity="1" fill-rule="nonzero"/><path fill="currentColor" d="M 132.109375 104 C 132.367188 102.796875 132.179688 101.753906 131.359375 100.816406 C 131.058594 100.46875 130.746094 100.230469 130.265625 100.40625 C 120.988281 103.800781 126.976562 119.015625 136.433594 114.378906 C 140.253906 112.507812 143.160156 108.230469 142.386719 103.863281 C 141.839844 100.816406 137.457031 95.542969 134.550781 99.222656 C 133.882812 100.066406 134.167969 101.65625 134.890625 102.359375 L 135.042969 102.511719 C 135.28125 102.734375 135.640625 102.777344 135.933594 102.660156 C 136.351562 102.5 136.53125 102.277344 136.789062 101.914062 C 137.234375 101.261719 137.054688 99.855469 136.136719 99.738281 L 135.863281 99.703125 L 136.707031 100.40625 C 135.984375 101.867188 136.308594 102.519531 137.660156 102.359375 L 138.625 102.910156 C 139.773438 103.875 140.09375 105.316406 139.558594 106.699219 C 138.792969 108.675781 136.796875 110.28125 134.863281 111.03125 C 132.777344 111.839844 130.273438 111.546875 128.832031 109.675781 C 126.566406 106.753906 129.898438 105.726562 130.132812 103.222656 C 129.980469 104.808594 131.644531 106.011719 132.09375 103.988281 Z M 132.109375 104 " fill-opacity="1" fill-rule="nonzero"/><path fill="currentColor" d="M 150.582031 110.53125 C 150.984375 107.5 151.011719 104.210938 151.804688 101.253906 C 152.390625 99.078125 152.675781 98.070312 155.082031 98.292969 C 156.589844 98.429688 157.980469 98.917969 159.210938 99.792969 C 163.515625 102.859375 161.320312 107.011719 157.550781 109.085938 C 155.652344 110.128906 151.742188 111.152344 150.679688 112.839844 C 150.929688 112.4375 150.976562 111.316406 150.351562 111.171875 L 149.898438 111.066406 C 149.503906 110.976562 149.246094 111.109375 149.023438 111.441406 C 148.214844 112.625 148.152344 114.453125 149.238281 115.53125 C 151.039062 117.320312 153.773438 115.332031 155.539062 114.460938 C 160.351562 112.070312 165.019531 109.246094 164.371094 103.132812 C 163.808594 97.847656 159.300781 94.042969 153.988281 94.25 C 151.164062 94.355469 150.226562 95.640625 149.648438 98.277344 C 148.808594 102.125 148.5 106.234375 148.640625 110.175781 C 148.695312 111.617188 150.359375 112.277344 150.59375 110.53125 Z M 150.582031 110.53125 " fill-opacity="1" fill-rule="nonzero"/><path fill="currentColor" d="M 173.460938 98.304688 C 172.488281 101.046875 171.535156 103.792969 170.609375 106.546875 C 169.832031 108.855469 168.675781 111.214844 168.878906 113.675781 C 168.914062 114.15625 169.324219 115.09375 169.929688 114.550781 C 171.605469 113.0625 171.910156 110.253906 172.542969 108.1875 C 173.40625 105.351562 174.242188 102.511719 175.054688 99.660156 C 175.382812 98.492188 174.074219 96.566406 173.460938 98.304688 Z M 173.460938 98.304688 " fill-opacity="1" fill-rule="nonzero"/><path fill="currentColor" d="M 170.980469 100.898438 C 173.539062 100.539062 175.464844 106.386719 176.425781 108.230469 C 177.480469 110.246094 178.457031 113.273438 180.382812 114.59375 C 181.238281 115.183594 181.550781 113.863281 181.460938 113.265625 C 180.925781 109.480469 177.941406 105.53125 176.132812 102.207031 C 174.964844 100.066406 173.484375 97.402344 170.671875 98.132812 C 169.664062 98.402344 169.859375 101.046875 170.980469 100.886719 Z M 170.980469 100.898438 " fill-opacity="1" fill-rule="nonzero"/><path fill="currentColor" d="M 169.476562 110.289062 C 170.511719 109.773438 171.570312 109.398438 172.730469 109.257812 C 173.71875 109.140625 174.699219 109.292969 175.492188 108.613281 C 175.972656 108.203125 175.839844 107.339844 175.445312 106.929688 C 173.941406 105.34375 170.511719 106.824219 168.941406 107.695312 C 167.96875 108.238281 168.316406 110.878906 169.476562 110.289062 Z M 169.476562 110.289062 " fill-opacity="1" fill-rule="nonzero"/><path fill="currentColor" d="M 195.363281 54.539062 C 199.117188 54.628906 202.851562 55.003906 206.539062 55.671875 C 209.335938 56.179688 212.1875 57.550781 214.988281 56.855469 C 215.378906 56.757812 215.253906 56.035156 215.050781 55.839844 C 210.710938 51.597656 200.933594 51.988281 195.300781 52.257812 C 194.285156 52.300781 194.339844 54.511719 195.355469 54.539062 Z M 195.363281 54.539062 " fill-opacity="1" fill-rule="nonzero"/><path fill="currentColor" d="M 200.113281 60.082031 C 202.589844 60.179688 205.070312 60.464844 207.5 60.972656 C 209.375 61.363281 211.316406 62.40625 213.214844 62.097656 C 213.828125 61.996094 213.785156 61.035156 213.429688 60.6875 C 210.441406 57.78125 203.953125 57.855469 200.0625 57.988281 C 199.132812 58.023438 199.1875 60.039062 200.113281 60.074219 Z M 200.113281 60.082031 " fill-opacity="1" fill-rule="nonzero"/><path fill="currentColor" d="M 204.285156 64.394531 C 205.84375 64.304688 207.367188 64.429688 208.855469 64.894531 C 209.933594 65.222656 211.023438 66.125 212.136719 65.714844 C 212.519531 65.570312 212.546875 64.894531 212.402344 64.601562 C 211.164062 62.035156 206.683594 61.882812 204.222656 62.105469 C 203.207031 62.195312 203.269531 64.449219 204.277344 64.386719 Z M 204.285156 64.394531 " fill-opacity="1" fill-rule="nonzero"/><path fill="currentColor" d="M 207.253906 69.011719 C 207.839844 68.90625 208.339844 68.984375 208.882812 69.234375 C 209.140625 69.351562 209.382812 69.476562 209.660156 69.332031 C 209.933594 69.191406 210.050781 68.886719 210.058594 68.582031 C 210.09375 67.140625 208.320312 66.773438 207.207031 67.015625 C 206.746094 67.113281 206.566406 67.585938 206.574219 68.03125 C 206.574219 68.34375 206.789062 69.101562 207.261719 69.019531 Z M 207.253906 69.011719 " fill-opacity="1" fill-rule="nonzero"/><path fill="currentColor" d="M 207.234375 77.175781 C 207.492188 77.59375 207.726562 77.894531 208.117188 78.199219 C 208.667969 78.625 208.882812 77.691406 208.828125 77.316406 C 208.75 76.753906 208.605469 76.273438 208.382812 75.75 C 208.179688 75.257812 207.664062 74.980469 207.261719 75.453125 C 206.859375 75.925781 206.921875 76.683594 207.226562 77.183594 Z M 207.234375 77.175781 " fill-opacity="1" fill-rule="nonzero"/><path fill="currentColor" d="M 210.523438 247.191406 C 217.507812 244.328125 222.410156 239.542969 225.457031 232.671875 C 228.542969 225.714844 232.660156 217.167969 232.453125 209.414062 C 232.445312 208.914062 231.777344 208.335938 231.582031 209.074219 C 230.671875 212.445312 230.207031 215.875 228.996094 219.164062 C 227.828125 222.335938 226.261719 225.5 224.835938 228.574219 C 221.421875 235.945312 217.242188 240.53125 209.90625 244.167969 C 208.75 244.738281 209.097656 247.777344 210.53125 247.191406 Z M 210.523438 247.191406 " fill-opacity="1" fill-rule="nonzero"/><path fill="currentColor" d="M 231 199.164062 C 231.421875 199.164062 231.402344 198.21875 230.976562 198.21875 C 230.546875 198.21875 230.574219 199.164062 231 199.164062 Z M 231 199.164062 " fill-opacity="1" fill-rule="nonzero"/><path fill="currentColor" d="M 231.757812 220.195312 C 232.835938 221.558594 234.003906 222.761719 234.648438 224.410156 C 235.191406 225.820312 235.046875 227.46875 235.761719 228.804688 C 235.886719 229.046875 236.222656 229.402344 236.492188 229.082031 C 237.785156 227.53125 237.152344 225.054688 236.535156 223.332031 C 235.804688 221.300781 234.496094 219.109375 232.480469 218.164062 C 231.484375 217.691406 231.375 219.722656 231.757812 220.207031 Z M 231.757812 220.195312 " fill-opacity="1" fill-rule="nonzero"/><path fill="currentColor" d="M 228.71875 223.636719 C 230.082031 225.132812 231.234375 226.816406 232.082031 228.652344 C 232.667969 229.9375 232.960938 231.53125 233.996094 232.539062 C 234.335938 232.867188 234.648438 232.359375 234.699219 232.085938 C 235.402344 228.34375 231.910156 223.957031 229.503906 221.453125 C 228.585938 220.5 228.070312 222.914062 228.730469 223.636719 Z M 228.71875 223.636719 " fill-opacity="1" fill-rule="nonzero"/><path fill="currentColor" d="M 227.863281 228.859375 C 228.71875 229.902344 229.476562 231.023438 230.109375 232.21875 C 230.699219 233.332031 231.019531 234.5625 231.582031 235.683594 C 231.707031 235.945312 231.964844 236.371094 232.328125 236.308594 C 233.96875 236.023438 232.785156 233.066406 232.4375 232.226562 C 231.617188 230.203125 230.34375 228.492188 228.757812 227.003906 C 227.863281 226.175781 227.375 228.269531 227.875 228.867188 Z M 227.863281 228.859375 " fill-opacity="1" fill-rule="nonzero"/><path fill="currentColor" d="M 225.753906 233.171875 C 227.617188 235.167969 228.238281 237.378906 229.121094 239.875 C 229.585938 241.183594 230.726562 240.121094 230.699219 239.179688 C 230.617188 236.03125 228.757812 233.046875 226.554688 230.917969 C 225.546875 229.945312 225.066406 232.441406 225.753906 233.171875 Z M 225.753906 233.171875 " fill-opacity="1" fill-rule="nonzero"/><path fill="currentColor" d="M 222.160156 236.148438 C 224.335938 238.394531 225.84375 240.960938 227.464844 243.597656 C 227.660156 243.917969 228 244.035156 228.347656 243.929688 C 231.410156 243 223.882812 234.875 222.929688 233.992188 C 221.972656 233.109375 221.492188 235.460938 222.160156 236.148438 Z M 222.160156 236.148438 " fill-opacity="1" fill-rule="nonzero"/><path fill="currentColor" d="M 220.941406 240.996094 C 222.382812 242.101562 223.550781 243.457031 224.292969 245.121094 C 224.871094 246.433594 224.808594 248.195312 225.691406 249.328125 C 225.949219 249.667969 226.429688 249.746094 226.660156 249.300781 C 227.589844 247.554688 226.714844 245.257812 225.894531 243.617188 C 224.925781 241.664062 223.507812 240.042969 221.699219 238.832031 C 220.566406 238.074219 220.128906 240.382812 220.933594 240.988281 Z M 220.941406 240.996094 " fill-opacity="1" fill-rule="nonzero"/><path fill="currentColor" d="M 218.4375 245.40625 C 219.023438 246.378906 219.542969 247.378906 219.96875 248.429688 C 220.363281 249.382812 220.558594 250.355469 221.261719 251.128906 C 222.027344 251.964844 222.644531 250.40625 222.632812 249.871094 C 222.617188 247.671875 220.84375 245.308594 219.542969 243.632812 C 218.578125 242.40625 217.929688 244.585938 218.4375 245.417969 Z M 218.4375 245.40625 " fill-opacity="1" fill-rule="nonzero"/><path fill="currentColor" d="M 216.449219 246.84375 C 216.519531 248.945312 216.367188 251.183594 216.714844 253.257812 C 216.804688 253.8125 217.222656 254.445312 217.847656 254.328125 C 218.5 254.210938 218.667969 253.339844 218.6875 252.804688 C 218.730469 250.835938 218.277344 248.765625 218.054688 246.808594 C 217.894531 245.34375 216.394531 245.300781 216.441406 246.84375 Z M 216.449219 246.84375 " fill-opacity="1" fill-rule="nonzero"/><path fill="currentColor" d="M 213.800781 251.554688 C 215.363281 251.554688 215.300781 248.019531 213.714844 248.019531 C 212.128906 248.019531 212.214844 251.554688 213.800781 251.554688 Z M 213.800781 251.554688 " fill-opacity="1" fill-rule="nonzero"/><path fill="currentColor" d="M 203.929688 241.371094 C 202.9375 240.445312 201.683594 240.953125 200.816406 241.796875 C 200.335938 242.28125 199.988281 242.894531 199.453125 243.3125 C 199.179688 243.527344 198.707031 243.839844 198.332031 243.855469 C 197.957031 243.875 197.699219 243.660156 197.34375 243.554688 C 196.914062 243.421875 196.800781 244.042969 196.851562 244.339844 C 197.101562 245.613281 198.339844 245.691406 199.355469 245.183594 C 200.371094 244.675781 202.171875 242.066406 203.324219 243.039062 C 204.117188 243.714844 204.472656 241.878906 203.917969 241.363281 Z M 203.929688 241.371094 " fill-opacity="1" fill-rule="nonzero"/><path fill="currentColor" d="M 196.578125 240.007812 C 196.175781 242.039062 195.773438 244.070312 195.480469 246.121094 C 195.25 247.726562 194.890625 249.265625 195.410156 250.824219 C 195.507812 251.121094 195.933594 251.433594 196.203125 251.121094 C 197.199219 249.953125 197.21875 248.355469 197.421875 246.878906 C 197.726562 244.792969 197.921875 242.707031 198.117188 240.613281 C 198.234375 239.367188 196.886719 238.394531 196.566406 240.007812 Z M 196.578125 240.007812 " fill-opacity="1" fill-rule="nonzero"/><path fill="currentColor" d="M 191.480469 243.277344 C 191.585938 245.042969 191.53125 246.808594 191.355469 248.5625 C 191.28125 249.3125 190.820312 251.269531 191.78125 251.699219 C 192.386719 251.964844 193.011719 250.71875 193.171875 250.210938 C 193.394531 249.542969 193.359375 248.722656 193.394531 248.027344 C 193.492188 246.308594 193.339844 244.605469 193.101562 242.902344 C 192.894531 241.488281 191.398438 242.011719 191.480469 243.277344 Z M 191.480469 243.277344 " fill-opacity="1" fill-rule="nonzero"/><path fill="currentColor" d="M 187.921875 243.269531 C 187.832031 245.097656 187.691406 246.929688 187.710938 248.757812 C 187.710938 249.390625 188.066406 250.425781 188.851562 250.40625 C 189.632812 250.390625 189.902344 249.320312 189.910156 248.703125 C 189.929688 246.878906 189.792969 245.050781 189.695312 243.222656 C 189.667969 242.714844 189.421875 241.878906 188.777344 241.894531 C 188.136719 241.914062 187.949219 242.769531 187.921875 243.269531 Z M 187.921875 243.269531 " fill-opacity="1" fill-rule="nonzero"/><path fill="currentColor" d="M 184.289062 244.257812 C 184.484375 245.890625 184.242188 247.441406 183.941406 249.035156 C 183.824219 249.632812 184.003906 250.566406 184.589844 250.886719 C 185.144531 251.183594 185.714844 250.789062 185.875 250.210938 C 186.480469 247.992188 186.480469 245.71875 186.078125 243.464844 C 185.980469 242.929688 185.527344 242.261719 184.910156 242.503906 C 184.25 242.761719 184.234375 243.707031 184.304688 244.265625 Z M 184.289062 244.257812 " fill-opacity="1" fill-rule="nonzero"/><path fill="currentColor" d="M 179.511719 247.839844 C 179.761719 248.785156 179.4375 249.558594 179.234375 250.488281 C 179.089844 251.136719 179.742188 252.859375 180.589844 252.003906 C 181.925781 250.65625 181.757812 248.347656 181.222656 246.683594 C 181.050781 246.175781 180.507812 245.808594 180.019531 246.121094 C 179.511719 246.441406 179.367188 247.296875 179.511719 247.839844 Z M 179.511719 247.839844 " fill-opacity="1" fill-rule="nonzero"/><path fill="currentColor" d="M 178.449219 246.128906 C 176.855469 246.753906 175.019531 248.277344 175.011719 250.105469 C 175.011719 250.675781 175.457031 251.804688 176.238281 251.457031 C 176.890625 251.164062 177.042969 250.378906 177.480469 249.863281 C 177.886719 249.382812 178.433594 249.035156 179.003906 248.765625 C 180.035156 248.285156 179.714844 245.628906 178.457031 246.121094 Z M 178.449219 246.128906 " fill-opacity="1" fill-rule="nonzero"/><path fill="currentColor" d="M 170.679688 247.429688 C 170.679688 247.519531 170.695312 247.617188 170.679688 247.707031 C 170.695312 247.457031 170.625 247.832031 170.660156 247.734375 C 170.660156 247.734375 170.546875 248.054688 170.527344 248.089844 C 170.332031 248.535156 170.089844 248.945312 169.941406 249.410156 C 169.824219 249.757812 169.867188 250.335938 170.261719 250.503906 C 170.910156 250.789062 171.5625 250.292969 171.890625 249.738281 C 172.308594 249.035156 172.488281 248.207031 172.433594 247.386719 C 172.40625 246.878906 172.167969 246.039062 171.515625 246.058594 C 170.867188 246.074219 170.632812 246.929688 170.660156 247.429688 Z M 170.679688 247.429688 " fill-opacity="1" fill-rule="nonzero"/><path fill="currentColor" d="M 171.722656 246.398438 C 169.074219 245.417969 163.621094 244.167969 161.765625 246.984375 C 161.5625 247.296875 161.617188 247.894531 161.980469 248.070312 C 163.335938 248.722656 164.789062 247.867188 166.207031 247.734375 C 167.980469 247.554688 169.734375 247.929688 171.390625 248.527344 C 172.390625 248.882812 172.59375 246.71875 171.722656 246.398438 Z M 171.722656 246.398438 " fill-opacity="1" fill-rule="nonzero"/><path fill="currentColor" d="M 158.460938 244.882812 C 155.804688 245.132812 153.160156 244.890625 150.636719 245.863281 C 150.136719 246.058594 150.21875 247.066406 150.671875 247.261719 C 153.246094 248.332031 155.859375 247.785156 158.523438 247.332031 C 159.585938 247.144531 159.546875 244.773438 158.460938 244.882812 Z M 158.460938 244.882812 " fill-opacity="1" fill-rule="nonzero"/><path fill="currentColor" d="M 144.84375 244.070312 C 138.980469 242.734375 133.089844 242.242188 127.207031 241.003906 C 121.871094 239.882812 116.371094 239.347656 110.9375 238.921875 C 104.859375 238.4375 98.78125 238.359375 92.757812 237.28125 C 87.097656 236.265625 83.363281 234.410156 79.328125 230.328125 C 78.613281 229.605469 78.203125 231.132812 78.292969 231.59375 C 80.601562 243.214844 94.878906 240.613281 103.324219 240.890625 C 109.847656 241.101562 116.371094 241.691406 122.867188 242.386719 C 130.28125 243.179688 137.242188 244.550781 144.53125 246.039062 C 145.503906 246.238281 145.664062 244.257812 144.835938 244.070312 Z M 144.84375 244.070312 " fill-opacity="1" fill-rule="nonzero"/><path fill="currentColor" d="M 217.332031 109.335938 C 216.511719 110.941406 215.746094 112.570312 214.996094 114.210938 C 214.382812 115.566406 213.3125 117.089844 213.765625 118.613281 C 213.839844 118.855469 213.945312 119.085938 214.222656 119.113281 L 214.496094 119.140625 C 214.71875 119.15625 215.003906 118.917969 215.09375 118.738281 C 216.386719 116.128906 217.527344 113.445312 218.578125 110.734375 C 218.882812 109.96875 217.945312 108.117188 217.324219 109.328125 Z M 217.332031 109.335938 " fill-opacity="1" fill-rule="nonzero"/><path fill="currentColor" d="M 218.863281 115.371094 C 216.519531 117.535156 213.757812 121.046875 213.667969 124.371094 C 213.660156 124.726562 214.023438 125.414062 214.445312 125.011719 C 215.488281 124.003906 215.96875 122.328125 216.714844 121.089844 C 217.597656 119.621094 218.625 118.238281 219.691406 116.902344 C 220.113281 116.375 219.621094 114.675781 218.863281 115.371094 Z M 218.863281 115.371094 " fill-opacity="1" fill-rule="nonzero"/><path fill="currentColor" d="M 218.773438 121.207031 C 217.492188 122.5625 216.234375 123.933594 215.003906 125.332031 C 213.917969 126.5625 212.660156 127.785156 212.027344 129.308594 C 211.878906 129.664062 212.054688 130.722656 212.644531 130.457031 C 214.113281 129.796875 215.191406 128.070312 216.21875 126.882812 C 217.386719 125.539062 218.507812 124.164062 219.621094 122.773438 C 220.058594 122.230469 219.488281 120.449219 218.773438 121.199219 Z M 218.773438 121.207031 " fill-opacity="1" fill-rule="nonzero"/><path fill="currentColor" d="M 220.148438 125.316406 C 217.046875 127.382812 213.429688 130.492188 212.636719 134.316406 C 212.554688 134.691406 212.875 135.527344 213.355469 135.117188 C 214.675781 133.96875 215.488281 132.273438 216.628906 130.9375 C 217.832031 129.519531 219.210938 128.28125 220.71875 127.1875 C 221.316406 126.75 220.894531 124.824219 220.148438 125.316406 Z M 220.148438 125.316406 " fill-opacity="1" fill-rule="nonzero"/><path fill="currentColor" d="M 219.515625 130.3125 C 216.984375 132.59375 213.535156 135.644531 212.714844 139.09375 C 212.660156 139.324219 212.839844 140.027344 213.214844 139.8125 C 214.480469 139.09375 215.335938 137.515625 216.226562 136.402344 C 217.472656 134.839844 218.765625 133.34375 220.175781 131.9375 C 220.699219 131.410156 220.28125 129.617188 219.503906 130.3125 Z M 219.515625 130.3125 " fill-opacity="1" fill-rule="nonzero"/><path fill="currentColor" d="M 220.683594 135.394531 C 216.21875 138.238281 210.683594 141.847656 208.171875 146.648438 C 208.0625 146.855469 208.082031 147.816406 208.535156 147.550781 C 210.59375 146.3125 212.226562 144.304688 213.988281 142.703125 C 216.207031 140.6875 218.5625 138.851562 221.046875 137.183594 C 221.679688 136.757812 221.414062 134.929688 220.683594 135.394531 Z M 220.683594 135.394531 " fill-opacity="1" fill-rule="nonzero"/><path fill="currentColor" d="M 219.914062 141.355469 C 216.367188 144.414062 212.644531 148.121094 210.925781 152.566406 C 210.789062 152.914062 211.09375 154.109375 211.609375 153.554688 C 214.800781 150.195312 217.199219 146.285156 220.648438 143.109375 C 221.253906 142.550781 220.769531 140.617188 219.914062 141.347656 Z M 219.914062 141.355469 " fill-opacity="1" fill-rule="nonzero"/><path fill="currentColor" d="M 221.367188 146.160156 C 217.011719 149.101562 212.386719 152.933594 210.316406 157.90625 C 210.175781 158.234375 210.441406 159.222656 210.925781 158.785156 C 212.8125 157.113281 214.265625 154.992188 216.03125 153.179688 C 217.792969 151.371094 219.816406 149.554688 221.910156 147.976562 C 222.480469 147.550781 222.082031 145.667969 221.359375 146.160156 Z M 221.367188 146.160156 " fill-opacity="1" fill-rule="nonzero"/><path fill="currentColor" d="M 223.007812 151.667969 C 219.34375 154.652344 215.425781 158.164062 213.214844 162.414062 C 213.035156 162.753906 213.230469 164.042969 213.792969 163.492188 C 217.207031 160.148438 219.976562 156.316406 223.632812 153.171875 C 224.167969 152.710938 223.757812 151.070312 223.015625 151.675781 Z M 223.007812 151.667969 " fill-opacity="1" fill-rule="nonzero"/><path fill="currentColor" d="M 222.945312 159.222656 C 219.398438 162.136719 216.226562 165.863281 214.960938 170.355469 C 214.84375 170.765625 215.21875 171.859375 215.683594 171.164062 C 218.117188 167.511719 220.316406 163.964844 223.703125 161.078125 C 224.371094 160.507812 223.855469 158.464844 222.9375 159.222656 Z M 222.945312 159.222656 " fill-opacity="1" fill-rule="nonzero"/><path fill="currentColor" d="M 222.394531 167.761719 C 220.191406 170.035156 217.957031 172.796875 217.0625 175.878906 C 216.964844 176.199219 217.269531 177.046875 217.625 176.503906 C 219.363281 173.902344 220.699219 171.261719 222.902344 168.972656 C 223.292969 168.5625 222.929688 167.21875 222.402344 167.761719 Z M 222.394531 167.761719 " fill-opacity="1" fill-rule="nonzero"/><path fill="currentColor" d="M 224.675781 174.097656 C 223.890625 174.96875 223.113281 175.84375 222.332031 176.726562 C 221.609375 177.535156 220.878906 178.285156 220.421875 179.285156 C 220.289062 179.578125 220.460938 180.550781 220.96875 180.289062 C 221.867188 179.835938 222.472656 178.945312 223.125 178.195312 C 223.855469 177.351562 224.585938 176.503906 225.324219 175.664062 C 225.621094 175.328125 225.691406 174.808594 225.511719 174.398438 C 225.378906 174.105469 224.988281 173.75 224.675781 174.089844 Z M 224.675781 174.097656 " fill-opacity="1" fill-rule="nonzero"/><path fill="currentColor" d="M 225.664062 182.394531 C 226.484375 182.394531 226.449219 180.53125 225.621094 180.53125 C 224.789062 180.53125 224.835938 182.394531 225.664062 182.394531 Z M 225.664062 182.394531 " fill-opacity="1" fill-rule="nonzero"/><path fill="currentColor" d="M 225.066406 192.230469 C 225.65625 192.230469 225.628906 190.894531 225.03125 190.894531 C 224.433594 190.894531 224.46875 192.230469 225.066406 192.230469 Z M 225.066406 192.230469 " fill-opacity="1" fill-rule="nonzero"/><path fill="currentColor" d="M 224.46875 199.476562 C 225.15625 199.476562 225.128906 197.917969 224.433594 197.917969 C 223.738281 197.917969 223.773438 199.476562 224.46875 199.476562 Z M 224.46875 199.476562 " fill-opacity="1" fill-rule="nonzero"/><path fill="currentColor" d="M 79.984375 215.632812 C 79.523438 219.199219 80.039062 222.800781 81.402344 226.121094 C 82.542969 228.914062 84.636719 232.941406 87.730469 233.859375 C 88.425781 234.0625 88.398438 232.921875 88.183594 232.566406 C 86.644531 229.964844 84.414062 227.976562 83.140625 225.144531 C 81.867188 222.308594 81.445312 219.117188 81.507812 215.910156 C 81.535156 214.75 80.15625 214.28125 79.976562 215.632812 Z M 79.984375 215.632812 " fill-opacity="1" fill-rule="nonzero"/><path fill="currentColor" d="M 85.761719 219.457031 C 84.609375 222.40625 85.03125 225.960938 86.222656 228.832031 C 87.152344 231.058594 89.484375 235.195312 92.382812 234.820312 C 92.925781 234.75 92.890625 233.949219 92.683594 233.601562 C 91.472656 231.59375 89.449219 230.300781 88.316406 228.179688 C 86.953125 225.632812 86.875 223.128906 87.195312 220.3125 C 87.292969 219.414062 86.304688 218.085938 85.769531 219.449219 Z M 85.761719 219.457031 " fill-opacity="1" fill-rule="nonzero"/><path fill="currentColor" d="M 92.640625 224 C 92.105469 226.285156 92.195312 228.609375 92.890625 230.847656 C 93.398438 232.460938 94.414062 235 96.292969 235.355469 C 96.855469 235.460938 96.9375 234.679688 96.792969 234.304688 C 96.230469 232.804688 95.164062 231.578125 94.566406 230.089844 C 93.84375 228.296875 93.746094 226.46875 94.121094 224.582031 C 94.359375 223.359375 92.988281 222.523438 92.640625 224 Z M 92.640625 224 " fill-opacity="1" fill-rule="nonzero"/><path fill="currentColor" d="M 98.84375 226.640625 C 98.957031 228.191406 99.261719 229.695312 99.832031 231.148438 C 100.222656 232.136719 100.867188 233.847656 102.085938 233.957031 C 102.453125 233.992188 102.621094 233.394531 102.59375 233.136719 C 102.488281 232.03125 101.925781 231.175781 101.472656 230.1875 C 100.953125 229.046875 100.625 227.851562 100.5 226.605469 C 100.359375 225.082031 98.71875 225.070312 98.832031 226.648438 Z M 98.84375 226.640625 " fill-opacity="1" fill-rule="nonzero"/><path fill="currentColor" d="M 106.90625 232.136719 C 107.515625 232.96875 108.066406 233.777344 108.902344 234.394531 C 109.449219 234.792969 109.617188 233.804688 109.484375 233.464844 C 109.0625 232.433594 108.476562 231.578125 107.816406 230.675781 C 107.558594 230.3125 107.113281 230.320312 106.871094 230.703125 C 106.632812 231.085938 106.621094 231.753906 106.90625 232.136719 Z M 106.90625 232.136719 " fill-opacity="1" fill-rule="nonzero"/><path fill="currentColor" d="M 114.242188 234.0625 C 114.695312 234.4375 115.125 234.722656 115.660156 234.980469 C 115.890625 235.097656 116.09375 234.839844 116.167969 234.652344 C 116.273438 234.375 116.21875 234.0625 116.078125 233.8125 C 115.773438 233.277344 115.460938 232.816406 115.070312 232.34375 C 114.722656 231.914062 114.261719 231.976562 114.011719 232.476562 C 113.777344 232.941406 113.824219 233.714844 114.25 234.0625 Z M 114.242188 234.0625 " fill-opacity="1" fill-rule="nonzero"/><path fill="currentColor" d="M 192.371094 221.90625 C 192.371094 221.90625 192.40625 221.820312 192.371094 221.820312 C 192.335938 221.820312 192.335938 221.90625 192.371094 221.90625 Z M 192.371094 221.90625 " fill-opacity="1" fill-rule="nonzero"/><path fill="currentColor" d="M 87.675781 239.792969 C 86.929688 242.261719 86.855469 244.953125 86.902344 247.519531 C 86.945312 249.996094 86.964844 252.875 88.132812 255.113281 C 88.476562 255.78125 89.253906 255.636719 89.308594 254.84375 C 89.484375 252.546875 88.976562 250.28125 88.878906 247.984375 C 88.773438 245.425781 89.101562 242.894531 89.09375 240.347656 C 89.09375 239.5 88.023438 238.625 87.667969 239.792969 Z M 87.675781 239.792969 " fill-opacity="1" fill-rule="nonzero"/><path fill="currentColor" d="M 91.410156 242.421875 C 91.152344 244.917969 90.964844 247.394531 91.007812 249.898438 C 91.035156 251.839844 90.867188 254 91.882812 255.710938 C 92.113281 256.109375 92.550781 255.878906 92.667969 255.53125 C 93.300781 253.722656 92.890625 251.734375 92.808594 249.84375 C 92.710938 247.441406 92.632812 245.042969 92.640625 242.636719 C 92.640625 241.71875 91.527344 241.316406 91.410156 242.414062 Z M 91.410156 242.421875 " fill-opacity="1" fill-rule="nonzero"/><path fill="currentColor" d="M 96.765625 242.144531 C 95.484375 245.78125 93.835938 252.214844 96.214844 255.699219 C 96.527344 256.15625 96.945312 255.753906 97.015625 255.351562 C 97.300781 253.652344 96.890625 251.929688 96.890625 250.203125 C 96.890625 247.804688 97.320312 245.515625 98.058594 243.234375 C 98.371094 242.269531 97.257812 240.746094 96.765625 242.136719 Z M 96.765625 242.144531 " fill-opacity="1" fill-rule="nonzero"/><path fill="currentColor" d="M 100.792969 243.535156 C 100.617188 245.59375 100.421875 247.644531 100.257812 249.703125 C 100.144531 251.210938 99.699219 253 100.445312 254.382812 C 100.582031 254.632812 100.929688 255.003906 101.214844 254.667969 C 102.238281 253.464844 102.015625 251.734375 102.105469 250.230469 C 102.230469 248.097656 102.316406 245.960938 102.417969 243.832031 C 102.480469 242.601562 100.917969 242.101562 100.792969 243.535156 Z M 100.792969 243.535156 " fill-opacity="1" fill-rule="nonzero"/><path fill="currentColor" d="M 104.449219 243.597656 C 104.242188 245.523438 104.144531 247.457031 104.234375 249.390625 C 104.296875 250.710938 104.234375 252.304688 105.1875 253.3125 C 105.382812 253.515625 105.632812 253.277344 105.703125 253.089844 C 106.175781 251.886719 105.828125 250.601562 105.742188 249.355469 C 105.605469 247.609375 105.617188 245.863281 105.742188 244.105469 C 105.820312 243.0625 104.582031 242.234375 104.4375 243.597656 Z M 104.449219 243.597656 " fill-opacity="1" fill-rule="nonzero"/><path fill="currentColor" d="M 110.292969 246.832031 L 110.292969 250.488281 C 110.292969 251.46875 110.1875 252.394531 110.660156 253.269531 C 110.8125 253.542969 111.175781 253.507812 111.320312 253.25 C 111.800781 252.402344 111.675781 251.40625 111.667969 250.453125 L 111.667969 246.796875 C 111.65625 245.515625 110.292969 245.550781 110.285156 246.832031 Z M 110.292969 246.832031 " fill-opacity="1" fill-rule="nonzero"/><path fill="currentColor" d="M 116.941406 249.613281 C 117.84375 249.613281 117.796875 247.582031 116.890625 247.582031 C 115.980469 247.582031 116.03125 249.613281 116.941406 249.613281 Z M 116.941406 249.613281 " fill-opacity="1" fill-rule="nonzero"/></svg>