<svg xmlns="http://www.w3.org/2000/svg" xmlns:xlink="http://www.w3.org/1999/xlink" width="400" zoomAndPan="magnify" viewBox="0 0 300 299.999988" height="400" preserveAspectRatio="xMidYMid meet" version="1.0"><defs><clipPath id="2d956a70d5"><path d="M 31 30 L 270 30 L 270 269.25 L 31 269.25 Z M 31 30 " clip-rule="nonzero"/></clipPath></defs><g clip-path="url(#2d956a70d5)"><path fill="currentColor" d="M 78.4375 69.1875 C 81.664062 69.1875 85.925781 66.511719 89.285156 63.050781 C 92.90625 59.324219 95.109375 55.179688 95.039062 52.242188 C 95.003906 50.65625 94.335938 49.707031 93.78125 49.183594 C 90.734375 46.324219 84.539062 49.566406 79.996094 54.246094 C 76.378906 57.976562 74.175781 62.117188 74.242188 65.054688 C 74.28125 66.640625 74.949219 67.59375 75.503906 68.113281 C 76.296875 68.855469 77.300781 69.1875 78.4375 69.1875 Z M 82.714844 56.886719 C 86.488281 52.996094 89.667969 51.875 90.8125 51.875 C 90.988281 51.875 91.113281 51.898438 91.1875 51.945312 C 91.542969 52.488281 90.835938 56.015625 86.570312 60.414062 C 82.199219 64.917969 78.628906 65.710938 78.097656 65.359375 C 77.734375 64.835938 78.429688 61.300781 82.714844 56.886719 Z M 109.46875 33.019531 C 106.242188 29.992188 100.582031 30.070312 93.535156 33.238281 C 87.011719 36.167969 79.871094 41.4375 73.425781 48.082031 C 63.40625 58.40625 57.050781 70.0625 57.234375 77.78125 C 57.28125 79.914062 57.816406 81.699219 58.8125 83.113281 L 33.234375 128.242188 C 30.035156 133.890625 30.65625 140.769531 34.824219 145.765625 L 108.679688 234.34375 C 110.71875 236.785156 113.417969 238.542969 116.496094 239.421875 C 126.789062 242.359375 136.746094 246.449219 146.09375 251.582031 C 153.5625 255.679688 160.699219 260.476562 167.300781 265.835938 C 170.210938 268.199219 173.769531 269.363281 177.324219 269.363281 C 181.527344 269.363281 185.714844 267.734375 188.808594 264.550781 L 219.097656 233.335938 C 220.445312 234.078125 222.0625 234.457031 223.914062 234.457031 C 226.652344 234.457031 229.898438 233.644531 233.503906 232.023438 C 240.023438 229.09375 247.164062 223.820312 253.613281 217.175781 C 263.628906 206.855469 269.984375 195.195312 269.804688 187.476562 C 269.738281 184.714844 268.871094 182.527344 267.222656 180.980469 Z M 76.140625 50.71875 C 86.46875 40.074219 97.117188 34.585938 103.128906 34.585938 C 104.742188 34.585938 106.027344 34.984375 106.878906 35.78125 C 107.757812 36.609375 108.226562 37.894531 108.265625 39.605469 C 108.421875 46.253906 102.34375 57.09375 93.144531 66.578125 C 80.039062 80.078125 66.429688 85.289062 62.40625 81.515625 C 61.527344 80.691406 61.058594 79.402344 61.019531 77.691406 C 60.863281 71.042969 66.941406 60.203125 76.140625 50.71875 Z M 186.09375 261.910156 C 181.738281 266.398438 174.53125 266.832031 169.6875 262.898438 C 162.910156 257.394531 155.585938 252.46875 147.917969 248.261719 C 138.320312 242.996094 128.101562 238.796875 117.535156 235.78125 C 115.195312 235.109375 113.136719 233.777344 111.589844 231.917969 L 37.730469 143.339844 C 34.585938 139.566406 34.113281 134.371094 36.527344 130.109375 L 61.570312 85.925781 L 99.667969 121.65625 L 85.195312 141.195312 C 82.632812 144.65625 78.355469 146.496094 74.03125 146 C 58.9375 144.269531 56.152344 143.363281 55.675781 143.148438 C 54.914062 142.574219 53.824219 142.652344 53.152344 143.367188 C 52.4375 144.128906 52.476562 145.328125 53.238281 146.042969 C 53.910156 146.671875 54.921875 147.621094 73.601562 149.761719 C 74.210938 149.832031 74.820312 149.867188 75.425781 149.867188 C 80.445312 149.867188 85.234375 147.503906 88.238281 143.449219 L 102.449219 124.261719 L 116.714844 137.644531 L 115.160156 206.34375 C 115.136719 207.390625 115.964844 208.257812 117.011719 208.28125 C 117.027344 208.28125 117.039062 208.28125 117.054688 208.28125 C 118.082031 208.28125 118.921875 207.460938 118.945312 206.429688 L 120.421875 141.121094 L 190.3125 206.671875 L 175.441406 202.183594 C 170.742188 200.761719 165.734375 201.542969 161.707031 204.320312 L 148.324219 213.550781 C 147.460938 214.144531 147.246094 215.320312 147.839844 216.183594 C 148.207031 216.714844 148.796875 217 149.398438 217 C 149.769531 217 150.144531 216.894531 150.472656 216.667969 L 163.855469 207.4375 C 166.886719 205.347656 170.808594 204.738281 174.347656 205.808594 L 196.53125 212.503906 L 216.164062 230.921875 Z M 220.160156 229.476562 L 67.625 86.414062 C 70.035156 86.179688 72.765625 85.402344 75.75 84.0625 C 81.292969 81.570312 87.289062 77.382812 92.921875 72.097656 L 247.90625 217.464844 C 235.78125 228.773438 223.875 232.960938 220.160156 229.476562 Z M 250.894531 214.539062 C 250.804688 214.632812 250.710938 214.722656 250.621094 214.816406 L 95.628906 69.449219 C 95.707031 69.371094 95.785156 69.292969 95.859375 69.214844 C 100.496094 64.4375 104.347656 59.375 107.128906 54.546875 L 262.046875 199.84375 C 259.394531 204.613281 255.542969 209.75 250.894531 214.539062 Z M 263.820312 196.316406 L 108.964844 51.074219 C 110.800781 47.25 111.871094 43.667969 112.03125 40.613281 L 264.632812 183.742188 C 265.511719 184.570312 265.980469 185.855469 266.019531 187.566406 C 266.078125 190.007812 265.289062 193.019531 263.820312 196.316406 Z M 263.820312 196.316406 " fill-opacity="1" fill-rule="nonzero"/></g></svg>