<svg xmlns="http://www.w3.org/2000/svg" xmlns:xlink="http://www.w3.org/1999/xlink" width="400" zoomAndPan="magnify" viewBox="0 0 300 299.999988" height="400" preserveAspectRatio="xMidYMid meet" version="1.0"><defs><clipPath id="200d07f221"><path d="M 30 49.050781 L 270 49.050781 L 270 250.800781 L 30 250.800781 Z M 30 49.050781 " clip-rule="nonzero"/></clipPath></defs><g clip-path="url(#200d07f221)"><path fill="currentColor" d="M 268.941406 72.34375 C 265.066406 64.386719 251.742188 58.066406 229.664062 53.707031 C 212.121094 50.246094 194.488281 49.0625 163.910156 49.296875 C 148.324219 49.414062 143.640625 49.574219 132.558594 50.363281 C 83.226562 53.875 45.863281 66.425781 32.714844 83.894531 C 30.191406 87.253906 30.078125 88.152344 31.707031 92.128906 C 34.042969 97.828125 37.226562 108.015625 38.773438 114.722656 C 39.773438 119.039062 40.929688 125.878906 41.371094 130.078125 C 41.796875 134.109375 41.789062 150.050781 41.359375 156.824219 C 41.191406 159.496094 40.707031 166.867188 40.285156 173.199219 C 39.238281 188.890625 39.25 196.476562 40.316406 203.238281 C 41.5 210.71875 44.839844 221.0625 46.703125 223.019531 C 47.949219 224.328125 48.507812 224.300781 52.121094 222.75 C 60.070312 219.335938 69.609375 216.484375 77.007812 215.308594 C 80.058594 214.820312 85.90625 214.28125 88.117188 214.28125 L 89.253906 214.28125 L 89.121094 219.976562 C 88.980469 226.175781 89.121094 227.273438 90.375 229.863281 C 91.234375 231.636719 93.804688 234.351562 96.15625 235.976562 C 105.792969 242.617188 125.433594 247.554688 150.863281 249.714844 C 154.707031 250.039062 158.195312 250.246094 167.882812 250.726562 C 172.363281 250.953125 195.214844 250.617188 200.898438 250.253906 C 229.789062 248.382812 251.769531 243.367188 262.574219 236.179688 C 266.128906 233.8125 268.75 230.542969 269.582031 227.457031 C 269.769531 226.75 269.863281 203.375 269.890625 150.40625 L 269.921875 74.367188 L 268.9375 72.34375 Z M 164.167969 54.839844 C 170.597656 54.507812 188.453125 54.507812 194.882812 54.839844 C 227.433594 56.53125 253.449219 62.917969 262.070312 71.339844 C 263.855469 73.078125 264.59375 74.539062 264.605469 76.339844 C 264.617188 78.160156 263.832031 79.539062 261.570312 81.664062 C 252.710938 89.945312 226.617188 96.230469 194.398438 97.832031 C 188.496094 98.125 169.535156 98.117188 163.910156 97.816406 C 140.929688 96.59375 121.25 93.097656 108.503906 87.984375 C 104.398438 86.335938 102.945312 85.609375 100.230469 83.847656 C 94.664062 80.234375 93.070312 76.671875 95.4375 73.109375 C 101.46875 64.03125 129.195312 56.664062 164.171875 54.847656 Z M 89.78125 72.96875 C 88.96875 74.828125 88.925781 75.074219 88.925781 78.03125 L 88.925781 81.132812 L 87.738281 81.433594 C 83.734375 82.441406 65.683594 88.320312 64.078125 89.140625 C 62.8125 89.78125 62.992188 90.214844 64.433594 89.988281 C 66.140625 89.726562 84.332031 83.445312 87.921875 81.878906 L 88.839844 81.480469 L 89.007812 108.765625 C 89.101562 123.773438 89.175781 152.558594 89.175781 172.738281 L 89.175781 209.421875 L 88.34375 209.421875 C 86.355469 209.421875 80.058594 209.996094 76.78125 210.46875 C 70.046875 211.441406 60.183594 214.386719 52.78125 217.636719 C 51.46875 218.207031 50.253906 218.742188 50.078125 218.8125 C 49.691406 218.976562 49.097656 217.648438 47.882812 213.871094 C 45.851562 207.585938 44.804688 202.242188 44.371094 195.925781 C 44.046875 191.21875 44.15625 187.984375 45.160156 172.566406 C 46.65625 149.597656 46.933594 141.390625 46.453125 134.050781 C 45.511719 119.609375 42.394531 106.585938 36.414062 92.035156 L 35.109375 88.859375 L 36.070312 87.398438 C 37.417969 85.34375 42.28125 80.621094 45.089844 78.640625 C 59.335938 68.613281 81.667969 61.414062 111.367188 57.28125 C 113.929688 56.925781 116.117188 56.628906 116.230469 56.640625 C 116.339844 56.648438 114.589844 57.261719 112.335938 58.011719 C 105.863281 60.160156 101.398438 62.128906 97.546875 64.539062 C 96.390625 65.261719 94.628906 65.933594 91.097656 66.996094 C 77.425781 71.109375 60.769531 77.125 60.769531 77.941406 C 60.769531 78.367188 62.132812 77.964844 68.039062 75.792969 C 74.6875 73.351562 94.085938 66.824219 94.238281 66.976562 C 94.296875 67.035156 94.058594 67.265625 93.707031 67.492188 C 92.628906 68.203125 90.675781 70.925781 89.78125 72.96875 Z M 265.171875 140.089844 L 265.003906 194.960938 L 261.355469 198.542969 C 257.074219 202.742188 253.765625 205.367188 246.980469 209.917969 C 241.0625 213.890625 235.226562 217.394531 221.882812 225 C 216.390625 228.128906 211.613281 230.914062 211.261719 231.191406 C 210.121094 232.097656 214.429688 230.019531 221.628906 226.199219 C 243.886719 214.367188 254.570312 207.476562 262.265625 199.976562 L 265.03125 197.28125 L 264.957031 211.730469 C 264.867188 228.078125 265.046875 226.714844 262.660156 229.039062 C 254.359375 237.117188 227.101562 243.757812 195.132812 245.496094 C 189.664062 245.796875 168.609375 245.777344 163.144531 245.46875 C 133.480469 243.8125 107.75 237.851562 97.886719 230.359375 C 95.648438 228.65625 94.570312 227.386719 94.28125 226.089844 C 94.167969 225.582031 94.105469 225.128906 94.148438 225.085938 C 94.195312 225.042969 96.171875 224.605469 98.550781 224.113281 C 116.484375 220.421875 131.175781 216.355469 141.261719 212.300781 C 147.921875 209.625 158.820312 204.105469 160.203125 202.710938 C 160.34375 202.566406 158.242188 203.558594 155.53125 204.914062 C 145.140625 210.09375 135.859375 213.550781 122.066406 217.359375 C 117.125 218.722656 94.195312 224.492188 94.09375 224.394531 C 94.050781 224.355469 93.949219 193.027344 93.859375 154.785156 L 93.703125 85.246094 L 95.574219 86.652344 C 105.320312 93.980469 126.136719 99.632812 152.269531 102.03125 C 161.980469 102.925781 165.804688 103.066406 179.527344 103.066406 C 193.246094 103.066406 197.019531 102.925781 206.78125 102.03125 C 232.800781 99.652344 253.519531 94.019531 263.445312 86.625 L 265.335938 85.210938 L 265.167969 140.082031 Z M 265.171875 140.089844 " fill-opacity="1" fill-rule="nonzero"/></g><path fill="currentColor" d="M 51.8125 158.421875 C 51.8125 158.53125 52.082031 158.160156 52.402344 157.59375 C 53.363281 155.914062 80.914062 100.5625 81.105469 99.941406 C 81.230469 99.535156 81.175781 99.363281 80.917969 99.363281 C 80.722656 99.363281 79.789062 100.71875 78.847656 102.371094 C 76.753906 106.054688 67.847656 123.800781 63.71875 132.503906 C 56.613281 147.503906 51.804688 157.964844 51.8125 158.414062 Z M 51.8125 158.421875 " fill-opacity="1" fill-rule="nonzero"/><path fill="currentColor" d="M 209.988281 58.925781 C 226.566406 61.042969 238.648438 63.4375 247.292969 66.320312 C 256.503906 69.398438 261.425781 72.777344 261.425781 76.027344 C 261.425781 78.394531 259.519531 80.371094 255.101562 82.574219 C 252.648438 83.800781 246.664062 85.917969 244.832031 86.210938 C 243.648438 86.402344 243.167969 86.816406 243.402344 87.4375 C 243.636719 88.054688 244.058594 87.976562 248.386719 86.554688 C 252.582031 85.175781 256.785156 83.308594 258.734375 81.972656 C 263.835938 78.460938 264.035156 74.398438 259.273438 70.789062 C 252.144531 65.390625 233.058594 60.621094 210.238281 58.550781 C 205.511719 58.121094 205.5 58.121094 205.664062 58.277344 C 205.730469 58.34375 207.675781 58.632812 209.996094 58.933594 Z M 209.988281 58.925781 " fill-opacity="1" fill-rule="nonzero"/><path fill="currentColor" d="M 144.207031 86.3125 C 131.101562 84.023438 125.433594 82.828125 119.90625 81.183594 C 114.214844 79.492188 111.019531 77.328125 111.578125 75.546875 C 111.984375 74.277344 114.796875 72.46875 118.613281 71.023438 C 119.53125 70.671875 122.410156 69.777344 125.011719 69.027344 C 127.617188 68.273438 129.59375 67.65625 129.402344 67.648438 C 127.957031 67.582031 119.449219 69.769531 116.328125 71.007812 C 107.359375 74.554688 108.683594 79.203125 119.558594 82.355469 C 125.695312 84.132812 136.730469 86.140625 150.347656 87.949219 C 151.828125 88.140625 153.328125 88.308594 153.675781 88.308594 L 154.3125 88.320312 L 153.675781 88.09375 C 153.320312 87.964844 149.0625 87.164062 144.207031 86.320312 Z M 144.207031 86.3125 " fill-opacity="1" fill-rule="nonzero"/><path fill="currentColor" d="M 259.644531 101.925781 C 255.90625 106.835938 253.863281 109.21875 249.777344 113.40625 C 237.882812 125.625 224.152344 135.449219 209.472656 142.257812 C 204.105469 144.742188 198.644531 146.992188 188.992188 150.675781 C 176.734375 155.355469 174.40625 156.289062 174.40625 156.507812 C 174.40625 156.8125 175.335938 156.550781 181.1875 154.597656 C 187.664062 152.4375 199.027344 148.273438 203.816406 146.304688 C 212.617188 142.6875 222.574219 137.261719 229.546875 132.28125 C 241.953125 123.421875 253.5625 111.859375 260.621094 101.347656 C 262.851562 98.023438 262.414062 98.285156 259.644531 101.925781 Z M 259.644531 101.925781 " fill-opacity="1" fill-rule="nonzero"/><path fill="currentColor" d="M 189.378906 85.03125 C 181.214844 85.648438 180.347656 85.78125 180.6875 86.332031 C 180.996094 86.832031 186.152344 86.5 196.800781 85.289062 C 202.796875 84.605469 203.648438 84.476562 203.40625 84.257812 C 203.183594 84.054688 199.921875 84.230469 189.378906 85.027344 Z M 189.378906 85.03125 " fill-opacity="1" fill-rule="nonzero"/><path fill="currentColor" d="M 151.007812 69.363281 C 150.644531 70.445312 150.636719 70.667969 150.996094 71.746094 C 151.527344 73.335938 152.890625 74.648438 155.148438 75.734375 C 158.191406 77.195312 164.359375 78.558594 170.570312 79.136719 C 171.90625 79.261719 176.457031 79.328125 180.683594 79.289062 C 188.949219 79.207031 192.429688 78.886719 197.703125 77.707031 C 202.886719 76.550781 205.75 75.1875 207.339844 73.109375 C 207.960938 72.296875 208.070312 71.917969 208.070312 70.582031 C 208.070312 69.246094 207.960938 68.863281 207.339844 68.050781 C 204.675781 64.558594 197.058594 62.433594 184.777344 61.746094 C 172.96875 61.085938 160.53125 62.65625 154.875 65.507812 C 153.027344 66.441406 151.484375 67.984375 151.007812 69.371094 Z M 160.144531 68.910156 C 171.535156 65.785156 193.476562 66.277344 201.480469 69.832031 C 202.867188 70.449219 202.914062 70.503906 202.4375 70.851562 C 200.914062 71.976562 194.085938 73.472656 187.96875 74.023438 C 185.277344 74.261719 174.414062 74.320312 171.972656 74.113281 C 168.292969 73.792969 163.824219 73.148438 161.652344 72.625 C 159.292969 72.054688 156.234375 70.90625 156.234375 70.597656 C 156.234375 70.3125 158.316406 69.414062 160.144531 68.910156 Z M 160.144531 68.910156 " fill-opacity="1" fill-rule="nonzero"/><path fill="currentColor" d="M 177.480469 59.640625 C 177.480469 59.445312 176.546875 59.410156 174.410156 59.527344 C 169.9375 59.765625 159.585938 60.71875 158.546875 60.992188 C 157.367188 61.296875 163.835938 61.082031 171.089844 60.578125 C 176.890625 60.175781 177.484375 60.089844 177.484375 59.640625 Z M 177.480469 59.640625 " fill-opacity="1" fill-rule="nonzero"/><path fill="currentColor" d="M 249.679688 129.722656 C 243.632812 134.507812 240.183594 137.113281 236.410156 139.753906 C 214.292969 155.230469 186.304688 168.84375 162.332031 175.78125 C 152.503906 178.625 144.304688 180.519531 126.453125 184.085938 C 120.699219 185.234375 115.746094 186.273438 115.445312 186.390625 C 114.671875 186.703125 114.929688 186.691406 118.15625 186.246094 C 129.75 184.628906 149.605469 180.589844 160.253906 177.683594 C 183.753906 171.257812 210.105469 158.820312 232.761719 143.460938 C 239.492188 138.902344 249.058594 131.546875 250.78125 129.609375 C 251.652344 128.632812 250.976562 128.703125 249.679688 129.730469 Z M 249.679688 129.722656 " fill-opacity="1" fill-rule="nonzero"/><path fill="currentColor" d="M 118.359375 148.390625 C 118.359375 148.566406 118.164062 148.617188 123.246094 147.21875 C 135.636719 143.820312 148.914062 139.753906 159.308594 136.179688 C 170.515625 132.332031 183.363281 126.660156 183.363281 125.558594 C 183.363281 125.128906 182.453125 125.464844 177.480469 127.71875 C 166.675781 132.609375 156.171875 136.425781 137.539062 142.242188 C 122.921875 146.800781 118.359375 148.261719 118.359375 148.390625 Z M 118.359375 148.390625 " fill-opacity="1" fill-rule="nonzero"/><path fill="currentColor" d="M 135.925781 115.152344 C 144.675781 111.972656 162.710938 104.222656 162.304688 103.816406 C 162.230469 103.742188 158.25 105.304688 153.457031 107.273438 C 138.421875 113.460938 130.738281 116.210938 121.476562 118.726562 C 118.566406 119.515625 116.074219 120.261719 115.9375 120.386719 C 114.660156 121.570312 127.554688 118.191406 135.925781 115.152344 Z M 135.925781 115.152344 " fill-opacity="1" fill-rule="nonzero"/><path fill="currentColor" d="M 237.453125 176.152344 C 237.164062 176.152344 235.070312 177.425781 231.996094 179.476562 C 222.199219 186.003906 210.535156 192.019531 183.363281 204.5625 C 179.632812 206.285156 175.746094 208.082031 174.726562 208.550781 C 173.707031 209.019531 172.871094 209.476562 172.871094 209.558594 C 172.871094 209.808594 173.753906 209.464844 179.527344 206.980469 C 205.222656 195.914062 221.535156 187.863281 231.351562 181.402344 C 235.625 178.589844 237.621094 177.035156 237.621094 176.519531 C 237.621094 176.3125 237.546875 176.144531 237.453125 176.144531 Z M 237.453125 176.152344 " fill-opacity="1" fill-rule="nonzero"/><path fill="currentColor" d="M 158.285156 154.378906 C 158.285156 153.960938 157.671875 154.125 155.714844 155.066406 C 145.816406 159.851562 136.121094 163.417969 116.5625 169.476562 C 111.570312 171.023438 107.015625 172.46875 106.453125 172.6875 L 105.429688 173.085938 L 106.324219 172.925781 C 110.636719 172.164062 133.09375 165.304688 141.382812 162.210938 C 148.007812 159.742188 158.273438 154.984375 158.273438 154.386719 Z M 158.285156 154.378906 " fill-opacity="1" fill-rule="nonzero"/><path fill="currentColor" d="M 214.433594 75.1875 C 211.222656 76.117188 208.542969 76.921875 208.476562 76.988281 C 207.703125 77.761719 219.179688 75.085938 223.382812 73.515625 C 225.167969 72.847656 226.617188 71.648438 226.617188 70.84375 C 226.617188 68.730469 222.421875 66.8125 213.246094 64.710938 C 212.082031 64.445312 212.441406 65.027344 213.625 65.328125 C 218.578125 66.589844 224.113281 68.890625 225.050781 70.085938 L 225.636719 70.824219 L 224.988281 71.382812 C 224.03125 72.199219 220.976562 73.300781 214.429688 75.1875 Z M 214.433594 75.1875 " fill-opacity="1" fill-rule="nonzero"/><path fill="currentColor" d="M 75.292969 136.730469 C 74.851562 136.730469 64.59375 157.558594 64.621094 158.410156 C 64.621094 158.523438 64.855469 158.328125 65.136719 157.972656 C 65.710938 157.257812 75.265625 138.210938 75.503906 137.304688 C 75.609375 136.90625 75.542969 136.726562 75.296875 136.726562 Z M 75.292969 136.730469 " fill-opacity="1" fill-rule="nonzero"/><path fill="currentColor" d="M 156.308594 62.257812 C 155.4375 62.257812 147.675781 64.269531 145.265625 65.121094 C 138.75 67.421875 136.464844 69.898438 138.039062 72.957031 C 139.113281 75.042969 141.570312 76.6875 146.488281 78.625 C 151.636719 80.652344 157.695312 82.519531 166.089844 84.671875 C 170.511719 85.808594 171.824219 86.035156 171.078125 85.546875 C 170.867188 85.402344 166.78125 84.011719 161.992188 82.449219 C 148.226562 77.949219 142.796875 75.65625 140.359375 73.308594 C 138.792969 71.796875 138.679688 70.933594 139.871094 69.570312 C 141.390625 67.84375 144.640625 66.386719 152.132812 64.070312 C 156.195312 62.816406 157.472656 62.257812 156.304688 62.257812 Z M 156.308594 62.257812 " fill-opacity="1" fill-rule="nonzero"/><path fill="currentColor" d="M 180.675781 58.664062 C 183.308594 58.699219 193.117188 59.253906 196.671875 59.574219 C 212.941406 61.042969 234.550781 65.589844 242.074219 69.125 C 246.613281 71.261719 247.160156 72.832031 243.886719 74.382812 C 241.207031 75.652344 236.902344 76.546875 223.425781 78.636719 C 219.773438 79.203125 216.6875 79.765625 216.566406 79.882812 C 216.28125 80.167969 217.871094 80.027344 225.085938 79.125 C 241.597656 77.058594 247.09375 75.378906 247.09375 72.402344 C 247.09375 68.671875 237.078125 64.984375 217.148438 61.378906 C 206.671875 59.488281 200.289062 58.804688 188.851562 58.382812 C 182.960938 58.15625 180.773438 58.15625 180.402344 58.371094 C 179.957031 58.632812 179.984375 58.660156 180.675781 58.664062 Z M 180.675781 58.664062 " fill-opacity="1" fill-rule="nonzero"/><path fill="currentColor" d="M 104.125 83.632812 C 111.4375 87.191406 122.660156 89.597656 141.007812 91.527344 C 145.125 91.964844 146.253906 92.003906 146.253906 91.722656 C 146.253906 91.605469 144.839844 91.363281 143.117188 91.195312 C 139.285156 90.820312 132.515625 89.851562 127.65625 88.996094 C 109.742188 85.828125 98.882812 81.148438 98.90625 76.601562 C 98.945312 68.449219 130.601562 60.160156 173.253906 57.136719 C 178.679688 56.757812 179.78125 56.621094 179.78125 56.347656 C 179.78125 56.089844 177.664062 56.167969 167.625 56.773438 C 142.191406 58.316406 119.535156 62.355469 107.480469 67.503906 C 95.304688 72.703125 94.050781 78.722656 104.125 83.625 Z M 104.125 83.632812 " fill-opacity="1" fill-rule="nonzero"/><path fill="currentColor" d="M 203.96875 93.371094 C 188.082031 94.207031 167.070312 94.117188 159.101562 93.1875 C 156.8125 92.917969 155.992188 93.011719 156.722656 93.464844 C 157.347656 93.84375 163.019531 94.375 170.582031 94.75 C 175.96875 95.019531 192.957031 94.871094 198.464844 94.511719 C 208.378906 93.863281 215.851562 93.042969 212.414062 92.996094 C 211.855469 92.984375 208.054688 93.152344 203.96875 93.371094 Z M 203.96875 93.371094 " fill-opacity="1" fill-rule="nonzero"/><path fill="currentColor" d="M 80.117188 151.839844 C 79.5625 151.839844 78.371094 154.296875 74.988281 162.445312 C 71.703125 170.347656 70.234375 174.175781 70.246094 174.8125 C 70.253906 175.207031 70.300781 175.195312 70.660156 174.742188 C 71.636719 173.511719 78.238281 159.039062 79.582031 155.164062 C 80.46875 152.617188 80.59375 151.839844 80.113281 151.839844 Z M 80.117188 151.839844 " fill-opacity="1" fill-rule="nonzero"/><path fill="currentColor" d="M 251.191406 76.710938 C 251.191406 76.503906 251.128906 76.328125 251.054688 76.328125 C 250.976562 76.328125 249.652344 76.851562 248.105469 77.484375 C 241.171875 80.34375 232.085938 82.820312 217.535156 85.8125 C 213.316406 86.679688 209.683594 87.492188 209.476562 87.613281 C 208.839844 87.976562 209.417969 87.902344 216.46875 86.710938 C 223.214844 85.574219 229.644531 84.273438 234.433594 83.085938 C 241.917969 81.226562 251.195312 77.699219 251.195312 76.710938 Z M 251.191406 76.710938 " fill-opacity="1" fill-rule="nonzero"/></svg>