<svg xmlns="http://www.w3.org/2000/svg" xmlns:xlink="http://www.w3.org/1999/xlink" width="400" zoomAndPan="magnify" viewBox="0 0 300 299.999988" height="400" preserveAspectRatio="xMidYMid meet" version="1.0"><defs><clipPath id="ba14317955"><path d="M 30 36.898438 L 270 36.898438 L 270 263.398438 L 30 263.398438 Z M 30 36.898438 " clip-rule="nonzero"/></clipPath></defs><g clip-path="url(#ba14317955)"><path fill="#a9a0f0" d="M 268.5625 234.265625 C 267.792969 231.683594 266.9375 229.117188 266.046875 226.566406 C 265.3125 224.429688 265.105469 222.289062 265.5 220.03125 C 266.21875 215.941406 266.816406 211.835938 267.382812 207.714844 C 268.015625 203.027344 268.03125 198.320312 267.28125 193.632812 C 266.648438 189.734375 265.125 186.34375 261.976562 183.828125 C 261.753906 183.660156 261.582031 183.4375 261.359375 183.265625 C 257.628906 180.101562 255.0625 176.113281 253.234375 171.632812 C 250.617188 165.214844 248.152344 158.75 245.792969 152.246094 C 244.21875 147.882812 242.675781 143.503906 241.070312 139.160156 C 238.777344 132.984375 235.097656 127.78125 229.914062 123.675781 C 228.820312 122.820312 227.792969 121.898438 226.679688 121.074219 C 225.210938 119.996094 223.976562 118.714844 222.917969 117.242188 C 221.460938 115.222656 219.972656 113.222656 218.519531 111.1875 C 215.0625 106.328125 211.300781 101.707031 208.066406 96.695312 C 207.195312 95.34375 206.117188 94.179688 204.988281 93.050781 C 201.121094 89.21875 196.707031 86.105469 192 83.402344 C 182.867188 78.132812 173.335938 73.667969 163.515625 69.835938 C 162.96875 69.613281 162.300781 69.578125 161.90625 69.015625 C 162.316406 68.363281 163.035156 68.226562 163.636719 67.902344 C 167.535156 65.796875 171.453125 63.726562 175.339844 61.605469 C 176.484375 60.972656 177.613281 60.289062 178.675781 59.5 C 180.847656 57.894531 182.0625 55.703125 182.472656 53.050781 C 182.847656 50.671875 182.558594 48.363281 181.941406 46.054688 C 181.378906 43.949219 180.503906 42 179.101562 40.324219 C 177.289062 38.203125 175.082031 36.933594 172.242188 36.96875 C 170.839844 36.988281 169.503906 37.378906 168.238281 37.945312 C 166.339844 38.78125 164.472656 39.707031 162.59375 40.578125 C 159.90625 41.84375 157.203125 43.09375 154.5 44.359375 C 152.257812 45.421875 149.964844 45.488281 147.640625 44.703125 C 146.988281 44.480469 146.320312 44.273438 145.65625 44.105469 C 144.714844 43.847656 143.773438 43.660156 142.78125 43.710938 C 139.476562 43.863281 136.996094 45.457031 135.253906 48.191406 C 134.3125 49.664062 133.710938 51.289062 133.164062 52.933594 C 132.308594 55.566406 131.488281 58.203125 130.648438 60.851562 C 130.511719 61.28125 130.496094 61.777344 130.035156 62.101562 C 126.785156 59.277344 123.550781 56.457031 120.28125 53.648438 C 118.125 51.800781 115.9375 49.988281 113.730469 48.210938 C 111.113281 46.105469 108.082031 45.371094 104.765625 45.730469 C 101.480469 46.089844 98.398438 47.148438 95.457031 48.519531 C 87.585938 52.160156 83.003906 58.40625 81.273438 66.824219 C 80.984375 68.242188 80.914062 69.679688 81.308594 71.136719 C 82.011719 73.734375 83.480469 75.738281 85.6875 77.261719 C 87.347656 78.40625 89.144531 79.3125 91.007812 80.082031 C 94.601562 81.554688 98.261719 82.804688 102.042969 83.746094 C 103.035156 83.984375 104.082031 84.15625 105.074219 84.753906 C 104.902344 84.992188 104.851562 85.128906 104.746094 85.214844 C 104.269531 85.609375 103.773438 85.984375 103.277344 86.363281 C 93.96875 93.273438 85.125 100.699219 76.996094 108.980469 C 72.71875 113.324219 68.441406 117.6875 64.421875 122.273438 C 63.140625 123.746094 61.957031 125.265625 61.121094 127.046875 C 58.605469 132.316406 55.578125 137.277344 52.359375 142.136719 C 49.792969 146.003906 47.195312 149.851562 44.558594 153.683594 C 43.226562 155.566406 42.351562 157.566406 42.097656 159.808594 C 41.992188 160.699219 41.957031 161.605469 41.925781 162.511719 C 41.789062 167.457031 40.964844 172.28125 39.496094 177.003906 C 38.621094 179.773438 37.527344 182.476562 36.414062 185.164062 C 35.253906 188.054688 34.070312 190.945312 32.960938 193.855469 C 31.863281 196.710938 31.128906 199.65625 30.667969 202.683594 C 30 207.113281 30.171875 211.527344 30.597656 215.960938 C 31.589844 225.746094 33.320312 235.429688 35.695312 244.992188 C 36.84375 249.5625 39.359375 253 43.34375 255.414062 C 45.484375 256.710938 47.722656 257.808594 50.070312 258.664062 C 55.714844 260.734375 61.582031 261.65625 67.519531 262.203125 C 72.34375 262.648438 77.203125 262.804688 82.042969 262.90625 C 87.929688 263.027344 93.832031 263.058594 99.71875 262.90625 C 106.988281 262.71875 114.261719 262.476562 121.53125 261.980469 C 125.054688 261.742188 128.597656 261.675781 132.121094 261.453125 C 136.621094 261.179688 141.121094 261.160156 145.621094 260.699219 C 149.554688 260.289062 153.488281 259.929688 157.40625 259.535156 C 159.222656 259.347656 161 259.382812 162.796875 259.691406 C 165.449219 260.152344 168.117188 260.597656 170.785156 261.023438 C 176.621094 261.964844 182.488281 262.289062 188.375 261.539062 C 192.085938 261.058594 195.816406 260.714844 199.546875 260.375 C 203.207031 260.050781 206.851562 259.757812 210.546875 260.132812 C 215.78125 260.664062 221.035156 261.042969 226.269531 261.484375 C 232.824219 262.035156 239.394531 262.425781 245.980469 262.632812 C 248.324219 262.699219 250.703125 262.753906 253.046875 262.445312 C 258.347656 261.761719 262.59375 259.3125 265.65625 254.882812 C 267.808594 251.75 269.160156 248.3125 269.605469 244.515625 C 270 241.042969 269.554688 237.621094 268.5625 234.265625 Z M 105.671875 50.144531 C 107.605469 50.007812 109.316406 50.484375 110.871094 51.664062 C 111.214844 51.941406 111.453125 52.453125 112.035156 52.332031 C 112.035156 52.332031 111.882812 52.8125 110.90625 52.625 C 108.289062 52.078125 105.65625 51.800781 103.003906 51.496094 C 102.128906 51.390625 101.257812 51.375 100.417969 51.699219 C 100.386719 51.582031 100.316406 51.425781 100.332031 51.425781 C 102.042969 50.792969 103.808594 50.28125 105.671875 50.144531 Z M 94.277344 76.746094 C 92.105469 75.996094 90.085938 74.949219 88.152344 73.71875 C 85.929688 72.332031 85.191406 70.382812 85.570312 67.867188 C 85.722656 66.910156 85.875 65.953125 86.21875 65.042969 C 88.410156 59.039062 92.207031 54.488281 98.261719 52.078125 C 98.894531 51.820312 99.582031 51.632812 100.230469 51.441406 C 100.265625 51.441406 100.332031 51.582031 100.402344 51.699219 C 100.402344 51.699219 100.386719 51.699219 100.386719 51.71875 C 100.214844 52.316406 100.640625 52.605469 100.984375 52.933594 C 103.054688 54.898438 105.378906 56.507812 107.757812 58.0625 C 108.082031 58.269531 108.5625 58.355469 108.648438 59.003906 C 107.777344 59.398438 106.835938 59.089844 105.929688 59.109375 C 104.96875 59.125 104.011719 59.140625 103.054688 59.175781 C 103.070312 59.792969 103.5 59.773438 103.773438 59.878906 C 105.792969 60.597656 107.792969 61.367188 109.847656 61.980469 C 112.839844 62.890625 115.644531 64.1875 118.367188 65.730469 C 120.710938 67.0625 123.070312 68.382812 125.449219 69.664062 C 126.972656 70.484375 128.527344 71.222656 130.070312 72.007812 C 130.324219 72.144531 130.410156 72.007812 130.53125 71.835938 L 130.511719 71.855469 C 130.375 71.324219 129.847656 71.1875 129.46875 70.914062 C 126.03125 68.449219 122.609375 65.984375 119.117188 63.589844 C 117.972656 62.804688 117.21875 61.863281 116.828125 60.527344 C 116.5 59.398438 116.003906 58.320312 115.628906 57.207031 C 115.476562 56.765625 115.148438 56.355469 115.40625 55.738281 C 116.742188 56.355469 117.699219 57.464844 118.8125 58.355469 C 119.941406 59.261719 121.019531 60.253906 122.128906 61.195312 C 123.191406 62.101562 124.25 62.992188 125.296875 63.882812 C 126.40625 64.824219 127.484375 65.796875 128.613281 66.722656 C 129.726562 67.644531 130.890625 68.519531 132.070312 69.441406 C 132.753906 69.097656 132.773438 68.347656 132.976562 67.746094 C 134.15625 64.207031 135.285156 60.648438 136.449219 57.089844 C 136.964844 55.515625 137.492188 53.941406 138.042969 52.367188 C 138.367188 51.441406 138.792969 50.570312 139.445312 49.835938 C 140.625 48.5 142.027344 47.765625 143.859375 48.210938 C 144.664062 48.414062 145.484375 48.585938 146.253906 48.859375 C 149.761719 50.089844 153.199219 49.902344 156.550781 48.3125 C 160.300781 46.53125 164.046875 44.738281 167.792969 42.957031 C 168.597656 42.5625 169.402344 42.152344 170.238281 41.8125 C 172.601562 40.851562 174.429688 41.296875 175.917969 43.351562 C 177.921875 46.089844 178.757812 49.183594 178.195312 52.574219 C 177.988281 53.855469 177.390625 54.933594 176.3125 55.6875 C 175.355469 56.355469 174.378906 57.039062 173.371094 57.621094 C 169.042969 60.066406 164.679688 62.496094 160.332031 64.925781 C 155.320312 67.730469 150.324219 70.554688 145.3125 73.359375 C 143.429688 74.421875 141.683594 75.652344 140.214844 77.261719 C 137.21875 80.527344 133.40625 82.136719 129.128906 82.871094 C 124.628906 83.640625 120.144531 83.300781 115.695312 82.511719 C 108.390625 81.210938 101.273438 79.175781 94.277344 76.746094 Z M 263.6875 249.816406 C 263.226562 250.742188 262.695312 251.648438 262.097656 252.488281 C 259.445312 256.269531 255.75 258.132812 251.144531 258.269531 C 245.945312 258.421875 240.761719 258.117188 235.578125 257.789062 C 228.050781 257.3125 220.539062 256.59375 213.011719 255.960938 C 207.757812 255.515625 202.488281 255.515625 197.253906 256.164062 C 194.429688 256.507812 191.589844 256.710938 188.785156 257.089844 C 183.035156 257.875 177.324219 257.671875 171.609375 256.730469 C 168.460938 256.199219 165.3125 255.753906 162.179688 255.242188 C 160.386719 254.949219 158.605469 254.917969 156.808594 255.105469 C 152.191406 255.617188 147.585938 256.183594 142.953125 256.507812 C 136.449219 256.988281 129.949219 257.277344 123.449219 257.636719 C 120.195312 257.808594 116.945312 258.011719 113.695312 258.132812 C 108.855469 258.304688 103.996094 258.421875 99.152344 258.542969 C 95.695312 258.613281 92.222656 258.664062 88.769531 258.664062 C 83.996094 258.664062 79.222656 258.558594 74.449219 258.320312 C 70.015625 258.097656 65.601562 257.789062 61.222656 257.039062 C 58.007812 256.492188 54.839844 255.773438 51.761719 254.695312 C 49.726562 253.992188 47.777344 253.101562 45.929688 251.992188 C 42.675781 250.039062 40.640625 247.269531 39.734375 243.539062 C 38.195312 237.277344 36.945312 230.964844 35.902344 224.601562 C 35.355469 221.246094 34.960938 217.875 34.652344 214.488281 C 34.105469 208.347656 34.601562 202.308594 36.742188 196.472656 C 37.339844 194.847656 37.921875 193.222656 38.570312 191.613281 C 39.597656 189.046875 40.691406 186.5 41.738281 183.933594 C 44.644531 176.796875 46.152344 169.375 46.40625 161.691406 C 46.476562 159.535156 47.074219 157.6875 48.359375 155.910156 C 52.941406 149.542969 57.425781 143.042969 61.34375 136.164062 C 62.402344 134.300781 63.480469 132.4375 64.40625 130.503906 C 65.5 128.226562 66.867188 126.15625 68.578125 124.324219 C 71.589844 121.074219 74.621094 117.824219 77.699219 114.625 C 84.457031 107.558594 91.660156 100.957031 99.308594 94.863281 C 102.832031 92.058594 106.441406 89.375 110 86.617188 C 110.546875 86.191406 111.078125 86.140625 111.746094 86.277344 C 114.398438 86.773438 117.046875 87.25 119.75 87.472656 C 124.558594 87.882812 129.296875 87.664062 133.933594 86.175781 C 136.671875 85.285156 139.171875 84 141.359375 82.136719 C 142.199219 81.417969 143.054688 80.699219 143.859375 79.929688 C 145.433594 78.441406 147.175781 77.207031 149.058594 76.164062 C 150.992188 75.085938 152.976562 74.09375 154.875 72.964844 C 156.089844 72.246094 157.21875 72.144531 158.589844 72.605469 C 163.070312 74.09375 167.398438 75.925781 171.660156 77.910156 C 178.382812 81.023438 185.089844 84.1875 191.386719 88.105469 C 194.925781 90.3125 198.296875 92.742188 201.324219 95.617188 C 202.488281 96.710938 203.585938 97.875 204.472656 99.195312 C 208.390625 105.078125 212.71875 110.65625 216.894531 116.351562 C 221.667969 122.890625 220.058594 121.402344 226.269531 126.226562 C 231.984375 130.65625 235.765625 136.371094 238.109375 143.164062 C 240.042969 148.792969 242.027344 154.402344 244.097656 159.980469 C 245.929688 164.90625 247.757812 169.835938 249.878906 174.660156 C 251.949219 179.363281 254.808594 183.523438 258.84375 186.703125 C 261.546875 188.84375 262.8125 191.597656 263.257812 194.863281 C 263.34375 195.480469 263.394531 196.097656 263.464844 196.730469 C 263.839844 200.886719 263.585938 205.042969 262.96875 209.152344 C 262.421875 212.777344 261.804688 216.386719 261.136719 219.996094 C 260.726562 222.238281 260.8125 224.394531 261.566406 226.550781 C 262.59375 229.5625 263.652344 232.574219 264.523438 235.636719 C 265.929688 240.460938 265.929688 245.214844 263.6875 249.816406 Z M 263.6875 249.816406 " fill-opacity="1" fill-rule="nonzero"/></g><path fill="#a9a0f0" d="M 227.945312 214.335938 C 223.875 217.980469 219.667969 221.484375 215.507812 225.042969 C 215.527344 225.386719 215.75 225.523438 216.054688 225.574219 C 219.496094 223.25 222.96875 220.972656 226.355469 218.558594 C 235.082031 212.332031 243.515625 205.695312 252.105469 199.246094 C 252.429688 198.988281 252.753906 198.730469 253.0625 198.457031 C 253.113281 198.421875 253.128906 198.339844 253.148438 198.269531 C 253.164062 198.21875 253.148438 198.167969 253.128906 198.117188 C 252.824219 197.980469 252.617188 198.183594 252.378906 198.320312 C 248.082031 200.835938 243.753906 203.300781 239.476562 205.867188 C 235.371094 208.347656 231.523438 211.136719 227.945312 214.335938 Z M 227.945312 214.335938 " fill-opacity="1" fill-rule="nonzero"/><path fill="#a9a0f0" d="M 226.648438 206.328125 C 231.523438 200.835938 236.46875 195.394531 241.15625 189.75 C 242.523438 188.105469 243.035156 187.800781 241.035156 185.523438 C 240.949219 185.421875 240.847656 185.320312 240.746094 185.214844 C 237.683594 182.1875 234.636719 179.175781 231.574219 176.164062 C 231.367188 175.976562 231.199219 175.652344 230.71875 175.875 C 231.113281 176.523438 231.453125 177.105469 231.832031 177.6875 C 233.78125 180.714844 235.695312 183.761719 237.683594 186.753906 C 238.417969 187.867188 238.519531 188.929688 237.835938 190.039062 C 237.21875 191.050781 236.605469 192.058594 235.902344 193 C 232.941406 196.933594 229.949219 200.835938 226.972656 204.753906 C 226.59375 205.25 226.117188 205.660156 225.929688 206.277344 C 226.046875 206.378906 226.167969 206.5 226.289062 206.601562 C 226.441406 206.515625 226.5625 206.429688 226.648438 206.328125 Z M 226.648438 206.328125 " fill-opacity="1" fill-rule="nonzero"/><path fill="#a9a0f0" d="M 232.804688 230.347656 C 234.621094 229.082031 236.347656 227.730469 237.988281 226.242188 C 241.976562 222.632812 245.996094 219.058594 250.015625 215.464844 C 249.964844 215.171875 249.761719 215.070312 249.519531 215 C 244.96875 218.253906 240.402344 221.519531 235.851562 224.769531 C 234.894531 225.457031 233.917969 226.121094 233.199219 227.082031 C 232 228.636719 230.566406 229.921875 229.058594 231.136719 C 225.140625 234.316406 221.222656 237.515625 217.324219 240.699219 C 217.542969 240.714844 217.648438 240.835938 217.597656 241.058594 C 222.660156 237.5 227.722656 233.90625 232.804688 230.347656 Z M 232.804688 230.347656 " fill-opacity="1" fill-rule="nonzero"/><path fill="#a9a0f0" d="M 242.164062 245.953125 C 236.707031 246.890625 231.230469 247.800781 225.773438 248.738281 C 223.652344 249.097656 221.546875 249.492188 219.425781 249.871094 C 213.96875 250.84375 208.511719 251.820312 203.054688 252.792969 C 203.089844 252.898438 203.105469 253 203.089844 253.101562 C 204.746094 252.949219 206.390625 252.792969 208.050781 252.640625 C 212.875 252.160156 217.683594 251.648438 222.507812 251.203125 C 224.097656 251.050781 225.671875 250.929688 227.226562 250.554688 C 230.71875 249.699219 234.207031 248.824219 237.683594 247.953125 C 240.09375 247.355469 242.507812 246.738281 244.917969 246.121094 C 244.882812 245.898438 244.851562 245.675781 244.816406 245.4375 C 243.925781 245.609375 243.035156 245.796875 242.164062 245.953125 Z M 242.164062 245.953125 " fill-opacity="1" fill-rule="nonzero"/><path fill="#a9a0f0" d="M 248.71875 235.277344 C 246.613281 235.941406 244.492188 236.558594 242.386719 237.226562 C 241.15625 237.601562 239.855469 237.789062 238.707031 238.390625 C 239.136719 238.40625 239.546875 238.421875 239.972656 238.355469 C 243.875 237.808594 247.757812 237.261719 251.660156 236.746094 C 252.429688 236.644531 252.925781 236.285156 253.214844 235.582031 C 253.917969 233.941406 254.636719 232.296875 255.335938 230.640625 C 255.492188 230.296875 255.320312 229.988281 255.097656 229.714844 C 255.082031 229.835938 255.097656 230.007812 255.03125 230.074219 C 253.832031 231.410156 252.566406 232.675781 251.199219 233.855469 C 250.480469 234.503906 249.640625 234.984375 248.71875 235.277344 Z M 248.71875 235.277344 " fill-opacity="1" fill-rule="nonzero"/><path fill="#a9a0f0" d="M 256.894531 247.285156 C 256.5 247.542969 256.109375 247.832031 255.78125 248.191406 C 254.398438 249.679688 252.632812 250.296875 250.683594 250.535156 C 248.992188 250.742188 247.296875 251 245.601562 251.238281 L 245.671875 251.324219 L 245.621094 251.425781 C 246.371094 251.390625 247.125 251.359375 247.878906 251.324219 C 249.792969 251.222656 251.710938 251.085938 253.628906 251.050781 C 254.550781 251.03125 255.183594 250.65625 255.679688 249.921875 C 256.074219 249.355469 256.449219 248.792969 256.828125 248.210938 C 257.015625 247.9375 257.117188 247.578125 257.527344 247.542969 C 257.527344 247.542969 257.5625 247.542969 257.5625 247.542969 C 257.40625 247.304688 257.152344 247.132812 256.894531 247.285156 Z M 256.894531 247.285156 " fill-opacity="1" fill-rule="nonzero"/><path fill="#a9a0f0" d="M 117.835938 108.382812 C 117.699219 108.585938 117.5625 108.738281 117.460938 108.910156 C 115.117188 113.71875 112.085938 118.117188 109.453125 122.753906 C 109.316406 122.992188 109.179688 123.25 108.992188 123.4375 C 108.871094 123.574219 108.632812 123.691406 108.460938 123.675781 C 108.289062 123.640625 108.152344 123.4375 108.238281 123.195312 C 108.324219 122.941406 108.359375 122.648438 108.441406 122.394531 C 109.246094 119.535156 110.085938 116.679688 110.871094 113.804688 C 111.695312 110.808594 112.496094 107.800781 113.320312 104.804688 C 113.421875 104.445312 113.542969 104.105469 113.644531 103.746094 C 113.457031 103.796875 113.371094 103.710938 113.371094 103.523438 C 113.0625 103.796875 112.941406 104.15625 112.976562 104.566406 C 112.550781 104.875 112.480469 105.371094 112.292969 105.816406 C 110.941406 108.84375 109.640625 111.90625 108.21875 114.917969 C 103.753906 124.445312 99.496094 134.0625 95.253906 143.691406 C 91.09375 153.136719 86.988281 162.582031 82.867188 172.042969 C 82.761719 172.28125 82.59375 172.503906 82.953125 172.726562 C 84.234375 171.375 85.5 170.007812 86.785156 168.636719 C 93.746094 161.296875 100.710938 153.957031 107.691406 146.652344 C 108.785156 145.507812 109.402344 144.222656 109.777344 142.683594 C 112.394531 131.511719 114.996094 120.324219 117.957031 109.234375 C 118.042969 108.945312 118.246094 108.636719 117.835938 108.382812 Z M 117.835938 108.382812 " fill-opacity="1" fill-rule="nonzero"/><path fill="#a9a0f0" d="M 114.945312 91.03125 C 112.480469 93.667969 110.035156 96.300781 107.570312 98.917969 C 99.855469 107.082031 92.414062 115.480469 84.882812 123.8125 C 81.546875 127.507812 78.261719 131.273438 74.894531 134.949219 C 72.976562 137.039062 72.035156 139.449219 71.882812 142.273438 C 71.710938 145.730469 71.367188 149.167969 71.113281 152.625 C 70.683594 158.355469 70.257812 164.085938 69.828125 169.816406 C 69.554688 173.546875 69.28125 177.277344 68.992188 181.007812 C 69.246094 180.957031 69.488281 180.886719 69.742188 180.835938 C 69.828125 180.289062 69.914062 179.742188 69.984375 179.195312 C 71.265625 170.570312 72.566406 161.964844 73.832031 153.34375 C 74.003906 152.144531 74.378906 151.066406 75.046875 150.074219 C 76.140625 148.484375 77.1875 146.839844 78.261719 145.234375 C 90.632812 127.097656 102.933594 108.910156 115.664062 91.015625 C 115.457031 91.015625 115.199219 91.015625 114.945312 91.03125 Z M 114.945312 91.03125 " fill-opacity="1" fill-rule="nonzero"/><path fill="#a9a0f0" d="M 168.167969 128.242188 C 165.296875 121.8125 162.472656 115.34375 159.136719 109.117188 C 158.382812 107.695312 157.476562 106.429688 156.382812 105.25 C 151.539062 100.015625 146.765625 94.726562 141.957031 89.457031 C 141.71875 89.457031 141.460938 89.457031 141.222656 89.457031 C 141.378906 89.679688 141.546875 89.902344 141.683594 90.144531 C 146.066406 97.277344 150.460938 104.394531 154.824219 111.527344 C 158.84375 118.082031 162.402344 124.875 166.117188 131.597656 C 171.027344 140.492188 175.800781 149.476562 180.640625 158.40625 C 180.882812 158.867188 180.949219 159.484375 181.566406 159.671875 C 182.097656 159.039062 181.496094 158.558594 181.292969 158.0625 C 176.945312 148.105469 172.617188 138.148438 168.167969 128.242188 Z M 168.167969 128.242188 " fill-opacity="1" fill-rule="nonzero"/><path fill="#a9a0f0" d="M 223.5 137.960938 C 223.652344 138.0625 223.789062 138.0625 223.839844 137.894531 C 223.875 137.789062 223.875 137.601562 223.824219 137.550781 C 223.171875 136.933594 222.507812 136.320312 221.839844 135.738281 C 214.292969 129.21875 206.730469 122.683594 199.1875 116.164062 C 197.871094 115.035156 196.535156 113.925781 195.132812 112.933594 C 192.804688 111.289062 190.511719 109.628906 188.21875 107.953125 C 178.46875 100.871094 168.699219 93.789062 158.949219 86.703125 C 158.605469 86.753906 158.453125 86.960938 158.46875 87.304688 C 167.3125 94.761719 176.160156 102.222656 185.019531 109.664062 C 187.570312 111.800781 190.015625 114.0625 192.71875 115.996094 C 202.472656 122.957031 212.222656 129.9375 221.976562 136.902344 C 222.453125 137.261719 222.984375 137.601562 223.5 137.960938 Z M 223.5 137.960938 " fill-opacity="1" fill-rule="nonzero"/><path fill="#a9a0f0" d="M 129.109375 151.613281 C 129.042969 146.34375 128.769531 141.109375 128.1875 135.875 C 126.628906 121.777344 124.800781 107.714844 123.105469 93.617188 C 122.882812 93.617188 122.644531 93.632812 122.421875 93.632812 C 122.761719 99.226562 123.089844 104.839844 123.449219 110.433594 C 124.0625 120.117188 124.644531 129.785156 125.328125 139.449219 C 125.808594 146.226562 126.40625 152.984375 127.007812 159.742188 C 127.777344 168.296875 128.769531 176.832031 129.332031 185.402344 C 129.570312 185.335938 129.8125 185.265625 130.050781 185.199219 C 129.964844 182.085938 129.878906 178.972656 129.792969 175.855469 C 129.691406 171.699219 129.589844 167.558594 129.46875 163.402344 C 129.351562 159.5 129.160156 155.550781 129.109375 151.613281 Z M 129.109375 151.613281 " fill-opacity="1" fill-rule="nonzero"/><path fill="#a9a0f0" d="M 171.503906 149.75 C 170.683594 147.765625 169.777344 145.832031 168.71875 143.96875 C 167.261719 141.453125 165.792969 138.953125 164.355469 136.421875 C 160.316406 129.339844 156.296875 122.238281 152.257812 115.140625 C 152.019531 115.140625 151.777344 115.140625 151.539062 115.140625 C 154.34375 120.765625 157.167969 126.394531 159.972656 132.042969 C 162.402344 136.933594 164.746094 141.878906 167.226562 146.753906 C 171.316406 154.761719 175.492188 162.734375 179.613281 170.726562 C 179.785156 170.554688 179.957031 170.382812 180.128906 170.230469 C 179.941406 169.785156 179.75 169.339844 179.5625 168.894531 C 176.878906 162.496094 174.15625 156.132812 171.503906 149.75 Z M 171.503906 149.75 " fill-opacity="1" fill-rule="nonzero"/><path fill="#a9a0f0" d="M 159.734375 245.539062 C 154.34375 245.730469 148.9375 245.917969 143.550781 246.121094 C 142.4375 246.175781 141.34375 246.277344 140.230469 246.414062 C 132.941406 247.355469 125.671875 248.328125 118.398438 249.289062 C 117.785156 249.375 117.167969 249.441406 116.550781 249.542969 C 115.9375 249.648438 115.320312 249.714844 114.703125 249.851562 C 114.910156 249.871094 115.117188 249.871094 115.320312 249.851562 C 118.296875 249.679688 121.273438 249.542969 124.25 249.40625 C 128.117188 249.21875 132 249.03125 135.867188 248.894531 C 140.503906 248.722656 145.140625 248.585938 149.726562 247.816406 C 151.300781 247.558594 152.875 247.355469 154.464844 247.167969 C 159.066406 246.617188 163.6875 246.070312 168.289062 245.539062 C 168.253906 245.4375 168.238281 245.335938 168.238281 245.214844 C 165.414062 245.335938 162.574219 245.4375 159.734375 245.539062 Z M 159.734375 245.539062 " fill-opacity="1" fill-rule="nonzero"/><path fill="#a9a0f0" d="M 134.550781 120.152344 C 134.894531 122.339844 135.234375 124.515625 135.613281 126.703125 C 136.039062 129.289062 136.433594 131.886719 136.964844 134.472656 C 137.460938 136.917969 137.765625 139.382812 138.09375 141.84375 C 138.125 142.117188 138.144531 142.394531 138.109375 142.667969 C 138.074219 142.890625 137.851562 143.007812 137.664062 142.921875 C 137.21875 142.71875 136.808594 142.496094 136.398438 142.222656 C 135.886719 141.878906 135.371094 141.503906 134.875 141.144531 C 134.363281 140.75 133.847656 140.339844 133.234375 139.84375 C 133.882812 141.726562 139.101562 149.851562 140.554688 151.324219 C 140.605469 150.503906 140.660156 149.785156 140.675781 149.066406 C 140.726562 146.925781 140.675781 144.789062 140.195312 142.667969 C 139.203125 138.148438 138.296875 133.597656 137.324219 129.082031 C 136.636719 125.898438 135.917969 122.734375 135.199219 119.570312 C 135.148438 119.3125 134.996094 119.074219 134.875 118.835938 C 134.875 118.816406 134.757812 118.851562 134.6875 118.867188 C 134.550781 118.902344 134.5 118.835938 134.5 118.816406 C 134.5 118.835938 134.5 118.867188 134.5 118.917969 C 134.484375 119.332031 134.484375 119.757812 134.550781 120.152344 Z M 134.550781 120.152344 " fill-opacity="1" fill-rule="nonzero"/><path fill="#a9a0f0" d="M 155.695312 77.15625 C 155.730469 77.414062 155.765625 77.6875 155.78125 77.945312 C 159.085938 79.945312 162.386719 81.929688 165.6875 83.949219 C 167.519531 85.0625 169.453125 85.96875 171.421875 86.789062 C 177.152344 89.152344 182.847656 91.582031 188.5625 93.976562 C 188.476562 93.769531 188.546875 93.632812 188.769531 93.582031 C 184.371094 91.222656 179.957031 88.929688 175.59375 86.5 C 170.632812 83.746094 165.484375 81.367188 160.265625 79.140625 C 158.742188 78.492188 157.21875 77.808594 155.695312 77.15625 Z M 155.695312 77.15625 " fill-opacity="1" fill-rule="nonzero"/><path fill="#a9a0f0" d="M 49.144531 193.683594 C 50.1875 194.230469 51.214844 194.796875 52.257812 195.34375 C 55.253906 196.917969 58.246094 198.492188 61.242188 200.050781 C 61.308594 199.964844 61.394531 199.878906 61.460938 199.773438 C 59.117188 197.347656 56.792969 194.882812 54.398438 192.488281 C 53.335938 191.441406 52.566406 190.261719 52.035156 188.878906 C 51.402344 187.199219 50.753906 185.523438 50.101562 183.847656 C 49.984375 183.539062 49.863281 183.195312 49.503906 183.058594 C 49.332031 184.359375 49.160156 185.660156 49.007812 186.960938 C 48.800781 188.738281 48.664062 190.535156 48.441406 192.316406 C 48.359375 193 48.578125 193.394531 49.144531 193.683594 Z M 49.144531 193.683594 " fill-opacity="1" fill-rule="nonzero"/><path fill="#a9a0f0" d="M 55.800781 245.675781 C 54.722656 245.113281 53.902344 244.324219 53.320312 243.265625 C 52.53125 241.8125 51.726562 240.355469 50.90625 238.917969 C 49.46875 236.421875 48.238281 233.804688 46.628906 231.410156 C 46.59375 231.359375 47.570312 234.230469 48.101562 235.71875 C 49.09375 238.527344 50.121094 241.316406 51.09375 244.121094 C 51.453125 245.148438 52.070312 245.867188 53.097656 246.34375 C 54.859375 247.132812 56.550781 248.089844 58.316406 248.910156 C 64.542969 251.800781 63.035156 251.238281 68.992188 251.871094 C 69.09375 251.664062 69.195312 251.476562 69.316406 251.273438 C 67.007812 250.863281 64.660156 250.554688 62.558594 249.375 C 60.300781 248.125 58.058594 246.875 55.800781 245.675781 Z M 55.800781 245.675781 " fill-opacity="1" fill-rule="nonzero"/><path fill="#a9a0f0" d="M 72.976562 244.1875 C 71.078125 242.496094 69.160156 240.820312 67.226562 239.140625 C 65.808594 237.910156 64.660156 236.492188 63.738281 234.847656 C 61.925781 231.597656 60.058594 228.398438 58.210938 225.179688 C 57.871094 225.199219 57.785156 225.472656 57.648438 225.710938 C 59.1875 229.167969 60.761719 232.589844 62.25 236.0625 C 62.898438 237.585938 63.875 238.730469 65.242188 239.605469 C 67.554688 241.09375 69.828125 242.648438 72.121094 244.171875 C 72.378906 244.34375 72.773438 244.445312 72.71875 244.890625 L 72.738281 244.90625 C 72.773438 244.890625 72.789062 244.890625 72.824219 244.875 C 73.164062 244.839844 73.523438 244.890625 73.847656 244.753906 L 73.953125 244.703125 L 73.984375 244.617188 C 73.710938 244.546875 73.4375 244.480469 73.164062 244.429688 C 73.132812 244.359375 73.078125 244.273438 72.976562 244.1875 Z M 72.976562 244.1875 " fill-opacity="1" fill-rule="nonzero"/><path fill="#a9a0f0" d="M 94.328125 73.597656 C 94.378906 74.199219 94.6875 74.4375 95.234375 74.503906 C 95.644531 74.539062 96.054688 74.589844 96.46875 74.609375 C 99.222656 74.8125 101.992188 74.984375 104.746094 75.242188 C 109.160156 75.636719 113.558594 76.132812 117.972656 76.457031 C 120.28125 76.628906 122.472656 77.089844 124.558594 78.117188 C 125.242188 78.457031 125.929688 78.765625 126.628906 79.089844 C 127.828125 79.636719 129.007812 80.203125 130.222656 80.714844 C 131.539062 81.265625 131.8125 81.246094 133.25 80.820312 C 130.050781 78.117188 105.824219 65.660156 101.652344 64.566406 C 101.71875 65.148438 102.234375 65.285156 102.59375 65.523438 C 106.699219 68.347656 110.820312 71.167969 114.925781 73.976562 C 115.269531 74.214844 115.613281 74.4375 115.9375 74.710938 C 116.003906 74.761719 115.953125 74.96875 115.9375 75.105469 C 115.9375 75.15625 115.851562 75.191406 115.78125 75.222656 C 115.457031 75.429688 115.117188 75.257812 114.773438 75.242188 C 110.015625 74.898438 105.296875 74.148438 100.554688 73.632812 C 99.359375 73.511719 98.484375 73 97.765625 72.078125 C 96.671875 70.640625 95.542969 69.253906 94.429688 67.832031 C 94.3125 67.679688 94.140625 67.507812 93.933594 67.679688 C 93.847656 67.746094 93.796875 67.902344 93.816406 68.023438 C 93.96875 69.886719 94.15625 71.734375 94.328125 73.597656 Z M 94.328125 73.597656 " fill-opacity="1" fill-rule="nonzero"/><path fill="#a9a0f0" d="M 146.390625 68.570312 C 149.007812 66.121094 151.660156 63.691406 154.226562 61.195312 C 155.253906 60.203125 156.398438 59.554688 157.800781 59.277344 C 161.1875 58.613281 164.558594 57.910156 167.929688 57.175781 C 168.578125 57.039062 169.28125 57.039062 169.898438 56.609375 C 169.179688 56.097656 168.324219 56.046875 167.554688 55.824219 C 166.371094 55.464844 165.160156 55.171875 163.960938 54.832031 C 163.429688 54.675781 163.34375 54.351562 163.738281 53.925781 C 164.335938 53.257812 164.96875 52.625 165.601562 51.972656 C 166.511719 51.03125 167.433594 50.109375 168.339844 49.167969 C 168.289062 49.097656 168.238281 49.015625 168.1875 48.945312 C 167.570312 48.929688 167.210938 49.425781 166.785156 49.734375 C 163.308594 52.214844 159.890625 54.761719 156.363281 57.191406 C 153.730469 59.003906 151.402344 61.125 149.367188 63.574219 C 147.945312 65.265625 146.578125 66.976562 145.191406 68.707031 C 145.019531 68.910156 144.9375 69.167969 144.816406 69.40625 C 144.917969 69.476562 145.019531 69.542969 145.105469 69.628906 C 145.550781 69.289062 145.996094 68.945312 146.390625 68.570312 Z M 146.390625 68.570312 " fill-opacity="1" fill-rule="nonzero"/></svg>