<svg xmlns="http://www.w3.org/2000/svg" xmlns:xlink="http://www.w3.org/1999/xlink" width="400" zoomAndPan="magnify" viewBox="0 0 300 299.999988" height="400" preserveAspectRatio="xMidYMid meet" version="1.0"><defs><clipPath id="f69aef5290"><path d="M 30 33 L 270 33 L 270 266.949219 L 30 266.949219 Z M 30 33 " clip-rule="nonzero"/></clipPath></defs><g clip-path="url(#f69aef5290)"><path fill="#caacde" d="M 179.136719 63.929688 C 175.300781 58.835938 170.78125 54.335938 165.730469 50.785156 C 165.101562 50.34375 164.296875 50.21875 163.566406 50.460938 C 162.832031 50.699219 162.253906 51.269531 162.003906 52 C 155.664062 70.640625 142.476562 78.902344 127.863281 83.800781 C 117.742188 87.195312 106.9375 89.007812 97.097656 91.375 C 80.242188 95.433594 66.25 101.273438 61.976562 117.769531 L 59.628906 117.769531 C 51.042969 117.769531 44.074219 124.742188 44.074219 133.324219 C 44.074219 133.324219 44.074219 134.082031 44.074219 134.082031 C 44.074219 138.207031 45.679688 141.960938 48.300781 144.742188 L 45.554688 144.742188 C 36.972656 144.742188 30 151.710938 30 160.296875 L 30 161.054688 C 30 167.375 33.773438 172.816406 39.1875 175.25 C 39.804688 185.46875 47.769531 193.714844 57.859375 194.777344 L 62.421875 236.59375 C 62.421875 236.613281 62.425781 236.632812 62.425781 236.652344 L 65.488281 264.730469 C 65.625 265.972656 66.675781 266.910156 67.925781 266.910156 L 186.367188 266.910156 C 187.617188 266.910156 188.667969 265.972656 188.800781 264.730469 L 190.230469 251.652344 C 190.230469 251.632812 190.234375 251.613281 190.234375 251.59375 L 193.890625 218.074219 C 193.894531 218.054688 193.894531 218.035156 193.898438 218.015625 L 196.28125 196.140625 C 199.917969 198.695312 203.933594 200.753906 208.222656 202.199219 L 208.222656 258.210938 C 208.222656 263.011719 212.121094 266.910156 216.925781 266.910156 L 229.429688 266.910156 C 234.230469 266.910156 238.128906 263.011719 238.128906 258.210938 L 238.128906 202.199219 C 256.648438 195.953125 270 178.433594 270 157.820312 C 270 157.820312 270 79.859375 270 79.859375 C 270 54.011719 249.015625 33.035156 223.175781 33.035156 C 202.921875 33.035156 185.65625 45.921875 179.136719 63.929688 Z M 67.054688 233.902344 L 89.394531 233.902344 C 90.746094 233.902344 91.84375 235 91.84375 236.351562 C 91.84375 237.703125 90.746094 238.800781 89.394531 238.800781 L 67.589844 238.800781 L 70.121094 262.011719 C 86.125 262.011719 184.171875 262.011719 184.171875 262.011719 L 185.066406 253.804688 L 169.804688 253.804688 C 168.453125 253.804688 167.355469 252.707031 167.355469 251.355469 C 167.355469 250.003906 168.453125 248.90625 169.804688 248.90625 L 185.601562 248.90625 L 188.730469 220.222656 L 162.914062 220.222656 C 161.5625 220.222656 160.464844 219.125 160.464844 217.773438 C 160.464844 216.421875 161.5625 215.324219 162.914062 215.324219 L 189.261719 215.324219 L 191.492188 194.894531 L 122.347656 194.894531 C 122.058594 195.367188 121.832031 195.871094 121.71875 196.429688 C 121.28125 198.613281 122.363281 200.804688 122.953125 202.984375 C 123.535156 205.132812 123.800781 207.269531 123.160156 209.339844 C 121.941406 213.304688 117.257812 218.160156 111.085938 217.832031 C 107.199219 217.621094 104.429688 215.410156 102.582031 212.707031 C 100.921875 210.28125 100.039062 207.484375 99.695312 205.804688 C 99.203125 203.402344 99.9375 199.613281 99.914062 196.175781 C 99.902344 194.058594 99.660156 192 97.335938 191.394531 C 97.164062 191.351562 96.917969 191.335938 96.828125 191.332031 C 96.800781 191.371094 96.753906 191.433594 96.730469 191.472656 C 96.644531 191.632812 96.578125 191.8125 96.519531 191.992188 C 96.335938 192.554688 96.234375 193.183594 96.152344 193.789062 C 95.832031 196.078125 95.09375 199.253906 93.578125 201.605469 C 92.3125 203.570312 90.539062 204.984375 88.195312 205.359375 C 85.992188 205.703125 83.019531 205.367188 80.574219 204.261719 C 78.734375 203.429688 77.203125 202.160156 76.320312 200.546875 C 75.234375 198.554688 75.316406 196.695312 75.945312 194.894531 L 62.800781 194.894531 Z M 213.121094 203.554688 L 213.121094 258.210938 C 213.121094 260.308594 214.824219 262.011719 216.925781 262.011719 C 216.925781 262.011719 229.429688 262.011719 229.429688 262.011719 C 231.527344 262.011719 233.230469 260.308594 233.230469 258.210938 L 233.230469 203.554688 C 229.988281 204.265625 226.625 204.644531 223.175781 204.644531 C 219.726562 204.644531 216.363281 204.265625 213.121094 203.554688 Z M 107.476562 233.902344 L 100.535156 233.902344 C 99.183594 233.902344 98.085938 235 98.085938 236.351562 C 98.085938 237.703125 99.183594 238.800781 100.535156 238.800781 L 107.476562 238.800781 C 108.828125 238.800781 109.925781 237.703125 109.925781 236.351562 C 109.925781 235 108.828125 233.902344 107.476562 233.902344 Z M 176.351562 149.640625 L 45.554688 149.640625 C 39.675781 149.640625 34.898438 154.414062 34.898438 160.296875 C 34.898438 160.296875 34.898438 161.054688 34.898438 161.054688 C 34.898438 166.9375 39.675781 171.714844 45.554688 171.714844 L 66.867188 171.714844 C 66.992188 171.714844 67.117188 171.71875 67.238281 171.734375 C 67.648438 171.792969 68.027344 171.945312 68.34375 172.179688 C 68.667969 172.410156 68.933594 172.71875 69.113281 173.089844 C 69.171875 173.203125 69.21875 173.320312 69.257812 173.449219 C 69.78125 175.058594 69.863281 177.144531 70.164062 179.113281 C 70.34375 180.277344 70.5 181.441406 71.417969 182.089844 C 72.242188 182.675781 73.144531 182.648438 74.007812 182.628906 C 75.011719 182.605469 76 182.527344 76.933594 182.613281 C 79.09375 182.804688 81.074219 183.59375 82.570312 186.539062 C 83.792969 188.945312 83.25 191.199219 82.121094 193.417969 C 82.101562 193.457031 82.078125 193.496094 82.058594 193.535156 C 82.046875 193.558594 82.035156 193.589844 82.019531 193.613281 C 81.601562 194.410156 81.121094 195.203125 80.761719 196.019531 C 80.457031 196.714844 80.199219 197.429688 80.621094 198.203125 C 81.015625 198.925781 81.769531 199.421875 82.59375 199.800781 C 84.148438 200.503906 86.035156 200.738281 87.4375 200.519531 C 88.664062 200.324219 89.367188 199.265625 89.917969 198.128906 C 90.714844 196.492188 91.097656 194.558594 91.300781 193.113281 C 91.484375 191.804688 91.773438 190.445312 92.308594 189.367188 C 92.832031 188.308594 93.585938 187.480469 94.5625 186.972656 C 95.570312 186.449219 96.867188 186.210938 98.570312 186.65625 C 102.601562 187.710938 104.207031 190.488281 104.671875 193.925781 C 104.941406 195.933594 104.769531 198.203125 104.582031 200.347656 C 104.4375 202.042969 104.25 203.632812 104.492188 204.816406 C 104.75 206.058594 105.390625 208.140625 106.625 209.9375 C 107.667969 211.464844 109.15625 212.824219 111.347656 212.941406 C 115 213.136719 117.757812 210.246094 118.480469 207.902344 C 118.964844 206.320312 118.371094 204.703125 117.875 203.050781 C 117.121094 200.527344 116.414062 197.976562 116.917969 195.464844 C 117.25 193.808594 118.070312 192.382812 119.085938 191.050781 C 119.136719 190.984375 119.1875 190.914062 119.246094 190.847656 C 119.460938 190.570312 119.683594 190.300781 119.914062 190.03125 C 120.898438 188.882812 122.003906 187.792969 122.664062 186.5 C 124.589844 182.730469 124.160156 178.648438 123.390625 174.671875 C 123.371094 174.585938 123.355469 174.492188 123.347656 174.398438 C 123.324219 174.160156 123.335938 173.917969 123.382812 173.6875 C 123.460938 173.28125 123.640625 172.914062 123.894531 172.609375 L 123.894531 172.605469 C 124.148438 172.300781 124.476562 172.050781 124.855469 171.894531 C 125.074219 171.808594 125.304688 171.75 125.546875 171.722656 L 125.550781 171.722656 C 125.644531 171.71875 125.738281 171.714844 125.828125 171.714844 L 178.453125 171.714844 C 177.089844 167.320312 176.351562 162.652344 176.351562 157.820312 Z M 265.101562 79.859375 L 265.101562 157.820312 C 265.101562 180.957031 246.3125 199.746094 223.175781 199.746094 C 200.035156 199.746094 181.25 180.957031 181.25 157.820312 C 181.25 157.820312 181.25 79.859375 181.25 79.859375 C 181.25 56.714844 200.035156 37.929688 223.175781 37.929688 C 246.3125 37.929688 265.101562 56.714844 265.101562 79.859375 Z M 180.285156 176.613281 L 128.664062 176.613281 C 129.1875 180.722656 129.007812 184.847656 127.027344 188.730469 C 126.804688 189.164062 126.546875 189.585938 126.261719 190 L 189.175781 190 C 185.492188 186.105469 182.46875 181.582031 180.285156 176.613281 Z M 44.257812 176.558594 C 45.492188 184.164062 52.09375 189.984375 60.046875 190 C 60.066406 190 60.082031 190 60.101562 190 L 78.28125 190 C 78.398438 189.597656 78.421875 189.191406 78.207031 188.757812 C 77.332031 187.042969 75.953125 187.460938 74.609375 187.511719 C 72.59375 187.582031 70.53125 187.460938 68.589844 186.089844 C 66.921875 184.910156 66.023438 183.152344 65.558594 181.117188 C 65.230469 179.667969 65.171875 178.050781 64.960938 176.613281 L 45.554688 176.613281 C 45.117188 176.613281 44.683594 176.597656 44.257812 176.558594 Z M 176.351562 122.667969 L 59.628906 122.667969 C 53.746094 122.667969 48.972656 127.445312 48.972656 133.324219 L 48.972656 134.082031 C 48.972656 139.964844 53.746094 144.742188 59.628906 144.742188 L 176.351562 144.742188 Z M 177.402344 69.964844 C 174.066406 64.933594 170.042969 60.398438 165.480469 56.71875 C 155.277344 82.164062 132.605469 88.539062 110.964844 93.304688 C 100.304688 95.644531 89.941406 97.597656 81.722656 101.601562 C 74.832031 104.957031 69.523438 109.800781 67.070312 117.769531 L 176.351562 117.769531 L 176.351562 79.859375 C 176.351562 76.464844 176.714844 73.152344 177.402344 69.964844 Z M 259.332031 98.542969 L 259.332031 82.070312 C 259.332031 71.660156 254.925781 62.269531 247.875 55.671875 C 246.886719 54.746094 245.332031 54.800781 244.414062 55.785156 C 243.488281 56.773438 243.542969 58.320312 244.527344 59.246094 C 250.625 64.953125 254.433594 73.070312 254.433594 82.070312 C 254.433594 82.070312 254.433594 98.542969 254.433594 98.542969 C 254.433594 99.894531 255.53125 100.992188 256.882812 100.992188 C 258.234375 100.992188 259.332031 99.894531 259.332031 98.542969 Z M 239.601562 49.859375 C 236.757812 48.402344 233.699219 47.316406 230.484375 46.65625 C 229.160156 46.378906 227.863281 47.234375 227.589844 48.558594 C 227.320312 49.882812 228.171875 51.179688 229.496094 51.449219 C 232.273438 52.023438 234.917969 52.964844 237.371094 54.21875 C 238.574219 54.835938 240.054688 54.355469 240.667969 53.148438 C 241.285156 51.949219 240.804688 50.46875 239.601562 49.859375 Z M 239.601562 49.859375 " fill-opacity="1" fill-rule="evenodd"/></g></svg>