<svg xmlns="http://www.w3.org/2000/svg" xmlns:xlink="http://www.w3.org/1999/xlink" width="400" zoomAndPan="magnify" viewBox="0 0 300 299.999988" height="400" preserveAspectRatio="xMidYMid meet" version="1.0"><defs><clipPath id="dd985af063"><path d="M 37 94 L 265 94 L 265 238.050781 L 37 238.050781 Z M 37 94 " clip-rule="nonzero"/></clipPath></defs><g clip-path="url(#dd985af063)"><path fill="#caacde" d="M 253.152344 163.25 C 256.527344 149.429688 246.941406 137.648438 233.171875 135.945312 C 232.375 125.015625 223.523438 116.3125 211.691406 115.546875 C 207.214844 103.535156 192.417969 97.621094 178.644531 104.394531 C 170.746094 92.628906 154.261719 91.988281 143.359375 101.917969 C 133.761719 90.109375 115.25 92.660156 106.84375 105.949219 C 95.367188 99.039062 80.710938 105.339844 75.734375 118.066406 C 65.894531 117.484375 56.605469 124.5 54.167969 135.042969 C 54.015625 135.691406 54.03125 136.386719 53.9375 137.058594 C 35.78125 140.660156 31.582031 166.824219 48.070312 176.023438 C 49.296875 184.792969 55.921875 192.257812 62.453125 196.675781 C 104.988281 218.390625 152.019531 232.246094 202.300781 237.875 C 212.117188 238.777344 222.894531 237.566406 230.269531 230.972656 C 251.332031 233.972656 268.214844 214.269531 258.679688 196.996094 C 268.1875 185.710938 265.390625 170.25 253.152344 163.25 Z M 254.300781 191.285156 C 248.734375 186.132812 240.460938 183.960938 233.253906 184.742188 C 232.058594 180.875 229.9375 175.390625 227.351562 170.289062 C 227.902344 169.933594 228.375 169.492188 228.976562 169.191406 C 238.328125 164.402344 250.570312 166.492188 255.515625 175.113281 C 258.371094 180.136719 257.820312 186.289062 254.300781 191.285156 Z M 246.65625 160.558594 C 238.054688 159.734375 231.503906 159.222656 223.871094 164.003906 C 221.789062 160.570312 217.703125 154.675781 213.304688 149.757812 C 213.308594 149.75 213.316406 149.742188 213.316406 149.734375 C 218.152344 144.414062 226.433594 141.601562 233.878906 143.15625 C 243.21875 145.128906 248.007812 152.773438 246.65625 160.558594 Z M 226.164062 135.921875 C 215.011719 137.238281 209.191406 144.183594 208.457031 144.683594 C 204.160156 140.472656 198.117188 135.59375 192.132812 131.871094 C 196.65625 125.214844 205.652344 121.25 213.597656 122.855469 C 220.652344 124.28125 225.484375 129.464844 226.164062 135.921875 Z M 204.214844 116.046875 C 196.238281 117.679688 190.6875 122.046875 186.03125 128.316406 C 181.621094 125.9375 176.5 123.644531 171.25 121.835938 C 176.972656 106.839844 197.472656 104.113281 204.214844 116.046875 Z M 172.792969 108.050781 C 169.382812 110.847656 166.195312 115.054688 164.488281 119.683594 C 157.054688 117.597656 148.976562 116.421875 142.390625 116.089844 C 142.40625 116.03125 142.402344 115.992188 142.417969 115.9375 C 146.34375 101.917969 165.257812 97.066406 172.792969 108.050781 Z M 138.683594 107.371094 C 137.085938 109.847656 135.78125 113.015625 135.191406 115.9375 C 126.957031 115.992188 117.648438 117.320312 110 119.382812 C 110.074219 118.667969 109.707031 116.402344 111.300781 112.574219 C 116.238281 100.324219 132.117188 97.417969 138.683594 107.371094 Z M 99.285156 110.410156 C 100.957031 110.742188 102.523438 111.398438 103.894531 112.355469 C 103.054688 114.941406 102.851562 119.640625 103.050781 121.515625 C 95.433594 124.121094 87.566406 128.121094 81.945312 131.726562 C 77.941406 120.867188 87.726562 107.996094 99.285156 110.410156 Z M 74.070312 124.988281 C 73.78125 128.734375 74.488281 132.261719 75.851562 135.359375 C 75.914062 135.503906 75.925781 135.667969 75.992188 135.8125 C 71.03125 139.433594 65.460938 144.628906 62.554688 147.757812 C 57.085938 138.125 63.699219 125.4375 74.070312 124.988281 Z M 53.90625 144.320312 C 54.464844 146.625 55.125 149.550781 57.511719 152.925781 C 57.601562 153.050781 57.648438 153.199219 57.738281 153.316406 C 56.597656 154.710938 52.933594 159.515625 50.667969 163.296875 C 49.78125 164.710938 49.105469 166.191406 48.628906 167.75 C 41.625 160.425781 44.570312 147.496094 53.90625 144.320312 Z M 203.023438 230.882812 C 153.644531 225.363281 107.421875 211.75 66.027344 190.644531 C 58.089844 185.234375 51.515625 175.191406 56.660156 166.96875 C 77.390625 132.480469 122.472656 113.746094 166.054688 127.460938 C 203.507812 139.242188 230.742188 172.964844 230.742188 214 C 230.742188 228.050781 217.238281 232.214844 203.023438 230.882812 Z M 251.761719 215.46875 C 248.226562 220.765625 241.882812 223.929688 235.523438 224.3125 C 235.632812 224.085938 235.671875 223.820312 235.773438 223.589844 C 236.738281 221.386719 237.769531 217.65625 237.769531 214 C 237.769531 207.65625 236.898438 198.933594 235.160156 191.683594 C 249.839844 190.914062 259.273438 204.214844 251.761719 215.46875 Z M 251.761719 215.46875 " fill-opacity="1" fill-rule="nonzero"/></g><path fill="#caacde" d="M 151.121094 140.207031 C 119.285156 132.902344 85.765625 145.621094 67.632812 171.902344 C 66.789062 173.167969 66.859375 174.855469 67.773438 176.050781 C 68.476562 176.890625 69.53125 178.089844 71.636719 179.5625 C 91.386719 189.191406 112.1875 197.132812 133.410156 203.105469 C 154.421875 209.054688 192.148438 216.316406 209.238281 216.316406 C 211.136719 216.175781 212.609375 214.558594 212.539062 212.664062 C 211.277344 178.015625 186.046875 148.222656 151.121094 140.207031 Z M 141.984375 159.675781 C 125.933594 156 114.828125 160.449219 113.3125 160.449219 C 109.222656 160.449219 108.460938 154.601562 112.328125 153.5625 C 122.445312 150.679688 133.199219 150.46875 143.53125 152.789062 C 148.0625 153.796875 146.445312 160.667969 141.984375 159.675781 Z M 141.984375 159.675781 " fill-opacity="1" fill-rule="nonzero"/><path fill="#caacde" d="M 241.667969 87.414062 L 227.84375 96.878906 C 226.238281 97.96875 225.835938 100.160156 226.933594 101.757812 C 228.042969 103.382812 230.246094 103.757812 231.8125 102.671875 L 245.632812 93.207031 C 247.238281 92.117188 247.644531 89.925781 246.546875 88.328125 C 245.457031 86.722656 243.257812 86.316406 241.667969 87.414062 Z M 241.667969 87.414062 " fill-opacity="1" fill-rule="nonzero"/><path fill="#caacde" d="M 219.574219 64.570312 L 213.417969 77.648438 C 212.589844 79.40625 213.34375 81.5 215.101562 82.324219 C 216.859375 83.152344 218.949219 82.394531 219.773438 80.640625 L 225.929688 67.5625 C 226.761719 65.804688 226.007812 63.710938 224.25 62.886719 C 222.507812 62.070312 220.398438 62.8125 219.574219 64.570312 Z M 219.574219 64.570312 " fill-opacity="1" fill-rule="nonzero"/></svg>