<svg xmlns="http://www.w3.org/2000/svg" xmlns:xlink="http://www.w3.org/1999/xlink" width="400" zoomAndPan="magnify" viewBox="0 0 300 299.999988" height="400" preserveAspectRatio="xMidYMid meet" version="1.0"><defs><clipPath id="f497b5b17a"><path d="M 103.351562 30 L 196 30 L 196 270 L 103.351562 270 Z M 103.351562 30 " clip-rule="nonzero"/></clipPath></defs><g clip-path="url(#f497b5b17a)"><path fill="#a9a0f0" d="M 109.21875 148.652344 C 109.234375 147.320312 109.28125 145.96875 109.34375 144.628906 C 123.152344 147.414062 137.773438 145.15625 151.777344 145.15625 C 160.125 145.15625 168.464844 145.15625 176.8125 145.15625 C 180.90625 145.15625 185.675781 144.917969 189.75 143.742188 C 191.386719 159.0625 189.449219 174.667969 189.449219 190.046875 C 189.449219 199.46875 189.449219 208.898438 189.449219 218.320312 C 189.449219 223.746094 190.722656 230 190.652344 235.804688 C 190.421875 235.804688 190.148438 235.820312 189.875 235.921875 C 183.019531 238.238281 174.035156 235.96875 166.824219 236.519531 C 160.320312 237.015625 153.808594 238.222656 147.289062 238.753906 C 140.191406 239.320312 132.621094 239.546875 125.542969 238.921875 C 120.765625 238.496094 116.027344 237.140625 111.289062 236.363281 C 112.449219 228.25 110.347656 218.929688 109.996094 211.117188 C 109.070312 190.382812 109.054688 169.402344 109.21875 148.652344 Z M 110.882812 132.007812 C 111.617188 128.195312 114.882812 125.347656 117 122.230469 C 119.808594 118.074219 115.832031 114.339844 112.433594 112.605469 C 109.203125 110.949219 117.25 86.644531 118.144531 84.589844 C 121.574219 76.597656 127.144531 69.582031 133.585938 63.839844 C 133.75 63.714844 133.875 63.566406 133.984375 63.414062 C 139.765625 63.078125 145.382812 62.160156 151.214844 62.160156 C 157.519531 62.160156 162.910156 62.820312 168.894531 64.035156 C 176.65625 70.9375 180.585938 80.417969 185.261719 89.34375 C 188.367188 95.265625 193.921875 114.738281 183.878906 115.988281 C 181.714844 116.261719 181.101562 118.789062 182.050781 120.066406 C 181.894531 121.335938 181.988281 122.472656 182.398438 123.488281 C 174.402344 124.984375 166.0625 123.40625 157.960938 123.40625 C 145.652344 123.40625 133.351562 122.835938 121.039062 122.609375 C 117.949219 122.5625 117.964844 127.332031 121.039062 127.378906 C 133.351562 127.605469 145.652344 128.179688 157.960938 128.179688 C 167.003906 128.179688 176.082031 129.933594 185.042969 127.832031 C 185.488281 127.730469 185.820312 127.542969 186.078125 127.300781 C 186.570312 127.621094 187.058594 127.910156 187.621094 128.082031 C 190.179688 128.867188 189.71875 129.917969 189.71875 132.234375 C 189.71875 134.242188 190.023438 136.621094 189.992188 138.824219 C 186.203125 140.195312 180.796875 140.378906 176.8125 140.378906 C 168.464844 140.378906 160.125 140.378906 151.777344 140.378906 C 145.234375 140.378906 138.714844 140.257812 132.171875 140.257812 C 124.460938 140.257812 117.410156 141.492188 109.726562 139.859375 C 109.996094 137.230469 110.378906 134.625 110.882812 132.007812 Z M 170.738281 58.511719 C 170.261719 58.722656 169.941406 59.007812 169.75 59.335938 C 164.1875 58.191406 159.648438 57.382812 153.652344 57.382812 C 147.527344 57.382812 141.65625 58.144531 135.65625 58.542969 C 135.398438 58.019531 134.910156 57.609375 134.132812 57.476562 C 133.113281 57.289062 131.300781 56.984375 129.945312 56.347656 C 135.320312 52.957031 145.597656 54.136719 150.898438 54.917969 C 153.605469 55.3125 156.164062 55.804688 158.949219 55.996094 C 161.84375 56.191406 164.722656 56.300781 167.601562 56.777344 C 168.449219 56.902344 173.476562 57.351562 170.738281 58.511719 Z M 128.226562 51.65625 C 127.960938 47.058594 128.023438 38.273438 132.171875 36.554688 C 134.511719 35.582031 139.460938 36.035156 142.113281 35.792969 C 145.949219 35.457031 149.613281 35.078125 153.480469 35.109375 C 155.402344 35.140625 172.757812 36.222656 173.015625 39.644531 C 173.171875 42.03125 175.351562 50.09375 174.253906 53.195312 C 169.925781 51.003906 163.292969 51.429688 158.949219 51.230469 C 150.53125 50.824219 136.660156 46.816406 128.226562 51.65625 Z M 188.839844 256.871094 C 184.484375 263.585938 177.613281 261.515625 170.820312 263.328125 C 162.910156 265.460938 153.824219 264.316406 145.699219 264.316406 C 139.109375 264.316406 132.171875 264.941406 125.621094 263.898438 C 125.253906 263.3125 124.617188 262.886719 123.691406 262.886719 C 122.695312 262.886719 121.769531 262.886719 120.914062 262.839844 C 120.8125 262.808594 120.703125 262.785156 120.609375 262.761719 C 120.152344 262.597656 119.714844 262.597656 119.347656 262.691406 C 116.058594 262.261719 113.699219 260.878906 111.640625 256.597656 C 108.945312 251.027344 108.371094 246.820312 110.199219 240.960938 C 115.707031 241.722656 121.324219 242.898438 126.761719 243.972656 C 133.71875 245.335938 142.867188 243.886719 149.863281 243.320312 C 156.179688 242.820312 162.449219 241.628906 168.769531 241.132812 C 175.226562 240.644531 182.367188 242.394531 188.761719 241.132812 C 189.292969 243.519531 191.199219 253.261719 188.839844 256.871094 Z M 107.515625 259.019531 C 110.867188 265.289062 114.152344 267.148438 120.097656 267.5625 C 128.34375 270.011719 137.15625 268.992188 145.699219 268.992188 C 155.828125 268.992188 165.46875 268.738281 175.496094 267.304688 C 182.476562 266.324219 187.984375 266.683594 192.039062 260.511719 C 195.90625 254.640625 194.558594 249.628906 193.789062 244.664062 C 194.0625 244.394531 194.269531 244.066406 194.394531 243.628906 C 195.890625 238.589844 195.367188 231.90625 194.503906 226.753906 C 192.824219 216.875 194.226562 205.726562 194.226562 195.710938 C 194.226562 178.355469 196.402344 160.570312 194.488281 143.289062 C 194.457031 143.058594 194.394531 142.832031 194.316406 142.644531 C 194.347656 142.542969 194.378906 142.449219 194.394531 142.339844 C 194.902344 139.695312 194.363281 137.230469 194.488281 134.546875 C 194.589844 132.460938 195.234375 128.835938 194.15625 126.984375 C 193.285156 125.472656 191.453125 124.269531 189.8125 123.753906 C 188.609375 123.390625 187.683594 122.703125 186.726562 121.894531 C 186.617188 121.800781 186.726562 120.8125 186.871094 120.082031 C 194.777344 117.453125 195.414062 109.011719 193.34375 100.492188 C 189.9375 86.605469 184.46875 72.367188 173.980469 62.214844 C 175.894531 61.117188 177.980469 59.039062 177.644531 56.886719 C 181.144531 52.683594 178.058594 43.511719 177.707031 38.6875 C 177.542969 36.269531 175.289062 34.96875 173.414062 33.855469 C 170.464844 32.066406 163.835938 30.496094 160.535156 30.339844 C 154.414062 30.050781 148.214844 30.191406 142.113281 30.953125 C 137.664062 31.515625 132.683594 30.71875 128.578125 32.914062 C 121.558594 36.6875 123.691406 48.109375 123.691406 54.472656 C 123.691406 55.011719 123.839844 55.460938 124.054688 55.804688 C 123.917969 56.363281 123.945312 56.953125 124.28125 57.523438 C 125.394531 59.484375 127.308594 60.566406 129.386719 61.25 C 123.644531 66.53125 118.984375 72.65625 115.28125 79.59375 C 110.410156 88.722656 110.519531 98.382812 107.335938 107.929688 C 104.988281 114.957031 113.878906 118.027344 109.21875 124.664062 C 103.5 132.78125 104.378906 145.140625 104.441406 154.570312 C 104.636719 180.300781 104.808594 205.972656 106.558594 231.65625 C 106.941406 237.125 103.84375 241.753906 103.851562 247.039062 C 103.867188 251.636719 105.382812 255.027344 107.515625 259.019531 " fill-opacity="1" fill-rule="nonzero"/></g><path fill="#a9a0f0" d="M 149.085938 192.957031 C 150.265625 192.949219 149.195312 193.503906 149.085938 192.957031 Z M 144.042969 211.046875 C 146.710938 204.738281 151.675781 199.5625 154.273438 193.089844 C 157.308594 185.511719 147.558594 188.171875 141 190.0625 C 145.25 184.867188 151.277344 180.867188 153.269531 174.199219 C 153.589844 173.089844 153.011719 172.171875 152.171875 171.515625 C 148.929688 169.035156 144.074219 173.421875 140.890625 174.394531 C 142.480469 169.9375 145.109375 165.410156 146.828125 161.042969 C 154.925781 160.078125 162.957031 158.011719 170.828125 155.847656 C 170.867188 155.910156 170.882812 155.957031 170.914062 156.019531 C 169.851562 157.832031 168.433594 159.457031 167.234375 161.191406 C 165.867188 163.160156 164.660156 165.679688 163.515625 167.8125 C 162.242188 170.210938 165.3125 172.371094 167.050781 170.957031 C 167.8125 170.722656 169.4375 170.148438 170.675781 169.828125 C 169.5 171.992188 167.523438 174.253906 166.285156 175.8125 C 164.441406 178.121094 162.3125 180.152344 160.445312 182.449219 C 159.773438 183.273438 159.757812 184.230469 160.09375 185.023438 C 160.335938 185.980469 161.097656 186.789062 162.402344 186.789062 C 164.738281 186.789062 167.828125 186.742188 170.597656 187.03125 C 169.164062 189.300781 167.15625 191.597656 165.679688 193.316406 C 161.6875 198.007812 159.441406 202.03125 154.226562 205.671875 C 150.058594 208.566406 146.066406 211.910156 142.230469 215.441406 C 142.828125 213.964844 143.4375 212.503906 144.042969 211.046875 Z M 134.878906 229.585938 C 135.335938 229.421875 135.765625 229.105469 136.09375 228.550781 C 136.183594 228.414062 136.261719 228.265625 136.339844 228.109375 C 143.847656 220.257812 152.328125 213.871094 160.746094 207.007812 C 165.011719 203.523438 167.570312 199.183594 170.753906 194.738281 C 172.773438 191.914062 175.351562 189.097656 176.640625 185.832031 C 177.101562 184.640625 175.878906 183.179688 174.695312 182.890625 C 172.214844 182.285156 169.804688 182.097656 167.125 182.035156 C 168.238281 180.789062 169.367188 179.554688 170.417969 178.246094 C 172.230469 175.953125 174.617188 173.171875 175.683594 170.433594 C 177.628906 165.519531 174.003906 164.941406 170.261719 165.425781 C 170.769531 164.53125 171.296875 163.675781 171.847656 162.878906 C 173.523438 160.476562 175.242188 158.359375 176.371094 155.605469 C 176.5 155.273438 176.546875 154.96875 176.546875 154.703125 C 176.8125 154.386719 177.070312 154.050781 177.34375 153.730469 C 178.835938 151.980469 177.464844 149.085938 175.015625 149.753906 C 165.074219 152.457031 154.703125 155.636719 144.378906 156.5625 C 142.535156 156.71875 141.800781 158.53125 142.183594 159.886719 C 140.097656 165.167969 136.792969 170.433594 135.4375 175.8125 C 135.183594 176.832031 135.578125 177.988281 136.535156 178.503906 C 138.730469 179.695312 139.964844 179.007812 142.355469 178.214844 C 142.8125 178.050781 145.1875 177.054688 147.148438 176.316406 C 143.628906 182.207031 136.628906 186.089844 133.828125 192.46875 C 133.082031 194.15625 133.960938 195.953125 135.882812 196.0625 C 138.96875 196.257812 141.71875 194.476562 144.648438 193.761719 C 146.90625 193.199219 148.183594 193.011719 148.898438 192.957031 C 147.589844 195.269531 146.585938 197.890625 145.21875 200.171875 C 140.433594 208.238281 137.15625 217.015625 132.519531 225.144531 C 132.289062 225.417969 132.03125 225.671875 131.789062 225.921875 C 129.804688 228.078125 132.777344 231.238281 134.878906 229.585938 " fill-opacity="1" fill-rule="nonzero"/><path fill="#a9a0f0" d="M 122.632812 115.988281 C 122.632812 115.988281 140.496094 114.769531 149.164062 116.167969 C 158.023438 117.601562 167.171875 117.585938 175.132812 117.585938 C 178.3125 117.585938 178.3125 112.808594 175.132812 112.808594 C 165.585938 112.808594 157.410156 112.683594 148.199219 111.207031 C 139.917969 109.867188 130.582031 111.222656 122.632812 111.222656 C 119.441406 111.222656 119.441406 115.988281 122.632812 115.988281 " fill-opacity="1" fill-rule="nonzero"/></svg>