<svg xmlns="http://www.w3.org/2000/svg" xmlns:xlink="http://www.w3.org/1999/xlink" width="400" zoomAndPan="magnify" viewBox="0 0 300 299.999988" height="400" preserveAspectRatio="xMidYMid meet" version="1.0"><path fill="#a9a0f0" d="M 134.488281 47.894531 C 133.910156 47.894531 133.363281 47.667969 132.953125 47.257812 C 132.535156 46.839844 132.308594 46.289062 132.308594 45.699219 C 132.316406 43.289062 132.339844 41.125 132.363281 38.953125 C 132.382812 37.296875 132.402344 35.636719 132.410156 33.871094 C 132.417969 32.828125 132.832031 31.851562 133.570312 31.121094 C 134.304688 30.402344 135.265625 30.007812 136.292969 30.007812 C 136.304688 30.007812 136.316406 30.007812 136.328125 30.007812 C 143.992188 30.082031 152.488281 30.074219 159.980469 30.066406 L 163.136719 30.066406 C 163.140625 30.066406 163.140625 30.066406 163.140625 30.066406 C 164.175781 30.066406 165.148438 30.46875 165.878906 31.199219 C 166.609375 31.933594 167.011719 32.910156 167.007812 33.945312 L 166.980469 45.226562 C 166.976562 46.417969 166.003906 47.390625 164.8125 47.394531 C 159.941406 47.414062 154.652344 47.53125 149.535156 47.644531 C 144.480469 47.757812 139.246094 47.878906 134.496094 47.894531 C 134.496094 47.894531 134.492188 47.894531 134.488281 47.894531 Z M 136.292969 31.746094 C 135.726562 31.746094 135.195312 31.964844 134.789062 32.359375 C 134.378906 32.765625 134.152344 33.304688 134.148438 33.882812 C 134.136719 35.652344 134.117188 37.3125 134.101562 38.972656 C 134.078125 41.136719 134.050781 43.300781 134.046875 45.703125 C 134.042969 45.824219 134.09375 45.941406 134.179688 46.027344 C 134.226562 46.078125 134.332031 46.15625 134.488281 46.15625 C 134.488281 46.15625 134.488281 46.15625 134.492188 46.15625 C 139.226562 46.140625 144.449219 46.023438 149.496094 45.910156 C 154.621094 45.796875 159.917969 45.675781 164.804688 45.65625 C 165.050781 45.65625 165.242188 45.464844 165.242188 45.222656 L 165.273438 33.941406 C 165.273438 33.367188 165.054688 32.832031 164.648438 32.425781 C 164.246094 32.023438 163.710938 31.800781 163.140625 31.800781 L 159.984375 31.804688 C 152.484375 31.8125 143.984375 31.820312 136.3125 31.746094 C 136.304688 31.746094 136.296875 31.746094 136.292969 31.746094 Z M 166.109375 45.222656 L 166.117188 45.222656 Z M 166.109375 45.222656 " fill-opacity="1" fill-rule="nonzero"/><path fill="#a9a0f0" d="M 165.882812 269.714844 C 161.730469 269.714844 157.730469 268.90625 155.257812 265.792969 C 154.75 265.15625 154.382812 264.125 153.960938 262.933594 C 153.144531 260.640625 152.132812 257.789062 149.996094 257.789062 C 148.015625 257.789062 147.246094 259.605469 146.296875 262.378906 C 145.851562 263.6875 145.425781 264.925781 144.738281 265.792969 C 141.429688 269.953125 135.386719 270 129.910156 269.496094 C 124.570312 269.003906 118.601562 268.113281 115.316406 263.777344 C 112.636719 260.246094 112.597656 255.648438 112.800781 250.855469 L 116.28125 168.910156 C 116.679688 157.402344 114.863281 148.199219 113.105469 139.296875 C 112.402344 135.726562 111.671875 132.035156 111.101562 128.261719 C 109.347656 116.652344 111.996094 105.125 114.503906 96.382812 C 118.980469 80.746094 124.710938 69.636719 132.53125 61.417969 C 134.074219 59.792969 135.023438 57.75 135.207031 55.65625 C 135.453125 52.792969 135.308594 49.972656 135.164062 47.246094 C 135.140625 46.765625 135.507812 46.359375 135.988281 46.332031 C 136.460938 46.3125 136.875 46.675781 136.898438 47.15625 C 137.042969 49.941406 137.195312 52.824219 136.9375 55.804688 C 136.722656 58.289062 135.605469 60.707031 133.789062 62.613281 C 126.171875 70.621094 120.570312 81.503906 116.171875 96.863281 C 113.714844 105.4375 111.113281 116.722656 112.820312 128 C 113.382812 131.738281 114.109375 135.410156 114.808594 138.960938 C 116.585938 147.960938 118.421875 157.261719 118.015625 168.980469 L 114.535156 250.929688 C 114.347656 255.394531 114.371094 259.65625 116.699219 262.730469 C 119.558594 266.503906 124.871094 267.289062 130.070312 267.765625 C 135.335938 268.25 140.589844 268.21875 143.378906 264.710938 C 143.882812 264.078125 144.257812 262.980469 144.65625 261.816406 C 145.535156 259.25 146.628906 256.054688 149.996094 256.054688 C 153.359375 256.054688 154.652344 259.695312 155.597656 262.351562 C 155.953125 263.355469 156.289062 264.300781 156.617188 264.710938 C 159.402344 268.21875 164.660156 268.25 169.925781 267.765625 C 175.121094 267.289062 180.433594 266.503906 183.292969 262.730469 C 185.625 259.65625 185.644531 255.394531 185.457031 250.929688 L 181.976562 168.984375 C 181.570312 157.265625 183.40625 147.960938 185.183594 138.964844 C 185.882812 135.410156 186.609375 131.738281 187.171875 128 C 188.878906 116.722656 186.277344 105.4375 183.820312 96.863281 C 179.421875 81.503906 173.824219 70.621094 166.203125 62.613281 C 164.386719 60.707031 163.269531 58.289062 163.054688 55.804688 C 162.800781 52.828125 162.949219 49.949219 163.09375 47.164062 C 163.117188 46.683594 163.53125 46.3125 164.003906 46.335938 C 164.484375 46.363281 164.851562 46.765625 164.828125 47.246094 C 164.6875 49.980469 164.539062 52.800781 164.785156 55.65625 C 164.96875 57.746094 165.917969 59.792969 167.460938 61.417969 C 175.28125 69.636719 181.011719 80.746094 185.492188 96.382812 C 187.996094 105.125 190.648438 116.652344 188.890625 128.261719 C 188.320312 132.035156 187.589844 135.730469 186.886719 139.300781 C 185.128906 148.199219 183.3125 157.402344 183.710938 168.917969 L 187.191406 250.855469 C 187.394531 255.648438 187.355469 260.242188 184.679688 263.777344 C 181.394531 268.113281 175.421875 269.003906 170.082031 269.496094 C 168.703125 269.621094 167.285156 269.714844 165.882812 269.714844 Z M 165.882812 269.714844 " fill-opacity="1" fill-rule="nonzero"/><path fill="#a9a0f0" d="M 122.246094 238.527344 C 119.761719 238.527344 117.273438 238.277344 114.78125 237.707031 C 114.316406 237.601562 114.023438 237.136719 114.128906 236.667969 C 114.238281 236.199219 114.703125 235.90625 115.167969 236.015625 C 126.445312 238.585938 137.949219 234.238281 149.078125 230.03125 L 149.628906 229.824219 C 160.734375 225.628906 173.566406 221.496094 185.265625 225.625 C 185.714844 225.785156 185.953125 226.28125 185.792969 226.730469 C 185.632812 227.183594 185.136719 227.421875 184.6875 227.261719 C 173.539062 223.328125 161.0625 227.359375 150.242188 231.449219 L 149.695312 231.65625 C 140.726562 235.046875 131.519531 238.523438 122.246094 238.527344 Z M 122.246094 238.527344 " fill-opacity="1" fill-rule="nonzero"/><path fill="#a9a0f0" d="M 115.179688 216.957031 C 114.734375 216.957031 114.355469 216.617188 114.3125 216.164062 C 114.273438 215.6875 114.625 215.265625 115.105469 215.226562 C 123.089844 214.527344 130.984375 212.246094 138.617188 210.035156 C 142.195312 209 145.894531 207.929688 149.570312 207.027344 C 164.183594 203.453125 175.746094 203.839844 184.917969 208.207031 C 185.351562 208.414062 185.535156 208.933594 185.328125 209.363281 C 185.121094 209.796875 184.605469 209.980469 184.171875 209.777344 C 175.375 205.585938 164.191406 205.238281 149.984375 208.714844 C 146.339844 209.605469 142.660156 210.671875 139.097656 211.703125 C 131.386719 213.9375 123.410156 216.246094 115.253906 216.953125 C 115.230469 216.957031 115.203125 216.957031 115.179688 216.957031 Z M 115.179688 216.957031 " fill-opacity="1" fill-rule="nonzero"/><path fill="#a9a0f0" d="M 116.164062 192.96875 C 115.6875 192.96875 115.296875 192.582031 115.296875 192.101562 C 115.296875 191.621094 115.6875 191.234375 116.164062 191.234375 C 126.671875 191.234375 135.921875 189.183594 144.867188 187.199219 C 158.03125 184.28125 170.460938 181.523438 183.40625 186.808594 C 183.851562 186.992188 184.0625 187.496094 183.882812 187.941406 C 183.703125 188.386719 183.195312 188.597656 182.75 188.417969 C 170.308594 183.335938 158.691406 185.910156 145.242188 188.894531 C 136.207031 190.898438 126.859375 192.96875 116.164062 192.96875 Z M 116.164062 192.96875 " fill-opacity="1" fill-rule="nonzero"/><path fill="#a9a0f0" d="M 117.070312 171.679688 C 116.738281 171.679688 116.421875 171.488281 116.277344 171.167969 C 116.082031 170.730469 116.277344 170.214844 116.714844 170.019531 C 137.484375 160.695312 163.511719 158.066406 183.019531 163.324219 C 183.484375 163.449219 183.757812 163.925781 183.632812 164.386719 C 183.507812 164.851562 183.035156 165.125 182.570312 165 C 163.421875 159.839844 137.851562 162.433594 117.425781 171.605469 C 117.308594 171.65625 117.191406 171.679688 117.070312 171.679688 Z M 117.070312 171.679688 " fill-opacity="1" fill-rule="nonzero"/><path fill="#a9a0f0" d="M 132.429688 53.261719 C 131.949219 53.261719 131.5625 52.875 131.5625 52.394531 C 131.5625 51.914062 131.949219 51.527344 132.429688 51.523438 L 166.726562 51.492188 C 167.207031 51.492188 167.59375 51.878906 167.59375 52.359375 C 167.59375 52.839844 167.207031 53.226562 166.726562 53.230469 Z M 132.429688 53.261719 " fill-opacity="1" fill-rule="nonzero"/><path fill="#a9a0f0" d="M 148.308594 59.871094 C 144.023438 59.871094 139.746094 59.792969 135.492188 59.632812 C 135.253906 59.621094 135.066406 59.421875 135.074219 59.179688 C 135.082031 58.941406 135.265625 58.753906 135.523438 58.765625 C 145.207031 59.128906 155.027344 59.078125 164.710938 58.609375 C 164.929688 58.597656 165.152344 58.78125 165.164062 59.023438 C 165.175781 59.261719 164.992188 59.464844 164.753906 59.476562 C 159.300781 59.742188 153.800781 59.871094 148.308594 59.871094 Z M 148.308594 59.871094 " fill-opacity="1" fill-rule="nonzero"/><path fill="#a9a0f0" d="M 124.09375 161.246094 C 123.863281 161.246094 123.671875 161.066406 123.660156 160.832031 C 123.324219 153.964844 121.761719 147.097656 120.25 140.457031 C 118.511719 132.820312 116.71875 124.929688 116.761719 116.96875 C 116.867188 98.863281 126.210938 82.355469 134.457031 67.792969 C 134.574219 67.585938 134.839844 67.511719 135.050781 67.628906 C 135.257812 67.746094 135.332031 68.011719 135.214844 68.222656 C 127.019531 82.691406 117.734375 99.09375 117.632812 116.976562 C 117.585938 124.832031 119.371094 132.675781 121.097656 140.261719 C 122.617188 146.941406 124.1875 153.847656 124.527344 160.789062 C 124.539062 161.03125 124.355469 161.234375 124.113281 161.246094 C 124.109375 161.246094 124.101562 161.246094 124.09375 161.246094 Z M 124.09375 161.246094 " fill-opacity="1" fill-rule="nonzero"/><path fill="#a9a0f0" d="M 131.46875 263.152344 C 129.652344 263.152344 125.703125 262.835938 123.976562 262.394531 C 121.785156 261.839844 120.347656 260.925781 119.589844 259.601562 C 118.992188 258.558594 118.882812 257.332031 118.824219 256.164062 C 118.621094 252.234375 118.757812 248.257812 119.226562 244.351562 C 119.257812 244.113281 119.480469 243.941406 119.710938 243.972656 C 119.949219 244 120.121094 244.21875 120.089844 244.453125 C 119.625 248.3125 119.492188 252.238281 119.691406 256.121094 C 119.75 257.226562 119.839844 258.292969 120.34375 259.171875 C 120.980469 260.277344 122.238281 261.058594 124.191406 261.554688 C 125.710938 261.941406 129.527344 262.285156 131.46875 262.285156 C 131.710938 262.285156 131.902344 262.480469 131.902344 262.71875 C 131.902344 262.957031 131.710938 263.152344 131.46875 263.152344 Z M 131.46875 263.152344 " fill-opacity="1" fill-rule="nonzero"/><path fill="#a9a0f0" d="M 164.707031 263.699219 C 164.488281 263.699219 164.265625 263.699219 164.046875 263.695312 C 163.808594 263.691406 163.617188 263.492188 163.621094 263.253906 C 163.625 263.011719 163.785156 262.808594 164.0625 262.824219 C 167.476562 262.882812 170.890625 262.492188 174.203125 261.664062 C 175.417969 261.363281 176.683594 260.980469 177.730469 260.257812 C 180.617188 258.261719 181.160156 254.265625 181.109375 251.269531 C 181.101562 251.03125 181.292969 250.832031 181.535156 250.828125 C 181.757812 250.816406 181.972656 251.015625 181.976562 251.253906 C 182.03125 254.464844 181.425781 258.757812 178.226562 260.972656 C 177.0625 261.773438 175.707031 262.183594 174.414062 262.507812 C 171.242188 263.300781 167.976562 263.699219 164.707031 263.699219 Z M 164.707031 263.699219 " fill-opacity="1" fill-rule="nonzero"/><path fill="#a9a0f0" d="M 179.324219 133.878906 C 179.304688 133.878906 179.285156 133.875 179.265625 133.875 C 160.910156 131.367188 142.292969 131.339844 123.929688 133.789062 C 123.6875 133.820312 123.472656 133.65625 123.441406 133.417969 C 123.410156 133.179688 123.574219 132.960938 123.8125 132.929688 C 142.253906 130.46875 160.949219 130.496094 179.382812 133.011719 C 179.617188 133.046875 179.785156 133.265625 179.753906 133.5 C 179.722656 133.71875 179.535156 133.878906 179.324219 133.878906 Z M 179.324219 133.878906 " fill-opacity="1" fill-rule="nonzero"/><path fill="#a9a0f0" d="M 174.382812 144.1875 C 174.351562 144.1875 174.320312 144.183594 174.289062 144.175781 C 158.351562 140.570312 142.074219 139.96875 125.914062 142.398438 C 125.679688 142.433594 125.457031 142.269531 125.421875 142.03125 C 125.386719 141.796875 125.550781 141.574219 125.785156 141.539062 C 142.054688 139.09375 158.4375 139.699219 174.480469 143.328125 C 174.714844 143.382812 174.859375 143.613281 174.808594 143.847656 C 174.761719 144.050781 174.582031 144.1875 174.382812 144.1875 Z M 174.382812 144.1875 " fill-opacity="1" fill-rule="nonzero"/><path fill="#a9a0f0" d="M 174.398438 157.191406 C 174.347656 157.191406 174.300781 157.183594 174.253906 157.167969 C 168.144531 155.019531 161.496094 154.011719 155.03125 154.25 C 154.785156 154.257812 154.589844 154.070312 154.582031 153.832031 C 154.570312 153.589844 154.757812 153.390625 155 153.382812 C 161.574219 153.140625 168.332031 154.167969 174.542969 156.347656 C 174.765625 156.429688 174.886719 156.675781 174.804688 156.902344 C 174.742188 157.082031 174.574219 157.191406 174.398438 157.191406 Z M 174.398438 157.191406 " fill-opacity="1" fill-rule="nonzero"/><path fill="#a9a0f0" d="M 121.289062 160.425781 C 121.125 160.425781 120.96875 160.332031 120.894531 160.175781 C 120.792969 159.957031 120.890625 159.699219 121.109375 159.597656 C 129.09375 155.914062 137.960938 153.699219 146.742188 153.199219 C 146.980469 153.1875 147.1875 153.371094 147.203125 153.609375 C 147.214844 153.847656 147.03125 154.054688 146.792969 154.066406 C 138.117188 154.5625 129.363281 156.746094 121.472656 160.386719 C 121.414062 160.414062 121.351562 160.425781 121.289062 160.425781 Z M 121.289062 160.425781 " fill-opacity="1" fill-rule="nonzero"/><path fill="#a9a0f0" d="M 124.621094 181.648438 C 124.328125 181.648438 124.039062 181.554688 123.789062 181.371094 C 123.378906 181.0625 123.175781 180.574219 123.242188 180.058594 C 123.757812 176.160156 123.953125 172.191406 123.816406 168.261719 C 123.808594 168.019531 123.996094 167.820312 124.234375 167.8125 C 124.472656 167.808594 124.675781 167.992188 124.683594 168.230469 C 124.820312 172.210938 124.625 176.226562 124.101562 180.175781 C 124.066406 180.457031 124.234375 180.617188 124.308594 180.675781 C 124.386719 180.730469 124.589844 180.847656 124.851562 180.730469 C 142.230469 172.953125 162.378906 172.359375 180.128906 179.097656 C 180.355469 179.183594 180.46875 179.433594 180.382812 179.65625 C 180.296875 179.882812 180.046875 179.996094 179.824219 179.910156 C 162.285156 173.25 142.378906 173.839844 125.203125 181.523438 C 125.015625 181.609375 124.816406 181.648438 124.621094 181.648438 Z M 124.621094 181.648438 " fill-opacity="1" fill-rule="nonzero"/><path fill="#a9a0f0" d="M 123.058594 207.101562 C 122.746094 207.101562 122.433594 207.015625 122.148438 206.839844 C 121.601562 206.503906 121.289062 205.917969 121.320312 205.273438 C 121.539062 200.617188 121.28125 197.429688 120.855469 192.148438 L 121.722656 192.066406 L 121.289062 192.101562 L 121.722656 192.078125 C 122.152344 197.394531 122.410156 200.601562 122.1875 205.3125 C 122.171875 205.636719 122.328125 205.929688 122.605469 206.101562 C 122.878906 206.269531 123.207031 206.273438 123.484375 206.117188 C 141.011719 196.167969 162.140625 193.597656 181.460938 199.0625 C 181.691406 199.128906 181.824219 199.371094 181.757812 199.601562 C 181.691406 199.832031 181.449219 199.964844 181.222656 199.898438 C 162.128906 194.496094 141.238281 197.035156 123.914062 206.871094 C 123.644531 207.023438 123.351562 207.101562 123.058594 207.101562 Z M 123.058594 207.101562 " fill-opacity="1" fill-rule="nonzero"/><path fill="#a9a0f0" d="M 122.117188 231.4375 C 121.628906 231.4375 121.148438 231.28125 120.742188 230.980469 C 120.128906 230.519531 119.785156 229.789062 119.828125 229.023438 L 120.5625 215.410156 C 120.578125 215.167969 120.777344 214.984375 121.019531 215 C 121.257812 215.011719 121.441406 215.214844 121.429688 215.457031 L 120.695312 229.070312 C 120.667969 229.550781 120.875 229.996094 121.265625 230.285156 C 121.652344 230.578125 122.136719 230.648438 122.59375 230.488281 C 132.054688 227.132812 141.34375 223.941406 150.988281 221.75 C 162.988281 219.023438 173.578125 218.328125 183.367188 219.621094 C 183.605469 219.652344 183.773438 219.871094 183.742188 220.109375 C 183.710938 220.347656 183.492188 220.515625 183.253906 220.484375 C 173.570312 219.203125 163.078125 219.890625 151.183594 222.59375 C 141.582031 224.777344 132.320312 227.960938 122.882812 231.304688 C 122.632812 231.394531 122.375 231.4375 122.117188 231.4375 Z M 122.117188 231.4375 " fill-opacity="1" fill-rule="nonzero"/><path fill="#a9a0f0" d="M 179.867188 229.011719 C 179.648438 229.011719 179.460938 228.847656 179.433594 228.628906 C 177.003906 208.46875 174.488281 187.621094 175.683594 166.949219 C 176.101562 159.746094 176.980469 152.460938 177.828125 145.421875 C 178.777344 137.539062 179.761719 129.386719 180.097656 121.332031 C 180.859375 103.078125 177.953125 88.660156 171.207031 77.257812 C 171.085938 77.050781 171.152344 76.785156 171.359375 76.664062 C 171.566406 76.542969 171.832031 76.609375 171.953125 76.816406 C 178.789062 88.367188 181.734375 102.941406 180.964844 121.367188 C 180.628906 129.457031 179.644531 137.625 178.691406 145.523438 C 177.84375 152.554688 176.964844 159.824219 176.550781 167 C 175.359375 187.59375 177.871094 208.402344 180.296875 228.523438 C 180.324219 228.761719 180.15625 228.980469 179.917969 229.007812 C 179.898438 229.011719 179.882812 229.011719 179.867188 229.011719 Z M 179.867188 229.011719 " fill-opacity="1" fill-rule="nonzero"/><path fill="#a9a0f0" d="M 137.53125 44.421875 C 137.527344 44.421875 137.527344 44.421875 137.523438 44.421875 C 137.285156 44.417969 137.09375 44.222656 137.09375 43.980469 L 137.207031 33.183594 C 137.210938 32.945312 137.402344 32.753906 137.640625 32.753906 C 137.644531 32.753906 137.644531 32.753906 137.648438 32.753906 C 137.886719 32.757812 138.078125 32.953125 138.074219 33.191406 L 137.964844 43.992188 C 137.960938 44.230469 137.765625 44.421875 137.53125 44.421875 Z M 137.53125 44.421875 " fill-opacity="1" fill-rule="nonzero"/></svg>