<svg xmlns="http://www.w3.org/2000/svg" xmlns:xlink="http://www.w3.org/1999/xlink" width="400" zoomAndPan="magnify" viewBox="0 0 300 299.999988" height="400" preserveAspectRatio="xMidYMid meet" version="1.0"><defs><clipPath id="e9ac69db6c"><path d="M 30 72.800781 L 269 72.800781 L 269 227.300781 L 30 227.300781 Z M 30 72.800781 " clip-rule="nonzero"/></clipPath></defs><path fill="#a9a0f0" d="M 144.816406 161.796875 C 144.976562 162.117188 145.136719 162.117188 145.457031 162.117188 C 145.457031 162.117188 145.613281 162.117188 145.613281 162.117188 C 145.933594 161.957031 146.09375 161.636719 145.933594 161.320312 C 141.628906 150.953125 116.113281 149.835938 105.269531 149.835938 C 94.902344 149.835938 89.320312 148.882812 85.175781 143.460938 C 84.21875 142.183594 82.785156 139.949219 81.03125 136.921875 C 74.8125 126.554688 64.445312 109.171875 54.71875 109.171875 C 54.398438 109.171875 54.078125 109.492188 54.078125 109.8125 C 54.078125 110.128906 54.398438 110.449219 54.71875 110.449219 C 63.648438 110.449219 73.855469 127.511719 79.914062 137.71875 C 81.667969 140.75 83.101562 142.980469 84.058594 144.257812 C 88.523438 149.996094 94.746094 151.113281 105.269531 151.113281 C 113.5625 151.113281 140.671875 151.910156 144.816406 161.796875 Z M 144.816406 161.796875 " fill-opacity="1" fill-rule="nonzero"/><path fill="#a9a0f0" d="M 94.902344 141.386719 C 96.976562 142.023438 98.890625 142.34375 100.484375 142.34375 C 102.878906 142.34375 104.632812 141.863281 105.429688 141.546875 C 105.589844 141.546875 105.589844 141.546875 105.746094 141.386719 C 106.226562 141.226562 110.210938 139.3125 112.445312 138.035156 C 112.765625 137.878906 112.921875 137.558594 112.765625 137.238281 C 112.605469 136.921875 112.285156 136.761719 111.964844 136.921875 C 109.253906 138.355469 106.066406 139.949219 105.746094 140.109375 C 105.589844 140.109375 105.589844 140.109375 105.269531 140.269531 C 104.152344 140.589844 100.644531 141.703125 95.542969 140.109375 C 89.800781 138.355469 89.164062 133.414062 89.164062 130.0625 C 89.164062 129.746094 88.84375 129.425781 88.523438 129.425781 C 88.207031 129.425781 87.886719 129.746094 87.886719 130.0625 C 87.566406 132.457031 87.566406 139.152344 94.902344 141.386719 Z M 94.902344 141.386719 " fill-opacity="1" fill-rule="nonzero"/><g clip-path="url(#e9ac69db6c)"><path fill="#a9a0f0" d="M 267.289062 134.847656 C 266.652344 134.210938 265.535156 132.933594 263.78125 132.933594 C 262.664062 132.933594 261.867188 133.414062 261.230469 133.890625 C 260.75 134.210938 259.953125 134.6875 258.835938 135.007812 C 259.316406 133.890625 260.113281 132.457031 260.589844 131.5 C 262.824219 127.511719 264.417969 124.164062 262.664062 121.929688 C 262.027344 121.132812 260.910156 120.65625 259.792969 120.65625 C 257.878906 120.65625 255.648438 121.929688 252.9375 123.527344 C 251.980469 124.003906 250.863281 124.800781 249.746094 125.28125 C 250.066406 124.164062 250.386719 122.886719 250.703125 121.929688 C 252.140625 117.625 253.414062 113.480469 250.703125 111.40625 C 250.066406 110.925781 249.269531 110.609375 248.3125 110.609375 C 245.761719 110.609375 243.527344 112.839844 240.816406 115.550781 C 240.339844 116.03125 239.542969 116.667969 239.0625 117.304688 C 238.902344 116.507812 238.902344 115.550781 238.746094 114.753906 C 238.265625 110.128906 237.945312 105.503906 234.4375 103.910156 C 233.960938 103.75 233.320312 103.59375 232.683594 103.59375 C 229.65625 103.59375 227.742188 106.621094 226.304688 109.332031 C 226.144531 109.492188 226.144531 109.652344 225.988281 109.96875 C 225.828125 109.332031 225.667969 108.695312 225.507812 108.214844 C 224.550781 104.707031 223.433594 100.5625 219.925781 100.082031 C 219.765625 100.082031 219.609375 100.082031 219.289062 100.082031 C 216.101562 100.082031 214.664062 103.59375 213.390625 106.941406 C 212.589844 103.273438 211.476562 98.96875 207.648438 97.851562 C 206.851562 97.691406 206.054688 97.53125 205.414062 97.53125 C 201.90625 97.53125 200.472656 100.402344 198.878906 103.59375 C 198.238281 104.867188 197.441406 106.460938 196.484375 108.214844 C 195.847656 109.171875 195.367188 110.289062 194.730469 111.246094 C 191.859375 116.03125 188.832031 120.972656 187.875 126.875 C 187.875 127.191406 187.714844 127.511719 187.714844 127.671875 C 187.234375 130.222656 186.757812 133.09375 187.234375 135.804688 C 187.875 139.949219 188.988281 143.617188 190.425781 146.808594 C 190.585938 147.285156 190.902344 147.765625 191.0625 148.242188 C 191.699219 149.519531 192.179688 150.636719 192.5 151.75 C 192.5 151.910156 192.5 151.910156 192.5 152.070312 C 192.65625 153.347656 192.339844 154.621094 191.699219 155.101562 C 191.382812 155.257812 190.746094 155.417969 189.789062 155.417969 C 189.46875 155.417969 189.148438 155.417969 188.671875 155.417969 C 187.078125 155.417969 185.480469 155.101562 183.726562 154.941406 C 181.65625 154.621094 179.421875 154.304688 177.1875 154.304688 C 176.710938 154.304688 176.234375 154.304688 175.753906 154.304688 C 172.566406 154.460938 169.214844 155.101562 165.390625 156.375 C 165.546875 156.058594 165.707031 155.738281 165.707031 155.417969 C 166.503906 152.390625 162.679688 150.316406 159.808594 148.722656 C 159.011719 148.242188 158.054688 147.605469 157.414062 147.285156 C 158.054688 146.96875 159.011719 146.648438 159.648438 146.488281 C 161.878906 145.851562 164.589844 145.054688 165.707031 142.820312 C 166.027344 142.183594 166.027344 141.546875 165.707031 140.90625 C 164.910156 139.3125 162.519531 138.355469 159.011719 137.238281 C 158.371094 137.082031 157.574219 136.761719 156.9375 136.441406 C 157.894531 136.125 159.328125 135.644531 160.445312 135.324219 C 163.476562 134.527344 165.390625 133.890625 165.867188 132.773438 C 165.867188 132.613281 166.027344 132.613281 166.027344 132.457031 C 166.503906 131.660156 167.300781 130.222656 166.664062 128.628906 C 166.027344 127.035156 163.792969 124.800781 152.949219 122.886719 C 136.046875 120.015625 117.546875 123.207031 107.5 130.859375 C 105.429688 129.265625 100.644531 125.757812 98.09375 125.4375 C 97.613281 124.800781 97.296875 122.410156 97.136719 120.335938 C 96.5 115.390625 95.542969 108.375 91.875 102.636719 C 90.4375 100.402344 88.683594 97.53125 86.929688 94.503906 C 79.433594 80.949219 74.332031 72.816406 70.664062 72.972656 C 65.722656 73.132812 65.082031 74.25 64.445312 77.757812 C 64.125 79.191406 64.605469 80.949219 64.921875 82.542969 C 65.082031 83.179688 65.242188 83.816406 65.242188 84.457031 C 65.082031 84.457031 64.921875 84.296875 64.765625 83.976562 C 64.285156 83.5 63.488281 82.703125 62.054688 82.0625 C 61.414062 81.746094 60.617188 81.265625 59.820312 80.789062 C 57.746094 79.511719 55.675781 78.238281 54.238281 79.191406 C 52.964844 79.992188 52.964844 81.902344 53.121094 82.382812 C 53.441406 85.890625 54.878906 89.71875 55.832031 91.792969 C 55.195312 91.632812 54.238281 91.472656 53.121094 90.992188 C 52.804688 90.835938 52.324219 90.675781 51.847656 90.355469 C 48.339844 89.082031 45.308594 87.644531 43.875 89.238281 C 42.757812 90.355469 43.394531 92.269531 44.035156 93.546875 C 45.46875 96.574219 47.222656 98.488281 48.339844 99.765625 C 48.65625 100.082031 48.976562 100.5625 49.296875 100.882812 C 48.179688 101.199219 45.308594 100.882812 42.4375 100.402344 C 42.4375 100.402344 42.4375 100.402344 42.277344 100.402344 C 41.164062 100.242188 38.453125 100.082031 37.65625 101.679688 C 37.175781 102.636719 37.335938 103.75 38.292969 104.867188 C 39.410156 106.304688 41.003906 107.417969 42.277344 108.375 C 43.078125 109.015625 44.511719 109.96875 44.511719 110.449219 C 44.035156 110.769531 41.960938 110.925781 40.683594 110.925781 C 37.972656 111.085938 35.421875 111.246094 34.304688 112.839844 C 33.03125 114.753906 35.261719 116.667969 37.175781 118.421875 C 38.453125 119.539062 40.523438 121.292969 40.207031 122.089844 C 39.886719 122.886719 37.8125 123.367188 36.21875 123.527344 C 33.828125 123.84375 31.433594 124.324219 30.796875 126.394531 C 30 128.628906 32.390625 130.222656 34.625 131.660156 C 35.898438 132.457031 37.8125 133.730469 37.8125 134.527344 C 37.8125 135.167969 36.21875 135.964844 35.101562 136.601562 C 33.03125 137.558594 30.636719 138.835938 30.796875 141.386719 C 30.957031 143.9375 33.828125 145.054688 36.21875 146.011719 C 37.335938 146.488281 38.769531 146.96875 39.25 147.605469 C 38.929688 147.925781 37.8125 148.5625 37.175781 148.882812 C 34.945312 149.996094 31.59375 151.910156 33.03125 154.941406 C 35.101562 158.925781 39.886719 163.710938 51.210938 163.234375 C 62.054688 162.753906 82.625 155.257812 84.378906 152.546875 C 84.539062 152.230469 84.699219 151.910156 84.855469 151.75 C 85.015625 151.910156 85.335938 152.070312 85.65625 152.390625 L 85.8125 152.546875 C 88.523438 154.78125 93.148438 156.058594 95.222656 156.535156 C 94.902344 160.679688 93.628906 173.757812 96.816406 179.179688 C 97.296875 179.976562 97.773438 180.773438 98.253906 181.730469 C 102.398438 188.75 108.457031 199.433594 113.242188 202.460938 C 116.113281 204.375 118.34375 205.492188 120.417969 205.492188 C 121.535156 205.492188 122.652344 205.171875 123.925781 204.214844 C 125.679688 202.941406 124.722656 200.230469 123.609375 197.199219 C 123.128906 196.082031 122.011719 192.414062 122.652344 192.097656 C 123.128906 191.9375 124.566406 194.011719 125.203125 194.96875 C 126.957031 197.359375 129.1875 200.707031 132.378906 198.953125 C 135.410156 197.199219 135.25 193.851562 135.25 191.460938 C 135.25 190.820312 135.25 190.023438 135.25 189.546875 C 135.886719 189.703125 137.003906 190.183594 137.800781 190.660156 C 138.121094 190.820312 138.277344 190.980469 138.597656 190.980469 C 139.234375 191.777344 140.191406 192.734375 142.105469 192.734375 C 143.382812 192.734375 144.65625 192.414062 145.773438 192.097656 C 146.09375 191.9375 146.410156 191.9375 146.730469 191.777344 C 146.730469 191.9375 146.570312 191.9375 146.570312 192.097656 C 145.457031 194.171875 144.179688 196.882812 145.457031 199.433594 C 146.09375 200.546875 147.367188 201.824219 150.078125 201.824219 C 151.675781 201.824219 153.269531 201.347656 154.703125 201.027344 C 154.703125 201.347656 154.542969 201.664062 154.542969 201.984375 C 154.066406 205.015625 153.429688 208.203125 155.980469 209.480469 C 156.457031 209.636719 156.777344 209.796875 157.253906 209.796875 C 159.328125 209.796875 160.285156 208.042969 161.5625 206.128906 C 161.878906 205.652344 162.199219 205.015625 162.519531 204.535156 C 162.519531 205.171875 162.519531 205.96875 162.519531 206.609375 C 162.519531 209.160156 162.519531 212.03125 164.589844 213.945312 C 165.390625 214.742188 166.503906 215.058594 167.78125 215.058594 C 169.535156 215.058594 171.289062 214.101562 172.722656 213.304688 C 173.042969 213.148438 173.363281 212.988281 173.839844 212.828125 C 173.839844 213.304688 173.679688 213.945312 173.679688 214.261719 C 173.523438 216.65625 173.042969 220.480469 176.550781 221.757812 C 177.03125 221.917969 177.507812 222.078125 178.144531 222.078125 C 180.378906 222.078125 182.453125 220.640625 184.523438 219.207031 C 185.320312 218.570312 186.757812 217.769531 187.394531 217.453125 C 187.875 218.089844 188.351562 219.683594 188.671875 220.640625 C 189.46875 223.035156 190.425781 225.902344 193.296875 225.902344 C 193.457031 225.902344 193.457031 225.902344 193.613281 225.902344 C 195.847656 225.746094 196.964844 223.671875 198.238281 221.597656 C 198.558594 221.121094 198.878906 220.480469 199.195312 220.003906 C 199.515625 220.480469 199.992188 221.28125 200.152344 221.757812 C 201.429688 224.148438 203.183594 227.179688 206.371094 227.179688 C 206.53125 227.179688 206.851562 227.179688 207.011719 227.179688 C 214.984375 225.902344 217.855469 214.582031 218.96875 205.332031 C 219.609375 199.273438 218.8125 192.894531 216.578125 185.878906 C 216.417969 185.238281 216.101562 184.601562 215.941406 183.964844 C 215.460938 182.371094 214.824219 180.933594 214.664062 179.5 C 214.503906 178.222656 214.1875 176.949219 213.707031 175.671875 C 213.070312 173.597656 212.589844 171.84375 213.230469 170.25 C 213.867188 168.816406 215.144531 167.539062 217.054688 166.261719 C 218.492188 165.304688 219.765625 164.828125 221.042969 164.667969 C 221.363281 164.667969 221.679688 164.667969 222.160156 164.667969 C 223.277344 164.667969 224.550781 164.828125 225.667969 164.988281 C 229.175781 165.625 233.480469 166.105469 237.628906 166.105469 C 240.5 166.105469 243.210938 165.785156 245.761719 165.148438 C 249.90625 164.191406 253.414062 162.117188 256.125 159.40625 C 257.878906 157.492188 258.835938 155.417969 259.792969 153.347656 C 260.273438 152.390625 260.589844 151.433594 261.230469 150.476562 C 262.1875 148.882812 263.144531 147.445312 264.417969 145.851562 C 265.054688 144.894531 265.855469 143.9375 266.492188 142.820312 L 266.652344 142.503906 C 267.449219 141.386719 270 137.71875 267.289062 134.847656 Z M 138.4375 183.964844 C 138.917969 183.964844 139.394531 183.964844 139.875 183.964844 C 138.757812 184.921875 137.800781 186.355469 137.640625 187.949219 C 136.046875 187.3125 134.769531 186.835938 133.65625 187.472656 C 132.378906 188.269531 132.539062 189.863281 132.539062 191.617188 C 132.699219 194.011719 132.539062 195.925781 130.945312 196.722656 C 129.828125 197.359375 128.710938 195.765625 127.117188 193.53125 C 125.523438 191.300781 123.765625 188.746094 121.375 189.863281 C 118.664062 191.140625 119.941406 194.808594 121.054688 197.996094 C 121.535156 199.433594 122.332031 201.664062 122.171875 202.304688 C 120.738281 203.257812 119.621094 203.578125 114.519531 200.390625 C 110.371094 197.679688 104.152344 186.992188 100.324219 180.457031 C 99.847656 179.5 99.367188 178.703125 98.890625 177.902344 C 96.816406 174.394531 96.976562 166.421875 97.457031 160.679688 C 98.730469 164.667969 101.121094 170.410156 104.789062 173.917969 C 104.949219 174.078125 105.109375 174.078125 105.269531 174.078125 C 105.429688 174.078125 105.589844 174.078125 105.746094 173.917969 C 105.90625 173.597656 105.90625 173.28125 105.746094 172.960938 C 101.28125 168.65625 98.890625 160.839844 97.933594 157.332031 C 97.933594 156.855469 98.09375 156.214844 98.09375 155.898438 C 98.253906 155.257812 97.773438 154.621094 97.136719 154.460938 C 97.136719 154.460938 90.757812 153.1875 87.566406 150.792969 L 87.410156 150.636719 C 85.8125 149.359375 85.175781 148.882812 84.539062 148.882812 C 84.378906 148.882812 84.21875 148.882812 84.058594 149.039062 C 83.898438 149.039062 83.898438 149.199219 83.742188 149.199219 C 78.320312 146.648438 70.984375 148.722656 66.996094 149.835938 C 66.679688 149.996094 66.199219 149.996094 65.878906 150.15625 C 65.5625 150.316406 65.402344 150.636719 65.402344 150.953125 C 65.402344 151.273438 65.722656 151.433594 66.039062 151.433594 C 66.039062 151.433594 66.199219 151.433594 66.199219 151.433594 C 66.519531 151.273438 66.835938 151.273438 67.316406 151.113281 C 71.144531 149.996094 78 148.082031 82.945312 150.316406 C 82.945312 150.316406 82.945312 150.476562 82.945312 150.476562 C 82.785156 150.792969 82.785156 151.113281 82.464844 151.59375 C 81.03125 153.1875 62.054688 160.523438 51.367188 161.160156 C 43.234375 161.480469 37.972656 159.246094 35.421875 154.304688 C 35.101562 153.503906 36.058594 152.867188 38.453125 151.59375 C 40.046875 150.792969 41.480469 149.996094 41.960938 148.722656 C 42.121094 148.242188 42.121094 147.605469 41.800781 147.125 C 41.003906 145.691406 39.25 145.054688 37.335938 144.257812 C 35.582031 143.617188 33.507812 142.820312 33.507812 141.703125 C 33.507812 140.90625 35.101562 140.109375 36.378906 139.472656 C 38.453125 138.515625 40.683594 137.238281 40.523438 135.007812 C 40.367188 132.933594 38.292969 131.5 36.21875 130.222656 C 35.421875 129.585938 33.347656 128.308594 33.507812 127.832031 C 33.667969 127.191406 35.742188 126.875 37.015625 126.714844 C 39.410156 126.238281 42.277344 125.917969 43.078125 123.527344 C 43.875 121.132812 41.480469 119.058594 39.25 117.148438 C 38.453125 116.507812 37.175781 115.234375 36.855469 114.753906 C 37.496094 114.277344 39.886719 114.117188 41.164062 114.117188 C 43.875 113.957031 46.585938 113.796875 47.222656 111.882812 C 47.859375 109.8125 45.945312 108.375 44.035156 106.941406 C 42.757812 106.144531 41.480469 105.027344 40.523438 103.910156 C 40.367188 103.75 40.207031 103.59375 40.207031 103.433594 C 40.683594 103.273438 41.480469 103.273438 42.121094 103.433594 C 45.789062 104.230469 50.253906 104.707031 51.527344 102.953125 C 52.644531 101.359375 51.367188 100.082031 50.253906 98.648438 C 49.136719 97.371094 47.542969 95.777344 46.265625 92.90625 C 45.945312 92.109375 45.789062 91.632812 45.789062 91.472656 C 46.746094 91.472656 49.136719 92.589844 50.410156 93.066406 C 50.890625 93.226562 51.367188 93.546875 51.6875 93.703125 C 55.355469 95.300781 57.589844 94.660156 57.746094 94.660156 C 58.066406 94.503906 58.386719 94.34375 58.542969 94.023438 C 58.703125 93.703125 58.703125 93.226562 58.542969 92.90625 C 58.542969 92.90625 55.675781 87.324219 55.355469 82.703125 C 55.355469 82.222656 55.355469 81.902344 55.355469 81.746094 C 55.992188 81.902344 57.429688 82.859375 58.386719 83.339844 C 59.34375 83.976562 60.300781 84.457031 61.097656 84.773438 C 62.210938 85.253906 62.53125 85.570312 63.011719 86.050781 C 63.648438 86.6875 64.285156 87.324219 65.878906 87.324219 C 66.519531 87.324219 66.996094 87.007812 67.476562 86.6875 C 68.273438 85.730469 67.953125 84.296875 67.632812 82.382812 C 67.316406 81.105469 66.996094 79.511719 67.316406 78.554688 C 67.792969 76.003906 67.792969 76.003906 71.144531 75.84375 C 71.300781 75.84375 72.898438 76.164062 76.882812 82.0625 C 79.59375 86.050781 82.785156 91.3125 85.496094 96.097656 C 87.25 99.125 89.003906 101.996094 90.4375 104.390625 C 93.789062 109.652344 94.585938 116.191406 95.222656 121.132812 C 95.859375 125.4375 96.179688 128.308594 98.410156 128.308594 C 100.007812 128.46875 104.632812 131.5 107.34375 133.730469 C 107.820312 134.050781 108.457031 134.050781 108.9375 133.730469 C 118.1875 126.078125 136.367188 122.886719 153.109375 125.757812 C 162.835938 127.351562 164.589844 129.265625 164.910156 130.0625 C 165.070312 130.542969 164.910156 130.859375 164.433594 131.660156 C 164.273438 131.816406 164.273438 131.976562 164.273438 131.976562 C 163.792969 132.296875 161.722656 132.933594 160.285156 133.253906 C 157.253906 134.050781 155.34375 134.6875 154.386719 135.804688 C 154.066406 136.28125 153.90625 136.761719 154.066406 137.238281 C 154.386719 138.355469 155.820312 138.835938 158.691406 139.949219 C 160.285156 140.429688 163.476562 141.546875 163.792969 142.183594 C 163.15625 143.300781 161.242188 143.9375 159.328125 144.414062 C 157.414062 144.894531 155.820312 145.371094 155.183594 146.648438 C 154.863281 147.125 154.863281 147.605469 155.023438 148.082031 C 155.34375 149.359375 156.9375 150.15625 159.011719 151.433594 C 160.765625 152.390625 163.953125 154.304688 163.792969 155.417969 C 163.632812 156.214844 162.519531 156.375 159.964844 156.214844 C 157.734375 156.214844 155.183594 156.058594 154.066406 158.128906 C 153.429688 159.40625 153.746094 160.523438 154.703125 161.636719 C 148.644531 164.507812 143.542969 167.539062 139.875 169.769531 C 137.320312 171.367188 134.769531 173.121094 133.015625 174.394531 C 130.304688 176.46875 129.507812 177.265625 129.507812 178.542969 C 129.347656 180.136719 131.261719 183.964844 138.4375 183.964844 Z M 265.855469 138.675781 C 265.535156 139.949219 264.578125 141.066406 264.101562 141.863281 C 262.34375 144.414062 260.273438 146.808594 258.675781 149.519531 C 257.878906 150.953125 257.242188 152.390625 256.605469 153.824219 C 255.964844 155.257812 255.167969 156.695312 254.054688 157.8125 C 251.660156 160.363281 248.3125 161.957031 244.964844 162.753906 C 244.167969 162.914062 243.527344 163.074219 242.730469 163.234375 C 242.570312 163.234375 242.253906 163.234375 242.09375 163.390625 C 241.613281 163.390625 241.136719 163.550781 240.5 163.550781 C 240.179688 163.550781 240.019531 163.550781 239.699219 163.550781 C 239.222656 163.550781 238.585938 163.550781 238.105469 163.550781 C 237.945312 163.550781 237.628906 163.550781 237.46875 163.550781 C 237.148438 163.550781 236.832031 163.550781 236.671875 163.550781 C 236.035156 163.550781 235.394531 163.550781 234.757812 163.550781 C 234.4375 163.550781 234.121094 163.550781 233.800781 163.550781 C 233.164062 163.550781 232.683594 163.390625 232.046875 163.390625 C 231.726562 163.390625 231.410156 163.390625 231.089844 163.234375 C 230.453125 163.234375 229.8125 163.074219 229.175781 162.914062 C 228.855469 162.914062 228.699219 162.914062 228.378906 162.753906 C 227.582031 162.59375 226.625 162.4375 225.828125 162.277344 C 225.347656 162.117188 224.710938 162.117188 224.234375 161.957031 C 224.074219 161.957031 223.914062 161.957031 223.753906 161.957031 C 223.277344 161.957031 222.636719 161.796875 222.160156 161.796875 C 222.160156 161.796875 222 161.796875 222 161.796875 C 221.523438 161.796875 221.042969 161.796875 220.566406 161.957031 C 219.609375 162.117188 218.8125 162.277344 218.011719 162.753906 C 217.535156 162.914062 217.214844 163.074219 216.738281 163.390625 C 216.257812 163.710938 215.941406 163.871094 215.621094 164.03125 C 215.144531 164.347656 214.664062 164.667969 214.1875 164.988281 C 213.070312 165.785156 212.273438 166.742188 211.476562 167.859375 C 211.316406 168.175781 210.996094 168.65625 210.835938 168.972656 C 210.675781 169.453125 210.519531 169.769531 210.519531 170.25 C 210.359375 171.527344 210.519531 172.800781 210.835938 174.238281 C 210.996094 175.191406 211.316406 175.992188 211.632812 176.949219 C 211.953125 177.902344 212.113281 178.703125 212.273438 179.5 C 212.589844 181.890625 213.546875 184.125 214.34375 186.355469 C 214.664062 187.152344 214.824219 187.792969 214.984375 188.589844 C 215.460938 190.023438 215.78125 191.617188 216.101562 193.054688 C 216.738281 196.882812 217.054688 200.707031 216.578125 204.695312 C 215.300781 216.335938 212.273438 221.28125 209.402344 223.191406 C 208.921875 223.511719 208.445312 223.832031 207.964844 223.992188 C 207.488281 224.148438 207.167969 224.308594 206.691406 224.308594 C 206.53125 224.308594 206.371094 224.308594 206.210938 224.308594 C 206.054688 224.308594 206.054688 224.308594 205.894531 224.308594 C 205.734375 224.308594 205.734375 224.308594 205.574219 224.308594 C 205.414062 224.308594 205.414062 224.308594 205.253906 224.148438 C 205.097656 224.148438 205.097656 223.992188 204.9375 223.992188 C 204.9375 223.992188 204.777344 223.832031 204.777344 223.832031 C 204.617188 223.832031 204.617188 223.671875 204.457031 223.671875 C 204.457031 223.671875 204.300781 223.511719 204.300781 223.511719 C 204.300781 223.351562 204.140625 223.351562 204.140625 223.191406 C 204.140625 223.035156 203.980469 223.035156 203.980469 222.875 C 203.980469 222.714844 203.820312 222.714844 203.820312 222.554688 C 203.820312 222.394531 203.660156 222.394531 203.660156 222.238281 C 203.660156 222.078125 203.5 222.078125 203.5 221.917969 C 203.5 221.757812 203.34375 221.757812 203.34375 221.597656 C 203.34375 221.4375 203.183594 221.28125 203.183594 221.28125 C 203.183594 221.121094 203.023438 221.121094 203.023438 220.960938 C 203.023438 220.800781 202.863281 220.640625 202.863281 220.480469 C 202.703125 220.324219 202.703125 220.164062 202.542969 220.003906 C 202.542969 219.84375 202.386719 219.683594 202.386719 219.527344 C 202.386719 219.367188 202.226562 219.367188 202.226562 219.207031 C 202.226562 219.046875 202.066406 219.046875 202.066406 218.886719 C 202.066406 218.726562 201.90625 218.726562 201.90625 218.570312 C 201.90625 218.410156 201.746094 218.410156 201.746094 218.25 C 201.746094 218.089844 201.589844 218.089844 201.589844 217.929688 C 201.589844 217.769531 201.429688 217.769531 201.429688 217.613281 C 201.429688 217.453125 201.269531 217.453125 201.269531 217.292969 C 201.269531 217.292969 201.109375 217.132812 201.109375 217.132812 C 200.949219 216.972656 200.949219 216.972656 200.789062 216.816406 C 200.789062 216.816406 200.632812 216.65625 200.632812 216.65625 C 200.472656 216.496094 200.3125 216.496094 200.152344 216.335938 C 199.992188 216.335938 199.832031 216.175781 199.675781 216.175781 C 199.515625 216.175781 199.515625 216.175781 199.355469 216.175781 C 199.355469 216.175781 199.195312 216.175781 199.195312 216.175781 C 199.035156 216.175781 199.035156 216.335938 198.878906 216.335938 C 198.71875 216.496094 198.558594 216.496094 198.398438 216.65625 C 198.398438 216.65625 198.238281 216.816406 198.238281 216.816406 C 198.078125 216.972656 198.078125 216.972656 197.921875 217.132812 C 197.921875 217.132812 197.761719 217.292969 197.761719 217.292969 C 197.761719 217.453125 197.601562 217.453125 197.601562 217.613281 C 197.601562 217.613281 197.441406 217.769531 197.441406 217.929688 C 197.441406 218.089844 197.28125 218.089844 197.28125 218.25 C 197.28125 218.410156 197.121094 218.410156 197.121094 218.570312 C 197.121094 218.726562 196.964844 218.726562 196.964844 218.886719 C 196.964844 219.046875 196.804688 219.046875 196.804688 219.207031 C 196.804688 219.367188 196.644531 219.527344 196.644531 219.683594 C 196.484375 219.84375 196.484375 220.003906 196.324219 220.164062 C 196.324219 220.324219 196.167969 220.324219 196.167969 220.480469 C 196.167969 220.640625 196.007812 220.640625 196.007812 220.800781 C 196.007812 220.960938 195.847656 220.960938 195.847656 221.121094 C 195.847656 221.28125 195.6875 221.28125 195.6875 221.4375 C 195.6875 221.4375 195.527344 221.597656 195.527344 221.597656 C 195.527344 221.757812 195.367188 221.757812 195.367188 221.917969 C 195.367188 221.917969 195.210938 222.078125 195.210938 222.078125 C 195.210938 222.238281 195.050781 222.238281 195.050781 222.238281 C 195.050781 222.238281 194.890625 222.394531 194.890625 222.394531 C 194.890625 222.394531 194.730469 222.554688 194.730469 222.554688 C 194.730469 222.554688 194.570312 222.554688 194.570312 222.554688 C 194.410156 222.554688 194.410156 222.714844 194.253906 222.714844 C 194.253906 222.714844 194.09375 222.714844 194.09375 222.714844 C 194.09375 222.714844 193.933594 222.714844 193.933594 222.714844 C 193.933594 222.714844 193.773438 222.714844 193.773438 222.554688 C 193.773438 222.554688 193.613281 222.554688 193.613281 222.394531 C 193.613281 222.394531 193.457031 222.238281 193.457031 222.238281 C 193.457031 222.238281 193.296875 222.078125 193.296875 222.078125 C 193.296875 222.078125 193.136719 221.917969 193.136719 221.917969 C 193.136719 221.917969 192.976562 221.757812 192.976562 221.757812 C 192.976562 221.597656 192.816406 221.597656 192.816406 221.4375 C 192.816406 221.28125 192.816406 221.28125 192.65625 221.121094 C 192.65625 220.960938 192.5 220.960938 192.5 220.800781 C 192.5 220.640625 192.5 220.640625 192.339844 220.480469 C 192.339844 220.324219 192.179688 220.324219 192.179688 220.164062 C 192.179688 220.003906 192.179688 220.003906 192.019531 219.84375 C 192.019531 219.683594 191.859375 219.527344 191.859375 219.527344 C 191.859375 219.367188 191.699219 219.207031 191.699219 219.046875 C 191.699219 218.886719 191.542969 218.726562 191.542969 218.570312 C 191.542969 218.410156 191.542969 218.410156 191.382812 218.25 C 191.382812 218.089844 191.222656 217.929688 191.222656 217.929688 C 191.222656 217.769531 191.0625 217.769531 191.0625 217.613281 C 191.0625 217.453125 190.902344 217.453125 190.902344 217.292969 C 190.902344 217.132812 190.746094 217.132812 190.746094 216.972656 C 190.746094 216.816406 190.585938 216.816406 190.585938 216.65625 C 190.585938 216.496094 190.425781 216.496094 190.425781 216.335938 C 190.425781 216.175781 190.265625 216.175781 190.265625 216.015625 C 190.265625 215.859375 190.105469 215.859375 190.105469 215.699219 C 190.105469 215.699219 189.945312 215.539062 189.945312 215.539062 C 189.789062 215.378906 189.789062 215.378906 189.628906 215.21875 C 189.628906 215.21875 189.46875 215.058594 189.46875 215.058594 C 189.308594 214.902344 189.148438 214.742188 188.988281 214.742188 C 188.832031 214.582031 188.671875 214.582031 188.511719 214.582031 C 188.511719 214.582031 188.351562 214.582031 188.351562 214.582031 C 188.191406 214.582031 188.191406 214.582031 188.035156 214.582031 C 188.035156 214.582031 188.035156 214.582031 187.875 214.582031 C 187.875 214.582031 187.714844 214.582031 187.714844 214.582031 C 187.554688 214.582031 187.394531 214.582031 187.394531 214.582031 C 187.394531 214.582031 187.234375 214.582031 187.234375 214.582031 C 187.078125 214.582031 186.917969 214.742188 186.757812 214.742188 C 186.757812 214.742188 186.597656 214.742188 186.597656 214.902344 C 186.4375 215.058594 186.121094 215.058594 185.960938 215.21875 C 185.800781 215.378906 185.480469 215.539062 185.324219 215.699219 C 185.324219 215.699219 185.164062 215.859375 185.164062 215.859375 C 185.003906 216.015625 184.84375 216.015625 184.683594 216.175781 C 184.523438 216.175781 184.523438 216.335938 184.367188 216.335938 C 184.207031 216.496094 184.046875 216.65625 183.886719 216.65625 C 183.726562 216.816406 183.566406 216.816406 183.410156 216.972656 C 183.25 217.132812 183.089844 217.132812 182.929688 217.292969 C 182.613281 217.453125 182.453125 217.613281 182.132812 217.769531 C 182.132812 217.769531 181.972656 217.769531 181.972656 217.929688 C 181.8125 218.089844 181.65625 218.25 181.335938 218.25 C 181.175781 218.25 181.175781 218.410156 181.015625 218.410156 C 180.855469 218.570312 180.699219 218.570312 180.539062 218.726562 C 180.378906 218.726562 180.378906 218.886719 180.21875 218.886719 C 180.058594 218.886719 179.902344 219.046875 179.742188 219.046875 C 179.742188 219.046875 179.582031 219.046875 179.582031 219.207031 C 179.421875 219.207031 179.261719 219.367188 179.101562 219.367188 C 179.101562 219.367188 179.101562 219.367188 178.945312 219.367188 C 178.785156 219.367188 178.625 219.367188 178.304688 219.367188 C 178.144531 219.367188 177.828125 219.367188 177.667969 219.207031 C 177.347656 219.046875 177.03125 218.886719 176.871094 218.570312 C 176.550781 218.089844 176.390625 217.613281 176.390625 216.972656 C 176.390625 216.816406 176.390625 216.496094 176.390625 216.335938 C 176.390625 216.175781 176.390625 215.859375 176.390625 215.699219 C 176.390625 215.539062 176.390625 215.21875 176.390625 214.902344 C 176.550781 213.945312 176.550781 212.988281 176.550781 212.03125 C 176.550781 211.074219 176.390625 210.4375 175.914062 209.957031 C 175.753906 209.796875 175.59375 209.796875 175.433594 209.636719 C 175.433594 209.636719 175.277344 209.636719 175.277344 209.636719 C 175.117188 209.636719 175.117188 209.636719 174.957031 209.636719 C 174.957031 209.636719 174.957031 209.636719 174.796875 209.636719 C 174.636719 209.636719 174.480469 209.636719 174.320312 209.796875 C 174.320312 209.796875 174.160156 209.796875 174.160156 209.796875 C 174 209.796875 173.679688 209.957031 173.523438 210.117188 C 173.203125 210.277344 173.042969 210.4375 172.722656 210.4375 C 172.566406 210.4375 172.566406 210.59375 172.40625 210.59375 C 172.246094 210.753906 171.925781 210.914062 171.769531 210.914062 C 171.449219 211.074219 171.128906 211.234375 170.96875 211.394531 C 170.96875 211.394531 170.8125 211.394531 170.8125 211.394531 C 170.171875 212.03125 169.855469 212.03125 169.695312 212.191406 C 169.695312 212.191406 169.535156 212.191406 169.535156 212.347656 C 169.375 212.507812 169.054688 212.507812 168.898438 212.507812 C 168.898438 212.507812 168.898438 212.507812 168.738281 212.507812 C 168.417969 212.507812 168.257812 212.667969 167.941406 212.667969 C 167.941406 212.667969 167.78125 212.667969 167.78125 212.667969 C 167.621094 212.667969 167.460938 212.667969 167.300781 212.507812 C 167.300781 212.507812 167.144531 212.507812 167.144531 212.507812 C 166.984375 212.347656 166.664062 212.347656 166.503906 212.191406 C 166.34375 212.03125 166.1875 211.871094 166.027344 211.710938 C 165.546875 211.074219 165.390625 210.117188 165.230469 209 C 165.230469 208.679688 165.230469 208.523438 165.230469 208.203125 C 165.230469 207.726562 165.230469 207.085938 165.230469 206.609375 C 165.230469 205.8125 165.230469 205.015625 165.230469 204.214844 C 165.230469 203.898438 165.070312 203.578125 165.070312 203.417969 C 165.070312 203.101562 164.910156 202.78125 164.75 202.460938 C 164.589844 201.984375 164.273438 201.664062 163.792969 201.503906 C 163.632812 201.347656 163.476562 201.347656 163.316406 201.347656 C 163.316406 201.347656 163.316406 201.347656 163.15625 201.347656 C 163.15625 201.347656 163.15625 201.347656 162.996094 201.347656 C 162.996094 201.347656 162.835938 201.347656 162.835938 201.347656 C 162.835938 201.347656 162.679688 201.347656 162.679688 201.347656 C 162.519531 201.347656 162.519531 201.503906 162.359375 201.503906 C 162.359375 201.503906 162.199219 201.503906 162.199219 201.503906 C 162.039062 201.664062 161.878906 201.664062 161.722656 201.824219 C 161.722656 201.824219 161.722656 201.824219 161.5625 201.984375 C 161.402344 202.144531 161.402344 202.144531 161.242188 202.304688 C 161.242188 202.304688 161.082031 202.460938 161.082031 202.460938 C 160.921875 202.621094 160.921875 202.621094 160.765625 202.78125 C 160.765625 202.78125 160.605469 202.941406 160.605469 202.941406 C 160.445312 203.101562 160.445312 203.101562 160.285156 203.257812 C 160.285156 203.417969 160.125 203.417969 160.125 203.578125 C 159.96875 203.738281 159.96875 203.898438 159.808594 203.898438 C 159.808594 204.058594 159.648438 204.058594 159.648438 204.214844 C 159.488281 204.375 159.488281 204.535156 159.328125 204.695312 C 159.167969 204.855469 159.167969 205.015625 159.011719 205.171875 C 159.011719 205.332031 158.851562 205.332031 158.851562 205.492188 C 158.691406 205.652344 158.53125 205.8125 158.53125 206.128906 C 158.53125 206.128906 158.53125 206.128906 158.53125 206.289062 C 158.371094 206.449219 158.371094 206.609375 158.210938 206.609375 C 158.210938 206.609375 158.210938 206.769531 158.054688 206.769531 C 158.054688 206.925781 157.894531 206.925781 157.894531 207.085938 C 157.894531 207.085938 157.734375 207.246094 157.734375 207.246094 C 157.734375 207.246094 157.574219 207.40625 157.574219 207.40625 C 157.574219 207.40625 157.414062 207.40625 157.414062 207.566406 C 157.414062 207.566406 157.257812 207.566406 157.257812 207.726562 C 157.257812 207.726562 157.257812 207.726562 157.097656 207.726562 C 156.9375 207.726562 156.9375 207.726562 156.777344 207.726562 C 156.300781 207.566406 156.300781 206.609375 156.300781 205.492188 C 156.300781 204.855469 156.457031 204.058594 156.617188 203.257812 C 156.617188 202.941406 156.777344 202.78125 156.777344 202.460938 C 156.9375 201.503906 157.097656 200.546875 157.097656 199.75 C 157.097656 199.59375 157.097656 199.433594 157.097656 199.273438 C 157.097656 198.953125 156.9375 198.792969 156.777344 198.636719 C 156.617188 198.636719 156.457031 198.476562 156.300781 198.476562 C 156.300781 198.476562 156.300781 198.476562 156.140625 198.476562 C 155.980469 198.476562 155.820312 198.476562 155.820312 198.476562 C 155.820312 198.476562 155.660156 198.476562 155.660156 198.476562 C 155.5 198.476562 155.183594 198.476562 155.023438 198.636719 C 155.023438 198.636719 154.863281 198.636719 154.863281 198.636719 C 154.703125 198.636719 154.546875 198.792969 154.226562 198.792969 C 154.066406 198.792969 153.746094 198.953125 153.589844 198.953125 C 153.429688 198.953125 153.269531 198.953125 153.109375 199.113281 C 152.949219 199.113281 152.789062 199.273438 152.472656 199.273438 C 152.3125 199.273438 152.3125 199.273438 152.152344 199.273438 C 151.992188 199.273438 151.675781 199.433594 151.515625 199.433594 C 151.515625 199.433594 151.355469 199.433594 151.355469 199.433594 C 151.035156 199.433594 150.71875 199.59375 150.558594 199.59375 C 150.558594 199.59375 150.398438 199.59375 150.398438 199.59375 C 150.238281 199.59375 149.921875 199.59375 149.761719 199.59375 C 149.601562 199.59375 149.601562 199.59375 149.441406 199.59375 C 149.28125 199.59375 149.121094 199.59375 148.964844 199.59375 C 148.804688 199.59375 148.804688 199.59375 148.644531 199.59375 C 148.484375 199.59375 148.324219 199.59375 148.324219 199.433594 C 148.324219 199.433594 148.167969 199.433594 148.167969 199.273438 C 148.007812 199.273438 148.007812 199.113281 147.847656 199.113281 C 147.847656 199.113281 147.6875 199.113281 147.6875 198.953125 C 147.527344 198.792969 147.367188 198.636719 147.367188 198.476562 C 145.933594 195.765625 151.195312 190.980469 149.121094 189.546875 C 148.964844 189.386719 148.804688 189.386719 148.644531 189.226562 C 148.644531 189.226562 148.484375 189.226562 148.484375 189.226562 C 148.324219 189.226562 148.167969 189.226562 148.007812 189.226562 C 148.007812 189.226562 148.007812 189.226562 147.847656 189.226562 C 147.847656 189.226562 147.847656 189.226562 147.6875 189.226562 C 147.527344 189.226562 147.367188 189.226562 147.210938 189.226562 C 147.210938 189.226562 147.050781 189.226562 147.050781 189.226562 C 146.890625 189.226562 146.570312 189.226562 146.410156 189.386719 C 146.253906 189.386719 145.933594 189.546875 145.773438 189.546875 C 145.773438 189.546875 145.773438 189.546875 145.613281 189.546875 C 145.457031 189.546875 145.457031 189.546875 145.296875 189.703125 C 145.136719 189.703125 144.976562 189.863281 144.816406 189.863281 C 144.65625 189.863281 144.65625 189.863281 144.5 190.023438 C 144.339844 190.023438 144.339844 190.023438 144.179688 190.023438 C 144.019531 190.023438 144.019531 190.023438 143.859375 190.023438 C 143.699219 190.023438 143.542969 190.023438 143.382812 190.183594 C 143.222656 190.183594 143.222656 190.183594 143.0625 190.183594 C 142.902344 190.183594 142.746094 190.183594 142.585938 190.34375 C 142.585938 190.34375 142.425781 190.34375 142.425781 190.34375 C 142.265625 190.34375 141.945312 190.34375 141.789062 190.34375 C 141.628906 190.34375 141.46875 190.34375 141.308594 190.34375 C 140.988281 190.34375 140.671875 190.183594 140.511719 189.863281 C 140.351562 189.703125 140.351562 189.703125 140.191406 189.546875 C 140.191406 189.546875 140.191406 189.386719 140.191406 189.386719 C 139.554688 187.792969 140.832031 186.355469 142.265625 185.398438 C 142.585938 185.082031 143.0625 184.921875 143.382812 184.601562 C 143.699219 184.441406 144.019531 184.125 144.179688 183.964844 C 144.179688 183.964844 144.339844 183.804688 144.339844 183.804688 C 144.816406 183.324219 144.65625 182.6875 143.699219 182.210938 C 143.382812 182.050781 142.902344 181.890625 142.265625 181.730469 C 141.789062 181.570312 141.46875 181.570312 140.832031 181.570312 C 140.035156 181.414062 139.234375 181.414062 138.121094 181.414062 C 132.539062 181.414062 131.582031 178.859375 131.582031 178.222656 C 131.582031 177.585938 142.425781 169.613281 156.140625 163.074219 C 156.617188 162.914062 156.9375 162.753906 157.414062 162.4375 C 157.894531 162.277344 158.210938 162.117188 158.691406 161.796875 C 159.96875 161.160156 161.242188 160.679688 162.519531 160.203125 C 166.824219 158.449219 171.289062 157.171875 175.914062 156.855469 C 176.390625 156.855469 176.871094 156.855469 177.347656 156.855469 C 178.144531 156.855469 179.101562 156.855469 179.902344 157.015625 C 180.058594 157.015625 180.21875 157.015625 180.378906 157.015625 C 181.175781 157.171875 181.972656 157.171875 182.929688 157.332031 C 183.886719 157.492188 184.683594 157.492188 185.640625 157.652344 C 185.800781 157.652344 185.800781 157.652344 185.960938 157.652344 C 186.917969 157.8125 187.714844 157.8125 188.671875 157.8125 C 188.988281 157.8125 189.46875 157.8125 189.789062 157.8125 C 190.105469 157.8125 190.425781 157.8125 190.746094 157.8125 C 190.902344 157.8125 190.902344 157.8125 191.0625 157.8125 C 191.382812 157.8125 191.542969 157.8125 191.859375 157.652344 C 192.019531 157.652344 192.019531 157.652344 192.179688 157.652344 C 192.5 157.492188 192.816406 157.492188 193.136719 157.171875 C 193.613281 156.855469 193.933594 156.535156 194.253906 156.058594 C 194.730469 155.417969 195.050781 154.621094 195.210938 153.824219 C 195.367188 153.347656 195.367188 152.707031 195.367188 152.230469 C 195.367188 151.910156 195.367188 151.75 195.210938 151.433594 C 195.210938 151.273438 195.210938 151.113281 195.050781 150.953125 C 194.570312 149.039062 193.613281 147.285156 192.816406 145.53125 C 191.699219 143.140625 190.902344 140.429688 190.425781 137.878906 C 190.265625 136.921875 190.105469 136.125 189.945312 135.167969 C 189.945312 134.847656 189.789062 134.527344 189.789062 134.210938 C 189.789062 133.570312 189.789062 132.933594 189.789062 132.136719 C 189.789062 131.5 189.945312 130.703125 190.105469 130.0625 C 190.265625 129.425781 190.265625 128.628906 190.425781 127.992188 C 190.425781 127.671875 190.585938 127.351562 190.585938 127.035156 C 191.699219 120.496094 195.6875 114.914062 198.878906 109.332031 C 199.355469 108.695312 199.675781 107.898438 199.992188 107.417969 C 199.992188 107.257812 200.152344 107.257812 200.152344 107.101562 C 200.472656 106.460938 200.789062 105.984375 200.949219 105.347656 C 201.109375 105.1875 201.109375 104.867188 201.269531 104.707031 C 201.269531 104.707031 201.269531 104.546875 201.269531 104.546875 C 201.429688 104.230469 201.589844 103.910156 201.746094 103.75 C 201.746094 103.75 201.746094 103.59375 201.90625 103.59375 C 202.066406 103.113281 202.386719 102.792969 202.542969 102.476562 C 202.542969 102.476562 202.542969 102.476562 202.542969 102.316406 C 202.703125 101.996094 202.863281 101.679688 203.183594 101.359375 C 203.183594 101.359375 203.183594 101.199219 203.34375 101.199219 C 203.5 100.882812 203.660156 100.722656 203.980469 100.5625 C 203.980469 100.5625 204.140625 100.5625 204.140625 100.402344 C 204.300781 100.242188 204.617188 100.082031 204.777344 99.925781 C 204.777344 99.925781 204.777344 99.925781 204.9375 99.925781 C 205.253906 99.765625 205.414062 99.765625 205.734375 99.765625 C 205.734375 99.765625 205.734375 99.765625 205.894531 99.765625 C 206.054688 99.765625 206.210938 99.765625 206.371094 99.765625 C 206.371094 99.765625 206.53125 99.765625 206.53125 99.765625 C 206.851562 99.765625 207.011719 99.925781 207.328125 99.925781 C 211.632812 101.199219 211.15625 111.246094 213.390625 112.203125 C 213.546875 112.203125 213.546875 112.203125 213.707031 112.203125 C 213.707031 112.203125 213.867188 112.203125 213.867188 112.203125 C 213.867188 112.203125 214.027344 112.203125 214.027344 112.042969 C 214.027344 112.042969 214.1875 111.882812 214.1875 111.882812 C 214.1875 111.882812 214.34375 111.726562 214.34375 111.726562 C 214.34375 111.726562 214.503906 111.566406 214.503906 111.566406 C 214.503906 111.40625 214.664062 111.40625 214.664062 111.246094 C 214.664062 111.085938 214.824219 111.085938 214.824219 110.925781 C 214.824219 110.769531 214.984375 110.609375 214.984375 110.449219 C 214.984375 110.289062 215.144531 110.289062 215.144531 110.128906 C 215.144531 109.96875 215.300781 109.8125 215.300781 109.652344 C 215.300781 109.492188 215.460938 109.332031 215.460938 109.171875 C 215.460938 109.015625 215.621094 108.855469 215.621094 108.695312 C 215.78125 108.375 215.78125 108.058594 215.941406 107.738281 C 215.941406 107.578125 216.101562 107.417969 216.101562 107.417969 C 216.257812 107.257812 216.257812 106.941406 216.417969 106.78125 C 216.417969 106.621094 216.417969 106.621094 216.578125 106.460938 C 216.738281 106.144531 216.738281 105.984375 216.898438 105.664062 C 216.898438 105.664062 216.898438 105.503906 216.898438 105.503906 C 217.054688 105.1875 217.214844 104.867188 217.214844 104.546875 C 217.214844 104.546875 217.214844 104.546875 217.214844 104.390625 C 217.375 104.230469 217.375 103.910156 217.535156 103.75 C 217.535156 103.75 217.695312 103.59375 217.695312 103.59375 C 217.855469 103.433594 217.855469 103.273438 218.011719 103.113281 C 218.011719 103.113281 218.171875 102.953125 218.171875 102.953125 C 218.332031 102.792969 218.332031 102.792969 218.492188 102.636719 C 218.492188 102.636719 218.652344 102.476562 218.652344 102.476562 C 218.8125 102.476562 218.8125 102.316406 218.96875 102.316406 C 218.96875 102.316406 219.128906 102.316406 219.289062 102.316406 C 219.449219 102.316406 219.609375 102.316406 219.765625 102.316406 C 222 102.636719 222.796875 107.257812 223.914062 110.449219 C 224.234375 111.40625 224.550781 112.042969 224.871094 112.679688 C 225.03125 113 225.347656 113.320312 225.667969 113.480469 C 225.828125 113.480469 225.988281 113.636719 225.988281 113.636719 C 225.988281 113.636719 225.988281 113.636719 226.144531 113.636719 C 226.304688 113.636719 226.304688 113.636719 226.464844 113.480469 C 226.464844 113.480469 226.625 113.480469 226.625 113.320312 C 226.785156 113.320312 226.785156 113.160156 226.945312 113.160156 C 226.945312 113.160156 227.101562 113 227.101562 113 C 227.261719 112.839844 227.261719 112.839844 227.421875 112.679688 C 227.421875 112.679688 227.582031 112.523438 227.582031 112.523438 C 227.742188 112.363281 227.742188 112.203125 227.898438 112.203125 C 227.898438 112.042969 228.058594 112.042969 228.058594 111.882812 C 228.21875 111.726562 228.21875 111.566406 228.378906 111.40625 C 228.378906 111.246094 228.539062 111.246094 228.539062 111.085938 C 228.699219 110.925781 228.699219 110.769531 228.855469 110.449219 C 229.015625 110.128906 229.175781 109.8125 229.496094 109.492188 C 229.496094 109.492188 229.496094 109.332031 229.65625 109.332031 C 229.8125 109.171875 229.972656 108.855469 229.972656 108.695312 C 229.972656 108.535156 230.132812 108.535156 230.132812 108.375 C 230.292969 108.214844 230.292969 108.058594 230.453125 107.898438 C 230.453125 107.738281 230.609375 107.738281 230.609375 107.578125 C 230.769531 107.417969 230.769531 107.257812 230.929688 107.101562 C 230.929688 106.941406 231.089844 106.941406 231.089844 106.78125 C 231.25 106.621094 231.25 106.460938 231.410156 106.460938 C 231.410156 106.460938 231.566406 106.304688 231.566406 106.304688 C 231.726562 106.144531 231.886719 106.144531 231.886719 105.984375 C 231.886719 105.984375 232.046875 105.824219 232.046875 105.824219 C 232.207031 105.664062 232.367188 105.664062 232.523438 105.664062 C 232.523438 105.664062 232.523438 105.664062 232.683594 105.664062 C 232.84375 105.664062 233.003906 105.503906 233.320312 105.503906 C 233.480469 105.503906 233.800781 105.503906 233.960938 105.664062 C 237.46875 107.101562 236.035156 118.582031 237.945312 120.175781 C 238.105469 120.335938 238.265625 120.335938 238.425781 120.335938 C 238.585938 120.335938 238.746094 120.335938 238.902344 120.175781 C 238.902344 120.175781 239.0625 120.175781 239.0625 120.175781 C 239.222656 120.175781 239.382812 120.015625 239.542969 120.015625 C 239.542969 120.015625 239.699219 119.859375 239.699219 119.859375 C 239.859375 119.699219 240.019531 119.699219 240.179688 119.539062 C 240.339844 119.539062 240.339844 119.378906 240.5 119.378906 C 240.65625 119.21875 240.816406 119.058594 240.976562 119.058594 C 241.136719 119.058594 241.136719 118.902344 241.296875 118.902344 C 241.457031 118.742188 241.613281 118.582031 241.773438 118.421875 C 241.773438 118.421875 241.933594 118.261719 241.933594 118.261719 C 242.253906 117.945312 242.410156 117.785156 242.730469 117.464844 C 243.050781 117.304688 243.210938 116.988281 243.527344 116.828125 C 243.6875 116.828125 243.6875 116.667969 243.847656 116.667969 C 244.007812 116.507812 244.167969 116.347656 244.484375 116.03125 C 244.644531 115.871094 244.644531 115.871094 244.804688 115.710938 C 244.964844 115.550781 245.121094 115.390625 245.28125 115.234375 C 245.441406 115.074219 245.441406 115.074219 245.601562 114.914062 C 245.761719 114.753906 245.921875 114.59375 246.078125 114.4375 C 246.238281 114.4375 246.238281 114.277344 246.398438 114.277344 C 246.558594 114.117188 246.71875 113.957031 247.035156 113.796875 C 247.035156 113.796875 247.195312 113.636719 247.195312 113.636719 C 247.515625 113.480469 247.675781 113.320312 247.832031 113.160156 C 247.832031 113.160156 247.992188 113.160156 247.992188 113.160156 C 248.152344 113.160156 248.3125 113 248.472656 113 C 248.472656 113 248.632812 113 248.632812 113 C 248.789062 113 248.949219 113 249.109375 113 C 249.109375 113 249.269531 113 249.269531 113 C 249.429688 113 249.589844 113.160156 249.746094 113.160156 C 250.226562 113.480469 250.386719 113.957031 250.386719 114.753906 C 250.386719 115.074219 250.386719 115.550781 250.226562 115.871094 C 250.226562 116.347656 250.066406 116.667969 249.90625 117.148438 C 249.589844 118.582031 248.949219 120.335938 248.472656 121.929688 C 248.3125 122.410156 248.152344 122.726562 248.152344 123.046875 C 247.832031 124.164062 247.515625 125.28125 247.515625 126.078125 C 247.515625 126.714844 247.515625 127.191406 247.832031 127.511719 C 247.992188 127.671875 247.992188 127.671875 248.152344 127.671875 C 248.3125 127.832031 248.632812 127.832031 248.789062 127.832031 C 248.949219 127.832031 249.109375 127.832031 249.429688 127.832031 C 249.589844 127.832031 249.90625 127.671875 250.066406 127.671875 C 250.226562 127.671875 250.226562 127.671875 250.386719 127.511719 C 250.542969 127.511719 250.703125 127.351562 250.863281 127.351562 C 251.023438 127.351562 251.023438 127.191406 251.183594 127.191406 C 251.34375 127.035156 251.660156 127.035156 251.820312 126.875 C 251.980469 126.875 251.980469 126.714844 252.140625 126.714844 C 252.457031 126.554688 252.777344 126.394531 253.097656 126.238281 C 253.414062 126.078125 253.734375 125.917969 253.894531 125.757812 C 254.054688 125.597656 254.210938 125.597656 254.371094 125.4375 C 254.53125 125.28125 254.851562 125.121094 255.011719 125.121094 C 255.167969 124.960938 255.488281 124.800781 255.648438 124.640625 C 255.808594 124.640625 255.808594 124.480469 255.964844 124.480469 C 256.605469 124.164062 257.242188 123.84375 257.722656 123.527344 C 257.878906 123.527344 257.878906 123.527344 258.039062 123.367188 C 258.199219 123.207031 258.359375 123.207031 258.675781 123.046875 C 258.835938 123.046875 258.835938 123.046875 258.996094 122.886719 C 259.15625 122.886719 259.316406 122.726562 259.476562 122.726562 C 259.476562 122.726562 259.632812 122.726562 259.632812 122.726562 C 259.792969 122.726562 260.113281 122.726562 260.273438 122.726562 C 260.433594 122.726562 260.589844 122.726562 260.589844 122.726562 C 260.589844 122.726562 260.75 122.726562 260.75 122.726562 C 260.910156 122.726562 261.070312 122.886719 261.230469 123.046875 C 261.390625 123.207031 261.390625 123.367188 261.390625 123.527344 C 261.390625 123.683594 261.390625 124.003906 261.390625 124.164062 C 261.390625 124.480469 261.230469 124.640625 261.230469 124.960938 C 261.230469 124.960938 261.230469 124.960938 261.230469 125.121094 C 261.070312 125.4375 261.070312 125.757812 260.910156 126.078125 C 260.910156 126.078125 260.910156 126.078125 260.910156 126.238281 C 260.75 126.554688 260.589844 126.875 260.433594 127.191406 C 260.433594 127.191406 260.433594 127.191406 260.433594 127.351562 C 260.273438 127.671875 260.113281 128.148438 259.792969 128.46875 C 259.476562 128.949219 259.316406 129.425781 258.996094 129.902344 C 258.835938 130.222656 258.679688 130.382812 258.519531 130.703125 C 258.519531 130.859375 258.359375 130.859375 258.359375 131.019531 C 258.199219 131.339844 258.039062 131.660156 257.878906 131.976562 C 257.878906 131.976562 257.878906 132.136719 257.722656 132.136719 C 257.5625 132.457031 257.402344 132.773438 257.242188 133.09375 C 257.242188 133.09375 257.242188 133.253906 257.242188 133.253906 C 257.082031 133.570312 256.921875 133.890625 256.921875 134.210938 C 256.921875 134.210938 256.921875 134.371094 256.921875 134.371094 C 256.765625 134.6875 256.765625 135.007812 256.605469 135.167969 C 256.605469 135.484375 256.445312 135.644531 256.445312 135.964844 C 256.445312 136.125 256.445312 136.441406 256.605469 136.601562 C 256.765625 136.761719 256.765625 136.921875 256.921875 136.921875 C 257.082031 137.082031 257.402344 137.082031 257.5625 137.082031 C 257.722656 137.082031 257.878906 137.082031 258.199219 137.082031 C 258.675781 137.082031 259.15625 136.921875 259.476562 136.761719 C 259.632812 136.761719 259.632812 136.761719 259.792969 136.601562 C 260.113281 136.441406 260.433594 136.441406 260.589844 136.28125 C 260.589844 136.28125 260.75 136.28125 260.75 136.28125 C 261.070312 136.125 261.386719 136.125 261.546875 135.964844 C 261.546875 135.964844 261.707031 135.964844 261.707031 135.804688 C 261.867188 135.644531 262.027344 135.644531 262.1875 135.484375 C 262.1875 135.484375 262.34375 135.484375 262.34375 135.324219 C 262.503906 135.167969 262.664062 135.167969 262.824219 135.007812 C 262.984375 135.167969 263.144531 135.324219 263.300781 135.324219 C 263.300781 135.324219 264.101562 135.484375 264.257812 135.964844 C 264.417969 136.28125 264.417969 137.238281 262.984375 138.835938 C 260.910156 141.386719 258.519531 145.214844 256.605469 148.402344 C 255.488281 150.316406 254.371094 152.070312 253.734375 152.867188 C 252.140625 154.941406 243.847656 159.246094 239.542969 159.40625 C 238.265625 159.40625 236.191406 159.085938 233.800781 158.769531 C 228.058594 157.96875 220.722656 157.015625 216.738281 159.40625 C 211.792969 162.4375 205.414062 166.101562 206.851562 173.28125 C 207.808594 178.222656 209.878906 184.28125 211.476562 189.066406 C 211.953125 190.660156 212.433594 191.9375 212.910156 193.214844 C 213.230469 194.328125 213.546875 195.125 213.867188 195.925781 C 214.984375 198.953125 215.78125 200.867188 214.34375 206.449219 C 212.75 212.507812 209.722656 219.84375 207.011719 221.121094 C 206.53125 221.28125 206.054688 221.28125 205.574219 221.121094 C 205.253906 220.960938 204.9375 221.121094 204.777344 221.4375 C 204.617188 221.757812 204.777344 222.078125 205.097656 222.234375 C 205.574219 222.554688 206.054688 222.554688 206.53125 222.554688 C 206.851562 222.554688 207.328125 222.394531 207.648438 222.234375 C 211.792969 220.480469 214.984375 209.957031 215.78125 206.769531 C 217.375 200.867188 216.578125 198.636719 215.300781 195.445312 C 214.984375 194.648438 214.664062 193.691406 214.34375 192.734375 C 214.027344 191.457031 213.546875 190.183594 212.910156 188.589844 C 211.316406 183.804688 209.242188 177.902344 208.285156 172.960938 C 207.167969 167.058594 211.476562 164.03125 217.535156 160.363281 C 221.203125 158.128906 228.539062 159.085938 233.800781 159.882812 C 236.191406 160.203125 238.425781 160.523438 239.859375 160.523438 C 244.804688 160.363281 253.253906 155.898438 255.011719 153.503906 C 255.648438 152.546875 256.765625 150.953125 257.878906 148.882812 C 259.792969 145.851562 262.027344 141.863281 264.101562 139.472656 C 265.535156 137.71875 266.011719 136.28125 265.535156 135.324219 C 265.375 135.167969 265.375 134.847656 265.214844 134.6875 C 265.214844 134.6875 265.214844 134.6875 265.375 134.6875 C 265.375 134.6875 265.535156 134.6875 265.535156 134.847656 C 265.695312 135.007812 265.855469 135.167969 266.011719 135.324219 C 266.332031 135.644531 266.492188 136.125 266.492188 136.601562 C 266.011719 138.195312 265.855469 138.355469 265.855469 138.675781 Z M 265.855469 138.675781 " fill-opacity="1" fill-rule="nonzero"/></g><path fill="#a9a0f0" d="M 224.234375 152.546875 C 224.550781 152.546875 224.871094 152.230469 224.710938 151.75 C 224.710938 151.433594 224.390625 151.113281 223.914062 151.273438 C 223.433594 151.273438 213.707031 153.1875 207.328125 161.160156 C 203.34375 165.945312 202.703125 173.4375 202.226562 180.613281 C 201.90625 185.238281 201.429688 189.546875 200.3125 192.734375 C 200.152344 193.054688 200.3125 193.371094 200.632812 193.53125 C 200.632812 193.53125 200.789062 193.53125 200.789062 193.53125 C 201.109375 193.53125 201.269531 193.371094 201.429688 193.054688 C 202.703125 189.703125 203.023438 185.238281 203.5 180.613281 C 204.140625 173.597656 204.617188 166.421875 208.285156 161.796875 C 214.503906 154.304688 224.234375 152.546875 224.234375 152.546875 Z M 224.234375 152.546875 " fill-opacity="1" fill-rule="nonzero"/><path fill="#a9a0f0" d="M 213.230469 121.613281 C 213.230469 121.292969 212.910156 120.972656 212.589844 120.972656 C 212.273438 120.972656 211.953125 121.292969 211.953125 121.613281 C 213.070312 132.773438 207.167969 141.546875 202.542969 148.5625 C 200.949219 150.792969 199.515625 153.027344 198.398438 155.101562 C 196.167969 159.40625 192.976562 161.320312 189.308594 163.550781 C 186.121094 165.464844 182.453125 167.699219 179.101562 171.84375 C 172.722656 179.976562 159.808594 183.484375 158.371094 183.484375 C 158.054688 183.484375 157.734375 183.804688 157.734375 184.125 C 157.734375 184.441406 158.054688 184.761719 158.371094 184.761719 C 159.167969 184.761719 173.203125 181.414062 180.058594 172.640625 C 183.25 168.496094 186.597656 166.582031 189.789062 164.507812 C 193.457031 162.277344 196.804688 160.203125 199.355469 155.578125 C 200.472656 153.503906 201.90625 151.433594 203.34375 149.199219 C 208.285156 142.183594 214.34375 133.253906 213.230469 121.613281 Z M 213.230469 121.613281 " fill-opacity="1" fill-rule="nonzero"/></svg>