<svg xmlns="http://www.w3.org/2000/svg" xmlns:xlink="http://www.w3.org/1999/xlink" width="400" zoomAndPan="magnify" viewBox="0 0 300 299.999988" height="400" preserveAspectRatio="xMidYMid meet" version="1.0"><defs><clipPath id="f08d78c417"><path d="M 112 140 L 269.984375 140 L 269.984375 237.710938 L 112 237.710938 Z M 112 140 " clip-rule="nonzero"/></clipPath><clipPath id="17fd3ad690"><path d="M 30 62.25 L 168 62.25 L 168 194 L 30 194 Z M 30 62.25 " clip-rule="nonzero"/></clipPath></defs><g clip-path="url(#f08d78c417)"><path fill="#a9a0f0" d="M 267.242188 185.117188 C 266.835938 183.054688 266.160156 181.453125 265.554688 180.308594 C 265.390625 179.410156 265.207031 178.511719 264.953125 177.632812 C 264.671875 176.613281 264.296875 175.597656 263.480469 174.785156 L 263.417969 174.808594 C 263.320312 175.953125 263.554688 176.925781 263.773438 177.921875 C 263.972656 178.917969 264.113281 179.921875 264.199219 180.933594 C 264.351562 182.953125 264.285156 184.96875 264.125 186.976562 L 264.542969 187.023438 C 264.277344 190.75 263.289062 193.292969 260.371094 197.105469 C 260.453125 195.988281 260.402344 194.917969 260.386719 193.855469 C 260.347656 192.464844 260.265625 191.085938 260.148438 189.707031 C 260.042969 188.332031 259.863281 186.949219 259.238281 185.636719 L 259.167969 185.644531 C 258.832031 187.058594 258.886719 188.410156 258.933594 189.773438 C 258.96875 191.128906 258.960938 192.488281 258.917969 193.84375 C 258.898438 194.257812 258.878906 194.660156 258.863281 195.070312 C 258.429688 192.417969 257.949219 189.777344 257.402344 187.144531 L 256.160156 181.332031 C 255.738281 179.390625 255.273438 177.460938 254.378906 175.628906 L 254.316406 175.648438 C 254.257812 177.683594 254.601562 179.625 254.964844 181.566406 L 255.238281 183.171875 C 255.503906 188.898438 256.886719 196.757812 255.378906 202.726562 C 254.984375 204.761719 253.273438 208.21875 251.1875 209.953125 C 251.390625 207.078125 251.367188 204.183594 251.15625 201.3125 C 251.027344 199.433594 250.824219 197.558594 250.550781 195.695312 C 250.285156 193.835938 249.921875 191.972656 249.074219 190.238281 L 249.007812 190.25 C 248.898438 192.175781 249.140625 194.003906 249.34375 195.84375 C 249.53125 197.683594 249.648438 199.53125 249.691406 201.382812 C 249.730469 203.3125 249.691406 205.242188 249.601562 207.164062 C 248.898438 199.566406 247.964844 186.050781 243.992188 180.242188 C 244.140625 187.585938 246.277344 194.734375 246.753906 202.054688 C 246.988281 205.585938 246.941406 209.308594 245.894531 212.71875 C 245.683594 213.402344 243.394531 217.144531 241.820312 218.894531 C 242.191406 215.492188 242.300781 212.0625 242.183594 208.644531 C 242.109375 206.296875 241.929688 203.957031 241.65625 201.628906 C 241.394531 199.304688 241 196.976562 240.09375 194.777344 L 240.03125 194.789062 C 239.976562 197.164062 240.242188 199.445312 240.445312 201.746094 C 240.636719 204.050781 240.722656 206.359375 240.714844 208.664062 C 240.695312 211.636719 240.5 214.597656 240.199219 217.550781 C 240.429688 207.429688 239.257812 185.882812 232.617188 177.519531 C 233.132812 180.546875 238.421875 196.355469 236.921875 218.214844 C 236.859375 219.132812 236.953125 220.226562 236.765625 221.195312 C 233.992188 224.523438 232.335938 225.007812 231.222656 223.511719 C 231.597656 219.710938 231.550781 215.882812 231.167969 212.09375 C 230.972656 210.113281 230.695312 208.144531 230.335938 206.199219 C 229.988281 204.25 229.519531 202.304688 228.574219 200.515625 L 228.507812 200.527344 C 228.511719 202.550781 228.847656 204.460938 229.132812 206.390625 C 229.40625 208.320312 229.59375 210.261719 229.703125 212.203125 C 229.824219 214.519531 229.816406 216.835938 229.738281 219.15625 C 227.976562 209.917969 227.761719 190.089844 218.921875 174.277344 C 219.265625 175.863281 233.140625 223.785156 222.5625 228.289062 C 220.816406 229.03125 219.609375 230.367188 218.339844 229.59375 C 218.558594 227.527344 218.613281 225.449219 218.566406 223.378906 C 218.542969 222.273438 218.503906 221.167969 218.445312 220.066406 C 218.398438 218.964844 218.300781 217.855469 217.765625 216.785156 L 217.699219 216.789062 C 217.261719 217.910156 217.242188 218.988281 217.230469 220.082031 C 217.207031 221.171875 217.160156 222.257812 217.097656 223.34375 L 216.78125 227.484375 C 215.046875 223.0625 218.527344 216.34375 211.789062 193.535156 C 210.65625 189.75 209.566406 185.914062 207.488281 182.496094 C 208.28125 186.394531 209.582031 190.0625 210.402344 193.890625 C 214.355469 212.023438 214.242188 224.082031 211.847656 229.574219 C 210.21875 233.308594 207.609375 235.421875 205.203125 232.214844 C 201.515625 227.304688 207.175781 218.445312 199.085938 194.402344 C 198.011719 191.355469 197.035156 188.257812 195.210938 185.519531 C 195.78125 188.742188 196.914062 191.714844 197.683594 194.820312 C 203.570312 217.355469 199.113281 214.3125 200.875 231.714844 C 199.578125 233.613281 196.664062 235.25 194.058594 234.21875 C 187.1875 231.484375 193.875 218.683594 188.183594 202.742188 C 188.109375 202.414062 188.046875 202.078125 187.960938 201.75 C 187.1875 198.957031 185.617188 193.78125 183.453125 191.65625 C 183.613281 193.589844 184.394531 195.207031 184.851562 196.964844 C 189.789062 214.042969 186.234375 228.40625 187 233.390625 C 185.140625 235.457031 181.808594 236.554688 179.285156 235.003906 C 177.679688 234.019531 177.496094 232.691406 177.582031 230.925781 C 178.027344 221.867188 177.085938 213.960938 175.292969 207.429688 C 174.847656 205.390625 174.332031 203.359375 173.546875 201.425781 C 172.707031 199.476562 171.953125 197.460938 170.386719 195.902344 C 170.738281 198.0625 171.636719 199.898438 172.164062 201.90625 C 172.6875 203.734375 173.191406 205.566406 173.542969 207.433594 C 173.886719 213.296875 174.324219 219.777344 174.335938 230.886719 C 174.347656 231.175781 174.363281 231.480469 174.382812 231.789062 L 174.226562 231.535156 C 172.265625 232.988281 170.027344 233.996094 167.511719 234.382812 C 160.96875 233.507812 167.796875 231.1875 162.953125 212.621094 C 161.972656 208.742188 160.566406 204.96875 158.609375 201.488281 C 162.769531 220.359375 160.628906 229.488281 161.574219 233.257812 C 149.195312 237.359375 153.316406 230.039062 151.15625 216.503906 C 150.617188 213.085938 149.824219 209.691406 148.117188 206.625 C 147.660156 205.945312 148.910156 214.253906 149.191406 216.761719 C 150.113281 225.292969 148.253906 227.273438 148.980469 231.980469 C 139.195312 235.929688 139.722656 230.523438 139.195312 220.5 C 138.992188 215.1875 136.4375 211.015625 136.0625 211.109375 C 135.804688 211.175781 136.957031 213.488281 136.949219 219.425781 C 136.921875 223.992188 135.84375 228.507812 136.964844 231.800781 C 128.910156 234.503906 131.160156 230.710938 129.191406 224.5 C 127.859375 220.191406 125.230469 217.367188 125.355469 217.539062 C 124.984375 217.59375 126.601562 223.296875 126.703125 223.710938 C 127.679688 227.96875 126.832031 228.457031 127.261719 230.859375 C 127.007812 230.878906 126.726562 230.886719 126.449219 230.890625 C 126.542969 229.457031 126.394531 228.015625 126.085938 226.625 C 125.929688 225.890625 125.738281 225.164062 125.507812 224.453125 C 125.292969 223.738281 125.007812 223.03125 124.300781 222.511719 L 124.238281 222.535156 C 124.03125 223.382812 124.179688 224.058594 124.332031 224.75 C 124.46875 225.445312 124.570312 226.140625 124.636719 226.839844 C 124.742188 228.132812 124.738281 229.410156 124.726562 230.691406 C 124.246094 230.566406 123.796875 230.382812 123.480469 230.050781 C 123.375 229.878906 123.058594 229.054688 123.128906 229.226562 C 122.8125 228.449219 122.472656 227.632812 122.097656 226.832031 C 120.628906 223.605469 118.589844 220.515625 115.945312 218.066406 C 113.4375 215.925781 114.476562 212.242188 116.304688 209.496094 L 116.191406 210.035156 C 117.191406 210.292969 118.175781 210.726562 119.039062 211.398438 C 119.464844 211.738281 119.847656 212.140625 120.171875 212.589844 C 120.488281 213.054688 120.757812 213.5 121.378906 213.953125 L 121.445312 213.9375 C 121.761719 213.210938 121.53125 212.53125 121.210938 211.957031 C 120.902344 211.371094 120.511719 210.824219 120.050781 210.335938 C 119.589844 209.847656 119.0625 209.410156 118.476562 209.054688 C 118.039062 208.785156 117.542969 208.621094 117.042969 208.488281 C 117.308594 208.164062 117.574219 207.855469 117.847656 207.578125 C 119.011719 207.808594 118.957031 208.066406 119.621094 208.171875 C 121.453125 209.148438 121.96875 210.570312 122.140625 210.542969 C 122.730469 210.464844 120.933594 207.539062 120.753906 207.304688 C 119.933594 206.222656 118.835938 205.035156 118.578125 203.652344 C 118.28125 202.085938 119.609375 199.796875 121.261719 198.496094 C 122.027344 199.136719 122.859375 199.6875 123.703125 200.226562 L 125.035156 201.09375 C 125.472656 201.394531 125.925781 201.671875 126.640625 201.617188 L 126.679688 201.566406 C 126.566406 200.855469 126.183594 200.484375 125.785156 200.136719 L 124.605469 199.070312 C 124.0625 198.5625 123.5 198.074219 122.917969 197.609375 C 123.332031 197.496094 123.738281 197.460938 124.121094 197.546875 C 125.484375 197.851562 126.117188 199.039062 126.996094 199.980469 C 127.175781 200.175781 129.25 202.015625 129.257812 201.910156 C 129.417969 199.164062 125.269531 194.121094 124.382812 193.660156 C 130.4375 175.507812 139.261719 195.546875 140.882812 195.28125 C 141.570312 195.179688 137.785156 185.359375 131.839844 183.652344 C 133.539062 177.671875 137.941406 176.800781 138.433594 176.550781 C 142.875 175.683594 147.214844 182.664062 150.34375 185.828125 C 150.351562 185.839844 150.375 185.847656 150.394531 185.84375 C 150.425781 185.839844 150.441406 185.804688 150.4375 185.777344 C 149.410156 180.992188 144.976562 175.253906 140.285156 174.0625 C 147.292969 164.003906 150.324219 167.914062 158.738281 177.085938 C 158.679688 176.910156 156.152344 169.203125 149.058594 165.558594 C 150.480469 162.304688 153.710938 157.375 157.234375 157.835938 C 162.269531 158.242188 173.75 175.605469 172.980469 173.191406 C 171.324219 167.945312 164.339844 158.359375 159.714844 155.949219 C 161.523438 153.554688 165.347656 151.550781 168.339844 151.347656 C 172.816406 151.953125 179.476562 163.476562 184.246094 168.105469 C 184.289062 168.144531 184.355469 168.101562 184.339844 168.046875 C 183.328125 164.949219 181.648438 162.246094 179.894531 159.597656 C 177.753906 156.359375 175.402344 153.339844 172.980469 150.332031 C 176.105469 145.285156 184.570312 146.5 188.042969 150.300781 C 189.28125 151.648438 195.023438 163.386719 196.507812 163.179688 C 197.21875 163.082031 193.453125 152.253906 188.046875 146.742188 C 192.703125 140.523438 199.339844 143.214844 203.324219 148.363281 C 204.257812 149.566406 209.214844 159.5 210.652344 159.324219 C 211.304688 159.230469 208.402344 149.980469 201.957031 143.320312 C 216.636719 138.203125 219.628906 152.21875 225.816406 160.585938 C 225.851562 160.632812 225.921875 160.601562 225.914062 160.546875 C 225.417969 156.582031 222.878906 151.152344 220.738281 147.453125 C 223.320312 144.523438 227.625 146.070312 230.050781 148.609375 C 230.203125 148.773438 230.375 148.832031 230.546875 148.851562 C 230.71875 149.082031 230.890625 149.324219 231.054688 149.566406 C 231.132812 149.886719 231.296875 150.164062 231.546875 150.351562 C 233.964844 154.128906 238.3125 165.304688 238.34375 163.976562 C 238.460938 160.015625 236.160156 153.988281 234.492188 150.5625 C 234.609375 150.566406 234.714844 150.585938 234.832031 150.597656 C 235.734375 151.902344 236.617188 153.238281 237.367188 154.660156 C 237.761719 155.421875 238.117188 156.203125 238.429688 157.003906 C 238.734375 157.816406 239.019531 158.613281 239.679688 159.371094 L 239.746094 159.355469 C 240.035156 158.386719 239.847656 157.484375 239.585938 156.621094 C 239.339844 155.753906 239.042969 154.894531 238.703125 154.054688 C 238.277344 152.976562 237.761719 151.929688 237.152344 150.9375 C 243.785156 152.488281 246.074219 158.394531 248.238281 162.820312 C 249.214844 165.042969 249.515625 165.730469 250.65625 168.042969 C 251.4375 169.722656 251.328125 169.585938 251.421875 169.65625 C 251.347656 169.65625 251.347656 169.761719 251.421875 169.761719 C 252.871094 168.652344 249.371094 160.34375 249.328125 160.171875 C 249.351562 160.171875 249.375 160.175781 249.402344 160.179688 C 250.371094 161.066406 251.28125 162.03125 252.035156 163.140625 C 252.464844 163.785156 252.84375 164.472656 253.15625 165.191406 C 253.457031 165.921875 253.71875 166.636719 254.335938 167.351562 L 254.402344 167.34375 C 254.738281 166.441406 254.566406 165.574219 254.292969 164.769531 C 254.035156 163.957031 253.703125 163.164062 253.300781 162.398438 C 252.949219 161.734375 252.539062 161.097656 252.089844 160.488281 C 256.671875 161.441406 257.8125 164.390625 259.414062 167.132812 C 261.304688 170.636719 262.640625 171.703125 262.503906 171.53125 C 262.535156 171.53125 262.5625 171.511719 262.5625 171.476562 C 262.621094 169.535156 261.914062 167.855469 261.171875 166.246094 L 260.355469 164.351562 C 260.414062 164.375 260.460938 164.414062 260.519531 164.445312 C 261.050781 165.46875 261.640625 166.460938 262.171875 167.480469 C 262.441406 168.011719 262.691406 168.550781 262.914062 169.101562 C 263.125 169.660156 263.332031 170.195312 263.925781 170.699219 L 263.988281 170.6875 C 264.355469 169.984375 264.242188 169.335938 264.074219 168.730469 C 263.917969 168.117188 263.734375 167.511719 263.527344 166.917969 C 263.496094 166.820312 263.449219 166.726562 263.417969 166.632812 C 268.273438 171.828125 268.992188 182.058594 267.242188 185.117188 Z M 268.855469 172.347656 C 267.625 168.054688 264.644531 165.253906 262.132812 163.820312 C 262.070312 163.714844 262.023438 163.601562 261.960938 163.5 L 261.746094 163.621094 C 260.382812 162.90625 259.195312 162.601562 258.570312 162.707031 C 256.363281 159.03125 252.207031 157.746094 247.855469 157.988281 C 244.75 151.0625 238.605469 147.636719 232.421875 148.132812 C 228.824219 142.5625 224.503906 143.4375 218.921875 145.558594 C 214.632812 140.203125 202.917969 138.488281 199.847656 142.988281 C 195.003906 139.195312 189.390625 141.34375 185.699219 146.207031 C 181.484375 143.058594 175.234375 144.484375 171.128906 149.632812 C 165.199219 146.777344 157.269531 153.980469 157.050781 155.183594 C 150.578125 154.753906 146.792969 164.761719 146.910156 165.921875 C 143.046875 166.726562 139.300781 171.523438 137.265625 174.921875 C 132.871094 176.355469 130.253906 179.6875 129.335938 183.921875 C 129.320312 184.003906 127 184.628906 126.765625 184.796875 C 126.035156 185.324219 125.398438 185.976562 124.835938 186.6875 C 121.640625 190.699219 122.074219 193.21875 121.460938 194.238281 C 121.140625 194.773438 120.210938 195.277344 119.863281 195.878906 C 115.191406 203.925781 116.636719 206.269531 116.796875 206.164062 C 114.53125 207.699219 111.101562 213.199219 112.523438 217.304688 C 113.375 219.976562 116.628906 221.039062 119.566406 227.972656 L 120.539062 230.308594 C 120.613281 230.484375 121.027344 231.421875 120.949219 231.25 L 121.230469 231.714844 C 121.640625 232.308594 122.207031 232.730469 122.738281 232.972656 C 124.421875 233.769531 125.355469 233.328125 127.191406 233.074219 C 127.433594 233.101562 129.175781 236.382812 137.476562 233.644531 C 140.394531 236.25 145.457031 234.746094 149.195312 233.644531 C 152.269531 238.597656 161.976562 235.460938 162.65625 235.378906 C 165.863281 237.78125 171.878906 236.507812 175.222656 235.039062 C 177.214844 239.828125 185.675781 237.125 188.914062 235.074219 C 188.488281 235.34375 189.800781 237.527344 195.558594 237.289062 C 198.074219 237.183594 200.296875 236.507812 202.203125 234.929688 C 202.726562 235.515625 203.320312 235.53125 204.992188 235.789062 C 211.003906 236.722656 212.914062 234.542969 216.347656 231.644531 C 219.351562 232.847656 225.925781 231.679688 228.351562 227.070312 C 232.757812 227.171875 236.976562 226.230469 239.710938 222.796875 C 240.050781 222.777344 240.394531 222.703125 240.734375 222.605469 L 241.292969 222.699219 C 241.3125 222.605469 241.320312 222.503906 241.335938 222.410156 C 244.523438 221.15625 247.523438 217.132812 249.046875 213.777344 C 253.40625 213.71875 257.230469 207.609375 257.957031 203.371094 C 260.320312 202.226562 262.796875 197.386719 264.355469 195.285156 C 265.542969 193.523438 266.863281 190.945312 266.714844 187.355469 C 271.230469 186.105469 270.160156 176.910156 268.855469 172.347656 " fill-opacity="1" fill-rule="nonzero"/></g><g clip-path="url(#17fd3ad690)"><path fill="#a9a0f0" d="M 161.039062 83.34375 C 160.257812 83.871094 160.078125 87.417969 151.769531 93.878906 C 147.824219 96.945312 145.429688 99.46875 142.066406 100.3125 C 142.050781 100.304688 142.039062 100.292969 142.019531 100.285156 C 159.917969 89.277344 163.074219 69.015625 163.160156 68.804688 C 163.238281 68.585938 163.3125 68.480469 163.261719 68.210938 C 163.398438 67.542969 163.515625 66.886719 163.625 66.210938 C 164.4375 66.273438 165.359375 66.679688 166.085938 66.964844 C 165.464844 73.117188 163.726562 78.550781 161.039062 83.34375 Z M 161.117188 93.902344 C 160.933594 94.136719 160.699219 94.332031 160.394531 94.488281 C 160.058594 94.65625 157.492188 94.621094 157.28125 94.316406 C 158.253906 95.730469 159.691406 96.800781 161.308594 97.390625 C 161.363281 97.410156 160.957031 100.050781 160.882812 100.289062 C 160.53125 101.382812 159.710938 102.402344 158.5625 102.691406 C 157.914062 102.859375 153.628906 102.765625 153.316406 102.207031 C 154.574219 104.492188 157.429688 105.324219 160.003906 105.765625 C 160.808594 109.128906 159.972656 111.0625 158.511719 113.660156 C 154.917969 113.148438 150.546875 112.03125 147.792969 109.648438 C 149.46875 114.582031 156.429688 116.351562 156.609375 116.449219 C 156.679688 116.472656 156.75 116.496094 156.808594 116.5 C 157.941406 119.695312 157.945312 122.273438 156.152344 125.308594 C 154.207031 124.488281 149.429688 123.207031 141.761719 118.996094 C 143.832031 123.742188 149.320312 126.84375 154.433594 128.046875 C 155.230469 132.140625 154.523438 135.378906 150.46875 136.40625 C 143.21875 133.746094 138.082031 130.949219 133.304688 127.65625 C 136.617188 133.726562 143.988281 138 150.617188 139.980469 C 150.640625 140.097656 150.65625 140.203125 150.65625 140.316406 C 149.292969 143.757812 147.511719 146.878906 143.898438 147.820312 C 132.929688 145.964844 135.199219 144.265625 124.613281 139.242188 C 129.902344 145.269531 134.863281 150.136719 142.144531 150.914062 C 139.589844 155.3125 136.269531 158.191406 130.789062 158.0625 C 125.175781 155.640625 120.386719 154.125 112.773438 147.59375 C 115.90625 153.171875 122.242188 158.859375 131.984375 162.019531 C 131.722656 162.257812 128.429688 167.941406 121.707031 167.550781 C 115.269531 165.402344 109.476562 159.863281 104.253906 156.132812 C 113.746094 171.140625 120.996094 170.777344 121.539062 171 C 119.566406 173.617188 114.660156 174.367188 111.441406 174.425781 C 104.316406 171.894531 100.539062 168.25 95.503906 165.214844 C 97.199219 167.933594 99.394531 170.652344 101.835938 172.742188 C 101.84375 172.757812 101.875 172.777344 101.882812 172.792969 C 104.078125 174.835938 107.273438 177.152344 110.210938 177.726562 C 106.957031 179.292969 102.238281 180.015625 99.851562 179.835938 C 94.367188 177.6875 90.320312 175.253906 86.480469 172.113281 C 88.269531 176.390625 92.164062 179.640625 96.210938 181.832031 C 96.175781 181.855469 96.148438 181.886719 96.117188 181.910156 C 87.953125 184.238281 84.714844 181.320312 78.085938 177.832031 C 79.460938 179.863281 81.191406 181.605469 83.109375 183.136719 C 82.699219 183.535156 82.257812 183.878906 81.792969 184.175781 C 73.421875 186.613281 73.148438 183.625 68.691406 179.550781 C 68.488281 179.371094 68.1875 179.636719 68.363281 179.867188 C 69.394531 181.183594 70.285156 182.691406 71.34375 183.996094 C 71.316406 184.03125 71.289062 184.0625 71.269531 184.097656 C 61.996094 188.945312 58.796875 183.09375 58.382812 185.6875 C 57.621094 186.609375 56.816406 187.535156 55.882812 188.289062 C 52.992188 189.835938 49.628906 190.058594 47.644531 189.394531 C 48.589844 188.214844 50.976562 185.003906 53.214844 181.6875 C 54.789062 182.050781 56.8125 182.714844 58.066406 183.824219 C 58.269531 184.003906 58.597656 183.722656 58.402344 183.523438 C 56.816406 181.820312 56.1875 181.042969 54.246094 180.164062 C 54.960938 179.066406 55.640625 177.945312 56.296875 176.808594 C 57.75 177.664062 59.089844 178.707031 60.265625 179.914062 C 59.742188 178.074219 58.632812 176.429688 57.171875 175.199219 C 57.546875 174.511719 57.933594 173.832031 58.289062 173.128906 C 59.328125 173.492188 63.507812 174.371094 67.660156 178.398438 C 67.855469 178.601562 68.132812 178.328125 67.984375 178.105469 C 67.363281 177.210938 65.773438 174.714844 59.652344 170.214844 C 60.53125 168.238281 61.332031 166.230469 62.027344 164.175781 C 69.09375 166.242188 72.679688 171.5 76.914062 175.609375 C 77.03125 175.734375 77.242188 175.554688 77.113281 175.414062 C 72.84375 170.730469 69.5 164.285156 62.914062 161.496094 C 63.773438 158.746094 64.664062 156.09375 66.550781 153.921875 C 67.390625 153.90625 67.621094 154.316406 68.09375 154.191406 C 73.089844 157.011719 77.292969 160.257812 79.949219 162.738281 C 81.90625 164.519531 75.535156 155.746094 68.035156 152.019531 C 68.003906 151.828125 67.910156 151.648438 67.765625 151.511719 C 70.15625 146.226562 71.640625 145.476562 75.292969 143.757812 C 82.796875 150.019531 85.066406 153.117188 88.679688 157.75 C 88.789062 157.898438 89.054688 157.714844 88.957031 157.554688 C 87.167969 154.628906 80.738281 143.96875 77.78125 142.144531 C 79.746094 138.964844 79.222656 136.96875 86.644531 134.910156 C 89.804688 137.722656 96.589844 146.113281 97.878906 149.488281 C 97.976562 149.757812 98.441406 149.601562 98.375 149.3125 C 96.785156 143.265625 93.117188 138.75 89.363281 133.894531 C 90.730469 129.3125 93.796875 126.585938 97.835938 126.382812 C 97.949219 126.609375 98.109375 126.660156 98.308594 126.679688 C 100.421875 128.125 107.824219 140.085938 107.898438 140.234375 C 108.058594 140.566406 106.796875 137.214844 106.660156 136.871094 C 104.925781 132.492188 102.363281 125.859375 102.28125 125.683594 C 102.539062 125.292969 102.324219 125.453125 102.730469 124.050781 C 104.46875 121.09375 106.5 118.703125 110.1875 118.765625 C 113.878906 124.761719 115.878906 129.046875 120.871094 132.875 C 121.179688 133.113281 119.199219 130.222656 119.011719 129.960938 C 115.351562 124.917969 116.257812 126.046875 113.125 116.730469 C 113.203125 116.566406 113.269531 116.417969 113.355469 116.246094 C 113.9375 115.125 114.820312 114.195312 115.78125 113.375 C 117.679688 111.726562 118.585938 111.144531 120.878906 111.644531 C 125.050781 118.382812 127.597656 120.191406 129.921875 122.417969 C 130.179688 122.664062 129.414062 121.125 129.203125 120.855469 C 126.597656 117.636719 125.335938 115.070312 124.074219 111.09375 C 124.378906 110.65625 124.644531 110.214844 124.902344 109.777344 C 127.179688 107.953125 128.890625 105.179688 132.113281 106.066406 C 132.992188 109.046875 135.574219 112.128906 137.609375 114.164062 C 137.894531 114.433594 137.335938 112.863281 137.105469 112.546875 C 134.148438 108.648438 134.378906 105.714844 134.246094 105.066406 C 135.574219 101.78125 140.492188 102.980469 143.171875 102.027344 C 144.117188 101.695312 145.019531 101.199219 145.894531 100.625 C 152.503906 97.753906 158.015625 92.65625 161.8125 86.457031 C 160.648438 88.359375 162.503906 92.128906 161.117188 93.902344 Z M 37.777344 180.070312 C 37.726562 180.089844 37.6875 180.132812 37.640625 180.164062 C 37.601562 180.117188 37.558594 180.066406 37.515625 180.027344 Z M 41.96875 190.785156 C 39.546875 190.617188 37.332031 190 35.421875 188.671875 C 32.855469 182.476562 32.898438 176.6875 35.730469 168.078125 C 36.265625 166.335938 36.730469 164.628906 36.953125 163 C 37.441406 159.273438 36.144531 158.859375 36.152344 157.121094 C 36.171875 155.441406 37.296875 153.242188 37.953125 151.449219 C 39.464844 151.636719 38.113281 144.085938 38.003906 142.589844 C 37.84375 140.367188 38.363281 138.527344 39.558594 136.652344 C 40.316406 135.464844 41.320312 134.570312 41.910156 133.324219 C 42.308594 133.203125 42.617188 132.820312 42.488281 132.355469 C 43.679688 131.839844 39.707031 129.011719 43.113281 122.863281 C 44.558594 120.21875 48.175781 117.277344 48.226562 116.355469 C 48.699219 115.613281 47.671875 112.152344 48.707031 109.4375 C 49.59375 107.097656 51.71875 106.070312 53.441406 104.453125 C 53.53125 104.371094 53.550781 104.265625 53.574219 104.160156 C 54.503906 104.539062 55.359375 100.0625 57.9375 97.433594 C 59.410156 95.921875 61.460938 95.3125 63.160156 94.136719 C 64.898438 92.925781 65.828125 91.007812 67.230469 89.449219 C 69.3125 87.132812 72.300781 86.285156 75.035156 85.023438 C 77.027344 84.105469 78.820312 82.816406 80.582031 81.523438 C 82.347656 80.230469 84.394531 79.535156 86.519531 79.109375 C 88.0625 78.800781 89.695312 78.820312 91.171875 78.230469 C 92.582031 77.664062 93.917969 76.800781 95.300781 76.148438 C 97.222656 75.25 99.277344 74.386719 101.425781 74.289062 C 103.53125 74.195312 105.78125 74.355469 107.792969 73.570312 C 109.972656 72.726562 111.625 71.117188 113.976562 70.539062 C 116.332031 69.957031 118.707031 70.582031 121.082031 70.484375 C 123.871094 70.367188 126.207031 68.875 128.910156 68.40625 C 132.25 67.855469 135.667969 67.707031 139.023438 67.1875 C 141.304688 66.828125 143.582031 66.382812 145.894531 66.316406 C 149.3125 66.214844 152.359375 65.371094 155.632812 64.476562 C 155.464844 64.890625 155.230469 65.265625 154.996094 65.652344 L 152.667969 66.234375 C 149.683594 66.980469 146.566406 67.226562 143.578125 67.808594 C 141.148438 68.28125 138.847656 69.25 136.367188 69.652344 C 133.894531 70.054688 131.398438 70.292969 128.9375 70.738281 C 123.886719 71.664062 118.835938 72.585938 113.816406 73.664062 C 103.917969 75.789062 94.539062 78.800781 85.277344 82.871094 C 85.207031 82.902344 85.132812 82.9375 85.0625 82.96875 C 54.3125 96.367188 52.753906 111.894531 46.492188 128.230469 C 43.675781 135.570312 42.589844 143.789062 41.085938 151.5 C 39.910156 157.535156 38.777344 163.578125 37.671875 169.632812 C 36.878906 173.972656 34.722656 179.484375 37.585938 183.390625 C 39.414062 185.890625 42.945312 186.648438 44.882812 183.972656 C 47.121094 180.875 48.851562 177.308594 50.621094 173.933594 C 53.742188 167.980469 56.65625 161.382812 61.558594 156.632812 C 58.792969 161.566406 57.375 167.257812 54.894531 172.402344 C 52.53125 177.304688 46.570312 187.910156 41.96875 190.785156 Z M 43.613281 156.417969 C 44.109375 153.960938 44.632812 151.421875 45.179688 148.847656 C 48.664062 150.269531 51.230469 151.855469 53.996094 153.757812 C 51.585938 150.808594 48.863281 147.960938 45.75 146.199219 C 46.425781 143.078125 47.136719 139.9375 47.867188 136.867188 C 51.148438 138.113281 53.730469 139.335938 58.953125 142.542969 C 57.703125 141.148438 52.507812 136.285156 48.515625 134.191406 C 49.332031 130.871094 50.199219 127.488281 51.175781 124.226562 C 56.675781 126.566406 60.488281 128.953125 65.5625 132.78125 C 63.007812 129.558594 58.195312 124.222656 52.152344 121.136719 C 53.550781 116.988281 55.933594 112.457031 58.128906 108.925781 C 64.34375 111.886719 69.582031 116.039062 74.308594 122.746094 C 72.359375 118.203125 67.742188 110.011719 60.234375 105.757812 C 63.847656 100.636719 66.417969 98.195312 69.984375 95.472656 C 76.921875 99.871094 83.65625 107.875 88.035156 114.347656 C 86.230469 109.613281 78.40625 97.496094 73.074219 93.242188 C 76.203125 91.140625 79.796875 89.121094 83.910156 87.1875 C 89.554688 91.914062 95.015625 98.449219 98.632812 104.335938 C 96.640625 99.570312 92.484375 90.183594 87.574219 85.554688 C 91.632812 83.832031 96.15625 82.179688 101.21875 80.601562 C 105.519531 85.640625 108.109375 90.214844 110.785156 95.195312 C 109.910156 90.675781 108.824219 84.96875 104.75 79.539062 C 112.371094 77.328125 113.914062 77.15625 114.089844 77.113281 C 118.101562 81.667969 120.371094 86.585938 121.890625 92.105469 C 121.992188 87.398438 121.234375 81.492188 117.769531 76.398438 L 128.257812 74.371094 C 130.785156 79.296875 130.769531 79.679688 131.910156 85.035156 C 132.316406 80.953125 131.527344 79.289062 131.582031 73.726562 L 140.210938 72.058594 C 141.59375 75.605469 140.585938 73.292969 141.953125 77.175781 C 142.695312 73.523438 142.425781 73.894531 142.457031 71.648438 L 153.390625 69.507812 L 155.179688 69.0625 L 160.597656 70.566406 C 160.597656 70.566406 160.839844 69.675781 160.867188 69.679688 C 158.972656 77.011719 150.625 90.75 138.542969 100.195312 C 136.449219 100.636719 133.964844 101.703125 132.664062 103.261719 C 129.257812 102.765625 124.230469 104.089844 122.21875 108.035156 C 118.21875 108.167969 114.6875 109.746094 109.988281 114.804688 C 109.882812 114.917969 109.753906 115.003906 109.632812 115.097656 C 104.90625 115.007812 101.324219 118.292969 99.886719 122.695312 C 99.449219 122.914062 99.128906 123.019531 98.96875 123.078125 C 93.203125 123.4375 88.777344 126.699219 86.414062 131.964844 C 81.90625 132.355469 78.199219 135.722656 76.140625 139.617188 C 75.550781 140.226562 74.929688 140.796875 74.242188 141.3125 C 65.042969 145.238281 65.152344 150.789062 62.457031 153.535156 C 60.78125 154.996094 59.207031 156.410156 57.796875 158.113281 C 51.109375 165.488281 46.347656 174.40625 41.796875 183.304688 C 41.425781 183.347656 41.023438 183.304688 40.585938 183.140625 C 37.820312 182.117188 39.839844 176.410156 40.207031 174.367188 C 40.480469 172.835938 43.242188 158.75 43.15625 158.726562 C 46.113281 159.503906 48.546875 160.5 51.164062 161.707031 C 48.824219 159.675781 46.292969 157.726562 43.613281 156.417969 Z M 157.375 63.253906 C 158.261719 64.183594 161.460938 65.203125 161.785156 65.277344 C 161.679688 65.964844 161.519531 66.628906 161.378906 67.304688 L 156.238281 65.878906 C 156.652344 65.234375 157.277344 64.003906 157.375 63.253906 Z M 167.402344 66.488281 C 167.5 66.160156 164.96875 64.746094 163.773438 64.75 C 163.683594 64.492188 163.507812 64.335938 163.277344 64.25 C 162.921875 63.761719 162.078125 63.867188 160.578125 63.429688 C 159.3125 63.085938 158.648438 62.578125 157.300781 62.582031 L 157.269531 62.519531 C 156.9375 62.539062 156.632812 62.597656 156.300781 62.652344 C 155.179688 62.730469 154.101562 63.230469 153.023438 63.550781 C 152.230469 63.78125 151.394531 63.957031 150.59375 64.207031 C 142.882812 62.328125 135.867188 65.425781 135.023438 66.355469 C 130.863281 65.058594 126.460938 65.808594 122.867188 68.367188 C 115.859375 65.757812 108.035156 68.675781 105.179688 72.8125 C 99.847656 71.472656 94.144531 72.796875 89.949219 76.871094 C 83.574219 76.109375 79.023438 78.28125 76.046875 82.476562 C 70.035156 83.050781 65.023438 86.507812 62.367188 91.957031 C 54.414062 94.117188 54.585938 99.746094 51.53125 103.320312 C 49.238281 104.390625 47.207031 106.046875 46.160156 108.433594 C 44.691406 111.792969 46.339844 114.714844 43.664062 117.855469 C 41.707031 120.148438 39.984375 121.324219 39.40625 124.46875 C 38.90625 127.199219 39.472656 129.8125 40.617188 132.257812 C 37.523438 133.875 35.910156 136.863281 35.496094 140.246094 C 35.277344 141.996094 35.476562 143.683594 35.542969 145.421875 C 35.605469 146.953125 36.433594 148.804688 36.199219 150.304688 C 36.082031 151.0625 35.617188 151.714844 35.222656 152.367188 C 33.835938 154.65625 33.148438 157.363281 33.273438 160.035156 C 33.398438 162.851562 34.332031 165.589844 33.816406 168.421875 C 33.296875 171.269531 31.613281 173.824219 31.09375 176.71875 C 30 182.785156 31.226562 189.011719 36.867188 192.339844 C 38.121094 193.082031 39.425781 193.492188 40.867188 193.640625 C 42.945312 193.851562 43.214844 193.40625 44.820312 192.230469 C 50.320312 193.347656 56.039062 191.464844 59.886719 187.445312 C 63.707031 189.941406 68.703125 188.402344 72.542969 185.902344 C 76.6875 188.230469 80.742188 187.476562 84.585938 184.804688 C 89.203125 186.664062 94.386719 185.828125 98.097656 182.429688 C 104.226562 183.078125 111.410156 180.242188 114.050781 177.746094 C 116.292969 177.363281 118.570312 176.308594 120.449219 174.960938 C 122.523438 174.027344 124.621094 172.621094 125.730469 170.621094 C 131.25 169.101562 135.324219 163.738281 135.695312 160.585938 C 140.765625 158.800781 146.960938 152.234375 146.207031 149.039062 C 146.9375 148.675781 148.128906 147.828125 149.027344 146.777344 C 152.019531 144.484375 152.253906 141.789062 152.6875 140.476562 C 152.984375 139.652344 153.128906 138.8125 152.972656 138.101562 C 155.738281 135.558594 157.796875 131.238281 156.113281 127.878906 C 156.3125 127.722656 156.417969 127.480469 156.417969 127.21875 C 159.234375 124.992188 160.609375 119.238281 158.769531 115.929688 C 161.53125 112.882812 163.8125 106.875 161.070312 103.746094 C 161.832031 101.996094 163.359375 98.28125 162.867188 96.429688 C 163.570312 96.328125 162.910156 94.628906 162.984375 90.722656 C 163.039062 88.253906 162.855469 85.441406 163.570312 83.050781 C 164.242188 80.816406 165.496094 78.71875 166.167969 76.402344 C 166.667969 74.667969 168.976562 68.152344 167.402344 66.488281 " fill-opacity="1" fill-rule="nonzero"/></g></svg>