<svg xmlns="http://www.w3.org/2000/svg" xmlns:xlink="http://www.w3.org/1999/xlink" width="400" zoomAndPan="magnify" viewBox="0 0 300 299.999988" height="400" preserveAspectRatio="xMidYMid meet" version="1.0"><path fill="currentColor" d="M 100.601562 259.175781 C 95.824219 257.292969 92.847656 255.8125 89.679688 253.753906 C 82.953125 249.375 78.398438 242.035156 75.335938 230.648438 C 73.429688 223.550781 72.523438 218.0625 70.773438 203.035156 C 70.292969 198.917969 69.140625 190.375 68.214844 184.050781 C 67.289062 177.726562 66.058594 168.960938 65.484375 164.574219 C 63.996094 153.152344 63.390625 149.605469 59.777344 131.25 C 55.863281 111.339844 55.796875 110.300781 58.324219 109.023438 C 59.140625 108.613281 60.226562 108.425781 61.28125 108.523438 L 62.945312 108.675781 L 62.039062 107.824219 C 60.722656 106.59375 59.835938 103.472656 59.988281 100.636719 C 60.25 95.851562 63.015625 87.5625 66.585938 80.835938 C 77.707031 59.902344 93.25 45.769531 113.660156 38.027344 C 115.453125 37.347656 117.125 36.464844 117.46875 36.011719 C 119.078125 33.90625 129.324219 31.117188 137.914062 30.441406 C 142.96875 30.046875 146.75 30.09375 158.996094 30.699219 C 170.121094 31.253906 171.449219 31.449219 173.324219 32.804688 C 174.253906 33.480469 175.019531 34.421875 175.441406 35.417969 C 175.828125 36.328125 176.390625 37.050781 176.796875 37.15625 C 192.125 41.1875 211.292969 51.683594 218.84375 60.175781 C 221.789062 63.496094 224.601562 68.003906 227.285156 73.714844 C 231.171875 81.992188 233.140625 88.519531 234.164062 96.496094 C 234.425781 98.5625 234.703125 100.65625 234.78125 101.152344 C 234.863281 101.710938 235.566406 102.589844 236.644531 103.476562 C 243.414062 109.066406 244.1875 117.246094 238.554688 123.664062 C 237.152344 125.261719 237.09375 125.40625 237.359375 126.519531 C 237.789062 128.316406 237.457031 131.378906 235.886719 140.125 C 234.601562 147.257812 234.152344 149.0625 231.839844 156.320312 C 228.550781 166.660156 226.632812 175.710938 224.144531 192.621094 C 220.980469 214.125 217.984375 230.429688 216.253906 235.5625 C 214.050781 242.101562 211.109375 247.191406 206.296875 252.78125 C 198.769531 261.53125 189.90625 265.839844 175.71875 267.648438 C 157.5 269.972656 116.136719 265.304688 100.601562 259.175781 Z M 127.03125 257.925781 C 149.226562 261.28125 167.402344 261.917969 178.824219 259.746094 C 188.933594 257.824219 194.53125 254.808594 200.402344 248.117188 C 204.996094 242.886719 208.285156 236.511719 209.890625 229.730469 C 211.296875 223.796875 214.414062 206.253906 216.058594 195.050781 C 216.871094 189.519531 217.894531 182.738281 218.332031 179.980469 C 219.476562 172.796875 222.683594 159.550781 225.003906 152.425781 C 226.894531 146.601562 228.914062 137.332031 229.402344 132.214844 L 229.539062 130.765625 L 226.757812 132.132812 C 211.855469 139.441406 188.136719 144.316406 165.390625 144.738281 C 143.285156 145.152344 125.636719 143.007812 112.425781 138.308594 C 102.515625 134.78125 88.238281 127.757812 72.433594 118.625 C 68.886719 116.578125 67.871094 116.125 66.519531 116.003906 C 65.621094 115.917969 64.855469 115.988281 64.816406 116.148438 C 64.71875 116.566406 65.816406 122.640625 67.894531 133.164062 C 70.355469 145.621094 71.21875 150.648438 72.5 159.917969 C 73.109375 164.351562 74.4375 173.640625 75.445312 180.554688 C 76.453125 187.46875 77.777344 197.300781 78.386719 202.40625 C 80.191406 217.535156 80.390625 218.90625 81.648438 224.792969 C 83.804688 234.910156 87.453125 242.617188 91.816406 246.273438 C 94.667969 248.664062 100.976562 251.800781 107.179688 253.914062 C 109.554688 254.726562 120.539062 256.945312 127.03125 257.925781 Z M 171.09375 252.191406 C 169.867188 251.367188 169.324219 250.429688 169.371094 249.203125 C 169.425781 247.667969 169.964844 246.910156 171.882812 245.691406 C 172.78125 245.121094 174.949219 243.277344 176.707031 241.59375 C 180.558594 237.898438 181.332031 237.382812 182.910156 237.472656 C 185.53125 237.625 187.132812 239.9375 186.214844 242.246094 C 185.769531 243.371094 179.855469 249.265625 177.171875 251.265625 C 175.976562 252.152344 173.039062 253.070312 172.199219 252.816406 Z M 192.585938 221.597656 C 191.175781 219.929688 191.25 219.101562 193.5 211.617188 C 198.714844 194.234375 201.53125 179.128906 202.347656 164.164062 C 202.550781 160.433594 203.285156 159.199219 205.488281 158.882812 C 208.644531 158.425781 210.128906 160.339844 209.964844 164.652344 C 209.777344 169.429688 208.605469 180.425781 207.628906 186.488281 C 206.613281 192.820312 203.132812 206.640625 200.21875 215.933594 C 198.4375 221.601562 198.363281 221.761719 197.222656 222.421875 C 195.78125 223.253906 193.707031 222.894531 192.585938 221.597656 Z M 131.085938 135.59375 C 142.46875 137.328125 157.917969 137.972656 171.296875 137.265625 C 192.546875 136.148438 215.796875 130.464844 226.902344 123.671875 C 229.359375 122.167969 232.28125 119.703125 233.28125 118.289062 L 233.832031 117.511719 L 232.492188 117.917969 C 230.179688 118.621094 226.949219 117.324219 226.097656 115.355469 C 225.601562 114.207031 226.050781 112.300781 227.007812 111.496094 C 227.65625 110.949219 227.753906 110.617188 227.773438 108.796875 C 227.785156 107.65625 227.632812 106.480469 227.4375 106.1875 C 227.019531 105.550781 224.226562 104.355469 219.089844 102.601562 C 214.589844 101.0625 201.953125 98.363281 194.070312 97.25 C 170.460938 93.917969 141.378906 93.683594 113.425781 96.59375 C 98.640625 98.136719 90.085938 99.714844 78.59375 103.023438 C 71.425781 105.082031 69.132812 106.027344 68.578125 107.140625 C 68.324219 107.652344 67.933594 108.207031 67.714844 108.367188 C 67.425781 108.578125 68.074219 108.886719 69.984375 109.464844 C 72.023438 110.078125 74.175781 111.160156 79.148438 114.078125 C 86.203125 118.214844 91.3125 120.910156 100.121094 125.152344 C 113.242188 131.472656 120.832031 134.03125 131.085938 135.59375 Z M 71.972656 97.410156 C 85.015625 93.152344 99.308594 90.488281 117.828125 88.859375 C 146.632812 86.328125 174.398438 86.925781 198.222656 90.582031 C 203.53125 91.398438 207.378906 92.21875 214.691406 94.097656 C 219.941406 95.449219 224.746094 96.777344 225.367188 97.050781 C 226.476562 97.542969 226.496094 97.535156 226.472656 96.546875 C 226.429688 94.746094 225.136719 88.738281 224.128906 85.675781 C 222.914062 81.980469 219.585938 74.605469 217.457031 70.898438 C 213.175781 63.441406 206.296875 57.816406 193.664062 51.449219 C 188.335938 48.765625 183.964844 46.949219 179.550781 45.582031 L 176.433594 44.617188 L 175.78125 46.527344 C 174.492188 50.304688 171.96875 52.015625 167.183594 52.34375 C 161.148438 52.753906 141.640625 51.824219 130.914062 50.609375 C 121.769531 49.578125 118.53125 48.382812 117.570312 45.679688 L 117.167969 44.542969 L 113.957031 45.84375 C 106.664062 48.804688 98.691406 53.785156 92.578125 59.207031 C 82.230469 68.390625 72.753906 82.734375 68.839844 95.152344 C 68.265625 96.972656 67.917969 98.492188 68.070312 98.527344 C 68.222656 98.5625 69.976562 98.058594 71.972656 97.410156 Z M 132.417969 43.46875 C 141.390625 44.5625 164.558594 45.632812 167.058594 45.070312 C 168.074219 44.84375 168.664062 44.300781 168.875 43.414062 C 169.019531 42.796875 166.558594 42.21875 159.425781 41.203125 C 150.144531 39.875 143.121094 39.59375 135.9375 40.265625 C 132.109375 40.621094 124.671875 41.980469 124.585938 42.339844 C 124.550781 42.503906 124.894531 42.554688 132.417969 43.46875 Z M 132.417969 43.46875 " fill-opacity="1" fill-rule="evenodd"/></svg>