<svg xmlns="http://www.w3.org/2000/svg" xmlns:xlink="http://www.w3.org/1999/xlink" width="400" zoomAndPan="magnify" viewBox="0 0 300 299.999988" height="400" preserveAspectRatio="xMidYMid meet" version="1.0"><defs><clipPath id="86ac180ebe"><path d="M 84.609375 30 L 215.101562 30 L 215.101562 269.996094 L 84.609375 269.996094 Z M 84.609375 30 " clip-rule="nonzero"/></clipPath></defs><path fill="currentColor" d="M 109.816406 74.65625 C 110.554688 61.328125 110.203125 42.441406 109.816406 34.632812 C 109.085938 47.960938 109.082031 61.328125 109.816406 74.65625 " fill-opacity="1" fill-rule="nonzero"/><path fill="currentColor" d="M 143.726562 231.875 C 139.667969 229.351562 134.863281 228.15625 130.125 227.875 C 118.308594 226.886719 106.289062 228.6875 95.210938 232.839844 C 104.28125 230.363281 113.613281 228.742188 123.015625 228.671875 C 134.589844 228.671875 139.714844 229.386719 149.570312 235.898438 C 147.703125 234.457031 145.761719 233.105469 143.726562 231.875 " fill-opacity="1" fill-rule="nonzero"/><path fill="currentColor" d="M 131.402344 226.75 C 134.429688 227.164062 137.464844 227.945312 140.351562 228.976562 C 141.8125 229.484375 143.226562 230.125 144.613281 230.820312 C 143.316406 229.964844 141.925781 229.25 140.496094 228.613281 C 136.171875 226.78125 131.515625 225.632812 126.804688 225.695312 C 120.5625 225.71875 114.359375 226.53125 108.273438 227.855469 C 115.9375 227.035156 123.703125 226.023438 131.402344 226.75 " fill-opacity="1" fill-rule="nonzero"/><path fill="currentColor" d="M 87.605469 241.015625 C 91.453125 246.539062 96.734375 251.144531 102.734375 254.195312 C 97.3125 250.183594 92.320312 245.839844 87.605469 241.015625 " fill-opacity="1" fill-rule="nonzero"/><path fill="currentColor" d="M 109.761719 217.539062 C 111.378906 217.5625 112.851562 217.460938 114.449219 217.214844 C 112.917969 216.71875 111.210938 216.839844 109.761719 217.539062 " fill-opacity="1" fill-rule="nonzero"/><path fill="currentColor" d="M 137.503906 108.140625 C 137.476562 108.148438 137.929688 110.613281 138.308594 111.96875 C 144.421875 134.0625 172.84375 229.089844 173.511719 228.882812 C 174.253906 228.648438 137.820312 108.046875 137.503906 108.140625 " fill-opacity="1" fill-rule="nonzero"/><path fill="currentColor" d="M 134.183594 102.683594 C 131.058594 89.703125 125.570312 71.890625 122.671875 64.351562 C 124.5 73.847656 129.644531 90.128906 134.183594 102.683594 " fill-opacity="1" fill-rule="nonzero"/><g clip-path="url(#86ac180ebe)"><path fill="currentColor" d="M 207.191406 248.898438 C 208.007812 248.78125 208.8125 248.664062 209.605469 248.550781 C 209.808594 250.316406 211.863281 255.121094 214.605469 258.195312 C 214.476562 258.289062 214.335938 258.386719 214.199219 258.484375 C 211.066406 254.917969 210.25 251.6875 209.570312 250.390625 C 209.925781 253.234375 211.824219 256.550781 213.757812 258.773438 C 213.214844 259.113281 212.609375 259.449219 211.964844 259.777344 C 209.722656 256.492188 208.101562 252.804688 207.191406 248.898438 Z M 210.011719 260.679688 C 209.859375 260.742188 209.703125 260.808594 209.546875 260.871094 C 208.632812 259.402344 208.046875 258.070312 207.621094 256.960938 C 206.40625 253.726562 206.304688 251.519531 205.980469 250.324219 C 205.78125 252.992188 206.691406 257.21875 209.0625 261.070312 C 208.804688 261.171875 208.546875 261.273438 208.28125 261.367188 C 205.78125 257.453125 204.777344 252.816406 204.351562 250.515625 C 204.339844 250.433594 204.332031 250.371094 204.320312 250.3125 C 205.140625 250.167969 205.773438 250.054688 206.234375 249.972656 C 206.503906 249.921875 206.710938 249.878906 206.875 249.847656 C 207 250.324219 207.128906 250.800781 207.277344 251.265625 C 207.351562 251.589844 207.152344 254.121094 210.011719 260.679688 Z M 206.277344 262.070312 C 206.078125 262.144531 205.707031 262.273438 204.824219 262.535156 C 202.203125 258.691406 201.15625 253.464844 200.78125 250.929688 C 201.328125 250.835938 201.835938 250.75 202.300781 250.671875 C 202.847656 250.574219 203.339844 250.488281 203.785156 250.40625 C 203.871094 250.871094 203.984375 251.445312 204.128906 252.09375 C 204.386719 255.296875 205.113281 259.074219 206.277344 262.070312 Z M 203.042969 263.058594 C 200.363281 258.042969 200.015625 254.25 199.425781 252.582031 C 199.382812 255.75 200.960938 260.222656 202.53125 263.203125 C 202.039062 263.339844 201.535156 263.472656 201.027344 263.601562 C 197.941406 259.769531 196.921875 254.324219 196.589844 251.644531 C 197.964844 251.410156 199.179688 251.203125 200.246094 251.019531 C 200.617188 253.582031 201.648438 258.761719 204.289062 262.699219 C 203.882812 262.820312 203.464844 262.9375 203.042969 263.058594 Z M 197.546875 262.199219 C 195.71875 258.253906 195.164062 254.53125 194.761719 253.351562 C 194.742188 256.578125 196.230469 260.992188 198.070312 264.328125 C 197.78125 264.398438 197.488281 264.460938 197.191406 264.53125 C 194.019531 258.75 193.253906 254.519531 192.871094 252.269531 C 194.019531 252.078125 195.085938 251.898438 196.070312 251.734375 C 196.132812 252.265625 196.207031 252.804688 196.300781 253.351562 C 196.300781 253.351562 196.246094 253.355469 196.246094 253.355469 C 196.273438 256.679688 196.710938 259.636719 197.546875 262.199219 Z M 195.664062 264.863281 C 192.328125 259.675781 191.601562 255.078125 190.984375 253.40625 C 191.097656 256.128906 192.425781 260.722656 195.117188 264.980469 C 194.417969 265.125 193.71875 265.269531 193.015625 265.410156 C 190.191406 260.273438 189.351562 256.363281 188.980469 253.964844 C 189.957031 253.761719 190.308594 253.65625 190.308594 253.65625 C 190.308594 253.65625 189.941406 253.667969 188.949219 253.757812 C 188.902344 253.457031 188.863281 253.179688 188.828125 252.929688 C 190.0625 252.730469 191.214844 252.542969 192.300781 252.363281 C 193.097656 256.644531 194.566406 260.820312 196.648438 264.648438 C 196.320312 264.726562 195.988281 264.792969 195.664062 264.863281 Z M 191.261719 265.742188 C 190.902344 265.808594 190.539062 265.875 190.179688 265.9375 C 187.523438 261.003906 186.6875 256.839844 186.160156 254.5 C 187.09375 254.335938 187.835938 254.195312 188.421875 254.082031 C 188.6875 255.515625 189.027344 256.941406 189.460938 258.34375 C 189.460938 259.710938 190.570312 263.773438 191.261719 265.742188 Z M 188.546875 266.226562 C 186.132812 261.480469 185.367188 257.679688 184.75 256.027344 C 185.058594 259.222656 186.671875 263.804688 188.023438 266.316406 L 187.445312 266.414062 C 184.332031 262.40625 183.902344 258.234375 182.855469 255.457031 C 182.855469 255.457031 181.773438 260.441406 184.125 266.9375 C 183.660156 267.011719 183.203125 267.082031 182.742188 267.144531 C 180.5 261.773438 179.820312 257.933594 179.519531 255.554688 C 182.273438 255.152344 184.367188 254.816406 185.941406 254.539062 C 186.324219 258.382812 187.910156 262.820312 189.644531 266.035156 C 189.285156 266.097656 188.914062 266.160156 188.546875 266.226562 Z M 181.855469 267.273438 C 180.960938 265.882812 180.316406 264.625 179.796875 263.527344 C 178.195312 260.015625 177.652344 257.320312 177.226562 255.878906 C 177.398438 255.855469 177.566406 255.832031 177.738281 255.808594 C 178.164062 255.75 178.570312 255.691406 178.96875 255.632812 C 179.574219 259.59375 180.660156 263.519531 182.195312 267.226562 C 182.085938 267.246094 181.96875 267.261719 181.855469 267.273438 Z M 180.292969 267.492188 C 178.382812 263.757812 176.769531 260 175.917969 256.058594 C 176.3125 256.007812 176.71875 255.949219 177.140625 255.890625 C 177.394531 258.914062 178.707031 263.222656 181.292969 267.359375 C 180.957031 267.402344 180.625 267.449219 180.292969 267.492188 Z M 177.914062 267.8125 C 176.125 264.964844 173.402344 258.398438 173.402344 258.398438 C 173.402344 258.398438 174.804688 266.683594 175.308594 268.132812 C 175.132812 268.15625 174.957031 268.175781 174.78125 268.191406 C 172.171875 263.03125 171.515625 259.113281 171.261719 256.664062 C 172.410156 256.523438 173.777344 256.351562 175.382812 256.132812 C 176.234375 260.085938 177.839844 263.84375 179.734375 267.574219 C 179.117188 267.652344 178.515625 267.734375 177.914062 267.8125 Z M 172.644531 268.4375 C 169.355469 263.648438 169.089844 259.125 168.769531 256.949219 C 169.324219 256.890625 169.960938 256.820312 170.699219 256.730469 C 171.230469 260.734375 172.414062 264.644531 174.214844 268.261719 C 173.683594 268.320312 173.160156 268.386719 172.644531 268.4375 Z M 171.042969 268.609375 C 169.035156 265.269531 167.527344 260.175781 166.789062 257.140625 C 167.238281 257.105469 167.847656 257.046875 168.640625 256.964844 C 168.414062 260.15625 169.480469 264.640625 172.066406 268.503906 C 171.71875 268.539062 171.378906 268.578125 171.042969 268.609375 Z M 166.539062 256.074219 C 167.734375 255.949219 169.070312 255.792969 170.566406 255.609375 C 170.589844 255.8125 170.601562 256.019531 170.625 256.222656 C 169.886719 256.347656 169.25 256.460938 168.707031 256.5625 C 168.699219 256.523438 168.695312 256.476562 168.6875 256.441406 C 168.683594 256.480469 168.679688 256.527344 168.675781 256.566406 C 167.820312 256.726562 167.191406 256.851562 166.742188 256.953125 C 166.664062 256.632812 166.597656 256.339844 166.539062 256.074219 Z M 168.011719 268.6875 C 165.535156 263.4375 164.90625 258.792969 164.363281 257.082031 C 164.382812 260.332031 166.203125 265.835938 167.550781 268.851562 C 166.617188 269.246094 166.289062 269.058594 166.289062 269.058594 C 164.714844 266.683594 162.210938 259.609375 161.550781 256.550781 C 161.957031 256.519531 162.402344 256.480469 162.890625 256.433594 C 163.789062 256.355469 164.828125 256.257812 166.023438 256.128906 C 166.039062 256.207031 166.054688 256.285156 166.074219 256.367188 C 166.046875 256.402344 166.039062 256.671875 166.054688 257.113281 C 165.773438 257.183594 165.675781 257.222656 165.675781 257.222656 C 165.675781 257.222656 165.789062 257.214844 166.058594 257.199219 C 166.136719 259.257812 166.675781 264.699219 168.011719 268.6875 Z M 164.171875 269.234375 C 163.769531 269.261719 163.398438 269.289062 163.042969 269.308594 C 160.394531 263.816406 160.035156 259.148438 159.574219 257.515625 C 159.433594 261.046875 160.839844 265.859375 162.484375 269.347656 C 162.109375 269.367188 161.765625 269.390625 161.460938 269.40625 C 158.464844 263.019531 157.300781 256.496094 157.21875 256.007812 C 158.4375 255.960938 159.652344 255.863281 160.863281 255.734375 C 160.890625 255.882812 160.933594 256.09375 160.984375 256.347656 C 159.972656 256.488281 159.261719 256.585938 158.78125 256.652344 C 158.125 256.75 157.902344 256.792969 157.902344 256.792969 C 157.902344 256.792969 158.230469 256.777344 159.015625 256.734375 C 159.5 256.699219 160.167969 256.660156 161.039062 256.59375 C 161.320312 257.914062 161.882812 260.253906 162.753906 262.777344 C 162.953125 264.726562 163.433594 267.070312 164.171875 269.234375 Z M 159.453125 269.382812 C 157.640625 265.765625 156.8125 262.859375 155.402344 257.265625 C 155.398438 257.242188 155.386719 257.222656 155.375 257.207031 C 155.25 256.476562 155.164062 255.867188 155.097656 255.34375 C 155.285156 255.507812 155.480469 255.671875 155.71875 255.828125 C 155.996094 255.984375 156.351562 256.007812 156.6875 256.015625 C 156.6875 256.03125 156.679688 256.046875 156.683594 256.0625 C 156.695312 256.132812 157.816406 262.816406 160.890625 269.433594 C 160.417969 269.449219 159.695312 269.488281 159.453125 269.382812 Z M 153.101562 260.300781 C 152.636719 258.558594 152.363281 257.113281 152.164062 255.929688 C 152.785156 256.324219 153.289062 256.539062 153.644531 256.675781 C 153.941406 256.789062 154.152344 256.835938 154.285156 256.863281 C 154.417969 256.890625 154.472656 256.890625 154.472656 256.890625 C 154.472656 256.890625 154.433594 256.851562 154.328125 256.769531 C 154.222656 256.6875 154.046875 256.5625 153.792969 256.378906 C 153.410156 256.101562 152.816406 255.710938 152.019531 255.070312 C 151.960938 254.703125 151.90625 254.371094 151.851562 254.066406 C 152.65625 254.757812 153.300781 255.175781 153.75 255.453125 C 154.109375 255.671875 154.363281 255.789062 154.523438 255.863281 C 154.625 255.910156 154.6875 255.933594 154.71875 255.945312 C 154.765625 256.339844 154.820312 256.761719 154.886719 257.230469 C 154.65625 258.796875 154.964844 263.3125 155.261719 266.269531 C 154.171875 263.878906 153.546875 261.890625 153.101562 260.300781 Z M 152.644531 264.054688 C 151.097656 260.761719 150.042969 257.199219 149.523438 253.589844 C 149.835938 253.972656 150.238281 254.40625 150.769531 254.878906 C 151.117188 255.183594 151.441406 255.433594 151.742188 255.648438 C 151.804688 256.226562 151.890625 256.878906 152.019531 257.640625 C 152.488281 260.335938 153.328125 263.171875 154.566406 266 C 153.910156 265.394531 153.269531 264.730469 152.644531 264.054688 Z M 149.390625 252.628906 C 149.34375 252.207031 149.300781 251.78125 149.265625 251.355469 C 149.570312 251.742188 149.921875 252.160156 150.34375 252.613281 C 150.804688 253.109375 151.234375 253.515625 151.628906 253.871094 C 151.632812 254.140625 151.644531 254.445312 151.667969 254.78125 C 151.507812 254.648438 151.347656 254.511719 151.179688 254.363281 C 150.351562 253.617188 149.792969 253.046875 149.390625 252.628906 Z M 146.667969 245.972656 C 149.226562 249.015625 151.804688 252.085938 154.625 254.894531 C 154.644531 255.160156 154.664062 255.441406 154.695312 255.746094 C 154.703125 255.800781 154.710938 255.863281 154.714844 255.917969 C 154.691406 255.890625 154.648438 255.847656 154.578125 255.777344 C 154.445312 255.652344 154.238281 255.460938 153.941406 255.183594 C 153.332031 254.617188 152.285156 253.726562 150.792969 252.132812 C 149.316406 250.527344 148.535156 249.503906 148.039062 248.941406 C 147.554688 248.375 147.375 248.253906 147.375 248.253906 C 147.375 248.253906 147.457031 248.535156 147.839844 249.238281 C 148.085938 249.675781 148.449219 250.285156 149.035156 251.058594 C 148.984375 251.28125 148.941406 251.648438 148.914062 252.148438 C 148.507812 251.746094 148.351562 251.671875 148.351562 251.671875 C 148.351562 251.671875 148.367188 251.726562 148.417969 251.847656 C 148.46875 251.96875 148.554688 252.160156 148.707031 252.425781 C 148.757812 252.511719 148.820312 252.613281 148.890625 252.722656 C 148.847656 254.25 148.941406 256.699219 149.390625 260.148438 C 149.054688 259.734375 146.539062 253.574219 146.667969 245.972656 Z M 146.90625 254.902344 C 146.9375 255.027344 146.96875 255.152344 147.003906 255.28125 C 146.96875 255.152344 146.9375 255.027344 146.90625 254.902344 Z M 112.386719 258.589844 C 111.042969 256.886719 107.289062 251.601562 95.9375 237.304688 C 95.851562 237.199219 95.769531 237.089844 95.6875 236.984375 C 95.691406 236.921875 95.703125 236.851562 95.710938 236.785156 C 95.722656 236.714844 95.746094 236.648438 95.761719 236.574219 C 95.996094 236.171875 96.269531 235.792969 96.605469 235.464844 C 96.667969 235.402344 96.738281 235.355469 96.800781 235.296875 C 106.1875 230.617188 131.421875 228.898438 138.679688 232.488281 C 142.183594 234.226562 147.582031 237.546875 152.777344 240.90625 C 150.578125 241.214844 149.160156 241.414062 148.640625 241.476562 C 146.859375 241.75 145.265625 244.15625 145.878906 245.839844 C 145.804688 247.914062 145.992188 250.175781 146.363281 252.339844 C 146.347656 252.25 146.332031 252.160156 146.316406 252.070312 C 135.375 253.304688 124.441406 254.78125 113.621094 256.472656 C 124.539062 255.484375 135.519531 254.257812 146.449219 252.800781 C 146.445312 252.785156 146.441406 252.769531 146.4375 252.75 C 146.535156 253.265625 146.640625 253.773438 146.753906 254.269531 C 146.738281 254.210938 146.726562 254.152344 146.710938 254.089844 Z M 110.738281 258.878906 C 105.859375 253.5625 101.273438 247.9375 96.820312 242.273438 C 94.363281 239.160156 91.957031 236 89.746094 232.707031 C 88.582031 230.976562 87.019531 229.234375 86.585938 227.128906 C 86.15625 225.039062 87.417969 224.28125 89.105469 223.597656 C 92.394531 222.273438 95.914062 221.480469 99.386719 220.816406 C 110.371094 218.722656 121.757812 218.214844 132.917969 218.53125 C 139.332031 218.710938 143.316406 222.164062 146.613281 225.386719 C 150.675781 229.347656 155.996094 234.871094 160.667969 239.808594 C 160.128906 239.882812 159.613281 239.953125 159.105469 240.023438 C 159.214844 240.007812 159.320312 239.992188 159.429688 239.976562 C 159.375 239.921875 159.328125 239.871094 159.28125 239.816406 C 150.316406 229.769531 148.234375 228.328125 144.761719 224.585938 C 142.542969 222.398438 139.847656 220.386719 136.746094 219.792969 C 126.949219 217.90625 103.78125 220.285156 94.53125 222.609375 C 92.445312 223.28125 89.992188 223.667969 88.578125 225.542969 C 87.097656 227.9375 88.785156 229.917969 94.390625 236.960938 C 94.363281 237.042969 94.433594 237.113281 94.507812 237.105469 C 94.722656 237.375 94.9375 237.640625 95.15625 237.925781 C 106.578125 252.234375 95.242188 237.519531 111.542969 258.703125 Z M 85.890625 240.851562 L 85.890625 228.289062 C 87.523438 231.800781 91.597656 237.609375 98.074219 245.640625 C 102.101562 250.636719 108.503906 258.15625 110.199219 259.839844 C 107.195312 258.433594 87.691406 248.003906 85.890625 240.851562 Z M 108.179688 104.089844 C 108.261719 103.796875 108.597656 103.574219 109.152344 103.445312 C 109.285156 103.414062 109.375 103.285156 109.355469 103.144531 C 109.335938 103.007812 109.21875 102.90625 109.066406 102.921875 C 109.050781 102.921875 107.59375 103.015625 107.296875 102.003906 C 107.234375 101.773438 107.25 101.601562 107.351562 101.472656 C 107.578125 101.175781 108.183594 101.109375 108.402344 101.109375 C 108.585938 101.457031 108.929688 101.773438 109.410156 102.019531 C 110.222656 102.429688 111.226562 102.621094 112.214844 102.621094 C 113.902344 102.621094 115.542969 102.0625 116.09375 101.09375 L 115.933594 101.003906 C 115.949219 100.988281 115.964844 100.96875 115.976562 100.953125 L 115.976562 100.863281 C 116.695312 101.050781 117.136719 101.328125 117.261719 101.6875 C 117.4375 102.167969 116.996094 102.695312 116.992188 102.703125 C 116.921875 102.789062 116.914062 102.898438 116.960938 102.996094 C 117.011719 103.09375 117.121094 103.144531 117.222656 103.140625 C 117.457031 103.117188 118.851562 103.558594 119.355469 104.210938 C 119.507812 104.417969 119.550781 104.609375 119.488281 104.808594 C 119.214844 105.25 118.859375 105.519531 118.457031 105.578125 C 118.046875 105.636719 117.691406 105.472656 117.511719 105.304688 C 117.539062 105.265625 117.585938 105.234375 117.621094 105.214844 C 117.828125 105.085938 118.128906 104.886719 118.128906 104.523438 C 118.128906 104.351562 118.046875 104.1875 117.886719 104.03125 C 117.359375 103.53125 115.820312 102.984375 113.21875 103.097656 C 111.386719 103.175781 110.332031 103.503906 110.003906 104.089844 C 109.859375 104.347656 109.863281 104.640625 110.011719 104.917969 C 110.15625 105.183594 110.519531 105.335938 110.90625 105.492188 C 111.066406 105.5625 111.324219 105.667969 111.425781 105.742188 C 111.402344 105.765625 111.359375 105.796875 111.296875 105.832031 C 110.285156 106.136719 109.210938 105.683594 108.632812 105.125 C 108.265625 104.769531 108.09375 104.386719 108.179688 104.089844 Z M 107.660156 103.953125 C 107.628906 104.082031 107.617188 104.214844 107.628906 104.347656 C 107.492188 104.242188 107.347656 104.109375 107.21875 103.972656 L 107.195312 102.851562 C 107.453125 103.109375 107.773438 103.257812 108.078125 103.34375 C 107.832031 103.542969 107.714844 103.761719 107.660156 103.953125 Z M 111.183594 82.375 C 110.824219 87.597656 110.984375 95.417969 110.90625 101.953125 C 110.53125 101.878906 110.171875 101.773438 109.847656 101.628906 L 109.847656 77.839844 C 109.945312 77.855469 110.039062 77.875 110.132812 77.882812 C 110.691406 77.957031 111.289062 77.996094 111.898438 77.996094 C 112.734375 77.996094 113.582031 77.925781 114.375 77.78125 L 114.375 101.730469 C 113.550781 102.035156 112.476562 102.144531 111.460938 102.035156 C 111.691406 94.671875 111.625 87.691406 111.183594 82.375 Z M 107.929688 75.484375 L 107.929688 33.109375 C 109.441406 33.527344 111.507812 33.558594 112.113281 33.558594 C 112.71875 33.558594 114.785156 33.527344 116.296875 33.109375 L 116.296875 75.390625 C 115.332031 76.175781 112.679688 76.597656 110.332031 76.296875 C 108.9375 76.121094 108.179688 75.746094 107.929688 75.484375 Z M 116.816406 31.785156 C 115.230469 32.71875 109.019531 32.726562 107.40625 31.785156 C 108.210938 30.242188 115.515625 30.417969 116.816406 31.785156 Z M 119.644531 105.484375 C 119.652344 106.019531 119.636719 106.476562 119.585938 106.585938 C 119.472656 106.804688 119.109375 107.03125 119.027344 107.074219 C 118.210938 107.335938 117.816406 107.160156 117.679688 107.066406 L 117.621094 105.984375 C 117.878906 106.089844 118.1875 106.15625 118.53125 106.105469 C 118.839844 106.058594 119.257812 105.910156 119.644531 105.484375 Z M 109.3125 212.785156 L 109.375 212.785156 C 109.367188 212.765625 109.355469 212.742188 109.351562 212.722656 C 110.25 213.015625 111.449219 213.070312 112.132812 213.070312 C 113.015625 213.070312 113.980469 213.003906 114.722656 212.785156 L 114.925781 212.785156 L 115 217.8125 C 113.085938 217.949219 111.171875 218.113281 109.277344 218.316406 Z M 111.503906 107.128906 C 111.488281 107.148438 111.472656 107.171875 111.457031 107.1875 C 110.125 108.234375 108.792969 107.023438 108.5 106.730469 L 108.378906 105.609375 C 108.929688 106.089844 109.746094 106.46875 110.617188 106.46875 C 110.90625 106.46875 111.195312 106.425781 111.488281 106.335938 C 111.503906 106.332031 111.515625 106.324219 111.53125 106.316406 C 111.523438 106.574219 111.519531 106.863281 111.503906 107.128906 Z M 111.183594 206.832031 C 111.808594 198.398438 111.855469 140.789062 111.519531 107.796875 C 111.664062 107.703125 111.800781 107.601562 111.941406 107.484375 C 111.992188 107.4375 112.023438 107.371094 112.027344 107.304688 C 112.066406 106.753906 112.070312 106.007812 112.074219 105.738281 C 112.210938 105.625 112.75 105.304688 114.375 105.34375 L 114.375 211.765625 C 113.929688 211.886719 113.207031 212 112.132812 212 C 111.066406 212 110.324219 211.882812 109.847656 211.75 L 109.847656 108.089844 C 109.964844 108.117188 110.082031 108.136719 110.203125 108.144531 C 110.242188 108.148438 110.285156 108.148438 110.328125 108.148438 C 110.503906 108.148438 110.675781 108.121094 110.847656 108.078125 C 110.511719 140.984375 110.648438 198.492188 111.183594 206.832031 Z M 116.980469 105.082031 C 116.960938 105.074219 116.945312 105.066406 116.921875 105.058594 C 113.332031 104.496094 112.132812 104.996094 111.738281 105.316406 C 111.574219 105.199219 111.347656 105.101562 111.113281 105 C 110.894531 104.910156 110.535156 104.757812 110.484375 104.664062 C 110.390625 104.492188 110.449219 104.386719 110.46875 104.351562 C 110.574219 104.167969 111.050781 103.726562 113.246094 103.632812 C 116.296875 103.5 117.554688 104.308594 117.597656 104.523438 C 117.597656 104.59375 117.453125 104.683594 117.335938 104.757812 C 117.199219 104.847656 117.054688 104.941406 116.980469 105.082031 Z M 154.390625 240.679688 C 148.847656 237.082031 142.925781 233.402344 139.148438 231.53125 C 131.089844 227.539062 104.769531 229.972656 96.097656 234.449219 C 95.464844 234.773438 94.9375 235.109375 94.488281 235.449219 C 89.394531 228.957031 87.78125 226.988281 90.1875 225.328125 C 91.515625 224.414062 93.199219 223.878906 94.78125 223.523438 C 110.738281 219.867188 131.976562 219.574219 136.210938 220.492188 C 142.25 222.03125 150.496094 231.191406 158.429688 240.113281 C 156.925781 240.320312 155.574219 240.511719 154.390625 240.679688 Z M 165.925781 255.679688 C 164.460938 255.878906 163.242188 256.039062 162.242188 256.175781 C 161.976562 256.210938 161.730469 256.246094 161.492188 256.277344 C 161.449219 256.046875 161.417969 255.84375 161.398438 255.675781 C 162.875 255.507812 164.34375 255.308594 165.8125 255.105469 C 165.84375 255.261719 165.878906 255.453125 165.925781 255.679688 Z M 170.515625 255.042969 C 168.988281 255.261719 167.632812 255.449219 166.441406 255.609375 C 166.390625 255.382812 166.355469 255.1875 166.328125 255.035156 C 166.761719 254.976562 167.191406 254.914062 167.621094 254.859375 C 168.550781 254.714844 169.5 254.570312 170.457031 254.425781 C 170.472656 254.632812 170.5 254.835938 170.515625 255.042969 Z M 171.109375 254.960938 C 171.085938 254.71875 171.066406 254.507812 171.035156 254.335938 C 172.324219 254.140625 173.628906 253.941406 174.960938 253.738281 C 174.988281 253.957031 175.03125 254.171875 175.0625 254.386719 C 173.632812 254.597656 172.320312 254.789062 171.109375 254.960938 Z M 175.164062 255.007812 C 175.195312 255.171875 175.210938 255.339844 175.246094 255.503906 C 173.660156 255.734375 172.324219 255.945312 171.210938 256.128906 C 171.191406 255.917969 171.175781 255.71875 171.160156 255.535156 C 172.386719 255.382812 173.722656 255.207031 175.164062 255.007812 Z M 175.597656 254.308594 C 175.5625 254.089844 175.519531 253.875 175.492188 253.65625 C 176.53125 253.496094 177.585938 253.335938 178.648438 253.175781 C 178.671875 253.398438 178.703125 253.621094 178.726562 253.84375 C 177.628906 254.007812 176.585938 254.164062 175.597656 254.308594 Z M 178.804688 254.492188 C 178.828125 254.65625 178.84375 254.820312 178.867188 254.984375 C 178.441406 255.042969 178.007812 255.105469 177.554688 255.167969 C 176.929688 255.257812 176.339844 255.34375 175.777344 255.421875 C 175.746094 255.261719 175.726562 255.097656 175.699219 254.9375 C 176.683594 254.800781 177.71875 254.652344 178.804688 254.492188 Z M 185.886719 253.402344 C 186.703125 253.273438 187.480469 253.148438 188.238281 253.027344 C 188.28125 253.289062 188.324219 253.550781 188.371094 253.8125 C 187.773438 253.871094 187.011719 253.949219 186.058594 254.058594 C 185.996094 253.8125 185.941406 253.59375 185.886719 253.402344 Z M 179.3125 253.753906 C 179.277344 253.484375 179.246094 253.261719 179.207031 253.089844 C 182.117188 252.648438 185.082031 252.195312 188.054688 251.746094 C 188.082031 251.964844 188.117188 252.179688 188.148438 252.394531 C 186.222656 252.691406 184.128906 253.015625 181.828125 253.371094 C 180.957031 253.503906 180.125 253.632812 179.3125 253.753906 Z M 182.113281 253.996094 C 183.429688 253.792969 184.675781 253.59375 185.863281 253.40625 C 185.871094 253.628906 185.882812 253.851562 185.898438 254.078125 C 184.308594 254.261719 182.199219 254.527344 179.441406 254.90625 C 179.421875 254.726562 179.402344 254.5625 179.386719 254.40625 C 180.265625 254.277344 181.167969 254.140625 182.113281 253.996094 Z M 192.199219 251.777344 C 191.113281 251.941406 189.96875 252.117188 188.738281 252.304688 C 188.699219 252.042969 188.660156 251.828125 188.613281 251.664062 C 189.769531 251.488281 190.929688 251.3125 192.082031 251.140625 C 192.117188 251.351562 192.160156 251.566406 192.199219 251.777344 Z M 196.019531 251.207031 C 195.019531 251.355469 193.941406 251.515625 192.773438 251.691406 C 192.730469 251.445312 192.691406 251.230469 192.648438 251.054688 C 193.753906 250.890625 194.855469 250.722656 195.953125 250.558594 C 195.96875 250.773438 195.996094 250.992188 196.019531 251.207031 Z M 200.191406 250.617188 C 199.121094 250.761719 197.90625 250.933594 196.53125 251.132812 C 196.503906 250.878906 196.484375 250.652344 196.46875 250.480469 C 197.691406 250.300781 198.90625 250.121094 200.109375 249.941406 C 200.128906 250.121094 200.15625 250.351562 200.191406 250.617188 Z M 203.738281 250.15625 C 203.273438 250.214844 202.765625 250.277344 202.195312 250.351562 C 201.742188 250.410156 201.253906 250.472656 200.726562 250.542969 C 200.691406 250.273438 200.660156 250.039062 200.640625 249.863281 C 201.640625 249.714844 202.628906 249.566406 203.605469 249.425781 C 203.632812 249.566406 203.675781 249.824219 203.738281 250.15625 Z M 206.867188 249.804688 C 206.695312 249.824219 206.480469 249.84375 206.207031 249.875 C 205.742188 249.921875 205.105469 249.992188 204.289062 250.089844 C 204.21875 249.777344 204.171875 249.519531 204.136719 249.347656 C 204.988281 249.222656 205.828125 249.097656 206.660156 248.976562 C 206.722656 249.253906 206.796875 249.53125 206.867188 249.804688 Z M 173.464844 238.945312 C 173.816406 239.683594 173.5 239.046875 174.984375 243.492188 L 175.082031 243.585938 C 175.125 243.628906 176.09375 244.523438 178.097656 244.523438 C 178.441406 244.523438 178.808594 244.5 179.210938 244.4375 C 180.203125 244.289062 181.039062 243.933594 181.691406 243.378906 C 182.363281 242.808594 182.617188 241.875 182.335938 241.003906 L 181.359375 237.972656 C 194.585938 236.375 193.71875 236.183594 196.859375 237.394531 C 199.5625 238.464844 202.085938 240.003906 204.445312 241.742188 C 205.902344 242.820312 207.671875 244.054688 209 245.277344 C 209.648438 245.890625 209.386719 246.410156 209.355469 247.234375 C 203.496094 248.121094 189.660156 250.488281 184.371094 251.257812 C 176.722656 252.5 163.726562 254.828125 157.101562 254.894531 C 157.140625 254.140625 157.226562 253.285156 157.597656 252.625 C 157.894531 252.578125 156.46875 252.792969 160.746094 252.058594 C 164.234375 251.570312 206.5625 244.972656 206.535156 244.90625 C 206.53125 244.894531 204.308594 244.871094 204.308594 244.859375 C 203.851562 244.882812 178.835938 247.84375 158.527344 251.332031 C 157.324219 251.625 156.441406 251.484375 156.5625 255.085938 C 156.460938 255.085938 156.355469 255.089844 156.253906 255.085938 C 156.171875 255.03125 156.089844 254.964844 156.007812 254.90625 C 156.257812 253.050781 156.308594 251.089844 155.320312 249.492188 C 153.394531 246.960938 150.867188 245.066406 148.3125 243.199219 C 154.203125 250.042969 155.546875 249.375 155.636719 254.617188 C 153.726562 253.046875 148.230469 246.472656 146.976562 245.0625 C 146.714844 243.851562 147.34375 242.714844 148.632812 242.464844 C 164.5 240.144531 166.503906 239.832031 173.464844 238.945312 Z M 135.292969 105.515625 C 135.851562 105.425781 136.554688 105.457031 137.140625 105.285156 C 137.9375 105.042969 138.730469 104.734375 139.449219 104.367188 L 177.988281 232.691406 C 177.597656 232.933594 176.933594 233.246094 175.90625 233.554688 C 174.882812 233.863281 173.980469 234.339844 173.488281 234.351562 L 135.011719 105.558594 C 135.105469 105.542969 135.203125 105.53125 135.292969 105.515625 Z M 132.613281 104.019531 L 120.425781 63.4375 C 121.992188 63.402344 123.984375 62.835938 124.5625 62.664062 C 125.140625 62.488281 127.113281 61.863281 128.441406 61.03125 L 140.601562 101.519531 C 139.902344 102.550781 137.484375 103.71875 135.152344 104.105469 C 133.765625 104.339844 132.929688 104.199219 132.613281 104.019531 Z M 119.542969 62.316406 C 119.875 60.605469 126.921875 58.675781 128.554688 59.609375 C 127.304688 60.960938 121.359375 62.753906 119.542969 62.316406 Z M 175.359375 241.238281 C 175.324219 241.136719 175.332031 241.164062 175.359375 241.238281 Z M 175.402344 241.363281 C 175.386719 241.316406 175.371094 241.28125 175.363281 241.253906 C 175.375 241.285156 175.386719 241.324219 175.402344 241.363281 Z M 178.804688 233.507812 L 180.550781 239.027344 C 180.574219 239.019531 181.320312 241.332031 181.320312 241.332031 C 181.464844 241.78125 181.335938 242.277344 181 242.5625 C 180.5 242.988281 179.847656 243.261719 179.050781 243.382812 C 177.1875 243.660156 176.195312 243.085938 175.90625 242.878906 C 175.683594 242.210938 175.542969 241.789062 175.457031 241.53125 C 175.46875 241.570312 175.480469 241.605469 175.488281 241.621094 C 175.457031 241.527344 175.191406 240.730469 174.226562 237.835938 L 173.429688 235.121094 L 173.492188 235.101562 C 173.476562 235.085938 173.460938 235.066406 173.445312 235.046875 C 174.390625 235.074219 175.558594 234.777344 176.214844 234.578125 C 177.058594 234.328125 177.964844 233.988281 178.609375 233.566406 Z M 215.390625 258.257812 C 211.347656 254.039062 210.703125 249.953125 210.214844 248.460938 L 210.34375 248.441406 L 210.363281 248 C 210.363281 247.261719 210.523438 246.265625 210.164062 245.578125 C 209.878906 244.792969 209.191406 244.210938 208.597656 243.691406 C 208.546875 243.644531 202.59375 238.894531 197.539062 236.902344 C 194.242188 235.570312 194.691406 235.375 180.902344 237.1875 C 180.433594 235.222656 179.828125 233.78125 179.398438 232.28125 C 179.386719 232.285156 140.625 103.773438 140.625 103.773438 C 141.242188 103.300781 141.628906 102.734375 141.871094 102.171875 L 141.984375 101.910156 L 129.398438 59.863281 C 129.148438 58.4375 126.09375 58.417969 123.539062 59.261719 C 117.242188 61.332031 118.503906 62.441406 118.613281 62.980469 L 131.199219 104.886719 L 131.320312 105.023438 C 131.820312 105.570312 132.628906 105.78125 133.484375 105.820312 C 170.359375 228.601562 173.070312 237.761719 173.191406 238.148438 C 168.941406 238.695312 165.136719 239.199219 161.855469 239.644531 C 144.304688 220.292969 140.050781 217.664062 132.867188 217.460938 C 127.691406 217.316406 121.871094 217.386719 115.992188 217.753906 L 115.769531 211.347656 C 115.757812 211.347656 115.976562 105.472656 115.976562 105.472656 C 116.25 105.503906 116.53125 105.539062 116.84375 105.589844 C 116.90625 105.597656 116.964844 105.582031 117.019531 105.550781 C 117.035156 105.578125 117.050781 105.59375 117.066406 105.613281 L 117.152344 107.207031 C 117.152344 107.265625 117.171875 107.320312 117.210938 107.367188 C 117.253906 107.414062 117.554688 107.742188 118.253906 107.742188 C 118.515625 107.742188 118.839844 107.695312 119.230469 107.566406 C 119.289062 107.53125 119.851562 107.25 120.058594 106.824219 C 120.257812 106.433594 120.167969 104.882812 120.132812 104.417969 C 120.125 104.300781 120.054688 104.214844 119.949219 104.183594 C 119.898438 104.070312 119.839844 103.964844 119.753906 103.863281 C 119.285156 103.261719 118.28125 102.832031 117.636719 102.667969 C 117.789062 102.375 117.921875 101.949219 117.765625 101.511719 C 117.570312 100.949219 116.964844 100.546875 115.976562 100.320312 L 115.976562 77.347656 C 116.710938 77.078125 116.90625 77.140625 117.296875 76.675781 L 117.773438 76.199219 L 117.417969 31.902344 C 117.589844 30.460938 114.800781 29.9375 112.113281 30.003906 C 105.480469 30.183594 106.375 31.605469 106.324219 32.152344 L 106.324219 75.90625 L 106.398438 76.074219 C 106.722656 76.742188 107.4375 77.171875 108.242188 77.457031 L 108.242188 100.421875 C 108.261719 100.441406 108.269531 100.457031 108.285156 100.472656 C 108.28125 100.511719 108.28125 100.546875 108.28125 100.582031 C 107.988281 100.601562 107.277344 100.679688 106.921875 101.148438 C 106.875 101.207031 106.839844 101.292969 106.800781 101.382812 C 106.703125 101.425781 106.640625 101.519531 106.640625 101.632812 L 106.683594 104.082031 C 106.683594 104.144531 106.710938 104.210938 106.753906 104.25 C 106.898438 104.421875 107.351562 104.90625 107.777344 105.054688 L 107.980469 106.882812 C 107.988281 106.933594 108.007812 106.988281 108.046875 107.03125 C 108.054688 107.042969 108.125 107.117188 108.242188 107.222656 L 108.242188 211.582031 L 108.203125 211.582031 C 108.203125 211.679688 108.21875 211.769531 108.242188 211.851562 L 108.242188 218.429688 C 102.644531 219.058594 97.214844 220.007812 92.480469 221.363281 C 89.105469 222.335938 84.996094 223.425781 84.832031 227.753906 C 84.789062 228.726562 84.800781 229.703125 84.800781 230.675781 C 84.78125 241.335938 82.019531 243.605469 98.171875 254.144531 C 103.71875 257.765625 110.535156 261.109375 111.007812 261.109375 L 111.007812 260.894531 C 111.027344 260.882812 111.054688 260.859375 111.066406 260.835938 L 111.007812 261.109375 L 113.828125 260.535156 C 113.839844 260.546875 113.84375 260.558594 113.855469 260.574219 C 113.886719 260.550781 113.925781 260.535156 113.957031 260.515625 L 147.207031 256.03125 C 147.199219 255.996094 147.1875 255.960938 147.179688 255.925781 C 147.820312 258.160156 148.636719 260.0625 149.527344 261.207031 C 149.535156 261.222656 149.535156 261.238281 149.539062 261.261719 C 149.683594 261.40625 149.8125 261.5625 149.933594 261.714844 L 150.128906 261.683594 C 149.9375 260.453125 149.679688 258.445312 149.480469 256.367188 C 150.105469 259.222656 151.101562 261.816406 152.246094 264.234375 C 153.34375 265.390625 154.382812 266.371094 155.808594 267.214844 C 155.625 265.667969 155.363281 261.859375 155.300781 259.5 C 155.300781 259.316406 155.292969 259.15625 155.292969 259 C 155.785156 260.886719 156.25 262.542969 156.695312 263.960938 C 156.890625 264.601562 158.507812 269.710938 159.179688 269.710938 C 159.207031 269.710938 159.308594 269.824219 159.414062 269.941406 C 159.46875 269.941406 160.402344 270.144531 164.910156 269.757812 C 164.5 268.703125 163.945312 266.859375 163.582031 264.984375 C 164.1875 266.457031 165.136719 268.421875 166.050781 269.667969 C 166.753906 269.613281 168.667969 269.441406 168.910156 269.410156 C 167.574219 266.378906 166.886719 262.148438 166.660156 258.773438 C 167.578125 262.242188 168.914062 266.183594 170.796875 269.230469 C 171.378906 269.167969 175.488281 268.714844 176.0625 268.632812 C 175.453125 267.082031 174.675781 264.34375 174.605469 262.453125 C 175.4375 264.046875 176.378906 266.449219 177.679688 268.433594 C 178.730469 268.296875 184.414062 267.523438 184.878906 267.40625 C 184.121094 265.773438 183.058594 261.632812 183.058594 257.652344 C 183.855469 260.675781 185.257812 264.632812 187.246094 267.023438 C 188.726562 266.789062 191.902344 266.1875 191.964844 266.179688 C 191.355469 264.578125 190.8125 262.679688 190.378906 261.015625 C 191.175781 263.066406 192.222656 265.140625 192.746094 266.023438 C 193.683594 265.859375 196.605469 265.246094 198.875 264.699219 C 198.855469 264.664062 198.835938 264.625 198.8125 264.589844 C 198.882812 264.578125 198.953125 264.566406 199.023438 264.566406 C 199.042969 264.566406 199.0625 264.570312 199.078125 264.570312 C 197.917969 262.203125 197.195312 259.378906 196.914062 256.136719 C 197.722656 259.15625 199.015625 262.089844 200.832031 264.210938 C 203.347656 263.582031 205.503906 262.886719 206.476562 262.558594 C 206.738281 262.472656 206.90625 262.414062 206.984375 262.394531 C 207.007812 262.382812 207.023438 262.378906 207.023438 262.378906 C 206.941406 262.222656 206.890625 262.003906 206.816406 261.84375 L 206.769531 261.859375 C 205.9375 259.726562 205.308594 257.417969 204.933594 255.128906 C 204.964844 255.226562 204.996094 255.328125 205.027344 255.425781 C 205.039062 255.457031 205.042969 255.492188 205.054688 255.515625 C 205.050781 255.507812 205.050781 255.5 205.046875 255.488281 C 205.277344 256.121094 205.949219 258.722656 208.066406 262.015625 C 208.246094 261.945312 209.488281 261.5 210.703125 260.957031 C 209.246094 257.734375 208.394531 255.1875 207.816406 252.871094 C 208.886719 255.792969 210.480469 258.6875 211.785156 260.453125 C 212.695312 260.046875 214.289062 259.148438 215.390625 258.257812 " fill-opacity="1" fill-rule="nonzero"/></g><path fill="currentColor" d="M 173.160156 243.601562 C 173.304688 244.03125 173.664062 244.527344 174.25 244.871094 C 174.875 245.238281 175.460938 245.328125 175.902344 245.355469 C 176.351562 245.378906 176.6875 245.335938 176.933594 245.296875 C 177.425781 245.207031 177.585938 245.109375 177.585938 245.109375 C 177.585938 245.109375 177.417969 245.042969 176.929688 244.964844 C 176.683594 244.925781 176.363281 244.882812 175.957031 244.800781 C 175.554688 244.714844 175.066406 244.59375 174.5625 244.289062 C 173.5625 243.660156 173.480469 242.890625 173.429688 242.511719 C 173.40625 242.109375 173.429688 241.960938 173.417969 241.960938 C 173.433594 241.964844 173.230469 242.050781 173.09375 242.554688 C 173.035156 242.804688 173.011719 243.164062 173.160156 243.601562 " fill-opacity="1" fill-rule="nonzero"/><path fill="currentColor" d="M 174.660156 235.949219 C 174.660156 235.949219 174.648438 236.742188 175.582031 239.292969 C 176.578125 242.015625 177.179688 242.5625 177.179688 242.5625 C 177.179688 242.5625 177.191406 241.769531 176.1875 239.035156 C 175.1875 236.296875 174.660156 235.949219 174.660156 235.949219 " fill-opacity="1" fill-rule="nonzero"/><path fill="currentColor" d="M 172.746094 245.53125 C 172.988281 245.664062 173.167969 245.714844 173.28125 245.734375 C 173.394531 245.753906 173.441406 245.753906 173.441406 245.753906 C 173.441406 245.753906 173.410156 245.714844 173.328125 245.640625 C 173.246094 245.570312 173.117188 245.449219 172.945312 245.269531 C 172.777344 245.082031 172.566406 244.828125 172.371094 244.457031 C 172.179688 244.089844 171.996094 243.597656 172.003906 242.984375 C 172.019531 242.371094 172.207031 241.898438 172.386719 241.550781 C 172.566406 241.195312 172.753906 240.960938 172.890625 240.785156 C 173.023438 240.621094 173.121094 240.503906 173.1875 240.421875 C 173.246094 240.351562 173.261719 240.3125 173.261719 240.3125 C 173.261719 240.3125 173.214844 240.320312 173.109375 240.351562 C 173 240.382812 172.835938 240.449219 172.613281 240.589844 C 172.394531 240.734375 172.121094 240.96875 171.859375 241.351562 C 171.605469 241.734375 171.355469 242.285156 171.34375 243.007812 C 171.34375 243.785156 171.621094 244.375 171.910156 244.769531 C 172.199219 245.171875 172.507812 245.398438 172.746094 245.53125 " fill-opacity="1" fill-rule="nonzero"/></svg>