<svg xmlns="http://www.w3.org/2000/svg" xmlns:xlink="http://www.w3.org/1999/xlink" width="400" zoomAndPan="magnify" viewBox="0 0 300 299.999988" height="400" preserveAspectRatio="xMidYMid meet" version="1.0"><path fill="#a9a0f0" d="M 264.1875 36.070312 L 264.046875 35.929688 C 258.15625 30.039062 248.570312 30.039062 242.675781 35.929688 L 190.453125 88.152344 C 188.984375 89.621094 188.984375 92.019531 190.453125 93.492188 L 192.492188 95.53125 L 114.648438 173.375 L 98.660156 157.390625 C 96.542969 155.269531 92.882812 155.230469 90.6875 157.425781 C 89.625 158.488281 89.042969 159.894531 89.042969 161.394531 C 89.042969 162.894531 89.628906 164.304688 90.6875 165.363281 L 106.675781 181.351562 L 103.914062 184.113281 L 94.265625 174.464844 C 93.527344 173.726562 92.335938 173.726562 91.597656 174.464844 C 90.859375 175.203125 90.859375 176.394531 91.597656 177.132812 L 101.246094 186.78125 L 98.726562 189.296875 L 76.898438 167.46875 C 74.710938 165.285156 71.152344 165.28125 68.925781 167.511719 C 66.738281 169.695312 66.738281 173.253906 68.925781 175.441406 L 90.753906 197.269531 L 87.847656 200.171875 L 78.203125 190.527344 C 77.464844 189.789062 76.269531 189.789062 75.53125 190.527344 C 74.792969 191.265625 74.792969 192.457031 75.53125 193.195312 L 85.179688 202.84375 L 82.351562 205.671875 L 60.523438 183.84375 C 58.335938 181.65625 54.777344 181.65625 52.550781 183.882812 C 50.363281 186.070312 50.363281 189.628906 52.550781 191.816406 L 74.378906 213.644531 L 71.785156 216.238281 L 62.136719 206.589844 C 61.398438 205.851562 60.207031 205.851562 59.46875 206.589844 C 58.730469 207.328125 58.730469 208.523438 59.46875 209.261719 L 69.117188 218.910156 L 65.976562 222.050781 L 50.007812 206.078125 C 47.804688 203.882812 44.230469 203.882812 42.035156 206.078125 C 39.835938 208.277344 39.835938 211.855469 42.035156 214.050781 L 49.664062 221.679688 L 36.855469 218.25 C 35.488281 217.886719 34.0625 218.070312 32.839844 218.777344 C 31.617188 219.484375 30.742188 220.625 30.375 221.988281 C 30.007812 223.351562 30.195312 224.78125 30.902344 226.003906 C 31.609375 227.226562 32.75 228.101562 34.113281 228.46875 L 47.609375 232.082031 L 34.113281 235.699219 C 32.746094 236.066406 31.605469 236.941406 30.902344 238.164062 C 30.195312 239.390625 30.003906 240.816406 30.375 242.179688 C 30.738281 243.546875 31.613281 244.6875 32.839844 245.390625 C 34.0625 246.097656 35.492188 246.285156 36.851562 245.917969 L 50.347656 242.304688 L 40.464844 252.183594 C 39.46875 253.179688 38.917969 254.511719 38.917969 255.921875 C 38.917969 257.335938 39.46875 258.664062 40.464844 259.660156 C 42.464844 261.660156 45.949219 261.660156 47.949219 259.660156 L 57.828125 249.785156 L 54.210938 263.277344 C 53.84375 264.640625 54.03125 266.066406 54.738281 267.289062 C 55.445312 268.515625 56.585938 269.390625 57.953125 269.757812 C 58.410156 269.878906 58.867188 269.9375 59.316406 269.9375 C 61.652344 269.9375 63.796875 268.375 64.429688 266.015625 L 68.046875 252.519531 L 71.664062 266.011719 C 72.027344 267.378906 72.902344 268.519531 74.128906 269.226562 C 75.347656 269.933594 76.777344 270.125 78.140625 269.753906 C 79.507812 269.386719 80.648438 268.515625 81.355469 267.289062 C 82.058594 266.0625 82.25 264.640625 81.878906 263.273438 L 78.449219 250.464844 L 86.078125 258.09375 C 88.277344 260.292969 91.855469 260.289062 94.050781 258.09375 C 96.25 255.894531 96.25 252.316406 94.050781 250.121094 L 78.070312 234.140625 L 81.210938 231 L 90.859375 240.648438 C 91.226562 241.015625 91.710938 241.203125 92.195312 241.203125 C 92.675781 241.203125 93.160156 241.015625 93.527344 240.648438 C 94.265625 239.910156 94.265625 238.71875 93.527344 237.980469 L 83.882812 228.332031 L 86.476562 225.738281 L 108.3125 247.574219 C 109.402344 248.664062 110.832031 249.210938 112.269531 249.210938 C 113.714844 249.210938 115.167969 248.652344 116.285156 247.535156 C 117.347656 246.476562 117.929688 245.066406 117.929688 243.566406 C 117.929688 242.070312 117.347656 240.660156 116.285156 239.601562 L 94.441406 217.765625 L 97.273438 214.9375 L 106.917969 224.582031 C 107.289062 224.953125 107.769531 225.136719 108.253906 225.136719 C 108.738281 225.136719 109.222656 224.953125 109.589844 224.582031 C 110.328125 223.84375 110.328125 222.652344 109.589844 221.914062 L 99.941406 212.265625 L 102.847656 209.359375 L 124.691406 231.199219 C 125.777344 232.289062 127.203125 232.832031 128.640625 232.832031 C 130.089844 232.832031 131.542969 232.277344 132.660156 231.15625 C 134.847656 228.972656 134.847656 225.410156 132.660156 223.226562 L 110.820312 201.386719 L 113.335938 198.871094 L 122.984375 208.519531 C 123.351562 208.886719 123.835938 209.070312 124.316406 209.070312 C 124.800781 209.070312 125.285156 208.886719 125.652344 208.519531 C 126.390625 207.78125 126.390625 206.585938 125.652344 205.847656 L 116.003906 196.199219 L 118.765625 193.441406 L 134.765625 209.441406 C 135.824219 210.503906 137.234375 211.082031 138.734375 211.082031 C 140.230469 211.082031 141.640625 210.5 142.738281 209.398438 C 143.800781 208.339844 144.378906 206.929688 144.378906 205.433594 C 144.378906 203.933594 143.796875 202.523438 142.738281 201.464844 L 126.738281 185.464844 L 204.585938 107.617188 L 206.625 109.65625 C 207.359375 110.394531 208.328125 110.761719 209.296875 110.761719 C 210.261719 110.761719 211.230469 110.394531 211.964844 109.65625 L 229.476562 92.144531 C 229.480469 92.144531 229.480469 92.144531 229.480469 92.144531 C 229.484375 92.144531 229.484375 92.140625 229.484375 92.140625 L 251.636719 69.984375 C 251.636719 69.984375 251.636719 69.984375 251.640625 69.984375 C 251.640625 69.984375 251.640625 69.984375 251.640625 69.980469 L 264.1875 57.4375 C 270.078125 51.550781 270.078125 41.960938 264.1875 36.070312 Z M 91.375 255.421875 C 90.648438 256.152344 89.472656 256.148438 88.746094 255.421875 L 76.132812 242.8125 C 75.527344 242.207031 74.589844 242.085938 73.851562 242.511719 C 73.113281 242.9375 72.753906 243.808594 72.972656 244.632812 L 78.226562 264.253906 C 78.335938 264.644531 78.28125 265.050781 78.078125 265.398438 C 77.878906 265.75 77.550781 266 77.160156 266.105469 C 76.765625 266.210938 76.355469 266.152344 76.011719 265.953125 C 75.660156 265.753906 75.414062 265.425781 75.308594 265.035156 L 69.867188 244.738281 C 69.644531 243.910156 68.898438 243.335938 68.042969 243.335938 C 67.191406 243.335938 66.441406 243.910156 66.21875 244.738281 L 60.777344 265.039062 C 60.5625 265.84375 59.742188 266.328125 58.925781 266.109375 C 58.535156 266.003906 58.207031 265.753906 58.007812 265.402344 C 57.804688 265.050781 57.75 264.648438 57.855469 264.253906 L 63.296875 243.957031 C 63.515625 243.128906 63.15625 242.261719 62.417969 241.832031 C 62.121094 241.664062 61.796875 241.578125 61.472656 241.578125 C 60.984375 241.578125 60.5 241.769531 60.136719 242.132812 L 45.273438 256.996094 C 44.703125 257.566406 43.707031 257.570312 43.132812 256.992188 C 42.847656 256.710938 42.6875 256.328125 42.6875 255.925781 C 42.6875 255.523438 42.847656 255.144531 43.132812 254.859375 L 57.996094 239.992188 C 58.601562 239.390625 58.722656 238.453125 58.296875 237.714844 C 57.867188 236.972656 56.996094 236.609375 56.171875 236.835938 L 35.871094 242.273438 C 35.480469 242.378906 35.070312 242.324219 34.722656 242.125 C 34.375 241.921875 34.125 241.597656 34.019531 241.207031 C 33.804688 240.398438 34.285156 239.566406 35.089844 239.351562 L 55.390625 233.910156 C 56.21875 233.691406 56.789062 232.941406 56.789062 232.085938 C 56.789062 231.234375 56.21875 230.484375 55.390625 230.261719 L 35.089844 224.824219 C 34.703125 224.71875 34.375 224.46875 34.175781 224.117188 C 33.972656 223.765625 33.917969 223.363281 34.023438 222.96875 C 34.238281 222.164062 35.0625 221.683594 35.875 221.902344 L 55.492188 227.15625 C 56.320312 227.382812 57.191406 227.015625 57.617188 226.277344 C 58.046875 225.535156 57.921875 224.601562 57.316406 223.996094 L 44.707031 211.386719 C 43.980469 210.660156 43.980469 209.480469 44.707031 208.753906 C 45.4375 208.027344 46.613281 208.027344 47.339844 208.753906 L 91.375 252.792969 C 92.101562 253.515625 92.101562 254.699219 91.375 255.421875 Z M 75.398438 231.46875 L 68.648438 224.71875 L 71.789062 221.578125 L 78.539062 228.328125 Z M 81.207031 225.660156 L 74.457031 218.910156 L 77.050781 216.3125 L 83.800781 223.066406 Z M 114.148438 243.570312 C 114.148438 244.058594 113.957031 244.519531 113.570312 244.90625 C 112.855469 245.621094 111.695312 245.621094 110.980469 244.90625 L 55.222656 189.148438 C 54.507812 188.433594 54.507812 187.269531 55.261719 186.515625 C 55.617188 186.160156 56.089844 185.980469 56.558594 185.980469 C 57.027344 185.980469 57.496094 186.160156 57.855469 186.515625 L 113.613281 242.273438 C 113.957031 242.621094 114.148438 243.082031 114.148438 243.570312 Z M 91.773438 215.09375 L 85.023438 208.34375 L 87.851562 205.515625 L 94.601562 212.265625 Z M 97.269531 209.597656 L 90.519531 202.84375 L 93.425781 199.9375 L 100.175781 206.691406 Z M 129.949219 228.527344 C 129.234375 229.246094 128.070312 229.238281 127.355469 228.53125 L 71.597656 172.773438 C 70.882812 172.058594 70.882812 170.894531 71.636719 170.136719 C 71.996094 169.78125 72.464844 169.601562 72.9375 169.601562 C 73.40625 169.601562 73.875 169.78125 74.234375 170.136719 L 129.988281 225.894531 C 130.703125 226.613281 130.703125 227.773438 129.949219 228.527344 Z M 108.148438 198.71875 L 101.398438 191.96875 L 103.914062 189.449219 L 110.664062 196.199219 Z M 113.335938 193.53125 L 106.585938 186.78125 L 109.34375 184.019531 L 116.097656 190.769531 Z M 140.027344 206.769531 C 139.3125 207.488281 138.152344 207.488281 137.433594 206.769531 L 93.359375 162.6875 C 93.011719 162.34375 92.820312 161.882812 92.820312 161.394531 C 92.820312 160.90625 93.015625 160.445312 93.398438 160.058594 C 93.753906 159.703125 94.226562 159.523438 94.695312 159.523438 C 95.167969 159.523438 95.632812 159.703125 95.992188 160.058594 L 140.066406 204.136719 C 140.785156 204.851562 140.785156 206.015625 140.027344 206.769531 Z M 124.066406 182.800781 L 117.316406 176.046875 L 195.164062 98.203125 L 201.914062 104.953125 Z M 209.296875 106.992188 L 201.207031 98.90625 L 196.5 94.195312 L 193.125 90.820312 L 196.707031 87.238281 L 212.878906 103.410156 Z M 250.308594 65.980469 L 242.222656 57.894531 C 241.484375 57.15625 240.289062 57.15625 239.550781 57.894531 C 238.8125 58.632812 238.8125 59.828125 239.550781 60.566406 L 247.636719 68.652344 L 239.226562 77.0625 L 231.140625 68.976562 C 230.402344 68.238281 229.207031 68.238281 228.46875 68.976562 C 227.730469 69.714844 227.730469 70.90625 228.46875 71.644531 L 236.558594 79.730469 L 228.144531 88.140625 L 220.0625 80.054688 C 219.324219 79.316406 218.128906 79.316406 217.390625 80.054688 C 216.652344 80.792969 216.652344 81.988281 217.390625 82.726562 L 225.476562 90.8125 L 215.546875 100.742188 L 199.375 84.570312 L 245.347656 38.597656 C 247.558594 36.386719 250.460938 35.285156 253.363281 35.285156 C 256.265625 35.285156 259.167969 36.386719 261.378906 38.597656 L 261.519531 38.738281 C 265.9375 43.15625 265.9375 50.347656 261.519531 54.769531 Z M 250.308594 65.980469 " fill-opacity="1" fill-rule="nonzero"/><path fill="#a9a0f0" d="M 247.40625 42.488281 C 244.585938 45.304688 244.585938 49.894531 247.40625 52.710938 C 248.8125 54.117188 250.664062 54.824219 252.515625 54.824219 C 254.367188 54.824219 256.21875 54.117188 257.628906 52.710938 C 260.445312 49.894531 260.445312 45.304688 257.628906 42.488281 C 254.8125 39.671875 250.222656 39.671875 247.40625 42.488281 Z M 254.957031 50.039062 C 253.613281 51.386719 251.421875 51.386719 250.074219 50.039062 C 248.730469 48.695312 248.730469 46.503906 250.074219 45.160156 C 250.746094 44.488281 251.632812 44.152344 252.515625 44.152344 C 253.398438 44.152344 254.285156 44.488281 254.957031 45.160156 C 256.300781 46.503906 256.300781 48.695312 254.957031 50.039062 Z M 254.957031 50.039062 " fill-opacity="1" fill-rule="nonzero"/></svg>