<svg xmlns="http://www.w3.org/2000/svg" xmlns:xlink="http://www.w3.org/1999/xlink" width="400" zoomAndPan="magnify" viewBox="0 0 300 299.999988" height="400" preserveAspectRatio="xMidYMid meet" version="1.0"><defs><clipPath id="97f412257f"><path d="M 158.144531 39.070312 L 247.023438 39.070312 L 247.023438 98.285156 L 158.144531 98.285156 Z M 158.144531 39.070312 " clip-rule="nonzero"/></clipPath><clipPath id="32433b190d"><path d="M 148.488281 93.246094 L 244 93.246094 L 244 269.957031 L 148.488281 269.957031 Z M 148.488281 93.246094 " clip-rule="nonzero"/></clipPath></defs><path fill="#a9a0f0" d="M 98.429688 178.84375 C 97.863281 178.84375 97.296875 178.628906 96.863281 178.191406 C 96 177.332031 96 175.925781 96.863281 175.058594 L 101.074219 170.855469 C 101.9375 169.988281 103.339844 169.988281 104.203125 170.855469 C 105.070312 171.714844 105.070312 173.121094 104.203125 173.984375 L 99.992188 178.191406 C 99.558594 178.628906 98.996094 178.84375 98.429688 178.84375 " fill-opacity="1" fill-rule="nonzero"/><path fill="#a9a0f0" d="M 86.347656 178.84375 C 85.785156 178.84375 85.21875 178.628906 84.785156 178.191406 L 80.574219 173.984375 C 79.710938 173.121094 79.710938 171.714844 80.574219 170.855469 C 81.441406 169.988281 82.839844 169.988281 83.707031 170.855469 L 87.917969 175.058594 C 88.78125 175.925781 88.78125 177.332031 87.917969 178.191406 C 87.484375 178.628906 86.914062 178.84375 86.347656 178.84375 " fill-opacity="1" fill-rule="nonzero"/><path fill="#a9a0f0" d="M 82.140625 195.132812 C 81.574219 195.132812 81.003906 194.910156 80.574219 194.480469 C 79.710938 193.613281 79.710938 192.214844 80.574219 191.351562 L 84.785156 187.140625 C 85.648438 186.277344 87.050781 186.277344 87.917969 187.140625 C 88.78125 188.007812 88.78125 189.410156 87.917969 190.273438 L 83.707031 194.480469 C 83.277344 194.910156 82.710938 195.132812 82.140625 195.132812 " fill-opacity="1" fill-rule="nonzero"/><path fill="#a9a0f0" d="M 102.636719 195.132812 C 102.070312 195.132812 101.503906 194.910156 101.074219 194.480469 L 96.863281 190.273438 C 96 189.410156 96 188.007812 96.863281 187.140625 C 97.726562 186.277344 99.128906 186.277344 99.992188 187.140625 L 104.203125 191.351562 C 105.070312 192.214844 105.070312 193.613281 104.203125 194.480469 C 103.773438 194.910156 103.207031 195.132812 102.636719 195.132812 " fill-opacity="1" fill-rule="nonzero"/><path fill="#a9a0f0" d="M 68.316406 48.421875 C 67.746094 48.421875 67.183594 48.207031 66.753906 47.769531 C 65.882812 46.910156 65.882812 45.507812 66.753906 44.640625 L 70.097656 41.296875 C 70.960938 40.433594 72.363281 40.433594 73.226562 41.296875 C 74.09375 42.164062 74.09375 43.566406 73.226562 44.425781 L 69.882812 47.769531 C 69.449219 48.207031 68.882812 48.421875 68.316406 48.421875 " fill-opacity="1" fill-rule="nonzero"/><path fill="#a9a0f0" d="M 58.71875 48.421875 C 58.152344 48.421875 57.585938 48.207031 57.152344 47.769531 L 53.808594 44.425781 C 52.945312 43.566406 52.945312 42.164062 53.808594 41.296875 C 54.671875 40.433594 56.074219 40.433594 56.9375 41.296875 L 60.285156 44.640625 C 61.144531 45.507812 61.144531 46.910156 60.285156 47.769531 C 59.851562 48.207031 59.28125 48.421875 58.71875 48.421875 " fill-opacity="1" fill-rule="nonzero"/><path fill="#a9a0f0" d="M 55.371094 61.363281 C 54.808594 61.363281 54.242188 61.148438 53.808594 60.71875 C 52.945312 59.851562 52.945312 58.449219 53.808594 57.585938 L 57.152344 54.242188 C 58.015625 53.375 59.417969 53.375 60.285156 54.242188 C 61.144531 55.105469 61.144531 56.507812 60.285156 57.375 L 56.9375 60.71875 C 56.503906 61.148438 55.9375 61.363281 55.371094 61.363281 " fill-opacity="1" fill-rule="nonzero"/><path fill="#a9a0f0" d="M 71.660156 61.363281 C 71.089844 61.363281 70.527344 61.148438 70.097656 60.71875 L 66.753906 57.375 C 65.882812 56.507812 65.882812 55.105469 66.753906 54.242188 C 67.613281 53.375 69.019531 53.375 69.882812 54.242188 L 73.226562 57.585938 C 74.09375 58.449219 74.09375 59.851562 73.226562 60.71875 C 72.796875 61.148438 72.226562 61.363281 71.660156 61.363281 " fill-opacity="1" fill-rule="nonzero"/><path fill="#a9a0f0" d="M 146.484375 58.335938 L 158.238281 58.335938 L 158.238281 43.675781 L 146.484375 43.675781 Z M 160.453125 62.765625 L 144.269531 62.765625 C 143.046875 62.765625 142.050781 61.769531 142.050781 60.550781 L 142.050781 41.464844 C 142.050781 40.242188 143.046875 39.25 144.269531 39.25 L 160.453125 39.25 C 161.675781 39.25 162.667969 40.242188 162.667969 41.464844 L 162.667969 60.550781 C 162.667969 61.769531 161.675781 62.765625 160.453125 62.765625 " fill-opacity="1" fill-rule="nonzero"/><g clip-path="url(#97f412257f)"><path fill="#a9a0f0" d="M 218.65625 98.089844 L 186.8125 98.089844 C 185.59375 98.089844 184.597656 97.09375 184.597656 95.871094 L 184.597656 79.582031 C 184.597656 70.304688 177.058594 62.765625 167.78125 62.765625 L 160.453125 62.765625 C 159.230469 62.765625 158.238281 61.769531 158.238281 60.550781 C 158.238281 59.324219 159.230469 58.335938 160.453125 58.335938 L 167.78125 58.335938 C 179.496094 58.335938 189.027344 67.871094 189.027344 79.582031 L 189.027344 93.65625 L 216.441406 93.65625 L 216.441406 79.210938 C 216.441406 74.734375 220.085938 71.09375 224.566406 71.09375 L 240.832031 71.09375 L 238.046875 66.59375 C 229.160156 52.246094 213.785156 43.675781 196.90625 43.675781 L 160.453125 43.675781 C 159.230469 43.675781 158.238281 42.6875 158.238281 41.464844 C 158.238281 40.242188 159.230469 39.25 160.453125 39.25 L 196.90625 39.25 C 215.328125 39.25 232.113281 48.597656 241.8125 64.261719 L 246.691406 72.140625 C 247.113281 72.820312 247.132812 73.679688 246.742188 74.382812 C 246.351562 75.085938 245.613281 75.523438 244.804688 75.523438 L 224.566406 75.523438 C 222.527344 75.523438 220.871094 77.179688 220.871094 79.210938 L 220.871094 95.871094 C 220.871094 97.09375 219.882812 98.089844 218.65625 98.089844 " fill-opacity="1" fill-rule="nonzero"/></g><path fill="#a9a0f0" d="M 221.332031 62.765625 C 220.859375 62.765625 220.382812 62.613281 219.972656 62.296875 C 214.867188 58.320312 208.757812 55.734375 202.316406 54.816406 C 201.105469 54.644531 200.265625 53.519531 200.4375 52.308594 C 200.613281 51.097656 201.734375 50.257812 202.945312 50.429688 C 210.148438 51.457031 216.976562 54.355469 222.695312 58.800781 C 223.65625 59.550781 223.832031 60.941406 223.085938 61.90625 C 222.644531 62.472656 221.992188 62.765625 221.332031 62.765625 " fill-opacity="1" fill-rule="nonzero"/><path fill="#a9a0f0" d="M 218.65625 81.425781 L 186.8125 81.425781 C 185.59375 81.425781 184.597656 80.433594 184.597656 79.210938 C 184.597656 77.992188 185.59375 77 186.8125 77 L 218.65625 77 C 219.882812 77 220.871094 77.992188 220.871094 79.210938 C 220.871094 80.433594 219.882812 81.425781 218.65625 81.425781 " fill-opacity="1" fill-rule="nonzero"/><g clip-path="url(#32433b190d)"><path fill="#a9a0f0" d="M 184.964844 98.089844 C 184.296875 98.089844 183.753906 98.628906 183.753906 99.292969 L 183.753906 141.296875 C 183.753906 145.859375 181.875 150.300781 178.601562 153.472656 L 161.207031 170.34375 C 156.183594 175.210938 153.3125 182.011719 153.3125 189 L 153.3125 254.3125 C 153.3125 260.496094 158.34375 265.53125 164.523438 265.53125 L 228.195312 265.53125 C 231.277344 265.53125 234.152344 264.304688 236.285156 262.089844 C 238.421875 259.867188 239.527344 256.957031 239.410156 253.886719 C 238.15625 221.421875 235.171875 183.234375 222.542969 146.089844 C 221.921875 144.273438 221.609375 142.40625 221.613281 140.539062 L 221.707031 99.296875 C 221.707031 98.972656 221.582031 98.671875 221.355469 98.441406 C 221.125 98.210938 220.820312 98.089844 220.503906 98.089844 Z M 228.195312 269.957031 L 164.523438 269.957031 C 155.898438 269.957031 148.882812 262.941406 148.882812 254.3125 L 148.882812 189 C 148.882812 180.816406 152.25 172.859375 158.125 167.160156 L 175.519531 150.292969 C 177.941406 147.945312 179.328125 144.664062 179.328125 141.296875 L 179.328125 99.292969 C 179.328125 96.1875 181.855469 93.65625 184.964844 93.65625 L 220.503906 93.65625 C 222.007812 93.65625 223.425781 94.242188 224.488281 95.308594 C 225.554688 96.378906 226.140625 97.796875 226.132812 99.308594 L 226.046875 140.546875 C 226.042969 141.925781 226.273438 143.3125 226.730469 144.664062 C 239.550781 182.347656 242.570312 220.933594 243.835938 253.710938 C 244.003906 258 242.453125 262.066406 239.480469 265.152344 C 236.5 268.253906 232.496094 269.957031 228.195312 269.957031 " fill-opacity="1" fill-rule="nonzero"/></g><path fill="#a9a0f0" d="M 230.875 256.425781 C 229.695312 256.425781 228.710938 255.492188 228.667969 254.300781 C 228.59375 252.4375 228.515625 250.558594 228.429688 248.664062 C 228.375 247.441406 229.320312 246.40625 230.542969 246.351562 C 231.738281 246.296875 232.796875 247.242188 232.855469 248.464844 C 232.941406 250.371094 233.015625 252.261719 233.089844 254.128906 C 233.136719 255.351562 232.183594 256.378906 230.960938 256.425781 C 230.933594 256.425781 230.902344 256.425781 230.875 256.425781 " fill-opacity="1" fill-rule="nonzero"/><path fill="#a9a0f0" d="M 230.105469 240.429688 C 228.945312 240.429688 227.964844 239.519531 227.898438 238.347656 C 227.140625 225.558594 226.066406 214.136719 224.617188 203.425781 C 224.453125 202.210938 225.300781 201.097656 226.511719 200.933594 C 227.71875 200.769531 228.839844 201.617188 229.003906 202.828125 C 230.46875 213.652344 231.558594 225.1875 232.316406 238.085938 C 232.390625 239.304688 231.460938 240.355469 230.238281 240.425781 C 230.195312 240.429688 230.144531 240.429688 230.105469 240.429688 " fill-opacity="1" fill-rule="nonzero"/><path fill="#a9a0f0" d="M 172.226562 173.765625 C 171.648438 173.765625 171.070312 173.539062 170.640625 173.09375 C 169.785156 172.21875 169.804688 170.816406 170.6875 169.964844 L 183.007812 158.015625 C 186.09375 155.015625 188.300781 151.203125 189.367188 146.984375 C 189.671875 145.796875 190.875 145.078125 192.058594 145.382812 C 193.246094 145.683594 193.960938 146.886719 193.660156 148.074219 C 192.386719 153.089844 189.769531 157.628906 186.085938 161.195312 L 173.769531 173.140625 C 173.339844 173.558594 172.78125 173.765625 172.226562 173.765625 " fill-opacity="1" fill-rule="nonzero"/><path fill="#a9a0f0" d="M 148.011719 107.789062 C 147.332031 107.789062 146.660156 107.46875 146.230469 106.886719 C 145.59375 106.027344 145.664062 104.824219 146.40625 104.050781 C 161.328125 88.3125 165.550781 60.507812 165.589844 60.226562 C 165.769531 59.023438 166.886719 58.179688 168.101562 58.363281 C 169.308594 58.535156 170.148438 59.660156 169.976562 60.871094 C 169.828125 61.859375 166.855469 81.539062 156.730469 97.78125 C 163.550781 93.171875 172.058594 86.203125 175.625 78.300781 C 176.125 77.183594 177.4375 76.691406 178.550781 77.195312 C 179.664062 77.695312 180.164062 79.007812 179.660156 80.125 C 172.667969 95.636719 149.957031 107.074219 149 107.558594 C 148.683594 107.710938 148.347656 107.789062 148.011719 107.789062 " fill-opacity="1" fill-rule="nonzero"/><path fill="#a9a0f0" d="M 223.90625 109.054688 L 215.917969 109.054688 C 214.691406 109.054688 213.703125 108.058594 213.703125 106.839844 C 213.703125 105.613281 214.691406 104.625 215.917969 104.625 L 223.90625 104.625 C 225.128906 104.625 226.117188 105.613281 226.117188 106.839844 C 226.117188 108.058594 225.128906 109.054688 223.90625 109.054688 " fill-opacity="1" fill-rule="nonzero"/><path fill="#a9a0f0" d="M 204.84375 109.054688 L 181.542969 109.054688 C 180.324219 109.054688 179.328125 108.058594 179.328125 106.839844 C 179.328125 105.613281 180.324219 104.625 181.542969 104.625 L 204.84375 104.625 C 206.066406 104.625 207.0625 105.613281 207.0625 106.839844 C 207.0625 108.058594 206.066406 109.054688 204.84375 109.054688 " fill-opacity="1" fill-rule="nonzero"/><path fill="#a9a0f0" d="M 92.707031 51.011719 C 92.707031 49.78125 93.695312 48.792969 94.921875 48.792969 C 96.144531 48.792969 97.140625 49.78125 97.140625 51.011719 C 97.140625 52.230469 96.144531 53.226562 94.921875 53.226562 C 93.695312 53.226562 92.707031 52.230469 92.707031 51.011719 Z M 105.359375 51.011719 C 105.359375 49.78125 106.347656 48.792969 107.574219 48.792969 C 108.796875 48.792969 109.792969 49.78125 109.792969 51.011719 C 109.792969 52.230469 108.796875 53.226562 107.574219 53.226562 C 106.347656 53.226562 105.359375 52.230469 105.359375 51.011719 Z M 118.015625 51.011719 C 118.015625 49.78125 119.003906 48.792969 120.226562 48.792969 C 121.449219 48.792969 122.441406 49.78125 122.441406 51.011719 C 122.441406 52.230469 121.449219 53.226562 120.226562 53.226562 C 119.003906 53.226562 118.015625 52.230469 118.015625 51.011719 Z M 130.667969 51.011719 C 130.667969 49.78125 131.65625 48.792969 132.882812 48.792969 C 134.105469 48.792969 135.09375 49.78125 135.09375 51.011719 C 135.09375 52.230469 134.105469 53.226562 132.882812 53.226562 C 131.65625 53.226562 130.667969 52.230469 130.667969 51.011719 " fill-opacity="1" fill-rule="nonzero"/><path fill="#a9a0f0" d="M 95.277344 34.636719 C 94.230469 34.414062 93.515625 33.492188 93.523438 32.457031 C 93.523438 32.3125 93.535156 32.164062 93.566406 32.011719 C 93.820312 30.816406 94.996094 30.046875 96.191406 30.300781 C 97.238281 30.523438 97.960938 31.453125 97.949219 32.480469 C 97.949219 32.632812 97.933594 32.777344 97.902344 32.925781 C 97.679688 33.96875 96.765625 34.6875 95.738281 34.6875 C 95.585938 34.6875 95.433594 34.667969 95.277344 34.636719 Z M 107.664062 37.25 C 106.625 37.027344 105.914062 36.117188 105.90625 35.097656 C 105.898438 34.941406 105.917969 34.78125 105.949219 34.625 C 106.199219 33.429688 107.378906 32.664062 108.574219 32.914062 C 109.613281 33.128906 110.328125 34.050781 110.335938 35.066406 C 110.335938 35.222656 110.3125 35.378906 110.285156 35.539062 C 110.0625 36.578125 109.148438 37.296875 108.121094 37.296875 C 107.96875 37.296875 107.816406 37.28125 107.664062 37.25 Z M 120.039062 39.863281 C 118.996094 39.640625 118.28125 38.707031 118.285156 37.679688 C 118.285156 37.535156 118.296875 37.386719 118.328125 37.234375 C 118.585938 36.039062 119.761719 35.277344 120.957031 35.527344 C 122 35.746094 122.722656 36.667969 122.714844 37.703125 C 122.714844 37.847656 122.695312 38 122.664062 38.148438 C 122.441406 39.191406 121.523438 39.902344 120.503906 39.902344 C 120.351562 39.902344 120.195312 39.894531 120.039062 39.863281 Z M 132.417969 42.464844 C 131.382812 42.25 130.671875 41.34375 130.667969 40.324219 C 130.667969 40.167969 130.679688 40.003906 130.710938 39.847656 C 130.964844 38.652344 132.140625 37.886719 133.339844 38.140625 C 134.382812 38.359375 135.101562 39.285156 135.09375 40.316406 C 135.09375 40.460938 135.074219 40.609375 135.042969 40.757812 C 134.824219 41.804688 133.90625 42.519531 132.882812 42.519531 C 132.730469 42.519531 132.574219 42.507812 132.417969 42.464844 " fill-opacity="1" fill-rule="nonzero"/><path fill="#a9a0f0" d="M 130.710938 62.160156 C 130.679688 62.003906 130.667969 61.847656 130.667969 61.691406 C 130.671875 60.679688 131.382812 59.757812 132.417969 59.542969 C 133.621094 59.292969 134.792969 60.058594 135.042969 61.25 C 135.074219 61.402344 135.09375 61.546875 135.09375 61.699219 C 135.101562 62.726562 134.382812 63.65625 133.339844 63.878906 C 133.179688 63.910156 133.027344 63.917969 132.878906 63.917969 C 131.851562 63.917969 130.933594 63.207031 130.710938 62.160156 Z M 118.328125 64.777344 C 118.296875 64.628906 118.285156 64.476562 118.285156 64.332031 C 118.28125 63.296875 118.996094 62.375 120.039062 62.15625 C 121.242188 61.90625 122.414062 62.667969 122.664062 63.863281 C 122.695312 64.007812 122.714844 64.160156 122.714844 64.308594 C 122.722656 65.335938 122 66.269531 120.957031 66.492188 C 120.804688 66.523438 120.644531 66.53125 120.496094 66.53125 C 119.46875 66.53125 118.554688 65.820312 118.328125 64.777344 Z M 105.949219 67.386719 C 105.917969 67.230469 105.898438 67.070312 105.90625 66.914062 C 105.914062 65.894531 106.625 64.984375 107.664062 64.765625 C 108.863281 64.515625 110.03125 65.28125 110.285156 66.476562 C 110.3125 66.632812 110.335938 66.792969 110.335938 66.945312 C 110.328125 67.972656 109.613281 68.878906 108.574219 69.09375 C 108.421875 69.128906 108.265625 69.148438 108.113281 69.148438 C 107.089844 69.148438 106.167969 68.433594 105.949219 67.386719 Z M 93.566406 70.003906 C 93.535156 69.851562 93.523438 69.699219 93.523438 69.550781 C 93.515625 68.527344 94.230469 67.597656 95.277344 67.375 C 96.476562 67.121094 97.648438 67.886719 97.902344 69.082031 C 97.933594 69.234375 97.949219 69.390625 97.949219 69.53125 C 97.960938 70.558594 97.238281 71.488281 96.191406 71.707031 C 96.039062 71.738281 95.882812 71.757812 95.730469 71.757812 C 94.707031 71.757812 93.792969 71.046875 93.566406 70.003906 " fill-opacity="1" fill-rule="nonzero"/><path fill="#a9a0f0" d="M 72.585938 109.054688 C 68.804688 109.054688 65.730469 112.128906 65.730469 115.90625 C 65.730469 119.683594 68.804688 122.757812 72.585938 122.757812 C 76.363281 122.757812 79.4375 119.683594 79.4375 115.90625 C 79.4375 112.128906 76.363281 109.054688 72.585938 109.054688 Z M 72.585938 127.1875 C 66.363281 127.1875 61.304688 122.128906 61.304688 115.90625 C 61.304688 109.683594 66.363281 104.625 72.585938 104.625 C 78.808594 104.625 83.863281 109.683594 83.863281 115.90625 C 83.863281 122.128906 78.808594 127.1875 72.585938 127.1875 " fill-opacity="1" fill-rule="nonzero"/><path fill="#a9a0f0" d="M 139.414062 145.109375 C 137.035156 145.109375 135.09375 147.054688 135.09375 149.433594 C 135.09375 151.820312 137.035156 153.757812 139.414062 153.757812 C 141.800781 153.757812 143.738281 151.820312 143.738281 149.433594 C 143.738281 147.054688 141.800781 145.109375 139.414062 145.109375 Z M 139.414062 158.1875 C 134.589844 158.1875 130.664062 154.261719 130.664062 149.433594 C 130.664062 144.609375 134.589844 140.683594 139.414062 140.683594 C 144.238281 140.683594 148.167969 144.609375 148.167969 149.433594 C 148.167969 154.261719 144.238281 158.1875 139.414062 158.1875 " fill-opacity="1" fill-rule="nonzero"/></svg>