<svg xmlns="http://www.w3.org/2000/svg" xmlns:xlink="http://www.w3.org/1999/xlink" width="400" zoomAndPan="magnify" viewBox="0 0 300 299.999988" height="400" preserveAspectRatio="xMidYMid meet" version="1.0"><defs><clipPath id="6d0f358f41"><path d="M 75.1875 30.007812 L 230.25 30.007812 L 230.25 153.242188 L 75.1875 153.242188 Z M 75.1875 30.007812 " clip-rule="nonzero"/></clipPath><clipPath id="28e30e27ad"><path d="M 69.75 81.171875 L 205.972656 81.171875 L 205.972656 269.992188 L 69.75 269.992188 Z M 69.75 81.171875 " clip-rule="nonzero"/></clipPath></defs><g clip-path="url(#6d0f358f41)"><path fill="currentColor" d="M 212.980469 72.375 C 213.535156 72.679688 213.574219 73.292969 213.652344 73.851562 C 209.578125 73.78125 205.34375 70.972656 201.941406 71.164062 C 204.09375 72.617188 215.292969 75.800781 217.839844 75.347656 C 218.152344 75.273438 218.078125 75.144531 218.226562 74.699219 C 218.578125 73.621094 218.839844 72.597656 219.089844 71.492188 C 217.007812 70.914062 214.898438 70.46875 212.8125 69.914062 C 206.636719 68.242188 199.910156 66.59375 193.933594 64.402344 C 193.914062 64.394531 192.332031 63.867188 193.046875 63.917969 C 194.160156 64.058594 196.507812 64.765625 197.796875 65.070312 C 201.476562 65.941406 204.90625 66.71875 208.535156 67.816406 C 209.691406 68.164062 219.292969 71.160156 219.777344 70.195312 C 219.929688 69.894531 220.347656 68.847656 220.015625 68.523438 C 219.480469 68 207.652344 65.296875 205.917969 64.875 C 201.042969 63.691406 180.464844 58.828125 178.699219 55.605469 C 178.496094 55.164062 180.921875 55.960938 181.113281 56.042969 C 183.425781 57.070312 184.652344 58.289062 187.324219 58.230469 C 188.882812 58.191406 190.675781 59.355469 192.195312 59.953125 C 196.503906 61.652344 201.933594 62.5 206.511719 63.691406 C 209.09375 64.363281 211.15625 65.074219 213.832031 65.550781 C 215.296875 65.8125 216.21875 66.050781 217.640625 66.425781 C 219.664062 66.960938 221.980469 67.417969 222.605469 64.761719 C 223.097656 62.65625 220.382812 62.75 218.902344 62.632812 C 216.738281 62.457031 215.714844 62.292969 213.609375 61.832031 C 212.238281 61.535156 211.179688 61.292969 209.765625 61.398438 C 208.355469 61.507812 203.449219 60.277344 201.753906 59.914062 C 197.535156 59.007812 192.074219 57.960938 188.394531 55.78125 C 185.9375 54.324219 182.535156 54.917969 180.820312 52.902344 C 180.621094 52.628906 181.011719 52.046875 181.675781 52.21875 C 182.21875 52.359375 183.527344 52.925781 184.15625 53.140625 C 187.109375 54.167969 189.546875 54.882812 192.566406 55.683594 C 195.960938 56.582031 199.46875 57.582031 202.863281 58.410156 C 204.609375 58.835938 206.171875 58.445312 207.679688 59.144531 C 208.328125 59.445312 208.773438 59.292969 209.421875 59.199219 C 210.246094 59.082031 209.265625 59.082031 209.167969 59.109375 C 210.394531 59.089844 209.066406 59.945312 211.605469 60.441406 C 213.390625 60.792969 214.777344 60.746094 216.414062 61 C 218.015625 61.246094 218.894531 62.039062 220.882812 62.296875 C 221.566406 62.382812 223.140625 62.808594 223.585938 62.125 C 224.15625 61.257812 223.773438 60.953125 225.125 60.585938 C 224.980469 61.320312 224 64.96875 223.722656 65.441406 C 223.175781 66.375 222.5625 67.058594 221.988281 68.132812 C 220.445312 71.035156 219.320312 74.582031 218.152344 77.679688 C 216.605469 81.703125 214.824219 85.464844 213.691406 89.664062 C 213.011719 92.292969 211.988281 94.226562 211.050781 96.707031 C 210.886719 97.148438 210.511719 98.589844 210.085938 97.402344 C 209.726562 96.398438 210.308594 96.492188 208.734375 95.726562 C 207.082031 94.925781 205.214844 94.277344 203.5 93.589844 C 201.167969 92.617188 198.972656 91.507812 196.613281 90.539062 C 194.945312 89.859375 189.195312 87.640625 188.203125 86.40625 C 190.386719 87.058594 192.261719 87.902344 194.386719 88.65625 C 196.847656 89.527344 198.871094 90.648438 201.382812 91.511719 C 201.730469 91.628906 202.628906 92.277344 203.125 92.527344 C 204.109375 93.015625 209.535156 95.445312 210.28125 94.960938 C 210.875 94.191406 212.484375 89.953125 211.8125 89.316406 C 211.257812 88.792969 206.390625 87.601562 205.160156 87.117188 C 203.347656 86.394531 202.085938 85.855469 200.179688 85.285156 C 199.074219 84.953125 197.851562 84.289062 196.75 83.820312 C 195.164062 83.144531 193.742188 82.511719 192.089844 81.980469 C 186.761719 80.304688 181.90625 78.335938 176.699219 76.417969 C 175.984375 76.15625 169.046875 73.480469 169.199219 75.222656 C 169.289062 76.210938 172.34375 77.058594 173.269531 77.410156 C 174.144531 77.746094 174.929688 78.074219 175.773438 78.480469 C 172.316406 79.042969 174.214844 77.664062 171.179688 77.140625 C 168.308594 76.648438 168.511719 76.609375 167.230469 78.957031 C 166.714844 79.90625 164.960938 83.175781 165.246094 84.1875 C 165.429688 84.347656 170.996094 86.273438 167.621094 86.117188 C 164.53125 85.972656 164.589844 84.339844 163.292969 88.324219 C 162.035156 92.183594 160.34375 95.191406 158.613281 98.835938 C 157.964844 100.210938 155.386719 105.507812 155.527344 106.875 L 155.675781 107.148438 C 156.414062 107.628906 159.515625 108.894531 160.523438 109.339844 C 163.3125 110.578125 166.070312 111.976562 169.058594 112.671875 C 169.398438 112.75 170.167969 113.304688 170.578125 113.511719 C 174.300781 115.375 178.796875 116.25 182.746094 117.898438 C 185.394531 119.003906 188.332031 120.105469 190.90625 121.304688 C 191.480469 121.574219 192.011719 121.898438 192.546875 122.238281 C 191.378906 122.390625 191.121094 122.222656 190.023438 121.964844 C 191.742188 124.109375 194.910156 124.488281 195.925781 126.25 C 195.414062 126.871094 191.519531 124.164062 190.839844 123.789062 C 188.21875 122.351562 185.210938 120.902344 182.507812 119.566406 C 180.078125 118.363281 178.144531 117.625 175.613281 116.699219 C 173.535156 115.941406 171.519531 114.792969 169.367188 113.957031 C 165.054688 112.277344 160.035156 110.535156 156.058594 108.253906 C 155.648438 108.019531 155.417969 107.925781 154.964844 107.785156 C 154.058594 109.058594 153.960938 110.035156 153.121094 111.320312 C 151.632812 113.605469 149.902344 118.96875 148.859375 121.730469 C 148.296875 123.210938 147.703125 125.046875 146.875 126.367188 C 145.710938 128.214844 145.621094 130.429688 144.421875 132.441406 L 144.261719 132.6875 C 142.464844 132.324219 141.882812 131.933594 140.285156 131.066406 C 134.890625 128.109375 130.261719 125.3125 125.964844 120.828125 C 124.65625 119.460938 123.253906 118.585938 122.117188 117.1875 C 120.78125 115.535156 119.519531 114.316406 118.164062 112.765625 C 116.355469 110.699219 114.773438 108.566406 113.5625 106.097656 C 112.570312 104.078125 111.246094 102.722656 110.28125 100.507812 C 108.285156 95.925781 106.914062 89.726562 105.792969 84.800781 C 105.207031 82.21875 105.402344 79.5625 105.199219 76.890625 C 104.960938 73.742188 105.550781 70.277344 105.835938 67.117188 C 105.859375 66.828125 105.886719 66.566406 105.855469 66.28125 C 105.480469 65.09375 97.46875 62.222656 96.015625 61.625 C 92.445312 60.164062 89.316406 58.101562 85.839844 56.433594 C 82.242188 54.722656 78.726562 52.78125 76.382812 49.433594 C 75.050781 47.40625 74.917969 45.238281 75.613281 42.9375 C 76.3125 40.609375 79.222656 38.117188 81.628906 37.753906 C 86.046875 37.082031 91.757812 39.355469 95.679688 41.292969 C 98.585938 42.730469 101.371094 44.273438 104.355469 45.5625 C 107.003906 46.691406 109.410156 48.089844 111.964844 49.394531 C 114.859375 50.757812 114.550781 49.21875 116.652344 47.34375 C 117.492188 46.597656 118.304688 45.992188 119.160156 45.199219 C 120.566406 43.925781 122.800781 42.210938 124.359375 41.097656 C 128.382812 38.226562 132.054688 37.09375 136.53125 35.269531 C 144.101562 32.1875 151.203125 31.554688 159.121094 30.207031 C 159.601562 30.125 161.792969 30.164062 162.523438 30.128906 C 169.28125 29.800781 175.972656 30.003906 182.367188 32.445312 C 183.484375 32.871094 186.746094 33.992188 187.261719 34.996094 C 188.027344 36.480469 187.140625 36.035156 189.019531 36.667969 C 190.222656 37.074219 194.867188 38.546875 195.65625 39.019531 C 198.128906 40.410156 205.652344 42.234375 208.777344 43.144531 C 212.0625 44.097656 214.984375 45.34375 218.375 46.195312 C 219.898438 46.578125 229.785156 48.949219 230.253906 49.875 C 230.203125 49.921875 223.730469 48.613281 223.132812 48.445312 C 220.71875 47.757812 218.089844 46.820312 215.667969 46.042969 C 211.605469 44.738281 207.636719 43.589844 203.570312 42.363281 C 199.632812 41.175781 195.75 39.871094 191.78125 38.769531 C 190.25 38.347656 189.445312 37.898438 188.035156 37.273438 C 186.792969 36.738281 186.582031 37.019531 185.996094 38.167969 C 183.816406 42.433594 181.6875 46.386719 179.722656 50.785156 C 178.550781 53.402344 177.425781 56.042969 176.242188 58.660156 C 174.449219 62.605469 172.484375 66.710938 170.816406 70.6875 C 170.402344 71.667969 170.277344 72.164062 170.230469 73.234375 C 173.015625 74.667969 176.863281 75.789062 179.894531 76.832031 C 183.867188 78.199219 188.480469 79.089844 192.609375 80.09375 C 197.667969 81.328125 202.765625 82.578125 207.8125 83.863281 C 208.566406 84.054688 210.082031 84.359375 210.273438 85.226562 C 210.140625 86.199219 205.363281 84.683594 204.664062 84.441406 C 203.804688 84.144531 202.679688 83.691406 201.765625 83.722656 C 201.5625 84.304688 202.578125 85.378906 203.609375 84.855469 C 203.972656 84.675781 204.703125 85.925781 205.394531 86.320312 C 206.253906 86.816406 212.511719 89.261719 213.03125 88.554688 C 213.5 87.714844 216.070312 81.085938 216.097656 80.386719 C 216.132812 79.460938 214.488281 79.453125 213.746094 79.320312 C 212.679688 79.121094 201.960938 77.011719 202.324219 76.390625 C 202.773438 76.371094 209.621094 78.09375 210.5 78.28125 C 211.664062 78.535156 215.292969 79.351562 216.363281 78.945312 C 217.023438 78.601562 217.152344 77.816406 217.09375 77.144531 C 217.066406 76.78125 216.773438 76.6875 216.410156 76.519531 C 214.132812 75.539062 210.855469 75.132812 208.304688 74.324219 C 204.5625 73.132812 200.871094 71.792969 197.136719 70.585938 C 201.5625 72.347656 206.371094 74.410156 210.902344 75.761719 C 211.410156 75.910156 214.597656 76.804688 214.386719 77.558594 C 213.992188 78.953125 196.636719 72.171875 194.566406 71.355469 C 190.035156 69.566406 185.382812 67.71875 180.902344 65.820312 C 180.402344 65.605469 176.328125 63.941406 176.761719 63.160156 C 177.160156 62.4375 183.558594 65.34375 184.65625 65.785156 C 188.597656 67.367188 192.574219 68.839844 196.539062 70.363281 C 195.601562 70.003906 191.355469 68.660156 191.582031 67.425781 C 191.683594 66.894531 191.847656 67.003906 192.511719 67.078125 C 195.765625 67.433594 201.652344 69.773438 205.082031 70.785156 C 207.683594 71.554688 210.226562 71.652344 212.71875 72.292969 Z M 186.464844 42.507812 C 186.898438 42.871094 187.332031 43.226562 187.769531 43.578125 C 187.480469 43.863281 187.484375 43.738281 186.878906 43.617188 C 184.230469 43.09375 185.164062 41.425781 186.464844 42.507812 Z M 188.859375 65.867188 C 189.496094 65.90625 191.292969 66.039062 191.328125 66.902344 C 191.34375 67.324219 191.046875 67.21875 190.476562 67.242188 C 189.667969 67.28125 188.585938 66.90625 188.652344 65.914062 Z M 160.691406 130.234375 C 163.582031 130.84375 172.152344 135.8125 175.339844 137.464844 C 176.570312 138.089844 178.933594 138.851562 179.867188 139.527344 C 179.0625 139.660156 178.960938 139.460938 178.273438 139.921875 C 180.460938 140.828125 182.578125 142.269531 184.609375 143.058594 C 185.152344 143.273438 185.523438 143.378906 186.109375 143.378906 C 185.886719 141.617188 184.175781 141.675781 182.832031 140.730469 C 184.730469 140.609375 187.445312 142.03125 187.5625 144.230469 C 187.609375 145.164062 187.480469 146.503906 187.175781 147.394531 C 185.488281 146.898438 187.617188 146.15625 184.785156 144.144531 C 183.164062 142.992188 180.722656 141.964844 178.898438 140.90625 C 174.445312 138.324219 170.59375 135.691406 165.921875 133.363281 C 165.226562 133.015625 161.054688 130.921875 160.890625 130.761719 C 160.726562 130.597656 160.683594 130.488281 160.632812 130.273438 Z M 227.214844 57.640625 C 227.042969 58.113281 226.859375 58.550781 226.65625 59.011719 C 225.265625 58.46875 226.085938 58.671875 225.679688 57.511719 C 224.996094 56.277344 223.0625 56.097656 221.8125 55.679688 C 219.046875 54.757812 216.28125 53.421875 213.488281 52.390625 C 210.695312 51.359375 207.230469 50.101562 204.671875 48.636719 C 204.007812 48.257812 203.636719 48.6875 202.445312 48.253906 C 201.398438 47.875 201.246094 47.832031 200.128906 47.636719 C 199.476562 47.527344 199.566406 47.40625 199.398438 46.785156 C 198.09375 46.40625 198.226562 46.511719 196.902344 46.394531 C 196.25 46.335938 195.714844 45.628906 195.167969 45.164062 C 193.828125 44.023438 197.253906 45.523438 195.996094 44.0625 C 195.238281 43.179688 190.984375 42.351562 191.609375 40.8125 C 192.363281 40.761719 194.910156 41.988281 195.867188 42.335938 C 197.296875 42.851562 198.722656 43.28125 200.125 43.871094 C 199.316406 43.90625 198.226562 43.800781 197.484375 44.074219 C 198.558594 45.425781 202.109375 46.070312 203.777344 46.503906 C 205.058594 46.835938 204.417969 46.730469 205.40625 46.09375 C 205.550781 46.003906 215.160156 49.59375 216.585938 49.960938 C 217.925781 50.3125 225.96875 52.3125 226.519531 52.75 C 226.132812 53.765625 224.515625 52.65625 223.988281 52.433594 C 221.363281 51.324219 220.097656 51.664062 217.488281 51.390625 C 216.339844 51.269531 215.347656 50.539062 214.753906 50.566406 C 213.753906 50.617188 215.003906 51.453125 215.203125 51.574219 C 216.855469 52.558594 220.121094 53.53125 222.089844 54.332031 C 222.722656 54.589844 226.058594 56.042969 226.496094 55.371094 C 227.039062 54.53125 227.484375 52.351562 228.332031 51.015625 C 228.402344 50.910156 228.832031 50.3125 228.910156 50.28125 C 228.917969 50.277344 229.488281 50.175781 229.464844 50.472656 C 229.421875 50.964844 227.523438 56.753906 227.214844 57.640625 Z M 179.6875 134.402344 C 179.679688 134.394531 179.300781 133.113281 179.859375 133.433594 C 178.886719 132.183594 176.472656 131.253906 174.976562 130.523438 C 171.660156 128.902344 169.378906 127.738281 166.3125 125.628906 C 164.507812 124.386719 160.433594 122.179688 158.371094 121.6875 C 157.984375 121.59375 157.597656 121.503906 157.210938 121.40625 C 155.957031 121.085938 154.800781 120.5625 153.96875 119.546875 C 153.191406 118.453125 155.519531 119.671875 155.714844 119.785156 C 158.851562 121.59375 160.253906 122.421875 163.914062 122.9375 C 165.164062 123.113281 165.792969 123.914062 166.980469 124.460938 C 168.765625 125.277344 170.851562 125.882812 172.738281 126.667969 C 174.699219 127.488281 191.996094 134.570312 192.085938 135.1875 C 192.171875 135.773438 190.078125 135.300781 189.78125 135.230469 C 187.707031 134.605469 185.011719 132.910156 182.859375 131.957031 C 180.84375 131.0625 178.859375 130.140625 176.777344 129.417969 C 175.246094 128.898438 178.621094 130.613281 178.625 130.613281 C 181.945312 132.3125 185.523438 133.585938 188.785156 135.3125 C 190.195312 136.058594 188.761719 136.394531 187.875 136.097656 C 184.589844 135.003906 189.980469 136.859375 189.835938 138.214844 C 189.769531 138.886719 186.984375 137.472656 186.480469 137.265625 C 185.261719 136.765625 180.480469 134.9375 179.6875 134.402344 Z M 199.566406 76.25 C 198.5 75.953125 194.585938 74.429688 193.765625 73.875 C 195.550781 73.582031 197.234375 74.699219 199.101562 75.101562 C 199.628906 75.214844 202.21875 75.605469 200.402344 76.175781 C 200.101562 76.269531 199.875 76.304688 199.566406 76.25 Z M 195.015625 76.785156 C 194.117188 76.636719 189.140625 75.472656 188.597656 75.089844 C 188.082031 74.726562 187.484375 73.425781 189.378906 74.160156 C 190.332031 74.53125 195.191406 76.015625 195.25 76.789062 Z M 177.257812 72.566406 C 172.707031 71.339844 173.730469 70.144531 177.824219 71.542969 C 180.292969 72.421875 183.175781 73.972656 178.105469 72.773438 Z M 180.734375 108.949219 C 180.972656 109.089844 182.972656 110.4375 181.707031 110.351562 C 180.210938 110.246094 178.003906 109.460938 176.648438 108.800781 C 176.957031 107.945312 177.777344 108.058594 178.574219 108.203125 C 179.324219 108.335938 180.066406 108.582031 180.734375 108.949219 Z M 220.527344 61.023438 C 219.613281 61.21875 218.167969 60.730469 217.035156 60.664062 C 215.207031 60.558594 214.238281 60.734375 212.71875 59.515625 C 214.652344 58.78125 215.019531 60.089844 217.507812 59.972656 C 218.332031 59.933594 220.449219 59.742188 220.707031 60.90625 Z M 147.578125 127.3125 C 149.816406 127.464844 151.078125 128.691406 153.042969 129.65625 C 154.757812 130.5 154.714844 130.972656 156.914062 131.648438 C 158.664062 132.1875 157.757812 131.9375 158.132812 132.800781 C 158.277344 133.136719 159.867188 133.800781 160.425781 134.894531 C 159.503906 134.507812 158.121094 133.695312 157.171875 133.214844 C 154.597656 131.914062 151.953125 130.71875 149.503906 129.191406 C 148.96875 128.859375 147.679688 128.378906 147.433594 127.972656 C 147.300781 127.757812 147.1875 127.558594 147.265625 127.351562 Z M 184.390625 74.011719 C 182.207031 74.773438 182.917969 73.019531 181.910156 72.398438 C 180.597656 71.597656 177.296875 70.871094 176.972656 69.246094 C 178.101562 69.429688 183.316406 72.203125 184.714844 72.925781 C 185.625 73.390625 185.082031 73.683594 184.390625 74.011719 Z M 164.683594 96.207031 C 166.214844 96.632812 171.957031 98.679688 172.898438 99.613281 C 171.617188 99.886719 169.0625 98.691406 167.609375 98.304688 C 166.15625 97.921875 164.410156 97.441406 163.285156 96.410156 C 163.378906 95.792969 164.296875 96.113281 164.683594 96.207031 Z M 204.1875 113.730469 C 204.023438 114.261719 203.628906 115.09375 202.984375 115.15625 C 202.539062 115.195312 203.210938 112.707031 203.269531 112.277344 C 203.421875 111.152344 203.527344 111.5625 202.214844 111.191406 C 198.8125 110.230469 195.691406 108.105469 192.253906 106.816406 C 186.859375 104.796875 180.96875 103.414062 175.726562 101.171875 C 175.097656 100.902344 174.515625 100.644531 174.019531 100.160156 C 175.128906 99.605469 177.148438 100.621094 178.257812 101.023438 C 181.753906 102.289062 185.335938 103.621094 188.855469 104.808594 C 188.667969 104.320312 188.765625 104.4375 188.097656 104.054688 C 187.519531 103.71875 184.988281 102.695312 184.808594 102.199219 C 184.738281 102.003906 185.199219 102.222656 185.378906 102.269531 C 191.984375 104.019531 196.816406 108.6875 203.039062 110.707031 C 203.753906 110.9375 204.203125 110.21875 204.339844 109.601562 C 204.648438 108.222656 205.292969 105.027344 206.707031 104.40625 C 206.996094 104.699219 206.75 105.761719 206.65625 106.144531 C 205.894531 108.667969 204.972656 111.191406 204.1875 113.730469 Z M 178.554688 61.167969 C 179.910156 61.847656 180.832031 62.695312 182.378906 63.390625 C 182.691406 63.515625 186.738281 64.957031 185.804688 65.425781 C 185.105469 65.773438 180.035156 63.515625 179.0625 63.117188 L 178.882812 63.042969 L 178.582031 62.917969 C 177.707031 62.566406 176.71875 62.167969 176.113281 61.421875 C 176.457031 61.101562 178.082031 61.039062 178.554688 61.167969 Z M 178.90625 114.398438 C 182.167969 114.804688 188.039062 117.914062 191.1875 119.398438 C 191.550781 119.570312 192.058594 119.65625 192.019531 120.175781 C 191.929688 121.363281 184.15625 117.027344 183.09375 116.554688 C 181.984375 116.066406 179.316406 115.324219 178.769531 114.429688 Z M 185.929688 114.339844 C 187.917969 114.726562 191.015625 116.234375 193.035156 117.058594 C 193.671875 117.320312 198.652344 119.339844 198.765625 119.871094 C 199.179688 121.761719 190.441406 116.902344 189.960938 116.652344 C 188.515625 115.90625 187.886719 115.671875 186.386719 115.105469 C 185.625 114.816406 183.683594 114.0625 185.929688 114.339844 Z M 155.394531 112.210938 C 158.585938 112.914062 162.78125 114.726562 165.980469 115.867188 C 169.128906 116.988281 166.503906 116.703125 165.050781 116.328125 C 163.59375 115.957031 162.375 115.679688 160.914062 115.355469 C 159.394531 115.015625 157.421875 114.222656 155.949219 113.589844 C 155.40625 113.355469 155.097656 113.191406 155.070312 112.570312 L 155.058594 112.34375 L 155.152344 112.195312 Z M 190.769531 95.953125 C 195.667969 97.28125 201.601562 99.179688 206.261719 101.152344 C 208.585938 102.132812 206.058594 102.0625 204.835938 101.71875 C 203.390625 101.308594 201.925781 100.519531 200.511719 99.957031 C 196.304688 98.351562 191.902344 97.207031 187.753906 95.613281 C 184.976562 94.546875 190.550781 95.898438 190.769531 95.953125 Z M 174.242188 121.898438 C 175.792969 121.984375 178.410156 123.808594 179.882812 124.648438 C 183.328125 126.609375 186.707031 128.445312 190.214844 130.292969 C 195.277344 132.964844 192.125 132.476562 189.070312 130.953125 C 184.574219 128.707031 180.507812 125.585938 175.992188 123.210938 C 175.53125 122.96875 174.339844 122.371094 174.085938 121.949219 Z M 161.007812 99.140625 C 162.34375 99.371094 163.785156 100.308594 165.21875 100.765625 C 167.71875 101.566406 172.046875 102.039062 174.070312 103.546875 C 173.988281 103.640625 173.273438 103.34375 172.550781 103.710938 C 174.613281 104.621094 176.679688 105.476562 178.75 106.398438 C 182.460938 108.046875 186.558594 109.628906 190.355469 111.121094 C 193.015625 112.167969 195.550781 113.035156 198.21875 114.003906 C 201.097656 115.046875 199.832031 115.585938 197.394531 114.90625 C 195.160156 114.285156 193.023438 112.886719 190.835938 112.191406 C 189.878906 111.886719 191.597656 113.53125 191.667969 113.589844 C 193.210938 114.839844 196.351562 115.464844 196.878906 115.96875 C 197.566406 116.625 196.007812 116.363281 195.773438 116.292969 C 194.128906 115.773438 192.5 114.519531 190.746094 114.511719 C 189.328125 114.507812 187.304688 113.339844 185.960938 112.703125 C 185.046875 112.269531 184.285156 111.886719 183.449219 111.316406 C 183.644531 110.269531 184.242188 110.511719 185.074219 110.882812 C 186.109375 111.34375 186.726562 111.945312 187.886719 111.847656 C 183.800781 110.238281 180.027344 108.335938 175.855469 106.789062 C 174.785156 106.390625 171.191406 105.273438 170.535156 104.609375 C 169.871094 103.945312 170.328125 103.945312 169.078125 103.347656 C 167.574219 102.628906 160.136719 100.6875 160.132812 99.371094 C 160.132812 99.089844 160.855469 99.140625 161.007812 99.140625 Z M 175.414062 103.835938 C 180.28125 105.128906 185.640625 107.765625 190.511719 109.488281 C 193.78125 110.644531 196.746094 111.148438 199.972656 112.089844 C 203.511719 113.125 200.539062 113.011719 199.027344 112.730469 C 194.117188 111.804688 187.164062 109.214844 182.441406 107.382812 C 181.929688 107.1875 174.914062 104.484375 175.050781 104.011719 C 175.128906 103.746094 175.050781 103.777344 175.414062 103.835938 Z M 193.265625 138.453125 C 192.929688 138.722656 192.542969 137.917969 192.527344 137.535156 C 192.566406 134.453125 196.347656 130.984375 197.257812 127.480469 C 197.390625 126.96875 198.050781 124.609375 197.734375 124.234375 C 197.175781 123.570312 195.308594 122.308594 194.441406 122.0625 C 194.132812 121.976562 192.441406 121.332031 192.597656 121.175781 C 193.144531 120.644531 191.753906 120.109375 195.175781 121.582031 C 196.140625 122 197.273438 122.496094 198.300781 122.714844 C 198.453125 122.378906 199.875 118.515625 200.449219 119.484375 C 200.949219 120.320312 198.9375 124.964844 198.550781 126.066406 C 197.410156 129.605469 195.390625 132.28125 194.289062 135.804688 C 194.074219 136.492188 193.683594 137.902344 193.265625 138.453125 Z M 155.042969 123.984375 C 153.621094 123.371094 152.753906 122.808594 151.433594 122.089844 C 150.675781 121.679688 150.984375 120.886719 151.695312 121.066406 C 155.269531 122.117188 159.03125 124.714844 162.6875 126.207031 C 166.152344 127.625 175.257812 131.117188 177.6875 133.394531 C 175.203125 132.492188 173.640625 131.425781 170.945312 130.730469 C 170.933594 130.726562 170.070312 130.277344 169.976562 130.238281 C 165.015625 128.117188 160.007812 126.097656 155.042969 123.984375 Z M 214.355469 82.898438 C 213.617188 83.855469 197.144531 78.765625 196.261719 77.105469 C 195.816406 76.261719 198.507812 77.171875 198.875 77.269531 C 202.359375 78.183594 205.824219 79.246094 209.273438 80.292969 C 210.292969 80.601562 214.125 81.757812 214.355469 82.898438 Z M 167.339844 114.070312 C 172.035156 115.894531 176.503906 118.5625 181.097656 120.710938 C 182.511719 121.375 184.09375 122.355469 185.523438 123.117188 C 187.777344 124.316406 190.238281 125.667969 192.445312 126.945312 C 193.121094 127.335938 195.160156 128.453125 194.964844 129.375 C 194.402344 129.570312 188.152344 125.765625 186.925781 125.070312 C 184.65625 123.785156 182.351562 122.429688 180.0625 121.191406 C 178.214844 120.1875 177.808594 120.683594 175.847656 119.207031 C 175.273438 118.777344 175.15625 118.945312 174.503906 119.039062 C 171.273438 115.394531 169.058594 115.953125 165.457031 113.855469 C 163.808594 112.894531 167.101562 113.980469 167.339844 114.070312 Z M 84.390625 48.933594 C 86.132812 49.582031 87.621094 49.625 88.742188 47.921875 C 89.589844 46.140625 88.84375 44.964844 87.074219 44.296875 C 85.144531 43.570312 82.28125 44.335938 82.394531 46.726562 C 82.449219 47.863281 83.492188 48.476562 84.390625 48.933594 Z M 90.644531 46.59375 C 90.640625 48.515625 89.695312 49.992188 87.925781 50.808594 C 86.222656 51.414062 83.703125 50.808594 82.367188 49.625 C 78.214844 45.652344 83.25 40.730469 88.210938 43.445312 C 89.84375 44.339844 90.429688 44.699219 90.644531 46.59375 Z M 191.484375 50.460938 C 190.027344 49.898438 183.054688 47.277344 182.570312 45.945312 C 186.367188 45.953125 189.394531 48.25 192.910156 49.589844 C 196.738281 51.027344 201.289062 51.957031 204.75 54.078125 C 207.988281 56.0625 215.289062 56.53125 219.167969 58.300781 C 218.558594 59.507812 218.183594 59.015625 216.84375 58.636719 C 212.667969 57.453125 208.675781 56.496094 204.515625 55.144531 C 200.230469 53.75 195.984375 52.195312 191.78125 50.574219 Z M 199.761719 95.519531 C 192.785156 91.503906 185.148438 88.921875 177.65625 86.0625 C 177.210938 85.890625 174.339844 84.890625 174.230469 84.792969 C 174.035156 84.617188 174.03125 84.34375 174.003906 84.101562 C 175.628906 83.808594 183.089844 87.175781 185.058594 87.90625 C 186.125 88.300781 187.445312 88.777344 188.570312 88.90625 C 186.839844 87.097656 180.246094 85.828125 178.371094 84.039062 C 183.449219 85.90625 188.609375 87.894531 193.65625 89.855469 C 194.976562 90.371094 197.242188 91.65625 198.605469 92.359375 C 199.96875 93.054688 208.027344 96.96875 208.40625 97.648438 C 208.871094 98.480469 207.835938 98.8125 207.136719 98.796875 C 205.699219 98.769531 204.035156 97.59375 202.695312 96.964844 C 201.683594 96.492188 200.742188 96.0625 199.761719 95.519531 Z M 206.710938 46.828125 C 206.269531 46.609375 205.457031 46.820312 206.042969 47.378906 C 207.007812 48.300781 209.347656 49.394531 210.703125 49 C 210.871094 48.953125 210.925781 48.25 210.492188 48.007812 C 209.546875 47.476562 208.007812 47.667969 206.710938 46.828125 Z M 212.210938 48.824219 C 210.570312 48.210938 211.351562 48.648438 211.222656 48.917969 C 211 49.386719 212.847656 50.15625 212.683594 49.269531 C 212.640625 49.039062 212.40625 48.910156 212.210938 48.824219 Z M 192.484375 99.078125 C 195 99.761719 196.28125 100.316406 198.582031 101.5 C 200.367188 102.417969 201.664062 102.480469 203.449219 103 C 205.789062 103.675781 204.492188 104.9375 201.09375 103.582031 C 200.460938 103.328125 198.816406 102.59375 198.21875 103.269531 C 197.933594 103.589844 200.046875 104.105469 200.261719 104.144531 C 202.789062 104.597656 204.132812 106.417969 201.714844 105.785156 C 198.578125 104.964844 195.238281 103.480469 192.136719 102.355469 C 188.792969 101.148438 185.453125 99.960938 182.113281 98.742188 C 179.929688 97.949219 178.425781 97.953125 176.640625 96.257812 C 175.4375 95.105469 173.917969 94.855469 172.347656 94.28125 C 170.792969 93.710938 169.417969 93.253906 167.839844 92.765625 C 167.113281 92.539062 166.277344 92.234375 166.59375 91.296875 C 166.871094 90.464844 170.394531 92.613281 171.0625 92.886719 C 172.804688 93.597656 173.765625 93.15625 174.613281 93.445312 C 176.046875 93.933594 175.011719 94.484375 177.480469 94.746094 C 178.773438 94.886719 181.21875 95.882812 182.496094 96.316406 C 185.984375 97.503906 188.972656 98.15625 192.484375 99.078125 Z M 181.804688 148.699219 C 182.496094 149.648438 186.242188 152.300781 187.019531 150.96875 C 187.484375 150.171875 185.113281 149.527344 184.597656 149.347656 C 184.097656 149.175781 182.226562 148.535156 181.777344 148.558594 Z M 189.242188 148.261719 C 188.960938 149.300781 189 151.253906 188.277344 151.832031 C 186.257812 153.445312 186.285156 153.824219 184.222656 151.914062 C 181.570312 149.460938 176.554688 146.472656 173.390625 144.445312 C 170.882812 142.84375 167.210938 141.21875 164.449219 139.871094 C 162.386719 138.867188 160.765625 138.179688 158.644531 137.339844 C 158.179688 137.15625 157.191406 136.292969 156.460938 135.925781 C 154.132812 134.753906 148.175781 132.953125 146.71875 131.21875 C 146.085938 130.359375 146.742188 130.828125 147.261719 131.050781 C 149.929688 132.175781 152.285156 133.050781 154.929688 134.339844 C 162.605469 138.082031 170.191406 141.984375 177.820312 145.8125 C 178.671875 146.238281 181.949219 148.074219 182.816406 147.355469 C 182.976562 147.226562 182.683594 147.164062 182.40625 146.988281 C 180.003906 145.464844 176.949219 143.953125 174.398438 142.546875 C 170.457031 140.371094 166.460938 138.214844 162.546875 136 C 161.359375 135.328125 161.195312 135.21875 162.628906 135.675781 C 166.261719 136.835938 170.445312 139.484375 174.140625 141.0625 C 177.796875 142.621094 181.367188 144.996094 184.867188 146.964844 C 186.253906 147.746094 185.734375 149.296875 187.566406 148.996094 C 188.394531 148.859375 188.28125 147.984375 188.476562 147.171875 C 188.71875 146.160156 189.242188 145.1875 189.546875 144.082031 C 190.023438 142.425781 190.597656 141.371094 191.332031 139.847656 C 191.519531 139.457031 192 139.425781 191.945312 140.117188 C 191.714844 143.132812 191.246094 143.515625 190.074219 145.980469 C 189.703125 146.761719 189.480469 147.433594 189.242188 148.261719 Z M 125.433594 75.570312 C 124.945312 75.351562 124.695312 75.285156 124.15625 75.242188 C 122.578125 78.109375 122.40625 87.433594 123.859375 90.386719 C 124.285156 91.246094 124.277344 92.285156 124.574219 93.316406 C 125.117188 95.183594 125.972656 96.789062 127.023438 98.414062 C 127.433594 99.035156 127.816406 100.019531 128.285156 100.777344 C 130.019531 103.507812 134.476562 108.238281 137.121094 110.050781 C 138.445312 110.953125 138.730469 109.851562 139.296875 108.675781 C 141.316406 104.484375 143.191406 99.464844 144.867188 95.085938 C 145.601562 93.164062 146.460938 91.199219 147.152344 89.308594 C 148.242188 86.335938 147.746094 86.480469 144.882812 85.28125 C 141.992188 84.070312 139.3125 82.089844 136.296875 80.769531 C 132.917969 79.292969 129.9375 77.695312 126.648438 76.132812 C 126.246094 75.941406 125.839844 75.753906 125.433594 75.570312 Z M 123.617188 72.917969 C 125.347656 72.921875 141.460938 81.171875 144.882812 82.628906 C 145.9375 83.078125 149.273438 84.1875 149.882812 84.683594 C 151.089844 85.671875 149.6875 87.917969 149.164062 89.101562 C 147.804688 92.179688 146.726562 95.375 145.351562 98.5 C 143.679688 102.308594 142.40625 106.445312 140.742188 110.308594 C 140.355469 111.140625 139.390625 113.09375 138.714844 113.621094 C 137.226562 114.300781 133.664062 110.992188 132.679688 109.992188 C 128.871094 106.0625 126.101562 101.542969 123.605469 96.707031 C 123.265625 96.050781 122.558594 93.40625 122.269531 92.503906 C 120.796875 87.933594 120.269531 83.820312 120.640625 79.015625 C 120.730469 77.835938 120.882812 76.746094 121.136719 75.589844 C 121.480469 74.070312 122.046875 73.230469 123.617188 72.917969 Z M 150.359375 68.933594 C 151.269531 69.316406 153.890625 70.539062 154.792969 70.078125 C 156.660156 69.128906 161.160156 58.058594 162.347656 55.554688 C 163.871094 52.453125 166.066406 49.574219 167.042969 46.222656 C 159.667969 44.953125 158.953125 45.984375 151.925781 47.0625 C 148.921875 47.523438 146.441406 47.824219 143.78125 49.449219 C 143.324219 49.730469 142.605469 49.75 141.898438 50.066406 C 140.667969 50.613281 140.078125 51.128906 138.714844 51.589844 C 136.121094 52.46875 131.773438 55.007812 130.136719 57.125 C 129.847656 57.5 129.71875 57.726562 129.609375 58.1875 C 129.472656 59.136719 132.722656 60.589844 133.484375 60.984375 C 136.324219 62.453125 139.183594 63.726562 142.152344 64.902344 C 143.152344 65.304688 143.773438 65.808594 144.847656 66.164062 C 146.5625 66.738281 148.582031 68.144531 150.359375 68.933594 Z M 160.695312 64.378906 C 158.777344 66.582031 157.527344 72.082031 156.171875 73.128906 C 155.570312 73.589844 154.84375 73.34375 154.179688 73.078125 C 152.007812 72.214844 151.03125 70.992188 148.382812 70.261719 C 147.378906 69.867188 145.890625 68.898438 144.773438 68.347656 C 140.335938 66.160156 135.789062 64.296875 131.308594 62.082031 C 130.214844 61.539062 126.539062 60.285156 126.378906 59.085938 C 126.09375 56.933594 131.246094 53.257812 132.828125 52.253906 C 139.859375 47.835938 150.578125 43.75 158.867188 43.109375 C 161.152344 42.945312 168.53125 42.382812 170.109375 43.542969 C 171.558594 44.617188 169.335938 47.628906 168.667969 48.699219 C 166.515625 52.140625 164.878906 54.878906 163.398438 58.71875 C 162.558594 60.953125 161.449219 62.195312 160.695312 64.378906 Z M 170.207031 66.898438 C 171.890625 62.863281 173.441406 59.054688 175.277344 55.0625 C 177.894531 49.382812 180.511719 43.699219 183.140625 38.019531 C 183.6875 36.847656 184.007812 36.453125 182.761719 35.757812 C 178.449219 33.355469 167.460938 32.035156 162.46875 32.570312 C 159.089844 32.933594 156.066406 33.199219 152.660156 33.300781 C 148.984375 33.410156 145.554688 34.804688 142.058594 35.808594 C 133.605469 38.234375 128.910156 40.324219 122.003906 45.898438 C 120.546875 47.082031 119.089844 48.128906 117.710938 49.417969 C 117.347656 49.761719 113.917969 52.761719 113.652344 52.804688 C 112.4375 52.816406 104.816406 49.101562 103.316406 48.136719 C 100.257812 46.210938 95.410156 44.121094 91.933594 43.097656 C 91.238281 42.894531 90.507812 42.367188 89.640625 42.074219 C 87.238281 41.269531 83.457031 39.96875 81.023438 41.027344 C 77.792969 42.433594 77.074219 46.570312 79.285156 49.21875 L 79.527344 49.507812 C 81.144531 51.308594 82.507812 52.296875 84.613281 53.453125 C 89.269531 55.957031 94.140625 57.496094 98.859375 59.917969 C 101.351562 61.195312 103.574219 62.164062 106.097656 63.3125 C 108.101562 64.226562 108.738281 64.84375 108.714844 67.21875 C 108.664062 68.941406 108.300781 70.550781 108.226562 72.324219 C 107.824219 82.429688 108.875 87.203125 111.953125 96.800781 C 113.925781 102.953125 116.285156 106.714844 120.433594 111.683594 C 122.558594 114.234375 124.910156 115.949219 127.101562 118.394531 C 128.523438 119.980469 129.722656 121.417969 131.40625 122.761719 C 133.691406 124.539062 135.714844 126.042969 138.289062 127.40625 C 139.464844 128.003906 140.226562 129.308594 141.695312 129.246094 C 142.496094 129.148438 142.898438 127.707031 143.144531 127.089844 C 144.746094 123.160156 146.570312 120.535156 147.695312 116.253906 C 148.207031 114.304688 148.699219 114.28125 149.550781 112.574219 C 150.4375 110.792969 151.203125 108.921875 152.0625 107.121094 C 152.527344 106.164062 153.585938 104.363281 153.851562 103.460938 C 155.21875 99.308594 157.894531 96.917969 158.855469 92.453125 C 159.207031 91.320312 160.277344 89.289062 160.824219 88.023438 C 162.515625 84.078125 164.078125 80.058594 165.765625 76.132812 C 167.136719 72.988281 168.832031 70.042969 170.207031 66.898438 " fill-opacity="1" fill-rule="evenodd"/></g><g clip-path="url(#28e30e27ad)"><path fill="currentColor" d="M 89.421875 180.796875 C 82.0625 190.375 80.914062 203.472656 83.421875 214.960938 C 84.546875 220.109375 85.617188 223.503906 87.6875 228.40625 C 88.335938 229.9375 89 231.460938 89.648438 232.992188 C 90.546875 235.125 91.445312 237.257812 92.351562 239.390625 C 95.222656 246.164062 99.390625 252.742188 103.140625 259.082031 C 103.613281 259.878906 105.226562 262.800781 106.304688 262.664062 C 106.867188 262.589844 109.390625 261.472656 110.273438 261.171875 C 112.375 260.449219 114.816406 259.441406 116.75 258.351562 L 117.011719 258.207031 C 118.984375 257.019531 121.230469 256.109375 123.304688 255.027344 C 124.675781 254.316406 126.003906 254.007812 127.453125 253.332031 C 129.152344 252.542969 131.605469 251.355469 133.152344 250.335938 C 134.671875 249.273438 137.929688 247.816406 139.679688 246.976562 C 139.90625 246.867188 141.839844 245.894531 142.015625 245.96875 C 142.324219 246.097656 142.261719 246.140625 142.671875 245.800781 C 146.757812 242.570312 153.253906 240.476562 157.976562 237.765625 C 161.152344 235.941406 163.738281 234.546875 167.132812 233.121094 C 169.347656 232.191406 171.246094 230.796875 173.402344 229.707031 C 178.308594 227.21875 183.199219 224.664062 188.109375 222.199219 C 189.703125 221.398438 191.300781 220.621094 192.917969 219.871094 C 195.40625 218.726562 197.050781 218.746094 199.308594 216.859375 C 200.523438 215.792969 200.277344 214.847656 199.871094 213.390625 C 198.957031 210.117188 197.097656 206.804688 195.773438 203.65625 C 194.804688 201.3125 194.015625 199.625 192.839844 197.378906 C 191.492188 194.816406 190.589844 192.992188 189.777344 190.203125 C 188.394531 185.453125 185.339844 181.558594 183.09375 177.191406 C 180.277344 171.757812 175.101562 163.683594 170.035156 160.222656 C 167.085938 158.210938 163.488281 157.09375 160.242188 155.625 C 155.289062 153.339844 152.707031 153.425781 147.53125 152.566406 C 140.449219 151.390625 134.6875 153.105469 127.675781 149.648438 C 125.394531 148.519531 122.234375 146.316406 120.179688 144.804688 C 115.113281 141.074219 112.296875 136.226562 108.5625 131.300781 C 105.667969 127.480469 103.597656 124.503906 101.28125 120.269531 C 98.027344 114.324219 95.363281 107.996094 93.03125 101.636719 C 92.542969 100.296875 92.496094 99.523438 91.832031 98.089844 C 90.183594 94.574219 87.335938 89.824219 83.664062 88.203125 C 80.90625 86.992188 77.875 85.410156 75.355469 88.109375 C 71.800781 91.917969 75.296875 99.921875 77.089844 103.929688 C 79.433594 109.160156 82.507812 113.957031 85.351562 118.917969 C 86.980469 121.769531 88.542969 124.128906 89.71875 127.238281 C 90.566406 129.347656 92.230469 131.824219 93.324219 133.972656 C 96.371094 139.933594 98.699219 146.300781 99.234375 153.015625 C 99.40625 155.222656 99.652344 157.660156 99.761719 159.84375 C 99.875 162.191406 98.992188 164.390625 98.261719 166.582031 C 96.046875 173.207031 93.5625 175.496094 89.421875 180.796875 Z M 174.160156 178.707031 C 171.300781 176.003906 167.601562 172.796875 163.753906 171.746094 C 160.867188 170.957031 157.167969 170.265625 154.1875 169.777344 C 150.464844 169.167969 147.398438 169.660156 143.691406 169.929688 C 138.105469 170.332031 132.269531 172.382812 127.1875 174.660156 C 124.433594 175.894531 121.953125 176.707031 119.191406 178.136719 C 109.554688 183.132812 101.175781 190.976562 96.542969 200.890625 C 94.46875 205.503906 93.0625 210.574219 93.375 215.667969 C 93.476562 217.355469 93.4375 218.558594 93.679688 220.28125 C 94.300781 224.707031 95.097656 228.273438 97.339844 232.183594 C 97.621094 232.667969 97.519531 232.824219 97.914062 233.414062 C 98.300781 233.984375 98.066406 234.292969 97.820312 234.882812 C 95.285156 232.835938 94.378906 230.199219 93.113281 227.304688 C 90.570312 221.503906 90.589844 217.082031 90.054688 210.941406 C 89.746094 207.429688 90.796875 203.882812 91.730469 200.507812 C 93.019531 195.84375 94.839844 193.09375 97.210938 188.996094 C 100.839844 183.070312 110.9375 176.332031 117.078125 172.992188 C 119.003906 171.945312 120.863281 170.949219 122.777344 169.871094 C 125.324219 168.4375 125.980469 168.210938 128.789062 167.59375 C 138.988281 165.355469 144.082031 162.363281 155.023438 164.761719 C 160.5 165.960938 162.660156 166.585938 167.542969 169.523438 C 170.734375 171.441406 173.945312 173.574219 176.261719 176.53125 C 178.621094 179.546875 180.5625 182.992188 182.722656 186.164062 C 183.488281 187.277344 185.882812 190.433594 186.074219 191.546875 C 186.269531 192.675781 185.410156 193.367188 184.363281 192.492188 C 180.410156 189.1875 178.265625 182.707031 174.160156 178.707031 Z M 86.390625 177.703125 C 90.214844 172.722656 95.511719 167.644531 96.332031 161.125 C 97.023438 155.632812 96.253906 150.6875 94.1875 145.570312 C 93.519531 143.914062 93.296875 142.5 92.609375 140.820312 C 90.726562 136.207031 87.820312 130.738281 85.347656 126.378906 C 85.074219 125.894531 84.796875 125.414062 84.511719 124.941406 C 83.726562 123.640625 83.6875 122.792969 82.976562 121.441406 C 80.484375 116.726562 77.476562 112.636719 75.109375 107.722656 C 73.441406 104.269531 71.972656 100.277344 70.621094 96.667969 C 69.332031 93.109375 69.472656 90.4375 71.046875 86.972656 C 72.933594 82.804688 76.796875 80.769531 81.320312 81.261719 C 86.820312 81.867188 90.441406 87.867188 93.074219 92.152344 C 94.488281 94.453125 95.363281 96.390625 96.300781 98.917969 C 97.820312 103.058594 99.878906 107.34375 101.691406 111.394531 C 103.21875 114.796875 104.601562 117.261719 106.46875 120.457031 C 107.871094 122.855469 108.671875 125.289062 110.222656 127.789062 C 114.449219 134.597656 121.046875 143.003906 128.355469 146.5625 C 134.6875 149.652344 138.242188 148.640625 144.800781 149.476562 C 155.476562 150.859375 165.265625 153.417969 173.8125 160.261719 C 176.957031 162.777344 179.386719 164.710938 181.46875 168.230469 C 183.492188 171.652344 185.667969 174.871094 187.542969 178.394531 C 192.632812 188.035156 196.8125 198.121094 201.261719 208.058594 C 202.140625 210.019531 206.984375 219.742188 205.738281 221.238281 C 204.191406 222.605469 197.875 224.730469 195.449219 226.097656 C 193.003906 227.472656 190.230469 228.539062 187.667969 229.832031 C 180.710938 233.34375 174.039062 236.992188 167.195312 240.691406 C 160.355469 244.390625 152.890625 247.632812 145.859375 251.058594 C 138.445312 254.671875 131.179688 258.289062 123.835938 262.046875 C 118.980469 264.507812 114.023438 266.664062 109.164062 269.160156 C 105.316406 271.058594 105.054688 269.582031 103.476562 266.082031 C 102.054688 262.921875 100.761719 260.878906 99.007812 257.949219 C 96.398438 253.566406 94.242188 248.933594 91.644531 244.484375 C 88.847656 239.660156 86.804688 234.207031 84.800781 228.992188 C 82.527344 223.082031 80.917969 217.992188 79.390625 211.847656 C 78.277344 207.371094 77.660156 205.90625 78.039062 201.136719 C 78.5 195.367188 78.144531 193.4375 80.753906 187.867188 C 81.757812 185.722656 83.082031 183.097656 84.234375 181.03125 C 84.898438 179.84375 85.585938 178.800781 86.390625 177.703125 Z M 84.097656 95.496094 C 83.296875 94.269531 81.703125 92.753906 80.148438 92.71875 C 78.851562 92.695312 78.773438 95.066406 78.921875 95.988281 C 79.226562 97.859375 80.851562 100.617188 83.027344 100.265625 C 84.324219 100.054688 84.925781 98.5625 84.753906 97.328125 C 84.660156 96.636719 84.429688 96.097656 84.097656 95.496094 Z M 77.425781 93.441406 C 78.160156 91.300781 78.976562 90.59375 81.332031 90.632812 C 82.277344 90.648438 82.515625 91.113281 83.113281 91.765625 C 85.574219 94.363281 88.796875 97.648438 86.644531 101.394531 C 85.035156 103.632812 82.246094 103 80.320312 101.578125 C 78.0625 99.910156 77.964844 97.402344 77.1875 94.890625 C 77.015625 94.355469 77.257812 94.003906 77.425781 93.441406 " fill-opacity="1" fill-rule="evenodd"/></g></svg>