<svg xmlns="http://www.w3.org/2000/svg" xmlns:xlink="http://www.w3.org/1999/xlink" width="400" zoomAndPan="magnify" viewBox="0 0 300 299.999988" height="400" preserveAspectRatio="xMidYMid meet" version="1.0"><defs><clipPath id="e09e52435a"><path d="M 36 30 L 264.449219 30 L 264.449219 270 L 36 270 Z M 36 30 " clip-rule="nonzero"/></clipPath></defs><path fill="currentColor" d="M 168.695312 168.515625 C 166.007812 171.203125 161.628906 171.203125 158.9375 168.515625 C 156.246094 165.820312 156.246094 161.445312 158.9375 158.753906 C 159.652344 158.035156 159.652344 156.875 158.9375 156.160156 C 158.21875 155.441406 157.058594 155.441406 156.34375 156.160156 C 154.347656 158.15625 153.25 160.808594 153.25 163.632812 C 153.25 166.457031 154.347656 169.109375 156.34375 171.109375 C 158.339844 173.105469 160.992188 174.203125 163.816406 174.203125 C 166.640625 174.203125 169.292969 173.105469 171.289062 171.109375 C 172.007812 170.390625 172.007812 169.230469 171.289062 168.515625 C 170.574219 167.796875 169.414062 167.796875 168.695312 168.515625 " fill-opacity="1" fill-rule="nonzero"/><path fill="currentColor" d="M 167.785156 132.894531 C 168.5 132.179688 168.5 131.019531 167.785156 130.304688 C 167.066406 129.585938 165.90625 129.585938 165.191406 130.304688 C 163.886719 131.605469 162.152344 132.324219 160.308594 132.324219 C 158.464844 132.324219 156.734375 131.605469 155.429688 130.304688 C 152.738281 127.613281 152.738281 123.234375 155.429688 120.542969 C 156.144531 119.828125 156.144531 118.667969 155.429688 117.949219 C 154.710938 117.234375 153.550781 117.234375 152.835938 117.949219 C 148.714844 122.070312 148.714844 128.777344 152.835938 132.894531 C 154.832031 134.890625 157.484375 135.992188 160.308594 135.992188 C 163.132812 135.992188 165.785156 134.890625 167.785156 132.894531 " fill-opacity="1" fill-rule="nonzero"/><path fill="currentColor" d="M 140.214844 162.566406 C 137.523438 165.257812 133.148438 165.257812 130.457031 162.566406 C 127.765625 159.878906 127.765625 155.496094 130.457031 152.808594 C 131.171875 152.089844 131.171875 150.929688 130.457031 150.214844 C 129.738281 149.496094 128.578125 149.496094 127.863281 150.214844 C 123.742188 154.335938 123.742188 161.039062 127.863281 165.160156 C 129.921875 167.21875 132.628906 168.25 135.335938 168.25 C 138.042969 168.25 140.746094 167.21875 142.808594 165.160156 C 143.523438 164.445312 143.523438 163.28125 142.808594 162.566406 C 142.09375 161.851562 140.933594 161.851562 140.214844 162.566406 " fill-opacity="1" fill-rule="nonzero"/><path fill="currentColor" d="M 200.125 137.085938 C 198.824219 138.386719 197.089844 139.105469 195.246094 139.105469 C 193.402344 139.105469 191.671875 138.386719 190.367188 137.085938 C 187.675781 134.394531 187.675781 130.015625 190.367188 127.324219 C 191.082031 126.609375 191.082031 125.445312 190.367188 124.730469 C 189.648438 124.015625 188.488281 124.015625 187.773438 124.730469 C 183.652344 128.851562 183.652344 135.554688 187.773438 139.679688 C 189.769531 141.675781 192.421875 142.773438 195.246094 142.773438 C 198.070312 142.773438 200.722656 141.675781 202.71875 139.679688 C 203.4375 138.960938 203.4375 137.800781 202.71875 137.085938 C 202.003906 136.367188 200.84375 136.367188 200.125 137.085938 " fill-opacity="1" fill-rule="nonzero"/><path fill="currentColor" d="M 193.644531 102.65625 C 196.347656 102.65625 199.054688 101.625 201.113281 99.566406 C 201.832031 98.847656 201.832031 97.6875 201.113281 96.972656 C 200.398438 96.257812 199.238281 96.257812 198.523438 96.972656 C 195.832031 99.660156 191.453125 99.660156 188.761719 96.972656 C 186.070312 94.28125 186.070312 89.902344 188.761719 87.210938 C 189.476562 86.496094 189.476562 85.332031 188.761719 84.617188 C 188.046875 83.902344 186.886719 83.902344 186.167969 84.617188 C 182.046875 88.738281 182.046875 95.445312 186.167969 99.566406 C 188.226562 101.625 190.933594 102.65625 193.644531 102.65625 " fill-opacity="1" fill-rule="nonzero"/><path fill="currentColor" d="M 231.378906 97.324219 C 228.6875 100.015625 224.3125 100.015625 221.617188 97.324219 C 218.929688 94.632812 218.929688 90.257812 221.617188 87.566406 C 222.332031 86.851562 222.332031 85.6875 221.617188 84.972656 C 220.902344 84.257812 219.742188 84.257812 219.023438 84.972656 C 214.90625 89.09375 214.90625 95.800781 219.023438 99.917969 C 221.023438 101.914062 223.675781 103.015625 226.5 103.015625 C 229.324219 103.015625 231.976562 101.914062 233.972656 99.917969 C 234.6875 99.203125 234.6875 98.042969 233.972656 97.324219 C 233.257812 96.609375 232.097656 96.609375 231.378906 97.324219 " fill-opacity="1" fill-rule="nonzero"/><path fill="currentColor" d="M 239.855469 67.988281 C 237.167969 70.679688 232.789062 70.679688 230.097656 67.988281 C 227.40625 65.296875 227.40625 60.917969 230.097656 58.226562 C 230.8125 57.515625 230.8125 56.351562 230.097656 55.636719 C 229.378906 54.917969 228.21875 54.917969 227.503906 55.636719 C 225.507812 57.632812 224.410156 60.285156 224.410156 63.109375 C 224.410156 65.929688 225.507812 68.585938 227.503906 70.582031 C 229.5 72.578125 232.152344 73.679688 234.976562 73.679688 C 237.800781 73.679688 240.453125 72.578125 242.449219 70.582031 C 243.167969 69.867188 243.167969 68.703125 242.449219 67.988281 C 241.734375 67.273438 240.574219 67.273438 239.855469 67.988281 " fill-opacity="1" fill-rule="nonzero"/><g clip-path="url(#e09e52435a)"><path fill="currentColor" d="M 252.523438 105.753906 C 249.800781 108.476562 246.191406 110.089844 242.363281 110.304688 C 241.429688 110.355469 240.683594 111.101562 240.632812 112.03125 C 240.417969 115.867188 238.804688 119.472656 236.085938 122.1875 C 233.003906 125.273438 228.90625 126.886719 224.546875 126.75 C 224.035156 126.738281 223.546875 126.929688 223.1875 127.285156 C 222.832031 127.644531 222.636719 128.132812 222.652344 128.644531 C 222.792969 133 221.175781 137.097656 218.09375 140.183594 C 215.207031 143.070312 211.363281 144.695312 207.277344 144.757812 C 206.285156 144.769531 205.484375 145.574219 205.46875 146.566406 C 205.414062 150.644531 203.792969 154.484375 200.90625 157.371094 C 197.851562 160.425781 193.804688 162.054688 189.5 161.9375 C 189.003906 161.929688 188.515625 162.121094 188.15625 162.476562 C 187.804688 162.828125 187.609375 163.316406 187.621094 163.816406 C 187.730469 168.117188 186.105469 172.167969 183.054688 175.21875 C 180.015625 178.257812 175.96875 179.898438 171.675781 179.792969 C 171.164062 179.769531 170.691406 179.976562 170.335938 180.328125 C 169.984375 180.6875 169.792969 181.167969 169.800781 181.667969 C 169.898438 185.960938 168.277344 190 165.234375 193.039062 C 162.285156 195.992188 158.359375 197.617188 154.183594 197.617188 C 154.183594 197.617188 154.179688 197.617188 154.179688 197.617188 C 150 197.613281 146.074219 195.988281 143.121094 193.035156 C 142.050781 191.964844 141.160156 190.773438 140.464844 189.492188 C 140.136719 188.882812 139.507812 188.53125 138.851562 188.53125 C 138.628906 188.53125 138.40625 188.566406 138.191406 188.65625 C 134.238281 190.191406 129.769531 190.050781 125.929688 188.273438 C 124.265625 187.503906 122.757812 186.449219 121.449219 185.140625 C 120.144531 183.835938 119.089844 182.328125 118.316406 180.660156 C 116.457031 176.648438 116.390625 172.011719 118.128906 167.941406 C 118.523438 167.011719 118.09375 165.9375 117.164062 165.535156 C 115.371094 164.765625 113.746094 163.660156 112.339844 162.253906 C 106.246094 156.15625 106.242188 146.234375 112.335938 140.140625 C 115.378906 137.097656 119.425781 135.476562 123.707031 135.574219 C 124.21875 135.605469 124.691406 135.390625 125.046875 135.039062 C 125.402344 134.683594 125.59375 134.203125 125.582031 133.699219 C 125.492188 129.402344 127.117188 125.363281 130.15625 122.324219 C 133.210938 119.269531 137.246094 117.640625 141.558594 117.753906 C 142.058594 117.78125 142.546875 117.574219 142.902344 117.21875 C 143.257812 116.863281 143.449219 116.378906 143.4375 115.875 C 143.332031 111.574219 144.949219 107.523438 148.003906 104.472656 C 150.894531 101.582031 154.730469 99.960938 158.8125 99.90625 C 159.804688 99.894531 160.605469 99.09375 160.621094 98.097656 C 160.683594 94.011719 162.304688 90.171875 165.191406 87.285156 C 168.277344 84.203125 172.367188 82.589844 176.734375 82.722656 C 177.253906 82.738281 177.730469 82.546875 178.089844 82.1875 C 178.449219 81.832031 178.640625 81.339844 178.625 80.832031 C 178.484375 76.472656 180.101562 72.375 183.1875 69.289062 C 186.289062 66.191406 190.40625 64.574219 194.769531 64.726562 C 195.277344 64.738281 195.773438 64.554688 196.132812 64.191406 C 196.496094 63.832031 196.6875 63.339844 196.671875 62.832031 C 196.519531 58.453125 198.140625 54.339844 201.238281 51.238281 C 206.019531 46.457031 213.285156 45.289062 219.316406 48.332031 C 219.839844 48.59375 220.460938 48.59375 220.980469 48.324219 C 221.503906 48.054688 221.867188 47.550781 221.953125 46.96875 C 222.457031 43.65625 223.980469 40.648438 226.351562 38.273438 C 229.304688 35.324219 233.230469 33.695312 237.402344 33.695312 C 237.40625 33.695312 237.410156 33.695312 237.410156 33.695312 C 241.585938 33.699219 245.511719 35.328125 248.46875 38.28125 C 253.375 43.1875 254.453125 50.847656 251.089844 56.90625 C 250.847656 57.347656 250.792969 57.863281 250.941406 58.34375 C 251.089844 58.820312 251.429688 59.214844 251.875 59.441406 C 253.382812 60.191406 254.757812 61.183594 255.960938 62.378906 C 258.914062 65.335938 260.539062 69.261719 260.539062 73.4375 C 260.539062 77.609375 258.914062 81.535156 255.957031 84.492188 C 255.808594 84.636719 255.664062 84.773438 255.511719 84.914062 C 254.894531 85.488281 254.746094 86.410156 255.152344 87.148438 C 258.5 93.203125 257.417969 100.855469 252.523438 105.753906 Z M 87.855469 224.648438 L 81.941406 218.738281 L 116.222656 184.457031 C 116.339844 184.640625 116.464844 184.820312 116.585938 185 C 116.632812 185.066406 116.675781 185.132812 116.726562 185.203125 C 117.007812 185.605469 117.308594 185.996094 117.625 186.375 C 117.691406 186.453125 117.757812 186.53125 117.824219 186.609375 C 118.152344 186.996094 118.496094 187.371094 118.855469 187.734375 C 119.214844 188.09375 119.59375 188.433594 119.976562 188.761719 C 120.054688 188.832031 120.136719 188.902344 120.222656 188.972656 C 120.601562 189.28125 120.988281 189.582031 121.386719 189.863281 C 121.457031 189.914062 121.53125 189.960938 121.605469 190.011719 C 121.777344 190.128906 121.953125 190.253906 122.132812 190.367188 Z M 81.878906 230.625 L 75.96875 224.710938 L 79.351562 221.332031 L 85.261719 227.242188 Z M 75.90625 236.597656 L 69.992188 230.6875 L 73.375 227.304688 L 79.289062 233.21875 Z M 69.933594 242.570312 L 64.019531 236.660156 L 67.402344 233.28125 L 73.3125 239.191406 Z M 63.957031 248.546875 L 58.042969 242.632812 L 61.425781 239.253906 L 67.339844 245.164062 Z M 57.984375 254.519531 L 52.074219 248.609375 L 55.453125 245.226562 L 61.363281 251.140625 Z M 47.371094 265.128906 C 45.746094 266.761719 43.089844 266.757812 41.460938 265.128906 C 39.832031 263.5 39.832031 260.847656 41.460938 259.21875 L 49.476562 251.203125 L 55.390625 257.113281 Z M 264.207031 73.4375 C 264.207031 68.28125 262.199219 63.433594 258.550781 59.789062 C 257.503906 58.742188 256.351562 57.824219 255.105469 57.046875 C 258.238281 49.867188 256.6875 41.3125 251.0625 35.6875 C 247.417969 32.042969 242.570312 30.03125 237.410156 30.027344 C 237.410156 30.027344 237.40625 30.027344 237.402344 30.027344 C 232.25 30.027344 227.402344 32.039062 223.757812 35.679688 C 221.386719 38.054688 219.703125 40.941406 218.820312 44.128906 C 211.847656 41.613281 203.988281 43.300781 198.644531 48.644531 C 195.316406 51.972656 193.324219 56.425781 193.03125 61.085938 C 188.375 61.375 183.925781 63.367188 180.59375 66.695312 C 177.285156 70.007812 175.292969 74.445312 174.992188 79.089844 C 170.347656 79.390625 165.910156 81.378906 162.601562 84.691406 C 159.441406 87.851562 157.507812 91.9375 157.054688 96.335938 C 152.65625 96.785156 148.574219 98.71875 145.410156 101.878906 C 142.082031 105.210938 140.128906 109.507812 139.8125 114.128906 C 135.1875 114.445312 130.894531 116.394531 127.5625 119.730469 C 124.242188 123.046875 122.292969 127.332031 121.960938 131.949219 C 117.347656 132.273438 113.066406 134.226562 109.742188 137.546875 C 102.21875 145.070312 102.222656 157.320312 109.746094 164.847656 C 111.0625 166.164062 112.535156 167.269531 114.140625 168.140625 C 112.785156 172.335938 112.90625 176.882812 114.488281 181.003906 L 38.867188 256.625 C 35.808594 259.6875 35.808594 264.664062 38.867188 267.726562 C 40.398438 269.253906 42.40625 270.019531 44.417969 270.019531 C 46.425781 270.019531 48.433594 269.253906 49.964844 267.722656 L 59.277344 258.410156 L 59.28125 258.410156 L 83.175781 234.515625 C 83.175781 234.515625 83.175781 234.515625 83.175781 234.511719 L 125.585938 192.101562 C 129.558594 193.617188 133.964844 193.789062 138.039062 192.578125 C 138.753906 193.664062 139.585938 194.6875 140.527344 195.628906 C 144.175781 199.273438 149.023438 201.28125 154.175781 201.285156 C 154.179688 201.285156 154.183594 201.285156 154.183594 201.285156 C 159.339844 201.285156 164.183594 199.277344 167.828125 195.632812 C 171.152344 192.3125 173.101562 188.027344 173.425781 183.414062 C 178.042969 183.085938 182.328125 181.132812 185.648438 177.8125 C 188.980469 174.480469 190.933594 170.1875 191.25 165.566406 C 195.871094 165.246094 200.164062 163.296875 203.496094 159.964844 C 206.660156 156.804688 208.589844 152.722656 209.039062 148.320312 C 213.441406 147.871094 217.527344 145.9375 220.6875 142.777344 C 224 139.464844 225.984375 135.03125 226.289062 130.390625 C 230.96875 130.101562 235.316406 128.148438 238.679688 124.78125 C 241.660156 121.800781 243.566406 117.953125 244.140625 113.8125 C 248.28125 113.242188 252.128906 111.332031 255.113281 108.347656 C 260.828125 102.632812 262.339844 93.882812 259 86.625 C 262.363281 83.035156 264.207031 78.378906 264.207031 73.4375 " fill-opacity="1" fill-rule="nonzero"/></g></svg>