<svg xmlns="http://www.w3.org/2000/svg" xmlns:xlink="http://www.w3.org/1999/xlink" width="400" zoomAndPan="magnify" viewBox="0 0 300 299.999988" height="400" preserveAspectRatio="xMidYMid meet" version="1.0"><defs><clipPath id="505d5ff863"><path d="M 45.449219 30 L 254.699219 30 L 254.699219 270 L 45.449219 270 Z M 45.449219 30 " clip-rule="nonzero"/></clipPath></defs><g clip-path="url(#505d5ff863)"><path fill="currentColor" d="M 161.339844 83.890625 C 161.097656 83.824219 160.859375 83.757812 160.621094 83.714844 C 160.378906 83.671875 160.140625 83.628906 159.902344 83.585938 C 159.03125 83.410156 158.445312 82.953125 158.445312 81.972656 C 158.445312 81.84375 158.398438 81.714844 158.355469 81.5625 C 158.355469 81.539062 158.3125 81.496094 158.269531 81.429688 C 157.921875 81.277344 157.507812 81.234375 157.117188 81.167969 C 153.351562 80.539062 149.738281 79.40625 146.40625 77.511719 C 139.945312 73.835938 135.875 68.347656 134.046875 61.167969 C 133.042969 57.25 132.914062 53.265625 133.328125 49.238281 C 133.4375 48.238281 133.609375 47.238281 133.761719 46.238281 C 133.785156 45.996094 133.761719 45.78125 133.761719 45.519531 C 133.328125 45.386719 132.957031 45.476562 132.585938 45.519531 C 131.152344 45.691406 129.800781 46.105469 128.472656 46.671875 C 127.492188 47.085938 127.492188 47.085938 126.472656 46.757812 C 126.035156 47.238281 125.730469 47.824219 125.449219 48.414062 C 124.75 49.894531 124.230469 51.4375 123.859375 53.050781 C 123.164062 56.097656 122.988281 59.164062 123.207031 62.277344 C 123.488281 66.414062 124.554688 70.375 126.167969 74.183594 C 127.429688 77.207031 128.777344 80.167969 130.105469 83.171875 C 131.410156 86.085938 132.738281 89.003906 133.804688 92.03125 C 134.914062 95.183594 135.742188 98.429688 136.199219 101.738281 C 136.636719 105 136.65625 108.265625 136.332031 111.53125 C 135.980469 114.90625 135.328125 118.210938 134.199219 121.390625 C 134 121.914062 133.804688 122.433594 133.589844 122.957031 C 133.175781 123.957031 132.738281 124.9375 132.042969 125.832031 C 132.128906 125.984375 132.195312 126.136719 132.304688 126.265625 C 135.722656 130.660156 138.3125 135.539062 140.507812 140.628906 C 143.144531 146.746094 145.125 153.078125 146.710938 159.542969 C 148.148438 165.332031 149.257812 171.167969 150.109375 177.066406 C 150.71875 181.308594 151.195312 185.554688 151.566406 189.820312 C 152.414062 199.308594 152.546875 208.796875 152.328125 218.308594 C 152.304688 219.246094 152.242188 220.179688 152.195312 221.117188 C 152.175781 221.574219 152.152344 222.007812 152.304688 222.445312 C 152.480469 223.011719 152.285156 223.335938 151.761719 223.640625 C 151.5 223.792969 151.195312 223.902344 150.914062 224.03125 C 147.453125 225.535156 143.859375 226.644531 140.226562 227.535156 C 135.9375 228.601562 131.585938 229.34375 127.1875 229.910156 C 119.855469 230.84375 112.476562 231.105469 105.097656 230.867188 C 101.832031 230.757812 98.570312 230.496094 95.324219 230.105469 C 91.167969 229.605469 87.054688 228.90625 83.027344 227.796875 C 81.832031 227.472656 80.632812 227.078125 79.4375 226.710938 C 79.175781 226.621094 78.914062 226.515625 78.652344 226.40625 C 75.410156 224.902344 72.144531 223.402344 68.96875 221.726562 C 68.121094 221.269531 67.269531 220.769531 66.378906 220.246094 C 66.050781 220.441406 65.683594 220.636719 65.3125 220.832031 C 63.59375 221.769531 61.765625 222.25 59.804688 222.117188 C 57.957031 221.988281 56.28125 221.378906 54.734375 220.375 C 53.492188 219.570312 52.425781 218.589844 51.46875 217.480469 C 49.46875 215.109375 48.097656 212.367188 47.160156 209.429688 C 45.898438 205.53125 45.460938 201.550781 45.636719 197.480469 C 45.789062 193.976562 46.464844 190.582031 47.746094 187.316406 C 48.53125 185.335938 49.554688 183.464844 50.882812 181.808594 C 52.144531 180.242188 53.601562 178.914062 55.410156 178.023438 C 56.28125 177.609375 57.195312 177.28125 58.171875 176.867188 C 58.347656 176.652344 58.324219 176.28125 58.371094 175.953125 C 58.5 174.671875 58.652344 173.386719 58.761719 172.101562 C 59.066406 168.792969 59.742188 165.574219 60.589844 162.375 C 60.914062 161.15625 61.242188 159.957031 61.589844 158.761719 C 61.632812 158.585938 61.675781 158.433594 61.722656 158.28125 C 59.480469 156.214844 57.671875 153.839844 56.0625 151.316406 C 53.582031 147.378906 51.730469 143.132812 50.46875 138.648438 C 49.578125 135.472656 48.988281 132.207031 48.507812 128.941406 C 47.921875 124.871094 47.59375 120.78125 47.574219 116.667969 C 47.574219 113.488281 47.769531 110.332031 48.355469 107.222656 C 49.226562 102.605469 50.554688 98.167969 52.6875 93.964844 C 54.539062 90.332031 56.910156 87.089844 59.9375 84.347656 C 61.460938 82.953125 63.003906 81.625 64.679688 80.429688 C 67.621094 78.316406 70.820312 76.75 74.277344 75.707031 C 78.042969 74.597656 81.875 73.988281 85.792969 73.898438 C 87.859375 73.835938 89.882812 74.183594 91.84375 74.8125 C 94.257812 75.597656 96.480469 76.707031 98.480469 78.253906 C 98.828125 78.535156 99.199219 78.820312 99.546875 79.101562 C 103.726562 82.386719 106.121094 86.761719 107.230469 91.898438 C 107.46875 92.988281 107.601562 94.074219 107.644531 95.207031 C 107.773438 97.601562 107.710938 100.015625 107.601562 102.410156 C 107.601562 102.519531 107.621094 102.605469 107.621094 102.757812 C 107.6875 102.847656 107.773438 102.957031 107.882812 103.042969 C 108.320312 103.414062 108.472656 103.871094 108.449219 104.433594 C 108.429688 106.242188 108.449219 108.046875 108.449219 109.875 C 108.449219 111.335938 108.429688 112.792969 108.429688 114.273438 C 108.429688 114.535156 108.472656 114.816406 108.492188 115.035156 C 108.820312 115.316406 109.144531 115.273438 109.449219 115.296875 C 111.386719 115.492188 113.324219 115.710938 115.242188 116.101562 C 116.15625 116.296875 117.089844 116.429688 118.003906 116.582031 C 119.355469 116.820312 120.636719 117.191406 121.902344 117.734375 C 122.25 117.886719 122.597656 118.039062 123.011719 118.210938 C 123.121094 117.972656 123.25 117.777344 123.316406 117.582031 C 123.792969 115.949219 124.054688 114.25 124.1875 112.554688 C 124.46875 108.417969 123.988281 104.347656 123.03125 100.34375 C 121.8125 95.230469 120.117188 90.246094 118.265625 85.347656 C 117.023438 82.0625 115.71875 78.796875 114.5 75.488281 C 113.304688 72.222656 112.324219 68.871094 111.605469 65.476562 C 110.910156 62.191406 110.671875 58.859375 110.734375 55.507812 C 110.777344 53.355469 110.996094 51.199219 111.5625 49.109375 C 113.109375 43.515625 116.199219 38.96875 120.855469 35.484375 C 121.246094 35.203125 121.660156 34.941406 121.902344 34.484375 C 122.007812 34.289062 122.25 34.136719 122.445312 34.027344 C 125.1875 32.4375 128.125 31.394531 131.257812 30.9375 C 137.660156 30 143.644531 31.347656 149.28125 34.417969 C 153.808594 36.878906 157.636719 40.1875 160.925781 44.105469 C 165.691406 49.632812 169 56.007812 171.175781 63.015625 C 172.417969 67.023438 173.222656 71.113281 173.546875 75.292969 C 173.636719 76.445312 173.679688 77.578125 173.722656 78.730469 C 173.746094 79.015625 173.789062 79.320312 173.65625 79.558594 C 173.265625 80.296875 173.441406 81.039062 173.613281 81.777344 C 174.417969 85.261719 175.246094 88.765625 176.074219 92.246094 C 177.921875 100.214844 179.792969 108.15625 181.644531 116.125 C 183.757812 125.199219 185.890625 134.273438 188 143.351562 C 190.261719 153.078125 192.527344 162.785156 194.789062 172.515625 C 197.054688 182.199219 199.316406 191.886719 201.558594 201.570312 C 201.753906 202.421875 201.953125 203.246094 202.167969 204.097656 C 202.625 204.207031 203.019531 204.292969 203.429688 204.402344 C 203.671875 204.464844 203.910156 204.53125 204.128906 204.574219 C 204.648438 204.707031 204.976562 205.03125 205.105469 205.554688 C 205.257812 206.121094 205.433594 206.6875 205.5625 207.273438 C 206.042969 209.40625 206.523438 211.5625 206.980469 213.695312 C 207 213.761719 207.023438 213.824219 207.023438 213.890625 C 207.132812 214.609375 207 214.914062 206.371094 215.261719 C 206.128906 215.390625 205.867188 215.5 205.609375 215.652344 C 205.609375 215.804688 205.585938 215.9375 205.609375 216.066406 C 206.128906 218.046875 206.675781 220.027344 207.21875 222.007812 C 207.238281 222.117188 207.285156 222.203125 207.328125 222.292969 C 207.390625 222.355469 207.4375 222.421875 207.5 222.445312 C 208.523438 222.921875 208.457031 222.640625 208.808594 223.988281 C 209.613281 226.90625 210.394531 229.820312 211.179688 232.738281 C 211.289062 233.175781 211.332031 233.609375 211.398438 234.132812 C 213.792969 235.394531 215.269531 237.570312 216.640625 239.941406 C 216.882812 239.941406 217.121094 239.964844 217.339844 239.941406 C 220.234375 239.769531 223.128906 239.855469 226 240.007812 C 228.15625 240.117188 230.3125 240.3125 232.421875 240.75 C 235.753906 241.421875 238.648438 242.925781 241.191406 245.144531 C 242.714844 246.472656 244.066406 247.972656 245.242188 249.628906 C 247.789062 253.199219 250.074219 256.941406 252.164062 260.816406 C 252.621094 261.640625 252.96875 262.492188 253.183594 263.425781 C 253.445312 264.644531 253.902344 265.820312 254.273438 267.019531 C 254.339844 267.214844 254.425781 267.410156 254.46875 267.605469 C 254.535156 268.0625 254.316406 268.453125 253.882812 268.585938 C 253.511719 268.695312 253.121094 268.714844 252.75 268.738281 C 250.59375 268.78125 248.441406 268.78125 246.285156 268.824219 C 237.90625 268.976562 229.503906 269.109375 221.125 269.261719 C 213.289062 269.390625 205.457031 269.542969 197.621094 269.671875 C 191.460938 269.78125 185.300781 269.890625 179.140625 269.976562 C 177.597656 270 176.183594 269.542969 174.984375 268.585938 C 174.289062 268.019531 173.613281 267.386719 173.003906 266.734375 C 171.199219 264.796875 169.675781 262.644531 168.28125 260.378906 C 168.0625 260.03125 167.933594 259.617188 167.714844 259.269531 C 167.453125 258.835938 167.390625 258.355469 167.390625 257.878906 C 167.410156 256.003906 167.390625 254.113281 167.390625 252.238281 C 167.390625 251.542969 167.367188 250.847656 167.390625 250.152344 C 167.410156 248.496094 168.105469 247.210938 169.414062 246.210938 C 170.109375 245.6875 170.894531 245.320312 171.71875 244.992188 C 173.285156 244.382812 174.917969 244.011719 176.574219 243.75 C 179.488281 243.292969 182.429688 242.988281 185.386719 242.859375 C 186.605469 242.816406 187.824219 242.730469 189.042969 242.664062 C 189.242188 242.640625 189.457031 242.621094 189.699219 242.597656 C 189.828125 242.316406 189.957031 242.03125 190.089844 241.75 C 190.71875 240.3125 191.527344 238.964844 192.484375 237.722656 C 193.355469 236.613281 194.378906 235.675781 195.640625 235.046875 C 195.726562 235.003906 195.8125 234.957031 195.921875 234.894531 C 195.945312 234.871094 195.964844 234.828125 196.007812 234.742188 C 195.988281 234.589844 195.988281 234.394531 195.921875 234.195312 C 195.269531 231.957031 194.617188 229.714844 193.964844 227.492188 C 193.8125 226.972656 193.617188 226.449219 193.417969 225.925781 C 193.289062 225.601562 193.246094 225.25 193.289062 224.902344 C 193.636719 224.664062 193.964844 224.402344 194.3125 224.164062 C 193.679688 222.117188 193.070312 220.09375 192.460938 218.046875 C 192.046875 217.960938 191.679688 217.894531 191.308594 217.808594 C 190.917969 217.722656 190.632812 217.480469 190.480469 217.089844 C 190.414062 216.894531 190.328125 216.699219 190.285156 216.503906 C 189.632812 214.523438 188.980469 212.542969 188.347656 210.539062 C 188.152344 209.90625 188.023438 209.253906 187.871094 208.625 C 187.738281 208.058594 187.933594 207.601562 188.433594 207.296875 C 188.847656 207.035156 189.261719 206.796875 189.675781 206.535156 C 189.851562 206.25 189.71875 205.988281 189.652344 205.707031 C 187.914062 198.21875 186.171875 190.734375 184.429688 183.246094 C 182.035156 172.90625 179.621094 162.570312 177.226562 152.253906 C 174.832031 141.914062 172.417969 131.574219 170.023438 121.257812 C 167.300781 109.507812 164.582031 97.753906 161.839844 85.980469 C 161.75 85.238281 161.664062 84.542969 161.339844 83.890625 Z M 81.722656 177.914062 C 81.65625 178.109375 81.59375 178.261719 81.570312 178.4375 C 81.394531 179.546875 81.222656 180.632812 81.070312 181.742188 C 80.742188 184.203125 80.394531 186.640625 80.132812 189.101562 C 79.851562 191.734375 79.613281 194.367188 79.414062 197 C 79.199219 200.046875 79.003906 203.117188 78.871094 206.164062 C 78.675781 210.863281 78.632812 215.566406 78.675781 220.265625 C 78.699219 221.617188 78.804688 222.964844 78.871094 224.292969 C 79.394531 224.730469 79.960938 224.902344 80.527344 225.054688 C 82.09375 225.511719 83.660156 225.992188 85.25 226.382812 C 91.148438 227.839844 97.152344 228.539062 103.203125 228.84375 C 107.101562 229.039062 110.996094 229.105469 114.890625 228.929688 C 119.203125 228.753906 123.511719 228.429688 127.796875 227.863281 C 131.738281 227.363281 135.632812 226.644531 139.488281 225.707031 C 142.792969 224.902344 146.058594 223.925781 149.214844 222.617188 C 149.5625 222.464844 149.957031 222.402344 150.238281 222.050781 C 150.304688 219.789062 150.414062 217.503906 150.457031 215.195312 C 150.542969 210.972656 150.542969 206.773438 150.347656 202.550781 C 150.238281 200.113281 150.195312 197.675781 150.019531 195.261719 C 149.757812 191.648438 149.433594 188.035156 149.0625 184.441406 C 148.757812 181.527344 148.34375 178.652344 147.953125 175.738281 C 147.910156 175.410156 147.910156 175.039062 147.625 174.734375 C 147.300781 174.824219 146.972656 174.910156 146.648438 174.996094 C 144.273438 175.714844 141.878906 176.28125 139.464844 176.804688 C 134.589844 177.847656 129.691406 178.589844 124.730469 179.152344 C 120.726562 179.609375 116.699219 179.9375 112.652344 180.089844 C 105.621094 180.351562 98.589844 180.328125 91.582031 179.546875 C 88.40625 179.199219 85.226562 178.761719 82.136719 177.933594 C 82.027344 177.933594 81.875 177.933594 81.722656 177.914062 Z M 143.46875 155.125 C 143.402344 154.753906 143.359375 154.515625 143.296875 154.296875 C 142.773438 152.644531 142.292969 150.96875 141.75 149.3125 C 140.03125 144.15625 137.964844 139.148438 135.328125 134.382812 C 133.652344 131.359375 131.761719 128.484375 129.476562 125.894531 C 127.492188 123.632812 125.273438 121.652344 122.617188 120.171875 C 119.203125 118.300781 115.609375 117.753906 111.84375 118.800781 C 109.496094 119.453125 107.425781 120.648438 105.511719 122.128906 C 103.769531 123.480469 102.226562 125.023438 100.808594 126.699219 C 98.4375 129.507812 96.457031 132.578125 94.714844 135.777344 C 90.886719 142.851562 88.1875 150.359375 85.988281 158.0625 C 85.945312 158.257812 85.945312 158.457031 85.921875 158.714844 C 86.445312 158.890625 86.945312 159.085938 87.425781 159.238281 C 92.714844 160.632812 98.113281 161.503906 103.574219 161.785156 C 109.90625 162.089844 116.21875 161.808594 122.511719 160.828125 C 127.886719 160 133.152344 158.738281 138.289062 156.996094 C 139.988281 156.429688 141.664062 155.777344 143.46875 155.125 Z M 109.582031 117.449219 C 108.429688 117.082031 107.382812 116.886719 106.273438 117.558594 C 103.402344 119.277344 98.808594 119.277344 96.328125 117.449219 C 96.152344 117.320312 95.871094 117.296875 95.652344 117.277344 C 95.371094 117.277344 95.109375 117.320312 94.824219 117.386719 C 91.515625 117.929688 88.492188 119.234375 85.683594 121.042969 C 82.460938 123.132812 79.765625 125.765625 77.480469 128.832031 C 75.542969 131.445312 73.886719 134.210938 72.386719 137.082031 C 68.273438 145.027344 65.136719 153.339844 62.765625 161.960938 C 62.046875 164.570312 61.394531 167.203125 61.046875 169.902344 C 60.761719 172.082031 60.546875 174.257812 60.285156 176.433594 C 60.261719 176.5625 60.328125 176.695312 60.328125 176.847656 C 60.566406 176.890625 60.761719 176.957031 60.960938 176.976562 C 63.332031 177.21875 65.332031 178.261719 67.140625 179.785156 C 68.488281 180.917969 69.578125 182.265625 70.515625 183.746094 C 71.796875 185.75 72.734375 187.925781 73.410156 190.210938 C 74.539062 194.085938 74.996094 198.046875 74.734375 202.070312 C 74.539062 205.074219 73.996094 208.015625 72.972656 210.84375 C 71.972656 213.609375 70.601562 216.199219 68.535156 218.332031 C 68.359375 218.503906 68.230469 218.699219 68.054688 218.941406 C 68.621094 219.351562 69.1875 219.679688 69.773438 219.984375 C 71.710938 220.964844 73.625 221.921875 75.5625 222.878906 C 75.804688 223.011719 76.0625 223.117188 76.324219 223.207031 C 76.476562 223.25 76.628906 223.25 76.847656 223.292969 C 76.871094 223.074219 76.871094 222.945312 76.871094 222.8125 C 76.847656 221.074219 76.804688 219.332031 76.78125 217.589844 C 76.695312 211.039062 76.871094 204.511719 77.371094 197.980469 C 77.585938 195.171875 77.804688 192.363281 78.089844 189.558594 C 78.546875 185.203125 79.132812 180.851562 79.871094 176.519531 C 80.960938 170.054688 82.332031 163.679688 84.117188 157.367188 C 85.597656 152.144531 87.339844 147.007812 89.492188 142.023438 C 91.386719 137.625 93.5625 133.40625 96.261719 129.441406 C 97.851562 127.113281 99.613281 124.894531 101.636719 122.914062 C 103.859375 120.738281 106.339844 118.886719 109.234375 117.648438 C 109.34375 117.582031 109.472656 117.515625 109.582031 117.449219 Z M 97.066406 102.757812 C 97.066406 102.476562 97.089844 102.214844 97.066406 101.976562 C 97 101.105469 96.9375 100.234375 96.828125 99.386719 C 96.566406 97.058594 95.933594 94.816406 94.824219 92.726562 C 93.714844 90.59375 92.167969 88.832031 90.101562 87.546875 C 88.796875 86.71875 87.359375 86.152344 85.835938 85.980469 C 83.855469 85.738281 81.851562 85.828125 79.917969 86.304688 C 74.277344 87.761719 69.6875 90.722656 66.464844 95.664062 C 64.265625 99.039062 62.65625 102.695312 61.480469 106.523438 C 60.523438 109.636719 59.871094 112.792969 59.632812 116.035156 C 59.347656 120.085938 59.632812 124.089844 60.457031 128.070312 C 61.265625 131.96875 62.546875 135.710938 64.398438 139.257812 C 65.050781 140.519531 65.8125 141.742188 66.726562 142.851562 C 66.859375 143.003906 66.964844 143.21875 67.269531 143.15625 C 67.402344 142.871094 67.554688 142.566406 67.707031 142.261719 C 68.816406 139.738281 70.035156 137.277344 71.339844 134.863281 C 72.734375 132.316406 74.234375 129.878906 75.976562 127.550781 C 78.242188 124.523438 80.894531 121.890625 84.050781 119.757812 C 87.316406 117.558594 90.84375 115.972656 94.78125 115.40625 C 95.019531 115.363281 95.238281 115.273438 95.523438 115.1875 C 95.523438 114.816406 95.523438 114.492188 95.523438 114.140625 C 95.523438 111.117188 95.523438 108.09375 95.523438 105.066406 C 95.523438 104.761719 95.523438 104.433594 95.542969 104.128906 C 95.566406 103.671875 95.78125 103.347656 96.195312 103.152344 C 96.457031 103.019531 96.71875 102.910156 97.066406 102.757812 Z M 163.535156 83.976562 C 163.535156 84.0625 163.515625 84.171875 163.535156 84.257812 C 163.777344 85.390625 164.015625 86.5 164.277344 87.609375 C 166.105469 95.511719 167.933594 103.390625 169.78125 111.292969 C 171.9375 120.542969 174.070312 129.792969 176.226562 139.042969 C 178.421875 148.464844 180.601562 157.867188 182.796875 167.292969 C 185.0625 177.019531 187.304688 186.75 189.566406 196.457031 C 190.199219 199.199219 190.828125 201.941406 191.484375 204.683594 C 191.546875 204.945312 191.546875 205.25 191.875 205.402344 C 193.136719 204.878906 194.441406 204.359375 195.835938 204.183594 C 197.207031 204.007812 198.597656 203.902344 199.992188 203.769531 C 199.992188 203.75 200.015625 203.726562 200.035156 203.683594 C 200.058594 203.660156 200.058594 203.617188 200.058594 203.59375 C 200.058594 203.53125 200.058594 203.464844 200.035156 203.378906 C 190.546875 162.832031 181.078125 122.21875 171.589844 81.605469 C 171.589844 81.582031 171.566406 81.539062 171.523438 81.515625 C 171.503906 81.496094 171.457031 81.496094 171.480469 81.496094 C 170.175781 82.019531 168.914062 82.628906 167.585938 83.039062 C 166.300781 83.433594 164.90625 83.671875 163.535156 83.976562 Z M 217.621094 241.859375 C 217.730469 242.25 217.816406 242.511719 217.90625 242.773438 C 218.167969 243.597656 218.382812 244.449219 218.472656 245.320312 C 218.796875 248.125 217.511719 250.585938 214.988281 251.871094 C 213.792969 252.480469 212.527344 252.804688 211.179688 252.871094 C 208.414062 253 205.867188 252.304688 203.539062 250.847656 C 202.320312 250.085938 201.234375 249.171875 200.210938 248.171875 C 199.621094 247.582031 199.035156 246.972656 198.425781 246.40625 C 197.902344 245.90625 197.335938 245.425781 196.769531 244.992188 C 196.226562 244.558594 195.574219 244.253906 194.878906 244.144531 C 193.703125 243.949219 192.527344 243.949219 191.375 244.296875 C 190.980469 244.425781 190.566406 244.46875 190.15625 244.511719 C 187.109375 244.730469 184.039062 244.90625 180.992188 245.144531 C 179.011719 245.296875 177.050781 245.578125 175.117188 246.015625 C 173.765625 246.320312 172.417969 246.710938 171.199219 247.40625 C 169.828125 248.171875 169.261719 249.324219 169.457031 250.890625 C 169.585938 251.871094 169.871094 252.785156 170.261719 253.675781 C 171.152344 255.699219 172.351562 257.527344 173.636719 259.3125 C 173.699219 259.402344 173.789062 259.445312 173.875 259.488281 C 174.375 259.445312 174.855469 259.402344 175.332031 259.378906 C 180.035156 259.25 184.734375 259.117188 189.414062 259.007812 C 195.640625 258.855469 201.863281 258.726562 208.109375 258.59375 C 214.835938 258.441406 221.539062 258.289062 228.265625 258.160156 C 233.207031 258.050781 238.144531 257.964844 243.085938 257.878906 C 244.546875 257.855469 246.003906 257.789062 247.460938 257.746094 C 247.65625 257.746094 247.851562 257.703125 248.136719 257.660156 C 248.027344 257.421875 247.984375 257.269531 247.898438 257.136719 C 246.503906 254.980469 245.109375 252.804688 243.675781 250.671875 C 242.714844 249.257812 241.542969 248.019531 240.277344 246.863281 C 238.039062 244.839844 235.492188 243.425781 232.53125 242.75 C 230.855469 242.359375 229.15625 242.207031 227.460938 242.054688 C 224.476562 241.792969 221.472656 241.792969 218.492188 241.816406 C 218.230469 241.816406 217.992188 241.835938 217.621094 241.859375 Z M 123.945312 35.417969 C 124.292969 36.3125 124.644531 37.183594 124.992188 38.054688 C 125.796875 40.097656 126.578125 42.121094 127.40625 44.167969 C 127.492188 44.410156 127.515625 44.734375 127.886719 44.820312 C 127.996094 44.777344 128.125 44.734375 128.234375 44.667969 C 131.5625 43.210938 134.980469 43.101562 138.421875 44.191406 C 140.835938 44.953125 142.96875 46.28125 144.90625 47.890625 C 146.929688 49.566406 148.648438 51.523438 150.171875 53.660156 C 152.347656 56.707031 154.089844 59.992188 155.527344 63.429688 C 157.878906 69.089844 159.378906 74.964844 160.292969 80.996094 C 160.316406 81.191406 160.378906 81.386719 160.445312 81.605469 C 161.316406 81.84375 162.1875 81.910156 163.058594 81.867188 C 166.019531 81.714844 168.695312 80.710938 171.199219 79.210938 C 171.609375 78.972656 171.785156 78.6875 171.742188 78.1875 C 171.609375 76.273438 171.503906 74.378906 171.242188 72.464844 C 170.5 67.109375 169.042969 61.996094 166.824219 57.074219 C 164.296875 51.460938 160.945312 46.410156 156.527344 42.101562 C 153.480469 39.121094 150.019531 36.636719 146.058594 34.898438 C 141.683594 32.980469 137.113281 32.089844 132.324219 32.675781 C 129.539062 33.023438 126.882812 33.832031 124.402344 35.113281 C 124.25 35.203125 124.121094 35.3125 123.945312 35.417969 Z M 72.90625 199.960938 C 72.820312 198.742188 72.753906 197.523438 72.648438 196.328125 C 72.386719 193.605469 71.753906 190.972656 70.730469 188.449219 C 69.925781 186.421875 68.882812 184.550781 67.46875 182.898438 C 66.464844 181.722656 65.332031 180.699219 63.960938 179.960938 C 61.199219 178.457031 58.433594 178.523438 55.714844 180.113281 C 54.539062 180.808594 53.539062 181.722656 52.644531 182.765625 C 51.339844 184.332031 50.359375 186.074219 49.597656 187.96875 C 48.507812 190.667969 47.898438 193.476562 47.640625 196.371094 C 47.269531 200.613281 47.703125 204.769531 48.988281 208.839844 C 49.773438 211.320312 50.882812 213.628906 52.472656 215.675781 C 53.472656 216.9375 54.605469 218.070312 55.996094 218.894531 C 59.042969 220.703125 62.070312 220.636719 65.050781 218.722656 C 66.226562 217.960938 67.207031 216.980469 68.078125 215.871094 C 69.078125 214.609375 69.859375 213.214844 70.515625 211.734375 C 72.144531 207.992188 72.84375 204.03125 72.90625 199.960938 Z M 105.773438 163.875 C 105.859375 164.941406 105.96875 165.878906 106.011719 166.8125 C 106.054688 167.792969 106.078125 168.75 106.078125 169.730469 C 106.078125 170.664062 106.078125 171.601562 106.054688 172.539062 C 106.011719 173.515625 105.925781 174.472656 105.902344 175.453125 C 105.859375 176.367188 105.621094 177.28125 105.640625 178.195312 C 108.949219 178.652344 126.753906 177.371094 130.039062 176.453125 C 130.0625 176.347656 130.128906 176.214844 130.128906 176.085938 C 130.171875 174.214844 130.019531 172.339844 129.824219 170.46875 C 129.539062 167.726562 128.910156 165.050781 128.191406 162.394531 C 128.148438 162.242188 128.058594 162.089844 127.972656 161.871094 C 126.121094 162.113281 124.339844 162.546875 122.511719 162.785156 C 120.683594 163.027344 118.851562 163.265625 117.023438 163.441406 C 115.152344 163.613281 113.28125 163.722656 111.410156 163.808594 C 109.558594 163.875 107.710938 163.875 105.773438 163.875 Z M 81.960938 175.996094 C 88.339844 177.523438 94.714844 178 101.113281 178.261719 C 101.941406 178.285156 102.769531 178.347656 103.660156 178.238281 C 103.726562 177.675781 103.75 177.152344 103.8125 176.652344 C 104.25 172.777344 104.25 168.882812 103.945312 164.984375 C 103.902344 164.570312 103.902344 164.15625 103.660156 163.765625 C 102.550781 163.679688 101.464844 163.546875 100.351562 163.484375 C 98.371094 163.375 96.414062 163.027344 94.457031 162.722656 C 91.558594 162.285156 88.730469 161.566406 85.921875 160.761719 C 85.726562 160.71875 85.53125 160.71875 85.269531 160.675781 C 83.921875 165.746094 82.855469 170.796875 81.960938 175.996094 Z M 192.289062 242.03125 C 192.832031 242.03125 193.265625 242.03125 193.722656 242.03125 C 195.335938 242.03125 196.816406 242.511719 198.097656 243.492188 C 198.707031 243.949219 199.273438 244.46875 199.816406 244.992188 C 200.40625 245.535156 200.949219 246.125 201.515625 246.691406 C 202.515625 247.667969 203.582031 248.5625 204.78125 249.28125 C 206.476562 250.304688 208.328125 250.847656 210.332031 250.914062 C 211.746094 250.957031 213.09375 250.695312 214.355469 250 C 215.488281 249.367188 216.183594 248.410156 216.488281 247.167969 C 216.664062 246.449219 216.640625 245.710938 216.46875 244.992188 C 215.816406 242.03125 214.464844 239.464844 212.398438 237.242188 C 211.441406 236.222656 210.289062 235.699219 208.914062 235.566406 C 208.699219 235.546875 208.503906 235.546875 208.285156 235.523438 C 206.238281 235.328125 204.171875 235.4375 202.125 235.566406 C 200.839844 235.65625 199.558594 235.828125 198.316406 236.132812 C 197.597656 236.308594 196.921875 236.570312 196.292969 236.9375 C 194.746094 237.808594 192.917969 240.117188 192.289062 242.03125 Z M 147.367188 172.710938 C 147.472656 172.429688 147.386719 172.125 147.34375 171.820312 C 147.167969 170.816406 146.972656 169.839844 146.800781 168.835938 C 146.082031 165.117188 145.253906 161.414062 144.296875 157.738281 C 144.230469 157.476562 144.210938 157.191406 143.90625 157.039062 C 143.796875 157.0625 143.707031 157.085938 143.601562 157.128906 C 139.355469 158.804688 135.023438 160.175781 130.585938 161.21875 C 130.367188 161.261719 130.148438 161.394531 129.910156 161.480469 C 130.628906 163.898438 131.214844 166.289062 131.5625 168.75 C 131.914062 171.1875 132.019531 173.648438 132.171875 176.105469 C 134.132812 176.148438 145.363281 173.691406 147.367188 172.710938 Z M 135.828125 45.691406 C 135.742188 46.0625 135.632812 46.410156 135.589844 46.738281 C 135.4375 47.976562 135.308594 49.21875 135.175781 50.457031 C 134.871094 53.8125 135.089844 57.140625 135.875 60.40625 C 137.613281 67.632812 141.773438 72.964844 148.386719 76.359375 C 151.261719 77.816406 154.328125 78.710938 157.484375 79.253906 C 157.617188 79.277344 157.746094 79.230469 157.921875 79.230469 C 157.941406 78.382812 157.703125 77.621094 157.550781 76.835938 C 157.378906 76.074219 157.332031 75.269531 156.941406 74.574219 C 155.199219 74.140625 153.589844 73.507812 152.023438 72.722656 C 142.707031 67.980469 138.679688 58.597656 139.617188 49.71875 C 139.703125 48.828125 139.8125 47.933594 139.921875 47.0625 C 138.878906 46.34375 137.308594 45.824219 135.828125 45.691406 Z M 178.574219 267.953125 C 179.273438 267.976562 179.925781 267.996094 180.578125 267.996094 C 184.300781 267.933594 188.023438 267.84375 191.742188 267.78125 C 199.359375 267.648438 206.980469 267.519531 214.597656 267.386719 C 222.867188 267.234375 231.160156 267.105469 239.429688 266.953125 C 243.28125 266.886719 247.15625 266.824219 251.007812 266.757812 C 251.335938 266.757812 251.683594 266.824219 252.03125 266.582031 C 251.792969 265.777344 251.640625 264.972656 251.269531 264.1875 C 250.878906 264.1875 250.53125 264.1875 250.183594 264.1875 C 248.613281 264.230469 247.046875 264.277344 245.480469 264.296875 C 238.144531 264.449219 230.789062 264.582031 223.453125 264.710938 C 217.578125 264.820312 211.703125 264.90625 205.804688 265.015625 C 199.40625 265.144531 193.007812 265.277344 186.605469 265.40625 C 183.996094 265.449219 181.382812 265.496094 178.773438 265.558594 C 178.46875 265.558594 178.140625 265.472656 177.878906 265.777344 C 178.03125 266.472656 178.183594 267.171875 178.574219 267.953125 Z M 175.203125 261.292969 C 175.375 261.578125 175.441406 261.730469 175.550781 261.859375 C 175.898438 262.296875 176.289062 262.707031 176.617188 263.144531 C 176.898438 263.515625 177.226562 263.644531 177.683594 263.621094 C 180.816406 263.535156 183.953125 263.46875 187.085938 263.40625 C 194.703125 263.253906 202.320312 263.121094 209.9375 262.96875 C 216.273438 262.859375 222.605469 262.753906 228.941406 262.644531 C 235.054688 262.535156 241.191406 262.402344 247.308594 262.296875 C 248.246094 262.273438 249.179688 262.273438 250.117188 262.230469 C 250.269531 262.230469 250.421875 262.144531 250.683594 262.078125 C 250.269531 261.230469 249.878906 260.46875 249.375 259.707031 C 249.09375 259.707031 248.8125 259.707031 248.550781 259.707031 C 242.433594 259.835938 236.296875 259.964844 230.179688 260.117188 C 223.78125 260.25 217.382812 260.402344 210.984375 260.53125 C 205.976562 260.640625 200.972656 260.726562 195.945312 260.835938 C 189.261719 260.96875 182.582031 261.121094 175.898438 261.25 C 175.726562 261.25 175.550781 261.273438 175.203125 261.292969 Z M 141.773438 48.109375 C 141.683594 48.5 141.597656 48.761719 141.574219 49.023438 C 141.359375 51.394531 141.316406 53.765625 141.792969 56.097656 C 143.402344 64.082031 148.191406 69.328125 155.746094 72.160156 C 155.917969 72.222656 156.113281 72.332031 156.375 72.160156 C 156.332031 71.960938 156.3125 71.722656 156.265625 71.484375 C 155.242188 67.871094 153.9375 64.34375 152.261719 60.972656 C 151 58.402344 149.519531 55.964844 147.757812 53.703125 C 146.34375 51.875 144.753906 50.21875 142.925781 48.828125 C 142.597656 48.585938 142.292969 48.324219 141.773438 48.109375 Z M 209.4375 233.632812 C 208.980469 231.976562 208.589844 230.453125 208.175781 228.953125 C 207.742188 227.429688 207.390625 225.859375 206.890625 224.382812 C 205.914062 224.011719 204.933594 223.902344 203.976562 223.878906 C 201.296875 223.816406 198.730469 224.335938 196.269531 225.449219 C 196.054688 225.535156 195.855469 225.6875 195.660156 225.796875 C 195.660156 225.949219 195.660156 226.058594 195.683594 226.164062 C 196.402344 228.625 197.121094 231.105469 197.859375 233.566406 C 197.925781 233.761719 198.011719 233.9375 198.121094 234.152344 C 199.96875 233.828125 201.800781 233.585938 203.648438 233.523438 C 205.5 233.433594 207.371094 233.414062 209.4375 233.632812 Z M 192.246094 215.609375 C 192.332031 215.589844 192.441406 215.566406 192.550781 215.523438 C 196.226562 213.847656 200.078125 213.152344 204.128906 213.585938 C 204.390625 213.609375 204.648438 213.5625 204.976562 213.542969 C 204.890625 213.085938 204.800781 212.714844 204.738281 212.34375 C 204.367188 210.582031 203.953125 208.820312 203.605469 207.035156 C 203.519531 206.554688 203.300781 206.292969 202.800781 206.25 C 202.257812 206.1875 201.710938 206.078125 201.144531 205.988281 C 197.097656 205.402344 193.441406 206.535156 190.003906 208.601562 C 189.980469 208.625 189.957031 208.667969 189.9375 208.6875 C 190.089844 209.558594 191.894531 214.980469 192.246094 215.609375 Z M 97.503906 104.957031 C 97.503906 108.679688 97.503906 112.25 97.503906 115.796875 C 99.917969 117.558594 104.46875 117.101562 106.511719 114.925781 C 106.511719 111.75 106.511719 108.550781 106.511719 105.347656 C 106.511719 105.242188 106.425781 105.109375 106.359375 104.957031 C 103.402344 105.546875 100.503906 105.699219 97.503906 104.957031 Z M 194.269531 217.023438 C 194.59375 218.113281 194.898438 219.136719 195.226562 220.179688 C 195.550781 221.203125 195.769531 222.25 196.207031 223.226562 C 200.753906 222.074219 199.578125 222.074219 205.042969 221.921875 C 205.042969 221.117188 204.238281 217.960938 203.453125 215.609375 C 201.144531 215.066406 196.03125 215.9375 194.269531 217.023438 Z M 64.550781 143.285156 C 64.070312 142.609375 63.703125 141.828125 63.09375 141.152344 C 62.941406 141.261719 62.832031 141.347656 62.722656 141.4375 C 61.675781 142.4375 60.480469 143.199219 59.175781 143.765625 C 58.066406 144.242188 56.910156 144.65625 55.777344 145.09375 C 55.5625 145.179688 55.34375 145.265625 55.148438 145.375 C 55.605469 146.660156 56.5625 148.445312 57.128906 149.054688 C 59.195312 148.617188 63.222656 145.960938 64.550781 143.285156 Z M 61.613281 100.519531 C 59.742188 99.84375 58.238281 98.863281 56.890625 97.644531 C 56.171875 96.992188 55.519531 96.273438 54.820312 95.578125 C 54.691406 95.445312 54.515625 95.335938 54.320312 95.183594 C 53.625 96.621094 52.992188 97.992188 52.535156 99.386719 C 52.625 99.539062 52.644531 99.605469 52.6875 99.648438 C 54.453125 101.171875 56.433594 102.28125 58.71875 102.824219 C 59.328125 102.976562 59.957031 103.019531 60.609375 102.890625 C 60.980469 102.171875 61.242188 101.386719 61.613281 100.519531 Z M 51.46875 134.1875 C 51.6875 135.601562 52.035156 136.910156 52.40625 138.171875 C 54.582031 138.605469 58.652344 137.34375 60.503906 135.667969 C 60.394531 134.90625 59.847656 133.339844 59.480469 132.664062 C 58.933594 132.902344 58.414062 133.164062 57.867188 133.359375 C 56.824219 133.730469 55.714844 133.925781 54.605469 133.992188 C 53.601562 134.078125 52.601562 134.121094 51.46875 134.1875 Z M 91.125 85.78125 C 93.105469 83.824219 95.195312 81.929688 97.414062 80.210938 C 97.457031 80.167969 97.457031 80.082031 97.503906 79.992188 C 96.761719 79.320312 95.890625 78.816406 95.042969 78.273438 C 94.585938 77.96875 94.195312 77.96875 93.714844 78.296875 C 92.257812 79.339844 90.929688 80.496094 89.972656 82.019531 C 89.535156 82.691406 89.121094 83.367188 88.710938 84.042969 C 88.621094 84.171875 88.578125 84.347656 88.492188 84.519531 C 89.363281 84.957031 90.210938 85.347656 91.125 85.78125 Z M 94.324219 88.480469 C 95.804688 87.960938 97.109375 87.4375 98.328125 86.652344 C 99.789062 85.675781 101.070312 84.652344 101.636719 83.910156 C 100.917969 82.996094 100.136719 82.125 99.179688 81.429688 C 98.960938 81.582031 98.765625 81.667969 98.613281 81.800781 C 97.523438 82.671875 96.4375 83.542969 95.390625 84.457031 C 94.519531 85.21875 93.714844 86.023438 92.886719 86.804688 C 92.867188 86.828125 92.84375 86.871094 92.84375 86.894531 C 92.84375 86.914062 92.84375 86.957031 92.867188 87.066406 C 93.324219 87.523438 93.824219 87.980469 94.324219 88.480469 Z M 50.46875 107.046875 C 50.164062 108.308594 49.988281 109.464844 49.945312 110.636719 C 50.402344 111.007812 50.902344 111.140625 51.40625 111.269531 C 52.578125 111.617188 53.777344 111.769531 54.996094 111.855469 C 55.929688 111.921875 56.867188 111.8125 57.804688 111.660156 C 58.066406 111.617188 58.28125 111.488281 58.324219 111.226562 C 58.457031 110.484375 58.71875 109.769531 58.738281 108.960938 C 55.867188 108.789062 53.167969 108.113281 50.46875 107.046875 Z M 74.519531 77.796875 C 73.648438 77.882812 72.996094 78.207031 72.320312 78.46875 C 71.625 78.730469 70.882812 78.949219 70.296875 79.472656 C 70.621094 81.429688 71.230469 83.28125 71.839844 85.128906 C 71.949219 85.414062 72.101562 85.695312 72.277344 85.957031 C 72.515625 86.285156 72.691406 86.675781 73.125 86.871094 C 73.820312 86.480469 74.582031 86.21875 75.257812 85.738281 C 75.214844 85.585938 75.171875 85.457031 75.128906 85.324219 C 74.671875 84.171875 74.476562 82.976562 74.453125 81.757812 C 74.453125 80.753906 74.496094 79.734375 74.519531 78.730469 C 74.519531 78.449219 74.519531 78.1875 74.519531 77.796875 Z M 49.816406 121.671875 C 50.796875 122 52.601562 122.152344 54.496094 122 C 55.519531 121.914062 56.5625 121.933594 57.5625 121.410156 C 57.5625 120.890625 57.585938 120.367188 57.5625 119.867188 C 57.542969 119.367188 57.671875 118.84375 57.433594 118.386719 C 56.519531 118.496094 55.648438 118.667969 54.800781 118.691406 C 53.929688 118.714844 53.058594 118.625 52.210938 118.515625 C 51.359375 118.410156 50.535156 118.210938 49.683594 118.058594 C 49.554688 119.039062 49.621094 120.585938 49.816406 121.671875 Z M 58.390625 127.789062 C 55.757812 128.789062 53.167969 128.746094 50.511719 128.59375 C 50.492188 129.269531 50.621094 129.835938 50.730469 130.402344 C 50.839844 130.964844 50.75 131.597656 51.164062 132.097656 C 51.382812 132.121094 51.578125 132.164062 51.796875 132.164062 C 53.363281 132.207031 54.929688 132.078125 56.453125 131.726562 C 57.085938 131.574219 57.695312 131.316406 58.304688 131.054688 C 58.585938 130.945312 58.847656 130.75 58.957031 130.355469 C 58.804688 129.550781 58.609375 128.726562 58.390625 127.789062 Z M 134.457031 104.066406 C 134.503906 103 134.285156 101.996094 134.132812 101.019531 C 134.109375 100.910156 134 100.800781 133.9375 100.691406 C 132.980469 100.929688 132.085938 101.191406 131.171875 101.386719 C 130.214844 101.605469 129.257812 101.738281 128.320312 101.953125 C 127.429688 102.148438 126.472656 102.042969 125.578125 102.367188 C 125.6875 103.238281 125.753906 104.042969 126.015625 104.804688 C 128.667969 105.042969 132.980469 104.675781 134.457031 104.066406 Z M 65.941406 145.003906 C 65.179688 145.832031 64.464844 146.636719 63.703125 147.398438 C 62.917969 148.183594 62.027344 148.855469 61.046875 149.402344 C 60.109375 149.925781 59.152344 150.382812 58.21875 150.882812 C 58.695312 151.859375 59.742188 153.277344 60.480469 153.90625 C 61.351562 153.449219 62.242188 153.015625 63.136719 152.515625 C 63.613281 152.253906 63.898438 151.839844 64.09375 151.316406 C 64.746094 149.53125 65.464844 147.746094 66.140625 145.960938 C 66.203125 145.808594 66.292969 145.636719 66.3125 145.484375 C 66.355469 145.246094 66.226562 145.09375 65.941406 145.003906 Z M 124.46875 97.667969 C 124.597656 98.210938 124.6875 98.601562 124.796875 99.015625 C 124.902344 99.40625 125.011719 99.800781 125.101562 100.167969 C 127.035156 100.300781 132.109375 99.320312 133.566406 98.558594 C 133.523438 97.578125 133.085938 95.96875 132.675781 95.273438 C 131.824219 95.621094 130.976562 96.011719 130.105469 96.339844 C 129.191406 96.664062 128.253906 96.96875 127.320312 97.1875 C 126.425781 97.40625 125.492188 97.515625 124.46875 97.667969 Z M 112.910156 52.898438 C 115.066406 54.398438 119.398438 56.140625 121.226562 56.25 C 121.507812 55.507812 121.507812 55.507812 121.464844 54.636719 C 121.421875 54.59375 121.378906 54.550781 121.3125 54.507812 C 121.203125 54.441406 121.074219 54.375 120.941406 54.3125 C 119.308594 53.507812 117.832031 52.460938 116.460938 51.285156 C 115.675781 50.609375 114.890625 49.914062 114.085938 49.238281 C 113.976562 49.152344 113.804688 49.109375 113.628906 49.042969 C 113.261719 50.328125 113.019531 51.570312 112.910156 52.898438 Z M 104.359375 89.070312 C 103.8125 87.4375 103.3125 86.4375 102.726562 85.78125 C 101.984375 86.347656 101.265625 86.957031 100.503906 87.503906 C 99.765625 88.023438 99.027344 88.527344 98.242188 88.960938 C 97.4375 89.394531 96.566406 89.722656 95.652344 90.136719 C 95.804688 90.417969 95.933594 90.703125 96.109375 90.964844 C 96.285156 91.246094 96.390625 91.59375 96.71875 91.789062 C 99.917969 91.878906 103.3125 90.570312 104.359375 89.070312 Z M 121.921875 52.570312 C 122.160156 51.742188 122.464844 51.023438 122.53125 50.199219 C 119.746094 48.675781 118.003906 46.148438 116.066406 43.800781 C 115.414062 44.539062 114.804688 45.734375 114.542969 46.757812 C 115.699219 48.324219 119.875 51.632812 121.921875 52.570312 Z M 80.222656 76.53125 C 80.089844 76.488281 79.980469 76.402344 79.894531 76.425781 C 78.828125 76.640625 77.71875 76.75 76.695312 77.164062 C 76.652344 77.316406 76.585938 77.402344 76.585938 77.511719 C 76.5 78.863281 76.414062 80.210938 76.367188 81.5625 C 76.347656 82.496094 76.542969 83.433594 76.804688 84.324219 C 76.871094 84.542969 77 84.761719 77.128906 85 C 78 84.761719 78.828125 84.609375 79.613281 84.214844 C 79.21875 81.582031 79.589844 79.035156 80.222656 76.53125 Z M 121.140625 58.273438 C 119.203125 57.988281 117.460938 57.402344 115.785156 56.617188 C 114.957031 56.226562 114.152344 55.835938 113.347656 55.464844 C 113.171875 55.378906 112.976562 55.355469 112.714844 55.289062 C 112.695312 56.507812 112.671875 57.640625 112.757812 58.773438 C 112.933594 58.859375 113.042969 58.96875 113.171875 59.011719 C 115.371094 59.664062 117.613281 60.164062 119.875 60.492188 C 120.269531 60.558594 120.703125 60.621094 121.140625 60.425781 C 121.226562 59.730469 121.246094 59.035156 121.140625 58.273438 Z M 49.792969 112.902344 C 49.554688 113.902344 49.554688 115.164062 49.730469 115.925781 C 52.101562 116.929688 55.84375 117.058594 57.671875 116.144531 C 57.714844 115.773438 57.761719 115.363281 57.78125 114.949219 C 57.804688 114.554688 57.933594 114.140625 57.804688 113.75 C 54.84375 113.730469 54.605469 114.140625 49.792969 112.902344 Z M 53.167969 140.304688 C 53.320312 141.285156 53.863281 142.699219 54.34375 143.4375 C 56.519531 143.21875 60.589844 141.109375 62.179688 139.324219 C 61.960938 138.714844 61.742188 138.0625 61.242188 137.519531 C 58.847656 139.390625 56.039062 139.976562 53.167969 140.304688 Z M 113 61.125 C 113.019531 62.277344 113.195312 63.34375 113.476562 64.476562 C 115.652344 64.824219 117.832031 65.0625 120.027344 65.148438 C 120.507812 65.171875 121.007812 65.238281 121.488281 64.996094 C 121.507812 64.148438 121.378906 63.34375 121.203125 62.539062 C 120.464844 62.472656 119.769531 62.429688 119.09375 62.34375 C 118.441406 62.253906 117.785156 62.101562 117.15625 61.972656 C 116.480469 61.84375 115.804688 61.667969 115.109375 61.539062 C 114.414062 61.429688 113.78125 61.078125 113 61.125 Z M 92.015625 76.988281 C 90.84375 76.425781 89.6875 76.164062 88.46875 75.988281 C 86.402344 78.207031 85.226562 80.800781 84.75 83.800781 C 85.3125 83.953125 85.859375 84 86.425781 84 C 86.96875 83.105469 87.445312 82.234375 88.011719 81.410156 C 88.558594 80.601562 89.121094 79.796875 89.777344 79.078125 C 90.449219 78.359375 91.234375 77.730469 92.015625 76.988281 Z M 59.914062 105.042969 C 59.21875 104.9375 58.628906 104.871094 58.066406 104.71875 C 57.5 104.585938 56.933594 104.390625 56.386719 104.175781 C 55.867188 103.976562 55.367188 103.738281 54.886719 103.476562 C 54.363281 103.195312 53.863281 102.910156 53.363281 102.585938 C 52.863281 102.28125 52.40625 101.933594 51.90625 101.605469 C 51.425781 102.5625 50.992188 104.195312 50.992188 105.066406 C 51.207031 105.175781 51.449219 105.328125 51.710938 105.414062 C 53.492188 106.113281 55.34375 106.570312 57.238281 106.828125 C 57.933594 106.917969 58.675781 107.003906 59.390625 106.742188 C 59.542969 106.199219 59.71875 105.675781 59.914062 105.042969 Z M 117.265625 41.925781 C 117.328125 42.058594 117.394531 42.210938 117.503906 42.339844 C 118.679688 43.972656 119.941406 45.539062 121.398438 46.933594 C 121.8125 47.347656 122.292969 47.695312 122.769531 48.066406 C 122.921875 48.171875 123.121094 48.261719 123.316406 48.371094 C 123.621094 47.804688 123.902344 47.304688 124.078125 46.714844 C 122.054688 44.515625 120.769531 41.90625 119.613281 39.226562 C 118.765625 39.792969 117.832031 40.882812 117.265625 41.925781 Z M 55.386719 93.160156 C 55.519531 93.355469 55.605469 93.507812 55.714844 93.640625 C 56.78125 94.945312 57.957031 96.097656 59.304688 97.101562 C 60.023438 97.644531 60.808594 98.101562 61.65625 98.429688 C 61.894531 98.539062 62.179688 98.558594 62.417969 98.625 C 63.222656 97.492188 63.59375 96.710938 63.679688 96.097656 C 60.523438 95.640625 58.609375 93.488281 56.890625 90.984375 C 56.738281 91.160156 56.605469 91.269531 56.519531 91.398438 C 56.128906 91.984375 55.757812 92.574219 55.386719 93.160156 Z M 122.945312 92.421875 C 125.511719 91.898438 129.582031 90.027344 130.542969 88.894531 C 130.214844 88.242188 130.039062 87.503906 129.5625 86.871094 C 127.277344 88.15625 124.882812 89.046875 122.335938 89.527344 C 122.25 89.546875 122.183594 89.636719 122.054688 89.722656 C 122.292969 90.613281 122.554688 91.507812 122.945312 92.421875 Z M 58.21875 89.113281 C 58.261719 89.242188 58.261719 89.351562 58.324219 89.441406 C 59.132812 91.007812 60.242188 92.335938 61.722656 93.3125 C 62.699219 93.964844 63.808594 94.226562 64.964844 94.316406 C 65.246094 94.011719 65.484375 93.726562 65.59375 93.355469 C 65.484375 93.25 65.421875 93.160156 65.332031 93.117188 C 63.984375 92.269531 62.960938 91.09375 62.113281 89.765625 C 61.613281 88.960938 61.15625 88.15625 60.65625 87.351562 C 60.546875 87.175781 60.523438 86.9375 60.152344 86.914062 C 59.480469 87.589844 58.78125 88.285156 58.21875 89.113281 Z M 134.523438 106.21875 C 134.285156 106.242188 134.109375 106.265625 133.957031 106.285156 C 133.238281 106.394531 132.523438 106.570312 131.804688 106.613281 C 130.148438 106.722656 128.472656 106.765625 126.820312 106.828125 C 126.625 106.828125 126.425781 106.894531 126.210938 106.917969 C 126.210938 107.179688 126.1875 107.375 126.210938 107.589844 C 126.230469 107.832031 126.273438 108.070312 126.320312 108.351562 C 128.996094 109.136719 131.652344 109.855469 134.457031 109.59375 C 134.675781 108.65625 134.699219 107.351562 134.523438 106.21875 Z M 121.3125 87.699219 C 123.378906 87.523438 127.515625 86 128.757812 84.957031 C 128.472656 84.238281 128.210938 83.496094 127.734375 82.78125 C 127.472656 82.910156 127.277344 83.019531 127.058594 83.128906 C 126.449219 83.390625 125.863281 83.695312 125.230469 83.867188 C 123.792969 84.257812 122.335938 84.585938 120.878906 84.957031 C 120.726562 85 120.574219 85.085938 120.398438 85.152344 C 120.660156 86.066406 121.007812 86.894531 121.3125 87.699219 Z M 65.574219 82.234375 C 66.140625 84.957031 67.835938 87.328125 70.1875 88.765625 C 70.382812 88.65625 70.578125 88.527344 70.773438 88.394531 C 70.949219 88.265625 71.125 88.113281 71.253906 88.003906 C 70.796875 87.21875 70.273438 86.542969 69.992188 85.761719 C 69.402344 84.195312 68.902344 82.628906 68.597656 80.972656 C 68.554688 80.800781 68.445312 80.625 68.359375 80.40625 C 67.359375 80.953125 66.464844 81.5625 65.574219 82.234375 Z M 50.164062 126.484375 C 50.664062 126.570312 51.035156 126.679688 51.40625 126.699219 C 52.992188 126.789062 54.605469 126.765625 56.171875 126.460938 C 56.800781 126.332031 57.476562 126.265625 58.019531 125.808594 C 57.976562 125.023438 57.957031 124.285156 57.671875 123.589844 C 56.757812 123.71875 55.910156 123.871094 55.0625 123.9375 C 54.234375 124.003906 53.386719 123.9375 52.558594 123.980469 C 51.710938 124.023438 50.859375 123.804688 49.925781 123.851562 C 50.011719 124.742188 50.078125 125.570312 50.164062 126.484375 Z M 63.855469 83.714844 C 63.003906 84.171875 62.375 84.738281 61.917969 85.414062 C 62.460938 86.785156 64.09375 89.441406 65.050781 90.398438 C 65.59375 90.941406 66.160156 91.421875 66.902344 91.789062 C 67.46875 91.222656 68.011719 90.660156 68.621094 90.050781 C 67.402344 89.308594 66.488281 88.375 65.726562 87.285156 C 64.941406 86.175781 64.441406 84.933594 63.855469 83.714844 Z M 114.9375 70.089844 C 117.199219 69.675781 119.417969 69.503906 121.574219 69.003906 C 121.8125 68.957031 122.007812 68.851562 122.292969 68.742188 C 122.140625 68.109375 122.160156 67.480469 121.8125 67.042969 C 120.855469 67.066406 119.984375 67.152344 119.136719 67.085938 C 117.589844 66.957031 116.046875 66.738281 114.5 66.566406 C 114.347656 66.542969 114.175781 66.609375 113.976562 66.628906 C 114.21875 67.804688 114.5 68.914062 114.9375 70.089844 Z M 125.730469 78.492188 C 123.578125 79.777344 121.183594 80.320312 118.722656 80.800781 C 118.941406 81.625 119.222656 82.367188 119.660156 83.128906 C 120.027344 83.085938 120.421875 83.0625 120.789062 82.976562 C 122.117188 82.648438 123.425781 82.324219 124.730469 81.953125 C 125.316406 81.777344 125.90625 81.496094 126.472656 81.257812 C 126.644531 81.167969 126.777344 81.015625 126.949219 80.886719 C 126.601562 80.144531 126.296875 79.449219 125.96875 78.753906 C 125.949219 78.664062 125.839844 78.601562 125.730469 78.492188 Z M 126.078125 114.339844 C 125.816406 115.035156 125.816406 115.6875 125.730469 116.296875 C 126.625 117.015625 129.539062 118.429688 131.105469 118.886719 C 131.652344 119.039062 132.21875 119.324219 132.890625 119.148438 C 133.132812 118.300781 133.457031 117.472656 133.5 116.582031 C 130.433594 116.125 128.800781 115.46875 126.078125 114.339844 Z M 126.296875 112.140625 C 129.019531 113.683594 132.371094 114.6875 133.9375 114.402344 C 134.152344 113.53125 134.328125 112.640625 134.285156 111.617188 C 131.519531 111.792969 128.953125 111.09375 126.296875 110.464844 C 126.296875 111.050781 126.296875 111.550781 126.296875 112.140625 Z M 118.027344 78.949219 C 118.417969 78.882812 118.722656 78.863281 119.027344 78.773438 C 120.203125 78.46875 121.378906 78.164062 122.53125 77.816406 C 123.226562 77.597656 123.882812 77.273438 124.535156 76.96875 C 124.707031 76.882812 124.859375 76.75 125.054688 76.597656 C 124.75 75.945312 124.578125 75.269531 124.1875 74.660156 C 123.96875 74.726562 123.816406 74.792969 123.664062 74.835938 C 122.769531 75.097656 121.878906 75.421875 120.988281 75.617188 C 119.941406 75.859375 118.875 75.988281 117.808594 76.164062 C 117.546875 76.207031 117.242188 76.164062 117.046875 76.488281 C 117.285156 77.292969 117.570312 78.101562 118.027344 78.949219 Z M 98.113281 95.597656 C 99.875 95.707031 101.550781 95.578125 103.183594 95.230469 C 103.8125 95.097656 104.445312 94.859375 105.054688 94.640625 C 105.273438 94.554688 105.445312 94.402344 105.621094 94.292969 C 105.554688 93.050781 105.382812 92.203125 104.96875 91.375 C 104.53125 91.636719 104.097656 91.921875 103.640625 92.160156 C 103.183594 92.398438 102.703125 92.640625 102.226562 92.8125 C 101.703125 93.007812 101.179688 93.160156 100.636719 93.292969 C 100.136719 93.421875 99.613281 93.488281 99.113281 93.597656 C 98.613281 93.707031 98.089844 93.597656 97.546875 93.792969 C 97.71875 94.421875 97.914062 94.96875 98.113281 95.597656 Z M 123.511719 72.769531 C 123.316406 72.050781 123.121094 71.398438 122.816406 70.789062 C 121.597656 71.003906 120.398438 71.246094 119.203125 71.441406 C 117.984375 71.636719 116.742188 71.765625 115.523438 72.050781 C 115.699219 72.875 115.914062 73.636719 116.308594 74.3125 C 118.003906 74.355469 122.074219 73.507812 123.511719 72.769531 Z M 81.679688 83.976562 C 82.050781 84 82.398438 83.976562 82.765625 83.800781 C 82.855469 83.34375 82.941406 82.910156 83.050781 82.476562 C 83.160156 81.996094 83.269531 81.515625 83.398438 81.058594 C 83.527344 80.625 83.660156 80.191406 83.832031 79.777344 C 84.007812 79.320312 84.203125 78.882812 84.421875 78.449219 C 84.617188 78.035156 84.878906 77.664062 85.074219 77.273438 C 85.292969 76.859375 85.664062 76.511719 85.769531 76.03125 C 84.683594 75.835938 83.246094 75.921875 82.484375 76.226562 C 81.484375 78.492188 81.089844 82.234375 81.679688 83.976562 Z M 131.257812 90.941406 C 130.410156 91.421875 129.628906 91.921875 128.800781 92.355469 C 127.972656 92.792969 127.125 93.183594 126.253906 93.507812 C 125.382812 93.835938 124.492188 94.054688 123.554688 94.335938 C 123.621094 94.859375 123.730469 95.316406 123.988281 95.707031 C 126.449219 95.640625 130.714844 94.316406 132.152344 93.140625 C 131.914062 92.398438 131.695312 91.636719 131.257812 90.941406 Z M 98.632812 97.667969 C 98.699219 98.363281 98.632812 98.996094 98.960938 99.515625 C 101.007812 99.710938 104.359375 99.277344 105.75 98.625 C 105.902344 97.625 105.902344 97.253906 105.707031 96.535156 C 103.464844 97.40625 101.136719 97.558594 98.632812 97.667969 Z M 125.253906 118.472656 C 125.144531 118.605469 125.054688 118.691406 125.035156 118.777344 C 124.992188 118.910156 124.96875 119.039062 124.902344 119.214844 C 125.339844 119.519531 125.753906 119.824219 126.167969 120.128906 C 126.578125 120.433594 126.992188 120.757812 127.386719 121.085938 C 127.753906 121.390625 128.125 121.714844 128.472656 122.042969 C 128.867188 122.390625 129.214844 122.78125 129.605469 123.132812 C 129.976562 123.480469 130.257812 123.9375 130.714844 124.199219 C 131.367188 123.414062 131.957031 122.085938 132.066406 121.128906 C 129.648438 120.714844 127.539062 119.496094 125.253906 118.472656 Z M 99.113281 103.238281 C 101.265625 103.71875 104.359375 103.566406 105.597656 102.910156 C 105.554688 102.257812 105.792969 101.605469 105.621094 100.84375 C 103.464844 101.453125 101.265625 101.433594 99.113281 101.691406 C 99.113281 102.238281 99.113281 102.714844 99.113281 103.238281 Z M 175.984375 266.757812 C 175.964844 265.886719 175.878906 265.210938 175.355469 264.625 C 174.375 263.492188 173.394531 262.359375 172.523438 261.164062 C 171.589844 259.878906 170.742188 258.507812 169.847656 257.179688 C 169.761719 257.050781 169.738281 256.832031 169.433594 256.917969 C 169.347656 257.703125 169.324219 258.441406 169.847656 259.160156 C 170.785156 260.421875 171.589844 261.75 172.523438 263.011719 C 173.351562 264.078125 174.265625 265.082031 175.160156 266.105469 C 175.375 266.300781 175.636719 266.453125 175.984375 266.757812 Z M 122.335938 36.746094 C 121.878906 37.09375 121.488281 37.292969 121.246094 37.726562 C 121.269531 37.878906 121.292969 38.007812 121.335938 38.140625 C 122.117188 40.46875 123.273438 42.578125 124.730469 44.539062 C 124.796875 44.625 124.859375 44.714844 124.925781 44.777344 C 125.035156 44.910156 125.1875 45.0625 125.339844 44.910156 C 125.40625 44.84375 125.425781 44.648438 125.40625 44.539062 C 125.382812 44.363281 125.296875 44.210938 125.230469 44.058594 C 124.402344 41.96875 123.578125 39.859375 122.769531 37.769531 C 122.640625 37.488281 122.53125 37.203125 122.335938 36.746094 Z M 62.722656 155.167969 C 62.679688 155.125 62.613281 155.082031 62.570312 155.015625 C 62.308594 155.148438 62.070312 155.277344 61.765625 155.429688 C 61.875 155.605469 61.9375 155.714844 62.027344 155.800781 C 62.113281 155.886719 62.222656 155.929688 62.394531 156.0625 C 62.527344 155.734375 62.613281 155.453125 62.722656 155.167969 Z M 62.722656 155.167969 " fill-opacity="1" fill-rule="nonzero"/></g><path fill="currentColor" d="M 136.179688 201.003906 C 136.089844 202.464844 136.003906 203.921875 135.9375 205.378906 C 135.785156 208.167969 135.632812 210.929688 135.480469 213.714844 C 135.480469 213.847656 135.460938 214 135.460938 214.128906 C 135.4375 214.675781 135.175781 215 134.699219 215.261719 C 132.523438 216.414062 130.191406 217.066406 127.796875 217.546875 C 124.925781 218.132812 122.03125 218.4375 119.113281 218.65625 C 116.046875 218.875 113 218.875 109.929688 218.808594 C 107.121094 218.765625 104.292969 218.570312 101.507812 218.242188 C 100.703125 218.15625 99.917969 218.070312 99.113281 217.980469 C 98.917969 217.960938 98.699219 217.9375 98.503906 217.875 C 98.023438 217.742188 97.699219 217.460938 97.632812 216.960938 C 97.589844 216.761719 97.566406 216.546875 97.546875 216.351562 C 97.394531 214.433594 97.242188 212.542969 97.089844 210.625 C 96.894531 208.296875 96.71875 205.988281 96.523438 203.660156 C 96.371094 201.660156 96.195312 199.632812 96.042969 197.632812 C 95.933594 196.175781 95.804688 194.714844 95.695312 193.257812 C 95.628906 192.363281 95.5 191.449219 95.761719 190.558594 C 96 189.730469 96.195312 189.535156 97.089844 189.558594 C 97.851562 189.578125 98.613281 189.601562 99.375 189.644531 C 104.621094 189.949219 109.886719 189.925781 115.132812 189.753906 C 118.113281 189.644531 121.09375 189.425781 124.078125 189.144531 C 126.949219 188.882812 129.800781 188.492188 132.609375 187.75 C 133.347656 187.554688 134.066406 187.316406 134.808594 187.097656 C 135.066406 187.011719 135.328125 186.902344 135.613281 186.878906 C 136.222656 186.816406 136.699219 187.164062 136.832031 187.773438 C 136.894531 188.035156 136.894531 188.316406 136.875 188.601562 C 136.636719 192.734375 136.394531 196.871094 136.179688 201.003906 Z M 134.394531 194.671875 C 133.695312 194.847656 133 195.042969 132.28125 195.214844 C 130.148438 195.71875 127.996094 196.085938 125.816406 196.328125 C 123.359375 196.585938 120.921875 196.871094 118.460938 197.066406 C 116.523438 197.21875 114.566406 197.285156 112.628906 197.371094 C 107.925781 197.589844 103.25 197.523438 98.570312 196.914062 C 98.417969 196.890625 98.242188 196.914062 98.003906 196.914062 C 98.046875 198.199219 98.066406 199.394531 98.328125 200.613281 C 98.546875 200.636719 98.765625 200.679688 98.960938 200.699219 C 100.960938 200.808594 102.988281 200.984375 104.988281 201.050781 C 111.324219 201.203125 117.632812 201.203125 123.945312 200.503906 C 126.1875 200.242188 128.429688 199.9375 130.628906 199.417969 C 131.867188 199.132812 133.109375 198.785156 134.261719 198.261719 C 134.480469 197.371094 134.546875 195.457031 134.394531 194.671875 Z M 134.828125 189.210938 C 134.457031 189.296875 134.152344 189.363281 133.847656 189.449219 C 132.738281 189.710938 131.628906 189.992188 130.496094 190.210938 C 127.691406 190.753906 124.859375 191.039062 122.007812 191.296875 C 118.441406 191.601562 114.847656 191.753906 111.28125 191.84375 C 106.96875 191.953125 102.640625 191.820312 98.328125 191.601562 C 98.066406 191.582031 97.761719 191.472656 97.523438 191.800781 C 97.65625 192.757812 97.609375 193.757812 97.808594 194.78125 C 98.15625 194.867188 98.4375 194.976562 98.742188 195 C 100.222656 195.152344 101.722656 195.347656 103.203125 195.414062 C 108.078125 195.609375 112.957031 195.542969 117.808594 195.195312 C 121.378906 194.933594 124.949219 194.585938 128.496094 193.976562 C 130.214844 193.691406 131.914062 193.367188 133.589844 192.84375 C 133.9375 192.734375 134.351562 192.691406 134.632812 192.34375 C 134.71875 191.34375 134.871094 190.320312 134.828125 189.210938 Z M 134.175781 200.417969 C 133.847656 200.527344 133.652344 200.570312 133.480469 200.636719 C 131.695312 201.222656 129.867188 201.613281 127.996094 201.917969 C 125.316406 202.355469 122.617188 202.636719 119.898438 202.789062 C 115.546875 203.050781 111.214844 203.183594 106.859375 203.007812 C 104.316406 202.898438 101.789062 202.789062 99.242188 202.703125 C 99.003906 202.703125 98.785156 202.726562 98.4375 202.726562 C 98.480469 203.835938 98.503906 204.859375 98.742188 205.925781 C 99.242188 205.988281 99.722656 206.078125 100.199219 206.097656 C 101.898438 206.207031 103.597656 206.292969 105.316406 206.382812 C 109.363281 206.597656 113.390625 206.425781 117.417969 206.230469 C 120.269531 206.097656 123.121094 205.882812 125.925781 205.46875 C 127.691406 205.207031 129.429688 204.921875 131.171875 204.574219 C 132.152344 204.378906 133.132812 204.074219 134.046875 203.507812 C 134.132812 202.550781 134.285156 201.550781 134.175781 200.417969 Z M 99.089844 210.910156 C 99.941406 211.039062 100.679688 211.191406 101.441406 211.300781 C 105.25 211.757812 109.082031 211.929688 112.910156 211.867188 C 117.046875 211.800781 121.183594 211.539062 125.296875 210.929688 C 127.949219 210.539062 130.585938 210.039062 133.109375 209.144531 C 133.328125 209.058594 133.542969 208.972656 133.785156 208.882812 C 133.828125 207.96875 133.894531 207.101562 133.9375 206.25 C 133.9375 206.164062 133.894531 206.054688 133.847656 205.902344 C 133.675781 205.945312 133.5 205.96875 133.347656 206.011719 C 132.738281 206.1875 132.152344 206.382812 131.542969 206.535156 C 128.996094 207.164062 126.40625 207.492188 123.816406 207.730469 C 120.769531 207.992188 117.699219 208.230469 114.652344 208.339844 C 109.648438 208.492188 104.640625 208.558594 99.636719 208.035156 C 99.417969 208.015625 99.179688 208.058594 98.9375 208.078125 C 98.9375 208.535156 98.917969 208.90625 98.9375 209.277344 C 98.960938 209.753906 99.027344 210.277344 99.089844 210.910156 Z M 99.589844 216.066406 C 100.308594 216.152344 101.007812 216.261719 101.679688 216.328125 C 104.359375 216.566406 107.011719 216.742188 109.691406 216.851562 C 115.089844 217.046875 120.464844 216.828125 125.816406 215.9375 C 128.234375 215.542969 130.585938 214.957031 132.871094 214.066406 C 133.085938 213.976562 133.304688 213.847656 133.523438 213.738281 C 133.589844 212.847656 133.71875 211.996094 133.566406 211.105469 C 133.390625 211.125 133.238281 211.125 133.109375 211.167969 C 129.976562 212.28125 126.710938 212.78125 123.425781 213.152344 C 121.3125 213.390625 119.203125 213.5 117.070312 213.652344 C 113.914062 213.890625 110.734375 213.867188 107.578125 213.738281 C 105.425781 213.652344 103.269531 213.519531 101.136719 213.195312 C 100.570312 213.105469 99.984375 213.042969 99.417969 212.976562 C 99.265625 213.890625 99.308594 214.828125 99.589844 216.066406 Z M 99.589844 216.066406 " fill-opacity="1" fill-rule="nonzero"/><path fill="currentColor" d="M 115.195312 146.875 C 114.371094 146.832031 113.519531 146.832031 112.695312 146.703125 C 110.972656 146.441406 109.277344 146.050781 107.601562 145.59375 C 106.773438 145.351562 106.054688 144.941406 105.488281 144.308594 C 104.445312 143.175781 103.8125 141.828125 103.726562 140.28125 C 103.597656 138.0625 104.269531 136.015625 105.382812 134.121094 C 105.730469 133.535156 106.207031 133.121094 106.90625 132.96875 C 109.472656 132.359375 112.019531 131.621094 114.609375 131.183594 C 116.023438 130.945312 117.4375 130.902344 118.832031 131.359375 C 122.402344 132.535156 124.578125 135.886719 124.316406 139.453125 C 124.035156 143.242188 121.335938 146.070312 117.765625 146.722656 C 117.265625 146.8125 116.71875 146.789062 116.199219 146.8125 C 115.851562 146.832031 115.5 146.8125 115.152344 146.8125 C 115.195312 146.8125 115.195312 146.855469 115.195312 146.875 Z M 122.402344 138.996094 C 122.464844 135.644531 119.855469 132.992188 116.460938 132.925781 C 113.847656 132.859375 110.515625 134.90625 110.496094 138.890625 C 110.472656 142.261719 113.109375 144.808594 116.351562 144.851562 C 120.007812 144.917969 122.402344 141.914062 122.402344 138.996094 Z M 105.621094 140.085938 C 106.6875 140.195312 107.578125 140.214844 108.535156 140.109375 C 108.492188 139.410156 108.625 138.757812 108.382812 138.082031 C 107.492188 138.191406 106.621094 138.128906 105.773438 138.519531 C 105.730469 138.996094 105.6875 139.476562 105.621094 140.085938 Z M 106.535156 142.21875 C 106.859375 143.023438 107.210938 143.394531 107.925781 143.613281 C 108.558594 143.808594 109.210938 143.960938 109.84375 144.113281 C 109.996094 144.15625 110.148438 144.132812 110.429688 144.179688 C 109.953125 143.4375 109.539062 142.808594 109.125 142.132812 C 108.339844 142.132812 107.578125 142.132812 106.816406 142.132812 C 106.730469 142.132812 106.621094 142.199219 106.535156 142.21875 Z M 106.644531 136.210938 C 107.46875 136.125 108.277344 136.167969 109.058594 135.929688 C 109.191406 135.667969 109.320312 135.429688 109.429688 135.167969 C 109.539062 134.90625 109.84375 134.6875 109.753906 134.273438 C 108.972656 134.472656 108.230469 134.625 107.515625 134.863281 C 106.925781 135.082031 106.664062 135.539062 106.644531 136.210938 Z M 106.644531 136.210938 " fill-opacity="1" fill-rule="nonzero"/><path fill="currentColor" d="M 63.59375 199.503906 C 63.65625 201.875 63.332031 204.226562 62.570312 206.492188 C 62.222656 207.511719 61.785156 208.492188 61.175781 209.386719 C 60.71875 210.058594 60.199219 210.648438 59.542969 211.125 C 58.066406 212.191406 56.386719 212.214844 54.886719 211.167969 C 54.082031 210.605469 53.472656 209.84375 52.949219 209.015625 C 52.253906 207.882812 51.796875 206.644531 51.449219 205.359375 C 50.359375 201.113281 50.425781 196.890625 51.710938 192.691406 C 51.949219 191.929688 52.273438 191.191406 52.625 190.472656 C 53.167969 189.363281 53.949219 188.449219 54.953125 187.6875 C 56.128906 186.816406 57.347656 186.664062 58.675781 187.230469 C 59.457031 187.554688 60.089844 188.097656 60.632812 188.753906 C 61.371094 189.644531 61.917969 190.644531 62.332031 191.734375 C 63.046875 193.605469 63.441406 195.542969 63.570312 197.523438 C 63.636719 198.175781 63.59375 198.828125 63.59375 199.503906 Z M 52.6875 199.4375 C 52.667969 200.960938 52.820312 202.550781 53.167969 204.117188 C 53.492188 205.511719 53.90625 206.882812 54.710938 208.078125 C 55.015625 208.535156 55.367188 208.992188 55.777344 209.339844 C 56.691406 210.148438 57.695312 210.148438 58.585938 209.339844 C 58.980469 208.992188 59.304688 208.578125 59.609375 208.167969 C 60.109375 207.449219 60.4375 206.644531 60.71875 205.816406 C 61.21875 204.3125 61.480469 202.789062 61.632812 201.222656 C 61.875 198.589844 61.613281 196 60.894531 193.476562 C 60.589844 192.410156 60.152344 191.386719 59.5 190.449219 C 59.152344 189.949219 58.78125 189.515625 58.261719 189.1875 C 57.695312 188.816406 57.105469 188.773438 56.453125 188.992188 C 55.929688 189.164062 55.5625 189.515625 55.214844 189.925781 C 54.429688 190.886719 53.929688 191.996094 53.558594 193.171875 C 52.929688 195.195312 52.667969 197.261719 52.6875 199.4375 Z M 52.6875 199.4375 " fill-opacity="1" fill-rule="nonzero"/></svg>