<svg xmlns="http://www.w3.org/2000/svg" xmlns:xlink="http://www.w3.org/1999/xlink" width="400" zoomAndPan="magnify" viewBox="0 0 300 299.999988" height="400" preserveAspectRatio="xMidYMid meet" version="1.0"><defs><clipPath id="870a7ff476"><path d="M 82.601562 30.007812 L 217 30.007812 L 217 269.976562 L 82.601562 269.976562 Z M 82.601562 30.007812 " clip-rule="nonzero"/></clipPath><clipPath id="458b24c257"><path d="M 214 233.917969 L 217.398438 233.917969 L 217.398438 237.398438 L 214 237.398438 Z M 214 233.917969 " clip-rule="nonzero"/></clipPath></defs><g clip-path="url(#870a7ff476)"><path fill="#a9a0f0" d="M 215.433594 245.113281 C 214.523438 243.785156 212.996094 242.90625 211.265625 242.90625 C 208.488281 242.90625 206.230469 245.167969 206.230469 247.945312 C 206.230469 250.726562 208.488281 252.984375 211.265625 252.984375 C 211.777344 252.984375 212.273438 252.910156 212.738281 252.765625 C 213.089844 253.402344 213.292969 254.121094 213.292969 254.875 C 213.292969 257.289062 211.328125 259.253906 208.914062 259.253906 C 208.78125 259.253906 208.648438 259.246094 208.515625 259.234375 C 208.375 259.222656 208.242188 259.273438 208.144531 259.371094 C 208.046875 259.46875 207.996094 259.605469 208.007812 259.742188 C 208.019531 259.871094 208.03125 260.003906 208.03125 260.136719 C 208.03125 262.554688 206.066406 264.519531 203.648438 264.519531 C 202.472656 264.519531 201.40625 264.046875 200.621094 263.289062 C 200.78125 263.082031 200.949219 262.863281 201.125 262.648438 C 201.253906 262.492188 201.285156 262.292969 201.242188 262.113281 C 201.347656 261.585938 201.402344 261.0625 201.410156 260.535156 C 209.714844 254.195312 207.253906 237.109375 188.183594 237.351562 C 188.140625 237.355469 188.097656 237.355469 188.054688 237.355469 C 184.585938 237.355469 181.027344 235.375 179.65625 231.503906 C 177.074219 224.226562 173.398438 218.355469 165.636719 218.253906 C 164.78125 217.597656 163.894531 216.9375 162.839844 216.519531 C 160.953125 215.773438 157.449219 215.605469 155.28125 215.699219 C 153.1875 212.246094 153.644531 213.003906 152.992188 211.921875 C 152.082031 210.734375 150.332031 209.96875 148.128906 209.695312 C 149.957031 206.125 153.65625 203.664062 157.929688 203.664062 C 158.503906 203.664062 159.066406 203.722656 159.617188 203.808594 C 160.074219 204.628906 160.945312 205.191406 161.949219 205.191406 C 162.347656 205.191406 162.722656 205.097656 163.0625 204.941406 C 166.566406 206.789062 168.960938 210.46875 168.960938 214.699219 C 168.960938 214.800781 168.953125 214.902344 168.949219 215 L 168.9375 215.207031 C 168.925781 215.382812 169.015625 215.546875 169.171875 215.632812 C 169.320312 215.71875 169.507812 215.714844 169.65625 215.621094 C 170.542969 215.050781 171.566406 214.75 172.617188 214.75 C 175.035156 214.75 177.203125 216.371094 177.882812 218.695312 C 177.949219 218.933594 178.199219 219.078125 178.4375 219.019531 C 180.066406 218.640625 181.617188 219.210938 182.628906 220.398438 C 182.71875 220.503906 182.863281 220.5625 182.988281 220.5625 C 183.128906 220.558594 183.257812 220.496094 183.347656 220.390625 C 184.632812 218.832031 186.53125 217.9375 188.546875 217.9375 C 191.515625 217.9375 194.101562 219.835938 194.980469 222.667969 C 195.023438 222.804688 195.128906 222.914062 195.257812 222.964844 C 195.394531 223.015625 195.542969 223.003906 195.667969 222.929688 C 196.28125 222.5625 196.980469 222.367188 197.691406 222.367188 C 198.96875 222.367188 200.179688 222.996094 200.925781 224.042969 C 201.03125 224.195312 201.21875 224.265625 201.402344 224.230469 C 202.011719 224.097656 202.628906 224.03125 203.234375 224.03125 C 208.015625 224.03125 211.910156 227.925781 211.910156 232.707031 C 211.910156 234.476562 211.375 236.179688 210.367188 237.636719 C 210.261719 237.789062 210.257812 237.992188 210.359375 238.152344 C 210.457031 238.308594 210.640625 238.390625 210.828125 238.363281 C 211.089844 238.320312 211.328125 238.300781 211.542969 238.300781 C 214.039062 238.300781 216.066406 240.328125 216.066406 242.820312 C 216.066406 243.65625 215.832031 244.441406 215.433594 245.113281 Z M 213.023438 251.589844 C 212.742188 251.746094 212.441406 251.867188 212.125 251.945312 C 211.847656 252.011719 211.5625 252.050781 211.265625 252.050781 C 209.089844 252.050781 207.320312 250.101562 207.320312 247.703125 C 207.320312 245.308594 209.089844 243.359375 211.265625 243.359375 C 212.734375 243.359375 214.011719 244.246094 214.695312 245.554688 C 214.855469 245.859375 214.980469 246.1875 215.066406 246.535156 C 215.164062 246.90625 215.214844 247.296875 215.214844 247.703125 C 215.214844 249.40625 214.320312 250.878906 213.023438 251.589844 Z M 197.71875 247.433594 C 194.816406 243.496094 189.9375 241.453125 187.351562 241.667969 C 187.132812 241.261719 187.246094 241.445312 186.992188 241.015625 C 192.21875 243.203125 198.898438 241.722656 201.128906 249.558594 C 201.75 251.75 201.640625 253.96875 200.863281 255.835938 C 200.554688 252.726562 199.480469 249.8125 197.71875 247.433594 Z M 188.003906 242.957031 C 193.039062 243.554688 197.707031 247.429688 199.214844 253.625 C 195.214844 247.511719 192.132812 251.695312 188.003906 242.957031 Z M 202.324219 249.21875 C 200.691406 243.46875 196.9375 242.109375 191.964844 241.089844 C 189.238281 240.527344 186.636719 240.015625 184.785156 238.0625 C 188.714844 239.363281 191.867188 237.507812 198.496094 240.878906 C 205.523438 244.453125 206.636719 254.136719 201.316406 258.988281 C 201.265625 258.625 201.191406 258.261719 201.105469 257.90625 C 201.664062 257.550781 203.65625 253.898438 202.324219 249.21875 Z M 200.078125 261.222656 C 200.035156 261.617188 199.957031 262.023438 199.738281 262.359375 C 199.648438 262.496094 199.515625 262.632812 199.347656 262.625 C 198.964844 262.613281 198.703125 262.304688 198.519531 261.878906 C 198.167969 261.050781 198.113281 259.769531 198.027344 259.289062 C 197.703125 257.457031 196.90625 255.726562 195.667969 254.320312 C 194.28125 252.746094 192.457031 252.28125 190.632812 251.429688 C 188.167969 250.28125 186.820312 247.988281 185.890625 245.523438 C 184.265625 241.222656 183.125 240.207031 178.425781 239.023438 C 177.578125 238.808594 176.867188 238.613281 176.238281 238.394531 C 176.242188 238.34375 176.253906 238.296875 176.253906 238.25 C 176.253906 236.625 174.933594 235.304688 173.308594 235.304688 C 172.980469 235.304688 172.675781 235.371094 172.382812 235.46875 C 171.851562 234.757812 171.292969 233.878906 170.636719 232.761719 C 169.722656 231.53125 165.496094 222.816406 158.265625 224.5 C 158.613281 223.683594 158.746094 222.863281 158.667969 222.070312 C 164.640625 221.722656 168.839844 225.015625 170.957031 230.085938 C 174.898438 239.554688 181.179688 231.328125 187.089844 243.941406 C 187.929688 245.734375 188.800781 247.589844 190.476562 248.851562 C 190.511719 248.882812 190.550781 248.910156 190.589844 248.9375 C 192.488281 250.320312 194.839844 250.921875 196.636719 252.472656 C 197.761719 253.445312 198.585938 254.695312 199.171875 256.058594 C 199.828125 257.582031 200.253906 259.566406 200.078125 261.222656 Z M 195.4375 256.859375 C 196.089844 257.628906 196.621094 258.550781 197 259.671875 C 196.59375 259.253906 196.164062 258.886719 195.71875 258.5625 C 195.726562 258.464844 195.734375 258.367188 195.734375 258.269531 C 195.734375 257.765625 195.628906 257.289062 195.4375 256.859375 Z M 196.929688 262.25 C 196.554688 262.128906 196.097656 262.015625 195.96875 261.949219 C 195.429688 261.667969 194.945312 261.296875 194.414062 261.011719 C 194.816406 260.6875 195.144531 260.273438 195.375 259.808594 C 196.242188 260.5 196.957031 261.378906 197.445312 262.507812 C 197.410156 262.421875 197.1875 262.332031 196.929688 262.25 Z M 194.792969 263.675781 C 192.394531 262.03125 190.359375 261.402344 187.226562 260.664062 C 187.28125 259.785156 187.253906 259.675781 187.117188 259.492188 C 187.753906 259.550781 188.425781 259.695312 189.105469 259.898438 C 189.695312 261.015625 190.867188 261.785156 192.21875 261.785156 C 192.546875 261.785156 192.867188 261.734375 193.171875 261.648438 C 195.03125 262.671875 196.585938 263.804688 197.253906 264.445312 C 197.167969 265.324219 195.621094 264.246094 194.792969 263.675781 Z M 186.671875 258.210938 C 186.445312 257.796875 186.140625 257.410156 185.792969 257.046875 C 185.808594 257.035156 185.824219 257.019531 185.839844 257.007812 C 186.820312 257.113281 187.828125 257.230469 188.820312 257.390625 C 188.746094 257.671875 188.703125 257.964844 188.703125 258.269531 C 188.703125 258.371094 188.710938 258.472656 188.71875 258.578125 C 188 258.375 187.300781 258.242188 186.671875 258.210938 Z M 187.238281 267.003906 C 187.167969 266.984375 187.011719 266.761719 186.894531 266.601562 C 185.394531 264.542969 181.609375 263.332031 181.144531 263.601562 C 180.507812 263.078125 179.351562 262.621094 178.554688 262.398438 C 181.445312 262.363281 182.941406 262.855469 183.386719 261.230469 C 183.738281 262.195312 184.429688 263.410156 185.460938 263.367188 C 187.417969 264.585938 187.726562 266.960938 187.238281 267.003906 Z M 180.195312 265.648438 C 174.695312 265.320312 174.554688 264.339844 167.183594 267.011719 C 162.875 268.570312 158.421875 269.757812 154.28125 267.449219 C 152.292969 266.34375 150.050781 264.066406 150.273438 261.296875 C 150.734375 255.550781 161.535156 252.296875 150.96875 242.445312 C 145.886719 237.707031 146.234375 235.121094 146.234375 232 C 147.652344 231.746094 148.25 231.546875 148.3125 231.53125 C 148.425781 239.808594 156.511719 241.117188 157.507812 247.90625 C 157.703125 249.234375 157.84375 250.75 157.511719 252.15625 C 157.441406 252.265625 157.402344 252.390625 157.414062 252.523438 C 156.417969 255.804688 149.261719 262.320312 155.582031 265.597656 C 162.332031 269.097656 172.605469 260.042969 180.109375 264.390625 C 180.523438 264.628906 180.898438 265.097656 180.925781 265.414062 C 180.953125 265.6875 180.492188 265.664062 180.195312 265.648438 Z M 150.15625 265.796875 C 148.667969 266.578125 147.09375 267.398438 145.421875 267.195312 C 146.65625 266.484375 147.738281 265.519531 148.589844 264.367188 C 148.800781 264.464844 149.6875 264.867188 149.917969 264.910156 C 150.035156 265.113281 150.160156 265.316406 150.292969 265.507812 C 150.222656 265.589844 150.175781 265.691406 150.15625 265.796875 Z M 137.703125 266.972656 C 138.660156 266.375 139.667969 265.460938 140.160156 264.132812 C 142.503906 264.960938 144.851562 264.507812 146.398438 263.269531 C 146.742188 263.449219 147.082031 263.636719 147.441406 263.820312 C 145.109375 266.816406 141.25 268.007812 137.703125 266.972656 Z M 128.253906 266.476562 C 128.871094 265.679688 128.757812 264.652344 128.085938 263.996094 C 131.195312 266.394531 135.128906 265.40625 138.457031 263.261719 C 138.644531 263.386719 138.832031 263.507812 139.027344 263.617188 C 138.121094 266.304688 133.035156 268.46875 128.253906 266.476562 Z M 126.382812 263.332031 C 126.367188 263.3125 126.355469 263.289062 126.332031 263.273438 C 126.101562 263.105469 125.90625 262.925781 125.726562 262.742188 C 126.050781 262.65625 126.328125 262.472656 126.539062 262.222656 C 126.871094 262.820312 127.328125 263.363281 127.875 263.824219 C 127.402344 263.480469 126.921875 263.378906 126.382812 263.332031 Z M 121.488281 264.425781 C 121.976562 264.285156 122.351562 263.976562 122.535156 263.472656 C 124.859375 265.265625 127.445312 263.953125 127.414062 265.335938 C 127.386719 266.738281 123.894531 266.179688 121.488281 264.425781 Z M 121.375 263.066406 C 120.910156 263.894531 118.96875 262.527344 118.5625 262.25 C 117.277344 261.375 114.777344 260.226562 114.085938 257.363281 C 113.03125 253.007812 116.417969 249.953125 120.292969 246.953125 C 129.46875 239.84375 124.652344 225.484375 133.0625 224.710938 L 133.4375 227.089844 C 123.785156 231.089844 131.289062 240.917969 120.792969 248.902344 C 118.738281 250.464844 115.703125 252.761719 115.703125 255.652344 C 115.703125 258.308594 118.246094 259.363281 119.945312 260.902344 C 120.320312 261.242188 121.730469 262.441406 121.375 263.066406 Z M 115.3125 246.976562 C 115.3125 246.042969 115.773438 245.167969 116.542969 244.632812 C 116.671875 244.542969 116.746094 244.394531 116.742188 244.238281 C 116.738281 244.082031 116.65625 243.9375 116.523438 243.851562 C 115.15625 242.992188 114.34375 241.519531 114.34375 239.910156 C 114.34375 237.34375 116.433594 235.253906 119 235.253906 C 119.683594 235.253906 120.347656 235.402344 120.976562 235.695312 C 121.105469 235.757812 121.25 235.757812 121.378906 235.695312 C 121.503906 235.632812 121.597656 235.519531 121.628906 235.378906 C 121.933594 234.082031 123.074219 233.175781 124.402344 233.175781 C 124.652344 233.175781 124.910156 233.21875 125.21875 233.308594 C 125.339844 233.347656 125.472656 233.332031 125.585938 233.265625 C 125.636719 233.234375 125.679688 233.195312 125.714844 233.148438 C 124.820312 237.535156 123.984375 242.515625 119.527344 245.96875 C 118.460938 246.792969 117.210938 247.765625 116.074219 248.894531 C 115.609375 248.382812 115.3125 247.71875 115.3125 246.976562 Z M 122.167969 228.84375 C 124.3125 228.578125 125.980469 226.746094 125.980469 224.535156 C 125.980469 223.839844 125.8125 223.183594 125.519531 222.601562 C 126 222.449219 126.507812 222.367188 127.035156 222.367188 C 127.273438 222.367188 127.523438 222.390625 127.820312 222.4375 C 127.960938 222.457031 128.105469 222.414062 128.210938 222.316406 C 128.316406 222.21875 128.371094 222.078125 128.355469 221.933594 C 128.34375 221.785156 128.335938 221.636719 128.335938 221.484375 C 128.335938 219.109375 129.976562 217.117188 132.183594 216.570312 C 131.988281 217.179688 131.933594 217.820312 132.085938 218.476562 C 132.082031 218.476562 132.871094 223.488281 132.871094 223.488281 C 130.824219 223.714844 128.832031 225.101562 127.589844 227.226562 C 126.710938 228.734375 126.246094 230.605469 125.824219 232.621094 C 125.785156 232.46875 125.675781 232.335938 125.515625 232.285156 C 123.851562 231.761719 122.628906 230.453125 122.167969 228.84375 Z M 121.632812 227.945312 C 121.429688 227.945312 121.230469 227.925781 121.039062 227.890625 C 119.394531 227.601562 118.132812 226.152344 118.132812 224.402344 C 118.132812 222.449219 119.703125 220.863281 121.632812 220.863281 C 122.636719 220.863281 123.539062 221.292969 124.175781 221.976562 C 124.394531 222.214844 124.585938 222.480469 124.734375 222.773438 C 124.988281 223.261719 125.132812 223.816406 125.132812 224.402344 C 125.132812 226.226562 123.761719 227.734375 122.011719 227.925781 C 121.886719 227.9375 121.761719 227.945312 121.632812 227.945312 Z M 139.054688 256.5 C 139.222656 256.542969 139.394531 256.570312 139.574219 256.570312 C 139.902344 256.570312 140.214844 256.492188 140.496094 256.359375 C 141.0625 258.425781 142.441406 260.507812 144.839844 262.25 C 141.480469 262.644531 138.902344 260.105469 139.054688 256.5 Z M 137.402344 254.515625 C 137.429688 254.984375 137.605469 255.40625 137.882812 255.75 C 137.410156 259.480469 139.351562 262.441406 142.503906 263.300781 C 141.804688 263.292969 141.125 263.183594 140.300781 262.847656 C 140.121094 261.835938 139.34375 261.4375 138.558594 261.761719 C 136.734375 260.085938 136.265625 257.082031 137.402344 254.515625 Z M 141.132812 254.390625 C 141.132812 254.964844 140.8125 255.464844 140.347656 255.734375 C 140.117188 255.867188 139.855469 255.949219 139.574219 255.949219 C 139.410156 255.949219 139.253906 255.914062 139.105469 255.867188 C 138.59375 255.707031 138.195312 255.285156 138.066406 254.757812 C 138.035156 254.640625 138.015625 254.515625 138.015625 254.390625 C 138.015625 253.929688 138.21875 253.519531 138.535156 253.234375 C 138.808594 252.988281 139.171875 252.832031 139.574219 252.832031 C 139.734375 252.832031 139.890625 252.863281 140.035156 252.90625 C 140.113281 252.933594 140.1875 252.960938 140.257812 252.996094 C 140.773438 253.25 141.132812 253.777344 141.132812 254.390625 Z M 132.628906 258.378906 C 133.027344 254.792969 135.664062 252.007812 137.222656 249.371094 C 140.128906 246.585938 140.9375 244.257812 140.71875 241.765625 C 140.925781 241.433594 141.089844 241.074219 141.195312 240.695312 C 141.402344 240.984375 141.601562 241.269531 141.769531 241.5625 C 143.027344 243.753906 142.75 246.742188 141.109375 248.667969 C 140.207031 249.726562 138.867188 250.550781 137.824219 251.640625 C 135.050781 254.542969 134.671875 259.566406 137.457031 262.417969 C 136.503906 263.003906 135.582031 263.441406 134.691406 263.730469 C 133.191406 262.675781 132.378906 260.582031 132.628906 258.378906 Z M 134.605469 242.773438 C 135.320312 243.355469 136.230469 243.703125 137.21875 243.703125 C 137.296875 243.703125 137.375 243.695312 137.453125 243.691406 C 138.472656 249.398438 126.570312 257.203125 133.199219 264.074219 C 132.484375 264.167969 131.929688 264.160156 131.4375 264.089844 C 130.898438 262.996094 130.101562 262.402344 129.699219 261.480469 C 126.40625 253.976562 137.023438 251.832031 134.605469 242.773438 Z M 128.074219 257.003906 C 127.589844 259.269531 128 261.5625 129.496094 263.441406 C 127.15625 262.160156 126.425781 259.796875 128.074219 257.003906 Z M 135.589844 235.761719 C 134.675781 236.152344 133.9375 236.867188 133.5 237.757812 C 133.359375 236.027344 133.570312 234.125 134.789062 232.648438 C 135.289062 232.046875 135.765625 231.554688 136.300781 231.035156 C 136.710938 231.253906 137.152344 231.449219 137.632812 231.617188 C 136.554688 232.765625 135.863281 234.226562 135.589844 235.761719 Z M 138.125 235.53125 C 137.832031 235.464844 137.53125 235.425781 137.21875 235.425781 C 137.128906 235.425781 137.042969 235.433594 136.953125 235.441406 C 137.25 234.292969 137.808594 233.214844 138.628906 232.375 C 138.742188 232.257812 138.796875 232.105469 138.800781 231.953125 C 138.925781 231.984375 139.046875 232.015625 139.175781 232.042969 C 138.277344 233.167969 138.046875 234.332031 138.125 235.53125 Z M 138.679688 243.433594 C 138.949219 243.328125 139.207031 243.203125 139.445312 243.046875 C 139.382812 243.890625 139.15625 244.738281 138.675781 245.601562 C 138.808594 244.765625 138.789062 244.058594 138.679688 243.433594 Z M 140.613281 239.425781 C 140.613281 239.546875 140.589844 239.65625 140.578125 239.765625 C 140.496094 240.570312 140.132812 241.292969 139.574219 241.824219 C 139.273438 242.113281 138.921875 242.347656 138.527344 242.507812 C 138.125 242.675781 137.683594 242.769531 137.21875 242.769531 C 135.34375 242.761719 133.824219 241.265625 133.824219 239.425781 C 133.824219 238.257812 134.441406 237.230469 135.367188 236.632812 C 135.777344 236.367188 136.246094 236.199219 136.75 236.128906 C 136.90625 236.109375 137.058594 236.085938 137.21875 236.085938 C 137.605469 236.085938 137.972656 236.160156 138.320312 236.28125 C 139.648438 236.734375 140.613281 237.964844 140.613281 239.425781 Z M 142.015625 239.695312 C 141.65625 239.195312 141.363281 238.710938 141.136719 238.238281 C 141.035156 238.03125 140.949219 237.828125 140.875 237.625 C 140.167969 235.757812 140.441406 234.058594 141.335938 232.316406 C 141.394531 232.320312 141.449219 232.324219 141.507812 232.328125 C 141.71875 235.894531 143.988281 238.929688 145.574219 241.863281 C 147.523438 245.460938 145.578125 246.074219 142.714844 248.5625 C 144.195312 246.105469 144.339844 242.910156 142.015625 239.695312 Z M 125.921875 259.671875 C 125.730469 259.59375 125.523438 259.550781 125.304688 259.550781 C 125.019531 259.550781 124.753906 259.628906 124.519531 259.757812 C 124.566406 256.246094 128.324219 252.09375 129.351562 249.9375 C 130.875 249.851562 132.09375 248.59375 132.09375 247.046875 C 132.09375 246.152344 131.679688 245.363281 131.042969 244.828125 C 131.386719 242.429688 131.097656 240.003906 131.179688 237.59375 C 131.25 235.550781 131.546875 232.894531 133 231.328125 C 133.179688 231.136719 134.578125 229.722656 134.796875 229.941406 C 134.933594 230.074219 135.078125 230.207031 135.234375 230.332031 C 129.507812 236.011719 133.636719 241.429688 133.820312 245.019531 C 134.148438 251.390625 126.007812 254.285156 125.921875 259.671875 Z M 124.300781 261.175781 C 124.300781 260.917969 124.402344 260.679688 124.566406 260.5 C 124.75 260.300781 125.011719 260.171875 125.304688 260.171875 C 125.558594 260.171875 125.789062 260.269531 125.964844 260.425781 C 126.175781 260.613281 126.308594 260.878906 126.308594 261.175781 C 126.308594 261.3125 126.28125 261.441406 126.234375 261.558594 C 126.082031 261.921875 125.722656 262.179688 125.304688 262.179688 C 125.285156 262.179688 125.265625 262.175781 125.246094 262.175781 C 124.71875 262.144531 124.300781 261.710938 124.300781 261.175781 Z M 126.179688 252.5625 C 123.925781 255.722656 122.210938 259.933594 124.4375 263.09375 C 122.304688 262.394531 122.296875 260.777344 121.738281 260.535156 C 120.902344 257.390625 123.886719 254.582031 126.179688 252.5625 Z M 128.847656 244.171875 C 129.375 242.714844 129.746094 240.988281 129.921875 238.859375 C 129.9375 241.183594 129.921875 242.882812 129.808594 244.207031 C 129.605469 244.164062 129.398438 244.136719 129.183594 244.136719 C 129.070312 244.136719 128.960938 244.15625 128.847656 244.171875 Z M 129.183594 244.863281 C 129.398438 244.863281 129.597656 244.90625 129.792969 244.960938 C 130.421875 245.148438 130.9375 245.597656 131.191406 246.195312 C 131.304688 246.457031 131.367188 246.746094 131.367188 247.046875 C 131.367188 247.972656 130.78125 248.761719 129.964844 249.078125 C 129.722656 249.171875 129.460938 249.230469 129.183594 249.230469 C 128.789062 249.230469 128.425781 249.117188 128.105469 248.933594 C 127.449219 248.554688 127 247.855469 127 247.046875 C 127 246.972656 127.015625 246.898438 127.023438 246.828125 C 127.085938 246.210938 127.402344 245.671875 127.871094 245.316406 C 128.238281 245.035156 128.691406 244.863281 129.183594 244.863281 Z M 117.785156 257.695312 C 115.414062 254.402344 119.035156 251.847656 122.183594 249.40625 C 132.144531 241.691406 125.359375 231.871094 133.710938 228.324219 C 133.792969 228.535156 133.894531 228.734375 134.007812 228.929688 C 133.070312 229.398438 132.351562 230.128906 131.804688 230.9375 C 127.679688 233.574219 129.835938 239.414062 127.164062 244.957031 C 126.769531 245.339844 126.484375 245.832031 126.355469 246.386719 C 126.269531 246.519531 126.179688 246.652344 126.085938 246.789062 C 122.691406 251.542969 116.941406 253.832031 117.785156 257.695312 Z M 120.371094 259.859375 C 120.304688 259.8125 120.238281 259.769531 120.171875 259.722656 C 118.316406 257.167969 118.828125 256.074219 119.914062 254.847656 C 122.210938 252.257812 124.644531 250.628906 126.546875 248.261719 C 126.769531 248.738281 127.109375 249.144531 127.535156 249.441406 C 126.609375 250.417969 125.328125 251.539062 123.566406 253.246094 C 122.222656 254.546875 120.167969 257.03125 120.371094 259.859375 Z M 145.960938 253.515625 C 146.144531 256.40625 149.226562 259.03125 149.339844 259.046875 L 149.453125 259.394531 C 149.386719 259.570312 149.332031 259.75 149.277344 259.929688 C 145.828125 258.484375 143.191406 253.589844 147.023438 249.851562 C 146.382812 250.976562 145.875 252.160156 145.960938 253.515625 Z M 150.320312 257.671875 C 150.238281 257.804688 150.15625 257.941406 150.078125 258.078125 C 148.949219 257.316406 148.214844 256.191406 147.789062 255.339844 C 145.785156 251.3125 149.644531 249.660156 150.417969 245.816406 C 151.703125 250.542969 146.710938 253.0625 150.320312 257.671875 Z M 151.65625 244.832031 C 153.824219 247.035156 155.089844 249.234375 153.957031 252.125 C 154.074219 250.082031 152.773438 246.800781 151.65625 244.832031 Z M 151.902344 248.347656 C 152.785156 250.78125 153.351562 253.410156 151.0625 256.574219 C 148.953125 253.410156 151.546875 251.324219 151.902344 248.347656 Z M 147.734375 240.894531 C 147.738281 241.742188 150.6875 243.652344 148.070312 246.964844 C 146.894531 248.453125 145.113281 249.609375 144.347656 251.222656 C 142.472656 255.164062 146.105469 260.726562 149.039062 261.148438 C 148.972656 261.878906 149.042969 262.585938 149.238281 263.292969 C 146.1875 261.941406 144.125 260.394531 142.816406 258.46875 C 142.207031 257.570312 141.757812 256.453125 141.558594 255.28125 C 141.683594 255.007812 141.753906 254.707031 141.753906 254.390625 C 141.753906 254.011719 141.648438 253.660156 141.480469 253.351562 C 141.589844 252.234375 141.976562 251.164062 142.738281 250.28125 C 144.300781 248.476562 147.359375 247.320312 147.601562 244.542969 C 147.875 241.386719 143.097656 237.152344 142.757812 232.34375 C 143.476562 232.332031 144.214844 232.285156 144.972656 232.191406 C 144.59375 235.183594 145.5625 238.207031 147.734375 240.894531 Z M 157.378906 221.824219 C 158.058594 224.925781 154.105469 227.878906 151.039062 229.25 C 150.851562 229.242188 150.683594 229.320312 150.566406 229.453125 C 139.625 234.003906 135.3125 228.59375 135.25 228.578125 C 134.488281 227.511719 134.855469 227.277344 133.695312 220.695312 C 136.425781 222.585938 141.019531 222.300781 144.257812 221.488281 C 149.082031 220.285156 152.664062 217.699219 153.503906 215.089844 Z M 157.578125 219.710938 L 155.984375 216.929688 C 158.40625 216.882812 161.59375 217.027344 163.628906 218.347656 C 161.550781 218.5625 159.492188 219.109375 157.578125 219.710938 Z M 163.558594 229.53125 C 164.796875 231.167969 165.875 232.9375 166.765625 234.789062 L 167.03125 235.351562 C 168.203125 237.847656 169.0625 239.105469 170.972656 240.019531 C 171.507812 240.726562 172.351562 241.191406 173.308594 241.191406 C 173.585938 241.191406 173.851562 241.140625 174.109375 241.070312 C 174.277344 241.113281 174.4375 241.152344 174.617188 241.195312 C 184.042969 243.472656 181.375 248.816406 183.578125 251.394531 C 183.710938 251.546875 183.851562 251.683594 184 251.808594 C 183.28125 251.855469 182.632812 252.15625 182.152344 252.632812 C 181.621094 250.453125 181.503906 247.949219 179.855469 246.179688 C 177.382812 243.523438 173.21875 244.261719 170.492188 242.542969 C 168.535156 241.3125 167.417969 238.757812 166.339844 236.285156 C 165.882812 235.238281 165.449219 234.246094 164.953125 233.34375 C 163.324219 230.375 160.257812 227.839844 156.882812 226.640625 C 156.898438 226.625 156.910156 226.609375 156.921875 226.589844 C 157.699219 226.902344 159.761719 224.515625 163.558594 229.53125 Z M 170.371094 238.175781 C 170.261719 238.089844 170.160156 238 170.058594 237.902344 C 168.171875 236.058594 165.960938 228.246094 161.3125 225.730469 C 165.875 226.695312 168.015625 231.066406 169.5625 233.390625 C 170.203125 234.484375 170.769531 235.367188 171.304688 236.105469 C 170.746094 236.625 170.390625 237.359375 170.371094 238.175781 Z M 175.320312 239.382812 C 175.195312 239.601562 175.039062 239.800781 174.847656 239.972656 C 174.4375 240.339844 173.902344 240.570312 173.308594 240.570312 C 172.160156 240.570312 171.207031 239.726562 171.027344 238.625 C 171.003906 238.503906 170.988281 238.378906 170.988281 238.25 C 170.988281 237.601562 171.253906 237.019531 171.679688 236.597656 C 171.980469 236.300781 172.363281 236.089844 172.789062 235.992188 C 172.957031 235.953125 173.128906 235.929688 173.308594 235.929688 C 174.554688 235.929688 175.570312 236.921875 175.621094 238.15625 C 175.621094 238.1875 175.628906 238.21875 175.628906 238.25 C 175.628906 238.664062 175.511719 239.042969 175.320312 239.382812 Z M 184.527344 250.582031 C 183.996094 249.960938 183.828125 249.082031 183.652344 248.148438 C 183.589844 247.8125 183.523438 247.476562 183.445312 247.152344 C 182.222656 242.15625 178.789062 240.996094 175.539062 240.148438 C 175.683594 239.980469 175.804688 239.796875 175.910156 239.597656 C 176.558594 239.820312 177.28125 240.019531 178.121094 240.230469 C 182.5 241.335938 183.273438 242.128906 184.722656 245.964844 C 185.042969 246.8125 185.375 247.691406 185.824219 248.507812 C 186.695312 250.085938 188.019531 251.402344 189.585938 252.289062 C 187.234375 251.710938 185.476562 251.699219 184.527344 250.582031 Z M 184.183594 256.917969 C 183.984375 256.917969 183.796875 256.882812 183.613281 256.835938 C 183.34375 256.765625 183.09375 256.648438 182.871094 256.488281 C 182.304688 256.078125 181.933594 255.417969 181.933594 254.664062 C 181.933594 254.179688 182.089844 253.730469 182.351562 253.363281 C 182.761719 252.792969 183.429688 252.414062 184.183594 252.414062 C 185.425781 252.414062 186.433594 253.425781 186.433594 254.664062 C 186.433594 255.078125 186.316406 255.457031 186.121094 255.789062 C 185.730469 256.460938 185.011719 256.917969 184.183594 256.917969 Z M 175.914062 253.140625 C 167.964844 252.335938 162.757812 251.890625 161.921875 243.773438 C 165.222656 249.367188 167.289062 250.160156 171.117188 251.105469 C 172.929688 251.550781 174.773438 252.019531 175.914062 253.140625 Z M 163.039062 236.945312 C 163.390625 237.800781 163.671875 238.710938 163.945312 239.597656 C 164.054688 239.949219 164.167969 240.308594 164.28125 240.667969 C 164.304688 240.949219 164.394531 241.210938 164.542969 241.433594 C 164.878906 242.390625 165.28125 243.332031 165.832031 244.210938 C 170.730469 251.972656 177.359375 245.496094 181.011719 254.132812 C 180.195312 253.832031 179.445312 253.609375 177.640625 253.355469 C 175.828125 250.066406 171.015625 250.230469 168.296875 248.917969 C 165.6875 247.660156 163.851562 244.785156 162.503906 242.328125 C 161.8125 241.070312 161.234375 239.875 160.828125 238.507812 C 160.316406 236.800781 159.601562 235.148438 158.5 233.734375 C 157.011719 231.828125 155.042969 230.421875 152.929688 229.699219 C 153.523438 229.371094 154.089844 229.023438 154.613281 228.652344 C 158.363281 230.125 161.511719 233.222656 163.039062 236.945312 Z M 165.894531 238.90625 C 165.605469 238.90625 165.339844 238.988281 165.101562 239.121094 C 164.832031 238.246094 164.550781 237.34375 164.191406 236.472656 C 162.628906 232.660156 159.5 229.457031 155.734375 227.769531 C 155.804688 227.710938 155.875 227.652344 155.941406 227.59375 C 156.140625 227.742188 161.210938 229.113281 163.859375 233.941406 C 164.332031 234.796875 164.75 235.761719 165.195312 236.78125 C 165.511719 237.503906 165.832031 238.230469 166.171875 238.933594 C 166.082031 238.917969 165.992188 238.90625 165.894531 238.90625 Z M 167.410156 241.125 C 168.070312 242.113281 168.84375 242.980469 169.828125 243.597656 C 174.03125 246.246094 178.988281 243.691406 180.433594 250.488281 C 176.976562 246.089844 170.730469 249.628906 166.886719 243.542969 C 166.605469 243.097656 166.375 242.621094 166.164062 242.136719 C 166.734375 242.039062 167.203125 241.652344 167.410156 241.125 Z M 165.910156 241.539062 C 165.34375 241.539062 164.890625 241.089844 164.890625 240.535156 C 164.890625 240.207031 165.050781 239.917969 165.296875 239.734375 C 165.464844 239.609375 165.671875 239.53125 165.894531 239.53125 C 166.207031 239.53125 166.480469 239.675781 166.664062 239.894531 C 166.742188 239.988281 166.800781 240.09375 166.84375 240.210938 C 166.878906 240.3125 166.902344 240.421875 166.902344 240.535156 C 166.902344 241.085938 166.457031 241.53125 165.910156 241.539062 Z M 154.570312 237.832031 C 154.570312 237.671875 154.613281 237.523438 154.679688 237.386719 C 154.84375 237.058594 155.183594 236.828125 155.574219 236.828125 C 155.738281 236.828125 155.890625 236.871094 156.023438 236.941406 C 156.351562 237.105469 156.582031 237.441406 156.582031 237.832031 C 156.582031 237.863281 156.574219 237.890625 156.570312 237.917969 C 156.527344 238.433594 156.097656 238.835938 155.574219 238.835938 C 155.558594 238.835938 155.542969 238.832031 155.523438 238.832031 C 154.992188 238.804688 154.570312 238.371094 154.570312 237.832031 Z M 155.574219 239.460938 C 155.664062 239.460938 155.746094 239.449219 155.832031 239.4375 C 156.539062 240.886719 157.117188 242.484375 157.539062 244.195312 C 155.292969 240.164062 150.128906 237.878906 149.597656 232.316406 C 151.402344 233.390625 152.992188 234.925781 154.308594 236.824219 C 154.085938 237.105469 153.945312 237.449219 153.945312 237.832031 C 153.945312 238.730469 154.679688 239.460938 155.574219 239.460938 Z M 177.300781 255.925781 C 174.527344 255.695312 171.628906 256.195312 169 255.6875 C 166.789062 255.257812 162.65625 253.507812 161.09375 251.464844 C 159.253906 249.054688 159.277344 243.703125 156.953125 238.691406 C 157.109375 238.441406 157.203125 238.148438 157.203125 237.832031 C 157.203125 236.933594 156.472656 236.207031 155.558594 236.207031 C 154.253906 234.269531 152.453125 232.480469 149.875 231.046875 C 150.332031 230.886719 150.773438 230.71875 151.207031 230.535156 C 153.582031 230.960938 155.871094 232.390625 157.515625 234.503906 C 158.5625 235.847656 159.363281 237.472656 159.898438 239.289062 C 159.945312 239.566406 160.03125 239.859375 160.128906 240.152344 C 161.6875 246.714844 159.304688 252.878906 174.378906 254.246094 C 177.523438 254.53125 179.386719 254.734375 181.5 255.671875 C 181.789062 256.441406 182.40625 257.066406 183.175781 257.355469 C 183.578125 257.511719 184.03125 257.398438 184.40625 257.515625 C 184.777344 257.632812 185.078125 258.046875 185.363281 258.332031 C 186.167969 259.144531 187.097656 261.40625 185.664062 262.105469 C 185.601562 262.140625 185.542969 262.160156 185.488281 262.175781 C 184.691406 262.382812 184.660156 260.957031 184.386719 260.382812 C 184.078125 259.738281 183.726562 259.121094 183.269531 258.574219 C 181.792969 256.8125 179.523438 256.113281 177.300781 255.925781 Z M 180.496094 259.507812 C 182.671875 259.894531 182.269531 261.015625 182.023438 261.136719 C 181.84375 261.222656 181.5 261.191406 180.777344 261.175781 C 174.058594 261.003906 173.847656 262 173.335938 262.097656 C 166.75 262.867188 160.476562 266.730469 156.15625 264.492188 C 155.21875 264.003906 154.644531 263.429688 154.390625 262.742188 C 163.214844 266.175781 171.96875 257.992188 180.496094 259.507812 Z M 156.921875 258.695312 C 156.015625 259.4375 155.378906 260.492188 155.179688 261.699219 C 154.878906 261.59375 154.582031 261.472656 154.289062 261.339844 C 154.457031 260.230469 155.101562 258.992188 155.84375 257.777344 C 156.195312 258.121094 156.554688 258.417969 156.921875 258.695312 Z M 160.992188 257.691406 C 160.675781 257.628906 160.34375 257.59375 160.007812 257.59375 C 159.316406 257.59375 158.660156 257.742188 158.0625 258 C 157.539062 257.640625 157.027344 257.210938 156.523438 256.695312 C 157.074219 255.839844 157.699219 254.882812 158.136719 254.019531 C 159.078125 255.753906 160.023438 256.917969 160.992188 257.691406 Z M 158.722656 252.449219 C 158.90625 251.679688 158.96875 250.894531 158.957031 250.128906 C 160.53125 254.207031 165.855469 256.347656 168.765625 256.914062 C 173.082031 257.75 177.320312 256.109375 181.089844 258.355469 C 180.964844 258.328125 178.390625 257.984375 176.675781 258.152344 C 176.582031 258.042969 176.457031 257.960938 176.304688 257.933594 C 165.714844 256.21875 163.273438 261.359375 158.722656 252.449219 Z M 163.875 261.625 C 163.714844 261.664062 163.558594 261.710938 163.394531 261.75 C 163.375 261.757812 163.355469 261.765625 163.335938 261.773438 C 163.222656 261.804688 163.109375 261.824219 162.992188 261.835938 C 162.769531 261.882812 162.546875 261.929688 162.324219 261.972656 C 162.242188 261.996094 162.15625 262.007812 162.074219 262.011719 C 160.070312 262.355469 158.011719 262.433594 156.082031 261.960938 C 156.34375 260.027344 158.003906 258.527344 160.007812 258.527344 C 161.898438 258.527344 163.476562 259.855469 163.875 261.625 Z M 166.964844 260.738281 C 166.269531 260.96875 165.53125 261.183594 164.777344 261.390625 C 164.742188 261.238281 164.699219 261.085938 164.648438 260.9375 C 165.402344 260.910156 166.167969 260.847656 166.964844 260.738281 Z M 164.023438 259.691406 C 163.808594 259.382812 163.554688 259.101562 163.277344 258.851562 C 165.683594 259.492188 168.367188 258.707031 171.703125 258.699219 C 169.042969 259.070312 166.472656 259.667969 164.023438 259.691406 Z M 194.765625 257.941406 C 194.78125 258.050781 194.800781 258.15625 194.800781 258.269531 C 194.800781 258.621094 194.726562 258.957031 194.597656 259.261719 C 194.375 259.796875 193.96875 260.234375 193.464844 260.511719 C 193.09375 260.71875 192.671875 260.847656 192.21875 260.847656 C 191.011719 260.847656 190.003906 260.011719 189.722656 258.890625 C 189.671875 258.691406 189.636719 258.484375 189.636719 258.269531 C 189.636719 258.015625 189.6875 257.78125 189.753906 257.550781 C 189.882812 257.109375 190.117188 256.714844 190.445312 256.402344 C 190.90625 255.964844 191.53125 255.6875 192.21875 255.6875 C 193.53125 255.6875 194.605469 256.675781 194.765625 257.941406 Z M 192.21875 254.753906 C 191.050781 254.753906 190.015625 255.328125 189.375 256.207031 C 188.523438 256.070312 187.65625 255.964844 186.789062 255.863281 C 186.957031 255.5 187.058594 255.09375 187.058594 254.664062 C 187.058594 253.996094 186.820312 253.386719 186.433594 252.898438 C 186.804688 252.984375 187.179688 253.058594 187.542969 253.125 C 189.488281 253.492188 191.308594 253.988281 192.851562 254.8125 C 192.648438 254.777344 192.433594 254.753906 192.21875 254.753906 Z M 174.777344 229.191406 C 174.726562 228.769531 174.519531 228.402344 174.210938 228.140625 C 173.554688 226.980469 172.890625 225.984375 172.355469 225.386719 C 169.152344 221.820312 162.738281 220.5625 162.035156 220.949219 C 161.144531 220.785156 158.796875 220.597656 158.28125 220.941406 L 158.214844 220.820312 C 161.691406 219.738281 165.585938 218.90625 169.121094 220.050781 C 171.5 220.816406 173.429688 222.441406 174.867188 224.453125 C 176.148438 226.242188 177.050781 228.265625 177.851562 230.304688 C 178.457031 231.847656 178.9375 233.519531 179.792969 234.949219 C 178.667969 234.605469 177.816406 234.457031 176.847656 234.1875 C 176.476562 232.78125 175.667969 230.902344 174.777344 229.191406 Z M 173.171875 231.011719 C 173.527344 231.011719 173.855469 230.890625 174.125 230.691406 C 174.6875 231.839844 175.160156 232.941406 175.394531 233.671875 C 173.976562 233.007812 173.273438 232.066406 172.710938 230.933594 C 172.855469 230.980469 173.007812 231.011719 173.171875 231.011719 Z M 171.703125 228.6875 C 171 227.144531 170.007812 225.421875 167.820312 223.652344 C 169.203125 224.308594 170.480469 225.164062 171.429688 226.222656 C 171.777344 226.605469 172.179688 227.1875 172.59375 227.867188 C 172.203125 228.015625 171.882812 228.3125 171.703125 228.6875 Z M 172.917969 228.414062 C 173 228.394531 173.082031 228.378906 173.171875 228.378906 C 173.722656 228.378906 174.175781 228.828125 174.175781 229.382812 C 174.175781 229.675781 174.042969 229.9375 173.84375 230.125 C 173.664062 230.285156 173.429688 230.386719 173.171875 230.386719 C 172.617188 230.386719 172.164062 229.9375 172.164062 229.382812 C 172.164062 228.914062 172.488281 228.527344 172.917969 228.414062 Z M 135.183594 214.546875 C 135.519531 214.257812 135.886719 213.988281 136.28125 213.726562 C 136.285156 213.785156 136.363281 215.382812 136.367188 215.484375 C 136.886719 217.921875 139.636719 218.5625 142.121094 218.230469 C 145.28125 217.804688 148.554688 215.867188 148.402344 213.109375 C 148.390625 212.871094 148.050781 212.113281 147.398438 210.867188 C 150.050781 211.066406 152.023438 211.984375 152.390625 213.457031 C 152.992188 215.863281 149.128906 218.988281 143.957031 220.28125 C 136.253906 222.207031 129.851562 219.097656 135.183594 214.546875 Z M 100.605469 82.742188 C 100.847656 82.710938 101.085938 82.648438 101.289062 82.597656 C 101.734375 82.476562 102.164062 82.320312 102.585938 82.132812 C 103 81.945312 103.390625 81.71875 103.761719 81.457031 C 104.039062 81.265625 104.3125 81.054688 104.539062 80.804688 L 141.828125 203.789062 L 141.785156 203.800781 C 141.730469 204.492188 138.746094 205.601562 137.433594 205.027344 Z M 97.570312 80.371094 L 84.074219 34.414062 C 84.375 34.46875 84.703125 34.496094 85.046875 34.496094 C 86.109375 34.496094 87.3125 34.273438 88.199219 34.039062 C 89.324219 33.742188 90.878906 33.164062 91.847656 32.414062 L 93.214844 37.019531 C 91.648438 38.597656 89.359375 40.941406 89.507812 43.4375 C 89.726562 47.152344 93.1875 46.710938 95.4375 44.496094 L 96.183594 47.007812 C 94.617188 48.585938 92.269531 50.957031 92.417969 53.484375 C 92.640625 57.230469 96.15625 56.75 98.402344 54.484375 L 99.035156 56.605469 L 98.972656 56.546875 C 97.40625 58.125 95.039062 60.507812 95.1875 63.042969 C 95.414062 66.820312 98.980469 66.300781 101.226562 63.988281 L 101.816406 65.964844 C 100.25 67.542969 97.949219 69.894531 98.097656 72.394531 C 98.316406 76.113281 101.785156 75.664062 104.035156 73.441406 C 105.570312 78.597656 105.449219 77.867188 105.214844 78.367188 C 105.085938 78.847656 103.78125 79.808594 101.660156 80.371094 C 99.179688 81.027344 97.675781 80.636719 97.570312 80.371094 Z M 87.363281 31.183594 C 89.597656 30.589844 91.113281 30.867188 91.464844 31.058594 C 91.253906 31.402344 90.113281 32.242188 87.875 32.835938 C 85.546875 33.453125 84.117188 33.25 83.863281 33.101562 C 83.855469 32.636719 85.070312 31.792969 87.363281 31.183594 Z M 95.183594 43.640625 C 93.929688 44.886719 90.925781 46.3125 90.753906 43.363281 C 90.648438 41.632812 92.269531 39.773438 93.621094 38.386719 Z M 98.148438 53.625 C 96.933594 54.882812 93.839844 56.402344 93.660156 53.410156 C 93.558594 51.652344 95.226562 49.765625 96.589844 48.371094 Z M 100.972656 63.128906 C 99.796875 64.394531 96.613281 66.007812 96.433594 62.96875 C 96.328125 61.1875 98.039062 59.277344 99.410156 57.875 Z M 103.78125 72.585938 C 102.53125 73.832031 99.515625 75.273438 99.339844 72.320312 C 99.238281 70.582031 100.867188 68.71875 102.21875 67.332031 Z M 142.65625 204.757812 C 143.136719 205.300781 141.203125 206.289062 140.203125 206.539062 C 138.511719 206.96875 136.878906 206.503906 136.769531 206.160156 C 138.398438 206.667969 141.648438 206.011719 142.65625 204.757812 Z M 143.382812 206.203125 C 145.234375 209.445312 147.042969 212.746094 147.160156 213.179688 C 147.265625 215.089844 144.539062 216.648438 141.957031 216.992188 C 140.183594 217.230469 137.988281 216.921875 137.597656 215.273438 L 137.273438 207.761719 C 139.101562 208.394531 142.109375 207.601562 143.382812 206.203125 Z M 161.949219 200.339844 C 162.988281 200.339844 163.835938 201.21875 163.835938 202.296875 C 163.835938 202.925781 163.542969 203.476562 163.101562 203.835938 C 162.78125 204.09375 162.382812 204.253906 161.949219 204.253906 C 161.078125 204.253906 160.351562 203.636719 160.132812 202.808594 C 160.089844 202.644531 160.058594 202.476562 160.058594 202.296875 C 160.058594 201.21875 160.90625 200.339844 161.949219 200.339844 Z M 211.636719 237.367188 C 212.429688 235.945312 212.84375 234.351562 212.84375 232.707031 C 212.84375 227.40625 208.53125 223.097656 203.234375 223.097656 C 202.660156 223.097656 202.078125 223.148438 201.5 223.253906 C 200.570312 222.109375 199.171875 221.433594 197.691406 221.433594 C 197 221.433594 196.320312 221.582031 195.6875 221.863281 C 194.542969 218.933594 191.738281 217 188.546875 217 C 186.425781 217 184.421875 217.867188 182.972656 219.402344 C 181.835938 218.316406 180.273438 217.78125 178.644531 218.027344 C 177.726562 215.527344 175.304688 213.8125 172.617188 213.8125 C 171.671875 213.8125 170.746094 214.023438 169.894531 214.421875 C 169.796875 210.113281 167.402344 206.367188 163.894531 204.339844 C 164.347656 203.859375 164.632812 203.21875 164.632812 202.503906 C 164.632812 201.023438 163.429688 199.820312 161.949219 199.820312 C 160.46875 199.820312 159.261719 201.023438 159.261719 202.503906 C 159.261719 202.613281 159.285156 202.710938 159.296875 202.816406 C 158.847656 202.761719 158.394531 202.730469 157.929688 202.730469 C 153.164062 202.730469 149.058594 205.554688 147.140625 209.609375 C 146.996094 209.601562 146.855469 209.585938 146.710938 209.582031 C 146.003906 208.289062 145.082031 206.652344 143.941406 204.675781 C 143.855469 204.136719 143.503906 203.761719 143.027344 203.507812 C 143.046875 203.503906 105.566406 79.886719 105.566406 79.886719 C 105.992188 79.523438 106.304688 79.121094 106.417969 78.6875 C 106.148438 76.660156 107.429688 82.519531 92.472656 31.21875 C 92.414062 31.234375 92.316406 29.101562 87.183594 30.464844 C 85.3125 30.960938 82.226562 31.84375 82.636719 33.402344 C 85.691406 44.859375 96.675781 80.886719 96.609375 80.902344 C 96.886719 81.953125 97.992188 81.972656 99.074219 81.980469 C 137.132812 208.355469 136.171875 205.511719 136.15625 205.445312 C 135.96875 205.8125 135.898438 206.191406 135.972656 206.550781 L 136.222656 212.300781 C 134.886719 213.089844 133.480469 214.214844 132.675781 215.527344 C 129.722656 215.890625 127.417969 218.398438 127.398438 221.445312 C 127.273438 221.4375 127.152344 221.433594 127.035156 221.433594 C 126.320312 221.433594 125.640625 221.566406 125.003906 221.796875 C 124.207031 220.816406 122.992188 220.1875 121.632812 220.1875 C 119.234375 220.1875 117.285156 222.136719 117.285156 224.535156 C 117.285156 226.78125 119.003906 228.636719 121.195312 228.859375 C 121.535156 230.269531 122.367188 231.503906 123.542969 232.339844 C 122.335938 232.617188 121.335938 233.476562 120.878906 234.644531 C 120.273438 234.429688 119.644531 234.316406 119 234.316406 C 115.914062 234.316406 113.40625 236.828125 113.40625 239.910156 C 113.40625 241.628906 114.183594 243.21875 115.511719 244.277344 C 114.792969 244.984375 114.378906 245.957031 114.378906 246.976562 C 114.378906 247.980469 114.773438 248.894531 115.414062 249.574219 C 113.488281 251.691406 112.074219 254.355469 112.875 257.660156 C 113.367188 259.710938 114.839844 261.511719 117.019531 262.738281 C 117.765625 263.15625 118.511719 263.816406 119.433594 264.21875 C 120.402344 265.804688 124.640625 267.878906 127.039062 267.253906 C 127.507812 267.765625 131.828125 269.484375 136.273438 267.699219 C 136.71875 268.242188 140.375 269.195312 143.78125 267.960938 C 144.160156 268.316406 145.339844 268.476562 145.917969 268.476562 C 148.0625 268.476562 150.828125 266.957031 151.164062 266.582031 C 155.703125 271.394531 161.796875 270.285156 167.609375 268.183594 C 174.722656 265.605469 174.644531 266.570312 180.121094 266.894531 C 181.730469 266.996094 182.382812 266.039062 182.117188 265.015625 C 186.640625 266.582031 185.714844 268.25 187.230469 268.25 C 189.40625 268.25 189.070312 264.570312 186.59375 262.644531 C 186.777344 262.371094 186.875 262.164062 186.980469 261.886719 C 189.199219 262.410156 191.441406 263.007812 193.363281 264.21875 C 194.285156 264.800781 195.140625 265.503906 196.1875 265.863281 C 196.644531 266.019531 197.296875 266.191406 197.746094 265.90625 C 198.40625 265.488281 198.386719 264.460938 198.039062 263.847656 C 198.710938 264.402344 199.605469 264.40625 200.410156 264.601562 C 201.535156 264.867188 202.449219 265.453125 203.648438 265.453125 C 206.5625 265.453125 208.9375 263.097656 208.964844 260.191406 C 211.871094 260.160156 214.230469 257.789062 214.230469 254.875 C 214.230469 253.996094 214 253.15625 213.605469 252.410156 C 215.210938 251.566406 216.308594 249.882812 216.308594 247.945312 C 216.308594 247.273438 216.171875 246.636719 215.933594 246.046875 C 216.601562 245.140625 217 244.027344 217 242.820312 C 217 239.84375 214.601562 237.414062 211.636719 237.367188 " fill-opacity="1" fill-rule="nonzero"/></g><path fill="#a9a0f0" d="M 185.640625 210.210938 C 187.050781 210.210938 188.203125 211.332031 188.203125 212.707031 C 188.203125 214.082031 187.050781 215.199219 185.640625 215.199219 C 184.226562 215.199219 183.074219 214.082031 183.074219 212.707031 C 183.074219 211.332031 184.226562 210.210938 185.640625 210.210938 Z M 185.640625 216.136719 C 187.425781 216.136719 188.878906 214.683594 188.878906 212.894531 C 188.878906 211.109375 187.425781 209.660156 185.640625 209.660156 C 183.851562 209.660156 182.398438 211.109375 182.398438 212.894531 C 182.398438 214.683594 183.851562 216.136719 185.640625 216.136719 " fill-opacity="1" fill-rule="nonzero"/><path fill="#a9a0f0" d="M 173.308594 209.328125 C 173.824219 209.328125 174.242188 209.75 174.242188 210.261719 C 174.242188 210.78125 173.824219 211.199219 173.308594 211.199219 C 172.792969 211.199219 172.371094 210.78125 172.371094 210.261719 C 172.371094 209.75 172.792969 209.328125 173.308594 209.328125 Z M 173.308594 211.820312 C 174.167969 211.820312 174.867188 211.121094 174.867188 210.261719 C 174.867188 209.402344 174.167969 208.703125 173.308594 208.703125 C 172.449219 208.703125 171.75 209.402344 171.75 210.261719 C 171.75 211.121094 172.449219 211.820312 173.308594 211.820312 " fill-opacity="1" fill-rule="nonzero"/><g clip-path="url(#458b24c257)"><path fill="#a9a0f0" d="M 215.734375 234.578125 C 216.308594 234.578125 216.773438 235.042969 216.773438 235.617188 C 216.773438 236.191406 216.308594 236.65625 215.734375 236.65625 C 215.164062 236.65625 214.695312 236.191406 214.695312 235.617188 C 214.695312 235.042969 215.164062 234.578125 215.734375 234.578125 Z M 215.734375 237.28125 C 216.652344 237.28125 217.398438 236.53125 217.398438 235.617188 C 217.398438 234.699219 216.652344 233.953125 215.734375 233.953125 C 214.820312 233.953125 214.074219 234.699219 214.074219 235.617188 C 214.074219 236.53125 214.820312 237.28125 215.734375 237.28125 " fill-opacity="1" fill-rule="nonzero"/></g><path fill="#a9a0f0" d="M 192.652344 233.800781 C 190.761719 233.167969 191.113281 231.527344 191.160156 230.558594 L 190.382812 231.644531 C 188.273438 234.289062 184.453125 232.652344 184.625 229.34375 L 184.074219 229.613281 C 183.164062 230.058594 181.9375 229.261719 181.445312 228.394531 C 180.878906 227.394531 181.234375 225.390625 181.707031 224.34375 C 180.410156 225.589844 180.257812 227.46875 180.773438 228.65625 C 181.253906 229.75 182.679688 230.714844 183.878906 230.523438 C 184.105469 232.003906 185.207031 233.308594 186.667969 233.730469 C 188.046875 234.117188 189.539062 233.675781 190.519531 232.695312 C 191.285156 234.558594 193.945312 234.730469 195.59375 233.675781 C 194.644531 233.957031 193.589844 234.125 192.652344 233.800781 " fill-opacity="1" fill-rule="nonzero"/><path fill="#a9a0f0" d="M 118.253906 245.019531 C 119.984375 246.042969 121.835938 244.035156 121.515625 242.253906 C 121.484375 241.972656 121.417969 241.695312 121.328125 241.429688 C 122.171875 241.140625 122.992188 239.910156 122.941406 239.148438 C 122.648438 239.652344 122.273438 240.054688 121.847656 240.347656 C 121.566406 240.542969 121.128906 240.746094 120.96875 240.660156 C 120.964844 240.648438 120.957031 240.636719 120.953125 240.628906 L 120.183594 241.015625 C 120.1875 241.023438 120.199219 241.03125 120.207031 241.042969 C 121.136719 242.71875 120.453125 245.183594 118.253906 245.019531 " fill-opacity="1" fill-rule="nonzero"/><path fill="#a9a0f0" d="M 204.195312 233.195312 C 204.167969 233.183594 203.472656 232.878906 203.472656 232.878906 C 202.429688 234 200.804688 234.804688 199.320312 234.113281 C 198.875 233.890625 198.425781 233.511719 198.371094 232.910156 C 197.953125 234.253906 199.648438 235.261719 200.839844 235.199219 C 201.960938 235.210938 202.996094 234.625 203.746094 233.832031 C 204.484375 234.34375 206.121094 233.792969 206.691406 233.324219 C 206.148438 233.421875 205.621094 233.460938 205.109375 233.429688 C 204.773438 233.390625 204.402344 233.402344 204.195312 233.195312 " fill-opacity="1" fill-rule="nonzero"/><path fill="#a9a0f0" d="M 205.082031 258.902344 C 203.628906 259.523438 203.488281 261.652344 204.542969 262.675781 C 204.621094 262.730469 204.851562 262.765625 204.820312 262.621094 C 204.789062 262.726562 204.667969 262.617188 204.640625 262.570312 C 204.621094 262.515625 204.582031 262.398438 204.566406 262.316406 C 204.3125 261.425781 204.59375 259.746094 205.695312 259.75 L 206.328125 259.917969 L 206.28125 259.269531 C 206.214844 257.945312 207.398438 256.964844 208.273438 256.015625 C 206.96875 256.429688 205.601562 257.367188 205.382812 258.824219 C 205.277344 258.839844 205.175781 258.863281 205.082031 258.902344 " fill-opacity="1" fill-rule="nonzero"/><path fill="#a9a0f0" d="M 211.511719 250.257812 C 211.046875 250.332031 210.582031 250.3125 210.140625 250.191406 C 209.472656 250 208.871094 249.5625 208.464844 248.8125 C 208.34375 250.273438 209.945312 251.332031 211.339844 251.246094 C 211.433594 251.242188 211.527344 251.230469 211.621094 251.214844 C 211.921875 251.167969 212.210938 251.070312 212.480469 250.945312 C 212.898438 250.757812 213.277344 250.496094 213.578125 250.164062 C 214.078125 249.628906 214.394531 248.910156 214.363281 248.210938 C 213.800781 249.304688 212.667969 250.066406 211.511719 250.257812 " fill-opacity="1" fill-rule="nonzero"/><path fill="#a9a0f0" d="M 157.113281 261.273438 C 158.25 260.136719 159.589844 259.703125 161.175781 259.949219 C 159.929688 258.726562 157.40625 259.550781 157.113281 261.273438 " fill-opacity="1" fill-rule="nonzero"/><path fill="#a9a0f0" d="M 138.625 240.839844 C 138.382812 240.949219 138.121094 241.039062 137.84375 241.101562 C 137.398438 241.199219 136.929688 241.230469 136.492188 241.164062 C 135.769531 241.050781 135.132812 240.667969 134.839844 239.878906 C 134.429688 241.105469 135.804688 242.085938 136.953125 242.132812 C 137.0625 242.136719 137.171875 242.136719 137.273438 242.121094 C 137.582031 242.117188 137.910156 242.042969 138.226562 241.921875 C 138.664062 241.746094 139.070312 241.46875 139.351562 241.117188 C 139.65625 240.742188 139.816406 240.28125 139.722656 239.777344 C 139.585938 240.050781 139.417969 240.265625 139.222656 240.4375 C 139.039062 240.601562 138.835938 240.730469 138.625 240.839844 " fill-opacity="1" fill-rule="nonzero"/><path fill="#a9a0f0" d="M 123.0625 225.292969 C 122.808594 225.632812 122.5 225.882812 122.15625 226.0625 C 121.835938 226.234375 121.488281 226.332031 121.128906 226.367188 C 120.464844 226.433594 119.765625 226.285156 119.132812 225.929688 C 119.453125 226.679688 120.222656 227.125 121.039062 227.214844 C 121.351562 227.246094 121.671875 227.226562 121.976562 227.148438 C 122.113281 227.113281 122.246094 227.070312 122.375 227.011719 C 123.535156 226.507812 124.261719 225.023438 123.71875 223.871094 C 123.589844 224.441406 123.359375 224.902344 123.0625 225.292969 " fill-opacity="1" fill-rule="nonzero"/><path fill="#a9a0f0" d="M 119.417969 237.285156 C 118.105469 237.109375 116.648438 237.359375 115.734375 238.453125 C 114.851562 239.527344 114.863281 241.339844 115.957031 242.21875 C 115.417969 240.515625 116.125 238.792969 117.746094 238.0625 C 118.261719 237.796875 118.839844 237.578125 119.417969 237.285156 " fill-opacity="1" fill-rule="nonzero"/><path fill="#a9a0f0" d="M 190.425781 257.6875 C 190.425781 257.675781 190.421875 257.664062 190.421875 257.648438 C 190.414062 257.660156 190.414062 257.671875 190.40625 257.683594 C 190.132812 258.210938 190.1875 258.726562 190.429688 259.148438 C 190.832031 259.847656 191.757812 260.285156 192.613281 260.09375 C 192.769531 260.058594 192.925781 260.007812 193.074219 259.925781 C 193.519531 259.722656 193.890625 259.386719 194.109375 258.972656 C 193.703125 259.203125 193.308594 259.371094 192.910156 259.46875 C 191.722656 259.8125 190.414062 258.992188 190.425781 257.6875 " fill-opacity="1" fill-rule="nonzero"/><path fill="#a9a0f0" d="M 185.195312 255.503906 C 185.042969 255.570312 184.886719 255.609375 184.734375 255.628906 C 184.148438 255.714844 183.554688 255.515625 183.167969 255.105469 C 183.160156 255.097656 183.152344 255.085938 183.144531 255.078125 C 183.007812 254.929688 182.902344 254.753906 182.832031 254.558594 C 182.773438 254.386719 182.730469 254.207031 182.730469 254.007812 C 182.695312 254.0625 182.679688 254.125 182.652344 254.183594 C 182.285156 255.039062 183.0625 256.101562 183.980469 256.238281 C 184.488281 256.324219 185.003906 256.199219 185.410156 255.941406 C 185.507812 255.882812 185.597656 255.8125 185.683594 255.742188 C 185.957031 255.511719 186.175781 255.21875 186.296875 254.894531 C 185.929688 255.160156 185.566406 255.371094 185.195312 255.503906 " fill-opacity="1" fill-rule="nonzero"/><path fill="#a9a0f0" d="M 173.792969 239.269531 C 172.796875 239.679688 171.640625 238.941406 171.738281 237.804688 C 171.476562 238.082031 171.445312 238.535156 171.574219 238.917969 C 171.59375 238.964844 171.601562 239.019531 171.625 239.066406 C 172.03125 240.027344 173.148438 240.171875 173.949219 239.734375 C 174.230469 239.582031 174.46875 239.359375 174.625 239.070312 C 174.6875 238.960938 174.742188 238.839844 174.773438 238.707031 C 174.652344 238.804688 174.527344 238.882812 174.40625 238.960938 C 174.203125 239.089844 174 239.199219 173.792969 239.269531 " fill-opacity="1" fill-rule="nonzero"/><path fill="#a9a0f0" d="M 185.386719 214.40625 C 186.285156 214.488281 187.121094 213.835938 187.246094 213.050781 C 186.957031 213.316406 186.664062 213.503906 186.359375 213.632812 C 185.425781 214.054688 184.355469 213.613281 183.976562 212.632812 C 183.730469 213.476562 184.535156 214.339844 185.386719 214.40625 " fill-opacity="1" fill-rule="nonzero"/><path fill="#a9a0f0" d="M 161.289062 203.644531 C 161.609375 203.78125 161.996094 203.734375 162.289062 203.5625 C 162.507812 203.429688 162.671875 203.230469 162.707031 202.964844 C 161.898438 203.40625 161.027344 203.046875 160.773438 202.160156 C 160.570312 202.429688 160.578125 202.773438 160.714844 203.070312 C 160.832031 203.320312 161.035156 203.539062 161.289062 203.644531 " fill-opacity="1" fill-rule="nonzero"/><path fill="#a9a0f0" d="M 156.144531 207.617188 C 156.089844 207.574219 156.035156 207.535156 155.980469 207.492188 C 155.855469 207.417969 155.71875 207.382812 155.574219 207.382812 C 155.464844 207.378906 155.363281 207.402344 155.265625 207.453125 C 155.167969 207.484375 155.082031 207.539062 155.007812 207.617188 C 154.929688 207.691406 154.875 207.777344 154.839844 207.875 C 154.789062 207.972656 154.769531 208.074219 154.773438 208.183594 C 154.78125 208.257812 154.789062 208.328125 154.800781 208.398438 C 154.839844 208.535156 154.90625 208.652344 155.007812 208.753906 C 155.0625 208.796875 155.117188 208.835938 155.167969 208.878906 C 155.292969 208.953125 155.429688 208.988281 155.574219 208.988281 C 155.6875 208.992188 155.789062 208.96875 155.886719 208.921875 C 155.984375 208.886719 156.070312 208.832031 156.144531 208.753906 C 156.222656 208.679688 156.277344 208.59375 156.308594 208.496094 C 156.359375 208.398438 156.382812 208.296875 156.378906 208.183594 C 156.371094 208.113281 156.359375 208.042969 156.351562 207.972656 C 156.3125 207.835938 156.242188 207.71875 156.144531 207.617188 " fill-opacity="1" fill-rule="nonzero"/><path fill="#a9a0f0" d="M 157.878906 211.28125 C 157.855469 211.265625 157.835938 211.25 157.8125 211.230469 C 157.777344 211.207031 157.738281 211.195312 157.695312 211.195312 C 157.652344 211.183594 157.609375 211.1875 157.566406 211.199219 C 157.542969 211.207031 157.523438 211.21875 157.503906 211.230469 C 157.449219 211.261719 157.433594 211.265625 157.417969 211.277344 C 157.410156 211.289062 157.402344 211.308594 157.394531 211.324219 C 157.363281 211.382812 157.347656 211.402344 157.34375 211.421875 C 157.339844 211.453125 157.335938 211.480469 157.332031 211.507812 C 157.328125 211.554688 157.339844 211.59375 157.359375 211.632812 C 157.371094 211.671875 157.390625 211.707031 157.425781 211.734375 C 157.453125 211.769531 157.488281 211.789062 157.527344 211.800781 C 157.566406 211.824219 157.609375 211.832031 157.652344 211.832031 C 157.695312 211.832031 157.738281 211.824219 157.773438 211.800781 C 157.816406 211.789062 157.847656 211.769531 157.878906 211.734375 C 157.894531 211.714844 157.910156 211.691406 157.929688 211.671875 C 157.957031 211.621094 157.972656 211.566406 157.972656 211.507812 C 157.96875 211.480469 157.964844 211.453125 157.960938 211.421875 C 157.945312 211.371094 157.917969 211.324219 157.878906 211.28125 " fill-opacity="1" fill-rule="nonzero"/><path fill="#a9a0f0" d="M 161.808594 207.6875 C 161.171875 207.6875 161.167969 208.683594 161.808594 208.683594 C 162.449219 208.683594 162.449219 207.6875 161.808594 207.6875 " fill-opacity="1" fill-rule="nonzero"/><path fill="#a9a0f0" d="M 162.226562 212.128906 C 161.546875 212.128906 161.546875 213.179688 162.226562 213.179688 C 162.902344 213.179688 162.902344 212.128906 162.226562 212.128906 " fill-opacity="1" fill-rule="nonzero"/><path fill="#a9a0f0" d="M 160.070312 213.71875 C 160.046875 213.675781 160.011719 213.644531 159.972656 213.621094 C 159.929688 213.597656 159.882812 213.582031 159.835938 213.582031 C 159.785156 213.582031 159.742188 213.597656 159.699219 213.621094 C 159.65625 213.644531 159.625 213.675781 159.601562 213.71875 C 159.582031 213.753906 159.5625 213.796875 159.542969 213.835938 C 159.515625 213.886719 159.5 213.945312 159.5 214.003906 C 159.5 214.066406 159.515625 214.121094 159.542969 214.175781 C 159.605469 214.277344 159.71875 214.339844 159.835938 214.339844 C 159.953125 214.339844 160.066406 214.277344 160.125 214.175781 C 160.15625 214.121094 160.171875 214.066406 160.171875 214.003906 C 160.171875 213.945312 160.15625 213.886719 160.125 213.835938 C 160.105469 213.796875 160.089844 213.753906 160.070312 213.71875 " fill-opacity="1" fill-rule="nonzero"/><path fill="#a9a0f0" d="M 124.996094 229.847656 C 124.957031 229.78125 124.902344 229.730469 124.835938 229.6875 C 124.824219 229.683594 124.816406 229.675781 124.808594 229.671875 C 124.691406 229.601562 124.53125 229.601562 124.417969 229.671875 C 124.40625 229.675781 124.394531 229.683594 124.386719 229.6875 C 124.335938 229.71875 124.292969 229.753906 124.261719 229.804688 C 124.234375 229.832031 124.214844 229.863281 124.207031 229.902344 C 124.179688 229.953125 124.164062 230.011719 124.167969 230.074219 C 124.171875 230.113281 124.179688 230.152344 124.183594 230.191406 C 124.199219 230.226562 124.214844 230.261719 124.226562 230.296875 C 124.257812 230.347656 124.292969 230.390625 124.34375 230.421875 C 124.371094 230.449219 124.402344 230.46875 124.441406 230.480469 C 124.492188 230.507812 124.550781 230.519531 124.613281 230.515625 C 124.652344 230.511719 124.691406 230.503906 124.730469 230.5 C 124.765625 230.484375 124.800781 230.472656 124.835938 230.457031 C 124.886719 230.429688 124.929688 230.390625 124.960938 230.339844 C 124.988281 230.316406 125.007812 230.28125 125.015625 230.242188 C 125.046875 230.191406 125.058594 230.132812 125.054688 230.074219 C 125.050781 230.035156 125.042969 229.992188 125.039062 229.953125 C 125.023438 229.917969 125.011719 229.882812 124.996094 229.847656 " fill-opacity="1" fill-rule="nonzero"/><path fill="#a9a0f0" d="M 126.808594 225.875 C 127.753906 226.523438 127.753906 224.34375 126.808594 224.992188 C 126.792969 225.003906 126.777344 225.015625 126.761719 225.023438 C 126.457031 225.234375 126.457031 225.632812 126.761719 225.84375 C 126.777344 225.855469 126.792969 225.863281 126.808594 225.875 " fill-opacity="1" fill-rule="nonzero"/><path fill="#a9a0f0" d="M 128.800781 224.019531 C 128.808594 224.03125 128.8125 224.039062 128.820312 224.050781 C 128.855469 224.109375 128.902344 224.160156 128.964844 224.195312 C 129.015625 224.226562 129.101562 224.253906 129.167969 224.246094 C 129.230469 224.246094 129.277344 224.238281 129.324219 224.214844 C 129.371094 224.199219 129.410156 224.171875 129.445312 224.136719 C 129.464844 224.113281 129.484375 224.085938 129.503906 224.058594 C 129.539062 224 129.554688 223.9375 129.554688 223.871094 C 129.5625 223.796875 129.53125 223.710938 129.5 223.65625 C 129.480469 223.628906 129.460938 223.601562 129.4375 223.574219 C 129.414062 223.554688 129.386719 223.53125 129.359375 223.511719 C 129.347656 223.507812 129.335938 223.5 129.328125 223.492188 C 129.304688 223.480469 129.285156 223.46875 129.265625 223.457031 C 129.234375 223.445312 129.207031 223.429688 129.175781 223.417969 C 129.128906 223.402344 129.078125 223.402344 129.03125 223.414062 C 128.996094 223.414062 128.96875 223.421875 128.9375 223.4375 C 128.894531 223.453125 128.855469 223.476562 128.820312 223.511719 C 128.800781 223.539062 128.785156 223.5625 128.765625 223.585938 C 128.753906 223.617188 128.738281 223.644531 128.726562 223.675781 C 128.710938 223.722656 128.710938 223.773438 128.722656 223.820312 C 128.722656 223.867188 128.738281 223.914062 128.765625 223.957031 C 128.777344 223.976562 128.789062 223.996094 128.800781 224.019531 " fill-opacity="1" fill-rule="nonzero"/><path fill="#a9a0f0" d="M 129.910156 222.246094 C 130.351562 222.246094 130.355469 221.558594 129.910156 221.558594 C 129.46875 221.558594 129.46875 222.246094 129.910156 222.246094 " fill-opacity="1" fill-rule="nonzero"/><path fill="#a9a0f0" d="M 122.351562 237.667969 C 122.386719 237.699219 122.425781 237.726562 122.460938 237.753906 C 122.546875 237.804688 122.640625 237.832031 122.742188 237.832031 C 122.816406 237.832031 122.890625 237.816406 122.953125 237.78125 C 123.023438 237.761719 123.082031 237.722656 123.132812 237.667969 C 123.1875 237.617188 123.226562 237.558594 123.246094 237.492188 C 123.28125 237.425781 123.296875 237.355469 123.292969 237.277344 C 123.289062 237.226562 123.28125 237.179688 123.273438 237.128906 C 123.25 237.035156 123.203125 236.953125 123.132812 236.886719 C 123.09375 236.855469 123.058594 236.828125 123.019531 236.796875 C 122.933594 236.75 122.839844 236.722656 122.742188 236.722656 C 122.664062 236.71875 122.59375 236.734375 122.527344 236.769531 C 122.460938 236.792969 122.398438 236.832031 122.351562 236.886719 C 122.296875 236.933594 122.257812 236.996094 122.234375 237.0625 C 122.199219 237.128906 122.183594 237.199219 122.1875 237.277344 C 122.195312 237.324219 122.199219 237.375 122.207031 237.421875 C 122.234375 237.519531 122.28125 237.597656 122.351562 237.667969 " fill-opacity="1" fill-rule="nonzero"/><path fill="#a9a0f0" d="M 118.421875 240.433594 C 118.503906 240.484375 118.59375 240.507812 118.6875 240.507812 C 118.757812 240.511719 118.828125 240.496094 118.890625 240.460938 C 118.953125 240.441406 119.011719 240.402344 119.058594 240.351562 C 119.109375 240.304688 119.148438 240.25 119.167969 240.183594 C 119.203125 240.121094 119.214844 240.050781 119.214844 239.980469 L 119.195312 239.839844 C 119.171875 239.75 119.125 239.675781 119.058594 239.609375 C 119.023438 239.578125 118.988281 239.554688 118.953125 239.527344 C 118.871094 239.476562 118.78125 239.453125 118.6875 239.453125 C 118.613281 239.449219 118.546875 239.464844 118.484375 239.5 C 118.417969 239.519531 118.363281 239.554688 118.316406 239.609375 C 118.261719 239.65625 118.226562 239.710938 118.207031 239.777344 C 118.171875 239.839844 118.15625 239.910156 118.160156 239.980469 C 118.167969 240.027344 118.171875 240.074219 118.179688 240.121094 C 118.203125 240.210938 118.25 240.285156 118.316406 240.351562 C 118.347656 240.378906 118.386719 240.40625 118.421875 240.433594 " fill-opacity="1" fill-rule="nonzero"/><path fill="#a9a0f0" d="M 191.152344 226.878906 C 191.15625 226.902344 191.160156 226.921875 191.164062 226.941406 C 191.191406 227.042969 191.242188 227.128906 191.316406 227.203125 C 191.390625 227.277344 191.476562 227.328125 191.578125 227.355469 C 191.683594 227.382812 191.785156 227.382812 191.890625 227.355469 C 191.992188 227.328125 192.078125 227.277344 192.152344 227.203125 C 192.226562 227.128906 192.277344 227.042969 192.304688 226.941406 C 192.332031 226.835938 192.332031 226.730469 192.304688 226.628906 C 192.277344 226.527344 192.226562 226.441406 192.152344 226.367188 C 192.078125 226.292969 191.992188 226.242188 191.890625 226.214844 C 191.871094 226.210938 191.851562 226.207031 191.828125 226.203125 C 191.730469 226.179688 191.632812 226.179688 191.539062 226.203125 C 191.445312 226.230469 191.363281 226.277344 191.292969 226.34375 C 191.226562 226.414062 191.179688 226.496094 191.152344 226.589844 C 191.128906 226.683594 191.128906 226.78125 191.152344 226.878906 " fill-opacity="1" fill-rule="nonzero"/><path fill="#a9a0f0" d="M 190.800781 222.867188 C 190.859375 222.867188 190.917969 222.851562 190.972656 222.820312 C 190.996094 222.804688 191.023438 222.792969 191.050781 222.777344 C 191.140625 222.726562 191.195312 222.625 191.195312 222.523438 C 191.195312 222.421875 191.140625 222.324219 191.050781 222.273438 L 190.972656 222.226562 C 190.917969 222.195312 190.859375 222.183594 190.800781 222.179688 C 190.738281 222.183594 190.679688 222.195312 190.625 222.226562 C 190.519531 222.289062 190.457031 222.402344 190.457031 222.523438 C 190.457031 222.644531 190.519531 222.761719 190.625 222.820312 C 190.679688 222.851562 190.738281 222.867188 190.800781 222.867188 " fill-opacity="1" fill-rule="nonzero"/><path fill="#a9a0f0" d="M 180.65625 224.054688 C 180.710938 224.082031 180.765625 224.09375 180.824219 224.089844 C 180.863281 224.085938 180.902344 224.082031 180.9375 224.074219 C 180.972656 224.0625 181.007812 224.046875 181.042969 224.03125 L 181.128906 223.964844 C 181.152344 223.9375 181.175781 223.90625 181.195312 223.878906 C 181.210938 223.84375 181.226562 223.808594 181.238281 223.773438 C 181.257812 223.71875 181.261719 223.660156 181.246094 223.601562 C 181.246094 223.5625 181.238281 223.527344 181.21875 223.492188 C 181.199219 223.441406 181.171875 223.394531 181.128906 223.355469 C 181.113281 223.339844 181.09375 223.324219 181.078125 223.3125 C 181.042969 223.273438 181.007812 223.25 180.960938 223.238281 C 180.917969 223.214844 180.875 223.203125 180.824219 223.207031 C 180.792969 223.210938 180.761719 223.214844 180.730469 223.21875 C 180.667969 223.234375 180.613281 223.265625 180.570312 223.3125 C 180.554688 223.324219 180.535156 223.339844 180.519531 223.355469 C 180.496094 223.386719 180.476562 223.414062 180.453125 223.441406 C 180.4375 223.476562 180.421875 223.511719 180.410156 223.546875 C 180.390625 223.601562 180.386719 223.660156 180.402344 223.71875 C 180.402344 223.757812 180.410156 223.792969 180.429688 223.828125 C 180.441406 223.863281 180.460938 223.894531 180.488281 223.921875 C 180.503906 223.953125 180.53125 223.980469 180.5625 224 C 180.589844 224.023438 180.621094 224.042969 180.65625 224.054688 " fill-opacity="1" fill-rule="nonzero"/><path fill="#a9a0f0" d="M 175.730469 219.941406 C 175.214844 219.941406 175.214844 220.746094 175.730469 220.746094 C 176.25 220.746094 176.25 219.941406 175.730469 219.941406 " fill-opacity="1" fill-rule="nonzero"/><path fill="#a9a0f0" d="M 183.148438 232.148438 C 183.105469 232.117188 183.0625 232.082031 183.019531 232.046875 C 182.917969 231.988281 182.808594 231.960938 182.695312 231.960938 C 182.605469 231.957031 182.523438 231.976562 182.445312 232.015625 C 182.367188 232.042969 182.296875 232.085938 182.238281 232.148438 C 182.175781 232.207031 182.132812 232.277344 182.105469 232.355469 C 182.066406 232.433594 182.046875 232.515625 182.050781 232.605469 C 182.058594 232.660156 182.066406 232.71875 182.074219 232.773438 C 182.105469 232.882812 182.160156 232.976562 182.238281 233.058594 C 182.285156 233.09375 182.328125 233.125 182.371094 233.160156 C 182.46875 233.21875 182.578125 233.246094 182.695312 233.246094 C 182.78125 233.25 182.867188 233.230469 182.941406 233.191406 C 183.023438 233.164062 183.089844 233.121094 183.148438 233.058594 C 183.210938 233 183.257812 232.929688 183.28125 232.851562 C 183.324219 232.773438 183.339844 232.691406 183.335938 232.605469 C 183.328125 232.546875 183.324219 232.488281 183.3125 232.433594 C 183.285156 232.324219 183.226562 232.230469 183.148438 232.148438 " fill-opacity="1" fill-rule="nonzero"/><path fill="#a9a0f0" d="M 185.640625 234.75 C 185.605469 234.726562 185.570312 234.699219 185.539062 234.675781 C 185.464844 234.628906 185.378906 234.609375 185.292969 234.609375 C 185.226562 234.605469 185.160156 234.617188 185.105469 234.648438 C 185.042969 234.667969 184.992188 234.703125 184.945312 234.75 C 184.898438 234.796875 184.863281 234.847656 184.84375 234.910156 C 184.8125 234.96875 184.800781 235.03125 184.800781 235.097656 L 184.820312 235.226562 C 184.84375 235.308594 184.886719 235.382812 184.945312 235.445312 C 184.980469 235.46875 185.011719 235.492188 185.046875 235.519531 C 185.121094 235.5625 185.203125 235.585938 185.292969 235.585938 C 185.359375 235.589844 185.421875 235.574219 185.480469 235.542969 C 185.542969 235.523438 185.59375 235.492188 185.640625 235.445312 C 185.6875 235.398438 185.71875 235.347656 185.738281 235.285156 C 185.769531 235.226562 185.785156 235.164062 185.78125 235.097656 C 185.777344 235.054688 185.769531 235.011719 185.765625 234.96875 C 185.742188 234.882812 185.699219 234.8125 185.640625 234.75 " fill-opacity="1" fill-rule="nonzero"/><path fill="#a9a0f0" d="M 191.867188 235.066406 C 191.84375 235.050781 191.824219 235.03125 191.800781 235.015625 C 191.746094 234.984375 191.691406 234.96875 191.628906 234.96875 C 191.585938 234.96875 191.539062 234.976562 191.5 234.996094 C 191.460938 235.011719 191.421875 235.035156 191.394531 235.066406 C 191.359375 235.097656 191.335938 235.132812 191.324219 235.175781 C 191.300781 235.214844 191.292969 235.257812 191.292969 235.304688 C 191.296875 235.335938 191.300781 235.363281 191.304688 235.394531 C 191.320312 235.449219 191.351562 235.5 191.394531 235.542969 C 191.414062 235.558594 191.4375 235.578125 191.460938 235.59375 C 191.511719 235.625 191.570312 235.640625 191.628906 235.640625 C 191.675781 235.640625 191.71875 235.632812 191.761719 235.613281 C 191.800781 235.597656 191.835938 235.574219 191.867188 235.542969 C 191.898438 235.511719 191.925781 235.476562 191.9375 235.433594 C 191.957031 235.394531 191.96875 235.351562 191.964844 235.304688 C 191.960938 235.277344 191.957031 235.246094 191.953125 235.214844 C 191.9375 235.160156 191.910156 235.109375 191.867188 235.066406 " fill-opacity="1" fill-rule="nonzero"/><path fill="#a9a0f0" d="M 184.554688 246.933594 C 184.53125 246.894531 184.507812 246.863281 184.476562 246.824219 C 184.441406 246.789062 184.398438 246.761719 184.351562 246.746094 C 184.304688 246.722656 184.253906 246.710938 184.203125 246.710938 C 184.148438 246.710938 184.097656 246.722656 184.054688 246.746094 C 184.003906 246.761719 183.964844 246.789062 183.929688 246.824219 C 183.910156 246.851562 183.886719 246.878906 183.867188 246.902344 C 183.832031 246.964844 183.816406 247.027344 183.816406 247.097656 C 183.820312 247.132812 183.824219 247.167969 183.828125 247.203125 C 183.847656 247.265625 183.878906 247.324219 183.929688 247.371094 C 183.964844 247.40625 184 247.429688 184.039062 247.453125 C 184.109375 247.496094 184.175781 247.515625 184.246094 247.515625 C 184.34375 247.515625 184.4375 247.476562 184.507812 247.40625 C 184.578125 247.335938 184.617188 247.238281 184.617188 247.140625 C 184.617188 247.074219 184.597656 247.007812 184.5625 246.949219 C 184.5625 246.945312 184.558594 246.9375 184.554688 246.933594 " fill-opacity="1" fill-rule="nonzero"/><path fill="#a9a0f0" d="M 190.695312 244.71875 C 189.972656 244.71875 189.96875 245.84375 190.695312 245.84375 C 191.417969 245.84375 191.421875 244.71875 190.695312 244.71875 " fill-opacity="1" fill-rule="nonzero"/><path fill="#a9a0f0" d="M 192.8125 247.789062 C 192.835938 247.875 192.878906 247.945312 192.9375 248.007812 C 193 248.066406 193.070312 248.109375 193.152344 248.132812 C 193.242188 248.15625 193.328125 248.15625 193.414062 248.132812 C 193.496094 248.109375 193.570312 248.066406 193.628906 248.007812 C 193.691406 247.945312 193.734375 247.875 193.753906 247.789062 C 193.777344 247.703125 193.777344 247.617188 193.753906 247.53125 C 193.734375 247.449219 193.691406 247.375 193.628906 247.316406 C 193.570312 247.253906 193.496094 247.210938 193.414062 247.1875 C 193.375 247.179688 193.339844 247.167969 193.300781 247.15625 C 193.15625 247.117188 192.996094 247.160156 192.890625 247.265625 C 192.785156 247.371094 192.738281 247.535156 192.78125 247.679688 C 192.789062 247.714844 192.800781 247.753906 192.8125 247.789062 " fill-opacity="1" fill-rule="nonzero"/><path fill="#a9a0f0" d="M 203.550781 228.890625 C 203.582031 228.917969 203.613281 228.941406 203.648438 228.96875 C 203.722656 229.011719 203.804688 229.03125 203.890625 229.03125 C 203.957031 229.035156 204.019531 229.023438 204.078125 228.992188 C 204.136719 228.972656 204.1875 228.9375 204.230469 228.890625 C 204.28125 228.847656 204.3125 228.796875 204.332031 228.738281 C 204.363281 228.679688 204.375 228.617188 204.371094 228.550781 L 204.355469 228.421875 C 204.332031 228.339844 204.292969 228.269531 204.230469 228.210938 C 204.199219 228.183594 204.167969 228.160156 204.132812 228.136719 C 204.058594 228.089844 203.980469 228.070312 203.890625 228.070312 C 203.824219 228.066406 203.761719 228.082031 203.707031 228.109375 C 203.644531 228.128906 203.59375 228.164062 203.550781 228.210938 C 203.503906 228.253906 203.46875 228.304688 203.449219 228.363281 C 203.421875 228.421875 203.40625 228.484375 203.410156 228.550781 L 203.425781 228.679688 C 203.449219 228.761719 203.492188 228.832031 203.550781 228.890625 " fill-opacity="1" fill-rule="nonzero"/><path fill="#a9a0f0" d="M 197.558594 229.757812 C 197.402344 229.519531 197.078125 229.519531 196.925781 229.757812 C 196.914062 229.773438 196.902344 229.789062 196.894531 229.804688 C 196.410156 230.546875 198.074219 230.546875 197.585938 229.804688 C 197.578125 229.789062 197.566406 229.773438 197.558594 229.757812 " fill-opacity="1" fill-rule="nonzero"/><path fill="#a9a0f0" d="M 202.761719 238.265625 C 202.742188 238.226562 202.714844 238.191406 202.683594 238.164062 C 202.660156 238.148438 202.632812 238.121094 202.632812 238.121094 C 202.59375 238.082031 202.546875 238.050781 202.496094 238.035156 C 202.445312 238.007812 202.390625 237.996094 202.332031 238 C 202.292969 238.003906 202.257812 238.007812 202.21875 238.015625 C 202.148438 238.035156 202.085938 238.070312 202.035156 238.121094 L 202.003906 238.148438 C 201.964844 238.179688 201.953125 238.195312 201.945312 238.214844 C 201.898438 238.265625 201.871094 238.320312 201.855469 238.382812 L 201.835938 238.515625 C 201.84375 238.5625 201.847656 238.605469 201.855469 238.652344 C 201.871094 238.6875 201.886719 238.730469 201.90625 238.769531 C 201.9375 238.828125 201.976562 238.871094 202.03125 238.90625 C 202.0625 238.9375 202.101562 238.960938 202.140625 238.972656 C 202.199219 239.003906 202.265625 239.015625 202.332031 239.011719 C 202.375 239.007812 202.421875 239.003906 202.464844 238.996094 C 202.503906 238.980469 202.542969 238.964844 202.582031 238.945312 C 202.640625 238.914062 202.6875 238.871094 202.722656 238.820312 C 202.765625 238.769531 202.792969 238.714844 202.808594 238.652344 C 202.8125 238.628906 202.816406 238.605469 202.820312 238.582031 C 202.835938 238.515625 202.832031 238.449219 202.808594 238.382812 C 202.792969 238.34375 202.777344 238.304688 202.761719 238.265625 " fill-opacity="1" fill-rule="nonzero"/><path fill="#a9a0f0" d="M 196.929688 236.40625 C 196.609375 236.40625 196.609375 236.902344 196.929688 236.902344 C 197.25 236.902344 197.25 236.40625 196.929688 236.40625 " fill-opacity="1" fill-rule="nonzero"/><path fill="#a9a0f0" d="M 207.320312 236.441406 C 206.773438 236.441406 206.773438 237.289062 207.320312 237.289062 C 207.863281 237.289062 207.867188 236.441406 207.320312 236.441406 " fill-opacity="1" fill-rule="nonzero"/><path fill="#a9a0f0" d="M 205.242188 239.671875 C 205.210938 239.648438 205.179688 239.625 205.152344 239.601562 C 205.082031 239.5625 205.007812 239.542969 204.929688 239.542969 C 204.90625 239.542969 204.878906 239.546875 204.855469 239.546875 C 204.839844 239.546875 204.828125 239.546875 204.816406 239.546875 C 204.730469 239.546875 204.671875 239.558594 204.621094 239.585938 C 204.601562 239.589844 204.582031 239.597656 204.566406 239.609375 C 204.503906 239.648438 204.453125 239.699219 204.414062 239.765625 C 204.375 239.832031 204.355469 239.902344 204.355469 239.980469 C 204.355469 240.058594 204.375 240.132812 204.414062 240.195312 C 204.453125 240.261719 204.503906 240.3125 204.566406 240.351562 C 204.625 240.390625 204.667969 240.394531 204.730469 240.402344 C 204.753906 240.40625 204.773438 240.410156 204.796875 240.410156 C 204.828125 240.414062 204.839844 240.414062 204.855469 240.414062 C 204.878906 240.417969 204.90625 240.417969 204.929688 240.417969 C 204.992188 240.421875 205.046875 240.410156 205.097656 240.378906 C 205.152344 240.363281 205.199219 240.332031 205.242188 240.289062 C 205.28125 240.25 205.3125 240.203125 205.332031 240.148438 C 205.359375 240.097656 205.371094 240.042969 205.367188 239.980469 C 205.363281 239.941406 205.359375 239.902344 205.351562 239.863281 C 205.332031 239.789062 205.292969 239.726562 205.242188 239.671875 " fill-opacity="1" fill-rule="nonzero"/><path fill="#a9a0f0" d="M 202.210938 261.507812 C 202.183594 261.484375 202.15625 261.464844 202.125 261.441406 C 202.0625 261.402344 201.992188 261.386719 201.917969 261.382812 C 201.859375 261.382812 201.804688 261.394531 201.757812 261.421875 C 201.707031 261.4375 201.660156 261.464844 201.621094 261.507812 C 201.582031 261.542969 201.554688 261.589844 201.535156 261.640625 C 201.511719 261.691406 201.5 261.742188 201.5 261.800781 C 201.503906 261.835938 201.511719 261.875 201.515625 261.910156 C 201.535156 261.980469 201.570312 262.042969 201.621094 262.09375 C 201.652344 262.117188 201.679688 262.140625 201.707031 262.160156 C 201.773438 262.199219 201.84375 262.21875 201.917969 262.21875 C 201.972656 262.21875 202.027344 262.207031 202.078125 262.179688 C 202.128906 262.164062 202.171875 262.136719 202.210938 262.09375 C 202.25 262.058594 202.28125 262.011719 202.296875 261.960938 C 202.324219 261.910156 202.335938 261.859375 202.332031 261.800781 C 202.328125 261.761719 202.324219 261.726562 202.320312 261.691406 C 202.296875 261.621094 202.261719 261.558594 202.210938 261.507812 " fill-opacity="1" fill-rule="nonzero"/><path fill="#a9a0f0" d="M 207.8125 254.8125 C 207.886719 254.855469 207.964844 254.875 208.046875 254.875 C 208.132812 254.875 208.210938 254.855469 208.28125 254.8125 C 208.351562 254.769531 208.410156 254.714844 208.449219 254.644531 C 208.492188 254.570312 208.515625 254.492188 208.515625 254.410156 C 208.515625 254.324219 208.492188 254.246094 208.449219 254.171875 C 208.4375 254.152344 208.425781 254.128906 208.414062 254.105469 C 208.375 254.042969 208.324219 253.992188 208.261719 253.953125 C 208.195312 253.914062 208.125 253.898438 208.046875 253.894531 C 207.96875 253.898438 207.898438 253.914062 207.832031 253.953125 C 207.769531 253.992188 207.71875 254.042969 207.683594 254.105469 C 207.667969 254.128906 207.65625 254.152344 207.644531 254.171875 C 207.601562 254.246094 207.582031 254.324219 207.582031 254.410156 C 207.582031 254.492188 207.601562 254.570312 207.644531 254.644531 C 207.683594 254.714844 207.742188 254.769531 207.8125 254.8125 " fill-opacity="1" fill-rule="nonzero"/><path fill="#a9a0f0" d="M 210.4375 257.363281 C 210.878906 257.363281 210.878906 256.679688 210.4375 256.679688 C 209.996094 256.679688 209.996094 257.363281 210.4375 257.363281 " fill-opacity="1" fill-rule="nonzero"/><path fill="#a9a0f0" d="M 116.714844 246.179688 C 117.070312 246.179688 117.070312 245.625 116.714844 245.625 C 116.355469 245.625 116.355469 246.179688 116.714844 246.179688 " fill-opacity="1" fill-rule="nonzero"/><path fill="#a9a0f0" d="M 155.679688 211.363281 C 155.085938 211.363281 155.085938 212.28125 155.679688 212.28125 C 156.269531 212.28125 156.273438 211.363281 155.679688 211.363281 " fill-opacity="1" fill-rule="nonzero"/><path fill="#a9a0f0" d="M 149.941406 209 C 152.257812 207.0625 154.964844 205.890625 157.960938 205.511719 C 154.96875 204.5 151.246094 206.121094 149.941406 209 " fill-opacity="1" fill-rule="nonzero"/><path fill="#a9a0f0" d="M 183.734375 222.003906 C 185.472656 220.960938 187.292969 220.476562 189.320312 220.511719 C 187.597656 219.089844 184.519531 219.917969 183.734375 222.003906 " fill-opacity="1" fill-rule="nonzero"/><path fill="#a9a0f0" d="M 209.824219 228.445312 C 210.742188 231.183594 210.394531 233.671875 209.8125 236.136719 C 211.46875 233.972656 211.46875 230.613281 209.824219 228.445312 " fill-opacity="1" fill-rule="nonzero"/><path fill="#a9a0f0" d="M 142.347656 223.523438 C 145.53125 223.003906 147.328125 221.964844 148.316406 221.308594 C 148.816406 220.976562 149.109375 220.695312 149.292969 220.523438 C 149.472656 220.351562 149.535156 220.273438 149.535156 220.273438 C 149.535156 220.273438 149.4375 220.308594 149.210938 220.414062 C 148.980469 220.515625 148.632812 220.699219 148.085938 220.925781 C 147.011719 221.378906 145.203125 222.171875 142.152344 222.65625 C 140.632812 222.886719 139.410156 222.910156 138.457031 222.847656 C 137.976562 222.835938 137.578125 222.753906 137.214844 222.714844 C 136.871094 222.632812 136.566406 222.582031 136.324219 222.507812 C 136.082031 222.429688 135.878906 222.363281 135.714844 222.3125 C 135.558594 222.238281 135.4375 222.1875 135.339844 222.148438 C 135.148438 222.074219 135.070312 222.058594 135.070312 222.058594 C 135.070312 222.058594 135.136719 222.132812 135.316406 222.300781 C 135.488281 222.484375 135.808594 222.71875 136.332031 222.992188 C 137.386719 223.492188 139.363281 223.980469 142.347656 223.523438 " fill-opacity="1" fill-rule="nonzero"/><path fill="#a9a0f0" d="M 151.441406 227.917969 C 150.804688 228.207031 149.933594 228.542969 148.773438 228.878906 C 147.609375 229.210938 146.132812 229.519531 144.300781 229.605469 C 140.621094 229.738281 138.503906 229.082031 137.296875 228.78125 C 136.683594 228.632812 136.3125 228.484375 136.066406 228.4375 C 135.832031 228.375 135.742188 228.371094 135.742188 228.371094 C 135.742188 228.371094 135.835938 228.441406 136.085938 228.597656 C 136.328125 228.75 136.722656 229 137.351562 229.277344 C 138.589844 229.816406 140.816406 230.644531 144.417969 230.488281 C 146.332031 230.394531 147.863281 230.007812 149.042969 229.582031 C 150.222656 229.144531 151.074219 228.695312 151.667969 228.300781 C 152.273438 227.921875 152.632812 227.601562 152.851562 227.402344 C 153.070312 227.203125 153.152344 227.113281 153.152344 227.113281 C 153.152344 227.113281 153.035156 227.160156 152.769531 227.289062 C 152.503906 227.421875 152.085938 227.644531 151.441406 227.917969 " fill-opacity="1" fill-rule="nonzero"/><path fill="#a9a0f0" d="M 138.449219 208.648438 C 138.449219 208.648438 138.378906 209.003906 138.355469 210.054688 C 138.339844 210.582031 138.335938 211.277344 138.359375 212.191406 C 138.375 212.652344 138.390625 213.160156 138.410156 213.730469 C 138.425781 214.035156 138.441406 214.359375 138.457031 214.699219 L 138.472656 214.933594 C 138.460938 214.980469 138.503906 214.996094 138.539062 215.015625 L 138.640625 215.078125 C 138.742188 215.144531 138.847656 215.210938 138.957031 215.28125 C 139.113281 215.382812 139.292969 215.445312 139.46875 215.53125 C 140.199219 215.808594 140.902344 215.828125 141.496094 215.773438 C 142.097656 215.71875 142.601562 215.5625 143.03125 215.402344 C 143.886719 215.074219 144.441406 214.691406 144.820312 214.386719 C 145.199219 214.085938 145.398438 213.851562 145.511719 213.703125 C 145.625 213.554688 145.652344 213.496094 145.652344 213.496094 C 145.652344 213.496094 145.570312 213.535156 145.382812 213.640625 C 145.199219 213.746094 144.902344 213.910156 144.460938 214.125 C 144.019531 214.332031 143.425781 214.597656 142.628906 214.800781 C 141.84375 214.976562 140.792969 215.164062 139.722656 214.734375 C 139.585938 214.667969 139.445312 214.625 139.328125 214.539062 C 139.238281 214.484375 139.273438 214.507812 139.265625 214.5 C 139.242188 214.199219 139.222656 213.910156 139.199219 213.636719 C 139.152344 213.070312 139.105469 212.5625 139.054688 212.113281 C 138.957031 211.210938 138.855469 210.523438 138.765625 210.011719 C 138.585938 208.984375 138.449219 208.648438 138.449219 208.648438 " fill-opacity="1" fill-rule="nonzero"/><path fill="#a9a0f0" d="M 134.34375 188.597656 C 131.667969 179.707031 127.347656 165.027344 120.246094 141.425781 C 113.121094 117.832031 108.582031 103.699219 106.0625 95.753906 C 103.691406 87.640625 102.792969 85.769531 102.792969 85.769531 C 102.792969 85.769531 102.964844 87.996094 105.90625 97.578125 C 108.414062 106.085938 112.800781 120.082031 119.519531 142.050781 C 126.691406 165.511719 131.011719 180.128906 133.753906 188.910156 C 136.59375 198.5625 137.289062 199.507812 137.703125 200.339844 C 137.566406 199.164062 137.261719 198.085938 134.34375 188.597656 " fill-opacity="1" fill-rule="nonzero"/><path fill="#a9a0f0" d="M 136.605469 219.1875 C 137.207031 219.554688 137.761719 219.644531 138.183594 219.679688 C 138.605469 219.707031 138.925781 219.667969 139.160156 219.625 C 139.628906 219.53125 139.78125 219.410156 139.78125 219.410156 C 139.78125 219.410156 139.628906 219.3125 139.179688 219.179688 C 138.945312 219.117188 138.65625 219.035156 138.289062 218.9375 C 137.925781 218.828125 137.480469 218.691406 137.042969 218.414062 C 136.621094 218.140625 136.359375 217.808594 136.1875 217.546875 C 136.015625 217.273438 135.9375 217.050781 135.878906 216.871094 C 135.785156 216.515625 135.746094 216.351562 135.734375 216.355469 C 135.75 216.363281 135.550781 216.449219 135.4375 216.945312 C 135.339844 217.410156 135.460938 218.433594 136.605469 219.1875 " fill-opacity="1" fill-rule="nonzero"/><path fill="#a9a0f0" d="M 89.320312 47.492188 L 87.640625 42.136719 C 87.121094 40.589844 86.535156 38.265625 85.796875 36.828125 C 85.988281 38.445312 86.789062 40.699219 87.214844 42.265625 L 88.792969 47.652344 C 91.445312 56.507812 95.011719 68.410156 97.785156 77.183594 C 98.835938 80.523438 99.1875 80.207031 98.25 77.042969 C 95.679688 68.191406 92.042969 56.34375 89.320312 47.492188 " fill-opacity="1" fill-rule="nonzero"/><path fill="#a9a0f0" d="M 91.554688 44.285156 C 91.453125 42.503906 92.683594 41.195312 93.375 39.675781 C 91.921875 40.625 90.546875 42.695312 91.554688 44.285156 " fill-opacity="1" fill-rule="nonzero"/><path fill="#a9a0f0" d="M 96.492188 49.753906 C 95.035156 50.703125 93.664062 52.777344 94.671875 54.363281 C 94.570312 52.582031 95.800781 51.273438 96.492188 49.753906 " fill-opacity="1" fill-rule="nonzero"/><path fill="#a9a0f0" d="M 99.246094 59.46875 C 97.792969 60.417969 96.417969 62.492188 97.425781 64.078125 C 97.324219 62.296875 98.554688 60.988281 99.246094 59.46875 " fill-opacity="1" fill-rule="nonzero"/><path fill="#a9a0f0" d="M 100.230469 73.375 C 100.128906 71.597656 101.359375 70.285156 102.050781 68.769531 C 100.597656 69.71875 99.222656 71.792969 100.230469 73.375 " fill-opacity="1" fill-rule="nonzero"/></svg>