<svg xmlns="http://www.w3.org/2000/svg" xmlns:xlink="http://www.w3.org/1999/xlink" width="400" zoomAndPan="magnify" viewBox="0 0 300 299.999988" height="400" preserveAspectRatio="xMidYMid meet" version="1.0"><defs><clipPath id="a6c473cb2c"><path d="M 53 41.699219 L 151 41.699219 L 151 96 L 53 96 Z M 53 41.699219 " clip-rule="nonzero"/></clipPath><clipPath id="1a619c1643"><path d="M 30 104 L 176 104 L 176 258.449219 L 30 258.449219 Z M 30 104 " clip-rule="nonzero"/></clipPath></defs><path fill="currentColor" d="M 194.9375 75.707031 C 177.464844 60.648438 151.746094 63.34375 150.65625 63.464844 C 150.054688 63.53125 149.492188 63.71875 148.992188 63.996094 C 149.238281 65.460938 149.375 66.960938 149.375 68.484375 C 149.375 69.628906 149.292969 70.753906 149.152344 71.863281 C 149.898438 72.238281 150.753906 72.414062 151.644531 72.320312 C 151.875 72.292969 174.671875 69.964844 189.15625 82.492188 C 194.820312 87.386719 198.527344 94.019531 200.253906 102.257812 C 202.792969 100.628906 205.597656 99.398438 208.585938 98.667969 C 206.304688 89.277344 201.746094 81.578125 194.9375 75.707031 Z M 194.9375 75.707031 " fill-opacity="1" fill-rule="nonzero"/><path fill="currentColor" d="M 269.96875 150.960938 C 269.96875 152.496094 269.894531 154.027344 269.742188 155.558594 C 269.59375 157.085938 269.367188 158.605469 269.066406 160.113281 C 268.769531 161.621094 268.394531 163.109375 267.949219 164.578125 C 267.503906 166.050781 266.984375 167.496094 266.398438 168.914062 C 265.808594 170.332031 265.152344 171.722656 264.429688 173.078125 C 263.703125 174.429688 262.914062 175.746094 262.0625 177.027344 C 261.207031 178.304688 260.292969 179.535156 259.320312 180.722656 C 258.34375 181.910156 257.3125 183.050781 256.226562 184.136719 C 255.140625 185.222656 254.003906 186.253906 252.816406 187.226562 C 251.628906 188.203125 250.394531 189.117188 249.117188 189.96875 C 247.839844 190.824219 246.523438 191.613281 245.167969 192.335938 C 243.8125 193.0625 242.425781 193.71875 241.003906 194.304688 C 239.585938 194.894531 238.140625 195.410156 236.671875 195.859375 C 235.199219 196.304688 233.710938 196.675781 232.203125 196.976562 C 230.695312 197.277344 229.179688 197.5 227.648438 197.652344 C 226.121094 197.800781 224.585938 197.878906 223.050781 197.878906 C 221.515625 197.878906 219.980469 197.800781 218.453125 197.652344 C 216.921875 197.5 215.402344 197.277344 213.898438 196.976562 C 212.390625 196.675781 210.902344 196.304688 209.429688 195.859375 C 207.960938 195.410156 206.515625 194.894531 205.09375 194.304688 C 203.675781 193.71875 202.289062 193.0625 200.933594 192.335938 C 199.578125 191.613281 198.261719 190.824219 196.984375 189.96875 C 195.707031 189.117188 194.472656 188.203125 193.285156 187.226562 C 192.097656 186.253906 190.960938 185.222656 189.875 184.136719 C 188.789062 183.050781 187.757812 181.910156 186.78125 180.722656 C 185.808594 179.535156 184.894531 178.304688 184.039062 177.027344 C 183.183594 175.746094 182.394531 174.429688 181.671875 173.078125 C 180.949219 171.722656 180.292969 170.332031 179.703125 168.914062 C 179.117188 167.496094 178.597656 166.050781 178.152344 164.578125 C 177.707031 163.109375 177.332031 161.621094 177.035156 160.113281 C 176.734375 158.605469 176.507812 157.085938 176.359375 155.558594 C 176.207031 154.027344 176.132812 152.496094 176.132812 150.960938 C 176.132812 149.421875 176.207031 147.890625 176.359375 146.359375 C 176.507812 144.832031 176.734375 143.3125 177.035156 141.804688 C 177.332031 140.296875 177.707031 138.808594 178.152344 137.339844 C 178.597656 135.867188 179.117188 134.425781 179.703125 133.003906 C 180.292969 131.585938 180.949219 130.195312 181.671875 128.84375 C 182.394531 127.488281 183.183594 126.171875 184.039062 124.890625 C 184.894531 123.613281 185.808594 122.382812 186.78125 121.195312 C 187.757812 120.007812 188.789062 118.871094 189.875 117.78125 C 190.960938 116.695312 192.097656 115.664062 193.285156 114.691406 C 194.472656 113.714844 195.707031 112.800781 196.984375 111.949219 C 198.261719 111.09375 199.578125 110.304688 200.933594 109.582031 C 202.289062 108.855469 203.675781 108.199219 205.09375 107.613281 C 206.515625 107.023438 207.960938 106.507812 209.429688 106.0625 C 210.902344 105.613281 212.390625 105.242188 213.898438 104.941406 C 215.402344 104.640625 216.921875 104.417969 218.453125 104.265625 C 219.980469 104.117188 221.515625 104.039062 223.050781 104.039062 C 224.585938 104.039062 226.121094 104.117188 227.648438 104.265625 C 229.179688 104.417969 230.695312 104.640625 232.203125 104.941406 C 233.710938 105.242188 235.199219 105.613281 236.671875 106.0625 C 238.140625 106.507812 239.585938 107.023438 241.003906 107.613281 C 242.425781 108.199219 243.8125 108.855469 245.167969 109.582031 C 246.523438 110.304688 247.839844 111.09375 249.117188 111.949219 C 250.394531 112.800781 251.628906 113.714844 252.816406 114.691406 C 254.003906 115.664062 255.140625 116.695312 256.226562 117.78125 C 257.3125 118.871094 258.34375 120.007812 259.320312 121.195312 C 260.292969 122.382812 261.207031 123.613281 262.0625 124.890625 C 262.914062 126.171875 263.703125 127.488281 264.429688 128.84375 C 265.152344 130.195312 265.808594 131.585938 266.398438 133.003906 C 266.984375 134.425781 267.503906 135.867188 267.949219 137.339844 C 268.394531 138.808594 268.769531 140.296875 269.066406 141.804688 C 269.367188 143.3125 269.59375 144.832031 269.742188 146.359375 C 269.894531 147.890625 269.96875 149.421875 269.96875 150.960938 Z M 269.96875 150.960938 " fill-opacity="1" fill-rule="nonzero"/><g clip-path="url(#a6c473cb2c)"><path fill="currentColor" d="M 150.59375 68.40625 C 150.59375 83.167969 138.628906 95.132812 123.867188 95.132812 L 80.511719 95.132812 C 65.753906 95.132812 53.789062 83.167969 53.789062 68.40625 C 53.789062 53.644531 65.753906 41.679688 80.511719 41.679688 L 123.867188 41.679688 C 138.628906 41.679688 150.59375 53.644531 150.59375 68.40625 Z M 150.59375 68.40625 " fill-opacity="1" fill-rule="nonzero"/></g><g clip-path="url(#1a619c1643)"><path fill="currentColor" d="M 175.539062 182.734375 C 175.539062 152.617188 157.238281 126.777344 131.15625 115.71875 L 131.6875 115.71875 C 134.75 115.71875 137.230469 113.238281 137.230469 110.175781 C 137.230469 107.117188 134.75 104.632812 131.6875 104.632812 L 73.878906 104.632812 C 70.820312 104.632812 68.335938 107.117188 68.335938 110.175781 C 68.335938 113.238281 70.820312 115.71875 73.878906 115.71875 L 74.414062 115.71875 C 48.328125 126.777344 30.03125 152.617188 30.03125 182.734375 C 30.03125 210.714844 45.828125 235 68.992188 247.171875 L 57.25 247.171875 C 54.191406 247.171875 51.707031 249.652344 51.707031 252.714844 C 51.707031 255.777344 54.191406 258.257812 57.25 258.257812 L 148.316406 258.257812 C 151.378906 258.257812 153.859375 255.777344 153.859375 252.714844 C 153.859375 249.652344 151.378906 247.171875 148.316406 247.171875 L 136.578125 247.171875 C 159.738281 235 175.539062 210.714844 175.539062 182.734375 Z M 175.539062 182.734375 " fill-opacity="1" fill-rule="nonzero"/></g></svg>