<svg xmlns="http://www.w3.org/2000/svg" xmlns:xlink="http://www.w3.org/1999/xlink" width="400" zoomAndPan="magnify" viewBox="0 0 300 299.999988" height="400" preserveAspectRatio="xMidYMid meet" version="1.0"><defs><clipPath id="12b4d3ab77"><path d="M 30 30.601562 L 270 30.601562 L 270 269.851562 L 30 269.851562 Z M 30 30.601562 " clip-rule="nonzero"/></clipPath></defs><g clip-path="url(#12b4d3ab77)"><path fill="currentColor" d="M 53.957031 136.316406 C 54.300781 135.714844 54.484375 135.03125 54.484375 134.335938 L 54.484375 78.953125 L 115.785156 129.4375 C 116.71875 130.207031 117.960938 130.507812 119.148438 130.257812 C 120.335938 130.007812 121.34375 129.226562 121.890625 128.140625 C 121.917969 128.082031 124.925781 122.367188 130.289062 122.367188 L 130.351562 122.367188 C 136.835938 122.367188 142.320312 131.5 142.320312 142.316406 C 142.320312 153.128906 136.835938 162.265625 130.351562 162.265625 L 130.289062 162.265625 C 128.085938 162.265625 126.300781 164.050781 126.300781 166.253906 L 126.300781 262.011719 L 110.398438 262.011719 C 110.394531 256.035156 110.382812 243.976562 110.339844 230.082031 C 110.324219 224.472656 108.332031 219.671875 104.421875 215.824219 C 94.464844 206.019531 75.199219 206.140625 74.433594 206.152344 L 67.566406 206.152344 C 61.878906 206.152344 56.941406 202.105469 55.828125 196.53125 L 50.414062 169.460938 C 50.207031 168.425781 49.597656 167.511719 48.714844 166.925781 L 39.847656 161.011719 Z M 63.742188 54.976562 C 79.476562 41.425781 108.617188 38.578125 130.289062 38.578125 C 154.09375 38.578125 172.421875 45.175781 184.765625 58.183594 C 203.40625 77.832031 202.15625 105.910156 202.140625 106.1875 C 202.136719 106.261719 202.132812 106.339844 202.132812 106.417969 L 202.15625 114.390625 C 201.234375 114.394531 200.332031 114.710938 199.609375 115.3125 C 198.703125 116.070312 198.175781 117.195312 198.175781 118.375 C 198.175781 119.917969 198.300781 121.375 198.421875 122.785156 C 198.644531 125.375 198.855469 127.824219 198.019531 128.738281 C 197.574219 129.222656 195.921875 130.347656 190.199219 130.347656 C 182.023438 130.347656 175.75 134.78125 172.527344 142.828125 C 171.449219 145.523438 170.882812 148.203125 170.582031 150.296875 L 170.25 150.296875 C 168.046875 150.296875 166.257812 152.082031 166.257812 154.285156 L 166.257812 182.617188 C 157.164062 184.46875 150.300781 192.53125 150.300781 202.164062 L 150.300781 258.019531 C 150.300781 259.417969 150.542969 260.761719 150.984375 262.011719 L 134.28125 262.011719 L 134.28125 169.726562 C 143.523438 167.238281 150.300781 156.089844 150.300781 142.316406 C 150.300781 126.65625 141.535156 114.386719 130.351562 114.386719 L 130.289062 114.386719 C 124.273438 114.386719 120.058594 117.703125 117.554688 120.554688 L 54.722656 68.8125 C 55.296875 66.097656 57.230469 60.585938 63.742188 54.976562 Z M 241.6875 150.296875 L 178.667969 150.296875 C 178.917969 148.929688 179.3125 147.351562 179.9375 145.792969 C 181.945312 140.769531 185.304688 138.324219 190.199219 138.324219 C 196.917969 138.324219 201.269531 136.992188 203.894531 134.136719 C 206.738281 131.039062 206.757812 127.128906 206.488281 123.496094 C 216.574219 126.226562 238.546875 133.980469 241.6875 150.296875 Z M 174.238281 158.273438 L 246.054688 158.273438 L 246.054688 166.253906 L 226.105469 166.253906 C 223.902344 166.253906 222.117188 168.042969 222.117188 170.246094 C 222.117188 172.449219 223.902344 174.234375 226.105469 174.234375 L 246.054688 174.234375 L 246.054688 182.214844 L 174.238281 182.214844 L 174.238281 174.234375 L 210.148438 174.234375 C 212.351562 174.234375 214.136719 172.449219 214.136719 170.246094 C 214.136719 168.042969 212.351562 166.253906 210.148438 166.253906 L 174.238281 166.253906 Z M 262.015625 202.164062 L 262.015625 258.019531 C 262.015625 260.21875 260.222656 262.011719 258.023438 262.011719 L 162.269531 262.011719 C 160.070312 262.011719 158.277344 260.21875 158.277344 258.019531 L 158.277344 202.164062 C 158.277344 195.5625 163.648438 190.195312 170.25 190.195312 L 250.046875 190.195312 C 256.644531 190.195312 262.015625 195.5625 262.015625 202.164062 Z M 32.320312 165.585938 L 42.914062 172.648438 L 48.003906 198.09375 C 49.863281 207.386719 58.089844 214.132812 67.566406 214.132812 L 74.480469 214.132812 C 79.125 214.089844 92.503906 215.289062 98.820312 221.507812 C 101.191406 223.84375 102.347656 226.65625 102.359375 230.105469 C 102.421875 249.820312 102.421875 265.839844 102.421875 266 C 102.421875 268.203125 104.207031 269.992188 106.410156 269.992188 L 258.023438 269.992188 C 264.625 269.992188 269.996094 264.621094 269.996094 258.019531 L 269.996094 202.164062 C 269.996094 192.53125 263.128906 184.46875 254.035156 182.617188 L 254.035156 154.285156 C 254.035156 152.082031 252.25 150.296875 250.046875 150.296875 L 249.769531 150.296875 C 248.226562 138.992188 240.054688 129.367188 225.894531 122.289062 C 220.144531 119.414062 214.4375 117.460938 210.140625 116.226562 L 210.113281 106.503906 C 210.230469 104.019531 211.152344 74.46875 190.617188 52.757812 C 176.707031 38.054688 156.410156 30.601562 130.289062 30.601562 C 47.457031 30.601562 46.503906 68.871094 46.503906 70.5 L 46.503906 133.277344 L 31.070312 160.285156 C 30.027344 162.105469 30.574219 164.421875 32.320312 165.585938 " fill-opacity="1" fill-rule="nonzero"/></g><path fill="currentColor" d="M 238.074219 238.070312 L 182.21875 238.070312 L 182.21875 214.132812 L 238.074219 214.132812 Z M 242.066406 206.152344 L 178.226562 206.152344 C 176.023438 206.152344 174.238281 207.941406 174.238281 210.144531 L 174.238281 242.0625 C 174.238281 244.265625 176.023438 246.050781 178.226562 246.050781 L 242.066406 246.050781 C 244.269531 246.050781 246.054688 244.265625 246.054688 242.0625 L 246.054688 210.144531 C 246.054688 207.941406 244.269531 206.152344 242.066406 206.152344 " fill-opacity="1" fill-rule="nonzero"/></svg>