<svg xmlns="http://www.w3.org/2000/svg" xmlns:xlink="http://www.w3.org/1999/xlink" width="400" zoomAndPan="magnify" viewBox="0 0 300 299.999988" height="400" preserveAspectRatio="xMidYMid meet" version="1.0"><defs><clipPath id="6663368bdd"><path d="M 101 230 L 117 230 L 117 262.5 L 101 262.5 Z M 101 230 " clip-rule="nonzero"/></clipPath></defs><path fill="currentColor" d="M 250.210938 160.730469 C 248.640625 159.257812 248.046875 157.066406 248.660156 155.007812 L 250.886719 147.515625 C 251.601562 145.113281 251.472656 142.511719 250.523438 140.191406 L 242.5625 120.773438 C 242 119.394531 240.417969 118.738281 239.042969 119.296875 C 237.664062 119.863281 237.003906 121.441406 237.566406 122.820312 L 245.527344 142.234375 C 246.015625 143.421875 246.082031 144.753906 245.714844 145.980469 L 243.488281 153.464844 C 242.285156 157.492188 243.445312 161.785156 246.515625 164.671875 L 259.84375 177.15625 C 262.632812 179.765625 260.742188 184.417969 256.96875 184.417969 L 252.40625 184.417969 C 250.609375 184.417969 249.304688 186.148438 249.820312 187.890625 L 251.03125 191.929688 C 251.628906 193.910156 250.285156 195.945312 248.25 196.195312 C 246.273438 196.433594 245.214844 198.679688 246.324219 200.355469 L 247.285156 201.820312 C 248.535156 203.71875 247.578125 206.3125 245.304688 206.886719 L 244.847656 207.003906 C 243.460938 207.355469 242.589844 208.730469 242.863281 210.132812 L 244.492188 218.5 C 245.667969 224.507812 241.074219 230.140625 234.902344 230.140625 L 205.59375 230.140625 C 204.402344 230.140625 203.351562 230.921875 203.007812 232.0625 L 196.476562 253.835938 C 196.050781 255.269531 196.859375 256.769531 198.285156 257.199219 C 199.707031 257.621094 201.214844 256.824219 201.648438 255.390625 L 207.597656 235.539062 L 234.902344 235.539062 C 238.957031 235.539062 242.765625 233.960938 245.632812 231.09375 C 249.203125 227.523438 250.757812 222.429688 249.792969 217.46875 L 248.601562 211.359375 C 252.601562 209.226562 254.304688 204.417969 252.539062 200.246094 C 255.785156 198.175781 257.335938 194.167969 256.203125 190.378906 L 256.03125 189.8125 L 256.96875 189.8125 C 265.589844 189.8125 269.914062 179.1875 263.535156 173.214844 Z M 250.210938 160.730469 " fill-opacity="1" fill-rule="nonzero"/><path fill="currentColor" d="M 187.308594 193.574219 L 177.996094 193.574219 C 175.933594 193.574219 174.097656 192.265625 173.429688 190.316406 L 166.050781 168.949219 C 164.800781 165.347656 168.019531 161.816406 171.699219 162.660156 L 182.835938 165.207031 C 184.273438 165.542969 185.734375 164.632812 186.066406 163.175781 C 186.398438 161.726562 185.492188 160.277344 184.035156 159.945312 L 172.90625 157.398438 C 165.121094 155.625 158.308594 163.078125 160.949219 170.714844 L 168.328125 192.078125 C 169.746094 196.203125 173.632812 198.972656 177.996094 198.972656 L 184.726562 198.972656 C 185.175781 212.707031 183.875 242.261719 173.160156 248.804688 C 170.832031 250.226562 171.863281 253.804688 174.570312 253.804688 C 175.046875 253.804688 175.53125 253.679688 175.972656 253.410156 C 192.203125 243.5 190.277344 200.9375 190.003906 196.121094 C 189.921875 194.691406 188.738281 193.574219 187.308594 193.574219 Z M 187.308594 193.574219 " fill-opacity="1" fill-rule="nonzero"/><g clip-path="url(#6663368bdd)"><path fill="currentColor" d="M 113.46875 230.46875 C 113.457031 230.46875 113.441406 230.46875 113.429688 230.46875 C 111.957031 230.46875 110.75 231.648438 110.730469 233.125 C 110.546875 245.15625 107.628906 253.519531 102.0625 257.980469 C 100.082031 259.5625 101.207031 262.785156 103.746094 262.785156 C 104.339844 262.785156 104.933594 262.589844 105.433594 262.191406 C 112.320312 256.675781 115.917969 246.925781 116.125 233.207031 C 116.148438 231.71875 114.960938 230.492188 113.46875 230.46875 Z M 113.46875 230.46875 " fill-opacity="1" fill-rule="nonzero"/></g><path fill="currentColor" d="M 233.167969 95.042969 C 227.527344 91.8125 218.292969 87.433594 206.308594 84.902344 C 204.851562 84.566406 203.417969 85.523438 203.113281 86.980469 C 202.804688 88.441406 203.734375 89.875 205.191406 90.179688 C 216.488281 92.570312 225.179688 96.6875 230.484375 99.722656 C 233.210938 101.285156 234.164062 104.832031 232.601562 107.625 C 231.878906 108.925781 232.34375 110.570312 233.644531 111.296875 C 234.929688 112.015625 236.582031 111.570312 237.316406 110.253906 C 240.308594 104.890625 238.449219 98.066406 233.167969 95.042969 Z M 233.167969 95.042969 " fill-opacity="1" fill-rule="nonzero"/><path fill="currentColor" d="M 137.730469 106.695312 C 138.839844 105.699219 138.933594 103.992188 137.941406 102.886719 C 136.941406 101.769531 135.234375 101.683594 134.132812 102.675781 C 121.730469 113.78125 107.199219 133.34375 108.359375 163.472656 C 108.414062 165.058594 109.839844 166.179688 111.160156 166.0625 C 112.644531 166.003906 113.808594 164.75 113.746094 163.261719 C 112.667969 135.230469 126.195312 117.027344 137.730469 106.695312 Z M 137.730469 106.695312 " fill-opacity="1" fill-rule="nonzero"/><path fill="currentColor" d="M 228.945312 115.746094 C 228.777344 114.261719 227.4375 113.175781 225.960938 113.375 C 224.480469 113.539062 223.417969 114.875 223.582031 116.351562 C 223.722656 117.644531 226.710938 148.128906 194.460938 160.046875 C 191.636719 161.089844 192.40625 165.273438 195.394531 165.273438 C 195.707031 165.273438 196.019531 165.222656 196.332031 165.105469 C 232.625 151.699219 228.988281 116.105469 228.945312 115.746094 Z M 228.945312 115.746094 " fill-opacity="1" fill-rule="nonzero"/><path fill="currentColor" d="M 232.832031 161.25 C 232.769531 161.300781 226.671875 165.925781 222.140625 163.296875 C 220.84375 162.539062 219.199219 162.976562 218.453125 164.265625 C 217.699219 165.550781 218.136719 167.207031 219.421875 167.957031 C 221.367188 169.089844 223.367188 169.519531 225.28125 169.519531 C 230.984375 169.519531 235.90625 165.703125 236.175781 165.488281 C 237.347656 164.566406 237.546875 162.867188 236.621094 161.699219 C 235.695312 160.53125 234 160.328125 232.832031 161.25 Z M 232.832031 161.25 " fill-opacity="1" fill-rule="nonzero"/><path fill="currentColor" d="M 136.574219 194.851562 C 132.488281 182.089844 118.792969 175.027344 106.015625 179.121094 C 93.222656 183.214844 86.175781 196.886719 90.28125 209.679688 C 94.371094 222.476562 108.046875 229.519531 120.84375 225.414062 C 133.605469 221.328125 140.664062 207.617188 136.574219 194.851562 Z M 119.199219 220.277344 C 109.253906 223.464844 98.597656 217.960938 95.417969 208.035156 C 92.230469 198.082031 97.703125 187.453125 107.660156 184.257812 C 117.605469 181.078125 128.257812 186.585938 131.4375 196.496094 C 134.617188 206.429688 129.125 217.09375 119.199219 220.277344 Z M 119.199219 220.277344 " fill-opacity="1" fill-rule="nonzero"/><path fill="currentColor" d="M 93.398438 223.667969 C 87.632812 225.511719 81.453125 222.328125 79.601562 216.566406 C 77.960938 211.449219 80.328125 205.777344 85.109375 203.375 C 86.4375 202.707031 86.976562 201.082031 86.304688 199.75 C 85.632812 198.417969 84.019531 197.878906 82.683594 198.554688 C 75.554688 202.136719 72.019531 210.589844 74.464844 218.210938 C 77.21875 226.804688 86.453125 231.570312 95.042969 228.804688 C 96.464844 228.351562 97.246094 226.835938 96.789062 225.414062 C 96.335938 223.996094 94.832031 223.207031 93.398438 223.667969 Z M 93.398438 223.667969 " fill-opacity="1" fill-rule="nonzero"/><path fill="currentColor" d="M 120.144531 192.097656 C 118.910156 192.933594 118.582031 194.609375 119.414062 195.847656 C 119.53125 196.019531 122.214844 200.089844 118.75 203.566406 C 117.0625 205.265625 118.273438 208.167969 120.664062 208.167969 C 121.355469 208.167969 122.046875 207.90625 122.574219 207.375 C 127.824219 202.105469 125.730469 195.550781 123.890625 192.824219 C 123.054688 191.589844 121.378906 191.273438 120.144531 192.097656 Z M 120.144531 192.097656 " fill-opacity="1" fill-rule="nonzero"/><path fill="currentColor" d="M 168.863281 88.542969 C 169.65625 87.28125 169.273438 85.617188 168.011719 84.820312 C 166.746094 84.035156 165.078125 84.410156 164.289062 85.675781 C 159.460938 93.382812 149.601562 96.738281 140.878906 93.035156 C 130.585938 88.667969 126.308594 76.390625 131.683594 66.542969 C 137.195312 56.3125 150.941406 53.445312 160.171875 60.941406 C 161.335938 61.875 163.027344 61.699219 163.96875 60.546875 C 164.90625 59.386719 164.726562 57.6875 163.574219 56.746094 C 160.222656 54.03125 156.160156 52.3125 151.933594 51.65625 C 150.917969 40.46875 139.46875 33.902344 129.46875 37.953125 C 117.667969 42.726562 115.597656 58.648438 125.851562 66.257812 C 120.714844 78.527344 126.378906 92.746094 138.773438 98.003906 C 149.914062 102.730469 162.597656 98.53125 168.863281 88.542969 Z M 131.492188 42.957031 C 138.007812 40.316406 145.339844 44.371094 146.484375 51.378906 C 139.351562 51.90625 132.847656 55.484375 128.558594 61.511719 C 122.179688 56.140625 123.882812 46.035156 131.492188 42.957031 Z M 131.492188 42.957031 " fill-opacity="1" fill-rule="nonzero"/><path fill="currentColor" d="M 155.113281 81.121094 C 154.953125 81.25 151.089844 84.222656 147.363281 81.03125 C 146.234375 80.0625 144.53125 80.195312 143.558594 81.320312 C 142.589844 82.453125 142.71875 84.15625 143.851562 85.125 C 148.46875 89.085938 154.523438 88.460938 158.460938 85.359375 C 159.628906 84.433594 159.832031 82.738281 158.90625 81.566406 C 157.980469 80.402344 156.292969 80.195312 155.113281 81.121094 Z M 155.113281 81.121094 " fill-opacity="1" fill-rule="nonzero"/><path fill="currentColor" d="M 184.1875 90.804688 C 195.058594 91.570312 204.828125 83.304688 205.566406 72.050781 C 206.292969 60.964844 197.910156 51.402344 186.816406 50.675781 C 175.890625 49.90625 166.171875 58.21875 165.4375 69.425781 C 164.710938 80.511719 173.089844 90.078125 184.1875 90.804688 Z M 186.464844 56.058594 C 194.578125 56.597656 200.710938 63.585938 200.179688 71.699219 C 199.648438 79.753906 192.75 85.929688 184.539062 85.421875 C 176.40625 84.882812 170.292969 77.875 170.820312 69.777344 C 171.347656 61.734375 178.304688 55.53125 186.464844 56.058594 Z M 186.464844 56.058594 " fill-opacity="1" fill-rule="nonzero"/><path fill="currentColor" d="M 209.757812 77.773438 C 208.304688 77.691406 206.984375 78.800781 206.890625 80.289062 C 206.789062 81.773438 207.914062 83.0625 209.40625 83.15625 C 216.835938 83.675781 223.484375 77.980469 223.988281 70.335938 C 224.636719 60.460938 214.890625 53.171875 205.59375 56.546875 C 204.195312 57.058594 203.46875 58.605469 203.980469 60.007812 C 204.492188 61.410156 206.027344 62.121094 207.441406 61.621094 C 213.160156 59.535156 218.988281 64.085938 218.605469 69.984375 C 218.296875 74.578125 214.273438 78.039062 209.757812 77.773438 Z M 209.757812 77.773438 " fill-opacity="1" fill-rule="nonzero"/><path fill="currentColor" d="M 191.136719 109.289062 C 168.574219 106.714844 147.113281 120.742188 140.449219 142.582031 C 140.015625 144.007812 140.816406 145.515625 142.242188 145.953125 C 143.726562 146.386719 145.191406 145.539062 145.613281 144.15625 C 151.5 124.851562 170.441406 112.398438 190.53125 114.652344 C 191.988281 114.816406 193.351562 113.753906 193.515625 112.273438 C 193.683594 110.792969 192.621094 109.457031 191.136719 109.289062 Z M 191.136719 109.289062 " fill-opacity="1" fill-rule="nonzero"/><path fill="currentColor" d="M 149.859375 180.496094 C 148.386719 180.726562 147.382812 182.109375 147.609375 183.582031 C 150.585938 202.550781 145.003906 222.660156 132.679688 237.378906 C 131.722656 238.519531 131.875 240.226562 133.015625 241.179688 C 134.164062 242.136719 135.859375 241.984375 136.820312 240.84375 C 150.128906 224.953125 156.15625 203.230469 152.941406 182.746094 C 152.707031 181.269531 151.300781 180.285156 149.859375 180.496094 Z M 149.859375 180.496094 " fill-opacity="1" fill-rule="nonzero"/><path fill="currentColor" d="M 53.425781 47.628906 C 52.277344 48.578125 52.113281 50.277344 53.058594 51.429688 L 57.636719 56.980469 C 58.171875 57.628906 58.945312 57.960938 59.722656 57.960938 C 61.996094 57.960938 63.25 55.308594 61.804688 53.546875 L 57.226562 47.992188 C 56.277344 46.84375 54.574219 46.679688 53.425781 47.628906 Z M 53.425781 47.628906 " fill-opacity="1" fill-rule="nonzero"/><path fill="currentColor" d="M 67.726562 69.207031 L 77.8125 81.429688 C 78.347656 82.078125 79.117188 82.410156 79.894531 82.410156 C 82.148438 82.410156 83.4375 79.765625 81.972656 77.992188 L 71.886719 65.769531 C 70.929688 64.617188 69.234375 64.460938 68.085938 65.40625 C 66.9375 66.355469 66.777344 68.058594 67.726562 69.207031 Z M 67.726562 69.207031 " fill-opacity="1" fill-rule="nonzero"/><path fill="currentColor" d="M 92.0625 90.222656 C 91.113281 89.074219 89.410156 88.90625 88.257812 89.855469 C 87.109375 90.804688 86.949219 92.503906 87.894531 93.65625 L 92.472656 99.210938 C 93.429688 100.367188 95.136719 100.511719 96.273438 99.574219 C 97.421875 98.625 97.585938 96.925781 96.640625 95.773438 Z M 92.0625 90.222656 " fill-opacity="1" fill-rule="nonzero"/><path fill="currentColor" d="M 76.53125 39.058594 C 77.511719 39.058594 78.457031 38.523438 78.933594 37.59375 C 79.617188 36.269531 79.09375 34.640625 77.765625 33.960938 L 71.367188 30.671875 C 70.042969 29.984375 68.417969 30.511719 67.734375 31.839844 C 67.054688 33.164062 67.578125 34.789062 68.902344 35.472656 C 75.398438 38.703125 75.40625 39.058594 76.53125 39.058594 Z M 76.53125 39.058594 " fill-opacity="1" fill-rule="nonzero"/><path fill="currentColor" d="M 99.152344 47.984375 C 99.832031 46.660156 99.308594 45.03125 97.984375 44.351562 L 87.875 39.152344 C 86.554688 38.464844 84.921875 38.996094 84.242188 40.320312 C 83.5625 41.644531 84.085938 43.273438 85.410156 43.953125 L 95.519531 49.148438 C 96.824219 49.824219 98.464844 49.324219 99.152344 47.984375 Z M 99.152344 47.984375 " fill-opacity="1" fill-rule="nonzero"/><path fill="currentColor" d="M 105.628906 54.34375 L 112.027344 57.632812 C 113.328125 58.308594 114.972656 57.804688 115.660156 56.464844 C 116.339844 55.140625 115.816406 53.515625 114.492188 52.832031 L 108.09375 49.542969 C 106.769531 48.855469 105.144531 49.386719 104.460938 50.710938 C 103.78125 52.035156 104.304688 53.660156 105.628906 54.34375 Z M 105.628906 54.34375 " fill-opacity="1" fill-rule="nonzero"/><path fill="currentColor" d="M 36.050781 64.285156 C 35.421875 62.925781 33.816406 62.332031 32.46875 62.957031 C 31.117188 63.585938 30.523438 65.1875 31.144531 66.539062 L 34.152344 73.074219 C 34.785156 74.445312 36.402344 75.015625 37.730469 74.398438 C 39.085938 73.773438 39.679688 72.171875 39.058594 70.820312 Z M 36.050781 64.285156 " fill-opacity="1" fill-rule="nonzero"/><path fill="currentColor" d="M 44.507812 82.65625 C 43.878906 81.300781 42.269531 80.707031 40.925781 81.332031 C 39.574219 81.957031 38.980469 83.558594 39.601562 84.914062 L 45.050781 96.75 C 45.683594 98.121094 47.300781 98.6875 48.632812 98.074219 C 49.984375 97.449219 50.578125 95.847656 49.957031 94.496094 Z M 44.507812 82.65625 " fill-opacity="1" fill-rule="nonzero"/><path fill="currentColor" d="M 66.304688 130.007812 C 65.679688 128.652344 64.066406 128.070312 62.726562 128.683594 C 61.367188 129.308594 60.777344 130.910156 61.402344 132.261719 L 66.851562 144.097656 C 67.464844 145.425781 69.039062 146.050781 70.429688 145.421875 C 71.789062 144.796875 72.378906 143.195312 71.753906 141.839844 Z M 66.304688 130.007812 " fill-opacity="1" fill-rule="nonzero"/><path fill="currentColor" d="M 55.40625 106.332031 C 54.777344 104.976562 53.167969 104.382812 51.824219 105.007812 C 50.472656 105.632812 49.878906 107.234375 50.5 108.589844 L 55.949219 120.425781 C 56.585938 121.796875 58.199219 122.363281 59.53125 121.75 C 60.882812 121.125 61.476562 119.523438 60.855469 118.167969 Z M 55.40625 106.332031 " fill-opacity="1" fill-rule="nonzero"/><path fill="currentColor" d="M 78.890625 163.796875 C 80.25 163.171875 80.839844 161.570312 80.214844 160.21875 L 77.207031 153.683594 C 76.578125 152.320312 74.96875 151.75 73.625 152.359375 C 72.269531 152.984375 71.679688 154.585938 72.300781 155.9375 L 75.3125 162.472656 C 75.925781 163.808594 77.507812 164.425781 78.890625 163.796875 Z M 78.890625 163.796875 " fill-opacity="1" fill-rule="nonzero"/></svg>