<svg xmlns="http://www.w3.org/2000/svg" xmlns:xlink="http://www.w3.org/1999/xlink" width="400" zoomAndPan="magnify" viewBox="0 0 300 299.999988" height="400" preserveAspectRatio="xMidYMid meet" version="1.0"><defs><clipPath id="bfe0919600"><path d="M 30 116 L 209 116 L 209 265.050781 L 30 265.050781 Z M 30 116 " clip-rule="nonzero"/></clipPath><clipPath id="ce8fd88f37"><path d="M 197 112 L 269 112 L 269 265.050781 L 197 265.050781 Z M 197 112 " clip-rule="nonzero"/></clipPath></defs><g clip-path="url(#bfe0919600)"><path fill="currentColor" d="M 84.042969 259.539062 C 85.367188 256.246094 87.894531 251.925781 92.40625 250.035156 C 92.496094 249.992188 92.585938 249.945312 92.667969 249.894531 L 179.066406 249.894531 L 179.078125 249.898438 C 183.789062 251.703125 186.414062 256.140625 187.78125 259.539062 C 188.121094 260.382812 188.574219 261.152344 189.144531 261.859375 C 189.714844 262.5625 190.378906 263.167969 191.128906 263.675781 C 191.882812 264.179688 192.695312 264.5625 193.5625 264.824219 C 194.429688 265.085938 195.316406 265.214844 196.226562 265.210938 L 201.488281 265.210938 C 201.808594 265.210938 202.117188 265.152344 202.414062 265.035156 C 202.710938 264.917969 202.976562 264.75 203.210938 264.53125 C 203.445312 264.3125 203.632812 264.058594 203.769531 263.769531 C 203.90625 263.480469 203.988281 263.175781 204.011719 262.859375 C 204.503906 255.800781 203.304688 248.34375 202.378906 243.878906 C 204.285156 242.742188 206.074219 241.445312 207.742188 239.984375 C 207.996094 239.761719 208.195312 239.5 208.34375 239.199219 C 208.492188 238.898438 208.574219 238.582031 208.597656 238.246094 C 208.621094 237.910156 208.578125 237.585938 208.46875 237.269531 C 208.359375 236.949219 208.195312 236.667969 207.972656 236.414062 C 207.753906 236.164062 207.492188 235.960938 207.191406 235.8125 C 206.890625 235.664062 206.574219 235.582031 206.238281 235.558594 C 205.902344 235.539062 205.578125 235.582031 205.261719 235.6875 C 204.941406 235.796875 204.65625 235.960938 204.40625 236.183594 C 193.953125 245.359375 179.765625 244.84375 179.628906 244.839844 C 179.589844 244.839844 179.550781 244.839844 179.507812 244.839844 L 92.316406 244.839844 C 92.277344 244.839844 92.234375 244.839844 92.195312 244.839844 C 86.714844 244.863281 81.441406 243.824219 76.382812 241.722656 C 65.535156 237.167969 58.925781 228.449219 56.738281 215.804688 C 54.890625 205.128906 51.246094 195.675781 45.886719 187.640625 L 204.632812 187.640625 C 204.972656 187.644531 205.296875 187.585938 205.613281 187.460938 C 205.929688 187.335938 206.207031 187.152344 206.449219 186.914062 C 206.691406 186.675781 206.878906 186.402344 207.007812 186.089844 C 207.140625 185.777344 207.203125 185.449219 207.203125 185.113281 C 207.203125 184.773438 207.140625 184.445312 207.007812 184.132812 C 206.878906 183.820312 206.691406 183.546875 206.449219 183.308594 C 206.207031 183.070312 205.929688 182.886719 205.613281 182.761719 C 205.296875 182.636719 204.972656 182.578125 204.632812 182.582031 L 39.308594 182.582031 C 38.839844 182.582031 38.394531 182.492188 37.960938 182.316406 C 37.53125 182.136719 37.152344 181.882812 36.820312 181.554688 C 36.492188 181.222656 36.238281 180.84375 36.058594 180.410156 C 35.882812 179.980469 35.792969 179.53125 35.792969 179.066406 C 35.792969 178.601562 35.882812 178.152344 36.058594 177.722656 C 36.238281 177.289062 36.492188 176.910156 36.820312 176.582031 C 37.152344 176.25 37.53125 175.996094 37.960938 175.816406 C 38.394531 175.640625 38.839844 175.550781 39.308594 175.550781 L 200.894531 175.550781 C 201.230469 175.550781 201.550781 175.484375 201.863281 175.359375 C 202.171875 175.230469 202.445312 175.046875 202.683594 174.808594 C 202.917969 174.574219 203.101562 174.300781 203.230469 173.988281 C 203.359375 173.679688 203.421875 173.355469 203.421875 173.019531 C 203.421875 172.6875 203.359375 172.363281 203.230469 172.054688 C 203.101562 171.742188 202.917969 171.46875 202.683594 171.234375 C 202.445312 170.996094 202.171875 170.8125 201.863281 170.683594 C 201.550781 170.554688 201.230469 170.492188 200.894531 170.492188 L 102.175781 170.492188 C 102.386719 170.25 102.585938 170.003906 102.777344 169.746094 C 105.585938 165.984375 110.042969 164.214844 116.035156 164.507812 C 116.351562 164.523438 116.65625 164.480469 116.953125 164.378906 C 117.25 164.28125 117.519531 164.132812 117.761719 163.933594 C 118.003906 163.734375 118.203125 163.496094 118.359375 163.222656 C 118.511719 162.953125 118.613281 162.660156 118.660156 162.347656 C 118.703125 162.082031 119.804688 155.796875 128.855469 154.925781 C 136.511719 154.183594 139.648438 159.511719 139.765625 159.71875 C 139.859375 159.882812 139.964844 160.035156 140.089844 160.175781 C 140.214844 160.3125 140.355469 160.4375 140.507812 160.546875 C 140.660156 160.65625 140.820312 160.746094 140.996094 160.820312 C 141.167969 160.894531 141.34375 160.945312 141.527344 160.980469 C 141.714844 161.015625 141.898438 161.027344 142.085938 161.019531 C 142.273438 161.011719 142.457031 160.984375 142.636719 160.9375 C 142.820312 160.890625 142.992188 160.824219 143.160156 160.738281 C 143.324219 160.652344 143.480469 160.550781 143.625 160.429688 C 143.824219 160.261719 148.609375 156.390625 158 158.53125 C 159.601562 159.066406 161.0625 159.867188 162.378906 160.929688 C 163.695312 161.992188 164.78125 163.25 165.644531 164.703125 C 165.8125 164.992188 166.027344 165.238281 166.292969 165.441406 C 166.5625 165.640625 166.855469 165.785156 167.179688 165.871094 C 167.5 165.957031 167.828125 165.976562 168.160156 165.933594 C 168.488281 165.890625 168.800781 165.785156 169.089844 165.617188 C 169.378906 165.449219 169.625 165.234375 169.828125 164.96875 C 170.03125 164.707031 170.179688 164.414062 170.265625 164.089844 C 170.351562 163.769531 170.375 163.441406 170.335938 163.109375 C 170.292969 162.777344 170.1875 162.46875 170.023438 162.175781 C 168.820312 160.117188 167.285156 158.351562 165.414062 156.871094 C 163.542969 155.394531 161.46875 154.304688 159.1875 153.613281 C 151.089844 151.75 145.492188 153.617188 142.601562 155.125 C 140.417969 152.6875 135.886719 149.167969 128.371094 149.890625 C 119.726562 150.722656 115.683594 155.675781 114.242188 159.425781 C 105.855469 159.589844 101.195312 163.410156 98.722656 166.722656 C 97.804688 167.921875 96.664062 168.855469 95.304688 169.515625 C 93.949219 170.179688 92.515625 170.503906 91.003906 170.492188 L 81.144531 170.492188 L 81.144531 164.3125 C 81.140625 163.15625 80.976562 162.019531 80.652344 160.902344 C 80.332031 159.789062 79.859375 158.742188 79.246094 157.761719 C 78.628906 156.777344 77.890625 155.898438 77.027344 155.125 C 76.164062 154.347656 75.214844 153.707031 74.171875 153.195312 C 73.867188 153.042969 73.550781 152.957031 73.210938 152.933594 C 72.875 152.910156 72.542969 152.953125 72.222656 153.058594 C 71.902344 153.167969 71.613281 153.335938 71.359375 153.558594 C 71.105469 153.785156 70.90625 154.046875 70.757812 154.351562 C 70.609375 154.65625 70.527344 154.980469 70.507812 155.316406 C 70.492188 155.65625 70.539062 155.984375 70.652344 156.304688 C 70.765625 156.621094 70.933594 156.90625 71.164062 157.15625 C 71.390625 157.410156 71.660156 157.605469 71.964844 157.75 C 72.585938 158.042969 73.148438 158.421875 73.660156 158.878906 C 74.171875 159.335938 74.609375 159.851562 74.976562 160.433594 C 75.339844 161.015625 75.617188 161.636719 75.804688 162.296875 C 75.992188 162.957031 76.085938 163.628906 76.082031 164.3125 L 76.082031 170.492188 L 66.59375 170.492188 L 66.59375 138.316406 C 66.59375 138.027344 66.621094 137.742188 66.679688 137.460938 C 66.734375 137.179688 66.816406 136.90625 66.925781 136.640625 C 67.035156 136.375 67.171875 136.121094 67.332031 135.882812 C 67.492188 135.644531 67.671875 135.421875 67.875 135.21875 C 68.078125 135.015625 68.300781 134.835938 68.539062 134.675781 C 68.777344 134.515625 69.03125 134.378906 69.296875 134.269531 C 69.5625 134.160156 69.835938 134.078125 70.117188 134.019531 C 70.398438 133.964844 70.683594 133.9375 70.96875 133.9375 C 71.257812 133.9375 71.542969 133.964844 71.824219 134.019531 C 72.105469 134.078125 72.378906 134.160156 72.644531 134.269531 C 72.910156 134.378906 73.164062 134.515625 73.402344 134.675781 C 73.640625 134.835938 73.863281 135.015625 74.066406 135.21875 C 74.269531 135.421875 74.449219 135.644531 74.609375 135.882812 C 74.769531 136.121094 74.90625 136.375 75.015625 136.640625 C 75.125 136.90625 75.207031 137.179688 75.261719 137.460938 C 75.320312 137.742188 75.347656 138.027344 75.347656 138.316406 C 75.347656 138.886719 75.402344 139.449219 75.515625 140.007812 C 75.625 140.566406 75.789062 141.109375 76.007812 141.636719 C 76.226562 142.164062 76.496094 142.664062 76.8125 143.136719 C 77.128906 143.609375 77.488281 144.046875 77.890625 144.449219 C 78.292969 144.855469 78.730469 145.214844 79.207031 145.53125 C 79.679688 145.847656 80.179688 146.113281 80.707031 146.332031 C 81.230469 146.550781 81.773438 146.714844 82.332031 146.828125 C 82.890625 146.941406 83.457031 146.996094 84.027344 146.996094 L 90.996094 146.996094 C 91.332031 146.996094 91.652344 146.933594 91.964844 146.804688 C 92.273438 146.675781 92.546875 146.492188 92.785156 146.253906 C 93.019531 146.019531 93.203125 145.746094 93.332031 145.433594 C 93.460938 145.125 93.523438 144.800781 93.523438 144.46875 L 93.523438 139.003906 C 93.519531 138.269531 93.480469 137.539062 93.40625 136.808594 C 93.328125 136.078125 93.21875 135.355469 93.070312 134.636719 C 92.925781 133.917969 92.742188 133.207031 92.527344 132.503906 C 92.308594 131.804688 92.058594 131.113281 91.777344 130.4375 C 91.492188 129.761719 91.175781 129.097656 90.828125 128.453125 C 90.480469 127.808594 90.101562 127.179688 89.691406 126.570312 C 89.28125 125.960938 88.839844 125.375 88.375 124.808594 C 87.90625 124.242188 87.414062 123.703125 86.890625 123.183594 C 86.371094 122.667969 85.828125 122.175781 85.257812 121.710938 C 84.691406 121.246094 84.101562 120.8125 83.488281 120.40625 C 82.878906 120 82.25 119.625 81.601562 119.277344 C 80.953125 118.933594 80.289062 118.621094 79.613281 118.34375 C 78.933594 118.0625 78.242188 117.816406 77.539062 117.605469 C 76.835938 117.390625 76.125 117.214844 75.40625 117.070312 C 74.6875 116.929688 73.960938 116.820312 73.230469 116.75 C 72.5 116.679688 71.769531 116.640625 71.035156 116.640625 C 70.300781 116.640625 69.566406 116.679688 68.835938 116.75 C 68.105469 116.820312 67.382812 116.929688 66.664062 117.070312 C 65.941406 117.214844 65.230469 117.390625 64.527344 117.605469 C 63.824219 117.816406 63.136719 118.0625 62.457031 118.34375 C 61.777344 118.621094 61.113281 118.933594 60.46875 119.277344 C 59.820312 119.625 59.191406 120 58.578125 120.40625 C 57.96875 120.8125 57.378906 121.246094 56.808594 121.710938 C 56.242188 122.175781 55.695312 122.667969 55.175781 123.183594 C 54.65625 123.703125 54.160156 124.242188 53.695312 124.808594 C 53.226562 125.375 52.789062 125.960938 52.378906 126.570312 C 51.96875 127.179688 51.589844 127.808594 51.242188 128.453125 C 50.890625 129.097656 50.574219 129.761719 50.292969 130.4375 C 50.007812 131.113281 49.757812 131.804688 49.542969 132.503906 C 49.324219 133.207031 49.144531 133.917969 48.996094 134.636719 C 48.851562 135.355469 48.738281 136.078125 48.664062 136.808594 C 48.589844 137.539062 48.546875 138.269531 48.542969 139.003906 L 48.542969 152.753906 C 47.367188 153.195312 46.28125 153.800781 45.289062 154.570312 C 44.292969 155.34375 43.4375 156.246094 42.722656 157.277344 C 42.003906 158.308594 41.457031 159.425781 41.078125 160.625 C 40.699219 161.824219 40.511719 163.054688 40.507812 164.3125 L 40.507812 170.488281 L 39.308594 170.488281 C 38.746094 170.488281 38.1875 170.542969 37.636719 170.652344 C 37.082031 170.765625 36.546875 170.925781 36.027344 171.140625 C 35.507812 171.355469 35.011719 171.621094 34.542969 171.933594 C 34.078125 172.246094 33.644531 172.601562 33.246094 173 C 32.847656 173.398438 32.492188 173.832031 32.179688 174.300781 C 31.867188 174.769531 31.601562 175.261719 31.386719 175.78125 C 31.171875 176.300781 31.007812 176.839844 30.898438 177.390625 C 30.789062 177.941406 30.734375 178.5 30.734375 179.0625 C 30.734375 179.625 30.789062 180.183594 30.898438 180.734375 C 31.007812 181.289062 31.171875 181.824219 31.386719 182.34375 C 31.601562 182.863281 31.867188 183.359375 32.179688 183.828125 C 32.492188 184.292969 32.847656 184.726562 33.246094 185.125 C 33.644531 185.523438 34.078125 185.878906 34.542969 186.191406 C 35.011719 186.503906 35.507812 186.769531 36.027344 186.984375 C 36.546875 187.199219 37.082031 187.363281 37.636719 187.472656 C 38.1875 187.582031 38.746094 187.636719 39.308594 187.636719 L 39.671875 187.636719 C 45.738281 195.648438 49.800781 205.414062 51.753906 216.671875 C 54.238281 231.015625 61.640625 239.175781 69.460938 243.816406 C 68.53125 248.273438 67.316406 255.769531 67.816406 262.859375 C 67.835938 263.179688 67.917969 263.484375 68.054688 263.773438 C 68.191406 264.0625 68.378906 264.316406 68.613281 264.535156 C 68.847656 264.753906 69.113281 264.921875 69.410156 265.039062 C 69.707031 265.15625 70.015625 265.214844 70.335938 265.214844 L 75.601562 265.214844 C 76.507812 265.21875 77.394531 265.089844 78.261719 264.828125 C 79.132812 264.566406 79.941406 264.179688 80.695312 263.675781 C 81.449219 263.167969 82.109375 262.5625 82.679688 261.859375 C 83.25 261.15625 83.703125 260.382812 84.042969 259.539062 Z M 71.035156 121.570312 C 71.605469 121.570312 72.175781 121.597656 72.742188 121.65625 C 73.308594 121.710938 73.875 121.796875 74.433594 121.90625 C 74.992188 122.019531 75.546875 122.160156 76.09375 122.324219 C 76.636719 122.492188 77.175781 122.683594 77.703125 122.902344 C 78.230469 123.121094 78.746094 123.363281 79.246094 123.632812 C 79.75 123.902344 80.238281 124.195312 80.714844 124.511719 C 81.1875 124.832031 81.648438 125.171875 82.089844 125.53125 C 82.527344 125.894531 82.953125 126.277344 83.355469 126.679688 C 83.757812 127.085938 84.140625 127.507812 84.503906 127.949219 C 84.867188 128.390625 85.207031 128.847656 85.523438 129.320312 C 85.839844 129.796875 86.132812 130.285156 86.402344 130.789062 C 86.671875 131.292969 86.914062 131.804688 87.132812 132.332031 C 87.351562 132.859375 87.546875 133.398438 87.710938 133.945312 C 87.878906 134.488281 88.015625 135.042969 88.128906 135.601562 C 88.238281 136.160156 88.324219 136.726562 88.378906 137.292969 C 88.4375 137.863281 88.464844 138.429688 88.464844 139 L 88.464844 141.933594 L 84.027344 141.933594 C 83.546875 141.933594 83.085938 141.839844 82.640625 141.65625 C 82.195312 141.472656 81.804688 141.210938 81.464844 140.871094 C 81.125 140.53125 80.863281 140.140625 80.679688 139.695312 C 80.496094 139.253906 80.402344 138.792969 80.402344 138.3125 C 80.402344 137.691406 80.34375 137.078125 80.222656 136.46875 C 80.101562 135.863281 79.921875 135.273438 79.6875 134.699219 C 79.449219 134.128906 79.160156 133.582031 78.816406 133.066406 C 78.472656 132.554688 78.082031 132.074219 77.640625 131.636719 C 77.203125 131.199219 76.726562 130.808594 76.210938 130.464844 C 75.699219 130.121094 75.152344 129.828125 74.582031 129.59375 C 74.007812 129.355469 73.417969 129.175781 72.8125 129.054688 C 72.203125 128.933594 71.589844 128.875 70.96875 128.875 C 70.351562 128.875 69.738281 128.933594 69.128906 129.054688 C 68.523438 129.175781 67.933594 129.355469 67.359375 129.59375 C 66.789062 129.828125 66.242188 130.121094 65.730469 130.464844 C 65.214844 130.808594 64.738281 131.199219 64.300781 131.636719 C 63.859375 132.074219 63.46875 132.554688 63.125 133.066406 C 62.78125 133.582031 62.492188 134.128906 62.253906 134.699219 C 62.019531 135.273438 61.839844 135.863281 61.71875 136.46875 C 61.597656 137.078125 61.539062 137.691406 61.539062 138.3125 L 61.539062 154.367188 C 60.484375 153.585938 59.332031 152.992188 58.085938 152.582031 C 56.839844 152.167969 55.558594 151.964844 54.246094 151.964844 L 53.601562 151.964844 L 53.601562 139 C 53.601562 138.429688 53.632812 137.863281 53.6875 137.292969 C 53.746094 136.726562 53.828125 136.160156 53.941406 135.601562 C 54.050781 135.042969 54.191406 134.488281 54.355469 133.945312 C 54.523438 133.398438 54.714844 132.859375 54.933594 132.332031 C 55.152344 131.804688 55.398438 131.292969 55.667969 130.789062 C 55.9375 130.285156 56.230469 129.796875 56.546875 129.320312 C 56.863281 128.847656 57.203125 128.390625 57.566406 127.949219 C 57.925781 127.507812 58.308594 127.085938 58.714844 126.679688 C 59.117188 126.277344 59.539062 125.894531 59.980469 125.53125 C 60.421875 125.171875 60.878906 124.832031 61.355469 124.511719 C 61.828125 124.195312 62.316406 123.902344 62.820312 123.632812 C 63.324219 123.363281 63.839844 123.121094 64.367188 122.902344 C 64.894531 122.683594 65.429688 122.492188 65.976562 122.324219 C 66.523438 122.160156 67.074219 122.019531 67.636719 121.90625 C 68.195312 121.796875 68.757812 121.710938 69.328125 121.65625 C 69.894531 121.597656 70.464844 121.570312 71.035156 121.570312 Z M 45.566406 164.3125 C 45.566406 163.835938 45.613281 163.363281 45.707031 162.890625 C 45.800781 162.421875 45.941406 161.96875 46.125 161.523438 C 46.308594 161.082031 46.53125 160.664062 46.796875 160.265625 C 47.066406 159.867188 47.367188 159.5 47.707031 159.160156 C 48.042969 158.820312 48.410156 158.519531 48.808594 158.253906 C 49.207031 157.988281 49.628906 157.761719 50.070312 157.578125 C 50.511719 157.394531 50.96875 157.257812 51.4375 157.164062 C 51.90625 157.070312 52.378906 157.023438 52.859375 157.023438 L 54.246094 157.023438 C 54.726562 157.023438 55.199219 157.070312 55.667969 157.164062 C 56.136719 157.257812 56.59375 157.394531 57.035156 157.578125 C 57.476562 157.761719 57.898438 157.988281 58.296875 158.253906 C 58.691406 158.519531 59.0625 158.820312 59.398438 159.160156 C 59.738281 159.5 60.039062 159.867188 60.304688 160.265625 C 60.574219 160.664062 60.796875 161.082031 60.980469 161.523438 C 61.164062 161.96875 61.300781 162.421875 61.394531 162.890625 C 61.488281 163.363281 61.539062 163.835938 61.539062 164.3125 L 61.539062 170.492188 L 45.566406 170.492188 Z M 199.0625 260.152344 L 196.226562 260.152344 C 195.824219 260.15625 195.429688 260.101562 195.042969 259.984375 C 194.660156 259.871094 194.300781 259.703125 193.964844 259.480469 C 193.628906 259.257812 193.335938 258.988281 193.082031 258.679688 C 192.828125 258.367188 192.625 258.023438 192.472656 257.652344 C 191.257812 254.515625 189.480469 251.734375 187.152344 249.308594 C 190.792969 248.722656 194.304688 247.707031 197.695312 246.265625 C 198.609375 250.847656 199.066406 255.480469 199.0625 260.152344 Z M 75.601562 260.152344 L 72.761719 260.152344 C 72.757812 255.453125 73.21875 250.796875 74.140625 246.1875 C 77.546875 247.628906 81.070312 248.652344 84.714844 249.257812 C 82.363281 251.695312 80.574219 254.492188 79.351562 257.652344 C 79.199219 258.023438 78.996094 258.367188 78.742188 258.675781 C 78.488281 258.988281 78.195312 259.257812 77.859375 259.480469 C 77.527344 259.703125 77.164062 259.871094 76.78125 259.984375 C 76.394531 260.101562 76.003906 260.15625 75.601562 260.152344 Z M 75.601562 260.152344 " fill-opacity="1" fill-rule="nonzero"/></g><g clip-path="url(#ce8fd88f37)"><path fill="currentColor" d="M 267.445312 153.328125 C 266.027344 143.726562 263.273438 134.519531 259.1875 125.714844 C 259.058594 125.453125 258.890625 125.222656 258.679688 125.019531 C 258.472656 124.816406 258.234375 124.652344 257.96875 124.53125 C 257.707031 124.410156 257.429688 124.339844 257.140625 124.3125 C 256.851562 124.289062 256.5625 124.3125 256.28125 124.386719 C 256 124.457031 255.738281 124.578125 255.5 124.738281 C 255.257812 124.902344 255.050781 125.101562 254.878906 125.335938 C 254.707031 125.570312 254.578125 125.828125 254.496094 126.105469 C 254.414062 126.382812 254.378906 126.667969 254.394531 126.960938 C 255.230469 143.242188 252.636719 155.792969 249.039062 165.144531 C 246.550781 146.449219 236.238281 134.988281 235.734375 134.433594 C 235.59375 134.285156 235.441406 134.15625 235.273438 134.042969 C 235.105469 133.929688 234.925781 133.835938 234.734375 133.769531 C 234.542969 133.699219 234.347656 133.652344 234.144531 133.628906 C 233.945312 133.609375 233.742188 133.609375 233.539062 133.636719 C 233.339844 133.664062 233.144531 133.714844 232.953125 133.785156 C 232.765625 133.859375 232.585938 133.953125 232.421875 134.070312 C 232.253906 134.1875 232.105469 134.320312 231.96875 134.472656 C 231.835938 134.625 231.722656 134.792969 231.628906 134.972656 C 228.667969 140.636719 226.722656 147.972656 225.816406 156.84375 C 223.9375 154.121094 221.90625 151.523438 219.714844 149.046875 C 207.5625 135.371094 207.191406 114.855469 207.191406 114.652344 C 207.1875 114.367188 207.136719 114.089844 207.042969 113.820312 C 206.945312 113.550781 206.804688 113.308594 206.625 113.085938 C 206.445312 112.863281 206.234375 112.675781 205.992188 112.527344 C 205.75 112.375 205.488281 112.269531 205.210938 112.207031 C 204.929688 112.148438 204.648438 112.132812 204.367188 112.164062 C 204.082031 112.199219 203.8125 112.277344 203.554688 112.402344 C 203.296875 112.527344 203.070312 112.691406 202.867188 112.894531 C 202.667969 113.097656 202.503906 113.328125 202.382812 113.585938 C 190.792969 137.796875 204.21875 159.242188 205.339844 160.960938 C 215.296875 178.476562 216.414062 188.144531 216.375 191.78125 L 209.539062 191.78125 C 209.171875 191.78125 208.824219 191.859375 208.492188 192.007812 C 208.15625 192.160156 207.871094 192.375 207.632812 192.652344 C 207.390625 192.925781 207.21875 193.242188 207.113281 193.589844 C 207.011719 193.941406 206.984375 194.300781 207.035156 194.660156 L 215.625 256.070312 C 215.714844 256.695312 215.859375 257.3125 216.058594 257.914062 C 216.261719 258.515625 216.511719 259.09375 216.816406 259.652344 C 217.117188 260.207031 217.46875 260.734375 217.867188 261.226562 C 218.265625 261.722656 218.703125 262.179688 219.179688 262.59375 C 219.660156 263.011719 220.171875 263.382812 220.714844 263.707031 C 221.257812 264.03125 221.828125 264.304688 222.421875 264.527344 C 223.015625 264.75 223.625 264.921875 224.25 265.035156 C 224.871094 265.148438 225.5 265.207031 226.136719 265.210938 L 247.886719 265.210938 C 248.519531 265.207031 249.148438 265.148438 249.773438 265.035156 C 250.398438 264.921875 251.003906 264.75 251.597656 264.527344 C 252.191406 264.304688 252.761719 264.03125 253.308594 263.707031 C 253.851562 263.382812 254.363281 263.011719 254.839844 262.59375 C 255.320312 262.179688 255.757812 261.722656 256.15625 261.226562 C 256.550781 260.734375 256.902344 260.207031 257.207031 259.652344 C 257.511719 259.09375 257.761719 258.515625 257.960938 257.914062 C 258.160156 257.3125 258.308594 256.695312 258.398438 256.070312 L 266.988281 194.664062 C 267.039062 194.300781 267.011719 193.945312 266.90625 193.59375 C 266.800781 193.242188 266.628906 192.929688 266.390625 192.652344 C 266.148438 192.378906 265.863281 192.164062 265.53125 192.011719 C 265.199219 191.859375 264.847656 191.785156 264.480469 191.785156 L 256.582031 191.785156 C 265.996094 183.183594 269.742188 170.0625 267.445312 153.328125 Z M 209.695312 158.386719 C 209.667969 158.335938 209.636719 158.285156 209.605469 158.242188 C 209.492188 158.074219 200.246094 143.796875 203.539062 126.160156 C 205.144531 133.886719 208.578125 144.132812 215.9375 152.410156 C 221.839844 159.050781 227.175781 167.660156 231.789062 177.992188 C 231.925781 178.296875 232.117188 178.566406 232.359375 178.796875 C 232.605469 179.027344 232.882812 179.203125 233.195312 179.324219 C 233.507812 179.441406 233.832031 179.496094 234.167969 179.488281 C 234.503906 179.480469 234.824219 179.40625 235.128906 179.269531 C 235.4375 179.132812 235.707031 178.941406 235.9375 178.699219 C 236.167969 178.457031 236.34375 178.175781 236.460938 177.863281 C 236.582031 177.550781 236.636719 177.226562 236.628906 176.890625 C 236.617188 176.554688 236.546875 176.234375 236.410156 175.929688 C 234.597656 171.855469 232.582031 167.890625 230.363281 164.027344 C 230.371094 163.949219 230.390625 163.875 230.394531 163.792969 C 230.769531 154.632812 232.125 147 234.433594 141.035156 C 236.117188 143.488281 237.597656 146.050781 238.878906 148.730469 C 240.164062 151.410156 241.230469 154.175781 242.085938 157.019531 C 242.941406 159.863281 243.570312 162.757812 243.976562 165.703125 C 244.382812 168.644531 244.558594 171.601562 244.507812 174.574219 C 244.507812 174.601562 244.515625 174.628906 244.515625 174.660156 C 243.8125 175.875 243.109375 177 242.414062 178.035156 C 236.761719 186.460938 230.816406 190.660156 229.066406 191.785156 L 221.441406 191.785156 C 221.503906 186.8125 219.910156 176.339844 209.695312 158.386719 Z M 253.390625 255.367188 C 253.292969 256.03125 253.085938 256.65625 252.765625 257.242188 C 252.445312 257.832031 252.035156 258.34375 251.527344 258.785156 C 251.023438 259.222656 250.457031 259.558594 249.832031 259.796875 C 249.203125 260.03125 248.558594 260.148438 247.886719 260.152344 L 226.136719 260.152344 C 225.464844 260.152344 224.816406 260.03125 224.191406 259.796875 C 223.566406 259.558594 223 259.222656 222.496094 258.785156 C 221.988281 258.34375 221.578125 257.832031 221.257812 257.242188 C 220.9375 256.65625 220.730469 256.03125 220.632812 255.367188 L 212.445312 196.84375 L 261.574219 196.84375 Z M 237.265625 191.78125 C 240.742188 188.59375 243.792969 185.042969 246.425781 181.128906 C 251.917969 173.027344 258.078125 159.847656 259.363281 140.480469 C 263.910156 155.527344 267.554688 180.175781 248.128906 191.78125 Z M 237.265625 191.78125 " fill-opacity="1" fill-rule="nonzero"/></g><path fill="currentColor" d="M 136.132812 134.6875 C 136.132812 135.355469 136.195312 136.015625 136.328125 136.671875 C 136.457031 137.324219 136.648438 137.960938 136.90625 138.574219 C 137.160156 139.191406 137.472656 139.777344 137.84375 140.332031 C 138.214844 140.886719 138.632812 141.398438 139.105469 141.871094 C 139.578125 142.339844 140.089844 142.761719 140.644531 143.132812 C 141.199219 143.503906 141.785156 143.816406 142.398438 144.070312 C 143.015625 144.328125 143.652344 144.519531 144.304688 144.648438 C 144.960938 144.777344 145.621094 144.84375 146.285156 144.84375 C 146.953125 144.84375 147.613281 144.777344 148.265625 144.648438 C 148.921875 144.519531 149.554688 144.328125 150.171875 144.070312 C 150.789062 143.816406 151.375 143.503906 151.929688 143.132812 C 152.480469 142.761719 152.996094 142.339844 153.464844 141.871094 C 153.9375 141.398438 154.359375 140.886719 154.730469 140.332031 C 155.101562 139.777344 155.414062 139.191406 155.667969 138.574219 C 155.921875 137.960938 156.117188 137.324219 156.246094 136.671875 C 156.375 136.015625 156.441406 135.355469 156.441406 134.6875 C 156.441406 134.023438 156.375 133.363281 156.246094 132.707031 C 156.117188 132.054688 155.921875 131.417969 155.667969 130.804688 C 155.414062 130.1875 155.101562 129.601562 154.730469 129.046875 C 154.359375 128.492188 153.9375 127.980469 153.464844 127.507812 C 152.996094 127.039062 152.480469 126.617188 151.929688 126.246094 C 151.375 125.875 150.789062 125.5625 150.171875 125.308594 C 149.554688 125.050781 148.921875 124.859375 148.265625 124.730469 C 147.613281 124.601562 146.953125 124.535156 146.285156 124.535156 C 145.621094 124.535156 144.960938 124.601562 144.304688 124.730469 C 143.652344 124.863281 143.019531 125.054688 142.402344 125.3125 C 141.785156 125.566406 141.203125 125.878906 140.648438 126.25 C 140.09375 126.621094 139.582031 127.042969 139.109375 127.511719 C 138.636719 127.984375 138.21875 128.496094 137.847656 129.050781 C 137.476562 129.605469 137.164062 130.191406 136.90625 130.804688 C 136.652344 131.421875 136.460938 132.054688 136.328125 132.710938 C 136.199219 133.363281 136.132812 134.023438 136.132812 134.6875 Z M 151.382812 134.6875 C 151.382812 135.023438 151.351562 135.355469 151.285156 135.683594 C 151.222656 136.011719 151.125 136.332031 150.996094 136.640625 C 150.867188 136.949219 150.710938 137.242188 150.527344 137.523438 C 150.339844 137.800781 150.128906 138.058594 149.890625 138.292969 C 149.65625 138.53125 149.398438 138.742188 149.121094 138.929688 C 148.839844 139.113281 148.546875 139.269531 148.238281 139.398438 C 147.929688 139.527344 147.609375 139.625 147.28125 139.691406 C 146.953125 139.753906 146.621094 139.789062 146.289062 139.789062 C 145.953125 139.789062 145.621094 139.753906 145.292969 139.691406 C 144.964844 139.625 144.644531 139.527344 144.335938 139.398438 C 144.027344 139.273438 143.734375 139.113281 143.457031 138.929688 C 143.175781 138.742188 142.917969 138.53125 142.683594 138.292969 C 142.445312 138.058594 142.234375 137.800781 142.050781 137.523438 C 141.863281 137.242188 141.707031 136.949219 141.578125 136.640625 C 141.449219 136.332031 141.351562 136.011719 141.289062 135.683594 C 141.222656 135.355469 141.191406 135.023438 141.191406 134.691406 C 141.191406 134.355469 141.222656 134.023438 141.289062 133.695312 C 141.351562 133.367188 141.449219 133.050781 141.578125 132.738281 C 141.707031 132.429688 141.863281 132.136719 142.046875 131.859375 C 142.234375 131.578125 142.445312 131.324219 142.683594 131.085938 C 142.917969 130.847656 143.175781 130.636719 143.453125 130.453125 C 143.734375 130.265625 144.027344 130.109375 144.335938 129.980469 C 144.644531 129.851562 144.964844 129.757812 145.292969 129.691406 C 145.621094 129.625 145.953125 129.59375 146.285156 129.59375 C 146.621094 129.59375 146.953125 129.625 147.28125 129.691406 C 147.609375 129.757812 147.925781 129.855469 148.234375 129.984375 C 148.546875 130.109375 148.839844 130.269531 149.117188 130.453125 C 149.394531 130.640625 149.652344 130.851562 149.890625 131.085938 C 150.125 131.324219 150.335938 131.582031 150.523438 131.859375 C 150.707031 132.136719 150.867188 132.429688 150.992188 132.738281 C 151.121094 133.050781 151.21875 133.367188 151.285156 133.695312 C 151.351562 134.023438 151.382812 134.355469 151.382812 134.6875 Z M 151.382812 134.6875 " fill-opacity="1" fill-rule="nonzero"/><path fill="currentColor" d="M 210.21875 92.796875 L 210.21875 86.742188 C 210.21875 86.40625 210.152344 86.085938 210.023438 85.773438 C 209.898438 85.464844 209.714844 85.191406 209.476562 84.953125 C 209.238281 84.71875 208.964844 84.535156 208.65625 84.40625 C 208.347656 84.277344 208.023438 84.214844 207.6875 84.214844 L 192.289062 84.214844 L 192.289062 64.949219 C 192.285156 64.332031 192.234375 63.722656 192.128906 63.117188 C 192.027344 62.507812 191.875 61.914062 191.671875 61.332031 C 191.46875 60.75 191.21875 60.191406 190.921875 59.652344 C 190.625 59.113281 190.285156 58.601562 189.902344 58.117188 C 189.519531 57.636719 189.101562 57.1875 188.640625 56.777344 C 188.183594 56.363281 187.695312 55.992188 187.175781 55.660156 C 186.65625 55.332031 186.113281 55.046875 185.546875 54.804688 C 184.980469 54.566406 184.394531 54.375 183.796875 54.234375 L 183.796875 49.023438 C 184.917969 49.269531 185.933594 49.738281 186.847656 50.429688 C 187.113281 50.632812 187.410156 50.777344 187.734375 50.863281 C 188.058594 50.949219 188.386719 50.972656 188.71875 50.925781 C 189.050781 50.882812 189.359375 50.777344 189.652344 50.609375 C 189.941406 50.4375 190.1875 50.222656 190.390625 49.957031 C 190.59375 49.6875 190.738281 49.394531 190.824219 49.070312 C 190.914062 48.746094 190.933594 48.417969 190.886719 48.085938 C 190.84375 47.753906 190.738281 47.441406 190.570312 47.152344 C 190.402344 46.863281 190.183594 46.613281 189.917969 46.410156 C 188.796875 45.558594 187.570312 44.90625 186.238281 44.457031 C 184.90625 44.003906 183.535156 43.777344 182.128906 43.777344 L 175.953125 43.777344 C 175.617188 43.777344 175.296875 43.839844 174.984375 43.96875 C 174.675781 44.097656 174.402344 44.28125 174.164062 44.515625 C 173.929688 44.753906 173.746094 45.027344 173.617188 45.335938 C 173.488281 45.648438 173.425781 45.96875 173.425781 46.304688 C 173.425781 46.640625 173.488281 46.964844 173.617188 47.273438 C 173.746094 47.582031 173.929688 47.855469 174.164062 48.09375 C 174.402344 48.332031 174.675781 48.511719 174.984375 48.640625 C 175.296875 48.769531 175.617188 48.835938 175.953125 48.835938 L 178.742188 48.835938 L 178.742188 54.234375 C 178.140625 54.375 177.558594 54.566406 176.992188 54.804688 C 176.421875 55.046875 175.878906 55.332031 175.359375 55.660156 C 174.839844 55.992188 174.351562 56.363281 173.894531 56.777344 C 173.4375 57.1875 173.019531 57.636719 172.636719 58.117188 C 172.253906 58.601562 171.914062 59.113281 171.617188 59.652344 C 171.320312 60.191406 171.070312 60.75 170.867188 61.332031 C 170.664062 61.914062 170.511719 62.507812 170.40625 63.117188 C 170.304688 63.722656 170.25 64.332031 170.25 64.949219 L 170.25 84.214844 L 166.640625 84.214844 L 165.609375 58.109375 C 165.574219 57.175781 165.421875 56.261719 165.152344 55.367188 C 164.886719 54.476562 164.507812 53.628906 164.019531 52.832031 C 163.535156 52.035156 162.957031 51.3125 162.285156 50.664062 C 161.613281 50.015625 160.871094 49.460938 160.058594 49 L 160.058594 43.464844 C 160.058594 42.925781 160.003906 42.386719 159.898438 41.855469 C 159.796875 41.324219 159.640625 40.808594 159.433594 40.304688 C 159.222656 39.804688 158.96875 39.328125 158.667969 38.878906 C 158.367188 38.425781 158.027344 38.011719 157.644531 37.625 C 157.261719 37.242188 156.84375 36.902344 156.394531 36.601562 C 155.941406 36.296875 155.464844 36.042969 154.964844 35.835938 C 154.464844 35.628906 153.949219 35.472656 153.417969 35.367188 C 152.886719 35.261719 152.347656 35.207031 151.804688 35.207031 C 151.265625 35.207031 150.726562 35.261719 150.195312 35.367188 C 149.664062 35.472656 149.148438 35.628906 148.648438 35.835938 C 148.144531 36.042969 147.671875 36.296875 147.21875 36.601562 C 146.769531 36.902344 146.351562 37.242188 145.96875 37.625 C 145.585938 38.011719 145.242188 38.425781 144.941406 38.878906 C 144.640625 39.328125 144.386719 39.804688 144.179688 40.304688 C 143.972656 40.808594 143.816406 41.324219 143.710938 41.855469 C 143.605469 42.386719 143.554688 42.925781 143.554688 43.464844 L 143.554688 49 C 142.742188 49.460938 142 50.015625 141.328125 50.664062 C 140.65625 51.3125 140.078125 52.035156 139.589844 52.832031 C 139.105469 53.628906 138.726562 54.476562 138.457031 55.367188 C 138.1875 56.261719 138.039062 57.175781 138.003906 58.109375 L 136.972656 84.214844 L 120.730469 84.214844 C 120.394531 84.214844 120.070312 84.277344 119.761719 84.40625 C 119.453125 84.535156 119.179688 84.71875 118.941406 84.953125 C 118.703125 85.191406 118.519531 85.464844 118.390625 85.773438 C 118.265625 86.085938 118.199219 86.40625 118.199219 86.742188 L 118.199219 92.796875 C 118.199219 93.417969 118.261719 94.035156 118.382812 94.640625 C 118.503906 95.25 118.683594 95.839844 118.921875 96.414062 C 119.160156 96.988281 119.453125 97.53125 119.796875 98.046875 C 120.140625 98.5625 120.53125 99.039062 120.972656 99.476562 C 121.410156 99.917969 121.886719 100.308594 122.402344 100.652344 C 122.917969 101 123.464844 101.289062 124.035156 101.527344 C 124.609375 101.765625 125.199219 101.945312 125.808594 102.066406 C 126.417969 102.1875 127.03125 102.25 127.652344 102.25 L 200.769531 102.25 C 201.390625 102.25 202.003906 102.1875 202.613281 102.066406 C 203.222656 101.945312 203.8125 101.765625 204.382812 101.527344 C 204.957031 101.289062 205.5 100.996094 206.015625 100.652344 C 206.53125 100.308594 207.007812 99.914062 207.449219 99.476562 C 207.886719 99.039062 208.277344 98.5625 208.621094 98.046875 C 208.964844 97.53125 209.257812 96.984375 209.496094 96.414062 C 209.734375 95.839844 209.914062 95.25 210.035156 94.640625 C 210.15625 94.03125 210.214844 93.417969 210.21875 92.796875 Z M 175.304688 64.949219 C 175.300781 64.554688 175.335938 64.164062 175.410156 63.777344 C 175.480469 63.390625 175.59375 63.011719 175.742188 62.648438 C 175.886719 62.28125 176.070312 61.933594 176.289062 61.605469 C 176.503906 61.277344 176.75 60.972656 177.027344 60.691406 C 177.304688 60.410156 177.609375 60.160156 177.933594 59.941406 C 178.261719 59.71875 178.605469 59.535156 178.972656 59.382812 C 179.335938 59.230469 179.710938 59.113281 180.097656 59.039062 C 180.484375 58.960938 180.875 58.921875 181.269531 58.921875 C 181.664062 58.921875 182.050781 58.960938 182.4375 59.039062 C 182.824219 59.113281 183.199219 59.230469 183.566406 59.382812 C 183.929688 59.535156 184.273438 59.71875 184.601562 59.941406 C 184.929688 60.160156 185.230469 60.410156 185.507812 60.691406 C 185.785156 60.972656 186.03125 61.277344 186.25 61.605469 C 186.464844 61.933594 186.648438 62.28125 186.796875 62.648438 C 186.941406 63.011719 187.054688 63.390625 187.125 63.777344 C 187.199219 64.164062 187.234375 64.554688 187.230469 64.949219 L 187.230469 84.214844 L 175.304688 84.214844 Z M 148.613281 43.464844 C 148.59375 43.03125 148.664062 42.609375 148.816406 42.203125 C 148.96875 41.792969 149.199219 41.433594 149.5 41.121094 C 149.800781 40.804688 150.152344 40.5625 150.550781 40.390625 C 150.953125 40.21875 151.371094 40.132812 151.804688 40.132812 C 152.242188 40.132812 152.660156 40.21875 153.0625 40.390625 C 153.460938 40.5625 153.8125 40.804688 154.113281 41.121094 C 154.414062 41.433594 154.644531 41.792969 154.796875 42.203125 C 154.949219 42.609375 155.019531 43.03125 155 43.464844 L 155 47.597656 C 154.882812 47.597656 154.773438 47.578125 154.65625 47.578125 L 148.957031 47.578125 C 148.839844 47.578125 148.726562 47.59375 148.613281 47.597656 Z M 143.054688 58.308594 C 143.105469 57.070312 143.503906 55.953125 144.257812 54.96875 C 147.609375 51.402344 156.492188 51.257812 159.355469 54.96875 C 160.109375 55.953125 160.507812 57.070312 160.554688 58.308594 L 161.578125 84.214844 L 142.035156 84.214844 Z M 123.257812 92.796875 L 123.257812 89.273438 L 205.160156 89.273438 L 205.160156 92.800781 C 205.160156 93.089844 205.132812 93.375 205.074219 93.65625 C 205.019531 93.941406 204.933594 94.214844 204.824219 94.480469 C 204.714844 94.746094 204.578125 95 204.417969 95.238281 C 204.257812 95.476562 204.074219 95.699219 203.871094 95.902344 C 203.667969 96.105469 203.445312 96.289062 203.207031 96.449219 C 202.96875 96.609375 202.714844 96.746094 202.449219 96.855469 C 202.183594 96.964844 201.910156 97.050781 201.625 97.105469 C 201.34375 97.164062 201.058594 97.191406 200.769531 97.191406 L 127.652344 97.191406 C 127.363281 97.191406 127.078125 97.164062 126.796875 97.105469 C 126.511719 97.050781 126.238281 96.964844 125.972656 96.855469 C 125.703125 96.746094 125.453125 96.609375 125.210938 96.449219 C 124.972656 96.289062 124.75 96.105469 124.546875 95.902344 C 124.34375 95.699219 124.160156 95.476562 124 95.238281 C 123.839844 95 123.703125 94.746094 123.59375 94.480469 C 123.484375 94.210938 123.398438 93.9375 123.34375 93.65625 C 123.285156 93.371094 123.257812 93.085938 123.257812 92.796875 Z M 123.257812 92.796875 " fill-opacity="1" fill-rule="nonzero"/></svg>