<svg xmlns="http://www.w3.org/2000/svg" xmlns:xlink="http://www.w3.org/1999/xlink" width="400" zoomAndPan="magnify" viewBox="0 0 300 299.999988" height="400" preserveAspectRatio="xMidYMid meet" version="1.0"><defs><clipPath id="29ca29eb84"><path d="M 229 176 L 268.5 176 L 268.5 216 L 229 216 Z M 229 176 " clip-rule="nonzero"/></clipPath></defs><g clip-path="url(#29ca29eb84)"><path fill="currentColor" d="M 252.003906 179.1875 C 251.96875 178.828125 251.875 178.488281 251.714844 178.167969 C 251.554688 177.84375 251.34375 177.5625 251.078125 177.320312 C 250.8125 177.078125 250.511719 176.894531 250.175781 176.761719 C 249.84375 176.632812 249.496094 176.566406 249.136719 176.566406 C 248.777344 176.566406 248.429688 176.632812 248.09375 176.761719 C 247.761719 176.894531 247.460938 177.078125 247.195312 177.320312 C 246.929688 177.5625 246.71875 177.84375 246.558594 178.167969 C 246.398438 178.488281 246.300781 178.828125 246.269531 179.1875 C 246.1875 180.089844 246.027344 180.980469 245.792969 181.855469 C 245.554688 182.734375 245.242188 183.582031 244.859375 184.40625 C 244.472656 185.226562 244.019531 186.011719 243.5 186.753906 C 242.976562 187.496094 242.394531 188.191406 241.753906 188.832031 C 241.109375 189.472656 240.417969 190.054688 239.675781 190.578125 C 238.933594 191.097656 238.148438 191.550781 237.328125 191.9375 C 236.503906 192.324219 235.65625 192.632812 234.777344 192.871094 C 233.902344 193.109375 233.011719 193.269531 232.105469 193.351562 C 231.75 193.382812 231.410156 193.476562 231.089844 193.636719 C 230.765625 193.796875 230.484375 194.007812 230.242188 194.273438 C 230 194.539062 229.8125 194.839844 229.683594 195.175781 C 229.554688 195.507812 229.488281 195.855469 229.488281 196.214844 C 229.488281 196.574219 229.554688 196.921875 229.683594 197.257812 C 229.8125 197.589844 230 197.890625 230.242188 198.15625 C 230.484375 198.421875 230.765625 198.632812 231.089844 198.792969 C 231.410156 198.953125 231.75 199.050781 232.105469 199.082031 C 233.011719 199.164062 233.902344 199.324219 234.777344 199.558594 C 235.65625 199.796875 236.503906 200.109375 237.328125 200.492188 C 238.148438 200.878906 238.933594 201.332031 239.675781 201.851562 C 240.417969 202.375 241.109375 202.957031 241.753906 203.597656 C 242.394531 204.242188 242.976562 204.933594 243.5 205.675781 C 244.019531 206.421875 244.472656 207.203125 244.859375 208.023438 C 245.242188 208.847656 245.554688 209.695312 245.792969 210.574219 C 246.027344 211.449219 246.1875 212.339844 246.269531 213.246094 C 246.300781 213.601562 246.398438 213.941406 246.558594 214.265625 C 246.71875 214.585938 246.929688 214.867188 247.195312 215.109375 C 247.460938 215.351562 247.761719 215.539062 248.09375 215.667969 C 248.429688 215.796875 248.777344 215.863281 249.136719 215.863281 C 249.496094 215.863281 249.84375 215.796875 250.175781 215.667969 C 250.511719 215.539062 250.8125 215.351562 251.078125 215.109375 C 251.34375 214.867188 251.554688 214.585938 251.714844 214.265625 C 251.875 213.941406 251.96875 213.601562 252.003906 213.246094 C 252.085938 212.339844 252.242188 211.449219 252.480469 210.574219 C 252.71875 209.695312 253.027344 208.847656 253.414062 208.027344 C 253.800781 207.203125 254.253906 206.421875 254.773438 205.675781 C 255.296875 204.933594 255.875 204.242188 256.519531 203.597656 C 257.160156 202.957031 257.855469 202.375 258.597656 201.855469 C 259.339844 201.332031 260.125 200.878906 260.945312 200.492188 C 261.769531 200.109375 262.617188 199.796875 263.492188 199.5625 C 264.371094 199.324219 265.261719 199.164062 266.164062 199.082031 C 266.523438 199.050781 266.863281 198.953125 267.183594 198.792969 C 267.503906 198.632812 267.789062 198.421875 268.03125 198.15625 C 268.273438 197.890625 268.457031 197.59375 268.589844 197.257812 C 268.71875 196.921875 268.78125 196.574219 268.78125 196.214844 C 268.78125 195.855469 268.71875 195.511719 268.589844 195.175781 C 268.457031 194.839844 268.273438 194.539062 268.03125 194.273438 C 267.789062 194.011719 267.503906 193.796875 267.183594 193.636719 C 266.863281 193.480469 266.523438 193.382812 266.164062 193.351562 C 265.261719 193.269531 264.371094 193.109375 263.492188 192.871094 C 262.617188 192.632812 261.769531 192.324219 260.945312 191.9375 C 260.121094 191.554688 259.339844 191.097656 258.597656 190.578125 C 257.851562 190.058594 257.160156 189.476562 256.519531 188.832031 C 255.875 188.191406 255.292969 187.496094 254.773438 186.753906 C 254.253906 186.011719 253.800781 185.226562 253.414062 184.40625 C 253.027344 183.582031 252.71875 182.734375 252.480469 181.859375 C 252.242188 180.980469 252.085938 180.089844 252.003906 179.1875 Z M 249.136719 203.804688 C 247.257812 200.621094 244.730469 198.089844 241.546875 196.214844 C 244.730469 194.339844 247.257812 191.808594 249.136719 188.625 C 251.011719 191.808594 253.542969 194.339844 256.726562 196.214844 C 253.542969 198.089844 251.011719 200.621094 249.136719 203.804688 Z M 249.136719 203.804688 " fill-opacity="1" fill-rule="nonzero"/></g><path fill="currentColor" d="M 51.503906 240.515625 C 51.472656 240.15625 51.375 239.820312 51.214844 239.496094 C 51.054688 239.175781 50.84375 238.894531 50.578125 238.652344 C 50.3125 238.410156 50.011719 238.222656 49.679688 238.09375 C 49.34375 237.960938 48.996094 237.898438 48.636719 237.898438 C 48.277344 237.898438 47.929688 237.960938 47.597656 238.09375 C 47.261719 238.222656 46.960938 238.410156 46.695312 238.652344 C 46.429688 238.894531 46.21875 239.175781 46.058594 239.496094 C 45.898438 239.820312 45.804688 240.15625 45.769531 240.515625 C 45.710938 241.191406 45.589844 241.855469 45.414062 242.507812 C 45.238281 243.164062 45.003906 243.796875 44.71875 244.410156 C 44.429688 245.023438 44.09375 245.605469 43.703125 246.160156 C 43.316406 246.714844 42.878906 247.230469 42.402344 247.710938 C 41.921875 248.191406 41.40625 248.625 40.851562 249.011719 C 40.296875 249.402344 39.714844 249.738281 39.101562 250.027344 C 38.484375 250.316406 37.851562 250.546875 37.199219 250.722656 C 36.542969 250.902344 35.878906 251.019531 35.207031 251.082031 C 34.847656 251.113281 34.507812 251.210938 34.1875 251.367188 C 33.867188 251.527344 33.582031 251.742188 33.339844 252.003906 C 33.097656 252.269531 32.914062 252.570312 32.78125 252.90625 C 32.652344 253.242188 32.589844 253.585938 32.589844 253.945312 C 32.589844 254.304688 32.652344 254.652344 32.78125 254.988281 C 32.914062 255.324219 33.097656 255.621094 33.339844 255.886719 C 33.582031 256.152344 33.867188 256.363281 34.1875 256.523438 C 34.507812 256.683594 34.847656 256.78125 35.207031 256.8125 C 35.878906 256.875 36.542969 256.992188 37.199219 257.167969 C 37.851562 257.347656 38.484375 257.578125 39.101562 257.867188 C 39.714844 258.152344 40.296875 258.492188 40.851562 258.878906 C 41.40625 259.269531 41.921875 259.703125 42.402344 260.183594 C 42.878906 260.660156 43.316406 261.175781 43.703125 261.730469 C 44.09375 262.285156 44.429688 262.871094 44.71875 263.484375 C 45.003906 264.097656 45.238281 264.730469 45.414062 265.386719 C 45.589844 266.039062 45.710938 266.703125 45.769531 267.378906 C 45.804688 267.734375 45.898438 268.074219 46.058594 268.398438 C 46.21875 268.71875 46.429688 269 46.695312 269.242188 C 46.960938 269.484375 47.261719 269.671875 47.597656 269.800781 C 47.929688 269.929688 48.277344 269.996094 48.636719 269.996094 C 48.996094 269.996094 49.34375 269.929688 49.679688 269.800781 C 50.011719 269.671875 50.3125 269.484375 50.578125 269.242188 C 50.84375 269 51.054688 268.71875 51.214844 268.398438 C 51.375 268.074219 51.472656 267.734375 51.503906 267.378906 C 51.566406 266.703125 51.683594 266.039062 51.859375 265.386719 C 52.039062 264.730469 52.269531 264.097656 52.558594 263.484375 C 52.84375 262.871094 53.183594 262.285156 53.570312 261.730469 C 53.960938 261.175781 54.394531 260.660156 54.871094 260.183594 C 55.351562 259.703125 55.867188 259.269531 56.421875 258.878906 C 56.976562 258.492188 57.5625 258.152344 58.175781 257.867188 C 58.789062 257.578125 59.421875 257.347656 60.074219 257.167969 C 60.730469 256.992188 61.394531 256.875 62.070312 256.8125 C 62.425781 256.78125 62.765625 256.683594 63.085938 256.523438 C 63.410156 256.363281 63.691406 256.152344 63.933594 255.886719 C 64.175781 255.621094 64.363281 255.324219 64.492188 254.988281 C 64.621094 254.652344 64.6875 254.304688 64.6875 253.945312 C 64.6875 253.585938 64.621094 253.242188 64.492188 252.90625 C 64.363281 252.570312 64.175781 252.269531 63.933594 252.003906 C 63.691406 251.742188 63.410156 251.527344 63.085938 251.367188 C 62.765625 251.210938 62.425781 251.113281 62.070312 251.082031 C 61.394531 251.019531 60.730469 250.898438 60.074219 250.722656 C 59.421875 250.546875 58.789062 250.316406 58.175781 250.027344 C 57.5625 249.738281 56.976562 249.402344 56.421875 249.011719 C 55.867188 248.625 55.351562 248.191406 54.871094 247.710938 C 54.394531 247.230469 53.960938 246.714844 53.570312 246.160156 C 53.183594 245.605469 52.84375 245.023438 52.558594 244.410156 C 52.269531 243.796875 52.039062 243.164062 51.859375 242.507812 C 51.683594 241.855469 51.566406 241.191406 51.503906 240.515625 Z M 48.636719 258.75 C 47.351562 256.832031 45.753906 255.230469 43.835938 253.945312 C 45.75 252.664062 47.351562 251.0625 48.636719 249.144531 C 49.917969 251.0625 51.519531 252.664062 53.4375 253.945312 C 51.519531 255.230469 49.917969 256.832031 48.636719 258.75 Z M 48.636719 258.75 " fill-opacity="1" fill-rule="nonzero"/><path fill="currentColor" d="M 32.1875 128.164062 L 73.664062 139.535156 L 73.664062 173.3125 C 73.3125 173.324219 72.980469 173.398438 72.65625 173.53125 C 72.335938 173.667969 72.046875 173.855469 71.792969 174.09375 C 71.539062 174.335938 71.335938 174.613281 71.183594 174.925781 C 71.03125 175.238281 70.941406 175.570312 70.90625 175.917969 C 70.800781 177.101562 70.589844 178.269531 70.28125 179.417969 C 69.96875 180.566406 69.5625 181.679688 69.058594 182.757812 C 68.550781 183.835938 67.957031 184.859375 67.277344 185.835938 C 66.59375 186.808594 65.828125 187.714844 64.988281 188.558594 C 64.148438 189.398438 63.238281 190.160156 62.265625 190.84375 C 61.292969 191.527344 60.265625 192.121094 59.1875 192.625 C 58.109375 193.132812 56.996094 193.539062 55.847656 193.847656 C 54.699219 194.160156 53.53125 194.371094 52.347656 194.476562 C 51.992188 194.507812 51.652344 194.605469 51.328125 194.765625 C 51.007812 194.925781 50.726562 195.136719 50.484375 195.402344 C 50.242188 195.667969 50.054688 195.96875 49.925781 196.300781 C 49.796875 196.636719 49.730469 196.984375 49.730469 197.34375 C 49.730469 197.703125 49.796875 198.050781 49.925781 198.382812 C 50.054688 198.71875 50.242188 199.019531 50.484375 199.285156 C 50.726562 199.550781 51.007812 199.761719 51.328125 199.921875 C 51.652344 200.082031 51.992188 200.175781 52.347656 200.207031 C 53.535156 200.316406 54.699219 200.527344 55.847656 200.835938 C 56.996094 201.148438 58.109375 201.554688 59.1875 202.058594 C 60.265625 202.5625 61.292969 203.15625 62.265625 203.839844 C 63.238281 204.523438 64.148438 205.289062 64.988281 206.128906 C 65.832031 206.96875 66.59375 207.878906 67.277344 208.851562 C 67.960938 209.828125 68.554688 210.851562 69.058594 211.929688 C 69.5625 213.007812 69.96875 214.121094 70.28125 215.269531 C 70.589844 216.417969 70.800781 217.585938 70.90625 218.769531 C 70.941406 219.117188 71.03125 219.449219 71.183594 219.761719 C 71.335938 220.074219 71.539062 220.351562 71.792969 220.59375 C 72.046875 220.832031 72.335938 221.019531 72.65625 221.15625 C 72.980469 221.289062 73.3125 221.363281 73.664062 221.375 L 73.664062 263.101562 C 73.667969 263.496094 73.746094 263.875 73.894531 264.242188 C 74.046875 264.605469 74.257812 264.929688 74.53125 265.214844 C 74.804688 265.5 75.121094 265.722656 75.484375 265.886719 C 75.84375 266.046875 76.21875 266.140625 76.613281 266.15625 L 221.320312 266.15625 C 221.714844 266.140625 222.089844 266.046875 222.449219 265.882812 C 222.808594 265.722656 223.125 265.5 223.398438 265.214844 C 223.671875 264.929688 223.886719 264.605469 224.035156 264.238281 C 224.183594 263.875 224.261719 263.496094 224.265625 263.101562 L 224.265625 139.421875 L 265.738281 128.167969 C 266.574219 127.9375 267.179688 127.433594 267.554688 126.648438 C 267.933594 125.859375 267.949219 125.066406 267.605469 124.265625 L 249.226562 81.03125 C 250.765625 79.746094 252.460938 78.71875 254.316406 77.953125 C 256.167969 77.183594 258.09375 76.710938 260.089844 76.53125 C 260.449219 76.496094 260.789062 76.402344 261.109375 76.242188 C 261.433594 76.082031 261.714844 75.871094 261.957031 75.605469 C 262.199219 75.339844 262.382812 75.039062 262.515625 74.703125 C 262.644531 74.371094 262.710938 74.023438 262.710938 73.664062 C 262.710938 73.304688 262.644531 72.957031 262.515625 72.621094 C 262.382812 72.289062 262.199219 71.988281 261.957031 71.722656 C 261.714844 71.457031 261.433594 71.246094 261.109375 71.085938 C 260.789062 70.925781 260.449219 70.832031 260.089844 70.796875 C 258.949219 70.695312 257.820312 70.492188 256.714844 70.191406 C 255.605469 69.894531 254.53125 69.5 253.492188 69.011719 C 252.453125 68.527344 251.460938 67.953125 250.523438 67.292969 C 249.582031 66.632812 248.707031 65.898438 247.894531 65.085938 C 247.082031 64.273438 246.347656 63.398438 245.6875 62.457031 C 245.03125 61.519531 244.457031 60.527344 243.96875 59.488281 C 243.484375 58.449219 243.089844 57.375 242.789062 56.265625 C 242.492188 55.160156 242.289062 54.03125 242.183594 52.890625 C 242.152344 52.53125 242.058594 52.191406 241.898438 51.871094 C 241.738281 51.546875 241.523438 51.265625 241.261719 51.023438 C 240.996094 50.78125 240.695312 50.597656 240.359375 50.464844 C 240.023438 50.335938 239.679688 50.269531 239.320312 50.269531 C 238.960938 50.269531 238.613281 50.335938 238.277344 50.464844 C 237.945312 50.597656 237.644531 50.78125 237.378906 51.023438 C 237.113281 51.265625 236.902344 51.546875 236.742188 51.871094 C 236.582031 52.191406 236.484375 52.53125 236.453125 52.890625 C 236.296875 54.605469 235.921875 56.273438 235.332031 57.894531 C 232.488281 54.707031 229.386719 51.792969 226.027344 49.15625 C 222.667969 46.515625 219.105469 44.195312 215.332031 42.1875 C 211.5625 40.183594 207.644531 38.523438 203.578125 37.210938 C 199.515625 35.902344 195.367188 34.957031 191.132812 34.378906 C 190.734375 33.519531 190.210938 32.742188 189.5625 32.046875 C 188.914062 31.351562 188.175781 30.777344 187.339844 30.320312 C 186.507812 29.863281 185.625 29.546875 184.691406 29.371094 C 183.757812 29.195312 182.820312 29.171875 181.878906 29.296875 C 180.9375 29.421875 180.039062 29.691406 179.183594 30.105469 C 178.328125 30.519531 177.558594 31.054688 176.875 31.714844 C 176.191406 32.375 175.628906 33.125 175.183594 33.964844 C 174.742188 34.804688 174.4375 35.695312 174.28125 36.628906 C 173.84375 39.410156 172.996094 42.058594 171.746094 44.582031 C 170.492188 47.101562 168.890625 49.375 166.941406 51.402344 L 166.90625 51.441406 C 166.363281 52.027344 165.789062 52.585938 165.191406 53.117188 C 164.59375 53.648438 163.96875 54.148438 163.320312 54.617188 C 162.671875 55.085938 162 55.523438 161.308594 55.925781 C 160.617188 56.328125 159.910156 56.699219 159.183594 57.03125 C 158.453125 57.367188 157.710938 57.664062 156.957031 57.925781 C 156.199219 58.1875 155.429688 58.410156 154.652344 58.597656 C 153.875 58.785156 153.089844 58.929688 152.292969 59.039062 C 151.5 59.148438 150.707031 59.21875 149.90625 59.25 C 149.105469 59.28125 148.304688 59.273438 147.507812 59.222656 C 146.707031 59.175781 145.914062 59.089844 145.121094 58.964844 C 144.332031 58.839844 143.546875 58.675781 142.773438 58.472656 C 142 58.269531 141.238281 58.03125 140.484375 57.753906 C 139.734375 57.476562 139 57.164062 138.277344 56.8125 C 137.558594 56.464844 136.855469 56.078125 136.175781 55.660156 C 135.492188 55.242188 134.832031 54.792969 134.191406 54.308594 C 133.554688 53.824219 132.941406 53.3125 132.351562 52.769531 C 131.894531 52.34375 131.445312 51.898438 131.023438 51.441406 L 130.988281 51.40625 C 129.035156 49.371094 127.433594 47.09375 126.179688 44.566406 C 124.925781 42.042969 124.082031 39.386719 123.644531 36.601562 C 123.5625 36.089844 123.433594 35.585938 123.257812 35.097656 C 123.085938 34.609375 122.867188 34.136719 122.613281 33.683594 C 122.355469 33.234375 122.058594 32.808594 121.726562 32.40625 C 121.394531 32.007812 121.03125 31.640625 120.636719 31.304688 C 120.238281 30.96875 119.816406 30.671875 119.367188 30.410156 C 118.914062 30.148438 118.445312 29.929688 117.957031 29.753906 C 117.46875 29.574219 116.96875 29.441406 116.457031 29.351562 C 115.945312 29.261719 115.429688 29.21875 114.910156 29.21875 C 114.894531 29.21875 114.882812 29.21875 114.867188 29.21875 C 114.019531 29.21875 113.183594 29.335938 112.371094 29.574219 C 111.554688 29.8125 110.789062 30.160156 110.074219 30.621094 C 109.359375 31.078125 108.722656 31.625 108.164062 32.269531 C 107.605469 32.910156 107.148438 33.617188 106.796875 34.386719 C 103.71875 34.800781 100.683594 35.410156 97.6875 36.214844 C 94.6875 37.023438 91.757812 38.019531 88.890625 39.203125 C 86.019531 40.390625 83.242188 41.753906 80.550781 43.300781 C 77.859375 44.847656 75.277344 46.558594 72.808594 48.441406 C 70.339844 50.320312 68.003906 52.351562 65.796875 54.535156 C 63.589844 56.714844 61.535156 59.03125 59.628906 61.480469 C 57.722656 63.929688 55.980469 66.492188 54.40625 69.167969 C 52.832031 71.839844 51.4375 74.605469 50.21875 77.460938 L 30.335938 124.261719 C 29.988281 125.0625 30.003906 125.855469 30.375 126.640625 C 30.746094 127.425781 31.351562 127.933594 32.1875 128.164062 Z M 73.773438 208.480469 C 72.53125 206.097656 70.957031 203.960938 69.058594 202.058594 C 67.160156 200.160156 65.019531 198.589844 62.636719 197.34375 C 65.019531 196.101562 67.160156 194.527344 69.058594 192.628906 C 70.957031 190.730469 72.53125 188.589844 73.773438 186.207031 C 75.019531 188.589844 76.589844 190.730469 78.488281 192.628906 C 80.386719 194.527344 82.527344 196.101562 84.910156 197.34375 C 82.527344 198.589844 80.386719 200.160156 78.488281 202.058594 C 76.589844 203.960938 75.019531 206.097656 73.773438 208.480469 Z M 239.320312 63.058594 C 240.515625 65.316406 242.019531 67.347656 243.824219 69.152344 C 245.632812 70.960938 247.664062 72.460938 249.917969 73.660156 C 247.664062 74.859375 245.632812 76.359375 243.824219 78.167969 C 242.019531 79.972656 240.515625 82.003906 239.320312 84.261719 C 238.121094 82.003906 236.621094 79.972656 234.8125 78.167969 C 233.007812 76.359375 230.976562 74.859375 228.71875 73.660156 C 230.976562 72.460938 233.007812 70.960938 234.8125 69.152344 C 236.617188 67.347656 238.121094 65.316406 239.320312 63.058594 Z M 112.648438 35.890625 C 113.261719 35.277344 114 34.972656 114.867188 34.976562 L 114.890625 34.976562 C 115.257812 34.96875 115.613281 35.027344 115.960938 35.148438 C 116.308594 35.269531 116.621094 35.449219 116.90625 35.683594 C 117.1875 35.917969 117.417969 36.195312 117.601562 36.511719 C 117.785156 36.832031 117.90625 37.171875 117.96875 37.535156 C 118.496094 40.890625 119.515625 44.089844 121.023438 47.128906 C 122.535156 50.171875 124.464844 52.917969 126.820312 55.371094 C 127.335938 55.925781 127.882812 56.472656 128.441406 56.992188 C 129.167969 57.664062 129.925781 58.296875 130.714844 58.894531 C 131.5 59.488281 132.316406 60.046875 133.160156 60.5625 C 134.003906 61.078125 134.867188 61.554688 135.757812 61.984375 C 136.648438 62.417969 137.554688 62.804688 138.484375 63.148438 C 139.410156 63.488281 140.351562 63.785156 141.308594 64.035156 C 142.265625 64.285156 143.230469 64.488281 144.207031 64.644531 C 145.183594 64.800781 146.164062 64.90625 147.152344 64.964844 C 148.136719 65.027344 149.125 65.035156 150.113281 65 C 151.101562 64.960938 152.085938 64.875 153.0625 64.742188 C 154.042969 64.609375 155.011719 64.425781 155.976562 64.195312 C 156.9375 63.96875 157.882812 63.691406 158.820312 63.371094 C 159.753906 63.046875 160.671875 62.679688 161.570312 62.269531 C 162.46875 61.855469 163.34375 61.402344 164.199219 60.902344 C 165.050781 60.40625 165.878906 59.867188 166.679688 59.289062 C 167.480469 58.710938 168.253906 58.09375 168.992188 57.4375 C 169.734375 56.78125 170.441406 56.09375 171.113281 55.371094 C 173.460938 52.925781 175.390625 50.183594 176.902344 47.144531 C 178.410156 44.109375 179.429688 40.914062 179.960938 37.566406 C 180.019531 37.203125 180.144531 36.859375 180.324219 36.539062 C 180.507812 36.21875 180.742188 35.9375 181.023438 35.703125 C 181.304688 35.464844 181.621094 35.285156 181.96875 35.160156 C 182.316406 35.035156 182.671875 34.972656 183.042969 34.976562 L 183.058594 34.976562 C 183.226562 34.96875 183.386719 34.980469 183.550781 35.011719 C 183.960938 35.078125 184.34375 35.21875 184.699219 35.433594 C 185.054688 35.648438 185.351562 35.925781 185.597656 36.257812 C 185.84375 36.59375 186.015625 36.964844 186.113281 37.367188 C 186.214844 37.769531 186.230469 38.175781 186.167969 38.585938 C 185.8125 40.824219 185.269531 43.019531 184.535156 45.164062 C 183.804688 47.308594 182.894531 49.375 181.808594 51.367188 C 180.722656 53.355469 179.476562 55.238281 178.066406 57.011719 C 176.65625 58.789062 175.105469 60.433594 173.417969 61.941406 C 172.585938 62.691406 171.722656 63.398438 170.828125 64.066406 C 169.933594 64.734375 169.011719 65.359375 168.058594 65.941406 C 167.105469 66.527344 166.128906 67.0625 165.128906 67.558594 C 164.125 68.050781 163.101562 68.5 162.0625 68.898438 C 161.019531 69.300781 159.960938 69.652344 158.882812 69.953125 C 157.808594 70.257812 156.722656 70.511719 155.625 70.714844 C 154.527344 70.917969 153.421875 71.070312 152.308594 71.171875 C 151.199219 71.273438 150.082031 71.324219 148.964844 71.324219 C 147.847656 71.324219 146.734375 71.273438 145.621094 71.171875 C 144.511719 71.070312 143.40625 70.917969 142.308594 70.714844 C 141.210938 70.511719 140.121094 70.257812 139.046875 69.953125 C 137.972656 69.652344 136.914062 69.300781 135.871094 68.898438 C 134.828125 68.5 133.804688 68.050781 132.804688 67.558594 C 131.804688 67.0625 130.824219 66.527344 129.875 65.941406 C 128.921875 65.359375 127.996094 64.734375 127.101562 64.066406 C 126.207031 63.398438 125.34375 62.691406 124.515625 61.941406 C 122.824219 60.433594 121.277344 58.789062 119.867188 57.015625 C 118.457031 55.242188 117.210938 53.359375 116.125 51.371094 C 115.039062 49.382812 114.128906 47.316406 113.398438 45.171875 C 112.664062 43.027344 112.121094 40.835938 111.761719 38.597656 C 111.6875 38.101562 111.726562 37.617188 111.882812 37.136719 C 112.039062 36.660156 112.292969 36.246094 112.648438 35.890625 Z M 55.5 79.710938 C 56.597656 77.136719 57.851562 74.640625 59.265625 72.226562 C 60.679688 69.8125 62.242188 67.496094 63.949219 65.277344 C 65.65625 63.0625 67.5 60.960938 69.472656 58.976562 C 71.445312 56.996094 73.539062 55.144531 75.75 53.425781 C 77.957031 51.707031 80.265625 50.136719 82.675781 48.710938 C 85.085938 47.289062 87.574219 46.019531 90.144531 44.914062 C 92.710938 43.804688 95.339844 42.863281 98.03125 42.085938 C 100.71875 41.3125 103.449219 40.710938 106.210938 40.28125 C 106.652344 42.773438 107.300781 45.207031 108.148438 47.59375 C 108.996094 49.976562 110.035156 52.273438 111.269531 54.480469 C 112.5 56.691406 113.90625 58.78125 115.488281 60.757812 C 117.070312 62.730469 118.804688 64.5625 120.691406 66.246094 C 121.652344 67.109375 122.648438 67.925781 123.683594 68.699219 C 124.71875 69.46875 125.789062 70.191406 126.890625 70.867188 C 127.992188 71.539062 129.121094 72.160156 130.277344 72.730469 C 131.4375 73.300781 132.617188 73.816406 133.824219 74.28125 C 135.03125 74.742188 136.253906 75.148438 137.496094 75.5 C 138.742188 75.847656 139.996094 76.140625 141.265625 76.375 C 142.535156 76.609375 143.8125 76.785156 145.097656 76.90625 C 146.386719 77.023438 147.671875 77.082031 148.964844 77.082031 C 150.253906 77.082031 151.542969 77.023438 152.828125 76.90625 C 154.117188 76.785156 155.394531 76.609375 156.664062 76.375 C 157.933594 76.140625 159.1875 75.847656 160.429688 75.5 C 161.675781 75.148438 162.898438 74.742188 164.105469 74.28125 C 165.308594 73.816406 166.492188 73.300781 167.648438 72.730469 C 168.808594 72.160156 169.9375 71.539062 171.039062 70.867188 C 172.140625 70.191406 173.210938 69.46875 174.246094 68.699219 C 175.28125 67.925781 176.277344 67.109375 177.238281 66.246094 C 179.125 64.5625 180.859375 62.730469 182.441406 60.757812 C 184.019531 58.78125 185.425781 56.691406 186.660156 54.480469 C 187.890625 52.269531 188.929688 49.976562 189.777344 47.589844 C 190.625 45.207031 191.269531 42.769531 191.710938 40.28125 C 195.648438 40.898438 199.5 41.863281 203.265625 43.171875 C 207.03125 44.484375 210.648438 46.121094 214.117188 48.082031 C 217.589844 50.042969 220.855469 52.300781 223.921875 54.847656 C 226.984375 57.398438 229.796875 60.199219 232.359375 63.253906 C 231.527344 64.324219 230.597656 65.292969 229.566406 66.171875 C 228.535156 67.046875 227.425781 67.808594 226.238281 68.457031 C 225.050781 69.105469 223.808594 69.628906 222.511719 70.019531 C 221.21875 70.414062 219.898438 70.671875 218.550781 70.792969 C 218.191406 70.828125 217.851562 70.921875 217.53125 71.082031 C 217.207031 71.242188 216.925781 71.453125 216.683594 71.71875 C 216.441406 71.984375 216.253906 72.285156 216.125 72.621094 C 215.996094 72.953125 215.929688 73.300781 215.929688 73.660156 C 215.929688 74.019531 215.996094 74.367188 216.125 74.699219 C 216.253906 75.035156 216.441406 75.335938 216.683594 75.601562 C 216.925781 75.867188 217.207031 76.078125 217.53125 76.238281 C 217.851562 76.398438 218.191406 76.492188 218.550781 76.527344 C 219.691406 76.628906 220.816406 76.832031 221.925781 77.132812 C 223.035156 77.429688 224.109375 77.824219 225.148438 78.3125 C 226.1875 78.796875 227.175781 79.371094 228.117188 80.03125 C 229.058594 80.691406 229.933594 81.425781 230.746094 82.238281 C 231.554688 83.046875 232.292969 83.925781 232.949219 84.863281 C 233.609375 85.804688 234.183594 86.792969 234.671875 87.832031 C 235.15625 88.875 235.550781 89.945312 235.851562 91.054688 C 236.148438 92.164062 236.351562 93.289062 236.457031 94.433594 C 236.488281 94.789062 236.582031 95.128906 236.742188 95.453125 C 236.902344 95.773438 237.117188 96.054688 237.378906 96.296875 C 237.644531 96.539062 237.945312 96.726562 238.28125 96.855469 C 238.617188 96.984375 238.960938 97.050781 239.320312 97.050781 C 239.679688 97.050781 240.027344 96.984375 240.363281 96.855469 C 240.699219 96.726562 240.996094 96.539062 241.261719 96.296875 C 241.527344 96.054688 241.738281 95.773438 241.898438 95.453125 C 242.058594 95.128906 242.15625 94.789062 242.1875 94.433594 C 242.464844 91.355469 243.414062 88.5 245.035156 85.871094 L 261.046875 123.472656 L 224.265625 133.460938 L 224.265625 99.070312 C 224.265625 98.6875 224.195312 98.320312 224.046875 97.96875 C 223.902344 97.617188 223.695312 97.304688 223.425781 97.035156 C 223.15625 96.765625 222.84375 96.558594 222.492188 96.410156 C 222.136719 96.265625 221.769531 96.191406 221.390625 96.191406 C 221.007812 96.191406 220.640625 96.265625 220.289062 96.410156 C 219.933594 96.558594 219.625 96.765625 219.355469 97.035156 C 219.085938 97.304688 218.875 97.617188 218.730469 97.96875 C 218.585938 98.320312 218.511719 98.6875 218.511719 99.070312 L 218.511719 260.402344 L 79.417969 260.402344 L 79.417969 210.175781 C 80.246094 208.78125 81.222656 207.5 82.355469 206.335938 C 83.484375 205.171875 84.734375 204.15625 86.105469 203.292969 C 87.480469 202.425781 88.933594 201.730469 90.46875 201.210938 C 92.007812 200.6875 93.582031 200.355469 95.199219 200.207031 C 95.554688 200.175781 95.894531 200.078125 96.21875 199.921875 C 96.539062 199.761719 96.820312 199.546875 97.0625 199.285156 C 97.304688 199.019531 97.492188 198.71875 97.621094 198.382812 C 97.75 198.046875 97.816406 197.703125 97.816406 197.34375 C 97.816406 196.984375 97.75 196.636719 97.621094 196.300781 C 97.492188 195.964844 97.304688 195.667969 97.0625 195.402344 C 96.820312 195.136719 96.539062 194.925781 96.21875 194.765625 C 95.894531 194.605469 95.554688 194.507812 95.199219 194.476562 C 93.582031 194.328125 92.007812 193.996094 90.46875 193.476562 C 88.933594 192.953125 87.480469 192.261719 86.109375 191.394531 C 84.734375 190.527344 83.484375 189.515625 82.355469 188.351562 C 81.222656 187.1875 80.246094 185.910156 79.417969 184.511719 L 79.417969 99.070312 C 79.417969 98.6875 79.34375 98.320312 79.199219 97.96875 C 79.054688 97.617188 78.84375 97.304688 78.574219 97.035156 C 78.304688 96.765625 77.996094 96.554688 77.640625 96.410156 C 77.289062 96.265625 76.921875 96.191406 76.539062 96.191406 C 76.160156 96.191406 75.792969 96.265625 75.4375 96.410156 C 75.085938 96.554688 74.773438 96.765625 74.503906 97.035156 C 74.234375 97.304688 74.027344 97.617188 73.882812 97.96875 C 73.734375 98.320312 73.664062 98.6875 73.664062 99.070312 L 73.664062 133.570312 L 36.882812 123.484375 Z M 55.5 79.710938 " fill-opacity="1" fill-rule="nonzero"/><path fill="currentColor" d="M 97.75 144.523438 L 111.011719 152.691406 C 111.472656 152.976562 111.972656 153.117188 112.511719 153.117188 C 113.050781 153.117188 113.550781 152.976562 114.011719 152.691406 L 127.265625 144.523438 C 128.164062 143.964844 128.976562 143.300781 129.703125 142.535156 C 130.433594 141.769531 131.054688 140.925781 131.570312 140 C 132.082031 139.078125 132.472656 138.105469 132.738281 137.082031 C 133.003906 136.058594 133.136719 135.015625 133.136719 133.960938 L 133.136719 109.859375 C 133.144531 109.480469 133.078125 109.109375 132.941406 108.753906 C 132.800781 108.398438 132.601562 108.082031 132.335938 107.808594 C 132.074219 107.53125 131.765625 107.316406 131.414062 107.164062 C 131.066406 107.007812 130.699219 106.929688 130.320312 106.921875 L 94.6875 106.921875 C 94.304688 106.929688 93.941406 107.011719 93.59375 107.164062 C 93.246094 107.320312 92.9375 107.535156 92.675781 107.808594 C 92.414062 108.085938 92.214844 108.402344 92.078125 108.757812 C 91.941406 109.113281 91.878906 109.480469 91.886719 109.859375 L 91.886719 133.960938 C 91.886719 135.015625 92.019531 136.054688 92.285156 137.078125 C 92.550781 138.101562 92.9375 139.078125 93.453125 140 C 93.964844 140.925781 94.585938 141.769531 95.3125 142.535156 C 96.042969 143.300781 96.855469 143.964844 97.75 144.523438 Z M 97.644531 133.78125 L 97.644531 112.675781 L 127.382812 112.675781 L 127.382812 133.960938 C 127.382812 134.523438 127.3125 135.082031 127.171875 135.628906 C 127.03125 136.179688 126.820312 136.699219 126.546875 137.195312 C 126.273438 137.691406 125.941406 138.144531 125.550781 138.554688 C 125.164062 138.964844 124.726562 139.320312 124.246094 139.617188 L 112.484375 146.859375 L 100.71875 139.53125 C 100.234375 139.226562 99.796875 138.863281 99.402344 138.445312 C 99.011719 138.027344 98.679688 137.566406 98.40625 137.0625 C 98.132812 136.558594 97.929688 136.03125 97.792969 135.472656 C 97.65625 134.917969 97.59375 134.351562 97.601562 133.78125 Z M 97.644531 133.78125 " fill-opacity="1" fill-rule="nonzero"/><path fill="currentColor" d="M 202.683594 147.40625 C 203.066406 147.40625 203.433594 147.335938 203.785156 147.1875 C 204.136719 147.042969 204.449219 146.835938 204.71875 146.566406 C 204.988281 146.296875 205.195312 145.984375 205.34375 145.632812 C 205.488281 145.277344 205.5625 144.910156 205.5625 144.53125 L 205.5625 143.234375 C 205.5625 142.855469 205.488281 142.488281 205.34375 142.132812 C 205.195312 141.78125 204.988281 141.46875 204.71875 141.199219 C 204.449219 140.929688 204.136719 140.722656 203.785156 140.578125 C 203.433594 140.429688 203.066406 140.359375 202.683594 140.359375 C 202.300781 140.359375 201.933594 140.429688 201.582031 140.578125 C 201.230469 140.722656 200.917969 140.929688 200.648438 141.199219 C 200.378906 141.46875 200.171875 141.78125 200.023438 142.132812 C 199.878906 142.488281 199.804688 142.855469 199.804688 143.234375 L 199.804688 144.53125 C 199.804688 144.910156 199.878906 145.277344 200.023438 145.632812 C 200.171875 145.984375 200.378906 146.296875 200.648438 146.566406 C 200.917969 146.835938 201.230469 147.042969 201.582031 147.1875 C 201.933594 147.335938 202.300781 147.40625 202.683594 147.40625 Z M 202.683594 147.40625 " fill-opacity="1" fill-rule="nonzero"/><path fill="currentColor" d="M 202.683594 207.875 C 203.066406 207.875 203.433594 207.804688 203.785156 207.65625 C 204.136719 207.511719 204.449219 207.304688 204.71875 207.035156 C 204.988281 206.765625 205.195312 206.453125 205.34375 206.101562 C 205.488281 205.746094 205.5625 205.378906 205.5625 205 L 205.5625 153.816406 C 205.5625 153.433594 205.488281 153.066406 205.34375 152.714844 C 205.195312 152.363281 204.988281 152.050781 204.71875 151.78125 C 204.449219 151.511719 204.136719 151.304688 203.785156 151.15625 C 203.433594 151.011719 203.066406 150.9375 202.683594 150.9375 C 202.300781 150.9375 201.933594 151.011719 201.582031 151.15625 C 201.230469 151.304688 200.917969 151.511719 200.648438 151.78125 C 200.378906 152.050781 200.171875 152.363281 200.023438 152.714844 C 199.878906 153.066406 199.804688 153.433594 199.804688 153.816406 L 199.804688 205 C 199.804688 205.378906 199.878906 205.746094 200.023438 206.101562 C 200.171875 206.453125 200.378906 206.765625 200.648438 207.035156 C 200.917969 207.304688 201.230469 207.511719 201.582031 207.65625 C 201.933594 207.804688 202.300781 207.875 202.683594 207.875 Z M 202.683594 207.875 " fill-opacity="1" fill-rule="nonzero"/></svg>