<svg width="25" height="24" viewBox="0 0 25 24" fill="none" xmlns="http://www.w3.org/2000/svg">
<path d="M16.3624 2H7.98236C4.34236 2 2.17236 4.17 2.17236 7.81V16.18C2.17236 19.83 4.34236 22 7.98236 22H16.3524C19.9924 22 22.1624 19.83 22.1624 16.19V7.81C22.1724 4.17 20.0024 2 16.3624 2ZM11.1224 17.51C10.8324 17.8 10.2824 18.08 9.88236 18.14L7.42236 18.49C7.33236 18.5 7.24236 18.51 7.15236 18.51C6.74236 18.51 6.36236 18.37 6.09236 18.1C5.76236 17.77 5.62236 17.29 5.70236 16.76L6.05236 14.3C6.11236 13.89 6.38236 13.35 6.68236 13.06L11.1424 8.6C11.2224 8.81 11.3024 9.02 11.4124 9.26C11.5124 9.47 11.6224 9.69 11.7424 9.89C11.8424 10.06 11.9524 10.22 12.0424 10.34C12.1524 10.51 12.2824 10.67 12.3624 10.76C12.4124 10.83 12.4524 10.88 12.4724 10.9C12.7224 11.2 13.0124 11.48 13.2624 11.69C13.3324 11.76 13.3724 11.8 13.3924 11.81C13.5424 11.93 13.6924 12.05 13.8224 12.14C13.9824 12.26 14.1424 12.37 14.3124 12.46C14.5124 12.58 14.7324 12.69 14.9524 12.8C15.1824 12.9 15.3924 12.99 15.6024 13.06L11.1224 17.51ZM17.5424 11.09L16.6224 12.02C16.5624 12.08 16.4824 12.11 16.4024 12.11C16.3724 12.11 16.3324 12.11 16.3124 12.1C14.2824 11.52 12.6624 9.9 12.0824 7.87C12.0524 7.76 12.0824 7.64 12.1624 7.57L13.0924 6.64C14.6124 5.12 16.0624 5.15 17.5524 6.64C18.3124 7.4 18.6824 8.13 18.6824 8.89C18.6724 9.61 18.3024 10.33 17.5424 11.09Z" fill="#D88D1B"/>
</svg>
