<svg xmlns="http://www.w3.org/2000/svg" xmlns:xlink="http://www.w3.org/1999/xlink" width="400" zoomAndPan="magnify" viewBox="0 0 300 299.999988" height="400" preserveAspectRatio="xMidYMid meet" version="1.0"><defs><clipPath id="e87c6c6b4c"><path d="M 31 32.550781 L 260 32.550781 L 260 261 L 31 261 Z M 31 32.550781 " clip-rule="nonzero"/></clipPath></defs><g clip-path="url(#e87c6c6b4c)"><path fill="currentColor" d="M 257.414062 225.191406 C 254.445312 216.929688 248.832031 210.660156 242.890625 204.023438 C 236.773438 197.183594 230.445312 190.117188 225.816406 179.878906 C 221.484375 170.296875 219.441406 151.5625 217.277344 131.726562 C 214.832031 109.339844 212.308594 86.1875 206.171875 71.890625 C 204.683594 68.421875 203.035156 65.039062 201.269531 61.796875 C 202.382812 61.246094 203.164062 60.378906 203.53125 59.277344 C 204.589844 56.078125 200.921875 53.367188 198.074219 51.601562 C 196.671875 50.738281 194.988281 49.824219 193.042969 48.875 C 185.09375 38.195312 178.316406 33.460938 178.027344 33.261719 C 177.207031 32.695312 176.082031 32.902344 175.515625 33.722656 C 174.945312 34.546875 175.152344 35.671875 175.976562 36.238281 C 176.027344 36.273438 180.257812 39.230469 185.867188 45.710938 C 182.648438 44.511719 179.042969 44.628906 175.898438 46.050781 C 172.644531 47.523438 170.226562 50.167969 169.089844 53.492188 L 149.851562 109.730469 C 147.136719 107.753906 144.761719 105.386719 142.777344 102.660156 C 140.378906 99.359375 138.476562 95.4375 137.125 91.007812 C 136.832031 90.050781 135.824219 89.515625 134.867188 89.804688 C 133.914062 90.097656 133.375 91.105469 133.664062 92.0625 C 135.136719 96.878906 137.21875 101.160156 139.851562 104.789062 C 142.277344 108.121094 145.230469 110.976562 148.632812 113.296875 L 146.046875 120.859375 C 139.503906 116.894531 134.082031 111.921875 129.921875 106.058594 C 125.378906 99.65625 122.1875 91.996094 120.433594 83.289062 C 120.238281 82.308594 119.28125 81.675781 118.304688 81.871094 C 117.328125 82.070312 116.691406 83.023438 116.890625 84 C 118.742188 93.210938 122.136719 101.335938 126.972656 108.152344 C 131.566406 114.625 137.578125 120.070312 144.847656 124.359375 L 142.90625 130.039062 C 141.132812 127.523438 138.226562 125.460938 133.941406 126.371094 C 133.617188 126.441406 133.308594 126.539062 133.003906 126.648438 C 130 125.15625 117.851562 118.53125 112.285156 106.722656 C 108.992188 99.746094 107.714844 88.605469 106.476562 77.832031 C 105.21875 66.859375 104.03125 56.5 100.824219 49.867188 C 94.304688 36.382812 83.929688 33.148438 83.492188 33.019531 C 82.925781 32.847656 82.308594 32.96875 81.847656 33.335938 C 81.261719 33.800781 67.539062 44.910156 65.230469 62.527344 C 63.886719 72.792969 66.835938 84.101562 69.523438 94.148438 C 68.273438 97.675781 62.558594 114.4375 62.558594 126.214844 C 62.558594 131.300781 63.011719 136.386719 63.449219 141.300781 C 64.136719 148.984375 64.785156 156.238281 63.847656 163.488281 C 62.46875 174.128906 56.476562 184.039062 55.410156 185.484375 C 55.078125 185.8125 54.875 186.269531 54.875 186.773438 C 54.875 187.726562 55.617188 188.519531 56.570312 188.582031 C 56.625 188.585938 56.679688 188.585938 56.730469 188.585938 C 57.828125 188.585938 58.304688 187.789062 59.484375 185.816406 C 60.140625 184.714844 61.160156 182.914062 62.265625 180.585938 C 64.15625 176.617188 66.582031 170.511719 67.433594 163.953125 C 68.421875 156.3125 67.726562 148.519531 67.050781 140.980469 C 66.621094 136.144531 66.175781 131.140625 66.175781 126.214844 C 66.175781 118.132812 69.15625 107.164062 71.210938 100.574219 C 72.34375 105.089844 73.191406 109.234375 73.191406 112.5625 C 73.191406 114.304688 73.113281 116.441406 73.023438 118.914062 C 72.617188 129.996094 72.011719 146.734375 77.6875 157.210938 C 77.355469 163.730469 76.40625 169.851562 74.851562 175.402344 C 73.242188 181.160156 70.945312 186.480469 68.023438 191.214844 C 67.496094 192.0625 67.761719 193.179688 68.609375 193.703125 C 68.90625 193.886719 69.234375 193.972656 69.558594 193.972656 C 70.164062 193.972656 70.757812 193.667969 71.097656 193.113281 C 74.199219 188.09375 76.636719 182.460938 78.335938 176.375 C 79.605469 171.832031 80.492188 166.933594 80.984375 161.765625 C 81.96875 162.78125 83.070312 163.667969 84.300781 164.402344 C 84.464844 167.476562 84.730469 177.550781 81.691406 185.972656 C 79.394531 192.34375 74.953125 197.835938 71.039062 202.679688 C 68.949219 205.269531 66.972656 207.710938 65.492188 210.070312 C 61.179688 216.945312 59.359375 226.082031 59.28125 226.464844 C 59.089844 227.445312 59.730469 228.394531 60.710938 228.585938 C 60.828125 228.609375 60.945312 228.621094 61.058594 228.621094 C 61.90625 228.621094 62.664062 228.023438 62.832031 227.160156 C 62.847656 227.074219 64.605469 218.289062 68.554688 211.996094 C 69.921875 209.816406 71.832031 207.453125 73.851562 204.953125 C 77.945312 199.886719 82.589844 194.140625 85.09375 187.199219 C 87.851562 179.546875 88.082031 170.699219 87.980469 166.171875 C 91.050781 167.378906 94.027344 167.964844 96.8125 168.140625 C 95.289062 183.242188 91.996094 195.957031 86.742188 206.949219 C 82.179688 216.496094 76.015625 224.8125 68.421875 231.671875 C 65.945312 233.507812 63.6875 235.480469 61.632812 238.042969 C 54.800781 246.558594 56.671875 258.75 56.753906 259.261719 C 56.894531 260.152344 57.664062 260.78125 58.535156 260.78125 C 58.628906 260.78125 58.726562 260.777344 58.824219 260.761719 C 59.808594 260.601562 60.480469 259.675781 60.324219 258.691406 C 60.304688 258.578125 58.640625 247.554688 64.453125 240.304688 C 67.472656 236.539062 71.164062 234.070312 75.441406 231.210938 C 79.878906 228.238281 84.910156 224.875 90.410156 219.277344 C 95.777344 213.816406 100.527344 206.074219 104.03125 199.460938 C 99.1875 224.859375 93.273438 256.535156 92.878906 258.644531 C 92.695312 259.625 93.34375 260.570312 94.324219 260.753906 C 94.4375 260.773438 94.550781 260.785156 94.660156 260.785156 C 95.511719 260.785156 96.273438 260.175781 96.433594 259.308594 C 96.589844 258.476562 111.917969 176.386719 113.699219 169.042969 C 115.40625 162 121.335938 150.414062 126.710938 145.457031 C 129.898438 142.515625 137.136719 138.703125 143.777344 136.585938 C 148.222656 135.144531 152.3125 134.460938 154.519531 135.308594 C 158.40625 136.804688 158.082031 142.167969 157.804688 144.214844 L 142.09375 151.828125 C 141.195312 152.261719 140.820312 153.34375 141.253906 154.242188 C 141.691406 155.140625 142.773438 155.515625 143.671875 155.082031 L 160.21875 147.0625 C 162.355469 146.023438 164.953125 146.863281 166.011719 148.933594 C 166.507812 149.902344 166.589844 151.003906 166.246094 152.03125 C 165.886719 153.09375 165.121094 153.953125 164.085938 154.457031 L 161.191406 155.859375 C 161.191406 155.859375 161.1875 155.859375 161.1875 155.859375 C 161.1875 155.863281 161.1875 155.863281 161.1875 155.863281 L 147.535156 162.476562 C 146.636719 162.910156 146.261719 163.992188 146.695312 164.890625 C 147.007812 165.535156 147.65625 165.914062 148.324219 165.914062 C 148.589844 165.914062 148.859375 165.855469 149.113281 165.730469 L 162.769531 159.113281 C 164.90625 158.082031 167.5 158.921875 168.554688 160.988281 C 169.050781 161.957031 169.132812 163.054688 168.789062 164.085938 C 168.429688 165.148438 167.664062 166.007812 166.628906 166.511719 L 152.976562 173.125 C 152.078125 173.5625 151.703125 174.644531 152.140625 175.542969 C 152.453125 176.1875 153.097656 176.5625 153.769531 176.5625 C 154.03125 176.5625 154.300781 176.503906 154.554688 176.382812 L 164.351562 171.636719 C 166.933594 170.382812 170.078125 171.398438 171.359375 173.902344 C 172.378906 175.902344 171.933594 178.269531 170.25 179.789062 C 163.773438 185.640625 158.605469 189.800781 155.695312 191.511719 C 154.152344 192.417969 152.574219 193.125 150.902344 193.871094 C 146.121094 196 141.175781 198.207031 137.261719 205.167969 C 132.152344 214.253906 132.105469 257.15625 132.105469 258.976562 C 132.105469 259.976562 132.917969 260.785156 133.914062 260.785156 C 134.914062 260.785156 135.722656 259.976562 135.722656 258.976562 C 135.71875 246.828125 136.558594 213.800781 140.414062 206.941406 C 143.742188 201.023438 147.933594 199.152344 152.375 197.171875 C 152.65625 197.046875 152.945312 196.917969 153.230469 196.789062 C 154.644531 201.046875 158.054688 211.84375 158.867188 219.1875 C 159.332031 223.390625 158.828125 226.886719 158.339844 230.265625 C 157.757812 234.304688 157.15625 238.476562 158.328125 243.476562 C 160.535156 252.882812 172.257812 260.207031 172.753906 260.515625 C 173.050781 260.699219 173.378906 260.785156 173.703125 260.785156 C 174.308594 260.785156 174.902344 260.480469 175.242188 259.925781 C 175.769531 259.078125 175.503906 257.960938 174.652344 257.4375 C 174.542969 257.371094 163.714844 250.613281 161.847656 242.652344 C 160.832031 238.316406 161.359375 234.65625 161.917969 230.78125 C 162.4375 227.179688 162.976562 223.453125 162.460938 218.789062 C 161.574219 210.765625 157.894531 199.308594 156.515625 195.195312 C 156.851562 195.011719 157.191406 194.828125 157.527344 194.632812 C 161.523438 192.285156 167.96875 186.726562 172.675781 182.472656 C 175.546875 179.882812 176.328125 175.683594 174.578125 172.257812 C 173.640625 170.417969 172.109375 169.054688 170.324219 168.261719 C 171.175781 167.421875 171.828125 166.398438 172.21875 165.238281 C 172.875 163.277344 172.71875 161.1875 171.777344 159.34375 C 170.964844 157.753906 169.660156 156.5625 168.136719 155.84375 C 168.816406 155.078125 169.339844 154.179688 169.675781 153.183594 C 170.332031 151.222656 170.171875 149.132812 169.230469 147.289062 C 167.753906 144.398438 164.65625 142.808594 161.546875 143.035156 C 161.632812 141.425781 161.546875 139.34375 160.890625 137.371094 C 162.203125 137.707031 163.660156 138.046875 165.148438 138.332031 C 167.058594 138.691406 169.246094 139.027344 171.273438 139.027344 C 174.261719 139.027344 176.890625 138.296875 177.726562 135.855469 C 177.960938 135.171875 178.105469 134.082031 177.453125 132.789062 C 175.269531 128.476562 164.566406 124.441406 159.847656 122.839844 L 161.214844 118.84375 L 176.359375 124.601562 C 176.574219 124.679688 176.789062 124.71875 177.003906 124.71875 C 177.734375 124.71875 178.417969 124.273438 178.695312 123.550781 C 179.050781 122.617188 178.578125 121.574219 177.644531 121.21875 L 162.382812 115.417969 L 163.804688 111.265625 L 178.609375 116.894531 C 178.824219 116.976562 179.039062 117.011719 179.253906 117.011719 C 179.980469 117.011719 180.667969 116.570312 180.945312 115.847656 C 181.296875 114.914062 180.828125 113.867188 179.894531 113.515625 L 164.976562 107.84375 L 166.410156 103.652344 L 180.972656 109.1875 C 181.183594 109.269531 181.402344 109.308594 181.617188 109.308594 C 182.34375 109.308594 183.03125 108.863281 183.304688 108.140625 C 183.660156 107.207031 183.191406 106.164062 182.257812 105.808594 L 167.582031 100.230469 L 169.136719 95.675781 L 183.457031 101.117188 C 183.667969 101.195312 183.886719 101.234375 184.097656 101.234375 C 184.828125 101.234375 185.515625 100.789062 185.789062 100.066406 C 186.144531 99.132812 185.675781 98.089844 184.742188 97.734375 L 170.308594 92.25 L 171.777344 87.960938 L 185.636719 93.226562 C 185.847656 93.308594 186.0625 93.34375 186.277344 93.34375 C 187.007812 93.34375 187.695312 92.902344 187.96875 92.179688 C 188.324219 91.246094 187.855469 90.203125 186.921875 89.847656 L 172.949219 84.535156 L 174.390625 80.324219 L 188.117188 85.34375 C 188.324219 85.421875 188.53125 85.457031 188.738281 85.457031 C 189.476562 85.457031 190.167969 85 190.4375 84.269531 C 190.78125 83.332031 190.300781 82.292969 189.359375 81.949219 L 175.5625 76.898438 L 176.878906 73.046875 L 190.765625 78 C 190.96875 78.070312 191.171875 78.105469 191.375 78.105469 C 192.117188 78.105469 192.8125 77.640625 193.078125 76.902344 C 193.414062 75.960938 192.921875 74.925781 191.980469 74.589844 L 178.050781 69.621094 L 179.324219 65.902344 L 194.113281 71.222656 C 194.316406 71.292969 194.523438 71.328125 194.726562 71.328125 C 195.46875 71.328125 196.164062 70.871094 196.429688 70.132812 C 196.765625 69.191406 196.277344 68.15625 195.339844 67.816406 L 180.492188 62.480469 L 181.742188 58.824219 C 185.316406 60.179688 192.441406 62.601562 197.546875 62.535156 C 199.464844 65.976562 201.253906 69.59375 202.851562 73.316406 C 208.769531 87.117188 211.269531 109.996094 213.683594 132.117188 C 215.878906 152.246094 217.953125 171.261719 222.523438 181.367188 C 227.382812 192.113281 234.191406 199.722656 240.199219 206.433594 C 245.894531 212.800781 251.277344 218.816406 254.011719 226.414062 C 257.261719 235.460938 255.679688 244.964844 253.863281 251.1875 L 252.84375 241.683594 C 252.53125 238.765625 251.648438 235.980469 250.222656 233.398438 L 237.578125 210.542969 C 235.789062 207.304688 232.683594 204.875 229.058594 203.878906 L 209.019531 198.367188 C 205.480469 197.390625 201.710938 199.023438 200.054688 202.242188 C 199.085938 204.128906 198.972656 206.34375 199.738281 208.316406 C 199.78125 208.429688 199.835938 208.53125 199.882812 208.640625 C 197.707031 209.144531 195.78125 210.546875 194.695312 212.636719 C 194.191406 213.613281 193.917969 214.660156 193.859375 215.71875 C 192.375 214.320312 191.125 212.738281 190.101562 210.949219 C 188.097656 207.445312 186.917969 203.027344 186.597656 197.820312 C 186.535156 196.820312 185.671875 196.0625 184.683594 196.125 C 183.6875 196.1875 182.925781 197.042969 182.988281 198.042969 C 183.34375 203.808594 184.679688 208.753906 186.960938 212.742188 C 189.5 217.183594 193.179688 220.539062 198.207031 222.996094 C 198.210938 223 198.210938 223 198.210938 223 C 198.210938 223 198.214844 223 198.214844 223 L 198.664062 223.21875 C 197.625 223.835938 196.71875 224.699219 196.035156 225.777344 C 194.835938 227.675781 194.523438 229.984375 195.179688 232.121094 C 195.726562 233.902344 196.902344 235.410156 198.472656 236.40625 C 197.503906 237.050781 196.667969 237.925781 196.0625 239.003906 C 195.050781 240.804688 194.835938 242.875 195.460938 244.835938 C 196.085938 246.800781 197.53125 248.441406 199.425781 249.335938 L 199.820312 249.523438 C 203.085938 251.066406 205.75 253.667969 207.324219 256.84375 L 208.78125 259.777344 C 209.097656 260.414062 209.738281 260.785156 210.402344 260.785156 C 210.671875 260.785156 210.945312 260.722656 211.203125 260.59375 C 212.097656 260.152344 212.464844 259.066406 212.023438 258.171875 L 210.566406 255.234375 C 208.632812 251.335938 205.363281 248.144531 201.367188 246.253906 L 200.96875 246.066406 C 199.96875 245.59375 199.234375 244.765625 198.90625 243.738281 C 198.589844 242.742188 198.699219 241.691406 199.214844 240.777344 C 200.210938 239.007812 202.480469 238.269531 204.386719 239.101562 L 206.488281 240.019531 C 208.300781 240.808594 209.835938 242.082031 210.921875 243.695312 L 217.785156 253.890625 C 218.136719 254.410156 218.707031 254.6875 219.289062 254.6875 C 219.636719 254.6875 219.984375 254.589844 220.296875 254.378906 C 221.125 253.820312 221.34375 252.699219 220.785156 251.871094 L 213.921875 241.675781 C 212.449219 239.492188 210.378906 237.773438 207.9375 236.703125 L 205.835938 235.789062 L 201.003906 233.679688 C 199.855469 233.175781 198.992188 232.222656 198.636719 231.0625 C 198.285156 229.917969 198.449219 228.730469 199.089844 227.710938 C 200.253906 225.871094 202.734375 225.1875 204.734375 226.15625 L 214.589844 230.925781 C 216.542969 231.871094 218.117188 233.359375 219.136719 235.234375 L 226.476562 248.71875 C 226.804688 249.320312 227.425781 249.664062 228.066406 249.664062 C 228.359375 249.664062 228.652344 249.59375 228.929688 249.441406 C 229.804688 248.964844 230.128906 247.867188 229.652344 246.988281 L 222.3125 233.503906 C 220.929688 230.964844 218.804688 228.945312 216.164062 227.671875 L 199.796875 219.75 C 199.792969 219.746094 199.789062 219.746094 199.785156 219.742188 C 198.765625 219.25 198.011719 218.398438 197.664062 217.351562 C 197.328125 216.335938 197.414062 215.253906 197.910156 214.300781 C 198.886719 212.414062 201.167969 211.5625 203.210938 212.324219 L 204.199219 212.691406 C 204.199219 212.691406 204.203125 212.691406 204.203125 212.691406 L 221.097656 218.980469 C 223.652344 219.933594 225.683594 221.785156 226.820312 224.199219 L 233.609375 238.613281 C 234.035156 239.515625 235.113281 239.90625 236.015625 239.480469 C 236.917969 239.054688 237.304688 237.976562 236.882812 237.074219 L 230.09375 222.660156 C 228.550781 219.386719 225.804688 216.875 222.359375 215.59375 L 205.460938 209.300781 C 204.375 208.898438 203.515625 208.0625 203.109375 207.007812 C 202.710938 205.984375 202.769531 204.875 203.273438 203.894531 C 204.148438 202.1875 206.164062 201.332031 208.0625 201.851562 L 228.097656 207.367188 C 230.789062 208.105469 233.09375 209.902344 234.414062 212.292969 L 247.058594 235.148438 C 248.25 237.304688 248.988281 239.632812 249.246094 242.066406 L 251.078125 259.167969 C 251.164062 259.964844 251.765625 260.609375 252.550781 260.753906 C 252.660156 260.773438 252.769531 260.78125 252.878906 260.78125 C 253.550781 260.78125 254.179688 260.40625 254.492188 259.789062 C 254.855469 259.066406 263.394531 241.835938 257.414062 225.191406 Z M 110.183594 168.191406 C 109.730469 170.066406 108.445312 176.53125 106.765625 185.207031 C 106.066406 186.914062 97.90625 206.488281 87.832031 216.742188 C 85.777344 218.832031 83.78125 220.597656 81.855469 222.152344 C 84.957031 217.925781 87.683594 213.371094 90.007812 208.507812 C 95.480469 197.050781 98.898438 183.828125 100.445312 168.152344 C 104.679688 167.902344 108.292969 166.800781 110.878906 165.742188 C 110.605469 166.597656 110.371094 167.421875 110.183594 168.191406 Z M 123.785156 143.25 C 119.644531 147.304688 115.453125 154.410156 112.722656 160.828125 C 110.414062 162.160156 99.105469 167.957031 86.863281 161.703125 C 75.296875 155.796875 76.136719 132.789062 76.636719 119.042969 C 76.726562 116.535156 76.804688 114.371094 76.804688 112.558594 C 76.804688 107.367188 75.042969 100.789062 73.179688 93.820312 C 70.535156 83.945312 67.539062 72.757812 68.816406 62.996094 C 70.632812 49.144531 80.496094 39.378906 83.335938 36.824219 C 85.796875 37.886719 92.835938 41.652344 97.570312 51.441406 C 100.507812 57.519531 101.714844 68.054688 102.882812 78.242188 C 104.152344 89.308594 105.464844 100.75 109.011719 108.269531 C 114.324219 119.527344 124.71875 126.277344 129.597656 128.957031 C 125.652344 133.117188 124.171875 140.789062 123.785156 143.25 Z M 128.226562 139.855469 C 129.367188 135.675781 131.476562 130.597656 134.699219 129.910156 C 138.246094 129.152344 140.050781 131.871094 140.859375 133.742188 C 136.265625 135.386719 131.675781 137.660156 128.226562 139.855469 Z M 199.613281 58.585938 C 196.535156 60.003906 186.765625 57 181.332031 54.773438 C 180.871094 54.585938 180.351562 54.59375 179.898438 54.800781 C 179.445312 55.007812 179.09375 55.390625 178.933594 55.863281 L 155.832031 123.402344 C 155.671875 123.863281 155.707031 124.367188 155.929688 124.800781 C 156.148438 125.238281 156.535156 125.5625 157 125.710938 C 163.332031 127.707031 172.863281 131.730469 174.222656 134.417969 C 174.292969 134.554688 174.316406 134.652344 174.304688 134.683594 C 174.164062 135.097656 172.308594 136.003906 165.855469 134.78125 C 161.785156 134.011719 157.8125 132.75 156.96875 132.476562 C 156.609375 132.277344 156.230469 132.09375 155.820312 131.933594 C 153.402344 131.007812 149.867188 131.253906 145.996094 132.1875 L 172.511719 54.664062 C 173.324219 52.292969 175.058594 50.40625 177.394531 49.347656 C 179.765625 48.273438 182.5 48.222656 184.902344 49.210938 C 199.835938 55.359375 200.09375 58.136719 200.097656 58.136719 C 200.070312 58.222656 200.011719 58.40625 199.613281 58.585938 Z M 35.769531 230.324219 C 33.722656 245.585938 39.007812 258.136719 39.0625 258.261719 C 39.453125 259.179688 39.03125 260.242188 38.113281 260.636719 C 37.882812 260.738281 37.636719 260.785156 37.398438 260.785156 C 36.699219 260.785156 36.035156 260.375 35.738281 259.691406 C 35.503906 259.144531 30 246.140625 32.183594 229.84375 C 33.148438 222.65625 36.28125 213.257812 39.914062 202.375 C 44.425781 188.851562 49.539062 173.527344 51.421875 159.21875 C 53.089844 146.542969 52.648438 129.847656 52.222656 113.695312 C 51.777344 96.941406 51.359375 81.113281 53.214844 70.160156 C 56.875 48.554688 67.667969 34.25 68.125 33.652344 C 68.730469 32.859375 69.867188 32.707031 70.660156 33.3125 C 71.453125 33.921875 71.605469 35.054688 70.996094 35.847656 C 70.890625 35.988281 60.285156 50.082031 56.78125 70.765625 C 54.984375 81.371094 55.398438 97.027344 55.835938 113.601562 C 56.269531 129.890625 56.714844 146.734375 55.007812 159.6875 C 53.082031 174.339844 47.90625 189.84375 43.34375 203.519531 C 39.773438 214.226562 36.6875 223.476562 35.769531 230.324219 Z M 202.734375 259.605469 C 202.464844 260.332031 201.773438 260.785156 201.039062 260.785156 C 200.832031 260.785156 200.621094 260.746094 200.414062 260.671875 C 199.847656 260.460938 186.484375 255.390625 178.980469 242.453125 C 171.648438 229.8125 170.488281 201.175781 170.445312 199.960938 C 170.40625 198.964844 171.183594 198.125 172.183594 198.085938 C 173.171875 198.046875 174.019531 198.828125 174.058594 199.824219 C 174.070312 200.113281 175.226562 228.777344 182.109375 240.636719 C 188.96875 252.464844 201.542969 257.234375 201.667969 257.28125 C 202.605469 257.628906 203.082031 258.667969 202.734375 259.605469 Z M 202.21875 150.519531 C 202.042969 154.90625 201.875 159.050781 202.804688 163.160156 C 204.625 171.222656 214.042969 177.082031 214.136719 177.140625 C 214.988281 177.664062 215.253906 178.777344 214.734375 179.628906 C 214.390625 180.183594 213.796875 180.492188 213.1875 180.492188 C 212.867188 180.492188 212.542969 180.40625 212.25 180.226562 C 211.808594 179.957031 201.4375 173.523438 199.277344 163.957031 C 198.242188 159.382812 198.425781 154.800781 198.605469 150.375 C 198.792969 145.769531 198.96875 141.421875 197.859375 137.175781 C 195.613281 128.59375 186.675781 116.398438 186.582031 116.277344 C 185.992188 115.472656 186.164062 114.339844 186.964844 113.75 C 187.769531 113.15625 188.902344 113.328125 189.496094 114.128906 C 189.878906 114.652344 198.9375 127.003906 201.355469 136.261719 C 202.601562 141.027344 202.410156 145.851562 202.21875 150.519531 Z M 185.085938 126.828125 C 185.328125 127.128906 191.050781 134.257812 193.023438 142.507812 C 193.980469 146.5 193.625 151.238281 193.25 156.25 C 192.847656 161.605469 192.433594 167.144531 193.699219 171.71875 C 196 180.039062 205.632812 185.636719 205.730469 185.691406 C 206.597656 186.1875 206.898438 187.292969 206.402344 188.15625 C 206.070312 188.742188 205.457031 189.070312 204.832031 189.070312 C 204.527344 189.070312 204.21875 188.992188 203.9375 188.832031 C 203.488281 188.578125 192.914062 182.457031 190.210938 172.683594 C 188.78125 167.503906 189.21875 161.644531 189.644531 155.980469 C 189.996094 151.257812 190.332031 146.792969 189.507812 143.347656 C 187.730469 135.914062 182.328125 129.171875 182.273438 129.101562 C 181.648438 128.328125 181.765625 127.1875 182.542969 126.558594 C 183.320312 125.933594 184.457031 126.050781 185.085938 126.828125 Z M 185.085938 126.828125 " fill-opacity="1" fill-rule="nonzero"/></g></svg>