<svg xmlns="http://www.w3.org/2000/svg" xmlns:xlink="http://www.w3.org/1999/xlink" width="400" zoomAndPan="magnify" viewBox="0 0 300 299.999988" height="400" preserveAspectRatio="xMidYMid meet" version="1.0"><defs><clipPath id="9c0a054e5d"><path d="M 30 46.050781 L 270 46.050781 L 270 253.800781 L 30 253.800781 Z M 30 46.050781 " clip-rule="nonzero"/></clipPath></defs><path fill="#a9a0f0" d="M 173.710938 84.382812 C 173.6875 84.410156 173.664062 84.433594 173.640625 84.460938 C 173.574219 84.535156 173.492188 84.625 173.414062 84.710938 C 173.460938 84.683594 173.5 84.660156 173.53125 84.644531 C 173.648438 84.503906 173.703125 84.421875 173.710938 84.382812 Z M 173.710938 84.382812 " fill-opacity="1" fill-rule="nonzero"/><path fill="#a9a0f0" d="M 173.90625 83.402344 C 173.980469 83.371094 173.910156 83.453125 173.734375 83.625 C 173.621094 83.742188 173.46875 83.910156 173.285156 84.105469 C 173.40625 83.976562 173.523438 83.859375 173.621094 83.753906 C 174.15625 83.230469 174.386719 83.03125 173.90625 83.402344 Z M 173.90625 83.402344 " fill-opacity="1" fill-rule="nonzero"/><path fill="#a9a0f0" d="M 173.285156 84.105469 C 173.171875 84.21875 173.058594 84.335938 172.9375 84.46875 C 172.945312 84.464844 172.953125 84.457031 172.960938 84.449219 C 172.96875 84.441406 172.980469 84.425781 172.992188 84.414062 C 173.097656 84.304688 173.191406 84.203125 173.285156 84.105469 Z M 173.285156 84.105469 " fill-opacity="1" fill-rule="nonzero"/><g clip-path="url(#9c0a054e5d)"><path fill="#a9a0f0" d="M 269.5 187.984375 C 269.46875 187.574219 269.414062 187.160156 269.34375 186.550781 C 269.277344 185.941406 269.144531 185.148438 268.921875 183.988281 C 268.945312 183.6875 268.730469 182.828125 268.429688 181.683594 C 268.253906 181.117188 268.058594 180.476562 267.851562 179.804688 C 267.617188 179.140625 267.371094 178.4375 267.121094 177.734375 C 266.089844 174.941406 264.800781 172.253906 264.578125 171.632812 C 264.691406 171.863281 264.808594 172.089844 264.914062 172.320312 C 263.910156 169.8125 263.082031 167.722656 262.199219 165.664062 C 261.3125 163.609375 260.363281 161.585938 258.988281 159.324219 C 255.234375 153.003906 250.511719 146.882812 245.148438 141.511719 C 244.472656 140.84375 243.796875 140.179688 243.101562 139.539062 C 242.757812 139.214844 242.40625 138.894531 242.050781 138.582031 L 241.019531 137.65625 C 239.695312 136.457031 238.351562 135.296875 237.078125 134.09375 C 235.808594 132.890625 234.53125 131.730469 233.335938 130.523438 C 232.125 129.332031 230.941406 128.160156 229.824219 126.972656 C 229.519531 127.089844 231.875 128.988281 231.71875 129.363281 C 226.28125 123.886719 221.417969 117.824219 216.492188 111.75 C 215.652344 110.617188 214.679688 109.175781 214.347656 108.617188 C 212.851562 106.605469 213.300781 107.554688 212.171875 106.105469 L 212.226562 105.742188 C 210.359375 103.792969 209.984375 102.488281 208.285156 100.585938 C 208.117188 100.550781 207.515625 99.839844 206.949219 99.132812 C 207.148438 98.914062 205.152344 96.992188 205.4375 96.925781 L 205.402344 96.921875 C 205.054688 96.496094 204.792969 96.207031 204.402344 95.660156 C 204.027344 95.296875 202.125 93.363281 200.175781 91.46875 C 199.6875 90.996094 199.199219 90.523438 198.738281 90.074219 C 198.503906 89.851562 198.277344 89.632812 198.058594 89.421875 C 197.820312 89.207031 197.59375 89 197.378906 88.808594 C 196.515625 88.039062 195.890625 87.460938 195.65625 87.292969 L 195.292969 86.902344 C 194.117188 85.847656 193.480469 85.566406 194.128906 86.214844 C 193.886719 86.003906 193.667969 85.773438 193.402344 85.574219 L 192.621094 84.972656 L 192.816406 85.09375 L 192.039062 84.496094 C 191.78125 84.296875 191.523438 84.09375 191.230469 83.925781 C 190.929688 83.710938 190.636719 83.375 191.199219 83.570312 C 190.675781 83.3125 190.144531 83.019531 189.601562 82.734375 C 189.023438 82.480469 188.457031 82.214844 187.929688 81.945312 C 189.414062 82.6875 190.949219 83.660156 192.253906 84.816406 L 193.238281 85.679688 C 193.566406 85.960938 193.835938 86.289062 194.132812 86.589844 C 194.699219 87.207031 195.296875 87.78125 195.75 88.402344 C 195.300781 87.964844 194.625 87.371094 193.964844 86.738281 C 193.332031 86.089844 192.574219 85.515625 192.003906 85.101562 C 191.695312 84.808594 191.304688 84.4375 190.785156 84.089844 C 190.527344 83.910156 190.257812 83.71875 189.976562 83.519531 C 189.699219 83.320312 189.402344 83.117188 189.0625 82.949219 C 188.730469 82.773438 188.390625 82.589844 188.050781 82.410156 C 187.875 82.320312 187.710938 82.222656 187.527344 82.144531 L 186.964844 81.929688 C 186.589844 81.785156 186.214844 81.648438 185.847656 81.507812 C 185.46875 81.394531 185.078125 81.316406 184.707031 81.222656 C 184.042969 81.101562 183.554688 81.363281 182.035156 81.199219 C 181.660156 81.113281 181.21875 81.152344 180.714844 81.207031 C 180.214844 81.277344 179.671875 81.441406 179.019531 81.5 C 179.730469 81.289062 180.445312 81.066406 181.191406 81.039062 C 181.5625 81.011719 181.933594 80.96875 182.304688 80.976562 C 182.675781 80.996094 183.046875 81.019531 183.421875 81.042969 C 183.363281 80.972656 183.105469 80.914062 182.726562 80.867188 C 182.539062 80.847656 182.324219 80.8125 182.085938 80.816406 C 181.847656 80.828125 181.59375 80.839844 181.328125 80.851562 C 181.066406 80.871094 180.796875 80.890625 180.527344 80.910156 C 180.265625 80.953125 180.003906 81.011719 179.757812 81.058594 C 179.265625 81.15625 178.824219 81.242188 178.539062 81.335938 C 178.316406 81.453125 177.625 81.664062 176.84375 82.039062 C 176.511719 80.71875 176.121094 79.421875 175.675781 78.136719 C 174.882812 76.9375 174.480469 75.441406 173.832031 74.121094 C 173.433594 73.339844 172.996094 72.535156 172.554688 71.777344 C 172.703125 71.605469 172.847656 71.476562 172.910156 71.566406 C 172.949219 71.074219 173.386719 71.023438 173.597656 70.535156 C 173.761719 70.085938 173.507812 70.515625 173.597656 70.179688 C 173.96875 69.582031 174.5625 68.796875 174.902344 68.347656 C 175.152344 68.257812 175.75 67.882812 175.6875 68.417969 C 175.074219 69.269531 175.578125 67.851562 175.011719 68.792969 C 175.578125 68.605469 174.554688 69.65625 174.675781 69.972656 C 175.007812 69.773438 175.398438 69.191406 175.6875 68.675781 L 175.582031 68.746094 C 175.816406 68.28125 176.398438 67.414062 176.882812 67.074219 C 176.90625 67.257812 177.125 67.117188 176.925781 67.441406 L 177.367188 66.886719 C 177.390625 66.789062 177.410156 66.6875 177.265625 66.835938 C 177.382812 66.5 177.652344 66.285156 177.867188 66.128906 C 177.949219 66.140625 178.425781 65.316406 178.90625 64.507812 C 179.414062 63.726562 179.910156 62.949219 179.902344 63.023438 C 180.074219 62.835938 180.210938 62.75 180.339844 62.65625 C 180.050781 63.019531 179.652344 63.5625 179.269531 64.089844 C 178.917969 64.546875 178.625 65.023438 178.425781 65.339844 C 178.230469 65.65625 178.136719 65.8125 178.234375 65.675781 C 178.332031 65.613281 178.578125 65.277344 178.898438 64.800781 C 179.234375 64.335938 179.664062 63.746094 180.085938 63.164062 C 180.503906 62.5625 180.972656 62.015625 181.34375 61.597656 C 181.714844 61.175781 182 60.894531 182.101562 60.886719 C 182.363281 60.605469 182.679688 60.269531 182.523438 60.234375 C 183.058594 59.859375 182.554688 60.554688 182.992188 60.347656 C 182.984375 60.324219 182.914062 60.320312 183.03125 60.230469 L 183.480469 60.070312 C 183.785156 59.664062 184.261719 59.273438 184.738281 58.875 C 185.210938 58.472656 185.730469 58.121094 186.054688 57.683594 C 185.902344 57.984375 185.789062 58.398438 185.339844 58.90625 L 185.203125 58.921875 C 185.15625 59.015625 184.769531 59.410156 184.871094 59.503906 C 185.394531 59.148438 185.824219 58.824219 186.269531 58.316406 C 186.390625 58.269531 186.527344 58.214844 186.625 58.1875 C 186.613281 58.175781 186.59375 58.167969 186.585938 58.148438 C 186.808594 58.085938 186.800781 58.113281 186.769531 58.203125 C 186.765625 58.21875 186.761719 58.234375 186.75 58.257812 C 187.03125 58.300781 187.476562 57.875 188 57.382812 C 188.542969 56.925781 189.164062 56.394531 189.699219 56.171875 C 189.953125 55.9375 189.691406 56.097656 190.003906 55.800781 C 190.53125 55.535156 191.011719 55.375 191.484375 55.191406 C 191.953125 55.007812 192.425781 54.8125 192.984375 54.5625 C 193.246094 54.222656 193.246094 54.144531 192.746094 54.210938 C 193.027344 54.082031 193.304688 53.941406 193.589844 53.824219 C 193.027344 54.578125 195.355469 53.53125 194.707031 54.320312 C 194.996094 54.308594 195.5 54.109375 195.9375 53.835938 C 195.9375 53.710938 195.9375 53.503906 196.527344 53.246094 C 196.964844 53.128906 197.132812 53.097656 197.285156 53.070312 C 197.433594 53.042969 197.566406 53.019531 197.9375 52.96875 C 198.152344 53.050781 197.921875 53.199219 197.992188 53.300781 C 198.488281 53.023438 198.75 53.015625 199.003906 53.035156 C 199.261719 53.050781 199.507812 53.085938 200.011719 52.933594 C 200.632812 52.714844 201.878906 52.324219 201.851562 52.078125 C 202.730469 51.898438 202.769531 52.089844 202.734375 52.316406 L 203.441406 52.191406 C 201.15625 52.648438 198.800781 53.308594 196.519531 54.148438 C 199.128906 53.527344 201.941406 53.148438 204.566406 52.753906 C 207.195312 52.328125 209.648438 51.96875 211.714844 51.027344 C 211.933594 51.554688 213.296875 51.921875 214.589844 52.289062 C 214.914062 52.371094 215.234375 52.441406 215.535156 52.503906 C 215.832031 52.582031 216.109375 52.648438 216.351562 52.695312 C 216.832031 52.792969 217.160156 52.824219 217.195312 52.765625 C 217.726562 52.734375 218.253906 52.769531 218.789062 52.800781 C 219.320312 52.84375 219.863281 52.855469 220.398438 52.941406 C 223.796875 53.382812 227.253906 54.59375 230.476562 56.421875 L 231.085938 56.757812 L 231.671875 57.136719 C 232.066406 57.390625 232.457031 57.644531 232.851562 57.898438 C 233.277344 58.1875 233.707031 58.476562 234.132812 58.765625 C 234.578125 59.050781 235.015625 59.351562 235.46875 59.628906 C 237.265625 60.761719 239.148438 61.839844 241.136719 62.785156 C 242.078125 63.21875 243.371094 63.792969 244.9375 64.332031 C 245.324219 64.472656 245.738281 64.59375 246.15625 64.734375 C 246.367188 64.796875 246.578125 64.875 246.796875 64.929688 C 246.992188 64.988281 247.320312 65.074219 247.277344 65.070312 C 247.394531 65.117188 247.511719 65.167969 247.632812 65.21875 C 247.742188 65.261719 247.851562 65.304688 247.957031 65.347656 C 247.996094 65.351562 248.027344 65.417969 247.984375 65.492188 C 247.949219 65.566406 247.84375 65.601562 247.769531 65.628906 C 247.613281 65.6875 247.488281 65.726562 247.390625 65.742188 C 247.269531 65.773438 247.179688 65.78125 247.113281 65.769531 C 247.085938 65.765625 247.058594 65.761719 247.039062 65.753906 C 247.089844 65.714844 246.851562 65.84375 246.726562 65.90625 L 246.289062 66.132812 C 246.539062 66.015625 246.726562 65.929688 246.878906 65.855469 C 246.917969 65.835938 246.957031 65.820312 246.992188 65.804688 L 247.042969 65.777344 C 247.046875 65.777344 247.046875 65.78125 247.046875 65.78125 L 247.066406 65.789062 C 247.09375 65.800781 247.121094 65.808594 247.191406 65.816406 C 247.148438 65.921875 247.402344 65.859375 246.636719 66.378906 C 246.097656 66.769531 245.570312 67.148438 245.050781 67.523438 C 244.015625 68.277344 242.964844 68.914062 241.941406 69.574219 C 242.382812 69.503906 242.515625 69.597656 243.507812 69.292969 L 242.367188 69.792969 C 241.96875 70.261719 241.164062 70.738281 240.339844 71.226562 C 239.523438 71.71875 238.660156 72.132812 238.128906 72.460938 C 238.28125 72.152344 237.378906 72.5 236.585938 72.808594 L 236.953125 72.808594 C 233.9375 73.980469 230.441406 75.328125 227.636719 75.953125 C 227.246094 76.046875 226.9375 76.039062 226.746094 76.003906 C 225.863281 76.226562 224.980469 76.496094 224.085938 76.683594 C 224.242188 76.359375 221.8125 76.761719 223.070312 76.386719 C 221.101562 77.019531 219.027344 76.980469 217.09375 77.328125 C 216.226562 77.363281 215.355469 77.300781 214.472656 77.285156 C 213.597656 77.214844 212.710938 77.175781 211.832031 77.058594 C 210.066406 76.855469 208.289062 76.550781 206.539062 76.101562 C 203.03125 75.222656 199.601562 73.851562 196.371094 72.09375 L 196.464844 72.285156 C 195.3125 71.695312 194.234375 71.136719 192.96875 70.554688 C 191.734375 69.976562 190.410156 69.492188 188.898438 68.859375 C 188.300781 68.800781 187.667969 68.675781 187.015625 68.617188 C 186.363281 68.578125 185.714844 68.492188 185.097656 68.519531 C 184.484375 68.523438 183.921875 68.539062 183.449219 68.632812 C 182.976562 68.714844 182.609375 68.804688 182.378906 68.960938 C 181.097656 68.972656 180.203125 69.097656 179.332031 69.285156 C 178.457031 69.457031 177.601562 69.6875 176.417969 69.996094 C 176.757812 70.085938 176.1875 70.289062 175.726562 70.488281 C 175.617188 70.539062 175.496094 70.589844 175.441406 70.628906 C 175.34375 70.679688 175.257812 70.726562 175.214844 70.761719 C 175.125 70.835938 175.175781 70.871094 175.496094 70.835938 C 175.820312 70.859375 176.160156 70.84375 176.390625 70.820312 C 176.640625 70.804688 176.839844 70.773438 177.027344 70.738281 C 177.40625 70.683594 177.757812 70.605469 178.445312 70.703125 L 178.390625 70.605469 C 179.957031 70.53125 181.519531 70.589844 183.042969 70.789062 C 184.5625 70.984375 186.050781 71.304688 187.441406 71.820312 L 187.96875 72 L 188.476562 72.222656 C 188.808594 72.375 189.15625 72.503906 189.480469 72.671875 C 190.121094 73.027344 190.777344 73.339844 191.363281 73.773438 L 191.816406 74.074219 L 192.042969 74.222656 L 192.3125 74.417969 C 192.671875 74.679688 193.042969 74.9375 193.417969 75.195312 C 194.164062 75.710938 194.9375 76.210938 195.726562 76.683594 C 200.09375 78.941406 205.148438 81.015625 210.265625 81.726562 C 213.011719 82.101562 215.894531 82.179688 218.636719 81.984375 C 221.386719 81.804688 223.984375 81.316406 226.226562 80.761719 C 226.757812 80.609375 227.230469 80.558594 227.691406 80.539062 C 228.152344 80.511719 228.59375 80.5 229.070312 80.457031 C 231.128906 79.910156 233.417969 79.160156 235.738281 78.328125 C 238.039062 77.441406 240.371094 76.460938 242.449219 75.339844 C 242.371094 75.375 242.289062 75.410156 242.238281 75.433594 C 243.355469 74.863281 244.375 74.449219 245.359375 73.980469 C 246.347656 73.527344 247.34375 73.089844 248.378906 72.4375 C 248.324219 72.367188 248.648438 72.171875 248.785156 72.042969 C 248.855469 72.058594 249.097656 71.949219 249.464844 71.738281 C 249.648438 71.632812 249.867188 71.507812 250.109375 71.355469 C 250.167969 71.320312 250.230469 71.28125 250.296875 71.242188 C 250.386719 71.179688 250.484375 71.117188 250.582031 71.050781 C 250.789062 70.910156 251.007812 70.757812 251.238281 70.605469 C 252.125 69.988281 253.152344 69.277344 254.25 68.515625 C 254.515625 68.328125 254.785156 68.140625 255.058594 67.949219 C 255.089844 67.925781 255.132812 67.898438 255.15625 67.875 L 255.207031 67.804688 L 255.523438 67.382812 C 255.808594 67.011719 256.097656 66.632812 256.386719 66.253906 C 256.679688 65.886719 256.972656 65.515625 257.261719 65.148438 C 257.398438 64.96875 257.574219 64.785156 257.675781 64.617188 C 257.742188 64.464844 257.789062 64.246094 257.789062 64 C 257.800781 63.511719 257.609375 62.964844 257.339844 62.625 C 257.066406 62.265625 256.792969 62.230469 256.511719 62.097656 C 256.242188 61.984375 255.988281 61.878906 255.757812 61.785156 C 255.453125 61.667969 255.183594 61.566406 254.949219 61.480469 C 254.714844 61.386719 254.523438 61.3125 254.378906 61.246094 C 254.308594 61.214844 254.25 61.1875 254.207031 61.160156 C 254.15625 61.136719 254.09375 61.125 254.070312 61.109375 C 253.695312 61.046875 253.308594 60.980469 252.910156 60.914062 L 252.855469 60.902344 C 251.847656 60.804688 250.957031 60.570312 249.992188 60.378906 C 249.515625 60.277344 249.058594 60.144531 248.601562 60.003906 C 248.273438 59.894531 248.023438 59.816406 247.738281 59.699219 C 246.621094 59.285156 245.542969 58.792969 244.496094 58.285156 C 242.414062 57.25 240.496094 56.109375 238.71875 55.136719 C 237.855469 54.863281 236.910156 54.488281 236.160156 54.257812 C 235.65625 53.726562 235.292969 53.910156 234.511719 53.371094 C 233.699219 52.363281 232.878906 51.804688 232.417969 51.578125 C 231.960938 51.355469 231.851562 51.476562 232.339844 51.902344 C 231.886719 51.683594 231.433594 51.460938 230.980469 51.242188 C 230.527344 51.035156 230.074219 50.828125 229.628906 50.621094 C 228.75 50.183594 227.855469 49.847656 227.019531 49.523438 C 226.234375 49.253906 225.421875 49.082031 224.609375 48.878906 C 224.261719 48.800781 224.007812 48.699219 223.800781 48.582031 C 223.589844 48.476562 223.429688 48.351562 223.28125 48.210938 C 222.386719 48.03125 222.082031 47.925781 221.773438 47.796875 C 221.464844 47.65625 221.144531 47.511719 220.214844 47.28125 C 220.015625 47.101562 218.8125 46.929688 217.589844 46.917969 C 216.980469 46.902344 216.375 46.867188 215.878906 46.882812 C 215.386719 46.890625 215.015625 46.886719 214.882812 46.855469 L 215.199219 46.839844 C 214.648438 46.777344 214.148438 46.691406 213.671875 46.589844 C 213.195312 46.503906 212.738281 46.421875 212.28125 46.335938 C 211.824219 46.253906 211.363281 46.160156 210.882812 46.101562 C 210.402344 46.0625 209.898438 46.039062 209.351562 46.050781 C 206.304688 46.0625 203.121094 46.519531 200.089844 47.324219 C 199.335938 47.546875 198.585938 47.765625 197.84375 47.984375 C 197.117188 48.246094 196.394531 48.503906 195.679688 48.761719 C 194.96875 49.019531 194.304688 49.351562 193.628906 49.632812 C 192.960938 49.929688 192.289062 50.195312 191.652344 50.492188 C 191.722656 50.761719 192.757812 49.925781 192.980469 50.253906 C 192.601562 50.414062 192.214844 50.5625 191.839844 50.730469 L 190.722656 51.269531 C 189.976562 51.628906 189.210938 51.964844 188.464844 52.339844 C 187.019531 53.160156 185.511719 53.929688 184.1875 54.960938 C 183.660156 55.257812 182.972656 55.585938 182.691406 55.679688 C 181.796875 56.289062 182.300781 56.203125 181.679688 56.6875 L 181.421875 56.550781 C 180.703125 57.476562 179.925781 57.414062 179.234375 58.273438 C 179.269531 58.394531 178.996094 58.679688 178.714844 58.945312 C 178.496094 58.757812 177.878906 59.792969 177.730469 59.574219 L 177.738281 59.597656 C 177.566406 59.753906 177.476562 59.898438 177.246094 60.074219 C 177.128906 60.265625 176.53125 61.269531 175.933594 62.269531 C 175.382812 63.296875 174.847656 64.3125 174.753906 64.523438 C 174.699219 64.566406 174.648438 64.613281 174.59375 64.65625 C 174.238281 65.15625 174.253906 65.492188 174.507812 65.234375 L 174.046875 65.828125 L 174.082031 65.746094 L 173.628906 66.339844 C 173.527344 66.433594 173.324219 66.484375 173.347656 66.238281 C 173.171875 66.632812 172.96875 67.070312 172.683594 67.390625 C 173.082031 66.945312 173.539062 66.460938 174.039062 66.003906 C 174.539062 65.546875 175.019531 65.074219 175.523438 64.699219 C 175.277344 65.136719 174.640625 65.785156 174.335938 66.238281 C 173.785156 66.632812 172.917969 67.660156 172.226562 68.457031 C 172.113281 68.660156 172.304688 68.96875 171.914062 69.335938 C 171.65625 69.417969 171.617188 69.6875 171.429688 69.941406 C 171.40625 69.886719 171.398438 69.835938 171.390625 69.78125 C 171.558594 69.445312 171.777344 69.148438 171.984375 68.828125 C 171.847656 68.796875 171.640625 69.046875 171.4375 69.339844 C 171.449219 69.289062 171.457031 69.230469 171.460938 69.179688 C 171.152344 68.632812 170.867188 67.980469 170.570312 67.316406 C 170.421875 66.984375 170.273438 66.644531 170.113281 66.316406 C 170.011719 66.097656 169.90625 65.882812 169.804688 65.667969 C 169.671875 65.402344 169.542969 65.136719 169.414062 64.875 C 169.429688 64.917969 169.441406 64.957031 169.449219 64.988281 C 169.1875 64.433594 169.03125 63.898438 168.863281 63.339844 C 168.78125 63.066406 168.707031 62.773438 168.59375 62.511719 C 168.542969 62.378906 168.484375 62.246094 168.425781 62.113281 C 168.355469 61.996094 168.28125 61.886719 168.203125 61.773438 C 168.152344 61.867188 168.058594 61.726562 167.988281 61.710938 C 168.003906 61.640625 167.949219 61.527344 167.84375 61.386719 C 167.792969 61.316406 167.726562 61.234375 167.648438 61.152344 C 167.570312 61.082031 167.484375 61.007812 167.390625 60.929688 C 167.195312 60.765625 166.992188 60.640625 166.757812 60.503906 C 166.523438 60.378906 166.210938 60.253906 165.859375 60.183594 C 165.152344 60.03125 164.347656 60.179688 163.867188 60.433594 C 163.378906 60.679688 163.167969 60.945312 163.089844 60.914062 C 163.023438 60.980469 162.957031 61.050781 162.890625 61.121094 C 162.707031 61.238281 162.527344 61.320312 162.328125 61.453125 L 162.027344 61.628906 L 161.71875 61.84375 C 161.304688 62.144531 160.894531 62.550781 160.46875 62.953125 C 159.648438 63.726562 158.597656 64.875 158.375 65.246094 C 158.417969 65.515625 158.171875 66.144531 158.15625 66.535156 C 157.78125 66.761719 158.042969 66.964844 157.792969 67.308594 C 157.125 67.636719 156.890625 68.085938 156.867188 68.320312 C 156.847656 68.5625 157 68.59375 157.191406 68.332031 C 157.15625 68.757812 157.167969 69.191406 157.238281 69.589844 C 157.316406 69.980469 157.425781 70.371094 157.589844 70.734375 C 157.613281 70.785156 157.632812 70.832031 157.65625 70.878906 L 157.96875 71.375 L 158.125 71.617188 C 158.179688 71.699219 158.207031 71.726562 158.253906 71.78125 C 158.398438 71.945312 158.332031 72.101562 158.195312 72.273438 C 158.511719 72.71875 158.265625 72.652344 158.40625 73.199219 C 158.199219 73.433594 159.375 74.304688 159.359375 74.484375 L 159.285156 74.414062 C 159.492188 75.027344 159.152344 75.640625 159.378906 76.226562 C 159.875 77.917969 160.824219 79.59375 161.371094 81.125 C 161.652344 81.019531 161.171875 80.820312 161.527344 80.648438 C 161.855469 81.546875 161.894531 82.578125 162.230469 83.488281 C 162.222656 83.679688 162.167969 83.933594 162.113281 84.042969 C 162.132812 84.371094 162.316406 84.15625 162.371094 84.378906 L 162.132812 84.511719 C 162.46875 84.726562 162.050781 85.074219 162.273438 85.316406 C 162.378906 85.285156 162.4375 85.386719 162.472656 85.488281 C 162.214844 85.609375 162.625 85.792969 162.378906 85.882812 L 162.402344 85.878906 C 162.421875 85.941406 162.457031 85.976562 162.445312 86.070312 C 162.585938 86.148438 163.773438 86.925781 163.9375 86.996094 L 163.917969 87.070312 C 163.953125 87.140625 164.011719 87.171875 164.070312 87.179688 C 163.988281 87.199219 163.902344 87.214844 163.816406 87.234375 C 163.511719 87.296875 163.195312 87.339844 162.859375 87.445312 C 162.515625 87.535156 162.148438 87.632812 161.734375 87.742188 C 161.328125 87.886719 160.875 88.042969 160.363281 88.222656 L 160.527344 88.265625 C 158.214844 89.269531 156.191406 90.953125 154.71875 92.921875 C 153.238281 94.894531 152.210938 97.078125 151.441406 99.289062 C 151.246094 99.84375 151.117188 100.402344 150.953125 100.957031 C 150.808594 101.515625 150.613281 102.074219 150.527344 102.636719 L 150.203125 104.316406 L 150.042969 105.15625 L 149.925781 105.960938 L 149.464844 109.167969 L 149.054688 112.382812 C 148.898438 113.636719 148.757812 114.890625 148.625 116.144531 C 148.144531 115.957031 147.613281 115.726562 146.835938 115.308594 L 146.867188 115.429688 C 136.421875 111.0625 125.910156 106.761719 115.230469 102.53125 C 114.324219 102.21875 113.429688 101.894531 112.425781 101.566406 C 111.9375 101.40625 111.453125 101.226562 110.957031 101.074219 C 110.457031 100.925781 109.957031 100.777344 109.457031 100.628906 C 108.960938 100.472656 108.453125 100.332031 107.945312 100.207031 C 107.433594 100.074219 106.925781 99.945312 106.414062 99.8125 C 105.382812 99.59375 104.351562 99.335938 103.304688 99.15625 C 99.125 98.390625 94.816406 98.027344 90.621094 98.25 C 88.359375 98.339844 86.070312 98.640625 83.796875 99.011719 C 81.53125 99.417969 79.285156 99.949219 77.117188 100.601562 C 72.785156 101.902344 68.800781 103.710938 65.464844 105.59375 C 63.898438 106.53125 62.625 106.957031 61.226562 107.675781 C 58.261719 109.605469 55.035156 112.011719 52 114.796875 C 48.964844 117.578125 46.144531 120.746094 43.808594 123.9375 C 43.902344 123.820312 43.992188 123.710938 44.050781 123.636719 C 41.542969 126.992188 39.554688 129.472656 37.621094 133.128906 C 37.707031 133.152344 37.410156 133.71875 37.300781 134.011719 C 36.90625 134.195312 34.308594 139.75 32.765625 145.703125 C 31.167969 151.652344 30.757812 157.863281 30.636719 158.5625 C 30.617188 158.988281 30.59375 159.425781 30.570312 159.875 C 30.164062 164.160156 30.03125 168.570312 30.332031 172.828125 C 30.601562 177.089844 31.394531 181.175781 32.546875 184.738281 C 32.894531 185.484375 33.199219 186.289062 33.589844 187.03125 C 33.96875 187.777344 34.34375 188.488281 34.683594 189.082031 C 34.828125 189.730469 35.011719 190.082031 35.246094 190.445312 C 35.46875 190.8125 35.722656 191.203125 36.019531 191.933594 C 36.128906 192.433594 36.246094 192.90625 36.367188 193.339844 C 36.507812 193.769531 36.652344 194.160156 36.789062 194.515625 C 37.0625 195.226562 37.320312 195.78125 37.519531 196.148438 C 37.917969 196.882812 38.085938 196.867188 37.738281 195.875 C 38.125 196.609375 38.582031 197.300781 39 198.011719 C 39.429688 198.710938 39.816406 199.433594 40.265625 200.101562 C 41.167969 201.4375 41.980469 202.78125 42.90625 203.925781 L 44.203125 205.503906 C 44.644531 206.023438 45.125 206.511719 45.589844 207.015625 C 46.402344 207.855469 46.707031 208.449219 46.980469 208.996094 C 48.054688 210.042969 48.402344 210.4375 48.746094 210.867188 C 49.078125 211.304688 49.445312 211.738281 50.570312 212.839844 C 50.660156 213.023438 51.085938 213.433594 51.683594 213.949219 C 52.292969 214.449219 53.109375 215.023438 53.914062 215.605469 C 54.324219 215.890625 54.714844 216.199219 55.121094 216.445312 C 55.519531 216.699219 55.902344 216.941406 56.242188 217.15625 C 56.921875 217.585938 57.429688 217.921875 57.597656 218.070312 L 57.160156 217.800781 C 57.523438 218.070312 57.855469 218.351562 58.199219 218.59375 C 58.539062 218.839844 58.867188 219.078125 59.183594 219.316406 C 59.816406 219.796875 60.410156 220.265625 61.007812 220.734375 C 61.617188 221.175781 62.242188 221.597656 62.898438 222.035156 C 63.5625 222.457031 64.246094 222.925781 65.058594 223.300781 C 69.441406 225.632812 74.34375 227.46875 79.316406 228.621094 C 84.28125 229.8125 89.296875 230.347656 93.90625 230.421875 C 94 230.117188 91.871094 230.46875 91.777344 230.042969 C 97.167969 230.296875 102.71875 230.222656 108.117188 228.976562 C 109.109375 228.851562 110.320312 228.636719 110.792969 228.621094 C 112.527344 228.226562 111.753906 228.179688 113.003906 227.832031 L 113.257812 228.035156 C 114.917969 227.253906 115.828125 227.488281 117.390625 226.851562 C 117.4375 226.71875 118.015625 226.511719 118.582031 226.328125 C 118.699219 226.589844 120.3125 225.726562 120.308594 226.003906 L 120.320312 225.976562 C 120.660156 225.867188 120.894531 225.769531 121.328125 225.675781 C 121.9375 225.363281 127.761719 222.578125 128.382812 222.238281 L 128.703125 222.183594 C 129.605469 221.867188 129.933594 221.535156 129.390625 221.664062 L 130.511719 221.304688 L 130.390625 221.367188 L 131.507812 221.007812 C 131.71875 220.960938 131.988281 221.011719 131.707031 221.238281 C 132.308594 220.929688 133.003906 220.640625 133.644531 220.480469 C 131.84375 220.898438 129.597656 221.390625 127.679688 221.730469 C 128.40625 221.382812 129.8125 221.070312 130.621094 220.765625 C 131.648438 220.617188 133.699219 220.097656 135.292969 219.699219 C 135.632812 219.570312 135.78125 219.183594 136.597656 219.054688 C 137.039062 219.140625 137.476562 218.753906 138.164062 218.6875 C 137.453125 219.050781 136.710938 219.246094 135.957031 219.488281 C 136.15625 219.695312 137.835938 219.042969 138.449219 218.914062 C 138.707031 218.738281 140.183594 218.332031 141.074219 217.957031 C 140.859375 218.203125 141.261719 218.085938 141.722656 217.960938 C 141.808594 217.914062 141.902344 217.867188 141.996094 217.816406 C 141.90625 217.863281 141.816406 217.914062 141.734375 217.957031 C 141.976562 217.894531 142.234375 217.828125 142.429688 217.808594 C 143.050781 217.632812 143.421875 217.402344 143.148438 217.402344 C 143.175781 217.328125 143.070312 217.324219 142.898438 217.347656 C 143.046875 217.269531 143.195312 217.195312 143.34375 217.117188 C 143.480469 217.6875 143.625 218.261719 143.789062 218.855469 C 145.597656 223.824219 148.234375 229.339844 152 234.363281 C 153.875 236.871094 156.007812 239.261719 158.378906 241.355469 C 160.746094 243.460938 163.316406 245.292969 165.957031 246.785156 C 165.761719 246.664062 165.574219 246.550781 165.449219 246.472656 C 168.226562 248.109375 170.761719 249.347656 173.351562 250.390625 C 175.945312 251.433594 178.609375 252.253906 181.675781 252.832031 C 181.664062 252.746094 182.613281 252.929688 183.082031 252.949219 C 183.207031 253.019531 183.867188 253.160156 184.933594 253.328125 C 186.003906 253.460938 187.480469 253.652344 189.226562 253.738281 C 192.722656 253.949219 197.300781 253.847656 201.839844 253.328125 C 210.9375 252.332031 219.738281 249.683594 220.785156 249.519531 C 221.089844 249.433594 221.398438 249.34375 221.714844 249.253906 C 222.207031 249.109375 222.4375 248.984375 222.761719 248.871094 C 224.265625 248.34375 225.78125 247.824219 227.28125 247.25 C 228.792969 246.707031 230.277344 246.089844 231.773438 245.5 C 234.742188 244.253906 237.675781 242.941406 240.484375 241.460938 C 243.289062 239.980469 245.984375 238.378906 248.488281 236.648438 C 250.984375 234.898438 253.28125 233.015625 255.316406 231.046875 C 256.980469 229.234375 258.683594 227.035156 259.808594 225.296875 C 261.179688 223.832031 261.144531 223.324219 262.519531 221.359375 C 263.53125 220.195312 264.324219 219.054688 264.953125 218.078125 C 265.542969 217.082031 266.007812 216.269531 266.246094 215.671875 C 266.753906 214.496094 266.652344 214.339844 265.867188 215.726562 C 267.945312 211.109375 269.261719 206.152344 269.746094 201.699219 C 269.929688 199.628906 269.945312 197.570312 269.863281 195.492188 C 269.773438 193.730469 269.804688 192.75 269.945312 191.84375 C 269.683594 189.59375 269.566406 188.8125 269.503906 187.988281 Z M 166.46875 86.882812 C 166.589844 86.757812 166.769531 86.464844 167.054688 86.5 C 167.152344 86.8125 166.632812 86.546875 166.816406 86.835938 C 167.003906 86.648438 167.035156 86.820312 167.121094 86.933594 C 166.894531 86.925781 166.679688 86.921875 166.476562 86.925781 C 166.472656 86.914062 166.46875 86.894531 166.46875 86.882812 Z M 165.164062 89.234375 C 165.140625 89.226562 165.121094 89.222656 165.109375 89.21875 L 165.132812 89.128906 C 165.1875 89.152344 165.253906 89.207031 165.304688 89.277344 C 165.277344 89.269531 165.257812 89.261719 165.234375 89.253906 C 165.171875 89.355469 165.28125 89.527344 165.339844 89.632812 C 165.433594 89.59375 165.433594 89.550781 165.476562 89.535156 C 165.527344 89.550781 165.578125 89.585938 165.621094 89.625 C 165.632812 89.640625 165.644531 89.652344 165.65625 89.664062 L 165.648438 89.699219 C 165.683594 89.722656 165.710938 89.753906 165.738281 89.785156 C 165.742188 89.8125 165.738281 89.839844 165.710938 89.871094 C 165.664062 89.863281 165.664062 89.800781 165.652344 89.761719 C 165.679688 89.847656 165.367188 89.71875 165.066406 89.589844 C 165.105469 89.460938 165.03125 89.269531 165.164062 89.234375 Z M 166.105469 89.386719 C 166.125 89.449219 166.054688 89.464844 165.945312 89.449219 C 166 89.410156 166.058594 89.382812 166.105469 89.386719 Z M 164.710938 87.0625 C 164.617188 87.074219 164.527344 87.09375 164.4375 87.109375 C 164.46875 86.949219 164.503906 86.785156 164.546875 86.628906 C 164.664062 86.703125 164.667969 86.910156 164.710938 87.058594 Z M 164.191406 87.15625 C 164.207031 87.140625 164.222656 87.125 164.222656 87.097656 L 164.242188 87.144531 C 164.222656 87.148438 164.207031 87.152344 164.191406 87.15625 Z M 139.59375 216.25 C 139.082031 216.34375 138.125 216.601562 138.203125 216.394531 C 137.566406 216.824219 137.0625 216.644531 136.25 216.992188 C 135.542969 217.328125 136.324219 217.058594 135.828125 217.328125 C 134.722656 217.675781 133.175781 218.167969 132.292969 218.421875 C 131.910156 218.382812 130.796875 218.457031 131.480469 217.96875 C 133.15625 217.4375 130.957031 218.570312 132.679688 217.933594 C 131.828125 217.832031 134.1875 217.320312 134.425781 216.949219 C 133.828125 216.976562 132.703125 217.351562 131.78125 217.710938 L 131.980469 217.695312 C 131.167969 218.019531 129.535156 218.648438 128.585938 218.761719 C 128.761719 218.566406 128.339844 218.605469 128.941406 218.371094 L 127.792969 218.730469 C 127.660156 218.820312 127.523438 218.910156 127.863281 218.824219 C 127.351562 219.101562 126.800781 219.230469 126.363281 219.296875 C 126.199219 219.207031 120.476562 221.875 120.636719 221.730469 C 120.25 221.863281 119.988281 221.90625 119.738281 221.953125 C 121.753906 221.171875 126.265625 219.296875 125.429688 219.613281 C 124.683594 219.707031 116.339844 223.382812 115.753906 223.308594 C 115.148438 223.519531 114.425781 223.796875 114.613281 223.878906 C 113.566406 224.160156 114.835938 223.523438 114.066406 223.648438 C 114.054688 223.675781 114.144531 223.695312 113.910156 223.769531 L 113.152344 223.839844 C 112.390625 224.214844 111.40625 224.503906 110.414062 224.808594 C 109.917969 224.964844 109.410156 225.082031 108.933594 225.234375 C 108.453125 225.378906 108 225.550781 107.589844 225.707031 C 108.050781 225.460938 108.539062 225.039062 109.578125 224.621094 L 109.785156 224.640625 C 109.929688 224.570312 110.789062 224.238281 110.722656 224.117188 C 110.464844 224.175781 110.21875 224.238281 109.976562 224.304688 C 109.734375 224.363281 109.496094 224.425781 109.257812 224.496094 C 108.78125 224.636719 108.308594 224.808594 107.785156 225.015625 C 107.574219 225.023438 107.332031 225.042969 107.167969 225.039062 C 107.175781 225.058594 107.199219 225.066406 107.199219 225.089844 C 106.824219 225.085938 106.859375 225.0625 106.976562 224.980469 C 106.988281 224.96875 107.007812 224.953125 107.042969 224.933594 C 106.671875 224.804688 105.691406 225.125 104.535156 225.40625 C 103.382812 225.730469 102.054688 226.007812 101.089844 226.035156 C 100.53125 226.152344 101.042969 226.109375 100.347656 226.257812 C 99.855469 226.269531 99.398438 226.277344 98.960938 226.285156 C 98.523438 226.277344 98.101562 226.269531 97.679688 226.265625 C 96.835938 226.269531 95.984375 226.222656 94.957031 226.199219 C 94.304688 226.386719 94.25 226.457031 95.046875 226.621094 C 94.527344 226.625 94.007812 226.585938 93.488281 226.5625 C 94.199219 226.339844 93.472656 226.21875 92.773438 226.101562 C 92.070312 225.988281 91.394531 225.816406 92.175781 225.632812 C 91.730469 225.5 90.816406 225.441406 89.953125 225.457031 C 89.859375 225.566406 89.710938 225.738281 88.628906 225.640625 C 87.882812 225.5 87.601562 225.433594 87.351562 225.378906 C 87.101562 225.320312 86.882812 225.269531 86.273438 225.117188 C 86 224.929688 86.460938 224.925781 86.425781 224.800781 C 85.460938 224.785156 85.066406 224.605469 84.683594 224.445312 C 84.304688 224.269531 83.9375 224.113281 83.054688 223.9375 C 82.5 223.84375 81.675781 223.699219 80.980469 223.578125 C 80.285156 223.453125 79.714844 223.386719 79.65625 223.507812 C 78.179688 223.117188 78.242188 222.902344 78.441406 222.746094 L 77.265625 222.378906 C 81.085938 223.496094 85.183594 224.425781 89.292969 224.875 C 87.074219 224.46875 84.789062 223.910156 82.527344 223.261719 C 80.269531 222.609375 78.015625 221.914062 75.867188 221.105469 C 71.539062 219.589844 67.539062 218.027344 64.0625 217.0625 C 64.042969 216.90625 63.914062 216.695312 63.699219 216.449219 C 63.492188 216.191406 63.210938 215.886719 62.871094 215.558594 C 62.535156 215.230469 62.144531 214.882812 61.726562 214.527344 C 61.515625 214.351562 61.300781 214.175781 61.082031 213.992188 C 60.871094 213.804688 60.660156 213.613281 60.449219 213.421875 C 59.605469 212.652344 58.726562 211.980469 58.097656 211.417969 C 57.46875 210.863281 57.023438 210.515625 56.949219 210.535156 C 56.574219 210.285156 56.203125 210.035156 55.828125 209.785156 C 55.457031 209.527344 55.113281 209.238281 54.753906 208.960938 C 54.046875 208.390625 53.304688 207.847656 52.628906 207.222656 C 48.289062 203.355469 44.433594 198.464844 41.632812 192.824219 C 38.75 187.21875 36.898438 180.914062 36.027344 174.429688 C 35.9375 173.523438 35.785156 172.433594 35.667969 171.191406 C 35.628906 170.570312 35.589844 169.910156 35.546875 169.21875 C 35.523438 168.875 35.5 168.523438 35.476562 168.164062 C 35.464844 167.804688 35.46875 167.4375 35.464844 167.066406 C 35.457031 166.320312 35.449219 165.550781 35.441406 164.765625 C 35.476562 163.976562 35.511719 163.171875 35.550781 162.355469 C 35.570312 161.949219 35.578125 161.535156 35.613281 161.121094 C 35.65625 160.710938 35.699219 160.296875 35.742188 159.882812 C 35.839844 159.050781 35.886719 158.210938 36.027344 157.378906 C 36.164062 156.550781 36.296875 155.71875 36.433594 154.890625 C 36.488281 154.480469 36.585938 154.074219 36.675781 153.667969 C 36.765625 153.265625 36.855469 152.863281 36.945312 152.464844 C 37.257812 150.855469 37.769531 149.347656 38.164062 147.910156 C 38.382812 147.195312 38.644531 146.523438 38.871094 145.867188 C 39.113281 145.21875 39.304688 144.585938 39.558594 144.011719 C 40.054688 142.859375 40.488281 141.835938 40.867188 141 C 41.347656 140.046875 41.828125 139.101562 42.3125 138.140625 C 41.484375 139.71875 41.460938 139.707031 40.652344 141.304688 C 42.164062 137.0625 44.011719 133.371094 46.109375 129.953125 C 45.597656 130.460938 45.367188 130.453125 44.324219 131.78125 C 44.707031 131.214844 45.09375 130.652344 45.523438 130.113281 C 45.703125 129.667969 45.992188 129.109375 46.339844 128.496094 C 46.707031 127.894531 47.148438 127.246094 47.589844 126.59375 C 48.023438 125.929688 48.53125 125.320312 48.957031 124.734375 C 49.175781 124.441406 49.378906 124.164062 49.570312 123.910156 C 49.769531 123.660156 49.945312 123.429688 50.097656 123.222656 C 50.039062 123.460938 50.28125 123.285156 50.660156 122.921875 C 51.039062 122.558594 51.550781 122.003906 52.0625 121.515625 L 51.566406 121.816406 C 55.28125 117.933594 60.019531 113.820312 64.171875 111.390625 C 64.738281 111.035156 65.210938 110.847656 65.515625 110.773438 C 66.167969 110.378906 66.8125 109.957031 67.480469 109.585938 C 68.152344 109.21875 68.8125 108.832031 69.496094 108.480469 C 69.300781 108.886719 73.0625 107.15625 71.148438 108.21875 C 71.886719 107.78125 72.675781 107.4375 73.453125 107.074219 C 74.238281 106.734375 75.046875 106.445312 75.84375 106.136719 C 76.648438 105.863281 77.453125 105.589844 78.25 105.320312 C 79.050781 105.078125 79.835938 104.792969 80.613281 104.523438 C 86.3125 103.160156 92.414062 102.652344 98.507812 103.183594 C 101.554688 103.445312 104.59375 103.960938 107.578125 104.722656 L 109.804688 105.335938 L 112.003906 106.042969 C 113.496094 106.554688 114.988281 107.0625 116.476562 107.566406 L 116.226562 107.355469 C 120.402344 108.742188 124.230469 109.574219 129.152344 111.652344 C 132.859375 112.632812 138.007812 114.351562 139.648438 114.304688 C 143.394531 115.625 145.191406 116.027344 148.523438 117.0625 C 147.785156 124.085938 147.289062 131.113281 146.597656 138.074219 C 146.214844 143.769531 145.527344 149.65625 144.507812 155.539062 C 144.257812 157.011719 143.960938 158.476562 143.6875 159.949219 C 143.398438 161.417969 143.070312 162.878906 142.761719 164.34375 C 142.449219 165.804688 142.082031 167.257812 141.75 168.707031 C 141.574219 169.457031 141.398438 170.203125 141.226562 170.945312 C 141.054688 171.710938 140.894531 172.476562 140.75 173.242188 C 139.503906 179.824219 139.070312 186.753906 139.332031 193.425781 C 139.472656 196.757812 139.773438 200.027344 140.242188 203.152344 C 140.71875 206.273438 141.34375 209.253906 142.089844 212.007812 C 142.425781 213.207031 142.679688 214.261719 142.914062 215.273438 C 142.652344 215.367188 142.382812 215.464844 142.125 215.558594 C 141.957031 215.496094 141.28125 215.554688 140.234375 215.820312 C 139.351562 216.140625 139.742188 216.109375 139.59375 216.246094 Z M 142.84375 217.351562 C 142.304688 217.441406 141.234375 217.796875 141.296875 217.632812 C 141.234375 217.671875 141.179688 217.707031 141.144531 217.730469 L 140.753906 217.800781 C 140.96875 217.683594 141.359375 217.507812 141.773438 217.351562 C 141.683594 217.40625 141.601562 217.453125 141.523438 217.5 C 141.84375 217.480469 142.695312 217.175781 143.304688 216.957031 C 143.3125 217 143.324219 217.042969 143.335938 217.085938 C 143.175781 217.171875 143.007812 217.261719 142.84375 217.351562 Z M 264.828125 201.777344 C 264.34375 206.246094 263.011719 210.683594 260.902344 214.816406 C 259.84375 216.878906 258.613281 218.878906 257.183594 220.761719 C 255.761719 222.644531 254.171875 224.433594 252.460938 226.121094 C 250.746094 227.808594 248.871094 229.363281 246.929688 230.851562 C 244.976562 232.324219 242.910156 233.679688 240.785156 234.96875 C 238.417969 236.378906 234.953125 238.292969 230.777344 240.160156 C 228.695312 241.101562 226.433594 242.023438 224.074219 242.917969 C 222.894531 243.367188 221.679688 243.777344 220.464844 244.21875 C 219.289062 244.507812 218.105469 244.800781 216.917969 245.09375 C 211.847656 246.261719 206.722656 247.082031 202.171875 247.457031 C 197.621094 247.84375 193.664062 247.777344 190.902344 247.539062 C 190.101562 247.484375 189.308594 247.378906 188.507812 247.308594 C 187.710938 247.226562 186.925781 247.089844 186.125 246.988281 C 187.445312 247.191406 188.101562 247.3125 188.773438 247.371094 C 189.105469 247.410156 189.441406 247.449219 189.859375 247.496094 C 190.066406 247.519531 190.296875 247.546875 190.558594 247.574219 C 190.820312 247.59375 191.113281 247.617188 191.449219 247.640625 C 184.671875 247.605469 178.5625 246.542969 173.089844 244.371094 C 173.542969 244.632812 173.796875 244.8125 174.214844 245.070312 C 174.628906 245.339844 175.226562 245.640625 176.367188 246.152344 L 174.953125 245.597656 C 174.484375 245.40625 174.027344 245.1875 173.5625 244.988281 C 172.875 244.839844 172.019531 244.503906 171.050781 244.128906 C 170.105469 243.710938 169.054688 243.226562 168.042969 242.648438 C 166.007812 241.527344 164.078125 240.167969 162.863281 239.269531 C 163.191406 239.375 162.875 239.082031 162.328125 238.53125 C 162.050781 238.261719 161.707031 237.9375 161.332031 237.597656 C 160.976562 237.238281 160.59375 236.859375 160.222656 236.492188 L 160.71875 237.167969 C 157.839844 234.425781 155.164062 231.011719 152.972656 227.402344 C 150.796875 223.78125 149.109375 219.96875 147.984375 216.53125 C 147.652344 215.578125 147.519531 214.828125 147.460938 214.367188 C 146.742188 212.171875 146.132812 209.933594 145.621094 207.664062 C 145.824219 207.898438 145.59375 206.472656 145.476562 205.382812 C 145.347656 204.296875 145.261719 203.554688 145.625 205.175781 C 144.421875 200.09375 144.285156 194.765625 143.988281 189.777344 C 144.039062 185.3125 144.390625 180.777344 145.117188 176.261719 C 145.292969 175.132812 145.503906 174.007812 145.734375 172.886719 C 145.84375 172.324219 145.980469 171.769531 146.101562 171.207031 L 146.492188 169.480469 C 146.753906 168.320312 147.011719 167.15625 147.273438 165.992188 C 147.507812 164.820312 147.738281 163.648438 147.972656 162.472656 C 148.863281 157.769531 149.582031 153.011719 150.113281 148.25 C 150.640625 143.488281 150.972656 138.722656 151.226562 134.003906 L 151.078125 134.457031 C 151.363281 128.914062 151.238281 123.902344 151.765625 117.734375 C 152.210938 117.820312 152.410156 117.8125 151.78125 117.535156 C 151.878906 116.410156 151.996094 115.25 152.144531 114.039062 C 152.25 111.175781 152.460938 107.707031 152.753906 104.679688 C 152.84375 103.921875 152.902344 103.1875 153.003906 102.5 C 153.128906 101.816406 153.238281 101.171875 153.332031 100.582031 C 153.40625 99.984375 153.574219 99.472656 153.65625 99.011719 C 153.75 98.554688 153.816406 98.167969 153.84375 97.859375 C 154.183594 97.078125 154.515625 96.355469 154.835938 95.679688 C 155.226562 95.039062 155.550781 94.414062 155.933594 93.859375 C 156.136719 93.585938 156.332031 93.324219 156.527344 93.0625 C 156.722656 92.804688 156.898438 92.535156 157.128906 92.316406 C 157.347656 92.085938 157.558594 91.859375 157.773438 91.632812 L 158.09375 91.296875 L 158.449219 90.996094 C 160.03125 89.640625 161.960938 88.503906 164.660156 87.976562 C 164.660156 88.039062 164.660156 88.105469 164.660156 88.167969 C 164.703125 88.222656 165.015625 88.140625 164.945312 88.335938 C 164.773438 88.488281 165.019531 88.488281 164.921875 88.667969 C 164.757812 88.582031 164.75 88.429688 164.703125 88.289062 C 164.472656 88.414062 164.683594 88.6875 164.660156 88.824219 C 164.757812 88.84375 164.789062 89.136719 164.929688 89.273438 C 164.757812 89.289062 164.773438 89.367188 164.777344 89.460938 C 164.789062 89.46875 164.804688 89.476562 164.816406 89.480469 C 164.800781 89.476562 164.789062 89.46875 164.777344 89.464844 C 164.78125 89.515625 164.785156 89.566406 164.753906 89.617188 C 164.777344 89.742188 164.898438 89.769531 164.960938 89.691406 C 165.019531 89.675781 165.046875 89.640625 165.0625 89.601562 C 165.390625 89.769531 165.746094 89.976562 165.726562 89.910156 C 165.734375 89.863281 165.773438 89.851562 165.816406 89.839844 C 165.835938 89.847656 165.863281 89.84375 165.890625 89.828125 C 165.949219 89.820312 166.003906 89.808594 166.003906 89.753906 L 165.925781 89.734375 C 165.785156 89.222656 167.476562 89.574219 167.308594 88.980469 C 167.117188 89.351562 166.96875 89.027344 166.824219 88.789062 C 166.917969 88.71875 167.015625 88.542969 167.015625 88.328125 C 166.925781 88.175781 166.867188 88.28125 166.777344 88.28125 C 166.808594 88.164062 166.789062 87.972656 166.957031 87.925781 C 166.71875 87.882812 166.992188 87.679688 166.863281 87.558594 C 166.722656 87.464844 166.785156 87.601562 166.65625 87.546875 C 166.652344 87.539062 166.652344 87.527344 166.648438 87.519531 C 166.855469 87.492188 167.09375 87.464844 167.347656 87.445312 C 167.710938 87.4375 168.105469 87.425781 168.484375 87.417969 C 168.863281 87.429688 169.230469 87.441406 169.539062 87.453125 C 169.828125 87.464844 170.054688 87.472656 170.191406 87.46875 C 170.46875 87.457031 170.375 87.394531 169.589844 87.242188 C 168.710938 87.066406 167.976562 86.980469 167.335938 86.941406 C 167.382812 86.792969 167.316406 86.632812 167.21875 86.503906 L 167.1875 86.554688 C 167.082031 86.429688 166.886719 86.164062 166.996094 85.925781 C 167.128906 85.914062 167.1875 85.804688 167.265625 85.902344 L 167.199219 85.6875 C 167.152344 85.679688 167.101562 85.667969 167.097656 85.738281 C 166.96875 85.683594 166.976562 85.566406 167.015625 85.460938 C 167.128906 85.386719 166.027344 84.605469 166.121094 84.605469 C 166.089844 84.535156 166.109375 84.472656 166.121094 84.417969 C 166.371094 84.742188 167.035156 85.433594 166.941406 85.296875 C 167.023438 85.113281 165.605469 83.902344 165.804688 83.710938 C 165.746094 83.605469 165.664062 83.488281 165.550781 83.566406 C 165.53125 83.359375 165.8125 83.519531 165.875 83.335938 C 165.855469 83.34375 165.816406 83.375 165.804688 83.332031 L 165.910156 83.136719 C 165.59375 82.9375 165.667969 82.410156 165.28125 82.222656 C 165.457031 82.25 165.738281 82.246094 165.945312 82.386719 L 165.894531 82.449219 C 165.941406 82.457031 166.054688 82.597656 166.179688 82.539062 C 166.183594 82.320312 166.09375 82.175781 165.886719 82.035156 C 165.90625 81.984375 165.921875 81.929688 165.945312 81.886719 C 165.929688 81.894531 165.917969 81.90625 165.898438 81.910156 C 165.949219 81.816406 165.964844 81.816406 166.027344 81.816406 C 166.035156 81.816406 166.046875 81.816406 166.058594 81.820312 C 166.378906 81.546875 165.519531 81.203125 165.566406 80.789062 C 165.472656 80.714844 165.5 80.808594 165.378906 80.714844 C 165.378906 80.3125 165.390625 80.03125 165.324219 79.636719 C 165.117188 79.59375 165.050781 79.609375 164.941406 79.820312 L 164.878906 79.527344 C 165.40625 79.589844 165.070312 78.855469 165.609375 78.941406 C 165.671875 78.820312 165.625 78.652344 165.488281 78.53125 C 165.375 78.5625 165.195312 78.613281 165.113281 78.421875 C 165.144531 78.097656 165.117188 78.183594 165.160156 77.90625 C 165.277344 77.796875 165.367188 77.851562 165.476562 77.796875 C 165.152344 77.535156 165.652344 77.371094 165.488281 77.066406 C 165.363281 76.886719 165.179688 76.5 164.929688 76.59375 C 164.828125 76.320312 165.003906 76.246094 165.214844 76.1875 L 165.148438 75.957031 C 165.46875 76.652344 165.699219 77.429688 165.914062 78.203125 C 166.0625 76.261719 165.992188 74.074219 163.703125 73.601562 C 164.585938 73.066406 164.359375 71.339844 164.117188 71.410156 C 163.808594 71.164062 163.527344 70.898438 163.273438 70.621094 C 163.070312 70.398438 162.878906 70.167969 162.707031 69.925781 C 162.664062 69.871094 162.613281 69.792969 162.582031 69.753906 L 162.519531 69.714844 C 162.480469 69.683594 162.441406 69.648438 162.40625 69.609375 C 162.304688 69.5 162.191406 69.367188 162.203125 69.21875 C 162.207031 69.0625 162.335938 68.949219 162.453125 68.851562 C 162.515625 68.800781 162.574219 68.757812 162.636719 68.71875 C 162.644531 68.726562 162.761719 68.589844 162.832031 68.519531 L 163.074219 68.261719 L 163.316406 68.007812 C 163.34375 67.980469 163.355469 67.96875 163.359375 67.972656 L 163.382812 67.960938 L 163.425781 67.941406 C 163.488281 67.917969 163.546875 67.902344 163.597656 67.890625 C 163.753906 67.84375 163.945312 67.753906 164.0625 67.796875 C 164.125 67.816406 164.207031 67.917969 164.226562 68.046875 C 164.25 68.171875 164.21875 68.308594 164.183594 68.410156 C 164.167969 68.464844 164.148438 68.507812 164.132812 68.542969 C 164.167969 68.46875 164.199219 68.386719 164.226562 68.300781 C 164.382812 67.972656 164.617188 67.839844 164.824219 67.878906 C 164.921875 67.738281 165.03125 67.632812 165.132812 67.355469 L 165.117188 67.5625 C 165.300781 67.457031 165.429688 67.503906 165.539062 67.582031 C 165.65625 67.671875 165.734375 67.757812 165.871094 67.847656 C 165.632812 67.855469 165.710938 68.15625 165.789062 68.417969 L 165.878906 68.261719 C 166.195312 69.238281 166.828125 70.261719 167.160156 71.113281 C 167.210938 71.230469 167.171875 71.351562 167.121094 71.433594 L 167.625 72.175781 C 167.324219 72.230469 167.667969 72.945312 167.332031 72.632812 C 167.914062 73.101562 167.972656 73.796875 168.554688 74.230469 C 169.46875 76.273438 170.609375 78.371094 171.96875 80.304688 L 172.050781 80.210938 C 172.546875 80.878906 173.363281 81.304688 173.570312 82.285156 C 173.960938 82.585938 174.328125 83.007812 174.707031 83.300781 C 174.449219 83.492188 174.199219 83.6875 173.976562 83.859375 C 174.210938 83.535156 173.886719 83.703125 173.433594 84.070312 C 173.292969 84.183594 173.125 84.316406 172.960938 84.449219 C 172.902344 84.515625 172.839844 84.582031 172.777344 84.65625 C 172.832031 84.59375 172.886719 84.527344 172.941406 84.46875 C 172.851562 84.542969 172.761719 84.613281 172.679688 84.691406 C 172.554688 84.804688 172.425781 84.914062 172.308594 85.019531 C 172.25 85.070312 172.191406 85.117188 172.132812 85.164062 L 172.050781 85.234375 C 172.027344 85.246094 172.023438 85.25 172.007812 85.257812 C 171.65625 85.566406 171.433594 85.78125 171.648438 85.757812 C 171.652344 85.824219 171.742188 85.820312 171.867188 85.761719 C 171.765625 85.875 171.652344 85.984375 171.53125 86.082031 C 171.09375 86.445312 170.539062 86.660156 170.132812 86.734375 C 169.933594 86.777344 169.773438 86.789062 169.679688 86.800781 C 169.574219 86.816406 169.507812 86.816406 169.640625 86.835938 C 169.824219 86.875 169.835938 86.917969 169.792969 86.953125 C 169.710938 86.964844 169.664062 86.984375 169.683594 87.019531 C 169.636719 87.042969 169.59375 87.066406 169.585938 87.089844 C 169.59375 87.117188 169.640625 87.140625 169.792969 87.167969 C 169.882812 87.152344 169.96875 87.128906 170.058594 87.105469 C 170.683594 87.125 170.914062 87.09375 170.945312 87.230469 C 170.980469 87.363281 170.722656 87.628906 170.386719 87.84375 C 170.058594 88.0625 169.664062 88.230469 169.632812 88.378906 C 169.617188 88.453125 169.695312 88.535156 169.929688 88.589844 C 170.164062 88.640625 170.558594 88.679688 171.140625 88.570312 C 169.132812 88.425781 171.894531 88.523438 173.324219 87.078125 C 173.445312 87.050781 173.640625 86.949219 174.066406 86.621094 C 174.46875 86.3125 175.011719 85.890625 175.71875 85.421875 C 176.171875 85.066406 176.378906 84.914062 176.464844 84.835938 C 176.554688 84.9375 176.648438 85.050781 176.742188 85.1875 C 176.941406 84.878906 177.382812 85.753906 177.449219 85.300781 C 177.636719 84.648438 177.292969 84.761719 177.433594 84.214844 L 177.34375 84.269531 C 177.34375 84.257812 177.339844 84.246094 177.335938 84.234375 C 177.539062 84.15625 177.738281 84.082031 177.921875 84.011719 C 178.359375 83.835938 178.707031 83.800781 178.640625 83.910156 C 179.144531 83.628906 179.589844 83.488281 180.082031 83.453125 C 180.324219 83.425781 180.570312 83.402344 180.839844 83.363281 C 181.117188 83.355469 181.414062 83.339844 181.75 83.292969 C 182.347656 83.191406 182.328125 83.199219 182.265625 83.167969 C 182.199219 83.140625 182.089844 83.113281 182.523438 83.085938 C 184.371094 83.082031 186.835938 83.878906 188.050781 84.621094 C 188.15625 84.71875 188.324219 84.847656 188.492188 84.984375 C 188.648438 85.144531 188.808594 85.308594 188.917969 85.445312 C 189.136719 85.726562 189.15625 85.894531 188.59375 85.695312 C 188.457031 85.605469 188.339844 85.53125 188.242188 85.464844 C 188.140625 85.410156 188.054688 85.363281 187.984375 85.328125 C 187.851562 85.25 187.78125 85.199219 187.757812 85.164062 C 187.710938 85.101562 187.839844 85.109375 187.96875 85.117188 C 188.226562 85.140625 188.46875 85.167969 187.203125 84.601562 C 187.4375 84.8125 187.410156 84.855469 187.234375 84.808594 C 187.148438 84.785156 187.023438 84.738281 186.871094 84.675781 C 186.726562 84.605469 186.546875 84.542969 186.351562 84.488281 C 185.964844 84.367188 185.527344 84.230469 185.15625 84.128906 C 184.777344 84.054688 184.457031 84.046875 184.324219 84.085938 C 184.527344 84.167969 184.785156 84.238281 185.074219 84.332031 C 185.355469 84.449219 185.675781 84.566406 186.011719 84.6875 C 186.179688 84.742188 186.355469 84.804688 186.53125 84.863281 C 186.699219 84.941406 186.871094 85.019531 187.042969 85.101562 C 187.386719 85.253906 187.734375 85.410156 188.066406 85.554688 L 187.824219 85.390625 C 188.128906 85.496094 188.476562 85.703125 188.859375 85.925781 C 189.238281 86.15625 189.671875 86.382812 190.070312 86.667969 C 190.460938 86.964844 190.855469 87.269531 191.207031 87.5625 C 191.382812 87.710938 191.554688 87.851562 191.703125 87.992188 C 191.847656 88.144531 191.976562 88.289062 192.089844 88.425781 C 191.761719 88.304688 192.15625 88.777344 191.429688 88.175781 L 192.726562 89.375 C 192.917969 89.496094 193.117188 89.621094 192.761719 89.257812 C 193.464844 89.722656 193.988281 90.394531 194.378906 90.910156 C 194.386719 90.972656 194.824219 91.394531 195.464844 92.023438 C 196.097656 92.667969 196.929688 93.511719 197.75 94.34375 C 199.386719 96.011719 200.96875 97.65625 200.84375 97.570312 C 201.242188 98.039062 201.460938 98.371094 201.679688 98.683594 C 201.601562 98.597656 201.519531 98.503906 201.433594 98.410156 C 200.683594 97.5625 199.660156 96.464844 198.675781 95.394531 C 196.683594 93.277344 194.796875 91.339844 195.378906 91.96875 C 195.6875 92.4375 198.246094 95.074219 200.703125 97.761719 C 203.164062 100.449219 205.550781 103.15625 205.703125 103.550781 C 206.320312 104.289062 207.074219 105.175781 207.039062 104.914062 C 208.011719 106.21875 206.527344 104.699219 207.15625 105.679688 C 207.191406 105.6875 207.152344 105.5625 207.378906 105.851562 L 207.945312 106.828125 C 209.699219 108.65625 211.8125 111.714844 213.71875 113.574219 C 213.113281 113.082031 212.359375 112.570312 211.175781 111.332031 L 211.042969 111.054688 C 210.859375 110.894531 209.9375 109.835938 209.855469 109.953125 C 210.804688 111.269531 211.699219 112.328125 212.882812 113.558594 C 213.054688 113.828125 213.261719 114.132812 213.390625 114.347656 C 213.398438 114.332031 213.394531 114.300781 213.414062 114.292969 C 213.703125 114.777344 213.65625 114.742188 213.484375 114.617188 C 213.460938 114.605469 213.429688 114.585938 213.386719 114.546875 C 213.714844 115.59375 217.652344 119.277344 219.460938 121.632812 C 220.078125 122.253906 219.558594 121.65625 220.34375 122.414062 C 222.242188 124.78125 223.570312 126.40625 225.691406 128.773438 C 226.523438 129.378906 226.628906 129.386719 225.90625 128.382812 L 227.535156 130.140625 C 226.609375 129.519531 227.308594 130.398438 227.996094 131.257812 C 228.683594 132.113281 229.375 132.929688 228.351562 132.25 C 228.777344 132.820312 229.789062 133.847656 230.804688 134.738281 C 230.980469 134.75 231.257812 134.765625 232.492188 135.921875 C 234.109375 137.644531 233.722656 137.234375 235.0625 138.660156 C 235.304688 139.078125 234.730469 138.644531 234.710938 138.789062 C 235.894531 139.726562 236.328125 140.226562 236.734375 140.730469 C 236.9375 140.980469 237.132812 141.230469 237.410156 141.539062 C 237.546875 141.691406 237.710938 141.859375 237.898438 142.046875 C 238.082031 142.222656 238.296875 142.421875 238.550781 142.648438 C 239.199219 143.195312 240.132812 144.054688 240.921875 144.773438 C 241.714844 145.492188 242.363281 146.074219 242.488281 146.007812 C 244.078125 147.691406 243.917969 147.835938 243.609375 147.808594 C 244.019531 148.28125 244.441406 148.742188 244.839844 149.222656 C 242.828125 146.957031 240.675781 144.710938 238.382812 142.605469 C 237.191406 141.503906 235.992188 140.398438 234.792969 139.292969 C 233.589844 138.179688 232.425781 137.015625 231.246094 135.878906 C 232.476562 137.171875 233.699219 138.535156 235.015625 139.832031 C 236.296875 141.113281 237.59375 142.417969 238.898438 143.722656 C 241.386719 146.265625 243.746094 148.996094 245.960938 151.714844 C 250.398438 157.160156 254.1875 162.585938 257.507812 166.820312 C 257.324219 167.574219 258.65625 170.925781 259.761719 174.191406 C 260.882812 177.457031 261.777344 180.628906 261.929688 180.722656 C 262.882812 183.246094 263.660156 185.871094 264.207031 188.570312 C 265.054688 192.835938 265.332031 197.308594 264.832031 201.777344 Z M 171.429688 87.175781 C 171.042969 87.28125 171.144531 87.203125 171.414062 86.992188 C 171.515625 87.027344 171.53125 87.082031 171.429688 87.175781 Z M 173.027344 85.007812 C 172.921875 85.105469 172.800781 85.214844 172.671875 85.332031 C 172.566406 85.433594 172.457031 85.539062 172.339844 85.648438 C 172.074219 85.917969 171.730469 86.15625 171.472656 86.289062 C 171.511719 86.386719 171.695312 86.304688 171.710938 86.351562 C 171.578125 86.46875 171.378906 86.59375 171.15625 86.695312 C 171.054688 86.738281 170.949219 86.765625 170.847656 86.800781 C 170.808594 86.800781 170.765625 86.808594 170.726562 86.808594 C 170.554688 86.878906 170.355469 86.90625 170.175781 86.921875 C 170.042969 86.921875 169.925781 86.902344 169.835938 86.859375 C 169.964844 86.824219 170.246094 86.855469 170.449219 86.832031 C 170.222656 86.84375 170.421875 86.785156 170.773438 86.617188 C 171.113281 86.457031 171.566406 86.148438 171.898438 85.75 C 171.90625 85.746094 171.914062 85.742188 171.921875 85.738281 C 172 85.699219 172.085938 85.636719 172.179688 85.570312 L 172.246094 85.515625 C 172.269531 85.496094 172.28125 85.488281 172.339844 85.4375 C 172.433594 85.351562 172.527344 85.265625 172.621094 85.183594 C 172.808594 85.015625 172.984375 84.855469 173.144531 84.722656 C 173.308594 84.597656 173.453125 84.492188 173.550781 84.429688 C 173.664062 84.359375 173.722656 84.339844 173.710938 84.386719 C 173.792969 84.296875 173.859375 84.222656 173.90625 84.164062 C 174.105469 84.023438 174.308594 83.890625 174.519531 83.765625 C 174.34375 83.921875 174.085938 84.136719 173.820312 84.398438 C 173.585938 84.617188 173.324219 84.859375 173.074219 85.113281 C 173.195312 84.964844 173.304688 84.832031 173.414062 84.714844 C 173.308594 84.777344 173.171875 84.875 173.027344 85.011719 Z M 172.65625 84.792969 C 172.664062 84.789062 172.667969 84.777344 172.675781 84.773438 C 172.683594 84.761719 172.691406 84.753906 172.699219 84.746094 C 172.683594 84.761719 172.671875 84.777344 172.65625 84.792969 Z M 172.65625 84.792969 " fill-opacity="1" fill-rule="nonzero"/></g><path fill="#a9a0f0" d="M 243.941406 198.136719 C 243.882812 198.097656 243.835938 198.179688 243.792969 198.3125 C 243.777344 198.160156 243.761719 198.003906 243.746094 197.847656 C 243.585938 196.734375 243.414062 195.683594 243.402344 195.945312 C 243.375 196.109375 243.335938 196.121094 243.292969 196.085938 C 243.277344 196.015625 243.253906 195.980469 243.21875 196 C 243.164062 195.921875 243.109375 195.871094 243.082031 196.097656 L 243.144531 196.308594 C 243.082031 197.394531 242.742188 196.949219 242.390625 196.519531 C 242.019531 196.054688 241.632812 195.613281 241.554688 196.882812 C 241.730469 196.351562 241.8125 196.4375 241.847656 196.808594 C 241.890625 197.175781 241.882812 197.820312 241.839844 198.386719 C 241.710938 198.488281 241.546875 198.980469 241.34375 199.765625 C 241.273438 200.460938 241.402344 200.191406 241.464844 200.335938 C 241.351562 200.710938 241.15625 201.429688 241.003906 201.304688 C 241.089844 201.875 240.722656 202.132812 240.636719 202.777344 C 240.589844 203.355469 240.734375 202.757812 240.730469 203.175781 C 240.515625 204.015625 240.121094 205.160156 239.867188 205.796875 C 239.621094 205.996094 239.082031 206.644531 239.050781 206.015625 C 239.519531 204.824219 239.269531 206.617188 239.664062 205.332031 C 239.144531 205.769531 239.921875 204.167969 239.722656 203.863281 C 239.433594 204.21875 239.207031 205.039062 239 205.722656 L 239.097656 205.605469 C 239.011719 205.90625 238.875 206.363281 238.707031 206.8125 C 238.527344 207.257812 238.300781 207.691406 238.078125 207.964844 C 238.023438 207.765625 237.820312 207.996094 237.972656 207.5625 C 237.847656 207.820312 237.742188 208.085938 237.601562 208.335938 C 237.589844 208.453125 237.578125 208.570312 237.714844 208.359375 C 237.625 208.765625 237.394531 209.109375 237.1875 209.355469 C 237.148438 209.363281 237.035156 209.636719 236.859375 210.03125 C 236.683594 210.425781 236.488281 210.96875 236.242188 211.476562 C 235.789062 212.519531 235.253906 213.496094 235.265625 213.417969 C 235.097656 213.664062 234.949219 213.792969 234.8125 213.917969 C 234.84375 213.871094 234.878906 213.824219 234.910156 213.769531 C 235.1875 213.296875 235.578125 212.683594 235.894531 212.054688 C 236.558594 210.816406 237.023438 209.601562 236.855469 209.976562 C 236.664062 210.171875 235.980469 211.800781 235.0625 213.304688 C 234.175781 214.824219 233.105469 216.226562 232.882812 216.289062 C 232.570312 216.632812 232.203125 217.0625 232.378906 217.078125 C 231.789062 217.605469 232.351562 216.722656 231.875 217.039062 C 231.882812 217.066406 231.953125 217.054688 231.828125 217.183594 C 231.667969 217.273438 231.492188 217.351562 231.324219 217.433594 C 230.617188 218.453125 229.082031 219.398438 228.246094 220.394531 C 228.445312 220.042969 228.617188 219.585938 229.15625 218.96875 L 229.308594 218.933594 C 229.367188 218.824219 229.835938 218.351562 229.730469 218.261719 C 229.414062 218.476562 229.140625 218.699219 228.871094 218.941406 C 228.597656 219.171875 228.339844 219.429688 228.0625 219.734375 C 227.925781 219.796875 227.769531 219.878906 227.652344 219.914062 C 227.664062 219.925781 227.683594 219.929688 227.695312 219.949219 C 227.429688 220.035156 227.445312 220.007812 227.488281 219.910156 C 227.492188 219.894531 227.5 219.875 227.515625 219.851562 C 227.195312 219.824219 226.648438 220.328125 225.980469 220.871094 C 225.640625 221.140625 225.289062 221.441406 224.925781 221.695312 C 224.5625 221.9375 224.203125 222.152344 223.875 222.28125 C 223.546875 222.539062 223.878906 222.371094 223.464844 222.675781 C 222.792969 222.9375 222.238281 223.167969 221.652344 223.359375 C 221.367188 223.460938 221.078125 223.566406 220.773438 223.675781 C 220.46875 223.777344 220.144531 223.882812 219.792969 224 C 219.421875 224.34375 219.410156 224.421875 220.011719 224.371094 C 219.65625 224.496094 219.304688 224.628906 218.941406 224.734375 C 219.730469 223.957031 216.828125 225.027344 217.726562 224.210938 C 217.394531 224.230469 216.757812 224.386719 216.191406 224.644531 C 216.164062 224.773438 216.128906 224.996094 215.371094 225.183594 C 214.28125 225.308594 214.546875 225.308594 213.636719 225.347656 C 213.398438 225.242188 213.707031 225.117188 213.644531 225.003906 C 212.34375 225.488281 212.410156 224.910156 211.160156 225.15625 C 210.371094 225.3125 208.796875 225.492188 208.773438 225.738281 C 207.683594 225.804688 207.675781 225.609375 207.773438 225.386719 L 206.898438 225.378906 C 209.730469 225.308594 212.695312 224.964844 215.566406 224.289062 C 213.964844 224.503906 212.289062 224.605469 210.625 224.660156 C 208.957031 224.722656 207.289062 224.664062 205.675781 224.625 C 204.058594 224.589844 202.5 224.480469 201.011719 224.472656 C 200.273438 224.4375 199.542969 224.464844 198.84375 224.464844 C 198.492188 224.472656 198.140625 224.492188 197.800781 224.519531 C 197.460938 224.53125 197.121094 224.554688 196.789062 224.59375 C 196.726562 224.3125 196.308594 223.984375 195.742188 223.609375 C 195.460938 223.417969 195.132812 223.246094 194.792969 223.046875 C 194.457031 222.84375 194.097656 222.648438 193.742188 222.464844 C 192.332031 221.695312 191 220.964844 190.882812 221.058594 C 189.695312 220.648438 188.492188 220.179688 187.351562 219.5625 C 183.714844 217.660156 180.386719 214.683594 178.023438 210.949219 C 175.652344 207.226562 174.214844 202.800781 174.050781 198.277344 C 174.042969 197.964844 174.007812 197.621094 174.011719 197.242188 C 174.011719 196.867188 174.015625 196.460938 174.015625 196.03125 C 174.042969 195.128906 174.089844 194.109375 174.171875 193.023438 C 174.332031 190.847656 174.640625 188.390625 175.097656 185.957031 C 175.554688 183.527344 176.167969 181.128906 176.828125 179.050781 C 177.484375 176.96875 178.207031 175.21875 178.757812 174.011719 C 179.085938 173.3125 179.402344 172.617188 179.757812 171.933594 C 179.136719 173.054688 179.164062 173.070312 178.582031 174.222656 C 179.53125 171.113281 180.625 168.351562 182.066406 165.9375 C 181.664062 166.265625 181.492188 166.25 180.699219 167.167969 C 180.988281 166.773438 181.25 166.359375 181.558594 165.988281 C 181.65625 165.65625 181.839844 165.25 182.070312 164.800781 C 182.324219 164.375 182.625 163.910156 182.929688 163.445312 C 183.265625 163 183.601562 162.558594 183.910156 162.152344 C 184.238281 161.769531 184.53125 161.414062 184.75 161.125 C 184.726562 161.320312 184.902344 161.199219 185.199219 160.992188 C 185.5 160.777344 185.890625 160.433594 186.269531 160.121094 C 186.132812 160.164062 186.011719 160.222656 185.882812 160.269531 C 187.308594 159.070312 188.9375 157.921875 190.671875 157.082031 C 192.398438 156.234375 194.21875 155.710938 195.84375 155.5 C 196.296875 155.445312 196.644531 155.484375 196.855469 155.535156 L 198.421875 155.382812 C 198.949219 155.363281 199.480469 155.367188 200.011719 155.355469 C 199.753906 155.597656 202.605469 155.910156 201.082031 155.917969 C 203.488281 155.847656 205.832031 156.71875 208.136719 157.226562 C 210.101562 157.984375 212.058594 158.894531 213.964844 159.980469 C 215.867188 161.0625 217.734375 162.273438 219.554688 163.585938 C 223.167969 166.242188 226.574219 169.292969 229.625 172.617188 L 229.570312 172.375 C 230.105469 172.957031 230.660156 173.496094 231.179688 174.066406 C 231.707031 174.628906 232.246094 175.1875 232.75 175.796875 C 233.007812 176.101562 233.265625 176.410156 233.527344 176.730469 C 233.773438 177.058594 234.019531 177.394531 234.265625 177.746094 C 234.773438 178.441406 235.214844 179.230469 235.671875 180.082031 C 236.097656 180.632812 236.53125 181.269531 236.976562 181.917969 C 237.386719 182.582031 237.828125 183.246094 238.207031 183.886719 C 238.574219 184.535156 238.957031 185.121094 239.261719 185.625 C 239.566406 186.125 239.851562 186.511719 240.09375 186.726562 C 240.386719 187.492188 240.613281 188.160156 240.851562 188.753906 C 241.058594 189.359375 241.246094 189.910156 241.433594 190.457031 C 241.609375 191.011719 241.761719 191.570312 241.933594 192.191406 C 242.078125 192.820312 242.210938 193.515625 242.324219 194.34375 C 242.457031 193.898438 242.585938 194.707031 242.699219 195.429688 C 242.726562 195.613281 242.753906 195.785156 242.777344 195.933594 C 242.800781 196.074219 242.820312 196.183594 242.84375 196.25 C 242.886719 196.382812 242.9375 196.335938 242.996094 195.945312 C 243.15625 194.808594 243.183594 194.183594 243.105469 193.632812 C 243.078125 193.355469 243.046875 193.089844 243.03125 192.769531 C 243.023438 192.449219 243.015625 192.078125 243.003906 191.585938 L 242.910156 191.660156 C 242.828125 191.109375 242.78125 190.539062 242.667969 189.996094 L 242.332031 188.351562 L 241.90625 186.738281 C 241.765625 186.199219 241.574219 185.679688 241.410156 185.152344 C 240.695312 183.058594 239.84375 181.011719 238.824219 179.066406 C 236.804688 175.15625 234.304688 171.519531 231.4375 168.171875 C 227.359375 163.945312 222.6875 159.554688 217.359375 156.382812 C 214.5 154.691406 211.324219 153.195312 208.050781 152.226562 C 204.789062 151.242188 201.441406 150.769531 198.460938 150.90625 C 197.75 150.976562 197.136719 150.957031 196.542969 150.914062 C 195.949219 150.910156 195.371094 150.882812 194.746094 150.886719 C 191.984375 151.359375 188.925781 152.484375 186.175781 154.207031 C 183.429688 155.941406 181.046875 158.261719 179.234375 160.671875 C 179.304688 160.582031 179.378906 160.5 179.429688 160.445312 C 178.941406 161.078125 178.484375 161.671875 178.042969 162.246094 C 177.628906 162.832031 177.183594 163.371094 176.804688 163.945312 C 176.417969 164.515625 176.019531 165.078125 175.667969 165.691406 C 175.488281 165.996094 175.308594 166.304688 175.125 166.621094 C 174.953125 166.945312 174.789062 167.277344 174.621094 167.625 C 174.703125 167.648438 174.496094 168.078125 174.433594 168.304688 C 174.136719 168.449219 172.351562 172.632812 171.375 177.035156 C 170.851562 179.226562 170.46875 181.449219 170.207031 183.1875 C 169.960938 184.929688 169.816406 186.179688 169.71875 186.433594 C 169.691406 186.742188 169.664062 187.0625 169.632812 187.390625 C 169.382812 188.941406 169.148438 190.515625 168.953125 192.09375 C 168.855469 192.882812 168.769531 193.675781 168.695312 194.464844 C 168.628906 195.253906 168.550781 196.03125 168.535156 196.859375 C 168.390625 200.113281 168.84375 203.308594 169.765625 206.03125 C 170.035156 206.601562 170.375 207.179688 170.671875 207.742188 C 170.992188 208.296875 171.332031 208.808594 171.628906 209.238281 C 171.757812 209.730469 171.9375 209.976562 172.125 210.242188 C 172.324219 210.503906 172.527344 210.789062 172.808594 211.316406 C 172.902344 211.695312 173.007812 212.054688 173.113281 212.382812 C 173.226562 212.710938 173.355469 213 173.472656 213.265625 C 173.710938 213.796875 173.941406 214.203125 174.136719 214.453125 C 174.519531 214.964844 174.675781 214.914062 174.34375 214.1875 C 175.84375 216.195312 177.433594 218.140625 179.054688 219.65625 C 179.445312 219.992188 179.832031 220.328125 180.246094 220.632812 C 180.65625 220.941406 181.050781 221.265625 181.480469 221.550781 C 182.207031 222.042969 182.511719 222.441406 182.761719 222.851562 C 183.234375 223.15625 183.550781 223.371094 183.785156 223.542969 C 184.023438 223.703125 184.183594 223.828125 184.34375 223.960938 C 184.664062 224.214844 184.96875 224.53125 185.972656 225.15625 C 186.144531 225.429688 187.496094 226.074219 188.90625 226.582031 C 189.257812 226.707031 189.609375 226.832031 189.949219 226.953125 C 190.289062 227.058594 190.609375 227.15625 190.898438 227.246094 C 191.472656 227.433594 191.90625 227.5625 192.058594 227.636719 L 191.683594 227.546875 C 194.191406 228.535156 195.796875 229.566406 198.441406 230.109375 C 200.265625 230.492188 202.164062 230.742188 204.085938 230.855469 C 206.007812 230.941406 207.941406 230.898438 209.855469 230.726562 C 211.765625 230.527344 213.644531 230.207031 215.453125 229.789062 C 217.257812 229.347656 218.992188 228.8125 220.625 228.222656 C 220.582031 227.917969 219.207031 228.804688 219 228.457031 C 222.847656 227.203125 226.722656 225.609375 230.097656 223.140625 C 230.734375 222.742188 231.558594 222.289062 231.882812 222.132812 C 232.964844 221.332031 232.390625 221.511719 233.144531 220.882812 L 233.421875 220.988281 C 234.316406 219.839844 235.148438 219.71875 235.996094 218.621094 C 235.960938 218.496094 236.277344 218.105469 236.597656 217.742188 C 236.847656 217.921875 237.523438 216.5625 237.683594 216.777344 L 237.671875 216.753906 C 237.855469 216.519531 237.976562 216.347656 238.230469 216.085938 C 238.347656 215.824219 239.027344 214.519531 239.578125 213.167969 C 239.855469 212.492188 240.09375 211.800781 240.292969 211.261719 C 240.464844 210.707031 240.589844 210.292969 240.625 210.15625 L 240.78125 209.945312 C 241.109375 209.246094 241.023438 208.851562 240.804688 209.242188 L 241.191406 208.382812 L 241.167969 208.492188 C 241.296875 208.207031 241.429688 207.921875 241.535156 207.628906 C 241.621094 207.476562 241.8125 207.335938 241.835938 207.632812 C 241.921875 207.089844 242.105469 206.519531 242.300781 206.023438 C 241.667969 207.382812 240.761719 209.003906 239.804688 210.21875 C 239.894531 209.917969 240.113281 209.535156 240.308594 209.136719 C 240.507812 208.738281 240.714844 208.335938 240.832031 208.015625 C 241.085938 207.683594 241.367188 207.125 241.683594 206.511719 C 241.988281 205.890625 242.269531 205.191406 242.519531 204.578125 C 242.574219 204.292969 242.316406 204.019531 242.609375 203.421875 C 242.910156 203.164062 242.773438 202.703125 243.03125 202.199219 C 243.039062 202.84375 242.835938 203.429688 242.664062 204.042969 C 242.804688 204.019531 242.941406 203.65625 243.070312 203.234375 C 243.195312 202.8125 243.273438 202.328125 243.359375 202.089844 C 243.339844 201.964844 243.421875 201.605469 243.492188 201.175781 C 243.554688 200.742188 243.628906 200.246094 243.644531 199.855469 C 243.746094 200.039062 243.804688 199.886719 243.867188 199.636719 C 243.882812 199.558594 243.898438 199.46875 243.914062 199.378906 C 243.894531 199.242188 243.878906 199.089844 243.859375 198.933594 C 243.878906 199.089844 243.898438 199.238281 243.914062 199.375 C 243.949219 199.171875 243.984375 198.957031 244.046875 198.800781 C 244.117188 198.277344 244.046875 197.933594 243.941406 198.140625 Z M 242.808594 197.34375 C 242.820312 197.054688 242.894531 197.132812 242.984375 197.390625 C 242.914062 197.449219 242.847656 197.441406 242.808594 197.34375 Z M 243.445312 199.582031 C 243.457031 199.644531 243.460938 199.691406 243.46875 199.730469 L 243.371094 200.039062 C 243.363281 199.84375 243.355469 199.507812 243.371094 199.15625 C 243.386719 199.238281 243.398438 199.3125 243.410156 199.382812 C 243.53125 199.109375 243.570312 198.207031 243.597656 197.703125 C 243.496094 197.691406 243.46875 197.875 243.417969 197.859375 C 243.414062 197.824219 243.40625 197.785156 243.402344 197.746094 C 243.382812 197.597656 243.363281 197.417969 243.347656 197.238281 C 243.347656 197.167969 243.34375 197.097656 243.339844 197.03125 L 243.363281 196.902344 C 243.34375 196.746094 243.335938 196.574219 243.328125 196.421875 C 243.335938 196.304688 243.355469 196.203125 243.394531 196.117188 C 243.433594 196.230469 243.402344 196.480469 243.390625 196.65625 C 243.402344 196.460938 243.460938 196.628906 243.539062 196.980469 C 243.621094 197.320312 243.71875 197.835938 243.78125 198.351562 C 243.65625 198.789062 243.574219 199.703125 243.445312 199.582031 Z M 243.445312 199.582031 " fill-opacity="1" fill-rule="nonzero"/><path fill="#a9a0f0" d="M 244.035156 200 C 243.992188 200.0625 243.964844 199.816406 243.917969 199.414062 C 243.984375 200 244.015625 200.351562 244.035156 200 Z M 244.035156 200 " fill-opacity="1" fill-rule="nonzero"/><path fill="#a9a0f0" d="M 243.410156 199.382812 C 243.402344 199.402344 243.390625 199.429688 243.382812 199.445312 C 243.40625 199.523438 243.425781 199.5625 243.445312 199.582031 C 243.445312 199.570312 243.441406 199.554688 243.441406 199.542969 C 243.433594 199.496094 243.421875 199.4375 243.410156 199.382812 Z M 243.410156 199.382812 " fill-opacity="1" fill-rule="nonzero"/><path fill="#a9a0f0" d="M 243.914062 199.390625 C 243.917969 199.398438 243.917969 199.40625 243.917969 199.414062 C 243.917969 199.398438 243.914062 199.386719 243.914062 199.375 C 243.914062 199.378906 243.914062 199.382812 243.914062 199.390625 Z M 243.914062 199.390625 " fill-opacity="1" fill-rule="nonzero"/><path fill="#a9a0f0" d="M 165.246094 89.230469 C 165.210938 89.222656 165.1875 89.226562 165.164062 89.234375 C 165.183594 89.238281 165.207031 89.246094 165.234375 89.253906 C 165.242188 89.246094 165.238281 89.234375 165.246094 89.226562 Z M 165.246094 89.230469 " fill-opacity="1" fill-rule="nonzero"/><path fill="#a9a0f0" d="M 164.777344 89.464844 C 164.777344 89.464844 164.777344 89.460938 164.777344 89.460938 C 164.761719 89.457031 164.753906 89.453125 164.738281 89.449219 C 164.75 89.453125 164.765625 89.457031 164.777344 89.464844 Z M 164.777344 89.464844 " fill-opacity="1" fill-rule="nonzero"/><path fill="#a9a0f0" d="M 164.542969 89.410156 C 164.5625 89.386719 164.640625 89.410156 164.738281 89.449219 C 164.582031 89.382812 164.488281 89.351562 164.542969 89.410156 Z M 164.542969 89.410156 " fill-opacity="1" fill-rule="nonzero"/><path fill="#a9a0f0" d="M 141.4375 217.503906 C 141.347656 217.566406 141.308594 217.605469 141.296875 217.632812 C 141.363281 217.59375 141.4375 217.550781 141.523438 217.5 C 141.492188 217.503906 141.457031 217.507812 141.4375 217.503906 Z M 141.4375 217.503906 " fill-opacity="1" fill-rule="nonzero"/><path fill="#a9a0f0" d="M 141.34375 218.167969 C 141.457031 218.105469 141.585938 218.035156 141.730469 217.957031 C 141.726562 217.957031 141.722656 217.957031 141.71875 217.957031 C 141.574219 218.039062 141.445312 218.109375 141.34375 218.167969 Z M 141.34375 218.167969 " fill-opacity="1" fill-rule="nonzero"/><path fill="#a9a0f0" d="M 141.0625 218.386719 C 141 218.382812 141.117188 218.300781 141.34375 218.167969 C 140.925781 218.402344 140.742188 218.519531 141.0625 218.386719 Z M 141.0625 218.386719 " fill-opacity="1" fill-rule="nonzero"/><path fill="#a9a0f0" d="M 87.753906 114.691406 C 87.691406 114.265625 87.71875 114.628906 87.664062 114.289062 L 87.675781 114.390625 C 87.523438 113.945312 87.382812 113.695312 87.253906 113.570312 C 87.199219 113.835938 87.097656 113.636719 87.023438 113.722656 C 86.949219 113.84375 86.875 114.054688 86.828125 114.316406 C 86.820312 114.40625 86.78125 114.152344 86.75 114.011719 C 86.695312 114.160156 86.597656 114.066406 86.542969 114.242188 C 86.542969 114.242188 86.546875 114.246094 86.546875 114.25 C 86.511719 114.308594 86.445312 113.996094 86.410156 114.054688 C 86.421875 114.140625 86.417969 114.148438 86.417969 114.191406 C 86.363281 113.789062 86.285156 115.0625 86.246094 114.832031 C 86.246094 114.851562 86.242188 114.871094 86.238281 114.882812 C 86.136719 114.710938 85.949219 113.933594 85.886719 114.015625 C 85.894531 114.207031 85.902344 114.375 85.914062 114.589844 C 85.878906 114.417969 85.921875 114.753906 85.898438 114.710938 C 85.753906 113.90625 85.777344 114.246094 85.832031 114.53125 C 85.816406 114.644531 85.773438 114.578125 85.75 114.609375 C 85.746094 114.667969 85.742188 114.734375 85.738281 114.804688 C 85.734375 114.875 85.710938 114.753906 85.679688 114.5625 C 85.667969 114.679688 85.648438 114.480469 85.609375 114.402344 C 85.5625 114.121094 85.59375 114.859375 85.574219 114.777344 L 85.574219 114.734375 C 85.53125 114.6875 85.433594 114.144531 85.394531 114.125 C 85.269531 113.929688 85.195312 114.152344 85.089844 114.066406 C 85.132812 114.363281 85.101562 114 85.160156 114.390625 C 85.101562 114.34375 84.992188 113.984375 84.933594 113.941406 C 84.910156 113.863281 84.875 113.714844 84.859375 113.621094 C 84.824219 113.515625 84.871094 113.765625 84.851562 113.726562 L 84.808594 113.460938 C 84.824219 113.683594 84.734375 113.167969 84.734375 113.28125 C 84.75 113.390625 84.746094 113.40625 84.738281 113.398438 C 84.695312 113.113281 84.722656 113.417969 84.683594 113.160156 L 84.6875 113.179688 C 84.683594 113.175781 84.683594 113.195312 84.671875 113.148438 C 84.679688 113.25 84.738281 114.03125 84.75 114.152344 L 84.738281 114.105469 C 84.730469 114.117188 84.757812 114.328125 84.773438 114.375 L 84.757812 114.363281 L 84.753906 114.34375 L 84.742188 114.328125 C 84.734375 114.304688 84.710938 114.171875 84.695312 114.046875 C 84.703125 114.148438 84.707031 114.199219 84.691406 114.152344 C 84.738281 114.324219 84.800781 114.566406 84.863281 114.851562 C 84.871094 114.949219 84.832031 114.800781 84.828125 114.832031 C 84.789062 114.644531 84.742188 114.488281 84.707031 114.363281 C 84.703125 114.378906 84.753906 114.695312 84.722656 114.558594 C 84.683594 114.339844 84.714844 114.566406 84.683594 114.410156 C 84.671875 114.292969 84.6875 114.34375 84.695312 114.355469 C 84.65625 114.097656 84.648438 114.183594 84.632812 114.109375 C 84.640625 114.191406 84.613281 114.109375 84.613281 114.183594 C 84.589844 114.019531 84.582031 114.003906 84.574219 113.972656 C 84.574219 113.980469 84.574219 113.992188 84.574219 114 C 84.574219 113.992188 84.574219 113.984375 84.574219 113.972656 C 84.566406 113.957031 84.5625 113.9375 84.554688 113.894531 C 84.542969 113.867188 84.554688 113.964844 84.570312 114.050781 C 84.578125 114.109375 84.585938 114.148438 84.59375 114.179688 C 84.597656 114.207031 84.597656 114.238281 84.601562 114.265625 C 84.609375 114.371094 84.621094 114.46875 84.628906 114.539062 C 84.632812 114.613281 84.640625 114.660156 84.640625 114.664062 C 84.648438 114.691406 84.65625 114.738281 84.664062 114.789062 C 84.664062 114.800781 84.667969 114.8125 84.667969 114.828125 C 84.679688 114.890625 84.6875 114.953125 84.695312 114.980469 L 84.6875 114.914062 C 84.726562 114.980469 84.902344 116.386719 84.945312 116.464844 C 84.882812 116.144531 84.898438 116.136719 84.90625 116.097656 C 84.925781 116.203125 84.957031 116.363281 84.980469 116.445312 C 84.988281 116.417969 84.96875 116.328125 84.957031 116.246094 C 84.972656 116.316406 84.992188 116.375 85.019531 116.546875 C 84.992188 116.34375 85.050781 116.671875 85.046875 116.601562 C 85.039062 116.507812 85.03125 116.515625 85.023438 116.417969 C 85.035156 116.4375 85.058594 116.464844 85.070312 116.503906 C 85.101562 116.660156 85.15625 116.9375 85.1875 117.183594 C 85.164062 117.152344 85.128906 116.785156 85.121094 116.839844 C 85.1875 117.199219 85.121094 116.9375 85.160156 117.210938 C 85.191406 117.375 85.203125 117.375 85.207031 117.328125 L 85.195312 117.28125 C 85.195312 117.234375 85.203125 117.15625 85.242188 117.347656 C 85.257812 117.472656 85.277344 117.570312 85.277344 117.601562 L 85.292969 117.625 C 85.289062 117.582031 85.28125 117.542969 85.273438 117.511719 C 85.265625 117.414062 85.277344 117.46875 85.292969 117.542969 C 85.316406 117.675781 85.265625 116.972656 85.277344 117.054688 C 85.28125 117.054688 85.289062 117.097656 85.296875 117.132812 C 85.292969 117.230469 85.300781 117.574219 85.304688 117.539062 C 85.332031 117.683594 85.289062 116.855469 85.332031 117.109375 C 85.339844 117.101562 85.339844 117.070312 85.316406 116.933594 C 85.339844 117 85.355469 117.195312 85.382812 117.320312 C 85.378906 117.300781 85.371094 117.253906 85.375 117.257812 L 85.40625 117.429688 C 85.390625 117.214844 85.457031 117.488281 85.429688 117.207031 C 85.445312 117.355469 85.480469 117.613281 85.492188 117.75 L 85.476562 117.675781 C 85.484375 117.71875 85.480469 117.765625 85.503906 117.902344 C 85.527344 117.992188 85.53125 117.964844 85.523438 117.832031 L 85.542969 117.941406 C 85.542969 117.921875 85.539062 117.910156 85.535156 117.886719 C 85.550781 117.972656 85.554688 117.984375 85.5625 118.039062 L 85.566406 118.070312 C 85.632812 118.46875 85.566406 117.8125 85.613281 118.015625 C 85.609375 117.960938 85.609375 117.949219 85.597656 117.871094 C 85.640625 118.027344 85.671875 118.148438 85.707031 118.238281 C 85.6875 118.066406 85.675781 117.996094 85.640625 117.820312 L 85.664062 117.875 C 85.71875 118.332031 85.757812 118.304688 85.808594 118.765625 C 85.828125 118.867188 85.839844 118.886719 85.839844 118.8125 C 85.820312 118.699219 85.796875 118.511719 85.804688 118.511719 C 85.84375 118.664062 85.828125 118.609375 85.863281 118.753906 C 85.886719 118.902344 85.894531 118.960938 85.910156 119.082031 C 85.902344 118.886719 85.976562 119.40625 85.988281 119.375 C 85.992188 119.328125 86.007812 119.308594 85.972656 119.046875 C 85.988281 119.058594 86.015625 119.25 86.042969 119.464844 L 86.058594 119.492188 C 86.027344 119.515625 85.972656 119.425781 85.921875 119.324219 C 86.136719 120.207031 86.335938 120.984375 86.132812 119.078125 C 86.28125 120.089844 86.425781 120.546875 86.390625 120.300781 C 86.382812 120.113281 86.378906 119.957031 86.378906 119.832031 C 86.375 119.035156 86.542969 119.363281 86.710938 119.738281 C 86.800781 119.925781 87.003906 120.125 87.105469 120.410156 C 87.121094 120.445312 87.132812 120.480469 87.144531 120.507812 C 87.128906 120.449219 87.109375 120.390625 87.09375 120.328125 C 87.101562 120.054688 87.105469 119.785156 87.121094 119.609375 C 87.101562 119.464844 87.082031 119.324219 87.042969 119.125 L 87.074219 119.21875 C 87.042969 118.796875 87.085938 118.808594 87.082031 118.628906 C 87.101562 118.851562 87.125 118.890625 87.140625 118.925781 L 87.117188 118.777344 C 87.179688 118.863281 87.214844 118.679688 87.261719 118.699219 C 87.269531 118.699219 87.28125 118.78125 87.292969 118.855469 L 87.316406 118.679688 C 87.34375 118.976562 87.378906 118.9375 87.378906 119.125 C 87.375 118.769531 87.425781 118.980469 87.417969 118.613281 C 87.523438 118.558594 87.613281 118.320312 87.683594 117.808594 L 87.667969 117.699219 C 87.691406 117.5 87.671875 116.910156 87.738281 117.097656 C 87.738281 116.699219 87.769531 116.484375 87.730469 115.867188 C 87.765625 115.777344 87.757812 115.464844 87.785156 115.296875 C 87.75 114.996094 87.792969 114.925781 87.753906 114.691406 Z M 84.644531 114.667969 C 84.640625 114.628906 84.648438 114.652344 84.652344 114.65625 C 84.644531 114.652344 84.621094 114.417969 84.597656 114.191406 C 84.617188 114.277344 84.628906 114.28125 84.648438 114.410156 C 84.648438 114.394531 84.644531 114.378906 84.644531 114.371094 L 84.65625 114.425781 C 84.660156 114.472656 84.664062 114.507812 84.660156 114.527344 C 84.660156 114.507812 84.65625 114.492188 84.65625 114.472656 C 84.636719 114.378906 84.628906 114.410156 84.625 114.421875 C 84.640625 114.523438 84.648438 114.539062 84.65625 114.585938 C 84.660156 114.625 84.660156 114.65625 84.664062 114.683594 C 84.664062 114.6875 84.664062 114.691406 84.664062 114.699219 L 84.65625 114.679688 C 84.660156 114.703125 84.660156 114.714844 84.660156 114.730469 C 84.65625 114.722656 84.652344 114.707031 84.644531 114.667969 Z M 84.722656 115.042969 C 84.734375 115.109375 84.746094 115.171875 84.75 115.210938 C 84.746094 115.207031 84.734375 115.136719 84.722656 115.042969 Z M 84.722656 115.042969 " fill-opacity="1" fill-rule="nonzero"/><path fill="#a9a0f0" d="M 84.570312 113.929688 C 84.570312 113.945312 84.574219 113.960938 84.574219 113.976562 C 84.574219 113.957031 84.570312 113.945312 84.570312 113.929688 Z M 84.570312 113.929688 " fill-opacity="1" fill-rule="nonzero"/><path fill="#a9a0f0" d="M 84.660156 114.492188 C 84.65625 114.460938 84.652344 114.433594 84.648438 114.410156 C 84.652344 114.429688 84.652344 114.449219 84.65625 114.472656 C 84.65625 114.480469 84.660156 114.484375 84.660156 114.496094 Z M 84.660156 114.492188 " fill-opacity="1" fill-rule="nonzero"/><path fill="#a9a0f0" d="M 84.570312 113.929688 C 84.558594 113.824219 84.550781 113.753906 84.550781 113.78125 C 84.554688 113.808594 84.5625 113.863281 84.570312 113.929688 Z M 84.570312 113.929688 " fill-opacity="1" fill-rule="nonzero"/><path fill="#a9a0f0" d="M 74.730469 118.097656 C 74.394531 117.785156 74.539062 118.121094 74.257812 117.867188 L 74.308594 117.960938 C 73.484375 117.832031 72.738281 117.917969 72.039062 118.121094 C 71.746094 118.585938 71.1875 118.636719 70.800781 118.957031 C 70.398438 119.324219 70.011719 119.789062 69.769531 120.25 C 69.726562 120.382812 69.523438 120.207031 69.367188 120.136719 C 69.089844 120.472656 68.597656 120.691406 68.304688 121.089844 C 68.3125 121.085938 68.324219 121.082031 68.328125 121.082031 C 68.15625 121.265625 67.824219 121.121094 67.65625 121.304688 C 67.707031 121.375 67.679688 121.402344 67.691406 121.449219 C 67.402344 121.144531 67.058594 122.980469 66.859375 122.84375 C 66.851562 122.875 66.839844 122.902344 66.824219 122.929688 C 66.324219 123.097656 65.40625 122.820312 65.113281 123.164062 C 65.164062 123.371094 65.191406 123.570312 65.273438 123.785156 C 65.097656 123.707031 65.308594 123.972656 65.207031 123.996094 C 64.492188 123.535156 64.609375 123.886719 64.894531 124.019531 C 64.820312 124.230469 64.628906 124.308594 64.519531 124.445312 C 64.5 124.542969 64.484375 124.644531 64.472656 124.75 C 64.46875 124.847656 64.359375 124.78125 64.203125 124.664062 C 64.152344 124.867188 64.050781 124.683594 63.859375 124.75 C 63.628906 124.570312 63.835938 125.398438 63.738281 125.371094 L 63.730469 125.320312 C 63.546875 125.429688 63.058594 125.136719 62.890625 125.265625 C 62.324219 125.527344 62.027344 126.140625 61.589844 126.46875 C 61.804688 126.675781 61.621094 126.335938 61.914062 126.601562 C 61.664062 126.800781 61.171875 126.789062 60.914062 126.996094 C 60.816406 126.984375 60.65625 126.941406 60.566406 126.898438 C 60.414062 126.90625 60.632812 127.039062 60.554688 127.074219 L 60.34375 126.902344 C 60.4375 127.132812 60.011719 126.832031 60.027344 126.984375 C 60.105469 127.058594 60.089844 127.097656 60.058594 127.121094 C 59.839844 126.9375 60 127.222656 59.804688 127.046875 L 59.820312 127.0625 C 59.800781 127.078125 59.804688 127.101562 59.75 127.089844 C 59.796875 127.191406 60.132812 128 60.203125 128.113281 L 60.152344 128.097656 C 60.121094 128.148438 60.269531 128.304688 60.332031 128.308594 L 60.273438 128.355469 L 60.261719 128.335938 L 60.207031 128.382812 C 60.175781 128.378906 60.066406 128.304688 59.980469 128.207031 C 60.03125 128.304688 60.042969 128.375 59.980469 128.375 C 60.1875 128.398438 60.46875 128.445312 60.765625 128.539062 C 60.8125 128.640625 60.640625 128.609375 60.628906 128.671875 C 60.445312 128.597656 60.238281 128.597656 60.074219 128.59375 C 60.074219 128.621094 60.3125 128.835938 60.171875 128.785156 C 59.984375 128.667969 60.140625 128.835938 59.988281 128.769531 C 59.929688 128.65625 60 128.652344 60.039062 128.621094 C 59.832031 128.464844 59.828125 128.605469 59.746094 128.589844 C 59.796875 128.652344 59.671875 128.675781 59.691406 128.765625 C 59.574219 128.652344 59.542969 128.660156 59.5 128.664062 C 59.503906 128.671875 59.507812 128.679688 59.511719 128.6875 C 59.507812 128.675781 59.503906 128.671875 59.5 128.664062 C 59.476562 128.667969 59.449219 128.667969 59.40625 128.648438 C 59.359375 128.660156 59.421875 128.742188 59.5 128.785156 C 59.542969 128.824219 59.578125 128.84375 59.609375 128.855469 C 59.734375 129.074219 59.859375 129.3125 59.878906 129.296875 C 59.910156 129.304688 59.945312 129.335938 59.984375 129.371094 C 59.988281 129.378906 60 129.386719 60.011719 129.398438 C 60.058594 129.441406 60.105469 129.484375 60.136719 129.488281 L 60.097656 129.433594 C 60.257812 129.347656 61.171875 130.46875 61.359375 130.367188 C 61.050781 130.234375 61.117188 130.140625 61.140625 130.050781 C 61.234375 130.109375 61.382812 130.179688 61.488281 130.183594 C 61.503906 130.125 61.417969 130.085938 61.359375 130.027344 C 61.4375 130.046875 61.519531 130.039062 61.648438 130.152344 C 61.515625 129.992188 61.792969 130.183594 61.769531 130.097656 C 61.726562 130.003906 61.699219 130.046875 61.644531 129.960938 C 61.703125 129.921875 61.785156 129.867188 61.847656 129.847656 C 61.984375 129.933594 62.242188 130.066406 62.40625 130.257812 C 62.316406 130.3125 62.117188 129.972656 62.09375 130.085938 C 62.402344 130.28125 62.113281 130.222656 62.3125 130.410156 C 62.460938 130.492188 62.507812 130.4375 62.507812 130.367188 L 62.460938 130.34375 C 62.457031 130.277344 62.460938 130.148438 62.644531 130.234375 C 62.734375 130.324219 62.824219 130.367188 62.824219 130.417969 L 62.886719 130.378906 C 62.859375 130.347656 62.832031 130.3125 62.796875 130.308594 C 62.742188 130.222656 62.804688 130.230469 62.878906 130.261719 C 62.988281 130.34375 62.679688 129.621094 62.738281 129.683594 C 62.75 129.664062 62.796875 129.679688 62.832031 129.691406 C 62.824219 129.847656 62.90625 130.28125 62.914062 130.21875 C 63.050781 130.285156 62.757812 129.355469 62.976562 129.5 C 62.992188 129.464844 63 129.414062 62.890625 129.328125 C 62.980469 129.328125 63.074219 129.515625 63.199219 129.566406 C 63.183594 129.550781 63.148438 129.523438 63.160156 129.515625 L 63.316406 129.597656 C 63.21875 129.386719 63.519531 129.464844 63.375 129.203125 C 63.464844 129.324219 63.640625 129.519531 63.699219 129.65625 L 63.636719 129.617188 C 63.664062 129.652344 63.664062 129.722656 63.769531 129.8125 C 63.878906 129.828125 63.890625 129.773438 63.832031 129.636719 C 63.867188 129.652344 63.90625 129.667969 63.941406 129.683594 C 63.925781 129.671875 63.914062 129.664062 63.898438 129.648438 C 63.976562 129.691406 63.984375 129.703125 64.019531 129.742188 L 64.039062 129.769531 C 64.367188 130.007812 64.007812 129.425781 64.238281 129.484375 C 64.21875 129.421875 64.1875 129.433594 64.160156 129.351562 C 64.351562 129.378906 64.496094 129.402344 64.640625 129.382812 C 64.539062 129.234375 64.492188 129.1875 64.328125 129.097656 L 64.429688 129.070312 C 64.714844 129.441406 64.863281 129.25 65.140625 129.628906 C 65.234375 129.683594 65.285156 129.660156 65.261719 129.570312 C 65.183594 129.488281 65.050781 129.355469 65.09375 129.3125 C 65.265625 129.355469 65.210938 129.332031 65.367188 129.382812 C 65.488281 129.476562 65.511719 129.535156 65.601562 129.617188 C 65.535156 129.40625 65.90625 129.777344 65.953125 129.683594 C 65.964844 129.609375 66.039062 129.507812 65.851562 129.320312 C 65.917969 129.265625 66.058594 129.402344 66.207031 129.558594 L 66.277344 129.53125 C 66.136719 129.703125 65.90625 129.804688 65.667969 129.898438 C 66.679688 130.152344 67.617188 130.320312 66.554688 128.683594 C 67.300781 129.382812 67.964844 129.398438 67.800781 129.207031 C 67.742188 129.003906 67.714844 128.828125 67.703125 128.664062 C 67.636719 127.644531 68.417969 127.417969 69.226562 127.261719 C 69.660156 127.152344 70.652344 126.664062 71.15625 126.667969 C 71.226562 126.660156 71.292969 126.65625 71.355469 126.644531 C 71.265625 126.632812 71.179688 126.621094 71.089844 126.613281 C 71.128906 126.25 71.15625 125.898438 71.238281 125.628906 C 71.121094 125.53125 71.035156 125.417969 70.839844 125.308594 L 70.988281 125.320312 C 70.828125 124.914062 71.039062 124.789062 71.035156 124.582031 C 71.140625 124.777344 71.238281 124.761719 71.324219 124.746094 L 71.214844 124.644531 C 71.515625 124.550781 71.703125 124.199219 71.949219 124.082031 C 71.980469 124.0625 72.046875 124.117188 72.105469 124.171875 L 72.230469 123.890625 C 72.371094 124.152344 72.546875 123.996094 72.542969 124.222656 C 72.519531 123.820312 72.796875 123.898438 72.769531 123.496094 C 73.308594 123.113281 73.804688 122.578125 74.1875 121.808594 L 74.121094 121.71875 C 74.246094 121.433594 74.175781 120.8125 74.53125 120.847656 C 74.546875 120.390625 74.738281 120.074219 74.550781 119.476562 C 74.746094 119.289062 74.703125 118.960938 74.871094 118.707031 C 74.679688 118.457031 74.9375 118.265625 74.726562 118.101562 Z M 59.890625 129.289062 C 59.863281 129.257812 59.894531 129.257812 59.90625 129.25 C 59.882812 129.269531 59.75 129.0625 59.621094 128.859375 C 59.710938 128.886719 59.757812 128.835938 59.859375 128.921875 C 59.847656 128.910156 59.839844 128.898438 59.832031 128.890625 L 59.894531 128.90625 C 59.917969 128.945312 59.933594 128.988281 59.929688 129.019531 C 59.917969 129.003906 59.90625 128.988281 59.894531 128.976562 C 59.804688 128.933594 59.789062 129.003906 59.773438 129.042969 C 59.851562 129.105469 59.875 129.105469 59.910156 129.132812 C 59.933594 129.171875 59.949219 129.203125 59.957031 129.234375 C 59.957031 129.238281 59.957031 129.246094 59.960938 129.253906 L 59.9375 129.25 C 59.949219 129.273438 59.953125 129.292969 59.953125 129.308594 C 59.945312 129.3125 59.925781 129.308594 59.890625 129.289062 Z M 60.25 129.449219 C 60.304688 129.488281 60.359375 129.527344 60.386719 129.558594 C 60.367188 129.570312 60.316406 129.523438 60.25 129.449219 Z M 60.25 129.449219 " fill-opacity="1" fill-rule="nonzero"/><path fill="#a9a0f0" d="M 59.375 128.503906 C 59.402344 128.519531 59.4375 128.570312 59.480469 128.632812 C 59.417969 128.535156 59.371094 128.46875 59.375 128.503906 Z M 59.375 128.503906 " fill-opacity="1" fill-rule="nonzero"/><path fill="#a9a0f0" d="M 59.480469 128.632812 C 59.484375 128.644531 59.492188 128.652344 59.5 128.664062 C 59.492188 128.652344 59.488281 128.644531 59.480469 128.632812 Z M 59.480469 128.632812 " fill-opacity="1" fill-rule="nonzero"/><path fill="#a9a0f0" d="M 59.917969 128.984375 C 59.894531 128.957031 59.875 128.9375 59.859375 128.921875 C 59.867188 128.9375 59.882812 128.957031 59.894531 128.976562 C 59.902344 128.980469 59.910156 128.976562 59.917969 128.984375 Z M 59.917969 128.984375 " fill-opacity="1" fill-rule="nonzero"/></svg>