<svg xmlns="http://www.w3.org/2000/svg" xmlns:xlink="http://www.w3.org/1999/xlink" width="400" zoomAndPan="magnify" viewBox="0 0 300 299.999988" height="400" preserveAspectRatio="xMidYMid meet" version="1.0"><defs><clipPath id="26e6581f5e"><path d="M 51.300781 165 L 157 165 L 157 270 L 51.300781 270 Z M 51.300781 165 " clip-rule="nonzero"/></clipPath><clipPath id="32f293b40a"><path d="M 187 111 L 248.550781 111 L 248.550781 150 L 187 150 Z M 187 111 " clip-rule="nonzero"/></clipPath></defs><path fill="#a9a0f0" d="M 112.113281 32.011719 C 112.078125 32 112.058594 31.992188 112.023438 31.976562 C 111.96875 31.960938 111.921875 31.90625 111.921875 31.839844 C 111.886719 31.558594 112.292969 31.273438 112.472656 31.125 C 112.777344 30.882812 113.160156 30.753906 113.535156 30.691406 C 114.355469 30.554688 115.167969 30.445312 116 30.367188 C 117.613281 30.214844 119.234375 30.125 120.859375 30.074219 C 122.628906 30.023438 124.386719 30.273438 126.121094 30.554688 C 127.621094 30.800781 129.105469 31.140625 130.570312 31.542969 C 132.046875 31.949219 133.523438 32.367188 134.953125 32.917969 C 135.699219 33.210938 136.441406 33.484375 137.164062 33.796875 C 137.953125 34.144531 138.753906 34.484375 139.542969 34.828125 C 139.441406 34.785156 139.339844 34.742188 139.238281 34.699219 C 139.992188 35.023438 140.746094 35.363281 141.492188 35.738281 C 142.289062 36.144531 143.078125 36.589844 143.847656 37.0625 C 145.1875 37.882812 146.492188 38.773438 147.824219 39.609375 C 149.1875 40.464844 150.539062 41.316406 151.867188 42.222656 C 153.164062 43.113281 154.4375 44.054688 155.699219 45.011719 C 156.953125 45.953125 158.179688 46.925781 159.363281 47.941406 C 160.589844 48.980469 161.761719 50.074219 162.902344 51.199219 C 165.1875 53.460938 167.363281 55.894531 169.234375 58.523438 C 171.046875 61.0625 172.625 63.785156 174.078125 66.546875 C 174.824219 67.945312 175.554688 69.351562 176.300781 70.753906 C 177.042969 72.160156 177.777344 73.578125 178.429688 75.027344 C 179.792969 78.015625 180.917969 81.105469 182.035156 84.1875 C 183.128906 87.207031 184.175781 90.238281 185.101562 93.3125 C 186.023438 96.417969 186.835938 99.574219 187.464844 102.757812 C 188.085938 105.859375 188.726562 108.964844 189.113281 112.113281 C 189.179688 112.613281 189.234375 113.117188 189.292969 113.617188 C 189.507812 115.183594 189.777344 116.746094 190.011719 118.3125 C 190.226562 119.824219 190.375 121.347656 190.542969 122.867188 C 190.699219 124.390625 190.847656 125.910156 190.859375 127.449219 C 190.859375 129.15625 190.859375 130.859375 190.824219 132.566406 C 190.78125 134.070312 190.757812 135.582031 190.699219 137.085938 C 190.65625 138.65625 190.609375 140.230469 190.507812 141.792969 C 190.417969 143.339844 190.285156 144.929688 189.742188 146.386719 C 189.304688 147.550781 188.628906 148.5625 187.960938 149.605469 C 187.851562 149.792969 187.726562 149.960938 187.578125 150.121094 C 187.578125 150.125 187.566406 150.125 187.566406 150.125 C 187.558594 150.125 187.558594 150.121094 187.558594 150.113281 C 187.558594 150.007812 187.546875 149.902344 187.535156 149.796875 L 187.535156 149.8125 C 187.476562 149.359375 187.398438 148.914062 187.34375 148.457031 C 186.980469 147.894531 186.675781 147.296875 186.40625 146.683594 C 186.183594 146.15625 186 145.621094 185.855469 145.066406 C 185.71875 144.542969 185.6875 144 185.617188 143.46875 C 185.382812 141.414062 185.144531 139.363281 184.886719 137.316406 C 184.898438 137.386719 184.898438 137.460938 184.910156 137.53125 C 184.761719 136.4375 184.636719 135.339844 184.523438 134.238281 C 184.425781 133.257812 184.3125 132.28125 184.210938 131.296875 C 183.882812 128.964844 183.535156 126.636719 183.171875 124.308594 C 182.992188 123.136719 182.824219 121.957031 182.609375 120.792969 C 182.40625 119.644531 182.191406 118.496094 181.980469 117.347656 C 181.585938 115.339844 181.199219 113.328125 180.828125 111.3125 C 180.492188 109.417969 180.074219 107.542969 179.601562 105.679688 C 179.613281 105.738281 179.636719 105.800781 179.644531 105.855469 C 178.746094 102.550781 177.628906 99.304688 176.332031 96.132812 C 176.355469 96.191406 176.378906 96.242188 176.402344 96.296875 C 175.9375 95.183594 175.476562 94.070312 174.980469 92.972656 C 174.441406 91.78125 173.886719 90.59375 173.324219 89.421875 C 172.265625 87.222656 171.183594 85.042969 170.066406 82.882812 C 169.097656 80.992188 168.074219 79.132812 167.035156 77.28125 C 166.765625 76.832031 166.519531 76.378906 166.257812 75.933594 C 165.289062 74.296875 159.644531 66.683594 158.371094 65.132812 C 157.03125 63.476562 155.585938 61.914062 154.113281 60.375 C 154.15625 60.421875 154.203125 60.464844 154.246094 60.515625 C 152.859375 59.109375 151.453125 57.742188 150.03125 56.386719 C 149.34375 55.738281 148.644531 55.109375 147.949219 54.488281 C 147.25 53.878906 146.539062 53.308594 145.828125 52.726562 C 145.875 52.761719 145.917969 52.800781 145.976562 52.839844 C 145.300781 52.316406 144.625 51.785156 143.925781 51.289062 C 143.191406 50.761719 142.4375 50.25 141.695312 49.734375 C 140.238281 48.738281 138.808594 47.734375 137.308594 46.816406 C 135.246094 45.601562 133.140625 44.476562 131.011719 43.382812 C 129.953125 42.835938 128.882812 42.316406 127.8125 41.785156 C 126.71875 41.242188 125.636719 40.691406 124.542969 40.171875 C 122.929688 39.410156 121.296875 38.703125 119.652344 37.992188 C 119.675781 38.003906 119.699219 38.011719 119.730469 38.019531 C 118.132812 37.339844 117.261719 36.660156 115.628906 36.121094 C 115.460938 36.085938 115.300781 36.054688 115.132812 36.027344 C 115 36 114.839844 36.011719 114.726562 35.933594 C 114.605469 35.851562 114.492188 35.691406 114.59375 35.539062 C 114.671875 35.414062 114.816406 35.359375 114.976562 35.378906 C 115.234375 35.40625 115.496094 35.464844 115.765625 35.515625 C 115.742188 35.515625 115.730469 35.511719 115.71875 35.511719 C 117.90625 35.773438 119.347656 36.226562 121.464844 36.847656 C 122.535156 37.152344 123.617188 37.46875 124.667969 37.863281 C 125.769531 38.277344 126.875 38.707031 127.957031 39.179688 C 127.914062 39.15625 127.855469 39.132812 127.8125 39.113281 C 127.921875 39.152344 128.023438 39.199219 128.125 39.246094 C 128.398438 39.363281 128.667969 39.476562 128.925781 39.597656 C 128.902344 39.582031 128.882812 39.574219 128.871094 39.566406 C 131.113281 40.539062 133.320312 41.574219 135.507812 42.667969 C 136.578125 43.207031 137.625 43.78125 138.664062 44.375 C 139.765625 45.003906 140.804688 45.707031 141.851562 46.410156 C 143.914062 47.800781 145.988281 49.175781 147.949219 50.707031 C 147.9375 50.699219 147.925781 50.6875 147.914062 50.679688 L 148.511719 51.152344 C 150.414062 52.652344 152.195312 54.324219 153.953125 55.996094 C 155.800781 57.761719 157.582031 59.59375 159.25 61.523438 C 160.816406 63.324219 162.257812 65.222656 163.710938 67.117188 C 165.222656 69.105469 166.699219 71.132812 167.972656 73.289062 C 169.234375 75.441406 170.429688 77.636719 171.589844 79.851562 C 172.1875 80.984375 172.761719 82.117188 173.335938 83.257812 C 173.875 84.324219 174.417969 85.386719 174.925781 86.46875 C 175.453125 87.574219 175.996094 88.671875 176.511719 89.785156 C 177.066406 90.972656 177.605469 92.167969 178.125 93.367188 C 179.105469 95.628906 179.996094 97.925781 180.808594 100.242188 C 181.617188 102.542969 182.351562 104.867188 182.9375 107.230469 C 183.535156 109.628906 183.996094 112.0625 184.515625 114.480469 C 185.03125 116.839844 185.5625 119.199219 186 121.574219 C 186.429688 123.957031 186.8125 126.351562 187.183594 128.742188 C 187.261719 129.320312 187.355469 129.898438 187.433594 130.476562 C 187.464844 129.410156 187.476562 128.34375 187.5 127.277344 L 187.5 126.96875 C 187.5 125.703125 187.398438 124.4375 187.285156 123.179688 C 187.183594 121.96875 187.070312 120.761719 186.9375 119.554688 C 186.949219 119.625 186.960938 119.695312 186.96875 119.765625 C 186.9375 119.46875 186.890625 119.167969 186.859375 118.867188 C 186.859375 118.941406 186.871094 119.007812 186.878906 119.082031 C 186.710938 117.75 186.476562 116.429688 186.292969 115.101562 C 186.101562 113.773438 185.980469 112.433594 185.808594 111.101562 C 185.796875 110.988281 185.789062 110.878906 185.777344 110.765625 C 185.4375 108.371094 184.976562 105.984375 184.546875 103.601562 C 184.097656 101.144531 183.523438 98.71875 182.890625 96.300781 C 181.425781 90.921875 179.453125 85.703125 177.382812 80.53125 C 177.402344 80.589844 177.425781 80.652344 177.460938 80.714844 C 176.421875 78.25 175.332031 75.824219 174.011719 73.496094 C 173.84375 73.214844 173.683594 72.925781 173.515625 72.640625 C 173.5625 72.707031 173.59375 72.769531 173.628906 72.832031 C 172.433594 70.816406 171.261719 68.785156 169.988281 66.816406 C 168.804688 64.996094 167.53125 63.226562 166.238281 61.488281 C 164.578125 59.394531 162.789062 57.429688 160.964844 55.503906 C 160.015625 54.554688 159.046875 53.617188 158.054688 52.71875 C 157.097656 51.859375 156.117188 51.046875 155.125 50.242188 C 152.433594 48.15625 149.625 46.265625 146.730469 44.492188 C 146.394531 44.292969 146.066406 44.101562 145.738281 43.902344 C 145.828125 43.957031 145.90625 44.007812 146 44.054688 C 144.667969 43.265625 143.351562 42.445312 142.019531 41.644531 C 142.054688 41.667969 142.097656 41.691406 142.132812 41.71875 C 141.660156 41.4375 141.1875 41.15625 140.691406 40.914062 C 140.148438 40.648438 139.609375 40.402344 139.058594 40.15625 C 136.488281 39.105469 133.929688 38.003906 131.292969 37.117188 C 128.746094 36.265625 126.199219 35.421875 123.628906 34.648438 C 122.007812 34.214844 120.375 33.808594 118.71875 33.484375 C 116.980469 33.140625 115.246094 32.820312 113.5 32.53125 C 113.476562 32.527344 113.453125 32.527344 113.433594 32.523438 C 113.433594 32.519531 113.421875 32.519531 113.410156 32.519531 L 113.421875 32.519531 C 113.25 32.492188 113.09375 32.457031 112.925781 32.40625 C 112.644531 32.3125 112.371094 32.140625 112.113281 32.011719 Z M 146.707031 44.480469 L 146.753906 44.503906 L 146.707031 44.480469 C 146.640625 44.4375 146.5625 44.390625 146.492188 44.347656 Z M 115.628906 36.121094 L 115.59375 36.109375 C 115.605469 36.113281 115.617188 36.117188 115.628906 36.121094 Z M 112.113281 32.011719 L 112.078125 32 C 112.089844 32.003906 112.101562 32.007812 112.113281 32.011719 Z M 112.113281 32.011719 " fill-opacity="1" fill-rule="nonzero"/><path fill="#a9a0f0" d="M 111.179688 40.535156 C 110.390625 39.316406 109.703125 38.066406 109.238281 36.691406 C 109.128906 36.355469 109.039062 36.011719 108.945312 35.664062 C 108.867188 35.351562 108.824219 35.042969 108.8125 34.71875 C 108.8125 34.4375 108.902344 34.171875 108.992188 33.914062 C 109.140625 33.523438 109.363281 33.167969 109.613281 32.828125 C 109.9375 32.378906 110.332031 31.914062 110.851562 31.703125 C 111.359375 31.496094 111.933594 31.488281 112.472656 31.625 C 112.472656 31.601562 112.472656 31.582031 112.484375 31.558594 C 112.542969 31.136719 112.949219 30.878906 113.351562 30.929688 C 113.667969 30.964844 113.949219 31.140625 114.222656 31.300781 C 114.523438 31.484375 114.808594 31.699219 115.066406 31.9375 C 115.605469 32.417969 116.070312 33 116.566406 33.523438 C 117.523438 34.546875 118.558594 35.515625 119.496094 36.5625 C 120.496094 37.660156 121.476562 38.773438 122.355469 39.96875 C 123.234375 41.148438 124.160156 42.292969 124.960938 43.523438 C 125.625 44.542969 126.289062 45.570312 126.832031 46.660156 C 127.449219 47.894531 128.011719 49.148438 128.589844 50.410156 L 128.507812 50.242188 L 128.9375 51.164062 C 128.9375 51.160156 128.9375 51.15625 128.9375 51.152344 C 129.46875 52.277344 130.019531 53.402344 130.550781 54.539062 C 130.550781 54.53125 130.539062 54.527344 130.539062 54.523438 C 131.214844 55.972656 131.914062 57.417969 132.554688 58.886719 C 133.140625 60.21875 133.683594 61.566406 134.175781 62.929688 C 134.707031 64.347656 135.214844 65.777344 135.734375 67.195312 C 136.25 68.609375 136.679688 70.042969 137.085938 71.488281 C 137.398438 72.574219 137.703125 73.65625 138.042969 74.742188 L 138.054688 74.742188 C 138.054688 74.753906 138.054688 74.769531 138.066406 74.785156 C 138.480469 76.070312 138.910156 77.347656 139.316406 78.644531 C 139.304688 78.597656 139.292969 78.554688 139.269531 78.503906 C 140.183594 81.367188 140.679688 84.332031 141.085938 87.300781 C 141.289062 88.742188 141.445312 90.191406 141.582031 91.640625 C 141.726562 93.089844 141.828125 94.539062 141.851562 95.996094 C 141.886719 98.609375 141.851562 101.21875 141.804688 103.828125 L 141.402344 111.816406 L 141.300781 112.957031 C 141.300781 112.902344 141.308594 112.847656 141.308594 112.792969 C 141.039062 115.84375 140.734375 118.890625 140.351562 121.929688 C 140.171875 123.332031 139.957031 124.734375 139.753906 126.132812 C 139.542969 127.605469 139.339844 129.082031 139.066406 130.546875 C 138.796875 132.070312 138.460938 133.585938 138.085938 135.089844 C 137.714844 136.511719 137.308594 137.921875 136.914062 139.332031 C 136.542969 140.707031 136.171875 142.082031 135.777344 143.453125 C 135.5625 144.179688 135.359375 144.902344 135.101562 145.609375 C 134.84375 146.339844 134.5625 147.0625 134.257812 147.78125 C 133.671875 149.167969 133.074219 150.539062 132.453125 151.914062 C 131.855469 153.269531 131.238281 154.617188 130.515625 155.910156 C 130.121094 156.628906 129.714844 157.332031 129.277344 158.027344 C 128.859375 158.683594 128.398438 159.316406 127.933594 159.941406 C 127.054688 161.152344 126.121094 162.324219 125.164062 163.472656 C 124.296875 164.507812 123.414062 165.523438 122.46875 166.480469 C 121.804688 167.152344 121.070312 167.753906 120.292969 168.3125 C 120.191406 168.433594 120.09375 168.554688 119.96875 168.664062 C 119.890625 169.101562 119.585938 169.511719 119.210938 169.71875 C 119.011719 169.828125 118.773438 169.882812 118.535156 169.882812 C 118.445312 169.882812 118.355469 169.875 118.265625 169.859375 C 117.355469 169.691406 116.585938 168.894531 116.519531 167.964844 C 116.464844 167.082031 116.890625 166.230469 117.261719 165.457031 C 117.433594 165.09375 117.648438 164.757812 117.839844 164.410156 C 118.132812 163.910156 118.390625 163.394531 118.726562 162.917969 C 118.828125 162.78125 118.929688 162.648438 119.019531 162.515625 L 118.726562 162.917969 C 118.828125 162.78125 118.929688 162.648438 119.019531 162.515625 C 119.269531 162.15625 119.503906 161.792969 119.753906 161.433594 C 120.023438 161.015625 120.316406 160.605469 120.566406 160.175781 C 120.8125 159.667969 121.015625 159.144531 121.207031 158.621094 C 121.445312 158.03125 121.679688 157.449219 121.929688 156.871094 L 123.371094 153.3125 C 124.273438 150.71875 125.039062 148.082031 125.761719 145.425781 C 126.109375 144.121094 126.414062 142.8125 126.75 141.507812 C 127.101562 140.171875 127.4375 138.824219 127.753906 137.476562 C 127.820312 137.15625 127.902344 136.828125 127.96875 136.507812 C 127.96875 136.515625 127.96875 136.523438 127.96875 136.539062 C 127.992188 136.402344 128.023438 136.265625 128.046875 136.132812 C 128.597656 133.421875 129.050781 130.6875 129.332031 127.933594 C 129.613281 125.144531 130.121094 122.378906 130.390625 119.585938 C 130.402344 119.445312 130.414062 119.308594 130.425781 119.171875 C 130.414062 119.257812 130.414062 119.34375 130.402344 119.433594 L 130.4375 119.035156 L 130.59375 115.726562 C 130.660156 114.679688 130.742188 113.636719 130.761719 112.589844 C 130.808594 110.414062 130.796875 108.238281 130.695312 106.066406 C 130.605469 104.703125 130.492188 103.347656 130.402344 101.988281 C 130.3125 100.609375 130.1875 99.242188 130.019531 97.871094 C 129.679688 95.199219 129.355469 92.53125 129.003906 89.863281 C 128.667969 87.214844 128.285156 84.574219 127.800781 81.953125 C 127.257812 79.214844 126.59375 76.5 125.953125 73.777344 C 125.265625 70.890625 124.542969 68 123.710938 65.148438 L 123.167969 63.441406 L 122.265625 60.816406 L 121.207031 58.199219 L 121.164062 58.113281 C 121.171875 58.136719 121.183594 58.160156 121.195312 58.183594 L 121.195312 58.1875 C 121.21875 58.210938 121.230469 58.234375 121.242188 58.257812 C 121.207031 58.1875 121.164062 58.121094 121.140625 58.050781 C 121.140625 58.058594 121.140625 58.0625 121.140625 58.074219 C 121.128906 58.050781 121.117188 58.027344 121.117188 58.007812 L 120.949219 57.640625 C 120.9375 57.628906 120.925781 57.613281 120.925781 57.605469 C 120.914062 57.59375 120.914062 57.585938 120.902344 57.574219 L 120.914062 57.574219 C 119.96875 55.664062 119.066406 53.734375 118.121094 51.835938 C 117.195312 49.984375 116.28125 48.113281 115.191406 46.351562 L 113.835938 44.378906 C 113.835938 44.375 113.828125 44.371094 113.828125 44.367188 C 113.816406 44.34375 113.792969 44.316406 113.78125 44.296875 C 112.890625 43.039062 111.988281 41.796875 111.15625 40.496094 L 111.15625 40.5 C 111.15625 40.496094 111.15625 40.496094 111.15625 40.496094 L 111.15625 40.5 C 111.167969 40.511719 111.167969 40.523438 111.179688 40.53125 L 111.179688 40.535156 C 111.179688 40.535156 111.179688 40.535156 111.179688 40.53125 Z M 132.453125 144.023438 C 132.453125 144.027344 132.453125 144.027344 132.453125 144.03125 C 132.453125 144.027344 132.453125 144.027344 132.453125 144.023438 C 132.464844 144.003906 132.476562 143.984375 132.488281 143.960938 C 132.464844 143.992188 132.453125 144.03125 132.441406 144.066406 L 132.441406 144.058594 C 132.441406 144.058594 132.441406 144.066406 132.441406 144.070312 C 132.441406 144.074219 132.441406 144.078125 132.429688 144.082031 L 132.429688 144.085938 C 132.171875 144.78125 131.84375 145.464844 131.53125 146.136719 C 131.167969 146.894531 130.796875 147.652344 130.4375 148.410156 C 129.714844 149.898438 128.984375 151.386719 128.238281 152.859375 C 128.25 152.828125 128.273438 152.792969 128.285156 152.761719 C 128.261719 152.808594 128.238281 152.851562 128.214844 152.894531 C 127.449219 154.285156 126.605469 155.628906 125.792969 156.992188 C 125.09375 158.160156 124.40625 159.335938 123.742188 160.527344 C 123.890625 160.15625 124.035156 159.785156 124.171875 159.417969 C 124.578125 158.367188 125.050781 157.347656 125.46875 156.296875 C 125.871094 155.261719 126.253906 154.214844 126.59375 153.164062 C 127.460938 150.535156 128.273438 147.890625 129.050781 145.238281 C 129.457031 143.902344 129.839844 142.566406 130.257812 141.234375 C 130.660156 139.941406 131.078125 138.65625 131.394531 137.339844 C 131.730469 135.914062 132.035156 134.484375 132.328125 133.046875 C 132.609375 131.671875 132.902344 130.296875 133.128906 128.90625 C 133.355469 127.519531 133.535156 126.125 133.738281 124.738281 C 133.953125 123.335938 134.144531 121.9375 134.257812 120.53125 C 134.3125 119.761719 134.359375 119 134.367188 118.234375 C 134.378906 117.53125 134.378906 116.832031 134.402344 116.128906 C 134.425781 114.804688 134.449219 113.476562 134.4375 112.148438 C 134.4375 110.78125 134.4375 109.410156 134.390625 108.046875 C 134.335938 106.570312 134.222656 105.101562 134.097656 103.632812 C 133.984375 102.300781 133.917969 100.96875 133.78125 99.636719 C 133.660156 98.246094 133.457031 96.871094 133.253906 95.488281 C 133.050781 94.109375 132.792969 92.742188 132.554688 91.367188 C 132.308594 89.941406 132.046875 88.519531 131.789062 87.101562 C 131.789062 87.117188 131.789062 87.128906 131.789062 87.144531 C 131.539062 85.785156 131.292969 84.429688 131.023438 83.082031 C 130.761719 81.835938 130.46875 80.605469 130.164062 79.371094 C 129.46875 76.554688 128.78125 73.730469 127.992188 70.933594 C 127.191406 68.128906 126.449219 65.300781 125.546875 62.527344 L 125.546875 62.53125 C 125.46875 62.300781 125.386719 62.074219 125.320312 61.847656 C 124.722656 59.996094 124.046875 58.167969 123.222656 56.414062 L 123.054688 56.054688 L 123.054688 56.0625 L 122.875 55.6875 L 122.875 55.683594 C 122.875 55.671875 122.863281 55.660156 122.851562 55.648438 L 122.851562 55.644531 C 122.59375 55.070312 122.324219 54.496094 122.050781 53.929688 L 122.050781 53.9375 L 121.871094 53.554688 L 119.191406 48.210938 C 118.71875 47.320312 118.242188 46.410156 117.726562 45.535156 C 117.242188 44.714844 116.710938 43.90625 116.191406 43.101562 L 115.910156 42.652344 C 114.75 40.800781 113.601562 38.929688 112.632812 36.972656 C 112.382812 36.417969 112.148438 35.859375 111.945312 35.285156 C 111.898438 35.121094 111.84375 34.953125 111.808594 34.792969 C 111.820312 34.742188 111.84375 34.695312 111.867188 34.644531 C 111.957031 34.484375 112.058594 34.320312 112.160156 34.160156 C 112.191406 34.160156 112.226562 34.167969 112.269531 34.167969 C 112.304688 34.179688 112.339844 34.199219 112.382812 34.210938 C 112.40625 34.226562 112.441406 34.246094 112.472656 34.265625 C 113.050781 34.695312 113.589844 35.160156 114.128906 35.640625 C 114.253906 35.832031 114.378906 36.019531 114.515625 36.207031 C 115.019531 36.929688 115.605469 37.597656 116.183594 38.273438 C 116.734375 38.917969 117.285156 39.5625 117.859375 40.191406 C 118.414062 40.808594 118.964844 41.417969 119.496094 42.058594 C 119.449219 42 119.40625 41.945312 119.347656 41.886719 C 120.070312 42.757812 120.800781 43.613281 121.535156 44.464844 C 122.007812 45.054688 122.46875 45.65625 122.921875 46.265625 L 124.101562 47.996094 L 125.601562 50.738281 C 126.132812 51.746094 126.660156 52.757812 127.203125 53.757812 L 130.085938 59.386719 L 132.363281 64.847656 C 133.027344 66.613281 133.691406 68.378906 134.277344 70.179688 C 134.277344 70.167969 134.269531 70.160156 134.269531 70.144531 C 134.277344 70.164062 134.277344 70.175781 134.277344 70.195312 C 134.277344 70.199219 134.289062 70.207031 134.289062 70.210938 C 134.289062 70.210938 134.289062 70.214844 134.289062 70.226562 L 134.289062 70.222656 C 134.289062 70.226562 134.289062 70.230469 134.300781 70.234375 L 134.300781 70.230469 C 134.300781 70.234375 134.300781 70.238281 134.300781 70.246094 L 134.300781 70.257812 C 134.707031 71.625 135.089844 72.988281 135.507812 74.363281 C 135.902344 75.710938 136.375 77.035156 136.804688 78.378906 C 136.792969 78.328125 136.78125 78.28125 136.757812 78.230469 C 136.871094 78.566406 136.972656 78.90625 137.074219 79.242188 C 137.289062 79.96875 137.523438 80.699219 137.691406 81.445312 C 137.875 82.242188 138.042969 83.039062 138.199219 83.84375 C 138.527344 85.703125 138.820312 87.554688 139.023438 89.429688 C 139.136719 90.445312 139.25 91.464844 139.328125 92.480469 L 139.519531 95.410156 L 139.484375 102.996094 C 139.449219 105.367188 139.371094 107.742188 139.167969 110.113281 L 139.167969 110.101562 C 139.011719 111.734375 138.820312 113.359375 138.640625 114.988281 C 138.277344 117.90625 137.929688 120.816406 137.5 123.71875 C 137.277344 125.195312 137.074219 126.667969 136.847656 128.144531 C 136.632812 129.550781 136.375 130.953125 136.082031 132.351562 C 135.855469 133.28125 135.632812 134.203125 135.359375 135.125 C 135.089844 136.054688 134.785156 136.972656 134.503906 137.898438 C 134.222656 138.808594 133.929688 139.714844 133.636719 140.621094 C 133.332031 141.53125 133.050781 142.449219 132.710938 143.347656 C 132.710938 143.339844 132.710938 143.332031 132.710938 143.332031 C 132.691406 143.40625 132.667969 143.480469 132.632812 143.558594 C 132.632812 143.550781 132.632812 143.546875 132.644531 143.539062 L 132.5 143.902344 L 132.511719 143.902344 C 132.488281 143.941406 132.476562 143.984375 132.453125 144.023438 Z M 123.40625 153.25 C 123.382812 153.296875 123.371094 153.34375 123.347656 153.386719 L 123.371094 153.3125 L 123.40625 153.25 C 123.40625 153.230469 123.414062 153.214844 123.414062 153.199219 Z M 130.4375 119.035156 L 130.449219 118.824219 C 130.449219 118.914062 130.4375 119 130.4375 119.085938 Z M 141.402344 111.816406 L 141.410156 111.6875 C 141.410156 111.738281 141.402344 111.789062 141.402344 111.84375 Z M 139.519531 95.5 L 139.53125 95.550781 C 139.53125 95.535156 139.519531 95.519531 139.519531 95.5 L 139.519531 95.398438 C 139.519531 95.433594 139.519531 95.46875 139.519531 95.5 Z M 123.167969 63.441406 L 123.15625 63.410156 C 123.167969 63.4375 123.179688 63.464844 123.191406 63.492188 Z M 130.085938 59.386719 L 130.054688 59.300781 C 130.074219 59.347656 130.097656 59.394531 130.121094 59.445312 Z M 121.207031 58.199219 L 121.207031 58.191406 L 121.273438 58.335938 Z M 124.101562 47.996094 L 124.082031 47.957031 C 124.113281 48.007812 124.148438 48.066406 124.183594 48.117188 Z M 115.257812 46.449219 L 115.28125 46.476562 L 115.191406 46.351562 L 115.191406 46.34375 C 115.210938 46.375 115.234375 46.414062 115.257812 46.449219 Z M 115.257812 46.449219 " fill-opacity="1" fill-rule="evenodd"/><g clip-path="url(#26e6581f5e)"><path fill="#a9a0f0" d="M 100.824219 269.992188 C 99.183594 269.894531 97.550781 269.65625 95.925781 269.410156 C 94.367188 269.175781 92.808594 268.929688 91.257812 268.621094 C 89.769531 268.332031 88.296875 267.988281 86.832031 267.585938 C 85.378906 267.191406 83.945312 266.734375 82.546875 266.175781 C 81.832031 265.894531 81.125 265.605469 80.425781 265.28125 C 80.097656 265.132812 79.761719 264.976562 79.429688 264.824219 C 79 264.621094 78.589844 264.371094 78.171875 264.140625 C 76.792969 263.378906 75.523438 262.421875 74.246094 261.503906 C 73.648438 261.078125 73.089844 260.578125 72.519531 260.117188 C 71.925781 259.636719 71.363281 259.113281 70.796875 258.601562 C 69.75 257.660156 68.742188 256.683594 67.78125 255.664062 C 66.730469 254.554688 65.6875 253.429688 64.75 252.226562 C 63.835938 251.050781 62.945312 249.867188 62.058594 248.675781 C 61.605469 248.070312 61.144531 247.460938 60.691406 246.855469 C 60.242188 246.246094 59.769531 245.652344 59.34375 245.027344 C 59.113281 244.6875 58.878906 244.351562 58.648438 244.011719 C 58.40625 243.660156 58.140625 243.3125 57.917969 242.941406 C 57.542969 242.300781 57.164062 241.65625 56.785156 241.019531 C 56.605469 240.71875 56.457031 240.394531 56.296875 240.082031 C 56.113281 239.730469 55.929688 239.378906 55.75 239.023438 C 55.375 238.296875 55.03125 237.554688 54.679688 236.816406 C 54.324219 236.074219 53.988281 235.316406 53.679688 234.554688 C 53.316406 233.644531 53.003906 232.714844 52.742188 231.769531 C 52.46875 230.777344 52.238281 229.738281 52.101562 228.710938 C 52.003906 227.972656 51.867188 227.230469 51.796875 226.488281 C 51.722656 225.65625 51.605469 224.816406 51.578125 223.984375 C 51.523438 222.574219 51.472656 221.179688 51.546875 219.773438 C 51.625 218.230469 51.71875 216.691406 51.863281 215.152344 C 52.003906 213.679688 52.136719 212.195312 52.394531 210.734375 C 52.664062 209.21875 52.960938 207.714844 53.394531 206.234375 C 53.824219 204.769531 54.273438 203.304688 54.847656 201.882812 C 55.417969 200.464844 56.011719 199.054688 56.714844 197.695312 C 58.109375 194.988281 59.59375 192.324219 61.242188 189.765625 C 61.679688 189.085938 62.136719 188.425781 62.601562 187.769531 C 63.039062 187.152344 63.503906 186.566406 63.972656 185.972656 C 64.851562 184.851562 65.820312 183.777344 66.796875 182.738281 C 68.839844 180.558594 70.890625 178.402344 73.058594 176.347656 C 73.613281 175.824219 74.179688 175.3125 74.746094 174.796875 C 75.328125 174.273438 75.9375 173.78125 76.539062 173.277344 C 77.109375 172.808594 77.722656 172.394531 78.324219 171.960938 C 78.597656 171.765625 78.890625 171.597656 79.179688 171.421875 C 79.480469 171.242188 79.773438 171.046875 80.082031 170.878906 C 81.023438 170.375 81.96875 169.859375 82.933594 169.40625 C 83.898438 168.953125 84.859375 168.472656 85.863281 168.109375 C 86.914062 167.734375 87.964844 167.355469 89.035156 167.023438 C 90.128906 166.695312 91.226562 166.328125 92.351562 166.101562 C 92.296875 166.109375 92.242188 166.121094 92.1875 166.128906 C 92.890625 165.984375 93.605469 165.808594 94.324219 165.722656 C 95.132812 165.621094 95.933594 165.535156 96.746094 165.472656 C 98.195312 165.363281 99.648438 165.253906 101.097656 165.171875 C 104.113281 165 107.148438 164.953125 110.160156 165.265625 C 112.074219 165.460938 113.957031 165.839844 115.796875 166.421875 C 116.769531 166.730469 117.71875 167.074219 118.644531 167.507812 C 118.808594 167.585938 118.96875 167.683594 119.136719 167.773438 C 119.382812 167.910156 119.527344 168.070312 119.601562 168.339844 C 119.621094 168.414062 119.613281 168.5625 119.535156 168.601562 L 119.523438 168.601562 C 119.519531 168.597656 119.519531 168.597656 119.515625 168.597656 L 119.503906 168.597656 C 119.265625 168.707031 119.085938 168.703125 118.828125 168.65625 C 118.636719 168.625 118.453125 168.585938 118.265625 168.550781 C 117.824219 168.46875 117.382812 168.378906 116.945312 168.320312 C 116.019531 168.1875 115.09375 168.09375 114.160156 168.015625 C 114.195312 168.015625 114.226562 168.019531 114.261719 168.019531 C 114.21875 168.015625 114.179688 168.015625 114.136719 168.011719 C 112.914062 167.933594 111.691406 167.886719 110.472656 167.914062 C 109.03125 167.941406 107.597656 168.019531 106.164062 168.105469 C 106.199219 168.101562 106.234375 168.097656 106.269531 168.09375 C 104.351562 168.226562 102.445312 168.398438 100.539062 168.617188 C 99.574219 168.726562 98.605469 168.828125 97.640625 168.941406 C 96.613281 169.050781 95.589844 169.183594 94.570312 169.335938 C 94.085938 169.445312 93.601562 169.554688 93.117188 169.664062 C 92.566406 169.789062 92.023438 169.972656 91.480469 170.128906 C 90.515625 170.398438 89.570312 170.742188 88.625 171.058594 C 87.921875 171.320312 87.21875 171.585938 86.527344 171.878906 C 85.785156 172.191406 85.066406 172.53125 84.34375 172.878906 C 84.414062 172.84375 84.484375 172.808594 84.558594 172.769531 C 83.894531 173.109375 83.234375 173.4375 82.582031 173.792969 C 81.890625 174.164062 81.222656 174.570312 80.554688 174.976562 C 80.328125 175.140625 80.105469 175.304688 79.878906 175.46875 C 79.636719 175.640625 79.382812 175.796875 79.160156 175.984375 C 78.644531 176.410156 78.136719 176.828125 77.621094 177.25 C 76.222656 178.519531 74.851562 179.820312 73.511719 181.152344 C 72.121094 182.535156 70.808594 183.992188 69.492188 185.445312 C 69.542969 185.382812 69.597656 185.324219 69.652344 185.261719 C 69.03125 185.972656 68.414062 186.6875 67.820312 187.421875 C 67.234375 188.136719 66.6875 188.875 66.136719 189.617188 C 65.765625 190.175781 65.375 190.730469 65.023438 191.308594 C 64.550781 192.09375 64.074219 192.871094 63.621094 193.667969 C 62.769531 195.152344 61.964844 196.652344 61.164062 198.164062 C 60.882812 198.710938 60.609375 199.257812 60.335938 199.804688 C 59.675781 201.148438 59.132812 202.542969 58.59375 203.941406 C 58.28125 204.875 57.972656 205.808594 57.707031 206.757812 C 57.570312 207.25 57.421875 207.730469 57.308594 208.226562 C 57.179688 208.769531 57.058594 209.320312 56.933594 209.875 C 56.832031 210.460938 56.734375 211.046875 56.636719 211.636719 C 56.554688 212.148438 56.507812 212.660156 56.445312 213.175781 C 56.320312 214.21875 56.214844 215.269531 56.144531 216.316406 C 56.152344 216.21875 56.160156 216.117188 56.167969 216.019531 C 56.152344 216.183594 56.144531 216.347656 56.132812 216.507812 C 56.140625 216.410156 56.144531 216.3125 56.152344 216.214844 C 56.132812 216.539062 56.109375 216.867188 56.089844 217.191406 C 56.09375 217.089844 56.101562 216.988281 56.105469 216.890625 C 56.09375 217.078125 56.085938 217.261719 56.070312 217.449219 C 56.074219 217.351562 56.085938 217.253906 56.089844 217.152344 C 56.070312 217.421875 56.054688 217.691406 56.035156 217.960938 C 56.03125 218.007812 56.027344 218.058594 56.023438 218.105469 L 56.023438 218.136719 L 56.023438 218.132812 L 56.023438 218.160156 C 55.976562 219.101562 55.941406 220.050781 55.933594 221 C 55.925781 221.945312 55.96875 222.882812 56.011719 223.828125 C 56.078125 224.53125 56.117188 225.238281 56.226562 225.933594 C 56.367188 226.933594 56.496094 227.925781 56.683594 228.917969 C 56.886719 229.898438 57.140625 230.859375 57.457031 231.800781 C 58.082031 233.515625 58.886719 235.160156 59.695312 236.796875 C 60.039062 237.441406 60.371094 238.078125 60.707031 238.722656 C 60.867188 239.035156 61.066406 239.328125 61.246094 239.628906 C 61.4375 239.949219 61.628906 240.269531 61.820312 240.585938 C 62.425781 241.460938 63.035156 242.339844 63.675781 243.195312 C 64.371094 244.125 65.078125 245.058594 65.78125 245.988281 C 66.480469 246.90625 67.175781 247.832031 67.890625 248.742188 C 68.554688 249.585938 69.246094 250.394531 69.949219 251.203125 C 70.777344 252.074219 71.613281 252.933594 72.480469 253.769531 C 73.316406 254.582031 74.179688 255.34375 75.046875 256.117188 C 75.683594 256.640625 76.332031 257.152344 76.976562 257.671875 C 77.246094 257.890625 77.550781 258.078125 77.839844 258.28125 C 78.164062 258.515625 78.488281 258.75 78.816406 258.980469 C 79.242188 259.257812 79.671875 259.539062 80.105469 259.824219 C 80.527344 260.09375 80.992188 260.328125 81.441406 260.570312 C 81.96875 260.820312 82.488281 261.089844 83.023438 261.308594 C 83.667969 261.574219 84.316406 261.828125 84.960938 262.09375 C 85.628906 262.328125 86.300781 262.554688 86.972656 262.792969 C 86.953125 262.785156 86.933594 262.78125 86.914062 262.773438 C 87.925781 263.066406 88.9375 263.367188 89.964844 263.601562 C 91.089844 263.867188 92.222656 264.117188 93.355469 264.363281 C 94.503906 264.582031 95.660156 264.777344 96.8125 264.972656 C 98.3125 265.214844 99.8125 265.464844 101.320312 265.589844 C 102.253906 265.640625 103.183594 265.625 104.117188 265.574219 C 105.875 265.4375 107.625 265.269531 109.382812 265.109375 C 111.160156 264.949219 112.933594 264.757812 114.691406 264.425781 C 115.261719 264.289062 115.820312 264.132812 116.378906 263.953125 C 117.738281 263.425781 119.054688 262.78125 120.386719 262.1875 C 121.015625 261.90625 121.652344 261.652344 122.285156 261.382812 C 122.953125 261.09375 123.613281 260.789062 124.277344 260.492188 C 124.902344 260.160156 125.53125 259.832031 126.160156 259.507812 C 126.816406 259.15625 127.449219 258.757812 128.09375 258.382812 C 129.449219 257.589844 130.808594 256.78125 132.121094 255.914062 C 132.113281 255.921875 132.101562 255.925781 132.097656 255.929688 C 132.847656 255.421875 133.558594 254.871094 134.246094 254.28125 L 134.246094 254.285156 C 134.246094 254.28125 134.25 254.28125 134.25 254.277344 L 134.253906 254.277344 C 134.253906 254.273438 134.261719 254.273438 134.261719 254.265625 C 134.320312 254.21875 134.378906 254.171875 134.4375 254.121094 C 134.40625 254.144531 134.378906 254.164062 134.347656 254.191406 C 136.09375 252.640625 137.671875 250.894531 139.226562 249.15625 C 139.214844 249.164062 139.203125 249.179688 139.195312 249.1875 C 140.582031 247.589844 141.929688 245.945312 143.121094 244.199219 C 143.484375 243.625 143.8125 243.035156 144.132812 242.433594 C 144.578125 241.492188 145.023438 240.550781 145.410156 239.578125 C 145.832031 238.503906 146.242188 237.425781 146.636719 236.335938 C 146.835938 235.746094 147.035156 235.148438 147.230469 234.5625 C 147.429688 233.960938 147.59375 233.351562 147.773438 232.75 C 148.117188 231.589844 148.378906 230.402344 148.664062 229.226562 C 149.214844 226.875 149.730469 224.519531 150.230469 222.164062 C 150.390625 221.3125 150.542969 220.460938 150.660156 219.597656 C 150.796875 218.585938 150.921875 217.574219 151.035156 216.558594 C 151.234375 214.757812 151.378906 212.957031 151.527344 211.152344 C 151.558594 210.539062 151.589844 209.929688 151.621094 209.320312 C 151.636719 209.03125 151.628906 208.738281 151.632812 208.449219 C 151.636719 208.121094 151.664062 207.78125 151.648438 207.449219 C 151.609375 206.785156 151.609375 206.117188 151.570312 205.453125 C 151.535156 204.839844 151.492188 204.226562 151.453125 203.617188 C 151.328125 202.125 151.214844 200.625 150.933594 199.144531 C 150.726562 198.242188 150.441406 197.382812 150.152344 196.507812 C 149.800781 195.582031 149.480469 194.65625 149.125 193.734375 C 148.746094 192.757812 148.324219 191.808594 147.898438 190.855469 C 146.957031 189.015625 145.9375 187.21875 144.84375 185.464844 C 144.578125 185.074219 144.308594 184.683594 144.03125 184.300781 C 143.746094 183.90625 143.410156 183.53125 143.09375 183.152344 C 142.46875 182.464844 141.84375 181.789062 141.199219 181.117188 C 140.625 180.515625 140 179.964844 139.378906 179.414062 C 138.429688 178.667969 137.460938 177.953125 136.480469 177.253906 C 135.585938 176.609375 134.707031 175.960938 133.800781 175.335938 C 132.527344 174.507812 131.230469 173.714844 129.875 173.015625 C 129.121094 172.675781 128.363281 172.359375 127.617188 172.019531 C 126.859375 171.675781 126.113281 171.34375 125.335938 171.050781 C 124.992188 170.941406 124.648438 170.835938 124.308594 170.714844 C 123.917969 170.574219 123.554688 170.398438 123.195312 170.203125 C 122.625 169.902344 122.078125 169.550781 121.546875 169.191406 C 121.570312 169.203125 121.589844 169.214844 121.617188 169.234375 C 120.972656 168.804688 120.355469 168.332031 119.746094 167.84375 C 119.742188 167.839844 119.742188 167.824219 119.746094 167.820312 C 120.695312 167.121094 121.8125 166.726562 122.96875 166.558594 C 124.316406 166.359375 125.640625 166.628906 126.917969 167.054688 C 127.625 167.304688 128.3125 167.585938 129 167.894531 C 129.632812 168.1875 130.28125 168.449219 130.910156 168.75 C 131.652344 169.109375 132.378906 169.484375 133.089844 169.910156 C 133.78125 170.328125 134.445312 170.78125 135.109375 171.242188 C 136.277344 172.046875 137.375 172.941406 138.476562 173.828125 C 139.628906 174.757812 140.847656 175.617188 141.953125 176.601562 C 143.015625 177.558594 144.046875 178.542969 145.027344 179.585938 C 145.621094 180.21875 146.203125 180.863281 146.769531 181.523438 C 147.230469 182.050781 147.683594 182.605469 148.082031 183.1875 C 148.980469 184.5 149.847656 185.828125 150.691406 187.175781 C 151.46875 188.417969 152.203125 189.6875 152.835938 191.011719 C 153.464844 192.328125 154.078125 193.664062 154.597656 195.027344 C 154.761719 195.46875 154.941406 195.910156 155.09375 196.359375 C 155.257812 196.855469 155.410156 197.347656 155.539062 197.859375 C 155.65625 198.351562 155.777344 198.867188 155.835938 199.367188 C 155.925781 200.085938 156.035156 200.800781 156.09375 201.519531 C 156.214844 203.101562 156.332031 204.679688 156.378906 206.269531 C 156.425781 207.800781 156.382812 209.324219 156.304688 210.855469 C 156.222656 212.371094 156.078125 213.878906 155.925781 215.386719 C 155.78125 216.789062 155.628906 218.195312 155.441406 219.59375 C 155.230469 221.191406 154.957031 222.769531 154.621094 224.34375 C 154.3125 225.808594 153.964844 227.265625 153.605469 228.71875 C 153.25 230.160156 152.871094 231.59375 152.457031 233.015625 C 152.011719 234.550781 151.480469 236.058594 150.925781 237.554688 C 150.433594 238.886719 149.863281 240.195312 149.304688 241.503906 C 149.015625 242.179688 148.695312 242.84375 148.359375 243.5 C 148.019531 244.167969 147.695312 244.855469 147.277344 245.480469 C 146.421875 246.761719 145.421875 247.925781 144.414062 249.089844 C 143.472656 250.183594 142.539062 251.285156 141.566406 252.347656 C 140.574219 253.449219 139.5625 254.53125 138.503906 255.570312 C 137.582031 256.46875 136.648438 257.335938 135.632812 258.132812 C 134.578125 258.96875 133.421875 259.675781 132.277344 260.394531 C 130.992188 261.191406 129.703125 261.980469 128.410156 262.757812 C 127.128906 263.523438 125.785156 264.175781 124.433594 264.808594 C 123.15625 265.402344 121.851562 265.949219 120.585938 266.574219 C 119.917969 266.90625 119.25 267.226562 118.570312 267.539062 C 117.867188 267.863281 117.125 268.097656 116.382812 268.332031 C 115.609375 268.574219 114.792969 268.707031 113.996094 268.847656 C 113.289062 268.964844 112.582031 269.050781 111.871094 269.144531 C 110.4375 269.324219 108.996094 269.472656 107.558594 269.628906 C 105.75 269.828125 103.925781 270.027344 102.109375 270.027344 C 101.679688 270.027344 101.25 270.011719 100.824219 269.992188 Z M 100.824219 269.992188 " fill-opacity="1" fill-rule="nonzero"/></g><path fill="#a9a0f0" d="M 60.40625 199.660156 C 60.382812 199.707031 60.355469 199.75 60.335938 199.800781 C 60.355469 199.75 60.378906 199.707031 60.40625 199.660156 Z M 60.40625 199.660156 " fill-opacity="1" fill-rule="nonzero"/><path fill="#a9a0f0" d="M 118.988281 170.15625 C 118.378906 170.097656 117.78125 169.992188 117.179688 169.902344 C 117.167969 169.902344 117.15625 169.902344 117.140625 169.894531 C 116.667969 169.824219 116.1875 169.742188 115.714844 169.667969 C 115.433594 169.628906 115.152344 169.59375 114.871094 169.535156 C 114.679688 169.5 114.5 169.445312 114.3125 169.410156 C 113.949219 169.363281 113.609375 169.300781 113.257812 169.207031 C 113.324219 169.222656 113.386719 169.242188 113.453125 169.257812 C 113.097656 169.164062 112.722656 169.113281 112.355469 169.058594 L 112.363281 169.066406 C 111.933594 169.003906 111.5 168.980469 111.070312 168.925781 C 110.476562 168.851562 109.882812 168.777344 109.292969 168.691406 C 107.992188 168.492188 106.714844 168.15625 105.421875 167.894531 C 105.410156 167.890625 105.40625 167.871094 105.417969 167.867188 C 106.332031 167.433594 107.222656 166.972656 108.160156 166.617188 C 109.011719 166.296875 109.886719 166 110.789062 165.882812 C 111.261719 165.824219 111.734375 165.785156 112.207031 165.816406 C 112.511719 165.835938 112.808594 165.890625 113.109375 165.949219 C 113.410156 166.007812 113.703125 166.085938 114 166.167969 C 114.152344 166.210938 114.296875 166.277344 114.449219 166.328125 C 114.589844 166.359375 114.738281 166.386719 114.878906 166.421875 C 115.136719 166.488281 115.378906 166.574219 115.632812 166.648438 C 116.472656 166.875 117.328125 167.066406 118.171875 167.28125 C 119.175781 167.535156 120.1875 167.726562 121.21875 167.886719 C 121.832031 167.980469 122.453125 168.082031 123.070312 168.195312 C 123.628906 168.304688 124.175781 168.464844 124.726562 168.625 C 124.980469 168.695312 125.285156 168.773438 125.503906 168.925781 C 125.75 169.09375 125.992188 169.355469 126.019531 169.667969 C 126.03125 169.765625 125.96875 169.941406 125.84375 169.914062 C 125.691406 169.976562 125.535156 170.042969 125.367188 170.078125 C 125.195312 170.121094 125.019531 170.113281 124.84375 170.097656 L 124.933594 170.097656 C 124.277344 170.089844 123.621094 170.125 122.964844 170.144531 C 122.296875 170.160156 121.621094 170.160156 120.953125 170.183594 C 120.660156 170.191406 120.359375 170.195312 120.058594 170.195312 C 119.703125 170.195312 119.347656 170.1875 118.988281 170.15625 Z M 118.988281 170.15625 " fill-opacity="1" fill-rule="nonzero"/><path fill="#a9a0f0" d="M 90.257812 255.84375 C 89.996094 255.824219 89.726562 255.78125 89.476562 255.714844 C 89.113281 255.621094 88.753906 255.5 88.410156 255.355469 C 87.632812 255.019531 86.867188 254.671875 86.105469 254.3125 C 85.445312 253.996094 84.796875 253.640625 84.179688 253.269531 C 83.859375 253.078125 83.535156 252.90625 83.230469 252.695312 C 82.839844 252.425781 82.445312 252.15625 82.054688 251.890625 C 81.425781 251.453125 80.832031 250.953125 80.253906 250.449219 C 79.613281 249.886719 78.972656 249.320312 78.335938 248.746094 C 77.777344 248.246094 77.226562 247.722656 76.707031 247.179688 C 76.460938 246.925781 76.191406 246.671875 75.964844 246.402344 C 75.652344 246.023438 75.339844 245.644531 75.027344 245.265625 C 73.992188 244.015625 73.125 242.625 72.261719 241.253906 C 71.363281 239.832031 70.558594 238.3125 69.894531 236.769531 C 68.652344 233.890625 67.648438 230.90625 67.179688 227.796875 C 66.9375 226.179688 66.742188 224.566406 66.632812 222.933594 C 66.523438 221.359375 66.609375 219.769531 66.703125 218.195312 C 66.796875 216.675781 67.039062 215.167969 67.328125 213.679688 C 67.636719 212.089844 68.035156 210.539062 68.636719 209.035156 C 68.914062 208.339844 69.222656 207.65625 69.542969 206.980469 C 69.835938 206.339844 70.117188 205.6875 70.460938 205.070312 C 70.4375 205.109375 70.421875 205.144531 70.398438 205.179688 C 71.207031 203.707031 72.160156 202.332031 73.148438 200.976562 C 73.148438 200.984375 73.140625 200.988281 73.136719 200.992188 C 73.261719 200.824219 73.382812 200.652344 73.511719 200.480469 L 73.507812 200.480469 C 73.550781 200.425781 73.601562 200.363281 73.644531 200.296875 C 73.652344 200.289062 73.675781 200.292969 73.667969 200.308594 C 73.160156 201.828125 72.78125 203.386719 72.367188 204.929688 C 72.015625 206.46875 71.714844 208.019531 71.324219 209.542969 C 71.335938 209.503906 71.347656 209.464844 71.359375 209.421875 C 70.789062 211.890625 70.269531 214.367188 69.90625 216.878906 C 69.800781 218.070312 69.757812 219.265625 69.757812 220.464844 C 69.796875 221.171875 69.851562 221.871094 69.925781 222.570312 C 70.003906 223.085938 70.082031 223.59375 70.1875 224.101562 C 70.3125 224.691406 70.457031 225.277344 70.605469 225.863281 C 70.878906 226.808594 71.164062 227.746094 71.488281 228.675781 C 71.8125 229.632812 72.1875 230.566406 72.582031 231.5 C 73.585938 233.535156 74.707031 235.492188 75.863281 237.449219 C 75.835938 237.410156 75.8125 237.367188 75.789062 237.328125 C 76.921875 239.199219 78.027344 241.082031 79.253906 242.894531 C 80.488281 244.71875 81.871094 246.445312 83.222656 248.1875 C 83.667969 248.734375 84.101562 249.285156 84.570312 249.8125 C 85.089844 250.410156 85.625 250.984375 86.171875 251.550781 C 86.847656 252.1875 87.53125 252.804688 88.234375 253.414062 C 88.550781 253.6875 88.894531 253.941406 89.222656 254.207031 C 89.402344 254.351562 89.597656 254.472656 89.769531 254.625 C 89.957031 254.777344 90.136719 254.941406 90.316406 255.09375 C 90.441406 255.1875 90.566406 255.277344 90.6875 255.371094 L 90.683594 255.371094 C 90.714844 255.398438 90.757812 255.421875 90.796875 255.449219 C 90.933594 255.546875 90.90625 255.742188 90.757812 255.808594 C 90.664062 255.847656 90.574219 255.855469 90.480469 255.855469 C 90.40625 255.855469 90.332031 255.851562 90.257812 255.84375 Z M 90.257812 255.84375 " fill-opacity="1" fill-rule="nonzero"/><path fill="#a9a0f0" d="M 78.316406 195.683594 C 77.53125 195.441406 77.304688 194.464844 77.5625 193.761719 C 77.710938 193.339844 77.914062 193.011719 78.226562 192.691406 C 78.574219 192.339844 79.144531 192.15625 79.628906 192.183594 C 80.515625 192.230469 81.214844 192.871094 81.316406 193.742188 C 81.363281 194.132812 81.164062 194.59375 80.847656 194.816406 C 80.585938 195 80.324219 195.011719 80.023438 194.96875 L 80.015625 194.96875 C 79.855469 195.078125 79.695312 195.199219 79.539062 195.324219 C 79.261719 195.539062 78.945312 195.726562 78.597656 195.726562 C 78.507812 195.726562 78.414062 195.710938 78.316406 195.683594 Z M 78.316406 195.683594 " fill-opacity="1" fill-rule="nonzero"/><path fill="#a9a0f0" d="M 144.363281 178.023438 C 144.363281 178.023438 144.363281 178.027344 144.363281 178.027344 L 144.363281 178.023438 L 144.058594 178.410156 C 144.058594 178.414062 144.058594 178.414062 144.058594 178.417969 C 144.058594 178.417969 144.058594 178.421875 144.046875 178.421875 L 144.058594 178.421875 C 144.046875 178.425781 144.046875 178.433594 144.046875 178.4375 C 143.890625 178.640625 143.746094 178.839844 143.609375 179.046875 C 143.542969 179.167969 143.460938 179.285156 143.394531 179.410156 C 143.214844 179.71875 142.71875 179.628906 142.617188 179.300781 C 142.539062 179.046875 142.503906 178.890625 142.550781 178.621094 C 142.59375 178.316406 142.675781 178.007812 142.777344 177.71875 C 142.910156 177.347656 143.035156 176.984375 143.179688 176.617188 C 143.472656 175.914062 143.789062 175.222656 144.105469 174.53125 C 144.757812 173.136719 145.414062 171.75 146.097656 170.371094 C 146.4375 169.707031 146.796875 169.054688 147.179688 168.414062 C 147.542969 167.773438 147.925781 167.125 148.363281 166.535156 C 148.894531 165.824219 149.433594 165.125 150 164.441406 C 150.449219 163.902344 150.933594 163.378906 151.417969 162.867188 C 152.566406 161.660156 153.761719 160.511719 155.011719 159.421875 C 155.542969 158.964844 156.09375 158.523438 156.648438 158.101562 C 157.300781 157.597656 157.953125 157.089844 158.652344 156.628906 C 159.316406 156.179688 159.992188 155.761719 160.679688 155.347656 C 161.414062 154.921875 162.191406 154.5625 162.957031 154.191406 C 164.332031 153.519531 165.742188 152.875 167.183594 152.328125 C 168.613281 151.78125 170.066406 151.285156 171.523438 150.785156 C 173.019531 150.261719 174.53125 149.789062 176.074219 149.390625 C 177.539062 149.015625 179.003906 148.679688 180.492188 148.464844 C 182.070312 148.234375 183.636719 148.0625 185.222656 147.953125 C 186.585938 147.859375 187.972656 147.804688 189.335938 147.894531 C 190.082031 147.945312 190.8125 148.046875 191.546875 148.171875 C 192.085938 148.257812 192.617188 148.375 193.15625 148.460938 C 193.539062 148.507812 193.933594 148.535156 194.316406 148.542969 C 195.726562 148.492188 197.136719 148.367188 198.53125 148.199219 C 200.042969 148.019531 201.550781 147.941406 203.0625 147.859375 C 205.113281 147.757812 207.1875 147.914062 209.167969 148.460938 C 210.242188 148.75 211.242188 149.230469 212.234375 149.707031 C 212.878906 150.011719 213.484375 150.347656 214.105469 150.699219 C 215.210938 151.34375 216.359375 151.984375 217.382812 152.769531 C 218.453125 153.597656 219.546875 154.425781 220.539062 155.339844 C 221.53125 156.246094 222.457031 157.207031 223.355469 158.214844 C 224.191406 159.152344 225.070312 160.070312 225.835938 161.066406 C 225.835938 161.074219 225.847656 161.085938 225.847656 161.09375 C 225.890625 161.15625 225.949219 161.222656 226.003906 161.285156 L 225.992188 161.28125 C 226.242188 161.609375 226.476562 161.933594 226.726562 162.261719 C 226.679688 162.203125 226.636719 162.144531 226.589844 162.085938 C 227.0625 162.738281 227.480469 163.441406 227.886719 164.136719 C 228.269531 164.792969 228.640625 165.460938 228.980469 166.140625 C 229.722656 167.621094 230.34375 169.148438 230.871094 170.71875 C 231.335938 172.125 231.773438 173.542969 232.179688 174.964844 C 232.257812 175.277344 232.347656 175.589844 232.429688 175.90625 C 232.597656 176.1875 232.753906 176.472656 232.914062 176.757812 C 233.308594 177.433594 233.679688 178.109375 234.003906 178.816406 C 234.660156 180.253906 235.144531 181.757812 235.539062 183.296875 C 235.773438 184.230469 235.953125 185.171875 236.15625 186.109375 C 236.371094 187.0625 236.519531 188.027344 236.632812 189 C 236.621094 188.921875 236.621094 188.839844 236.609375 188.757812 C 236.632812 188.988281 236.664062 189.21875 236.6875 189.453125 C 236.675781 189.375 236.664062 189.292969 236.664062 189.210938 C 236.96875 191.820312 237.128906 194.476562 237.015625 197.109375 C 236.957031 198.429688 236.890625 199.746094 236.777344 201.0625 C 236.710938 201.800781 236.574219 202.535156 236.40625 203.257812 C 236.238281 203.941406 236.011719 204.605469 235.808594 205.277344 C 235.3125 207.074219 235.066406 208.917969 234.691406 210.75 C 234.308594 212.707031 233.734375 214.667969 232.925781 216.5 C 232.925781 216.488281 232.933594 216.484375 232.933594 216.480469 C 232.628906 217.167969 232.316406 217.847656 231.988281 218.523438 C 231.683594 219.136719 231.335938 219.726562 231.007812 220.324219 C 230.378906 221.464844 229.78125 222.636719 229.105469 223.753906 L 229.105469 223.75 L 228.507812 224.734375 C 227.730469 226.019531 226.871094 227.273438 225.960938 228.464844 C 224.933594 229.785156 223.828125 231.027344 222.714844 232.269531 C 220.605469 234.609375 218.375 236.855469 215.839844 238.71875 C 214.578125 239.632812 213.316406 240.519531 212 241.332031 C 210.578125 242.203125 209.136719 243.011719 207.648438 243.761719 C 206.273438 244.464844 204.84375 245.085938 203.398438 245.652344 C 201.878906 246.253906 200.359375 246.796875 198.746094 247.171875 C 197.292969 247.511719 195.769531 247.671875 194.285156 247.878906 C 192.707031 248.101562 191.128906 248.363281 189.550781 248.582031 C 188.097656 248.777344 186.632812 248.878906 185.167969 248.878906 C 183.523438 248.878906 181.878906 248.753906 180.265625 248.507812 C 179.105469 248.332031 177.933594 248.15625 176.785156 247.910156 C 175.667969 247.671875 174.550781 247.414062 173.449219 247.128906 C 172.308594 246.835938 171.171875 246.519531 170.066406 246.125 C 168.964844 245.730469 167.882812 245.292969 166.8125 244.820312 C 164.726562 243.871094 162.957031 242.414062 161.097656 241.121094 C 160.152344 240.464844 159.125 239.875 158.28125 239.082031 C 157.480469 238.339844 156.714844 237.5625 155.960938 236.777344 C 155.292969 236.113281 154.605469 235.464844 153.929688 234.8125 C 153.671875 234.574219 153.425781 234.339844 153.1875 234.082031 C 153.019531 233.882812 152.847656 233.664062 152.65625 233.472656 C 152.523438 233.335938 152.386719 233.199219 152.261719 233.058594 C 152.128906 232.910156 152.015625 232.742188 151.902344 232.574219 C 151.867188 232.542969 151.847656 232.511719 151.824219 232.480469 C 151.53125 232.171875 151.25 231.855469 150.957031 231.542969 C 150.96875 231.554688 150.980469 231.5625 150.980469 231.570312 C 150.789062 231.378906 150.574219 231.210938 150.414062 230.992188 C 150.132812 230.632812 149.988281 230.242188 149.875 229.804688 C 149.761719 229.378906 149.773438 228.839844 149.964844 228.441406 C 150.234375 227.886719 150.980469 227.859375 151.496094 227.96875 C 151.867188 228.046875 152.183594 228.234375 152.476562 228.46875 C 152.75 228.683594 152.917969 228.972656 153.109375 229.246094 C 153.253906 229.441406 153.402344 229.632812 153.535156 229.824219 C 153.605469 229.902344 153.671875 229.976562 153.726562 230.046875 C 153.929688 230.242188 154.132812 230.417969 154.3125 230.625 C 154.425781 230.75 154.539062 230.890625 154.640625 231.023438 C 154.753906 231.152344 154.878906 231.269531 154.992188 231.398438 C 155.183594 231.605469 155.351562 231.835938 155.53125 232.0625 C 155.566406 232.121094 155.621094 232.171875 155.667969 232.230469 C 156.171875 232.726562 156.726562 233.175781 157.277344 233.625 C 157.222656 233.585938 157.164062 233.542969 157.109375 233.503906 C 157.648438 233.921875 158.179688 234.355469 158.710938 234.792969 C 159.667969 235.523438 160.601562 236.285156 161.617188 236.929688 C 162.292969 237.324219 162.96875 237.699219 163.632812 238.105469 C 164.285156 238.507812 164.929688 238.914062 165.582031 239.3125 C 165.582031 239.316406 165.59375 239.316406 165.59375 239.320312 C 165.605469 239.320312 165.605469 239.324219 165.605469 239.324219 L 165.605469 239.320312 C 165.605469 239.324219 165.605469 239.324219 165.605469 239.332031 C 165.628906 239.339844 165.640625 239.347656 165.652344 239.363281 C 165.660156 239.367188 165.671875 239.371094 165.671875 239.375 C 165.707031 239.398438 165.753906 239.417969 165.785156 239.441406 C 165.753906 239.421875 165.730469 239.40625 165.707031 239.390625 C 166.597656 239.925781 167.5 240.429688 168.445312 240.875 C 169.875 241.460938 171.328125 241.992188 172.816406 242.472656 C 175.128906 243.113281 177.460938 243.621094 179.816406 244.023438 C 181.335938 244.230469 182.859375 244.382812 184.390625 244.433594 C 185.5625 244.414062 186.722656 244.347656 187.894531 244.242188 C 189.484375 244.035156 191.0625 243.742188 192.640625 243.445312 C 194.207031 243.152344 195.769531 242.8125 197.328125 242.425781 C 199.277344 241.878906 201.179688 241.226562 203.074219 240.523438 C 204.289062 240.019531 205.496094 239.492188 206.691406 238.933594 C 207.851562 238.378906 208.96875 237.746094 210.09375 237.117188 C 211.570312 236.253906 213 235.316406 214.410156 234.34375 L 214.757812 234.078125 L 215.128906 233.800781 C 215.152344 233.785156 215.175781 233.773438 215.1875 233.757812 C 215.222656 233.738281 215.253906 233.71875 215.277344 233.699219 C 215.265625 233.699219 215.265625 233.703125 215.265625 233.707031 L 215.253906 233.710938 C 215.253906 233.707031 215.265625 233.707031 215.265625 233.707031 C 215.265625 233.703125 215.265625 233.699219 215.277344 233.699219 L 215.277344 233.695312 C 215.277344 233.695312 215.277344 233.691406 215.289062 233.6875 C 215.289062 233.683594 215.300781 233.675781 215.3125 233.671875 C 215.929688 233.171875 216.5625 232.679688 217.160156 232.148438 C 217.757812 231.621094 218.332031 231.09375 218.90625 230.554688 C 219.660156 229.808594 220.414062 229.066406 221.148438 228.308594 C 221.871094 227.554688 222.546875 226.777344 223.210938 225.96875 C 224.101562 224.757812 224.957031 223.519531 225.734375 222.234375 C 225.699219 222.300781 225.65625 222.371094 225.609375 222.4375 C 225.699219 222.296875 225.78125 222.160156 225.871094 222.023438 C 225.824219 222.089844 225.78125 222.15625 225.746094 222.222656 C 225.789062 222.140625 225.835938 222.066406 225.882812 221.992188 C 226.546875 220.839844 227.164062 219.667969 227.808594 218.507812 C 228.460938 217.328125 229.082031 216.144531 229.644531 214.925781 C 230.207031 213.59375 230.714844 212.253906 231.144531 210.882812 C 231.558594 209.40625 231.933594 207.9375 232.179688 206.425781 C 232.28125 205.730469 232.371094 205.035156 232.507812 204.347656 C 232.664062 203.578125 232.84375 202.808594 233.003906 202.039062 C 233.023438 201.863281 233.058594 201.6875 233.082031 201.507812 L 233.082031 201.523438 L 233.117188 201.285156 C 233.117188 201.300781 233.117188 201.3125 233.117188 201.324219 C 233.226562 200.496094 233.261719 199.652344 233.316406 198.824219 C 233.386719 197.890625 233.429688 196.953125 233.464844 196.023438 C 233.464844 193.722656 233.261719 191.425781 233.023438 189.148438 L 233.023438 189.15625 C 233.003906 188.976562 232.980469 188.785156 232.957031 188.605469 C 232.824219 187.503906 232.585938 186.425781 232.394531 185.332031 C 232.191406 184.207031 231.953125 183.089844 231.671875 181.980469 C 231.671875 181.996094 231.683594 182.015625 231.695312 182.03125 C 231.652344 181.894531 231.617188 181.757812 231.582031 181.621094 C 231.605469 181.699219 231.617188 181.769531 231.640625 181.839844 C 231.414062 180.949219 231.15625 180.066406 230.871094 179.191406 C 230.152344 178.128906 229.429688 177.058594 228.710938 175.984375 C 227.851562 174.695312 227.0625 173.359375 226.34375 171.996094 C 225.632812 170.683594 225.011719 169.332031 224.335938 168.003906 C 223.988281 167.3125 223.636719 166.632812 223.277344 165.960938 C 223.0625 165.617188 222.851562 165.273438 222.648438 164.933594 C 222.464844 164.648438 222.265625 164.382812 222.0625 164.113281 C 220.789062 162.527344 219.503906 160.960938 218.117188 159.476562 C 216.988281 158.421875 215.828125 157.410156 214.625 156.441406 C 213.585938 155.6875 212.503906 154.996094 211.410156 154.324219 C 210.996094 154.085938 210.589844 153.847656 210.160156 153.632812 C 209.632812 153.363281 209.113281 153.117188 208.574219 152.875 C 208.234375 152.75 207.894531 152.636719 207.558594 152.535156 C 207.164062 152.445312 206.78125 152.363281 206.386719 152.304688 C 205.632812 152.226562 204.886719 152.179688 204.132812 152.167969 C 202.90625 152.191406 201.6875 152.265625 200.46875 152.351562 C 199.207031 152.433594 197.957031 152.628906 196.707031 152.738281 C 195.523438 152.839844 194.296875 152.953125 193.125 152.8125 C 191.941406 152.671875 190.78125 152.398438 189.597656 152.222656 C 188.828125 152.144531 188.074219 152.117188 187.308594 152.101562 C 185.652344 152.113281 184.007812 152.226562 182.375 152.417969 L 182.375 152.414062 C 180.796875 152.628906 179.242188 152.90625 177.683594 153.289062 C 176.117188 153.703125 174.5625 154.160156 173.042969 154.703125 C 171.566406 155.230469 170.078125 155.753906 168.613281 156.332031 C 166.664062 157.167969 164.75 158.070312 162.867188 159.042969 C 162.203125 159.433594 161.546875 159.835938 160.90625 160.257812 C 160.21875 160.714844 159.542969 161.226562 158.878906 161.722656 C 158.957031 161.667969 159.023438 161.613281 159.105469 161.558594 C 158.222656 162.242188 157.367188 162.933594 156.535156 163.667969 C 155.710938 164.40625 154.902344 165.164062 154.113281 165.933594 C 153.480469 166.566406 152.816406 167.1875 152.230469 167.855469 C 151.609375 168.5625 151 169.277344 150.414062 170.011719 C 149.414062 171.34375 148.421875 172.683594 147.441406 174.035156 C 146.957031 174.710938 146.449219 175.375 145.941406 176.042969 C 145.46875 176.671875 144.949219 177.273438 144.464844 177.894531 C 144.488281 177.863281 144.511719 177.832031 144.535156 177.804688 C 144.488281 177.863281 144.441406 177.929688 144.398438 177.988281 C 144.386719 178 144.375 178.007812 144.363281 178.019531 Z M 144.363281 178.023438 " fill-opacity="1" fill-rule="nonzero"/><path fill="#a9a0f0" d="M 158.34375 181.921875 C 158.28125 181.269531 158.222656 180.621094 158.175781 179.964844 C 158.136719 179.34375 158.152344 178.714844 158.160156 178.09375 C 158.175781 176.859375 158.335938 175.621094 158.71875 174.445312 C 159.492188 172.089844 161.046875 170.039062 162.816406 168.324219 C 163.390625 167.765625 163.976562 167.230469 164.609375 166.726562 C 165.285156 166.1875 165.996094 165.691406 166.679688 165.183594 C 167.347656 164.695312 168.011719 164.210938 168.710938 163.78125 C 169.476562 163.3125 170.253906 162.839844 171.03125 162.386719 C 170.976562 162.417969 170.917969 162.453125 170.863281 162.484375 C 171.359375 162.199219 171.855469 161.894531 172.382812 161.660156 C 172.835938 161.449219 173.308594 161.261719 173.78125 161.078125 C 174.625 160.769531 175.492188 160.507812 176.371094 160.316406 C 177.21875 160.132812 178.074219 159.941406 178.929688 159.816406 C 179.390625 159.753906 179.84375 159.707031 180.292969 159.695312 C 180.496094 159.6875 180.6875 159.683594 180.890625 159.679688 C 181.015625 159.675781 181.128906 159.675781 181.25 159.671875 C 181.386719 159.671875 181.5 159.648438 181.636719 159.671875 C 181.792969 159.699219 181.90625 159.875 181.871094 160.027344 C 181.816406 160.253906 181.601562 160.300781 181.398438 160.335938 C 181.375 160.339844 181.34375 160.34375 181.308594 160.347656 C 180.878906 160.566406 180.453125 160.792969 180.011719 160.992188 C 179.484375 161.234375 178.953125 161.476562 178.421875 161.726562 C 177.433594 162.207031 176.429688 162.664062 175.472656 163.207031 C 174.59375 163.734375 173.734375 164.285156 172.878906 164.820312 C 171.976562 165.375 171.066406 165.90625 170.152344 166.429688 C 169.082031 167.082031 168.035156 167.769531 167.019531 168.492188 C 166.386719 168.984375 165.792969 169.519531 165.226562 170.078125 C 164.460938 170.871094 163.730469 171.707031 163.042969 172.566406 C 162.570312 173.167969 162.140625 173.78125 161.746094 174.425781 C 161.304688 175.195312 160.894531 175.980469 160.46875 176.761719 C 160.050781 177.53125 159.671875 178.320312 159.320312 179.132812 C 159.316406 179.144531 159.308594 179.15625 159.304688 179.175781 C 159.304688 179.179688 159.300781 179.179688 159.300781 179.183594 L 159.304688 179.183594 C 158.964844 180.015625 158.675781 180.863281 158.425781 181.734375 L 158.429688 181.730469 C 158.410156 181.792969 158.390625 181.859375 158.375 181.921875 C 158.375 181.929688 158.367188 181.933594 158.363281 181.933594 C 158.351562 181.933594 158.347656 181.929688 158.34375 181.921875 Z M 158.34375 181.921875 " fill-opacity="1" fill-rule="nonzero"/><g clip-path="url(#32f293b40a)"><path fill="#a9a0f0" d="M 190.136719 149.378906 C 189.957031 149.355469 189.777344 149.335938 189.597656 149.320312 C 189.4375 149.328125 189.269531 149.335938 189.101562 149.335938 C 188.875 149.34375 188.648438 149.335938 188.425781 149.261719 C 188.175781 149.179688 187.972656 149.03125 187.792969 148.84375 C 187.34375 148.386719 187.476562 147.652344 187.949219 147.273438 C 188.0625 147.183594 188.164062 147.117188 188.289062 147.058594 C 188.300781 146.980469 188.3125 146.898438 188.324219 146.820312 C 188.367188 146.480469 188.425781 146.144531 188.480469 145.804688 C 188.671875 144.625 189.179688 143.535156 189.652344 142.441406 C 190.101562 141.402344 190.632812 140.390625 191.195312 139.402344 C 191.792969 138.339844 192.46875 137.300781 193.214844 136.335938 C 193.179688 136.375 193.144531 136.417969 193.113281 136.464844 C 193.921875 135.40625 194.746094 134.367188 195.636719 133.382812 C 196.492188 132.421875 197.359375 131.484375 198.238281 130.546875 C 199.117188 129.589844 200.007812 128.648438 200.921875 127.726562 C 201.753906 126.886719 202.621094 126.074219 203.492188 125.269531 C 204.472656 124.363281 205.472656 123.480469 206.5 122.628906 C 207.480469 121.8125 208.515625 121.066406 209.542969 120.316406 C 210.027344 119.964844 210.542969 119.65625 211.027344 119.328125 C 211.546875 118.984375 212.097656 118.675781 212.628906 118.351562 C 213.734375 117.671875 214.882812 117.054688 216.019531 116.429688 C 216.765625 116.019531 217.53125 115.632812 218.320312 115.320312 C 219.085938 115.015625 219.863281 114.746094 220.652344 114.480469 C 222.183594 113.96875 223.730469 113.46875 225.285156 113.042969 C 225.375 113.015625 225.476562 112.988281 225.578125 112.960938 C 225.507812 112.976562 225.453125 112.992188 225.386719 113.011719 C 226.511719 112.703125 227.648438 112.417969 228.777344 112.140625 C 230.015625 111.839844 231.265625 111.636719 232.53125 111.507812 C 233.710938 111.390625 234.90625 111.296875 236.101562 111.246094 C 237.308594 111.191406 238.511719 111.226562 239.71875 111.324219 C 240.890625 111.417969 242.050781 111.539062 243.210938 111.660156 C 244.328125 111.777344 245.441406 111.925781 246.546875 112.128906 C 246.886719 112.195312 247.222656 112.285156 247.550781 112.4375 C 247.808594 112.5625 248.070312 112.769531 248.226562 113.011719 C 248.484375 113.40625 248.53125 113.863281 248.382812 114.3125 C 248.238281 114.765625 247.855469 115.132812 247.605469 115.527344 C 247.292969 116.003906 247 116.488281 246.695312 116.964844 C 246.355469 117.488281 246.027344 118.011719 245.714844 118.546875 C 245.746094 118.496094 245.78125 118.441406 245.804688 118.390625 C 245.21875 119.386719 244.6875 120.421875 244.160156 121.449219 C 243.640625 122.460938 243.109375 123.460938 242.410156 124.363281 C 242.421875 124.355469 242.421875 124.34375 242.433594 124.339844 C 240.890625 126.316406 239.222656 128.199219 237.511719 130.039062 C 236.621094 130.980469 235.707031 131.898438 234.792969 132.800781 C 233.925781 133.652344 232.957031 134.398438 232 135.136719 C 231.042969 135.878906 230.085938 136.628906 229.09375 137.316406 C 228.011719 138.0625 226.90625 138.765625 225.78125 139.4375 C 224.777344 140.046875 223.730469 140.566406 222.679688 141.085938 C 221.734375 141.550781 220.777344 142.011719 219.808594 142.421875 C 219.121094 142.714844 218.421875 142.992188 217.722656 143.242188 C 217.070312 143.472656 216.414062 143.671875 215.761719 143.890625 C 215.0625 144.121094 214.363281 144.382812 213.65625 144.59375 C 212.988281 144.796875 212.292969 144.886719 211.613281 145.066406 C 211.21875 145.183594 210.847656 145.328125 210.464844 145.484375 C 210.058594 145.648438 209.652344 145.820312 209.25 145.992188 C 209.292969 145.976562 209.328125 145.957031 209.371094 145.941406 C 208.1875 146.4375 206.972656 146.839844 205.777344 147.28125 C 205.214844 147.488281 204.640625 147.65625 204.054688 147.777344 C 203.480469 147.890625 202.90625 147.996094 202.339844 148.140625 L 202.339844 148.136719 C 202.328125 148.136719 202.328125 148.140625 202.328125 148.144531 C 202.296875 148.152344 202.261719 148.160156 202.226562 148.167969 L 202.238281 148.167969 C 201.257812 148.445312 200.277344 148.769531 199.277344 148.960938 C 198.824219 149.039062 198.375 149.105469 197.933594 149.179688 C 197.460938 149.257812 197 149.320312 196.515625 149.34375 C 195.367188 149.394531 194.226562 149.488281 193.078125 149.519531 C 192.953125 149.523438 192.832031 149.523438 192.695312 149.523438 C 191.851562 149.523438 190.980469 149.460938 190.136719 149.378906 Z M 237.65625 114.109375 C 236.722656 114.121094 235.796875 114.164062 234.863281 114.246094 C 233.847656 114.339844 232.8125 114.417969 231.785156 114.542969 C 230.320312 114.757812 228.914062 115.148438 227.480469 115.535156 C 227.492188 115.53125 227.503906 115.527344 227.527344 115.523438 C 226.488281 115.804688 225.496094 116.132812 224.484375 116.492188 C 223.457031 116.867188 222.457031 117.296875 221.441406 117.71875 C 220.292969 118.203125 219.152344 118.707031 218.027344 119.226562 C 216.789062 119.796875 215.582031 120.453125 214.375 121.117188 C 213.644531 121.554688 212.921875 121.988281 212.210938 122.453125 C 211.457031 122.945312 210.746094 123.460938 210.015625 123.984375 C 210.027344 123.976562 210.039062 123.972656 210.039062 123.960938 C 209.496094 124.394531 208.945312 124.824219 208.402344 125.28125 C 207.804688 125.792969 207.21875 126.324219 206.644531 126.867188 C 204.910156 128.609375 203.230469 130.402344 201.585938 132.242188 C 199.996094 134.027344 198.296875 135.742188 196.773438 137.597656 C 196.1875 138.320312 195.589844 139.050781 195.015625 139.785156 C 195.0625 139.730469 195.105469 139.671875 195.152344 139.609375 C 194.296875 140.734375 193.460938 141.871094 192.59375 142.980469 C 192.59375 142.976562 192.59375 142.972656 192.605469 142.96875 C 192.402344 143.222656 192.199219 143.480469 191.996094 143.734375 L 192.007812 143.734375 C 191.972656 143.769531 191.953125 143.808594 191.929688 143.84375 C 191.917969 143.847656 191.917969 143.851562 191.90625 143.859375 C 191.792969 144.007812 191.679688 144.148438 191.566406 144.292969 C 191.578125 144.285156 191.578125 144.28125 191.589844 144.269531 C 191.433594 144.464844 191.285156 144.648438 191.140625 144.839844 C 191.140625 144.835938 191.140625 144.835938 191.152344 144.828125 C 190.859375 145.207031 190.578125 145.597656 190.261719 145.957031 C 190.023438 146.242188 189.765625 146.519531 189.507812 146.800781 C 189.71875 146.777344 189.921875 146.773438 190.136719 146.761719 C 190.960938 146.742188 191.78125 146.75 192.605469 146.753906 C 193.496094 146.75 194.386719 146.746094 195.277344 146.746094 L 195.09375 146.746094 L 197.203125 146.742188 C 197.722656 146.75 198.226562 146.785156 198.734375 146.800781 C 198.847656 146.796875 198.972656 146.789062 199.085938 146.777344 C 199.445312 146.722656 199.78125 146.640625 200.132812 146.550781 C 200.527344 146.441406 200.933594 146.328125 201.328125 146.21875 C 201.328125 146.21875 201.316406 146.222656 201.304688 146.222656 C 201.832031 146.082031 202.351562 145.949219 202.882812 145.847656 C 203.34375 145.757812 203.816406 145.683594 204.277344 145.566406 C 204.234375 145.578125 204.1875 145.59375 204.144531 145.605469 C 204.863281 145.402344 205.5625 145.132812 206.273438 144.898438 C 206.882812 144.6875 207.511719 144.527344 208.109375 144.289062 L 208.097656 144.289062 C 208.109375 144.289062 208.109375 144.289062 208.109375 144.285156 C 208.144531 144.269531 208.167969 144.257812 208.199219 144.25 C 208.222656 144.234375 208.246094 144.226562 208.269531 144.21875 C 208.527344 144.105469 208.773438 143.988281 209.035156 143.867188 L 209.53125 143.628906 C 209.789062 143.507812 210.039062 143.390625 210.296875 143.277344 C 211.027344 142.953125 211.785156 142.703125 212.527344 142.394531 C 212.484375 142.417969 212.4375 142.433594 212.390625 142.457031 C 212.472656 142.421875 212.5625 142.382812 212.652344 142.347656 C 212.59375 142.371094 212.550781 142.386719 212.503906 142.410156 C 214.445312 141.589844 216.484375 141.015625 218.433594 140.214844 C 218.386719 140.234375 218.332031 140.257812 218.285156 140.277344 C 219.71875 139.667969 221.125 138.960938 222.476562 138.183594 C 222.433594 138.214844 222.375 138.242188 222.332031 138.273438 C 223.660156 137.496094 224.945312 136.652344 226.242188 135.816406 C 227.480469 135.019531 228.652344 134.105469 229.835938 133.214844 C 229.78125 133.253906 229.734375 133.289062 229.691406 133.328125 C 230.421875 132.761719 231.144531 132.1875 231.863281 131.597656 C 232.519531 131.066406 233.117188 130.460938 233.710938 129.875 C 234.863281 128.695312 235.976562 127.46875 237.058594 126.230469 C 238.152344 124.988281 239.222656 123.722656 240.25 122.421875 C 240.203125 122.46875 240.167969 122.519531 240.136719 122.566406 C 240.472656 122.105469 240.800781 121.636719 241.082031 121.144531 C 241.824219 119.867188 242.46875 118.535156 243.210938 117.257812 C 243.664062 116.492188 244.160156 115.753906 244.65625 115.015625 C 244.746094 114.867188 244.847656 114.714844 244.949219 114.5625 C 244.699219 114.527344 244.460938 114.492188 244.226562 114.457031 C 244.261719 114.460938 244.292969 114.46875 244.316406 114.46875 C 243.222656 114.332031 242.109375 114.265625 241.003906 114.21875 C 239.957031 114.179688 238.894531 114.128906 237.835938 114.105469 Z M 223.988281 129.78125 C 223.964844 129.792969 223.953125 129.800781 223.929688 129.808594 C 225.519531 128.863281 227.085938 127.875 228.5625 126.765625 C 229.40625 126.074219 230.230469 125.359375 231.03125 124.605469 C 231.886719 123.738281 232.699219 122.832031 233.488281 121.890625 C 233.871094 121.421875 234.253906 120.953125 234.625 120.476562 C 234.984375 120.019531 235.460938 119.683594 235.933594 119.355469 C 235.988281 119.308594 236.078125 119.371094 236.054688 119.441406 C 235.953125 119.976562 235.832031 120.523438 235.570312 121.003906 C 235.289062 121.535156 235.007812 122.070312 234.703125 122.589844 C 234.074219 123.679688 233.417969 124.75 232.640625 125.738281 C 231.851562 126.726562 230.953125 127.628906 230.050781 128.511719 C 229.621094 128.921875 229.136719 129.292969 228.664062 129.648438 C 228.167969 130.019531 227.671875 130.386719 227.175781 130.746094 C 226.558594 131.179688 225.9375 131.609375 225.304688 132.011719 C 224.640625 132.429688 224 132.859375 223.324219 133.25 C 223.3125 133.257812 223.300781 133.269531 223.289062 133.273438 C 223.265625 133.28125 223.242188 133.304688 223.210938 133.316406 C 222.917969 133.488281 222.625 133.664062 222.332031 133.832031 C 222.386719 133.800781 222.445312 133.769531 222.488281 133.738281 C 221.429688 134.363281 220.335938 134.925781 219.234375 135.464844 C 218.160156 135.992188 217.058594 136.414062 215.917969 136.789062 C 214.746094 137.171875 213.585938 137.558594 212.402344 137.902344 C 211.230469 138.242188 210.015625 138.4375 208.808594 138.613281 C 208.234375 138.695312 207.660156 138.777344 207.085938 138.867188 L 207.074219 138.867188 C 207.0625 138.867188 207.0625 138.851562 207.074219 138.839844 C 208.289062 138.046875 209.53125 137.269531 210.804688 136.539062 C 210.792969 136.546875 210.792969 136.550781 210.78125 136.558594 C 211.039062 136.402344 211.300781 136.246094 211.558594 136.09375 C 211.546875 136.101562 211.535156 136.105469 211.523438 136.117188 C 211.546875 136.105469 211.558594 136.097656 211.570312 136.089844 C 211.582031 136.082031 211.605469 136.070312 211.613281 136.0625 C 211.605469 136.070312 211.59375 136.078125 211.582031 136.085938 C 212.527344 135.5 213.496094 134.921875 214.5 134.421875 C 215.558594 133.894531 216.628906 133.390625 217.699219 132.871094 C 218.78125 132.351562 219.886719 131.898438 220.980469 131.402344 C 221.972656 130.945312 222.929688 130.394531 223.875 129.847656 C 223.875 129.847656 223.875 129.84375 223.886719 129.84375 L 223.886719 129.839844 C 223.921875 129.824219 223.953125 129.804688 223.988281 129.78125 C 223.988281 129.78125 224 129.78125 224 129.777344 Z M 223.988281 129.78125 " fill-opacity="1" fill-rule="nonzero"/></g></svg>