<svg xmlns="http://www.w3.org/2000/svg" xmlns:xlink="http://www.w3.org/1999/xlink" width="400" zoomAndPan="magnify" viewBox="0 0 300 299.999988" height="400" preserveAspectRatio="xMidYMid meet" version="1.0"><path fill="currentColor" d="M 242.402344 90.871094 C 241.609375 90.574219 241.011719 90.390625 240.671875 90.296875 C 236.890625 88.1875 231.640625 89.382812 228.59375 91.40625 C 228.277344 89.742188 227.621094 88.226562 226.621094 86.859375 C 225.617188 85.488281 224.371094 84.40625 222.878906 83.605469 C 221.984375 83.144531 221.046875 82.804688 220.066406 82.585938 C 219.085938 82.367188 218.089844 82.273438 217.085938 82.308594 C 216.082031 82.347656 215.097656 82.507812 214.136719 82.796875 C 213.171875 83.085938 212.261719 83.492188 211.402344 84.011719 C 206.757812 86.785156 197.464844 93.742188 187.433594 109.1875 C 181.300781 118.535156 174.015625 126.871094 165.578125 134.195312 C 152.894531 145.308594 137.089844 163.257812 133.832031 185.691406 C 129.617188 214.679688 141.40625 242.335938 146.667969 252.882812 C 147.105469 253.757812 147.660156 254.550781 148.335938 255.253906 C 149.011719 255.960938 149.777344 256.550781 150.628906 257.027344 C 151.484375 257.5 152.390625 257.839844 153.347656 258.039062 C 154.304688 258.238281 155.269531 258.292969 156.242188 258.199219 C 212.527344 270.003906 260.96875 220.738281 253.828125 164.769531 C 253.167969 158.996094 253.160156 153.21875 253.800781 147.445312 C 254.441406 141.667969 255.71875 136.035156 257.628906 130.542969 C 264.726562 115.429688 258.304688 96.699219 242.402344 90.871094 Z M 151.023438 250.710938 C 133.121094 213.78125 128.53125 171.191406 168.785156 137.855469 C 177.5625 130.234375 185.136719 121.558594 191.511719 111.835938 C 201.1875 97.316406 211.472656 87.617188 217.578125 87.160156 C 223.746094 87.214844 224.410156 93.980469 224.027344 95.808594 C 223.960938 96.328125 224.054688 96.820312 224.304688 97.28125 C 224.554688 97.742188 224.917969 98.085938 225.390625 98.3125 C 225.859375 98.539062 226.355469 98.609375 226.871094 98.519531 C 227.386719 98.429688 227.828125 98.199219 228.195312 97.824219 C 228.238281 97.78125 232.402344 93.515625 236.660156 94.078125 C 239.082031 94.402344 241.261719 96.320312 243.140625 99.78125 C 247.777344 108.3125 244.765625 119.6875 241.421875 127.726562 C 239.195312 133.015625 237.5 138.472656 236.339844 144.09375 C 235.179688 149.714844 234.570312 155.398438 234.519531 161.136719 C 234.070312 236.347656 174.328125 250.71875 156.03125 253.332031 C 155.53125 253.40625 155.027344 253.398438 154.527344 253.3125 C 154.027344 253.226562 153.554688 253.066406 153.101562 252.832031 C 152.652344 252.597656 152.25 252.296875 151.894531 251.9375 C 151.539062 251.574219 151.25 251.167969 151.023438 250.710938 Z M 254.464844 124.828125 C 249.5625 137.515625 247.347656 151.429688 248.992188 165.3125 C 249.886719 173.359375 249.691406 181.378906 248.40625 189.371094 C 242.664062 227.398438 209.015625 255.980469 170.925781 255.109375 C 196.8125 247.78125 239.003906 225.890625 239.386719 161.167969 C 239.4375 155.742188 240.011719 150.375 241.113281 145.0625 C 242.210938 139.75 243.816406 134.59375 245.921875 129.59375 C 250.613281 118.3125 251.605469 108.417969 248.863281 100.703125 C 249.632812 101.476562 250.339844 102.296875 250.992188 103.167969 C 251.648438 104.039062 252.234375 104.949219 252.761719 105.902344 C 253.289062 106.855469 253.746094 107.839844 254.136719 108.855469 C 254.527344 109.871094 254.847656 110.910156 255.09375 111.96875 C 255.339844 113.03125 255.511719 114.101562 255.609375 115.1875 C 255.707031 116.269531 255.726562 117.355469 255.675781 118.441406 C 255.621094 119.53125 255.496094 120.609375 255.292969 121.675781 C 255.089844 122.746094 254.8125 123.796875 254.464844 124.828125 Z M 254.464844 124.828125 " fill-opacity="1" fill-rule="nonzero"/><path fill="currentColor" d="M 39.320312 190.582031 C 40.601562 208.113281 50.445312 234.003906 89.183594 256.847656 C 90.253906 257.46875 91.382812 257.941406 92.578125 258.261719 C 93.773438 258.578125 94.984375 258.738281 96.222656 258.734375 C 97.457031 258.726562 98.671875 258.5625 99.863281 258.234375 C 101.054688 257.902344 102.179688 257.425781 103.242188 256.796875 C 114.261719 250.277344 123.609375 243.132812 131.03125 235.566406 C 131.257812 235.335938 131.429688 235.070312 131.550781 234.769531 C 131.671875 234.46875 131.730469 234.160156 131.726562 233.835938 C 131.722656 233.515625 131.660156 233.203125 131.53125 232.90625 C 131.40625 232.609375 131.226562 232.351562 130.996094 232.125 C 130.765625 231.898438 130.5 231.726562 130.203125 231.605469 C 129.902344 231.484375 129.59375 231.425781 129.269531 231.429688 C 128.945312 231.433594 128.636719 231.496094 128.339844 231.625 C 128.042969 231.75 127.78125 231.929688 127.554688 232.160156 C 121.726562 238.007812 115.363281 243.210938 108.46875 247.757812 C 127.617188 214.523438 132.230469 185.015625 122.5625 157.796875 C 122.457031 157.492188 122.292969 157.222656 122.078125 156.980469 C 121.859375 156.742188 121.605469 156.554688 121.316406 156.414062 C 121.023438 156.277344 120.71875 156.199219 120.394531 156.179688 C 120.074219 156.164062 119.761719 156.210938 119.457031 156.320312 C 119.152344 156.425781 118.882812 156.589844 118.640625 156.804688 C 118.402344 157.019531 118.210938 157.273438 118.074219 157.566406 C 117.933594 157.855469 117.855469 158.164062 117.839844 158.484375 C 117.824219 158.808594 117.867188 159.121094 117.976562 159.425781 C 127.882812 187.328125 121.832031 218.011719 99.476562 253.222656 C 98.265625 253.699219 97.011719 253.90625 95.714844 253.839844 C 94.417969 253.773438 93.191406 253.441406 92.039062 252.84375 C 81.179688 235.664062 74.101562 219.199219 71.011719 203.902344 C 70.949219 203.582031 70.828125 203.285156 70.648438 203.015625 C 70.472656 202.746094 70.246094 202.519531 69.976562 202.335938 C 69.707031 202.15625 69.414062 202.035156 69.09375 201.972656 C 68.777344 201.90625 68.457031 201.910156 68.136719 201.972656 C 67.820312 202.035156 67.527344 202.160156 67.257812 202.34375 C 66.988281 202.523438 66.765625 202.75 66.585938 203.023438 C 66.410156 203.292969 66.289062 203.589844 66.230469 203.910156 C 66.167969 204.226562 66.171875 204.546875 66.242188 204.863281 C 68.945312 218.234375 74.546875 232.40625 82.914062 247.101562 C 47.671875 224.25 35.175781 188.222656 50.25 159.789062 C 63.914062 134.929688 63.398438 122.339844 63.234375 114.691406 C 63.019531 91.046875 63.171875 68.53125 85.605469 63.058594 C 77.652344 71.347656 79.59375 87.21875 80.199219 99.535156 C 81.058594 115.246094 81.871094 130.078125 76.671875 140.945312 C 73.128906 148.320312 69.425781 155.074219 66.59375 166.507812 C 65.898438 169.589844 70.503906 170.773438 71.324219 167.644531 C 73.574219 158.308594 77.179688 150.972656 79.8125 145.613281 C 86.957031 132.605469 85.964844 116.164062 85.054688 99.269531 C 84.082031 82.96875 82.367188 65.957031 95.875 62.03125 C 110.964844 66.273438 107.0625 87.796875 106.445312 103.945312 C 106.429688 104.265625 106.476562 104.578125 106.585938 104.882812 C 106.695312 105.1875 106.855469 105.457031 107.074219 105.695312 C 107.289062 105.933594 107.542969 106.125 107.832031 106.261719 C 108.125 106.398438 108.433594 106.476562 108.753906 106.492188 C 109.074219 106.511719 109.386719 106.464844 109.691406 106.355469 C 109.996094 106.25 110.265625 106.085938 110.507812 105.871094 C 110.746094 105.65625 110.933594 105.402344 111.074219 105.109375 C 111.210938 104.820312 111.289062 104.511719 111.308594 104.191406 C 111.679688 96.886719 112.195312 89.40625 112.195312 82.117188 C 112.195312 72.492188 109.316406 66.542969 105.976562 62.871094 C 129.191406 68.042969 129.359375 90.90625 129.089844 115.085938 C 128.933594 121.21875 128.664062 131.484375 136.789062 149.3125 C 136.925781 149.601562 137.109375 149.851562 137.347656 150.066406 C 137.582031 150.28125 137.851562 150.445312 138.152344 150.554688 C 138.449219 150.664062 138.761719 150.710938 139.078125 150.699219 C 139.398438 150.6875 139.703125 150.613281 139.992188 150.484375 C 140.285156 150.351562 140.539062 150.167969 140.757812 149.9375 C 140.976562 149.703125 141.140625 149.4375 141.257812 149.140625 C 141.371094 148.84375 141.425781 148.535156 141.417969 148.214844 C 141.410156 147.894531 141.34375 147.589844 141.214844 147.296875 C 133.445312 130.109375 133.828125 121.054688 133.964844 114.816406 C 134.625 85.242188 131.863281 62.375 104.203125 57.660156 C 105.09375 53.652344 106.746094 49.988281 109.160156 46.664062 C 109.453125 46.253906 109.707031 45.820312 109.917969 45.363281 C 110.132812 44.90625 110.296875 44.433594 110.417969 43.945312 C 110.539062 43.453125 110.613281 42.957031 110.636719 42.457031 C 110.664062 41.953125 110.640625 41.449219 110.570312 40.953125 C 110.5 40.453125 110.382812 39.964844 110.21875 39.488281 C 110.054688 39.011719 109.847656 38.554688 109.59375 38.117188 C 109.34375 37.679688 109.054688 37.273438 108.722656 36.890625 C 108.394531 36.511719 108.03125 36.164062 107.632812 35.851562 L 101.230469 30.765625 C 100.996094 30.578125 100.734375 30.4375 100.445312 30.347656 C 100.160156 30.257812 99.867188 30.222656 99.566406 30.242188 C 99.265625 30.261719 98.980469 30.332031 98.707031 30.457031 C 98.433594 30.582031 98.191406 30.75 97.980469 30.964844 C 90.113281 38.988281 87.878906 50.675781 87.273438 57.8125 C 60.019531 62.894531 57.730469 86.34375 58.378906 115.210938 C 58.5625 122.292969 58.871094 134.136719 46.019531 157.378906 C 45.6875 157.945312 37.886719 171.441406 39.320312 190.582031 Z M 99.996094 35.996094 L 104.609375 39.664062 C 104.917969 39.902344 105.171875 40.191406 105.367188 40.527344 C 105.566406 40.863281 105.691406 41.226562 105.75 41.613281 C 105.804688 42 105.789062 42.382812 105.695312 42.761719 C 105.605469 43.140625 105.445312 43.492188 105.21875 43.808594 C 102.3125 47.820312 100.355469 52.253906 99.351562 57.105469 C 96.972656 56.984375 94.597656 57 92.222656 57.15625 C 92.835938 51.199219 94.667969 42.484375 99.996094 35.996094 Z M 99.996094 35.996094 " fill-opacity="1" fill-rule="nonzero"/><path fill="currentColor" d="M 160.417969 233.222656 C 161.667969 236.859375 171.367188 232.53125 196.128906 213.859375 C 217.695312 197.203125 214.207031 164.144531 213.847656 161.183594 C 213.867188 153.050781 215.570312 148.101562 217.21875 143.320312 C 220.46875 135.007812 221.761719 124.773438 217.8125 118.242188 C 219.03125 116.640625 219.96875 114.890625 220.621094 112.988281 C 220.71875 112.683594 220.757812 112.371094 220.730469 112.050781 C 220.707031 111.730469 220.621094 111.429688 220.476562 111.140625 C 220.332031 110.855469 220.140625 110.609375 219.898438 110.398438 C 219.652344 110.1875 219.378906 110.03125 219.078125 109.929688 C 218.773438 109.828125 218.460938 109.789062 218.140625 109.8125 C 217.820312 109.832031 217.515625 109.914062 217.230469 110.058594 C 216.941406 110.199219 216.691406 110.390625 216.480469 110.632812 C 216.269531 110.875 216.109375 111.144531 216.003906 111.449219 C 215.375 113.265625 214.40625 114.882812 213.101562 116.296875 C 210.589844 118.511719 207.542969 121.164062 204.046875 124.1875 C 196.984375 123.367188 191.140625 130.621094 193.425781 137.339844 C 192.835938 137.460938 192.261719 137.628906 191.699219 137.851562 C 191.140625 138.070312 190.605469 138.335938 190.089844 138.652344 C 189.578125 138.964844 189.09375 139.324219 188.644531 139.722656 C 188.195312 140.121094 187.78125 140.558594 187.410156 141.027344 C 187.035156 141.5 186.707031 142 186.417969 142.53125 C 186.132812 143.0625 185.898438 143.609375 185.707031 144.183594 C 185.519531 144.753906 185.382812 145.335938 185.296875 145.933594 C 185.207031 146.527344 185.175781 147.128906 185.195312 147.730469 C 172.804688 148.15625 170.453125 165.246094 182.148438 169.023438 C 182.265625 171.007812 182.941406 172.78125 184.171875 174.339844 C 183.457031 174.730469 182.796875 175.195312 182.191406 175.734375 C 181.582031 176.273438 181.042969 176.875 180.574219 177.535156 C 180.101562 178.199219 179.710938 178.90625 179.398438 179.65625 C 179.089844 180.40625 178.867188 181.183594 178.730469 181.984375 C 177.222656 181.421875 175.667969 181.21875 174.066406 181.378906 C 173.996094 180.382812 173.78125 179.414062 173.421875 178.480469 C 173.0625 177.542969 172.574219 176.683594 171.957031 175.894531 C 171.339844 175.101562 170.625 174.421875 169.804688 173.847656 C 168.984375 173.269531 168.097656 172.828125 167.144531 172.519531 C 168.375 170.625 169.710938 168.808594 171.144531 167.0625 C 173.132812 164.5625 169.460938 161.539062 167.386719 163.972656 C 165.207031 166.609375 163.253906 169.40625 161.527344 172.355469 C 155.636719 173.703125 152.15625 180.886719 154.96875 186.398438 C 147.433594 189.835938 146.683594 200.660156 153.707031 205.085938 C 149.582031 209.757812 150.851562 217.695312 156.046875 220.890625 C 157.089844 225.144531 158.546875 229.257812 160.417969 233.222656 Z M 161.585938 222.640625 C 163.660156 222.722656 165.589844 222.230469 167.371094 221.167969 C 167.6875 223.03125 168.457031 224.691406 169.671875 226.140625 C 167.796875 227.226562 165.863281 228.203125 163.878906 229.070312 C 163.007812 226.96875 162.242188 224.824219 161.585938 222.640625 Z M 183.167969 217.421875 C 179.59375 219.953125 176.546875 221.972656 173.960938 223.582031 C 170.09375 220.191406 172.636719 213.582031 177.792969 213.644531 C 178.378906 213.644531 178.953125 213.730469 179.515625 213.910156 C 180.074219 214.085938 180.597656 214.34375 181.078125 214.683594 C 181.558594 215.019531 181.976562 215.421875 182.332031 215.890625 C 182.691406 216.359375 182.96875 216.867188 183.167969 217.421875 Z M 193.464844 164.132812 C 195.128906 170.660156 203.0625 174.523438 209.3125 171.546875 C 209.210938 174.679688 208.921875 177.792969 208.445312 180.890625 C 207.035156 180.300781 205.566406 180.027344 204.039062 180.066406 C 202.511719 180.101562 201.058594 180.449219 199.679688 181.109375 C 199.210938 179.273438 198.320312 177.675781 197.003906 176.3125 C 199.242188 174.371094 196.679688 170.859375 194.136719 172.410156 C 193.96875 172.515625 193.792969 172.609375 193.609375 172.695312 C 193.429688 172.777344 193.242188 172.847656 193.050781 172.90625 C 192.859375 172.964844 192.667969 173.011719 192.46875 173.046875 C 192.273438 173.082031 192.074219 173.105469 191.875 173.113281 C 191.675781 173.121094 191.476562 173.117188 191.277344 173.101562 C 191.078125 173.085938 190.882812 173.058594 190.6875 173.015625 C 190.492188 172.972656 190.300781 172.917969 190.109375 172.851562 C 189.921875 172.785156 189.738281 172.707031 189.5625 172.617188 C 189.382812 172.527344 189.210938 172.429688 189.046875 172.316406 C 188.878906 172.203125 188.722656 172.082031 188.570312 171.949219 C 188.421875 171.820312 188.28125 171.675781 188.148438 171.527344 C 188.019531 171.378906 187.894531 171.21875 187.785156 171.054688 C 187.671875 170.886719 187.574219 170.714844 187.484375 170.539062 C 187.394531 170.359375 187.316406 170.175781 187.25 169.988281 C 187.183594 169.796875 187.128906 169.605469 187.089844 169.410156 C 187.046875 169.214844 187.019531 169.019531 187.003906 168.820312 C 186.988281 168.621094 186.984375 168.421875 186.992188 168.222656 C 187.003906 168.023438 187.023438 167.824219 187.058594 167.625 C 187.09375 167.429688 187.140625 167.238281 187.203125 167.046875 C 187.261719 166.855469 187.332031 166.667969 187.414062 166.488281 C 187.5 166.304688 187.59375 166.132812 187.699219 165.960938 C 187.804688 165.792969 187.921875 165.628906 188.050781 165.476562 C 188.175781 165.320312 188.3125 165.175781 188.457031 165.039062 C 188.601562 164.902344 188.757812 164.773438 188.917969 164.65625 C 189.078125 164.539062 189.25 164.433594 189.421875 164.339844 C 189.597656 164.242188 189.78125 164.160156 189.964844 164.085938 C 190.152344 164.015625 190.34375 163.953125 190.535156 163.90625 C 190.730469 163.855469 190.925781 163.820312 191.125 163.796875 C 191.324219 163.773438 191.523438 163.765625 191.722656 163.765625 C 191.921875 163.769531 192.121094 163.785156 192.316406 163.8125 C 192.515625 163.839844 192.710938 163.882812 192.902344 163.933594 C 193.09375 163.988281 193.285156 164.050781 193.46875 164.128906 Z M 211.414062 140.335938 C 211.960938 140.335938 212.496094 140.410156 213.019531 140.5625 C 211.648438 144.203125 210.582031 147.925781 209.8125 151.738281 C 209.300781 151.589844 208.820312 151.378906 208.367188 151.097656 C 207.917969 150.820312 207.511719 150.488281 207.148438 150.097656 C 206.789062 149.707031 206.484375 149.277344 206.242188 148.804688 C 206 148.332031 205.824219 147.835938 205.714844 147.316406 C 205.710938 146.863281 205.671875 146.414062 205.605469 145.96875 C 205.621094 145.59375 205.667969 145.226562 205.75 144.859375 C 205.832031 144.496094 205.949219 144.144531 206.101562 143.800781 C 206.253906 143.460938 206.433594 143.136719 206.648438 142.828125 C 206.863281 142.523438 207.101562 142.238281 207.371094 141.976562 C 207.640625 141.71875 207.929688 141.484375 208.242188 141.28125 C 208.554688 141.078125 208.886719 140.90625 209.234375 140.765625 C 209.578125 140.625 209.933594 140.515625 210.300781 140.445312 C 210.667969 140.371094 211.039062 140.335938 211.414062 140.335938 Z M 203.6875 153.511719 C 205.199219 155.097656 207.023438 156.125 209.167969 156.589844 C 208.851562 160.449219 208.988281 160.722656 209.292969 165.746094 C 203.292969 171.4375 194.40625 163.632812 199.230469 156.949219 C 201.042969 156.222656 202.527344 155.078125 203.6875 153.511719 Z M 198.824219 188.652344 C 198.953125 188.402344 199.078125 188.148438 199.1875 187.886719 C 199.386719 187.542969 199.621094 187.222656 199.886719 186.921875 C 200.148438 186.625 200.441406 186.359375 200.757812 186.121094 C 201.078125 185.878906 201.417969 185.675781 201.777344 185.507812 C 202.136719 185.335938 202.511719 185.203125 202.898438 185.109375 C 203.285156 185.015625 203.675781 184.960938 204.074219 184.949219 C 204.472656 184.933594 204.867188 184.957031 205.261719 185.023438 C 205.652344 185.089844 206.035156 185.191406 206.40625 185.335938 C 206.777344 185.476562 207.132812 185.65625 207.46875 185.871094 C 206.613281 189.585938 205.371094 193.167969 203.738281 196.613281 C 203.289062 196.566406 202.847656 196.472656 202.421875 196.324219 C 201.992188 196.179688 201.585938 195.988281 201.203125 195.746094 C 200.820312 195.507812 200.46875 195.226562 200.148438 194.90625 C 199.828125 194.585938 199.550781 194.234375 199.3125 193.847656 C 199.074219 193.460938 198.882812 193.054688 198.738281 192.625 C 198.597656 192.195312 198.503906 191.757812 198.460938 191.308594 C 198.417969 190.855469 198.425781 190.40625 198.488281 189.957031 C 198.550781 189.511719 198.660156 189.074219 198.824219 188.652344 Z M 214.183594 121.816406 C 215.671875 124.613281 215.835938 131.316406 214.4375 135.90625 C 214.011719 135.78125 213.578125 135.683594 213.140625 135.613281 C 213.257812 134.722656 213.257812 133.832031 213.136719 132.9375 C 213.019531 132.046875 212.785156 131.1875 212.4375 130.359375 C 212.085938 129.53125 211.636719 128.761719 211.082031 128.050781 C 210.53125 127.34375 209.894531 126.71875 209.171875 126.179688 C 210.988281 124.613281 212.664062 123.148438 214.183594 121.816406 Z M 203.089844 129.003906 C 203.511719 129.003906 203.925781 129.058594 204.332031 129.160156 C 204.738281 129.257812 205.128906 129.40625 205.503906 129.601562 C 205.875 129.792969 206.21875 130.027344 206.535156 130.304688 C 206.855469 130.582031 207.132812 130.890625 207.378906 131.230469 C 207.621094 131.574219 207.820312 131.9375 207.976562 132.328125 C 208.132812 132.71875 208.242188 133.121094 208.304688 133.535156 C 208.367188 133.953125 208.378906 134.367188 208.339844 134.785156 C 208.300781 135.203125 208.214844 135.613281 208.082031 136.011719 C 206.976562 136.375 205.957031 136.90625 205.027344 137.601562 C 204.09375 138.300781 203.296875 139.125 202.636719 140.082031 C 201.640625 139.105469 200.492188 138.363281 199.191406 137.851562 C 196.105469 134.582031 198.578125 128.917969 203.089844 129.003906 Z M 195.449219 142 C 196.070312 142 196.671875 142.105469 197.257812 142.3125 C 197.84375 142.519531 198.375 142.820312 198.855469 143.210938 C 199.339844 143.605469 199.742188 144.066406 200.0625 144.59375 C 200.386719 145.125 200.613281 145.691406 200.742188 146.300781 C 200.75 146.738281 200.785156 147.175781 200.84375 147.609375 C 200.378906 154.609375 190.253906 154.421875 190.042969 147.40625 C 190.042969 147.050781 190.078125 146.699219 190.148438 146.351562 C 190.21875 146.003906 190.320312 145.667969 190.457031 145.339844 C 190.59375 145.011719 190.761719 144.699219 190.957031 144.40625 C 191.15625 144.109375 191.378906 143.835938 191.628906 143.585938 C 191.878906 143.335938 192.152344 143.113281 192.449219 142.914062 C 192.742188 142.71875 193.054688 142.550781 193.382812 142.414062 C 193.710938 142.277344 194.046875 142.175781 194.394531 142.105469 C 194.742188 142.039062 195.09375 142.003906 195.449219 142.003906 Z M 179.34375 158.613281 C 179.34375 158.160156 179.398438 157.714844 179.5 157.277344 C 179.597656 156.835938 179.75 156.414062 179.945312 156.007812 C 180.140625 155.601562 180.378906 155.222656 180.660156 154.871094 C 180.941406 154.515625 181.257812 154.199219 181.609375 153.917969 C 181.960938 153.636719 182.339844 153.394531 182.742188 153.199219 C 183.148438 153 183.570312 152.851562 184.011719 152.75 C 184.449219 152.644531 184.894531 152.59375 185.34375 152.589844 C 185.796875 152.585938 186.242188 152.632812 186.683594 152.726562 C 187.4375 153.976562 188.417969 155.011719 189.613281 155.84375 C 190.8125 156.675781 192.128906 157.226562 193.5625 157.496094 C 193.402344 157.996094 193.273438 158.507812 193.183594 159.023438 C 192.175781 158.863281 191.171875 158.867188 190.167969 159.027344 C 189.160156 159.1875 188.207031 159.503906 187.300781 159.96875 C 186.394531 160.433594 185.585938 161.03125 184.871094 161.753906 C 184.15625 162.480469 183.574219 163.300781 183.117188 164.210938 C 182.558594 163.988281 182.046875 163.6875 181.578125 163.308594 C 181.109375 162.929688 180.707031 162.492188 180.371094 161.992188 C 180.03125 161.492188 179.777344 160.957031 179.601562 160.378906 C 179.425781 159.804688 179.339844 159.214844 179.34375 158.613281 Z M 189.296875 177.894531 C 189.769531 177.898438 190.238281 177.957031 190.699219 178.074219 C 191.160156 178.191406 191.601562 178.363281 192.019531 178.585938 C 192.4375 178.808594 192.824219 179.078125 193.179688 179.394531 C 193.535156 179.714844 193.84375 180.066406 194.113281 180.460938 C 194.378906 180.851562 194.597656 181.273438 194.765625 181.71875 C 194.929688 182.160156 195.042969 182.621094 195.097656 183.09375 C 195.152344 183.566406 195.152344 184.035156 195.089844 184.507812 C 195.03125 184.980469 194.917969 185.4375 194.75 185.882812 C 194.621094 186.132812 194.492188 186.386719 194.382812 186.644531 C 191.480469 191.800781 183.445312 189.75 183.4375 183.753906 C 183.4375 183.367188 183.476562 182.988281 183.550781 182.609375 C 183.625 182.234375 183.738281 181.867188 183.886719 181.511719 C 184.03125 181.15625 184.214844 180.820312 184.425781 180.5 C 184.640625 180.179688 184.882812 179.886719 185.15625 179.613281 C 185.425781 179.339844 185.722656 179.097656 186.042969 178.886719 C 186.363281 178.671875 186.699219 178.492188 187.054688 178.34375 C 187.410156 178.195312 187.777344 178.085938 188.152344 178.011719 C 188.53125 177.933594 188.910156 177.898438 189.296875 177.894531 Z M 180.671875 191.738281 C 180.636719 197.714844 172.453125 199.378906 170.054688 193.992188 C 169.949219 193.480469 169.808594 192.976562 169.628906 192.488281 C 168.894531 184.683594 180.328125 183.90625 180.671875 191.738281 Z M 164.042969 176.882812 C 164.433594 176.886719 164.820312 176.929688 165.203125 177.019531 C 165.582031 177.105469 165.949219 177.238281 166.300781 177.40625 C 166.652344 177.578125 166.980469 177.785156 167.285156 178.03125 C 167.589844 178.277344 167.863281 178.550781 168.105469 178.859375 C 168.347656 179.167969 168.550781 179.496094 168.71875 179.847656 C 168.886719 180.203125 169.011719 180.570312 169.097656 180.953125 C 169.183594 181.332031 169.222656 181.71875 169.222656 182.109375 C 169.21875 182.5 169.171875 182.886719 169.082031 183.265625 C 167.605469 184.324219 166.476562 185.679688 165.703125 187.324219 C 164.003906 186.125 162.121094 185.480469 160.046875 185.386719 C 157.230469 182.1875 159.761719 176.757812 164.042969 176.882812 Z M 159.539062 190.230469 C 160.105469 190.230469 160.664062 190.3125 161.210938 190.476562 C 161.757812 190.636719 162.265625 190.875 162.742188 191.1875 C 163.21875 191.5 163.640625 191.871094 164.011719 192.308594 C 164.378906 192.742188 164.675781 193.222656 164.90625 193.742188 C 165.007812 194.261719 165.152344 194.769531 165.335938 195.265625 C 165.394531 195.679688 165.40625 196.097656 165.375 196.515625 C 165.34375 196.933594 165.269531 197.34375 165.152344 197.746094 C 165.03125 198.148438 164.875 198.53125 164.671875 198.902344 C 164.46875 199.269531 164.234375 199.609375 163.957031 199.929688 C 163.683594 200.246094 163.378906 200.527344 163.042969 200.78125 C 162.707031 201.03125 162.347656 201.246094 161.96875 201.421875 C 161.585938 201.59375 161.191406 201.726562 160.78125 201.816406 C 160.371094 201.90625 159.957031 201.953125 159.539062 201.953125 C 151.777344 201.675781 151.78125 190.5 159.539062 190.226562 Z M 159.539062 206.820312 C 160.578125 206.816406 161.597656 206.667969 162.59375 206.371094 C 163.59375 206.070312 164.527344 205.636719 165.398438 205.070312 C 166.269531 204.5 167.042969 203.816406 167.714844 203.023438 C 168.386719 202.230469 168.933594 201.355469 169.351562 200.402344 C 175.34375 204.589844 184.121094 200.832031 185.34375 193.71875 C 186.726562 194.265625 188.164062 194.515625 189.652344 194.46875 C 191.140625 194.417969 192.554688 194.070312 193.898438 193.429688 C 194.128906 194.332031 194.472656 195.1875 194.925781 196 C 195.378906 196.808594 195.929688 197.550781 196.574219 198.21875 C 197.21875 198.890625 197.941406 199.464844 198.734375 199.949219 C 199.53125 200.429688 200.375 200.804688 201.265625 201.066406 C 198.199219 206.28125 192.664062 210.589844 187.765625 214.089844 C 184.601562 210.707031 186.839844 204.824219 191.453125 204.390625 C 191.777344 204.359375 192.082031 204.261719 192.367188 204.109375 C 192.652344 203.953125 192.898438 203.746094 193.101562 203.492188 C 193.304688 203.242188 193.453125 202.957031 193.542969 202.644531 C 193.632812 202.332031 193.660156 202.015625 193.621094 201.691406 C 193.585938 201.367188 193.484375 201.066406 193.328125 200.78125 C 193.167969 200.496094 192.960938 200.253906 192.703125 200.054688 C 192.449219 199.855469 192.164062 199.710938 191.847656 199.625 C 191.535156 199.539062 191.21875 199.515625 190.894531 199.558594 C 190.28125 199.628906 189.675781 199.753906 189.082031 199.929688 C 188.488281 200.105469 187.917969 200.332031 187.363281 200.605469 C 186.808594 200.882812 186.28125 201.203125 185.785156 201.570312 C 185.285156 201.9375 184.824219 202.34375 184.394531 202.792969 C 183.964844 203.238281 183.582031 203.71875 183.234375 204.234375 C 182.890625 204.746094 182.59375 205.285156 182.34375 205.851562 C 182.089844 206.417969 181.890625 207 181.742188 207.601562 C 181.589844 208.203125 181.492188 208.8125 181.449219 209.429688 C 179.976562 208.890625 178.460938 208.691406 176.898438 208.828125 C 175.339844 208.960938 173.878906 209.417969 172.519531 210.199219 C 172.421875 208.457031 171.15625 206.816406 169.265625 207.34375 C 168.953125 207.429688 168.671875 207.574219 168.417969 207.773438 C 168.164062 207.972656 167.960938 208.214844 167.800781 208.496094 C 167.644531 208.777344 167.546875 209.078125 167.507812 209.398438 C 167.46875 209.71875 167.496094 210.03125 167.582031 210.34375 C 167.707031 210.777344 167.777344 211.222656 167.796875 211.675781 C 167.816406 212.128906 167.785156 212.574219 167.699219 213.019531 C 167.617188 213.464844 167.480469 213.894531 167.296875 214.308594 C 167.113281 214.722656 166.886719 215.109375 166.613281 215.46875 C 166.339844 215.832031 166.027344 216.15625 165.679688 216.445312 C 165.332031 216.734375 164.957031 216.980469 164.550781 217.179688 C 164.144531 217.382812 163.722656 217.535156 163.28125 217.640625 C 162.839844 217.742188 162.394531 217.796875 161.941406 217.796875 C 155.910156 217.78125 153.863281 209.675781 159.15625 206.796875 C 159.28125 206.800781 159.40625 206.816406 159.539062 206.816406 Z M 159.539062 206.820312 " fill-opacity="1" fill-rule="nonzero"/><path fill="currentColor" d="M 65.152344 182.953125 C 62.875 185.277344 66.277344 188.722656 68.628906 186.480469 C 70.910156 184.15625 67.507812 180.710938 65.152344 182.953125 Z M 65.152344 182.953125 " fill-opacity="1" fill-rule="nonzero"/></svg>