<svg xmlns="http://www.w3.org/2000/svg" xmlns:xlink="http://www.w3.org/1999/xlink" width="400" zoomAndPan="magnify" viewBox="0 0 300 299.999988" height="400" preserveAspectRatio="xMidYMid meet" version="1.0"><defs><clipPath id="61449c9d2e"><path d="M 30 55.351562 L 270 55.351562 L 270 244.351562 L 30 244.351562 Z M 30 55.351562 " clip-rule="nonzero"/></clipPath></defs><g clip-path="url(#61449c9d2e)"><path fill="currentColor" d="M 208.585938 162.207031 C 210.839844 162.113281 212.949219 162.0625 215.015625 161.96875 C 219.714844 161.824219 224.417969 161.152344 229.074219 160.433594 C 232.335938 159.953125 235.644531 159.808594 238.910156 159.375 C 242.9375 158.800781 246.921875 157.984375 250.953125 157.363281 C 253.445312 156.976562 255.988281 156.785156 258.484375 156.496094 C 260.597656 156.257812 262.660156 156.019531 264.769531 155.875 C 265.730469 155.824219 266.738281 155.875 267.695312 156.066406 C 268.945312 156.304688 269.761719 157.167969 269.902344 158.417969 C 270 159.183594 270 160 270 160.769531 C 269.902344 162.832031 269.710938 164.847656 269.664062 166.910156 C 269.566406 171.085938 268.800781 175.164062 267.792969 179.191406 C 266.6875 183.65625 264.960938 187.925781 263.378906 192.195312 C 262.5625 194.308594 261.601562 196.371094 260.691406 198.433594 C 259.445312 201.214844 257.667969 203.566406 255.703125 205.871094 C 250.808594 211.578125 245.195312 216.472656 239.246094 221.03125 C 235.597656 223.816406 231.710938 226.308594 227.488281 228.132812 C 224.273438 229.523438 220.914062 230.628906 217.605469 231.78125 C 213.480469 233.21875 209.257812 234.515625 205.128906 235.953125 C 201.148438 237.34375 197.070312 238.257812 192.992188 239.214844 C 188 240.367188 183.011719 241.710938 177.972656 242.625 C 174.328125 243.296875 170.632812 243.632812 166.9375 243.871094 C 160.605469 244.253906 154.222656 244.542969 147.839844 244.351562 C 139.828125 244.109375 131.910156 242.960938 124.042969 241.230469 C 117.949219 239.886719 112.144531 237.730469 106.242188 235.859375 C 97.941406 233.21875 90.9375 228.613281 84.265625 223.238281 C 80.140625 219.929688 76.492188 216.136719 73.183594 212.109375 C 72.078125 210.8125 71.023438 209.804688 69.390625 209.277344 C 66.992188 208.460938 64.882812 207.070312 62.960938 205.484375 C 59.363281 202.558594 55.574219 199.871094 52.742188 196.128906 C 50.824219 193.636719 49 191.042969 47.273438 188.453125 C 44.824219 184.710938 42.425781 180.921875 40.074219 177.128906 C 38.445312 174.492188 37.003906 171.660156 35.949219 168.734375 C 34.269531 164.175781 32.6875 159.570312 31.582031 154.820312 C 31.199219 153.089844 30.910156 151.316406 30.769531 149.539062 C 30.527344 145.605469 30 141.625 30.433594 137.640625 C 31.054688 131.738281 31.535156 125.789062 33.503906 120.128906 C 34.796875 116.433594 36.382812 112.835938 38.203125 109.332031 C 38.398438 108.949219 38.492188 108.515625 38.683594 108.132812 C 38.78125 107.941406 38.925781 107.75 39.070312 107.558594 C 39.164062 107.414062 39.308594 107.316406 39.402344 107.171875 C 43.769531 99.257812 49.769531 92.492188 56.4375 86.15625 C 63.011719 79.921875 70.304688 74.738281 78.078125 70.226562 C 85.753906 65.8125 93.957031 62.503906 102.644531 60.34375 C 108.257812 58.953125 113.964844 57.898438 119.628906 56.9375 C 122.460938 56.457031 125.335938 55.976562 128.214844 55.785156 C 132.824219 55.449219 137.429688 55.640625 141.988281 56.3125 C 145.058594 56.792969 148.175781 56.890625 151.246094 57.417969 C 156.140625 58.234375 161.035156 59.191406 165.785156 60.726562 C 167.992188 61.449219 170.246094 62.070312 172.503906 62.742188 C 172.839844 62.839844 173.175781 62.984375 173.511719 63.128906 C 179.941406 66.4375 186.511719 69.507812 191.933594 74.402344 C 193.277344 75.601562 194.574219 76.851562 195.726562 78.242188 C 199.179688 82.367188 202.683594 86.492188 205.992188 90.765625 C 209.734375 95.609375 212.757812 100.886719 215.207031 106.453125 C 216.550781 109.523438 217.125 112.835938 217.652344 116.144531 C 218.46875 121.617188 218.996094 127.085938 218.804688 132.601562 C 218.707031 135.433594 218.132812 138.265625 217.605469 141.046875 C 216.359375 148.195312 213.144531 154.53125 209.449219 160.671875 C 209.160156 161.152344 208.921875 161.582031 208.585938 162.207031 Z M 33.3125 145.414062 C 34.367188 145.175781 34.703125 144.886719 35.132812 143.78125 C 36.09375 141.382812 37.484375 139.273438 39.355469 137.449219 C 41.132812 135.722656 43.289062 134.90625 45.738281 134.8125 C 47.703125 134.714844 49.574219 135.097656 51.449219 135.675781 C 52.695312 136.058594 53.796875 135.867188 54.664062 134.714844 C 55.046875 134.1875 55.476562 133.707031 55.910156 133.132812 C 57.109375 131.453125 58.644531 130.058594 60.277344 128.8125 C 63.15625 126.605469 66.273438 126.316406 69.632812 127.566406 C 71.261719 128.1875 72.894531 128.667969 74.574219 129.292969 C 75.628906 129.675781 76.542969 129.484375 77.308594 128.71875 C 78.125 127.851562 78.941406 126.988281 79.613281 126.03125 C 80.378906 124.972656 81.003906 123.824219 81.675781 122.671875 C 82.441406 121.375 83.546875 120.609375 85.035156 120.464844 C 85.753906 120.367188 86.425781 120.320312 87.144531 120.273438 C 90.121094 120.128906 92.710938 119.167969 94.871094 117.058594 C 96.070312 115.859375 97.363281 114.753906 98.566406 113.601562 C 100.4375 111.828125 102.738281 111.011719 105.28125 111.011719 C 110.03125 111.011719 114.253906 109.574219 117.949219 106.597656 C 118.859375 105.832031 119.917969 105.253906 120.972656 104.628906 C 121.980469 104.054688 123.082031 103.765625 124.234375 103.910156 C 125.578125 104.054688 126.921875 104.199219 128.214844 104.535156 C 130.375 105.109375 132.296875 104.871094 133.925781 103.289062 C 134.214844 103 134.597656 102.808594 134.933594 102.617188 C 136.132812 101.800781 137.523438 101.464844 138.964844 101.511719 C 139.589844 101.511719 140.261719 101.558594 140.882812 101.558594 C 143.761719 101.703125 146.640625 101.945312 149.519531 102.039062 C 151.296875 102.085938 153.117188 101.894531 154.894531 101.945312 C 160.171875 101.992188 165.496094 101.992188 170.777344 102.136719 C 173.222656 102.183594 175.621094 102.519531 178.070312 102.757812 C 179.316406 102.902344 180.417969 103.429688 181.425781 104.152344 C 181.957031 104.535156 182.242188 105.109375 182.097656 105.78125 C 181.957031 106.453125 181.523438 106.789062 180.851562 106.980469 C 177.734375 107.75 174.566406 108.132812 171.351562 107.703125 C 170.34375 107.558594 169.289062 107.558594 168.28125 107.558594 C 164.96875 107.652344 161.851562 108.613281 158.734375 109.523438 C 156.765625 110.101562 154.796875 110.484375 152.734375 110.484375 C 151.726562 110.484375 150.71875 110.582031 149.710938 110.722656 C 147.695312 111.058594 145.921875 111.921875 144.144531 112.882812 C 140.402344 114.945312 136.421875 115.761719 132.152344 115.089844 C 130.664062 114.851562 129.320312 115.1875 128.023438 115.953125 C 127.351562 116.339844 126.679688 116.769531 126.058594 117.25 C 124.523438 118.496094 122.988281 119.792969 121.453125 121.089844 C 119.675781 122.574219 117.757812 123.679688 115.453125 124.207031 C 113.726562 124.589844 112 124.398438 110.273438 124.253906 C 107.730469 124.0625 105.570312 124.925781 103.792969 126.652344 C 102.835938 127.613281 101.921875 128.667969 101.058594 129.722656 C 99.8125 131.210938 98.660156 132.796875 97.363281 134.28125 C 95.542969 136.394531 93.429688 138.167969 90.886719 139.367188 C 87.671875 140.953125 84.3125 141.382812 80.859375 140.230469 C 79.371094 139.753906 77.886719 139.175781 76.398438 138.554688 C 74.621094 137.832031 72.992188 138.023438 71.40625 139.03125 C 70.925781 139.320312 70.398438 139.65625 69.96875 140.039062 C 68.671875 141.191406 67.425781 142.34375 66.175781 143.496094 C 63.875 145.605469 61.378906 147.476562 58.210938 147.8125 C 56.101562 148.054688 53.847656 147.765625 51.6875 147.476562 C 50.199219 147.285156 48.710938 146.660156 47.226562 146.277344 C 45.929688 145.941406 44.777344 146.277344 43.960938 147.382812 C 43.578125 147.910156 43.195312 148.484375 42.90625 149.0625 C 42.140625 150.597656 41.515625 152.179688 40.699219 153.714844 C 40.171875 154.769531 39.546875 155.777344 38.78125 156.640625 C 37.964844 157.601562 36.8125 158.035156 35.46875 157.792969 C 35.324219 157.746094 35.183594 157.792969 34.988281 157.792969 C 36.574219 163.023438 38.109375 168.15625 40.699219 173.003906 C 40.941406 172.8125 41.082031 172.667969 41.226562 172.523438 C 42.378906 171.46875 43.484375 170.363281 44.730469 169.40625 C 46.363281 168.15625 48.136719 167.246094 50.296875 167.535156 C 51.6875 167.726562 52.886719 168.398438 54.085938 169.019531 C 55.957031 170.027344 56.390625 169.980469 57.925781 168.492188 C 60.035156 166.429688 62.148438 164.367188 64.113281 162.207031 C 65.503906 160.671875 67.136719 160 69.152344 159.953125 C 72.703125 159.90625 76.253906 159.710938 79.804688 159.617188 C 80.714844 159.570312 81.484375 159.328125 82.105469 158.65625 C 82.636719 158.082031 83.164062 157.503906 83.691406 156.976562 C 85.128906 155.441406 86.761719 154.148438 88.871094 153.667969 C 90.601562 153.234375 92.375 153.089844 94.148438 153.332031 C 95.253906 153.425781 96.308594 153.570312 97.414062 153.714844 C 98.371094 153.859375 99.1875 153.617188 99.957031 153.042969 C 100.484375 152.660156 100.964844 152.226562 101.394531 151.796875 C 102.449219 150.789062 103.457031 149.734375 104.515625 148.726562 C 106.480469 146.902344 108.832031 145.988281 111.519531 146.039062 C 113.101562 146.039062 114.734375 145.988281 116.316406 145.796875 C 120.203125 145.367188 123.417969 143.78125 125.578125 140.375 C 125.914062 139.847656 126.296875 139.320312 126.632812 138.792969 C 127.738281 137.210938 129.082031 135.960938 130.710938 134.953125 C 132.96875 133.5625 135.511719 133.082031 138.101562 132.746094 C 141.890625 132.21875 145.347656 130.875 148.367188 128.429688 C 153.695312 124.109375 159.261719 120.082031 165.210938 116.625 C 165.402344 116.53125 165.59375 116.386719 165.738281 116.242188 C 166.792969 115.234375 168.039062 114.707031 169.382812 114.324219 C 171.207031 113.746094 173.03125 113.125 174.855469 112.5 C 175.667969 112.210938 176.535156 111.972656 177.398438 111.78125 C 178.070312 111.636719 178.742188 111.683594 179.171875 112.355469 C 179.605469 113.027344 179.460938 113.699219 179.027344 114.273438 C 178.597656 114.945312 178.117188 115.570312 177.589844 116.144531 C 175.957031 118.066406 174.277344 119.886719 172.648438 121.808594 C 171.449219 123.246094 170.105469 124.496094 168.328125 125.308594 C 167.609375 125.644531 166.9375 126.125 166.265625 126.605469 C 164.394531 127.996094 163.097656 129.867188 161.851562 131.835938 C 159.453125 135.578125 156.191406 137.976562 151.679688 138.3125 C 149.761719 138.457031 148.320312 139.464844 147.167969 140.953125 C 145.683594 142.871094 144.722656 145.03125 143.859375 147.238281 C 142.996094 149.589844 141.460938 151.363281 139.253906 152.46875 C 136.039062 154.097656 132.582031 154.820312 128.984375 154.148438 C 126.679688 153.714844 124.714844 154.097656 122.84375 155.492188 C 121.980469 156.113281 121.066406 156.738281 120.203125 157.363281 C 118.574219 158.5625 116.75 159.136719 114.6875 158.753906 C 112 158.226562 109.792969 159.234375 107.921875 161.105469 C 107.199219 161.824219 106.578125 162.589844 105.90625 163.359375 C 103.9375 165.566406 101.445312 166.574219 98.566406 166.621094 C 96.644531 166.667969 94.820312 166.285156 93 165.804688 C 92.039062 165.566406 91.128906 165.757812 90.3125 166.332031 C 89.449219 166.957031 88.632812 167.582031 87.816406 168.253906 C 87.722656 168.300781 87.671875 168.445312 87.625 168.492188 C 90.023438 168.492188 92.421875 168.542969 94.773438 168.492188 C 97.941406 168.398438 101.15625 168.0625 104.324219 167.964844 C 110.558594 167.726562 116.796875 167.582031 123.035156 167.292969 C 127.976562 167.054688 132.96875 166.71875 137.910156 166.382812 C 138.101562 166.382812 138.292969 166.332031 138.4375 166.238281 C 139.492188 165.613281 140.546875 164.894531 141.601562 164.269531 C 142.898438 163.503906 144.003906 162.589844 144.578125 161.152344 C 145.683594 158.464844 147.746094 156.738281 150.289062 155.539062 C 152.207031 154.625 153.980469 153.476562 155.613281 152.132812 C 157.101562 150.882812 158.203125 149.445312 158.539062 147.429688 C 158.875 145.558594 159.738281 143.976562 160.941406 142.535156 C 162.234375 141.097656 163.769531 140.039062 165.449219 139.082031 C 167.273438 138.074219 169 136.96875 170.296875 135.339844 C 171.832031 133.371094 173.125 131.261719 174.085938 128.957031 C 175.71875 125.214844 177.734375 121.664062 180.324219 118.496094 C 180.660156 118.113281 180.996094 117.730469 181.378906 117.394531 C 181.761719 117.058594 182.242188 117.007812 182.675781 117.34375 C 183.105469 117.632812 183.203125 118.113281 183.011719 118.546875 C 182.820312 119.023438 182.578125 119.457031 182.386719 119.9375 C 182.292969 120.175781 182.195312 120.417969 182.195312 120.65625 C 182.339844 124.109375 181.621094 127.375 180.515625 130.636719 C 178.453125 136.777344 175.382812 142.246094 170.34375 146.46875 C 168.855469 147.71875 167.609375 149.253906 166.3125 150.691406 C 165.257812 151.84375 165.019531 153.1875 165.738281 154.675781 C 166.839844 156.929688 166.410156 159.089844 164.921875 161.054688 C 164.539062 161.582031 164.011719 162.113281 163.625 162.640625 C 163.148438 163.214844 162.714844 163.839844 162.234375 164.558594 C 162.523438 164.558594 162.667969 164.605469 162.761719 164.605469 C 165.160156 164.460938 167.609375 164.320312 170.007812 164.222656 C 173.703125 164.03125 177.347656 163.789062 181.042969 163.597656 C 181.476562 163.597656 181.621094 163.40625 181.761719 162.976562 C 182.003906 162.113281 182.292969 161.199219 182.769531 160.480469 C 183.585938 159.234375 184.546875 158.082031 185.457031 156.882812 C 186.226562 155.875 186.992188 154.867188 187.664062 153.8125 C 188.144531 153.042969 188.242188 152.132812 187.617188 151.410156 C 186.320312 150.019531 186.320312 148.484375 186.898438 146.804688 C 188 143.589844 189.007812 140.375 189.96875 137.160156 C 190.207031 136.296875 190.449219 135.289062 190.257812 134.378906 C 189.726562 131.691406 188.914062 129.003906 188.289062 126.316406 C 187.953125 124.878906 187.664062 123.4375 187.570312 121.953125 C 187.519531 121.039062 187.808594 120.03125 188.046875 119.121094 C 188.144531 118.832031 188.671875 118.546875 189.007812 118.449219 C 189.488281 118.351562 189.824219 118.738281 189.921875 119.214844 C 190.015625 119.695312 190.015625 120.175781 190.0625 120.65625 C 190.113281 120.992188 190.160156 121.375 190.351562 121.566406 C 191.695312 122.816406 193.039062 124.0625 194.476562 125.261719 C 196.109375 126.652344 197.886719 127.949219 199.46875 129.390625 C 200.765625 130.539062 201.386719 132.125 201.769531 133.804688 C 202.203125 135.769531 201.820312 137.640625 201.195312 139.464844 C 200.523438 141.382812 199.757812 143.304688 199.035156 145.222656 C 198.75 145.941406 198.84375 146.46875 199.324219 147.09375 C 200.429688 148.484375 201.292969 150.019531 201.628906 151.84375 C 202.058594 154.242188 201.722656 156.355469 200.09375 158.175781 C 199.5625 158.800781 199.132812 159.472656 198.699219 160.144531 C 198.269531 160.816406 198.171875 161.582031 198.222656 162.398438 C 198.507812 162.398438 198.75 162.398438 198.941406 162.398438 C 200.523438 162.351562 202.105469 162.253906 203.691406 162.304688 C 204.3125 162.304688 204.601562 162.0625 204.890625 161.582031 C 205.945312 159.664062 207.050781 157.839844 208.058594 155.921875 C 210.648438 151.027344 213 146.039062 213.957031 140.519531 C 214.007812 140.230469 214.007812 139.898438 213.957031 139.5625 C 213.71875 138.074219 213.480469 136.585938 213.285156 135.097656 C 213.144531 133.996094 213.09375 132.9375 213 131.835938 C 212.757812 129.53125 211.941406 127.757812 209.398438 127.375 C 209.398438 127.375 209.351562 127.375 209.351562 127.375 C 207.722656 126.847656 206.714844 125.789062 206.328125 124.109375 C 206.136719 123.296875 205.992188 122.480469 205.800781 121.664062 C 205.371094 119.601562 204.21875 118.257812 202.058594 117.730469 C 200.429688 117.296875 198.796875 116.671875 197.261719 115.953125 C 196.253906 115.523438 195.34375 114.800781 194.476562 114.128906 C 194.191406 113.890625 194.09375 113.316406 194.046875 112.882812 C 194.046875 112.738281 194.429688 112.402344 194.671875 112.355469 C 196.300781 112.164062 197.886719 112.066406 199.515625 111.875 C 201.195312 111.683594 202.875 111.539062 204.554688 111.253906 C 207.144531 110.722656 209.640625 110.964844 211.992188 112.164062 C 212.375 112.355469 212.808594 112.5 213.285156 112.738281 C 212.519531 108.179688 210.214844 104.4375 208.152344 100.601562 C 207.289062 101.273438 206.472656 101.945312 205.65625 102.519531 C 204.9375 103.046875 204.074219 103.238281 203.210938 102.855469 C 202.585938 102.566406 201.914062 102.230469 201.386719 101.800781 C 200.90625 101.414062 200.476562 101.222656 199.851562 101.414062 C 197.933594 102.039062 195.964844 102.664062 194.09375 103.335938 C 193.085938 103.71875 192.078125 104.199219 191.070312 104.535156 C 190.304688 104.773438 189.632812 104.488281 189.25 103.910156 C 188.914062 103.382812 189.007812 102.664062 189.535156 102.085938 C 190.113281 101.414062 190.734375 100.746094 191.40625 100.121094 C 192.800781 98.777344 193.949219 97.242188 195.007812 95.609375 C 196.445312 93.257812 197.261719 90.621094 198.269531 88.078125 C 198.507812 87.550781 198.507812 86.972656 198.027344 86.445312 C 196.253906 84.382812 194.527344 82.222656 192.75 80.160156 C 191.933594 79.199219 191.070312 78.289062 190.160156 77.472656 C 185.699219 73.492188 180.613281 70.46875 175.191406 67.925781 C 175.140625 67.878906 175.046875 67.925781 174.949219 67.878906 C 174.949219 68.453125 174.949219 68.980469 174.949219 69.558594 C 174.949219 70.324219 175.285156 70.804688 175.957031 71.234375 C 177.78125 72.433594 179.605469 73.636719 181.378906 74.882812 C 182.484375 75.648438 183.058594 76.753906 183.058594 78.097656 C 183.058594 79.535156 183.632812 80.6875 184.835938 81.457031 C 186.082031 82.273438 186.847656 83.472656 187.28125 84.910156 C 187.855469 86.878906 187.855469 88.84375 187.378906 90.8125 C 187.042969 92.300781 186.945312 93.785156 187.328125 95.324219 C 187.570312 96.28125 187.472656 97.386719 187.28125 98.34375 C 187.042969 99.59375 185.839844 99.929688 184.929688 99.066406 C 183.730469 97.960938 182.628906 96.761719 182.097656 95.179688 C 181.761719 94.121094 181.378906 93.113281 181.1875 92.011719 C 180.949219 90.332031 180.035156 89.179688 178.546875 88.460938 C 177.15625 87.789062 176.292969 86.636719 175.863281 85.199219 C 175.621094 84.285156 175.332031 83.328125 175.09375 82.414062 C 174.613281 80.734375 173.605469 79.535156 171.734375 79.296875 C 171.496094 79.25 171.304688 79.152344 171.0625 79.105469 C 169.433594 78.816406 168.234375 77.855469 167.320312 76.515625 C 166.9375 75.984375 166.554688 75.457031 166.074219 75.074219 C 163.53125 73.105469 161.371094 70.757812 159.308594 68.355469 C 158.683594 67.636719 157.917969 66.917969 157.101562 66.4375 C 153.550781 64.230469 149.902344 62.121094 146.066406 60.441406 C 145.539062 60.199219 144.914062 60.105469 144.339844 60.007812 C 143.476562 59.863281 142.5625 59.816406 141.652344 59.671875 C 136.949219 58.855469 132.199219 58.761719 127.402344 59.144531 C 124.808594 59.335938 122.21875 59.863281 119.628906 60.25 C 112.191406 61.351562 104.851562 62.984375 97.605469 65.09375 C 92.757812 66.535156 88.25 68.742188 83.738281 70.851562 C 77.40625 73.828125 71.742188 78 66.082031 82.078125 C 66.035156 82.128906 65.984375 82.175781 65.890625 82.320312 C 66.082031 82.320312 66.128906 82.367188 66.226562 82.320312 C 68.097656 82.128906 69.777344 82.609375 71.40625 83.566406 C 72.414062 84.144531 73.421875 84.71875 74.476562 85.199219 C 74.957031 85.390625 75.535156 85.484375 76.011719 85.484375 C 77.5 85.4375 78.75 84.671875 79.996094 83.949219 C 83.449219 81.9375 86.90625 79.871094 90.359375 77.855469 C 93.527344 76.035156 96.789062 74.5 100.292969 73.492188 C 102.882812 72.769531 105.378906 72.769531 107.535156 74.644531 C 108.640625 75.601562 109.742188 75.699219 111.039062 75.3125 C 111.28125 75.21875 111.519531 75.171875 111.757812 75.121094 C 113.4375 74.59375 115.070312 74.066406 116.75 73.585938 C 118.667969 73.058594 120.347656 73.539062 121.882812 74.738281 C 122.363281 75.121094 122.792969 75.554688 123.226562 76.035156 C 123.707031 76.609375 124.332031 76.851562 125.050781 76.707031 C 126.34375 76.464844 127.640625 76.273438 128.886719 75.984375 C 130.230469 75.699219 131.574219 75.457031 132.96875 75.746094 C 136.996094 76.515625 140.980469 77.328125 145.011719 78.144531 C 147.503906 78.671875 149.953125 79.25 152.351562 80.257812 C 154.941406 81.359375 157.675781 82.222656 160.363281 83.230469 C 160.941406 83.421875 161.515625 83.710938 162.042969 84 C 164.394531 85.246094 166.699219 86.445312 169.046875 87.695312 C 169.625 88.027344 170.296875 88.363281 170.726562 88.84375 C 172.503906 90.8125 174.519531 92.492188 176.871094 93.738281 C 177.539062 94.074219 178.019531 94.792969 178.5 95.417969 C 178.882812 95.898438 178.835938 96.523438 178.40625 97.050781 C 177.972656 97.578125 177.445312 97.671875 176.820312 97.480469 C 174.421875 96.761719 172.023438 96.042969 169.625 95.273438 C 167.800781 94.699219 166.074219 94.074219 164.203125 93.59375 C 162.042969 93.066406 160.074219 92.25 158.539062 90.667969 C 157.53125 89.660156 156.332031 89.132812 154.941406 89.085938 C 154.511719 89.085938 154.03125 88.988281 153.597656 88.988281 C 151.632812 88.988281 149.710938 88.699219 147.839844 88.027344 C 145.585938 87.214844 143.234375 86.878906 140.835938 87.261719 C 139.636719 87.453125 138.4375 87.644531 137.1875 87.789062 C 136.085938 87.933594 134.933594 88.171875 133.832031 88.222656 C 131.625 88.316406 129.609375 87.550781 127.785156 86.351562 C 127.257812 86.015625 126.777344 85.917969 126.203125 86.0625 C 125.050781 86.398438 123.945312 86.878906 122.746094 87.117188 C 121.257812 87.453125 119.722656 87.789062 118.1875 87.835938 C 115.597656 87.980469 113.4375 86.734375 111.566406 85.054688 C 111.085938 84.621094 110.464844 84.238281 109.839844 84.144531 C 107.152344 83.710938 104.5625 83.949219 102.019531 84.957031 C 97.414062 86.828125 93.238281 89.46875 89.207031 92.394531 C 86.90625 94.074219 84.554688 95.753906 82.203125 97.386719 C 81.628906 97.769531 80.957031 98.105469 80.285156 98.25 C 78.84375 98.585938 77.550781 99.207031 76.253906 99.929688 C 75.199219 100.503906 74.140625 101.078125 73.085938 101.65625 C 72.605469 101.894531 72.078125 102.136719 71.550781 102.28125 C 69.679688 102.808594 68.097656 101.800781 67.855469 99.878906 C 67.761719 99.160156 67.808594 98.488281 67.761719 97.769531 C 67.570312 95.992188 66.511719 95.371094 64.882812 96.042969 C 63.828125 96.472656 62.722656 96.808594 61.621094 97.144531 C 61.425781 97.195312 61.1875 97.289062 61.042969 97.386719 C 59.363281 98.394531 57.683594 99.304688 56.101562 100.410156 C 52.261719 103.09375 48.519531 105.878906 44.683594 108.566406 C 43.578125 109.332031 42.378906 109.957031 41.226562 110.675781 C 40.890625 110.867188 40.507812 111.109375 40.363281 111.445312 C 37.101562 117.679688 34.558594 124.109375 33.695312 131.164062 C 33.167969 135.722656 32.445312 140.28125 32.925781 144.933594 C 33.261719 144.984375 33.261719 145.175781 33.3125 145.414062 Z M 256.804688 159.519531 C 255.269531 159.761719 253.78125 159.90625 252.34375 160.144531 C 248.121094 160.863281 243.945312 161.679688 239.722656 162.304688 C 236.460938 162.785156 233.199219 163.023438 229.9375 163.40625 C 227.535156 163.695312 225.234375 164.320312 222.835938 164.511719 C 217.699219 164.894531 212.566406 165.183594 207.433594 165.421875 C 201.484375 165.710938 195.582031 165.804688 189.632812 166.09375 C 185.648438 166.285156 181.714844 166.667969 177.78125 166.910156 C 172.695312 167.199219 167.609375 167.339844 162.476562 167.582031 C 161.660156 167.628906 160.890625 167.820312 160.074219 167.917969 C 159.835938 167.964844 159.597656 167.871094 159.308594 167.871094 C 159.070312 167.820312 158.828125 167.773438 158.636719 167.773438 C 157.339844 167.820312 156.046875 167.964844 154.703125 168.011719 C 147.792969 168.398438 140.835938 168.875 133.878906 169.070312 C 127.160156 169.210938 120.445312 168.972656 113.679688 168.875 C 108.59375 168.828125 103.457031 168.972656 98.421875 169.597656 C 95.015625 170.027344 91.605469 170.460938 88.199219 170.84375 C 86.378906 171.035156 84.507812 170.988281 82.777344 171.660156 C 82.636719 171.707031 82.441406 171.660156 82.25 171.660156 C 81.914062 171.660156 81.578125 171.613281 81.242188 171.660156 C 79.757812 171.898438 78.222656 172.089844 76.734375 172.378906 C 75.34375 172.621094 74 172.859375 72.605469 173.148438 C 72.222656 173.242188 72.078125 173.386719 72.269531 173.820312 C 72.558594 174.539062 72.800781 175.304688 72.992188 176.074219 C 73.804688 179.242188 74.238281 182.457031 75.582031 185.476562 C 76.347656 187.15625 76.972656 188.886719 77.597656 190.613281 C 78.75 193.777344 80.234375 196.753906 82.394531 199.34375 C 84.410156 201.742188 86.328125 204.191406 88.441406 206.492188 C 89.878906 208.078125 91.464844 209.515625 93.144531 210.859375 C 95.300781 212.585938 97.699219 213.882812 100.578125 214.027344 C 101.347656 214.074219 102.164062 214.363281 102.835938 214.652344 C 105.28125 215.753906 107.730469 216.90625 110.175781 218.105469 C 113.199219 219.59375 116.171875 221.078125 119.386719 221.992188 C 124.570312 223.480469 129.847656 223.957031 135.222656 224.054688 C 138.101562 224.101562 140.980469 224.101562 143.808594 224.292969 C 146.210938 224.4375 148.609375 224.871094 151.007812 225.160156 C 155.613281 225.734375 160.21875 225.734375 164.824219 225.6875 C 167.945312 225.636719 171.015625 225.109375 173.847656 223.863281 C 177.683594 222.183594 181.667969 221.464844 185.839844 221.367188 C 189.105469 221.273438 192.464844 221.367188 195.675781 220.410156 C 197.644531 219.832031 199.5625 219.207031 201.53125 218.730469 C 205.800781 217.722656 209.785156 216.089844 213.527344 213.785156 C 215.109375 212.828125 216.886719 212.011719 218.660156 211.484375 C 221.777344 210.523438 224.800781 209.515625 227.777344 208.222656 C 230.609375 207.023438 233.152344 205.4375 234.925781 202.847656 C 235.980469 201.3125 237.132812 199.824219 238.09375 198.242188 C 239.867188 195.265625 242.171875 192.914062 245.53125 191.765625 C 245.625 191.714844 245.722656 191.667969 245.816406 191.621094 C 247.257812 190.996094 248.410156 189.988281 249.128906 188.597656 C 250.808594 185.335938 252.34375 182.023438 252.101562 178.183594 C 252.007812 176.648438 252.488281 175.257812 253.496094 174.058594 C 253.925781 173.53125 254.308594 172.957031 254.789062 172.476562 C 256.324219 170.84375 256.710938 168.925781 256.46875 166.765625 C 256.324219 164.367188 255.941406 162.015625 256.804688 159.519531 Z M 156.09375 241.617188 C 158.445312 241.519531 160.746094 241.472656 163.097656 241.375 C 168.664062 241.136719 174.230469 240.753906 179.699219 239.550781 C 183.875 238.640625 188 237.679688 192.175781 236.625 C 195.773438 235.761719 199.371094 234.898438 202.921875 233.796875 C 207.578125 232.355469 212.183594 230.773438 216.835938 229.1875 C 220.050781 228.085938 223.316406 227.03125 226.433594 225.6875 C 230.414062 224.007812 234.109375 221.65625 237.515625 219.015625 C 242.792969 214.890625 247.976562 210.570312 252.390625 205.4375 C 254.167969 203.328125 256.230469 201.40625 257.429688 198.863281 C 258.582031 196.464844 259.78125 194.066406 260.691406 191.621094 C 262.273438 187.445312 263.90625 183.269531 264.960938 178.90625 C 266.113281 174.296875 266.882812 169.644531 266.832031 164.847656 C 266.832031 163.503906 267.121094 162.113281 267.265625 160.769531 C 267.3125 160.289062 267.359375 159.808594 267.359375 159.28125 C 267.359375 158.753906 267.074219 158.464844 266.59375 158.464844 C 266.066406 158.464844 265.539062 158.417969 265.011719 158.464844 C 263.667969 158.65625 262.273438 158.847656 260.929688 159.089844 C 260.644531 159.136719 260.261719 159.28125 260.117188 159.472656 C 259.589844 160.335938 259.058594 161.246094 259.109375 162.351562 C 259.203125 163.886719 259.253906 165.421875 259.347656 166.957031 C 259.539062 169.453125 259.011719 171.660156 257.238281 173.53125 C 256.566406 174.25 255.941406 174.96875 255.414062 175.785156 C 255.078125 176.265625 254.839844 176.839844 254.789062 177.417969 C 254.644531 178.570312 254.695312 179.769531 254.597656 180.96875 C 254.308594 183.992188 253.015625 186.726562 251.863281 189.414062 C 250.953125 191.523438 249.367188 193.011719 247.257812 193.972656 C 246.488281 194.308594 245.671875 194.644531 244.953125 195.074219 C 244.1875 195.554688 243.371094 196.082031 242.746094 196.800781 C 241.882812 197.808594 241.210938 198.960938 240.445312 200.0625 C 239.050781 201.984375 237.707031 203.949219 236.269531 205.820312 C 235.164062 207.308594 233.679688 208.363281 232.046875 209.179688 C 228.785156 210.859375 225.328125 212.15625 221.730469 212.828125 C 218.757812 213.402344 216.070312 214.601562 213.574219 216.28125 C 211.078125 217.960938 208.394531 219.351562 205.417969 220.167969 C 203.308594 220.746094 201.195312 221.367188 199.085938 222.039062 C 195.964844 223 192.800781 223.574219 189.535156 223.527344 C 187.761719 223.480469 185.9375 223.621094 184.164062 223.671875 C 181.234375 223.765625 178.453125 224.535156 175.8125 225.878906 C 174.902344 226.359375 173.894531 226.742188 172.886719 227.03125 C 169.574219 228.039062 166.121094 228.46875 162.667969 228.179688 C 158.683594 227.894531 154.703125 227.703125 150.769531 226.933594 C 148.511719 226.453125 146.257812 225.925781 144.003906 225.832031 C 140.644531 225.636719 137.238281 225.734375 133.832031 225.832031 C 128.746094 225.925781 123.707031 225.445312 118.765625 224.488281 C 115.261719 223.816406 112.046875 222.230469 108.832031 220.648438 C 105.570312 219.066406 102.355469 217.289062 98.902344 216.1875 C 97.796875 215.800781 96.691406 215.226562 95.6875 214.652344 C 92.421875 212.78125 89.929688 210.042969 87.480469 207.261719 C 85.179688 204.671875 82.972656 201.984375 80.523438 199.535156 C 78.222656 197.234375 76.347656 194.738281 75.199219 191.667969 C 74.765625 190.46875 74.335938 189.269531 73.804688 188.070312 C 72.414062 184.804688 71.359375 181.449219 71.023438 177.898438 C 70.878906 176.410156 70.734375 174.96875 70.589844 173.484375 C 70.542969 172.8125 69.921875 172.140625 69.390625 172.285156 C 67.761719 172.714844 66.175781 173.195312 64.59375 173.722656 C 64.355469 173.769531 64.113281 174.011719 64.019531 174.25 C 63.585938 175.402344 63.347656 176.554688 63.632812 177.800781 C 63.875 178.953125 64.164062 180.105469 64.355469 181.257812 C 65.265625 187.734375 66.707031 194.113281 69.25 200.160156 C 71.167969 204.765625 73.421875 209.085938 76.878906 212.730469 C 79.757812 215.753906 82.636719 218.824219 85.945312 221.367188 C 92.328125 226.359375 98.996094 230.820312 106.867188 233.265625 C 112.671875 235.089844 118.332031 237.203125 124.332031 238.546875 C 134.695312 240.894531 145.296875 242.046875 156.09375 241.617188 Z M 165.785156 104.726562 C 165.210938 104.726562 164.296875 104.726562 163.339844 104.726562 C 159.691406 104.773438 155.996094 104.773438 152.351562 104.964844 C 149.425781 105.109375 146.546875 105.207031 143.617188 104.917969 C 142.132812 104.773438 140.644531 104.679688 139.15625 104.582031 C 137.957031 104.488281 136.902344 104.773438 135.941406 105.496094 C 135.222656 106.023438 134.503906 106.5 133.78125 106.980469 C 132.535156 107.796875 131.191406 108.132812 129.753906 107.84375 C 128.214844 107.558594 126.679688 107.316406 125.144531 106.980469 C 123.800781 106.695312 122.601562 106.835938 121.453125 107.652344 C 120.78125 108.132812 120.109375 108.613281 119.4375 109.042969 C 118.1875 109.910156 116.941406 110.820312 115.644531 111.539062 C 112.480469 113.21875 109.074219 113.988281 105.472656 113.9375 C 103.265625 113.890625 101.394531 114.609375 99.859375 116.144531 C 98.949219 117.058594 97.941406 117.921875 97.027344 118.832031 C 94.199219 121.761719 90.695312 123.152344 86.664062 123.152344 C 85.082031 123.152344 84.027344 123.679688 83.308594 125.167969 C 82.347656 127.132812 81.097656 128.910156 79.515625 130.492188 C 77.644531 132.363281 75.582031 132.9375 73.085938 131.933594 C 71.550781 131.308594 69.96875 130.875 68.433594 130.300781 C 66.035156 129.390625 63.828125 129.582031 61.761719 131.164062 C 60.371094 132.21875 59.078125 133.371094 58.019531 134.761719 C 57.445312 135.480469 56.871094 136.203125 56.292969 136.921875 C 55.429688 137.929688 54.375 138.410156 53.078125 138.554688 C 51.878906 138.695312 50.777344 138.3125 49.671875 138.023438 C 45.257812 136.921875 41.851562 137.738281 39.453125 141.71875 C 38.828125 142.824219 38.203125 143.925781 37.726562 145.078125 C 37.054688 146.613281 36.046875 147.765625 34.367188 148.195312 C 34.078125 148.246094 33.839844 148.292969 33.597656 148.390625 C 33.453125 148.292969 33.453125 148.339844 33.453125 148.339844 C 33.503906 150.789062 33.933594 153.1875 34.558594 155.539062 C 34.605469 155.683594 34.75 155.824219 34.894531 155.824219 C 35.804688 155.921875 36.621094 155.824219 37.195312 155.058594 C 37.675781 154.339844 38.109375 153.617188 38.492188 152.851562 C 38.925781 151.941406 39.261719 150.980469 39.691406 150.070312 C 40.410156 148.4375 41.226562 146.855469 42.425781 145.511719 C 43.769531 144.023438 45.449219 143.589844 47.367188 143.976562 C 47.992188 144.117188 48.617188 144.261719 49.191406 144.550781 C 51.253906 145.460938 53.414062 145.847656 55.667969 146.132812 C 57.683594 146.421875 59.507812 146.039062 61.234375 145.078125 C 62.675781 144.3125 63.875 143.253906 65.027344 142.105469 C 66.753906 140.425781 68.433594 138.648438 70.304688 137.160156 C 72.269531 135.578125 74.621094 135.289062 77.070312 136.105469 C 78.222656 136.488281 79.324219 136.875 80.476562 137.257812 C 84.601562 138.695312 88.394531 137.976562 91.800781 135.339844 C 93.09375 134.332031 94.292969 133.179688 95.398438 131.980469 C 96.550781 130.78125 97.507812 129.390625 98.613281 128.140625 C 99.523438 127.085938 100.4375 126.03125 101.394531 125.023438 C 103.890625 122.480469 106.914062 121.28125 110.511719 121.566406 C 112.429688 121.710938 114.398438 122 116.222656 121.089844 C 117.46875 120.464844 118.667969 119.695312 119.773438 118.832031 C 121.546875 117.488281 123.226562 115.953125 125.003906 114.5625 C 127.304688 112.835938 129.800781 111.828125 132.773438 112.257812 C 136.179688 112.738281 139.394531 112.066406 142.371094 110.386719 C 142.753906 110.195312 143.140625 110.003906 143.523438 109.8125 C 146.59375 108.179688 149.808594 107.316406 153.261719 107.414062 C 153.933594 107.414062 154.652344 107.367188 155.324219 107.222656 C 158.972656 106.40625 162.570312 105.496094 165.785156 104.726562 Z M 42.1875 175.210938 C 43.386719 177.082031 44.585938 178.953125 45.785156 180.824219 C 46.984375 179.671875 48.328125 179.050781 49.863281 179 C 51.542969 178.90625 53.175781 179.289062 54.804688 179.769531 C 56.003906 180.105469 57.253906 180.34375 58.5 180.632812 C 59.027344 180.777344 59.507812 180.632812 59.84375 180.152344 C 60.132812 179.769531 60.46875 179.382812 60.851562 179.191406 C 61.234375 178.953125 61.285156 178.761719 61.1875 178.378906 C 60.707031 176.3125 61.089844 174.394531 61.90625 172.476562 C 62.148438 171.898438 62.578125 171.46875 63.15625 171.277344 C 65.121094 170.699219 67.042969 170.078125 69.007812 169.546875 C 70.304688 169.210938 71.214844 169.742188 71.792969 170.941406 C 71.839844 171.035156 71.886719 171.085938 71.933594 171.132812 C 72.511719 170.988281 73.085938 170.796875 73.613281 170.699219 C 76.492188 170.125 79.421875 169.644531 82.347656 169.070312 C 82.683594 169.019531 83.019531 168.828125 83.308594 168.636719 C 85.179688 167.199219 86.953125 165.664062 88.824219 164.222656 C 90.457031 162.976562 92.277344 162.6875 94.246094 163.214844 C 95.78125 163.597656 97.316406 163.886719 98.851562 163.886719 C 101.109375 163.886719 102.980469 163.121094 104.515625 161.441406 C 105.1875 160.671875 105.859375 159.953125 106.625 159.28125 C 109.121094 156.976562 111.953125 155.730469 115.40625 156.257812 C 116.507812 156.449219 117.515625 156.257812 118.476562 155.585938 C 119.628906 154.820312 120.78125 154.050781 121.882812 153.28125 C 124.28125 151.652344 126.824219 150.933594 129.800781 151.460938 C 132.535156 151.941406 135.125 151.269531 137.621094 150.261719 C 139.492188 149.492188 140.789062 148.101562 141.507812 146.183594 C 142.371094 143.878906 143.425781 141.769531 144.867188 139.753906 C 146.59375 137.355469 148.800781 135.816406 151.824219 135.578125 C 154.988281 135.289062 157.390625 133.5625 159.261719 131.164062 C 159.691406 130.589844 160.125 129.964844 160.554688 129.390625 C 162.523438 126.558594 164.96875 124.207031 168.136719 122.71875 C 168.855469 122.382812 169.527344 121.808594 170.054688 121.230469 C 171.542969 119.601562 172.886719 117.921875 174.328125 116.242188 C 174.519531 116.003906 174.757812 115.761719 174.949219 115.523438 C 173.367188 116.003906 171.832031 116.480469 170.34375 116.960938 C 169.625 117.203125 168.90625 117.441406 168.328125 117.875 C 163.386719 121.472656 158.492188 125.117188 153.597656 128.765625 C 151.582031 130.253906 149.425781 131.546875 147.023438 132.363281 C 143.761719 133.46875 140.453125 134.1875 137.046875 134.714844 C 134.40625 135.097656 131.910156 135.960938 130.183594 138.121094 C 129.222656 139.273438 128.503906 140.617188 127.785156 141.960938 C 126.058594 145.222656 123.417969 147.332031 119.914062 148.4375 C 117.324219 149.253906 114.6875 149.398438 112.046875 149.347656 C 109.9375 149.347656 108.160156 149.972656 106.625 151.460938 C 106.144531 151.890625 105.714844 152.371094 105.234375 152.804688 C 104.273438 153.714844 103.363281 154.675781 102.308594 155.539062 C 100.914062 156.691406 99.234375 157.21875 97.414062 156.976562 C 96.117188 156.832031 94.820312 156.640625 93.527344 156.496094 C 90.457031 156.210938 87.816406 157.027344 85.800781 159.472656 C 85.371094 160 84.84375 160.527344 84.363281 161.007812 C 83.257812 162.207031 81.867188 162.785156 80.234375 162.785156 C 76.734375 162.832031 73.230469 162.878906 69.679688 162.976562 C 69.296875 162.976562 68.863281 162.976562 68.480469 162.976562 C 67.761719 162.976562 67.183594 163.261719 66.707031 163.839844 C 65.074219 165.566406 63.441406 167.339844 61.8125 169.070312 C 60.660156 170.316406 59.554688 171.613281 58.019531 172.425781 C 57.207031 172.859375 56.390625 173.050781 55.527344 172.761719 C 54.757812 172.523438 53.992188 172.234375 53.269531 171.898438 C 52.648438 171.613281 52.023438 171.179688 51.398438 170.84375 C 50.246094 170.21875 49.097656 170.21875 47.847656 170.75 C 45.546875 171.753906 44.011719 173.628906 42.1875 175.210938 Z M 171.253906 92.730469 C 169.960938 91.242188 168.664062 90.09375 167.03125 89.371094 C 165.066406 88.460938 163.148438 87.40625 161.179688 86.445312 C 160.269531 86.015625 159.308594 85.679688 158.347656 85.292969 C 157.054688 84.816406 155.804688 84.285156 154.511719 83.855469 C 152.015625 82.992188 149.617188 81.886719 146.976562 81.359375 C 143.1875 80.640625 139.445312 79.777344 135.652344 79.007812 C 133.734375 78.625 131.816406 78.144531 129.800781 78.671875 C 128.886719 78.914062 127.929688 79.058594 126.96875 79.25 C 124.761719 79.679688 122.792969 79.535156 121.308594 77.519531 C 120.109375 75.84375 118.523438 75.410156 116.558594 76.128906 C 115.023438 76.707031 113.488281 77.136719 111.902344 77.617188 C 109.839844 78.242188 107.96875 78.144531 106.289062 76.515625 C 104.851562 75.171875 103.027344 75.171875 101.25 75.746094 C 99.859375 76.179688 98.421875 76.65625 97.125 77.28125 C 92.664062 79.34375 88.34375 81.792969 84.21875 84.429688 C 82.25 85.679688 80.332031 87.023438 78.027344 87.644531 C 76.445312 88.078125 74.910156 88.171875 73.375 87.40625 C 72.414062 86.878906 71.40625 86.492188 70.449219 85.917969 C 68.671875 84.863281 66.847656 84.671875 64.976562 85.582031 C 62.769531 86.6875 60.5625 87.789062 58.40625 88.894531 C 58.261719 88.941406 58.164062 89.085938 58.070312 89.179688 C 52.648438 94.074219 47.945312 99.640625 43.820312 105.6875 C 43.675781 105.878906 43.578125 106.070312 43.484375 106.261719 C 43.820312 106.164062 44.011719 105.972656 44.25 105.832031 C 46.503906 104.054688 48.710938 102.28125 50.96875 100.550781 C 53.605469 98.679688 56.339844 96.714844 59.363281 95.226562 C 59.890625 94.988281 60.46875 94.699219 60.996094 94.699219 C 62.484375 94.746094 63.828125 94.410156 65.21875 94.074219 C 66.847656 93.644531 68.144531 94.21875 68.960938 95.609375 C 69.488281 96.523438 69.777344 97.578125 70.113281 98.585938 C 70.398438 99.351562 70.496094 99.496094 71.214844 99.113281 C 72.414062 98.488281 73.613281 97.769531 74.8125 97.144531 C 76.0625 96.472656 77.355469 95.707031 78.699219 95.324219 C 80.09375 94.890625 81.292969 94.21875 82.441406 93.402344 C 83.5 92.683594 84.507812 91.964844 85.515625 91.195312 C 89.160156 88.460938 93 86.0625 97.027344 83.949219 C 101.25 81.742188 105.617188 80.929688 110.320312 81.984375 C 111.230469 82.175781 112 82.558594 112.71875 83.183594 C 113.824219 84.09375 115.023438 84.71875 116.460938 84.910156 C 118.09375 85.152344 119.722656 84.910156 121.257812 84.429688 C 122.507812 84.046875 123.753906 83.566406 125.050781 83.136719 C 126.730469 82.558594 128.3125 82.65625 129.894531 83.710938 C 131.574219 84.863281 133.496094 85.246094 135.558594 84.816406 C 136.421875 84.671875 137.238281 84.574219 138.101562 84.382812 C 141.988281 83.664062 145.777344 83.613281 149.472656 85.246094 C 150.769531 85.820312 152.160156 86.0625 153.597656 86.109375 C 156.382812 86.253906 158.925781 86.925781 161.035156 88.988281 C 161.753906 89.707031 162.90625 90.09375 163.914062 90.476562 C 165.257812 91.003906 166.699219 91.339844 168.089844 91.773438 C 169.097656 92.058594 170.105469 92.394531 171.253906 92.730469 Z M 191.839844 125.980469 C 191.886719 126.269531 191.886719 126.367188 191.886719 126.460938 C 192.320312 128.382812 192.75 130.347656 193.183594 132.265625 C 193.664062 134.425781 193.328125 136.488281 192.414062 138.503906 C 191.503906 140.425781 190.6875 142.34375 189.96875 144.3125 C 189.585938 145.269531 189.390625 146.324219 189.199219 147.332031 C 189.054688 148.148438 189.296875 148.773438 189.921875 149.398438 C 190.449219 149.875 190.878906 150.546875 191.167969 151.21875 C 191.695312 152.613281 191.40625 153.953125 190.785156 155.25 C 189.921875 157.027344 188.527344 158.417969 187.28125 159.90625 C 186.65625 160.671875 186.128906 161.535156 185.601562 162.398438 C 185.503906 162.589844 185.457031 162.832031 185.363281 163.121094 C 188.863281 162.925781 192.222656 162.734375 195.628906 162.542969 C 195.628906 162.351562 195.679688 162.207031 195.679688 162.0625 C 195.679688 160.625 196.109375 159.328125 196.972656 158.175781 C 197.550781 157.410156 198.125 156.640625 198.75 155.921875 C 199.421875 155.15625 199.660156 154.289062 199.613281 153.332031 C 199.5625 151.652344 199.085938 150.070312 198.078125 148.726562 C 196.972656 147.285156 196.878906 145.796875 197.550781 144.214844 C 197.742188 143.78125 197.886719 143.351562 197.980469 142.96875 C 198.554688 141.191406 199.179688 139.417969 199.613281 137.640625 C 200.1875 135.433594 199.804688 133.324219 198.171875 131.691406 C 196.207031 129.628906 194.046875 127.902344 191.839844 125.980469 Z M 145.105469 165.757812 C 145.394531 165.757812 145.539062 165.804688 145.632812 165.804688 C 150.097656 165.46875 154.511719 165.085938 158.972656 164.703125 C 159.164062 164.703125 159.355469 164.511719 159.453125 164.367188 C 160.460938 162.496094 161.804688 160.863281 163.242188 159.375 C 164.441406 158.128906 164.585938 156.929688 163.769531 155.394531 C 162.953125 153.90625 162.859375 152.371094 163.433594 150.789062 C 163.722656 149.972656 164.203125 149.15625 164.777344 148.484375 C 166.3125 146.757812 167.945312 145.078125 169.574219 143.398438 C 170.582031 142.34375 171.734375 141.382812 172.550781 140.230469 C 174.566406 137.355469 176.4375 134.378906 177.78125 131.117188 C 178.453125 129.4375 179.027344 127.710938 179.652344 126.03125 C 179.605469 125.980469 179.507812 125.980469 179.460938 125.933594 C 178.789062 127.375 178.117188 128.8125 177.445312 130.300781 C 176.148438 133.273438 174.375 135.960938 171.785156 137.976562 C 170.296875 139.128906 168.617188 140.089844 166.9375 141 C 164.25 142.535156 162.042969 144.503906 161.277344 147.574219 C 160.605469 150.261719 159.070312 152.277344 156.910156 153.859375 C 155.183594 155.15625 153.453125 156.355469 151.679688 157.601562 C 150.433594 158.511719 149.136719 159.375 148.367188 160.769531 C 147.503906 162.542969 146.882812 164.414062 145.105469 165.757812 Z M 68.863281 205.726562 C 65.265625 198.050781 63.011719 189.988281 61.90625 181.449219 C 61.667969 181.640625 61.523438 181.734375 61.476562 181.832031 C 60.613281 183.367188 59.171875 183.703125 57.589844 183.414062 C 56.292969 183.175781 54.996094 182.839844 53.75 182.503906 C 52.40625 182.121094 51.113281 181.785156 49.71875 181.925781 C 48.808594 182.023438 48.039062 182.359375 47.511719 182.933594 C 52.597656 192.484375 59.84375 199.96875 68.863281 205.726562 Z M 155.183594 61.398438 C 155.183594 61.449219 155.132812 61.496094 155.132812 61.59375 C 155.855469 61.976562 156.523438 62.40625 157.246094 62.742188 C 159.355469 63.800781 161.179688 65.140625 162.667969 66.964844 C 164.296875 68.980469 166.167969 70.804688 168.136719 72.484375 C 168.808594 73.058594 169.433594 73.777344 169.816406 74.546875 C 170.441406 75.792969 171.351562 76.515625 172.742188 76.753906 C 175.527344 77.28125 177.109375 79.058594 177.875 81.648438 C 178.164062 82.558594 178.40625 83.519531 178.644531 84.429688 C 178.835938 85.199219 179.21875 85.773438 179.988281 86.109375 C 182.339844 87.164062 183.730469 88.941406 184.164062 91.484375 C 184.304688 92.347656 184.640625 93.210938 184.882812 94.027344 C 184.976562 92.875 185.074219 91.773438 185.171875 90.667969 C 185.265625 89.613281 185.410156 88.507812 185.363281 87.453125 C 185.3125 85.871094 184.882812 84.429688 183.441406 83.472656 C 181.570312 82.222656 180.660156 80.398438 180.613281 78.144531 C 180.613281 77.425781 180.371094 76.945312 179.796875 76.609375 C 178.117188 75.507812 176.484375 74.355469 174.757812 73.25 C 173.414062 72.433594 172.695312 71.285156 172.648438 69.75 C 172.648438 69.414062 172.648438 69.078125 172.597656 68.742188 C 172.550781 67.300781 171.351562 65.71875 169.960938 65.285156 C 167.226562 64.46875 164.441406 63.65625 161.707031 62.886719 C 159.644531 62.359375 157.390625 61.925781 155.183594 61.398438 Z M 215.398438 129.246094 C 215.445312 129.003906 215.542969 128.910156 215.492188 128.8125 C 215.109375 124.6875 214.773438 120.511719 214.390625 116.386719 C 214.390625 116.195312 214.199219 115.953125 214.007812 115.859375 C 212.855469 115.332031 211.65625 114.898438 210.457031 114.371094 C 209.113281 113.746094 207.722656 113.652344 206.234375 113.890625 C 204.9375 114.082031 203.640625 114.226562 202.347656 114.417969 C 202.15625 114.464844 201.914062 114.464844 201.722656 114.464844 C 202.347656 114.753906 202.972656 114.945312 203.640625 115.136719 C 206.328125 115.808594 207.914062 117.585938 208.679688 120.128906 C 208.96875 121.089844 209.160156 122.046875 209.304688 123.007812 C 209.449219 124.015625 209.929688 124.636719 210.9375 124.925781 C 213.046875 125.550781 214.679688 126.847656 215.398438 129.246094 Z M 200.667969 88.988281 C 200.570312 89.035156 200.476562 89.035156 200.378906 89.085938 C 199.898438 92.875 198.460938 96.234375 196.300781 99.496094 C 197.453125 99.160156 198.460938 98.871094 199.515625 98.585938 C 201.050781 98.152344 202.441406 98.296875 203.59375 99.542969 C 203.738281 99.6875 203.882812 99.832031 204.074219 99.878906 C 204.265625 99.929688 204.554688 99.976562 204.699219 99.878906 C 205.515625 99.304688 206.28125 98.632812 207.144531 97.960938 C 204.9375 94.9375 202.777344 91.964844 200.667969 88.988281 Z M 174.566406 105.0625 C 174.566406 105.015625 174.566406 104.917969 174.566406 104.871094 C 173.511719 104.824219 172.503906 104.726562 171.449219 104.679688 C 171.449219 104.726562 171.449219 104.773438 171.449219 104.871094 C 172.453125 104.917969 173.511719 105.015625 174.566406 105.0625 Z M 174.566406 105.0625 " fill-opacity="1" fill-rule="nonzero"/></g><path fill="currentColor" d="M 103.074219 180.34375 C 102.980469 182.984375 102.308594 185.285156 101.011719 187.347656 C 100.628906 187.972656 100.003906 188.550781 99.332031 188.886719 C 98.179688 189.460938 96.835938 189.125 96.023438 188.214844 C 95.015625 187.109375 94.679688 185.476562 95.253906 184.328125 C 95.351562 184.136719 95.398438 183.894531 95.445312 183.65625 C 95.828125 181.449219 96.644531 179.527344 98.613281 178.328125 C 99.234375 177.945312 100.003906 177.753906 100.722656 177.5625 C 101.777344 177.320312 102.546875 177.847656 102.835938 178.90625 C 102.980469 179.433594 103.027344 180.007812 103.074219 180.34375 Z M 100.867188 179.671875 C 100.53125 179.71875 100.386719 179.769531 100.292969 179.816406 C 98.132812 180.535156 96.597656 183.894531 97.558594 185.957031 C 97.652344 186.199219 97.988281 186.582031 98.179688 186.582031 C 98.46875 186.582031 98.949219 186.34375 99.042969 186.101562 C 99.621094 184.804688 100.195312 183.464844 100.578125 182.121094 C 100.820312 181.398438 100.773438 180.585938 100.867188 179.671875 Z M 100.867188 179.671875 " fill-opacity="1" fill-rule="nonzero"/><path fill="currentColor" d="M 167.273438 195.171875 C 167.082031 195.890625 166.792969 197.234375 166.3125 198.433594 C 165.738281 199.871094 164.441406 200.304688 163.003906 199.730469 C 161.417969 199.105469 160.746094 197.761719 160.507812 196.179688 C 160.269531 194.210938 160.746094 192.339844 161.371094 190.515625 C 161.5625 189.941406 161.804688 189.414062 161.660156 188.742188 C 161.515625 187.925781 162.378906 187.398438 163.242188 187.734375 C 164.347656 188.164062 165.210938 188.980469 165.832031 189.988281 C 166.792969 191.378906 167.175781 192.914062 167.273438 195.171875 Z M 163.195312 190.660156 C 162.714844 192.484375 162.332031 194.113281 162.570312 195.84375 C 162.667969 196.5625 162.90625 197.234375 163.578125 197.617188 C 163.914062 197.808594 164.15625 197.808594 164.347656 197.378906 C 165.113281 195.3125 165.113281 193.347656 163.914062 191.476562 C 163.722656 191.285156 163.53125 191.042969 163.195312 190.660156 Z M 163.195312 190.660156 " fill-opacity="1" fill-rule="nonzero"/><path fill="currentColor" d="M 113.582031 186.4375 C 113.292969 188.164062 113.007812 189.890625 112.671875 191.621094 C 112.574219 192.101562 112.335938 192.53125 112.09375 192.964844 C 110.894531 195.027344 108.257812 195.171875 106.867188 193.25 C 106.097656 192.242188 105.953125 191.042969 106.097656 189.84375 C 106.386719 187.347656 107.777344 185.574219 109.601562 183.992188 C 109.886719 183.75 110.222656 183.511719 110.511719 183.320312 C 110.894531 183.078125 111.328125 182.984375 111.664062 183.367188 C 111.710938 183.414062 111.808594 183.511719 111.855469 183.511719 C 113.054688 183.558594 113.246094 184.421875 113.390625 185.335938 C 113.4375 185.71875 113.4375 186.101562 113.488281 186.484375 C 113.535156 186.4375 113.582031 186.4375 113.582031 186.4375 Z M 110.847656 185.140625 C 109.695312 186.390625 108.59375 187.683594 108.304688 189.414062 C 108.207031 190.035156 108.160156 190.707031 108.257812 191.332031 C 108.351562 191.859375 108.640625 192.386719 109.265625 192.433594 C 109.886719 192.484375 110.128906 192.003906 110.273438 191.523438 C 110.945312 189.460938 111.183594 187.347656 110.847656 185.140625 Z M 110.847656 185.140625 " fill-opacity="1" fill-rule="nonzero"/><path fill="currentColor" d="M 151.246094 193.777344 C 151.105469 196.226562 150.671875 198.242188 149.183594 199.871094 C 148.894531 200.207031 148.5625 200.542969 148.175781 200.785156 C 146.738281 201.742188 145.152344 201.167969 144.675781 199.535156 C 144.53125 199.058594 144.386719 198.527344 144.480469 198 C 144.675781 196.320312 144.960938 194.644531 145.203125 192.914062 C 145.296875 192.339844 145.347656 191.8125 145.394531 191.234375 C 145.394531 190.5625 145.824219 189.988281 146.640625 189.75 C 148.367188 189.222656 150.480469 190.421875 151.054688 192.292969 C 151.152344 192.914062 151.199219 193.492188 151.246094 193.777344 Z M 146.640625 199.058594 C 146.832031 198.960938 146.882812 198.960938 146.929688 198.960938 C 146.976562 198.914062 147.074219 198.863281 147.121094 198.816406 C 148.464844 197.28125 148.847656 195.457031 148.609375 193.492188 C 148.511719 192.722656 147.9375 192.386719 147.023438 192.339844 C 146.59375 194.546875 146.210938 196.753906 146.640625 199.058594 Z M 146.640625 199.058594 " fill-opacity="1" fill-rule="nonzero"/><path fill="currentColor" d="M 142.371094 191.90625 C 142.082031 193.058594 141.890625 194.257812 141.507812 195.363281 C 141.074219 196.515625 140.261719 197.378906 138.917969 197.425781 C 137.8125 197.472656 136.613281 196.515625 136.132812 195.265625 C 135.558594 193.730469 135.703125 192.195312 136.039062 190.660156 C 136.179688 190.132812 136.375 189.652344 136.46875 189.125 C 136.515625 188.886719 136.515625 188.644531 136.421875 188.40625 C 135.941406 187.253906 136.613281 186.148438 137.859375 186.101562 C 138.773438 186.054688 139.539062 186.4375 140.164062 187.0625 C 141.601562 188.355469 142.132812 190.035156 142.132812 191.90625 C 142.273438 191.859375 142.324219 191.90625 142.371094 191.90625 Z M 138.386719 189.027344 C 137.957031 190.46875 137.667969 191.859375 137.8125 193.300781 C 137.859375 193.730469 137.957031 194.164062 138.148438 194.546875 C 138.246094 194.785156 138.53125 194.929688 138.773438 195.121094 C 138.964844 194.929688 139.203125 194.738281 139.300781 194.5 C 139.730469 193.300781 139.875 192.101562 139.589844 190.851562 C 139.394531 190.132812 139.058594 189.507812 138.386719 189.027344 Z M 138.386719 189.027344 " fill-opacity="1" fill-rule="nonzero"/><path fill="currentColor" d="M 127.113281 189.796875 C 127.015625 192.101562 126.488281 194.164062 124.523438 195.601562 C 123.371094 196.464844 122.074219 196.707031 120.78125 195.9375 C 119.4375 195.171875 118.859375 193.921875 119.050781 192.433594 C 119.339844 190.179688 120.300781 188.164062 121.789062 186.4375 C 122.027344 186.199219 122.410156 186.101562 122.746094 185.910156 C 122.890625 185.863281 122.988281 185.765625 123.082031 185.671875 C 123.660156 185.046875 124.234375 184.902344 124.953125 185.335938 C 126.152344 186.007812 126.730469 187.15625 126.96875 188.453125 C 127.066406 188.980469 127.066406 189.414062 127.113281 189.796875 Z M 123.082031 187.011719 C 122.125 188.550781 121.402344 190.132812 121.066406 191.859375 C 121.019531 192.195312 120.972656 192.53125 120.972656 192.867188 C 120.972656 193.492188 121.257812 193.921875 121.835938 194.164062 C 122.363281 194.402344 122.792969 194.164062 123.179688 193.875 C 123.417969 193.683594 123.660156 193.441406 123.851562 193.203125 C 125.195312 191.285156 124.90625 188.644531 123.082031 187.011719 Z M 123.082031 187.011719 " fill-opacity="1" fill-rule="nonzero"/><path fill="currentColor" d="M 171.253906 191.957031 C 171.351562 191.1875 171.542969 190.179688 171.640625 189.171875 C 171.6875 188.644531 171.785156 188.117188 171.785156 187.589844 C 171.785156 186.917969 172.359375 186.390625 173.078125 186.535156 C 173.65625 186.628906 174.230469 186.871094 174.710938 187.15625 C 176.871094 188.644531 178.355469 192.914062 177.636719 195.410156 C 177.253906 196.65625 176.628906 197.714844 175.238281 197.855469 C 173.894531 198 172.886719 197.28125 172.214844 196.179688 C 171.449219 194.976562 171.351562 193.636719 171.253906 191.957031 Z M 173.269531 189.171875 C 173.222656 189.941406 173.175781 190.5625 173.125 191.140625 C 173.078125 192.339844 173.175781 193.492188 173.65625 194.59375 C 173.894531 195.121094 174.230469 195.746094 174.855469 195.648438 C 175.476562 195.554688 175.527344 194.785156 175.527344 194.257812 C 175.527344 192.433594 174.855469 190.851562 173.65625 189.460938 C 173.605469 189.414062 173.511719 189.316406 173.269531 189.171875 Z M 173.269531 189.171875 " fill-opacity="1" fill-rule="nonzero"/><path fill="currentColor" d="M 207 188.691406 C 205.128906 188.691406 203.308594 187.492188 202.730469 185.621094 C 202.300781 184.183594 202.203125 182.648438 201.914062 181.160156 C 201.867188 180.96875 201.914062 180.777344 201.867188 180.585938 C 201.722656 179.671875 202.105469 179.144531 203.066406 179.097656 C 204.171875 179.097656 205.128906 179.480469 206.042969 180.054688 C 207.960938 181.207031 209.113281 182.933594 209.734375 185.046875 C 210.265625 186.917969 208.871094 188.691406 207 188.691406 Z M 203.355469 181.640625 C 203.640625 183.078125 203.835938 184.421875 204.648438 185.574219 C 205.082031 186.199219 205.753906 186.535156 206.472656 186.628906 C 207.242188 186.773438 207.722656 186.292969 207.480469 185.574219 C 206.761719 183.703125 205.515625 182.261719 203.355469 181.640625 Z M 203.355469 181.640625 " fill-opacity="1" fill-rule="nonzero"/><path fill="currentColor" d="M 183.921875 186.34375 C 184.164062 185.382812 184.402344 184.375 184.738281 183.414062 C 184.929688 182.839844 185.457031 182.695312 185.984375 182.839844 C 186.320312 182.933594 186.65625 183.03125 186.898438 183.269531 C 188.863281 184.949219 190.449219 186.871094 190.785156 189.554688 C 190.832031 189.988281 190.832031 190.421875 190.785156 190.851562 C 190.542969 192.53125 189.25 193.347656 187.570312 192.820312 C 186.417969 192.433594 185.601562 191.765625 185.027344 190.660156 C 184.355469 189.316406 184.066406 187.925781 184.019531 186.4375 C 184.066406 186.390625 183.96875 186.34375 183.921875 186.34375 Z M 185.746094 185.382812 C 185.746094 187.0625 186.035156 188.691406 186.992188 190.132812 C 187.089844 190.277344 187.234375 190.46875 187.425781 190.515625 C 187.761719 190.660156 188.144531 190.757812 188.480469 190.851562 C 188.527344 190.515625 188.625 190.132812 188.625 189.796875 C 188.382812 187.828125 187.089844 186.582031 185.746094 185.382812 Z M 185.746094 185.382812 " fill-opacity="1" fill-rule="nonzero"/><path fill="currentColor" d="M 192.128906 183.65625 C 192.03125 182.933594 191.886719 182.214844 191.886719 181.496094 C 191.886719 181.207031 192.175781 180.824219 192.414062 180.585938 C 192.605469 180.441406 192.941406 180.441406 193.230469 180.488281 C 195.535156 181.113281 197.5 182.3125 198.75 184.375 C 199.5625 185.71875 199.46875 187.253906 198.554688 188.40625 C 198.027344 189.078125 197.355469 189.363281 196.542969 189.222656 C 193.804688 188.742188 191.984375 186.535156 192.128906 183.65625 Z M 193.757812 183.128906 C 193.710938 183.175781 193.664062 183.269531 193.566406 183.320312 C 193.757812 184.804688 194.191406 186.148438 195.726562 186.820312 C 196.011719 186.964844 196.445312 186.917969 196.78125 186.964844 C 196.78125 186.535156 196.78125 186.054688 196.734375 185.621094 C 196.683594 185.429688 196.542969 185.238281 196.347656 185.09375 C 195.535156 184.421875 194.671875 183.800781 193.757812 183.128906 Z M 193.757812 183.128906 " fill-opacity="1" fill-rule="nonzero"/><path fill="currentColor" d="M 223.988281 178.136719 C 221.445312 178.042969 219.429688 176.027344 219.1875 173.386719 C 219.1875 173.148438 219.09375 172.859375 218.949219 172.714844 C 218.324219 172.089844 218.371094 171.371094 219.140625 170.890625 C 219.476562 170.699219 219.859375 170.554688 220.242188 170.554688 C 222.59375 170.269531 225.953125 172.476562 226.625 174.777344 C 227.152344 176.699219 226 178.234375 223.988281 178.136719 Z M 220.628906 173.050781 C 221.109375 174.347656 221.636719 175.402344 222.835938 175.835938 C 223.265625 175.976562 223.84375 175.882812 224.324219 175.882812 C 224.082031 175.402344 223.988281 174.777344 223.652344 174.441406 C 222.882812 173.675781 221.828125 173.386719 220.628906 173.050781 Z M 220.628906 173.050781 " fill-opacity="1" fill-rule="nonzero"/><path fill="currentColor" d="M 220.148438 181.542969 C 220.101562 181.878906 220.101562 182.261719 220.003906 182.597656 C 219.523438 184.613281 217.652344 185.429688 215.878906 184.328125 C 213.765625 182.984375 212.757812 181.0625 212.808594 178.570312 C 212.855469 176.265625 213.957031 176.21875 215.445312 176.410156 C 218.132812 176.792969 220.101562 179 220.148438 181.542969 Z M 214.101562 178.90625 C 214.390625 180.632812 215.15625 181.925781 216.597656 182.839844 C 217.222656 183.222656 217.652344 183.128906 217.84375 182.550781 C 218.132812 181.832031 217.84375 180.535156 217.269531 179.960938 C 216.359375 179.144531 215.300781 178.953125 214.101562 178.90625 Z M 214.101562 178.90625 " fill-opacity="1" fill-rule="nonzero"/></svg>