<svg xmlns="http://www.w3.org/2000/svg" xmlns:xlink="http://www.w3.org/1999/xlink" width="400" zoomAndPan="magnify" viewBox="0 0 300 299.999988" height="400" preserveAspectRatio="xMidYMid meet" version="1.0"><defs><clipPath id="7fb70a62ea"><path d="M 30 65 L 270 65 L 270 241.898438 L 30 241.898438 Z M 30 65 " clip-rule="nonzero"/></clipPath></defs><g clip-path="url(#7fb70a62ea)"><path fill="#a9a0f0" d="M 269.65625 93.519531 C 269.367188 83.789062 266.480469 76.445312 261.074219 71.691406 C 245.652344 58.125 215.34375 70.8125 208.144531 74.128906 C 200.941406 70.8125 170.632812 58.125 155.210938 71.691406 C 153.078125 73.566406 151.34375 75.855469 150 78.523438 C 148.65625 75.855469 146.921875 73.566406 144.789062 71.691406 C 129.367188 58.125 99.058594 70.8125 91.855469 74.128906 C 84.65625 70.8125 54.347656 58.128906 38.925781 71.691406 C 33.519531 76.445312 30.632812 83.789062 30.34375 93.519531 C 30.027344 104.035156 32.769531 117.722656 38.492188 134.191406 C 42.441406 145.554688 44.027344 155.976562 43.628906 167.980469 C 43.238281 179.804688 43.191406 196.933594 45.195312 211.386719 C 47.695312 229.4375 52.757812 239.328125 60.671875 241.617188 C 60.980469 241.707031 61.296875 241.75 61.617188 241.75 C 61.90625 241.75 62.195312 241.714844 62.476562 241.640625 C 62.960938 241.511719 67.300781 240.230469 71.238281 234.386719 C 76.070312 227.207031 78.273438 216.398438 77.785156 202.265625 C 77.390625 190.855469 79.566406 182.289062 84.078125 177.496094 C 87.589844 173.769531 91.390625 173.472656 91.855469 173.453125 C 92.324219 173.472656 96.125 173.769531 99.636719 177.496094 C 104.144531 182.289062 106.324219 190.855469 105.929688 202.265625 C 105.441406 216.398438 107.644531 227.207031 112.476562 234.386719 C 116.410156 240.230469 120.753906 241.511719 121.234375 241.640625 C 121.828125 241.796875 122.453125 241.789062 123.042969 241.617188 C 135.847656 237.910156 141.582031 213.136719 140.085938 167.980469 C 139.6875 155.976562 141.273438 145.554688 145.222656 134.191406 C 147.160156 128.613281 148.75 123.359375 150 118.433594 C 151.253906 123.359375 152.839844 128.613281 154.78125 134.191406 C 158.726562 145.554688 160.3125 155.976562 159.914062 167.980469 C 159.523438 179.804688 159.476562 196.933594 161.480469 211.386719 C 163.980469 229.4375 169.046875 239.328125 176.960938 241.617188 C 177.546875 241.789062 178.171875 241.796875 178.765625 241.640625 C 179.246094 241.511719 183.589844 240.230469 187.523438 234.386719 C 192.355469 227.207031 194.558594 216.398438 194.070312 202.265625 C 193.679688 190.855469 195.855469 182.289062 200.367188 177.496094 C 203.875 173.769531 207.675781 173.472656 208.144531 173.453125 C 208.609375 173.472656 212.410156 173.769531 215.921875 177.496094 C 220.433594 182.289062 222.609375 190.855469 222.214844 202.265625 C 221.730469 216.398438 223.929688 227.207031 228.761719 234.386719 C 232.699219 240.230469 237.039062 241.511719 237.523438 241.640625 C 237.804688 241.714844 238.09375 241.75 238.382812 241.75 C 238.703125 241.75 239.019531 241.707031 239.328125 241.617188 C 252.132812 237.910156 257.867188 213.136719 256.371094 167.980469 C 255.976562 155.976562 257.558594 145.554688 261.507812 134.191406 C 267.230469 117.722656 269.972656 104.035156 269.65625 93.519531 Z M 133.304688 168.203125 C 134.535156 205.359375 130.296875 230.464844 122.199219 234.679688 C 119.589844 233.113281 111.882812 226.433594 112.707031 202.5 C 113.179688 188.894531 110.375 178.847656 104.378906 172.640625 C 98.671875 166.734375 92.132812 166.664062 91.855469 166.664062 C 91.582031 166.664062 85.042969 166.734375 79.335938 172.640625 C 73.339844 178.847656 70.535156 188.894531 71.003906 202.5 C 71.832031 226.433594 64.125 233.113281 61.511719 234.679688 C 53.414062 230.464844 49.179688 205.359375 50.40625 168.203125 C 50.835938 155.328125 49.136719 144.152344 44.902344 131.964844 C 44.757812 131.550781 44.621094 131.148438 44.484375 130.738281 L 65.46875 130.738281 L 65.46875 134.898438 C 65.46875 140.660156 70.15625 145.347656 75.917969 145.347656 L 107.796875 145.347656 C 113.558594 145.347656 118.246094 140.660156 118.246094 134.898438 L 118.246094 130.738281 L 139.230469 130.738281 C 139.089844 131.148438 138.957031 131.550781 138.8125 131.964844 C 134.578125 144.152344 132.878906 155.328125 133.304688 168.203125 Z M 72.25 134.898438 L 72.25 119.796875 C 72.25 117.773438 73.894531 116.128906 75.917969 116.128906 L 107.796875 116.128906 C 109.816406 116.128906 111.464844 117.773438 111.464844 119.796875 L 111.464844 134.898438 C 111.464844 136.921875 109.816406 138.566406 107.796875 138.566406 L 75.917969 138.566406 C 73.894531 138.566406 72.25 136.921875 72.25 134.898438 Z M 141.421875 123.957031 L 118.246094 123.957031 L 118.246094 119.796875 C 118.246094 114.035156 113.558594 109.34375 107.796875 109.34375 L 75.917969 109.34375 C 70.15625 109.34375 65.464844 114.035156 65.464844 119.796875 L 65.464844 123.957031 L 42.292969 123.957031 C 35.058594 100.054688 35.410156 83.824219 43.398438 76.789062 C 47.058594 73.566406 52.242188 72.363281 57.898438 72.363281 C 69.925781 72.363281 84.101562 77.816406 90.34375 80.917969 C 91.296875 81.394531 92.417969 81.394531 93.367188 80.917969 C 102.546875 76.355469 128.871094 66.714844 140.3125 76.789062 C 148.304688 83.824219 148.65625 100.054688 141.421875 123.957031 Z M 159.6875 76.789062 C 171.128906 66.714844 197.453125 76.355469 206.628906 80.917969 C 207.582031 81.394531 208.703125 81.394531 209.65625 80.917969 C 218.824219 76.347656 245.128906 66.699219 256.597656 76.785156 C 264.589844 83.816406 264.945312 100.046875 257.707031 123.957031 L 234.535156 123.957031 L 234.535156 119.796875 C 234.535156 114.035156 229.84375 109.34375 224.082031 109.34375 L 192.203125 109.34375 C 186.441406 109.34375 181.753906 114.035156 181.753906 119.796875 L 181.753906 123.957031 L 158.578125 123.957031 C 151.34375 100.054688 151.695312 83.824219 159.6875 76.789062 Z M 227.75 119.796875 L 227.75 134.898438 C 227.75 136.921875 226.105469 138.566406 224.082031 138.566406 L 192.203125 138.566406 C 190.183594 138.566406 188.535156 136.921875 188.535156 134.898438 L 188.535156 119.796875 C 188.535156 117.773438 190.183594 116.128906 192.203125 116.128906 L 224.082031 116.128906 C 226.105469 116.128906 227.75 117.773438 227.75 119.796875 Z M 249.59375 168.203125 C 250.820312 205.359375 246.585938 230.464844 238.484375 234.679688 C 235.875 233.113281 228.167969 226.433594 228.996094 202.5 C 229.464844 188.894531 226.660156 178.847656 220.664062 172.640625 C 214.957031 166.734375 208.417969 166.664062 208.144531 166.664062 C 207.867188 166.664062 201.328125 166.734375 195.621094 172.640625 C 189.625 178.847656 186.820312 188.894531 187.292969 202.5 C 188.117188 226.433594 180.410156 233.113281 177.800781 234.679688 C 169.703125 230.464844 165.464844 205.359375 166.695312 168.203125 C 167.121094 155.328125 165.421875 144.152344 161.1875 131.964844 C 161.042969 131.550781 160.910156 131.148438 160.769531 130.738281 L 181.753906 130.738281 L 181.753906 134.898438 C 181.753906 140.660156 186.441406 145.347656 192.203125 145.347656 L 224.082031 145.347656 C 229.84375 145.347656 234.535156 140.660156 234.535156 134.898438 L 234.535156 130.738281 L 255.515625 130.738281 C 255.378906 131.148438 255.242188 131.550781 255.097656 131.964844 C 250.863281 144.152344 249.167969 155.328125 249.59375 168.203125 Z M 249.59375 168.203125 " fill-opacity="1" fill-rule="nonzero"/></g></svg>