<svg xmlns="http://www.w3.org/2000/svg" xmlns:xlink="http://www.w3.org/1999/xlink" width="400" zoomAndPan="magnify" viewBox="0 0 300 299.999988" height="400" preserveAspectRatio="xMidYMid meet" version="1.0"><defs><clipPath id="829c54d5b8"><path d="M 33 32.929688 L 267.191406 32.929688 L 267.191406 266.929688 L 33 266.929688 Z M 33 32.929688 " clip-rule="nonzero"/></clipPath></defs><g clip-path="url(#829c54d5b8)"><path fill="#a9a0f0" d="M 149.105469 185.273438 C 147.730469 185.273438 146.496094 184.3125 146.085938 182.9375 L 142.652344 169.761719 C 142.105469 167.980469 143.203125 166.332031 144.851562 165.921875 C 146.496094 165.507812 148.144531 166.46875 148.554688 168.117188 L 152.125 181.292969 C 152.535156 182.9375 151.574219 184.585938 149.929688 185.132812 C 149.652344 185.132812 149.378906 185.273438 149.105469 185.273438 Z M 170.378906 267.070312 C 170.238281 267.070312 170.238281 267.070312 170.101562 267.070312 C 169.28125 267.070312 168.457031 266.660156 167.90625 265.972656 C 155.828125 250.050781 143.613281 234.132812 131.535156 218.210938 C 107.65625 187.054688 82.953125 154.804688 58.933594 122.824219 C 50.972656 112.121094 50.972656 97.710938 58.386719 83.984375 L 49.601562 75.203125 C 48.367188 73.964844 48.367188 72.042969 49.601562 70.808594 L 53.855469 66.554688 L 36.015625 48.710938 C 32.445312 45.007812 32.445312 39.242188 36.015625 35.675781 C 37.660156 33.890625 39.996094 32.929688 42.464844 32.929688 C 44.933594 32.929688 47.269531 33.890625 49.050781 35.675781 L 66.894531 53.515625 L 71.148438 49.261719 C 72.382812 48.027344 74.304688 48.027344 75.539062 49.261719 L 84.324219 58.046875 C 91.050781 54.476562 98.050781 52.554688 104.636719 52.554688 C 111.5 52.554688 117.949219 54.613281 123.164062 58.59375 L 266.3125 167.566406 C 267 168.117188 267.410156 168.941406 267.410156 169.761719 C 267.546875 170.722656 267.136719 171.546875 266.585938 172.234375 L 172.574219 266.246094 C 172.023438 266.796875 171.199219 267.070312 170.378906 267.070312 Z M 68.402344 70.261719 C 68.679688 70.125 68.816406 69.984375 68.953125 69.710938 L 69.226562 69.4375 L 69.503906 69.164062 C 70.050781 68.613281 70.601562 68.0625 71.148438 67.515625 L 71.421875 67.378906 L 71.5625 67.242188 L 71.699219 67.105469 L 71.835938 66.964844 L 71.972656 66.964844 L 72.109375 66.691406 L 72.519531 66.417969 L 72.519531 66.28125 C 74.578125 64.496094 76.777344 62.847656 78.835938 61.339844 L 73.34375 55.847656 L 69.089844 60.105469 L 60.445312 68.75 L 56.1875 73.003906 L 61.679688 78.496094 L 61.816406 78.359375 C 61.953125 78.082031 62.089844 77.945312 62.226562 77.671875 L 62.363281 77.535156 L 62.914062 76.847656 L 63.1875 76.574219 L 63.464844 76.160156 L 63.601562 76.023438 L 63.738281 75.75 L 63.738281 75.613281 L 64.5625 74.789062 L 64.5625 74.652344 L 64.699219 74.515625 C 64.835938 74.242188 65.109375 74.101562 65.246094 73.964844 L 65.382812 73.691406 L 65.523438 73.554688 L 65.933594 73.003906 L 66.207031 72.730469 L 66.757812 72.183594 L 66.894531 72.042969 L 67.03125 71.90625 L 67.304688 71.496094 L 67.441406 71.359375 L 67.582031 71.222656 L 68.128906 70.535156 Z M 104.636719 58.730469 C 95.03125 58.730469 84.460938 63.671875 75.265625 72.320312 L 74.855469 72.730469 L 74.578125 72.867188 L 74.441406 73.140625 L 74.304688 73.28125 L 73.894531 73.554688 C 73.757812 73.828125 73.480469 74.101562 73.207031 74.242188 L 73.207031 74.378906 C 72.933594 74.515625 72.796875 74.789062 72.519531 75.0625 C 72.382812 75.203125 72.109375 75.476562 71.835938 75.75 C 71.699219 76.023438 71.421875 76.160156 71.285156 76.4375 C 58.386719 90.984375 55.367188 107.726562 63.875 119.121094 C 88.03125 150.960938 112.597656 183.214844 136.476562 214.367188 C 143.476562 223.5625 150.476562 232.757812 157.476562 241.953125 L 242.292969 157.136719 L 119.460938 63.535156 C 115.203125 60.378906 110.265625 58.730469 104.636719 58.730469 Z M 161.320312 246.894531 C 164.339844 251.011719 167.496094 255.128906 170.652344 259.246094 L 259.585938 170.3125 L 247.234375 160.980469 Z M 42.464844 39.242188 C 41.640625 39.242188 40.953125 39.515625 40.40625 40.066406 C 39.171875 41.164062 39.171875 43.085938 40.40625 44.183594 L 58.246094 62.164062 L 62.503906 57.910156 L 44.523438 40.066406 C 43.972656 39.515625 43.289062 39.242188 42.464844 39.242188 Z M 121.929688 167.429688 C 117.949219 167.429688 113.96875 166.882812 109.851562 166.058594 C 108.753906 165.78125 107.792969 164.824219 107.519531 163.722656 C 103.8125 146.84375 107.792969 130.921875 118.363281 119.804688 C 118.636719 119.53125 118.910156 119.257812 119.183594 118.84375 C 119.597656 118.570312 119.871094 118.296875 120.144531 118.023438 C 128.515625 110.199219 139.773438 105.945312 151.988281 105.945312 C 155.964844 105.945312 160.082031 106.355469 164.0625 107.179688 C 165.160156 107.453125 166.121094 108.414062 166.398438 109.511719 C 170.101562 126.394531 166.121094 142.175781 155.554688 153.429688 C 155.28125 153.707031 155.003906 153.980469 154.730469 154.390625 C 154.457031 154.667969 154.046875 154.941406 153.769531 155.214844 C 145.398438 163.039062 134.144531 167.429688 121.929688 167.429688 Z M 113.285156 160.292969 C 116.164062 160.84375 119.046875 161.117188 121.929688 161.117188 C 124.398438 161.117188 126.871094 160.980469 129.339844 160.566406 C 125.5 159.332031 122.066406 157.273438 119.183594 154.390625 C 116.300781 151.507812 114.242188 147.941406 113.007812 144.234375 C 112.183594 149.3125 112.183594 154.804688 113.285156 160.292969 Z M 149.515625 150.6875 C 149.789062 150.410156 150.066406 150.136719 150.339844 150 C 150.476562 149.726562 150.75 149.449219 151.027344 149.175781 C 154.046875 145.746094 155.828125 141.351562 155.828125 136.6875 C 155.828125 135.726562 155.691406 134.902344 155.691406 133.941406 L 155.554688 134.078125 C 153.359375 136.273438 150.476562 137.375 147.59375 137.375 C 144.574219 137.375 141.691406 136.273438 139.496094 134.078125 C 135.105469 129.6875 135.105469 122.414062 139.496094 118.023438 L 139.632812 118.023438 C 138.671875 117.882812 137.851562 117.746094 137.027344 117.746094 C 132.222656 117.746094 127.832031 119.53125 124.398438 122.550781 C 124.125 122.824219 123.851562 123.101562 123.714844 123.375 C 123.4375 123.511719 123.164062 123.785156 122.890625 124.058594 C 119.871094 127.492188 118.085938 131.882812 118.085938 136.6875 C 118.085938 141.628906 120.144531 146.429688 123.578125 150 C 127.144531 153.566406 131.949219 155.488281 137.027344 155.488281 C 141.691406 155.488281 146.085938 153.707031 149.515625 150.6875 Z M 160.90625 129 C 161.730469 123.921875 161.730469 118.433594 160.769531 112.945312 C 157.75 112.394531 154.867188 112.121094 151.988281 112.121094 C 149.515625 112.121094 147.046875 112.257812 144.574219 112.667969 C 148.417969 113.90625 151.847656 115.964844 154.730469 118.84375 C 157.613281 121.726562 159.671875 125.296875 160.90625 129 Z M 152.671875 126.121094 C 151.988281 125.160156 151.164062 124.199219 150.339844 123.238281 C 149.378906 122.414062 148.417969 121.589844 147.457031 120.902344 C 146.085938 121.042969 144.851562 121.453125 143.890625 122.414062 C 141.96875 124.472656 141.96875 127.628906 143.890625 129.6875 C 145.949219 131.609375 149.105469 131.609375 151.164062 129.6875 C 152.125 128.726562 152.671875 127.492188 152.671875 126.121094 Z M 113.285156 115.964844 C 112.460938 115.964844 111.636719 115.6875 111.085938 115.140625 L 101.34375 105.394531 C 100.109375 104.296875 100.109375 102.238281 101.34375 101.003906 C 102.578125 99.769531 104.636719 99.769531 105.734375 101.003906 L 115.480469 110.746094 C 116.714844 111.984375 116.714844 113.90625 115.480469 115.140625 C 114.792969 115.6875 114.105469 115.964844 113.285156 115.964844 Z M 128.242188 107.316406 C 126.871094 107.316406 125.636719 106.492188 125.222656 105.121094 L 121.65625 91.808594 C 121.242188 90.160156 122.203125 88.515625 123.851562 88.101562 C 125.5 87.554688 127.28125 88.652344 127.695312 90.296875 L 131.261719 103.472656 C 131.675781 105.121094 130.714844 106.769531 129.066406 107.316406 C 128.792969 107.316406 128.515625 107.316406 128.242188 107.316406 Z M 104.636719 131.058594 C 104.363281 131.058594 104.085938 130.921875 103.8125 130.921875 L 90.636719 127.355469 C 88.992188 126.941406 87.894531 125.160156 88.441406 123.511719 C 88.855469 121.863281 90.5 120.902344 92.148438 121.316406 L 105.460938 124.882812 C 107.105469 125.296875 108.066406 127.078125 107.65625 128.726562 C 107.246094 130.097656 106.007812 131.058594 104.636719 131.058594 Z M 170.238281 173.058594 C 169.417969 173.058594 168.59375 172.78125 168.042969 172.097656 L 158.4375 162.488281 C 157.203125 161.253906 157.203125 159.195312 158.4375 158.097656 C 159.535156 156.863281 161.59375 156.863281 162.828125 158.097656 L 172.4375 167.703125 C 173.671875 168.941406 173.671875 170.859375 172.4375 172.097656 C 171.886719 172.78125 171.0625 173.058594 170.238281 173.058594 Z M 182.453125 151.921875 C 182.179688 151.921875 181.90625 151.921875 181.632812 151.785156 L 168.457031 148.214844 C 166.808594 147.804688 165.847656 146.15625 166.261719 144.511719 C 166.671875 142.863281 168.320312 141.765625 170.101562 142.3125 L 183.277344 145.746094 C 184.925781 146.292969 185.886719 147.941406 185.472656 149.589844 C 185.0625 150.960938 183.828125 151.921875 182.453125 151.921875 Z M 182.453125 151.921875 " fill-opacity="1" fill-rule="evenodd"/></g></svg>