<svg xmlns="http://www.w3.org/2000/svg" xmlns:xlink="http://www.w3.org/1999/xlink" width="400" zoomAndPan="magnify" viewBox="0 0 300 299.999988" height="400" preserveAspectRatio="xMidYMid meet" version="1.0"><defs><clipPath id="f1788eb233"><path d="M 31 62 L 270 62 L 270 240.601562 L 31 240.601562 Z M 31 62 " clip-rule="nonzero"/></clipPath></defs><g clip-path="url(#f1788eb233)"><path fill="#a9a0f0" d="M 232.878906 112.410156 C 225.027344 106.253906 220.441406 101.128906 215.109375 95.21875 C 210.273438 89.847656 204.820312 83.773438 195.890625 75.878906 C 176.925781 59.101562 147.542969 62.652344 146.300781 62.820312 C 145.765625 62.902344 138.53125 63.933594 132.125 67.449219 L 132.003906 67.074219 C 131.628906 67.199219 123.28125 69.722656 115.308594 77.53125 C 107.949219 84.761719 99.5625 98.027344 101.378906 120.261719 C 101.503906 122.039062 101.792969 123.816406 102.125 125.59375 C 98.527344 126.171875 84.644531 128.570312 71.003906 132.992188 C 54.929688 138.15625 44.804688 144.230469 40.714844 151.050781 C 39.886719 152.042969 35.753906 157.167969 33.398438 165.101562 C 31 173.117188 30.011719 185.515625 38.9375 199.320312 C 46.167969 210.476562 70.304688 216.511719 110.679688 217.335938 C 113.738281 217.378906 116.753906 217.417969 119.730469 217.417969 C 143.820312 217.417969 164.9375 215.644531 168.203125 215.351562 C 188.289062 229.777344 215.316406 240.894531 232.136719 240.894531 C 233.914062 240.894531 235.566406 240.769531 237.09375 240.519531 C 258.003906 237.007812 269.492188 200.765625 269.742188 175.96875 C 269.988281 153.570312 248.5 124.683594 232.878906 112.410156 Z M 102.992188 129.519531 C 107.578125 146.464844 120.347656 164.480469 133.449219 180.226562 C 122.457031 184.691406 101.667969 181.796875 88.734375 176.050781 L 86.460938 175.0625 C 74.929688 169.894531 72.535156 168.820312 58.070312 167.871094 C 45.671875 167.042969 42.863281 159.6875 42.492188 158.488281 C 42.242188 142.289062 85.46875 132.164062 102.992188 129.519531 Z M 110.679688 213.453125 C 72.246094 212.667969 48.566406 207.089844 42.203125 197.210938 C 32.242188 181.839844 35.464844 168.488281 39.183594 160.71875 C 40.546875 163.902344 45.011719 170.886719 57.824219 171.753906 C 71.582031 172.664062 73.609375 173.574219 84.890625 178.613281 L 87.164062 179.605469 C 95.347656 183.242188 108.199219 186.300781 119.769531 186.300781 C 125.886719 186.300781 131.671875 185.433594 136.136719 183.324219 C 141.714844 189.898438 147.210938 195.972656 152.128906 201.386719 C 155.351562 204.9375 159.195312 208.453125 163.492188 211.839844 C 154.195312 212.585938 132.910156 213.90625 110.679688 213.453125 Z M 236.433594 236.71875 C 217.339844 239.941406 173.988281 219.734375 155.019531 198.78125 C 137.210938 179.109375 107.371094 146.214844 105.265625 120.015625 C 103.902344 103.441406 108.15625 90.175781 117.910156 80.507812 C 119.769531 78.6875 121.671875 77.160156 123.449219 75.878906 C 122.539062 77.738281 122.042969 79.804688 122.042969 82.203125 C 122.042969 90.550781 124.605469 94.972656 127.085938 99.226562 C 129.070312 102.574219 130.886719 105.757812 131.464844 111.003906 L 131.507812 111.210938 C 132.871094 123.652344 134.152344 135.429688 145.476562 142.539062 C 155.226562 148.652344 158.078125 154.605469 161.054688 162.375 C 164.277344 170.722656 176.097656 180.597656 185.148438 184.605469 C 191.554688 187.457031 192.460938 188.699219 194.816406 192.128906 C 195.5625 193.203125 196.511719 194.566406 197.792969 196.179688 C 203.042969 202.914062 227.09375 217.957031 259.617188 209.652344 C 254.617188 223.453125 246.722656 234.984375 236.433594 236.71875 Z M 200.851562 193.738281 C 199.652344 192.210938 198.785156 190.972656 198 189.855469 C 195.230469 185.886719 193.828125 184.152344 186.71875 181.011719 C 177.542969 176.960938 167.253906 167.582031 164.691406 160.96875 C 161.550781 152.785156 158.285156 146.007812 147.542969 139.230469 C 137.828125 133.113281 136.714844 122.785156 135.390625 110.796875 L 135.351562 110.59375 C 134.6875 104.515625 132.539062 100.839844 130.433594 97.285156 C 128.117188 93.316406 125.886719 89.515625 125.925781 82.242188 C 125.925781 69.761719 146.589844 66.785156 146.796875 66.785156 C 146.878906 66.785156 149.691406 66.457031 153.988281 66.457031 C 163.699219 66.457031 181.097656 68.148438 193.289062 78.894531 C 202.050781 86.625 207.421875 92.617188 212.175781 97.90625 C 217.589844 103.9375 222.300781 109.1875 230.441406 115.550781 C 245.027344 127 266.0625 155.101562 265.816406 176.011719 C 265.734375 184.773438 264.082031 195.351562 261.0625 205.144531 C 229.574219 214.277344 205.605469 199.816406 200.851562 193.738281 Z M 200.851562 193.738281 " fill-opacity="1" fill-rule="nonzero"/></g><path fill="#a9a0f0" d="M 192.339844 117.121094 C 192.339844 117.121094 192.792969 123.691406 192.875 124.023438 C 192.957031 124.355469 195.769531 126.503906 196.636719 126.171875 C 197.503906 125.839844 199.363281 124.890625 199.363281 124.890625 L 197.667969 116.996094 Z M 192.339844 117.121094 " fill-opacity="1" fill-rule="nonzero"/><path fill="#a9a0f0" d="M 202.710938 161.671875 C 201.96875 162.621094 200.5625 164.5625 200.5625 164.5625 C 200.5625 164.5625 204.941406 169.5625 205.230469 169.359375 C 205.519531 169.152344 206.925781 165.390625 206.925781 165.390625 L 205.976562 160.71875 C 205.976562 160.761719 203.457031 160.761719 202.710938 161.671875 Z M 202.710938 161.671875 " fill-opacity="1" fill-rule="nonzero"/><path fill="#a9a0f0" d="M 71.460938 160.265625 C 71.75 160.058594 73.15625 156.296875 73.15625 156.296875 L 72.203125 151.628906 C 72.203125 151.628906 69.683594 151.628906 68.9375 152.578125 C 68.195312 153.53125 66.789062 155.472656 66.789062 155.472656 C 66.789062 155.472656 71.171875 160.472656 71.460938 160.265625 Z M 71.460938 160.265625 " fill-opacity="1" fill-rule="nonzero"/><path fill="#a9a0f0" d="M 218.496094 154.769531 C 218.125 154.644531 218.457031 157.828125 218.457031 157.828125 L 220.066406 160.101562 L 223.207031 161.589844 L 223.5 159.027344 L 220.769531 155.183594 C 220.769531 155.222656 218.871094 154.894531 218.496094 154.769531 Z M 218.496094 154.769531 " fill-opacity="1" fill-rule="nonzero"/><path fill="#a9a0f0" d="M 234.65625 145.265625 L 236.472656 147.828125 L 232.796875 146.585938 L 231.101562 149.316406 L 236.886719 151.382812 L 243.542969 151.464844 L 236.96875 144.601562 Z M 234.65625 145.265625 " fill-opacity="1" fill-rule="nonzero"/><path fill="#a9a0f0" d="M 222.300781 119.683594 L 216.058594 116.046875 L 214.28125 118.277344 L 215.027344 121.585938 L 219.449219 121.75 Z M 222.300781 119.683594 " fill-opacity="1" fill-rule="nonzero"/><path fill="#a9a0f0" d="M 110.183594 167.910156 L 113.074219 165.886719 L 106.792969 162.207031 L 105.015625 164.441406 L 105.761719 167.746094 Z M 110.183594 167.910156 " fill-opacity="1" fill-rule="nonzero"/><path fill="#a9a0f0" d="M 181.71875 138.445312 L 179.402344 141.875 L 185.023438 148.035156 L 185.972656 146.585938 L 185.3125 141.132812 Z M 181.71875 138.445312 " fill-opacity="1" fill-rule="nonzero"/><path fill="#a9a0f0" d="M 185.726562 92.203125 L 178.988281 92.574219 L 179.527344 97.285156 L 185.808594 96.832031 L 176.261719 100.179688 L 177.503906 101.914062 C 177.503906 101.914062 180.851562 103.113281 181.429688 102.699219 C 182.007812 102.285156 189.15625 100.921875 189.15625 100.921875 L 187.792969 93.648438 Z M 185.726562 92.203125 " fill-opacity="1" fill-rule="nonzero"/><path fill="#a9a0f0" d="M 154.441406 123.652344 L 160.394531 124.3125 C 160.394531 124.3125 163.90625 121.957031 164.113281 121.667969 C 164.320312 121.378906 164.734375 119.023438 164.734375 119.023438 L 157.335938 118.898438 Z M 154.441406 123.652344 " fill-opacity="1" fill-rule="nonzero"/><path fill="#a9a0f0" d="M 92.496094 138.488281 C 92.703125 138.199219 93.113281 135.84375 93.113281 135.84375 L 85.71875 135.71875 L 82.785156 140.472656 L 88.734375 141.132812 C 88.777344 141.171875 92.289062 138.777344 92.496094 138.488281 Z M 92.496094 138.488281 " fill-opacity="1" fill-rule="nonzero"/></svg>