<svg xmlns="http://www.w3.org/2000/svg" xmlns:xlink="http://www.w3.org/1999/xlink" width="400" zoomAndPan="magnify" viewBox="0 0 300 299.999988" height="400" preserveAspectRatio="xMidYMid meet" version="1.0"><defs><clipPath id="006fa33cbc"><path d="M 30 39.148438 L 270 39.148438 L 270 261 L 30 261 Z M 30 39.148438 " clip-rule="nonzero"/></clipPath></defs><g clip-path="url(#006fa33cbc)"><path fill="#a9a0f0" d="M 263.066406 103.933594 L 263.078125 103.921875 L 263.054688 103.90625 C 262.355469 102.324219 261.453125 100.871094 260.34375 99.546875 C 254.328125 92.835938 245.730469 89.332031 237.445312 86.320312 C 231.160156 84.035156 224.546875 81.808594 217.789062 79.707031 C 215.816406 75.164062 212.152344 68.238281 208.28125 61.09375 C 207.578125 59.792969 207.066406 58.851562 206.847656 58.421875 C 203.59375 52.050781 198.632812 49.914062 186.644531 44.75 C 185.519531 44.265625 184.328125 43.75 183.074219 43.207031 C 175.894531 40.09375 169.8125 39.160156 164.488281 40.351562 C 159.355469 41.496094 154.890625 44.664062 150.953125 47.457031 C 145.308594 51.460938 139.632812 55.5 133.914062 59.582031 C 125.023438 57.855469 116.085938 56.179688 107.441406 54.5625 C 102.695312 53.675781 97.3125 52.667969 92.175781 53.773438 C 86.835938 54.921875 81.707031 58.316406 76.492188 64.148438 C 75.578125 65.171875 74.710938 66.136719 73.890625 67.046875 C 65.167969 76.75 61.558594 80.769531 61.269531 87.917969 C 61.25 88.398438 61.183594 89.46875 61.085938 90.945312 C 60.8125 95.179688 60.304688 103.054688 60.234375 108.921875 L 60.289062 108.921875 C 59.554688 109.84375 58.910156 110.828125 58.363281 111.875 C 58.140625 112.300781 57.617188 113.234375 56.890625 114.53125 C 54.457031 118.871094 52.105469 123.128906 50.175781 126.816406 C 48.835938 128.109375 47.492188 129.421875 46.183594 130.71875 C 39.917969 136.925781 33.578125 143.707031 30.921875 152.316406 C 30.472656 153.988281 30.261719 155.683594 30.285156 157.410156 L 30.273438 157.4375 L 30.285156 157.445312 C 30.199219 167.261719 34.4375 182.597656 36.390625 184.734375 C 43.511719 192.523438 54.195312 197.230469 66.5625 202.675781 L 67.484375 203.082031 C 70.007812 204.195312 73.070312 205.542969 76.242188 205.542969 C 76.714844 205.542969 77.1875 205.511719 77.660156 205.449219 C 80.375 205.078125 87.449219 200.539062 99.273438 191.570312 C 136.984375 225.183594 178.148438 259.648438 185.425781 260.746094 C 185.949219 260.824219 186.476562 260.863281 187.003906 260.859375 C 190.117188 260.859375 193.136719 259.582031 195.636719 258.523438 L 196.5625 258.128906 C 209.007812 252.863281 219.753906 248.3125 226.988281 240.628906 C 228.972656 238.515625 233.429688 223.246094 233.484375 213.425781 L 233.496094 213.417969 L 233.484375 213.394531 C 233.535156 211.667969 233.347656 209.964844 232.921875 208.292969 C 230.390625 199.640625 224.148438 192.773438 217.972656 186.476562 C 207.800781 176.109375 197.070312 166.289062 186 156.855469 C 206.210938 162.070312 229.605469 167.597656 237.886719 167.597656 C 238.652344 167.625 239.402344 167.542969 240.144531 167.359375 C 243.683594 166.28125 246.296875 163.324219 248.394531 160.949219 L 249.0625 160.195312 C 258.011719 150.070312 265.742188 141.328125 268.949219 131.273438 C 269.828125 128.511719 267.257812 112.816406 263.066406 103.933594 Z M 236.96875 87.636719 C 245.089844 90.589844 253.5 94.011719 259.300781 100.480469 C 260.15625 101.496094 260.867188 102.601562 261.4375 103.796875 C 260.007812 105.710938 257.863281 108.054688 255.601562 110.523438 C 252.300781 114.125 248.886719 117.851562 247.214844 120.769531 C 244.605469 125.3125 240.890625 130.710938 235.253906 132.144531 C 231.253906 133.164062 226.984375 131.996094 223.21875 130.96875 C 211.636719 127.804688 198.910156 124.34375 184.363281 120.398438 C 194.941406 111.019531 204.605469 102.25 212.609375 94.75 C 215.859375 91.707031 218.8125 88.640625 219.285156 84.535156 C 219.351562 83.964844 219.058594 82.875 218.484375 81.394531 C 224.832031 83.386719 231.042969 85.488281 236.96875 87.636719 Z M 207.046875 61.761719 C 209.792969 66.824219 218.136719 82.234375 217.890625 84.375 C 217.46875 88.003906 214.699219 90.871094 211.648438 93.722656 C 198.597656 105.949219 181.148438 121.550781 162.476562 137.691406 C 153.898438 130.972656 145.21875 124.417969 136.53125 117.972656 L 142.398438 113.074219 C 163.339844 95.578125 184.984375 77.492188 206.007812 59.835938 C 206.273438 60.332031 206.625 60.980469 207.046875 61.761719 Z M 151.765625 48.601562 C 155.597656 45.882812 159.9375 42.804688 164.792969 41.71875 C 169.824219 40.597656 175.621094 41.503906 182.515625 44.496094 C 183.777344 45.042969 184.96875 45.554688 186.09375 46.039062 C 197.75 51.058594 202.316406 53.027344 205.339844 58.566406 C 184.246094 76.285156 162.519531 94.4375 141.5 111.996094 L 135.371094 117.113281 C 132.46875 114.960938 129.5625 112.820312 126.660156 110.6875 C 126.992188 110.515625 127.3125 110.324219 127.621094 110.109375 C 128.636719 109.421875 129.421875 108.53125 129.976562 107.4375 C 130.496094 106.332031 130.484375 105.300781 129.949219 104.535156 C 129.410156 103.765625 128.445312 103.40625 127.226562 103.519531 C 126.007812 103.667969 124.902344 104.101562 123.914062 104.828125 C 123.03125 105.429688 122.316406 106.183594 121.761719 107.097656 C 119.308594 105.296875 116.855469 103.503906 114.410156 101.714844 C 110.511719 98.867188 106.089844 95.632812 100.976562 94.414062 C 97.445312 93.574219 93.5625 93.671875 89.234375 94.714844 C 109.585938 78.523438 131.007812 63.324219 151.761719 48.601562 Z M 122.90625 107.933594 C 123.359375 107.140625 123.960938 106.488281 124.71875 105.972656 C 125.507812 105.394531 126.386719 105.042969 127.355469 104.910156 C 128.042969 104.851562 128.566406 105.003906 128.800781 105.335938 C 129.035156 105.667969 129 106.21875 128.707031 106.839844 C 128.257812 107.707031 127.625 108.414062 126.8125 108.960938 C 126.359375 109.277344 125.875 109.535156 125.359375 109.730469 C 124.542969 109.132812 123.726562 108.535156 122.90625 107.933594 Z M 82.355469 97.007812 C 81.089844 97.535156 79.890625 98.03125 78.761719 98.5 L 76.808594 99.308594 L 76.835938 99.164062 L 70.519531 97.941406 L 70.25 99.316406 L 74.714844 100.179688 C 68.4375 102.820312 64.476562 104.71875 61.660156 107.429688 C 61.789062 101.8125 62.234375 94.90625 62.484375 91.042969 C 62.542969 90.152344 62.589844 89.414062 62.625 88.851562 C 70.480469 91 78.359375 93.144531 86.265625 95.292969 C 86.078125 95.445312 85.886719 95.59375 85.699219 95.746094 C 84.609375 96.117188 83.5 96.53125 82.355469 97.007812 Z M 74.933594 67.988281 C 75.753906 67.074219 76.621094 66.105469 77.535156 65.085938 C 82.546875 59.476562 87.433594 56.230469 92.46875 55.144531 C 97.328125 54.097656 102.5625 55.074219 107.183594 55.9375 C 115.40625 57.476562 123.886719 59.066406 132.34375 60.707031 C 117.304688 71.484375 102.1875 82.589844 87.621094 94.210938 C 79.289062 91.945312 70.984375 89.683594 62.699219 87.421875 C 63.125 81.125 66.449219 77.421875 74.933594 67.988281 Z M 47.171875 131.71875 C 47.511719 131.378906 47.863281 131.035156 48.210938 130.695312 C 46.492188 134.207031 45.453125 136.800781 45.554688 137.808594 C 45.96875 141.917969 48.878906 145.027344 52.082031 148.117188 C 58.285156 154.097656 65.679688 161.039062 73.765625 168.480469 C 71.445312 170.101562 69.390625 171.042969 67.359375 171.417969 C 61.632812 172.472656 56 169.128906 51.734375 166.09375 C 48.992188 164.144531 44.332031 162.191406 39.824219 160.300781 C 36.742188 159.003906 33.808594 157.777344 31.710938 156.640625 C 31.726562 155.3125 31.910156 154.011719 32.261719 152.734375 C 34.824219 144.429688 41.03125 137.800781 47.171875 131.71875 Z M 77.46875 204.058594 C 74.195312 204.507812 70.785156 203.003906 68.046875 201.796875 L 67.128906 201.390625 C 54.90625 196.007812 44.347656 191.359375 37.425781 183.789062 C 35.792969 182.003906 31.871094 167.597656 31.703125 158.210938 C 33.789062 159.28125 36.46875 160.40625 39.285156 161.589844 C 43.71875 163.453125 48.304688 165.375 50.921875 167.234375 C 54.816406 170.003906 59.816406 173.019531 65.144531 173.019531 C 65.972656 173.019531 66.796875 172.945312 67.613281 172.796875 C 69.925781 172.371094 72.230469 171.296875 74.820312 169.449219 C 82.191406 176.226562 90.109375 183.394531 98.203125 190.621094 C 84.109375 201.296875 79.140625 203.832031 77.46875 204.0625 Z M 225.964844 239.667969 C 218.9375 247.136719 208.316406 251.632812 196.019531 256.839844 L 195.089844 257.234375 C 192.332031 258.402344 188.902344 259.855469 185.636719 259.359375 C 175.957031 257.902344 94.71875 187.273438 53.054688 147.105469 C 50.046875 144.210938 47.316406 141.304688 46.949219 137.667969 C 46.730469 135.523438 55.296875 120.242188 58.113281 115.21875 C 58.546875 114.441406 58.910156 113.792969 59.183594 113.304688 C 79.855469 131.179688 101.144531 149.488281 121.738281 167.203125 C 142.550781 185.105469 164.070312 203.617188 184.949219 221.667969 C 187.882812 224.207031 191.53125 227.363281 195.941406 228.242188 C 196.820312 228.414062 197.710938 228.503906 198.605469 228.5 C 203.859375 228.5 208.824219 225.601562 212.710938 222.921875 C 215.351562 221.097656 219.964844 219.242188 224.425781 217.445312 C 227.257812 216.304688 229.953125 215.214844 232.058594 214.175781 C 231.753906 223.558594 227.621094 237.90625 225.964844 239.667969 Z M 216.972656 187.460938 C 223.023438 193.628906 229.132812 200.347656 231.574219 208.6875 C 231.910156 209.96875 232.074219 211.273438 232.070312 212.601562 C 229.953125 213.707031 227.007812 214.894531 223.902344 216.144531 C 219.367188 217.972656 214.683594 219.859375 211.914062 221.769531 C 207.601562 224.738281 201.917969 228.003906 196.210938 226.867188 C 192.167969 226.058594 188.820312 223.164062 185.863281 220.609375 C 164.984375 202.554688 143.464844 184.042969 122.652344 166.140625 C 101.984375 148.363281 80.617188 129.984375 59.871094 112.046875 C 62.972656 106.550781 67.570312 104.648438 79.296875 99.792969 C 80.429688 99.324219 81.628906 98.828125 82.894531 98.300781 C 84.039062 97.824219 85.144531 97.410156 86.226562 97.046875 L 86.261719 97.089844 L 86.390625 96.988281 C 89.5 95.890625 92.707031 95.3125 96.003906 95.25 C 97.574219 95.242188 99.125 95.421875 100.65625 95.78125 C 105.496094 96.933594 109.792969 100.078125 113.585938 102.847656 C 149.03125 128.769531 185.683594 155.570312 216.972656 187.460938 Z M 267.613281 130.847656 C 264.496094 140.621094 256.855469 149.261719 248.011719 159.265625 L 247.34375 160.023438 C 245.359375 162.265625 242.894531 165.054688 239.734375 166.019531 C 235.949219 167.179688 215.46875 163.078125 183.542969 154.773438 C 176.992188 149.25 170.34375 143.847656 163.601562 138.570312 C 170.3125 132.769531 176.863281 127.039062 183.109375 121.511719 C 198.027344 125.554688 211.03125 129.089844 222.84375 132.320312 C 225.558594 133.058594 228.753906 133.933594 231.964844 133.933594 C 233.195312 133.941406 234.402344 133.796875 235.597656 133.503906 C 241.746094 131.9375 245.683594 126.246094 248.425781 121.464844 C 250.023438 118.683594 253.382812 115.015625 256.632812 111.46875 C 258.695312 109.214844 260.65625 107.070312 262.101562 105.226562 C 265.882812 113.820312 268.347656 128.546875 267.613281 130.847656 Z M 267.613281 130.847656 " fill-opacity="1" fill-rule="nonzero"/></g><path fill="#a9a0f0" d="M 230.65625 102.792969 C 231.136719 102.878906 231.625 102.925781 232.113281 102.925781 C 234.28125 102.925781 235.992188 101.996094 236.257812 100.53125 C 236.582031 98.75 234.628906 96.957031 231.8125 96.441406 C 228.992188 95.929688 226.53125 96.921875 226.207031 98.703125 C 225.882812 100.484375 227.835938 102.277344 230.65625 102.792969 Z M 227.585938 98.953125 C 227.742188 98.105469 229.40625 97.429688 231.558594 97.820312 C 233.707031 98.214844 235.03125 99.429688 234.878906 100.28125 C 234.722656 101.128906 233.054688 101.804688 230.90625 101.414062 C 228.757812 101.023438 227.429688 99.800781 227.585938 98.953125 Z M 227.585938 98.953125 " fill-opacity="1" fill-rule="nonzero"/><path fill="#a9a0f0" d="M 215.738281 112.324219 C 214.535156 112.082031 213.347656 112.148438 212.179688 112.523438 C 211.027344 112.929688 210.300781 113.664062 210.132812 114.585938 C 209.964844 115.507812 210.386719 116.445312 211.320312 117.234375 C 212.285156 117.996094 213.371094 118.476562 214.582031 118.675781 C 215.066406 118.761719 215.550781 118.808594 216.042969 118.808594 C 218.207031 118.808594 219.921875 117.878906 220.1875 116.414062 C 220.511719 114.632812 218.554688 112.839844 215.738281 112.324219 Z M 218.808594 116.164062 C 218.652344 117.011719 216.980469 117.683594 214.835938 117.296875 C 213.871094 117.140625 213 116.761719 212.226562 116.164062 C 211.703125 115.71875 211.441406 115.234375 211.515625 114.835938 C 211.585938 114.433594 212 114.074219 212.648438 113.84375 C 213.179688 113.667969 213.722656 113.585938 214.28125 113.59375 C 214.6875 113.59375 215.089844 113.632812 215.488281 113.703125 C 217.636719 114.09375 218.960938 115.3125 218.808594 116.164062 Z M 218.808594 116.164062 " fill-opacity="1" fill-rule="nonzero"/><path fill="#a9a0f0" d="M 106.46875 68.804688 C 107.429688 69.566406 108.515625 70.046875 109.726562 70.242188 C 110.210938 70.332031 110.699219 70.378906 111.191406 70.378906 C 113.355469 70.378906 115.070312 69.445312 115.332031 67.984375 C 115.65625 66.203125 113.703125 64.40625 110.882812 63.894531 C 109.679688 63.652344 108.496094 63.71875 107.324219 64.09375 C 106.175781 64.5 105.449219 65.230469 105.28125 66.152344 C 105.113281 67.074219 105.535156 68.015625 106.46875 68.804688 Z M 106.660156 66.40625 C 106.730469 66.003906 107.144531 65.644531 107.792969 65.414062 C 108.324219 65.238281 108.867188 65.15625 109.425781 65.164062 C 109.832031 65.164062 110.234375 65.199219 110.632812 65.273438 C 112.78125 65.664062 114.109375 66.882812 113.953125 67.730469 C 113.800781 68.582031 112.132812 69.257812 109.980469 68.863281 C 109.015625 68.707031 108.144531 68.332031 107.375 67.730469 C 106.84375 67.289062 106.585938 66.804688 106.660156 66.40625 Z M 106.660156 66.40625 " fill-opacity="1" fill-rule="nonzero"/><path fill="#a9a0f0" d="M 93.65625 86.125 C 94.136719 86.214844 94.625 86.257812 95.113281 86.261719 C 97.28125 86.261719 98.992188 85.328125 99.261719 83.867188 C 99.582031 82.085938 97.628906 80.289062 94.8125 79.777344 C 91.992188 79.265625 89.53125 80.253906 89.207031 82.035156 C 88.882812 83.816406 90.835938 85.613281 93.65625 86.125 Z M 90.585938 82.289062 C 90.742188 81.4375 92.410156 80.765625 94.558594 81.15625 C 96.707031 81.546875 98.03125 82.765625 97.878906 83.613281 C 97.722656 84.464844 96.054688 85.136719 93.90625 84.746094 C 91.757812 84.355469 90.429688 83.136719 90.585938 82.289062 Z M 90.585938 82.289062 " fill-opacity="1" fill-rule="nonzero"/><path fill="#a9a0f0" d="M 234.375 138.441406 C 235.640625 143.839844 236.34375 149.3125 236.476562 154.855469 L 237.878906 154.820312 C 237.742188 149.179688 237.027344 143.613281 235.738281 138.121094 Z M 234.375 138.441406 " fill-opacity="1" fill-rule="nonzero"/><path fill="#a9a0f0" d="M 198.167969 152.148438 L 198.484375 150.78125 L 203.714844 151.984375 L 203.402344 153.347656 Z M 198.167969 152.148438 " fill-opacity="1" fill-rule="nonzero"/><path fill="#a9a0f0" d="M 192.300781 132.351562 L 193.0625 131.175781 L 197.40625 133.992188 L 196.644531 135.167969 Z M 192.300781 132.351562 " fill-opacity="1" fill-rule="nonzero"/><path fill="#a9a0f0" d="M 253.371094 126.167969 L 258.675781 121.257812 L 259.628906 122.285156 L 254.324219 127.199219 Z M 253.371094 126.167969 " fill-opacity="1" fill-rule="nonzero"/><path fill="#a9a0f0" d="M 251.082031 140.710938 L 254.507812 137.546875 L 255.457031 138.578125 L 252.03125 141.742188 Z M 251.082031 140.710938 " fill-opacity="1" fill-rule="nonzero"/><path fill="#a9a0f0" d="M 216.671875 146.445312 L 217.078125 145.101562 L 222.132812 146.625 L 221.726562 147.96875 Z M 216.671875 146.445312 " fill-opacity="1" fill-rule="nonzero"/><path fill="#a9a0f0" d="M 128.949219 82.691406 C 130.328125 82.632812 131.570312 82.191406 132.675781 81.367188 C 133.695312 80.683594 134.480469 79.792969 135.035156 78.695312 C 135.554688 77.589844 135.542969 76.558594 135.003906 75.792969 C 134.464844 75.027344 133.5 74.660156 132.285156 74.777344 C 131.074219 74.949219 129.96875 75.382812 128.96875 76.085938 C 127.96875 76.789062 127.183594 77.679688 126.609375 78.757812 C 126.089844 79.863281 126.101562 80.894531 126.640625 81.664062 C 126.917969 82.015625 127.257812 82.28125 127.667969 82.464844 C 128.078125 82.648438 128.503906 82.722656 128.949219 82.691406 Z M 127.878906 79.351562 C 128.347656 78.5 128.976562 77.792969 129.773438 77.234375 C 130.570312 76.671875 131.449219 76.320312 132.414062 76.171875 C 132.511719 76.164062 132.609375 76.160156 132.703125 76.160156 C 133.160156 76.109375 133.546875 76.253906 133.859375 76.597656 C 134.089844 76.929688 134.058594 77.476562 133.765625 78.101562 C 133.3125 78.96875 132.679688 79.675781 131.867188 80.21875 C 130.082031 81.476562 128.28125 81.5625 127.785156 80.855469 C 127.554688 80.523438 127.585938 79.976562 127.878906 79.351562 Z M 127.878906 79.351562 " fill-opacity="1" fill-rule="nonzero"/><path fill="#a9a0f0" d="M 150.183594 90.394531 C 150.320312 90.394531 150.464844 90.386719 150.609375 90.371094 C 151.816406 90.203125 152.921875 89.765625 153.921875 89.0625 C 154.921875 88.359375 155.707031 87.46875 156.28125 86.390625 C 156.800781 85.285156 156.789062 84.253906 156.25 83.488281 C 155.210938 82.007812 152.558594 82.136719 150.214844 83.78125 C 149.199219 84.46875 148.410156 85.359375 147.855469 86.453125 C 147.335938 87.558594 147.347656 88.589844 147.886719 89.355469 C 148.160156 89.710938 148.5 89.980469 148.90625 90.164062 C 149.3125 90.347656 149.738281 90.421875 150.183594 90.394531 Z M 149.125 87.050781 C 149.578125 86.183594 150.207031 85.476562 151.019531 84.929688 C 151.886719 84.273438 152.859375 83.914062 153.941406 83.851562 C 154.402344 83.800781 154.789062 83.949219 155.101562 84.292969 C 155.335938 84.628906 155.304688 85.175781 155.007812 85.796875 C 154.542969 86.652344 153.910156 87.359375 153.113281 87.917969 C 152.316406 88.476562 151.4375 88.832031 150.476562 88.976562 C 149.789062 89.039062 149.265625 88.882812 149.03125 88.554688 C 148.796875 88.222656 148.832031 87.671875 149.125 87.050781 Z M 149.125 87.050781 " fill-opacity="1" fill-rule="nonzero"/><path fill="#a9a0f0" d="M 151.699219 63.984375 C 151.839844 63.984375 151.980469 63.980469 152.125 63.964844 C 153.335938 63.792969 154.4375 63.359375 155.4375 62.65625 C 156.4375 61.953125 157.226562 61.0625 157.796875 59.984375 C 158.316406 58.878906 158.304688 57.847656 157.769531 57.078125 C 156.726562 55.597656 154.074219 55.726562 151.730469 57.375 C 150.714844 58.058594 149.925781 58.949219 149.375 60.046875 C 148.855469 61.152344 148.867188 62.183594 149.402344 62.949219 C 149.675781 63.304688 150.015625 63.570312 150.421875 63.753906 C 150.828125 63.9375 151.253906 64.015625 151.699219 63.984375 Z M 150.640625 60.640625 C 151.09375 59.773438 151.726562 59.066406 152.535156 58.519531 C 153.402344 57.867188 154.375 57.507812 155.460938 57.441406 C 155.921875 57.394531 156.308594 57.542969 156.621094 57.882812 C 156.855469 58.21875 156.820312 58.765625 156.527344 59.386719 C 156.058594 60.242188 155.429688 60.949219 154.632812 61.507812 C 153.835938 62.066406 152.957031 62.421875 151.992188 62.570312 C 151.308594 62.628906 150.78125 62.476562 150.546875 62.144531 C 150.316406 61.8125 150.351562 61.261719 150.640625 60.640625 Z M 150.640625 60.640625 " fill-opacity="1" fill-rule="nonzero"/><path fill="#a9a0f0" d="M 172.960938 71.675781 C 174.335938 71.617188 175.578125 71.175781 176.683594 70.351562 C 177.703125 69.664062 178.488281 68.773438 179.042969 67.679688 C 179.5625 66.570312 179.550781 65.539062 179.015625 64.773438 C 177.972656 63.292969 175.320312 63.421875 172.976562 65.066406 C 171.960938 65.753906 171.171875 66.644531 170.617188 67.742188 C 170.101562 68.847656 170.109375 69.878906 170.648438 70.644531 C 170.925781 70.996094 171.265625 71.265625 171.675781 71.449219 C 172.085938 71.628906 172.511719 71.707031 172.960938 71.675781 Z M 171.886719 68.335938 C 172.339844 67.46875 172.972656 66.761719 173.78125 66.214844 C 174.648438 65.5625 175.621094 65.203125 176.707031 65.136719 C 177.167969 65.089844 177.554688 65.234375 177.867188 65.578125 C 178.101562 65.914062 178.066406 66.460938 177.773438 67.082031 C 177.320312 67.949219 176.691406 68.65625 175.878906 69.203125 C 174.089844 70.457031 172.292969 70.546875 171.792969 69.839844 C 171.5625 69.507812 171.597656 68.957031 171.886719 68.335938 Z M 171.886719 68.335938 " fill-opacity="1" fill-rule="nonzero"/><path fill="#a9a0f0" d="M 69.417969 177.050781 C 70.546875 182.578125 72.226562 187.933594 74.464844 193.113281 L 75.75 192.558594 C 73.554688 187.46875 71.898438 182.203125 70.789062 176.769531 Z M 69.417969 177.050781 " fill-opacity="1" fill-rule="nonzero"/><path fill="#a9a0f0" d="M 183.617188 95.386719 L 193.367188 88.699219 L 194.160156 89.855469 L 184.410156 96.542969 Z M 183.617188 95.386719 " fill-opacity="1" fill-rule="nonzero"/><path fill="#a9a0f0" d="M 165.589844 121.003906 L 171.65625 116.941406 L 172.4375 118.105469 L 166.367188 122.167969 Z M 165.589844 121.003906 " fill-opacity="1" fill-rule="nonzero"/><path fill="#a9a0f0" d="M 147.570312 119.261719 L 151.957031 114.800781 L 152.957031 115.78125 L 148.570312 120.246094 Z M 147.570312 119.261719 " fill-opacity="1" fill-rule="nonzero"/><path fill="#a9a0f0" d="M 41.09375 172.671875 L 41.527344 171.339844 L 48.402344 173.578125 L 47.964844 174.910156 Z M 41.09375 172.671875 " fill-opacity="1" fill-rule="nonzero"/><path fill="#a9a0f0" d="M 51.699219 185.71875 L 52.132812 184.382812 L 56.570312 185.820312 L 56.136719 187.15625 Z M 51.699219 185.71875 " fill-opacity="1" fill-rule="nonzero"/><path fill="#a9a0f0" d="M 208.535156 89.496094 L 211.613281 87.1875 L 212.457031 88.304688 L 209.378906 90.617188 Z M 208.535156 89.496094 " fill-opacity="1" fill-rule="nonzero"/><path fill="#a9a0f0" d="M 196.429688 75.828125 L 202.660156 71.351562 L 203.480469 72.488281 L 197.246094 76.96875 Z M 196.429688 75.828125 " fill-opacity="1" fill-rule="nonzero"/><path fill="#a9a0f0" d="M 204.738281 198.40625 C 205.851562 199.261719 207.105469 199.722656 208.507812 199.785156 C 208.941406 199.8125 209.359375 199.738281 209.761719 199.5625 C 210.160156 199.386719 210.496094 199.128906 210.769531 198.785156 C 211.832031 197.320312 210.84375 194.855469 208.523438 193.179688 C 206.203125 191.5 203.550781 191.332031 202.492188 192.796875 C 201.941406 193.558594 201.917969 194.589844 202.417969 195.703125 C 202.957031 196.804688 203.730469 197.707031 204.738281 198.40625 Z M 203.625 193.617188 C 203.929688 193.289062 204.308594 193.144531 204.753906 193.191406 C 205.851562 193.261719 206.832031 193.636719 207.699219 194.3125 C 209.46875 195.59375 210.136719 197.265625 209.632812 197.964844 C 209.125 198.664062 207.328125 198.550781 205.558594 197.273438 C 204.753906 196.714844 204.132812 195.996094 203.695312 195.121094 C 203.414062 194.496094 203.386719 193.949219 203.625 193.617188 Z M 203.625 193.617188 " fill-opacity="1" fill-rule="nonzero"/><path fill="#a9a0f0" d="M 181.136719 200.1875 C 180.585938 200.945312 180.5625 201.976562 181.0625 203.089844 C 181.601562 204.195312 182.375 205.097656 183.382812 205.796875 C 184.496094 206.652344 185.75 207.113281 187.152344 207.175781 C 187.589844 207.203125 188.007812 207.128906 188.40625 206.953125 C 188.804688 206.777344 189.144531 206.519531 189.414062 206.175781 C 190.476562 204.710938 189.488281 202.246094 187.167969 200.570312 C 184.847656 198.890625 182.199219 198.71875 181.136719 200.1875 Z M 186.34375 201.703125 C 188.117188 202.984375 188.785156 204.65625 188.28125 205.355469 C 187.773438 206.054688 185.976562 205.941406 184.207031 204.660156 C 183.402344 204.105469 182.78125 203.386719 182.34375 202.511719 C 182.058594 201.886719 182.035156 201.335938 182.273438 201.007812 C 182.578125 200.679688 182.953125 200.535156 183.398438 200.582031 C 184.496094 200.652344 185.480469 201.023438 186.34375 201.703125 Z M 186.34375 201.703125 " fill-opacity="1" fill-rule="nonzero"/><path fill="#a9a0f0" d="M 180.6875 176.347656 C 181.796875 177.203125 183.054688 177.660156 184.453125 177.726562 C 184.890625 177.753906 185.308594 177.679688 185.707031 177.503906 C 186.109375 177.328125 186.445312 177.070312 186.71875 176.726562 C 187.777344 175.261719 186.789062 172.796875 184.46875 171.121094 C 182.148438 169.441406 179.5 169.273438 178.441406 170.738281 C 177.890625 171.496094 177.867188 172.527344 178.367188 173.640625 C 178.90625 174.742188 179.679688 175.644531 180.6875 176.347656 Z M 179.574219 171.558594 C 179.878906 171.230469 180.253906 171.085938 180.699219 171.132812 C 181.800781 171.203125 182.78125 171.578125 183.648438 172.253906 C 185.417969 173.535156 186.085938 175.207031 185.582031 175.90625 C 185.078125 176.605469 183.277344 176.492188 181.507812 175.210938 C 180.703125 174.65625 180.082031 173.9375 179.644531 173.0625 C 179.363281 172.4375 179.335938 171.886719 179.574219 171.558594 Z M 179.574219 171.558594 " fill-opacity="1" fill-rule="nonzero"/><path fill="#a9a0f0" d="M 163.117188 178.507812 C 160.792969 176.828125 158.144531 176.660156 157.085938 178.125 C 156.535156 178.886719 156.507812 179.914062 157.011719 181.03125 C 157.550781 182.132812 158.324219 183.035156 159.332031 183.734375 C 160.445312 184.589844 161.699219 185.050781 163.101562 185.113281 C 163.535156 185.144531 163.953125 185.070312 164.355469 184.890625 C 164.753906 184.714844 165.089844 184.457031 165.363281 184.117188 C 165.914062 183.355469 165.9375 182.328125 165.433594 181.210938 C 164.894531 180.109375 164.125 179.207031 163.117188 178.507812 Z M 164.226562 183.292969 C 163.722656 183.996094 161.921875 183.878906 160.152344 182.601562 C 159.351562 182.042969 158.726562 181.324219 158.289062 180.449219 C 158.007812 179.824219 157.980469 179.277344 158.21875 178.945312 C 158.523438 178.617188 158.898438 178.472656 159.347656 178.519531 C 160.445312 178.589844 161.425781 178.964844 162.289062 179.640625 C 163.09375 180.199219 163.714844 180.914062 164.15625 181.789062 C 164.441406 182.417969 164.464844 182.964844 164.226562 183.292969 Z M 164.226562 183.292969 " fill-opacity="1" fill-rule="nonzero"/><path fill="#a9a0f0" d="M 158.195312 157.308594 C 159.175781 158.046875 160.273438 158.5 161.492188 158.664062 C 161.652344 158.683594 161.8125 158.691406 161.976562 158.691406 C 162.410156 158.71875 162.828125 158.644531 163.222656 158.46875 C 163.621094 158.289062 163.957031 158.03125 164.226562 157.6875 C 165.285156 156.222656 164.300781 153.757812 161.976562 152.082031 C 159.65625 150.402344 157.007812 150.234375 155.945312 151.699219 C 154.886719 153.167969 155.875 155.628906 158.195312 157.308594 Z M 157.082031 152.523438 C 157.589844 151.820312 159.386719 151.9375 161.15625 153.214844 C 162.925781 154.496094 163.59375 156.167969 163.089844 156.867188 C 162.851562 157.199219 162.324219 157.347656 161.640625 157.273438 C 160.671875 157.128906 159.800781 156.761719 159.019531 156.171875 C 157.246094 154.894531 156.578125 153.222656 157.082031 152.519531 Z M 157.082031 152.523438 " fill-opacity="1" fill-rule="nonzero"/><path fill="#a9a0f0" d="M 134.59375 159.089844 C 133.53125 160.554688 134.519531 163.019531 136.839844 164.695312 C 137.953125 165.550781 139.207031 166.011719 140.609375 166.074219 C 141.042969 166.105469 141.460938 166.03125 141.863281 165.851562 C 142.261719 165.675781 142.597656 165.417969 142.871094 165.078125 C 143.933594 163.609375 142.945312 161.148438 140.625 159.46875 C 138.300781 157.789062 135.652344 157.625 134.59375 159.089844 Z M 139.800781 160.605469 C 141.570312 161.886719 142.242188 163.558594 141.734375 164.257812 C 141.230469 164.957031 139.433594 164.84375 137.664062 163.5625 C 135.890625 162.28125 135.222656 160.609375 135.730469 159.910156 C 136.234375 159.210938 138.03125 159.324219 139.800781 160.605469 Z M 139.800781 160.605469 " fill-opacity="1" fill-rule="nonzero"/><path fill="#a9a0f0" d="M 132.199219 135.886719 C 133.308594 136.742188 134.566406 137.203125 135.964844 137.265625 C 136.402344 137.292969 136.820312 137.21875 137.21875 137.042969 C 137.621094 136.867188 137.957031 136.609375 138.230469 136.269531 C 139.289062 134.800781 138.300781 132.335938 135.980469 130.660156 C 133.660156 128.980469 131.011719 128.8125 129.949219 130.28125 C 129.402344 131.039062 129.375 132.070312 129.878906 133.183594 C 130.417969 134.285156 131.191406 135.1875 132.199219 135.886719 Z M 131.085938 131.101562 C 131.390625 130.769531 131.765625 130.628906 132.210938 130.671875 C 133.3125 130.742188 134.292969 131.117188 135.160156 131.796875 C 136.929688 133.078125 137.597656 134.75 137.09375 135.445312 C 136.585938 136.144531 134.789062 136.035156 133.019531 134.753906 C 132.214844 134.195312 131.59375 133.480469 131.15625 132.605469 C 130.871094 131.976562 130.847656 131.429688 131.085938 131.101562 Z M 131.085938 131.101562 " fill-opacity="1" fill-rule="nonzero"/><path fill="#a9a0f0" d="M 114.625 138.046875 C 112.304688 136.367188 109.65625 136.199219 108.597656 137.667969 C 108.050781 138.425781 108.023438 139.457031 108.527344 140.570312 C 109.066406 141.671875 109.839844 142.574219 110.847656 143.277344 C 111.957031 144.132812 113.210938 144.589844 114.613281 144.65625 C 115.050781 144.683594 115.46875 144.609375 115.867188 144.433594 C 116.265625 144.257812 116.605469 143.996094 116.878906 143.65625 C 117.933594 142.191406 116.949219 139.726562 114.625 138.046875 Z M 115.738281 142.835938 C 115.234375 143.535156 113.4375 143.421875 111.664062 142.140625 C 110.863281 141.582031 110.238281 140.867188 109.800781 139.992188 C 109.519531 139.363281 109.492188 138.816406 109.730469 138.488281 C 110.035156 138.15625 110.410156 138.015625 110.859375 138.058594 C 111.957031 138.128906 112.9375 138.503906 113.804688 139.183594 C 115.574219 140.464844 116.246094 142.136719 115.738281 142.835938 Z M 115.738281 142.835938 " fill-opacity="1" fill-rule="nonzero"/><path fill="#a9a0f0" d="M 107.457031 111.238281 C 106.398438 112.707031 107.386719 115.167969 109.707031 116.847656 C 110.6875 117.585938 111.785156 118.039062 113.003906 118.203125 C 113.164062 118.222656 113.324219 118.230469 113.488281 118.230469 C 113.921875 118.257812 114.335938 118.183594 114.734375 118.007812 C 115.132812 117.828125 115.46875 117.570312 115.738281 117.226562 C 116.796875 115.761719 115.808594 113.296875 113.488281 111.617188 C 111.167969 109.941406 108.519531 109.773438 107.457031 111.238281 Z M 114.601562 116.410156 C 114.363281 116.738281 113.832031 116.882812 113.148438 116.8125 C 112.183594 116.667969 111.308594 116.304688 110.527344 115.714844 C 108.757812 114.433594 108.089844 112.761719 108.59375 112.0625 C 109.097656 111.363281 110.898438 111.476562 112.667969 112.757812 C 114.4375 114.035156 115.105469 115.707031 114.601562 116.410156 Z M 114.601562 116.410156 " fill-opacity="1" fill-rule="nonzero"/><path fill="#a9a0f0" d="M 92.132812 119.007812 C 89.8125 117.332031 87.164062 117.164062 86.105469 118.628906 C 85.046875 120.09375 86.03125 122.558594 88.355469 124.238281 C 89.335938 124.972656 90.433594 125.425781 91.648438 125.59375 C 91.8125 125.609375 91.972656 125.617188 92.136719 125.617188 C 92.570312 125.644531 92.984375 125.570312 93.382812 125.394531 C 93.78125 125.21875 94.117188 124.957031 94.386719 124.617188 C 95.445312 123.152344 94.457031 120.6875 92.132812 119.007812 Z M 93.246094 123.796875 C 93.007812 124.128906 92.480469 124.273438 91.796875 124.203125 C 90.832031 124.058594 89.957031 123.691406 89.175781 123.105469 C 87.40625 121.820312 86.734375 120.152344 87.242188 119.453125 C 87.746094 118.753906 89.546875 118.867188 91.316406 120.144531 C 93.085938 121.425781 93.753906 123.097656 93.246094 123.796875 Z M 93.246094 123.796875 " fill-opacity="1" fill-rule="nonzero"/><path fill="#a9a0f0" d="M 187.519531 247.882812 L 188.796875 248.457031 C 191.109375 243.3125 192.867188 237.980469 194.074219 232.46875 L 192.703125 232.167969 C 191.519531 237.585938 189.789062 242.824219 187.519531 247.882812 Z M 187.519531 247.882812 " fill-opacity="1" fill-rule="nonzero"/><path fill="#a9a0f0" d="M 70.597656 143.484375 L 71.40625 142.339844 L 81.058594 149.171875 L 80.25 150.316406 Z M 70.597656 143.484375 " fill-opacity="1" fill-rule="nonzero"/><path fill="#a9a0f0" d="M 91.917969 171.988281 L 92.714844 170.835938 L 98.726562 174.984375 L 97.929688 176.136719 Z M 91.917969 171.988281 " fill-opacity="1" fill-rule="nonzero"/><path fill="#a9a0f0" d="M 115.015625 174.613281 L 116.027344 173.644531 L 120.351562 178.171875 L 119.339844 179.140625 Z M 115.015625 174.613281 " fill-opacity="1" fill-rule="nonzero"/><path fill="#a9a0f0" d="M 125.730469 196.972656 L 126.527344 195.820312 L 132.265625 199.785156 L 131.46875 200.9375 Z M 125.730469 196.972656 " fill-opacity="1" fill-rule="nonzero"/><path fill="#a9a0f0" d="M 154.132812 228.90625 L 155.003906 227.808594 L 159.207031 231.152344 L 158.335938 232.246094 Z M 154.132812 228.90625 " fill-opacity="1" fill-rule="nonzero"/><path fill="#a9a0f0" d="M 157.378906 208.515625 L 158.578125 207.78125 L 161.28125 212.195312 L 160.082031 212.929688 Z M 157.378906 208.515625 " fill-opacity="1" fill-rule="nonzero"/><path fill="#a9a0f0" d="M 215.140625 229.296875 L 222.046875 227.15625 L 222.460938 228.496094 L 215.554688 230.636719 Z M 215.140625 229.296875 " fill-opacity="1" fill-rule="nonzero"/><path fill="#a9a0f0" d="M 206.796875 241.421875 L 211.253906 240.050781 L 211.667969 241.390625 L 207.210938 242.761719 Z M 206.796875 241.421875 " fill-opacity="1" fill-rule="nonzero"/><path fill="#a9a0f0" d="M 173.285156 231.75 L 174.230469 230.710938 L 178.132812 234.269531 L 177.1875 235.304688 Z M 173.285156 231.75 " fill-opacity="1" fill-rule="nonzero"/><path fill="#a9a0f0" d="M 52.324219 141.679688 L 53.183594 140.570312 L 56.226562 142.925781 L 55.371094 144.035156 Z M 52.324219 141.679688 " fill-opacity="1" fill-rule="nonzero"/><path fill="#a9a0f0" d="M 61.546875 126.035156 L 62.378906 124.910156 L 68.546875 129.476562 L 67.714844 130.601562 Z M 61.546875 126.035156 " fill-opacity="1" fill-rule="nonzero"/></svg>