<svg xmlns="http://www.w3.org/2000/svg" xmlns:xlink="http://www.w3.org/1999/xlink" width="400" zoomAndPan="magnify" viewBox="0 0 300 299.999988" height="400" preserveAspectRatio="xMidYMid meet" version="1.0"><path fill="#a9a0f0" d="M 148.914062 89.628906 C 148.945312 89.761719 148.972656 89.890625 149 90.023438 C 149.5 89.953125 150 89.882812 150.5 89.8125 C 150.453125 89.609375 150.40625 89.40625 150.359375 89.207031 C 149.878906 89.347656 149.394531 89.484375 148.914062 89.628906 Z M 143.246094 133.414062 C 148.804688 118.285156 172.453125 114.78125 186.742188 123.828125 C 199.449219 118.335938 211.800781 111.949219 225.933594 110.566406 C 218.355469 93.796875 193.730469 81.542969 165.378906 84.296875 C 166.214844 84.75 166.757812 85.042969 167.597656 85.496094 C 164.628906 85.695312 162.113281 85.867188 159.59375 86.035156 C 159.609375 86.238281 159.621094 86.445312 159.636719 86.648438 C 160.347656 87.015625 161.058594 87.382812 161.59375 87.664062 C 158.46875 87.953125 155.335938 88.242188 152.203125 88.535156 C 152.214844 88.789062 152.226562 89.042969 152.238281 89.300781 C 153.914062 89.640625 155.589844 89.988281 158.164062 90.515625 C 153.921875 90.921875 150.605469 91.234375 147.289062 91.550781 C 147.292969 91.636719 147.292969 91.71875 147.292969 91.804688 C 148.761719 91.882812 150.234375 91.960938 152.320312 92.074219 C 148.542969 93.03125 145.4375 93.824219 141.582031 94.800781 C 143.449219 95.160156 144.46875 95.355469 145.492188 95.550781 C 145.542969 95.863281 145.59375 96.175781 145.644531 96.492188 C 140.441406 95.144531 137.300781 97.984375 134.402344 101.339844 C 134.070312 101.730469 133.582031 101.984375 133.183594 102.328125 C 127.714844 107.058594 122.632812 112.125 118.875 118.765625 C 127.734375 122.363281 136.914062 125.253906 143.246094 133.414062 Z M 103.863281 205.972656 C 100.015625 199.355469 95.652344 193.429688 92.945312 186.824219 C 88.816406 176.753906 85.34375 166.347656 82.539062 155.832031 C 80.578125 148.488281 78.984375 140.863281 80.207031 133.015625 C 80.46875 131.3125 79.917969 128.902344 78.804688 127.648438 C 70.4375 118.199219 63.21875 118.328125 52.21875 120.6875 C 46.980469 121.8125 42.953125 124.832031 40.246094 129.265625 C 38.179688 132.65625 36.835938 136.484375 35.152344 140.109375 C 31.503906 147.972656 32.988281 155.675781 36.03125 163.253906 C 38.691406 169.871094 41.378906 176.496094 44.421875 182.941406 C 46.375 187.074219 48.609375 191.1875 51.386719 194.792969 C 57.972656 203.347656 66.910156 208.160156 77.621094 209.429688 C 86.835938 210.515625 95.777344 209.289062 103.863281 205.972656 Z M 221.910156 195.066406 C 220.789062 194.445312 219.6875 194.007812 218.789062 193.316406 C 215.152344 190.515625 210.871094 188.1875 208.128906 184.671875 C 202.753906 177.769531 200.085938 169.523438 199.21875 160.765625 C 198.246094 150.945312 196.179688 141.355469 191.082031 132.828125 C 189.011719 129.363281 186.058594 125.976562 182.691406 123.851562 C 177.863281 120.804688 172.105469 120.070312 166.28125 120.578125 C 152.1875 121.808594 142.355469 129.789062 145.058594 145.238281 C 146.347656 152.589844 148.191406 159.863281 150.179688 167.066406 C 151.34375 171.285156 152.753906 175.613281 155 179.320312 C 158.957031 185.855469 163.195312 192.324219 168.117188 198.144531 C 175.78125 207.199219 185.570312 212.613281 197.796875 213.277344 C 209.746094 213.925781 220.949219 203.257812 221.910156 195.066406 Z M 188.59375 125.257812 C 194.5 133.484375 198.210938 142.042969 199.773438 151.542969 C 200.78125 157.648438 201.464844 163.90625 203.386719 169.738281 C 205.125 175.011719 207.597656 180.410156 211.078125 184.660156 C 216.601562 191.40625 224.8125 194.03125 233.1875 195.808594 C 242.777344 197.847656 250.496094 194.976562 256.664062 187.371094 C 268.632812 172.613281 269.8125 156.160156 264.132812 138.824219 C 258.066406 120.3125 230.558594 109.519531 216.546875 113.90625 C 206.96875 116.902344 197.703125 120.351562 188.59375 125.257812 Z M 173.644531 207.726562 C 168.246094 201.183594 163.167969 195.460938 158.578125 189.367188 C 151.75 180.296875 147.851562 169.921875 145.980469 158.734375 C 144.925781 152.425781 142.75 146.144531 142.792969 139.859375 C 142.824219 135.109375 140.664062 132.839844 137.761719 130.265625 C 132.269531 125.40625 125.394531 123.335938 118.816406 120.632812 C 108.128906 116.242188 98.273438 118.902344 89.046875 124.527344 C 82.511719 128.511719 81.242188 134.984375 82.207031 142.246094 C 83.628906 152.929688 86.363281 163.21875 90.558594 173.152344 C 93.328125 179.707031 95.464844 186.558594 98.597656 192.929688 C 102.769531 201.410156 109.082031 207.855469 118.625 210.429688 C 120.019531 210.804688 121.382812 211.398438 122.675781 212.0625 C 134.644531 218.1875 146.882812 222.765625 160.453125 217.695312 C 166.011719 215.621094 170.914062 212.464844 173.644531 207.726562 Z M 77.183594 98.175781 C 68.121094 101.984375 61.910156 108.84375 56.496094 117.050781 C 74.457031 117.933594 73.957031 119.980469 82.292969 128.496094 C 83.574219 127.007812 84.589844 125.085938 86.183594 124.101562 C 95.164062 118.550781 104.621094 114.84375 115.496094 117.636719 C 116.214844 117.820312 117.464844 117.558594 117.886719 117.035156 C 121.339844 112.738281 124.652344 108.324219 128.183594 103.722656 C 126.273438 102.800781 124.414062 101.898438 122.554688 101.003906 C 122.664062 100.71875 122.78125 100.4375 122.890625 100.15625 C 125.3125 101 127.730469 101.847656 130.148438 102.699219 C 130.25 102.382812 130.355469 102.074219 130.457031 101.761719 C 128.65625 100.804688 126.855469 99.847656 125.058594 98.890625 C 125.195312 98.589844 125.332031 98.292969 125.46875 97.992188 C 126.761719 98.476562 128.230469 98.71875 129.304688 99.503906 C 131.210938 100.902344 132.515625 100.554688 134.195312 99.042969 C 137.632812 95.949219 141.28125 93.09375 144.863281 90.167969 C 145.949219 89.28125 147.117188 88.496094 148.511719 87.464844 C 142.566406 83.289062 136.585938 80.867188 129.828125 80.921875 C 118.992188 81.011719 108.425781 82.832031 98.535156 87.335938 C 91.238281 90.660156 84.222656 94.605469 77.082031 98.277344 Z M 224.640625 196.144531 C 219.820312 205.214844 213.957031 212.664062 203.320312 214.765625 C 193.09375 216.785156 184.035156 213.902344 176.078125 208.140625 C 169.484375 216.734375 161.167969 221.535156 150.570312 221.960938 C 140.210938 222.375 130.796875 219.152344 121.757812 214.292969 C 117.636719 212.078125 113.046875 210.742188 108.84375 208.65625 C 107.019531 207.75 105.703125 207.835938 103.851562 208.464844 C 90.679688 212.945312 77.433594 213.5 64.375 208.132812 C 57.160156 205.164062 52.164062 199.261719 46.96875 193.742188 C 41.863281 188.316406 38.96875 181.757812 36.238281 174.820312 C 33.015625 166.648438 31.234375 158.378906 30.621094 149.777344 C 30.144531 143.15625 32.703125 137.160156 35.824219 131.566406 C 38.820312 126.203125 42.710938 121.230469 48.769531 119.207031 C 52.832031 117.851562 55.382812 115.757812 57.742188 112.101562 C 62.226562 105.148438 68.535156 99.890625 76.171875 96.3125 C 84.722656 92.308594 92.921875 87.429688 101.71875 84.101562 C 113.113281 79.785156 125.089844 77.269531 137.34375 80.019531 C 141.246094 80.894531 144.785156 83.3125 148.5625 84.84375 C 149.859375 85.367188 151.527344 85.851562 152.773438 85.484375 C 161.226562 82.988281 169.777344 81.125 178.617188 81.992188 C 193.507812 83.460938 207.789062 86.941406 219.03125 97.640625 C 222.558594 101 225.058594 105.433594 228.109375 109.3125 C 228.804688 110.199219 229.714844 111.109375 230.722656 111.527344 C 237.195312 114.199219 244.175781 115.964844 250.125 119.488281 C 260.15625 125.425781 266.101562 134.460938 267.886719 146.398438 C 269.152344 154.871094 269.867188 163.074219 267.125 171.347656 C 263.609375 181.96875 257.859375 190.964844 248.203125 196.917969 C 244.066406 199.46875 239.207031 198.84375 234.609375 198.234375 C 231.183594 197.78125 227.820312 196.828125 224.640625 196.144531 " fill-opacity="1" fill-rule="nonzero"/><path fill="#a9a0f0" d="M 118.074219 202.671875 C 120.042969 204.957031 122.011719 207.242188 124.203125 209.789062 C 123.554688 209.734375 122.390625 209.996094 121.8125 209.527344 C 119.492188 207.652344 116.980469 205.828125 115.234375 203.472656 C 112.246094 199.445312 109.734375 195.058594 107.109375 190.769531 C 105.164062 187.589844 105.203125 187.351562 106.390625 183.113281 C 109.457031 188.824219 112.375 194.265625 115.296875 199.699219 C 115.34375 199.726562 115.386719 199.753906 115.429688 199.789062 C 115.402344 199.714844 115.367188 199.644531 115.339844 199.574219 C 116.28125 200.640625 117.21875 201.703125 118.164062 202.777344 C 118.148438 203.238281 118.128906 203.695312 118.109375 204.148438 C 118.492188 204.613281 118.867188 205.082031 119.246094 205.542969 C 119.25 205.539062 119.414062 205.488281 119.414062 205.488281 L 119.167969 205.488281 C 118.785156 205.070312 118.398438 204.652344 118.015625 204.234375 C 118.035156 203.714844 118.054688 203.191406 118.074219 202.671875 " fill-opacity="1" fill-rule="nonzero"/><path fill="#a9a0f0" d="M 146.683594 216.457031 C 139.257812 216.351562 125.421875 200.894531 125.324219 193.246094 C 130.835938 202.0625 137.914062 209.449219 146.683594 216.457031 " fill-opacity="1" fill-rule="nonzero"/><path fill="#a9a0f0" d="M 94.855469 169.328125 C 99.398438 178.722656 103.9375 188.117188 108.476562 197.511719 C 108.152344 197.667969 107.828125 197.828125 107.507812 197.984375 C 100.800781 189.628906 97.757812 179.480469 93.613281 169.867188 C 94.027344 169.6875 94.441406 169.507812 94.855469 169.328125 " fill-opacity="1" fill-rule="nonzero"/><path fill="#a9a0f0" d="M 134.652344 198.859375 C 139.972656 204.589844 145.292969 210.320312 150.285156 215.695312 C 146.503906 216.042969 135.292969 205.167969 134.652344 198.859375 " fill-opacity="1" fill-rule="nonzero"/><path fill="#a9a0f0" d="M 133.558594 213.132812 C 131.953125 212.34375 130.527344 212.066406 129.78125 211.203125 C 126.359375 207.238281 123.101562 203.128906 119.839844 199.027344 C 118.601562 197.472656 117.410156 195.863281 116.40625 194.15625 C 115.964844 193.410156 116.046875 192.355469 115.824219 191.054688 C 121.84375 198.550781 127.421875 205.492188 133.558594 213.132812 " fill-opacity="1" fill-rule="nonzero"/><path fill="#a9a0f0" d="M 154.34375 213.554688 C 152.414062 212.617188 150.152344 212.039062 148.632812 210.652344 C 146.789062 208.972656 144.601562 207.175781 144.402344 205.609375 C 147.265625 207.933594 150.765625 210.773438 154.269531 213.613281 C 154.269531 213.613281 154.34375 213.554688 154.34375 213.554688 " fill-opacity="1" fill-rule="nonzero"/><path fill="#a9a0f0" d="M 119.945312 154.433594 C 119.246094 152.652344 118.429688 151.601562 118.683594 151.003906 C 119.125 149.949219 120.222656 149.171875 121.046875 148.277344 C 121.574219 148.890625 122.652344 149.699219 122.519531 150.070312 C 122.066406 151.332031 121.183594 152.433594 119.945312 154.433594 " fill-opacity="1" fill-rule="nonzero"/><path fill="#a9a0f0" d="M 130.191406 148.011719 C 129.976562 148.019531 129.765625 148.027344 129.554688 148.03125 C 129.660156 148.59375 129.765625 149.15625 129.871094 149.71875 C 130.042969 149.683594 130.21875 149.648438 130.394531 149.613281 C 130.324219 149.082031 130.257812 148.546875 130.191406 148.011719 Z M 130.195312 145.984375 C 132.433594 149.003906 132.257812 150.414062 129.582031 152.183594 C 127.0625 149.132812 127.199219 147.363281 130.195312 145.984375 " fill-opacity="1" fill-rule="nonzero"/><path fill="#a9a0f0" d="M 155.273438 209.433594 C 156.15625 210.382812 157.035156 211.332031 158.308594 212.699219 C 154.652344 212.878906 153.394531 211.746094 152.492188 207.683594 C 153.726562 208.492188 154.476562 208.980469 155.234375 209.472656 C 155.335938 209.820312 155.429688 210.167969 155.519531 210.515625 C 155.519531 210.511719 155.652344 210.519531 155.652344 210.519531 L 155.457031 210.460938 C 155.394531 210.117188 155.335938 209.773438 155.273438 209.433594 " fill-opacity="1" fill-rule="nonzero"/><path fill="#a9a0f0" d="M 88.332031 151.574219 C 88.683594 151.207031 89.039062 150.835938 90.011719 149.8125 C 89.386719 153.675781 88.882812 156.789062 88.375 159.898438 C 88.066406 159.910156 87.753906 159.917969 87.4375 159.929688 C 87.566406 157.742188 87.691406 155.550781 87.816406 153.363281 L 87.71875 153.527344 C 87.953125 152.847656 88.1875 152.171875 88.421875 151.496094 L 88.332031 151.574219 " fill-opacity="1" fill-rule="nonzero"/><path fill="#a9a0f0" d="M 118.746094 131.820312 C 118.652344 131.691406 118.558594 131.5625 118.464844 131.433594 C 118.394531 131.59375 118.304688 131.746094 118.269531 131.914062 C 118.257812 131.976562 118.371094 132.0625 118.429688 132.140625 C 118.535156 132.035156 118.640625 131.929688 118.746094 131.820312 Z M 117.246094 128.78125 C 120.492188 130.09375 120.71875 131.601562 119.734375 133.222656 C 119.433594 133.714844 118.222656 133.65625 117.429688 133.851562 C 117.375 132.371094 117.324219 130.894531 117.246094 128.78125 " fill-opacity="1" fill-rule="nonzero"/><path fill="#a9a0f0" d="M 89.136719 162.925781 C 89.667969 159.964844 90.199219 157.003906 90.730469 154.046875 C 91.132812 154.117188 91.535156 154.191406 91.941406 154.265625 C 91.386719 157.21875 90.835938 160.175781 90.285156 163.128906 C 89.902344 163.058594 89.519531 162.992188 89.136719 162.925781 " fill-opacity="1" fill-rule="nonzero"/><path fill="#a9a0f0" d="M 118.039062 139.808594 L 118.269531 139.941406 L 118.308594 139.746094 Z M 118.335938 136.722656 C 119.054688 138.25 119.910156 139.210938 119.710938 139.839844 C 119.4375 140.710938 118.371094 141.335938 117.640625 142.066406 C 117.160156 141.253906 116.273438 140.425781 116.304688 139.632812 C 116.335938 138.859375 117.300781 138.125 118.335938 136.722656 " fill-opacity="1" fill-rule="nonzero"/><path fill="#a9a0f0" d="M 127.144531 140.066406 C 127.320312 138.609375 127.492188 137.148438 127.664062 135.691406 C 128.207031 135.792969 129.113281 135.742188 129.230469 136.019531 C 129.871094 137.578125 130.269531 139.203125 128.472656 140.269531 C 128.03125 140.203125 127.589844 140.136719 127.144531 140.066406 " fill-opacity="1" fill-rule="nonzero"/><path fill="#a9a0f0" d="M 87.816406 153.363281 C 87.496094 154.089844 87.171875 154.8125 86.851562 155.535156 C 86.613281 155.480469 86.371094 155.425781 86.132812 155.375 C 86.792969 152.605469 87.453125 149.839844 88.113281 147.074219 C 88.460938 147.140625 88.8125 147.207031 89.164062 147.277344 C 88.886719 148.707031 88.609375 150.144531 88.332031 151.574219 C 88.332031 151.574219 88.421875 151.496094 88.421875 151.496094 C 88.1875 152.171875 87.953125 152.847656 87.71875 153.527344 L 87.816406 153.363281 " fill-opacity="1" fill-rule="nonzero"/><path fill="#a9a0f0" d="M 84.867188 150.027344 C 85.742188 147.363281 86.617188 144.703125 87.492188 142.039062 C 87.804688 142.136719 88.117188 142.234375 88.433594 142.332031 C 87.574219 145.019531 86.710938 147.703125 85.851562 150.390625 C 85.523438 150.269531 85.195312 150.148438 84.867188 150.027344 " fill-opacity="1" fill-rule="nonzero"/><path fill="#a9a0f0" d="M 156.710938 206.554688 C 158.898438 208.25 160.292969 209.328125 161.691406 210.410156 C 161.648438 210.648438 161.605469 210.886719 161.5625 211.121094 C 160.46875 210.746094 159.167969 210.617188 158.339844 209.921875 C 157.605469 209.300781 157.394531 208.054688 156.710938 206.554688 " fill-opacity="1" fill-rule="nonzero"/><path fill="#a9a0f0" d="M 112.160156 129.984375 C 110.996094 129.199219 109.828125 128.417969 108.089844 127.25 C 109.207031 126.894531 110.292969 126.253906 110.589844 126.511719 C 111.542969 127.351562 112.207031 128.519531 112.984375 129.5625 C 112.710938 129.703125 112.4375 129.84375 112.160156 129.984375 " fill-opacity="1" fill-rule="nonzero"/><path fill="#a9a0f0" d="M 138.179688 174.003906 C 138.65625 173.074219 139.128906 172.148438 139.605469 171.21875 C 140.195312 171.691406 140.789062 172.167969 141.378906 172.644531 C 140.703125 173.375 140.027344 174.105469 139.351562 174.835938 C 138.960938 174.558594 138.570312 174.28125 138.179688 174.003906 " fill-opacity="1" fill-rule="nonzero"/><path fill="#a9a0f0" d="M 96.980469 154.261719 C 97.941406 153.59375 98.90625 152.921875 99.867188 152.25 C 100.195312 152.734375 100.527344 153.21875 100.855469 153.703125 C 99.835938 154.320312 98.820312 154.933594 97.800781 155.550781 C 97.527344 155.121094 97.253906 154.691406 96.980469 154.261719 " fill-opacity="1" fill-rule="nonzero"/><path fill="#a9a0f0" d="M 94.058594 135.832031 C 93.394531 134.785156 92.605469 134.007812 92.757812 133.691406 C 93.105469 132.976562 93.921875 132.488281 94.542969 131.914062 C 94.988281 132.394531 95.882812 133.015625 95.785156 133.332031 C 95.542969 134.113281 94.847656 134.753906 94.058594 135.832031 " fill-opacity="1" fill-rule="nonzero"/><path fill="#a9a0f0" d="M 111.183594 164.726562 C 111.75 164.617188 112.316406 164.507812 113.132812 164.351562 C 112.964844 163.421875 112.792969 162.492188 112.625 161.5625 C 112.953125 161.488281 113.28125 161.414062 113.609375 161.339844 C 113.871094 162.417969 114.582031 163.675781 114.25 164.523438 C 113.988281 165.203125 112.449219 165.382812 111.480469 165.789062 C 111.378906 165.433594 111.285156 165.078125 111.183594 164.726562 " fill-opacity="1" fill-rule="nonzero"/><path fill="#a9a0f0" d="M 91.292969 165.496094 C 91.464844 163.417969 91.640625 161.335938 91.816406 159.253906 C 92.167969 159.289062 92.519531 159.324219 92.871094 159.355469 C 92.71875 161.441406 92.566406 163.523438 92.414062 165.609375 C 92.039062 165.570312 91.664062 165.535156 91.292969 165.496094 " fill-opacity="1" fill-rule="nonzero"/><path fill="#a9a0f0" d="M 83.789062 140.285156 C 84.40625 138.445312 85.023438 136.605469 85.644531 134.769531 C 85.941406 134.871094 86.234375 134.972656 86.53125 135.074219 C 85.910156 136.917969 85.292969 138.765625 84.671875 140.609375 C 84.378906 140.503906 84.082031 140.390625 83.789062 140.285156 " fill-opacity="1" fill-rule="nonzero"/><path fill="#a9a0f0" d="M 131.019531 162.542969 C 131.390625 161.4375 131.761719 160.332031 132.132812 159.222656 C 132.527344 159.316406 132.921875 159.410156 133.320312 159.5 C 133.0625 160.65625 132.800781 161.808594 132.542969 162.960938 C 132.035156 162.824219 131.53125 162.683594 131.019531 162.542969 " fill-opacity="1" fill-rule="nonzero"/><path fill="#a9a0f0" d="M 163.910156 207.828125 C 162.632812 207.691406 161.355469 207.550781 160.078125 207.410156 C 160.117188 207.023438 160.160156 206.636719 160.199219 206.25 C 161.472656 206.4375 162.742188 206.625 164.015625 206.816406 C 163.980469 207.152344 163.945312 207.492188 163.910156 207.828125 " fill-opacity="1" fill-rule="nonzero"/><path fill="#a9a0f0" d="M 84.425781 144.46875 C 85.339844 142.617188 86.253906 140.765625 87.167969 138.914062 C 87.425781 139.039062 87.679688 139.167969 87.9375 139.292969 C 86.996094 141.164062 86.058594 143.039062 85.117188 144.914062 C 84.890625 144.765625 84.65625 144.617188 84.425781 144.46875 " fill-opacity="1" fill-rule="nonzero"/><path fill="#a9a0f0" d="M 139.914062 183.597656 C 140.6875 183.96875 141.460938 184.339844 142.230469 184.714844 C 141.878906 185.164062 141.527344 185.613281 141.171875 186.058594 C 140.550781 185.550781 139.929688 185.046875 139.308594 184.535156 C 139.511719 184.222656 139.714844 183.910156 139.914062 183.597656 " fill-opacity="1" fill-rule="nonzero"/><path fill="#a9a0f0" d="M 94.722656 146.007812 C 94.457031 145.210938 94.191406 144.414062 93.921875 143.613281 C 94.105469 143.4375 94.285156 143.257812 94.46875 143.078125 C 95.0625 143.429688 96.019531 143.679688 96.152344 144.160156 C 96.304688 144.695312 95.707031 145.441406 95.4375 146.097656 C 95.199219 146.066406 94.960938 146.035156 94.722656 146.007812 " fill-opacity="1" fill-rule="nonzero"/><path fill="#a9a0f0" d="M 112.445312 153.261719 C 111.582031 153.609375 110.722656 153.953125 109.199219 154.566406 C 109.617188 153.320312 109.753906 152.269531 110.019531 152.238281 C 110.796875 152.140625 111.621094 152.445312 112.425781 152.597656 C 112.433594 152.816406 112.4375 153.039062 112.445312 153.261719 " fill-opacity="1" fill-rule="nonzero"/><path fill="#a9a0f0" d="M 110.132812 135.042969 C 110.480469 136.164062 110.824219 137.28125 111.167969 138.402344 C 110.847656 138.507812 110.527344 138.617188 110.203125 138.722656 C 109.804688 137.632812 109.402344 136.546875 109.003906 135.457031 C 109.378906 135.320312 109.757812 135.183594 110.132812 135.042969 " fill-opacity="1" fill-rule="nonzero"/><path fill="#a9a0f0" d="M 140.792969 157.6875 C 141.480469 157.882812 142.167969 158.074219 142.855469 158.265625 C 142.582031 158.746094 142.304688 159.230469 142.03125 159.710938 C 141.457031 159.378906 140.882812 159.050781 140.3125 158.71875 C 140.472656 158.375 140.632812 158.03125 140.792969 157.6875 " fill-opacity="1" fill-rule="nonzero"/><path fill="#a9a0f0" d="M 123.84375 168.296875 C 124.289062 167.578125 124.734375 166.863281 125.175781 166.140625 C 125.523438 166.355469 125.867188 166.566406 126.210938 166.78125 C 125.761719 167.496094 125.3125 168.214844 124.867188 168.929688 C 124.523438 168.722656 124.183594 168.511719 123.84375 168.296875 " fill-opacity="1" fill-rule="nonzero"/><path fill="#a9a0f0" d="M 103.75 139.078125 C 103.496094 138.777344 103.207031 138.503906 102.992188 138.179688 C 102.722656 137.761719 102.511719 137.304688 102.273438 136.863281 C 102.53125 136.679688 102.785156 136.496094 103.039062 136.3125 C 103.554688 137.046875 104.070312 137.785156 104.582031 138.523438 C 104.304688 138.707031 104.027344 138.894531 103.75 139.078125 " fill-opacity="1" fill-rule="nonzero"/><path fill="#a9a0f0" d="M 155.695312 214.484375 C 155.78125 214.457031 155.863281 214.429688 155.949219 214.402344 C 155.960938 214.535156 155.976562 214.671875 155.992188 214.804688 C 155.902344 214.78125 155.789062 214.78125 155.730469 214.722656 C 155.683594 214.679688 155.707031 214.566406 155.695312 214.484375 " fill-opacity="1" fill-rule="nonzero"/><path fill="#a9a0f0" d="M 154.269531 213.613281 C 154.328125 213.652344 154.386719 213.691406 154.445312 213.730469 C 154.410156 213.671875 154.375 213.613281 154.34375 213.554688 C 154.34375 213.554688 154.269531 213.613281 154.269531 213.613281 " fill-opacity="1" fill-rule="nonzero"/><path fill="#a9a0f0" d="M 219.15625 176.949219 C 223.636719 182.996094 228.75 188.34375 235.566406 191.871094 C 227.800781 189.410156 222.777344 183.9375 219.15625 176.949219 " fill-opacity="1" fill-rule="nonzero"/><path fill="#a9a0f0" d="M 226.988281 190.316406 C 221.085938 186.375 216.128906 181.574219 213.011719 175.109375 C 217.765625 180.078125 222.519531 185.050781 227.273438 190.019531 C 227.179688 190.117188 227.085938 190.214844 226.988281 190.316406 " fill-opacity="1" fill-rule="nonzero"/><path fill="#a9a0f0" d="M 205.996094 153.214844 C 206.570312 152.972656 207.140625 152.730469 207.96875 152.382812 C 207 155.523438 206.085938 158.484375 205.152344 161.519531 C 203.152344 156.855469 204.117188 151.738281 208.371094 146.777344 C 207.402344 149.503906 206.734375 151.394531 206.070312 153.292969 C 205.988281 154.058594 205.894531 154.820312 205.804688 155.574219 C 205.777344 155.527344 205.75 155.488281 205.71875 155.453125 C 205.707031 155.515625 205.695312 155.582031 205.683594 155.644531 C 205.785156 154.835938 205.894531 154.023438 205.996094 153.214844 " fill-opacity="1" fill-rule="nonzero"/><path fill="#a9a0f0" d="M 203.1875 137.554688 C 202.769531 139.558594 202.355469 141.5625 201.804688 144.210938 C 202.863281 142.746094 203.558594 141.777344 204.253906 140.808594 C 204.394531 140.878906 204.53125 140.945312 204.667969 141.015625 C 203.761719 144.019531 202.851562 147.023438 201.722656 150.757812 C 200.914062 145.820312 200.265625 141.558594 202.371094 137.398438 C 202.644531 137.449219 202.917969 137.503906 203.1875 137.554688 " fill-opacity="1" fill-rule="nonzero"/><path fill="#a9a0f0" d="M 218.371094 185.015625 C 217.730469 184.84375 216.980469 184.828125 216.464844 184.472656 C 211.714844 181.195312 208.210938 176.84375 205.640625 171.710938 C 205.484375 171.394531 205.578125 170.953125 205.589844 171.179688 C 209.671875 175.644531 213.984375 180.363281 218.296875 185.082031 L 218.371094 185.015625 " fill-opacity="1" fill-rule="nonzero"/><path fill="#a9a0f0" d="M 241.675781 190.738281 C 235.996094 189.304688 232.785156 184.703125 228.523438 181.429688 C 228.738281 181.152344 228.949219 180.875 229.160156 180.597656 C 233.332031 183.976562 237.503906 187.359375 241.675781 190.738281 " fill-opacity="1" fill-rule="nonzero"/><path fill="#a9a0f0" d="M 245.980469 189.324219 C 243.441406 190.136719 234.636719 183.714844 234.3125 180.558594 C 238.105469 183.40625 242.109375 186.417969 245.980469 189.324219 " fill-opacity="1" fill-rule="nonzero"/><path fill="#a9a0f0" d="M 240.625 180.980469 C 244.261719 183.375 247.328125 185.390625 250.300781 187.351562 C 247.753906 187.894531 242.492188 184.765625 240.625 180.980469 " fill-opacity="1" fill-rule="nonzero"/><path fill="#a9a0f0" d="M 248.03125 141.648438 C 248.324219 141.886719 248.617188 142.125 248.910156 142.363281 C 249.308594 141.84375 249.703125 141.320312 250.09375 140.800781 C 249.878906 140.621094 249.664062 140.4375 249.445312 140.253906 C 248.972656 140.71875 248.503906 141.183594 248.03125 141.648438 Z M 248.554688 144.652344 C 247.539062 142.980469 246.40625 141.828125 246.640625 141.371094 C 247.164062 140.347656 248.265625 139.433594 249.347656 138.972656 C 249.742188 138.804688 251.441406 140.351562 251.339844 140.582031 C 250.816406 141.773438 249.902344 142.789062 248.554688 144.652344 " fill-opacity="1" fill-rule="nonzero"/><path fill="#a9a0f0" d="M 202.257812 153.402344 C 203.425781 150.003906 204.597656 146.605469 205.765625 143.210938 C 206.125 143.332031 206.484375 143.449219 206.84375 143.570312 C 205.695312 146.960938 204.546875 150.355469 203.402344 153.746094 C 203.019531 153.632812 202.636719 153.515625 202.257812 153.402344 " fill-opacity="1" fill-rule="nonzero"/><path fill="#a9a0f0" d="M 224.480469 135.242188 C 224.398438 134.976562 224.34375 134.804688 224.289062 134.636719 C 224.050781 134.746094 223.796875 134.832031 223.59375 134.984375 C 223.546875 135.019531 223.714844 135.453125 223.753906 135.449219 C 224 135.421875 224.238281 135.320312 224.480469 135.242188 Z M 224.308594 132.117188 C 225.113281 133.558594 225.953125 134.46875 225.761719 134.839844 C 225.304688 135.714844 224.355469 136.335938 223.605469 137.058594 C 223.085938 136.421875 222.054688 135.683594 222.15625 135.171875 C 222.328125 134.300781 223.21875 133.574219 224.308594 132.117188 " fill-opacity="1" fill-rule="nonzero"/><path fill="#a9a0f0" d="M 247.65625 127.832031 C 248.125 128.789062 248.59375 129.75 249.0625 130.707031 C 248.320312 131.015625 247.578125 131.324219 246.832031 131.636719 C 246.625 130.519531 246.414062 129.402344 246.207031 128.285156 C 246.691406 128.136719 247.175781 127.980469 247.65625 127.832031 " fill-opacity="1" fill-rule="nonzero"/><path fill="#a9a0f0" d="M 227.207031 155.035156 C 226.945312 156.1875 226.6875 157.339844 226.425781 158.492188 C 225.640625 158.304688 224.847656 158.113281 224.0625 157.925781 C 224.558594 156.8125 225.054688 155.699219 225.550781 154.585938 C 226.101562 154.734375 226.65625 154.886719 227.207031 155.035156 " fill-opacity="1" fill-rule="nonzero"/><path fill="#a9a0f0" d="M 245.625 179.988281 C 248.628906 181.585938 250.980469 182.839844 253.335938 184.09375 C 250.601562 184.832031 247.726562 183.484375 245.625 179.988281 " fill-opacity="1" fill-rule="nonzero"/><path fill="#a9a0f0" d="M 198.941406 141.746094 C 199.523438 139.375 200.105469 137.007812 200.683594 134.636719 C 201.03125 134.722656 201.378906 134.804688 201.726562 134.890625 C 201.148438 137.261719 200.574219 139.632812 199.996094 142.003906 C 199.644531 141.917969 199.292969 141.832031 198.941406 141.746094 " fill-opacity="1" fill-rule="nonzero"/><path fill="#a9a0f0" d="M 208.59375 157.546875 C 208.101562 159.9375 207.609375 162.332031 207.117188 164.722656 C 206.753906 164.644531 206.390625 164.5625 206.03125 164.480469 C 206.59375 162.105469 207.160156 159.726562 207.722656 157.351562 C 208.011719 157.414062 208.304688 157.480469 208.59375 157.546875 " fill-opacity="1" fill-rule="nonzero"/><path fill="#a9a0f0" d="M 211.601562 159.753906 C 210.941406 161.757812 210.285156 163.765625 209.625 165.769531 C 209.328125 165.679688 209.03125 165.589844 208.730469 165.5 C 209.328125 163.472656 209.925781 161.445312 210.523438 159.417969 C 210.882812 159.53125 211.242188 159.640625 211.601562 159.753906 " fill-opacity="1" fill-rule="nonzero"/><path fill="#a9a0f0" d="M 199.359375 125.953125 C 198.472656 126.496094 197.746094 127.234375 197.410156 127.089844 C 196.800781 126.820312 196.242188 126.078125 196.046875 125.421875 C 195.972656 125.160156 197.078125 124.15625 197.386719 124.261719 C 198.050781 124.488281 198.550781 125.210938 199.359375 125.953125 " fill-opacity="1" fill-rule="nonzero"/><path fill="#a9a0f0" d="M 197.0625 138.320312 C 197.777344 136.277344 198.492188 134.234375 199.207031 132.195312 C 199.480469 132.285156 199.75 132.375 200.023438 132.464844 C 199.375 134.503906 198.726562 136.546875 198.078125 138.585938 C 197.738281 138.496094 197.398438 138.410156 197.0625 138.320312 " fill-opacity="1" fill-rule="nonzero"/><path fill="#a9a0f0" d="M 217.71875 142.363281 C 216.390625 143.675781 215.667969 144.386719 214.300781 145.738281 C 214.457031 144.128906 214.566406 143.027344 214.671875 141.921875 C 215.695312 142.070312 216.722656 142.21875 217.71875 142.363281 " fill-opacity="1" fill-rule="nonzero"/><path fill="#a9a0f0" d="M 250.09375 177.8125 C 251.8125 178.847656 253.535156 179.882812 255.25 180.917969 C 255.113281 181.1875 254.972656 181.457031 254.832031 181.726562 C 253.019531 180.796875 251.207031 179.863281 249.398438 178.929688 C 249.628906 178.558594 249.863281 178.183594 250.09375 177.8125 " fill-opacity="1" fill-rule="nonzero"/><path fill="#a9a0f0" d="M 253.386719 176.074219 C 255.023438 176.75 256.660156 177.429688 258.296875 178.109375 C 258.199219 178.402344 258.101562 178.695312 258.003906 178.988281 C 256.328125 178.4375 254.65625 177.882812 252.984375 177.332031 C 253.121094 176.910156 253.253906 176.496094 253.386719 176.074219 " fill-opacity="1" fill-rule="nonzero"/><path fill="#a9a0f0" d="M 238.070312 130.066406 C 237.617188 130.789062 237.160156 131.515625 236.707031 132.238281 C 236.0625 131.746094 235.421875 131.257812 234.304688 130.402344 C 235.730469 129.933594 236.515625 129.675781 237.300781 129.417969 C 237.558594 129.632812 237.816406 129.847656 238.070312 130.066406 " fill-opacity="1" fill-rule="nonzero"/><path fill="#a9a0f0" d="M 214.007812 163.6875 C 213.515625 165.511719 213.023438 167.332031 212.527344 169.152344 C 212.226562 169.078125 211.917969 169.007812 211.617188 168.929688 C 212.035156 167.074219 212.457031 165.21875 212.878906 163.367188 C 213.253906 163.476562 213.632812 163.582031 214.007812 163.6875 " fill-opacity="1" fill-rule="nonzero"/><path fill="#a9a0f0" d="M 212.222656 125.65625 C 212.46875 126.378906 212.71875 127.105469 212.964844 127.828125 C 212.4375 128 211.90625 128.171875 211.378906 128.339844 C 211.265625 127.554688 211.15625 126.765625 211.042969 125.980469 C 211.4375 125.871094 211.828125 125.761719 212.222656 125.65625 " fill-opacity="1" fill-rule="nonzero"/><path fill="#a9a0f0" d="M 234.929688 120.023438 C 236.3125 120.890625 237.132812 121.40625 238.476562 122.25 C 236.980469 122.492188 236.089844 122.640625 234.929688 122.828125 C 234.929688 122.066406 234.929688 121.34375 234.929688 120.023438 " fill-opacity="1" fill-rule="nonzero"/><path fill="#a9a0f0" d="M 256.433594 173.367188 C 257.570312 173.921875 258.707031 174.472656 259.839844 175.019531 C 259.703125 175.332031 259.566406 175.640625 259.429688 175.945312 C 258.296875 175.449219 257.164062 174.945312 256.03125 174.449219 C 256.164062 174.089844 256.300781 173.726562 256.433594 173.367188 " fill-opacity="1" fill-rule="nonzero"/><path fill="#a9a0f0" d="M 255.410156 156.195312 C 254.945312 155.585938 254.476562 154.976562 254.011719 154.367188 C 254.410156 154.109375 255.117188 153.585938 255.167969 153.640625 C 255.660156 154.199219 256.046875 154.855469 256.460938 155.480469 C 256.109375 155.71875 255.761719 155.957031 255.410156 156.195312 " fill-opacity="1" fill-rule="nonzero"/><path fill="#a9a0f0" d="M 237.644531 150.210938 C 238.472656 150.253906 239.304688 150.296875 240.132812 150.339844 C 240.128906 150.632812 240.128906 150.921875 240.125 151.214844 C 239.292969 151.214844 238.464844 151.214844 237.628906 151.214844 C 237.632812 150.878906 237.640625 150.542969 237.644531 150.210938 " fill-opacity="1" fill-rule="nonzero"/><path fill="#a9a0f0" d="M 195.824219 134.589844 C 196.542969 133.027344 197.265625 131.464844 197.984375 129.90625 C 198.230469 130.011719 198.476562 130.117188 198.71875 130.226562 C 198.027344 131.800781 197.332031 133.375 196.640625 134.949219 C 196.367188 134.828125 196.09375 134.707031 195.824219 134.589844 " fill-opacity="1" fill-rule="nonzero"/><path fill="#a9a0f0" d="M 229.90625 139.480469 C 230.421875 140.023438 230.933594 140.5625 231.417969 141.070312 C 231.304688 141.367188 231.230469 141.550781 231.160156 141.734375 C 230.4375 141.324219 229.714844 140.914062 228.988281 140.507812 C 229.292969 140.164062 229.601562 139.824219 229.90625 139.480469 " fill-opacity="1" fill-rule="nonzero"/><path fill="#a9a0f0" d="M 222.960938 122.023438 C 222.34375 122.25 221.828125 122.5625 221.710938 122.453125 C 221.394531 122.148438 221.152344 121.6875 221.070312 121.25 C 221.046875 121.117188 221.800781 120.636719 221.902344 120.710938 C 222.265625 120.980469 222.503906 121.421875 222.960938 122.023438 " fill-opacity="1" fill-rule="nonzero"/><path fill="#a9a0f0" d="M 260.25 145.878906 C 259.757812 145.183594 259.265625 144.484375 258.773438 143.785156 C 259.011719 143.613281 259.25 143.4375 259.492188 143.265625 C 259.980469 143.964844 260.46875 144.667969 260.957031 145.371094 C 260.722656 145.539062 260.484375 145.710938 260.25 145.878906 " fill-opacity="1" fill-rule="nonzero"/><path fill="#a9a0f0" d="M 227.273438 190.019531 C 227.886719 190.457031 228.496094 190.898438 229.101562 191.335938 C 228.828125 191.648438 228.554688 191.964844 228.277344 192.28125 C 227.847656 191.625 227.417969 190.972656 226.988281 190.316406 C 227.085938 190.214844 227.179688 190.117188 227.273438 190.019531 " fill-opacity="1" fill-rule="nonzero"/><path fill="#a9a0f0" d="M 218.296875 185.082031 C 218.433594 185.191406 218.570312 185.304688 218.707031 185.414062 C 218.589844 185.453125 218.476562 185.488281 218.355469 185.523438 C 218.359375 185.355469 218.363281 185.1875 218.367188 185.019531 C 218.371094 185.015625 218.296875 185.082031 218.296875 185.082031 " fill-opacity="1" fill-rule="nonzero"/><path fill="#a9a0f0" d="M 180.257812 196.636719 C 179.722656 195.578125 179.191406 194.523438 178.300781 192.765625 C 184.960938 198.324219 190.964844 203.335938 196.96875 208.347656 C 196.867188 208.542969 196.761719 208.734375 196.660156 208.929688 C 193.53125 206.863281 190.316406 204.910156 187.296875 202.691406 C 184.8125 200.863281 182.554688 198.722656 180.195312 196.722656 L 180.257812 196.636719 " fill-opacity="1" fill-rule="nonzero"/><path fill="#a9a0f0" d="M 153.535156 159.433594 C 153.472656 159.273438 153.40625 159.117188 153.34375 158.957031 C 153.285156 159.03125 153.175781 159.105469 153.175781 159.183594 C 153.171875 159.375 153.21875 159.5625 153.246094 159.753906 C 153.34375 159.648438 153.4375 159.539062 153.535156 159.433594 Z M 151.832031 154.027344 C 152.367188 152.789062 152.902344 151.546875 153.4375 150.304688 C 153.691406 150.335938 153.941406 150.371094 154.1875 150.402344 C 154.1875 152.710938 154.1875 155.019531 154.1875 157.058594 C 154.402344 156.695312 154.820312 155.984375 155.234375 155.269531 C 155.40625 155.335938 155.582031 155.402344 155.753906 155.46875 C 154.960938 158.757812 154.164062 162.039062 153.371094 165.328125 L 153.417969 165.230469 C 152.015625 161.582031 150.617188 157.933594 151.9375 153.929688 L 151.832031 154.027344 " fill-opacity="1" fill-rule="nonzero"/><path fill="#a9a0f0" d="M 185.6875 204.476562 C 179.089844 201.109375 171.015625 191.929688 170.53125 187.441406 C 175.492188 193.019531 180.707031 198.878906 185.6875 204.476562 " fill-opacity="1" fill-rule="nonzero"/><path fill="#a9a0f0" d="M 186.210938 195.003906 C 191.988281 199.589844 197.394531 203.875 202.59375 208.007812 C 199.160156 208.03125 187.40625 199.160156 186.210938 195.003906 " fill-opacity="1" fill-rule="nonzero"/><path fill="#a9a0f0" d="M 208.160156 207 C 204.003906 207.042969 197.222656 202.382812 195.632812 198.277344 C 199.867188 201.222656 203.925781 204.046875 208.160156 207 " fill-opacity="1" fill-rule="nonzero"/><path fill="#a9a0f0" d="M 202.230469 198.066406 C 205.25 199.890625 208.265625 201.710938 211.253906 203.519531 C 209.742188 205.53125 205.269531 203.429688 202.230469 198.066406 " fill-opacity="1" fill-rule="nonzero"/><path fill="#a9a0f0" d="M 208.136719 197.628906 C 210.753906 199.136719 212.945312 200.394531 215.175781 201.679688 C 212.820312 202.949219 209.335938 201.109375 208.136719 197.628906 " fill-opacity="1" fill-rule="nonzero"/><path fill="#a9a0f0" d="M 155.289062 170.792969 C 155.976562 167.777344 156.660156 164.761719 157.347656 161.742188 C 157.679688 161.816406 158.011719 161.890625 158.339844 161.964844 C 157.652344 164.980469 156.96875 168 156.28125 171.015625 C 155.953125 170.941406 155.621094 170.867188 155.289062 170.792969 " fill-opacity="1" fill-rule="nonzero"/><path fill="#a9a0f0" d="M 184.527344 153.140625 C 184.148438 154.027344 183.769531 154.917969 183.390625 155.804688 C 184.085938 155.949219 184.78125 156.097656 186.300781 156.417969 C 185.019531 157.058594 184.1875 157.472656 183.355469 157.890625 C 182.832031 156.636719 182.015625 155.402344 181.925781 154.121094 C 181.890625 153.578125 183.375 152.925781 184.171875 152.324219 C 184.292969 152.597656 184.410156 152.867188 184.527344 153.140625 " fill-opacity="1" fill-rule="nonzero"/><path fill="#a9a0f0" d="M 159.882812 164.351562 C 159.089844 168.097656 158.441406 171.15625 157.78125 174.261719 C 156.660156 172.125 157.429688 167.933594 159.882812 164.351562 " fill-opacity="1" fill-rule="nonzero"/><path fill="#a9a0f0" d="M 172.097656 194.453125 C 169.46875 193.597656 166.792969 190.523438 165.996094 186.738281 C 168.007812 189.335938 170.023438 191.933594 172.035156 194.53125 L 172.097656 194.453125 " fill-opacity="1" fill-rule="nonzero"/><path fill="#a9a0f0" d="M 170.914062 158.890625 C 172.042969 159.59375 173.175781 160.292969 174.304688 160.996094 C 173.839844 161.613281 173.378906 162.234375 172.917969 162.851562 C 171.925781 161.957031 170.9375 161.054688 169.945312 160.15625 C 170.269531 159.734375 170.59375 159.3125 170.914062 158.890625 " fill-opacity="1" fill-rule="nonzero"/><path fill="#a9a0f0" d="M 158.160156 177.316406 C 158.671875 174.300781 159.183594 171.289062 159.691406 168.273438 C 160.015625 168.332031 160.339844 168.394531 160.664062 168.453125 C 160.183594 171.472656 159.707031 174.492188 159.226562 177.515625 C 158.871094 177.449219 158.515625 177.382812 158.160156 177.316406 " fill-opacity="1" fill-rule="nonzero"/><path fill="#a9a0f0" d="M 159.53125 152.914062 C 160.382812 152.097656 161.234375 151.285156 162.082031 150.46875 C 162.570312 151.066406 163.054688 151.65625 163.542969 152.246094 C 162.5 152.859375 161.460938 153.472656 160.421875 154.082031 C 160.125 153.691406 159.828125 153.300781 159.53125 152.914062 " fill-opacity="1" fill-rule="nonzero"/><path fill="#a9a0f0" d="M 178.710938 131.402344 C 178.769531 131.335938 178.890625 131.253906 178.878906 131.210938 C 178.835938 131.074219 178.746094 130.949219 178.671875 130.820312 C 178.609375 130.957031 178.53125 131.09375 178.492188 131.238281 C 178.488281 131.269531 178.625 131.339844 178.710938 131.402344 Z M 176.144531 130.402344 C 177.550781 129.894531 178.503906 129.546875 180.023438 129 C 180.023438 130.25 180.234375 131.238281 179.941406 132.046875 C 179.789062 132.457031 178.503906 132.914062 178.140625 132.691406 C 177.378906 132.21875 176.890625 131.3125 176.144531 130.402344 " fill-opacity="1" fill-rule="nonzero"/><path fill="#a9a0f0" d="M 180.746094 146.582031 C 179.257812 147.082031 177.765625 147.574219 176.277344 148.070312 C 176.09375 147.582031 175.90625 147.089844 175.722656 146.601562 C 177.1875 146.011719 178.652344 145.425781 180.113281 144.839844 C 180.324219 145.421875 180.535156 146 180.746094 146.582031 " fill-opacity="1" fill-rule="nonzero"/><path fill="#a9a0f0" d="M 156.722656 130.972656 C 158.292969 130.246094 159.207031 129.824219 160.121094 129.402344 C 160.328125 129.933594 160.785156 130.523438 160.679688 130.984375 C 160.519531 131.699219 159.980469 132.328125 159.601562 132.996094 C 158.839844 132.460938 158.082031 131.929688 156.722656 130.972656 " fill-opacity="1" fill-rule="nonzero"/><path fill="#a9a0f0" d="M 187.84375 170.273438 C 187.988281 170.960938 188.128906 171.648438 188.351562 172.738281 C 188.90625 171.765625 189.296875 171.074219 189.695312 170.378906 C 189.984375 170.515625 190.273438 170.648438 190.566406 170.785156 C 190.058594 171.605469 189.699219 172.621094 188.984375 173.175781 C 188.515625 173.542969 187.53125 173.253906 186.777344 173.253906 C 186.867188 172.246094 186.957031 171.238281 187.050781 170.230469 C 187.316406 170.246094 187.582031 170.257812 187.84375 170.273438 " fill-opacity="1" fill-rule="nonzero"/><path fill="#a9a0f0" d="M 152.757812 137.109375 C 152.929688 137.808594 153.359375 138.582031 153.195312 139.191406 C 153.019531 139.84375 152.28125 140.34375 151.785156 140.910156 C 151.347656 140.433594 150.472656 139.859375 150.554688 139.503906 C 150.757812 138.609375 151.398438 137.816406 151.863281 136.980469 C 152.160156 137.023438 152.457031 137.066406 152.757812 137.109375 " fill-opacity="1" fill-rule="nonzero"/><path fill="#a9a0f0" d="M 161.226562 179.289062 C 161.128906 177.285156 161.035156 175.28125 160.9375 173.277344 C 161.304688 173.261719 161.675781 173.246094 162.042969 173.234375 C 162.132812 175.238281 162.222656 177.242188 162.3125 179.246094 C 161.949219 179.261719 161.589844 179.273438 161.226562 179.289062 " fill-opacity="1" fill-rule="nonzero"/><path fill="#a9a0f0" d="M 153.371094 165.328125 C 154.042969 163.550781 154.71875 161.773438 155.394531 159.996094 C 155.585938 160.050781 155.777344 160.101562 155.96875 160.15625 C 155.441406 162.84375 154.914062 165.527344 154.386719 168.210938 C 154.214844 168.210938 154.042969 168.210938 153.871094 168.210938 C 153.726562 167.210938 153.578125 166.207031 153.421875 165.21875 C 153.417969 165.230469 153.371094 165.328125 153.371094 165.328125 " fill-opacity="1" fill-rule="nonzero"/><path fill="#a9a0f0" d="M 164.433594 143.980469 C 163.269531 144.691406 162.679688 145.335938 162.257812 145.238281 C 161.632812 145.097656 161.128906 144.425781 160.570312 143.980469 C 161.019531 143.484375 161.457031 142.597656 161.917969 142.585938 C 162.53125 142.570312 163.167969 143.230469 164.433594 143.980469 " fill-opacity="1" fill-rule="nonzero"/><path fill="#a9a0f0" d="M 182.535156 137.746094 C 182.339844 138.609375 182.402344 139.824219 181.867188 140.226562 C 181.410156 140.5625 180.253906 139.953125 178.722656 139.609375 C 180.144531 138.523438 180.886719 137.957031 181.628906 137.390625 C 181.929688 137.511719 182.234375 137.628906 182.535156 137.746094 " fill-opacity="1" fill-rule="nonzero"/><path fill="#a9a0f0" d="M 151.242188 145.273438 C 150.84375 147.074219 150.445312 148.871094 150.046875 150.667969 C 149.769531 150.617188 149.488281 150.566406 149.210938 150.511719 C 149.523438 148.730469 149.835938 146.945312 150.152344 145.160156 C 150.515625 145.199219 150.878906 145.234375 151.242188 145.273438 " fill-opacity="1" fill-rule="nonzero"/><path fill="#a9a0f0" d="M 211.152344 194.898438 C 212.445312 195.652344 213.738281 196.410156 215.03125 197.164062 C 214.835938 197.527344 214.644531 197.890625 214.449219 198.257812 C 213.125 197.5625 211.800781 196.871094 210.476562 196.179688 C 210.699219 195.753906 210.925781 195.328125 211.152344 194.898438 " fill-opacity="1" fill-rule="nonzero"/><path fill="#a9a0f0" d="M 167.570312 132.800781 C 167.414062 133.757812 167.324219 134.734375 167.027344 135.640625 C 166.980469 135.773438 165.957031 135.585938 165.390625 135.546875 C 165.660156 134.53125 165.929688 133.515625 166.199219 132.5 C 166.660156 132.601562 167.117188 132.699219 167.570312 132.800781 " fill-opacity="1" fill-rule="nonzero"/><path fill="#a9a0f0" d="M 151.9375 153.929688 C 151.425781 153.570312 150.425781 153.113281 150.476562 152.863281 C 150.765625 151.371094 151.304688 149.929688 152.367188 148.675781 C 152.183594 150.464844 152.003906 152.25 151.828125 154.03125 C 151.832031 154.027344 151.9375 153.929688 151.9375 153.929688 " fill-opacity="1" fill-rule="nonzero"/><path fill="#a9a0f0" d="M 198.183594 182.441406 C 197.472656 182.878906 197.070312 183.332031 196.722656 183.289062 C 196.382812 183.246094 196.101562 182.710938 195.796875 182.390625 C 196.070312 182.144531 196.359375 181.6875 196.621094 181.703125 C 197.035156 181.726562 197.433594 182.0625 198.183594 182.441406 " fill-opacity="1" fill-rule="nonzero"/><path fill="#a9a0f0" d="M 172.789062 195.183594 C 173.457031 195.980469 174.125 196.78125 174.792969 197.578125 C 174.574219 197.707031 174.355469 197.835938 174.136719 197.964844 C 173.71875 197.015625 173.300781 196.0625 172.878906 195.117188 C 172.871094 195.121094 172.789062 195.183594 172.789062 195.183594 " fill-opacity="1" fill-rule="nonzero"/><path fill="#a9a0f0" d="M 176.445312 199.019531 C 176.566406 199.144531 176.683594 199.273438 176.800781 199.402344 C 176.675781 199.484375 176.515625 199.660156 176.429688 199.632812 C 176.285156 199.585938 176.1875 199.402344 176.070312 199.277344 C 176.195312 199.191406 176.316406 199.109375 176.445312 199.019531 " fill-opacity="1" fill-rule="nonzero"/><path fill="#a9a0f0" d="M 172.035156 194.53125 C 172.28125 194.753906 172.527344 194.972656 172.78125 195.1875 C 172.789062 195.183594 172.871094 195.121094 172.878906 195.117188 C 172.621094 194.894531 172.359375 194.679688 172.097656 194.457031 C 172.097656 194.453125 172.035156 194.53125 172.035156 194.53125 " fill-opacity="1" fill-rule="nonzero"/><path fill="#a9a0f0" d="M 180.195312 196.722656 C 180.195312 196.679688 180.195312 196.636719 180.191406 196.59375 C 180.21875 196.605469 180.246094 196.613281 180.265625 196.628906 C 180.257812 196.636719 180.195312 196.722656 180.195312 196.722656 " fill-opacity="1" fill-rule="nonzero"/><path fill="#a9a0f0" d="M 48.539062 178.644531 L 48.539062 178.804688 L 48.476562 178.710938 C 48.476562 178.710938 48.546875 178.636719 48.539062 178.644531 Z M 43.011719 174.605469 C 41.097656 169.796875 39.179688 164.992188 37.261719 160.1875 C 37.796875 159.972656 38.332031 159.757812 38.863281 159.546875 C 40.070312 162.605469 41.203125 165.695312 42.492188 168.722656 C 43.765625 171.703125 45.191406 174.617188 46.554688 177.558594 C 46.894531 177.457031 47.234375 177.351562 47.574219 177.25 C 47.746094 176.417969 47.914062 175.585938 48.277344 173.816406 C 51.621094 180.863281 54.621094 187.183594 58.035156 194.382812 C 53.847656 191.226562 52.816406 186.835938 50.226562 183.625 C 50.222656 183.316406 50.21875 183.015625 50.214844 182.714844 C 50.207031 183.003906 50.203125 183.292969 50.195312 183.585938 C 49.210938 184.46875 49.207031 184.472656 48.652344 183.59375 C 46.753906 180.578125 44.855469 177.5625 42.953125 174.546875 L 43.011719 174.605469 " fill-opacity="1" fill-rule="nonzero"/><path fill="#a9a0f0" d="M 72.824219 204.246094 C 66.875 199.636719 63.011719 193.496094 60.039062 186.71875 C 59.605469 185.730469 59.402344 184.640625 59.089844 183.597656 C 59.359375 183.441406 59.632812 183.285156 59.902344 183.128906 C 60.4375 183.8125 61.0625 184.4375 61.484375 185.179688 C 63.816406 189.246094 65.933594 193.449219 68.457031 197.390625 C 70.121094 199.988281 72.351562 202.21875 74.132812 204.382812 C 74.265625 204.394531 73.5 204.328125 72.738281 204.265625 L 72.824219 204.246094 " fill-opacity="1" fill-rule="nonzero"/><path fill="#a9a0f0" d="M 54.320312 177.257812 C 57.472656 185.871094 60.390625 194.433594 67.203125 201.164062 C 61.863281 200.726562 51.570312 181.511719 54.320312 177.257812 " fill-opacity="1" fill-rule="nonzero"/><path fill="#a9a0f0" d="M 67.128906 188.074219 C 72.0625 194.417969 74.847656 202.234375 82.605469 205.582031 C 82.554688 205.832031 82.496094 206.085938 82.441406 206.339844 C 81.773438 206.339844 80.941406 206.597656 80.457031 206.300781 C 73.832031 202.242188 69.472656 196.292969 66.46875 189.25 C 66.421875 189.136719 66.652344 188.90625 67.128906 188.074219 " fill-opacity="1" fill-rule="nonzero"/><path fill="#a9a0f0" d="M 86.105469 200.152344 L 86.074219 200.375 L 86.226562 200.351562 Z M 83.933594 202.28125 C 83.65625 201.636719 83.46875 200.9375 83.09375 200.355469 C 82.195312 198.964844 81.21875 197.628906 80.269531 196.273438 C 80.539062 196.050781 80.804688 195.828125 81.074219 195.605469 C 82.234375 196.679688 83.402344 197.75 84.679688 198.925781 C 84.972656 198.402344 85.238281 197.929688 85.460938 197.539062 C 88.449219 199.601562 91.402344 201.636719 94.351562 203.671875 L 94.242188 203.5625 C 94.28125 205.363281 93.226562 205.152344 92.050781 204.765625 C 91.191406 204.484375 90.320312 204.246094 89.453125 203.980469 C 89.3125 203.566406 89.171875 203.160156 89.03125 202.753906 C 88.882812 202.503906 88.734375 202.253906 88.589844 202 C 88.3125 201.898438 88.035156 201.792969 88.496094 201.964844 C 88.023438 202.042969 88.328125 201.992188 88.628906 201.953125 C 88.777344 202.199219 88.933594 202.4375 89.089844 202.679688 C 89.207031 203.117188 89.328125 203.550781 89.445312 203.984375 C 89.765625 204.375 90.082031 204.761719 90.402344 205.152344 C 89.957031 205.257812 89.371094 205.59375 89.089844 205.425781 C 88.230469 204.902344 87.53125 204.105469 86.671875 203.570312 C 85.78125 203.011719 84.773438 202.628906 83.816406 202.167969 L 83.933594 202.28125 " fill-opacity="1" fill-rule="nonzero"/><path fill="#a9a0f0" d="M 83.816406 202.167969 C 84.886719 203.121094 85.957031 204.070312 87.25 205.222656 C 84.695312 206.679688 83.617188 204.503906 82.390625 203.539062 C 76.710938 199.078125 73.167969 193.988281 73.726562 191.675781 C 77.097656 195.175781 80.515625 198.730469 83.933594 202.28125 C 83.933594 202.28125 83.816406 202.167969 83.816406 202.167969 " fill-opacity="1" fill-rule="nonzero"/><path fill="#a9a0f0" d="M 94.75 200.910156 C 94.765625 201.007812 94.761719 201.113281 94.808594 201.195312 C 94.832031 201.238281 94.9375 201.238281 95.007812 201.257812 C 94.890625 201.167969 94.78125 201.078125 94.667969 200.988281 C 94.628906 200.949219 94.589844 200.90625 94.550781 200.867188 C 94.617188 200.882812 94.683594 200.894531 94.75 200.910156 Z M 96.722656 202.246094 C 96.757812 202.265625 96.792969 202.28125 96.832031 202.296875 C 96.742188 202.261719 96.652344 202.222656 96.5625 202.1875 C 96.621094 202.214844 96.679688 202.234375 96.722656 202.246094 Z M 94.351562 203.671875 C 92.4375 201.867188 90.523438 200.0625 88.609375 198.261719 C 88.824219 198.023438 89.042969 197.789062 89.253906 197.550781 C 92.851562 198.917969 97.277344 198.59375 99.511719 202.867188 C 97.964844 204.679688 96.171875 204.59375 94.238281 203.558594 C 94.242188 203.5625 94.351562 203.671875 94.351562 203.671875 " fill-opacity="1" fill-rule="nonzero"/><path fill="#a9a0f0" d="M 73.457031 160.109375 C 74.230469 161.042969 75.007812 161.976562 76.0625 163.246094 C 76.40625 159.785156 76.277344 159.660156 73.546875 160.183594 C 73.59375 160.296875 73.640625 160.414062 73.628906 160.378906 C 73.628906 160.378906 73.542969 160.246094 73.457031 160.109375 Z M 79.589844 161.59375 C 77.585938 162.949219 76.183594 164.492188 75.527344 164.21875 C 74.097656 163.628906 73.046875 162.117188 71.84375 160.984375 C 72.910156 159.980469 74.082031 158.078125 75.015625 158.1875 C 76.367188 158.34375 77.542969 159.964844 79.589844 161.59375 " fill-opacity="1" fill-rule="nonzero"/><path fill="#a9a0f0" d="M 62.234375 146.5625 C 62.539062 146.378906 62.839844 146.191406 63.140625 146.003906 C 62.78125 145.46875 62.417969 144.9375 62.054688 144.402344 C 61.8125 144.558594 61.570312 144.714844 61.328125 144.875 C 61.632812 145.4375 61.933594 146 62.234375 146.5625 Z M 59.050781 145.476562 C 60.527344 144.273438 61.882812 142.832031 62.152344 143.011719 C 63.257812 143.753906 64.035156 144.984375 64.9375 146.039062 C 63.925781 146.769531 62.980469 147.910156 61.886719 148.070312 C 61.234375 148.167969 60.355469 146.730469 59.050781 145.476562 " fill-opacity="1" fill-rule="nonzero"/><path fill="#a9a0f0" d="M 51.160156 141.273438 C 51.039062 141.117188 50.914062 140.964844 50.792969 140.8125 C 50.632812 140.984375 50.476562 141.15625 50.320312 141.328125 C 50.476562 141.449219 50.628906 141.648438 50.792969 141.664062 C 50.902344 141.675781 51.03125 141.417969 51.160156 141.273438 Z M 50.832031 144.429688 C 49.605469 142.757812 48.523438 141.84375 48.292969 140.75 C 48.152344 140.074219 49.316406 139.128906 49.894531 138.304688 C 50.933594 139.242188 52.183594 140.042969 52.882812 141.1875 C 53.109375 141.558594 51.890625 142.8125 50.832031 144.429688 " fill-opacity="1" fill-rule="nonzero"/><path fill="#a9a0f0" d="M 72.019531 140.007812 C 71.222656 139.015625 70.277344 138.351562 70.324219 137.761719 C 70.382812 137.03125 71.257812 136.363281 71.78125 135.667969 C 72.480469 136.308594 73.46875 136.839844 73.761719 137.628906 C 73.917969 138.046875 72.859375 138.914062 72.019531 140.007812 " fill-opacity="1" fill-rule="nonzero"/><path fill="#a9a0f0" d="M 59.039062 133.140625 C 59.792969 132.160156 60.550781 131.179688 61.308594 130.199219 C 61.765625 130.785156 62.695312 131.800781 62.605469 131.898438 C 61.863281 132.726562 60.929688 133.390625 60.054688 134.101562 C 59.714844 133.78125 59.378906 133.460938 59.039062 133.140625 " fill-opacity="1" fill-rule="nonzero"/><path fill="#a9a0f0" d="M 85.113281 181.679688 C 84.226562 182.3125 83.375 183.015625 82.417969 183.507812 C 82.265625 183.585938 81.628906 182.726562 81.214844 182.300781 C 82.214844 181.664062 83.21875 181.023438 84.222656 180.390625 C 84.519531 180.820312 84.816406 181.25 85.113281 181.679688 " fill-opacity="1" fill-rule="nonzero"/><path fill="#a9a0f0" d="M 42.578125 152.414062 C 41.792969 153.085938 41.007812 153.753906 40.222656 154.421875 C 39.960938 153.933594 39.378906 153.117188 39.488281 153.011719 C 40.152344 152.363281 40.976562 151.878906 41.746094 151.335938 C 42.023438 151.695312 42.300781 152.054688 42.578125 152.414062 " fill-opacity="1" fill-rule="nonzero"/><path fill="#a9a0f0" d="M 54.273438 147.324219 C 54.859375 148.046875 55.542969 148.574219 55.449219 148.839844 C 55.253906 149.40625 54.660156 149.835938 54.226562 150.320312 C 53.769531 149.878906 52.992188 149.46875 52.941406 148.984375 C 52.898438 148.554688 53.660156 148.039062 54.273438 147.324219 " fill-opacity="1" fill-rule="nonzero"/><path fill="#a9a0f0" d="M 56.527344 156.554688 C 55.898438 157.109375 55.292969 157.703125 54.601562 158.167969 C 54.519531 158.222656 53.964844 157.578125 53.628906 157.257812 C 54.273438 156.671875 54.921875 156.089844 55.566406 155.503906 C 55.886719 155.855469 56.207031 156.203125 56.527344 156.554688 " fill-opacity="1" fill-rule="nonzero"/><path fill="#a9a0f0" d="M 41.789062 134.628906 C 43.28125 135.21875 44.28125 135.316406 44.511719 135.792969 C 44.742188 136.253906 44.179688 137.101562 43.214844 137.742188 C 42.875 136.996094 42.53125 136.25 41.789062 134.628906 " fill-opacity="1" fill-rule="nonzero"/><path fill="#a9a0f0" d="M 60.667969 169.890625 C 61.421875 169.503906 62.175781 169.113281 62.929688 168.726562 C 63.066406 169.070312 63.375 169.679688 63.3125 169.722656 C 62.644531 170.164062 61.914062 170.511719 61.203125 170.890625 C 61.023438 170.558594 60.847656 170.222656 60.667969 169.890625 " fill-opacity="1" fill-rule="nonzero"/><path fill="#a9a0f0" d="M 54.414062 131.234375 C 53.664062 131.4375 52.917969 131.640625 52.167969 131.839844 C 52.097656 131.464844 51.929688 130.773438 51.976562 130.761719 C 52.6875 130.535156 53.425781 130.394531 54.15625 130.238281 C 54.242188 130.570312 54.328125 130.902344 54.414062 131.234375 " fill-opacity="1" fill-rule="nonzero"/><path fill="#a9a0f0" d="M 73.324219 174.335938 C 72.570312 174.589844 71.8125 174.84375 71.058594 175.097656 C 70.945312 174.796875 70.835938 174.496094 70.726562 174.199219 C 71.46875 173.910156 72.210938 173.625 72.953125 173.335938 C 73.078125 173.671875 73.203125 174.003906 73.324219 174.335938 " fill-opacity="1" fill-rule="nonzero"/><path fill="#a9a0f0" d="M 52.558594 167.789062 C 51.898438 167.878906 51.238281 167.964844 50.582031 168.054688 C 50.539062 167.792969 50.5 167.53125 50.457031 167.273438 C 51.113281 167.15625 51.769531 167.046875 52.429688 166.933594 C 52.472656 167.21875 52.515625 167.503906 52.558594 167.789062 " fill-opacity="1" fill-rule="nonzero"/><path fill="#a9a0f0" d="M 42.953125 174.546875 L 42.804688 174.421875 C 42.804688 174.421875 42.996094 174.578125 43.007812 174.589844 C 43.011719 174.605469 42.953125 174.546875 42.953125 174.546875 " fill-opacity="1" fill-rule="nonzero"/><path fill="#a9a0f0" d="M 72.738281 204.265625 L 72.597656 204.175781 C 72.597656 204.175781 72.8125 204.242188 72.816406 204.246094 C 72.824219 204.246094 72.738281 204.265625 72.738281 204.265625 " fill-opacity="1" fill-rule="nonzero"/><path fill="#a9a0f0" d="M 191.222656 121.476562 C 186.375 119.222656 182.171875 117.261719 177.941406 115.292969 C 181.503906 114.316406 187.140625 116.796875 191.222656 121.476562 " fill-opacity="1" fill-rule="nonzero"/><path fill="#a9a0f0" d="M 201.761719 115.007812 C 196.976562 112.027344 192.1875 109.042969 187.480469 106.113281 C 190.371094 105.664062 193.722656 107.621094 201.761719 115.007812 " fill-opacity="1" fill-rule="nonzero"/><path fill="#a9a0f0" d="M 204.609375 111.636719 C 199.804688 108.285156 194.742188 104.753906 189.8125 101.3125 C 192.960938 100.886719 202.636719 107.660156 204.609375 111.636719 " fill-opacity="1" fill-rule="nonzero"/><path fill="#a9a0f0" d="M 203.9375 99.511719 C 207.925781 102.714844 211.914062 105.917969 215.902344 109.121094 C 215.683594 109.402344 215.464844 109.683594 215.246094 109.96875 C 211.199219 106.835938 207.152344 103.707031 203.109375 100.574219 C 203.382812 100.21875 203.660156 99.863281 203.9375 99.511719 " fill-opacity="1" fill-rule="nonzero"/><path fill="#a9a0f0" d="M 217.511719 109.429688 C 214.382812 105.707031 211.253906 101.984375 208.152344 98.292969 C 212.402344 100.730469 215.375 104.628906 218.582031 108.28125 C 218.226562 108.664062 217.867188 109.046875 217.511719 109.429688 " fill-opacity="1" fill-rule="nonzero"/><path fill="#a9a0f0" d="M 185.726562 110.433594 C 190.621094 110.421875 194.292969 112.976562 197.582031 116.324219 C 193.628906 114.359375 189.679688 112.394531 185.726562 110.433594 " fill-opacity="1" fill-rule="nonzero"/><path fill="#a9a0f0" d="M 193.414062 118.515625 C 189.28125 116.4375 185.261719 114.410156 181.382812 112.457031 C 183.703125 111.121094 190.96875 114.5625 193.414062 118.515625 " fill-opacity="1" fill-rule="nonzero"/><path fill="#a9a0f0" d="M 199.742188 101.125 C 203.234375 104.007812 206.726562 106.890625 210.214844 109.773438 C 210.011719 110.039062 209.804688 110.304688 209.597656 110.566406 C 206.050781 107.714844 202.5 104.863281 198.953125 102.011719 C 199.214844 101.714844 199.480469 101.421875 199.742188 101.125 " fill-opacity="1" fill-rule="nonzero"/><path fill="#a9a0f0" d="M 165.234375 103.578125 C 164.566406 103.054688 164.160156 102.523438 163.660156 102.417969 C 163.359375 102.351562 162.914062 102.941406 162.535156 103.242188 C 162.9375 103.65625 163.277344 104.230469 163.769531 104.421875 C 164.039062 104.527344 164.558594 103.988281 165.234375 103.578125 Z M 167.007812 103.535156 C 165.347656 104.535156 164.28125 105.691406 163.480469 105.53125 C 162.414062 105.316406 161.554688 104.074219 160.601562 103.269531 C 161.675781 102.554688 162.675781 101.480469 163.84375 101.257812 C 164.523438 101.128906 165.460938 102.367188 167.007812 103.535156 " fill-opacity="1" fill-rule="nonzero"/><path fill="#a9a0f0" d="M 181.265625 97.679688 C 180.78125 97.460938 180.460938 97.183594 180.195312 97.230469 C 179.894531 97.285156 179.640625 97.621094 179.363281 97.839844 C 179.671875 98.148438 179.976562 98.460938 180.28125 98.773438 C 180.539062 98.488281 180.796875 98.203125 181.265625 97.679688 Z M 183.234375 97.738281 C 181.8125 98.867188 180.878906 100.15625 180.15625 100.042969 C 179.257812 99.910156 178.539062 98.613281 177.746094 97.820312 C 178.710938 97.085938 179.597656 96.140625 180.683594 95.726562 C 181.074219 95.574219 181.949219 96.6875 183.234375 97.738281 " fill-opacity="1" fill-rule="nonzero"/><path fill="#a9a0f0" d="M 152.957031 113.320312 C 152.636719 113.027344 152.445312 112.71875 152.246094 112.710938 C 152.054688 112.703125 151.855469 113.015625 151.660156 113.1875 C 151.855469 113.375 152.023438 113.652344 152.253906 113.71875 C 152.40625 113.761719 152.644531 113.507812 152.957031 113.320312 Z M 149.34375 113.632812 C 150.515625 112.886719 151.683594 112.136719 152.851562 111.390625 C 153.21875 112.253906 154.101562 113.304688 153.867188 113.945312 C 152.96875 116.40625 151.335938 115.203125 149.34375 113.632812 " fill-opacity="1" fill-rule="nonzero"/><path fill="#a9a0f0" d="M 145.597656 107.210938 C 146.085938 107.496094 146.570312 107.78125 147.550781 108.359375 C 147.425781 107.113281 147.34375 106.292969 147.199219 104.863281 C 145.90625 105.769531 145.078125 106.355469 144.25 106.9375 C 144.078125 106.734375 143.90625 106.53125 143.738281 106.324219 C 144.644531 105.609375 145.496094 104.476562 146.484375 104.347656 C 147.074219 104.265625 148.253906 105.664062 148.460938 106.566406 C 148.640625 107.328125 147.800781 108.324219 147.414062 109.21875 C 146.644531 108.8125 145.878906 108.40625 145.113281 108.003906 C 145.273438 107.738281 145.4375 107.472656 145.597656 107.210938 " fill-opacity="1" fill-rule="nonzero"/><path fill="#a9a0f0" d="M 139.296875 115.210938 C 138.558594 113.890625 137.902344 113.238281 137.941406 112.632812 C 137.984375 112.03125 138.730469 111.480469 139.164062 110.90625 C 139.707031 111.464844 140.570312 111.964844 140.695312 112.609375 C 140.800781 113.15625 140.0625 113.867188 139.296875 115.210938 " fill-opacity="1" fill-rule="nonzero"/><path fill="#a9a0f0" d="M 170.410156 109.429688 C 171.128906 108.699219 171.847656 107.96875 172.566406 107.242188 C 172.933594 107.660156 173.660156 108.398438 173.613281 108.453125 C 172.957031 109.199219 172.195312 109.851562 171.457031 110.523438 C 171.109375 110.160156 170.757812 109.792969 170.410156 109.429688 " fill-opacity="1" fill-rule="nonzero"/><path fill="#a9a0f0" d="M 153.890625 98.34375 C 153.203125 97.34375 152.4375 96.621094 152.574219 96.351562 C 152.890625 95.722656 153.578125 95.105469 154.246094 94.902344 C 154.523438 94.820312 155.519531 95.832031 155.480469 96.285156 C 155.433594 96.867188 154.671875 97.394531 153.890625 98.34375 " fill-opacity="1" fill-rule="nonzero"/><path fill="#a9a0f0" d="M 195.839844 94.203125 C 195.15625 92.59375 194.472656 90.984375 193.785156 89.371094 C 194.082031 89.242188 194.375 89.117188 194.667969 88.988281 C 195.390625 90.597656 196.113281 92.207031 196.832031 93.816406 C 196.503906 93.945312 196.171875 94.074219 195.839844 94.203125 " fill-opacity="1" fill-rule="nonzero"/><path fill="#a9a0f0" d="M 171.097656 90.769531 C 172.09375 90.394531 173.089844 90.019531 174.085938 89.640625 C 174.238281 90.042969 174.386719 90.445312 174.539062 90.851562 C 173.546875 91.242188 172.558594 91.632812 171.566406 92.023438 C 171.410156 91.605469 171.253906 91.1875 171.097656 90.769531 " fill-opacity="1" fill-rule="nonzero"/><path fill="#a9a0f0" d="M 190.824219 88.117188 C 191.761719 89.5625 192.703125 91.007812 193.644531 92.453125 C 193.359375 92.644531 193.074219 92.835938 192.792969 93.027344 C 191.828125 91.597656 190.863281 90.167969 189.898438 88.738281 C 190.207031 88.53125 190.515625 88.324219 190.824219 88.117188 " fill-opacity="1" fill-rule="nonzero"/><path fill="#a9a0f0" d="M 130.179688 108.371094 C 130.777344 109.394531 131.324219 109.941406 131.347656 110.507812 C 131.363281 110.90625 130.675781 111.335938 130.300781 111.757812 C 129.910156 111.261719 129.328125 110.816406 129.195312 110.261719 C 129.105469 109.882812 129.636719 109.351562 130.179688 108.371094 " fill-opacity="1" fill-rule="nonzero"/><path fill="#a9a0f0" d="M 131.8125 119.878906 C 132.339844 118.96875 132.867188 118.058594 133.394531 117.148438 C 133.753906 117.332031 134.109375 117.515625 134.464844 117.695312 C 134.007812 118.691406 133.546875 119.6875 133.089844 120.679688 C 132.664062 120.414062 132.238281 120.144531 131.8125 119.878906 " fill-opacity="1" fill-rule="nonzero"/><path fill="#a9a0f0" d="M 201.980469 95.953125 C 201.261719 94.53125 200.539062 93.105469 199.820312 91.679688 C 200.105469 91.527344 200.390625 91.375 200.671875 91.222656 C 201.386719 92.65625 202.097656 94.089844 202.808594 95.527344 C 202.53125 95.667969 202.257812 95.8125 201.980469 95.953125 " fill-opacity="1" fill-rule="nonzero"/><path fill="#a9a0f0" d="M 188.027344 87.644531 C 188.769531 88.910156 189.515625 90.175781 190.257812 91.445312 C 189.933594 91.636719 189.609375 91.824219 189.285156 92.019531 C 188.511719 90.800781 187.742188 89.578125 186.972656 88.359375 C 187.324219 88.121094 187.675781 87.882812 188.027344 87.644531 " fill-opacity="1" fill-rule="nonzero"/><path fill="#a9a0f0" d="M 184.828125 86.375 C 185.671875 87.796875 186.519531 89.21875 187.363281 90.644531 C 187.066406 90.816406 186.765625 90.992188 186.46875 91.164062 C 185.636719 89.761719 184.808594 88.355469 183.976562 86.949219 C 184.257812 86.757812 184.542969 86.566406 184.828125 86.375 " fill-opacity="1" fill-rule="nonzero"/><path fill="#a9a0f0" d="M 198.019531 94.4375 C 197.53125 93.109375 197.046875 91.785156 196.566406 90.460938 C 196.910156 90.335938 197.253906 90.210938 197.601562 90.085938 C 198.089844 91.410156 198.578125 92.734375 199.066406 94.058594 C 198.71875 94.183594 198.367188 94.308594 198.019531 94.4375 " fill-opacity="1" fill-rule="nonzero"/><path fill="#a9a0f0" d="M 143.332031 100.285156 C 142.542969 100.246094 141.757812 100.207031 140.972656 100.167969 C 140.980469 99.886719 140.988281 99.605469 140.996094 99.320312 C 141.78125 99.320312 142.570312 99.320312 143.355469 99.320312 C 143.347656 99.644531 143.339844 99.964844 143.332031 100.285156 " fill-opacity="1" fill-rule="nonzero"/><path fill="#a9a0f0" d="M 124.449219 85.488281 C 127.191406 83.910156 135.625 87.59375 139.78125 92.867188 C 134.476562 90.316406 129.304688 87.824219 124.449219 85.488281 " fill-opacity="1" fill-rule="nonzero"/><path fill="#a9a0f0" d="M 69.269531 106.148438 C 66.296875 109.285156 63.324219 112.421875 60.351562 115.558594 C 61.828125 111.238281 64.621094 107.960938 68.320312 105.417969 C 68.410156 105.355469 68.886719 105.84375 69.179688 106.074219 L 69.269531 106.148438 " fill-opacity="1" fill-rule="nonzero"/><path fill="#a9a0f0" d="M 71.324219 107.335938 C 68.941406 109.917969 66.644531 112.417969 64.285156 114.980469 C 63.890625 111.871094 67.074219 108.433594 71.324219 107.335938 " fill-opacity="1" fill-rule="nonzero"/><path fill="#a9a0f0" d="M 126.261719 89.285156 C 129.496094 90.945312 132.726562 92.601562 135.960938 94.261719 C 135.777344 94.632812 135.597656 95.003906 135.414062 95.378906 C 132.179688 93.789062 128.949219 92.203125 125.714844 90.613281 C 125.894531 90.171875 126.082031 89.730469 126.261719 89.285156 " fill-opacity="1" fill-rule="nonzero"/><path fill="#a9a0f0" d="M 133.011719 83.242188 C 135.902344 84.929688 138.792969 86.617188 141.683594 88.300781 C 141.46875 88.664062 141.257812 89.027344 141.046875 89.390625 C 138.152344 87.71875 135.257812 86.050781 132.367188 84.378906 C 132.582031 84 132.796875 83.625 133.011719 83.242188 " fill-opacity="1" fill-rule="nonzero"/><path fill="#a9a0f0" d="M 101.816406 105.027344 C 101.421875 105.097656 101.027344 105.167969 100.632812 105.238281 C 100.789062 106.210938 100.945312 107.183594 101.097656 108.15625 C 101.519531 108.078125 101.941406 108 102.359375 107.921875 C 102.179688 106.957031 101.996094 105.992188 101.816406 105.027344 Z M 98.078125 106.265625 C 99.765625 105.109375 100.632812 104.511719 101.5 103.914062 C 102.226562 104.996094 103.253906 106.003906 103.535156 107.1875 C 103.660156 107.710938 101.976562 109.320312 101.632812 109.179688 C 100.546875 108.730469 99.710938 107.6875 98.078125 106.265625 " fill-opacity="1" fill-rule="nonzero"/><path fill="#a9a0f0" d="M 97.894531 90.042969 C 96.671875 91.914062 95.453125 93.789062 94.230469 95.660156 C 93.871094 95.460938 93.511719 95.265625 93.152344 95.066406 C 94.296875 93.203125 95.4375 91.335938 96.632812 89.507812 C 96.652344 89.484375 97.386719 89.925781 97.785156 90.152344 L 97.894531 90.042969 " fill-opacity="1" fill-rule="nonzero"/><path fill="#a9a0f0" d="M 132.988281 98.03125 C 130.847656 97.238281 128.710938 96.441406 126.570312 95.644531 C 129.347656 94.507812 131.394531 95.597656 133.273438 97.179688 C 133.179688 97.464844 133.085938 97.746094 132.988281 98.03125 " fill-opacity="1" fill-rule="nonzero"/><path fill="#a9a0f0" d="M 85.269531 95.742188 C 84.007812 97.878906 82.75 100.011719 81.515625 102.105469 C 80.394531 99.613281 82.640625 95.667969 85.148438 95.859375 L 85.269531 95.742188 " fill-opacity="1" fill-rule="nonzero"/><path fill="#a9a0f0" d="M 85.148438 95.859375 C 85.933594 95.179688 86.71875 94.5 87.503906 93.820312 C 87.664062 93.949219 87.824219 94.074219 87.988281 94.203125 C 86.804688 96.28125 85.621094 98.359375 84.4375 100.441406 C 84.1875 100.335938 83.9375 100.234375 83.6875 100.128906 C 84.214844 98.667969 84.742188 97.207031 85.269531 95.742188 C 85.269531 95.742188 85.148438 95.859375 85.148438 95.859375 " fill-opacity="1" fill-rule="nonzero"/><path fill="#a9a0f0" d="M 82.15625 110.695312 C 83.363281 110.597656 84.570312 110.496094 85.777344 110.394531 C 85.652344 111.023438 85.628906 112.152344 85.390625 112.199219 C 84.367188 112.402344 83.28125 112.285156 82.214844 112.285156 C 82.195312 111.757812 82.175781 111.226562 82.15625 110.695312 " fill-opacity="1" fill-rule="nonzero"/><path fill="#a9a0f0" d="M 67.570312 115.273438 C 69.0625 113.785156 70.554688 112.296875 72.046875 110.8125 C 72.292969 111.039062 72.542969 111.265625 72.789062 111.488281 C 71.402344 113.097656 70.015625 114.699219 68.625 116.304688 C 68.273438 115.960938 67.921875 115.617188 67.570312 115.273438 " fill-opacity="1" fill-rule="nonzero"/><path fill="#a9a0f0" d="M 87.960938 97.992188 C 88.957031 96.085938 89.953125 94.179688 90.945312 92.269531 C 91.285156 92.441406 91.625 92.617188 91.964844 92.785156 C 90.964844 94.691406 89.964844 96.59375 88.964844 98.496094 C 88.632812 98.328125 88.296875 98.160156 87.960938 97.992188 " fill-opacity="1" fill-rule="nonzero"/><path fill="#a9a0f0" d="M 97.785156 90.152344 C 98.894531 89.453125 100.003906 88.757812 101.113281 88.066406 C 101.222656 88.191406 101.332031 88.320312 101.4375 88.449219 C 100.53125 89.808594 99.628906 91.167969 98.128906 93.429688 C 98.015625 91.761719 97.957031 90.898438 97.898438 90.042969 C 97.894531 90.042969 97.785156 90.152344 97.785156 90.152344 " fill-opacity="1" fill-rule="nonzero"/><path fill="#a9a0f0" d="M 77.25 102.808594 C 78.234375 101.121094 79.222656 99.433594 80.207031 97.746094 C 80.480469 97.894531 80.753906 98.042969 81.027344 98.1875 C 80.148438 99.96875 79.269531 101.75 78.394531 103.53125 C 78.011719 103.289062 77.628906 103.046875 77.25 102.808594 " fill-opacity="1" fill-rule="nonzero"/><path fill="#a9a0f0" d="M 112.625 101.886719 C 113.011719 102.902344 113.9375 104.109375 113.664062 104.894531 C 113.238281 106.113281 111.882812 107.035156 111.320312 104.796875 C 111.136719 104.070312 111.707031 103.15625 111.933594 102.328125 C 112.164062 102.179688 112.394531 102.03125 112.625 101.886719 " fill-opacity="1" fill-rule="nonzero"/><path fill="#a9a0f0" d="M 77.082031 98.277344 C 77.429688 98.617188 78.140625 99.101562 78.074219 99.269531 C 77.457031 100.765625 76.707031 102.210938 75.996094 103.667969 C 75.71875 103.558594 75.441406 103.453125 75.164062 103.34375 C 75.832031 101.621094 76.507812 99.902344 77.179688 98.179688 C 77.183594 98.175781 77.082031 98.277344 77.082031 98.277344 " fill-opacity="1" fill-rule="nonzero"/><path fill="#a9a0f0" d="M 92.960938 99.375 C 93.769531 98.8125 94.554688 98.203125 95.421875 97.753906 C 95.515625 97.703125 96.089844 98.578125 96.4375 99.027344 C 95.546875 99.558594 94.660156 100.089844 93.769531 100.625 C 93.5 100.207031 93.230469 99.792969 92.960938 99.375 " fill-opacity="1" fill-rule="nonzero"/><path fill="#a9a0f0" d="M 72.113281 116.503906 C 73.230469 115.371094 74.347656 114.238281 75.464844 113.109375 C 75.714844 113.332031 75.964844 113.554688 76.214844 113.78125 C 75.734375 114.335938 75.253906 114.890625 74.769531 115.445312 C 74.230469 116.058594 73.6875 116.671875 73.148438 117.285156 C 72.800781 117.023438 72.457031 116.765625 72.113281 116.503906 " fill-opacity="1" fill-rule="nonzero"/><path fill="#a9a0f0" d="M 105.144531 93.738281 C 105.84375 93.214844 106.542969 92.695312 107.242188 92.171875 C 107.628906 92.730469 108.019531 93.289062 108.40625 93.84375 C 107.566406 94.242188 106.726562 94.640625 105.886719 95.039062 C 105.640625 94.601562 105.390625 94.171875 105.144531 93.738281 " fill-opacity="1" fill-rule="nonzero"/><path fill="#a9a0f0" d="M 75.667969 118.953125 C 76.683594 117.921875 77.695312 116.890625 78.710938 115.855469 C 78.972656 116.089844 79.234375 116.324219 79.5 116.5625 C 78.582031 117.632812 77.664062 118.703125 76.746094 119.777344 C 76.386719 119.503906 76.027344 119.226562 75.667969 118.953125 " fill-opacity="1" fill-rule="nonzero"/><path fill="#a9a0f0" d="M 80.980469 120.800781 C 80.339844 121.535156 79.703125 122.269531 79.0625 123.007812 C 78.738281 122.6875 78.410156 122.371094 78.082031 122.050781 C 78.707031 121.292969 79.332031 120.539062 79.953125 119.78125 C 80.296875 120.121094 80.636719 120.460938 80.980469 120.800781 " fill-opacity="1" fill-rule="nonzero"/><path fill="#a9a0f0" d="M 120.679688 96.328125 C 119.800781 96.394531 118.925781 96.460938 118.046875 96.53125 C 118.007812 96.1875 117.96875 95.847656 117.925781 95.507812 C 118.804688 95.390625 119.679688 95.269531 120.558594 95.148438 C 120.601562 95.539062 120.640625 95.933594 120.679688 96.328125 " fill-opacity="1" fill-rule="nonzero"/><path fill="#a9a0f0" d="M 106.152344 86.6875 C 105.671875 87.480469 105.191406 88.273438 104.710938 89.070312 C 104.445312 88.90625 104.183594 88.742188 103.917969 88.578125 C 104.402344 87.789062 104.890625 87 105.375 86.210938 C 105.636719 86.371094 105.894531 86.53125 106.152344 86.6875 " fill-opacity="1" fill-rule="nonzero"/><path fill="#a9a0f0" d="M 92.78125 111.730469 C 92.9375 112.316406 93.09375 112.90625 93.253906 113.496094 C 92.867188 113.558594 92.175781 113.746094 92.144531 113.664062 C 91.929688 113.140625 91.859375 112.558594 91.742188 111.992188 C 92.085938 111.902344 92.433594 111.816406 92.78125 111.730469 " fill-opacity="1" fill-rule="nonzero"/><path fill="#a9a0f0" d="M 69.179688 106.074219 L 69.390625 106.03125 C 69.390625 106.03125 69.261719 106.136719 69.265625 106.140625 C 69.269531 106.148438 69.179688 106.074219 69.179688 106.074219 " fill-opacity="1" fill-rule="nonzero"/></svg>