<svg xmlns="http://www.w3.org/2000/svg" xmlns:xlink="http://www.w3.org/1999/xlink" width="400" zoomAndPan="magnify" viewBox="0 0 300 299.999988" height="400" preserveAspectRatio="xMidYMid meet" version="1.0"><defs><clipPath id="10fac8c264"><path d="M 30 44 L 270 44 L 270 256.800781 L 30 256.800781 Z M 30 44 " clip-rule="nonzero"/></clipPath></defs><g clip-path="url(#10fac8c264)"><path fill="#a9a0f0" d="M 186.121094 77.667969 C 186.875 76.632812 187.621094 75.542969 188.429688 74.503906 C 193.855469 67.53125 199.117188 60.421875 204.808594 53.671875 C 207.3125 50.703125 210.503906 48.203125 213.710938 45.964844 C 217.714844 43.167969 221.136719 43.933594 223.851562 47.953125 C 225.125 49.84375 225.988281 52.035156 226.894531 54.152344 C 230.484375 62.519531 233.605469 71.117188 237.660156 79.246094 C 243.996094 91.945312 247.164062 105.199219 246.980469 119.359375 C 246.917969 124.382812 247.222656 129.429688 247.710938 134.433594 C 248.054688 137.925781 248.53125 141.535156 249.742188 144.796875 C 255.257812 159.628906 258.992188 174.921875 262.375 190.339844 C 263.621094 196.023438 265.703125 201.527344 267.425781 207.105469 C 267.785156 208.273438 268.273438 209.402344 268.609375 210.578125 C 270.007812 215.53125 269.179688 219.796875 265.476562 223.710938 C 258.230469 231.367188 249.03125 234.011719 239.007812 234.570312 C 229.988281 235.070312 221.113281 233.675781 212.308594 231.785156 C 209.320312 231.140625 206.269531 230.777344 202.621094 230.183594 C 203.511719 231.949219 204.070312 233.003906 204.582031 234.082031 C 206.789062 238.726562 205.894531 243.574219 202.160156 247.117188 C 196.113281 252.855469 189.019531 256.277344 180.613281 256.53125 C 176.265625 256.664062 171.914062 256.4375 167.5625 256.417969 C 157.371094 256.371094 147.164062 256.023438 136.988281 256.410156 C 126.433594 256.8125 116.082031 255.867188 105.808594 253.605469 C 91.878906 250.542969 77.917969 247.605469 64.035156 244.335938 C 55.816406 242.398438 47.910156 239.417969 40.519531 235.261719 C 38.285156 234.007812 36.105469 232.535156 34.214844 230.816406 C 30.839844 227.75 29.976562 223.855469 31.878906 219.679688 C 33.167969 216.851562 34.617188 214.007812 36.480469 211.539062 C 41.152344 205.359375 45.871094 199.191406 50.984375 193.382812 C 62.339844 180.488281 72.6875 166.941406 81.660156 152.230469 C 95.96875 128.78125 110.542969 105.484375 126.472656 83.074219 C 129.382812 78.976562 131.96875 74.644531 134.757812 70.457031 C 137.9375 65.675781 141.476562 61.203125 146.339844 57.984375 C 152.824219 53.703125 157.875 53.5 164.011719 58.238281 C 171.511719 64.03125 179.671875 69.167969 185.214844 77.183594 C 185.347656 77.375 185.671875 77.433594 186.121094 77.667969 Z M 116.902344 206.472656 C 121.082031 211.453125 126.144531 213.605469 130.9375 216.132812 C 137.109375 219.382812 143.566406 221.695312 150.539062 222.746094 C 158.929688 224.011719 167.347656 223.871094 175.773438 224.105469 C 190.175781 224.507812 204.574219 224.695312 218.792969 227.824219 C 224.980469 229.183594 231.496094 229.617188 237.847656 229.515625 C 246.984375 229.371094 255.566406 227.144531 262.371094 220.222656 C 265 217.546875 265.773438 214.800781 264.703125 211.371094 C 264.300781 210.074219 263.753906 208.820312 263.339844 207.527344 C 261.605469 202.09375 259.488281 196.742188 258.257812 191.195312 C 254.898438 176.042969 251.234375 161.007812 245.445312 146.550781 C 244.445312 144.058594 243.769531 141.324219 243.542969 138.648438 C 242.898438 131.066406 242.410156 123.460938 242.148438 115.851562 C 241.820312 106.390625 240.652344 97.136719 236.664062 88.433594 C 231.402344 76.9375 226.066406 65.480469 221.996094 53.464844 C 219.898438 47.277344 217.671875 46.871094 212.472656 50.984375 C 207.203125 55.148438 202.898438 60.238281 198.882812 65.585938 C 190.867188 76.265625 183.9375 87.640625 177.597656 99.367188 C 166.339844 120.1875 155.113281 141.011719 142.8125 161.261719 C 133.789062 176.113281 125.5 191.410156 116.902344 206.472656 Z M 194.933594 229.503906 C 185.371094 229.226562 175.722656 229.011719 166.078125 228.652344 C 155.035156 228.242188 144.070312 227.292969 133.90625 222.359375 C 129.503906 220.226562 125.078125 218.125 120.785156 215.785156 C 118.660156 214.625 116.636719 213.148438 114.875 211.488281 C 112.746094 209.476562 112.890625 208.125 114.558594 205.523438 C 115.285156 204.394531 115.816406 203.121094 116.28125 201.851562 C 119.753906 192.371094 124.203125 183.375 129.296875 174.664062 C 142.34375 152.363281 155.304688 130.011719 168.3125 107.6875 C 172.761719 100.050781 177.25 92.441406 181.710938 84.808594 C 182.175781 84.015625 182.554688 83.171875 182.914062 82.460938 C 177.984375 74.394531 171.570312 69.894531 161.5 61.660156 C 156.542969 57.609375 152.789062 57.660156 148.023438 62.054688 C 144.464844 65.335938 141.4375 69.265625 138.550781 73.1875 C 135.816406 76.898438 133.605469 80.996094 131.109375 84.886719 C 114.578125 110.636719 97.984375 136.347656 81.511719 162.132812 C 75.933594 170.863281 69.910156 179.230469 63.152344 187.085938 C 55.964844 195.433594 48.820312 203.820312 41.816406 212.320312 C 39.667969 214.925781 37.894531 217.878906 36.214844 220.820312 C 34.492188 223.832031 34.972656 225.738281 37.613281 227.984375 C 38.4375 228.683594 39.328125 229.375 40.304688 229.808594 C 46.507812 232.554688 52.539062 235.957031 59.007812 237.765625 C 71.816406 241.347656 84.886719 243.988281 97.828125 247.09375 C 111.238281 250.3125 124.738281 252.210938 138.609375 251.832031 C 150.425781 251.511719 162.261719 252.109375 174.089844 252.210938 C 177.210938 252.238281 180.34375 252.078125 183.449219 251.78125 C 189.597656 251.195312 194.40625 247.929688 198.582031 243.660156 C 200.859375 241.332031 200.84375 239.0625 199.074219 236.304688 C 197.761719 234.257812 196.539062 232.152344 194.929688 229.503906 Z M 194.933594 229.503906 " fill-opacity="1" fill-rule="nonzero"/></g><path fill="#a9a0f0" d="M 187.652344 111.398438 C 188.992188 112.4375 190.609375 113.449219 190.277344 115.453125 C 189.898438 117.71875 188.328125 119.320312 186.238281 120.15625 C 185.523438 120.441406 184.328125 120.21875 183.691406 119.761719 C 183.246094 119.4375 183.171875 118.296875 183.273438 117.566406 C 183.53125 115.71875 185.523438 113.011719 187.652344 111.398438 Z M 187.652344 111.398438 " fill-opacity="1" fill-rule="nonzero"/><path fill="#a9a0f0" d="M 220.484375 83.796875 C 220.449219 85.726562 217.273438 89.257812 215.304688 89.558594 C 213.886719 89.773438 212.597656 88.652344 213.214844 87.453125 C 214.234375 85.460938 215.492188 83.453125 217.109375 81.945312 C 218.472656 80.671875 220.515625 81.964844 220.484375 83.796875 Z M 220.484375 83.796875 " fill-opacity="1" fill-rule="nonzero"/><path fill="#a9a0f0" d="M 178.273438 167.496094 C 176.566406 164.316406 176.777344 162.09375 179.207031 160.5 C 180.023438 159.960938 181.558594 159.808594 182.417969 160.210938 C 183.832031 160.878906 183.867188 162.472656 183.078125 163.695312 C 181.933594 165.476562 180.566406 167.132812 178.273438 167.496094 Z M 178.273438 167.496094 " fill-opacity="1" fill-rule="nonzero"/><path fill="#a9a0f0" d="M 214.339844 133.519531 C 214.3125 135.117188 213.925781 136.574219 212.066406 136.773438 C 210.183594 136.976562 209.5 135.6875 209.289062 134.042969 C 209.273438 133.910156 209.253906 133.777344 209.238281 133.640625 C 208.878906 130.710938 209.765625 128.789062 211.46875 128.820312 C 213.089844 128.847656 214.382812 130.96875 214.339844 133.519531 Z M 214.339844 133.519531 " fill-opacity="1" fill-rule="nonzero"/><path fill="#a9a0f0" d="M 223.972656 164.019531 C 226.292969 164.152344 228.136719 165.742188 228.117188 167.59375 C 228.101562 169.171875 226.910156 170.253906 225.21875 170.226562 C 223.265625 170.195312 221.621094 168.285156 221.691406 166.125 C 221.738281 164.667969 222.53125 163.9375 223.976562 164.019531 Z M 223.972656 164.019531 " fill-opacity="1" fill-rule="nonzero"/><path fill="#a9a0f0" d="M 156.042969 191.910156 C 155.808594 188.523438 157.160156 187.160156 158.984375 186.160156 C 160.363281 185.402344 161.660156 185.695312 162.414062 187.085938 C 163.148438 188.4375 162.40625 189.40625 161.148438 189.945312 C 159.652344 190.585938 158.109375 191.125 156.042969 191.914062 Z M 156.042969 191.910156 " fill-opacity="1" fill-rule="nonzero"/><path fill="#a9a0f0" d="M 201.496094 189.851562 C 200.085938 191.144531 198.871094 192.257812 197.503906 193.503906 C 196.109375 191.667969 195.339844 190.128906 196.859375 188.785156 C 198.207031 187.582031 199.835938 187.71875 201.496094 189.851562 Z M 201.496094 189.851562 " fill-opacity="1" fill-rule="nonzero"/><path fill="#a9a0f0" d="M 231.023438 188.347656 C 229.554688 186.519531 229.976562 185.003906 230.933594 183.914062 C 231.429688 183.351562 232.988281 183.121094 233.695312 183.476562 C 234.785156 184.027344 234.8125 185.304688 233.847656 186.21875 C 233.082031 186.945312 232.15625 187.503906 231.023438 188.347656 Z M 231.023438 188.347656 " fill-opacity="1" fill-rule="nonzero"/><path fill="#a9a0f0" d="M 238.117188 138.800781 C 236.554688 139.90625 235.660156 140.820312 234.59375 141.136719 C 234.246094 141.238281 233.070312 139.855469 232.921875 139.035156 C 232.652344 137.550781 233.96875 136.28125 235.292969 136.660156 C 236.125 136.898438 236.78125 137.75 238.117188 138.800781 Z M 238.117188 138.800781 " fill-opacity="1" fill-rule="nonzero"/><path fill="#a9a0f0" d="M 116.480469 168.605469 C 118.246094 168.609375 119.96875 170.394531 119.300781 171.882812 C 118.453125 173.785156 117.132812 175.582031 115.648438 177.058594 C 114.667969 178.03125 113.328125 177.449219 112.746094 176.058594 C 111.972656 174.222656 113.691406 169.742188 115.457031 168.910156 C 115.816406 168.742188 116.222656 168.679688 116.480469 168.605469 Z M 116.480469 168.605469 " fill-opacity="1" fill-rule="nonzero"/><path fill="#a9a0f0" d="M 147.835938 131.457031 C 147.867188 133.929688 145.886719 136.070312 143.648438 135.988281 C 141.859375 135.921875 140.726562 134.757812 140.621094 132.871094 C 140.53125 131.242188 143.214844 128.695312 145.167969 128.550781 C 146.640625 128.445312 147.8125 129.722656 147.835938 131.457031 Z M 147.835938 131.457031 " fill-opacity="1" fill-rule="nonzero"/><path fill="#a9a0f0" d="M 93.289062 174.078125 C 92.097656 175.464844 91.234375 176.855469 90.007812 177.757812 C 89.3125 178.269531 87.757812 178.378906 87.078125 177.933594 C 86.421875 177.496094 86.007812 176.054688 86.152344 175.160156 C 86.722656 171.609375 89.078125 171.09375 93.289062 174.078125 Z M 93.289062 174.078125 " fill-opacity="1" fill-rule="nonzero"/><path fill="#a9a0f0" d="M 125.636719 143.335938 C 125.402344 145.835938 123.15625 147.957031 121.515625 147.851562 C 120.046875 147.753906 118.8125 146.324219 118.902344 144.824219 C 119.023438 142.875 121.375 141.3125 123.78125 141.847656 C 124.589844 142.027344 125.222656 142.988281 125.636719 143.335938 Z M 125.636719 143.335938 " fill-opacity="1" fill-rule="nonzero"/><path fill="#a9a0f0" d="M 133.183594 106.292969 C 133.082031 108.921875 131.769531 110.433594 130.257812 110.382812 C 128.917969 110.335938 127.789062 109.039062 127.839844 107.617188 C 127.90625 105.90625 129.460938 104.277344 131.003906 104.679688 C 131.945312 104.925781 132.695312 105.910156 133.183594 106.292969 Z M 133.183594 106.292969 " fill-opacity="1" fill-rule="nonzero"/><path fill="#a9a0f0" d="M 152.460938 84.195312 C 152.765625 84.6875 153.585938 85.445312 153.679688 86.285156 C 153.871094 87.960938 151.683594 90.253906 150.175781 89.917969 C 149.410156 89.75 148.421875 88.6875 148.296875 87.910156 C 148.046875 86.292969 150.285156 84.152344 152.460938 84.195312 Z M 152.460938 84.195312 " fill-opacity="1" fill-rule="nonzero"/><path fill="#a9a0f0" d="M 90.355469 210.71875 C 89.609375 208.191406 89.976562 205.820312 91.902344 203.839844 C 92.351562 203.375 93.289062 203.378906 94 203.167969 C 94.144531 203.863281 94.601562 204.6875 94.378906 205.230469 C 93.539062 207.253906 92.476562 209.1875 91.5 211.15625 C 91.121094 211.011719 90.738281 210.867188 90.355469 210.71875 Z M 90.355469 210.71875 " fill-opacity="1" fill-rule="nonzero"/><path fill="#a9a0f0" d="M 148.878906 111.585938 C 147.96875 109.617188 147.253906 108.074219 149.222656 107.019531 C 149.671875 106.777344 150.984375 107.210938 151.21875 107.671875 C 152.242188 109.699219 150.769531 110.535156 148.878906 111.585938 Z M 148.878906 111.585938 " fill-opacity="1" fill-rule="nonzero"/><path fill="#a9a0f0" d="M 137.246094 232.65625 C 136.691406 232.914062 136.351562 233.203125 136.046875 233.171875 C 135.773438 233.140625 135.355469 232.777344 135.332031 232.527344 C 135.304688 232.285156 135.671875 231.832031 135.925781 231.785156 C 136.160156 231.742188 136.46875 232.117188 137.246094 232.652344 Z M 137.246094 232.65625 " fill-opacity="1" fill-rule="nonzero"/></svg>