<svg xmlns="http://www.w3.org/2000/svg" xmlns:xlink="http://www.w3.org/1999/xlink" width="400" zoomAndPan="magnify" viewBox="0 0 300 299.999988" height="400" preserveAspectRatio="xMidYMid meet" version="1.0"><defs><clipPath id="e06bc2ca44"><path d="M 221 180 L 235 180 L 235 189.949219 L 221 189.949219 Z M 221 180 " clip-rule="nonzero"/></clipPath><clipPath id="5d2ccf2d5e"><path d="M 150 180 L 168 180 L 168 189.949219 L 150 189.949219 Z M 150 180 " clip-rule="nonzero"/></clipPath><clipPath id="e2303fd61a"><path d="M 75 109.699219 L 78 109.699219 L 78 123 L 75 123 Z M 75 109.699219 " clip-rule="nonzero"/></clipPath></defs><path fill="currentColor" d="M 55.050781 177.3125 C 56.800781 169.332031 58.183594 162.710938 57.882812 161.121094 L 57.832031 160.601562 L 57.882812 161.121094 C 57.804688 160.710938 57.925781 162.246094 59.570312 162.605469 C 59.746094 162.644531 59.917969 162.660156 60.078125 162.660156 C 60.878906 162.660156 61.296875 162.257812 61.191406 162.347656 L 61.191406 162.34375 C 61.191406 162.34375 61.1875 162.347656 61.1875 162.347656 C 60.453125 162.957031 58.722656 165.554688 56.179688 169.472656 C 53.0625 174.273438 48.949219 180.675781 45.53125 183.515625 C 44 184.789062 42.289062 185.636719 40.421875 185.636719 C 34.996094 185.636719 32.214844 178.425781 30.648438 174.960938 C 30.011719 173.554688 30.636719 171.902344 32.042969 171.265625 C 33.445312 170.632812 35.101562 171.257812 35.734375 172.660156 C 38.25 178.230469 39.550781 180.054688 40.421875 180.054688 C 40.527344 180.054688 41.015625 180.011719 41.964844 179.222656 C 44.554688 177.070312 48.128906 171.625 51.496094 166.4375 C 53.679688 163.070312 56.035156 159.367188 57.625 158.050781 C 57.648438 158.03125 57.679688 158.003906 57.703125 157.988281 C 58.097656 157.671875 58.9375 157.078125 60.078125 157.078125 C 60.300781 157.078125 60.53125 157.101562 60.765625 157.152344 C 62.863281 157.613281 63.285156 159.652344 63.367188 160.082031 L 63.414062 160.601562 L 63.367188 160.085938 C 63.945312 163.140625 62.039062 171.5 60.503906 178.507812 C 60.171875 180.011719 58.683594 180.964844 57.179688 180.636719 C 55.671875 180.304688 54.71875 178.816406 55.050781 177.3125 Z M 55.050781 177.3125 " fill-opacity="1" fill-rule="nonzero"/><path fill="currentColor" d="M 193.78125 176.628906 C 195.53125 168.652344 196.914062 162.027344 196.613281 160.4375 C 196.535156 160.027344 196.660156 161.5625 198.300781 161.921875 C 198.476562 161.960938 198.648438 161.980469 198.808594 161.980469 C 199.609375 161.980469 200.027344 161.578125 199.921875 161.664062 C 199.917969 161.664062 199.917969 161.664062 199.917969 161.664062 C 199.183594 162.277344 197.453125 164.871094 194.910156 168.792969 C 191.792969 173.59375 187.679688 179.996094 184.261719 182.832031 C 182.730469 184.109375 181.019531 184.957031 179.152344 184.957031 C 173.726562 184.957031 170.945312 177.746094 169.378906 174.277344 C 168.742188 172.875 169.367188 171.21875 170.773438 170.585938 C 172.179688 169.953125 173.832031 170.574219 174.464844 171.980469 C 176.980469 177.550781 178.28125 179.375 179.152344 179.375 C 179.261719 179.375 179.746094 179.328125 180.695312 178.539062 C 183.285156 176.386719 186.859375 170.945312 190.226562 165.753906 C 192.410156 162.386719 194.765625 158.6875 196.355469 157.367188 C 196.382812 157.347656 196.410156 157.324219 196.433594 157.304688 C 196.828125 156.988281 197.667969 156.398438 198.808594 156.398438 C 199.03125 156.398438 199.261719 156.417969 199.496094 156.46875 L 199.496094 156.472656 C 201.597656 156.929688 202.015625 158.96875 202.097656 159.402344 C 202.675781 162.460938 200.769531 170.820312 199.234375 177.824219 C 198.902344 179.332031 197.414062 180.285156 195.910156 179.953125 C 194.402344 179.625 193.449219 178.136719 193.78125 176.628906 Z M 193.78125 176.628906 " fill-opacity="1" fill-rule="nonzero"/><path fill="currentColor" d="M 144.632812 175.042969 L 144.757812 175.4375 C 145.132812 176.613281 145.425781 177.832031 145.636719 179.085938 L 140.441406 179.132812 L 140.4375 179.132812 C 141.960938 178.003906 143.355469 176.640625 144.632812 175.042969 Z M 262.632812 175.042969 L 262.757812 175.4375 C 263.128906 176.613281 263.421875 177.832031 263.636719 179.085938 L 258.4375 179.132812 C 259.957031 178.003906 261.355469 176.640625 262.632812 175.042969 Z M 265.433594 117.675781 L 260.40625 121.960938 C 262.683594 141.789062 263.300781 154.652344 262.257812 160.542969 C 259.144531 154.457031 252.070312 142.152344 241.035156 123.632812 L 237.695312 127.671875 L 237.253906 128.203125 C 250.847656 151.082031 258.453125 164.570312 260.0625 168.667969 C 259.089844 170.613281 257.765625 172.097656 256.46875 173.515625 C 255.339844 174.742188 251.789062 176.945312 245.382812 179.78125 C 244.5 180.605469 244.128906 181.433594 244.265625 182.273438 C 244.503906 183.710938 245.320312 184.550781 246.722656 184.796875 L 266.800781 184.640625 C 267.46875 184.625 268.050781 184.398438 268.570312 183.988281 C 269.0625 183.601562 269.4375 183.011719 269.546875 182.167969 C 269.621094 181.609375 269.425781 180.277344 269.140625 178.171875 C 268.835938 175.910156 267.855469 172.710938 266.136719 168.589844 C 267.859375 163.433594 268.484375 156.796875 268.238281 148.679688 C 268.203125 147.453125 268.109375 143.261719 267.46875 136.128906 C 266.441406 124.597656 265.675781 118.453125 265.433594 117.675781 Z M 147.433594 117.675781 L 142.40625 121.960938 C 144.683594 141.789062 145.304688 154.652344 144.261719 160.542969 C 141.144531 154.457031 134.070312 142.152344 123.035156 123.632812 L 119.257812 128.203125 C 132.851562 151.082031 140.453125 164.570312 142.0625 168.667969 C 141.09375 170.613281 139.765625 172.097656 138.46875 173.515625 C 137.34375 174.742188 133.789062 176.945312 127.382812 179.78125 C 126.5 180.605469 126.128906 181.433594 126.269531 182.273438 C 126.503906 183.710938 127.324219 184.550781 128.722656 184.796875 L 148.800781 184.640625 C 149.46875 184.625 150.050781 184.398438 150.570312 183.988281 C 151.0625 183.601562 151.4375 183.011719 151.550781 182.167969 C 151.625 181.609375 151.425781 180.277344 151.140625 178.171875 C 150.835938 175.910156 149.859375 172.710938 148.140625 168.589844 C 149.863281 163.433594 150.484375 156.796875 150.238281 148.679688 C 150.203125 147.453125 150.109375 143.261719 149.472656 136.128906 C 148.441406 124.597656 147.675781 118.453125 147.433594 117.675781 Z M 162.554688 120.246094 L 156.984375 125.238281 L 156.984375 184.875 C 156.984375 185.011719 156.992188 185.148438 157.011719 185.28125 C 158.167969 183.78125 159.171875 181.722656 159.980469 178.730469 C 161.355469 173.621094 162.09375 166.03125 162.566406 157.296875 L 162.566406 120.476562 C 162.566406 120.398438 162.5625 120.324219 162.554688 120.246094 Z M 231.53125 121.480469 L 225.960938 126.472656 L 225.960938 186.109375 C 225.960938 186.246094 225.972656 186.382812 225.988281 186.515625 C 227.144531 185.015625 228.148438 182.957031 228.957031 179.96875 C 230.332031 174.855469 231.070312 167.265625 231.542969 158.53125 L 231.542969 121.714844 C 231.542969 121.636719 231.539062 121.558594 231.535156 121.480469 Z M 110.039062 121.992188 L 104.464844 126.984375 L 104.464844 186.621094 C 104.464844 186.757812 104.476562 186.894531 104.496094 187.023438 C 105.652344 185.527344 106.652344 183.46875 107.460938 180.476562 C 108.839844 175.367188 109.574219 167.777344 110.046875 159.042969 L 110.046875 122.222656 C 110.046875 122.144531 110.042969 122.066406 110.039062 121.992188 Z M 218.453125 119.429688 L 215.664062 121.859375 L 212.871094 124.289062 L 212.871094 170.59375 C 208.925781 175.957031 205.613281 180.269531 203.035156 181.582031 C 202.46875 181.871094 202.015625 181.953125 201.679688 181.953125 C 200.871094 181.953125 199.984375 181.394531 199.527344 180.167969 C 198.835938 178.300781 199.355469 175.492188 200.253906 171.425781 C 200.289062 171.277344 200.308594 171.128906 200.316406 170.980469 L 193.734375 176.113281 C 193.535156 178.164062 193.605469 180.253906 194.296875 182.113281 C 195.367188 184.996094 198.019531 187.535156 201.679688 187.535156 C 202.984375 187.535156 204.296875 187.203125 205.566406 186.554688 C 209.738281 184.429688 214.121094 178.328125 217.824219 173.28125 C 218.332031 172.585938 218.398438 170.820312 218.453125 170.753906 C 218.453125 153.644531 218.453125 136.539062 218.453125 119.429688 Z M 76.992188 135.078125 L 74.167969 137.332031 L 74.140625 171.273438 C 70.195312 176.640625 66.878906 180.949219 64.304688 182.261719 C 63.738281 182.550781 63.285156 182.632812 62.949219 182.632812 C 62.140625 182.632812 61.253906 182.078125 60.796875 180.847656 C 60.105469 178.984375 60.625 176.171875 61.523438 172.105469 C 61.558594 171.957031 61.578125 171.808594 61.585938 171.664062 L 61.582031 171.664062 L 55.003906 176.792969 C 54.804688 178.847656 54.875 180.9375 55.566406 182.792969 C 56.636719 185.675781 59.289062 188.214844 62.949219 188.214844 C 64.253906 188.214844 65.566406 187.882812 66.835938 187.238281 C 69.046875 186.113281 71.316406 183.867188 73.511719 181.257812 C 73.617188 181.785156 73.757812 182.296875 73.941406 182.792969 C 75.011719 185.675781 77.664062 188.214844 81.324219 188.214844 C 82.628906 188.214844 83.941406 187.882812 85.210938 187.238281 C 89.382812 185.113281 93.765625 179.007812 97.46875 173.960938 C 97.976562 173.269531 98.042969 171.503906 98.101562 171.433594 C 98.101562 154.328125 98.101562 137.21875 98.101562 120.109375 L 95.308594 122.539062 L 92.519531 124.96875 L 92.519531 171.273438 L 92.515625 171.273438 C 88.570312 176.640625 85.257812 180.949219 82.679688 182.261719 C 82.113281 182.550781 81.660156 182.632812 81.324219 182.632812 C 80.515625 182.632812 79.628906 182.078125 79.171875 180.847656 C 78.480469 178.984375 78.90625 176.238281 79.804688 172.171875 C 79.835938 172.023438 79.722656 171.433594 79.722656 171.433594 C 79.722656 154.328125 79.664062 132.941406 79.664062 132.941406 Z M 76.992188 135.078125 " fill-opacity="1" fill-rule="nonzero"/><path fill="currentColor" d="M 236.515625 124.988281 L 261.167969 110.496094 C 261.65625 110.207031 262.289062 110.371094 262.574219 110.859375 C 262.863281 111.351562 262.699219 111.980469 262.210938 112.269531 L 237.558594 126.761719 C 237.066406 127.050781 236.4375 126.886719 236.148438 126.398438 C 235.863281 125.90625 236.027344 125.277344 236.515625 124.988281 Z M 236.515625 124.988281 " fill-opacity="1" fill-rule="nonzero"/><path fill="currentColor" d="M 172.359375 124.988281 L 197.011719 110.496094 C 197.503906 110.207031 198.132812 110.371094 198.421875 110.859375 C 198.707031 111.351562 198.542969 111.980469 198.054688 112.269531 L 173.402344 126.761719 C 172.914062 127.050781 172.28125 126.886719 171.996094 126.398438 C 171.707031 125.90625 171.871094 125.277344 172.359375 124.988281 Z M 172.359375 124.988281 " fill-opacity="1" fill-rule="nonzero"/><path fill="currentColor" d="M 113.917969 124.988281 L 138.570312 110.496094 C 139.058594 110.207031 139.691406 110.371094 139.976562 110.859375 C 140.265625 111.351562 140.101562 111.980469 139.613281 112.269531 L 114.960938 126.761719 C 114.46875 127.050781 113.839844 126.886719 113.550781 126.398438 C 113.265625 125.90625 113.425781 125.277344 113.917969 124.988281 Z M 113.917969 124.988281 " fill-opacity="1" fill-rule="nonzero"/><g clip-path="url(#e06bc2ca44)"><path fill="currentColor" d="M 222.066406 188.132812 L 233.242188 180.476562 C 233.710938 180.15625 234.351562 180.273438 234.671875 180.742188 C 234.992188 181.210938 234.875 181.851562 234.40625 182.171875 L 223.226562 189.828125 C 222.757812 190.148438 222.121094 190.03125 221.796875 189.5625 C 221.476562 189.09375 221.597656 188.453125 222.066406 188.132812 Z M 222.066406 188.132812 " fill-opacity="1" fill-rule="nonzero"/></g><g clip-path="url(#5d2ccf2d5e)"><path fill="currentColor" d="M 151.398438 188.207031 L 166.421875 180.253906 C 166.925781 179.988281 167.546875 180.179688 167.8125 180.683594 C 168.078125 181.183594 167.886719 181.804688 167.386719 182.070312 L 152.359375 190.023438 C 151.855469 190.289062 151.234375 190.097656 150.96875 189.59375 C 150.703125 189.09375 150.894531 188.46875 151.398438 188.207031 Z M 151.398438 188.207031 " fill-opacity="1" fill-rule="nonzero"/></g><path fill="currentColor" d="M 132.910156 124.257812 L 132.910156 124.289062 C 132.890625 125.96875 132.914062 127.109375 133.078125 127.433594 C 133.082031 127.441406 133.054688 127.378906 132.96875 127.3125 C 132.839844 127.207031 132.691406 127.167969 132.578125 127.167969 C 132.507812 127.167969 132.46875 127.183594 132.472656 127.183594 C 132.703125 127.101562 133.210938 126.640625 134.023438 125.835938 C 134.21875 125.640625 134.484375 125.535156 134.761719 125.539062 C 135.035156 125.542969 135.296875 125.65625 135.488281 125.855469 C 136.183594 126.582031 136.609375 126.992188 136.808594 127.078125 C 136.816406 127.078125 136.761719 127.054688 136.660156 127.054688 C 136.519531 127.054688 136.351562 127.105469 136.222656 127.222656 C 136.136719 127.292969 136.113281 127.355469 136.117188 127.347656 C 136.269531 127.027344 136.296875 125.921875 136.292969 124.304688 C 136.292969 123.738281 136.75 123.277344 137.320312 123.277344 C 137.886719 123.273438 138.347656 123.734375 138.347656 124.300781 C 138.351562 125.585938 138.386719 127.375 137.96875 128.242188 C 137.890625 128.402344 137.769531 128.601562 137.578125 128.765625 C 137.308594 129.003906 136.984375 129.109375 136.660156 129.109375 C 136.410156 129.109375 136.191406 129.046875 136.023438 128.976562 C 135.3125 128.683594 134.523438 127.820312 134.003906 127.273438 L 135.46875 127.296875 C 134.859375 127.902344 133.9375 128.851562 133.136719 129.128906 C 132.980469 129.179688 132.789062 129.226562 132.578125 129.226562 C 132.269531 129.226562 131.949219 129.132812 131.675781 128.90625 L 131.675781 128.910156 C 131.464844 128.742188 131.332031 128.539062 131.246094 128.363281 C 130.789062 127.460938 130.839844 125.597656 130.855469 124.265625 L 130.855469 124.234375 C 130.859375 123.664062 131.324219 123.210938 131.894531 123.214844 C 132.460938 123.222656 132.917969 123.6875 132.910156 124.257812 Z M 132.910156 124.257812 " fill-opacity="1" fill-rule="nonzero"/><path fill="currentColor" d="M 209.082031 117.296875 L 209.207031 128.160156 C 209.214844 128.726562 208.761719 129.191406 208.191406 129.199219 C 207.625 129.207031 207.160156 128.75 207.152344 128.183594 L 207.027344 117.320312 C 207.019531 116.753906 207.476562 116.289062 208.042969 116.28125 C 208.609375 116.277344 209.078125 116.730469 209.082031 117.296875 Z M 209.082031 117.296875 " fill-opacity="1" fill-rule="nonzero"/><path fill="currentColor" d="M 75.339844 124.5625 L 75.339844 124.550781 L 75.339844 124.5625 C 75.324219 126.257812 75.34375 127.410156 75.511719 127.742188 C 75.515625 127.75 75.484375 127.6875 75.398438 127.617188 C 75.273438 127.515625 75.125 127.476562 75.007812 127.476562 C 74.9375 127.476562 74.898438 127.488281 74.902344 127.488281 C 75.136719 127.40625 75.640625 126.945312 76.453125 126.140625 C 76.648438 125.949219 76.914062 125.839844 77.191406 125.84375 C 77.46875 125.847656 77.730469 125.960938 77.921875 126.160156 C 78.613281 126.890625 79.039062 127.300781 79.242188 127.382812 C 79.246094 127.386719 79.191406 127.359375 79.09375 127.359375 C 78.949219 127.359375 78.785156 127.414062 78.652344 127.527344 C 78.570312 127.601562 78.542969 127.664062 78.546875 127.652344 C 78.699219 127.335938 78.726562 126.226562 78.722656 124.613281 C 78.722656 124.042969 79.183594 123.582031 79.75 123.582031 C 80.316406 123.582031 80.777344 124.039062 80.78125 124.609375 C 80.78125 125.890625 80.816406 127.679688 80.398438 128.546875 C 80.320312 128.710938 80.199219 128.90625 80.007812 129.074219 C 79.738281 129.308594 79.414062 129.417969 79.09375 129.417969 C 78.839844 129.417969 78.621094 129.351562 78.453125 129.28125 C 77.742188 128.988281 76.953125 128.125 76.433594 127.582031 L 77.902344 127.601562 C 77.289062 128.207031 76.371094 129.160156 75.566406 129.433594 C 75.410156 129.488281 75.21875 129.53125 75.007812 129.53125 C 74.699219 129.53125 74.378906 129.4375 74.105469 129.214844 C 73.898438 129.046875 73.765625 128.84375 73.675781 128.671875 C 73.214844 127.761719 73.269531 125.882812 73.285156 124.542969 L 73.285156 124.550781 C 73.292969 123.972656 73.757812 123.515625 74.324219 123.523438 C 74.890625 123.527344 75.347656 123.996094 75.339844 124.5625 Z M 75.339844 124.5625 " fill-opacity="1" fill-rule="nonzero"/><g clip-path="url(#e2303fd61a)"><path fill="currentColor" d="M 77.5625 110.722656 L 77.6875 121.585938 C 77.695312 122.152344 77.238281 122.617188 76.671875 122.625 C 76.105469 122.628906 75.636719 122.175781 75.632812 121.609375 L 75.507812 110.746094 C 75.5 110.179688 75.953125 109.714844 76.523438 109.707031 C 77.089844 109.699219 77.554688 110.15625 77.5625 110.722656 Z M 77.5625 110.722656 " fill-opacity="1" fill-rule="nonzero"/></g><path fill="currentColor" d="M 36.972656 171.871094 L 36.988281 171.910156 C 38.113281 174.890625 39.160156 177.550781 40.703125 177.550781 C 40.949219 177.550781 41.21875 177.480469 41.515625 177.324219 C 43.359375 176.339844 45.925781 172.15625 48.605469 167.773438 C 49.109375 166.953125 49.621094 166.113281 50.125 165.308594 C 53.273438 160.25 56.375 155.8125 59.339844 154.703125 C 59.835938 154.515625 60.335938 154.421875 60.816406 154.421875 C 63.285156 154.421875 65.21875 156.820312 65.359375 161.136719 C 65.46875 164.492188 64.507812 169.074219 63.722656 172.8125 C 63.292969 174.851562 62.921875 176.636719 62.792969 177.851562 C 62.621094 179.492188 62.917969 179.878906 63.191406 179.910156 C 63.203125 179.910156 63.21875 179.910156 63.234375 179.910156 C 63.742188 179.910156 64.625 179.191406 65.683594 178.09375 C 67.621094 176.082031 69.875 173.128906 72.136719 170.164062 L 72.097656 170.277344 L 72.347656 139.636719 C 72.351562 139.53125 72.4375 139.445312 72.542969 139.445312 C 72.652344 139.445312 72.738281 139.535156 72.734375 139.640625 L 72.484375 170.28125 C 72.484375 170.324219 72.46875 170.363281 72.445312 170.398438 C 70.1875 173.355469 67.917969 176.328125 65.960938 178.359375 C 64.953125 179.40625 63.941406 180.296875 63.234375 180.296875 C 63.207031 180.296875 63.179688 180.296875 63.148438 180.292969 C 62.4375 180.21875 62.25 179.316406 62.410156 177.8125 C 62.539062 176.570312 62.917969 174.761719 63.34375 172.734375 C 64.132812 168.976562 65.082031 164.445312 64.972656 161.148438 C 64.832031 156.898438 62.957031 154.808594 60.816406 154.808594 C 60.382812 154.808594 59.933594 154.894531 59.472656 155.066406 C 56.664062 156.117188 53.628906 160.410156 50.453125 165.511719 C 49.949219 166.324219 49.441406 167.148438 48.9375 167.976562 C 46.296875 172.289062 43.660156 176.617188 41.699219 177.664062 C 41.355469 177.847656 41.023438 177.9375 40.703125 177.9375 C 38.816406 177.9375 37.679688 174.84375 36.625 172.046875 L 36.609375 172.007812 C 36.574219 171.90625 36.625 171.796875 36.722656 171.757812 C 36.824219 171.71875 36.933594 171.769531 36.972656 171.871094 Z M 36.972656 171.871094 " fill-opacity="1" fill-rule="nonzero"/><path fill="currentColor" d="M 91.546875 129.46875 L 91.5 169.601562 C 91.5 169.644531 91.484375 169.6875 91.457031 169.722656 C 87.550781 174.640625 83.558594 179.683594 81.917969 180.246094 C 81.804688 180.285156 81.691406 180.304688 81.585938 180.304688 C 80.914062 180.304688 80.761719 179.527344 80.761719 178.734375 C 80.761719 177.316406 81.230469 175.039062 81.695312 172.789062 C 81.714844 172.6875 81.816406 172.617188 81.921875 172.640625 C 82.027344 172.660156 82.09375 172.765625 82.074219 172.867188 C 81.605469 175.136719 81.148438 177.367188 81.148438 178.734375 C 81.148438 179.644531 81.347656 179.917969 81.585938 179.917969 C 81.640625 179.917969 81.710938 179.90625 81.792969 179.878906 C 83.292969 179.367188 87.179688 174.484375 91.152344 169.480469 L 91.113281 169.601562 L 91.160156 129.46875 C 91.160156 129.359375 91.25 129.273438 91.355469 129.273438 C 91.460938 129.273438 91.546875 129.359375 91.546875 129.46875 Z M 91.546875 129.46875 " fill-opacity="1" fill-rule="nonzero"/><path fill="currentColor" d="M 111.058594 122.867188 L 111.058594 122.863281 C 111.292969 139.277344 111.53125 155.703125 111.046875 165.667969 C 110.5625 175.648438 109.351562 179.167969 108.140625 182.6875 C 108.105469 182.789062 107.996094 182.84375 107.894531 182.808594 C 107.796875 182.773438 107.742188 182.664062 107.777344 182.5625 C 108.976562 179.074219 110.175781 175.589844 110.660156 165.648438 C 111.144531 155.699219 110.90625 139.289062 110.671875 122.871094 L 110.671875 122.867188 C 110.671875 122.761719 110.757812 122.671875 110.863281 122.671875 C 110.96875 122.671875 111.058594 122.761719 111.058594 122.867188 Z M 111.058594 122.867188 " fill-opacity="1" fill-rule="nonzero"/><path fill="currentColor" d="M 149.238281 117.664062 L 149.238281 117.644531 C 150.617188 130.066406 151.996094 142.507812 152.113281 151.042969 C 152.230469 159.589844 151.078125 164.230469 149.933594 168.855469 C 149.90625 168.957031 149.800781 169.023438 149.699219 168.996094 C 149.59375 168.972656 149.53125 168.867188 149.558594 168.761719 C 150.699219 164.148438 151.839844 159.546875 151.726562 151.046875 C 151.609375 142.535156 150.234375 130.117188 148.855469 117.6875 C 148.851562 117.679688 148.851562 117.671875 148.851562 117.664062 C 148.851562 117.558594 148.9375 117.472656 149.046875 117.472656 C 149.152344 117.472656 149.238281 117.558594 149.238281 117.664062 Z M 149.238281 117.664062 " fill-opacity="1" fill-rule="nonzero"/><path fill="currentColor" d="M 118.792969 130.375 L 118.765625 130.28125 L 139.878906 168.140625 C 139.902344 168.1875 139.910156 168.242188 139.894531 168.292969 C 139.289062 170.160156 138.675781 172.078125 136.691406 173.78125 C 134.726562 175.46875 131.421875 176.941406 128.15625 178.398438 C 128.058594 178.441406 127.945312 178.398438 127.902344 178.300781 C 127.859375 178.203125 127.902344 178.089844 128 178.042969 C 131.285156 176.578125 134.527344 175.128906 136.441406 173.488281 C 138.335938 171.859375 138.921875 170.042969 139.523438 168.175781 L 139.539062 168.328125 L 118.429688 130.46875 C 118.414062 130.4375 118.40625 130.40625 118.40625 130.375 C 118.40625 130.265625 118.492188 130.179688 118.597656 130.179688 C 118.703125 130.179688 118.792969 130.265625 118.792969 130.375 Z M 118.792969 130.375 " fill-opacity="1" fill-rule="nonzero"/><path fill="currentColor" d="M 164.210938 122.089844 L 164.214844 122.28125 C 164.535156 135.601562 164.851562 148.914062 164.328125 158.773438 C 163.804688 168.6875 162.429688 175.105469 161.058594 181.519531 C 161.035156 181.625 160.933594 181.691406 160.828125 181.667969 C 160.722656 181.644531 160.65625 181.542969 160.679688 181.4375 C 162.050781 175.03125 163.417969 168.632812 163.941406 158.75 C 164.464844 148.910156 164.148438 135.617188 163.828125 122.292969 L 163.824219 122.101562 C 163.820312 121.992188 163.90625 121.90625 164.011719 121.902344 C 164.117188 121.898438 164.207031 121.984375 164.210938 122.089844 Z M 164.210938 122.089844 " fill-opacity="1" fill-rule="nonzero"/><path fill="currentColor" d="M 174.671875 168.761719 L 174.652344 168.679688 C 176.378906 172.449219 178.007812 175.933594 179.871094 175.933594 C 180.007812 175.933594 180.148438 175.914062 180.296875 175.871094 C 181.929688 175.398438 183.863281 172.25 185.960938 168.800781 C 186.570312 167.804688 187.183594 166.789062 187.804688 165.832031 C 190.539062 161.597656 193.339844 158.40625 196.132812 155.226562 C 196.203125 155.144531 196.324219 155.136719 196.40625 155.207031 C 196.484375 155.277344 196.496094 155.402344 196.421875 155.480469 C 193.628906 158.664062 190.84375 161.832031 188.128906 166.039062 C 187.511719 166.996094 186.898438 168.003906 186.292969 169 C 184.253906 172.355469 182.226562 175.71875 180.402344 176.242188 C 180.222656 176.292969 180.046875 176.320312 179.871094 176.320312 C 177.6875 176.320312 175.949219 172.4375 174.300781 168.839844 C 174.289062 168.816406 174.285156 168.789062 174.285156 168.761719 C 174.285156 168.652344 174.371094 168.566406 174.476562 168.566406 C 174.585938 168.566406 174.671875 168.652344 174.671875 168.761719 Z M 174.671875 168.761719 " fill-opacity="1" fill-rule="nonzero"/><path fill="currentColor" d="M 220.175781 122.796875 L 220.496094 172.148438 C 220.496094 172.179688 220.488281 172.207031 220.472656 172.234375 C 219.316406 174.53125 218.148438 176.839844 216.40625 179.25 C 214.664062 181.652344 212.351562 184.15625 210.050781 186.648438 C 209.976562 186.726562 209.855469 186.730469 209.777344 186.65625 C 209.699219 186.585938 209.695312 186.460938 209.765625 186.382812 C 212.074219 183.890625 214.367188 181.40625 216.09375 179.023438 C 217.816406 176.640625 218.96875 174.359375 220.128906 172.0625 L 220.109375 172.148438 L 219.789062 122.796875 C 219.789062 122.6875 219.878906 122.601562 219.984375 122.601562 C 220.089844 122.601562 220.175781 122.6875 220.175781 122.796875 Z M 220.175781 122.796875 " fill-opacity="1" fill-rule="nonzero"/><path fill="currentColor" d="M 230.765625 180.695312 L 230.382812 180.660156 L 230.390625 180.625 C 231.28125 176.0625 232.167969 171.488281 232.589844 161.886719 C 233.015625 152.253906 232.972656 137.5625 232.929688 122.863281 C 232.929688 122.757812 233.015625 122.667969 233.121094 122.667969 C 233.226562 122.667969 233.316406 122.753906 233.316406 122.863281 C 233.359375 137.558594 233.402344 152.257812 232.976562 161.902344 C 232.550781 171.53125 231.660156 176.125 230.769531 180.699219 L 230.761719 180.734375 C 230.746094 180.832031 230.65625 180.898438 230.554688 180.890625 C 230.457031 180.878906 230.378906 180.796875 230.378906 180.695312 C 230.378906 180.589844 230.46875 180.503906 230.574219 180.503906 C 230.679688 180.503906 230.765625 180.589844 230.765625 180.695312 Z M 230.765625 180.695312 " fill-opacity="1" fill-rule="nonzero"/><path fill="currentColor" d="M 244.085938 125.167969 L 244.058594 125.066406 L 260.898438 153.464844 C 260.953125 153.554688 260.921875 153.675781 260.832031 153.730469 C 260.738281 153.785156 260.621094 153.753906 260.566406 153.660156 L 243.726562 125.265625 C 243.710938 125.234375 243.699219 125.203125 243.699219 125.167969 C 243.699219 125.058594 243.785156 124.972656 243.894531 124.972656 C 244 124.972656 244.085938 125.058594 244.085938 125.167969 Z M 244.085938 125.167969 " fill-opacity="1" fill-rule="nonzero"/><path fill="currentColor" d="M 266.886719 117.566406 L 266.886719 117.542969 C 268.363281 130.128906 269.839844 142.730469 269.914062 151.324219 C 269.988281 159.933594 268.65625 164.527344 267.328125 169.109375 C 267.296875 169.214844 267.191406 169.273438 267.089844 169.242188 C 266.984375 169.210938 266.925781 169.105469 266.957031 169.003906 C 268.28125 164.4375 269.601562 159.882812 269.527344 151.328125 C 269.453125 142.757812 267.980469 130.183594 266.5 117.589844 C 266.5 117.582031 266.5 117.574219 266.5 117.566406 C 266.5 117.460938 266.585938 117.371094 266.695312 117.371094 C 266.800781 117.371094 266.886719 117.460938 266.886719 117.566406 Z M 266.886719 117.566406 " fill-opacity="1" fill-rule="nonzero"/></svg>