<svg xmlns="http://www.w3.org/2000/svg" xmlns:xlink="http://www.w3.org/1999/xlink" width="400" zoomAndPan="magnify" viewBox="0 0 300 299.999988" height="400" preserveAspectRatio="xMidYMid meet" version="1.0"><defs><clipPath id="544b518842"><path d="M 45 30 L 255 30 L 255 270 L 45 270 Z M 45 30 " clip-rule="nonzero"/></clipPath></defs><g clip-path="url(#544b518842)"><path fill="currentColor" d="M 223.371094 170.234375 L 214.191406 164.058594 C 212.539062 162.949219 212.101562 160.691406 213.210938 159.039062 C 214.320312 157.386719 216.578125 156.957031 218.230469 158.074219 L 223.371094 161.527344 L 223.371094 149.171875 C 223.371094 135.175781 217.472656 138.351562 206.429688 126.757812 L 206.445312 126.757812 C 205.886719 126.183594 205.535156 125.441406 205.464844 124.589844 C 204.570312 114.648438 200.339844 101.589844 192.234375 92.574219 C 186.421875 86.132812 178.570312 81.816406 168.457031 82.5 C 160.847656 83.027344 155.5 76.90625 150.085938 72.367188 C 145.210938 76.71875 140.058594 82.148438 131.890625 82.527344 C 121.351562 83.011719 113.226562 87.753906 107.296875 94.34375 C 99.539062 102.980469 95.453125 114.738281 94.5625 124.414062 C 94.53125 125.261719 94.195312 126.097656 93.566406 126.757812 C 82.601562 138.296875 76.640625 135.367188 76.640625 149.40625 L 76.640625 262.707031 L 93.652344 262.707031 C 92.054688 261.167969 91.042969 259.019531 91.042969 256.640625 L 91.042969 240.65625 C 91.042969 237.097656 93.300781 233.996094 96.535156 232.8125 L 93.972656 205.59375 C 92.726562 192.476562 101.671875 179.492188 114.792969 178.128906 C 111.191406 176.300781 108.289062 173.441406 106.375 170.027344 C 103.914062 165.695312 103.035156 160.453125 104.292969 155.316406 C 104.324219 154.828125 104.410156 154.40625 104.523438 154.011719 C 104.261719 153.324219 104.203125 152.5625 104.40625 151.800781 L 105.125 149.152344 C 107.980469 138.84375 119.78125 133.941406 130.332031 136.796875 C 141.257812 139.769531 149.261719 150.308594 146.363281 161.074219 L 145.589844 163.984375 C 145.355469 164.761719 144.871094 165.40625 144.273438 165.859375 C 144.136719 166.050781 142.796875 173.664062 134.886719 178.128906 C 132.898438 179.269531 130.699219 180.042969 128.417969 180.425781 C 136.953125 184.230469 143.070312 192.109375 143.65625 201.933594 L 144.695312 218.855469 C 146.835938 220.964844 149.25 222.957031 151.941406 224.84375 C 156.011719 227.683594 160.742188 230.285156 166.113281 232.679688 C 173.902344 236.132812 173.726562 247.359375 165.707031 250.464844 C 164.269531 251.023438 162.691406 251.238281 161.109375 251.050781 C 159.894531 256.15625 155.300781 259.890625 149.921875 259.890625 L 107.101562 259.890625 C 106.648438 260.960938 105.992188 261.910156 105.167969 262.699219 L 223.375 262.699219 L 223.375 205.78125 L 222.203125 206.746094 C 220.664062 208.019531 218.398438 207.800781 217.121094 206.261719 C 215.847656 204.722656 216.066406 202.453125 217.605469 201.179688 L 223.375 196.40625 L 223.375 196.269531 L 218.382812 198.96875 C 216.625 199.902344 214.429688 199.261719 213.492188 197.503906 C 212.539062 195.75 213.195312 193.554688 214.953125 192.613281 L 223.371094 188.074219 L 223.371094 187.957031 L 213.09375 188.363281 C 211.105469 188.4375 209.429688 186.886719 209.34375 184.894531 C 209.269531 182.90625 210.820312 181.230469 212.8125 181.160156 L 223.371094 180.734375 L 223.371094 178.933594 L 213.5 175.886719 C 211.59375 175.300781 210.53125 173.277344 211.113281 171.378906 C 211.699219 169.472656 213.707031 168.40625 215.609375 168.992188 L 223.367188 171.378906 L 223.367188 170.234375 Z M 193.695312 227.023438 C 195.082031 225.601562 197.371094 225.570312 198.785156 226.949219 C 200.222656 228.339844 200.25 230.621094 198.859375 232.058594 L 191.644531 239.480469 C 190.269531 240.898438 187.980469 240.929688 186.550781 239.535156 C 185.128906 238.164062 185.101562 235.875 186.480469 234.445312 Z M 208.585938 209.542969 C 209.933594 208.082031 212.214844 207.996094 213.675781 209.339844 C 215.152344 210.6875 215.242188 212.96875 213.898438 214.429688 L 206.476562 222.511719 C 205.128906 223.976562 202.847656 224.078125 201.382812 222.734375 C 199.921875 221.371094 199.820312 219.105469 201.164062 217.628906 Z M 178.714844 211.039062 C 180.488281 210.128906 182.652344 210.832031 183.5625 212.601562 C 184.46875 214.375 183.765625 216.542969 181.996094 217.445312 L 171.308594 222.921875 C 169.539062 223.832031 167.371094 223.128906 166.480469 221.355469 C 165.570312 219.585938 166.273438 217.414062 168.046875 216.511719 Z M 202.976562 199.25 C 204.730469 198.316406 206.914062 198.972656 207.867188 200.714844 C 208.800781 202.46875 208.144531 204.664062 206.390625 205.605469 L 193.519531 212.570312 C 191.761719 213.507812 189.578125 212.851562 188.628906 211.09375 C 187.691406 209.339844 188.347656 207.152344 190.089844 206.203125 Z M 174.28125 186.804688 C 176.257812 186.539062 178.070312 187.929688 178.332031 189.894531 C 178.597656 191.871094 177.207031 193.683594 175.246094 193.945312 L 164.28125 195.457031 C 162.316406 195.71875 160.503906 194.34375 160.242188 192.367188 C 159.960938 190.386719 161.351562 188.574219 163.332031 188.3125 Z M 199.742188 183.042969 C 201.703125 182.765625 203.515625 184.15625 203.78125 186.132812 C 204.058594 188.109375 202.671875 189.921875 200.691406 190.1875 L 186.128906 192.148438 C 184.164062 192.414062 182.351562 191.023438 182.089844 189.046875 C 181.808594 187.082031 183.199219 185.269531 185.175781 185.007812 Z M 176.183594 161.476562 C 178.132812 161.875 179.394531 163.773438 178.980469 165.722656 C 178.582031 167.667969 176.679688 168.929688 174.734375 168.53125 L 166.195312 166.789062 C 164.25 166.394531 162.988281 164.492188 163.386719 162.53125 C 163.796875 160.582031 165.699219 159.324219 167.648438 159.71875 Z M 201.714844 167.140625 C 203.660156 167.550781 204.90625 169.472656 204.5 171.417969 C 204.074219 173.382812 202.167969 174.625 200.207031 174.203125 L 186.871094 171.332031 C 184.910156 170.921875 183.664062 169 184.085938 167.054688 C 184.496094 165.105469 186.417969 163.863281 188.363281 164.269531 Z M 195.449219 143.574219 C 197 144.820312 197.238281 147.085938 195.976562 148.640625 C 194.714844 150.179688 192.449219 150.414062 190.910156 149.167969 L 182.785156 142.566406 C 181.238281 141.308594 181.015625 139.039062 182.257812 137.5 C 183.519531 135.953125 185.785156 135.714844 187.339844 136.972656 Z M 210.574219 154.039062 C 212.136719 155.269531 212.417969 157.535156 211.1875 159.105469 C 209.972656 160.671875 207.699219 160.949219 206.136719 159.71875 L 199.503906 154.539062 C 197.941406 153.324219 197.660156 151.054688 198.875 149.488281 C 200.105469 147.921875 202.371094 147.644531 203.941406 148.875 Z M 144.808594 85.570312 C 147.402344 84.558594 150.125 83.941406 152.859375 83.710938 L 152.859375 83.726562 C 156.652344 83.414062 158.277344 88.527344 154.953125 90.429688 C 143.300781 97.117188 143.238281 112.15625 154.921875 118.890625 C 158.566406 121 163.003906 122.011719 167.515625 121.628906 L 167.515625 121.644531 C 171.304688 121.335938 172.929688 126.449219 169.589844 128.363281 C 154.835938 136.839844 134.511719 130.445312 129.5625 114.414062 C 125.824219 102.273438 132.921875 90.152344 144.808594 85.570312 Z M 140.371094 96.917969 C 131.105469 106.578125 136.640625 120.910156 149.933594 124.265625 C 140.769531 118.199219 136.539062 107.21875 140.371094 96.917969 Z M 128.851562 143.894531 C 122.261719 142.003906 114.722656 144.191406 112.347656 150.292969 L 139.566406 158.417969 C 140.738281 151.917969 135.394531 145.8125 128.851562 143.894531 Z M 136.933594 165.167969 L 111.195312 157.5 C 109.832031 164.058594 113.832031 170.722656 120.316406 172.566406 L 121.972656 173.050781 C 128.195312 174.769531 134.78125 171.300781 136.933594 165.167969 Z M 113.039062 195.988281 C 112.441406 191.15625 115.601562 186.648438 120.273438 185.492188 C 114.375 184.558594 109.320312 186.195312 105.351562 191.039062 C 102.292969 194.773438 100.652344 199.898438 101.136719 204.917969 L 103.832031 233.566406 C 105.117188 234.371094 106.175781 235.527344 106.863281 236.875 L 136.054688 236.875 C 123.113281 226.277344 115.074219 212.632812 113.039062 195.988281 Z M 131.457031 191.152344 C 131.792969 191.925781 132.015625 192.765625 132.121094 193.640625 C 132.78125 199.042969 134.328125 204.007812 136.851562 208.605469 L 136.46875 202.355469 C 136.1875 197.902344 134.316406 194.066406 131.457031 191.152344 Z M 154.195312 248.351562 C 151.457031 247.019531 148.847656 245.601562 146.375 244.109375 L 107.765625 244.109375 L 107.765625 252.65625 L 149.917969 252.65625 C 152.261719 252.660156 154.195312 250.738281 154.195312 248.351562 Z M 120.683594 193.335938 C 120.316406 193.824219 120.125 194.449219 120.214844 195.109375 C 123.175781 219.28125 140.050781 234.316406 161.253906 243.683594 C 164.167969 244.96875 166.097656 240.5625 163.214844 239.292969 C 143.523438 230.582031 127.683594 216.894531 124.945312 194.527344 C 124.675781 192.339844 121.957031 191.726562 120.683594 193.335938 Z M 99.394531 239.527344 C 98.796875 239.527344 98.269531 240.039062 98.269531 240.652344 L 98.269531 256.636719 C 98.269531 258.113281 100.535156 258.113281 100.535156 256.636719 L 100.535156 240.652344 C 100.535156 240.039062 100.011719 239.527344 99.394531 239.527344 Z M 87.492188 122.652344 C 88.71875 111.863281 93.347656 99.039062 101.925781 89.503906 C 109.042969 81.597656 118.820312 75.90625 131.554688 75.316406 C 138.171875 75.007812 142.976562 68.421875 147.882812 64.847656 C 149.144531 63.9375 150.796875 63.953125 152.007812 64.777344 C 157.1875 68.289062 162.988281 75.621094 167.984375 75.285156 C 180.632812 74.421875 190.414062 79.753906 197.589844 87.726562 C 206.460938 97.597656 211.25 111.621094 212.503906 122.648438 C 215.5625 125.703125 218.316406 127.640625 220.601562 129.246094 C 226.984375 133.726562 230.601562 136.261719 230.601562 149.15625 L 230.601562 262.695312 L 247.757812 262.695312 L 247.757812 129.179688 C 247.757812 118.273438 244.359375 116.148438 238.34375 112.390625 C 234.742188 110.148438 230.394531 107.425781 225.296875 102.683594 C 224.683594 102.113281 224.257812 101.3125 224.171875 100.402344 C 223 88.703125 217.378906 73.320312 206.601562 62.675781 C 198.722656 54.902344 188.023438 49.691406 174.203125 50.535156 C 164.394531 51.121094 157.46875 43.464844 150.0625 38.269531 C 143.34375 43.394531 136.839844 50.128906 126.066406 50.566406 C 111.75 51.140625 100.753906 56.832031 92.742188 64.738281 C 82.410156 74.972656 77.007812 88.871094 75.816406 100.289062 C 75.761719 101.183594 75.378906 102.046875 74.675781 102.691406 C 69.65625 107.390625 65.363281 110.113281 61.796875 112.386719 C 55.691406 116.261719 52.21875 118.457031 52.21875 129.46875 L 52.21875 262.710938 L 69.394531 262.710938 L 69.394531 149.402344 C 69.398438 131.144531 76.953125 133.210938 87.492188 122.652344 Z M 226.984375 269.929688 L 48.609375 269.929688 C 46.621094 269.929688 44.996094 268.304688 44.996094 266.316406 L 44.996094 129.460938 C 44.996094 114.480469 49.679688 111.511719 57.9375 106.269531 C 61.011719 104.308594 64.6875 101.976562 68.800781 98.289062 C 70.378906 85.699219 76.441406 70.71875 87.703125 59.59375 C 96.863281 50.53125 109.441406 44.019531 125.796875 43.359375 C 135.199219 42.976562 141.445312 35.144531 148.039062 30.871094 C 149.234375 30.09375 150.71875 30.121094 151.859375 30.8125 L 151.875 30.796875 C 158.785156 34.984375 166.339844 43.765625 173.792969 43.328125 C 189.945312 42.34375 202.457031 48.417969 211.683594 57.53125 C 223.324219 69.035156 229.589844 85.433594 231.199219 98.289062 C 235.375 102.023438 239.078125 104.339844 242.179688 106.269531 C 250.378906 111.378906 255.003906 114.265625 255.003906 129.179688 L 255.003906 266.316406 C 255.003906 268.308594 253.394531 269.929688 251.390625 269.929688 Z M 226.984375 269.929688 " fill-opacity="1" fill-rule="nonzero"/></g></svg>