<svg xmlns="http://www.w3.org/2000/svg" xmlns:xlink="http://www.w3.org/1999/xlink" width="400" zoomAndPan="magnify" viewBox="0 0 300 299.999988" height="400" preserveAspectRatio="xMidYMid meet" version="1.0"><defs><clipPath id="787e1816e8"><path d="M 191 178 L 198 178 L 198 184.277344 L 191 184.277344 Z M 191 178 " clip-rule="nonzero"/></clipPath><clipPath id="b473dd1bbb"><path d="M 68 115.277344 L 71 115.277344 L 71 125 L 68 125 Z M 68 115.277344 " clip-rule="nonzero"/></clipPath></defs><path fill="#a9a0f0" d="M 51.828125 170.519531 C 53.28125 163.90625 54.425781 158.417969 54.175781 157.097656 C 54.113281 156.757812 54.214844 158.03125 55.574219 158.328125 C 55.722656 158.359375 55.863281 158.375 55.996094 158.375 C 56.660156 158.375 57.007812 158.042969 56.917969 158.113281 C 56.304688 158.621094 54.871094 160.773438 52.761719 164.023438 C 50.179688 168.003906 46.769531 173.3125 43.9375 175.664062 C 42.667969 176.722656 41.25 177.421875 39.699219 177.421875 C 35.203125 177.421875 32.894531 171.445312 31.597656 168.570312 C 31.070312 167.40625 31.589844 166.035156 32.753906 165.511719 C 33.917969 164.984375 35.289062 165.5 35.816406 166.667969 C 37.898438 171.285156 38.976562 172.796875 39.699219 172.796875 C 39.789062 172.796875 40.191406 172.757812 40.980469 172.105469 C 43.128906 170.320312 46.089844 165.804688 48.882812 161.503906 C 50.691406 158.714844 52.644531 155.644531 53.964844 154.550781 C 53.984375 154.535156 54.003906 154.515625 54.027344 154.5 C 54.355469 154.238281 55.050781 153.746094 55.996094 153.746094 C 56.179688 153.746094 56.371094 153.765625 56.566406 153.808594 C 58.308594 154.191406 58.65625 155.878906 58.722656 156.238281 C 59.203125 158.773438 57.625 165.703125 56.347656 171.511719 C 56.074219 172.761719 54.839844 173.550781 53.59375 173.277344 C 52.34375 173.003906 51.554688 171.769531 51.828125 170.519531 Z M 51.828125 170.519531 " fill-opacity="1" fill-rule="nonzero"/><path fill="#a9a0f0" d="M 196.679688 163.699219 C 195.964844 163.699219 195.265625 164.023438 194.8125 164.644531 C 191.371094 169.328125 188.496094 173.132812 186.28125 174.261719 C 185.808594 174.5 185.4375 174.570312 185.160156 174.570312 C 184.488281 174.570312 183.753906 174.109375 183.375 173.089844 C 182.796875 171.542969 183.230469 169.214844 183.976562 165.84375 C 184.003906 165.71875 184.019531 165.59375 184.027344 165.472656 L 178.570312 169.726562 C 178.40625 171.429688 178.464844 173.164062 179.035156 174.703125 C 179.925781 177.09375 182.121094 179.199219 185.160156 179.199219 C 186.238281 179.199219 187.328125 178.921875 188.378906 178.386719 C 191.839844 176.625 195.472656 171.5625 198.542969 167.382812 C 199.296875 166.351562 199.074219 164.902344 198.046875 164.144531 C 197.632812 163.84375 197.152344 163.699219 196.679688 163.699219 Z M 196.679688 163.699219 " fill-opacity="1" fill-rule="nonzero"/><path fill="#a9a0f0" d="M 121.644531 155.28125 L 121.535156 155.285156 C 121.277344 155.316406 121.097656 155.359375 120.996094 155.414062 C 120.859375 155.472656 120.726562 155.550781 120.605469 155.648438 C 120.546875 155.699219 120.488281 155.753906 120.433594 155.808594 L 119.125 157.21875 C 118.820312 157.554688 118.671875 157.949219 118.683594 158.40625 C 118.699219 158.78125 118.824219 159.109375 119.058594 159.398438 C 119.105469 159.453125 119.15625 159.507812 119.210938 159.558594 L 120.515625 160.769531 C 120.816406 161.0625 121.210938 161.207031 121.703125 161.210938 C 122.15625 161.1875 122.539062 161.015625 122.851562 160.683594 L 124.164062 159.277344 L 124.304688 159.101562 C 124.390625 158.980469 124.457031 158.851562 124.503906 158.71875 L 124.566406 158.511719 C 124.597656 158.371094 124.609375 158.230469 124.605469 158.089844 C 124.589844 157.652344 124.414062 157.265625 124.078125 156.9375 L 122.773438 155.726562 C 122.71875 155.675781 122.664062 155.632812 122.605469 155.589844 C 122.3125 155.382812 121.992188 155.28125 121.644531 155.28125 Z M 121.644531 155.28125 " fill-opacity="1" fill-rule="nonzero"/><path fill="#a9a0f0" d="M 97.417969 124.65625 L 92.796875 128.792969 L 92.796875 178.238281 C 92.796875 178.351562 92.804688 178.464844 92.820312 178.574219 C 93.785156 177.382812 94.605469 175.574219 95.28125 173.144531 C 96.027344 170.265625 96.582031 166.636719 96.949219 162.257812 C 97.136719 160.089844 97.296875 157.796875 97.425781 155.375 L 97.425781 124.851562 C 97.425781 124.785156 97.421875 124.71875 97.417969 124.65625 Z M 97.417969 124.65625 " fill-opacity="1" fill-rule="nonzero"/><path fill="#a9a0f0" d="M 137.441406 157.828125 L 133.964844 161.398438 C 134.179688 163.125 134.050781 164.765625 133.574219 166.316406 C 133.339844 167.089844 133.015625 167.84375 132.605469 168.578125 L 131.929688 169.65625 C 131.433594 170.367188 130.851562 171.054688 130.183594 171.71875 C 127.417969 174.136719 124.242188 175.152344 120.664062 174.765625 C 117.574219 174.328125 115.042969 172.980469 113.066406 170.714844 C 112.039062 169.558594 111.230469 168.101562 110.644531 166.351562 C 110.257812 165.109375 110.109375 163.664062 110.195312 162.015625 L 106.5625 158.066406 C 105.625 159.34375 105.347656 161.828125 105.734375 165.519531 C 106.105469 167.878906 107 170.125 108.421875 172.257812 L 109.578125 173.730469 C 110.382812 174.65625 111.246094 175.472656 112.175781 176.175781 C 113.105469 176.878906 114.097656 177.46875 115.152344 177.949219 C 117.261719 178.90625 119.625 179.417969 122.242188 179.484375 L 124.128906 179.332031 C 125.359375 179.171875 126.527344 178.902344 127.632812 178.523438 C 128.738281 178.144531 129.78125 177.652344 130.761719 177.050781 C 132.726562 175.84375 134.445312 174.195312 135.914062 172.097656 C 136.597656 171.050781 137.15625 169.972656 137.589844 168.859375 C 138.257812 166.890625 138.601562 165.449219 138.617188 164.539062 C 138.746094 162.347656 138.671875 160.699219 138.398438 159.59375 C 138.140625 158.609375 137.820312 158.019531 137.441406 157.828125 Z M 137.441406 157.828125 " fill-opacity="1" fill-rule="nonzero"/><path fill="#a9a0f0" d="M 87.519531 123.097656 L 82.890625 127.125 L 82.890625 165.515625 C 79.421875 170.339844 76.863281 173.238281 75.28125 174.300781 C 73.734375 175.34375 72.628906 175.082031 71.828125 173.453125 C 71.65625 173.109375 71.558594 172.335938 71.582031 171.09375 C 71.597656 170.371094 72.285156 165.648438 72.285156 165.648438 L 72.28125 132.546875 L 67.65625 136.457031 L 67.65625 165.515625 C 63.65625 171.167969 60.792969 174.40625 58.960938 174.84375 C 57.527344 175.183594 56.621094 174.3125 56.386719 172.613281 C 56.199219 171.25 56.507812 168.988281 57.246094 165.839844 L 51.789062 170.089844 L 51.753906 170.515625 C 51.433594 175.175781 53.132812 178.210938 56.933594 179.394531 C 58.363281 179.839844 59.96875 179.601562 61.601562 178.75 C 63.480469 177.765625 65.292969 176.0625 67.132812 173.792969 C 67.675781 176.59375 69.320312 178.566406 72.167969 179.394531 C 74.515625 180.078125 76.941406 179.097656 79.449219 176.875 C 80.304688 176.117188 81.792969 174.5625 83.765625 172.066406 C 84.871094 170.664062 85.984375 169.175781 87.09375 167.597656 C 87.300781 167.308594 87.402344 166.976562 87.429688 166.640625 C 87.460938 166.253906 87.519531 165.648438 87.519531 165.648438 Z M 87.519531 123.097656 " fill-opacity="1" fill-rule="nonzero"/><path fill="#a9a0f0" d="M 239.046875 163.519531 L 238.964844 163.519531 C 238.6875 163.53125 238.414062 163.589844 238.148438 163.703125 C 228.570312 168.21875 221.71875 171.246094 217.582031 172.789062 C 213.492188 174.253906 211.171875 175.011719 210.625 175.054688 C 209.25 175.402344 208.015625 175.617188 206.917969 175.707031 C 206.347656 175.761719 205.691406 175.753906 204.953125 175.6875 L 204.027344 175.515625 C 203.453125 175.367188 202.941406 175.144531 202.492188 174.851562 C 201.609375 174.265625 200.878906 173.417969 200.296875 172.308594 L 198.0625 167.507812 C 197.085938 166.734375 196.164062 166.597656 195.300781 167.097656 C 194.347656 167.691406 193.964844 168.539062 194.152344 169.648438 C 194.945312 172.246094 196.140625 174.617188 197.742188 176.757812 C 199.355469 178.375 200.449219 179.234375 201.03125 179.339844 L 202.476562 179.894531 L 204.125 180.246094 L 206.308594 180.367188 C 211.40625 180.332031 221.019531 176.949219 235.140625 170.210938 C 234.972656 172.089844 235.226562 173.78125 235.898438 175.292969 C 236.65625 176.9375 237.910156 178.117188 239.660156 178.832031 C 242.816406 179.9375 246.066406 178.566406 249.402344 174.714844 C 250.414062 176.941406 251.753906 178.316406 253.414062 178.832031 C 255.171875 179.4375 256.949219 179.289062 258.746094 178.386719 C 261.171875 177.230469 264.558594 173.5625 268.90625 167.382812 C 269.636719 166.164062 269.46875 165.085938 268.410156 164.144531 C 267.539062 163.519531 266.585938 163.546875 265.558594 164.234375 C 261.878906 169.113281 259.71875 171.800781 259.078125 172.308594 C 257.777344 173.710938 256.59375 174.464844 255.523438 174.570312 C 254.285156 174.503906 253.601562 173.476562 253.476562 171.496094 L 253.632812 169.449219 C 255.261719 167.695312 255.886719 166.335938 255.511719 165.371094 C 255.363281 164.785156 254.96875 164.3125 254.339844 163.949219 C 253.738281 163.644531 253.101562 163.617188 252.425781 163.867188 C 252.089844 164 251.792969 164.210938 251.542969 164.496094 C 249.128906 167.855469 247.054688 170.457031 245.328125 172.308594 C 244.023438 173.710938 242.839844 174.464844 241.773438 174.570312 C 240.53125 174.433594 239.851562 173.476562 239.730469 171.707031 C 239.699219 170.679688 239.839844 169.398438 240.160156 167.863281 C 241.078125 167.289062 241.46875 166.472656 241.324219 165.421875 C 240.921875 164.152344 240.160156 163.519531 239.046875 163.519531 Z M 239.046875 163.519531 " fill-opacity="1" fill-rule="nonzero"/><path fill="#a9a0f0" d="M 146.597656 125.015625 L 141.96875 129.71875 L 141.976562 171.011719 C 142.03125 171.546875 142.234375 172.003906 142.578125 172.378906 L 145.246094 174.601562 C 151.496094 179.730469 157.445312 181.601562 163.09375 180.210938 C 166.214844 179.425781 169.488281 177.953125 172.921875 175.789062 C 175.402344 174.34375 180.222656 170.761719 187.382812 165.042969 C 188.035156 164.328125 188.234375 163.554688 187.980469 162.722656 C 187.792969 162.015625 187.285156 161.496094 186.453125 161.167969 C 174.523438 158.578125 166.789062 157.429688 163.246094 157.71875 C 161.96875 157.816406 160.914062 158.117188 160.085938 158.613281 C 159.152344 159.320312 158.65625 159.804688 158.605469 160.066406 C 158.347656 160.480469 158.175781 160.910156 158.089844 161.355469 C 157.625 163.082031 158.480469 165.671875 160.652344 169.125 L 160.972656 169.390625 L 163.910156 165.617188 C 163.183594 164.257812 162.75 163.226562 162.613281 162.519531 C 162.996094 162.394531 163.558594 162.324219 164.300781 162.3125 C 167.214844 162.28125 172.59375 163.0625 180.433594 164.65625 C 178.003906 166.554688 176.15625 167.949219 174.886719 168.847656 C 168.578125 173.511719 163.515625 175.902344 159.703125 176.019531 C 156.417969 176.394531 152.046875 174.304688 146.597656 169.742188 Z M 146.597656 125.015625 " fill-opacity="1" fill-rule="nonzero"/><g clip-path="url(#787e1816e8)"><path fill="#a9a0f0" d="M 194.714844 178.277344 L 194.601562 178.28125 C 194.34375 178.308594 194.164062 178.351562 194.0625 178.410156 C 193.925781 178.46875 193.796875 178.546875 193.675781 178.644531 C 193.613281 178.691406 193.554688 178.746094 193.503906 178.804688 L 192.191406 180.210938 C 191.886719 180.546875 191.742188 180.945312 191.75 181.398438 C 191.773438 181.851562 191.949219 182.234375 192.277344 182.550781 L 193.582031 183.765625 C 193.605469 183.792969 193.6875 183.855469 193.828125 183.953125 C 194.144531 184.136719 194.457031 184.222656 194.769531 184.207031 C 195.222656 184.183594 195.605469 184.007812 195.921875 183.679688 L 197.230469 182.269531 L 197.371094 182.097656 C 197.457031 181.972656 197.523438 181.847656 197.574219 181.710938 L 197.632812 181.503906 C 197.664062 181.367188 197.675781 181.226562 197.671875 181.085938 C 197.65625 180.644531 197.480469 180.261719 197.144531 179.933594 L 195.839844 178.71875 C 195.789062 178.667969 195.730469 178.625 195.675781 178.582031 C 195.378906 178.378906 195.058594 178.277344 194.714844 178.277344 Z M 194.714844 178.277344 " fill-opacity="1" fill-rule="nonzero"/></g><path fill="#a9a0f0" d="M 153.816406 133.894531 L 171.820312 123.902344 C 172.199219 123.691406 172.675781 123.828125 172.886719 124.207031 C 173.097656 124.585938 172.960938 125.0625 172.582031 125.273438 L 154.578125 135.265625 C 154.199219 135.476562 153.71875 135.339844 153.511719 134.960938 C 153.300781 134.582031 153.4375 134.105469 153.816406 133.894531 Z M 153.816406 133.894531 " fill-opacity="1" fill-rule="nonzero"/><path fill="#a9a0f0" d="M 110.078125 133.894531 L 128.085938 123.902344 C 128.464844 123.691406 128.941406 123.828125 129.152344 124.207031 C 129.363281 124.585938 129.226562 125.0625 128.847656 125.273438 L 110.839844 135.265625 C 110.460938 135.476562 109.984375 135.339844 109.773438 134.960938 C 109.5625 134.582031 109.699219 134.105469 110.078125 133.894531 Z M 110.078125 133.894531 " fill-opacity="1" fill-rule="nonzero"/><path fill="#a9a0f0" d="M 205.1875 140.75 L 208.09375 140.546875 C 208.515625 140.515625 208.886719 140.824219 208.929688 141.246094 C 209.003906 141.941406 209.175781 143.121094 208.523438 143.964844 C 207.914062 144.757812 206.675781 145.09375 205.859375 145.34375 C 205.445312 145.46875 205.007812 145.234375 204.882812 144.820312 C 204.753906 144.402344 204.988281 143.964844 205.40625 143.839844 C 206.4375 143.527344 207.050781 143.304688 207.28125 143.007812 C 207.46875 142.765625 207.46875 142.332031 207.371094 141.410156 L 208.207031 142.109375 L 205.296875 142.316406 C 204.863281 142.347656 204.488281 142.019531 204.460938 141.585938 C 204.429688 141.15625 204.753906 140.78125 205.1875 140.75 Z M 205.1875 140.75 " fill-opacity="1" fill-rule="nonzero"/><path fill="#a9a0f0" d="M 249.949219 137.121094 L 248.652344 136.527344 C 253.933594 131.953125 258.839844 127.667969 259.558594 125.796875 C 259.707031 125.410156 259.605469 125.40625 259.460938 125.347656 C 259.324219 125.296875 259.121094 125.257812 258.863281 125.257812 C 258.128906 125.257812 257.402344 125.546875 257.160156 125.808594 C 256.761719 126.242188 257.421875 127.347656 259.300781 129.652344 C 259.574219 129.988281 259.523438 130.484375 259.1875 130.757812 C 258.851562 131.03125 258.359375 130.980469 258.085938 130.644531 C 256.863281 129.148438 254.425781 126.453125 256.007812 124.746094 C 256.664062 124.035156 257.894531 123.691406 258.863281 123.691406 C 259.25 123.691406 259.65625 123.742188 260.023438 123.882812 C 260.980469 124.253906 261.484375 125.167969 261.023438 126.359375 C 260.121094 128.710938 254.710938 133.359375 249.679688 137.714844 C 249.445312 137.914062 249.117188 137.960938 248.839844 137.832031 C 248.558594 137.707031 248.382812 137.425781 248.382812 137.121094 C 248.382812 136.6875 248.730469 136.335938 249.164062 136.335938 C 249.597656 136.335938 249.949219 136.6875 249.949219 137.121094 Z M 249.949219 137.121094 " fill-opacity="1" fill-rule="nonzero"/><path fill="#a9a0f0" d="M 73.136719 126.765625 L 73.132812 126.730469 L 73.132812 126.734375 L 73.136719 126.765625 C 73.261719 128.09375 73.445312 129.796875 73.027344 130.789062 C 72.726562 131.5 72.113281 131.929688 71.398438 131.929688 C 70.925781 131.929688 70.476562 131.738281 70.125 131.425781 C 69.363281 130.75 68.976562 129.402344 68.675781 128.433594 L 68.683594 128.453125 L 68.683594 128.449219 L 70.15625 128.496094 C 69.707031 129.613281 69.132812 131.128906 68.273438 131.769531 C 67.9375 132.023438 67.550781 132.15625 67.144531 132.15625 C 66.320312 132.15625 65.648438 131.605469 65.320312 130.863281 C 64.875 129.855469 64.992188 128.324219 65.066406 127.125 C 65.09375 126.691406 65.464844 126.363281 65.898438 126.386719 C 66.328125 126.414062 66.660156 126.789062 66.632812 127.21875 C 66.546875 128.605469 66.503906 129.65625 66.753906 130.226562 C 66.894531 130.539062 67.078125 130.589844 67.144531 130.589844 C 67.1875 130.589844 67.25 130.578125 67.335938 130.511719 C 67.75 130.207031 68.160156 129.257812 68.699219 127.910156 C 68.820312 127.605469 69.121094 127.410156 69.449219 127.417969 C 69.777344 127.429688 70.066406 127.640625 70.171875 127.953125 L 70.175781 127.972656 C 70.539062 129.144531 70.8125 129.9375 71.164062 130.25 C 71.269531 130.34375 71.355469 130.363281 71.398438 130.363281 C 71.421875 130.363281 71.5 130.367188 71.582031 130.179688 C 71.804688 129.648438 71.71875 128.46875 71.574219 126.910156 L 71.578125 126.945312 L 71.578125 126.941406 C 71.53125 126.480469 71.847656 126.097656 72.28125 126.054688 C 72.710938 126.015625 73.09375 126.332031 73.136719 126.765625 Z M 73.136719 126.765625 " fill-opacity="1" fill-rule="nonzero"/><g clip-path="url(#b473dd1bbb)"><path fill="#a9a0f0" d="M 69.195312 124.925781 L 69.328125 124.117188 C 69.546875 122.777344 69.671875 121.988281 69.703125 121.742188 C 69.777344 121.230469 69.84375 120.734375 69.898438 120.257812 L 69.972656 119.558594 L 70.023438 118.898438 L 70.054688 118.28125 L 70.058594 117.710938 L 70.035156 117.191406 L 69.980469 116.734375 C 69.953125 116.582031 69.921875 116.441406 69.886719 116.3125 C 69.871094 116.234375 69.804688 116.070312 69.683594 115.820312 C 69.527344 115.550781 69.351562 115.394531 69.160156 115.351562 C 69.121094 115.332031 69.035156 115.339844 68.90625 115.375 C 68.800781 115.414062 68.703125 115.496094 68.613281 115.621094 C 68.476562 115.804688 68.375 116.085938 68.308594 116.464844 L 68.261719 116.90625 L 68.242188 117.414062 L 68.253906 117.988281 L 68.292969 118.617188 L 68.355469 119.296875 C 68.46875 120.453125 68.75 122.332031 69.195312 124.925781 " fill-opacity="1" fill-rule="nonzero"/></g><path fill="#a9a0f0" d="M 217.953125 180.238281 L 232.894531 173.683594 C 232.988281 173.644531 233.09375 173.679688 233.144531 173.765625 C 235.152344 177.09375 237.09375 180.28125 239.71875 180.800781 C 239.988281 180.855469 240.269531 180.882812 240.558594 180.882812 C 243.066406 180.882812 246.128906 178.949219 249.265625 176.957031 C 249.359375 176.898438 249.476562 176.921875 249.539062 177.011719 C 251.1875 179.429688 252.757812 181.691406 255.089844 181.691406 C 255.492188 181.691406 255.921875 181.625 256.382812 181.476562 C 259.574219 180.445312 264.125 175.605469 268.742188 170.683594 C 268.816406 170.601562 268.941406 170.597656 269.023438 170.671875 C 269.101562 170.75 269.105469 170.875 269.03125 170.953125 C 264.457031 175.828125 259.820312 180.785156 256.503906 181.855469 C 256.007812 182.015625 255.535156 182.089844 255.089844 182.089844 C 252.5 182.089844 250.8125 179.585938 249.210938 177.234375 L 249.480469 177.292969 C 246.382812 179.253906 243.210938 181.277344 240.558594 181.277344 C 240.246094 181.277344 239.941406 181.25 239.640625 181.191406 C 236.800781 180.628906 234.769531 177.226562 232.804688 173.96875 L 233.054688 174.046875 L 218.109375 180.601562 C 218.011719 180.644531 217.894531 180.601562 217.847656 180.5 C 217.804688 180.398438 217.851562 180.28125 217.953125 180.238281 Z M 217.953125 180.238281 " fill-opacity="1" fill-rule="nonzero"/><path fill="#a9a0f0" d="M 221.742188 169.324219 L 221.714844 169.335938 C 216.398438 171.65625 211.019531 174.007812 207.46875 174.007812 C 207.378906 174.007812 207.289062 174.007812 207.199219 174.003906 C 203.578125 173.878906 202.015625 171.128906 200.511719 168.507812 C 200.457031 168.414062 200.492188 168.292969 200.585938 168.238281 C 200.683594 168.183594 200.804688 168.214844 200.859375 168.308594 C 202.378906 170.964844 203.84375 173.488281 207.214844 173.609375 C 207.296875 173.609375 207.382812 173.613281 207.46875 173.613281 C 210.914062 173.613281 216.199219 171.3125 221.554688 168.972656 L 221.585938 168.960938 C 221.683594 168.914062 221.800781 168.960938 221.847656 169.0625 C 221.890625 169.164062 221.84375 169.28125 221.742188 169.324219 Z M 221.742188 169.324219 " fill-opacity="1" fill-rule="nonzero"/><path fill="#a9a0f0" d="M 142.566406 175.660156 C 148.3125 179.066406 153.996094 182.421875 159.660156 182.453125 C 159.691406 182.453125 159.703125 182.453125 159.734375 182.453125 C 165.375 182.453125 171.023438 179.171875 176.738281 175.84375 C 176.832031 175.789062 176.953125 175.820312 177.007812 175.917969 C 177.0625 176.011719 177.03125 176.132812 176.9375 176.1875 C 171.253906 179.496094 165.503906 182.851562 159.734375 182.851562 C 159.703125 182.851562 159.6875 182.851562 159.65625 182.851562 C 153.863281 182.820312 148.082031 179.390625 142.363281 176.003906 C 142.269531 175.949219 142.238281 175.824219 142.296875 175.730469 C 142.351562 175.636719 142.472656 175.605469 142.566406 175.660156 Z M 142.566406 175.660156 " fill-opacity="1" fill-rule="nonzero"/><path fill="#a9a0f0" d="M 157.671875 166.714844 C 156.433594 162.394531 155.050781 157.710938 159.730469 156.367188 C 159.734375 156.367188 159.757812 156.363281 159.761719 156.359375 C 160.800781 156.066406 162.132812 155.941406 163.679688 155.941406 C 168.960938 155.941406 176.910156 157.40625 184.828125 158.867188 C 184.9375 158.886719 185.007812 158.992188 184.988281 159.097656 C 184.96875 159.207031 184.867188 159.277344 184.757812 159.257812 C 176.824219 157.796875 168.917969 156.339844 163.679688 156.339844 C 162.148438 156.339844 160.859375 156.464844 159.871094 156.742188 C 159.863281 156.746094 159.847656 156.75 159.839844 156.75 C 155.613281 157.960938 156.761719 162.101562 158.054688 166.605469 C 158.082031 166.710938 158.023438 166.820312 157.917969 166.851562 C 157.8125 166.882812 157.703125 166.820312 157.671875 166.714844 Z M 157.671875 166.714844 " fill-opacity="1" fill-rule="nonzero"/><path fill="#a9a0f0" d="M 148.125 128.105469 L 148.175781 167.742188 C 148.175781 167.851562 148.085938 167.941406 147.976562 167.941406 C 147.867188 167.941406 147.777344 167.851562 147.777344 167.742188 L 147.726562 128.105469 C 147.726562 127.996094 147.816406 127.910156 147.925781 127.90625 C 148.035156 127.90625 148.125 127.996094 148.125 128.105469 Z M 148.125 128.105469 " fill-opacity="1" fill-rule="nonzero"/><path fill="#a9a0f0" d="M 131.71875 161.003906 L 131.816406 161.707031 C 131.820312 161.710938 131.820312 161.714844 131.820312 161.71875 L 131.871094 162.429688 C 131.871094 162.433594 131.871094 162.4375 131.871094 162.441406 L 131.871094 163.152344 C 131.871094 163.15625 131.871094 163.160156 131.871094 163.167969 L 131.824219 163.875 C 131.824219 163.878906 131.820312 163.882812 131.820312 163.890625 L 131.722656 164.59375 C 131.722656 164.597656 131.722656 164.601562 131.71875 164.605469 L 131.570312 165.300781 C 131.570312 165.304688 131.570312 165.308594 131.566406 165.3125 L 131.371094 165.996094 C 131.371094 166 131.367188 166.003906 131.367188 166.011719 L 131.121094 166.675781 C 131.121094 166.679688 131.117188 166.6875 131.117188 166.691406 L 130.824219 167.339844 C 130.824219 167.34375 130.820312 167.347656 130.820312 167.351562 L 130.484375 167.976562 C 130.480469 167.980469 130.480469 167.984375 130.476562 167.988281 L 130.097656 168.589844 C 130.09375 168.59375 130.09375 168.597656 130.089844 168.601562 L 129.667969 169.171875 C 129.667969 169.175781 129.664062 169.179688 129.660156 169.183594 L 129.199219 169.726562 C 129.199219 169.730469 129.195312 169.730469 129.191406 169.734375 L 128.695312 170.242188 C 128.691406 170.246094 128.6875 170.25 128.683594 170.253906 L 128.152344 170.722656 C 128.148438 170.726562 128.144531 170.730469 128.140625 170.734375 L 127.574219 171.167969 C 127.570312 171.171875 127.566406 171.175781 127.5625 171.175781 L 126.964844 171.574219 C 126.960938 171.574219 126.953125 171.578125 126.949219 171.578125 L 126.324219 171.929688 C 126.320312 171.933594 126.316406 171.933594 126.3125 171.9375 L 125.664062 172.242188 C 125.660156 172.246094 125.65625 172.246094 125.652344 172.25 L 124.984375 172.507812 C 124.980469 172.507812 124.972656 172.511719 124.96875 172.511719 L 124.285156 172.722656 C 124.28125 172.722656 124.277344 172.726562 124.269531 172.726562 L 123.574219 172.886719 C 123.566406 172.890625 123.5625 172.890625 123.558594 172.890625 L 122.851562 173.003906 C 122.84375 173.003906 122.839844 173.003906 122.835938 173.003906 L 122.121094 173.0625 C 122.117188 173.066406 122.113281 173.066406 122.109375 173.066406 L 121.390625 173.074219 C 121.386719 173.074219 121.382812 173.074219 121.375 173.074219 L 120.660156 173.03125 C 120.65625 173.03125 120.652344 173.03125 120.648438 173.03125 L 119.9375 172.9375 C 119.929688 172.9375 119.925781 172.9375 119.921875 172.9375 L 119.21875 172.792969 C 119.214844 172.792969 119.210938 172.792969 119.207031 172.789062 L 118.515625 172.597656 C 118.511719 172.597656 118.503906 172.597656 118.5 172.59375 L 117.824219 172.351562 C 117.722656 172.316406 117.667969 172.203125 117.707031 172.097656 C 117.742188 171.996094 117.855469 171.941406 117.960938 171.980469 L 118.636719 172.21875 L 118.621094 172.214844 L 119.3125 172.40625 L 119.296875 172.40625 L 120 172.546875 L 119.988281 172.546875 L 120.699219 172.636719 L 120.683594 172.636719 L 121.398438 172.679688 L 121.386719 172.675781 L 122.101562 172.667969 L 122.089844 172.667969 L 122.800781 172.609375 L 122.789062 172.609375 L 123.496094 172.5 L 123.484375 172.5 L 124.179688 172.339844 L 124.167969 172.34375 L 124.851562 172.132812 L 124.839844 172.136719 L 125.507812 171.878906 L 125.496094 171.882812 L 126.144531 171.578125 L 126.132812 171.585938 L 126.757812 171.234375 L 126.746094 171.242188 L 127.34375 170.847656 L 127.332031 170.855469 L 127.898438 170.417969 L 127.890625 170.425781 L 128.421875 169.957031 L 128.410156 169.964844 L 128.90625 169.457031 L 128.898438 169.46875 L 129.359375 168.925781 L 129.347656 168.9375 L 129.769531 168.367188 L 129.761719 168.378906 L 130.140625 167.777344 L 130.132812 167.789062 L 130.46875 167.164062 L 130.464844 167.175781 L 130.753906 166.527344 L 130.75 166.539062 L 130.992188 165.875 L 130.988281 165.886719 L 131.1875 165.203125 L 131.183594 165.21875 L 131.332031 164.523438 L 131.328125 164.535156 L 131.429688 163.832031 L 131.425781 163.847656 L 131.476562 163.140625 L 131.476562 163.152344 L 131.472656 162.441406 L 131.472656 162.457031 L 131.421875 161.75 L 131.425781 161.761719 L 131.324219 161.058594 C 131.308594 160.949219 131.382812 160.851562 131.492188 160.835938 C 131.601562 160.820312 131.703125 160.894531 131.71875 161.003906 Z M 131.71875 161.003906 " fill-opacity="1" fill-rule="nonzero"/><path fill="#a9a0f0" d="M 104.410156 160.53125 L 104.222656 161.703125 L 104.222656 161.6875 L 104.117188 162.871094 L 104.117188 162.855469 L 104.09375 164.042969 L 104.09375 164.027344 L 104.148438 165.214844 L 104.148438 165.199219 L 104.285156 166.378906 L 104.28125 166.363281 L 104.496094 167.53125 L 104.496094 167.515625 L 104.789062 168.664062 L 104.785156 168.652344 L 105.160156 169.777344 L 105.15625 169.765625 L 105.605469 170.863281 L 105.597656 170.851562 L 106.121094 171.914062 L 106.113281 171.902344 L 106.707031 172.929688 L 106.703125 172.917969 L 107.363281 173.898438 L 107.355469 173.890625 L 108.085938 174.824219 L 108.078125 174.8125 L 108.871094 175.703125 L 108.863281 175.691406 L 109.714844 176.523438 L 109.703125 176.515625 L 110.613281 177.285156 L 110.601562 177.277344 L 111.5625 177.984375 L 111.550781 177.976562 L 112.554688 178.613281 L 112.542969 178.609375 L 113.589844 179.175781 L 113.578125 179.171875 L 114.660156 179.667969 L 114.648438 179.660156 L 115.765625 180.082031 L 115.75 180.078125 L 116.890625 180.417969 L 116.878906 180.417969 L 118.039062 180.679688 L 118.027344 180.675781 L 119.203125 180.859375 L 119.191406 180.859375 L 120.378906 180.960938 L 120.363281 180.960938 L 121.554688 180.980469 C 121.664062 180.984375 121.753906 181.074219 121.75 181.183594 C 121.75 181.292969 121.65625 181.382812 121.546875 181.378906 L 120.355469 181.359375 C 120.351562 181.359375 120.347656 181.359375 120.34375 181.359375 L 119.15625 181.253906 C 119.152344 181.253906 119.148438 181.253906 119.144531 181.253906 L 117.964844 181.070312 C 117.960938 181.070312 117.957031 181.070312 117.953125 181.066406 L 116.789062 180.804688 C 116.785156 180.800781 116.78125 180.800781 116.777344 180.800781 L 115.636719 180.457031 C 115.632812 180.457031 115.628906 180.453125 115.625 180.453125 L 114.507812 180.03125 C 114.503906 180.03125 114.5 180.03125 114.496094 180.027344 L 113.414062 179.53125 C 113.410156 179.53125 113.40625 179.527344 113.402344 179.527344 L 112.355469 178.957031 C 112.351562 178.953125 112.347656 178.953125 112.34375 178.949219 L 111.335938 178.3125 C 111.332031 178.308594 111.328125 178.304688 111.324219 178.304688 L 110.367188 177.597656 C 110.363281 177.59375 110.359375 177.589844 110.355469 177.589844 L 109.449219 176.816406 C 109.445312 176.8125 109.441406 176.8125 109.4375 176.808594 L 108.585938 175.976562 C 108.582031 175.972656 108.578125 175.96875 108.574219 175.96875 L 107.78125 175.078125 C 107.777344 175.074219 107.773438 175.074219 107.773438 175.070312 L 107.042969 174.132812 C 107.039062 174.128906 107.039062 174.125 107.035156 174.121094 L 106.371094 173.140625 C 106.371094 173.136719 106.367188 173.132812 106.363281 173.128906 L 105.769531 172.101562 C 105.769531 172.097656 105.765625 172.09375 105.765625 172.089844 L 105.242188 171.023438 C 105.238281 171.019531 105.238281 171.015625 105.234375 171.011719 L 104.785156 169.914062 C 104.785156 169.910156 104.785156 169.90625 104.78125 169.902344 L 104.410156 168.777344 C 104.40625 168.773438 104.40625 168.769531 104.40625 168.765625 L 104.109375 167.617188 C 104.109375 167.613281 104.109375 167.605469 104.105469 167.601562 L 103.890625 166.4375 C 103.890625 166.433594 103.890625 166.429688 103.890625 166.421875 L 103.753906 165.246094 C 103.75 165.242188 103.75 165.238281 103.75 165.230469 L 103.695312 164.046875 C 103.695312 164.042969 103.695312 164.039062 103.695312 164.035156 L 103.722656 162.847656 C 103.722656 162.84375 103.722656 162.839844 103.722656 162.835938 L 103.828125 161.652344 C 103.828125 161.648438 103.828125 161.644531 103.828125 161.640625 L 104.015625 160.46875 C 104.035156 160.359375 104.136719 160.289062 104.242188 160.304688 C 104.351562 160.320312 104.425781 160.421875 104.410156 160.53125 Z M 104.410156 160.53125 " fill-opacity="1" fill-rule="nonzero"/><path fill="#a9a0f0" d="M 99.242188 129.25 C 99.300781 141.332031 99.359375 153.425781 98.859375 161.351562 C 98.355469 169.285156 97.285156 173.054688 96.21875 176.8125 C 96.1875 176.917969 96.078125 176.980469 95.972656 176.949219 C 95.867188 176.921875 95.808594 176.808594 95.835938 176.703125 C 96.898438 172.960938 97.960938 169.222656 98.460938 161.324219 C 98.964844 153.414062 98.90625 141.339844 98.84375 129.25 C 98.84375 129.140625 98.933594 129.054688 99.042969 129.050781 C 99.152344 129.050781 99.242188 129.140625 99.242188 129.25 Z M 99.242188 129.25 " fill-opacity="1" fill-rule="nonzero"/><path fill="#a9a0f0" d="M 88.945312 124.808594 L 88.945312 124.804688 L 89.292969 167.191406 C 89.292969 167.230469 89.285156 167.265625 89.265625 167.296875 L 89.238281 167.34375 C 87.503906 170.214844 85.753906 173.109375 83.542969 175.488281 C 81.316406 177.875 78.628906 179.734375 75.960938 181.582031 C 75.871094 181.644531 75.746094 181.621094 75.683594 181.53125 C 75.621094 181.441406 75.644531 181.316406 75.734375 181.253906 C 78.40625 179.40625 81.058594 177.566406 83.25 175.214844 C 85.429688 172.875 87.160156 170.019531 88.898438 167.136719 L 88.925781 167.09375 L 88.898438 167.195312 L 88.546875 124.808594 C 88.546875 124.699219 88.636719 124.609375 88.746094 124.609375 C 88.855469 124.609375 88.945312 124.699219 88.945312 124.808594 Z M 88.945312 124.808594 " fill-opacity="1" fill-rule="nonzero"/><path fill="#a9a0f0" d="M 66.675781 138.804688 L 66.675781 164.8125 C 66.675781 164.859375 66.660156 164.902344 66.628906 164.9375 C 63.320312 168.921875 59.859375 173.121094 58.445312 173.121094 C 58.386719 173.121094 58.335938 173.117188 58.28125 173.105469 C 56.921875 172.792969 57.933594 168.324219 58.890625 164.164062 C 58.96875 163.820312 59.050781 163.46875 59.128906 163.121094 C 59.15625 163.015625 59.261719 162.949219 59.367188 162.972656 C 59.476562 162.996094 59.542969 163.105469 59.515625 163.210938 C 59.433594 163.570312 59.359375 163.898438 59.277344 164.253906 C 58.226562 168.824219 57.519531 172.523438 58.371094 172.71875 C 58.390625 172.722656 58.414062 172.726562 58.445312 172.726562 C 59.613281 172.726562 62.894531 168.8125 66.324219 164.683594 L 66.277344 164.8125 L 66.277344 138.804688 C 66.277344 138.695312 66.367188 138.605469 66.476562 138.605469 C 66.585938 138.605469 66.675781 138.695312 66.675781 138.804688 Z M 66.675781 138.804688 " fill-opacity="1" fill-rule="nonzero"/><path fill="#a9a0f0" d="M 30.398438 170.390625 L 30.367188 170.285156 C 33.015625 174.433594 35.59375 178.433594 38.394531 179.019531 C 38.648438 179.074219 38.902344 179.097656 39.160156 179.097656 C 41.734375 179.097656 44.484375 176.59375 46.464844 174.488281 C 48.617188 172.199219 49.75 170.492188 50.894531 168.78125 C 50.953125 168.6875 51.078125 168.664062 51.167969 168.722656 C 51.257812 168.785156 51.285156 168.90625 51.222656 169 C 50.078125 170.71875 48.929688 172.445312 46.753906 174.761719 C 44.800781 176.839844 41.933594 179.496094 39.160156 179.496094 C 38.875 179.496094 38.59375 179.46875 38.3125 179.410156 C 35.304688 178.777344 32.628906 174.5625 30.03125 170.496094 C 30.011719 170.464844 30 170.429688 30 170.390625 C 30 170.28125 30.089844 170.191406 30.199219 170.191406 C 30.308594 170.191406 30.398438 170.28125 30.398438 170.390625 Z M 30.398438 170.390625 " fill-opacity="1" fill-rule="nonzero"/></svg>