<svg xmlns="http://www.w3.org/2000/svg" xmlns:xlink="http://www.w3.org/1999/xlink" width="400" zoomAndPan="magnify" viewBox="0 0 300 299.999988" height="400" preserveAspectRatio="xMidYMid meet" version="1.0"><defs><clipPath id="91fd2fb75c"><path d="M 92.191406 30 L 207.601562 30 L 207.601562 269.996094 L 92.191406 269.996094 Z M 92.191406 30 " clip-rule="nonzero"/></clipPath></defs><g clip-path="url(#91fd2fb75c)"><path fill="#a9a0f0" d="M 154.144531 71.371094 C 151.511719 71.457031 149.488281 68.632812 147 68.417969 C 144.921875 68.238281 142.191406 69.554688 139.613281 70.386719 C 135.199219 71.816406 130.589844 72.5 127.542969 70.386719 C 127.011719 70.019531 126.710938 68.621094 125.820312 69.15625 C 127.632812 81.054688 119.746094 86.148438 113.75 93.046875 C 111.664062 95.453125 109.398438 98.144531 107.101562 100.683594 C 104.777344 103.246094 102.09375 106.082031 100.695312 108.566406 C 95.5 117.792969 95.371094 132.429688 94.785156 145.757812 C 93.574219 173.28125 96.953125 210.839844 98.480469 239.109375 C 94.515625 240.414062 95.496094 242.5 97.496094 244.773438 C 98.433594 245.847656 98.792969 246.222656 98.972656 247.238281 C 97.761719 248.046875 96.671875 248.003906 96.261719 249.207031 C 94.207031 255.273438 106.054688 259.117188 107.839844 261.03125 C 121.113281 264.980469 139.570312 267.542969 158.824219 266.695312 C 172.84375 266.082031 185.316406 265.972656 195.773438 261.277344 C 198.78125 259.925781 203.628906 257.449219 203.40625 254.382812 C 203.300781 252.894531 202.050781 252.894531 201.683594 251.671875 C 203.523438 248.992188 206.691406 247.277344 205.132812 243.050781 C 204.332031 240.882812 201.667969 240.742188 201.191406 239.109375 C 200.625 237.175781 201.878906 234.480469 201.929688 232.707031 C 202.148438 225.277344 200.90625 217.84375 200.945312 210.539062 C 201.105469 180.316406 204.253906 152.234375 200.945312 125.808594 C 199.230469 112.140625 192.167969 103.597656 184.6875 95.757812 C 177.300781 88.015625 166.519531 82.3125 168.921875 67.679688 C 162.984375 60.675781 158.816406 71.226562 154.144531 71.371094 Z M 169.910156 42.554688 C 169.316406 42.515625 168.65625 43.132812 167.9375 43.046875 C 166.917969 42.925781 165.742188 42.070312 164.738281 42.0625 C 163.769531 42.054688 162.839844 42.722656 162.027344 42.800781 C 159.460938 43.054688 158.269531 41.648438 156.609375 41.078125 C 155.132812 44.132812 149.648438 44.480469 147.496094 41.816406 C 144.1875 43.839844 140.273438 44.042969 137.644531 41.324219 C 135.863281 43.875 130.796875 43.6875 129.023438 41.324219 C 127.21875 42.3125 125.617188 43.503906 125.082031 45.757812 C 118.902344 44.6875 122.609375 50.988281 125.574219 51.667969 C 125.476562 55.113281 125.933594 60.785156 125.820312 64.722656 C 127.101562 65.285156 127.039062 67.402344 128.28125 68.417969 C 132.972656 72.242188 140.6875 66.785156 145.769531 66.199219 C 149.871094 65.730469 151.203125 69.144531 153.898438 69.15625 C 157.851562 69.175781 159.765625 62.757812 164.492188 63 C 166.019531 63.078125 167.207031 64.238281 168.679688 64.476562 C 168.847656 58.925781 168.53125 55.257812 168.183594 50.4375 C 171.507812 49.804688 175.449219 42.914062 169.910156 42.554688 Z M 147.742188 33.6875 C 139.832031 33.949219 132.335938 35.476562 124.585938 36.644531 C 123.984375 37.996094 123.625 39.9375 124.585938 41.078125 C 127.121094 40.984375 127.75 38.984375 129.761719 38.367188 C 130.226562 39.542969 131.351562 40.0625 132.222656 40.832031 C 135.574219 41.390625 136.171875 39.199219 138.136719 38.367188 C 139.628906 39.324219 140.128906 40.871094 142.078125 41.078125 C 144.351562 41.320312 145.980469 39.003906 147.496094 39.105469 C 149.265625 39.226562 149.976562 41.519531 152.421875 41.324219 C 154.753906 41.136719 155.234375 38.773438 157.347656 38.121094 C 158.484375 40.472656 162.914062 41.011719 164.984375 39.105469 C 166.765625 41.820312 170.265625 39.6875 171.140625 38.367188 C 171.0625 37.050781 170.589844 36.128906 169.910156 35.414062 C 162.332031 34.527344 155.015625 33.449219 147.742188 33.6875 Z M 173.355469 41.078125 C 174.257812 42.527344 175.636719 44.132812 175.082031 47.234375 C 174.679688 49.476562 171.570312 50.453125 170.894531 52.652344 C 170.496094 53.953125 171.078125 56.378906 171.140625 57.828125 C 171.464844 65.496094 170.660156 74.148438 173.109375 79.253906 C 175.546875 84.335938 180.570312 87.699219 184.195312 91.324219 C 193.132812 100.261719 201.613281 110.140625 203.40625 126.054688 C 207.0625 158.488281 202.457031 194.011719 203.898438 226.300781 C 203.988281 228.257812 204.035156 230.257812 204.148438 232.214844 C 204.257812 234.1875 203.847656 236.601562 204.148438 237.878906 C 204.523438 239.5 206.707031 240.070312 207.347656 242.3125 C 208.484375 246.285156 207.386719 248.933594 205.132812 252.164062 C 205.601562 253.253906 205.714844 254.699219 205.625 256.351562 C 200.871094 265.453125 187.890625 268.335938 173.847656 269.40625 C 158.265625 270.59375 140.816406 269.894531 126.3125 268.175781 C 116.3125 266.988281 107.660156 265.316406 100.695312 260.292969 C 96.523438 257.28125 91.683594 254.179688 93.554688 248.46875 C 93.6875 248.0625 94.789062 246.652344 94.785156 246.5 C 94.773438 245.863281 93.300781 244.96875 93.0625 244.28125 C 91.886719 240.921875 93.566406 238.03125 95.769531 236.648438 C 94.164062 202.511719 91.128906 169.09375 92.570312 136.398438 C 92.75 132.285156 93.273438 127.816406 94.046875 123.835938 C 95.367188 117.015625 96.613281 110.542969 99.710938 105.363281 C 105.21875 96.15625 115.574219 89.289062 120.894531 80.734375 C 123.464844 76.597656 123.171875 71.5625 123.109375 65.214844 C 123.074219 61.222656 123.539062 56.6875 122.863281 54.132812 C 122.285156 51.9375 118.664062 50.335938 118.429688 47.972656 C 118.269531 46.324219 119.222656 44.722656 120.648438 43.539062 C 118.832031 40.175781 120.582031 34.292969 124.097656 33.195312 C 124.882812 32.949219 126.050781 33.296875 127.296875 33.195312 C 130.46875 32.941406 133.6875 31.652344 137.148438 30.976562 C 144.015625 29.648438 151.917969 29.785156 159.808594 30.734375 C 168.429688 31.769531 175.089844 32.476562 173.355469 41.078125 " fill-opacity="1" fill-rule="evenodd"/></g><path fill="#a9a0f0" d="M 115.230469 126.054688 C 113.277344 130.175781 112.195312 135.171875 107.101562 136.152344 C 105.847656 144.496094 107.578125 153.746094 108.085938 163.246094 C 108.921875 178.886719 108.824219 193.550781 108.824219 209.058594 C 108.824219 213.832031 108.09375 222.859375 109.316406 226.546875 C 110.070312 228.816406 114.570312 231.257812 113.257812 235.90625 C 121.957031 240.738281 134.917969 242.453125 148.234375 243.296875 C 161.652344 244.144531 175.996094 243.652344 186.410156 240.339844 C 186.980469 238.082031 186.5 236.5625 187.644531 234.675781 C 188.738281 232.871094 191.324219 232.675781 192.078125 230.980469 C 193.203125 228.453125 192.757812 223.550781 192.570312 219.898438 C 191.214844 193.492188 191.789062 163.867188 191.585938 135.660156 C 187.542969 134.820312 183.773438 133.96875 181.484375 131.472656 C 179.941406 129.789062 179.90625 127.34375 178.039062 125.808594 C 156.34375 126.425781 136.867188 125.675781 115.230469 126.054688 Z M 179.515625 123.589844 C 180.953125 125.613281 180.925781 128.03125 182.472656 129.75 C 184.851562 132.398438 188.789062 133.089844 193.0625 133.933594 C 193.527344 159.753906 192.636719 188.988281 193.800781 217.679688 C 193.957031 221.519531 194.90625 230.492188 193.0625 233.199219 C 192.257812 234.382812 190.144531 234.351562 189.121094 235.90625 C 187.949219 237.695312 188.589844 238.953125 188.136719 241.078125 C 183.75 245.097656 176.410156 245.367188 169.664062 245.761719 C 150.746094 246.855469 126.113281 245.785156 111.78125 237.878906 C 112.523438 232.699219 110.160156 230.628906 107.839844 228.519531 C 106.710938 205.355469 108.039062 181.71875 106.359375 161.277344 C 105.640625 152.472656 104.820312 143.65625 105.375 134.921875 C 107.664062 133.636719 109.839844 133.695312 111.289062 131.71875 C 112.945312 129.457031 112.058594 125.941406 114.242188 123.835938 C 136.550781 123.539062 159.890625 124.152344 179.515625 123.589844 " fill-opacity="1" fill-rule="evenodd"/><path fill="#a9a0f0" d="M 172.863281 140.09375 C 173.109375 140.09375 173.355469 140.09375 173.605469 140.09375 C 173.636719 141.210938 174.207031 141.789062 174.34375 142.804688 C 173.960938 143.207031 173.382812 142.71875 172.863281 142.558594 C 172.863281 141.734375 172.863281 140.914062 172.863281 140.09375 " fill-opacity="1" fill-rule="evenodd"/><path fill="#a9a0f0" d="M 169.171875 141.570312 C 170.730469 141.570312 171.523438 142.335938 171.632812 143.789062 C 171.054688 143.78125 170.90625 144.210938 170.15625 144.035156 C 170.1875 142.851562 168.75 143.140625 169.171875 141.570312 " fill-opacity="1" fill-rule="evenodd"/><path fill="#a9a0f0" d="M 117.691406 142.804688 C 117.609375 143.296875 117.742188 143.574219 118.183594 143.542969 C 117.523438 144.769531 117.191406 146.324219 115.230469 146.25 C 115.269531 145.964844 115.175781 145.8125 114.984375 145.757812 C 115.714844 144.601562 116.414062 143.414062 117.691406 142.804688 " fill-opacity="1" fill-rule="evenodd"/><path fill="#a9a0f0" d="M 117.9375 147.976562 C 117.65625 147.683594 117.660156 147.105469 117.691406 146.5 C 120.09375 144.535156 120.945312 147.945312 117.9375 147.976562 " fill-opacity="1" fill-rule="evenodd"/><path fill="#a9a0f0" d="M 162.273438 172.605469 C 161.871094 178.96875 162.371094 184.273438 162.519531 190.585938 C 163.5 191.003906 165.117188 190.777344 166.460938 190.832031 C 167.074219 188.574219 166.03125 184.65625 167.691406 183.445312 C 170.445312 185.453125 171.707031 188.949219 174.589844 190.832031 C 176.109375 189.972656 177.613281 189.097656 178.777344 187.878906 C 177.601562 184.785156 174.613281 183.503906 172.617188 181.226562 C 174.007812 178.671875 176.207031 176.933594 177.296875 174.085938 C 176.429688 173.554688 175.921875 172.667969 174.835938 172.359375 C 172.417969 173.800781 171.171875 176.417969 168.921875 178.023438 C 166.792969 177.363281 168.527344 172.839844 167.199219 171.375 C 165.523438 171.75 163.992188 172.273438 162.273438 172.605469 Z M 169.417969 169.402344 C 169.878906 170.664062 169.578125 172.691406 169.664062 174.332031 C 171.417969 173.933594 172.664062 169.824219 175.082031 169.898438 C 176.082031 169.925781 179.179688 172.792969 179.269531 174.085938 C 179.449219 176.722656 176.070312 178.769531 175.574219 180.734375 C 177.394531 183.359375 181.359375 185.578125 180.5 189.355469 C 178.160156 190.710938 176.539062 192.78125 173.605469 193.542969 C 171.910156 191.707031 170.875 189.210938 168.679688 187.878906 C 168.324219 189.660156 168.253906 191.722656 167.691406 193.296875 C 165.949219 192.886719 162.195312 193.609375 160.304688 192.3125 C 160.890625 185.929688 159.480469 179.539062 160.304688 171.621094 C 162.417969 170.6875 165.566406 168.476562 169.417969 169.402344 " fill-opacity="1" fill-rule="evenodd"/><path fill="#a9a0f0" d="M 147.496094 172.605469 C 147.652344 178.230469 148.085938 182.835938 148.234375 189.109375 C 150.921875 189.742188 155.167969 190.34375 156.855469 189.847656 C 157.207031 188.457031 157.125 186.152344 156.855469 184.675781 C 155.445312 184.199219 153.78125 183.972656 152.421875 183.445312 C 152.960938 179.957031 152.570312 175.417969 152.175781 172.605469 C 151.117188 172.207031 148.554688 172.207031 147.496094 172.605469 Z M 154.390625 181.964844 C 155.5625 182.519531 156.929688 182.878906 158.332031 183.199219 C 158.535156 185.585938 158.414062 189.421875 158.085938 192.0625 C 154.171875 192.582031 150.304688 192.027344 146.757812 191.078125 C 146.394531 186.378906 146.179688 178.746094 145.523438 171.621094 C 147.316406 170 151.691406 169.546875 153.40625 170.882812 C 155.894531 172.816406 153.597656 179.15625 154.390625 181.964844 " fill-opacity="1" fill-rule="evenodd"/><path fill="#a9a0f0" d="M 118.429688 173.097656 C 118.265625 173.097656 118.101562 173.097656 117.9375 173.097656 C 116.230469 177.714844 115.132812 182.941406 114.734375 188.863281 C 115.722656 188.863281 116.214844 189.355469 117.199219 189.355469 C 118.558594 187.839844 117.53125 183.9375 119.910156 183.445312 C 121.460938 184.351562 120.558594 187.71875 123.605469 187.136719 C 124.59375 186.648438 123.511719 184.089844 124.835938 183.9375 C 128.175781 184.207031 127.777344 188.21875 129.761719 189.847656 C 131.082031 189.691406 132.523438 189.652344 133.703125 189.355469 C 133.261719 184.121094 130.460938 179.136719 129.515625 173.589844 C 128.824219 173.460938 128.234375 173.230469 127.542969 173.097656 C 125.597656 174.765625 125.023438 177.804688 122.125 178.519531 C 120.597656 177.007812 120.3125 174.257812 118.429688 173.097656 Z M 120.15625 171.128906 C 120.96875 172.695312 121.808594 174.234375 122.617188 175.808594 C 124.285156 174.765625 125.417969 173.1875 126.066406 171.128906 C 127.851562 170.984375 128.925781 171.554688 130.5 171.621094 C 131.660156 175.644531 132.828125 180.960938 134.441406 185.414062 C 135.011719 186.988281 136.15625 188.304688 135.425781 190.832031 C 133.230469 191.203125 130.179688 192.714844 128.035156 191.570312 C 127.628906 189.679688 126.855469 188.15625 126.066406 186.644531 C 125.277344 187.007812 125.273438 188.148438 125.082031 189.109375 C 123.167969 188.554688 122.808594 189.613281 121.140625 189.847656 C 120.839844 188.585938 120.371094 187.496094 119.660156 186.644531 C 118.851562 187.96875 119.003906 190.257812 117.9375 191.324219 C 116.414062 190.878906 114.246094 191.074219 112.765625 190.585938 C 113.03125 184.734375 115.074219 176.730469 117.199219 171.128906 C 118.683594 171.167969 118.925781 170.921875 120.15625 171.128906 " fill-opacity="1" fill-rule="evenodd"/><path fill="#a9a0f0" d="M 138.875 189.601562 C 140.09375 189.777344 141.328125 189.941406 142.816406 189.847656 C 142.292969 184.214844 141.886719 178.460938 141.089844 173.097656 C 139.695312 173.097656 138.300781 173.097656 136.902344 173.097656 C 136.933594 179.34375 138.261719 183.566406 138.875 189.601562 Z M 142.324219 171.375 C 143.269531 177.070312 144.152344 184.96875 144.046875 191.570312 C 141.925781 192.238281 139.386719 192.121094 137.148438 191.570312 C 136.699219 185.15625 134.925781 177.652344 135.425781 171.375 C 137.050781 170.785156 140.144531 171.113281 142.324219 171.375 " fill-opacity="1" fill-rule="evenodd"/><path fill="#a9a0f0" d="M 126.3125 222.359375 C 125.519531 223.03125 124.53125 222.316406 124.097656 221.867188 C 123.671875 222.183594 123.601562 222.851562 123.109375 223.097656 C 122.078125 222.84375 121.359375 221.71875 121.878906 220.636719 C 123.125 220.292969 122.554688 221.765625 123.605469 221.621094 C 124.054688 221.007812 123.582031 220.675781 123.847656 219.652344 C 125.417969 219.007812 125.417969 221.558594 126.3125 222.359375 " fill-opacity="1" fill-rule="evenodd"/><path fill="#a9a0f0" d="M 171.140625 222.851562 C 171.707031 223.792969 171.136719 225.382812 170.402344 225.808594 C 168.226562 225.71875 169.585938 222.761719 171.140625 222.851562 " fill-opacity="1" fill-rule="evenodd"/><path fill="#a9a0f0" d="M 174.097656 225.5625 C 174.769531 225.382812 174.59375 226.050781 175.082031 226.054688 C 174.9375 227.0625 174.855469 228.128906 173.605469 228.027344 C 172.882812 227.125 173.792969 226.207031 174.097656 225.5625 " fill-opacity="1" fill-rule="evenodd"/></svg>