<svg xmlns="http://www.w3.org/2000/svg" xmlns:xlink="http://www.w3.org/1999/xlink" width="400" zoomAndPan="magnify" viewBox="0 0 300 299.999988" height="400" preserveAspectRatio="xMidYMid meet" version="1.0"><defs><clipPath id="13b737c7b3"><path d="M 57.300781 30 L 161 30 L 161 270 L 57.300781 270 Z M 57.300781 30 " clip-rule="nonzero"/></clipPath><clipPath id="7acdd81510"><path d="M 154 172 L 242.550781 172 L 242.550781 270 L 154 270 Z M 154 172 " clip-rule="nonzero"/></clipPath></defs><g clip-path="url(#13b737c7b3)"><path fill="#a9a0f0" d="M 160.191406 93.878906 C 160.191406 93.386719 160.144531 92.898438 160.046875 92.417969 C 159.953125 91.9375 159.808594 91.46875 159.621094 91.015625 C 159.433594 90.558594 159.203125 90.128906 158.929688 89.71875 C 158.65625 89.3125 158.347656 88.933594 158 88.585938 C 157.652344 88.238281 157.273438 87.929688 156.863281 87.65625 C 156.457031 87.382812 156.027344 87.152344 155.570312 86.964844 C 155.117188 86.777344 154.648438 86.632812 154.167969 86.539062 C 153.6875 86.441406 153.199219 86.394531 152.707031 86.394531 L 135.871094 86.394531 L 135.871094 58.652344 C 135.871094 58.15625 135.777344 57.679688 135.585938 57.21875 C 135.398438 56.761719 135.125 56.355469 134.773438 56.007812 C 134.425781 55.65625 134.019531 55.386719 133.5625 55.195312 C 133.101562 55.003906 132.625 54.910156 132.128906 54.910156 L 126.515625 54.910156 L 126.515625 43.949219 L 131.4375 43.949219 C 131.933594 43.949219 132.410156 43.851562 132.871094 43.664062 C 133.328125 43.472656 133.730469 43.203125 134.082031 42.851562 C 134.433594 42.5 134.703125 42.097656 134.894531 41.636719 C 135.085938 41.179688 135.179688 40.703125 135.179688 40.207031 C 135.179688 39.710938 135.085938 39.234375 134.894531 38.773438 C 134.703125 38.316406 134.433594 37.910156 134.082031 37.558594 C 133.730469 37.210938 133.328125 36.9375 132.871094 36.75 C 132.410156 36.558594 131.933594 36.464844 131.4375 36.464844 L 126.515625 36.464844 L 126.515625 34.015625 C 126.515625 33.519531 126.421875 33.039062 126.234375 32.582031 C 126.042969 32.125 125.773438 31.71875 125.421875 31.367188 C 125.070312 31.015625 124.667969 30.746094 124.207031 30.558594 C 123.75 30.367188 123.273438 30.273438 122.777344 30.273438 L 94.660156 30.273438 C 94.164062 30.273438 93.683594 30.367188 93.226562 30.558594 C 92.769531 30.746094 92.363281 31.015625 92.011719 31.367188 C 91.664062 31.71875 91.390625 32.125 91.203125 32.582031 C 91.011719 33.039062 90.917969 33.519531 90.917969 34.015625 L 90.917969 54.910156 L 87.175781 54.910156 C 86.679688 54.910156 86.203125 55.003906 85.742188 55.195312 C 85.285156 55.386719 84.882812 55.65625 84.53125 56.007812 C 84.179688 56.355469 83.910156 56.761719 83.71875 57.21875 C 83.527344 57.679688 83.433594 58.15625 83.433594 58.652344 L 83.433594 86.394531 L 64.726562 86.394531 C 64.234375 86.394531 63.75 86.441406 63.265625 86.539062 C 62.785156 86.632812 62.316406 86.777344 61.863281 86.964844 C 61.410156 87.152344 60.976562 87.382812 60.570312 87.65625 C 60.160156 87.929688 59.78125 88.238281 59.4375 88.585938 C 59.089844 88.933594 58.777344 89.3125 58.503906 89.71875 C 58.230469 90.128906 58 90.558594 57.8125 91.015625 C 57.625 91.46875 57.484375 91.9375 57.386719 92.417969 C 57.292969 92.898438 57.242188 93.386719 57.242188 93.878906 C 57.242188 93.878906 57.242188 94.027344 57.242188 94.101562 L 66.972656 262.355469 C 66.957031 262.820312 66.984375 263.28125 67.0625 263.738281 C 67.136719 264.195312 67.253906 264.640625 67.414062 265.074219 C 67.574219 265.511719 67.777344 265.925781 68.019531 266.320312 C 68.261719 266.714844 68.539062 267.085938 68.851562 267.425781 C 69.164062 267.765625 69.507812 268.074219 69.882812 268.347656 C 70.257812 268.625 70.652344 268.859375 71.070312 269.058594 C 71.492188 269.253906 71.925781 269.410156 72.375 269.523438 C 72.824219 269.636719 73.28125 269.703125 73.742188 269.726562 L 143.746094 269.726562 C 144.207031 269.699219 144.664062 269.628906 145.109375 269.511719 C 145.558594 269.398438 145.988281 269.238281 146.40625 269.039062 C 146.824219 268.839844 147.214844 268.601562 147.585938 268.328125 C 147.957031 268.050781 148.300781 267.742188 148.609375 267.402344 C 148.921875 267.058594 149.195312 266.691406 149.433594 266.292969 C 149.675781 265.898438 149.875 265.484375 150.03125 265.050781 C 150.191406 264.617188 150.304688 264.171875 150.378906 263.714844 C 150.453125 263.257812 150.480469 262.800781 150.464844 262.339844 L 160.191406 94.082031 C 160.191406 94.082031 160.191406 93.878906 160.191406 93.878906 Z M 120.90625 62.429688 L 128.386719 62.429688 L 128.386719 86.394531 L 120.90625 86.394531 Z M 98.324219 37.753906 L 119.164062 37.753906 L 119.164062 54.964844 L 98.324219 54.964844 Z M 113.421875 62.429688 L 113.421875 86.394531 L 105.9375 86.394531 L 105.9375 62.429688 Z M 90.972656 62.429688 L 98.382812 62.429688 L 98.382812 86.394531 L 90.898438 86.394531 Z M 142.980469 262 C 142.980469 262 142.980469 262.152344 142.980469 262.226562 L 74.511719 262.226562 C 74.511719 262.226562 74.511719 262.078125 74.511719 262 L 64.78125 93.878906 L 152.707031 93.878906 Z M 142.980469 262 " fill-opacity="1" fill-rule="nonzero"/></g><path fill="#a9a0f0" d="M 211.433594 215.554688 C 211.65625 216 211.785156 216.46875 211.820312 216.964844 C 211.855469 217.460938 211.796875 217.941406 211.640625 218.414062 C 211.480469 218.882812 211.242188 219.304688 210.917969 219.679688 C 210.589844 220.054688 210.207031 220.355469 209.765625 220.578125 C 209.320312 220.800781 208.851562 220.925781 208.355469 220.964844 C 207.859375 221 207.378906 220.9375 206.90625 220.78125 C 206.4375 220.625 206.015625 220.382812 205.640625 220.058594 C 205.265625 219.734375 204.964844 219.347656 204.742188 218.90625 C 204.519531 218.460938 204.390625 217.992188 204.355469 217.496094 C 204.320312 217.003906 204.382812 216.519531 204.539062 216.050781 C 204.695312 215.578125 204.9375 215.15625 205.261719 214.78125 C 205.585938 214.40625 205.972656 214.105469 206.414062 213.886719 C 206.859375 213.664062 207.328125 213.535156 207.824219 213.5 C 208.316406 213.464844 208.800781 213.523438 209.269531 213.679688 C 209.742188 213.835938 210.164062 214.078125 210.539062 214.402344 C 210.914062 214.726562 211.210938 215.113281 211.433594 215.554688 Z M 211.433594 215.554688 " fill-opacity="1" fill-rule="nonzero"/><g clip-path="url(#7acdd81510)"><path fill="#a9a0f0" d="M 208.53125 174.542969 C 208.3125 174.097656 208.015625 173.707031 207.640625 173.378906 C 207.265625 173.050781 206.839844 172.804688 206.371094 172.644531 C 205.898438 172.484375 205.410156 172.421875 204.914062 172.457031 C 204.417969 172.492188 203.945312 172.617188 203.5 172.839844 L 162.996094 193.363281 C 162.09375 193.828125 161.246094 194.375 160.449219 195.007812 C 159.652344 195.636719 158.925781 196.339844 158.265625 197.109375 C 157.605469 197.882812 157.027344 198.710938 156.53125 199.597656 C 156.035156 200.484375 155.625 201.40625 155.308594 202.371094 C 154.992188 203.335938 154.769531 204.324219 154.644531 205.332031 C 154.519531 206.339844 154.496094 207.347656 154.566406 208.363281 C 154.636719 209.375 154.808594 210.371094 155.074219 211.351562 C 155.339844 212.332031 155.699219 213.273438 156.148438 214.183594 L 179.367188 261.160156 C 180 262.449219 180.796875 263.625 181.757812 264.6875 C 182.722656 265.75 183.8125 266.660156 185.03125 267.417969 C 186.25 268.175781 187.550781 268.75 188.929688 269.144531 C 190.3125 269.535156 191.71875 269.730469 193.152344 269.726562 C 195.5625 269.726562 197.835938 269.175781 199.980469 268.082031 L 240.425781 247.503906 C 241.355469 247.035156 241.976562 246.304688 242.296875 245.3125 C 242.621094 244.320312 242.554688 243.351562 242.09375 242.414062 Z M 227.015625 245.875 L 216.554688 224.828125 C 215.714844 225.8125 214.730469 226.625 213.605469 227.265625 C 212.480469 227.910156 211.28125 228.34375 210.007812 228.570312 L 220.296875 249.390625 L 196.671875 261.289062 C 196.210938 261.523438 195.730469 261.707031 195.234375 261.84375 C 194.738281 261.980469 194.234375 262.066406 193.71875 262.101562 C 193.207031 262.140625 192.695312 262.125 192.183594 262.058594 C 191.671875 261.996094 191.171875 261.878906 190.683594 261.714844 C 190.195312 261.550781 189.730469 261.339844 189.28125 261.082031 C 188.835938 260.824219 188.417969 260.527344 188.03125 260.1875 C 187.644531 259.847656 187.296875 259.472656 186.984375 259.0625 C 186.671875 258.652344 186.402344 258.21875 186.175781 257.753906 L 162.996094 210.78125 C 162.765625 210.316406 162.582031 209.832031 162.449219 209.332031 C 162.3125 208.832031 162.226562 208.324219 162.1875 207.808594 C 162.152344 207.289062 162.164062 206.773438 162.230469 206.261719 C 162.292969 205.746094 162.40625 205.242188 162.570312 204.75 C 162.730469 204.257812 162.9375 203.785156 163.191406 203.335938 C 163.445312 202.882812 163.742188 202.460938 164.078125 202.066406 C 164.414062 201.671875 164.789062 201.3125 165.195312 200.992188 C 165.601562 200.671875 166.035156 200.390625 166.496094 200.15625 L 190.179688 188.144531 L 200.410156 208.964844 C 201.21875 208.210938 202.117188 207.585938 203.105469 207.09375 C 204.417969 206.429688 205.808594 206.042969 207.277344 205.933594 L 196.839844 184.796875 L 203.554688 181.390625 L 233.765625 242.527344 Z M 227.015625 245.875 " fill-opacity="1" fill-rule="nonzero"/></g><path fill="#a9a0f0" d="M 85.4375 183.449219 L 82.3125 116.328125 L 116.996094 159.355469 C 117.347656 159.820312 117.785156 160.1875 118.308594 160.449219 C 118.828125 160.714844 119.382812 160.847656 119.96875 160.851562 C 122.515625 160.851562 122.664062 160.851562 133.90625 144.011719 L 134.75 142.742188 L 129.324219 243.910156 L 88.167969 243.910156 L 86.296875 204.625 C 85.097656 205.085938 83.855469 205.335938 82.574219 205.371094 C 81.289062 205.40625 80.035156 205.226562 78.8125 204.832031 L 80.683594 244.660156 C 80.648438 245.0625 80.65625 245.464844 80.699219 245.867188 C 80.742188 246.269531 80.828125 246.664062 80.949219 247.046875 C 81.070312 247.433594 81.230469 247.804688 81.425781 248.15625 C 81.621094 248.511719 81.847656 248.84375 82.109375 249.152344 C 82.371094 249.460938 82.660156 249.742188 82.976562 249.996094 C 83.289062 250.246094 83.628906 250.46875 83.988281 250.652344 C 84.347656 250.839844 84.71875 250.988281 85.109375 251.101562 C 85.496094 251.210938 85.894531 251.285156 86.296875 251.320312 L 131.042969 251.320312 C 131.445312 251.289062 131.835938 251.21875 132.21875 251.109375 C 132.605469 251 132.976562 250.855469 133.332031 250.671875 C 133.6875 250.492188 134.023438 250.277344 134.339844 250.03125 C 134.652344 249.78125 134.941406 249.507812 135.199219 249.203125 C 135.460938 248.898438 135.691406 248.574219 135.886719 248.222656 C 136.082031 247.875 136.242188 247.511719 136.367188 247.132812 C 136.492188 246.75 136.578125 246.363281 136.628906 245.964844 C 136.675781 245.570312 136.6875 245.171875 136.65625 244.773438 L 142.847656 130.1875 C 142.847656 130.1875 142.847656 130.058594 142.847656 129.984375 C 142.847656 129.574219 142.78125 129.179688 142.652344 128.792969 C 142.523438 128.40625 142.335938 128.046875 142.09375 127.722656 C 141.851562 127.394531 141.566406 127.109375 141.234375 126.875 C 140.902344 126.636719 140.542969 126.457031 140.15625 126.335938 C 137.292969 125.472656 135.945312 127.4375 133.234375 131.347656 C 131.699219 133.574219 129.679688 136.585938 127.621094 139.730469 C 125.28125 143.339844 122.121094 148.128906 119.96875 151.179688 L 83.640625 106.113281 C 83.28125 105.667969 82.839844 105.324219 82.320312 105.082031 C 81.800781 104.839844 81.257812 104.71875 80.683594 104.726562 C 80.257812 104.75 79.839844 104.8125 79.429688 104.917969 C 79.015625 105.019531 78.617188 105.164062 78.234375 105.347656 C 77.851562 105.53125 77.488281 105.75 77.148438 106.003906 C 76.804688 106.257812 76.492188 106.542969 76.210938 106.859375 C 75.925781 107.175781 75.675781 107.519531 75.457031 107.882812 C 75.242188 108.25 75.0625 108.632812 74.921875 109.035156 C 74.78125 109.4375 74.679688 109.847656 74.621094 110.269531 C 74.5625 110.691406 74.542969 111.113281 74.566406 111.539062 L 77.933594 183.933594 C 79.121094 183.425781 80.355469 183.128906 81.644531 183.046875 C 82.929688 182.960938 84.195312 183.097656 85.4375 183.449219 Z M 85.4375 183.449219 " fill-opacity="1" fill-rule="nonzero"/><path fill="#a9a0f0" d="M 85.480469 192.863281 C 85.703125 193.308594 85.832031 193.777344 85.867188 194.273438 C 85.902344 194.765625 85.84375 195.25 85.6875 195.71875 C 85.527344 196.191406 85.289062 196.613281 84.964844 196.988281 C 84.636719 197.363281 84.253906 197.664062 83.808594 197.882812 C 83.367188 198.105469 82.898438 198.234375 82.402344 198.269531 C 81.90625 198.304688 81.425781 198.246094 80.953125 198.089844 C 80.484375 197.933594 80.058594 197.691406 79.683594 197.367188 C 79.308594 197.042969 79.011719 196.65625 78.789062 196.214844 C 78.566406 195.769531 78.4375 195.300781 78.402344 194.804688 C 78.367188 194.3125 78.429688 193.828125 78.585938 193.355469 C 78.742188 192.886719 78.984375 192.464844 79.308594 192.089844 C 79.632812 191.714844 80.015625 191.414062 80.460938 191.191406 C 80.90625 190.972656 81.375 190.84375 81.867188 190.808594 C 82.363281 190.773438 82.847656 190.832031 83.316406 190.988281 C 83.789062 191.144531 84.210938 191.386719 84.585938 191.710938 C 84.960938 192.035156 85.257812 192.421875 85.480469 192.863281 Z M 85.480469 192.863281 " fill-opacity="1" fill-rule="nonzero"/></svg>