<svg xmlns="http://www.w3.org/2000/svg" xmlns:xlink="http://www.w3.org/1999/xlink" width="400" zoomAndPan="magnify" viewBox="0 0 300 299.999988" height="400" preserveAspectRatio="xMidYMid meet" version="1.0"><defs><clipPath id="dd38e697e1"><path d="M 30 30.75 L 270 30.75 L 270 269.25 L 30 269.25 Z M 30 30.75 " clip-rule="nonzero"/></clipPath></defs><g clip-path="url(#dd38e697e1)"><path fill="#a9a0f0" d="M 104.386719 237.902344 C 103.382812 240.484375 102.382812 243.109375 101.328125 245.691406 C 98.796875 251.953125 95.785156 257.972656 92.394531 263.753906 C 91.773438 264.804688 91.152344 265.808594 90.578125 266.859375 C 90.339844 267.289062 90.101562 267.433594 89.621094 267.242188 C 88.714844 266.910156 88.332031 266.097656 88.761719 265.234375 C 89.765625 263.371094 90.863281 261.554688 91.820312 259.644531 C 93.445312 256.492188 94.925781 253.242188 96.503906 250.085938 C 96.40625 250.039062 96.359375 249.992188 96.265625 249.945312 C 95.785156 250.660156 95.308594 251.332031 94.878906 252.09375 C 92.632812 255.917969 90.433594 259.789062 88.238281 263.609375 C 87.855469 264.28125 87.519531 264.996094 87.136719 265.714844 C 86.753906 266.429688 86.039062 266.574219 85.082031 266.097656 C 84.367188 265.761719 84.222656 265.285156 84.558594 264.519531 C 84.75 264.136719 84.9375 263.753906 85.128906 263.324219 C 85.035156 263.324219 84.988281 263.324219 84.988281 263.324219 C 83.9375 264.613281 83.648438 264.664062 82.3125 263.660156 C 81.546875 263.085938 80.734375 262.558594 79.96875 261.9375 C 78.871094 261.03125 78.871094 260.984375 79.300781 259.742188 C 77.867188 260.363281 76.433594 259.644531 76.003906 258.117188 C 75.90625 257.828125 76.050781 257.398438 76.242188 257.113281 C 77.199219 255.582031 78.25 254.101562 79.253906 252.621094 C 79.300781 252.523438 79.394531 252.429688 79.445312 252.285156 C 79.394531 252.285156 79.347656 252.238281 79.347656 252.238281 C 77.867188 253.816406 76.386719 255.390625 74.902344 256.96875 C 74.523438 257.398438 73.949219 257.589844 73.28125 257.253906 C 71.988281 256.585938 70.984375 255.582031 70.507812 254.199219 C 70.316406 253.71875 70.554688 253.097656 70.605469 252.523438 C 68.308594 253.003906 68.261719 252.953125 68.5 250.421875 C 68.453125 250.421875 68.40625 250.375 68.40625 250.421875 C 67.355469 251.140625 67.210938 251.140625 66.253906 250.230469 C 65.777344 249.753906 65.300781 249.277344 64.820312 248.84375 C 64.296875 248.367188 64.246094 247.890625 64.535156 247.269531 C 64.679688 246.980469 64.871094 246.648438 65.011719 246.359375 C 65.15625 246.074219 65.394531 245.835938 65.492188 245.5 C 65.109375 245.835938 64.726562 246.21875 64.34375 246.550781 C 63.578125 247.269531 63.101562 247.269531 62.433594 246.457031 C 61.332031 245.117188 61.378906 244.734375 62.527344 243.445312 C 63.4375 242.394531 64.246094 241.296875 65.011719 240.101562 C 64.820312 240.292969 64.628906 240.433594 64.4375 240.625 C 63.4375 241.582031 62.433594 242.488281 61.429688 243.445312 C 61.285156 243.589844 61.140625 243.683594 60.949219 243.78125 C 60.328125 244.164062 59.851562 244.019531 59.515625 243.398438 C 59.277344 242.917969 58.992188 242.585938 58.464844 242.488281 C 57.941406 242.347656 57.703125 241.964844 57.75 241.4375 C 57.75 241.199219 57.75 240.914062 57.75 240.722656 C 57.320312 240.816406 56.9375 241.054688 56.554688 240.960938 C 56.171875 240.863281 55.886719 240.53125 55.550781 240.292969 C 53.925781 238.953125 53.925781 238.714844 55.3125 237.136719 C 55.980469 236.375 56.601562 235.65625 57.269531 234.890625 C 57.222656 234.84375 57.175781 234.796875 57.128906 234.699219 C 56.648438 235.035156 56.171875 235.371094 55.695312 235.703125 C 55.121094 236.132812 54.546875 236.5625 53.925781 236.996094 C 53.304688 237.425781 52.828125 237.425781 52.207031 236.996094 C 51.726562 236.613281 51.824219 236.132812 51.96875 235.5625 C 51.394531 236.183594 50.773438 236.085938 50.152344 235.753906 C 49.339844 235.371094 49.289062 235.273438 49.339844 234.175781 C 48.429688 234.652344 48 233.886719 47.523438 233.410156 C 46.949219 232.886719 46.949219 232.214844 47.378906 231.691406 C 46.996094 231.5 46.613281 231.261719 46.234375 231.070312 C 46.234375 231.019531 46.28125 230.972656 46.28125 230.925781 C 46.042969 231.019531 45.800781 231.164062 45.515625 231.261719 C 44.558594 231.640625 43.652344 231.308594 43.175781 230.398438 C 42.792969 229.585938 42.792969 228.679688 43.652344 228.011719 C 47.234375 225.238281 50.722656 222.417969 54.261719 219.648438 C 54.835938 219.171875 55.457031 218.691406 55.980469 218.117188 C 54.929688 218.789062 53.878906 219.503906 52.828125 220.171875 C 51.347656 221.128906 49.769531 222.039062 48.335938 223.039062 C 46.949219 223.996094 45.660156 225.097656 44.273438 226.097656 C 44.082031 226.242188 43.84375 226.433594 43.652344 226.53125 C 42.746094 227.054688 42.171875 227.007812 41.359375 226.339844 C 41.070312 226.097656 40.785156 225.8125 40.546875 225.527344 C 39.445312 224.332031 39.445312 224.140625 40.164062 222.800781 C 40.117188 222.800781 40.066406 222.753906 40.066406 222.800781 C 38.492188 223.566406 38.347656 223.566406 37.105469 222.324219 C 36.675781 221.894531 36.246094 221.511719 35.910156 221.082031 C 35.289062 220.269531 35.335938 219.742188 36.054688 218.980469 C 36.246094 218.789062 36.4375 218.644531 36.628906 218.5 C 36.578125 218.453125 36.53125 218.40625 36.53125 218.308594 C 36.101562 218.5 35.671875 218.691406 35.242188 218.929688 C 34.621094 219.265625 34.332031 219.21875 34 218.644531 C 33.664062 218.070312 33.332031 217.546875 33.140625 216.925781 C 32.851562 216.160156 33.042969 215.921875 33.710938 215.539062 C 35.386719 214.628906 37.105469 213.769531 38.730469 212.765625 C 41.644531 210.949219 44.464844 209.085938 47.285156 207.175781 C 45.324219 207.894531 43.316406 208.65625 41.359375 209.328125 C 38.347656 210.328125 35.335938 211.285156 32.277344 212.242188 C 31.515625 212.480469 30.941406 212.289062 30.558594 211.621094 C 30.128906 210.855469 30.128906 209.757812 30.75 209.328125 C 31.464844 208.847656 32.328125 208.417969 33.140625 208.132812 C 38.203125 206.460938 43.316406 204.835938 48.191406 202.683594 C 54.644531 199.816406 60.949219 196.710938 67.210938 193.507812 C 68.261719 192.9375 69.410156 192.503906 70.460938 191.980469 C 78.632812 188.109375 86.804688 184.238281 94.925781 180.367188 C 95.835938 179.9375 96.839844 179.554688 97.792969 179.171875 C 97.839844 177.40625 98.222656 176.976562 99.847656 177.023438 C 100.085938 176.113281 100.757812 175.78125 101.617188 175.589844 C 101.761719 175.542969 101.949219 175.445312 102.046875 175.300781 C 102.859375 174.203125 104.148438 174.011719 105.199219 174.921875 C 105.535156 175.207031 105.726562 175.207031 106.109375 175.0625 C 109.597656 173.390625 113.085938 171.71875 116.574219 170.09375 C 116.859375 169.949219 116.957031 169.808594 116.957031 169.472656 C 116.859375 168.277344 116.957031 167.082031 118.199219 166.414062 C 118.246094 166.367188 118.292969 166.269531 118.339844 166.222656 C 119.105469 164.886719 119.34375 164.742188 120.875 164.886719 C 120.96875 164.023438 121.351562 163.261719 122.070312 162.734375 C 122.355469 162.496094 122.738281 162.257812 123.074219 162.210938 C 123.597656 162.160156 123.789062 161.921875 124.027344 161.539062 C 124.507812 160.777344 125.03125 159.867188 125.988281 160.011719 C 126.992188 160.15625 127.132812 159.582031 127.46875 158.960938 C 127.898438 158.195312 128.375 157.429688 128.949219 156.808594 C 130.144531 155.519531 131.625 155.328125 133.15625 156.1875 C 133.679688 156.476562 134.160156 156.90625 134.828125 157.335938 C 136.261719 155.855469 137.695312 154.324219 139.222656 152.84375 C 176.496094 116.621094 213.003906 79.683594 249.753906 42.886719 C 252.714844 39.925781 255.726562 36.960938 258.738281 34 C 259.453125 33.28125 260.265625 32.660156 260.984375 31.992188 C 262.175781 30.84375 263.660156 30.75 265.140625 31.085938 C 268.246094 31.707031 269.871094 34.523438 268.773438 37.488281 C 268.53125 38.203125 268.007812 38.824219 267.480469 39.351562 C 244.59375 61.667969 221.65625 83.9375 198.8125 106.25 C 185.957031 118.820312 173.152344 131.433594 160.296875 144.003906 C 153.847656 150.3125 147.347656 156.523438 140.898438 162.78125 C 140.847656 162.832031 140.800781 162.878906 140.753906 162.972656 C 141.46875 163.882812 141.660156 164.933594 141.660156 166.03125 C 141.660156 166.890625 141.328125 167.609375 140.609375 168.039062 C 139.175781 168.898438 137.742188 169.710938 136.308594 170.476562 C 135.734375 170.761719 135.542969 171.144531 135.59375 171.765625 C 135.6875 173.007812 135.304688 173.535156 134.109375 174.058594 C 133.921875 174.15625 133.777344 174.300781 133.679688 174.492188 C 133.109375 175.492188 132.4375 176.304688 131.195312 176.546875 C 130.8125 176.640625 130.289062 177.167969 130.191406 177.546875 C 129.761719 179.171875 128.808594 179.84375 127.132812 179.507812 C 126.941406 179.460938 126.753906 179.414062 126.609375 179.414062 C 124.171875 183.09375 123.214844 187.390625 121.207031 191.167969 C 121.734375 191.597656 122.308594 191.933594 122.640625 192.410156 C 123.3125 193.367188 123.214844 194.273438 122.402344 195.085938 C 122.117188 195.371094 122.070312 195.660156 122.070312 196.042969 C 122.117188 196.902344 121.589844 197.570312 120.96875 198.144531 C 120.828125 198.238281 120.683594 198.429688 120.683594 198.574219 C 120.683594 199.914062 119.632812 200.628906 118.339844 200.199219 C 117.960938 200.054688 117.625 199.914062 117.339844 199.816406 C 115.523438 203.066406 114.472656 206.601562 113.5625 210.089844 C 111.9375 216.253906 110.601562 222.417969 109.550781 228.726562 C 108.976562 232.167969 108.066406 235.609375 107.207031 239 C 106.441406 242.109375 105.820312 245.261719 105.726562 248.511719 C 105.628906 251.953125 104.722656 255.25 103.335938 258.402344 C 102.09375 261.269531 100.566406 263.992188 99.085938 266.71875 C 98.652344 267.53125 97.890625 268.246094 97.269531 268.964844 C 97.171875 269.105469 96.839844 269.25 96.742188 269.203125 C 96.503906 269.105469 96.21875 268.867188 96.21875 268.628906 C 96.167969 268.292969 96.21875 267.910156 96.359375 267.578125 C 97.554688 264.996094 98.796875 262.417969 99.945312 259.789062 C 100.804688 257.78125 101.710938 255.726562 102.332031 253.625 C 102.761719 252.09375 102.90625 250.421875 102.953125 248.796875 C 103.050781 245.597656 103.527344 242.441406 104.339844 239.335938 C 104.4375 238.90625 104.53125 238.523438 104.628906 238.09375 C 104.4375 237.902344 104.386719 237.902344 104.386719 237.902344 Z M 111.125 191.503906 C 111.03125 190.929688 111.363281 191.023438 111.699219 191.121094 C 113.324219 191.691406 114.902344 192.265625 116.527344 192.792969 C 117.910156 193.222656 119.296875 193.558594 120.683594 193.9375 C 120.828125 193.988281 121.066406 193.988281 121.113281 193.890625 C 121.207031 193.796875 121.257812 193.507812 121.207031 193.460938 C 120.777344 193.078125 120.347656 192.554688 119.871094 192.457031 C 116.8125 191.980469 113.851562 191.167969 110.984375 189.925781 C 110.839844 189.878906 110.742188 189.828125 110.410156 189.78125 C 110.648438 190.449219 110.839844 191.023438 111.03125 191.550781 C 111.84375 192.601562 112.65625 193.652344 113.515625 194.65625 C 114.851562 196.234375 116.335938 197.761719 118.246094 198.671875 C 118.484375 198.8125 118.820312 198.765625 119.105469 198.8125 C 119.105469 198.765625 119.105469 198.671875 119.152344 198.621094 C 119.105469 198.574219 119.011719 198.527344 118.964844 198.480469 C 117.339844 197.140625 115.714844 195.851562 114.089844 194.511719 C 113.851562 194.320312 113.660156 194.035156 113.46875 193.796875 C 113.417969 193.699219 113.46875 193.558594 113.46875 193.414062 C 113.5625 193.414062 113.707031 193.367188 113.800781 193.460938 C 114.089844 193.652344 114.375 193.890625 114.664062 194.035156 C 116.191406 195.039062 117.71875 196.042969 119.25 196.996094 C 119.441406 197.09375 119.824219 197.1875 119.917969 197.046875 C 120.207031 196.757812 120.398438 196.375 120.492188 196.042969 C 120.539062 195.945312 120.0625 195.707031 119.824219 195.5625 C 119.488281 195.371094 119.105469 195.277344 118.773438 195.132812 C 116.097656 194.082031 113.46875 193.078125 111.125 191.503906 Z M 112.320312 195.660156 C 112.128906 195.898438 112.035156 195.945312 112.035156 196.042969 C 110.410156 199.292969 108.738281 202.492188 107.113281 205.742188 C 105.152344 209.707031 103.289062 213.769531 101.378906 217.738281 C 99.273438 222.039062 97.171875 226.339844 95.070312 230.640625 C 92.296875 236.230469 88.859375 241.390625 85.128906 246.359375 C 84.558594 247.171875 83.9375 247.9375 83.316406 248.652344 C 83.21875 248.796875 82.933594 248.796875 82.742188 248.894531 C 82.789062 248.703125 82.742188 248.464844 82.835938 248.273438 C 82.882812 248.128906 83.027344 247.984375 83.125 247.84375 C 84.175781 246.359375 85.320312 244.925781 86.324219 243.398438 C 90.292969 237.472656 93.539062 231.117188 96.503906 224.617188 C 98.414062 220.460938 100.46875 216.304688 102.476562 212.195312 C 104.4375 208.273438 106.441406 204.40625 108.402344 200.484375 C 109.308594 198.71875 110.171875 196.902344 111.078125 195.132812 C 111.460938 194.417969 111.460938 194.371094 110.648438 193.890625 C 110.363281 194.273438 110.074219 194.609375 109.835938 195.039062 C 107.589844 198.957031 105.25 202.828125 103.097656 206.746094 C 101.140625 210.234375 99.226562 213.722656 96.886719 216.972656 C 94.785156 219.839844 92.96875 222.851562 91.4375 226.050781 C 90.050781 228.964844 88.570312 231.832031 86.898438 234.558594 C 83.839844 239.574219 80.78125 244.640625 76.960938 249.132812 C 76.816406 249.277344 76.671875 249.464844 76.578125 249.65625 C 76.527344 249.609375 76.433594 249.5625 76.386719 249.515625 C 76.671875 249.035156 76.910156 248.511719 77.246094 248.03125 C 79.492188 244.925781 81.449219 241.628906 83.316406 238.285156 C 85.226562 234.84375 87.136719 231.453125 89.050781 228.011719 C 90.050781 226.195312 91.007812 224.332031 92.105469 222.5625 C 94.210938 219.121094 96.597656 215.921875 98.511719 212.382812 C 101.378906 207.082031 104.339844 201.871094 107.253906 196.617188 C 107.828125 195.5625 108.449219 194.511719 109.023438 193.414062 C 108.6875 193.222656 108.355469 193.078125 107.925781 192.839844 C 107.253906 193.890625 106.539062 194.894531 105.871094 195.945312 C 104.339844 198.429688 102.90625 200.964844 101.378906 203.449219 C 98.84375 207.511719 96.21875 211.476562 93.636719 215.492188 C 89.957031 221.226562 87.042969 227.339844 83.839844 233.316406 C 81.355469 237.902344 79.15625 242.632812 76.050781 246.886719 C 75.238281 247.984375 74.378906 249.085938 73.519531 250.183594 C 73.421875 250.328125 73.089844 250.328125 72.847656 250.375 C 72.847656 250.136719 72.707031 249.847656 72.800781 249.65625 C 73.039062 249.132812 73.421875 248.652344 73.710938 248.175781 C 75.144531 245.929688 76.625 243.683594 77.960938 241.34375 C 80.066406 237.757812 82.214844 234.175781 84.222656 230.542969 C 85.65625 227.914062 86.851562 225.144531 88.332031 222.515625 C 90.292969 219.027344 92.347656 215.632812 94.496094 212.242188 C 96.027344 209.804688 97.746094 207.511719 99.324219 205.121094 C 102.046875 201.058594 104.246094 196.664062 107.207031 192.792969 C 107.304688 192.695312 107.304688 192.554688 107.351562 192.410156 C 106.683594 192.746094 106.109375 193.125 105.628906 193.605469 C 103.910156 195.277344 102.191406 196.996094 100.515625 198.71875 C 98.128906 201.15625 95.785156 203.640625 93.445312 206.125 C 91.007812 208.707031 88.523438 211.285156 86.085938 213.867188 C 85.941406 214.007812 85.703125 214.152344 85.558594 214.25 C 85.511719 214.199219 85.511719 214.152344 85.464844 214.105469 C 91.4375 205.742188 98.558594 198.429688 106.203125 191.742188 C 105.820312 191.3125 105.488281 190.929688 105.199219 190.59375 C 104.007812 191.742188 102.859375 192.792969 101.761719 193.890625 C 100.375 195.277344 98.988281 196.710938 97.601562 198.097656 C 97.460938 198.238281 97.171875 198.238281 96.933594 198.289062 C 96.980469 198.050781 96.933594 197.761719 97.078125 197.617188 C 97.460938 197.09375 97.9375 196.664062 98.367188 196.183594 C 98.988281 195.46875 99.65625 194.75 100.277344 194.035156 C 97.171875 196.519531 94.160156 199.050781 91.105469 201.539062 C 88.09375 204.023438 85.035156 206.507812 82.023438 209.039062 C 81.976562 208.800781 82.023438 208.65625 82.167969 208.5625 C 84.175781 206.648438 86.132812 204.738281 88.140625 202.921875 C 89.429688 201.777344 90.769531 200.726562 92.105469 199.625 C 94.402344 197.667969 96.695312 195.707031 98.941406 193.652344 C 100.519531 192.21875 101.949219 190.59375 103.480469 189.015625 C 103.335938 188.875 103.144531 188.636719 103.003906 188.445312 C 102.046875 189.257812 101.140625 190.117188 100.183594 190.882812 C 96.121094 194.226562 92.058594 197.523438 87.949219 200.820312 C 86.707031 201.824219 85.371094 202.78125 84.03125 203.734375 C 83.839844 203.878906 83.648438 203.878906 83.410156 203.972656 C 83.363281 203.878906 83.316406 203.832031 83.265625 203.734375 C 86.851562 200.199219 90.722656 197.046875 94.449219 193.75 C 91.964844 195.421875 89.527344 197.1875 87.089844 198.910156 C 86.898438 199.050781 86.660156 199.148438 86.46875 199.242188 C 86.421875 199.148438 86.371094 199.050781 86.324219 199.003906 C 88.570312 196.664062 91.246094 194.800781 93.875 192.792969 C 96.503906 190.785156 99.132812 188.824219 101.761719 186.820312 C 101.519531 186.484375 101.328125 186.199219 101.089844 185.910156 C 90.148438 193.222656 79.015625 200.105469 67.449219 206.269531 C 67.496094 206.078125 67.59375 205.933594 67.738281 205.839844 C 68.214844 205.503906 68.691406 205.121094 69.21875 204.785156 C 73.613281 202.0625 78.011719 199.339844 82.40625 196.617188 C 87.328125 193.558594 92.488281 190.832031 97.171875 187.34375 C 97.601562 187.011719 98.03125 186.628906 98.460938 186.292969 C 98.894531 185.957031 99.324219 185.578125 99.753906 185.242188 C 92.679688 189.78125 85.226562 193.558594 77.820312 197.425781 C 81.070312 195.039062 84.605469 193.125 87.996094 190.976562 C 91.4375 188.824219 94.878906 186.675781 98.273438 184.574219 C 98.128906 184.476562 98.082031 184.476562 98.03125 184.476562 C 92.25 187.488281 86.46875 190.59375 80.636719 193.507812 C 77.007812 195.324219 73.230469 196.949219 70.03125 199.480469 C 69.027344 200.292969 67.925781 201.058594 66.875 201.824219 C 67.257812 201.777344 67.59375 201.585938 67.925781 201.347656 C 70.078125 200.105469 72.226562 198.8125 74.378906 197.570312 C 75 197.1875 75.667969 196.902344 76.335938 196.617188 C 76.480469 196.566406 76.671875 196.617188 76.863281 196.617188 C 76.769531 196.804688 76.71875 196.949219 76.625 197.09375 C 76.578125 197.1875 76.433594 197.238281 76.289062 197.285156 C 75.238281 197.90625 74.1875 198.527344 73.136719 199.148438 C 70.125 200.964844 67.113281 202.78125 64.105469 204.59375 C 63.675781 204.835938 63.195312 205.121094 62.71875 205.167969 C 62.480469 205.214844 62.097656 204.929688 61.90625 204.691406 C 61.859375 204.59375 62.050781 204.164062 62.242188 204.023438 C 64.726562 202.300781 67.304688 200.675781 69.742188 198.8125 C 72.707031 196.566406 75.8125 194.609375 79.300781 193.125 C 80.78125 192.503906 82.261719 191.835938 83.648438 191.070312 C 87.28125 189.207031 90.914062 187.25 94.496094 185.335938 C 96.121094 184.476562 97.792969 183.570312 99.464844 182.660156 C 99.371094 182.421875 99.273438 182.230469 99.132812 181.992188 C 97.171875 183.09375 95.308594 184.191406 93.351562 185.242188 C 91.4375 186.292969 89.527344 187.25 87.566406 188.253906 C 85.65625 189.207031 83.839844 190.402344 81.832031 191.167969 C 81.976562 190.929688 82.167969 190.738281 82.359375 190.59375 C 84.316406 189.351562 86.324219 188.109375 88.332031 186.867188 C 91.628906 184.90625 94.925781 182.996094 98.222656 181.035156 C 98.511719 180.847656 98.75 180.703125 98.367188 180.367188 C 98.175781 180.464844 97.9375 180.558594 97.746094 180.65625 C 96.40625 181.324219 95.070312 181.992188 93.683594 182.660156 C 86.851562 186.054688 79.585938 188.585938 72.898438 192.265625 C 70.601562 193.558594 68.167969 194.558594 65.824219 195.851562 C 59.757812 199.195312 53.496094 202.109375 47.09375 204.691406 C 42.792969 206.410156 38.394531 207.84375 34 209.421875 C 33.378906 209.660156 32.710938 209.804688 32.089844 210.042969 C 31.65625 210.1875 31.515625 210.472656 31.847656 210.902344 C 33.523438 210.328125 35.195312 209.757812 36.914062 209.183594 C 37.824219 208.847656 38.730469 208.464844 39.6875 208.179688 C 43.746094 207.175781 47.570312 205.648438 51.15625 203.542969 C 52.539062 202.730469 54.023438 202.0625 55.457031 201.347656 C 55.886719 201.15625 56.457031 200.914062 56.792969 201.058594 C 57.320312 201.347656 57.605469 201.105469 57.988281 200.914062 C 58.609375 200.582031 59.230469 200.199219 59.804688 199.863281 C 64.488281 197.140625 69.171875 194.511719 74.1875 192.457031 C 74.28125 192.410156 74.378906 192.457031 74.472656 192.410156 C 74.378906 192.648438 74.234375 192.792969 74.042969 192.886719 C 70.984375 194.65625 67.976562 196.519531 64.871094 198.238281 C 59.277344 201.394531 53.6875 204.546875 48.335938 208.082031 C 44.179688 210.855469 39.925781 213.386719 35.671875 216.0625 C 35.242188 216.351562 34.765625 216.542969 34.332031 216.78125 C 34.574219 217.449219 34.90625 217.738281 35.527344 217.304688 C 36.578125 216.636719 37.632812 215.96875 38.683594 215.347656 C 43.222656 212.574219 47.714844 209.757812 52.253906 207.03125 C 56.171875 204.691406 60.089844 202.445312 64.058594 200.152344 C 64.246094 200.054688 64.4375 200.007812 64.628906 199.960938 C 64.679688 200.007812 64.726562 200.105469 64.726562 200.152344 C 64.34375 200.4375 64.007812 200.773438 63.625 201.011719 C 56.363281 205.550781 49.101562 210.089844 41.789062 214.628906 C 40.738281 215.300781 39.734375 215.921875 38.683594 216.589844 C 38.253906 216.828125 38.0625 217.117188 38.300781 217.59375 C 40.402344 216.253906 42.457031 214.917969 44.558594 213.53125 C 48.8125 210.761719 53.160156 208.082031 57.703125 205.886719 C 57.941406 205.742188 58.226562 205.695312 58.511719 205.597656 C 58.5625 205.648438 58.5625 205.742188 58.609375 205.789062 C 51.105469 210.140625 43.988281 215.109375 36.820312 220.03125 C 37.679688 221.082031 37.679688 221.082031 38.730469 220.363281 C 40.402344 219.265625 42.027344 218.117188 43.652344 216.972656 C 46.613281 214.917969 49.578125 212.863281 52.589844 210.808594 C 52.78125 210.664062 53.066406 210.570312 53.304688 210.472656 C 53.351562 210.519531 53.351562 210.570312 53.402344 210.617188 C 48.859375 214.105469 44.273438 217.546875 39.734375 221.035156 C 40.210938 220.9375 40.640625 220.746094 41.070312 220.652344 C 41.40625 220.554688 41.882812 220.554688 42.171875 220.699219 C 42.363281 220.796875 42.410156 221.273438 42.503906 221.558594 C 42.695312 221.417969 42.886719 221.226562 43.125 221.035156 C 45.898438 218.789062 48.71875 216.542969 51.441406 214.25 C 54.546875 211.667969 57.941406 209.328125 61.523438 207.460938 C 64.246094 206.078125 66.875 204.59375 69.457031 202.972656 C 71.128906 201.917969 72.800781 200.867188 74.425781 199.769531 C 75.238281 199.242188 76.003906 198.574219 76.816406 198 C 76.960938 197.90625 77.246094 198 77.484375 198.046875 C 77.390625 198.238281 77.339844 198.527344 77.199219 198.621094 C 75.476562 199.863281 73.757812 201.15625 71.941406 202.300781 C 70.078125 203.542969 68.167969 204.785156 66.160156 205.742188 C 62.382812 207.605469 58.800781 209.757812 55.457031 212.335938 C 51.394531 215.539062 47.234375 218.597656 43.125 221.75 C 42.3125 222.371094 41.550781 223.039062 40.691406 223.710938 C 41.070312 224.09375 41.40625 224.378906 41.742188 224.664062 C 42.457031 224.09375 43.078125 223.519531 43.699219 222.992188 C 46.804688 220.460938 49.816406 217.785156 53.066406 215.441406 C 56.410156 213.003906 59.945312 210.902344 63.386719 208.65625 C 63.53125 208.5625 63.722656 208.417969 63.914062 208.417969 C 64.152344 208.417969 64.390625 208.515625 64.679688 208.5625 C 64.582031 208.800781 64.535156 209.136719 64.390625 209.230469 C 63.769531 209.660156 63.148438 210.042969 62.480469 210.425781 C 59.277344 212.433594 55.980469 214.296875 52.875 216.445312 C 50.390625 218.167969 48.144531 220.222656 45.800781 222.085938 C 44.609375 223.039062 43.414062 223.996094 42.21875 224.953125 C 42.21875 225 42.21875 225.09375 42.21875 225.144531 C 42.457031 225.144531 42.695312 225.191406 42.933594 225.144531 C 43.175781 225.046875 43.414062 224.855469 43.652344 224.714844 C 46.996094 222.417969 50.292969 220.171875 53.640625 217.878906 C 55.742188 216.445312 58.082031 215.394531 59.945312 213.53125 C 60.328125 213.148438 60.808594 212.910156 61.285156 212.671875 C 66.160156 209.898438 70.984375 207.175781 75.859375 204.40625 C 78.488281 202.921875 81.070312 201.441406 83.695312 200.007812 C 84.03125 199.816406 84.367188 199.722656 84.699219 199.578125 C 84.699219 199.625 84.75 199.671875 84.75 199.722656 C 84.699219 199.769531 84.652344 199.863281 84.605469 199.914062 C 81.832031 201.679688 79.0625 203.542969 76.289062 205.265625 C 69.695312 209.277344 63.148438 213.386719 57.367188 218.550781 C 56.984375 218.882812 56.648438 219.21875 56.269531 219.503906 C 52.539062 222.609375 48.765625 225.765625 45.039062 228.871094 C 44.800781 229.0625 44.609375 229.253906 44.417969 229.445312 C 44.941406 230.113281 45.085938 230.113281 45.5625 229.585938 C 45.753906 229.347656 45.992188 229.207031 46.234375 229.015625 C 47.570312 227.960938 49.003906 226.960938 50.246094 225.765625 C 53.351562 222.898438 56.648438 220.171875 60.089844 217.738281 C 63.195312 215.539062 66.304688 213.339844 69.457031 211.140625 C 69.695312 210.949219 70.03125 210.855469 70.269531 210.664062 C 70.316406 210.761719 70.363281 210.808594 70.414062 210.902344 C 67.785156 212.910156 65.15625 214.871094 62.574219 216.875 C 59.945312 218.929688 57.269531 220.9375 54.738281 223.136719 C 52.207031 225.285156 49.816406 227.53125 47.378906 229.777344 C 47.425781 229.828125 47.476562 229.875 47.523438 229.96875 C 48.621094 229.300781 49.769531 228.679688 50.773438 227.960938 C 51.777344 227.246094 52.589844 226.242188 53.589844 225.476562 C 56.21875 223.421875 58.894531 221.417969 61.570312 219.410156 C 66.542969 215.632812 71.464844 211.859375 76.433594 208.132812 C 77.769531 207.082031 79.15625 206.027344 80.636719 204.882812 C 80.589844 205.214844 80.589844 205.40625 80.542969 205.550781 C 80.351562 205.789062 80.113281 206.027344 79.875 206.269531 C 75.476562 209.851562 71.082031 213.484375 66.636719 217.019531 C 62.957031 219.933594 59.183594 222.660156 55.550781 225.621094 C 53.402344 227.339844 51.488281 229.347656 49.480469 231.261719 C 49.101562 231.59375 48.8125 231.976562 48.429688 232.359375 C 49.101562 233.125 49.148438 233.125 49.863281 232.644531 C 50.007812 232.550781 50.152344 232.40625 50.292969 232.261719 C 51.535156 231.070312 52.78125 229.875 54.070312 228.726562 C 57.703125 225.527344 61.429688 222.417969 65.394531 219.601562 C 65.871094 219.265625 66.351562 218.929688 66.828125 218.597656 C 66.875 218.644531 66.925781 218.738281 66.972656 218.789062 C 66.636719 219.074219 66.304688 219.410156 65.96875 219.695312 C 64.199219 221.226562 62.335938 222.660156 60.617188 224.234375 C 57.511719 227.101562 54.5 230.113281 51.488281 233.074219 C 51.15625 233.410156 50.964844 233.839844 50.722656 234.269531 C 50.675781 234.414062 50.820312 234.652344 50.867188 234.84375 C 51.058594 234.796875 51.296875 234.75 51.394531 234.652344 C 51.632812 234.414062 51.777344 234.078125 52.015625 233.839844 C 54.929688 231.164062 57.84375 228.488281 60.808594 225.8125 C 61.046875 225.574219 61.378906 225.429688 61.714844 225.238281 C 61.761719 225.285156 61.8125 225.335938 61.859375 225.429688 C 61.714844 225.574219 61.570312 225.765625 61.429688 225.90625 C 60.328125 227.007812 59.230469 228.105469 58.179688 229.207031 C 56.839844 230.640625 55.503906 232.121094 54.164062 233.554688 C 54.023438 233.695312 53.925781 233.886719 53.878906 234.03125 C 53.832031 234.507812 53.878906 234.988281 53.878906 235.464844 C 55.214844 234.460938 56.171875 233.125 57.320312 231.882812 C 58.464844 230.640625 59.707031 229.445312 60.902344 228.296875 C 62.097656 227.152344 63.386719 226.050781 64.628906 224.90625 C 65.921875 223.804688 67.164062 222.660156 68.453125 221.558594 C 69.742188 220.460938 71.035156 219.410156 72.324219 218.359375 C 73.613281 217.257812 74.902344 216.160156 76.242188 215.15625 C 77.53125 214.152344 78.871094 213.246094 80.207031 212.335938 C 80.257812 212.382812 80.304688 212.480469 80.351562 212.527344 C 72.46875 219.074219 64.964844 225.957031 57.84375 233.363281 C 58.132812 233.410156 58.417969 233.410156 58.5625 233.265625 C 58.945312 232.886719 59.277344 232.453125 59.660156 232.074219 C 62.957031 228.632812 66.398438 225.285156 70.125 222.226562 C 71.367188 221.226562 72.5625 220.222656 73.804688 219.21875 C 73.996094 219.074219 74.234375 219.027344 74.425781 218.929688 C 74.472656 218.980469 74.523438 219.074219 74.570312 219.121094 C 67.6875 225.09375 61.238281 231.546875 55.597656 238.714844 C 56.269531 239.097656 56.792969 240.101562 57.84375 239.289062 C 57.890625 239.242188 57.988281 239.289062 58.035156 239.242188 C 58.324219 239.097656 58.65625 238.953125 58.945312 238.714844 C 59.230469 238.476562 59.421875 238.1875 59.660156 237.902344 C 63.148438 233.265625 66.875 228.917969 70.984375 224.808594 C 71.226562 224.570312 71.511719 224.378906 71.796875 224.140625 C 71.847656 224.1875 71.894531 224.234375 71.941406 224.285156 C 71.558594 224.808594 71.226562 225.335938 70.84375 225.859375 C 68.644531 228.679688 66.445312 231.546875 64.199219 234.316406 C 62.625 236.277344 61 238.238281 59.324219 240.148438 C 58.945312 240.578125 58.945312 240.914062 59.183594 241.535156 C 60.519531 240.195312 61.859375 238.953125 63.054688 237.566406 C 64.582031 235.847656 65.96875 234.03125 67.449219 232.261719 C 69.886719 229.394531 72.371094 226.578125 74.761719 223.660156 C 77.4375 220.363281 79.96875 217.019531 82.644531 213.722656 C 83.984375 212.050781 85.417969 210.519531 86.851562 208.945312 C 89.289062 206.21875 91.773438 203.496094 94.210938 200.773438 C 94.59375 200.34375 95.070312 199.960938 95.5 199.578125 C 95.546875 199.625 95.59375 199.671875 95.691406 199.722656 C 95.59375 199.960938 95.5 200.199219 95.308594 200.390625 C 93.445312 202.492188 91.582031 204.59375 89.765625 206.746094 C 86.46875 210.617188 83.171875 214.535156 79.875 218.453125 C 76.671875 222.324219 73.46875 226.195312 70.316406 230.113281 C 67.164062 234.078125 64.246094 238.1875 60.570312 241.628906 C 60.1875 241.964844 60.28125 242.25 60.664062 242.539062 C 60.855469 242.394531 61.046875 242.296875 61.238281 242.15625 C 64.152344 239.765625 66.636719 236.945312 69.027344 234.078125 C 71.65625 230.925781 74.234375 227.722656 76.863281 224.617188 C 78.535156 222.660156 80.304688 220.746094 82.070312 218.835938 C 82.359375 218.5 82.742188 218.261719 83.027344 217.929688 C 83.074219 217.976562 83.125 218.023438 83.171875 218.070312 C 83.027344 218.214844 82.933594 218.40625 82.789062 218.550781 C 80.6875 221.175781 78.582031 223.804688 76.527344 226.480469 C 74.09375 229.683594 71.65625 232.933594 69.265625 236.183594 C 68.929688 236.613281 68.835938 237.183594 68.597656 237.664062 C 68.691406 237.710938 68.789062 237.757812 68.835938 237.808594 C 70.03125 236.375 71.273438 234.941406 72.417969 233.457031 C 73.230469 232.40625 73.949219 231.261719 74.761719 230.207031 C 74.953125 229.96875 75.382812 229.875 75.667969 229.683594 C 75.574219 230.019531 75.527344 230.351562 75.382812 230.640625 C 72.898438 234.988281 69.550781 238.617188 66.351562 242.394531 C 65.441406 243.492188 64.535156 244.542969 63.625 245.644531 C 63.53125 245.597656 63.386719 245.5 63.292969 245.453125 C 63.386719 245.597656 63.53125 245.738281 63.578125 245.835938 C 64.4375 245.214844 65.15625 244.640625 65.96875 244.113281 C 66.875 243.542969 67.257812 243.636719 67.785156 244.640625 C 68.023438 244.257812 68.261719 243.921875 68.453125 243.589844 C 69.503906 242.109375 70.507812 240.578125 71.605469 239.097656 C 72.945312 237.375 74.140625 235.511719 75.09375 233.554688 C 75.527344 232.695312 75.859375 231.785156 76.335938 230.925781 C 78.964844 226.625 82.070312 222.660156 85.417969 218.882812 C 86.039062 218.214844 86.753906 217.59375 87.425781 216.972656 C 87.519531 217.019531 87.566406 217.066406 87.664062 217.164062 C 87.566406 217.355469 87.472656 217.59375 87.328125 217.785156 C 85.320312 220.316406 83.21875 222.851562 81.261719 225.429688 C 79.492188 227.773438 77.820312 230.257812 76.386719 232.835938 C 74.425781 236.375 72.277344 239.8125 70.171875 243.253906 C 69.074219 245.023438 67.878906 246.789062 66.78125 248.464844 C 67.019531 248.796875 67.210938 249.035156 67.449219 249.371094 C 69.601562 246.121094 71.703125 242.96875 73.710938 239.8125 C 75.714844 236.660156 77.675781 233.410156 79.636719 230.207031 C 79.730469 230.257812 79.875 230.351562 79.96875 230.398438 C 77.148438 236.996094 73.183594 242.917969 69.3125 248.84375 C 69.550781 249.132812 69.742188 249.324219 70.03125 249.65625 C 71.703125 247.171875 73.46875 244.785156 74.953125 242.25 C 76.863281 238.953125 78.535156 235.5625 80.304688 232.214844 C 81.59375 229.828125 82.742188 227.390625 84.128906 225.09375 C 86.324219 221.464844 88.667969 217.878906 90.960938 214.296875 C 92.058594 212.574219 93.207031 210.855469 94.304688 209.085938 C 92.871094 210.570312 91.4375 212.097656 90.003906 213.628906 C 89.429688 214.25 88.90625 214.871094 88.285156 215.492188 C 88.140625 215.632812 87.804688 215.585938 87.566406 215.585938 C 87.566406 215.347656 87.519531 215.109375 87.566406 214.871094 C 87.617188 214.679688 87.804688 214.582031 87.902344 214.4375 C 88.285156 214.007812 88.667969 213.628906 89.050781 213.195312 C 90.195312 211.859375 91.34375 210.472656 92.539062 209.183594 C 93.683594 207.894531 94.925781 206.699219 96.074219 205.457031 C 98.082031 203.304688 100.085938 201.15625 102.140625 199.050781 C 102.332031 198.859375 102.667969 198.765625 102.90625 198.574219 C 102.8125 198.859375 102.761719 199.195312 102.574219 199.433594 C 100.996094 201.347656 99.273438 203.160156 97.839844 205.167969 C 96.3125 207.269531 94.925781 209.46875 93.539062 211.667969 C 91.535156 214.871094 89.621094 218.070312 87.710938 221.273438 C 85.941406 224.234375 84.078125 227.152344 82.503906 230.207031 C 79.394531 236.230469 76.578125 242.394531 72.609375 247.984375 C 71.894531 248.988281 71.367188 250.085938 70.746094 251.140625 C 72.035156 251.425781 72.417969 252 72.035156 253.144531 C 71.796875 253.816406 71.988281 254.292969 72.515625 254.628906 C 73.039062 255.007812 73.660156 255.296875 74.234375 255.582031 C 75.527344 253.816406 76.71875 252.140625 77.960938 250.46875 C 81.355469 245.882812 84.796875 241.34375 87.757812 236.46875 C 89.191406 234.078125 90.816406 231.738281 92.15625 229.300781 C 93.351562 227.101562 94.304688 224.761719 95.40625 222.515625 C 95.59375 222.132812 95.835938 221.796875 96.121094 221.464844 C 96.21875 221.367188 96.457031 221.320312 96.550781 221.417969 C 96.695312 221.511719 96.789062 221.703125 96.789062 221.894531 C 96.789062 222.085938 96.695312 222.277344 96.648438 222.417969 C 94.160156 228.488281 90.863281 234.078125 87.328125 239.574219 C 84.84375 243.445312 82.023438 247.078125 79.15625 250.613281 C 79.109375 250.707031 79.0625 250.804688 79.015625 250.949219 C 79.636719 250.613281 80.207031 250.328125 80.734375 250.039062 C 81.117188 249.847656 81.546875 249.753906 81.785156 250.183594 C 81.929688 250.421875 81.882812 250.898438 81.738281 251.1875 C 81.261719 252.046875 80.6875 252.859375 80.160156 253.671875 C 79.300781 255.007812 78.394531 256.347656 77.53125 257.6875 C 77.914062 258.117188 78.25 258.449219 78.582031 258.832031 C 79.203125 258.257812 79.730469 257.734375 80.304688 257.207031 C 80.6875 256.875 81.117188 256.347656 81.691406 256.777344 C 82.261719 257.207031 82.070312 257.78125 81.832031 258.308594 C 81.738281 258.59375 81.59375 258.878906 81.449219 259.121094 C 81.210938 259.550781 81.019531 259.980469 80.734375 260.457031 C 81.164062 260.792969 81.546875 261.078125 82.023438 261.460938 C 83.984375 258.257812 85.894531 255.152344 87.855469 252.09375 C 90.292969 248.175781 92.777344 244.304688 95.261719 240.433594 C 95.644531 239.8125 96.167969 239.289062 96.457031 238.617188 C 96.980469 237.472656 97.410156 236.277344 97.839844 235.082031 C 98.082031 234.414062 98.222656 233.695312 98.414062 233.027344 C 98.175781 233.171875 98.082031 233.316406 97.984375 233.507812 C 95.546875 238.238281 92.488281 242.632812 89.429688 246.980469 C 87.519531 249.753906 85.511719 252.429688 83.554688 255.152344 C 83.410156 255.34375 83.171875 255.488281 82.980469 255.679688 C 82.882812 255.632812 82.835938 255.582031 82.742188 255.535156 C 82.835938 255.296875 82.933594 255.007812 83.074219 254.769531 C 85.035156 251.710938 86.945312 248.605469 88.953125 245.546875 C 94.402344 237.183594 99.515625 228.632812 103.144531 219.265625 C 103.382812 218.691406 103.527344 218.070312 103.71875 217.496094 C 104.195312 216.113281 104.722656 214.726562 105.25 213.339844 C 105.34375 213.148438 105.726562 213.054688 105.964844 212.910156 C 106.0625 213.195312 106.15625 213.4375 106.25 213.722656 C 106.25 213.769531 106.203125 213.867188 106.15625 213.960938 C 105.390625 216.0625 104.578125 218.167969 103.910156 220.316406 C 103.003906 223.230469 102.046875 226.050781 100.515625 228.726562 C 100.183594 229.253906 100.039062 229.921875 99.894531 230.542969 C 99.609375 231.785156 99.371094 233.074219 99.035156 234.320312 C 98.414062 236.46875 97.652344 238.523438 96.359375 240.433594 C 94.832031 242.777344 93.445312 245.308594 92.011719 247.699219 C 89.71875 251.425781 87.425781 255.152344 85.128906 258.878906 C 84.460938 259.980469 83.746094 261.078125 83.125 262.082031 C 83.410156 262.464844 83.648438 262.703125 83.886719 263.039062 C 84.03125 262.800781 84.125 262.609375 84.269531 262.417969 C 84.699219 261.796875 85.082031 261.125 85.558594 260.503906 C 85.992188 259.980469 86.707031 259.933594 87.234375 260.265625 C 87.804688 260.648438 87.757812 261.175781 87.519531 261.699219 C 87.328125 262.128906 87.089844 262.558594 86.898438 262.988281 C 86.613281 263.609375 86.277344 264.234375 85.992188 264.902344 C 86.039062 264.949219 86.132812 264.996094 86.183594 265.09375 C 86.371094 264.902344 86.613281 264.757812 86.753906 264.566406 C 88.523438 261.460938 90.292969 258.308594 92.058594 255.199219 C 93.445312 252.714844 94.832031 250.277344 96.265625 247.84375 C 96.742188 247.078125 97.316406 246.359375 97.9375 245.644531 C 98.128906 245.453125 98.605469 245.355469 98.84375 245.453125 C 99.035156 245.546875 99.179688 246.027344 99.179688 246.3125 C 99.179688 246.597656 99.035156 246.886719 98.941406 247.171875 C 97.21875 251.617188 95.214844 255.917969 93.015625 260.171875 C 92.011719 262.035156 91.007812 263.898438 90.050781 265.808594 C 89.957031 265.953125 90.050781 266.238281 90.050781 266.429688 C 90.101562 266.429688 90.195312 266.429688 90.242188 266.429688 C 90.53125 265.855469 90.816406 265.332031 91.054688 264.757812 C 93.160156 260.554688 95.453125 256.441406 97.363281 252.140625 C 99.179688 248.082031 100.707031 243.875 102.332031 239.71875 C 103.480469 236.660156 104.769531 233.648438 105.34375 230.449219 C 105.441406 229.921875 105.535156 229.445312 105.679688 228.964844 C 105.871094 228.394531 106.300781 228.105469 106.730469 228.25 C 107.253906 228.441406 107.351562 228.871094 107.253906 229.394531 C 106.96875 231.210938 106.683594 232.980469 106.347656 234.796875 C 105.917969 237.042969 105.34375 239.289062 105.007812 241.535156 C 104.578125 244.496094 104.386719 247.507812 103.957031 250.46875 C 103.71875 252.191406 103.433594 253.910156 102.761719 255.535156 C 101.664062 258.355469 100.230469 261.078125 98.988281 263.851562 C 98.511719 264.855469 98.082031 265.808594 97.601562 266.765625 C 97.652344 266.8125 97.699219 266.8125 97.746094 266.859375 C 97.839844 266.667969 97.984375 266.476562 98.082031 266.289062 C 99.226562 263.992188 100.46875 261.796875 101.570312 259.453125 C 103.195312 255.871094 104.386719 252.140625 104.484375 248.128906 C 104.578125 245.214844 105.199219 242.394531 105.726562 239.527344 C 106.539062 235.371094 107.445312 231.210938 108.019531 227.007812 C 109.070312 219.3125 110.601562 211.761719 113.417969 204.5 C 114.136719 202.589844 114.804688 200.675781 115.523438 198.765625 C 114.949219 198.335938 114.421875 197.953125 113.851562 197.523438 C 113.5625 198.191406 113.230469 198.8125 112.988281 199.433594 C 111.984375 202.160156 110.984375 204.882812 110.027344 207.605469 C 109.453125 209.277344 108.929688 210.949219 108.546875 212.671875 C 108.308594 213.722656 108.402344 214.820312 108.257812 215.871094 C 107.78125 219.457031 106.585938 222.851562 105.535156 226.242188 C 104.53125 229.585938 103.574219 232.980469 102.574219 236.277344 C 101.949219 238.238281 101.28125 240.148438 100.566406 242.011719 C 100.328125 242.679688 99.800781 243.253906 99.371094 243.828125 C 99.273438 243.921875 99.035156 243.921875 98.84375 243.972656 C 98.84375 243.78125 98.796875 243.636719 98.796875 243.445312 C 98.796875 243.351562 98.894531 243.253906 98.941406 243.160156 C 99.753906 241.105469 100.660156 239.050781 101.425781 236.945312 C 101.761719 235.992188 101.855469 234.890625 102.140625 233.886719 C 102.476562 232.550781 102.859375 231.210938 103.242188 229.875 C 103.625 228.488281 103.957031 227.101562 104.292969 225.71875 C 103.957031 226.339844 103.574219 227.007812 103.335938 227.675781 C 102.382812 230.160156 101.472656 232.644531 100.613281 235.179688 C 100.230469 236.230469 100.136719 237.375 99.65625 238.378906 C 97.363281 242.777344 95.070312 247.171875 92.679688 251.519531 C 91.4375 253.816406 90.003906 256.011719 88.617188 258.210938 C 88.523438 258.402344 88.285156 258.5 88.09375 258.640625 C 88.046875 258.59375 87.996094 258.546875 87.902344 258.5 C 87.996094 258.210938 88.09375 257.925781 88.238281 257.6875 C 88.761719 256.730469 89.335938 255.820312 89.8125 254.914062 C 92.105469 250.613281 94.402344 246.265625 96.648438 241.917969 C 97.460938 240.339844 98.273438 238.714844 98.894531 237.089844 C 99.65625 234.988281 100.277344 232.835938 100.949219 230.734375 C 102.382812 226.339844 103.816406 221.941406 105.726562 217.6875 C 106.539062 215.871094 107.0625 213.960938 107.589844 212.097656 C 107.972656 210.761719 108.164062 209.421875 108.59375 208.132812 C 109.835938 204.308594 111.175781 200.535156 112.464844 196.757812 C 112.511719 196.328125 112.367188 196.042969 112.320312 195.660156 Z M 164.644531 136.691406 C 171.382812 130.144531 178.074219 123.597656 184.8125 117.050781 C 184.09375 116.335938 183.332031 115.808594 183.234375 114.804688 C 183.902344 115.378906 184.574219 115.953125 185.195312 116.574219 C 185.863281 115.90625 186.484375 115.285156 187.105469 114.664062 C 185.527344 113.039062 185.527344 112.988281 185.816406 112.609375 C 186.339844 113.085938 186.820312 113.515625 187.390625 113.945312 C 187.488281 114.039062 187.824219 113.992188 187.917969 113.898438 C 188.492188 113.417969 188.96875 112.894531 189.449219 112.417969 C 189.160156 112.082031 188.921875 111.796875 188.683594 111.507812 C 188.730469 111.460938 188.777344 111.414062 188.824219 111.363281 C 188.96875 111.363281 189.113281 111.363281 189.257812 111.414062 C 189.878906 111.796875 190.308594 111.605469 190.785156 111.125 C 197.140625 104.722656 203.542969 98.320312 209.949219 91.917969 C 210.089844 91.773438 210.1875 91.628906 210.328125 91.484375 C 209.804688 91.007812 208.945312 90.914062 208.847656 90.050781 C 208.894531 90.003906 208.945312 89.910156 208.992188 89.859375 C 209.660156 90.195312 210.328125 90.484375 210.949219 90.816406 C 211.953125 89.765625 212.957031 88.761719 214.007812 87.710938 C 213.628906 87.375 213.195312 87.042969 212.816406 86.660156 C 212.433594 86.277344 212.050781 85.894531 212.144531 85.273438 C 212.957031 85.894531 213.628906 86.421875 214.34375 86.945312 C 214.488281 87.042969 214.820312 87.042969 214.917969 86.945312 C 215.539062 86.371094 216.113281 85.800781 216.734375 85.179688 C 216.636719 85.082031 216.589844 85.082031 216.542969 85.035156 C 216.351562 84.84375 216.207031 84.652344 216.0625 84.460938 C 216.304688 84.414062 216.589844 84.269531 216.828125 84.316406 C 217.402344 84.414062 217.785156 84.269531 218.117188 83.839844 C 218.308594 83.601562 218.5 83.457031 218.691406 83.265625 C 219.074219 82.882812 219.410156 82.550781 219.792969 82.167969 C 219.3125 81.976562 218.980469 81.832031 218.644531 81.691406 C 218.644531 81.640625 218.644531 81.546875 218.691406 81.5 C 218.980469 81.449219 219.265625 81.402344 219.601562 81.402344 C 220.222656 81.355469 220.746094 81.308594 221.226562 80.828125 C 231.785156 70.414062 242.347656 60.042969 252.953125 49.671875 C 253.144531 49.480469 253.386719 49.386719 253.625 49.195312 C 252.90625 48.71875 252.332031 48.335938 251.808594 48 C 251.855469 47.90625 251.855469 47.855469 251.902344 47.761719 C 252.046875 47.808594 252.238281 47.808594 252.382812 47.855469 C 252.8125 48.046875 253.195312 48.238281 253.625 48.429688 C 253.765625 48.480469 254.054688 48.527344 254.148438 48.480469 C 254.769531 47.90625 255.34375 47.285156 255.917969 46.664062 C 255.152344 46.421875 254.4375 46.183594 253.957031 45.277344 C 254.339844 45.371094 254.53125 45.371094 254.769531 45.46875 C 255.199219 45.613281 255.679688 45.800781 256.109375 45.945312 C 256.492188 46.089844 256.777344 45.992188 257.066406 45.707031 C 259.789062 43.03125 262.464844 40.355469 265.1875 37.726562 C 265.761719 37.152344 265.953125 36.53125 266 35.765625 C 266.046875 35.097656 265.808594 34.523438 265.140625 34.332031 C 264.421875 34.144531 263.660156 34.046875 262.941406 33.953125 C 262.558594 33.902344 262.367188 34.144531 262.558594 34.523438 C 262.847656 35.144531 263.085938 35.71875 263.324219 36.339844 C 263.421875 36.628906 263.46875 36.960938 263.515625 37.25 C 263.421875 37.296875 263.371094 37.296875 263.277344 37.34375 C 263.039062 36.914062 262.75 36.53125 262.558594 36.101562 C 262.367188 35.671875 262.175781 35.195312 261.9375 34.621094 C 261.796875 34.8125 261.699219 35.003906 261.554688 35.097656 C 261.078125 35.480469 260.886719 35.863281 261.222656 36.4375 C 261.367188 36.722656 261.316406 37.105469 261.367188 37.441406 C 261.316406 37.441406 261.222656 37.488281 261.175781 37.488281 C 260.984375 37.058594 260.792969 36.628906 260.601562 36.246094 C 260.027344 36.820312 259.453125 37.34375 258.878906 37.917969 C 259.121094 38.300781 259.789062 38.394531 259.644531 39.207031 C 259.167969 38.875 258.785156 38.632812 258.355469 38.347656 C 254.960938 41.644531 251.570312 44.988281 248.175781 48.335938 C 248.941406 48.957031 249.707031 49.578125 250.421875 50.152344 C 250.375 50.199219 250.328125 50.246094 250.328125 50.292969 C 249.277344 50.152344 248.558594 49.339844 247.699219 48.765625 C 247.171875 49.339844 246.648438 49.914062 246.121094 50.484375 C 246.457031 50.773438 246.839844 51.058594 247.316406 51.441406 C 246.503906 51.726562 246.074219 51.15625 245.546875 50.867188 C 244.976562 51.488281 244.351562 52.15625 243.828125 52.730469 C 244.019531 52.921875 244.257812 53.160156 244.496094 53.351562 C 244.449219 53.449219 244.402344 53.496094 244.351562 53.589844 C 243.972656 53.449219 243.589844 53.304688 243.160156 53.160156 C 242.96875 53.351562 242.730469 53.542969 242.539062 53.734375 C 237.234375 58.894531 231.976562 64.058594 226.671875 69.21875 C 221.273438 74.472656 215.921875 79.730469 210.519531 84.9375 C 209.996094 85.417969 209.949219 85.847656 210.28125 86.371094 C 210.664062 86.992188 211.09375 87.617188 211.523438 88.238281 C 211.667969 88.425781 211.8125 88.617188 211.953125 88.808594 C 211.90625 88.859375 211.8125 88.90625 211.761719 88.953125 C 210.519531 88.378906 209.996094 87.183594 209.515625 85.941406 C 209.328125 86.132812 209.136719 86.277344 208.992188 86.421875 C 196.902344 98.273438 184.859375 110.074219 172.769531 121.925781 C 168.804688 125.84375 164.835938 129.761719 160.824219 133.679688 C 160.441406 134.0625 160.296875 134.445312 160.535156 134.921875 C 160.917969 135.6875 161.398438 136.40625 161.828125 137.121094 C 161.96875 137.359375 162.257812 137.597656 162.449219 137.839844 C 162.066406 138.269531 161.730469 138.078125 161.539062 137.789062 C 161.0625 137.074219 160.679688 136.308594 160.25 135.542969 C 160.105469 135.304688 160.011719 135.066406 159.914062 134.78125 C 158.914062 135.59375 158.914062 135.59375 159.484375 136.546875 C 159.722656 136.976562 160.011719 137.410156 160.25 137.839844 C 160.347656 137.980469 160.347656 138.171875 160.441406 138.316406 C 160.394531 138.363281 160.296875 138.410156 160.25 138.410156 C 159.246094 138.078125 158.960938 137.027344 158.578125 136.308594 C 151.074219 143.765625 143.574219 151.21875 136.070312 158.671875 C 136.691406 159.582031 137.457031 160.34375 138.410156 160.917969 C 139.464844 161.589844 139.464844 161.589844 140.277344 160.679688 C 140.324219 160.632812 140.324219 160.585938 140.371094 160.535156 C 139.128906 159.628906 138.316406 158.289062 138.652344 157.71875 C 139.367188 158.480469 140.132812 159.292969 140.945312 160.15625 C 141.183594 159.867188 141.277344 159.722656 141.375 159.582031 C 141.46875 159.4375 141.613281 159.292969 141.757812 159.152344 C 140.371094 157.910156 140.035156 157.382812 140.179688 156.714844 C 140.898438 157.335938 141.566406 157.957031 142.234375 158.578125 C 142.617188 158.242188 142.902344 157.957031 143.191406 157.71875 C 142.902344 157.476562 142.664062 157.289062 142.425781 157.097656 C 142.332031 157 142.332031 156.808594 142.378906 156.714844 C 142.378906 156.667969 142.617188 156.617188 142.710938 156.667969 C 142.902344 156.714844 143.09375 156.808594 143.238281 156.90625 C 143.621094 157.191406 143.859375 157.097656 144.144531 156.761719 C 150.214844 150.789062 156.285156 144.816406 162.402344 138.84375 C 162.878906 138.363281 163.355469 137.886719 163.882812 137.410156 C 163.164062 136.835938 162.496094 136.261719 162.304688 135.164062 C 163.164062 135.6875 163.882812 136.164062 164.644531 136.691406 Z M 118.390625 177.070312 C 118.4375 177.117188 118.53125 177.117188 118.582031 177.167969 C 118.53125 177.40625 118.484375 177.644531 118.390625 177.882812 C 116.8125 181.132812 114.757812 184.046875 112.367188 186.769531 C 112.035156 187.152344 111.746094 187.488281 111.363281 187.964844 C 112.511719 188.394531 113.5625 188.777344 114.613281 189.160156 C 115.140625 188.347656 115.617188 187.679688 116.046875 186.914062 C 117.097656 185.148438 118.101562 183.332031 119.152344 181.5625 C 119.34375 181.277344 119.632812 180.988281 119.824219 180.75 C 119.917969 180.796875 119.964844 180.847656 120.0625 180.894531 C 119.058594 183.902344 117.433594 186.628906 116.097656 189.542969 C 116.476562 189.6875 116.859375 189.78125 117.148438 189.878906 C 117.71875 188.636719 118.292969 187.390625 118.867188 186.199219 C 119.632812 184.523438 120.398438 182.851562 121.207031 181.179688 C 121.351562 180.847656 121.734375 180.65625 122.019531 180.367188 C 121.972656 180.75 122.070312 181.132812 121.925781 181.46875 C 120.777344 184.429688 119.585938 187.34375 118.390625 190.308594 C 118.722656 190.402344 119.058594 190.5 119.394531 190.59375 C 120.921875 186.484375 122.164062 182.328125 124.316406 178.550781 C 123.453125 177.929688 122.640625 177.359375 121.78125 176.734375 C 120.253906 178.886719 118.675781 181.035156 117.148438 183.1875 C 116.144531 184.621094 115.1875 186.054688 114.230469 187.488281 C 114.089844 187.679688 113.898438 187.824219 113.707031 188.015625 C 113.609375 187.964844 113.5625 187.964844 113.46875 187.917969 C 113.515625 187.632812 113.515625 187.34375 113.660156 187.105469 C 114.804688 185.097656 115.953125 183.089844 117.148438 181.132812 C 118.292969 179.316406 119.535156 177.5 120.730469 175.734375 C 119.917969 174.777344 119.152344 173.867188 118.339844 172.914062 C 117.671875 173.296875 116.957031 173.628906 116.285156 174.058594 C 113.179688 175.925781 110.121094 177.789062 107.0625 179.652344 C 106.875 179.746094 106.632812 179.699219 106.394531 179.699219 C 106.492188 179.507812 106.539062 179.222656 106.683594 179.078125 C 106.875 178.839844 107.160156 178.695312 107.398438 178.550781 C 110.074219 176.878906 112.796875 175.160156 115.472656 173.488281 C 116.144531 173.058594 116.765625 172.578125 117.386719 172.101562 C 117.53125 172.003906 117.578125 171.8125 117.71875 171.625 C 113.417969 173.820312 109.261719 175.972656 105.058594 178.167969 C 105.535156 179.222656 106.0625 180.464844 106.632812 181.800781 C 108.210938 180.796875 109.789062 179.890625 111.269531 178.933594 C 113.371094 177.597656 115.472656 176.164062 117.578125 174.777344 C 117.769531 174.632812 118.007812 174.492188 118.246094 174.394531 C 118.390625 174.347656 118.53125 174.394531 118.675781 174.394531 C 118.675781 174.539062 118.675781 174.730469 118.582031 174.871094 C 118.390625 175.160156 118.101562 175.398438 117.863281 175.589844 C 115.953125 177.070312 114.039062 178.550781 112.128906 179.9375 C 111.078125 180.703125 109.980469 181.417969 108.878906 182.136719 C 108.355469 182.46875 107.78125 182.804688 107.207031 183.1875 C 107.496094 183.761719 107.734375 184.285156 108.019531 184.859375 C 108.308594 184.574219 108.546875 184.382812 108.785156 184.191406 C 110.695312 182.421875 112.609375 180.65625 114.519531 178.886719 C 114.757812 178.648438 115.140625 178.503906 115.472656 178.359375 C 115.378906 178.695312 115.332031 179.125 115.140625 179.414062 C 113.324219 181.992188 110.886719 184 108.785156 186.390625 C 108.976562 186.769531 109.214844 187.25 109.550781 187.871094 C 112.558594 184.144531 115.472656 180.605469 118.390625 177.070312 Z M 134.109375 171.765625 C 129.667969 169.425781 127.085938 165.984375 125.988281 161.347656 C 125.222656 162.066406 125.175781 163.023438 125.558594 163.976562 C 126.753906 166.988281 128.425781 169.710938 131.242188 171.480469 C 131.960938 171.957031 132.199219 172.386719 131.863281 172.722656 C 131.433594 173.246094 130.910156 172.960938 130.480469 172.722656 C 128.472656 171.574219 126.847656 170 125.460938 168.183594 C 124.601562 167.082031 123.933594 165.890625 123.597656 164.550781 C 123.503906 164.214844 123.453125 163.882812 123.359375 163.5 C 122.59375 163.976562 122.355469 164.457031 122.640625 165.21875 C 122.738281 165.601562 122.882812 165.9375 123.074219 166.269531 C 124.410156 168.613281 125.988281 170.761719 128.136719 172.484375 C 128.519531 172.816406 129 173.105469 129.285156 173.488281 C 129.476562 173.679688 129.570312 174.109375 129.476562 174.300781 C 129.378906 174.492188 128.949219 174.585938 128.664062 174.585938 C 128.472656 174.585938 128.28125 174.441406 128.089844 174.300781 C 125.175781 172.339844 122.882812 169.855469 121.257812 166.75 C 121.160156 166.511719 120.777344 166.320312 120.539062 166.320312 C 120.300781 166.320312 120.0625 166.558594 119.824219 166.703125 C 119.488281 166.941406 119.203125 167.179688 118.914062 167.464844 C 118.722656 167.609375 118.53125 167.800781 118.484375 167.992188 C 118.246094 168.707031 118.53125 169.378906 118.914062 170 C 120.207031 172.101562 121.640625 174.109375 123.695312 175.636719 C 124.648438 176.304688 125.75 176.785156 126.753906 177.308594 C 126.941406 177.40625 127.230469 177.308594 127.566406 177.261719 C 126.800781 176.785156 126.082031 176.402344 125.507812 175.925781 C 123.40625 174.15625 121.640625 172.101562 120.207031 169.757812 C 119.917969 169.328125 119.726562 168.804688 119.585938 168.277344 C 119.441406 167.847656 119.632812 167.371094 120.0625 167.324219 C 120.347656 167.273438 120.777344 167.464844 121.066406 167.65625 C 121.257812 167.753906 121.257812 168.085938 121.398438 168.277344 C 122.785156 171.191406 124.792969 173.582031 127.515625 175.300781 C 127.945312 175.542969 128.472656 175.636719 128.996094 175.683594 C 129.140625 175.734375 129.429688 175.542969 129.476562 175.398438 C 129.761719 174.777344 130.242188 174.539062 130.863281 174.539062 C 131.625 174.539062 132.007812 174.058594 132.34375 173.390625 C 132.488281 173.058594 132.867188 172.769531 133.15625 172.484375 C 133.488281 172.339844 133.777344 172.054688 134.109375 171.765625 Z M 136.117188 168.085938 C 135.925781 167.992188 135.832031 167.894531 135.6875 167.800781 C 133.730469 166.703125 132.390625 165.078125 131.339844 163.164062 C 130.957031 162.449219 130.765625 161.589844 130.574219 160.777344 C 130.480469 160.34375 130.382812 159.773438 130.910156 159.628906 C 131.484375 159.484375 131.53125 160.105469 131.769531 160.488281 C 132.246094 161.398438 132.726562 162.304688 133.296875 163.164062 C 134.542969 164.980469 136.40625 165.792969 138.410156 166.414062 C 138.792969 166.558594 139.464844 166.128906 139.511719 165.699219 C 139.558594 165.078125 139.511719 164.457031 139.511719 163.929688 C 139.03125 163.785156 138.601562 163.738281 138.269531 163.546875 C 136.5 162.542969 135.066406 161.253906 134.351562 159.292969 C 134.300781 159.152344 134.207031 158.960938 134.109375 158.863281 C 133.441406 158.386719 132.820312 157.910156 132.105469 157.476562 C 131.339844 157 130.671875 157.097656 130.144531 157.8125 C 129.714844 158.433594 129.378906 159.101562 128.996094 159.722656 C 128.617188 160.441406 128.234375 161.15625 127.851562 161.875 C 127.804688 162.019531 127.804688 162.257812 127.851562 162.402344 C 129.09375 165.078125 131.003906 167.273438 133.347656 169.089844 C 133.632812 169.328125 133.96875 169.425781 134.207031 169.566406 C 134.875 169.042969 135.496094 168.566406 136.117188 168.085938 Z M 101.472656 176.785156 C 101.378906 176.734375 101.328125 176.734375 101.234375 176.6875 C 101.140625 176.925781 100.949219 177.167969 100.949219 177.40625 C 100.949219 177.738281 101.042969 178.121094 101.140625 178.457031 C 101.761719 180.847656 102.667969 183.140625 104.007812 185.242188 C 104.195312 185.527344 104.4375 185.910156 104.007812 186.199219 C 103.574219 186.484375 103.335938 186.101562 103.144531 185.769531 C 102.621094 184.90625 102.09375 184.046875 101.664062 183.140625 C 100.996094 181.609375 100.46875 180.035156 99.847656 178.457031 C 99.753906 178.265625 99.417969 178.167969 99.226562 177.980469 C 99.082031 178.21875 98.941406 178.410156 98.894531 178.648438 C 98.84375 178.839844 98.988281 179.125 99.082031 179.316406 C 99.324219 179.890625 99.609375 180.511719 99.894531 181.035156 C 100.566406 182.375 101.089844 183.808594 102 185.003906 C 103.382812 186.769531 104.960938 188.347656 106.539062 189.878906 C 107.253906 190.59375 108.210938 191.070312 109.214844 191.742188 C 108.976562 189.828125 108.210938 188.347656 107.589844 186.820312 C 106.300781 183.617188 104.960938 180.414062 103.671875 177.167969 C 103.527344 176.832031 103.671875 176.402344 103.671875 175.925781 C 103.242188 175.828125 103.003906 176.257812 103.003906 176.6875 C 103.050781 177.40625 103.097656 178.167969 103.382812 178.792969 C 104.722656 181.992188 106.109375 185.195312 107.496094 188.394531 C 107.636719 188.730469 108.066406 189.207031 107.542969 189.449219 C 107.015625 189.734375 106.777344 189.160156 106.632812 188.777344 C 105.390625 186.199219 104.148438 183.664062 102.953125 181.085938 C 102.285156 179.792969 101.519531 178.410156 101.472656 176.785156 Z M 101.472656 176.785156 " fill-opacity="1" fill-rule="nonzero"/></g></svg>