<svg xmlns="http://www.w3.org/2000/svg" xmlns:xlink="http://www.w3.org/1999/xlink" width="400" zoomAndPan="magnify" viewBox="0 0 300 299.999988" height="400" preserveAspectRatio="xMidYMid meet" version="1.0"><path fill="#a9a0f0" d="M 223.972656 217.898438 C 223.726562 215.660156 223.101562 213.53125 222.097656 211.515625 C 218.710938 204.621094 215.269531 197.925781 211.886719 190.992188 C 238.714844 186.570312 201.652344 139.324219 191.097656 131.054688 C 188.695312 127.640625 195.046875 109.898438 196.394531 105.136719 C 201.730469 91.007812 205.140625 76.28125 209.289062 61.777344 C 211.445312 55.777344 208.53125 46.273438 200.746094 48 C 198.589844 47.867188 196.472656 47.242188 194.320312 47.984375 C 193.996094 48.078125 193.683594 48.058594 193.371094 47.925781 C 190.914062 46.375 188.214844 46.757812 185.542969 46.640625 C 183.386719 44.976562 180.976562 45.640625 178.578125 45.65625 C 176.484375 44.351562 174.253906 44.390625 171.949219 44.890625 C 171.601562 44.976562 171.273438 44.929688 170.960938 44.757812 C 170.015625 44.082031 168.980469 43.621094 167.84375 43.386719 C 166.707031 43.148438 165.574219 43.152344 164.4375 43.394531 C 162.289062 43.519531 160.199219 42.429688 158.019531 42.96875 C 155.894531 43.5 155.492188 35.875 154.363281 34.222656 C 152.472656 29.992188 149.433594 30.773438 146.089844 32.703125 C 144.898438 32.574219 143.722656 32.675781 142.566406 33 C 141.414062 33.328125 140.359375 33.859375 139.410156 34.589844 C 139.136719 34.792969 138.832031 34.882812 138.496094 34.863281 C 135.820312 34.511719 133.492188 35.347656 131.324219 36.832031 C 127.84375 37.480469 124.769531 37.261719 122.230469 40.371094 C 121.128906 41.292969 119.503906 41.324219 118.167969 41.738281 C 116.851562 41.878906 115.59375 40.976562 114.300781 40.945312 C 111.671875 40.769531 109.75 42.042969 110.046875 44.753906 C 110.113281 45.34375 109.21875 45.945312 108.566406 45.773438 C 106.074219 45.128906 104.070312 45.859375 102.488281 47.863281 C 102.339844 48.066406 102.140625 48.191406 101.890625 48.234375 C 99.859375 48.230469 98.441406 49.324219 97.25 50.804688 C 95.359375 52.339844 92.378906 49.214844 88.640625 54.269531 C 88.453125 54.511719 88.203125 54.648438 87.894531 54.675781 C 85.40625 54.648438 83.574219 55.746094 82.261719 57.820312 C 82.085938 58.070312 81.847656 58.210938 81.542969 58.238281 C 80.554688 58.183594 79.597656 58.339844 78.679688 58.703125 C 77.757812 59.066406 76.957031 59.605469 76.269531 60.320312 C 76.066406 60.515625 75.824219 60.601562 75.542969 60.582031 C 72.734375 60.023438 70.351562 61.441406 69.128906 64.132812 C 68.042969 65.890625 64.640625 63.183594 62.78125 68.335938 C 61.285156 74.457031 65.609375 80.105469 68.894531 84.855469 C 82.347656 103.371094 96.289062 121.980469 105.726562 142.925781 C 103.054688 153.402344 96.683594 163.148438 93.425781 173.601562 C 91.488281 183.308594 82.671875 217.804688 101.894531 212.199219 C 100.996094 220.050781 99.667969 227.691406 98.636719 235.5 C 98.214844 238.597656 98.257812 241.703125 99.335938 244.703125 C 102.082031 252.832031 111.773438 251.96875 117.695312 247.867188 C 116.648438 262.769531 128.855469 270.007812 137.257812 255.519531 C 138.730469 264.171875 146.546875 266.898438 153.863281 262.773438 C 158.445312 260.171875 160.347656 255.160156 162.386719 250.597656 C 165.867188 251.546875 166.480469 251.382812 171.351562 248.15625 C 178.9375 260.03125 190.464844 257.929688 191.671875 243.53125 C 194.59375 246.492188 198.125 247.722656 202.230469 247.054688 C 210.035156 246.253906 210.375 237.054688 209.230469 231.042969 C 217.015625 232.3125 224.566406 225.789062 223.972656 217.898438 Z M 143.953125 37.269531 C 145.980469 36.757812 148.285156 38.535156 149.574219 36.027344 C 149.8125 35.707031 149.777344 35.789062 150.257812 35.480469 C 150.867188 37.667969 151.445312 39.730469 152.023438 41.804688 C 150.757812 41.914062 149.707031 42.523438 148.59375 42.160156 C 146.074219 40.742188 143.621094 41.761719 141.074219 41.992188 C 136.546875 39.6875 133.046875 43.042969 131.6875 41.746094 C 139.785156 36.269531 136.125 42.371094 143.953125 37.269531 Z M 73.609375 83.816406 C 71.457031 80.855469 69.171875 77.953125 67.808594 74.511719 C 67.523438 73.148438 65.496094 68.863281 68.226562 69.269531 C 71.019531 69.433594 71.703125 69.019531 72.871094 66.476562 C 73.902344 63.324219 76.875 66.589844 78.964844 63.859375 C 80.714844 61.582031 84.339844 63.929688 85.566406 60.863281 C 87.148438 57.613281 90.378906 60.574219 92.265625 56.800781 C 94.425781 53.757812 97.996094 57.902344 100.671875 53.59375 C 102.316406 51.582031 104.125 54.132812 105.964844 50.609375 C 107.195312 49.015625 109.027344 51.355469 110.730469 50.269531 C 112.878906 70.859375 113.214844 91.480469 111.746094 112.128906 C 111.242188 120.585938 110.867188 129.402344 107.949219 137.378906 C 98.421875 118.378906 86.339844 100.792969 73.609375 83.816406 Z M 167.695312 245.5 C 166.679688 246.585938 163.257812 248.148438 163.808594 245.308594 C 165.984375 235.558594 168.699219 225.957031 171.953125 216.511719 C 172.324219 213.484375 180.179688 197.109375 173.125 199.179688 C 172.640625 199.351562 172.25 199.648438 171.949219 200.066406 C 171.652344 200.484375 171.5 200.953125 171.492188 201.464844 C 168.589844 215.683594 162.382812 229.152344 159.703125 243.511719 C 157.902344 250.523438 154.761719 261.613281 145.484375 259.988281 C 144.886719 259.894531 144.34375 259.671875 143.855469 259.320312 C 143.363281 258.96875 142.976562 258.523438 142.695312 257.988281 C 139.964844 252.933594 140.660156 246.910156 142.851562 241.8125 C 146.738281 231.171875 150.59375 220.515625 154.425781 209.847656 C 155.273438 207.464844 155.828125 204.980469 156.523438 202.539062 C 157.804688 200.628906 156.382812 197.859375 153.964844 198.445312 C 153.519531 198.542969 153.144531 198.765625 152.84375 199.109375 C 152.542969 199.457031 152.378906 199.855469 152.34375 200.3125 C 151.839844 205.125 149.832031 209.484375 148.242188 213.964844 C 143.828125 226.273438 139.507812 238.628906 134.59375 250.75 C 133.1875 254.425781 127.703125 262.746094 123.949219 257.09375 C 122.132812 252.75 120.308594 246.894531 123.183594 242.644531 C 126.042969 238.902344 128.195312 234.742188 130.207031 230.507812 C 134.460938 221.570312 136.84375 212.066406 138.519531 202.363281 C 139.246094 197.609375 140.140625 192.84375 140.382812 188.03125 C 140.457031 185.609375 137.984375 184.742188 136.667969 186.835938 C 136.238281 187.472656 135.972656 188.175781 135.875 188.9375 C 135.472656 195.121094 134.316406 201.1875 133.078125 207.242188 C 130.234375 219.671875 123.796875 243.265625 109.757812 246.4375 C 106.542969 247.175781 104.078125 245.65625 103.273438 242.480469 C 102.039062 233.058594 105.382812 223.609375 106.113281 214.210938 C 107.929688 198.691406 106.941406 183.011719 107.179688 167.425781 C 107.179688 166.40625 106.734375 165.714844 105.980469 165.5 C 103.777344 164.875 103.175781 167.671875 103.144531 169.316406 C 103.027344 175.640625 103.039062 181.964844 102.902344 188.289062 C 102.777344 194.246094 102.515625 200.199219 102.339844 206.152344 C 102.242188 207.59375 100.273438 207.789062 99.230469 208.304688 C 97.421875 208.835938 96.179688 208.246094 95.304688 206.566406 C 94.359375 204.738281 94.289062 202.757812 94.355469 200.78125 C 94.570312 191.84375 95.289062 182.851562 97.894531 174.265625 C 102.144531 162.726562 108.171875 151.859375 111.871094 140.082031 C 116.199219 127.699219 115.785156 114.417969 116.644531 101.492188 C 117.726562 82.527344 116.90625 63.644531 114.179688 44.84375 C 117.191406 46.984375 116.847656 46.957031 120.375 45.515625 C 122.386719 44.703125 124.234375 46.085938 126.316406 45.761719 C 127.484375 45.46875 128.929688 45.308594 129.90625 46.058594 C 132.808594 49.078125 136.066406 43.78125 139.578125 46.289062 C 142.160156 47.996094 144.734375 44.429688 147.367188 46.542969 C 147.765625 46.773438 148.195312 46.898438 148.65625 46.925781 C 149.117188 46.953125 149.558594 46.878906 149.984375 46.695312 C 151.433594 46.210938 152.765625 46.21875 154.003906 47.335938 C 156.148438 48.980469 159.332031 46.210938 162.613281 47.847656 C 164.785156 48.367188 167.246094 46.6875 168.882812 49.011719 C 170.953125 51.433594 174.363281 47.378906 176.605469 49.796875 C 178.515625 51.84375 181.339844 48.621094 183.273438 50.542969 C 185.71875 52.707031 188.925781 49.683594 191.902344 52.210938 C 192.8125 52.824219 193.804688 52.789062 194.832031 52.492188 C 197.652344 50.90625 199.945312 54.195312 202.1875 52.699219 C 205.96875 50.925781 205.957031 59.289062 204.695312 61.835938 C 200.675781 76.40625 196.988281 91.070312 191.6875 105.238281 C 185.683594 123.316406 183.625 142.476562 181.777344 161.355469 C 180.90625 170.75 180.523438 180.164062 180.632812 189.601562 C 180.941406 208.714844 182.152344 230.789062 167.695312 245.5 Z M 174.410156 245.390625 C 174.300781 245.136719 174.3125 244.890625 174.449219 244.652344 C 178.066406 239.917969 180.085938 234.460938 181.976562 228.898438 C 183.480469 232.160156 186.332031 234.886719 186.738281 238.386719 C 188.546875 249.824219 182.597656 257.335938 174.410156 245.390625 Z M 201.976562 242.613281 C 199.273438 243.132812 196.820312 242.652344 194.96875 240.492188 C 190.558594 235.300781 187.105469 229.359375 183.707031 223.480469 C 184.390625 218.125 185.421875 212.6875 185.308594 207.183594 C 190.953125 215.167969 196.894531 222.773438 204.226562 229.101562 C 204.800781 232.839844 207.152344 241.46875 201.976562 242.613281 Z M 213.054688 226.605469 C 202.710938 227.636719 191.777344 207.613281 185.527344 200.285156 C 184.101562 178.667969 186.074219 156.800781 189.425781 135.351562 C 194.25 139.714844 198.46875 144.605469 202.070312 150.019531 C 207.210938 157.347656 212.46875 164.742188 215.539062 173.226562 C 217.410156 177.910156 218.554688 187.34375 211.089844 186.863281 C 210.746094 186.828125 210.441406 186.703125 210.171875 186.488281 C 209.902344 186.273438 209.710938 186 209.597656 185.675781 C 204.925781 174.742188 202.296875 163.175781 199.214844 151.742188 C 198.925781 148.148438 194.179688 147.667969 194.570312 151.546875 C 195.121094 153.648438 195.796875 155.710938 196.308594 157.820312 C 200.136719 174.847656 206.242188 191.019531 214.617188 206.332031 C 216.3125 210.042969 218.566406 213.632812 219.472656 217.636719 C 220.140625 221.417969 216.859375 226 213.054688 226.605469 Z M 213.054688 226.605469 " fill-opacity="1" fill-rule="nonzero"/></svg>