<svg xmlns="http://www.w3.org/2000/svg" xmlns:xlink="http://www.w3.org/1999/xlink" width="400" zoomAndPan="magnify" viewBox="0 0 300 299.999988" height="400" preserveAspectRatio="xMidYMid meet" version="1.0"><defs><clipPath id="9b041be715"><path d="M 71 210 L 229.5 210 L 229.5 270 L 71 270 Z M 71 210 " clip-rule="nonzero"/></clipPath></defs><path fill="#a9a0f0" d="M 185.003906 253.753906 C 165.515625 251.671875 142.851562 249.359375 123.363281 247.277344 C 117.855469 246.691406 112.351562 246.101562 106.847656 245.515625 C 106.0625 245.429688 105.410156 246.386719 105.433594 247.203125 C 105.460938 248.179688 104.660156 248.65625 105.445312 248.738281 C 124.898438 250.816406 145.835938 252.96875 165.289062 255.046875 C 170.832031 255.640625 178.316406 256.3125 183.859375 256.902344 C 184.644531 256.988281 184.742188 255.929688 184.71875 255.113281 C 184.695312 254.132812 185.792969 253.835938 185.007812 253.753906 Z M 185.003906 253.753906 " fill-opacity="1" fill-rule="nonzero"/><path fill="#a9a0f0" d="M 168.460938 38.132812 C 168.261719 36.996094 167.414062 35.089844 166.222656 34.710938 C 163.527344 33.859375 162.847656 39.09375 162.472656 40.851562 C 162.390625 41.230469 162.316406 41.621094 162.355469 42.007812 C 162.359375 42.042969 162.367188 42.078125 162.375 42.113281 C 162.367188 42.136719 162.355469 42.15625 162.351562 42.179688 C 162.042969 44.058594 164.574219 45.246094 166.074219 44.828125 C 169.070312 43.992188 168.882812 40.5625 168.460938 38.132812 Z M 165.910156 43.089844 C 165.164062 43.417969 164.234375 43.269531 163.636719 42.722656 C 163.6875 42.566406 163.703125 42.40625 163.707031 42.242188 C 163.785156 40.359375 164.054688 38.453125 164.816406 36.726562 C 165.378906 35.449219 166.207031 36.660156 166.53125 37.324219 C 167.027344 38.332031 167.304688 39.445312 167.34375 40.570312 C 167.378906 41.578125 166.871094 42.667969 165.910156 43.089844 Z M 165.910156 43.089844 " fill-opacity="1" fill-rule="nonzero"/><path fill="#a9a0f0" d="M 171.496094 42.714844 C 171.3125 39.789062 170.949219 36.644531 169.855469 33.902344 C 169.078125 31.945312 167.453125 30.035156 165.113281 30.554688 C 162.445312 31.148438 161.492188 33.949219 160.785156 36.25 C 159.117188 41.671875 158.253906 47.3125 157.726562 52.941406 C 157.472656 55.660156 157.28125 58.457031 158.050781 61.078125 C 158.65625 63.148438 159.5 64.847656 159.078125 67.023438 C 158.652344 69.207031 158.539062 71.496094 158.378906 73.757812 C 158.027344 78.738281 157.675781 83.714844 157.324219 88.691406 C 156.617188 98.648438 155.90625 108.605469 155.199219 118.558594 C 155.015625 121.148438 154.832031 123.738281 154.648438 126.324219 C 154.246094 132.023438 153.839844 137.722656 153.4375 143.421875 C 152.546875 144.140625 152.203125 145.386719 152.171875 146.828125 C 152.101562 149.9375 151.867188 153.078125 151.734375 156.210938 C 151.660156 157.957031 151.582031 159.703125 151.511719 161.453125 C 151.457031 162.898438 151.410156 164.414062 151.882812 165.800781 C 152.679688 168.144531 154.992188 169.734375 157.492188 169.445312 C 158.691406 169.304688 159.796875 168.726562 160.617188 167.839844 C 161.941406 166.402344 162.339844 163.792969 162.597656 161.921875 C 162.992188 159.027344 163.386719 156.132812 163.78125 153.238281 C 164.039062 151.371094 164.292969 149.503906 164.546875 147.636719 C 164.710938 146.429688 165.0625 144.953125 164.199219 143.921875 C 163.257812 142.792969 161.878906 143.125 160.617188 143.332031 C 158.878906 143.621094 157.3125 142.804688 155.59375 142.78125 C 155.425781 142.777344 155.28125 142.804688 155.128906 142.820312 C 156.566406 122.554688 158.003906 102.292969 159.441406 82.027344 C 159.847656 76.285156 160.253906 70.542969 160.660156 64.796875 C 162.28125 65.507812 163.992188 65.949219 165.796875 65.609375 C 168.320312 65.136719 169.78125 63.257812 170.214844 60.804688 C 170.730469 57.878906 171.019531 54.871094 171.28125 51.914062 C 171.554688 48.855469 171.6875 45.78125 171.496094 42.714844 Z M 159.082031 144.898438 C 160 144.855469 162.136719 144.417969 162.722656 145.324219 C 162.980469 145.714844 163.015625 146.210938 163.003906 146.679688 C 162.988281 147.121094 162.941406 147.558594 162.878906 148 C 162.691406 149.269531 162.355469 150.535156 162.195312 151.8125 C 161.957031 153.730469 161.796875 155.65625 161.535156 157.570312 C 161.320312 159.167969 161.101562 160.761719 160.882812 162.359375 C 160.667969 163.917969 160.816406 165.207031 159.683594 166.429688 C 158.6875 167.503906 157.34375 168.125 155.867188 167.667969 C 153.324219 166.882812 153.070312 164.230469 153.144531 161.953125 C 153.308594 156.898438 153.632812 151.847656 153.703125 146.792969 C 153.710938 146.34375 153.71875 145.882812 153.863281 145.457031 C 154.097656 144.78125 154.582031 144.488281 155.257812 144.441406 C 156.523438 144.347656 157.722656 144.964844 159.082031 144.902344 Z M 169.082031 56.902344 C 168.792969 59.222656 168.929688 62.65625 166.378906 63.722656 C 164.285156 64.597656 161.839844 64.066406 160.613281 62.101562 C 159.925781 61 159.652344 59.691406 159.484375 58.402344 C 158.683594 52.257812 159.839844 46.351562 161.328125 40.460938 C 161.613281 39.320312 161.921875 38.1875 162.261719 37.066406 C 162.628906 35.855469 162.957031 34.542969 163.683594 33.492188 C 164.304688 32.59375 165.472656 31.765625 166.601562 32.273438 C 167.511719 32.6875 168.03125 33.730469 168.367188 34.617188 C 169.21875 36.863281 169.570312 39.386719 169.773438 41.769531 C 170.203125 46.816406 169.707031 51.890625 169.082031 56.90625 Z M 169.082031 56.902344 " fill-opacity="1" fill-rule="nonzero"/><path fill="#a9a0f0" d="M 162.789062 144.429688 C 164.15625 125.171875 166.261719 97.839844 167.625 78.582031 C 167.957031 73.929688 168.285156 69.28125 168.617188 64.628906 C 168.082031 64.355469 167.550781 64.066406 167.023438 63.78125 C 165.628906 83.480469 164.230469 103.179688 162.835938 122.878906 C 162.550781 126.890625 161.554688 139.921875 161.269531 143.933594 C 161.738281 144.453125 162.230469 143.988281 162.789062 144.429688 Z M 162.789062 144.429688 " fill-opacity="1" fill-rule="nonzero"/><path fill="#a9a0f0" d="M 160.929688 165.125 C 160.855469 165.34375 160.746094 165.511719 160.613281 165.648438 C 159.582031 180.144531 158.558594 194.636719 157.527344 209.132812 C 157.464844 210.007812 157.402344 210.878906 157.34375 211.753906 C 157.820312 211.289062 158.507812 211.351562 158.996094 211.707031 C 160.105469 196.082031 161.210938 180.460938 162.320312 164.835938 C 162.421875 163.417969 162.523438 161.996094 162.621094 160.574219 C 162.074219 162.097656 161.457031 163.601562 160.929688 165.128906 Z M 160.929688 165.125 " fill-opacity="1" fill-rule="nonzero"/><path fill="#a9a0f0" d="M 148.609375 211.335938 C 148.902344 211.105469 149.179688 210.964844 149.554688 210.945312 C 149.640625 210.941406 149.722656 210.949219 149.804688 210.96875 C 150.902344 195.5 151.996094 180.035156 153.09375 164.566406 C 152.960938 164.417969 152.851562 164.238281 152.769531 164.039062 C 152.347656 163.035156 151.996094 162.011719 151.695312 160.972656 C 150.59375 176.507812 149.492188 192.042969 148.390625 207.578125 C 148.289062 209.003906 148.191406 210.433594 148.089844 211.859375 C 148.238281 211.675781 148.40625 211.5 148.609375 211.335938 Z M 148.609375 211.335938 " fill-opacity="1" fill-rule="nonzero"/><g clip-path="url(#9b041be715)"><path fill="#a9a0f0" d="M 229.175781 234.65625 C 228.523438 233.917969 227.648438 233.457031 226.722656 233.265625 C 226.980469 232.472656 226.980469 231.582031 226.628906 230.789062 C 225.558594 228.367188 222.628906 228.433594 220.527344 229.445312 C 219.613281 227.566406 216.960938 226.816406 215.183594 227.902344 C 214.574219 226.953125 213.496094 226.320312 212.328125 226.414062 C 211.433594 226.488281 210.703125 226.9375 210.191406 227.578125 C 209.390625 226.273438 208.261719 225.15625 206.667969 225.03125 C 205.414062 224.929688 204.109375 225.519531 203.425781 226.527344 C 202.515625 225.875 201.296875 225.683594 200.203125 225.953125 C 200.011719 225.207031 199.574219 224.503906 198.96875 224.074219 C 197.285156 222.871094 195.414062 223.785156 194.042969 225.082031 C 193.671875 224.292969 193 223.660156 192.066406 223.4375 C 190.742188 223.121094 189.445312 223.832031 188.78125 224.941406 C 187.300781 224.539062 185.714844 225.066406 184.738281 226.214844 C 184.246094 225.558594 183.757812 224.898438 183.265625 224.238281 C 183.019531 223.90625 182.738281 223.804688 182.335938 223.859375 C 180.25 224.144531 178.167969 224.425781 176.085938 224.707031 C 174.710938 223.585938 172.574219 223.699219 171.292969 224.863281 C 170.429688 224.011719 169.050781 223.75 167.914062 224.171875 C 167.492188 223.292969 166.5625 222.621094 165.585938 222.445312 C 164.25 222.199219 163.109375 222.859375 162.160156 223.75 C 162.15625 223.625 162.15625 223.5 162.152344 223.375 C 162.148438 223.023438 161.902344 222.664062 161.546875 222.578125 L 159.574219 222.105469 C 159.78125 219.984375 160.0625 217.871094 160.128906 215.738281 C 160.183594 214.042969 160.578125 212.175781 158.84375 211.117188 C 158.695312 211.023438 158.535156 210.945312 158.363281 210.90625 C 157.921875 210.804688 157.464844 210.96875 157.027344 211.085938 C 155.359375 211.542969 153.8125 211.046875 152.179688 210.71875 C 151.121094 210.507812 149.132812 210.160156 148.179688 210.675781 C 147.84375 210.859375 147.578125 211.148438 147.355469 211.457031 C 146.351562 212.867188 146.539062 214.425781 146.515625 216.054688 C 146.496094 217.269531 146.550781 218.484375 146.585938 219.703125 C 146.074219 219.457031 145.507812 219.324219 144.917969 219.371094 C 143.53125 219.484375 142.460938 220.417969 141.976562 221.632812 C 140.9375 221.324219 139.792969 221.519531 138.878906 222.09375 C 138.695312 221.09375 138.226562 220.1875 137.261719 219.664062 C 136.371094 219.183594 135.359375 219.195312 134.558594 219.617188 C 134.253906 219.261719 133.832031 218.988281 133.332031 218.835938 C 131.832031 218.378906 130.730469 219.140625 129.464844 219.824219 C 128.453125 220.367188 127.847656 220.269531 126.824219 219.8125 C 126.140625 219.507812 125.464844 219.273438 124.703125 219.296875 C 123.820312 219.320312 123.007812 219.613281 122.328125 220.105469 C 121.703125 218.683594 120.429688 217.59375 118.808594 217.371094 C 117.1875 217.148438 115.65625 217.890625 114.6875 219.109375 C 113.121094 217.140625 109.625 216.847656 107.882812 218.734375 C 105.945312 217.417969 103.042969 218.070312 101.769531 220.011719 C 99.773438 218.894531 97.082031 219.402344 95.539062 221.046875 C 94.566406 219.484375 92.453125 218.601562 90.597656 219.269531 C 88.179688 220.140625 87.382812 222.808594 87.789062 225.15625 C 87.160156 225.171875 86.519531 225.394531 85.992188 225.796875 C 84.804688 226.699219 84.578125 228.195312 84.570312 229.613281 C 82.765625 229.554688 80.761719 229.796875 79.699219 231.40625 C 79.03125 232.421875 78.914062 233.726562 79.449219 234.734375 C 78.140625 235.566406 77.425781 237.109375 77.574219 238.644531 C 75.859375 238.789062 74.351562 240.324219 74.25 242.046875 C 72.242188 242.183594 70.496094 244.375 71.265625 246.398438 C 71.304688 246.503906 71.363281 246.582031 71.425781 246.65625 C 71.460938 246.867188 71.570312 247.066406 71.796875 247.214844 C 72.242188 247.507812 72.6875 247.800781 73.132812 248.09375 C 71.992188 248.839844 71.316406 250.253906 72.027344 251.644531 C 72.699219 252.953125 74.375 253.433594 75.699219 252.960938 C 76.347656 254.433594 78.214844 255.296875 79.757812 254.925781 C 79.722656 255.207031 79.6875 255.488281 79.652344 255.765625 C 79.601562 256.140625 79.945312 256.449219 80.257812 256.5625 C 81.839844 257.132812 83.527344 256.613281 84.613281 255.464844 C 85.734375 257.058594 87.96875 257.851562 89.792969 257.230469 C 90.082031 258.464844 91.148438 259.5625 92.484375 259.851562 C 94.675781 260.320312 96.328125 258.589844 97.210938 256.710938 C 98.078125 257.46875 99.269531 257.820312 100.484375 257.960938 C 102.9375 258.238281 105.480469 258.101562 107.960938 258.082031 C 108.289062 259.433594 109.78125 260.324219 111.175781 260.308594 C 112.753906 260.289062 113.914062 259.195312 114.800781 257.957031 C 115.789062 259.183594 117.726562 259.675781 119.164062 259.050781 C 119.191406 259.40625 119.214844 259.769531 119.242188 260.125 C 119.28125 260.691406 119.734375 261.027344 120.285156 260.921875 C 121.921875 260.617188 123.402344 259.890625 124.636719 258.84375 C 124.902344 259.75 125.511719 260.554688 126.414062 260.957031 C 127.761719 261.554688 129.335938 261.042969 130.265625 259.984375 C 131.433594 261.066406 133.535156 261.15625 134.695312 259.988281 C 136.714844 261.234375 139.132812 261.09375 141.4375 260.558594 C 141.304688 261.625 141.726562 262.796875 142.664062 263.46875 C 144.128906 264.511719 145.667969 263.933594 146.71875 262.792969 C 147.011719 263.15625 147.382812 263.457031 147.851562 263.628906 C 149.003906 264.046875 150.125 263.621094 150.84375 262.800781 C 151.65625 263.613281 152.875 263.996094 154.015625 263.578125 C 154.304688 263.472656 154.546875 263.316406 154.773438 263.140625 C 155.277344 264.007812 156.015625 264.738281 156.988281 265.183594 C 159.128906 266.167969 161.804688 265.464844 163.25 263.625 C 163.355469 263.488281 163.410156 263.34375 163.429688 263.195312 C 163.820312 263.875 164.457031 264.410156 165.277344 264.609375 C 166.191406 264.832031 167.113281 264.542969 167.8125 263.972656 C 168.15625 264.511719 168.652344 264.960938 169.261719 265.21875 C 169.980469 265.523438 170.539062 265.554688 171.109375 264.992188 C 171.308594 264.796875 171.476562 264.582031 171.632812 264.359375 C 172.496094 265.183594 173.800781 265.523438 174.941406 265.121094 C 175.78125 266.117188 177.214844 266.535156 178.417969 266.105469 C 178.945312 267.5625 180.394531 268.664062 182.015625 268.480469 C 183.03125 268.367188 183.84375 267.8125 184.375 267.050781 C 184.871094 267.589844 185.527344 267.984375 186.289062 268.109375 C 187.464844 268.300781 188.570312 267.824219 189.332031 267 C 190.058594 267.851562 191.167969 268.359375 192.332031 268.171875 C 193.148438 268.042969 193.84375 267.585938 194.335938 266.96875 C 194.785156 267.457031 195.375 267.820312 196.070312 267.945312 C 197.019531 268.121094 197.910156 267.824219 198.601562 267.257812 C 199.222656 268.484375 200.359375 269.421875 201.804688 269.601562 C 203.230469 269.78125 204.558594 269.179688 205.46875 268.164062 C 206.40625 269.375 208.160156 269.949219 209.5625 269.007812 C 210.453125 268.410156 210.847656 267.421875 210.816406 266.433594 C 211.894531 266.519531 213 266.113281 213.617188 265.109375 C 214.234375 264.109375 214.148438 262.980469 213.636719 262.070312 C 215.589844 261.921875 217.464844 261.183594 217.960938 259.023438 C 218.117188 258.34375 217.976562 257.660156 217.648438 257.082031 C 219.984375 256.269531 222.148438 254.5 222.59375 252.210938 C 222.792969 251.191406 222.433594 250.140625 221.792969 249.359375 C 222.695312 248.875 223.398438 248.152344 223.601562 247.046875 C 223.699219 246.496094 223.648438 245.9375 223.480469 245.429688 C 224.253906 245.230469 224.910156 244.757812 225.199219 243.878906 C 225.335938 243.460938 225.328125 243.007812 225.21875 242.578125 C 225.847656 242.300781 226.382812 241.828125 226.679688 241.167969 C 227.105469 240.210938 226.886719 239.148438 226.304688 238.34375 C 227.699219 237.90625 228.789062 236.890625 229.382812 235.464844 C 229.496094 235.1875 229.351562 234.863281 229.171875 234.660156 Z M 182.671875 257.441406 C 162.640625 254.609375 143.851562 254.234375 120.519531 251.210938 C 115.597656 250.574219 110.433594 249.644531 105.425781 249.132812 C 106.515625 248.234375 107.464844 247.070312 108.207031 246.042969 C 111.398438 241.636719 120.085938 231.652344 125.015625 226.515625 C 132.207031 227.199219 139.398438 227.886719 146.589844 228.570312 C 146.585938 229.875 146.527344 231.183594 146.242188 232.460938 C 145.457031 232.398438 144.734375 232.925781 144.269531 233.558594 C 143.277344 234.894531 143.148438 236.816406 143.949219 238.277344 C 145.195312 240.546875 148.582031 241.070312 150.921875 241.230469 C 152.136719 241.316406 153.378906 241.398438 154.59375 241.304688 C 156.613281 241.148438 158.761719 240.386719 159.820312 238.53125 C 160.777344 236.855469 160.363281 234.421875 158.597656 233.476562 C 158.71875 232.042969 158.839844 230.609375 158.964844 229.175781 C 159.027344 229.195312 159.089844 229.226562 159.164062 229.234375 C 171.625 230.425781 184.082031 231.613281 196.539062 232.800781 C 191.085938 240.625 186.648438 248.089844 182.671875 257.4375 Z M 198.953125 232.121094 C 199.035156 232.148438 199.113281 232.175781 199.210938 232.179688 C 203.242188 232.261719 207.628906 232.457031 211.660156 232.539062 C 213.511719 232.578125 215.484375 232.429688 217.3125 232.75 C 218.09375 232.886719 218.941406 233.160156 219.382812 233.867188 C 219.652344 234.300781 219.757812 234.800781 219.59375 235.238281 C 219.546875 235.285156 219.5 235.324219 219.464844 235.394531 C 219.425781 235.472656 219.382812 235.546875 219.34375 235.625 C 219.316406 235.652344 219.296875 235.683594 219.265625 235.707031 C 219.070312 235.882812 218.996094 236.082031 219.003906 236.277344 C 216.105469 241.816406 208.078125 255.921875 207.164062 257.574219 C 205.84375 259.960938 203.242188 259.574219 200.890625 259.453125 C 198.035156 259.304688 195.179688 259.15625 192.324219 259.011719 C 189.613281 258.871094 186.75 258.953125 184.132812 258.128906 C 188.84375 247.953125 193.183594 239.636719 198.953125 232.121094 Z M 102.097656 248.828125 C 100.917969 249.097656 99.683594 248.824219 98.550781 248.664062 C 96.085938 248.316406 92.46875 247.925781 90 247.578125 C 87.613281 247.238281 85.207031 246.960938 82.835938 246.5625 C 82.300781 246.476562 81.664062 246.386719 81.667969 245.738281 C 81.671875 245.339844 81.972656 244.886719 82.191406 244.5625 C 82.894531 243.503906 84.792969 241.765625 85.707031 240.882812 C 88.984375 237.726562 92.265625 234.566406 95.542969 231.410156 C 96.976562 230.027344 103.414062 224.476562 106.351562 224.285156 C 109.960938 224.046875 120.46875 225.453125 121.296875 225.507812 C 121.613281 225.53125 123.441406 225.863281 123.636719 225.667969 C 120.394531 228.949219 109.097656 242.003906 105.625 246.234375 C 104.933594 247.070312 103.160156 248.585938 102.097656 248.828125 Z M 147.492188 233.398438 C 147.550781 233.371094 147.605469 233.335938 147.648438 233.28125 C 147.746094 233.160156 147.75 232.992188 147.75 232.835938 C 147.707031 227.65625 147.664062 222.476562 147.621094 217.292969 C 147.609375 215.898438 147.511719 213.445312 148.808594 212.519531 C 149.945312 211.707031 151.757812 212.089844 153.007812 212.363281 C 153.953125 212.566406 154.914062 212.8125 155.890625 212.808594 C 156.667969 212.800781 157.859375 212.117188 158.390625 212.992188 C 158.566406 213.277344 158.613281 213.621094 158.660156 213.949219 C 158.855469 215.382812 158.472656 216.867188 158.355469 218.3125 C 158.210938 220.109375 157.984375 221.898438 157.828125 223.695312 C 157.535156 227.054688 157.207031 230.410156 156.921875 233.773438 C 156.898438 234.0625 157.007812 234.265625 157.175781 234.394531 C 157.234375 234.546875 157.34375 234.6875 157.550781 234.777344 C 159.167969 235.484375 158.867188 237.503906 157.730469 238.503906 C 156.164062 239.882812 153.871094 239.734375 151.929688 239.640625 C 150.265625 239.558594 148.460938 239.425781 146.945312 238.667969 C 145.507812 237.945312 143.972656 235.871094 145.421875 234.355469 C 145.894531 233.863281 146.578125 233.636719 147.242188 233.476562 C 147.324219 233.457031 147.414062 233.4375 147.492188 233.398438 Z M 225.078125 236.925781 C 224.851562 236.9375 224.6875 237.035156 224.558594 237.160156 C 224.515625 237.148438 224.480469 237.128906 224.441406 237.125 C 223.402344 236.945312 222.957031 238.535156 224.003906 238.71875 C 224.800781 238.855469 225.570312 239.695312 225.15625 240.546875 C 224.988281 240.894531 224.671875 241.09375 224.316406 241.164062 C 223.835938 240.796875 223.222656 240.644531 222.5625 240.890625 C 221.902344 241.136719 221.734375 242 222.367188 242.398438 C 222.742188 242.636719 223.160156 242.773438 223.589844 242.824219 C 223.664062 243.109375 223.597656 243.476562 223.371094 243.65625 C 223.09375 243.878906 222.738281 243.949219 222.375 243.933594 C 221.890625 243.613281 221.296875 243.460938 220.625 243.574219 C 219.953125 243.691406 219.796875 244.800781 220.429688 245.085938 C 220.8125 245.257812 221.257812 245.390625 221.71875 245.46875 C 222.046875 245.949219 222.019531 246.871094 221.777344 247.242188 C 221.445312 247.757812 220.886719 248.0625 220.269531 248.261719 C 219.429688 247.976562 218.492188 248.089844 217.664062 248.859375 C 217.171875 249.320312 217.527344 250.339844 218.25 250.269531 C 218.824219 250.214844 219.460938 250.125 220.09375 249.976562 C 220.332031 250.105469 220.550781 250.292969 220.699219 250.488281 C 221.378906 251.367188 220.882812 252.527344 220.273438 253.292969 C 219.289062 254.539062 217.765625 255.449219 216.171875 255.777344 C 215.492188 255.511719 214.71875 255.527344 214.003906 256.011719 C 213.304688 256.480469 213.601562 257.480469 214.421875 257.550781 C 214.898438 257.589844 215.40625 257.566406 215.921875 257.496094 C 216.035156 257.585938 216.140625 257.695312 216.222656 257.828125 C 216.621094 258.488281 216.203125 259.25 215.6875 259.710938 C 214.460938 260.800781 212.59375 260.519531 211.105469 260.347656 C 210.054688 260.226562 210.0625 261.878906 211.105469 262 C 212.058594 262.109375 212.765625 263.464844 212.195312 264.277344 C 211.75 264.914062 210.847656 264.941406 210.214844 264.582031 C 209.992188 264.269531 209.710938 263.992188 209.378906 263.777344 C 208.671875 263.328125 207.835938 264.210938 208.246094 264.910156 C 208.445312 265.246094 208.710938 265.527344 209.015625 265.757812 C 209.300781 266.347656 209.246094 267.136719 208.738281 267.574219 C 207.847656 268.335938 206.476562 267.347656 206.460938 266.335938 C 206.445312 265.382812 205.132812 265.242188 204.839844 266.117188 C 203.929688 268.816406 199.96875 268.363281 199.75 265.496094 C 199.679688 264.546875 198.460938 264.398438 198.128906 265.273438 C 197.4375 267.097656 195.011719 266.347656 195.09375 264.539062 C 194.996094 263.492188 193.488281 263.460938 193.441406 264.539062 C 193.640625 266.703125 190.707031 267.296875 190.179688 265.136719 C 189.976562 264.316406 188.820312 264.386719 188.585938 265.136719 C 187.921875 267.238281 184.996094 266.644531 185.054688 264.488281 C 185.046875 264.488281 185.042969 264.492188 185.039062 264.492188 C 185.03125 264.417969 185.035156 264.34375 185.023438 264.269531 C 184.875 263.324219 183.425781 263.59375 183.402344 264.492188 C 183.398438 264.699219 183.410156 264.90625 183.441406 265.109375 C 183.363281 265.972656 182.636719 266.804688 181.753906 266.859375 C 180.574219 266.933594 179.792969 265.746094 179.875 264.683594 C 179.925781 263.996094 178.914062 263.558594 178.464844 264.097656 C 177.847656 264.835938 176.40625 264.835938 176.023438 263.828125 C 175.847656 263.375 175.285156 263 174.808594 263.335938 C 173.929688 263.957031 172.644531 263.5625 172.367188 262.484375 C 172.152344 261.648438 171.039062 261.753906 170.773438 262.484375 C 170.597656 262.976562 170.339844 263.378906 170.003906 263.746094 C 169.246094 263.496094 168.882812 262.683594 168.972656 261.910156 C 169.082031 260.992188 167.515625 260.777344 167.351562 261.691406 C 166.992188 263.683594 164.175781 263.15625 164.679688 261.199219 C 164.945312 260.167969 163.351562 259.730469 163.085938 260.761719 C 162.949219 261.296875 162.96875 261.855469 163.101562 262.375 C 162.8125 262.125 162.390625 262.066406 162.082031 262.460938 C 161.105469 263.707031 159.425781 264.359375 157.886719 263.78125 C 156.875 263.398438 156.132812 262.515625 155.808594 261.5 C 155.988281 260.757812 155.929688 259.941406 155.578125 259.234375 C 155.28125 258.632812 154.179688 258.730469 154.070312 259.429688 C 153.964844 260.09375 153.992188 260.757812 154.117188 261.402344 C 153.960938 261.703125 153.714844 261.953125 153.375 262.054688 C 152.542969 262.308594 151.765625 261.644531 151.59375 260.867188 C 151.371094 259.882812 150.078125 260.234375 149.96875 261.089844 C 149.789062 262.539062 147.953125 262.25 147.714844 261.210938 C 147.894531 260.765625 148 260.300781 148.019531 259.855469 C 148.058594 259.011719 146.890625 258.757812 146.480469 259.4375 C 146.21875 259.871094 146.101562 260.367188 146.089844 260.867188 C 145.628906 261.859375 144.664062 262.816406 143.660156 262.160156 C 143.066406 261.769531 142.664062 260.300781 143.519531 259.980469 C 144.5 259.617188 144.109375 258.0625 143.082031 258.386719 C 140.617188 259.160156 137.289062 260.15625 135.082031 258.261719 C 134.582031 257.835938 133.933594 258.027344 133.703125 258.628906 C 133.277344 259.730469 131.101562 259.226562 131.078125 258.097656 C 131.0625 257.207031 129.585938 256.921875 129.457031 257.875 C 129.304688 258.960938 128.152344 259.972656 127.023438 259.429688 C 126.019531 258.945312 125.914062 257.582031 126.488281 256.761719 C 127.082031 255.867188 125.667969 255.066406 125.0625 255.925781 C 124.039062 257.472656 122.550781 258.542969 120.820312 259.085938 C 120.777344 258.480469 120.734375 257.882812 120.691406 257.28125 C 120.636719 256.535156 119.535156 256.0625 119.152344 256.863281 C 118.46875 258.292969 115.773438 257.742188 115.8125 256.117188 C 115.828125 255.296875 114.675781 254.996094 114.269531 255.699219 C 113.660156 256.765625 112.917969 258.152344 111.667969 258.566406 C 110.753906 258.867188 109.433594 258.355469 109.554688 257.257812 C 109.605469 256.8125 109.136719 256.433594 108.730469 256.429688 C 106.425781 256.417969 104.121094 256.4375 101.820312 256.394531 C 100.46875 256.367188 98.292969 256.269531 97.765625 254.734375 C 97.511719 254.007812 96.375 253.898438 96.171875 254.734375 C 95.835938 256.113281 95.039062 257.898438 93.476562 258.222656 C 92.472656 258.429688 90.613281 257.101562 91.511719 256.011719 C 92.152344 255.191406 91.03125 254.015625 90.34375 254.84375 C 89.113281 256.425781 85.835938 255.878906 85.582031 253.703125 C 85.476562 252.796875 84.273438 252.554688 83.960938 253.480469 C 83.582031 254.601562 82.488281 255.195312 81.386719 255.109375 C 81.46875 254.46875 81.550781 253.828125 81.628906 253.1875 C 81.738281 252.339844 80.46875 252.113281 80.089844 252.769531 C 79.394531 253.976562 76.839844 253.167969 77.101562 251.753906 C 77.230469 251.042969 76.28125 250.230469 75.71875 250.949219 C 75.246094 251.554688 74.308594 251.726562 73.707031 251.160156 C 72.917969 250.417969 73.886719 249.03125 74.851562 249.175781 C 75.753906 249.316406 76.3125 248.210938 75.488281 247.667969 C 74.609375 247.089844 73.730469 246.511719 72.851562 245.933594 C 72.394531 244.667969 73.695312 243.332031 74.976562 243.796875 C 75.558594 244.007812 76.1875 243.351562 75.992188 242.78125 C 75.503906 241.339844 77.035156 239.890625 78.445312 240.410156 C 79.183594 240.679688 79.664062 239.78125 79.378906 239.195312 C 78.730469 237.847656 79.609375 236.195312 81.011719 235.832031 C 81.722656 235.648438 81.792969 234.695312 81.207031 234.324219 C 80.300781 233.746094 80.835938 232.351562 81.535156 231.84375 C 82.613281 231.0625 84.15625 231.214844 85.40625 231.308594 C 85.839844 231.339844 86.25 230.902344 86.234375 230.484375 C 86.191406 229.527344 86.089844 228.375 86.617188 227.527344 C 86.992188 226.929688 87.90625 226.476562 88.46875 227.074219 C 89.140625 227.785156 90.167969 226.882812 89.769531 226.074219 C 88.976562 224.480469 89.089844 221.996094 90.785156 220.996094 C 92.15625 220.191406 94.746094 221.261719 94.429688 223.078125 C 94.253906 224.105469 95.78125 224.566406 96.023438 223.515625 C 96.550781 221.226562 99.78125 220.183594 101.503906 221.839844 C 101.953125 222.273438 102.707031 222.078125 102.882812 221.476562 C 103.4375 219.582031 106.167969 219.085938 107.4375 220.527344 C 107.777344 220.914062 108.5 220.816406 108.734375 220.359375 C 109.796875 218.28125 113.421875 218.878906 113.820312 221.15625 C 113.972656 222 115.195312 221.882812 115.414062 221.15625 C 116.332031 218.117188 120.800781 218.46875 121.078125 221.683594 C 121.152344 222.511719 122.140625 222.796875 122.621094 222.101562 C 123.238281 221.203125 124.375 220.75 125.441406 221.03125 C 126.527344 221.320312 127.328125 222.023438 128.519531 221.890625 C 129.46875 221.785156 130.269531 221.246094 131.085938 220.789062 C 131.550781 220.527344 131.980469 220.289062 132.53125 220.355469 C 132.820312 220.386719 133.460938 220.53125 133.363281 220.917969 C 133.097656 221.980469 134.558594 222.308594 134.957031 221.355469 C 135.253906 220.652344 136.417969 220.964844 136.804688 221.378906 C 137.503906 222.125 137.410156 223.382812 137.246094 224.300781 C 137.0625 225.332031 138.59375 225.789062 138.839844 224.738281 C 139.171875 223.304688 140.921875 222.6875 142.109375 223.523438 C 142.660156 223.910156 143.308594 223.378906 143.351562 222.808594 C 143.417969 221.851562 144.234375 220.976562 145.230469 221.019531 C 145.828125 221.042969 146.296875 221.359375 146.609375 221.800781 C 146.601562 223.507812 146.597656 225.214844 146.589844 226.921875 C 139.804688 226.273438 133.019531 225.628906 126.230469 224.984375 C 126.28125 224.5625 126.011719 224.171875 125.515625 224.140625 C 118.582031 223.683594 114.8125 222.863281 107.824219 222.761719 C 107.199219 222.753906 106.570312 222.746094 105.941406 222.84375 C 104.578125 223.054688 103.28125 223.164062 102.167969 224.050781 C 100.898438 225.0625 98.152344 226.8125 96.949219 227.878906 C 95.535156 229.132812 94.210938 230.515625 92.851562 231.828125 C 90.117188 234.460938 87.386719 237.09375 84.652344 239.722656 C 83.179688 241.144531 80.015625 243.804688 80.003906 245.988281 C 79.988281 248.421875 83.234375 248.296875 84.992188 248.546875 C 87.726562 248.929688 90.460938 249.316406 93.195312 249.703125 C 94.527344 249.890625 97.667969 250.183594 99 250.371094 C 100.171875 250.535156 101.34375 250.738281 102.558594 250.558594 C 102.898438 250.507812 103.222656 250.410156 103.542969 250.28125 C 124.988281 254.253906 183.316406 259.773438 183.476562 259.660156 C 186.164062 260.566406 189.109375 260.5 191.910156 260.644531 C 195.039062 260.804688 198.167969 260.96875 201.292969 261.128906 C 203.558594 261.246094 206.15625 261.433594 207.800781 259.550781 C 208.851562 258.347656 217.507812 242.683594 220.707031 236.566406 C 221.621094 235.449219 221.425781 233.777344 220.535156 232.660156 C 219.28125 231.085938 217.070312 231.003906 215.222656 230.964844 C 210.003906 230.851562 204.425781 230.636719 199.203125 230.53125 C 199.117188 230.527344 199.054688 230.554688 198.980469 230.570312 C 198.695312 230.390625 198.277344 230.332031 198.023438 230.691406 C 197.886719 230.878906 197.753906 231.066406 197.621094 231.257812 C 184.800781 230.035156 171.980469 228.8125 159.160156 227.589844 C 159.132812 227.585938 159.117188 227.597656 159.089844 227.597656 C 159.199219 226.320312 159.308594 225.046875 159.417969 223.769531 C 159.78125 223.859375 160.144531 223.945312 160.507812 224.03125 C 160.519531 224.644531 160.53125 225.257812 160.542969 225.871094 C 160.554688 226.519531 161.484375 227.050781 161.953125 226.457031 C 162.628906 225.59375 163.382812 224.5625 164.453125 224.175781 C 165.320312 223.863281 166.832031 224.417969 166.390625 225.542969 C 166.039062 226.433594 167.433594 226.960938 167.898438 226.179688 C 168.472656 225.214844 170.15625 225.507812 170.425781 226.570312 C 170.585938 227.210938 171.636719 227.433594 171.933594 226.769531 C 172.257812 226.050781 172.867188 225.632812 173.652344 225.566406 C 173.992188 225.539062 174.359375 225.582031 174.671875 225.730469 C 175.007812 225.890625 175.210938 226.269531 175.578125 226.367188 C 176.015625 226.488281 176.570312 226.292969 177.011719 226.234375 L 178.796875 225.992188 C 179.925781 225.839844 181.050781 225.6875 182.179688 225.53125 C 182.816406 226.390625 183.457031 227.253906 184.097656 228.113281 C 184.523438 228.6875 185.363281 228.628906 185.605469 227.917969 C 186.039062 226.644531 187.632812 226.074219 188.792969 226.714844 C 189.25 226.96875 189.871094 226.75 190.003906 226.222656 C 190.449219 224.46875 193.050781 224.84375 192.734375 226.699219 C 192.578125 227.621094 193.695312 228.128906 194.242188 227.335938 C 194.917969 226.363281 196.394531 224.699219 197.777344 225.285156 C 198.269531 225.496094 198.710938 226.191406 198.652344 226.75 C 198.367188 227.003906 198.117188 227.300781 197.933594 227.660156 C 197.539062 228.421875 198.320312 229.144531 199.0625 228.789062 C 199.570312 228.546875 199.902344 228.175781 200.097656 227.746094 C 201.089844 227.183594 202.546875 227.511719 203.054688 228.628906 C 203.394531 229.382812 204.628906 228.996094 204.59375 228.210938 C 204.535156 227.03125 205.9375 226.449219 206.945312 226.761719 C 208.222656 227.15625 208.988281 228.570312 209.453125 229.71875 C 209.804688 230.578125 210.996094 230.464844 211.078125 229.5 C 211.246094 227.550781 213.769531 227.753906 214.0625 229.539062 C 214.1875 230.289062 215.222656 230.28125 215.574219 229.738281 C 216.445312 228.378906 219.117188 229.070312 219.203125 230.691406 C 219.242188 231.457031 220.054688 231.710938 220.613281 231.273438 C 221.726562 230.40625 224.023438 229.824219 224.996094 231.234375 C 225.328125 231.714844 225.296875 232.613281 224.964844 233.230469 C 224.335938 233.34375 223.726562 233.570312 223.1875 233.957031 C 222.671875 234.328125 222.617188 235.328125 223.382812 235.46875 C 224.300781 235.632812 225.105469 235.34375 225.714844 234.8125 C 226.375 234.796875 227.035156 234.996094 227.585938 235.425781 C 227.054688 236.300781 226.105469 236.859375 225.074219 236.925781 Z M 225.078125 236.925781 " fill-opacity="1" fill-rule="nonzero"/></g></svg>